  0
SECTION
  2
HEADER
  9
$ACADVER
  1
AC1024
  9
$ACADMAINTVER
 70
     6
  9
$DWGCODEPAGE
  3
ANSI_1251
  9
$INSBASE
 10
0.0
 20
0.0
 30
0.0
  9
$EXTMIN
 10
1.000000000000000E+20
 20
1.000000000000000E+20
 30
1.000000000000000E+20
  9
$EXTMAX
 10
-1.000000000000000E+20
 20
-1.000000000000000E+20
 30
-1.000000000000000E+20
  9
$LIMMIN
 10
0.0
 20
0.0
  9
$LIMMAX
 10
12.0
 20
9.0
  9
$ORTHOMODE
 70
     0
  9
$REGENMODE
 70
     1
  9
$FILLMODE
 70
     1
  9
$QTEXTMODE
 70
     0
  9
$MIRRTEXT
 70
     1
  9
$LTSCALE
 40
1.0
  9
$ATTMODE
 70
     1
  9
$TEXTSIZE
 40
0.2
  9
$TRACEWID
 40
0.05
  9
$TEXTSTYLE
  7
Standard
  9
$CLAYER
  8
0
  9
$CELTYPE
  6
ByLayer
  9
$CECOLOR
 62
   256
  9
$CELTSCALE
 40
1.0
  9
$DISPSILH
 70
     0
  9
$DIMSCALE
 40
1.0
  9
$DIMASZ
 40
0.18
  9
$DIMEXO
 40
0.0625
  9
$DIMDLI
 40
0.38
  9
$DIMRND
 40
0.0
  9
$DIMDLE
 40
0.0
  9
$DIMEXE
 40
0.18
  9
$DIMTP
 40
0.0
  9
$DIMTM
 40
0.0
  9
$DIMTXT
 40
0.18
  9
$DIMCEN
 40
0.09
  9
$DIMTSZ
 40
0.0
  9
$DIMTOL
 70
     0
  9
$DIMLIM
 70
     0
  9
$DIMTIH
 70
     1
  9
$DIMTOH
 70
     1
  9
$DIMSE1
 70
     0
  9
$DIMSE2
 70
     0
  9
$DIMTAD
 70
     0
  9
$DIMZIN
 70
     0
  9
$DIMBLK
  1

  9
$DIMASO
 70
     1
  9
$DIMSHO
 70
     1
  9
$DIMPOST
  1

  9
$DIMAPOST
  1

  9
$DIMALT
 70
     0
  9
$DIMALTD
 70
     2
  9
$DIMALTF
 40
25.4
  9
$DIMLFAC
 40
1.0
  9
$DIMTOFL
 70
     0
  9
$DIMTVP
 40
0.0
  9
$DIMTIX
 70
     0
  9
$DIMSOXD
 70
     0
  9
$DIMSAH
 70
     0
  9
$DIMBLK1
  1

  9
$DIMBLK2
  1

  9
$DIMSTYLE
  2
Standard
  9
$DIMCLRD
 70
     0
  9
$DIMCLRE
 70
     0
  9
$DIMCLRT
 70
     0
  9
$DIMTFAC
 40
1.0
  9
$DIMGAP
 40
0.09
  9
$DIMJUST
 70
     0
  9
$DIMSD1
 70
     0
  9
$DIMSD2
 70
     0
  9
$DIMTOLJ
 70
     1
  9
$DIMTZIN
 70
     0
  9
$DIMALTZ
 70
     0
  9
$DIMALTTZ
 70
     0
  9
$DIMUPT
 70
     0
  9
$DIMDEC
 70
     4
  9
$DIMTDEC
 70
     4
  9
$DIMALTU
 70
     2
  9
$DIMALTTD
 70
     2
  9
$DIMTXSTY
  7
Standard
  9
$DIMAUNIT
 70
     0
  9
$DIMADEC
 70
     0
  9
$DIMALTRND
 40
0.0
  9
$DIMAZIN
 70
     0
  9
$DIMDSEP
 70
    46
  9
$DIMATFIT
 70
     3
  9
$DIMFRAC
 70
     0
  9
$DIMLDRBLK
  1

  9
$DIMLUNIT
 70
     2
  9
$DIMLWD
 70
    -2
  9
$DIMLWE
 70
    -2
  9
$DIMTMOVE
 70
     0
  9
$DIMFXL
 40
1.0
  9
$DIMFXLON
 70
     0
  9
$DIMJOGANG
 40
0.7853981633974483
  9
$DIMTFILL
 70
     0
  9
$DIMTFILLCLR
 70
     0
  9
$DIMARCSYM
 70
     0
  9
$DIMLTYPE
  6

  9
$DIMLTEX1
  6

  9
$DIMLTEX2
  6

  9
$DIMTXTDIRECTION
 70
     0
  9
$LUNITS
 70
     2
  9
$LUPREC
 70
     4
  9
$SKETCHINC
 40
0.1
  9
$FILLETRAD
 40
0.5
  9
$AUNITS
 70
     0
  9
$AUPREC
 70
     0
  9
$MENU
  1
.
  9
$ELEVATION
 40
0.0
  9
$PELEVATION
 40
0.0
  9
$THICKNESS
 40
0.0
  9
$LIMCHECK
 70
     0
  9
$CHAMFERA
 40
0.5
  9
$CHAMFERB
 40
0.5
  9
$CHAMFERC
 40
1.0
  9
$CHAMFERD
 40
0.0
  9
$SKPOLY
 70
     0
  9
$TDCREATE
 40
2459337.676895764
  9
$TDUCREATE
 40
2459337.551895764
  9
$TDUPDATE
 40
2459337.676895764
  9
$TDUUPDATE
 40
2459337.551895764
  9
$TDINDWG
 40
0.0000000116
  9
$TDUSRTIMER
 40
0.0000000116
  9
$USRTIMER
 70
     1
  9
$ANGBASE
 50
0.0
  9
$ANGDIR
 70
     0
  9
$PDMODE
 70
     0
  9
$PDSIZE
 40
0.0
  9
$PLINEWID
 40
0.0
  9
$SPLFRAME
 70
     0
  9
$SPLINETYPE
 70
     6
  9
$SPLINESEGS
 70
     8
  9
$HANDSEED
  5
48
  9
$SURFTAB1
 70
     6
  9
$SURFTAB2
 70
     6
  9
$SURFTYPE
 70
     6
  9
$SURFU
 70
     6
  9
$SURFV
 70
     6
  9
$UCSBASE
  2

  9
$UCSNAME
  2

  9
$UCSORG
 10
0.0
 20
0.0
 30
0.0
  9
$UCSXDIR
 10
1.0
 20
0.0
 30
0.0
  9
$UCSYDIR
 10
0.0
 20
1.0
 30
0.0
  9
$UCSORTHOREF
  2

  9
$UCSORTHOVIEW
 70
     0
  9
$UCSORGTOP
 10
0.0
 20
0.0
 30
0.0
  9
$UCSORGBOTTOM
 10
0.0
 20
0.0
 30
0.0
  9
$UCSORGLEFT
 10
0.0
 20
0.0
 30
0.0
  9
$UCSORGRIGHT
 10
0.0
 20
0.0
 30
0.0
  9
$UCSORGFRONT
 10
0.0
 20
0.0
 30
0.0
  9
$UCSORGBACK
 10
0.0
 20
0.0
 30
0.0
  9
$PUCSBASE
  2

  9
$PUCSNAME
  2

  9
$PUCSORG
 10
0.0
 20
0.0
 30
0.0
  9
$PUCSXDIR
 10
1.0
 20
0.0
 30
0.0
  9
$PUCSYDIR
 10
0.0
 20
1.0
 30
0.0
  9
$PUCSORTHOREF
  2

  9
$PUCSORTHOVIEW
 70
     0
  9
$PUCSORGTOP
 10
0.0
 20
0.0
 30
0.0
  9
$PUCSORGBOTTOM
 10
0.0
 20
0.0
 30
0.0
  9
$PUCSORGLEFT
 10
0.0
 20
0.0
 30
0.0
  9
$PUCSORGRIGHT
 10
0.0
 20
0.0
 30
0.0
  9
$PUCSORGFRONT
 10
0.0
 20
0.0
 30
0.0
  9
$PUCSORGBACK
 10
0.0
 20
0.0
 30
0.0
  9
$USERI1
 70
     0
  9
$USERI2
 70
     0
  9
$USERI3
 70
     0
  9
$USERI4
 70
     0
  9
$USERI5
 70
     0
  9
$USERR1
 40
0.0
  9
$USERR2
 40
0.0
  9
$USERR3
 40
0.0
  9
$USERR4
 40
0.0
  9
$USERR5
 40
0.0
  9
$WORLDVIEW
 70
     1
  9
$SHADEDGE
 70
     3
  9
$SHADEDIF
 70
    70
  9
$TILEMODE
 70
     1
  9
$MAXACTVP
 70
    64
  9
$PINSBASE
 10
0.0
 20
0.0
 30
0.0
  9
$PLIMCHECK
 70
     0
  9
$PEXTMIN
 10
1.000000000000000E+20
 20
1.000000000000000E+20
 30
1.000000000000000E+20
  9
$PEXTMAX
 10
-1.000000000000000E+20
 20
-1.000000000000000E+20
 30
-1.000000000000000E+20
  9
$PLIMMIN
 10
0.0
 20
0.0
  9
$PLIMMAX
 10
12.0
 20
9.0
  9
$UNITMODE
 70
     0
  9
$VISRETAIN
 70
     1
  9
$PLINEGEN
 70
     0
  9
$PSLTSCALE
 70
     1
  9
$TREEDEPTH
 70
  3020
  9
$CMLSTYLE
  2
Standard
  9
$CMLJUST
 70
     0
  9
$CMLSCALE
 40
1.0
  9
$PROXYGRAPHICS
 70
     1
  9
$MEASUREMENT
 70
     0
  9
$CELWEIGHT
370
    -1
  9
$ENDCAPS
280
     0
  9
$JOINSTYLE
280
     0
  9
$LWDISPLAY
290
     1
  9
$INSUNITS
 70
     1
  9
$HYPERLINKBASE
  1

  9
$STYLESHEET
  1

  9
$XEDIT
290
     1
  9
$CEPSNTYPE
380
     0
  9
$PSTYLEMODE
290
     1
  9
$FINGERPRINTGUID
  2
{CE3919BE-4A95-450C-80AC-04B4AA0219C9}
  9
$VERSIONGUID
  2
{FAEB1C32-E019-11D5-929B-00C0DF256EC4}
  9
$EXTNAMES
290
     1
  9
$PSVPSCALE
 40
0.0
  9
$OLESTARTUP
290
     0
  9
$SORTENTS
280
   127
  9
$INDEXCTL
280
     0
  9
$HIDETEXT
280
     1
  9
$XCLIPFRAME
280
     2
  9
$HALOGAP
280
     0
  9
$OBSCOLOR
 70
   257
  9
$OBSLTYPE
280
     0
  9
$INTERSECTIONDISPLAY
280
     0
  9
$INTERSECTIONCOLOR
 70
   257
  9
$DIMASSOC
280
     2
  9
$PROJECTNAME
  1

  9
$CAMERADISPLAY
290
     0
  9
$LENSLENGTH
 40
50.0
  9
$CAMERAHEIGHT
 40
0.0
  9
$STEPSPERSEC
 40
2.0
  9
$STEPSIZE
 40
6.0
  9
$3DDWFPREC
 40
2.0
  9
$PSOLWIDTH
 40
0.25
  9
$PSOLHEIGHT
 40
4.0
  9
$LOFTANG1
 40
1.570796326794897
  9
$LOFTANG2
 40
1.570796326794897
  9
$LOFTMAG1
 40
0.0
  9
$LOFTMAG2
 40
0.0
  9
$LOFTPARAM
 70
     7
  9
$LOFTNORMALS
280
     1
  9
$LATITUDE
 40
37.795
  9
$LONGITUDE
 40
-122.394
  9
$NORTHDIRECTION
 40
0.0
  9
$TIMEZONE
 70
 -8000
  9
$LIGHTGLYPHDISPLAY
280
     1
  9
$TILEMODELIGHTSYNCH
280
     1
  9
$CMATERIAL
347
3C
  9
$SOLIDHIST
280
     1
  9
$SHOWHIST
280
     1
  9
$DWFFRAME
280
     2
  9
$DGNFRAME
280
     2
  9
$REALWORLDSCALE
290
     1
  9
$INTERFERECOLOR
 62
   256
  9
$CSHADOW
280
     0
  9
$SHADOWPLANELOCATION
 40
0.0
  0
ENDSEC
  0
SECTION
  2
CLASSES
  0
CLASS
  1
ACDBDICTIONARYWDFLT
  2
AcDbDictionaryWithDefault
  3
ObjectDBX Classes
 90
        0
 91
        4
280
     0
281
     0
  0
CLASS
  1
VISUALSTYLE
  2
AcDbVisualStyle
  3
ObjectDBX Classes
 90
     4095
 91
        4
280
     0
281
     0
  0
CLASS
  1
MATERIAL
  2
AcDbMaterial
  3
ObjectDBX Classes
 90
     1153
 91
        4
280
     0
281
     0
  0
CLASS
  1
SUN
  2
AcDbSun
  3
SCENEOE
 90
     1024
 91
        4
280
     0
281
     0
  0
ENDSEC
  0
SECTION
  2
TABLES
  0
TABLE
  2
VPORT
  5
8
330
0
100
AcDbSymbolTable
 70
     1
  0
VPORT
  5
29
330
8
100
AcDbSymbolTableRecord
100
AcDbViewportTableRecord
  2
*Active
 70
     0
 10
0.0
 20
0.0
 11
1.0
 21
1.0
 12
0.0
 22
0.0
 13
0.0
 23
0.0
 14
0.5
 24
0.5
 15
0.5
 25
0.5
 16
0.0
 26
0.0
 36
1.0
 17
18.27495972222222
 27
-5.964290904080372
 37
0.0
 40
5.394784585938496
 41
2.224370558053049
 42
50.0
 43
0.0
 44
0.0
 50
0.0
 51
0.0
 71
     0
 72
   100
 73
     1
 74
     3
 75
     0
 76
     0
 77
     0
 78
     0
281
     0
 65
     1
110
0.0
120
0.0
130
0.0
111
1.0
121
0.0
131
0.0
112
0.0
122
1.0
132
0.0
 79
     0
146
0.0
 60
     3
 61
     5
292
     1
282
     1
141
0.0
142
0.0
 63
   250
361
3F
  0
ENDTAB
  0
TABLE
  2
LTYPE
  5
5
330
0
100
AcDbSymbolTable
 70
     1
  0
LTYPE
  5
14
330
5
100
AcDbSymbolTableRecord
100
AcDbLinetypeTableRecord
  2
ByBlock
 70
     0
  3

 72
    65
 73
     0
 40
0.0
  0
LTYPE
  5
15
330
5
100
AcDbSymbolTableRecord
100
AcDbLinetypeTableRecord
  2
ByLayer
 70
     0
  3

 72
    65
 73
     0
 40
0.0
  0
LTYPE
  5
16
330
5
100
AcDbSymbolTableRecord
100
AcDbLinetypeTableRecord
  2
Continuous
 70
     0
  3
Solid line
 72
    65
 73
     0
 40
0.0
  0
ENDTAB
  0
TABLE
  2
LAYER
  5
2
330
0
100
AcDbSymbolTable
 70
     2
  0
LAYER
  5
10
330
2
100
AcDbSymbolTableRecord
100
AcDbLayerTableRecord
  2
0
 70
     0
 62
     7
  6
Continuous
370
    -3
390
F
347
3E
  0
LAYER
  5
40
330
2
100
AcDbSymbolTableRecord
100
AcDbLayerTableRecord
  2
Layer 1
 70
     0
 62
     7
  6
Continuous
370
    -3
390
F
347
3E
  0
ENDTAB
  0
TABLE
  2
STYLE
  5
3
330
0
100
AcDbSymbolTable
 70
     1
  0
STYLE
  5
11
330
3
100
AcDbSymbolTableRecord
100
AcDbTextStyleTableRecord
  2
Standard
 70
     0
 40
0.0
 41
1.0
 50
0.0
 71
     0
 42
0.2
  3
txt
  4

  0
ENDTAB
  0
TABLE
  2
VIEW
  5
6
330
0
100
AcDbSymbolTable
 70
     0
  0
ENDTAB
  0
TABLE
  2
UCS
  5
7
330
0
100
AcDbSymbolTable
 70
     0
  0
ENDTAB
  0
TABLE
  2
APPID
  5
9
330
0
100
AcDbSymbolTable
 70
     1
  0
APPID
  5
12
330
9
100
AcDbSymbolTableRecord
100
AcDbRegAppTableRecord
  2
ACAD
 70
     0
  0
ENDTAB
  0
TABLE
  2
DIMSTYLE
  5
A
330
0
100
AcDbSymbolTable
 70
     1
100
AcDbDimStyleTable
  0
DIMSTYLE
105
27
330
A
100
AcDbSymbolTableRecord
100
AcDbDimStyleTableRecord
  2
Standard
 70
     0
178
     0
340
11
  0
ENDTAB
  0
TABLE
  2
BLOCK_RECORD
  5
1
330
0
100
AcDbSymbolTable
 70
     1
  0
BLOCK_RECORD
  5
1F
330
1
100
AcDbSymbolTableRecord
100
AcDbBlockTableRecord
  2
*Model_Space
340
22
 70
     0
280
     1
281
     0
  0
BLOCK_RECORD
  5
1B
330
1
100
AcDbSymbolTableRecord
100
AcDbBlockTableRecord
  2
*Paper_Space
340
1E
 70
     0
280
     1
281
     0
  0
BLOCK_RECORD
  5
23
330
1
100
AcDbSymbolTableRecord
100
AcDbBlockTableRecord
  2
*Paper_Space0
340
26
 70
     0
280
     1
281
     0
  0
ENDTAB
  0
ENDSEC
  0
SECTION
  2
BLOCKS
  0
BLOCK
  5
20
330
1F
100
AcDbEntity
  8
0
100
AcDbBlockBegin
  2
*Model_Space
 70
     0
 10
0.0
 20
0.0
 30
0.0
  3
*Model_Space
  1

  0
ENDBLK
  5
21
330
1F
100
AcDbEntity
  8
0
100
AcDbBlockEnd
  0
BLOCK
  5
1C
330
1B
100
AcDbEntity
 67
     1
  8
0
100
AcDbBlockBegin
  2
*Paper_Space
 70
     0
 10
0.0
 20
0.0
 30
0.0
  3
*Paper_Space
  1

  0
ENDBLK
  5
1D
330
1B
100
AcDbEntity
 67
     1
  8
0
100
AcDbBlockEnd
  0
BLOCK
  5
24
330
23
100
AcDbEntity
  8
0
100
AcDbBlockBegin
  2
*Paper_Space0
 70
     0
 10
0.0
 20
0.0
 30
0.0
  3
*Paper_Space0
  1

  0
ENDBLK
  5
25
330
23
100
AcDbEntity
  8
0
100
AcDbBlockEnd
  0
ENDSEC
  0
SECTION
  2
ENTITIES
  0
SPLINE
  5
41
330
1F
100
AcDbEntity
  8
Layer 1
370
     0
100
AcDbSpline
210
0.0
220
0.0
230
1.0
 70
    11
 71
     3
 72
   452
 73
   448
 74
     0
 42
0.0000000001
 43
0.0000000001
 12
1.0
 22
0.0
 32
0.0
 13
1.0
 23
0.0
 33
0.0
 40
0.0
 40
0.0
 40
0.0
 40
0.0
 40
1.0
 40
1.0
 40
1.0
 40
2.0
 40
2.0
 40
2.0
 40
3.0
 40
3.0
 40
3.0
 40
4.0
 40
4.0
 40
4.0
 40
5.0
 40
5.0
 40
5.0
 40
6.0
 40
6.0
 40
6.0
 40
7.0
 40
7.0
 40
7.0
 40
8.0
 40
8.0
 40
8.0
 40
9.0
 40
9.0
 40
9.0
 40
10.0
 40
10.0
 40
10.0
 40
11.0
 40
11.0
 40
11.0
 40
12.0
 40
12.0
 40
12.0
 40
13.0
 40
13.0
 40
13.0
 40
14.0
 40
14.0
 40
14.0
 40
15.0
 40
15.0
 40
15.0
 40
16.0
 40
16.0
 40
16.0
 40
17.0
 40
17.0
 40
17.0
 40
18.0
 40
18.0
 40
18.0
 40
19.0
 40
19.0
 40
19.0
 40
20.0
 40
20.0
 40
20.0
 40
21.0
 40
21.0
 40
21.0
 40
22.0
 40
22.0
 40
22.0
 40
23.0
 40
23.0
 40
23.0
 40
24.0
 40
24.0
 40
24.0
 40
25.0
 40
25.0
 40
25.0
 40
26.0
 40
26.0
 40
26.0
 40
27.0
 40
27.0
 40
27.0
 40
28.0
 40
28.0
 40
28.0
 40
29.0
 40
29.0
 40
29.0
 40
30.0
 40
30.0
 40
30.0
 40
31.0
 40
31.0
 40
31.0
 40
32.0
 40
32.0
 40
32.0
 40
33.0
 40
33.0
 40
33.0
 40
34.0
 40
34.0
 40
34.0
 40
35.0
 40
35.0
 40
35.0
 40
36.0
 40
36.0
 40
36.0
 40
37.0
 40
37.0
 40
37.0
 40
38.0
 40
38.0
 40
38.0
 40
39.0
 40
39.0
 40
39.0
 40
40.0
 40
40.0
 40
40.0
 40
41.0
 40
41.0
 40
41.0
 40
42.0
 40
42.0
 40
42.0
 40
43.0
 40
43.0
 40
43.0
 40
44.0
 40
44.0
 40
44.0
 40
45.0
 40
45.0
 40
45.0
 40
46.0
 40
46.0
 40
46.0
 40
47.0
 40
47.0
 40
47.0
 40
48.0
 40
48.0
 40
48.0
 40
49.0
 40
49.0
 40
49.0
 40
50.0
 40
50.0
 40
50.0
 40
51.0
 40
51.0
 40
51.0
 40
52.0
 40
52.0
 40
52.0
 40
53.0
 40
53.0
 40
53.0
 40
54.0
 40
54.0
 40
54.0
 40
55.0
 40
55.0
 40
55.0
 40
56.0
 40
56.0
 40
56.0
 40
57.0
 40
57.0
 40
57.0
 40
58.0
 40
58.0
 40
58.0
 40
59.0
 40
59.0
 40
59.0
 40
60.0
 40
60.0
 40
60.0
 40
61.0
 40
61.0
 40
61.0
 40
62.0
 40
62.0
 40
62.0
 40
63.0
 40
63.0
 40
63.0
 40
64.0
 40
64.0
 40
64.0
 40
65.0
 40
65.0
 40
65.0
 40
66.0
 40
66.0
 40
66.0
 40
67.0
 40
67.0
 40
67.0
 40
68.0
 40
68.0
 40
68.0
 40
69.0
 40
69.0
 40
69.0
 40
70.0
 40
70.0
 40
70.0
 40
71.0
 40
71.0
 40
71.0
 40
72.0
 40
72.0
 40
72.0
 40
73.0
 40
73.0
 40
73.0
 40
74.0
 40
74.0
 40
74.0
 40
75.0
 40
75.0
 40
75.0
 40
76.0
 40
76.0
 40
76.0
 40
77.0
 40
77.0
 40
77.0
 40
78.0
 40
78.0
 40
78.0
 40
79.0
 40
79.0
 40
79.0
 40
80.0
 40
80.0
 40
80.0
 40
81.0
 40
81.0
 40
81.0
 40
82.0
 40
82.0
 40
82.0
 40
83.0
 40
83.0
 40
83.0
 40
84.0
 40
84.0
 40
84.0
 40
85.0
 40
85.0
 40
85.0
 40
86.0
 40
86.0
 40
86.0
 40
87.0
 40
87.0
 40
87.0
 40
88.0
 40
88.0
 40
88.0
 40
89.0
 40
89.0
 40
89.0
 40
90.0
 40
90.0
 40
90.0
 40
91.0
 40
91.0
 40
91.0
 40
92.0
 40
92.0
 40
92.0
 40
93.0
 40
93.0
 40
93.0
 40
94.0
 40
94.0
 40
94.0
 40
95.0
 40
95.0
 40
95.0
 40
96.0
 40
96.0
 40
96.0
 40
97.0
 40
97.0
 40
97.0
 40
98.0
 40
98.0
 40
98.0
 40
99.0
 40
99.0
 40
99.0
 40
100.0
 40
100.0
 40
100.0
 40
101.0
 40
101.0
 40
101.0
 40
102.0
 40
102.0
 40
102.0
 40
103.0
 40
103.0
 40
103.0
 40
104.0
 40
104.0
 40
104.0
 40
105.0
 40
105.0
 40
105.0
 40
106.0
 40
106.0
 40
106.0
 40
107.0
 40
107.0
 40
107.0
 40
108.0
 40
108.0
 40
108.0
 40
109.0
 40
109.0
 40
109.0
 40
110.0
 40
110.0
 40
110.0
 40
111.0
 40
111.0
 40
111.0
 40
112.0
 40
112.0
 40
112.0
 40
113.0
 40
113.0
 40
113.0
 40
114.0
 40
114.0
 40
114.0
 40
115.0
 40
115.0
 40
115.0
 40
116.0
 40
116.0
 40
116.0
 40
117.0
 40
117.0
 40
117.0
 40
118.0
 40
118.0
 40
118.0
 40
119.0
 40
119.0
 40
119.0
 40
120.0
 40
120.0
 40
120.0
 40
121.0
 40
121.0
 40
121.0
 40
122.0
 40
122.0
 40
122.0
 40
123.0
 40
123.0
 40
123.0
 40
124.0
 40
124.0
 40
124.0
 40
125.0
 40
125.0
 40
125.0
 40
126.0
 40
126.0
 40
126.0
 40
127.0
 40
127.0
 40
127.0
 40
128.0
 40
128.0
 40
128.0
 40
129.0
 40
129.0
 40
129.0
 40
130.0
 40
130.0
 40
130.0
 40
131.0
 40
131.0
 40
131.0
 40
132.0
 40
132.0
 40
132.0
 40
133.0
 40
133.0
 40
133.0
 40
134.0
 40
134.0
 40
134.0
 40
135.0
 40
135.0
 40
135.0
 40
136.0
 40
136.0
 40
136.0
 40
137.0
 40
137.0
 40
137.0
 40
138.0
 40
138.0
 40
138.0
 40
139.0
 40
139.0
 40
139.0
 40
140.0
 40
140.0
 40
140.0
 40
141.0
 40
141.0
 40
141.0
 40
142.0
 40
142.0
 40
142.0
 40
143.0
 40
143.0
 40
143.0
 40
144.0
 40
144.0
 40
144.0
 40
145.0
 40
145.0
 40
145.0
 40
146.0
 40
146.0
 40
146.0
 40
147.0
 40
147.0
 40
147.0
 40
148.0
 40
148.0
 40
148.0
 40
149.0
 40
149.0
 40
149.0
 40
149.0
 10
24.16503333333334
 20
-4.866227777777781
 30
0.0
 10
24.09591249999999
 20
-4.805533333333338
 30
0.0
 10
24.01551388888889
 20
-4.765390277777783
 30
0.0
 10
23.94600000000001
 20
-4.734138888888891
 30
0.0
 10
23.82976944444443
 20
-4.681870833333329
 30
0.0
 10
23.71245833333334
 20
-4.629701388888886
 30
0.0
 10
23.59460555555557
 20
-4.577384722222228
 30
0.0
 10
23.21172916666668
 20
-4.407240277777772
 30
0.0
 10
22.81580694444445
 20
-4.231297222222224
 30
0.0
 10
22.43867916666666
 20
-4.040775000000003
 30
0.0
 10
21.91961250000001
 20
-3.778524999999995
 30
0.0
 10
21.47967499999999
 20
-3.577659722222228
 30
0.0
 10
20.94925555555556
 20
-3.577659722222228
 30
0.0
 10
20.94452638888889
 20
-3.577659722222228
 30
0.0
 10
20.93968611111111
 20
-3.577659722222228
 30
0.0
 10
20.93493472222222
 20
-3.577708333333337
 30
0.0
 10
20.77665416666665
 20
-3.578801388888893
 30
0.0
 10
20.61827777777777
 20
-3.584083333333334
 30
0.0
 10
20.46515972222222
 20
-3.589156944444438
 30
0.0
 10
20.11204583333334
 20
-3.600912499999999
 30
0.0
 10
19.77847777777778
 20
-3.612054166666667
 30
0.0
 10
19.42779583333332
 20
-3.577449999999999
 30
0.0
 10
19.4255236111111
 20
-3.577241666666661
 30
0.0
 10
19.41945555555556
 20
-3.573004166666667
 30
0.0
 10
19.41078333333333
 20
-3.566934722222224
 30
0.0
 10
19.31487083333334
 20
-3.500245833333338
 30
0.0
 10
19.21463333333334
 20
-3.442008333333332
 30
0.0
 10
19.13800694444444
 20
-3.398731944444446
 30
0.0
 10
18.72826527777778
 20
-3.167487500000005
 30
0.0
 10
18.22881388888888
 20
-3.289122222222217
 30
0.0
 10
17.78810416666667
 20
-3.396386111111117
 30
0.0
 10
17.73099722222222
 20
-3.410291666666669
 30
0.0
 10
17.67509305555556
 20
-3.423926388888895
 30
0.0
 10
17.62083472222222
 20
-3.436369444444444
 30
0.0
 10
17.62083472222222
 20
-3.436369444444444
 30
0.0
 10
17.47181805555556
 20
-3.470715277777774
 30
0.0
 10
17.47181805555556
 20
-3.470715277777774
 30
0.0
 10
16.94341388888889
 20
-3.592818055555552
 30
0.0
 10
16.39702638888889
 20
-3.719095833333338
 30
0.0
 10
15.84842777777778
 20
-3.736195833333328
 30
0.0
 10
15.74312916666666
 20
-3.739438888888887
 30
0.0
 10
15.63785694444444
 20
-3.741108333333336
 30
0.0
 10
15.53270694444445
 20
-3.742730555555555
 30
0.0
 10
15.10586527777778
 20
-3.74936388888889
 30
0.0
 10
14.66450555555555
 20
-3.756266666666672
 30
0.0
 10
14.23734444444444
 20
-3.877902777777775
 30
0.0
 10
13.95615416666667
 20
-3.95807916666667
 30
0.0
 10
13.72145937558899
 20
-4.023577777777783
 30
0.0
 10
13.47498021514891
 20
-4.076213888888889
 30
0.0
 10
13.19619966663595
 20
-4.135741666666667
 30
0.0
 10
12.88863300773907
 20
-4.166684722222221
 30
0.0
 10
12.5071441284874
 20
-4.173587500000003
 30
0.0
 10
12.46848718501951
 20
-4.174325000000004
 30
0.0
 10
12.4177302418573
 20
-4.176670833333333
 30
0.0
 10
12.36786913200578
 20
-4.189004166666665
 30
0.0
 10
12.30389691139963
 20
-4.204801388888894
 30
0.0
 10
12.26350524575335
 20
-4.268038888888896
 30
0.0
 10
12.27785524539084
 20
-4.330036111111111
 30
0.0
 10
12.29265524501696
 20
-4.393702777777776
 30
0.0
 10
12.35260107683593
 20
-4.428983333333337
 30
0.0
 10
12.42055555555555
 20
-4.414033333333338
 30
0.0
 10
12.45246912986861
 20
-4.406920833333339
 30
0.0
 10
12.48623718457111
 20
-4.406195833333337
 30
0.0
 10
12.52708162798374
 20
-4.405361111111107
 30
0.0
 10
13.03015661527499
 20
-4.394587499999994
 30
0.0
 10
13.53974132462402
 20
-4.318587499999997
 30
0.0
 10
14.00076944444445
 20
-4.185613888888889
 30
0.0
 10
14.48622916666666
 20
-4.045527777777781
 30
0.0
 10
14.9006263888889
 20
-3.98003055555556
 30
0.0
 10
15.30491388888889
 20
-3.979452777777775
 30
0.0
 10
15.84022222222222
 20
-3.978679166666666
 30
0.0
 10
16.35238611111111
 20
-3.906536111111109
 30
0.0
 10
16.92012361111112
 20
-3.819197222222227
 30
0.0
 10
17.27833472222222
 20
-3.752863888888883
 30
0.0
 10
17.63750416666667
 20
-3.670537499999998
 30
0.0
 10
17.94159305555556
 20
-3.598824999999995
 30
0.0
 10
18.20605138888888
 20
-3.536470833333333
 30
0.0
 10
18.45010833333334
 20
-3.507137499999999
 30
0.0
 10
18.68629166666667
 20
-3.511116666666668
 30
0.0
 10
18.79741250000001
 20
-3.512677777777778
 30
0.0
 10
18.90232777777777
 20
-3.537822222222227
 30
0.0
 10
19.00424722222222
 20
-3.587633333333327
 30
0.0
 10
18.74604027777779
 20
-3.609069444444445
 30
0.0
 10
18.51063055555556
 20
-3.653340277777779
 30
0.0
 10
18.28744444444444
 20
-3.722387500000006
 30
0.0
 10
18.18864583333334
 20
-3.752913888888884
 30
0.0
 10
18.17109166666667
 20
-3.821752777777773
 30
0.0
 10
18.18760138888889
 20
-3.876072222222218
 30
0.0
 10
18.19518055555555
 20
-3.900947222222221
 30
0.0
 10
18.22941527777778
 20
-3.979305555555559
 30
0.0
 10
18.35157916666667
 20
-3.944173611111106
 30
0.0
 10
18.47683888888888
 20
-3.90805972222222
 30
0.0
 10
18.62524027777777
 20
-3.86817361111111
 30
0.0
 10
18.77640694444444
 20
-3.846013888888895
 30
0.0
 10
19.05157777777777
 20
-3.805758333333339
 30
0.0
 10
19.34322222222221
 20
-3.823436111111113
 30
0.0
 10
19.62524722222222
 20
-3.840633333333332
 30
0.0
 10
19.73353055555556
 20
-3.847216666666668
 30
0.0
 10
19.84546111111111
 20
-3.85400972222222
 30
0.0
 10
19.95502083333334
 20
-3.857462499999997
 30
0.0
 10
20.14711666666666
 20
-3.863468055555561
 30
0.0
 10
20.34007222222221
 20
-3.849404166666671
 30
0.0
 10
20.52657916666668
 20
-3.835768055555554
 30
0.0
 10
20.7414625
 20
-3.820033333333337
 30
0.0
 10
20.96373888888888
 20
-3.803670833333336
 30
0.0
 10
21.18228194444444
 20
-3.819148611111106
 30
0.0
 10
21.40652361111112
 20
-3.834822222222227
 30
0.0
 10
21.62391250000001
 20
-3.890124999999999
 30
0.0
 10
21.82836527777777
 20
-3.983384722222227
 30
0.0
 10
21.96768888888889
 20
-4.046891666666662
 30
0.0
 10
22.1049861111111
 20
-4.121848611111115
 30
0.0
 10
22.237775
 20
-4.194336111111107
 30
0.0
 10
22.31662777777779
 20
-4.237366666666667
 30
0.0
 10
22.39550138888888
 20
-4.280433333333336
 30
0.0
 10
22.47539583333335
 20
-4.321572222222218
 30
0.0
 10
22.7246986111111
 20
-4.449938888888886
 30
0.0
 10
22.98495555555554
 20
-4.563000000000001
 30
0.0
 10
23.23660416666667
 20
-4.672351388888893
 30
0.0
 10
23.35061111111112
 20
-4.721904166666667
 30
0.0
 10
23.46464305555554
 20
-4.771458333333334
 30
0.0
 10
23.57796111111111
 20
-4.82247222222222
 30
0.0
 10
23.61425972222221
 20
-4.838786111111113
 30
0.0
 10
23.65092777777777
 20
-4.854411111111113
 30
0.0
 10
23.68759583333334
 20
-4.869987500000004
 30
0.0
 10
23.7931013888889
 20
-4.914786111111109
 30
0.0
 10
23.89278611111111
 20
-4.957177777777777
 30
0.0
 10
23.98830555555555
 20
-5.019481944444439
 30
0.0
 10
24.01050277777777
 20
-5.033965277777775
 30
0.0
 10
24.04091944444445
 20
-5.053766666666661
 30
0.0
 10
24.03959027777778
 20
-5.068716666666672
 30
0.0
 10
24.03606527777778
 20
-5.075459722222225
 30
0.0
 10
24.0091875
 20
-5.085863888888891
 30
0.0
 10
23.99627777777778
 20
-5.090826388888886
 30
0.0
 10
23.98959444444444
 20
-5.093443055555554
 30
0.0
 10
23.9830111111111
 20
-5.096011111111111
 30
0.0
 10
23.97675833333334
 20
-5.098615277777778
 30
0.0
 10
23.8621
 20
-5.147234722222227
 30
0.0
 10
23.73540416666666
 20
-5.149580555555556
 30
0.0
 10
23.6154888888889
 20
-5.145036111111115
 30
0.0
 10
23.13264722222223
 20
-5.126475000000002
 30
0.0
 10
22.70420694444445
 20
-4.992666666666663
 30
0.0
 10
22.25061249999999
 20
-4.851069444444445
 30
0.0
 10
22.08739583333332
 20
-4.800054166666667
 30
0.0
 10
21.91859027777779
 20
-4.747356944444442
 30
0.0
 10
21.74726944444445
 20
-4.70053055555555
 30
0.0
 10
21.56610416666667
 20
-4.651026388888883
 30
0.0
 10
21.3261263888889
 20
-4.602308333333339
 30
0.0
 10
21.07587777777778
 20
-4.665976388888894
 30
0.0
 10
20.86690416666668
 20
-4.719079166666662
 30
0.0
 10
20.65895
 20
-4.755673611111105
 30
0.0
 10
20.4577888888889
 20
-4.774750000000002
 30
0.0
 10
20.13342083333333
 20
-4.805434722222217
 30
0.0
 10
19.8113861111111
 20
-4.900512500000003
 30
0.0
 10
19.50057916666666
 20
-5.057329166666666
 30
0.0
 10
19.27955555555556
 20
-5.168818055555549
 30
0.0
 10
19.01859444444444
 20
-5.289248611111108
 30
0.0
 10
18.72972916666665
 20
-5.358297222222228
 30
0.0
 10
18.72972916666665
 20
-5.358297222222228
 30
0.0
 10
18.78667500000001
 20
-5.30174166666667
 30
0.0
 10
18.78667500000001
 20
-5.30174166666667
 30
0.0
 10
18.85036666666666
 20
-5.238762499999994
 30
0.0
 10
18.83905555555556
 20
-5.174566666666666
 30
0.0
 10
18.80721388888888
 20
-5.135527777777775
 30
0.0
 10
18.7724625
 20
-5.09286666666666
 30
0.0
 10
18.70669444444444
 20
-5.074047222222222
 30
0.0
 10
18.6381263888889
 20
-5.127948611111113
 30
0.0
 10
18.61700972222221
 20
-5.144508333333331
 30
0.0
 10
18.59789583333334
 20
-5.162651388888889
 30
0.0
 10
18.58203749999999
 20
-5.178177777777781
 30
0.0
 10
18.46030416666667
 20
-5.296877777777783
 30
0.0
 10
18.35028888888888
 20
-5.42745555555555
 30
0.0
 10
18.25508888888888
 20
-5.566287500000006
 30
0.0
 10
18.09706944444444
 20
-5.796697222222216
 30
0.0
 10
18.00269166666667
 20
-6.020202777777791
 30
0.0
 10
17.96827222222221
 20
-6.246533333333344
 30
0.0
 10
17.96736388888889
 20
-6.245280555555559
 30
0.0
 10
17.96644166666667
 20
-6.244015277777786
 30
0.0
 10
17.96553333333333
 20
-6.242823611111109
 30
0.0
 10
17.91848611111111
 20
-6.178995833333324
 30
0.0
 10
17.87405555555555
 20
-6.118681944444435
 30
0.0
 10
17.84060555555556
 20
-6.05140416666667
 30
0.0
 10
17.81465
 20
-5.999184722222227
 30
0.0
 10
17.78783472222223
 20
-5.945197222222228
 30
0.0
 10
17.78736805555556
 20
-5.887647222222224
 30
0.0
 10
17.78699861111111
 20
-5.841901388888888
 30
0.0
 10
17.77399027777778
 20
-5.806670833333328
 30
0.0
 10
17.7486361111111
 20
-5.783000000000002
 30
0.0
 10
17.72712777777777
 20
-5.762927777777779
 30
0.0
 10
17.69889861111111
 20
-5.753248611111113
 30
0.0
 10
17.66667916666666
 20
-5.755238888888887
 30
0.0
 10
17.6313625
 20
-5.757326388888891
 30
0.0
 10
17.6007625
 20
-5.774168055555555
 30
0.0
 10
17.58055555555556
 20
-5.802654166666671
 30
0.0
 10
17.56247361111111
 20
-5.828106944444445
 30
0.0
 10
17.55408333333333
 20
-5.861040277777773
 30
0.0
 10
17.55630694444445
 20
-5.897830555555553
 30
0.0
 10
17.55939027777778
 20
-5.949472222222223
 30
0.0
 10
17.56830833333333
 20
-5.994012500000003
 30
0.0
 10
17.58349166666667
 20
-6.0339486111111
 30
0.0
 10
17.65925833333333
 20
-6.233045833333335
 30
0.0
 10
17.77955555555555
 20
-6.412169444444443
 30
0.0
 10
17.95128333333333
 20
-6.581477777777788
 30
0.0
 10
18.30518333333334
 20
-6.930438888888879
 30
0.0
 10
18.76966249999999
 20
-7.110140277777772
 30
0.0
 10
19.21882222222222
 20
-7.283994444444438
 30
0.0
 10
19.29301805555555
 20
-7.31269027777777
 30
0.0
 10
19.36695416666667
 20
-7.341287500000008
 30
0.0
 10
19.44005555555555
 20
-7.370547222222235
 30
0.0
 10
19.80184166666666
 20
-7.51528888888889
 30
0.0
 10
20.20900277777779
 20
-7.71470555555556
 30
0.0
 10
20.48585833333333
 20
-8.096427777777787
 30
0.0
 10
20.53616111111112
 20
-8.165794444444447
 30
0.0
 10
20.58030833333333
 20
-8.270122222222223
 30
0.0
 10
20.56561666666665
 20
-8.346859722222234
 30
0.0
 10
20.55989305555555
 20
-8.376709722222232
 30
0.0
 10
20.54547222222221
 20
-8.398611111111121
 30
0.0
 10
20.52150555555555
 20
-8.413769444444444
 30
0.0
 10
20.49257777777777
 20
-8.43215833333334
 30
0.0
 10
20.45012361111111
 20
-8.43676527777777
 30
0.0
 10
20.39168888888889
 20
-8.42819027777778
 30
0.0
 10
20.23215833333335
 20
-8.404569444444455
 30
0.0
 10
20.09103055555556
 20
-8.32182499999999
 30
0.0
 10
19.94161944444444
 20
-8.234166666666674
 30
0.0
 10
19.89146388888889
 20
-8.20473472222223
 30
0.0
 10
19.84133333333335
 20
-8.175363888888898
 30
0.0
 10
19.79052777777777
 20
-8.14827777777777
 30
0.0
 10
19.438275
 20
-7.960690277777783
 30
0.0
 10
19.04647916666666
 20
-7.882233333333336
 30
0.0
 10
18.66757222222223
 20
-7.806380555555556
 30
0.0
 10
18.51630694444444
 20
-7.776112500000004
 30
0.0
 10
18.35990833333333
 20
-7.744751388888895
 30
0.0
 10
18.20947916666667
 20
-7.707063888888897
 30
0.0
 10
17.85720277777778
 20
-7.618730555555556
 30
0.0
 10
17.5267763888889
 20
-7.451780555555565
 30
0.0
 10
17.20722361111111
 20
-7.290259722222218
 30
0.0
 10
17.07040555555555
 20
-7.221162499999991
 30
0.0
 10
16.92893194444444
 20
-7.149658333333339
 30
0.0
 10
16.78712638888889
 20
-7.084945833333323
 30
0.0
 10
16.57161805555555
 20
-6.986675000000004
 30
0.0
 10
16.33872638888889
 20
-6.915637500000003
 30
0.0
 10
16.11351388888889
 20
-6.84695833333333
 30
0.0
 10
15.79850555555556
 20
-6.750886111111109
 30
0.0
 10
15.47278611111111
 20
-6.65157083333333
 30
0.0
 10
15.196275
 20
-6.476991666666663
 30
0.0
 10
14.85192083333334
 20
-6.259602777777773
 30
0.0
 10
14.5916861111111
 20
-5.90990555555556
 30
0.0
 10
14.4822861111111
 20
-5.517619444444449
 30
0.0
 10
14.46414444444445
 20
-5.452649999999999
 30
0.0
 10
14.40192499999999
 20
-5.379154166666669
 30
0.0
 10
14.33817083333333
 20
-5.373197222222226
 30
0.0
 10
14.30080277777778
 20
-5.369954166666667
 30
0.0
 10
14.26787083333334
 20
-5.389030555555551
 30
0.0
 10
14.25023055555555
 20
-5.424838888888884
 30
0.0
 10
14.23314305555555
 20
-5.459699999999998
 30
0.0
 10
14.24137361111111
 20
-5.495409722222221
 30
0.0
 10
14.24578333333333
 20
-5.514486111111106
 30
0.0
 10
14.29790416666666
 20
-5.742377777777784
 30
0.0
 10
14.39462777777778
 20
-5.961030555555554
 30
0.0
 10
14.52776111111111
 20
-6.153544444444454
 30
0.0
 10
13.83426076162828
 20
-6.089299999999993
 30
0.0
 10
13.13206355714505
 20
-6.277574999999993
 30
0.0
 10
12.50842329512175
 20
-6.444943055555566
 30
0.0
 10
12.46137607408804
 20
-6.457545833333344
 30
0.0
 10
12.40602329770859
 20
-6.491363888888877
 30
0.0
 10
12.38843302037518
 20
-6.538509722222216
 30
0.0
 10
12.37788163175284
 20
-6.566848611111102
 30
0.0
 10
12.38148024277305
 20
-6.596379166666666
 30
0.0
 10
12.39855555555555
 20
-6.621573611111115
 30
0.0
 10
12.42502777777777
 20
-6.660881944444453
 30
0.0
 10
12.47201218493046
 20
-6.673522222222219
 30
0.0
 10
12.53832190547756
 20
-6.659309722222233
 30
0.0
 10
12.53832190547756
 20
-6.659309722222233
 30
0.0
 10
13.38449827299024
 20
-6.477666666666664
 30
0.0
 10
13.38449827299024
 20
-6.477666666666664
 30
0.0
 10
13.91227638888889
 20
-6.364508333333333
 30
0.0
 10
14.38276111111111
 20
-6.286676388888887
 30
0.0
 10
14.79548888888889
 20
-6.481119444444452
 30
0.0
 10
14.89665972222222
 20
-6.528841666666671
 30
0.0
 10
14.98846805555556
 20
-6.590887500000008
 30
0.0
 10
15.08567083333334
 20
-6.656594444444433
 30
0.0
 10
15.1622236111111
 20
-6.708334722222212
 30
0.0
 10
15.24138194444444
 20
-6.761868055555547
 30
0.0
 10
15.32496111111112
 20
-6.807183333333342
 30
0.0
 10
15.53605972222222
 20
-6.921656944444445
 30
0.0
 10
15.77011805555556
 20
-6.981454166666658
 30
0.0
 10
15.99648472222222
 20
-7.0392625
 30
0.0
 10
16.13776250000001
 20
-7.075327777777779
 30
0.0
 10
16.28384305555556
 20
-7.112647222222222
 30
0.0
 10
16.42120138888889
 20
-7.162727777777768
 30
0.0
 10
16.63964583333334
 20
-7.242327777777771
 30
0.0
 10
16.84836111111111
 20
-7.358741666666674
 30
0.0
 10
17.05022222222222
 20
-7.471323611111099
 30
0.0
 10
17.22614027777778
 20
-7.569436111111119
 30
0.0
 10
17.40806527777777
 20
-7.670851388888877
 30
0.0
 10
17.59838055555555
 20
-7.749566666666674
 30
0.0
 10
17.907075
 20
-7.877208333333328
 30
0.0
 10
18.23940277777778
 20
-7.9458875
 30
0.0
 10
18.56076250000001
 20
-8.012270833333332
 30
0.0
 10
18.94201666666666
 20
-8.091047222222212
 30
0.0
 10
19.33624444444445
 20
-8.172488888888893
 30
0.0
 10
19.68224444444445
 20
-8.353026388888894
 30
0.0
 10
19.73532361111112
 20
-8.380726388888888
 30
0.0
 10
19.78890555555555
 20
-8.41157083333332
 30
0.0
 10
19.84070694444444
 20
-8.441420833333343
 30
0.0
 10
19.98042499999999
 20
-8.52196666666666
 30
0.0
 10
20.12489583333334
 20
-8.605177777777776
 30
0.0
 10
20.28727638888889
 20
-8.643859722222235
 30
0.0
 10
20.33743194444444
 20
-8.65582361111112
 30
0.0
 10
20.38609999999999
 20
-8.661683333333333
 30
0.0
 10
20.43217777777777
 20
-8.661683333333333
 30
0.0
 10
20.53611111111111
 20
-8.661683333333333
 30
0.0
 10
20.62692638888888
 20
-8.631784722222214
 30
0.0
 10
20.69203055555555
 20
-8.574074999999993
 30
0.0
 10
20.78888888888888
 20
-8.48830833333333
 30
0.0
 10
20.82864027777777
 20
-8.338813888888883
 30
0.0
 10
20.7932625
 20
-8.193286111111117
 30
0.0
 10
20.76024305555555
 20
-8.057487500000004
 30
0.0
 10
20.67426944444444
 20
-7.947251388888894
 30
0.0
 10
20.60304583333333
 20
-7.866386111111119
 30
0.0
 10
20.2318763888889
 20
-7.444827777777769
 30
0.0
 10
19.73133194444444
 20
-7.238777777777765
 30
0.0
 10
19.24728472222222
 20
-7.039470833333326
 30
0.0
 10
18.89241527777777
 20
-6.893379166666667
 30
0.0
 10
18.52548194444444
 20
-6.742311111111121
 30
0.0
 10
18.21159305555555
 20
-6.504643055555562
 30
0.0
 10
18.20715694444445
 20
-6.501301388888881
 30
0.0
 10
18.2005611111111
 20
-6.496854166666657
 30
0.0
 10
18.20004722222222
 20
-6.496805555555561
 30
0.0
 10
18.18914861111111
 20
-6.433187500000005
 30
0.0
 10
18.18010833333334
 20
-6.371141666666668
 30
0.0
 10
18.18891527777777
 20
-6.311502777777782
 30
0.0
 10
18.22213194444445
 20
-6.087162500000002
 30
0.0
 10
18.31736805555556
 20
-5.869393055555557
 30
0.0
 10
18.48010555555556
 20
-5.645727777777779
 30
0.0
 10
18.48423333333333
 20
-5.640040277777782
 30
0.0
 10
18.48520416666666
 20
-5.63925416666666
 30
0.0
 10
18.49299166666666
 20
-5.637940277777779
 30
0.0
 10
18.49299166666666
 20
-5.637940277777779
 30
0.0
 10
18.50587777777777
 20
-5.635752777777776
 30
0.0
 10
18.50587777777777
 20
-5.635752777777776
 30
0.0
 10
18.57568888888889
 20
-5.623936111111107
 30
0.0
 10
18.64789166666666
 20
-5.611762500000004
 30
0.0
 10
18.71827777777778
 20
-5.592316666666672
 30
0.0
 10
18.74954027777777
 20
-5.583694444444442
 30
0.0
 10
18.77464861111111
 20
-5.5862
 30
0.0
 10
18.80238611111112
 20
-5.600572222222227
 30
0.0
 10
18.83567500000001
 20
-5.617868055555555
 30
0.0
 10
18.86909999999999
 20
-5.634918055555557
 30
0.0
 10
18.9025361111111
 20
-5.65195555555556
 30
0.0
 10
18.98020833333334
 20
-5.691522222222223
 30
0.0
 10
19.06049583333333
 20
-5.732451388888888
 30
0.0
 10
19.13707361111111
 20
-5.775727777777774
 30
0.0
 10
19.22858888888888
 20
-5.827529166666661
 30
0.0
 10
19.30180000000001
 20
-5.891147222222217
 30
0.0
 10
19.36088611111111
 20
-5.970169444444448
 30
0.0
 10
19.45495555555554
 20
-6.095994444444437
 30
0.0
 10
19.56772222222222
 20
-6.20534583333334
 30
0.0
 10
19.67679166666666
 20
-6.311084722222226
 30
0.0
 10
19.73425555555557
 20
-6.366805555555553
 30
0.0
 10
19.79368472222222
 20
-6.424404166666666
 30
0.0
 10
19.84893749999999
 20
-6.483158333333322
 30
0.0
 10
19.95316666666668
 20
-6.593861111111108
 30
0.0
 10
20.04082499999999
 20
-6.723861111111116
 30
0.0
 10
20.12560833333333
 20
-6.849575000000009
 30
0.0
 10
20.12560833333333
 20
-6.849575000000009
 30
0.0
 10
20.16828194444444
 20
-6.913388888888877
 30
0.0
 10
20.16828194444444
 20
-6.913388888888877
 30
0.0
 10
20.24307916666667
 20
-7.026609722222221
 30
0.0
 10
20.32044305555556
 20
-7.143700000000004
 30
0.0
 10
20.4636361111111
 20
-7.200095833333332
 30
0.0
 10
20.58728611111112
 20
-7.24881388888889
 30
0.0
 10
20.70873749999999
 20
-7.217452777777781
 30
0.0
 10
20.78844722222223
 20
-7.116147222222227
 30
0.0
 10
20.80418333333333
 20
-7.096186111111112
 30
0.0
 10
20.81646666666666
 20
-7.074283333333343
 30
0.0
 10
20.82539722222221
 20
-7.05013333333333
 30
0.0
 10
20.85077638888889
 20
-7.092991666666673
 30
0.0
 10
20.87631388888889
 20
-7.135702777777775
 30
0.0
 10
20.90308055555556
 20
-7.177677777777767
 30
0.0
 10
21.06490833333333
 20
-7.431290277777785
 30
0.0
 10
21.28049166666667
 20
-7.636038888888883
 30
0.0
 10
21.54383333333332
 20
-7.786209722222211
 30
0.0
 10
21.63235138888889
 20
-7.836758333333338
 30
0.0
 10
21.72434583333335
 20
-7.857247222222213
 30
0.0
 10
21.81760416666667
 20
-7.847358333333331
 30
0.0
 10
21.91082777777779
 20
-7.83732361111111
 30
0.0
 10
21.96905277777778
 20
-7.786308333333332
 30
0.0
 10
21.99072222222222
 20
-7.695615277777783
 30
0.0
 10
22.00685000000001
 20
-7.62809166666668
 30
0.0
 10
22.001225
 20
-7.558466666666668
 30
0.0
 10
21.97302083333334
 20
-7.476508333333337
 30
0.0
 10
21.90405833333332
 20
-7.276206944444437
 30
0.0
 10
21.80808472222222
 20
-7.086456944444434
 30
0.0
 10
21.71527916666665
 20
-6.902936111111103
 30
0.0
 10
21.68904305555555
 20
-6.85103611111112
 30
0.0
 10
21.66277777777777
 20
-6.799137499999991
 30
0.0
 10
21.63708194444444
 20
-6.74696666666667
 30
0.0
 10
21.58205000000001
 20
-6.63510972222222
 30
0.0
 10
21.52266805555556
 20
-6.52346111111112
 30
0.0
 10
21.46524166666667
 20
-6.415522222222231
 30
0.0
 10
21.56910138888889
 20
-6.486868055555558
 30
0.0
 10
21.66331944444444
 20
-6.578604166666663
 30
0.0
 10
21.7604125
 20
-6.702794444444432
 30
0.0
 10
21.96673194444444
 20
-6.966554166666659
 30
0.0
 10
22.21890694444444
 20
-7.183377777777777
 30
0.0
 10
22.50997638888889
 20
-7.34729305555556
 30
0.0
 10
22.58310000000001
 20
-7.388481944444442
 30
0.0
 10
22.68209583333333
 20
-7.436670833333336
 30
0.0
 10
22.79941944444444
 20
-7.443881944444456
 30
0.0
 10
22.94083194444445
 20
-7.452198611111119
 30
0.0
 10
23.03437638888888
 20
-7.413933333333337
 30
0.0
 10
23.07723333333332
 20
-7.328941666666676
 30
0.0
 10
23.17726111111111
 20
-7.13058055555555
 30
0.0
 10
22.93109166666666
 20
-6.765994444444433
 30
0.0
 10
22.83700833333334
 20
-6.653929166666658
 30
0.0
 10
22.8006236111111
 20
-6.610591666666677
 30
0.0
 10
22.76388472222223
 20
-6.5674138888889
 30
0.0
 10
22.72705555555556
 20
-6.524186111111121
 30
0.0
 10
22.58720277777777
 20
-6.360061111111109
 30
0.0
 10
22.44259722222222
 20
-6.190334722222233
 30
0.0
 10
22.32133055555556
 20
-6.010424999999992
 30
0.0
 10
22.0934513888889
 20
-5.672395833333338
 30
0.0
 10
21.8391625
 20
-5.413648611111108
 30
0.0
 10
21.53039444444443
 20
-5.110591666666664
 30
0.0
 10
21.46080833333334
 20
-5.042268055555559
 30
0.0
 10
21.38219166666666
 20
-4.961097222222216
 30
0.0
 10
21.31355972222223
 20
-4.866645833333337
 30
0.0
 10
21.35236388888888
 20
-4.865699999999998
 30
0.0
 10
21.39234861111112
 20
-4.866534722222227
 30
0.0
 10
21.43179166666667
 20
-4.871608333333332
 30
0.0
 10
21.72461527777778
 20
-4.909037500000005
 30
0.0
 10
22.00987222222223
 20
-5.006043055555551
 30
0.0
 10
22.28573194444445
 20
-5.099929166666672
 30
0.0
 10
22.56901111111112
 20
-5.196259722222218
 30
0.0
 10
22.86193333333333
 20
-5.295881944444444
 30
0.0
 10
23.16920277777778
 20
-5.334563888888889
 30
0.0
 10
23.16920277777778
 20
-5.334563888888889
 30
0.0
 10
23.236875
 20
-5.343347222222215
 30
0.0
 10
23.236875
 20
-5.343347222222215
 30
0.0
 10
23.53700694444445
 20
-5.382766666666662
 30
0.0
 10
23.94801388888888
 20
-5.436704166666661
 30
0.0
 10
24.19600138888889
 20
-5.231120833333332
 30
0.0
 10
24.27647361111111
 20
-5.164481944444447
 30
0.0
 10
24.29686388888889
 20
-5.068506944444443
 30
0.0
 10
24.25057916666666
 20
-4.974424999999997
 30
0.0
 10
24.23131944444445
 20
-4.935276388888888
 30
0.0
 10
24.20332222222222
 20
-4.89988611111111
 30
0.0
 10
24.16503333333334
 20
-4.866227777777781
 30
0.0
  0
SPLINE
  5
42
330
1F
100
AcDbEntity
  8
Layer 1
370
     0
100
AcDbSpline
210
0.0
220
0.0
230
1.0
 70
    11
 71
     3
 72
    59
 73
    55
 74
     0
 42
0.0000000001
 43
0.0000000001
 12
1.0
 22
0.0
 32
0.0
 13
1.0
 23
0.0
 33
0.0
 40
0.0
 40
0.0
 40
0.0
 40
0.0
 40
1.0
 40
1.0
 40
1.0
 40
2.0
 40
2.0
 40
2.0
 40
3.0
 40
3.0
 40
3.0
 40
4.0
 40
4.0
 40
4.0
 40
5.0
 40
5.0
 40
5.0
 40
6.0
 40
6.0
 40
6.0
 40
7.0
 40
7.0
 40
7.0
 40
8.0
 40
8.0
 40
8.0
 40
9.0
 40
9.0
 40
9.0
 40
10.0
 40
10.0
 40
10.0
 40
11.0
 40
11.0
 40
11.0
 40
12.0
 40
12.0
 40
12.0
 40
13.0
 40
13.0
 40
13.0
 40
14.0
 40
14.0
 40
14.0
 40
15.0
 40
15.0
 40
15.0
 40
16.0
 40
16.0
 40
16.0
 40
17.0
 40
17.0
 40
17.0
 40
18.0
 40
18.0
 40
18.0
 40
18.0
 10
22.83115
 20
-7.03680555555555
 30
0.0
 10
22.85135694444443
 20
-7.068277777777767
 30
0.0
 10
22.8659375
 20
-7.103090277777786
 30
0.0
 10
22.87570277777778
 20
-7.14328194444445
 30
0.0
 10
22.88190694444443
 20
-7.168636111111103
 30
0.0
 10
22.88119583333335
 20
-7.188500000000001
 30
0.0
 10
22.87375
 20
-7.197749999999991
 30
0.0
 10
22.8646236111111
 20
-7.209087499999996
 30
0.0
 10
22.83859305555555
 20
-7.215880555555562
 30
0.0
 10
22.8084611111111
 20
-7.214886111111102
 30
0.0
 10
22.76089722222223
 20
-7.209615277777781
 30
0.0
 10
22.70520277777779
 20
-7.190894444444439
 30
0.0
 10
22.65165694444444
 20
-7.162248611111105
 30
0.0
 10
22.37237083333333
 20
-7.012655555555561
 30
0.0
 10
22.12724444444444
 20
-6.802576388888887
 30
0.0
 10
21.92305138888888
 20
-6.537833333333335
 30
0.0
 10
21.81765555555555
 20
-6.401199999999991
 30
0.0
 10
21.69076249999999
 20
-6.284011111111113
 30
0.0
 10
21.53513611111111
 20
-6.179622222222229
 30
0.0
 10
21.44396527777778
 20
-6.118412500000002
 30
0.0
 10
21.34879027777778
 20
-6.047066666666675
 30
0.0
 10
21.24412083333333
 20
-5.9614
 30
0.0
 10
21.16149722222222
 20
-5.893751388888884
 30
0.0
 10
21.0832236111111
 20
-5.810172222222225
 30
0.0
 10
21.00476666666666
 20
-5.70584444444445
 30
0.0
 10
20.84780277777776
 20
-5.497227777777779
 30
0.0
 10
20.64277222222222
 20
-5.343555555555554
 30
0.0
 10
20.37799305555556
 20
-5.235986111111111
 30
0.0
 10
20.27988194444444
 20
-5.19616111111111
 30
0.0
 10
20.18038194444443
 20
-5.146816666666672
 30
0.0
 10
20.06136250000001
 20
-5.078751388888892
 30
0.0
 10
20.1538611111111
 20
-5.053249999999998
 30
0.0
 10
20.24896250000001
 20
-5.038877777777783
 30
0.0
 10
20.34859722222222
 20
-5.023818055555554
 30
0.0
 10
20.34859722222222
 20
-5.023818055555554
 30
0.0
 10
20.36737916666667
 20
-5.020944444444441
 30
0.0
 10
20.36737916666667
 20
-5.020944444444441
 30
0.0
 10
20.42990416666667
 20
-5.011484722222222
 30
0.0
 10
20.49265138888889
 20
-5.003279166666667
 30
0.0
 10
20.55539722222223
 20
-4.995073611111112
 30
0.0
 10
20.72146249999999
 20
-4.973269444444441
 30
0.0
 10
20.89309444444444
 20
-4.950802777777779
 30
0.0
 10
21.06218194444444
 20
-4.904123611111117
 30
0.0
 10
21.19837361111111
 20
-5.122397222222225
 30
0.0
 10
21.37771805555556
 20
-5.290919444444449
 30
0.0
 10
21.58075833333333
 20
-5.472880555555561
 30
0.0
 10
21.782375
 20
-5.65346666666667
 30
0.0
 10
21.94200416666667
 20
-5.840759722222225
 30
0.0
 10
22.06876111111112
 20
-6.045397222222214
 30
0.0
 10
22.23649861111112
 20
-6.316256944444452
 30
0.0
 10
22.44076666666665
 20
-6.555080555555555
 30
0.0
 10
22.61846527777778
 20
-6.7529736111111
 30
0.0
 10
22.69027777777779
 20
-6.83295416666667
 30
0.0
 10
22.75985416666668
 20
-6.925833333333331
 30
0.0
 10
22.83115
 20
-7.03680555555555
 30
0.0
  0
SPLINE
  5
43
330
1F
100
AcDbEntity
  8
Layer 1
370
     0
100
AcDbSpline
210
0.0
220
0.0
230
1.0
 70
    11
 71
     3
 72
    62
 73
    58
 74
     0
 42
0.0000000001
 43
0.0000000001
 12
1.0
 22
0.0
 32
0.0
 13
1.0
 23
0.0
 33
0.0
 40
0.0
 40
0.0
 40
0.0
 40
0.0
 40
1.0
 40
1.0
 40
1.0
 40
2.0
 40
2.0
 40
2.0
 40
3.0
 40
3.0
 40
3.0
 40
4.0
 40
4.0
 40
4.0
 40
5.0
 40
5.0
 40
5.0
 40
6.0
 40
6.0
 40
6.0
 40
7.0
 40
7.0
 40
7.0
 40
8.0
 40
8.0
 40
8.0
 40
9.0
 40
9.0
 40
9.0
 40
10.0
 40
10.0
 40
10.0
 40
11.0
 40
11.0
 40
11.0
 40
12.0
 40
12.0
 40
12.0
 40
13.0
 40
13.0
 40
13.0
 40
14.0
 40
14.0
 40
14.0
 40
15.0
 40
15.0
 40
15.0
 40
16.0
 40
16.0
 40
16.0
 40
17.0
 40
17.0
 40
17.0
 40
18.0
 40
18.0
 40
18.0
 40
19.0
 40
19.0
 40
19.0
 40
19.0
 10
20.2682
 20
-6.34265416666666
 30
0.0
 10
20.28711666666666
 20
-6.367898611111109
 30
0.0
 10
20.30604583333333
 20
-6.393202777777788
 30
0.0
 10
20.32452083333333
 20
-6.418815277777766
 30
0.0
 10
20.36435833333333
 20
-6.473956944444454
 30
0.0
 10
20.40902222222222
 20
-6.524763888888881
 30
0.0
 10
20.45224861111112
 20
-6.573849999999993
 30
0.0
 10
20.46671944444445
 20
-6.590311111111102
 30
0.0
 10
20.48120277777778
 20
-6.606722222222212
 30
0.0
 10
20.4954763888889
 20
-6.623341666666672
 30
0.0
 10
20.56603472222221
 20
-6.705361111111111
 30
0.0
 10
20.60805972222223
 20
-6.808129166666655
 30
0.0
 10
20.61368472222224
 20
-6.908636111111112
 30
0.0
 10
20.6127388888889
 20
-6.957722222222223
 30
0.0
 10
20.60047916666667
 20
-6.982290277777767
 30
0.0
 10
20.58932499999999
 20
-6.988923611111103
 30
0.0
 10
20.57810972222223
 20
-6.995568055555546
 30
0.0
 10
20.55579027777778
 20
-6.991490277777782
 30
0.0
 10
20.52952777777778
 20
-6.977954166666677
 30
0.0
 10
20.52952777777778
 20
-6.977954166666677
 30
0.0
 10
20.52950277777778
 20
-6.977954166666677
 30
0.0
 10
20.52950277777778
 20
-6.977954166666677
 30
0.0
 10
20.48572222222222
 20
-6.955363888888895
 30
0.0
 10
20.4473111111111
 20
-6.921606944444445
 30
0.0
 10
20.41199444444444
 20
-6.874658333333324
 30
0.0
 10
20.35091944444444
 20
-6.793486111111102
 30
0.0
 10
20.29677222222222
 20
-6.705251388888883
 30
0.0
 10
20.25079305555555
 20
-6.628993055555561
 30
0.0
 10
20.14575416666667
 20
-6.454622222222219
 30
0.0
 10
20.01273055555556
 20
-6.299009722222232
 30
0.0
 10
19.85544861111111
 20
-6.166393055555545
 30
0.0
 10
19.74178472222221
 20
-6.070590277777783
 30
0.0
 10
19.64158472222223
 20
-5.963647222222221
 30
0.0
 10
19.55766388888888
 20
-5.848595833333333
 30
0.0
 10
19.46263333333334
 20
-5.718227777777782
 30
0.0
 10
19.33794027777779
 20
-5.616468055555552
 30
0.0
 10
19.16521527777778
 20
-5.528330555555562
 30
0.0
 10
19.13981250000001
 20
-5.515370833333336
 30
0.0
 10
19.11420000000001
 20
-5.502780555555558
 30
0.0
 10
19.08858888888888
 20
-5.490226388888888
 30
0.0
 10
19.12910138888888
 20
-5.475337499999998
 30
0.0
 10
19.17038750000001
 20
-5.459859722222228
 30
0.0
 10
19.21082638888889
 20
-5.442613888888887
 30
0.0
 10
19.2230236111111
 20
-5.437380555555554
 30
0.0
 10
19.22702777777777
 20
-5.4377
 30
0.0
 10
19.22689305555557
 20
-5.43765
 30
0.0
 10
19.22691805555556
 20
-5.43765
 30
0.0
 10
19.22979166666667
 20
-5.438694444444447
 30
0.0
 10
19.23581111111111
 20
-5.444959722222216
 30
0.0
 10
19.41122500000001
 20
-5.626920833333328
 30
0.0
 10
19.61903194444443
 20
-5.761515277777776
 30
0.0
 10
19.81681527777778
 20
-5.883777777777772
 30
0.0
 10
19.96720833333332
 20
-5.976766666666663
 30
0.0
 10
20.09100416666666
 20
-6.092640277777769
 30
0.0
 10
20.18482916666666
 20
-6.228291666666665
 30
0.0
 10
20.21166944444445
 20
-6.267072222222218
 30
0.0
 10
20.23992222222222
 20
-6.304869444444446
 30
0.0
 10
20.2682
 20
-6.34265416666666
 30
0.0
  0
SPLINE
  5
44
330
1F
100
AcDbEntity
  8
Layer 1
370
     0
100
AcDbSpline
210
0.0
220
0.0
230
1.0
 70
    11
 71
     3
 72
    53
 73
    49
 74
     0
 42
0.0000000001
 43
0.0000000001
 12
1.0
 22
0.0
 32
0.0
 13
1.0
 23
0.0
 33
0.0
 40
0.0
 40
0.0
 40
0.0
 40
0.0
 40
1.0
 40
1.0
 40
1.0
 40
2.0
 40
2.0
 40
2.0
 40
3.0
 40
3.0
 40
3.0
 40
4.0
 40
4.0
 40
4.0
 40
5.0
 40
5.0
 40
5.0
 40
6.0
 40
6.0
 40
6.0
 40
7.0
 40
7.0
 40
7.0
 40
8.0
 40
8.0
 40
8.0
 40
9.0
 40
9.0
 40
9.0
 40
10.0
 40
10.0
 40
10.0
 40
11.0
 40
11.0
 40
11.0
 40
12.0
 40
12.0
 40
12.0
 40
13.0
 40
13.0
 40
13.0
 40
14.0
 40
14.0
 40
14.0
 40
15.0
 40
15.0
 40
15.0
 40
16.0
 40
16.0
 40
16.0
 40
16.0
 10
19.88989166666667
 20
-5.657176388888893
 30
0.0
 10
19.75132916666666
 20
-5.573080555555558
 30
0.0
 10
19.59173750000001
 20
-5.469368055555555
 30
0.0
 10
19.45183611111111
 20
-5.334624999999997
 30
0.0
 10
19.57676388888889
 20
-5.273095833333337
 30
0.0
 10
19.68185416666668
 20
-5.224697222222226
 30
0.0
 10
19.78132638888888
 20
-5.18282083333333
 30
0.0
 10
19.785775
 20
-5.180941666666664
 30
0.0
 10
19.78843888888888
 20
-5.180008333333338
 30
0.0
 10
19.78946111111112
 20
-5.179640277777783
 30
0.0
 10
19.9397888888889
 20
-5.283758333333329
 30
0.0
 10
20.10945555555557
 20
-5.374609722222228
 30
0.0
 10
20.29373750000001
 20
-5.449615277777777
 30
0.0
 10
20.50368194444445
 20
-5.534976388888885
 30
0.0
 10
20.67985694444446
 20
-5.669411111111117
 30
0.0
 10
20.84810972222224
 20
-5.872636111111117
 30
0.0
 10
20.97860138888889
 20
-6.030238888888889
 30
0.0
 10
21.09571666666668
 20
-6.209681944444456
 30
0.0
 10
21.20613611111111
 20
-6.421112500000011
 30
0.0
 10
21.20613611111111
 20
-6.421112500000011
 30
0.0
 10
21.28361111111111
 20
-6.569034722222214
 30
0.0
 10
21.28361111111111
 20
-6.569034722222214
 30
0.0
 10
21.41911527777777
 20
-6.827254166666661
 30
0.0
 10
21.55922499999999
 20
-7.094306944444447
 30
0.0
 10
21.68159722222223
 20
-7.363815277777777
 30
0.0
 10
21.70686527777778
 20
-7.419534722222225
 30
0.0
 10
21.72858333333334
 20
-7.476138888888878
 30
0.0
 10
21.75234027777777
 20
-7.538972222222228
 30
0.0
 10
21.76164027777779
 20
-7.563687499999989
 30
0.0
 10
21.76705694444445
 20
-7.588463888888882
 30
0.0
 10
21.76972222222222
 20
-7.620401388888896
 30
0.0
 10
21.71339999999999
 20
-7.613927777777765
 30
0.0
 10
21.6587986111111
 20
-7.593376388888878
 30
0.0
 10
21.60739027777779
 20
-7.559399999999995
 30
0.0
 10
21.35576666666667
 20
-7.392866666666678
 30
0.0
 10
21.17344861111112
 20
-7.202552777777782
 30
0.0
 10
21.04995972222223
 20
-6.977474999999989
 30
0.0
 10
20.94225416666667
 20
-6.781202777777783
 30
0.0
 10
20.80928055555556
 20
-6.605309722222223
 30
0.0
 10
20.65473888888889
 20
-6.454831944444448
 30
0.0
 10
20.55952499999999
 20
-6.362051388888883
 30
0.0
 10
20.48117777777778
 20
-6.248990277777769
 30
0.0
 10
20.40541111111111
 20
-6.13963888888889
 30
0.0
 10
20.40541111111111
 20
-6.13963888888889
 30
0.0
 10
20.39365555555554
 20
-6.122649999999996
 30
0.0
 10
20.39365555555554
 20
-6.122649999999996
 30
0.0
 10
20.264725
 20
-5.936831944444444
 30
0.0
 10
20.09997083333332
 20
-5.784559722222221
 30
0.0
 10
19.88989166666667
 20
-5.657176388888893
 30
0.0
  0
HATCH
  5
45
330
1F
100
AcDbEntity
  8
Layer 1
 62
     7
420
 16777215
100
AcDbHatch
 10
0.0
 20
0.0
 30
0.0
210
0.0
220
0.0
230
1.0
  2
SOLID
 70
     1
 71
     0
 91
        4
 92
        1
 93
        1
 72
     4
 94
        3
 73
     0
 74
     1
 95
      452
 96
      448
 40
0.0
 40
0.0
 40
0.0
 40
0.0
 40
1.0
 40
1.0
 40
1.0
 40
2.0
 40
2.0
 40
2.0
 40
3.0
 40
3.0
 40
3.0
 40
4.0
 40
4.0
 40
4.0
 40
5.0
 40
5.0
 40
5.0
 40
6.0
 40
6.0
 40
6.0
 40
7.0
 40
7.0
 40
7.0
 40
8.0
 40
8.0
 40
8.0
 40
9.0
 40
9.0
 40
9.0
 40
10.0
 40
10.0
 40
10.0
 40
11.0
 40
11.0
 40
11.0
 40
12.0
 40
12.0
 40
12.0
 40
13.0
 40
13.0
 40
13.0
 40
14.0
 40
14.0
 40
14.0
 40
15.0
 40
15.0
 40
15.0
 40
16.0
 40
16.0
 40
16.0
 40
17.0
 40
17.0
 40
17.0
 40
18.0
 40
18.0
 40
18.0
 40
19.0
 40
19.0
 40
19.0
 40
20.0
 40
20.0
 40
20.0
 40
21.0
 40
21.0
 40
21.0
 40
22.0
 40
22.0
 40
22.0
 40
23.0
 40
23.0
 40
23.0
 40
24.0
 40
24.0
 40
24.0
 40
25.0
 40
25.0
 40
25.0
 40
26.0
 40
26.0
 40
26.0
 40
27.0
 40
27.0
 40
27.0
 40
28.0
 40
28.0
 40
28.0
 40
29.0
 40
29.0
 40
29.0
 40
30.0
 40
30.0
 40
30.0
 40
31.0
 40
31.0
 40
31.0
 40
32.0
 40
32.0
 40
32.0
 40
33.0
 40
33.0
 40
33.0
 40
34.0
 40
34.0
 40
34.0
 40
35.0
 40
35.0
 40
35.0
 40
36.0
 40
36.0
 40
36.0
 40
37.0
 40
37.0
 40
37.0
 40
38.0
 40
38.0
 40
38.0
 40
39.0
 40
39.0
 40
39.0
 40
40.0
 40
40.0
 40
40.0
 40
41.0
 40
41.0
 40
41.0
 40
42.0
 40
42.0
 40
42.0
 40
43.0
 40
43.0
 40
43.0
 40
44.0
 40
44.0
 40
44.0
 40
45.0
 40
45.0
 40
45.0
 40
46.0
 40
46.0
 40
46.0
 40
47.0
 40
47.0
 40
47.0
 40
48.0
 40
48.0
 40
48.0
 40
49.0
 40
49.0
 40
49.0
 40
50.0
 40
50.0
 40
50.0
 40
51.0
 40
51.0
 40
51.0
 40
52.0
 40
52.0
 40
52.0
 40
53.0
 40
53.0
 40
53.0
 40
54.0
 40
54.0
 40
54.0
 40
55.0
 40
55.0
 40
55.0
 40
56.0
 40
56.0
 40
56.0
 40
57.0
 40
57.0
 40
57.0
 40
58.0
 40
58.0
 40
58.0
 40
59.0
 40
59.0
 40
59.0
 40
60.0
 40
60.0
 40
60.0
 40
61.0
 40
61.0
 40
61.0
 40
62.0
 40
62.0
 40
62.0
 40
63.0
 40
63.0
 40
63.0
 40
64.0
 40
64.0
 40
64.0
 40
65.0
 40
65.0
 40
65.0
 40
66.0
 40
66.0
 40
66.0
 40
67.0
 40
67.0
 40
67.0
 40
68.0
 40
68.0
 40
68.0
 40
69.0
 40
69.0
 40
69.0
 40
70.0
 40
70.0
 40
70.0
 40
71.0
 40
71.0
 40
71.0
 40
72.0
 40
72.0
 40
72.0
 40
73.0
 40
73.0
 40
73.0
 40
74.0
 40
74.0
 40
74.0
 40
75.0
 40
75.0
 40
75.0
 40
76.0
 40
76.0
 40
76.0
 40
77.0
 40
77.0
 40
77.0
 40
78.0
 40
78.0
 40
78.0
 40
79.0
 40
79.0
 40
79.0
 40
80.0
 40
80.0
 40
80.0
 40
81.0
 40
81.0
 40
81.0
 40
82.0
 40
82.0
 40
82.0
 40
83.0
 40
83.0
 40
83.0
 40
84.0
 40
84.0
 40
84.0
 40
85.0
 40
85.0
 40
85.0
 40
86.0
 40
86.0
 40
86.0
 40
87.0
 40
87.0
 40
87.0
 40
88.0
 40
88.0
 40
88.0
 40
89.0
 40
89.0
 40
89.0
 40
90.0
 40
90.0
 40
90.0
 40
91.0
 40
91.0
 40
91.0
 40
92.0
 40
92.0
 40
92.0
 40
93.0
 40
93.0
 40
93.0
 40
94.0
 40
94.0
 40
94.0
 40
95.0
 40
95.0
 40
95.0
 40
96.0
 40
96.0
 40
96.0
 40
97.0
 40
97.0
 40
97.0
 40
98.0
 40
98.0
 40
98.0
 40
99.0
 40
99.0
 40
99.0
 40
100.0
 40
100.0
 40
100.0
 40
101.0
 40
101.0
 40
101.0
 40
102.0
 40
102.0
 40
102.0
 40
103.0
 40
103.0
 40
103.0
 40
104.0
 40
104.0
 40
104.0
 40
105.0
 40
105.0
 40
105.0
 40
106.0
 40
106.0
 40
106.0
 40
107.0
 40
107.0
 40
107.0
 40
108.0
 40
108.0
 40
108.0
 40
109.0
 40
109.0
 40
109.0
 40
110.0
 40
110.0
 40
110.0
 40
111.0
 40
111.0
 40
111.0
 40
112.0
 40
112.0
 40
112.0
 40
113.0
 40
113.0
 40
113.0
 40
114.0
 40
114.0
 40
114.0
 40
115.0
 40
115.0
 40
115.0
 40
116.0
 40
116.0
 40
116.0
 40
117.0
 40
117.0
 40
117.0
 40
118.0
 40
118.0
 40
118.0
 40
119.0
 40
119.0
 40
119.0
 40
120.0
 40
120.0
 40
120.0
 40
121.0
 40
121.0
 40
121.0
 40
122.0
 40
122.0
 40
122.0
 40
123.0
 40
123.0
 40
123.0
 40
124.0
 40
124.0
 40
124.0
 40
125.0
 40
125.0
 40
125.0
 40
126.0
 40
126.0
 40
126.0
 40
127.0
 40
127.0
 40
127.0
 40
128.0
 40
128.0
 40
128.0
 40
129.0
 40
129.0
 40
129.0
 40
130.0
 40
130.0
 40
130.0
 40
131.0
 40
131.0
 40
131.0
 40
132.0
 40
132.0
 40
132.0
 40
133.0
 40
133.0
 40
133.0
 40
134.0
 40
134.0
 40
134.0
 40
135.0
 40
135.0
 40
135.0
 40
136.0
 40
136.0
 40
136.0
 40
137.0
 40
137.0
 40
137.0
 40
138.0
 40
138.0
 40
138.0
 40
139.0
 40
139.0
 40
139.0
 40
140.0
 40
140.0
 40
140.0
 40
141.0
 40
141.0
 40
141.0
 40
142.0
 40
142.0
 40
142.0
 40
143.0
 40
143.0
 40
143.0
 40
144.0
 40
144.0
 40
144.0
 40
145.0
 40
145.0
 40
145.0
 40
146.0
 40
146.0
 40
146.0
 40
147.0
 40
147.0
 40
147.0
 40
148.0
 40
148.0
 40
148.0
 40
149.0
 40
149.0
 40
149.0
 40
149.0
 10
24.16503333333334
 20
-4.866227777777781
 10
24.09591249999999
 20
-4.805533333333338
 10
24.01551388888889
 20
-4.765390277777783
 10
23.94600000000001
 20
-4.734138888888891
 10
23.82976944444443
 20
-4.681870833333329
 10
23.71245833333334
 20
-4.629701388888886
 10
23.59460555555557
 20
-4.577384722222228
 10
23.21172916666668
 20
-4.407240277777772
 10
22.81580694444445
 20
-4.231297222222224
 10
22.43867916666666
 20
-4.040775000000003
 10
21.91961250000001
 20
-3.778524999999995
 10
21.47967499999999
 20
-3.577659722222228
 10
20.94925555555556
 20
-3.577659722222228
 10
20.94452638888889
 20
-3.577659722222228
 10
20.93968611111111
 20
-3.577659722222228
 10
20.93493472222222
 20
-3.577708333333337
 10
20.77665416666665
 20
-3.578801388888893
 10
20.61827777777777
 20
-3.584083333333334
 10
20.46515972222222
 20
-3.589156944444438
 10
20.11204583333334
 20
-3.600912499999999
 10
19.77847777777778
 20
-3.612054166666667
 10
19.42779583333332
 20
-3.577449999999999
 10
19.4255236111111
 20
-3.577241666666661
 10
19.41945555555556
 20
-3.573004166666667
 10
19.41078333333333
 20
-3.566934722222224
 10
19.31487083333334
 20
-3.500245833333338
 10
19.21463333333334
 20
-3.442008333333332
 10
19.13800694444444
 20
-3.398731944444446
 10
18.72826527777778
 20
-3.167487500000005
 10
18.22881388888888
 20
-3.289122222222217
 10
17.78810416666667
 20
-3.396386111111117
 10
17.73099722222222
 20
-3.410291666666669
 10
17.67509305555556
 20
-3.423926388888895
 10
17.62083472222222
 20
-3.436369444444444
 10
17.62083472222222
 20
-3.436369444444444
 10
17.47181805555556
 20
-3.470715277777774
 10
17.47181805555556
 20
-3.470715277777774
 10
16.94341388888889
 20
-3.592818055555552
 10
16.39702638888889
 20
-3.719095833333338
 10
15.84842777777778
 20
-3.736195833333328
 10
15.74312916666666
 20
-3.739438888888887
 10
15.63785694444444
 20
-3.741108333333336
 10
15.53270694444445
 20
-3.742730555555555
 10
15.10586527777778
 20
-3.74936388888889
 10
14.66450555555555
 20
-3.756266666666672
 10
14.23734444444444
 20
-3.877902777777775
 10
13.95615416666667
 20
-3.95807916666667
 10
13.72145937558899
 20
-4.023577777777783
 10
13.47498021514891
 20
-4.076213888888889
 10
13.19619966663595
 20
-4.135741666666667
 10
12.88863300773907
 20
-4.166684722222221
 10
12.5071441284874
 20
-4.173587500000003
 10
12.46848718501951
 20
-4.174325000000004
 10
12.4177302418573
 20
-4.176670833333333
 10
12.36786913200578
 20
-4.189004166666665
 10
12.30389691139963
 20
-4.204801388888894
 10
12.26350524575335
 20
-4.268038888888896
 10
12.27785524539084
 20
-4.330036111111111
 10
12.29265524501696
 20
-4.393702777777776
 10
12.35260107683593
 20
-4.428983333333337
 10
12.42055555555555
 20
-4.414033333333338
 10
12.45246912986861
 20
-4.406920833333339
 10
12.48623718457111
 20
-4.406195833333337
 10
12.52708162798374
 20
-4.405361111111107
 10
13.03015661527499
 20
-4.394587499999994
 10
13.53974132462402
 20
-4.318587499999997
 10
14.00076944444445
 20
-4.185613888888889
 10
14.48622916666666
 20
-4.045527777777781
 10
14.9006263888889
 20
-3.98003055555556
 10
15.30491388888889
 20
-3.979452777777775
 10
15.84022222222222
 20
-3.978679166666666
 10
16.35238611111111
 20
-3.906536111111109
 10
16.92012361111112
 20
-3.819197222222227
 10
17.27833472222222
 20
-3.752863888888883
 10
17.63750416666667
 20
-3.670537499999998
 10
17.94159305555556
 20
-3.598824999999995
 10
18.20605138888888
 20
-3.536470833333333
 10
18.45010833333334
 20
-3.507137499999999
 10
18.68629166666667
 20
-3.511116666666668
 10
18.79741250000001
 20
-3.512677777777778
 10
18.90232777777777
 20
-3.537822222222227
 10
19.00424722222222
 20
-3.587633333333327
 10
18.74604027777779
 20
-3.609069444444445
 10
18.51063055555556
 20
-3.653340277777779
 10
18.28744444444444
 20
-3.722387500000006
 10
18.18864583333334
 20
-3.752913888888884
 10
18.17109166666667
 20
-3.821752777777773
 10
18.18760138888889
 20
-3.876072222222218
 10
18.19518055555555
 20
-3.900947222222221
 10
18.22941527777778
 20
-3.979305555555559
 10
18.35157916666667
 20
-3.944173611111106
 10
18.47683888888888
 20
-3.90805972222222
 10
18.62524027777777
 20
-3.86817361111111
 10
18.77640694444444
 20
-3.846013888888895
 10
19.05157777777777
 20
-3.805758333333339
 10
19.34322222222221
 20
-3.823436111111113
 10
19.62524722222222
 20
-3.840633333333332
 10
19.73353055555556
 20
-3.847216666666668
 10
19.84546111111111
 20
-3.85400972222222
 10
19.95502083333334
 20
-3.857462499999997
 10
20.14711666666666
 20
-3.863468055555561
 10
20.34007222222221
 20
-3.849404166666671
 10
20.52657916666668
 20
-3.835768055555554
 10
20.7414625
 20
-3.820033333333337
 10
20.96373888888888
 20
-3.803670833333336
 10
21.18228194444444
 20
-3.819148611111106
 10
21.40652361111112
 20
-3.834822222222227
 10
21.62391250000001
 20
-3.890124999999999
 10
21.82836527777777
 20
-3.983384722222227
 10
21.96768888888889
 20
-4.046891666666662
 10
22.1049861111111
 20
-4.121848611111115
 10
22.237775
 20
-4.194336111111107
 10
22.31662777777779
 20
-4.237366666666667
 10
22.39550138888888
 20
-4.280433333333336
 10
22.47539583333335
 20
-4.321572222222218
 10
22.7246986111111
 20
-4.449938888888886
 10
22.98495555555554
 20
-4.563000000000001
 10
23.23660416666667
 20
-4.672351388888893
 10
23.35061111111112
 20
-4.721904166666667
 10
23.46464305555554
 20
-4.771458333333334
 10
23.57796111111111
 20
-4.82247222222222
 10
23.61425972222221
 20
-4.838786111111113
 10
23.65092777777777
 20
-4.854411111111113
 10
23.68759583333334
 20
-4.869987500000004
 10
23.7931013888889
 20
-4.914786111111109
 10
23.89278611111111
 20
-4.957177777777777
 10
23.98830555555555
 20
-5.019481944444439
 10
24.01050277777777
 20
-5.033965277777775
 10
24.04091944444445
 20
-5.053766666666661
 10
24.03959027777778
 20
-5.068716666666672
 10
24.03606527777778
 20
-5.075459722222225
 10
24.0091875
 20
-5.085863888888891
 10
23.99627777777778
 20
-5.090826388888886
 10
23.98959444444444
 20
-5.093443055555554
 10
23.9830111111111
 20
-5.096011111111111
 10
23.97675833333334
 20
-5.098615277777778
 10
23.8621
 20
-5.147234722222227
 10
23.73540416666666
 20
-5.149580555555556
 10
23.6154888888889
 20
-5.145036111111115
 10
23.13264722222223
 20
-5.126475000000002
 10
22.70420694444445
 20
-4.992666666666663
 10
22.25061249999999
 20
-4.851069444444445
 10
22.08739583333332
 20
-4.800054166666667
 10
21.91859027777779
 20
-4.747356944444442
 10
21.74726944444445
 20
-4.70053055555555
 10
21.56610416666667
 20
-4.651026388888883
 10
21.3261263888889
 20
-4.602308333333339
 10
21.07587777777778
 20
-4.665976388888894
 10
20.86690416666668
 20
-4.719079166666662
 10
20.65895
 20
-4.755673611111105
 10
20.4577888888889
 20
-4.774750000000002
 10
20.13342083333333
 20
-4.805434722222217
 10
19.8113861111111
 20
-4.900512500000003
 10
19.50057916666666
 20
-5.057329166666666
 10
19.27955555555556
 20
-5.168818055555549
 10
19.01859444444444
 20
-5.289248611111108
 10
18.72972916666665
 20
-5.358297222222228
 10
18.72972916666665
 20
-5.358297222222228
 10
18.78667500000001
 20
-5.30174166666667
 10
18.78667500000001
 20
-5.30174166666667
 10
18.85036666666666
 20
-5.238762499999994
 10
18.83905555555556
 20
-5.174566666666666
 10
18.80721388888888
 20
-5.135527777777775
 10
18.7724625
 20
-5.09286666666666
 10
18.70669444444444
 20
-5.074047222222222
 10
18.6381263888889
 20
-5.127948611111113
 10
18.61700972222221
 20
-5.144508333333331
 10
18.59789583333334
 20
-5.162651388888889
 10
18.58203749999999
 20
-5.178177777777781
 10
18.46030416666667
 20
-5.296877777777783
 10
18.35028888888888
 20
-5.42745555555555
 10
18.25508888888888
 20
-5.566287500000006
 10
18.09706944444444
 20
-5.796697222222216
 10
18.00269166666667
 20
-6.020202777777791
 10
17.96827222222221
 20
-6.246533333333344
 10
17.96736388888889
 20
-6.245280555555559
 10
17.96644166666667
 20
-6.244015277777786
 10
17.96553333333333
 20
-6.242823611111109
 10
17.91848611111111
 20
-6.178995833333324
 10
17.87405555555555
 20
-6.118681944444435
 10
17.84060555555556
 20
-6.05140416666667
 10
17.81465
 20
-5.999184722222227
 10
17.78783472222223
 20
-5.945197222222228
 10
17.78736805555556
 20
-5.887647222222224
 10
17.78699861111111
 20
-5.841901388888888
 10
17.77399027777778
 20
-5.806670833333328
 10
17.7486361111111
 20
-5.783000000000002
 10
17.72712777777777
 20
-5.762927777777779
 10
17.69889861111111
 20
-5.753248611111113
 10
17.66667916666666
 20
-5.755238888888887
 10
17.6313625
 20
-5.757326388888891
 10
17.6007625
 20
-5.774168055555555
 10
17.58055555555556
 20
-5.802654166666671
 10
17.56247361111111
 20
-5.828106944444445
 10
17.55408333333333
 20
-5.861040277777773
 10
17.55630694444445
 20
-5.897830555555553
 10
17.55939027777778
 20
-5.949472222222223
 10
17.56830833333333
 20
-5.994012500000003
 10
17.58349166666667
 20
-6.0339486111111
 10
17.65925833333333
 20
-6.233045833333335
 10
17.77955555555555
 20
-6.412169444444443
 10
17.95128333333333
 20
-6.581477777777788
 10
18.30518333333334
 20
-6.930438888888879
 10
18.76966249999999
 20
-7.110140277777772
 10
19.21882222222222
 20
-7.283994444444438
 10
19.29301805555555
 20
-7.31269027777777
 10
19.36695416666667
 20
-7.341287500000008
 10
19.44005555555555
 20
-7.370547222222235
 10
19.80184166666666
 20
-7.51528888888889
 10
20.20900277777779
 20
-7.71470555555556
 10
20.48585833333333
 20
-8.096427777777787
 10
20.53616111111112
 20
-8.165794444444447
 10
20.58030833333333
 20
-8.270122222222223
 10
20.56561666666665
 20
-8.346859722222234
 10
20.55989305555555
 20
-8.376709722222232
 10
20.54547222222221
 20
-8.398611111111121
 10
20.52150555555555
 20
-8.413769444444444
 10
20.49257777777777
 20
-8.43215833333334
 10
20.45012361111111
 20
-8.43676527777777
 10
20.39168888888889
 20
-8.42819027777778
 10
20.23215833333335
 20
-8.404569444444455
 10
20.09103055555556
 20
-8.32182499999999
 10
19.94161944444444
 20
-8.234166666666674
 10
19.89146388888889
 20
-8.20473472222223
 10
19.84133333333335
 20
-8.175363888888898
 10
19.79052777777777
 20
-8.14827777777777
 10
19.438275
 20
-7.960690277777783
 10
19.04647916666666
 20
-7.882233333333336
 10
18.66757222222223
 20
-7.806380555555556
 10
18.51630694444444
 20
-7.776112500000004
 10
18.35990833333333
 20
-7.744751388888895
 10
18.20947916666667
 20
-7.707063888888897
 10
17.85720277777778
 20
-7.618730555555556
 10
17.5267763888889
 20
-7.451780555555565
 10
17.20722361111111
 20
-7.290259722222218
 10
17.07040555555555
 20
-7.221162499999991
 10
16.92893194444444
 20
-7.149658333333339
 10
16.78712638888889
 20
-7.084945833333323
 10
16.57161805555555
 20
-6.986675000000004
 10
16.33872638888889
 20
-6.915637500000003
 10
16.11351388888889
 20
-6.84695833333333
 10
15.79850555555556
 20
-6.750886111111109
 10
15.47278611111111
 20
-6.65157083333333
 10
15.196275
 20
-6.476991666666663
 10
14.85192083333334
 20
-6.259602777777773
 10
14.5916861111111
 20
-5.90990555555556
 10
14.4822861111111
 20
-5.517619444444449
 10
14.46414444444445
 20
-5.452649999999999
 10
14.40192499999999
 20
-5.379154166666669
 10
14.33817083333333
 20
-5.373197222222226
 10
14.30080277777778
 20
-5.369954166666667
 10
14.26787083333334
 20
-5.389030555555551
 10
14.25023055555555
 20
-5.424838888888884
 10
14.23314305555555
 20
-5.459699999999998
 10
14.24137361111111
 20
-5.495409722222221
 10
14.24578333333333
 20
-5.514486111111106
 10
14.29790416666666
 20
-5.742377777777784
 10
14.39462777777778
 20
-5.961030555555554
 10
14.52776111111111
 20
-6.153544444444454
 10
13.83426076162828
 20
-6.089299999999993
 10
13.13206355714505
 20
-6.277574999999993
 10
12.50842329512175
 20
-6.444943055555566
 10
12.46137607408804
 20
-6.457545833333344
 10
12.40602329770859
 20
-6.491363888888877
 10
12.38843302037518
 20
-6.538509722222216
 10
12.37788163175284
 20
-6.566848611111102
 10
12.38148024277305
 20
-6.596379166666666
 10
12.39855555555555
 20
-6.621573611111115
 10
12.42502777777777
 20
-6.660881944444453
 10
12.47201218493046
 20
-6.673522222222219
 10
12.53832190547756
 20
-6.659309722222233
 10
12.53832190547756
 20
-6.659309722222233
 10
13.38449827299024
 20
-6.477666666666664
 10
13.38449827299024
 20
-6.477666666666664
 10
13.91227638888889
 20
-6.364508333333333
 10
14.38276111111111
 20
-6.286676388888887
 10
14.79548888888889
 20
-6.481119444444452
 10
14.89665972222222
 20
-6.528841666666671
 10
14.98846805555556
 20
-6.590887500000008
 10
15.08567083333334
 20
-6.656594444444433
 10
15.1622236111111
 20
-6.708334722222212
 10
15.24138194444444
 20
-6.761868055555547
 10
15.32496111111112
 20
-6.807183333333342
 10
15.53605972222222
 20
-6.921656944444445
 10
15.77011805555556
 20
-6.981454166666658
 10
15.99648472222222
 20
-7.0392625
 10
16.13776250000001
 20
-7.075327777777779
 10
16.28384305555556
 20
-7.112647222222222
 10
16.42120138888889
 20
-7.162727777777768
 10
16.63964583333334
 20
-7.242327777777771
 10
16.84836111111111
 20
-7.358741666666674
 10
17.05022222222222
 20
-7.471323611111099
 10
17.22614027777778
 20
-7.569436111111119
 10
17.40806527777777
 20
-7.670851388888877
 10
17.59838055555555
 20
-7.749566666666674
 10
17.907075
 20
-7.877208333333328
 10
18.23940277777778
 20
-7.9458875
 10
18.56076250000001
 20
-8.012270833333332
 10
18.94201666666666
 20
-8.091047222222212
 10
19.33624444444445
 20
-8.172488888888893
 10
19.68224444444445
 20
-8.353026388888894
 10
19.73532361111112
 20
-8.380726388888888
 10
19.78890555555555
 20
-8.41157083333332
 10
19.84070694444444
 20
-8.441420833333343
 10
19.98042499999999
 20
-8.52196666666666
 10
20.12489583333334
 20
-8.605177777777776
 10
20.28727638888889
 20
-8.643859722222235
 10
20.33743194444444
 20
-8.65582361111112
 10
20.38609999999999
 20
-8.661683333333333
 10
20.43217777777777
 20
-8.661683333333333
 10
20.53611111111111
 20
-8.661683333333333
 10
20.62692638888888
 20
-8.631784722222214
 10
20.69203055555555
 20
-8.574074999999993
 10
20.78888888888888
 20
-8.48830833333333
 10
20.82864027777777
 20
-8.338813888888883
 10
20.7932625
 20
-8.193286111111117
 10
20.76024305555555
 20
-8.057487500000004
 10
20.67426944444444
 20
-7.947251388888894
 10
20.60304583333333
 20
-7.866386111111119
 10
20.2318763888889
 20
-7.444827777777769
 10
19.73133194444444
 20
-7.238777777777765
 10
19.24728472222222
 20
-7.039470833333326
 10
18.89241527777777
 20
-6.893379166666667
 10
18.52548194444444
 20
-6.742311111111121
 10
18.21159305555555
 20
-6.504643055555562
 10
18.20715694444445
 20
-6.501301388888881
 10
18.2005611111111
 20
-6.496854166666657
 10
18.20004722222222
 20
-6.496805555555561
 10
18.18914861111111
 20
-6.433187500000005
 10
18.18010833333334
 20
-6.371141666666668
 10
18.18891527777777
 20
-6.311502777777782
 10
18.22213194444445
 20
-6.087162500000002
 10
18.31736805555556
 20
-5.869393055555557
 10
18.48010555555556
 20
-5.645727777777779
 10
18.48423333333333
 20
-5.640040277777782
 10
18.48520416666666
 20
-5.63925416666666
 10
18.49299166666666
 20
-5.637940277777779
 10
18.49299166666666
 20
-5.637940277777779
 10
18.50587777777777
 20
-5.635752777777776
 10
18.50587777777777
 20
-5.635752777777776
 10
18.57568888888889
 20
-5.623936111111107
 10
18.64789166666666
 20
-5.611762500000004
 10
18.71827777777778
 20
-5.592316666666672
 10
18.74954027777777
 20
-5.583694444444442
 10
18.77464861111111
 20
-5.5862
 10
18.80238611111112
 20
-5.600572222222227
 10
18.83567500000001
 20
-5.617868055555555
 10
18.86909999999999
 20
-5.634918055555557
 10
18.9025361111111
 20
-5.65195555555556
 10
18.98020833333334
 20
-5.691522222222223
 10
19.06049583333333
 20
-5.732451388888888
 10
19.13707361111111
 20
-5.775727777777774
 10
19.22858888888888
 20
-5.827529166666661
 10
19.30180000000001
 20
-5.891147222222217
 10
19.36088611111111
 20
-5.970169444444448
 10
19.45495555555554
 20
-6.095994444444437
 10
19.56772222222222
 20
-6.20534583333334
 10
19.67679166666666
 20
-6.311084722222226
 10
19.73425555555557
 20
-6.366805555555553
 10
19.79368472222222
 20
-6.424404166666666
 10
19.84893749999999
 20
-6.483158333333322
 10
19.95316666666668
 20
-6.593861111111108
 10
20.04082499999999
 20
-6.723861111111116
 10
20.12560833333333
 20
-6.849575000000009
 10
20.12560833333333
 20
-6.849575000000009
 10
20.16828194444444
 20
-6.913388888888877
 10
20.16828194444444
 20
-6.913388888888877
 10
20.24307916666667
 20
-7.026609722222221
 10
20.32044305555556
 20
-7.143700000000004
 10
20.4636361111111
 20
-7.200095833333332
 10
20.58728611111112
 20
-7.24881388888889
 10
20.70873749999999
 20
-7.217452777777781
 10
20.78844722222223
 20
-7.116147222222227
 10
20.80418333333333
 20
-7.096186111111112
 10
20.81646666666666
 20
-7.074283333333343
 10
20.82539722222221
 20
-7.05013333333333
 10
20.85077638888889
 20
-7.092991666666673
 10
20.87631388888889
 20
-7.135702777777775
 10
20.90308055555556
 20
-7.177677777777767
 10
21.06490833333333
 20
-7.431290277777785
 10
21.28049166666667
 20
-7.636038888888883
 10
21.54383333333332
 20
-7.786209722222211
 10
21.63235138888889
 20
-7.836758333333338
 10
21.72434583333335
 20
-7.857247222222213
 10
21.81760416666667
 20
-7.847358333333331
 10
21.91082777777779
 20
-7.83732361111111
 10
21.96905277777778
 20
-7.786308333333332
 10
21.99072222222222
 20
-7.695615277777783
 10
22.00685000000001
 20
-7.62809166666668
 10
22.001225
 20
-7.558466666666668
 10
21.97302083333334
 20
-7.476508333333337
 10
21.90405833333332
 20
-7.276206944444437
 10
21.80808472222222
 20
-7.086456944444434
 10
21.71527916666665
 20
-6.902936111111103
 10
21.68904305555555
 20
-6.85103611111112
 10
21.66277777777777
 20
-6.799137499999991
 10
21.63708194444444
 20
-6.74696666666667
 10
21.58205000000001
 20
-6.63510972222222
 10
21.52266805555556
 20
-6.52346111111112
 10
21.46524166666667
 20
-6.415522222222231
 10
21.56910138888889
 20
-6.486868055555558
 10
21.66331944444444
 20
-6.578604166666663
 10
21.7604125
 20
-6.702794444444432
 10
21.96673194444444
 20
-6.966554166666659
 10
22.21890694444444
 20
-7.183377777777777
 10
22.50997638888889
 20
-7.34729305555556
 10
22.58310000000001
 20
-7.388481944444442
 10
22.68209583333333
 20
-7.436670833333336
 10
22.79941944444444
 20
-7.443881944444456
 10
22.94083194444445
 20
-7.452198611111119
 10
23.03437638888888
 20
-7.413933333333337
 10
23.07723333333332
 20
-7.328941666666676
 10
23.17726111111111
 20
-7.13058055555555
 10
22.93109166666666
 20
-6.765994444444433
 10
22.83700833333334
 20
-6.653929166666658
 10
22.8006236111111
 20
-6.610591666666677
 10
22.76388472222223
 20
-6.5674138888889
 10
22.72705555555556
 20
-6.524186111111121
 10
22.58720277777777
 20
-6.360061111111109
 10
22.44259722222222
 20
-6.190334722222233
 10
22.32133055555556
 20
-6.010424999999992
 10
22.0934513888889
 20
-5.672395833333338
 10
21.8391625
 20
-5.413648611111108
 10
21.53039444444443
 20
-5.110591666666664
 10
21.46080833333334
 20
-5.042268055555559
 10
21.38219166666666
 20
-4.961097222222216
 10
21.31355972222223
 20
-4.866645833333337
 10
21.35236388888888
 20
-4.865699999999998
 10
21.39234861111112
 20
-4.866534722222227
 10
21.43179166666667
 20
-4.871608333333332
 10
21.72461527777778
 20
-4.909037500000005
 10
22.00987222222223
 20
-5.006043055555551
 10
22.28573194444445
 20
-5.099929166666672
 10
22.56901111111112
 20
-5.196259722222218
 10
22.86193333333333
 20
-5.295881944444444
 10
23.16920277777778
 20
-5.334563888888889
 10
23.16920277777778
 20
-5.334563888888889
 10
23.236875
 20
-5.343347222222215
 10
23.236875
 20
-5.343347222222215
 10
23.53700694444445
 20
-5.382766666666662
 10
23.94801388888888
 20
-5.436704166666661
 10
24.19600138888889
 20
-5.231120833333332
 10
24.27647361111111
 20
-5.164481944444447
 10
24.29686388888889
 20
-5.068506944444443
 10
24.25057916666666
 20
-4.974424999999997
 10
24.23131944444445
 20
-4.935276388888888
 10
24.20332222222222
 20
-4.89988611111111
 10
24.16503333333334
 20
-4.866227777777781
 97
        0
 97
        0
 92
        1
 93
        1
 72
     4
 94
        3
 73
     0
 74
     1
 95
       59
 96
       55
 40
0.0
 40
0.0
 40
0.0
 40
0.0
 40
1.0
 40
1.0
 40
1.0
 40
2.0
 40
2.0
 40
2.0
 40
3.0
 40
3.0
 40
3.0
 40
4.0
 40
4.0
 40
4.0
 40
5.0
 40
5.0
 40
5.0
 40
6.0
 40
6.0
 40
6.0
 40
7.0
 40
7.0
 40
7.0
 40
8.0
 40
8.0
 40
8.0
 40
9.0
 40
9.0
 40
9.0
 40
10.0
 40
10.0
 40
10.0
 40
11.0
 40
11.0
 40
11.0
 40
12.0
 40
12.0
 40
12.0
 40
13.0
 40
13.0
 40
13.0
 40
14.0
 40
14.0
 40
14.0
 40
15.0
 40
15.0
 40
15.0
 40
16.0
 40
16.0
 40
16.0
 40
17.0
 40
17.0
 40
17.0
 40
18.0
 40
18.0
 40
18.0
 40
18.0
 10
22.83115
 20
-7.03680555555555
 10
22.85135694444443
 20
-7.068277777777767
 10
22.8659375
 20
-7.103090277777786
 10
22.87570277777778
 20
-7.14328194444445
 10
22.88190694444443
 20
-7.168636111111103
 10
22.88119583333335
 20
-7.188500000000001
 10
22.87375
 20
-7.197749999999991
 10
22.8646236111111
 20
-7.209087499999996
 10
22.83859305555555
 20
-7.215880555555562
 10
22.8084611111111
 20
-7.214886111111102
 10
22.76089722222223
 20
-7.209615277777781
 10
22.70520277777779
 20
-7.190894444444439
 10
22.65165694444444
 20
-7.162248611111105
 10
22.37237083333333
 20
-7.012655555555561
 10
22.12724444444444
 20
-6.802576388888887
 10
21.92305138888888
 20
-6.537833333333335
 10
21.81765555555555
 20
-6.401199999999991
 10
21.69076249999999
 20
-6.284011111111113
 10
21.53513611111111
 20
-6.179622222222229
 10
21.44396527777778
 20
-6.118412500000002
 10
21.34879027777778
 20
-6.047066666666675
 10
21.24412083333333
 20
-5.9614
 10
21.16149722222222
 20
-5.893751388888884
 10
21.0832236111111
 20
-5.810172222222225
 10
21.00476666666666
 20
-5.70584444444445
 10
20.84780277777776
 20
-5.497227777777779
 10
20.64277222222222
 20
-5.343555555555554
 10
20.37799305555556
 20
-5.235986111111111
 10
20.27988194444444
 20
-5.19616111111111
 10
20.18038194444443
 20
-5.146816666666672
 10
20.06136250000001
 20
-5.078751388888892
 10
20.1538611111111
 20
-5.053249999999998
 10
20.24896250000001
 20
-5.038877777777783
 10
20.34859722222222
 20
-5.023818055555554
 10
20.34859722222222
 20
-5.023818055555554
 10
20.36737916666667
 20
-5.020944444444441
 10
20.36737916666667
 20
-5.020944444444441
 10
20.42990416666667
 20
-5.011484722222222
 10
20.49265138888889
 20
-5.003279166666667
 10
20.55539722222223
 20
-4.995073611111112
 10
20.72146249999999
 20
-4.973269444444441
 10
20.89309444444444
 20
-4.950802777777779
 10
21.06218194444444
 20
-4.904123611111117
 10
21.19837361111111
 20
-5.122397222222225
 10
21.37771805555556
 20
-5.290919444444449
 10
21.58075833333333
 20
-5.472880555555561
 10
21.782375
 20
-5.65346666666667
 10
21.94200416666667
 20
-5.840759722222225
 10
22.06876111111112
 20
-6.045397222222214
 10
22.23649861111112
 20
-6.316256944444452
 10
22.44076666666665
 20
-6.555080555555555
 10
22.61846527777778
 20
-6.7529736111111
 10
22.69027777777779
 20
-6.83295416666667
 10
22.75985416666668
 20
-6.925833333333331
 10
22.83115
 20
-7.03680555555555
 97
        0
 97
        0
 92
        1
 93
        1
 72
     4
 94
        3
 73
     0
 74
     1
 95
       62
 96
       58
 40
0.0
 40
0.0
 40
0.0
 40
0.0
 40
1.0
 40
1.0
 40
1.0
 40
2.0
 40
2.0
 40
2.0
 40
3.0
 40
3.0
 40
3.0
 40
4.0
 40
4.0
 40
4.0
 40
5.0
 40
5.0
 40
5.0
 40
6.0
 40
6.0
 40
6.0
 40
7.0
 40
7.0
 40
7.0
 40
8.0
 40
8.0
 40
8.0
 40
9.0
 40
9.0
 40
9.0
 40
10.0
 40
10.0
 40
10.0
 40
11.0
 40
11.0
 40
11.0
 40
12.0
 40
12.0
 40
12.0
 40
13.0
 40
13.0
 40
13.0
 40
14.0
 40
14.0
 40
14.0
 40
15.0
 40
15.0
 40
15.0
 40
16.0
 40
16.0
 40
16.0
 40
17.0
 40
17.0
 40
17.0
 40
18.0
 40
18.0
 40
18.0
 40
19.0
 40
19.0
 40
19.0
 40
19.0
 10
20.2682
 20
-6.34265416666666
 10
20.28711666666666
 20
-6.367898611111109
 10
20.30604583333333
 20
-6.393202777777788
 10
20.32452083333333
 20
-6.418815277777766
 10
20.36435833333333
 20
-6.473956944444454
 10
20.40902222222222
 20
-6.524763888888881
 10
20.45224861111112
 20
-6.573849999999993
 10
20.46671944444445
 20
-6.590311111111102
 10
20.48120277777778
 20
-6.606722222222212
 10
20.4954763888889
 20
-6.623341666666672
 10
20.56603472222221
 20
-6.705361111111111
 10
20.60805972222223
 20
-6.808129166666655
 10
20.61368472222224
 20
-6.908636111111112
 10
20.6127388888889
 20
-6.957722222222223
 10
20.60047916666667
 20
-6.982290277777767
 10
20.58932499999999
 20
-6.988923611111103
 10
20.57810972222223
 20
-6.995568055555546
 10
20.55579027777778
 20
-6.991490277777782
 10
20.52952777777778
 20
-6.977954166666677
 10
20.52952777777778
 20
-6.977954166666677
 10
20.52950277777778
 20
-6.977954166666677
 10
20.52950277777778
 20
-6.977954166666677
 10
20.48572222222222
 20
-6.955363888888895
 10
20.4473111111111
 20
-6.921606944444445
 10
20.41199444444444
 20
-6.874658333333324
 10
20.35091944444444
 20
-6.793486111111102
 10
20.29677222222222
 20
-6.705251388888883
 10
20.25079305555555
 20
-6.628993055555561
 10
20.14575416666667
 20
-6.454622222222219
 10
20.01273055555556
 20
-6.299009722222232
 10
19.85544861111111
 20
-6.166393055555545
 10
19.74178472222221
 20
-6.070590277777783
 10
19.64158472222223
 20
-5.963647222222221
 10
19.55766388888888
 20
-5.848595833333333
 10
19.46263333333334
 20
-5.718227777777782
 10
19.33794027777779
 20
-5.616468055555552
 10
19.16521527777778
 20
-5.528330555555562
 10
19.13981250000001
 20
-5.515370833333336
 10
19.11420000000001
 20
-5.502780555555558
 10
19.08858888888888
 20
-5.490226388888888
 10
19.12910138888888
 20
-5.475337499999998
 10
19.17038750000001
 20
-5.459859722222228
 10
19.21082638888889
 20
-5.442613888888887
 10
19.2230236111111
 20
-5.437380555555554
 10
19.22702777777777
 20
-5.4377
 10
19.22689305555557
 20
-5.43765
 10
19.22691805555556
 20
-5.43765
 10
19.22979166666667
 20
-5.438694444444447
 10
19.23581111111111
 20
-5.444959722222216
 10
19.41122500000001
 20
-5.626920833333328
 10
19.61903194444443
 20
-5.761515277777776
 10
19.81681527777778
 20
-5.883777777777772
 10
19.96720833333332
 20
-5.976766666666663
 10
20.09100416666666
 20
-6.092640277777769
 10
20.18482916666666
 20
-6.228291666666665
 10
20.21166944444445
 20
-6.267072222222218
 10
20.23992222222222
 20
-6.304869444444446
 10
20.2682
 20
-6.34265416666666
 97
        0
 97
        0
 92
        1
 93
        1
 72
     4
 94
        3
 73
     0
 74
     1
 95
       53
 96
       49
 40
0.0
 40
0.0
 40
0.0
 40
0.0
 40
1.0
 40
1.0
 40
1.0
 40
2.0
 40
2.0
 40
2.0
 40
3.0
 40
3.0
 40
3.0
 40
4.0
 40
4.0
 40
4.0
 40
5.0
 40
5.0
 40
5.0
 40
6.0
 40
6.0
 40
6.0
 40
7.0
 40
7.0
 40
7.0
 40
8.0
 40
8.0
 40
8.0
 40
9.0
 40
9.0
 40
9.0
 40
10.0
 40
10.0
 40
10.0
 40
11.0
 40
11.0
 40
11.0
 40
12.0
 40
12.0
 40
12.0
 40
13.0
 40
13.0
 40
13.0
 40
14.0
 40
14.0
 40
14.0
 40
15.0
 40
15.0
 40
15.0
 40
16.0
 40
16.0
 40
16.0
 40
16.0
 10
19.88989166666667
 20
-5.657176388888893
 10
19.75132916666666
 20
-5.573080555555558
 10
19.59173750000001
 20
-5.469368055555555
 10
19.45183611111111
 20
-5.334624999999997
 10
19.57676388888889
 20
-5.273095833333337
 10
19.68185416666668
 20
-5.224697222222226
 10
19.78132638888888
 20
-5.18282083333333
 10
19.785775
 20
-5.180941666666664
 10
19.78843888888888
 20
-5.180008333333338
 10
19.78946111111112
 20
-5.179640277777783
 10
19.9397888888889
 20
-5.283758333333329
 10
20.10945555555557
 20
-5.374609722222228
 10
20.29373750000001
 20
-5.449615277777777
 10
20.50368194444445
 20
-5.534976388888885
 10
20.67985694444446
 20
-5.669411111111117
 10
20.84810972222224
 20
-5.872636111111117
 10
20.97860138888889
 20
-6.030238888888889
 10
21.09571666666668
 20
-6.209681944444456
 10
21.20613611111111
 20
-6.421112500000011
 10
21.20613611111111
 20
-6.421112500000011
 10
21.28361111111111
 20
-6.569034722222214
 10
21.28361111111111
 20
-6.569034722222214
 10
21.41911527777777
 20
-6.827254166666661
 10
21.55922499999999
 20
-7.094306944444447
 10
21.68159722222223
 20
-7.363815277777777
 10
21.70686527777778
 20
-7.419534722222225
 10
21.72858333333334
 20
-7.476138888888878
 10
21.75234027777777
 20
-7.538972222222228
 10
21.76164027777779
 20
-7.563687499999989
 10
21.76705694444445
 20
-7.588463888888882
 10
21.76972222222222
 20
-7.620401388888896
 10
21.71339999999999
 20
-7.613927777777765
 10
21.6587986111111
 20
-7.593376388888878
 10
21.60739027777779
 20
-7.559399999999995
 10
21.35576666666667
 20
-7.392866666666678
 10
21.17344861111112
 20
-7.202552777777782
 10
21.04995972222223
 20
-6.977474999999989
 10
20.94225416666667
 20
-6.781202777777783
 10
20.80928055555556
 20
-6.605309722222223
 10
20.65473888888889
 20
-6.454831944444448
 10
20.55952499999999
 20
-6.362051388888883
 10
20.48117777777778
 20
-6.248990277777769
 10
20.40541111111111
 20
-6.13963888888889
 10
20.40541111111111
 20
-6.13963888888889
 10
20.39365555555554
 20
-6.122649999999996
 10
20.39365555555554
 20
-6.122649999999996
 10
20.264725
 20
-5.936831944444444
 10
20.09997083333332
 20
-5.784559722222221
 10
19.88989166666667
 20
-5.657176388888893
 97
        0
 97
        0
 75
     2
 76
     1
 98
        0
  0
ENDSEC
  0
SECTION
  2
OBJECTS
  0
DICTIONARY
  5
C
330
0
100
AcDbDictionary
281
     1
  3
ACAD_GROUP
350
D
  3
ACAD_LAYOUT
350
1A
  3
ACAD_MATERIAL
350
3B
  3
ACAD_MLEADERSTYLE
350
47
  3
ACAD_MLINESTYLE
350
17
  3
ACAD_PLOTSETTINGS
350
19
  3
ACAD_PLOTSTYLENAME
350
E
  3
ACAD_TABLESTYLE
350
46
  3
ACAD_VISUALSTYLE
350
2A
  0
SUN
  5
3F
330
29
100
AcDbSun
 90
        1
290
     0
 63
     7
421
 16777215
 40
1.0
291
     1
 91
  2455826
 92
 54000000
292
     0
 70
     2
 71
   256
280
     1
  0
DICTIONARY
  5
D
102
{ACAD_REACTORS
330
C
102
}
330
C
100
AcDbDictionary
281
     1
  0
DICTIONARY
  5
1A
102
{ACAD_REACTORS
330
C
102
}
330
C
100
AcDbDictionary
281
     1
  3
Layout1
350
1E
  3
Layout2
350
26
  3
Model
350
22
  0
DICTIONARY
  5
3B
102
{ACAD_REACTORS
330
C
102
}
330
C
100
AcDbDictionary
281
     1
  3
ByBlock
350
3D
  3
ByLayer
350
3C
  3
Global
350
3E
  0
DICTIONARY
  5
47
102
{ACAD_REACTORS
330
C
102
}
330
C
100
AcDbDictionary
281
     1
  0
DICTIONARY
  5
17
102
{ACAD_REACTORS
330
C
102
}
330
C
100
AcDbDictionary
281
     1
  3
Standard
350
18
  0
DICTIONARY
  5
19
102
{ACAD_REACTORS
330
C
102
}
330
C
100
AcDbDictionary
281
     1
  0
ACDBDICTIONARYWDFLT
  5
E
102
{ACAD_REACTORS
330
C
102
}
330
C
100
AcDbDictionary
281
     1
  3
Normal
350
F
100
AcDbDictionaryWithDefault
340
F
  0
DICTIONARY
  5
46
102
{ACAD_REACTORS
330
C
102
}
330
C
100
AcDbDictionary
281
     1
  0
DICTIONARY
  5
2A
102
{ACAD_REACTORS
330
C
102
}
330
C
100
AcDbDictionary
281
     1
  3
2dWireframe
350
2F
  3
3D Hidden
350
31
  3
3dWireframe
350
30
  3
Basic
350
32
  3
Brighten
350
36
  3
ColorChange
350
3A
  3
Conceptual
350
34
  3
Dim
350
35
  3
Facepattern
350
39
  3
Flat
350
2B
  3
FlatWithEdges
350
2C
  3
Gouraud
350
2D
  3
GouraudWithEdges
350
2E
  3
Linepattern
350
38
  3
Realistic
350
33
  3
Thicken
350
37
  0
LAYOUT
  5
1E
102
{ACAD_REACTORS
330
1A
102
}
330
1A
100
AcDbPlotSettings
  1

  2
none_device
  4

  6

 40
0.0
 41
0.0
 42
0.0
 43
0.0
 44
0.0
 45
0.0
 46
0.0
 47
0.0
 48
0.0
 49
0.0
140
0.0
141
0.0
142
1.0
143
1.0
 70
   688
 72
     0
 73
     0
 74
     5
  7

 75
    16
 76
     0
 77
     2
 78
   300
147
1.0
148
0.0
149
0.0
100
AcDbLayout
  1
Layout1
 70
     1
 71
     1
 10
0.0
 20
0.0
 11
12.0
 21
9.0
 12
0.0
 22
0.0
 32
0.0
 14
1.000000000000000E+20
 24
1.000000000000000E+20
 34
1.000000000000000E+20
 15
-1.000000000000000E+20
 25
-1.000000000000000E+20
 35
-1.000000000000000E+20
146
0.0
 13
0.0
 23
0.0
 33
0.0
 16
1.0
 26
0.0
 36
0.0
 17
0.0
 27
1.0
 37
0.0
 76
     0
330
1B
  0
LAYOUT
  5
26
102
{ACAD_REACTORS
330
1A
102
}
330
1A
100
AcDbPlotSettings
  1

  2
none_device
  4

  6

 40
0.0
 41
0.0
 42
0.0
 43
0.0
 44
0.0
 45
0.0
 46
0.0
 47
0.0
 48
0.0
 49
0.0
140
0.0
141
0.0
142
1.0
143
1.0
 70
   688
 72
     0
 73
     0
 74
     5
  7

 75
    16
 76
     0
 77
     2
 78
   300
147
1.0
148
0.0
149
0.0
100
AcDbLayout
  1
Layout2
 70
     1
 71
     2
 10
0.0
 20
0.0
 11
0.0
 21
0.0
 12
0.0
 22
0.0
 32
0.0
 14
0.0
 24
0.0
 34
0.0
 15
0.0
 25
0.0
 35
0.0
146
0.0
 13
0.0
 23
0.0
 33
0.0
 16
1.0
 26
0.0
 36
0.0
 17
0.0
 27
1.0
 37
0.0
 76
     0
330
23
  0
LAYOUT
  5
22
102
{ACAD_REACTORS
330
1A
102
}
330
1A
100
AcDbPlotSettings
  1

  2
none_device
  4

  6

 40
0.0
 41
0.0
 42
0.0
 43
0.0
 44
0.0
 45
0.0
 46
0.0
 47
0.0
 48
0.0
 49
0.0
140
0.0
141
0.0
142
1.0
143
1.0
 70
  1712
 72
     0
 73
     0
 74
     0
  7

 75
     0
 76
     0
 77
     2
 78
   300
147
1.0
148
0.0
149
0.0
100
AcDbLayout
  1
Model
 70
     1
 71
     0
 10
0.0
 20
0.0
 11
12.0
 21
9.0
 12
0.0
 22
0.0
 32
0.0
 14
1.000000000000000E+20
 24
1.000000000000000E+20
 34
1.000000000000000E+20
 15
-1.000000000000000E+20
 25
-1.000000000000000E+20
 35
-1.000000000000000E+20
146
0.0
 13
0.0
 23
0.0
 33
0.0
 16
1.0
 26
0.0
 36
0.0
 17
0.0
 27
1.0
 37
0.0
 76
     0
330
1F
331
29
  0
MATERIAL
  5
3D
102
{ACAD_REACTORS
330
3B
102
}
330
3B
100
AcDbMaterial
  1
ByBlock
 72
     1
 94
      127
  0
MATERIAL
  5
3C
102
{ACAD_REACTORS
330
3B
102
}
330
3B
100
AcDbMaterial
  1
ByLayer
 72
     1
 94
      127
  0
MATERIAL
  5
3E
102
{ACAD_REACTORS
330
3B
102
}
330
3B
100
AcDbMaterial
  1
Global
 72
     1
 94
      127
  0
MLINESTYLE
  5
18
102
{ACAD_REACTORS
330
17
102
}
330
17
100
AcDbMlineStyle
  2
Standard
 70
     0
  3

 62
   256
 51
90.0
 52
90.0
 71
     2
 49
0.5
 62
   256
  6
BYLAYER
 49
-0.5
 62
   256
  6
BYLAYER
  0
ACDBPLACEHOLDER
  5
F
102
{ACAD_REACTORS
330
E
102
}
330
E
  0
VISUALSTYLE
  5
2F
102
{ACAD_REACTORS
330
2A
102
}
330
2A
100
AcDbVisualStyle
  2
2dWireframe
 70
     4
177
     2
291
     0
 71
     0
176
     1
 72
     2
176
     1
 73
     0
176
     1
 90
        0
176
     1
 40
-0.6
176
     1
 41
-30.0
176
     1
 62
     5
 63
     7
421
 16777215
176
     1
 74
     1
176
     1
 91
        4
176
     1
 64
     7
176
     1
 65
   257
176
     1
 75
     1
176
     1
175
     1
176
     1
 42
1.0
176
     1
 92
        0
176
     1
 66
   257
176
     1
 43
1.0
176
     1
 76
     1
176
     1
 77
     6
176
     1
 78
     2
176
     1
 67
     7
176
     1
 79
     5
176
     1
170
     0
176
     1
171
     0
176
     1
290
     0
176
     1
 93
        1
176
     1
 44
0.0
176
     1
173
     0
176
     1
  0
VISUALSTYLE
  5
31
102
{ACAD_REACTORS
330
2A
102
}
330
2A
100
AcDbVisualStyle
  2
3D Hidden
 70
     6
177
     2
291
     0
 71
     1
176
     1
 72
     2
176
     1
 73
     2
176
     1
 90
        0
176
     1
 40
-0.6
176
     1
 41
-30.0
176
     1
 62
     5
 63
     7
421
 16777215
176
     1
 74
     2
176
     1
 91
        2
176
     1
 64
     7
176
     1
 65
   257
176
     1
 75
     2
176
     1
175
     1
176
     1
 42
40.0
176
     1
 92
        0
176
     1
 66
   257
176
     1
 43
1.0
176
     1
 76
     1
176
     1
 77
     6
176
     1
 78
     2
176
     1
 67
     7
176
     1
 79
     3
176
     1
170
     0
176
     1
171
     0
176
     1
290
     0
176
     1
 93
        1
176
     1
 44
0.0
176
     1
173
     0
176
     1
  0
VISUALSTYLE
  5
30
102
{ACAD_REACTORS
330
2A
102
}
330
2A
100
AcDbVisualStyle
  2
3dWireframe
 70
     5
177
     2
291
     0
 71
     0
176
     1
 72
     2
176
     1
 73
     0
176
     1
 90
        0
176
     1
 40
-0.6
176
     1
 41
-30.0
176
     1
 62
     5
 63
     7
421
 16777215
176
     1
 74
     1
176
     1
 91
        4
176
     1
 64
     7
176
     1
 65
   257
176
     1
 75
     1
176
     1
175
     1
176
     1
 42
1.0
176
     1
 92
        0
176
     1
 66
   257
176
     1
 43
1.0
176
     1
 76
     1
176
     1
 77
     6
176
     1
 78
     2
176
     1
 67
     7
176
     1
 79
     5
176
     1
170
     0
176
     1
171
     0
176
     1
290
     0
176
     1
 93
        1
176
     1
 44
0.0
176
     1
173
     0
176
     1
  0
VISUALSTYLE
  5
32
102
{ACAD_REACTORS
330
2A
102
}
330
2A
100
AcDbVisualStyle
  2
Basic
 70
     7
177
     2
291
     1
 71
     1
176
     1
 72
     0
176
     1
 73
     1
176
     1
 90
        0
176
     1
 40
-0.6
176
     1
 41
-30.0
176
     1
 62
     5
 63
     7
421
 16777215
176
     1
 74
     0
176
     1
 91
        4
176
     1
 64
     7
176
     1
 65
   257
176
     1
 75
     1
176
     1
175
     1
176
     1
 42
1.0
176
     1
 92
        8
176
     1
 66
     7
176
     1
 43
1.0
176
     1
 76
     1
176
     1
 77
     6
176
     1
 78
     2
176
     1
 67
     7
176
     1
 79
     5
176
     1
170
     0
176
     1
171
     0
176
     1
290
     0
176
     1
 93
        1
176
     1
 44
0.0
176
     1
173
     0
176
     1
  0
VISUALSTYLE
  5
36
102
{ACAD_REACTORS
330
2A
102
}
330
2A
100
AcDbVisualStyle
  2
Brighten
 70
    12
177
     2
291
     1
 71
     2
176
     1
 72
     2
176
     1
 73
     0
176
     1
 90
        0
176
     1
 40
-0.6
176
     1
 41
-30.0
176
     1
 62
     5
 63
     7
421
 16777215
176
     1
 74
     1
176
     1
 91
        4
176
     1
 64
     7
176
     1
 65
   257
176
     1
 75
     1
176
     1
175
     1
176
     1
 42
1.0
176
     1
 92
        8
176
     1
 66
     7
176
     1
 43
1.0
176
     1
 76
     1
176
     1
 77
     6
176
     1
 78
     2
176
     1
 67
     7
176
     1
 79
     5
176
     1
170
     0
176
     1
171
     0
176
     1
290
     0
176
     1
 93
        1
176
     1
 44
50.0
176
     1
173
     0
176
     1
  0
VISUALSTYLE
  5
3A
102
{ACAD_REACTORS
330
2A
102
}
330
2A
100
AcDbVisualStyle
  2
ColorChange
 70
    16
177
     2
291
     1
 71
     2
176
     1
 72
     2
176
     1
 73
     3
176
     1
 90
        0
176
     1
 40
-0.6
176
     1
 41
-30.0
176
     1
 62
     5
 63
     8
421
  8421504
176
     1
 74
     1
176
     1
 91
        4
176
     1
 64
     7
176
     1
 65
   257
176
     1
 75
     1
176
     1
175
     1
176
     1
 42
1.0
176
     1
 92
        8
176
     1
 66
     8
424
  8421504
176
     1
 43
1.0
176
     1
 76
     1
176
     1
 77
     6
176
     1
 78
     2
176
     1
 67
     7
176
     1
 79
     5
176
     1
170
     0
176
     1
171
     0
176
     1
290
     0
176
     1
 93
        1
176
     1
 44
0.0
176
     1
173
     0
176
     1
  0
VISUALSTYLE
  5
34
102
{ACAD_REACTORS
330
2A
102
}
330
2A
100
AcDbVisualStyle
  2
Conceptual
 70
     9
177
     2
291
     0
 71
     3
176
     1
 72
     2
176
     1
 73
     0
176
     1
 90
        0
176
     1
 40
-0.6
176
     1
 41
-30.0
176
     1
 62
     5
 63
     7
421
 16777215
176
     1
 74
     2
176
     1
 91
        2
176
     1
 64
     7
176
     1
 65
   257
176
     1
 75
     1
176
     1
175
     1
176
     1
 42
40.0
176
     1
 92
        8
176
     1
 66
     7
176
     1
 43
1.0
176
     1
 76
     1
176
     1
 77
     6
176
     1
 78
     2
176
     1
 67
     7
176
     1
 79
     3
176
     1
170
     0
176
     1
171
     0
176
     1
290
     0
176
     1
 93
        1
176
     1
 44
0.0
176
     1
173
     0
176
     1
  0
VISUALSTYLE
  5
35
102
{ACAD_REACTORS
330
2A
102
}
330
2A
100
AcDbVisualStyle
  2
Dim
 70
    11
177
     2
291
     1
 71
     2
176
     1
 72
     2
176
     1
 73
     0
176
     1
 90
        0
176
     1
 40
-0.6
176
     1
 41
-30.0
176
     1
 62
     5
 63
     7
421
 16777215
176
     1
 74
     1
176
     1
 91
        4
176
     1
 64
     7
176
     1
 65
   257
176
     1
 75
     1
176
     1
175
     1
176
     1
 42
1.0
176
     1
 92
        8
176
     1
 66
     7
176
     1
 43
1.0
176
     1
 76
     1
176
     1
 77
     6
176
     1
 78
     2
176
     1
 67
     7
176
     1
 79
     5
176
     1
170
     0
176
     1
171
     0
176
     1
290
     0
176
     1
 93
        1
176
     1
 44
-50.0
176
     1
173
     0
176
     1
  0
VISUALSTYLE
  5
39
102
{ACAD_REACTORS
330
2A
102
}
330
2A
100
AcDbVisualStyle
  2
Facepattern
 70
    15
177
     2
291
     1
 71
     2
176
     1
 72
     2
176
     1
 73
     0
176
     1
 90
        0
176
     1
 40
-0.6
176
     1
 41
-30.0
176
     1
 62
     5
 63
     7
421
 16777215
176
     1
 74
     1
176
     1
 91
        4
176
     1
 64
     7
176
     1
 65
   257
176
     1
 75
     1
176
     1
175
     1
176
     1
 42
1.0
176
     1
 92
        8
176
     1
 66
     7
176
     1
 43
1.0
176
     1
 76
     1
176
     1
 77
     6
176
     1
 78
     2
176
     1
 67
     7
176
     1
 79
     5
176
     1
170
     0
176
     1
171
     0
176
     1
290
     0
176
     1
 93
        1
176
     1
 44
0.0
176
     1
173
     0
176
     1
  0
VISUALSTYLE
  5
2B
102
{ACAD_REACTORS
330
2A
102
}
330
2A
100
AcDbVisualStyle
  2
Flat
 70
     0
177
     2
291
     1
 71
     2
176
     1
 72
     1
176
     1
 73
     1
176
     1
 90
        2
176
     1
 40
-0.6
176
     1
 41
30.0
176
     1
 62
     5
 63
     7
421
 16777215
176
     1
 74
     0
176
     1
 91
        4
176
     1
 64
     7
176
     1
 65
   257
176
     1
 75
     1
176
     1
175
     1
176
     1
 42
1.0
176
     1
 92
        8
176
     1
 66
     7
176
     1
 43
1.0
176
     1
 76
     1
176
     1
 77
     6
176
     1
 78
     2
176
     1
 67
     7
176
     1
 79
     5
176
     1
170
     0
176
     1
171
     0
176
     1
290
     0
176
     1
 93
       13
176
     1
 44
0.0
176
     1
173
     0
176
     1
  0
VISUALSTYLE
  5
2C
102
{ACAD_REACTORS
330
2A
102
}
330
2A
100
AcDbVisualStyle
  2
FlatWithEdges
 70
     1
177
     2
291
     1
 71
     2
176
     1
 72
     1
176
     1
 73
     1
176
     1
 90
        2
176
     1
 40
-0.6
176
     1
 41
30.0
176
     1
 62
     5
 63
     7
421
 16777215
176
     1
 74
     1
176
     1
 91
        4
176
     1
 64
     7
176
     1
 65
   257
176
     1
 75
     1
176
     1
175
     1
176
     1
 42
1.0
176
     1
 92
        0
176
     1
 66
   257
176
     1
 43
1.0
176
     1
 76
     1
176
     1
 77
     6
176
     1
 78
     2
176
     1
 67
     7
176
     1
 79
     5
176
     1
170
     0
176
     1
171
     0
176
     1
290
     0
176
     1
 93
       13
176
     1
 44
0.0
176
     1
173
     0
176
     1
  0
VISUALSTYLE
  5
2D
102
{ACAD_REACTORS
330
2A
102
}
330
2A
100
AcDbVisualStyle
  2
Gouraud
 70
     2
177
     2
291
     1
 71
     2
176
     1
 72
     2
176
     1
 73
     1
176
     1
 90
        2
176
     1
 40
-0.6
176
     1
 41
30.0
176
     1
 62
     5
 63
     7
421
 16777215
176
     1
 74
     0
176
     1
 91
        4
176
     1
 64
     7
176
     1
 65
   257
176
     1
 75
     1
176
     1
175
     1
176
     1
 42
1.0
176
     1
 92
        0
176
     1
 66
     7
176
     1
 43
1.0
176
     1
 76
     1
176
     1
 77
     6
176
     1
 78
     2
176
     1
 67
     7
176
     1
 79
     5
176
     1
170
     0
176
     1
171
     0
176
     1
290
     0
176
     1
 93
       13
176
     1
 44
0.0
176
     1
173
     0
176
     1
  0
VISUALSTYLE
  5
2E
102
{ACAD_REACTORS
330
2A
102
}
330
2A
100
AcDbVisualStyle
  2
GouraudWithEdges
 70
     3
177
     2
291
     1
 71
     2
176
     1
 72
     2
176
     1
 73
     1
176
     1
 90
        2
176
     1
 40
-0.6
176
     1
 41
30.0
176
     1
 62
     5
 63
     7
421
 16777215
176
     1
 74
     1
176
     1
 91
        4
176
     1
 64
     7
176
     1
 65
   257
176
     1
 75
     1
176
     1
175
     1
176
     1
 42
1.0
176
     1
 92
        0
176
     1
 66
   257
176
     1
 43
1.0
176
     1
 76
     1
176
     1
 77
     6
176
     1
 78
     2
176
     1
 67
     7
176
     1
 79
     5
176
     1
170
     0
176
     1
171
     0
176
     1
290
     0
176
     1
 93
       13
176
     1
 44
0.0
176
     1
173
     0
176
     1
  0
VISUALSTYLE
  5
38
102
{ACAD_REACTORS
330
2A
102
}
330
2A
100
AcDbVisualStyle
  2
Linepattern
 70
    14
177
     2
291
     1
 71
     2
176
     1
 72
     2
176
     1
 73
     0
176
     1
 90
        0
176
     1
 40
-0.6
176
     1
 41
-30.0
176
     1
 62
     5
 63
     7
421
 16777215
176
     1
 74
     1
176
     1
 91
        4
176
     1
 64
     7
176
     1
 65
   257
176
     1
 75
     7
176
     1
175
     7
176
     1
 42
1.0
176
     1
 92
        8
176
     1
 66
     7
176
     1
 43
1.0
176
     1
 76
     1
176
     1
 77
     6
176
     1
 78
     2
176
     1
 67
     7
176
     1
 79
     5
176
     1
170
     0
176
     1
171
     0
176
     1
290
     0
176
     1
 93
        1
176
     1
 44
0.0
176
     1
173
     0
176
     1
  0
VISUALSTYLE
  5
33
102
{ACAD_REACTORS
330
2A
102
}
330
2A
100
AcDbVisualStyle
  2
Realistic
 70
     8
177
     2
291
     0
 71
     2
176
     1
 72
     2
176
     1
 73
     0
176
     1
 90
        0
176
     1
 40
-0.6
176
     1
 41
-30.0
176
     1
 62
     5
 63
     7
421
 16777215
176
     1
 74
     1
176
     1
 91
        0
176
     1
 64
     7
176
     1
 65
   257
176
     1
 75
     1
176
     1
175
     1
176
     1
 42
1.0
176
     1
 92
        8
176
     1
 66
     8
424
  7895160
176
     1
 43
1.0
176
     1
 76
     1
176
     1
 77
     6
176
     1
 78
     2
176
     1
 67
     7
176
     1
 79
     5
176
     1
170
     0
176
     1
171
     0
176
     1
290
     0
176
     1
 93
       13
176
     1
 44
0.0
176
     1
173
     0
176
     1
  0
VISUALSTYLE
  5
37
102
{ACAD_REACTORS
330
2A
102
}
330
2A
100
AcDbVisualStyle
  2
Thicken
 70
    13
177
     2
291
     1
 71
     2
176
     1
 72
     2
176
     1
 73
     0
176
     1
 90
        0
176
     1
 40
-0.6
176
     1
 41
-30.0
176
     1
 62
     5
 63
     7
421
 16777215
176
     1
 74
     1
176
     1
 91
        4
176
     1
 64
     7
176
     1
 65
   257
176
     1
 75
     1
176
     1
175
     1
176
     1
 42
1.0
176
     1
 92
       12
176
     1
 66
     7
176
     1
 43
1.0
176
     1
 76
     1
176
     1
 77
     6
176
     1
 78
     2
176
     1
 67
     7
176
     1
 79
     5
176
     1
170
     0
176
     1
171
     0
176
     1
290
     0
176
     1
 93
        1
176
     1
 44
0.0
176
     1
173
     0
176
     1
  0
ENDSEC
  0
EOF
