  0
SECTION
  2
HEADER
  9
$ACADVER
  1
AC1024
  9
$ACADMAINTVER
 70
     6
  9
$DWGCODEPAGE
  3
ANSI_1251
  9
$INSBASE
 10
0.0
 20
0.0
 30
0.0
  9
$EXTMIN
 10
1.000000000000000E+20
 20
1.000000000000000E+20
 30
1.000000000000000E+20
  9
$EXTMAX
 10
-1.000000000000000E+20
 20
-1.000000000000000E+20
 30
-1.000000000000000E+20
  9
$LIMMIN
 10
0.0
 20
0.0
  9
$LIMMAX
 10
12.0
 20
9.0
  9
$ORTHOMODE
 70
     0
  9
$REGENMODE
 70
     1
  9
$FILLMODE
 70
     1
  9
$QTEXTMODE
 70
     0
  9
$MIRRTEXT
 70
     1
  9
$LTSCALE
 40
1.0
  9
$ATTMODE
 70
     1
  9
$TEXTSIZE
 40
0.2
  9
$TRACEWID
 40
0.05
  9
$TEXTSTYLE
  7
Standard
  9
$CLAYER
  8
0
  9
$CELTYPE
  6
ByLayer
  9
$CECOLOR
 62
   256
  9
$CELTSCALE
 40
1.0
  9
$DISPSILH
 70
     0
  9
$DIMSCALE
 40
1.0
  9
$DIMASZ
 40
0.18
  9
$DIMEXO
 40
0.0625
  9
$DIMDLI
 40
0.38
  9
$DIMRND
 40
0.0
  9
$DIMDLE
 40
0.0
  9
$DIMEXE
 40
0.18
  9
$DIMTP
 40
0.0
  9
$DIMTM
 40
0.0
  9
$DIMTXT
 40
0.18
  9
$DIMCEN
 40
0.09
  9
$DIMTSZ
 40
0.0
  9
$DIMTOL
 70
     0
  9
$DIMLIM
 70
     0
  9
$DIMTIH
 70
     1
  9
$DIMTOH
 70
     1
  9
$DIMSE1
 70
     0
  9
$DIMSE2
 70
     0
  9
$DIMTAD
 70
     0
  9
$DIMZIN
 70
     0
  9
$DIMBLK
  1

  9
$DIMASO
 70
     1
  9
$DIMSHO
 70
     1
  9
$DIMPOST
  1

  9
$DIMAPOST
  1

  9
$DIMALT
 70
     0
  9
$DIMALTD
 70
     2
  9
$DIMALTF
 40
25.4
  9
$DIMLFAC
 40
1.0
  9
$DIMTOFL
 70
     0
  9
$DIMTVP
 40
0.0
  9
$DIMTIX
 70
     0
  9
$DIMSOXD
 70
     0
  9
$DIMSAH
 70
     0
  9
$DIMBLK1
  1

  9
$DIMBLK2
  1

  9
$DIMSTYLE
  2
Standard
  9
$DIMCLRD
 70
     0
  9
$DIMCLRE
 70
     0
  9
$DIMCLRT
 70
     0
  9
$DIMTFAC
 40
1.0
  9
$DIMGAP
 40
0.09
  9
$DIMJUST
 70
     0
  9
$DIMSD1
 70
     0
  9
$DIMSD2
 70
     0
  9
$DIMTOLJ
 70
     1
  9
$DIMTZIN
 70
     0
  9
$DIMALTZ
 70
     0
  9
$DIMALTTZ
 70
     0
  9
$DIMUPT
 70
     0
  9
$DIMDEC
 70
     4
  9
$DIMTDEC
 70
     4
  9
$DIMALTU
 70
     2
  9
$DIMALTTD
 70
     2
  9
$DIMTXSTY
  7
Standard
  9
$DIMAUNIT
 70
     0
  9
$DIMADEC
 70
     0
  9
$DIMALTRND
 40
0.0
  9
$DIMAZIN
 70
     0
  9
$DIMDSEP
 70
    46
  9
$DIMATFIT
 70
     3
  9
$DIMFRAC
 70
     0
  9
$DIMLDRBLK
  1

  9
$DIMLUNIT
 70
     2
  9
$DIMLWD
 70
    -2
  9
$DIMLWE
 70
    -2
  9
$DIMTMOVE
 70
     0
  9
$DIMFXL
 40
1.0
  9
$DIMFXLON
 70
     0
  9
$DIMJOGANG
 40
0.7853981633974483
  9
$DIMTFILL
 70
     0
  9
$DIMTFILLCLR
 70
     0
  9
$DIMARCSYM
 70
     0
  9
$DIMLTYPE
  6

  9
$DIMLTEX1
  6

  9
$DIMLTEX2
  6

  9
$DIMTXTDIRECTION
 70
     0
  9
$LUNITS
 70
     2
  9
$LUPREC
 70
     4
  9
$SKETCHINC
 40
0.1
  9
$FILLETRAD
 40
0.5
  9
$AUNITS
 70
     0
  9
$AUPREC
 70
     0
  9
$MENU
  1
.
  9
$ELEVATION
 40
0.0
  9
$PELEVATION
 40
0.0
  9
$THICKNESS
 40
0.0
  9
$LIMCHECK
 70
     0
  9
$CHAMFERA
 40
0.5
  9
$CHAMFERB
 40
0.5
  9
$CHAMFERC
 40
1.0
  9
$CHAMFERD
 40
0.0
  9
$SKPOLY
 70
     0
  9
$TDCREATE
 40
2459337.676374039
  9
$TDUCREATE
 40
2459337.551374039
  9
$TDUPDATE
 40
2459337.676374039
  9
$TDUUPDATE
 40
2459337.551374039
  9
$TDINDWG
 40
0.0000000116
  9
$TDUSRTIMER
 40
0.0000000116
  9
$USRTIMER
 70
     1
  9
$ANGBASE
 50
0.0
  9
$ANGDIR
 70
     0
  9
$PDMODE
 70
     0
  9
$PDSIZE
 40
0.0
  9
$PLINEWID
 40
0.0
  9
$SPLFRAME
 70
     0
  9
$SPLINETYPE
 70
     6
  9
$SPLINESEGS
 70
     8
  9
$HANDSEED
  5
4C
  9
$SURFTAB1
 70
     6
  9
$SURFTAB2
 70
     6
  9
$SURFTYPE
 70
     6
  9
$SURFU
 70
     6
  9
$SURFV
 70
     6
  9
$UCSBASE
  2

  9
$UCSNAME
  2

  9
$UCSORG
 10
0.0
 20
0.0
 30
0.0
  9
$UCSXDIR
 10
1.0
 20
0.0
 30
0.0
  9
$UCSYDIR
 10
0.0
 20
1.0
 30
0.0
  9
$UCSORTHOREF
  2

  9
$UCSORTHOVIEW
 70
     0
  9
$UCSORGTOP
 10
0.0
 20
0.0
 30
0.0
  9
$UCSORGBOTTOM
 10
0.0
 20
0.0
 30
0.0
  9
$UCSORGLEFT
 10
0.0
 20
0.0
 30
0.0
  9
$UCSORGRIGHT
 10
0.0
 20
0.0
 30
0.0
  9
$UCSORGFRONT
 10
0.0
 20
0.0
 30
0.0
  9
$UCSORGBACK
 10
0.0
 20
0.0
 30
0.0
  9
$PUCSBASE
  2

  9
$PUCSNAME
  2

  9
$PUCSORG
 10
0.0
 20
0.0
 30
0.0
  9
$PUCSXDIR
 10
1.0
 20
0.0
 30
0.0
  9
$PUCSYDIR
 10
0.0
 20
1.0
 30
0.0
  9
$PUCSORTHOREF
  2

  9
$PUCSORTHOVIEW
 70
     0
  9
$PUCSORGTOP
 10
0.0
 20
0.0
 30
0.0
  9
$PUCSORGBOTTOM
 10
0.0
 20
0.0
 30
0.0
  9
$PUCSORGLEFT
 10
0.0
 20
0.0
 30
0.0
  9
$PUCSORGRIGHT
 10
0.0
 20
0.0
 30
0.0
  9
$PUCSORGFRONT
 10
0.0
 20
0.0
 30
0.0
  9
$PUCSORGBACK
 10
0.0
 20
0.0
 30
0.0
  9
$USERI1
 70
     0
  9
$USERI2
 70
     0
  9
$USERI3
 70
     0
  9
$USERI4
 70
     0
  9
$USERI5
 70
     0
  9
$USERR1
 40
0.0
  9
$USERR2
 40
0.0
  9
$USERR3
 40
0.0
  9
$USERR4
 40
0.0
  9
$USERR5
 40
0.0
  9
$WORLDVIEW
 70
     1
  9
$SHADEDGE
 70
     3
  9
$SHADEDIF
 70
    70
  9
$TILEMODE
 70
     1
  9
$MAXACTVP
 70
    64
  9
$PINSBASE
 10
0.0
 20
0.0
 30
0.0
  9
$PLIMCHECK
 70
     0
  9
$PEXTMIN
 10
1.000000000000000E+20
 20
1.000000000000000E+20
 30
1.000000000000000E+20
  9
$PEXTMAX
 10
-1.000000000000000E+20
 20
-1.000000000000000E+20
 30
-1.000000000000000E+20
  9
$PLIMMIN
 10
0.0
 20
0.0
  9
$PLIMMAX
 10
12.0
 20
9.0
  9
$UNITMODE
 70
     0
  9
$VISRETAIN
 70
     1
  9
$PLINEGEN
 70
     0
  9
$PSLTSCALE
 70
     1
  9
$TREEDEPTH
 70
  3020
  9
$CMLSTYLE
  2
Standard
  9
$CMLJUST
 70
     0
  9
$CMLSCALE
 40
1.0
  9
$PROXYGRAPHICS
 70
     1
  9
$MEASUREMENT
 70
     0
  9
$CELWEIGHT
370
    -1
  9
$ENDCAPS
280
     0
  9
$JOINSTYLE
280
     0
  9
$LWDISPLAY
290
     1
  9
$INSUNITS
 70
     1
  9
$HYPERLINKBASE
  1

  9
$STYLESHEET
  1

  9
$XEDIT
290
     1
  9
$CEPSNTYPE
380
     0
  9
$PSTYLEMODE
290
     1
  9
$FINGERPRINTGUID
  2
{CA274A50-5B71-4461-9E7D-292E8F11CB95}
  9
$VERSIONGUID
  2
{FAEB1C32-E019-11D5-929B-00C0DF256EC4}
  9
$EXTNAMES
290
     1
  9
$PSVPSCALE
 40
0.0
  9
$OLESTARTUP
290
     0
  9
$SORTENTS
280
   127
  9
$INDEXCTL
280
     0
  9
$HIDETEXT
280
     1
  9
$XCLIPFRAME
280
     2
  9
$HALOGAP
280
     0
  9
$OBSCOLOR
 70
   257
  9
$OBSLTYPE
280
     0
  9
$INTERSECTIONDISPLAY
280
     0
  9
$INTERSECTIONCOLOR
 70
   257
  9
$DIMASSOC
280
     2
  9
$PROJECTNAME
  1

  9
$CAMERADISPLAY
290
     0
  9
$LENSLENGTH
 40
50.0
  9
$CAMERAHEIGHT
 40
0.0
  9
$STEPSPERSEC
 40
2.0
  9
$STEPSIZE
 40
6.0
  9
$3DDWFPREC
 40
2.0
  9
$PSOLWIDTH
 40
0.25
  9
$PSOLHEIGHT
 40
4.0
  9
$LOFTANG1
 40
1.570796326794897
  9
$LOFTANG2
 40
1.570796326794897
  9
$LOFTMAG1
 40
0.0
  9
$LOFTMAG2
 40
0.0
  9
$LOFTPARAM
 70
     7
  9
$LOFTNORMALS
280
     1
  9
$LATITUDE
 40
37.795
  9
$LONGITUDE
 40
-122.394
  9
$NORTHDIRECTION
 40
0.0
  9
$TIMEZONE
 70
 -8000
  9
$LIGHTGLYPHDISPLAY
280
     1
  9
$TILEMODELIGHTSYNCH
280
     1
  9
$CMATERIAL
347
3C
  9
$SOLIDHIST
280
     1
  9
$SHOWHIST
280
     1
  9
$DWFFRAME
280
     2
  9
$DGNFRAME
280
     2
  9
$REALWORLDSCALE
290
     1
  9
$INTERFERECOLOR
 62
   256
  9
$CSHADOW
280
     0
  9
$SHADOWPLANELOCATION
 40
0.0
  0
ENDSEC
  0
SECTION
  2
CLASSES
  0
CLASS
  1
ACDBDICTIONARYWDFLT
  2
AcDbDictionaryWithDefault
  3
ObjectDBX Classes
 90
        0
 91
        4
280
     0
281
     0
  0
CLASS
  1
VISUALSTYLE
  2
AcDbVisualStyle
  3
ObjectDBX Classes
 90
     4095
 91
        4
280
     0
281
     0
  0
CLASS
  1
MATERIAL
  2
AcDbMaterial
  3
ObjectDBX Classes
 90
     1153
 91
        4
280
     0
281
     0
  0
CLASS
  1
SUN
  2
AcDbSun
  3
SCENEOE
 90
     1024
 91
        4
280
     0
281
     0
  0
ENDSEC
  0
SECTION
  2
TABLES
  0
TABLE
  2
VPORT
  5
8
330
0
100
AcDbSymbolTable
 70
     1
  0
VPORT
  5
29
330
8
100
AcDbSymbolTableRecord
100
AcDbViewportTableRecord
  2
*Active
 70
     0
 10
0.0
 20
0.0
 11
1.0
 21
1.0
 12
0.0
 22
0.0
 13
0.0
 23
0.0
 14
0.5
 24
0.5
 15
0.5
 25
0.5
 16
0.0
 26
0.0
 36
1.0
 17
30.89468194444445
 27
-55.46132836246142
 37
0.0
 40
8.689751169367305
 41
1.380937125369231
 42
50.0
 43
0.0
 44
0.0
 50
0.0
 51
0.0
 71
     0
 72
   100
 73
     1
 74
     3
 75
     0
 76
     0
 77
     0
 78
     0
281
     0
 65
     1
110
0.0
120
0.0
130
0.0
111
1.0
121
0.0
131
0.0
112
0.0
122
1.0
132
0.0
 79
     0
146
0.0
 60
     3
 61
     5
292
     1
282
     1
141
0.0
142
0.0
 63
   250
361
3F
  0
ENDTAB
  0
TABLE
  2
LTYPE
  5
5
330
0
100
AcDbSymbolTable
 70
     1
  0
LTYPE
  5
14
330
5
100
AcDbSymbolTableRecord
100
AcDbLinetypeTableRecord
  2
ByBlock
 70
     0
  3

 72
    65
 73
     0
 40
0.0
  0
LTYPE
  5
15
330
5
100
AcDbSymbolTableRecord
100
AcDbLinetypeTableRecord
  2
ByLayer
 70
     0
  3

 72
    65
 73
     0
 40
0.0
  0
LTYPE
  5
16
330
5
100
AcDbSymbolTableRecord
100
AcDbLinetypeTableRecord
  2
Continuous
 70
     0
  3
Solid line
 72
    65
 73
     0
 40
0.0
  0
ENDTAB
  0
TABLE
  2
LAYER
  5
2
330
0
100
AcDbSymbolTable
 70
     2
  0
LAYER
  5
10
330
2
100
AcDbSymbolTableRecord
100
AcDbLayerTableRecord
  2
0
 70
     0
 62
     7
  6
Continuous
370
    -3
390
F
347
3E
  0
LAYER
  5
40
330
2
100
AcDbSymbolTableRecord
100
AcDbLayerTableRecord
  2
Layer 1
 70
     0
 62
     7
  6
Continuous
370
    -3
390
F
347
3E
  0
ENDTAB
  0
TABLE
  2
STYLE
  5
3
330
0
100
AcDbSymbolTable
 70
     1
  0
STYLE
  5
11
330
3
100
AcDbSymbolTableRecord
100
AcDbTextStyleTableRecord
  2
Standard
 70
     0
 40
0.0
 41
1.0
 50
0.0
 71
     0
 42
0.2
  3
txt
  4

  0
ENDTAB
  0
TABLE
  2
VIEW
  5
6
330
0
100
AcDbSymbolTable
 70
     0
  0
ENDTAB
  0
TABLE
  2
UCS
  5
7
330
0
100
AcDbSymbolTable
 70
     0
  0
ENDTAB
  0
TABLE
  2
APPID
  5
9
330
0
100
AcDbSymbolTable
 70
     1
  0
APPID
  5
12
330
9
100
AcDbSymbolTableRecord
100
AcDbRegAppTableRecord
  2
ACAD
 70
     0
  0
ENDTAB
  0
TABLE
  2
DIMSTYLE
  5
A
330
0
100
AcDbSymbolTable
 70
     1
100
AcDbDimStyleTable
  0
DIMSTYLE
105
27
330
A
100
AcDbSymbolTableRecord
100
AcDbDimStyleTableRecord
  2
Standard
 70
     0
178
     0
340
11
  0
ENDTAB
  0
TABLE
  2
BLOCK_RECORD
  5
1
330
0
100
AcDbSymbolTable
 70
     1
  0
BLOCK_RECORD
  5
1F
330
1
100
AcDbSymbolTableRecord
100
AcDbBlockTableRecord
  2
*Model_Space
340
22
 70
     0
280
     1
281
     0
  0
BLOCK_RECORD
  5
1B
330
1
100
AcDbSymbolTableRecord
100
AcDbBlockTableRecord
  2
*Paper_Space
340
1E
 70
     0
280
     1
281
     0
  0
BLOCK_RECORD
  5
23
330
1
100
AcDbSymbolTableRecord
100
AcDbBlockTableRecord
  2
*Paper_Space0
340
26
 70
     0
280
     1
281
     0
  0
ENDTAB
  0
ENDSEC
  0
SECTION
  2
BLOCKS
  0
BLOCK
  5
20
330
1F
100
AcDbEntity
  8
0
100
AcDbBlockBegin
  2
*Model_Space
 70
     0
 10
0.0
 20
0.0
 30
0.0
  3
*Model_Space
  1

  0
ENDBLK
  5
21
330
1F
100
AcDbEntity
  8
0
100
AcDbBlockEnd
  0
BLOCK
  5
1C
330
1B
100
AcDbEntity
 67
     1
  8
0
100
AcDbBlockBegin
  2
*Paper_Space
 70
     0
 10
0.0
 20
0.0
 30
0.0
  3
*Paper_Space
  1

  0
ENDBLK
  5
1D
330
1B
100
AcDbEntity
 67
     1
  8
0
100
AcDbBlockEnd
  0
BLOCK
  5
24
330
23
100
AcDbEntity
  8
0
100
AcDbBlockBegin
  2
*Paper_Space0
 70
     0
 10
0.0
 20
0.0
 30
0.0
  3
*Paper_Space0
  1

  0
ENDBLK
  5
25
330
23
100
AcDbEntity
  8
0
100
AcDbBlockEnd
  0
ENDSEC
  0
SECTION
  2
ENTITIES
  0
SPLINE
  5
41
330
1F
100
AcDbEntity
  8
Layer 1
370
     0
100
AcDbSpline
210
0.0
220
0.0
230
1.0
 70
    11
 71
     3
 72
   182
 73
   178
 74
     0
 42
0.0000000001
 43
0.0000000001
 12
1.0
 22
0.0
 32
0.0
 13
1.0
 23
0.0
 33
0.0
 40
0.0
 40
0.0
 40
0.0
 40
0.0
 40
1.0
 40
1.0
 40
1.0
 40
2.0
 40
2.0
 40
2.0
 40
3.0
 40
3.0
 40
3.0
 40
4.0
 40
4.0
 40
4.0
 40
5.0
 40
5.0
 40
5.0
 40
6.0
 40
6.0
 40
6.0
 40
7.0
 40
7.0
 40
7.0
 40
8.0
 40
8.0
 40
8.0
 40
9.0
 40
9.0
 40
9.0
 40
10.0
 40
10.0
 40
10.0
 40
11.0
 40
11.0
 40
11.0
 40
12.0
 40
12.0
 40
12.0
 40
13.0
 40
13.0
 40
13.0
 40
14.0
 40
14.0
 40
14.0
 40
15.0
 40
15.0
 40
15.0
 40
16.0
 40
16.0
 40
16.0
 40
17.0
 40
17.0
 40
17.0
 40
18.0
 40
18.0
 40
18.0
 40
19.0
 40
19.0
 40
19.0
 40
20.0
 40
20.0
 40
20.0
 40
21.0
 40
21.0
 40
21.0
 40
22.0
 40
22.0
 40
22.0
 40
23.0
 40
23.0
 40
23.0
 40
24.0
 40
24.0
 40
24.0
 40
25.0
 40
25.0
 40
25.0
 40
26.0
 40
26.0
 40
26.0
 40
27.0
 40
27.0
 40
27.0
 40
28.0
 40
28.0
 40
28.0
 40
29.0
 40
29.0
 40
29.0
 40
30.0
 40
30.0
 40
30.0
 40
31.0
 40
31.0
 40
31.0
 40
32.0
 40
32.0
 40
32.0
 40
33.0
 40
33.0
 40
33.0
 40
34.0
 40
34.0
 40
34.0
 40
35.0
 40
35.0
 40
35.0
 40
36.0
 40
36.0
 40
36.0
 40
37.0
 40
37.0
 40
37.0
 40
38.0
 40
38.0
 40
38.0
 40
39.0
 40
39.0
 40
39.0
 40
40.0
 40
40.0
 40
40.0
 40
41.0
 40
41.0
 40
41.0
 40
42.0
 40
42.0
 40
42.0
 40
43.0
 40
43.0
 40
43.0
 40
44.0
 40
44.0
 40
44.0
 40
45.0
 40
45.0
 40
45.0
 40
46.0
 40
46.0
 40
46.0
 40
47.0
 40
47.0
 40
47.0
 40
48.0
 40
48.0
 40
48.0
 40
49.0
 40
49.0
 40
49.0
 40
50.0
 40
50.0
 40
50.0
 40
51.0
 40
51.0
 40
51.0
 40
52.0
 40
52.0
 40
52.0
 40
53.0
 40
53.0
 40
53.0
 40
54.0
 40
54.0
 40
54.0
 40
55.0
 40
55.0
 40
55.0
 40
56.0
 40
56.0
 40
56.0
 40
57.0
 40
57.0
 40
57.0
 40
58.0
 40
58.0
 40
58.0
 40
59.0
 40
59.0
 40
59.0
 40
59.0
 10
33.22123055555557
 20
-55.92205277777778
 30
0.0
 10
33.36766805555557
 20
-55.83797916666665
 30
0.0
 10
33.52736666666667
 20
-55.78265277777778
 30
0.0
 10
33.67923888888888
 20
-55.71033888888888
 30
0.0
 10
34.24108472222221
 20
-55.44288472222222
 30
0.0
 10
34.83366666666666
 20
-55.25127638888888
 30
0.0
 10
35.42066527777779
 20
-55.04819166666666
 30
0.0
 10
35.60574027777776
 20
-54.98416388888889
 30
0.0
 10
35.78837916666667
 20
-54.94385
 30
0.0
 10
35.92271527777777
 20
-54.79280833333333
 30
0.0
 10
36.13564583333333
 20
-54.55340277777778
 30
0.0
 10
36.19909444444445
 20
-54.21568333333333
 30
0.0
 10
36.28475555555554
 20
-53.91704583333333
 30
0.0
 10
36.43080833333334
 20
-53.40766111111111
 30
0.0
 10
36.63476944444444
 20
-52.9066361111111
 30
0.0
 10
36.73578611111111
 20
-52.38624861111111
 30
0.0
 10
36.78674583333332
 20
-52.12365
 30
0.0
 10
36.79440833333332
 20
-51.85378888888888
 30
0.0
 10
36.8573513888889
 20
-51.5934611111111
 30
0.0
 10
36.8803375
 20
-51.4983861111111
 30
0.0
 10
36.90023472222222
 20
-51.40295277777778
 30
0.0
 10
36.89327083333334
 20
-51.30411944444444
 30
0.0
 10
36.88454027777778
 20
-51.18004444444444
 30
0.0
 10
36.77430277777777
 20
-51.09585138888888
 30
0.0
 10
36.65310833333334
 20
-51.12085694444443
 30
0.0
 10
36.61332777777779
 20
-51.12906805555556
 30
0.0
 10
36.57659305555555
 20
-51.14503055555554
 30
0.0
 10
36.54135694444444
 20
-51.16473472222221
 30
0.0
 10
36.21870972222223
 20
-51.34514722222222
 30
0.0
 10
35.98739583333334
 20
-51.66770555555556
 30
0.0
 10
35.80842499999999
 20
-51.97676666666666
 30
0.0
 10
35.63080416666667
 20
-52.28351111111111
 30
0.0
 10
35.48108472222222
 20
-52.60130277777777
 30
0.0
 10
35.37800555555555
 20
-52.94041805555555
 30
0.0
 10
35.30462222222223
 20
-53.18184305555555
 30
0.0
 10
35.21582777777778
 20
-53.51100833333334
 30
0.0
 10
34.98017916666668
 20
-53.64628055555555
 30
0.0
 10
34.78123611111111
 20
-53.76048194444444
 30
0.0
 10
34.52753055555556
 20
-53.79454444444444
 30
0.0
 10
34.30778472222222
 20
-53.85459305555554
 30
0.0
 10
33.9635625
 20
-53.94867361111111
 30
0.0
 10
33.62630277777778
 20
-54.08709444444445
 30
0.0
 10
33.27317083333332
 20
-54.14586527777777
 30
0.0
 10
33.03774583333332
 20
-54.18505138888889
 30
0.0
 10
32.80436805555556
 20
-54.17294861111111
 30
0.0
 10
32.57401944444445
 20
-54.24741527777778
 30
0.0
 10
32.41582222222223
 20
-54.29855416666666
 30
0.0
 10
32.25441666666668
 20
-54.33959583333333
 30
0.0
 10
32.09115555555556
 20
-54.37109027777777
 30
0.0
 10
31.89066805555555
 20
-54.40974166666666
 30
0.0
 10
31.68774583333334
 20
-54.4338111111111
 30
0.0
 10
31.4840513888889
 20
-54.44618055555555
 30
0.0
 10
31.35638194444444
 20
-54.45393055555555
 30
0.0
 10
31.22841527777778
 20
-54.45709444444444
 30
0.0
 10
31.10055277777779
 20
-54.45638055555554
 30
0.0
 10
31.08818472222222
 20
-54.45632222222222
 30
0.0
 10
31.06439722222222
 20
-54.45344166666667
 30
0.0
 10
31.06344583333334
 20
-54.44433888888889
 30
0.0
 10
31.06288194444445
 20
-54.43900833333333
 30
0.0
 10
31.07514722222223
 20
-54.42714444444444
 30
0.0
 10
31.08622499999998
 20
-54.42034305555555
 30
0.0
 10
31.12961249999999
 20
-54.39380833333333
 30
0.0
 10
31.15041527777779
 20
-54.37855972222222
 30
0.0
 10
31.18033611111112
 20
-54.35477083333333
 30
0.0
 10
31.26708194444445
 20
-54.28576944444444
 30
0.0
 10
31.35786666666667
 20
-54.22180138888888
 30
0.0
 10
31.44783472222222
 20
-54.15694166666666
 30
0.0
 10
32.0387388888889
 20
-53.73100694444444
 30
0.0
 10
32.7137763888889
 20
-53.44377361111111
 30
0.0
 10
33.25948055555556
 20
-52.95375138888888
 30
0.0
 10
33.50365277777779
 20
-52.73449583333333
 30
0.0
 10
33.75060138888888
 20
-52.49284722222222
 30
0.0
 10
33.79563750000001
 20
-52.15140138888889
 30
0.0
 10
33.81982638888889
 20
-51.96807916666666
 30
0.0
 10
33.78423472222223
 20
-51.80560555555555
 30
0.0
 10
33.65788611111111
 20
-51.66678472222222
 30
0.0
 10
33.61824027777779
 20
-51.62321805555555
 30
0.0
 10
33.57133333333334
 20
-51.5920361111111
 30
0.0
 10
33.514225
 20
-51.57635555555556
 30
0.0
 10
33.38302222222223
 20
-51.54031805555555
 30
0.0
 10
33.25233888888889
 20
-51.54918333333332
 30
0.0
 10
33.1229763888889
 20
-51.58392916666667
 30
0.0
 10
32.67655000000001
 20
-51.70387638888888
 30
0.0
 10
32.28985972222222
 20
-51.9735138888889
 30
0.0
 10
31.88160972222221
 20
-52.18098055555555
 30
0.0
 10
31.46603888888889
 20
-52.39218888888889
 30
0.0
 10
31.03903472222222
 20
-52.58152361111111
 30
0.0
 10
30.59984027777778
 20
-52.73819305555556
 30
0.0
 10
29.93858333333333
 20
-52.9741236111111
 30
0.0
 10
29.26079861111111
 20
-53.20540694444445
 30
0.0
 10
28.70764027777778
 20
-53.65317083333333
 30
0.0
 10
28.47225833333333
 20
-53.84370833333333
 30
0.0
 10
28.22974861111111
 20
-54.02305138888889
 30
0.0
 10
27.96630416666667
 20
-54.17397361111111
 30
0.0
 10
27.32969444444445
 20
-54.53870277777776
 30
0.0
 10
26.90474027777778
 20
-55.14650416666667
 30
0.0
 10
26.50767083333334
 20
-55.7450111111111
 30
0.0
 10
26.08011666666667
 20
-56.38943055555556
 30
0.0
 10
25.63977916666666
 20
-57.01825833333333
 30
0.0
 10
25.03607500000001
 20
-57.51283888888889
 30
0.0
 10
24.51463333333334
 20
-57.94000555555554
 30
0.0
 10
25.58123055555556
 20
-58.79494999999999
 30
0.0
 10
25.88132222222222
 20
-59.03291527777777
 30
0.0
 10
26.41419861111111
 20
-59.45548055555554
 30
0.0
 10
27.05515694444444
 20
-59.77143055555555
 30
0.0
 10
27.74357222222222
 20
-59.80590972222222
 30
0.0
 10
27.79766666666666
 20
-59.8086125
 30
0.0
 10
27.83367500000001
 20
-59.79284305555557
 30
0.0
 10
27.86779722222223
 20
-59.75315138888888
 30
0.0
 10
28.36898611111111
 20
-59.17026666666667
 30
0.0
 10
29.129625
 20
-58.94501111111111
 30
0.0
 10
29.85994444444444
 20
-58.81279861111112
 30
0.0
 10
30.71628333333333
 20
-58.65779305555555
 30
0.0
 10
31.56989166666666
 20
-58.56589444444444
 30
0.0
 10
32.4061263888889
 20
-58.30919027777779
 30
0.0
 10
32.8824125
 20
-58.1629888888889
 30
0.0
 10
33.33203194444445
 20
-57.9229
 30
0.0
 10
33.61754305555554
 20
-57.50219166666665
 30
0.0
 10
33.94021944444444
 20
-57.02672222222223
 30
0.0
 10
34.32370277777778
 20
-56.5985888888889
 30
0.0
 10
34.7224638888889
 20
-56.19341249999999
 30
0.0
 10
34.80567638888889
 20
-56.10886388888889
 30
0.0
 10
34.88522083333333
 20
-56.02036527777778
 30
0.0
 10
34.93266250000001
 20
-55.90854027777777
 30
0.0
 10
34.9600138888889
 20
-55.84406666666667
 30
0.0
 10
34.97713472222222
 20
-55.77827222222223
 30
0.0
 10
34.96815138888888
 20
-55.70765138888888
 30
0.0
 10
34.96458750000001
 20
-55.6796625
 30
0.0
 10
34.95787638888888
 20
-55.66617916666667
 30
0.0
 10
34.9263375
 20
-55.68775416666666
 30
0.0
 10
34.77156944444444
 20
-55.79359583333333
 30
0.0
 10
34.61332638888889
 20
-55.8944486111111
 30
0.0
 10
34.46022083333332
 20
-56.00260694444444
 30
0.0
 10
34.169425
 20
-56.2080236111111
 30
0.0
 10
33.88991249999999
 20
-56.42866111111112
 30
0.0
 10
33.60699999999999
 20
-56.64465000000001
 30
0.0
 10
33.59504722222222
 20
-56.65378194444444
 30
0.0
 10
33.58180138888888
 20
-56.66218611111111
 30
0.0
 10
33.56784444444444
 20
-56.66742777777777
 30
0.0
 10
33.5546138888889
 20
-56.67240138888888
 30
0.0
 10
33.54145833333334
 20
-56.66778333333334
 30
0.0
 10
33.53259305555555
 20
-56.65525138888887
 30
0.0
 10
33.52337222222223
 20
-56.6421847222222
 30
0.0
 10
33.5258513888889
 20
-56.62934027777777
 30
0.0
 10
33.53557777777776
 20
-56.61859027777778
 30
0.0
 10
33.54447222222221
 20
-56.60873055555554
 30
0.0
 10
33.55491111111112
 20
-56.60005972222221
 30
0.0
 10
33.56552777777776
 20
-56.59199583333333
 30
0.0
 10
33.81067916666666
 20
-56.40571944444443
 30
0.0
 10
34.05247638888888
 20
-56.21500277777778
 30
0.0
 10
34.30175555555554
 20
-56.03423472222223
 30
0.0
 10
34.53988472222222
 20
-55.86155833333333
 30
0.0
 10
34.79114027777779
 20
-55.708825
 30
0.0
 10
35.02585277777777
 20
-55.53114583333333
 30
0.0
 10
35.17272222222222
 20
-55.41997361111112
 30
0.0
 10
35.33228611111112
 20
-55.3088013888889
 30
0.0
 10
35.42745138888888
 20
-55.14690555555555
 30
0.0
 10
35.43220277777777
 20
-55.13882777777778
 30
0.0
 10
35.44048888888889
 20
-55.1256125
 30
0.0
 10
35.43762222222222
 20
-55.12167777777778
 30
0.0
 10
35.42953055555555
 20
-55.11052638888888
 30
0.0
 10
35.41739861111111
 20
-55.11916805555555
 30
0.0
 10
35.40695972222223
 20
-55.12259861111112
 30
0.0
 10
35.3978875
 20
-55.12558194444444
 30
0.0
 10
35.38851805555555
 20
-55.127825
 30
0.0
 10
35.37966805555556
 20
-55.13138888888889
 30
0.0
 10
35.02934305555555
 20
-55.27264444444444
 30
0.0
 10
34.66407916666667
 20
-55.37576805555555
 30
0.0
 10
34.31091805555555
 20
-55.51013472222222
 30
0.0
 10
33.94923333333334
 20
-55.64775277777777
 30
0.0
 10
33.59405138888888
 20
-55.80329305555556
 30
0.0
 10
33.25054166666668
 20
-55.98166944444445
 30
0.0
 10
33.22522500000001
 20
-55.99484027777778
 30
0.0
 10
33.19376111111112
 20
-56.01325277777778
 30
0.0
 10
33.17723333333333
 20
-55.97495833333333
 30
0.0
 10
33.16125694444445
 20
-55.93794027777777
 30
0.0
 10
33.19926944444445
 20
-55.93464444444445
 30
0.0
 10
33.22123055555557
 20
-55.92205277777778
 30
0.0
  0
SPLINE
  5
42
330
1F
100
AcDbEntity
  8
Layer 1
370
     0
100
AcDbSpline
210
0.0
220
0.0
230
1.0
 70
    11
 71
     3
 72
    41
 73
    37
 74
     0
 42
0.0000000001
 43
0.0000000001
 12
1.0
 22
0.0
 32
0.0
 13
1.0
 23
0.0
 33
0.0
 40
0.0
 40
0.0
 40
0.0
 40
0.0
 40
1.0
 40
1.0
 40
1.0
 40
2.0
 40
2.0
 40
2.0
 40
3.0
 40
3.0
 40
3.0
 40
4.0
 40
4.0
 40
4.0
 40
5.0
 40
5.0
 40
5.0
 40
6.0
 40
6.0
 40
6.0
 40
7.0
 40
7.0
 40
7.0
 40
8.0
 40
8.0
 40
8.0
 40
9.0
 40
9.0
 40
9.0
 40
10.0
 40
10.0
 40
10.0
 40
11.0
 40
11.0
 40
11.0
 40
12.0
 40
12.0
 40
12.0
 40
12.0
 10
33.20791111111112
 20
-56.61141805555555
 30
0.0
 10
33.2380986111111
 20
-56.62980138888889
 30
0.0
 10
33.22189861111112
 20
-56.65394444444445
 30
0.0
 10
33.20828194444445
 20
-56.67552083333332
 30
0.0
 10
33.2041986111111
 20
-56.68196388888888
 30
0.0
 10
33.19959583333333
 20
-56.68812638888888
 30
0.0
 10
33.19572083333333
 20
-56.69469027777778
 30
0.0
 10
33.01621388888889
 20
-57.00070694444445
 30
0.0
 10
32.74280555555556
 20
-57.17116944444445
 30
0.0
 10
32.40317083333333
 20
-57.25009027777779
 30
0.0
 10
32.2582625
 20
-57.28375277777779
 30
0.0
 10
32.11051805555555
 20
-57.30666388888891
 30
0.0
 10
31.96967777777778
 20
-57.35707638888887
 30
0.0
 10
31.96253611111112
 20
-57.35962916666666
 30
0.0
 10
31.95487361111112
 20
-57.36081805555555
 30
0.0
 10
31.94783472222222
 20
-57.36255555555557
 30
0.0
 10
31.93105694444444
 20
-57.36153055555554
 30
0.0
 10
31.9167861111111
 20
-57.35674861111112
 30
0.0
 10
31.91254027777778
 20
-57.3387972222222
 30
0.0
 10
31.90703055555556
 20
-57.315425
 30
0.0
 10
31.91993472222222
 20
-57.30194305555553
 30
0.0
 10
31.94029166666665
 20
-57.29595833333332
 30
0.0
 10
32.00439444444444
 20
-57.27713055555556
 30
0.0
 10
32.06818472222223
 20
-57.2566986111111
 30
0.0
 10
32.13320694444446
 20
-57.24171666666666
 30
0.0
 10
32.2634
 20
-57.2116625
 30
0.0
 10
32.39326666666665
 20
-57.18143055555555
 30
0.0
 10
32.52190138888889
 20
-57.14442777777779
 30
0.0
 10
32.79382499999999
 20
-57.06619027777777
 30
0.0
 10
32.99149166666666
 20
-56.89722638888889
 30
0.0
 10
33.13791388888889
 20
-56.66105694444445
 30
0.0
 10
33.14294861111109
 20
-56.65293472222222
 30
0.0
 10
33.14850138888889
 20
-56.64514027777778
 30
0.0
 10
33.15349027777779
 20
-56.6369875
 30
0.0
 10
33.16614166666666
 20
-56.61633333333333
 30
0.0
 10
33.18167361111111
 20
-56.5954111111111
 30
0.0
 10
33.20791111111112
 20
-56.61141805555555
 30
0.0
  0
HATCH
  5
43
330
1F
100
AcDbEntity
  8
Layer 1
 62
     7
420
 16777215
100
AcDbHatch
 10
0.0
 20
0.0
 30
0.0
210
0.0
220
0.0
230
1.0
  2
SOLID
 70
     1
 71
     0
 91
        2
 92
        1
 93
        1
 72
     4
 94
        3
 73
     0
 74
     1
 95
      182
 96
      178
 40
0.0
 40
0.0
 40
0.0
 40
0.0
 40
1.0
 40
1.0
 40
1.0
 40
2.0
 40
2.0
 40
2.0
 40
3.0
 40
3.0
 40
3.0
 40
4.0
 40
4.0
 40
4.0
 40
5.0
 40
5.0
 40
5.0
 40
6.0
 40
6.0
 40
6.0
 40
7.0
 40
7.0
 40
7.0
 40
8.0
 40
8.0
 40
8.0
 40
9.0
 40
9.0
 40
9.0
 40
10.0
 40
10.0
 40
10.0
 40
11.0
 40
11.0
 40
11.0
 40
12.0
 40
12.0
 40
12.0
 40
13.0
 40
13.0
 40
13.0
 40
14.0
 40
14.0
 40
14.0
 40
15.0
 40
15.0
 40
15.0
 40
16.0
 40
16.0
 40
16.0
 40
17.0
 40
17.0
 40
17.0
 40
18.0
 40
18.0
 40
18.0
 40
19.0
 40
19.0
 40
19.0
 40
20.0
 40
20.0
 40
20.0
 40
21.0
 40
21.0
 40
21.0
 40
22.0
 40
22.0
 40
22.0
 40
23.0
 40
23.0
 40
23.0
 40
24.0
 40
24.0
 40
24.0
 40
25.0
 40
25.0
 40
25.0
 40
26.0
 40
26.0
 40
26.0
 40
27.0
 40
27.0
 40
27.0
 40
28.0
 40
28.0
 40
28.0
 40
29.0
 40
29.0
 40
29.0
 40
30.0
 40
30.0
 40
30.0
 40
31.0
 40
31.0
 40
31.0
 40
32.0
 40
32.0
 40
32.0
 40
33.0
 40
33.0
 40
33.0
 40
34.0
 40
34.0
 40
34.0
 40
35.0
 40
35.0
 40
35.0
 40
36.0
 40
36.0
 40
36.0
 40
37.0
 40
37.0
 40
37.0
 40
38.0
 40
38.0
 40
38.0
 40
39.0
 40
39.0
 40
39.0
 40
40.0
 40
40.0
 40
40.0
 40
41.0
 40
41.0
 40
41.0
 40
42.0
 40
42.0
 40
42.0
 40
43.0
 40
43.0
 40
43.0
 40
44.0
 40
44.0
 40
44.0
 40
45.0
 40
45.0
 40
45.0
 40
46.0
 40
46.0
 40
46.0
 40
47.0
 40
47.0
 40
47.0
 40
48.0
 40
48.0
 40
48.0
 40
49.0
 40
49.0
 40
49.0
 40
50.0
 40
50.0
 40
50.0
 40
51.0
 40
51.0
 40
51.0
 40
52.0
 40
52.0
 40
52.0
 40
53.0
 40
53.0
 40
53.0
 40
54.0
 40
54.0
 40
54.0
 40
55.0
 40
55.0
 40
55.0
 40
56.0
 40
56.0
 40
56.0
 40
57.0
 40
57.0
 40
57.0
 40
58.0
 40
58.0
 40
58.0
 40
59.0
 40
59.0
 40
59.0
 40
59.0
 10
33.22123055555557
 20
-55.92205277777778
 10
33.36766805555557
 20
-55.83797916666665
 10
33.52736666666667
 20
-55.78265277777778
 10
33.67923888888888
 20
-55.71033888888888
 10
34.24108472222221
 20
-55.44288472222222
 10
34.83366666666666
 20
-55.25127638888888
 10
35.42066527777779
 20
-55.04819166666666
 10
35.60574027777776
 20
-54.98416388888889
 10
35.78837916666667
 20
-54.94385
 10
35.92271527777777
 20
-54.79280833333333
 10
36.13564583333333
 20
-54.55340277777778
 10
36.19909444444445
 20
-54.21568333333333
 10
36.28475555555554
 20
-53.91704583333333
 10
36.43080833333334
 20
-53.40766111111111
 10
36.63476944444444
 20
-52.9066361111111
 10
36.73578611111111
 20
-52.38624861111111
 10
36.78674583333332
 20
-52.12365
 10
36.79440833333332
 20
-51.85378888888888
 10
36.8573513888889
 20
-51.5934611111111
 10
36.8803375
 20
-51.4983861111111
 10
36.90023472222222
 20
-51.40295277777778
 10
36.89327083333334
 20
-51.30411944444444
 10
36.88454027777778
 20
-51.18004444444444
 10
36.77430277777777
 20
-51.09585138888888
 10
36.65310833333334
 20
-51.12085694444443
 10
36.61332777777779
 20
-51.12906805555556
 10
36.57659305555555
 20
-51.14503055555554
 10
36.54135694444444
 20
-51.16473472222221
 10
36.21870972222223
 20
-51.34514722222222
 10
35.98739583333334
 20
-51.66770555555556
 10
35.80842499999999
 20
-51.97676666666666
 10
35.63080416666667
 20
-52.28351111111111
 10
35.48108472222222
 20
-52.60130277777777
 10
35.37800555555555
 20
-52.94041805555555
 10
35.30462222222223
 20
-53.18184305555555
 10
35.21582777777778
 20
-53.51100833333334
 10
34.98017916666668
 20
-53.64628055555555
 10
34.78123611111111
 20
-53.76048194444444
 10
34.52753055555556
 20
-53.79454444444444
 10
34.30778472222222
 20
-53.85459305555554
 10
33.9635625
 20
-53.94867361111111
 10
33.62630277777778
 20
-54.08709444444445
 10
33.27317083333332
 20
-54.14586527777777
 10
33.03774583333332
 20
-54.18505138888889
 10
32.80436805555556
 20
-54.17294861111111
 10
32.57401944444445
 20
-54.24741527777778
 10
32.41582222222223
 20
-54.29855416666666
 10
32.25441666666668
 20
-54.33959583333333
 10
32.09115555555556
 20
-54.37109027777777
 10
31.89066805555555
 20
-54.40974166666666
 10
31.68774583333334
 20
-54.4338111111111
 10
31.4840513888889
 20
-54.44618055555555
 10
31.35638194444444
 20
-54.45393055555555
 10
31.22841527777778
 20
-54.45709444444444
 10
31.10055277777779
 20
-54.45638055555554
 10
31.08818472222222
 20
-54.45632222222222
 10
31.06439722222222
 20
-54.45344166666667
 10
31.06344583333334
 20
-54.44433888888889
 10
31.06288194444445
 20
-54.43900833333333
 10
31.07514722222223
 20
-54.42714444444444
 10
31.08622499999998
 20
-54.42034305555555
 10
31.12961249999999
 20
-54.39380833333333
 10
31.15041527777779
 20
-54.37855972222222
 10
31.18033611111112
 20
-54.35477083333333
 10
31.26708194444445
 20
-54.28576944444444
 10
31.35786666666667
 20
-54.22180138888888
 10
31.44783472222222
 20
-54.15694166666666
 10
32.0387388888889
 20
-53.73100694444444
 10
32.7137763888889
 20
-53.44377361111111
 10
33.25948055555556
 20
-52.95375138888888
 10
33.50365277777779
 20
-52.73449583333333
 10
33.75060138888888
 20
-52.49284722222222
 10
33.79563750000001
 20
-52.15140138888889
 10
33.81982638888889
 20
-51.96807916666666
 10
33.78423472222223
 20
-51.80560555555555
 10
33.65788611111111
 20
-51.66678472222222
 10
33.61824027777779
 20
-51.62321805555555
 10
33.57133333333334
 20
-51.5920361111111
 10
33.514225
 20
-51.57635555555556
 10
33.38302222222223
 20
-51.54031805555555
 10
33.25233888888889
 20
-51.54918333333332
 10
33.1229763888889
 20
-51.58392916666667
 10
32.67655000000001
 20
-51.70387638888888
 10
32.28985972222222
 20
-51.9735138888889
 10
31.88160972222221
 20
-52.18098055555555
 10
31.46603888888889
 20
-52.39218888888889
 10
31.03903472222222
 20
-52.58152361111111
 10
30.59984027777778
 20
-52.73819305555556
 10
29.93858333333333
 20
-52.9741236111111
 10
29.26079861111111
 20
-53.20540694444445
 10
28.70764027777778
 20
-53.65317083333333
 10
28.47225833333333
 20
-53.84370833333333
 10
28.22974861111111
 20
-54.02305138888889
 10
27.96630416666667
 20
-54.17397361111111
 10
27.32969444444445
 20
-54.53870277777776
 10
26.90474027777778
 20
-55.14650416666667
 10
26.50767083333334
 20
-55.7450111111111
 10
26.08011666666667
 20
-56.38943055555556
 10
25.63977916666666
 20
-57.01825833333333
 10
25.03607500000001
 20
-57.51283888888889
 10
24.51463333333334
 20
-57.94000555555554
 10
25.58123055555556
 20
-58.79494999999999
 10
25.88132222222222
 20
-59.03291527777777
 10
26.41419861111111
 20
-59.45548055555554
 10
27.05515694444444
 20
-59.77143055555555
 10
27.74357222222222
 20
-59.80590972222222
 10
27.79766666666666
 20
-59.8086125
 10
27.83367500000001
 20
-59.79284305555557
 10
27.86779722222223
 20
-59.75315138888888
 10
28.36898611111111
 20
-59.17026666666667
 10
29.129625
 20
-58.94501111111111
 10
29.85994444444444
 20
-58.81279861111112
 10
30.71628333333333
 20
-58.65779305555555
 10
31.56989166666666
 20
-58.56589444444444
 10
32.4061263888889
 20
-58.30919027777779
 10
32.8824125
 20
-58.1629888888889
 10
33.33203194444445
 20
-57.9229
 10
33.61754305555554
 20
-57.50219166666665
 10
33.94021944444444
 20
-57.02672222222223
 10
34.32370277777778
 20
-56.5985888888889
 10
34.7224638888889
 20
-56.19341249999999
 10
34.80567638888889
 20
-56.10886388888889
 10
34.88522083333333
 20
-56.02036527777778
 10
34.93266250000001
 20
-55.90854027777777
 10
34.9600138888889
 20
-55.84406666666667
 10
34.97713472222222
 20
-55.77827222222223
 10
34.96815138888888
 20
-55.70765138888888
 10
34.96458750000001
 20
-55.6796625
 10
34.95787638888888
 20
-55.66617916666667
 10
34.9263375
 20
-55.68775416666666
 10
34.77156944444444
 20
-55.79359583333333
 10
34.61332638888889
 20
-55.8944486111111
 10
34.46022083333332
 20
-56.00260694444444
 10
34.169425
 20
-56.2080236111111
 10
33.88991249999999
 20
-56.42866111111112
 10
33.60699999999999
 20
-56.64465000000001
 10
33.59504722222222
 20
-56.65378194444444
 10
33.58180138888888
 20
-56.66218611111111
 10
33.56784444444444
 20
-56.66742777777777
 10
33.5546138888889
 20
-56.67240138888888
 10
33.54145833333334
 20
-56.66778333333334
 10
33.53259305555555
 20
-56.65525138888887
 10
33.52337222222223
 20
-56.6421847222222
 10
33.5258513888889
 20
-56.62934027777777
 10
33.53557777777776
 20
-56.61859027777778
 10
33.54447222222221
 20
-56.60873055555554
 10
33.55491111111112
 20
-56.60005972222221
 10
33.56552777777776
 20
-56.59199583333333
 10
33.81067916666666
 20
-56.40571944444443
 10
34.05247638888888
 20
-56.21500277777778
 10
34.30175555555554
 20
-56.03423472222223
 10
34.53988472222222
 20
-55.86155833333333
 10
34.79114027777779
 20
-55.708825
 10
35.02585277777777
 20
-55.53114583333333
 10
35.17272222222222
 20
-55.41997361111112
 10
35.33228611111112
 20
-55.3088013888889
 10
35.42745138888888
 20
-55.14690555555555
 10
35.43220277777777
 20
-55.13882777777778
 10
35.44048888888889
 20
-55.1256125
 10
35.43762222222222
 20
-55.12167777777778
 10
35.42953055555555
 20
-55.11052638888888
 10
35.41739861111111
 20
-55.11916805555555
 10
35.40695972222223
 20
-55.12259861111112
 10
35.3978875
 20
-55.12558194444444
 10
35.38851805555555
 20
-55.127825
 10
35.37966805555556
 20
-55.13138888888889
 10
35.02934305555555
 20
-55.27264444444444
 10
34.66407916666667
 20
-55.37576805555555
 10
34.31091805555555
 20
-55.51013472222222
 10
33.94923333333334
 20
-55.64775277777777
 10
33.59405138888888
 20
-55.80329305555556
 10
33.25054166666668
 20
-55.98166944444445
 10
33.22522500000001
 20
-55.99484027777778
 10
33.19376111111112
 20
-56.01325277777778
 10
33.17723333333333
 20
-55.97495833333333
 10
33.16125694444445
 20
-55.93794027777777
 10
33.19926944444445
 20
-55.93464444444445
 10
33.22123055555557
 20
-55.92205277777778
 97
        0
 97
        0
 92
        1
 93
        1
 72
     4
 94
        3
 73
     0
 74
     1
 95
       41
 96
       37
 40
0.0
 40
0.0
 40
0.0
 40
0.0
 40
1.0
 40
1.0
 40
1.0
 40
2.0
 40
2.0
 40
2.0
 40
3.0
 40
3.0
 40
3.0
 40
4.0
 40
4.0
 40
4.0
 40
5.0
 40
5.0
 40
5.0
 40
6.0
 40
6.0
 40
6.0
 40
7.0
 40
7.0
 40
7.0
 40
8.0
 40
8.0
 40
8.0
 40
9.0
 40
9.0
 40
9.0
 40
10.0
 40
10.0
 40
10.0
 40
11.0
 40
11.0
 40
11.0
 40
12.0
 40
12.0
 40
12.0
 40
12.0
 10
33.20791111111112
 20
-56.61141805555555
 10
33.2380986111111
 20
-56.62980138888889
 10
33.22189861111112
 20
-56.65394444444445
 10
33.20828194444445
 20
-56.67552083333332
 10
33.2041986111111
 20
-56.68196388888888
 10
33.19959583333333
 20
-56.68812638888888
 10
33.19572083333333
 20
-56.69469027777778
 10
33.01621388888889
 20
-57.00070694444445
 10
32.74280555555556
 20
-57.17116944444445
 10
32.40317083333333
 20
-57.25009027777779
 10
32.2582625
 20
-57.28375277777779
 10
32.11051805555555
 20
-57.30666388888891
 10
31.96967777777778
 20
-57.35707638888887
 10
31.96253611111112
 20
-57.35962916666666
 10
31.95487361111112
 20
-57.36081805555555
 10
31.94783472222222
 20
-57.36255555555557
 10
31.93105694444444
 20
-57.36153055555554
 10
31.9167861111111
 20
-57.35674861111112
 10
31.91254027777778
 20
-57.3387972222222
 10
31.90703055555556
 20
-57.315425
 10
31.91993472222222
 20
-57.30194305555553
 10
31.94029166666665
 20
-57.29595833333332
 10
32.00439444444444
 20
-57.27713055555556
 10
32.06818472222223
 20
-57.2566986111111
 10
32.13320694444446
 20
-57.24171666666666
 10
32.2634
 20
-57.2116625
 10
32.39326666666665
 20
-57.18143055555555
 10
32.52190138888889
 20
-57.14442777777779
 10
32.79382499999999
 20
-57.06619027777777
 10
32.99149166666666
 20
-56.89722638888889
 10
33.13791388888889
 20
-56.66105694444445
 10
33.14294861111109
 20
-56.65293472222222
 10
33.14850138888889
 20
-56.64514027777778
 10
33.15349027777779
 20
-56.6369875
 10
33.16614166666666
 20
-56.61633333333333
 10
33.18167361111111
 20
-56.5954111111111
 10
33.20791111111112
 20
-56.61141805555555
 97
        0
 97
        0
 75
     2
 76
     1
 98
        0
  0
SPLINE
  5
44
330
1F
100
AcDbEntity
  8
Layer 1
370
     0
100
AcDbSpline
210
0.0
220
0.0
230
1.0
 70
    11
 71
     3
 72
    53
 73
    49
 74
     0
 42
0.0000000001
 43
0.0000000001
 12
1.0
 22
0.0
 32
0.0
 13
1.0
 23
0.0
 33
0.0
 40
0.0
 40
0.0
 40
0.0
 40
0.0
 40
1.0
 40
1.0
 40
1.0
 40
2.0
 40
2.0
 40
2.0
 40
3.0
 40
3.0
 40
3.0
 40
4.0
 40
4.0
 40
4.0
 40
5.0
 40
5.0
 40
5.0
 40
6.0
 40
6.0
 40
6.0
 40
7.0
 40
7.0
 40
7.0
 40
8.0
 40
8.0
 40
8.0
 40
9.0
 40
9.0
 40
9.0
 40
10.0
 40
10.0
 40
10.0
 40
11.0
 40
11.0
 40
11.0
 40
12.0
 40
12.0
 40
12.0
 40
13.0
 40
13.0
 40
13.0
 40
14.0
 40
14.0
 40
14.0
 40
15.0
 40
15.0
 40
15.0
 40
16.0
 40
16.0
 40
16.0
 40
16.0
 10
34.35587916666668
 20
-53.44715972222222
 30
0.0
 10
34.35786944444445
 20
-53.54104722222222
 30
0.0
 10
34.37527222222221
 20
-53.63345138888889
 30
0.0
 10
34.38661666666667
 20
-53.72646388888889
 30
0.0
 10
34.38973472222223
 20
-53.75201805555555
 30
0.0
 10
34.39503611111111
 20
-53.76936111111111
 30
0.0
 10
34.42930694444443
 20
-53.76019999999999
 30
0.0
 10
34.57523888888888
 20
-53.72126666666666
 30
0.0
 10
34.7200736111111
 20
-53.67851666666666
 30
0.0
 10
34.86253194444445
 20
-53.6287
 30
0.0
 10
34.96942777777778
 20
-53.5913111111111
 30
0.0
 10
35.04900277777779
 20
-53.52189305555556
 30
0.0
 10
35.09841944444444
 20
-53.41587361111111
 30
0.0
 10
35.16397638888889
 20
-53.2753
 30
0.0
 10
35.21605
 20
-53.12939722222222
 30
0.0
 10
35.27670694444443
 20
-52.98693888888889
 30
0.0
 10
35.28770972222221
 20
-52.96110138888889
 30
0.0
 10
35.28900138888889
 20
-52.9339875
 30
0.0
 10
35.2807763888889
 20
-52.90815138888888
 30
0.0
 10
35.24254027777778
 20
-52.78800972222221
 30
0.0
 10
35.21316944444445
 20
-52.66319166666666
 30
0.0
 10
35.13908888888889
 20
-52.5586875
 30
0.0
 10
34.99643750000001
 20
-52.35748749999999
 30
0.0
 10
34.84897500000001
 20
-52.15968749999999
 30
0.0
 10
34.70492777777778
 20
-51.95943749999999
 30
0.0
 10
34.62868055555555
 20
-51.85343333333334
 30
0.0
 10
34.54591388888889
 20
-51.75369444444443
 30
0.0
 10
34.44636805555554
 20
-51.66862638888888
 30
0.0
 10
34.39132361111112
 20
-51.62159999999999
 30
0.0
 10
34.33035416666667
 20
-51.58767083333333
 30
0.0
 10
34.24484027777778
 20
-51.58380972222221
 30
0.0
 10
34.24068333333334
 20
-51.58429999999999
 30
0.0
 10
34.22540416666667
 20
-51.58533888888888
 30
0.0
 10
34.21040694444443
 20
-51.5879375
 30
0.0
 10
34.03222222222222
 20
-51.61873472222221
 30
0.0
 10
33.90694444444446
 20
-51.7384736111111
 30
0.0
 10
33.8698513888889
 20
-51.915975
 30
0.0
 10
33.83813472222222
 20
-52.06778888888888
 30
0.0
 10
33.85691805555555
 20
-52.21811666666667
 30
0.0
 10
33.90048472222222
 20
-52.36373888888888
 30
0.0
 10
33.97183333333333
 20
-52.60228333333333
 30
0.0
 10
34.09048888888888
 20
-52.81819722222222
 30
0.0
 10
34.23640694444445
 20
-53.01930833333333
 30
0.0
 10
34.28518472222223
 20
-53.08652916666667
 30
0.0
 10
34.32728055555556
 20
-53.15642222222221
 30
0.0
 10
34.33604166666666
 20
-53.2416236111111
 30
0.0
 10
34.34308055555557
 20
-53.31009027777777
 30
0.0
 10
34.35440972222222
 20
-53.37800833333333
 30
0.0
 10
34.35587916666668
 20
-53.44715972222222
 30
0.0
  0
HATCH
  5
45
330
1F
100
AcDbEntity
  8
Layer 1
 62
     7
420
 16777215
100
AcDbHatch
 10
0.0
 20
0.0
 30
0.0
210
0.0
220
0.0
230
1.0
  2
SOLID
 70
     1
 71
     0
 91
        1
 92
        1
 93
        1
 72
     4
 94
        3
 73
     0
 74
     1
 95
       53
 96
       49
 40
0.0
 40
0.0
 40
0.0
 40
0.0
 40
1.0
 40
1.0
 40
1.0
 40
2.0
 40
2.0
 40
2.0
 40
3.0
 40
3.0
 40
3.0
 40
4.0
 40
4.0
 40
4.0
 40
5.0
 40
5.0
 40
5.0
 40
6.0
 40
6.0
 40
6.0
 40
7.0
 40
7.0
 40
7.0
 40
8.0
 40
8.0
 40
8.0
 40
9.0
 40
9.0
 40
9.0
 40
10.0
 40
10.0
 40
10.0
 40
11.0
 40
11.0
 40
11.0
 40
12.0
 40
12.0
 40
12.0
 40
13.0
 40
13.0
 40
13.0
 40
14.0
 40
14.0
 40
14.0
 40
15.0
 40
15.0
 40
15.0
 40
16.0
 40
16.0
 40
16.0
 40
16.0
 10
34.35587916666668
 20
-53.44715972222222
 10
34.35786944444445
 20
-53.54104722222222
 10
34.37527222222221
 20
-53.63345138888889
 10
34.38661666666667
 20
-53.72646388888889
 10
34.38973472222223
 20
-53.75201805555555
 10
34.39503611111111
 20
-53.76936111111111
 10
34.42930694444443
 20
-53.76019999999999
 10
34.57523888888888
 20
-53.72126666666666
 10
34.7200736111111
 20
-53.67851666666666
 10
34.86253194444445
 20
-53.6287
 10
34.96942777777778
 20
-53.5913111111111
 10
35.04900277777779
 20
-53.52189305555556
 10
35.09841944444444
 20
-53.41587361111111
 10
35.16397638888889
 20
-53.2753
 10
35.21605
 20
-53.12939722222222
 10
35.27670694444443
 20
-52.98693888888889
 10
35.28770972222221
 20
-52.96110138888889
 10
35.28900138888889
 20
-52.9339875
 10
35.2807763888889
 20
-52.90815138888888
 10
35.24254027777778
 20
-52.78800972222221
 10
35.21316944444445
 20
-52.66319166666666
 10
35.13908888888889
 20
-52.5586875
 10
34.99643750000001
 20
-52.35748749999999
 10
34.84897500000001
 20
-52.15968749999999
 10
34.70492777777778
 20
-51.95943749999999
 10
34.62868055555555
 20
-51.85343333333334
 10
34.54591388888889
 20
-51.75369444444443
 10
34.44636805555554
 20
-51.66862638888888
 10
34.39132361111112
 20
-51.62159999999999
 10
34.33035416666667
 20
-51.58767083333333
 10
34.24484027777778
 20
-51.58380972222221
 10
34.24068333333334
 20
-51.58429999999999
 10
34.22540416666667
 20
-51.58533888888888
 10
34.21040694444443
 20
-51.5879375
 10
34.03222222222222
 20
-51.61873472222221
 10
33.90694444444446
 20
-51.7384736111111
 10
33.8698513888889
 20
-51.915975
 10
33.83813472222222
 20
-52.06778888888888
 10
33.85691805555555
 20
-52.21811666666667
 10
33.90048472222222
 20
-52.36373888888888
 10
33.97183333333333
 20
-52.60228333333333
 10
34.09048888888888
 20
-52.81819722222222
 10
34.23640694444445
 20
-53.01930833333333
 10
34.28518472222223
 20
-53.08652916666667
 10
34.32728055555556
 20
-53.15642222222221
 10
34.33604166666666
 20
-53.2416236111111
 10
34.34308055555557
 20
-53.31009027777777
 10
34.35440972222222
 20
-53.37800833333333
 10
34.35587916666668
 20
-53.44715972222222
 97
        0
 97
        0
 75
     2
 76
     1
 98
        0
  0
SPLINE
  5
46
330
1F
100
AcDbEntity
  8
Layer 1
370
     0
100
AcDbSpline
210
0.0
220
0.0
230
1.0
 70
    11
 71
     3
 72
    44
 73
    40
 74
     0
 42
0.0000000001
 43
0.0000000001
 12
1.0
 22
0.0
 32
0.0
 13
1.0
 23
0.0
 33
0.0
 40
0.0
 40
0.0
 40
0.0
 40
0.0
 40
1.0
 40
1.0
 40
1.0
 40
2.0
 40
2.0
 40
2.0
 40
3.0
 40
3.0
 40
3.0
 40
4.0
 40
4.0
 40
4.0
 40
5.0
 40
5.0
 40
5.0
 40
6.0
 40
6.0
 40
6.0
 40
7.0
 40
7.0
 40
7.0
 40
8.0
 40
8.0
 40
8.0
 40
9.0
 40
9.0
 40
9.0
 40
10.0
 40
10.0
 40
10.0
 40
11.0
 40
11.0
 40
11.0
 40
12.0
 40
12.0
 40
12.0
 40
13.0
 40
13.0
 40
13.0
 40
13.0
 10
34.24289583333332
 20
-53.36014583333333
 30
0.0
 10
34.12507083333334
 20
-53.28521944444444
 30
0.0
 10
34.00733611111112
 20
-53.20993611111112
 30
0.0
 10
33.89246666666665
 20
-53.13056944444444
 30
0.0
 10
33.76966805555556
 20
-53.045725
 30
0.0
 10
33.65163472222222
 20
-52.95415277777778
 30
0.0
 10
33.53811666666666
 20
-52.85711666666667
 30
0.0
 10
33.5147152777778
 20
-52.83711527777778
 30
0.0
 10
33.50132222222221
 20
-52.83567499999999
 30
0.0
 10
33.47701388888888
 20
-52.85742777777778
 30
0.0
 10
33.4129125
 20
-52.91475833333334
 30
0.0
 10
33.34520277777779
 20
-52.96810972222222
 30
0.0
 10
33.27878472222223
 20
-53.02284305555555
 30
0.0
 10
33.09436388888889
 20
-53.17483333333332
 30
0.0
 10
32.91923750000001
 20
-53.33907499999999
 30
0.0
 10
32.71126666666666
 20
-53.46016666666666
 30
0.0
 10
32.66980972222223
 20
-53.4843111111111
 30
0.0
 10
32.69331527777778
 20
-53.50045138888888
 30
0.0
 10
32.71071666666666
 20
-53.51969444444444
 30
0.0
 10
32.89225694444445
 20
-53.72059861111111
 30
0.0
 10
33.09314583333334
 20
-53.90005972222222
 30
0.0
 10
33.31009999999999
 20
-54.0619111111111
 30
0.0
 10
33.33464444444444
 20
-54.08021944444443
 30
0.0
 10
33.35535833333334
 20
-54.08228333333333
 30
0.0
 10
33.38358611111109
 20
-54.07065694444444
 30
0.0
 10
33.52159027777778
 20
-54.0138
 30
0.0
 10
33.66655833333334
 20
-53.97754027777778
 30
0.0
 10
33.80788750000001
 20
-53.93035138888889
 30
0.0
 10
33.96743750000001
 20
-53.87708888888889
 30
0.0
 10
34.12971944444444
 20
-53.83237916666667
 30
0.0
 10
34.29347083333333
 20
-53.79347499999999
 30
0.0
 10
34.30967083333333
 20
-53.78961527777778
 30
0.0
 10
34.32974583333334
 20
-53.7887986111111
 30
0.0
 10
34.32481666666667
 20
-53.76308055555556
 30
0.0
 10
34.30727916666665
 20
-53.65536805555555
 30
0.0
 10
34.29168888888888
 20
-53.54734305555555
 30
0.0
 10
34.28895694444446
 20
-53.43816111111111
 30
0.0
 10
34.28803611111112
 20
-53.40139583333332
 30
0.0
 10
34.27343888888888
 20
-53.37958333333333
 30
0.0
 10
34.24289583333332
 20
-53.36014583333333
 30
0.0
  0
HATCH
  5
47
330
1F
100
AcDbEntity
  8
Layer 1
 62
     7
420
 16777215
100
AcDbHatch
 10
0.0
 20
0.0
 30
0.0
210
0.0
220
0.0
230
1.0
  2
SOLID
 70
     1
 71
     0
 91
        1
 92
        1
 93
        1
 72
     4
 94
        3
 73
     0
 74
     1
 95
       44
 96
       40
 40
0.0
 40
0.0
 40
0.0
 40
0.0
 40
1.0
 40
1.0
 40
1.0
 40
2.0
 40
2.0
 40
2.0
 40
3.0
 40
3.0
 40
3.0
 40
4.0
 40
4.0
 40
4.0
 40
5.0
 40
5.0
 40
5.0
 40
6.0
 40
6.0
 40
6.0
 40
7.0
 40
7.0
 40
7.0
 40
8.0
 40
8.0
 40
8.0
 40
9.0
 40
9.0
 40
9.0
 40
10.0
 40
10.0
 40
10.0
 40
11.0
 40
11.0
 40
11.0
 40
12.0
 40
12.0
 40
12.0
 40
13.0
 40
13.0
 40
13.0
 40
13.0
 10
34.24289583333332
 20
-53.36014583333333
 10
34.12507083333334
 20
-53.28521944444444
 10
34.00733611111112
 20
-53.20993611111112
 10
33.89246666666665
 20
-53.13056944444444
 10
33.76966805555556
 20
-53.045725
 10
33.65163472222222
 20
-52.95415277777778
 10
33.53811666666666
 20
-52.85711666666667
 10
33.5147152777778
 20
-52.83711527777778
 10
33.50132222222221
 20
-52.83567499999999
 10
33.47701388888888
 20
-52.85742777777778
 10
33.4129125
 20
-52.91475833333334
 10
33.34520277777779
 20
-52.96810972222222
 10
33.27878472222223
 20
-53.02284305555555
 10
33.09436388888889
 20
-53.17483333333332
 10
32.91923750000001
 20
-53.33907499999999
 10
32.71126666666666
 20
-53.46016666666666
 10
32.66980972222223
 20
-53.4843111111111
 10
32.69331527777778
 20
-53.50045138888888
 10
32.71071666666666
 20
-53.51969444444444
 10
32.89225694444445
 20
-53.72059861111111
 10
33.09314583333334
 20
-53.90005972222222
 10
33.31009999999999
 20
-54.0619111111111
 10
33.33464444444444
 20
-54.08021944444443
 10
33.35535833333334
 20
-54.08228333333333
 10
33.38358611111109
 20
-54.07065694444444
 10
33.52159027777778
 20
-54.0138
 10
33.66655833333334
 20
-53.97754027777778
 10
33.80788750000001
 20
-53.93035138888889
 10
33.96743750000001
 20
-53.87708888888889
 10
34.12971944444444
 20
-53.83237916666667
 10
34.29347083333333
 20
-53.79347499999999
 10
34.30967083333333
 20
-53.78961527777778
 10
34.32974583333334
 20
-53.7887986111111
 10
34.32481666666667
 20
-53.76308055555556
 10
34.30727916666665
 20
-53.65536805555555
 10
34.29168888888888
 20
-53.54734305555555
 10
34.28895694444446
 20
-53.43816111111111
 10
34.28803611111112
 20
-53.40139583333332
 10
34.27343888888888
 20
-53.37958333333333
 10
34.24289583333332
 20
-53.36014583333333
 97
        0
 97
        0
 75
     2
 76
     1
 98
        0
  0
SPLINE
  5
48
330
1F
100
AcDbEntity
  8
Layer 1
370
     0
100
AcDbSpline
210
0.0
220
0.0
230
1.0
 70
    11
 71
     3
 72
    29
 73
    25
 74
     0
 42
0.0000000001
 43
0.0000000001
 12
1.0
 22
0.0
 32
0.0
 13
1.0
 23
0.0
 33
0.0
 40
0.0
 40
0.0
 40
0.0
 40
0.0
 40
1.0
 40
1.0
 40
1.0
 40
2.0
 40
2.0
 40
2.0
 40
3.0
 40
3.0
 40
3.0
 40
4.0
 40
4.0
 40
4.0
 40
5.0
 40
5.0
 40
5.0
 40
6.0
 40
6.0
 40
6.0
 40
7.0
 40
7.0
 40
7.0
 40
8.0
 40
8.0
 40
8.0
 40
8.0
 10
32.08699722222223
 20
-53.82822222222222
 30
0.0
 10
31.84128055555556
 20
-53.96909166666667
 30
0.0
 10
31.60514166666667
 20
-54.12464583333333
 30
0.0
 10
31.37681388888889
 20
-54.29210972222222
 30
0.0
 10
31.33544444444444
 20
-54.32246111111111
 30
0.0
 10
31.33986944444445
 20
-54.37664305555555
 30
0.0
 10
31.38692499999999
 20
-54.39606527777778
 30
0.0
 10
31.40716388888889
 20
-54.40439583333333
 30
0.0
 10
31.4288875
 20
-54.40439583333333
 30
0.0
 10
31.45450138888888
 20
-54.40439583333333
 30
0.0
 10
31.61550694444443
 20
-54.39502638888888
 30
0.0
 10
31.77437222222223
 20
-54.37639166666666
 30
0.0
 10
31.93086388888888
 20
-54.336225
 30
0.0
 10
32.09538749999999
 20
-54.29396666666667
 30
0.0
 10
32.26396388888889
 20
-54.26823333333333
 30
0.0
 10
32.42522083333334
 20
-54.21195694444445
 30
0.0
 10
32.4658763888889
 20
-54.19777638888889
 30
0.0
 10
32.47214305555556
 20
-54.18889722222222
 30
0.0
 10
32.44430138888889
 20
-54.15291805555555
 30
0.0
 10
32.35379861111111
 20
-54.03595555555555
 30
0.0
 10
32.24599722222221
 20
-53.93528055555556
 30
0.0
 10
32.14616944444444
 20
-53.82712222222221
 30
0.0
 10
32.1229763888889
 20
-53.8019986111111
 30
0.0
 10
32.10664166666667
 20
-53.81693611111111
 30
0.0
 10
32.08699722222223
 20
-53.82822222222222
 30
0.0
  0
HATCH
  5
49
330
1F
100
AcDbEntity
  8
Layer 1
 62
     7
420
 16777215
100
AcDbHatch
 10
0.0
 20
0.0
 30
0.0
210
0.0
220
0.0
230
1.0
  2
SOLID
 70
     1
 71
     0
 91
        1
 92
        1
 93
        1
 72
     4
 94
        3
 73
     0
 74
     1
 95
       29
 96
       25
 40
0.0
 40
0.0
 40
0.0
 40
0.0
 40
1.0
 40
1.0
 40
1.0
 40
2.0
 40
2.0
 40
2.0
 40
3.0
 40
3.0
 40
3.0
 40
4.0
 40
4.0
 40
4.0
 40
5.0
 40
5.0
 40
5.0
 40
6.0
 40
6.0
 40
6.0
 40
7.0
 40
7.0
 40
7.0
 40
8.0
 40
8.0
 40
8.0
 40
8.0
 10
32.08699722222223
 20
-53.82822222222222
 10
31.84128055555556
 20
-53.96909166666667
 10
31.60514166666667
 20
-54.12464583333333
 10
31.37681388888889
 20
-54.29210972222222
 10
31.33544444444444
 20
-54.32246111111111
 10
31.33986944444445
 20
-54.37664305555555
 10
31.38692499999999
 20
-54.39606527777778
 10
31.40716388888889
 20
-54.40439583333333
 10
31.4288875
 20
-54.40439583333333
 10
31.45450138888888
 20
-54.40439583333333
 10
31.61550694444443
 20
-54.39502638888888
 10
31.77437222222223
 20
-54.37639166666666
 10
31.93086388888888
 20
-54.336225
 10
32.09538749999999
 20
-54.29396666666667
 10
32.26396388888889
 20
-54.26823333333333
 10
32.42522083333334
 20
-54.21195694444445
 10
32.4658763888889
 20
-54.19777638888889
 10
32.47214305555556
 20
-54.18889722222222
 10
32.44430138888889
 20
-54.15291805555555
 10
32.35379861111111
 20
-54.03595555555555
 10
32.24599722222221
 20
-53.93528055555556
 10
32.14616944444444
 20
-53.82712222222221
 10
32.1229763888889
 20
-53.8019986111111
 10
32.10664166666667
 20
-53.81693611111111
 10
32.08699722222223
 20
-53.82822222222222
 97
        0
 97
        0
 75
     2
 76
     1
 98
        0
  0
ENDSEC
  0
SECTION
  2
OBJECTS
  0
DICTIONARY
  5
C
330
0
100
AcDbDictionary
281
     1
  3
ACAD_GROUP
350
D
  3
ACAD_LAYOUT
350
1A
  3
ACAD_MATERIAL
350
3B
  3
ACAD_MLEADERSTYLE
350
4B
  3
ACAD_MLINESTYLE
350
17
  3
ACAD_PLOTSETTINGS
350
19
  3
ACAD_PLOTSTYLENAME
350
E
  3
ACAD_TABLESTYLE
350
4A
  3
ACAD_VISUALSTYLE
350
2A
  0
SUN
  5
3F
330
29
100
AcDbSun
 90
        1
290
     0
 63
     7
421
 16777215
 40
1.0
291
     1
 91
  2455826
 92
 54000000
292
     0
 70
     2
 71
   256
280
     1
  0
DICTIONARY
  5
D
102
{ACAD_REACTORS
330
C
102
}
330
C
100
AcDbDictionary
281
     1
  0
DICTIONARY
  5
1A
102
{ACAD_REACTORS
330
C
102
}
330
C
100
AcDbDictionary
281
     1
  3
Layout1
350
1E
  3
Layout2
350
26
  3
Model
350
22
  0
DICTIONARY
  5
3B
102
{ACAD_REACTORS
330
C
102
}
330
C
100
AcDbDictionary
281
     1
  3
ByBlock
350
3D
  3
ByLayer
350
3C
  3
Global
350
3E
  0
DICTIONARY
  5
4B
102
{ACAD_REACTORS
330
C
102
}
330
C
100
AcDbDictionary
281
     1
  0
DICTIONARY
  5
17
102
{ACAD_REACTORS
330
C
102
}
330
C
100
AcDbDictionary
281
     1
  3
Standard
350
18
  0
DICTIONARY
  5
19
102
{ACAD_REACTORS
330
C
102
}
330
C
100
AcDbDictionary
281
     1
  0
ACDBDICTIONARYWDFLT
  5
E
102
{ACAD_REACTORS
330
C
102
}
330
C
100
AcDbDictionary
281
     1
  3
Normal
350
F
100
AcDbDictionaryWithDefault
340
F
  0
DICTIONARY
  5
4A
102
{ACAD_REACTORS
330
C
102
}
330
C
100
AcDbDictionary
281
     1
  0
DICTIONARY
  5
2A
102
{ACAD_REACTORS
330
C
102
}
330
C
100
AcDbDictionary
281
     1
  3
2dWireframe
350
2F
  3
3D Hidden
350
31
  3
3dWireframe
350
30
  3
Basic
350
32
  3
Brighten
350
36
  3
ColorChange
350
3A
  3
Conceptual
350
34
  3
Dim
350
35
  3
Facepattern
350
39
  3
Flat
350
2B
  3
FlatWithEdges
350
2C
  3
Gouraud
350
2D
  3
GouraudWithEdges
350
2E
  3
Linepattern
350
38
  3
Realistic
350
33
  3
Thicken
350
37
  0
LAYOUT
  5
1E
102
{ACAD_REACTORS
330
1A
102
}
330
1A
100
AcDbPlotSettings
  1

  2
none_device
  4

  6

 40
0.0
 41
0.0
 42
0.0
 43
0.0
 44
0.0
 45
0.0
 46
0.0
 47
0.0
 48
0.0
 49
0.0
140
0.0
141
0.0
142
1.0
143
1.0
 70
   688
 72
     0
 73
     0
 74
     5
  7

 75
    16
 76
     0
 77
     2
 78
   300
147
1.0
148
0.0
149
0.0
100
AcDbLayout
  1
Layout1
 70
     1
 71
     1
 10
0.0
 20
0.0
 11
12.0
 21
9.0
 12
0.0
 22
0.0
 32
0.0
 14
1.000000000000000E+20
 24
1.000000000000000E+20
 34
1.000000000000000E+20
 15
-1.000000000000000E+20
 25
-1.000000000000000E+20
 35
-1.000000000000000E+20
146
0.0
 13
0.0
 23
0.0
 33
0.0
 16
1.0
 26
0.0
 36
0.0
 17
0.0
 27
1.0
 37
0.0
 76
     0
330
1B
  0
LAYOUT
  5
26
102
{ACAD_REACTORS
330
1A
102
}
330
1A
100
AcDbPlotSettings
  1

  2
none_device
  4

  6

 40
0.0
 41
0.0
 42
0.0
 43
0.0
 44
0.0
 45
0.0
 46
0.0
 47
0.0
 48
0.0
 49
0.0
140
0.0
141
0.0
142
1.0
143
1.0
 70
   688
 72
     0
 73
     0
 74
     5
  7

 75
    16
 76
     0
 77
     2
 78
   300
147
1.0
148
0.0
149
0.0
100
AcDbLayout
  1
Layout2
 70
     1
 71
     2
 10
0.0
 20
0.0
 11
0.0
 21
0.0
 12
0.0
 22
0.0
 32
0.0
 14
0.0
 24
0.0
 34
0.0
 15
0.0
 25
0.0
 35
0.0
146
0.0
 13
0.0
 23
0.0
 33
0.0
 16
1.0
 26
0.0
 36
0.0
 17
0.0
 27
1.0
 37
0.0
 76
     0
330
23
  0
LAYOUT
  5
22
102
{ACAD_REACTORS
330
1A
102
}
330
1A
100
AcDbPlotSettings
  1

  2
none_device
  4

  6

 40
0.0
 41
0.0
 42
0.0
 43
0.0
 44
0.0
 45
0.0
 46
0.0
 47
0.0
 48
0.0
 49
0.0
140
0.0
141
0.0
142
1.0
143
1.0
 70
  1712
 72
     0
 73
     0
 74
     0
  7

 75
     0
 76
     0
 77
     2
 78
   300
147
1.0
148
0.0
149
0.0
100
AcDbLayout
  1
Model
 70
     1
 71
     0
 10
0.0
 20
0.0
 11
12.0
 21
9.0
 12
0.0
 22
0.0
 32
0.0
 14
1.000000000000000E+20
 24
1.000000000000000E+20
 34
1.000000000000000E+20
 15
-1.000000000000000E+20
 25
-1.000000000000000E+20
 35
-1.000000000000000E+20
146
0.0
 13
0.0
 23
0.0
 33
0.0
 16
1.0
 26
0.0
 36
0.0
 17
0.0
 27
1.0
 37
0.0
 76
     0
330
1F
331
29
  0
MATERIAL
  5
3D
102
{ACAD_REACTORS
330
3B
102
}
330
3B
100
AcDbMaterial
  1
ByBlock
 72
     1
 94
      127
  0
MATERIAL
  5
3C
102
{ACAD_REACTORS
330
3B
102
}
330
3B
100
AcDbMaterial
  1
ByLayer
 72
     1
 94
      127
  0
MATERIAL
  5
3E
102
{ACAD_REACTORS
330
3B
102
}
330
3B
100
AcDbMaterial
  1
Global
 72
     1
 94
      127
  0
MLINESTYLE
  5
18
102
{ACAD_REACTORS
330
17
102
}
330
17
100
AcDbMlineStyle
  2
Standard
 70
     0
  3

 62
   256
 51
90.0
 52
90.0
 71
     2
 49
0.5
 62
   256
  6
BYLAYER
 49
-0.5
 62
   256
  6
BYLAYER
  0
ACDBPLACEHOLDER
  5
F
102
{ACAD_REACTORS
330
E
102
}
330
E
  0
VISUALSTYLE
  5
2F
102
{ACAD_REACTORS
330
2A
102
}
330
2A
100
AcDbVisualStyle
  2
2dWireframe
 70
     4
177
     2
291
     0
 71
     0
176
     1
 72
     2
176
     1
 73
     0
176
     1
 90
        0
176
     1
 40
-0.6
176
     1
 41
-30.0
176
     1
 62
     5
 63
     7
421
 16777215
176
     1
 74
     1
176
     1
 91
        4
176
     1
 64
     7
176
     1
 65
   257
176
     1
 75
     1
176
     1
175
     1
176
     1
 42
1.0
176
     1
 92
        0
176
     1
 66
   257
176
     1
 43
1.0
176
     1
 76
     1
176
     1
 77
     6
176
     1
 78
     2
176
     1
 67
     7
176
     1
 79
     5
176
     1
170
     0
176
     1
171
     0
176
     1
290
     0
176
     1
 93
        1
176
     1
 44
0.0
176
     1
173
     0
176
     1
  0
VISUALSTYLE
  5
31
102
{ACAD_REACTORS
330
2A
102
}
330
2A
100
AcDbVisualStyle
  2
3D Hidden
 70
     6
177
     2
291
     0
 71
     1
176
     1
 72
     2
176
     1
 73
     2
176
     1
 90
        0
176
     1
 40
-0.6
176
     1
 41
-30.0
176
     1
 62
     5
 63
     7
421
 16777215
176
     1
 74
     2
176
     1
 91
        2
176
     1
 64
     7
176
     1
 65
   257
176
     1
 75
     2
176
     1
175
     1
176
     1
 42
40.0
176
     1
 92
        0
176
     1
 66
   257
176
     1
 43
1.0
176
     1
 76
     1
176
     1
 77
     6
176
     1
 78
     2
176
     1
 67
     7
176
     1
 79
     3
176
     1
170
     0
176
     1
171
     0
176
     1
290
     0
176
     1
 93
        1
176
     1
 44
0.0
176
     1
173
     0
176
     1
  0
VISUALSTYLE
  5
30
102
{ACAD_REACTORS
330
2A
102
}
330
2A
100
AcDbVisualStyle
  2
3dWireframe
 70
     5
177
     2
291
     0
 71
     0
176
     1
 72
     2
176
     1
 73
     0
176
     1
 90
        0
176
     1
 40
-0.6
176
     1
 41
-30.0
176
     1
 62
     5
 63
     7
421
 16777215
176
     1
 74
     1
176
     1
 91
        4
176
     1
 64
     7
176
     1
 65
   257
176
     1
 75
     1
176
     1
175
     1
176
     1
 42
1.0
176
     1
 92
        0
176
     1
 66
   257
176
     1
 43
1.0
176
     1
 76
     1
176
     1
 77
     6
176
     1
 78
     2
176
     1
 67
     7
176
     1
 79
     5
176
     1
170
     0
176
     1
171
     0
176
     1
290
     0
176
     1
 93
        1
176
     1
 44
0.0
176
     1
173
     0
176
     1
  0
VISUALSTYLE
  5
32
102
{ACAD_REACTORS
330
2A
102
}
330
2A
100
AcDbVisualStyle
  2
Basic
 70
     7
177
     2
291
     1
 71
     1
176
     1
 72
     0
176
     1
 73
     1
176
     1
 90
        0
176
     1
 40
-0.6
176
     1
 41
-30.0
176
     1
 62
     5
 63
     7
421
 16777215
176
     1
 74
     0
176
     1
 91
        4
176
     1
 64
     7
176
     1
 65
   257
176
     1
 75
     1
176
     1
175
     1
176
     1
 42
1.0
176
     1
 92
        8
176
     1
 66
     7
176
     1
 43
1.0
176
     1
 76
     1
176
     1
 77
     6
176
     1
 78
     2
176
     1
 67
     7
176
     1
 79
     5
176
     1
170
     0
176
     1
171
     0
176
     1
290
     0
176
     1
 93
        1
176
     1
 44
0.0
176
     1
173
     0
176
     1
  0
VISUALSTYLE
  5
36
102
{ACAD_REACTORS
330
2A
102
}
330
2A
100
AcDbVisualStyle
  2
Brighten
 70
    12
177
     2
291
     1
 71
     2
176
     1
 72
     2
176
     1
 73
     0
176
     1
 90
        0
176
     1
 40
-0.6
176
     1
 41
-30.0
176
     1
 62
     5
 63
     7
421
 16777215
176
     1
 74
     1
176
     1
 91
        4
176
     1
 64
     7
176
     1
 65
   257
176
     1
 75
     1
176
     1
175
     1
176
     1
 42
1.0
176
     1
 92
        8
176
     1
 66
     7
176
     1
 43
1.0
176
     1
 76
     1
176
     1
 77
     6
176
     1
 78
     2
176
     1
 67
     7
176
     1
 79
     5
176
     1
170
     0
176
     1
171
     0
176
     1
290
     0
176
     1
 93
        1
176
     1
 44
50.0
176
     1
173
     0
176
     1
  0
VISUALSTYLE
  5
3A
102
{ACAD_REACTORS
330
2A
102
}
330
2A
100
AcDbVisualStyle
  2
ColorChange
 70
    16
177
     2
291
     1
 71
     2
176
     1
 72
     2
176
     1
 73
     3
176
     1
 90
        0
176
     1
 40
-0.6
176
     1
 41
-30.0
176
     1
 62
     5
 63
     8
421
  8421504
176
     1
 74
     1
176
     1
 91
        4
176
     1
 64
     7
176
     1
 65
   257
176
     1
 75
     1
176
     1
175
     1
176
     1
 42
1.0
176
     1
 92
        8
176
     1
 66
     8
424
  8421504
176
     1
 43
1.0
176
     1
 76
     1
176
     1
 77
     6
176
     1
 78
     2
176
     1
 67
     7
176
     1
 79
     5
176
     1
170
     0
176
     1
171
     0
176
     1
290
     0
176
     1
 93
        1
176
     1
 44
0.0
176
     1
173
     0
176
     1
  0
VISUALSTYLE
  5
34
102
{ACAD_REACTORS
330
2A
102
}
330
2A
100
AcDbVisualStyle
  2
Conceptual
 70
     9
177
     2
291
     0
 71
     3
176
     1
 72
     2
176
     1
 73
     0
176
     1
 90
        0
176
     1
 40
-0.6
176
     1
 41
-30.0
176
     1
 62
     5
 63
     7
421
 16777215
176
     1
 74
     2
176
     1
 91
        2
176
     1
 64
     7
176
     1
 65
   257
176
     1
 75
     1
176
     1
175
     1
176
     1
 42
40.0
176
     1
 92
        8
176
     1
 66
     7
176
     1
 43
1.0
176
     1
 76
     1
176
     1
 77
     6
176
     1
 78
     2
176
     1
 67
     7
176
     1
 79
     3
176
     1
170
     0
176
     1
171
     0
176
     1
290
     0
176
     1
 93
        1
176
     1
 44
0.0
176
     1
173
     0
176
     1
  0
VISUALSTYLE
  5
35
102
{ACAD_REACTORS
330
2A
102
}
330
2A
100
AcDbVisualStyle
  2
Dim
 70
    11
177
     2
291
     1
 71
     2
176
     1
 72
     2
176
     1
 73
     0
176
     1
 90
        0
176
     1
 40
-0.6
176
     1
 41
-30.0
176
     1
 62
     5
 63
     7
421
 16777215
176
     1
 74
     1
176
     1
 91
        4
176
     1
 64
     7
176
     1
 65
   257
176
     1
 75
     1
176
     1
175
     1
176
     1
 42
1.0
176
     1
 92
        8
176
     1
 66
     7
176
     1
 43
1.0
176
     1
 76
     1
176
     1
 77
     6
176
     1
 78
     2
176
     1
 67
     7
176
     1
 79
     5
176
     1
170
     0
176
     1
171
     0
176
     1
290
     0
176
     1
 93
        1
176
     1
 44
-50.0
176
     1
173
     0
176
     1
  0
VISUALSTYLE
  5
39
102
{ACAD_REACTORS
330
2A
102
}
330
2A
100
AcDbVisualStyle
  2
Facepattern
 70
    15
177
     2
291
     1
 71
     2
176
     1
 72
     2
176
     1
 73
     0
176
     1
 90
        0
176
     1
 40
-0.6
176
     1
 41
-30.0
176
     1
 62
     5
 63
     7
421
 16777215
176
     1
 74
     1
176
     1
 91
        4
176
     1
 64
     7
176
     1
 65
   257
176
     1
 75
     1
176
     1
175
     1
176
     1
 42
1.0
176
     1
 92
        8
176
     1
 66
     7
176
     1
 43
1.0
176
     1
 76
     1
176
     1
 77
     6
176
     1
 78
     2
176
     1
 67
     7
176
     1
 79
     5
176
     1
170
     0
176
     1
171
     0
176
     1
290
     0
176
     1
 93
        1
176
     1
 44
0.0
176
     1
173
     0
176
     1
  0
VISUALSTYLE
  5
2B
102
{ACAD_REACTORS
330
2A
102
}
330
2A
100
AcDbVisualStyle
  2
Flat
 70
     0
177
     2
291
     1
 71
     2
176
     1
 72
     1
176
     1
 73
     1
176
     1
 90
        2
176
     1
 40
-0.6
176
     1
 41
30.0
176
     1
 62
     5
 63
     7
421
 16777215
176
     1
 74
     0
176
     1
 91
        4
176
     1
 64
     7
176
     1
 65
   257
176
     1
 75
     1
176
     1
175
     1
176
     1
 42
1.0
176
     1
 92
        8
176
     1
 66
     7
176
     1
 43
1.0
176
     1
 76
     1
176
     1
 77
     6
176
     1
 78
     2
176
     1
 67
     7
176
     1
 79
     5
176
     1
170
     0
176
     1
171
     0
176
     1
290
     0
176
     1
 93
       13
176
     1
 44
0.0
176
     1
173
     0
176
     1
  0
VISUALSTYLE
  5
2C
102
{ACAD_REACTORS
330
2A
102
}
330
2A
100
AcDbVisualStyle
  2
FlatWithEdges
 70
     1
177
     2
291
     1
 71
     2
176
     1
 72
     1
176
     1
 73
     1
176
     1
 90
        2
176
     1
 40
-0.6
176
     1
 41
30.0
176
     1
 62
     5
 63
     7
421
 16777215
176
     1
 74
     1
176
     1
 91
        4
176
     1
 64
     7
176
     1
 65
   257
176
     1
 75
     1
176
     1
175
     1
176
     1
 42
1.0
176
     1
 92
        0
176
     1
 66
   257
176
     1
 43
1.0
176
     1
 76
     1
176
     1
 77
     6
176
     1
 78
     2
176
     1
 67
     7
176
     1
 79
     5
176
     1
170
     0
176
     1
171
     0
176
     1
290
     0
176
     1
 93
       13
176
     1
 44
0.0
176
     1
173
     0
176
     1
  0
VISUALSTYLE
  5
2D
102
{ACAD_REACTORS
330
2A
102
}
330
2A
100
AcDbVisualStyle
  2
Gouraud
 70
     2
177
     2
291
     1
 71
     2
176
     1
 72
     2
176
     1
 73
     1
176
     1
 90
        2
176
     1
 40
-0.6
176
     1
 41
30.0
176
     1
 62
     5
 63
     7
421
 16777215
176
     1
 74
     0
176
     1
 91
        4
176
     1
 64
     7
176
     1
 65
   257
176
     1
 75
     1
176
     1
175
     1
176
     1
 42
1.0
176
     1
 92
        0
176
     1
 66
     7
176
     1
 43
1.0
176
     1
 76
     1
176
     1
 77
     6
176
     1
 78
     2
176
     1
 67
     7
176
     1
 79
     5
176
     1
170
     0
176
     1
171
     0
176
     1
290
     0
176
     1
 93
       13
176
     1
 44
0.0
176
     1
173
     0
176
     1
  0
VISUALSTYLE
  5
2E
102
{ACAD_REACTORS
330
2A
102
}
330
2A
100
AcDbVisualStyle
  2
GouraudWithEdges
 70
     3
177
     2
291
     1
 71
     2
176
     1
 72
     2
176
     1
 73
     1
176
     1
 90
        2
176
     1
 40
-0.6
176
     1
 41
30.0
176
     1
 62
     5
 63
     7
421
 16777215
176
     1
 74
     1
176
     1
 91
        4
176
     1
 64
     7
176
     1
 65
   257
176
     1
 75
     1
176
     1
175
     1
176
     1
 42
1.0
176
     1
 92
        0
176
     1
 66
   257
176
     1
 43
1.0
176
     1
 76
     1
176
     1
 77
     6
176
     1
 78
     2
176
     1
 67
     7
176
     1
 79
     5
176
     1
170
     0
176
     1
171
     0
176
     1
290
     0
176
     1
 93
       13
176
     1
 44
0.0
176
     1
173
     0
176
     1
  0
VISUALSTYLE
  5
38
102
{ACAD_REACTORS
330
2A
102
}
330
2A
100
AcDbVisualStyle
  2
Linepattern
 70
    14
177
     2
291
     1
 71
     2
176
     1
 72
     2
176
     1
 73
     0
176
     1
 90
        0
176
     1
 40
-0.6
176
     1
 41
-30.0
176
     1
 62
     5
 63
     7
421
 16777215
176
     1
 74
     1
176
     1
 91
        4
176
     1
 64
     7
176
     1
 65
   257
176
     1
 75
     7
176
     1
175
     7
176
     1
 42
1.0
176
     1
 92
        8
176
     1
 66
     7
176
     1
 43
1.0
176
     1
 76
     1
176
     1
 77
     6
176
     1
 78
     2
176
     1
 67
     7
176
     1
 79
     5
176
     1
170
     0
176
     1
171
     0
176
     1
290
     0
176
     1
 93
        1
176
     1
 44
0.0
176
     1
173
     0
176
     1
  0
VISUALSTYLE
  5
33
102
{ACAD_REACTORS
330
2A
102
}
330
2A
100
AcDbVisualStyle
  2
Realistic
 70
     8
177
     2
291
     0
 71
     2
176
     1
 72
     2
176
     1
 73
     0
176
     1
 90
        0
176
     1
 40
-0.6
176
     1
 41
-30.0
176
     1
 62
     5
 63
     7
421
 16777215
176
     1
 74
     1
176
     1
 91
        0
176
     1
 64
     7
176
     1
 65
   257
176
     1
 75
     1
176
     1
175
     1
176
     1
 42
1.0
176
     1
 92
        8
176
     1
 66
     8
424
  7895160
176
     1
 43
1.0
176
     1
 76
     1
176
     1
 77
     6
176
     1
 78
     2
176
     1
 67
     7
176
     1
 79
     5
176
     1
170
     0
176
     1
171
     0
176
     1
290
     0
176
     1
 93
       13
176
     1
 44
0.0
176
     1
173
     0
176
     1
  0
VISUALSTYLE
  5
37
102
{ACAD_REACTORS
330
2A
102
}
330
2A
100
AcDbVisualStyle
  2
Thicken
 70
    13
177
     2
291
     1
 71
     2
176
     1
 72
     2
176
     1
 73
     0
176
     1
 90
        0
176
     1
 40
-0.6
176
     1
 41
-30.0
176
     1
 62
     5
 63
     7
421
 16777215
176
     1
 74
     1
176
     1
 91
        4
176
     1
 64
     7
176
     1
 65
   257
176
     1
 75
     1
176
     1
175
     1
176
     1
 42
1.0
176
     1
 92
       12
176
     1
 66
     7
176
     1
 43
1.0
176
     1
 76
     1
176
     1
 77
     6
176
     1
 78
     2
176
     1
 67
     7
176
     1
 79
     5
176
     1
170
     0
176
     1
171
     0
176
     1
290
     0
176
     1
 93
        1
176
     1
 44
0.0
176
     1
173
     0
176
     1
  0
ENDSEC
  0
EOF
