  0
SECTION
  2
HEADER
  9
$ACADVER
  1
AC1024
  9
$ACADMAINTVER
 70
     6
  9
$DWGCODEPAGE
  3
ANSI_1251
  9
$INSBASE
 10
0.0
 20
0.0
 30
0.0
  9
$EXTMIN
 10
1.000000000000000E+20
 20
1.000000000000000E+20
 30
1.000000000000000E+20
  9
$EXTMAX
 10
-1.000000000000000E+20
 20
-1.000000000000000E+20
 30
-1.000000000000000E+20
  9
$LIMMIN
 10
0.0
 20
0.0
  9
$LIMMAX
 10
12.0
 20
9.0
  9
$ORTHOMODE
 70
     0
  9
$REGENMODE
 70
     1
  9
$FILLMODE
 70
     1
  9
$QTEXTMODE
 70
     0
  9
$MIRRTEXT
 70
     1
  9
$LTSCALE
 40
1.0
  9
$ATTMODE
 70
     1
  9
$TEXTSIZE
 40
0.2
  9
$TRACEWID
 40
0.05
  9
$TEXTSTYLE
  7
Standard
  9
$CLAYER
  8
0
  9
$CELTYPE
  6
ByLayer
  9
$CECOLOR
 62
   256
  9
$CELTSCALE
 40
1.0
  9
$DISPSILH
 70
     0
  9
$DIMSCALE
 40
1.0
  9
$DIMASZ
 40
0.18
  9
$DIMEXO
 40
0.0625
  9
$DIMDLI
 40
0.38
  9
$DIMRND
 40
0.0
  9
$DIMDLE
 40
0.0
  9
$DIMEXE
 40
0.18
  9
$DIMTP
 40
0.0
  9
$DIMTM
 40
0.0
  9
$DIMTXT
 40
0.18
  9
$DIMCEN
 40
0.09
  9
$DIMTSZ
 40
0.0
  9
$DIMTOL
 70
     0
  9
$DIMLIM
 70
     0
  9
$DIMTIH
 70
     1
  9
$DIMTOH
 70
     1
  9
$DIMSE1
 70
     0
  9
$DIMSE2
 70
     0
  9
$DIMTAD
 70
     0
  9
$DIMZIN
 70
     0
  9
$DIMBLK
  1

  9
$DIMASO
 70
     1
  9
$DIMSHO
 70
     1
  9
$DIMPOST
  1

  9
$DIMAPOST
  1

  9
$DIMALT
 70
     0
  9
$DIMALTD
 70
     2
  9
$DIMALTF
 40
25.4
  9
$DIMLFAC
 40
1.0
  9
$DIMTOFL
 70
     0
  9
$DIMTVP
 40
0.0
  9
$DIMTIX
 70
     0
  9
$DIMSOXD
 70
     0
  9
$DIMSAH
 70
     0
  9
$DIMBLK1
  1

  9
$DIMBLK2
  1

  9
$DIMSTYLE
  2
Standard
  9
$DIMCLRD
 70
     0
  9
$DIMCLRE
 70
     0
  9
$DIMCLRT
 70
     0
  9
$DIMTFAC
 40
1.0
  9
$DIMGAP
 40
0.09
  9
$DIMJUST
 70
     0
  9
$DIMSD1
 70
     0
  9
$DIMSD2
 70
     0
  9
$DIMTOLJ
 70
     1
  9
$DIMTZIN
 70
     0
  9
$DIMALTZ
 70
     0
  9
$DIMALTTZ
 70
     0
  9
$DIMUPT
 70
     0
  9
$DIMDEC
 70
     4
  9
$DIMTDEC
 70
     4
  9
$DIMALTU
 70
     2
  9
$DIMALTTD
 70
     2
  9
$DIMTXSTY
  7
Standard
  9
$DIMAUNIT
 70
     0
  9
$DIMADEC
 70
     0
  9
$DIMALTRND
 40
0.0
  9
$DIMAZIN
 70
     0
  9
$DIMDSEP
 70
    46
  9
$DIMATFIT
 70
     3
  9
$DIMFRAC
 70
     0
  9
$DIMLDRBLK
  1

  9
$DIMLUNIT
 70
     2
  9
$DIMLWD
 70
    -2
  9
$DIMLWE
 70
    -2
  9
$DIMTMOVE
 70
     0
  9
$DIMFXL
 40
1.0
  9
$DIMFXLON
 70
     0
  9
$DIMJOGANG
 40
0.7853981633974483
  9
$DIMTFILL
 70
     0
  9
$DIMTFILLCLR
 70
     0
  9
$DIMARCSYM
 70
     0
  9
$DIMLTYPE
  6

  9
$DIMLTEX1
  6

  9
$DIMLTEX2
  6

  9
$DIMTXTDIRECTION
 70
     0
  9
$LUNITS
 70
     2
  9
$LUPREC
 70
     4
  9
$SKETCHINC
 40
0.1
  9
$FILLETRAD
 40
0.5
  9
$AUNITS
 70
     0
  9
$AUPREC
 70
     0
  9
$MENU
  1
.
  9
$ELEVATION
 40
0.0
  9
$PELEVATION
 40
0.0
  9
$THICKNESS
 40
0.0
  9
$LIMCHECK
 70
     0
  9
$CHAMFERA
 40
0.5
  9
$CHAMFERB
 40
0.5
  9
$CHAMFERC
 40
1.0
  9
$CHAMFERD
 40
0.0
  9
$SKPOLY
 70
     0
  9
$TDCREATE
 40
2459337.676573866
  9
$TDUCREATE
 40
2459337.551573866
  9
$TDUPDATE
 40
2459337.676573866
  9
$TDUUPDATE
 40
2459337.551573866
  9
$TDINDWG
 40
0.0000000116
  9
$TDUSRTIMER
 40
0.0000000116
  9
$USRTIMER
 70
     1
  9
$ANGBASE
 50
0.0
  9
$ANGDIR
 70
     0
  9
$PDMODE
 70
     0
  9
$PDSIZE
 40
0.0
  9
$PLINEWID
 40
0.0
  9
$SPLFRAME
 70
     0
  9
$SPLINETYPE
 70
     6
  9
$SPLINESEGS
 70
     8
  9
$HANDSEED
  5
47
  9
$SURFTAB1
 70
     6
  9
$SURFTAB2
 70
     6
  9
$SURFTYPE
 70
     6
  9
$SURFU
 70
     6
  9
$SURFV
 70
     6
  9
$UCSBASE
  2

  9
$UCSNAME
  2

  9
$UCSORG
 10
0.0
 20
0.0
 30
0.0
  9
$UCSXDIR
 10
1.0
 20
0.0
 30
0.0
  9
$UCSYDIR
 10
0.0
 20
1.0
 30
0.0
  9
$UCSORTHOREF
  2

  9
$UCSORTHOVIEW
 70
     0
  9
$UCSORGTOP
 10
0.0
 20
0.0
 30
0.0
  9
$UCSORGBOTTOM
 10
0.0
 20
0.0
 30
0.0
  9
$UCSORGLEFT
 10
0.0
 20
0.0
 30
0.0
  9
$UCSORGRIGHT
 10
0.0
 20
0.0
 30
0.0
  9
$UCSORGFRONT
 10
0.0
 20
0.0
 30
0.0
  9
$UCSORGBACK
 10
0.0
 20
0.0
 30
0.0
  9
$PUCSBASE
  2

  9
$PUCSNAME
  2

  9
$PUCSORG
 10
0.0
 20
0.0
 30
0.0
  9
$PUCSXDIR
 10
1.0
 20
0.0
 30
0.0
  9
$PUCSYDIR
 10
0.0
 20
1.0
 30
0.0
  9
$PUCSORTHOREF
  2

  9
$PUCSORTHOVIEW
 70
     0
  9
$PUCSORGTOP
 10
0.0
 20
0.0
 30
0.0
  9
$PUCSORGBOTTOM
 10
0.0
 20
0.0
 30
0.0
  9
$PUCSORGLEFT
 10
0.0
 20
0.0
 30
0.0
  9
$PUCSORGRIGHT
 10
0.0
 20
0.0
 30
0.0
  9
$PUCSORGFRONT
 10
0.0
 20
0.0
 30
0.0
  9
$PUCSORGBACK
 10
0.0
 20
0.0
 30
0.0
  9
$USERI1
 70
     0
  9
$USERI2
 70
     0
  9
$USERI3
 70
     0
  9
$USERI4
 70
     0
  9
$USERI5
 70
     0
  9
$USERR1
 40
0.0
  9
$USERR2
 40
0.0
  9
$USERR3
 40
0.0
  9
$USERR4
 40
0.0
  9
$USERR5
 40
0.0
  9
$WORLDVIEW
 70
     1
  9
$SHADEDGE
 70
     3
  9
$SHADEDIF
 70
    70
  9
$TILEMODE
 70
     1
  9
$MAXACTVP
 70
    64
  9
$PINSBASE
 10
0.0
 20
0.0
 30
0.0
  9
$PLIMCHECK
 70
     0
  9
$PEXTMIN
 10
1.000000000000000E+20
 20
1.000000000000000E+20
 30
1.000000000000000E+20
  9
$PEXTMAX
 10
-1.000000000000000E+20
 20
-1.000000000000000E+20
 30
-1.000000000000000E+20
  9
$PLIMMIN
 10
0.0
 20
0.0
  9
$PLIMMAX
 10
12.0
 20
9.0
  9
$UNITMODE
 70
     0
  9
$VISRETAIN
 70
     1
  9
$PLINEGEN
 70
     0
  9
$PSLTSCALE
 70
     1
  9
$TREEDEPTH
 70
  3020
  9
$CMLSTYLE
  2
Standard
  9
$CMLJUST
 70
     0
  9
$CMLSCALE
 40
1.0
  9
$PROXYGRAPHICS
 70
     1
  9
$MEASUREMENT
 70
     0
  9
$CELWEIGHT
370
    -1
  9
$ENDCAPS
280
     0
  9
$JOINSTYLE
280
     0
  9
$LWDISPLAY
290
     1
  9
$INSUNITS
 70
     1
  9
$HYPERLINKBASE
  1

  9
$STYLESHEET
  1

  9
$XEDIT
290
     1
  9
$CEPSNTYPE
380
     0
  9
$PSTYLEMODE
290
     1
  9
$FINGERPRINTGUID
  2
{C29BF65C-1F9D-443D-B878-F38EFF823AF9}
  9
$VERSIONGUID
  2
{FAEB1C32-E019-11D5-929B-00C0DF256EC4}
  9
$EXTNAMES
290
     1
  9
$PSVPSCALE
 40
0.0
  9
$OLESTARTUP
290
     0
  9
$SORTENTS
280
   127
  9
$INDEXCTL
280
     0
  9
$HIDETEXT
280
     1
  9
$XCLIPFRAME
280
     2
  9
$HALOGAP
280
     0
  9
$OBSCOLOR
 70
   257
  9
$OBSLTYPE
280
     0
  9
$INTERSECTIONDISPLAY
280
     0
  9
$INTERSECTIONCOLOR
 70
   257
  9
$DIMASSOC
280
     2
  9
$PROJECTNAME
  1

  9
$CAMERADISPLAY
290
     0
  9
$LENSLENGTH
 40
50.0
  9
$CAMERAHEIGHT
 40
0.0
  9
$STEPSPERSEC
 40
2.0
  9
$STEPSIZE
 40
6.0
  9
$3DDWFPREC
 40
2.0
  9
$PSOLWIDTH
 40
0.25
  9
$PSOLHEIGHT
 40
4.0
  9
$LOFTANG1
 40
1.570796326794897
  9
$LOFTANG2
 40
1.570796326794897
  9
$LOFTMAG1
 40
0.0
  9
$LOFTMAG2
 40
0.0
  9
$LOFTPARAM
 70
     7
  9
$LOFTNORMALS
280
     1
  9
$LATITUDE
 40
37.795
  9
$LONGITUDE
 40
-122.394
  9
$NORTHDIRECTION
 40
0.0
  9
$TIMEZONE
 70
 -8000
  9
$LIGHTGLYPHDISPLAY
280
     1
  9
$TILEMODELIGHTSYNCH
280
     1
  9
$CMATERIAL
347
3C
  9
$SOLIDHIST
280
     1
  9
$SHOWHIST
280
     1
  9
$DWFFRAME
280
     2
  9
$DGNFRAME
280
     2
  9
$REALWORLDSCALE
290
     1
  9
$INTERFERECOLOR
 62
   256
  9
$CSHADOW
280
     0
  9
$SHADOWPLANELOCATION
 40
0.0
  0
ENDSEC
  0
SECTION
  2
CLASSES
  0
CLASS
  1
ACDBDICTIONARYWDFLT
  2
AcDbDictionaryWithDefault
  3
ObjectDBX Classes
 90
        0
 91
        4
280
     0
281
     0
  0
CLASS
  1
VISUALSTYLE
  2
AcDbVisualStyle
  3
ObjectDBX Classes
 90
     4095
 91
        4
280
     0
281
     0
  0
CLASS
  1
MATERIAL
  2
AcDbMaterial
  3
ObjectDBX Classes
 90
     1153
 91
        4
280
     0
281
     0
  0
CLASS
  1
SUN
  2
AcDbSun
  3
SCENEOE
 90
     1024
 91
        4
280
     0
281
     0
  0
ENDSEC
  0
SECTION
  2
TABLES
  0
TABLE
  2
VPORT
  5
8
330
0
100
AcDbSymbolTable
 70
     1
  0
VPORT
  5
29
330
8
100
AcDbSymbolTableRecord
100
AcDbViewportTableRecord
  2
*Active
 70
     0
 10
0.0
 20
0.0
 11
1.0
 21
1.0
 12
0.0
 22
0.0
 13
0.0
 23
0.0
 14
0.5
 24
0.5
 15
0.5
 25
0.5
 16
0.0
 26
0.0
 36
1.0
 17
5.984110190235242
 27
-67.39188333333333
 37
0.0
 40
12.0
 41
0.494598714357237
 42
50.0
 43
0.0
 44
0.0
 50
0.0
 51
0.0
 71
     0
 72
   100
 73
     1
 74
     3
 75
     0
 76
     0
 77
     0
 78
     0
281
     0
 65
     1
110
0.0
120
0.0
130
0.0
111
1.0
121
0.0
131
0.0
112
0.0
122
1.0
132
0.0
 79
     0
146
0.0
 60
     3
 61
     5
292
     1
282
     1
141
0.0
142
0.0
 63
   250
361
3F
  0
ENDTAB
  0
TABLE
  2
LTYPE
  5
5
330
0
100
AcDbSymbolTable
 70
     1
  0
LTYPE
  5
14
330
5
100
AcDbSymbolTableRecord
100
AcDbLinetypeTableRecord
  2
ByBlock
 70
     0
  3

 72
    65
 73
     0
 40
0.0
  0
LTYPE
  5
15
330
5
100
AcDbSymbolTableRecord
100
AcDbLinetypeTableRecord
  2
ByLayer
 70
     0
  3

 72
    65
 73
     0
 40
0.0
  0
LTYPE
  5
16
330
5
100
AcDbSymbolTableRecord
100
AcDbLinetypeTableRecord
  2
Continuous
 70
     0
  3
Solid line
 72
    65
 73
     0
 40
0.0
  0
ENDTAB
  0
TABLE
  2
LAYER
  5
2
330
0
100
AcDbSymbolTable
 70
     2
  0
LAYER
  5
10
330
2
100
AcDbSymbolTableRecord
100
AcDbLayerTableRecord
  2
0
 70
     0
 62
     7
  6
Continuous
370
    -3
390
F
347
3E
  0
LAYER
  5
40
330
2
100
AcDbSymbolTableRecord
100
AcDbLayerTableRecord
  2
Layer 1
 70
     0
 62
     7
  6
Continuous
370
    -3
390
F
347
3E
  0
ENDTAB
  0
TABLE
  2
STYLE
  5
3
330
0
100
AcDbSymbolTable
 70
     1
  0
STYLE
  5
11
330
3
100
AcDbSymbolTableRecord
100
AcDbTextStyleTableRecord
  2
Standard
 70
     0
 40
0.0
 41
1.0
 50
0.0
 71
     0
 42
0.2
  3
txt
  4

  0
ENDTAB
  0
TABLE
  2
VIEW
  5
6
330
0
100
AcDbSymbolTable
 70
     0
  0
ENDTAB
  0
TABLE
  2
UCS
  5
7
330
0
100
AcDbSymbolTable
 70
     0
  0
ENDTAB
  0
TABLE
  2
APPID
  5
9
330
0
100
AcDbSymbolTable
 70
     1
  0
APPID
  5
12
330
9
100
AcDbSymbolTableRecord
100
AcDbRegAppTableRecord
  2
ACAD
 70
     0
  0
ENDTAB
  0
TABLE
  2
DIMSTYLE
  5
A
330
0
100
AcDbSymbolTable
 70
     1
100
AcDbDimStyleTable
  0
DIMSTYLE
105
27
330
A
100
AcDbSymbolTableRecord
100
AcDbDimStyleTableRecord
  2
Standard
 70
     0
178
     0
340
11
  0
ENDTAB
  0
TABLE
  2
BLOCK_RECORD
  5
1
330
0
100
AcDbSymbolTable
 70
     1
  0
BLOCK_RECORD
  5
1F
330
1
100
AcDbSymbolTableRecord
100
AcDbBlockTableRecord
  2
*Model_Space
340
22
 70
     0
280
     1
281
     0
  0
BLOCK_RECORD
  5
1B
330
1
100
AcDbSymbolTableRecord
100
AcDbBlockTableRecord
  2
*Paper_Space
340
1E
 70
     0
280
     1
281
     0
  0
BLOCK_RECORD
  5
23
330
1
100
AcDbSymbolTableRecord
100
AcDbBlockTableRecord
  2
*Paper_Space0
340
26
 70
     0
280
     1
281
     0
  0
ENDTAB
  0
ENDSEC
  0
SECTION
  2
BLOCKS
  0
BLOCK
  5
20
330
1F
100
AcDbEntity
  8
0
100
AcDbBlockBegin
  2
*Model_Space
 70
     0
 10
0.0
 20
0.0
 30
0.0
  3
*Model_Space
  1

  0
ENDBLK
  5
21
330
1F
100
AcDbEntity
  8
0
100
AcDbBlockEnd
  0
BLOCK
  5
1C
330
1B
100
AcDbEntity
 67
     1
  8
0
100
AcDbBlockBegin
  2
*Paper_Space
 70
     0
 10
0.0
 20
0.0
 30
0.0
  3
*Paper_Space
  1

  0
ENDBLK
  5
1D
330
1B
100
AcDbEntity
 67
     1
  8
0
100
AcDbBlockEnd
  0
BLOCK
  5
24
330
23
100
AcDbEntity
  8
0
100
AcDbBlockBegin
  2
*Paper_Space0
 70
     0
 10
0.0
 20
0.0
 30
0.0
  3
*Paper_Space0
  1

  0
ENDBLK
  5
25
330
23
100
AcDbEntity
  8
0
100
AcDbBlockEnd
  0
ENDSEC
  0
SECTION
  2
ENTITIES
  0
SPLINE
  5
41
330
1F
100
AcDbEntity
  8
Layer 1
370
     0
100
AcDbSpline
210
0.0
220
0.0
230
1.0
 70
    11
 71
     3
 72
   209
 73
   205
 74
     0
 42
0.0000000001
 43
0.0000000001
 12
1.0
 22
0.0
 32
0.0
 13
1.0
 23
0.0
 33
0.0
 40
0.0
 40
0.0
 40
0.0
 40
0.0
 40
1.0
 40
1.0
 40
1.0
 40
2.0
 40
2.0
 40
2.0
 40
3.0
 40
3.0
 40
3.0
 40
4.0
 40
4.0
 40
4.0
 40
5.0
 40
5.0
 40
5.0
 40
6.0
 40
6.0
 40
6.0
 40
7.0
 40
7.0
 40
7.0
 40
8.0
 40
8.0
 40
8.0
 40
9.0
 40
9.0
 40
9.0
 40
10.0
 40
10.0
 40
10.0
 40
11.0
 40
11.0
 40
11.0
 40
12.0
 40
12.0
 40
12.0
 40
13.0
 40
13.0
 40
13.0
 40
14.0
 40
14.0
 40
14.0
 40
15.0
 40
15.0
 40
15.0
 40
16.0
 40
16.0
 40
16.0
 40
17.0
 40
17.0
 40
17.0
 40
18.0
 40
18.0
 40
18.0
 40
19.0
 40
19.0
 40
19.0
 40
20.0
 40
20.0
 40
20.0
 40
21.0
 40
21.0
 40
21.0
 40
22.0
 40
22.0
 40
22.0
 40
23.0
 40
23.0
 40
23.0
 40
24.0
 40
24.0
 40
24.0
 40
25.0
 40
25.0
 40
25.0
 40
26.0
 40
26.0
 40
26.0
 40
27.0
 40
27.0
 40
27.0
 40
28.0
 40
28.0
 40
28.0
 40
29.0
 40
29.0
 40
29.0
 40
30.0
 40
30.0
 40
30.0
 40
31.0
 40
31.0
 40
31.0
 40
32.0
 40
32.0
 40
32.0
 40
33.0
 40
33.0
 40
33.0
 40
34.0
 40
34.0
 40
34.0
 40
35.0
 40
35.0
 40
35.0
 40
36.0
 40
36.0
 40
36.0
 40
37.0
 40
37.0
 40
37.0
 40
38.0
 40
38.0
 40
38.0
 40
39.0
 40
39.0
 40
39.0
 40
40.0
 40
40.0
 40
40.0
 40
41.0
 40
41.0
 40
41.0
 40
42.0
 40
42.0
 40
42.0
 40
43.0
 40
43.0
 40
43.0
 40
44.0
 40
44.0
 40
44.0
 40
45.0
 40
45.0
 40
45.0
 40
46.0
 40
46.0
 40
46.0
 40
47.0
 40
47.0
 40
47.0
 40
48.0
 40
48.0
 40
48.0
 40
49.0
 40
49.0
 40
49.0
 40
50.0
 40
50.0
 40
50.0
 40
51.0
 40
51.0
 40
51.0
 40
52.0
 40
52.0
 40
52.0
 40
53.0
 40
53.0
 40
53.0
 40
54.0
 40
54.0
 40
54.0
 40
55.0
 40
55.0
 40
55.0
 40
56.0
 40
56.0
 40
56.0
 40
57.0
 40
57.0
 40
57.0
 40
58.0
 40
58.0
 40
58.0
 40
59.0
 40
59.0
 40
59.0
 40
60.0
 40
60.0
 40
60.0
 40
61.0
 40
61.0
 40
61.0
 40
62.0
 40
62.0
 40
62.0
 40
63.0
 40
63.0
 40
63.0
 40
64.0
 40
64.0
 40
64.0
 40
65.0
 40
65.0
 40
65.0
 40
66.0
 40
66.0
 40
66.0
 40
67.0
 40
67.0
 40
67.0
 40
68.0
 40
68.0
 40
68.0
 40
68.0
 10
8.795263888888888
 20
-66.03078749999999
 30
0.0
 10
8.79638727778456
 20
-66.01346944444442
 30
0.0
 10
8.797248388873918
 20
-65.9960472222222
 30
0.0
 10
8.797876166635836
 20
-65.97853333333332
 30
0.0
 10
8.803778944264497
 20
-65.81406527777777
 30
0.0
 10
8.846551165406202
 20
-65.6545472222222
 30
0.0
 10
8.886385886622115
 20
-65.49579861111111
 30
0.0
 10
8.924560885657733
 20
-65.34367222222221
 30
0.0
 10
8.980810884236739
 20
-65.17694444444444
 30
0.0
 10
8.93384722222221
 20
-65.0208347222222
 30
0.0
 10
8.910102552689649
 20
-64.94188472222221
 30
0.0
 10
8.843273387711228
 20
-64.89585972222221
 30
0.0
 10
8.760745612018278
 20
-64.89919027777776
 30
0.0
 10
8.67829561410114
 20
-64.90249444444443
 30
0.0
 10
8.605537282605837
 20
-64.93359166666667
 30
0.0
 10
8.538276173193884
 20
-64.97850555555556
 30
0.0
 10
8.19689284848462
 20
-65.2064861111111
 30
0.0
 10
8.061705351899743
 20
-65.64872222222223
 30
0.0
 10
7.947113688127906
 20
-66.02152777777776
 30
0.0
 10
7.861765079172882
 20
-66.29920277777777
 30
0.0
 10
7.665259528581474
 20
-66.54134166666667
 30
0.0
 10
7.43532064550133
 20
-66.71527916666665
 30
0.0
 10
7.406222222222216
 20
-66.7372847222222
 30
0.0
 10
7.385585924535512
 20
-66.73104305555555
 30
0.0
 10
7.375647035897701
 20
-66.69545277777777
 30
0.0
 10
7.372303980426598
 20
-66.68342499999999
 30
0.0
 10
7.372630369307242
 20
-66.67024722222222
 30
0.0
 10
7.372147035986118
 20
-66.65755277777775
 30
0.0
 10
7.348103981037942
 20
-66.02069305555554
 30
0.0
 10
7.63326230716757
 20
-65.3451347222222
 30
0.0
 10
7.302705371073696
 20
-64.74494861111111
 30
0.0
 10
7.075978987912397
 20
-64.33331388888887
 30
0.0
 10
7.01591510054085
 20
-63.84065277777778
 30
0.0
 10
6.736162329830222
 20
-63.45819444444444
 30
0.0
 10
6.580601222648915
 20
-63.24552083333333
 30
0.0
 10
6.480716502949993
 20
-63.00660833333333
 30
0.0
 10
6.406729004819074
 20
-62.75586388888888
 30
0.0
 10
6.369585950201831
 20
-62.62996249999999
 30
0.0
 10
6.317254007079403
 20
-62.51419583333333
 30
0.0
 10
6.216884565170504
 20
-62.4245236111111
 30
0.0
 10
6.10555956798281
 20
-62.32506944444442
 30
0.0
 10
5.979670682274142
 20
-62.34135555555554
 30
0.0
 10
5.895640128841377
 20
-62.46578194444444
 30
0.0
 10
5.839259574710113
 20
-62.54925
 30
0.0
 10
5.803499999999998
 20
-62.64105
 30
0.0
 10
5.784615131646104
 20
-62.73858472222221
 30
0.0
 10
5.734867910680602
 20
-62.99554722222221
 30
0.0
 10
5.740954021637966
 20
-63.25449305555556
 30
0.0
 10
5.790609575939116
 20
-63.50919583333332
 30
0.0
 10
5.891526240056414
 20
-64.02677499999999
 30
0.0
 10
6.063073457944989
 20
-64.52483055555555
 30
0.0
 10
6.232060953676005
 20
-65.02302916666665
 30
0.0
 10
6.299699840856192
 20
-65.22240694444443
 30
0.0
 10
6.222644287247223
 20
-65.44701805555555
 30
0.0
 10
6.197177621223899
 20
-65.64891805555554
 30
0.0
 10
6.168391510839986
 20
-65.87717222222221
 30
0.0
 10
6.148997066885486
 20
-66.1065111111111
 30
0.0
 10
6.135910956104959
 20
-66.33616388888888
 30
0.0
 10
6.135910956104959
 20
-66.40473055555553
 30
0.0
 10
6.136577622754784
 20
-66.47329722222221
 30
0.0
 10
6.135545678336408
 20
-66.5418375
 30
0.0
 10
6.135166666666666
 20
-66.56619583333331
 30
0.0
 10
6.15185817792432
 20
-66.60514166666667
 30
0.0
 10
6.110404012304874
 20
-66.60625138888886
 30
0.0
 10
6.070909568858142
 20
-66.60729583333332
 30
0.0
 10
6.08015679084676
 20
-66.56790555555554
 30
0.0
 10
6.079804013077895
 20
-66.54299999999999
 30
0.0
 10
6.076173457614055
 20
-66.28735833333333
 30
0.0
 10
6.099577623689482
 20
-66.03329583333331
 30
0.0
 10
6.124522067503777
 20
-65.77925972222222
 30
0.0
 10
6.142154011502801
 20
-65.59977222222223
 30
0.0
 10
6.172349844073324
 20
-65.42225555555554
 30
0.0
 10
6.20127777777778
 20
-65.24444027777776
 30
0.0
 10
6.209962343123152
 20
-65.19106249999999
 30
0.0
 10
6.211687343079575
 20
-65.13738472222222
 30
0.0
 10
6.193663732423778
 20
-65.08366805555553
 30
0.0
 10
6.054284569278125
 20
-64.66811527777776
 30
0.0
 10
5.912801239518962
 20
-64.25339722222222
 30
0.0
 10
5.804466520033505
 20
-63.82797083333333
 30
0.0
 10
5.718320688876398
 20
-63.48968333333333
 30
0.0
 10
5.666654023514941
 20
-63.15011527777776
 30
0.0
 10
5.717041666666672
 20
-62.80118333333333
 30
0.0
 10
5.737062355069611
 20
-62.66245694444443
 30
0.0
 10
5.775877631866832
 20
-62.53020833333332
 30
0.0
 10
5.862467907457155
 20
-62.41630833333331
 30
0.0
 10
5.946079016456072
 20
-62.30632777777777
 30
0.0
 10
6.051606791567994
 20
-62.27675972222222
 30
0.0
 10
6.179219288344231
 20
-62.32760277777778
 30
0.0
 10
6.18623178816708
 20
-62.33041111111111
 30
0.0
 10
6.197085954559548
 20
-62.33675833333334
 30
0.0
 10
6.199919287821305
 20
-62.33427777777776
 30
0.0
 10
6.208199843167677
 20
-62.32709444444443
 30
0.0
 10
6.201879009994021
 20
-62.3167236111111
 30
0.0
 10
6.199397065612275
 20
-62.30775138888887
 30
0.0
 10
6.187942899234965
 20
-62.26624583333334
 30
0.0
 10
6.176449843969749
 20
-62.22476666666665
 30
0.0
 10
6.164891510928403
 20
-62.18329999999999
 30
0.0
 10
6.120042900950263
 20
-62.0224486111111
 30
0.0
 10
6.056085958121508
 20
-61.86990416666665
 30
0.0
 10
5.96206512716334
 20
-61.73141388888888
 30
0.0
 10
5.898265128775064
 20
-61.63744444444443
 30
0.0
 10
5.819669297427228
 20
-61.61572499999998
 30
0.0
 10
5.717237355570433
 20
-61.66446666666666
 30
0.0
 10
5.404520696803653
 20
-61.81326249999999
 30
0.0
 10
5.278266533326435
 20
-62.37774166666665
 30
0.0
 10
5.31922347673622
 20
-62.68898194444444
 30
0.0
 10
5.343829031670187
 20
-62.87577083333333
 30
0.0
 10
5.398709585839343
 20
-63.05295972222221
 30
0.0
 10
5.467810972982584
 20
-63.22663611111109
 30
0.0
 10
5.543481804404311
 20
-63.41680694444443
 30
0.0
 10
5.606863747247593
 20
-63.60995555555554
 30
0.0
 10
5.63271096881686
 20
-63.8142847222222
 30
0.0
 10
5.667490134604931
 20
-64.08921666666666
 30
0.0
 10
5.757592910106521
 20
-64.35183333333333
 30
0.0
 10
5.74350124379584
 20
-64.63077499999999
 30
0.0
 10
5.733248466277069
 20
-64.83369305555553
 30
0.0
 10
5.742638888888892
 20
-65.03586666666665
 30
0.0
 10
5.774649854120071
 20
-65.23630277777775
 30
0.0
 10
5.791810964797656
 20
-65.34360694444445
 30
0.0
 10
5.692369300643096
 20
-65.425625
 30
0.0
 10
5.636759579825694
 20
-65.50649444444444
 30
0.0
 10
5.571301248145978
 20
-65.60170416666665
 30
0.0
 10
5.511105416333319
 20
-65.70045416666666
 30
0.0
 10
5.44389708469781
 20
-65.7944611111111
 30
0.0
 10
5.303812366014427
 20
-65.99039305555553
 30
0.0
 10
5.124010981667703
 20
-66.09326805555555
 30
0.0
 10
4.945477652844501
 20
-66.24408888888888
 30
0.0
 10
4.937183208609591
 20
-66.25110277777776
 30
0.0
 10
4.928995708816425
 20
-66.26392777777778
 30
0.0
 10
4.917945709095571
 20
-66.26054444444445
 30
0.0
 10
4.903397098351989
 20
-66.25606527777778
 30
0.0
 10
4.907576264913081
 20
-66.23921805555554
 30
0.0
 10
4.90582626495729
 20
-66.22759444444445
 30
0.0
 10
4.809009600736418
 20
-65.58685555555556
 30
0.0
 10
4.681763888888882
 20
-64.91603888888888
 30
0.0
 10
4.468606831557937
 20
-64.30331388888888
 30
0.0
 10
4.410709610798323
 20
-64.13687361111111
 30
0.0
 10
4.318999999999997
 20
-63.98980138888889
 30
0.0
 10
4.193622116282414
 20
-63.86516666666665
 30
0.0
 10
4.099026285338772
 20
-63.77114583333332
 30
0.0
 10
3.959358233311529
 20
-63.71015416666665
 30
0.0
 10
3.820109625718133
 20
-63.78907777777777
 30
0.0
 10
3.741891572138532
 20
-63.83343055555554
 30
0.0
 10
3.690290184553204
 20
-63.89988194444443
 30
0.0
 10
3.658370740915112
 20
-63.98336249999998
 30
0.0
 10
3.568894354286587
 20
-64.21499999999999
 30
0.0
 10
3.608480464397669
 20
-64.49759999999999
 30
0.0
 10
3.617191575288719
 20
-64.74042916666667
 30
0.0
 10
3.633177685995987
 20
-65.18573333333332
 30
0.0
 10
3.742165183242731
 20
-65.64365416666666
 30
0.0
 10
3.706798517469502
 20
-66.08835833333332
 30
0.0
 10
3.67632907379478
 20
-66.47601388888887
 30
0.0
 10
3.495469356141459
 20
-66.83330416666666
 30
0.0
 10
3.344519359954777
 20
-67.18850555555554
 30
0.0
 10
3.177647141948101
 20
-67.58119027777778
 30
0.0
 10
3.087022144237481
 20
-67.97038749999999
 30
0.0
 10
3.131230476454018
 20
-68.39935277777776
 30
0.0
 10
3.15505269807444
 20
-68.63045555555554
 30
0.0
 10
3.219061029790787
 20
-68.85296388888888
 30
0.0
 10
3.287666666666673
 20
-69.07381388888888
 30
0.0
 10
3.441517968615496
 20
-69.56903472222221
 30
0.0
 10
3.389211025492437
 20
-70.08857361111112
 30
0.0
 10
3.335323526853749
 20
-70.59494722222222
 30
0.0
 10
3.277127694990567
 20
-71.14186111111111
 30
0.0
 10
3.232161029459853
 20
-71.69023749999998
 30
0.0
 10
3.150716587072869
 20
-72.23442083333333
 30
0.0
 10
3.115637421292377
 20
-72.46880138888888
 30
0.0
 10
3.074117977896802
 20
-72.70229305555554
 30
0.0
 10
3.022816590303894
 20
-72.93369583333333
 30
0.0
 10
3.008372146224347
 20
-72.99884027777776
 30
0.0
 10
3.016142979361373
 20
-73.01574027777777
 30
0.0
 10
3.073922144568415
 20
-73.05151249999999
 30
0.0
 10
3.511873522393721
 20
-73.32265833333331
 30
0.0
 10
4.072042952687095
 20
-73.41180694444442
 30
0.0
 10
4.580376273178849
 20
-73.38827222222221
 30
0.0
 10
4.945581819508535
 20
-73.3713722222222
 30
0.0
 10
5.367638888888892
 20
-73.30129166666666
 30
0.0
 10
5.664408190238342
 20
-73.07219999999998
 30
0.0
 10
5.789460964857022
 20
-72.97582777777777
 30
0.0
 10
5.721376244354764
 20
-72.66266805555553
 30
0.0
 10
5.719077633301721
 20
-72.52929583333334
 30
0.0
 10
5.7101581890826
 20
-72.01389722222221
 30
0.0
 10
5.709948466865677
 20
-71.49912499999999
 30
0.0
 10
5.719483188847031
 20
-70.98374027777777
 30
0.0
 10
5.724133188729562
 20
-70.73231527777776
 30
0.0
 10
5.726040133125833
 20
-70.47680416666665
 30
0.0
 10
5.875397073797203
 20
-70.26219722222221
 30
0.0
 10
6.092877623858739
 20
-69.94971527777776
 30
0.0
 10
6.206998454309137
 20
-69.5699222222222
 30
0.0
 10
6.414617893508673
 20
-69.24755416666666
 30
0.0
 10
6.627017888142998
 20
-68.91776944444442
 30
0.0
 10
6.875019270766844
 20
-68.59662916666666
 30
0.0
 10
7.173878985439235
 20
-68.3406861111111
 30
0.0
 10
7.326423426030082
 20
-68.21005694444443
 30
0.0
 10
7.495502588425451
 20
-68.1043861111111
 30
0.0
 10
7.64092897364056
 20
-67.96468055555556
 30
0.0
 10
7.793016469798506
 20
-67.8185736111111
 30
0.0
 10
7.927419244180984
 20
-67.65478472222222
 30
0.0
 10
8.048213685573904
 20
-67.48214027777776
 30
0.0
 10
8.236935903028602
 20
-67.21241944444445
 30
0.0
 10
8.367903955275626
 20
-66.8990236111111
 30
0.0
 10
8.575210894483057
 20
-66.64498749999998
 30
0.0
 10
8.722962279639432
 20
-66.46394583333333
 30
0.0
 10
8.780727555957936
 20
-66.25611805555553
 30
0.0
 10
8.795263888888888
 20
-66.03078749999999
 30
0.0
  0
HATCH
  5
42
330
1F
100
AcDbEntity
  8
Layer 1
 62
     7
420
 16777215
100
AcDbHatch
 10
0.0
 20
0.0
 30
0.0
210
0.0
220
0.0
230
1.0
  2
SOLID
 70
     1
 71
     0
 91
        1
 92
        1
 93
        1
 72
     4
 94
        3
 73
     0
 74
     1
 95
      209
 96
      205
 40
0.0
 40
0.0
 40
0.0
 40
0.0
 40
1.0
 40
1.0
 40
1.0
 40
2.0
 40
2.0
 40
2.0
 40
3.0
 40
3.0
 40
3.0
 40
4.0
 40
4.0
 40
4.0
 40
5.0
 40
5.0
 40
5.0
 40
6.0
 40
6.0
 40
6.0
 40
7.0
 40
7.0
 40
7.0
 40
8.0
 40
8.0
 40
8.0
 40
9.0
 40
9.0
 40
9.0
 40
10.0
 40
10.0
 40
10.0
 40
11.0
 40
11.0
 40
11.0
 40
12.0
 40
12.0
 40
12.0
 40
13.0
 40
13.0
 40
13.0
 40
14.0
 40
14.0
 40
14.0
 40
15.0
 40
15.0
 40
15.0
 40
16.0
 40
16.0
 40
16.0
 40
17.0
 40
17.0
 40
17.0
 40
18.0
 40
18.0
 40
18.0
 40
19.0
 40
19.0
 40
19.0
 40
20.0
 40
20.0
 40
20.0
 40
21.0
 40
21.0
 40
21.0
 40
22.0
 40
22.0
 40
22.0
 40
23.0
 40
23.0
 40
23.0
 40
24.0
 40
24.0
 40
24.0
 40
25.0
 40
25.0
 40
25.0
 40
26.0
 40
26.0
 40
26.0
 40
27.0
 40
27.0
 40
27.0
 40
28.0
 40
28.0
 40
28.0
 40
29.0
 40
29.0
 40
29.0
 40
30.0
 40
30.0
 40
30.0
 40
31.0
 40
31.0
 40
31.0
 40
32.0
 40
32.0
 40
32.0
 40
33.0
 40
33.0
 40
33.0
 40
34.0
 40
34.0
 40
34.0
 40
35.0
 40
35.0
 40
35.0
 40
36.0
 40
36.0
 40
36.0
 40
37.0
 40
37.0
 40
37.0
 40
38.0
 40
38.0
 40
38.0
 40
39.0
 40
39.0
 40
39.0
 40
40.0
 40
40.0
 40
40.0
 40
41.0
 40
41.0
 40
41.0
 40
42.0
 40
42.0
 40
42.0
 40
43.0
 40
43.0
 40
43.0
 40
44.0
 40
44.0
 40
44.0
 40
45.0
 40
45.0
 40
45.0
 40
46.0
 40
46.0
 40
46.0
 40
47.0
 40
47.0
 40
47.0
 40
48.0
 40
48.0
 40
48.0
 40
49.0
 40
49.0
 40
49.0
 40
50.0
 40
50.0
 40
50.0
 40
51.0
 40
51.0
 40
51.0
 40
52.0
 40
52.0
 40
52.0
 40
53.0
 40
53.0
 40
53.0
 40
54.0
 40
54.0
 40
54.0
 40
55.0
 40
55.0
 40
55.0
 40
56.0
 40
56.0
 40
56.0
 40
57.0
 40
57.0
 40
57.0
 40
58.0
 40
58.0
 40
58.0
 40
59.0
 40
59.0
 40
59.0
 40
60.0
 40
60.0
 40
60.0
 40
61.0
 40
61.0
 40
61.0
 40
62.0
 40
62.0
 40
62.0
 40
63.0
 40
63.0
 40
63.0
 40
64.0
 40
64.0
 40
64.0
 40
65.0
 40
65.0
 40
65.0
 40
66.0
 40
66.0
 40
66.0
 40
67.0
 40
67.0
 40
67.0
 40
68.0
 40
68.0
 40
68.0
 40
68.0
 10
8.795263888888888
 20
-66.03078749999999
 10
8.79638727778456
 20
-66.01346944444442
 10
8.797248388873918
 20
-65.9960472222222
 10
8.797876166635836
 20
-65.97853333333332
 10
8.803778944264497
 20
-65.81406527777777
 10
8.846551165406202
 20
-65.6545472222222
 10
8.886385886622115
 20
-65.49579861111111
 10
8.924560885657733
 20
-65.34367222222221
 10
8.980810884236739
 20
-65.17694444444444
 10
8.93384722222221
 20
-65.0208347222222
 10
8.910102552689649
 20
-64.94188472222221
 10
8.843273387711228
 20
-64.89585972222221
 10
8.760745612018278
 20
-64.89919027777776
 10
8.67829561410114
 20
-64.90249444444443
 10
8.605537282605837
 20
-64.93359166666667
 10
8.538276173193884
 20
-64.97850555555556
 10
8.19689284848462
 20
-65.2064861111111
 10
8.061705351899743
 20
-65.64872222222223
 10
7.947113688127906
 20
-66.02152777777776
 10
7.861765079172882
 20
-66.29920277777777
 10
7.665259528581474
 20
-66.54134166666667
 10
7.43532064550133
 20
-66.71527916666665
 10
7.406222222222216
 20
-66.7372847222222
 10
7.385585924535512
 20
-66.73104305555555
 10
7.375647035897701
 20
-66.69545277777777
 10
7.372303980426598
 20
-66.68342499999999
 10
7.372630369307242
 20
-66.67024722222222
 10
7.372147035986118
 20
-66.65755277777775
 10
7.348103981037942
 20
-66.02069305555554
 10
7.63326230716757
 20
-65.3451347222222
 10
7.302705371073696
 20
-64.74494861111111
 10
7.075978987912397
 20
-64.33331388888887
 10
7.01591510054085
 20
-63.84065277777778
 10
6.736162329830222
 20
-63.45819444444444
 10
6.580601222648915
 20
-63.24552083333333
 10
6.480716502949993
 20
-63.00660833333333
 10
6.406729004819074
 20
-62.75586388888888
 10
6.369585950201831
 20
-62.62996249999999
 10
6.317254007079403
 20
-62.51419583333333
 10
6.216884565170504
 20
-62.4245236111111
 10
6.10555956798281
 20
-62.32506944444442
 10
5.979670682274142
 20
-62.34135555555554
 10
5.895640128841377
 20
-62.46578194444444
 10
5.839259574710113
 20
-62.54925
 10
5.803499999999998
 20
-62.64105
 10
5.784615131646104
 20
-62.73858472222221
 10
5.734867910680602
 20
-62.99554722222221
 10
5.740954021637966
 20
-63.25449305555556
 10
5.790609575939116
 20
-63.50919583333332
 10
5.891526240056414
 20
-64.02677499999999
 10
6.063073457944989
 20
-64.52483055555555
 10
6.232060953676005
 20
-65.02302916666665
 10
6.299699840856192
 20
-65.22240694444443
 10
6.222644287247223
 20
-65.44701805555555
 10
6.197177621223899
 20
-65.64891805555554
 10
6.168391510839986
 20
-65.87717222222221
 10
6.148997066885486
 20
-66.1065111111111
 10
6.135910956104959
 20
-66.33616388888888
 10
6.135910956104959
 20
-66.40473055555553
 10
6.136577622754784
 20
-66.47329722222221
 10
6.135545678336408
 20
-66.5418375
 10
6.135166666666666
 20
-66.56619583333331
 10
6.15185817792432
 20
-66.60514166666667
 10
6.110404012304874
 20
-66.60625138888886
 10
6.070909568858142
 20
-66.60729583333332
 10
6.08015679084676
 20
-66.56790555555554
 10
6.079804013077895
 20
-66.54299999999999
 10
6.076173457614055
 20
-66.28735833333333
 10
6.099577623689482
 20
-66.03329583333331
 10
6.124522067503777
 20
-65.77925972222222
 10
6.142154011502801
 20
-65.59977222222223
 10
6.172349844073324
 20
-65.42225555555554
 10
6.20127777777778
 20
-65.24444027777776
 10
6.209962343123152
 20
-65.19106249999999
 10
6.211687343079575
 20
-65.13738472222222
 10
6.193663732423778
 20
-65.08366805555553
 10
6.054284569278125
 20
-64.66811527777776
 10
5.912801239518962
 20
-64.25339722222222
 10
5.804466520033505
 20
-63.82797083333333
 10
5.718320688876398
 20
-63.48968333333333
 10
5.666654023514941
 20
-63.15011527777776
 10
5.717041666666672
 20
-62.80118333333333
 10
5.737062355069611
 20
-62.66245694444443
 10
5.775877631866832
 20
-62.53020833333332
 10
5.862467907457155
 20
-62.41630833333331
 10
5.946079016456072
 20
-62.30632777777777
 10
6.051606791567994
 20
-62.27675972222222
 10
6.179219288344231
 20
-62.32760277777778
 10
6.18623178816708
 20
-62.33041111111111
 10
6.197085954559548
 20
-62.33675833333334
 10
6.199919287821305
 20
-62.33427777777776
 10
6.208199843167677
 20
-62.32709444444443
 10
6.201879009994021
 20
-62.3167236111111
 10
6.199397065612275
 20
-62.30775138888887
 10
6.187942899234965
 20
-62.26624583333334
 10
6.176449843969749
 20
-62.22476666666665
 10
6.164891510928403
 20
-62.18329999999999
 10
6.120042900950263
 20
-62.0224486111111
 10
6.056085958121508
 20
-61.86990416666665
 10
5.96206512716334
 20
-61.73141388888888
 10
5.898265128775064
 20
-61.63744444444443
 10
5.819669297427228
 20
-61.61572499999998
 10
5.717237355570433
 20
-61.66446666666666
 10
5.404520696803653
 20
-61.81326249999999
 10
5.278266533326435
 20
-62.37774166666665
 10
5.31922347673622
 20
-62.68898194444444
 10
5.343829031670187
 20
-62.87577083333333
 10
5.398709585839343
 20
-63.05295972222221
 10
5.467810972982584
 20
-63.22663611111109
 10
5.543481804404311
 20
-63.41680694444443
 10
5.606863747247593
 20
-63.60995555555554
 10
5.63271096881686
 20
-63.8142847222222
 10
5.667490134604931
 20
-64.08921666666666
 10
5.757592910106521
 20
-64.35183333333333
 10
5.74350124379584
 20
-64.63077499999999
 10
5.733248466277069
 20
-64.83369305555553
 10
5.742638888888892
 20
-65.03586666666665
 10
5.774649854120071
 20
-65.23630277777775
 10
5.791810964797656
 20
-65.34360694444445
 10
5.692369300643096
 20
-65.425625
 10
5.636759579825694
 20
-65.50649444444444
 10
5.571301248145978
 20
-65.60170416666665
 10
5.511105416333319
 20
-65.70045416666666
 10
5.44389708469781
 20
-65.7944611111111
 10
5.303812366014427
 20
-65.99039305555553
 10
5.124010981667703
 20
-66.09326805555555
 10
4.945477652844501
 20
-66.24408888888888
 10
4.937183208609591
 20
-66.25110277777776
 10
4.928995708816425
 20
-66.26392777777778
 10
4.917945709095571
 20
-66.26054444444445
 10
4.903397098351989
 20
-66.25606527777778
 10
4.907576264913081
 20
-66.23921805555554
 10
4.90582626495729
 20
-66.22759444444445
 10
4.809009600736418
 20
-65.58685555555556
 10
4.681763888888882
 20
-64.91603888888888
 10
4.468606831557937
 20
-64.30331388888888
 10
4.410709610798323
 20
-64.13687361111111
 10
4.318999999999997
 20
-63.98980138888889
 10
4.193622116282414
 20
-63.86516666666665
 10
4.099026285338772
 20
-63.77114583333332
 10
3.959358233311529
 20
-63.71015416666665
 10
3.820109625718133
 20
-63.78907777777777
 10
3.741891572138532
 20
-63.83343055555554
 10
3.690290184553204
 20
-63.89988194444443
 10
3.658370740915112
 20
-63.98336249999998
 10
3.568894354286587
 20
-64.21499999999999
 10
3.608480464397669
 20
-64.49759999999999
 10
3.617191575288719
 20
-64.74042916666667
 10
3.633177685995987
 20
-65.18573333333332
 10
3.742165183242731
 20
-65.64365416666666
 10
3.706798517469502
 20
-66.08835833333332
 10
3.67632907379478
 20
-66.47601388888887
 10
3.495469356141459
 20
-66.83330416666666
 10
3.344519359954777
 20
-67.18850555555554
 10
3.177647141948101
 20
-67.58119027777778
 10
3.087022144237481
 20
-67.97038749999999
 10
3.131230476454018
 20
-68.39935277777776
 10
3.15505269807444
 20
-68.63045555555554
 10
3.219061029790787
 20
-68.85296388888888
 10
3.287666666666673
 20
-69.07381388888888
 10
3.441517968615496
 20
-69.56903472222221
 10
3.389211025492437
 20
-70.08857361111112
 10
3.335323526853749
 20
-70.59494722222222
 10
3.277127694990567
 20
-71.14186111111111
 10
3.232161029459853
 20
-71.69023749999998
 10
3.150716587072869
 20
-72.23442083333333
 10
3.115637421292377
 20
-72.46880138888888
 10
3.074117977896802
 20
-72.70229305555554
 10
3.022816590303894
 20
-72.93369583333333
 10
3.008372146224347
 20
-72.99884027777776
 10
3.016142979361373
 20
-73.01574027777777
 10
3.073922144568415
 20
-73.05151249999999
 10
3.511873522393721
 20
-73.32265833333331
 10
4.072042952687095
 20
-73.41180694444442
 10
4.580376273178849
 20
-73.38827222222221
 10
4.945581819508535
 20
-73.3713722222222
 10
5.367638888888892
 20
-73.30129166666666
 10
5.664408190238342
 20
-73.07219999999998
 10
5.789460964857022
 20
-72.97582777777777
 10
5.721376244354764
 20
-72.66266805555553
 10
5.719077633301721
 20
-72.52929583333334
 10
5.7101581890826
 20
-72.01389722222221
 10
5.709948466865677
 20
-71.49912499999999
 10
5.719483188847031
 20
-70.98374027777777
 10
5.724133188729562
 20
-70.73231527777776
 10
5.726040133125833
 20
-70.47680416666665
 10
5.875397073797203
 20
-70.26219722222221
 10
6.092877623858739
 20
-69.94971527777776
 10
6.206998454309137
 20
-69.5699222222222
 10
6.414617893508673
 20
-69.24755416666666
 10
6.627017888142998
 20
-68.91776944444442
 10
6.875019270766844
 20
-68.59662916666666
 10
7.173878985439235
 20
-68.3406861111111
 10
7.326423426030082
 20
-68.21005694444443
 10
7.495502588425451
 20
-68.1043861111111
 10
7.64092897364056
 20
-67.96468055555556
 10
7.793016469798506
 20
-67.8185736111111
 10
7.927419244180984
 20
-67.65478472222222
 10
8.048213685573904
 20
-67.48214027777776
 10
8.236935903028602
 20
-67.21241944444445
 10
8.367903955275626
 20
-66.8990236111111
 10
8.575210894483057
 20
-66.64498749999998
 10
8.722962279639432
 20
-66.46394583333333
 10
8.780727555957936
 20
-66.25611805555553
 10
8.795263888888888
 20
-66.03078749999999
 97
        0
 97
        0
 75
     2
 76
     1
 98
        0
  0
SPLINE
  5
43
330
1F
100
AcDbEntity
  8
Layer 1
370
     0
100
AcDbSpline
210
0.0
220
0.0
230
1.0
 70
    11
 71
     3
 72
    44
 73
    40
 74
     0
 42
0.0000000001
 43
0.0000000001
 12
1.0
 22
0.0
 32
0.0
 13
1.0
 23
0.0
 33
0.0
 40
0.0
 40
0.0
 40
0.0
 40
0.0
 40
1.0
 40
1.0
 40
1.0
 40
2.0
 40
2.0
 40
2.0
 40
3.0
 40
3.0
 40
3.0
 40
4.0
 40
4.0
 40
4.0
 40
5.0
 40
5.0
 40
5.0
 40
6.0
 40
6.0
 40
6.0
 40
7.0
 40
7.0
 40
7.0
 40
8.0
 40
8.0
 40
8.0
 40
9.0
 40
9.0
 40
9.0
 40
10.0
 40
10.0
 40
10.0
 40
11.0
 40
11.0
 40
11.0
 40
12.0
 40
12.0
 40
12.0
 40
13.0
 40
13.0
 40
13.0
 40
13.0
 10
7.775162303582874
 20
-61.81175972222223
 30
0.0
 10
7.774913692478044
 20
-61.57236527777776
 30
0.0
 10
7.72009980497387
 20
-61.32004027777778
 30
0.0
 10
7.45144981176054
 20
-61.41082222222222
 30
0.0
 10
7.1745053743123
 20
-61.5043986111111
 30
0.0
 10
7.01784722222222
 20
-61.92462777777776
 30
0.0
 10
6.975335934899299
 20
-62.18639583333334
 30
0.0
 10
6.92613732503105
 20
-62.48931666666665
 30
0.0
 10
6.94504982455328
 20
-62.80436944444444
 30
0.0
 10
6.852477604669629
 20
-63.09976805555554
 30
0.0
 10
6.822922049860709
 20
-63.19411527777778
 30
0.0
 10
6.726119274528375
 20
-63.34797916666667
 30
0.0
 10
6.792635939514689
 20
-63.44249583333332
 30
0.0
 10
6.891423437019107
 20
-63.58286805555556
 30
0.0
 10
6.966285935127921
 20
-63.7353611111111
 30
0.0
 10
7.021856767057417
 20
-63.89790972222221
 30
0.0
 10
7.097580376255589
 20
-64.1193861111111
 30
0.0
 10
7.159995652456624
 20
-64.3458125
 30
0.0
 10
7.268827594151743
 20
-64.55509027777778
 30
0.0
 10
7.323955370536876
 20
-64.66110138888888
 30
0.0
 10
7.374942869248823
 20
-64.76929305555555
 30
0.0
 10
7.426699812385777
 20
-64.87702777777776
 30
0.0
 10
7.436899812128104
 20
-64.89822499999998
 30
0.0
 10
7.443352589742871
 20
-64.89664444444443
 30
0.0
 10
7.453799811701174
 20
-64.87856805555556
 30
0.0
 10
7.46098314485304
 20
-64.8661486111111
 30
0.0
 10
7.469603977968593
 20
-64.85457638888887
 30
0.0
 10
7.4767470333437
 20
-64.84215694444444
 30
0.0
 10
7.640863695864431
 20
-64.55727222222221
 30
0.0
 10
7.731933138008268
 20
-64.2520138888889
 30
0.0
 10
7.728510915872498
 20
-63.92166666666665
 30
0.0
 10
7.724670638191734
 20
-63.55102777777776
 30
0.0
 10
7.844551190718852
 20
-63.18584861111109
 30
0.0
 10
7.806349802795012
 20
-62.81626805555555
 30
0.0
 10
7.781523414533289
 20
-62.57627083333333
 30
0.0
 10
7.729163693633786
 20
-62.35527777777777
 30
0.0
 10
7.755115081867087
 20
-62.11105
 30
0.0
 10
7.762480359458802
 20
-62.04169999999999
 30
0.0
 10
7.775280359135447
 20
-61.92825833333333
 30
0.0
 10
7.775162303582874
 20
-61.81175972222223
 30
0.0
  0
HATCH
  5
44
330
1F
100
AcDbEntity
  8
Layer 1
 62
     7
420
 16777215
100
AcDbHatch
 10
0.0
 20
0.0
 30
0.0
210
0.0
220
0.0
230
1.0
  2
SOLID
 70
     1
 71
     0
 91
        1
 92
        1
 93
        1
 72
     4
 94
        3
 73
     0
 74
     1
 95
       44
 96
       40
 40
0.0
 40
0.0
 40
0.0
 40
0.0
 40
1.0
 40
1.0
 40
1.0
 40
2.0
 40
2.0
 40
2.0
 40
3.0
 40
3.0
 40
3.0
 40
4.0
 40
4.0
 40
4.0
 40
5.0
 40
5.0
 40
5.0
 40
6.0
 40
6.0
 40
6.0
 40
7.0
 40
7.0
 40
7.0
 40
8.0
 40
8.0
 40
8.0
 40
9.0
 40
9.0
 40
9.0
 40
10.0
 40
10.0
 40
10.0
 40
11.0
 40
11.0
 40
11.0
 40
12.0
 40
12.0
 40
12.0
 40
13.0
 40
13.0
 40
13.0
 40
13.0
 10
7.775162303582874
 20
-61.81175972222223
 10
7.774913692478044
 20
-61.57236527777776
 10
7.72009980497387
 20
-61.32004027777778
 10
7.45144981176054
 20
-61.41082222222222
 10
7.1745053743123
 20
-61.5043986111111
 10
7.01784722222222
 20
-61.92462777777776
 10
6.975335934899299
 20
-62.18639583333334
 10
6.92613732503105
 20
-62.48931666666665
 10
6.94504982455328
 20
-62.80436944444444
 10
6.852477604669629
 20
-63.09976805555554
 10
6.822922049860709
 20
-63.19411527777778
 10
6.726119274528375
 20
-63.34797916666667
 10
6.792635939514689
 20
-63.44249583333332
 10
6.891423437019107
 20
-63.58286805555556
 10
6.966285935127921
 20
-63.7353611111111
 10
7.021856767057417
 20
-63.89790972222221
 10
7.097580376255589
 20
-64.1193861111111
 10
7.159995652456624
 20
-64.3458125
 10
7.268827594151743
 20
-64.55509027777778
 10
7.323955370536876
 20
-64.66110138888888
 10
7.374942869248823
 20
-64.76929305555555
 10
7.426699812385777
 20
-64.87702777777776
 10
7.436899812128104
 20
-64.89822499999998
 10
7.443352589742871
 20
-64.89664444444443
 10
7.453799811701174
 20
-64.87856805555556
 10
7.46098314485304
 20
-64.8661486111111
 10
7.469603977968593
 20
-64.85457638888887
 10
7.4767470333437
 20
-64.84215694444444
 10
7.640863695864431
 20
-64.55727222222221
 10
7.731933138008268
 20
-64.2520138888889
 10
7.728510915872498
 20
-63.92166666666665
 10
7.724670638191734
 20
-63.55102777777776
 10
7.844551190718852
 20
-63.18584861111109
 10
7.806349802795012
 20
-62.81626805555555
 10
7.781523414533289
 20
-62.57627083333333
 10
7.729163693633786
 20
-62.35527777777777
 10
7.755115081867087
 20
-62.11105
 10
7.762480359458802
 20
-62.04169999999999
 10
7.775280359135447
 20
-61.92825833333333
 10
7.775162303582874
 20
-61.81175972222223
 97
        0
 97
        0
 75
     2
 76
     1
 98
        0
  0
ENDSEC
  0
SECTION
  2
OBJECTS
  0
DICTIONARY
  5
C
330
0
100
AcDbDictionary
281
     1
  3
ACAD_GROUP
350
D
  3
ACAD_LAYOUT
350
1A
  3
ACAD_MATERIAL
350
3B
  3
ACAD_MLEADERSTYLE
350
46
  3
ACAD_MLINESTYLE
350
17
  3
ACAD_PLOTSETTINGS
350
19
  3
ACAD_PLOTSTYLENAME
350
E
  3
ACAD_TABLESTYLE
350
45
  3
ACAD_VISUALSTYLE
350
2A
  0
SUN
  5
3F
330
29
100
AcDbSun
 90
        1
290
     0
 63
     7
421
 16777215
 40
1.0
291
     1
 91
  2455826
 92
 54000000
292
     0
 70
     2
 71
   256
280
     1
  0
DICTIONARY
  5
D
102
{ACAD_REACTORS
330
C
102
}
330
C
100
AcDbDictionary
281
     1
  0
DICTIONARY
  5
1A
102
{ACAD_REACTORS
330
C
102
}
330
C
100
AcDbDictionary
281
     1
  3
Layout1
350
1E
  3
Layout2
350
26
  3
Model
350
22
  0
DICTIONARY
  5
3B
102
{ACAD_REACTORS
330
C
102
}
330
C
100
AcDbDictionary
281
     1
  3
ByBlock
350
3D
  3
ByLayer
350
3C
  3
Global
350
3E
  0
DICTIONARY
  5
46
102
{ACAD_REACTORS
330
C
102
}
330
C
100
AcDbDictionary
281
     1
  0
DICTIONARY
  5
17
102
{ACAD_REACTORS
330
C
102
}
330
C
100
AcDbDictionary
281
     1
  3
Standard
350
18
  0
DICTIONARY
  5
19
102
{ACAD_REACTORS
330
C
102
}
330
C
100
AcDbDictionary
281
     1
  0
ACDBDICTIONARYWDFLT
  5
E
102
{ACAD_REACTORS
330
C
102
}
330
C
100
AcDbDictionary
281
     1
  3
Normal
350
F
100
AcDbDictionaryWithDefault
340
F
  0
DICTIONARY
  5
45
102
{ACAD_REACTORS
330
C
102
}
330
C
100
AcDbDictionary
281
     1
  0
DICTIONARY
  5
2A
102
{ACAD_REACTORS
330
C
102
}
330
C
100
AcDbDictionary
281
     1
  3
2dWireframe
350
2F
  3
3D Hidden
350
31
  3
3dWireframe
350
30
  3
Basic
350
32
  3
Brighten
350
36
  3
ColorChange
350
3A
  3
Conceptual
350
34
  3
Dim
350
35
  3
Facepattern
350
39
  3
Flat
350
2B
  3
FlatWithEdges
350
2C
  3
Gouraud
350
2D
  3
GouraudWithEdges
350
2E
  3
Linepattern
350
38
  3
Realistic
350
33
  3
Thicken
350
37
  0
LAYOUT
  5
1E
102
{ACAD_REACTORS
330
1A
102
}
330
1A
100
AcDbPlotSettings
  1

  2
none_device
  4

  6

 40
0.0
 41
0.0
 42
0.0
 43
0.0
 44
0.0
 45
0.0
 46
0.0
 47
0.0
 48
0.0
 49
0.0
140
0.0
141
0.0
142
1.0
143
1.0
 70
   688
 72
     0
 73
     0
 74
     5
  7

 75
    16
 76
     0
 77
     2
 78
   300
147
1.0
148
0.0
149
0.0
100
AcDbLayout
  1
Layout1
 70
     1
 71
     1
 10
0.0
 20
0.0
 11
12.0
 21
9.0
 12
0.0
 22
0.0
 32
0.0
 14
1.000000000000000E+20
 24
1.000000000000000E+20
 34
1.000000000000000E+20
 15
-1.000000000000000E+20
 25
-1.000000000000000E+20
 35
-1.000000000000000E+20
146
0.0
 13
0.0
 23
0.0
 33
0.0
 16
1.0
 26
0.0
 36
0.0
 17
0.0
 27
1.0
 37
0.0
 76
     0
330
1B
  0
LAYOUT
  5
26
102
{ACAD_REACTORS
330
1A
102
}
330
1A
100
AcDbPlotSettings
  1

  2
none_device
  4

  6

 40
0.0
 41
0.0
 42
0.0
 43
0.0
 44
0.0
 45
0.0
 46
0.0
 47
0.0
 48
0.0
 49
0.0
140
0.0
141
0.0
142
1.0
143
1.0
 70
   688
 72
     0
 73
     0
 74
     5
  7

 75
    16
 76
     0
 77
     2
 78
   300
147
1.0
148
0.0
149
0.0
100
AcDbLayout
  1
Layout2
 70
     1
 71
     2
 10
0.0
 20
0.0
 11
0.0
 21
0.0
 12
0.0
 22
0.0
 32
0.0
 14
0.0
 24
0.0
 34
0.0
 15
0.0
 25
0.0
 35
0.0
146
0.0
 13
0.0
 23
0.0
 33
0.0
 16
1.0
 26
0.0
 36
0.0
 17
0.0
 27
1.0
 37
0.0
 76
     0
330
23
  0
LAYOUT
  5
22
102
{ACAD_REACTORS
330
1A
102
}
330
1A
100
AcDbPlotSettings
  1

  2
none_device
  4

  6

 40
0.0
 41
0.0
 42
0.0
 43
0.0
 44
0.0
 45
0.0
 46
0.0
 47
0.0
 48
0.0
 49
0.0
140
0.0
141
0.0
142
1.0
143
1.0
 70
  1712
 72
     0
 73
     0
 74
     0
  7

 75
     0
 76
     0
 77
     2
 78
   300
147
1.0
148
0.0
149
0.0
100
AcDbLayout
  1
Model
 70
     1
 71
     0
 10
0.0
 20
0.0
 11
12.0
 21
9.0
 12
0.0
 22
0.0
 32
0.0
 14
1.000000000000000E+20
 24
1.000000000000000E+20
 34
1.000000000000000E+20
 15
-1.000000000000000E+20
 25
-1.000000000000000E+20
 35
-1.000000000000000E+20
146
0.0
 13
0.0
 23
0.0
 33
0.0
 16
1.0
 26
0.0
 36
0.0
 17
0.0
 27
1.0
 37
0.0
 76
     0
330
1F
331
29
  0
MATERIAL
  5
3D
102
{ACAD_REACTORS
330
3B
102
}
330
3B
100
AcDbMaterial
  1
ByBlock
 72
     1
 94
      127
  0
MATERIAL
  5
3C
102
{ACAD_REACTORS
330
3B
102
}
330
3B
100
AcDbMaterial
  1
ByLayer
 72
     1
 94
      127
  0
MATERIAL
  5
3E
102
{ACAD_REACTORS
330
3B
102
}
330
3B
100
AcDbMaterial
  1
Global
 72
     1
 94
      127
  0
MLINESTYLE
  5
18
102
{ACAD_REACTORS
330
17
102
}
330
17
100
AcDbMlineStyle
  2
Standard
 70
     0
  3

 62
   256
 51
90.0
 52
90.0
 71
     2
 49
0.5
 62
   256
  6
BYLAYER
 49
-0.5
 62
   256
  6
BYLAYER
  0
ACDBPLACEHOLDER
  5
F
102
{ACAD_REACTORS
330
E
102
}
330
E
  0
VISUALSTYLE
  5
2F
102
{ACAD_REACTORS
330
2A
102
}
330
2A
100
AcDbVisualStyle
  2
2dWireframe
 70
     4
177
     2
291
     0
 71
     0
176
     1
 72
     2
176
     1
 73
     0
176
     1
 90
        0
176
     1
 40
-0.6
176
     1
 41
-30.0
176
     1
 62
     5
 63
     7
421
 16777215
176
     1
 74
     1
176
     1
 91
        4
176
     1
 64
     7
176
     1
 65
   257
176
     1
 75
     1
176
     1
175
     1
176
     1
 42
1.0
176
     1
 92
        0
176
     1
 66
   257
176
     1
 43
1.0
176
     1
 76
     1
176
     1
 77
     6
176
     1
 78
     2
176
     1
 67
     7
176
     1
 79
     5
176
     1
170
     0
176
     1
171
     0
176
     1
290
     0
176
     1
 93
        1
176
     1
 44
0.0
176
     1
173
     0
176
     1
  0
VISUALSTYLE
  5
31
102
{ACAD_REACTORS
330
2A
102
}
330
2A
100
AcDbVisualStyle
  2
3D Hidden
 70
     6
177
     2
291
     0
 71
     1
176
     1
 72
     2
176
     1
 73
     2
176
     1
 90
        0
176
     1
 40
-0.6
176
     1
 41
-30.0
176
     1
 62
     5
 63
     7
421
 16777215
176
     1
 74
     2
176
     1
 91
        2
176
     1
 64
     7
176
     1
 65
   257
176
     1
 75
     2
176
     1
175
     1
176
     1
 42
40.0
176
     1
 92
        0
176
     1
 66
   257
176
     1
 43
1.0
176
     1
 76
     1
176
     1
 77
     6
176
     1
 78
     2
176
     1
 67
     7
176
     1
 79
     3
176
     1
170
     0
176
     1
171
     0
176
     1
290
     0
176
     1
 93
        1
176
     1
 44
0.0
176
     1
173
     0
176
     1
  0
VISUALSTYLE
  5
30
102
{ACAD_REACTORS
330
2A
102
}
330
2A
100
AcDbVisualStyle
  2
3dWireframe
 70
     5
177
     2
291
     0
 71
     0
176
     1
 72
     2
176
     1
 73
     0
176
     1
 90
        0
176
     1
 40
-0.6
176
     1
 41
-30.0
176
     1
 62
     5
 63
     7
421
 16777215
176
     1
 74
     1
176
     1
 91
        4
176
     1
 64
     7
176
     1
 65
   257
176
     1
 75
     1
176
     1
175
     1
176
     1
 42
1.0
176
     1
 92
        0
176
     1
 66
   257
176
     1
 43
1.0
176
     1
 76
     1
176
     1
 77
     6
176
     1
 78
     2
176
     1
 67
     7
176
     1
 79
     5
176
     1
170
     0
176
     1
171
     0
176
     1
290
     0
176
     1
 93
        1
176
     1
 44
0.0
176
     1
173
     0
176
     1
  0
VISUALSTYLE
  5
32
102
{ACAD_REACTORS
330
2A
102
}
330
2A
100
AcDbVisualStyle
  2
Basic
 70
     7
177
     2
291
     1
 71
     1
176
     1
 72
     0
176
     1
 73
     1
176
     1
 90
        0
176
     1
 40
-0.6
176
     1
 41
-30.0
176
     1
 62
     5
 63
     7
421
 16777215
176
     1
 74
     0
176
     1
 91
        4
176
     1
 64
     7
176
     1
 65
   257
176
     1
 75
     1
176
     1
175
     1
176
     1
 42
1.0
176
     1
 92
        8
176
     1
 66
     7
176
     1
 43
1.0
176
     1
 76
     1
176
     1
 77
     6
176
     1
 78
     2
176
     1
 67
     7
176
     1
 79
     5
176
     1
170
     0
176
     1
171
     0
176
     1
290
     0
176
     1
 93
        1
176
     1
 44
0.0
176
     1
173
     0
176
     1
  0
VISUALSTYLE
  5
36
102
{ACAD_REACTORS
330
2A
102
}
330
2A
100
AcDbVisualStyle
  2
Brighten
 70
    12
177
     2
291
     1
 71
     2
176
     1
 72
     2
176
     1
 73
     0
176
     1
 90
        0
176
     1
 40
-0.6
176
     1
 41
-30.0
176
     1
 62
     5
 63
     7
421
 16777215
176
     1
 74
     1
176
     1
 91
        4
176
     1
 64
     7
176
     1
 65
   257
176
     1
 75
     1
176
     1
175
     1
176
     1
 42
1.0
176
     1
 92
        8
176
     1
 66
     7
176
     1
 43
1.0
176
     1
 76
     1
176
     1
 77
     6
176
     1
 78
     2
176
     1
 67
     7
176
     1
 79
     5
176
     1
170
     0
176
     1
171
     0
176
     1
290
     0
176
     1
 93
        1
176
     1
 44
50.0
176
     1
173
     0
176
     1
  0
VISUALSTYLE
  5
3A
102
{ACAD_REACTORS
330
2A
102
}
330
2A
100
AcDbVisualStyle
  2
ColorChange
 70
    16
177
     2
291
     1
 71
     2
176
     1
 72
     2
176
     1
 73
     3
176
     1
 90
        0
176
     1
 40
-0.6
176
     1
 41
-30.0
176
     1
 62
     5
 63
     8
421
  8421504
176
     1
 74
     1
176
     1
 91
        4
176
     1
 64
     7
176
     1
 65
   257
176
     1
 75
     1
176
     1
175
     1
176
     1
 42
1.0
176
     1
 92
        8
176
     1
 66
     8
424
  8421504
176
     1
 43
1.0
176
     1
 76
     1
176
     1
 77
     6
176
     1
 78
     2
176
     1
 67
     7
176
     1
 79
     5
176
     1
170
     0
176
     1
171
     0
176
     1
290
     0
176
     1
 93
        1
176
     1
 44
0.0
176
     1
173
     0
176
     1
  0
VISUALSTYLE
  5
34
102
{ACAD_REACTORS
330
2A
102
}
330
2A
100
AcDbVisualStyle
  2
Conceptual
 70
     9
177
     2
291
     0
 71
     3
176
     1
 72
     2
176
     1
 73
     0
176
     1
 90
        0
176
     1
 40
-0.6
176
     1
 41
-30.0
176
     1
 62
     5
 63
     7
421
 16777215
176
     1
 74
     2
176
     1
 91
        2
176
     1
 64
     7
176
     1
 65
   257
176
     1
 75
     1
176
     1
175
     1
176
     1
 42
40.0
176
     1
 92
        8
176
     1
 66
     7
176
     1
 43
1.0
176
     1
 76
     1
176
     1
 77
     6
176
     1
 78
     2
176
     1
 67
     7
176
     1
 79
     3
176
     1
170
     0
176
     1
171
     0
176
     1
290
     0
176
     1
 93
        1
176
     1
 44
0.0
176
     1
173
     0
176
     1
  0
VISUALSTYLE
  5
35
102
{ACAD_REACTORS
330
2A
102
}
330
2A
100
AcDbVisualStyle
  2
Dim
 70
    11
177
     2
291
     1
 71
     2
176
     1
 72
     2
176
     1
 73
     0
176
     1
 90
        0
176
     1
 40
-0.6
176
     1
 41
-30.0
176
     1
 62
     5
 63
     7
421
 16777215
176
     1
 74
     1
176
     1
 91
        4
176
     1
 64
     7
176
     1
 65
   257
176
     1
 75
     1
176
     1
175
     1
176
     1
 42
1.0
176
     1
 92
        8
176
     1
 66
     7
176
     1
 43
1.0
176
     1
 76
     1
176
     1
 77
     6
176
     1
 78
     2
176
     1
 67
     7
176
     1
 79
     5
176
     1
170
     0
176
     1
171
     0
176
     1
290
     0
176
     1
 93
        1
176
     1
 44
-50.0
176
     1
173
     0
176
     1
  0
VISUALSTYLE
  5
39
102
{ACAD_REACTORS
330
2A
102
}
330
2A
100
AcDbVisualStyle
  2
Facepattern
 70
    15
177
     2
291
     1
 71
     2
176
     1
 72
     2
176
     1
 73
     0
176
     1
 90
        0
176
     1
 40
-0.6
176
     1
 41
-30.0
176
     1
 62
     5
 63
     7
421
 16777215
176
     1
 74
     1
176
     1
 91
        4
176
     1
 64
     7
176
     1
 65
   257
176
     1
 75
     1
176
     1
175
     1
176
     1
 42
1.0
176
     1
 92
        8
176
     1
 66
     7
176
     1
 43
1.0
176
     1
 76
     1
176
     1
 77
     6
176
     1
 78
     2
176
     1
 67
     7
176
     1
 79
     5
176
     1
170
     0
176
     1
171
     0
176
     1
290
     0
176
     1
 93
        1
176
     1
 44
0.0
176
     1
173
     0
176
     1
  0
VISUALSTYLE
  5
2B
102
{ACAD_REACTORS
330
2A
102
}
330
2A
100
AcDbVisualStyle
  2
Flat
 70
     0
177
     2
291
     1
 71
     2
176
     1
 72
     1
176
     1
 73
     1
176
     1
 90
        2
176
     1
 40
-0.6
176
     1
 41
30.0
176
     1
 62
     5
 63
     7
421
 16777215
176
     1
 74
     0
176
     1
 91
        4
176
     1
 64
     7
176
     1
 65
   257
176
     1
 75
     1
176
     1
175
     1
176
     1
 42
1.0
176
     1
 92
        8
176
     1
 66
     7
176
     1
 43
1.0
176
     1
 76
     1
176
     1
 77
     6
176
     1
 78
     2
176
     1
 67
     7
176
     1
 79
     5
176
     1
170
     0
176
     1
171
     0
176
     1
290
     0
176
     1
 93
       13
176
     1
 44
0.0
176
     1
173
     0
176
     1
  0
VISUALSTYLE
  5
2C
102
{ACAD_REACTORS
330
2A
102
}
330
2A
100
AcDbVisualStyle
  2
FlatWithEdges
 70
     1
177
     2
291
     1
 71
     2
176
     1
 72
     1
176
     1
 73
     1
176
     1
 90
        2
176
     1
 40
-0.6
176
     1
 41
30.0
176
     1
 62
     5
 63
     7
421
 16777215
176
     1
 74
     1
176
     1
 91
        4
176
     1
 64
     7
176
     1
 65
   257
176
     1
 75
     1
176
     1
175
     1
176
     1
 42
1.0
176
     1
 92
        0
176
     1
 66
   257
176
     1
 43
1.0
176
     1
 76
     1
176
     1
 77
     6
176
     1
 78
     2
176
     1
 67
     7
176
     1
 79
     5
176
     1
170
     0
176
     1
171
     0
176
     1
290
     0
176
     1
 93
       13
176
     1
 44
0.0
176
     1
173
     0
176
     1
  0
VISUALSTYLE
  5
2D
102
{ACAD_REACTORS
330
2A
102
}
330
2A
100
AcDbVisualStyle
  2
Gouraud
 70
     2
177
     2
291
     1
 71
     2
176
     1
 72
     2
176
     1
 73
     1
176
     1
 90
        2
176
     1
 40
-0.6
176
     1
 41
30.0
176
     1
 62
     5
 63
     7
421
 16777215
176
     1
 74
     0
176
     1
 91
        4
176
     1
 64
     7
176
     1
 65
   257
176
     1
 75
     1
176
     1
175
     1
176
     1
 42
1.0
176
     1
 92
        0
176
     1
 66
     7
176
     1
 43
1.0
176
     1
 76
     1
176
     1
 77
     6
176
     1
 78
     2
176
     1
 67
     7
176
     1
 79
     5
176
     1
170
     0
176
     1
171
     0
176
     1
290
     0
176
     1
 93
       13
176
     1
 44
0.0
176
     1
173
     0
176
     1
  0
VISUALSTYLE
  5
2E
102
{ACAD_REACTORS
330
2A
102
}
330
2A
100
AcDbVisualStyle
  2
GouraudWithEdges
 70
     3
177
     2
291
     1
 71
     2
176
     1
 72
     2
176
     1
 73
     1
176
     1
 90
        2
176
     1
 40
-0.6
176
     1
 41
30.0
176
     1
 62
     5
 63
     7
421
 16777215
176
     1
 74
     1
176
     1
 91
        4
176
     1
 64
     7
176
     1
 65
   257
176
     1
 75
     1
176
     1
175
     1
176
     1
 42
1.0
176
     1
 92
        0
176
     1
 66
   257
176
     1
 43
1.0
176
     1
 76
     1
176
     1
 77
     6
176
     1
 78
     2
176
     1
 67
     7
176
     1
 79
     5
176
     1
170
     0
176
     1
171
     0
176
     1
290
     0
176
     1
 93
       13
176
     1
 44
0.0
176
     1
173
     0
176
     1
  0
VISUALSTYLE
  5
38
102
{ACAD_REACTORS
330
2A
102
}
330
2A
100
AcDbVisualStyle
  2
Linepattern
 70
    14
177
     2
291
     1
 71
     2
176
     1
 72
     2
176
     1
 73
     0
176
     1
 90
        0
176
     1
 40
-0.6
176
     1
 41
-30.0
176
     1
 62
     5
 63
     7
421
 16777215
176
     1
 74
     1
176
     1
 91
        4
176
     1
 64
     7
176
     1
 65
   257
176
     1
 75
     7
176
     1
175
     7
176
     1
 42
1.0
176
     1
 92
        8
176
     1
 66
     7
176
     1
 43
1.0
176
     1
 76
     1
176
     1
 77
     6
176
     1
 78
     2
176
     1
 67
     7
176
     1
 79
     5
176
     1
170
     0
176
     1
171
     0
176
     1
290
     0
176
     1
 93
        1
176
     1
 44
0.0
176
     1
173
     0
176
     1
  0
VISUALSTYLE
  5
33
102
{ACAD_REACTORS
330
2A
102
}
330
2A
100
AcDbVisualStyle
  2
Realistic
 70
     8
177
     2
291
     0
 71
     2
176
     1
 72
     2
176
     1
 73
     0
176
     1
 90
        0
176
     1
 40
-0.6
176
     1
 41
-30.0
176
     1
 62
     5
 63
     7
421
 16777215
176
     1
 74
     1
176
     1
 91
        0
176
     1
 64
     7
176
     1
 65
   257
176
     1
 75
     1
176
     1
175
     1
176
     1
 42
1.0
176
     1
 92
        8
176
     1
 66
     8
424
  7895160
176
     1
 43
1.0
176
     1
 76
     1
176
     1
 77
     6
176
     1
 78
     2
176
     1
 67
     7
176
     1
 79
     5
176
     1
170
     0
176
     1
171
     0
176
     1
290
     0
176
     1
 93
       13
176
     1
 44
0.0
176
     1
173
     0
176
     1
  0
VISUALSTYLE
  5
37
102
{ACAD_REACTORS
330
2A
102
}
330
2A
100
AcDbVisualStyle
  2
Thicken
 70
    13
177
     2
291
     1
 71
     2
176
     1
 72
     2
176
     1
 73
     0
176
     1
 90
        0
176
     1
 40
-0.6
176
     1
 41
-30.0
176
     1
 62
     5
 63
     7
421
 16777215
176
     1
 74
     1
176
     1
 91
        4
176
     1
 64
     7
176
     1
 65
   257
176
     1
 75
     1
176
     1
175
     1
176
     1
 42
1.0
176
     1
 92
       12
176
     1
 66
     7
176
     1
 43
1.0
176
     1
 76
     1
176
     1
 77
     6
176
     1
 78
     2
176
     1
 67
     7
176
     1
 79
     5
176
     1
170
     0
176
     1
171
     0
176
     1
290
     0
176
     1
 93
        1
176
     1
 44
0.0
176
     1
173
     0
176
     1
  0
ENDSEC
  0
EOF
