  0
SECTION
  2
HEADER
  9
$ACADVER
  1
AC1024
  9
$ACADMAINTVER
 70
     6
  9
$DWGCODEPAGE
  3
ANSI_1251
  9
$INSBASE
 10
0.0
 20
0.0
 30
0.0
  9
$EXTMIN
 10
1.000000000000000E+20
 20
1.000000000000000E+20
 30
1.000000000000000E+20
  9
$EXTMAX
 10
-1.000000000000000E+20
 20
-1.000000000000000E+20
 30
-1.000000000000000E+20
  9
$LIMMIN
 10
0.0
 20
0.0
  9
$LIMMAX
 10
12.0
 20
9.0
  9
$ORTHOMODE
 70
     0
  9
$REGENMODE
 70
     1
  9
$FILLMODE
 70
     1
  9
$QTEXTMODE
 70
     0
  9
$MIRRTEXT
 70
     1
  9
$LTSCALE
 40
1.0
  9
$ATTMODE
 70
     1
  9
$TEXTSIZE
 40
0.2
  9
$TRACEWID
 40
0.05
  9
$TEXTSTYLE
  7
Standard
  9
$CLAYER
  8
0
  9
$CELTYPE
  6
ByLayer
  9
$CECOLOR
 62
   256
  9
$CELTSCALE
 40
1.0
  9
$DISPSILH
 70
     0
  9
$DIMSCALE
 40
1.0
  9
$DIMASZ
 40
0.18
  9
$DIMEXO
 40
0.0625
  9
$DIMDLI
 40
0.38
  9
$DIMRND
 40
0.0
  9
$DIMDLE
 40
0.0
  9
$DIMEXE
 40
0.18
  9
$DIMTP
 40
0.0
  9
$DIMTM
 40
0.0
  9
$DIMTXT
 40
0.18
  9
$DIMCEN
 40
0.09
  9
$DIMTSZ
 40
0.0
  9
$DIMTOL
 70
     0
  9
$DIMLIM
 70
     0
  9
$DIMTIH
 70
     1
  9
$DIMTOH
 70
     1
  9
$DIMSE1
 70
     0
  9
$DIMSE2
 70
     0
  9
$DIMTAD
 70
     0
  9
$DIMZIN
 70
     0
  9
$DIMBLK
  1

  9
$DIMASO
 70
     1
  9
$DIMSHO
 70
     1
  9
$DIMPOST
  1

  9
$DIMAPOST
  1

  9
$DIMALT
 70
     0
  9
$DIMALTD
 70
     2
  9
$DIMALTF
 40
25.4
  9
$DIMLFAC
 40
1.0
  9
$DIMTOFL
 70
     0
  9
$DIMTVP
 40
0.0
  9
$DIMTIX
 70
     0
  9
$DIMSOXD
 70
     0
  9
$DIMSAH
 70
     0
  9
$DIMBLK1
  1

  9
$DIMBLK2
  1

  9
$DIMSTYLE
  2
Standard
  9
$DIMCLRD
 70
     0
  9
$DIMCLRE
 70
     0
  9
$DIMCLRT
 70
     0
  9
$DIMTFAC
 40
1.0
  9
$DIMGAP
 40
0.09
  9
$DIMJUST
 70
     0
  9
$DIMSD1
 70
     0
  9
$DIMSD2
 70
     0
  9
$DIMTOLJ
 70
     1
  9
$DIMTZIN
 70
     0
  9
$DIMALTZ
 70
     0
  9
$DIMALTTZ
 70
     0
  9
$DIMUPT
 70
     0
  9
$DIMDEC
 70
     4
  9
$DIMTDEC
 70
     4
  9
$DIMALTU
 70
     2
  9
$DIMALTTD
 70
     2
  9
$DIMTXSTY
  7
Standard
  9
$DIMAUNIT
 70
     0
  9
$DIMADEC
 70
     0
  9
$DIMALTRND
 40
0.0
  9
$DIMAZIN
 70
     0
  9
$DIMDSEP
 70
    46
  9
$DIMATFIT
 70
     3
  9
$DIMFRAC
 70
     0
  9
$DIMLDRBLK
  1

  9
$DIMLUNIT
 70
     2
  9
$DIMLWD
 70
    -2
  9
$DIMLWE
 70
    -2
  9
$DIMTMOVE
 70
     0
  9
$DIMFXL
 40
1.0
  9
$DIMFXLON
 70
     0
  9
$DIMJOGANG
 40
0.7853981633974483
  9
$DIMTFILL
 70
     0
  9
$DIMTFILLCLR
 70
     0
  9
$DIMARCSYM
 70
     0
  9
$DIMLTYPE
  6

  9
$DIMLTEX1
  6

  9
$DIMLTEX2
  6

  9
$DIMTXTDIRECTION
 70
     0
  9
$LUNITS
 70
     2
  9
$LUPREC
 70
     4
  9
$SKETCHINC
 40
0.1
  9
$FILLETRAD
 40
0.5
  9
$AUNITS
 70
     0
  9
$AUPREC
 70
     0
  9
$MENU
  1
.
  9
$ELEVATION
 40
0.0
  9
$PELEVATION
 40
0.0
  9
$THICKNESS
 40
0.0
  9
$LIMCHECK
 70
     0
  9
$CHAMFERA
 40
0.5
  9
$CHAMFERB
 40
0.5
  9
$CHAMFERC
 40
1.0
  9
$CHAMFERD
 40
0.0
  9
$SKPOLY
 70
     0
  9
$TDCREATE
 40
2459337.676463739
  9
$TDUCREATE
 40
2459337.551463739
  9
$TDUPDATE
 40
2459337.676463739
  9
$TDUUPDATE
 40
2459337.551463739
  9
$TDINDWG
 40
0.0000000116
  9
$TDUSRTIMER
 40
0.0000000116
  9
$USRTIMER
 70
     1
  9
$ANGBASE
 50
0.0
  9
$ANGDIR
 70
     0
  9
$PDMODE
 70
     0
  9
$PDSIZE
 40
0.0
  9
$PLINEWID
 40
0.0
  9
$SPLFRAME
 70
     0
  9
$SPLINETYPE
 70
     6
  9
$SPLINESEGS
 70
     8
  9
$HANDSEED
  5
49
  9
$SURFTAB1
 70
     6
  9
$SURFTAB2
 70
     6
  9
$SURFTYPE
 70
     6
  9
$SURFU
 70
     6
  9
$SURFV
 70
     6
  9
$UCSBASE
  2

  9
$UCSNAME
  2

  9
$UCSORG
 10
0.0
 20
0.0
 30
0.0
  9
$UCSXDIR
 10
1.0
 20
0.0
 30
0.0
  9
$UCSYDIR
 10
0.0
 20
1.0
 30
0.0
  9
$UCSORTHOREF
  2

  9
$UCSORTHOVIEW
 70
     0
  9
$UCSORGTOP
 10
0.0
 20
0.0
 30
0.0
  9
$UCSORGBOTTOM
 10
0.0
 20
0.0
 30
0.0
  9
$UCSORGLEFT
 10
0.0
 20
0.0
 30
0.0
  9
$UCSORGRIGHT
 10
0.0
 20
0.0
 30
0.0
  9
$UCSORGFRONT
 10
0.0
 20
0.0
 30
0.0
  9
$UCSORGBACK
 10
0.0
 20
0.0
 30
0.0
  9
$PUCSBASE
  2

  9
$PUCSNAME
  2

  9
$PUCSORG
 10
0.0
 20
0.0
 30
0.0
  9
$PUCSXDIR
 10
1.0
 20
0.0
 30
0.0
  9
$PUCSYDIR
 10
0.0
 20
1.0
 30
0.0
  9
$PUCSORTHOREF
  2

  9
$PUCSORTHOVIEW
 70
     0
  9
$PUCSORGTOP
 10
0.0
 20
0.0
 30
0.0
  9
$PUCSORGBOTTOM
 10
0.0
 20
0.0
 30
0.0
  9
$PUCSORGLEFT
 10
0.0
 20
0.0
 30
0.0
  9
$PUCSORGRIGHT
 10
0.0
 20
0.0
 30
0.0
  9
$PUCSORGFRONT
 10
0.0
 20
0.0
 30
0.0
  9
$PUCSORGBACK
 10
0.0
 20
0.0
 30
0.0
  9
$USERI1
 70
     0
  9
$USERI2
 70
     0
  9
$USERI3
 70
     0
  9
$USERI4
 70
     0
  9
$USERI5
 70
     0
  9
$USERR1
 40
0.0
  9
$USERR2
 40
0.0
  9
$USERR3
 40
0.0
  9
$USERR4
 40
0.0
  9
$USERR5
 40
0.0
  9
$WORLDVIEW
 70
     1
  9
$SHADEDGE
 70
     3
  9
$SHADEDIF
 70
    70
  9
$TILEMODE
 70
     1
  9
$MAXACTVP
 70
    64
  9
$PINSBASE
 10
0.0
 20
0.0
 30
0.0
  9
$PLIMCHECK
 70
     0
  9
$PEXTMIN
 10
1.000000000000000E+20
 20
1.000000000000000E+20
 30
1.000000000000000E+20
  9
$PEXTMAX
 10
-1.000000000000000E+20
 20
-1.000000000000000E+20
 30
-1.000000000000000E+20
  9
$PLIMMIN
 10
0.0
 20
0.0
  9
$PLIMMAX
 10
12.0
 20
9.0
  9
$UNITMODE
 70
     0
  9
$VISRETAIN
 70
     1
  9
$PLINEGEN
 70
     0
  9
$PSLTSCALE
 70
     1
  9
$TREEDEPTH
 70
  3020
  9
$CMLSTYLE
  2
Standard
  9
$CMLJUST
 70
     0
  9
$CMLSCALE
 40
1.0
  9
$PROXYGRAPHICS
 70
     1
  9
$MEASUREMENT
 70
     0
  9
$CELWEIGHT
370
    -1
  9
$ENDCAPS
280
     0
  9
$JOINSTYLE
280
     0
  9
$LWDISPLAY
290
     1
  9
$INSUNITS
 70
     1
  9
$HYPERLINKBASE
  1

  9
$STYLESHEET
  1

  9
$XEDIT
290
     1
  9
$CEPSNTYPE
380
     0
  9
$PSTYLEMODE
290
     1
  9
$FINGERPRINTGUID
  2
{B7FF2139-870A-422F-A9EC-B61F4985E15F}
  9
$VERSIONGUID
  2
{FAEB1C32-E019-11D5-929B-00C0DF256EC4}
  9
$EXTNAMES
290
     1
  9
$PSVPSCALE
 40
0.0
  9
$OLESTARTUP
290
     0
  9
$SORTENTS
280
   127
  9
$INDEXCTL
280
     0
  9
$HIDETEXT
280
     1
  9
$XCLIPFRAME
280
     2
  9
$HALOGAP
280
     0
  9
$OBSCOLOR
 70
   257
  9
$OBSLTYPE
280
     0
  9
$INTERSECTIONDISPLAY
280
     0
  9
$INTERSECTIONCOLOR
 70
   257
  9
$DIMASSOC
280
     2
  9
$PROJECTNAME
  1

  9
$CAMERADISPLAY
290
     0
  9
$LENSLENGTH
 40
50.0
  9
$CAMERAHEIGHT
 40
0.0
  9
$STEPSPERSEC
 40
2.0
  9
$STEPSIZE
 40
6.0
  9
$3DDWFPREC
 40
2.0
  9
$PSOLWIDTH
 40
0.25
  9
$PSOLHEIGHT
 40
4.0
  9
$LOFTANG1
 40
1.570796326794897
  9
$LOFTANG2
 40
1.570796326794897
  9
$LOFTMAG1
 40
0.0
  9
$LOFTMAG2
 40
0.0
  9
$LOFTPARAM
 70
     7
  9
$LOFTNORMALS
280
     1
  9
$LATITUDE
 40
37.795
  9
$LONGITUDE
 40
-122.394
  9
$NORTHDIRECTION
 40
0.0
  9
$TIMEZONE
 70
 -8000
  9
$LIGHTGLYPHDISPLAY
280
     1
  9
$TILEMODELIGHTSYNCH
280
     1
  9
$CMATERIAL
347
3C
  9
$SOLIDHIST
280
     1
  9
$SHOWHIST
280
     1
  9
$DWFFRAME
280
     2
  9
$DGNFRAME
280
     2
  9
$REALWORLDSCALE
290
     1
  9
$INTERFERECOLOR
 62
   256
  9
$CSHADOW
280
     0
  9
$SHADOWPLANELOCATION
 40
0.0
  0
ENDSEC
  0
SECTION
  2
CLASSES
  0
CLASS
  1
ACDBDICTIONARYWDFLT
  2
AcDbDictionaryWithDefault
  3
ObjectDBX Classes
 90
        0
 91
        4
280
     0
281
     0
  0
CLASS
  1
VISUALSTYLE
  2
AcDbVisualStyle
  3
ObjectDBX Classes
 90
     4095
 91
        4
280
     0
281
     0
  0
CLASS
  1
MATERIAL
  2
AcDbMaterial
  3
ObjectDBX Classes
 90
     1153
 91
        4
280
     0
281
     0
  0
CLASS
  1
SUN
  2
AcDbSun
  3
SCENEOE
 90
     1024
 91
        4
280
     0
281
     0
  0
ENDSEC
  0
SECTION
  2
TABLES
  0
TABLE
  2
VPORT
  5
8
330
0
100
AcDbSymbolTable
 70
     1
  0
VPORT
  5
29
330
8
100
AcDbSymbolTableRecord
100
AcDbViewportTableRecord
  2
*Active
 70
     0
 10
0.0
 20
0.0
 11
1.0
 21
1.0
 12
0.0
 22
0.0
 13
0.0
 23
0.0
 14
0.5
 24
0.5
 15
0.5
 25
0.5
 16
0.0
 26
0.0
 36
1.0
 17
5.854712951282687
 27
-55.05854999999999
 37
0.0
 40
12.0
 41
0.6264716276925136
 42
50.0
 43
0.0
 44
0.0
 50
0.0
 51
0.0
 71
     0
 72
   100
 73
     1
 74
     3
 75
     0
 76
     0
 77
     0
 78
     0
281
     0
 65
     1
110
0.0
120
0.0
130
0.0
111
1.0
121
0.0
131
0.0
112
0.0
122
1.0
132
0.0
 79
     0
146
0.0
 60
     3
 61
     5
292
     1
282
     1
141
0.0
142
0.0
 63
   250
361
3F
  0
ENDTAB
  0
TABLE
  2
LTYPE
  5
5
330
0
100
AcDbSymbolTable
 70
     1
  0
LTYPE
  5
14
330
5
100
AcDbSymbolTableRecord
100
AcDbLinetypeTableRecord
  2
ByBlock
 70
     0
  3

 72
    65
 73
     0
 40
0.0
  0
LTYPE
  5
15
330
5
100
AcDbSymbolTableRecord
100
AcDbLinetypeTableRecord
  2
ByLayer
 70
     0
  3

 72
    65
 73
     0
 40
0.0
  0
LTYPE
  5
16
330
5
100
AcDbSymbolTableRecord
100
AcDbLinetypeTableRecord
  2
Continuous
 70
     0
  3
Solid line
 72
    65
 73
     0
 40
0.0
  0
ENDTAB
  0
TABLE
  2
LAYER
  5
2
330
0
100
AcDbSymbolTable
 70
     2
  0
LAYER
  5
10
330
2
100
AcDbSymbolTableRecord
100
AcDbLayerTableRecord
  2
0
 70
     0
 62
     7
  6
Continuous
370
    -3
390
F
347
3E
  0
LAYER
  5
40
330
2
100
AcDbSymbolTableRecord
100
AcDbLayerTableRecord
  2
Layer 1
 70
     0
 62
     7
  6
Continuous
370
    -3
390
F
347
3E
  0
ENDTAB
  0
TABLE
  2
STYLE
  5
3
330
0
100
AcDbSymbolTable
 70
     1
  0
STYLE
  5
11
330
3
100
AcDbSymbolTableRecord
100
AcDbTextStyleTableRecord
  2
Standard
 70
     0
 40
0.0
 41
1.0
 50
0.0
 71
     0
 42
0.2
  3
txt
  4

  0
ENDTAB
  0
TABLE
  2
VIEW
  5
6
330
0
100
AcDbSymbolTable
 70
     0
  0
ENDTAB
  0
TABLE
  2
UCS
  5
7
330
0
100
AcDbSymbolTable
 70
     0
  0
ENDTAB
  0
TABLE
  2
APPID
  5
9
330
0
100
AcDbSymbolTable
 70
     1
  0
APPID
  5
12
330
9
100
AcDbSymbolTableRecord
100
AcDbRegAppTableRecord
  2
ACAD
 70
     0
  0
ENDTAB
  0
TABLE
  2
DIMSTYLE
  5
A
330
0
100
AcDbSymbolTable
 70
     1
100
AcDbDimStyleTable
  0
DIMSTYLE
105
27
330
A
100
AcDbSymbolTableRecord
100
AcDbDimStyleTableRecord
  2
Standard
 70
     0
178
     0
340
11
  0
ENDTAB
  0
TABLE
  2
BLOCK_RECORD
  5
1
330
0
100
AcDbSymbolTable
 70
     1
  0
BLOCK_RECORD
  5
1F
330
1
100
AcDbSymbolTableRecord
100
AcDbBlockTableRecord
  2
*Model_Space
340
22
 70
     0
280
     1
281
     0
  0
BLOCK_RECORD
  5
1B
330
1
100
AcDbSymbolTableRecord
100
AcDbBlockTableRecord
  2
*Paper_Space
340
1E
 70
     0
280
     1
281
     0
  0
BLOCK_RECORD
  5
23
330
1
100
AcDbSymbolTableRecord
100
AcDbBlockTableRecord
  2
*Paper_Space0
340
26
 70
     0
280
     1
281
     0
  0
ENDTAB
  0
ENDSEC
  0
SECTION
  2
BLOCKS
  0
BLOCK
  5
20
330
1F
100
AcDbEntity
  8
0
100
AcDbBlockBegin
  2
*Model_Space
 70
     0
 10
0.0
 20
0.0
 30
0.0
  3
*Model_Space
  1

  0
ENDBLK
  5
21
330
1F
100
AcDbEntity
  8
0
100
AcDbBlockEnd
  0
BLOCK
  5
1C
330
1B
100
AcDbEntity
 67
     1
  8
0
100
AcDbBlockBegin
  2
*Paper_Space
 70
     0
 10
0.0
 20
0.0
 30
0.0
  3
*Paper_Space
  1

  0
ENDBLK
  5
1D
330
1B
100
AcDbEntity
 67
     1
  8
0
100
AcDbBlockEnd
  0
BLOCK
  5
24
330
23
100
AcDbEntity
  8
0
100
AcDbBlockBegin
  2
*Paper_Space0
 70
     0
 10
0.0
 20
0.0
 30
0.0
  3
*Paper_Space0
  1

  0
ENDBLK
  5
25
330
23
100
AcDbEntity
  8
0
100
AcDbBlockEnd
  0
ENDSEC
  0
SECTION
  2
ENTITIES
  0
SPLINE
  5
41
330
1F
100
AcDbEntity
  8
Layer 1
370
     0
100
AcDbSpline
210
0.0
220
0.0
230
1.0
 70
    11
 71
     3
 72
   248
 73
   244
 74
     0
 42
0.0000000001
 43
0.0000000001
 12
1.0
 22
0.0
 32
0.0
 13
1.0
 23
0.0
 33
0.0
 40
0.0
 40
0.0
 40
0.0
 40
0.0
 40
1.0
 40
1.0
 40
1.0
 40
2.0
 40
2.0
 40
2.0
 40
3.0
 40
3.0
 40
3.0
 40
4.0
 40
4.0
 40
4.0
 40
5.0
 40
5.0
 40
5.0
 40
6.0
 40
6.0
 40
6.0
 40
7.0
 40
7.0
 40
7.0
 40
8.0
 40
8.0
 40
8.0
 40
9.0
 40
9.0
 40
9.0
 40
10.0
 40
10.0
 40
10.0
 40
11.0
 40
11.0
 40
11.0
 40
12.0
 40
12.0
 40
12.0
 40
13.0
 40
13.0
 40
13.0
 40
14.0
 40
14.0
 40
14.0
 40
15.0
 40
15.0
 40
15.0
 40
16.0
 40
16.0
 40
16.0
 40
17.0
 40
17.0
 40
17.0
 40
18.0
 40
18.0
 40
18.0
 40
19.0
 40
19.0
 40
19.0
 40
20.0
 40
20.0
 40
20.0
 40
21.0
 40
21.0
 40
21.0
 40
22.0
 40
22.0
 40
22.0
 40
23.0
 40
23.0
 40
23.0
 40
24.0
 40
24.0
 40
24.0
 40
25.0
 40
25.0
 40
25.0
 40
26.0
 40
26.0
 40
26.0
 40
27.0
 40
27.0
 40
27.0
 40
28.0
 40
28.0
 40
28.0
 40
29.0
 40
29.0
 40
29.0
 40
30.0
 40
30.0
 40
30.0
 40
31.0
 40
31.0
 40
31.0
 40
32.0
 40
32.0
 40
32.0
 40
33.0
 40
33.0
 40
33.0
 40
34.0
 40
34.0
 40
34.0
 40
35.0
 40
35.0
 40
35.0
 40
36.0
 40
36.0
 40
36.0
 40
37.0
 40
37.0
 40
37.0
 40
38.0
 40
38.0
 40
38.0
 40
39.0
 40
39.0
 40
39.0
 40
40.0
 40
40.0
 40
40.0
 40
41.0
 40
41.0
 40
41.0
 40
42.0
 40
42.0
 40
42.0
 40
43.0
 40
43.0
 40
43.0
 40
44.0
 40
44.0
 40
44.0
 40
45.0
 40
45.0
 40
45.0
 40
46.0
 40
46.0
 40
46.0
 40
47.0
 40
47.0
 40
47.0
 40
48.0
 40
48.0
 40
48.0
 40
49.0
 40
49.0
 40
49.0
 40
50.0
 40
50.0
 40
50.0
 40
51.0
 40
51.0
 40
51.0
 40
52.0
 40
52.0
 40
52.0
 40
53.0
 40
53.0
 40
53.0
 40
54.0
 40
54.0
 40
54.0
 40
55.0
 40
55.0
 40
55.0
 40
56.0
 40
56.0
 40
56.0
 40
57.0
 40
57.0
 40
57.0
 40
58.0
 40
58.0
 40
58.0
 40
59.0
 40
59.0
 40
59.0
 40
60.0
 40
60.0
 40
60.0
 40
61.0
 40
61.0
 40
61.0
 40
62.0
 40
62.0
 40
62.0
 40
63.0
 40
63.0
 40
63.0
 40
64.0
 40
64.0
 40
64.0
 40
65.0
 40
65.0
 40
65.0
 40
66.0
 40
66.0
 40
66.0
 40
67.0
 40
67.0
 40
67.0
 40
68.0
 40
68.0
 40
68.0
 40
69.0
 40
69.0
 40
69.0
 40
70.0
 40
70.0
 40
70.0
 40
71.0
 40
71.0
 40
71.0
 40
72.0
 40
72.0
 40
72.0
 40
73.0
 40
73.0
 40
73.0
 40
74.0
 40
74.0
 40
74.0
 40
75.0
 40
75.0
 40
75.0
 40
76.0
 40
76.0
 40
76.0
 40
77.0
 40
77.0
 40
77.0
 40
78.0
 40
78.0
 40
78.0
 40
79.0
 40
79.0
 40
79.0
 40
80.0
 40
80.0
 40
80.0
 40
81.0
 40
81.0
 40
81.0
 40
81.0
 10
2.100783280263082
 20
-55.10197361111111
 30
0.0
 10
2.109938835587349
 20
-55.24846944444445
 30
0.0
 10
2.152347222222223
 20
-55.37777222222222
 30
0.0
 10
2.248054109876041
 20
-55.49039999999998
 30
0.0
 10
3.072899922372017
 20
-56.46646388888888
 30
0.0
 10
4.252562392571235
 20
-56.85928194444444
 30
0.0
 10
5.252935978410783
 20
-57.5919361111111
 30
0.0
 10
5.531405415820497
 20
-57.79588055555556
 30
0.0
 10
5.728173466405274
 20
-58.10023888888887
 30
0.0
 10
5.845637352326776
 20
-58.42141666666667
 30
0.0
 10
6.060287346904261
 20
-59.00847777777777
 30
0.0
 10
6.085960957366802
 20
-59.69829305555555
 30
0.0
 10
6.11817901210846
 20
-60.31754444444444
 30
0.0
 10
6.125210956375263
 20
-60.45271805555555
 30
0.0
 10
6.183577621567464
 20
-60.54354583333333
 30
0.0
 10
6.300654007498754
 20
-60.6078111111111
 30
0.0
 10
7.196322040427831
 20
-61.09942222222222
 30
0.0
 10
8.630428948643686
 20
-61.29056527777776
 30
0.0
 10
9.521921981678235
 20
-60.65383472222222
 30
0.0
 10
9.586516424490885
 20
-60.60769583333333
 30
0.0
 10
9.621963645817635
 20
-60.55148194444443
 30
0.0
 10
9.611831701629145
 20
-60.46785833333332
 30
0.0
 10
9.494540037925516
 20
-59.49915694444444
 30
0.0
 10
9.261534488256176
 20
-58.49074722222223
 30
0.0
 10
9.274149765715265
 20
-57.50188333333332
 30
0.0
 10
9.278884487817878
 20
-57.13077638888888
 30
0.0
 10
9.271092821348045
 20
-56.78680972222221
 30
0.0
 10
9.0750844929663
 20
-56.45624583333334
 30
0.0
 10
8.770497000660827
 20
-55.94254722222222
 30
0.0
 10
8.22061923677413
 20
-55.79310833333334
 30
0.0
 10
7.7034192498397
 20
-55.57448333333332
 30
0.0
 10
7.5964748080969
 20
-55.52927777777778
 30
0.0
 10
7.508415088099254
 20
-55.46166944444445
 30
0.0
 10
7.464401200322249
 20
-55.34742083333332
 30
0.0
 10
7.385253980099454
 20
-55.14188333333333
 30
0.0
 10
7.264361111111106
 20
-54.96619722222222
 30
0.0
 10
7.09264982082459
 20
-54.82552777777778
 30
0.0
 10
6.985503990197988
 20
-54.73774166666666
 30
0.0
 10
6.935863713674229
 20
-54.62187083333333
 30
0.0
 10
6.945622046761046
 20
-54.48216250000001
 30
0.0
 10
6.953630379892072
 20
-54.36774027777778
 30
0.0
 10
6.958797046428217
 20
-54.25304722222222
 30
0.0
 10
6.969760935040135
 20
-54.1389125
 30
0.0
 10
6.97738176818095
 20
-54.05960833333333
 30
0.0
 10
6.992549823353329
 20
-53.98103472222222
 30
0.0
 10
7.004748434156276
 20
-53.90221944444445
 30
0.0
 10
7.007547045196689
 20
-53.88415138888889
 30
0.0
 10
7.016502600526008
 20
-53.86938333333334
 30
0.0
 10
7.037297044445141
 20
-53.87209583333333
 30
0.0
 10
7.060731766075352
 20
-53.87515277777778
 30
0.0
 10
7.064951210413205
 20
-53.89309166666666
 30
0.0
 10
7.062353988256594
 20
-53.91318333333334
 30
0.0
 10
7.060445654971469
 20
-53.92800833333333
 30
0.0
 10
7.057445655047255
 20
-53.94270416666667
 30
0.0
 10
7.054762321781709
 20
-53.95741388888888
 30
0.0
 10
7.035330377828156
 20
-54.06386944444444
 30
0.0
 10
7.022974822584729
 20
-54.17113055555555
 30
0.0
 10
7.017937322711987
 20
-54.27922361111111
 30
0.0
 10
7.017406767169834
 20
-54.29066111111111
 30
0.0
 10
7.014378989468544
 20
-54.30887222222222
 30
0.0
 10
7.019845655997111
 20
-54.31233055555555
 30
0.0
 10
7.03286232233495
 20
-54.32056805555555
 30
0.0
 10
7.044027777777778
 20
-54.30651944444445
 30
0.0
 10
7.053527777777768
 20
-54.29812361111111
 30
0.0
 10
7.128455375475621
 20
-54.23194999999999
 30
0.0
 10
7.201101206973767
 20
-54.16359583333332
 30
0.0
 10
7.256998427783905
 20
-54.07968472222222
 30
0.0
 10
7.261605372111969
 20
-54.07276805555556
 30
0.0
 10
7.265537316457085
 20
-54.06526249999999
 30
0.0
 10
7.270976205208576
 20
-54.05907638888888
 30
0.0
 10
7.281740093825546
 20
-54.04680694444444
 30
0.0
 10
7.294713704608916
 20
-54.039775
 30
0.0
 10
7.310241481994429
 20
-54.05073888888889
 30
0.0
 10
7.324736111111102
 20
-54.06098611111111
 30
0.0
 10
7.32723314823185
 20
-54.07556666666667
 30
0.0
 10
7.318578981783806
 20
-54.09027638888888
 30
0.0
 10
7.306824815414075
 20
-54.11030972222223
 30
0.0
 10
7.294612315722588
 20
-54.13031527777778
 30
0.0
 10
7.280319444444457
 20
-54.14854166666666
 30
0.0
 10
7.218523428755866
 20
-54.22745833333334
 30
0.0
 10
7.151345652675142
 20
-54.30298888888888
 30
0.0
 10
7.067922043671488
 20
-54.35788194444444
 30
0.0
 10
7.013517878379186
 20
-54.39365833333333
 30
0.0
 10
7.004333333333332
 20
-54.43589444444444
 30
0.0
 10
7.002552600878415
 20
-54.49401666666666
 30
0.0
 10
6.998822045417101
 20
-54.61584305555556
 30
0.0
 10
7.045290099798775
 20
-54.70955555555555
 30
0.0
 10
7.140640097390031
 20
-54.78255972222223
 30
0.0
 10
7.177594263123157
 20
-54.81083194444444
 30
0.0
 10
7.213672039989533
 20
-54.84063888888888
 30
0.0
 10
7.247267872474165
 20
-54.87275694444444
 30
0.0
 10
7.268981760814515
 20
-54.89352222222222
 30
0.0
 10
7.279644260545157
 20
-54.88977777777778
 30
0.0
 10
7.296694444444433
 20
-54.867475
 30
0.0
 10
7.445327589692978
 20
-54.67301805555555
 30
0.0
 10
7.565288697773616
 20
-54.42462916666666
 30
0.0
 10
7.624158140730893
 20
-54.1873611111111
 30
0.0
 10
7.73118869358263
 20
-53.75605277777778
 30
0.0
 10
7.408187312853443
 20
-53.49052777777778
 30
0.0
 10
7.148862319404543
 20
-53.20683472222222
 30
0.0
 10
7.019788711554106
 20
-53.06562083333334
 30
0.0
 10
6.877827604029234
 20
-52.94211388888888
 30
0.0
 10
6.697031775263187
 20
-52.86982777777777
 30
0.0
 10
6.546287334626868
 20
-52.80956805555554
 30
0.0
 10
6.404972222222214
 20
-52.83150972222222
 30
0.0
 10
6.276429008110729
 20
-52.9235875
 30
0.0
 10
6.175827621763245
 20
-52.99564444444445
 30
0.0
 10
6.10324012359696
 20
-53.09479583333334
 30
0.0
 10
6.057402777777775
 20
-53.20941805555556
 30
0.0
 10
5.963631793790429
 20
-53.44400138888889
 30
0.0
 10
5.918569444444453
 20
-53.69144444444444
 30
0.0
 10
5.87854429593992
 20
-53.93930277777778
 30
0.0
 10
5.853085963249719
 20
-54.09693472222222
 30
0.0
 10
5.844590130131008
 20
-54.25676388888888
 30
0.0
 10
5.83544846369528
 20
-54.41624722222222
 30
0.0
 10
5.834141519283851
 20
-54.43909444444444
 30
0.0
 10
5.833524852632763
 20
-54.46881527777776
 30
0.0
 10
5.801320686779642
 20
-54.46709305555555
 30
0.0
 10
5.771470687533716
 20
-54.46549999999999
 30
0.0
 10
5.775345687435825
 20
-54.43827638888888
 30
0.0
 10
5.776363742965663
 20
-54.4164625
 30
0.0
 10
5.796685964674503
 20
-53.98114999999999
 30
0.0
 10
5.916862350527481
 20
-52.47832916666666
 30
0.0
 10
6.719405385809093
 20
-52.81428888888889
 30
0.0
 10
6.859931771147987
 20
-52.87311388888889
 30
0.0
 10
6.979677601456286
 20
-52.96048333333334
 30
0.0
 10
7.090281765328856
 20
-53.06274999999999
 30
0.0
 10
7.234681761681006
 20
-53.1962875
 30
0.0
 10
7.350667869862061
 20
-53.42358055555555
 30
0.0
 10
7.571087308738242
 20
-53.42317916666666
 30
0.0
 10
7.68763313912738
 20
-53.42297777777778
 30
0.0
 10
7.826451191176097
 20
-53.38955416666666
 30
0.0
 10
7.923077577623998
 20
-53.32214722222221
 30
0.0
 10
8.29254701273486
 20
-53.06447222222221
 30
0.0
 10
7.690660916828669
 20
-52.74253333333333
 30
0.0
 10
7.511501199132403
 20
-52.61363194444445
 30
0.0
 10
7.36104425848882
 20
-52.50535277777777
 30
0.0
 10
7.235542872770363
 20
-52.37732638888888
 30
0.0
 10
7.099165098437778
 20
-52.25438055555554
 30
0.0
 10
6.943641491255524
 20
-52.11418333333333
 30
0.0
 10
6.764898440215397
 20
-52.03708888888889
 30
0.0
 10
6.551970667816628
 20
-52.03673055555555
 30
0.0
 10
6.237881786862292
 20
-52.03621388888888
 30
0.0
 10
5.923219294811335
 20
-52.07133194444445
 30
0.0
 10
5.609273469408941
 20
-52.06115694444444
 30
0.0
 10
5.523942916009016
 20
-52.05841527777778
 30
0.0
 10
5.434722222222224
 20
-52.05578888888888
 30
0.0
 10
5.352547087005505
 20
-52.08772083333332
 30
0.0
 10
5.214417923828275
 20
-52.14139305555555
 30
0.0
 10
5.101101260024229
 20
-52.22920833333334
 30
0.0
 10
5.015869317732924
 20
-52.35115
 30
0.0
 10
4.830123489091926
 20
-52.61472222222222
 30
0.0
 10
4.798062378790746
 20
-52.93125
 30
0.0
 10
4.763892935209494
 20
-53.24225416666667
 30
0.0
 10
4.725072102856857
 20
-53.59562222222222
 30
0.0
 10
4.699470714614714
 20
-53.95043888888888
 30
0.0
 10
4.687185992702831
 20
-54.30571527777778
 30
0.0
 10
4.686640159383286
 20
-54.32160138888889
 30
0.0
 10
4.68349710390713
 20
-54.34120555555556
 30
0.0
 10
4.668399882066296
 20
-54.34621388888889
 30
0.0
 10
4.645395715980763
 20
-54.35384861111111
 30
0.0
 10
4.632422105197393
 20
-54.32029583333332
 30
0.0
 10
4.631747105214445
 20
-54.29605694444444
 30
0.0
 10
4.621816549909757
 20
-53.93895833333332
 30
0.0
 10
4.655670715721195
 20
-53.58474305555556
 30
0.0
 10
4.688634603777346
 20
-53.22965416666666
 30
0.0
 10
4.718112380810453
 20
-52.91197777777778
 30
0.0
 10
4.778242934846983
 20
-52.57706527777776
 30
0.0
 10
4.971266541081907
 20
-52.31415277777779
 30
0.0
 10
5.103354037745096
 20
-52.13423194444443
 30
0.0
 10
5.271935977930803
 20
-52.00865972222221
 30
0.0
 10
5.507769305306485
 20
-52.00534444444444
 30
0.0
 10
5.537044304566936
 20
-52.00494305555556
 30
0.0
 10
5.602902777777772
 20
-51.97220833333333
 30
0.0
 10
5.627341524508059
 20
-51.96134444444444
 30
0.0
 10
6.134927622796466
 20
-51.73541388888889
 30
0.0
 10
6.57222066730507
 20
-51.85055416666667
 30
0.0
 10
6.918727602996013
 20
-51.4408
 30
0.0
 10
7.063244266011881
 20
-51.26992083333333
 30
0.0
 10
7.012641489512437
 20
-51.06698194444445
 30
0.0
 10
6.804823439206807
 20
-50.98543888888889
 30
0.0
 10
6.472666666666655
 20
-50.85513055555555
 30
0.0
 10
6.066372068972769
 20
-50.9122486111111
 30
0.0
 10
5.714309577866616
 20
-50.86920972222222
 30
0.0
 10
5.446230417972199
 20
-50.83643194444444
 30
0.0
 10
5.204529035189201
 20
-50.82075972222221
 30
0.0
 10
4.960072096920258
 20
-50.96579305555554
 30
0.0
 10
4.713720714254729
 20
-51.11197361111111
 30
0.0
 10
4.478117942428778
 20
-51.2741125
 30
0.0
 10
4.268677669941907
 20
-51.47125277777777
 30
0.0
 10
4.064419341768573
 20
-51.66351527777778
 30
0.0
 10
3.7919915708729
 20
-51.81712916666667
 30
0.0
 10
3.717020739433489
 20
-52.10822777777778
 30
0.0
 10
3.624069444444444
 20
-52.46920138888888
 30
0.0
 10
3.551022132515855
 20
-52.85477361111111
 30
0.0
 10
3.501883244868319
 20
-53.22421388888888
 30
0.0
 10
3.501051300444892
 20
-53.23041388888888
 30
0.0
 10
3.498137411629614
 20
-53.23632638888888
 30
0.0
 10
3.496186022790021
 20
-53.24236805555555
 30
0.0
 10
3.494434633945376
 20
-53.23700138888888
 30
0.0
 10
3.49096241181087
 20
-53.23153333333333
 30
0.0
 10
3.491177689583209
 20
-53.2262375
 30
0.0
 10
3.49498046726492
 20
-53.13114722222222
 30
0.0
 10
3.476941578831732
 20
-53.03742083333333
 30
0.0
 10
3.473912412241589
 20
-52.94281805555556
 30
0.0
 10
3.462604079193928
 20
-52.58863194444444
 30
0.0
 10
3.392570747629785
 20
-52.19160833333333
 30
0.0
 10
3.564741576613717
 20
-51.86362777777777
 30
0.0
 10
3.862426291315791
 20
-51.2966
 30
0.0
 10
4.120287395912783
 20
-50.69158611111111
 30
0.0
 10
4.624327660957432
 20
-50.26784027777777
 30
0.0
 10
4.79576654551541
 20
-50.12371111111111
 30
0.0
 10
4.932274875400253
 20
-49.95601805555555
 30
0.0
 10
5.011635984506534
 20
-49.74479861111111
 30
0.0
 10
5.087783204805115
 20
-49.54211805555554
 30
0.0
 10
5.075269316232354
 20
-49.35044444444444
 30
0.0
 10
4.941702652939865
 20
-49.17329444444443
 30
0.0
 10
4.909901264854347
 20
-49.13111666666666
 30
0.0
 10
4.871497099157851
 20
-49.09927083333333
 30
0.0
 10
4.82168460041622
 20
-49.07949444444444
 30
0.0
 10
4.699742936830059
 20
-49.03105972222222
 30
0.0
 10
4.596458333333329
 20
-49.07220416666667
 30
0.0
 10
4.501438775172978
 20
-49.14592638888889
 30
0.0
 10
4.364429056411912
 20
-49.25225416666667
 30
0.0
 10
4.244281837224864
 20
-49.37755416666666
 30
0.0
 10
4.120661007014456
 20
-49.49833194444444
 30
0.0
 10
3.793426293058878
 20
-49.81800416666667
 30
0.0
 10
3.414126302640802
 20
-50.067025
 30
0.0
 10
3.127548532102587
 20
-50.42972083333332
 30
0.0
 10
2.926719370509292
 20
-50.68387916666666
 30
0.0
 10
2.80744715130014
 20
-50.97547916666667
 30
0.0
 10
2.631976322399573
 20
-51.24261111111112
 30
0.0
 10
2.56349160190742
 20
-51.34688611111111
 30
0.0
 10
2.48523611111111
 20
-51.44461805555555
 30
0.0
 10
2.422792994350655
 20
-51.55288194444444
 30
0.0
 10
2.289701331046166
 20
-51.78360555555555
 30
0.0
 10
2.190679111325456
 20
-52.02490555555556
 30
0.0
 10
2.204412444311856
 20
-52.29838055555555
 30
0.0
 10
2.238524943450102
 20
-52.97803472222222
 30
0.0
 10
2.270255498204076
 20
-53.63688055555556
 30
0.0
 10
2.155877723315724
 20
-54.31253194444444
 30
0.0
 10
2.111690224431994
 20
-54.57352222222222
 30
0.0
 10
2.084149947349943
 20
-54.83593194444444
 30
0.0
 10
2.100783280263082
 20
-55.10197361111111
 30
0.0
  0
SPLINE
  5
42
330
1F
100
AcDbEntity
  8
Layer 1
370
     0
100
AcDbSpline
210
0.0
220
0.0
230
1.0
 70
    11
 71
     3
 72
    29
 73
    25
 74
     0
 42
0.0000000001
 43
0.0000000001
 12
1.0
 22
0.0
 32
0.0
 13
1.0
 23
0.0
 33
0.0
 40
0.0
 40
0.0
 40
0.0
 40
0.0
 40
1.0
 40
1.0
 40
1.0
 40
2.0
 40
2.0
 40
2.0
 40
3.0
 40
3.0
 40
3.0
 40
4.0
 40
4.0
 40
4.0
 40
5.0
 40
5.0
 40
5.0
 40
6.0
 40
6.0
 40
6.0
 40
7.0
 40
7.0
 40
7.0
 40
8.0
 40
8.0
 40
8.0
 40
8.0
 10
4.316080446522189
 20
-55.2959
 30
0.0
 10
4.327977668443863
 20
-55.26424166666667
 30
0.0
 10
4.353292945582123
 20
-55.27689861111111
 30
0.0
 10
4.374862389481677
 20
-55.2863986111111
 30
0.0
 10
4.553849884960073
 20
-55.36530138888889
 30
0.0
 10
4.741131824673377
 20
-55.39134861111112
 30
0.0
 10
4.934872097556863
 20
-55.37210416666665
 30
0.0
 10
5.017949873235921
 20
-55.36386666666668
 30
0.0
 10
5.096910982352306
 20
-55.33674305555557
 30
0.0
 10
5.175898480356914
 20
-55.31102638888888
 30
0.0
 10
5.196592924278573
 20
-55.30429444444444
 30
0.0
 10
5.220358201455989
 20
-55.29235555555556
 30
0.0
 10
5.230734590082748
 20
-55.32168888888888
 30
0.0
 10
5.240622089832969
 20
-55.34964444444444
 30
0.0
 10
5.216627645994675
 20
-55.35904444444446
 30
0.0
 10
5.195817924298151
 20
-55.36627777777777
 30
0.0
 10
5.079229038354545
 20
-55.40683333333332
 30
0.0
 10
4.960588763573873
 20
-55.437675
 30
0.0
 10
4.822416666666665
 20
-55.4399138888889
 30
0.0
 10
4.669877659806742
 20
-55.42890555555555
 30
0.0
 10
4.504337386210864
 20
-55.41517222222222
 30
0.0
 10
4.351211001190273
 20
-55.34053194444444
 30
0.0
 10
4.332009612786452
 20
-55.33116111111111
 30
0.0
 10
4.305474891234553
 20
-55.32408472222222
 30
0.0
 10
4.316080446522189
 20
-55.2959
 30
0.0
  0
SPLINE
  5
43
330
1F
100
AcDbEntity
  8
Layer 1
370
     0
100
AcDbSpline
210
0.0
220
0.0
230
1.0
 70
    11
 71
     3
 72
    32
 73
    28
 74
     0
 42
0.0000000001
 43
0.0000000001
 12
1.0
 22
0.0
 32
0.0
 13
1.0
 23
0.0
 33
0.0
 40
0.0
 40
0.0
 40
0.0
 40
0.0
 40
1.0
 40
1.0
 40
1.0
 40
2.0
 40
2.0
 40
2.0
 40
3.0
 40
3.0
 40
3.0
 40
4.0
 40
4.0
 40
4.0
 40
5.0
 40
5.0
 40
5.0
 40
6.0
 40
6.0
 40
6.0
 40
7.0
 40
7.0
 40
7.0
 40
8.0
 40
8.0
 40
8.0
 40
9.0
 40
9.0
 40
9.0
 40
9.0
 10
3.362548526165988
 20
-55.28502222222222
 30
0.0
 10
3.370240192638347
 20
-55.265375
 30
0.0
 10
3.387979081079114
 20
-55.26679583333333
 30
0.0
 10
3.405013888888889
 20
-55.27131666666666
 30
0.0
 10
3.435452690990941
 20
-55.27936666666667
 30
0.0
 10
3.465631856895218
 20
-55.28859444444444
 30
0.0
 10
3.496272133898957
 20
-55.29575555555556
 30
0.0
 10
3.657277777777772
 20
-55.33338472222223
 30
0.0
 10
3.815226292508163
 20
-55.32566388888888
 30
0.0
 10
3.970505455252148
 20
-55.26602083333334
 30
0.0
 10
3.99333739911981
 20
-55.2572375
 30
0.0
 10
4.027952676023132
 20
-55.22845000000001
 30
0.0
 10
4.043063786752504
 20
-55.26854583333334
 30
0.0
 10
4.057256841949513
 20
-55.30618888888888
 30
0.0
 10
4.014648509692557
 20
-55.31115555555556
 30
0.0
 10
3.991012399178544
 20
-55.32085694444443
 30
0.0
 10
3.89306656831953
 20
-55.36108194444444
 30
0.0
 10
3.789451293159295
 20
-55.37379722222221
 30
0.0
 10
3.684342962481221
 20
-55.37935138888889
 30
0.0
 10
3.593415187000472
 20
-55.37280694444444
 30
0.0
 10
3.502758244846215
 20
-55.36350833333333
 30
0.0
 10
3.414872135955294
 20
-55.33658472222221
 30
0.0
 10
3.405358247306746
 20
-55.33365694444445
 30
0.0
 10
3.395770747548946
 20
-55.33081666666668
 30
0.0
 10
3.386672136667686
 20
-55.32691250000001
 30
0.0
 10
3.36834574824176
 20
-55.31906249999999
 30
0.0
 10
3.35395130416095
 20
-55.30697916666668
 30
0.0
 10
3.362548526165988
 20
-55.28502222222222
 30
0.0
  0
HATCH
  5
44
330
1F
100
AcDbEntity
  8
Layer 1
 62
     7
420
 16777215
100
AcDbHatch
 10
0.0
 20
0.0
 30
0.0
210
0.0
220
0.0
230
1.0
  2
SOLID
 70
     1
 71
     0
 91
        3
 92
        1
 93
        1
 72
     4
 94
        3
 73
     0
 74
     1
 95
      248
 96
      244
 40
0.0
 40
0.0
 40
0.0
 40
0.0
 40
1.0
 40
1.0
 40
1.0
 40
2.0
 40
2.0
 40
2.0
 40
3.0
 40
3.0
 40
3.0
 40
4.0
 40
4.0
 40
4.0
 40
5.0
 40
5.0
 40
5.0
 40
6.0
 40
6.0
 40
6.0
 40
7.0
 40
7.0
 40
7.0
 40
8.0
 40
8.0
 40
8.0
 40
9.0
 40
9.0
 40
9.0
 40
10.0
 40
10.0
 40
10.0
 40
11.0
 40
11.0
 40
11.0
 40
12.0
 40
12.0
 40
12.0
 40
13.0
 40
13.0
 40
13.0
 40
14.0
 40
14.0
 40
14.0
 40
15.0
 40
15.0
 40
15.0
 40
16.0
 40
16.0
 40
16.0
 40
17.0
 40
17.0
 40
17.0
 40
18.0
 40
18.0
 40
18.0
 40
19.0
 40
19.0
 40
19.0
 40
20.0
 40
20.0
 40
20.0
 40
21.0
 40
21.0
 40
21.0
 40
22.0
 40
22.0
 40
22.0
 40
23.0
 40
23.0
 40
23.0
 40
24.0
 40
24.0
 40
24.0
 40
25.0
 40
25.0
 40
25.0
 40
26.0
 40
26.0
 40
26.0
 40
27.0
 40
27.0
 40
27.0
 40
28.0
 40
28.0
 40
28.0
 40
29.0
 40
29.0
 40
29.0
 40
30.0
 40
30.0
 40
30.0
 40
31.0
 40
31.0
 40
31.0
 40
32.0
 40
32.0
 40
32.0
 40
33.0
 40
33.0
 40
33.0
 40
34.0
 40
34.0
 40
34.0
 40
35.0
 40
35.0
 40
35.0
 40
36.0
 40
36.0
 40
36.0
 40
37.0
 40
37.0
 40
37.0
 40
38.0
 40
38.0
 40
38.0
 40
39.0
 40
39.0
 40
39.0
 40
40.0
 40
40.0
 40
40.0
 40
41.0
 40
41.0
 40
41.0
 40
42.0
 40
42.0
 40
42.0
 40
43.0
 40
43.0
 40
43.0
 40
44.0
 40
44.0
 40
44.0
 40
45.0
 40
45.0
 40
45.0
 40
46.0
 40
46.0
 40
46.0
 40
47.0
 40
47.0
 40
47.0
 40
48.0
 40
48.0
 40
48.0
 40
49.0
 40
49.0
 40
49.0
 40
50.0
 40
50.0
 40
50.0
 40
51.0
 40
51.0
 40
51.0
 40
52.0
 40
52.0
 40
52.0
 40
53.0
 40
53.0
 40
53.0
 40
54.0
 40
54.0
 40
54.0
 40
55.0
 40
55.0
 40
55.0
 40
56.0
 40
56.0
 40
56.0
 40
57.0
 40
57.0
 40
57.0
 40
58.0
 40
58.0
 40
58.0
 40
59.0
 40
59.0
 40
59.0
 40
60.0
 40
60.0
 40
60.0
 40
61.0
 40
61.0
 40
61.0
 40
62.0
 40
62.0
 40
62.0
 40
63.0
 40
63.0
 40
63.0
 40
64.0
 40
64.0
 40
64.0
 40
65.0
 40
65.0
 40
65.0
 40
66.0
 40
66.0
 40
66.0
 40
67.0
 40
67.0
 40
67.0
 40
68.0
 40
68.0
 40
68.0
 40
69.0
 40
69.0
 40
69.0
 40
70.0
 40
70.0
 40
70.0
 40
71.0
 40
71.0
 40
71.0
 40
72.0
 40
72.0
 40
72.0
 40
73.0
 40
73.0
 40
73.0
 40
74.0
 40
74.0
 40
74.0
 40
75.0
 40
75.0
 40
75.0
 40
76.0
 40
76.0
 40
76.0
 40
77.0
 40
77.0
 40
77.0
 40
78.0
 40
78.0
 40
78.0
 40
79.0
 40
79.0
 40
79.0
 40
80.0
 40
80.0
 40
80.0
 40
81.0
 40
81.0
 40
81.0
 40
81.0
 10
2.100783280263082
 20
-55.10197361111111
 10
2.109938835587349
 20
-55.24846944444445
 10
2.152347222222223
 20
-55.37777222222222
 10
2.248054109876041
 20
-55.49039999999998
 10
3.072899922372017
 20
-56.46646388888888
 10
4.252562392571235
 20
-56.85928194444444
 10
5.252935978410783
 20
-57.5919361111111
 10
5.531405415820497
 20
-57.79588055555556
 10
5.728173466405274
 20
-58.10023888888887
 10
5.845637352326776
 20
-58.42141666666667
 10
6.060287346904261
 20
-59.00847777777777
 10
6.085960957366802
 20
-59.69829305555555
 10
6.11817901210846
 20
-60.31754444444444
 10
6.125210956375263
 20
-60.45271805555555
 10
6.183577621567464
 20
-60.54354583333333
 10
6.300654007498754
 20
-60.6078111111111
 10
7.196322040427831
 20
-61.09942222222222
 10
8.630428948643686
 20
-61.29056527777776
 10
9.521921981678235
 20
-60.65383472222222
 10
9.586516424490885
 20
-60.60769583333333
 10
9.621963645817635
 20
-60.55148194444443
 10
9.611831701629145
 20
-60.46785833333332
 10
9.494540037925516
 20
-59.49915694444444
 10
9.261534488256176
 20
-58.49074722222223
 10
9.274149765715265
 20
-57.50188333333332
 10
9.278884487817878
 20
-57.13077638888888
 10
9.271092821348045
 20
-56.78680972222221
 10
9.0750844929663
 20
-56.45624583333334
 10
8.770497000660827
 20
-55.94254722222222
 10
8.22061923677413
 20
-55.79310833333334
 10
7.7034192498397
 20
-55.57448333333332
 10
7.5964748080969
 20
-55.52927777777778
 10
7.508415088099254
 20
-55.46166944444445
 10
7.464401200322249
 20
-55.34742083333332
 10
7.385253980099454
 20
-55.14188333333333
 10
7.264361111111106
 20
-54.96619722222222
 10
7.09264982082459
 20
-54.82552777777778
 10
6.985503990197988
 20
-54.73774166666666
 10
6.935863713674229
 20
-54.62187083333333
 10
6.945622046761046
 20
-54.48216250000001
 10
6.953630379892072
 20
-54.36774027777778
 10
6.958797046428217
 20
-54.25304722222222
 10
6.969760935040135
 20
-54.1389125
 10
6.97738176818095
 20
-54.05960833333333
 10
6.992549823353329
 20
-53.98103472222222
 10
7.004748434156276
 20
-53.90221944444445
 10
7.007547045196689
 20
-53.88415138888889
 10
7.016502600526008
 20
-53.86938333333334
 10
7.037297044445141
 20
-53.87209583333333
 10
7.060731766075352
 20
-53.87515277777778
 10
7.064951210413205
 20
-53.89309166666666
 10
7.062353988256594
 20
-53.91318333333334
 10
7.060445654971469
 20
-53.92800833333333
 10
7.057445655047255
 20
-53.94270416666667
 10
7.054762321781709
 20
-53.95741388888888
 10
7.035330377828156
 20
-54.06386944444444
 10
7.022974822584729
 20
-54.17113055555555
 10
7.017937322711987
 20
-54.27922361111111
 10
7.017406767169834
 20
-54.29066111111111
 10
7.014378989468544
 20
-54.30887222222222
 10
7.019845655997111
 20
-54.31233055555555
 10
7.03286232233495
 20
-54.32056805555555
 10
7.044027777777778
 20
-54.30651944444445
 10
7.053527777777768
 20
-54.29812361111111
 10
7.128455375475621
 20
-54.23194999999999
 10
7.201101206973767
 20
-54.16359583333332
 10
7.256998427783905
 20
-54.07968472222222
 10
7.261605372111969
 20
-54.07276805555556
 10
7.265537316457085
 20
-54.06526249999999
 10
7.270976205208576
 20
-54.05907638888888
 10
7.281740093825546
 20
-54.04680694444444
 10
7.294713704608916
 20
-54.039775
 10
7.310241481994429
 20
-54.05073888888889
 10
7.324736111111102
 20
-54.06098611111111
 10
7.32723314823185
 20
-54.07556666666667
 10
7.318578981783806
 20
-54.09027638888888
 10
7.306824815414075
 20
-54.11030972222223
 10
7.294612315722588
 20
-54.13031527777778
 10
7.280319444444457
 20
-54.14854166666666
 10
7.218523428755866
 20
-54.22745833333334
 10
7.151345652675142
 20
-54.30298888888888
 10
7.067922043671488
 20
-54.35788194444444
 10
7.013517878379186
 20
-54.39365833333333
 10
7.004333333333332
 20
-54.43589444444444
 10
7.002552600878415
 20
-54.49401666666666
 10
6.998822045417101
 20
-54.61584305555556
 10
7.045290099798775
 20
-54.70955555555555
 10
7.140640097390031
 20
-54.78255972222223
 10
7.177594263123157
 20
-54.81083194444444
 10
7.213672039989533
 20
-54.84063888888888
 10
7.247267872474165
 20
-54.87275694444444
 10
7.268981760814515
 20
-54.89352222222222
 10
7.279644260545157
 20
-54.88977777777778
 10
7.296694444444433
 20
-54.867475
 10
7.445327589692978
 20
-54.67301805555555
 10
7.565288697773616
 20
-54.42462916666666
 10
7.624158140730893
 20
-54.1873611111111
 10
7.73118869358263
 20
-53.75605277777778
 10
7.408187312853443
 20
-53.49052777777778
 10
7.148862319404543
 20
-53.20683472222222
 10
7.019788711554106
 20
-53.06562083333334
 10
6.877827604029234
 20
-52.94211388888888
 10
6.697031775263187
 20
-52.86982777777777
 10
6.546287334626868
 20
-52.80956805555554
 10
6.404972222222214
 20
-52.83150972222222
 10
6.276429008110729
 20
-52.9235875
 10
6.175827621763245
 20
-52.99564444444445
 10
6.10324012359696
 20
-53.09479583333334
 10
6.057402777777775
 20
-53.20941805555556
 10
5.963631793790429
 20
-53.44400138888889
 10
5.918569444444453
 20
-53.69144444444444
 10
5.87854429593992
 20
-53.93930277777778
 10
5.853085963249719
 20
-54.09693472222222
 10
5.844590130131008
 20
-54.25676388888888
 10
5.83544846369528
 20
-54.41624722222222
 10
5.834141519283851
 20
-54.43909444444444
 10
5.833524852632763
 20
-54.46881527777776
 10
5.801320686779642
 20
-54.46709305555555
 10
5.771470687533716
 20
-54.46549999999999
 10
5.775345687435825
 20
-54.43827638888888
 10
5.776363742965663
 20
-54.4164625
 10
5.796685964674503
 20
-53.98114999999999
 10
5.916862350527481
 20
-52.47832916666666
 10
6.719405385809093
 20
-52.81428888888889
 10
6.859931771147987
 20
-52.87311388888889
 10
6.979677601456286
 20
-52.96048333333334
 10
7.090281765328856
 20
-53.06274999999999
 10
7.234681761681006
 20
-53.1962875
 10
7.350667869862061
 20
-53.42358055555555
 10
7.571087308738242
 20
-53.42317916666666
 10
7.68763313912738
 20
-53.42297777777778
 10
7.826451191176097
 20
-53.38955416666666
 10
7.923077577623998
 20
-53.32214722222221
 10
8.29254701273486
 20
-53.06447222222221
 10
7.690660916828669
 20
-52.74253333333333
 10
7.511501199132403
 20
-52.61363194444445
 10
7.36104425848882
 20
-52.50535277777777
 10
7.235542872770363
 20
-52.37732638888888
 10
7.099165098437778
 20
-52.25438055555554
 10
6.943641491255524
 20
-52.11418333333333
 10
6.764898440215397
 20
-52.03708888888889
 10
6.551970667816628
 20
-52.03673055555555
 10
6.237881786862292
 20
-52.03621388888888
 10
5.923219294811335
 20
-52.07133194444445
 10
5.609273469408941
 20
-52.06115694444444
 10
5.523942916009016
 20
-52.05841527777778
 10
5.434722222222224
 20
-52.05578888888888
 10
5.352547087005505
 20
-52.08772083333332
 10
5.214417923828275
 20
-52.14139305555555
 10
5.101101260024229
 20
-52.22920833333334
 10
5.015869317732924
 20
-52.35115
 10
4.830123489091926
 20
-52.61472222222222
 10
4.798062378790746
 20
-52.93125
 10
4.763892935209494
 20
-53.24225416666667
 10
4.725072102856857
 20
-53.59562222222222
 10
4.699470714614714
 20
-53.95043888888888
 10
4.687185992702831
 20
-54.30571527777778
 10
4.686640159383286
 20
-54.32160138888889
 10
4.68349710390713
 20
-54.34120555555556
 10
4.668399882066296
 20
-54.34621388888889
 10
4.645395715980763
 20
-54.35384861111111
 10
4.632422105197393
 20
-54.32029583333332
 10
4.631747105214445
 20
-54.29605694444444
 10
4.621816549909757
 20
-53.93895833333332
 10
4.655670715721195
 20
-53.58474305555556
 10
4.688634603777346
 20
-53.22965416666666
 10
4.718112380810453
 20
-52.91197777777778
 10
4.778242934846983
 20
-52.57706527777776
 10
4.971266541081907
 20
-52.31415277777779
 10
5.103354037745096
 20
-52.13423194444443
 10
5.271935977930803
 20
-52.00865972222221
 10
5.507769305306485
 20
-52.00534444444444
 10
5.537044304566936
 20
-52.00494305555556
 10
5.602902777777772
 20
-51.97220833333333
 10
5.627341524508059
 20
-51.96134444444444
 10
6.134927622796466
 20
-51.73541388888889
 10
6.57222066730507
 20
-51.85055416666667
 10
6.918727602996013
 20
-51.4408
 10
7.063244266011881
 20
-51.26992083333333
 10
7.012641489512437
 20
-51.06698194444445
 10
6.804823439206807
 20
-50.98543888888889
 10
6.472666666666655
 20
-50.85513055555555
 10
6.066372068972769
 20
-50.9122486111111
 10
5.714309577866616
 20
-50.86920972222222
 10
5.446230417972199
 20
-50.83643194444444
 10
5.204529035189201
 20
-50.82075972222221
 10
4.960072096920258
 20
-50.96579305555554
 10
4.713720714254729
 20
-51.11197361111111
 10
4.478117942428778
 20
-51.2741125
 10
4.268677669941907
 20
-51.47125277777777
 10
4.064419341768573
 20
-51.66351527777778
 10
3.7919915708729
 20
-51.81712916666667
 10
3.717020739433489
 20
-52.10822777777778
 10
3.624069444444444
 20
-52.46920138888888
 10
3.551022132515855
 20
-52.85477361111111
 10
3.501883244868319
 20
-53.22421388888888
 10
3.501051300444892
 20
-53.23041388888888
 10
3.498137411629614
 20
-53.23632638888888
 10
3.496186022790021
 20
-53.24236805555555
 10
3.494434633945376
 20
-53.23700138888888
 10
3.49096241181087
 20
-53.23153333333333
 10
3.491177689583209
 20
-53.2262375
 10
3.49498046726492
 20
-53.13114722222222
 10
3.476941578831732
 20
-53.03742083333333
 10
3.473912412241589
 20
-52.94281805555556
 10
3.462604079193928
 20
-52.58863194444444
 10
3.392570747629785
 20
-52.19160833333333
 10
3.564741576613717
 20
-51.86362777777777
 10
3.862426291315791
 20
-51.2966
 10
4.120287395912783
 20
-50.69158611111111
 10
4.624327660957432
 20
-50.26784027777777
 10
4.79576654551541
 20
-50.12371111111111
 10
4.932274875400253
 20
-49.95601805555555
 10
5.011635984506534
 20
-49.74479861111111
 10
5.087783204805115
 20
-49.54211805555554
 10
5.075269316232354
 20
-49.35044444444444
 10
4.941702652939865
 20
-49.17329444444443
 10
4.909901264854347
 20
-49.13111666666666
 10
4.871497099157851
 20
-49.09927083333333
 10
4.82168460041622
 20
-49.07949444444444
 10
4.699742936830059
 20
-49.03105972222222
 10
4.596458333333329
 20
-49.07220416666667
 10
4.501438775172978
 20
-49.14592638888889
 10
4.364429056411912
 20
-49.25225416666667
 10
4.244281837224864
 20
-49.37755416666666
 10
4.120661007014456
 20
-49.49833194444444
 10
3.793426293058878
 20
-49.81800416666667
 10
3.414126302640802
 20
-50.067025
 10
3.127548532102587
 20
-50.42972083333332
 10
2.926719370509292
 20
-50.68387916666666
 10
2.80744715130014
 20
-50.97547916666667
 10
2.631976322399573
 20
-51.24261111111112
 10
2.56349160190742
 20
-51.34688611111111
 10
2.48523611111111
 20
-51.44461805555555
 10
2.422792994350655
 20
-51.55288194444444
 10
2.289701331046166
 20
-51.78360555555555
 10
2.190679111325456
 20
-52.02490555555556
 10
2.204412444311856
 20
-52.29838055555555
 10
2.238524943450102
 20
-52.97803472222222
 10
2.270255498204076
 20
-53.63688055555556
 10
2.155877723315724
 20
-54.31253194444444
 10
2.111690224431994
 20
-54.57352222222222
 10
2.084149947349943
 20
-54.83593194444444
 10
2.100783280263082
 20
-55.10197361111111
 97
        0
 97
        0
 92
        1
 93
        1
 72
     4
 94
        3
 73
     0
 74
     1
 95
       29
 96
       25
 40
0.0
 40
0.0
 40
0.0
 40
0.0
 40
1.0
 40
1.0
 40
1.0
 40
2.0
 40
2.0
 40
2.0
 40
3.0
 40
3.0
 40
3.0
 40
4.0
 40
4.0
 40
4.0
 40
5.0
 40
5.0
 40
5.0
 40
6.0
 40
6.0
 40
6.0
 40
7.0
 40
7.0
 40
7.0
 40
8.0
 40
8.0
 40
8.0
 40
8.0
 10
4.316080446522189
 20
-55.2959
 10
4.327977668443863
 20
-55.26424166666667
 10
4.353292945582123
 20
-55.27689861111111
 10
4.374862389481677
 20
-55.2863986111111
 10
4.553849884960073
 20
-55.36530138888889
 10
4.741131824673377
 20
-55.39134861111112
 10
4.934872097556863
 20
-55.37210416666665
 10
5.017949873235921
 20
-55.36386666666668
 10
5.096910982352306
 20
-55.33674305555557
 10
5.175898480356914
 20
-55.31102638888888
 10
5.196592924278573
 20
-55.30429444444444
 10
5.220358201455989
 20
-55.29235555555556
 10
5.230734590082748
 20
-55.32168888888888
 10
5.240622089832969
 20
-55.34964444444444
 10
5.216627645994675
 20
-55.35904444444446
 10
5.195817924298151
 20
-55.36627777777777
 10
5.079229038354545
 20
-55.40683333333332
 10
4.960588763573873
 20
-55.437675
 10
4.822416666666665
 20
-55.4399138888889
 10
4.669877659806742
 20
-55.42890555555555
 10
4.504337386210864
 20
-55.41517222222222
 10
4.351211001190273
 20
-55.34053194444444
 10
4.332009612786452
 20
-55.33116111111111
 10
4.305474891234553
 20
-55.32408472222222
 10
4.316080446522189
 20
-55.2959
 97
        0
 97
        0
 92
        1
 93
        1
 72
     4
 94
        3
 73
     0
 74
     1
 95
       32
 96
       28
 40
0.0
 40
0.0
 40
0.0
 40
0.0
 40
1.0
 40
1.0
 40
1.0
 40
2.0
 40
2.0
 40
2.0
 40
3.0
 40
3.0
 40
3.0
 40
4.0
 40
4.0
 40
4.0
 40
5.0
 40
5.0
 40
5.0
 40
6.0
 40
6.0
 40
6.0
 40
7.0
 40
7.0
 40
7.0
 40
8.0
 40
8.0
 40
8.0
 40
9.0
 40
9.0
 40
9.0
 40
9.0
 10
3.362548526165988
 20
-55.28502222222222
 10
3.370240192638347
 20
-55.265375
 10
3.387979081079114
 20
-55.26679583333333
 10
3.405013888888889
 20
-55.27131666666666
 10
3.435452690990941
 20
-55.27936666666667
 10
3.465631856895218
 20
-55.28859444444444
 10
3.496272133898957
 20
-55.29575555555556
 10
3.657277777777772
 20
-55.33338472222223
 10
3.815226292508163
 20
-55.32566388888888
 10
3.970505455252148
 20
-55.26602083333334
 10
3.99333739911981
 20
-55.2572375
 10
4.027952676023132
 20
-55.22845000000001
 10
4.043063786752504
 20
-55.26854583333334
 10
4.057256841949513
 20
-55.30618888888888
 10
4.014648509692557
 20
-55.31115555555556
 10
3.991012399178544
 20
-55.32085694444443
 10
3.89306656831953
 20
-55.36108194444444
 10
3.789451293159295
 20
-55.37379722222221
 10
3.684342962481221
 20
-55.37935138888889
 10
3.593415187000472
 20
-55.37280694444444
 10
3.502758244846215
 20
-55.36350833333333
 10
3.414872135955294
 20
-55.33658472222221
 10
3.405358247306746
 20
-55.33365694444445
 10
3.395770747548946
 20
-55.33081666666668
 10
3.386672136667686
 20
-55.32691250000001
 10
3.36834574824176
 20
-55.31906249999999
 10
3.35395130416095
 20
-55.30697916666668
 10
3.362548526165988
 20
-55.28502222222222
 97
        0
 97
        0
 75
     2
 76
     1
 98
        0
  0
SPLINE
  5
45
330
1F
100
AcDbEntity
  8
Layer 1
370
     0
100
AcDbSpline
210
0.0
220
0.0
230
1.0
 70
    11
 71
     3
 72
    41
 73
    37
 74
     0
 42
0.0000000001
 43
0.0000000001
 12
1.0
 22
0.0
 32
0.0
 13
1.0
 23
0.0
 33
0.0
 40
0.0
 40
0.0
 40
0.0
 40
0.0
 40
1.0
 40
1.0
 40
1.0
 40
2.0
 40
2.0
 40
2.0
 40
3.0
 40
3.0
 40
3.0
 40
4.0
 40
4.0
 40
4.0
 40
5.0
 40
5.0
 40
5.0
 40
6.0
 40
6.0
 40
6.0
 40
7.0
 40
7.0
 40
7.0
 40
8.0
 40
8.0
 40
8.0
 40
9.0
 40
9.0
 40
9.0
 40
10.0
 40
10.0
 40
10.0
 40
11.0
 40
11.0
 40
11.0
 40
12.0
 40
12.0
 40
12.0
 40
12.0
 10
4.753201268812922
 20
-50.22599166666666
 30
0.0
 10
4.708295714391776
 20
-50.26798333333333
 30
0.0
 10
4.661927660007576
 20
-50.30843888888888
 30
0.0
 10
4.616692938928079
 20
-50.35011527777777
 30
0.0
 10
4.491809608749564
 20
-50.46509583333333
 30
0.0
 10
4.371547111787651
 20
-50.58444027777778
 30
0.0
 10
4.269769336580995
 20
-50.72107777777779
 30
0.0
 10
4.150984617359528
 20
-50.88057500000001
 30
0.0
 10
4.063198508466081
 20
-51.0579125
 30
0.0
 10
3.974523510706199
 20
-51.23470416666666
 30
0.0
 10
3.964133233190902
 20
-51.2553986111111
 30
0.0
 10
3.954445733435629
 20
-51.27669583333333
 30
0.0
 10
3.952537400150504
 20
-51.29509305555555
 30
0.0
 10
3.964162399856832
 20
-51.38425694444443
 30
0.0
 10
3.977077677308342
 20
-51.46798194444444
 30
0.0
 10
3.982704066055097
 20
-51.55265277777778
 30
0.0
 10
3.984397121567882
 20
-51.57814027777777
 30
0.0
 10
3.977379066189617
 20
-51.61779305555555
 30
0.0
 10
3.996466565707427
 20
-51.62519722222221
 30
0.0
 10
4.016601287421003
 20
-51.63303333333334
 30
0.0
 10
4.039462397954594
 20
-51.60058611111111
 30
0.0
 10
4.059323508563971
 20
-51.58369444444444
 30
0.0
 10
4.192230449650904
 20
-51.47065
 30
0.0
 10
4.31021100222602
 20
-51.3405861111111
 30
0.0
 10
4.453047109728787
 20
-51.23890833333333
 30
0.0
 10
4.635635994005093
 20
-51.10894444444444
 30
0.0
 10
4.811035989574116
 20
-50.96757222222221
 30
0.0
 10
5.017476262136774
 20
-50.87496388888889
 30
0.0
 10
5.052062372374166
 20
-50.85945
 30
0.0
 10
5.043251261485643
 20
-50.83769444444444
 30
0.0
 10
5.035802650562699
 20
-50.81470416666667
 30
0.0
 10
4.971352652190843
 20
-50.61518055555555
 30
0.0
 10
4.892866543062458
 20
-50.42136805555555
 30
0.0
 10
4.800000000000005
 20
-50.23329722222221
 30
0.0
 10
4.785505434663516
 20
-50.20393472222223
 30
0.0
 10
4.773435990523972
 20
-50.2070486111111
 30
0.0
 10
4.753201268812922
 20
-50.22599166666666
 30
0.0
  0
HATCH
  5
46
330
1F
100
AcDbEntity
  8
Layer 1
 62
     7
420
 16777215
100
AcDbHatch
 10
0.0
 20
0.0
 30
0.0
210
0.0
220
0.0
230
1.0
  2
SOLID
 70
     1
 71
     0
 91
        1
 92
        1
 93
        1
 72
     4
 94
        3
 73
     0
 74
     1
 95
       41
 96
       37
 40
0.0
 40
0.0
 40
0.0
 40
0.0
 40
1.0
 40
1.0
 40
1.0
 40
2.0
 40
2.0
 40
2.0
 40
3.0
 40
3.0
 40
3.0
 40
4.0
 40
4.0
 40
4.0
 40
5.0
 40
5.0
 40
5.0
 40
6.0
 40
6.0
 40
6.0
 40
7.0
 40
7.0
 40
7.0
 40
8.0
 40
8.0
 40
8.0
 40
9.0
 40
9.0
 40
9.0
 40
10.0
 40
10.0
 40
10.0
 40
11.0
 40
11.0
 40
11.0
 40
12.0
 40
12.0
 40
12.0
 40
12.0
 10
4.753201268812922
 20
-50.22599166666666
 10
4.708295714391776
 20
-50.26798333333333
 10
4.661927660007576
 20
-50.30843888888888
 10
4.616692938928079
 20
-50.35011527777777
 10
4.491809608749564
 20
-50.46509583333333
 10
4.371547111787651
 20
-50.58444027777778
 10
4.269769336580995
 20
-50.72107777777779
 10
4.150984617359528
 20
-50.88057500000001
 10
4.063198508466081
 20
-51.0579125
 10
3.974523510706199
 20
-51.23470416666666
 10
3.964133233190902
 20
-51.2553986111111
 10
3.954445733435629
 20
-51.27669583333333
 10
3.952537400150504
 20
-51.29509305555555
 10
3.964162399856832
 20
-51.38425694444443
 10
3.977077677308342
 20
-51.46798194444444
 10
3.982704066055097
 20
-51.55265277777778
 10
3.984397121567882
 20
-51.57814027777777
 10
3.977379066189617
 20
-51.61779305555555
 10
3.996466565707427
 20
-51.62519722222221
 10
4.016601287421003
 20
-51.63303333333334
 10
4.039462397954594
 20
-51.60058611111111
 10
4.059323508563971
 20
-51.58369444444444
 10
4.192230449650904
 20
-51.47065
 10
4.31021100222602
 20
-51.3405861111111
 10
4.453047109728787
 20
-51.23890833333333
 10
4.635635994005093
 20
-51.10894444444444
 10
4.811035989574116
 20
-50.96757222222221
 10
5.017476262136774
 20
-50.87496388888889
 10
5.052062372374166
 20
-50.85945
 10
5.043251261485643
 20
-50.83769444444444
 10
5.035802650562699
 20
-50.81470416666667
 10
4.971352652190843
 20
-50.61518055555555
 10
4.892866543062458
 20
-50.42136805555555
 10
4.800000000000005
 20
-50.23329722222221
 10
4.785505434663516
 20
-50.20393472222223
 10
4.773435990523972
 20
-50.2070486111111
 10
4.753201268812922
 20
-50.22599166666666
 97
        0
 97
        0
 75
     2
 76
     1
 98
        0
  0
ENDSEC
  0
SECTION
  2
OBJECTS
  0
DICTIONARY
  5
C
330
0
100
AcDbDictionary
281
     1
  3
ACAD_GROUP
350
D
  3
ACAD_LAYOUT
350
1A
  3
ACAD_MATERIAL
350
3B
  3
ACAD_MLEADERSTYLE
350
48
  3
ACAD_MLINESTYLE
350
17
  3
ACAD_PLOTSETTINGS
350
19
  3
ACAD_PLOTSTYLENAME
350
E
  3
ACAD_TABLESTYLE
350
47
  3
ACAD_VISUALSTYLE
350
2A
  0
SUN
  5
3F
330
29
100
AcDbSun
 90
        1
290
     0
 63
     7
421
 16777215
 40
1.0
291
     1
 91
  2455826
 92
 54000000
292
     0
 70
     2
 71
   256
280
     1
  0
DICTIONARY
  5
D
102
{ACAD_REACTORS
330
C
102
}
330
C
100
AcDbDictionary
281
     1
  0
DICTIONARY
  5
1A
102
{ACAD_REACTORS
330
C
102
}
330
C
100
AcDbDictionary
281
     1
  3
Layout1
350
1E
  3
Layout2
350
26
  3
Model
350
22
  0
DICTIONARY
  5
3B
102
{ACAD_REACTORS
330
C
102
}
330
C
100
AcDbDictionary
281
     1
  3
ByBlock
350
3D
  3
ByLayer
350
3C
  3
Global
350
3E
  0
DICTIONARY
  5
48
102
{ACAD_REACTORS
330
C
102
}
330
C
100
AcDbDictionary
281
     1
  0
DICTIONARY
  5
17
102
{ACAD_REACTORS
330
C
102
}
330
C
100
AcDbDictionary
281
     1
  3
Standard
350
18
  0
DICTIONARY
  5
19
102
{ACAD_REACTORS
330
C
102
}
330
C
100
AcDbDictionary
281
     1
  0
ACDBDICTIONARYWDFLT
  5
E
102
{ACAD_REACTORS
330
C
102
}
330
C
100
AcDbDictionary
281
     1
  3
Normal
350
F
100
AcDbDictionaryWithDefault
340
F
  0
DICTIONARY
  5
47
102
{ACAD_REACTORS
330
C
102
}
330
C
100
AcDbDictionary
281
     1
  0
DICTIONARY
  5
2A
102
{ACAD_REACTORS
330
C
102
}
330
C
100
AcDbDictionary
281
     1
  3
2dWireframe
350
2F
  3
3D Hidden
350
31
  3
3dWireframe
350
30
  3
Basic
350
32
  3
Brighten
350
36
  3
ColorChange
350
3A
  3
Conceptual
350
34
  3
Dim
350
35
  3
Facepattern
350
39
  3
Flat
350
2B
  3
FlatWithEdges
350
2C
  3
Gouraud
350
2D
  3
GouraudWithEdges
350
2E
  3
Linepattern
350
38
  3
Realistic
350
33
  3
Thicken
350
37
  0
LAYOUT
  5
1E
102
{ACAD_REACTORS
330
1A
102
}
330
1A
100
AcDbPlotSettings
  1

  2
none_device
  4

  6

 40
0.0
 41
0.0
 42
0.0
 43
0.0
 44
0.0
 45
0.0
 46
0.0
 47
0.0
 48
0.0
 49
0.0
140
0.0
141
0.0
142
1.0
143
1.0
 70
   688
 72
     0
 73
     0
 74
     5
  7

 75
    16
 76
     0
 77
     2
 78
   300
147
1.0
148
0.0
149
0.0
100
AcDbLayout
  1
Layout1
 70
     1
 71
     1
 10
0.0
 20
0.0
 11
12.0
 21
9.0
 12
0.0
 22
0.0
 32
0.0
 14
1.000000000000000E+20
 24
1.000000000000000E+20
 34
1.000000000000000E+20
 15
-1.000000000000000E+20
 25
-1.000000000000000E+20
 35
-1.000000000000000E+20
146
0.0
 13
0.0
 23
0.0
 33
0.0
 16
1.0
 26
0.0
 36
0.0
 17
0.0
 27
1.0
 37
0.0
 76
     0
330
1B
  0
LAYOUT
  5
26
102
{ACAD_REACTORS
330
1A
102
}
330
1A
100
AcDbPlotSettings
  1

  2
none_device
  4

  6

 40
0.0
 41
0.0
 42
0.0
 43
0.0
 44
0.0
 45
0.0
 46
0.0
 47
0.0
 48
0.0
 49
0.0
140
0.0
141
0.0
142
1.0
143
1.0
 70
   688
 72
     0
 73
     0
 74
     5
  7

 75
    16
 76
     0
 77
     2
 78
   300
147
1.0
148
0.0
149
0.0
100
AcDbLayout
  1
Layout2
 70
     1
 71
     2
 10
0.0
 20
0.0
 11
0.0
 21
0.0
 12
0.0
 22
0.0
 32
0.0
 14
0.0
 24
0.0
 34
0.0
 15
0.0
 25
0.0
 35
0.0
146
0.0
 13
0.0
 23
0.0
 33
0.0
 16
1.0
 26
0.0
 36
0.0
 17
0.0
 27
1.0
 37
0.0
 76
     0
330
23
  0
LAYOUT
  5
22
102
{ACAD_REACTORS
330
1A
102
}
330
1A
100
AcDbPlotSettings
  1

  2
none_device
  4

  6

 40
0.0
 41
0.0
 42
0.0
 43
0.0
 44
0.0
 45
0.0
 46
0.0
 47
0.0
 48
0.0
 49
0.0
140
0.0
141
0.0
142
1.0
143
1.0
 70
  1712
 72
     0
 73
     0
 74
     0
  7

 75
     0
 76
     0
 77
     2
 78
   300
147
1.0
148
0.0
149
0.0
100
AcDbLayout
  1
Model
 70
     1
 71
     0
 10
0.0
 20
0.0
 11
12.0
 21
9.0
 12
0.0
 22
0.0
 32
0.0
 14
1.000000000000000E+20
 24
1.000000000000000E+20
 34
1.000000000000000E+20
 15
-1.000000000000000E+20
 25
-1.000000000000000E+20
 35
-1.000000000000000E+20
146
0.0
 13
0.0
 23
0.0
 33
0.0
 16
1.0
 26
0.0
 36
0.0
 17
0.0
 27
1.0
 37
0.0
 76
     0
330
1F
331
29
  0
MATERIAL
  5
3D
102
{ACAD_REACTORS
330
3B
102
}
330
3B
100
AcDbMaterial
  1
ByBlock
 72
     1
 94
      127
  0
MATERIAL
  5
3C
102
{ACAD_REACTORS
330
3B
102
}
330
3B
100
AcDbMaterial
  1
ByLayer
 72
     1
 94
      127
  0
MATERIAL
  5
3E
102
{ACAD_REACTORS
330
3B
102
}
330
3B
100
AcDbMaterial
  1
Global
 72
     1
 94
      127
  0
MLINESTYLE
  5
18
102
{ACAD_REACTORS
330
17
102
}
330
17
100
AcDbMlineStyle
  2
Standard
 70
     0
  3

 62
   256
 51
90.0
 52
90.0
 71
     2
 49
0.5
 62
   256
  6
BYLAYER
 49
-0.5
 62
   256
  6
BYLAYER
  0
ACDBPLACEHOLDER
  5
F
102
{ACAD_REACTORS
330
E
102
}
330
E
  0
VISUALSTYLE
  5
2F
102
{ACAD_REACTORS
330
2A
102
}
330
2A
100
AcDbVisualStyle
  2
2dWireframe
 70
     4
177
     2
291
     0
 71
     0
176
     1
 72
     2
176
     1
 73
     0
176
     1
 90
        0
176
     1
 40
-0.6
176
     1
 41
-30.0
176
     1
 62
     5
 63
     7
421
 16777215
176
     1
 74
     1
176
     1
 91
        4
176
     1
 64
     7
176
     1
 65
   257
176
     1
 75
     1
176
     1
175
     1
176
     1
 42
1.0
176
     1
 92
        0
176
     1
 66
   257
176
     1
 43
1.0
176
     1
 76
     1
176
     1
 77
     6
176
     1
 78
     2
176
     1
 67
     7
176
     1
 79
     5
176
     1
170
     0
176
     1
171
     0
176
     1
290
     0
176
     1
 93
        1
176
     1
 44
0.0
176
     1
173
     0
176
     1
  0
VISUALSTYLE
  5
31
102
{ACAD_REACTORS
330
2A
102
}
330
2A
100
AcDbVisualStyle
  2
3D Hidden
 70
     6
177
     2
291
     0
 71
     1
176
     1
 72
     2
176
     1
 73
     2
176
     1
 90
        0
176
     1
 40
-0.6
176
     1
 41
-30.0
176
     1
 62
     5
 63
     7
421
 16777215
176
     1
 74
     2
176
     1
 91
        2
176
     1
 64
     7
176
     1
 65
   257
176
     1
 75
     2
176
     1
175
     1
176
     1
 42
40.0
176
     1
 92
        0
176
     1
 66
   257
176
     1
 43
1.0
176
     1
 76
     1
176
     1
 77
     6
176
     1
 78
     2
176
     1
 67
     7
176
     1
 79
     3
176
     1
170
     0
176
     1
171
     0
176
     1
290
     0
176
     1
 93
        1
176
     1
 44
0.0
176
     1
173
     0
176
     1
  0
VISUALSTYLE
  5
30
102
{ACAD_REACTORS
330
2A
102
}
330
2A
100
AcDbVisualStyle
  2
3dWireframe
 70
     5
177
     2
291
     0
 71
     0
176
     1
 72
     2
176
     1
 73
     0
176
     1
 90
        0
176
     1
 40
-0.6
176
     1
 41
-30.0
176
     1
 62
     5
 63
     7
421
 16777215
176
     1
 74
     1
176
     1
 91
        4
176
     1
 64
     7
176
     1
 65
   257
176
     1
 75
     1
176
     1
175
     1
176
     1
 42
1.0
176
     1
 92
        0
176
     1
 66
   257
176
     1
 43
1.0
176
     1
 76
     1
176
     1
 77
     6
176
     1
 78
     2
176
     1
 67
     7
176
     1
 79
     5
176
     1
170
     0
176
     1
171
     0
176
     1
290
     0
176
     1
 93
        1
176
     1
 44
0.0
176
     1
173
     0
176
     1
  0
VISUALSTYLE
  5
32
102
{ACAD_REACTORS
330
2A
102
}
330
2A
100
AcDbVisualStyle
  2
Basic
 70
     7
177
     2
291
     1
 71
     1
176
     1
 72
     0
176
     1
 73
     1
176
     1
 90
        0
176
     1
 40
-0.6
176
     1
 41
-30.0
176
     1
 62
     5
 63
     7
421
 16777215
176
     1
 74
     0
176
     1
 91
        4
176
     1
 64
     7
176
     1
 65
   257
176
     1
 75
     1
176
     1
175
     1
176
     1
 42
1.0
176
     1
 92
        8
176
     1
 66
     7
176
     1
 43
1.0
176
     1
 76
     1
176
     1
 77
     6
176
     1
 78
     2
176
     1
 67
     7
176
     1
 79
     5
176
     1
170
     0
176
     1
171
     0
176
     1
290
     0
176
     1
 93
        1
176
     1
 44
0.0
176
     1
173
     0
176
     1
  0
VISUALSTYLE
  5
36
102
{ACAD_REACTORS
330
2A
102
}
330
2A
100
AcDbVisualStyle
  2
Brighten
 70
    12
177
     2
291
     1
 71
     2
176
     1
 72
     2
176
     1
 73
     0
176
     1
 90
        0
176
     1
 40
-0.6
176
     1
 41
-30.0
176
     1
 62
     5
 63
     7
421
 16777215
176
     1
 74
     1
176
     1
 91
        4
176
     1
 64
     7
176
     1
 65
   257
176
     1
 75
     1
176
     1
175
     1
176
     1
 42
1.0
176
     1
 92
        8
176
     1
 66
     7
176
     1
 43
1.0
176
     1
 76
     1
176
     1
 77
     6
176
     1
 78
     2
176
     1
 67
     7
176
     1
 79
     5
176
     1
170
     0
176
     1
171
     0
176
     1
290
     0
176
     1
 93
        1
176
     1
 44
50.0
176
     1
173
     0
176
     1
  0
VISUALSTYLE
  5
3A
102
{ACAD_REACTORS
330
2A
102
}
330
2A
100
AcDbVisualStyle
  2
ColorChange
 70
    16
177
     2
291
     1
 71
     2
176
     1
 72
     2
176
     1
 73
     3
176
     1
 90
        0
176
     1
 40
-0.6
176
     1
 41
-30.0
176
     1
 62
     5
 63
     8
421
  8421504
176
     1
 74
     1
176
     1
 91
        4
176
     1
 64
     7
176
     1
 65
   257
176
     1
 75
     1
176
     1
175
     1
176
     1
 42
1.0
176
     1
 92
        8
176
     1
 66
     8
424
  8421504
176
     1
 43
1.0
176
     1
 76
     1
176
     1
 77
     6
176
     1
 78
     2
176
     1
 67
     7
176
     1
 79
     5
176
     1
170
     0
176
     1
171
     0
176
     1
290
     0
176
     1
 93
        1
176
     1
 44
0.0
176
     1
173
     0
176
     1
  0
VISUALSTYLE
  5
34
102
{ACAD_REACTORS
330
2A
102
}
330
2A
100
AcDbVisualStyle
  2
Conceptual
 70
     9
177
     2
291
     0
 71
     3
176
     1
 72
     2
176
     1
 73
     0
176
     1
 90
        0
176
     1
 40
-0.6
176
     1
 41
-30.0
176
     1
 62
     5
 63
     7
421
 16777215
176
     1
 74
     2
176
     1
 91
        2
176
     1
 64
     7
176
     1
 65
   257
176
     1
 75
     1
176
     1
175
     1
176
     1
 42
40.0
176
     1
 92
        8
176
     1
 66
     7
176
     1
 43
1.0
176
     1
 76
     1
176
     1
 77
     6
176
     1
 78
     2
176
     1
 67
     7
176
     1
 79
     3
176
     1
170
     0
176
     1
171
     0
176
     1
290
     0
176
     1
 93
        1
176
     1
 44
0.0
176
     1
173
     0
176
     1
  0
VISUALSTYLE
  5
35
102
{ACAD_REACTORS
330
2A
102
}
330
2A
100
AcDbVisualStyle
  2
Dim
 70
    11
177
     2
291
     1
 71
     2
176
     1
 72
     2
176
     1
 73
     0
176
     1
 90
        0
176
     1
 40
-0.6
176
     1
 41
-30.0
176
     1
 62
     5
 63
     7
421
 16777215
176
     1
 74
     1
176
     1
 91
        4
176
     1
 64
     7
176
     1
 65
   257
176
     1
 75
     1
176
     1
175
     1
176
     1
 42
1.0
176
     1
 92
        8
176
     1
 66
     7
176
     1
 43
1.0
176
     1
 76
     1
176
     1
 77
     6
176
     1
 78
     2
176
     1
 67
     7
176
     1
 79
     5
176
     1
170
     0
176
     1
171
     0
176
     1
290
     0
176
     1
 93
        1
176
     1
 44
-50.0
176
     1
173
     0
176
     1
  0
VISUALSTYLE
  5
39
102
{ACAD_REACTORS
330
2A
102
}
330
2A
100
AcDbVisualStyle
  2
Facepattern
 70
    15
177
     2
291
     1
 71
     2
176
     1
 72
     2
176
     1
 73
     0
176
     1
 90
        0
176
     1
 40
-0.6
176
     1
 41
-30.0
176
     1
 62
     5
 63
     7
421
 16777215
176
     1
 74
     1
176
     1
 91
        4
176
     1
 64
     7
176
     1
 65
   257
176
     1
 75
     1
176
     1
175
     1
176
     1
 42
1.0
176
     1
 92
        8
176
     1
 66
     7
176
     1
 43
1.0
176
     1
 76
     1
176
     1
 77
     6
176
     1
 78
     2
176
     1
 67
     7
176
     1
 79
     5
176
     1
170
     0
176
     1
171
     0
176
     1
290
     0
176
     1
 93
        1
176
     1
 44
0.0
176
     1
173
     0
176
     1
  0
VISUALSTYLE
  5
2B
102
{ACAD_REACTORS
330
2A
102
}
330
2A
100
AcDbVisualStyle
  2
Flat
 70
     0
177
     2
291
     1
 71
     2
176
     1
 72
     1
176
     1
 73
     1
176
     1
 90
        2
176
     1
 40
-0.6
176
     1
 41
30.0
176
     1
 62
     5
 63
     7
421
 16777215
176
     1
 74
     0
176
     1
 91
        4
176
     1
 64
     7
176
     1
 65
   257
176
     1
 75
     1
176
     1
175
     1
176
     1
 42
1.0
176
     1
 92
        8
176
     1
 66
     7
176
     1
 43
1.0
176
     1
 76
     1
176
     1
 77
     6
176
     1
 78
     2
176
     1
 67
     7
176
     1
 79
     5
176
     1
170
     0
176
     1
171
     0
176
     1
290
     0
176
     1
 93
       13
176
     1
 44
0.0
176
     1
173
     0
176
     1
  0
VISUALSTYLE
  5
2C
102
{ACAD_REACTORS
330
2A
102
}
330
2A
100
AcDbVisualStyle
  2
FlatWithEdges
 70
     1
177
     2
291
     1
 71
     2
176
     1
 72
     1
176
     1
 73
     1
176
     1
 90
        2
176
     1
 40
-0.6
176
     1
 41
30.0
176
     1
 62
     5
 63
     7
421
 16777215
176
     1
 74
     1
176
     1
 91
        4
176
     1
 64
     7
176
     1
 65
   257
176
     1
 75
     1
176
     1
175
     1
176
     1
 42
1.0
176
     1
 92
        0
176
     1
 66
   257
176
     1
 43
1.0
176
     1
 76
     1
176
     1
 77
     6
176
     1
 78
     2
176
     1
 67
     7
176
     1
 79
     5
176
     1
170
     0
176
     1
171
     0
176
     1
290
     0
176
     1
 93
       13
176
     1
 44
0.0
176
     1
173
     0
176
     1
  0
VISUALSTYLE
  5
2D
102
{ACAD_REACTORS
330
2A
102
}
330
2A
100
AcDbVisualStyle
  2
Gouraud
 70
     2
177
     2
291
     1
 71
     2
176
     1
 72
     2
176
     1
 73
     1
176
     1
 90
        2
176
     1
 40
-0.6
176
     1
 41
30.0
176
     1
 62
     5
 63
     7
421
 16777215
176
     1
 74
     0
176
     1
 91
        4
176
     1
 64
     7
176
     1
 65
   257
176
     1
 75
     1
176
     1
175
     1
176
     1
 42
1.0
176
     1
 92
        0
176
     1
 66
     7
176
     1
 43
1.0
176
     1
 76
     1
176
     1
 77
     6
176
     1
 78
     2
176
     1
 67
     7
176
     1
 79
     5
176
     1
170
     0
176
     1
171
     0
176
     1
290
     0
176
     1
 93
       13
176
     1
 44
0.0
176
     1
173
     0
176
     1
  0
VISUALSTYLE
  5
2E
102
{ACAD_REACTORS
330
2A
102
}
330
2A
100
AcDbVisualStyle
  2
GouraudWithEdges
 70
     3
177
     2
291
     1
 71
     2
176
     1
 72
     2
176
     1
 73
     1
176
     1
 90
        2
176
     1
 40
-0.6
176
     1
 41
30.0
176
     1
 62
     5
 63
     7
421
 16777215
176
     1
 74
     1
176
     1
 91
        4
176
     1
 64
     7
176
     1
 65
   257
176
     1
 75
     1
176
     1
175
     1
176
     1
 42
1.0
176
     1
 92
        0
176
     1
 66
   257
176
     1
 43
1.0
176
     1
 76
     1
176
     1
 77
     6
176
     1
 78
     2
176
     1
 67
     7
176
     1
 79
     5
176
     1
170
     0
176
     1
171
     0
176
     1
290
     0
176
     1
 93
       13
176
     1
 44
0.0
176
     1
173
     0
176
     1
  0
VISUALSTYLE
  5
38
102
{ACAD_REACTORS
330
2A
102
}
330
2A
100
AcDbVisualStyle
  2
Linepattern
 70
    14
177
     2
291
     1
 71
     2
176
     1
 72
     2
176
     1
 73
     0
176
     1
 90
        0
176
     1
 40
-0.6
176
     1
 41
-30.0
176
     1
 62
     5
 63
     7
421
 16777215
176
     1
 74
     1
176
     1
 91
        4
176
     1
 64
     7
176
     1
 65
   257
176
     1
 75
     7
176
     1
175
     7
176
     1
 42
1.0
176
     1
 92
        8
176
     1
 66
     7
176
     1
 43
1.0
176
     1
 76
     1
176
     1
 77
     6
176
     1
 78
     2
176
     1
 67
     7
176
     1
 79
     5
176
     1
170
     0
176
     1
171
     0
176
     1
290
     0
176
     1
 93
        1
176
     1
 44
0.0
176
     1
173
     0
176
     1
  0
VISUALSTYLE
  5
33
102
{ACAD_REACTORS
330
2A
102
}
330
2A
100
AcDbVisualStyle
  2
Realistic
 70
     8
177
     2
291
     0
 71
     2
176
     1
 72
     2
176
     1
 73
     0
176
     1
 90
        0
176
     1
 40
-0.6
176
     1
 41
-30.0
176
     1
 62
     5
 63
     7
421
 16777215
176
     1
 74
     1
176
     1
 91
        0
176
     1
 64
     7
176
     1
 65
   257
176
     1
 75
     1
176
     1
175
     1
176
     1
 42
1.0
176
     1
 92
        8
176
     1
 66
     8
424
  7895160
176
     1
 43
1.0
176
     1
 76
     1
176
     1
 77
     6
176
     1
 78
     2
176
     1
 67
     7
176
     1
 79
     5
176
     1
170
     0
176
     1
171
     0
176
     1
290
     0
176
     1
 93
       13
176
     1
 44
0.0
176
     1
173
     0
176
     1
  0
VISUALSTYLE
  5
37
102
{ACAD_REACTORS
330
2A
102
}
330
2A
100
AcDbVisualStyle
  2
Thicken
 70
    13
177
     2
291
     1
 71
     2
176
     1
 72
     2
176
     1
 73
     0
176
     1
 90
        0
176
     1
 40
-0.6
176
     1
 41
-30.0
176
     1
 62
     5
 63
     7
421
 16777215
176
     1
 74
     1
176
     1
 91
        4
176
     1
 64
     7
176
     1
 65
   257
176
     1
 75
     1
176
     1
175
     1
176
     1
 42
1.0
176
     1
 92
       12
176
     1
 66
     7
176
     1
 43
1.0
176
     1
 76
     1
176
     1
 77
     6
176
     1
 78
     2
176
     1
 67
     7
176
     1
 79
     5
176
     1
170
     0
176
     1
171
     0
176
     1
290
     0
176
     1
 93
        1
176
     1
 44
0.0
176
     1
173
     0
176
     1
  0
ENDSEC
  0
EOF
