  0
SECTION
  2
HEADER
  9
$ACADVER
  1
AC1024
  9
$ACADMAINTVER
 70
     6
  9
$DWGCODEPAGE
  3
ANSI_1251
  9
$INSBASE
 10
0.0
 20
0.0
 30
0.0
  9
$EXTMIN
 10
1.000000000000000E+20
 20
1.000000000000000E+20
 30
1.000000000000000E+20
  9
$EXTMAX
 10
-1.000000000000000E+20
 20
-1.000000000000000E+20
 30
-1.000000000000000E+20
  9
$LIMMIN
 10
0.0
 20
0.0
  9
$LIMMAX
 10
12.0
 20
9.0
  9
$ORTHOMODE
 70
     0
  9
$REGENMODE
 70
     1
  9
$FILLMODE
 70
     1
  9
$QTEXTMODE
 70
     0
  9
$MIRRTEXT
 70
     1
  9
$LTSCALE
 40
1.0
  9
$ATTMODE
 70
     1
  9
$TEXTSIZE
 40
0.2
  9
$TRACEWID
 40
0.05
  9
$TEXTSTYLE
  7
Standard
  9
$CLAYER
  8
0
  9
$CELTYPE
  6
ByLayer
  9
$CECOLOR
 62
   256
  9
$CELTSCALE
 40
1.0
  9
$DISPSILH
 70
     0
  9
$DIMSCALE
 40
1.0
  9
$DIMASZ
 40
0.18
  9
$DIMEXO
 40
0.0625
  9
$DIMDLI
 40
0.38
  9
$DIMRND
 40
0.0
  9
$DIMDLE
 40
0.0
  9
$DIMEXE
 40
0.18
  9
$DIMTP
 40
0.0
  9
$DIMTM
 40
0.0
  9
$DIMTXT
 40
0.18
  9
$DIMCEN
 40
0.09
  9
$DIMTSZ
 40
0.0
  9
$DIMTOL
 70
     0
  9
$DIMLIM
 70
     0
  9
$DIMTIH
 70
     1
  9
$DIMTOH
 70
     1
  9
$DIMSE1
 70
     0
  9
$DIMSE2
 70
     0
  9
$DIMTAD
 70
     0
  9
$DIMZIN
 70
     0
  9
$DIMBLK
  1

  9
$DIMASO
 70
     1
  9
$DIMSHO
 70
     1
  9
$DIMPOST
  1

  9
$DIMAPOST
  1

  9
$DIMALT
 70
     0
  9
$DIMALTD
 70
     2
  9
$DIMALTF
 40
25.4
  9
$DIMLFAC
 40
1.0
  9
$DIMTOFL
 70
     0
  9
$DIMTVP
 40
0.0
  9
$DIMTIX
 70
     0
  9
$DIMSOXD
 70
     0
  9
$DIMSAH
 70
     0
  9
$DIMBLK1
  1

  9
$DIMBLK2
  1

  9
$DIMSTYLE
  2
Standard
  9
$DIMCLRD
 70
     0
  9
$DIMCLRE
 70
     0
  9
$DIMCLRT
 70
     0
  9
$DIMTFAC
 40
1.0
  9
$DIMGAP
 40
0.09
  9
$DIMJUST
 70
     0
  9
$DIMSD1
 70
     0
  9
$DIMSD2
 70
     0
  9
$DIMTOLJ
 70
     1
  9
$DIMTZIN
 70
     0
  9
$DIMALTZ
 70
     0
  9
$DIMALTTZ
 70
     0
  9
$DIMUPT
 70
     0
  9
$DIMDEC
 70
     4
  9
$DIMTDEC
 70
     4
  9
$DIMALTU
 70
     2
  9
$DIMALTTD
 70
     2
  9
$DIMTXSTY
  7
Standard
  9
$DIMAUNIT
 70
     0
  9
$DIMADEC
 70
     0
  9
$DIMALTRND
 40
0.0
  9
$DIMAZIN
 70
     0
  9
$DIMDSEP
 70
    46
  9
$DIMATFIT
 70
     3
  9
$DIMFRAC
 70
     0
  9
$DIMLDRBLK
  1

  9
$DIMLUNIT
 70
     2
  9
$DIMLWD
 70
    -2
  9
$DIMLWE
 70
    -2
  9
$DIMTMOVE
 70
     0
  9
$DIMFXL
 40
1.0
  9
$DIMFXLON
 70
     0
  9
$DIMJOGANG
 40
0.7853981633974483
  9
$DIMTFILL
 70
     0
  9
$DIMTFILLCLR
 70
     0
  9
$DIMARCSYM
 70
     0
  9
$DIMLTYPE
  6

  9
$DIMLTEX1
  6

  9
$DIMLTEX2
  6

  9
$DIMTXTDIRECTION
 70
     0
  9
$LUNITS
 70
     2
  9
$LUPREC
 70
     4
  9
$SKETCHINC
 40
0.1
  9
$FILLETRAD
 40
0.5
  9
$AUNITS
 70
     0
  9
$AUPREC
 70
     0
  9
$MENU
  1
.
  9
$ELEVATION
 40
0.0
  9
$PELEVATION
 40
0.0
  9
$THICKNESS
 40
0.0
  9
$LIMCHECK
 70
     0
  9
$CHAMFERA
 40
0.5
  9
$CHAMFERB
 40
0.5
  9
$CHAMFERC
 40
1.0
  9
$CHAMFERD
 40
0.0
  9
$SKPOLY
 70
     0
  9
$TDCREATE
 40
2459337.676819271
  9
$TDUCREATE
 40
2459337.551819271
  9
$TDUPDATE
 40
2459337.676819271
  9
$TDUUPDATE
 40
2459337.551819271
  9
$TDINDWG
 40
0.0000000116
  9
$TDUSRTIMER
 40
0.0000000116
  9
$USRTIMER
 70
     1
  9
$ANGBASE
 50
0.0
  9
$ANGDIR
 70
     0
  9
$PDMODE
 70
     0
  9
$PDSIZE
 40
0.0
  9
$PLINEWID
 40
0.0
  9
$SPLFRAME
 70
     0
  9
$SPLINETYPE
 70
     6
  9
$SPLINESEGS
 70
     8
  9
$HANDSEED
  5
46
  9
$SURFTAB1
 70
     6
  9
$SURFTAB2
 70
     6
  9
$SURFTYPE
 70
     6
  9
$SURFU
 70
     6
  9
$SURFV
 70
     6
  9
$UCSBASE
  2

  9
$UCSNAME
  2

  9
$UCSORG
 10
0.0
 20
0.0
 30
0.0
  9
$UCSXDIR
 10
1.0
 20
0.0
 30
0.0
  9
$UCSYDIR
 10
0.0
 20
1.0
 30
0.0
  9
$UCSORTHOREF
  2

  9
$UCSORTHOVIEW
 70
     0
  9
$UCSORGTOP
 10
0.0
 20
0.0
 30
0.0
  9
$UCSORGBOTTOM
 10
0.0
 20
0.0
 30
0.0
  9
$UCSORGLEFT
 10
0.0
 20
0.0
 30
0.0
  9
$UCSORGRIGHT
 10
0.0
 20
0.0
 30
0.0
  9
$UCSORGFRONT
 10
0.0
 20
0.0
 30
0.0
  9
$UCSORGBACK
 10
0.0
 20
0.0
 30
0.0
  9
$PUCSBASE
  2

  9
$PUCSNAME
  2

  9
$PUCSORG
 10
0.0
 20
0.0
 30
0.0
  9
$PUCSXDIR
 10
1.0
 20
0.0
 30
0.0
  9
$PUCSYDIR
 10
0.0
 20
1.0
 30
0.0
  9
$PUCSORTHOREF
  2

  9
$PUCSORTHOVIEW
 70
     0
  9
$PUCSORGTOP
 10
0.0
 20
0.0
 30
0.0
  9
$PUCSORGBOTTOM
 10
0.0
 20
0.0
 30
0.0
  9
$PUCSORGLEFT
 10
0.0
 20
0.0
 30
0.0
  9
$PUCSORGRIGHT
 10
0.0
 20
0.0
 30
0.0
  9
$PUCSORGFRONT
 10
0.0
 20
0.0
 30
0.0
  9
$PUCSORGBACK
 10
0.0
 20
0.0
 30
0.0
  9
$USERI1
 70
     0
  9
$USERI2
 70
     0
  9
$USERI3
 70
     0
  9
$USERI4
 70
     0
  9
$USERI5
 70
     0
  9
$USERR1
 40
0.0
  9
$USERR2
 40
0.0
  9
$USERR3
 40
0.0
  9
$USERR4
 40
0.0
  9
$USERR5
 40
0.0
  9
$WORLDVIEW
 70
     1
  9
$SHADEDGE
 70
     3
  9
$SHADEDIF
 70
    70
  9
$TILEMODE
 70
     1
  9
$MAXACTVP
 70
    64
  9
$PINSBASE
 10
0.0
 20
0.0
 30
0.0
  9
$PLIMCHECK
 70
     0
  9
$PEXTMIN
 10
1.000000000000000E+20
 20
1.000000000000000E+20
 30
1.000000000000000E+20
  9
$PEXTMAX
 10
-1.000000000000000E+20
 20
-1.000000000000000E+20
 30
-1.000000000000000E+20
  9
$PLIMMIN
 10
0.0
 20
0.0
  9
$PLIMMAX
 10
12.0
 20
9.0
  9
$UNITMODE
 70
     0
  9
$VISRETAIN
 70
     1
  9
$PLINEGEN
 70
     0
  9
$PSLTSCALE
 70
     1
  9
$TREEDEPTH
 70
  3020
  9
$CMLSTYLE
  2
Standard
  9
$CMLJUST
 70
     0
  9
$CMLSCALE
 40
1.0
  9
$PROXYGRAPHICS
 70
     1
  9
$MEASUREMENT
 70
     0
  9
$CELWEIGHT
370
    -1
  9
$ENDCAPS
280
     0
  9
$JOINSTYLE
280
     0
  9
$LWDISPLAY
290
     1
  9
$INSUNITS
 70
     1
  9
$HYPERLINKBASE
  1

  9
$STYLESHEET
  1

  9
$XEDIT
290
     1
  9
$CEPSNTYPE
380
     0
  9
$PSTYLEMODE
290
     1
  9
$FINGERPRINTGUID
  2
{125D1424-8695-421D-A006-4584F50BF68F}
  9
$VERSIONGUID
  2
{FAEB1C32-E019-11D5-929B-00C0DF256EC4}
  9
$EXTNAMES
290
     1
  9
$PSVPSCALE
 40
0.0
  9
$OLESTARTUP
290
     0
  9
$SORTENTS
280
   127
  9
$INDEXCTL
280
     0
  9
$HIDETEXT
280
     1
  9
$XCLIPFRAME
280
     2
  9
$HALOGAP
280
     0
  9
$OBSCOLOR
 70
   257
  9
$OBSLTYPE
280
     0
  9
$INTERSECTIONDISPLAY
280
     0
  9
$INTERSECTIONCOLOR
 70
   257
  9
$DIMASSOC
280
     2
  9
$PROJECTNAME
  1

  9
$CAMERADISPLAY
290
     0
  9
$LENSLENGTH
 40
50.0
  9
$CAMERAHEIGHT
 40
0.0
  9
$STEPSPERSEC
 40
2.0
  9
$STEPSIZE
 40
6.0
  9
$3DDWFPREC
 40
2.0
  9
$PSOLWIDTH
 40
0.25
  9
$PSOLHEIGHT
 40
4.0
  9
$LOFTANG1
 40
1.570796326794897
  9
$LOFTANG2
 40
1.570796326794897
  9
$LOFTMAG1
 40
0.0
  9
$LOFTMAG2
 40
0.0
  9
$LOFTPARAM
 70
     7
  9
$LOFTNORMALS
280
     1
  9
$LATITUDE
 40
37.795
  9
$LONGITUDE
 40
-122.394
  9
$NORTHDIRECTION
 40
0.0
  9
$TIMEZONE
 70
 -8000
  9
$LIGHTGLYPHDISPLAY
280
     1
  9
$TILEMODELIGHTSYNCH
280
     1
  9
$CMATERIAL
347
3C
  9
$SOLIDHIST
280
     1
  9
$SHOWHIST
280
     1
  9
$DWFFRAME
280
     2
  9
$DGNFRAME
280
     2
  9
$REALWORLDSCALE
290
     1
  9
$INTERFERECOLOR
 62
   256
  9
$CSHADOW
280
     0
  9
$SHADOWPLANELOCATION
 40
0.0
  0
ENDSEC
  0
SECTION
  2
CLASSES
  0
CLASS
  1
ACDBDICTIONARYWDFLT
  2
AcDbDictionaryWithDefault
  3
ObjectDBX Classes
 90
        0
 91
        4
280
     0
281
     0
  0
CLASS
  1
VISUALSTYLE
  2
AcDbVisualStyle
  3
ObjectDBX Classes
 90
     4095
 91
        4
280
     0
281
     0
  0
CLASS
  1
MATERIAL
  2
AcDbMaterial
  3
ObjectDBX Classes
 90
     1153
 91
        4
280
     0
281
     0
  0
CLASS
  1
SUN
  2
AcDbSun
  3
SCENEOE
 90
     1024
 91
        4
280
     0
281
     0
  0
ENDSEC
  0
SECTION
  2
TABLES
  0
TABLE
  2
VPORT
  5
8
330
0
100
AcDbSymbolTable
 70
     1
  0
VPORT
  5
29
330
8
100
AcDbSymbolTableRecord
100
AcDbViewportTableRecord
  2
*Active
 70
     0
 10
0.0
 20
0.0
 11
1.0
 21
1.0
 12
0.0
 22
0.0
 13
0.0
 23
0.0
 14
0.5
 24
0.5
 15
0.5
 25
0.5
 16
0.0
 26
0.0
 36
1.0
 17
5.853415129732639
 27
-18.28399366302718
 37
0.0
 40
6.885628992721044
 41
1.74276017669344
 42
50.0
 43
0.0
 44
0.0
 50
0.0
 51
0.0
 71
     0
 72
   100
 73
     1
 74
     3
 75
     0
 76
     0
 77
     0
 78
     0
281
     0
 65
     1
110
0.0
120
0.0
130
0.0
111
1.0
121
0.0
131
0.0
112
0.0
122
1.0
132
0.0
 79
     0
146
0.0
 60
     3
 61
     5
292
     1
282
     1
141
0.0
142
0.0
 63
   250
361
3F
  0
ENDTAB
  0
TABLE
  2
LTYPE
  5
5
330
0
100
AcDbSymbolTable
 70
     1
  0
LTYPE
  5
14
330
5
100
AcDbSymbolTableRecord
100
AcDbLinetypeTableRecord
  2
ByBlock
 70
     0
  3

 72
    65
 73
     0
 40
0.0
  0
LTYPE
  5
15
330
5
100
AcDbSymbolTableRecord
100
AcDbLinetypeTableRecord
  2
ByLayer
 70
     0
  3

 72
    65
 73
     0
 40
0.0
  0
LTYPE
  5
16
330
5
100
AcDbSymbolTableRecord
100
AcDbLinetypeTableRecord
  2
Continuous
 70
     0
  3
Solid line
 72
    65
 73
     0
 40
0.0
  0
ENDTAB
  0
TABLE
  2
LAYER
  5
2
330
0
100
AcDbSymbolTable
 70
     2
  0
LAYER
  5
10
330
2
100
AcDbSymbolTableRecord
100
AcDbLayerTableRecord
  2
0
 70
     0
 62
     7
  6
Continuous
370
    -3
390
F
347
3E
  0
LAYER
  5
40
330
2
100
AcDbSymbolTableRecord
100
AcDbLayerTableRecord
  2
Layer 1
 70
     0
 62
     7
  6
Continuous
370
    -3
390
F
347
3E
  0
ENDTAB
  0
TABLE
  2
STYLE
  5
3
330
0
100
AcDbSymbolTable
 70
     1
  0
STYLE
  5
11
330
3
100
AcDbSymbolTableRecord
100
AcDbTextStyleTableRecord
  2
Standard
 70
     0
 40
0.0
 41
1.0
 50
0.0
 71
     0
 42
0.2
  3
txt
  4

  0
ENDTAB
  0
TABLE
  2
VIEW
  5
6
330
0
100
AcDbSymbolTable
 70
     0
  0
ENDTAB
  0
TABLE
  2
UCS
  5
7
330
0
100
AcDbSymbolTable
 70
     0
  0
ENDTAB
  0
TABLE
  2
APPID
  5
9
330
0
100
AcDbSymbolTable
 70
     1
  0
APPID
  5
12
330
9
100
AcDbSymbolTableRecord
100
AcDbRegAppTableRecord
  2
ACAD
 70
     0
  0
ENDTAB
  0
TABLE
  2
DIMSTYLE
  5
A
330
0
100
AcDbSymbolTable
 70
     1
100
AcDbDimStyleTable
  0
DIMSTYLE
105
27
330
A
100
AcDbSymbolTableRecord
100
AcDbDimStyleTableRecord
  2
Standard
 70
     0
178
     0
340
11
  0
ENDTAB
  0
TABLE
  2
BLOCK_RECORD
  5
1
330
0
100
AcDbSymbolTable
 70
     1
  0
BLOCK_RECORD
  5
1F
330
1
100
AcDbSymbolTableRecord
100
AcDbBlockTableRecord
  2
*Model_Space
340
22
 70
     0
280
     1
281
     0
  0
BLOCK_RECORD
  5
1B
330
1
100
AcDbSymbolTableRecord
100
AcDbBlockTableRecord
  2
*Paper_Space
340
1E
 70
     0
280
     1
281
     0
  0
BLOCK_RECORD
  5
23
330
1
100
AcDbSymbolTableRecord
100
AcDbBlockTableRecord
  2
*Paper_Space0
340
26
 70
     0
280
     1
281
     0
  0
ENDTAB
  0
ENDSEC
  0
SECTION
  2
BLOCKS
  0
BLOCK
  5
20
330
1F
100
AcDbEntity
  8
0
100
AcDbBlockBegin
  2
*Model_Space
 70
     0
 10
0.0
 20
0.0
 30
0.0
  3
*Model_Space
  1

  0
ENDBLK
  5
21
330
1F
100
AcDbEntity
  8
0
100
AcDbBlockEnd
  0
BLOCK
  5
1C
330
1B
100
AcDbEntity
 67
     1
  8
0
100
AcDbBlockBegin
  2
*Paper_Space
 70
     0
 10
0.0
 20
0.0
 30
0.0
  3
*Paper_Space
  1

  0
ENDBLK
  5
1D
330
1B
100
AcDbEntity
 67
     1
  8
0
100
AcDbBlockEnd
  0
BLOCK
  5
24
330
23
100
AcDbEntity
  8
0
100
AcDbBlockBegin
  2
*Paper_Space0
 70
     0
 10
0.0
 20
0.0
 30
0.0
  3
*Paper_Space0
  1

  0
ENDBLK
  5
25
330
23
100
AcDbEntity
  8
0
100
AcDbBlockEnd
  0
ENDSEC
  0
SECTION
  2
ENTITIES
  0
SPLINE
  5
41
330
1F
100
AcDbEntity
  8
Layer 1
370
     0
100
AcDbSpline
210
0.0
220
0.0
230
1.0
 70
    11
 71
     3
 72
   458
 73
   454
 74
     0
 42
0.0000000001
 43
0.0000000001
 12
1.0
 22
0.0
 32
0.0
 13
1.0
 23
0.0
 33
0.0
 40
0.0
 40
0.0
 40
0.0
 40
0.0
 40
1.0
 40
1.0
 40
1.0
 40
2.0
 40
2.0
 40
2.0
 40
3.0
 40
3.0
 40
3.0
 40
4.0
 40
4.0
 40
4.0
 40
5.0
 40
5.0
 40
5.0
 40
6.0
 40
6.0
 40
6.0
 40
7.0
 40
7.0
 40
7.0
 40
8.0
 40
8.0
 40
8.0
 40
9.0
 40
9.0
 40
9.0
 40
10.0
 40
10.0
 40
10.0
 40
11.0
 40
11.0
 40
11.0
 40
12.0
 40
12.0
 40
12.0
 40
13.0
 40
13.0
 40
13.0
 40
14.0
 40
14.0
 40
14.0
 40
15.0
 40
15.0
 40
15.0
 40
16.0
 40
16.0
 40
16.0
 40
17.0
 40
17.0
 40
17.0
 40
18.0
 40
18.0
 40
18.0
 40
19.0
 40
19.0
 40
19.0
 40
20.0
 40
20.0
 40
20.0
 40
21.0
 40
21.0
 40
21.0
 40
22.0
 40
22.0
 40
22.0
 40
23.0
 40
23.0
 40
23.0
 40
24.0
 40
24.0
 40
24.0
 40
25.0
 40
25.0
 40
25.0
 40
26.0
 40
26.0
 40
26.0
 40
27.0
 40
27.0
 40
27.0
 40
28.0
 40
28.0
 40
28.0
 40
29.0
 40
29.0
 40
29.0
 40
30.0
 40
30.0
 40
30.0
 40
31.0
 40
31.0
 40
31.0
 40
32.0
 40
32.0
 40
32.0
 40
33.0
 40
33.0
 40
33.0
 40
34.0
 40
34.0
 40
34.0
 40
35.0
 40
35.0
 40
35.0
 40
36.0
 40
36.0
 40
36.0
 40
37.0
 40
37.0
 40
37.0
 40
38.0
 40
38.0
 40
38.0
 40
39.0
 40
39.0
 40
39.0
 40
40.0
 40
40.0
 40
40.0
 40
41.0
 40
41.0
 40
41.0
 40
42.0
 40
42.0
 40
42.0
 40
43.0
 40
43.0
 40
43.0
 40
44.0
 40
44.0
 40
44.0
 40
45.0
 40
45.0
 40
45.0
 40
46.0
 40
46.0
 40
46.0
 40
47.0
 40
47.0
 40
47.0
 40
48.0
 40
48.0
 40
48.0
 40
49.0
 40
49.0
 40
49.0
 40
50.0
 40
50.0
 40
50.0
 40
51.0
 40
51.0
 40
51.0
 40
52.0
 40
52.0
 40
52.0
 40
53.0
 40
53.0
 40
53.0
 40
54.0
 40
54.0
 40
54.0
 40
55.0
 40
55.0
 40
55.0
 40
56.0
 40
56.0
 40
56.0
 40
57.0
 40
57.0
 40
57.0
 40
58.0
 40
58.0
 40
58.0
 40
59.0
 40
59.0
 40
59.0
 40
60.0
 40
60.0
 40
60.0
 40
61.0
 40
61.0
 40
61.0
 40
62.0
 40
62.0
 40
62.0
 40
63.0
 40
63.0
 40
63.0
 40
64.0
 40
64.0
 40
64.0
 40
65.0
 40
65.0
 40
65.0
 40
66.0
 40
66.0
 40
66.0
 40
67.0
 40
67.0
 40
67.0
 40
68.0
 40
68.0
 40
68.0
 40
69.0
 40
69.0
 40
69.0
 40
70.0
 40
70.0
 40
70.0
 40
71.0
 40
71.0
 40
71.0
 40
72.0
 40
72.0
 40
72.0
 40
73.0
 40
73.0
 40
73.0
 40
74.0
 40
74.0
 40
74.0
 40
75.0
 40
75.0
 40
75.0
 40
76.0
 40
76.0
 40
76.0
 40
77.0
 40
77.0
 40
77.0
 40
78.0
 40
78.0
 40
78.0
 40
79.0
 40
79.0
 40
79.0
 40
80.0
 40
80.0
 40
80.0
 40
81.0
 40
81.0
 40
81.0
 40
82.0
 40
82.0
 40
82.0
 40
83.0
 40
83.0
 40
83.0
 40
84.0
 40
84.0
 40
84.0
 40
85.0
 40
85.0
 40
85.0
 40
86.0
 40
86.0
 40
86.0
 40
87.0
 40
87.0
 40
87.0
 40
88.0
 40
88.0
 40
88.0
 40
89.0
 40
89.0
 40
89.0
 40
90.0
 40
90.0
 40
90.0
 40
91.0
 40
91.0
 40
91.0
 40
92.0
 40
92.0
 40
92.0
 40
93.0
 40
93.0
 40
93.0
 40
94.0
 40
94.0
 40
94.0
 40
95.0
 40
95.0
 40
95.0
 40
96.0
 40
96.0
 40
96.0
 40
97.0
 40
97.0
 40
97.0
 40
98.0
 40
98.0
 40
98.0
 40
99.0
 40
99.0
 40
99.0
 40
100.0
 40
100.0
 40
100.0
 40
101.0
 40
101.0
 40
101.0
 40
102.0
 40
102.0
 40
102.0
 40
103.0
 40
103.0
 40
103.0
 40
104.0
 40
104.0
 40
104.0
 40
105.0
 40
105.0
 40
105.0
 40
106.0
 40
106.0
 40
106.0
 40
107.0
 40
107.0
 40
107.0
 40
108.0
 40
108.0
 40
108.0
 40
109.0
 40
109.0
 40
109.0
 40
110.0
 40
110.0
 40
110.0
 40
111.0
 40
111.0
 40
111.0
 40
112.0
 40
112.0
 40
112.0
 40
113.0
 40
113.0
 40
113.0
 40
114.0
 40
114.0
 40
114.0
 40
115.0
 40
115.0
 40
115.0
 40
116.0
 40
116.0
 40
116.0
 40
117.0
 40
117.0
 40
117.0
 40
118.0
 40
118.0
 40
118.0
 40
119.0
 40
119.0
 40
119.0
 40
120.0
 40
120.0
 40
120.0
 40
121.0
 40
121.0
 40
121.0
 40
122.0
 40
122.0
 40
122.0
 40
123.0
 40
123.0
 40
123.0
 40
124.0
 40
124.0
 40
124.0
 40
125.0
 40
125.0
 40
125.0
 40
126.0
 40
126.0
 40
126.0
 40
127.0
 40
127.0
 40
127.0
 40
128.0
 40
128.0
 40
128.0
 40
129.0
 40
129.0
 40
129.0
 40
130.0
 40
130.0
 40
130.0
 40
131.0
 40
131.0
 40
131.0
 40
132.0
 40
132.0
 40
132.0
 40
133.0
 40
133.0
 40
133.0
 40
134.0
 40
134.0
 40
134.0
 40
135.0
 40
135.0
 40
135.0
 40
136.0
 40
136.0
 40
136.0
 40
137.0
 40
137.0
 40
137.0
 40
138.0
 40
138.0
 40
138.0
 40
139.0
 40
139.0
 40
139.0
 40
140.0
 40
140.0
 40
140.0
 40
141.0
 40
141.0
 40
141.0
 40
142.0
 40
142.0
 40
142.0
 40
143.0
 40
143.0
 40
143.0
 40
144.0
 40
144.0
 40
144.0
 40
145.0
 40
145.0
 40
145.0
 40
146.0
 40
146.0
 40
146.0
 40
147.0
 40
147.0
 40
147.0
 40
148.0
 40
148.0
 40
148.0
 40
149.0
 40
149.0
 40
149.0
 40
150.0
 40
150.0
 40
150.0
 40
151.0
 40
151.0
 40
151.0
 40
151.0
 10
11.66310803869843
 20
-16.96544583333333
 30
0.0
 10
11.43132748899815
 20
-16.87091111111111
 30
0.0
 10
11.15305388491682
 20
-16.98236388888889
 30
0.0
 10
10.94983861227269
 20
-17.06370555555555
 30
0.0
 10
10.94983861227269
 20
-17.06370555555555
 30
0.0
 10
10.94079972361214
 20
-17.06731249999999
 30
0.0
 10
10.94079972361214
 20
-17.06731249999999
 30
0.0
 10
10.74791666666667
 20
-17.14440972222222
 30
0.0
 10
10.571921955153
 20
-17.24980694444444
 30
0.0
 10
10.40169973723096
 20
-17.35179166666666
 30
0.0
 10
10.28325668466752
 20
-17.42271527777777
 30
0.0
 10
10.16074696554016
 20
-17.49608750000001
 30
0.0
 10
10.03498724649489
 20
-17.55822499999999
 30
0.0
 10
9.688994199679856
 20
-17.72924861111111
 30
0.0
 10
9.354099763695558
 20
-17.80394166666666
 30
0.0
 10
9.012053939003028
 20
-17.78797222222223
 30
0.0
 10
8.798006722188095
 20
-17.77780694444444
 30
0.0
 10
8.577385894428112
 20
-17.78215555555555
 30
0.0
 10
8.364067844261424
 20
-17.78620694444444
 30
0.0
 10
8.167176182568658
 20
-17.790125
 30
0.0
 10
7.963519243269022
 20
-17.7941611111111
 30
0.0
 10
7.765885914928326
 20
-17.78657777777778
 30
0.0
 10
7.338773425718095
 20
-17.77028333333333
 30
0.0
 10
6.965531768480306
 20
-17.67487222222222
 30
0.0
 10
6.624835943753673
 20
-17.49476666666667
 30
0.0
 10
6.549059556779057
 20
-17.45466666666666
 30
0.0
 10
6.478804002998307
 20
-17.40863194444445
 30
0.0
 10
6.414647060174603
 20
-17.36360555555555
 30
0.0
 10
6.647467887626387
 20
-17.21280972222222
 30
0.0
 10
6.853131771319769
 20
-17.1123388888889
 30
0.0
 10
7.058166666666668
 20
-17.048925
 30
0.0
 10
7.323933148315215
 20
-16.96684166666667
 30
0.0
 10
7.606365085624828
 20
-16.86831388888889
 30
0.0
 10
7.871165078935418
 20
-16.70500833333333
 30
0.0
 10
8.212455348091478
 20
-16.4945375
 30
0.0
 10
8.47492617479424
 20
-16.21908194444445
 30
0.0
 10
8.630219226426764
 20
-15.90837777777777
 30
0.0
 10
8.670006725421647
 20
-15.82874305555555
 30
0.0
 10
8.86292060943712
 20
-15.41638194444444
 30
0.0
 10
8.754627556617278
 20
-15.11516111111112
 30
0.0
 10
8.715537279827004
 20
-15.00640972222221
 30
0.0
 10
8.642284503899747
 20
-14.92754583333333
 30
0.0
 10
8.53691666666666
 20
-14.88081388888889
 30
0.0
 10
8.467224786099905
 20
-14.84987083333333
 30
0.0
 10
8.391477565791218
 20
-14.83741944444445
 30
0.0
 10
8.29848611111111
 20
-14.84215277777778
 30
0.0
 10
8.146592849755304
 20
-14.84961805555555
 30
0.0
 10
7.994298409158141
 20
-14.89425833333333
 30
0.0
 10
7.832951191011893
 20
-14.9786875
 30
0.0
 10
7.691565083472495
 20
-15.05269722222222
 30
0.0
 10
7.561383142316723
 20
-15.14433888888888
 30
0.0
 10
7.43545953438671
 20
-15.2329361111111
 30
0.0
 10
7.359862314074235
 20
-15.28616944444444
 30
0.0
 10
7.281728982714715
 20
-15.34116944444444
 30
0.0
 10
7.202966484704423
 20
-15.39093055555555
 30
0.0
 10
7.146365097245406
 20
-15.42674027777778
 30
0.0
 10
7.07815676563516
 20
-15.46645416666667
 30
0.0
 10
7.001401212018613
 20
-15.48982777777778
 30
0.0
 10
6.723317885710255
 20
-15.57444861111111
 30
0.0
 10
6.429917893122163
 20
-15.61132777777777
 30
0.0
 10
6.146166666666659
 20
-15.64694583333333
 30
0.0
 10
5.90031651761213
 20
-15.67775416666667
 30
0.0
 10
5.646144301810838
 20
-15.70964722222223
 30
0.0
 10
5.399579030261823
 20
-15.77248194444444
 30
0.0
 10
5.072387371860714
 20
-15.85570833333333
 30
0.0
 10
4.737731824759268
 20
-15.99338472222222
 30
0.0
 10
4.376422111664498
 20
-16.19331805555555
 30
0.0
 10
4.149552672951257
 20
-16.31879583333333
 30
0.0
 10
3.927017956350735
 20
-16.45828194444444
 30
0.0
 10
3.711798517343191
 20
-16.59318333333334
 30
0.0
 10
3.711798517343191
 20
-16.59318333333334
 30
0.0
 10
3.588147131577999
 20
-16.67053333333333
 30
0.0
 10
3.588147131577999
 20
-16.67053333333333
 30
0.0
 10
3.542781854946245
 20
-16.69889305555556
 30
0.0
 10
3.49724852276318
 20
-16.72692777777777
 30
0.0
 10
3.451687412803039
 20
-16.75503611111112
 30
0.0
 10
3.340234637840795
 20
-16.82367361111111
 30
0.0
 10
3.224981862974548
 20
-16.89471527777778
 30
0.0
 10
3.113544365789696
 20
-16.96872638888889
 30
0.0
 10
2.978004091435953
 20
-17.05883750000001
 30
0.0
 10
2.841692983768351
 20
-17.15792916666667
 30
0.0
 10
2.709863820431969
 20
-17.25378472222222
 30
0.0
 10
2.27672910915165
 20
-17.56871666666666
 30
0.0
 10
1.828865231576755
 20
-17.89438055555556
 30
0.0
 10
1.298434722222219
 20
-17.98751944444444
 30
0.0
 10
0.9589819444444426
 20
-18.04713472222223
 30
0.0
 10
0.6429805555555579
 20
-18.07359583333333
 30
0.0
 10
0.3329152777777785
 20
-18.06917222222222
 30
0.0
 10
0.3329152777777785
 20
-18.06917222222222
 30
0.0
 10
0.2323402777777801
 20
-18.06911388888889
 30
0.0
 10
0.2323402777777801
 20
-18.06911388888889
 30
0.0
 10
0.1507472222222203
 20
-18.06898055555555
 30
0.0
 10
0.0691088888888897
 20
-18.06892083333333
 30
0.0
 10
-0.0125860416666607
 20
-18.06936527777778
 30
0.0
 10
-0.1010834722222221
 20
-18.06987083333334
 30
0.0
 10
-0.1435875000000048
 20
-18.12645833333332
 30
0.0
 10
-0.146422222222226
 20
-18.18215416666667
 30
0.0
 10
-0.1493305555555556
 20
-18.23690138888888
 30
0.0
 10
-0.113490138888892
 20
-18.29740694444445
 30
0.0
 10
-0.026850694444445
 20
-18.30933888888888
 30
0.0
 10
-0.0123364999999972
 20
-18.31129722222221
 30
0.0
 10
0.0026673611111063
 20
-18.31186111111111
 30
0.0
 10
0.0170034722222252
 20
-18.31141666666667
 30
0.0
 10
0.089025000000005
 20
-18.31009583333333
 30
0.0
 10
0.161048611111116
 20
-18.31097083333333
 30
0.0
 10
0.2330388888888895
 20
-18.31192083333334
 30
0.0
 10
0.3492402777777796
 20
-18.313375
 30
0.0
 10
0.4693152777777717
 20
-18.31488888888889
 30
0.0
 10
0.5886638888888834
 20
-18.30668194444443
 30
0.0
 10
0.7603402777777748
 20
-18.29475
 30
0.0
 10
0.9370027777777825
 20
-18.27864861111112
 30
0.0
 10
1.113724999999994
 20
-18.25882083333332
 30
0.0
 10
1.560606905020197
 20
-18.20873472222222
 30
0.0
 10
1.938659673247558
 20
-18.07347638888888
 30
0.0
 10
2.269498553778754
 20
-17.84512361111111
 30
0.0
 10
2.269498553778754
 20
-17.84512361111111
 30
0.0
 10
2.525855491747077
 20
-17.66767499999999
 30
0.0
 10
2.525855491747077
 20
-17.66767499999999
 30
0.0
 10
3.20625269678102
 20
-17.19612916666666
 30
0.0
 10
3.909802679007852
 20
-16.70855416666667
 30
0.0
 10
4.646758215946344
 20
-16.32314444444445
 30
0.0
 10
4.95917070805414
 20
-16.15983749999999
 30
0.0
 10
5.300591532762458
 20
-16.03752083333334
 30
0.0
 10
5.661456801424012
 20
-15.95953333333333
 30
0.0
 10
5.837258185871784
 20
-15.9215125
 30
0.0
 10
6.01988734792485
 20
-15.90124027777777
 30
0.0
 10
6.196490121241267
 20
-15.88160555555555
 30
0.0
 10
6.384713727597449
 20
-15.86070972222222
 30
0.0
 10
6.579304000459463
 20
-15.83910138888888
 30
0.0
 10
6.770051217863005
 20
-15.79603472222223
 30
0.0
 10
7.025709544737865
 20
-15.73831944444444
 30
0.0
 10
7.248408150223137
 20
-15.64997361111111
 30
0.0
 10
7.43192759003149
 20
-15.53345972222222
 30
0.0
 10
7.502673421577633
 20
-15.48856666666667
 30
0.0
 10
7.570909530964955
 20
-15.44049722222222
 30
0.0
 10
7.636906751519947
 20
-15.39403194444445
 30
0.0
 10
7.774672025817481
 20
-15.29695972222223
 30
0.0
 10
7.904780355864002
 20
-15.20533333333333
 30
0.0
 10
8.056940074242346
 20
-15.13908472222223
 30
0.0
 10
8.159281738323646
 20
-15.09450277777778
 30
0.0
 10
8.268523402230635
 20
-15.07663472222223
 30
0.0
 10
8.381623399373488
 20
-15.08643055555555
 30
0.0
 10
8.448510897683768
 20
-15.09217361111112
 30
0.0
 10
8.488831729998513
 20
-15.12121666666667
 30
0.0
 10
8.512413673847226
 20
-15.18051944444445
 30
0.0
 10
8.548625000000003
 20
-15.27158194444444
 30
0.0
 10
8.555734506086184
 20
-15.36995972222222
 30
0.0
 10
8.533606728867401
 20
-15.47283611111111
 30
0.0
 10
8.390026176938994
 20
-16.13956527777778
 30
0.0
 10
7.780103970124704
 20
-16.55824861111111
 30
0.0
 10
7.25712065000304
 20
-16.72768472222222
 30
0.0
 10
6.958705379763867
 20
-16.82443055555556
 30
0.0
 10
6.571216500663771
 20
-16.96589166666667
 30
0.0
 10
6.220962342845269
 20
-17.20295555555555
 30
0.0
 10
6.120269289833433
 20
-17.2711486111111
 30
0.0
 10
6.006159570493865
 20
-17.35823333333333
 30
0.0
 10
5.92339290591806
 20
-17.48750972222222
 30
0.0
 10
5.893816517776334
 20
-17.5336638888889
 30
0.0
 10
5.894008184438158
 20
-17.57205694444445
 30
0.0
 10
5.899366517636129
 20
-17.59612777777777
 30
0.0
 10
5.905910961915247
 20
-17.62548333333332
 30
0.0
 10
5.924031794790809
 20
-17.65081527777777
 30
0.0
 10
5.950462349678673
 20
-17.66748194444444
 30
0.0
 10
6.008874999999989
 20
-17.70430138888889
 30
0.0
 10
6.080362346397123
 20
-17.68358333333333
 30
0.0
 10
6.124308178620291
 20
-17.61727638888889
 30
0.0
 10
6.150231789076517
 20
-17.57818611111111
 30
0.0
 10
6.178117899483166
 20
-17.55034444444444
 30
0.0
 10
6.21041095422293
 20
-17.518125
 30
0.0
 10
6.21041095422293
 20
-17.518125
 30
0.0
 10
6.21441789856615
 20
-17.51414861111112
 30
0.0
 10
6.21441789856615
 20
-17.51414861111112
 30
0.0
 10
6.404215115993692
 20
-17.666725
 30
0.0
 10
6.621111111111102
 20
-17.76680972222222
 30
0.0
 10
6.809259550205852
 20
-17.84487222222222
 30
0.0
 10
7.112185931442177
 20
-17.97046805555556
 30
0.0
 10
7.462899811471289
 20
-18.0399375
 30
0.0
 10
7.851620634984707
 20
-18.05143888888889
 30
0.0
 10
8.015267853072853
 20
-18.05617222222222
 30
0.0
 10
8.179108126711677
 20
-18.04606666666667
 30
0.0
 10
8.337517844932133
 20
-18.03615277777778
 30
0.0
 10
8.518038673705126
 20
-18.02484444444445
 30
0.0
 10
8.704703946767342
 20
-18.01316388888889
 30
0.0
 10
8.888001164359087
 20
-18.02453194444445
 30
0.0
 10
9.06809421536511
 20
-18.03557361111111
 30
0.0
 10
9.21669143383345
 20
-18.03337777777777
 30
0.0
 10
9.355658096989524
 20
-18.01714166666666
 30
0.0
 10
9.600231701922185
 20
-17.98866249999999
 30
0.0
 10
9.847491417898102
 20
-17.91401388888889
 30
0.0
 10
10.1114914112289
 20
-17.78898194444444
 30
0.0
 10
10.25471779649959
 20
-17.72115972222222
 30
0.0
 10
10.39067334862062
 20
-17.63886944444444
 30
0.0
 10
10.52214556752157
 20
-17.55936805555555
 30
0.0
 10
10.58334834375324
 20
-17.52229583333333
 30
0.0
 10
10.64453723109636
 20
-17.48529861111111
 30
0.0
 10
10.70652611841928
 20
-17.44968055555556
 30
0.0
 10
10.9123511132197
 20
-17.33134166666667
 30
0.0
 10
11.13865805194716
 20
-17.21684583333333
 30
0.0
 10
11.39845526760635
 20
-17.18072361111111
 30
0.0
 10
11.47138443243067
 20
-17.17061805555555
 30
0.0
 10
11.52687054214008
 20
-17.16885138888889
 30
0.0
 10
11.5781747075107
 20
-17.19127638888888
 30
0.0
 10
11.6087469289606
 20
-17.2046625
 30
0.0
 10
11.6136594288365
 20
-17.21665277777778
 30
0.0
 10
11.61315387329372
 20
-17.23849861111112
 30
0.0
 10
11.61202609554443
 20
-17.28503888888888
 30
0.0
 10
11.60744137343803
 20
-17.32003333333333
 30
0.0
 10
11.5983888888889
 20
-17.35198472222222
 30
0.0
 10
11.56112331905256
 20
-17.48333888888889
 30
0.0
 10
11.49711637622507
 20
-17.60710972222223
 30
0.0
 10
11.4081163784734
 20
-17.71989861111111
 30
0.0
 10
11.4081163784734
 20
-17.71989861111111
 30
0.0
 10
11.35993165746842
 20
-17.78139861111111
 30
0.0
 10
11.35993165746842
 20
-17.78139861111111
 30
0.0
 10
11.22602193862905
 20
-17.95279305555555
 30
0.0
 10
11.09953583071324
 20
-18.11470416666667
 30
0.0
 10
10.91954833526011
 20
-18.22370833333333
 30
0.0
 10
10.6809108412886
 20
-18.36825555555555
 30
0.0
 10
10.43595529192114
 20
-18.5408375
 30
0.0
 10
10.17072057639931
 20
-18.75126249999999
 30
0.0
 10
10.03227196878571
 20
-18.86106805555556
 30
0.0
 10
9.894002527834244
 20
-18.9271236111111
 30
0.0
 10
9.74805947596552
 20
-18.95314027777777
 30
0.0
 10
9.528803925948825
 20
-18.99223055555555
 30
0.0
 10
9.297334487351792
 20
-19.00941527777778
 30
0.0
 10
9.07346365967391
 20
-19.02602222222223
 30
0.0
 10
8.665272003319034
 20
-19.05626666666666
 30
0.0
 10
8.243176180648737
 20
-19.08759583333333
 30
0.0
 10
7.856073412649998
 20
-19.25070972222223
 30
0.0
 10
7.744798415461041
 20
-19.29763472222223
 30
0.0
 10
7.663203973077846
 20
-19.34183055555556
 30
0.0
 10
7.591601197108907
 20
-19.3941138888889
 30
0.0
 10
7.559990086796359
 20
-19.4172361111111
 30
0.0
 10
7.540383142847228
 20
-19.44932083333333
 30
0.0
 10
7.536331754060686
 20
-19.48455277777778
 30
0.0
 10
7.532651198598109
 20
-19.51675694444445
 30
0.0
 10
7.542430555555559
 20
-19.54826388888889
 30
0.0
 10
7.563965086695942
 20
-19.5732111111111
 30
0.0
 10
7.60829425224276
 20
-19.62461805555555
 30
0.0
 10
7.672523417286861
 20
-19.63092638888889
 30
0.0
 10
7.731723415791343
 20
-19.58963888888889
 30
0.0
 10
7.805481747261385
 20
-19.53823194444443
 30
0.0
 10
7.889627578469016
 20
-19.49528194444444
 30
0.0
 10
7.988970631514954
 20
-19.45840416666667
 30
0.0
 10
8.3397886782081
 20
-19.32825138888888
 30
0.0
 10
8.715760890932465
 20
-19.28229027777777
 30
0.0
 10
9.069738659768012
 20
-19.25191111111111
 30
0.0
 10
9.14489143564727
 20
-19.24547083333333
 30
0.0
 10
9.221899767035211
 20
-19.24180416666667
 30
0.0
 10
9.299608098405466
 20
-19.23802083333334
 30
0.0
 10
9.541626147847131
 20
-19.22626666666666
 30
0.0
 10
9.790535863781365
 20
-19.2142013888889
 30
0.0
 10
10.01847058024547
 20
-19.12169999999999
 30
0.0
 10
10.00874999999999
 20
-19.14916944444445
 30
0.0
 10
9.999370580727978
 20
-19.17720416666667
 30
0.0
 10
9.991223358711572
 20
-19.20574166666668
 30
0.0
 10
9.941937248845534
 20
-19.3782638888889
 30
0.0
 10
9.834891418216404
 20
-19.50994583333333
 30
0.0
 10
9.663945589201527
 20
-19.60832361111112
 30
0.0
 10
9.489431704721229
 20
-19.70879444444444
 30
0.0
 10
9.324863653323012
 20
-19.78602500000001
 30
0.0
 10
9.16080115746758
 20
-19.84431944444443
 30
0.0
 10
8.951681718305936
 20
-19.91864166666667
 30
0.0
 10
8.726549779548805
 20
-19.99063333333334
 30
0.0
 10
8.452294230921527
 20
-20.07083194444443
 30
0.0
 10
8.1751900712551
 20
-20.1517875
 30
0.0
 10
7.892848411720983
 20
-20.26286944444445
 30
0.0
 10
7.589134530504553
 20
-20.41032638888888
 30
0.0
 10
7.564069444444435
 20
-20.42245
 30
0.0
 10
7.537384531811868
 20
-20.43622222222221
 30
0.0
 10
7.512022032452578
 20
-20.45446111111111
 30
0.0
 10
7.455005367226274
 20
-20.49564444444445
 30
0.0
 10
7.439852589831288
 20
-20.56043888888889
 30
0.0
 10
7.47351092231434
 20
-20.61954861111111
 30
0.0
 10
7.488663699709327
 20
-20.64612777777777
 30
0.0
 10
7.512660921325327
 20
-20.66508055555556
 30
0.0
 10
7.541109531717766
 20
-20.67284166666667
 30
0.0
 10
7.573506753121566
 20
-20.68174583333333
 30
0.0
 10
7.608545641125298
 20
-20.67606249999999
 30
0.0
 10
7.642620640264491
 20
-20.65654722222222
 30
0.0
 10
7.771258137014835
 20
-20.5828486111111
 30
0.0
 10
7.911547022359728
 20
-20.52431666666666
 30
0.0
 10
8.044192852342146
 20
-20.47063749999999
 30
0.0
 10
8.334652777777768
 20
-20.35323333333334
 30
0.0
 10
8.637669226238561
 20
-20.26110277777778
 30
0.0
 10
8.921881719058748
 20
-20.17907916666667
 30
0.0
 10
9.16762754618402
 20
-20.10815555555556
 30
0.0
 10
9.411755317794611
 20
-20.01197361111111
 30
0.0
 10
9.648760867362903
 20
-19.89281805555555
 30
0.0
 10
9.637333333333345
 20
-19.98413333333332
 30
0.0
 10
9.623160868009613
 20
-20.07046111111112
 30
0.0
 10
9.580212257983476
 20
-20.14875972222222
 30
0.0
 10
9.580212257983476
 20
-20.14875972222222
 30
0.0
 10
9.574913647006218
 20
-20.15842083333334
 30
0.0
 10
9.574913647006218
 20
-20.15842083333334
 30
0.0
 10
9.52779420375211
 20
-20.2444375
 30
0.0
 10
9.483273371543468
 20
-20.32564583333333
 30
0.0
 10
9.406962262360139
 20
-20.376475
 30
0.0
 10
9.276171987886402
 20
-20.46349999999999
 30
0.0
 10
9.154048379860392
 20
-20.52670555555556
 30
0.0
 10
9.033646994013099
 20
-20.56971388888888
 30
0.0
 10
8.882347222222228
 20
-20.62370416666666
 30
0.0
 10
8.723240057410193
 20
-20.66608888888888
 30
0.0
 10
8.569372005741672
 20
-20.7070638888889
 30
0.0
 10
8.569372005741672
 20
-20.7070638888889
 30
0.0
 10
8.521912284718383
 20
-20.71976805555556
 30
0.0
 10
8.521912284718383
 20
-20.71976805555556
 30
0.0
 10
8.406377565414813
 20
-20.75063611111111
 30
0.0
 10
8.291510901649922
 20
-20.7875888888889
 30
0.0
 10
8.180428960011643
 20
-20.82326666666667
 30
0.0
 10
8.0929734066654
 20
-20.85135972222222
 30
0.0
 10
8.00250535339526
 20
-20.88047638888889
 30
0.0
 10
7.913178966762946
 20
-20.90612083333334
 30
0.0
 10
7.79579008083955
 20
-20.93978055555554
 30
0.0
 10
7.678074806035511
 20
-20.97229583333334
 30
0.0
 10
7.560373420120008
 20
-21.00482638888889
 30
0.0
 10
7.560373420120008
 20
-21.00482638888889
 30
0.0
 10
7.44151508978929
 20
-21.0377125
 30
0.0
 10
7.44151508978929
 20
-21.0377125
 30
0.0
 10
7.375428980347654
 20
-21.05602638888889
 30
0.0
 10
7.339945647910705
 20
-21.10529722222223
 30
0.0
 10
7.34660953663125
 20
-21.16945277777778
 30
0.0
 10
7.350674814306331
 20
-21.20840972222221
 30
0.0
 10
7.373069444444455
 20
-21.24005000000001
 30
0.0
 10
7.405585924030269
 20
-21.25799305555557
 30
0.0
 10
7.405585924030269
 20
-21.25799305555557
 30
0.0
 10
7.391531757718641
 20
-21.26007083333333
 30
0.0
 10
7.391531757718641
 20
-21.26007083333333
 30
0.0
 10
7.166666666666666
 20
-21.29316527777779
 30
0.0
 10
6.946995657837457
 20
-21.35561388888889
 30
0.0
 10
6.734597222222217
 20
-21.4159861111111
 30
0.0
 10
6.734597222222217
 20
-21.4159861111111
 30
0.0
 10
6.647885943171381
 20
-21.44054722222222
 30
0.0
 10
6.647885943171381
 20
-21.44054722222222
 30
0.0
 10
6.471754003176405
 20
-21.49018888888887
 30
0.0
 10
6.302423451898498
 20
-21.50338194444445
 30
0.0
 10
6.130345678467771
 20
-21.48097222222221
 30
0.0
 10
5.857530407581887
 20
-21.44547361111111
 30
0.0
 10
5.580366525694747
 20
-21.39369583333334
 30
0.0
 10
5.282931810986358
 20
-21.32265277777777
 30
0.0
 10
4.711333333333338
 20
-21.186
 30
0.0
 10
4.192086005210109
 20
-21.09726805555556
 30
0.0
 10
3.695504073310379
 20
-21.05142638888888
 30
0.0
 10
3.345473526597339
 20
-21.01908749999999
 30
0.0
 10
2.992963813280261
 20
-21.03185138888888
 30
0.0
 10
2.647815210888337
 20
-21.08931388888888
 30
0.0
 10
2.529536047209654
 20
-21.10902222222222
 30
0.0
 10
2.421555555555554
 20
-21.11255416666667
 30
0.0
 10
2.317670774784043
 20
-21.10004444444444
 30
0.0
 10
2.150238834569286
 20
-21.07996388888889
 30
0.0
 10
1.9802402277527
 20
-21.05388888888888
 30
0.0
 10
1.815849954127771
 20
-21.02869027777779
 30
0.0
 10
1.605498570552805
 20
-20.99635277777778
 30
0.0
 10
1.388009722222225
 20
-20.96302083333333
 30
0.0
 10
1.171470833333337
 20
-20.94141249999999
 30
0.0
 10
0.9568597222222226
 20
-20.92001250000001
 30
0.0
 10
0.7411361111111066
 20
-20.92284722222222
 30
0.0
 10
0.5325222222222187
 20
-20.92569583333334
 30
0.0
 10
0.471497222222221
 20
-20.92651249999999
 30
0.0
 10
0.4104583333333317
 20
-20.92726944444444
 30
0.0
 10
0.3493597222222257
 20
-20.92752083333332
 30
0.0
 10
0.2834069444444493
 20
-20.9277736111111
 30
0.0
 10
0.2348638888888925
 20
-20.97064861111112
 30
0.0
 10
0.2286152777777741
 20
-21.03424027777777
 30
0.0
 10
0.2220111111111136
 20
-21.10174999999998
 30
0.0
 10
0.2641444444444435
 20
-21.15404861111112
 30
0.0
 10
0.3335388888888878
 20
-21.16446666666666
 30
0.0
 10
0.3587388888888907
 20
-21.16819166666667
 30
0.0
 10
0.3858222222222215
 20
-21.16951250000001
 30
0.0
 10
0.413708333333337
 20
-21.16819166666667
 30
0.0
 10
0.7232388888888863
 20
-21.15346944444445
 30
0.0
 10
1.026329166666667
 20
-21.16370972222222
 30
0.0
 10
1.314726388888882
 20
-21.19849583333333
 30
0.0
 10
1.447594407875133
 20
-21.21447916666665
 30
0.0
 10
1.58343055555555
 20
-21.23783888888889
 30
0.0
 10
1.71484440112383
 20
-21.26051527777779
 30
0.0
 10
1.896659674308568
 20
-21.29176944444445
 30
0.0
 10
2.084690225114072
 20
-21.32416666666667
 30
0.0
 10
2.27132355373265
 20
-21.33830972222222
 30
0.0
 10
2.515811047556376
 20
-21.356875
 30
0.0
 10
2.760262430269904
 20
-21.33660277777777
 30
0.0
 10
2.996629090965446
 20
-21.31696944444444
 30
0.0
 10
3.24430408470865
 20
-21.29644444444443
 30
0.0
 10
3.500409633794435
 20
-21.27522222222223
 30
0.0
 10
3.753352682960111
 20
-21.29953194444445
 30
0.0
 10
4.048072119959317
 20
-21.32795138888888
 30
0.0
 10
4.361773500923442
 20
-21.37563472222223
 30
0.0
 10
4.740506824689166
 20
-21.44958472222222
 30
0.0
 10
4.896956820736906
 20
-21.48014166666667
 30
0.0
 10
5.055469316732544
 20
-21.51626388888889
 30
0.0
 10
5.208727646194246
 20
-21.55118333333333
 30
0.0
 10
5.442319444444441
 20
-21.60435833333334
 30
0.0
 10
5.683806800859403
 20
-21.65943194444445
 30
0.0
 10
5.926334572510414
 20
-21.69681527777778
 30
0.0
 10
6.055892902570829
 20
-21.71677499999999
 30
0.0
 10
6.17663317729845
 20
-21.72680833333334
 30
0.0
 10
6.290906785522767
 20
-21.72680833333334
 30
0.0
 10
6.472333333333331
 20
-21.72680833333334
 30
0.0
 10
6.637465110101301
 20
-21.70149027777777
 30
0.0
 10
6.795651217216295
 20
-21.65033472222222
 30
0.0
 10
6.942917880162693
 20
-21.60278472222222
 30
0.0
 10
7.09249287638411
 20
-21.56747916666667
 30
0.0
 10
7.245528983629204
 20
-21.5325
 30
0.0
 10
7.392169257702537
 20
-21.49903333333332
 30
0.0
 10
7.545622031603771
 20
-21.4786875
 30
0.0
 10
7.7081123052767
 20
-21.45722777777779
 30
0.0
 10
7.999788686797223
 20
-21.41858333333334
 30
0.0
 10
8.301395623622435
 20
-21.37860277777779
 30
0.0
 10
8.567131728020488
 20
-21.25659722222223
 30
0.0
 10
8.680706725151342
 20
-21.20443333333333
 30
0.0
 10
8.825506721493387
 20
-21.12827083333334
 30
0.0
 10
8.938355329753701
 20
-21.000775
 30
0.0
 10
8.983381717505127
 20
-20.94994583333333
 30
0.0
 10
9.007408105787059
 20
-20.89867083333332
 30
0.0
 10
9.018835883276147
 20
-20.82850555555557
 30
0.0
 10
9.019862272139108
 20
-20.82825277777778
 30
0.0
 10
9.020869216558113
 20
-20.828
 30
0.0
 10
9.021940049864396
 20
-20.82768888888889
 30
0.0
 10
9.197931712085138
 20
-20.77678472222222
 30
0.0
 10
9.34311781952854
 20
-20.69804027777779
 30
0.0
 10
9.473774760672313
 20
-20.62055833333334
 30
0.0
 10
9.596062257583071
 20
-20.54798749999999
 30
0.0
 10
9.69221364404297
 20
-20.44695277777777
 30
0.0
 10
9.767634475471015
 20
-20.31162083333334
 30
0.0
 10
9.851023362253322
 20
-20.16195277777777
 30
0.0
 10
9.893720583396922
 20
-19.98810972222223
 30
0.0
 10
9.901927527634042
 20
-19.764625
 30
0.0
 10
9.902965027607832
 20
-19.7363986111111
 30
0.0
 10
9.905903916422478
 20
-19.73418750000001
 30
0.0
 10
9.916767805036923
 20
-19.72603888888888
 30
0.0
 10
10.05218863494924
 20
-19.62392083333333
 30
0.0
 10
10.14878863250892
 20
-19.48916805555556
 30
0.0
 10
10.20445251999162
 20
-19.32339861111111
 30
0.0
 10
10.22879166666667
 20
-19.25102083333334
 30
0.0
 10
10.25313029653969
 20
-19.17852500000001
 30
0.0
 10
10.2795025180957
 20
-19.10691805555555
 30
0.0
 10
10.32074418372051
 20
-18.99519861111111
 30
0.0
 10
10.37185529354045
 20
-18.91474722222223
 30
0.0
 10
10.440375
 20
-18.85375277777777
 30
0.0
 10
10.5637747331366
 20
-18.74387222222223
 30
0.0
 10
10.7000858408042
 20
-18.644025
 30
0.0
 10
10.84547889268682
 20
-18.55707361111111
 30
0.0
 10
11.08769277545687
 20
-18.4122736111111
 30
0.0
 10
11.29880110345716
 20
-18.2344375
 30
0.0
 10
11.47277777777779
 20
-18.02870277777778
 30
0.0
 10
11.47277777777779
 20
-18.02870277777778
 30
0.0
 10
11.47732193228068
 20
-18.02327083333333
 30
0.0
 10
11.47732193228068
 20
-18.02327083333333
 30
0.0
 10
11.6539816500401
 20
-17.81392916666666
 30
0.0
 10
11.85635108937226
 20
-17.53618611111111
 30
0.0
 10
11.85338303389168
 20
-17.24462777777777
 30
0.0
 10
11.85195525614997
 20
-17.10834583333333
 30
0.0
 10
11.78972886883306
 20
-17.01703194444445
 30
0.0
 10
11.66310803869843
 20
-16.96544583333333
 30
0.0
  0
SPLINE
  5
42
330
1F
100
AcDbEntity
  8
Layer 1
370
     0
100
AcDbSpline
210
0.0
220
0.0
230
1.0
 70
    11
 71
     3
 72
    20
 73
    16
 74
     0
 42
0.0000000001
 43
0.0000000001
 12
1.0
 22
0.0
 32
0.0
 13
1.0
 23
0.0
 33
0.0
 40
0.0
 40
0.0
 40
0.0
 40
0.0
 40
1.0
 40
1.0
 40
1.0
 40
2.0
 40
2.0
 40
2.0
 40
3.0
 40
3.0
 40
3.0
 40
4.0
 40
4.0
 40
4.0
 40
5.0
 40
5.0
 40
5.0
 40
5.0
 10
8.65058033702351
 20
-20.93504583333333
 30
0.0
 10
8.532523395561434
 20
-21.0387375
 30
0.0
 10
8.38070395495227
 20
-21.09643749999999
 30
0.0
 10
8.192762293033411
 20
-21.13785833333332
 30
0.0
 10
8.030345630469734
 20
-21.17372777777778
 30
0.0
 10
7.861801190283081
 20
-21.20101944444446
 30
0.0
 10
7.698034527753507
 20
-21.21473194444444
 30
0.0
 10
7.758153970679207
 20
-21.19774027777779
 30
0.0
 10
7.818303969159691
 20
-21.18138472222222
 30
0.0
 10
7.877413689888676
 20
-21.16528333333334
 30
0.0
 10
8.017123408581533
 20
-21.12733611111111
 30
0.0
 10
8.161581738265543
 20
-21.08805277777777
 30
0.0
 10
8.302210901379617
 20
-21.04106666666667
 30
0.0
 10
8.416677565154613
 20
-21.00292638888888
 30
0.0
 10
8.533980339969073
 20
-20.96818472222223
 30
0.0
 10
8.65058033702351
 20
-20.93504583333333
 30
0.0
  0
HATCH
  5
43
330
1F
100
AcDbEntity
  8
Layer 1
 62
     7
420
 16777215
100
AcDbHatch
 10
0.0
 20
0.0
 30
0.0
210
0.0
220
0.0
230
1.0
  2
SOLID
 70
     1
 71
     0
 91
        2
 92
        1
 93
        1
 72
     4
 94
        3
 73
     0
 74
     1
 95
      458
 96
      454
 40
0.0
 40
0.0
 40
0.0
 40
0.0
 40
1.0
 40
1.0
 40
1.0
 40
2.0
 40
2.0
 40
2.0
 40
3.0
 40
3.0
 40
3.0
 40
4.0
 40
4.0
 40
4.0
 40
5.0
 40
5.0
 40
5.0
 40
6.0
 40
6.0
 40
6.0
 40
7.0
 40
7.0
 40
7.0
 40
8.0
 40
8.0
 40
8.0
 40
9.0
 40
9.0
 40
9.0
 40
10.0
 40
10.0
 40
10.0
 40
11.0
 40
11.0
 40
11.0
 40
12.0
 40
12.0
 40
12.0
 40
13.0
 40
13.0
 40
13.0
 40
14.0
 40
14.0
 40
14.0
 40
15.0
 40
15.0
 40
15.0
 40
16.0
 40
16.0
 40
16.0
 40
17.0
 40
17.0
 40
17.0
 40
18.0
 40
18.0
 40
18.0
 40
19.0
 40
19.0
 40
19.0
 40
20.0
 40
20.0
 40
20.0
 40
21.0
 40
21.0
 40
21.0
 40
22.0
 40
22.0
 40
22.0
 40
23.0
 40
23.0
 40
23.0
 40
24.0
 40
24.0
 40
24.0
 40
25.0
 40
25.0
 40
25.0
 40
26.0
 40
26.0
 40
26.0
 40
27.0
 40
27.0
 40
27.0
 40
28.0
 40
28.0
 40
28.0
 40
29.0
 40
29.0
 40
29.0
 40
30.0
 40
30.0
 40
30.0
 40
31.0
 40
31.0
 40
31.0
 40
32.0
 40
32.0
 40
32.0
 40
33.0
 40
33.0
 40
33.0
 40
34.0
 40
34.0
 40
34.0
 40
35.0
 40
35.0
 40
35.0
 40
36.0
 40
36.0
 40
36.0
 40
37.0
 40
37.0
 40
37.0
 40
38.0
 40
38.0
 40
38.0
 40
39.0
 40
39.0
 40
39.0
 40
40.0
 40
40.0
 40
40.0
 40
41.0
 40
41.0
 40
41.0
 40
42.0
 40
42.0
 40
42.0
 40
43.0
 40
43.0
 40
43.0
 40
44.0
 40
44.0
 40
44.0
 40
45.0
 40
45.0
 40
45.0
 40
46.0
 40
46.0
 40
46.0
 40
47.0
 40
47.0
 40
47.0
 40
48.0
 40
48.0
 40
48.0
 40
49.0
 40
49.0
 40
49.0
 40
50.0
 40
50.0
 40
50.0
 40
51.0
 40
51.0
 40
51.0
 40
52.0
 40
52.0
 40
52.0
 40
53.0
 40
53.0
 40
53.0
 40
54.0
 40
54.0
 40
54.0
 40
55.0
 40
55.0
 40
55.0
 40
56.0
 40
56.0
 40
56.0
 40
57.0
 40
57.0
 40
57.0
 40
58.0
 40
58.0
 40
58.0
 40
59.0
 40
59.0
 40
59.0
 40
60.0
 40
60.0
 40
60.0
 40
61.0
 40
61.0
 40
61.0
 40
62.0
 40
62.0
 40
62.0
 40
63.0
 40
63.0
 40
63.0
 40
64.0
 40
64.0
 40
64.0
 40
65.0
 40
65.0
 40
65.0
 40
66.0
 40
66.0
 40
66.0
 40
67.0
 40
67.0
 40
67.0
 40
68.0
 40
68.0
 40
68.0
 40
69.0
 40
69.0
 40
69.0
 40
70.0
 40
70.0
 40
70.0
 40
71.0
 40
71.0
 40
71.0
 40
72.0
 40
72.0
 40
72.0
 40
73.0
 40
73.0
 40
73.0
 40
74.0
 40
74.0
 40
74.0
 40
75.0
 40
75.0
 40
75.0
 40
76.0
 40
76.0
 40
76.0
 40
77.0
 40
77.0
 40
77.0
 40
78.0
 40
78.0
 40
78.0
 40
79.0
 40
79.0
 40
79.0
 40
80.0
 40
80.0
 40
80.0
 40
81.0
 40
81.0
 40
81.0
 40
82.0
 40
82.0
 40
82.0
 40
83.0
 40
83.0
 40
83.0
 40
84.0
 40
84.0
 40
84.0
 40
85.0
 40
85.0
 40
85.0
 40
86.0
 40
86.0
 40
86.0
 40
87.0
 40
87.0
 40
87.0
 40
88.0
 40
88.0
 40
88.0
 40
89.0
 40
89.0
 40
89.0
 40
90.0
 40
90.0
 40
90.0
 40
91.0
 40
91.0
 40
91.0
 40
92.0
 40
92.0
 40
92.0
 40
93.0
 40
93.0
 40
93.0
 40
94.0
 40
94.0
 40
94.0
 40
95.0
 40
95.0
 40
95.0
 40
96.0
 40
96.0
 40
96.0
 40
97.0
 40
97.0
 40
97.0
 40
98.0
 40
98.0
 40
98.0
 40
99.0
 40
99.0
 40
99.0
 40
100.0
 40
100.0
 40
100.0
 40
101.0
 40
101.0
 40
101.0
 40
102.0
 40
102.0
 40
102.0
 40
103.0
 40
103.0
 40
103.0
 40
104.0
 40
104.0
 40
104.0
 40
105.0
 40
105.0
 40
105.0
 40
106.0
 40
106.0
 40
106.0
 40
107.0
 40
107.0
 40
107.0
 40
108.0
 40
108.0
 40
108.0
 40
109.0
 40
109.0
 40
109.0
 40
110.0
 40
110.0
 40
110.0
 40
111.0
 40
111.0
 40
111.0
 40
112.0
 40
112.0
 40
112.0
 40
113.0
 40
113.0
 40
113.0
 40
114.0
 40
114.0
 40
114.0
 40
115.0
 40
115.0
 40
115.0
 40
116.0
 40
116.0
 40
116.0
 40
117.0
 40
117.0
 40
117.0
 40
118.0
 40
118.0
 40
118.0
 40
119.0
 40
119.0
 40
119.0
 40
120.0
 40
120.0
 40
120.0
 40
121.0
 40
121.0
 40
121.0
 40
122.0
 40
122.0
 40
122.0
 40
123.0
 40
123.0
 40
123.0
 40
124.0
 40
124.0
 40
124.0
 40
125.0
 40
125.0
 40
125.0
 40
126.0
 40
126.0
 40
126.0
 40
127.0
 40
127.0
 40
127.0
 40
128.0
 40
128.0
 40
128.0
 40
129.0
 40
129.0
 40
129.0
 40
130.0
 40
130.0
 40
130.0
 40
131.0
 40
131.0
 40
131.0
 40
132.0
 40
132.0
 40
132.0
 40
133.0
 40
133.0
 40
133.0
 40
134.0
 40
134.0
 40
134.0
 40
135.0
 40
135.0
 40
135.0
 40
136.0
 40
136.0
 40
136.0
 40
137.0
 40
137.0
 40
137.0
 40
138.0
 40
138.0
 40
138.0
 40
139.0
 40
139.0
 40
139.0
 40
140.0
 40
140.0
 40
140.0
 40
141.0
 40
141.0
 40
141.0
 40
142.0
 40
142.0
 40
142.0
 40
143.0
 40
143.0
 40
143.0
 40
144.0
 40
144.0
 40
144.0
 40
145.0
 40
145.0
 40
145.0
 40
146.0
 40
146.0
 40
146.0
 40
147.0
 40
147.0
 40
147.0
 40
148.0
 40
148.0
 40
148.0
 40
149.0
 40
149.0
 40
149.0
 40
150.0
 40
150.0
 40
150.0
 40
151.0
 40
151.0
 40
151.0
 40
151.0
 10
11.66310803869843
 20
-16.96544583333333
 10
11.43132748899815
 20
-16.87091111111111
 10
11.15305388491682
 20
-16.98236388888889
 10
10.94983861227269
 20
-17.06370555555555
 10
10.94983861227269
 20
-17.06370555555555
 10
10.94079972361214
 20
-17.06731249999999
 10
10.94079972361214
 20
-17.06731249999999
 10
10.74791666666667
 20
-17.14440972222222
 10
10.571921955153
 20
-17.24980694444444
 10
10.40169973723096
 20
-17.35179166666666
 10
10.28325668466752
 20
-17.42271527777777
 10
10.16074696554016
 20
-17.49608750000001
 10
10.03498724649489
 20
-17.55822499999999
 10
9.688994199679856
 20
-17.72924861111111
 10
9.354099763695558
 20
-17.80394166666666
 10
9.012053939003028
 20
-17.78797222222223
 10
8.798006722188095
 20
-17.77780694444444
 10
8.577385894428112
 20
-17.78215555555555
 10
8.364067844261424
 20
-17.78620694444444
 10
8.167176182568658
 20
-17.790125
 10
7.963519243269022
 20
-17.7941611111111
 10
7.765885914928326
 20
-17.78657777777778
 10
7.338773425718095
 20
-17.77028333333333
 10
6.965531768480306
 20
-17.67487222222222
 10
6.624835943753673
 20
-17.49476666666667
 10
6.549059556779057
 20
-17.45466666666666
 10
6.478804002998307
 20
-17.40863194444445
 10
6.414647060174603
 20
-17.36360555555555
 10
6.647467887626387
 20
-17.21280972222222
 10
6.853131771319769
 20
-17.1123388888889
 10
7.058166666666668
 20
-17.048925
 10
7.323933148315215
 20
-16.96684166666667
 10
7.606365085624828
 20
-16.86831388888889
 10
7.871165078935418
 20
-16.70500833333333
 10
8.212455348091478
 20
-16.4945375
 10
8.47492617479424
 20
-16.21908194444445
 10
8.630219226426764
 20
-15.90837777777777
 10
8.670006725421647
 20
-15.82874305555555
 10
8.86292060943712
 20
-15.41638194444444
 10
8.754627556617278
 20
-15.11516111111112
 10
8.715537279827004
 20
-15.00640972222221
 10
8.642284503899747
 20
-14.92754583333333
 10
8.53691666666666
 20
-14.88081388888889
 10
8.467224786099905
 20
-14.84987083333333
 10
8.391477565791218
 20
-14.83741944444445
 10
8.29848611111111
 20
-14.84215277777778
 10
8.146592849755304
 20
-14.84961805555555
 10
7.994298409158141
 20
-14.89425833333333
 10
7.832951191011893
 20
-14.9786875
 10
7.691565083472495
 20
-15.05269722222222
 10
7.561383142316723
 20
-15.14433888888888
 10
7.43545953438671
 20
-15.2329361111111
 10
7.359862314074235
 20
-15.28616944444444
 10
7.281728982714715
 20
-15.34116944444444
 10
7.202966484704423
 20
-15.39093055555555
 10
7.146365097245406
 20
-15.42674027777778
 10
7.07815676563516
 20
-15.46645416666667
 10
7.001401212018613
 20
-15.48982777777778
 10
6.723317885710255
 20
-15.57444861111111
 10
6.429917893122163
 20
-15.61132777777777
 10
6.146166666666659
 20
-15.64694583333333
 10
5.90031651761213
 20
-15.67775416666667
 10
5.646144301810838
 20
-15.70964722222223
 10
5.399579030261823
 20
-15.77248194444444
 10
5.072387371860714
 20
-15.85570833333333
 10
4.737731824759268
 20
-15.99338472222222
 10
4.376422111664498
 20
-16.19331805555555
 10
4.149552672951257
 20
-16.31879583333333
 10
3.927017956350735
 20
-16.45828194444444
 10
3.711798517343191
 20
-16.59318333333334
 10
3.711798517343191
 20
-16.59318333333334
 10
3.588147131577999
 20
-16.67053333333333
 10
3.588147131577999
 20
-16.67053333333333
 10
3.542781854946245
 20
-16.69889305555556
 10
3.49724852276318
 20
-16.72692777777777
 10
3.451687412803039
 20
-16.75503611111112
 10
3.340234637840795
 20
-16.82367361111111
 10
3.224981862974548
 20
-16.89471527777778
 10
3.113544365789696
 20
-16.96872638888889
 10
2.978004091435953
 20
-17.05883750000001
 10
2.841692983768351
 20
-17.15792916666667
 10
2.709863820431969
 20
-17.25378472222222
 10
2.27672910915165
 20
-17.56871666666666
 10
1.828865231576755
 20
-17.89438055555556
 10
1.298434722222219
 20
-17.98751944444444
 10
0.9589819444444426
 20
-18.04713472222223
 10
0.6429805555555579
 20
-18.07359583333333
 10
0.3329152777777785
 20
-18.06917222222222
 10
0.3329152777777785
 20
-18.06917222222222
 10
0.2323402777777801
 20
-18.06911388888889
 10
0.2323402777777801
 20
-18.06911388888889
 10
0.1507472222222203
 20
-18.06898055555555
 10
0.0691088888888897
 20
-18.06892083333333
 10
-0.0125860416666607
 20
-18.06936527777778
 10
-0.1010834722222221
 20
-18.06987083333334
 10
-0.1435875000000048
 20
-18.12645833333332
 10
-0.146422222222226
 20
-18.18215416666667
 10
-0.1493305555555556
 20
-18.23690138888888
 10
-0.113490138888892
 20
-18.29740694444445
 10
-0.026850694444445
 20
-18.30933888888888
 10
-0.0123364999999972
 20
-18.31129722222221
 10
0.0026673611111063
 20
-18.31186111111111
 10
0.0170034722222252
 20
-18.31141666666667
 10
0.089025000000005
 20
-18.31009583333333
 10
0.161048611111116
 20
-18.31097083333333
 10
0.2330388888888895
 20
-18.31192083333334
 10
0.3492402777777796
 20
-18.313375
 10
0.4693152777777717
 20
-18.31488888888889
 10
0.5886638888888834
 20
-18.30668194444443
 10
0.7603402777777748
 20
-18.29475
 10
0.9370027777777825
 20
-18.27864861111112
 10
1.113724999999994
 20
-18.25882083333332
 10
1.560606905020197
 20
-18.20873472222222
 10
1.938659673247558
 20
-18.07347638888888
 10
2.269498553778754
 20
-17.84512361111111
 10
2.269498553778754
 20
-17.84512361111111
 10
2.525855491747077
 20
-17.66767499999999
 10
2.525855491747077
 20
-17.66767499999999
 10
3.20625269678102
 20
-17.19612916666666
 10
3.909802679007852
 20
-16.70855416666667
 10
4.646758215946344
 20
-16.32314444444445
 10
4.95917070805414
 20
-16.15983749999999
 10
5.300591532762458
 20
-16.03752083333334
 10
5.661456801424012
 20
-15.95953333333333
 10
5.837258185871784
 20
-15.9215125
 10
6.01988734792485
 20
-15.90124027777777
 10
6.196490121241267
 20
-15.88160555555555
 10
6.384713727597449
 20
-15.86070972222222
 10
6.579304000459463
 20
-15.83910138888888
 10
6.770051217863005
 20
-15.79603472222223
 10
7.025709544737865
 20
-15.73831944444444
 10
7.248408150223137
 20
-15.64997361111111
 10
7.43192759003149
 20
-15.53345972222222
 10
7.502673421577633
 20
-15.48856666666667
 10
7.570909530964955
 20
-15.44049722222222
 10
7.636906751519947
 20
-15.39403194444445
 10
7.774672025817481
 20
-15.29695972222223
 10
7.904780355864002
 20
-15.20533333333333
 10
8.056940074242346
 20
-15.13908472222223
 10
8.159281738323646
 20
-15.09450277777778
 10
8.268523402230635
 20
-15.07663472222223
 10
8.381623399373488
 20
-15.08643055555555
 10
8.448510897683768
 20
-15.09217361111112
 10
8.488831729998513
 20
-15.12121666666667
 10
8.512413673847226
 20
-15.18051944444445
 10
8.548625000000003
 20
-15.27158194444444
 10
8.555734506086184
 20
-15.36995972222222
 10
8.533606728867401
 20
-15.47283611111111
 10
8.390026176938994
 20
-16.13956527777778
 10
7.780103970124704
 20
-16.55824861111111
 10
7.25712065000304
 20
-16.72768472222222
 10
6.958705379763867
 20
-16.82443055555556
 10
6.571216500663771
 20
-16.96589166666667
 10
6.220962342845269
 20
-17.20295555555555
 10
6.120269289833433
 20
-17.2711486111111
 10
6.006159570493865
 20
-17.35823333333333
 10
5.92339290591806
 20
-17.48750972222222
 10
5.893816517776334
 20
-17.5336638888889
 10
5.894008184438158
 20
-17.57205694444445
 10
5.899366517636129
 20
-17.59612777777777
 10
5.905910961915247
 20
-17.62548333333332
 10
5.924031794790809
 20
-17.65081527777777
 10
5.950462349678673
 20
-17.66748194444444
 10
6.008874999999989
 20
-17.70430138888889
 10
6.080362346397123
 20
-17.68358333333333
 10
6.124308178620291
 20
-17.61727638888889
 10
6.150231789076517
 20
-17.57818611111111
 10
6.178117899483166
 20
-17.55034444444444
 10
6.21041095422293
 20
-17.518125
 10
6.21041095422293
 20
-17.518125
 10
6.21441789856615
 20
-17.51414861111112
 10
6.21441789856615
 20
-17.51414861111112
 10
6.404215115993692
 20
-17.666725
 10
6.621111111111102
 20
-17.76680972222222
 10
6.809259550205852
 20
-17.84487222222222
 10
7.112185931442177
 20
-17.97046805555556
 10
7.462899811471289
 20
-18.0399375
 10
7.851620634984707
 20
-18.05143888888889
 10
8.015267853072853
 20
-18.05617222222222
 10
8.179108126711677
 20
-18.04606666666667
 10
8.337517844932133
 20
-18.03615277777778
 10
8.518038673705126
 20
-18.02484444444445
 10
8.704703946767342
 20
-18.01316388888889
 10
8.888001164359087
 20
-18.02453194444445
 10
9.06809421536511
 20
-18.03557361111111
 10
9.21669143383345
 20
-18.03337777777777
 10
9.355658096989524
 20
-18.01714166666666
 10
9.600231701922185
 20
-17.98866249999999
 10
9.847491417898102
 20
-17.91401388888889
 10
10.1114914112289
 20
-17.78898194444444
 10
10.25471779649959
 20
-17.72115972222222
 10
10.39067334862062
 20
-17.63886944444444
 10
10.52214556752157
 20
-17.55936805555555
 10
10.58334834375324
 20
-17.52229583333333
 10
10.64453723109636
 20
-17.48529861111111
 10
10.70652611841928
 20
-17.44968055555556
 10
10.9123511132197
 20
-17.33134166666667
 10
11.13865805194716
 20
-17.21684583333333
 10
11.39845526760635
 20
-17.18072361111111
 10
11.47138443243067
 20
-17.17061805555555
 10
11.52687054214008
 20
-17.16885138888889
 10
11.5781747075107
 20
-17.19127638888888
 10
11.6087469289606
 20
-17.2046625
 10
11.6136594288365
 20
-17.21665277777778
 10
11.61315387329372
 20
-17.23849861111112
 10
11.61202609554443
 20
-17.28503888888888
 10
11.60744137343803
 20
-17.32003333333333
 10
11.5983888888889
 20
-17.35198472222222
 10
11.56112331905256
 20
-17.48333888888889
 10
11.49711637622507
 20
-17.60710972222223
 10
11.4081163784734
 20
-17.71989861111111
 10
11.4081163784734
 20
-17.71989861111111
 10
11.35993165746842
 20
-17.78139861111111
 10
11.35993165746842
 20
-17.78139861111111
 10
11.22602193862905
 20
-17.95279305555555
 10
11.09953583071324
 20
-18.11470416666667
 10
10.91954833526011
 20
-18.22370833333333
 10
10.6809108412886
 20
-18.36825555555555
 10
10.43595529192114
 20
-18.5408375
 10
10.17072057639931
 20
-18.75126249999999
 10
10.03227196878571
 20
-18.86106805555556
 10
9.894002527834244
 20
-18.9271236111111
 10
9.74805947596552
 20
-18.95314027777777
 10
9.528803925948825
 20
-18.99223055555555
 10
9.297334487351792
 20
-19.00941527777778
 10
9.07346365967391
 20
-19.02602222222223
 10
8.665272003319034
 20
-19.05626666666666
 10
8.243176180648737
 20
-19.08759583333333
 10
7.856073412649998
 20
-19.25070972222223
 10
7.744798415461041
 20
-19.29763472222223
 10
7.663203973077846
 20
-19.34183055555556
 10
7.591601197108907
 20
-19.3941138888889
 10
7.559990086796359
 20
-19.4172361111111
 10
7.540383142847228
 20
-19.44932083333333
 10
7.536331754060686
 20
-19.48455277777778
 10
7.532651198598109
 20
-19.51675694444445
 10
7.542430555555559
 20
-19.54826388888889
 10
7.563965086695942
 20
-19.5732111111111
 10
7.60829425224276
 20
-19.62461805555555
 10
7.672523417286861
 20
-19.63092638888889
 10
7.731723415791343
 20
-19.58963888888889
 10
7.805481747261385
 20
-19.53823194444443
 10
7.889627578469016
 20
-19.49528194444444
 10
7.988970631514954
 20
-19.45840416666667
 10
8.3397886782081
 20
-19.32825138888888
 10
8.715760890932465
 20
-19.28229027777777
 10
9.069738659768012
 20
-19.25191111111111
 10
9.14489143564727
 20
-19.24547083333333
 10
9.221899767035211
 20
-19.24180416666667
 10
9.299608098405466
 20
-19.23802083333334
 10
9.541626147847131
 20
-19.22626666666666
 10
9.790535863781365
 20
-19.2142013888889
 10
10.01847058024547
 20
-19.12169999999999
 10
10.00874999999999
 20
-19.14916944444445
 10
9.999370580727978
 20
-19.17720416666667
 10
9.991223358711572
 20
-19.20574166666668
 10
9.941937248845534
 20
-19.3782638888889
 10
9.834891418216404
 20
-19.50994583333333
 10
9.663945589201527
 20
-19.60832361111112
 10
9.489431704721229
 20
-19.70879444444444
 10
9.324863653323012
 20
-19.78602500000001
 10
9.16080115746758
 20
-19.84431944444443
 10
8.951681718305936
 20
-19.91864166666667
 10
8.726549779548805
 20
-19.99063333333334
 10
8.452294230921527
 20
-20.07083194444443
 10
8.1751900712551
 20
-20.1517875
 10
7.892848411720983
 20
-20.26286944444445
 10
7.589134530504553
 20
-20.41032638888888
 10
7.564069444444435
 20
-20.42245
 10
7.537384531811868
 20
-20.43622222222221
 10
7.512022032452578
 20
-20.45446111111111
 10
7.455005367226274
 20
-20.49564444444445
 10
7.439852589831288
 20
-20.56043888888889
 10
7.47351092231434
 20
-20.61954861111111
 10
7.488663699709327
 20
-20.64612777777777
 10
7.512660921325327
 20
-20.66508055555556
 10
7.541109531717766
 20
-20.67284166666667
 10
7.573506753121566
 20
-20.68174583333333
 10
7.608545641125298
 20
-20.67606249999999
 10
7.642620640264491
 20
-20.65654722222222
 10
7.771258137014835
 20
-20.5828486111111
 10
7.911547022359728
 20
-20.52431666666666
 10
8.044192852342146
 20
-20.47063749999999
 10
8.334652777777768
 20
-20.35323333333334
 10
8.637669226238561
 20
-20.26110277777778
 10
8.921881719058748
 20
-20.17907916666667
 10
9.16762754618402
 20
-20.10815555555556
 10
9.411755317794611
 20
-20.01197361111111
 10
9.648760867362903
 20
-19.89281805555555
 10
9.637333333333345
 20
-19.98413333333332
 10
9.623160868009613
 20
-20.07046111111112
 10
9.580212257983476
 20
-20.14875972222222
 10
9.580212257983476
 20
-20.14875972222222
 10
9.574913647006218
 20
-20.15842083333334
 10
9.574913647006218
 20
-20.15842083333334
 10
9.52779420375211
 20
-20.2444375
 10
9.483273371543468
 20
-20.32564583333333
 10
9.406962262360139
 20
-20.376475
 10
9.276171987886402
 20
-20.46349999999999
 10
9.154048379860392
 20
-20.52670555555556
 10
9.033646994013099
 20
-20.56971388888888
 10
8.882347222222228
 20
-20.62370416666666
 10
8.723240057410193
 20
-20.66608888888888
 10
8.569372005741672
 20
-20.7070638888889
 10
8.569372005741672
 20
-20.7070638888889
 10
8.521912284718383
 20
-20.71976805555556
 10
8.521912284718383
 20
-20.71976805555556
 10
8.406377565414813
 20
-20.75063611111111
 10
8.291510901649922
 20
-20.7875888888889
 10
8.180428960011643
 20
-20.82326666666667
 10
8.0929734066654
 20
-20.85135972222222
 10
8.00250535339526
 20
-20.88047638888889
 10
7.913178966762946
 20
-20.90612083333334
 10
7.79579008083955
 20
-20.93978055555554
 10
7.678074806035511
 20
-20.97229583333334
 10
7.560373420120008
 20
-21.00482638888889
 10
7.560373420120008
 20
-21.00482638888889
 10
7.44151508978929
 20
-21.0377125
 10
7.44151508978929
 20
-21.0377125
 10
7.375428980347654
 20
-21.05602638888889
 10
7.339945647910705
 20
-21.10529722222223
 10
7.34660953663125
 20
-21.16945277777778
 10
7.350674814306331
 20
-21.20840972222221
 10
7.373069444444455
 20
-21.24005000000001
 10
7.405585924030269
 20
-21.25799305555557
 10
7.405585924030269
 20
-21.25799305555557
 10
7.391531757718641
 20
-21.26007083333333
 10
7.391531757718641
 20
-21.26007083333333
 10
7.166666666666666
 20
-21.29316527777779
 10
6.946995657837457
 20
-21.35561388888889
 10
6.734597222222217
 20
-21.4159861111111
 10
6.734597222222217
 20
-21.4159861111111
 10
6.647885943171381
 20
-21.44054722222222
 10
6.647885943171381
 20
-21.44054722222222
 10
6.471754003176405
 20
-21.49018888888887
 10
6.302423451898498
 20
-21.50338194444445
 10
6.130345678467771
 20
-21.48097222222221
 10
5.857530407581887
 20
-21.44547361111111
 10
5.580366525694747
 20
-21.39369583333334
 10
5.282931810986358
 20
-21.32265277777777
 10
4.711333333333338
 20
-21.186
 10
4.192086005210109
 20
-21.09726805555556
 10
3.695504073310379
 20
-21.05142638888888
 10
3.345473526597339
 20
-21.01908749999999
 10
2.992963813280261
 20
-21.03185138888888
 10
2.647815210888337
 20
-21.08931388888888
 10
2.529536047209654
 20
-21.10902222222222
 10
2.421555555555554
 20
-21.11255416666667
 10
2.317670774784043
 20
-21.10004444444444
 10
2.150238834569286
 20
-21.07996388888889
 10
1.9802402277527
 20
-21.05388888888888
 10
1.815849954127771
 20
-21.02869027777779
 10
1.605498570552805
 20
-20.99635277777778
 10
1.388009722222225
 20
-20.96302083333333
 10
1.171470833333337
 20
-20.94141249999999
 10
0.9568597222222226
 20
-20.92001250000001
 10
0.7411361111111066
 20
-20.92284722222222
 10
0.5325222222222187
 20
-20.92569583333334
 10
0.471497222222221
 20
-20.92651249999999
 10
0.4104583333333317
 20
-20.92726944444444
 10
0.3493597222222257
 20
-20.92752083333332
 10
0.2834069444444493
 20
-20.9277736111111
 10
0.2348638888888925
 20
-20.97064861111112
 10
0.2286152777777741
 20
-21.03424027777777
 10
0.2220111111111136
 20
-21.10174999999998
 10
0.2641444444444435
 20
-21.15404861111112
 10
0.3335388888888878
 20
-21.16446666666666
 10
0.3587388888888907
 20
-21.16819166666667
 10
0.3858222222222215
 20
-21.16951250000001
 10
0.413708333333337
 20
-21.16819166666667
 10
0.7232388888888863
 20
-21.15346944444445
 10
1.026329166666667
 20
-21.16370972222222
 10
1.314726388888882
 20
-21.19849583333333
 10
1.447594407875133
 20
-21.21447916666665
 10
1.58343055555555
 20
-21.23783888888889
 10
1.71484440112383
 20
-21.26051527777779
 10
1.896659674308568
 20
-21.29176944444445
 10
2.084690225114072
 20
-21.32416666666667
 10
2.27132355373265
 20
-21.33830972222222
 10
2.515811047556376
 20
-21.356875
 10
2.760262430269904
 20
-21.33660277777777
 10
2.996629090965446
 20
-21.31696944444444
 10
3.24430408470865
 20
-21.29644444444443
 10
3.500409633794435
 20
-21.27522222222223
 10
3.753352682960111
 20
-21.29953194444445
 10
4.048072119959317
 20
-21.32795138888888
 10
4.361773500923442
 20
-21.37563472222223
 10
4.740506824689166
 20
-21.44958472222222
 10
4.896956820736906
 20
-21.48014166666667
 10
5.055469316732544
 20
-21.51626388888889
 10
5.208727646194246
 20
-21.55118333333333
 10
5.442319444444441
 20
-21.60435833333334
 10
5.683806800859403
 20
-21.65943194444445
 10
5.926334572510414
 20
-21.69681527777778
 10
6.055892902570829
 20
-21.71677499999999
 10
6.17663317729845
 20
-21.72680833333334
 10
6.290906785522767
 20
-21.72680833333334
 10
6.472333333333331
 20
-21.72680833333334
 10
6.637465110101301
 20
-21.70149027777777
 10
6.795651217216295
 20
-21.65033472222222
 10
6.942917880162693
 20
-21.60278472222222
 10
7.09249287638411
 20
-21.56747916666667
 10
7.245528983629204
 20
-21.5325
 10
7.392169257702537
 20
-21.49903333333332
 10
7.545622031603771
 20
-21.4786875
 10
7.7081123052767
 20
-21.45722777777779
 10
7.999788686797223
 20
-21.41858333333334
 10
8.301395623622435
 20
-21.37860277777779
 10
8.567131728020488
 20
-21.25659722222223
 10
8.680706725151342
 20
-21.20443333333333
 10
8.825506721493387
 20
-21.12827083333334
 10
8.938355329753701
 20
-21.000775
 10
8.983381717505127
 20
-20.94994583333333
 10
9.007408105787059
 20
-20.89867083333332
 10
9.018835883276147
 20
-20.82850555555557
 10
9.019862272139108
 20
-20.82825277777778
 10
9.020869216558113
 20
-20.828
 10
9.021940049864396
 20
-20.82768888888889
 10
9.197931712085138
 20
-20.77678472222222
 10
9.34311781952854
 20
-20.69804027777779
 10
9.473774760672313
 20
-20.62055833333334
 10
9.596062257583071
 20
-20.54798749999999
 10
9.69221364404297
 20
-20.44695277777777
 10
9.767634475471015
 20
-20.31162083333334
 10
9.851023362253322
 20
-20.16195277777777
 10
9.893720583396922
 20
-19.98810972222223
 10
9.901927527634042
 20
-19.764625
 10
9.902965027607832
 20
-19.7363986111111
 10
9.905903916422478
 20
-19.73418750000001
 10
9.916767805036923
 20
-19.72603888888888
 10
10.05218863494924
 20
-19.62392083333333
 10
10.14878863250892
 20
-19.48916805555556
 10
10.20445251999162
 20
-19.32339861111111
 10
10.22879166666667
 20
-19.25102083333334
 10
10.25313029653969
 20
-19.17852500000001
 10
10.2795025180957
 20
-19.10691805555555
 10
10.32074418372051
 20
-18.99519861111111
 10
10.37185529354045
 20
-18.91474722222223
 10
10.440375
 20
-18.85375277777777
 10
10.5637747331366
 20
-18.74387222222223
 10
10.7000858408042
 20
-18.644025
 10
10.84547889268682
 20
-18.55707361111111
 10
11.08769277545687
 20
-18.4122736111111
 10
11.29880110345716
 20
-18.2344375
 10
11.47277777777779
 20
-18.02870277777778
 10
11.47277777777779
 20
-18.02870277777778
 10
11.47732193228068
 20
-18.02327083333333
 10
11.47732193228068
 20
-18.02327083333333
 10
11.6539816500401
 20
-17.81392916666666
 10
11.85635108937226
 20
-17.53618611111111
 10
11.85338303389168
 20
-17.24462777777777
 10
11.85195525614997
 20
-17.10834583333333
 10
11.78972886883306
 20
-17.01703194444445
 10
11.66310803869843
 20
-16.96544583333333
 97
        0
 97
        0
 92
        1
 93
        1
 72
     4
 94
        3
 73
     0
 74
     1
 95
       20
 96
       16
 40
0.0
 40
0.0
 40
0.0
 40
0.0
 40
1.0
 40
1.0
 40
1.0
 40
2.0
 40
2.0
 40
2.0
 40
3.0
 40
3.0
 40
3.0
 40
4.0
 40
4.0
 40
4.0
 40
5.0
 40
5.0
 40
5.0
 40
5.0
 10
8.65058033702351
 20
-20.93504583333333
 10
8.532523395561434
 20
-21.0387375
 10
8.38070395495227
 20
-21.09643749999999
 10
8.192762293033411
 20
-21.13785833333332
 10
8.030345630469734
 20
-21.17372777777778
 10
7.861801190283081
 20
-21.20101944444446
 10
7.698034527753507
 20
-21.21473194444444
 10
7.758153970679207
 20
-21.19774027777779
 10
7.818303969159691
 20
-21.18138472222222
 10
7.877413689888676
 20
-21.16528333333334
 10
8.017123408581533
 20
-21.12733611111111
 10
8.161581738265543
 20
-21.08805277777777
 10
8.302210901379617
 20
-21.04106666666667
 10
8.416677565154613
 20
-21.00292638888888
 10
8.533980339969073
 20
-20.96818472222223
 10
8.65058033702351
 20
-20.93504583333333
 97
        0
 97
        0
 75
     2
 76
     1
 98
        0
  0
ENDSEC
  0
SECTION
  2
OBJECTS
  0
DICTIONARY
  5
C
330
0
100
AcDbDictionary
281
     1
  3
ACAD_GROUP
350
D
  3
ACAD_LAYOUT
350
1A
  3
ACAD_MATERIAL
350
3B
  3
ACAD_MLEADERSTYLE
350
45
  3
ACAD_MLINESTYLE
350
17
  3
ACAD_PLOTSETTINGS
350
19
  3
ACAD_PLOTSTYLENAME
350
E
  3
ACAD_TABLESTYLE
350
44
  3
ACAD_VISUALSTYLE
350
2A
  0
SUN
  5
3F
330
29
100
AcDbSun
 90
        1
290
     0
 63
     7
421
 16777215
 40
1.0
291
     1
 91
  2455826
 92
 54000000
292
     0
 70
     2
 71
   256
280
     1
  0
DICTIONARY
  5
D
102
{ACAD_REACTORS
330
C
102
}
330
C
100
AcDbDictionary
281
     1
  0
DICTIONARY
  5
1A
102
{ACAD_REACTORS
330
C
102
}
330
C
100
AcDbDictionary
281
     1
  3
Layout1
350
1E
  3
Layout2
350
26
  3
Model
350
22
  0
DICTIONARY
  5
3B
102
{ACAD_REACTORS
330
C
102
}
330
C
100
AcDbDictionary
281
     1
  3
ByBlock
350
3D
  3
ByLayer
350
3C
  3
Global
350
3E
  0
DICTIONARY
  5
45
102
{ACAD_REACTORS
330
C
102
}
330
C
100
AcDbDictionary
281
     1
  0
DICTIONARY
  5
17
102
{ACAD_REACTORS
330
C
102
}
330
C
100
AcDbDictionary
281
     1
  3
Standard
350
18
  0
DICTIONARY
  5
19
102
{ACAD_REACTORS
330
C
102
}
330
C
100
AcDbDictionary
281
     1
  0
ACDBDICTIONARYWDFLT
  5
E
102
{ACAD_REACTORS
330
C
102
}
330
C
100
AcDbDictionary
281
     1
  3
Normal
350
F
100
AcDbDictionaryWithDefault
340
F
  0
DICTIONARY
  5
44
102
{ACAD_REACTORS
330
C
102
}
330
C
100
AcDbDictionary
281
     1
  0
DICTIONARY
  5
2A
102
{ACAD_REACTORS
330
C
102
}
330
C
100
AcDbDictionary
281
     1
  3
2dWireframe
350
2F
  3
3D Hidden
350
31
  3
3dWireframe
350
30
  3
Basic
350
32
  3
Brighten
350
36
  3
ColorChange
350
3A
  3
Conceptual
350
34
  3
Dim
350
35
  3
Facepattern
350
39
  3
Flat
350
2B
  3
FlatWithEdges
350
2C
  3
Gouraud
350
2D
  3
GouraudWithEdges
350
2E
  3
Linepattern
350
38
  3
Realistic
350
33
  3
Thicken
350
37
  0
LAYOUT
  5
1E
102
{ACAD_REACTORS
330
1A
102
}
330
1A
100
AcDbPlotSettings
  1

  2
none_device
  4

  6

 40
0.0
 41
0.0
 42
0.0
 43
0.0
 44
0.0
 45
0.0
 46
0.0
 47
0.0
 48
0.0
 49
0.0
140
0.0
141
0.0
142
1.0
143
1.0
 70
   688
 72
     0
 73
     0
 74
     5
  7

 75
    16
 76
     0
 77
     2
 78
   300
147
1.0
148
0.0
149
0.0
100
AcDbLayout
  1
Layout1
 70
     1
 71
     1
 10
0.0
 20
0.0
 11
12.0
 21
9.0
 12
0.0
 22
0.0
 32
0.0
 14
1.000000000000000E+20
 24
1.000000000000000E+20
 34
1.000000000000000E+20
 15
-1.000000000000000E+20
 25
-1.000000000000000E+20
 35
-1.000000000000000E+20
146
0.0
 13
0.0
 23
0.0
 33
0.0
 16
1.0
 26
0.0
 36
0.0
 17
0.0
 27
1.0
 37
0.0
 76
     0
330
1B
  0
LAYOUT
  5
26
102
{ACAD_REACTORS
330
1A
102
}
330
1A
100
AcDbPlotSettings
  1

  2
none_device
  4

  6

 40
0.0
 41
0.0
 42
0.0
 43
0.0
 44
0.0
 45
0.0
 46
0.0
 47
0.0
 48
0.0
 49
0.0
140
0.0
141
0.0
142
1.0
143
1.0
 70
   688
 72
     0
 73
     0
 74
     5
  7

 75
    16
 76
     0
 77
     2
 78
   300
147
1.0
148
0.0
149
0.0
100
AcDbLayout
  1
Layout2
 70
     1
 71
     2
 10
0.0
 20
0.0
 11
0.0
 21
0.0
 12
0.0
 22
0.0
 32
0.0
 14
0.0
 24
0.0
 34
0.0
 15
0.0
 25
0.0
 35
0.0
146
0.0
 13
0.0
 23
0.0
 33
0.0
 16
1.0
 26
0.0
 36
0.0
 17
0.0
 27
1.0
 37
0.0
 76
     0
330
23
  0
LAYOUT
  5
22
102
{ACAD_REACTORS
330
1A
102
}
330
1A
100
AcDbPlotSettings
  1

  2
none_device
  4

  6

 40
0.0
 41
0.0
 42
0.0
 43
0.0
 44
0.0
 45
0.0
 46
0.0
 47
0.0
 48
0.0
 49
0.0
140
0.0
141
0.0
142
1.0
143
1.0
 70
  1712
 72
     0
 73
     0
 74
     0
  7

 75
     0
 76
     0
 77
     2
 78
   300
147
1.0
148
0.0
149
0.0
100
AcDbLayout
  1
Model
 70
     1
 71
     0
 10
0.0
 20
0.0
 11
12.0
 21
9.0
 12
0.0
 22
0.0
 32
0.0
 14
1.000000000000000E+20
 24
1.000000000000000E+20
 34
1.000000000000000E+20
 15
-1.000000000000000E+20
 25
-1.000000000000000E+20
 35
-1.000000000000000E+20
146
0.0
 13
0.0
 23
0.0
 33
0.0
 16
1.0
 26
0.0
 36
0.0
 17
0.0
 27
1.0
 37
0.0
 76
     0
330
1F
331
29
  0
MATERIAL
  5
3D
102
{ACAD_REACTORS
330
3B
102
}
330
3B
100
AcDbMaterial
  1
ByBlock
 72
     1
 94
      127
  0
MATERIAL
  5
3C
102
{ACAD_REACTORS
330
3B
102
}
330
3B
100
AcDbMaterial
  1
ByLayer
 72
     1
 94
      127
  0
MATERIAL
  5
3E
102
{ACAD_REACTORS
330
3B
102
}
330
3B
100
AcDbMaterial
  1
Global
 72
     1
 94
      127
  0
MLINESTYLE
  5
18
102
{ACAD_REACTORS
330
17
102
}
330
17
100
AcDbMlineStyle
  2
Standard
 70
     0
  3

 62
   256
 51
90.0
 52
90.0
 71
     2
 49
0.5
 62
   256
  6
BYLAYER
 49
-0.5
 62
   256
  6
BYLAYER
  0
ACDBPLACEHOLDER
  5
F
102
{ACAD_REACTORS
330
E
102
}
330
E
  0
VISUALSTYLE
  5
2F
102
{ACAD_REACTORS
330
2A
102
}
330
2A
100
AcDbVisualStyle
  2
2dWireframe
 70
     4
177
     2
291
     0
 71
     0
176
     1
 72
     2
176
     1
 73
     0
176
     1
 90
        0
176
     1
 40
-0.6
176
     1
 41
-30.0
176
     1
 62
     5
 63
     7
421
 16777215
176
     1
 74
     1
176
     1
 91
        4
176
     1
 64
     7
176
     1
 65
   257
176
     1
 75
     1
176
     1
175
     1
176
     1
 42
1.0
176
     1
 92
        0
176
     1
 66
   257
176
     1
 43
1.0
176
     1
 76
     1
176
     1
 77
     6
176
     1
 78
     2
176
     1
 67
     7
176
     1
 79
     5
176
     1
170
     0
176
     1
171
     0
176
     1
290
     0
176
     1
 93
        1
176
     1
 44
0.0
176
     1
173
     0
176
     1
  0
VISUALSTYLE
  5
31
102
{ACAD_REACTORS
330
2A
102
}
330
2A
100
AcDbVisualStyle
  2
3D Hidden
 70
     6
177
     2
291
     0
 71
     1
176
     1
 72
     2
176
     1
 73
     2
176
     1
 90
        0
176
     1
 40
-0.6
176
     1
 41
-30.0
176
     1
 62
     5
 63
     7
421
 16777215
176
     1
 74
     2
176
     1
 91
        2
176
     1
 64
     7
176
     1
 65
   257
176
     1
 75
     2
176
     1
175
     1
176
     1
 42
40.0
176
     1
 92
        0
176
     1
 66
   257
176
     1
 43
1.0
176
     1
 76
     1
176
     1
 77
     6
176
     1
 78
     2
176
     1
 67
     7
176
     1
 79
     3
176
     1
170
     0
176
     1
171
     0
176
     1
290
     0
176
     1
 93
        1
176
     1
 44
0.0
176
     1
173
     0
176
     1
  0
VISUALSTYLE
  5
30
102
{ACAD_REACTORS
330
2A
102
}
330
2A
100
AcDbVisualStyle
  2
3dWireframe
 70
     5
177
     2
291
     0
 71
     0
176
     1
 72
     2
176
     1
 73
     0
176
     1
 90
        0
176
     1
 40
-0.6
176
     1
 41
-30.0
176
     1
 62
     5
 63
     7
421
 16777215
176
     1
 74
     1
176
     1
 91
        4
176
     1
 64
     7
176
     1
 65
   257
176
     1
 75
     1
176
     1
175
     1
176
     1
 42
1.0
176
     1
 92
        0
176
     1
 66
   257
176
     1
 43
1.0
176
     1
 76
     1
176
     1
 77
     6
176
     1
 78
     2
176
     1
 67
     7
176
     1
 79
     5
176
     1
170
     0
176
     1
171
     0
176
     1
290
     0
176
     1
 93
        1
176
     1
 44
0.0
176
     1
173
     0
176
     1
  0
VISUALSTYLE
  5
32
102
{ACAD_REACTORS
330
2A
102
}
330
2A
100
AcDbVisualStyle
  2
Basic
 70
     7
177
     2
291
     1
 71
     1
176
     1
 72
     0
176
     1
 73
     1
176
     1
 90
        0
176
     1
 40
-0.6
176
     1
 41
-30.0
176
     1
 62
     5
 63
     7
421
 16777215
176
     1
 74
     0
176
     1
 91
        4
176
     1
 64
     7
176
     1
 65
   257
176
     1
 75
     1
176
     1
175
     1
176
     1
 42
1.0
176
     1
 92
        8
176
     1
 66
     7
176
     1
 43
1.0
176
     1
 76
     1
176
     1
 77
     6
176
     1
 78
     2
176
     1
 67
     7
176
     1
 79
     5
176
     1
170
     0
176
     1
171
     0
176
     1
290
     0
176
     1
 93
        1
176
     1
 44
0.0
176
     1
173
     0
176
     1
  0
VISUALSTYLE
  5
36
102
{ACAD_REACTORS
330
2A
102
}
330
2A
100
AcDbVisualStyle
  2
Brighten
 70
    12
177
     2
291
     1
 71
     2
176
     1
 72
     2
176
     1
 73
     0
176
     1
 90
        0
176
     1
 40
-0.6
176
     1
 41
-30.0
176
     1
 62
     5
 63
     7
421
 16777215
176
     1
 74
     1
176
     1
 91
        4
176
     1
 64
     7
176
     1
 65
   257
176
     1
 75
     1
176
     1
175
     1
176
     1
 42
1.0
176
     1
 92
        8
176
     1
 66
     7
176
     1
 43
1.0
176
     1
 76
     1
176
     1
 77
     6
176
     1
 78
     2
176
     1
 67
     7
176
     1
 79
     5
176
     1
170
     0
176
     1
171
     0
176
     1
290
     0
176
     1
 93
        1
176
     1
 44
50.0
176
     1
173
     0
176
     1
  0
VISUALSTYLE
  5
3A
102
{ACAD_REACTORS
330
2A
102
}
330
2A
100
AcDbVisualStyle
  2
ColorChange
 70
    16
177
     2
291
     1
 71
     2
176
     1
 72
     2
176
     1
 73
     3
176
     1
 90
        0
176
     1
 40
-0.6
176
     1
 41
-30.0
176
     1
 62
     5
 63
     8
421
  8421504
176
     1
 74
     1
176
     1
 91
        4
176
     1
 64
     7
176
     1
 65
   257
176
     1
 75
     1
176
     1
175
     1
176
     1
 42
1.0
176
     1
 92
        8
176
     1
 66
     8
424
  8421504
176
     1
 43
1.0
176
     1
 76
     1
176
     1
 77
     6
176
     1
 78
     2
176
     1
 67
     7
176
     1
 79
     5
176
     1
170
     0
176
     1
171
     0
176
     1
290
     0
176
     1
 93
        1
176
     1
 44
0.0
176
     1
173
     0
176
     1
  0
VISUALSTYLE
  5
34
102
{ACAD_REACTORS
330
2A
102
}
330
2A
100
AcDbVisualStyle
  2
Conceptual
 70
     9
177
     2
291
     0
 71
     3
176
     1
 72
     2
176
     1
 73
     0
176
     1
 90
        0
176
     1
 40
-0.6
176
     1
 41
-30.0
176
     1
 62
     5
 63
     7
421
 16777215
176
     1
 74
     2
176
     1
 91
        2
176
     1
 64
     7
176
     1
 65
   257
176
     1
 75
     1
176
     1
175
     1
176
     1
 42
40.0
176
     1
 92
        8
176
     1
 66
     7
176
     1
 43
1.0
176
     1
 76
     1
176
     1
 77
     6
176
     1
 78
     2
176
     1
 67
     7
176
     1
 79
     3
176
     1
170
     0
176
     1
171
     0
176
     1
290
     0
176
     1
 93
        1
176
     1
 44
0.0
176
     1
173
     0
176
     1
  0
VISUALSTYLE
  5
35
102
{ACAD_REACTORS
330
2A
102
}
330
2A
100
AcDbVisualStyle
  2
Dim
 70
    11
177
     2
291
     1
 71
     2
176
     1
 72
     2
176
     1
 73
     0
176
     1
 90
        0
176
     1
 40
-0.6
176
     1
 41
-30.0
176
     1
 62
     5
 63
     7
421
 16777215
176
     1
 74
     1
176
     1
 91
        4
176
     1
 64
     7
176
     1
 65
   257
176
     1
 75
     1
176
     1
175
     1
176
     1
 42
1.0
176
     1
 92
        8
176
     1
 66
     7
176
     1
 43
1.0
176
     1
 76
     1
176
     1
 77
     6
176
     1
 78
     2
176
     1
 67
     7
176
     1
 79
     5
176
     1
170
     0
176
     1
171
     0
176
     1
290
     0
176
     1
 93
        1
176
     1
 44
-50.0
176
     1
173
     0
176
     1
  0
VISUALSTYLE
  5
39
102
{ACAD_REACTORS
330
2A
102
}
330
2A
100
AcDbVisualStyle
  2
Facepattern
 70
    15
177
     2
291
     1
 71
     2
176
     1
 72
     2
176
     1
 73
     0
176
     1
 90
        0
176
     1
 40
-0.6
176
     1
 41
-30.0
176
     1
 62
     5
 63
     7
421
 16777215
176
     1
 74
     1
176
     1
 91
        4
176
     1
 64
     7
176
     1
 65
   257
176
     1
 75
     1
176
     1
175
     1
176
     1
 42
1.0
176
     1
 92
        8
176
     1
 66
     7
176
     1
 43
1.0
176
     1
 76
     1
176
     1
 77
     6
176
     1
 78
     2
176
     1
 67
     7
176
     1
 79
     5
176
     1
170
     0
176
     1
171
     0
176
     1
290
     0
176
     1
 93
        1
176
     1
 44
0.0
176
     1
173
     0
176
     1
  0
VISUALSTYLE
  5
2B
102
{ACAD_REACTORS
330
2A
102
}
330
2A
100
AcDbVisualStyle
  2
Flat
 70
     0
177
     2
291
     1
 71
     2
176
     1
 72
     1
176
     1
 73
     1
176
     1
 90
        2
176
     1
 40
-0.6
176
     1
 41
30.0
176
     1
 62
     5
 63
     7
421
 16777215
176
     1
 74
     0
176
     1
 91
        4
176
     1
 64
     7
176
     1
 65
   257
176
     1
 75
     1
176
     1
175
     1
176
     1
 42
1.0
176
     1
 92
        8
176
     1
 66
     7
176
     1
 43
1.0
176
     1
 76
     1
176
     1
 77
     6
176
     1
 78
     2
176
     1
 67
     7
176
     1
 79
     5
176
     1
170
     0
176
     1
171
     0
176
     1
290
     0
176
     1
 93
       13
176
     1
 44
0.0
176
     1
173
     0
176
     1
  0
VISUALSTYLE
  5
2C
102
{ACAD_REACTORS
330
2A
102
}
330
2A
100
AcDbVisualStyle
  2
FlatWithEdges
 70
     1
177
     2
291
     1
 71
     2
176
     1
 72
     1
176
     1
 73
     1
176
     1
 90
        2
176
     1
 40
-0.6
176
     1
 41
30.0
176
     1
 62
     5
 63
     7
421
 16777215
176
     1
 74
     1
176
     1
 91
        4
176
     1
 64
     7
176
     1
 65
   257
176
     1
 75
     1
176
     1
175
     1
176
     1
 42
1.0
176
     1
 92
        0
176
     1
 66
   257
176
     1
 43
1.0
176
     1
 76
     1
176
     1
 77
     6
176
     1
 78
     2
176
     1
 67
     7
176
     1
 79
     5
176
     1
170
     0
176
     1
171
     0
176
     1
290
     0
176
     1
 93
       13
176
     1
 44
0.0
176
     1
173
     0
176
     1
  0
VISUALSTYLE
  5
2D
102
{ACAD_REACTORS
330
2A
102
}
330
2A
100
AcDbVisualStyle
  2
Gouraud
 70
     2
177
     2
291
     1
 71
     2
176
     1
 72
     2
176
     1
 73
     1
176
     1
 90
        2
176
     1
 40
-0.6
176
     1
 41
30.0
176
     1
 62
     5
 63
     7
421
 16777215
176
     1
 74
     0
176
     1
 91
        4
176
     1
 64
     7
176
     1
 65
   257
176
     1
 75
     1
176
     1
175
     1
176
     1
 42
1.0
176
     1
 92
        0
176
     1
 66
     7
176
     1
 43
1.0
176
     1
 76
     1
176
     1
 77
     6
176
     1
 78
     2
176
     1
 67
     7
176
     1
 79
     5
176
     1
170
     0
176
     1
171
     0
176
     1
290
     0
176
     1
 93
       13
176
     1
 44
0.0
176
     1
173
     0
176
     1
  0
VISUALSTYLE
  5
2E
102
{ACAD_REACTORS
330
2A
102
}
330
2A
100
AcDbVisualStyle
  2
GouraudWithEdges
 70
     3
177
     2
291
     1
 71
     2
176
     1
 72
     2
176
     1
 73
     1
176
     1
 90
        2
176
     1
 40
-0.6
176
     1
 41
30.0
176
     1
 62
     5
 63
     7
421
 16777215
176
     1
 74
     1
176
     1
 91
        4
176
     1
 64
     7
176
     1
 65
   257
176
     1
 75
     1
176
     1
175
     1
176
     1
 42
1.0
176
     1
 92
        0
176
     1
 66
   257
176
     1
 43
1.0
176
     1
 76
     1
176
     1
 77
     6
176
     1
 78
     2
176
     1
 67
     7
176
     1
 79
     5
176
     1
170
     0
176
     1
171
     0
176
     1
290
     0
176
     1
 93
       13
176
     1
 44
0.0
176
     1
173
     0
176
     1
  0
VISUALSTYLE
  5
38
102
{ACAD_REACTORS
330
2A
102
}
330
2A
100
AcDbVisualStyle
  2
Linepattern
 70
    14
177
     2
291
     1
 71
     2
176
     1
 72
     2
176
     1
 73
     0
176
     1
 90
        0
176
     1
 40
-0.6
176
     1
 41
-30.0
176
     1
 62
     5
 63
     7
421
 16777215
176
     1
 74
     1
176
     1
 91
        4
176
     1
 64
     7
176
     1
 65
   257
176
     1
 75
     7
176
     1
175
     7
176
     1
 42
1.0
176
     1
 92
        8
176
     1
 66
     7
176
     1
 43
1.0
176
     1
 76
     1
176
     1
 77
     6
176
     1
 78
     2
176
     1
 67
     7
176
     1
 79
     5
176
     1
170
     0
176
     1
171
     0
176
     1
290
     0
176
     1
 93
        1
176
     1
 44
0.0
176
     1
173
     0
176
     1
  0
VISUALSTYLE
  5
33
102
{ACAD_REACTORS
330
2A
102
}
330
2A
100
AcDbVisualStyle
  2
Realistic
 70
     8
177
     2
291
     0
 71
     2
176
     1
 72
     2
176
     1
 73
     0
176
     1
 90
        0
176
     1
 40
-0.6
176
     1
 41
-30.0
176
     1
 62
     5
 63
     7
421
 16777215
176
     1
 74
     1
176
     1
 91
        0
176
     1
 64
     7
176
     1
 65
   257
176
     1
 75
     1
176
     1
175
     1
176
     1
 42
1.0
176
     1
 92
        8
176
     1
 66
     8
424
  7895160
176
     1
 43
1.0
176
     1
 76
     1
176
     1
 77
     6
176
     1
 78
     2
176
     1
 67
     7
176
     1
 79
     5
176
     1
170
     0
176
     1
171
     0
176
     1
290
     0
176
     1
 93
       13
176
     1
 44
0.0
176
     1
173
     0
176
     1
  0
VISUALSTYLE
  5
37
102
{ACAD_REACTORS
330
2A
102
}
330
2A
100
AcDbVisualStyle
  2
Thicken
 70
    13
177
     2
291
     1
 71
     2
176
     1
 72
     2
176
     1
 73
     0
176
     1
 90
        0
176
     1
 40
-0.6
176
     1
 41
-30.0
176
     1
 62
     5
 63
     7
421
 16777215
176
     1
 74
     1
176
     1
 91
        4
176
     1
 64
     7
176
     1
 65
   257
176
     1
 75
     1
176
     1
175
     1
176
     1
 42
1.0
176
     1
 92
       12
176
     1
 66
     7
176
     1
 43
1.0
176
     1
 76
     1
176
     1
 77
     6
176
     1
 78
     2
176
     1
 67
     7
176
     1
 79
     5
176
     1
170
     0
176
     1
171
     0
176
     1
290
     0
176
     1
 93
        1
176
     1
 44
0.0
176
     1
173
     0
176
     1
  0
ENDSEC
  0
EOF
