  0
SECTION
  2
HEADER
  9
$ACADVER
  1
AC1024
  9
$ACADMAINTVER
 70
     6
  9
$DWGCODEPAGE
  3
ANSI_1251
  9
$INSBASE
 10
0.0
 20
0.0
 30
0.0
  9
$EXTMIN
 10
1.000000000000000E+20
 20
1.000000000000000E+20
 30
1.000000000000000E+20
  9
$EXTMAX
 10
-1.000000000000000E+20
 20
-1.000000000000000E+20
 30
-1.000000000000000E+20
  9
$LIMMIN
 10
0.0
 20
0.0
  9
$LIMMAX
 10
12.0
 20
9.0
  9
$ORTHOMODE
 70
     0
  9
$REGENMODE
 70
     1
  9
$FILLMODE
 70
     1
  9
$QTEXTMODE
 70
     0
  9
$MIRRTEXT
 70
     1
  9
$LTSCALE
 40
1.0
  9
$ATTMODE
 70
     1
  9
$TEXTSIZE
 40
0.2
  9
$TRACEWID
 40
0.05
  9
$TEXTSTYLE
  7
Standard
  9
$CLAYER
  8
0
  9
$CELTYPE
  6
ByLayer
  9
$CECOLOR
 62
   256
  9
$CELTSCALE
 40
1.0
  9
$DISPSILH
 70
     0
  9
$DIMSCALE
 40
1.0
  9
$DIMASZ
 40
0.18
  9
$DIMEXO
 40
0.0625
  9
$DIMDLI
 40
0.38
  9
$DIMRND
 40
0.0
  9
$DIMDLE
 40
0.0
  9
$DIMEXE
 40
0.18
  9
$DIMTP
 40
0.0
  9
$DIMTM
 40
0.0
  9
$DIMTXT
 40
0.18
  9
$DIMCEN
 40
0.09
  9
$DIMTSZ
 40
0.0
  9
$DIMTOL
 70
     0
  9
$DIMLIM
 70
     0
  9
$DIMTIH
 70
     1
  9
$DIMTOH
 70
     1
  9
$DIMSE1
 70
     0
  9
$DIMSE2
 70
     0
  9
$DIMTAD
 70
     0
  9
$DIMZIN
 70
     0
  9
$DIMBLK
  1

  9
$DIMASO
 70
     1
  9
$DIMSHO
 70
     1
  9
$DIMPOST
  1

  9
$DIMAPOST
  1

  9
$DIMALT
 70
     0
  9
$DIMALTD
 70
     2
  9
$DIMALTF
 40
25.4
  9
$DIMLFAC
 40
1.0
  9
$DIMTOFL
 70
     0
  9
$DIMTVP
 40
0.0
  9
$DIMTIX
 70
     0
  9
$DIMSOXD
 70
     0
  9
$DIMSAH
 70
     0
  9
$DIMBLK1
  1

  9
$DIMBLK2
  1

  9
$DIMSTYLE
  2
Standard
  9
$DIMCLRD
 70
     0
  9
$DIMCLRE
 70
     0
  9
$DIMCLRT
 70
     0
  9
$DIMTFAC
 40
1.0
  9
$DIMGAP
 40
0.09
  9
$DIMJUST
 70
     0
  9
$DIMSD1
 70
     0
  9
$DIMSD2
 70
     0
  9
$DIMTOLJ
 70
     1
  9
$DIMTZIN
 70
     0
  9
$DIMALTZ
 70
     0
  9
$DIMALTTZ
 70
     0
  9
$DIMUPT
 70
     0
  9
$DIMDEC
 70
     4
  9
$DIMTDEC
 70
     4
  9
$DIMALTU
 70
     2
  9
$DIMALTTD
 70
     2
  9
$DIMTXSTY
  7
Standard
  9
$DIMAUNIT
 70
     0
  9
$DIMADEC
 70
     0
  9
$DIMALTRND
 40
0.0
  9
$DIMAZIN
 70
     0
  9
$DIMDSEP
 70
    46
  9
$DIMATFIT
 70
     3
  9
$DIMFRAC
 70
     0
  9
$DIMLDRBLK
  1

  9
$DIMLUNIT
 70
     2
  9
$DIMLWD
 70
    -2
  9
$DIMLWE
 70
    -2
  9
$DIMTMOVE
 70
     0
  9
$DIMFXL
 40
1.0
  9
$DIMFXLON
 70
     0
  9
$DIMJOGANG
 40
0.7853981633974483
  9
$DIMTFILL
 70
     0
  9
$DIMTFILLCLR
 70
     0
  9
$DIMARCSYM
 70
     0
  9
$DIMLTYPE
  6

  9
$DIMLTEX1
  6

  9
$DIMLTEX2
  6

  9
$DIMTXTDIRECTION
 70
     0
  9
$LUNITS
 70
     2
  9
$LUPREC
 70
     4
  9
$SKETCHINC
 40
0.1
  9
$FILLETRAD
 40
0.5
  9
$AUNITS
 70
     0
  9
$AUPREC
 70
     0
  9
$MENU
  1
.
  9
$ELEVATION
 40
0.0
  9
$PELEVATION
 40
0.0
  9
$THICKNESS
 40
0.0
  9
$LIMCHECK
 70
     0
  9
$CHAMFERA
 40
0.5
  9
$CHAMFERB
 40
0.5
  9
$CHAMFERC
 40
1.0
  9
$CHAMFERD
 40
0.0
  9
$SKPOLY
 70
     0
  9
$TDCREATE
 40
2459337.676264375
  9
$TDUCREATE
 40
2459337.551264375
  9
$TDUPDATE
 40
2459337.676264549
  9
$TDUUPDATE
 40
2459337.551264549
  9
$TDINDWG
 40
0.0000000116
  9
$TDUSRTIMER
 40
0.0000000116
  9
$USRTIMER
 70
     1
  9
$ANGBASE
 50
0.0
  9
$ANGDIR
 70
     0
  9
$PDMODE
 70
     0
  9
$PDSIZE
 40
0.0
  9
$PLINEWID
 40
0.0
  9
$SPLFRAME
 70
     0
  9
$SPLINETYPE
 70
     6
  9
$SPLINESEGS
 70
     8
  9
$HANDSEED
  5
47
  9
$SURFTAB1
 70
     6
  9
$SURFTAB2
 70
     6
  9
$SURFTYPE
 70
     6
  9
$SURFU
 70
     6
  9
$SURFV
 70
     6
  9
$UCSBASE
  2

  9
$UCSNAME
  2

  9
$UCSORG
 10
0.0
 20
0.0
 30
0.0
  9
$UCSXDIR
 10
1.0
 20
0.0
 30
0.0
  9
$UCSYDIR
 10
0.0
 20
1.0
 30
0.0
  9
$UCSORTHOREF
  2

  9
$UCSORTHOVIEW
 70
     0
  9
$UCSORGTOP
 10
0.0
 20
0.0
 30
0.0
  9
$UCSORGBOTTOM
 10
0.0
 20
0.0
 30
0.0
  9
$UCSORGLEFT
 10
0.0
 20
0.0
 30
0.0
  9
$UCSORGRIGHT
 10
0.0
 20
0.0
 30
0.0
  9
$UCSORGFRONT
 10
0.0
 20
0.0
 30
0.0
  9
$UCSORGBACK
 10
0.0
 20
0.0
 30
0.0
  9
$PUCSBASE
  2

  9
$PUCSNAME
  2

  9
$PUCSORG
 10
0.0
 20
0.0
 30
0.0
  9
$PUCSXDIR
 10
1.0
 20
0.0
 30
0.0
  9
$PUCSYDIR
 10
0.0
 20
1.0
 30
0.0
  9
$PUCSORTHOREF
  2

  9
$PUCSORTHOVIEW
 70
     0
  9
$PUCSORGTOP
 10
0.0
 20
0.0
 30
0.0
  9
$PUCSORGBOTTOM
 10
0.0
 20
0.0
 30
0.0
  9
$PUCSORGLEFT
 10
0.0
 20
0.0
 30
0.0
  9
$PUCSORGRIGHT
 10
0.0
 20
0.0
 30
0.0
  9
$PUCSORGFRONT
 10
0.0
 20
0.0
 30
0.0
  9
$PUCSORGBACK
 10
0.0
 20
0.0
 30
0.0
  9
$USERI1
 70
     0
  9
$USERI2
 70
     0
  9
$USERI3
 70
     0
  9
$USERI4
 70
     0
  9
$USERI5
 70
     0
  9
$USERR1
 40
0.0
  9
$USERR2
 40
0.0
  9
$USERR3
 40
0.0
  9
$USERR4
 40
0.0
  9
$USERR5
 40
0.0
  9
$WORLDVIEW
 70
     1
  9
$SHADEDGE
 70
     3
  9
$SHADEDIF
 70
    70
  9
$TILEMODE
 70
     1
  9
$MAXACTVP
 70
    64
  9
$PINSBASE
 10
0.0
 20
0.0
 30
0.0
  9
$PLIMCHECK
 70
     0
  9
$PEXTMIN
 10
1.000000000000000E+20
 20
1.000000000000000E+20
 30
1.000000000000000E+20
  9
$PEXTMAX
 10
-1.000000000000000E+20
 20
-1.000000000000000E+20
 30
-1.000000000000000E+20
  9
$PLIMMIN
 10
0.0
 20
0.0
  9
$PLIMMAX
 10
12.0
 20
9.0
  9
$UNITMODE
 70
     0
  9
$VISRETAIN
 70
     1
  9
$PLINEGEN
 70
     0
  9
$PSLTSCALE
 70
     1
  9
$TREEDEPTH
 70
  3020
  9
$CMLSTYLE
  2
Standard
  9
$CMLJUST
 70
     0
  9
$CMLSCALE
 40
1.0
  9
$PROXYGRAPHICS
 70
     1
  9
$MEASUREMENT
 70
     0
  9
$CELWEIGHT
370
    -1
  9
$ENDCAPS
280
     0
  9
$JOINSTYLE
280
     0
  9
$LWDISPLAY
290
     1
  9
$INSUNITS
 70
     1
  9
$HYPERLINKBASE
  1

  9
$STYLESHEET
  1

  9
$XEDIT
290
     1
  9
$CEPSNTYPE
380
     0
  9
$PSTYLEMODE
290
     1
  9
$FINGERPRINTGUID
  2
{4DCE0184-37AA-403E-8123-170012ACDDA7}
  9
$VERSIONGUID
  2
{FAEB1C32-E019-11D5-929B-00C0DF256EC4}
  9
$EXTNAMES
290
     1
  9
$PSVPSCALE
 40
0.0
  9
$OLESTARTUP
290
     0
  9
$SORTENTS
280
   127
  9
$INDEXCTL
280
     0
  9
$HIDETEXT
280
     1
  9
$XCLIPFRAME
280
     2
  9
$HALOGAP
280
     0
  9
$OBSCOLOR
 70
   257
  9
$OBSLTYPE
280
     0
  9
$INTERSECTIONDISPLAY
280
     0
  9
$INTERSECTIONCOLOR
 70
   257
  9
$DIMASSOC
280
     2
  9
$PROJECTNAME
  1

  9
$CAMERADISPLAY
290
     0
  9
$LENSLENGTH
 40
50.0
  9
$CAMERAHEIGHT
 40
0.0
  9
$STEPSPERSEC
 40
2.0
  9
$STEPSIZE
 40
6.0
  9
$3DDWFPREC
 40
2.0
  9
$PSOLWIDTH
 40
0.25
  9
$PSOLHEIGHT
 40
4.0
  9
$LOFTANG1
 40
1.570796326794897
  9
$LOFTANG2
 40
1.570796326794897
  9
$LOFTMAG1
 40
0.0
  9
$LOFTMAG2
 40
0.0
  9
$LOFTPARAM
 70
     7
  9
$LOFTNORMALS
280
     1
  9
$LATITUDE
 40
37.795
  9
$LONGITUDE
 40
-122.394
  9
$NORTHDIRECTION
 40
0.0
  9
$TIMEZONE
 70
 -8000
  9
$LIGHTGLYPHDISPLAY
280
     1
  9
$TILEMODELIGHTSYNCH
280
     1
  9
$CMATERIAL
347
3C
  9
$SOLIDHIST
280
     1
  9
$SHOWHIST
280
     1
  9
$DWFFRAME
280
     2
  9
$DGNFRAME
280
     2
  9
$REALWORLDSCALE
290
     1
  9
$INTERFERECOLOR
 62
   256
  9
$CSHADOW
280
     0
  9
$SHADOWPLANELOCATION
 40
0.0
  0
ENDSEC
  0
SECTION
  2
CLASSES
  0
CLASS
  1
ACDBDICTIONARYWDFLT
  2
AcDbDictionaryWithDefault
  3
ObjectDBX Classes
 90
        0
 91
        4
280
     0
281
     0
  0
CLASS
  1
VISUALSTYLE
  2
AcDbVisualStyle
  3
ObjectDBX Classes
 90
     4095
 91
        4
280
     0
281
     0
  0
CLASS
  1
MATERIAL
  2
AcDbMaterial
  3
ObjectDBX Classes
 90
     1153
 91
        4
280
     0
281
     0
  0
CLASS
  1
SUN
  2
AcDbSun
  3
SCENEOE
 90
     1024
 91
        4
280
     0
281
     0
  0
ENDSEC
  0
SECTION
  2
TABLES
  0
TABLE
  2
VPORT
  5
8
330
0
100
AcDbSymbolTable
 70
     1
  0
VPORT
  5
29
330
8
100
AcDbSymbolTableRecord
100
AcDbViewportTableRecord
  2
*Active
 70
     0
 10
0.0
 20
0.0
 11
1.0
 21
1.0
 12
0.0
 22
0.0
 13
0.0
 23
0.0
 14
0.5
 24
0.5
 15
0.5
 25
0.5
 16
0.0
 26
0.0
 36
1.0
 17
18.1524763888889
 27
-55.46132839033976
 37
0.0
 40
6.482626225123973
 41
1.851101634318044
 42
50.0
 43
0.0
 44
0.0
 50
0.0
 51
0.0
 71
     0
 72
   100
 73
     1
 74
     3
 75
     0
 76
     0
 77
     0
 78
     0
281
     0
 65
     1
110
0.0
120
0.0
130
0.0
111
1.0
121
0.0
131
0.0
112
0.0
122
1.0
132
0.0
 79
     0
146
0.0
 60
     3
 61
     5
292
     1
282
     1
141
0.0
142
0.0
 63
   250
361
3F
  0
ENDTAB
  0
TABLE
  2
LTYPE
  5
5
330
0
100
AcDbSymbolTable
 70
     1
  0
LTYPE
  5
14
330
5
100
AcDbSymbolTableRecord
100
AcDbLinetypeTableRecord
  2
ByBlock
 70
     0
  3

 72
    65
 73
     0
 40
0.0
  0
LTYPE
  5
15
330
5
100
AcDbSymbolTableRecord
100
AcDbLinetypeTableRecord
  2
ByLayer
 70
     0
  3

 72
    65
 73
     0
 40
0.0
  0
LTYPE
  5
16
330
5
100
AcDbSymbolTableRecord
100
AcDbLinetypeTableRecord
  2
Continuous
 70
     0
  3
Solid line
 72
    65
 73
     0
 40
0.0
  0
ENDTAB
  0
TABLE
  2
LAYER
  5
2
330
0
100
AcDbSymbolTable
 70
     2
  0
LAYER
  5
10
330
2
100
AcDbSymbolTableRecord
100
AcDbLayerTableRecord
  2
0
 70
     0
 62
     7
  6
Continuous
370
    -3
390
F
347
3E
  0
LAYER
  5
40
330
2
100
AcDbSymbolTableRecord
100
AcDbLayerTableRecord
  2
Layer 1
 70
     0
 62
     7
  6
Continuous
370
    -3
390
F
347
3E
  0
ENDTAB
  0
TABLE
  2
STYLE
  5
3
330
0
100
AcDbSymbolTable
 70
     1
  0
STYLE
  5
11
330
3
100
AcDbSymbolTableRecord
100
AcDbTextStyleTableRecord
  2
Standard
 70
     0
 40
0.0
 41
1.0
 50
0.0
 71
     0
 42
0.2
  3
txt
  4

  0
ENDTAB
  0
TABLE
  2
VIEW
  5
6
330
0
100
AcDbSymbolTable
 70
     0
  0
ENDTAB
  0
TABLE
  2
UCS
  5
7
330
0
100
AcDbSymbolTable
 70
     0
  0
ENDTAB
  0
TABLE
  2
APPID
  5
9
330
0
100
AcDbSymbolTable
 70
     1
  0
APPID
  5
12
330
9
100
AcDbSymbolTableRecord
100
AcDbRegAppTableRecord
  2
ACAD
 70
     0
  0
ENDTAB
  0
TABLE
  2
DIMSTYLE
  5
A
330
0
100
AcDbSymbolTable
 70
     1
100
AcDbDimStyleTable
  0
DIMSTYLE
105
27
330
A
100
AcDbSymbolTableRecord
100
AcDbDimStyleTableRecord
  2
Standard
 70
     0
178
     0
340
11
  0
ENDTAB
  0
TABLE
  2
BLOCK_RECORD
  5
1
330
0
100
AcDbSymbolTable
 70
     1
  0
BLOCK_RECORD
  5
1F
330
1
100
AcDbSymbolTableRecord
100
AcDbBlockTableRecord
  2
*Model_Space
340
22
 70
     0
280
     1
281
     0
  0
BLOCK_RECORD
  5
1B
330
1
100
AcDbSymbolTableRecord
100
AcDbBlockTableRecord
  2
*Paper_Space
340
1E
 70
     0
280
     1
281
     0
  0
BLOCK_RECORD
  5
23
330
1
100
AcDbSymbolTableRecord
100
AcDbBlockTableRecord
  2
*Paper_Space0
340
26
 70
     0
280
     1
281
     0
  0
ENDTAB
  0
ENDSEC
  0
SECTION
  2
BLOCKS
  0
BLOCK
  5
20
330
1F
100
AcDbEntity
  8
0
100
AcDbBlockBegin
  2
*Model_Space
 70
     0
 10
0.0
 20
0.0
 30
0.0
  3
*Model_Space
  1

  0
ENDBLK
  5
21
330
1F
100
AcDbEntity
  8
0
100
AcDbBlockEnd
  0
BLOCK
  5
1C
330
1B
100
AcDbEntity
 67
     1
  8
0
100
AcDbBlockBegin
  2
*Paper_Space
 70
     0
 10
0.0
 20
0.0
 30
0.0
  3
*Paper_Space
  1

  0
ENDBLK
  5
1D
330
1B
100
AcDbEntity
 67
     1
  8
0
100
AcDbBlockEnd
  0
BLOCK
  5
24
330
23
100
AcDbEntity
  8
0
100
AcDbBlockBegin
  2
*Paper_Space0
 70
     0
 10
0.0
 20
0.0
 30
0.0
  3
*Paper_Space0
  1

  0
ENDBLK
  5
25
330
23
100
AcDbEntity
  8
0
100
AcDbBlockEnd
  0
ENDSEC
  0
SECTION
  2
ENTITIES
  0
SPLINE
  5
41
330
1F
100
AcDbEntity
  8
Layer 1
370
     0
100
AcDbSpline
210
0.0
220
0.0
230
1.0
 70
    11
 71
     3
 72
   227
 73
   223
 74
     0
 42
0.0000000001
 43
0.0000000001
 12
1.0
 22
0.0
 32
0.0
 13
1.0
 23
0.0
 33
0.0
 40
0.0
 40
0.0
 40
0.0
 40
0.0
 40
1.0
 40
1.0
 40
1.0
 40
2.0
 40
2.0
 40
2.0
 40
3.0
 40
3.0
 40
3.0
 40
4.0
 40
4.0
 40
4.0
 40
5.0
 40
5.0
 40
5.0
 40
6.0
 40
6.0
 40
6.0
 40
7.0
 40
7.0
 40
7.0
 40
8.0
 40
8.0
 40
8.0
 40
9.0
 40
9.0
 40
9.0
 40
10.0
 40
10.0
 40
10.0
 40
11.0
 40
11.0
 40
11.0
 40
12.0
 40
12.0
 40
12.0
 40
13.0
 40
13.0
 40
13.0
 40
14.0
 40
14.0
 40
14.0
 40
15.0
 40
15.0
 40
15.0
 40
16.0
 40
16.0
 40
16.0
 40
17.0
 40
17.0
 40
17.0
 40
18.0
 40
18.0
 40
18.0
 40
19.0
 40
19.0
 40
19.0
 40
20.0
 40
20.0
 40
20.0
 40
21.0
 40
21.0
 40
21.0
 40
22.0
 40
22.0
 40
22.0
 40
23.0
 40
23.0
 40
23.0
 40
24.0
 40
24.0
 40
24.0
 40
25.0
 40
25.0
 40
25.0
 40
26.0
 40
26.0
 40
26.0
 40
27.0
 40
27.0
 40
27.0
 40
28.0
 40
28.0
 40
28.0
 40
29.0
 40
29.0
 40
29.0
 40
30.0
 40
30.0
 40
30.0
 40
31.0
 40
31.0
 40
31.0
 40
32.0
 40
32.0
 40
32.0
 40
33.0
 40
33.0
 40
33.0
 40
34.0
 40
34.0
 40
34.0
 40
35.0
 40
35.0
 40
35.0
 40
36.0
 40
36.0
 40
36.0
 40
37.0
 40
37.0
 40
37.0
 40
38.0
 40
38.0
 40
38.0
 40
39.0
 40
39.0
 40
39.0
 40
40.0
 40
40.0
 40
40.0
 40
41.0
 40
41.0
 40
41.0
 40
42.0
 40
42.0
 40
42.0
 40
43.0
 40
43.0
 40
43.0
 40
44.0
 40
44.0
 40
44.0
 40
45.0
 40
45.0
 40
45.0
 40
46.0
 40
46.0
 40
46.0
 40
47.0
 40
47.0
 40
47.0
 40
48.0
 40
48.0
 40
48.0
 40
49.0
 40
49.0
 40
49.0
 40
50.0
 40
50.0
 40
50.0
 40
51.0
 40
51.0
 40
51.0
 40
52.0
 40
52.0
 40
52.0
 40
53.0
 40
53.0
 40
53.0
 40
54.0
 40
54.0
 40
54.0
 40
55.0
 40
55.0
 40
55.0
 40
56.0
 40
56.0
 40
56.0
 40
57.0
 40
57.0
 40
57.0
 40
58.0
 40
58.0
 40
58.0
 40
59.0
 40
59.0
 40
59.0
 40
60.0
 40
60.0
 40
60.0
 40
61.0
 40
61.0
 40
61.0
 40
62.0
 40
62.0
 40
62.0
 40
63.0
 40
63.0
 40
63.0
 40
64.0
 40
64.0
 40
64.0
 40
65.0
 40
65.0
 40
65.0
 40
66.0
 40
66.0
 40
66.0
 40
67.0
 40
67.0
 40
67.0
 40
68.0
 40
68.0
 40
68.0
 40
69.0
 40
69.0
 40
69.0
 40
70.0
 40
70.0
 40
70.0
 40
71.0
 40
71.0
 40
71.0
 40
72.0
 40
72.0
 40
72.0
 40
73.0
 40
73.0
 40
73.0
 40
74.0
 40
74.0
 40
74.0
 40
74.0
 10
21.53973194444443
 20
-55.00103472222223
 30
0.0
 10
21.51444861111112
 20
-55.04056388888888
 30
0.0
 10
21.51437361111112
 20
-55.04011944444444
 30
0.0
 10
21.55943472222222
 20
-55.05158888888889
 30
0.0
 10
22.3024236111111
 20
-55.2405
 30
0.0
 10
23.0362388888889
 20
-55.42744722222222
 30
0.0
 10
23.76429027777777
 20
-55.67038194444444
 30
0.0
 10
23.83172083333334
 20
-55.69286249999999
 30
0.0
 10
23.86721388888888
 20
-55.67410972222223
 30
0.0
 10
23.88892916666666
 20
-55.60566666666666
 30
0.0
 10
23.89223888888889
 20
-55.59523472222223
 30
0.0
 10
23.89535000000001
 20
-55.58469166666666
 30
0.0
 10
23.89795416666667
 20
-55.57407499999999
 30
0.0
 10
24.02102638888889
 20
-55.07437916666667
 30
0.0
 10
24.09922222222222
 20
-54.56358472222223
 30
0.0
 10
24.129
 20
-54.04976527777777
 30
0.0
 10
24.156925
 20
-53.56787083333333
 30
0.0
 10
24.19620833333334
 20
-53.00650972222221
 30
0.0
 10
24.00443472222224
 20
-52.55157777777777
 30
0.0
 10
23.98159444444445
 20
-52.49739444444444
 30
0.0
 10
23.94210138888889
 20
-52.47148055555556
 30
0.0
 10
23.88517638888889
 20
-52.46836944444444
 30
0.0
 10
22.63312222222223
 20
-52.39990138888889
 30
0.0
 10
21.2564888888889
 20
-51.98835277777778
 30
0.0
 10
20.02064444444444
 20
-52.40181527777777
 30
0.0
 10
19.07941111111111
 20
-52.71668750000001
 30
0.0
 10
18.19151249999999
 20
-53.18451944444445
 30
0.0
 10
17.20840416666667
 20
-53.35382499999999
 30
0.0
 10
16.94975277777778
 20
-53.39838055555555
 30
0.0
 10
16.6873625
 20
-53.41150277777778
 30
0.0
 10
16.43341527777778
 20
-53.48029166666667
 30
0.0
 10
16.23312222222223
 20
-53.53452638888888
 30
0.0
 10
16.0761
 20
-53.66182083333333
 30
0.0
 10
15.92012777777778
 20
-53.79242361111111
 30
0.0
 10
15.74901944444444
 20
-53.93570555555556
 30
0.0
 10
15.56661388888888
 20
-54.05778888888888
 30
0.0
 10
15.37445694444444
 20
-54.17134305555555
 30
0.0
 10
14.95737638888889
 20
-54.41784583333333
 30
0.0
 10
14.5141
 20
-54.61780555555555
 30
0.0
 10
14.0626125
 20
-54.79223472222222
 30
0.0
 10
13.94270138888889
 20
-54.83855555555556
 30
0.0
 10
13.83178853946851
 20
-54.8979125
 30
0.0
 10
13.74018576400481
 20
-54.98881249999999
 30
0.0
 10
13.45551077119631
 20
-55.27126388888888
 30
0.0
 10
13.14781216785832
 20
-55.52848333333332
 30
0.0
 10
12.85558161968513
 20
-55.80281249999999
 30
0.0
 10
12.59456079294574
 20
-56.04784444444443
 30
0.0
 10
12.3261094108385
 20
-56.31586527777777
 30
0.0
 10
12.18658024769664
 20
-56.65207083333333
 30
0.0
 10
12.15003719306424
 20
-56.74011805555556
 30
0.0
 10
12.14133441550631
 20
-56.82995694444445
 30
0.0
 10
12.16792608150121
 20
-56.92290555555557
 30
0.0
 10
12.24096219076728
 20
-57.17828472222221
 30
0.0
 10
12.53159968342516
 20
-57.1371375
 30
0.0
 10
12.72155940084859
 20
-57.05140972222223
 30
0.0
 10
13.21684827722543
 20
-56.82784583333333
 30
0.0
 10
13.45530104897938
 20
-56.30615000000001
 30
0.0
 10
13.919825
 20
-56.04728888888889
 30
0.0
 10
14.04623055555555
 20
-55.97683333333333
 30
0.0
 10
14.17908055555555
 20
-55.92198333333332
 30
0.0
 10
14.31296666666666
 20
-55.86887222222223
 30
0.0
 10
14.34592916666666
 20
-55.85579861111111
 30
0.0
 10
14.37221250000001
 20
-55.83820694444444
 30
0.0
 10
14.39290416666667
 20
-55.80786111111109
 30
0.0
 10
14.43612638888889
 20
-55.74443055555555
 30
0.0
 10
14.48623611111111
 20
-55.68623333333332
 30
0.0
 10
14.53596388888889
 20
-55.62760416666666
 30
0.0
 10
14.61335694444445
 20
-55.53634722222222
 30
0.0
 10
14.70417083333334
 20
-55.4592
 30
0.0
 10
14.78944166666666
 20
-55.376275
 30
0.0
 10
14.92419166666667
 20
-55.24522777777777
 30
0.0
 10
15.05868472222222
 20
-55.11380972222222
 30
0.0
 10
15.20086666666667
 20
-54.9907625
 30
0.0
 10
15.35987638888889
 20
-54.85318472222222
 30
0.0
 10
15.50740555555555
 20
-54.70403888888889
 30
0.0
 10
15.65125555555556
 20
-54.55104166666666
 30
0.0
 10
15.69526666666666
 20
-54.50423888888889
 30
0.0
 10
15.73885833333333
 20
-54.45703055555555
 30
0.0
 10
15.78274722222222
 20
-54.41010555555555
 30
0.0
 10
15.79520416666666
 20
-54.39679722222223
 30
0.0
 10
15.81015416666667
 20
-54.38480972222222
 30
0.0
 10
15.82720277777778
 20
-54.39959861111111
 30
0.0
 10
15.84422777777778
 20
-54.41441388888887
 30
0.0
 10
15.83341249999999
 20
-54.43098194444443
 30
0.0
 10
15.8234125
 20
-54.44561111111112
 30
0.0
 10
15.81988194444444
 20
-54.45075833333333
 30
0.0
 10
15.81586944444444
 20
-54.45565972222222
 30
0.0
 10
15.81159861111112
 20
-54.46021527777778
 30
0.0
 10
15.61900833333334
 20
-54.66603888888888
 30
0.0
 10
15.42565416666667
 20
-54.87417222222221
 30
0.0
 10
15.21270694444445
 20
-55.05861388888889
 30
0.0
 10
14.99593194444444
 20
-55.24636388888888
 30
0.0
 10
14.78204583333334
 20
-55.43896527777777
 30
0.0
 10
14.59388888888889
 20
-55.65598749999998
 30
0.0
 10
14.37066944444445
 20
-55.91342777777777
 30
0.0
 10
14.21917916666666
 20
-56.20166944444446
 30
0.0
 10
14.07755138888889
 20
-56.50938055555555
 30
0.0
 10
13.92488611111111
 20
-56.84107916666665
 30
0.0
 10
13.7009885427728
 20
-57.13364305555557
 30
0.0
 10
13.56712604615445
 20
-57.47634166666666
 30
0.0
 10
13.46260938212809
 20
-57.74389305555554
 30
0.0
 10
13.17531772271903
 20
-58.16438055555555
 30
0.0
 10
13.2817607755856
 20
-58.46062222222223
 30
0.0
 10
13.34528994064739
 20
-58.63743472222222
 30
0.0
 10
13.54902777777777
 20
-58.71076666666666
 30
0.0
 10
13.72071632005221
 20
-58.65700277777778
 30
0.0
 10
13.76909826327442
 20
-58.64186666666665
 30
0.0
 10
13.77785104083109
 20
-58.63091666666668
 30
0.0
 10
13.77417326314622
 20
-58.57981805555556
 30
0.0
 10
13.77000000000001
 20
-58.52184444444444
 30
0.0
 10
13.76735798554061
 20
-58.46410416666668
 30
0.0
 10
13.79017187385317
 20
-58.40843749999999
 30
0.0
 10
13.83551770604097
 20
-58.2977486111111
 30
0.0
 10
13.89325833333333
 20
-58.19376249999999
 30
0.0
 10
13.96162638888889
 20
-58.09594861111112
 30
0.0
 10
14.54961805555556
 20
-57.25467777777776
 30
0.0
 10
15.01007916666667
 20
-56.26040972222222
 30
0.0
 10
15.74895694444444
 20
-55.53755694444445
 30
0.0
 10
15.99344722222222
 20
-55.29835
 30
0.0
 10
16.26148055555556
 20
-55.08621805555555
 30
0.0
 10
16.51780972222222
 20
-54.86066666666667
 30
0.0
 10
16.53110555555555
 20
-54.84896249999999
 30
0.0
 10
16.54543888888889
 20
-54.8439625
 30
0.0
 10
16.55913055555556
 20
-54.85836944444444
 30
0.0
 10
16.57263611111111
 20
-54.87257916666665
 30
0.0
 10
16.56758611111112
 20
-54.88845555555556
 30
0.0
 10
16.55594444444445
 20
-54.90046805555556
 30
0.0
 10
16.53743888888889
 20
-54.91952916666666
 30
0.0
 10
16.51782222222222
 20
-54.93773888888889
 30
0.0
 10
16.49725416666667
 20
-54.95457777777779
 30
0.0
 10
16.07980416666667
 20
-55.296375
 30
0.0
 10
15.66632916666667
 20
-55.64664166666665
 30
0.0
 10
15.34384027777777
 20
-56.08183194444445
 30
0.0
 10
15.03711666666667
 20
-56.49573888888888
 30
0.0
 10
14.78630555555555
 20
-56.94680694444446
 30
0.0
 10
14.50998888888888
 20
-57.38072500000001
 30
0.0
 10
14.36357083333333
 20
-57.61065972222223
 30
0.0
 10
14.20921527777778
 20
-57.8351875
 30
0.0
 10
14.05326805555555
 20
-58.05865277777777
 30
0.0
 10
13.97154027777778
 20
-58.175725
 30
0.0
 10
13.89320833333333
 20
-58.2947111111111
 30
0.0
 10
13.84612187243975
 20
-58.43105555555555
 30
0.0
 10
13.8353815949333
 20
-58.46219027777778
 30
0.0
 10
13.8252829840773
 20
-58.49307916666665
 30
0.0
 10
13.82915937286826
 20
-58.52722638888889
 30
0.0
 10
13.84064131702265
 20
-58.62810138888888
 30
0.0
 10
13.92334305555556
 20
-58.69430972222221
 30
0.0
 10
14.04118194444445
 20
-58.70158194444444
 30
0.0
 10
14.21257361111111
 20
-58.7121625
 30
0.0
 10
14.35352222222222
 20
-58.64260694444445
 30
0.0
 10
14.47669305555555
 20
-58.53402916666666
 30
0.0
 10
14.74356527777779
 20
-58.29871111111111
 30
0.0
 10
14.92694583333333
 20
-57.99435833333334
 30
0.0
 10
15.13835
 20
-57.71247361111111
 30
0.0
 10
15.42448055555556
 20
-57.33093611111111
 30
0.0
 10
15.74789583333333
 20
-56.98095416666666
 30
0.0
 10
16.04460694444444
 20
-56.60821944444445
 30
0.0
 10
16.22065416666667
 20
-56.38706250000001
 30
0.0
 10
16.43616944444444
 20
-56.2205097222222
 30
0.0
 10
16.70375694444445
 20
-56.12741111111111
 30
0.0
 10
16.783275
 20
-56.09974583333332
 30
0.0
 10
16.84173055555556
 20
-56.05615416666667
 30
0.0
 10
16.88876666666667
 20
-55.98745138888888
 30
0.0
 10
17.01181388888888
 20
-55.80772499999999
 30
0.0
 10
17.16325694444444
 20
-55.65380138888887
 30
0.0
 10
17.33334027777778
 20
-55.51833472222221
 30
0.0
 10
17.45728888888889
 20
-55.41959583333333
 30
0.0
 10
17.57663194444444
 20
-55.31599166666666
 30
0.0
 10
17.68477916666667
 20
-55.19991944444445
 30
0.0
 10
17.69759305555556
 20
-55.18615416666665
 30
0.0
 10
17.71046944444445
 20
-55.17245138888887
 30
0.0
 10
17.72380277777778
 20
-55.15921666666667
 30
0.0
 10
17.73664305555556
 20
-55.14645138888888
 30
0.0
 10
17.75244444444444
 20
-55.13466111111111
 30
0.0
 10
17.7689138888889
 20
-55.14931527777778
 30
0.0
 10
17.80883888888889
 20
-55.18482083333333
 30
0.0
 10
17.6482
 20
-55.31660972222222
 30
0.0
 10
17.62196527777778
 20
-55.34209027777778
 30
0.0
 10
17.55538611111111
 20
-55.40675694444445
 30
0.0
 10
17.48605416666667
 20
-55.46868055555555
 30
0.0
 10
17.41262222222223
 20
-55.52551944444445
 30
0.0
 10
17.08199861111111
 20
-55.78146666666667
 30
0.0
 10
16.83268055555555
 20
-56.10560972222222
 30
0.0
 10
16.63545
 20
-56.46903611111111
 30
0.0
 10
16.46589722222222
 20
-56.78145138888888
 30
0.0
 10
16.27144305555556
 20
-57.08891527777776
 30
0.0
 10
16.02597777777778
 20
-57.34710833333332
 30
0.0
 10
15.83815277777777
 20
-57.5446361111111
 30
0.0
 10
15.5498375
 20
-57.8280513888889
 30
0.0
 10
15.60786111111111
 20
-58.13060277777779
 30
0.0
 10
15.63132916666667
 20
-58.25283611111111
 30
0.0
 10
15.71811805555555
 20
-58.32572361111112
 30
0.0
 10
15.84173333333333
 20
-58.32540277777778
 30
0.0
 10
15.92580694444445
 20
-58.32516805555554
 30
0.0
 10
16.0012
 20
-58.29493333333335
 30
0.0
 10
16.0731125
 20
-58.25542777777776
 30
0.0
 10
16.52792083333333
 20
-58.00565416666667
 30
0.0
 10
16.72865833333334
 20
-57.50425416666667
 30
0.0
 10
17.12615833333333
 20
-57.19064166666665
 30
0.0
 10
17.47875694444445
 20
-56.9124736111111
 30
0.0
 10
17.74053194444444
 20
-56.55451666666666
 30
0.0
 10
18.1365625
 20
-56.32692777777778
 30
0.0
 10
18.41082916666667
 20
-56.16929999999999
 30
0.0
 10
18.77188611111112
 20
-56.12699166666665
 30
0.0
 10
19.07217777777777
 20
-56.0256472222222
 30
0.0
 10
19.46929444444446
 20
-55.89161249999999
 30
0.0
 10
19.87625138888888
 20
-55.82723055555554
 30
0.0
 10
20.28066527777777
 20
-55.72522083333335
 30
0.0
 10
20.74196666666666
 20
-55.60972777777778
 30
0.0
 10
21.20787222222222
 20
-55.41797777777777
 30
0.0
 10
21.47451111111112
 20
-55.00149027777777
 30
0.0
 10
21.5960638888889
 20
-54.81162916666666
 30
0.0
 10
21.68829722222222
 20
-54.60839861111111
 30
0.0
 10
21.76634583333334
 20
-54.39785833333333
 30
0.0
 10
21.77465416666668
 20
-54.37542638888888
 30
0.0
 10
21.77427083333333
 20
-54.33373611111112
 30
0.0
 10
21.81240694444444
 20
-54.34736527777778
 30
0.0
 10
21.84882500000001
 20
-54.36037777777779
 30
0.0
 10
21.82591250000001
 20
-54.394575
 30
0.0
 10
21.81770277777779
 20
-54.41668472222221
 30
0.0
 10
21.74239583333332
 20
-54.61964444444445
 30
0.0
 10
21.65686527777777
 20
-54.81792638888889
 30
0.0
 10
21.53973194444443
 20
-55.00103472222223
 30
0.0
  0
HATCH
  5
42
330
1F
100
AcDbEntity
  8
Layer 1
 62
     7
420
 16777215
100
AcDbHatch
 10
0.0
 20
0.0
 30
0.0
210
0.0
220
0.0
230
1.0
  2
SOLID
 70
     1
 71
     0
 91
        1
 92
        1
 93
        1
 72
     4
 94
        3
 73
     0
 74
     1
 95
      227
 96
      223
 40
0.0
 40
0.0
 40
0.0
 40
0.0
 40
1.0
 40
1.0
 40
1.0
 40
2.0
 40
2.0
 40
2.0
 40
3.0
 40
3.0
 40
3.0
 40
4.0
 40
4.0
 40
4.0
 40
5.0
 40
5.0
 40
5.0
 40
6.0
 40
6.0
 40
6.0
 40
7.0
 40
7.0
 40
7.0
 40
8.0
 40
8.0
 40
8.0
 40
9.0
 40
9.0
 40
9.0
 40
10.0
 40
10.0
 40
10.0
 40
11.0
 40
11.0
 40
11.0
 40
12.0
 40
12.0
 40
12.0
 40
13.0
 40
13.0
 40
13.0
 40
14.0
 40
14.0
 40
14.0
 40
15.0
 40
15.0
 40
15.0
 40
16.0
 40
16.0
 40
16.0
 40
17.0
 40
17.0
 40
17.0
 40
18.0
 40
18.0
 40
18.0
 40
19.0
 40
19.0
 40
19.0
 40
20.0
 40
20.0
 40
20.0
 40
21.0
 40
21.0
 40
21.0
 40
22.0
 40
22.0
 40
22.0
 40
23.0
 40
23.0
 40
23.0
 40
24.0
 40
24.0
 40
24.0
 40
25.0
 40
25.0
 40
25.0
 40
26.0
 40
26.0
 40
26.0
 40
27.0
 40
27.0
 40
27.0
 40
28.0
 40
28.0
 40
28.0
 40
29.0
 40
29.0
 40
29.0
 40
30.0
 40
30.0
 40
30.0
 40
31.0
 40
31.0
 40
31.0
 40
32.0
 40
32.0
 40
32.0
 40
33.0
 40
33.0
 40
33.0
 40
34.0
 40
34.0
 40
34.0
 40
35.0
 40
35.0
 40
35.0
 40
36.0
 40
36.0
 40
36.0
 40
37.0
 40
37.0
 40
37.0
 40
38.0
 40
38.0
 40
38.0
 40
39.0
 40
39.0
 40
39.0
 40
40.0
 40
40.0
 40
40.0
 40
41.0
 40
41.0
 40
41.0
 40
42.0
 40
42.0
 40
42.0
 40
43.0
 40
43.0
 40
43.0
 40
44.0
 40
44.0
 40
44.0
 40
45.0
 40
45.0
 40
45.0
 40
46.0
 40
46.0
 40
46.0
 40
47.0
 40
47.0
 40
47.0
 40
48.0
 40
48.0
 40
48.0
 40
49.0
 40
49.0
 40
49.0
 40
50.0
 40
50.0
 40
50.0
 40
51.0
 40
51.0
 40
51.0
 40
52.0
 40
52.0
 40
52.0
 40
53.0
 40
53.0
 40
53.0
 40
54.0
 40
54.0
 40
54.0
 40
55.0
 40
55.0
 40
55.0
 40
56.0
 40
56.0
 40
56.0
 40
57.0
 40
57.0
 40
57.0
 40
58.0
 40
58.0
 40
58.0
 40
59.0
 40
59.0
 40
59.0
 40
60.0
 40
60.0
 40
60.0
 40
61.0
 40
61.0
 40
61.0
 40
62.0
 40
62.0
 40
62.0
 40
63.0
 40
63.0
 40
63.0
 40
64.0
 40
64.0
 40
64.0
 40
65.0
 40
65.0
 40
65.0
 40
66.0
 40
66.0
 40
66.0
 40
67.0
 40
67.0
 40
67.0
 40
68.0
 40
68.0
 40
68.0
 40
69.0
 40
69.0
 40
69.0
 40
70.0
 40
70.0
 40
70.0
 40
71.0
 40
71.0
 40
71.0
 40
72.0
 40
72.0
 40
72.0
 40
73.0
 40
73.0
 40
73.0
 40
74.0
 40
74.0
 40
74.0
 40
74.0
 10
21.53973194444443
 20
-55.00103472222223
 10
21.51444861111112
 20
-55.04056388888888
 10
21.51437361111112
 20
-55.04011944444444
 10
21.55943472222222
 20
-55.05158888888889
 10
22.3024236111111
 20
-55.2405
 10
23.0362388888889
 20
-55.42744722222222
 10
23.76429027777777
 20
-55.67038194444444
 10
23.83172083333334
 20
-55.69286249999999
 10
23.86721388888888
 20
-55.67410972222223
 10
23.88892916666666
 20
-55.60566666666666
 10
23.89223888888889
 20
-55.59523472222223
 10
23.89535000000001
 20
-55.58469166666666
 10
23.89795416666667
 20
-55.57407499999999
 10
24.02102638888889
 20
-55.07437916666667
 10
24.09922222222222
 20
-54.56358472222223
 10
24.129
 20
-54.04976527777777
 10
24.156925
 20
-53.56787083333333
 10
24.19620833333334
 20
-53.00650972222221
 10
24.00443472222224
 20
-52.55157777777777
 10
23.98159444444445
 20
-52.49739444444444
 10
23.94210138888889
 20
-52.47148055555556
 10
23.88517638888889
 20
-52.46836944444444
 10
22.63312222222223
 20
-52.39990138888889
 10
21.2564888888889
 20
-51.98835277777778
 10
20.02064444444444
 20
-52.40181527777777
 10
19.07941111111111
 20
-52.71668750000001
 10
18.19151249999999
 20
-53.18451944444445
 10
17.20840416666667
 20
-53.35382499999999
 10
16.94975277777778
 20
-53.39838055555555
 10
16.6873625
 20
-53.41150277777778
 10
16.43341527777778
 20
-53.48029166666667
 10
16.23312222222223
 20
-53.53452638888888
 10
16.0761
 20
-53.66182083333333
 10
15.92012777777778
 20
-53.79242361111111
 10
15.74901944444444
 20
-53.93570555555556
 10
15.56661388888888
 20
-54.05778888888888
 10
15.37445694444444
 20
-54.17134305555555
 10
14.95737638888889
 20
-54.41784583333333
 10
14.5141
 20
-54.61780555555555
 10
14.0626125
 20
-54.79223472222222
 10
13.94270138888889
 20
-54.83855555555556
 10
13.83178853946851
 20
-54.8979125
 10
13.74018576400481
 20
-54.98881249999999
 10
13.45551077119631
 20
-55.27126388888888
 10
13.14781216785832
 20
-55.52848333333332
 10
12.85558161968513
 20
-55.80281249999999
 10
12.59456079294574
 20
-56.04784444444443
 10
12.3261094108385
 20
-56.31586527777777
 10
12.18658024769664
 20
-56.65207083333333
 10
12.15003719306424
 20
-56.74011805555556
 10
12.14133441550631
 20
-56.82995694444445
 10
12.16792608150121
 20
-56.92290555555557
 10
12.24096219076728
 20
-57.17828472222221
 10
12.53159968342516
 20
-57.1371375
 10
12.72155940084859
 20
-57.05140972222223
 10
13.21684827722543
 20
-56.82784583333333
 10
13.45530104897938
 20
-56.30615000000001
 10
13.919825
 20
-56.04728888888889
 10
14.04623055555555
 20
-55.97683333333333
 10
14.17908055555555
 20
-55.92198333333332
 10
14.31296666666666
 20
-55.86887222222223
 10
14.34592916666666
 20
-55.85579861111111
 10
14.37221250000001
 20
-55.83820694444444
 10
14.39290416666667
 20
-55.80786111111109
 10
14.43612638888889
 20
-55.74443055555555
 10
14.48623611111111
 20
-55.68623333333332
 10
14.53596388888889
 20
-55.62760416666666
 10
14.61335694444445
 20
-55.53634722222222
 10
14.70417083333334
 20
-55.4592
 10
14.78944166666666
 20
-55.376275
 10
14.92419166666667
 20
-55.24522777777777
 10
15.05868472222222
 20
-55.11380972222222
 10
15.20086666666667
 20
-54.9907625
 10
15.35987638888889
 20
-54.85318472222222
 10
15.50740555555555
 20
-54.70403888888889
 10
15.65125555555556
 20
-54.55104166666666
 10
15.69526666666666
 20
-54.50423888888889
 10
15.73885833333333
 20
-54.45703055555555
 10
15.78274722222222
 20
-54.41010555555555
 10
15.79520416666666
 20
-54.39679722222223
 10
15.81015416666667
 20
-54.38480972222222
 10
15.82720277777778
 20
-54.39959861111111
 10
15.84422777777778
 20
-54.41441388888887
 10
15.83341249999999
 20
-54.43098194444443
 10
15.8234125
 20
-54.44561111111112
 10
15.81988194444444
 20
-54.45075833333333
 10
15.81586944444444
 20
-54.45565972222222
 10
15.81159861111112
 20
-54.46021527777778
 10
15.61900833333334
 20
-54.66603888888888
 10
15.42565416666667
 20
-54.87417222222221
 10
15.21270694444445
 20
-55.05861388888889
 10
14.99593194444444
 20
-55.24636388888888
 10
14.78204583333334
 20
-55.43896527777777
 10
14.59388888888889
 20
-55.65598749999998
 10
14.37066944444445
 20
-55.91342777777777
 10
14.21917916666666
 20
-56.20166944444446
 10
14.07755138888889
 20
-56.50938055555555
 10
13.92488611111111
 20
-56.84107916666665
 10
13.7009885427728
 20
-57.13364305555557
 10
13.56712604615445
 20
-57.47634166666666
 10
13.46260938212809
 20
-57.74389305555554
 10
13.17531772271903
 20
-58.16438055555555
 10
13.2817607755856
 20
-58.46062222222223
 10
13.34528994064739
 20
-58.63743472222222
 10
13.54902777777777
 20
-58.71076666666666
 10
13.72071632005221
 20
-58.65700277777778
 10
13.76909826327442
 20
-58.64186666666665
 10
13.77785104083109
 20
-58.63091666666668
 10
13.77417326314622
 20
-58.57981805555556
 10
13.77000000000001
 20
-58.52184444444444
 10
13.76735798554061
 20
-58.46410416666668
 10
13.79017187385317
 20
-58.40843749999999
 10
13.83551770604097
 20
-58.2977486111111
 10
13.89325833333333
 20
-58.19376249999999
 10
13.96162638888889
 20
-58.09594861111112
 10
14.54961805555556
 20
-57.25467777777776
 10
15.01007916666667
 20
-56.26040972222222
 10
15.74895694444444
 20
-55.53755694444445
 10
15.99344722222222
 20
-55.29835
 10
16.26148055555556
 20
-55.08621805555555
 10
16.51780972222222
 20
-54.86066666666667
 10
16.53110555555555
 20
-54.84896249999999
 10
16.54543888888889
 20
-54.8439625
 10
16.55913055555556
 20
-54.85836944444444
 10
16.57263611111111
 20
-54.87257916666665
 10
16.56758611111112
 20
-54.88845555555556
 10
16.55594444444445
 20
-54.90046805555556
 10
16.53743888888889
 20
-54.91952916666666
 10
16.51782222222222
 20
-54.93773888888889
 10
16.49725416666667
 20
-54.95457777777779
 10
16.07980416666667
 20
-55.296375
 10
15.66632916666667
 20
-55.64664166666665
 10
15.34384027777777
 20
-56.08183194444445
 10
15.03711666666667
 20
-56.49573888888888
 10
14.78630555555555
 20
-56.94680694444446
 10
14.50998888888888
 20
-57.38072500000001
 10
14.36357083333333
 20
-57.61065972222223
 10
14.20921527777778
 20
-57.8351875
 10
14.05326805555555
 20
-58.05865277777777
 10
13.97154027777778
 20
-58.175725
 10
13.89320833333333
 20
-58.2947111111111
 10
13.84612187243975
 20
-58.43105555555555
 10
13.8353815949333
 20
-58.46219027777778
 10
13.8252829840773
 20
-58.49307916666665
 10
13.82915937286826
 20
-58.52722638888889
 10
13.84064131702265
 20
-58.62810138888888
 10
13.92334305555556
 20
-58.69430972222221
 10
14.04118194444445
 20
-58.70158194444444
 10
14.21257361111111
 20
-58.7121625
 10
14.35352222222222
 20
-58.64260694444445
 10
14.47669305555555
 20
-58.53402916666666
 10
14.74356527777779
 20
-58.29871111111111
 10
14.92694583333333
 20
-57.99435833333334
 10
15.13835
 20
-57.71247361111111
 10
15.42448055555556
 20
-57.33093611111111
 10
15.74789583333333
 20
-56.98095416666666
 10
16.04460694444444
 20
-56.60821944444445
 10
16.22065416666667
 20
-56.38706250000001
 10
16.43616944444444
 20
-56.2205097222222
 10
16.70375694444445
 20
-56.12741111111111
 10
16.783275
 20
-56.09974583333332
 10
16.84173055555556
 20
-56.05615416666667
 10
16.88876666666667
 20
-55.98745138888888
 10
17.01181388888888
 20
-55.80772499999999
 10
17.16325694444444
 20
-55.65380138888887
 10
17.33334027777778
 20
-55.51833472222221
 10
17.45728888888889
 20
-55.41959583333333
 10
17.57663194444444
 20
-55.31599166666666
 10
17.68477916666667
 20
-55.19991944444445
 10
17.69759305555556
 20
-55.18615416666665
 10
17.71046944444445
 20
-55.17245138888887
 10
17.72380277777778
 20
-55.15921666666667
 10
17.73664305555556
 20
-55.14645138888888
 10
17.75244444444444
 20
-55.13466111111111
 10
17.7689138888889
 20
-55.14931527777778
 10
17.80883888888889
 20
-55.18482083333333
 10
17.6482
 20
-55.31660972222222
 10
17.62196527777778
 20
-55.34209027777778
 10
17.55538611111111
 20
-55.40675694444445
 10
17.48605416666667
 20
-55.46868055555555
 10
17.41262222222223
 20
-55.52551944444445
 10
17.08199861111111
 20
-55.78146666666667
 10
16.83268055555555
 20
-56.10560972222222
 10
16.63545
 20
-56.46903611111111
 10
16.46589722222222
 20
-56.78145138888888
 10
16.27144305555556
 20
-57.08891527777776
 10
16.02597777777778
 20
-57.34710833333332
 10
15.83815277777777
 20
-57.5446361111111
 10
15.5498375
 20
-57.8280513888889
 10
15.60786111111111
 20
-58.13060277777779
 10
15.63132916666667
 20
-58.25283611111111
 10
15.71811805555555
 20
-58.32572361111112
 10
15.84173333333333
 20
-58.32540277777778
 10
15.92580694444445
 20
-58.32516805555554
 10
16.0012
 20
-58.29493333333335
 10
16.0731125
 20
-58.25542777777776
 10
16.52792083333333
 20
-58.00565416666667
 10
16.72865833333334
 20
-57.50425416666667
 10
17.12615833333333
 20
-57.19064166666665
 10
17.47875694444445
 20
-56.9124736111111
 10
17.74053194444444
 20
-56.55451666666666
 10
18.1365625
 20
-56.32692777777778
 10
18.41082916666667
 20
-56.16929999999999
 10
18.77188611111112
 20
-56.12699166666665
 10
19.07217777777777
 20
-56.0256472222222
 10
19.46929444444446
 20
-55.89161249999999
 10
19.87625138888888
 20
-55.82723055555554
 10
20.28066527777777
 20
-55.72522083333335
 10
20.74196666666666
 20
-55.60972777777778
 10
21.20787222222222
 20
-55.41797777777777
 10
21.47451111111112
 20
-55.00149027777777
 10
21.5960638888889
 20
-54.81162916666666
 10
21.68829722222222
 20
-54.60839861111111
 10
21.76634583333334
 20
-54.39785833333333
 10
21.77465416666668
 20
-54.37542638888888
 10
21.77427083333333
 20
-54.33373611111112
 10
21.81240694444444
 20
-54.34736527777778
 10
21.84882500000001
 20
-54.36037777777779
 10
21.82591250000001
 20
-54.394575
 10
21.81770277777779
 20
-54.41668472222221
 10
21.74239583333332
 20
-54.61964444444445
 10
21.65686527777777
 20
-54.81792638888889
 10
21.53973194444443
 20
-55.00103472222223
 97
        0
 97
        0
 75
     2
 76
     1
 98
        0
  0
SPLINE
  5
43
330
1F
100
AcDbEntity
  8
Layer 1
370
     0
100
AcDbSpline
210
0.0
220
0.0
230
1.0
 70
    11
 71
     3
 72
    35
 73
    31
 74
     0
 42
0.0000000001
 43
0.0000000001
 12
1.0
 22
0.0
 32
0.0
 13
1.0
 23
0.0
 33
0.0
 40
0.0
 40
0.0
 40
0.0
 40
0.0
 40
1.0
 40
1.0
 40
1.0
 40
2.0
 40
2.0
 40
2.0
 40
3.0
 40
3.0
 40
3.0
 40
4.0
 40
4.0
 40
4.0
 40
5.0
 40
5.0
 40
5.0
 40
6.0
 40
6.0
 40
6.0
 40
7.0
 40
7.0
 40
7.0
 40
8.0
 40
8.0
 40
8.0
 40
9.0
 40
9.0
 40
9.0
 40
10.0
 40
10.0
 40
10.0
 40
10.0
 10
14.14685833333333
 20
-54.68680416666666
 30
0.0
 10
14.16419166666666
 20
-54.69471805555555
 30
0.0
 10
14.17735138888889
 20
-54.68771805555555
 30
0.0
 10
14.19126527777778
 20
-54.68174305555556
 30
0.0
 10
14.5321125
 20
-54.53517777777778
 30
0.0
 10
14.86726666666666
 20
-54.37693333333333
 30
0.0
 10
15.19631111111111
 20
-54.20514583333334
 30
0.0
 10
15.37458055555555
 20
-54.11207222222222
 30
0.0
 10
15.54334305555555
 20
-54.00528472222222
 30
0.0
 10
15.70763749999999
 20
-53.89042222222221
 30
0.0
 10
15.71878472222223
 20
-53.88261944444444
 30
0.0
 10
15.73909305555556
 20
-53.86850833333334
 30
0.0
 10
15.73645138888888
 20
-53.86378055555554
 30
0.0
 10
15.73283472222223
 20
-53.85732361111111
 30
0.0
 10
15.71236527777778
 20
-53.86169444444443
 30
0.0
 10
15.69980972222222
 20
-53.86354583333333
 30
0.0
 10
15.4209
 20
-53.90505138888889
 30
0.0
 10
15.13597916666667
 20
-53.92318611111111
 30
0.0
 10
14.85405694444445
 20
-53.92277916666666
 30
0.0
 10
14.66843055555556
 20
-53.92251944444445
 30
0.0
 10
14.48301388888889
 20
-53.88982916666666
 30
0.0
 10
14.29772083333334
 20
-53.88564444444444
 30
0.0
 10
14.21212916666666
 20
-53.88369305555555
 30
0.0
 10
14.1265625
 20
-53.88784166666667
 30
0.0
 10
14.04102083333333
 20
-53.90407638888888
 30
0.0
 10
13.77698715196402
 20
-53.95418611111111
 30
0.0
 10
13.66775521027901
 20
-54.26245277777777
 30
0.0
 10
13.83314687276753
 20
-54.47006666666666
 30
0.0
 10
13.91609722222222
 20
-54.57418888888888
 30
0.0
 10
14.02939166666667
 20
-54.63307638888889
 30
0.0
 10
14.14685833333333
 20
-54.68680416666666
 30
0.0
  0
HATCH
  5
44
330
1F
100
AcDbEntity
  8
Layer 1
 62
     7
420
 16777215
100
AcDbHatch
 10
0.0
 20
0.0
 30
0.0
210
0.0
220
0.0
230
1.0
  2
SOLID
 70
     1
 71
     0
 91
        1
 92
        1
 93
        1
 72
     4
 94
        3
 73
     0
 74
     1
 95
       35
 96
       31
 40
0.0
 40
0.0
 40
0.0
 40
0.0
 40
1.0
 40
1.0
 40
1.0
 40
2.0
 40
2.0
 40
2.0
 40
3.0
 40
3.0
 40
3.0
 40
4.0
 40
4.0
 40
4.0
 40
5.0
 40
5.0
 40
5.0
 40
6.0
 40
6.0
 40
6.0
 40
7.0
 40
7.0
 40
7.0
 40
8.0
 40
8.0
 40
8.0
 40
9.0
 40
9.0
 40
9.0
 40
10.0
 40
10.0
 40
10.0
 40
10.0
 10
14.14685833333333
 20
-54.68680416666666
 10
14.16419166666666
 20
-54.69471805555555
 10
14.17735138888889
 20
-54.68771805555555
 10
14.19126527777778
 20
-54.68174305555556
 10
14.5321125
 20
-54.53517777777778
 10
14.86726666666666
 20
-54.37693333333333
 10
15.19631111111111
 20
-54.20514583333334
 10
15.37458055555555
 20
-54.11207222222222
 10
15.54334305555555
 20
-54.00528472222222
 10
15.70763749999999
 20
-53.89042222222221
 10
15.71878472222223
 20
-53.88261944444444
 10
15.73909305555556
 20
-53.86850833333334
 10
15.73645138888888
 20
-53.86378055555554
 10
15.73283472222223
 20
-53.85732361111111
 10
15.71236527777778
 20
-53.86169444444443
 10
15.69980972222222
 20
-53.86354583333333
 10
15.4209
 20
-53.90505138888889
 10
15.13597916666667
 20
-53.92318611111111
 10
14.85405694444445
 20
-53.92277916666666
 10
14.66843055555556
 20
-53.92251944444445
 10
14.48301388888889
 20
-53.88982916666666
 10
14.29772083333334
 20
-53.88564444444444
 10
14.21212916666666
 20
-53.88369305555555
 10
14.1265625
 20
-53.88784166666667
 10
14.04102083333333
 20
-53.90407638888888
 10
13.77698715196402
 20
-53.95418611111111
 10
13.66775521027901
 20
-54.26245277777777
 10
13.83314687276753
 20
-54.47006666666666
 10
13.91609722222222
 20
-54.57418888888888
 10
14.02939166666667
 20
-54.63307638888889
 10
14.14685833333333
 20
-54.68680416666666
 97
        0
 97
        0
 75
     2
 76
     1
 98
        0
  0
ENDSEC
  0
SECTION
  2
OBJECTS
  0
DICTIONARY
  5
C
330
0
100
AcDbDictionary
281
     1
  3
ACAD_GROUP
350
D
  3
ACAD_LAYOUT
350
1A
  3
ACAD_MATERIAL
350
3B
  3
ACAD_MLEADERSTYLE
350
46
  3
ACAD_MLINESTYLE
350
17
  3
ACAD_PLOTSETTINGS
350
19
  3
ACAD_PLOTSTYLENAME
350
E
  3
ACAD_TABLESTYLE
350
45
  3
ACAD_VISUALSTYLE
350
2A
  0
SUN
  5
3F
330
29
100
AcDbSun
 90
        1
290
     0
 63
     7
421
 16777215
 40
1.0
291
     1
 91
  2455826
 92
 54000000
292
     0
 70
     2
 71
   256
280
     1
  0
DICTIONARY
  5
D
102
{ACAD_REACTORS
330
C
102
}
330
C
100
AcDbDictionary
281
     1
  0
DICTIONARY
  5
1A
102
{ACAD_REACTORS
330
C
102
}
330
C
100
AcDbDictionary
281
     1
  3
Layout1
350
1E
  3
Layout2
350
26
  3
Model
350
22
  0
DICTIONARY
  5
3B
102
{ACAD_REACTORS
330
C
102
}
330
C
100
AcDbDictionary
281
     1
  3
ByBlock
350
3D
  3
ByLayer
350
3C
  3
Global
350
3E
  0
DICTIONARY
  5
46
102
{ACAD_REACTORS
330
C
102
}
330
C
100
AcDbDictionary
281
     1
  0
DICTIONARY
  5
17
102
{ACAD_REACTORS
330
C
102
}
330
C
100
AcDbDictionary
281
     1
  3
Standard
350
18
  0
DICTIONARY
  5
19
102
{ACAD_REACTORS
330
C
102
}
330
C
100
AcDbDictionary
281
     1
  0
ACDBDICTIONARYWDFLT
  5
E
102
{ACAD_REACTORS
330
C
102
}
330
C
100
AcDbDictionary
281
     1
  3
Normal
350
F
100
AcDbDictionaryWithDefault
340
F
  0
DICTIONARY
  5
45
102
{ACAD_REACTORS
330
C
102
}
330
C
100
AcDbDictionary
281
     1
  0
DICTIONARY
  5
2A
102
{ACAD_REACTORS
330
C
102
}
330
C
100
AcDbDictionary
281
     1
  3
2dWireframe
350
2F
  3
3D Hidden
350
31
  3
3dWireframe
350
30
  3
Basic
350
32
  3
Brighten
350
36
  3
ColorChange
350
3A
  3
Conceptual
350
34
  3
Dim
350
35
  3
Facepattern
350
39
  3
Flat
350
2B
  3
FlatWithEdges
350
2C
  3
Gouraud
350
2D
  3
GouraudWithEdges
350
2E
  3
Linepattern
350
38
  3
Realistic
350
33
  3
Thicken
350
37
  0
LAYOUT
  5
1E
102
{ACAD_REACTORS
330
1A
102
}
330
1A
100
AcDbPlotSettings
  1

  2
none_device
  4

  6

 40
0.0
 41
0.0
 42
0.0
 43
0.0
 44
0.0
 45
0.0
 46
0.0
 47
0.0
 48
0.0
 49
0.0
140
0.0
141
0.0
142
1.0
143
1.0
 70
   688
 72
     0
 73
     0
 74
     5
  7

 75
    16
 76
     0
 77
     2
 78
   300
147
1.0
148
0.0
149
0.0
100
AcDbLayout
  1
Layout1
 70
     1
 71
     1
 10
0.0
 20
0.0
 11
12.0
 21
9.0
 12
0.0
 22
0.0
 32
0.0
 14
1.000000000000000E+20
 24
1.000000000000000E+20
 34
1.000000000000000E+20
 15
-1.000000000000000E+20
 25
-1.000000000000000E+20
 35
-1.000000000000000E+20
146
0.0
 13
0.0
 23
0.0
 33
0.0
 16
1.0
 26
0.0
 36
0.0
 17
0.0
 27
1.0
 37
0.0
 76
     0
330
1B
  0
LAYOUT
  5
26
102
{ACAD_REACTORS
330
1A
102
}
330
1A
100
AcDbPlotSettings
  1

  2
none_device
  4

  6

 40
0.0
 41
0.0
 42
0.0
 43
0.0
 44
0.0
 45
0.0
 46
0.0
 47
0.0
 48
0.0
 49
0.0
140
0.0
141
0.0
142
1.0
143
1.0
 70
   688
 72
     0
 73
     0
 74
     5
  7

 75
    16
 76
     0
 77
     2
 78
   300
147
1.0
148
0.0
149
0.0
100
AcDbLayout
  1
Layout2
 70
     1
 71
     2
 10
0.0
 20
0.0
 11
0.0
 21
0.0
 12
0.0
 22
0.0
 32
0.0
 14
0.0
 24
0.0
 34
0.0
 15
0.0
 25
0.0
 35
0.0
146
0.0
 13
0.0
 23
0.0
 33
0.0
 16
1.0
 26
0.0
 36
0.0
 17
0.0
 27
1.0
 37
0.0
 76
     0
330
23
  0
LAYOUT
  5
22
102
{ACAD_REACTORS
330
1A
102
}
330
1A
100
AcDbPlotSettings
  1

  2
none_device
  4

  6

 40
0.0
 41
0.0
 42
0.0
 43
0.0
 44
0.0
 45
0.0
 46
0.0
 47
0.0
 48
0.0
 49
0.0
140
0.0
141
0.0
142
1.0
143
1.0
 70
  1712
 72
     0
 73
     0
 74
     0
  7

 75
     0
 76
     0
 77
     2
 78
   300
147
1.0
148
0.0
149
0.0
100
AcDbLayout
  1
Model
 70
     1
 71
     0
 10
0.0
 20
0.0
 11
12.0
 21
9.0
 12
0.0
 22
0.0
 32
0.0
 14
1.000000000000000E+20
 24
1.000000000000000E+20
 34
1.000000000000000E+20
 15
-1.000000000000000E+20
 25
-1.000000000000000E+20
 35
-1.000000000000000E+20
146
0.0
 13
0.0
 23
0.0
 33
0.0
 16
1.0
 26
0.0
 36
0.0
 17
0.0
 27
1.0
 37
0.0
 76
     0
330
1F
331
29
  0
MATERIAL
  5
3D
102
{ACAD_REACTORS
330
3B
102
}
330
3B
100
AcDbMaterial
  1
ByBlock
 72
     1
 94
      127
  0
MATERIAL
  5
3C
102
{ACAD_REACTORS
330
3B
102
}
330
3B
100
AcDbMaterial
  1
ByLayer
 72
     1
 94
      127
  0
MATERIAL
  5
3E
102
{ACAD_REACTORS
330
3B
102
}
330
3B
100
AcDbMaterial
  1
Global
 72
     1
 94
      127
  0
MLINESTYLE
  5
18
102
{ACAD_REACTORS
330
17
102
}
330
17
100
AcDbMlineStyle
  2
Standard
 70
     0
  3

 62
   256
 51
90.0
 52
90.0
 71
     2
 49
0.5
 62
   256
  6
BYLAYER
 49
-0.5
 62
   256
  6
BYLAYER
  0
ACDBPLACEHOLDER
  5
F
102
{ACAD_REACTORS
330
E
102
}
330
E
  0
VISUALSTYLE
  5
2F
102
{ACAD_REACTORS
330
2A
102
}
330
2A
100
AcDbVisualStyle
  2
2dWireframe
 70
     4
177
     2
291
     0
 71
     0
176
     1
 72
     2
176
     1
 73
     0
176
     1
 90
        0
176
     1
 40
-0.6
176
     1
 41
-30.0
176
     1
 62
     5
 63
     7
421
 16777215
176
     1
 74
     1
176
     1
 91
        4
176
     1
 64
     7
176
     1
 65
   257
176
     1
 75
     1
176
     1
175
     1
176
     1
 42
1.0
176
     1
 92
        0
176
     1
 66
   257
176
     1
 43
1.0
176
     1
 76
     1
176
     1
 77
     6
176
     1
 78
     2
176
     1
 67
     7
176
     1
 79
     5
176
     1
170
     0
176
     1
171
     0
176
     1
290
     0
176
     1
 93
        1
176
     1
 44
0.0
176
     1
173
     0
176
     1
  0
VISUALSTYLE
  5
31
102
{ACAD_REACTORS
330
2A
102
}
330
2A
100
AcDbVisualStyle
  2
3D Hidden
 70
     6
177
     2
291
     0
 71
     1
176
     1
 72
     2
176
     1
 73
     2
176
     1
 90
        0
176
     1
 40
-0.6
176
     1
 41
-30.0
176
     1
 62
     5
 63
     7
421
 16777215
176
     1
 74
     2
176
     1
 91
        2
176
     1
 64
     7
176
     1
 65
   257
176
     1
 75
     2
176
     1
175
     1
176
     1
 42
40.0
176
     1
 92
        0
176
     1
 66
   257
176
     1
 43
1.0
176
     1
 76
     1
176
     1
 77
     6
176
     1
 78
     2
176
     1
 67
     7
176
     1
 79
     3
176
     1
170
     0
176
     1
171
     0
176
     1
290
     0
176
     1
 93
        1
176
     1
 44
0.0
176
     1
173
     0
176
     1
  0
VISUALSTYLE
  5
30
102
{ACAD_REACTORS
330
2A
102
}
330
2A
100
AcDbVisualStyle
  2
3dWireframe
 70
     5
177
     2
291
     0
 71
     0
176
     1
 72
     2
176
     1
 73
     0
176
     1
 90
        0
176
     1
 40
-0.6
176
     1
 41
-30.0
176
     1
 62
     5
 63
     7
421
 16777215
176
     1
 74
     1
176
     1
 91
        4
176
     1
 64
     7
176
     1
 65
   257
176
     1
 75
     1
176
     1
175
     1
176
     1
 42
1.0
176
     1
 92
        0
176
     1
 66
   257
176
     1
 43
1.0
176
     1
 76
     1
176
     1
 77
     6
176
     1
 78
     2
176
     1
 67
     7
176
     1
 79
     5
176
     1
170
     0
176
     1
171
     0
176
     1
290
     0
176
     1
 93
        1
176
     1
 44
0.0
176
     1
173
     0
176
     1
  0
VISUALSTYLE
  5
32
102
{ACAD_REACTORS
330
2A
102
}
330
2A
100
AcDbVisualStyle
  2
Basic
 70
     7
177
     2
291
     1
 71
     1
176
     1
 72
     0
176
     1
 73
     1
176
     1
 90
        0
176
     1
 40
-0.6
176
     1
 41
-30.0
176
     1
 62
     5
 63
     7
421
 16777215
176
     1
 74
     0
176
     1
 91
        4
176
     1
 64
     7
176
     1
 65
   257
176
     1
 75
     1
176
     1
175
     1
176
     1
 42
1.0
176
     1
 92
        8
176
     1
 66
     7
176
     1
 43
1.0
176
     1
 76
     1
176
     1
 77
     6
176
     1
 78
     2
176
     1
 67
     7
176
     1
 79
     5
176
     1
170
     0
176
     1
171
     0
176
     1
290
     0
176
     1
 93
        1
176
     1
 44
0.0
176
     1
173
     0
176
     1
  0
VISUALSTYLE
  5
36
102
{ACAD_REACTORS
330
2A
102
}
330
2A
100
AcDbVisualStyle
  2
Brighten
 70
    12
177
     2
291
     1
 71
     2
176
     1
 72
     2
176
     1
 73
     0
176
     1
 90
        0
176
     1
 40
-0.6
176
     1
 41
-30.0
176
     1
 62
     5
 63
     7
421
 16777215
176
     1
 74
     1
176
     1
 91
        4
176
     1
 64
     7
176
     1
 65
   257
176
     1
 75
     1
176
     1
175
     1
176
     1
 42
1.0
176
     1
 92
        8
176
     1
 66
     7
176
     1
 43
1.0
176
     1
 76
     1
176
     1
 77
     6
176
     1
 78
     2
176
     1
 67
     7
176
     1
 79
     5
176
     1
170
     0
176
     1
171
     0
176
     1
290
     0
176
     1
 93
        1
176
     1
 44
50.0
176
     1
173
     0
176
     1
  0
VISUALSTYLE
  5
3A
102
{ACAD_REACTORS
330
2A
102
}
330
2A
100
AcDbVisualStyle
  2
ColorChange
 70
    16
177
     2
291
     1
 71
     2
176
     1
 72
     2
176
     1
 73
     3
176
     1
 90
        0
176
     1
 40
-0.6
176
     1
 41
-30.0
176
     1
 62
     5
 63
     8
421
  8421504
176
     1
 74
     1
176
     1
 91
        4
176
     1
 64
     7
176
     1
 65
   257
176
     1
 75
     1
176
     1
175
     1
176
     1
 42
1.0
176
     1
 92
        8
176
     1
 66
     8
424
  8421504
176
     1
 43
1.0
176
     1
 76
     1
176
     1
 77
     6
176
     1
 78
     2
176
     1
 67
     7
176
     1
 79
     5
176
     1
170
     0
176
     1
171
     0
176
     1
290
     0
176
     1
 93
        1
176
     1
 44
0.0
176
     1
173
     0
176
     1
  0
VISUALSTYLE
  5
34
102
{ACAD_REACTORS
330
2A
102
}
330
2A
100
AcDbVisualStyle
  2
Conceptual
 70
     9
177
     2
291
     0
 71
     3
176
     1
 72
     2
176
     1
 73
     0
176
     1
 90
        0
176
     1
 40
-0.6
176
     1
 41
-30.0
176
     1
 62
     5
 63
     7
421
 16777215
176
     1
 74
     2
176
     1
 91
        2
176
     1
 64
     7
176
     1
 65
   257
176
     1
 75
     1
176
     1
175
     1
176
     1
 42
40.0
176
     1
 92
        8
176
     1
 66
     7
176
     1
 43
1.0
176
     1
 76
     1
176
     1
 77
     6
176
     1
 78
     2
176
     1
 67
     7
176
     1
 79
     3
176
     1
170
     0
176
     1
171
     0
176
     1
290
     0
176
     1
 93
        1
176
     1
 44
0.0
176
     1
173
     0
176
     1
  0
VISUALSTYLE
  5
35
102
{ACAD_REACTORS
330
2A
102
}
330
2A
100
AcDbVisualStyle
  2
Dim
 70
    11
177
     2
291
     1
 71
     2
176
     1
 72
     2
176
     1
 73
     0
176
     1
 90
        0
176
     1
 40
-0.6
176
     1
 41
-30.0
176
     1
 62
     5
 63
     7
421
 16777215
176
     1
 74
     1
176
     1
 91
        4
176
     1
 64
     7
176
     1
 65
   257
176
     1
 75
     1
176
     1
175
     1
176
     1
 42
1.0
176
     1
 92
        8
176
     1
 66
     7
176
     1
 43
1.0
176
     1
 76
     1
176
     1
 77
     6
176
     1
 78
     2
176
     1
 67
     7
176
     1
 79
     5
176
     1
170
     0
176
     1
171
     0
176
     1
290
     0
176
     1
 93
        1
176
     1
 44
-50.0
176
     1
173
     0
176
     1
  0
VISUALSTYLE
  5
39
102
{ACAD_REACTORS
330
2A
102
}
330
2A
100
AcDbVisualStyle
  2
Facepattern
 70
    15
177
     2
291
     1
 71
     2
176
     1
 72
     2
176
     1
 73
     0
176
     1
 90
        0
176
     1
 40
-0.6
176
     1
 41
-30.0
176
     1
 62
     5
 63
     7
421
 16777215
176
     1
 74
     1
176
     1
 91
        4
176
     1
 64
     7
176
     1
 65
   257
176
     1
 75
     1
176
     1
175
     1
176
     1
 42
1.0
176
     1
 92
        8
176
     1
 66
     7
176
     1
 43
1.0
176
     1
 76
     1
176
     1
 77
     6
176
     1
 78
     2
176
     1
 67
     7
176
     1
 79
     5
176
     1
170
     0
176
     1
171
     0
176
     1
290
     0
176
     1
 93
        1
176
     1
 44
0.0
176
     1
173
     0
176
     1
  0
VISUALSTYLE
  5
2B
102
{ACAD_REACTORS
330
2A
102
}
330
2A
100
AcDbVisualStyle
  2
Flat
 70
     0
177
     2
291
     1
 71
     2
176
     1
 72
     1
176
     1
 73
     1
176
     1
 90
        2
176
     1
 40
-0.6
176
     1
 41
30.0
176
     1
 62
     5
 63
     7
421
 16777215
176
     1
 74
     0
176
     1
 91
        4
176
     1
 64
     7
176
     1
 65
   257
176
     1
 75
     1
176
     1
175
     1
176
     1
 42
1.0
176
     1
 92
        8
176
     1
 66
     7
176
     1
 43
1.0
176
     1
 76
     1
176
     1
 77
     6
176
     1
 78
     2
176
     1
 67
     7
176
     1
 79
     5
176
     1
170
     0
176
     1
171
     0
176
     1
290
     0
176
     1
 93
       13
176
     1
 44
0.0
176
     1
173
     0
176
     1
  0
VISUALSTYLE
  5
2C
102
{ACAD_REACTORS
330
2A
102
}
330
2A
100
AcDbVisualStyle
  2
FlatWithEdges
 70
     1
177
     2
291
     1
 71
     2
176
     1
 72
     1
176
     1
 73
     1
176
     1
 90
        2
176
     1
 40
-0.6
176
     1
 41
30.0
176
     1
 62
     5
 63
     7
421
 16777215
176
     1
 74
     1
176
     1
 91
        4
176
     1
 64
     7
176
     1
 65
   257
176
     1
 75
     1
176
     1
175
     1
176
     1
 42
1.0
176
     1
 92
        0
176
     1
 66
   257
176
     1
 43
1.0
176
     1
 76
     1
176
     1
 77
     6
176
     1
 78
     2
176
     1
 67
     7
176
     1
 79
     5
176
     1
170
     0
176
     1
171
     0
176
     1
290
     0
176
     1
 93
       13
176
     1
 44
0.0
176
     1
173
     0
176
     1
  0
VISUALSTYLE
  5
2D
102
{ACAD_REACTORS
330
2A
102
}
330
2A
100
AcDbVisualStyle
  2
Gouraud
 70
     2
177
     2
291
     1
 71
     2
176
     1
 72
     2
176
     1
 73
     1
176
     1
 90
        2
176
     1
 40
-0.6
176
     1
 41
30.0
176
     1
 62
     5
 63
     7
421
 16777215
176
     1
 74
     0
176
     1
 91
        4
176
     1
 64
     7
176
     1
 65
   257
176
     1
 75
     1
176
     1
175
     1
176
     1
 42
1.0
176
     1
 92
        0
176
     1
 66
     7
176
     1
 43
1.0
176
     1
 76
     1
176
     1
 77
     6
176
     1
 78
     2
176
     1
 67
     7
176
     1
 79
     5
176
     1
170
     0
176
     1
171
     0
176
     1
290
     0
176
     1
 93
       13
176
     1
 44
0.0
176
     1
173
     0
176
     1
  0
VISUALSTYLE
  5
2E
102
{ACAD_REACTORS
330
2A
102
}
330
2A
100
AcDbVisualStyle
  2
GouraudWithEdges
 70
     3
177
     2
291
     1
 71
     2
176
     1
 72
     2
176
     1
 73
     1
176
     1
 90
        2
176
     1
 40
-0.6
176
     1
 41
30.0
176
     1
 62
     5
 63
     7
421
 16777215
176
     1
 74
     1
176
     1
 91
        4
176
     1
 64
     7
176
     1
 65
   257
176
     1
 75
     1
176
     1
175
     1
176
     1
 42
1.0
176
     1
 92
        0
176
     1
 66
   257
176
     1
 43
1.0
176
     1
 76
     1
176
     1
 77
     6
176
     1
 78
     2
176
     1
 67
     7
176
     1
 79
     5
176
     1
170
     0
176
     1
171
     0
176
     1
290
     0
176
     1
 93
       13
176
     1
 44
0.0
176
     1
173
     0
176
     1
  0
VISUALSTYLE
  5
38
102
{ACAD_REACTORS
330
2A
102
}
330
2A
100
AcDbVisualStyle
  2
Linepattern
 70
    14
177
     2
291
     1
 71
     2
176
     1
 72
     2
176
     1
 73
     0
176
     1
 90
        0
176
     1
 40
-0.6
176
     1
 41
-30.0
176
     1
 62
     5
 63
     7
421
 16777215
176
     1
 74
     1
176
     1
 91
        4
176
     1
 64
     7
176
     1
 65
   257
176
     1
 75
     7
176
     1
175
     7
176
     1
 42
1.0
176
     1
 92
        8
176
     1
 66
     7
176
     1
 43
1.0
176
     1
 76
     1
176
     1
 77
     6
176
     1
 78
     2
176
     1
 67
     7
176
     1
 79
     5
176
     1
170
     0
176
     1
171
     0
176
     1
290
     0
176
     1
 93
        1
176
     1
 44
0.0
176
     1
173
     0
176
     1
  0
VISUALSTYLE
  5
33
102
{ACAD_REACTORS
330
2A
102
}
330
2A
100
AcDbVisualStyle
  2
Realistic
 70
     8
177
     2
291
     0
 71
     2
176
     1
 72
     2
176
     1
 73
     0
176
     1
 90
        0
176
     1
 40
-0.6
176
     1
 41
-30.0
176
     1
 62
     5
 63
     7
421
 16777215
176
     1
 74
     1
176
     1
 91
        0
176
     1
 64
     7
176
     1
 65
   257
176
     1
 75
     1
176
     1
175
     1
176
     1
 42
1.0
176
     1
 92
        8
176
     1
 66
     8
424
  7895160
176
     1
 43
1.0
176
     1
 76
     1
176
     1
 77
     6
176
     1
 78
     2
176
     1
 67
     7
176
     1
 79
     5
176
     1
170
     0
176
     1
171
     0
176
     1
290
     0
176
     1
 93
       13
176
     1
 44
0.0
176
     1
173
     0
176
     1
  0
VISUALSTYLE
  5
37
102
{ACAD_REACTORS
330
2A
102
}
330
2A
100
AcDbVisualStyle
  2
Thicken
 70
    13
177
     2
291
     1
 71
     2
176
     1
 72
     2
176
     1
 73
     0
176
     1
 90
        0
176
     1
 40
-0.6
176
     1
 41
-30.0
176
     1
 62
     5
 63
     7
421
 16777215
176
     1
 74
     1
176
     1
 91
        4
176
     1
 64
     7
176
     1
 65
   257
176
     1
 75
     1
176
     1
175
     1
176
     1
 42
1.0
176
     1
 92
       12
176
     1
 66
     7
176
     1
 43
1.0
176
     1
 76
     1
176
     1
 77
     6
176
     1
 78
     2
176
     1
 67
     7
176
     1
 79
     5
176
     1
170
     0
176
     1
171
     0
176
     1
290
     0
176
     1
 93
        1
176
     1
 44
0.0
176
     1
173
     0
176
     1
  0
ENDSEC
  0
EOF
