  0
SECTION
  2
HEADER
  9
$ACADVER
  1
AC1024
  9
$ACADMAINTVER
 70
     6
  9
$DWGCODEPAGE
  3
ANSI_1251
  9
$INSBASE
 10
0.0
 20
0.0
 30
0.0
  9
$EXTMIN
 10
1.000000000000000E+20
 20
1.000000000000000E+20
 30
1.000000000000000E+20
  9
$EXTMAX
 10
-1.000000000000000E+20
 20
-1.000000000000000E+20
 30
-1.000000000000000E+20
  9
$LIMMIN
 10
0.0
 20
0.0
  9
$LIMMAX
 10
12.0
 20
9.0
  9
$ORTHOMODE
 70
     0
  9
$REGENMODE
 70
     1
  9
$FILLMODE
 70
     1
  9
$QTEXTMODE
 70
     0
  9
$MIRRTEXT
 70
     1
  9
$LTSCALE
 40
1.0
  9
$ATTMODE
 70
     1
  9
$TEXTSIZE
 40
0.2
  9
$TRACEWID
 40
0.05
  9
$TEXTSTYLE
  7
Standard
  9
$CLAYER
  8
0
  9
$CELTYPE
  6
ByLayer
  9
$CECOLOR
 62
   256
  9
$CELTSCALE
 40
1.0
  9
$DISPSILH
 70
     0
  9
$DIMSCALE
 40
1.0
  9
$DIMASZ
 40
0.18
  9
$DIMEXO
 40
0.0625
  9
$DIMDLI
 40
0.38
  9
$DIMRND
 40
0.0
  9
$DIMDLE
 40
0.0
  9
$DIMEXE
 40
0.18
  9
$DIMTP
 40
0.0
  9
$DIMTM
 40
0.0
  9
$DIMTXT
 40
0.18
  9
$DIMCEN
 40
0.09
  9
$DIMTSZ
 40
0.0
  9
$DIMTOL
 70
     0
  9
$DIMLIM
 70
     0
  9
$DIMTIH
 70
     1
  9
$DIMTOH
 70
     1
  9
$DIMSE1
 70
     0
  9
$DIMSE2
 70
     0
  9
$DIMTAD
 70
     0
  9
$DIMZIN
 70
     0
  9
$DIMBLK
  1

  9
$DIMASO
 70
     1
  9
$DIMSHO
 70
     1
  9
$DIMPOST
  1

  9
$DIMAPOST
  1

  9
$DIMALT
 70
     0
  9
$DIMALTD
 70
     2
  9
$DIMALTF
 40
25.4
  9
$DIMLFAC
 40
1.0
  9
$DIMTOFL
 70
     0
  9
$DIMTVP
 40
0.0
  9
$DIMTIX
 70
     0
  9
$DIMSOXD
 70
     0
  9
$DIMSAH
 70
     0
  9
$DIMBLK1
  1

  9
$DIMBLK2
  1

  9
$DIMSTYLE
  2
Standard
  9
$DIMCLRD
 70
     0
  9
$DIMCLRE
 70
     0
  9
$DIMCLRT
 70
     0
  9
$DIMTFAC
 40
1.0
  9
$DIMGAP
 40
0.09
  9
$DIMJUST
 70
     0
  9
$DIMSD1
 70
     0
  9
$DIMSD2
 70
     0
  9
$DIMTOLJ
 70
     1
  9
$DIMTZIN
 70
     0
  9
$DIMALTZ
 70
     0
  9
$DIMALTTZ
 70
     0
  9
$DIMUPT
 70
     0
  9
$DIMDEC
 70
     4
  9
$DIMTDEC
 70
     4
  9
$DIMALTU
 70
     2
  9
$DIMALTTD
 70
     2
  9
$DIMTXSTY
  7
Standard
  9
$DIMAUNIT
 70
     0
  9
$DIMADEC
 70
     0
  9
$DIMALTRND
 40
0.0
  9
$DIMAZIN
 70
     0
  9
$DIMDSEP
 70
    46
  9
$DIMATFIT
 70
     3
  9
$DIMFRAC
 70
     0
  9
$DIMLDRBLK
  1

  9
$DIMLUNIT
 70
     2
  9
$DIMLWD
 70
    -2
  9
$DIMLWE
 70
    -2
  9
$DIMTMOVE
 70
     0
  9
$DIMFXL
 40
1.0
  9
$DIMFXLON
 70
     0
  9
$DIMJOGANG
 40
0.7853981633974483
  9
$DIMTFILL
 70
     0
  9
$DIMTFILLCLR
 70
     0
  9
$DIMARCSYM
 70
     0
  9
$DIMLTYPE
  6

  9
$DIMLTEX1
  6

  9
$DIMLTEX2
  6

  9
$DIMTXTDIRECTION
 70
     0
  9
$LUNITS
 70
     2
  9
$LUPREC
 70
     4
  9
$SKETCHINC
 40
0.1
  9
$FILLETRAD
 40
0.5
  9
$AUNITS
 70
     0
  9
$AUPREC
 70
     0
  9
$MENU
  1
.
  9
$ELEVATION
 40
0.0
  9
$PELEVATION
 40
0.0
  9
$THICKNESS
 40
0.0
  9
$LIMCHECK
 70
     0
  9
$CHAMFERA
 40
0.5
  9
$CHAMFERB
 40
0.5
  9
$CHAMFERC
 40
1.0
  9
$CHAMFERD
 40
0.0
  9
$SKPOLY
 70
     0
  9
$TDCREATE
 40
2459337.673938715
  9
$TDUCREATE
 40
2459337.548938715
  9
$TDUPDATE
 40
2459337.673938715
  9
$TDUUPDATE
 40
2459337.548938715
  9
$TDINDWG
 40
0.0000000116
  9
$TDUSRTIMER
 40
0.0000000116
  9
$USRTIMER
 70
     1
  9
$ANGBASE
 50
0.0
  9
$ANGDIR
 70
     0
  9
$PDMODE
 70
     0
  9
$PDSIZE
 40
0.0
  9
$PLINEWID
 40
0.0
  9
$SPLFRAME
 70
     0
  9
$SPLINETYPE
 70
     6
  9
$SPLINESEGS
 70
     8
  9
$HANDSEED
  5
4C
  9
$SURFTAB1
 70
     6
  9
$SURFTAB2
 70
     6
  9
$SURFTYPE
 70
     6
  9
$SURFU
 70
     6
  9
$SURFV
 70
     6
  9
$UCSBASE
  2

  9
$UCSNAME
  2

  9
$UCSORG
 10
0.0
 20
0.0
 30
0.0
  9
$UCSXDIR
 10
1.0
 20
0.0
 30
0.0
  9
$UCSYDIR
 10
0.0
 20
1.0
 30
0.0
  9
$UCSORTHOREF
  2

  9
$UCSORTHOVIEW
 70
     0
  9
$UCSORGTOP
 10
0.0
 20
0.0
 30
0.0
  9
$UCSORGBOTTOM
 10
0.0
 20
0.0
 30
0.0
  9
$UCSORGLEFT
 10
0.0
 20
0.0
 30
0.0
  9
$UCSORGRIGHT
 10
0.0
 20
0.0
 30
0.0
  9
$UCSORGFRONT
 10
0.0
 20
0.0
 30
0.0
  9
$UCSORGBACK
 10
0.0
 20
0.0
 30
0.0
  9
$PUCSBASE
  2

  9
$PUCSNAME
  2

  9
$PUCSORG
 10
0.0
 20
0.0
 30
0.0
  9
$PUCSXDIR
 10
1.0
 20
0.0
 30
0.0
  9
$PUCSYDIR
 10
0.0
 20
1.0
 30
0.0
  9
$PUCSORTHOREF
  2

  9
$PUCSORTHOVIEW
 70
     0
  9
$PUCSORGTOP
 10
0.0
 20
0.0
 30
0.0
  9
$PUCSORGBOTTOM
 10
0.0
 20
0.0
 30
0.0
  9
$PUCSORGLEFT
 10
0.0
 20
0.0
 30
0.0
  9
$PUCSORGRIGHT
 10
0.0
 20
0.0
 30
0.0
  9
$PUCSORGFRONT
 10
0.0
 20
0.0
 30
0.0
  9
$PUCSORGBACK
 10
0.0
 20
0.0
 30
0.0
  9
$USERI1
 70
     0
  9
$USERI2
 70
     0
  9
$USERI3
 70
     0
  9
$USERI4
 70
     0
  9
$USERI5
 70
     0
  9
$USERR1
 40
0.0
  9
$USERR2
 40
0.0
  9
$USERR3
 40
0.0
  9
$USERR4
 40
0.0
  9
$USERR5
 40
0.0
  9
$WORLDVIEW
 70
     1
  9
$SHADEDGE
 70
     3
  9
$SHADEDIF
 70
    70
  9
$TILEMODE
 70
     1
  9
$MAXACTVP
 70
    64
  9
$PINSBASE
 10
0.0
 20
0.0
 30
0.0
  9
$PLIMCHECK
 70
     0
  9
$PEXTMIN
 10
1.000000000000000E+20
 20
1.000000000000000E+20
 30
1.000000000000000E+20
  9
$PEXTMAX
 10
-1.000000000000000E+20
 20
-1.000000000000000E+20
 30
-1.000000000000000E+20
  9
$PLIMMIN
 10
0.0
 20
0.0
  9
$PLIMMAX
 10
12.0
 20
9.0
  9
$UNITMODE
 70
     0
  9
$VISRETAIN
 70
     1
  9
$PLINEGEN
 70
     0
  9
$PSLTSCALE
 70
     1
  9
$TREEDEPTH
 70
  3020
  9
$CMLSTYLE
  2
Standard
  9
$CMLJUST
 70
     0
  9
$CMLSCALE
 40
1.0
  9
$PROXYGRAPHICS
 70
     1
  9
$MEASUREMENT
 70
     0
  9
$CELWEIGHT
370
    -1
  9
$ENDCAPS
280
     0
  9
$JOINSTYLE
280
     0
  9
$LWDISPLAY
290
     1
  9
$INSUNITS
 70
     1
  9
$HYPERLINKBASE
  1

  9
$STYLESHEET
  1

  9
$XEDIT
290
     1
  9
$CEPSNTYPE
380
     0
  9
$PSTYLEMODE
290
     1
  9
$FINGERPRINTGUID
  2
{4D12B6E4-523B-450F-8937-E01B7D53CE6A}
  9
$VERSIONGUID
  2
{FAEB1C32-E019-11D5-929B-00C0DF256EC4}
  9
$EXTNAMES
290
     1
  9
$PSVPSCALE
 40
0.0
  9
$OLESTARTUP
290
     0
  9
$SORTENTS
280
   127
  9
$INDEXCTL
280
     0
  9
$HIDETEXT
280
     1
  9
$XCLIPFRAME
280
     2
  9
$HALOGAP
280
     0
  9
$OBSCOLOR
 70
   257
  9
$OBSLTYPE
280
     0
  9
$INTERSECTIONDISPLAY
280
     0
  9
$INTERSECTIONCOLOR
 70
   257
  9
$DIMASSOC
280
     2
  9
$PROJECTNAME
  1

  9
$CAMERADISPLAY
290
     0
  9
$LENSLENGTH
 40
50.0
  9
$CAMERAHEIGHT
 40
0.0
  9
$STEPSPERSEC
 40
2.0
  9
$STEPSIZE
 40
6.0
  9
$3DDWFPREC
 40
2.0
  9
$PSOLWIDTH
 40
0.25
  9
$PSOLHEIGHT
 40
4.0
  9
$LOFTANG1
 40
1.570796326794897
  9
$LOFTANG2
 40
1.570796326794897
  9
$LOFTMAG1
 40
0.0
  9
$LOFTMAG2
 40
0.0
  9
$LOFTPARAM
 70
     7
  9
$LOFTNORMALS
280
     1
  9
$LATITUDE
 40
37.795
  9
$LONGITUDE
 40
-122.394
  9
$NORTHDIRECTION
 40
0.0
  9
$TIMEZONE
 70
 -8000
  9
$LIGHTGLYPHDISPLAY
280
     1
  9
$TILEMODELIGHTSYNCH
280
     1
  9
$CMATERIAL
347
3C
  9
$SOLIDHIST
280
     1
  9
$SHOWHIST
280
     1
  9
$DWFFRAME
280
     2
  9
$DGNFRAME
280
     2
  9
$REALWORLDSCALE
290
     1
  9
$INTERFERECOLOR
 62
   256
  9
$CSHADOW
280
     0
  9
$SHADOWPLANELOCATION
 40
0.0
  0
ENDSEC
  0
SECTION
  2
CLASSES
  0
CLASS
  1
ACDBDICTIONARYWDFLT
  2
AcDbDictionaryWithDefault
  3
ObjectDBX Classes
 90
        0
 91
        4
280
     0
281
     0
  0
CLASS
  1
VISUALSTYLE
  2
AcDbVisualStyle
  3
ObjectDBX Classes
 90
     4095
 91
        4
280
     0
281
     0
  0
CLASS
  1
MATERIAL
  2
AcDbMaterial
  3
ObjectDBX Classes
 90
     1153
 91
        4
280
     0
281
     0
  0
CLASS
  1
SUN
  2
AcDbSun
  3
SCENEOE
 90
     1024
 91
        4
280
     0
281
     0
  0
ENDSEC
  0
SECTION
  2
TABLES
  0
TABLE
  2
VPORT
  5
8
330
0
100
AcDbSymbolTable
 70
     1
  0
VPORT
  5
29
330
8
100
AcDbSymbolTableRecord
100
AcDbViewportTableRecord
  2
*Active
 70
     0
 10
0.0
 20
0.0
 11
1.0
 21
1.0
 12
0.0
 22
0.0
 13
0.0
 23
0.0
 14
0.5
 24
0.5
 15
0.5
 25
0.5
 16
0.0
 26
0.0
 36
1.0
 17
6.006565125863744
 27
-5.900699231738321
 37
0.0
 40
5.844104019032178
 41
2.053351542156034
 42
50.0
 43
0.0
 44
0.0
 50
0.0
 51
0.0
 71
     0
 72
   100
 73
     1
 74
     3
 75
     0
 76
     0
 77
     0
 78
     0
281
     0
 65
     1
110
0.0
120
0.0
130
0.0
111
1.0
121
0.0
131
0.0
112
0.0
122
1.0
132
0.0
 79
     0
146
0.0
 60
     3
 61
     5
292
     1
282
     1
141
0.0
142
0.0
 63
   250
361
3F
  0
ENDTAB
  0
TABLE
  2
LTYPE
  5
5
330
0
100
AcDbSymbolTable
 70
     1
  0
LTYPE
  5
14
330
5
100
AcDbSymbolTableRecord
100
AcDbLinetypeTableRecord
  2
ByBlock
 70
     0
  3

 72
    65
 73
     0
 40
0.0
  0
LTYPE
  5
15
330
5
100
AcDbSymbolTableRecord
100
AcDbLinetypeTableRecord
  2
ByLayer
 70
     0
  3

 72
    65
 73
     0
 40
0.0
  0
LTYPE
  5
16
330
5
100
AcDbSymbolTableRecord
100
AcDbLinetypeTableRecord
  2
Continuous
 70
     0
  3
Solid line
 72
    65
 73
     0
 40
0.0
  0
ENDTAB
  0
TABLE
  2
LAYER
  5
2
330
0
100
AcDbSymbolTable
 70
     2
  0
LAYER
  5
10
330
2
100
AcDbSymbolTableRecord
100
AcDbLayerTableRecord
  2
0
 70
     0
 62
     7
  6
Continuous
370
    -3
390
F
347
3E
  0
LAYER
  5
40
330
2
100
AcDbSymbolTableRecord
100
AcDbLayerTableRecord
  2
Layer 1
 70
     0
 62
     7
  6
Continuous
370
    -3
390
F
347
3E
  0
ENDTAB
  0
TABLE
  2
STYLE
  5
3
330
0
100
AcDbSymbolTable
 70
     1
  0
STYLE
  5
11
330
3
100
AcDbSymbolTableRecord
100
AcDbTextStyleTableRecord
  2
Standard
 70
     0
 40
0.0
 41
1.0
 50
0.0
 71
     0
 42
0.2
  3
txt
  4

  0
ENDTAB
  0
TABLE
  2
VIEW
  5
6
330
0
100
AcDbSymbolTable
 70
     0
  0
ENDTAB
  0
TABLE
  2
UCS
  5
7
330
0
100
AcDbSymbolTable
 70
     0
  0
ENDTAB
  0
TABLE
  2
APPID
  5
9
330
0
100
AcDbSymbolTable
 70
     1
  0
APPID
  5
12
330
9
100
AcDbSymbolTableRecord
100
AcDbRegAppTableRecord
  2
ACAD
 70
     0
  0
ENDTAB
  0
TABLE
  2
DIMSTYLE
  5
A
330
0
100
AcDbSymbolTable
 70
     1
100
AcDbDimStyleTable
  0
DIMSTYLE
105
27
330
A
100
AcDbSymbolTableRecord
100
AcDbDimStyleTableRecord
  2
Standard
 70
     0
178
     0
340
11
  0
ENDTAB
  0
TABLE
  2
BLOCK_RECORD
  5
1
330
0
100
AcDbSymbolTable
 70
     1
  0
BLOCK_RECORD
  5
1F
330
1
100
AcDbSymbolTableRecord
100
AcDbBlockTableRecord
  2
*Model_Space
340
22
 70
     0
280
     1
281
     0
  0
BLOCK_RECORD
  5
1B
330
1
100
AcDbSymbolTableRecord
100
AcDbBlockTableRecord
  2
*Paper_Space
340
1E
 70
     0
280
     1
281
     0
  0
BLOCK_RECORD
  5
23
330
1
100
AcDbSymbolTableRecord
100
AcDbBlockTableRecord
  2
*Paper_Space0
340
26
 70
     0
280
     1
281
     0
  0
ENDTAB
  0
ENDSEC
  0
SECTION
  2
BLOCKS
  0
BLOCK
  5
20
330
1F
100
AcDbEntity
  8
0
100
AcDbBlockBegin
  2
*Model_Space
 70
     0
 10
0.0
 20
0.0
 30
0.0
  3
*Model_Space
  1

  0
ENDBLK
  5
21
330
1F
100
AcDbEntity
  8
0
100
AcDbBlockEnd
  0
BLOCK
  5
1C
330
1B
100
AcDbEntity
 67
     1
  8
0
100
AcDbBlockBegin
  2
*Paper_Space
 70
     0
 10
0.0
 20
0.0
 30
0.0
  3
*Paper_Space
  1

  0
ENDBLK
  5
1D
330
1B
100
AcDbEntity
 67
     1
  8
0
100
AcDbBlockEnd
  0
BLOCK
  5
24
330
23
100
AcDbEntity
  8
0
100
AcDbBlockBegin
  2
*Paper_Space0
 70
     0
 10
0.0
 20
0.0
 30
0.0
  3
*Paper_Space0
  1

  0
ENDBLK
  5
25
330
23
100
AcDbEntity
  8
0
100
AcDbBlockEnd
  0
ENDSEC
  0
SECTION
  2
ENTITIES
  0
SPLINE
  5
41
330
1F
100
AcDbEntity
  8
Layer 1
370
     0
100
AcDbSpline
210
0.0
220
0.0
230
1.0
 70
    11
 71
     3
 72
   422
 73
   418
 74
     0
 42
0.0000000001
 43
0.0000000001
 12
1.0
 22
0.0
 32
0.0
 13
1.0
 23
0.0
 33
0.0
 40
0.0
 40
0.0
 40
0.0
 40
0.0
 40
1.0
 40
1.0
 40
1.0
 40
2.0
 40
2.0
 40
2.0
 40
3.0
 40
3.0
 40
3.0
 40
4.0
 40
4.0
 40
4.0
 40
5.0
 40
5.0
 40
5.0
 40
6.0
 40
6.0
 40
6.0
 40
7.0
 40
7.0
 40
7.0
 40
8.0
 40
8.0
 40
8.0
 40
9.0
 40
9.0
 40
9.0
 40
10.0
 40
10.0
 40
10.0
 40
11.0
 40
11.0
 40
11.0
 40
12.0
 40
12.0
 40
12.0
 40
13.0
 40
13.0
 40
13.0
 40
14.0
 40
14.0
 40
14.0
 40
15.0
 40
15.0
 40
15.0
 40
16.0
 40
16.0
 40
16.0
 40
17.0
 40
17.0
 40
17.0
 40
18.0
 40
18.0
 40
18.0
 40
19.0
 40
19.0
 40
19.0
 40
20.0
 40
20.0
 40
20.0
 40
21.0
 40
21.0
 40
21.0
 40
22.0
 40
22.0
 40
22.0
 40
23.0
 40
23.0
 40
23.0
 40
24.0
 40
24.0
 40
24.0
 40
25.0
 40
25.0
 40
25.0
 40
26.0
 40
26.0
 40
26.0
 40
27.0
 40
27.0
 40
27.0
 40
28.0
 40
28.0
 40
28.0
 40
29.0
 40
29.0
 40
29.0
 40
30.0
 40
30.0
 40
30.0
 40
31.0
 40
31.0
 40
31.0
 40
32.0
 40
32.0
 40
32.0
 40
33.0
 40
33.0
 40
33.0
 40
34.0
 40
34.0
 40
34.0
 40
35.0
 40
35.0
 40
35.0
 40
36.0
 40
36.0
 40
36.0
 40
37.0
 40
37.0
 40
37.0
 40
38.0
 40
38.0
 40
38.0
 40
39.0
 40
39.0
 40
39.0
 40
40.0
 40
40.0
 40
40.0
 40
41.0
 40
41.0
 40
41.0
 40
42.0
 40
42.0
 40
42.0
 40
43.0
 40
43.0
 40
43.0
 40
44.0
 40
44.0
 40
44.0
 40
45.0
 40
45.0
 40
45.0
 40
46.0
 40
46.0
 40
46.0
 40
47.0
 40
47.0
 40
47.0
 40
48.0
 40
48.0
 40
48.0
 40
49.0
 40
49.0
 40
49.0
 40
50.0
 40
50.0
 40
50.0
 40
51.0
 40
51.0
 40
51.0
 40
52.0
 40
52.0
 40
52.0
 40
53.0
 40
53.0
 40
53.0
 40
54.0
 40
54.0
 40
54.0
 40
55.0
 40
55.0
 40
55.0
 40
56.0
 40
56.0
 40
56.0
 40
57.0
 40
57.0
 40
57.0
 40
58.0
 40
58.0
 40
58.0
 40
59.0
 40
59.0
 40
59.0
 40
60.0
 40
60.0
 40
60.0
 40
61.0
 40
61.0
 40
61.0
 40
62.0
 40
62.0
 40
62.0
 40
63.0
 40
63.0
 40
63.0
 40
64.0
 40
64.0
 40
64.0
 40
65.0
 40
65.0
 40
65.0
 40
66.0
 40
66.0
 40
66.0
 40
67.0
 40
67.0
 40
67.0
 40
68.0
 40
68.0
 40
68.0
 40
69.0
 40
69.0
 40
69.0
 40
70.0
 40
70.0
 40
70.0
 40
71.0
 40
71.0
 40
71.0
 40
72.0
 40
72.0
 40
72.0
 40
73.0
 40
73.0
 40
73.0
 40
74.0
 40
74.0
 40
74.0
 40
75.0
 40
75.0
 40
75.0
 40
76.0
 40
76.0
 40
76.0
 40
77.0
 40
77.0
 40
77.0
 40
78.0
 40
78.0
 40
78.0
 40
79.0
 40
79.0
 40
79.0
 40
80.0
 40
80.0
 40
80.0
 40
81.0
 40
81.0
 40
81.0
 40
82.0
 40
82.0
 40
82.0
 40
83.0
 40
83.0
 40
83.0
 40
84.0
 40
84.0
 40
84.0
 40
85.0
 40
85.0
 40
85.0
 40
86.0
 40
86.0
 40
86.0
 40
87.0
 40
87.0
 40
87.0
 40
88.0
 40
88.0
 40
88.0
 40
89.0
 40
89.0
 40
89.0
 40
90.0
 40
90.0
 40
90.0
 40
91.0
 40
91.0
 40
91.0
 40
92.0
 40
92.0
 40
92.0
 40
93.0
 40
93.0
 40
93.0
 40
94.0
 40
94.0
 40
94.0
 40
95.0
 40
95.0
 40
95.0
 40
96.0
 40
96.0
 40
96.0
 40
97.0
 40
97.0
 40
97.0
 40
98.0
 40
98.0
 40
98.0
 40
99.0
 40
99.0
 40
99.0
 40
100.0
 40
100.0
 40
100.0
 40
101.0
 40
101.0
 40
101.0
 40
102.0
 40
102.0
 40
102.0
 40
103.0
 40
103.0
 40
103.0
 40
104.0
 40
104.0
 40
104.0
 40
105.0
 40
105.0
 40
105.0
 40
106.0
 40
106.0
 40
106.0
 40
107.0
 40
107.0
 40
107.0
 40
108.0
 40
108.0
 40
108.0
 40
109.0
 40
109.0
 40
109.0
 40
110.0
 40
110.0
 40
110.0
 40
111.0
 40
111.0
 40
111.0
 40
112.0
 40
112.0
 40
112.0
 40
113.0
 40
113.0
 40
113.0
 40
114.0
 40
114.0
 40
114.0
 40
115.0
 40
115.0
 40
115.0
 40
116.0
 40
116.0
 40
116.0
 40
117.0
 40
117.0
 40
117.0
 40
118.0
 40
118.0
 40
118.0
 40
119.0
 40
119.0
 40
119.0
 40
120.0
 40
120.0
 40
120.0
 40
121.0
 40
121.0
 40
121.0
 40
122.0
 40
122.0
 40
122.0
 40
123.0
 40
123.0
 40
123.0
 40
124.0
 40
124.0
 40
124.0
 40
125.0
 40
125.0
 40
125.0
 40
126.0
 40
126.0
 40
126.0
 40
127.0
 40
127.0
 40
127.0
 40
128.0
 40
128.0
 40
128.0
 40
129.0
 40
129.0
 40
129.0
 40
130.0
 40
130.0
 40
130.0
 40
131.0
 40
131.0
 40
131.0
 40
132.0
 40
132.0
 40
132.0
 40
133.0
 40
133.0
 40
133.0
 40
134.0
 40
134.0
 40
134.0
 40
135.0
 40
135.0
 40
135.0
 40
136.0
 40
136.0
 40
136.0
 40
137.0
 40
137.0
 40
137.0
 40
138.0
 40
138.0
 40
138.0
 40
139.0
 40
139.0
 40
139.0
 40
139.0
 10
11.80125386854191
 20
-5.723113888888886
 30
0.0
 10
11.62656081739947
 20
-5.623530555555551
 30
0.0
 10
11.404
 20
-5.574123611111114
 30
0.0
 10
11.12082471906433
 20
-5.572065277777773
 30
0.0
 10
11.1161566636267
 20
-5.572019444444448
 30
0.0
 10
11.1133636081417
 20
-5.571779166666665
 30
0.0
 10
11.1125138888889
 20
-5.572019444444448
 30
0.0
 10
11.11101916375648
 20
-5.570065277777783
 30
0.0
 10
11.1081566638288
 20
-5.56570833333333
 30
0.0
 10
11.10338583061598
 20
-5.556466666666665
 30
0.0
 10
11.09054555316258
 20
-5.531476388888891
 30
0.0
 10
11.07215277777777
 20
-5.499036111111106
 30
0.0
 10
11.04386360989742
 20
-5.469987500000002
 30
0.0
 10
10.97376500055715
 20
-5.398130555555554
 30
0.0
 10
10.89043583599555
 20
-5.346229166666666
 30
0.0
 10
10.79620833333332
 20
-5.315663888888884
 30
0.0
 10
10.55426640004346
 20
-5.237195833333329
 30
0.0
 10
10.30945112845024
 20
-5.221551388888884
 30
0.0
 10
10.06856780120213
 20
-5.26909583333333
 30
0.0
 10
9.770138888888898
 20
-5.328031944444446
 30
0.0
 10
9.501573371081172
 20
-5.387762499999995
 30
0.0
 10
9.245067822005492
 20
-5.519050000000005
 30
0.0
 10
9.196523378787383
 20
-5.408890277777775
 30
0.0
 10
9.091376159221403
 20
-5.34848194444444
 30
0.0
 10
8.965249999999994
 20
-5.359483333333338
 30
0.0
 10
8.879851164564974
 20
-5.367070833333337
 30
0.0
 10
8.799728944366809
 20
-5.386588888888885
 30
0.0
 10
8.727090057312934
 20
-5.417454166666667
 30
0.0
 10
8.53088888888889
 20
-5.500806944444447
 30
0.0
 10
8.34506645585255
 20
-5.602401388888893
 30
0.0
 10
8.174787293487498
 20
-5.719493055555555
 30
0.0
 10
8.132841461213804
 20
-5.748311111111105
 30
0.0
 10
8.118827572678937
 20
-5.752668055555558
 30
0.0
 10
8.077963684822356
 20
-5.729183333333329
 30
0.0
 10
7.900476189306068
 20
-5.627288888888895
 30
0.0
 10
7.702641472081571
 20
-5.556030555555556
 30
0.0
 10
7.515302587925261
 20
-5.49419722222222
 30
0.0
 10
7.014578989463492
 20
-5.328918055555556
 30
0.0
 10
6.554858167743683
 20
-5.240772222222227
 30
0.0
 10
6.10989845676209
 20
-5.224723611111105
 30
0.0
 10
6.048559569422751
 20
-5.222529166666669
 30
0.0
 10
6.000487348414936
 20
-5.204480555555556
 30
0.0
 10
5.954010960700139
 20
-5.166179166666666
 30
0.0
 10
5.854888888888884
 20
-5.084584722222226
 30
0.0
 10
5.796537353567146
 20
-5.001669444444448
 30
0.0
 10
5.770340132006721
 20
-4.905315277777782
 30
0.0
 10
5.769144298703597
 20
-4.900912500000004
 30
0.0
 10
5.768695687603818
 20
-4.898027777777783
 30
0.0
 10
5.768236111111112
 20
-4.897051388888889
 30
0.0
 10
5.769316520921469
 20
-4.896211111111117
 30
0.0
 10
5.771098465320898
 20
-4.895084722222223
 30
0.0
 10
5.773788743030713
 20
-4.89367083333333
 30
0.0
 10
5.773788743030713
 20
-4.89367083333333
 30
0.0
 10
5.799341520162973
 20
-4.880118055555562
 30
0.0
 10
5.799341520162973
 20
-4.880118055555562
 30
0.0
 10
5.857772074242448
 20
-4.849206944444441
 30
0.0
 10
5.912973461736834
 20
-4.819951388888891
 30
0.0
 10
5.971404015816309
 20
-4.795397222222227
 30
0.0
 10
6.298398452000178
 20
-4.658201388888894
 30
0.0
 10
6.641210943340006
 20
-4.504359722222223
 30
0.0
 10
6.922916666666676
 20
-4.267315277777773
 30
0.0
 10
7.23890953935198
 20
-4.001418055555556
 30
0.0
 10
7.519578976706119
 20
-3.58148333333333
 30
0.0
 10
7.359574814081498
 20
-3.200391666666671
 30
0.0
 10
7.282948427128353
 20
-3.017891666666666
 30
0.0
 10
7.121944444444453
 20
-2.941333333333331
 30
0.0
 10
6.928858158295649
 20
-2.995925000000006
 30
0.0
 10
6.87446232633647
 20
-3.011281944444439
 30
0.0
 10
6.821469272119631
 20
-3.036134722222224
 30
0.0
 10
6.762130384729769
 20
-3.07409305555556
 30
0.0
 10
6.667167887128723
 20
-3.134798611111111
 30
0.0
 10
6.572194444444449
 20
-3.198437500000005
 30
0.0
 10
6.480380391847373
 20
-3.259970833333328
 30
0.0
 10
6.347552617425107
 20
-3.348990277777779
 30
0.0
 10
6.210208333333336
 20
-3.440998611111114
 30
0.0
 10
6.071435957733734
 20
-3.524983333333327
 30
0.0
 10
5.847898463380766
 20
-3.660237499999994
 30
0.0
 10
5.586517914428239
 20
-3.741830555555553
 30
0.0
 10
5.272340144587259
 20
-3.774454166666664
 30
0.0
 10
5.010983206745246
 20
-3.80160694444444
 30
0.0
 10
4.784169323586158
 20
-3.871061111111114
 30
0.0
 10
4.578898495438403
 20
-3.986841666666666
 30
0.0
 10
4.500972222222217
 20
-4.030811111111108
 30
0.0
 10
4.42129711053086
 20
-4.074493055555561
 30
0.0
 10
4.340980445893162
 20
-4.118520833333327
 30
0.0
 10
4.161631839312778
 20
-4.21684027777778
 30
0.0
 10
3.976165177331394
 20
-4.318480555555551
 30
0.0
 10
3.801540181742793
 20
-4.42834166666666
 30
0.0
 10
3.535688799569875
 20
-4.595631944444449
 30
0.0
 10
3.319486111111107
 20
-4.796719444444445
 30
0.0
 10
3.076624999999997
 20
-5.047213888888892
 30
0.0
 10
2.939956870174885
 20
-5.188134722222217
 30
0.0
 10
2.804392984710628
 20
-5.261899999999994
 30
0.0
 10
2.649941599723509
 20
-5.27931527777778
 30
0.0
 10
1.986986111111112
 20
-5.354448611111112
 30
0.0
 10
1.222904166666669
 20
-5.100586111111107
 30
0.0
 10
0.7290666666666664
 20
-4.838298611111112
 30
0.0
 10
0.725859722222228
 20
-4.836586111111109
 30
0.0
 10
0.7226069444444394
 20
-4.835068055555553
 30
0.0
 10
0.7174222222222271
 20
-4.832676388888886
 30
0.0
 10
0.6599000000000058
 20
-4.806306944444448
 30
0.0
 10
0.6056527777777774
 20
-4.82304444444445
 30
0.0
 10
0.5757194444444419
 20
-4.876106944444447
 30
0.0
 10
0.5474416666666634
 20
-4.926202777777777
 30
0.0
 10
0.5622124999999994
 20
-4.982495833333334
 30
0.0
 10
0.6124236111111132
 20
-5.0162
 30
0.0
 10
0.6767513888888869
 20
-5.059295833333332
 30
0.0
 10
0.7458958333333309
 20
-5.088688888888883
 30
0.0
 10
0.8127875000000004
 20
-5.117116666666662
 30
0.0
 10
1.250425000000001
 20
-5.303191666666672
 30
0.0
 10
1.67600412432724
 20
-5.423708333333328
 30
0.0
 10
2.077718003067983
 20
-5.475368055555552
 30
0.0
 10
2.451302715852661
 20
-5.523199999999999
 30
0.0
 10
2.875341594029426
 20
-5.549225000000003
 30
0.0
 10
3.177737419723599
 20
-5.247909722222226
 30
0.0
 10
3.382295747889354
 20
-5.044087499999995
 30
0.0
 10
3.614155464254306
 20
-4.813054166666663
 30
0.0
 10
3.88590406850047
 20
-4.632520833333337
 30
0.0
 10
4.2181068378861
 20
-4.411811111111117
 30
0.0
 10
4.604625000000005
 20
-4.167581944444438
 30
0.0
 10
4.987855429551725
 20
-4.063297222222218
 30
0.0
 10
5.107451259863814
 20
-4.030765277777783
 30
0.0
 10
5.232497090038223
 20
-4.006843055555552
 30
0.0
 10
5.353416666666665
 20
-3.983761111111107
 30
0.0
 10
5.539491526727336
 20
-3.948252777777775
 30
0.0
 10
5.731865132978681
 20
-3.911466666666671
 30
0.0
 10
5.914513888888892
 20
-3.841909722222226
 30
0.0
 10
6.134142900594068
 20
-3.7582125
 30
0.0
 10
6.333126228900659
 20
-3.63074027777778
 30
0.0
 10
6.49877344693828
 20
-3.517018055555556
 30
0.0
 10
6.543973445796432
 20
-3.486050000000002
 30
0.0
 10
6.589585944644163
 20
-3.451322222222226
 30
0.0
 10
6.633705387974057
 20
-3.417766666666668
 30
0.0
 10
6.741887329685596
 20
-3.335449999999999
 30
0.0
 10
6.853748437970857
 20
-3.250326388888892
 30
0.0
 10
6.973840101603754
 20
-3.207483333333332
 30
0.0
 10
7.065353988180807
 20
-3.174711111111113
 30
0.0
 10
7.113656764738354
 20
-3.193448611111105
 30
0.0
 10
7.158247041389687
 20
-3.278559722222225
 30
0.0
 10
7.295327593482297
 20
-3.540250000000002
 30
0.0
 10
7.043201210962656
 20
-3.853162500000002
 30
0.0
 10
6.928422047195554
 20
-3.975587499999998
 30
0.0
 10
6.713127608189906
 20
-4.205194444444449
 30
0.0
 10
6.426698448759048
 20
-4.352184722222217
 30
0.0
 10
6.151822066814121
 20
-4.483081944444444
 30
0.0
 10
6.096770679315947
 20
-4.509302777777773
 30
0.0
 10
6.03877777777777
 20
-4.533212500000003
 30
0.0
 10
5.982704015530847
 20
-4.556352777777773
 30
0.0
 10
5.878142907061171
 20
-4.599448611111105
 30
0.0
 10
5.770017909792639
 20
-4.644016666666667
 30
0.0
 10
5.670410967864478
 20
-4.707159722222223
 30
0.0
 10
5.638787357552246
 20
-4.727219444444446
 30
0.0
 10
5.606773469472096
 20
-4.746726388888886
 30
0.0
 10
5.574781803613607
 20
-4.766245833333338
 30
0.0
 10
5.501890138788339
 20
-4.810709722222226
 30
0.0
 10
5.426515140692471
 20
-4.856644444444441
 30
0.0
 10
5.355784586923719
 20
-4.909075000000004
 30
0.0
 10
5.288260977518399
 20
-4.959068055555551
 30
0.0
 10
5.293883199598591
 20
-5.021533333333334
 30
0.0
 10
5.321666666666665
 20
-5.063352777777772
 30
0.0
 10
5.348277777777778
 20
-5.103219444444449
 30
0.0
 10
5.406605418973211
 20
-5.131543055555552
 30
0.0
 10
5.483820694800366
 20
-5.080573611111112
 30
0.0
 10
5.483820694800366
 20
-5.080573611111112
 30
0.0
 10
5.527719304802505
 20
-5.051858333333333
 30
0.0
 10
5.527719304802505
 20
-5.051858333333333
 30
0.0
 10
5.544916666666672
 20
-5.040706944444448
 30
0.0
 10
5.562113748378073
 20
-5.029556944444443
 30
0.0
 10
5.58020680347656
 20
-5.017568055555557
 30
0.0
 10
5.605370691729755
 20
-5.088102777777774
 30
0.0
 10
5.645294301832311
 20
-5.147981944444445
 30
0.0
 10
5.686469300792143
 20
-5.200365277777778
 30
0.0
 10
5.686469300792143
 20
-5.200365277777778
 30
0.0
 10
5.634580413214078
 20
-5.194354166666673
 30
0.0
 10
5.634580413214078
 20
-5.194354166666673
 30
0.0
 10
5.561917915049687
 20
-5.185788888888888
 30
0.0
 10
5.489223472441659
 20
-5.177224999999996
 30
0.0
 10
5.416387363170543
 20
-5.170281944444443
 30
0.0
 10
5.370509586551734
 20
-5.165833333333327
 30
0.0
 10
5.341645698392009
 20
-5.180995833333327
 30
0.0
 10
5.325437365468133
 20
-5.194445833333336
 30
0.0
 10
5.304308199335233
 20
-5.212009722222218
 30
0.0
 10
5.291734588541758
 20
-5.236851388888883
 30
0.0
 10
5.289042921943089
 20
-5.266302777777784
 30
0.0
 10
5.283387366530405
 20
-5.328377777777783
 30
0.0
 10
5.324770698818307
 20
-5.374449999999999
 30
0.0
 10
5.394523474833982
 20
-5.383795833333338
 30
0.0
 10
5.572091525903791
 20
-5.407419444444447
 30
0.0
 10
5.752487354679943
 20
-5.417109722222222
 30
0.0
 10
5.926940128050672
 20
-5.426455555555561
 30
0.0
 10
6.094149846048822
 20
-5.43545555555555
 30
0.0
 10
6.267097222222219
 20
-5.444698611111107
 30
0.0
 10
6.435502615203303
 20
-5.466320833333334
 30
0.0
 10
6.90474149223822
 20
-5.526475000000005
 30
0.0
 10
7.347448425498946
 20
-5.642945833333329
 30
0.0
 10
7.751334526407036
 20
-5.812431944444445
 30
0.0
 10
7.813087302624808
 20
-5.838365277777775
 30
0.0
 10
7.874208333333323
 20
-5.866633333333336
 30
0.0
 10
7.931167855197398
 20
-5.893830555555559
 30
0.0
 10
7.851884523866929
 20
-5.958101388888887
 30
0.0
 10
7.771877581443631
 20
-6.021497222222226
 30
0.0
 10
7.691903972352823
 20
-6.084894444444444
 30
0.0
 10
7.520463698905991
 20
-6.220780555555544
 30
0.0
 10
7.343194444444432
 20
-6.361263888888894
 30
0.0
 10
7.175558152063482
 20
-6.508783333333339
 30
0.0
 10
6.963734546303486
 20
-6.695248611111108
 30
0.0
 10
6.75587760710995
 20
-6.877069444444436
 30
0.0
 10
6.541777777777774
 20
-7.051740277777778
 30
0.0
 10
6.524706779616483
 20
-7.065626388888884
 30
0.0
 10
6.52186789079931
 20
-7.065236111111112
 30
0.0
 10
6.517533168686592
 20
-7.064706944444449
 30
0.0
 10
6.359392894903774
 20
-7.043762500000007
 30
0.0
 10
6.200965121128219
 20
-7.05335000000001
 30
0.0
 10
6.04768595833371
 20
-7.062545833333338
 30
0.0
 10
6.04768595833371
 20
-7.062545833333338
 30
0.0
 10
6.012981792543743
 20
-7.064650000000003
 30
0.0
 10
6.012981792543743
 20
-7.064650000000003
 30
0.0
 10
5.900006795397732
 20
-7.071259722222218
 30
0.0
 10
5.789640131519162
 20
-7.095468055555557
 30
0.0
 10
5.6829290231038
 20
-7.118895833333327
 30
0.0
 10
5.6829290231038
 20
-7.118895833333327
 30
0.0
 10
5.660065134792502
 20
-7.123884722222227
 30
0.0
 10
5.660065134792502
 20
-7.123884722222227
 30
0.0
 10
5.598449858571257
 20
-7.137345833333332
 30
0.0
 10
5.563355415013373
 20
-7.18615416666666
 30
0.0
 10
5.572723470332272
 20
-7.245390277777788
 30
0.0
 10
5.582380414532761
 20
-7.306487500000003
 30
0.0
 10
5.630155413325863
 20
-7.340145833333331
 30
0.0
 10
5.697527777777774
 20
-7.33446666666666
 30
0.0
 10
5.709322077992611
 20
-7.333340277777779
 30
0.0
 10
5.721059577696097
 20
-7.330754166666666
 30
0.0
 10
5.732669299625033
 20
-7.328006944444446
 30
0.0
 10
5.732669299625033
 20
-7.328006944444446
 30
0.0
 10
5.738348466148232
 20
-7.326684722222226
 30
0.0
 10
5.738348466148232
 20
-7.326684722222226
 30
0.0
 10
5.915180555555556
 20
-7.286381944444454
 30
0.0
 10
6.101024845875145
 20
-7.266230555555542
 30
0.0
 10
6.293434563236688
 20
-7.269219444444438
 30
0.0
 10
6.2923067854874
 20
-7.270288888888899
 30
0.0
 10
6.291156785516452
 20
-7.271369444444442
 30
0.0
 10
6.290030396656018
 20
-7.272438888888877
 30
0.0
 10
6.231462342580016
 20
-7.328501388888879
 30
0.0
 10
6.170904010776515
 20
-7.386413888888884
 30
0.0
 10
6.119198456527152
 20
-7.453569444444433
 30
0.0
 10
6.095863734894414
 20
-7.483905555555566
 30
0.0
 10
6.085908179590357
 20
-7.516380555555543
 30
0.0
 10
6.090415123920947
 20
-7.547440277777771
 30
0.0
 10
6.094208333333325
 20
-7.5736611111111
 30
0.0
 10
6.108554012351608
 20
-7.596938888888896
 30
0.0
 10
6.130890122898462
 20
-7.613136111111114
 30
0.0
 10
6.180997066077098
 20
-7.649334722222218
 30
0.0
 10
6.23892206461379
 20
-7.640816666666675
 30
0.0
 10
6.28191511908325
 20
-7.590834722222224
 30
0.0
 10
6.409041666666679
 20
-7.443062499999996
 30
0.0
 10
6.561929000898393
 20
-7.315441666666654
 30
0.0
 10
6.709792886051925
 20
-7.19202916666667
 30
0.0
 10
6.709792886051925
 20
-7.19202916666667
 30
0.0
 10
6.745967885138068
 20
-7.161841666666659
 30
0.0
 10
6.745967885138068
 20
-7.161841666666659
 30
0.0
 10
6.887797048221828
 20
-7.043233333333344
 30
0.0
 10
7.030384544619765
 20
-6.920947222222215
 30
0.0
 10
7.16827065224758
 20
-6.802718055555563
 30
0.0
 10
7.41509722222223
 20
-6.591008333333345
 30
0.0
 10
7.670327584009
 20
-6.372115277777766
 30
0.0
 10
7.929627577458531
 20
-6.167269444444451
 30
0.0
 10
8.208813681516807
 20
-5.946709722222218
 30
0.0
 10
8.457491453012455
 20
-5.784751388888885
 30
0.0
 10
8.712238668799221
 20
-5.657476388888893
 30
0.0
 10
8.794441444500382
 20
-5.616391666666661
 30
0.0
 10
8.883805555555556
 20
-5.588412500000004
 30
0.0
 10
8.977894217643753
 20
-5.574273611111114
 30
0.0
 10
9.00619560581769
 20
-5.569870833333336
 30
0.0
 10
9.028749999999995
 20
-5.575687499999995
 30
0.0
 10
9.039877549411257
 20
-5.58991805555556
 30
0.0
 10
9.051097222222223
 20
-5.604252777777774
 30
0.0
 10
9.05122338245797
 20
-5.627829166666666
 30
0.0
 10
9.040165049403994
 20
-5.654544444444443
 30
0.0
 10
9.032830327367062
 20
-5.672293055555555
 30
0.0
 10
9.020921994334559
 20
-5.690202777777775
 30
0.0
 10
9.007299772456463
 20
-5.710698611111107
 30
0.0
 10
8.917613663611013
 20
-5.845504166666665
 30
0.0
 10
8.801487277655724
 20
-5.974493055555564
 30
0.0
 10
8.662199781174422
 20
-6.094090277777771
 30
0.0
 10
8.462560897328835
 20
-6.265484722222229
 30
0.0
 10
8.287983123961263
 20
-6.464859722222222
 30
0.0
 10
8.119173406003533
 20
-6.657681944444448
 30
0.0
 10
8.03141785266487
 20
-6.7578625
 30
0.0
 10
7.940685910512506
 20
-6.861516666666678
 30
0.0
 10
7.847942857299838
 20
-6.959387499999997
 30
0.0
 10
7.70763036084443
 20
-7.107504166666659
 30
0.0
 10
7.544085920531465
 20
-7.232918055555551
 30
0.0
 10
7.385947035637501
 20
-7.354227777777774
 30
0.0
 10
7.221688706453683
 20
-7.480238888888884
 30
0.0
 10
7.051834544077892
 20
-7.610491666666676
 30
0.0
 10
6.904798436681226
 20
-7.76789722222222
 30
0.0
 10
6.850345660279041
 20
-7.826109722222226
 30
0.0
 10
6.797524828280075
 20
-7.885781944444438
 30
0.0
 10
6.744691496281424
 20
-7.945406944444433
 30
0.0
 10
6.665283164954113
 20
-8.035116666666656
 30
0.0
 10
6.583148444806788
 20
-8.127861111111113
 30
0.0
 10
6.497037335871028
 20
-8.213362500000004
 30
0.0
 10
6.377738727773653
 20
-8.331890277777777
 30
0.0
 10
6.251072064306855
 20
-8.422922222222217
 30
0.0
 10
6.120590123158662
 20
-8.484008333333325
 30
0.0
 10
5.765201243247652
 20
-8.65042499999999
 30
0.0
 10
5.336197087418541
 20
-8.596420833333342
 30
0.0
 10
5.002155429190477
 20
-8.530679166666662
 30
0.0
 10
4.680000000000001
 20
-8.467327777777781
 30
0.0
 10
4.361765167590319
 20
-8.36172083333334
 30
0.0
 10
4.054023508697861
 20
-8.259538888888882
 30
0.0
 10
3.969740177493703
 20
-8.231559722222224
 30
0.0
 10
3.885479068511207
 20
-8.203637500000013
 30
0.0
 10
3.801058237310523
 20
-8.176440277777777
 30
0.0
 10
3.607236111111105
 20
-8.114066666666657
 30
0.0
 10
3.415655469268838
 20
-8.034393055555558
 30
0.0
 10
3.230373529505009
 20
-7.95729305555556
 30
0.0
 10
3.075556866749341
 20
-7.892827777777787
 30
0.0
 10
2.915459648571515
 20
-7.826258333333321
 30
0.0
 10
2.753594374882798
 20
-7.769461111111114
 30
0.0
 10
2.45509722222222
 20
-7.66473888888888
 30
0.0
 10
2.145712445794743
 20
-7.592640277777768
 30
0.0
 10
1.846524953352855
 20
-7.52288611111112
 30
0.0
 10
1.682612457493633
 20
-7.484687500000013
 30
0.0
 10
1.513091628442756
 20
-7.445212499999999
 30
0.0
 10
1.348916666666671
 20
-7.4011861111111
 30
0.0
 10
1.115813888888889
 20
-7.332076388888885
 30
0.0
 10
0.8814138888888894
 20
-7.252195833333341
 30
0.0
 10
0.6547388888888892
 20
-7.174958333333329
 30
0.0
 10
0.539888888888893
 20
-7.135827777777775
 30
0.0
 10
0.4250388888888841
 20
-7.0966986111111
 30
0.0
 10
0.3098444444444415
 20
-7.058729166666656
 30
0.0
 10
0.3098444444444415
 20
-7.058729166666656
 30
0.0
 10
0.2912000000000035
 20
-7.052568055555563
 30
0.0
 10
0.2912000000000035
 20
-7.052568055555563
 30
0.0
 10
0.2463222222222233
 20
-7.03775000000001
 30
0.0
 10
0.2014680555555515
 20
-7.022933333333336
 30
0.0
 10
0.1563263888888918
 20
-7.009184722222218
 30
0.0
 10
0.1245993055555598
 20
-6.999597222222215
 30
0.0
 10
0.0946186111111097
 20
-6.999747222222216
 30
0.0
 10
0.0696518055555594
 20
-7.009816666666666
 30
0.0
 10
0.0414758333333288
 20
-7.021162499999996
 30
0.0
 10
0.0208073611111104
 20
-7.044405555555563
 30
0.0
 10
0.0114855972222282
 20
-7.075074999999995
 30
0.0
 10
-0.0024591527777728
 20
-7.120804166666655
 30
0.0
 10
0.0103121250000034
 20
-7.180774999999989
 30
0.0
 10
0.088008749999997
 20
-7.211984722222218
 30
0.0
 10
0.0958830555555576
 20
-7.215169444444452
 30
0.0
 10
0.1039643055555517
 20
-7.217858333333323
 30
0.0
 10
0.1120569444444502
 20
-7.22044583333334
 30
0.0
 10
0.1120569444444502
 20
-7.22044583333334
 30
0.0
 10
0.1191725000000032
 20
-7.222790277777777
 30
0.0
 10
0.1191725000000032
 20
-7.222790277777777
 30
0.0
 10
0.7366194444444495
 20
-7.428877777777769
 30
0.0
 10
1.395380520305278
 20
-7.642575000000003
 30
0.0
 10
2.063579114536272
 20
-7.79166944444445
 30
0.0
 10
2.521815214071365
 20
-7.893954166666667
 30
0.0
 10
2.966717980609954
 20
-8.072097222222231
 30
0.0
 10
3.396998525295708
 20
-8.244330555555557
 30
0.0
 10
3.59605129804499
 20
-8.324062500000005
 30
0.0
 10
3.801886015067389
 20
-8.406437499999987
 30
0.0
 10
4.006697121004537
 20
-8.480444444444451
 30
0.0
 10
4.424252666011752
 20
-8.631297222222226
 30
0.0
 10
4.95432348595437
 20
-8.822751388888895
 30
0.0
 10
5.483647083693641
 20
-8.822751388888895
 30
0.0
 10
5.679572078744159
 20
-8.822751388888895
 30
0.0
 10
5.875474851573017
 20
-8.796530555555567
 30
0.0
 10
6.065447068996137
 20
-8.732248611111117
 30
0.0
 10
6.105508179095219
 20
-8.718661111111107
 30
0.0
 10
6.144684566994429
 20
-8.703544444444434
 30
0.0
 10
6.181779010501789
 20
-8.687394444444433
 30
0.0
 10
6.452309559223168
 20
-8.570004166666674
 30
0.0
 10
6.654867887439448
 20
-8.370824999999993
 30
0.0
 10
6.833424827373165
 20
-8.17305972222223
 30
0.0
 10
6.839690104992668
 20
-8.166116666666666
 30
0.0
 10
6.845701215951926
 20
-8.158875000000004
 30
0.0
 10
6.851701215800353
 20
-8.151587500000005
 30
0.0
 10
6.866151215435315
 20
-8.134079166666677
 30
0.0
 10
6.878623437342462
 20
-8.118918055555543
 30
0.0
 10
6.893567881409378
 20
-8.111433333333327
 30
0.0
 10
6.913351214242943
 20
-8.101548611111108
 30
0.0
 10
6.932938713748121
 20
-8.091179166666658
 30
0.0
 10
6.952538713252983
 20
-8.08085694444445
 30
0.0
 10
7.002427600881573
 20
-8.054486111111121
 30
0.0
 10
7.04955815524651
 20
-8.029598611111117
 30
0.0
 10
7.099690098424515
 20
-8.011734722222222
 30
0.0
 10
7.193467873833267
 20
-7.97828333333334
 30
0.0
 10
7.288131760330745
 20
-7.946591666666664
 30
0.0
 10
7.382910924603088
 20
-7.914841666666663
 30
0.0
 10
7.701077583232189
 20
-7.808256944444438
 30
0.0
 10
8.03009563047605
 20
-7.698051388888896
 30
0.0
 10
8.325352567461676
 20
-7.520093055555561
 30
0.0
 10
8.591123394081073
 20
-7.35995138888888
 30
0.0
 10
8.787738666891931
 20
-7.147761111111119
 30
0.0
 10
8.945006718474561
 20
-6.961295833333325
 30
0.0
 10
8.960237273645362
 20
-6.943247222222226
 30
0.0
 10
8.973617828862896
 20
-6.933166666666668
 30
0.0
 10
8.991125000000011
 20
-6.926568055555562
 30
0.0
 10
9.19813310096894
 20
-6.848698611111104
 30
0.0
 10
9.401059484731478
 20
-6.774543055555543
 30
0.0
 10
9.607744201732404
 20
-6.723031944444452
 30
0.0
 10
10.08997222222221
 20
-6.602802777777772
 30
0.0
 10
10.56901501078199
 20
-6.534176388888883
 30
0.0
 10
11.10032749735991
 20
-6.46309999999999
 30
0.0
 10
11.10032749735991
 20
-6.46309999999999
 30
0.0
 10
11.15939138475672
 20
-6.45527222222222
 30
0.0
 10
11.15939138475672
 20
-6.45527222222222
 30
0.0
 10
11.32563582500148
 20
-6.433408333333343
 30
0.0
 10
11.4975483206586
 20
-6.410808333333332
 30
0.0
 10
11.66387331645688
 20
-6.36174722222222
 30
0.0
 10
11.76600942498782
 20
-6.331663888888897
 30
0.0
 10
11.84239553416925
 20
-6.293269444444452
 30
0.0
 10
11.90423997705137
 20
-6.240827777777768
 30
0.0
 10
11.99821358578851
 20
-6.161245833333346
 30
0.0
 10
12.01112330768461
 20
-6.071191666666664
 30
0.0
 10
12.00542191893975
 20
-6.009715277777786
 30
0.0
 10
11.99533025252802
 20
-5.900577777777774
 30
0.0
 10
11.91520833333334
 20
-5.788131944444444
 30
0.0
 10
11.80125386854191
 20
-5.723113888888886
 30
0.0
  0
SPLINE
  5
42
330
1F
100
AcDbEntity
  8
Layer 1
370
     0
100
AcDbSpline
210
0.0
220
0.0
230
1.0
 70
    11
 71
     3
 72
    23
 73
    19
 74
     0
 42
0.0000000001
 43
0.0000000001
 12
1.0
 22
0.0
 32
0.0
 13
1.0
 23
0.0
 33
0.0
 40
0.0
 40
0.0
 40
0.0
 40
0.0
 40
1.0
 40
1.0
 40
1.0
 40
2.0
 40
2.0
 40
2.0
 40
3.0
 40
3.0
 40
3.0
 40
4.0
 40
4.0
 40
4.0
 40
5.0
 40
5.0
 40
5.0
 40
6.0
 40
6.0
 40
6.0
 40
6.0
 10
10.3228789058888
 20
-5.461619444444446
 30
0.0
 10
10.46064973574175
 20
-5.459813888888889
 30
0.0
 10
10.583626121524
 20
-5.476631944444446
 30
0.0
 10
10.69969556303628
 20
-5.511175000000005
 30
0.0
 10
10.7602052837299
 20
-5.529119444444442
 30
0.0
 10
10.8006566715969
 20
-5.547661111111109
 30
0.0
 10
10.83443055555555
 20
-5.573145833333329
 30
0.0
 10
10.81141666666667
 20
-5.573295833333329
 30
0.0
 10
10.78838028301814
 20
-5.573238888888883
 30
0.0
 10
10.76528583915711
 20
-5.573043055555559
 30
0.0
 10
10.76528583915711
 20
-5.573043055555559
 30
0.0
 10
10.71725945148147
 20
-5.572951388888883
 30
0.0
 10
10.71725945148147
 20
-5.572951388888883
 30
0.0
 10
10.5957538989954
 20
-5.576273611111118
 30
0.0
 10
10.46644279115096
 20
-5.586504166666663
 30
0.0
 10
10.31150946173158
 20
-5.605229166666668
 30
0.0
 10
10.32831501686259
 20
-5.561019444444443
 30
0.0
 10
10.33730555555556
 20
-5.512543055555549
 30
0.0
 10
10.3228789058888
 20
-5.461619444444446
 30
0.0
  0
SPLINE
  5
43
330
1F
100
AcDbEntity
  8
Layer 1
370
     0
100
AcDbSpline
210
0.0
220
0.0
230
1.0
 70
    11
 71
     3
 72
    65
 73
    61
 74
     0
 42
0.0000000001
 43
0.0000000001
 12
1.0
 22
0.0
 32
0.0
 13
1.0
 23
0.0
 33
0.0
 40
0.0
 40
0.0
 40
0.0
 40
0.0
 40
1.0
 40
1.0
 40
1.0
 40
2.0
 40
2.0
 40
2.0
 40
3.0
 40
3.0
 40
3.0
 40
4.0
 40
4.0
 40
4.0
 40
5.0
 40
5.0
 40
5.0
 40
6.0
 40
6.0
 40
6.0
 40
7.0
 40
7.0
 40
7.0
 40
8.0
 40
8.0
 40
8.0
 40
9.0
 40
9.0
 40
9.0
 40
10.0
 40
10.0
 40
10.0
 40
11.0
 40
11.0
 40
11.0
 40
12.0
 40
12.0
 40
12.0
 40
13.0
 40
13.0
 40
13.0
 40
14.0
 40
14.0
 40
14.0
 40
15.0
 40
15.0
 40
15.0
 40
16.0
 40
16.0
 40
16.0
 40
17.0
 40
17.0
 40
17.0
 40
18.0
 40
18.0
 40
18.0
 40
19.0
 40
19.0
 40
19.0
 40
20.0
 40
20.0
 40
20.0
 40
20.0
 10
9.7411122539188
 20
-5.898130555555554
 30
0.0
 10
9.693660866228633
 20
-5.933695833333331
 30
0.0
 10
9.646219200760443
 20
-5.969262499999988
 30
0.0
 10
9.599951146373717
 20
-6.006288888888902
 30
0.0
 10
9.28892198756431
 20
-6.255116666666658
 30
0.0
 10
9.0325886607065
 20
-6.50761111111112
 30
0.0
 10
8.816306721725798
 20
-6.778255555555561
 30
0.0
 10
8.699915057999432
 20
-6.923877777777786
 30
0.0
 10
8.540648395356179
 20
-7.109998611111122
 30
0.0
 10
8.340342844860768
 20
-7.258115277777783
 30
0.0
 10
8.185937293205825
 20
-7.372274999999995
 30
0.0
 10
8.006035908861627
 20
-7.462869444444449
 30
0.0
 10
7.75705952626241
 20
-7.551843055555562
 30
0.0
 10
7.604034530128147
 20
-7.606434722222224
 30
0.0
 10
7.450480367340585
 20
-7.659656944444451
 30
0.0
 10
7.296937315663854
 20
-7.712869444444449
 30
0.0
 10
7.296937315663854
 20
-7.712869444444449
 30
0.0
 10
7.248151205785184
 20
-7.729801388888896
 30
0.0
 10
7.248151205785184
 20
-7.729801388888896
 30
0.0
 10
7.294834537939196
 20
-7.687923611111121
 30
0.0
 10
7.34521786999974
 20
-7.647472222222227
 30
0.0
 10
7.399348424187842
 20
-7.61264166666668
 30
0.0
 10
7.588423419411406
 20
-7.491194444444444
 30
0.0
 10
7.804972222222229
 20
-7.34557083333334
 30
0.0
 10
7.982355353904293
 20
-7.154852777777781
 30
0.0
 10
8.099344239837794
 20
-7.029048611111117
 30
0.0
 10
8.205216459385458
 20
-6.891933333333327
 30
0.0
 10
8.307615067909763
 20
-6.75932361111111
 30
0.0
 10
8.307615067909763
 20
-6.75932361111111
 30
0.0
 10
8.339928955982334
 20
-6.717502777777781
 30
0.0
 10
8.339928955982334
 20
-6.717502777777781
 30
0.0
 10
8.45933034185489
 20
-6.563179166666663
 30
0.0
 10
8.601665060481436
 20
-6.437224999999999
 30
0.0
 10
8.753081723322996
 20
-6.303293055555564
 30
0.0
 10
8.955420607100374
 20
-6.124311111111107
 30
0.0
 10
9.101778936736384
 20
-5.962411111111123
 30
0.0
 10
9.213720600575167
 20
-5.793752777777778
 30
0.0
 10
9.232963655644602
 20
-5.764749999999998
 30
0.0
 10
9.26749698810555
 20
-5.748162499999997
 30
0.0
 10
9.304062264959612
 20
-5.730597222222223
 30
0.0
 10
9.304062264959612
 20
-5.730597222222223
 30
0.0
 10
9.32389143112535
 20
-5.720963888888895
 30
0.0
 10
9.32389143112535
 20
-5.720963888888895
 30
0.0
 10
9.525966426020506
 20
-5.620450000000005
 30
0.0
 10
9.722570587720535
 20
-5.556858333333328
 30
0.0
 10
9.924980304829457
 20
-5.526579166666667
 30
0.0
 10
9.94395947101667
 20
-5.523693055555555
 30
0.0
 10
9.963213637196935
 20
-5.522418055555552
 30
0.0
 10
9.982433081155856
 20
-5.521049999999996
 30
0.0
 10
9.982433081155856
 20
-5.521049999999996
 30
0.0
 10
10.00676919165218
 20
-5.519050000000005
 30
0.0
 10
10.00676919165218
 20
-5.519050000000005
 30
0.0
 10
10.05001502389304
 20
-5.519337500000006
 30
0.0
 10
10.08090391200161
 20
-5.523693055555555
 30
0.0
 10
10.10905391129048
 20
-5.53352222222222
 30
0.0
 10
10.08398307859049
 20
-5.592665277777781
 30
0.0
 10
10.04477196846993
 20
-5.646520833333335
 30
0.0
 10
9.989285858760518
 20
-5.698123611111113
 30
0.0
 10
9.91187613849383
 20
-5.770176388888886
 30
0.0
 10
9.825074751797729
 20
-5.835227777777782
 30
0.0
 10
9.7411122539188
 20
-5.898130555555554
 30
0.0
  0
SPLINE
  5
44
330
1F
100
AcDbEntity
  8
Layer 1
370
     0
100
AcDbSpline
210
0.0
220
0.0
230
1.0
 70
    11
 71
     3
 72
    62
 73
    58
 74
     0
 42
0.0000000001
 43
0.0000000001
 12
1.0
 22
0.0
 32
0.0
 13
1.0
 23
0.0
 33
0.0
 40
0.0
 40
0.0
 40
0.0
 40
0.0
 40
1.0
 40
1.0
 40
1.0
 40
2.0
 40
2.0
 40
2.0
 40
3.0
 40
3.0
 40
3.0
 40
4.0
 40
4.0
 40
4.0
 40
5.0
 40
5.0
 40
5.0
 40
6.0
 40
6.0
 40
6.0
 40
7.0
 40
7.0
 40
7.0
 40
8.0
 40
8.0
 40
8.0
 40
9.0
 40
9.0
 40
9.0
 40
10.0
 40
10.0
 40
10.0
 40
11.0
 40
11.0
 40
11.0
 40
12.0
 40
12.0
 40
12.0
 40
13.0
 40
13.0
 40
13.0
 40
14.0
 40
14.0
 40
14.0
 40
15.0
 40
15.0
 40
15.0
 40
16.0
 40
16.0
 40
16.0
 40
17.0
 40
17.0
 40
17.0
 40
18.0
 40
18.0
 40
18.0
 40
19.0
 40
19.0
 40
19.0
 40
19.0
 10
9.464892816452245
 20
-6.406991666666676
 30
0.0
 10
9.49519444444445
 20
-6.379656944444453
 30
0.0
 10
9.525495592699068
 20
-6.352309722222217
 30
0.0
 10
9.555509480829743
 20
-6.324627777777778
 30
0.0
 10
9.64754166666666
 20
-6.239908333333333
 30
0.0
 10
9.749791666666674
 20
-6.163062499999998
 30
0.0
 10
9.848698362312057
 20
-6.088802777777775
 30
0.0
 10
9.881884472584817
 20
-6.063856944444447
 30
0.0
 10
9.91510530507892
 20
-6.038912499999999
 30
0.0
 10
9.948051137579972
 20
-6.013623611111117
 30
0.0
 10
9.969859470362382
 20
-5.996840277777791
 30
0.0
 10
9.990410858732098
 20
-5.979873611111113
 30
0.0
 10
10.01158724708603
 20
-5.962411111111123
 30
0.0
 10
10.01158724708603
 20
-5.962411111111123
 30
0.0
 10
10.04220946853467
 20
-5.937270833333337
 30
0.0
 10
10.04220946853467
 20
-5.937270833333337
 30
0.0
 10
10.14805807697182
 20
-5.851320833333337
 30
0.0
 10
10.2083733532259
 20
-5.832147222222223
 30
0.0
 10
10.30355555555555
 20
-5.821731944444448
 30
0.0
 10
10.51344695663021
 20
-5.798695833333327
 30
0.0
 10
10.73107750668795
 20
-5.787143055555551
 30
0.0
 10
10.95346361218112
 20
-5.787143055555551
 30
0.0
 10
11.04997888752071
 20
-5.787143055555551
 30
0.0
 10
11.14741221839267
 20
-5.78935
 30
0.0
 10
11.24549138258165
 20
-5.79370694444444
 30
0.0
 10
11.42035665594196
 20
-5.801477777777778
 30
0.0
 10
11.56689970779553
 20
-5.839826388888885
 30
0.0
 10
11.6935191490413
 20
-5.910855555555549
 30
0.0
 10
11.7215
 20
-5.926558333333332
 30
0.0
 10
11.7530760919812
 20
-5.946468055555543
 30
0.0
 10
11.77496498031713
 20
-5.975229166666673
 30
0.0
 10
11.78756220222112
 20
-5.991712499999999
 30
0.0
 10
11.79298859097293
 20
-6.007070833333324
 30
0.0
 10
11.79318442430132
 20
-6.023991666666663
 30
0.0
 10
11.79242470209829
 20
-6.041212500000003
 30
0.0
 10
11.78638998002852
 20
-6.064547222222219
 30
0.0
 10
11.74603025882586
 20
-6.092079166666659
 30
0.0
 10
11.69278442683764
 20
-6.128472222222222
 30
0.0
 10
11.62853720623843
 20
-6.1481875
 30
0.0
 10
11.57248611111112
 20
-6.16378611111112
 30
0.0
 10
11.426103878019
 20
-6.204537499999989
 30
0.0
 10
11.2718261041386
 20
-6.224148611111104
 30
0.0
 10
11.12261777457459
 20
-6.243126388888893
 30
0.0
 10
11.07746360904861
 20
-6.248851388888877
 30
0.0
 10
11.03231083241149
 20
-6.254576388888886
 30
0.0
 10
10.98729416688204
 20
-6.260887500000004
 30
0.0
 10
10.98729416688204
 20
-6.260887500000004
 30
0.0
 10
10.98726083354955
 20
-6.260887500000004
 30
0.0
 10
10.98726083354955
 20
-6.260887500000004
 30
0.0
 10
10.67514000810105
 20
-6.304569444444446
 30
0.0
 10
10.33973029435199
 20
-6.353630555555557
 30
0.0
 10
10.00173446955715
 20
-6.416729166666679
 30
0.0
 10
9.730744198625162
 20
-6.467354166666659
 30
0.0
 10
9.484758093728184
 20
-6.529233333333321
 30
0.0
 10
9.25394282178129
 20
-6.604998611111114
 30
0.0
 10
9.321891431175874
 20
-6.535980555555549
 30
0.0
 10
9.39420833333333
 20
-6.470733333333328
 30
0.0
 10
9.464892816452245
 20
-6.406991666666676
 30
0.0
  0
HATCH
  5
45
330
1F
100
AcDbEntity
  8
Layer 1
 62
     7
420
 16777215
100
AcDbHatch
 10
0.0
 20
0.0
 30
0.0
210
0.0
220
0.0
230
1.0
  2
SOLID
 70
     1
 71
     0
 91
        4
 92
        1
 93
        1
 72
     4
 94
        3
 73
     0
 74
     1
 95
      422
 96
      418
 40
0.0
 40
0.0
 40
0.0
 40
0.0
 40
1.0
 40
1.0
 40
1.0
 40
2.0
 40
2.0
 40
2.0
 40
3.0
 40
3.0
 40
3.0
 40
4.0
 40
4.0
 40
4.0
 40
5.0
 40
5.0
 40
5.0
 40
6.0
 40
6.0
 40
6.0
 40
7.0
 40
7.0
 40
7.0
 40
8.0
 40
8.0
 40
8.0
 40
9.0
 40
9.0
 40
9.0
 40
10.0
 40
10.0
 40
10.0
 40
11.0
 40
11.0
 40
11.0
 40
12.0
 40
12.0
 40
12.0
 40
13.0
 40
13.0
 40
13.0
 40
14.0
 40
14.0
 40
14.0
 40
15.0
 40
15.0
 40
15.0
 40
16.0
 40
16.0
 40
16.0
 40
17.0
 40
17.0
 40
17.0
 40
18.0
 40
18.0
 40
18.0
 40
19.0
 40
19.0
 40
19.0
 40
20.0
 40
20.0
 40
20.0
 40
21.0
 40
21.0
 40
21.0
 40
22.0
 40
22.0
 40
22.0
 40
23.0
 40
23.0
 40
23.0
 40
24.0
 40
24.0
 40
24.0
 40
25.0
 40
25.0
 40
25.0
 40
26.0
 40
26.0
 40
26.0
 40
27.0
 40
27.0
 40
27.0
 40
28.0
 40
28.0
 40
28.0
 40
29.0
 40
29.0
 40
29.0
 40
30.0
 40
30.0
 40
30.0
 40
31.0
 40
31.0
 40
31.0
 40
32.0
 40
32.0
 40
32.0
 40
33.0
 40
33.0
 40
33.0
 40
34.0
 40
34.0
 40
34.0
 40
35.0
 40
35.0
 40
35.0
 40
36.0
 40
36.0
 40
36.0
 40
37.0
 40
37.0
 40
37.0
 40
38.0
 40
38.0
 40
38.0
 40
39.0
 40
39.0
 40
39.0
 40
40.0
 40
40.0
 40
40.0
 40
41.0
 40
41.0
 40
41.0
 40
42.0
 40
42.0
 40
42.0
 40
43.0
 40
43.0
 40
43.0
 40
44.0
 40
44.0
 40
44.0
 40
45.0
 40
45.0
 40
45.0
 40
46.0
 40
46.0
 40
46.0
 40
47.0
 40
47.0
 40
47.0
 40
48.0
 40
48.0
 40
48.0
 40
49.0
 40
49.0
 40
49.0
 40
50.0
 40
50.0
 40
50.0
 40
51.0
 40
51.0
 40
51.0
 40
52.0
 40
52.0
 40
52.0
 40
53.0
 40
53.0
 40
53.0
 40
54.0
 40
54.0
 40
54.0
 40
55.0
 40
55.0
 40
55.0
 40
56.0
 40
56.0
 40
56.0
 40
57.0
 40
57.0
 40
57.0
 40
58.0
 40
58.0
 40
58.0
 40
59.0
 40
59.0
 40
59.0
 40
60.0
 40
60.0
 40
60.0
 40
61.0
 40
61.0
 40
61.0
 40
62.0
 40
62.0
 40
62.0
 40
63.0
 40
63.0
 40
63.0
 40
64.0
 40
64.0
 40
64.0
 40
65.0
 40
65.0
 40
65.0
 40
66.0
 40
66.0
 40
66.0
 40
67.0
 40
67.0
 40
67.0
 40
68.0
 40
68.0
 40
68.0
 40
69.0
 40
69.0
 40
69.0
 40
70.0
 40
70.0
 40
70.0
 40
71.0
 40
71.0
 40
71.0
 40
72.0
 40
72.0
 40
72.0
 40
73.0
 40
73.0
 40
73.0
 40
74.0
 40
74.0
 40
74.0
 40
75.0
 40
75.0
 40
75.0
 40
76.0
 40
76.0
 40
76.0
 40
77.0
 40
77.0
 40
77.0
 40
78.0
 40
78.0
 40
78.0
 40
79.0
 40
79.0
 40
79.0
 40
80.0
 40
80.0
 40
80.0
 40
81.0
 40
81.0
 40
81.0
 40
82.0
 40
82.0
 40
82.0
 40
83.0
 40
83.0
 40
83.0
 40
84.0
 40
84.0
 40
84.0
 40
85.0
 40
85.0
 40
85.0
 40
86.0
 40
86.0
 40
86.0
 40
87.0
 40
87.0
 40
87.0
 40
88.0
 40
88.0
 40
88.0
 40
89.0
 40
89.0
 40
89.0
 40
90.0
 40
90.0
 40
90.0
 40
91.0
 40
91.0
 40
91.0
 40
92.0
 40
92.0
 40
92.0
 40
93.0
 40
93.0
 40
93.0
 40
94.0
 40
94.0
 40
94.0
 40
95.0
 40
95.0
 40
95.0
 40
96.0
 40
96.0
 40
96.0
 40
97.0
 40
97.0
 40
97.0
 40
98.0
 40
98.0
 40
98.0
 40
99.0
 40
99.0
 40
99.0
 40
100.0
 40
100.0
 40
100.0
 40
101.0
 40
101.0
 40
101.0
 40
102.0
 40
102.0
 40
102.0
 40
103.0
 40
103.0
 40
103.0
 40
104.0
 40
104.0
 40
104.0
 40
105.0
 40
105.0
 40
105.0
 40
106.0
 40
106.0
 40
106.0
 40
107.0
 40
107.0
 40
107.0
 40
108.0
 40
108.0
 40
108.0
 40
109.0
 40
109.0
 40
109.0
 40
110.0
 40
110.0
 40
110.0
 40
111.0
 40
111.0
 40
111.0
 40
112.0
 40
112.0
 40
112.0
 40
113.0
 40
113.0
 40
113.0
 40
114.0
 40
114.0
 40
114.0
 40
115.0
 40
115.0
 40
115.0
 40
116.0
 40
116.0
 40
116.0
 40
117.0
 40
117.0
 40
117.0
 40
118.0
 40
118.0
 40
118.0
 40
119.0
 40
119.0
 40
119.0
 40
120.0
 40
120.0
 40
120.0
 40
121.0
 40
121.0
 40
121.0
 40
122.0
 40
122.0
 40
122.0
 40
123.0
 40
123.0
 40
123.0
 40
124.0
 40
124.0
 40
124.0
 40
125.0
 40
125.0
 40
125.0
 40
126.0
 40
126.0
 40
126.0
 40
127.0
 40
127.0
 40
127.0
 40
128.0
 40
128.0
 40
128.0
 40
129.0
 40
129.0
 40
129.0
 40
130.0
 40
130.0
 40
130.0
 40
131.0
 40
131.0
 40
131.0
 40
132.0
 40
132.0
 40
132.0
 40
133.0
 40
133.0
 40
133.0
 40
134.0
 40
134.0
 40
134.0
 40
135.0
 40
135.0
 40
135.0
 40
136.0
 40
136.0
 40
136.0
 40
137.0
 40
137.0
 40
137.0
 40
138.0
 40
138.0
 40
138.0
 40
139.0
 40
139.0
 40
139.0
 40
139.0
 10
11.80125386854191
 20
-5.723113888888886
 10
11.62656081739947
 20
-5.623530555555551
 10
11.404
 20
-5.574123611111114
 10
11.12082471906433
 20
-5.572065277777773
 10
11.1161566636267
 20
-5.572019444444448
 10
11.1133636081417
 20
-5.571779166666665
 10
11.1125138888889
 20
-5.572019444444448
 10
11.11101916375648
 20
-5.570065277777783
 10
11.1081566638288
 20
-5.56570833333333
 10
11.10338583061598
 20
-5.556466666666665
 10
11.09054555316258
 20
-5.531476388888891
 10
11.07215277777777
 20
-5.499036111111106
 10
11.04386360989742
 20
-5.469987500000002
 10
10.97376500055715
 20
-5.398130555555554
 10
10.89043583599555
 20
-5.346229166666666
 10
10.79620833333332
 20
-5.315663888888884
 10
10.55426640004346
 20
-5.237195833333329
 10
10.30945112845024
 20
-5.221551388888884
 10
10.06856780120213
 20
-5.26909583333333
 10
9.770138888888898
 20
-5.328031944444446
 10
9.501573371081172
 20
-5.387762499999995
 10
9.245067822005492
 20
-5.519050000000005
 10
9.196523378787383
 20
-5.408890277777775
 10
9.091376159221403
 20
-5.34848194444444
 10
8.965249999999994
 20
-5.359483333333338
 10
8.879851164564974
 20
-5.367070833333337
 10
8.799728944366809
 20
-5.386588888888885
 10
8.727090057312934
 20
-5.417454166666667
 10
8.53088888888889
 20
-5.500806944444447
 10
8.34506645585255
 20
-5.602401388888893
 10
8.174787293487498
 20
-5.719493055555555
 10
8.132841461213804
 20
-5.748311111111105
 10
8.118827572678937
 20
-5.752668055555558
 10
8.077963684822356
 20
-5.729183333333329
 10
7.900476189306068
 20
-5.627288888888895
 10
7.702641472081571
 20
-5.556030555555556
 10
7.515302587925261
 20
-5.49419722222222
 10
7.014578989463492
 20
-5.328918055555556
 10
6.554858167743683
 20
-5.240772222222227
 10
6.10989845676209
 20
-5.224723611111105
 10
6.048559569422751
 20
-5.222529166666669
 10
6.000487348414936
 20
-5.204480555555556
 10
5.954010960700139
 20
-5.166179166666666
 10
5.854888888888884
 20
-5.084584722222226
 10
5.796537353567146
 20
-5.001669444444448
 10
5.770340132006721
 20
-4.905315277777782
 10
5.769144298703597
 20
-4.900912500000004
 10
5.768695687603818
 20
-4.898027777777783
 10
5.768236111111112
 20
-4.897051388888889
 10
5.769316520921469
 20
-4.896211111111117
 10
5.771098465320898
 20
-4.895084722222223
 10
5.773788743030713
 20
-4.89367083333333
 10
5.773788743030713
 20
-4.89367083333333
 10
5.799341520162973
 20
-4.880118055555562
 10
5.799341520162973
 20
-4.880118055555562
 10
5.857772074242448
 20
-4.849206944444441
 10
5.912973461736834
 20
-4.819951388888891
 10
5.971404015816309
 20
-4.795397222222227
 10
6.298398452000178
 20
-4.658201388888894
 10
6.641210943340006
 20
-4.504359722222223
 10
6.922916666666676
 20
-4.267315277777773
 10
7.23890953935198
 20
-4.001418055555556
 10
7.519578976706119
 20
-3.58148333333333
 10
7.359574814081498
 20
-3.200391666666671
 10
7.282948427128353
 20
-3.017891666666666
 10
7.121944444444453
 20
-2.941333333333331
 10
6.928858158295649
 20
-2.995925000000006
 10
6.87446232633647
 20
-3.011281944444439
 10
6.821469272119631
 20
-3.036134722222224
 10
6.762130384729769
 20
-3.07409305555556
 10
6.667167887128723
 20
-3.134798611111111
 10
6.572194444444449
 20
-3.198437500000005
 10
6.480380391847373
 20
-3.259970833333328
 10
6.347552617425107
 20
-3.348990277777779
 10
6.210208333333336
 20
-3.440998611111114
 10
6.071435957733734
 20
-3.524983333333327
 10
5.847898463380766
 20
-3.660237499999994
 10
5.586517914428239
 20
-3.741830555555553
 10
5.272340144587259
 20
-3.774454166666664
 10
5.010983206745246
 20
-3.80160694444444
 10
4.784169323586158
 20
-3.871061111111114
 10
4.578898495438403
 20
-3.986841666666666
 10
4.500972222222217
 20
-4.030811111111108
 10
4.42129711053086
 20
-4.074493055555561
 10
4.340980445893162
 20
-4.118520833333327
 10
4.161631839312778
 20
-4.21684027777778
 10
3.976165177331394
 20
-4.318480555555551
 10
3.801540181742793
 20
-4.42834166666666
 10
3.535688799569875
 20
-4.595631944444449
 10
3.319486111111107
 20
-4.796719444444445
 10
3.076624999999997
 20
-5.047213888888892
 10
2.939956870174885
 20
-5.188134722222217
 10
2.804392984710628
 20
-5.261899999999994
 10
2.649941599723509
 20
-5.27931527777778
 10
1.986986111111112
 20
-5.354448611111112
 10
1.222904166666669
 20
-5.100586111111107
 10
0.7290666666666664
 20
-4.838298611111112
 10
0.725859722222228
 20
-4.836586111111109
 10
0.7226069444444394
 20
-4.835068055555553
 10
0.7174222222222271
 20
-4.832676388888886
 10
0.6599000000000058
 20
-4.806306944444448
 10
0.6056527777777774
 20
-4.82304444444445
 10
0.5757194444444419
 20
-4.876106944444447
 10
0.5474416666666634
 20
-4.926202777777777
 10
0.5622124999999994
 20
-4.982495833333334
 10
0.6124236111111132
 20
-5.0162
 10
0.6767513888888869
 20
-5.059295833333332
 10
0.7458958333333309
 20
-5.088688888888883
 10
0.8127875000000004
 20
-5.117116666666662
 10
1.250425000000001
 20
-5.303191666666672
 10
1.67600412432724
 20
-5.423708333333328
 10
2.077718003067983
 20
-5.475368055555552
 10
2.451302715852661
 20
-5.523199999999999
 10
2.875341594029426
 20
-5.549225000000003
 10
3.177737419723599
 20
-5.247909722222226
 10
3.382295747889354
 20
-5.044087499999995
 10
3.614155464254306
 20
-4.813054166666663
 10
3.88590406850047
 20
-4.632520833333337
 10
4.2181068378861
 20
-4.411811111111117
 10
4.604625000000005
 20
-4.167581944444438
 10
4.987855429551725
 20
-4.063297222222218
 10
5.107451259863814
 20
-4.030765277777783
 10
5.232497090038223
 20
-4.006843055555552
 10
5.353416666666665
 20
-3.983761111111107
 10
5.539491526727336
 20
-3.948252777777775
 10
5.731865132978681
 20
-3.911466666666671
 10
5.914513888888892
 20
-3.841909722222226
 10
6.134142900594068
 20
-3.7582125
 10
6.333126228900659
 20
-3.63074027777778
 10
6.49877344693828
 20
-3.517018055555556
 10
6.543973445796432
 20
-3.486050000000002
 10
6.589585944644163
 20
-3.451322222222226
 10
6.633705387974057
 20
-3.417766666666668
 10
6.741887329685596
 20
-3.335449999999999
 10
6.853748437970857
 20
-3.250326388888892
 10
6.973840101603754
 20
-3.207483333333332
 10
7.065353988180807
 20
-3.174711111111113
 10
7.113656764738354
 20
-3.193448611111105
 10
7.158247041389687
 20
-3.278559722222225
 10
7.295327593482297
 20
-3.540250000000002
 10
7.043201210962656
 20
-3.853162500000002
 10
6.928422047195554
 20
-3.975587499999998
 10
6.713127608189906
 20
-4.205194444444449
 10
6.426698448759048
 20
-4.352184722222217
 10
6.151822066814121
 20
-4.483081944444444
 10
6.096770679315947
 20
-4.509302777777773
 10
6.03877777777777
 20
-4.533212500000003
 10
5.982704015530847
 20
-4.556352777777773
 10
5.878142907061171
 20
-4.599448611111105
 10
5.770017909792639
 20
-4.644016666666667
 10
5.670410967864478
 20
-4.707159722222223
 10
5.638787357552246
 20
-4.727219444444446
 10
5.606773469472096
 20
-4.746726388888886
 10
5.574781803613607
 20
-4.766245833333338
 10
5.501890138788339
 20
-4.810709722222226
 10
5.426515140692471
 20
-4.856644444444441
 10
5.355784586923719
 20
-4.909075000000004
 10
5.288260977518399
 20
-4.959068055555551
 10
5.293883199598591
 20
-5.021533333333334
 10
5.321666666666665
 20
-5.063352777777772
 10
5.348277777777778
 20
-5.103219444444449
 10
5.406605418973211
 20
-5.131543055555552
 10
5.483820694800366
 20
-5.080573611111112
 10
5.483820694800366
 20
-5.080573611111112
 10
5.527719304802505
 20
-5.051858333333333
 10
5.527719304802505
 20
-5.051858333333333
 10
5.544916666666672
 20
-5.040706944444448
 10
5.562113748378073
 20
-5.029556944444443
 10
5.58020680347656
 20
-5.017568055555557
 10
5.605370691729755
 20
-5.088102777777774
 10
5.645294301832311
 20
-5.147981944444445
 10
5.686469300792143
 20
-5.200365277777778
 10
5.686469300792143
 20
-5.200365277777778
 10
5.634580413214078
 20
-5.194354166666673
 10
5.634580413214078
 20
-5.194354166666673
 10
5.561917915049687
 20
-5.185788888888888
 10
5.489223472441659
 20
-5.177224999999996
 10
5.416387363170543
 20
-5.170281944444443
 10
5.370509586551734
 20
-5.165833333333327
 10
5.341645698392009
 20
-5.180995833333327
 10
5.325437365468133
 20
-5.194445833333336
 10
5.304308199335233
 20
-5.212009722222218
 10
5.291734588541758
 20
-5.236851388888883
 10
5.289042921943089
 20
-5.266302777777784
 10
5.283387366530405
 20
-5.328377777777783
 10
5.324770698818307
 20
-5.374449999999999
 10
5.394523474833982
 20
-5.383795833333338
 10
5.572091525903791
 20
-5.407419444444447
 10
5.752487354679943
 20
-5.417109722222222
 10
5.926940128050672
 20
-5.426455555555561
 10
6.094149846048822
 20
-5.43545555555555
 10
6.267097222222219
 20
-5.444698611111107
 10
6.435502615203303
 20
-5.466320833333334
 10
6.90474149223822
 20
-5.526475000000005
 10
7.347448425498946
 20
-5.642945833333329
 10
7.751334526407036
 20
-5.812431944444445
 10
7.813087302624808
 20
-5.838365277777775
 10
7.874208333333323
 20
-5.866633333333336
 10
7.931167855197398
 20
-5.893830555555559
 10
7.851884523866929
 20
-5.958101388888887
 10
7.771877581443631
 20
-6.021497222222226
 10
7.691903972352823
 20
-6.084894444444444
 10
7.520463698905991
 20
-6.220780555555544
 10
7.343194444444432
 20
-6.361263888888894
 10
7.175558152063482
 20
-6.508783333333339
 10
6.963734546303486
 20
-6.695248611111108
 10
6.75587760710995
 20
-6.877069444444436
 10
6.541777777777774
 20
-7.051740277777778
 10
6.524706779616483
 20
-7.065626388888884
 10
6.52186789079931
 20
-7.065236111111112
 10
6.517533168686592
 20
-7.064706944444449
 10
6.359392894903774
 20
-7.043762500000007
 10
6.200965121128219
 20
-7.05335000000001
 10
6.04768595833371
 20
-7.062545833333338
 10
6.04768595833371
 20
-7.062545833333338
 10
6.012981792543743
 20
-7.064650000000003
 10
6.012981792543743
 20
-7.064650000000003
 10
5.900006795397732
 20
-7.071259722222218
 10
5.789640131519162
 20
-7.095468055555557
 10
5.6829290231038
 20
-7.118895833333327
 10
5.6829290231038
 20
-7.118895833333327
 10
5.660065134792502
 20
-7.123884722222227
 10
5.660065134792502
 20
-7.123884722222227
 10
5.598449858571257
 20
-7.137345833333332
 10
5.563355415013373
 20
-7.18615416666666
 10
5.572723470332272
 20
-7.245390277777788
 10
5.582380414532761
 20
-7.306487500000003
 10
5.630155413325863
 20
-7.340145833333331
 10
5.697527777777774
 20
-7.33446666666666
 10
5.709322077992611
 20
-7.333340277777779
 10
5.721059577696097
 20
-7.330754166666666
 10
5.732669299625033
 20
-7.328006944444446
 10
5.732669299625033
 20
-7.328006944444446
 10
5.738348466148232
 20
-7.326684722222226
 10
5.738348466148232
 20
-7.326684722222226
 10
5.915180555555556
 20
-7.286381944444454
 10
6.101024845875145
 20
-7.266230555555542
 10
6.293434563236688
 20
-7.269219444444438
 10
6.2923067854874
 20
-7.270288888888899
 10
6.291156785516452
 20
-7.271369444444442
 10
6.290030396656018
 20
-7.272438888888877
 10
6.231462342580016
 20
-7.328501388888879
 10
6.170904010776515
 20
-7.386413888888884
 10
6.119198456527152
 20
-7.453569444444433
 10
6.095863734894414
 20
-7.483905555555566
 10
6.085908179590357
 20
-7.516380555555543
 10
6.090415123920947
 20
-7.547440277777771
 10
6.094208333333325
 20
-7.5736611111111
 10
6.108554012351608
 20
-7.596938888888896
 10
6.130890122898462
 20
-7.613136111111114
 10
6.180997066077098
 20
-7.649334722222218
 10
6.23892206461379
 20
-7.640816666666675
 10
6.28191511908325
 20
-7.590834722222224
 10
6.409041666666679
 20
-7.443062499999996
 10
6.561929000898393
 20
-7.315441666666654
 10
6.709792886051925
 20
-7.19202916666667
 10
6.709792886051925
 20
-7.19202916666667
 10
6.745967885138068
 20
-7.161841666666659
 10
6.745967885138068
 20
-7.161841666666659
 10
6.887797048221828
 20
-7.043233333333344
 10
7.030384544619765
 20
-6.920947222222215
 10
7.16827065224758
 20
-6.802718055555563
 10
7.41509722222223
 20
-6.591008333333345
 10
7.670327584009
 20
-6.372115277777766
 10
7.929627577458531
 20
-6.167269444444451
 10
8.208813681516807
 20
-5.946709722222218
 10
8.457491453012455
 20
-5.784751388888885
 10
8.712238668799221
 20
-5.657476388888893
 10
8.794441444500382
 20
-5.616391666666661
 10
8.883805555555556
 20
-5.588412500000004
 10
8.977894217643753
 20
-5.574273611111114
 10
9.00619560581769
 20
-5.569870833333336
 10
9.028749999999995
 20
-5.575687499999995
 10
9.039877549411257
 20
-5.58991805555556
 10
9.051097222222223
 20
-5.604252777777774
 10
9.05122338245797
 20
-5.627829166666666
 10
9.040165049403994
 20
-5.654544444444443
 10
9.032830327367062
 20
-5.672293055555555
 10
9.020921994334559
 20
-5.690202777777775
 10
9.007299772456463
 20
-5.710698611111107
 10
8.917613663611013
 20
-5.845504166666665
 10
8.801487277655724
 20
-5.974493055555564
 10
8.662199781174422
 20
-6.094090277777771
 10
8.462560897328835
 20
-6.265484722222229
 10
8.287983123961263
 20
-6.464859722222222
 10
8.119173406003533
 20
-6.657681944444448
 10
8.03141785266487
 20
-6.7578625
 10
7.940685910512506
 20
-6.861516666666678
 10
7.847942857299838
 20
-6.959387499999997
 10
7.70763036084443
 20
-7.107504166666659
 10
7.544085920531465
 20
-7.232918055555551
 10
7.385947035637501
 20
-7.354227777777774
 10
7.221688706453683
 20
-7.480238888888884
 10
7.051834544077892
 20
-7.610491666666676
 10
6.904798436681226
 20
-7.76789722222222
 10
6.850345660279041
 20
-7.826109722222226
 10
6.797524828280075
 20
-7.885781944444438
 10
6.744691496281424
 20
-7.945406944444433
 10
6.665283164954113
 20
-8.035116666666656
 10
6.583148444806788
 20
-8.127861111111113
 10
6.497037335871028
 20
-8.213362500000004
 10
6.377738727773653
 20
-8.331890277777777
 10
6.251072064306855
 20
-8.422922222222217
 10
6.120590123158662
 20
-8.484008333333325
 10
5.765201243247652
 20
-8.65042499999999
 10
5.336197087418541
 20
-8.596420833333342
 10
5.002155429190477
 20
-8.530679166666662
 10
4.680000000000001
 20
-8.467327777777781
 10
4.361765167590319
 20
-8.36172083333334
 10
4.054023508697861
 20
-8.259538888888882
 10
3.969740177493703
 20
-8.231559722222224
 10
3.885479068511207
 20
-8.203637500000013
 10
3.801058237310523
 20
-8.176440277777777
 10
3.607236111111105
 20
-8.114066666666657
 10
3.415655469268838
 20
-8.034393055555558
 10
3.230373529505009
 20
-7.95729305555556
 10
3.075556866749341
 20
-7.892827777777787
 10
2.915459648571515
 20
-7.826258333333321
 10
2.753594374882798
 20
-7.769461111111114
 10
2.45509722222222
 20
-7.66473888888888
 10
2.145712445794743
 20
-7.592640277777768
 10
1.846524953352855
 20
-7.52288611111112
 10
1.682612457493633
 20
-7.484687500000013
 10
1.513091628442756
 20
-7.445212499999999
 10
1.348916666666671
 20
-7.4011861111111
 10
1.115813888888889
 20
-7.332076388888885
 10
0.8814138888888894
 20
-7.252195833333341
 10
0.6547388888888892
 20
-7.174958333333329
 10
0.539888888888893
 20
-7.135827777777775
 10
0.4250388888888841
 20
-7.0966986111111
 10
0.3098444444444415
 20
-7.058729166666656
 10
0.3098444444444415
 20
-7.058729166666656
 10
0.2912000000000035
 20
-7.052568055555563
 10
0.2912000000000035
 20
-7.052568055555563
 10
0.2463222222222233
 20
-7.03775000000001
 10
0.2014680555555515
 20
-7.022933333333336
 10
0.1563263888888918
 20
-7.009184722222218
 10
0.1245993055555598
 20
-6.999597222222215
 10
0.0946186111111097
 20
-6.999747222222216
 10
0.0696518055555594
 20
-7.009816666666666
 10
0.0414758333333288
 20
-7.021162499999996
 10
0.0208073611111104
 20
-7.044405555555563
 10
0.0114855972222282
 20
-7.075074999999995
 10
-0.0024591527777728
 20
-7.120804166666655
 10
0.0103121250000034
 20
-7.180774999999989
 10
0.088008749999997
 20
-7.211984722222218
 10
0.0958830555555576
 20
-7.215169444444452
 10
0.1039643055555517
 20
-7.217858333333323
 10
0.1120569444444502
 20
-7.22044583333334
 10
0.1120569444444502
 20
-7.22044583333334
 10
0.1191725000000032
 20
-7.222790277777777
 10
0.1191725000000032
 20
-7.222790277777777
 10
0.7366194444444495
 20
-7.428877777777769
 10
1.395380520305278
 20
-7.642575000000003
 10
2.063579114536272
 20
-7.79166944444445
 10
2.521815214071365
 20
-7.893954166666667
 10
2.966717980609954
 20
-8.072097222222231
 10
3.396998525295708
 20
-8.244330555555557
 10
3.59605129804499
 20
-8.324062500000005
 10
3.801886015067389
 20
-8.406437499999987
 10
4.006697121004537
 20
-8.480444444444451
 10
4.424252666011752
 20
-8.631297222222226
 10
4.95432348595437
 20
-8.822751388888895
 10
5.483647083693641
 20
-8.822751388888895
 10
5.679572078744159
 20
-8.822751388888895
 10
5.875474851573017
 20
-8.796530555555567
 10
6.065447068996137
 20
-8.732248611111117
 10
6.105508179095219
 20
-8.718661111111107
 10
6.144684566994429
 20
-8.703544444444434
 10
6.181779010501789
 20
-8.687394444444433
 10
6.452309559223168
 20
-8.570004166666674
 10
6.654867887439448
 20
-8.370824999999993
 10
6.833424827373165
 20
-8.17305972222223
 10
6.839690104992668
 20
-8.166116666666666
 10
6.845701215951926
 20
-8.158875000000004
 10
6.851701215800353
 20
-8.151587500000005
 10
6.866151215435315
 20
-8.134079166666677
 10
6.878623437342462
 20
-8.118918055555543
 10
6.893567881409378
 20
-8.111433333333327
 10
6.913351214242943
 20
-8.101548611111108
 10
6.932938713748121
 20
-8.091179166666658
 10
6.952538713252983
 20
-8.08085694444445
 10
7.002427600881573
 20
-8.054486111111121
 10
7.04955815524651
 20
-8.029598611111117
 10
7.099690098424515
 20
-8.011734722222222
 10
7.193467873833267
 20
-7.97828333333334
 10
7.288131760330745
 20
-7.946591666666664
 10
7.382910924603088
 20
-7.914841666666663
 10
7.701077583232189
 20
-7.808256944444438
 10
8.03009563047605
 20
-7.698051388888896
 10
8.325352567461676
 20
-7.520093055555561
 10
8.591123394081073
 20
-7.35995138888888
 10
8.787738666891931
 20
-7.147761111111119
 10
8.945006718474561
 20
-6.961295833333325
 10
8.960237273645362
 20
-6.943247222222226
 10
8.973617828862896
 20
-6.933166666666668
 10
8.991125000000011
 20
-6.926568055555562
 10
9.19813310096894
 20
-6.848698611111104
 10
9.401059484731478
 20
-6.774543055555543
 10
9.607744201732404
 20
-6.723031944444452
 10
10.08997222222221
 20
-6.602802777777772
 10
10.56901501078199
 20
-6.534176388888883
 10
11.10032749735991
 20
-6.46309999999999
 10
11.10032749735991
 20
-6.46309999999999
 10
11.15939138475672
 20
-6.45527222222222
 10
11.15939138475672
 20
-6.45527222222222
 10
11.32563582500148
 20
-6.433408333333343
 10
11.4975483206586
 20
-6.410808333333332
 10
11.66387331645688
 20
-6.36174722222222
 10
11.76600942498782
 20
-6.331663888888897
 10
11.84239553416925
 20
-6.293269444444452
 10
11.90423997705137
 20
-6.240827777777768
 10
11.99821358578851
 20
-6.161245833333346
 10
12.01112330768461
 20
-6.071191666666664
 10
12.00542191893975
 20
-6.009715277777786
 10
11.99533025252802
 20
-5.900577777777774
 10
11.91520833333334
 20
-5.788131944444444
 10
11.80125386854191
 20
-5.723113888888886
 97
        0
 97
        0
 92
        1
 93
        1
 72
     4
 94
        3
 73
     0
 74
     1
 95
       23
 96
       19
 40
0.0
 40
0.0
 40
0.0
 40
0.0
 40
1.0
 40
1.0
 40
1.0
 40
2.0
 40
2.0
 40
2.0
 40
3.0
 40
3.0
 40
3.0
 40
4.0
 40
4.0
 40
4.0
 40
5.0
 40
5.0
 40
5.0
 40
6.0
 40
6.0
 40
6.0
 40
6.0
 10
10.3228789058888
 20
-5.461619444444446
 10
10.46064973574175
 20
-5.459813888888889
 10
10.583626121524
 20
-5.476631944444446
 10
10.69969556303628
 20
-5.511175000000005
 10
10.7602052837299
 20
-5.529119444444442
 10
10.8006566715969
 20
-5.547661111111109
 10
10.83443055555555
 20
-5.573145833333329
 10
10.81141666666667
 20
-5.573295833333329
 10
10.78838028301814
 20
-5.573238888888883
 10
10.76528583915711
 20
-5.573043055555559
 10
10.76528583915711
 20
-5.573043055555559
 10
10.71725945148147
 20
-5.572951388888883
 10
10.71725945148147
 20
-5.572951388888883
 10
10.5957538989954
 20
-5.576273611111118
 10
10.46644279115096
 20
-5.586504166666663
 10
10.31150946173158
 20
-5.605229166666668
 10
10.32831501686259
 20
-5.561019444444443
 10
10.33730555555556
 20
-5.512543055555549
 10
10.3228789058888
 20
-5.461619444444446
 97
        0
 97
        0
 92
        1
 93
        1
 72
     4
 94
        3
 73
     0
 74
     1
 95
       65
 96
       61
 40
0.0
 40
0.0
 40
0.0
 40
0.0
 40
1.0
 40
1.0
 40
1.0
 40
2.0
 40
2.0
 40
2.0
 40
3.0
 40
3.0
 40
3.0
 40
4.0
 40
4.0
 40
4.0
 40
5.0
 40
5.0
 40
5.0
 40
6.0
 40
6.0
 40
6.0
 40
7.0
 40
7.0
 40
7.0
 40
8.0
 40
8.0
 40
8.0
 40
9.0
 40
9.0
 40
9.0
 40
10.0
 40
10.0
 40
10.0
 40
11.0
 40
11.0
 40
11.0
 40
12.0
 40
12.0
 40
12.0
 40
13.0
 40
13.0
 40
13.0
 40
14.0
 40
14.0
 40
14.0
 40
15.0
 40
15.0
 40
15.0
 40
16.0
 40
16.0
 40
16.0
 40
17.0
 40
17.0
 40
17.0
 40
18.0
 40
18.0
 40
18.0
 40
19.0
 40
19.0
 40
19.0
 40
20.0
 40
20.0
 40
20.0
 40
20.0
 10
9.7411122539188
 20
-5.898130555555554
 10
9.693660866228633
 20
-5.933695833333331
 10
9.646219200760443
 20
-5.969262499999988
 10
9.599951146373717
 20
-6.006288888888902
 10
9.28892198756431
 20
-6.255116666666658
 10
9.0325886607065
 20
-6.50761111111112
 10
8.816306721725798
 20
-6.778255555555561
 10
8.699915057999432
 20
-6.923877777777786
 10
8.540648395356179
 20
-7.109998611111122
 10
8.340342844860768
 20
-7.258115277777783
 10
8.185937293205825
 20
-7.372274999999995
 10
8.006035908861627
 20
-7.462869444444449
 10
7.75705952626241
 20
-7.551843055555562
 10
7.604034530128147
 20
-7.606434722222224
 10
7.450480367340585
 20
-7.659656944444451
 10
7.296937315663854
 20
-7.712869444444449
 10
7.296937315663854
 20
-7.712869444444449
 10
7.248151205785184
 20
-7.729801388888896
 10
7.248151205785184
 20
-7.729801388888896
 10
7.294834537939196
 20
-7.687923611111121
 10
7.34521786999974
 20
-7.647472222222227
 10
7.399348424187842
 20
-7.61264166666668
 10
7.588423419411406
 20
-7.491194444444444
 10
7.804972222222229
 20
-7.34557083333334
 10
7.982355353904293
 20
-7.154852777777781
 10
8.099344239837794
 20
-7.029048611111117
 10
8.205216459385458
 20
-6.891933333333327
 10
8.307615067909763
 20
-6.75932361111111
 10
8.307615067909763
 20
-6.75932361111111
 10
8.339928955982334
 20
-6.717502777777781
 10
8.339928955982334
 20
-6.717502777777781
 10
8.45933034185489
 20
-6.563179166666663
 10
8.601665060481436
 20
-6.437224999999999
 10
8.753081723322996
 20
-6.303293055555564
 10
8.955420607100374
 20
-6.124311111111107
 10
9.101778936736384
 20
-5.962411111111123
 10
9.213720600575167
 20
-5.793752777777778
 10
9.232963655644602
 20
-5.764749999999998
 10
9.26749698810555
 20
-5.748162499999997
 10
9.304062264959612
 20
-5.730597222222223
 10
9.304062264959612
 20
-5.730597222222223
 10
9.32389143112535
 20
-5.720963888888895
 10
9.32389143112535
 20
-5.720963888888895
 10
9.525966426020506
 20
-5.620450000000005
 10
9.722570587720535
 20
-5.556858333333328
 10
9.924980304829457
 20
-5.526579166666667
 10
9.94395947101667
 20
-5.523693055555555
 10
9.963213637196935
 20
-5.522418055555552
 10
9.982433081155856
 20
-5.521049999999996
 10
9.982433081155856
 20
-5.521049999999996
 10
10.00676919165218
 20
-5.519050000000005
 10
10.00676919165218
 20
-5.519050000000005
 10
10.05001502389304
 20
-5.519337500000006
 10
10.08090391200161
 20
-5.523693055555555
 10
10.10905391129048
 20
-5.53352222222222
 10
10.08398307859049
 20
-5.592665277777781
 10
10.04477196846993
 20
-5.646520833333335
 10
9.989285858760518
 20
-5.698123611111113
 10
9.91187613849383
 20
-5.770176388888886
 10
9.825074751797729
 20
-5.835227777777782
 10
9.7411122539188
 20
-5.898130555555554
 97
        0
 97
        0
 92
        1
 93
        1
 72
     4
 94
        3
 73
     0
 74
     1
 95
       62
 96
       58
 40
0.0
 40
0.0
 40
0.0
 40
0.0
 40
1.0
 40
1.0
 40
1.0
 40
2.0
 40
2.0
 40
2.0
 40
3.0
 40
3.0
 40
3.0
 40
4.0
 40
4.0
 40
4.0
 40
5.0
 40
5.0
 40
5.0
 40
6.0
 40
6.0
 40
6.0
 40
7.0
 40
7.0
 40
7.0
 40
8.0
 40
8.0
 40
8.0
 40
9.0
 40
9.0
 40
9.0
 40
10.0
 40
10.0
 40
10.0
 40
11.0
 40
11.0
 40
11.0
 40
12.0
 40
12.0
 40
12.0
 40
13.0
 40
13.0
 40
13.0
 40
14.0
 40
14.0
 40
14.0
 40
15.0
 40
15.0
 40
15.0
 40
16.0
 40
16.0
 40
16.0
 40
17.0
 40
17.0
 40
17.0
 40
18.0
 40
18.0
 40
18.0
 40
19.0
 40
19.0
 40
19.0
 40
19.0
 10
9.464892816452245
 20
-6.406991666666676
 10
9.49519444444445
 20
-6.379656944444453
 10
9.525495592699068
 20
-6.352309722222217
 10
9.555509480829743
 20
-6.324627777777778
 10
9.64754166666666
 20
-6.239908333333333
 10
9.749791666666674
 20
-6.163062499999998
 10
9.848698362312057
 20
-6.088802777777775
 10
9.881884472584817
 20
-6.063856944444447
 10
9.91510530507892
 20
-6.038912499999999
 10
9.948051137579972
 20
-6.013623611111117
 10
9.969859470362382
 20
-5.996840277777791
 10
9.990410858732098
 20
-5.979873611111113
 10
10.01158724708603
 20
-5.962411111111123
 10
10.01158724708603
 20
-5.962411111111123
 10
10.04220946853467
 20
-5.937270833333337
 10
10.04220946853467
 20
-5.937270833333337
 10
10.14805807697182
 20
-5.851320833333337
 10
10.2083733532259
 20
-5.832147222222223
 10
10.30355555555555
 20
-5.821731944444448
 10
10.51344695663021
 20
-5.798695833333327
 10
10.73107750668795
 20
-5.787143055555551
 10
10.95346361218112
 20
-5.787143055555551
 10
11.04997888752071
 20
-5.787143055555551
 10
11.14741221839267
 20
-5.78935
 10
11.24549138258165
 20
-5.79370694444444
 10
11.42035665594196
 20
-5.801477777777778
 10
11.56689970779553
 20
-5.839826388888885
 10
11.6935191490413
 20
-5.910855555555549
 10
11.7215
 20
-5.926558333333332
 10
11.7530760919812
 20
-5.946468055555543
 10
11.77496498031713
 20
-5.975229166666673
 10
11.78756220222112
 20
-5.991712499999999
 10
11.79298859097293
 20
-6.007070833333324
 10
11.79318442430132
 20
-6.023991666666663
 10
11.79242470209829
 20
-6.041212500000003
 10
11.78638998002852
 20
-6.064547222222219
 10
11.74603025882586
 20
-6.092079166666659
 10
11.69278442683764
 20
-6.128472222222222
 10
11.62853720623843
 20
-6.1481875
 10
11.57248611111112
 20
-6.16378611111112
 10
11.426103878019
 20
-6.204537499999989
 10
11.2718261041386
 20
-6.224148611111104
 10
11.12261777457459
 20
-6.243126388888893
 10
11.07746360904861
 20
-6.248851388888877
 10
11.03231083241149
 20
-6.254576388888886
 10
10.98729416688204
 20
-6.260887500000004
 10
10.98729416688204
 20
-6.260887500000004
 10
10.98726083354955
 20
-6.260887500000004
 10
10.98726083354955
 20
-6.260887500000004
 10
10.67514000810105
 20
-6.304569444444446
 10
10.33973029435199
 20
-6.353630555555557
 10
10.00173446955715
 20
-6.416729166666679
 10
9.730744198625162
 20
-6.467354166666659
 10
9.484758093728184
 20
-6.529233333333321
 10
9.25394282178129
 20
-6.604998611111114
 10
9.321891431175874
 20
-6.535980555555549
 10
9.39420833333333
 20
-6.470733333333328
 10
9.464892816452245
 20
-6.406991666666676
 97
        0
 97
        0
 75
     2
 76
     1
 98
        0
  0
SPLINE
  5
46
330
1F
100
AcDbEntity
  8
Layer 1
370
     0
100
AcDbSpline
210
0.0
220
0.0
230
1.0
 70
    11
 71
     3
 72
    62
 73
    58
 74
     0
 42
0.0000000001
 43
0.0000000001
 12
1.0
 22
0.0
 32
0.0
 13
1.0
 23
0.0
 33
0.0
 40
0.0
 40
0.0
 40
0.0
 40
0.0
 40
1.0
 40
1.0
 40
1.0
 40
2.0
 40
2.0
 40
2.0
 40
3.0
 40
3.0
 40
3.0
 40
4.0
 40
4.0
 40
4.0
 40
5.0
 40
5.0
 40
5.0
 40
6.0
 40
6.0
 40
6.0
 40
7.0
 40
7.0
 40
7.0
 40
8.0
 40
8.0
 40
8.0
 40
9.0
 40
9.0
 40
9.0
 40
10.0
 40
10.0
 40
10.0
 40
11.0
 40
11.0
 40
11.0
 40
12.0
 40
12.0
 40
12.0
 40
13.0
 40
13.0
 40
13.0
 40
14.0
 40
14.0
 40
14.0
 40
15.0
 40
15.0
 40
15.0
 40
16.0
 40
16.0
 40
16.0
 40
17.0
 40
17.0
 40
17.0
 40
18.0
 40
18.0
 40
18.0
 40
19.0
 40
19.0
 40
19.0
 40
19.0
 10
4.05574711976543
 20
-7.626401388888881
 30
0.0
 10
4.077922119205242
 20
-7.626401388888881
 30
0.0
 10
4.104165174097842
 20
-7.619113888888882
 30
0.0
 10
4.131638888888889
 20
-7.595881944444449
 30
0.0
 10
4.131638888888889
 20
-7.595881944444449
 30
0.0
 10
4.131662395625426
 20
-7.595881944444449
 30
0.0
 10
4.131662395625426
 20
-7.595881944444449
 30
0.0
 10
4.188816560848257
 20
-7.547497222222217
 30
0.0
 10
4.246074892735123
 20
-7.499274999999998
 30
0.0
 10
4.303908224607463
 20
-7.451730555555564
 30
0.0
 10
4.590083333333332
 20
-7.216594444444454
 30
0.0
 10
4.870510988071652
 20
-7.043291666666669
 30
0.0
 10
5.161192925172852
 20
-6.92192361111112
 30
0.0
 10
5.264087367017964
 20
-6.87897777777779
 30
0.0
 10
5.370935975429853
 20
-6.83975555555556
 30
0.0
 10
5.474266528375058
 20
-6.801844444444441
 30
0.0
 10
5.547445693193064
 20
-6.774991666666665
 30
0.0
 10
5.620625000000005
 20
-6.748137500000009
 30
0.0
 10
5.693265133953799
 20
-6.719768055555555
 30
0.0
 10
5.944390127609848
 20
-6.62154027777779
 30
0.0
 10
6.182192899380222
 20
-6.482286111111105
 30
0.0
 10
6.422479004421196
 20
-6.292304166666654
 30
0.0
 10
6.457481781314729
 20
-6.264611111111106
 30
0.0
 10
6.497152777777778
 20
-6.23326388888889
 30
0.0
 10
6.523441501870669
 20
-6.187224999999999
 30
0.0
 10
6.553984556654641
 20
-6.133818055555543
 30
0.0
 10
6.543374999999994
 20
-6.076731944444443
 30
0.0
 10
6.496394280331717
 20
-6.041705555555558
 30
0.0
 10
6.448769281534825
 20
-6.006347222222226
 30
0.0
 10
6.392591505176218
 20
-6.014118055555551
 30
0.0
 10
6.349702617370793
 20
-6.062006944444445
 30
0.0
 10
6.345173450818542
 20
-6.067041666666657
 30
0.0
 10
6.340747062041474
 20
-6.07228333333334
 30
0.0
 10
6.33634428437492
 20
-6.07751388888889
 30
0.0
 10
6.32758595126284
 20
-6.087929166666678
 30
0.0
 10
6.3192984514722
 20
-6.09776805555556
 30
0.0
 10
6.311009562792706
 20
-6.104665277777788
 30
0.0
 10
6.163605399849782
 20
-6.227883333333339
 30
0.0
 10
6.004256792764155
 20
-6.333629166666671
 30
0.0
 10
5.837391519201749
 20
-6.418993055555549
 30
0.0
 10
5.664030412470108
 20
-6.507668055555566
 30
0.0
 10
5.4776234727347
 20
-6.574536111111102
 30
0.0
 10
5.301526254961067
 20
-6.635391666666666
 30
0.0
 10
4.979198485325974
 20
-6.746862500000007
 30
0.0
 10
4.67480404857118
 20
-6.907301388888881
 30
0.0
 10
4.370948500691662
 20
-7.125850000000001
 30
0.0
 10
4.260592947923922
 20
-7.205144444444436
 30
0.0
 10
4.144226284196924
 20
-7.29891249999999
 30
0.0
 10
4.004754065498067
 20
-7.420956944444444
 30
0.0
 10
3.984040177132455
 20
-7.439108333333327
 30
0.0
 10
3.94935823356415
 20
-7.469433333333326
 30
0.0
 10
3.950795733527836
 20
-7.512724999999995
 30
0.0
 10
3.951658233506047
 20
-7.56222361111112
 30
0.0
 10
3.970901288575482
 20
-7.596605555555546
 30
0.0
 10
4.007949898750667
 20
-7.614952777777766
 30
0.0
 10
4.01922628735469
 20
-7.620527777777776
 30
0.0
 10
4.035837398046169
 20
-7.626401388888881
 30
0.0
 10
4.05574711976543
 20
-7.626401388888881
 30
0.0
  0
HATCH
  5
47
330
1F
100
AcDbEntity
  8
Layer 1
 62
     7
420
 16777215
100
AcDbHatch
 10
0.0
 20
0.0
 30
0.0
210
0.0
220
0.0
230
1.0
  2
SOLID
 70
     1
 71
     0
 91
        1
 92
        1
 93
        1
 72
     4
 94
        3
 73
     0
 74
     1
 95
       62
 96
       58
 40
0.0
 40
0.0
 40
0.0
 40
0.0
 40
1.0
 40
1.0
 40
1.0
 40
2.0
 40
2.0
 40
2.0
 40
3.0
 40
3.0
 40
3.0
 40
4.0
 40
4.0
 40
4.0
 40
5.0
 40
5.0
 40
5.0
 40
6.0
 40
6.0
 40
6.0
 40
7.0
 40
7.0
 40
7.0
 40
8.0
 40
8.0
 40
8.0
 40
9.0
 40
9.0
 40
9.0
 40
10.0
 40
10.0
 40
10.0
 40
11.0
 40
11.0
 40
11.0
 40
12.0
 40
12.0
 40
12.0
 40
13.0
 40
13.0
 40
13.0
 40
14.0
 40
14.0
 40
14.0
 40
15.0
 40
15.0
 40
15.0
 40
16.0
 40
16.0
 40
16.0
 40
17.0
 40
17.0
 40
17.0
 40
18.0
 40
18.0
 40
18.0
 40
19.0
 40
19.0
 40
19.0
 40
19.0
 10
4.05574711976543
 20
-7.626401388888881
 10
4.077922119205242
 20
-7.626401388888881
 10
4.104165174097842
 20
-7.619113888888882
 10
4.131638888888889
 20
-7.595881944444449
 10
4.131638888888889
 20
-7.595881944444449
 10
4.131662395625426
 20
-7.595881944444449
 10
4.131662395625426
 20
-7.595881944444449
 10
4.188816560848257
 20
-7.547497222222217
 10
4.246074892735123
 20
-7.499274999999998
 10
4.303908224607463
 20
-7.451730555555564
 10
4.590083333333332
 20
-7.216594444444454
 10
4.870510988071652
 20
-7.043291666666669
 10
5.161192925172852
 20
-6.92192361111112
 10
5.264087367017964
 20
-6.87897777777779
 10
5.370935975429853
 20
-6.83975555555556
 10
5.474266528375058
 20
-6.801844444444441
 10
5.547445693193064
 20
-6.774991666666665
 10
5.620625000000005
 20
-6.748137500000009
 10
5.693265133953799
 20
-6.719768055555555
 10
5.944390127609848
 20
-6.62154027777779
 10
6.182192899380222
 20
-6.482286111111105
 10
6.422479004421196
 20
-6.292304166666654
 10
6.457481781314729
 20
-6.264611111111106
 10
6.497152777777778
 20
-6.23326388888889
 10
6.523441501870669
 20
-6.187224999999999
 10
6.553984556654641
 20
-6.133818055555543
 10
6.543374999999994
 20
-6.076731944444443
 10
6.496394280331717
 20
-6.041705555555558
 10
6.448769281534825
 20
-6.006347222222226
 10
6.392591505176218
 20
-6.014118055555551
 10
6.349702617370793
 20
-6.062006944444445
 10
6.345173450818542
 20
-6.067041666666657
 10
6.340747062041474
 20
-6.07228333333334
 10
6.33634428437492
 20
-6.07751388888889
 10
6.32758595126284
 20
-6.087929166666678
 10
6.3192984514722
 20
-6.09776805555556
 10
6.311009562792706
 20
-6.104665277777788
 10
6.163605399849782
 20
-6.227883333333339
 10
6.004256792764155
 20
-6.333629166666671
 10
5.837391519201749
 20
-6.418993055555549
 10
5.664030412470108
 20
-6.507668055555566
 10
5.4776234727347
 20
-6.574536111111102
 10
5.301526254961067
 20
-6.635391666666666
 10
4.979198485325974
 20
-6.746862500000007
 10
4.67480404857118
 20
-6.907301388888881
 10
4.370948500691662
 20
-7.125850000000001
 10
4.260592947923922
 20
-7.205144444444436
 10
4.144226284196924
 20
-7.29891249999999
 10
4.004754065498067
 20
-7.420956944444444
 10
3.984040177132455
 20
-7.439108333333327
 10
3.94935823356415
 20
-7.469433333333326
 10
3.950795733527836
 20
-7.512724999999995
 10
3.951658233506047
 20
-7.56222361111112
 10
3.970901288575482
 20
-7.596605555555546
 10
4.007949898750667
 20
-7.614952777777766
 10
4.01922628735469
 20
-7.620527777777776
 10
4.035837398046169
 20
-7.626401388888881
 10
4.05574711976543
 20
-7.626401388888881
 97
        0
 97
        0
 75
     2
 76
     1
 98
        0
  0
SPLINE
  5
48
330
1F
100
AcDbEntity
  8
Layer 1
370
     0
100
AcDbSpline
210
0.0
220
0.0
230
1.0
 70
    11
 71
     3
 72
    47
 73
    43
 74
     0
 42
0.0000000001
 43
0.0000000001
 12
1.0
 22
0.0
 32
0.0
 13
1.0
 23
0.0
 33
0.0
 40
0.0
 40
0.0
 40
0.0
 40
0.0
 40
1.0
 40
1.0
 40
1.0
 40
2.0
 40
2.0
 40
2.0
 40
3.0
 40
3.0
 40
3.0
 40
4.0
 40
4.0
 40
4.0
 40
5.0
 40
5.0
 40
5.0
 40
6.0
 40
6.0
 40
6.0
 40
7.0
 40
7.0
 40
7.0
 40
8.0
 40
8.0
 40
8.0
 40
9.0
 40
9.0
 40
9.0
 40
10.0
 40
10.0
 40
10.0
 40
11.0
 40
11.0
 40
11.0
 40
12.0
 40
12.0
 40
12.0
 40
13.0
 40
13.0
 40
13.0
 40
14.0
 40
14.0
 40
14.0
 40
14.0
 10
2.431911049675869
 20
-7.473043055555561
 30
0.0
 10
2.457454104586152
 20
-7.473043055555561
 30
0.0
 10
2.481006881768937
 20
-7.463651388888896
 30
0.0
 10
2.4993652146385
 20
-7.445844444444447
 30
0.0
 10
2.518102714165151
 20
-7.427694444444442
 30
0.0
 10
2.530230491636555
 20
-7.401772222222235
 30
0.0
 10
2.534437435974723
 20
-7.370906944444439
 30
0.0
 10
2.537322158124071
 20
-7.349629166666672
 30
0.0
 10
2.540609658041022
 20
-7.32555833333332
 30
0.0
 10
2.541197158026181
 20
-7.300716666666656
 30
0.0
 10
2.546105491235519
 20
-7.096687499999992
 30
0.0
 10
2.609065211867245
 20
-6.89555416666667
 30
0.0
 10
2.728340208854105
 20
-6.702880555555566
 30
0.0
 10
2.821176317619979
 20
-6.552947222222226
 30
0.0
 10
2.92962214821374
 20
-6.416143055555544
 30
0.0
 10
3.051495756246065
 20
-6.265680555555567
 30
0.0
 10
3.106305555555562
 20
-6.198030555555558
 30
0.0
 10
3.089236111111113
 20
-6.132920833333324
 30
0.0
 10
3.048001311889897
 20
-6.098481944444453
 30
0.0
 10
3.009009646208243
 20
-6.065765277777776
 30
0.0
 10
2.945647147808914
 20
-6.056523611111111
 30
0.0
 10
2.88481381601236
 20
-6.1283236111111
 30
0.0
 10
2.822302706480412
 20
-6.201984722222227
 30
0.0
 10
2.764654096825628
 20
-6.280348611111119
 30
0.0
 10
2.708924931566798
 20
-6.356170833333332
 30
0.0
 10
2.685152777777779
 20
-6.388449999999996
 30
0.0
 10
2.661402777777779
 20
-6.420740277777768
 30
0.0
 10
2.637240211155484
 20
-6.452731944444444
 30
0.0
 10
2.439279105045292
 20
-6.715008333333344
 30
0.0
 10
2.333567996604668
 20
-7.00630000000001
 30
0.0
 10
2.323130496868341
 20
-7.317833333333333
 30
0.0
 10
2.323130496868341
 20
-7.317833333333333
 30
0.0
 10
2.322567996882551
 20
-7.328547222222217
 30
0.0
 10
2.322567996882551
 20
-7.328547222222217
 30
0.0
 10
2.322049941340083
 20
-7.337202777777772
 30
0.0
 10
2.321567996907814
 20
-7.345858333333328
 30
0.0
 10
2.321441608022117
 20
-7.354515277777788
 30
0.0
 10
2.320487441379555
 20
-7.41972777777778
 30
0.0
 10
2.356317996029955
 20
-7.463651388888896
 30
0.0
 10
2.417336050044064
 20
-7.472065277777776
 30
0.0
 10
2.422254105475379
 20
-7.472697222222223
 30
0.0
 10
2.427116605352542
 20
-7.473043055555561
 30
0.0
 10
2.431911049675869
 20
-7.473043055555561
 30
0.0
  0
HATCH
  5
49
330
1F
100
AcDbEntity
  8
Layer 1
 62
     7
420
 16777215
100
AcDbHatch
 10
0.0
 20
0.0
 30
0.0
210
0.0
220
0.0
230
1.0
  2
SOLID
 70
     1
 71
     0
 91
        1
 92
        1
 93
        1
 72
     4
 94
        3
 73
     0
 74
     1
 95
       47
 96
       43
 40
0.0
 40
0.0
 40
0.0
 40
0.0
 40
1.0
 40
1.0
 40
1.0
 40
2.0
 40
2.0
 40
2.0
 40
3.0
 40
3.0
 40
3.0
 40
4.0
 40
4.0
 40
4.0
 40
5.0
 40
5.0
 40
5.0
 40
6.0
 40
6.0
 40
6.0
 40
7.0
 40
7.0
 40
7.0
 40
8.0
 40
8.0
 40
8.0
 40
9.0
 40
9.0
 40
9.0
 40
10.0
 40
10.0
 40
10.0
 40
11.0
 40
11.0
 40
11.0
 40
12.0
 40
12.0
 40
12.0
 40
13.0
 40
13.0
 40
13.0
 40
14.0
 40
14.0
 40
14.0
 40
14.0
 10
2.431911049675869
 20
-7.473043055555561
 10
2.457454104586152
 20
-7.473043055555561
 10
2.481006881768937
 20
-7.463651388888896
 10
2.4993652146385
 20
-7.445844444444447
 10
2.518102714165151
 20
-7.427694444444442
 10
2.530230491636555
 20
-7.401772222222235
 10
2.534437435974723
 20
-7.370906944444439
 10
2.537322158124071
 20
-7.349629166666672
 10
2.540609658041022
 20
-7.32555833333332
 10
2.541197158026181
 20
-7.300716666666656
 10
2.546105491235519
 20
-7.096687499999992
 10
2.609065211867245
 20
-6.89555416666667
 10
2.728340208854105
 20
-6.702880555555566
 10
2.821176317619979
 20
-6.552947222222226
 10
2.92962214821374
 20
-6.416143055555544
 10
3.051495756246065
 20
-6.265680555555567
 10
3.106305555555562
 20
-6.198030555555558
 10
3.089236111111113
 20
-6.132920833333324
 10
3.048001311889897
 20
-6.098481944444453
 10
3.009009646208243
 20
-6.065765277777776
 10
2.945647147808914
 20
-6.056523611111111
 10
2.88481381601236
 20
-6.1283236111111
 10
2.822302706480412
 20
-6.201984722222227
 10
2.764654096825628
 20
-6.280348611111119
 10
2.708924931566798
 20
-6.356170833333332
 10
2.685152777777779
 20
-6.388449999999996
 10
2.661402777777779
 20
-6.420740277777768
 10
2.637240211155484
 20
-6.452731944444444
 10
2.439279105045292
 20
-6.715008333333344
 10
2.333567996604668
 20
-7.00630000000001
 10
2.323130496868341
 20
-7.317833333333333
 10
2.323130496868341
 20
-7.317833333333333
 10
2.322567996882551
 20
-7.328547222222217
 10
2.322567996882551
 20
-7.328547222222217
 10
2.322049941340083
 20
-7.337202777777772
 10
2.321567996907814
 20
-7.345858333333328
 10
2.321441608022117
 20
-7.354515277777788
 10
2.320487441379555
 20
-7.41972777777778
 10
2.356317996029955
 20
-7.463651388888896
 10
2.417336050044064
 20
-7.472065277777776
 10
2.422254105475379
 20
-7.472697222222223
 10
2.427116605352542
 20
-7.473043055555561
 10
2.431911049675869
 20
-7.473043055555561
 97
        0
 97
        0
 75
     2
 76
     1
 98
        0
  0
ENDSEC
  0
SECTION
  2
OBJECTS
  0
DICTIONARY
  5
C
330
0
100
AcDbDictionary
281
     1
  3
ACAD_GROUP
350
D
  3
ACAD_LAYOUT
350
1A
  3
ACAD_MATERIAL
350
3B
  3
ACAD_MLEADERSTYLE
350
4B
  3
ACAD_MLINESTYLE
350
17
  3
ACAD_PLOTSETTINGS
350
19
  3
ACAD_PLOTSTYLENAME
350
E
  3
ACAD_TABLESTYLE
350
4A
  3
ACAD_VISUALSTYLE
350
2A
  0
SUN
  5
3F
330
29
100
AcDbSun
 90
        1
290
     0
 63
     7
421
 16777215
 40
1.0
291
     1
 91
  2455826
 92
 54000000
292
     0
 70
     2
 71
   256
280
     1
  0
DICTIONARY
  5
D
102
{ACAD_REACTORS
330
C
102
}
330
C
100
AcDbDictionary
281
     1
  0
DICTIONARY
  5
1A
102
{ACAD_REACTORS
330
C
102
}
330
C
100
AcDbDictionary
281
     1
  3
Layout1
350
1E
  3
Layout2
350
26
  3
Model
350
22
  0
DICTIONARY
  5
3B
102
{ACAD_REACTORS
330
C
102
}
330
C
100
AcDbDictionary
281
     1
  3
ByBlock
350
3D
  3
ByLayer
350
3C
  3
Global
350
3E
  0
DICTIONARY
  5
4B
102
{ACAD_REACTORS
330
C
102
}
330
C
100
AcDbDictionary
281
     1
  0
DICTIONARY
  5
17
102
{ACAD_REACTORS
330
C
102
}
330
C
100
AcDbDictionary
281
     1
  3
Standard
350
18
  0
DICTIONARY
  5
19
102
{ACAD_REACTORS
330
C
102
}
330
C
100
AcDbDictionary
281
     1
  0
ACDBDICTIONARYWDFLT
  5
E
102
{ACAD_REACTORS
330
C
102
}
330
C
100
AcDbDictionary
281
     1
  3
Normal
350
F
100
AcDbDictionaryWithDefault
340
F
  0
DICTIONARY
  5
4A
102
{ACAD_REACTORS
330
C
102
}
330
C
100
AcDbDictionary
281
     1
  0
DICTIONARY
  5
2A
102
{ACAD_REACTORS
330
C
102
}
330
C
100
AcDbDictionary
281
     1
  3
2dWireframe
350
2F
  3
3D Hidden
350
31
  3
3dWireframe
350
30
  3
Basic
350
32
  3
Brighten
350
36
  3
ColorChange
350
3A
  3
Conceptual
350
34
  3
Dim
350
35
  3
Facepattern
350
39
  3
Flat
350
2B
  3
FlatWithEdges
350
2C
  3
Gouraud
350
2D
  3
GouraudWithEdges
350
2E
  3
Linepattern
350
38
  3
Realistic
350
33
  3
Thicken
350
37
  0
LAYOUT
  5
1E
102
{ACAD_REACTORS
330
1A
102
}
330
1A
100
AcDbPlotSettings
  1

  2
none_device
  4

  6

 40
0.0
 41
0.0
 42
0.0
 43
0.0
 44
0.0
 45
0.0
 46
0.0
 47
0.0
 48
0.0
 49
0.0
140
0.0
141
0.0
142
1.0
143
1.0
 70
   688
 72
     0
 73
     0
 74
     5
  7

 75
    16
 76
     0
 77
     2
 78
   300
147
1.0
148
0.0
149
0.0
100
AcDbLayout
  1
Layout1
 70
     1
 71
     1
 10
0.0
 20
0.0
 11
12.0
 21
9.0
 12
0.0
 22
0.0
 32
0.0
 14
1.000000000000000E+20
 24
1.000000000000000E+20
 34
1.000000000000000E+20
 15
-1.000000000000000E+20
 25
-1.000000000000000E+20
 35
-1.000000000000000E+20
146
0.0
 13
0.0
 23
0.0
 33
0.0
 16
1.0
 26
0.0
 36
0.0
 17
0.0
 27
1.0
 37
0.0
 76
     0
330
1B
  0
LAYOUT
  5
26
102
{ACAD_REACTORS
330
1A
102
}
330
1A
100
AcDbPlotSettings
  1

  2
none_device
  4

  6

 40
0.0
 41
0.0
 42
0.0
 43
0.0
 44
0.0
 45
0.0
 46
0.0
 47
0.0
 48
0.0
 49
0.0
140
0.0
141
0.0
142
1.0
143
1.0
 70
   688
 72
     0
 73
     0
 74
     5
  7

 75
    16
 76
     0
 77
     2
 78
   300
147
1.0
148
0.0
149
0.0
100
AcDbLayout
  1
Layout2
 70
     1
 71
     2
 10
0.0
 20
0.0
 11
0.0
 21
0.0
 12
0.0
 22
0.0
 32
0.0
 14
0.0
 24
0.0
 34
0.0
 15
0.0
 25
0.0
 35
0.0
146
0.0
 13
0.0
 23
0.0
 33
0.0
 16
1.0
 26
0.0
 36
0.0
 17
0.0
 27
1.0
 37
0.0
 76
     0
330
23
  0
LAYOUT
  5
22
102
{ACAD_REACTORS
330
1A
102
}
330
1A
100
AcDbPlotSettings
  1

  2
none_device
  4

  6

 40
0.0
 41
0.0
 42
0.0
 43
0.0
 44
0.0
 45
0.0
 46
0.0
 47
0.0
 48
0.0
 49
0.0
140
0.0
141
0.0
142
1.0
143
1.0
 70
  1712
 72
     0
 73
     0
 74
     0
  7

 75
     0
 76
     0
 77
     2
 78
   300
147
1.0
148
0.0
149
0.0
100
AcDbLayout
  1
Model
 70
     1
 71
     0
 10
0.0
 20
0.0
 11
12.0
 21
9.0
 12
0.0
 22
0.0
 32
0.0
 14
1.000000000000000E+20
 24
1.000000000000000E+20
 34
1.000000000000000E+20
 15
-1.000000000000000E+20
 25
-1.000000000000000E+20
 35
-1.000000000000000E+20
146
0.0
 13
0.0
 23
0.0
 33
0.0
 16
1.0
 26
0.0
 36
0.0
 17
0.0
 27
1.0
 37
0.0
 76
     0
330
1F
331
29
  0
MATERIAL
  5
3D
102
{ACAD_REACTORS
330
3B
102
}
330
3B
100
AcDbMaterial
  1
ByBlock
 72
     1
 94
      127
  0
MATERIAL
  5
3C
102
{ACAD_REACTORS
330
3B
102
}
330
3B
100
AcDbMaterial
  1
ByLayer
 72
     1
 94
      127
  0
MATERIAL
  5
3E
102
{ACAD_REACTORS
330
3B
102
}
330
3B
100
AcDbMaterial
  1
Global
 72
     1
 94
      127
  0
MLINESTYLE
  5
18
102
{ACAD_REACTORS
330
17
102
}
330
17
100
AcDbMlineStyle
  2
Standard
 70
     0
  3

 62
   256
 51
90.0
 52
90.0
 71
     2
 49
0.5
 62
   256
  6
BYLAYER
 49
-0.5
 62
   256
  6
BYLAYER
  0
ACDBPLACEHOLDER
  5
F
102
{ACAD_REACTORS
330
E
102
}
330
E
  0
VISUALSTYLE
  5
2F
102
{ACAD_REACTORS
330
2A
102
}
330
2A
100
AcDbVisualStyle
  2
2dWireframe
 70
     4
177
     2
291
     0
 71
     0
176
     1
 72
     2
176
     1
 73
     0
176
     1
 90
        0
176
     1
 40
-0.6
176
     1
 41
-30.0
176
     1
 62
     5
 63
     7
421
 16777215
176
     1
 74
     1
176
     1
 91
        4
176
     1
 64
     7
176
     1
 65
   257
176
     1
 75
     1
176
     1
175
     1
176
     1
 42
1.0
176
     1
 92
        0
176
     1
 66
   257
176
     1
 43
1.0
176
     1
 76
     1
176
     1
 77
     6
176
     1
 78
     2
176
     1
 67
     7
176
     1
 79
     5
176
     1
170
     0
176
     1
171
     0
176
     1
290
     0
176
     1
 93
        1
176
     1
 44
0.0
176
     1
173
     0
176
     1
  0
VISUALSTYLE
  5
31
102
{ACAD_REACTORS
330
2A
102
}
330
2A
100
AcDbVisualStyle
  2
3D Hidden
 70
     6
177
     2
291
     0
 71
     1
176
     1
 72
     2
176
     1
 73
     2
176
     1
 90
        0
176
     1
 40
-0.6
176
     1
 41
-30.0
176
     1
 62
     5
 63
     7
421
 16777215
176
     1
 74
     2
176
     1
 91
        2
176
     1
 64
     7
176
     1
 65
   257
176
     1
 75
     2
176
     1
175
     1
176
     1
 42
40.0
176
     1
 92
        0
176
     1
 66
   257
176
     1
 43
1.0
176
     1
 76
     1
176
     1
 77
     6
176
     1
 78
     2
176
     1
 67
     7
176
     1
 79
     3
176
     1
170
     0
176
     1
171
     0
176
     1
290
     0
176
     1
 93
        1
176
     1
 44
0.0
176
     1
173
     0
176
     1
  0
VISUALSTYLE
  5
30
102
{ACAD_REACTORS
330
2A
102
}
330
2A
100
AcDbVisualStyle
  2
3dWireframe
 70
     5
177
     2
291
     0
 71
     0
176
     1
 72
     2
176
     1
 73
     0
176
     1
 90
        0
176
     1
 40
-0.6
176
     1
 41
-30.0
176
     1
 62
     5
 63
     7
421
 16777215
176
     1
 74
     1
176
     1
 91
        4
176
     1
 64
     7
176
     1
 65
   257
176
     1
 75
     1
176
     1
175
     1
176
     1
 42
1.0
176
     1
 92
        0
176
     1
 66
   257
176
     1
 43
1.0
176
     1
 76
     1
176
     1
 77
     6
176
     1
 78
     2
176
     1
 67
     7
176
     1
 79
     5
176
     1
170
     0
176
     1
171
     0
176
     1
290
     0
176
     1
 93
        1
176
     1
 44
0.0
176
     1
173
     0
176
     1
  0
VISUALSTYLE
  5
32
102
{ACAD_REACTORS
330
2A
102
}
330
2A
100
AcDbVisualStyle
  2
Basic
 70
     7
177
     2
291
     1
 71
     1
176
     1
 72
     0
176
     1
 73
     1
176
     1
 90
        0
176
     1
 40
-0.6
176
     1
 41
-30.0
176
     1
 62
     5
 63
     7
421
 16777215
176
     1
 74
     0
176
     1
 91
        4
176
     1
 64
     7
176
     1
 65
   257
176
     1
 75
     1
176
     1
175
     1
176
     1
 42
1.0
176
     1
 92
        8
176
     1
 66
     7
176
     1
 43
1.0
176
     1
 76
     1
176
     1
 77
     6
176
     1
 78
     2
176
     1
 67
     7
176
     1
 79
     5
176
     1
170
     0
176
     1
171
     0
176
     1
290
     0
176
     1
 93
        1
176
     1
 44
0.0
176
     1
173
     0
176
     1
  0
VISUALSTYLE
  5
36
102
{ACAD_REACTORS
330
2A
102
}
330
2A
100
AcDbVisualStyle
  2
Brighten
 70
    12
177
     2
291
     1
 71
     2
176
     1
 72
     2
176
     1
 73
     0
176
     1
 90
        0
176
     1
 40
-0.6
176
     1
 41
-30.0
176
     1
 62
     5
 63
     7
421
 16777215
176
     1
 74
     1
176
     1
 91
        4
176
     1
 64
     7
176
     1
 65
   257
176
     1
 75
     1
176
     1
175
     1
176
     1
 42
1.0
176
     1
 92
        8
176
     1
 66
     7
176
     1
 43
1.0
176
     1
 76
     1
176
     1
 77
     6
176
     1
 78
     2
176
     1
 67
     7
176
     1
 79
     5
176
     1
170
     0
176
     1
171
     0
176
     1
290
     0
176
     1
 93
        1
176
     1
 44
50.0
176
     1
173
     0
176
     1
  0
VISUALSTYLE
  5
3A
102
{ACAD_REACTORS
330
2A
102
}
330
2A
100
AcDbVisualStyle
  2
ColorChange
 70
    16
177
     2
291
     1
 71
     2
176
     1
 72
     2
176
     1
 73
     3
176
     1
 90
        0
176
     1
 40
-0.6
176
     1
 41
-30.0
176
     1
 62
     5
 63
     8
421
  8421504
176
     1
 74
     1
176
     1
 91
        4
176
     1
 64
     7
176
     1
 65
   257
176
     1
 75
     1
176
     1
175
     1
176
     1
 42
1.0
176
     1
 92
        8
176
     1
 66
     8
424
  8421504
176
     1
 43
1.0
176
     1
 76
     1
176
     1
 77
     6
176
     1
 78
     2
176
     1
 67
     7
176
     1
 79
     5
176
     1
170
     0
176
     1
171
     0
176
     1
290
     0
176
     1
 93
        1
176
     1
 44
0.0
176
     1
173
     0
176
     1
  0
VISUALSTYLE
  5
34
102
{ACAD_REACTORS
330
2A
102
}
330
2A
100
AcDbVisualStyle
  2
Conceptual
 70
     9
177
     2
291
     0
 71
     3
176
     1
 72
     2
176
     1
 73
     0
176
     1
 90
        0
176
     1
 40
-0.6
176
     1
 41
-30.0
176
     1
 62
     5
 63
     7
421
 16777215
176
     1
 74
     2
176
     1
 91
        2
176
     1
 64
     7
176
     1
 65
   257
176
     1
 75
     1
176
     1
175
     1
176
     1
 42
40.0
176
     1
 92
        8
176
     1
 66
     7
176
     1
 43
1.0
176
     1
 76
     1
176
     1
 77
     6
176
     1
 78
     2
176
     1
 67
     7
176
     1
 79
     3
176
     1
170
     0
176
     1
171
     0
176
     1
290
     0
176
     1
 93
        1
176
     1
 44
0.0
176
     1
173
     0
176
     1
  0
VISUALSTYLE
  5
35
102
{ACAD_REACTORS
330
2A
102
}
330
2A
100
AcDbVisualStyle
  2
Dim
 70
    11
177
     2
291
     1
 71
     2
176
     1
 72
     2
176
     1
 73
     0
176
     1
 90
        0
176
     1
 40
-0.6
176
     1
 41
-30.0
176
     1
 62
     5
 63
     7
421
 16777215
176
     1
 74
     1
176
     1
 91
        4
176
     1
 64
     7
176
     1
 65
   257
176
     1
 75
     1
176
     1
175
     1
176
     1
 42
1.0
176
     1
 92
        8
176
     1
 66
     7
176
     1
 43
1.0
176
     1
 76
     1
176
     1
 77
     6
176
     1
 78
     2
176
     1
 67
     7
176
     1
 79
     5
176
     1
170
     0
176
     1
171
     0
176
     1
290
     0
176
     1
 93
        1
176
     1
 44
-50.0
176
     1
173
     0
176
     1
  0
VISUALSTYLE
  5
39
102
{ACAD_REACTORS
330
2A
102
}
330
2A
100
AcDbVisualStyle
  2
Facepattern
 70
    15
177
     2
291
     1
 71
     2
176
     1
 72
     2
176
     1
 73
     0
176
     1
 90
        0
176
     1
 40
-0.6
176
     1
 41
-30.0
176
     1
 62
     5
 63
     7
421
 16777215
176
     1
 74
     1
176
     1
 91
        4
176
     1
 64
     7
176
     1
 65
   257
176
     1
 75
     1
176
     1
175
     1
176
     1
 42
1.0
176
     1
 92
        8
176
     1
 66
     7
176
     1
 43
1.0
176
     1
 76
     1
176
     1
 77
     6
176
     1
 78
     2
176
     1
 67
     7
176
     1
 79
     5
176
     1
170
     0
176
     1
171
     0
176
     1
290
     0
176
     1
 93
        1
176
     1
 44
0.0
176
     1
173
     0
176
     1
  0
VISUALSTYLE
  5
2B
102
{ACAD_REACTORS
330
2A
102
}
330
2A
100
AcDbVisualStyle
  2
Flat
 70
     0
177
     2
291
     1
 71
     2
176
     1
 72
     1
176
     1
 73
     1
176
     1
 90
        2
176
     1
 40
-0.6
176
     1
 41
30.0
176
     1
 62
     5
 63
     7
421
 16777215
176
     1
 74
     0
176
     1
 91
        4
176
     1
 64
     7
176
     1
 65
   257
176
     1
 75
     1
176
     1
175
     1
176
     1
 42
1.0
176
     1
 92
        8
176
     1
 66
     7
176
     1
 43
1.0
176
     1
 76
     1
176
     1
 77
     6
176
     1
 78
     2
176
     1
 67
     7
176
     1
 79
     5
176
     1
170
     0
176
     1
171
     0
176
     1
290
     0
176
     1
 93
       13
176
     1
 44
0.0
176
     1
173
     0
176
     1
  0
VISUALSTYLE
  5
2C
102
{ACAD_REACTORS
330
2A
102
}
330
2A
100
AcDbVisualStyle
  2
FlatWithEdges
 70
     1
177
     2
291
     1
 71
     2
176
     1
 72
     1
176
     1
 73
     1
176
     1
 90
        2
176
     1
 40
-0.6
176
     1
 41
30.0
176
     1
 62
     5
 63
     7
421
 16777215
176
     1
 74
     1
176
     1
 91
        4
176
     1
 64
     7
176
     1
 65
   257
176
     1
 75
     1
176
     1
175
     1
176
     1
 42
1.0
176
     1
 92
        0
176
     1
 66
   257
176
     1
 43
1.0
176
     1
 76
     1
176
     1
 77
     6
176
     1
 78
     2
176
     1
 67
     7
176
     1
 79
     5
176
     1
170
     0
176
     1
171
     0
176
     1
290
     0
176
     1
 93
       13
176
     1
 44
0.0
176
     1
173
     0
176
     1
  0
VISUALSTYLE
  5
2D
102
{ACAD_REACTORS
330
2A
102
}
330
2A
100
AcDbVisualStyle
  2
Gouraud
 70
     2
177
     2
291
     1
 71
     2
176
     1
 72
     2
176
     1
 73
     1
176
     1
 90
        2
176
     1
 40
-0.6
176
     1
 41
30.0
176
     1
 62
     5
 63
     7
421
 16777215
176
     1
 74
     0
176
     1
 91
        4
176
     1
 64
     7
176
     1
 65
   257
176
     1
 75
     1
176
     1
175
     1
176
     1
 42
1.0
176
     1
 92
        0
176
     1
 66
     7
176
     1
 43
1.0
176
     1
 76
     1
176
     1
 77
     6
176
     1
 78
     2
176
     1
 67
     7
176
     1
 79
     5
176
     1
170
     0
176
     1
171
     0
176
     1
290
     0
176
     1
 93
       13
176
     1
 44
0.0
176
     1
173
     0
176
     1
  0
VISUALSTYLE
  5
2E
102
{ACAD_REACTORS
330
2A
102
}
330
2A
100
AcDbVisualStyle
  2
GouraudWithEdges
 70
     3
177
     2
291
     1
 71
     2
176
     1
 72
     2
176
     1
 73
     1
176
     1
 90
        2
176
     1
 40
-0.6
176
     1
 41
30.0
176
     1
 62
     5
 63
     7
421
 16777215
176
     1
 74
     1
176
     1
 91
        4
176
     1
 64
     7
176
     1
 65
   257
176
     1
 75
     1
176
     1
175
     1
176
     1
 42
1.0
176
     1
 92
        0
176
     1
 66
   257
176
     1
 43
1.0
176
     1
 76
     1
176
     1
 77
     6
176
     1
 78
     2
176
     1
 67
     7
176
     1
 79
     5
176
     1
170
     0
176
     1
171
     0
176
     1
290
     0
176
     1
 93
       13
176
     1
 44
0.0
176
     1
173
     0
176
     1
  0
VISUALSTYLE
  5
38
102
{ACAD_REACTORS
330
2A
102
}
330
2A
100
AcDbVisualStyle
  2
Linepattern
 70
    14
177
     2
291
     1
 71
     2
176
     1
 72
     2
176
     1
 73
     0
176
     1
 90
        0
176
     1
 40
-0.6
176
     1
 41
-30.0
176
     1
 62
     5
 63
     7
421
 16777215
176
     1
 74
     1
176
     1
 91
        4
176
     1
 64
     7
176
     1
 65
   257
176
     1
 75
     7
176
     1
175
     7
176
     1
 42
1.0
176
     1
 92
        8
176
     1
 66
     7
176
     1
 43
1.0
176
     1
 76
     1
176
     1
 77
     6
176
     1
 78
     2
176
     1
 67
     7
176
     1
 79
     5
176
     1
170
     0
176
     1
171
     0
176
     1
290
     0
176
     1
 93
        1
176
     1
 44
0.0
176
     1
173
     0
176
     1
  0
VISUALSTYLE
  5
33
102
{ACAD_REACTORS
330
2A
102
}
330
2A
100
AcDbVisualStyle
  2
Realistic
 70
     8
177
     2
291
     0
 71
     2
176
     1
 72
     2
176
     1
 73
     0
176
     1
 90
        0
176
     1
 40
-0.6
176
     1
 41
-30.0
176
     1
 62
     5
 63
     7
421
 16777215
176
     1
 74
     1
176
     1
 91
        0
176
     1
 64
     7
176
     1
 65
   257
176
     1
 75
     1
176
     1
175
     1
176
     1
 42
1.0
176
     1
 92
        8
176
     1
 66
     8
424
  7895160
176
     1
 43
1.0
176
     1
 76
     1
176
     1
 77
     6
176
     1
 78
     2
176
     1
 67
     7
176
     1
 79
     5
176
     1
170
     0
176
     1
171
     0
176
     1
290
     0
176
     1
 93
       13
176
     1
 44
0.0
176
     1
173
     0
176
     1
  0
VISUALSTYLE
  5
37
102
{ACAD_REACTORS
330
2A
102
}
330
2A
100
AcDbVisualStyle
  2
Thicken
 70
    13
177
     2
291
     1
 71
     2
176
     1
 72
     2
176
     1
 73
     0
176
     1
 90
        0
176
     1
 40
-0.6
176
     1
 41
-30.0
176
     1
 62
     5
 63
     7
421
 16777215
176
     1
 74
     1
176
     1
 91
        4
176
     1
 64
     7
176
     1
 65
   257
176
     1
 75
     1
176
     1
175
     1
176
     1
 42
1.0
176
     1
 92
       12
176
     1
 66
     7
176
     1
 43
1.0
176
     1
 76
     1
176
     1
 77
     6
176
     1
 78
     2
176
     1
 67
     7
176
     1
 79
     5
176
     1
170
     0
176
     1
171
     0
176
     1
290
     0
176
     1
 93
        1
176
     1
 44
0.0
176
     1
173
     0
176
     1
  0
ENDSEC
  0
EOF
