  0
SECTION
  2
HEADER
  9
$ACADVER
  1
AC1024
  9
$ACADMAINTVER
 70
     6
  9
$DWGCODEPAGE
  3
ANSI_1251
  9
$INSBASE
 10
0.0
 20
0.0
 30
0.0
  9
$EXTMIN
 10
1.000000000000000E+20
 20
1.000000000000000E+20
 30
1.000000000000000E+20
  9
$EXTMAX
 10
-1.000000000000000E+20
 20
-1.000000000000000E+20
 30
-1.000000000000000E+20
  9
$LIMMIN
 10
0.0
 20
0.0
  9
$LIMMAX
 10
12.0
 20
9.0
  9
$ORTHOMODE
 70
     0
  9
$REGENMODE
 70
     1
  9
$FILLMODE
 70
     1
  9
$QTEXTMODE
 70
     0
  9
$MIRRTEXT
 70
     1
  9
$LTSCALE
 40
1.0
  9
$ATTMODE
 70
     1
  9
$TEXTSIZE
 40
0.2
  9
$TRACEWID
 40
0.05
  9
$TEXTSTYLE
  7
Standard
  9
$CLAYER
  8
0
  9
$CELTYPE
  6
ByLayer
  9
$CECOLOR
 62
   256
  9
$CELTSCALE
 40
1.0
  9
$DISPSILH
 70
     0
  9
$DIMSCALE
 40
1.0
  9
$DIMASZ
 40
0.18
  9
$DIMEXO
 40
0.0625
  9
$DIMDLI
 40
0.38
  9
$DIMRND
 40
0.0
  9
$DIMDLE
 40
0.0
  9
$DIMEXE
 40
0.18
  9
$DIMTP
 40
0.0
  9
$DIMTM
 40
0.0
  9
$DIMTXT
 40
0.18
  9
$DIMCEN
 40
0.09
  9
$DIMTSZ
 40
0.0
  9
$DIMTOL
 70
     0
  9
$DIMLIM
 70
     0
  9
$DIMTIH
 70
     1
  9
$DIMTOH
 70
     1
  9
$DIMSE1
 70
     0
  9
$DIMSE2
 70
     0
  9
$DIMTAD
 70
     0
  9
$DIMZIN
 70
     0
  9
$DIMBLK
  1

  9
$DIMASO
 70
     1
  9
$DIMSHO
 70
     1
  9
$DIMPOST
  1

  9
$DIMAPOST
  1

  9
$DIMALT
 70
     0
  9
$DIMALTD
 70
     2
  9
$DIMALTF
 40
25.4
  9
$DIMLFAC
 40
1.0
  9
$DIMTOFL
 70
     0
  9
$DIMTVP
 40
0.0
  9
$DIMTIX
 70
     0
  9
$DIMSOXD
 70
     0
  9
$DIMSAH
 70
     0
  9
$DIMBLK1
  1

  9
$DIMBLK2
  1

  9
$DIMSTYLE
  2
Standard
  9
$DIMCLRD
 70
     0
  9
$DIMCLRE
 70
     0
  9
$DIMCLRT
 70
     0
  9
$DIMTFAC
 40
1.0
  9
$DIMGAP
 40
0.09
  9
$DIMJUST
 70
     0
  9
$DIMSD1
 70
     0
  9
$DIMSD2
 70
     0
  9
$DIMTOLJ
 70
     1
  9
$DIMTZIN
 70
     0
  9
$DIMALTZ
 70
     0
  9
$DIMALTTZ
 70
     0
  9
$DIMUPT
 70
     0
  9
$DIMDEC
 70
     4
  9
$DIMTDEC
 70
     4
  9
$DIMALTU
 70
     2
  9
$DIMALTTD
 70
     2
  9
$DIMTXSTY
  7
Standard
  9
$DIMAUNIT
 70
     0
  9
$DIMADEC
 70
     0
  9
$DIMALTRND
 40
0.0
  9
$DIMAZIN
 70
     0
  9
$DIMDSEP
 70
    46
  9
$DIMATFIT
 70
     3
  9
$DIMFRAC
 70
     0
  9
$DIMLDRBLK
  1

  9
$DIMLUNIT
 70
     2
  9
$DIMLWD
 70
    -2
  9
$DIMLWE
 70
    -2
  9
$DIMTMOVE
 70
     0
  9
$DIMFXL
 40
1.0
  9
$DIMFXLON
 70
     0
  9
$DIMJOGANG
 40
0.7853981633974483
  9
$DIMTFILL
 70
     0
  9
$DIMTFILLCLR
 70
     0
  9
$DIMARCSYM
 70
     0
  9
$DIMLTYPE
  6

  9
$DIMLTEX1
  6

  9
$DIMLTEX2
  6

  9
$DIMTXTDIRECTION
 70
     0
  9
$LUNITS
 70
     2
  9
$LUPREC
 70
     4
  9
$SKETCHINC
 40
0.1
  9
$FILLETRAD
 40
0.5
  9
$AUNITS
 70
     0
  9
$AUPREC
 70
     0
  9
$MENU
  1
.
  9
$ELEVATION
 40
0.0
  9
$PELEVATION
 40
0.0
  9
$THICKNESS
 40
0.0
  9
$LIMCHECK
 70
     0
  9
$CHAMFERA
 40
0.5
  9
$CHAMFERB
 40
0.5
  9
$CHAMFERC
 40
1.0
  9
$CHAMFERD
 40
0.0
  9
$SKPOLY
 70
     0
  9
$TDCREATE
 40
2459337.676979861
  9
$TDUCREATE
 40
2459337.551979861
  9
$TDUPDATE
 40
2459337.676979861
  9
$TDUUPDATE
 40
2459337.551979861
  9
$TDINDWG
 40
0.0000000116
  9
$TDUSRTIMER
 40
0.0000000116
  9
$USRTIMER
 70
     1
  9
$ANGBASE
 50
0.0
  9
$ANGDIR
 70
     0
  9
$PDMODE
 70
     0
  9
$PDSIZE
 40
0.0
  9
$PLINEWID
 40
0.0
  9
$SPLFRAME
 70
     0
  9
$SPLINETYPE
 70
     6
  9
$SPLINESEGS
 70
     8
  9
$HANDSEED
  5
4B
  9
$SURFTAB1
 70
     6
  9
$SURFTAB2
 70
     6
  9
$SURFTYPE
 70
     6
  9
$SURFU
 70
     6
  9
$SURFV
 70
     6
  9
$UCSBASE
  2

  9
$UCSNAME
  2

  9
$UCSORG
 10
0.0
 20
0.0
 30
0.0
  9
$UCSXDIR
 10
1.0
 20
0.0
 30
0.0
  9
$UCSYDIR
 10
0.0
 20
1.0
 30
0.0
  9
$UCSORTHOREF
  2

  9
$UCSORTHOVIEW
 70
     0
  9
$UCSORGTOP
 10
0.0
 20
0.0
 30
0.0
  9
$UCSORGBOTTOM
 10
0.0
 20
0.0
 30
0.0
  9
$UCSORGLEFT
 10
0.0
 20
0.0
 30
0.0
  9
$UCSORGRIGHT
 10
0.0
 20
0.0
 30
0.0
  9
$UCSORGFRONT
 10
0.0
 20
0.0
 30
0.0
  9
$UCSORGBACK
 10
0.0
 20
0.0
 30
0.0
  9
$PUCSBASE
  2

  9
$PUCSNAME
  2

  9
$PUCSORG
 10
0.0
 20
0.0
 30
0.0
  9
$PUCSXDIR
 10
1.0
 20
0.0
 30
0.0
  9
$PUCSYDIR
 10
0.0
 20
1.0
 30
0.0
  9
$PUCSORTHOREF
  2

  9
$PUCSORTHOVIEW
 70
     0
  9
$PUCSORGTOP
 10
0.0
 20
0.0
 30
0.0
  9
$PUCSORGBOTTOM
 10
0.0
 20
0.0
 30
0.0
  9
$PUCSORGLEFT
 10
0.0
 20
0.0
 30
0.0
  9
$PUCSORGRIGHT
 10
0.0
 20
0.0
 30
0.0
  9
$PUCSORGFRONT
 10
0.0
 20
0.0
 30
0.0
  9
$PUCSORGBACK
 10
0.0
 20
0.0
 30
0.0
  9
$USERI1
 70
     0
  9
$USERI2
 70
     0
  9
$USERI3
 70
     0
  9
$USERI4
 70
     0
  9
$USERI5
 70
     0
  9
$USERR1
 40
0.0
  9
$USERR2
 40
0.0
  9
$USERR3
 40
0.0
  9
$USERR4
 40
0.0
  9
$USERR5
 40
0.0
  9
$WORLDVIEW
 70
     1
  9
$SHADEDGE
 70
     3
  9
$SHADEDIF
 70
    70
  9
$TILEMODE
 70
     1
  9
$MAXACTVP
 70
    64
  9
$PINSBASE
 10
0.0
 20
0.0
 30
0.0
  9
$PLIMCHECK
 70
     0
  9
$PEXTMIN
 10
1.000000000000000E+20
 20
1.000000000000000E+20
 30
1.000000000000000E+20
  9
$PEXTMAX
 10
-1.000000000000000E+20
 20
-1.000000000000000E+20
 30
-1.000000000000000E+20
  9
$PLIMMIN
 10
0.0
 20
0.0
  9
$PLIMMAX
 10
12.0
 20
9.0
  9
$UNITMODE
 70
     0
  9
$VISRETAIN
 70
     1
  9
$PLINEGEN
 70
     0
  9
$PSLTSCALE
 70
     1
  9
$TREEDEPTH
 70
  3020
  9
$CMLSTYLE
  2
Standard
  9
$CMLJUST
 70
     0
  9
$CMLSCALE
 40
1.0
  9
$PROXYGRAPHICS
 70
     1
  9
$MEASUREMENT
 70
     0
  9
$CELWEIGHT
370
    -1
  9
$ENDCAPS
280
     0
  9
$JOINSTYLE
280
     0
  9
$LWDISPLAY
290
     1
  9
$INSUNITS
 70
     1
  9
$HYPERLINKBASE
  1

  9
$STYLESHEET
  1

  9
$XEDIT
290
     1
  9
$CEPSNTYPE
380
     0
  9
$PSTYLEMODE
290
     1
  9
$FINGERPRINTGUID
  2
{22510A5E-0583-4E89-B11A-DA11C4245322}
  9
$VERSIONGUID
  2
{FAEB1C32-E019-11D5-929B-00C0DF256EC4}
  9
$EXTNAMES
290
     1
  9
$PSVPSCALE
 40
0.0
  9
$OLESTARTUP
290
     0
  9
$SORTENTS
280
   127
  9
$INDEXCTL
280
     0
  9
$HIDETEXT
280
     1
  9
$XCLIPFRAME
280
     2
  9
$HALOGAP
280
     0
  9
$OBSCOLOR
 70
   257
  9
$OBSLTYPE
280
     0
  9
$INTERSECTIONDISPLAY
280
     0
  9
$INTERSECTIONCOLOR
 70
   257
  9
$DIMASSOC
280
     2
  9
$PROJECTNAME
  1

  9
$CAMERADISPLAY
290
     0
  9
$LENSLENGTH
 40
50.0
  9
$CAMERAHEIGHT
 40
0.0
  9
$STEPSPERSEC
 40
2.0
  9
$STEPSIZE
 40
6.0
  9
$3DDWFPREC
 40
2.0
  9
$PSOLWIDTH
 40
0.25
  9
$PSOLHEIGHT
 40
4.0
  9
$LOFTANG1
 40
1.570796326794897
  9
$LOFTANG2
 40
1.570796326794897
  9
$LOFTMAG1
 40
0.0
  9
$LOFTMAG2
 40
0.0
  9
$LOFTPARAM
 70
     7
  9
$LOFTNORMALS
280
     1
  9
$LATITUDE
 40
37.795
  9
$LONGITUDE
 40
-122.394
  9
$NORTHDIRECTION
 40
0.0
  9
$TIMEZONE
 70
 -8000
  9
$LIGHTGLYPHDISPLAY
280
     1
  9
$TILEMODELIGHTSYNCH
280
     1
  9
$CMATERIAL
347
3C
  9
$SOLIDHIST
280
     1
  9
$SHOWHIST
280
     1
  9
$DWFFRAME
280
     2
  9
$DGNFRAME
280
     2
  9
$REALWORLDSCALE
290
     1
  9
$INTERFERECOLOR
 62
   256
  9
$CSHADOW
280
     0
  9
$SHADOWPLANELOCATION
 40
0.0
  0
ENDSEC
  0
SECTION
  2
CLASSES
  0
CLASS
  1
ACDBDICTIONARYWDFLT
  2
AcDbDictionaryWithDefault
  3
ObjectDBX Classes
 90
        0
 91
        4
280
     0
281
     0
  0
CLASS
  1
VISUALSTYLE
  2
AcDbVisualStyle
  3
ObjectDBX Classes
 90
     4095
 91
        4
280
     0
281
     0
  0
CLASS
  1
MATERIAL
  2
AcDbMaterial
  3
ObjectDBX Classes
 90
     1153
 91
        4
280
     0
281
     0
  0
CLASS
  1
SUN
  2
AcDbSun
  3
SCENEOE
 90
     1024
 91
        4
280
     0
281
     0
  0
ENDSEC
  0
SECTION
  2
TABLES
  0
TABLE
  2
VPORT
  5
8
330
0
100
AcDbSymbolTable
 70
     1
  0
VPORT
  5
29
330
8
100
AcDbSymbolTableRecord
100
AcDbViewportTableRecord
  2
*Active
 70
     0
 10
0.0
 20
0.0
 11
1.0
 21
1.0
 12
0.0
 22
0.0
 13
0.0
 23
0.0
 14
0.5
 24
0.5
 15
0.5
 25
0.5
 16
0.0
 26
0.0
 36
1.0
 17
30.55724296487607
 27
-5.658133333333327
 37
0.0
 40
12.0
 41
0.5982571608126788
 42
50.0
 43
0.0
 44
0.0
 50
0.0
 51
0.0
 71
     0
 72
   100
 73
     1
 74
     3
 75
     0
 76
     0
 77
     0
 78
     0
281
     0
 65
     1
110
0.0
120
0.0
130
0.0
111
1.0
121
0.0
131
0.0
112
0.0
122
1.0
132
0.0
 79
     0
146
0.0
 60
     3
 61
     5
292
     1
282
     1
141
0.0
142
0.0
 63
   250
361
3F
  0
ENDTAB
  0
TABLE
  2
LTYPE
  5
5
330
0
100
AcDbSymbolTable
 70
     1
  0
LTYPE
  5
14
330
5
100
AcDbSymbolTableRecord
100
AcDbLinetypeTableRecord
  2
ByBlock
 70
     0
  3

 72
    65
 73
     0
 40
0.0
  0
LTYPE
  5
15
330
5
100
AcDbSymbolTableRecord
100
AcDbLinetypeTableRecord
  2
ByLayer
 70
     0
  3

 72
    65
 73
     0
 40
0.0
  0
LTYPE
  5
16
330
5
100
AcDbSymbolTableRecord
100
AcDbLinetypeTableRecord
  2
Continuous
 70
     0
  3
Solid line
 72
    65
 73
     0
 40
0.0
  0
ENDTAB
  0
TABLE
  2
LAYER
  5
2
330
0
100
AcDbSymbolTable
 70
     2
  0
LAYER
  5
10
330
2
100
AcDbSymbolTableRecord
100
AcDbLayerTableRecord
  2
0
 70
     0
 62
     7
  6
Continuous
370
    -3
390
F
347
3E
  0
LAYER
  5
40
330
2
100
AcDbSymbolTableRecord
100
AcDbLayerTableRecord
  2
Layer 1
 70
     0
 62
     7
  6
Continuous
370
    -3
390
F
347
3E
  0
ENDTAB
  0
TABLE
  2
STYLE
  5
3
330
0
100
AcDbSymbolTable
 70
     1
  0
STYLE
  5
11
330
3
100
AcDbSymbolTableRecord
100
AcDbTextStyleTableRecord
  2
Standard
 70
     0
 40
0.0
 41
1.0
 50
0.0
 71
     0
 42
0.2
  3
txt
  4

  0
ENDTAB
  0
TABLE
  2
VIEW
  5
6
330
0
100
AcDbSymbolTable
 70
     0
  0
ENDTAB
  0
TABLE
  2
UCS
  5
7
330
0
100
AcDbSymbolTable
 70
     0
  0
ENDTAB
  0
TABLE
  2
APPID
  5
9
330
0
100
AcDbSymbolTable
 70
     1
  0
APPID
  5
12
330
9
100
AcDbSymbolTableRecord
100
AcDbRegAppTableRecord
  2
ACAD
 70
     0
  0
ENDTAB
  0
TABLE
  2
DIMSTYLE
  5
A
330
0
100
AcDbSymbolTable
 70
     1
100
AcDbDimStyleTable
  0
DIMSTYLE
105
27
330
A
100
AcDbSymbolTableRecord
100
AcDbDimStyleTableRecord
  2
Standard
 70
     0
178
     0
340
11
  0
ENDTAB
  0
TABLE
  2
BLOCK_RECORD
  5
1
330
0
100
AcDbSymbolTable
 70
     1
  0
BLOCK_RECORD
  5
1F
330
1
100
AcDbSymbolTableRecord
100
AcDbBlockTableRecord
  2
*Model_Space
340
22
 70
     0
280
     1
281
     0
  0
BLOCK_RECORD
  5
1B
330
1
100
AcDbSymbolTableRecord
100
AcDbBlockTableRecord
  2
*Paper_Space
340
1E
 70
     0
280
     1
281
     0
  0
BLOCK_RECORD
  5
23
330
1
100
AcDbSymbolTableRecord
100
AcDbBlockTableRecord
  2
*Paper_Space0
340
26
 70
     0
280
     1
281
     0
  0
ENDTAB
  0
ENDSEC
  0
SECTION
  2
BLOCKS
  0
BLOCK
  5
20
330
1F
100
AcDbEntity
  8
0
100
AcDbBlockBegin
  2
*Model_Space
 70
     0
 10
0.0
 20
0.0
 30
0.0
  3
*Model_Space
  1

  0
ENDBLK
  5
21
330
1F
100
AcDbEntity
  8
0
100
AcDbBlockEnd
  0
BLOCK
  5
1C
330
1B
100
AcDbEntity
 67
     1
  8
0
100
AcDbBlockBegin
  2
*Paper_Space
 70
     0
 10
0.0
 20
0.0
 30
0.0
  3
*Paper_Space
  1

  0
ENDBLK
  5
1D
330
1B
100
AcDbEntity
 67
     1
  8
0
100
AcDbBlockEnd
  0
BLOCK
  5
24
330
23
100
AcDbEntity
  8
0
100
AcDbBlockBegin
  2
*Paper_Space0
 70
     0
 10
0.0
 20
0.0
 30
0.0
  3
*Paper_Space0
  1

  0
ENDBLK
  5
25
330
23
100
AcDbEntity
  8
0
100
AcDbBlockEnd
  0
ENDSEC
  0
SECTION
  2
ENTITIES
  0
SPLINE
  5
41
330
1F
100
AcDbEntity
  8
Layer 1
370
     0
100
AcDbSpline
210
0.0
220
0.0
230
1.0
 70
    11
 71
     3
 72
   521
 73
   517
 74
     0
 42
0.0000000001
 43
0.0000000001
 12
1.0
 22
0.0
 32
0.0
 13
1.0
 23
0.0
 33
0.0
 40
0.0
 40
0.0
 40
0.0
 40
0.0
 40
1.0
 40
1.0
 40
1.0
 40
2.0
 40
2.0
 40
2.0
 40
3.0
 40
3.0
 40
3.0
 40
4.0
 40
4.0
 40
4.0
 40
5.0
 40
5.0
 40
5.0
 40
6.0
 40
6.0
 40
6.0
 40
7.0
 40
7.0
 40
7.0
 40
8.0
 40
8.0
 40
8.0
 40
9.0
 40
9.0
 40
9.0
 40
10.0
 40
10.0
 40
10.0
 40
11.0
 40
11.0
 40
11.0
 40
12.0
 40
12.0
 40
12.0
 40
13.0
 40
13.0
 40
13.0
 40
14.0
 40
14.0
 40
14.0
 40
15.0
 40
15.0
 40
15.0
 40
16.0
 40
16.0
 40
16.0
 40
17.0
 40
17.0
 40
17.0
 40
18.0
 40
18.0
 40
18.0
 40
19.0
 40
19.0
 40
19.0
 40
20.0
 40
20.0
 40
20.0
 40
21.0
 40
21.0
 40
21.0
 40
22.0
 40
22.0
 40
22.0
 40
23.0
 40
23.0
 40
23.0
 40
24.0
 40
24.0
 40
24.0
 40
25.0
 40
25.0
 40
25.0
 40
26.0
 40
26.0
 40
26.0
 40
27.0
 40
27.0
 40
27.0
 40
28.0
 40
28.0
 40
28.0
 40
29.0
 40
29.0
 40
29.0
 40
30.0
 40
30.0
 40
30.0
 40
31.0
 40
31.0
 40
31.0
 40
32.0
 40
32.0
 40
32.0
 40
33.0
 40
33.0
 40
33.0
 40
34.0
 40
34.0
 40
34.0
 40
35.0
 40
35.0
 40
35.0
 40
36.0
 40
36.0
 40
36.0
 40
37.0
 40
37.0
 40
37.0
 40
38.0
 40
38.0
 40
38.0
 40
39.0
 40
39.0
 40
39.0
 40
40.0
 40
40.0
 40
40.0
 40
41.0
 40
41.0
 40
41.0
 40
42.0
 40
42.0
 40
42.0
 40
43.0
 40
43.0
 40
43.0
 40
44.0
 40
44.0
 40
44.0
 40
45.0
 40
45.0
 40
45.0
 40
46.0
 40
46.0
 40
46.0
 40
47.0
 40
47.0
 40
47.0
 40
48.0
 40
48.0
 40
48.0
 40
49.0
 40
49.0
 40
49.0
 40
50.0
 40
50.0
 40
50.0
 40
51.0
 40
51.0
 40
51.0
 40
52.0
 40
52.0
 40
52.0
 40
53.0
 40
53.0
 40
53.0
 40
54.0
 40
54.0
 40
54.0
 40
55.0
 40
55.0
 40
55.0
 40
56.0
 40
56.0
 40
56.0
 40
57.0
 40
57.0
 40
57.0
 40
58.0
 40
58.0
 40
58.0
 40
59.0
 40
59.0
 40
59.0
 40
60.0
 40
60.0
 40
60.0
 40
61.0
 40
61.0
 40
61.0
 40
62.0
 40
62.0
 40
62.0
 40
63.0
 40
63.0
 40
63.0
 40
64.0
 40
64.0
 40
64.0
 40
65.0
 40
65.0
 40
65.0
 40
66.0
 40
66.0
 40
66.0
 40
67.0
 40
67.0
 40
67.0
 40
68.0
 40
68.0
 40
68.0
 40
69.0
 40
69.0
 40
69.0
 40
70.0
 40
70.0
 40
70.0
 40
71.0
 40
71.0
 40
71.0
 40
72.0
 40
72.0
 40
72.0
 40
73.0
 40
73.0
 40
73.0
 40
74.0
 40
74.0
 40
74.0
 40
75.0
 40
75.0
 40
75.0
 40
76.0
 40
76.0
 40
76.0
 40
77.0
 40
77.0
 40
77.0
 40
78.0
 40
78.0
 40
78.0
 40
79.0
 40
79.0
 40
79.0
 40
80.0
 40
80.0
 40
80.0
 40
81.0
 40
81.0
 40
81.0
 40
82.0
 40
82.0
 40
82.0
 40
83.0
 40
83.0
 40
83.0
 40
84.0
 40
84.0
 40
84.0
 40
85.0
 40
85.0
 40
85.0
 40
86.0
 40
86.0
 40
86.0
 40
87.0
 40
87.0
 40
87.0
 40
88.0
 40
88.0
 40
88.0
 40
89.0
 40
89.0
 40
89.0
 40
90.0
 40
90.0
 40
90.0
 40
91.0
 40
91.0
 40
91.0
 40
92.0
 40
92.0
 40
92.0
 40
93.0
 40
93.0
 40
93.0
 40
94.0
 40
94.0
 40
94.0
 40
95.0
 40
95.0
 40
95.0
 40
96.0
 40
96.0
 40
96.0
 40
97.0
 40
97.0
 40
97.0
 40
98.0
 40
98.0
 40
98.0
 40
99.0
 40
99.0
 40
99.0
 40
100.0
 40
100.0
 40
100.0
 40
101.0
 40
101.0
 40
101.0
 40
102.0
 40
102.0
 40
102.0
 40
103.0
 40
103.0
 40
103.0
 40
104.0
 40
104.0
 40
104.0
 40
105.0
 40
105.0
 40
105.0
 40
106.0
 40
106.0
 40
106.0
 40
107.0
 40
107.0
 40
107.0
 40
108.0
 40
108.0
 40
108.0
 40
109.0
 40
109.0
 40
109.0
 40
110.0
 40
110.0
 40
110.0
 40
111.0
 40
111.0
 40
111.0
 40
112.0
 40
112.0
 40
112.0
 40
113.0
 40
113.0
 40
113.0
 40
114.0
 40
114.0
 40
114.0
 40
115.0
 40
115.0
 40
115.0
 40
116.0
 40
116.0
 40
116.0
 40
117.0
 40
117.0
 40
117.0
 40
118.0
 40
118.0
 40
118.0
 40
119.0
 40
119.0
 40
119.0
 40
120.0
 40
120.0
 40
120.0
 40
121.0
 40
121.0
 40
121.0
 40
122.0
 40
122.0
 40
122.0
 40
123.0
 40
123.0
 40
123.0
 40
124.0
 40
124.0
 40
124.0
 40
125.0
 40
125.0
 40
125.0
 40
126.0
 40
126.0
 40
126.0
 40
127.0
 40
127.0
 40
127.0
 40
128.0
 40
128.0
 40
128.0
 40
129.0
 40
129.0
 40
129.0
 40
130.0
 40
130.0
 40
130.0
 40
131.0
 40
131.0
 40
131.0
 40
132.0
 40
132.0
 40
132.0
 40
133.0
 40
133.0
 40
133.0
 40
134.0
 40
134.0
 40
134.0
 40
135.0
 40
135.0
 40
135.0
 40
136.0
 40
136.0
 40
136.0
 40
137.0
 40
137.0
 40
137.0
 40
138.0
 40
138.0
 40
138.0
 40
139.0
 40
139.0
 40
139.0
 40
140.0
 40
140.0
 40
140.0
 40
141.0
 40
141.0
 40
141.0
 40
142.0
 40
142.0
 40
142.0
 40
143.0
 40
143.0
 40
143.0
 40
144.0
 40
144.0
 40
144.0
 40
145.0
 40
145.0
 40
145.0
 40
146.0
 40
146.0
 40
146.0
 40
147.0
 40
147.0
 40
147.0
 40
148.0
 40
148.0
 40
148.0
 40
149.0
 40
149.0
 40
149.0
 40
150.0
 40
150.0
 40
150.0
 40
151.0
 40
151.0
 40
151.0
 40
152.0
 40
152.0
 40
152.0
 40
153.0
 40
153.0
 40
153.0
 40
154.0
 40
154.0
 40
154.0
 40
155.0
 40
155.0
 40
155.0
 40
156.0
 40
156.0
 40
156.0
 40
157.0
 40
157.0
 40
157.0
 40
158.0
 40
158.0
 40
158.0
 40
159.0
 40
159.0
 40
159.0
 40
160.0
 40
160.0
 40
160.0
 40
161.0
 40
161.0
 40
161.0
 40
162.0
 40
162.0
 40
162.0
 40
163.0
 40
163.0
 40
163.0
 40
164.0
 40
164.0
 40
164.0
 40
165.0
 40
165.0
 40
165.0
 40
166.0
 40
166.0
 40
166.0
 40
167.0
 40
167.0
 40
167.0
 40
168.0
 40
168.0
 40
168.0
 40
169.0
 40
169.0
 40
169.0
 40
170.0
 40
170.0
 40
170.0
 40
171.0
 40
171.0
 40
171.0
 40
172.0
 40
172.0
 40
172.0
 40
172.0
 10
33.87022916666668
 20
-5.140033333333336
 30
0.0
 10
33.84845138888888
 20
-5.016141666666663
 30
0.0
 10
33.84842222222223
 20
-4.91347638888889
 30
0.0
 10
33.87011111111112
 20
-4.817022222222223
 30
0.0
 10
33.91861388888888
 20
-4.601086111111107
 30
0.0
 10
33.92760000000001
 20
-4.380099999999995
 30
0.0
 10
33.93629027777776
 20
-4.166452777777774
 30
0.0
 10
33.94030138888888
 20
-4.068155555555551
 30
0.0
 10
33.94444583333335
 20
-3.966574999999996
 30
0.0
 10
33.95237916666666
 20
-3.867713888888892
 30
0.0
 10
33.97683055555555
 20
-3.564162500000002
 30
0.0
 10
33.95882638888889
 20
-3.257580555555553
 30
0.0
 10
33.94140138888888
 20
-2.961055555555554
 30
0.0
 10
33.9373013888889
 20
-2.891533333333339
 30
0.0
 10
33.93321527777779
 20
-2.822055555555557
 30
0.0
 10
33.92964999999999
 20
-2.752591666666667
 30
0.0
 10
33.92009861111111
 20
-2.56535694444445
 30
0.0
 10
33.92886388888888
 20
-2.373634722222227
 30
0.0
 10
33.93733055555556
 20
-2.188168055555555
 30
0.0
 10
33.94310972222224
 20
-2.060991666666673
 30
0.0
 10
33.9491263888889
 20
-1.929508333333337
 30
0.0
 10
33.94930416666668
 20
-1.79934722222222
 30
0.0
 10
33.94969305555555
 20
-1.498143055555551
 30
0.0
 10
33.86504583333332
 20
-1.213561111111112
 30
0.0
 10
33.79124444444444
 20
-0.9992749999999988
 30
0.0
 10
33.72627083333332
 20
-0.8105249999999967
 30
0.0
 10
33.6992763888889
 20
-0.6062944444444408
 30
0.0
 10
33.673175
 20
-0.4088097222222207
 30
0.0
 10
33.673175
 20
-0.4088097222222207
 30
0.0
 10
33.67146666666667
 20
-0.3959152777777793
 30
0.0
 10
33.67146666666667
 20
-0.3959152777777793
 30
0.0
 10
33.66706944444445
 20
-0.3626694444444385
 30
0.0
 10
33.66337083333332
 20
-0.328219444444446
 30
0.0
 10
33.65961249999999
 20
-0.2932069444444399
 30
0.0
 10
33.6414736111111
 20
-0.1246144444444452
 30
0.0
 10
33.62092916666668
 20
0.0664683333333313
 30
0.0
 10
33.51361527777777
 20
0.2109805555555542
 30
0.0
 10
33.41984861111111
 20
0.337338888888894
 30
0.0
 10
33.30798888888889
 20
0.3499208333333348
 30
0.0
 10
33.2307125
 20
0.3386013888888834
 30
0.0
 10
33.16049166666668
 20
0.3280388888888915
 30
0.0
 10
33.0986638888889
 20
0.292327777777776
 30
0.0
 10
33.04170972222222
 20
0.2295638888888839
 30
0.0
 10
32.92499166666666
 20
0.1007393055555591
 30
0.0
 10
32.84692777777779
 20
-0.0415588888888831
 30
0.0
 10
32.80970277777778
 20
-0.1933944444444427
 30
0.0
 10
32.77559305555557
 20
-0.3325124999999944
 30
0.0
 10
32.74840833333332
 20
-0.474618055555551
 30
0.0
 10
32.72827916666665
 20
-0.6187430555555566
 30
0.0
 10
32.72214444444444
 20
-0.457237499999994
 30
0.0
 10
32.69281944444444
 20
-0.2944097222222252
 30
0.0
 10
32.640975
 20
-0.1344188888888943
 30
0.0
 10
32.59029166666667
 20
0.0222294444444439
 30
0.0
 10
32.43958333333332
 20
0.1863791666666606
 30
0.0
 10
32.24967361111112
 20
0.1971347222222195
 30
0.0
 10
32.01078888888888
 20
0.2108458333333374
 30
0.0
 10
31.86640972222222
 20
-0.0531904166666664
 30
0.0
 10
31.81211388888889
 20
-0.1524972222222232
 30
0.0
 10
31.68272499999999
 20
-0.3892152777777811
 30
0.0
 10
31.60926527777777
 20
-0.6540097222222255
 30
0.0
 10
31.54916111111111
 20
-0.9048999999999978
 30
0.0
 10
31.4134736111111
 20
-1.471404166666667
 30
0.0
 10
31.33280972222221
 20
-2.059090277777778
 30
0.0
 10
31.26183194444444
 20
-2.612447222222221
 30
0.0
 10
31.24244583333332
 20
-2.763331944444442
 30
0.0
 10
31.21791944444445
 20
-2.92464444444445
 30
0.0
 10
31.17023472222223
 20
-3.081605555555559
 30
0.0
 10
31.10919444444446
 20
-3.282358333333339
 30
0.0
 10
30.97531944444444
 20
-3.448291666666667
 30
0.0
 10
30.85457499999999
 20
-3.587990277777774
 30
0.0
 10
30.65922916666667
 20
-3.814101388888894
 30
0.0
 10
30.43469305555555
 20
-4.021183333333334
 30
0.0
 10
30.16826388888888
 20
-4.22119444444445
 30
0.0
 10
29.95824444444444
 20
-4.378837499999993
 30
0.0
 10
29.71326388888888
 20
-4.558422222222222
 30
0.0
 10
29.45090555555556
 20
-4.705890277777775
 30
0.0
 10
29.44413194444444
 20
-4.523274999999999
 30
0.0
 10
29.43801388888889
 20
-4.314677777777774
 30
0.0
 10
29.44373055555555
 20
-4.110626388888893
 30
0.0
 10
29.44695416666666
 20
-3.995900000000006
 30
0.0
 10
29.45772500000001
 20
-3.896979166666672
 30
0.0
 10
29.47675416666667
 20
-3.808159722222222
 30
0.0
 10
29.51249583333333
 20
-3.641023611111109
 30
0.0
 10
29.55590277777777
 20
-3.467766666666661
 30
0.0
 10
29.59786805555556
 20
-3.300259722222222
 30
0.0
 10
29.74062777777778
 20
-2.730591666666669
 30
0.0
 10
29.88822916666667
 20
-2.141522222222218
 30
0.0
 10
29.80909722222222
 20
-1.554979166666663
 30
0.0
 10
29.74275138888889
 20
-1.063687500000002
 30
0.0
 10
29.59005416666667
 20
-0.7804430555555528
 30
0.0
 10
29.34235833333333
 20
-0.6890388888888942
 30
0.0
 10
29.11666388888889
 20
-0.6057902777777776
 30
0.0
 10
28.94257500000001
 20
-0.6682416666666692
 30
0.0
 10
28.82520416666667
 20
-0.8750111111111083
 30
0.0
 10
28.80105
 20
-0.917541666666668
 30
0.0
 10
28.7799111111111
 20
-0.9603986111111074
 30
0.0
 10
28.76413472222222
 20
-0.9930208333333388
 30
0.0
 10
28.6758638888889
 20
-1.176141666666669
 30
0.0
 10
28.63957361111112
 20
-1.37292777777778
 30
0.0
 10
28.60445555555556
 20
-1.563194444444447
 30
0.0
 10
28.58900555555556
 20
-1.647006944444444
 30
0.0
 10
28.57300694444444
 20
-1.733672222222228
 30
0.0
 10
28.55287777777778
 20
-1.816861111111115
 30
0.0
 10
28.46407361111111
 20
-2.183547222222223
 30
0.0
 10
28.32124027777778
 20
-2.516304166666663
 30
0.0
 10
28.17004444444444
 20
-2.868581944444448
 30
0.0
 10
28.13621944444445
 20
-2.947402777777774
 30
0.0
 10
28.10230416666666
 20
-3.026418055555559
 30
0.0
 10
28.068925
 20
-3.105997222222224
 30
0.0
 10
27.88767638888888
 20
-3.538626388888891
 30
0.0
 10
27.7679138888889
 20
-3.969041666666663
 30
0.0
 10
27.71308333333334
 20
-4.385418055555558
 30
0.0
 10
27.68522916666667
 20
-4.596540277777775
 30
0.0
 10
27.68065416666666
 20
-4.810381944444442
 30
0.0
 10
27.67622638888889
 20
-5.01721111111111
 30
0.0
 10
27.6725875
 20
-5.187124999999999
 30
0.0
 10
27.66885833333333
 20
-5.362862500000006
 30
0.0
 10
27.6520875
 20
-5.533963888888883
 30
0.0
 10
27.61905
 20
-5.870762500000006
 30
0.0
 10
27.52926666666667
 20
-6.204395833333339
 30
0.0
 10
27.44240555555555
 20
-6.527036111111101
 30
0.0
 10
27.38940277777778
 20
-6.723941666666658
 30
0.0
 10
27.33460138888889
 20
-6.927533333333334
 30
0.0
 10
27.29265000000001
 20
-7.131331944444455
 30
0.0
 10
27.19765138888889
 20
-7.593224999999999
 30
0.0
 10
27.19846805555556
 20
-8.0705375
 30
0.0
 10
27.19925555555556
 20
-8.532179166666664
 30
0.0
 10
27.19976111111112
 20
-8.813848611111123
 30
0.0
 10
27.20028055555556
 20
-9.105055555555559
 30
0.0
 10
27.17868333333334
 20
-9.387363888888887
 30
0.0
 10
27.1642125
 20
-9.576559722222227
 30
0.0
 10
27.14332777777777
 20
-9.799819444444438
 30
0.0
 10
27.09822500000001
 20
-10.02119166666666
 30
0.0
 10
27.07340277777777
 20
-10.14287083333334
 30
0.0
 10
27.04132916666666
 20
-10.26588750000001
 30
0.0
 10
27.01025277777777
 20
-10.38484722222223
 30
0.0
 10
26.9979375
 20
-10.43219166666667
 30
0.0
 10
26.98557777777778
 20
-10.47947499999999
 30
0.0
 10
26.97359027777778
 20
-10.52695277777778
 30
0.0
 10
26.94622638888889
 20
-10.63548472222222
 30
0.0
 10
27.02176527777778
 20
-10.67220694444445
 30
0.0
 10
27.04550416666666
 20
-10.68092638888889
 30
0.0
 10
27.11086666666666
 20
-10.70469583333334
 30
0.0
 10
27.17239722222222
 20
-10.67663333333333
 30
0.0
 10
27.20233055555555
 20
-10.60893888888889
 30
0.0
 10
27.210575
 20
-10.59022083333333
 30
0.0
 10
27.21531388888889
 20
-10.57138472222222
 30
0.0
 10
27.21914722222222
 20
-10.55621666666666
 30
0.0
 10
27.38283611111111
 20
-9.902156944444439
 30
0.0
 10
27.46525277777778
 20
-9.23502361111112
 30
0.0
 10
27.46418333333333
 20
-8.573268055555546
 30
0.0
 10
27.46409444444445
 20
-8.508841666666664
 30
0.0
 10
27.46364861111111
 20
-8.444369444444444
 30
0.0
 10
27.46323333333334
 20
-8.379897222222224
 30
0.0
 10
27.46140555555555
 20
-8.093919444444433
 30
0.0
 10
27.45950416666667
 20
-7.798152777777785
 30
0.0
 10
27.48593194444445
 20
-7.510036111111098
 30
0.0
 10
27.51133472222222
 20
-7.23323888888889
 30
0.0
 10
27.58324861111112
 20
-6.979495833333329
 30
0.0
 10
27.65938194444445
 20
-6.710913888888879
 30
0.0
 10
27.68026805555555
 20
-6.637276388888899
 30
0.0
 10
27.70125833333333
 20
-6.563119444444434
 30
0.0
 10
27.7213875
 20
-6.488086111111114
 30
0.0
 10
27.84058472222222
 20
-6.043959722222224
 30
0.0
 10
27.86965694444445
 20
-5.585734722222216
 30
0.0
 10
27.8977486111111
 20
-5.142693055555557
 30
0.0
 10
27.90937916666667
 20
-4.95905277777778
 30
0.0
 10
27.92145694444444
 20
-4.769173611111114
 30
0.0
 10
27.93972916666667
 20
-4.582383333333332
 30
0.0
 10
27.98049166666667
 20
-4.16625972222222
 30
0.0
 10
28.07265277777777
 20
-3.756581944444444
 30
0.0
 10
28.20629166666667
 20
-3.397472222222227
 30
0.0
 10
28.27111944444444
 20
-3.223323611111116
 30
0.0
 10
28.34946527777778
 20
-3.050691666666669
 30
0.0
 10
28.42525694444445
 20
-2.883748611111109
 30
0.0
 10
28.52636111111111
 20
-2.660934722222224
 30
0.0
 10
28.63094166666666
 20
-2.430590277777772
 30
0.0
 10
28.70686666666667
 20
-2.189743055555557
 30
0.0
 10
28.75477500000001
 20
-2.03778888888889
 30
0.0
 10
28.78499027777778
 20
-1.878109722222222
 30
0.0
 10
28.81419583333334
 20
-1.723630555555549
 30
0.0
 10
28.86599583333333
 20
-1.449788888888886
 30
0.0
 10
28.91492916666667
 20
-1.19113055555556
 30
0.0
 10
29.05387083333333
 20
-0.9647069444444393
 30
0.0
 10
29.0904013888889
 20
-0.9050930555555522
 30
0.0
 10
29.12792361111111
 20
-0.8892277777777811
 30
0.0
 10
29.20222916666666
 20
-0.901929166666668
 30
0.0
 10
29.27706944444445
 20
-0.9145708333333383
 30
0.0
 10
29.33537638888889
 20
-0.9547097222222192
 30
0.0
 10
29.38585555555556
 20
-1.028227777777778
 30
0.0
 10
29.45836527777778
 20
-1.133729166666664
 30
0.0
 10
29.49625833333334
 20
-1.255661111111117
 30
0.0
 10
29.53177777777778
 20
-1.381841666666661
 30
0.0
 10
29.6195875
 20
-1.693666666666672
 30
0.0
 10
29.59509027777777
 20
-2.016040277777771
 30
0.0
 10
29.55551805555555
 20
-2.31794305555555
 30
0.0
 10
29.51753194444445
 20
-2.607961111111106
 30
0.0
 10
29.44992499999999
 20
-2.892720833333328
 30
0.0
 10
29.38876666666667
 20
-3.133123611111109
 30
0.0
 10
29.26835
 20
-3.606708333333333
 30
0.0
 10
29.19043472222222
 20
-4.00943333333334
 30
0.0
 10
29.20162083333333
 20
-4.435733333333334
 30
0.0
 10
29.20263055555557
 20
-4.474356944444442
 30
0.0
 10
29.20276388888889
 20
-4.512905555555562
 30
0.0
 10
29.2029125
 20
-4.551411111111116
 30
0.0
 10
29.20326944444444
 20
-4.637437499999995
 30
0.0
 10
29.20358194444444
 20
-4.726434722222217
 30
0.0
 10
29.21366805555556
 20
-4.815759722222221
 30
0.0
 10
29.21375694444444
 20
-4.816576388888885
 30
0.0
 10
29.21383194444444
 20
-4.817333333333332
 30
0.0
 10
29.21389027777779
 20
-4.818031944444442
 30
0.0
 10
29.16969722222223
 20
-4.830555555555557
 30
0.0
 10
29.12826527777777
 20
-4.84502361111111
 30
0.0
 10
29.0905625
 20
-4.861275000000003
 30
0.0
 10
29.05768888888888
 20
-4.875491666666663
 30
0.0
 10
29.03296944444445
 20
-4.901087500000004
 30
0.0
 10
29.02096666666667
 20
-4.933338888888884
 30
0.0
 10
29.00949722222223
 20
-4.964177777777776
 30
0.0
 10
29.0110125
 20
-4.997363888888887
 30
0.0
 10
29.02522916666666
 20
-5.026881944444439
 30
0.0
 10
29.0535875
 20
-5.085679166666662
 30
0.0
 10
29.11422777777778
 20
-5.110130555555555
 30
0.0
 10
29.17593611111111
 20
-5.088011111111111
 30
0.0
 10
29.17593611111111
 20
-5.088011111111111
 30
0.0
 10
29.21249444444445
 20
-5.074923611111116
 30
0.0
 10
29.21249444444445
 20
-5.074923611111116
 30
0.0
 10
29.31395555555556
 20
-5.038706944444445
 30
0.0
 10
29.4188513888889
 20
-5.001226388888893
 30
0.0
 10
29.51818472222222
 20
-4.946797222222219
 30
0.0
 10
30.12249583333333
 20
-4.615570833333335
 30
0.0
 10
30.65648055555554
 20
-4.191409722222223
 30
0.0
 10
31.06245972222223
 20
-3.720172222222219
 30
0.0
 10
31.2856888888889
 20
-3.461066666666663
 30
0.0
 10
31.41703888888888
 20
-3.192990277777779
 30
0.0
 10
31.46401111111112
 20
-2.900623611111112
 30
0.0
 10
31.49459722222223
 20
-2.710240277777782
 30
0.0
 10
31.52248055555555
 20
-2.519394444444439
 30
0.0
 10
31.55031944444444
 20
-2.328563888888892
 30
0.0
 10
31.5891361111111
 20
-2.062759722222217
 30
0.0
 10
31.62927500000001
 20
-1.787908333333336
 30
0.0
 10
31.67647083333334
 20
-1.519252777777776
 30
0.0
 10
31.67647083333334
 20
-1.519252777777776
 30
0.0
 10
31.68550277777778
 20
-1.467674999999998
 30
0.0
 10
31.68550277777778
 20
-1.467674999999998
 30
0.0
 10
31.75801111111112
 20
-1.053823611111107
 30
0.0
 10
31.83301527777778
 20
-0.625888888888893
 30
0.0
 10
32.02779583333333
 20
-0.2634361111111174
 30
0.0
 10
32.06894583333334
 20
-0.1868722222222282
 30
0.0
 10
32.11483333333333
 20
-0.1247480555555537
 30
0.0
 10
32.16805972222222
 20
-0.0734826388888905
 30
0.0
 10
32.21489999999999
 20
-0.0282783333333327
 30
0.0
 10
32.26228888888888
 20
-0.0270155555555599
 30
0.0
 10
32.31297222222221
 20
-0.0695609722222217
 30
0.0
 10
32.35899583333334
 20
-0.1081844444444439
 30
0.0
 10
32.38943194444444
 20
-0.1509083333333289
 30
0.0
 10
32.40608750000001
 20
-0.2000930555555492
 30
0.0
 10
32.48434166666667
 20
-0.4313152777777733
 30
0.0
 10
32.49041805555557
 20
-0.6887111111111103
 30
0.0
 10
32.49625833333334
 20
-0.9376402777777836
 30
0.0
 10
32.49625833333334
 20
-0.9376402777777836
 30
0.0
 10
32.49869166666667
 20
-1.033605555555558
 30
0.0
 10
32.49869166666667
 20
-1.033605555555558
 30
0.0
 10
32.50810972222222
 20
-1.367045833333337
 30
0.0
 10
32.49454722222223
 20
-1.706175000000005
 30
0.0
 10
32.48140277777777
 20
-2.034059722222221
 30
0.0
 10
32.47132916666666
 20
-2.286465277777779
 30
0.0
 10
32.46085555555555
 20
-2.547397222222217
 30
0.0
 10
32.46085555555555
 20
-2.805238888888892
 30
0.0
 10
32.46085555555555
 20
-3.246647222222224
 30
0.0
 10
32.39599722222222
 20
-3.584068055555551
 30
0.0
 10
32.26256805555555
 20
-3.836859722222218
 30
0.0
 10
32.17428333333333
 20
-4.003995833333331
 30
0.0
 10
32.04243055555555
 20
-4.129715277777779
 30
0.0
 10
31.90286388888888
 20
-4.262847222222224
 30
0.0
 10
31.90286388888888
 20
-4.262847222222224
 30
0.0
 10
31.88364166666666
 20
-4.281179166666663
 30
0.0
 10
31.88364166666666
 20
-4.281179166666663
 30
0.0
 10
31.60096111111112
 20
-4.551158333333332
 30
0.0
 10
31.24370833333334
 20
-4.921513888888891
 30
0.0
 10
30.98827222222222
 20
-5.393834722222222
 30
0.0
 10
30.93935416666666
 20
-5.48529861111111
 30
0.0
 10
30.97800694444443
 20
-5.54914722222222
 30
0.0
 10
31.02591527777778
 20
-5.576004166666672
 30
0.0
 10
31.05452638888889
 20
-5.592181944444443
 30
0.0
 10
31.08539583333332
 20
-5.59598472222222
 30
0.0
 10
31.11543333333333
 20
-5.587443055555556
 30
0.0
 10
31.13960277777778
 20
-5.58037222222222
 30
0.0
 10
31.17418611111111
 20
-5.561283333333336
 30
0.0
 10
31.20148888888889
 20
-5.510270833333329
 30
0.0
 10
31.40279305555555
 20
-5.134477777777773
 30
0.0
 10
31.6786388888889
 20
-4.793951388888886
 30
0.0
 10
32.04492499999999
 20
-4.469097222222217
 30
0.0
 10
32.20530138888888
 20
-4.326948611111106
 30
0.0
 10
32.38415833333334
 20
-4.149888888888894
 30
0.0
 10
32.49505277777777
 20
-3.914805555555555
 30
0.0
 10
32.87154305555555
 20
-3.116559722222228
 30
0.0
 10
32.92353611111111
 20
-2.255298611111117
 30
0.0
 10
32.92474027777777
 20
-1.518123611111112
 30
0.0
 10
32.92530416666666
 20
-1.167986111111115
 30
0.0
 10
32.93732222222221
 20
-0.7555305555555504
 30
0.0
 10
33.02217500000001
 20
-0.3510374999999991
 30
0.0
 10
33.05906111111113
 20
-0.1753152777777763
 30
0.0
 10
33.12259583333334
 20
-0.0423758333333303
 30
0.0
 10
33.22218611111111
 20
0.0674190277777724
 30
0.0
 10
33.24130416666667
 20
0.0884094444444498
 30
0.0
 10
33.25963611111112
 20
0.1013631944444392
 30
0.0
 10
33.27306527777778
 20
0.0996548611111115
 30
0.0
 10
33.28634583333334
 20
0.0991498611111107
 30
0.0
 10
33.30397916666667
 20
0.0858098611111144
 30
0.0
 10
33.32141805555557
 20
0.0631258333333386
 30
0.0
 10
33.34753333333333
 20
0.0292411111111051
 30
0.0
 10
33.36564305555557
 20
-0.0121009444444427
 30
0.0
 10
33.38204305555556
 20
-0.0751168055555556
 30
0.0
 10
33.41444166666666
 20
-0.2000347222222242
 30
0.0
 10
33.42781111111112
 20
-0.3274027777777822
 30
0.0
 10
33.4419986111111
 20
-0.4621694444444478
 30
0.0
 10
33.45455138888888
 20
-0.5814416666666677
 30
0.0
 10
33.46750416666666
 20
-0.7047708333333276
 30
0.0
 10
33.49494166666666
 20
-0.8252611111111162
 30
0.0
 10
33.51823472222223
 20
-0.9275388888888881
 30
0.0
 10
33.54756250000001
 20
-1.026579166666667
 30
0.0
 10
33.57591805555555
 20
-1.122290277777779
 30
0.0
 10
33.63015694444445
 20
-1.305293055555555
 30
0.0
 10
33.68136111111112
 20
-1.478102777777773
 30
0.0
 10
33.69181805555556
 20
-1.667611111111114
 30
0.0
 10
33.70309583333334
 20
-1.87216805555555
 30
0.0
 10
33.69560694444444
 20
-2.07994722222222
 30
0.0
 10
33.68834305555556
 20
-2.280834722222228
 30
0.0
 10
33.67993472222221
 20
-2.513898611111105
 30
0.0
 10
33.67124444444445
 20
-2.754865277777779
 30
0.0
 10
33.6913138888889
 20
-2.995697222222222
 30
0.0
 10
33.69582916666668
 20
-3.049875000000005
 30
0.0
 10
33.70098472222222
 20
-3.104036111111112
 30
0.0
 10
33.70613888888889
 20
-3.158154166666665
 30
0.0
 10
33.72029583333334
 20
-3.306825000000003
 30
0.0
 10
33.73495833333332
 20
-3.460562499999999
 30
0.0
 10
33.73464583333334
 20
-3.611194444444449
 30
0.0
 10
33.73436388888889
 20
-3.744445833333328
 30
0.0
 10
33.71460694444444
 20
-3.864416666666671
 30
0.0
 10
33.67421527777778
 20
-3.977954166666664
 30
0.0
 10
33.54368194444444
 20
-4.34514583333334
 30
0.0
 10
33.26504305555555
 20
-4.637497222222223
 30
0.0
 10
32.99554166666667
 20
-4.920251388888889
 30
0.0
 10
32.99554166666667
 20
-4.920251388888889
 30
0.0
 10
32.98558888888889
 20
-4.930738888888893
 30
0.0
 10
32.98558888888889
 20
-4.930738888888893
 30
0.0
 10
32.74044583333332
 20
-5.187956944444446
 30
0.0
 10
32.43219999999999
 20
-5.539401388888892
 30
0.0
 10
32.22257777777779
 20
-5.977719444444447
 30
0.0
 10
32.22257777777779
 20
-5.977719444444447
 30
0.0
 10
32.21920833333333
 20
-5.984731944444446
 30
0.0
 10
32.21920833333333
 20
-5.984731944444446
 30
0.0
 10
32.20656388888889
 20
-6.011024999999992
 30
0.0
 10
32.19350833333333
 20
-6.038209722222215
 30
0.0
 10
32.18434027777776
 20
-6.068618055555564
 30
0.0
 10
32.1662611111111
 20
-6.12815833333333
 30
0.0
 10
32.19328333333333
 20
-6.185499999999997
 30
0.0
 10
32.25156111111111
 20
-6.211229166666675
 30
0.0
 10
32.30285555555555
 20
-6.233794444444432
 30
0.0
 10
32.3559625
 20
-6.220008333333326
 30
0.0
 10
32.39344305555556
 20
-6.174180555555545
 30
0.0
 10
32.40571249999999
 20
-6.159265277777775
 30
0.0
 10
32.41331944444444
 20
-6.143087499999991
 30
0.0
 10
32.419425
 20
-6.129168055555561
 30
0.0
 10
32.51800416666666
 20
-5.906162500000012
 30
0.0
 10
32.65305277777777
 20
-5.706344444444438
 30
0.0
 10
32.82552222222223
 20
-5.474870833333335
 30
0.0
 10
32.94806250000001
 20
-5.31045277777778
 30
0.0
 10
33.09246944444445
 20
-5.158425000000003
 30
0.0
 10
33.23210833333334
 20
-5.011462500000006
 30
0.0
 10
33.28772638888888
 20
-4.952858333333337
 30
0.0
 10
33.34335972222222
 20
-4.894327777777776
 30
0.0
 10
33.39790833333333
 20
-4.834788888888889
 30
0.0
 10
33.49112500000001
 20
-4.733134722222227
 30
0.0
 10
33.5926
 20
-4.616773611111108
 30
0.0
 10
33.68277222222221
 20
-4.48573611111111
 30
0.0
 10
33.67932777777777
 20
-4.512088888888885
 30
0.0
 10
33.6753736111111
 20
-4.538441666666661
 30
0.0
 10
33.67082777777778
 20
-4.564616666666666
 30
0.0
 10
33.63727083333333
 20
-4.758298611111109
 30
0.0
 10
33.59349166666667
 20
-4.95406111111111
 30
0.0
 10
33.55114027777778
 20
-5.143391666666667
 30
0.0
 10
33.52180000000001
 20
-5.274606944444447
 30
0.0
 10
33.49143611111112
 20
-5.410325000000006
 30
0.0
 10
33.46460833333335
 20
-5.544838888888888
 30
0.0
 10
33.39917083333332
 20
-5.872529166666658
 30
0.0
 10
33.37360694444444
 20
-6.21027777777777
 30
0.0
 10
33.38856388888889
 20
-6.548456944444448
 30
0.0
 10
33.3898263888889
 20
-6.57791527777777
 30
0.0
 10
33.39140138888888
 20
-6.614637499999995
 30
0.0
 10
33.40846944444444
 20
-6.65073472222222
 30
0.0
 10
33.43532777777778
 20
-6.707556944444453
 30
0.0
 10
33.48815416666667
 20
-6.734177777777782
 30
0.0
 10
33.54617777777778
 20
-6.719945833333339
 30
0.0
 10
33.60524305555555
 20
-6.705611111111112
 30
0.0
 10
33.64111805555555
 20
-6.656484722222229
 30
0.0
 10
33.63758472222222
 20
-6.594790277777772
 30
0.0
 10
33.63679444444445
 20
-6.58133194444445
 30
0.0
 10
33.63533888888888
 20
-6.567931944444454
 30
0.0
 10
33.63385416666667
 20
-6.554533333333337
 30
0.0
 10
33.63262083333332
 20
-6.543331944444439
 30
0.0
 10
33.63135833333333
 20
-6.532220833333339
 30
0.0
 10
33.63071944444444
 20
-6.521019444444441
 30
0.0
 10
33.61409583333332
 20
-6.233541666666674
 30
0.0
 10
33.63722499999999
 20
-5.934669444444453
 30
0.0
 10
33.70538194444445
 20
-5.575559722222224
 30
0.0
 10
33.71301666666666
 20
-5.612295833333329
 30
0.0
 10
33.72063750000002
 20
-5.648958333333338
 30
0.0
 10
33.72825833333334
 20
-5.685620833333334
 30
0.0
 10
33.78123472222223
 20
-5.940418055555559
 30
0.0
 10
33.83600277777777
 20
-6.203950000000001
 30
0.0
 10
33.89327083333334
 20
-6.46254999999999
 30
0.0
 10
33.9488013888889
 20
-6.713245833333328
 30
0.0
 10
33.88144583333334
 20
-6.922481944444447
 30
0.0
 10
33.6874513888889
 20
-7.102319444444447
 30
0.0
 10
33.5066625
 20
-7.269959722222211
 30
0.0
 10
33.33937916666668
 20
-7.408588888888895
 30
0.0
 10
33.17597083333334
 20
-7.52609444444445
 30
0.0
 10
33.00425972222224
 20
-7.649615277777785
 30
0.0
 10
32.82344166666667
 20
-7.767372222222219
 30
0.0
 10
32.64862500000001
 20
-7.881223611111105
 30
0.0
 10
32.54221805555557
 20
-7.950566666666671
 30
0.0
 10
32.43579722222223
 20
-8.019911111111115
 30
0.0
 10
32.33054583333334
 20
-8.090888888888887
 30
0.0
 10
32.0899361111111
 20
-8.253345833333343
 30
0.0
 10
31.83181111111111
 20
-8.393609722222234
 30
0.0
 10
31.58872083333333
 20
-8.521052777777767
 30
0.0
 10
31.5380638888889
 20
-8.547598611111122
 30
0.0
 10
31.48688749999999
 20
-8.573074999999992
 30
0.0
 10
31.43572638888887
 20
-8.598611111111115
 30
0.0
 10
31.35968472222223
 20
-8.636536111111102
 30
0.0
 10
31.28103888888889
 20
-8.675725000000005
 30
0.0
 10
31.20477222222222
 20
-8.718076388888878
 30
0.0
 10
31.04017638888889
 20
-8.809422222222212
 30
0.0
 10
30.84798055555555
 20
-8.922380555555566
 30
0.0
 10
30.67028194444444
 20
-9.067323611111103
 30
0.0
 10
30.50229861111111
 20
-9.204302777777785
 30
0.0
 10
30.38637083333333
 20
-9.3806638888889
 30
0.0
 10
30.33498472222221
 20
-9.577318055555553
 30
0.0
 10
30.30763888888888
 20
-9.682062500000002
 30
0.0
 10
30.30745833333334
 20
-9.787058333333334
 30
0.0
 10
30.30729444444445
 20
-9.88857916666666
 30
0.0
 10
30.307175
 20
-9.962840277777786
 30
0.0
 10
30.30704444444445
 20
-10.03301666666668
 30
0.0
 10
30.296925
 20
-10.10210833333334
 30
0.0
 10
30.2736625
 20
-10.26082083333333
 30
0.0
 10
30.18974444444444
 20
-10.40886805555556
 30
0.0
 10
30.10859166666667
 20
-10.55204305555556
 30
0.0
 10
30.10859166666667
 20
-10.55204305555556
 30
0.0
 10
30.10242638888889
 20
-10.56291666666668
 30
0.0
 10
30.10242638888889
 20
-10.56291666666668
 30
0.0
 10
29.94484166666666
 20
-10.84091805555555
 30
0.0
 10
29.86086527777777
 20
-11.14528611111112
 30
0.0
 10
29.77963750000001
 20
-11.43967222222222
 30
0.0
 10
29.77963750000001
 20
-11.43967222222222
 30
0.0
 10
29.76231527777778
 20
-11.50231666666668
 30
0.0
 10
29.76231527777778
 20
-11.50231666666668
 30
0.0
 10
29.74407361111111
 20
-11.56816944444444
 30
0.0
 10
29.77134722222223
 20
-11.62582222222222
 30
0.0
 10
29.83174861111111
 20
-11.64927916666668
 30
0.0
 10
29.84721388888889
 20
-11.65522083333333
 30
0.0
 10
29.86275138888888
 20
-11.65813333333333
 30
0.0
 10
29.87788888888889
 20
-11.65813333333333
 30
0.0
 10
29.91923194444444
 20
-11.65813333333333
 30
0.0
 10
29.95754305555556
 20
-11.63650416666666
 30
0.0
 10
29.98235138888889
 20
-11.59694444444444
 30
0.0
 10
30.00236388888889
 20
-11.56508055555554
 30
0.0
 10
30.00998194444443
 20
-11.53220555555554
 30
0.0
 10
30.01671111111111
 20
-11.50319305555556
 30
0.0
 10
30.01671111111111
 20
-11.50319305555556
 30
0.0
 10
30.02106388888889
 20
-11.48499583333334
 30
0.0
 10
30.02106388888889
 20
-11.48499583333334
 30
0.0
 10
30.08440694444444
 20
-11.23587361111112
 30
0.0
 10
30.15710833333333
 20
-11.01741249999999
 30
0.0
 10
30.24329861111111
 20
-10.81703055555555
 30
0.0
 10
30.27505833333334
 20
-10.74325972222222
 30
0.0
 10
30.31503333333333
 20
-10.66962222222221
 30
0.0
 10
30.35369027777779
 20
-10.59843611111111
 30
0.0
 10
30.42768055555555
 20
-10.46222777777777
 30
0.0
 10
30.50417361111111
 20
-10.32138611111112
 30
0.0
 10
30.5361236111111
 20
-10.16069722222222
 30
0.0
 10
30.55095
 20
-10.08642083333332
 30
0.0
 10
30.54794861111111
 20
-10.01474444444443
 30
0.0
 10
30.54503750000001
 20
-9.945459722222216
 30
0.0
 10
30.54367083333333
 20
-9.913163888888876
 30
0.0
 10
30.54225972222222
 20
-9.880794444444442
 30
0.0
 10
30.5429125
 20
-9.848500000000007
 30
0.0
 10
30.5475625
 20
-9.615495833333322
 30
0.0
 10
30.62604305555556
 20
-9.433830555555561
 30
0.0
 10
30.78278055555554
 20
-9.292988888888885
 30
0.0
 10
30.93375416666666
 20
-9.157272222222218
 30
0.0
 10
31.11893888888888
 20
-9.034894444444438
 30
0.0
 10
31.36558055555555
 20
-8.907644444444434
 30
0.0
 10
31.41815277777778
 20
-8.880533333333334
 30
0.0
 10
31.47080277777778
 20
-8.853601388888894
 30
0.0
 10
31.52346111111112
 20
-8.826683333333323
 30
0.0
 10
31.78170416666666
 20
-8.694694444444444
 30
0.0
 10
32.04875694444445
 20
-8.558161111111101
 30
0.0
 10
32.29954305555556
 20
-8.399804166666677
 30
0.0
 10
32.29954305555556
 20
-8.399804166666677
 30
0.0
 10
32.40422777777778
 20
-8.333756944444454
 30
0.0
 10
32.40422777777778
 20
-8.333756944444454
 30
0.0
 10
32.7879236111111
 20
-8.091959722222226
 30
0.0
 10
33.1846611111111
 20
-7.841901388888876
 30
0.0
 10
33.5425111111111
 20
-7.550738888888898
 30
0.0
 10
33.5425111111111
 20
-7.550738888888898
 30
0.0
 10
33.59114444444445
 20
-7.511431944444439
 30
0.0
 10
33.59114444444445
 20
-7.511431944444439
 30
0.0
 10
33.76163750000001
 20
-7.37381388888889
 30
0.0
 10
33.95490416666667
 20
-7.217937500000011
 30
0.0
 10
34.0567375
 20
-7.010974999999992
 30
0.0
 10
34.15452916666666
 20
-6.812374999999999
 30
0.0
 10
34.17308333333332
 20
-6.563505555555543
 30
0.0
 10
34.11037916666666
 20
-6.291179166666678
 30
0.0
 10
34.03157222222222
 20
-5.94940555555556
 30
0.0
 10
33.941475
 20
-5.545284722222227
 30
0.0
 10
33.87022916666668
 20
-5.140033333333336
 30
0.0
  0
HATCH
  5
42
330
1F
100
AcDbEntity
  8
Layer 1
 62
     7
420
 16777215
100
AcDbHatch
 10
0.0
 20
0.0
 30
0.0
210
0.0
220
0.0
230
1.0
  2
SOLID
 70
     1
 71
     0
 91
        1
 92
        1
 93
        1
 72
     4
 94
        3
 73
     0
 74
     1
 95
      521
 96
      517
 40
0.0
 40
0.0
 40
0.0
 40
0.0
 40
1.0
 40
1.0
 40
1.0
 40
2.0
 40
2.0
 40
2.0
 40
3.0
 40
3.0
 40
3.0
 40
4.0
 40
4.0
 40
4.0
 40
5.0
 40
5.0
 40
5.0
 40
6.0
 40
6.0
 40
6.0
 40
7.0
 40
7.0
 40
7.0
 40
8.0
 40
8.0
 40
8.0
 40
9.0
 40
9.0
 40
9.0
 40
10.0
 40
10.0
 40
10.0
 40
11.0
 40
11.0
 40
11.0
 40
12.0
 40
12.0
 40
12.0
 40
13.0
 40
13.0
 40
13.0
 40
14.0
 40
14.0
 40
14.0
 40
15.0
 40
15.0
 40
15.0
 40
16.0
 40
16.0
 40
16.0
 40
17.0
 40
17.0
 40
17.0
 40
18.0
 40
18.0
 40
18.0
 40
19.0
 40
19.0
 40
19.0
 40
20.0
 40
20.0
 40
20.0
 40
21.0
 40
21.0
 40
21.0
 40
22.0
 40
22.0
 40
22.0
 40
23.0
 40
23.0
 40
23.0
 40
24.0
 40
24.0
 40
24.0
 40
25.0
 40
25.0
 40
25.0
 40
26.0
 40
26.0
 40
26.0
 40
27.0
 40
27.0
 40
27.0
 40
28.0
 40
28.0
 40
28.0
 40
29.0
 40
29.0
 40
29.0
 40
30.0
 40
30.0
 40
30.0
 40
31.0
 40
31.0
 40
31.0
 40
32.0
 40
32.0
 40
32.0
 40
33.0
 40
33.0
 40
33.0
 40
34.0
 40
34.0
 40
34.0
 40
35.0
 40
35.0
 40
35.0
 40
36.0
 40
36.0
 40
36.0
 40
37.0
 40
37.0
 40
37.0
 40
38.0
 40
38.0
 40
38.0
 40
39.0
 40
39.0
 40
39.0
 40
40.0
 40
40.0
 40
40.0
 40
41.0
 40
41.0
 40
41.0
 40
42.0
 40
42.0
 40
42.0
 40
43.0
 40
43.0
 40
43.0
 40
44.0
 40
44.0
 40
44.0
 40
45.0
 40
45.0
 40
45.0
 40
46.0
 40
46.0
 40
46.0
 40
47.0
 40
47.0
 40
47.0
 40
48.0
 40
48.0
 40
48.0
 40
49.0
 40
49.0
 40
49.0
 40
50.0
 40
50.0
 40
50.0
 40
51.0
 40
51.0
 40
51.0
 40
52.0
 40
52.0
 40
52.0
 40
53.0
 40
53.0
 40
53.0
 40
54.0
 40
54.0
 40
54.0
 40
55.0
 40
55.0
 40
55.0
 40
56.0
 40
56.0
 40
56.0
 40
57.0
 40
57.0
 40
57.0
 40
58.0
 40
58.0
 40
58.0
 40
59.0
 40
59.0
 40
59.0
 40
60.0
 40
60.0
 40
60.0
 40
61.0
 40
61.0
 40
61.0
 40
62.0
 40
62.0
 40
62.0
 40
63.0
 40
63.0
 40
63.0
 40
64.0
 40
64.0
 40
64.0
 40
65.0
 40
65.0
 40
65.0
 40
66.0
 40
66.0
 40
66.0
 40
67.0
 40
67.0
 40
67.0
 40
68.0
 40
68.0
 40
68.0
 40
69.0
 40
69.0
 40
69.0
 40
70.0
 40
70.0
 40
70.0
 40
71.0
 40
71.0
 40
71.0
 40
72.0
 40
72.0
 40
72.0
 40
73.0
 40
73.0
 40
73.0
 40
74.0
 40
74.0
 40
74.0
 40
75.0
 40
75.0
 40
75.0
 40
76.0
 40
76.0
 40
76.0
 40
77.0
 40
77.0
 40
77.0
 40
78.0
 40
78.0
 40
78.0
 40
79.0
 40
79.0
 40
79.0
 40
80.0
 40
80.0
 40
80.0
 40
81.0
 40
81.0
 40
81.0
 40
82.0
 40
82.0
 40
82.0
 40
83.0
 40
83.0
 40
83.0
 40
84.0
 40
84.0
 40
84.0
 40
85.0
 40
85.0
 40
85.0
 40
86.0
 40
86.0
 40
86.0
 40
87.0
 40
87.0
 40
87.0
 40
88.0
 40
88.0
 40
88.0
 40
89.0
 40
89.0
 40
89.0
 40
90.0
 40
90.0
 40
90.0
 40
91.0
 40
91.0
 40
91.0
 40
92.0
 40
92.0
 40
92.0
 40
93.0
 40
93.0
 40
93.0
 40
94.0
 40
94.0
 40
94.0
 40
95.0
 40
95.0
 40
95.0
 40
96.0
 40
96.0
 40
96.0
 40
97.0
 40
97.0
 40
97.0
 40
98.0
 40
98.0
 40
98.0
 40
99.0
 40
99.0
 40
99.0
 40
100.0
 40
100.0
 40
100.0
 40
101.0
 40
101.0
 40
101.0
 40
102.0
 40
102.0
 40
102.0
 40
103.0
 40
103.0
 40
103.0
 40
104.0
 40
104.0
 40
104.0
 40
105.0
 40
105.0
 40
105.0
 40
106.0
 40
106.0
 40
106.0
 40
107.0
 40
107.0
 40
107.0
 40
108.0
 40
108.0
 40
108.0
 40
109.0
 40
109.0
 40
109.0
 40
110.0
 40
110.0
 40
110.0
 40
111.0
 40
111.0
 40
111.0
 40
112.0
 40
112.0
 40
112.0
 40
113.0
 40
113.0
 40
113.0
 40
114.0
 40
114.0
 40
114.0
 40
115.0
 40
115.0
 40
115.0
 40
116.0
 40
116.0
 40
116.0
 40
117.0
 40
117.0
 40
117.0
 40
118.0
 40
118.0
 40
118.0
 40
119.0
 40
119.0
 40
119.0
 40
120.0
 40
120.0
 40
120.0
 40
121.0
 40
121.0
 40
121.0
 40
122.0
 40
122.0
 40
122.0
 40
123.0
 40
123.0
 40
123.0
 40
124.0
 40
124.0
 40
124.0
 40
125.0
 40
125.0
 40
125.0
 40
126.0
 40
126.0
 40
126.0
 40
127.0
 40
127.0
 40
127.0
 40
128.0
 40
128.0
 40
128.0
 40
129.0
 40
129.0
 40
129.0
 40
130.0
 40
130.0
 40
130.0
 40
131.0
 40
131.0
 40
131.0
 40
132.0
 40
132.0
 40
132.0
 40
133.0
 40
133.0
 40
133.0
 40
134.0
 40
134.0
 40
134.0
 40
135.0
 40
135.0
 40
135.0
 40
136.0
 40
136.0
 40
136.0
 40
137.0
 40
137.0
 40
137.0
 40
138.0
 40
138.0
 40
138.0
 40
139.0
 40
139.0
 40
139.0
 40
140.0
 40
140.0
 40
140.0
 40
141.0
 40
141.0
 40
141.0
 40
142.0
 40
142.0
 40
142.0
 40
143.0
 40
143.0
 40
143.0
 40
144.0
 40
144.0
 40
144.0
 40
145.0
 40
145.0
 40
145.0
 40
146.0
 40
146.0
 40
146.0
 40
147.0
 40
147.0
 40
147.0
 40
148.0
 40
148.0
 40
148.0
 40
149.0
 40
149.0
 40
149.0
 40
150.0
 40
150.0
 40
150.0
 40
151.0
 40
151.0
 40
151.0
 40
152.0
 40
152.0
 40
152.0
 40
153.0
 40
153.0
 40
153.0
 40
154.0
 40
154.0
 40
154.0
 40
155.0
 40
155.0
 40
155.0
 40
156.0
 40
156.0
 40
156.0
 40
157.0
 40
157.0
 40
157.0
 40
158.0
 40
158.0
 40
158.0
 40
159.0
 40
159.0
 40
159.0
 40
160.0
 40
160.0
 40
160.0
 40
161.0
 40
161.0
 40
161.0
 40
162.0
 40
162.0
 40
162.0
 40
163.0
 40
163.0
 40
163.0
 40
164.0
 40
164.0
 40
164.0
 40
165.0
 40
165.0
 40
165.0
 40
166.0
 40
166.0
 40
166.0
 40
167.0
 40
167.0
 40
167.0
 40
168.0
 40
168.0
 40
168.0
 40
169.0
 40
169.0
 40
169.0
 40
170.0
 40
170.0
 40
170.0
 40
171.0
 40
171.0
 40
171.0
 40
172.0
 40
172.0
 40
172.0
 40
172.0
 10
33.87022916666668
 20
-5.140033333333336
 10
33.84845138888888
 20
-5.016141666666663
 10
33.84842222222223
 20
-4.91347638888889
 10
33.87011111111112
 20
-4.817022222222223
 10
33.91861388888888
 20
-4.601086111111107
 10
33.92760000000001
 20
-4.380099999999995
 10
33.93629027777776
 20
-4.166452777777774
 10
33.94030138888888
 20
-4.068155555555551
 10
33.94444583333335
 20
-3.966574999999996
 10
33.95237916666666
 20
-3.867713888888892
 10
33.97683055555555
 20
-3.564162500000002
 10
33.95882638888889
 20
-3.257580555555553
 10
33.94140138888888
 20
-2.961055555555554
 10
33.9373013888889
 20
-2.891533333333339
 10
33.93321527777779
 20
-2.822055555555557
 10
33.92964999999999
 20
-2.752591666666667
 10
33.92009861111111
 20
-2.56535694444445
 10
33.92886388888888
 20
-2.373634722222227
 10
33.93733055555556
 20
-2.188168055555555
 10
33.94310972222224
 20
-2.060991666666673
 10
33.9491263888889
 20
-1.929508333333337
 10
33.94930416666668
 20
-1.79934722222222
 10
33.94969305555555
 20
-1.498143055555551
 10
33.86504583333332
 20
-1.213561111111112
 10
33.79124444444444
 20
-0.9992749999999988
 10
33.72627083333332
 20
-0.8105249999999967
 10
33.6992763888889
 20
-0.6062944444444408
 10
33.673175
 20
-0.4088097222222207
 10
33.673175
 20
-0.4088097222222207
 10
33.67146666666667
 20
-0.3959152777777793
 10
33.67146666666667
 20
-0.3959152777777793
 10
33.66706944444445
 20
-0.3626694444444385
 10
33.66337083333332
 20
-0.328219444444446
 10
33.65961249999999
 20
-0.2932069444444399
 10
33.6414736111111
 20
-0.1246144444444452
 10
33.62092916666668
 20
0.0664683333333313
 10
33.51361527777777
 20
0.2109805555555542
 10
33.41984861111111
 20
0.337338888888894
 10
33.30798888888889
 20
0.3499208333333348
 10
33.2307125
 20
0.3386013888888834
 10
33.16049166666668
 20
0.3280388888888915
 10
33.0986638888889
 20
0.292327777777776
 10
33.04170972222222
 20
0.2295638888888839
 10
32.92499166666666
 20
0.1007393055555591
 10
32.84692777777779
 20
-0.0415588888888831
 10
32.80970277777778
 20
-0.1933944444444427
 10
32.77559305555557
 20
-0.3325124999999944
 10
32.74840833333332
 20
-0.474618055555551
 10
32.72827916666665
 20
-0.6187430555555566
 10
32.72214444444444
 20
-0.457237499999994
 10
32.69281944444444
 20
-0.2944097222222252
 10
32.640975
 20
-0.1344188888888943
 10
32.59029166666667
 20
0.0222294444444439
 10
32.43958333333332
 20
0.1863791666666606
 10
32.24967361111112
 20
0.1971347222222195
 10
32.01078888888888
 20
0.2108458333333374
 10
31.86640972222222
 20
-0.0531904166666664
 10
31.81211388888889
 20
-0.1524972222222232
 10
31.68272499999999
 20
-0.3892152777777811
 10
31.60926527777777
 20
-0.6540097222222255
 10
31.54916111111111
 20
-0.9048999999999978
 10
31.4134736111111
 20
-1.471404166666667
 10
31.33280972222221
 20
-2.059090277777778
 10
31.26183194444444
 20
-2.612447222222221
 10
31.24244583333332
 20
-2.763331944444442
 10
31.21791944444445
 20
-2.92464444444445
 10
31.17023472222223
 20
-3.081605555555559
 10
31.10919444444446
 20
-3.282358333333339
 10
30.97531944444444
 20
-3.448291666666667
 10
30.85457499999999
 20
-3.587990277777774
 10
30.65922916666667
 20
-3.814101388888894
 10
30.43469305555555
 20
-4.021183333333334
 10
30.16826388888888
 20
-4.22119444444445
 10
29.95824444444444
 20
-4.378837499999993
 10
29.71326388888888
 20
-4.558422222222222
 10
29.45090555555556
 20
-4.705890277777775
 10
29.44413194444444
 20
-4.523274999999999
 10
29.43801388888889
 20
-4.314677777777774
 10
29.44373055555555
 20
-4.110626388888893
 10
29.44695416666666
 20
-3.995900000000006
 10
29.45772500000001
 20
-3.896979166666672
 10
29.47675416666667
 20
-3.808159722222222
 10
29.51249583333333
 20
-3.641023611111109
 10
29.55590277777777
 20
-3.467766666666661
 10
29.59786805555556
 20
-3.300259722222222
 10
29.74062777777778
 20
-2.730591666666669
 10
29.88822916666667
 20
-2.141522222222218
 10
29.80909722222222
 20
-1.554979166666663
 10
29.74275138888889
 20
-1.063687500000002
 10
29.59005416666667
 20
-0.7804430555555528
 10
29.34235833333333
 20
-0.6890388888888942
 10
29.11666388888889
 20
-0.6057902777777776
 10
28.94257500000001
 20
-0.6682416666666692
 10
28.82520416666667
 20
-0.8750111111111083
 10
28.80105
 20
-0.917541666666668
 10
28.7799111111111
 20
-0.9603986111111074
 10
28.76413472222222
 20
-0.9930208333333388
 10
28.6758638888889
 20
-1.176141666666669
 10
28.63957361111112
 20
-1.37292777777778
 10
28.60445555555556
 20
-1.563194444444447
 10
28.58900555555556
 20
-1.647006944444444
 10
28.57300694444444
 20
-1.733672222222228
 10
28.55287777777778
 20
-1.816861111111115
 10
28.46407361111111
 20
-2.183547222222223
 10
28.32124027777778
 20
-2.516304166666663
 10
28.17004444444444
 20
-2.868581944444448
 10
28.13621944444445
 20
-2.947402777777774
 10
28.10230416666666
 20
-3.026418055555559
 10
28.068925
 20
-3.105997222222224
 10
27.88767638888888
 20
-3.538626388888891
 10
27.7679138888889
 20
-3.969041666666663
 10
27.71308333333334
 20
-4.385418055555558
 10
27.68522916666667
 20
-4.596540277777775
 10
27.68065416666666
 20
-4.810381944444442
 10
27.67622638888889
 20
-5.01721111111111
 10
27.6725875
 20
-5.187124999999999
 10
27.66885833333333
 20
-5.362862500000006
 10
27.6520875
 20
-5.533963888888883
 10
27.61905
 20
-5.870762500000006
 10
27.52926666666667
 20
-6.204395833333339
 10
27.44240555555555
 20
-6.527036111111101
 10
27.38940277777778
 20
-6.723941666666658
 10
27.33460138888889
 20
-6.927533333333334
 10
27.29265000000001
 20
-7.131331944444455
 10
27.19765138888889
 20
-7.593224999999999
 10
27.19846805555556
 20
-8.0705375
 10
27.19925555555556
 20
-8.532179166666664
 10
27.19976111111112
 20
-8.813848611111123
 10
27.20028055555556
 20
-9.105055555555559
 10
27.17868333333334
 20
-9.387363888888887
 10
27.1642125
 20
-9.576559722222227
 10
27.14332777777777
 20
-9.799819444444438
 10
27.09822500000001
 20
-10.02119166666666
 10
27.07340277777777
 20
-10.14287083333334
 10
27.04132916666666
 20
-10.26588750000001
 10
27.01025277777777
 20
-10.38484722222223
 10
26.9979375
 20
-10.43219166666667
 10
26.98557777777778
 20
-10.47947499999999
 10
26.97359027777778
 20
-10.52695277777778
 10
26.94622638888889
 20
-10.63548472222222
 10
27.02176527777778
 20
-10.67220694444445
 10
27.04550416666666
 20
-10.68092638888889
 10
27.11086666666666
 20
-10.70469583333334
 10
27.17239722222222
 20
-10.67663333333333
 10
27.20233055555555
 20
-10.60893888888889
 10
27.210575
 20
-10.59022083333333
 10
27.21531388888889
 20
-10.57138472222222
 10
27.21914722222222
 20
-10.55621666666666
 10
27.38283611111111
 20
-9.902156944444439
 10
27.46525277777778
 20
-9.23502361111112
 10
27.46418333333333
 20
-8.573268055555546
 10
27.46409444444445
 20
-8.508841666666664
 10
27.46364861111111
 20
-8.444369444444444
 10
27.46323333333334
 20
-8.379897222222224
 10
27.46140555555555
 20
-8.093919444444433
 10
27.45950416666667
 20
-7.798152777777785
 10
27.48593194444445
 20
-7.510036111111098
 10
27.51133472222222
 20
-7.23323888888889
 10
27.58324861111112
 20
-6.979495833333329
 10
27.65938194444445
 20
-6.710913888888879
 10
27.68026805555555
 20
-6.637276388888899
 10
27.70125833333333
 20
-6.563119444444434
 10
27.7213875
 20
-6.488086111111114
 10
27.84058472222222
 20
-6.043959722222224
 10
27.86965694444445
 20
-5.585734722222216
 10
27.8977486111111
 20
-5.142693055555557
 10
27.90937916666667
 20
-4.95905277777778
 10
27.92145694444444
 20
-4.769173611111114
 10
27.93972916666667
 20
-4.582383333333332
 10
27.98049166666667
 20
-4.16625972222222
 10
28.07265277777777
 20
-3.756581944444444
 10
28.20629166666667
 20
-3.397472222222227
 10
28.27111944444444
 20
-3.223323611111116
 10
28.34946527777778
 20
-3.050691666666669
 10
28.42525694444445
 20
-2.883748611111109
 10
28.52636111111111
 20
-2.660934722222224
 10
28.63094166666666
 20
-2.430590277777772
 10
28.70686666666667
 20
-2.189743055555557
 10
28.75477500000001
 20
-2.03778888888889
 10
28.78499027777778
 20
-1.878109722222222
 10
28.81419583333334
 20
-1.723630555555549
 10
28.86599583333333
 20
-1.449788888888886
 10
28.91492916666667
 20
-1.19113055555556
 10
29.05387083333333
 20
-0.9647069444444393
 10
29.0904013888889
 20
-0.9050930555555522
 10
29.12792361111111
 20
-0.8892277777777811
 10
29.20222916666666
 20
-0.901929166666668
 10
29.27706944444445
 20
-0.9145708333333383
 10
29.33537638888889
 20
-0.9547097222222192
 10
29.38585555555556
 20
-1.028227777777778
 10
29.45836527777778
 20
-1.133729166666664
 10
29.49625833333334
 20
-1.255661111111117
 10
29.53177777777778
 20
-1.381841666666661
 10
29.6195875
 20
-1.693666666666672
 10
29.59509027777777
 20
-2.016040277777771
 10
29.55551805555555
 20
-2.31794305555555
 10
29.51753194444445
 20
-2.607961111111106
 10
29.44992499999999
 20
-2.892720833333328
 10
29.38876666666667
 20
-3.133123611111109
 10
29.26835
 20
-3.606708333333333
 10
29.19043472222222
 20
-4.00943333333334
 10
29.20162083333333
 20
-4.435733333333334
 10
29.20263055555557
 20
-4.474356944444442
 10
29.20276388888889
 20
-4.512905555555562
 10
29.2029125
 20
-4.551411111111116
 10
29.20326944444444
 20
-4.637437499999995
 10
29.20358194444444
 20
-4.726434722222217
 10
29.21366805555556
 20
-4.815759722222221
 10
29.21375694444444
 20
-4.816576388888885
 10
29.21383194444444
 20
-4.817333333333332
 10
29.21389027777779
 20
-4.818031944444442
 10
29.16969722222223
 20
-4.830555555555557
 10
29.12826527777777
 20
-4.84502361111111
 10
29.0905625
 20
-4.861275000000003
 10
29.05768888888888
 20
-4.875491666666663
 10
29.03296944444445
 20
-4.901087500000004
 10
29.02096666666667
 20
-4.933338888888884
 10
29.00949722222223
 20
-4.964177777777776
 10
29.0110125
 20
-4.997363888888887
 10
29.02522916666666
 20
-5.026881944444439
 10
29.0535875
 20
-5.085679166666662
 10
29.11422777777778
 20
-5.110130555555555
 10
29.17593611111111
 20
-5.088011111111111
 10
29.17593611111111
 20
-5.088011111111111
 10
29.21249444444445
 20
-5.074923611111116
 10
29.21249444444445
 20
-5.074923611111116
 10
29.31395555555556
 20
-5.038706944444445
 10
29.4188513888889
 20
-5.001226388888893
 10
29.51818472222222
 20
-4.946797222222219
 10
30.12249583333333
 20
-4.615570833333335
 10
30.65648055555554
 20
-4.191409722222223
 10
31.06245972222223
 20
-3.720172222222219
 10
31.2856888888889
 20
-3.461066666666663
 10
31.41703888888888
 20
-3.192990277777779
 10
31.46401111111112
 20
-2.900623611111112
 10
31.49459722222223
 20
-2.710240277777782
 10
31.52248055555555
 20
-2.519394444444439
 10
31.55031944444444
 20
-2.328563888888892
 10
31.5891361111111
 20
-2.062759722222217
 10
31.62927500000001
 20
-1.787908333333336
 10
31.67647083333334
 20
-1.519252777777776
 10
31.67647083333334
 20
-1.519252777777776
 10
31.68550277777778
 20
-1.467674999999998
 10
31.68550277777778
 20
-1.467674999999998
 10
31.75801111111112
 20
-1.053823611111107
 10
31.83301527777778
 20
-0.625888888888893
 10
32.02779583333333
 20
-0.2634361111111174
 10
32.06894583333334
 20
-0.1868722222222282
 10
32.11483333333333
 20
-0.1247480555555537
 10
32.16805972222222
 20
-0.0734826388888905
 10
32.21489999999999
 20
-0.0282783333333327
 10
32.26228888888888
 20
-0.0270155555555599
 10
32.31297222222221
 20
-0.0695609722222217
 10
32.35899583333334
 20
-0.1081844444444439
 10
32.38943194444444
 20
-0.1509083333333289
 10
32.40608750000001
 20
-0.2000930555555492
 10
32.48434166666667
 20
-0.4313152777777733
 10
32.49041805555557
 20
-0.6887111111111103
 10
32.49625833333334
 20
-0.9376402777777836
 10
32.49625833333334
 20
-0.9376402777777836
 10
32.49869166666667
 20
-1.033605555555558
 10
32.49869166666667
 20
-1.033605555555558
 10
32.50810972222222
 20
-1.367045833333337
 10
32.49454722222223
 20
-1.706175000000005
 10
32.48140277777777
 20
-2.034059722222221
 10
32.47132916666666
 20
-2.286465277777779
 10
32.46085555555555
 20
-2.547397222222217
 10
32.46085555555555
 20
-2.805238888888892
 10
32.46085555555555
 20
-3.246647222222224
 10
32.39599722222222
 20
-3.584068055555551
 10
32.26256805555555
 20
-3.836859722222218
 10
32.17428333333333
 20
-4.003995833333331
 10
32.04243055555555
 20
-4.129715277777779
 10
31.90286388888888
 20
-4.262847222222224
 10
31.90286388888888
 20
-4.262847222222224
 10
31.88364166666666
 20
-4.281179166666663
 10
31.88364166666666
 20
-4.281179166666663
 10
31.60096111111112
 20
-4.551158333333332
 10
31.24370833333334
 20
-4.921513888888891
 10
30.98827222222222
 20
-5.393834722222222
 10
30.93935416666666
 20
-5.48529861111111
 10
30.97800694444443
 20
-5.54914722222222
 10
31.02591527777778
 20
-5.576004166666672
 10
31.05452638888889
 20
-5.592181944444443
 10
31.08539583333332
 20
-5.59598472222222
 10
31.11543333333333
 20
-5.587443055555556
 10
31.13960277777778
 20
-5.58037222222222
 10
31.17418611111111
 20
-5.561283333333336
 10
31.20148888888889
 20
-5.510270833333329
 10
31.40279305555555
 20
-5.134477777777773
 10
31.6786388888889
 20
-4.793951388888886
 10
32.04492499999999
 20
-4.469097222222217
 10
32.20530138888888
 20
-4.326948611111106
 10
32.38415833333334
 20
-4.149888888888894
 10
32.49505277777777
 20
-3.914805555555555
 10
32.87154305555555
 20
-3.116559722222228
 10
32.92353611111111
 20
-2.255298611111117
 10
32.92474027777777
 20
-1.518123611111112
 10
32.92530416666666
 20
-1.167986111111115
 10
32.93732222222221
 20
-0.7555305555555504
 10
33.02217500000001
 20
-0.3510374999999991
 10
33.05906111111113
 20
-0.1753152777777763
 10
33.12259583333334
 20
-0.0423758333333303
 10
33.22218611111111
 20
0.0674190277777724
 10
33.24130416666667
 20
0.0884094444444498
 10
33.25963611111112
 20
0.1013631944444392
 10
33.27306527777778
 20
0.0996548611111115
 10
33.28634583333334
 20
0.0991498611111107
 10
33.30397916666667
 20
0.0858098611111144
 10
33.32141805555557
 20
0.0631258333333386
 10
33.34753333333333
 20
0.0292411111111051
 10
33.36564305555557
 20
-0.0121009444444427
 10
33.38204305555556
 20
-0.0751168055555556
 10
33.41444166666666
 20
-0.2000347222222242
 10
33.42781111111112
 20
-0.3274027777777822
 10
33.4419986111111
 20
-0.4621694444444478
 10
33.45455138888888
 20
-0.5814416666666677
 10
33.46750416666666
 20
-0.7047708333333276
 10
33.49494166666666
 20
-0.8252611111111162
 10
33.51823472222223
 20
-0.9275388888888881
 10
33.54756250000001
 20
-1.026579166666667
 10
33.57591805555555
 20
-1.122290277777779
 10
33.63015694444445
 20
-1.305293055555555
 10
33.68136111111112
 20
-1.478102777777773
 10
33.69181805555556
 20
-1.667611111111114
 10
33.70309583333334
 20
-1.87216805555555
 10
33.69560694444444
 20
-2.07994722222222
 10
33.68834305555556
 20
-2.280834722222228
 10
33.67993472222221
 20
-2.513898611111105
 10
33.67124444444445
 20
-2.754865277777779
 10
33.6913138888889
 20
-2.995697222222222
 10
33.69582916666668
 20
-3.049875000000005
 10
33.70098472222222
 20
-3.104036111111112
 10
33.70613888888889
 20
-3.158154166666665
 10
33.72029583333334
 20
-3.306825000000003
 10
33.73495833333332
 20
-3.460562499999999
 10
33.73464583333334
 20
-3.611194444444449
 10
33.73436388888889
 20
-3.744445833333328
 10
33.71460694444444
 20
-3.864416666666671
 10
33.67421527777778
 20
-3.977954166666664
 10
33.54368194444444
 20
-4.34514583333334
 10
33.26504305555555
 20
-4.637497222222223
 10
32.99554166666667
 20
-4.920251388888889
 10
32.99554166666667
 20
-4.920251388888889
 10
32.98558888888889
 20
-4.930738888888893
 10
32.98558888888889
 20
-4.930738888888893
 10
32.74044583333332
 20
-5.187956944444446
 10
32.43219999999999
 20
-5.539401388888892
 10
32.22257777777779
 20
-5.977719444444447
 10
32.22257777777779
 20
-5.977719444444447
 10
32.21920833333333
 20
-5.984731944444446
 10
32.21920833333333
 20
-5.984731944444446
 10
32.20656388888889
 20
-6.011024999999992
 10
32.19350833333333
 20
-6.038209722222215
 10
32.18434027777776
 20
-6.068618055555564
 10
32.1662611111111
 20
-6.12815833333333
 10
32.19328333333333
 20
-6.185499999999997
 10
32.25156111111111
 20
-6.211229166666675
 10
32.30285555555555
 20
-6.233794444444432
 10
32.3559625
 20
-6.220008333333326
 10
32.39344305555556
 20
-6.174180555555545
 10
32.40571249999999
 20
-6.159265277777775
 10
32.41331944444444
 20
-6.143087499999991
 10
32.419425
 20
-6.129168055555561
 10
32.51800416666666
 20
-5.906162500000012
 10
32.65305277777777
 20
-5.706344444444438
 10
32.82552222222223
 20
-5.474870833333335
 10
32.94806250000001
 20
-5.31045277777778
 10
33.09246944444445
 20
-5.158425000000003
 10
33.23210833333334
 20
-5.011462500000006
 10
33.28772638888888
 20
-4.952858333333337
 10
33.34335972222222
 20
-4.894327777777776
 10
33.39790833333333
 20
-4.834788888888889
 10
33.49112500000001
 20
-4.733134722222227
 10
33.5926
 20
-4.616773611111108
 10
33.68277222222221
 20
-4.48573611111111
 10
33.67932777777777
 20
-4.512088888888885
 10
33.6753736111111
 20
-4.538441666666661
 10
33.67082777777778
 20
-4.564616666666666
 10
33.63727083333333
 20
-4.758298611111109
 10
33.59349166666667
 20
-4.95406111111111
 10
33.55114027777778
 20
-5.143391666666667
 10
33.52180000000001
 20
-5.274606944444447
 10
33.49143611111112
 20
-5.410325000000006
 10
33.46460833333335
 20
-5.544838888888888
 10
33.39917083333332
 20
-5.872529166666658
 10
33.37360694444444
 20
-6.21027777777777
 10
33.38856388888889
 20
-6.548456944444448
 10
33.3898263888889
 20
-6.57791527777777
 10
33.39140138888888
 20
-6.614637499999995
 10
33.40846944444444
 20
-6.65073472222222
 10
33.43532777777778
 20
-6.707556944444453
 10
33.48815416666667
 20
-6.734177777777782
 10
33.54617777777778
 20
-6.719945833333339
 10
33.60524305555555
 20
-6.705611111111112
 10
33.64111805555555
 20
-6.656484722222229
 10
33.63758472222222
 20
-6.594790277777772
 10
33.63679444444445
 20
-6.58133194444445
 10
33.63533888888888
 20
-6.567931944444454
 10
33.63385416666667
 20
-6.554533333333337
 10
33.63262083333332
 20
-6.543331944444439
 10
33.63135833333333
 20
-6.532220833333339
 10
33.63071944444444
 20
-6.521019444444441
 10
33.61409583333332
 20
-6.233541666666674
 10
33.63722499999999
 20
-5.934669444444453
 10
33.70538194444445
 20
-5.575559722222224
 10
33.71301666666666
 20
-5.612295833333329
 10
33.72063750000002
 20
-5.648958333333338
 10
33.72825833333334
 20
-5.685620833333334
 10
33.78123472222223
 20
-5.940418055555559
 10
33.83600277777777
 20
-6.203950000000001
 10
33.89327083333334
 20
-6.46254999999999
 10
33.9488013888889
 20
-6.713245833333328
 10
33.88144583333334
 20
-6.922481944444447
 10
33.6874513888889
 20
-7.102319444444447
 10
33.5066625
 20
-7.269959722222211
 10
33.33937916666668
 20
-7.408588888888895
 10
33.17597083333334
 20
-7.52609444444445
 10
33.00425972222224
 20
-7.649615277777785
 10
32.82344166666667
 20
-7.767372222222219
 10
32.64862500000001
 20
-7.881223611111105
 10
32.54221805555557
 20
-7.950566666666671
 10
32.43579722222223
 20
-8.019911111111115
 10
32.33054583333334
 20
-8.090888888888887
 10
32.0899361111111
 20
-8.253345833333343
 10
31.83181111111111
 20
-8.393609722222234
 10
31.58872083333333
 20
-8.521052777777767
 10
31.5380638888889
 20
-8.547598611111122
 10
31.48688749999999
 20
-8.573074999999992
 10
31.43572638888887
 20
-8.598611111111115
 10
31.35968472222223
 20
-8.636536111111102
 10
31.28103888888889
 20
-8.675725000000005
 10
31.20477222222222
 20
-8.718076388888878
 10
31.04017638888889
 20
-8.809422222222212
 10
30.84798055555555
 20
-8.922380555555566
 10
30.67028194444444
 20
-9.067323611111103
 10
30.50229861111111
 20
-9.204302777777785
 10
30.38637083333333
 20
-9.3806638888889
 10
30.33498472222221
 20
-9.577318055555553
 10
30.30763888888888
 20
-9.682062500000002
 10
30.30745833333334
 20
-9.787058333333334
 10
30.30729444444445
 20
-9.88857916666666
 10
30.307175
 20
-9.962840277777786
 10
30.30704444444445
 20
-10.03301666666668
 10
30.296925
 20
-10.10210833333334
 10
30.2736625
 20
-10.26082083333333
 10
30.18974444444444
 20
-10.40886805555556
 10
30.10859166666667
 20
-10.55204305555556
 10
30.10859166666667
 20
-10.55204305555556
 10
30.10242638888889
 20
-10.56291666666668
 10
30.10242638888889
 20
-10.56291666666668
 10
29.94484166666666
 20
-10.84091805555555
 10
29.86086527777777
 20
-11.14528611111112
 10
29.77963750000001
 20
-11.43967222222222
 10
29.77963750000001
 20
-11.43967222222222
 10
29.76231527777778
 20
-11.50231666666668
 10
29.76231527777778
 20
-11.50231666666668
 10
29.74407361111111
 20
-11.56816944444444
 10
29.77134722222223
 20
-11.62582222222222
 10
29.83174861111111
 20
-11.64927916666668
 10
29.84721388888889
 20
-11.65522083333333
 10
29.86275138888888
 20
-11.65813333333333
 10
29.87788888888889
 20
-11.65813333333333
 10
29.91923194444444
 20
-11.65813333333333
 10
29.95754305555556
 20
-11.63650416666666
 10
29.98235138888889
 20
-11.59694444444444
 10
30.00236388888889
 20
-11.56508055555554
 10
30.00998194444443
 20
-11.53220555555554
 10
30.01671111111111
 20
-11.50319305555556
 10
30.01671111111111
 20
-11.50319305555556
 10
30.02106388888889
 20
-11.48499583333334
 10
30.02106388888889
 20
-11.48499583333334
 10
30.08440694444444
 20
-11.23587361111112
 10
30.15710833333333
 20
-11.01741249999999
 10
30.24329861111111
 20
-10.81703055555555
 10
30.27505833333334
 20
-10.74325972222222
 10
30.31503333333333
 20
-10.66962222222221
 10
30.35369027777779
 20
-10.59843611111111
 10
30.42768055555555
 20
-10.46222777777777
 10
30.50417361111111
 20
-10.32138611111112
 10
30.5361236111111
 20
-10.16069722222222
 10
30.55095
 20
-10.08642083333332
 10
30.54794861111111
 20
-10.01474444444443
 10
30.54503750000001
 20
-9.945459722222216
 10
30.54367083333333
 20
-9.913163888888876
 10
30.54225972222222
 20
-9.880794444444442
 10
30.5429125
 20
-9.848500000000007
 10
30.5475625
 20
-9.615495833333322
 10
30.62604305555556
 20
-9.433830555555561
 10
30.78278055555554
 20
-9.292988888888885
 10
30.93375416666666
 20
-9.157272222222218
 10
31.11893888888888
 20
-9.034894444444438
 10
31.36558055555555
 20
-8.907644444444434
 10
31.41815277777778
 20
-8.880533333333334
 10
31.47080277777778
 20
-8.853601388888894
 10
31.52346111111112
 20
-8.826683333333323
 10
31.78170416666666
 20
-8.694694444444444
 10
32.04875694444445
 20
-8.558161111111101
 10
32.29954305555556
 20
-8.399804166666677
 10
32.29954305555556
 20
-8.399804166666677
 10
32.40422777777778
 20
-8.333756944444454
 10
32.40422777777778
 20
-8.333756944444454
 10
32.7879236111111
 20
-8.091959722222226
 10
33.1846611111111
 20
-7.841901388888876
 10
33.5425111111111
 20
-7.550738888888898
 10
33.5425111111111
 20
-7.550738888888898
 10
33.59114444444445
 20
-7.511431944444439
 10
33.59114444444445
 20
-7.511431944444439
 10
33.76163750000001
 20
-7.37381388888889
 10
33.95490416666667
 20
-7.217937500000011
 10
34.0567375
 20
-7.010974999999992
 10
34.15452916666666
 20
-6.812374999999999
 10
34.17308333333332
 20
-6.563505555555543
 10
34.11037916666666
 20
-6.291179166666678
 10
34.03157222222222
 20
-5.94940555555556
 10
33.941475
 20
-5.545284722222227
 10
33.87022916666668
 20
-5.140033333333336
 97
        0
 97
        0
 75
     2
 76
     1
 98
        0
  0
SPLINE
  5
43
330
1F
100
AcDbEntity
  8
Layer 1
370
     0
100
AcDbSpline
210
0.0
220
0.0
230
1.0
 70
    11
 71
     3
 72
    77
 73
    73
 74
     0
 42
0.0000000001
 43
0.0000000001
 12
1.0
 22
0.0
 32
0.0
 13
1.0
 23
0.0
 33
0.0
 40
0.0
 40
0.0
 40
0.0
 40
0.0
 40
1.0
 40
1.0
 40
1.0
 40
2.0
 40
2.0
 40
2.0
 40
3.0
 40
3.0
 40
3.0
 40
4.0
 40
4.0
 40
4.0
 40
5.0
 40
5.0
 40
5.0
 40
6.0
 40
6.0
 40
6.0
 40
7.0
 40
7.0
 40
7.0
 40
8.0
 40
8.0
 40
8.0
 40
9.0
 40
9.0
 40
9.0
 40
10.0
 40
10.0
 40
10.0
 40
11.0
 40
11.0
 40
11.0
 40
12.0
 40
12.0
 40
12.0
 40
13.0
 40
13.0
 40
13.0
 40
14.0
 40
14.0
 40
14.0
 40
15.0
 40
15.0
 40
15.0
 40
16.0
 40
16.0
 40
16.0
 40
17.0
 40
17.0
 40
17.0
 40
18.0
 40
18.0
 40
18.0
 40
19.0
 40
19.0
 40
19.0
 40
20.0
 40
20.0
 40
20.0
 40
21.0
 40
21.0
 40
21.0
 40
22.0
 40
22.0
 40
22.0
 40
23.0
 40
23.0
 40
23.0
 40
24.0
 40
24.0
 40
24.0
 40
24.0
 10
32.46828333333335
 20
-7.418527777777777
 30
0.0
 10
32.46828333333335
 20
-7.418527777777777
 30
0.0
 10
32.36527777777776
 20
-7.460568055555566
 30
0.0
 10
32.36527777777776
 20
-7.460568055555566
 30
0.0
 10
32.16346944444444
 20
-7.542554166666655
 30
0.0
 10
31.95484166666665
 20
-7.627318055555557
 30
0.0
 10
31.75784722222223
 20
-7.733755555555565
 30
0.0
 10
31.75784722222223
 20
-7.733755555555565
 30
0.0
 10
31.74874305555555
 20
-7.738568055555561
 30
0.0
 10
31.74874305555555
 20
-7.738568055555561
 30
0.0
 10
31.73400416666666
 20
-7.746277777777777
 30
0.0
 10
31.7173513888889
 20
-7.755056944444454
 30
0.0
 10
31.701175
 20
-7.768144444444437
 30
0.0
 10
31.65591111111111
 20
-7.805059722222217
 30
0.0
 10
31.64337222222222
 20
-7.862268055555559
 30
0.0
 10
31.66930972222222
 20
-7.914037499999999
 30
0.0
 10
31.69043472222221
 20
-7.956077777777788
 30
0.0
 10
31.72867222222223
 20
-7.979712500000005
 30
0.0
 10
31.77190000000001
 20
-7.979712500000005
 30
0.0
 10
31.78335555555557
 20
-7.979712500000005
 30
0.0
 10
31.79516388888889
 20
-7.978079166666677
 30
0.0
 10
31.80707777777777
 20
-7.974662499999996
 30
0.0
 10
31.83347500000001
 20
-7.967145833333334
 30
0.0
 10
31.85763194444444
 20
-7.955633333333329
 30
0.0
 10
31.87772916666666
 20
-7.945397222222229
 30
0.0
 10
32.04941250000002
 20
-7.858093055555551
 30
0.0
 10
32.23556111111111
 20
-7.767640277777773
 30
0.0
 10
32.43373055555556
 20
-7.697166666666665
 30
0.0
 10
32.50962777777777
 20
-7.670174999999997
 30
0.0
 10
32.62219861111112
 20
-7.625668055555555
 30
0.0
 10
32.72340694444445
 20
-7.551586111111115
 30
0.0
 10
32.95067916666666
 20
-7.385029166666678
 30
0.0
 10
33.0480236111111
 20
-7.169969444444455
 30
0.0
 10
33.01269722222221
 20
-6.912380555555551
 30
0.0
 10
33.01269722222221
 20
-6.912380555555551
 30
0.0
 10
33.00365000000001
 20
-6.847848611111102
 30
0.0
 10
33.00365000000001
 20
-6.847848611111102
 30
0.0
 10
32.98563055555557
 20
-6.720793055555557
 30
0.0
 10
32.96704722222223
 20
-6.589443055555547
 30
0.0
 10
32.97116249999999
 20
-6.459029166666672
 30
0.0
 10
32.97116249999999
 20
-6.459029166666672
 30
0.0
 10
32.97135555555557
 20
-6.427298611111104
 30
0.0
 10
32.97135555555557
 20
-6.427298611111104
 30
0.0
 10
32.97157777777779
 20
-6.402519444444452
 30
0.0
 10
32.97180138888888
 20
-6.37768194444445
 30
0.0
 10
32.97090972222223
 20
-6.352829166666677
 30
0.0
 10
32.96939722222221
 20
-6.310922222222214
 30
0.0
 10
32.95412361111109
 20
-6.275091666666665
 30
0.0
 10
32.92791805555557
 20
-6.251827777777786
 30
0.0
 10
32.905175
 20
-6.231654166666658
 30
0.0
 10
32.87546527777777
 20
-6.221790277777775
 30
0.0
 10
32.84401944444446
 20
-6.224643055555563
 30
0.0
 10
32.77557777777777
 20
-6.230333333333343
 30
0.0
 10
32.73077499999999
 20
-6.280394444444457
 30
0.0
 10
32.72988333333334
 20
-6.35226388888888
 30
0.0
 10
32.72988333333334
 20
-6.35226388888888
 30
0.0
 10
32.72915555555556
 20
-6.397900000000011
 30
0.0
 10
32.72915555555556
 20
-6.397900000000011
 30
0.0
 10
32.72820555555555
 20
-6.453473611111121
 30
0.0
 10
32.72722499999999
 20
-6.510933333333342
 30
0.0
 10
32.72946805555557
 20
-6.568200000000009
 30
0.0
 10
32.73272083333333
 20
-6.652963888888886
 30
0.0
 10
32.74375833333334
 20
-6.736851388888883
 30
0.0
 10
32.75440972222223
 20
-6.81800555555555
 30
0.0
 10
32.76195555555556
 20
-6.875718055555555
 30
0.0
 10
32.7698
 20
-6.935331944444442
 30
0.0
 10
32.77453888888891
 20
-6.99354861111111
 30
0.0
 10
32.78111944444446
 20
-7.075090277777766
 30
0.0
 10
32.76575972222223
 20
-7.141655555555568
 30
0.0
 10
32.72618472222221
 20
-7.202904166666662
 30
0.0
 10
32.66205416666667
 20
-7.302211111111117
 30
0.0
 10
32.57527083333333
 20
-7.374719444444432
 30
0.0
 10
32.46828333333335
 20
-7.418527777777777
 30
0.0
  0
HATCH
  5
44
330
1F
100
AcDbEntity
  8
Layer 1
 62
     7
420
 16777215
100
AcDbHatch
 10
0.0
 20
0.0
 30
0.0
210
0.0
220
0.0
230
1.0
  2
SOLID
 70
     1
 71
     0
 91
        1
 92
        1
 93
        1
 72
     4
 94
        3
 73
     0
 74
     1
 95
       77
 96
       73
 40
0.0
 40
0.0
 40
0.0
 40
0.0
 40
1.0
 40
1.0
 40
1.0
 40
2.0
 40
2.0
 40
2.0
 40
3.0
 40
3.0
 40
3.0
 40
4.0
 40
4.0
 40
4.0
 40
5.0
 40
5.0
 40
5.0
 40
6.0
 40
6.0
 40
6.0
 40
7.0
 40
7.0
 40
7.0
 40
8.0
 40
8.0
 40
8.0
 40
9.0
 40
9.0
 40
9.0
 40
10.0
 40
10.0
 40
10.0
 40
11.0
 40
11.0
 40
11.0
 40
12.0
 40
12.0
 40
12.0
 40
13.0
 40
13.0
 40
13.0
 40
14.0
 40
14.0
 40
14.0
 40
15.0
 40
15.0
 40
15.0
 40
16.0
 40
16.0
 40
16.0
 40
17.0
 40
17.0
 40
17.0
 40
18.0
 40
18.0
 40
18.0
 40
19.0
 40
19.0
 40
19.0
 40
20.0
 40
20.0
 40
20.0
 40
21.0
 40
21.0
 40
21.0
 40
22.0
 40
22.0
 40
22.0
 40
23.0
 40
23.0
 40
23.0
 40
24.0
 40
24.0
 40
24.0
 40
24.0
 10
32.46828333333335
 20
-7.418527777777777
 10
32.46828333333335
 20
-7.418527777777777
 10
32.36527777777776
 20
-7.460568055555566
 10
32.36527777777776
 20
-7.460568055555566
 10
32.16346944444444
 20
-7.542554166666655
 10
31.95484166666665
 20
-7.627318055555557
 10
31.75784722222223
 20
-7.733755555555565
 10
31.75784722222223
 20
-7.733755555555565
 10
31.74874305555555
 20
-7.738568055555561
 10
31.74874305555555
 20
-7.738568055555561
 10
31.73400416666666
 20
-7.746277777777777
 10
31.7173513888889
 20
-7.755056944444454
 10
31.701175
 20
-7.768144444444437
 10
31.65591111111111
 20
-7.805059722222217
 10
31.64337222222222
 20
-7.862268055555559
 10
31.66930972222222
 20
-7.914037499999999
 10
31.69043472222221
 20
-7.956077777777788
 10
31.72867222222223
 20
-7.979712500000005
 10
31.77190000000001
 20
-7.979712500000005
 10
31.78335555555557
 20
-7.979712500000005
 10
31.79516388888889
 20
-7.978079166666677
 10
31.80707777777777
 20
-7.974662499999996
 10
31.83347500000001
 20
-7.967145833333334
 10
31.85763194444444
 20
-7.955633333333329
 10
31.87772916666666
 20
-7.945397222222229
 10
32.04941250000002
 20
-7.858093055555551
 10
32.23556111111111
 20
-7.767640277777773
 10
32.43373055555556
 20
-7.697166666666665
 10
32.50962777777777
 20
-7.670174999999997
 10
32.62219861111112
 20
-7.625668055555555
 10
32.72340694444445
 20
-7.551586111111115
 10
32.95067916666666
 20
-7.385029166666678
 10
33.0480236111111
 20
-7.169969444444455
 10
33.01269722222221
 20
-6.912380555555551
 10
33.01269722222221
 20
-6.912380555555551
 10
33.00365000000001
 20
-6.847848611111102
 10
33.00365000000001
 20
-6.847848611111102
 10
32.98563055555557
 20
-6.720793055555557
 10
32.96704722222223
 20
-6.589443055555547
 10
32.97116249999999
 20
-6.459029166666672
 10
32.97116249999999
 20
-6.459029166666672
 10
32.97135555555557
 20
-6.427298611111104
 10
32.97135555555557
 20
-6.427298611111104
 10
32.97157777777779
 20
-6.402519444444452
 10
32.97180138888888
 20
-6.37768194444445
 10
32.97090972222223
 20
-6.352829166666677
 10
32.96939722222221
 20
-6.310922222222214
 10
32.95412361111109
 20
-6.275091666666665
 10
32.92791805555557
 20
-6.251827777777786
 10
32.905175
 20
-6.231654166666658
 10
32.87546527777777
 20
-6.221790277777775
 10
32.84401944444446
 20
-6.224643055555563
 10
32.77557777777777
 20
-6.230333333333343
 10
32.73077499999999
 20
-6.280394444444457
 10
32.72988333333334
 20
-6.35226388888888
 10
32.72988333333334
 20
-6.35226388888888
 10
32.72915555555556
 20
-6.397900000000011
 10
32.72915555555556
 20
-6.397900000000011
 10
32.72820555555555
 20
-6.453473611111121
 10
32.72722499999999
 20
-6.510933333333342
 10
32.72946805555557
 20
-6.568200000000009
 10
32.73272083333333
 20
-6.652963888888886
 10
32.74375833333334
 20
-6.736851388888883
 10
32.75440972222223
 20
-6.81800555555555
 10
32.76195555555556
 20
-6.875718055555555
 10
32.7698
 20
-6.935331944444442
 10
32.77453888888891
 20
-6.99354861111111
 10
32.78111944444446
 20
-7.075090277777766
 10
32.76575972222223
 20
-7.141655555555568
 10
32.72618472222221
 20
-7.202904166666662
 10
32.66205416666667
 20
-7.302211111111117
 10
32.57527083333333
 20
-7.374719444444432
 10
32.46828333333335
 20
-7.418527777777777
 97
        0
 97
        0
 75
     2
 76
     1
 98
        0
  0
SPLINE
  5
45
330
1F
100
AcDbEntity
  8
Layer 1
370
     0
100
AcDbSpline
210
0.0
220
0.0
230
1.0
 70
    11
 71
     3
 72
    74
 73
    70
 74
     0
 42
0.0000000001
 43
0.0000000001
 12
1.0
 22
0.0
 32
0.0
 13
1.0
 23
0.0
 33
0.0
 40
0.0
 40
0.0
 40
0.0
 40
0.0
 40
1.0
 40
1.0
 40
1.0
 40
2.0
 40
2.0
 40
2.0
 40
3.0
 40
3.0
 40
3.0
 40
4.0
 40
4.0
 40
4.0
 40
5.0
 40
5.0
 40
5.0
 40
6.0
 40
6.0
 40
6.0
 40
7.0
 40
7.0
 40
7.0
 40
8.0
 40
8.0
 40
8.0
 40
9.0
 40
9.0
 40
9.0
 40
10.0
 40
10.0
 40
10.0
 40
11.0
 40
11.0
 40
11.0
 40
12.0
 40
12.0
 40
12.0
 40
13.0
 40
13.0
 40
13.0
 40
14.0
 40
14.0
 40
14.0
 40
15.0
 40
15.0
 40
15.0
 40
16.0
 40
16.0
 40
16.0
 40
17.0
 40
17.0
 40
17.0
 40
18.0
 40
18.0
 40
18.0
 40
19.0
 40
19.0
 40
19.0
 40
20.0
 40
20.0
 40
20.0
 40
21.0
 40
21.0
 40
21.0
 40
22.0
 40
22.0
 40
22.0
 40
23.0
 40
23.0
 40
23.0
 40
23.0
 10
31.64372916666667
 20
-5.891604166666664
 30
0.0
 10
31.57985138888888
 20
-5.879408333333331
 30
0.0
 10
31.52401111111112
 20
-5.912965277777781
 30
0.0
 10
31.50475833333333
 20
-5.975862499999999
 30
0.0
 10
31.49544444444445
 20
-6.006523611111106
 30
0.0
 10
31.48779444444444
 20
-6.038819444444445
 30
0.0
 10
31.48146527777777
 20
-6.074665277777791
 30
0.0
 10
31.46294166666667
 20
-6.178651388888889
 30
0.0
 10
31.45226111111111
 20
-6.284212499999992
 30
0.0
 10
31.44196527777778
 20
-6.386297222222234
 30
0.0
 10
31.43826944444446
 20
-6.422708333333325
 30
0.0
 10
31.43456805555555
 20
-6.459118055555564
 30
0.0
 10
31.43052777777777
 20
-6.495527777777776
 30
0.0
 10
31.41528611111112
 20
-6.633205555555555
 30
0.0
 10
31.39891527777778
 20
-6.746670833333332
 30
0.0
 10
31.33974722222223
 20
-6.849572222222226
 30
0.0
 10
31.25820694444443
 20
-6.991425000000011
 30
0.0
 10
31.14752083333335
 20
-7.094075
 30
0.0
 10
31.00131527777777
 20
-7.163493055555565
 30
0.0
 10
31.00131527777777
 20
-7.163493055555565
 30
0.0
 10
30.96297361111111
 20
-7.181690277777786
 30
0.0
 10
30.96297361111111
 20
-7.181690277777786
 30
0.0
 10
30.79634305555555
 20
-7.260645833333329
 30
0.0
 10
30.62406666666667
 20
-7.342245833333335
 30
0.0
 10
30.46597777777778
 20
-7.448831944444438
 30
0.0
 10
30.44564305555555
 20
-7.462484722222219
 30
0.0
 10
30.42040277777778
 20
-7.479477777777775
 30
0.0
 10
30.39826805555555
 20
-7.501033333333326
 30
0.0
 10
30.3712763888889
 20
-7.527208333333343
 30
0.0
 10
30.35633194444444
 20
-7.5602013888889
 30
0.0
 10
30.35622777777778
 20
-7.593893055555554
 30
0.0
 10
30.35610833333333
 20
-7.625
 30
0.0
 10
30.36863194444445
 20
-7.654458333333322
 30
0.0
 10
30.39142222222222
 20
-7.676888888888899
 30
0.0
 10
30.41600555555556
 20
-7.701162500000009
 30
0.0
 10
30.44524027777778
 20
-7.713373611111112
 30
0.0
 10
30.47548472222221
 20
-7.713373611111112
 30
0.0
 10
30.50239027777777
 20
-7.713373611111112
 30
0.0
 10
30.53003333333334
 20
-7.703688888888892
 30
0.0
 10
30.55592638888889
 20
-7.684287500000007
 30
0.0
 10
30.65355416666666
 20
-7.611155555555544
 30
0.0
 10
30.7691736111111
 20
-7.544024999999995
 30
0.0
 10
30.91977499999999
 20
-7.472972222222223
 30
0.0
 10
30.91977499999999
 20
-7.472972222222223
 30
0.0
 10
30.95585833333333
 20
-7.455962499999991
 30
0.0
 10
30.95585833333333
 20
-7.455962499999991
 30
0.0
 10
31.03481388888889
 20
-7.418869444444454
 30
0.0
 10
31.1164875
 20
-7.380498611111104
 30
0.0
 10
31.19401805555556
 20
-7.33409027777778
 30
0.0
 10
31.45113194444444
 20
-7.180294444444447
 30
0.0
 10
31.6045111111111
 20
-6.95944166666666
 30
0.0
 10
31.64986527777778
 20
-6.677772222222226
 30
0.0
 10
31.66825555555556
 20
-6.563669444444435
 30
0.0
 10
31.68109027777778
 20
-6.447486111111099
 30
0.0
 10
31.69350972222224
 20
-6.335091666666661
 30
0.0
 10
31.69869444444445
 20
-6.288312499999998
 30
0.0
 10
31.70384861111112
 20
-6.241548611111106
 30
0.0
 10
31.7094486111111
 20
-6.194829166666674
 30
0.0
 10
31.71617777777778
 20
-6.138066666666671
 30
0.0
 10
31.72638333333333
 20
-6.082375000000007
 30
0.0
 10
31.73896666666668
 20
-6.033827777777788
 30
0.0
 10
31.73896666666668
 20
-6.033827777777788
 30
0.0
 10
31.74149166666666
 20
-6.024023611111109
 30
0.0
 10
31.74149166666666
 20
-6.024023611111109
 30
0.0
 10
31.74149166666666
 20
-6.024023611111109
 30
0.0
 10
31.74092777777777
 20
-6.013980555555563
 30
0.0
 10
31.74092777777777
 20
-6.013980555555563
 30
0.0
 10
31.73560833333332
 20
-5.919605555555563
 30
0.0
 10
31.67110694444444
 20
-5.89696666666666
 30
0.0
 10
31.64372916666667
 20
-5.891604166666664
 30
0.0
  0
HATCH
  5
46
330
1F
100
AcDbEntity
  8
Layer 1
 62
     7
420
 16777215
100
AcDbHatch
 10
0.0
 20
0.0
 30
0.0
210
0.0
220
0.0
230
1.0
  2
SOLID
 70
     1
 71
     0
 91
        1
 92
        1
 93
        1
 72
     4
 94
        3
 73
     0
 74
     1
 95
       74
 96
       70
 40
0.0
 40
0.0
 40
0.0
 40
0.0
 40
1.0
 40
1.0
 40
1.0
 40
2.0
 40
2.0
 40
2.0
 40
3.0
 40
3.0
 40
3.0
 40
4.0
 40
4.0
 40
4.0
 40
5.0
 40
5.0
 40
5.0
 40
6.0
 40
6.0
 40
6.0
 40
7.0
 40
7.0
 40
7.0
 40
8.0
 40
8.0
 40
8.0
 40
9.0
 40
9.0
 40
9.0
 40
10.0
 40
10.0
 40
10.0
 40
11.0
 40
11.0
 40
11.0
 40
12.0
 40
12.0
 40
12.0
 40
13.0
 40
13.0
 40
13.0
 40
14.0
 40
14.0
 40
14.0
 40
15.0
 40
15.0
 40
15.0
 40
16.0
 40
16.0
 40
16.0
 40
17.0
 40
17.0
 40
17.0
 40
18.0
 40
18.0
 40
18.0
 40
19.0
 40
19.0
 40
19.0
 40
20.0
 40
20.0
 40
20.0
 40
21.0
 40
21.0
 40
21.0
 40
22.0
 40
22.0
 40
22.0
 40
23.0
 40
23.0
 40
23.0
 40
23.0
 10
31.64372916666667
 20
-5.891604166666664
 10
31.57985138888888
 20
-5.879408333333331
 10
31.52401111111112
 20
-5.912965277777781
 10
31.50475833333333
 20
-5.975862499999999
 10
31.49544444444445
 20
-6.006523611111106
 10
31.48779444444444
 20
-6.038819444444445
 10
31.48146527777777
 20
-6.074665277777791
 10
31.46294166666667
 20
-6.178651388888889
 10
31.45226111111111
 20
-6.284212499999992
 10
31.44196527777778
 20
-6.386297222222234
 10
31.43826944444446
 20
-6.422708333333325
 10
31.43456805555555
 20
-6.459118055555564
 10
31.43052777777777
 20
-6.495527777777776
 10
31.41528611111112
 20
-6.633205555555555
 10
31.39891527777778
 20
-6.746670833333332
 10
31.33974722222223
 20
-6.849572222222226
 10
31.25820694444443
 20
-6.991425000000011
 10
31.14752083333335
 20
-7.094075
 10
31.00131527777777
 20
-7.163493055555565
 10
31.00131527777777
 20
-7.163493055555565
 10
30.96297361111111
 20
-7.181690277777786
 10
30.96297361111111
 20
-7.181690277777786
 10
30.79634305555555
 20
-7.260645833333329
 10
30.62406666666667
 20
-7.342245833333335
 10
30.46597777777778
 20
-7.448831944444438
 10
30.44564305555555
 20
-7.462484722222219
 10
30.42040277777778
 20
-7.479477777777775
 10
30.39826805555555
 20
-7.501033333333326
 10
30.3712763888889
 20
-7.527208333333343
 10
30.35633194444444
 20
-7.5602013888889
 10
30.35622777777778
 20
-7.593893055555554
 10
30.35610833333333
 20
-7.625
 10
30.36863194444445
 20
-7.654458333333322
 10
30.39142222222222
 20
-7.676888888888899
 10
30.41600555555556
 20
-7.701162500000009
 10
30.44524027777778
 20
-7.713373611111112
 10
30.47548472222221
 20
-7.713373611111112
 10
30.50239027777777
 20
-7.713373611111112
 10
30.53003333333334
 20
-7.703688888888892
 10
30.55592638888889
 20
-7.684287500000007
 10
30.65355416666666
 20
-7.611155555555544
 10
30.7691736111111
 20
-7.544024999999995
 10
30.91977499999999
 20
-7.472972222222223
 10
30.91977499999999
 20
-7.472972222222223
 10
30.95585833333333
 20
-7.455962499999991
 10
30.95585833333333
 20
-7.455962499999991
 10
31.03481388888889
 20
-7.418869444444454
 10
31.1164875
 20
-7.380498611111104
 10
31.19401805555556
 20
-7.33409027777778
 10
31.45113194444444
 20
-7.180294444444447
 10
31.6045111111111
 20
-6.95944166666666
 10
31.64986527777778
 20
-6.677772222222226
 10
31.66825555555556
 20
-6.563669444444435
 10
31.68109027777778
 20
-6.447486111111099
 10
31.69350972222224
 20
-6.335091666666661
 10
31.69869444444445
 20
-6.288312499999998
 10
31.70384861111112
 20
-6.241548611111106
 10
31.7094486111111
 20
-6.194829166666674
 10
31.71617777777778
 20
-6.138066666666671
 10
31.72638333333333
 20
-6.082375000000007
 10
31.73896666666668
 20
-6.033827777777788
 10
31.73896666666668
 20
-6.033827777777788
 10
31.74149166666666
 20
-6.024023611111109
 10
31.74149166666666
 20
-6.024023611111109
 10
31.74149166666666
 20
-6.024023611111109
 10
31.74092777777777
 20
-6.013980555555563
 10
31.74092777777777
 20
-6.013980555555563
 10
31.73560833333332
 20
-5.919605555555563
 10
31.67110694444444
 20
-5.89696666666666
 10
31.64372916666667
 20
-5.891604166666664
 97
        0
 97
        0
 75
     2
 76
     1
 98
        0
  0
SPLINE
  5
47
330
1F
100
AcDbEntity
  8
Layer 1
370
     0
100
AcDbSpline
210
0.0
220
0.0
230
1.0
 70
    11
 71
     3
 72
    68
 73
    64
 74
     0
 42
0.0000000001
 43
0.0000000001
 12
1.0
 22
0.0
 32
0.0
 13
1.0
 23
0.0
 33
0.0
 40
0.0
 40
0.0
 40
0.0
 40
0.0
 40
1.0
 40
1.0
 40
1.0
 40
2.0
 40
2.0
 40
2.0
 40
3.0
 40
3.0
 40
3.0
 40
4.0
 40
4.0
 40
4.0
 40
5.0
 40
5.0
 40
5.0
 40
6.0
 40
6.0
 40
6.0
 40
7.0
 40
7.0
 40
7.0
 40
8.0
 40
8.0
 40
8.0
 40
9.0
 40
9.0
 40
9.0
 40
10.0
 40
10.0
 40
10.0
 40
11.0
 40
11.0
 40
11.0
 40
12.0
 40
12.0
 40
12.0
 40
13.0
 40
13.0
 40
13.0
 40
14.0
 40
14.0
 40
14.0
 40
15.0
 40
15.0
 40
15.0
 40
16.0
 40
16.0
 40
16.0
 40
17.0
 40
17.0
 40
17.0
 40
18.0
 40
18.0
 40
18.0
 40
19.0
 40
19.0
 40
19.0
 40
20.0
 40
20.0
 40
20.0
 40
21.0
 40
21.0
 40
21.0
 40
21.0
 10
30.28300555555555
 20
-5.997966666666671
 30
0.0
 10
30.28300555555555
 20
-5.997966666666671
 30
0.0
 10
30.31653472222222
 20
-5.925963888888898
 30
0.0
 10
30.31653472222222
 20
-5.925963888888898
 30
0.0
 10
30.37763333333333
 20
-5.79391666666667
 30
0.0
 10
30.44081249999999
 20
-5.657381944444447
 30
0.0
 10
30.52972361111112
 20
-5.541704166666666
 30
0.0
 10
30.55010277777779
 20
-5.515216666666661
 30
0.0
 10
30.55946250000001
 20
-5.485254166666664
 30
0.0
 10
30.55680277777777
 20
-5.455231944444449
 30
0.0
 10
30.55395
 20
-5.422995833333339
 30
0.0
 10
30.53698611111112
 20
-5.393404166666667
 30
0.0
 10
30.50910277777777
 20
-5.371983333333333
 30
0.0
 10
30.45550555555556
 20
-5.330700000000004
 30
0.0
 10
30.38831527777778
 20
-5.33840972222222
 30
0.0
 10
30.34201111111111
 20
-5.390997222222217
 30
0.0
 10
30.30658194444445
 20
-5.431151388888893
 30
0.0
 10
30.27633611111111
 20
-5.475137499999997
 30
0.0
 10
30.2520625
 20
-5.521856944444443
 30
0.0
 10
30.22614027777778
 20
-5.571859722222219
 30
0.0
 10
30.2004111111111
 20
-5.621922222222224
 30
0.0
 10
30.17468472222222
 20
-5.671984722222216
 30
0.0
 10
30.12825972222222
 20
-5.762304166666657
 30
0.0
 10
30.08185138888888
 20
-5.852698611111109
 30
0.0
 10
30.03422638888888
 20
-5.942408333333333
 30
0.0
 10
29.98511388888889
 20
-6.035075000000006
 30
0.0
 10
29.9292
 20
-6.094675000000001
 30
0.0
 10
29.85830972222223
 20
-6.130134722222212
 30
0.0
 10
29.75931527777778
 20
-6.1795125
 30
0.0
 10
29.66289027777778
 20
-6.212565277777785
 30
0.0
 10
29.56346388888889
 20
-6.231283333333344
 30
0.0
 10
29.56346388888889
 20
-6.231283333333344
 30
0.0
 10
29.49199583333333
 20
-6.244370833333328
 30
0.0
 10
29.49199583333333
 20
-6.244370833333328
 30
0.0
 10
29.36137361111111
 20
-6.268005555555545
 30
0.0
 10
29.22632638888889
 20
-6.292472222222209
 30
0.0
 10
29.09651944444444
 20
-6.342222222222214
 30
0.0
 10
29.00750972222221
 20
-6.376344444444435
 30
0.0
 10
28.92859583333333
 20
-6.414091666666662
 30
0.0
 10
28.85519722222222
 20
-6.457513888888898
 30
0.0
 10
28.79966805555556
 20
-6.490447222222226
 30
0.0
 10
28.7778013888889
 20
-6.545129166666659
 30
0.0
 10
28.79672638888889
 20
-6.603793055555545
 30
0.0
 10
28.81196805555555
 20
-6.651076388888896
 30
0.0
 10
28.85283472222222
 20
-6.682302777777775
 30
0.0
 10
28.90681805555555
 20
-6.6854513888889
 30
0.0
 10
28.90729444444445
 20
-6.6854513888889
 30
0.0
 10
28.90775416666666
 20
-6.6854513888889
 30
0.0
 10
28.9082
 20
-6.6854513888889
 30
0.0
 10
28.94062916666667
 20
-6.6854513888889
 30
0.0
 10
28.96004444444444
 20
-6.677623611111104
 30
0.0
 10
28.99326111111111
 20
-6.6590986111111
 30
0.0
 10
29.11999166666666
 20
-6.588611111111099
 30
0.0
 10
29.24483472222222
 20
-6.541772222222233
 30
0.0
 10
29.3748625
 20
-6.515790277777771
 30
0.0
 10
29.40795972222223
 20
-6.509224999999989
 30
0.0
 10
29.44111666666667
 20
-6.502895833333342
 30
0.0
 10
29.47430277777778
 20
-6.496641666666669
 30
0.0
 10
29.54031944444445
 20
-6.484134722222229
 30
0.0
 10
29.60638055555556
 20
-6.471611111111113
 30
0.0
 10
29.6718625
 20
-6.456562499999992
 30
0.0
 10
29.97000694444445
 20
-6.388049999999995
 30
0.0
 10
30.16991388888889
 20
-6.238043055555559
 30
0.0
 10
30.28300555555555
 20
-5.997966666666671
 30
0.0
  0
HATCH
  5
48
330
1F
100
AcDbEntity
  8
Layer 1
 62
     7
420
 16777215
100
AcDbHatch
 10
0.0
 20
0.0
 30
0.0
210
0.0
220
0.0
230
1.0
  2
SOLID
 70
     1
 71
     0
 91
        1
 92
        1
 93
        1
 72
     4
 94
        3
 73
     0
 74
     1
 95
       68
 96
       64
 40
0.0
 40
0.0
 40
0.0
 40
0.0
 40
1.0
 40
1.0
 40
1.0
 40
2.0
 40
2.0
 40
2.0
 40
3.0
 40
3.0
 40
3.0
 40
4.0
 40
4.0
 40
4.0
 40
5.0
 40
5.0
 40
5.0
 40
6.0
 40
6.0
 40
6.0
 40
7.0
 40
7.0
 40
7.0
 40
8.0
 40
8.0
 40
8.0
 40
9.0
 40
9.0
 40
9.0
 40
10.0
 40
10.0
 40
10.0
 40
11.0
 40
11.0
 40
11.0
 40
12.0
 40
12.0
 40
12.0
 40
13.0
 40
13.0
 40
13.0
 40
14.0
 40
14.0
 40
14.0
 40
15.0
 40
15.0
 40
15.0
 40
16.0
 40
16.0
 40
16.0
 40
17.0
 40
17.0
 40
17.0
 40
18.0
 40
18.0
 40
18.0
 40
19.0
 40
19.0
 40
19.0
 40
20.0
 40
20.0
 40
20.0
 40
21.0
 40
21.0
 40
21.0
 40
21.0
 10
30.28300555555555
 20
-5.997966666666671
 10
30.28300555555555
 20
-5.997966666666671
 10
30.31653472222222
 20
-5.925963888888898
 10
30.31653472222222
 20
-5.925963888888898
 10
30.37763333333333
 20
-5.79391666666667
 10
30.44081249999999
 20
-5.657381944444447
 10
30.52972361111112
 20
-5.541704166666666
 10
30.55010277777779
 20
-5.515216666666661
 10
30.55946250000001
 20
-5.485254166666664
 10
30.55680277777777
 20
-5.455231944444449
 10
30.55395
 20
-5.422995833333339
 10
30.53698611111112
 20
-5.393404166666667
 10
30.50910277777777
 20
-5.371983333333333
 10
30.45550555555556
 20
-5.330700000000004
 10
30.38831527777778
 20
-5.33840972222222
 10
30.34201111111111
 20
-5.390997222222217
 10
30.30658194444445
 20
-5.431151388888893
 10
30.27633611111111
 20
-5.475137499999997
 10
30.2520625
 20
-5.521856944444443
 10
30.22614027777778
 20
-5.571859722222219
 10
30.2004111111111
 20
-5.621922222222224
 10
30.17468472222222
 20
-5.671984722222216
 10
30.12825972222222
 20
-5.762304166666657
 10
30.08185138888888
 20
-5.852698611111109
 10
30.03422638888888
 20
-5.942408333333333
 10
29.98511388888889
 20
-6.035075000000006
 10
29.9292
 20
-6.094675000000001
 10
29.85830972222223
 20
-6.130134722222212
 10
29.75931527777778
 20
-6.1795125
 10
29.66289027777778
 20
-6.212565277777785
 10
29.56346388888889
 20
-6.231283333333344
 10
29.56346388888889
 20
-6.231283333333344
 10
29.49199583333333
 20
-6.244370833333328
 10
29.49199583333333
 20
-6.244370833333328
 10
29.36137361111111
 20
-6.268005555555545
 10
29.22632638888889
 20
-6.292472222222209
 10
29.09651944444444
 20
-6.342222222222214
 10
29.00750972222221
 20
-6.376344444444435
 10
28.92859583333333
 20
-6.414091666666662
 10
28.85519722222222
 20
-6.457513888888898
 10
28.79966805555556
 20
-6.490447222222226
 10
28.7778013888889
 20
-6.545129166666659
 10
28.79672638888889
 20
-6.603793055555545
 10
28.81196805555555
 20
-6.651076388888896
 10
28.85283472222222
 20
-6.682302777777775
 10
28.90681805555555
 20
-6.6854513888889
 10
28.90729444444445
 20
-6.6854513888889
 10
28.90775416666666
 20
-6.6854513888889
 10
28.9082
 20
-6.6854513888889
 10
28.94062916666667
 20
-6.6854513888889
 10
28.96004444444444
 20
-6.677623611111104
 10
28.99326111111111
 20
-6.6590986111111
 10
29.11999166666666
 20
-6.588611111111099
 10
29.24483472222222
 20
-6.541772222222233
 10
29.3748625
 20
-6.515790277777771
 10
29.40795972222223
 20
-6.509224999999989
 10
29.44111666666667
 20
-6.502895833333342
 10
29.47430277777778
 20
-6.496641666666669
 10
29.54031944444445
 20
-6.484134722222229
 10
29.60638055555556
 20
-6.471611111111113
 10
29.6718625
 20
-6.456562499999992
 10
29.97000694444445
 20
-6.388049999999995
 10
30.16991388888889
 20
-6.238043055555559
 10
30.28300555555555
 20
-5.997966666666671
 97
        0
 97
        0
 75
     2
 76
     1
 98
        0
  0
ENDSEC
  0
SECTION
  2
OBJECTS
  0
DICTIONARY
  5
C
330
0
100
AcDbDictionary
281
     1
  3
ACAD_GROUP
350
D
  3
ACAD_LAYOUT
350
1A
  3
ACAD_MATERIAL
350
3B
  3
ACAD_MLEADERSTYLE
350
4A
  3
ACAD_MLINESTYLE
350
17
  3
ACAD_PLOTSETTINGS
350
19
  3
ACAD_PLOTSTYLENAME
350
E
  3
ACAD_TABLESTYLE
350
49
  3
ACAD_VISUALSTYLE
350
2A
  0
SUN
  5
3F
330
29
100
AcDbSun
 90
        1
290
     0
 63
     7
421
 16777215
 40
1.0
291
     1
 91
  2455826
 92
 54000000
292
     0
 70
     2
 71
   256
280
     1
  0
DICTIONARY
  5
D
102
{ACAD_REACTORS
330
C
102
}
330
C
100
AcDbDictionary
281
     1
  0
DICTIONARY
  5
1A
102
{ACAD_REACTORS
330
C
102
}
330
C
100
AcDbDictionary
281
     1
  3
Layout1
350
1E
  3
Layout2
350
26
  3
Model
350
22
  0
DICTIONARY
  5
3B
102
{ACAD_REACTORS
330
C
102
}
330
C
100
AcDbDictionary
281
     1
  3
ByBlock
350
3D
  3
ByLayer
350
3C
  3
Global
350
3E
  0
DICTIONARY
  5
4A
102
{ACAD_REACTORS
330
C
102
}
330
C
100
AcDbDictionary
281
     1
  0
DICTIONARY
  5
17
102
{ACAD_REACTORS
330
C
102
}
330
C
100
AcDbDictionary
281
     1
  3
Standard
350
18
  0
DICTIONARY
  5
19
102
{ACAD_REACTORS
330
C
102
}
330
C
100
AcDbDictionary
281
     1
  0
ACDBDICTIONARYWDFLT
  5
E
102
{ACAD_REACTORS
330
C
102
}
330
C
100
AcDbDictionary
281
     1
  3
Normal
350
F
100
AcDbDictionaryWithDefault
340
F
  0
DICTIONARY
  5
49
102
{ACAD_REACTORS
330
C
102
}
330
C
100
AcDbDictionary
281
     1
  0
DICTIONARY
  5
2A
102
{ACAD_REACTORS
330
C
102
}
330
C
100
AcDbDictionary
281
     1
  3
2dWireframe
350
2F
  3
3D Hidden
350
31
  3
3dWireframe
350
30
  3
Basic
350
32
  3
Brighten
350
36
  3
ColorChange
350
3A
  3
Conceptual
350
34
  3
Dim
350
35
  3
Facepattern
350
39
  3
Flat
350
2B
  3
FlatWithEdges
350
2C
  3
Gouraud
350
2D
  3
GouraudWithEdges
350
2E
  3
Linepattern
350
38
  3
Realistic
350
33
  3
Thicken
350
37
  0
LAYOUT
  5
1E
102
{ACAD_REACTORS
330
1A
102
}
330
1A
100
AcDbPlotSettings
  1

  2
none_device
  4

  6

 40
0.0
 41
0.0
 42
0.0
 43
0.0
 44
0.0
 45
0.0
 46
0.0
 47
0.0
 48
0.0
 49
0.0
140
0.0
141
0.0
142
1.0
143
1.0
 70
   688
 72
     0
 73
     0
 74
     5
  7

 75
    16
 76
     0
 77
     2
 78
   300
147
1.0
148
0.0
149
0.0
100
AcDbLayout
  1
Layout1
 70
     1
 71
     1
 10
0.0
 20
0.0
 11
12.0
 21
9.0
 12
0.0
 22
0.0
 32
0.0
 14
1.000000000000000E+20
 24
1.000000000000000E+20
 34
1.000000000000000E+20
 15
-1.000000000000000E+20
 25
-1.000000000000000E+20
 35
-1.000000000000000E+20
146
0.0
 13
0.0
 23
0.0
 33
0.0
 16
1.0
 26
0.0
 36
0.0
 17
0.0
 27
1.0
 37
0.0
 76
     0
330
1B
  0
LAYOUT
  5
26
102
{ACAD_REACTORS
330
1A
102
}
330
1A
100
AcDbPlotSettings
  1

  2
none_device
  4

  6

 40
0.0
 41
0.0
 42
0.0
 43
0.0
 44
0.0
 45
0.0
 46
0.0
 47
0.0
 48
0.0
 49
0.0
140
0.0
141
0.0
142
1.0
143
1.0
 70
   688
 72
     0
 73
     0
 74
     5
  7

 75
    16
 76
     0
 77
     2
 78
   300
147
1.0
148
0.0
149
0.0
100
AcDbLayout
  1
Layout2
 70
     1
 71
     2
 10
0.0
 20
0.0
 11
0.0
 21
0.0
 12
0.0
 22
0.0
 32
0.0
 14
0.0
 24
0.0
 34
0.0
 15
0.0
 25
0.0
 35
0.0
146
0.0
 13
0.0
 23
0.0
 33
0.0
 16
1.0
 26
0.0
 36
0.0
 17
0.0
 27
1.0
 37
0.0
 76
     0
330
23
  0
LAYOUT
  5
22
102
{ACAD_REACTORS
330
1A
102
}
330
1A
100
AcDbPlotSettings
  1

  2
none_device
  4

  6

 40
0.0
 41
0.0
 42
0.0
 43
0.0
 44
0.0
 45
0.0
 46
0.0
 47
0.0
 48
0.0
 49
0.0
140
0.0
141
0.0
142
1.0
143
1.0
 70
  1712
 72
     0
 73
     0
 74
     0
  7

 75
     0
 76
     0
 77
     2
 78
   300
147
1.0
148
0.0
149
0.0
100
AcDbLayout
  1
Model
 70
     1
 71
     0
 10
0.0
 20
0.0
 11
12.0
 21
9.0
 12
0.0
 22
0.0
 32
0.0
 14
1.000000000000000E+20
 24
1.000000000000000E+20
 34
1.000000000000000E+20
 15
-1.000000000000000E+20
 25
-1.000000000000000E+20
 35
-1.000000000000000E+20
146
0.0
 13
0.0
 23
0.0
 33
0.0
 16
1.0
 26
0.0
 36
0.0
 17
0.0
 27
1.0
 37
0.0
 76
     0
330
1F
331
29
  0
MATERIAL
  5
3D
102
{ACAD_REACTORS
330
3B
102
}
330
3B
100
AcDbMaterial
  1
ByBlock
 72
     1
 94
      127
  0
MATERIAL
  5
3C
102
{ACAD_REACTORS
330
3B
102
}
330
3B
100
AcDbMaterial
  1
ByLayer
 72
     1
 94
      127
  0
MATERIAL
  5
3E
102
{ACAD_REACTORS
330
3B
102
}
330
3B
100
AcDbMaterial
  1
Global
 72
     1
 94
      127
  0
MLINESTYLE
  5
18
102
{ACAD_REACTORS
330
17
102
}
330
17
100
AcDbMlineStyle
  2
Standard
 70
     0
  3

 62
   256
 51
90.0
 52
90.0
 71
     2
 49
0.5
 62
   256
  6
BYLAYER
 49
-0.5
 62
   256
  6
BYLAYER
  0
ACDBPLACEHOLDER
  5
F
102
{ACAD_REACTORS
330
E
102
}
330
E
  0
VISUALSTYLE
  5
2F
102
{ACAD_REACTORS
330
2A
102
}
330
2A
100
AcDbVisualStyle
  2
2dWireframe
 70
     4
177
     2
291
     0
 71
     0
176
     1
 72
     2
176
     1
 73
     0
176
     1
 90
        0
176
     1
 40
-0.6
176
     1
 41
-30.0
176
     1
 62
     5
 63
     7
421
 16777215
176
     1
 74
     1
176
     1
 91
        4
176
     1
 64
     7
176
     1
 65
   257
176
     1
 75
     1
176
     1
175
     1
176
     1
 42
1.0
176
     1
 92
        0
176
     1
 66
   257
176
     1
 43
1.0
176
     1
 76
     1
176
     1
 77
     6
176
     1
 78
     2
176
     1
 67
     7
176
     1
 79
     5
176
     1
170
     0
176
     1
171
     0
176
     1
290
     0
176
     1
 93
        1
176
     1
 44
0.0
176
     1
173
     0
176
     1
  0
VISUALSTYLE
  5
31
102
{ACAD_REACTORS
330
2A
102
}
330
2A
100
AcDbVisualStyle
  2
3D Hidden
 70
     6
177
     2
291
     0
 71
     1
176
     1
 72
     2
176
     1
 73
     2
176
     1
 90
        0
176
     1
 40
-0.6
176
     1
 41
-30.0
176
     1
 62
     5
 63
     7
421
 16777215
176
     1
 74
     2
176
     1
 91
        2
176
     1
 64
     7
176
     1
 65
   257
176
     1
 75
     2
176
     1
175
     1
176
     1
 42
40.0
176
     1
 92
        0
176
     1
 66
   257
176
     1
 43
1.0
176
     1
 76
     1
176
     1
 77
     6
176
     1
 78
     2
176
     1
 67
     7
176
     1
 79
     3
176
     1
170
     0
176
     1
171
     0
176
     1
290
     0
176
     1
 93
        1
176
     1
 44
0.0
176
     1
173
     0
176
     1
  0
VISUALSTYLE
  5
30
102
{ACAD_REACTORS
330
2A
102
}
330
2A
100
AcDbVisualStyle
  2
3dWireframe
 70
     5
177
     2
291
     0
 71
     0
176
     1
 72
     2
176
     1
 73
     0
176
     1
 90
        0
176
     1
 40
-0.6
176
     1
 41
-30.0
176
     1
 62
     5
 63
     7
421
 16777215
176
     1
 74
     1
176
     1
 91
        4
176
     1
 64
     7
176
     1
 65
   257
176
     1
 75
     1
176
     1
175
     1
176
     1
 42
1.0
176
     1
 92
        0
176
     1
 66
   257
176
     1
 43
1.0
176
     1
 76
     1
176
     1
 77
     6
176
     1
 78
     2
176
     1
 67
     7
176
     1
 79
     5
176
     1
170
     0
176
     1
171
     0
176
     1
290
     0
176
     1
 93
        1
176
     1
 44
0.0
176
     1
173
     0
176
     1
  0
VISUALSTYLE
  5
32
102
{ACAD_REACTORS
330
2A
102
}
330
2A
100
AcDbVisualStyle
  2
Basic
 70
     7
177
     2
291
     1
 71
     1
176
     1
 72
     0
176
     1
 73
     1
176
     1
 90
        0
176
     1
 40
-0.6
176
     1
 41
-30.0
176
     1
 62
     5
 63
     7
421
 16777215
176
     1
 74
     0
176
     1
 91
        4
176
     1
 64
     7
176
     1
 65
   257
176
     1
 75
     1
176
     1
175
     1
176
     1
 42
1.0
176
     1
 92
        8
176
     1
 66
     7
176
     1
 43
1.0
176
     1
 76
     1
176
     1
 77
     6
176
     1
 78
     2
176
     1
 67
     7
176
     1
 79
     5
176
     1
170
     0
176
     1
171
     0
176
     1
290
     0
176
     1
 93
        1
176
     1
 44
0.0
176
     1
173
     0
176
     1
  0
VISUALSTYLE
  5
36
102
{ACAD_REACTORS
330
2A
102
}
330
2A
100
AcDbVisualStyle
  2
Brighten
 70
    12
177
     2
291
     1
 71
     2
176
     1
 72
     2
176
     1
 73
     0
176
     1
 90
        0
176
     1
 40
-0.6
176
     1
 41
-30.0
176
     1
 62
     5
 63
     7
421
 16777215
176
     1
 74
     1
176
     1
 91
        4
176
     1
 64
     7
176
     1
 65
   257
176
     1
 75
     1
176
     1
175
     1
176
     1
 42
1.0
176
     1
 92
        8
176
     1
 66
     7
176
     1
 43
1.0
176
     1
 76
     1
176
     1
 77
     6
176
     1
 78
     2
176
     1
 67
     7
176
     1
 79
     5
176
     1
170
     0
176
     1
171
     0
176
     1
290
     0
176
     1
 93
        1
176
     1
 44
50.0
176
     1
173
     0
176
     1
  0
VISUALSTYLE
  5
3A
102
{ACAD_REACTORS
330
2A
102
}
330
2A
100
AcDbVisualStyle
  2
ColorChange
 70
    16
177
     2
291
     1
 71
     2
176
     1
 72
     2
176
     1
 73
     3
176
     1
 90
        0
176
     1
 40
-0.6
176
     1
 41
-30.0
176
     1
 62
     5
 63
     8
421
  8421504
176
     1
 74
     1
176
     1
 91
        4
176
     1
 64
     7
176
     1
 65
   257
176
     1
 75
     1
176
     1
175
     1
176
     1
 42
1.0
176
     1
 92
        8
176
     1
 66
     8
424
  8421504
176
     1
 43
1.0
176
     1
 76
     1
176
     1
 77
     6
176
     1
 78
     2
176
     1
 67
     7
176
     1
 79
     5
176
     1
170
     0
176
     1
171
     0
176
     1
290
     0
176
     1
 93
        1
176
     1
 44
0.0
176
     1
173
     0
176
     1
  0
VISUALSTYLE
  5
34
102
{ACAD_REACTORS
330
2A
102
}
330
2A
100
AcDbVisualStyle
  2
Conceptual
 70
     9
177
     2
291
     0
 71
     3
176
     1
 72
     2
176
     1
 73
     0
176
     1
 90
        0
176
     1
 40
-0.6
176
     1
 41
-30.0
176
     1
 62
     5
 63
     7
421
 16777215
176
     1
 74
     2
176
     1
 91
        2
176
     1
 64
     7
176
     1
 65
   257
176
     1
 75
     1
176
     1
175
     1
176
     1
 42
40.0
176
     1
 92
        8
176
     1
 66
     7
176
     1
 43
1.0
176
     1
 76
     1
176
     1
 77
     6
176
     1
 78
     2
176
     1
 67
     7
176
     1
 79
     3
176
     1
170
     0
176
     1
171
     0
176
     1
290
     0
176
     1
 93
        1
176
     1
 44
0.0
176
     1
173
     0
176
     1
  0
VISUALSTYLE
  5
35
102
{ACAD_REACTORS
330
2A
102
}
330
2A
100
AcDbVisualStyle
  2
Dim
 70
    11
177
     2
291
     1
 71
     2
176
     1
 72
     2
176
     1
 73
     0
176
     1
 90
        0
176
     1
 40
-0.6
176
     1
 41
-30.0
176
     1
 62
     5
 63
     7
421
 16777215
176
     1
 74
     1
176
     1
 91
        4
176
     1
 64
     7
176
     1
 65
   257
176
     1
 75
     1
176
     1
175
     1
176
     1
 42
1.0
176
     1
 92
        8
176
     1
 66
     7
176
     1
 43
1.0
176
     1
 76
     1
176
     1
 77
     6
176
     1
 78
     2
176
     1
 67
     7
176
     1
 79
     5
176
     1
170
     0
176
     1
171
     0
176
     1
290
     0
176
     1
 93
        1
176
     1
 44
-50.0
176
     1
173
     0
176
     1
  0
VISUALSTYLE
  5
39
102
{ACAD_REACTORS
330
2A
102
}
330
2A
100
AcDbVisualStyle
  2
Facepattern
 70
    15
177
     2
291
     1
 71
     2
176
     1
 72
     2
176
     1
 73
     0
176
     1
 90
        0
176
     1
 40
-0.6
176
     1
 41
-30.0
176
     1
 62
     5
 63
     7
421
 16777215
176
     1
 74
     1
176
     1
 91
        4
176
     1
 64
     7
176
     1
 65
   257
176
     1
 75
     1
176
     1
175
     1
176
     1
 42
1.0
176
     1
 92
        8
176
     1
 66
     7
176
     1
 43
1.0
176
     1
 76
     1
176
     1
 77
     6
176
     1
 78
     2
176
     1
 67
     7
176
     1
 79
     5
176
     1
170
     0
176
     1
171
     0
176
     1
290
     0
176
     1
 93
        1
176
     1
 44
0.0
176
     1
173
     0
176
     1
  0
VISUALSTYLE
  5
2B
102
{ACAD_REACTORS
330
2A
102
}
330
2A
100
AcDbVisualStyle
  2
Flat
 70
     0
177
     2
291
     1
 71
     2
176
     1
 72
     1
176
     1
 73
     1
176
     1
 90
        2
176
     1
 40
-0.6
176
     1
 41
30.0
176
     1
 62
     5
 63
     7
421
 16777215
176
     1
 74
     0
176
     1
 91
        4
176
     1
 64
     7
176
     1
 65
   257
176
     1
 75
     1
176
     1
175
     1
176
     1
 42
1.0
176
     1
 92
        8
176
     1
 66
     7
176
     1
 43
1.0
176
     1
 76
     1
176
     1
 77
     6
176
     1
 78
     2
176
     1
 67
     7
176
     1
 79
     5
176
     1
170
     0
176
     1
171
     0
176
     1
290
     0
176
     1
 93
       13
176
     1
 44
0.0
176
     1
173
     0
176
     1
  0
VISUALSTYLE
  5
2C
102
{ACAD_REACTORS
330
2A
102
}
330
2A
100
AcDbVisualStyle
  2
FlatWithEdges
 70
     1
177
     2
291
     1
 71
     2
176
     1
 72
     1
176
     1
 73
     1
176
     1
 90
        2
176
     1
 40
-0.6
176
     1
 41
30.0
176
     1
 62
     5
 63
     7
421
 16777215
176
     1
 74
     1
176
     1
 91
        4
176
     1
 64
     7
176
     1
 65
   257
176
     1
 75
     1
176
     1
175
     1
176
     1
 42
1.0
176
     1
 92
        0
176
     1
 66
   257
176
     1
 43
1.0
176
     1
 76
     1
176
     1
 77
     6
176
     1
 78
     2
176
     1
 67
     7
176
     1
 79
     5
176
     1
170
     0
176
     1
171
     0
176
     1
290
     0
176
     1
 93
       13
176
     1
 44
0.0
176
     1
173
     0
176
     1
  0
VISUALSTYLE
  5
2D
102
{ACAD_REACTORS
330
2A
102
}
330
2A
100
AcDbVisualStyle
  2
Gouraud
 70
     2
177
     2
291
     1
 71
     2
176
     1
 72
     2
176
     1
 73
     1
176
     1
 90
        2
176
     1
 40
-0.6
176
     1
 41
30.0
176
     1
 62
     5
 63
     7
421
 16777215
176
     1
 74
     0
176
     1
 91
        4
176
     1
 64
     7
176
     1
 65
   257
176
     1
 75
     1
176
     1
175
     1
176
     1
 42
1.0
176
     1
 92
        0
176
     1
 66
     7
176
     1
 43
1.0
176
     1
 76
     1
176
     1
 77
     6
176
     1
 78
     2
176
     1
 67
     7
176
     1
 79
     5
176
     1
170
     0
176
     1
171
     0
176
     1
290
     0
176
     1
 93
       13
176
     1
 44
0.0
176
     1
173
     0
176
     1
  0
VISUALSTYLE
  5
2E
102
{ACAD_REACTORS
330
2A
102
}
330
2A
100
AcDbVisualStyle
  2
GouraudWithEdges
 70
     3
177
     2
291
     1
 71
     2
176
     1
 72
     2
176
     1
 73
     1
176
     1
 90
        2
176
     1
 40
-0.6
176
     1
 41
30.0
176
     1
 62
     5
 63
     7
421
 16777215
176
     1
 74
     1
176
     1
 91
        4
176
     1
 64
     7
176
     1
 65
   257
176
     1
 75
     1
176
     1
175
     1
176
     1
 42
1.0
176
     1
 92
        0
176
     1
 66
   257
176
     1
 43
1.0
176
     1
 76
     1
176
     1
 77
     6
176
     1
 78
     2
176
     1
 67
     7
176
     1
 79
     5
176
     1
170
     0
176
     1
171
     0
176
     1
290
     0
176
     1
 93
       13
176
     1
 44
0.0
176
     1
173
     0
176
     1
  0
VISUALSTYLE
  5
38
102
{ACAD_REACTORS
330
2A
102
}
330
2A
100
AcDbVisualStyle
  2
Linepattern
 70
    14
177
     2
291
     1
 71
     2
176
     1
 72
     2
176
     1
 73
     0
176
     1
 90
        0
176
     1
 40
-0.6
176
     1
 41
-30.0
176
     1
 62
     5
 63
     7
421
 16777215
176
     1
 74
     1
176
     1
 91
        4
176
     1
 64
     7
176
     1
 65
   257
176
     1
 75
     7
176
     1
175
     7
176
     1
 42
1.0
176
     1
 92
        8
176
     1
 66
     7
176
     1
 43
1.0
176
     1
 76
     1
176
     1
 77
     6
176
     1
 78
     2
176
     1
 67
     7
176
     1
 79
     5
176
     1
170
     0
176
     1
171
     0
176
     1
290
     0
176
     1
 93
        1
176
     1
 44
0.0
176
     1
173
     0
176
     1
  0
VISUALSTYLE
  5
33
102
{ACAD_REACTORS
330
2A
102
}
330
2A
100
AcDbVisualStyle
  2
Realistic
 70
     8
177
     2
291
     0
 71
     2
176
     1
 72
     2
176
     1
 73
     0
176
     1
 90
        0
176
     1
 40
-0.6
176
     1
 41
-30.0
176
     1
 62
     5
 63
     7
421
 16777215
176
     1
 74
     1
176
     1
 91
        0
176
     1
 64
     7
176
     1
 65
   257
176
     1
 75
     1
176
     1
175
     1
176
     1
 42
1.0
176
     1
 92
        8
176
     1
 66
     8
424
  7895160
176
     1
 43
1.0
176
     1
 76
     1
176
     1
 77
     6
176
     1
 78
     2
176
     1
 67
     7
176
     1
 79
     5
176
     1
170
     0
176
     1
171
     0
176
     1
290
     0
176
     1
 93
       13
176
     1
 44
0.0
176
     1
173
     0
176
     1
  0
VISUALSTYLE
  5
37
102
{ACAD_REACTORS
330
2A
102
}
330
2A
100
AcDbVisualStyle
  2
Thicken
 70
    13
177
     2
291
     1
 71
     2
176
     1
 72
     2
176
     1
 73
     0
176
     1
 90
        0
176
     1
 40
-0.6
176
     1
 41
-30.0
176
     1
 62
     5
 63
     7
421
 16777215
176
     1
 74
     1
176
     1
 91
        4
176
     1
 64
     7
176
     1
 65
   257
176
     1
 75
     1
176
     1
175
     1
176
     1
 42
1.0
176
     1
 92
       12
176
     1
 66
     7
176
     1
 43
1.0
176
     1
 76
     1
176
     1
 77
     6
176
     1
 78
     2
176
     1
 67
     7
176
     1
 79
     5
176
     1
170
     0
176
     1
171
     0
176
     1
290
     0
176
     1
 93
        1
176
     1
 44
0.0
176
     1
173
     0
176
     1
  0
ENDSEC
  0
EOF
