  0
SECTION
  2
HEADER
  9
$ACADVER
  1
AC1024
  9
$ACADMAINTVER
 70
     6
  9
$DWGCODEPAGE
  3
ANSI_1251
  9
$INSBASE
 10
0.0
 20
0.0
 30
0.0
  9
$EXTMIN
 10
1.000000000000000E+20
 20
1.000000000000000E+20
 30
1.000000000000000E+20
  9
$EXTMAX
 10
-1.000000000000000E+20
 20
-1.000000000000000E+20
 30
-1.000000000000000E+20
  9
$LIMMIN
 10
0.0
 20
0.0
  9
$LIMMAX
 10
12.0
 20
9.0
  9
$ORTHOMODE
 70
     0
  9
$REGENMODE
 70
     1
  9
$FILLMODE
 70
     1
  9
$QTEXTMODE
 70
     0
  9
$MIRRTEXT
 70
     1
  9
$LTSCALE
 40
1.0
  9
$ATTMODE
 70
     1
  9
$TEXTSIZE
 40
0.2
  9
$TRACEWID
 40
0.05
  9
$TEXTSTYLE
  7
Standard
  9
$CLAYER
  8
0
  9
$CELTYPE
  6
ByLayer
  9
$CECOLOR
 62
   256
  9
$CELTSCALE
 40
1.0
  9
$DISPSILH
 70
     0
  9
$DIMSCALE
 40
1.0
  9
$DIMASZ
 40
0.18
  9
$DIMEXO
 40
0.0625
  9
$DIMDLI
 40
0.38
  9
$DIMRND
 40
0.0
  9
$DIMDLE
 40
0.0
  9
$DIMEXE
 40
0.18
  9
$DIMTP
 40
0.0
  9
$DIMTM
 40
0.0
  9
$DIMTXT
 40
0.18
  9
$DIMCEN
 40
0.09
  9
$DIMTSZ
 40
0.0
  9
$DIMTOL
 70
     0
  9
$DIMLIM
 70
     0
  9
$DIMTIH
 70
     1
  9
$DIMTOH
 70
     1
  9
$DIMSE1
 70
     0
  9
$DIMSE2
 70
     0
  9
$DIMTAD
 70
     0
  9
$DIMZIN
 70
     0
  9
$DIMBLK
  1

  9
$DIMASO
 70
     1
  9
$DIMSHO
 70
     1
  9
$DIMPOST
  1

  9
$DIMAPOST
  1

  9
$DIMALT
 70
     0
  9
$DIMALTD
 70
     2
  9
$DIMALTF
 40
25.4
  9
$DIMLFAC
 40
1.0
  9
$DIMTOFL
 70
     0
  9
$DIMTVP
 40
0.0
  9
$DIMTIX
 70
     0
  9
$DIMSOXD
 70
     0
  9
$DIMSAH
 70
     0
  9
$DIMBLK1
  1

  9
$DIMBLK2
  1

  9
$DIMSTYLE
  2
Standard
  9
$DIMCLRD
 70
     0
  9
$DIMCLRE
 70
     0
  9
$DIMCLRT
 70
     0
  9
$DIMTFAC
 40
1.0
  9
$DIMGAP
 40
0.09
  9
$DIMJUST
 70
     0
  9
$DIMSD1
 70
     0
  9
$DIMSD2
 70
     0
  9
$DIMTOLJ
 70
     1
  9
$DIMTZIN
 70
     0
  9
$DIMALTZ
 70
     0
  9
$DIMALTTZ
 70
     0
  9
$DIMUPT
 70
     0
  9
$DIMDEC
 70
     4
  9
$DIMTDEC
 70
     4
  9
$DIMALTU
 70
     2
  9
$DIMALTTD
 70
     2
  9
$DIMTXSTY
  7
Standard
  9
$DIMAUNIT
 70
     0
  9
$DIMADEC
 70
     0
  9
$DIMALTRND
 40
0.0
  9
$DIMAZIN
 70
     0
  9
$DIMDSEP
 70
    46
  9
$DIMATFIT
 70
     3
  9
$DIMFRAC
 70
     0
  9
$DIMLDRBLK
  1

  9
$DIMLUNIT
 70
     2
  9
$DIMLWD
 70
    -2
  9
$DIMLWE
 70
    -2
  9
$DIMTMOVE
 70
     0
  9
$DIMFXL
 40
1.0
  9
$DIMFXLON
 70
     0
  9
$DIMJOGANG
 40
0.7853981633974483
  9
$DIMTFILL
 70
     0
  9
$DIMTFILLCLR
 70
     0
  9
$DIMARCSYM
 70
     0
  9
$DIMLTYPE
  6

  9
$DIMLTEX1
  6

  9
$DIMLTEX2
  6

  9
$DIMTXTDIRECTION
 70
     0
  9
$LUNITS
 70
     2
  9
$LUPREC
 70
     4
  9
$SKETCHINC
 40
0.1
  9
$FILLETRAD
 40
0.5
  9
$AUNITS
 70
     0
  9
$AUPREC
 70
     0
  9
$MENU
  1
.
  9
$ELEVATION
 40
0.0
  9
$PELEVATION
 40
0.0
  9
$THICKNESS
 40
0.0
  9
$LIMCHECK
 70
     0
  9
$CHAMFERA
 40
0.5
  9
$CHAMFERB
 40
0.5
  9
$CHAMFERC
 40
1.0
  9
$CHAMFERD
 40
0.0
  9
$SKPOLY
 70
     0
  9
$TDCREATE
 40
2459337.638131493
  9
$TDUCREATE
 40
2459337.513131493
  9
$TDUPDATE
 40
2459337.638131493
  9
$TDUUPDATE
 40
2459337.513131493
  9
$TDINDWG
 40
0.0000000116
  9
$TDUSRTIMER
 40
0.0000000116
  9
$USRTIMER
 70
     1
  9
$ANGBASE
 50
0.0
  9
$ANGDIR
 70
     0
  9
$PDMODE
 70
     0
  9
$PDSIZE
 40
0.0
  9
$PLINEWID
 40
0.0
  9
$SPLFRAME
 70
     0
  9
$SPLINETYPE
 70
     6
  9
$SPLINESEGS
 70
     8
  9
$HANDSEED
  5
51
  9
$SURFTAB1
 70
     6
  9
$SURFTAB2
 70
     6
  9
$SURFTYPE
 70
     6
  9
$SURFU
 70
     6
  9
$SURFV
 70
     6
  9
$UCSBASE
  2

  9
$UCSNAME
  2

  9
$UCSORG
 10
0.0
 20
0.0
 30
0.0
  9
$UCSXDIR
 10
1.0
 20
0.0
 30
0.0
  9
$UCSYDIR
 10
0.0
 20
1.0
 30
0.0
  9
$UCSORTHOREF
  2

  9
$UCSORTHOVIEW
 70
     0
  9
$UCSORGTOP
 10
0.0
 20
0.0
 30
0.0
  9
$UCSORGBOTTOM
 10
0.0
 20
0.0
 30
0.0
  9
$UCSORGLEFT
 10
0.0
 20
0.0
 30
0.0
  9
$UCSORGRIGHT
 10
0.0
 20
0.0
 30
0.0
  9
$UCSORGFRONT
 10
0.0
 20
0.0
 30
0.0
  9
$UCSORGBACK
 10
0.0
 20
0.0
 30
0.0
  9
$PUCSBASE
  2

  9
$PUCSNAME
  2

  9
$PUCSORG
 10
0.0
 20
0.0
 30
0.0
  9
$PUCSXDIR
 10
1.0
 20
0.0
 30
0.0
  9
$PUCSYDIR
 10
0.0
 20
1.0
 30
0.0
  9
$PUCSORTHOREF
  2

  9
$PUCSORTHOVIEW
 70
     0
  9
$PUCSORGTOP
 10
0.0
 20
0.0
 30
0.0
  9
$PUCSORGBOTTOM
 10
0.0
 20
0.0
 30
0.0
  9
$PUCSORGLEFT
 10
0.0
 20
0.0
 30
0.0
  9
$PUCSORGRIGHT
 10
0.0
 20
0.0
 30
0.0
  9
$PUCSORGFRONT
 10
0.0
 20
0.0
 30
0.0
  9
$PUCSORGBACK
 10
0.0
 20
0.0
 30
0.0
  9
$USERI1
 70
     0
  9
$USERI2
 70
     0
  9
$USERI3
 70
     0
  9
$USERI4
 70
     0
  9
$USERI5
 70
     0
  9
$USERR1
 40
0.0
  9
$USERR2
 40
0.0
  9
$USERR3
 40
0.0
  9
$USERR4
 40
0.0
  9
$USERR5
 40
0.0
  9
$WORLDVIEW
 70
     1
  9
$SHADEDGE
 70
     3
  9
$SHADEDIF
 70
    70
  9
$TILEMODE
 70
     1
  9
$MAXACTVP
 70
    64
  9
$PINSBASE
 10
0.0
 20
0.0
 30
0.0
  9
$PLIMCHECK
 70
     0
  9
$PEXTMIN
 10
1.000000000000000E+20
 20
1.000000000000000E+20
 30
1.000000000000000E+20
  9
$PEXTMAX
 10
-1.000000000000000E+20
 20
-1.000000000000000E+20
 30
-1.000000000000000E+20
  9
$PLIMMIN
 10
0.0
 20
0.0
  9
$PLIMMAX
 10
12.0
 20
9.0
  9
$UNITMODE
 70
     0
  9
$VISRETAIN
 70
     1
  9
$PLINEGEN
 70
     0
  9
$PSLTSCALE
 70
     1
  9
$TREEDEPTH
 70
  3020
  9
$CMLSTYLE
  2
Standard
  9
$CMLJUST
 70
     0
  9
$CMLSCALE
 40
1.0
  9
$PROXYGRAPHICS
 70
     1
  9
$MEASUREMENT
 70
     0
  9
$CELWEIGHT
370
    -1
  9
$ENDCAPS
280
     0
  9
$JOINSTYLE
280
     0
  9
$LWDISPLAY
290
     1
  9
$INSUNITS
 70
     1
  9
$HYPERLINKBASE
  1

  9
$STYLESHEET
  1

  9
$XEDIT
290
     1
  9
$CEPSNTYPE
380
     0
  9
$PSTYLEMODE
290
     1
  9
$FINGERPRINTGUID
  2
{89888A10-31A2-4AFD-B4F7-C71FC27ED0D6}
  9
$VERSIONGUID
  2
{FAEB1C32-E019-11D5-929B-00C0DF256EC4}
  9
$EXTNAMES
290
     1
  9
$PSVPSCALE
 40
0.0
  9
$OLESTARTUP
290
     0
  9
$SORTENTS
280
   127
  9
$INDEXCTL
280
     0
  9
$HIDETEXT
280
     1
  9
$XCLIPFRAME
280
     2
  9
$HALOGAP
280
     0
  9
$OBSCOLOR
 70
   257
  9
$OBSLTYPE
280
     0
  9
$INTERSECTIONDISPLAY
280
     0
  9
$INTERSECTIONCOLOR
 70
   257
  9
$DIMASSOC
280
     2
  9
$PROJECTNAME
  1

  9
$CAMERADISPLAY
290
     0
  9
$LENSLENGTH
 40
50.0
  9
$CAMERAHEIGHT
 40
0.0
  9
$STEPSPERSEC
 40
2.0
  9
$STEPSIZE
 40
6.0
  9
$3DDWFPREC
 40
2.0
  9
$PSOLWIDTH
 40
0.25
  9
$PSOLHEIGHT
 40
4.0
  9
$LOFTANG1
 40
1.570796326794897
  9
$LOFTANG2
 40
1.570796326794897
  9
$LOFTMAG1
 40
0.0
  9
$LOFTMAG2
 40
0.0
  9
$LOFTPARAM
 70
     7
  9
$LOFTNORMALS
280
     1
  9
$LATITUDE
 40
37.795
  9
$LONGITUDE
 40
-122.394
  9
$NORTHDIRECTION
 40
0.0
  9
$TIMEZONE
 70
 -8000
  9
$LIGHTGLYPHDISPLAY
280
     1
  9
$TILEMODELIGHTSYNCH
280
     1
  9
$CMATERIAL
347
3C
  9
$SOLIDHIST
280
     1
  9
$SHOWHIST
280
     1
  9
$DWFFRAME
280
     2
  9
$DGNFRAME
280
     2
  9
$REALWORLDSCALE
290
     1
  9
$INTERFERECOLOR
 62
   256
  9
$CSHADOW
280
     0
  9
$SHADOWPLANELOCATION
 40
0.0
  0
ENDSEC
  0
SECTION
  2
CLASSES
  0
CLASS
  1
ACDBDICTIONARYWDFLT
  2
AcDbDictionaryWithDefault
  3
ObjectDBX Classes
 90
        0
 91
        4
280
     0
281
     0
  0
CLASS
  1
VISUALSTYLE
  2
AcDbVisualStyle
  3
ObjectDBX Classes
 90
     4095
 91
        4
280
     0
281
     0
  0
CLASS
  1
MATERIAL
  2
AcDbMaterial
  3
ObjectDBX Classes
 90
     1153
 91
        4
280
     0
281
     0
  0
CLASS
  1
SUN
  2
AcDbSun
  3
SCENEOE
 90
     1024
 91
        4
280
     0
281
     0
  0
ENDSEC
  0
SECTION
  2
TABLES
  0
TABLE
  2
VPORT
  5
8
330
0
100
AcDbSymbolTable
 70
     1
  0
VPORT
  5
29
330
8
100
AcDbSymbolTableRecord
100
AcDbViewportTableRecord
  2
*Active
 70
     0
 10
0.0
 20
0.0
 11
1.0
 21
1.0
 12
0.0
 22
0.0
 13
0.0
 23
0.0
 14
0.5
 24
0.5
 15
0.5
 25
0.5
 16
0.0
 26
0.0
 36
1.0
 17
4.60140952717363
 27
-3.907548047243046
 37
0.0
 40
11.99999999999976
 41
0.9312410637550319
 42
50.0
 43
0.0
 44
0.0
 50
0.0
 51
0.0
 71
     0
 72
   100
 73
     1
 74
     3
 75
     0
 76
     0
 77
     0
 78
     0
281
     0
 65
     1
110
0.0
120
0.0
130
0.0
111
1.0
121
0.0
131
0.0
112
0.0
122
1.0
132
0.0
 79
     0
146
0.0
 60
     3
 61
     5
292
     1
282
     1
141
0.0
142
0.0
 63
   250
361
3F
  0
ENDTAB
  0
TABLE
  2
LTYPE
  5
5
330
0
100
AcDbSymbolTable
 70
     1
  0
LTYPE
  5
14
330
5
100
AcDbSymbolTableRecord
100
AcDbLinetypeTableRecord
  2
ByBlock
 70
     0
  3

 72
    65
 73
     0
 40
0.0
  0
LTYPE
  5
15
330
5
100
AcDbSymbolTableRecord
100
AcDbLinetypeTableRecord
  2
ByLayer
 70
     0
  3

 72
    65
 73
     0
 40
0.0
  0
LTYPE
  5
16
330
5
100
AcDbSymbolTableRecord
100
AcDbLinetypeTableRecord
  2
Continuous
 70
     0
  3
Solid line
 72
    65
 73
     0
 40
0.0
  0
ENDTAB
  0
TABLE
  2
LAYER
  5
2
330
0
100
AcDbSymbolTable
 70
     2
  0
LAYER
  5
10
330
2
100
AcDbSymbolTableRecord
100
AcDbLayerTableRecord
  2
0
 70
     0
 62
     7
  6
Continuous
370
    -3
390
F
347
3E
  0
LAYER
  5
40
330
2
100
AcDbSymbolTableRecord
100
AcDbLayerTableRecord
  2
Layer 1
 70
     0
 62
     7
  6
Continuous
370
    -3
390
F
347
3E
  0
ENDTAB
  0
TABLE
  2
STYLE
  5
3
330
0
100
AcDbSymbolTable
 70
     1
  0
STYLE
  5
11
330
3
100
AcDbSymbolTableRecord
100
AcDbTextStyleTableRecord
  2
Standard
 70
     0
 40
0.0
 41
1.0
 50
0.0
 71
     0
 42
0.2
  3
txt
  4

  0
ENDTAB
  0
TABLE
  2
VIEW
  5
6
330
0
100
AcDbSymbolTable
 70
     0
  0
ENDTAB
  0
TABLE
  2
UCS
  5
7
330
0
100
AcDbSymbolTable
 70
     0
  0
ENDTAB
  0
TABLE
  2
APPID
  5
9
330
0
100
AcDbSymbolTable
 70
     1
  0
APPID
  5
12
330
9
100
AcDbSymbolTableRecord
100
AcDbRegAppTableRecord
  2
ACAD
 70
     0
  0
ENDTAB
  0
TABLE
  2
DIMSTYLE
  5
A
330
0
100
AcDbSymbolTable
 70
     1
100
AcDbDimStyleTable
  0
DIMSTYLE
105
27
330
A
100
AcDbSymbolTableRecord
100
AcDbDimStyleTableRecord
  2
Standard
 70
     0
178
     0
340
11
  0
ENDTAB
  0
TABLE
  2
BLOCK_RECORD
  5
1
330
0
100
AcDbSymbolTable
 70
     1
  0
BLOCK_RECORD
  5
1F
330
1
100
AcDbSymbolTableRecord
100
AcDbBlockTableRecord
  2
*Model_Space
340
22
 70
     0
280
     1
281
     0
  0
BLOCK_RECORD
  5
1B
330
1
100
AcDbSymbolTableRecord
100
AcDbBlockTableRecord
  2
*Paper_Space
340
1E
 70
     0
280
     1
281
     0
  0
BLOCK_RECORD
  5
23
330
1
100
AcDbSymbolTableRecord
100
AcDbBlockTableRecord
  2
*Paper_Space0
340
26
 70
     0
280
     1
281
     0
  0
ENDTAB
  0
ENDSEC
  0
SECTION
  2
BLOCKS
  0
BLOCK
  5
20
330
1F
100
AcDbEntity
  8
0
100
AcDbBlockBegin
  2
*Model_Space
 70
     0
 10
0.0
 20
0.0
 30
0.0
  3
*Model_Space
  1

  0
ENDBLK
  5
21
330
1F
100
AcDbEntity
  8
0
100
AcDbBlockEnd
  0
BLOCK
  5
1C
330
1B
100
AcDbEntity
 67
     1
  8
0
100
AcDbBlockBegin
  2
*Paper_Space
 70
     0
 10
0.0
 20
0.0
 30
0.0
  3
*Paper_Space
  1

  0
ENDBLK
  5
1D
330
1B
100
AcDbEntity
 67
     1
  8
0
100
AcDbBlockEnd
  0
BLOCK
  5
24
330
23
100
AcDbEntity
  8
0
100
AcDbBlockBegin
  2
*Paper_Space0
 70
     0
 10
0.0
 20
0.0
 30
0.0
  3
*Paper_Space0
  1

  0
ENDBLK
  5
25
330
23
100
AcDbEntity
  8
0
100
AcDbBlockEnd
  0
ENDSEC
  0
SECTION
  2
ENTITIES
  0
SPLINE
  5
41
330
1F
100
AcDbEntity
  8
Layer 1
370
     0
100
AcDbSpline
210
0.0
220
0.0
230
1.0
 70
    11
 71
     3
 72
   353
 73
   349
 74
     0
 42
0.0000000001
 43
0.0000000001
 12
1.0
 22
0.0
 32
0.0
 13
1.0
 23
0.0
 33
0.0
 40
0.0
 40
0.0
 40
0.0
 40
0.0
 40
1.0
 40
1.0
 40
1.0
 40
2.0
 40
2.0
 40
2.0
 40
3.0
 40
3.0
 40
3.0
 40
4.0
 40
4.0
 40
4.0
 40
5.0
 40
5.0
 40
5.0
 40
6.0
 40
6.0
 40
6.0
 40
7.0
 40
7.0
 40
7.0
 40
8.0
 40
8.0
 40
8.0
 40
9.0
 40
9.0
 40
9.0
 40
10.0
 40
10.0
 40
10.0
 40
11.0
 40
11.0
 40
11.0
 40
12.0
 40
12.0
 40
12.0
 40
13.0
 40
13.0
 40
13.0
 40
14.0
 40
14.0
 40
14.0
 40
15.0
 40
15.0
 40
15.0
 40
16.0
 40
16.0
 40
16.0
 40
17.0
 40
17.0
 40
17.0
 40
18.0
 40
18.0
 40
18.0
 40
19.0
 40
19.0
 40
19.0
 40
20.0
 40
20.0
 40
20.0
 40
21.0
 40
21.0
 40
21.0
 40
22.0
 40
22.0
 40
22.0
 40
23.0
 40
23.0
 40
23.0
 40
24.0
 40
24.0
 40
24.0
 40
25.0
 40
25.0
 40
25.0
 40
26.0
 40
26.0
 40
26.0
 40
27.0
 40
27.0
 40
27.0
 40
28.0
 40
28.0
 40
28.0
 40
29.0
 40
29.0
 40
29.0
 40
30.0
 40
30.0
 40
30.0
 40
31.0
 40
31.0
 40
31.0
 40
32.0
 40
32.0
 40
32.0
 40
33.0
 40
33.0
 40
33.0
 40
34.0
 40
34.0
 40
34.0
 40
35.0
 40
35.0
 40
35.0
 40
36.0
 40
36.0
 40
36.0
 40
37.0
 40
37.0
 40
37.0
 40
38.0
 40
38.0
 40
38.0
 40
39.0
 40
39.0
 40
39.0
 40
40.0
 40
40.0
 40
40.0
 40
41.0
 40
41.0
 40
41.0
 40
42.0
 40
42.0
 40
42.0
 40
43.0
 40
43.0
 40
43.0
 40
44.0
 40
44.0
 40
44.0
 40
45.0
 40
45.0
 40
45.0
 40
46.0
 40
46.0
 40
46.0
 40
47.0
 40
47.0
 40
47.0
 40
48.0
 40
48.0
 40
48.0
 40
49.0
 40
49.0
 40
49.0
 40
50.0
 40
50.0
 40
50.0
 40
51.0
 40
51.0
 40
51.0
 40
52.0
 40
52.0
 40
52.0
 40
53.0
 40
53.0
 40
53.0
 40
54.0
 40
54.0
 40
54.0
 40
55.0
 40
55.0
 40
55.0
 40
56.0
 40
56.0
 40
56.0
 40
57.0
 40
57.0
 40
57.0
 40
58.0
 40
58.0
 40
58.0
 40
59.0
 40
59.0
 40
59.0
 40
60.0
 40
60.0
 40
60.0
 40
61.0
 40
61.0
 40
61.0
 40
62.0
 40
62.0
 40
62.0
 40
63.0
 40
63.0
 40
63.0
 40
64.0
 40
64.0
 40
64.0
 40
65.0
 40
65.0
 40
65.0
 40
66.0
 40
66.0
 40
66.0
 40
67.0
 40
67.0
 40
67.0
 40
68.0
 40
68.0
 40
68.0
 40
69.0
 40
69.0
 40
69.0
 40
70.0
 40
70.0
 40
70.0
 40
71.0
 40
71.0
 40
71.0
 40
72.0
 40
72.0
 40
72.0
 40
73.0
 40
73.0
 40
73.0
 40
74.0
 40
74.0
 40
74.0
 40
75.0
 40
75.0
 40
75.0
 40
76.0
 40
76.0
 40
76.0
 40
77.0
 40
77.0
 40
77.0
 40
78.0
 40
78.0
 40
78.0
 40
79.0
 40
79.0
 40
79.0
 40
80.0
 40
80.0
 40
80.0
 40
81.0
 40
81.0
 40
81.0
 40
82.0
 40
82.0
 40
82.0
 40
83.0
 40
83.0
 40
83.0
 40
84.0
 40
84.0
 40
84.0
 40
85.0
 40
85.0
 40
85.0
 40
86.0
 40
86.0
 40
86.0
 40
87.0
 40
87.0
 40
87.0
 40
88.0
 40
88.0
 40
88.0
 40
89.0
 40
89.0
 40
89.0
 40
90.0
 40
90.0
 40
90.0
 40
91.0
 40
91.0
 40
91.0
 40
92.0
 40
92.0
 40
92.0
 40
93.0
 40
93.0
 40
93.0
 40
94.0
 40
94.0
 40
94.0
 40
95.0
 40
95.0
 40
95.0
 40
96.0
 40
96.0
 40
96.0
 40
97.0
 40
97.0
 40
97.0
 40
98.0
 40
98.0
 40
98.0
 40
99.0
 40
99.0
 40
99.0
 40
100.0
 40
100.0
 40
100.0
 40
101.0
 40
101.0
 40
101.0
 40
102.0
 40
102.0
 40
102.0
 40
103.0
 40
103.0
 40
103.0
 40
104.0
 40
104.0
 40
104.0
 40
105.0
 40
105.0
 40
105.0
 40
106.0
 40
106.0
 40
106.0
 40
107.0
 40
107.0
 40
107.0
 40
108.0
 40
108.0
 40
108.0
 40
109.0
 40
109.0
 40
109.0
 40
110.0
 40
110.0
 40
110.0
 40
111.0
 40
111.0
 40
111.0
 40
112.0
 40
112.0
 40
112.0
 40
113.0
 40
113.0
 40
113.0
 40
114.0
 40
114.0
 40
114.0
 40
115.0
 40
115.0
 40
115.0
 40
116.0
 40
116.0
 40
116.0
 40
116.0
 10
7.899340614989342
 20
-9.90259124430708
 30
0.0
 10
8.00631933557477
 20
-9.891538521400635
 30
0.0
 10
8.20298023537129
 20
-9.823127983833198
 30
0.0
 10
8.347654557337592
 20
-9.782213518337862
 30
0.0
 10
8.413330998632294
 20
-9.763637187558464
 30
0.0
 10
8.487636319872712
 20
-9.736606493292836
 30
0.0
 10
8.443309084915603
 20
-9.689331864440899
 30
0.0
 10
8.422153785992526
 20
-9.66679982230567
 30
0.0
 10
8.395976285033612
 20
-9.649968658300951
 30
0.0
 10
8.369275234055497
 20
-9.634397892522479
 30
0.0
 10
8.221323876784002
 20
-9.548244826079047
 30
0.0
 10
8.099200987125288
 20
-9.49730534700024
 30
0.0
 10
7.906088593014273
 20
-9.425113614754283
 30
0.0
 10
7.919817237961625
 20
-9.396046892584788
 30
0.0
 10
7.981983955053693
 20
-9.296475432718276
 30
0.0
 10
7.990244410911853
 20
-9.281370044746431
 30
0.0
 10
8.011554835766548
 20
-9.242375262703236
 30
0.0
 10
8.030596543871473
 20
-9.200607604562542
 30
0.0
 10
8.05528095773866
 20
-9.16359067819725
 30
0.0
 10
8.113414400608892
 20
-9.076448683914931
 30
0.0
 10
8.183279242057045
 20
-8.99556989927934
 30
0.0
 10
8.271836758263968
 20
-8.93823147536015
 30
0.0
 10
8.317017185844936
 20
-8.908990236513368
 30
0.0
 10
8.34278748123337
 20
-8.882832125635105
 30
0.0
 10
8.333499316078308
 20
-8.855743259143537
 30
0.0
 10
8.32405602499168
 20
-8.8282084055875
 30
0.0
 10
8.24298333498483
 20
-8.8301668705236
 30
0.0
 10
8.19153969791518
 20
-8.833715376298743
 30
0.0
 10
8.05369091693966
 20
-8.843255621333558
 30
0.0
 10
7.793001788871758
 20
-8.899837806317286
 30
0.0
 10
7.599908785502217
 20
-8.995938323376246
 30
0.0
 10
7.394173018706574
 20
-9.098321440824241
 30
0.0
 10
7.299275262660406
 20
-9.227754643279669
 30
0.0
 10
7.219404266008269
 20
-9.41406089184799
 30
0.0
 10
7.219404266008269
 20
-9.41406089184799
 30
0.0
 10
7.130226246074876
 20
-9.44913874401896
 30
0.0
 10
7.099976689411252
 20
-9.459318883538065
 30
0.0
 10
7.064782493677588
 20
-9.471166626863956
 30
0.0
 10
7.015607573357733
 20
-9.47721653834939
 30
0.0
 10
6.984951335798591
 20
-9.451775884922982
 30
0.0
 10
6.95396440628484
 20
-9.426024979625405
 30
0.0
 10
6.94147676879038
 20
-9.367969098254358
 30
0.0
 10
6.949795396872863
 20
-9.28827314887725
 30
0.0
 10
6.95187020620814
 20
-9.268009823549113
 30
0.0
 10
6.964900784463225
 20
-9.205009302983019
 30
0.0
 10
6.975333003363907
 20
-9.154360685033401
 30
0.0
 10
6.975333003363907
 20
-9.154360685033401
 30
0.0
 10
6.977562938630777
 20
-9.143540651030358
 30
0.0
 10
6.977562938630777
 20
-9.143540651030358
 30
0.0
 10
7.635839829410997
 20
-8.882599436731702
 30
0.0
 10
8.235072468728301
 20
-8.508009083917488
 30
0.0
 10
8.75899035573871
 20
-8.029852778396792
 30
0.0
 10
8.81072485393012
 20
-7.982655712512572
 30
0.0
 10
8.819024091271153
 20
-7.904065035426028
 30
0.0
 10
8.778207150493017
 20
-7.847036863377828
 30
0.0
 10
8.73736967902078
 20
-7.790028082071608
 30
0.0
 10
8.660465998425934
 20
-7.772363116163509
 30
0.0
 10
8.599036694959093
 20
-7.806316305302111
 30
0.0
 10
8.156733871287138
 20
-8.04928230182155
 30
0.0
 10
7.683696179312189
 20
-8.223256038515197
 30
0.0
 10
7.192432274566171
 20
-8.323583737317524
 30
0.0
 10
7.144943818836256
 20
-8.238652287616357
 30
0.0
 10
7.042677048423406
 20
-8.186626926988993
 30
0.0
 10
6.937462885309994
 20
-8.19754391470158
 30
0.0
 10
6.797946500569701
 20
-8.211912454479918
 30
0.0
 10
6.699344580291128
 20
-8.297755269052207
 30
0.0
 10
6.628994970306697
 20
-8.37099410136299
 30
0.0
 10
6.617244180987377
 20
-8.38324905026957
 30
0.0
 10
6.605764862048343
 20
-8.395659125111807
 30
0.0
 10
6.594421793108823
 20
-8.408166153663766
 30
0.0
 10
6.344241932098056
 20
-8.428371306766142
 30
0.0
 10
6.091018239488776
 20
-8.429941956863356
 30
0.0
 10
5.8409358469946
 20
-8.412916885439193
 30
0.0
 10
5.8409358469946
 20
-8.412916885439193
 30
0.0
 10
5.821119004505627
 20
-8.38369503733424
 30
0.0
 10
5.821119004505627
 20
-8.38369503733424
 30
0.0
 10
5.755073643849363
 20
-8.285965697952102
 30
0.0
 10
5.672856900096904
 20
-8.16430818301501
 30
0.0
 10
5.628878698485929
 20
-8.120775967357632
 30
0.0
 10
5.544393726267054
 20
-8.037201869592257
 30
0.0
 10
5.436716936269224
 20
-7.993126713160664
 30
0.0
 10
5.308893165394793
 20
-7.989869068514533
 30
0.0
 10
5.141027512412367
 20
-7.985331634900376
 30
0.0
 10
4.978843346818646
 20
-8.037473339979442
 30
0.0
 10
4.808805930739013
 20
-8.148427165365394
 30
0.0
 10
4.780165804892223
 20
-8.167061668370554
 30
0.0
 10
4.751913493884317
 20
-8.18616154918234
 30
0.0
 10
4.723816308811908
 20
-8.205513509639356
 30
0.0
 10
4.173797913658366
 20
-8.039005208592874
 30
0.0
 10
3.662910035741346
 20
-7.784501720618563
 30
0.0
 10
3.204241425871335
 20
-7.448479553524698
 30
0.0
 10
3.359987865140713
 20
-7.285151334156429
 30
0.0
 10
3.547864763806071
 20
-7.141737406761548
 30
0.0
 10
3.793816934584445
 20
-6.998323479366667
 30
0.0
 10
4.147387723134872
 20
-6.792103433083689
 30
0.0
 10
4.445326473056853
 20
-6.594686294370553
 30
0.0
 10
4.704658255774348
 20
-6.394806531493132
 30
0.0
 10
5.145022005252157
 20
-6.055468556099741
 30
0.0
 10
5.405265152841139
 20
-5.590032589050211
 30
0.0
 10
5.582748613826134
 20
-5.19738946540791
 30
0.0
 10
5.595624066474834
 20
-5.286431750151122
 30
0.0
 10
5.612202660838029
 20
-5.376288446035283
 30
0.0
 10
5.641385726721851
 20
-5.46341104737486
 30
0.0
 10
5.756857592062854
 20
-5.808314165564676
 30
0.0
 10
6.013300147752981
 20
-6.223062734461185
 30
0.0
 10
6.579238327743319
 20
-6.24022354064535
 30
0.0
 10
6.759165017667605
 20
-6.245672338993093
 30
0.0
 10
6.995712672628946
 20
-6.258586572799508
 30
0.0
 10
7.230011001581993
 20
-6.310262898766545
 30
0.0
 10
7.275307773611631
 20
-6.320287912096748
 30
0.0
 10
7.321671036421119
 20
-6.319182639834025
 30
0.0
 10
7.361073023049634
 20
-6.316913923084257
 30
0.0
 10
7.452830011596006
 20
-6.311503906219412
 30
0.0
 10
7.534930410899758
 20
-6.269096354665963
 30
0.0
 10
7.586335266486483
 20
-6.200608255860869
 30
0.0
 10
7.637119618346787
 20
-6.132915177455238
 30
0.0
 10
7.654125840179075
 20
-6.047557133587715
 30
0.0
 10
7.634191616387675
 20
-5.960181937334747
 30
0.0
 10
7.632582184847251
 20
-5.952988487530951
 30
0.0
 10
7.631593257033223
 20
-5.947752987339173
 30
0.0
 10
7.630972753306802
 20
-5.943874839048956
 30
0.0
 10
7.633357814505264
 20
-5.943622759410093
 30
0.0
 10
7.636343988688723
 20
-5.9434676334785
 30
0.0
 10
7.63993127585718
 20
-5.943390070512678
 30
0.0
 10
7.887046884909371
 20
-5.936777827677878
 30
0.0
 10
8.178101914089615
 20
-5.939996690758751
 30
0.0
 10
8.461284302240731
 20
-6.014592873120945
 30
0.0
 10
8.461284302240731
 20
-6.014592873120945
 30
0.0
 10
8.506057524251219
 20
-6.026382443923189
 30
0.0
 10
8.506057524251219
 20
-6.026382443923189
 30
0.0
 10
8.73411203445701
 20
-6.086532523904325
 30
0.0
 10
8.969961622726107
 20
-6.148718631737867
 30
0.0
 10
9.20364002867647
 20
-6.203535748692906
 30
0.0
 10
9.464793953815462
 20
-6.264810493226276
 30
0.0
 10
9.679973011697761
 20
-6.241541602897238
 30
0.0
 10
9.86166425909409
 20
-6.132953448028098
 30
0.0
 10
10.04002029896083
 20
-6.026382443923189
 30
0.0
 10
10.157217940291
 20
-5.861987737901182
 30
0.0
 10
10.18326031153073
 20
-5.681905922045289
 30
0.0
 10
10.20846827605391
 20
-5.507602020433978
 30
0.0
 10
10.1481818547748
 20
-5.3356454519539
 30
0.0
 10
10.00895633115627
 20
-5.184610966791675
 30
0.0
 10
9.913902916563226
 20
-5.08151039449644
 30
0.0
 10
9.795735738160525
 20
-5.012576308637954
 30
0.0
 10
9.692480633006527
 20
-4.956052297308146
 30
0.0
 10
9.527542393151053
 20
-4.865788395853516
 30
0.0
 10
9.409258870299658
 20
-4.767108912609122
 30
0.0
 10
9.320197194814984
 20
-4.645470791486686
 30
0.0
 10
9.219229604079374
 20
-4.507641401252625
 30
0.0
 10
9.092588671662572
 20
-4.414739804644897
 30
0.0
 10
8.943687168059947
 20
-4.369346633223737
 30
0.0
 10
9.06284327427665
 20
-4.207336988400217
 30
0.0
 10
9.133464354641369
 20
-4.021573685299169
 30
0.0
 10
9.20181671825632
 20
-3.841782730565026
 30
0.0
 10
9.20181671825632
 20
-3.841782730565026
 30
0.0
 10
9.22481413761726
 20
-3.78149691539372
 30
0.0
 10
9.22481413761726
 20
-3.78149691539372
 30
0.0
 10
9.280833989669341
 20
-3.635659148940375
 30
0.0
 10
9.351416288551162
 20
-3.492923901119196
 30
0.0
 10
9.419691089200315
 20
-3.354881212729171
 30
0.0
 10
9.456203855352642
 20
-3.281021878542131
 30
0.0
 10
9.49271662150497
 20
-3.207181935096539
 30
0.0
 10
9.527367876478012
 20
-3.132469408285639
 30
0.0
 10
9.588681400946218
 20
-3.000321505296736
 30
0.0
 10
9.599482043934433
 20
-2.879439623090889
 30
0.0
 10
9.559440162838047
 20
-2.773178359939139
 30
0.0
 10
9.51871960579082
 20
-2.665036194866641
 30
0.0
 10
9.428242406180237
 20
-2.579387289877357
 30
0.0
 10
9.290529360394885
 20
-2.518539143203952
 30
0.0
 10
9.113491890946786
 20
-2.440394455156226
 30
0.0
 10
8.924257645125989
 20
-2.412180926344945
 30
0.0
 10
8.727557963846568
 20
-2.434965047549932
 30
0.0
 10
8.709563924022177
 20
-2.437020466143748
 30
0.0
 10
8.691122760660011
 20
-2.439172838444809
 30
0.0
 10
8.679643441721003
 20
-2.439580044015277
 30
0.0
 10
8.678615732424102
 20
-2.428895745475756
 30
0.0
 10
8.678092182404928
 20
-2.41126956149675
 30
0.0
 10
8.677510460161404
 20
-2.390327560729626
 30
0.0
 10
8.667892652401658
 20
-2.071543771274365
 30
0.0
 10
8.561786515181513
 20
-1.831544564334712
 30
0.0
 10
8.353122746426783
 20
-1.656581904221891
 30
0.0
 10
8.240404366371825
 20
-1.562110211872386
 30
0.0
 10
8.107345098534728
 20
-1.499478116985503
 30
0.0
 10
7.946382553749572
 20
-1.465234067582944
 30
0.0
 10
7.735469458986497
 20
-1.420266938157965
 30
0.0
 10
7.558238082123908
 20
-1.341715044539759
 30
0.0
 10
7.404488893158536
 20
-1.225060343970249
 30
0.0
 10
7.288183225935123
 20
-1.136851861109411
 30
0.0
 10
7.150838604237353
 20
-1.084690766606097
 30
0.0
 10
7.007269554533801
 20
-1.074296690485918
 30
0.0
 10
6.789899342867506
 20
-1.05812545081815
 30
0.0
 10
6.599094446989207
 20
-1.146372715161887
 30
0.0
 10
6.441408937509246
 20
-1.335859040621547
 30
0.0
 10
6.437744598226345
 20
-1.340280129672376
 30
0.0
 10
6.434602787259943
 20
-1.343867416840819
 30
0.0
 10
6.431868692715347
 20
-1.346795418799931
 30
0.0
 10
6.430142916726203
 20
-1.343091787182781
 30
0.0
 10
6.428165061098197
 20
-1.338592503140275
 30
0.0
 10
6.425857562865531
 20
-1.3331443368184
 30
0.0
 10
6.381472155684049
 20
-1.228317988534021
 30
0.0
 10
6.331463433481808
 20
-1.117829543745933
 30
0.0
 10
6.273039129489789
 20
-0.995338229999662
 30
0.0
 10
6.214905686619558
 20
-0.8733510755311045
 30
0.0
 10
6.139049106063036
 20
-0.7724804385027507
 30
0.0
 10
6.047621760121324
 20
-0.6955379764249806
 30
0.0
 10
5.849681071389025
 20
-0.5288163814288585
 30
0.0
 10
5.606559955075769
 20
-0.5427195430492652
 30
0.0
 10
5.428340135750747
 20
-0.7305188740026803
 30
0.0
 10
5.3746665620584
 20
-0.7871198023410417
 30
0.0
 10
5.332162055723857
 20
-0.8539603340800568
 30
0.0
 10
5.298014959166001
 20
-0.9076726878994602
 30
0.0
 10
5.239668216665791
 20
-0.9993908949629207
 30
0.0
 10
5.19681467697631
 20
-1.098593928226491
 30
0.0
 10
5.155337879964779
 20
-1.194558707667738
 30
0.0
 10
5.129315504280182
 20
-1.254883304321955
 30
0.0
 10
5.102362372982308
 20
-1.317224538087076
 30
0.0
 10
5.072170987780269
 20
-1.376094829132474
 30
0.0
 10
4.911111485219104
 20
-1.69016666841512
 30
0.0
 10
4.795465100283675
 20
-1.992235638739569
 30
0.0
 10
4.718697152939563
 20
-2.299384983324191
 30
0.0
 10
4.496207779909696
 20
-2.088530060785489
 30
0.0
 10
4.239261058450817
 20
-1.985604005163307
 30
0.0
 10
3.958851539243432
 20
-1.995221812923028
 30
0.0
 10
3.784451206226915
 20
-1.990471081267515
 30
0.0
 10
3.534911748189453
 20
-2.009978167167282
 30
0.0
 10
3.372184641821516
 20
-2.228317915906094
 30
0.0
 10
3.292159049831449
 20
-2.335606888354758
 30
0.0
 10
3.196271830933559
 20
-2.404676709403399
 30
0.0
 10
3.070406524995241
 20
-2.445552392382208
 30
0.0
 10
2.988849064391742
 20
-2.472137098911591
 30
0.0
 10
2.906419020401068
 20
-2.508804990995536
 30
0.0
 10
2.811035960793788
 20
-2.561082429947558
 30
0.0
 10
2.708129293313378
 20
-2.617354361638503
 30
0.0
 10
2.631245001517729
 20
-2.703042048110698
 30
0.0
 10
2.575923214760249
 20
-2.822935002502542
 30
0.0
 10
2.514105529452662
 20
-2.956711727773331
 30
0.0
 10
2.537296856813971
 20
-3.090546037500821
 30
0.0
 10
2.568166917983894
 20
-3.203807946084048
 30
0.0
 10
2.642161989230494
 20
-3.475394670847448
 30
0.0
 10
2.643441778198545
 20
-3.690534947246836
 30
0.0
 10
2.572238973791614
 20
-3.901389869785564
 30
0.0
 10
2.495703715350904
 20
-4.128048246606871
 30
0.0
 10
2.576912142599301
 20
-4.352147045556649
 30
0.0
 10
2.795096770918399
 20
-4.516192718232534
 30
0.0
 10
3.033602896791396
 20
-4.695557076654747
 30
0.0
 10
3.308699352706981
 20
-4.777754429665745
 30
0.0
 10
3.63589873221771
 20
-4.766565971848498
 30
0.0
 10
3.815107969235593
 20
-4.760574232740105
 30
0.0
 10
3.993425232124145
 20
-4.734551857712808
 30
0.0
 10
4.16582831872059
 20
-4.709382675309345
 30
0.0
 10
4.240695973354528
 20
-4.698446297130949
 30
0.0
 10
4.315544237246311
 20
-4.687509918952552
 30
0.0
 10
4.390625190041495
 20
-4.678163581573155
 30
0.0
 10
4.439683767151918
 20
-4.672094279498979
 30
0.0
 10
4.457872283092595
 20
-4.682894922487208
 30
0.0
 10
4.491573392585792
 20
-4.720803822024006
 30
0.0
 10
4.758331829466871
 20
-5.020914327461898
 30
0.0
 10
5.044442226804777
 20
-5.147186835791141
 30
0.0
 10
5.364137389184356
 20
-5.105186489808172
 30
0.0
 10
5.329776994465065
 20
-5.183582722601638
 30
0.0
 10
5.286981627001524
 20
-5.259206616171038
 30
0.0
 10
5.245272141086755
 20
-5.332872575926394
 30
0.0
 10
5.245272141086755
 20
-5.332872575926394
 30
0.0
 10
5.216321763368986
 20
-5.384238650030221
 30
0.0
 10
5.216321763368986
 20
-5.384238650030221
 30
0.0
 10
5.066101685552844
 20
-5.652897372834508
 30
0.0
 10
4.89044095431009
 20
-5.931135121915632
 30
0.0
 10
4.624632663784281
 20
-6.146159053866313
 30
0.0
 10
4.428708607213391
 20
-6.304620193004287
 30
0.0
 10
4.202864635827672
 20
-6.462538391381637
 30
0.0
 10
3.934128343268854
 20
-6.628852780807291
 30
0.0
 10
3.877895191640252
 20
-6.663717333936271
 30
0.0
 10
3.821099708495277
 20
-6.697670522217069
 30
0.0
 10
3.764323616092282
 20
-6.731662491980765
 30
0.0
 10
3.588372023720543
 20
-6.837031287902264
 30
0.0
 10
3.406389910605323
 20
-6.945988357239204
 30
0.0
 10
3.242770830107891
 20
-7.079570688099036
 30
0.0
 10
3.169338090377664
 20
-7.139507471438239
 30
0.0
 10
3.085414959257529
 20
-7.211505296264956
 30
0.0
 10
3.008608230429622
 20
-7.29771653493415
 30
0.0
 10
1.689417274706203
 20
-6.227018445717198
 30
0.0
 10
1.01859455726075
 20
-4.567752699750877
 30
0.0
 10
1.213064308186113
 20
-2.850682559691854
 30
0.0
 10
1.512088939656691
 20
-0.2128830309669006
 30
0.0
 10
3.736265212503831
 20
1.701294110934694
 30
0.0
 10
6.385757509544747
 20
1.603350767045653
 30
0.0
 10
6.455641741734325
 20
1.599356274306741
 30
0.0
 10
6.516741968046567
 20
1.651342852137001
 30
0.0
 10
6.527503829551935
 20
1.720315719478385
 30
0.0
 10
6.538285081798701
 20
1.789618229424428
 30
0.0
 10
6.49548971541622
 20
1.85612847260154
 30
0.0
 10
6.427912981459333
 20
1.874976273291951
 30
0.0
 10
6.136276230035542
 20
1.956339824420562
 30
0.0
 10
5.834905326403335
 20
2.015384632139002
 30
0.0
 10
5.532293903295971
 20
2.050521373290406
 30
0.0
 10
3.960906957889266
 20
2.235275640193903
 30
0.0
 10
2.425955216589323
 20
1.805460465189943
 30
0.0
 10
1.211222187701714
 20
0.8406935150344199
 30
0.0
 10
-0.0063612802513262
 20
-0.1263809333537817
 30
0.0
 10
-0.7735172036593414
 20
-1.521932595585819
 30
0.0
 10
-0.9489646367404828
 20
-3.08893719372803
 30
0.0
 10
-1.12256994933739
 20
-4.639168800515095
 30
0.0
 10
-0.6825940146983005
 20
-6.160682209003602
 30
0.0
 10
0.2899680380894678
 20
-7.373185302568067
 30
0.0
 10
0.7934680433268744
 20
-8.00084422845306
 30
0.0
 10
1.405362296013954
 20
-8.507252844981672
 30
0.0
 10
2.108858413629782
 20
-8.878527380924146
 30
0.0
 10
2.173759226906037
 20
-9.516793042650761
 30
0.0
 10
2.432063300300709
 20
-9.800964365794723
 30
0.0
 10
2.921311110211642
 20
-9.771587391754261
 30
0.0
 10
3.210931231840909
 20
-9.754387803652635
 30
0.0
 10
3.466714508783449
 20
-9.645915993235223
 30
0.0
 10
3.702525321526675
 20
-9.44021900272628
 30
0.0
 10
3.865310600120551
 20
-9.47215555470282
 30
0.0
 10
4.028522475037095
 20
-9.49730534700024
 30
0.0
 10
4.187856201565561
 20
-9.515086657360042
 30
0.0
 10
4.649956972759179
 20
-9.567616177277841
 30
0.0
 10
5.121850068632827
 20
-9.564145234470464
 30
0.0
 10
5.586917623343399
 20
-9.50384002703433
 30
0.0
 10
5.588042286375955
 20
-9.506263869776905
 30
0.0
 10
5.589186340150491
 20
-9.50870710326146
 30
0.0
 10
5.590466129118529
 20
-9.511092164520251
 30
0.0
 10
5.627094750272426
 20
-9.580317113249267
 30
0.0
 10
5.690463693334461
 20
-9.617159522936895
 30
0.0
 10
5.784858317076163
 20
-9.620455949066809
 30
0.0
 10
5.883673041152721
 20
-9.610062511386634
 30
0.0
 10
5.964939638574062
 20
-9.575702116667344
 30
0.0
 10
6.033311392930449
 20
-9.515416299972987
 30
0.0
 10
6.06836985347397
 20
-9.484565629545058
 30
0.0
 10
6.103079280671358
 20
-9.448886664373756
 30
0.0
 10
6.141841876208218
 20
-9.403861361587081
 30
0.0
 10
6.325103270285858
 20
-9.361589544155777
 30
0.0
 10
6.50821004180812
 20
-9.309855044657574
 30
0.0
 10
6.687089631694056
 20
-9.24999582428591
 30
0.0
 10
6.687089631694056
 20
-9.24999582428591
 30
0.0
 10
6.680244699961829
 20
-9.294962954847
 30
0.0
 10
6.680244699961829
 20
-9.294962954847
 30
0.0
 10
6.668688334742405
 20
-9.545006572174872
 30
0.0
 10
6.768239884666703
 20
-9.709498236059465
 30
0.0
 10
6.960615430602552
 20
-9.75816899833118
 30
0.0
 10
7.079306159024427
 20
-9.788205257597534
 30
0.0
 10
7.189794603812516
 20
-9.75471744626576
 30
0.0
 10
7.285371568424731
 20
-9.710603508350054
 30
0.0
 10
7.305092485242817
 20
-9.752409947974709
 30
0.0
 10
7.440846533379246
 20
-9.829992306480234
 30
0.0
 10
7.455059946862876
 20
-9.837128099514453
 30
0.0
 10
7.581778442245498
 20
-9.900807296048443
 30
0.0
 10
7.758272970932921
 20
-9.917173082246512
 30
0.0
 10
7.899340614989342
 20
-9.90259124430708
 30
0.0
  0
SPLINE
  5
42
330
1F
100
AcDbEntity
  8
Layer 1
370
     0
100
AcDbSpline
210
0.0
220
0.0
230
1.0
 70
    11
 71
     3
 72
    59
 73
    55
 74
     0
 42
0.0000000001
 43
0.0000000001
 12
1.0
 22
0.0
 32
0.0
 13
1.0
 23
0.0
 33
0.0
 40
0.0
 40
0.0
 40
0.0
 40
0.0
 40
1.0
 40
1.0
 40
1.0
 40
2.0
 40
2.0
 40
2.0
 40
3.0
 40
3.0
 40
3.0
 40
4.0
 40
4.0
 40
4.0
 40
5.0
 40
5.0
 40
5.0
 40
6.0
 40
6.0
 40
6.0
 40
7.0
 40
7.0
 40
7.0
 40
8.0
 40
8.0
 40
8.0
 40
9.0
 40
9.0
 40
9.0
 40
10.0
 40
10.0
 40
10.0
 40
11.0
 40
11.0
 40
11.0
 40
12.0
 40
12.0
 40
12.0
 40
13.0
 40
13.0
 40
13.0
 40
14.0
 40
14.0
 40
14.0
 40
15.0
 40
15.0
 40
15.0
 40
16.0
 40
16.0
 40
16.0
 40
17.0
 40
17.0
 40
17.0
 40
18.0
 40
18.0
 40
18.0
 40
18.0
 10
2.807972223567099
 20
-3.96167568495687
 30
0.0
 10
2.900349718173465
 20
-3.710701318355935
 30
0.0
 10
2.900020075560506
 20
-3.455499770118674
 30
0.0
 10
2.806905732760305
 20
-3.158549955537296
 30
0.0
 10
2.794030280111605
 20
-3.117538537368331
 30
0.0
 10
2.790481774336475
 20
-3.07119466530033
 30
0.0
 10
2.787670116755003
 20
-3.023338315399137
 30
0.0
 10
2.781949847882326
 20
-2.923883202496704
 30
0.0
 10
2.82179782257088
 20
-2.847270383023594
 30
0.0
 10
2.909424585401818
 20
-2.789098158670451
 30
0.0
 10
2.98343904739022
 20
-2.740000801316392
 30
0.0
 10
3.064841382058237
 20
-2.708936236103745
 30
0.0
 10
3.151052620727442
 20
-2.676050136010834
 30
0.0
 10
3.151052620727442
 20
-2.676050136010834
 30
0.0
 10
3.211493563357269
 20
-2.65270308447513
 30
0.0
 10
3.211493563357269
 20
-2.65270308447513
 30
0.0
 10
3.359735785495495
 20
-2.594163034863047
 30
0.0
 10
3.461091193620493
 20
-2.519043302481678
 30
0.0
 10
3.530490659026984
 20
-2.416272372791127
 30
0.0
 10
3.603845835789469
 20
-2.307509703992183
 30
0.0
 10
3.710863340561193
 20
-2.251528633422999
 30
0.0
 10
3.867210892830713
 20
-2.240068095972826
 30
0.0
 10
3.895734674225814
 20
-2.237955114407264
 30
0.0
 10
3.92361856113679
 20
-2.236927405110363
 30
0.0
 10
3.950998288757344
 20
-2.236927405110363
 30
0.0
 10
4.197551572535872
 20
-2.236927405110363
 30
0.0
 10
4.400824720302416
 20
-2.321994587856125
 30
0.0
 10
4.570261023382058
 20
-2.495522333101563
 30
0.0
 10
4.62017279313784
 20
-2.546675109049425
 30
0.0
 10
4.651605185824135
 20
-2.593503749653716
 30
0.0
 10
4.642743616757027
 20
-2.655631685262885
 30
0.0
 10
4.592734893291524
 20
-3.006138727732049
 30
0.0
 10
4.671907292636231
 20
-3.361551627788331
 30
0.0
 10
4.884701294695611
 20
-3.742191882472449
 30
0.0
 10
5.006126120729656
 20
-3.959310014499844
 30
0.0
 10
5.146010933091209
 20
-4.186104126511319
 30
0.0
 10
5.34602643621161
 20
-4.375629233453878
 30
0.0
 10
5.288552277098739
 20
-4.379836469151213
 30
0.0
 10
5.231000555018138
 20
-4.382687463342058
 30
0.0
 10
5.173448832937525
 20
-4.385479730111014
 30
0.0
 10
5.173448832937525
 20
-4.385479730111014
 30
0.0
 10
5.109304258597072
 20
-4.388795546899145
 30
0.0
 10
5.109304258597072
 20
-4.388795546899145
 30
0.0
 10
4.699170675805084
 20
-4.390889192057481
 30
0.0
 10
4.29107312091695
 20
-4.442662473039844
 30
0.0
 10
3.91115031406879
 20
-4.498275673131767
 30
0.0
 10
3.648968092285852
 20
-4.536649950463394
 30
0.0
 10
3.36995470649822
 20
-4.553888319613381
 30
0.0
 10
3.10552315865017
 20
-4.421371992536907
 30
0.0
 10
3.047758138408312
 20
-4.392421615550486
 30
0.0
 10
2.98702633464931
 20
-4.359457355083704
 30
0.0
 10
2.934341688796015
 20
-4.314897431229193
 30
0.0
 10
2.804598234469431
 20
-4.205107053133348
 30
0.0
 10
2.762093728134889
 20
-4.086299980262766
 30
0.0
 10
2.807972223567099
 20
-3.96167568495687
 30
0.0
  0
SPLINE
  5
43
330
1F
100
AcDbEntity
  8
Layer 1
370
     0
100
AcDbSpline
210
0.0
220
0.0
230
1.0
 70
    11
 71
     3
 72
    53
 73
    49
 74
     0
 42
0.0000000001
 43
0.0000000001
 12
1.0
 22
0.0
 32
0.0
 13
1.0
 23
0.0
 33
0.0
 40
0.0
 40
0.0
 40
0.0
 40
0.0
 40
1.0
 40
1.0
 40
1.0
 40
2.0
 40
2.0
 40
2.0
 40
3.0
 40
3.0
 40
3.0
 40
4.0
 40
4.0
 40
4.0
 40
5.0
 40
5.0
 40
5.0
 40
6.0
 40
6.0
 40
6.0
 40
7.0
 40
7.0
 40
7.0
 40
8.0
 40
8.0
 40
8.0
 40
9.0
 40
9.0
 40
9.0
 40
10.0
 40
10.0
 40
10.0
 40
11.0
 40
11.0
 40
11.0
 40
12.0
 40
12.0
 40
12.0
 40
13.0
 40
13.0
 40
13.0
 40
14.0
 40
14.0
 40
14.0
 40
15.0
 40
15.0
 40
15.0
 40
16.0
 40
16.0
 40
16.0
 40
16.0
 10
5.278372137579809
 20
-1.513517013796053
 30
0.0
 10
5.31050259697598
 20
-1.451058806397491
 30
0.0
 10
5.338270139435255
 20
-1.386158623945562
 30
0.0
 10
5.365126317023408
 20
-1.32341018460996
 30
0.0
 10
5.401057361839914
 20
-1.239487055609819
 30
0.0
 10
5.438190632656718
 20
-1.152732878357837
 30
0.0
 10
5.485232572605266
 20
-1.073851342134958
 30
0.0
 10
5.526147038100614
 20
-1.005324461846941
 30
0.0
 10
5.560972810626544
 20
-0.9488385901283006
 30
0.0
 10
5.605978722671416
 20
-0.8980548801397515
 30
0.0
 10
5.680283554072654
 20
-0.8140154066908911
 30
0.0
 10
5.779874402165256
 20
-0.8034668433415137
 30
0.0
 10
5.872368238886755
 20
-0.8697243630093554
 30
0.0
 10
5.931684516985519
 20
-0.9122876843648049
 30
0.0
 10
5.974964651904265
 20
-0.9596974056151263
 30
0.0
 10
6.001006417673024
 20
-1.01063752500454
 30
0.0
 10
6.159254258655033
 20
-1.320307665977806
 30
0.0
 10
6.299565663794813
 20
-1.601066211447548
 30
0.0
 10
6.413602614268458
 20
-1.900788902056421
 30
0.0
 10
6.47939540001188
 20
-2.073773706541235
 30
0.0
 10
6.489885791136885
 20
-2.256938041461492
 30
0.0
 10
6.491456953402626
 20
-2.410998091116438
 30
0.0
 10
6.471891183070309
 20
-2.847638807111176
 30
0.0
 10
6.378738061139453
 20
-3.277143730251914
 30
0.0
 10
6.214498481049077
 20
-3.687645726770648
 30
0.0
 10
6.20096374351624
 20
-3.721560133568523
 30
0.0
 10
6.178974642710752
 20
-3.752119942095381
 30
0.0
 10
6.145351097034614
 20
-3.783862585850746
 30
0.0
 10
5.986153109721512
 20
-3.934199004320741
 30
0.0
 10
5.805741651260948
 20
-4.104527277226755
 30
0.0
 10
5.737835274699377
 20
-4.357052903143767
 30
0.0
 10
5.734868491257367
 20
-4.355617988276397
 30
0.0
 10
5.731804754108098
 20
-4.354086119701757
 30
0.0
 10
5.728954315114795
 20
-4.352689430434061
 30
0.0
 10
5.621200455094948
 20
-4.299346056585439
 30
0.0
 10
5.52329659903536
 20
-4.219553155514379
 30
0.0
 10
5.429658706202745
 20
-4.108793240345979
 30
0.0
 10
5.196892239944228
 20
-3.833405361256584
 30
0.0
 10
5.035134670673187
 20
-3.551949318096199
 30
0.0
 10
4.935194786709745
 20
-3.248484214387266
 30
0.0
 10
4.866803639884109
 20
-3.040673638256369
 30
0.0
 10
4.854723207655007
 20
-2.820898974650175
 30
0.0
 10
4.899263741893226
 20
-2.595326479350105
 30
0.0
 10
4.899263741893226
 20
-2.595326479350105
 30
0.0
 10
4.899263741893226
 20
-2.595365260833015
 30
0.0
 10
4.899263741893226
 20
-2.595365260833015
 30
0.0
 10
4.972793435333188
 20
-2.223198150484146
 30
0.0
 10
5.100345735820421
 20
-1.859195761643921
 30
0.0
 10
5.278372137579809
 20
-1.513517013796053
 30
0.0
  0
SPLINE
  5
44
330
1F
100
AcDbEntity
  8
Layer 1
370
     0
100
AcDbSpline
210
0.0
220
0.0
230
1.0
 70
    11
 71
     3
 72
    44
 73
    40
 74
     0
 42
0.0000000001
 43
0.0000000001
 12
1.0
 22
0.0
 32
0.0
 13
1.0
 23
0.0
 33
0.0
 40
0.0
 40
0.0
 40
0.0
 40
0.0
 40
1.0
 40
1.0
 40
1.0
 40
2.0
 40
2.0
 40
2.0
 40
3.0
 40
3.0
 40
3.0
 40
4.0
 40
4.0
 40
4.0
 40
5.0
 40
5.0
 40
5.0
 40
6.0
 40
6.0
 40
6.0
 40
7.0
 40
7.0
 40
7.0
 40
8.0
 40
8.0
 40
8.0
 40
9.0
 40
9.0
 40
9.0
 40
10.0
 40
10.0
 40
10.0
 40
11.0
 40
11.0
 40
11.0
 40
12.0
 40
12.0
 40
12.0
 40
13.0
 40
13.0
 40
13.0
 40
13.0
 10
8.345773655416854
 20
-2.483306165987402
 30
0.0
 10
7.959336118328793
 20
-2.533760875243034
 30
0.0
 10
7.578578969906074
 20
-2.69133004027425
 30
0.0
 10
7.147503396707785
 20
-2.979088643407838
 30
0.0
 10
7.147503396707785
 20
-2.979088643407838
 30
0.0
 10
7.069242364211327
 20
-3.031152784203906
 30
0.0
 10
7.069242364211327
 20
-3.031152784203906
 30
0.0
 10
6.903141272941664
 20
-3.141369758611669
 30
0.0
 10
6.731843462963095
 20
-3.255038284997719
 30
0.0
 10
6.576058246145344
 20
-3.388136334317728
 30
0.0
 10
6.644759643106428
 20
-3.137995769599178
 30
0.0
 10
6.708535791738919
 20
-2.869511563467957
 30
0.0
 10
6.728178612828843
 20
-2.589877080586701
 30
0.0
 10
6.753832563768557
 20
-2.223605965733491
 30
0.0
 10
6.701981721128454
 20
-1.908002257876205
 30
0.0
 10
6.569639910725047
 20
-1.624936214173784
 30
0.0
 10
6.558412671424876
 20
-1.601008039223188
 30
0.0
 10
6.559479162204702
 20
-1.587861116519384
 30
0.0
 10
6.574506986829268
 20
-1.563642080447026
 30
0.0
 10
6.674369305302156
 20
-1.402775858964686
 30
0.0
 10
6.807796997226837
 20
-1.320307665977806
 30
0.0
 10
6.958753919423265
 20
-1.320307665977806
 30
0.0
 10
7.042793392872126
 20
-1.320307665977806
 30
0.0
 10
7.132242883185805
 20
-1.345845272468826
 30
0.0
 10
7.224310123595387
 20
-1.397715505850379
 30
0.0
 10
7.272050129047885
 20
-1.424610464242985
 30
0.0
 10
7.316900914024144
 20
-1.45418134495584
 30
0.0
 10
7.357524517364102
 20
-1.485613736847995
 30
0.0
 10
7.473461760499908
 20
-1.575315306800551
 30
0.0
 10
7.608285585809072
 20
-1.635872592352181
 30
0.0
 10
7.781813331054511
 20
-1.676185320331355
 30
0.0
 10
7.93317745882142
 20
-1.711418921045467
 30
0.0
 10
8.089738305297184
 20
-1.747795952007638
 30
0.0
 10
8.214575898759044
 20
-1.860145907975013
 30
0.0
 10
8.347635166596142
 20
-1.97986434569379
 30
0.0
 10
8.414455661636465
 20
-2.135939811750139
 30
0.0
 10
8.43128682521597
 20
-2.366263650588861
 30
0.0
 10
8.438093536849616
 20
-2.471225734063397
 30
0.0
 10
8.438015412499478
 20
-2.471225734063397
 30
0.0
 10
8.345773655416854
 20
-2.483306165987402
 30
0.0
  0
SPLINE
  5
45
330
1F
100
AcDbEntity
  8
Layer 1
370
     0
100
AcDbSpline
210
0.0
220
0.0
230
1.0
 70
    11
 71
     3
 72
    59
 73
    55
 74
     0
 42
0.0000000001
 43
0.0000000001
 12
1.0
 22
0.0
 32
0.0
 13
1.0
 23
0.0
 33
0.0
 40
0.0
 40
0.0
 40
0.0
 40
0.0
 40
1.0
 40
1.0
 40
1.0
 40
2.0
 40
2.0
 40
2.0
 40
3.0
 40
3.0
 40
3.0
 40
4.0
 40
4.0
 40
4.0
 40
5.0
 40
5.0
 40
5.0
 40
6.0
 40
6.0
 40
6.0
 40
7.0
 40
7.0
 40
7.0
 40
8.0
 40
8.0
 40
8.0
 40
9.0
 40
9.0
 40
9.0
 40
10.0
 40
10.0
 40
10.0
 40
11.0
 40
11.0
 40
11.0
 40
12.0
 40
12.0
 40
12.0
 40
13.0
 40
13.0
 40
13.0
 40
14.0
 40
14.0
 40
14.0
 40
15.0
 40
15.0
 40
15.0
 40
16.0
 40
16.0
 40
16.0
 40
17.0
 40
17.0
 40
17.0
 40
18.0
 40
18.0
 40
18.0
 40
18.0
 10
9.11118439271412
 20
-2.711864835470919
 30
0.0
 10
9.114403255794993
 20
-2.71252412068025
 30
0.0
 10
9.117660900358764
 20
-2.713105842923786
 30
0.0
 10
9.120802200473841
 20
-2.714094770737789
 30
0.0
 10
9.235323919483738
 20
-2.749618609076113
 30
0.0
 10
9.302415884904374
 20
-2.794915381105764
 30
0.0
 10
9.325878682060141
 20
-2.852467101732473
 30
0.0
 10
9.348817929196734
 20
-2.908660878095159
 30
0.0
 10
9.333634978640577
 20
-2.984615004721389
 30
0.0
 10
9.279592982216501
 20
-3.084768184316065
 30
0.0
 10
9.130652697130976
 20
-3.360698435164497
 30
0.0
 10
9.011147557568165
 20
-3.65855961459407
 30
0.0
 10
8.905700705557338
 20
-3.921362333480147
 30
0.0
 10
8.661959085517639
 20
-4.52864157424411
 30
0.0
 10
8.143916036911428
 20
-4.879109835230389
 30
0.0
 10
7.484359357195394
 20
-4.882832315098185
 30
0.0
 10
7.468750347224032
 20
-4.882910420554784
 30
0.0
 10
7.45315965420069
 20
-4.884015692817494
 30
0.0
 10
7.437531252699172
 20
-4.885140355821654
 30
0.0
 10
7.437531252699172
 20
-4.885140355821654
 30
0.0
 10
7.421766043791422
 20
-4.886420144757418
 30
0.0
 10
7.421766043791422
 20
-4.886420144757418
 30
0.0
 10
7.225260269926492
 20
-4.879187398196184
 30
0.0
 10
7.02658273301904
 20
-4.850760571228951
 30
0.0
 10
6.834401094497681
 20
-4.823245109109899
 30
0.0
 10
6.834401094497681
 20
-4.823245109109899
 30
0.0
 10
6.803918848936619
 20
-4.81888219228343
 30
0.0
 10
6.803918848936619
 20
-4.81888219228343
 30
0.0
 10
6.746696770914594
 20
-4.810757471615438
 30
0.0
 10
6.689280785478028
 20
-4.803738023210144
 30
0.0
 10
6.631845925054626
 20
-4.796718574804875
 30
0.0
 10
6.476758259174503
 20
-4.777793211148643
 30
0.0
 10
6.316435608857242
 20
-4.758227953024541
 30
0.0
 10
6.164335136859639
 20
-4.714908489889997
 30
0.0
 10
6.065112208910199
 20
-4.686656726328717
 30
0.0
 10
6.006358262313508
 20
-4.650105178693492
 30
0.0
 10
5.979463303920903
 20
-4.599883158335261
 30
0.0
 10
5.952490782562487
 20
-4.549428449079642
 30
0.0
 10
5.954759499312268
 20
-4.479757515046016
 30
0.0
 10
5.98659909677489
 20
-4.380612098828831
 30
0.0
 10
6.029627152054773
 20
-4.246738975028746
 30
0.0
 10
6.129877285356693
 20
-4.144026217562542
 30
0.0
 10
6.218376629339269
 20
-4.053335719795983
 30
0.0
 10
6.640299772572689
 20
-3.621019139144841
 30
0.0
 10
7.112755188027499
 20
-3.258877651805026
 30
0.0
 10
7.622634734482845
 20
-2.977013834072573
 30
0.0
 10
7.901492987290389
 20
-2.822838048795271
 30
0.0
 10
8.219695054502102
 20
-2.734222360363977
 30
0.0
 10
8.654454868576092
 20
-2.689759390216725
 30
0.0
 10
8.803879922197869
 20
-2.674363141504589
 30
0.0
 10
8.949969768290076
 20
-2.664299346691501
 30
0.0
 10
9.094139930978649
 20
-2.707734607541852
 30
0.0
 10
9.099763245999434
 20
-2.709440992789546
 30
0.0
 10
9.10544473324459
 20
-2.710662609500964
 30
0.0
 10
9.11118439271412
 20
-2.711864835470919
 30
0.0
  0
SPLINE
  5
46
330
1F
100
AcDbEntity
  8
Layer 1
370
     0
100
AcDbSpline
210
0.0
220
0.0
230
1.0
 70
    11
 71
     3
 72
    26
 73
    22
 74
     0
 42
0.0000000001
 43
0.0000000001
 12
1.0
 22
0.0
 32
0.0
 13
1.0
 23
0.0
 33
0.0
 40
0.0
 40
0.0
 40
0.0
 40
0.0
 40
1.0
 40
1.0
 40
1.0
 40
2.0
 40
2.0
 40
2.0
 40
3.0
 40
3.0
 40
3.0
 40
4.0
 40
4.0
 40
4.0
 40
5.0
 40
5.0
 40
5.0
 40
6.0
 40
6.0
 40
6.0
 40
7.0
 40
7.0
 40
7.0
 40
7.0
 10
5.076999282523616
 20
-4.628368157526867
 30
0.0
 10
5.076999282523616
 20
-4.628368157526867
 30
0.0
 10
5.138758795605276
 20
-4.628736581614425
 30
0.0
 10
5.138758795605276
 20
-4.628736581614425
 30
0.0
 10
5.189174724651656
 20
-4.629182568667804
 30
0.0
 10
5.239668216665791
 20
-4.62958922535011
 30
0.0
 10
5.289929019776511
 20
-4.627495574161558
 30
0.0
 10
5.319499901236415
 20
-4.626254566708692
 30
0.0
 10
5.319674417913878
 20
-4.628116077887992
 30
0.0
 10
5.323552566302143
 20
-4.642058020991296
 30
0.0
 10
5.340092869177687
 20
-4.702285663938255
 30
0.0
 10
5.365960118926788
 20
-4.77827797968492
 30
0.0
 10
5.424287470685019
 20
-4.849694080449138
 30
0.0
 10
5.336369846725082
 20
-4.874126414677461
 30
0.0
 10
5.252950874895368
 20
-4.877946390743318
 30
0.0
 10
5.169376777129994
 20
-4.861502498963268
 30
0.0
 10
5.008918387568971
 20
-4.829818570461813
 30
0.0
 10
4.86911113817516
 20
-4.757355369659232
 30
0.0
 10
4.75319328285237
 20
-4.645800434091345
 30
0.0
 10
4.855712135494059
 20
-4.63521254051289
 30
0.0
 10
4.961973401330144
 20
-4.629512211272464
 30
0.0
 10
5.076999282523616
 20
-4.628368157526867
 30
0.0
  0
SPLINE
  5
47
330
1F
100
AcDbEntity
  8
Layer 1
370
     0
100
AcDbSpline
210
0.0
220
0.0
230
1.0
 70
    11
 71
     3
 72
    59
 73
    55
 74
     0
 42
0.0000000001
 43
0.0000000001
 12
1.0
 22
0.0
 32
0.0
 13
1.0
 23
0.0
 33
0.0
 40
0.0
 40
0.0
 40
0.0
 40
0.0
 40
1.0
 40
1.0
 40
1.0
 40
2.0
 40
2.0
 40
2.0
 40
3.0
 40
3.0
 40
3.0
 40
4.0
 40
4.0
 40
4.0
 40
5.0
 40
5.0
 40
5.0
 40
6.0
 40
6.0
 40
6.0
 40
7.0
 40
7.0
 40
7.0
 40
8.0
 40
8.0
 40
8.0
 40
9.0
 40
9.0
 40
9.0
 40
10.0
 40
10.0
 40
10.0
 40
11.0
 40
11.0
 40
11.0
 40
12.0
 40
12.0
 40
12.0
 40
13.0
 40
13.0
 40
13.0
 40
14.0
 40
14.0
 40
14.0
 40
15.0
 40
15.0
 40
15.0
 40
16.0
 40
16.0
 40
16.0
 40
17.0
 40
17.0
 40
17.0
 40
18.0
 40
18.0
 40
18.0
 40
18.0
 10
5.806982658713815
 20
-5.014379647592906
 30
0.0
 10
5.813245868202507
 20
-5.023919892386819
 30
0.0
 10
5.817376096131574
 20
-5.03212217602062
 30
0.0
 10
5.821835966665327
 20
-5.040828618932133
 30
0.0
 10
5.825908022370046
 20
-5.04875943218561
 30
0.0
 10
5.830154594747821
 20
-5.057000497302308
 30
0.0
 10
5.83573912828572
 20
-5.066579523579119
 30
0.0
 10
6.101838273218466
 20
-5.523813206994873
 30
0.0
 10
6.50821004180812
 20
-5.819289325225971
 30
0.0
 10
7.04353024104724
 20
-5.944824985380061
 30
0.0
 10
7.125340307450541
 20
-5.964002428675157
 30
0.0
 10
7.207363145860704
 20
-5.963886084226449
 30
0.0
 10
7.286166588824218
 20
-5.963401315690172
 30
0.0
 10
7.286166588824218
 20
-5.963401315690172
 30
0.0
 10
7.309959028584672
 20
-5.963343143465813
 30
0.0
 10
7.309959028584672
 20
-5.963343143465813
 30
0.0
 10
7.30999781006757
 20
-5.963343143465813
 30
0.0
 10
7.31009476377484
 20
-5.963343143465813
 30
0.0
 10
7.310134078147408
 20
-5.963343143465813
 30
0.0
 10
7.340906651940561
 20
-5.963343143465813
 30
0.0
 10
7.366230960275616
 20
-5.97208836786025
 30
0.0
 10
7.381549646021944
 20
-5.987930603625752
 30
0.0
 10
7.392195163078567
 20
-5.999002716994306
 30
0.0
 10
7.397294928080201
 20
-6.012944660097597
 30
0.0
 10
7.396674424353781
 20
-6.029446181072444
 30
0.0
 10
7.396073311368784
 20
-6.045443542769564
 30
0.0
 10
7.390159135226213
 20
-6.0526375078479
 30
0.0
 10
7.385757971716985
 20
-6.056670782069735
 30
0.0
 10
7.377458199575762
 20
-6.064213780494179
 30
0.0
 10
7.355294582097232
 20
-6.076507510574149
 30
0.0
 10
7.301756744950883
 20
-6.0738315882539
 30
0.0
 10
7.286108416599896
 20
-6.071272010382371
 30
0.0
 10
7.269374206727611
 20
-6.068848167700986
 30
0.0
 10
7.251786804231515
 20
-6.066327371312329
 30
0.0
 10
7.210911121252694
 20
-6.06047136739413
 30
0.0
 10
7.164528467701782
 20
-6.053820343076419
 30
0.0
 10
7.120938080919839
 20
-6.042728838966418
 30
0.0
 10
6.9871419649076
 20
-6.008775650685619
 30
0.0
 10
6.850999569179773
 20
-6.004897502395415
 30
0.0
 10
6.719394606951507
 20
-6.001135698553904
 30
0.0
 10
6.661338727047071
 20
-5.999487485530582
 30
0.0
 10
6.603302237884084
 20
-5.997878053990133
 30
0.0
 10
6.545459656135588
 20
-5.993670263095257
 30
0.0
 10
6.27643250924373
 20
-5.974027442005346
 30
0.0
 10
6.081749465075189
 20
-5.828810179278435
 30
0.0
 10
5.93277039850678
 20
-5.536688133345428
 30
0.0
 10
5.859822429167921
 20
-5.39364315963399
 30
0.0
 10
5.837542467240673
 20
-5.239234151971901
 30
0.0
 10
5.813905153411838
 20
-5.075770197410141
 30
0.0
 10
5.813905153411838
 20
-5.075770197410141
 30
0.0
 10
5.79938148806501
 20
-5.016532019893967
 30
0.0
 10
5.79938148806501
 20
-5.016532019893967
 30
0.0
 10
5.802968775233453
 20
-5.01565889739345
 30
0.0
 10
5.805857995709655
 20
-5.015038932802238
 30
0.0
 10
5.806982658713815
 20
-5.014379647592906
 30
0.0
  0
SPLINE
  5
48
330
1F
100
AcDbEntity
  8
Layer 1
370
     0
100
AcDbSpline
210
0.0
220
0.0
230
1.0
 70
    11
 71
     3
 72
    80
 73
    76
 74
     0
 42
0.0000000001
 43
0.0000000001
 12
1.0
 22
0.0
 32
0.0
 13
1.0
 23
0.0
 33
0.0
 40
0.0
 40
0.0
 40
0.0
 40
0.0
 40
1.0
 40
1.0
 40
1.0
 40
2.0
 40
2.0
 40
2.0
 40
3.0
 40
3.0
 40
3.0
 40
4.0
 40
4.0
 40
4.0
 40
5.0
 40
5.0
 40
5.0
 40
6.0
 40
6.0
 40
6.0
 40
7.0
 40
7.0
 40
7.0
 40
8.0
 40
8.0
 40
8.0
 40
9.0
 40
9.0
 40
9.0
 40
10.0
 40
10.0
 40
10.0
 40
11.0
 40
11.0
 40
11.0
 40
12.0
 40
12.0
 40
12.0
 40
13.0
 40
13.0
 40
13.0
 40
14.0
 40
14.0
 40
14.0
 40
15.0
 40
15.0
 40
15.0
 40
16.0
 40
16.0
 40
16.0
 40
17.0
 40
17.0
 40
17.0
 40
18.0
 40
18.0
 40
18.0
 40
19.0
 40
19.0
 40
19.0
 40
20.0
 40
20.0
 40
20.0
 40
21.0
 40
21.0
 40
21.0
 40
22.0
 40
22.0
 40
22.0
 40
23.0
 40
23.0
 40
23.0
 40
24.0
 40
24.0
 40
24.0
 40
25.0
 40
25.0
 40
25.0
 40
25.0
 10
6.06053599392774
 20
-4.969121116735146
 30
0.0
 10
6.05533927521886
 20
-4.960958154895252
 30
0.0
 10
6.049929759408315
 20
-4.952678308295668
 30
0.0
 10
6.044402897040476
 20
-4.939182352245729
 30
0.0
 10
6.043859956279852
 20
-4.937902022210285
 30
0.0
 10
6.043297624777753
 20
-4.936506429925481
 30
0.0
 10
6.042677121051333
 20
-4.934974561350852
 30
0.0
 10
6.042677121051333
 20
-4.934974561350852
 30
0.0
 10
6.049774132422398
 20
-4.937437185515137
 30
0.0
 10
6.049774132422398
 20
-4.937437185515137
 30
0.0
 10
6.206373760381084
 20
-4.989055339257826
 30
0.0
 10
6.369120253379757
 20
-5.009279882591272
 30
0.0
 10
6.526554196315575
 20
-5.028825749973925
 30
0.0
 10
6.566576173575767
 20
-5.033828561268314
 30
0.0
 10
6.60655988244783
 20
-5.038773200338331
 30
0.0
 10
6.646446637612674
 20
-5.044260780168972
 30
0.0
 10
6.705452663848215
 20
-5.052307399661635
 30
0.0
 10
6.764361736376486
 20
-5.061169506714287
 30
0.0
 10
6.823270808904781
 20
-5.070050466298867
 30
0.0
 10
7.026989938589495
 20
-5.100649056308624
 30
0.0
 10
7.237185575918879
 20
-5.131421626780567
 30
0.0
 10
7.449494804066439
 20
-5.130355672211635
 30
0.0
 10
7.905739559668164
 20
-5.12607031835095
 30
0.0
 10
8.300922870440546
 20
-4.99268140790918
 30
0.0
 10
8.62408896746375
 20
-4.733931353986375
 30
0.0
 10
8.66192030403474
 20
-4.703643015839841
 30
0.0
 10
8.696687903456475
 20
-4.668914197901004
 30
0.0
 10
8.728624454626344
 20
-4.635949937434209
 30
0.0
 10
8.784024373075226
 20
-4.578727859412171
 30
0.0
 10
8.801649986930999
 20
-4.583672498482188
 30
0.0
 10
8.866783487465101
 20
-4.602113093602131
 30
0.0
 10
8.958210833406786
 20
-4.627863998249128
 30
0.0
 10
9.027435780387046
 20
-4.672346359137842
 30
0.0
 10
9.072480472777821
 20
-4.734299231830972
 30
0.0
 10
9.214323746492255
 20
-4.92952576300311
 30
0.0
 10
9.404140300345311
 20
-5.085097681664883
 30
0.0
 10
9.687865043468314
 20
-5.238769307664445
 30
0.0
 10
9.775162161480946
 20
-5.286102107546463
 30
0.0
 10
9.843223663974134
 20
-5.350576322871196
 30
0.0
 10
9.890129867544248
 20
-5.430446786908078
 30
0.0
 10
9.94863233404582
 20
-5.52992129055196
 30
0.0
 10
9.959122125627067
 20
-5.628057833035718
 30
0.0
 10
9.921329570538974
 20
-5.722219273522013
 30
0.0
 10
9.87029373660448
 20
-5.849480709665259
 30
0.0
 10
9.742643888067555
 20
-5.936157323951445
 30
0.0
 10
9.63880646759718
 20
-5.965611345078072
 30
0.0
 10
9.569543329101204
 20
-5.9853322442713
 30
0.0
 10
9.505844153467326
 20
-5.987736696211237
 30
0.0
 10
9.47163888554769
 20
-5.987814259177045
 30
0.0
 10
9.34922513476719
 20
-5.991071903740817
 30
0.0
 10
9.24007465113924
 20
-5.963401315690172
 30
0.0
 10
9.134162421333611
 20
-5.93673904619498
 30
0.0
 10
9.134162421333611
 20
-5.93673904619498
 30
0.0
 10
9.10598767400524
 20
-5.929642034823902
 30
0.0
 10
9.10598767400524
 20
-5.929642034823902
 30
0.0
 10
9.00825833709195
 20
-5.905267872819928
 30
0.0
 10
8.910858642783321
 20
-5.87955574965584
 30
0.0
 10
8.813439557733242
 20
-5.85386301723319
 30
0.0
 10
8.693973199653353
 20
-5.82233367163379
 30
0.0
 10
8.574448669349067
 20
-5.790823716775827
 30
0.0
 10
8.454361807542732
 20
-5.76169882311635
 30
0.0
 10
8.270033419309028
 20
-5.716964382588785
 30
0.0
 10
8.069901576792745
 20
-5.695304402422051
 30
0.0
 10
7.83568081080552
 20
-5.695304402422051
 30
0.0
 10
7.768860315765222
 20
-5.695304402422051
 30
0.0
 10
7.699247553955956
 20
-5.69704956919673
 30
0.0
 10
7.626474101290164
 20
-5.700559815321185
 30
0.0
 10
7.579490334754255
 20
-5.702828532070965
 30
0.0
 10
7.532409614511127
 20
-5.706667898878272
 30
0.0
 10
7.48538706649232
 20
-5.710546047168489
 30
0.0
 10
7.332277771994844
 20
-5.723033163397531
 30
0.0
 10
7.187681012994339
 20
-5.734920209172452
 30
0.0
 10
7.043491459564343
 20
-5.694315996573954
 30
0.0
 10
6.624050331236705
 20
-5.576381507068668
 30
0.0
 10
6.293341235789032
 20
-5.332387807390116
 30
0.0
 10
6.06053599392774
 20
-4.969121116735146
 30
0.0
  0
SPLINE
  5
49
330
1F
100
AcDbEntity
  8
Layer 1
370
     0
100
AcDbSpline
210
0.0
220
0.0
230
1.0
 70
    11
 71
     3
 72
    17
 73
    13
 74
     0
 42
0.0000000001
 43
0.0000000001
 12
1.0
 22
0.0
 32
0.0
 13
1.0
 23
0.0
 33
0.0
 40
0.0
 40
0.0
 40
0.0
 40
0.0
 40
1.0
 40
1.0
 40
1.0
 40
2.0
 40
2.0
 40
2.0
 40
3.0
 40
3.0
 40
3.0
 40
4.0
 40
4.0
 40
4.0
 40
4.0
 10
3.389015805826223
 20
-9.370199033577666
 30
0.0
 10
3.237864972396803
 20
-9.467191524765969
 30
0.0
 10
3.065985435832772
 20
-9.519546528006483
 30
0.0
 10
2.866357747551079
 20
-9.529823621235133
 30
0.0
 10
2.698938081633489
 20
-9.53860762733431
 30
0.0
 10
2.570513197758904
 20
-9.477061412413907
 30
0.0
 10
2.475614906700065
 20
-9.341946722569775
 30
0.0
 10
2.42719622407358
 20
-9.273051416453729
 30
0.0
 10
2.387871799417427
 20
-9.134388220834277
 30
0.0
 10
2.365048896153022
 20
-9.005711257314488
 30
0.0
 10
2.693198422018832
 20
-9.158568476034638
 30
0.0
 10
3.036860541437527
 20
-9.280885276197825
 30
0.0
 10
3.389015805826223
 20
-9.370199033577666
 30
0.0
  0
SPLINE
  5
4A
330
1F
100
AcDbEntity
  8
Layer 1
370
     0
100
AcDbSpline
210
0.0
220
0.0
230
1.0
 70
    11
 71
     3
 72
    17
 73
    13
 74
     0
 42
0.0000000001
 43
0.0000000001
 12
1.0
 22
0.0
 32
0.0
 13
1.0
 23
0.0
 33
0.0
 40
0.0
 40
0.0
 40
0.0
 40
0.0
 40
1.0
 40
1.0
 40
1.0
 40
2.0
 40
2.0
 40
2.0
 40
3.0
 40
3.0
 40
3.0
 40
4.0
 40
4.0
 40
4.0
 40
4.0
 10
6.410965473431108
 20
-9.047129882100256
 30
0.0
 10
6.410965473431108
 20
-9.047129882100256
 30
0.0
 10
6.422716262750428
 20
-9.030744705160208
 30
0.0
 10
6.422716262750428
 20
-9.030744705160208
 30
0.0
 10
6.506755736199288
 20
-8.91350827938557
 30
0.0
 10
6.593568085675643
 20
-8.792374314480714
 30
0.0
 10
6.685266901997642
 20
-8.678182235190787
 30
0.0
 10
7.025341725566149
 20
-8.646323246181812
 30
0.0
 10
7.361073023049634
 20
-8.581558168099239
 30
0.0
 10
7.687380420187916
 20
-8.485031054717435
 30
0.0
 10
7.287155516638247
 20
-8.725670162203995
 30
0.0
 10
6.859376369486628
 20
-8.914090001643746
 30
0.0
 10
6.410965473431108
 20
-9.047129882100256
 30
0.0
  0
SPLINE
  5
4B
330
1F
100
AcDbEntity
  8
Layer 1
370
     0
100
AcDbSpline
210
0.0
220
0.0
230
1.0
 70
    11
 71
     3
 72
    38
 73
    34
 74
     0
 42
0.0000000001
 43
0.0000000001
 12
1.0
 22
0.0
 32
0.0
 13
1.0
 23
0.0
 33
0.0
 40
0.0
 40
0.0
 40
0.0
 40
0.0
 40
1.0
 40
1.0
 40
1.0
 40
2.0
 40
2.0
 40
2.0
 40
3.0
 40
3.0
 40
3.0
 40
4.0
 40
4.0
 40
4.0
 40
5.0
 40
5.0
 40
5.0
 40
6.0
 40
6.0
 40
6.0
 40
7.0
 40
7.0
 40
7.0
 40
8.0
 40
8.0
 40
8.0
 40
9.0
 40
9.0
 40
9.0
 40
10.0
 40
10.0
 40
10.0
 40
11.0
 40
11.0
 40
11.0
 40
11.0
 10
6.326848437016451
 20
-8.747775608016733
 30
0.0
 10
6.302959043548778
 20
-8.780410226703149
 30
0.0
 10
6.279108431563978
 20
-8.813044845389715
 30
0.0
 10
6.254966958457417
 20
-8.845466165914887
 30
0.0
 10
6.223573348048173
 20
-8.887641029636294
 30
0.0
 10
6.193013539521315
 20
-8.930455787841815
 30
0.0
 10
6.162434340253008
 20
-8.973251155305357
 30
0.0
 10
6.121422922084043
 20
-9.030667142192467
 30
0.0
 10
6.080411503915053
 20
-9.088141301305313
 30
0.0
 10
6.037383448635183
 20
-9.143909075127288
 30
0.0
 10
5.439024434560097
 20
-9.277007127809737
 30
0.0
 10
4.827246526324731
 20
-9.309486620560644
 30
0.0
 10
4.21884260718702
 20
-9.240009592186425
 30
0.0
 10
4.131875129582176
 20
-9.23031422121595
 30
0.0
 10
4.04157244436327
 20
-9.217923537115691
 30
0.0
 10
3.949524592369862
 20
-9.203070228789075
 30
0.0
 10
3.974596821699543
 20
-9.178114343911096
 30
0.0
 10
3.999649660287067
 20
-9.153080896065376
 30
0.0
 10
4.024683108132788
 20
-9.128066838961608
 30
0.0
 10
4.230341317157947
 20
-8.922583146613936
 30
0.0
 10
4.443018974765803
 20
-8.710118787167326
 30
0.0
 10
4.682591591445594
 20
-8.535931752312257
 30
0.0
 10
4.682591591445594
 20
-8.535931752312257
 30
0.0
 10
4.736672370718805
 20
-8.496238903559362
 30
0.0
 10
4.736672370718805
 20
-8.496238903559362
 30
0.0
 10
5.016810419539007
 20
-8.576283886291245
 30
0.0
 10
5.305771255942343
 20
-8.634359158404246
 30
0.0
 10
5.596283351700928
 20
-8.668991023510745
 30
0.0
 10
5.849467773233073
 20
-8.696797347453968
 30
0.0
 10
6.107151336376066
 20
-8.70668662584391
 30
0.0
 10
6.363264249461533
 20
-8.698077136422196
 30
0.0
 10
6.351106254571732
 20
-8.71465622078151
 30
0.0
 10
6.338967650423355
 20
-8.731196523657218
 30
0.0
 10
6.326848437016451
 20
-8.747775608016733
 30
0.0
  0
SPLINE
  5
4C
330
1F
100
AcDbEntity
  8
Layer 1
370
     0
100
AcDbSpline
210
0.0
220
0.0
230
1.0
 70
    11
 71
     3
 72
    41
 73
    37
 74
     0
 42
0.0000000001
 43
0.0000000001
 12
1.0
 22
0.0
 32
0.0
 13
1.0
 23
0.0
 33
0.0
 40
0.0
 40
0.0
 40
0.0
 40
0.0
 40
1.0
 40
1.0
 40
1.0
 40
2.0
 40
2.0
 40
2.0
 40
3.0
 40
3.0
 40
3.0
 40
4.0
 40
4.0
 40
4.0
 40
5.0
 40
5.0
 40
5.0
 40
6.0
 40
6.0
 40
6.0
 40
7.0
 40
7.0
 40
7.0
 40
8.0
 40
8.0
 40
8.0
 40
9.0
 40
9.0
 40
9.0
 40
10.0
 40
10.0
 40
10.0
 40
11.0
 40
11.0
 40
11.0
 40
12.0
 40
12.0
 40
12.0
 40
12.0
 10
2.04428724296665
 20
-6.69840737039221
 30
0.0
 10
2.670297955786686
 20
-7.48726103740647
 30
0.0
 10
3.501656625760916
 20
-8.076545684990403
 30
0.0
 10
4.452598001284577
 20
-8.406343423921346
 30
0.0
 10
4.288435980012941
 20
-8.53659103753835
 30
0.0
 10
4.127531603387259
 20
-8.680082527900973
 30
0.0
 10
3.962729687631698
 20
-8.843119886140054
 30
0.0
 10
3.962729687631698
 20
-8.843119886140054
 30
0.0
 10
3.864709487120396
 20
-8.940694099586683
 30
0.0
 10
3.864709487120396
 20
-8.940694099586683
 30
0.0
 10
3.794980379100959
 20
-9.010326253896386
 30
0.0
 10
3.725290052565305
 20
-9.079977798948095
 30
0.0
 10
3.653970903706674
 20
-9.1480005216768
 30
0.0
 10
2.400126748324169
 20
-8.878100784601479
 30
0.0
 10
1.311957092084577
 20
-8.20485422441344
 30
0.0
 10
0.5059421218272366
 20
-7.199987195552037
 30
0.0
 10
-0.4202372762379001
 20
-6.045327198320845
 30
0.0
 10
-0.8392324280969963
 20
-4.596257089683919
 30
0.0
 10
-0.6738293993411035
 20
-3.119768472635201
 30
0.0
 10
-0.5066618130685406
 20
-1.626468082748412
 30
0.0
 10
0.2239231710386775
 20
-0.2969612858986592
 30
0.0
 10
1.383373194652929
 20
0.6239050256116975
 30
0.0
 10
2.364932551701322
 20
1.403471004168232
 30
0.0
 10
3.553623814162531
 20
1.815524260003031
 30
0.0
 10
4.82100270741983
 20
1.815524260003031
 30
0.0
 10
4.963175627330441
 20
1.815524260003031
 30
0.0
 10
5.106861025112519
 20
1.810133633879647
 30
0.0
 10
5.250527032152617
 20
1.799488116823012
 30
0.0
 10
4.336796490413487
 20
1.635326099698432
 30
0.0
 10
3.486047078498473
 20
1.236090123962766
 30
0.0
 10
2.772661682492715
 20
0.6339300389418743
 30
0.0
 10
1.743536835463209
 20
-0.234871471864191
 30
0.0
 10
1.091988515507018
 20
-1.461317137809829
 30
0.0
 10
0.9380260244962907
 20
-2.8195804042315
 30
0.0
 10
0.7792352387422044
 20
-4.221783090781249
 30
0.0
 10
1.172111061206806
 20
-5.599320229814427
 30
0.0
 10
2.04428724296665
 20
-6.69840737039221
 30
0.0
  0
SPLINE
  5
4D
330
1F
100
AcDbEntity
  8
Layer 1
370
     0
100
AcDbSpline
210
0.0
220
0.0
230
1.0
 70
    11
 71
     3
 72
    17
 73
    13
 74
     0
 42
0.0000000001
 43
0.0000000001
 12
1.0
 22
0.0
 32
0.0
 13
1.0
 23
0.0
 33
0.0
 40
0.0
 40
0.0
 40
0.0
 40
0.0
 40
1.0
 40
1.0
 40
1.0
 40
2.0
 40
2.0
 40
2.0
 40
3.0
 40
3.0
 40
3.0
 40
4.0
 40
4.0
 40
4.0
 40
4.0
 10
5.52017468958291
 20
-8.375415190525473
 30
0.0
 10
5.521241180389514
 20
-8.376966449880886
 30
0.0
 10
5.522404624906029
 20
-8.378634053687644
 30
0.0
 10
5.523587460164523
 20
-8.38035982972052
 30
0.0
 10
5.366658185636664
 20
-8.358487072811032
 30
0.0
 10
5.210174898173628
 20
-8.32953669509344
 30
0.0
 10
5.05625118864686
 20
-8.293838339180159
 30
0.0
 10
5.096894183754848
 20
-8.275436525078248
 30
0.0
 10
5.13627678063694
 20
-8.261417018655013
 30
0.0
 10
5.176260490518997
 20
-8.250984799490677
 30
0.0
 10
5.34024799511317
 20
-8.20799552460787
 30
0.0
 10
5.423919046588278
 20
-8.238361426487193
 30
0.0
 10
5.52017468958291
 20
-8.375415190525473
 30
0.0
  0
HATCH
  5
4E
330
1F
100
AcDbEntity
  8
Layer 1
 62
     7
420
 16777215
100
AcDbHatch
 10
0.0
 20
0.0
 30
0.0
210
0.0
220
0.0
230
1.0
  2
SOLID
 70
     1
 71
     0
 91
       13
 92
        1
 93
        1
 72
     4
 94
        3
 73
     0
 74
     1
 95
      353
 96
      349
 40
0.0
 40
0.0
 40
0.0
 40
0.0
 40
1.0
 40
1.0
 40
1.0
 40
2.0
 40
2.0
 40
2.0
 40
3.0
 40
3.0
 40
3.0
 40
4.0
 40
4.0
 40
4.0
 40
5.0
 40
5.0
 40
5.0
 40
6.0
 40
6.0
 40
6.0
 40
7.0
 40
7.0
 40
7.0
 40
8.0
 40
8.0
 40
8.0
 40
9.0
 40
9.0
 40
9.0
 40
10.0
 40
10.0
 40
10.0
 40
11.0
 40
11.0
 40
11.0
 40
12.0
 40
12.0
 40
12.0
 40
13.0
 40
13.0
 40
13.0
 40
14.0
 40
14.0
 40
14.0
 40
15.0
 40
15.0
 40
15.0
 40
16.0
 40
16.0
 40
16.0
 40
17.0
 40
17.0
 40
17.0
 40
18.0
 40
18.0
 40
18.0
 40
19.0
 40
19.0
 40
19.0
 40
20.0
 40
20.0
 40
20.0
 40
21.0
 40
21.0
 40
21.0
 40
22.0
 40
22.0
 40
22.0
 40
23.0
 40
23.0
 40
23.0
 40
24.0
 40
24.0
 40
24.0
 40
25.0
 40
25.0
 40
25.0
 40
26.0
 40
26.0
 40
26.0
 40
27.0
 40
27.0
 40
27.0
 40
28.0
 40
28.0
 40
28.0
 40
29.0
 40
29.0
 40
29.0
 40
30.0
 40
30.0
 40
30.0
 40
31.0
 40
31.0
 40
31.0
 40
32.0
 40
32.0
 40
32.0
 40
33.0
 40
33.0
 40
33.0
 40
34.0
 40
34.0
 40
34.0
 40
35.0
 40
35.0
 40
35.0
 40
36.0
 40
36.0
 40
36.0
 40
37.0
 40
37.0
 40
37.0
 40
38.0
 40
38.0
 40
38.0
 40
39.0
 40
39.0
 40
39.0
 40
40.0
 40
40.0
 40
40.0
 40
41.0
 40
41.0
 40
41.0
 40
42.0
 40
42.0
 40
42.0
 40
43.0
 40
43.0
 40
43.0
 40
44.0
 40
44.0
 40
44.0
 40
45.0
 40
45.0
 40
45.0
 40
46.0
 40
46.0
 40
46.0
 40
47.0
 40
47.0
 40
47.0
 40
48.0
 40
48.0
 40
48.0
 40
49.0
 40
49.0
 40
49.0
 40
50.0
 40
50.0
 40
50.0
 40
51.0
 40
51.0
 40
51.0
 40
52.0
 40
52.0
 40
52.0
 40
53.0
 40
53.0
 40
53.0
 40
54.0
 40
54.0
 40
54.0
 40
55.0
 40
55.0
 40
55.0
 40
56.0
 40
56.0
 40
56.0
 40
57.0
 40
57.0
 40
57.0
 40
58.0
 40
58.0
 40
58.0
 40
59.0
 40
59.0
 40
59.0
 40
60.0
 40
60.0
 40
60.0
 40
61.0
 40
61.0
 40
61.0
 40
62.0
 40
62.0
 40
62.0
 40
63.0
 40
63.0
 40
63.0
 40
64.0
 40
64.0
 40
64.0
 40
65.0
 40
65.0
 40
65.0
 40
66.0
 40
66.0
 40
66.0
 40
67.0
 40
67.0
 40
67.0
 40
68.0
 40
68.0
 40
68.0
 40
69.0
 40
69.0
 40
69.0
 40
70.0
 40
70.0
 40
70.0
 40
71.0
 40
71.0
 40
71.0
 40
72.0
 40
72.0
 40
72.0
 40
73.0
 40
73.0
 40
73.0
 40
74.0
 40
74.0
 40
74.0
 40
75.0
 40
75.0
 40
75.0
 40
76.0
 40
76.0
 40
76.0
 40
77.0
 40
77.0
 40
77.0
 40
78.0
 40
78.0
 40
78.0
 40
79.0
 40
79.0
 40
79.0
 40
80.0
 40
80.0
 40
80.0
 40
81.0
 40
81.0
 40
81.0
 40
82.0
 40
82.0
 40
82.0
 40
83.0
 40
83.0
 40
83.0
 40
84.0
 40
84.0
 40
84.0
 40
85.0
 40
85.0
 40
85.0
 40
86.0
 40
86.0
 40
86.0
 40
87.0
 40
87.0
 40
87.0
 40
88.0
 40
88.0
 40
88.0
 40
89.0
 40
89.0
 40
89.0
 40
90.0
 40
90.0
 40
90.0
 40
91.0
 40
91.0
 40
91.0
 40
92.0
 40
92.0
 40
92.0
 40
93.0
 40
93.0
 40
93.0
 40
94.0
 40
94.0
 40
94.0
 40
95.0
 40
95.0
 40
95.0
 40
96.0
 40
96.0
 40
96.0
 40
97.0
 40
97.0
 40
97.0
 40
98.0
 40
98.0
 40
98.0
 40
99.0
 40
99.0
 40
99.0
 40
100.0
 40
100.0
 40
100.0
 40
101.0
 40
101.0
 40
101.0
 40
102.0
 40
102.0
 40
102.0
 40
103.0
 40
103.0
 40
103.0
 40
104.0
 40
104.0
 40
104.0
 40
105.0
 40
105.0
 40
105.0
 40
106.0
 40
106.0
 40
106.0
 40
107.0
 40
107.0
 40
107.0
 40
108.0
 40
108.0
 40
108.0
 40
109.0
 40
109.0
 40
109.0
 40
110.0
 40
110.0
 40
110.0
 40
111.0
 40
111.0
 40
111.0
 40
112.0
 40
112.0
 40
112.0
 40
113.0
 40
113.0
 40
113.0
 40
114.0
 40
114.0
 40
114.0
 40
115.0
 40
115.0
 40
115.0
 40
116.0
 40
116.0
 40
116.0
 40
116.0
 10
7.899340614989342
 20
-9.90259124430708
 10
8.00631933557477
 20
-9.891538521400635
 10
8.20298023537129
 20
-9.823127983833198
 10
8.347654557337592
 20
-9.782213518337862
 10
8.413330998632294
 20
-9.763637187558464
 10
8.487636319872712
 20
-9.736606493292836
 10
8.443309084915603
 20
-9.689331864440899
 10
8.422153785992526
 20
-9.66679982230567
 10
8.395976285033612
 20
-9.649968658300951
 10
8.369275234055497
 20
-9.634397892522479
 10
8.221323876784002
 20
-9.548244826079047
 10
8.099200987125288
 20
-9.49730534700024
 10
7.906088593014273
 20
-9.425113614754283
 10
7.919817237961625
 20
-9.396046892584788
 10
7.981983955053693
 20
-9.296475432718276
 10
7.990244410911853
 20
-9.281370044746431
 10
8.011554835766548
 20
-9.242375262703236
 10
8.030596543871473
 20
-9.200607604562542
 10
8.05528095773866
 20
-9.16359067819725
 10
8.113414400608892
 20
-9.076448683914931
 10
8.183279242057045
 20
-8.99556989927934
 10
8.271836758263968
 20
-8.93823147536015
 10
8.317017185844936
 20
-8.908990236513368
 10
8.34278748123337
 20
-8.882832125635105
 10
8.333499316078308
 20
-8.855743259143537
 10
8.32405602499168
 20
-8.8282084055875
 10
8.24298333498483
 20
-8.8301668705236
 10
8.19153969791518
 20
-8.833715376298743
 10
8.05369091693966
 20
-8.843255621333558
 10
7.793001788871758
 20
-8.899837806317286
 10
7.599908785502217
 20
-8.995938323376246
 10
7.394173018706574
 20
-9.098321440824241
 10
7.299275262660406
 20
-9.227754643279669
 10
7.219404266008269
 20
-9.41406089184799
 10
7.219404266008269
 20
-9.41406089184799
 10
7.130226246074876
 20
-9.44913874401896
 10
7.099976689411252
 20
-9.459318883538065
 10
7.064782493677588
 20
-9.471166626863956
 10
7.015607573357733
 20
-9.47721653834939
 10
6.984951335798591
 20
-9.451775884922982
 10
6.95396440628484
 20
-9.426024979625405
 10
6.94147676879038
 20
-9.367969098254358
 10
6.949795396872863
 20
-9.28827314887725
 10
6.95187020620814
 20
-9.268009823549113
 10
6.964900784463225
 20
-9.205009302983019
 10
6.975333003363907
 20
-9.154360685033401
 10
6.975333003363907
 20
-9.154360685033401
 10
6.977562938630777
 20
-9.143540651030358
 10
6.977562938630777
 20
-9.143540651030358
 10
7.635839829410997
 20
-8.882599436731702
 10
8.235072468728301
 20
-8.508009083917488
 10
8.75899035573871
 20
-8.029852778396792
 10
8.81072485393012
 20
-7.982655712512572
 10
8.819024091271153
 20
-7.904065035426028
 10
8.778207150493017
 20
-7.847036863377828
 10
8.73736967902078
 20
-7.790028082071608
 10
8.660465998425934
 20
-7.772363116163509
 10
8.599036694959093
 20
-7.806316305302111
 10
8.156733871287138
 20
-8.04928230182155
 10
7.683696179312189
 20
-8.223256038515197
 10
7.192432274566171
 20
-8.323583737317524
 10
7.144943818836256
 20
-8.238652287616357
 10
7.042677048423406
 20
-8.186626926988993
 10
6.937462885309994
 20
-8.19754391470158
 10
6.797946500569701
 20
-8.211912454479918
 10
6.699344580291128
 20
-8.297755269052207
 10
6.628994970306697
 20
-8.37099410136299
 10
6.617244180987377
 20
-8.38324905026957
 10
6.605764862048343
 20
-8.395659125111807
 10
6.594421793108823
 20
-8.408166153663766
 10
6.344241932098056
 20
-8.428371306766142
 10
6.091018239488776
 20
-8.429941956863356
 10
5.8409358469946
 20
-8.412916885439193
 10
5.8409358469946
 20
-8.412916885439193
 10
5.821119004505627
 20
-8.38369503733424
 10
5.821119004505627
 20
-8.38369503733424
 10
5.755073643849363
 20
-8.285965697952102
 10
5.672856900096904
 20
-8.16430818301501
 10
5.628878698485929
 20
-8.120775967357632
 10
5.544393726267054
 20
-8.037201869592257
 10
5.436716936269224
 20
-7.993126713160664
 10
5.308893165394793
 20
-7.989869068514533
 10
5.141027512412367
 20
-7.985331634900376
 10
4.978843346818646
 20
-8.037473339979442
 10
4.808805930739013
 20
-8.148427165365394
 10
4.780165804892223
 20
-8.167061668370554
 10
4.751913493884317
 20
-8.18616154918234
 10
4.723816308811908
 20
-8.205513509639356
 10
4.173797913658366
 20
-8.039005208592874
 10
3.662910035741346
 20
-7.784501720618563
 10
3.204241425871335
 20
-7.448479553524698
 10
3.359987865140713
 20
-7.285151334156429
 10
3.547864763806071
 20
-7.141737406761548
 10
3.793816934584445
 20
-6.998323479366667
 10
4.147387723134872
 20
-6.792103433083689
 10
4.445326473056853
 20
-6.594686294370553
 10
4.704658255774348
 20
-6.394806531493132
 10
5.145022005252157
 20
-6.055468556099741
 10
5.405265152841139
 20
-5.590032589050211
 10
5.582748613826134
 20
-5.19738946540791
 10
5.595624066474834
 20
-5.286431750151122
 10
5.612202660838029
 20
-5.376288446035283
 10
5.641385726721851
 20
-5.46341104737486
 10
5.756857592062854
 20
-5.808314165564676
 10
6.013300147752981
 20
-6.223062734461185
 10
6.579238327743319
 20
-6.24022354064535
 10
6.759165017667605
 20
-6.245672338993093
 10
6.995712672628946
 20
-6.258586572799508
 10
7.230011001581993
 20
-6.310262898766545
 10
7.275307773611631
 20
-6.320287912096748
 10
7.321671036421119
 20
-6.319182639834025
 10
7.361073023049634
 20
-6.316913923084257
 10
7.452830011596006
 20
-6.311503906219412
 10
7.534930410899758
 20
-6.269096354665963
 10
7.586335266486483
 20
-6.200608255860869
 10
7.637119618346787
 20
-6.132915177455238
 10
7.654125840179075
 20
-6.047557133587715
 10
7.634191616387675
 20
-5.960181937334747
 10
7.632582184847251
 20
-5.952988487530951
 10
7.631593257033223
 20
-5.947752987339173
 10
7.630972753306802
 20
-5.943874839048956
 10
7.633357814505264
 20
-5.943622759410093
 10
7.636343988688723
 20
-5.9434676334785
 10
7.63993127585718
 20
-5.943390070512678
 10
7.887046884909371
 20
-5.936777827677878
 10
8.178101914089615
 20
-5.939996690758751
 10
8.461284302240731
 20
-6.014592873120945
 10
8.461284302240731
 20
-6.014592873120945
 10
8.506057524251219
 20
-6.026382443923189
 10
8.506057524251219
 20
-6.026382443923189
 10
8.73411203445701
 20
-6.086532523904325
 10
8.969961622726107
 20
-6.148718631737867
 10
9.20364002867647
 20
-6.203535748692906
 10
9.464793953815462
 20
-6.264810493226276
 10
9.679973011697761
 20
-6.241541602897238
 10
9.86166425909409
 20
-6.132953448028098
 10
10.04002029896083
 20
-6.026382443923189
 10
10.157217940291
 20
-5.861987737901182
 10
10.18326031153073
 20
-5.681905922045289
 10
10.20846827605391
 20
-5.507602020433978
 10
10.1481818547748
 20
-5.3356454519539
 10
10.00895633115627
 20
-5.184610966791675
 10
9.913902916563226
 20
-5.08151039449644
 10
9.795735738160525
 20
-5.012576308637954
 10
9.692480633006527
 20
-4.956052297308146
 10
9.527542393151053
 20
-4.865788395853516
 10
9.409258870299658
 20
-4.767108912609122
 10
9.320197194814984
 20
-4.645470791486686
 10
9.219229604079374
 20
-4.507641401252625
 10
9.092588671662572
 20
-4.414739804644897
 10
8.943687168059947
 20
-4.369346633223737
 10
9.06284327427665
 20
-4.207336988400217
 10
9.133464354641369
 20
-4.021573685299169
 10
9.20181671825632
 20
-3.841782730565026
 10
9.20181671825632
 20
-3.841782730565026
 10
9.22481413761726
 20
-3.78149691539372
 10
9.22481413761726
 20
-3.78149691539372
 10
9.280833989669341
 20
-3.635659148940375
 10
9.351416288551162
 20
-3.492923901119196
 10
9.419691089200315
 20
-3.354881212729171
 10
9.456203855352642
 20
-3.281021878542131
 10
9.49271662150497
 20
-3.207181935096539
 10
9.527367876478012
 20
-3.132469408285639
 10
9.588681400946218
 20
-3.000321505296736
 10
9.599482043934433
 20
-2.879439623090889
 10
9.559440162838047
 20
-2.773178359939139
 10
9.51871960579082
 20
-2.665036194866641
 10
9.428242406180237
 20
-2.579387289877357
 10
9.290529360394885
 20
-2.518539143203952
 10
9.113491890946786
 20
-2.440394455156226
 10
8.924257645125989
 20
-2.412180926344945
 10
8.727557963846568
 20
-2.434965047549932
 10
8.709563924022177
 20
-2.437020466143748
 10
8.691122760660011
 20
-2.439172838444809
 10
8.679643441721003
 20
-2.439580044015277
 10
8.678615732424102
 20
-2.428895745475756
 10
8.678092182404928
 20
-2.41126956149675
 10
8.677510460161404
 20
-2.390327560729626
 10
8.667892652401658
 20
-2.071543771274365
 10
8.561786515181513
 20
-1.831544564334712
 10
8.353122746426783
 20
-1.656581904221891
 10
8.240404366371825
 20
-1.562110211872386
 10
8.107345098534728
 20
-1.499478116985503
 10
7.946382553749572
 20
-1.465234067582944
 10
7.735469458986497
 20
-1.420266938157965
 10
7.558238082123908
 20
-1.341715044539759
 10
7.404488893158536
 20
-1.225060343970249
 10
7.288183225935123
 20
-1.136851861109411
 10
7.150838604237353
 20
-1.084690766606097
 10
7.007269554533801
 20
-1.074296690485918
 10
6.789899342867506
 20
-1.05812545081815
 10
6.599094446989207
 20
-1.146372715161887
 10
6.441408937509246
 20
-1.335859040621547
 10
6.437744598226345
 20
-1.340280129672376
 10
6.434602787259943
 20
-1.343867416840819
 10
6.431868692715347
 20
-1.346795418799931
 10
6.430142916726203
 20
-1.343091787182781
 10
6.428165061098197
 20
-1.338592503140275
 10
6.425857562865531
 20
-1.3331443368184
 10
6.381472155684049
 20
-1.228317988534021
 10
6.331463433481808
 20
-1.117829543745933
 10
6.273039129489789
 20
-0.995338229999662
 10
6.214905686619558
 20
-0.8733510755311045
 10
6.139049106063036
 20
-0.7724804385027507
 10
6.047621760121324
 20
-0.6955379764249806
 10
5.849681071389025
 20
-0.5288163814288585
 10
5.606559955075769
 20
-0.5427195430492652
 10
5.428340135750747
 20
-0.7305188740026803
 10
5.3746665620584
 20
-0.7871198023410417
 10
5.332162055723857
 20
-0.8539603340800568
 10
5.298014959166001
 20
-0.9076726878994602
 10
5.239668216665791
 20
-0.9993908949629207
 10
5.19681467697631
 20
-1.098593928226491
 10
5.155337879964779
 20
-1.194558707667738
 10
5.129315504280182
 20
-1.254883304321955
 10
5.102362372982308
 20
-1.317224538087076
 10
5.072170987780269
 20
-1.376094829132474
 10
4.911111485219104
 20
-1.69016666841512
 10
4.795465100283675
 20
-1.992235638739569
 10
4.718697152939563
 20
-2.299384983324191
 10
4.496207779909696
 20
-2.088530060785489
 10
4.239261058450817
 20
-1.985604005163307
 10
3.958851539243432
 20
-1.995221812923028
 10
3.784451206226915
 20
-1.990471081267515
 10
3.534911748189453
 20
-2.009978167167282
 10
3.372184641821516
 20
-2.228317915906094
 10
3.292159049831449
 20
-2.335606888354758
 10
3.196271830933559
 20
-2.404676709403399
 10
3.070406524995241
 20
-2.445552392382208
 10
2.988849064391742
 20
-2.472137098911591
 10
2.906419020401068
 20
-2.508804990995536
 10
2.811035960793788
 20
-2.561082429947558
 10
2.708129293313378
 20
-2.617354361638503
 10
2.631245001517729
 20
-2.703042048110698
 10
2.575923214760249
 20
-2.822935002502542
 10
2.514105529452662
 20
-2.956711727773331
 10
2.537296856813971
 20
-3.090546037500821
 10
2.568166917983894
 20
-3.203807946084048
 10
2.642161989230494
 20
-3.475394670847448
 10
2.643441778198545
 20
-3.690534947246836
 10
2.572238973791614
 20
-3.901389869785564
 10
2.495703715350904
 20
-4.128048246606871
 10
2.576912142599301
 20
-4.352147045556649
 10
2.795096770918399
 20
-4.516192718232534
 10
3.033602896791396
 20
-4.695557076654747
 10
3.308699352706981
 20
-4.777754429665745
 10
3.63589873221771
 20
-4.766565971848498
 10
3.815107969235593
 20
-4.760574232740105
 10
3.993425232124145
 20
-4.734551857712808
 10
4.16582831872059
 20
-4.709382675309345
 10
4.240695973354528
 20
-4.698446297130949
 10
4.315544237246311
 20
-4.687509918952552
 10
4.390625190041495
 20
-4.678163581573155
 10
4.439683767151918
 20
-4.672094279498979
 10
4.457872283092595
 20
-4.682894922487208
 10
4.491573392585792
 20
-4.720803822024006
 10
4.758331829466871
 20
-5.020914327461898
 10
5.044442226804777
 20
-5.147186835791141
 10
5.364137389184356
 20
-5.105186489808172
 10
5.329776994465065
 20
-5.183582722601638
 10
5.286981627001524
 20
-5.259206616171038
 10
5.245272141086755
 20
-5.332872575926394
 10
5.245272141086755
 20
-5.332872575926394
 10
5.216321763368986
 20
-5.384238650030221
 10
5.216321763368986
 20
-5.384238650030221
 10
5.066101685552844
 20
-5.652897372834508
 10
4.89044095431009
 20
-5.931135121915632
 10
4.624632663784281
 20
-6.146159053866313
 10
4.428708607213391
 20
-6.304620193004287
 10
4.202864635827672
 20
-6.462538391381637
 10
3.934128343268854
 20
-6.628852780807291
 10
3.877895191640252
 20
-6.663717333936271
 10
3.821099708495277
 20
-6.697670522217069
 10
3.764323616092282
 20
-6.731662491980765
 10
3.588372023720543
 20
-6.837031287902264
 10
3.406389910605323
 20
-6.945988357239204
 10
3.242770830107891
 20
-7.079570688099036
 10
3.169338090377664
 20
-7.139507471438239
 10
3.085414959257529
 20
-7.211505296264956
 10
3.008608230429622
 20
-7.29771653493415
 10
1.689417274706203
 20
-6.227018445717198
 10
1.01859455726075
 20
-4.567752699750877
 10
1.213064308186113
 20
-2.850682559691854
 10
1.512088939656691
 20
-0.2128830309669006
 10
3.736265212503831
 20
1.701294110934694
 10
6.385757509544747
 20
1.603350767045653
 10
6.455641741734325
 20
1.599356274306741
 10
6.516741968046567
 20
1.651342852137001
 10
6.527503829551935
 20
1.720315719478385
 10
6.538285081798701
 20
1.789618229424428
 10
6.49548971541622
 20
1.85612847260154
 10
6.427912981459333
 20
1.874976273291951
 10
6.136276230035542
 20
1.956339824420562
 10
5.834905326403335
 20
2.015384632139002
 10
5.532293903295971
 20
2.050521373290406
 10
3.960906957889266
 20
2.235275640193903
 10
2.425955216589323
 20
1.805460465189943
 10
1.211222187701714
 20
0.8406935150344199
 10
-0.0063612802513262
 20
-0.1263809333537817
 10
-0.7735172036593414
 20
-1.521932595585819
 10
-0.9489646367404828
 20
-3.08893719372803
 10
-1.12256994933739
 20
-4.639168800515095
 10
-0.6825940146983005
 20
-6.160682209003602
 10
0.2899680380894678
 20
-7.373185302568067
 10
0.7934680433268744
 20
-8.00084422845306
 10
1.405362296013954
 20
-8.507252844981672
 10
2.108858413629782
 20
-8.878527380924146
 10
2.173759226906037
 20
-9.516793042650761
 10
2.432063300300709
 20
-9.800964365794723
 10
2.921311110211642
 20
-9.771587391754261
 10
3.210931231840909
 20
-9.754387803652635
 10
3.466714508783449
 20
-9.645915993235223
 10
3.702525321526675
 20
-9.44021900272628
 10
3.865310600120551
 20
-9.47215555470282
 10
4.028522475037095
 20
-9.49730534700024
 10
4.187856201565561
 20
-9.515086657360042
 10
4.649956972759179
 20
-9.567616177277841
 10
5.121850068632827
 20
-9.564145234470464
 10
5.586917623343399
 20
-9.50384002703433
 10
5.588042286375955
 20
-9.506263869776905
 10
5.589186340150491
 20
-9.50870710326146
 10
5.590466129118529
 20
-9.511092164520251
 10
5.627094750272426
 20
-9.580317113249267
 10
5.690463693334461
 20
-9.617159522936895
 10
5.784858317076163
 20
-9.620455949066809
 10
5.883673041152721
 20
-9.610062511386634
 10
5.964939638574062
 20
-9.575702116667344
 10
6.033311392930449
 20
-9.515416299972987
 10
6.06836985347397
 20
-9.484565629545058
 10
6.103079280671358
 20
-9.448886664373756
 10
6.141841876208218
 20
-9.403861361587081
 10
6.325103270285858
 20
-9.361589544155777
 10
6.50821004180812
 20
-9.309855044657574
 10
6.687089631694056
 20
-9.24999582428591
 10
6.687089631694056
 20
-9.24999582428591
 10
6.680244699961829
 20
-9.294962954847
 10
6.680244699961829
 20
-9.294962954847
 10
6.668688334742405
 20
-9.545006572174872
 10
6.768239884666703
 20
-9.709498236059465
 10
6.960615430602552
 20
-9.75816899833118
 10
7.079306159024427
 20
-9.788205257597534
 10
7.189794603812516
 20
-9.75471744626576
 10
7.285371568424731
 20
-9.710603508350054
 10
7.305092485242817
 20
-9.752409947974709
 10
7.440846533379246
 20
-9.829992306480234
 10
7.455059946862876
 20
-9.837128099514453
 10
7.581778442245498
 20
-9.900807296048443
 10
7.758272970932921
 20
-9.917173082246512
 10
7.899340614989342
 20
-9.90259124430708
 97
        0
 97
        0
 92
        1
 93
        1
 72
     4
 94
        3
 73
     0
 74
     1
 95
       59
 96
       55
 40
0.0
 40
0.0
 40
0.0
 40
0.0
 40
1.0
 40
1.0
 40
1.0
 40
2.0
 40
2.0
 40
2.0
 40
3.0
 40
3.0
 40
3.0
 40
4.0
 40
4.0
 40
4.0
 40
5.0
 40
5.0
 40
5.0
 40
6.0
 40
6.0
 40
6.0
 40
7.0
 40
7.0
 40
7.0
 40
8.0
 40
8.0
 40
8.0
 40
9.0
 40
9.0
 40
9.0
 40
10.0
 40
10.0
 40
10.0
 40
11.0
 40
11.0
 40
11.0
 40
12.0
 40
12.0
 40
12.0
 40
13.0
 40
13.0
 40
13.0
 40
14.0
 40
14.0
 40
14.0
 40
15.0
 40
15.0
 40
15.0
 40
16.0
 40
16.0
 40
16.0
 40
17.0
 40
17.0
 40
17.0
 40
18.0
 40
18.0
 40
18.0
 40
18.0
 10
2.807972223567099
 20
-3.96167568495687
 10
2.900349718173465
 20
-3.710701318355935
 10
2.900020075560506
 20
-3.455499770118674
 10
2.806905732760305
 20
-3.158549955537296
 10
2.794030280111605
 20
-3.117538537368331
 10
2.790481774336475
 20
-3.07119466530033
 10
2.787670116755003
 20
-3.023338315399137
 10
2.781949847882326
 20
-2.923883202496704
 10
2.82179782257088
 20
-2.847270383023594
 10
2.909424585401818
 20
-2.789098158670451
 10
2.98343904739022
 20
-2.740000801316392
 10
3.064841382058237
 20
-2.708936236103745
 10
3.151052620727442
 20
-2.676050136010834
 10
3.151052620727442
 20
-2.676050136010834
 10
3.211493563357269
 20
-2.65270308447513
 10
3.211493563357269
 20
-2.65270308447513
 10
3.359735785495495
 20
-2.594163034863047
 10
3.461091193620493
 20
-2.519043302481678
 10
3.530490659026984
 20
-2.416272372791127
 10
3.603845835789469
 20
-2.307509703992183
 10
3.710863340561193
 20
-2.251528633422999
 10
3.867210892830713
 20
-2.240068095972826
 10
3.895734674225814
 20
-2.237955114407264
 10
3.92361856113679
 20
-2.236927405110363
 10
3.950998288757344
 20
-2.236927405110363
 10
4.197551572535872
 20
-2.236927405110363
 10
4.400824720302416
 20
-2.321994587856125
 10
4.570261023382058
 20
-2.495522333101563
 10
4.62017279313784
 20
-2.546675109049425
 10
4.651605185824135
 20
-2.593503749653716
 10
4.642743616757027
 20
-2.655631685262885
 10
4.592734893291524
 20
-3.006138727732049
 10
4.671907292636231
 20
-3.361551627788331
 10
4.884701294695611
 20
-3.742191882472449
 10
5.006126120729656
 20
-3.959310014499844
 10
5.146010933091209
 20
-4.186104126511319
 10
5.34602643621161
 20
-4.375629233453878
 10
5.288552277098739
 20
-4.379836469151213
 10
5.231000555018138
 20
-4.382687463342058
 10
5.173448832937525
 20
-4.385479730111014
 10
5.173448832937525
 20
-4.385479730111014
 10
5.109304258597072
 20
-4.388795546899145
 10
5.109304258597072
 20
-4.388795546899145
 10
4.699170675805084
 20
-4.390889192057481
 10
4.29107312091695
 20
-4.442662473039844
 10
3.91115031406879
 20
-4.498275673131767
 10
3.648968092285852
 20
-4.536649950463394
 10
3.36995470649822
 20
-4.553888319613381
 10
3.10552315865017
 20
-4.421371992536907
 10
3.047758138408312
 20
-4.392421615550486
 10
2.98702633464931
 20
-4.359457355083704
 10
2.934341688796015
 20
-4.314897431229193
 10
2.804598234469431
 20
-4.205107053133348
 10
2.762093728134889
 20
-4.086299980262766
 10
2.807972223567099
 20
-3.96167568495687
 97
        0
 97
        0
 92
        1
 93
        1
 72
     4
 94
        3
 73
     0
 74
     1
 95
       53
 96
       49
 40
0.0
 40
0.0
 40
0.0
 40
0.0
 40
1.0
 40
1.0
 40
1.0
 40
2.0
 40
2.0
 40
2.0
 40
3.0
 40
3.0
 40
3.0
 40
4.0
 40
4.0
 40
4.0
 40
5.0
 40
5.0
 40
5.0
 40
6.0
 40
6.0
 40
6.0
 40
7.0
 40
7.0
 40
7.0
 40
8.0
 40
8.0
 40
8.0
 40
9.0
 40
9.0
 40
9.0
 40
10.0
 40
10.0
 40
10.0
 40
11.0
 40
11.0
 40
11.0
 40
12.0
 40
12.0
 40
12.0
 40
13.0
 40
13.0
 40
13.0
 40
14.0
 40
14.0
 40
14.0
 40
15.0
 40
15.0
 40
15.0
 40
16.0
 40
16.0
 40
16.0
 40
16.0
 10
5.278372137579809
 20
-1.513517013796053
 10
5.31050259697598
 20
-1.451058806397491
 10
5.338270139435255
 20
-1.386158623945562
 10
5.365126317023408
 20
-1.32341018460996
 10
5.401057361839914
 20
-1.239487055609819
 10
5.438190632656718
 20
-1.152732878357837
 10
5.485232572605266
 20
-1.073851342134958
 10
5.526147038100614
 20
-1.005324461846941
 10
5.560972810626544
 20
-0.9488385901283006
 10
5.605978722671416
 20
-0.8980548801397515
 10
5.680283554072654
 20
-0.8140154066908911
 10
5.779874402165256
 20
-0.8034668433415137
 10
5.872368238886755
 20
-0.8697243630093554
 10
5.931684516985519
 20
-0.9122876843648049
 10
5.974964651904265
 20
-0.9596974056151263
 10
6.001006417673024
 20
-1.01063752500454
 10
6.159254258655033
 20
-1.320307665977806
 10
6.299565663794813
 20
-1.601066211447548
 10
6.413602614268458
 20
-1.900788902056421
 10
6.47939540001188
 20
-2.073773706541235
 10
6.489885791136885
 20
-2.256938041461492
 10
6.491456953402626
 20
-2.410998091116438
 10
6.471891183070309
 20
-2.847638807111176
 10
6.378738061139453
 20
-3.277143730251914
 10
6.214498481049077
 20
-3.687645726770648
 10
6.20096374351624
 20
-3.721560133568523
 10
6.178974642710752
 20
-3.752119942095381
 10
6.145351097034614
 20
-3.783862585850746
 10
5.986153109721512
 20
-3.934199004320741
 10
5.805741651260948
 20
-4.104527277226755
 10
5.737835274699377
 20
-4.357052903143767
 10
5.734868491257367
 20
-4.355617988276397
 10
5.731804754108098
 20
-4.354086119701757
 10
5.728954315114795
 20
-4.352689430434061
 10
5.621200455094948
 20
-4.299346056585439
 10
5.52329659903536
 20
-4.219553155514379
 10
5.429658706202745
 20
-4.108793240345979
 10
5.196892239944228
 20
-3.833405361256584
 10
5.035134670673187
 20
-3.551949318096199
 10
4.935194786709745
 20
-3.248484214387266
 10
4.866803639884109
 20
-3.040673638256369
 10
4.854723207655007
 20
-2.820898974650175
 10
4.899263741893226
 20
-2.595326479350105
 10
4.899263741893226
 20
-2.595326479350105
 10
4.899263741893226
 20
-2.595365260833015
 10
4.899263741893226
 20
-2.595365260833015
 10
4.972793435333188
 20
-2.223198150484146
 10
5.100345735820421
 20
-1.859195761643921
 10
5.278372137579809
 20
-1.513517013796053
 97
        0
 97
        0
 92
        1
 93
        1
 72
     4
 94
        3
 73
     0
 74
     1
 95
       44
 96
       40
 40
0.0
 40
0.0
 40
0.0
 40
0.0
 40
1.0
 40
1.0
 40
1.0
 40
2.0
 40
2.0
 40
2.0
 40
3.0
 40
3.0
 40
3.0
 40
4.0
 40
4.0
 40
4.0
 40
5.0
 40
5.0
 40
5.0
 40
6.0
 40
6.0
 40
6.0
 40
7.0
 40
7.0
 40
7.0
 40
8.0
 40
8.0
 40
8.0
 40
9.0
 40
9.0
 40
9.0
 40
10.0
 40
10.0
 40
10.0
 40
11.0
 40
11.0
 40
11.0
 40
12.0
 40
12.0
 40
12.0
 40
13.0
 40
13.0
 40
13.0
 40
13.0
 10
8.345773655416854
 20
-2.483306165987402
 10
7.959336118328793
 20
-2.533760875243034
 10
7.578578969906074
 20
-2.69133004027425
 10
7.147503396707785
 20
-2.979088643407838
 10
7.147503396707785
 20
-2.979088643407838
 10
7.069242364211327
 20
-3.031152784203906
 10
7.069242364211327
 20
-3.031152784203906
 10
6.903141272941664
 20
-3.141369758611669
 10
6.731843462963095
 20
-3.255038284997719
 10
6.576058246145344
 20
-3.388136334317728
 10
6.644759643106428
 20
-3.137995769599178
 10
6.708535791738919
 20
-2.869511563467957
 10
6.728178612828843
 20
-2.589877080586701
 10
6.753832563768557
 20
-2.223605965733491
 10
6.701981721128454
 20
-1.908002257876205
 10
6.569639910725047
 20
-1.624936214173784
 10
6.558412671424876
 20
-1.601008039223188
 10
6.559479162204702
 20
-1.587861116519384
 10
6.574506986829268
 20
-1.563642080447026
 10
6.674369305302156
 20
-1.402775858964686
 10
6.807796997226837
 20
-1.320307665977806
 10
6.958753919423265
 20
-1.320307665977806
 10
7.042793392872126
 20
-1.320307665977806
 10
7.132242883185805
 20
-1.345845272468826
 10
7.224310123595387
 20
-1.397715505850379
 10
7.272050129047885
 20
-1.424610464242985
 10
7.316900914024144
 20
-1.45418134495584
 10
7.357524517364102
 20
-1.485613736847995
 10
7.473461760499908
 20
-1.575315306800551
 10
7.608285585809072
 20
-1.635872592352181
 10
7.781813331054511
 20
-1.676185320331355
 10
7.93317745882142
 20
-1.711418921045467
 10
8.089738305297184
 20
-1.747795952007638
 10
8.214575898759044
 20
-1.860145907975013
 10
8.347635166596142
 20
-1.97986434569379
 10
8.414455661636465
 20
-2.135939811750139
 10
8.43128682521597
 20
-2.366263650588861
 10
8.438093536849616
 20
-2.471225734063397
 10
8.438015412499478
 20
-2.471225734063397
 10
8.345773655416854
 20
-2.483306165987402
 97
        0
 97
        0
 92
        1
 93
        1
 72
     4
 94
        3
 73
     0
 74
     1
 95
       59
 96
       55
 40
0.0
 40
0.0
 40
0.0
 40
0.0
 40
1.0
 40
1.0
 40
1.0
 40
2.0
 40
2.0
 40
2.0
 40
3.0
 40
3.0
 40
3.0
 40
4.0
 40
4.0
 40
4.0
 40
5.0
 40
5.0
 40
5.0
 40
6.0
 40
6.0
 40
6.0
 40
7.0
 40
7.0
 40
7.0
 40
8.0
 40
8.0
 40
8.0
 40
9.0
 40
9.0
 40
9.0
 40
10.0
 40
10.0
 40
10.0
 40
11.0
 40
11.0
 40
11.0
 40
12.0
 40
12.0
 40
12.0
 40
13.0
 40
13.0
 40
13.0
 40
14.0
 40
14.0
 40
14.0
 40
15.0
 40
15.0
 40
15.0
 40
16.0
 40
16.0
 40
16.0
 40
17.0
 40
17.0
 40
17.0
 40
18.0
 40
18.0
 40
18.0
 40
18.0
 10
9.11118439271412
 20
-2.711864835470919
 10
9.114403255794993
 20
-2.71252412068025
 10
9.117660900358764
 20
-2.713105842923786
 10
9.120802200473841
 20
-2.714094770737789
 10
9.235323919483738
 20
-2.749618609076113
 10
9.302415884904374
 20
-2.794915381105764
 10
9.325878682060141
 20
-2.852467101732473
 10
9.348817929196734
 20
-2.908660878095159
 10
9.333634978640577
 20
-2.984615004721389
 10
9.279592982216501
 20
-3.084768184316065
 10
9.130652697130976
 20
-3.360698435164497
 10
9.011147557568165
 20
-3.65855961459407
 10
8.905700705557338
 20
-3.921362333480147
 10
8.661959085517639
 20
-4.52864157424411
 10
8.143916036911428
 20
-4.879109835230389
 10
7.484359357195394
 20
-4.882832315098185
 10
7.468750347224032
 20
-4.882910420554784
 10
7.45315965420069
 20
-4.884015692817494
 10
7.437531252699172
 20
-4.885140355821654
 10
7.437531252699172
 20
-4.885140355821654
 10
7.421766043791422
 20
-4.886420144757418
 10
7.421766043791422
 20
-4.886420144757418
 10
7.225260269926492
 20
-4.879187398196184
 10
7.02658273301904
 20
-4.850760571228951
 10
6.834401094497681
 20
-4.823245109109899
 10
6.834401094497681
 20
-4.823245109109899
 10
6.803918848936619
 20
-4.81888219228343
 10
6.803918848936619
 20
-4.81888219228343
 10
6.746696770914594
 20
-4.810757471615438
 10
6.689280785478028
 20
-4.803738023210144
 10
6.631845925054626
 20
-4.796718574804875
 10
6.476758259174503
 20
-4.777793211148643
 10
6.316435608857242
 20
-4.758227953024541
 10
6.164335136859639
 20
-4.714908489889997
 10
6.065112208910199
 20
-4.686656726328717
 10
6.006358262313508
 20
-4.650105178693492
 10
5.979463303920903
 20
-4.599883158335261
 10
5.952490782562487
 20
-4.549428449079642
 10
5.954759499312268
 20
-4.479757515046016
 10
5.98659909677489
 20
-4.380612098828831
 10
6.029627152054773
 20
-4.246738975028746
 10
6.129877285356693
 20
-4.144026217562542
 10
6.218376629339269
 20
-4.053335719795983
 10
6.640299772572689
 20
-3.621019139144841
 10
7.112755188027499
 20
-3.258877651805026
 10
7.622634734482845
 20
-2.977013834072573
 10
7.901492987290389
 20
-2.822838048795271
 10
8.219695054502102
 20
-2.734222360363977
 10
8.654454868576092
 20
-2.689759390216725
 10
8.803879922197869
 20
-2.674363141504589
 10
8.949969768290076
 20
-2.664299346691501
 10
9.094139930978649
 20
-2.707734607541852
 10
9.099763245999434
 20
-2.709440992789546
 10
9.10544473324459
 20
-2.710662609500964
 10
9.11118439271412
 20
-2.711864835470919
 97
        0
 97
        0
 92
        1
 93
        1
 72
     4
 94
        3
 73
     0
 74
     1
 95
       26
 96
       22
 40
0.0
 40
0.0
 40
0.0
 40
0.0
 40
1.0
 40
1.0
 40
1.0
 40
2.0
 40
2.0
 40
2.0
 40
3.0
 40
3.0
 40
3.0
 40
4.0
 40
4.0
 40
4.0
 40
5.0
 40
5.0
 40
5.0
 40
6.0
 40
6.0
 40
6.0
 40
7.0
 40
7.0
 40
7.0
 40
7.0
 10
5.076999282523616
 20
-4.628368157526867
 10
5.076999282523616
 20
-4.628368157526867
 10
5.138758795605276
 20
-4.628736581614425
 10
5.138758795605276
 20
-4.628736581614425
 10
5.189174724651656
 20
-4.629182568667804
 10
5.239668216665791
 20
-4.62958922535011
 10
5.289929019776511
 20
-4.627495574161558
 10
5.319499901236415
 20
-4.626254566708692
 10
5.319674417913878
 20
-4.628116077887992
 10
5.323552566302143
 20
-4.642058020991296
 10
5.340092869177687
 20
-4.702285663938255
 10
5.365960118926788
 20
-4.77827797968492
 10
5.424287470685019
 20
-4.849694080449138
 10
5.336369846725082
 20
-4.874126414677461
 10
5.252950874895368
 20
-4.877946390743318
 10
5.169376777129994
 20
-4.861502498963268
 10
5.008918387568971
 20
-4.829818570461813
 10
4.86911113817516
 20
-4.757355369659232
 10
4.75319328285237
 20
-4.645800434091345
 10
4.855712135494059
 20
-4.63521254051289
 10
4.961973401330144
 20
-4.629512211272464
 10
5.076999282523616
 20
-4.628368157526867
 97
        0
 97
        0
 92
        1
 93
        1
 72
     4
 94
        3
 73
     0
 74
     1
 95
       59
 96
       55
 40
0.0
 40
0.0
 40
0.0
 40
0.0
 40
1.0
 40
1.0
 40
1.0
 40
2.0
 40
2.0
 40
2.0
 40
3.0
 40
3.0
 40
3.0
 40
4.0
 40
4.0
 40
4.0
 40
5.0
 40
5.0
 40
5.0
 40
6.0
 40
6.0
 40
6.0
 40
7.0
 40
7.0
 40
7.0
 40
8.0
 40
8.0
 40
8.0
 40
9.0
 40
9.0
 40
9.0
 40
10.0
 40
10.0
 40
10.0
 40
11.0
 40
11.0
 40
11.0
 40
12.0
 40
12.0
 40
12.0
 40
13.0
 40
13.0
 40
13.0
 40
14.0
 40
14.0
 40
14.0
 40
15.0
 40
15.0
 40
15.0
 40
16.0
 40
16.0
 40
16.0
 40
17.0
 40
17.0
 40
17.0
 40
18.0
 40
18.0
 40
18.0
 40
18.0
 10
5.806982658713815
 20
-5.014379647592906
 10
5.813245868202507
 20
-5.023919892386819
 10
5.817376096131574
 20
-5.03212217602062
 10
5.821835966665327
 20
-5.040828618932133
 10
5.825908022370046
 20
-5.04875943218561
 10
5.830154594747821
 20
-5.057000497302308
 10
5.83573912828572
 20
-5.066579523579119
 10
6.101838273218466
 20
-5.523813206994873
 10
6.50821004180812
 20
-5.819289325225971
 10
7.04353024104724
 20
-5.944824985380061
 10
7.125340307450541
 20
-5.964002428675157
 10
7.207363145860704
 20
-5.963886084226449
 10
7.286166588824218
 20
-5.963401315690172
 10
7.286166588824218
 20
-5.963401315690172
 10
7.309959028584672
 20
-5.963343143465813
 10
7.309959028584672
 20
-5.963343143465813
 10
7.30999781006757
 20
-5.963343143465813
 10
7.31009476377484
 20
-5.963343143465813
 10
7.310134078147408
 20
-5.963343143465813
 10
7.340906651940561
 20
-5.963343143465813
 10
7.366230960275616
 20
-5.97208836786025
 10
7.381549646021944
 20
-5.987930603625752
 10
7.392195163078567
 20
-5.999002716994306
 10
7.397294928080201
 20
-6.012944660097597
 10
7.396674424353781
 20
-6.029446181072444
 10
7.396073311368784
 20
-6.045443542769564
 10
7.390159135226213
 20
-6.0526375078479
 10
7.385757971716985
 20
-6.056670782069735
 10
7.377458199575762
 20
-6.064213780494179
 10
7.355294582097232
 20
-6.076507510574149
 10
7.301756744950883
 20
-6.0738315882539
 10
7.286108416599896
 20
-6.071272010382371
 10
7.269374206727611
 20
-6.068848167700986
 10
7.251786804231515
 20
-6.066327371312329
 10
7.210911121252694
 20
-6.06047136739413
 10
7.164528467701782
 20
-6.053820343076419
 10
7.120938080919839
 20
-6.042728838966418
 10
6.9871419649076
 20
-6.008775650685619
 10
6.850999569179773
 20
-6.004897502395415
 10
6.719394606951507
 20
-6.001135698553904
 10
6.661338727047071
 20
-5.999487485530582
 10
6.603302237884084
 20
-5.997878053990133
 10
6.545459656135588
 20
-5.993670263095257
 10
6.27643250924373
 20
-5.974027442005346
 10
6.081749465075189
 20
-5.828810179278435
 10
5.93277039850678
 20
-5.536688133345428
 10
5.859822429167921
 20
-5.39364315963399
 10
5.837542467240673
 20
-5.239234151971901
 10
5.813905153411838
 20
-5.075770197410141
 10
5.813905153411838
 20
-5.075770197410141
 10
5.79938148806501
 20
-5.016532019893967
 10
5.79938148806501
 20
-5.016532019893967
 10
5.802968775233453
 20
-5.01565889739345
 10
5.805857995709655
 20
-5.015038932802238
 10
5.806982658713815
 20
-5.014379647592906
 97
        0
 97
        0
 92
        1
 93
        1
 72
     4
 94
        3
 73
     0
 74
     1
 95
       80
 96
       76
 40
0.0
 40
0.0
 40
0.0
 40
0.0
 40
1.0
 40
1.0
 40
1.0
 40
2.0
 40
2.0
 40
2.0
 40
3.0
 40
3.0
 40
3.0
 40
4.0
 40
4.0
 40
4.0
 40
5.0
 40
5.0
 40
5.0
 40
6.0
 40
6.0
 40
6.0
 40
7.0
 40
7.0
 40
7.0
 40
8.0
 40
8.0
 40
8.0
 40
9.0
 40
9.0
 40
9.0
 40
10.0
 40
10.0
 40
10.0
 40
11.0
 40
11.0
 40
11.0
 40
12.0
 40
12.0
 40
12.0
 40
13.0
 40
13.0
 40
13.0
 40
14.0
 40
14.0
 40
14.0
 40
15.0
 40
15.0
 40
15.0
 40
16.0
 40
16.0
 40
16.0
 40
17.0
 40
17.0
 40
17.0
 40
18.0
 40
18.0
 40
18.0
 40
19.0
 40
19.0
 40
19.0
 40
20.0
 40
20.0
 40
20.0
 40
21.0
 40
21.0
 40
21.0
 40
22.0
 40
22.0
 40
22.0
 40
23.0
 40
23.0
 40
23.0
 40
24.0
 40
24.0
 40
24.0
 40
25.0
 40
25.0
 40
25.0
 40
25.0
 10
6.06053599392774
 20
-4.969121116735146
 10
6.05533927521886
 20
-4.960958154895252
 10
6.049929759408315
 20
-4.952678308295668
 10
6.044402897040476
 20
-4.939182352245729
 10
6.043859956279852
 20
-4.937902022210285
 10
6.043297624777753
 20
-4.936506429925481
 10
6.042677121051333
 20
-4.934974561350852
 10
6.042677121051333
 20
-4.934974561350852
 10
6.049774132422398
 20
-4.937437185515137
 10
6.049774132422398
 20
-4.937437185515137
 10
6.206373760381084
 20
-4.989055339257826
 10
6.369120253379757
 20
-5.009279882591272
 10
6.526554196315575
 20
-5.028825749973925
 10
6.566576173575767
 20
-5.033828561268314
 10
6.60655988244783
 20
-5.038773200338331
 10
6.646446637612674
 20
-5.044260780168972
 10
6.705452663848215
 20
-5.052307399661635
 10
6.764361736376486
 20
-5.061169506714287
 10
6.823270808904781
 20
-5.070050466298867
 10
7.026989938589495
 20
-5.100649056308624
 10
7.237185575918879
 20
-5.131421626780567
 10
7.449494804066439
 20
-5.130355672211635
 10
7.905739559668164
 20
-5.12607031835095
 10
8.300922870440546
 20
-4.99268140790918
 10
8.62408896746375
 20
-4.733931353986375
 10
8.66192030403474
 20
-4.703643015839841
 10
8.696687903456475
 20
-4.668914197901004
 10
8.728624454626344
 20
-4.635949937434209
 10
8.784024373075226
 20
-4.578727859412171
 10
8.801649986930999
 20
-4.583672498482188
 10
8.866783487465101
 20
-4.602113093602131
 10
8.958210833406786
 20
-4.627863998249128
 10
9.027435780387046
 20
-4.672346359137842
 10
9.072480472777821
 20
-4.734299231830972
 10
9.214323746492255
 20
-4.92952576300311
 10
9.404140300345311
 20
-5.085097681664883
 10
9.687865043468314
 20
-5.238769307664445
 10
9.775162161480946
 20
-5.286102107546463
 10
9.843223663974134
 20
-5.350576322871196
 10
9.890129867544248
 20
-5.430446786908078
 10
9.94863233404582
 20
-5.52992129055196
 10
9.959122125627067
 20
-5.628057833035718
 10
9.921329570538974
 20
-5.722219273522013
 10
9.87029373660448
 20
-5.849480709665259
 10
9.742643888067555
 20
-5.936157323951445
 10
9.63880646759718
 20
-5.965611345078072
 10
9.569543329101204
 20
-5.9853322442713
 10
9.505844153467326
 20
-5.987736696211237
 10
9.47163888554769
 20
-5.987814259177045
 10
9.34922513476719
 20
-5.991071903740817
 10
9.24007465113924
 20
-5.963401315690172
 10
9.134162421333611
 20
-5.93673904619498
 10
9.134162421333611
 20
-5.93673904619498
 10
9.10598767400524
 20
-5.929642034823902
 10
9.10598767400524
 20
-5.929642034823902
 10
9.00825833709195
 20
-5.905267872819928
 10
8.910858642783321
 20
-5.87955574965584
 10
8.813439557733242
 20
-5.85386301723319
 10
8.693973199653353
 20
-5.82233367163379
 10
8.574448669349067
 20
-5.790823716775827
 10
8.454361807542732
 20
-5.76169882311635
 10
8.270033419309028
 20
-5.716964382588785
 10
8.069901576792745
 20
-5.695304402422051
 10
7.83568081080552
 20
-5.695304402422051
 10
7.768860315765222
 20
-5.695304402422051
 10
7.699247553955956
 20
-5.69704956919673
 10
7.626474101290164
 20
-5.700559815321185
 10
7.579490334754255
 20
-5.702828532070965
 10
7.532409614511127
 20
-5.706667898878272
 10
7.48538706649232
 20
-5.710546047168489
 10
7.332277771994844
 20
-5.723033163397531
 10
7.187681012994339
 20
-5.734920209172452
 10
7.043491459564343
 20
-5.694315996573954
 10
6.624050331236705
 20
-5.576381507068668
 10
6.293341235789032
 20
-5.332387807390116
 10
6.06053599392774
 20
-4.969121116735146
 97
        0
 97
        0
 92
        1
 93
        1
 72
     4
 94
        3
 73
     0
 74
     1
 95
       17
 96
       13
 40
0.0
 40
0.0
 40
0.0
 40
0.0
 40
1.0
 40
1.0
 40
1.0
 40
2.0
 40
2.0
 40
2.0
 40
3.0
 40
3.0
 40
3.0
 40
4.0
 40
4.0
 40
4.0
 40
4.0
 10
3.389015805826223
 20
-9.370199033577666
 10
3.237864972396803
 20
-9.467191524765969
 10
3.065985435832772
 20
-9.519546528006483
 10
2.866357747551079
 20
-9.529823621235133
 10
2.698938081633489
 20
-9.53860762733431
 10
2.570513197758904
 20
-9.477061412413907
 10
2.475614906700065
 20
-9.341946722569775
 10
2.42719622407358
 20
-9.273051416453729
 10
2.387871799417427
 20
-9.134388220834277
 10
2.365048896153022
 20
-9.005711257314488
 10
2.693198422018832
 20
-9.158568476034638
 10
3.036860541437527
 20
-9.280885276197825
 10
3.389015805826223
 20
-9.370199033577666
 97
        0
 97
        0
 92
        1
 93
        1
 72
     4
 94
        3
 73
     0
 74
     1
 95
       17
 96
       13
 40
0.0
 40
0.0
 40
0.0
 40
0.0
 40
1.0
 40
1.0
 40
1.0
 40
2.0
 40
2.0
 40
2.0
 40
3.0
 40
3.0
 40
3.0
 40
4.0
 40
4.0
 40
4.0
 40
4.0
 10
6.410965473431108
 20
-9.047129882100256
 10
6.410965473431108
 20
-9.047129882100256
 10
6.422716262750428
 20
-9.030744705160208
 10
6.422716262750428
 20
-9.030744705160208
 10
6.506755736199288
 20
-8.91350827938557
 10
6.593568085675643
 20
-8.792374314480714
 10
6.685266901997642
 20
-8.678182235190787
 10
7.025341725566149
 20
-8.646323246181812
 10
7.361073023049634
 20
-8.581558168099239
 10
7.687380420187916
 20
-8.485031054717435
 10
7.287155516638247
 20
-8.725670162203995
 10
6.859376369486628
 20
-8.914090001643746
 10
6.410965473431108
 20
-9.047129882100256
 97
        0
 97
        0
 92
        1
 93
        1
 72
     4
 94
        3
 73
     0
 74
     1
 95
       38
 96
       34
 40
0.0
 40
0.0
 40
0.0
 40
0.0
 40
1.0
 40
1.0
 40
1.0
 40
2.0
 40
2.0
 40
2.0
 40
3.0
 40
3.0
 40
3.0
 40
4.0
 40
4.0
 40
4.0
 40
5.0
 40
5.0
 40
5.0
 40
6.0
 40
6.0
 40
6.0
 40
7.0
 40
7.0
 40
7.0
 40
8.0
 40
8.0
 40
8.0
 40
9.0
 40
9.0
 40
9.0
 40
10.0
 40
10.0
 40
10.0
 40
11.0
 40
11.0
 40
11.0
 40
11.0
 10
6.326848437016451
 20
-8.747775608016733
 10
6.302959043548778
 20
-8.780410226703149
 10
6.279108431563978
 20
-8.813044845389715
 10
6.254966958457417
 20
-8.845466165914887
 10
6.223573348048173
 20
-8.887641029636294
 10
6.193013539521315
 20
-8.930455787841815
 10
6.162434340253008
 20
-8.973251155305357
 10
6.121422922084043
 20
-9.030667142192467
 10
6.080411503915053
 20
-9.088141301305313
 10
6.037383448635183
 20
-9.143909075127288
 10
5.439024434560097
 20
-9.277007127809737
 10
4.827246526324731
 20
-9.309486620560644
 10
4.21884260718702
 20
-9.240009592186425
 10
4.131875129582176
 20
-9.23031422121595
 10
4.04157244436327
 20
-9.217923537115691
 10
3.949524592369862
 20
-9.203070228789075
 10
3.974596821699543
 20
-9.178114343911096
 10
3.999649660287067
 20
-9.153080896065376
 10
4.024683108132788
 20
-9.128066838961608
 10
4.230341317157947
 20
-8.922583146613936
 10
4.443018974765803
 20
-8.710118787167326
 10
4.682591591445594
 20
-8.535931752312257
 10
4.682591591445594
 20
-8.535931752312257
 10
4.736672370718805
 20
-8.496238903559362
 10
4.736672370718805
 20
-8.496238903559362
 10
5.016810419539007
 20
-8.576283886291245
 10
5.305771255942343
 20
-8.634359158404246
 10
5.596283351700928
 20
-8.668991023510745
 10
5.849467773233073
 20
-8.696797347453968
 10
6.107151336376066
 20
-8.70668662584391
 10
6.363264249461533
 20
-8.698077136422196
 10
6.351106254571732
 20
-8.71465622078151
 10
6.338967650423355
 20
-8.731196523657218
 10
6.326848437016451
 20
-8.747775608016733
 97
        0
 97
        0
 92
        1
 93
        1
 72
     4
 94
        3
 73
     0
 74
     1
 95
       41
 96
       37
 40
0.0
 40
0.0
 40
0.0
 40
0.0
 40
1.0
 40
1.0
 40
1.0
 40
2.0
 40
2.0
 40
2.0
 40
3.0
 40
3.0
 40
3.0
 40
4.0
 40
4.0
 40
4.0
 40
5.0
 40
5.0
 40
5.0
 40
6.0
 40
6.0
 40
6.0
 40
7.0
 40
7.0
 40
7.0
 40
8.0
 40
8.0
 40
8.0
 40
9.0
 40
9.0
 40
9.0
 40
10.0
 40
10.0
 40
10.0
 40
11.0
 40
11.0
 40
11.0
 40
12.0
 40
12.0
 40
12.0
 40
12.0
 10
2.04428724296665
 20
-6.69840737039221
 10
2.670297955786686
 20
-7.48726103740647
 10
3.501656625760916
 20
-8.076545684990403
 10
4.452598001284577
 20
-8.406343423921346
 10
4.288435980012941
 20
-8.53659103753835
 10
4.127531603387259
 20
-8.680082527900973
 10
3.962729687631698
 20
-8.843119886140054
 10
3.962729687631698
 20
-8.843119886140054
 10
3.864709487120396
 20
-8.940694099586683
 10
3.864709487120396
 20
-8.940694099586683
 10
3.794980379100959
 20
-9.010326253896386
 10
3.725290052565305
 20
-9.079977798948095
 10
3.653970903706674
 20
-9.1480005216768
 10
2.400126748324169
 20
-8.878100784601479
 10
1.311957092084577
 20
-8.20485422441344
 10
0.5059421218272366
 20
-7.199987195552037
 10
-0.4202372762379001
 20
-6.045327198320845
 10
-0.8392324280969963
 20
-4.596257089683919
 10
-0.6738293993411035
 20
-3.119768472635201
 10
-0.5066618130685406
 20
-1.626468082748412
 10
0.2239231710386775
 20
-0.2969612858986592
 10
1.383373194652929
 20
0.6239050256116975
 10
2.364932551701322
 20
1.403471004168232
 10
3.553623814162531
 20
1.815524260003031
 10
4.82100270741983
 20
1.815524260003031
 10
4.963175627330441
 20
1.815524260003031
 10
5.106861025112519
 20
1.810133633879647
 10
5.250527032152617
 20
1.799488116823012
 10
4.336796490413487
 20
1.635326099698432
 10
3.486047078498473
 20
1.236090123962766
 10
2.772661682492715
 20
0.6339300389418743
 10
1.743536835463209
 20
-0.234871471864191
 10
1.091988515507018
 20
-1.461317137809829
 10
0.9380260244962907
 20
-2.8195804042315
 10
0.7792352387422044
 20
-4.221783090781249
 10
1.172111061206806
 20
-5.599320229814427
 10
2.04428724296665
 20
-6.69840737039221
 97
        0
 97
        0
 92
        1
 93
        1
 72
     4
 94
        3
 73
     0
 74
     1
 95
       17
 96
       13
 40
0.0
 40
0.0
 40
0.0
 40
0.0
 40
1.0
 40
1.0
 40
1.0
 40
2.0
 40
2.0
 40
2.0
 40
3.0
 40
3.0
 40
3.0
 40
4.0
 40
4.0
 40
4.0
 40
4.0
 10
5.52017468958291
 20
-8.375415190525473
 10
5.521241180389514
 20
-8.376966449880886
 10
5.522404624906029
 20
-8.378634053687644
 10
5.523587460164523
 20
-8.38035982972052
 10
5.366658185636664
 20
-8.358487072811032
 10
5.210174898173628
 20
-8.32953669509344
 10
5.05625118864686
 20
-8.293838339180159
 10
5.096894183754848
 20
-8.275436525078248
 10
5.13627678063694
 20
-8.261417018655013
 10
5.176260490518997
 20
-8.250984799490677
 10
5.34024799511317
 20
-8.20799552460787
 10
5.423919046588278
 20
-8.238361426487193
 10
5.52017468958291
 20
-8.375415190525473
 97
        0
 97
        0
 75
     2
 76
     1
 98
        0
  0
ENDSEC
  0
SECTION
  2
OBJECTS
  0
DICTIONARY
  5
C
330
0
100
AcDbDictionary
281
     1
  3
ACAD_GROUP
350
D
  3
ACAD_LAYOUT
350
1A
  3
ACAD_MATERIAL
350
3B
  3
ACAD_MLEADERSTYLE
350
50
  3
ACAD_MLINESTYLE
350
17
  3
ACAD_PLOTSETTINGS
350
19
  3
ACAD_PLOTSTYLENAME
350
E
  3
ACAD_TABLESTYLE
350
4F
  3
ACAD_VISUALSTYLE
350
2A
  0
SUN
  5
3F
330
29
100
AcDbSun
 90
        1
290
     0
 63
     7
421
 16777215
 40
1.0
291
     1
 91
  2455826
 92
 54000000
292
     0
 70
     2
 71
   256
280
     1
  0
DICTIONARY
  5
D
102
{ACAD_REACTORS
330
C
102
}
330
C
100
AcDbDictionary
281
     1
  0
DICTIONARY
  5
1A
102
{ACAD_REACTORS
330
C
102
}
330
C
100
AcDbDictionary
281
     1
  3
Layout1
350
1E
  3
Layout2
350
26
  3
Model
350
22
  0
DICTIONARY
  5
3B
102
{ACAD_REACTORS
330
C
102
}
330
C
100
AcDbDictionary
281
     1
  3
ByBlock
350
3D
  3
ByLayer
350
3C
  3
Global
350
3E
  0
DICTIONARY
  5
50
102
{ACAD_REACTORS
330
C
102
}
330
C
100
AcDbDictionary
281
     1
  0
DICTIONARY
  5
17
102
{ACAD_REACTORS
330
C
102
}
330
C
100
AcDbDictionary
281
     1
  3
Standard
350
18
  0
DICTIONARY
  5
19
102
{ACAD_REACTORS
330
C
102
}
330
C
100
AcDbDictionary
281
     1
  0
ACDBDICTIONARYWDFLT
  5
E
102
{ACAD_REACTORS
330
C
102
}
330
C
100
AcDbDictionary
281
     1
  3
Normal
350
F
100
AcDbDictionaryWithDefault
340
F
  0
DICTIONARY
  5
4F
102
{ACAD_REACTORS
330
C
102
}
330
C
100
AcDbDictionary
281
     1
  0
DICTIONARY
  5
2A
102
{ACAD_REACTORS
330
C
102
}
330
C
100
AcDbDictionary
281
     1
  3
2dWireframe
350
2F
  3
3D Hidden
350
31
  3
3dWireframe
350
30
  3
Basic
350
32
  3
Brighten
350
36
  3
ColorChange
350
3A
  3
Conceptual
350
34
  3
Dim
350
35
  3
Facepattern
350
39
  3
Flat
350
2B
  3
FlatWithEdges
350
2C
  3
Gouraud
350
2D
  3
GouraudWithEdges
350
2E
  3
Linepattern
350
38
  3
Realistic
350
33
  3
Thicken
350
37
  0
LAYOUT
  5
1E
102
{ACAD_REACTORS
330
1A
102
}
330
1A
100
AcDbPlotSettings
  1

  2
none_device
  4

  6

 40
0.0
 41
0.0
 42
0.0
 43
0.0
 44
0.0
 45
0.0
 46
0.0
 47
0.0
 48
0.0
 49
0.0
140
0.0
141
0.0
142
1.0
143
1.0
 70
   688
 72
     0
 73
     0
 74
     5
  7

 75
    16
 76
     0
 77
     2
 78
   300
147
1.0
148
0.0
149
0.0
100
AcDbLayout
  1
Layout1
 70
     1
 71
     1
 10
0.0
 20
0.0
 11
12.0
 21
9.0
 12
0.0
 22
0.0
 32
0.0
 14
1.000000000000000E+20
 24
1.000000000000000E+20
 34
1.000000000000000E+20
 15
-1.000000000000000E+20
 25
-1.000000000000000E+20
 35
-1.000000000000000E+20
146
0.0
 13
0.0
 23
0.0
 33
0.0
 16
1.0
 26
0.0
 36
0.0
 17
0.0
 27
1.0
 37
0.0
 76
     0
330
1B
  0
LAYOUT
  5
26
102
{ACAD_REACTORS
330
1A
102
}
330
1A
100
AcDbPlotSettings
  1

  2
none_device
  4

  6

 40
0.0
 41
0.0
 42
0.0
 43
0.0
 44
0.0
 45
0.0
 46
0.0
 47
0.0
 48
0.0
 49
0.0
140
0.0
141
0.0
142
1.0
143
1.0
 70
   688
 72
     0
 73
     0
 74
     5
  7

 75
    16
 76
     0
 77
     2
 78
   300
147
1.0
148
0.0
149
0.0
100
AcDbLayout
  1
Layout2
 70
     1
 71
     2
 10
0.0
 20
0.0
 11
0.0
 21
0.0
 12
0.0
 22
0.0
 32
0.0
 14
0.0
 24
0.0
 34
0.0
 15
0.0
 25
0.0
 35
0.0
146
0.0
 13
0.0
 23
0.0
 33
0.0
 16
1.0
 26
0.0
 36
0.0
 17
0.0
 27
1.0
 37
0.0
 76
     0
330
23
  0
LAYOUT
  5
22
102
{ACAD_REACTORS
330
1A
102
}
330
1A
100
AcDbPlotSettings
  1

  2
none_device
  4

  6

 40
0.0
 41
0.0
 42
0.0
 43
0.0
 44
0.0
 45
0.0
 46
0.0
 47
0.0
 48
0.0
 49
0.0
140
0.0
141
0.0
142
1.0
143
1.0
 70
  1712
 72
     0
 73
     0
 74
     0
  7

 75
     0
 76
     0
 77
     2
 78
   300
147
1.0
148
0.0
149
0.0
100
AcDbLayout
  1
Model
 70
     1
 71
     0
 10
0.0
 20
0.0
 11
12.0
 21
9.0
 12
0.0
 22
0.0
 32
0.0
 14
1.000000000000000E+20
 24
1.000000000000000E+20
 34
1.000000000000000E+20
 15
-1.000000000000000E+20
 25
-1.000000000000000E+20
 35
-1.000000000000000E+20
146
0.0
 13
0.0
 23
0.0
 33
0.0
 16
1.0
 26
0.0
 36
0.0
 17
0.0
 27
1.0
 37
0.0
 76
     0
330
1F
331
29
  0
MATERIAL
  5
3D
102
{ACAD_REACTORS
330
3B
102
}
330
3B
100
AcDbMaterial
  1
ByBlock
 72
     1
 94
      127
  0
MATERIAL
  5
3C
102
{ACAD_REACTORS
330
3B
102
}
330
3B
100
AcDbMaterial
  1
ByLayer
 72
     1
 94
      127
  0
MATERIAL
  5
3E
102
{ACAD_REACTORS
330
3B
102
}
330
3B
100
AcDbMaterial
  1
Global
 72
     1
 94
      127
  0
MLINESTYLE
  5
18
102
{ACAD_REACTORS
330
17
102
}
330
17
100
AcDbMlineStyle
  2
Standard
 70
     0
  3

 62
   256
 51
90.0
 52
90.0
 71
     2
 49
0.5
 62
   256
  6
BYLAYER
 49
-0.5
 62
   256
  6
BYLAYER
  0
ACDBPLACEHOLDER
  5
F
102
{ACAD_REACTORS
330
E
102
}
330
E
  0
VISUALSTYLE
  5
2F
102
{ACAD_REACTORS
330
2A
102
}
330
2A
100
AcDbVisualStyle
  2
2dWireframe
 70
     4
177
     2
291
     0
 71
     0
176
     1
 72
     2
176
     1
 73
     0
176
     1
 90
        0
176
     1
 40
-0.6
176
     1
 41
-30.0
176
     1
 62
     5
 63
     7
421
 16777215
176
     1
 74
     1
176
     1
 91
        4
176
     1
 64
     7
176
     1
 65
   257
176
     1
 75
     1
176
     1
175
     1
176
     1
 42
1.0
176
     1
 92
        0
176
     1
 66
   257
176
     1
 43
1.0
176
     1
 76
     1
176
     1
 77
     6
176
     1
 78
     2
176
     1
 67
     7
176
     1
 79
     5
176
     1
170
     0
176
     1
171
     0
176
     1
290
     0
176
     1
 93
        1
176
     1
 44
0.0
176
     1
173
     0
176
     1
  0
VISUALSTYLE
  5
31
102
{ACAD_REACTORS
330
2A
102
}
330
2A
100
AcDbVisualStyle
  2
3D Hidden
 70
     6
177
     2
291
     0
 71
     1
176
     1
 72
     2
176
     1
 73
     2
176
     1
 90
        0
176
     1
 40
-0.6
176
     1
 41
-30.0
176
     1
 62
     5
 63
     7
421
 16777215
176
     1
 74
     2
176
     1
 91
        2
176
     1
 64
     7
176
     1
 65
   257
176
     1
 75
     2
176
     1
175
     1
176
     1
 42
40.0
176
     1
 92
        0
176
     1
 66
   257
176
     1
 43
1.0
176
     1
 76
     1
176
     1
 77
     6
176
     1
 78
     2
176
     1
 67
     7
176
     1
 79
     3
176
     1
170
     0
176
     1
171
     0
176
     1
290
     0
176
     1
 93
        1
176
     1
 44
0.0
176
     1
173
     0
176
     1
  0
VISUALSTYLE
  5
30
102
{ACAD_REACTORS
330
2A
102
}
330
2A
100
AcDbVisualStyle
  2
3dWireframe
 70
     5
177
     2
291
     0
 71
     0
176
     1
 72
     2
176
     1
 73
     0
176
     1
 90
        0
176
     1
 40
-0.6
176
     1
 41
-30.0
176
     1
 62
     5
 63
     7
421
 16777215
176
     1
 74
     1
176
     1
 91
        4
176
     1
 64
     7
176
     1
 65
   257
176
     1
 75
     1
176
     1
175
     1
176
     1
 42
1.0
176
     1
 92
        0
176
     1
 66
   257
176
     1
 43
1.0
176
     1
 76
     1
176
     1
 77
     6
176
     1
 78
     2
176
     1
 67
     7
176
     1
 79
     5
176
     1
170
     0
176
     1
171
     0
176
     1
290
     0
176
     1
 93
        1
176
     1
 44
0.0
176
     1
173
     0
176
     1
  0
VISUALSTYLE
  5
32
102
{ACAD_REACTORS
330
2A
102
}
330
2A
100
AcDbVisualStyle
  2
Basic
 70
     7
177
     2
291
     1
 71
     1
176
     1
 72
     0
176
     1
 73
     1
176
     1
 90
        0
176
     1
 40
-0.6
176
     1
 41
-30.0
176
     1
 62
     5
 63
     7
421
 16777215
176
     1
 74
     0
176
     1
 91
        4
176
     1
 64
     7
176
     1
 65
   257
176
     1
 75
     1
176
     1
175
     1
176
     1
 42
1.0
176
     1
 92
        8
176
     1
 66
     7
176
     1
 43
1.0
176
     1
 76
     1
176
     1
 77
     6
176
     1
 78
     2
176
     1
 67
     7
176
     1
 79
     5
176
     1
170
     0
176
     1
171
     0
176
     1
290
     0
176
     1
 93
        1
176
     1
 44
0.0
176
     1
173
     0
176
     1
  0
VISUALSTYLE
  5
36
102
{ACAD_REACTORS
330
2A
102
}
330
2A
100
AcDbVisualStyle
  2
Brighten
 70
    12
177
     2
291
     1
 71
     2
176
     1
 72
     2
176
     1
 73
     0
176
     1
 90
        0
176
     1
 40
-0.6
176
     1
 41
-30.0
176
     1
 62
     5
 63
     7
421
 16777215
176
     1
 74
     1
176
     1
 91
        4
176
     1
 64
     7
176
     1
 65
   257
176
     1
 75
     1
176
     1
175
     1
176
     1
 42
1.0
176
     1
 92
        8
176
     1
 66
     7
176
     1
 43
1.0
176
     1
 76
     1
176
     1
 77
     6
176
     1
 78
     2
176
     1
 67
     7
176
     1
 79
     5
176
     1
170
     0
176
     1
171
     0
176
     1
290
     0
176
     1
 93
        1
176
     1
 44
50.0
176
     1
173
     0
176
     1
  0
VISUALSTYLE
  5
3A
102
{ACAD_REACTORS
330
2A
102
}
330
2A
100
AcDbVisualStyle
  2
ColorChange
 70
    16
177
     2
291
     1
 71
     2
176
     1
 72
     2
176
     1
 73
     3
176
     1
 90
        0
176
     1
 40
-0.6
176
     1
 41
-30.0
176
     1
 62
     5
 63
     8
421
  8421504
176
     1
 74
     1
176
     1
 91
        4
176
     1
 64
     7
176
     1
 65
   257
176
     1
 75
     1
176
     1
175
     1
176
     1
 42
1.0
176
     1
 92
        8
176
     1
 66
     8
424
  8421504
176
     1
 43
1.0
176
     1
 76
     1
176
     1
 77
     6
176
     1
 78
     2
176
     1
 67
     7
176
     1
 79
     5
176
     1
170
     0
176
     1
171
     0
176
     1
290
     0
176
     1
 93
        1
176
     1
 44
0.0
176
     1
173
     0
176
     1
  0
VISUALSTYLE
  5
34
102
{ACAD_REACTORS
330
2A
102
}
330
2A
100
AcDbVisualStyle
  2
Conceptual
 70
     9
177
     2
291
     0
 71
     3
176
     1
 72
     2
176
     1
 73
     0
176
     1
 90
        0
176
     1
 40
-0.6
176
     1
 41
-30.0
176
     1
 62
     5
 63
     7
421
 16777215
176
     1
 74
     2
176
     1
 91
        2
176
     1
 64
     7
176
     1
 65
   257
176
     1
 75
     1
176
     1
175
     1
176
     1
 42
40.0
176
     1
 92
        8
176
     1
 66
     7
176
     1
 43
1.0
176
     1
 76
     1
176
     1
 77
     6
176
     1
 78
     2
176
     1
 67
     7
176
     1
 79
     3
176
     1
170
     0
176
     1
171
     0
176
     1
290
     0
176
     1
 93
        1
176
     1
 44
0.0
176
     1
173
     0
176
     1
  0
VISUALSTYLE
  5
35
102
{ACAD_REACTORS
330
2A
102
}
330
2A
100
AcDbVisualStyle
  2
Dim
 70
    11
177
     2
291
     1
 71
     2
176
     1
 72
     2
176
     1
 73
     0
176
     1
 90
        0
176
     1
 40
-0.6
176
     1
 41
-30.0
176
     1
 62
     5
 63
     7
421
 16777215
176
     1
 74
     1
176
     1
 91
        4
176
     1
 64
     7
176
     1
 65
   257
176
     1
 75
     1
176
     1
175
     1
176
     1
 42
1.0
176
     1
 92
        8
176
     1
 66
     7
176
     1
 43
1.0
176
     1
 76
     1
176
     1
 77
     6
176
     1
 78
     2
176
     1
 67
     7
176
     1
 79
     5
176
     1
170
     0
176
     1
171
     0
176
     1
290
     0
176
     1
 93
        1
176
     1
 44
-50.0
176
     1
173
     0
176
     1
  0
VISUALSTYLE
  5
39
102
{ACAD_REACTORS
330
2A
102
}
330
2A
100
AcDbVisualStyle
  2
Facepattern
 70
    15
177
     2
291
     1
 71
     2
176
     1
 72
     2
176
     1
 73
     0
176
     1
 90
        0
176
     1
 40
-0.6
176
     1
 41
-30.0
176
     1
 62
     5
 63
     7
421
 16777215
176
     1
 74
     1
176
     1
 91
        4
176
     1
 64
     7
176
     1
 65
   257
176
     1
 75
     1
176
     1
175
     1
176
     1
 42
1.0
176
     1
 92
        8
176
     1
 66
     7
176
     1
 43
1.0
176
     1
 76
     1
176
     1
 77
     6
176
     1
 78
     2
176
     1
 67
     7
176
     1
 79
     5
176
     1
170
     0
176
     1
171
     0
176
     1
290
     0
176
     1
 93
        1
176
     1
 44
0.0
176
     1
173
     0
176
     1
  0
VISUALSTYLE
  5
2B
102
{ACAD_REACTORS
330
2A
102
}
330
2A
100
AcDbVisualStyle
  2
Flat
 70
     0
177
     2
291
     1
 71
     2
176
     1
 72
     1
176
     1
 73
     1
176
     1
 90
        2
176
     1
 40
-0.6
176
     1
 41
30.0
176
     1
 62
     5
 63
     7
421
 16777215
176
     1
 74
     0
176
     1
 91
        4
176
     1
 64
     7
176
     1
 65
   257
176
     1
 75
     1
176
     1
175
     1
176
     1
 42
1.0
176
     1
 92
        8
176
     1
 66
     7
176
     1
 43
1.0
176
     1
 76
     1
176
     1
 77
     6
176
     1
 78
     2
176
     1
 67
     7
176
     1
 79
     5
176
     1
170
     0
176
     1
171
     0
176
     1
290
     0
176
     1
 93
       13
176
     1
 44
0.0
176
     1
173
     0
176
     1
  0
VISUALSTYLE
  5
2C
102
{ACAD_REACTORS
330
2A
102
}
330
2A
100
AcDbVisualStyle
  2
FlatWithEdges
 70
     1
177
     2
291
     1
 71
     2
176
     1
 72
     1
176
     1
 73
     1
176
     1
 90
        2
176
     1
 40
-0.6
176
     1
 41
30.0
176
     1
 62
     5
 63
     7
421
 16777215
176
     1
 74
     1
176
     1
 91
        4
176
     1
 64
     7
176
     1
 65
   257
176
     1
 75
     1
176
     1
175
     1
176
     1
 42
1.0
176
     1
 92
        0
176
     1
 66
   257
176
     1
 43
1.0
176
     1
 76
     1
176
     1
 77
     6
176
     1
 78
     2
176
     1
 67
     7
176
     1
 79
     5
176
     1
170
     0
176
     1
171
     0
176
     1
290
     0
176
     1
 93
       13
176
     1
 44
0.0
176
     1
173
     0
176
     1
  0
VISUALSTYLE
  5
2D
102
{ACAD_REACTORS
330
2A
102
}
330
2A
100
AcDbVisualStyle
  2
Gouraud
 70
     2
177
     2
291
     1
 71
     2
176
     1
 72
     2
176
     1
 73
     1
176
     1
 90
        2
176
     1
 40
-0.6
176
     1
 41
30.0
176
     1
 62
     5
 63
     7
421
 16777215
176
     1
 74
     0
176
     1
 91
        4
176
     1
 64
     7
176
     1
 65
   257
176
     1
 75
     1
176
     1
175
     1
176
     1
 42
1.0
176
     1
 92
        0
176
     1
 66
     7
176
     1
 43
1.0
176
     1
 76
     1
176
     1
 77
     6
176
     1
 78
     2
176
     1
 67
     7
176
     1
 79
     5
176
     1
170
     0
176
     1
171
     0
176
     1
290
     0
176
     1
 93
       13
176
     1
 44
0.0
176
     1
173
     0
176
     1
  0
VISUALSTYLE
  5
2E
102
{ACAD_REACTORS
330
2A
102
}
330
2A
100
AcDbVisualStyle
  2
GouraudWithEdges
 70
     3
177
     2
291
     1
 71
     2
176
     1
 72
     2
176
     1
 73
     1
176
     1
 90
        2
176
     1
 40
-0.6
176
     1
 41
30.0
176
     1
 62
     5
 63
     7
421
 16777215
176
     1
 74
     1
176
     1
 91
        4
176
     1
 64
     7
176
     1
 65
   257
176
     1
 75
     1
176
     1
175
     1
176
     1
 42
1.0
176
     1
 92
        0
176
     1
 66
   257
176
     1
 43
1.0
176
     1
 76
     1
176
     1
 77
     6
176
     1
 78
     2
176
     1
 67
     7
176
     1
 79
     5
176
     1
170
     0
176
     1
171
     0
176
     1
290
     0
176
     1
 93
       13
176
     1
 44
0.0
176
     1
173
     0
176
     1
  0
VISUALSTYLE
  5
38
102
{ACAD_REACTORS
330
2A
102
}
330
2A
100
AcDbVisualStyle
  2
Linepattern
 70
    14
177
     2
291
     1
 71
     2
176
     1
 72
     2
176
     1
 73
     0
176
     1
 90
        0
176
     1
 40
-0.6
176
     1
 41
-30.0
176
     1
 62
     5
 63
     7
421
 16777215
176
     1
 74
     1
176
     1
 91
        4
176
     1
 64
     7
176
     1
 65
   257
176
     1
 75
     7
176
     1
175
     7
176
     1
 42
1.0
176
     1
 92
        8
176
     1
 66
     7
176
     1
 43
1.0
176
     1
 76
     1
176
     1
 77
     6
176
     1
 78
     2
176
     1
 67
     7
176
     1
 79
     5
176
     1
170
     0
176
     1
171
     0
176
     1
290
     0
176
     1
 93
        1
176
     1
 44
0.0
176
     1
173
     0
176
     1
  0
VISUALSTYLE
  5
33
102
{ACAD_REACTORS
330
2A
102
}
330
2A
100
AcDbVisualStyle
  2
Realistic
 70
     8
177
     2
291
     0
 71
     2
176
     1
 72
     2
176
     1
 73
     0
176
     1
 90
        0
176
     1
 40
-0.6
176
     1
 41
-30.0
176
     1
 62
     5
 63
     7
421
 16777215
176
     1
 74
     1
176
     1
 91
        0
176
     1
 64
     7
176
     1
 65
   257
176
     1
 75
     1
176
     1
175
     1
176
     1
 42
1.0
176
     1
 92
        8
176
     1
 66
     8
424
  7895160
176
     1
 43
1.0
176
     1
 76
     1
176
     1
 77
     6
176
     1
 78
     2
176
     1
 67
     7
176
     1
 79
     5
176
     1
170
     0
176
     1
171
     0
176
     1
290
     0
176
     1
 93
       13
176
     1
 44
0.0
176
     1
173
     0
176
     1
  0
VISUALSTYLE
  5
37
102
{ACAD_REACTORS
330
2A
102
}
330
2A
100
AcDbVisualStyle
  2
Thicken
 70
    13
177
     2
291
     1
 71
     2
176
     1
 72
     2
176
     1
 73
     0
176
     1
 90
        0
176
     1
 40
-0.6
176
     1
 41
-30.0
176
     1
 62
     5
 63
     7
421
 16777215
176
     1
 74
     1
176
     1
 91
        4
176
     1
 64
     7
176
     1
 65
   257
176
     1
 75
     1
176
     1
175
     1
176
     1
 42
1.0
176
     1
 92
       12
176
     1
 66
     7
176
     1
 43
1.0
176
     1
 76
     1
176
     1
 77
     6
176
     1
 78
     2
176
     1
 67
     7
176
     1
 79
     5
176
     1
170
     0
176
     1
171
     0
176
     1
290
     0
176
     1
 93
        1
176
     1
 44
0.0
176
     1
173
     0
176
     1
  0
ENDSEC
  0
EOF
