  0
SECTION
  2
HEADER
  9
$ACADVER
  1
AC1024
  9
$ACADMAINTVER
 70
     6
  9
$DWGCODEPAGE
  3
ANSI_1251
  9
$INSBASE
 10
0.0
 20
0.0
 30
0.0
  9
$EXTMIN
 10
1.000000000000000E+20
 20
1.000000000000000E+20
 30
1.000000000000000E+20
  9
$EXTMAX
 10
-1.000000000000000E+20
 20
-1.000000000000000E+20
 30
-1.000000000000000E+20
  9
$LIMMIN
 10
0.0
 20
0.0
  9
$LIMMAX
 10
12.0
 20
9.0
  9
$ORTHOMODE
 70
     0
  9
$REGENMODE
 70
     1
  9
$FILLMODE
 70
     1
  9
$QTEXTMODE
 70
     0
  9
$MIRRTEXT
 70
     1
  9
$LTSCALE
 40
1.0
  9
$ATTMODE
 70
     1
  9
$TEXTSIZE
 40
0.2
  9
$TRACEWID
 40
0.05
  9
$TEXTSTYLE
  7
Standard
  9
$CLAYER
  8
0
  9
$CELTYPE
  6
ByLayer
  9
$CECOLOR
 62
   256
  9
$CELTSCALE
 40
1.0
  9
$DISPSILH
 70
     0
  9
$DIMSCALE
 40
1.0
  9
$DIMASZ
 40
0.18
  9
$DIMEXO
 40
0.0625
  9
$DIMDLI
 40
0.38
  9
$DIMRND
 40
0.0
  9
$DIMDLE
 40
0.0
  9
$DIMEXE
 40
0.18
  9
$DIMTP
 40
0.0
  9
$DIMTM
 40
0.0
  9
$DIMTXT
 40
0.18
  9
$DIMCEN
 40
0.09
  9
$DIMTSZ
 40
0.0
  9
$DIMTOL
 70
     0
  9
$DIMLIM
 70
     0
  9
$DIMTIH
 70
     1
  9
$DIMTOH
 70
     1
  9
$DIMSE1
 70
     0
  9
$DIMSE2
 70
     0
  9
$DIMTAD
 70
     0
  9
$DIMZIN
 70
     0
  9
$DIMBLK
  1

  9
$DIMASO
 70
     1
  9
$DIMSHO
 70
     1
  9
$DIMPOST
  1

  9
$DIMAPOST
  1

  9
$DIMALT
 70
     0
  9
$DIMALTD
 70
     2
  9
$DIMALTF
 40
25.4
  9
$DIMLFAC
 40
1.0
  9
$DIMTOFL
 70
     0
  9
$DIMTVP
 40
0.0
  9
$DIMTIX
 70
     0
  9
$DIMSOXD
 70
     0
  9
$DIMSAH
 70
     0
  9
$DIMBLK1
  1

  9
$DIMBLK2
  1

  9
$DIMSTYLE
  2
Standard
  9
$DIMCLRD
 70
     0
  9
$DIMCLRE
 70
     0
  9
$DIMCLRT
 70
     0
  9
$DIMTFAC
 40
1.0
  9
$DIMGAP
 40
0.09
  9
$DIMJUST
 70
     0
  9
$DIMSD1
 70
     0
  9
$DIMSD2
 70
     0
  9
$DIMTOLJ
 70
     1
  9
$DIMTZIN
 70
     0
  9
$DIMALTZ
 70
     0
  9
$DIMALTTZ
 70
     0
  9
$DIMUPT
 70
     0
  9
$DIMDEC
 70
     4
  9
$DIMTDEC
 70
     4
  9
$DIMALTU
 70
     2
  9
$DIMALTTD
 70
     2
  9
$DIMTXSTY
  7
Standard
  9
$DIMAUNIT
 70
     0
  9
$DIMADEC
 70
     0
  9
$DIMALTRND
 40
0.0
  9
$DIMAZIN
 70
     0
  9
$DIMDSEP
 70
    46
  9
$DIMATFIT
 70
     3
  9
$DIMFRAC
 70
     0
  9
$DIMLDRBLK
  1

  9
$DIMLUNIT
 70
     2
  9
$DIMLWD
 70
    -2
  9
$DIMLWE
 70
    -2
  9
$DIMTMOVE
 70
     0
  9
$DIMFXL
 40
1.0
  9
$DIMFXLON
 70
     0
  9
$DIMJOGANG
 40
0.7853981633974483
  9
$DIMTFILL
 70
     0
  9
$DIMTFILLCLR
 70
     0
  9
$DIMARCSYM
 70
     0
  9
$DIMLTYPE
  6

  9
$DIMLTEX1
  6

  9
$DIMLTEX2
  6

  9
$DIMTXTDIRECTION
 70
     0
  9
$LUNITS
 70
     2
  9
$LUPREC
 70
     4
  9
$SKETCHINC
 40
0.1
  9
$FILLETRAD
 40
0.5
  9
$AUNITS
 70
     0
  9
$AUPREC
 70
     0
  9
$MENU
  1
.
  9
$ELEVATION
 40
0.0
  9
$PELEVATION
 40
0.0
  9
$THICKNESS
 40
0.0
  9
$LIMCHECK
 70
     0
  9
$CHAMFERA
 40
0.5
  9
$CHAMFERB
 40
0.5
  9
$CHAMFERC
 40
1.0
  9
$CHAMFERD
 40
0.0
  9
$SKPOLY
 70
     0
  9
$TDCREATE
 40
2459337.640844294
  9
$TDUCREATE
 40
2459337.515844294
  9
$TDUPDATE
 40
2459337.640844294
  9
$TDUUPDATE
 40
2459337.515844294
  9
$TDINDWG
 40
0.0000000116
  9
$TDUSRTIMER
 40
0.0000000116
  9
$USRTIMER
 70
     1
  9
$ANGBASE
 50
0.0
  9
$ANGDIR
 70
     0
  9
$PDMODE
 70
     0
  9
$PDSIZE
 40
0.0
  9
$PLINEWID
 40
0.0
  9
$SPLFRAME
 70
     0
  9
$SPLINETYPE
 70
     6
  9
$SPLINESEGS
 70
     8
  9
$HANDSEED
  5
4E
  9
$SURFTAB1
 70
     6
  9
$SURFTAB2
 70
     6
  9
$SURFTYPE
 70
     6
  9
$SURFU
 70
     6
  9
$SURFV
 70
     6
  9
$UCSBASE
  2

  9
$UCSNAME
  2

  9
$UCSORG
 10
0.0
 20
0.0
 30
0.0
  9
$UCSXDIR
 10
1.0
 20
0.0
 30
0.0
  9
$UCSYDIR
 10
0.0
 20
1.0
 30
0.0
  9
$UCSORTHOREF
  2

  9
$UCSORTHOVIEW
 70
     0
  9
$UCSORGTOP
 10
0.0
 20
0.0
 30
0.0
  9
$UCSORGBOTTOM
 10
0.0
 20
0.0
 30
0.0
  9
$UCSORGLEFT
 10
0.0
 20
0.0
 30
0.0
  9
$UCSORGRIGHT
 10
0.0
 20
0.0
 30
0.0
  9
$UCSORGFRONT
 10
0.0
 20
0.0
 30
0.0
  9
$UCSORGBACK
 10
0.0
 20
0.0
 30
0.0
  9
$PUCSBASE
  2

  9
$PUCSNAME
  2

  9
$PUCSORG
 10
0.0
 20
0.0
 30
0.0
  9
$PUCSXDIR
 10
1.0
 20
0.0
 30
0.0
  9
$PUCSYDIR
 10
0.0
 20
1.0
 30
0.0
  9
$PUCSORTHOREF
  2

  9
$PUCSORTHOVIEW
 70
     0
  9
$PUCSORGTOP
 10
0.0
 20
0.0
 30
0.0
  9
$PUCSORGBOTTOM
 10
0.0
 20
0.0
 30
0.0
  9
$PUCSORGLEFT
 10
0.0
 20
0.0
 30
0.0
  9
$PUCSORGRIGHT
 10
0.0
 20
0.0
 30
0.0
  9
$PUCSORGFRONT
 10
0.0
 20
0.0
 30
0.0
  9
$PUCSORGBACK
 10
0.0
 20
0.0
 30
0.0
  9
$USERI1
 70
     0
  9
$USERI2
 70
     0
  9
$USERI3
 70
     0
  9
$USERI4
 70
     0
  9
$USERI5
 70
     0
  9
$USERR1
 40
0.0
  9
$USERR2
 40
0.0
  9
$USERR3
 40
0.0
  9
$USERR4
 40
0.0
  9
$USERR5
 40
0.0
  9
$WORLDVIEW
 70
     1
  9
$SHADEDGE
 70
     3
  9
$SHADEDIF
 70
    70
  9
$TILEMODE
 70
     1
  9
$MAXACTVP
 70
    64
  9
$PINSBASE
 10
0.0
 20
0.0
 30
0.0
  9
$PLIMCHECK
 70
     0
  9
$PEXTMIN
 10
1.000000000000000E+20
 20
1.000000000000000E+20
 30
1.000000000000000E+20
  9
$PEXTMAX
 10
-1.000000000000000E+20
 20
-1.000000000000000E+20
 30
-1.000000000000000E+20
  9
$PLIMMIN
 10
0.0
 20
0.0
  9
$PLIMMAX
 10
12.0
 20
9.0
  9
$UNITMODE
 70
     0
  9
$VISRETAIN
 70
     1
  9
$PLINEGEN
 70
     0
  9
$PSLTSCALE
 70
     1
  9
$TREEDEPTH
 70
  3020
  9
$CMLSTYLE
  2
Standard
  9
$CMLJUST
 70
     0
  9
$CMLSCALE
 40
1.0
  9
$PROXYGRAPHICS
 70
     1
  9
$MEASUREMENT
 70
     0
  9
$CELWEIGHT
370
    -1
  9
$ENDCAPS
280
     0
  9
$JOINSTYLE
280
     0
  9
$LWDISPLAY
290
     1
  9
$INSUNITS
 70
     1
  9
$HYPERLINKBASE
  1

  9
$STYLESHEET
  1

  9
$XEDIT
290
     1
  9
$CEPSNTYPE
380
     0
  9
$PSTYLEMODE
290
     1
  9
$FINGERPRINTGUID
  2
{368E594C-9148-440A-A510-0735BF94673A}
  9
$VERSIONGUID
  2
{FAEB1C32-E019-11D5-929B-00C0DF256EC4}
  9
$EXTNAMES
290
     1
  9
$PSVPSCALE
 40
0.0
  9
$OLESTARTUP
290
     0
  9
$SORTENTS
280
   127
  9
$INDEXCTL
280
     0
  9
$HIDETEXT
280
     1
  9
$XCLIPFRAME
280
     2
  9
$HALOGAP
280
     0
  9
$OBSCOLOR
 70
   257
  9
$OBSLTYPE
280
     0
  9
$INTERSECTIONDISPLAY
280
     0
  9
$INTERSECTIONCOLOR
 70
   257
  9
$DIMASSOC
280
     2
  9
$PROJECTNAME
  1

  9
$CAMERADISPLAY
290
     0
  9
$LENSLENGTH
 40
50.0
  9
$CAMERAHEIGHT
 40
0.0
  9
$STEPSPERSEC
 40
2.0
  9
$STEPSIZE
 40
6.0
  9
$3DDWFPREC
 40
2.0
  9
$PSOLWIDTH
 40
0.25
  9
$PSOLHEIGHT
 40
4.0
  9
$LOFTANG1
 40
1.570796326794897
  9
$LOFTANG2
 40
1.570796326794897
  9
$LOFTMAG1
 40
0.0
  9
$LOFTMAG2
 40
0.0
  9
$LOFTPARAM
 70
     7
  9
$LOFTNORMALS
280
     1
  9
$LATITUDE
 40
37.795
  9
$LONGITUDE
 40
-122.394
  9
$NORTHDIRECTION
 40
0.0
  9
$TIMEZONE
 70
 -8000
  9
$LIGHTGLYPHDISPLAY
280
     1
  9
$TILEMODELIGHTSYNCH
280
     1
  9
$CMATERIAL
347
3C
  9
$SOLIDHIST
280
     1
  9
$SHOWHIST
280
     1
  9
$DWFFRAME
280
     2
  9
$DGNFRAME
280
     2
  9
$REALWORLDSCALE
290
     1
  9
$INTERFERECOLOR
 62
   256
  9
$CSHADOW
280
     0
  9
$SHADOWPLANELOCATION
 40
0.0
  0
ENDSEC
  0
SECTION
  2
CLASSES
  0
CLASS
  1
ACDBDICTIONARYWDFLT
  2
AcDbDictionaryWithDefault
  3
ObjectDBX Classes
 90
        0
 91
        4
280
     0
281
     0
  0
CLASS
  1
VISUALSTYLE
  2
AcDbVisualStyle
  3
ObjectDBX Classes
 90
     4095
 91
        4
280
     0
281
     0
  0
CLASS
  1
MATERIAL
  2
AcDbMaterial
  3
ObjectDBX Classes
 90
     1153
 91
        4
280
     0
281
     0
  0
CLASS
  1
SUN
  2
AcDbSun
  3
SCENEOE
 90
     1024
 91
        4
280
     0
281
     0
  0
ENDSEC
  0
SECTION
  2
TABLES
  0
TABLE
  2
VPORT
  5
8
330
0
100
AcDbSymbolTable
 70
     1
  0
VPORT
  5
29
330
8
100
AcDbSymbolTableRecord
100
AcDbViewportTableRecord
  2
*Active
 70
     0
 10
0.0
 20
0.0
 11
1.0
 21
1.0
 12
0.0
 22
0.0
 13
0.0
 23
0.0
 14
0.5
 24
0.5
 15
0.5
 25
0.5
 16
0.0
 26
0.0
 36
1.0
 17
4.333255681005419
 27
-4.765159722222216
 37
0.0
 40
10.68422739486836
 41
1.123150936095183
 42
50.0
 43
0.0
 44
0.0
 50
0.0
 51
0.0
 71
     0
 72
   100
 73
     1
 74
     3
 75
     0
 76
     0
 77
     0
 78
     0
281
     0
 65
     1
110
0.0
120
0.0
130
0.0
111
1.0
121
0.0
131
0.0
112
0.0
122
1.0
132
0.0
 79
     0
146
0.0
 60
     3
 61
     5
292
     1
282
     1
141
0.0
142
0.0
 63
   250
361
3F
  0
ENDTAB
  0
TABLE
  2
LTYPE
  5
5
330
0
100
AcDbSymbolTable
 70
     1
  0
LTYPE
  5
14
330
5
100
AcDbSymbolTableRecord
100
AcDbLinetypeTableRecord
  2
ByBlock
 70
     0
  3

 72
    65
 73
     0
 40
0.0
  0
LTYPE
  5
15
330
5
100
AcDbSymbolTableRecord
100
AcDbLinetypeTableRecord
  2
ByLayer
 70
     0
  3

 72
    65
 73
     0
 40
0.0
  0
LTYPE
  5
16
330
5
100
AcDbSymbolTableRecord
100
AcDbLinetypeTableRecord
  2
Continuous
 70
     0
  3
Solid line
 72
    65
 73
     0
 40
0.0
  0
ENDTAB
  0
TABLE
  2
LAYER
  5
2
330
0
100
AcDbSymbolTable
 70
     2
  0
LAYER
  5
10
330
2
100
AcDbSymbolTableRecord
100
AcDbLayerTableRecord
  2
0
 70
     0
 62
     7
  6
Continuous
370
    -3
390
F
347
3E
  0
LAYER
  5
40
330
2
100
AcDbSymbolTableRecord
100
AcDbLayerTableRecord
  2
Layer 1
 70
     0
 62
     7
  6
Continuous
370
    -3
390
F
347
3E
  0
ENDTAB
  0
TABLE
  2
STYLE
  5
3
330
0
100
AcDbSymbolTable
 70
     1
  0
STYLE
  5
11
330
3
100
AcDbSymbolTableRecord
100
AcDbTextStyleTableRecord
  2
Standard
 70
     0
 40
0.0
 41
1.0
 50
0.0
 71
     0
 42
0.2
  3
txt
  4

  0
ENDTAB
  0
TABLE
  2
VIEW
  5
6
330
0
100
AcDbSymbolTable
 70
     0
  0
ENDTAB
  0
TABLE
  2
UCS
  5
7
330
0
100
AcDbSymbolTable
 70
     0
  0
ENDTAB
  0
TABLE
  2
APPID
  5
9
330
0
100
AcDbSymbolTable
 70
     1
  0
APPID
  5
12
330
9
100
AcDbSymbolTableRecord
100
AcDbRegAppTableRecord
  2
ACAD
 70
     0
  0
ENDTAB
  0
TABLE
  2
DIMSTYLE
  5
A
330
0
100
AcDbSymbolTable
 70
     1
100
AcDbDimStyleTable
  0
DIMSTYLE
105
27
330
A
100
AcDbSymbolTableRecord
100
AcDbDimStyleTableRecord
  2
Standard
 70
     0
178
     0
340
11
  0
ENDTAB
  0
TABLE
  2
BLOCK_RECORD
  5
1
330
0
100
AcDbSymbolTable
 70
     1
  0
BLOCK_RECORD
  5
1F
330
1
100
AcDbSymbolTableRecord
100
AcDbBlockTableRecord
  2
*Model_Space
340
22
 70
     0
280
     1
281
     0
  0
BLOCK_RECORD
  5
1B
330
1
100
AcDbSymbolTableRecord
100
AcDbBlockTableRecord
  2
*Paper_Space
340
1E
 70
     0
280
     1
281
     0
  0
BLOCK_RECORD
  5
23
330
1
100
AcDbSymbolTableRecord
100
AcDbBlockTableRecord
  2
*Paper_Space0
340
26
 70
     0
280
     1
281
     0
  0
ENDTAB
  0
ENDSEC
  0
SECTION
  2
BLOCKS
  0
BLOCK
  5
20
330
1F
100
AcDbEntity
  8
0
100
AcDbBlockBegin
  2
*Model_Space
 70
     0
 10
0.0
 20
0.0
 30
0.0
  3
*Model_Space
  1

  0
ENDBLK
  5
21
330
1F
100
AcDbEntity
  8
0
100
AcDbBlockEnd
  0
BLOCK
  5
1C
330
1B
100
AcDbEntity
 67
     1
  8
0
100
AcDbBlockBegin
  2
*Paper_Space
 70
     0
 10
0.0
 20
0.0
 30
0.0
  3
*Paper_Space
  1

  0
ENDBLK
  5
1D
330
1B
100
AcDbEntity
 67
     1
  8
0
100
AcDbBlockEnd
  0
BLOCK
  5
24
330
23
100
AcDbEntity
  8
0
100
AcDbBlockBegin
  2
*Paper_Space0
 70
     0
 10
0.0
 20
0.0
 30
0.0
  3
*Paper_Space0
  1

  0
ENDBLK
  5
25
330
23
100
AcDbEntity
  8
0
100
AcDbBlockEnd
  0
ENDSEC
  0
SECTION
  2
ENTITIES
  0
SPLINE
  5
41
330
1F
100
AcDbEntity
  8
Layer 1
370
     0
100
AcDbSpline
210
0.0
220
0.0
230
1.0
 70
    11
 71
     3
 72
   353
 73
   349
 74
     0
 42
0.0000000001
 43
0.0000000001
 12
1.0
 22
0.0
 32
0.0
 13
1.0
 23
0.0
 33
0.0
 40
0.0
 40
0.0
 40
0.0
 40
0.0
 40
1.0
 40
1.0
 40
1.0
 40
2.0
 40
2.0
 40
2.0
 40
3.0
 40
3.0
 40
3.0
 40
4.0
 40
4.0
 40
4.0
 40
5.0
 40
5.0
 40
5.0
 40
6.0
 40
6.0
 40
6.0
 40
7.0
 40
7.0
 40
7.0
 40
8.0
 40
8.0
 40
8.0
 40
9.0
 40
9.0
 40
9.0
 40
10.0
 40
10.0
 40
10.0
 40
11.0
 40
11.0
 40
11.0
 40
12.0
 40
12.0
 40
12.0
 40
13.0
 40
13.0
 40
13.0
 40
14.0
 40
14.0
 40
14.0
 40
15.0
 40
15.0
 40
15.0
 40
16.0
 40
16.0
 40
16.0
 40
17.0
 40
17.0
 40
17.0
 40
18.0
 40
18.0
 40
18.0
 40
19.0
 40
19.0
 40
19.0
 40
20.0
 40
20.0
 40
20.0
 40
21.0
 40
21.0
 40
21.0
 40
22.0
 40
22.0
 40
22.0
 40
23.0
 40
23.0
 40
23.0
 40
24.0
 40
24.0
 40
24.0
 40
25.0
 40
25.0
 40
25.0
 40
26.0
 40
26.0
 40
26.0
 40
27.0
 40
27.0
 40
27.0
 40
28.0
 40
28.0
 40
28.0
 40
29.0
 40
29.0
 40
29.0
 40
30.0
 40
30.0
 40
30.0
 40
31.0
 40
31.0
 40
31.0
 40
32.0
 40
32.0
 40
32.0
 40
33.0
 40
33.0
 40
33.0
 40
34.0
 40
34.0
 40
34.0
 40
35.0
 40
35.0
 40
35.0
 40
36.0
 40
36.0
 40
36.0
 40
37.0
 40
37.0
 40
37.0
 40
38.0
 40
38.0
 40
38.0
 40
39.0
 40
39.0
 40
39.0
 40
40.0
 40
40.0
 40
40.0
 40
41.0
 40
41.0
 40
41.0
 40
42.0
 40
42.0
 40
42.0
 40
43.0
 40
43.0
 40
43.0
 40
44.0
 40
44.0
 40
44.0
 40
45.0
 40
45.0
 40
45.0
 40
46.0
 40
46.0
 40
46.0
 40
47.0
 40
47.0
 40
47.0
 40
48.0
 40
48.0
 40
48.0
 40
49.0
 40
49.0
 40
49.0
 40
50.0
 40
50.0
 40
50.0
 40
51.0
 40
51.0
 40
51.0
 40
52.0
 40
52.0
 40
52.0
 40
53.0
 40
53.0
 40
53.0
 40
54.0
 40
54.0
 40
54.0
 40
55.0
 40
55.0
 40
55.0
 40
56.0
 40
56.0
 40
56.0
 40
57.0
 40
57.0
 40
57.0
 40
58.0
 40
58.0
 40
58.0
 40
59.0
 40
59.0
 40
59.0
 40
60.0
 40
60.0
 40
60.0
 40
61.0
 40
61.0
 40
61.0
 40
62.0
 40
62.0
 40
62.0
 40
63.0
 40
63.0
 40
63.0
 40
64.0
 40
64.0
 40
64.0
 40
65.0
 40
65.0
 40
65.0
 40
66.0
 40
66.0
 40
66.0
 40
67.0
 40
67.0
 40
67.0
 40
68.0
 40
68.0
 40
68.0
 40
69.0
 40
69.0
 40
69.0
 40
70.0
 40
70.0
 40
70.0
 40
71.0
 40
71.0
 40
71.0
 40
72.0
 40
72.0
 40
72.0
 40
73.0
 40
73.0
 40
73.0
 40
74.0
 40
74.0
 40
74.0
 40
75.0
 40
75.0
 40
75.0
 40
76.0
 40
76.0
 40
76.0
 40
77.0
 40
77.0
 40
77.0
 40
78.0
 40
78.0
 40
78.0
 40
79.0
 40
79.0
 40
79.0
 40
80.0
 40
80.0
 40
80.0
 40
81.0
 40
81.0
 40
81.0
 40
82.0
 40
82.0
 40
82.0
 40
83.0
 40
83.0
 40
83.0
 40
84.0
 40
84.0
 40
84.0
 40
85.0
 40
85.0
 40
85.0
 40
86.0
 40
86.0
 40
86.0
 40
87.0
 40
87.0
 40
87.0
 40
88.0
 40
88.0
 40
88.0
 40
89.0
 40
89.0
 40
89.0
 40
90.0
 40
90.0
 40
90.0
 40
91.0
 40
91.0
 40
91.0
 40
92.0
 40
92.0
 40
92.0
 40
93.0
 40
93.0
 40
93.0
 40
94.0
 40
94.0
 40
94.0
 40
95.0
 40
95.0
 40
95.0
 40
96.0
 40
96.0
 40
96.0
 40
97.0
 40
97.0
 40
97.0
 40
98.0
 40
98.0
 40
98.0
 40
99.0
 40
99.0
 40
99.0
 40
100.0
 40
100.0
 40
100.0
 40
101.0
 40
101.0
 40
101.0
 40
102.0
 40
102.0
 40
102.0
 40
103.0
 40
103.0
 40
103.0
 40
104.0
 40
104.0
 40
104.0
 40
105.0
 40
105.0
 40
105.0
 40
106.0
 40
106.0
 40
106.0
 40
107.0
 40
107.0
 40
107.0
 40
108.0
 40
108.0
 40
108.0
 40
109.0
 40
109.0
 40
109.0
 40
110.0
 40
110.0
 40
110.0
 40
111.0
 40
111.0
 40
111.0
 40
112.0
 40
112.0
 40
112.0
 40
113.0
 40
113.0
 40
113.0
 40
114.0
 40
114.0
 40
114.0
 40
115.0
 40
115.0
 40
115.0
 40
116.0
 40
116.0
 40
116.0
 40
116.0
 10
10.30331359126823
 20
-1.631781131245488
 30
0.0
 10
10.2751794568013
 20
-1.615584388085469
 30
0.0
 10
10.23815299298096
 20
-1.620796488825565
 30
0.0
 10
10.20099575961128
 20
-1.655674596645452
 30
0.0
 10
10.14840771942242
 20
-1.705030762076565
 30
0.0
 10
10.09789331065844
 20
-1.754013300214587
 30
0.0
 10
10.03747777887485
 20
-1.79940901633798
 30
0.0
 10
10.00155351554157
 20
-1.826422269635979
 30
0.0
 10
9.964340238079355
 20
-1.854406953896387
 30
0.0
 10
9.92951817523317
 20
-1.885324612408365
 30
0.0
 10
9.816327789618855
 20
-1.986054530654036
 30
0.0
 10
9.729440764781076
 20
-2.090670172748825
 30
0.0
 10
9.67128567806425
 20
-2.196537466275964
 30
0.0
 10
9.602332762846824
 20
-2.32215096224853
 30
0.0
 10
9.519069922661503
 20
-2.584392486796976
 30
0.0
 10
9.670295565762292
 20
-2.718020288208499
 30
0.0
 10
9.652286730685166
 20
-2.769212831785669
 30
0.0
 10
9.634558116070895
 20
-2.820405375363003
 30
0.0
 10
9.61684818282078
 20
-2.871678248808229
 30
0.0
 10
9.61684818282078
 20
-2.871678248808229
 30
0.0
 10
9.59112394433411
 20
-2.945925464512091
 30
0.0
 10
9.59112394433411
 20
-2.945925464512091
 30
0.0
 10
9.477559931436037
 20
-3.272322531575242
 30
0.0
 10
9.355196996005512
 20
-3.6538090748837
 30
0.0
 10
9.339840914643066
 20
-4.051750164184416
 30
0.0
 10
9.339840914643066
 20
-4.051750164184416
 30
0.0
 10
9.337431018662857
 20
-4.14952655867723
 30
0.0
 10
9.337431018662857
 20
-4.14952655867723
 30
0.0
 10
9.268739642544055
 20
-4.010811821668906
 30
0.0
 10
9.182095475440695
 20
-3.869393891194123
 30
0.0
 10
9.074135871799019
 20
-3.719550665257884
 30
0.0
 10
9.007088455728736
 20
-3.626384831563036
 30
0.0
 10
8.928664088868066
 20
-3.545302104530037
 30
0.0
 10
8.852238627975515
 20
-3.47153313176145
 30
0.0
 10
8.898064014328357
 20
-3.360162308205569
 30
0.0
 10
8.890442017739689
 20
-3.182496925881448
 30
0.0
 10
8.876206818228537
 20
-3.020331471815628
 30
0.0
 10
8.876206818228537
 20
-3.020331471815628
 30
0.0
 10
8.875048573648883
 20
-3.00705462595191
 30
0.0
 10
8.875048573648883
 20
-3.00705462595191
 30
0.0
 10
8.814072600939678
 20
-2.299172883716892
 30
0.0
 10
8.392845201231617
 20
-1.627222878268614
 30
0.0
 10
7.8019723333335
 20
-1.295329753722588
 30
0.0
 10
7.51962219499804
 20
-1.136668923666927
 30
0.0
 10
7.20704670972312
 20
-1.038012636898442
 30
0.0
 10
6.904818499575261
 20
-0.9425508634869477
 30
0.0
 10
6.904818499575261
 20
-0.9425508634869477
 30
0.0
 10
6.87647887010227
 20
-0.9336398525442114
 30
0.0
 10
6.87647887010227
 20
-0.9336398525442114
 30
0.0
 10
6.595903461364665
 20
-0.8448473263161733
 30
0.0
 10
6.333579745438605
 20
-0.6074819069487805
 30
0.0
 10
6.208227791738005
 20
-0.3287746275892308
 30
0.0
 10
6.169744181511001
 20
-0.2433260656352634
 30
0.0
 10
6.130475953988076
 20
-0.1583445377978781
 30
0.0
 10
6.089731898694354
 20
-0.074166308640795
 30
0.0
 10
6.075478017819023
 20
-0.0445937083843293
 30
0.0
 10
6.042281233657175
 20
0.024004262646574
 30
0.0
 10
5.963072249500593
 20
0.0131877525084166
 30
0.0
 10
5.887786351823479
 20
0.0025393746523655
 30
0.0
 10
5.876614896039137
 20
-0.0656662877205589
 30
0.0
 10
5.869553340376127
 20
-0.1088202400846462
 30
0.0
 10
5.806391648056938
 20
-0.4840354492767144
 30
0.0
 10
5.781620159143825
 20
-0.7881680659383821
 30
0.0
 10
5.791652051712705
 20
-1.066072046617465
 30
0.0
 10
5.807736706278458
 20
-1.51298633337395
 30
0.0
 10
5.914220482149315
 20
-1.867203688688404
 30
0.0
 10
6.117249548143087
 20
-2.149161525498711
 30
0.0
 10
6.461847073443752
 20
-2.627716439579419
 30
0.0
 10
6.925255911996802
 20
-2.95554449917539
 30
0.0
 10
7.533970591269608
 20
-3.151334541492487
 30
0.0
 10
7.533970591269608
 20
-3.151334541492487
 30
0.0
 10
7.554070630560469
 20
-3.157854337758863
 30
0.0
 10
7.554070630560469
 20
-3.157854337758863
 30
0.0
 10
7.925158367245835
 20
-3.277172213840913
 30
0.0
 10
8.27563832231691
 20
-3.389893700061723
 30
0.0
 10
8.625409504006408
 20
-3.555317184124141
 30
0.0
 10
8.646556808267077
 20
-3.565412593586289
 30
0.0
 10
8.667106308873725
 20
-3.572169643183808
 30
0.0
 10
8.686647015814236
 20
-3.57550800304845
 30
0.0
 10
9.036492922960456
 20
-3.912241469177893
 30
0.0
 10
9.256615437186104
 20
-4.314236040982589
 30
0.0
 10
9.340924433765975
 20
-4.770444680284426
 30
0.0
 10
9.380304749474009
 20
-4.9832478413971
 30
0.0
 10
9.38516190416284
 20
-5.189135161312771
 30
0.0
 10
9.355514579196702
 20
-5.383733332564614
 30
0.0
 10
9.219065895168493
 20
-4.995013364859965
 30
0.0
 10
8.963243293979808
 20
-4.693496139250694
 30
0.0
 10
8.593894042621463
 20
-4.486497091324105
 30
0.0
 10
8.572055527885823
 20
-4.389515775711238
 30
0.0
 10
8.492174014618513
 20
-4.298337452402381
 30
0.0
 10
8.35047586725351
 20
-4.208669517426516
 30
0.0
 10
8.24617781099265
 20
-4.142532255748594
 30
0.0
 10
8.122525861433132
 20
-4.098014563764297
 30
0.0
 10
7.982938708221379
 20
-4.076392752307179
 30
0.0
 10
7.982938708221379
 20
-4.076392752307179
 30
0.0
 10
7.923644058289078
 20
-4.067410752178653
 30
0.0
 10
7.923644058289078
 20
-4.067410752178653
 30
0.0
 10
7.714898494853842
 20
-4.036091444326441
 30
0.0
 10
7.55702228610216
 20
-3.999231243716268
 30
0.0
 10
7.359392134358687
 20
-3.861047057464134
 30
0.0
 10
7.328288766365277
 20
-3.83928513577204
 30
0.0
 10
7.293708457874143
 20
-3.816000682860059
 30
0.0
 10
7.265051245209937
 20
-3.828242581121597
 30
0.0
 10
7.234955567503296
 20
-3.840882392450364
 30
0.0
 10
7.221486303923838
 20
-3.884576236253249
 30
0.0
 10
7.22015992706651
 20
-3.926310404903221
 30
0.0
 10
7.219376410398531
 20
-3.952542777158454
 30
0.0
 10
7.224139057638517
 20
-3.978220312883384
 30
0.0
 10
7.229033575055736
 20
-4.004531146870249
 30
0.0
 10
7.289486469567692
 20
-4.330531982188884
 30
0.0
 10
7.502212271347919
 20
-4.626325424479938
 30
0.0
 10
7.770979950145829
 20
-4.758043990423213
 30
0.0
 10
7.906027531859914
 20
-4.824183493864792
 30
0.0
 10
8.181521609538423
 20
-4.895249273167097
 30
0.0
 10
8.38656826286448
 20
-4.819890516266026
 30
0.0
 10
8.462769547386818
 20
-4.791829238410577
 30
0.0
 10
8.520308149085444
 20
-4.746517588428244
 30
0.0
 10
8.558119230201706
 20
-4.684751392453474
 30
0.0
 10
8.611809470877636
 20
-4.715276742307651
 30
0.0
 10
8.662996408752381
 20
-4.747233084694648
 30
0.0
 10
8.707682231889773
 20
-4.786661972945555
 30
0.0
 10
9.059471000911545
 20
-5.09692207721562
 30
0.0
 10
9.2182999592368
 20
-5.391601923359328
 30
0.0
 10
9.221438428420344
 20
-5.740577287750145
 30
0.0
 10
8.511976260657649
 20
-7.042427414934131
 30
0.0
 10
7.14711579309192
 20
-7.863903063119627
 30
0.0
 10
5.654231936746744
 20
-7.88800202353074
 30
0.0
 10
5.5959273991164
 20
-7.837282118479429
 30
0.0
 10
5.543974525309939
 20
-7.797771032223864
 30
0.0
 10
5.4918348378616
 20
-7.764536884494141
 30
0.0
 10
5.306142077834175
 20
-7.645629998434439
 30
0.0
 10
5.078584380661747
 20
-7.531785762197564
 30
0.0
 10
4.79922326059635
 20
-7.587680405259738
 30
0.0
 10
4.678541647942716
 20
-7.612003542046724
 30
0.0
 10
4.570955671584771
 20
-7.662704765733527
 30
0.0
 10
4.478968634323703
 20
-7.738551106252291
 30
0.0
 10
3.503203620062929
 20
-7.467633955955837
 30
0.0
 10
2.662560912972999
 20
-6.847113747415884
 30
0.0
 10
2.108695827531063
 20
-5.988594821246592
 30
0.0
 10
2.134326659196808
 20
-5.748763461744046
 30
0.0
 10
2.041125333263532
 20
-5.545739995030758
 30
0.0
 10
1.851490805392473
 20
-5.429917402276601
 30
0.0
 10
1.832547902105969
 20
-5.418312538549849
 30
0.0
 10
1.813866537918102
 20
-5.410363617887078
 30
0.0
 10
1.79565220783493
 20
-5.405990310420255
 30
0.0
 10
1.554942830274235
 20
-4.857172915717544
 30
0.0
 10
1.438614930070091
 20
-4.273853655879305
 30
0.0
 10
1.44989751944585
 20
-3.671933734876499
 30
0.0
 10
1.455744786436652
 20
-3.35308767540889
 30
0.0
 10
1.497441591303969
 20
-3.036148983273114
 30
0.0
 10
1.573754964011414
 20
-2.729625151935086
 30
0.0
 10
1.994982363719499
 20
-2.575330156800406
 30
0.0
 10
2.099523277714815
 20
-2.103541632999471
 30
0.0
 10
1.984091128397975
 20
-1.713624189820128
 30
0.0
 10
1.983176709903243
 20
-1.710597808745231
 30
0.0
 10
1.982185629250807
 20
-1.707590109035045
 30
0.0
 10
1.981027384671153
 20
-1.704489002501532
 30
0.0
 10
2.255961021424026
 20
-1.216232855753055
 30
0.0
 10
2.620958499388785
 20
-0.7970043514223258
 30
0.0
 10
3.066545413535676
 20
-0.4576386810125541
 30
0.0
 10
3.181884156031578
 20
-0.5361004125835507
 30
0.0
 10
3.320406471484628
 20
-0.6111434544220375
 30
0.0
 10
3.484914564522998
 20
-0.6111434544220375
 30
0.0
 10
3.485007971343937
 20
-0.6111434544220375
 30
0.0
 10
3.485120059529069
 20
-0.6111434544220375
 30
0.0
 10
3.485194784985815
 20
-0.6111434544220375
 30
0.0
 10
3.750507519181939
 20
-0.6105082880236775
 30
0.0
 10
3.98258610648784
 20
-0.3932440170301182
 30
0.0
 10
4.06274784021798
 20
-0.0703553102501297
 30
0.0
 10
4.06274784021798
 20
-0.0703553102501297
 30
0.0
 10
4.067212686258888
 20
-0.0527014206465992
 30
0.0
 10
4.067212686258888
 20
-0.0527014206465992
 30
0.0
 10
4.080364366647144
 20
-0.0007111827983787
 30
0.0
 10
4.093945718411722
 20
0.0529416965045155
 30
0.0
 10
4.089032519630311
 20
0.1116011815363436
 30
0.0
 10
4.309491298411356
 20
0.1961904007159268
 30
0.0
 10
4.538711636996506
 20
0.2625652893520585
 30
0.0
 10
4.77092099385172
 20
0.3091566128137199
 30
0.0
 10
4.77092099385172
 20
0.3091566128137199
 30
0.0
 10
5.231883655187403
 20
0.4017227747030271
 30
0.0
 10
5.231883655187403
 20
0.4017227747030271
 30
0.0
 10
5.290113467360988
 20
0.4134173089800899
 30
0.0
 10
5.285947523147089
 20
0.4979691654302769
 30
0.0
 10
5.22685836822086
 20
0.503891158027525
 30
0.0
 10
5.22685836822086
 20
0.503891158027525
 30
0.0
 10
4.759077008956612
 20
0.5507253392295676
 30
0.0
 10
4.759077008956612
 20
0.5507253392295676
 30
0.0
 10
4.580016133215887
 20
0.5684539542917264
 30
0.0
 10
4.395238760033672
 20
0.5768045242945542
 30
0.0
 10
4.211003146412913
 20
0.5769539752119625
 30
0.0
 10
3.62558523685766
 20
0.5752913337572761
 30
0.0
 10
3.051357464450929
 20
0.4808570354019442
 30
0.0
 10
2.503937449653803
 20
0.2963411966569917
 30
0.0
 10
2.393437180482553
 20
0.3817337145170414
 30
0.0
 10
2.261079715211508
 20
0.4731416317974764
 30
0.0
 10
2.107985935691911
 20
0.524739560987718
 30
0.0
 10
1.851173222201282
 20
0.6111408725393959
 30
0.0
 10
1.644968324295582
 20
0.5040592903094547
 30
0.0
 10
1.527257048547818
 20
0.2229794776380661
 30
0.0
 10
1.485634969137247
 20
0.1236880244712211
 30
0.0
 10
1.468747015911403
 20
0.0170921577223958
 30
0.0
 10
1.452400822247025
 20
-0.0860102938351146
 30
0.0
 10
1.452400822247025
 20
-0.0860102938351146
 30
0.0
 10
1.445096408849571
 20
-0.1314060099583306
 30
0.0
 10
1.445096408849571
 20
-0.1314060099583306
 30
0.0
 10
1.441043507475847
 20
-0.1564390386024696
 30
0.0
 10
1.440313979617473
 20
-0.1784643675363971
 30
0.0
 10
1.443060140153092
 20
-0.1980237563351845
 30
0.0
 10
1.07552298112095
 20
-0.4220319999708155
 30
0.0
 10
0.7341957760443922
 20
-0.6919029938464215
 30
0.0
 10
0.4280642610977894
 20
-1.000425731203008
 30
0.0
 10
-0.117693112286626
 20
-1.550274337234896
 30
0.0
 10
-0.5285523548704228
 20
-2.193286908825219
 30
0.0
 10
-0.7933046481409115
 20
-2.911744171594086
 30
0.0
 10
-1.071133896342897
 20
-3.042112074872585
 30
0.0
 10
-1.28604430996015
 20
-3.223911643195808
 30
0.0
 10
-1.44991723661614
 20
-3.467001032694952
 30
0.0
 10
-1.59069999713592
 20
-3.675828799408047
 30
0.0
 10
-1.669722167650611
 20
-3.897296377450061
 30
0.0
 10
-1.666658423923789
 20
-4.074406923243714
 30
0.0
 10
-1.660923245118119
 20
-4.560742625705251
 30
0.0
 10
-1.493762398365069
 20
-4.899224667566854
 30
0.0
 10
-1.140534274862022
 20
-5.139610863599715
 30
0.0
 10
-1.129475796701627
 20
-5.147161871195256
 30
0.0
 10
-1.11847247319497
 20
-5.153044632926518
 30
0.0
 10
-1.107543875145059
 20
-5.15733761052546
 30
0.0
 10
-1.015929572581071
 20
-6.421664348653596
 30
0.0
 10
-0.473983183800303
 20
-7.614861790839667
 30
0.0
 10
0.4204609458733254
 20
-8.519973908607046
 30
0.0
 10
0.4204609458733254
 20
-8.519973908607046
 30
0.0
 10
0.4464280420944659
 20
-8.545716829108338
 30
0.0
 10
0.4464280420944659
 20
-8.545716829108338
 30
0.0
 10
0.4215444649962086
 20
-8.686499593184584
 30
0.0
 10
0.4206673697574767
 20
-8.805350435150205
 30
0.0
 10
0.4434763865527758
 20
-8.918223240424696
 30
0.0
 10
0.501911693732432
 20
-9.207018456700553
 30
0.0
 10
0.6870066501058368
 20
-9.459497100077694
 30
0.0
 10
0.9385699002596841
 20
-9.593591935605824
 30
0.0
 10
1.19091776770943
 20
-9.728023035697635
 30
0.0
 10
1.484327273644087
 20
-9.735084591539058
 30
0.0
 10
1.83572373401791
 20
-9.614813965859286
 30
0.0
 10
1.864530397595609
 20
-9.604875479860386
 30
0.0
 10
1.884257918177999
 20
-9.590883137730088
 30
0.0
 10
1.89776454448583
 20
-9.576274310566152
 30
0.0
 10
2.61094430372192
 20
-9.920160871223743
 30
0.0
 10
3.380896728724944
 20
-10.09877339873613
 30
0.0
 10
4.193834972724264
 20
-10.10727341965639
 30
0.0
 10
5.216153946541213
 20
-10.10727341965639
 30
0.0
 10
6.209890433150727
 20
-9.822214476312384
 30
0.0
 10
7.068859558508948
 20
-9.28277139039599
 30
0.0
 10
7.137457527806797
 20
-9.298669231721558
 30
0.0
 10
7.207568687603876
 20
-9.309242884118955
 30
0.0
 10
7.27764248467257
 20
-9.314100038930468
 30
0.0
 10
7.27764248467257
 20
-9.314100038930468
 30
0.0
 10
7.281864472979022
 20
-9.314342896671052
 30
0.0
 10
7.281864472979022
 20
-9.314342896671052
 30
0.0
 10
7.281864472979022
 20
-9.314342896671052
 30
0.0
 10
7.285993054464547
 20
-9.313782455731294
 30
0.0
 10
7.285993054464547
 20
-9.313782455731294
 30
0.0
 10
7.295483187471998
 20
-9.312512122934423
 30
0.0
 10
7.305589805497624
 20
-9.311465966513575
 30
0.0
 10
7.316032688078646
 20
-9.31036376599862
 30
0.0
 10
7.340561319257327
 20
-9.307823100404827
 30
0.0
 10
7.366864680033839
 20
-9.304964851611885
 30
0.0
 10
7.392476830335403
 20
-9.299080221744033
 30
0.0
 10
7.71771938084622
 20
-9.22291629802607
 30
0.0
 10
7.921252843673048
 20
-8.983402521722736
 30
0.0
 10
7.965565039526659
 20
-8.624739001619243
 30
0.0
 10
7.968125505963295
 20
-8.604544446421919
 30
0.0
 10
7.967115592754251
 20
-8.585545498563054
 30
0.0
 10
7.962707910212025
 20
-8.56805974124144
 30
0.0
 10
7.994539835382056
 20
-8.529576130042237
 30
0.0
 10
8.10175218445622
 20
-8.422980263293413
 30
0.0
 10
8.156189679699688
 20
-8.368766943050609
 30
0.0
 10
8.192488695527496
 20
-8.332674546527919
 30
0.0
 10
8.220976650703202
 20
-8.304222828151094
 30
0.0
 10
8.228730542967595
 20
-8.295405224031684
 30
0.0
 10
8.320082416153936
 20
-8.191742331534442
 30
0.0
 10
8.408593591242
 20
-8.082904701026312
 30
0.0
 10
8.491819068698936
 20
-7.971937394947089
 30
0.0
 10
8.65795244042167
 20
-7.750469816905226
 30
0.0
 10
8.808001157578625
 20
-7.514374730334717
 30
0.0
 10
8.937724550499196
 20
-7.270022480584556
 30
0.0
 10
9.180694373126597
 20
-6.812534541430649
 30
0.0
 10
9.36186624302056
 20
-6.286859621268528
 30
0.0
 10
9.491590793970115
 20
-5.662911382313596
 30
0.0
 10
9.491590793970115
 20
-5.662911382313596
 30
0.0
 10
9.499473171628425
 20
-5.625152608063217
 30
0.0
 10
9.499473171628425
 20
-5.625152608063217
 30
0.0
 10
9.522077622295733
 20
-5.516963220908906
 30
0.0
 10
9.545448008894759
 20
-5.405116022554176
 30
0.0
 10
9.55701177332705
 20
-5.292396404469792
 30
0.0
 10
9.559404147685074
 20
-5.26870656594474
 30
0.0
 10
9.561345849818634
 20
-5.244938265688069
 30
0.0
 10
9.56267222667596
 20
-5.221169965431399
 30
0.0
 10
9.570088728258572
 20
-5.083886220956047
 30
0.0
 10
9.560525029564714
 20
-4.934519369818493
 30
0.0
 10
9.5333798476294
 20
-4.764404995089913
 30
0.0
 10
9.521610588191026
 20
-4.690873275652456
 30
0.0
 10
9.533454573086146
 20
-4.625370806745814
 30
0.0
 10
9.570537080999076
 20
-4.558119762107013
 30
0.0
 10
9.63214822009066
 20
-4.446591641460802
 30
0.0
 10
9.71016276048979
 20
-4.341263678931315
 30
0.0
 10
9.802765119218469
 20
-4.244441341731671
 30
0.0
 10
9.8570718449126
 20
-4.285459640487817
 30
0.0
 10
9.92340936914373
 20
-4.308671609705016
 30
0.0
 10
9.993352396663113
 20
-4.31057935066393
 30
0.0
 10
10.07695150140383
 20
-4.312884631062982
 30
0.0
 10
10.15576817691246
 20
-4.280769497076323
 30
0.0
 10
10.21855624194788
 20
-4.220593458861458
 30
0.0
 10
10.28274658731258
 20
-4.159065263472485
 30
0.0
 10
10.32031363267919
 20
-4.07432659337567
 30
0.0
 10
10.32162132817237
 20
-3.988235392477488
 30
0.0
 10
10.32429276325123
 20
-3.811522759751079
 30
0.0
 10
10.18711550601968
 20
-3.6685150451438
 30
0.0
 10
10.0093810071363
 20
-3.662632283412373
 30
0.0
 10
9.826303638095194
 20
-3.659772166483005
 30
0.0
 10
9.68258790339789
 20
-3.789900948293785
 30
0.0
 10
9.675115357722763
 20
-3.972894255818864
 30
0.0
 10
9.673508760402607
 20
-4.012401605801389
 30
0.0
 10
9.678851630560327
 20
-4.050956206186394
 30
0.0
 10
9.691013198646639
 20
-4.087919154302136
 30
0.0
 10
9.627404315046835
 20
-4.151355464277446
 30
0.0
 10
9.573320604263067
 20
-4.213041704011415
 30
0.0
 10
9.527140271990648
 20
-4.274728130559096
 30
0.0
 10
9.532221603049745
 20
-4.082912548573378
 30
0.0
 10
9.538349090503363
 20
-3.885054479188524
 30
0.0
 10
9.574909680352802
 20
-3.693316424866238
 30
0.0
 10
9.623125121187917
 20
-3.440609868840043
 30
0.0
 10
9.708087965514348
 20
-3.193625414809351
 30
0.0
 10
9.790323330669354
 20
-2.954670211309475
 30
0.0
 10
9.812031075855657
 20
-2.891551484533352
 30
0.0
 10
9.83377618377032
 20
-2.828434625893654
 30
0.0
 10
9.85488612530263
 20
-2.765078645786401
 30
0.0
 10
9.857464153560562
 20
-2.764443479388041
 30
0.0
 10
9.860004819090085
 20
-2.763727983121637
 30
0.0
 10
9.862582847348019
 20
-2.763012486855056
 30
0.0
 10
10.04566021638915
 20
-2.71213752647706
 30
0.0
 10
10.20374192014689
 20
-2.5600674818734
 30
0.0
 10
10.28545420710462
 20
-2.356169727294034
 30
0.0
 10
10.33832246775632
 20
-2.224204567337198
 30
0.0
 10
10.33187857636785
 20
-2.097731728590234
 30
0.0
 10
10.32563782147273
 20
-1.975480878256614
 30
0.0
 10
10.32123019851178
 20
-1.888350993483262
 30
0.0
 10
10.3249092482694
 20
-1.815138725381568
 30
0.0
 10
10.33240047530873
 20
-1.720461569285678
 30
0.0
 10
10.33357740125257
 20
-1.705572521651776
 30
0.0
 10
10.33815433547862
 20
-1.651826235525555
 30
0.0
 10
10.30331359126823
 20
-1.631781131245488
 30
0.0
  0
SPLINE
  5
42
330
1F
100
AcDbEntity
  8
Layer 1
370
     0
100
AcDbSpline
210
0.0
220
0.0
230
1.0
 70
    11
 71
     3
 72
    20
 73
    16
 74
     0
 42
0.0000000001
 43
0.0000000001
 12
1.0
 22
0.0
 32
0.0
 13
1.0
 23
0.0
 33
0.0
 40
0.0
 40
0.0
 40
0.0
 40
0.0
 40
1.0
 40
1.0
 40
1.0
 40
2.0
 40
2.0
 40
2.0
 40
3.0
 40
3.0
 40
3.0
 40
4.0
 40
4.0
 40
4.0
 40
5.0
 40
5.0
 40
5.0
 40
5.0
 10
1.684722267287371
 20
-0.0597069323940913
 30
0.0
 10
1.693465145727284
 20
-0.0081090032036728
 30
0.0
 10
1.703440994203611
 20
0.0413405690507665
 30
0.0
 10
1.719861913324747
 20
0.0887912352866351
 30
0.0
 10
1.76867631794764
 20
0.2301344403028022
 30
0.0
 10
1.840879790533765
 20
0.2984895535929707
 30
0.0
 10
1.943907514029863
 20
0.2984895535929707
 30
0.0
 10
1.970173512078014
 20
0.2984895535929707
 30
0.0
 10
1.998438416094258
 20
0.2940433888039454
 30
0.0
 10
2.028814314263728
 20
0.2852257846845229
 30
0.0
 10
2.094460628019899
 20
0.2662268368254798
 30
0.0
 10
2.160256392689575
 20
0.2364113788284435
 30
0.0
 10
2.228331283790162
 20
0.1948453424604142
 30
0.0
 10
2.043086876503265
 20
0.1205869179377083
 30
0.0
 10
1.860831487486406
 20
0.035287806900985
 30
0.0
 10
1.684722267287371
 20
-0.0597069323940913
 30
0.0
  0
SPLINE
  5
43
330
1F
100
AcDbEntity
  8
Layer 1
370
     0
100
AcDbSpline
210
0.0
220
0.0
230
1.0
 70
    11
 71
     3
 72
    14
 73
    10
 74
     0
 42
0.0000000001
 43
0.0000000001
 12
1.0
 22
0.0
 32
0.0
 13
1.0
 23
0.0
 33
0.0
 40
0.0
 40
0.0
 40
0.0
 40
0.0
 40
1.0
 40
1.0
 40
1.0
 40
2.0
 40
2.0
 40
2.0
 40
3.0
 40
3.0
 40
3.0
 40
3.0
 10
3.851928645357879
 20
0.0123284097341967
 30
0.0
 10
3.810045026848671
 20
-0.1732149040670821
 30
0.0
 10
3.689568909201107
 20
-0.3152680009400607
 30
0.0
 10
3.53778282517467
 20
-0.351192265180973
 30
0.0
 10
3.447235258291698
 20
-0.3725824277163762
 30
0.0
 10
3.361430747241191
 20
-0.3429351020012821
 30
0.0
 10
3.285547045910056
 20
-0.301910825208299
 30
0.0
 10
3.465169368365196
 20
-0.1829105323254225
 30
0.0
 10
3.655158846955323
 20
-0.0775102729148658
 30
0.0
 10
3.851928645357879
 20
0.0123284097341967
 30
0.0
  0
SPLINE
  5
44
330
1F
100
AcDbEntity
  8
Layer 1
370
     0
100
AcDbSpline
210
0.0
220
0.0
230
1.0
 70
    11
 71
     3
 72
    23
 73
    19
 74
     0
 42
0.0000000001
 43
0.0000000001
 12
1.0
 22
0.0
 32
0.0
 13
1.0
 23
0.0
 33
0.0
 40
0.0
 40
0.0
 40
0.0
 40
0.0
 40
1.0
 40
1.0
 40
1.0
 40
2.0
 40
2.0
 40
2.0
 40
3.0
 40
3.0
 40
3.0
 40
4.0
 40
4.0
 40
4.0
 40
5.0
 40
5.0
 40
5.0
 40
6.0
 40
6.0
 40
6.0
 40
6.0
 10
9.016036829174734
 20
-6.491626059304533
 30
0.0
 10
8.647193111347052
 20
-7.51500989673309
 30
0.0
 10
7.949237527226463
 20
-8.40215054169774
 30
0.0
 10
7.029591330986047
 20
-9.010359730926792
 30
0.0
 10
6.875096449152352
 20
-8.960984884130994
 30
0.0
 10
6.72230157145979
 20
-8.8771989636317
 30
0.0
 10
6.575204509844499
 20
-8.761225051823708
 30
0.0
 10
6.403410684772855
 20
-8.625206035735674
 30
0.0
 10
6.24510480464485
 20
-8.4668627888792
 30
0.0
 10
6.092048387853638
 20
-8.313769005492203
 30
0.0
 10
6.027410867763617
 20
-8.24922489059251
 30
0.0
 10
5.962848073130342
 20
-8.184587368869693
 30
0.0
 10
5.897183078009978
 20
-8.121388312225513
 30
0.0
 10
5.897201759374171
 20
-8.121332268131608
 30
0.0
 10
5.897183078009978
 20
-8.121369630861004
 30
0.0
 10
5.897201759374171
 20
-8.121313586766922
 30
0.0
 10
7.135103675919127
 20
-8.034744142933453
 30
0.0
 10
8.255014096253515
 20
-7.447682258499248
 30
0.0
 10
9.016036829174734
 20
-6.491626059304533
 30
0.0
  0
SPLINE
  5
45
330
1F
100
AcDbEntity
  8
Layer 1
370
     0
100
AcDbSpline
210
0.0
220
0.0
230
1.0
 70
    11
 71
     3
 72
    14
 73
    10
 74
     0
 42
0.0000000001
 43
0.0000000001
 12
1.0
 22
0.0
 32
0.0
 13
1.0
 23
0.0
 33
0.0
 40
0.0
 40
0.0
 40
0.0
 40
0.0
 40
1.0
 40
1.0
 40
1.0
 40
2.0
 40
2.0
 40
2.0
 40
3.0
 40
3.0
 40
3.0
 40
3.0
 10
1.606934025654861
 20
-9.424917894092484
 30
0.0
 10
1.486232772791254
 20
-9.454639945266182
 30
0.0
 10
1.380384163302791
 20
-9.464017990325347
 30
0.0
 10
1.278794904849166
 20
-9.453761921127098
 30
0.0
 10
0.9398028702960851
 20
-9.420453047938736
 30
0.0
 10
0.673462661069632
 20
-9.107409420334534
 30
0.0
 10
0.6621604357359653
 20
-8.749698649828588
 30
0.0
 10
0.9523193843019473
 20
-9.008995991306593
 30
0.0
 10
1.269416860026846
 20
-9.235638307359295
 30
0.0
 10
1.606934025654861
 20
-9.424917894092484
 30
0.0
  0
SPLINE
  5
46
330
1F
100
AcDbEntity
  8
Layer 1
370
     0
100
AcDbSpline
210
0.0
220
0.0
230
1.0
 70
    11
 71
     3
 72
    32
 73
    28
 74
     0
 42
0.0000000001
 43
0.0000000001
 12
1.0
 22
0.0
 32
0.0
 13
1.0
 23
0.0
 33
0.0
 40
0.0
 40
0.0
 40
0.0
 40
0.0
 40
1.0
 40
1.0
 40
1.0
 40
2.0
 40
2.0
 40
2.0
 40
3.0
 40
3.0
 40
3.0
 40
4.0
 40
4.0
 40
4.0
 40
5.0
 40
5.0
 40
5.0
 40
6.0
 40
6.0
 40
6.0
 40
7.0
 40
7.0
 40
7.0
 40
8.0
 40
8.0
 40
8.0
 40
9.0
 40
9.0
 40
9.0
 40
9.0
 10
-0.4849500508559382
 20
-2.795127620841729
 30
0.0
 10
-0.2320043797521976
 20
-2.189793493633728
 30
0.0
 10
0.1331042019355158
 20
-1.644316326932249
 30
0.0
 10
0.6012778698477127
 20
-1.172593187907675
 30
0.0
 10
1.133154989640527
 20
-0.6367369240059083
 30
0.0
 10
1.757934533539633
 20
-0.235143627914201
 30
0.0
 10
2.458579097405656
 20
0.0214635970527929
 30
0.0
 10
2.458579097405656
 20
0.0214635970527929
 30
0.0
 10
2.47488792834166
 20
0.0079569704037997
 30
0.0
 10
2.47488792834166
 20
0.0079569704037997
 30
0.0
 10
2.602705822115063
 20
-0.0978542790294215
 30
0.0
 10
2.734502846460487
 20
-0.2069160859132353
 30
0.0
 10
2.867775698576742
 20
-0.3100185374707456
 30
0.0
 10
2.638723492269289
 20
-0.49023766234374
 30
0.0
 10
2.428427375606437
 20
-0.6924634347861658
 30
0.0
 10
2.242043405104065
 20
-0.9117079304335978
 30
0.0
 10
1.835125930363903
 20
-1.390642076216826
 30
0.0
 10
1.542912031737248
 20
-1.934942316944747
 30
0.0
 10
1.373303926275589
 20
-2.529940045086442
 30
0.0
 10
1.042625098786124
 20
-2.628908310644685
 30
0.0
 10
0.6961418371937118
 20
-2.648383633302589
 30
0.0
 10
0.3610542077558926
 20
-2.667223789561957
 30
0.0
 10
0.3610542077558926
 20
-2.667223789561957
 30
0.0
 10
0.2944738257903307
 20
-2.670960062493994
 30
0.0
 10
0.2944738257903307
 20
-2.670960062493994
 30
0.0
 10
-0.0100324104719347
 20
-2.688369226220389
 30
0.0
 10
-0.260418734681947
 20
-2.728115697670647
 30
0.0
 10
-0.4849500508559382
 20
-2.795127620841729
 30
0.0
  0
SPLINE
  5
47
330
1F
100
AcDbEntity
  8
Layer 1
370
     0
100
AcDbSpline
210
0.0
220
0.0
230
1.0
 70
    11
 71
     3
 72
    44
 73
    40
 74
     0
 42
0.0000000001
 43
0.0000000001
 12
1.0
 22
0.0
 32
0.0
 13
1.0
 23
0.0
 33
0.0
 40
0.0
 40
0.0
 40
0.0
 40
0.0
 40
1.0
 40
1.0
 40
1.0
 40
2.0
 40
2.0
 40
2.0
 40
3.0
 40
3.0
 40
3.0
 40
4.0
 40
4.0
 40
4.0
 40
5.0
 40
5.0
 40
5.0
 40
6.0
 40
6.0
 40
6.0
 40
7.0
 40
7.0
 40
7.0
 40
8.0
 40
8.0
 40
8.0
 40
9.0
 40
9.0
 40
9.0
 40
10.0
 40
10.0
 40
10.0
 40
11.0
 40
11.0
 40
11.0
 40
12.0
 40
12.0
 40
12.0
 40
13.0
 40
13.0
 40
13.0
 40
13.0
 10
0.4533775095723437
 20
-2.915400114658079
 30
0.0
 10
0.5611689809363472
 20
-2.909517352926653
 30
0.0
 10
0.6726219996811803
 20
-2.903397337864084
 30
0.0
 10
0.7823936956490973
 20
-2.892745223735031
 30
0.0
 10
0.9756907138002285
 20
-2.873905067475663
 30
0.0
 10
1.147035243232115
 20
-2.846400494287119
 30
0.0
 10
1.303827932860903
 20
-2.808878973367869
 30
0.0
 10
1.243935479274594
 20
-3.088058891253278
 30
0.0
 10
1.210869464662058
 20
-3.37645806259833
 30
0.0
 10
1.205414506319206
 20
-3.667164382478871
 30
0.0
 10
1.189479302666945
 20
-4.519804470003451
 30
0.0
 10
1.413861167927457
 20
-5.346450933112919
 30
0.0
 10
1.85444246093415
 20
-6.05894510428248
 30
0.0
 10
1.828288551071132
 20
-6.156164794108563
 30
0.0
 10
1.783060968372309
 20
-6.252355140741908
 30
0.0
 10
1.709325623922799
 20
-6.368179601632644
 30
0.0
 10
1.579994539650165
 20
-6.571432849131219
 30
0.0
 10
1.434448031262491
 20
-6.76698937439
 30
0.0
 10
1.293665270742698
 20
-6.956175554299837
 30
0.0
 10
1.188845084568483
 20
-7.097051725199435
 30
0.0
 10
1.080454861266541
 20
-7.242672962722509
 30
0.0
 10
0.9791084605473593
 20
-7.390928272662677
 30
0.0
 10
0.7697650934580906
 20
-7.697209246260122
 30
0.0
 10
0.6088998664363569
 20
-7.968686837496332
 30
0.0
 10
0.511962267665505
 20
-8.279974416822572
 30
0.0
 10
-0.3783541867999626
 20
-7.342842440028435
 30
0.0
 10
-0.8712059368043203
 20
-6.106640496395508
 30
0.0
 10
-0.8775762819923835
 20
-4.790954950544497
 30
0.0
 10
-0.8775762819923835
 20
-4.790954950544497
 30
0.0
 10
-0.8775762819923835
 20
-4.790874620676454
 30
0.0
 10
-0.8775762819923835
 20
-4.790874620676454
 30
0.0
 10
-0.8804345307131345
 20
-4.21057725838543
 30
0.0
 10
-0.7874947438784955
 20
-3.64196508968938
 30
0.0
 10
-0.6012975870180021
 20
-3.100459581114491
 30
0.0
 10
-0.4397962864728697
 20
-3.036070521541483
 30
0.0
 10
-0.2559352072768585
 20
-2.99012370516079
 30
0.0
 10
-0.0246038745384693
 20
-2.956179665573914
 30
0.0
 10
0.1334591478550919
 20
-2.932887740116093
 30
0.0
 10
0.2960991044746809
 20
-2.923986069855623
 30
0.0
 10
0.4533775095723437
 20
-2.915400114658079
 30
0.0
  0
SPLINE
  5
48
330
1F
100
AcDbEntity
  8
Layer 1
370
     0
100
AcDbSpline
210
0.0
220
0.0
230
1.0
 70
    11
 71
     3
 72
    50
 73
    46
 74
     0
 42
0.0000000001
 43
0.0000000001
 12
1.0
 22
0.0
 32
0.0
 13
1.0
 23
0.0
 33
0.0
 40
0.0
 40
0.0
 40
0.0
 40
0.0
 40
1.0
 40
1.0
 40
1.0
 40
2.0
 40
2.0
 40
2.0
 40
3.0
 40
3.0
 40
3.0
 40
4.0
 40
4.0
 40
4.0
 40
5.0
 40
5.0
 40
5.0
 40
6.0
 40
6.0
 40
6.0
 40
7.0
 40
7.0
 40
7.0
 40
8.0
 40
8.0
 40
8.0
 40
9.0
 40
9.0
 40
9.0
 40
10.0
 40
10.0
 40
10.0
 40
11.0
 40
11.0
 40
11.0
 40
12.0
 40
12.0
 40
12.0
 40
13.0
 40
13.0
 40
13.0
 40
14.0
 40
14.0
 40
14.0
 40
15.0
 40
15.0
 40
15.0
 40
15.0
 10
6.764558817252741
 20
-9.174195298993304
 30
0.0
 10
5.984182191032889
 20
-9.624920584140302
 30
0.0
 10
5.097116293936109
 20
-9.862846444447415
 30
0.0
 10
4.188398695745592
 20
-9.862846444447415
 30
0.0
 10
2.874332857406683
 20
-9.849003553234525
 30
0.0
 10
1.637626548169742
 20
-9.355030908900163
 30
0.0
 10
0.7031473487641556
 20
-8.471234228209596
 30
0.0
 10
0.7749771940665116
 20
-8.204221483127084
 30
0.0
 10
0.8969104581207273
 20
-7.945391175765685
 30
0.0
 10
1.085666961874975
 20
-7.658893767342861
 30
0.0
 10
1.210626606927614
 20
-7.469315278775209
 30
0.0
 10
1.347841226887517
 20
-7.28448185683126
 30
0.0
 10
1.480497593985572
 20
-7.105701197036928
 30
0.0
 10
1.575865958164652
 20
-6.977248133636092
 30
0.0
 10
1.674466198348227
 20
-6.84440494954035
 30
0.0
 10
1.76804115156526
 20
-6.710459564929452
 30
0.0
 10
1.864418309410477
 20
-6.572628456469475
 30
0.0
 10
1.95053939831655
 20
-6.444885284925804
 30
0.0
 10
2.01596153570247
 20
-6.30156185525579
 30
0.0
 10
2.141294808038891
 20
-6.476680967576713
 30
0.0
 10
2.280078662590566
 20
-6.643374784436168
 30
0.0
 10
2.429287697979261
 20
-6.797907032902003
 30
0.0
 10
2.96079021086814
 20
-7.348166628956379
 30
0.0
 10
3.626463260974484
 20
-7.750002782788821
 30
0.0
 10
4.354215512525077
 20
-7.959775826553596
 30
0.0
 10
4.414872873795123
 20
-7.977672573897709
 30
0.0
 10
4.475886209232713
 20
-7.993794591599099
 30
0.0
 10
4.537123721040542
 20
-8.008590232409663
 30
0.0
 10
4.844357436474234
 20
-8.083072833308254
 30
0.0
 10
5.16162409312167
 20
-8.124489418759039
 30
0.0
 10
5.480028215694865
 20
-8.131719106882377
 30
0.0
 10
5.501698598152794
 20
-8.132279547822286
 30
0.0
 10
5.523630519709349
 20
-8.133549880619183
 30
0.0
 10
5.545375627624026
 20
-8.132428998739544
 30
0.0
 10
5.545375627624026
 20
-8.132428998739544
 30
0.0
 10
5.569455906062191
 20
-8.155481802729657
 30
0.0
 10
5.569455906062191
 20
-8.155481802729657
 30
0.0
 10
5.784926760605079
 20
-8.363760337321839
 30
0.0
 10
5.998809699191989
 20
-8.573383930169383
 30
0.0
 10
6.212599230957949
 20
-8.783325106216276
 30
0.0
 10
6.365300701829609
 20
-8.933728773092247
 30
0.0
 10
6.53601209114317
 20
-9.057810397162685
 30
0.0
 10
6.720041126393071
 20
-9.152169970059377
 30
0.0
 10
6.734818085465677
 20
-9.159717241381914
 30
0.0
 10
6.749688451359209
 20
-9.167040336328581
 30
0.0
 10
6.764558817252741
 20
-9.174195298993304
 30
0.0
  0
SPLINE
  5
49
330
1F
100
AcDbEntity
  8
Layer 1
370
     0
100
AcDbSpline
210
0.0
220
0.0
230
1.0
 70
    11
 71
     3
 72
    17
 73
    13
 74
     0
 42
0.0000000001
 43
0.0000000001
 12
1.0
 22
0.0
 32
0.0
 13
1.0
 23
0.0
 33
0.0
 40
0.0
 40
0.0
 40
0.0
 40
0.0
 40
1.0
 40
1.0
 40
1.0
 40
2.0
 40
2.0
 40
2.0
 40
3.0
 40
3.0
 40
3.0
 40
4.0
 40
4.0
 40
4.0
 40
4.0
 10
2.730691848166164
 20
0.1120121715588438
 30
0.0
 10
3.132770849581662
 20
0.2339454386932908
 30
0.0
 10
3.549197138693456
 20
0.3058126485396365
 30
0.0
 10
3.972572895283141
 20
0.3263995123947501
 30
0.0
 10
3.655027066817739
 20
0.2003189823057659
 30
0.0
 10
3.352520739466589
 20
0.0372867129195432
 30
0.0
 10
3.070245319456931
 20
-0.1599324537939487
 30
0.0
 10
2.960229769942505
 20
-0.0790234634523207
 30
0.0
 10
2.852363573121743
 20
0.0107404937379619
 30
0.0
 10
2.747785296398054
 20
0.0978516971466156
 30
0.0
 10
2.747785296398054
 20
0.0978516971466156
 30
0.0
 10
2.730691848166164
 20
0.1120121715588438
 30
0.0
 10
2.730691848166164
 20
0.1120121715588438
 30
0.0
  0
SPLINE
  5
4A
330
1F
100
AcDbEntity
  8
Layer 1
370
     0
100
AcDbSpline
210
0.0
220
0.0
230
1.0
 70
    11
 71
     3
 72
    23
 73
    19
 74
     0
 42
0.0000000001
 43
0.0000000001
 12
1.0
 22
0.0
 32
0.0
 13
1.0
 23
0.0
 33
0.0
 40
0.0
 40
0.0
 40
0.0
 40
0.0
 40
1.0
 40
1.0
 40
1.0
 40
2.0
 40
2.0
 40
2.0
 40
3.0
 40
3.0
 40
3.0
 40
4.0
 40
4.0
 40
4.0
 40
5.0
 40
5.0
 40
5.0
 40
6.0
 40
6.0
 40
6.0
 40
6.0
 10
-1.121405447372455
 20
-4.846997176387339
 30
0.0
 10
-1.124674686105335
 20
-4.844374312789101
 30
0.0
 10
-1.127925243474035
 20
-4.841590789454775
 30
0.0
 10
-1.13115711947853
 20
-4.838809134257025
 30
0.0
 10
-1.442444690941001
 20
-4.571714191169904
 30
0.0
 10
-1.528528417118701
 20
-4.10803151149499
 30
0.0
 10
-1.335848826885012
 20
-3.736403124317551
 30
0.0
 10
-1.257779405943906
 20
-3.585842533978318
 30
0.0
 10
-1.152211016918247
 20
-3.454998255901134
 30
0.0
 10
-1.022132678078126
 20
-3.347444035145183
 30
0.0
 10
-0.9857600620043487
 20
-3.317316598358389
 30
0.0
 10
-0.948285245443483
 20
-3.289255320502952
 30
0.0
 10
-0.9089236110996302
 20
-3.262625035180311
 30
0.0
 10
-1.052882203531352
 20
-3.757150647908765
 30
0.0
 10
-1.124506553827637
 20
-4.271071440240436
 30
0.0
 10
-1.122003251026475
 20
-4.791988030010089
 30
0.0
 10
-1.121928525569729
 20
-4.810351811470771
 30
0.0
 10
-1.121723030563645
 20
-4.828713724794865
 30
0.0
 10
-1.121405447372455
 20
-4.846997176387339
 30
0.0
  0
HATCH
  5
4B
330
1F
100
AcDbEntity
  8
Layer 1
 62
     7
420
 16777215
100
AcDbHatch
 10
0.0
 20
0.0
 30
0.0
210
0.0
220
0.0
230
1.0
  2
SOLID
 70
     1
 71
     0
 91
       10
 92
        1
 93
        1
 72
     4
 94
        3
 73
     0
 74
     1
 95
      353
 96
      349
 40
0.0
 40
0.0
 40
0.0
 40
0.0
 40
1.0
 40
1.0
 40
1.0
 40
2.0
 40
2.0
 40
2.0
 40
3.0
 40
3.0
 40
3.0
 40
4.0
 40
4.0
 40
4.0
 40
5.0
 40
5.0
 40
5.0
 40
6.0
 40
6.0
 40
6.0
 40
7.0
 40
7.0
 40
7.0
 40
8.0
 40
8.0
 40
8.0
 40
9.0
 40
9.0
 40
9.0
 40
10.0
 40
10.0
 40
10.0
 40
11.0
 40
11.0
 40
11.0
 40
12.0
 40
12.0
 40
12.0
 40
13.0
 40
13.0
 40
13.0
 40
14.0
 40
14.0
 40
14.0
 40
15.0
 40
15.0
 40
15.0
 40
16.0
 40
16.0
 40
16.0
 40
17.0
 40
17.0
 40
17.0
 40
18.0
 40
18.0
 40
18.0
 40
19.0
 40
19.0
 40
19.0
 40
20.0
 40
20.0
 40
20.0
 40
21.0
 40
21.0
 40
21.0
 40
22.0
 40
22.0
 40
22.0
 40
23.0
 40
23.0
 40
23.0
 40
24.0
 40
24.0
 40
24.0
 40
25.0
 40
25.0
 40
25.0
 40
26.0
 40
26.0
 40
26.0
 40
27.0
 40
27.0
 40
27.0
 40
28.0
 40
28.0
 40
28.0
 40
29.0
 40
29.0
 40
29.0
 40
30.0
 40
30.0
 40
30.0
 40
31.0
 40
31.0
 40
31.0
 40
32.0
 40
32.0
 40
32.0
 40
33.0
 40
33.0
 40
33.0
 40
34.0
 40
34.0
 40
34.0
 40
35.0
 40
35.0
 40
35.0
 40
36.0
 40
36.0
 40
36.0
 40
37.0
 40
37.0
 40
37.0
 40
38.0
 40
38.0
 40
38.0
 40
39.0
 40
39.0
 40
39.0
 40
40.0
 40
40.0
 40
40.0
 40
41.0
 40
41.0
 40
41.0
 40
42.0
 40
42.0
 40
42.0
 40
43.0
 40
43.0
 40
43.0
 40
44.0
 40
44.0
 40
44.0
 40
45.0
 40
45.0
 40
45.0
 40
46.0
 40
46.0
 40
46.0
 40
47.0
 40
47.0
 40
47.0
 40
48.0
 40
48.0
 40
48.0
 40
49.0
 40
49.0
 40
49.0
 40
50.0
 40
50.0
 40
50.0
 40
51.0
 40
51.0
 40
51.0
 40
52.0
 40
52.0
 40
52.0
 40
53.0
 40
53.0
 40
53.0
 40
54.0
 40
54.0
 40
54.0
 40
55.0
 40
55.0
 40
55.0
 40
56.0
 40
56.0
 40
56.0
 40
57.0
 40
57.0
 40
57.0
 40
58.0
 40
58.0
 40
58.0
 40
59.0
 40
59.0
 40
59.0
 40
60.0
 40
60.0
 40
60.0
 40
61.0
 40
61.0
 40
61.0
 40
62.0
 40
62.0
 40
62.0
 40
63.0
 40
63.0
 40
63.0
 40
64.0
 40
64.0
 40
64.0
 40
65.0
 40
65.0
 40
65.0
 40
66.0
 40
66.0
 40
66.0
 40
67.0
 40
67.0
 40
67.0
 40
68.0
 40
68.0
 40
68.0
 40
69.0
 40
69.0
 40
69.0
 40
70.0
 40
70.0
 40
70.0
 40
71.0
 40
71.0
 40
71.0
 40
72.0
 40
72.0
 40
72.0
 40
73.0
 40
73.0
 40
73.0
 40
74.0
 40
74.0
 40
74.0
 40
75.0
 40
75.0
 40
75.0
 40
76.0
 40
76.0
 40
76.0
 40
77.0
 40
77.0
 40
77.0
 40
78.0
 40
78.0
 40
78.0
 40
79.0
 40
79.0
 40
79.0
 40
80.0
 40
80.0
 40
80.0
 40
81.0
 40
81.0
 40
81.0
 40
82.0
 40
82.0
 40
82.0
 40
83.0
 40
83.0
 40
83.0
 40
84.0
 40
84.0
 40
84.0
 40
85.0
 40
85.0
 40
85.0
 40
86.0
 40
86.0
 40
86.0
 40
87.0
 40
87.0
 40
87.0
 40
88.0
 40
88.0
 40
88.0
 40
89.0
 40
89.0
 40
89.0
 40
90.0
 40
90.0
 40
90.0
 40
91.0
 40
91.0
 40
91.0
 40
92.0
 40
92.0
 40
92.0
 40
93.0
 40
93.0
 40
93.0
 40
94.0
 40
94.0
 40
94.0
 40
95.0
 40
95.0
 40
95.0
 40
96.0
 40
96.0
 40
96.0
 40
97.0
 40
97.0
 40
97.0
 40
98.0
 40
98.0
 40
98.0
 40
99.0
 40
99.0
 40
99.0
 40
100.0
 40
100.0
 40
100.0
 40
101.0
 40
101.0
 40
101.0
 40
102.0
 40
102.0
 40
102.0
 40
103.0
 40
103.0
 40
103.0
 40
104.0
 40
104.0
 40
104.0
 40
105.0
 40
105.0
 40
105.0
 40
106.0
 40
106.0
 40
106.0
 40
107.0
 40
107.0
 40
107.0
 40
108.0
 40
108.0
 40
108.0
 40
109.0
 40
109.0
 40
109.0
 40
110.0
 40
110.0
 40
110.0
 40
111.0
 40
111.0
 40
111.0
 40
112.0
 40
112.0
 40
112.0
 40
113.0
 40
113.0
 40
113.0
 40
114.0
 40
114.0
 40
114.0
 40
115.0
 40
115.0
 40
115.0
 40
116.0
 40
116.0
 40
116.0
 40
116.0
 10
10.30331359126823
 20
-1.631781131245488
 10
10.2751794568013
 20
-1.615584388085469
 10
10.23815299298096
 20
-1.620796488825565
 10
10.20099575961128
 20
-1.655674596645452
 10
10.14840771942242
 20
-1.705030762076565
 10
10.09789331065844
 20
-1.754013300214587
 10
10.03747777887485
 20
-1.79940901633798
 10
10.00155351554157
 20
-1.826422269635979
 10
9.964340238079355
 20
-1.854406953896387
 10
9.92951817523317
 20
-1.885324612408365
 10
9.816327789618855
 20
-1.986054530654036
 10
9.729440764781076
 20
-2.090670172748825
 10
9.67128567806425
 20
-2.196537466275964
 10
9.602332762846824
 20
-2.32215096224853
 10
9.519069922661503
 20
-2.584392486796976
 10
9.670295565762292
 20
-2.718020288208499
 10
9.652286730685166
 20
-2.769212831785669
 10
9.634558116070895
 20
-2.820405375363003
 10
9.61684818282078
 20
-2.871678248808229
 10
9.61684818282078
 20
-2.871678248808229
 10
9.59112394433411
 20
-2.945925464512091
 10
9.59112394433411
 20
-2.945925464512091
 10
9.477559931436037
 20
-3.272322531575242
 10
9.355196996005512
 20
-3.6538090748837
 10
9.339840914643066
 20
-4.051750164184416
 10
9.339840914643066
 20
-4.051750164184416
 10
9.337431018662857
 20
-4.14952655867723
 10
9.337431018662857
 20
-4.14952655867723
 10
9.268739642544055
 20
-4.010811821668906
 10
9.182095475440695
 20
-3.869393891194123
 10
9.074135871799019
 20
-3.719550665257884
 10
9.007088455728736
 20
-3.626384831563036
 10
8.928664088868066
 20
-3.545302104530037
 10
8.852238627975515
 20
-3.47153313176145
 10
8.898064014328357
 20
-3.360162308205569
 10
8.890442017739689
 20
-3.182496925881448
 10
8.876206818228537
 20
-3.020331471815628
 10
8.876206818228537
 20
-3.020331471815628
 10
8.875048573648883
 20
-3.00705462595191
 10
8.875048573648883
 20
-3.00705462595191
 10
8.814072600939678
 20
-2.299172883716892
 10
8.392845201231617
 20
-1.627222878268614
 10
7.8019723333335
 20
-1.295329753722588
 10
7.51962219499804
 20
-1.136668923666927
 10
7.20704670972312
 20
-1.038012636898442
 10
6.904818499575261
 20
-0.9425508634869477
 10
6.904818499575261
 20
-0.9425508634869477
 10
6.87647887010227
 20
-0.9336398525442114
 10
6.87647887010227
 20
-0.9336398525442114
 10
6.595903461364665
 20
-0.8448473263161733
 10
6.333579745438605
 20
-0.6074819069487805
 10
6.208227791738005
 20
-0.3287746275892308
 10
6.169744181511001
 20
-0.2433260656352634
 10
6.130475953988076
 20
-0.1583445377978781
 10
6.089731898694354
 20
-0.074166308640795
 10
6.075478017819023
 20
-0.0445937083843293
 10
6.042281233657175
 20
0.024004262646574
 10
5.963072249500593
 20
0.0131877525084166
 10
5.887786351823479
 20
0.0025393746523655
 10
5.876614896039137
 20
-0.0656662877205589
 10
5.869553340376127
 20
-0.1088202400846462
 10
5.806391648056938
 20
-0.4840354492767144
 10
5.781620159143825
 20
-0.7881680659383821
 10
5.791652051712705
 20
-1.066072046617465
 10
5.807736706278458
 20
-1.51298633337395
 10
5.914220482149315
 20
-1.867203688688404
 10
6.117249548143087
 20
-2.149161525498711
 10
6.461847073443752
 20
-2.627716439579419
 10
6.925255911996802
 20
-2.95554449917539
 10
7.533970591269608
 20
-3.151334541492487
 10
7.533970591269608
 20
-3.151334541492487
 10
7.554070630560469
 20
-3.157854337758863
 10
7.554070630560469
 20
-3.157854337758863
 10
7.925158367245835
 20
-3.277172213840913
 10
8.27563832231691
 20
-3.389893700061723
 10
8.625409504006408
 20
-3.555317184124141
 10
8.646556808267077
 20
-3.565412593586289
 10
8.667106308873725
 20
-3.572169643183808
 10
8.686647015814236
 20
-3.57550800304845
 10
9.036492922960456
 20
-3.912241469177893
 10
9.256615437186104
 20
-4.314236040982589
 10
9.340924433765975
 20
-4.770444680284426
 10
9.380304749474009
 20
-4.9832478413971
 10
9.38516190416284
 20
-5.189135161312771
 10
9.355514579196702
 20
-5.383733332564614
 10
9.219065895168493
 20
-4.995013364859965
 10
8.963243293979808
 20
-4.693496139250694
 10
8.593894042621463
 20
-4.486497091324105
 10
8.572055527885823
 20
-4.389515775711238
 10
8.492174014618513
 20
-4.298337452402381
 10
8.35047586725351
 20
-4.208669517426516
 10
8.24617781099265
 20
-4.142532255748594
 10
8.122525861433132
 20
-4.098014563764297
 10
7.982938708221379
 20
-4.076392752307179
 10
7.982938708221379
 20
-4.076392752307179
 10
7.923644058289078
 20
-4.067410752178653
 10
7.923644058289078
 20
-4.067410752178653
 10
7.714898494853842
 20
-4.036091444326441
 10
7.55702228610216
 20
-3.999231243716268
 10
7.359392134358687
 20
-3.861047057464134
 10
7.328288766365277
 20
-3.83928513577204
 10
7.293708457874143
 20
-3.816000682860059
 10
7.265051245209937
 20
-3.828242581121597
 10
7.234955567503296
 20
-3.840882392450364
 10
7.221486303923838
 20
-3.884576236253249
 10
7.22015992706651
 20
-3.926310404903221
 10
7.219376410398531
 20
-3.952542777158454
 10
7.224139057638517
 20
-3.978220312883384
 10
7.229033575055736
 20
-4.004531146870249
 10
7.289486469567692
 20
-4.330531982188884
 10
7.502212271347919
 20
-4.626325424479938
 10
7.770979950145829
 20
-4.758043990423213
 10
7.906027531859914
 20
-4.824183493864792
 10
8.181521609538423
 20
-4.895249273167097
 10
8.38656826286448
 20
-4.819890516266026
 10
8.462769547386818
 20
-4.791829238410577
 10
8.520308149085444
 20
-4.746517588428244
 10
8.558119230201706
 20
-4.684751392453474
 10
8.611809470877636
 20
-4.715276742307651
 10
8.662996408752381
 20
-4.747233084694648
 10
8.707682231889773
 20
-4.786661972945555
 10
9.059471000911545
 20
-5.09692207721562
 10
9.2182999592368
 20
-5.391601923359328
 10
9.221438428420344
 20
-5.740577287750145
 10
8.511976260657649
 20
-7.042427414934131
 10
7.14711579309192
 20
-7.863903063119627
 10
5.654231936746744
 20
-7.88800202353074
 10
5.5959273991164
 20
-7.837282118479429
 10
5.543974525309939
 20
-7.797771032223864
 10
5.4918348378616
 20
-7.764536884494141
 10
5.306142077834175
 20
-7.645629998434439
 10
5.078584380661747
 20
-7.531785762197564
 10
4.79922326059635
 20
-7.587680405259738
 10
4.678541647942716
 20
-7.612003542046724
 10
4.570955671584771
 20
-7.662704765733527
 10
4.478968634323703
 20
-7.738551106252291
 10
3.503203620062929
 20
-7.467633955955837
 10
2.662560912972999
 20
-6.847113747415884
 10
2.108695827531063
 20
-5.988594821246592
 10
2.134326659196808
 20
-5.748763461744046
 10
2.041125333263532
 20
-5.545739995030758
 10
1.851490805392473
 20
-5.429917402276601
 10
1.832547902105969
 20
-5.418312538549849
 10
1.813866537918102
 20
-5.410363617887078
 10
1.79565220783493
 20
-5.405990310420255
 10
1.554942830274235
 20
-4.857172915717544
 10
1.438614930070091
 20
-4.273853655879305
 10
1.44989751944585
 20
-3.671933734876499
 10
1.455744786436652
 20
-3.35308767540889
 10
1.497441591303969
 20
-3.036148983273114
 10
1.573754964011414
 20
-2.729625151935086
 10
1.994982363719499
 20
-2.575330156800406
 10
2.099523277714815
 20
-2.103541632999471
 10
1.984091128397975
 20
-1.713624189820128
 10
1.983176709903243
 20
-1.710597808745231
 10
1.982185629250807
 20
-1.707590109035045
 10
1.981027384671153
 20
-1.704489002501532
 10
2.255961021424026
 20
-1.216232855753055
 10
2.620958499388785
 20
-0.7970043514223258
 10
3.066545413535676
 20
-0.4576386810125541
 10
3.181884156031578
 20
-0.5361004125835507
 10
3.320406471484628
 20
-0.6111434544220375
 10
3.484914564522998
 20
-0.6111434544220375
 10
3.485007971343937
 20
-0.6111434544220375
 10
3.485120059529069
 20
-0.6111434544220375
 10
3.485194784985815
 20
-0.6111434544220375
 10
3.750507519181939
 20
-0.6105082880236775
 10
3.98258610648784
 20
-0.3932440170301182
 10
4.06274784021798
 20
-0.0703553102501297
 10
4.06274784021798
 20
-0.0703553102501297
 10
4.067212686258888
 20
-0.0527014206465992
 10
4.067212686258888
 20
-0.0527014206465992
 10
4.080364366647144
 20
-0.0007111827983787
 10
4.093945718411722
 20
0.0529416965045155
 10
4.089032519630311
 20
0.1116011815363436
 10
4.309491298411356
 20
0.1961904007159268
 10
4.538711636996506
 20
0.2625652893520585
 10
4.77092099385172
 20
0.3091566128137199
 10
4.77092099385172
 20
0.3091566128137199
 10
5.231883655187403
 20
0.4017227747030271
 10
5.231883655187403
 20
0.4017227747030271
 10
5.290113467360988
 20
0.4134173089800899
 10
5.285947523147089
 20
0.4979691654302769
 10
5.22685836822086
 20
0.503891158027525
 10
5.22685836822086
 20
0.503891158027525
 10
4.759077008956612
 20
0.5507253392295676
 10
4.759077008956612
 20
0.5507253392295676
 10
4.580016133215887
 20
0.5684539542917264
 10
4.395238760033672
 20
0.5768045242945542
 10
4.211003146412913
 20
0.5769539752119625
 10
3.62558523685766
 20
0.5752913337572761
 10
3.051357464450929
 20
0.4808570354019442
 10
2.503937449653803
 20
0.2963411966569917
 10
2.393437180482553
 20
0.3817337145170414
 10
2.261079715211508
 20
0.4731416317974764
 10
2.107985935691911
 20
0.524739560987718
 10
1.851173222201282
 20
0.6111408725393959
 10
1.644968324295582
 20
0.5040592903094547
 10
1.527257048547818
 20
0.2229794776380661
 10
1.485634969137247
 20
0.1236880244712211
 10
1.468747015911403
 20
0.0170921577223958
 10
1.452400822247025
 20
-0.0860102938351146
 10
1.452400822247025
 20
-0.0860102938351146
 10
1.445096408849571
 20
-0.1314060099583306
 10
1.445096408849571
 20
-0.1314060099583306
 10
1.441043507475847
 20
-0.1564390386024696
 10
1.440313979617473
 20
-0.1784643675363971
 10
1.443060140153092
 20
-0.1980237563351845
 10
1.07552298112095
 20
-0.4220319999708155
 10
0.7341957760443922
 20
-0.6919029938464215
 10
0.4280642610977894
 20
-1.000425731203008
 10
-0.117693112286626
 20
-1.550274337234896
 10
-0.5285523548704228
 20
-2.193286908825219
 10
-0.7933046481409115
 20
-2.911744171594086
 10
-1.071133896342897
 20
-3.042112074872585
 10
-1.28604430996015
 20
-3.223911643195808
 10
-1.44991723661614
 20
-3.467001032694952
 10
-1.59069999713592
 20
-3.675828799408047
 10
-1.669722167650611
 20
-3.897296377450061
 10
-1.666658423923789
 20
-4.074406923243714
 10
-1.660923245118119
 20
-4.560742625705251
 10
-1.493762398365069
 20
-4.899224667566854
 10
-1.140534274862022
 20
-5.139610863599715
 10
-1.129475796701627
 20
-5.147161871195256
 10
-1.11847247319497
 20
-5.153044632926518
 10
-1.107543875145059
 20
-5.15733761052546
 10
-1.015929572581071
 20
-6.421664348653596
 10
-0.473983183800303
 20
-7.614861790839667
 10
0.4204609458733254
 20
-8.519973908607046
 10
0.4204609458733254
 20
-8.519973908607046
 10
0.4464280420944659
 20
-8.545716829108338
 10
0.4464280420944659
 20
-8.545716829108338
 10
0.4215444649962086
 20
-8.686499593184584
 10
0.4206673697574767
 20
-8.805350435150205
 10
0.4434763865527758
 20
-8.918223240424696
 10
0.501911693732432
 20
-9.207018456700553
 10
0.6870066501058368
 20
-9.459497100077694
 10
0.9385699002596841
 20
-9.593591935605824
 10
1.19091776770943
 20
-9.728023035697635
 10
1.484327273644087
 20
-9.735084591539058
 10
1.83572373401791
 20
-9.614813965859286
 10
1.864530397595609
 20
-9.604875479860386
 10
1.884257918177999
 20
-9.590883137730088
 10
1.89776454448583
 20
-9.576274310566152
 10
2.61094430372192
 20
-9.920160871223743
 10
3.380896728724944
 20
-10.09877339873613
 10
4.193834972724264
 20
-10.10727341965639
 10
5.216153946541213
 20
-10.10727341965639
 10
6.209890433150727
 20
-9.822214476312384
 10
7.068859558508948
 20
-9.28277139039599
 10
7.137457527806797
 20
-9.298669231721558
 10
7.207568687603876
 20
-9.309242884118955
 10
7.27764248467257
 20
-9.314100038930468
 10
7.27764248467257
 20
-9.314100038930468
 10
7.281864472979022
 20
-9.314342896671052
 10
7.281864472979022
 20
-9.314342896671052
 10
7.281864472979022
 20
-9.314342896671052
 10
7.285993054464547
 20
-9.313782455731294
 10
7.285993054464547
 20
-9.313782455731294
 10
7.295483187471998
 20
-9.312512122934423
 10
7.305589805497624
 20
-9.311465966513575
 10
7.316032688078646
 20
-9.31036376599862
 10
7.340561319257327
 20
-9.307823100404827
 10
7.366864680033839
 20
-9.304964851611885
 10
7.392476830335403
 20
-9.299080221744033
 10
7.71771938084622
 20
-9.22291629802607
 10
7.921252843673048
 20
-8.983402521722736
 10
7.965565039526659
 20
-8.624739001619243
 10
7.968125505963295
 20
-8.604544446421919
 10
7.967115592754251
 20
-8.585545498563054
 10
7.962707910212025
 20
-8.56805974124144
 10
7.994539835382056
 20
-8.529576130042237
 10
8.10175218445622
 20
-8.422980263293413
 10
8.156189679699688
 20
-8.368766943050609
 10
8.192488695527496
 20
-8.332674546527919
 10
8.220976650703202
 20
-8.304222828151094
 10
8.228730542967595
 20
-8.295405224031684
 10
8.320082416153936
 20
-8.191742331534442
 10
8.408593591242
 20
-8.082904701026312
 10
8.491819068698936
 20
-7.971937394947089
 10
8.65795244042167
 20
-7.750469816905226
 10
8.808001157578625
 20
-7.514374730334717
 10
8.937724550499196
 20
-7.270022480584556
 10
9.180694373126597
 20
-6.812534541430649
 10
9.36186624302056
 20
-6.286859621268528
 10
9.491590793970115
 20
-5.662911382313596
 10
9.491590793970115
 20
-5.662911382313596
 10
9.499473171628425
 20
-5.625152608063217
 10
9.499473171628425
 20
-5.625152608063217
 10
9.522077622295733
 20
-5.516963220908906
 10
9.545448008894759
 20
-5.405116022554176
 10
9.55701177332705
 20
-5.292396404469792
 10
9.559404147685074
 20
-5.26870656594474
 10
9.561345849818634
 20
-5.244938265688069
 10
9.56267222667596
 20
-5.221169965431399
 10
9.570088728258572
 20
-5.083886220956047
 10
9.560525029564714
 20
-4.934519369818493
 10
9.5333798476294
 20
-4.764404995089913
 10
9.521610588191026
 20
-4.690873275652456
 10
9.533454573086146
 20
-4.625370806745814
 10
9.570537080999076
 20
-4.558119762107013
 10
9.63214822009066
 20
-4.446591641460802
 10
9.71016276048979
 20
-4.341263678931315
 10
9.802765119218469
 20
-4.244441341731671
 10
9.8570718449126
 20
-4.285459640487817
 10
9.92340936914373
 20
-4.308671609705016
 10
9.993352396663113
 20
-4.31057935066393
 10
10.07695150140383
 20
-4.312884631062982
 10
10.15576817691246
 20
-4.280769497076323
 10
10.21855624194788
 20
-4.220593458861458
 10
10.28274658731258
 20
-4.159065263472485
 10
10.32031363267919
 20
-4.07432659337567
 10
10.32162132817237
 20
-3.988235392477488
 10
10.32429276325123
 20
-3.811522759751079
 10
10.18711550601968
 20
-3.6685150451438
 10
10.0093810071363
 20
-3.662632283412373
 10
9.826303638095194
 20
-3.659772166483005
 10
9.68258790339789
 20
-3.789900948293785
 10
9.675115357722763
 20
-3.972894255818864
 10
9.673508760402607
 20
-4.012401605801389
 10
9.678851630560327
 20
-4.050956206186394
 10
9.691013198646639
 20
-4.087919154302136
 10
9.627404315046835
 20
-4.151355464277446
 10
9.573320604263067
 20
-4.213041704011415
 10
9.527140271990648
 20
-4.274728130559096
 10
9.532221603049745
 20
-4.082912548573378
 10
9.538349090503363
 20
-3.885054479188524
 10
9.574909680352802
 20
-3.693316424866238
 10
9.623125121187917
 20
-3.440609868840043
 10
9.708087965514348
 20
-3.193625414809351
 10
9.790323330669354
 20
-2.954670211309475
 10
9.812031075855657
 20
-2.891551484533352
 10
9.83377618377032
 20
-2.828434625893654
 10
9.85488612530263
 20
-2.765078645786401
 10
9.857464153560562
 20
-2.764443479388041
 10
9.860004819090085
 20
-2.763727983121637
 10
9.862582847348019
 20
-2.763012486855056
 10
10.04566021638915
 20
-2.71213752647706
 10
10.20374192014689
 20
-2.5600674818734
 10
10.28545420710462
 20
-2.356169727294034
 10
10.33832246775632
 20
-2.224204567337198
 10
10.33187857636785
 20
-2.097731728590234
 10
10.32563782147273
 20
-1.975480878256614
 10
10.32123019851178
 20
-1.888350993483262
 10
10.3249092482694
 20
-1.815138725381568
 10
10.33240047530873
 20
-1.720461569285678
 10
10.33357740125257
 20
-1.705572521651776
 10
10.33815433547862
 20
-1.651826235525555
 10
10.30331359126823
 20
-1.631781131245488
 97
        0
 97
        0
 92
        1
 93
        1
 72
     4
 94
        3
 73
     0
 74
     1
 95
       20
 96
       16
 40
0.0
 40
0.0
 40
0.0
 40
0.0
 40
1.0
 40
1.0
 40
1.0
 40
2.0
 40
2.0
 40
2.0
 40
3.0
 40
3.0
 40
3.0
 40
4.0
 40
4.0
 40
4.0
 40
5.0
 40
5.0
 40
5.0
 40
5.0
 10
1.684722267287371
 20
-0.0597069323940913
 10
1.693465145727284
 20
-0.0081090032036728
 10
1.703440994203611
 20
0.0413405690507665
 10
1.719861913324747
 20
0.0887912352866351
 10
1.76867631794764
 20
0.2301344403028022
 10
1.840879790533765
 20
0.2984895535929707
 10
1.943907514029863
 20
0.2984895535929707
 10
1.970173512078014
 20
0.2984895535929707
 10
1.998438416094258
 20
0.2940433888039454
 10
2.028814314263728
 20
0.2852257846845229
 10
2.094460628019899
 20
0.2662268368254798
 10
2.160256392689575
 20
0.2364113788284435
 10
2.228331283790162
 20
0.1948453424604142
 10
2.043086876503265
 20
0.1205869179377083
 10
1.860831487486406
 20
0.035287806900985
 10
1.684722267287371
 20
-0.0597069323940913
 97
        0
 97
        0
 92
        1
 93
        1
 72
     4
 94
        3
 73
     0
 74
     1
 95
       14
 96
       10
 40
0.0
 40
0.0
 40
0.0
 40
0.0
 40
1.0
 40
1.0
 40
1.0
 40
2.0
 40
2.0
 40
2.0
 40
3.0
 40
3.0
 40
3.0
 40
3.0
 10
3.851928645357879
 20
0.0123284097341967
 10
3.810045026848671
 20
-0.1732149040670821
 10
3.689568909201107
 20
-0.3152680009400607
 10
3.53778282517467
 20
-0.351192265180973
 10
3.447235258291698
 20
-0.3725824277163762
 10
3.361430747241191
 20
-0.3429351020012821
 10
3.285547045910056
 20
-0.301910825208299
 10
3.465169368365196
 20
-0.1829105323254225
 10
3.655158846955323
 20
-0.0775102729148658
 10
3.851928645357879
 20
0.0123284097341967
 97
        0
 97
        0
 92
        1
 93
        1
 72
     4
 94
        3
 73
     0
 74
     1
 95
       23
 96
       19
 40
0.0
 40
0.0
 40
0.0
 40
0.0
 40
1.0
 40
1.0
 40
1.0
 40
2.0
 40
2.0
 40
2.0
 40
3.0
 40
3.0
 40
3.0
 40
4.0
 40
4.0
 40
4.0
 40
5.0
 40
5.0
 40
5.0
 40
6.0
 40
6.0
 40
6.0
 40
6.0
 10
9.016036829174734
 20
-6.491626059304533
 10
8.647193111347052
 20
-7.51500989673309
 10
7.949237527226463
 20
-8.40215054169774
 10
7.029591330986047
 20
-9.010359730926792
 10
6.875096449152352
 20
-8.960984884130994
 10
6.72230157145979
 20
-8.8771989636317
 10
6.575204509844499
 20
-8.761225051823708
 10
6.403410684772855
 20
-8.625206035735674
 10
6.24510480464485
 20
-8.4668627888792
 10
6.092048387853638
 20
-8.313769005492203
 10
6.027410867763617
 20
-8.24922489059251
 10
5.962848073130342
 20
-8.184587368869693
 10
5.897183078009978
 20
-8.121388312225513
 10
5.897201759374171
 20
-8.121332268131608
 10
5.897183078009978
 20
-8.121369630861004
 10
5.897201759374171
 20
-8.121313586766922
 10
7.135103675919127
 20
-8.034744142933453
 10
8.255014096253515
 20
-7.447682258499248
 10
9.016036829174734
 20
-6.491626059304533
 97
        0
 97
        0
 92
        1
 93
        1
 72
     4
 94
        3
 73
     0
 74
     1
 95
       14
 96
       10
 40
0.0
 40
0.0
 40
0.0
 40
0.0
 40
1.0
 40
1.0
 40
1.0
 40
2.0
 40
2.0
 40
2.0
 40
3.0
 40
3.0
 40
3.0
 40
3.0
 10
1.606934025654861
 20
-9.424917894092484
 10
1.486232772791254
 20
-9.454639945266182
 10
1.380384163302791
 20
-9.464017990325347
 10
1.278794904849166
 20
-9.453761921127098
 10
0.9398028702960851
 20
-9.420453047938736
 10
0.673462661069632
 20
-9.107409420334534
 10
0.6621604357359653
 20
-8.749698649828588
 10
0.9523193843019473
 20
-9.008995991306593
 10
1.269416860026846
 20
-9.235638307359295
 10
1.606934025654861
 20
-9.424917894092484
 97
        0
 97
        0
 92
        1
 93
        1
 72
     4
 94
        3
 73
     0
 74
     1
 95
       32
 96
       28
 40
0.0
 40
0.0
 40
0.0
 40
0.0
 40
1.0
 40
1.0
 40
1.0
 40
2.0
 40
2.0
 40
2.0
 40
3.0
 40
3.0
 40
3.0
 40
4.0
 40
4.0
 40
4.0
 40
5.0
 40
5.0
 40
5.0
 40
6.0
 40
6.0
 40
6.0
 40
7.0
 40
7.0
 40
7.0
 40
8.0
 40
8.0
 40
8.0
 40
9.0
 40
9.0
 40
9.0
 40
9.0
 10
-0.4849500508559382
 20
-2.795127620841729
 10
-0.2320043797521976
 20
-2.189793493633728
 10
0.1331042019355158
 20
-1.644316326932249
 10
0.6012778698477127
 20
-1.172593187907675
 10
1.133154989640527
 20
-0.6367369240059083
 10
1.757934533539633
 20
-0.235143627914201
 10
2.458579097405656
 20
0.0214635970527929
 10
2.458579097405656
 20
0.0214635970527929
 10
2.47488792834166
 20
0.0079569704037997
 10
2.47488792834166
 20
0.0079569704037997
 10
2.602705822115063
 20
-0.0978542790294215
 10
2.734502846460487
 20
-0.2069160859132353
 10
2.867775698576742
 20
-0.3100185374707456
 10
2.638723492269289
 20
-0.49023766234374
 10
2.428427375606437
 20
-0.6924634347861658
 10
2.242043405104065
 20
-0.9117079304335978
 10
1.835125930363903
 20
-1.390642076216826
 10
1.542912031737248
 20
-1.934942316944747
 10
1.373303926275589
 20
-2.529940045086442
 10
1.042625098786124
 20
-2.628908310644685
 10
0.6961418371937118
 20
-2.648383633302589
 10
0.3610542077558926
 20
-2.667223789561957
 10
0.3610542077558926
 20
-2.667223789561957
 10
0.2944738257903307
 20
-2.670960062493994
 10
0.2944738257903307
 20
-2.670960062493994
 10
-0.0100324104719347
 20
-2.688369226220389
 10
-0.260418734681947
 20
-2.728115697670647
 10
-0.4849500508559382
 20
-2.795127620841729
 97
        0
 97
        0
 92
        1
 93
        1
 72
     4
 94
        3
 73
     0
 74
     1
 95
       44
 96
       40
 40
0.0
 40
0.0
 40
0.0
 40
0.0
 40
1.0
 40
1.0
 40
1.0
 40
2.0
 40
2.0
 40
2.0
 40
3.0
 40
3.0
 40
3.0
 40
4.0
 40
4.0
 40
4.0
 40
5.0
 40
5.0
 40
5.0
 40
6.0
 40
6.0
 40
6.0
 40
7.0
 40
7.0
 40
7.0
 40
8.0
 40
8.0
 40
8.0
 40
9.0
 40
9.0
 40
9.0
 40
10.0
 40
10.0
 40
10.0
 40
11.0
 40
11.0
 40
11.0
 40
12.0
 40
12.0
 40
12.0
 40
13.0
 40
13.0
 40
13.0
 40
13.0
 10
0.4533775095723437
 20
-2.915400114658079
 10
0.5611689809363472
 20
-2.909517352926653
 10
0.6726219996811803
 20
-2.903397337864084
 10
0.7823936956490973
 20
-2.892745223735031
 10
0.9756907138002285
 20
-2.873905067475663
 10
1.147035243232115
 20
-2.846400494287119
 10
1.303827932860903
 20
-2.808878973367869
 10
1.243935479274594
 20
-3.088058891253278
 10
1.210869464662058
 20
-3.37645806259833
 10
1.205414506319206
 20
-3.667164382478871
 10
1.189479302666945
 20
-4.519804470003451
 10
1.413861167927457
 20
-5.346450933112919
 10
1.85444246093415
 20
-6.05894510428248
 10
1.828288551071132
 20
-6.156164794108563
 10
1.783060968372309
 20
-6.252355140741908
 10
1.709325623922799
 20
-6.368179601632644
 10
1.579994539650165
 20
-6.571432849131219
 10
1.434448031262491
 20
-6.76698937439
 10
1.293665270742698
 20
-6.956175554299837
 10
1.188845084568483
 20
-7.097051725199435
 10
1.080454861266541
 20
-7.242672962722509
 10
0.9791084605473593
 20
-7.390928272662677
 10
0.7697650934580906
 20
-7.697209246260122
 10
0.6088998664363569
 20
-7.968686837496332
 10
0.511962267665505
 20
-8.279974416822572
 10
-0.3783541867999626
 20
-7.342842440028435
 10
-0.8712059368043203
 20
-6.106640496395508
 10
-0.8775762819923835
 20
-4.790954950544497
 10
-0.8775762819923835
 20
-4.790954950544497
 10
-0.8775762819923835
 20
-4.790874620676454
 10
-0.8775762819923835
 20
-4.790874620676454
 10
-0.8804345307131345
 20
-4.21057725838543
 10
-0.7874947438784955
 20
-3.64196508968938
 10
-0.6012975870180021
 20
-3.100459581114491
 10
-0.4397962864728697
 20
-3.036070521541483
 10
-0.2559352072768585
 20
-2.99012370516079
 10
-0.0246038745384693
 20
-2.956179665573914
 10
0.1334591478550919
 20
-2.932887740116093
 10
0.2960991044746809
 20
-2.923986069855623
 10
0.4533775095723437
 20
-2.915400114658079
 97
        0
 97
        0
 92
        1
 93
        1
 72
     4
 94
        3
 73
     0
 74
     1
 95
       50
 96
       46
 40
0.0
 40
0.0
 40
0.0
 40
0.0
 40
1.0
 40
1.0
 40
1.0
 40
2.0
 40
2.0
 40
2.0
 40
3.0
 40
3.0
 40
3.0
 40
4.0
 40
4.0
 40
4.0
 40
5.0
 40
5.0
 40
5.0
 40
6.0
 40
6.0
 40
6.0
 40
7.0
 40
7.0
 40
7.0
 40
8.0
 40
8.0
 40
8.0
 40
9.0
 40
9.0
 40
9.0
 40
10.0
 40
10.0
 40
10.0
 40
11.0
 40
11.0
 40
11.0
 40
12.0
 40
12.0
 40
12.0
 40
13.0
 40
13.0
 40
13.0
 40
14.0
 40
14.0
 40
14.0
 40
15.0
 40
15.0
 40
15.0
 40
15.0
 10
6.764558817252741
 20
-9.174195298993304
 10
5.984182191032889
 20
-9.624920584140302
 10
5.097116293936109
 20
-9.862846444447415
 10
4.188398695745592
 20
-9.862846444447415
 10
2.874332857406683
 20
-9.849003553234525
 10
1.637626548169742
 20
-9.355030908900163
 10
0.7031473487641556
 20
-8.471234228209596
 10
0.7749771940665116
 20
-8.204221483127084
 10
0.8969104581207273
 20
-7.945391175765685
 10
1.085666961874975
 20
-7.658893767342861
 10
1.210626606927614
 20
-7.469315278775209
 10
1.347841226887517
 20
-7.28448185683126
 10
1.480497593985572
 20
-7.105701197036928
 10
1.575865958164652
 20
-6.977248133636092
 10
1.674466198348227
 20
-6.84440494954035
 10
1.76804115156526
 20
-6.710459564929452
 10
1.864418309410477
 20
-6.572628456469475
 10
1.95053939831655
 20
-6.444885284925804
 10
2.01596153570247
 20
-6.30156185525579
 10
2.141294808038891
 20
-6.476680967576713
 10
2.280078662590566
 20
-6.643374784436168
 10
2.429287697979261
 20
-6.797907032902003
 10
2.96079021086814
 20
-7.348166628956379
 10
3.626463260974484
 20
-7.750002782788821
 10
4.354215512525077
 20
-7.959775826553596
 10
4.414872873795123
 20
-7.977672573897709
 10
4.475886209232713
 20
-7.993794591599099
 10
4.537123721040542
 20
-8.008590232409663
 10
4.844357436474234
 20
-8.083072833308254
 10
5.16162409312167
 20
-8.124489418759039
 10
5.480028215694865
 20
-8.131719106882377
 10
5.501698598152794
 20
-8.132279547822286
 10
5.523630519709349
 20
-8.133549880619183
 10
5.545375627624026
 20
-8.132428998739544
 10
5.545375627624026
 20
-8.132428998739544
 10
5.569455906062191
 20
-8.155481802729657
 10
5.569455906062191
 20
-8.155481802729657
 10
5.784926760605079
 20
-8.363760337321839
 10
5.998809699191989
 20
-8.573383930169383
 10
6.212599230957949
 20
-8.783325106216276
 10
6.365300701829609
 20
-8.933728773092247
 10
6.53601209114317
 20
-9.057810397162685
 10
6.720041126393071
 20
-9.152169970059377
 10
6.734818085465677
 20
-9.159717241381914
 10
6.749688451359209
 20
-9.167040336328581
 10
6.764558817252741
 20
-9.174195298993304
 97
        0
 97
        0
 92
        1
 93
        1
 72
     4
 94
        3
 73
     0
 74
     1
 95
       17
 96
       13
 40
0.0
 40
0.0
 40
0.0
 40
0.0
 40
1.0
 40
1.0
 40
1.0
 40
2.0
 40
2.0
 40
2.0
 40
3.0
 40
3.0
 40
3.0
 40
4.0
 40
4.0
 40
4.0
 40
4.0
 10
2.730691848166164
 20
0.1120121715588438
 10
3.132770849581662
 20
0.2339454386932908
 10
3.549197138693456
 20
0.3058126485396365
 10
3.972572895283141
 20
0.3263995123947501
 10
3.655027066817739
 20
0.2003189823057659
 10
3.352520739466589
 20
0.0372867129195432
 10
3.070245319456931
 20
-0.1599324537939487
 10
2.960229769942505
 20
-0.0790234634523207
 10
2.852363573121743
 20
0.0107404937379619
 10
2.747785296398054
 20
0.0978516971466156
 10
2.747785296398054
 20
0.0978516971466156
 10
2.730691848166164
 20
0.1120121715588438
 10
2.730691848166164
 20
0.1120121715588438
 97
        0
 97
        0
 92
        1
 93
        1
 72
     4
 94
        3
 73
     0
 74
     1
 95
       23
 96
       19
 40
0.0
 40
0.0
 40
0.0
 40
0.0
 40
1.0
 40
1.0
 40
1.0
 40
2.0
 40
2.0
 40
2.0
 40
3.0
 40
3.0
 40
3.0
 40
4.0
 40
4.0
 40
4.0
 40
5.0
 40
5.0
 40
5.0
 40
6.0
 40
6.0
 40
6.0
 40
6.0
 10
-1.121405447372455
 20
-4.846997176387339
 10
-1.124674686105335
 20
-4.844374312789101
 10
-1.127925243474035
 20
-4.841590789454775
 10
-1.13115711947853
 20
-4.838809134257025
 10
-1.442444690941001
 20
-4.571714191169904
 10
-1.528528417118701
 20
-4.10803151149499
 10
-1.335848826885012
 20
-3.736403124317551
 10
-1.257779405943906
 20
-3.585842533978318
 10
-1.152211016918247
 20
-3.454998255901134
 10
-1.022132678078126
 20
-3.347444035145183
 10
-0.9857600620043487
 20
-3.317316598358389
 10
-0.948285245443483
 20
-3.289255320502952
 10
-0.9089236110996302
 20
-3.262625035180311
 10
-1.052882203531352
 20
-3.757150647908765
 10
-1.124506553827637
 20
-4.271071440240436
 10
-1.122003251026475
 20
-4.791988030010089
 10
-1.121928525569729
 20
-4.810351811470771
 10
-1.121723030563645
 20
-4.828713724794865
 10
-1.121405447372455
 20
-4.846997176387339
 97
        0
 97
        0
 75
     2
 76
     1
 98
        0
  0
ENDSEC
  0
SECTION
  2
OBJECTS
  0
DICTIONARY
  5
C
330
0
100
AcDbDictionary
281
     1
  3
ACAD_GROUP
350
D
  3
ACAD_LAYOUT
350
1A
  3
ACAD_MATERIAL
350
3B
  3
ACAD_MLEADERSTYLE
350
4D
  3
ACAD_MLINESTYLE
350
17
  3
ACAD_PLOTSETTINGS
350
19
  3
ACAD_PLOTSTYLENAME
350
E
  3
ACAD_TABLESTYLE
350
4C
  3
ACAD_VISUALSTYLE
350
2A
  0
SUN
  5
3F
330
29
100
AcDbSun
 90
        1
290
     0
 63
     7
421
 16777215
 40
1.0
291
     1
 91
  2455826
 92
 54000000
292
     0
 70
     2
 71
   256
280
     1
  0
DICTIONARY
  5
D
102
{ACAD_REACTORS
330
C
102
}
330
C
100
AcDbDictionary
281
     1
  0
DICTIONARY
  5
1A
102
{ACAD_REACTORS
330
C
102
}
330
C
100
AcDbDictionary
281
     1
  3
Layout1
350
1E
  3
Layout2
350
26
  3
Model
350
22
  0
DICTIONARY
  5
3B
102
{ACAD_REACTORS
330
C
102
}
330
C
100
AcDbDictionary
281
     1
  3
ByBlock
350
3D
  3
ByLayer
350
3C
  3
Global
350
3E
  0
DICTIONARY
  5
4D
102
{ACAD_REACTORS
330
C
102
}
330
C
100
AcDbDictionary
281
     1
  0
DICTIONARY
  5
17
102
{ACAD_REACTORS
330
C
102
}
330
C
100
AcDbDictionary
281
     1
  3
Standard
350
18
  0
DICTIONARY
  5
19
102
{ACAD_REACTORS
330
C
102
}
330
C
100
AcDbDictionary
281
     1
  0
ACDBDICTIONARYWDFLT
  5
E
102
{ACAD_REACTORS
330
C
102
}
330
C
100
AcDbDictionary
281
     1
  3
Normal
350
F
100
AcDbDictionaryWithDefault
340
F
  0
DICTIONARY
  5
4C
102
{ACAD_REACTORS
330
C
102
}
330
C
100
AcDbDictionary
281
     1
  0
DICTIONARY
  5
2A
102
{ACAD_REACTORS
330
C
102
}
330
C
100
AcDbDictionary
281
     1
  3
2dWireframe
350
2F
  3
3D Hidden
350
31
  3
3dWireframe
350
30
  3
Basic
350
32
  3
Brighten
350
36
  3
ColorChange
350
3A
  3
Conceptual
350
34
  3
Dim
350
35
  3
Facepattern
350
39
  3
Flat
350
2B
  3
FlatWithEdges
350
2C
  3
Gouraud
350
2D
  3
GouraudWithEdges
350
2E
  3
Linepattern
350
38
  3
Realistic
350
33
  3
Thicken
350
37
  0
LAYOUT
  5
1E
102
{ACAD_REACTORS
330
1A
102
}
330
1A
100
AcDbPlotSettings
  1

  2
none_device
  4

  6

 40
0.0
 41
0.0
 42
0.0
 43
0.0
 44
0.0
 45
0.0
 46
0.0
 47
0.0
 48
0.0
 49
0.0
140
0.0
141
0.0
142
1.0
143
1.0
 70
   688
 72
     0
 73
     0
 74
     5
  7

 75
    16
 76
     0
 77
     2
 78
   300
147
1.0
148
0.0
149
0.0
100
AcDbLayout
  1
Layout1
 70
     1
 71
     1
 10
0.0
 20
0.0
 11
12.0
 21
9.0
 12
0.0
 22
0.0
 32
0.0
 14
1.000000000000000E+20
 24
1.000000000000000E+20
 34
1.000000000000000E+20
 15
-1.000000000000000E+20
 25
-1.000000000000000E+20
 35
-1.000000000000000E+20
146
0.0
 13
0.0
 23
0.0
 33
0.0
 16
1.0
 26
0.0
 36
0.0
 17
0.0
 27
1.0
 37
0.0
 76
     0
330
1B
  0
LAYOUT
  5
26
102
{ACAD_REACTORS
330
1A
102
}
330
1A
100
AcDbPlotSettings
  1

  2
none_device
  4

  6

 40
0.0
 41
0.0
 42
0.0
 43
0.0
 44
0.0
 45
0.0
 46
0.0
 47
0.0
 48
0.0
 49
0.0
140
0.0
141
0.0
142
1.0
143
1.0
 70
   688
 72
     0
 73
     0
 74
     5
  7

 75
    16
 76
     0
 77
     2
 78
   300
147
1.0
148
0.0
149
0.0
100
AcDbLayout
  1
Layout2
 70
     1
 71
     2
 10
0.0
 20
0.0
 11
0.0
 21
0.0
 12
0.0
 22
0.0
 32
0.0
 14
0.0
 24
0.0
 34
0.0
 15
0.0
 25
0.0
 35
0.0
146
0.0
 13
0.0
 23
0.0
 33
0.0
 16
1.0
 26
0.0
 36
0.0
 17
0.0
 27
1.0
 37
0.0
 76
     0
330
23
  0
LAYOUT
  5
22
102
{ACAD_REACTORS
330
1A
102
}
330
1A
100
AcDbPlotSettings
  1

  2
none_device
  4

  6

 40
0.0
 41
0.0
 42
0.0
 43
0.0
 44
0.0
 45
0.0
 46
0.0
 47
0.0
 48
0.0
 49
0.0
140
0.0
141
0.0
142
1.0
143
1.0
 70
  1712
 72
     0
 73
     0
 74
     0
  7

 75
     0
 76
     0
 77
     2
 78
   300
147
1.0
148
0.0
149
0.0
100
AcDbLayout
  1
Model
 70
     1
 71
     0
 10
0.0
 20
0.0
 11
12.0
 21
9.0
 12
0.0
 22
0.0
 32
0.0
 14
1.000000000000000E+20
 24
1.000000000000000E+20
 34
1.000000000000000E+20
 15
-1.000000000000000E+20
 25
-1.000000000000000E+20
 35
-1.000000000000000E+20
146
0.0
 13
0.0
 23
0.0
 33
0.0
 16
1.0
 26
0.0
 36
0.0
 17
0.0
 27
1.0
 37
0.0
 76
     0
330
1F
331
29
  0
MATERIAL
  5
3D
102
{ACAD_REACTORS
330
3B
102
}
330
3B
100
AcDbMaterial
  1
ByBlock
 72
     1
 94
      127
  0
MATERIAL
  5
3C
102
{ACAD_REACTORS
330
3B
102
}
330
3B
100
AcDbMaterial
  1
ByLayer
 72
     1
 94
      127
  0
MATERIAL
  5
3E
102
{ACAD_REACTORS
330
3B
102
}
330
3B
100
AcDbMaterial
  1
Global
 72
     1
 94
      127
  0
MLINESTYLE
  5
18
102
{ACAD_REACTORS
330
17
102
}
330
17
100
AcDbMlineStyle
  2
Standard
 70
     0
  3

 62
   256
 51
90.0
 52
90.0
 71
     2
 49
0.5
 62
   256
  6
BYLAYER
 49
-0.5
 62
   256
  6
BYLAYER
  0
ACDBPLACEHOLDER
  5
F
102
{ACAD_REACTORS
330
E
102
}
330
E
  0
VISUALSTYLE
  5
2F
102
{ACAD_REACTORS
330
2A
102
}
330
2A
100
AcDbVisualStyle
  2
2dWireframe
 70
     4
177
     2
291
     0
 71
     0
176
     1
 72
     2
176
     1
 73
     0
176
     1
 90
        0
176
     1
 40
-0.6
176
     1
 41
-30.0
176
     1
 62
     5
 63
     7
421
 16777215
176
     1
 74
     1
176
     1
 91
        4
176
     1
 64
     7
176
     1
 65
   257
176
     1
 75
     1
176
     1
175
     1
176
     1
 42
1.0
176
     1
 92
        0
176
     1
 66
   257
176
     1
 43
1.0
176
     1
 76
     1
176
     1
 77
     6
176
     1
 78
     2
176
     1
 67
     7
176
     1
 79
     5
176
     1
170
     0
176
     1
171
     0
176
     1
290
     0
176
     1
 93
        1
176
     1
 44
0.0
176
     1
173
     0
176
     1
  0
VISUALSTYLE
  5
31
102
{ACAD_REACTORS
330
2A
102
}
330
2A
100
AcDbVisualStyle
  2
3D Hidden
 70
     6
177
     2
291
     0
 71
     1
176
     1
 72
     2
176
     1
 73
     2
176
     1
 90
        0
176
     1
 40
-0.6
176
     1
 41
-30.0
176
     1
 62
     5
 63
     7
421
 16777215
176
     1
 74
     2
176
     1
 91
        2
176
     1
 64
     7
176
     1
 65
   257
176
     1
 75
     2
176
     1
175
     1
176
     1
 42
40.0
176
     1
 92
        0
176
     1
 66
   257
176
     1
 43
1.0
176
     1
 76
     1
176
     1
 77
     6
176
     1
 78
     2
176
     1
 67
     7
176
     1
 79
     3
176
     1
170
     0
176
     1
171
     0
176
     1
290
     0
176
     1
 93
        1
176
     1
 44
0.0
176
     1
173
     0
176
     1
  0
VISUALSTYLE
  5
30
102
{ACAD_REACTORS
330
2A
102
}
330
2A
100
AcDbVisualStyle
  2
3dWireframe
 70
     5
177
     2
291
     0
 71
     0
176
     1
 72
     2
176
     1
 73
     0
176
     1
 90
        0
176
     1
 40
-0.6
176
     1
 41
-30.0
176
     1
 62
     5
 63
     7
421
 16777215
176
     1
 74
     1
176
     1
 91
        4
176
     1
 64
     7
176
     1
 65
   257
176
     1
 75
     1
176
     1
175
     1
176
     1
 42
1.0
176
     1
 92
        0
176
     1
 66
   257
176
     1
 43
1.0
176
     1
 76
     1
176
     1
 77
     6
176
     1
 78
     2
176
     1
 67
     7
176
     1
 79
     5
176
     1
170
     0
176
     1
171
     0
176
     1
290
     0
176
     1
 93
        1
176
     1
 44
0.0
176
     1
173
     0
176
     1
  0
VISUALSTYLE
  5
32
102
{ACAD_REACTORS
330
2A
102
}
330
2A
100
AcDbVisualStyle
  2
Basic
 70
     7
177
     2
291
     1
 71
     1
176
     1
 72
     0
176
     1
 73
     1
176
     1
 90
        0
176
     1
 40
-0.6
176
     1
 41
-30.0
176
     1
 62
     5
 63
     7
421
 16777215
176
     1
 74
     0
176
     1
 91
        4
176
     1
 64
     7
176
     1
 65
   257
176
     1
 75
     1
176
     1
175
     1
176
     1
 42
1.0
176
     1
 92
        8
176
     1
 66
     7
176
     1
 43
1.0
176
     1
 76
     1
176
     1
 77
     6
176
     1
 78
     2
176
     1
 67
     7
176
     1
 79
     5
176
     1
170
     0
176
     1
171
     0
176
     1
290
     0
176
     1
 93
        1
176
     1
 44
0.0
176
     1
173
     0
176
     1
  0
VISUALSTYLE
  5
36
102
{ACAD_REACTORS
330
2A
102
}
330
2A
100
AcDbVisualStyle
  2
Brighten
 70
    12
177
     2
291
     1
 71
     2
176
     1
 72
     2
176
     1
 73
     0
176
     1
 90
        0
176
     1
 40
-0.6
176
     1
 41
-30.0
176
     1
 62
     5
 63
     7
421
 16777215
176
     1
 74
     1
176
     1
 91
        4
176
     1
 64
     7
176
     1
 65
   257
176
     1
 75
     1
176
     1
175
     1
176
     1
 42
1.0
176
     1
 92
        8
176
     1
 66
     7
176
     1
 43
1.0
176
     1
 76
     1
176
     1
 77
     6
176
     1
 78
     2
176
     1
 67
     7
176
     1
 79
     5
176
     1
170
     0
176
     1
171
     0
176
     1
290
     0
176
     1
 93
        1
176
     1
 44
50.0
176
     1
173
     0
176
     1
  0
VISUALSTYLE
  5
3A
102
{ACAD_REACTORS
330
2A
102
}
330
2A
100
AcDbVisualStyle
  2
ColorChange
 70
    16
177
     2
291
     1
 71
     2
176
     1
 72
     2
176
     1
 73
     3
176
     1
 90
        0
176
     1
 40
-0.6
176
     1
 41
-30.0
176
     1
 62
     5
 63
     8
421
  8421504
176
     1
 74
     1
176
     1
 91
        4
176
     1
 64
     7
176
     1
 65
   257
176
     1
 75
     1
176
     1
175
     1
176
     1
 42
1.0
176
     1
 92
        8
176
     1
 66
     8
424
  8421504
176
     1
 43
1.0
176
     1
 76
     1
176
     1
 77
     6
176
     1
 78
     2
176
     1
 67
     7
176
     1
 79
     5
176
     1
170
     0
176
     1
171
     0
176
     1
290
     0
176
     1
 93
        1
176
     1
 44
0.0
176
     1
173
     0
176
     1
  0
VISUALSTYLE
  5
34
102
{ACAD_REACTORS
330
2A
102
}
330
2A
100
AcDbVisualStyle
  2
Conceptual
 70
     9
177
     2
291
     0
 71
     3
176
     1
 72
     2
176
     1
 73
     0
176
     1
 90
        0
176
     1
 40
-0.6
176
     1
 41
-30.0
176
     1
 62
     5
 63
     7
421
 16777215
176
     1
 74
     2
176
     1
 91
        2
176
     1
 64
     7
176
     1
 65
   257
176
     1
 75
     1
176
     1
175
     1
176
     1
 42
40.0
176
     1
 92
        8
176
     1
 66
     7
176
     1
 43
1.0
176
     1
 76
     1
176
     1
 77
     6
176
     1
 78
     2
176
     1
 67
     7
176
     1
 79
     3
176
     1
170
     0
176
     1
171
     0
176
     1
290
     0
176
     1
 93
        1
176
     1
 44
0.0
176
     1
173
     0
176
     1
  0
VISUALSTYLE
  5
35
102
{ACAD_REACTORS
330
2A
102
}
330
2A
100
AcDbVisualStyle
  2
Dim
 70
    11
177
     2
291
     1
 71
     2
176
     1
 72
     2
176
     1
 73
     0
176
     1
 90
        0
176
     1
 40
-0.6
176
     1
 41
-30.0
176
     1
 62
     5
 63
     7
421
 16777215
176
     1
 74
     1
176
     1
 91
        4
176
     1
 64
     7
176
     1
 65
   257
176
     1
 75
     1
176
     1
175
     1
176
     1
 42
1.0
176
     1
 92
        8
176
     1
 66
     7
176
     1
 43
1.0
176
     1
 76
     1
176
     1
 77
     6
176
     1
 78
     2
176
     1
 67
     7
176
     1
 79
     5
176
     1
170
     0
176
     1
171
     0
176
     1
290
     0
176
     1
 93
        1
176
     1
 44
-50.0
176
     1
173
     0
176
     1
  0
VISUALSTYLE
  5
39
102
{ACAD_REACTORS
330
2A
102
}
330
2A
100
AcDbVisualStyle
  2
Facepattern
 70
    15
177
     2
291
     1
 71
     2
176
     1
 72
     2
176
     1
 73
     0
176
     1
 90
        0
176
     1
 40
-0.6
176
     1
 41
-30.0
176
     1
 62
     5
 63
     7
421
 16777215
176
     1
 74
     1
176
     1
 91
        4
176
     1
 64
     7
176
     1
 65
   257
176
     1
 75
     1
176
     1
175
     1
176
     1
 42
1.0
176
     1
 92
        8
176
     1
 66
     7
176
     1
 43
1.0
176
     1
 76
     1
176
     1
 77
     6
176
     1
 78
     2
176
     1
 67
     7
176
     1
 79
     5
176
     1
170
     0
176
     1
171
     0
176
     1
290
     0
176
     1
 93
        1
176
     1
 44
0.0
176
     1
173
     0
176
     1
  0
VISUALSTYLE
  5
2B
102
{ACAD_REACTORS
330
2A
102
}
330
2A
100
AcDbVisualStyle
  2
Flat
 70
     0
177
     2
291
     1
 71
     2
176
     1
 72
     1
176
     1
 73
     1
176
     1
 90
        2
176
     1
 40
-0.6
176
     1
 41
30.0
176
     1
 62
     5
 63
     7
421
 16777215
176
     1
 74
     0
176
     1
 91
        4
176
     1
 64
     7
176
     1
 65
   257
176
     1
 75
     1
176
     1
175
     1
176
     1
 42
1.0
176
     1
 92
        8
176
     1
 66
     7
176
     1
 43
1.0
176
     1
 76
     1
176
     1
 77
     6
176
     1
 78
     2
176
     1
 67
     7
176
     1
 79
     5
176
     1
170
     0
176
     1
171
     0
176
     1
290
     0
176
     1
 93
       13
176
     1
 44
0.0
176
     1
173
     0
176
     1
  0
VISUALSTYLE
  5
2C
102
{ACAD_REACTORS
330
2A
102
}
330
2A
100
AcDbVisualStyle
  2
FlatWithEdges
 70
     1
177
     2
291
     1
 71
     2
176
     1
 72
     1
176
     1
 73
     1
176
     1
 90
        2
176
     1
 40
-0.6
176
     1
 41
30.0
176
     1
 62
     5
 63
     7
421
 16777215
176
     1
 74
     1
176
     1
 91
        4
176
     1
 64
     7
176
     1
 65
   257
176
     1
 75
     1
176
     1
175
     1
176
     1
 42
1.0
176
     1
 92
        0
176
     1
 66
   257
176
     1
 43
1.0
176
     1
 76
     1
176
     1
 77
     6
176
     1
 78
     2
176
     1
 67
     7
176
     1
 79
     5
176
     1
170
     0
176
     1
171
     0
176
     1
290
     0
176
     1
 93
       13
176
     1
 44
0.0
176
     1
173
     0
176
     1
  0
VISUALSTYLE
  5
2D
102
{ACAD_REACTORS
330
2A
102
}
330
2A
100
AcDbVisualStyle
  2
Gouraud
 70
     2
177
     2
291
     1
 71
     2
176
     1
 72
     2
176
     1
 73
     1
176
     1
 90
        2
176
     1
 40
-0.6
176
     1
 41
30.0
176
     1
 62
     5
 63
     7
421
 16777215
176
     1
 74
     0
176
     1
 91
        4
176
     1
 64
     7
176
     1
 65
   257
176
     1
 75
     1
176
     1
175
     1
176
     1
 42
1.0
176
     1
 92
        0
176
     1
 66
     7
176
     1
 43
1.0
176
     1
 76
     1
176
     1
 77
     6
176
     1
 78
     2
176
     1
 67
     7
176
     1
 79
     5
176
     1
170
     0
176
     1
171
     0
176
     1
290
     0
176
     1
 93
       13
176
     1
 44
0.0
176
     1
173
     0
176
     1
  0
VISUALSTYLE
  5
2E
102
{ACAD_REACTORS
330
2A
102
}
330
2A
100
AcDbVisualStyle
  2
GouraudWithEdges
 70
     3
177
     2
291
     1
 71
     2
176
     1
 72
     2
176
     1
 73
     1
176
     1
 90
        2
176
     1
 40
-0.6
176
     1
 41
30.0
176
     1
 62
     5
 63
     7
421
 16777215
176
     1
 74
     1
176
     1
 91
        4
176
     1
 64
     7
176
     1
 65
   257
176
     1
 75
     1
176
     1
175
     1
176
     1
 42
1.0
176
     1
 92
        0
176
     1
 66
   257
176
     1
 43
1.0
176
     1
 76
     1
176
     1
 77
     6
176
     1
 78
     2
176
     1
 67
     7
176
     1
 79
     5
176
     1
170
     0
176
     1
171
     0
176
     1
290
     0
176
     1
 93
       13
176
     1
 44
0.0
176
     1
173
     0
176
     1
  0
VISUALSTYLE
  5
38
102
{ACAD_REACTORS
330
2A
102
}
330
2A
100
AcDbVisualStyle
  2
Linepattern
 70
    14
177
     2
291
     1
 71
     2
176
     1
 72
     2
176
     1
 73
     0
176
     1
 90
        0
176
     1
 40
-0.6
176
     1
 41
-30.0
176
     1
 62
     5
 63
     7
421
 16777215
176
     1
 74
     1
176
     1
 91
        4
176
     1
 64
     7
176
     1
 65
   257
176
     1
 75
     7
176
     1
175
     7
176
     1
 42
1.0
176
     1
 92
        8
176
     1
 66
     7
176
     1
 43
1.0
176
     1
 76
     1
176
     1
 77
     6
176
     1
 78
     2
176
     1
 67
     7
176
     1
 79
     5
176
     1
170
     0
176
     1
171
     0
176
     1
290
     0
176
     1
 93
        1
176
     1
 44
0.0
176
     1
173
     0
176
     1
  0
VISUALSTYLE
  5
33
102
{ACAD_REACTORS
330
2A
102
}
330
2A
100
AcDbVisualStyle
  2
Realistic
 70
     8
177
     2
291
     0
 71
     2
176
     1
 72
     2
176
     1
 73
     0
176
     1
 90
        0
176
     1
 40
-0.6
176
     1
 41
-30.0
176
     1
 62
     5
 63
     7
421
 16777215
176
     1
 74
     1
176
     1
 91
        0
176
     1
 64
     7
176
     1
 65
   257
176
     1
 75
     1
176
     1
175
     1
176
     1
 42
1.0
176
     1
 92
        8
176
     1
 66
     8
424
  7895160
176
     1
 43
1.0
176
     1
 76
     1
176
     1
 77
     6
176
     1
 78
     2
176
     1
 67
     7
176
     1
 79
     5
176
     1
170
     0
176
     1
171
     0
176
     1
290
     0
176
     1
 93
       13
176
     1
 44
0.0
176
     1
173
     0
176
     1
  0
VISUALSTYLE
  5
37
102
{ACAD_REACTORS
330
2A
102
}
330
2A
100
AcDbVisualStyle
  2
Thicken
 70
    13
177
     2
291
     1
 71
     2
176
     1
 72
     2
176
     1
 73
     0
176
     1
 90
        0
176
     1
 40
-0.6
176
     1
 41
-30.0
176
     1
 62
     5
 63
     7
421
 16777215
176
     1
 74
     1
176
     1
 91
        4
176
     1
 64
     7
176
     1
 65
   257
176
     1
 75
     1
176
     1
175
     1
176
     1
 42
1.0
176
     1
 92
       12
176
     1
 66
     7
176
     1
 43
1.0
176
     1
 76
     1
176
     1
 77
     6
176
     1
 78
     2
176
     1
 67
     7
176
     1
 79
     5
176
     1
170
     0
176
     1
171
     0
176
     1
290
     0
176
     1
 93
        1
176
     1
 44
0.0
176
     1
173
     0
176
     1
  0
ENDSEC
  0
EOF
