  0
SECTION
  2
HEADER
  9
$ACADVER
  1
AC1024
  9
$ACADMAINTVER
 70
     6
  9
$DWGCODEPAGE
  3
ANSI_1251
  9
$INSBASE
 10
0.0
 20
0.0
 30
0.0
  9
$EXTMIN
 10
1.000000000000000E+20
 20
1.000000000000000E+20
 30
1.000000000000000E+20
  9
$EXTMAX
 10
-1.000000000000000E+20
 20
-1.000000000000000E+20
 30
-1.000000000000000E+20
  9
$LIMMIN
 10
0.0
 20
0.0
  9
$LIMMAX
 10
12.0
 20
9.0
  9
$ORTHOMODE
 70
     0
  9
$REGENMODE
 70
     1
  9
$FILLMODE
 70
     1
  9
$QTEXTMODE
 70
     0
  9
$MIRRTEXT
 70
     1
  9
$LTSCALE
 40
1.0
  9
$ATTMODE
 70
     1
  9
$TEXTSIZE
 40
0.2
  9
$TRACEWID
 40
0.05
  9
$TEXTSTYLE
  7
Standard
  9
$CLAYER
  8
0
  9
$CELTYPE
  6
ByLayer
  9
$CECOLOR
 62
   256
  9
$CELTSCALE
 40
1.0
  9
$DISPSILH
 70
     0
  9
$DIMSCALE
 40
1.0
  9
$DIMASZ
 40
0.18
  9
$DIMEXO
 40
0.0625
  9
$DIMDLI
 40
0.38
  9
$DIMRND
 40
0.0
  9
$DIMDLE
 40
0.0
  9
$DIMEXE
 40
0.18
  9
$DIMTP
 40
0.0
  9
$DIMTM
 40
0.0
  9
$DIMTXT
 40
0.18
  9
$DIMCEN
 40
0.09
  9
$DIMTSZ
 40
0.0
  9
$DIMTOL
 70
     0
  9
$DIMLIM
 70
     0
  9
$DIMTIH
 70
     1
  9
$DIMTOH
 70
     1
  9
$DIMSE1
 70
     0
  9
$DIMSE2
 70
     0
  9
$DIMTAD
 70
     0
  9
$DIMZIN
 70
     0
  9
$DIMBLK
  1

  9
$DIMASO
 70
     1
  9
$DIMSHO
 70
     1
  9
$DIMPOST
  1

  9
$DIMAPOST
  1

  9
$DIMALT
 70
     0
  9
$DIMALTD
 70
     2
  9
$DIMALTF
 40
25.4
  9
$DIMLFAC
 40
1.0
  9
$DIMTOFL
 70
     0
  9
$DIMTVP
 40
0.0
  9
$DIMTIX
 70
     0
  9
$DIMSOXD
 70
     0
  9
$DIMSAH
 70
     0
  9
$DIMBLK1
  1

  9
$DIMBLK2
  1

  9
$DIMSTYLE
  2
Standard
  9
$DIMCLRD
 70
     0
  9
$DIMCLRE
 70
     0
  9
$DIMCLRT
 70
     0
  9
$DIMTFAC
 40
1.0
  9
$DIMGAP
 40
0.09
  9
$DIMJUST
 70
     0
  9
$DIMSD1
 70
     0
  9
$DIMSD2
 70
     0
  9
$DIMTOLJ
 70
     1
  9
$DIMTZIN
 70
     0
  9
$DIMALTZ
 70
     0
  9
$DIMALTTZ
 70
     0
  9
$DIMUPT
 70
     0
  9
$DIMDEC
 70
     4
  9
$DIMTDEC
 70
     4
  9
$DIMALTU
 70
     2
  9
$DIMALTTD
 70
     2
  9
$DIMTXSTY
  7
Standard
  9
$DIMAUNIT
 70
     0
  9
$DIMADEC
 70
     0
  9
$DIMALTRND
 40
0.0
  9
$DIMAZIN
 70
     0
  9
$DIMDSEP
 70
    46
  9
$DIMATFIT
 70
     3
  9
$DIMFRAC
 70
     0
  9
$DIMLDRBLK
  1

  9
$DIMLUNIT
 70
     2
  9
$DIMLWD
 70
    -2
  9
$DIMLWE
 70
    -2
  9
$DIMTMOVE
 70
     0
  9
$DIMFXL
 40
1.0
  9
$DIMFXLON
 70
     0
  9
$DIMJOGANG
 40
0.7853981633974483
  9
$DIMTFILL
 70
     0
  9
$DIMTFILLCLR
 70
     0
  9
$DIMARCSYM
 70
     0
  9
$DIMLTYPE
  6

  9
$DIMLTEX1
  6

  9
$DIMLTEX2
  6

  9
$DIMTXTDIRECTION
 70
     0
  9
$LUNITS
 70
     2
  9
$LUPREC
 70
     4
  9
$SKETCHINC
 40
0.1
  9
$FILLETRAD
 40
0.5
  9
$AUNITS
 70
     0
  9
$AUPREC
 70
     0
  9
$MENU
  1
.
  9
$ELEVATION
 40
0.0
  9
$PELEVATION
 40
0.0
  9
$THICKNESS
 40
0.0
  9
$LIMCHECK
 70
     0
  9
$CHAMFERA
 40
0.5
  9
$CHAMFERB
 40
0.5
  9
$CHAMFERC
 40
1.0
  9
$CHAMFERD
 40
0.0
  9
$SKPOLY
 70
     0
  9
$TDCREATE
 40
2459337.641915405
  9
$TDUCREATE
 40
2459337.516915405
  9
$TDUPDATE
 40
2459337.641915405
  9
$TDUUPDATE
 40
2459337.516915405
  9
$TDINDWG
 40
0.0000000116
  9
$TDUSRTIMER
 40
0.0000000116
  9
$USRTIMER
 70
     1
  9
$ANGBASE
 50
0.0
  9
$ANGDIR
 70
     0
  9
$PDMODE
 70
     0
  9
$PDSIZE
 40
0.0
  9
$PLINEWID
 40
0.0
  9
$SPLFRAME
 70
     0
  9
$SPLINETYPE
 70
     6
  9
$SPLINESEGS
 70
     8
  9
$HANDSEED
  5
48
  9
$SURFTAB1
 70
     6
  9
$SURFTAB2
 70
     6
  9
$SURFTYPE
 70
     6
  9
$SURFU
 70
     6
  9
$SURFV
 70
     6
  9
$UCSBASE
  2

  9
$UCSNAME
  2

  9
$UCSORG
 10
0.0
 20
0.0
 30
0.0
  9
$UCSXDIR
 10
1.0
 20
0.0
 30
0.0
  9
$UCSYDIR
 10
0.0
 20
1.0
 30
0.0
  9
$UCSORTHOREF
  2

  9
$UCSORTHOVIEW
 70
     0
  9
$UCSORGTOP
 10
0.0
 20
0.0
 30
0.0
  9
$UCSORGBOTTOM
 10
0.0
 20
0.0
 30
0.0
  9
$UCSORGLEFT
 10
0.0
 20
0.0
 30
0.0
  9
$UCSORGRIGHT
 10
0.0
 20
0.0
 30
0.0
  9
$UCSORGFRONT
 10
0.0
 20
0.0
 30
0.0
  9
$UCSORGBACK
 10
0.0
 20
0.0
 30
0.0
  9
$PUCSBASE
  2

  9
$PUCSNAME
  2

  9
$PUCSORG
 10
0.0
 20
0.0
 30
0.0
  9
$PUCSXDIR
 10
1.0
 20
0.0
 30
0.0
  9
$PUCSYDIR
 10
0.0
 20
1.0
 30
0.0
  9
$PUCSORTHOREF
  2

  9
$PUCSORTHOVIEW
 70
     0
  9
$PUCSORGTOP
 10
0.0
 20
0.0
 30
0.0
  9
$PUCSORGBOTTOM
 10
0.0
 20
0.0
 30
0.0
  9
$PUCSORGLEFT
 10
0.0
 20
0.0
 30
0.0
  9
$PUCSORGRIGHT
 10
0.0
 20
0.0
 30
0.0
  9
$PUCSORGFRONT
 10
0.0
 20
0.0
 30
0.0
  9
$PUCSORGBACK
 10
0.0
 20
0.0
 30
0.0
  9
$USERI1
 70
     0
  9
$USERI2
 70
     0
  9
$USERI3
 70
     0
  9
$USERI4
 70
     0
  9
$USERI5
 70
     0
  9
$USERR1
 40
0.0
  9
$USERR2
 40
0.0
  9
$USERR3
 40
0.0
  9
$USERR4
 40
0.0
  9
$USERR5
 40
0.0
  9
$WORLDVIEW
 70
     1
  9
$SHADEDGE
 70
     3
  9
$SHADEDIF
 70
    70
  9
$TILEMODE
 70
     1
  9
$MAXACTVP
 70
    64
  9
$PINSBASE
 10
0.0
 20
0.0
 30
0.0
  9
$PLIMCHECK
 70
     0
  9
$PEXTMIN
 10
1.000000000000000E+20
 20
1.000000000000000E+20
 30
1.000000000000000E+20
  9
$PEXTMAX
 10
-1.000000000000000E+20
 20
-1.000000000000000E+20
 30
-1.000000000000000E+20
  9
$PLIMMIN
 10
0.0
 20
0.0
  9
$PLIMMAX
 10
12.0
 20
9.0
  9
$UNITMODE
 70
     0
  9
$VISRETAIN
 70
     1
  9
$PLINEGEN
 70
     0
  9
$PSLTSCALE
 70
     1
  9
$TREEDEPTH
 70
  3020
  9
$CMLSTYLE
  2
Standard
  9
$CMLJUST
 70
     0
  9
$CMLSCALE
 40
1.0
  9
$PROXYGRAPHICS
 70
     1
  9
$MEASUREMENT
 70
     0
  9
$CELWEIGHT
370
    -1
  9
$ENDCAPS
280
     0
  9
$JOINSTYLE
280
     0
  9
$LWDISPLAY
290
     1
  9
$INSUNITS
 70
     1
  9
$HYPERLINKBASE
  1

  9
$STYLESHEET
  1

  9
$XEDIT
290
     1
  9
$CEPSNTYPE
380
     0
  9
$PSTYLEMODE
290
     1
  9
$FINGERPRINTGUID
  2
{0783E080-25DA-43C3-BCA2-B95130BDC2D0}
  9
$VERSIONGUID
  2
{FAEB1C32-E019-11D5-929B-00C0DF256EC4}
  9
$EXTNAMES
290
     1
  9
$PSVPSCALE
 40
0.0
  9
$OLESTARTUP
290
     0
  9
$SORTENTS
280
   127
  9
$INDEXCTL
280
     0
  9
$HIDETEXT
280
     1
  9
$XCLIPFRAME
280
     2
  9
$HALOGAP
280
     0
  9
$OBSCOLOR
 70
   257
  9
$OBSLTYPE
280
     0
  9
$INTERSECTIONDISPLAY
280
     0
  9
$INTERSECTIONCOLOR
 70
   257
  9
$DIMASSOC
280
     2
  9
$PROJECTNAME
  1

  9
$CAMERADISPLAY
290
     0
  9
$LENSLENGTH
 40
50.0
  9
$CAMERAHEIGHT
 40
0.0
  9
$STEPSPERSEC
 40
2.0
  9
$STEPSIZE
 40
6.0
  9
$3DDWFPREC
 40
2.0
  9
$PSOLWIDTH
 40
0.25
  9
$PSOLHEIGHT
 40
4.0
  9
$LOFTANG1
 40
1.570796326794897
  9
$LOFTANG2
 40
1.570796326794897
  9
$LOFTMAG1
 40
0.0
  9
$LOFTMAG2
 40
0.0
  9
$LOFTPARAM
 70
     7
  9
$LOFTNORMALS
280
     1
  9
$LATITUDE
 40
37.795
  9
$LONGITUDE
 40
-122.394
  9
$NORTHDIRECTION
 40
0.0
  9
$TIMEZONE
 70
 -8000
  9
$LIGHTGLYPHDISPLAY
280
     1
  9
$TILEMODELIGHTSYNCH
280
     1
  9
$CMATERIAL
347
3C
  9
$SOLIDHIST
280
     1
  9
$SHOWHIST
280
     1
  9
$DWFFRAME
280
     2
  9
$DGNFRAME
280
     2
  9
$REALWORLDSCALE
290
     1
  9
$INTERFERECOLOR
 62
   256
  9
$CSHADOW
280
     0
  9
$SHADOWPLANELOCATION
 40
0.0
  0
ENDSEC
  0
SECTION
  2
CLASSES
  0
CLASS
  1
ACDBDICTIONARYWDFLT
  2
AcDbDictionaryWithDefault
  3
ObjectDBX Classes
 90
        0
 91
        4
280
     0
281
     0
  0
CLASS
  1
VISUALSTYLE
  2
AcDbVisualStyle
  3
ObjectDBX Classes
 90
     4095
 91
        4
280
     0
281
     0
  0
CLASS
  1
MATERIAL
  2
AcDbMaterial
  3
ObjectDBX Classes
 90
     1153
 91
        4
280
     0
281
     0
  0
CLASS
  1
SUN
  2
AcDbSun
  3
SCENEOE
 90
     1024
 91
        4
280
     0
281
     0
  0
ENDSEC
  0
SECTION
  2
TABLES
  0
TABLE
  2
VPORT
  5
8
330
0
100
AcDbSymbolTable
 70
     1
  0
VPORT
  5
29
330
8
100
AcDbSymbolTableRecord
100
AcDbViewportTableRecord
  2
*Active
 70
     0
 10
0.0
 20
0.0
 11
1.0
 21
1.0
 12
0.0
 22
0.0
 13
0.0
 23
0.0
 14
0.5
 24
0.5
 15
0.5
 25
0.5
 16
0.0
 26
0.0
 36
1.0
 17
2.614066157627374
 27
-5.09749176160637
 37
0.0
 40
10.88823651712454
 41
1.102106845413114
 42
50.0
 43
0.0
 44
0.0
 50
0.0
 51
0.0
 71
     0
 72
   100
 73
     1
 74
     3
 75
     0
 76
     0
 77
     0
 78
     0
281
     0
 65
     1
110
0.0
120
0.0
130
0.0
111
1.0
121
0.0
131
0.0
112
0.0
122
1.0
132
0.0
 79
     0
146
0.0
 60
     3
 61
     5
292
     1
282
     1
141
0.0
142
0.0
 63
   250
361
3F
  0
ENDTAB
  0
TABLE
  2
LTYPE
  5
5
330
0
100
AcDbSymbolTable
 70
     1
  0
LTYPE
  5
14
330
5
100
AcDbSymbolTableRecord
100
AcDbLinetypeTableRecord
  2
ByBlock
 70
     0
  3

 72
    65
 73
     0
 40
0.0
  0
LTYPE
  5
15
330
5
100
AcDbSymbolTableRecord
100
AcDbLinetypeTableRecord
  2
ByLayer
 70
     0
  3

 72
    65
 73
     0
 40
0.0
  0
LTYPE
  5
16
330
5
100
AcDbSymbolTableRecord
100
AcDbLinetypeTableRecord
  2
Continuous
 70
     0
  3
Solid line
 72
    65
 73
     0
 40
0.0
  0
ENDTAB
  0
TABLE
  2
LAYER
  5
2
330
0
100
AcDbSymbolTable
 70
     2
  0
LAYER
  5
10
330
2
100
AcDbSymbolTableRecord
100
AcDbLayerTableRecord
  2
0
 70
     0
 62
     7
  6
Continuous
370
    -3
390
F
347
3E
  0
LAYER
  5
40
330
2
100
AcDbSymbolTableRecord
100
AcDbLayerTableRecord
  2
Layer 1
 70
     0
 62
     7
  6
Continuous
370
    -3
390
F
347
3E
  0
ENDTAB
  0
TABLE
  2
STYLE
  5
3
330
0
100
AcDbSymbolTable
 70
     1
  0
STYLE
  5
11
330
3
100
AcDbSymbolTableRecord
100
AcDbTextStyleTableRecord
  2
Standard
 70
     0
 40
0.0
 41
1.0
 50
0.0
 71
     0
 42
0.2
  3
txt
  4

  0
ENDTAB
  0
TABLE
  2
VIEW
  5
6
330
0
100
AcDbSymbolTable
 70
     0
  0
ENDTAB
  0
TABLE
  2
UCS
  5
7
330
0
100
AcDbSymbolTable
 70
     0
  0
ENDTAB
  0
TABLE
  2
APPID
  5
9
330
0
100
AcDbSymbolTable
 70
     1
  0
APPID
  5
12
330
9
100
AcDbSymbolTableRecord
100
AcDbRegAppTableRecord
  2
ACAD
 70
     0
  0
ENDTAB
  0
TABLE
  2
DIMSTYLE
  5
A
330
0
100
AcDbSymbolTable
 70
     1
100
AcDbDimStyleTable
  0
DIMSTYLE
105
27
330
A
100
AcDbSymbolTableRecord
100
AcDbDimStyleTableRecord
  2
Standard
 70
     0
178
     0
340
11
  0
ENDTAB
  0
TABLE
  2
BLOCK_RECORD
  5
1
330
0
100
AcDbSymbolTable
 70
     1
  0
BLOCK_RECORD
  5
1F
330
1
100
AcDbSymbolTableRecord
100
AcDbBlockTableRecord
  2
*Model_Space
340
22
 70
     0
280
     1
281
     0
  0
BLOCK_RECORD
  5
1B
330
1
100
AcDbSymbolTableRecord
100
AcDbBlockTableRecord
  2
*Paper_Space
340
1E
 70
     0
280
     1
281
     0
  0
BLOCK_RECORD
  5
23
330
1
100
AcDbSymbolTableRecord
100
AcDbBlockTableRecord
  2
*Paper_Space0
340
26
 70
     0
280
     1
281
     0
  0
ENDTAB
  0
ENDSEC
  0
SECTION
  2
BLOCKS
  0
BLOCK
  5
20
330
1F
100
AcDbEntity
  8
0
100
AcDbBlockBegin
  2
*Model_Space
 70
     0
 10
0.0
 20
0.0
 30
0.0
  3
*Model_Space
  1

  0
ENDBLK
  5
21
330
1F
100
AcDbEntity
  8
0
100
AcDbBlockEnd
  0
BLOCK
  5
1C
330
1B
100
AcDbEntity
 67
     1
  8
0
100
AcDbBlockBegin
  2
*Paper_Space
 70
     0
 10
0.0
 20
0.0
 30
0.0
  3
*Paper_Space
  1

  0
ENDBLK
  5
1D
330
1B
100
AcDbEntity
 67
     1
  8
0
100
AcDbBlockEnd
  0
BLOCK
  5
24
330
23
100
AcDbEntity
  8
0
100
AcDbBlockBegin
  2
*Paper_Space0
 70
     0
 10
0.0
 20
0.0
 30
0.0
  3
*Paper_Space0
  1

  0
ENDBLK
  5
25
330
23
100
AcDbEntity
  8
0
100
AcDbBlockEnd
  0
ENDSEC
  0
SECTION
  2
ENTITIES
  0
SPLINE
  5
41
330
1F
100
AcDbEntity
  8
Layer 1
370
     0
100
AcDbSpline
210
0.0
220
0.0
230
1.0
 70
    11
 71
     3
 72
    50
 73
    46
 74
     0
 42
0.0000000001
 43
0.0000000001
 12
1.0
 22
0.0
 32
0.0
 13
1.0
 23
0.0
 33
0.0
 40
0.0
 40
0.0
 40
0.0
 40
0.0
 40
1.0
 40
1.0
 40
1.0
 40
2.0
 40
2.0
 40
2.0
 40
3.0
 40
3.0
 40
3.0
 40
4.0
 40
4.0
 40
4.0
 40
5.0
 40
5.0
 40
5.0
 40
6.0
 40
6.0
 40
6.0
 40
7.0
 40
7.0
 40
7.0
 40
8.0
 40
8.0
 40
8.0
 40
9.0
 40
9.0
 40
9.0
 40
10.0
 40
10.0
 40
10.0
 40
11.0
 40
11.0
 40
11.0
 40
12.0
 40
12.0
 40
12.0
 40
13.0
 40
13.0
 40
13.0
 40
14.0
 40
14.0
 40
14.0
 40
15.0
 40
15.0
 40
15.0
 40
15.0
 10
6.212291671178314
 20
-8.272500426734192
 30
0.0
 10
5.451015554055238
 20
-8.883701619732973
 30
0.0
 10
4.529598726933626
 20
-9.240409742500434
 30
0.0
 10
3.548072157503485
 20
-9.30401401803806
 30
0.0
 10
0.9021799428263774
 20
-9.450936286046119
 30
0.0
 10
-1.297228881035304
 20
-7.506381325237119
 30
0.0
 10
-1.45881298453004
 20
-4.876252420457477
 30
0.0
 10
-1.612249511579168
 20
-2.377225430887127
 30
0.0
 10
0.1404670092505158
 20
-0.2349825321649127
 30
0.0
 10
2.618165897581902
 20
0.1067788707315205
 30
0.0
 10
2.672198193590664
 20
0.1142237426368208
 30
0.0
 10
2.712157403011563
 20
0.1610010883069006
 30
0.0
 10
2.711112841928778
 20
0.2155651622452852
 30
0.0
 10
2.710049288826326
 20
0.270110244163637
 30
0.0
 10
2.668266845515518
 20
0.3152922601396236
 30
0.0
 10
2.613930677191762
 20
0.320704985887144
 30
0.0
 10
2.331994144942187
 20
0.3482624071486953
 30
0.0
 10
2.045024727475619
 20
0.3539979972390104
 30
0.0
 10
1.76073318478489
 20
0.3371900593916861
 30
0.0
 10
0.2834389334522408
 20
0.2524096813684006
 30
0.0
 10
-1.060075531207051
 20
-0.3918376267201135
 30
0.0
 10
-2.022287216615774
 20
-1.47687073085318
 30
0.0
 10
-2.986739960347525
 20
-2.564543725789374
 30
0.0
 10
-3.467029146205353
 20
-3.973884566285771
 30
0.0
 10
-3.374727930527822
 20
-5.445443264847768
 30
0.0
 10
-3.283414299874014
 20
-6.90099169040948
 30
0.0
 10
-2.631760120382776
 20
-8.230717982367802
 30
0.0
 10
-1.539794956474275
 20
-9.189663064615463
 30
0.0
 10
-0.5392573753377216
 20
-10.06827190155865
 30
0.0
 10
0.7222495483142413
 20
-10.54161002016864
 30
0.0
 10
2.044948759396877
 20
-10.54161002016864
 30
0.0
 10
2.161692704411242
 20
-10.54161002016864
 30
0.0
 10
2.278949433957147
 20
-10.53788758421607
 30
0.0
 10
2.396529027837712
 20
-10.53046170433097
 30
0.0
 10
3.031413253945566
 20
-10.49183193531222
 30
0.0
 10
3.649318614453477
 20
-10.34297248124706
 30
0.0
 10
4.233172369373644
 20
-10.08800461051169
 30
0.0
 10
5.069162006233758
 20
-9.722807054729856
 30
0.0
 10
5.806318258354673
 20
-9.14674109903904
 30
0.0
 10
6.365026633064846
 20
-8.422252505747059
 30
0.0
 10
6.398318504009871
 20
-8.379083643908668
 30
0.0
 10
6.394084423919493
 20
-8.317758410790955
 30
0.0
 10
6.355206619321002
 20
-8.279603442276487
 30
0.0
 10
6.316367939061617
 20
-8.241391497701391
 30
0.0
 10
6.254947747394706
 20
-8.238390758515026
 30
0.0
 10
6.212291671178314
 20
-8.272500426734192
 30
0.0
  0
SPLINE
  5
42
330
1F
100
AcDbEntity
  8
Layer 1
370
     0
100
AcDbSpline
210
0.0
220
0.0
230
1.0
 70
    11
 71
     3
 72
    38
 73
    34
 74
     0
 42
0.0000000001
 43
0.0000000001
 12
1.0
 22
0.0
 32
0.0
 13
1.0
 23
0.0
 33
0.0
 40
0.0
 40
0.0
 40
0.0
 40
0.0
 40
1.0
 40
1.0
 40
1.0
 40
2.0
 40
2.0
 40
2.0
 40
3.0
 40
3.0
 40
3.0
 40
4.0
 40
4.0
 40
4.0
 40
5.0
 40
5.0
 40
5.0
 40
6.0
 40
6.0
 40
6.0
 40
7.0
 40
7.0
 40
7.0
 40
8.0
 40
8.0
 40
8.0
 40
9.0
 40
9.0
 40
9.0
 40
10.0
 40
10.0
 40
10.0
 40
11.0
 40
11.0
 40
11.0
 40
11.0
 10
-0.5445181647909421
 20
-1.413513351577699
 30
0.0
 10
-1.351051320186343
 20
-2.379732377549001
 30
0.0
 10
-1.752087752532589
 20
-3.614175704332133
 30
0.0
 10
-1.673821639403564
 20
-4.889356914372266
 30
0.0
 10
-1.592934627557762
 20
-6.2058267762545
 30
0.0
 10
-1.008265301501638
 20
-7.410129767033216
 30
0.0
 10
-0.027497434782011
 20
-8.280496067224197
 30
0.0
 10
0.9559273585398387
 20
-9.153217377915956
 30
0.0
 10
2.230177927401605
 20
-9.592768692649617
 30
0.0
 10
3.560986730890464
 20
-9.519060662383355
 30
0.0
 10
4.282018758297353
 20
-9.472359284793912
 30
0.0
 10
4.984514574489973
 20
-9.26982838173828
 30
0.0
 10
5.611820984742823
 20
-8.929757268636623
 30
0.0
 10
4.727628516207207
 20
-9.752776462552598
 30
0.0
 10
3.593235180318541
 20
-10.24187795790074
 30
0.0
 10
2.383196630017626
 20
-10.3154150599855
 30
0.0
 10
0.9907207386059377
 20
-10.40342408143705
 30
0.0
 10
-0.3519011011280782
 20
-9.946096235827502
 30
0.0
 10
-1.3976017050797
 20
-9.027794076736173
 30
0.0
 10
-2.446246072082747
 20
-8.106909002902334
 30
0.0
 10
-3.072033120760655
 20
-6.829866574885727
 30
0.0
 10
-3.159719275654298
 20
-5.431939938509345
 30
0.0
 10
-3.248412007591355
 20
-4.018173957314186
 30
0.0
 10
-2.787209801518694
 20
-2.6642708236837
 30
0.0
 10
-1.861101945534453
 20
-1.619823666646526
 30
0.0
 10
-1.359693633784976
 20
-1.054355258208792
 30
0.0
 10
-0.755234623215276
 20
-0.6146520073136799
 30
0.0
 10
-0.0645518432677869
 20
-0.3128877988878255
 30
0.0
 10
0.4941174078371912
 20
-0.0689163078287973
 30
0.0
 10
1.091948203536226
 20
0.0761447422029783
 30
0.0
 10
1.713443055764931
 20
0.1184209790936469
 30
0.0
 10
0.8304660764892635
 20
-0.1702577274374385
 30
0.0
 10
0.0549649366208263
 20
-0.6952161568599295
 30
0.0
 10
-0.5445181647909421
 20
-1.413513351577699
 30
0.0
  0
HATCH
  5
43
330
1F
100
AcDbEntity
  8
Layer 1
 62
     7
420
 16777215
100
AcDbHatch
 10
0.0
 20
0.0
 30
0.0
210
0.0
220
0.0
230
1.0
  2
SOLID
 70
     1
 71
     0
 91
        2
 92
        1
 93
        1
 72
     4
 94
        3
 73
     0
 74
     1
 95
       50
 96
       46
 40
0.0
 40
0.0
 40
0.0
 40
0.0
 40
1.0
 40
1.0
 40
1.0
 40
2.0
 40
2.0
 40
2.0
 40
3.0
 40
3.0
 40
3.0
 40
4.0
 40
4.0
 40
4.0
 40
5.0
 40
5.0
 40
5.0
 40
6.0
 40
6.0
 40
6.0
 40
7.0
 40
7.0
 40
7.0
 40
8.0
 40
8.0
 40
8.0
 40
9.0
 40
9.0
 40
9.0
 40
10.0
 40
10.0
 40
10.0
 40
11.0
 40
11.0
 40
11.0
 40
12.0
 40
12.0
 40
12.0
 40
13.0
 40
13.0
 40
13.0
 40
14.0
 40
14.0
 40
14.0
 40
15.0
 40
15.0
 40
15.0
 40
15.0
 10
6.212291671178314
 20
-8.272500426734192
 10
5.451015554055238
 20
-8.883701619732973
 10
4.529598726933626
 20
-9.240409742500434
 10
3.548072157503485
 20
-9.30401401803806
 10
0.9021799428263774
 20
-9.450936286046119
 10
-1.297228881035304
 20
-7.506381325237119
 10
-1.45881298453004
 20
-4.876252420457477
 10
-1.612249511579168
 20
-2.377225430887127
 10
0.1404670092505158
 20
-0.2349825321649127
 10
2.618165897581902
 20
0.1067788707315205
 10
2.672198193590664
 20
0.1142237426368208
 10
2.712157403011563
 20
0.1610010883069006
 10
2.711112841928778
 20
0.2155651622452852
 10
2.710049288826326
 20
0.270110244163637
 10
2.668266845515518
 20
0.3152922601396236
 10
2.613930677191762
 20
0.320704985887144
 10
2.331994144942187
 20
0.3482624071486953
 10
2.045024727475619
 20
0.3539979972390104
 10
1.76073318478489
 20
0.3371900593916861
 10
0.2834389334522408
 20
0.2524096813684006
 10
-1.060075531207051
 20
-0.3918376267201135
 10
-2.022287216615774
 20
-1.47687073085318
 10
-2.986739960347525
 20
-2.564543725789374
 10
-3.467029146205353
 20
-3.973884566285771
 10
-3.374727930527822
 20
-5.445443264847768
 10
-3.283414299874014
 20
-6.90099169040948
 10
-2.631760120382776
 20
-8.230717982367802
 10
-1.539794956474275
 20
-9.189663064615463
 10
-0.5392573753377216
 20
-10.06827190155865
 10
0.7222495483142413
 20
-10.54161002016864
 10
2.044948759396877
 20
-10.54161002016864
 10
2.161692704411242
 20
-10.54161002016864
 10
2.278949433957147
 20
-10.53788758421607
 10
2.396529027837712
 20
-10.53046170433097
 10
3.031413253945566
 20
-10.49183193531222
 10
3.649318614453477
 20
-10.34297248124706
 10
4.233172369373644
 20
-10.08800461051169
 10
5.069162006233758
 20
-9.722807054729856
 10
5.806318258354673
 20
-9.14674109903904
 10
6.365026633064846
 20
-8.422252505747059
 10
6.398318504009871
 20
-8.379083643908668
 10
6.394084423919493
 20
-8.317758410790955
 10
6.355206619321002
 20
-8.279603442276487
 10
6.316367939061617
 20
-8.241391497701391
 10
6.254947747394706
 20
-8.238390758515026
 10
6.212291671178314
 20
-8.272500426734192
 97
        0
 97
        0
 92
        1
 93
        1
 72
     4
 94
        3
 73
     0
 74
     1
 95
       38
 96
       34
 40
0.0
 40
0.0
 40
0.0
 40
0.0
 40
1.0
 40
1.0
 40
1.0
 40
2.0
 40
2.0
 40
2.0
 40
3.0
 40
3.0
 40
3.0
 40
4.0
 40
4.0
 40
4.0
 40
5.0
 40
5.0
 40
5.0
 40
6.0
 40
6.0
 40
6.0
 40
7.0
 40
7.0
 40
7.0
 40
8.0
 40
8.0
 40
8.0
 40
9.0
 40
9.0
 40
9.0
 40
10.0
 40
10.0
 40
10.0
 40
11.0
 40
11.0
 40
11.0
 40
11.0
 10
-0.5445181647909421
 20
-1.413513351577699
 10
-1.351051320186343
 20
-2.379732377549001
 10
-1.752087752532589
 20
-3.614175704332133
 10
-1.673821639403564
 20
-4.889356914372266
 10
-1.592934627557762
 20
-6.2058267762545
 10
-1.008265301501638
 20
-7.410129767033216
 10
-0.027497434782011
 20
-8.280496067224197
 10
0.9559273585398387
 20
-9.153217377915956
 10
2.230177927401605
 20
-9.592768692649617
 10
3.560986730890464
 20
-9.519060662383355
 10
4.282018758297353
 20
-9.472359284793912
 10
4.984514574489973
 20
-9.26982838173828
 10
5.611820984742823
 20
-8.929757268636623
 10
4.727628516207207
 20
-9.752776462552598
 10
3.593235180318541
 20
-10.24187795790074
 10
2.383196630017626
 20
-10.3154150599855
 10
0.9907207386059377
 20
-10.40342408143705
 10
-0.3519011011280782
 20
-9.946096235827502
 10
-1.3976017050797
 20
-9.027794076736173
 10
-2.446246072082747
 20
-8.106909002902334
 10
-3.072033120760655
 20
-6.829866574885727
 10
-3.159719275654298
 20
-5.431939938509345
 10
-3.248412007591355
 20
-4.018173957314186
 10
-2.787209801518694
 20
-2.6642708236837
 10
-1.861101945534453
 20
-1.619823666646526
 10
-1.359693633784976
 20
-1.054355258208792
 10
-0.755234623215276
 20
-0.6146520073136799
 10
-0.0645518432677869
 20
-0.3128877988878255
 10
0.4941174078371912
 20
-0.0689163078287973
 10
1.091948203536226
 20
0.0761447422029783
 10
1.713443055764931
 20
0.1184209790936469
 10
0.8304660764892635
 20
-0.1702577274374385
 10
0.0549649366208263
 20
-0.6952161568599295
 10
-0.5445181647909421
 20
-1.413513351577699
 97
        0
 97
        0
 75
     2
 76
     1
 98
        0
  0
SPLINE
  5
44
330
1F
100
AcDbEntity
  8
Layer 1
370
     0
100
AcDbSpline
210
0.0
220
0.0
230
1.0
 70
    11
 71
     3
 72
   620
 73
   616
 74
     0
 42
0.0000000001
 43
0.0000000001
 12
1.0
 22
0.0
 32
0.0
 13
1.0
 23
0.0
 33
0.0
 40
0.0
 40
0.0
 40
0.0
 40
0.0
 40
1.0
 40
1.0
 40
1.0
 40
2.0
 40
2.0
 40
2.0
 40
3.0
 40
3.0
 40
3.0
 40
4.0
 40
4.0
 40
4.0
 40
5.0
 40
5.0
 40
5.0
 40
6.0
 40
6.0
 40
6.0
 40
7.0
 40
7.0
 40
7.0
 40
8.0
 40
8.0
 40
8.0
 40
9.0
 40
9.0
 40
9.0
 40
10.0
 40
10.0
 40
10.0
 40
11.0
 40
11.0
 40
11.0
 40
12.0
 40
12.0
 40
12.0
 40
13.0
 40
13.0
 40
13.0
 40
14.0
 40
14.0
 40
14.0
 40
15.0
 40
15.0
 40
15.0
 40
16.0
 40
16.0
 40
16.0
 40
17.0
 40
17.0
 40
17.0
 40
18.0
 40
18.0
 40
18.0
 40
19.0
 40
19.0
 40
19.0
 40
20.0
 40
20.0
 40
20.0
 40
21.0
 40
21.0
 40
21.0
 40
22.0
 40
22.0
 40
22.0
 40
23.0
 40
23.0
 40
23.0
 40
24.0
 40
24.0
 40
24.0
 40
25.0
 40
25.0
 40
25.0
 40
26.0
 40
26.0
 40
26.0
 40
27.0
 40
27.0
 40
27.0
 40
28.0
 40
28.0
 40
28.0
 40
29.0
 40
29.0
 40
29.0
 40
30.0
 40
30.0
 40
30.0
 40
31.0
 40
31.0
 40
31.0
 40
32.0
 40
32.0
 40
32.0
 40
33.0
 40
33.0
 40
33.0
 40
34.0
 40
34.0
 40
34.0
 40
35.0
 40
35.0
 40
35.0
 40
36.0
 40
36.0
 40
36.0
 40
37.0
 40
37.0
 40
37.0
 40
38.0
 40
38.0
 40
38.0
 40
39.0
 40
39.0
 40
39.0
 40
40.0
 40
40.0
 40
40.0
 40
41.0
 40
41.0
 40
41.0
 40
42.0
 40
42.0
 40
42.0
 40
43.0
 40
43.0
 40
43.0
 40
44.0
 40
44.0
 40
44.0
 40
45.0
 40
45.0
 40
45.0
 40
46.0
 40
46.0
 40
46.0
 40
47.0
 40
47.0
 40
47.0
 40
48.0
 40
48.0
 40
48.0
 40
49.0
 40
49.0
 40
49.0
 40
50.0
 40
50.0
 40
50.0
 40
51.0
 40
51.0
 40
51.0
 40
52.0
 40
52.0
 40
52.0
 40
53.0
 40
53.0
 40
53.0
 40
54.0
 40
54.0
 40
54.0
 40
55.0
 40
55.0
 40
55.0
 40
56.0
 40
56.0
 40
56.0
 40
57.0
 40
57.0
 40
57.0
 40
58.0
 40
58.0
 40
58.0
 40
59.0
 40
59.0
 40
59.0
 40
60.0
 40
60.0
 40
60.0
 40
61.0
 40
61.0
 40
61.0
 40
62.0
 40
62.0
 40
62.0
 40
63.0
 40
63.0
 40
63.0
 40
64.0
 40
64.0
 40
64.0
 40
65.0
 40
65.0
 40
65.0
 40
66.0
 40
66.0
 40
66.0
 40
67.0
 40
67.0
 40
67.0
 40
68.0
 40
68.0
 40
68.0
 40
69.0
 40
69.0
 40
69.0
 40
70.0
 40
70.0
 40
70.0
 40
71.0
 40
71.0
 40
71.0
 40
72.0
 40
72.0
 40
72.0
 40
73.0
 40
73.0
 40
73.0
 40
74.0
 40
74.0
 40
74.0
 40
75.0
 40
75.0
 40
75.0
 40
76.0
 40
76.0
 40
76.0
 40
77.0
 40
77.0
 40
77.0
 40
78.0
 40
78.0
 40
78.0
 40
79.0
 40
79.0
 40
79.0
 40
80.0
 40
80.0
 40
80.0
 40
81.0
 40
81.0
 40
81.0
 40
82.0
 40
82.0
 40
82.0
 40
83.0
 40
83.0
 40
83.0
 40
84.0
 40
84.0
 40
84.0
 40
85.0
 40
85.0
 40
85.0
 40
86.0
 40
86.0
 40
86.0
 40
87.0
 40
87.0
 40
87.0
 40
88.0
 40
88.0
 40
88.0
 40
89.0
 40
89.0
 40
89.0
 40
90.0
 40
90.0
 40
90.0
 40
91.0
 40
91.0
 40
91.0
 40
92.0
 40
92.0
 40
92.0
 40
93.0
 40
93.0
 40
93.0
 40
94.0
 40
94.0
 40
94.0
 40
95.0
 40
95.0
 40
95.0
 40
96.0
 40
96.0
 40
96.0
 40
97.0
 40
97.0
 40
97.0
 40
98.0
 40
98.0
 40
98.0
 40
99.0
 40
99.0
 40
99.0
 40
100.0
 40
100.0
 40
100.0
 40
101.0
 40
101.0
 40
101.0
 40
102.0
 40
102.0
 40
102.0
 40
103.0
 40
103.0
 40
103.0
 40
104.0
 40
104.0
 40
104.0
 40
105.0
 40
105.0
 40
105.0
 40
106.0
 40
106.0
 40
106.0
 40
107.0
 40
107.0
 40
107.0
 40
108.0
 40
108.0
 40
108.0
 40
109.0
 40
109.0
 40
109.0
 40
110.0
 40
110.0
 40
110.0
 40
111.0
 40
111.0
 40
111.0
 40
112.0
 40
112.0
 40
112.0
 40
113.0
 40
113.0
 40
113.0
 40
114.0
 40
114.0
 40
114.0
 40
115.0
 40
115.0
 40
115.0
 40
116.0
 40
116.0
 40
116.0
 40
117.0
 40
117.0
 40
117.0
 40
118.0
 40
118.0
 40
118.0
 40
119.0
 40
119.0
 40
119.0
 40
120.0
 40
120.0
 40
120.0
 40
121.0
 40
121.0
 40
121.0
 40
122.0
 40
122.0
 40
122.0
 40
123.0
 40
123.0
 40
123.0
 40
124.0
 40
124.0
 40
124.0
 40
125.0
 40
125.0
 40
125.0
 40
126.0
 40
126.0
 40
126.0
 40
127.0
 40
127.0
 40
127.0
 40
128.0
 40
128.0
 40
128.0
 40
129.0
 40
129.0
 40
129.0
 40
130.0
 40
130.0
 40
130.0
 40
131.0
 40
131.0
 40
131.0
 40
132.0
 40
132.0
 40
132.0
 40
133.0
 40
133.0
 40
133.0
 40
134.0
 40
134.0
 40
134.0
 40
135.0
 40
135.0
 40
135.0
 40
136.0
 40
136.0
 40
136.0
 40
137.0
 40
137.0
 40
137.0
 40
138.0
 40
138.0
 40
138.0
 40
139.0
 40
139.0
 40
139.0
 40
140.0
 40
140.0
 40
140.0
 40
141.0
 40
141.0
 40
141.0
 40
142.0
 40
142.0
 40
142.0
 40
143.0
 40
143.0
 40
143.0
 40
144.0
 40
144.0
 40
144.0
 40
145.0
 40
145.0
 40
145.0
 40
146.0
 40
146.0
 40
146.0
 40
147.0
 40
147.0
 40
147.0
 40
148.0
 40
148.0
 40
148.0
 40
149.0
 40
149.0
 40
149.0
 40
150.0
 40
150.0
 40
150.0
 40
151.0
 40
151.0
 40
151.0
 40
152.0
 40
152.0
 40
152.0
 40
153.0
 40
153.0
 40
153.0
 40
154.0
 40
154.0
 40
154.0
 40
155.0
 40
155.0
 40
155.0
 40
156.0
 40
156.0
 40
156.0
 40
157.0
 40
157.0
 40
157.0
 40
158.0
 40
158.0
 40
158.0
 40
159.0
 40
159.0
 40
159.0
 40
160.0
 40
160.0
 40
160.0
 40
161.0
 40
161.0
 40
161.0
 40
162.0
 40
162.0
 40
162.0
 40
163.0
 40
163.0
 40
163.0
 40
164.0
 40
164.0
 40
164.0
 40
165.0
 40
165.0
 40
165.0
 40
166.0
 40
166.0
 40
166.0
 40
167.0
 40
167.0
 40
167.0
 40
168.0
 40
168.0
 40
168.0
 40
169.0
 40
169.0
 40
169.0
 40
170.0
 40
170.0
 40
170.0
 40
171.0
 40
171.0
 40
171.0
 40
172.0
 40
172.0
 40
172.0
 40
173.0
 40
173.0
 40
173.0
 40
174.0
 40
174.0
 40
174.0
 40
175.0
 40
175.0
 40
175.0
 40
176.0
 40
176.0
 40
176.0
 40
177.0
 40
177.0
 40
177.0
 40
178.0
 40
178.0
 40
178.0
 40
179.0
 40
179.0
 40
179.0
 40
180.0
 40
180.0
 40
180.0
 40
181.0
 40
181.0
 40
181.0
 40
182.0
 40
182.0
 40
182.0
 40
183.0
 40
183.0
 40
183.0
 40
184.0
 40
184.0
 40
184.0
 40
185.0
 40
185.0
 40
185.0
 40
186.0
 40
186.0
 40
186.0
 40
187.0
 40
187.0
 40
187.0
 40
188.0
 40
188.0
 40
188.0
 40
189.0
 40
189.0
 40
189.0
 40
190.0
 40
190.0
 40
190.0
 40
191.0
 40
191.0
 40
191.0
 40
192.0
 40
192.0
 40
192.0
 40
193.0
 40
193.0
 40
193.0
 40
194.0
 40
194.0
 40
194.0
 40
195.0
 40
195.0
 40
195.0
 40
196.0
 40
196.0
 40
196.0
 40
197.0
 40
197.0
 40
197.0
 40
198.0
 40
198.0
 40
198.0
 40
199.0
 40
199.0
 40
199.0
 40
200.0
 40
200.0
 40
200.0
 40
201.0
 40
201.0
 40
201.0
 40
202.0
 40
202.0
 40
202.0
 40
203.0
 40
203.0
 40
203.0
 40
204.0
 40
204.0
 40
204.0
 40
205.0
 40
205.0
 40
205.0
 40
205.0
 10
8.53801641797645
 20
-4.993186288622572
 30
0.0
 10
8.32384341196914
 20
-4.935089698933325
 30
0.0
 10
8.11781798240746
 20
-4.937596645595199
 30
0.0
 10
7.957715256448282
 20
-5.000061399922944
 30
0.0
 10
7.768611716427459
 20
-5.074168262612639
 30
0.0
 10
7.516074830652946
 20
-5.267317107706049
 30
0.0
 10
7.567296307748064
 20
-5.50450844756574
 30
0.0
 10
7.555636377303623
 20
-5.515656763403399
 30
0.0
 10
7.543822171415286
 20
-5.527374839846175
 30
0.0
 10
7.531667278815752
 20
-5.53973864497454
 30
0.0
 10
7.54019469565512
 20
-5.346361895639196
 30
0.0
 10
7.53772573309584
 20
-5.14723056419315
 30
0.0
 10
7.524279383157616
 20
-4.946883743456586
 30
0.0
 10
7.522494133307064
 20
-4.920940643909161
 30
0.0
 10
7.525931688870362
 20
-4.89532040870453
 30
0.0
 10
7.53474515512034
 20
-4.868579644310052
 30
0.0
 10
7.56936643789393
 20
-4.763192924406225
 30
0.0
 10
7.611547713618165
 20
-4.657578300260107
 30
0.0
 10
7.660282408421001
 20
-4.554204734493863
 30
0.0
 10
7.700810206145838
 20
-4.553084205304016
 30
0.0
 10
7.746106173098673
 20
-4.541271168760393
 30
0.0
 10
7.746599965610534
 20
-4.541043264518445
 30
0.0
 10
7.784166180550907
 20
-4.527463970099385
 30
0.0
 10
7.818237863868894
 20
-4.505566170847323
 30
0.0
 10
7.84788440659991
 20
-4.475824667266693
 30
0.0
 10
7.898479147045363
 20
-4.425058997361512
 30
0.0
 10
7.932303934107444
 20
-4.355396267390789
 30
0.0
 10
7.945769276065321
 20
-4.274585221582217
 30
0.0
 10
7.957563320290774
 20
-4.203707002320786
 30
0.0
 10
7.953347091920326
 20
-4.132524910736771
 30
0.0
 10
7.949320783746745
 20
-4.063583877532273
 30
0.0
 10
7.942369704541407
 20
-3.946327145024207
 30
0.0
 10
7.935856621037121
 20
-3.83545173129221
 30
0.0
 10
8.009715406350551
 20
-3.741365263387176
 30
0.0
 10
8.024510189686527
 20
-3.722620139482905
 30
0.0
 10
8.063747702359326
 20
-3.672690118465198
 30
0.0
 10
8.036589114207294
 20
-3.628799559860214
 30
0.0
 10
8.000314356605637
 20
-3.569962281384353
 30
0.0
 10
7.931620221398715
 20
-3.601242138598662
 30
0.0
 10
7.909152662109287
 20
-3.611421861407949
 30
0.0
 10
7.902448479159879
 20
-3.614498568674927
 30
0.0
 10
7.895744296210473
 20
-3.618050076445987
 30
0.0
 10
7.882962666961298
 20
-3.6248302276455
 30
0.0
 10
7.727607945923814
 20
-3.714054738387757
 30
0.0
 10
7.609116735098269
 20
-3.819270530110253
 30
0.0
 10
7.520746867495896
 20
-3.946650009367001
 30
0.0
 10
7.456838721250025
 20
-4.038932235356204
 30
0.0
 10
7.422368205518599
 20
-4.133968304269413
 30
0.0
 10
7.417791128774095
 20
-4.230219862473328
 30
0.0
 10
7.388372490279354
 20
-4.11060811946451
 30
0.0
 10
7.351964788539893
 20
-3.984634049700162
 30
0.0
 10
7.307238582177635
 20
-3.846922911472663
 30
0.0
 10
7.294798809282812
 20
-3.808691974877534
 30
0.0
 10
7.285379930334001
 20
-3.776766388977649
 30
0.0
 10
7.286233408404087
 20
-3.742827648940015
 30
0.0
 10
7.289538019829579
 20
-3.605686271317634
 30
0.0
 10
7.300173550854146
 20
-3.479294377109467
 30
0.0
 10
7.318633793989648
 20
-3.357498551781582
 30
0.0
 10
7.352458581051728
 20
-3.350319568158802
 30
0.0
 10
7.385713607523207
 20
-3.335448816368385
 30
0.0
 10
7.386037637216658
 20
-3.335277888186889
 30
0.0
 10
7.413441956265842
 20
-3.321223793263572
 30
0.0
 10
7.436460284126168
 20
-3.301737980572701
 30
0.0
 10
7.45841505888403
 20
-3.274104591230487
 30
0.0
 10
7.494861912770652
 20
-3.228276846568759
 30
0.0
 10
7.520708883456513
 20
-3.168641903245846
 30
0.0
 10
7.533243616449757
 20
-3.10156208801781
 30
0.0
 10
7.557401465491289
 20
-2.971447757856911
 30
0.0
 10
7.53926408669046
 20
-2.841504355877684
 30
0.0
 10
7.521715460499914
 20
-2.715834158435756
 30
0.0
 10
7.509731496077594
 20
-2.630009219303272
 30
0.0
 10
7.498412252344299
 20
-2.548951277232732
 30
0.0
 10
7.49941999761068
 20
-2.463525170523692
 30
0.0
 10
7.49995060593892
 20
-2.43144764846252
 30
0.0
 10
7.500786254805133
 20
-2.377700231391221
 30
0.0
 10
7.455623231990077
 20
-2.36017059677748
 30
0.0
 10
7.42390655911322
 20
-2.347730823568466
 30
0.0
 10
7.387441881314695
 20
-2.359771764354036
 30
0.0
 10
7.346874927263848
 20
-2.395571722367953
 30
0.0
 10
7.138381694245304
 20
-2.57886370899487
 30
0.0
 10
7.017040521364328
 20
-2.804317980391564
 30
0.0
 10
7.013887846096319
 20
-3.014122827171011
 30
0.0
 10
7.013280101466332
 20
-3.055411479013098
 30
0.0
 10
7.017876170230541
 20
-3.095180769241728
 30
0.0
 10
7.027296211995159
 20
-3.132120248465703
 30
0.0
 10
6.976511551352814
 20
-3.02971527572783
 30
0.0
 10
6.921112983540347
 20
-2.928772688542797
 30
0.0
 10
6.861628824267781
 20
-2.830033175697054
 30
0.0
 10
6.812249573082251
 20
-2.748006640597951
 30
0.0
 10
6.796486196742282
 20
-2.666378937922306
 30
0.0
 10
6.811926708747579
 20
-2.572957190723223
 30
0.0
 10
6.82765210104819
 20
-2.477921121809838
 30
0.0
 10
6.843966245959109
 20
-2.393957400653815
 30
0.0
 10
6.861590840228397
 20
-2.317571495544017
 30
0.0
 10
6.877183288391203
 20
-2.314836644640031
 30
0.0
 10
6.892452872219337
 20
-2.310145615658914
 30
0.0
 10
6.907323623634056
 20
-2.303593368701513
 30
0.0
 10
7.016432776734341
 20
-2.25550557363988
 30
0.0
 10
7.070692976979343
 20
-2.130500096903916
 30
0.0
 10
7.056240049997743
 20
-1.960787404695894
 30
0.0
 10
7.056240049997743
 20
-1.960787404695894
 30
0.0
 10
7.054663712363738
 20
-1.942441113215068
 30
0.0
 10
7.054663712363738
 20
-1.942441113215068
 30
0.0
 10
7.044142133457272
 20
-1.821385976673784
 30
0.0
 10
7.034247291200497
 20
-1.707016031230991
 30
0.0
 10
7.101289120694673
 20
-1.607061029094552
 30
0.0
 10
7.125124105401532
 20
-1.571583935423594
 30
0.0
 10
7.121933446094165
 20
-1.530922020247064
 30
0.0
 10
7.09329348040655
 20
-1.503611495247646
 30
0.0
 10
7.066096908215159
 20
-1.477592427619584
 30
0.0
 10
7.02507414569181
 20
-1.480574174785703
 30
0.0
 10
6.991249358629728
 20
-1.511284271394894
 30
0.0
 10
6.991249358629728
 20
-1.511284271394894
 30
0.0
 10
6.966008964466052
 20
-1.534169655695539
 30
0.0
 10
6.966008964466052
 20
-1.534169655695539
 30
0.0
 10
6.794264130438933
 20
-1.689410428536601
 30
0.0
 10
6.559066958638393
 20
-1.902102062381333
 30
0.0
 10
6.637579968023348
 20
-2.16806631279327
 30
0.0
 10
6.642821765456902
 20
-2.185842843669156
 30
0.0
 10
6.650057724957555
 20
-2.202821709697989
 30
0.0
 10
6.6591549023875
 20
-2.218661054516764
 30
0.0
 10
6.642422933043488
 20
-2.284449412373634
 30
0.0
 10
6.628445952774326
 20
-2.347085094882876
 30
0.0
 10
6.616764714446693
 20
-2.40833435991975
 30
0.0
 10
6.615549225186744
 20
-2.406720038205624
 30
0.0
 10
6.614333735926796
 20
-2.405105716491486
 30
0.0
 10
6.613156230706206
 20
-2.403491394777348
 30
0.0
 10
6.578496939736421
 20
-2.357340785772648
 30
0.0
 10
6.545715568798616
 20
-2.3137730915108
 30
0.0
 10
6.53428237294722
 20
-2.261336123831054
 30
0.0
 10
6.492310009439532
 20
-2.068984943584522
 30
0.0
 10
6.459016998928695
 20
-1.907115955705409
 30
0.0
 10
6.447090010565413
 20
-1.739359441574518
 30
0.0
 10
6.498330479680235
 20
-1.699913015688682
 30
0.0
 10
6.55900998257933
 20
-1.622007748965593
 30
0.0
 10
6.559579743169934
 20
-1.620868227755725
 30
0.0
 10
6.587175147774764
 20
-1.565107656546843
 30
0.0
 10
6.603337356528173
 20
-1.499243330609324
 30
0.0
 10
6.607629552977364
 20
-1.425136467919629
 30
0.0
 10
6.619461581242224
 20
-1.22044047456494
 30
0.0
 10
6.513714015626469
 20
-1.059862944056994
 30
0.0
 10
6.411441989613397
 20
-0.9045272111150855
 30
0.0
 10
6.355530622981556
 20
-0.8195948969305138
 30
0.0
 10
6.29769878370957
 20
-0.731756803660283
 30
0.0
 10
6.262183706895358
 20
-0.6396265138325437
 30
0.0
 10
6.241254501200577
 20
-0.5853093361563044
 30
0.0
 10
6.210621509111079
 20
-0.5591383323669434
 30
0.0
 10
6.170509227867493
 20
-0.5641332336706455
 30
0.0
 10
6.170509227867493
 20
-0.5641332336706455
 30
0.0
 10
6.16889490619413
 20
-0.564304161852154
 30
0.0
 10
6.16889490619413
 20
-0.564304161852154
 30
0.0
 10
6.117560610295186
 20
-0.5718250018381038
 30
0.0
 10
6.106866969897257
 20
-0.631308008999718
 30
0.0
 10
6.10172013256215
 20
-0.6598340232898307
 30
0.0
 10
6.10172013256215
 20
-0.6598340232898307
 30
0.0
 10
6.082937025091976
 20
-0.7658474798592149
 30
0.0
 10
6.082937025091976
 20
-0.7658474798592149
 30
0.0
 10
6.063185324617759
 20
-0.8785841115676601
 30
0.0
 10
6.042692935375777
 20
-0.9952141074101821
 30
0.0
 10
6.016464956188378
 20
-1.108273603461422
 30
0.0
 10
5.978366964696798
 20
-1.272155745478282
 30
0.0
 10
5.963819077616765
 20
-1.500458819900018
 30
0.0
 10
6.110817309992095
 20
-1.657237946374569
 30
0.0
 10
6.140482844742766
 20
-1.688764699851024
 30
0.0
 10
6.179264548943087
 20
-1.726501843921862
 30
0.0
 10
6.225946933333084
 20
-1.750982557916447
 30
0.0
 10
6.23010618564447
 20
-1.801653267720768
 30
0.0
 10
6.237095248889191
 20
-1.852001113182117
 30
0.0
 10
6.244122296173272
 20
-1.901057501272299
 30
0.0
 10
6.144205280601353
 20
-1.773374149692801
 30
0.0
 10
6.057316790534565
 20
-1.676078030379687
 30
0.0
 10
5.967541513475364
 20
-1.590974788013619
 30
0.0
 10
5.860825354855605
 20
-1.489956232747937
 30
0.0
 10
5.773253152080062
 20
-1.367932503178104
 30
0.0
 10
5.692043275899588
 20
-1.207184044488675
 30
0.0
 10
5.641562487572249
 20
-1.107210050332191
 30
0.0
 10
5.586219742205103
 20
-1.008052713042806
 30
0.0
 10
5.532719222747573
 20
-0.9121240191816847
 30
0.0
 10
5.532719222747573
 20
-0.9121240191816847
 30
0.0
 10
5.50531373833961
 20
-0.8629156949302038
 30
0.0
 10
5.50531373833961
 20
-0.8629156949302038
 30
0.0
 10
5.529034770928344
 20
-0.8347885130637122
 30
0.0
 10
5.547627958201651
 20
-0.7993873874732268
 30
0.0
 10
5.547855862437902
 20
-0.7987416587876497
 30
0.0
 10
5.562403749517949
 20
-0.7631126289552286
 30
0.0
 10
5.567341674636483
 20
-0.725204556702882
 30
0.0
 10
5.563429318581029
 20
-0.6793768120411414
 30
0.0
 10
5.549033367658479
 20
-0.5092652874096757
 30
0.0
 10
5.443247818003366
 20
-0.372617702311585
 30
0.0
 10
5.345230004400137
 20
-0.2577729563647103
 30
0.0
 10
5.253137700939154
 20
-0.1500502179801641
 30
0.0
 10
5.161083381517553
 20
-0.0477402053431383
 30
0.0
 10
5.047663039948374
 20
0.0191876737236119
 30
0.0
 10
5.011825098799502
 20
0.0403447841890612
 30
0.0
 10
4.973879043465407
 20
0.0411614410563112
 30
0.0
 10
4.946322726626249
 20
0.0190167455421033
 30
0.0
 10
4.935497275131373
 20
0.0089889588941156
 30
0.0
 10
4.903494618506366
 20
-0.0286722170960856
 30
0.0
 10
4.947119287726789
 20
-0.0910610033430051
 30
0.0
 10
5.021890869233478
 20
-0.1984608773845922
 30
0.0
 10
5.050778837542111
 20
-0.332601515820809
 30
0.0
 10
5.071991817167069
 20
-0.4499532084295575
 30
0.0
 10
5.076511917852523
 20
-0.4748327548477517
 30
0.0
 10
5.080234353711123
 20
-0.5010227506573225
 30
0.0
 10
5.084070741687835
 20
-0.5277825070719978
 30
0.0
 10
5.099264357437227
 20
-0.6337959636415588
 30
0.0
 10
5.11650911131278
 20
-0.7539014991744908
 30
0.0
 10
5.186817568193078
 20
-0.8423853211302987
 30
0.0
 10
5.217850528361193
 20
-0.8815088826733523
 30
0.0
 10
5.250668738379873
 20
-0.9073570221199184
 30
0.0
 10
5.28663962366655
 20
-0.9210122846196276
 30
0.0
 10
5.287969065044623
 20
-0.9235192312816656
 30
0.0
 10
5.289336490462069
 20
-0.9260261779435394
 30
0.0
 10
5.290798875977948
 20
-0.9287040527870734
 30
0.0
 10
5.290798875977948
 20
-0.9287040527870734
 30
0.0
 10
5.3179384721103
 20
-0.9789569381477525
 30
0.0
 10
5.3179384721103
 20
-0.9789569381477525
 30
0.0
 10
5.324813583236897
 20
-0.9916436076189004
 30
0.0
 10
5.331688694363493
 20
-1.00434926911027
 30
0.0
 10
5.338563805490089
 20
-1.017035938581595
 30
0.0
 10
5.177606438645006
 20
-0.8920114698254211
 30
0.0
 10
4.978854952623325
 20
-0.74653259534984
 30
0.0
 10
4.761852135682703
 20
-0.621356190432367
 30
0.0
 10
4.761586247407093
 20
-0.612790789337219
 30
0.0
 10
4.761340450204367
 20
-0.602041305922992
 30
0.0
 10
4.761054470855862
 20
-0.5904941576618891
 30
0.0
 10
4.759193252926555
 20
-0.520090738904552
 30
0.0
 10
4.757825827509123
 20
-0.4942425994579859
 30
0.0
 10
4.753248750764619
 20
-0.47994160827251
 30
0.0
 10
4.735605164475626
 20
-0.4240101088821322
 30
0.0
 10
4.701647433275753
 20
-0.366388319696979
 30
0.0
 10
4.649533331255346
 20
-0.3036766691070877
 30
0.0
 10
4.569956768767926
 20
-0.208146807669588
 30
0.0
 10
4.460334831136101
 20
-0.1292729479181137
 30
0.0
 10
4.332500634844538
 20
-0.0758673872098194
 30
0.0
 10
4.163471655362502
 20
-0.0051411041096748
 30
0.0
 10
3.98143206271541
 20
0.0144016846416359
 30
0.0
 10
3.80537604021937
 20
0.0333177367274023
 30
0.0
 10
3.605086200603068
 20
0.0548926716366698
 30
0.0
 10
3.415849716444452
 20
0.0751761491744295
 30
0.0
 10
3.243630081925137
 20
0.1643246918360243
 30
0.0
 10
3.214496323725686
 20
0.1792714117070773
 30
0.0
 10
3.173245656966098
 20
0.1864693873502321
 30
0.0
 10
3.144586699258816
 20
0.1618177451741632
 30
0.0
 10
3.127171017206087
 20
0.1467000971216142
 30
0.0
 10
3.111293688747967
 20
0.1170535536416537
 30
0.0
 10
3.134615888923286
 20
0.0612739904125748
 30
0.0
 10
3.153531940531265
 20
0.016110966456621
 30
0.0
 10
3.179057214990242
 20
-0.0239811881149687
 30
0.0
 10
3.203746840582994
 20
-0.0627628932948407
 30
0.0
 10
3.212312241461707
 20
-0.076266219633251
 30
0.0
 10
3.220877642340433
 20
-0.0896745858708149
 30
0.0
 10
3.229215138982909
 20
-0.1034248084713706
 30
0.0
 10
3.492615460018227
 20
-0.5375633974576759
 30
0.0
 10
3.83737866910355
 20
-0.974835669771576
 30
0.0
 10
4.393179049523812
 20
-0.9335470179294891
 30
0.0
 10
4.521242238271459
 20
-0.9238420956244605
 30
0.0
 10
4.619430980051876
 20
-0.8859530153923236
 30
0.0
 10
4.685257320286104
 20
-0.821133250564003
 30
0.0
 10
4.763067624942651
 20
-0.8602568121070437
 30
0.0
 10
5.033513985281754
 20
-1.058400558504154
 30
0.0
 10
5.144560324390087
 20
-1.144225497636638
 30
0.0
 10
5.27450483510361
 20
-1.244674292297367
 30
0.0
 10
5.407485844933237
 20
-1.356689227239422
 30
0.0
 10
5.55877627375777
 20
-1.493184876176214
 30
0.0
 10
5.447046221940708
 20
-1.468704162181641
 30
0.0
 10
5.331403814068178
 20
-1.45520083584323
 30
0.0
 10
5.208487462655638
 20
-1.452295056757748
 30
0.0
 10
5.205847571919182
 20
-1.436949504463074
 30
0.0
 10
5.201650335568413
 20
-1.418280348639466
 30
0.0
 10
5.195439945130854
 20
-1.395489924439668
 30
0.0
 10
5.159260147627618
 20
-1.263020583778194
 30
0.0
 10
5.011407274366396
 20
-1.18868581684655
 30
0.0
 10
4.885148327488978
 20
-1.163293485883868
 30
0.0
 10
4.766581148584692
 20
-1.139382532494223
 30
0.0
 10
4.648925586625384
 20
-1.152145170046197
 30
0.0
 10
4.534973468504973
 20
-1.164357039013263
 30
0.0
 10
4.422027927427962
 20
-1.176473947879483
 30
0.0
 10
4.315407816694649
 20
-1.187945128059937
 30
0.0
 10
4.209089402700291
 20
-1.166370193150846
 30
0.0
 10
4.174087110417632
 20
-1.159419113769837
 30
0.0
 10
4.13025352898065
 20
-1.170985254051313
 30
0.0
 10
4.113654503774443
 20
-1.206785212065231
 30
0.0
 10
4.105810799643828
 20
-1.223840046174713
 30
0.0
 10
4.098139105989692
 20
-1.258899315402017
 30
0.0
 10
4.136425935378838
 20
-1.303929395216869
 30
0.0
 10
4.176689017114717
 20
-1.346585472510949
 30
0.0
 10
4.214331200133832
 20
-1.391444624144141
 30
0.0
 10
4.252087335271059
 20
-1.436303775777497
 30
0.0
 10
4.31333659876077
 20
-1.509271117257312
 30
0.0
 10
4.376731960475101
 20
-1.584669437318363
 30
0.0
 10
4.450876805332111
 20
-1.650210898912911
 30
0.0
 10
4.566120380791213
 20
-1.751951150944996
 30
0.0
 10
4.673045451627533
 20
-1.81475776163557
 30
0.0
 10
4.777748456160503
 20
-1.842144254715802
 30
0.0
 10
4.914244101649059
 20
-1.877944212729542
 30
0.0
 10
5.047017311279029
 20
-1.838516778863916
 30
0.0
 10
5.124277955586459
 20
-1.739359441574518
 30
0.0
 10
5.142300274047367
 20
-1.716151192931079
 30
0.0
 10
5.157246993540828
 20
-1.693531696912777
 30
0.0
 10
5.169534830278153
 20
-1.670741272712992
 30
0.0
 10
5.312981554972061
 20
-1.671861801902828
 30
0.0
 10
5.44309588184587
 20
-1.688194939245907
 30
0.0
 10
5.566449049711208
 20
-1.72059532565005
 30
0.0
 10
5.61085351225251
 20
-1.732313402092826
 30
0.0
 10
5.649862000175353
 20
-1.744677207221192
 30
0.0
 10
5.685016228615495
 20
-1.758351461741098
 30
0.0
 10
5.641657447670682
 20
-1.766271134150492
 30
0.0
 10
5.598203706627436
 20
-1.777324489887481
 30
0.0
 10
5.555129805977913
 20
-1.791473544911481
 30
0.0
 10
5.555129805977913
 20
-1.791473544911481
 30
0.0
 10
5.516063221482303
 20
-1.804236182463278
 30
0.0
 10
5.516063221482303
 20
-1.804236182463278
 30
0.0
 10
5.513366354686796
 20
-1.802792788930649
 30
0.0
 10
5.510403599615655
 20
-1.801254435297147
 30
0.0
 10
5.507326892426414
 20
-1.799564145502371
 30
0.0
 10
5.481725649888681
 20
-1.785908883002662
 30
0.0
 10
5.471166086942857
 20
-1.780477165235109
 30
0.0
 10
5.461916973355427
 20
-1.778464011097362
 30
0.0
 10
5.425832135950637
 20
-1.770145506264523
 30
0.0
 10
5.392463157361034
 20
-1.77288035716851
 30
0.0
 10
5.367355707335175
 20
-1.776355896858932
 30
0.0
 10
5.283391988300119
 20
-1.78759917279745
 30
0.0
 10
5.210899449155855
 20
-1.822677434045128
 30
0.0
 10
5.140837888531488
 20
-1.856616174082584
 30
0.0
 10
5.081070002577335
 20
-1.885541020796141
 30
0.0
 10
5.024625720068368
 20
-1.912851545795724
 30
0.0
 10
4.962882664066783
 20
-1.925310311024936
 30
0.0
 10
4.929475701437822
 20
-1.932166430304935
 30
0.0
 10
4.904045387077278
 20
-1.957235896924822
 30
0.0
 10
4.899525286391836
 20
-1.988667690300417
 30
0.0
 10
4.895935794671055
 20
-2.019301818828959
 30
0.0
 10
4.914927814357775
 20
-2.049594090994497
 30
0.0
 10
4.948981609449573
 20
-2.067693486213178
 30
0.0
 10
4.948981609449573
 20
-2.067693486213178
 30
0.0
 10
4.967649661008156
 20
-2.077645304780529
 30
0.0
 10
4.967649661008156
 20
-2.077645304780529
 30
0.0
 10
5.068554261603771
 20
-2.131544658013114
 30
0.0
 10
5.182867228098226
 20
-2.192566018808053
 30
0.0
 10
5.307075036849483
 20
-2.201359324145137
 30
0.0
 10
5.393108886030379
 20
-2.207436770598457
 30
0.0
 10
5.477642365656038
 20
-2.181246774788886
 30
0.0
 10
5.533478903535044
 20
-2.131297761750969
 30
0.0
 10
5.570133501530436
 20
-2.098574511004029
 30
0.0
 10
5.593284773528567
 20
-2.056868034718301
 30
0.0
 10
5.601318397856049
 20
-2.009596896523931
 30
0.0
 10
5.69010608989154
 20
-1.97913369617672
 30
0.0
 10
5.783565818769956
 20
-1.963370319438582
 30
0.0
 10
5.886274661235827
 20
-1.961262205200152
 30
0.0
 10
5.978974709326772
 20
-1.95900215480026
 30
0.0
 10
6.034089550457692
 20
-1.988591722219768
 30
0.0
 10
6.098453505176015
 20
-2.072954275799412
 30
0.0
 10
6.339614171158195
 20
-2.388943507329739
 30
0.0
 10
6.538043936781782
 20
-2.689815090807681
 30
0.0
 10
6.70198190678108
 20
-2.988255695704235
 30
0.0
 10
6.651140270079698
 20
-2.943643440333201
 30
0.0
 10
6.59874128776399
 20
-2.899524977486281
 30
0.0
 10
6.54374154283169
 20
-2.858958022410598
 30
0.0
 10
6.484067472895478
 20
-2.814839559563855
 30
0.0
 10
6.423729826350735
 20
-2.77531716559737
 30
0.0
 10
6.364018916455633
 20
-2.741131529297591
 30
0.0
 10
6.364456872459741
 20
-2.725292184478803
 30
0.0
 10
6.363563107983155
 20
-2.709452839659851
 30
0.0
 10
6.361265073601063
 20
-2.693765431002362
 30
0.0
 10
6.348654372529078
 20
-2.607066858942188
 30
0.0
 10
6.304175062422726
 20
-2.533928589281042
 30
0.0
 10
6.229061624561685
 20
-2.476458736257175
 30
0.0
 10
6.139476267699365
 20
-2.407764599314823
 30
0.0
 10
6.03581782424918
 20
-2.376009941596433
 30
0.0
 10
5.93242526907458
 20
-2.344407220039342
 30
0.0
 10
5.865269487462304
 20
-2.323724910077974
 30
0.0
 10
5.810382550567637
 20
-2.304808857992207
 30
0.0
 10
5.7664730010519
 20
-2.265210495944908
 30
0.0
 10
5.736446617927172
 20
-2.23797593902614
 30
0.0
 10
5.7010454932311
 20
-2.230303162878903
 30
0.0
 10
5.673981865177514
 20
-2.245572747092738
 30
0.0
 10
5.643917498013403
 20
-2.262551613121748
 30
0.0
 10
5.629616507189287
 20
-2.298256611034642
 30
0.0
 10
5.636682659679056
 20
-2.338918526211172
 30
0.0
 10
5.666954817893409
 20
-2.512106758109616
 30
0.0
 10
5.712687601299067
 20
-2.708636182792765
 30
0.0
 10
5.873796904301646
 20
-2.849575964448364
 30
0.0
 10
5.982412264890071
 20
-2.944631025381783
 30
0.0
 10
6.138868523069403
 20
-3.003620240018942
 30
0.0
 10
6.256125252615296
 20
-2.933881541967556
 30
0.0
 10
6.343032734701788
 20
-2.983982491166772
 30
0.0
 10
6.42866775146927
 20
-3.043693402570322
 30
0.0
 10
6.515290353260474
 20
-3.114818518093898
 30
0.0
 10
6.481845406592129
 20
-3.112957300117614
 30
0.0
 10
6.446083433522012
 20
-3.110773217798535
 30
0.0
 10
6.403978125876518
 20
-3.106500013261072
 30
0.0
 10
6.403085500951242
 20
-3.106253116998927
 30
0.0
 10
6.313462160049539
 20
-3.097687715903766
 30
0.0
 10
6.290994600760136
 20
-3.147788665102982
 30
0.0
 10
6.27268629378212
 20
-3.188754452602274
 30
0.0
 10
6.305713416017372
 20
-3.235474822211737
 30
0.0
 10
6.330915826141664
 20
-3.25535946732623
 30
0.0
 10
6.40301067339783
 20
-3.312088631563483
 30
0.0
 10
6.499621937018926
 20
-3.384182340115608
 30
0.0
 10
6.60799040135142
 20
-3.438404557691001
 30
0.0
 10
6.69926604796587
 20
-3.483985406090583
 30
0.0
 10
6.816617737610208
 20
-3.533117762261415
 30
0.0
 10
6.927018348049184
 20
-3.517525313704785
 30
0.0
 10
6.945269678968138
 20
-3.541189370832108
 30
0.0
 10
6.979740194699565
 20
-3.599058056279584
 30
0.0
 10
6.994212113700869
 20
-3.626615477541147
 30
0.0
 10
7.050941276505151
 20
-3.735154872792767
 30
0.0
 10
7.086627281496526
 20
-3.860179341548941
 30
0.0
 10
7.121078805208248
 20
-3.980987581828079
 30
0.0
 10
7.12924537367356
 20
-4.009513596118179
 30
0.0
 10
7.137373958099462
 20
-4.037963642327642
 30
0.0
 10
7.145654478682874
 20
-4.065919896012815
 30
0.0
 10
7.193856224647813
 20
-4.228358644497044
 30
0.0
 10
7.226028705997148
 20
-4.358321038496468
 30
0.0
 10
7.248135416912494
 20
-4.482130017961948
 30
0.0
 10
7.083835454602548
 20
-4.338683289644311
 30
0.0
 10
6.893384634097274
 20
-4.233220601659657
 30
0.0
 10
6.668479984053672
 20
-4.161126893107532
 30
0.0
 10
6.671195842868883
 20
-4.133968304269413
 30
0.0
 10
6.670170273805802
 20
-4.106904675532152
 30
0.0
 10
6.669733457353004
 20
-4.09801641009421
 30
0.0
 10
6.655584402686397
 20
-3.817181407892033
 30
0.0
 10
6.340337006848358
 20
-3.711870656068678
 30
0.0
 10
6.050004862955171
 20
-3.706951722845449
 30
0.0
 10
6.050004862955171
 20
-3.706951722845449
 30
0.0
 10
6.002372877580834
 20
-3.706628858502654
 30
0.0
 10
6.002372877580834
 20
-3.706628858502654
 30
0.0
 10
5.901753157280508
 20
-3.706533898401807
 30
0.0
 10
5.80675507480747
 20
-3.706457930321158
 30
0.0
 10
5.728488961678433
 20
-3.642948614884391
 30
0.0
 10
5.694911070872295
 20
-3.615619097864775
 30
0.0
 10
5.649615103919422
 20
-3.616511722812497
 30
0.0
 10
5.623026276357993
 20
-3.645360601445582
 30
0.0
 10
5.59934322780863
 20
-3.671151764831709
 30
0.0
 10
5.604965986000908
 20
-3.710579198697335
 30
0.0
 10
5.620994130251524
 20
-3.738060651878249
 30
0.0
 10
5.629806427386155
 20
-3.753254268011447
 30
0.0
 10
5.638903604816101
 20
-3.768371916063996
 30
0.0
 10
5.647962798206676
 20
-3.783394604015699
 30
0.0
 10
5.659547930215593
 20
-3.802633520444424
 30
0.0
 10
5.671152054244177
 20
-3.821948404953799
 30
0.0
 10
5.682129441623121
 20
-3.84151018572532
 30
0.0
 10
5.81645999686739
 20
-4.080467783460259
 30
0.0
 10
5.969022891010935
 20
-4.253086254753763
 30
0.0
 10
6.135677863762035
 20
-4.354522634463087
 30
0.0
 10
6.255042707493152
 20
-4.427243079680768
 30
0.0
 10
6.435770766832118
 20
-4.469196452228466
 30
0.0
 10
6.565638197450021
 20
-4.358966767182058
 30
0.0
 10
6.749499940037291
 20
-4.411498694962662
 30
0.0
 10
6.914312686878778
 20
-4.495462416118863
 30
0.0
 10
7.058538084379834
 20
-4.610705994489181
 30
0.0
 10
6.974042588793559
 20
-4.622101206589162
 30
0.0
 10
6.903620179795123
 20
-4.655071353598246
 30
0.0
 10
6.848505338664229
 20
-4.708799778649172
 30
0.0
 10
6.840699618572974
 20
-4.706216863906648
 30
0.0
 10
6.832665994245493
 20
-4.703804877345457
 30
0.0
 10
6.824328497603018
 20
-4.70169676310704
 30
0.0
 10
6.641891156492242
 20
-4.655394217941041
 30
0.0
 10
6.444336167710844
 20
-4.75867282360644
 30
0.0
 10
6.365462309951832
 20
-4.941717913971375
 30
0.0
 10
6.335283990669596
 20
-5.011703508284894
 30
0.0
 10
6.322844217774799
 20
-5.087348724608268
 30
0.0
 10
6.311809854336793
 20
-5.154181643574159
 30
0.0
 10
6.303073525280903
 20
-5.207435268121003
 30
0.0
 10
6.292134121941343
 20
-5.257935049743815
 30
0.0
 10
6.254303155493972
 20
-5.290924188773109
 30
0.0
 10
6.219318718462394
 20
-5.321387389120142
 30
0.0
 10
6.226231813628374
 20
-5.351356796942897
 30
0.0
 10
6.230827882392557
 20
-5.362846969143561
 30
0.0
 10
6.235727823471734
 20
-5.375039846090595
 30
0.0
 10
6.253865202272562
 20
-5.402027506747218
 30
0.0
 10
6.305581609943651
 20
-5.400831009476721
 30
0.0
 10
6.305581609943651
 20
-5.400831009476721
 30
0.0
 10
6.355358555478485
 20
-5.398798863318764
 30
0.0
 10
6.355358555478485
 20
-5.398798863318764
 30
0.0
 10
6.512878366760257
 20
-5.392664440805017
 30
0.0
 10
6.691384359795872
 20
-5.385789329504822
 30
0.0
 10
6.837584927344373
 20
-5.296659778863424
 30
0.0
 10
6.938812392274662
 20
-5.234916721302081
 30
0.0
 10
7.01840794678176
 20
-5.127839711603125
 30
0.0
 10
7.040343729519943
 20
-5.02389638523194
 30
0.0
 10
7.053372255025048
 20
-4.962400223932743
 30
0.0
 10
7.046421175819685
 20
-4.90333504121477
 30
0.0
 10
7.020441249011228
 20
-4.850879081514992
 30
0.0
 10
7.086570305437463
 20
-4.808849740886469
 30
0.0
 10
7.182593956973581
 20
-4.824689085705245
 30
0.0
 10
7.236360364706721
 20
-4.853215099995357
 30
0.0
 10
7.273225037427538
 20
-4.872700912686228
 30
0.0
 10
7.293944168396895
 20
-4.901720719500632
 30
0.0
 10
7.299641774302927
 20
-4.941964810233521
 30
0.0
 10
7.356010088733152
 20
-5.336827901515486
 30
0.0
 10
7.320532995958324
 20
-5.815160921429361
 30
0.0
 10
7.199838710849134
 20
-6.292050547810403
 30
0.0
 10
7.188557451155222
 20
-6.275812370568019
 30
0.0
 10
7.176288606437588
 20
-6.260295890092038
 30
0.0
 10
7.163071320461616
 20
-6.245501106382259
 30
0.0
 10
7.178415712642491
 20
-6.204763223125105
 30
0.0
 10
7.186069496576263
 20
-6.153370816554545
 30
0.0
 10
7.186145464655005
 20
-6.152649119788293
 30
0.0
 10
7.200693351735026
 20
-5.994008775337306
 30
0.0
 10
7.100244559611887
 20
-5.857835990743474
 30
0.0
 10
6.895605547487321
 20
-5.758678653454075
 30
0.0
 10
6.874277509379125
 20
-5.748328002463293
 30
0.0
 10
6.851809950089723
 20
-5.738547112077614
 30
0.0
 10
6.829019526465648
 20
-5.728690253611123
 30
0.0
 10
6.755596378356737
 20
-5.696764667711236
 30
0.0
 10
6.679724407224007
 20
-5.663794520702153
 30
0.0
 10
6.635357901719999
 20
-5.605697931012906
 30
0.0
 10
6.59950096855146
 20
-5.558977561403266
 30
0.0
 10
6.568885832816451
 20
-5.559148489584762
 30
0.0
 10
6.549439148881598
 20
-5.56754296249825
 30
0.0
 10
6.521728647934272
 20
-5.579659871364634
 30
0.0
 10
6.506611000263647
 20
-5.605128170407801
 30
0.0
 10
6.504502886078424
 20
-5.64326414690226
 30
0.0
 10
6.504502886078424
 20
-5.64326414690226
 30
0.0
 10
6.502166867656948
 20
-5.684153966320726
 30
0.0
 10
6.502166867656948
 20
-5.684153966320726
 30
0.0
 10
6.499583952979542
 20
-5.726506171292044
 30
0.0
 10
6.49703902234152
 20
-5.768782408182712
 30
0.0
 10
6.497475838794318
 20
-5.811039653053184
 30
0.0
 10
6.499697905097668
 20
-6.032467616174547
 30
0.0
 10
6.564517668288494
 20
-6.202826037068158
 30
0.0
 10
6.695677704163851
 20
-6.331971774200509
 30
0.0
 10
6.784578200398679
 20
-6.419411035047132
 30
0.0
 10
6.909925530331141
 20
-6.447690153075099
 30
0.0
 10
7.012026628167026
 20
-6.406648397495145
 30
0.0
 10
7.018009114368346
 20
-6.41496690232816
 30
0.0
 10
7.023345871900321
 20
-6.423456335342658
 30
0.0
 10
7.027979924703888
 20
-6.432173672598916
 30
0.0
 10
7.027979924703888
 20
-6.432173672598916
 30
0.0
 10
7.036545325582589
 20
-6.448013017417881
 30
0.0
 10
7.036545325582589
 20
-6.448013017417881
 30
0.0
 10
7.077966920519353
 20
-6.524721786870487
 30
0.0
 10
7.11712846511341
 20
-6.597214327846055
 30
0.0
 10
7.093882233016857
 20
-6.676562988101775
 30
0.0
 10
6.973928636675433
 20
-7.086467759355653
 30
0.0
 10
6.801822954274232
 20
-7.463858192084293
 30
0.0
 10
6.582408150833392
 20
-7.798193715095648
 30
0.0
 10
6.56147894513861
 20
-7.830043332914859
 30
0.0
 10
6.535385053958457
 20
-7.869793631123482
 30
0.0
 10
6.532916091336826
 20
-7.917387633660635
 30
0.0
 10
6.531262641817015
 20
-7.95020584450842
 30
0.0
 10
6.54377838279058
 20
-7.983745752122458
 30
0.0
 10
6.566492838335913
 20
-8.007181905008009
 30
0.0
 10
6.585010057530477
 20
-8.026173925174387
 30
0.0
 10
6.608712098099507
 20
-8.036600544245832
 30
0.0
 10
6.633496683790705
 20
-8.036600544245832
 30
0.0
 10
6.634143558824235
 20
-8.036600544245832
 30
0.0
 10
6.634826125168779
 20
-8.036600544245832
 30
0.0
 10
6.635473000235985
 20
-8.036600544245832
 30
0.0
 10
6.692599849055821
 20
-8.035385054955315
 30
0.0
 10
6.726424636117902
 20
-7.98342288777965
 30
0.0
 10
6.740858571079823
 20
-7.961202224184793
 30
0.0
 10
6.941471275030785
 20
-7.652961736882363
 30
0.0
 10
7.111962635758623
 20
-7.297298175224063
 30
0.0
 10
7.24747069622347
 20
-6.904220333837757
 30
0.0
 10
7.325053096643791
 20
-6.679316831025769
 30
0.0
 10
7.394563888697221
 20
-6.432591497042747
 30
0.0
 10
7.459934420458971
 20
-6.150066205045631
 30
0.0
 10
7.472146289117543
 20
-6.097211412922231
 30
0.0
 10
7.485763567232929
 20
-6.063272672884573
 30
0.0
 10
7.519227505920955
 20
-6.046046910593607
 30
0.0
 10
7.541410184915068
 20
-6.03465169849379
 30
0.0
 10
7.561883582137347
 20
-6.028593244060529
 30
0.0
 10
7.581046530001281
 20
-6.027947515374939
 30
0.0
 10
7.560022364208053
 20
-6.100838888773928
 30
0.0
 10
7.567068403511838
 20
-6.179959644787737
 30
0.0
 10
7.602013719735421
 20
-6.247685188701527
 30
0.0
 10
7.643473298711569
 20
-6.327926473904982
 30
0.0
 10
7.713174010961893
 20
-6.386934680562338
 30
0.0
 10
7.762021485596177
 20
-6.424254000189547
 30
0.0
 10
7.762021485596177
 20
-6.424254000189547
 30
0.0
 10
7.781298385578212
 20
-6.438725919556519
 30
0.0
 10
7.781298385578212
 20
-6.438725919556519
 30
0.0
 10
7.826272664676303
 20
-6.47243675535204
 30
0.0
 10
7.86883260431437
 20
-6.504191413070404
 30
0.0
 10
7.882848714843172
 20
-6.552602072474833
 30
0.0
 10
7.893845094241795
 20
-6.590491152707146
 30
0.0
 10
7.918895568208604
 20
-6.613851337511884
 30
0.0
 10
7.949795584238927
 20
-6.614990858721941
 30
0.0
 10
7.980999472584219
 20
-6.615389691145386
 30
0.0
 10
8.008993709602464
 20
-6.593643828054761
 30
0.0
 10
8.023332684465963
 20
-6.555014059036036
 30
0.0
 10
8.066216664918606
 20
-6.438896847738002
 30
0.0
 10
8.118064878663391
 20
-6.265290791395905
 30
0.0
 10
8.07303479998614
 20
-6.098901702717007
 30
0.0
 10
8.04919981527928
 20
-6.010645785003311
 30
0.0
 10
7.983373475045052
 20
-5.90203042167103
 30
0.0
 10
7.890198626461925
 20
-5.858234823166905
 30
0.0
 10
7.841712000201722
 20
-5.835444398967107
 30
0.0
 10
7.790509515126258
 20
-5.832367691700129
 30
0.0
 10
7.74097832778327
 20
-5.849023693386167
 30
0.0
 10
7.693783158861732
 20
-5.820972479600325
 30
0.0
 10
7.641536112703534
 20
-5.807564113362761
 30
0.0
 10
7.584560053643322
 20
-5.808133873967702
 30
0.0
 10
7.619429401788162
 20
-5.765857637077033
 30
0.0
 10
7.657014608748214
 20
-5.724720921396409
 30
0.0
 10
7.6984172116653
 20
-5.683432269554323
 30
0.0
 10
7.727399033707266
 20
-5.698549917606871
 30
0.0
 10
7.759286634761287
 20
-5.708159879811218
 30
0.0
 10
7.759723451214086
 20
-5.708235847891867
 30
0.0
 10
8.020635817670431
 20
-5.770719594239646
 30
0.0
 10
8.196047297318323
 20
-5.511383558865924
 30
0.0
 10
8.312220295920875
 20
-5.339980576863113
 30
0.0
 10
8.312220295920875
 20
-5.339980576863113
 30
0.0
 10
8.322400018472965
 20
-5.325014864972028
 30
0.0
 10
8.322400018472965
 20
-5.325014864972028
 30
0.0
 10
8.387979462451261
 20
-5.228364474344503
 30
0.0
 10
8.454375563276091
 20
-5.175908514644726
 30
0.0
 10
8.53765556960242
 20
-5.154903340340562
 30
0.0
 10
8.60133700767172
 20
-5.138912059360311
 30
0.0
 10
8.614345345097439
 20
-5.10440355871775
 30
0.0
 10
8.614061661183289
 20
-5.077966666645858
 30
0.0
 10
8.613281791994975
 20
-5.038767137022344
 30
0.0
 10
8.583426337047436
 20
-5.005569085771147
 30
0.0
 10
8.53801641797645
 20
-4.993186288622572
 30
0.0
  0
HATCH
  5
45
330
1F
100
AcDbEntity
  8
Layer 1
 62
     7
420
 16777215
100
AcDbHatch
 10
0.0
 20
0.0
 30
0.0
210
0.0
220
0.0
230
1.0
  2
SOLID
 70
     1
 71
     0
 91
        1
 92
        1
 93
        1
 72
     4
 94
        3
 73
     0
 74
     1
 95
      620
 96
      616
 40
0.0
 40
0.0
 40
0.0
 40
0.0
 40
1.0
 40
1.0
 40
1.0
 40
2.0
 40
2.0
 40
2.0
 40
3.0
 40
3.0
 40
3.0
 40
4.0
 40
4.0
 40
4.0
 40
5.0
 40
5.0
 40
5.0
 40
6.0
 40
6.0
 40
6.0
 40
7.0
 40
7.0
 40
7.0
 40
8.0
 40
8.0
 40
8.0
 40
9.0
 40
9.0
 40
9.0
 40
10.0
 40
10.0
 40
10.0
 40
11.0
 40
11.0
 40
11.0
 40
12.0
 40
12.0
 40
12.0
 40
13.0
 40
13.0
 40
13.0
 40
14.0
 40
14.0
 40
14.0
 40
15.0
 40
15.0
 40
15.0
 40
16.0
 40
16.0
 40
16.0
 40
17.0
 40
17.0
 40
17.0
 40
18.0
 40
18.0
 40
18.0
 40
19.0
 40
19.0
 40
19.0
 40
20.0
 40
20.0
 40
20.0
 40
21.0
 40
21.0
 40
21.0
 40
22.0
 40
22.0
 40
22.0
 40
23.0
 40
23.0
 40
23.0
 40
24.0
 40
24.0
 40
24.0
 40
25.0
 40
25.0
 40
25.0
 40
26.0
 40
26.0
 40
26.0
 40
27.0
 40
27.0
 40
27.0
 40
28.0
 40
28.0
 40
28.0
 40
29.0
 40
29.0
 40
29.0
 40
30.0
 40
30.0
 40
30.0
 40
31.0
 40
31.0
 40
31.0
 40
32.0
 40
32.0
 40
32.0
 40
33.0
 40
33.0
 40
33.0
 40
34.0
 40
34.0
 40
34.0
 40
35.0
 40
35.0
 40
35.0
 40
36.0
 40
36.0
 40
36.0
 40
37.0
 40
37.0
 40
37.0
 40
38.0
 40
38.0
 40
38.0
 40
39.0
 40
39.0
 40
39.0
 40
40.0
 40
40.0
 40
40.0
 40
41.0
 40
41.0
 40
41.0
 40
42.0
 40
42.0
 40
42.0
 40
43.0
 40
43.0
 40
43.0
 40
44.0
 40
44.0
 40
44.0
 40
45.0
 40
45.0
 40
45.0
 40
46.0
 40
46.0
 40
46.0
 40
47.0
 40
47.0
 40
47.0
 40
48.0
 40
48.0
 40
48.0
 40
49.0
 40
49.0
 40
49.0
 40
50.0
 40
50.0
 40
50.0
 40
51.0
 40
51.0
 40
51.0
 40
52.0
 40
52.0
 40
52.0
 40
53.0
 40
53.0
 40
53.0
 40
54.0
 40
54.0
 40
54.0
 40
55.0
 40
55.0
 40
55.0
 40
56.0
 40
56.0
 40
56.0
 40
57.0
 40
57.0
 40
57.0
 40
58.0
 40
58.0
 40
58.0
 40
59.0
 40
59.0
 40
59.0
 40
60.0
 40
60.0
 40
60.0
 40
61.0
 40
61.0
 40
61.0
 40
62.0
 40
62.0
 40
62.0
 40
63.0
 40
63.0
 40
63.0
 40
64.0
 40
64.0
 40
64.0
 40
65.0
 40
65.0
 40
65.0
 40
66.0
 40
66.0
 40
66.0
 40
67.0
 40
67.0
 40
67.0
 40
68.0
 40
68.0
 40
68.0
 40
69.0
 40
69.0
 40
69.0
 40
70.0
 40
70.0
 40
70.0
 40
71.0
 40
71.0
 40
71.0
 40
72.0
 40
72.0
 40
72.0
 40
73.0
 40
73.0
 40
73.0
 40
74.0
 40
74.0
 40
74.0
 40
75.0
 40
75.0
 40
75.0
 40
76.0
 40
76.0
 40
76.0
 40
77.0
 40
77.0
 40
77.0
 40
78.0
 40
78.0
 40
78.0
 40
79.0
 40
79.0
 40
79.0
 40
80.0
 40
80.0
 40
80.0
 40
81.0
 40
81.0
 40
81.0
 40
82.0
 40
82.0
 40
82.0
 40
83.0
 40
83.0
 40
83.0
 40
84.0
 40
84.0
 40
84.0
 40
85.0
 40
85.0
 40
85.0
 40
86.0
 40
86.0
 40
86.0
 40
87.0
 40
87.0
 40
87.0
 40
88.0
 40
88.0
 40
88.0
 40
89.0
 40
89.0
 40
89.0
 40
90.0
 40
90.0
 40
90.0
 40
91.0
 40
91.0
 40
91.0
 40
92.0
 40
92.0
 40
92.0
 40
93.0
 40
93.0
 40
93.0
 40
94.0
 40
94.0
 40
94.0
 40
95.0
 40
95.0
 40
95.0
 40
96.0
 40
96.0
 40
96.0
 40
97.0
 40
97.0
 40
97.0
 40
98.0
 40
98.0
 40
98.0
 40
99.0
 40
99.0
 40
99.0
 40
100.0
 40
100.0
 40
100.0
 40
101.0
 40
101.0
 40
101.0
 40
102.0
 40
102.0
 40
102.0
 40
103.0
 40
103.0
 40
103.0
 40
104.0
 40
104.0
 40
104.0
 40
105.0
 40
105.0
 40
105.0
 40
106.0
 40
106.0
 40
106.0
 40
107.0
 40
107.0
 40
107.0
 40
108.0
 40
108.0
 40
108.0
 40
109.0
 40
109.0
 40
109.0
 40
110.0
 40
110.0
 40
110.0
 40
111.0
 40
111.0
 40
111.0
 40
112.0
 40
112.0
 40
112.0
 40
113.0
 40
113.0
 40
113.0
 40
114.0
 40
114.0
 40
114.0
 40
115.0
 40
115.0
 40
115.0
 40
116.0
 40
116.0
 40
116.0
 40
117.0
 40
117.0
 40
117.0
 40
118.0
 40
118.0
 40
118.0
 40
119.0
 40
119.0
 40
119.0
 40
120.0
 40
120.0
 40
120.0
 40
121.0
 40
121.0
 40
121.0
 40
122.0
 40
122.0
 40
122.0
 40
123.0
 40
123.0
 40
123.0
 40
124.0
 40
124.0
 40
124.0
 40
125.0
 40
125.0
 40
125.0
 40
126.0
 40
126.0
 40
126.0
 40
127.0
 40
127.0
 40
127.0
 40
128.0
 40
128.0
 40
128.0
 40
129.0
 40
129.0
 40
129.0
 40
130.0
 40
130.0
 40
130.0
 40
131.0
 40
131.0
 40
131.0
 40
132.0
 40
132.0
 40
132.0
 40
133.0
 40
133.0
 40
133.0
 40
134.0
 40
134.0
 40
134.0
 40
135.0
 40
135.0
 40
135.0
 40
136.0
 40
136.0
 40
136.0
 40
137.0
 40
137.0
 40
137.0
 40
138.0
 40
138.0
 40
138.0
 40
139.0
 40
139.0
 40
139.0
 40
140.0
 40
140.0
 40
140.0
 40
141.0
 40
141.0
 40
141.0
 40
142.0
 40
142.0
 40
142.0
 40
143.0
 40
143.0
 40
143.0
 40
144.0
 40
144.0
 40
144.0
 40
145.0
 40
145.0
 40
145.0
 40
146.0
 40
146.0
 40
146.0
 40
147.0
 40
147.0
 40
147.0
 40
148.0
 40
148.0
 40
148.0
 40
149.0
 40
149.0
 40
149.0
 40
150.0
 40
150.0
 40
150.0
 40
151.0
 40
151.0
 40
151.0
 40
152.0
 40
152.0
 40
152.0
 40
153.0
 40
153.0
 40
153.0
 40
154.0
 40
154.0
 40
154.0
 40
155.0
 40
155.0
 40
155.0
 40
156.0
 40
156.0
 40
156.0
 40
157.0
 40
157.0
 40
157.0
 40
158.0
 40
158.0
 40
158.0
 40
159.0
 40
159.0
 40
159.0
 40
160.0
 40
160.0
 40
160.0
 40
161.0
 40
161.0
 40
161.0
 40
162.0
 40
162.0
 40
162.0
 40
163.0
 40
163.0
 40
163.0
 40
164.0
 40
164.0
 40
164.0
 40
165.0
 40
165.0
 40
165.0
 40
166.0
 40
166.0
 40
166.0
 40
167.0
 40
167.0
 40
167.0
 40
168.0
 40
168.0
 40
168.0
 40
169.0
 40
169.0
 40
169.0
 40
170.0
 40
170.0
 40
170.0
 40
171.0
 40
171.0
 40
171.0
 40
172.0
 40
172.0
 40
172.0
 40
173.0
 40
173.0
 40
173.0
 40
174.0
 40
174.0
 40
174.0
 40
175.0
 40
175.0
 40
175.0
 40
176.0
 40
176.0
 40
176.0
 40
177.0
 40
177.0
 40
177.0
 40
178.0
 40
178.0
 40
178.0
 40
179.0
 40
179.0
 40
179.0
 40
180.0
 40
180.0
 40
180.0
 40
181.0
 40
181.0
 40
181.0
 40
182.0
 40
182.0
 40
182.0
 40
183.0
 40
183.0
 40
183.0
 40
184.0
 40
184.0
 40
184.0
 40
185.0
 40
185.0
 40
185.0
 40
186.0
 40
186.0
 40
186.0
 40
187.0
 40
187.0
 40
187.0
 40
188.0
 40
188.0
 40
188.0
 40
189.0
 40
189.0
 40
189.0
 40
190.0
 40
190.0
 40
190.0
 40
191.0
 40
191.0
 40
191.0
 40
192.0
 40
192.0
 40
192.0
 40
193.0
 40
193.0
 40
193.0
 40
194.0
 40
194.0
 40
194.0
 40
195.0
 40
195.0
 40
195.0
 40
196.0
 40
196.0
 40
196.0
 40
197.0
 40
197.0
 40
197.0
 40
198.0
 40
198.0
 40
198.0
 40
199.0
 40
199.0
 40
199.0
 40
200.0
 40
200.0
 40
200.0
 40
201.0
 40
201.0
 40
201.0
 40
202.0
 40
202.0
 40
202.0
 40
203.0
 40
203.0
 40
203.0
 40
204.0
 40
204.0
 40
204.0
 40
205.0
 40
205.0
 40
205.0
 40
205.0
 10
8.53801641797645
 20
-4.993186288622572
 10
8.32384341196914
 20
-4.935089698933325
 10
8.11781798240746
 20
-4.937596645595199
 10
7.957715256448282
 20
-5.000061399922944
 10
7.768611716427459
 20
-5.074168262612639
 10
7.516074830652946
 20
-5.267317107706049
 10
7.567296307748064
 20
-5.50450844756574
 10
7.555636377303623
 20
-5.515656763403399
 10
7.543822171415286
 20
-5.527374839846175
 10
7.531667278815752
 20
-5.53973864497454
 10
7.54019469565512
 20
-5.346361895639196
 10
7.53772573309584
 20
-5.14723056419315
 10
7.524279383157616
 20
-4.946883743456586
 10
7.522494133307064
 20
-4.920940643909161
 10
7.525931688870362
 20
-4.89532040870453
 10
7.53474515512034
 20
-4.868579644310052
 10
7.56936643789393
 20
-4.763192924406225
 10
7.611547713618165
 20
-4.657578300260107
 10
7.660282408421001
 20
-4.554204734493863
 10
7.700810206145838
 20
-4.553084205304016
 10
7.746106173098673
 20
-4.541271168760393
 10
7.746599965610534
 20
-4.541043264518445
 10
7.784166180550907
 20
-4.527463970099385
 10
7.818237863868894
 20
-4.505566170847323
 10
7.84788440659991
 20
-4.475824667266693
 10
7.898479147045363
 20
-4.425058997361512
 10
7.932303934107444
 20
-4.355396267390789
 10
7.945769276065321
 20
-4.274585221582217
 10
7.957563320290774
 20
-4.203707002320786
 10
7.953347091920326
 20
-4.132524910736771
 10
7.949320783746745
 20
-4.063583877532273
 10
7.942369704541407
 20
-3.946327145024207
 10
7.935856621037121
 20
-3.83545173129221
 10
8.009715406350551
 20
-3.741365263387176
 10
8.024510189686527
 20
-3.722620139482905
 10
8.063747702359326
 20
-3.672690118465198
 10
8.036589114207294
 20
-3.628799559860214
 10
8.000314356605637
 20
-3.569962281384353
 10
7.931620221398715
 20
-3.601242138598662
 10
7.909152662109287
 20
-3.611421861407949
 10
7.902448479159879
 20
-3.614498568674927
 10
7.895744296210473
 20
-3.618050076445987
 10
7.882962666961298
 20
-3.6248302276455
 10
7.727607945923814
 20
-3.714054738387757
 10
7.609116735098269
 20
-3.819270530110253
 10
7.520746867495896
 20
-3.946650009367001
 10
7.456838721250025
 20
-4.038932235356204
 10
7.422368205518599
 20
-4.133968304269413
 10
7.417791128774095
 20
-4.230219862473328
 10
7.388372490279354
 20
-4.11060811946451
 10
7.351964788539893
 20
-3.984634049700162
 10
7.307238582177635
 20
-3.846922911472663
 10
7.294798809282812
 20
-3.808691974877534
 10
7.285379930334001
 20
-3.776766388977649
 10
7.286233408404087
 20
-3.742827648940015
 10
7.289538019829579
 20
-3.605686271317634
 10
7.300173550854146
 20
-3.479294377109467
 10
7.318633793989648
 20
-3.357498551781582
 10
7.352458581051728
 20
-3.350319568158802
 10
7.385713607523207
 20
-3.335448816368385
 10
7.386037637216658
 20
-3.335277888186889
 10
7.413441956265842
 20
-3.321223793263572
 10
7.436460284126168
 20
-3.301737980572701
 10
7.45841505888403
 20
-3.274104591230487
 10
7.494861912770652
 20
-3.228276846568759
 10
7.520708883456513
 20
-3.168641903245846
 10
7.533243616449757
 20
-3.10156208801781
 10
7.557401465491289
 20
-2.971447757856911
 10
7.53926408669046
 20
-2.841504355877684
 10
7.521715460499914
 20
-2.715834158435756
 10
7.509731496077594
 20
-2.630009219303272
 10
7.498412252344299
 20
-2.548951277232732
 10
7.49941999761068
 20
-2.463525170523692
 10
7.49995060593892
 20
-2.43144764846252
 10
7.500786254805133
 20
-2.377700231391221
 10
7.455623231990077
 20
-2.36017059677748
 10
7.42390655911322
 20
-2.347730823568466
 10
7.387441881314695
 20
-2.359771764354036
 10
7.346874927263848
 20
-2.395571722367953
 10
7.138381694245304
 20
-2.57886370899487
 10
7.017040521364328
 20
-2.804317980391564
 10
7.013887846096319
 20
-3.014122827171011
 10
7.013280101466332
 20
-3.055411479013098
 10
7.017876170230541
 20
-3.095180769241728
 10
7.027296211995159
 20
-3.132120248465703
 10
6.976511551352814
 20
-3.02971527572783
 10
6.921112983540347
 20
-2.928772688542797
 10
6.861628824267781
 20
-2.830033175697054
 10
6.812249573082251
 20
-2.748006640597951
 10
6.796486196742282
 20
-2.666378937922306
 10
6.811926708747579
 20
-2.572957190723223
 10
6.82765210104819
 20
-2.477921121809838
 10
6.843966245959109
 20
-2.393957400653815
 10
6.861590840228397
 20
-2.317571495544017
 10
6.877183288391203
 20
-2.314836644640031
 10
6.892452872219337
 20
-2.310145615658914
 10
6.907323623634056
 20
-2.303593368701513
 10
7.016432776734341
 20
-2.25550557363988
 10
7.070692976979343
 20
-2.130500096903916
 10
7.056240049997743
 20
-1.960787404695894
 10
7.056240049997743
 20
-1.960787404695894
 10
7.054663712363738
 20
-1.942441113215068
 10
7.054663712363738
 20
-1.942441113215068
 10
7.044142133457272
 20
-1.821385976673784
 10
7.034247291200497
 20
-1.707016031230991
 10
7.101289120694673
 20
-1.607061029094552
 10
7.125124105401532
 20
-1.571583935423594
 10
7.121933446094165
 20
-1.530922020247064
 10
7.09329348040655
 20
-1.503611495247646
 10
7.066096908215159
 20
-1.477592427619584
 10
7.02507414569181
 20
-1.480574174785703
 10
6.991249358629728
 20
-1.511284271394894
 10
6.991249358629728
 20
-1.511284271394894
 10
6.966008964466052
 20
-1.534169655695539
 10
6.966008964466052
 20
-1.534169655695539
 10
6.794264130438933
 20
-1.689410428536601
 10
6.559066958638393
 20
-1.902102062381333
 10
6.637579968023348
 20
-2.16806631279327
 10
6.642821765456902
 20
-2.185842843669156
 10
6.650057724957555
 20
-2.202821709697989
 10
6.6591549023875
 20
-2.218661054516764
 10
6.642422933043488
 20
-2.284449412373634
 10
6.628445952774326
 20
-2.347085094882876
 10
6.616764714446693
 20
-2.40833435991975
 10
6.615549225186744
 20
-2.406720038205624
 10
6.614333735926796
 20
-2.405105716491486
 10
6.613156230706206
 20
-2.403491394777348
 10
6.578496939736421
 20
-2.357340785772648
 10
6.545715568798616
 20
-2.3137730915108
 10
6.53428237294722
 20
-2.261336123831054
 10
6.492310009439532
 20
-2.068984943584522
 10
6.459016998928695
 20
-1.907115955705409
 10
6.447090010565413
 20
-1.739359441574518
 10
6.498330479680235
 20
-1.699913015688682
 10
6.55900998257933
 20
-1.622007748965593
 10
6.559579743169934
 20
-1.620868227755725
 10
6.587175147774764
 20
-1.565107656546843
 10
6.603337356528173
 20
-1.499243330609324
 10
6.607629552977364
 20
-1.425136467919629
 10
6.619461581242224
 20
-1.22044047456494
 10
6.513714015626469
 20
-1.059862944056994
 10
6.411441989613397
 20
-0.9045272111150855
 10
6.355530622981556
 20
-0.8195948969305138
 10
6.29769878370957
 20
-0.731756803660283
 10
6.262183706895358
 20
-0.6396265138325437
 10
6.241254501200577
 20
-0.5853093361563044
 10
6.210621509111079
 20
-0.5591383323669434
 10
6.170509227867493
 20
-0.5641332336706455
 10
6.170509227867493
 20
-0.5641332336706455
 10
6.16889490619413
 20
-0.564304161852154
 10
6.16889490619413
 20
-0.564304161852154
 10
6.117560610295186
 20
-0.5718250018381038
 10
6.106866969897257
 20
-0.631308008999718
 10
6.10172013256215
 20
-0.6598340232898307
 10
6.10172013256215
 20
-0.6598340232898307
 10
6.082937025091976
 20
-0.7658474798592149
 10
6.082937025091976
 20
-0.7658474798592149
 10
6.063185324617759
 20
-0.8785841115676601
 10
6.042692935375777
 20
-0.9952141074101821
 10
6.016464956188378
 20
-1.108273603461422
 10
5.978366964696798
 20
-1.272155745478282
 10
5.963819077616765
 20
-1.500458819900018
 10
6.110817309992095
 20
-1.657237946374569
 10
6.140482844742766
 20
-1.688764699851024
 10
6.179264548943087
 20
-1.726501843921862
 10
6.225946933333084
 20
-1.750982557916447
 10
6.23010618564447
 20
-1.801653267720768
 10
6.237095248889191
 20
-1.852001113182117
 10
6.244122296173272
 20
-1.901057501272299
 10
6.144205280601353
 20
-1.773374149692801
 10
6.057316790534565
 20
-1.676078030379687
 10
5.967541513475364
 20
-1.590974788013619
 10
5.860825354855605
 20
-1.489956232747937
 10
5.773253152080062
 20
-1.367932503178104
 10
5.692043275899588
 20
-1.207184044488675
 10
5.641562487572249
 20
-1.107210050332191
 10
5.586219742205103
 20
-1.008052713042806
 10
5.532719222747573
 20
-0.9121240191816847
 10
5.532719222747573
 20
-0.9121240191816847
 10
5.50531373833961
 20
-0.8629156949302038
 10
5.50531373833961
 20
-0.8629156949302038
 10
5.529034770928344
 20
-0.8347885130637122
 10
5.547627958201651
 20
-0.7993873874732268
 10
5.547855862437902
 20
-0.7987416587876497
 10
5.562403749517949
 20
-0.7631126289552286
 10
5.567341674636483
 20
-0.725204556702882
 10
5.563429318581029
 20
-0.6793768120411414
 10
5.549033367658479
 20
-0.5092652874096757
 10
5.443247818003366
 20
-0.372617702311585
 10
5.345230004400137
 20
-0.2577729563647103
 10
5.253137700939154
 20
-0.1500502179801641
 10
5.161083381517553
 20
-0.0477402053431383
 10
5.047663039948374
 20
0.0191876737236119
 10
5.011825098799502
 20
0.0403447841890612
 10
4.973879043465407
 20
0.0411614410563112
 10
4.946322726626249
 20
0.0190167455421033
 10
4.935497275131373
 20
0.0089889588941156
 10
4.903494618506366
 20
-0.0286722170960856
 10
4.947119287726789
 20
-0.0910610033430051
 10
5.021890869233478
 20
-0.1984608773845922
 10
5.050778837542111
 20
-0.332601515820809
 10
5.071991817167069
 20
-0.4499532084295575
 10
5.076511917852523
 20
-0.4748327548477517
 10
5.080234353711123
 20
-0.5010227506573225
 10
5.084070741687835
 20
-0.5277825070719978
 10
5.099264357437227
 20
-0.6337959636415588
 10
5.11650911131278
 20
-0.7539014991744908
 10
5.186817568193078
 20
-0.8423853211302987
 10
5.217850528361193
 20
-0.8815088826733523
 10
5.250668738379873
 20
-0.9073570221199184
 10
5.28663962366655
 20
-0.9210122846196276
 10
5.287969065044623
 20
-0.9235192312816656
 10
5.289336490462069
 20
-0.9260261779435394
 10
5.290798875977948
 20
-0.9287040527870734
 10
5.290798875977948
 20
-0.9287040527870734
 10
5.3179384721103
 20
-0.9789569381477525
 10
5.3179384721103
 20
-0.9789569381477525
 10
5.324813583236897
 20
-0.9916436076189004
 10
5.331688694363493
 20
-1.00434926911027
 10
5.338563805490089
 20
-1.017035938581595
 10
5.177606438645006
 20
-0.8920114698254211
 10
4.978854952623325
 20
-0.74653259534984
 10
4.761852135682703
 20
-0.621356190432367
 10
4.761586247407093
 20
-0.612790789337219
 10
4.761340450204367
 20
-0.602041305922992
 10
4.761054470855862
 20
-0.5904941576618891
 10
4.759193252926555
 20
-0.520090738904552
 10
4.757825827509123
 20
-0.4942425994579859
 10
4.753248750764619
 20
-0.47994160827251
 10
4.735605164475626
 20
-0.4240101088821322
 10
4.701647433275753
 20
-0.366388319696979
 10
4.649533331255346
 20
-0.3036766691070877
 10
4.569956768767926
 20
-0.208146807669588
 10
4.460334831136101
 20
-0.1292729479181137
 10
4.332500634844538
 20
-0.0758673872098194
 10
4.163471655362502
 20
-0.0051411041096748
 10
3.98143206271541
 20
0.0144016846416359
 10
3.80537604021937
 20
0.0333177367274023
 10
3.605086200603068
 20
0.0548926716366698
 10
3.415849716444452
 20
0.0751761491744295
 10
3.243630081925137
 20
0.1643246918360243
 10
3.214496323725686
 20
0.1792714117070773
 10
3.173245656966098
 20
0.1864693873502321
 10
3.144586699258816
 20
0.1618177451741632
 10
3.127171017206087
 20
0.1467000971216142
 10
3.111293688747967
 20
0.1170535536416537
 10
3.134615888923286
 20
0.0612739904125748
 10
3.153531940531265
 20
0.016110966456621
 10
3.179057214990242
 20
-0.0239811881149687
 10
3.203746840582994
 20
-0.0627628932948407
 10
3.212312241461707
 20
-0.076266219633251
 10
3.220877642340433
 20
-0.0896745858708149
 10
3.229215138982909
 20
-0.1034248084713706
 10
3.492615460018227
 20
-0.5375633974576759
 10
3.83737866910355
 20
-0.974835669771576
 10
4.393179049523812
 20
-0.9335470179294891
 10
4.521242238271459
 20
-0.9238420956244605
 10
4.619430980051876
 20
-0.8859530153923236
 10
4.685257320286104
 20
-0.821133250564003
 10
4.763067624942651
 20
-0.8602568121070437
 10
5.033513985281754
 20
-1.058400558504154
 10
5.144560324390087
 20
-1.144225497636638
 10
5.27450483510361
 20
-1.244674292297367
 10
5.407485844933237
 20
-1.356689227239422
 10
5.55877627375777
 20
-1.493184876176214
 10
5.447046221940708
 20
-1.468704162181641
 10
5.331403814068178
 20
-1.45520083584323
 10
5.208487462655638
 20
-1.452295056757748
 10
5.205847571919182
 20
-1.436949504463074
 10
5.201650335568413
 20
-1.418280348639466
 10
5.195439945130854
 20
-1.395489924439668
 10
5.159260147627618
 20
-1.263020583778194
 10
5.011407274366396
 20
-1.18868581684655
 10
4.885148327488978
 20
-1.163293485883868
 10
4.766581148584692
 20
-1.139382532494223
 10
4.648925586625384
 20
-1.152145170046197
 10
4.534973468504973
 20
-1.164357039013263
 10
4.422027927427962
 20
-1.176473947879483
 10
4.315407816694649
 20
-1.187945128059937
 10
4.209089402700291
 20
-1.166370193150846
 10
4.174087110417632
 20
-1.159419113769837
 10
4.13025352898065
 20
-1.170985254051313
 10
4.113654503774443
 20
-1.206785212065231
 10
4.105810799643828
 20
-1.223840046174713
 10
4.098139105989692
 20
-1.258899315402017
 10
4.136425935378838
 20
-1.303929395216869
 10
4.176689017114717
 20
-1.346585472510949
 10
4.214331200133832
 20
-1.391444624144141
 10
4.252087335271059
 20
-1.436303775777497
 10
4.31333659876077
 20
-1.509271117257312
 10
4.376731960475101
 20
-1.584669437318363
 10
4.450876805332111
 20
-1.650210898912911
 10
4.566120380791213
 20
-1.751951150944996
 10
4.673045451627533
 20
-1.81475776163557
 10
4.777748456160503
 20
-1.842144254715802
 10
4.914244101649059
 20
-1.877944212729542
 10
5.047017311279029
 20
-1.838516778863916
 10
5.124277955586459
 20
-1.739359441574518
 10
5.142300274047367
 20
-1.716151192931079
 10
5.157246993540828
 20
-1.693531696912777
 10
5.169534830278153
 20
-1.670741272712992
 10
5.312981554972061
 20
-1.671861801902828
 10
5.44309588184587
 20
-1.688194939245907
 10
5.566449049711208
 20
-1.72059532565005
 10
5.61085351225251
 20
-1.732313402092826
 10
5.649862000175353
 20
-1.744677207221192
 10
5.685016228615495
 20
-1.758351461741098
 10
5.641657447670682
 20
-1.766271134150492
 10
5.598203706627436
 20
-1.777324489887481
 10
5.555129805977913
 20
-1.791473544911481
 10
5.555129805977913
 20
-1.791473544911481
 10
5.516063221482303
 20
-1.804236182463278
 10
5.516063221482303
 20
-1.804236182463278
 10
5.513366354686796
 20
-1.802792788930649
 10
5.510403599615655
 20
-1.801254435297147
 10
5.507326892426414
 20
-1.799564145502371
 10
5.481725649888681
 20
-1.785908883002662
 10
5.471166086942857
 20
-1.780477165235109
 10
5.461916973355427
 20
-1.778464011097362
 10
5.425832135950637
 20
-1.770145506264523
 10
5.392463157361034
 20
-1.77288035716851
 10
5.367355707335175
 20
-1.776355896858932
 10
5.283391988300119
 20
-1.78759917279745
 10
5.210899449155855
 20
-1.822677434045128
 10
5.140837888531488
 20
-1.856616174082584
 10
5.081070002577335
 20
-1.885541020796141
 10
5.024625720068368
 20
-1.912851545795724
 10
4.962882664066783
 20
-1.925310311024936
 10
4.929475701437822
 20
-1.932166430304935
 10
4.904045387077278
 20
-1.957235896924822
 10
4.899525286391836
 20
-1.988667690300417
 10
4.895935794671055
 20
-2.019301818828959
 10
4.914927814357775
 20
-2.049594090994497
 10
4.948981609449573
 20
-2.067693486213178
 10
4.948981609449573
 20
-2.067693486213178
 10
4.967649661008156
 20
-2.077645304780529
 10
4.967649661008156
 20
-2.077645304780529
 10
5.068554261603771
 20
-2.131544658013114
 10
5.182867228098226
 20
-2.192566018808053
 10
5.307075036849483
 20
-2.201359324145137
 10
5.393108886030379
 20
-2.207436770598457
 10
5.477642365656038
 20
-2.181246774788886
 10
5.533478903535044
 20
-2.131297761750969
 10
5.570133501530436
 20
-2.098574511004029
 10
5.593284773528567
 20
-2.056868034718301
 10
5.601318397856049
 20
-2.009596896523931
 10
5.69010608989154
 20
-1.97913369617672
 10
5.783565818769956
 20
-1.963370319438582
 10
5.886274661235827
 20
-1.961262205200152
 10
5.978974709326772
 20
-1.95900215480026
 10
6.034089550457692
 20
-1.988591722219768
 10
6.098453505176015
 20
-2.072954275799412
 10
6.339614171158195
 20
-2.388943507329739
 10
6.538043936781782
 20
-2.689815090807681
 10
6.70198190678108
 20
-2.988255695704235
 10
6.651140270079698
 20
-2.943643440333201
 10
6.59874128776399
 20
-2.899524977486281
 10
6.54374154283169
 20
-2.858958022410598
 10
6.484067472895478
 20
-2.814839559563855
 10
6.423729826350735
 20
-2.77531716559737
 10
6.364018916455633
 20
-2.741131529297591
 10
6.364456872459741
 20
-2.725292184478803
 10
6.363563107983155
 20
-2.709452839659851
 10
6.361265073601063
 20
-2.693765431002362
 10
6.348654372529078
 20
-2.607066858942188
 10
6.304175062422726
 20
-2.533928589281042
 10
6.229061624561685
 20
-2.476458736257175
 10
6.139476267699365
 20
-2.407764599314823
 10
6.03581782424918
 20
-2.376009941596433
 10
5.93242526907458
 20
-2.344407220039342
 10
5.865269487462304
 20
-2.323724910077974
 10
5.810382550567637
 20
-2.304808857992207
 10
5.7664730010519
 20
-2.265210495944908
 10
5.736446617927172
 20
-2.23797593902614
 10
5.7010454932311
 20
-2.230303162878903
 10
5.673981865177514
 20
-2.245572747092738
 10
5.643917498013403
 20
-2.262551613121748
 10
5.629616507189287
 20
-2.298256611034642
 10
5.636682659679056
 20
-2.338918526211172
 10
5.666954817893409
 20
-2.512106758109616
 10
5.712687601299067
 20
-2.708636182792765
 10
5.873796904301646
 20
-2.849575964448364
 10
5.982412264890071
 20
-2.944631025381783
 10
6.138868523069403
 20
-3.003620240018942
 10
6.256125252615296
 20
-2.933881541967556
 10
6.343032734701788
 20
-2.983982491166772
 10
6.42866775146927
 20
-3.043693402570322
 10
6.515290353260474
 20
-3.114818518093898
 10
6.481845406592129
 20
-3.112957300117614
 10
6.446083433522012
 20
-3.110773217798535
 10
6.403978125876518
 20
-3.106500013261072
 10
6.403085500951242
 20
-3.106253116998927
 10
6.313462160049539
 20
-3.097687715903766
 10
6.290994600760136
 20
-3.147788665102982
 10
6.27268629378212
 20
-3.188754452602274
 10
6.305713416017372
 20
-3.235474822211737
 10
6.330915826141664
 20
-3.25535946732623
 10
6.40301067339783
 20
-3.312088631563483
 10
6.499621937018926
 20
-3.384182340115608
 10
6.60799040135142
 20
-3.438404557691001
 10
6.69926604796587
 20
-3.483985406090583
 10
6.816617737610208
 20
-3.533117762261415
 10
6.927018348049184
 20
-3.517525313704785
 10
6.945269678968138
 20
-3.541189370832108
 10
6.979740194699565
 20
-3.599058056279584
 10
6.994212113700869
 20
-3.626615477541147
 10
7.050941276505151
 20
-3.735154872792767
 10
7.086627281496526
 20
-3.860179341548941
 10
7.121078805208248
 20
-3.980987581828079
 10
7.12924537367356
 20
-4.009513596118179
 10
7.137373958099462
 20
-4.037963642327642
 10
7.145654478682874
 20
-4.065919896012815
 10
7.193856224647813
 20
-4.228358644497044
 10
7.226028705997148
 20
-4.358321038496468
 10
7.248135416912494
 20
-4.482130017961948
 10
7.083835454602548
 20
-4.338683289644311
 10
6.893384634097274
 20
-4.233220601659657
 10
6.668479984053672
 20
-4.161126893107532
 10
6.671195842868883
 20
-4.133968304269413
 10
6.670170273805802
 20
-4.106904675532152
 10
6.669733457353004
 20
-4.09801641009421
 10
6.655584402686397
 20
-3.817181407892033
 10
6.340337006848358
 20
-3.711870656068678
 10
6.050004862955171
 20
-3.706951722845449
 10
6.050004862955171
 20
-3.706951722845449
 10
6.002372877580834
 20
-3.706628858502654
 10
6.002372877580834
 20
-3.706628858502654
 10
5.901753157280508
 20
-3.706533898401807
 10
5.80675507480747
 20
-3.706457930321158
 10
5.728488961678433
 20
-3.642948614884391
 10
5.694911070872295
 20
-3.615619097864775
 10
5.649615103919422
 20
-3.616511722812497
 10
5.623026276357993
 20
-3.645360601445582
 10
5.59934322780863
 20
-3.671151764831709
 10
5.604965986000908
 20
-3.710579198697335
 10
5.620994130251524
 20
-3.738060651878249
 10
5.629806427386155
 20
-3.753254268011447
 10
5.638903604816101
 20
-3.768371916063996
 10
5.647962798206676
 20
-3.783394604015699
 10
5.659547930215593
 20
-3.802633520444424
 10
5.671152054244177
 20
-3.821948404953799
 10
5.682129441623121
 20
-3.84151018572532
 10
5.81645999686739
 20
-4.080467783460259
 10
5.969022891010935
 20
-4.253086254753763
 10
6.135677863762035
 20
-4.354522634463087
 10
6.255042707493152
 20
-4.427243079680768
 10
6.435770766832118
 20
-4.469196452228466
 10
6.565638197450021
 20
-4.358966767182058
 10
6.749499940037291
 20
-4.411498694962662
 10
6.914312686878778
 20
-4.495462416118863
 10
7.058538084379834
 20
-4.610705994489181
 10
6.974042588793559
 20
-4.622101206589162
 10
6.903620179795123
 20
-4.655071353598246
 10
6.848505338664229
 20
-4.708799778649172
 10
6.840699618572974
 20
-4.706216863906648
 10
6.832665994245493
 20
-4.703804877345457
 10
6.824328497603018
 20
-4.70169676310704
 10
6.641891156492242
 20
-4.655394217941041
 10
6.444336167710844
 20
-4.75867282360644
 10
6.365462309951832
 20
-4.941717913971375
 10
6.335283990669596
 20
-5.011703508284894
 10
6.322844217774799
 20
-5.087348724608268
 10
6.311809854336793
 20
-5.154181643574159
 10
6.303073525280903
 20
-5.207435268121003
 10
6.292134121941343
 20
-5.257935049743815
 10
6.254303155493972
 20
-5.290924188773109
 10
6.219318718462394
 20
-5.321387389120142
 10
6.226231813628374
 20
-5.351356796942897
 10
6.230827882392557
 20
-5.362846969143561
 10
6.235727823471734
 20
-5.375039846090595
 10
6.253865202272562
 20
-5.402027506747218
 10
6.305581609943651
 20
-5.400831009476721
 10
6.305581609943651
 20
-5.400831009476721
 10
6.355358555478485
 20
-5.398798863318764
 10
6.355358555478485
 20
-5.398798863318764
 10
6.512878366760257
 20
-5.392664440805017
 10
6.691384359795872
 20
-5.385789329504822
 10
6.837584927344373
 20
-5.296659778863424
 10
6.938812392274662
 20
-5.234916721302081
 10
7.01840794678176
 20
-5.127839711603125
 10
7.040343729519943
 20
-5.02389638523194
 10
7.053372255025048
 20
-4.962400223932743
 10
7.046421175819685
 20
-4.90333504121477
 10
7.020441249011228
 20
-4.850879081514992
 10
7.086570305437463
 20
-4.808849740886469
 10
7.182593956973581
 20
-4.824689085705245
 10
7.236360364706721
 20
-4.853215099995357
 10
7.273225037427538
 20
-4.872700912686228
 10
7.293944168396895
 20
-4.901720719500632
 10
7.299641774302927
 20
-4.941964810233521
 10
7.356010088733152
 20
-5.336827901515486
 10
7.320532995958324
 20
-5.815160921429361
 10
7.199838710849134
 20
-6.292050547810403
 10
7.188557451155222
 20
-6.275812370568019
 10
7.176288606437588
 20
-6.260295890092038
 10
7.163071320461616
 20
-6.245501106382259
 10
7.178415712642491
 20
-6.204763223125105
 10
7.186069496576263
 20
-6.153370816554545
 10
7.186145464655005
 20
-6.152649119788293
 10
7.200693351735026
 20
-5.994008775337306
 10
7.100244559611887
 20
-5.857835990743474
 10
6.895605547487321
 20
-5.758678653454075
 10
6.874277509379125
 20
-5.748328002463293
 10
6.851809950089723
 20
-5.738547112077614
 10
6.829019526465648
 20
-5.728690253611123
 10
6.755596378356737
 20
-5.696764667711236
 10
6.679724407224007
 20
-5.663794520702153
 10
6.635357901719999
 20
-5.605697931012906
 10
6.59950096855146
 20
-5.558977561403266
 10
6.568885832816451
 20
-5.559148489584762
 10
6.549439148881598
 20
-5.56754296249825
 10
6.521728647934272
 20
-5.579659871364634
 10
6.506611000263647
 20
-5.605128170407801
 10
6.504502886078424
 20
-5.64326414690226
 10
6.504502886078424
 20
-5.64326414690226
 10
6.502166867656948
 20
-5.684153966320726
 10
6.502166867656948
 20
-5.684153966320726
 10
6.499583952979542
 20
-5.726506171292044
 10
6.49703902234152
 20
-5.768782408182712
 10
6.497475838794318
 20
-5.811039653053184
 10
6.499697905097668
 20
-6.032467616174547
 10
6.564517668288494
 20
-6.202826037068158
 10
6.695677704163851
 20
-6.331971774200509
 10
6.784578200398679
 20
-6.419411035047132
 10
6.909925530331141
 20
-6.447690153075099
 10
7.012026628167026
 20
-6.406648397495145
 10
7.018009114368346
 20
-6.41496690232816
 10
7.023345871900321
 20
-6.423456335342658
 10
7.027979924703888
 20
-6.432173672598916
 10
7.027979924703888
 20
-6.432173672598916
 10
7.036545325582589
 20
-6.448013017417881
 10
7.036545325582589
 20
-6.448013017417881
 10
7.077966920519353
 20
-6.524721786870487
 10
7.11712846511341
 20
-6.597214327846055
 10
7.093882233016857
 20
-6.676562988101775
 10
6.973928636675433
 20
-7.086467759355653
 10
6.801822954274232
 20
-7.463858192084293
 10
6.582408150833392
 20
-7.798193715095648
 10
6.56147894513861
 20
-7.830043332914859
 10
6.535385053958457
 20
-7.869793631123482
 10
6.532916091336826
 20
-7.917387633660635
 10
6.531262641817015
 20
-7.95020584450842
 10
6.54377838279058
 20
-7.983745752122458
 10
6.566492838335913
 20
-8.007181905008009
 10
6.585010057530477
 20
-8.026173925174387
 10
6.608712098099507
 20
-8.036600544245832
 10
6.633496683790705
 20
-8.036600544245832
 10
6.634143558824235
 20
-8.036600544245832
 10
6.634826125168779
 20
-8.036600544245832
 10
6.635473000235985
 20
-8.036600544245832
 10
6.692599849055821
 20
-8.035385054955315
 10
6.726424636117902
 20
-7.98342288777965
 10
6.740858571079823
 20
-7.961202224184793
 10
6.941471275030785
 20
-7.652961736882363
 10
7.111962635758623
 20
-7.297298175224063
 10
7.24747069622347
 20
-6.904220333837757
 10
7.325053096643791
 20
-6.679316831025769
 10
7.394563888697221
 20
-6.432591497042747
 10
7.459934420458971
 20
-6.150066205045631
 10
7.472146289117543
 20
-6.097211412922231
 10
7.485763567232929
 20
-6.063272672884573
 10
7.519227505920955
 20
-6.046046910593607
 10
7.541410184915068
 20
-6.03465169849379
 10
7.561883582137347
 20
-6.028593244060529
 10
7.581046530001281
 20
-6.027947515374939
 10
7.560022364208053
 20
-6.100838888773928
 10
7.567068403511838
 20
-6.179959644787737
 10
7.602013719735421
 20
-6.247685188701527
 10
7.643473298711569
 20
-6.327926473904982
 10
7.713174010961893
 20
-6.386934680562338
 10
7.762021485596177
 20
-6.424254000189547
 10
7.762021485596177
 20
-6.424254000189547
 10
7.781298385578212
 20
-6.438725919556519
 10
7.781298385578212
 20
-6.438725919556519
 10
7.826272664676303
 20
-6.47243675535204
 10
7.86883260431437
 20
-6.504191413070404
 10
7.882848714843172
 20
-6.552602072474833
 10
7.893845094241795
 20
-6.590491152707146
 10
7.918895568208604
 20
-6.613851337511884
 10
7.949795584238927
 20
-6.614990858721941
 10
7.980999472584219
 20
-6.615389691145386
 10
8.008993709602464
 20
-6.593643828054761
 10
8.023332684465963
 20
-6.555014059036036
 10
8.066216664918606
 20
-6.438896847738002
 10
8.118064878663391
 20
-6.265290791395905
 10
8.07303479998614
 20
-6.098901702717007
 10
8.04919981527928
 20
-6.010645785003311
 10
7.983373475045052
 20
-5.90203042167103
 10
7.890198626461925
 20
-5.858234823166905
 10
7.841712000201722
 20
-5.835444398967107
 10
7.790509515126258
 20
-5.832367691700129
 10
7.74097832778327
 20
-5.849023693386167
 10
7.693783158861732
 20
-5.820972479600325
 10
7.641536112703534
 20
-5.807564113362761
 10
7.584560053643322
 20
-5.808133873967702
 10
7.619429401788162
 20
-5.765857637077033
 10
7.657014608748214
 20
-5.724720921396409
 10
7.6984172116653
 20
-5.683432269554323
 10
7.727399033707266
 20
-5.698549917606871
 10
7.759286634761287
 20
-5.708159879811218
 10
7.759723451214086
 20
-5.708235847891867
 10
8.020635817670431
 20
-5.770719594239646
 10
8.196047297318323
 20
-5.511383558865924
 10
8.312220295920875
 20
-5.339980576863113
 10
8.312220295920875
 20
-5.339980576863113
 10
8.322400018472965
 20
-5.325014864972028
 10
8.322400018472965
 20
-5.325014864972028
 10
8.387979462451261
 20
-5.228364474344503
 10
8.454375563276091
 20
-5.175908514644726
 10
8.53765556960242
 20
-5.154903340340562
 10
8.60133700767172
 20
-5.138912059360311
 10
8.614345345097439
 20
-5.10440355871775
 10
8.614061661183289
 20
-5.077966666645858
 10
8.613281791994975
 20
-5.038767137022344
 10
8.583426337047436
 20
-5.005569085771147
 10
8.53801641797645
 20
-4.993186288622572
 97
        0
 97
        0
 75
     2
 76
     1
 98
        0
  0
ENDSEC
  0
SECTION
  2
OBJECTS
  0
DICTIONARY
  5
C
330
0
100
AcDbDictionary
281
     1
  3
ACAD_GROUP
350
D
  3
ACAD_LAYOUT
350
1A
  3
ACAD_MATERIAL
350
3B
  3
ACAD_MLEADERSTYLE
350
47
  3
ACAD_MLINESTYLE
350
17
  3
ACAD_PLOTSETTINGS
350
19
  3
ACAD_PLOTSTYLENAME
350
E
  3
ACAD_TABLESTYLE
350
46
  3
ACAD_VISUALSTYLE
350
2A
  0
SUN
  5
3F
330
29
100
AcDbSun
 90
        1
290
     0
 63
     7
421
 16777215
 40
1.0
291
     1
 91
  2455826
 92
 54000000
292
     0
 70
     2
 71
   256
280
     1
  0
DICTIONARY
  5
D
102
{ACAD_REACTORS
330
C
102
}
330
C
100
AcDbDictionary
281
     1
  0
DICTIONARY
  5
1A
102
{ACAD_REACTORS
330
C
102
}
330
C
100
AcDbDictionary
281
     1
  3
Layout1
350
1E
  3
Layout2
350
26
  3
Model
350
22
  0
DICTIONARY
  5
3B
102
{ACAD_REACTORS
330
C
102
}
330
C
100
AcDbDictionary
281
     1
  3
ByBlock
350
3D
  3
ByLayer
350
3C
  3
Global
350
3E
  0
DICTIONARY
  5
47
102
{ACAD_REACTORS
330
C
102
}
330
C
100
AcDbDictionary
281
     1
  0
DICTIONARY
  5
17
102
{ACAD_REACTORS
330
C
102
}
330
C
100
AcDbDictionary
281
     1
  3
Standard
350
18
  0
DICTIONARY
  5
19
102
{ACAD_REACTORS
330
C
102
}
330
C
100
AcDbDictionary
281
     1
  0
ACDBDICTIONARYWDFLT
  5
E
102
{ACAD_REACTORS
330
C
102
}
330
C
100
AcDbDictionary
281
     1
  3
Normal
350
F
100
AcDbDictionaryWithDefault
340
F
  0
DICTIONARY
  5
46
102
{ACAD_REACTORS
330
C
102
}
330
C
100
AcDbDictionary
281
     1
  0
DICTIONARY
  5
2A
102
{ACAD_REACTORS
330
C
102
}
330
C
100
AcDbDictionary
281
     1
  3
2dWireframe
350
2F
  3
3D Hidden
350
31
  3
3dWireframe
350
30
  3
Basic
350
32
  3
Brighten
350
36
  3
ColorChange
350
3A
  3
Conceptual
350
34
  3
Dim
350
35
  3
Facepattern
350
39
  3
Flat
350
2B
  3
FlatWithEdges
350
2C
  3
Gouraud
350
2D
  3
GouraudWithEdges
350
2E
  3
Linepattern
350
38
  3
Realistic
350
33
  3
Thicken
350
37
  0
LAYOUT
  5
1E
102
{ACAD_REACTORS
330
1A
102
}
330
1A
100
AcDbPlotSettings
  1

  2
none_device
  4

  6

 40
0.0
 41
0.0
 42
0.0
 43
0.0
 44
0.0
 45
0.0
 46
0.0
 47
0.0
 48
0.0
 49
0.0
140
0.0
141
0.0
142
1.0
143
1.0
 70
   688
 72
     0
 73
     0
 74
     5
  7

 75
    16
 76
     0
 77
     2
 78
   300
147
1.0
148
0.0
149
0.0
100
AcDbLayout
  1
Layout1
 70
     1
 71
     1
 10
0.0
 20
0.0
 11
12.0
 21
9.0
 12
0.0
 22
0.0
 32
0.0
 14
1.000000000000000E+20
 24
1.000000000000000E+20
 34
1.000000000000000E+20
 15
-1.000000000000000E+20
 25
-1.000000000000000E+20
 35
-1.000000000000000E+20
146
0.0
 13
0.0
 23
0.0
 33
0.0
 16
1.0
 26
0.0
 36
0.0
 17
0.0
 27
1.0
 37
0.0
 76
     0
330
1B
  0
LAYOUT
  5
26
102
{ACAD_REACTORS
330
1A
102
}
330
1A
100
AcDbPlotSettings
  1

  2
none_device
  4

  6

 40
0.0
 41
0.0
 42
0.0
 43
0.0
 44
0.0
 45
0.0
 46
0.0
 47
0.0
 48
0.0
 49
0.0
140
0.0
141
0.0
142
1.0
143
1.0
 70
   688
 72
     0
 73
     0
 74
     5
  7

 75
    16
 76
     0
 77
     2
 78
   300
147
1.0
148
0.0
149
0.0
100
AcDbLayout
  1
Layout2
 70
     1
 71
     2
 10
0.0
 20
0.0
 11
0.0
 21
0.0
 12
0.0
 22
0.0
 32
0.0
 14
0.0
 24
0.0
 34
0.0
 15
0.0
 25
0.0
 35
0.0
146
0.0
 13
0.0
 23
0.0
 33
0.0
 16
1.0
 26
0.0
 36
0.0
 17
0.0
 27
1.0
 37
0.0
 76
     0
330
23
  0
LAYOUT
  5
22
102
{ACAD_REACTORS
330
1A
102
}
330
1A
100
AcDbPlotSettings
  1

  2
none_device
  4

  6

 40
0.0
 41
0.0
 42
0.0
 43
0.0
 44
0.0
 45
0.0
 46
0.0
 47
0.0
 48
0.0
 49
0.0
140
0.0
141
0.0
142
1.0
143
1.0
 70
  1712
 72
     0
 73
     0
 74
     0
  7

 75
     0
 76
     0
 77
     2
 78
   300
147
1.0
148
0.0
149
0.0
100
AcDbLayout
  1
Model
 70
     1
 71
     0
 10
0.0
 20
0.0
 11
12.0
 21
9.0
 12
0.0
 22
0.0
 32
0.0
 14
1.000000000000000E+20
 24
1.000000000000000E+20
 34
1.000000000000000E+20
 15
-1.000000000000000E+20
 25
-1.000000000000000E+20
 35
-1.000000000000000E+20
146
0.0
 13
0.0
 23
0.0
 33
0.0
 16
1.0
 26
0.0
 36
0.0
 17
0.0
 27
1.0
 37
0.0
 76
     0
330
1F
331
29
  0
MATERIAL
  5
3D
102
{ACAD_REACTORS
330
3B
102
}
330
3B
100
AcDbMaterial
  1
ByBlock
 72
     1
 94
      127
  0
MATERIAL
  5
3C
102
{ACAD_REACTORS
330
3B
102
}
330
3B
100
AcDbMaterial
  1
ByLayer
 72
     1
 94
      127
  0
MATERIAL
  5
3E
102
{ACAD_REACTORS
330
3B
102
}
330
3B
100
AcDbMaterial
  1
Global
 72
     1
 94
      127
  0
MLINESTYLE
  5
18
102
{ACAD_REACTORS
330
17
102
}
330
17
100
AcDbMlineStyle
  2
Standard
 70
     0
  3

 62
   256
 51
90.0
 52
90.0
 71
     2
 49
0.5
 62
   256
  6
BYLAYER
 49
-0.5
 62
   256
  6
BYLAYER
  0
ACDBPLACEHOLDER
  5
F
102
{ACAD_REACTORS
330
E
102
}
330
E
  0
VISUALSTYLE
  5
2F
102
{ACAD_REACTORS
330
2A
102
}
330
2A
100
AcDbVisualStyle
  2
2dWireframe
 70
     4
177
     2
291
     0
 71
     0
176
     1
 72
     2
176
     1
 73
     0
176
     1
 90
        0
176
     1
 40
-0.6
176
     1
 41
-30.0
176
     1
 62
     5
 63
     7
421
 16777215
176
     1
 74
     1
176
     1
 91
        4
176
     1
 64
     7
176
     1
 65
   257
176
     1
 75
     1
176
     1
175
     1
176
     1
 42
1.0
176
     1
 92
        0
176
     1
 66
   257
176
     1
 43
1.0
176
     1
 76
     1
176
     1
 77
     6
176
     1
 78
     2
176
     1
 67
     7
176
     1
 79
     5
176
     1
170
     0
176
     1
171
     0
176
     1
290
     0
176
     1
 93
        1
176
     1
 44
0.0
176
     1
173
     0
176
     1
  0
VISUALSTYLE
  5
31
102
{ACAD_REACTORS
330
2A
102
}
330
2A
100
AcDbVisualStyle
  2
3D Hidden
 70
     6
177
     2
291
     0
 71
     1
176
     1
 72
     2
176
     1
 73
     2
176
     1
 90
        0
176
     1
 40
-0.6
176
     1
 41
-30.0
176
     1
 62
     5
 63
     7
421
 16777215
176
     1
 74
     2
176
     1
 91
        2
176
     1
 64
     7
176
     1
 65
   257
176
     1
 75
     2
176
     1
175
     1
176
     1
 42
40.0
176
     1
 92
        0
176
     1
 66
   257
176
     1
 43
1.0
176
     1
 76
     1
176
     1
 77
     6
176
     1
 78
     2
176
     1
 67
     7
176
     1
 79
     3
176
     1
170
     0
176
     1
171
     0
176
     1
290
     0
176
     1
 93
        1
176
     1
 44
0.0
176
     1
173
     0
176
     1
  0
VISUALSTYLE
  5
30
102
{ACAD_REACTORS
330
2A
102
}
330
2A
100
AcDbVisualStyle
  2
3dWireframe
 70
     5
177
     2
291
     0
 71
     0
176
     1
 72
     2
176
     1
 73
     0
176
     1
 90
        0
176
     1
 40
-0.6
176
     1
 41
-30.0
176
     1
 62
     5
 63
     7
421
 16777215
176
     1
 74
     1
176
     1
 91
        4
176
     1
 64
     7
176
     1
 65
   257
176
     1
 75
     1
176
     1
175
     1
176
     1
 42
1.0
176
     1
 92
        0
176
     1
 66
   257
176
     1
 43
1.0
176
     1
 76
     1
176
     1
 77
     6
176
     1
 78
     2
176
     1
 67
     7
176
     1
 79
     5
176
     1
170
     0
176
     1
171
     0
176
     1
290
     0
176
     1
 93
        1
176
     1
 44
0.0
176
     1
173
     0
176
     1
  0
VISUALSTYLE
  5
32
102
{ACAD_REACTORS
330
2A
102
}
330
2A
100
AcDbVisualStyle
  2
Basic
 70
     7
177
     2
291
     1
 71
     1
176
     1
 72
     0
176
     1
 73
     1
176
     1
 90
        0
176
     1
 40
-0.6
176
     1
 41
-30.0
176
     1
 62
     5
 63
     7
421
 16777215
176
     1
 74
     0
176
     1
 91
        4
176
     1
 64
     7
176
     1
 65
   257
176
     1
 75
     1
176
     1
175
     1
176
     1
 42
1.0
176
     1
 92
        8
176
     1
 66
     7
176
     1
 43
1.0
176
     1
 76
     1
176
     1
 77
     6
176
     1
 78
     2
176
     1
 67
     7
176
     1
 79
     5
176
     1
170
     0
176
     1
171
     0
176
     1
290
     0
176
     1
 93
        1
176
     1
 44
0.0
176
     1
173
     0
176
     1
  0
VISUALSTYLE
  5
36
102
{ACAD_REACTORS
330
2A
102
}
330
2A
100
AcDbVisualStyle
  2
Brighten
 70
    12
177
     2
291
     1
 71
     2
176
     1
 72
     2
176
     1
 73
     0
176
     1
 90
        0
176
     1
 40
-0.6
176
     1
 41
-30.0
176
     1
 62
     5
 63
     7
421
 16777215
176
     1
 74
     1
176
     1
 91
        4
176
     1
 64
     7
176
     1
 65
   257
176
     1
 75
     1
176
     1
175
     1
176
     1
 42
1.0
176
     1
 92
        8
176
     1
 66
     7
176
     1
 43
1.0
176
     1
 76
     1
176
     1
 77
     6
176
     1
 78
     2
176
     1
 67
     7
176
     1
 79
     5
176
     1
170
     0
176
     1
171
     0
176
     1
290
     0
176
     1
 93
        1
176
     1
 44
50.0
176
     1
173
     0
176
     1
  0
VISUALSTYLE
  5
3A
102
{ACAD_REACTORS
330
2A
102
}
330
2A
100
AcDbVisualStyle
  2
ColorChange
 70
    16
177
     2
291
     1
 71
     2
176
     1
 72
     2
176
     1
 73
     3
176
     1
 90
        0
176
     1
 40
-0.6
176
     1
 41
-30.0
176
     1
 62
     5
 63
     8
421
  8421504
176
     1
 74
     1
176
     1
 91
        4
176
     1
 64
     7
176
     1
 65
   257
176
     1
 75
     1
176
     1
175
     1
176
     1
 42
1.0
176
     1
 92
        8
176
     1
 66
     8
424
  8421504
176
     1
 43
1.0
176
     1
 76
     1
176
     1
 77
     6
176
     1
 78
     2
176
     1
 67
     7
176
     1
 79
     5
176
     1
170
     0
176
     1
171
     0
176
     1
290
     0
176
     1
 93
        1
176
     1
 44
0.0
176
     1
173
     0
176
     1
  0
VISUALSTYLE
  5
34
102
{ACAD_REACTORS
330
2A
102
}
330
2A
100
AcDbVisualStyle
  2
Conceptual
 70
     9
177
     2
291
     0
 71
     3
176
     1
 72
     2
176
     1
 73
     0
176
     1
 90
        0
176
     1
 40
-0.6
176
     1
 41
-30.0
176
     1
 62
     5
 63
     7
421
 16777215
176
     1
 74
     2
176
     1
 91
        2
176
     1
 64
     7
176
     1
 65
   257
176
     1
 75
     1
176
     1
175
     1
176
     1
 42
40.0
176
     1
 92
        8
176
     1
 66
     7
176
     1
 43
1.0
176
     1
 76
     1
176
     1
 77
     6
176
     1
 78
     2
176
     1
 67
     7
176
     1
 79
     3
176
     1
170
     0
176
     1
171
     0
176
     1
290
     0
176
     1
 93
        1
176
     1
 44
0.0
176
     1
173
     0
176
     1
  0
VISUALSTYLE
  5
35
102
{ACAD_REACTORS
330
2A
102
}
330
2A
100
AcDbVisualStyle
  2
Dim
 70
    11
177
     2
291
     1
 71
     2
176
     1
 72
     2
176
     1
 73
     0
176
     1
 90
        0
176
     1
 40
-0.6
176
     1
 41
-30.0
176
     1
 62
     5
 63
     7
421
 16777215
176
     1
 74
     1
176
     1
 91
        4
176
     1
 64
     7
176
     1
 65
   257
176
     1
 75
     1
176
     1
175
     1
176
     1
 42
1.0
176
     1
 92
        8
176
     1
 66
     7
176
     1
 43
1.0
176
     1
 76
     1
176
     1
 77
     6
176
     1
 78
     2
176
     1
 67
     7
176
     1
 79
     5
176
     1
170
     0
176
     1
171
     0
176
     1
290
     0
176
     1
 93
        1
176
     1
 44
-50.0
176
     1
173
     0
176
     1
  0
VISUALSTYLE
  5
39
102
{ACAD_REACTORS
330
2A
102
}
330
2A
100
AcDbVisualStyle
  2
Facepattern
 70
    15
177
     2
291
     1
 71
     2
176
     1
 72
     2
176
     1
 73
     0
176
     1
 90
        0
176
     1
 40
-0.6
176
     1
 41
-30.0
176
     1
 62
     5
 63
     7
421
 16777215
176
     1
 74
     1
176
     1
 91
        4
176
     1
 64
     7
176
     1
 65
   257
176
     1
 75
     1
176
     1
175
     1
176
     1
 42
1.0
176
     1
 92
        8
176
     1
 66
     7
176
     1
 43
1.0
176
     1
 76
     1
176
     1
 77
     6
176
     1
 78
     2
176
     1
 67
     7
176
     1
 79
     5
176
     1
170
     0
176
     1
171
     0
176
     1
290
     0
176
     1
 93
        1
176
     1
 44
0.0
176
     1
173
     0
176
     1
  0
VISUALSTYLE
  5
2B
102
{ACAD_REACTORS
330
2A
102
}
330
2A
100
AcDbVisualStyle
  2
Flat
 70
     0
177
     2
291
     1
 71
     2
176
     1
 72
     1
176
     1
 73
     1
176
     1
 90
        2
176
     1
 40
-0.6
176
     1
 41
30.0
176
     1
 62
     5
 63
     7
421
 16777215
176
     1
 74
     0
176
     1
 91
        4
176
     1
 64
     7
176
     1
 65
   257
176
     1
 75
     1
176
     1
175
     1
176
     1
 42
1.0
176
     1
 92
        8
176
     1
 66
     7
176
     1
 43
1.0
176
     1
 76
     1
176
     1
 77
     6
176
     1
 78
     2
176
     1
 67
     7
176
     1
 79
     5
176
     1
170
     0
176
     1
171
     0
176
     1
290
     0
176
     1
 93
       13
176
     1
 44
0.0
176
     1
173
     0
176
     1
  0
VISUALSTYLE
  5
2C
102
{ACAD_REACTORS
330
2A
102
}
330
2A
100
AcDbVisualStyle
  2
FlatWithEdges
 70
     1
177
     2
291
     1
 71
     2
176
     1
 72
     1
176
     1
 73
     1
176
     1
 90
        2
176
     1
 40
-0.6
176
     1
 41
30.0
176
     1
 62
     5
 63
     7
421
 16777215
176
     1
 74
     1
176
     1
 91
        4
176
     1
 64
     7
176
     1
 65
   257
176
     1
 75
     1
176
     1
175
     1
176
     1
 42
1.0
176
     1
 92
        0
176
     1
 66
   257
176
     1
 43
1.0
176
     1
 76
     1
176
     1
 77
     6
176
     1
 78
     2
176
     1
 67
     7
176
     1
 79
     5
176
     1
170
     0
176
     1
171
     0
176
     1
290
     0
176
     1
 93
       13
176
     1
 44
0.0
176
     1
173
     0
176
     1
  0
VISUALSTYLE
  5
2D
102
{ACAD_REACTORS
330
2A
102
}
330
2A
100
AcDbVisualStyle
  2
Gouraud
 70
     2
177
     2
291
     1
 71
     2
176
     1
 72
     2
176
     1
 73
     1
176
     1
 90
        2
176
     1
 40
-0.6
176
     1
 41
30.0
176
     1
 62
     5
 63
     7
421
 16777215
176
     1
 74
     0
176
     1
 91
        4
176
     1
 64
     7
176
     1
 65
   257
176
     1
 75
     1
176
     1
175
     1
176
     1
 42
1.0
176
     1
 92
        0
176
     1
 66
     7
176
     1
 43
1.0
176
     1
 76
     1
176
     1
 77
     6
176
     1
 78
     2
176
     1
 67
     7
176
     1
 79
     5
176
     1
170
     0
176
     1
171
     0
176
     1
290
     0
176
     1
 93
       13
176
     1
 44
0.0
176
     1
173
     0
176
     1
  0
VISUALSTYLE
  5
2E
102
{ACAD_REACTORS
330
2A
102
}
330
2A
100
AcDbVisualStyle
  2
GouraudWithEdges
 70
     3
177
     2
291
     1
 71
     2
176
     1
 72
     2
176
     1
 73
     1
176
     1
 90
        2
176
     1
 40
-0.6
176
     1
 41
30.0
176
     1
 62
     5
 63
     7
421
 16777215
176
     1
 74
     1
176
     1
 91
        4
176
     1
 64
     7
176
     1
 65
   257
176
     1
 75
     1
176
     1
175
     1
176
     1
 42
1.0
176
     1
 92
        0
176
     1
 66
   257
176
     1
 43
1.0
176
     1
 76
     1
176
     1
 77
     6
176
     1
 78
     2
176
     1
 67
     7
176
     1
 79
     5
176
     1
170
     0
176
     1
171
     0
176
     1
290
     0
176
     1
 93
       13
176
     1
 44
0.0
176
     1
173
     0
176
     1
  0
VISUALSTYLE
  5
38
102
{ACAD_REACTORS
330
2A
102
}
330
2A
100
AcDbVisualStyle
  2
Linepattern
 70
    14
177
     2
291
     1
 71
     2
176
     1
 72
     2
176
     1
 73
     0
176
     1
 90
        0
176
     1
 40
-0.6
176
     1
 41
-30.0
176
     1
 62
     5
 63
     7
421
 16777215
176
     1
 74
     1
176
     1
 91
        4
176
     1
 64
     7
176
     1
 65
   257
176
     1
 75
     7
176
     1
175
     7
176
     1
 42
1.0
176
     1
 92
        8
176
     1
 66
     7
176
     1
 43
1.0
176
     1
 76
     1
176
     1
 77
     6
176
     1
 78
     2
176
     1
 67
     7
176
     1
 79
     5
176
     1
170
     0
176
     1
171
     0
176
     1
290
     0
176
     1
 93
        1
176
     1
 44
0.0
176
     1
173
     0
176
     1
  0
VISUALSTYLE
  5
33
102
{ACAD_REACTORS
330
2A
102
}
330
2A
100
AcDbVisualStyle
  2
Realistic
 70
     8
177
     2
291
     0
 71
     2
176
     1
 72
     2
176
     1
 73
     0
176
     1
 90
        0
176
     1
 40
-0.6
176
     1
 41
-30.0
176
     1
 62
     5
 63
     7
421
 16777215
176
     1
 74
     1
176
     1
 91
        0
176
     1
 64
     7
176
     1
 65
   257
176
     1
 75
     1
176
     1
175
     1
176
     1
 42
1.0
176
     1
 92
        8
176
     1
 66
     8
424
  7895160
176
     1
 43
1.0
176
     1
 76
     1
176
     1
 77
     6
176
     1
 78
     2
176
     1
 67
     7
176
     1
 79
     5
176
     1
170
     0
176
     1
171
     0
176
     1
290
     0
176
     1
 93
       13
176
     1
 44
0.0
176
     1
173
     0
176
     1
  0
VISUALSTYLE
  5
37
102
{ACAD_REACTORS
330
2A
102
}
330
2A
100
AcDbVisualStyle
  2
Thicken
 70
    13
177
     2
291
     1
 71
     2
176
     1
 72
     2
176
     1
 73
     0
176
     1
 90
        0
176
     1
 40
-0.6
176
     1
 41
-30.0
176
     1
 62
     5
 63
     7
421
 16777215
176
     1
 74
     1
176
     1
 91
        4
176
     1
 64
     7
176
     1
 65
   257
176
     1
 75
     1
176
     1
175
     1
176
     1
 42
1.0
176
     1
 92
       12
176
     1
 66
     7
176
     1
 43
1.0
176
     1
 76
     1
176
     1
 77
     6
176
     1
 78
     2
176
     1
 67
     7
176
     1
 79
     5
176
     1
170
     0
176
     1
171
     0
176
     1
290
     0
176
     1
 93
        1
176
     1
 44
0.0
176
     1
173
     0
176
     1
  0
ENDSEC
  0
EOF
