  0
SECTION
  2
HEADER
  9
$ACADVER
  1
AC1024
  9
$ACADMAINTVER
 70
     6
  9
$DWGCODEPAGE
  3
ANSI_1251
  9
$INSBASE
 10
0.0
 20
0.0
 30
0.0
  9
$EXTMIN
 10
1.000000000000000E+20
 20
1.000000000000000E+20
 30
1.000000000000000E+20
  9
$EXTMAX
 10
-1.000000000000000E+20
 20
-1.000000000000000E+20
 30
-1.000000000000000E+20
  9
$LIMMIN
 10
0.0
 20
0.0
  9
$LIMMAX
 10
12.0
 20
9.0
  9
$ORTHOMODE
 70
     0
  9
$REGENMODE
 70
     1
  9
$FILLMODE
 70
     1
  9
$QTEXTMODE
 70
     0
  9
$MIRRTEXT
 70
     1
  9
$LTSCALE
 40
1.0
  9
$ATTMODE
 70
     1
  9
$TEXTSIZE
 40
0.2
  9
$TRACEWID
 40
0.05
  9
$TEXTSTYLE
  7
Standard
  9
$CLAYER
  8
0
  9
$CELTYPE
  6
ByLayer
  9
$CECOLOR
 62
   256
  9
$CELTSCALE
 40
1.0
  9
$DISPSILH
 70
     0
  9
$DIMSCALE
 40
1.0
  9
$DIMASZ
 40
0.18
  9
$DIMEXO
 40
0.0625
  9
$DIMDLI
 40
0.38
  9
$DIMRND
 40
0.0
  9
$DIMDLE
 40
0.0
  9
$DIMEXE
 40
0.18
  9
$DIMTP
 40
0.0
  9
$DIMTM
 40
0.0
  9
$DIMTXT
 40
0.18
  9
$DIMCEN
 40
0.09
  9
$DIMTSZ
 40
0.0
  9
$DIMTOL
 70
     0
  9
$DIMLIM
 70
     0
  9
$DIMTIH
 70
     1
  9
$DIMTOH
 70
     1
  9
$DIMSE1
 70
     0
  9
$DIMSE2
 70
     0
  9
$DIMTAD
 70
     0
  9
$DIMZIN
 70
     0
  9
$DIMBLK
  1

  9
$DIMASO
 70
     1
  9
$DIMSHO
 70
     1
  9
$DIMPOST
  1

  9
$DIMAPOST
  1

  9
$DIMALT
 70
     0
  9
$DIMALTD
 70
     2
  9
$DIMALTF
 40
25.4
  9
$DIMLFAC
 40
1.0
  9
$DIMTOFL
 70
     0
  9
$DIMTVP
 40
0.0
  9
$DIMTIX
 70
     0
  9
$DIMSOXD
 70
     0
  9
$DIMSAH
 70
     0
  9
$DIMBLK1
  1

  9
$DIMBLK2
  1

  9
$DIMSTYLE
  2
Standard
  9
$DIMCLRD
 70
     0
  9
$DIMCLRE
 70
     0
  9
$DIMCLRT
 70
     0
  9
$DIMTFAC
 40
1.0
  9
$DIMGAP
 40
0.09
  9
$DIMJUST
 70
     0
  9
$DIMSD1
 70
     0
  9
$DIMSD2
 70
     0
  9
$DIMTOLJ
 70
     1
  9
$DIMTZIN
 70
     0
  9
$DIMALTZ
 70
     0
  9
$DIMALTTZ
 70
     0
  9
$DIMUPT
 70
     0
  9
$DIMDEC
 70
     4
  9
$DIMTDEC
 70
     4
  9
$DIMALTU
 70
     2
  9
$DIMALTTD
 70
     2
  9
$DIMTXSTY
  7
Standard
  9
$DIMAUNIT
 70
     0
  9
$DIMADEC
 70
     0
  9
$DIMALTRND
 40
0.0
  9
$DIMAZIN
 70
     0
  9
$DIMDSEP
 70
    46
  9
$DIMATFIT
 70
     3
  9
$DIMFRAC
 70
     0
  9
$DIMLDRBLK
  1

  9
$DIMLUNIT
 70
     2
  9
$DIMLWD
 70
    -2
  9
$DIMLWE
 70
    -2
  9
$DIMTMOVE
 70
     0
  9
$DIMFXL
 40
1.0
  9
$DIMFXLON
 70
     0
  9
$DIMJOGANG
 40
0.7853981633974483
  9
$DIMTFILL
 70
     0
  9
$DIMTFILLCLR
 70
     0
  9
$DIMARCSYM
 70
     0
  9
$DIMLTYPE
  6

  9
$DIMLTEX1
  6

  9
$DIMLTEX2
  6

  9
$DIMTXTDIRECTION
 70
     0
  9
$LUNITS
 70
     2
  9
$LUPREC
 70
     4
  9
$SKETCHINC
 40
0.1
  9
$FILLETRAD
 40
0.5
  9
$AUNITS
 70
     0
  9
$AUPREC
 70
     0
  9
$MENU
  1
.
  9
$ELEVATION
 40
0.0
  9
$PELEVATION
 40
0.0
  9
$THICKNESS
 40
0.0
  9
$LIMCHECK
 70
     0
  9
$CHAMFERA
 40
0.5
  9
$CHAMFERB
 40
0.5
  9
$CHAMFERC
 40
1.0
  9
$CHAMFERD
 40
0.0
  9
$SKPOLY
 70
     0
  9
$TDCREATE
 40
2459337.640442581
  9
$TDUCREATE
 40
2459337.515442581
  9
$TDUPDATE
 40
2459337.640443125
  9
$TDUUPDATE
 40
2459337.515443125
  9
$TDINDWG
 40
0.0000000116
  9
$TDUSRTIMER
 40
0.0000000116
  9
$USRTIMER
 70
     1
  9
$ANGBASE
 50
0.0
  9
$ANGDIR
 70
     0
  9
$PDMODE
 70
     0
  9
$PDSIZE
 40
0.0
  9
$PLINEWID
 40
0.0
  9
$SPLFRAME
 70
     0
  9
$SPLINETYPE
 70
     6
  9
$SPLINESEGS
 70
     8
  9
$HANDSEED
  5
65
  9
$SURFTAB1
 70
     6
  9
$SURFTAB2
 70
     6
  9
$SURFTYPE
 70
     6
  9
$SURFU
 70
     6
  9
$SURFV
 70
     6
  9
$UCSBASE
  2

  9
$UCSNAME
  2

  9
$UCSORG
 10
0.0
 20
0.0
 30
0.0
  9
$UCSXDIR
 10
1.0
 20
0.0
 30
0.0
  9
$UCSYDIR
 10
0.0
 20
1.0
 30
0.0
  9
$UCSORTHOREF
  2

  9
$UCSORTHOVIEW
 70
     0
  9
$UCSORGTOP
 10
0.0
 20
0.0
 30
0.0
  9
$UCSORGBOTTOM
 10
0.0
 20
0.0
 30
0.0
  9
$UCSORGLEFT
 10
0.0
 20
0.0
 30
0.0
  9
$UCSORGRIGHT
 10
0.0
 20
0.0
 30
0.0
  9
$UCSORGFRONT
 10
0.0
 20
0.0
 30
0.0
  9
$UCSORGBACK
 10
0.0
 20
0.0
 30
0.0
  9
$PUCSBASE
  2

  9
$PUCSNAME
  2

  9
$PUCSORG
 10
0.0
 20
0.0
 30
0.0
  9
$PUCSXDIR
 10
1.0
 20
0.0
 30
0.0
  9
$PUCSYDIR
 10
0.0
 20
1.0
 30
0.0
  9
$PUCSORTHOREF
  2

  9
$PUCSORTHOVIEW
 70
     0
  9
$PUCSORGTOP
 10
0.0
 20
0.0
 30
0.0
  9
$PUCSORGBOTTOM
 10
0.0
 20
0.0
 30
0.0
  9
$PUCSORGLEFT
 10
0.0
 20
0.0
 30
0.0
  9
$PUCSORGRIGHT
 10
0.0
 20
0.0
 30
0.0
  9
$PUCSORGFRONT
 10
0.0
 20
0.0
 30
0.0
  9
$PUCSORGBACK
 10
0.0
 20
0.0
 30
0.0
  9
$USERI1
 70
     0
  9
$USERI2
 70
     0
  9
$USERI3
 70
     0
  9
$USERI4
 70
     0
  9
$USERI5
 70
     0
  9
$USERR1
 40
0.0
  9
$USERR2
 40
0.0
  9
$USERR3
 40
0.0
  9
$USERR4
 40
0.0
  9
$USERR5
 40
0.0
  9
$WORLDVIEW
 70
     1
  9
$SHADEDGE
 70
     3
  9
$SHADEDIF
 70
    70
  9
$TILEMODE
 70
     1
  9
$MAXACTVP
 70
    64
  9
$PINSBASE
 10
0.0
 20
0.0
 30
0.0
  9
$PLIMCHECK
 70
     0
  9
$PEXTMIN
 10
1.000000000000000E+20
 20
1.000000000000000E+20
 30
1.000000000000000E+20
  9
$PEXTMAX
 10
-1.000000000000000E+20
 20
-1.000000000000000E+20
 30
-1.000000000000000E+20
  9
$PLIMMIN
 10
0.0
 20
0.0
  9
$PLIMMAX
 10
12.0
 20
9.0
  9
$UNITMODE
 70
     0
  9
$VISRETAIN
 70
     1
  9
$PLINEGEN
 70
     0
  9
$PSLTSCALE
 70
     1
  9
$TREEDEPTH
 70
  3020
  9
$CMLSTYLE
  2
Standard
  9
$CMLJUST
 70
     0
  9
$CMLSCALE
 40
1.0
  9
$PROXYGRAPHICS
 70
     1
  9
$MEASUREMENT
 70
     0
  9
$CELWEIGHT
370
    -1
  9
$ENDCAPS
280
     0
  9
$JOINSTYLE
280
     0
  9
$LWDISPLAY
290
     1
  9
$INSUNITS
 70
     1
  9
$HYPERLINKBASE
  1

  9
$STYLESHEET
  1

  9
$XEDIT
290
     1
  9
$CEPSNTYPE
380
     0
  9
$PSTYLEMODE
290
     1
  9
$FINGERPRINTGUID
  2
{11603ABB-1669-4F94-BE0D-99266F66FAE9}
  9
$VERSIONGUID
  2
{FAEB1C32-E019-11D5-929B-00C0DF256EC4}
  9
$EXTNAMES
290
     1
  9
$PSVPSCALE
 40
0.0
  9
$OLESTARTUP
290
     0
  9
$SORTENTS
280
   127
  9
$INDEXCTL
280
     0
  9
$HIDETEXT
280
     1
  9
$XCLIPFRAME
280
     2
  9
$HALOGAP
280
     0
  9
$OBSCOLOR
 70
   257
  9
$OBSLTYPE
280
     0
  9
$INTERSECTIONDISPLAY
280
     0
  9
$INTERSECTIONCOLOR
 70
   257
  9
$DIMASSOC
280
     2
  9
$PROJECTNAME
  1

  9
$CAMERADISPLAY
290
     0
  9
$LENSLENGTH
 40
50.0
  9
$CAMERAHEIGHT
 40
0.0
  9
$STEPSPERSEC
 40
2.0
  9
$STEPSIZE
 40
6.0
  9
$3DDWFPREC
 40
2.0
  9
$PSOLWIDTH
 40
0.25
  9
$PSOLHEIGHT
 40
4.0
  9
$LOFTANG1
 40
1.570796326794897
  9
$LOFTANG2
 40
1.570796326794897
  9
$LOFTMAG1
 40
0.0
  9
$LOFTMAG2
 40
0.0
  9
$LOFTPARAM
 70
     7
  9
$LOFTNORMALS
280
     1
  9
$LATITUDE
 40
37.795
  9
$LONGITUDE
 40
-122.394
  9
$NORTHDIRECTION
 40
0.0
  9
$TIMEZONE
 70
 -8000
  9
$LIGHTGLYPHDISPLAY
280
     1
  9
$TILEMODELIGHTSYNCH
280
     1
  9
$CMATERIAL
347
3C
  9
$SOLIDHIST
280
     1
  9
$SHOWHIST
280
     1
  9
$DWFFRAME
280
     2
  9
$DGNFRAME
280
     2
  9
$REALWORLDSCALE
290
     1
  9
$INTERFERECOLOR
 62
   256
  9
$CSHADOW
280
     0
  9
$SHADOWPLANELOCATION
 40
0.0
  0
ENDSEC
  0
SECTION
  2
CLASSES
  0
CLASS
  1
ACDBDICTIONARYWDFLT
  2
AcDbDictionaryWithDefault
  3
ObjectDBX Classes
 90
        0
 91
        4
280
     0
281
     0
  0
CLASS
  1
VISUALSTYLE
  2
AcDbVisualStyle
  3
ObjectDBX Classes
 90
     4095
 91
        4
280
     0
281
     0
  0
CLASS
  1
MATERIAL
  2
AcDbMaterial
  3
ObjectDBX Classes
 90
     1153
 91
        4
280
     0
281
     0
  0
CLASS
  1
SUN
  2
AcDbSun
  3
SCENEOE
 90
     1024
 91
        4
280
     0
281
     0
  0
ENDSEC
  0
SECTION
  2
TABLES
  0
TABLE
  2
VPORT
  5
8
330
0
100
AcDbSymbolTable
 70
     1
  0
VPORT
  5
29
330
8
100
AcDbSymbolTableRecord
100
AcDbViewportTableRecord
  2
*Active
 70
     0
 10
0.0
 20
0.0
 11
1.0
 21
1.0
 12
0.0
 22
0.0
 13
0.0
 23
0.0
 14
0.5
 24
0.5
 15
0.5
 25
0.5
 16
0.0
 26
0.0
 36
1.0
 17
6.666584962961116
 27
-5.916738878013373
 37
0.0
 40
12.0
 41
0.9898015927505851
 42
50.0
 43
0.0
 44
0.0
 50
0.0
 51
0.0
 71
     0
 72
   100
 73
     1
 74
     3
 75
     0
 76
     0
 77
     0
 78
     0
281
     0
 65
     1
110
0.0
120
0.0
130
0.0
111
1.0
121
0.0
131
0.0
112
0.0
122
1.0
132
0.0
 79
     0
146
0.0
 60
     3
 61
     5
292
     1
282
     1
141
0.0
142
0.0
 63
   250
361
3F
  0
ENDTAB
  0
TABLE
  2
LTYPE
  5
5
330
0
100
AcDbSymbolTable
 70
     1
  0
LTYPE
  5
14
330
5
100
AcDbSymbolTableRecord
100
AcDbLinetypeTableRecord
  2
ByBlock
 70
     0
  3

 72
    65
 73
     0
 40
0.0
  0
LTYPE
  5
15
330
5
100
AcDbSymbolTableRecord
100
AcDbLinetypeTableRecord
  2
ByLayer
 70
     0
  3

 72
    65
 73
     0
 40
0.0
  0
LTYPE
  5
16
330
5
100
AcDbSymbolTableRecord
100
AcDbLinetypeTableRecord
  2
Continuous
 70
     0
  3
Solid line
 72
    65
 73
     0
 40
0.0
  0
ENDTAB
  0
TABLE
  2
LAYER
  5
2
330
0
100
AcDbSymbolTable
 70
     2
  0
LAYER
  5
10
330
2
100
AcDbSymbolTableRecord
100
AcDbLayerTableRecord
  2
0
 70
     0
 62
     7
  6
Continuous
370
    -3
390
F
347
3E
  0
LAYER
  5
40
330
2
100
AcDbSymbolTableRecord
100
AcDbLayerTableRecord
  2
Layer 1
 70
     0
 62
     7
  6
Continuous
370
    -3
390
F
347
3E
  0
ENDTAB
  0
TABLE
  2
STYLE
  5
3
330
0
100
AcDbSymbolTable
 70
     1
  0
STYLE
  5
11
330
3
100
AcDbSymbolTableRecord
100
AcDbTextStyleTableRecord
  2
Standard
 70
     0
 40
0.0
 41
1.0
 50
0.0
 71
     0
 42
0.2
  3
txt
  4

  0
ENDTAB
  0
TABLE
  2
VIEW
  5
6
330
0
100
AcDbSymbolTable
 70
     0
  0
ENDTAB
  0
TABLE
  2
UCS
  5
7
330
0
100
AcDbSymbolTable
 70
     0
  0
ENDTAB
  0
TABLE
  2
APPID
  5
9
330
0
100
AcDbSymbolTable
 70
     1
  0
APPID
  5
12
330
9
100
AcDbSymbolTableRecord
100
AcDbRegAppTableRecord
  2
ACAD
 70
     0
  0
ENDTAB
  0
TABLE
  2
DIMSTYLE
  5
A
330
0
100
AcDbSymbolTable
 70
     1
100
AcDbDimStyleTable
  0
DIMSTYLE
105
27
330
A
100
AcDbSymbolTableRecord
100
AcDbDimStyleTableRecord
  2
Standard
 70
     0
178
     0
340
11
  0
ENDTAB
  0
TABLE
  2
BLOCK_RECORD
  5
1
330
0
100
AcDbSymbolTable
 70
     1
  0
BLOCK_RECORD
  5
1F
330
1
100
AcDbSymbolTableRecord
100
AcDbBlockTableRecord
  2
*Model_Space
340
22
 70
     0
280
     1
281
     0
  0
BLOCK_RECORD
  5
1B
330
1
100
AcDbSymbolTableRecord
100
AcDbBlockTableRecord
  2
*Paper_Space
340
1E
 70
     0
280
     1
281
     0
  0
BLOCK_RECORD
  5
23
330
1
100
AcDbSymbolTableRecord
100
AcDbBlockTableRecord
  2
*Paper_Space0
340
26
 70
     0
280
     1
281
     0
  0
ENDTAB
  0
ENDSEC
  0
SECTION
  2
BLOCKS
  0
BLOCK
  5
20
330
1F
100
AcDbEntity
  8
0
100
AcDbBlockBegin
  2
*Model_Space
 70
     0
 10
0.0
 20
0.0
 30
0.0
  3
*Model_Space
  1

  0
ENDBLK
  5
21
330
1F
100
AcDbEntity
  8
0
100
AcDbBlockEnd
  0
BLOCK
  5
1C
330
1B
100
AcDbEntity
 67
     1
  8
0
100
AcDbBlockBegin
  2
*Paper_Space
 70
     0
 10
0.0
 20
0.0
 30
0.0
  3
*Paper_Space
  1

  0
ENDBLK
  5
1D
330
1B
100
AcDbEntity
 67
     1
  8
0
100
AcDbBlockEnd
  0
BLOCK
  5
24
330
23
100
AcDbEntity
  8
0
100
AcDbBlockBegin
  2
*Paper_Space0
 70
     0
 10
0.0
 20
0.0
 30
0.0
  3
*Paper_Space0
  1

  0
ENDBLK
  5
25
330
23
100
AcDbEntity
  8
0
100
AcDbBlockEnd
  0
ENDSEC
  0
SECTION
  2
ENTITIES
  0
SPLINE
  5
41
330
1F
100
AcDbEntity
  8
Layer 1
370
     0
100
AcDbSpline
210
0.0
220
0.0
230
1.0
 70
    11
 71
     3
 72
    68
 73
    64
 74
     0
 42
0.0000000001
 43
0.0000000001
 12
1.0
 22
0.0
 32
0.0
 13
1.0
 23
0.0
 33
0.0
 40
0.0
 40
0.0
 40
0.0
 40
0.0
 40
1.0
 40
1.0
 40
1.0
 40
2.0
 40
2.0
 40
2.0
 40
3.0
 40
3.0
 40
3.0
 40
4.0
 40
4.0
 40
4.0
 40
5.0
 40
5.0
 40
5.0
 40
6.0
 40
6.0
 40
6.0
 40
7.0
 40
7.0
 40
7.0
 40
8.0
 40
8.0
 40
8.0
 40
9.0
 40
9.0
 40
9.0
 40
10.0
 40
10.0
 40
10.0
 40
11.0
 40
11.0
 40
11.0
 40
12.0
 40
12.0
 40
12.0
 40
13.0
 40
13.0
 40
13.0
 40
14.0
 40
14.0
 40
14.0
 40
15.0
 40
15.0
 40
15.0
 40
16.0
 40
16.0
 40
16.0
 40
17.0
 40
17.0
 40
17.0
 40
18.0
 40
18.0
 40
18.0
 40
19.0
 40
19.0
 40
19.0
 40
20.0
 40
20.0
 40
20.0
 40
21.0
 40
21.0
 40
21.0
 40
21.0
 10
10.48580104615505
 20
-3.226947779373214
 30
0.0
 10
9.869387695996819
 20
-1.972435798538754
 30
0.0
 10
8.737872528961057
 20
-1.045330474172639
 30
0.0
 10
7.381350977494447
 20
-0.6834873168256005
 30
0.0
 10
7.381350977494447
 20
-0.6834873168256005
 30
0.0
 10
7.09474832584106
 20
-0.6069960514301884
 30
0.0
 10
7.09474832584106
 20
-0.6069960514301884
 30
0.0
 10
7.09474832584106
 20
-0.6069960514301884
 30
0.0
 10
7.355328678245162
 20
-0.7487704758028333
 30
0.0
 10
7.355328678245162
 20
-0.7487704758028333
 30
0.0
 10
8.142364733289316
 20
-1.176855166444057
 30
0.0
 10
8.770668422129852
 20
-1.830742592328571
 30
0.0
 10
9.172178519874452
 20
-2.639301886782871
 30
0.0
 10
9.56209066431418
 20
-3.443231745977477
 30
0.0
 10
9.699739202557035
 20
-4.325546878115826
 30
0.0
 10
9.57123582917499
 20
-5.194037054641803
 30
0.0
 10
9.224742913284166
 20
-5.046258983700946
 30
0.0
 10
8.855021603519464
 20
-4.971954111238713
 30
0.0
 10
8.4730363515346
 20
-4.975272685356344
 30
0.0
 10
7.72979272209851
 20
-4.981216230484531
 30
0.0
 10
7.036206274346922
 20
-5.2707589796185
 30
0.0
 10
6.520048608345127
 20
-5.790540600028988
 30
0.0
 10
6.00845540307297
 20
-6.306105373445107
 30
0.0
 10
5.724890310695287
 20
-6.991152959535106
 30
0.0
 10
5.721609096932184
 20
-7.719676627984704
 30
0.0
 10
5.7197085919307
 20
-8.114494359286356
 30
0.0
 10
5.795810010146448
 20
-8.492857290875893
 30
0.0
 10
5.947915384782795
 20
-8.845084217788628
 30
0.0
 10
4.207994934249958
 20
-9.125498045463372
 30
0.0
 10
2.438592290747692
 20
-8.290542848212933
 30
0.0
 10
1.533984397379931
 20
-6.758149422008905
 30
0.0
 10
1.533984397379931
 20
-6.758149422008905
 30
0.0
 10
1.381992728171389
 20
-6.500678100863145
 30
0.0
 10
1.381992728171389
 20
-6.500678100863145
 30
0.0
 10
1.381992728171389
 20
-6.500678100863145
 30
0.0
 10
1.469675856352132
 20
-6.786488063250974
 30
0.0
 10
1.469675856352132
 20
-6.786488063250974
 30
0.0
 10
1.543210780634581
 20
-7.026265195525461
 30
0.0
 10
1.637570041768779
 20
-7.264871161897467
 30
0.0
 10
1.750024709497085
 20
-7.495514499622661
 30
0.0
 10
2.583436761660955
 20
-9.205400473681493
 30
0.0
 10
4.290317663709098
 20
-10.24635741817004
 30
0.0
 10
6.11415271968508
 20
-10.24621122547779
 30
0.0
 10
6.445197949831153
 20
-10.24621122547779
 30
0.0
 10
6.780417793527148
 20
-10.21185594276125
 30
0.0
 10
7.114614288376186
 20
-10.14101746147258
 30
0.0
 10
7.53631482039792
 20
-10.37906789561344
 30
0.0
 10
8.023510077362618
 20
-10.50479361108586
 30
0.0
 10
8.524593639755393
 20
-10.50479361108586
 30
0.0
 10
8.524593639755393
 20
-10.50479361108586
 30
0.0
 10
8.538481945183472
 20
-10.50479361108586
 30
0.0
 10
8.538481945183472
 20
-10.50479361108586
 30
0.0
 10
9.267772294663144
 20
-10.48793272056112
 30
0.0
 10
9.949355096724906
 20
-10.19429657603996
 30
0.0
 10
10.45769956265728
 20
-9.677976473712961
 30
0.0
 10
10.96818818802416
 20
-9.158894953862676
 30
0.0
 10
11.24951165201148
 20
-8.469287780132667
 30
0.0
 10
11.24985276828516
 20
-7.736131427697122
 30
0.0
 10
11.25016139729466
 20
-7.254978789711004
 30
0.0
 10
11.12560522650796
 20
-6.783033042620318
 30
0.0
 10
10.88960149602286
 20
-6.370387924660967
 30
0.0
 10
11.11254534631593
 20
-5.298753255851769
 30
0.0
 10
10.97299630311974
 20
-4.212120841164644
 30
0.0
 10
10.48580104615505
 20
-3.226947779373214
 30
0.0
  0
SPLINE
  5
42
330
1F
100
AcDbEntity
  8
Layer 1
370
     0
100
AcDbSpline
210
0.0
220
0.0
230
1.0
 70
    11
 71
     3
 72
    44
 73
    40
 74
     0
 42
0.0000000001
 43
0.0000000001
 12
1.0
 22
0.0
 32
0.0
 13
1.0
 23
0.0
 33
0.0
 40
0.0
 40
0.0
 40
0.0
 40
0.0
 40
1.0
 40
1.0
 40
1.0
 40
2.0
 40
2.0
 40
2.0
 40
3.0
 40
3.0
 40
3.0
 40
4.0
 40
4.0
 40
4.0
 40
5.0
 40
5.0
 40
5.0
 40
6.0
 40
6.0
 40
6.0
 40
7.0
 40
7.0
 40
7.0
 40
8.0
 40
8.0
 40
8.0
 40
9.0
 40
9.0
 40
9.0
 40
10.0
 40
10.0
 40
10.0
 40
11.0
 40
11.0
 40
11.0
 40
12.0
 40
12.0
 40
12.0
 40
13.0
 40
13.0
 40
13.0
 40
13.0
 10
8.49486779304963
 20
-5.209380789891889
 30
0.0
 10
8.865693669795771
 20
-5.209380789891889
 30
0.0
 10
9.222225603952463
 20
-5.287970732604877
 30
0.0
 10
9.554618593557532
 20
-5.442868225229959
 30
0.0
 10
9.81872380754041
 20
-5.565486696243485
 30
0.0
 10
10.05898336963039
 20
-5.733379257296772
 30
0.0
 10
10.26873739067481
 20
-5.94184353922022
 30
0.0
 10
10.47356959119909
 20
-6.145056254759816
 30
0.0
 10
10.63990438369461
 20
-6.377437661161568
 30
0.0
 10
10.76324228207533
 20
-6.632558528686129
 30
0.0
 10
10.93113646325052
 20
-6.976843943674642
 30
0.0
 10
11.01609065902704
 20
-7.348152265673838
 30
0.0
 10
11.01574954275336
 20
-7.736131427697122
 30
0.0
 10
11.01508355383809
 20
-9.125156929181129
 30
0.0
 10
9.924925145469286
 20
-10.23854423094238
 30
0.0
 10
8.534713422540992
 20
-10.27075535417003
 30
0.0
 10
8.534713422540992
 20
-10.27075535417003
 30
0.0
 10
8.524593639755393
 20
-10.27075535417003
 30
0.0
 10
8.524593639755393
 20
-10.27075535417003
 30
0.0
 10
8.1168622309243
 20
-10.27075535417003
 30
0.0
 10
7.730783583655365
 20
-10.18420928026353
 30
0.0
 10
7.376997683987206
 20
-10.01348870279351
 30
0.0
 10
7.121257934064588
 20
-9.891287855571287
 30
0.0
 10
6.88905520762013
 20
-9.726772345712915
 30
0.0
 10
6.68680573948753
 20
-9.524604095742486
 30
0.0
 10
6.482931908105329
 20
-9.320762751625605
 30
0.0
 10
6.317799140212249
 20
-9.08561992770059
 30
0.0
 10
6.19602062743474
 20
-8.825738051493065
 30
0.0
 10
6.034623895014243
 20
-8.482412635184522
 30
0.0
 10
5.953779336111577
 20
-8.110612131121242
 30
0.0
 10
5.955696084745429
 20
-7.720635002301631
 30
0.0
 10
5.955696084745429
 20
-7.720635002301631
 30
0.0
 10
5.955696084745429
 20
-7.720570027771524
 30
0.0
 10
5.955696084745429
 20
-7.720570027771524
 30
0.0
 10
5.96180369056161
 20
-6.323317126431448
 30
0.0
 10
7.06838491030981
 20
-5.22030300837807
 30
0.0
 10
8.474628227478409
 20
-5.209380789891889
 30
0.0
 10
8.474628227478409
 20
-5.209380789891889
 30
0.0
 10
8.49486779304963
 20
-5.209380789891889
 30
0.0
 10
8.49486779304963
 20
-5.209380789891889
 30
0.0
  0
HATCH
  5
43
330
1F
100
AcDbEntity
  8
Layer 1
 62
     7
420
 16777215
100
AcDbHatch
 10
0.0
 20
0.0
 30
0.0
210
0.0
220
0.0
230
1.0
  2
SOLID
 70
     1
 71
     0
 91
        2
 92
        1
 93
        1
 72
     4
 94
        3
 73
     0
 74
     1
 95
       68
 96
       64
 40
0.0
 40
0.0
 40
0.0
 40
0.0
 40
1.0
 40
1.0
 40
1.0
 40
2.0
 40
2.0
 40
2.0
 40
3.0
 40
3.0
 40
3.0
 40
4.0
 40
4.0
 40
4.0
 40
5.0
 40
5.0
 40
5.0
 40
6.0
 40
6.0
 40
6.0
 40
7.0
 40
7.0
 40
7.0
 40
8.0
 40
8.0
 40
8.0
 40
9.0
 40
9.0
 40
9.0
 40
10.0
 40
10.0
 40
10.0
 40
11.0
 40
11.0
 40
11.0
 40
12.0
 40
12.0
 40
12.0
 40
13.0
 40
13.0
 40
13.0
 40
14.0
 40
14.0
 40
14.0
 40
15.0
 40
15.0
 40
15.0
 40
16.0
 40
16.0
 40
16.0
 40
17.0
 40
17.0
 40
17.0
 40
18.0
 40
18.0
 40
18.0
 40
19.0
 40
19.0
 40
19.0
 40
20.0
 40
20.0
 40
20.0
 40
21.0
 40
21.0
 40
21.0
 40
21.0
 10
10.48580104615505
 20
-3.226947779373214
 10
9.869387695996819
 20
-1.972435798538754
 10
8.737872528961057
 20
-1.045330474172639
 10
7.381350977494447
 20
-0.6834873168256005
 10
7.381350977494447
 20
-0.6834873168256005
 10
7.09474832584106
 20
-0.6069960514301884
 10
7.09474832584106
 20
-0.6069960514301884
 10
7.09474832584106
 20
-0.6069960514301884
 10
7.355328678245162
 20
-0.7487704758028333
 10
7.355328678245162
 20
-0.7487704758028333
 10
8.142364733289316
 20
-1.176855166444057
 10
8.770668422129852
 20
-1.830742592328571
 10
9.172178519874452
 20
-2.639301886782871
 10
9.56209066431418
 20
-3.443231745977477
 10
9.699739202557035
 20
-4.325546878115826
 10
9.57123582917499
 20
-5.194037054641803
 10
9.224742913284166
 20
-5.046258983700946
 10
8.855021603519464
 20
-4.971954111238713
 10
8.4730363515346
 20
-4.975272685356344
 10
7.72979272209851
 20
-4.981216230484531
 10
7.036206274346922
 20
-5.2707589796185
 10
6.520048608345127
 20
-5.790540600028988
 10
6.00845540307297
 20
-6.306105373445107
 10
5.724890310695287
 20
-6.991152959535106
 10
5.721609096932184
 20
-7.719676627984704
 10
5.7197085919307
 20
-8.114494359286356
 10
5.795810010146448
 20
-8.492857290875893
 10
5.947915384782795
 20
-8.845084217788628
 10
4.207994934249958
 20
-9.125498045463372
 10
2.438592290747692
 20
-8.290542848212933
 10
1.533984397379931
 20
-6.758149422008905
 10
1.533984397379931
 20
-6.758149422008905
 10
1.381992728171389
 20
-6.500678100863145
 10
1.381992728171389
 20
-6.500678100863145
 10
1.381992728171389
 20
-6.500678100863145
 10
1.469675856352132
 20
-6.786488063250974
 10
1.469675856352132
 20
-6.786488063250974
 10
1.543210780634581
 20
-7.026265195525461
 10
1.637570041768779
 20
-7.264871161897467
 10
1.750024709497085
 20
-7.495514499622661
 10
2.583436761660955
 20
-9.205400473681493
 10
4.290317663709098
 20
-10.24635741817004
 10
6.11415271968508
 20
-10.24621122547779
 10
6.445197949831153
 20
-10.24621122547779
 10
6.780417793527148
 20
-10.21185594276125
 10
7.114614288376186
 20
-10.14101746147258
 10
7.53631482039792
 20
-10.37906789561344
 10
8.023510077362618
 20
-10.50479361108586
 10
8.524593639755393
 20
-10.50479361108586
 10
8.524593639755393
 20
-10.50479361108586
 10
8.538481945183472
 20
-10.50479361108586
 10
8.538481945183472
 20
-10.50479361108586
 10
9.267772294663144
 20
-10.48793272056112
 10
9.949355096724906
 20
-10.19429657603996
 10
10.45769956265728
 20
-9.677976473712961
 10
10.96818818802416
 20
-9.158894953862676
 10
11.24951165201148
 20
-8.469287780132667
 10
11.24985276828516
 20
-7.736131427697122
 10
11.25016139729466
 20
-7.254978789711004
 10
11.12560522650796
 20
-6.783033042620318
 10
10.88960149602286
 20
-6.370387924660967
 10
11.11254534631593
 20
-5.298753255851769
 10
10.97299630311974
 20
-4.212120841164644
 10
10.48580104615505
 20
-3.226947779373214
 97
        0
 97
        0
 92
        1
 93
        1
 72
     4
 94
        3
 73
     0
 74
     1
 95
       44
 96
       40
 40
0.0
 40
0.0
 40
0.0
 40
0.0
 40
1.0
 40
1.0
 40
1.0
 40
2.0
 40
2.0
 40
2.0
 40
3.0
 40
3.0
 40
3.0
 40
4.0
 40
4.0
 40
4.0
 40
5.0
 40
5.0
 40
5.0
 40
6.0
 40
6.0
 40
6.0
 40
7.0
 40
7.0
 40
7.0
 40
8.0
 40
8.0
 40
8.0
 40
9.0
 40
9.0
 40
9.0
 40
10.0
 40
10.0
 40
10.0
 40
11.0
 40
11.0
 40
11.0
 40
12.0
 40
12.0
 40
12.0
 40
13.0
 40
13.0
 40
13.0
 40
13.0
 10
8.49486779304963
 20
-5.209380789891889
 10
8.865693669795771
 20
-5.209380789891889
 10
9.222225603952463
 20
-5.287970732604877
 10
9.554618593557532
 20
-5.442868225229959
 10
9.81872380754041
 20
-5.565486696243485
 10
10.05898336963039
 20
-5.733379257296772
 10
10.26873739067481
 20
-5.94184353922022
 10
10.47356959119909
 20
-6.145056254759816
 10
10.63990438369461
 20
-6.377437661161568
 10
10.76324228207533
 20
-6.632558528686129
 10
10.93113646325052
 20
-6.976843943674642
 10
11.01609065902704
 20
-7.348152265673838
 10
11.01574954275336
 20
-7.736131427697122
 10
11.01508355383809
 20
-9.125156929181129
 10
9.924925145469286
 20
-10.23854423094238
 10
8.534713422540992
 20
-10.27075535417003
 10
8.534713422540992
 20
-10.27075535417003
 10
8.524593639755393
 20
-10.27075535417003
 10
8.524593639755393
 20
-10.27075535417003
 10
8.1168622309243
 20
-10.27075535417003
 10
7.730783583655365
 20
-10.18420928026353
 10
7.376997683987206
 20
-10.01348870279351
 10
7.121257934064588
 20
-9.891287855571287
 10
6.88905520762013
 20
-9.726772345712915
 10
6.68680573948753
 20
-9.524604095742486
 10
6.482931908105329
 20
-9.320762751625605
 10
6.317799140212249
 20
-9.08561992770059
 10
6.19602062743474
 20
-8.825738051493065
 10
6.034623895014243
 20
-8.482412635184522
 10
5.953779336111577
 20
-8.110612131121242
 10
5.955696084745429
 20
-7.720635002301631
 10
5.955696084745429
 20
-7.720635002301631
 10
5.955696084745429
 20
-7.720570027771524
 10
5.955696084745429
 20
-7.720570027771524
 10
5.96180369056161
 20
-6.323317126431448
 10
7.06838491030981
 20
-5.22030300837807
 10
8.474628227478409
 20
-5.209380789891889
 10
8.474628227478409
 20
-5.209380789891889
 10
8.49486779304963
 20
-5.209380789891889
 10
8.49486779304963
 20
-5.209380789891889
 97
        0
 97
        0
 75
     2
 76
     1
 98
        0
  0
SPLINE
  5
44
330
1F
100
AcDbEntity
  8
Layer 1
370
     0
100
AcDbSpline
210
0.0
220
0.0
230
1.0
 70
    11
 71
     3
 72
    23
 73
    19
 74
     0
 42
0.0000000001
 43
0.0000000001
 12
1.0
 22
0.0
 32
0.0
 13
1.0
 23
0.0
 33
0.0
 40
0.0
 40
0.0
 40
0.0
 40
0.0
 40
1.0
 40
1.0
 40
1.0
 40
2.0
 40
2.0
 40
2.0
 40
3.0
 40
3.0
 40
3.0
 40
4.0
 40
4.0
 40
4.0
 40
5.0
 40
5.0
 40
5.0
 40
6.0
 40
6.0
 40
6.0
 40
6.0
 10
3.085527441926615
 20
-7.363599960171591
 30
0.0
 10
2.999874767806937
 20
-7.364233461838668
 30
0.0
 10
2.94295707956212
 20
-7.410332890845439
 30
0.0
 10
2.940293123833688
 20
-7.484566291324427
 30
0.0
 10
2.937645411737637
 20
-7.557207815819766
 30
0.0
 10
2.990550922757443
 20
-7.608765105342981
 30
0.0
 10
3.075147760765642
 20
-7.615814841843707
 30
0.0
 10
3.075147760765642
 20
-7.615814841843707
 30
0.0
 10
5.327522329092428
 20
-7.68376195654951
 30
0.0
 10
5.327522329092428
 20
-7.68376195654951
 30
0.0
 10
5.397759795979103
 20
-7.675201562227256
 30
0.0
 10
5.441097807462597
 20
-7.630271674759771
 30
0.0
 10
5.443436890541155
 20
-7.563705268815586
 30
0.0
 10
5.445889679047228
 20
-7.496099270392328
 30
0.0
 10
5.40456587799243
 20
-7.447027256640214
 30
0.0
 10
5.33098222281285
 20
-7.435218135820175
 30
0.0
 10
5.33098222281285
 20
-7.435218135820175
 30
0.0
 10
3.085527441926615
 20
-7.363599960171591
 30
0.0
 10
3.085527441926615
 20
-7.363599960171591
 30
0.0
  0
HATCH
  5
45
330
1F
100
AcDbEntity
  8
Layer 1
 62
     7
420
 16777215
100
AcDbHatch
 10
0.0
 20
0.0
 30
0.0
210
0.0
220
0.0
230
1.0
  2
SOLID
 70
     1
 71
     0
 91
        1
 92
        1
 93
        1
 72
     4
 94
        3
 73
     0
 74
     1
 95
       23
 96
       19
 40
0.0
 40
0.0
 40
0.0
 40
0.0
 40
1.0
 40
1.0
 40
1.0
 40
2.0
 40
2.0
 40
2.0
 40
3.0
 40
3.0
 40
3.0
 40
4.0
 40
4.0
 40
4.0
 40
5.0
 40
5.0
 40
5.0
 40
6.0
 40
6.0
 40
6.0
 40
6.0
 10
3.085527441926615
 20
-7.363599960171591
 10
2.999874767806937
 20
-7.364233461838668
 10
2.94295707956212
 20
-7.410332890845439
 10
2.940293123833688
 20
-7.484566291324427
 10
2.937645411737637
 20
-7.557207815819766
 10
2.990550922757443
 20
-7.608765105342981
 10
3.075147760765642
 20
-7.615814841843707
 10
3.075147760765642
 20
-7.615814841843707
 10
5.327522329092428
 20
-7.68376195654951
 10
5.327522329092428
 20
-7.68376195654951
 10
5.397759795979103
 20
-7.675201562227256
 10
5.441097807462597
 20
-7.630271674759771
 10
5.443436890541155
 20
-7.563705268815586
 10
5.445889679047228
 20
-7.496099270392328
 10
5.40456587799243
 20
-7.447027256640214
 10
5.33098222281285
 20
-7.435218135820175
 10
5.33098222281285
 20
-7.435218135820175
 10
3.085527441926615
 20
-7.363599960171591
 10
3.085527441926615
 20
-7.363599960171591
 97
        0
 97
        0
 75
     2
 76
     1
 98
        0
  0
SPLINE
  5
46
330
1F
100
AcDbEntity
  8
Layer 1
370
     0
100
AcDbSpline
210
0.0
220
0.0
230
1.0
 70
    11
 71
     3
 72
    29
 73
    25
 74
     0
 42
0.0000000001
 43
0.0000000001
 12
1.0
 22
0.0
 32
0.0
 13
1.0
 23
0.0
 33
0.0
 40
0.0
 40
0.0
 40
0.0
 40
0.0
 40
1.0
 40
1.0
 40
1.0
 40
2.0
 40
2.0
 40
2.0
 40
3.0
 40
3.0
 40
3.0
 40
4.0
 40
4.0
 40
4.0
 40
5.0
 40
5.0
 40
5.0
 40
6.0
 40
6.0
 40
6.0
 40
7.0
 40
7.0
 40
7.0
 40
8.0
 40
8.0
 40
8.0
 40
8.0
 10
8.033142551185822
 20
-4.672250969982163
 30
0.0
 10
8.052976025955052
 20
-4.687180492603728
 30
0.0
 10
8.076513048838478
 20
-4.694784136972266
 30
0.0
 10
8.102048038467677
 20
-4.694784136972266
 30
0.0
 10
8.108626709459916
 20
-4.694784136972266
 30
0.0
 10
8.115286598612581
 20
-4.694300076724036
 30
0.0
 10
8.122060193189782
 20
-4.693263732971205
 30
0.0
 10
8.19114436042451
 20
-4.683103340848624
 30
0.0
 10
8.228066136141528
 20
-4.635340563875098
 30
0.0
 10
8.231444811614084
 20
-4.545485662030185
 30
0.0
 10
8.231444811614084
 20
-4.545485662030185
 30
0.0
 10
7.970344669565949
 20
-2.449007732162575
 30
0.0
 10
7.970344669565949
 20
-2.449007732162575
 30
0.0
 10
7.959461436072565
 20
-2.374222048178669
 30
0.0
 10
7.906539682757082
 20
-2.330266778660782
 30
0.0
 10
7.835944857738973
 20
-2.336699257126838
 30
0.0
 10
7.761435734127594
 20
-2.343537826405067
 30
0.0
 10
7.71788613978414
 20
-2.397726584391812
 30
0.0
 10
7.72251557492685
 20
-2.480536622825753
 30
0.0
 10
7.72251557492685
 20
-2.480536622825753
 30
0.0
 10
7.976533493388261
 20
-4.562005436272531
 30
0.0
 10
7.976533493388261
 20
-4.562005436272531
 30
0.0
 10
7.98327460070133
 20
-4.611425063760142
 30
0.0
 10
8.002831933725195
 20
-4.649511508859328
 30
0.0
 10
8.033142551185822
 20
-4.672250969982163
 30
0.0
  0
HATCH
  5
47
330
1F
100
AcDbEntity
  8
Layer 1
 62
     7
420
 16777215
100
AcDbHatch
 10
0.0
 20
0.0
 30
0.0
210
0.0
220
0.0
230
1.0
  2
SOLID
 70
     1
 71
     0
 91
        1
 92
        1
 93
        1
 72
     4
 94
        3
 73
     0
 74
     1
 95
       29
 96
       25
 40
0.0
 40
0.0
 40
0.0
 40
0.0
 40
1.0
 40
1.0
 40
1.0
 40
2.0
 40
2.0
 40
2.0
 40
3.0
 40
3.0
 40
3.0
 40
4.0
 40
4.0
 40
4.0
 40
5.0
 40
5.0
 40
5.0
 40
6.0
 40
6.0
 40
6.0
 40
7.0
 40
7.0
 40
7.0
 40
8.0
 40
8.0
 40
8.0
 40
8.0
 10
8.033142551185822
 20
-4.672250969982163
 10
8.052976025955052
 20
-4.687180492603728
 10
8.076513048838478
 20
-4.694784136972266
 10
8.102048038467677
 20
-4.694784136972266
 10
8.108626709459916
 20
-4.694784136972266
 10
8.115286598612581
 20
-4.694300076724036
 10
8.122060193189782
 20
-4.693263732971205
 10
8.19114436042451
 20
-4.683103340848624
 10
8.228066136141528
 20
-4.635340563875098
 10
8.231444811614084
 20
-4.545485662030185
 10
8.231444811614084
 20
-4.545485662030185
 10
7.970344669565949
 20
-2.449007732162575
 10
7.970344669565949
 20
-2.449007732162575
 10
7.959461436072565
 20
-2.374222048178669
 10
7.906539682757082
 20
-2.330266778660782
 10
7.835944857738973
 20
-2.336699257126838
 10
7.761435734127594
 20
-2.343537826405067
 10
7.71788613978414
 20
-2.397726584391812
 10
7.72251557492685
 20
-2.480536622825753
 10
7.72251557492685
 20
-2.480536622825753
 10
7.976533493388261
 20
-4.562005436272531
 10
7.976533493388261
 20
-4.562005436272531
 10
7.98327460070133
 20
-4.611425063760142
 10
8.002831933725195
 20
-4.649511508859328
 10
8.033142551185822
 20
-4.672250969982163
 97
        0
 97
        0
 75
     2
 76
     1
 98
        0
  0
SPLINE
  5
48
330
1F
100
AcDbEntity
  8
Layer 1
370
     0
100
AcDbSpline
210
0.0
220
0.0
230
1.0
 70
    11
 71
     3
 72
    35
 73
    31
 74
     0
 42
0.0000000001
 43
0.0000000001
 12
1.0
 22
0.0
 32
0.0
 13
1.0
 23
0.0
 33
0.0
 40
0.0
 40
0.0
 40
0.0
 40
0.0
 40
1.0
 40
1.0
 40
1.0
 40
2.0
 40
2.0
 40
2.0
 40
3.0
 40
3.0
 40
3.0
 40
4.0
 40
4.0
 40
4.0
 40
5.0
 40
5.0
 40
5.0
 40
6.0
 40
6.0
 40
6.0
 40
7.0
 40
7.0
 40
7.0
 40
8.0
 40
8.0
 40
8.0
 40
9.0
 40
9.0
 40
9.0
 40
10.0
 40
10.0
 40
10.0
 40
10.0
 10
6.04441880540556
 20
-5.615529429473238
 30
0.0
 10
6.04441880540556
 20
-5.615529429473238
 30
0.0
 10
6.052231992633248
 20
-5.620989888971179
 30
0.0
 10
6.052231992633248
 20
-5.620989888971179
 30
0.0
 10
6.070311155594683
 20
-5.630182972778887
 30
0.0
 10
6.089657321890248
 20
-5.634813869965417
 30
0.0
 10
6.108873539125903
 20
-5.634813869965417
 30
0.0
 10
6.130721224824962
 20
-5.634813869965417
 30
0.0
 10
6.152325256036622
 20
-5.628869675092005
 30
0.0
 10
6.171508986007262
 20
-5.61705015834707
 30
0.0
 10
6.208235839067103
 20
-5.594447955918857
 30
0.0
 10
6.230116012031203
 20
-5.554634975122099
 30
0.0
 10
6.230018550236359
 20
-5.510467401327648
 30
0.0
 10
6.230668295535805
 20
-5.449503749102026
 30
0.0
 10
6.191781039354989
 20
-5.414805563303806
 30
0.0
 10
6.160577021341699
 20
-5.386881459563015
 30
0.0
 10
6.160577021341699
 20
-5.386881459563015
 30
0.0
 10
4.843543299053256
 20
-4.167814709184969
 30
0.0
 10
4.843543299053256
 20
-4.167814709184969
 30
0.0
 10
4.807628627617785
 20
-4.134637089824196
 30
0.0
 10
4.712246017636567
 20
-4.046440662856437
 30
0.0
 10
4.625667456465016
 20
-4.132632625574906
 30
0.0
 10
4.600749724225491
 20
-4.157308327690379
 30
0.0
 10
4.588420807165625
 20
-4.185440674799856
 30
0.0
 10
4.588940603405174
 20
-4.216129769663237
 30
0.0
 10
4.589655323234701
 20
-4.259329710270359
 30
0.0
 10
4.616441073210656
 20
-4.304878480135446
 30
0.0
 10
4.670905972949691
 20
-4.355336075739097
 30
0.0
 10
4.670905972949691
 20
-4.355336075739097
 30
0.0
 10
6.04441880540556
 20
-5.615529429473238
 30
0.0
 10
6.04441880540556
 20
-5.615529429473238
 30
0.0
  0
HATCH
  5
49
330
1F
100
AcDbEntity
  8
Layer 1
 62
     7
420
 16777215
100
AcDbHatch
 10
0.0
 20
0.0
 30
0.0
210
0.0
220
0.0
230
1.0
  2
SOLID
 70
     1
 71
     0
 91
        1
 92
        1
 93
        1
 72
     4
 94
        3
 73
     0
 74
     1
 95
       35
 96
       31
 40
0.0
 40
0.0
 40
0.0
 40
0.0
 40
1.0
 40
1.0
 40
1.0
 40
2.0
 40
2.0
 40
2.0
 40
3.0
 40
3.0
 40
3.0
 40
4.0
 40
4.0
 40
4.0
 40
5.0
 40
5.0
 40
5.0
 40
6.0
 40
6.0
 40
6.0
 40
7.0
 40
7.0
 40
7.0
 40
8.0
 40
8.0
 40
8.0
 40
9.0
 40
9.0
 40
9.0
 40
10.0
 40
10.0
 40
10.0
 40
10.0
 10
6.04441880540556
 20
-5.615529429473238
 10
6.04441880540556
 20
-5.615529429473238
 10
6.052231992633248
 20
-5.620989888971179
 10
6.052231992633248
 20
-5.620989888971179
 10
6.070311155594683
 20
-5.630182972778887
 10
6.089657321890248
 20
-5.634813869965417
 10
6.108873539125903
 20
-5.634813869965417
 10
6.130721224824962
 20
-5.634813869965417
 10
6.152325256036622
 20
-5.628869675092005
 10
6.171508986007262
 20
-5.61705015834707
 10
6.208235839067103
 20
-5.594447955918857
 10
6.230116012031203
 20
-5.554634975122099
 10
6.230018550236359
 20
-5.510467401327648
 10
6.230668295535805
 20
-5.449503749102026
 10
6.191781039354989
 20
-5.414805563303806
 10
6.160577021341699
 20
-5.386881459563015
 10
6.160577021341699
 20
-5.386881459563015
 10
4.843543299053256
 20
-4.167814709184969
 10
4.843543299053256
 20
-4.167814709184969
 10
4.807628627617785
 20
-4.134637089824196
 10
4.712246017636567
 20
-4.046440662856437
 10
4.625667456465016
 20
-4.132632625574906
 10
4.600749724225491
 20
-4.157308327690379
 10
4.588420807165625
 20
-4.185440674799856
 10
4.588940603405174
 20
-4.216129769663237
 10
4.589655323234701
 20
-4.259329710270359
 10
4.616441073210656
 20
-4.304878480135446
 10
4.670905972949691
 20
-4.355336075739097
 10
4.670905972949691
 20
-4.355336075739097
 10
6.04441880540556
 20
-5.615529429473238
 10
6.04441880540556
 20
-5.615529429473238
 97
        0
 97
        0
 75
     2
 76
     1
 98
        0
  0
SPLINE
  5
4A
330
1F
100
AcDbEntity
  8
Layer 1
370
     0
100
AcDbSpline
210
0.0
220
0.0
230
1.0
 70
    11
 71
     3
 72
    32
 73
    28
 74
     0
 42
0.0000000001
 43
0.0000000001
 12
1.0
 22
0.0
 32
0.0
 13
1.0
 23
0.0
 33
0.0
 40
0.0
 40
0.0
 40
0.0
 40
0.0
 40
1.0
 40
1.0
 40
1.0
 40
2.0
 40
2.0
 40
2.0
 40
3.0
 40
3.0
 40
3.0
 40
4.0
 40
4.0
 40
4.0
 40
5.0
 40
5.0
 40
5.0
 40
6.0
 40
6.0
 40
6.0
 40
7.0
 40
7.0
 40
7.0
 40
8.0
 40
8.0
 40
8.0
 40
9.0
 40
9.0
 40
9.0
 40
9.0
 10
2.748033489682118
 20
-5.587121265484218
 30
0.0
 10
2.748033489682118
 20
-5.587121265484218
 30
0.0
 10
3.892900951209109
 20
-5.999836555936048
 30
0.0
 10
3.892900951209109
 20
-5.999836555936048
 30
0.0
 10
3.892900951209109
 20
-5.999836555936048
 30
0.0
 10
3.899674545957396
 20
-5.999628637440107
 30
0.0
 10
3.899674545957396
 20
-5.999628637440107
 30
0.0
 10
3.970009474638914
 20
-5.997209960562436
 30
0.0
 10
4.014143424114397
 20
-5.967695280328106
 30
0.0
 10
4.030760660151436
 20
-5.91198449397709
 30
0.0
 10
4.047556576146083
 20
-5.855651576501915
 30
0.0
 10
4.028405333440497
 20
-5.804157637145281
 30
0.0
 10
3.978261239943966
 20
-5.770634028412498
 30
0.0
 10
3.978261239943966
 20
-5.770634028412498
 30
0.0
 10
2.838721689873826
 20
-5.36047743495054
 30
0.0
 10
2.838721689873826
 20
-5.36047743495054
 30
0.0
 10
2.838721689873826
 20
-5.36047743495054
 30
0.0
 10
2.83011256465415
 20
-5.358541193957749
 30
0.0
 10
2.83011256465415
 20
-5.358541193957749
 30
0.0
 10
2.768809095636735
 20
-5.353011861458084
 30
0.0
 10
2.721361445133678
 20
-5.380660148319331
 30
0.0
 10
2.699757413921728
 20
-5.435195870295918
 30
0.0
 10
2.699757413921728
 20
-5.435195870295918
 30
0.0
 10
2.699757413921728
 20
-5.435264905734028
 30
0.0
 10
2.699757413921728
 20
-5.435264905734028
 30
0.0
 10
2.67615541591374
 20
-5.494846224834671
 30
0.0
 10
2.694185847977767
 20
-5.551593679811124
 30
0.0
 10
2.748033489682118
 20
-5.587121265484218
 30
0.0
  0
HATCH
  5
4B
330
1F
100
AcDbEntity
  8
Layer 1
 62
     7
420
 16777215
100
AcDbHatch
 10
0.0
 20
0.0
 30
0.0
210
0.0
220
0.0
230
1.0
  2
SOLID
 70
     1
 71
     0
 91
        1
 92
        1
 93
        1
 72
     4
 94
        3
 73
     0
 74
     1
 95
       32
 96
       28
 40
0.0
 40
0.0
 40
0.0
 40
0.0
 40
1.0
 40
1.0
 40
1.0
 40
2.0
 40
2.0
 40
2.0
 40
3.0
 40
3.0
 40
3.0
 40
4.0
 40
4.0
 40
4.0
 40
5.0
 40
5.0
 40
5.0
 40
6.0
 40
6.0
 40
6.0
 40
7.0
 40
7.0
 40
7.0
 40
8.0
 40
8.0
 40
8.0
 40
9.0
 40
9.0
 40
9.0
 40
9.0
 10
2.748033489682118
 20
-5.587121265484218
 10
2.748033489682118
 20
-5.587121265484218
 10
3.892900951209109
 20
-5.999836555936048
 10
3.892900951209109
 20
-5.999836555936048
 10
3.892900951209109
 20
-5.999836555936048
 10
3.899674545957396
 20
-5.999628637440107
 10
3.899674545957396
 20
-5.999628637440107
 10
3.970009474638914
 20
-5.997209960562436
 10
4.014143424114397
 20
-5.967695280328106
 10
4.030760660151436
 20
-5.91198449397709
 10
4.047556576146083
 20
-5.855651576501915
 10
4.028405333440497
 20
-5.804157637145281
 10
3.978261239943966
 20
-5.770634028412498
 10
3.978261239943966
 20
-5.770634028412498
 10
2.838721689873826
 20
-5.36047743495054
 10
2.838721689873826
 20
-5.36047743495054
 10
2.838721689873826
 20
-5.36047743495054
 10
2.83011256465415
 20
-5.358541193957749
 10
2.83011256465415
 20
-5.358541193957749
 10
2.768809095636735
 20
-5.353011861458084
 10
2.721361445133678
 20
-5.380660148319331
 10
2.699757413921728
 20
-5.435195870295918
 10
2.699757413921728
 20
-5.435195870295918
 10
2.699757413921728
 20
-5.435264905734028
 10
2.699757413921728
 20
-5.435264905734028
 10
2.67615541591374
 20
-5.494846224834671
 10
2.694185847977767
 20
-5.551593679811124
 10
2.748033489682118
 20
-5.587121265484218
 97
        0
 97
        0
 75
     2
 76
     1
 98
        0
  0
SPLINE
  5
4C
330
1F
100
AcDbEntity
  8
Layer 1
370
     0
100
AcDbSpline
210
0.0
220
0.0
230
1.0
 70
    11
 71
     3
 72
    23
 73
    19
 74
     0
 42
0.0000000001
 43
0.0000000001
 12
1.0
 22
0.0
 32
0.0
 13
1.0
 23
0.0
 33
0.0
 40
0.0
 40
0.0
 40
0.0
 40
0.0
 40
1.0
 40
1.0
 40
1.0
 40
2.0
 40
2.0
 40
2.0
 40
3.0
 40
3.0
 40
3.0
 40
4.0
 40
4.0
 40
4.0
 40
5.0
 40
5.0
 40
5.0
 40
6.0
 40
6.0
 40
6.0
 40
6.0
 10
5.491339362753971
 20
-6.59862070732485
 30
0.0
 10
5.51585100418145
 20
-6.607099883484604
 30
0.0
 10
5.596224497741686
 20
-6.594403860330456
 30
0.0
 10
5.62452090553946
 20
-6.514709350607973
 30
0.0
 10
5.644468086237339
 20
-6.458584351628562
 30
0.0
 10
5.626876232250702
 20
-6.40473995865078
 30
0.0
 10
5.577528076745858
 20
-6.370664066413256
 30
0.0
 10
5.577528076745858
 20
-6.370664066413256
 30
0.0
 10
4.58361269194831
 20
-6.015388209681936
 30
0.0
 10
4.58361269194831
 20
-6.015388209681936
 30
0.0
 10
4.513765072241313
 20
-5.99257890093952
 30
0.0
 10
4.454020991943126
 20
-6.018429017684057
 30
0.0
 10
4.42380783551179
 20
-6.084300196157503
 30
0.0
 10
4.394569297030064
 20
-6.148097062761937
 30
0.0
 10
4.424083977264242
 20
-6.217216967733293
 30
0.0
 10
4.499421944752738
 20
-6.253919455344455
 30
0.0
 10
4.499421944752738
 20
-6.253919455344455
 30
0.0
 10
5.225788458807642
 20
-6.506785706679339
 30
0.0
 10
5.491339362753971
 20
-6.59862070732485
 30
0.0
  0
HATCH
  5
4D
330
1F
100
AcDbEntity
  8
Layer 1
 62
     7
420
 16777215
100
AcDbHatch
 10
0.0
 20
0.0
 30
0.0
210
0.0
220
0.0
230
1.0
  2
SOLID
 70
     1
 71
     0
 91
        1
 92
        1
 93
        1
 72
     4
 94
        3
 73
     0
 74
     1
 95
       23
 96
       19
 40
0.0
 40
0.0
 40
0.0
 40
0.0
 40
1.0
 40
1.0
 40
1.0
 40
2.0
 40
2.0
 40
2.0
 40
3.0
 40
3.0
 40
3.0
 40
4.0
 40
4.0
 40
4.0
 40
5.0
 40
5.0
 40
5.0
 40
6.0
 40
6.0
 40
6.0
 40
6.0
 10
5.491339362753971
 20
-6.59862070732485
 10
5.51585100418145
 20
-6.607099883484604
 10
5.596224497741686
 20
-6.594403860330456
 10
5.62452090553946
 20
-6.514709350607973
 10
5.644468086237339
 20
-6.458584351628562
 10
5.626876232250702
 20
-6.40473995865078
 10
5.577528076745858
 20
-6.370664066413256
 10
5.577528076745858
 20
-6.370664066413256
 10
4.58361269194831
 20
-6.015388209681936
 10
4.58361269194831
 20
-6.015388209681936
 10
4.513765072241313
 20
-5.99257890093952
 10
4.454020991943126
 20
-6.018429017684057
 10
4.42380783551179
 20
-6.084300196157503
 10
4.394569297030064
 20
-6.148097062761937
 10
4.424083977264242
 20
-6.217216967733293
 10
4.499421944752738
 20
-6.253919455344455
 10
4.499421944752738
 20
-6.253919455344455
 10
5.225788458807642
 20
-6.506785706679339
 10
5.491339362753971
 20
-6.59862070732485
 97
        0
 97
        0
 75
     2
 76
     1
 98
        0
  0
SPLINE
  5
4E
330
1F
100
AcDbEntity
  8
Layer 1
370
     0
100
AcDbSpline
210
0.0
220
0.0
230
1.0
 70
    11
 71
     3
 72
    35
 73
    31
 74
     0
 42
0.0000000001
 43
0.0000000001
 12
1.0
 22
0.0
 32
0.0
 13
1.0
 23
0.0
 33
0.0
 40
0.0
 40
0.0
 40
0.0
 40
0.0
 40
1.0
 40
1.0
 40
1.0
 40
2.0
 40
2.0
 40
2.0
 40
3.0
 40
3.0
 40
3.0
 40
4.0
 40
4.0
 40
4.0
 40
5.0
 40
5.0
 40
5.0
 40
6.0
 40
6.0
 40
6.0
 40
7.0
 40
7.0
 40
7.0
 40
8.0
 40
8.0
 40
8.0
 40
9.0
 40
9.0
 40
9.0
 40
10.0
 40
10.0
 40
10.0
 40
10.0
 10
6.222871351940789
 20
-3.542935162201047
 30
0.0
 10
6.246798222598651
 20
-3.571280300896092
 30
0.0
 10
6.278375844159225
 20
-3.586078250094412
 30
0.0
 10
6.312454985123016
 20
-3.586078250094412
 30
0.0
 10
6.328877297570367
 20
-3.586078250094412
 30
0.0
 10
6.345835649889952
 20
-3.582683330904084
 30
0.0
 10
6.362810245841906
 20
-3.575633594403345
 30
0.0
 10
6.362810245841906
 20
-3.575633594403345
 30
0.0
 10
6.362842733106945
 20
-3.575633594403345
 30
0.0
 10
6.362842733106945
 20
-3.575633594403345
 30
0.0
 10
6.412645710321258
 20
-3.555036668406046
 30
0.0
 10
6.43860303504016
 20
-3.512315914957387
 30
0.0
 10
6.439983743801804
 20
-3.448657119229172
 30
0.0
 10
6.439983743801804
 20
-3.448657119229172
 30
0.0
 10
6.440129936494334
 20
-3.441201291916248
 30
0.0
 10
6.440129936494334
 20
-3.441201291916248
 30
0.0
 10
6.440129936494334
 20
-3.441201291916248
 30
0.0
 10
6.02781781300089
 20
-2.446213827374411
 30
0.0
 10
6.02781781300089
 20
-2.446213827374411
 30
0.0
 10
6.02781781300089
 20
-2.446213827374411
 30
0.0
 10
6.024195482955848
 20
-2.439586425318389
 30
0.0
 10
6.024195482955848
 20
-2.439586425318389
 30
0.0
 10
5.987484873528071
 20
-2.38663218340101
 30
0.0
 10
5.930713377975811
 20
-2.368731700397032
 30
0.0
 10
5.872333762806887
 20
-2.392366185670059
 30
0.0
 10
5.81513993280963
 20
-2.415253463848507
 30
0.0
 10
5.787428295781498
 20
-2.467915320381053
 30
0.0
 10
5.798214067754795
 20
-2.533165992093258
 30
0.0
 10
5.798214067754795
 20
-2.533165992093258
 30
0.0
 10
6.222871351940789
 20
-3.542935162201047
 30
0.0
 10
6.222871351940789
 20
-3.542935162201047
 30
0.0
  0
HATCH
  5
4F
330
1F
100
AcDbEntity
  8
Layer 1
 62
     7
420
 16777215
100
AcDbHatch
 10
0.0
 20
0.0
 30
0.0
210
0.0
220
0.0
230
1.0
  2
SOLID
 70
     1
 71
     0
 91
        1
 92
        1
 93
        1
 72
     4
 94
        3
 73
     0
 74
     1
 95
       35
 96
       31
 40
0.0
 40
0.0
 40
0.0
 40
0.0
 40
1.0
 40
1.0
 40
1.0
 40
2.0
 40
2.0
 40
2.0
 40
3.0
 40
3.0
 40
3.0
 40
4.0
 40
4.0
 40
4.0
 40
5.0
 40
5.0
 40
5.0
 40
6.0
 40
6.0
 40
6.0
 40
7.0
 40
7.0
 40
7.0
 40
8.0
 40
8.0
 40
8.0
 40
9.0
 40
9.0
 40
9.0
 40
10.0
 40
10.0
 40
10.0
 40
10.0
 10
6.222871351940789
 20
-3.542935162201047
 10
6.246798222598651
 20
-3.571280300896092
 10
6.278375844159225
 20
-3.586078250094412
 10
6.312454985123016
 20
-3.586078250094412
 10
6.328877297570367
 20
-3.586078250094412
 10
6.345835649889952
 20
-3.582683330904084
 10
6.362810245841906
 20
-3.575633594403345
 10
6.362810245841906
 20
-3.575633594403345
 10
6.362842733106945
 20
-3.575633594403345
 10
6.362842733106945
 20
-3.575633594403345
 10
6.412645710321258
 20
-3.555036668406046
 10
6.43860303504016
 20
-3.512315914957387
 10
6.439983743801804
 20
-3.448657119229172
 10
6.439983743801804
 20
-3.448657119229172
 10
6.440129936494334
 20
-3.441201291916248
 10
6.440129936494334
 20
-3.441201291916248
 10
6.440129936494334
 20
-3.441201291916248
 10
6.02781781300089
 20
-2.446213827374411
 10
6.02781781300089
 20
-2.446213827374411
 10
6.02781781300089
 20
-2.446213827374411
 10
6.024195482955848
 20
-2.439586425318389
 10
6.024195482955848
 20
-2.439586425318389
 10
5.987484873528071
 20
-2.38663218340101
 10
5.930713377975811
 20
-2.368731700397032
 10
5.872333762806887
 20
-2.392366185670059
 10
5.81513993280963
 20
-2.415253463848507
 10
5.787428295781498
 20
-2.467915320381053
 10
5.798214067754795
 20
-2.533165992093258
 10
5.798214067754795
 20
-2.533165992093258
 10
6.222871351940789
 20
-3.542935162201047
 10
6.222871351940789
 20
-3.542935162201047
 97
        0
 97
        0
 75
     2
 76
     1
 98
        0
  0
SPLINE
  5
50
330
1F
100
AcDbEntity
  8
Layer 1
370
     0
100
AcDbSpline
210
0.0
220
0.0
230
1.0
 70
    11
 71
     3
 72
    35
 73
    31
 74
     0
 42
0.0000000001
 43
0.0000000001
 12
1.0
 22
0.0
 32
0.0
 13
1.0
 23
0.0
 33
0.0
 40
0.0
 40
0.0
 40
0.0
 40
0.0
 40
1.0
 40
1.0
 40
1.0
 40
2.0
 40
2.0
 40
2.0
 40
3.0
 40
3.0
 40
3.0
 40
4.0
 40
4.0
 40
4.0
 40
5.0
 40
5.0
 40
5.0
 40
6.0
 40
6.0
 40
6.0
 40
7.0
 40
7.0
 40
7.0
 40
8.0
 40
8.0
 40
8.0
 40
9.0
 40
9.0
 40
9.0
 40
10.0
 40
10.0
 40
10.0
 40
10.0
 10
6.676588494651191
 20
-3.947499072996758
 30
0.0
 10
6.64046265599336
 20
-3.869740804267078
 30
0.0
 10
6.573035337527421
 20
-3.839056582493615
 30
0.0
 10
6.504649644744808
 20
-3.869399687984835
 30
0.0
 10
6.504649644744808
 20
-3.869399687984835
 30
0.0
 10
6.504617157479465
 20
-3.869399687984835
 30
0.0
 10
6.504617157479465
 20
-3.869399687984835
 30
0.0
 10
6.439463947562242
 20
-3.898362084714575
 30
0.0
 10
6.416138091306695
 20
-3.968235694233499
 30
0.0
 10
6.446416222267847
 20
-4.050210809957409
 30
0.0
 10
6.446416222267847
 20
-4.050210809957409
 30
0.0
 10
6.867045085596449
 20
-4.948561656089876
 30
0.0
 10
6.867045085596449
 20
-4.948561656089876
 30
0.0
 10
6.867045085596449
 20
-4.948561656089876
 30
0.0
 10
6.871528328163296
 20
-4.955751087829892
 30
0.0
 10
6.871528328163296
 20
-4.955751087829892
 30
0.0
 10
6.894269413649479
 20
-4.984019881452253
 30
0.0
 10
6.925440944397754
 20
-4.998673262321518
 30
0.0
 10
6.9599099325415
 20
-4.998673262321518
 30
0.0
 10
6.97670584853611
 20
-4.998673262321518
 30
0.0
 10
6.994248971625337
 20
-4.995218241690862
 30
0.0
 10
7.011987018304555
 20
-4.988098657570415
 30
0.0
 10
7.057501676541354
 20
-4.969782337574707
 30
0.0
 10
7.088884374511988
 20
-4.931106248616111
 30
0.0
 10
7.08756864028045
 20
-4.87273800398979
 30
0.0
 10
7.087503665750368
 20
-4.870161763876959
 30
0.0
 10
7.086285393313649
 20
-4.862509388610849
 30
0.0
 10
7.086285393313649
 20
-4.862509388610849
 30
0.0
 10
7.086285393313649
 20
-4.862509388610849
 30
0.0
 10
6.676588494651191
 20
-3.947499072996758
 30
0.0
 10
6.676588494651191
 20
-3.947499072996758
 30
0.0
  0
HATCH
  5
51
330
1F
100
AcDbEntity
  8
Layer 1
 62
     7
420
 16777215
100
AcDbHatch
 10
0.0
 20
0.0
 30
0.0
210
0.0
220
0.0
230
1.0
  2
SOLID
 70
     1
 71
     0
 91
        1
 92
        1
 93
        1
 72
     4
 94
        3
 73
     0
 74
     1
 95
       35
 96
       31
 40
0.0
 40
0.0
 40
0.0
 40
0.0
 40
1.0
 40
1.0
 40
1.0
 40
2.0
 40
2.0
 40
2.0
 40
3.0
 40
3.0
 40
3.0
 40
4.0
 40
4.0
 40
4.0
 40
5.0
 40
5.0
 40
5.0
 40
6.0
 40
6.0
 40
6.0
 40
7.0
 40
7.0
 40
7.0
 40
8.0
 40
8.0
 40
8.0
 40
9.0
 40
9.0
 40
9.0
 40
10.0
 40
10.0
 40
10.0
 40
10.0
 10
6.676588494651191
 20
-3.947499072996758
 10
6.64046265599336
 20
-3.869740804267078
 10
6.573035337527421
 20
-3.839056582493615
 10
6.504649644744808
 20
-3.869399687984835
 10
6.504649644744808
 20
-3.869399687984835
 10
6.504617157479465
 20
-3.869399687984835
 10
6.504617157479465
 20
-3.869399687984835
 10
6.439463947562242
 20
-3.898362084714575
 10
6.416138091306695
 20
-3.968235694233499
 10
6.446416222267847
 20
-4.050210809957409
 10
6.446416222267847
 20
-4.050210809957409
 10
6.867045085596449
 20
-4.948561656089876
 10
6.867045085596449
 20
-4.948561656089876
 10
6.867045085596449
 20
-4.948561656089876
 10
6.871528328163296
 20
-4.955751087829892
 10
6.871528328163296
 20
-4.955751087829892
 10
6.894269413649479
 20
-4.984019881452253
 10
6.925440944397754
 20
-4.998673262321518
 10
6.9599099325415
 20
-4.998673262321518
 10
6.97670584853611
 20
-4.998673262321518
 10
6.994248971625337
 20
-4.995218241690862
 10
7.011987018304555
 20
-4.988098657570415
 10
7.057501676541354
 20
-4.969782337574707
 10
7.088884374511988
 20
-4.931106248616111
 10
7.08756864028045
 20
-4.87273800398979
 10
7.087503665750368
 20
-4.870161763876959
 10
7.086285393313649
 20
-4.862509388610849
 10
7.086285393313649
 20
-4.862509388610849
 10
7.086285393313649
 20
-4.862509388610849
 10
6.676588494651191
 20
-3.947499072996758
 10
6.676588494651191
 20
-3.947499072996758
 97
        0
 97
        0
 75
     2
 76
     1
 98
        0
  0
SPLINE
  5
52
330
1F
100
AcDbEntity
  8
Layer 1
370
     0
100
AcDbSpline
210
0.0
220
0.0
230
1.0
 70
    11
 71
     3
 72
    32
 73
    28
 74
     0
 42
0.0000000001
 43
0.0000000001
 12
1.0
 22
0.0
 32
0.0
 13
1.0
 23
0.0
 33
0.0
 40
0.0
 40
0.0
 40
0.0
 40
0.0
 40
1.0
 40
1.0
 40
1.0
 40
2.0
 40
2.0
 40
2.0
 40
3.0
 40
3.0
 40
3.0
 40
4.0
 40
4.0
 40
4.0
 40
5.0
 40
5.0
 40
5.0
 40
6.0
 40
6.0
 40
6.0
 40
7.0
 40
7.0
 40
7.0
 40
8.0
 40
8.0
 40
8.0
 40
9.0
 40
9.0
 40
9.0
 40
9.0
 10
4.147747301344313
 20
-3.931629044053996
 30
0.0
 10
4.180786849829297
 20
-3.960524841890421
 30
0.0
 10
4.215060914383066
 20
-3.975040151883465
 30
0.0
 10
4.248165437397562
 20
-3.975040151883465
 30
0.0
 10
4.278800928273894
 20
-3.975040151883465
 30
0.0
 10
4.308413070302915
 20
-3.962597529396235
 30
0.0
 10
4.335052627586606
 20
-3.93771553314803
 30
0.0
 10
4.377773381035417
 20
-3.897826044842355
 30
0.0
 10
4.399328681349352
 20
-3.822488077353707
 30
0.0
 10
4.316908490095367
 20
-3.741269914903758
 30
0.0
 10
4.207085290830453
 20
-3.633038591622974
 30
0.0
 10
3.860511148023849
 20
-3.326342566579443
 30
0.0
 10
3.860511148023849
 20
-3.326342566579443
 30
0.0
 10
3.836941637281218
 20
-3.30491721532524
 30
0.0
 10
3.805916299224931
 20
-3.282874606036216
 30
0.0
 10
3.754700125984249
 20
-3.281558871804666
 30
0.0
 10
3.754700125984249
 20
-3.281558871804666
 30
0.0
 10
3.752442261067863
 20
-3.281558871804666
 30
0.0
 10
3.752442261067863
 20
-3.281558871804666
 30
0.0
 10
3.701648422271887
 20
-3.283491864070899
 30
0.0
 10
3.661559137286468
 20
-3.312178119048187
 30
0.0
 10
3.642440381845922
 20
-3.36029175848364
 30
0.0
 10
3.621664775891304
 20
-3.412677473263746
 30
0.0
 10
3.634773387310512
 20
-3.464251006419481
 30
0.0
 10
3.679492107555638
 20
-3.505639782004083
 30
0.0
 10
3.679492107555638
 20
-3.505639782004083
 30
0.0
 10
4.147747301344313
 20
-3.931629044053996
 30
0.0
 10
4.147747301344313
 20
-3.931629044053996
 30
0.0
  0
HATCH
  5
53
330
1F
100
AcDbEntity
  8
Layer 1
 62
     7
420
 16777215
100
AcDbHatch
 10
0.0
 20
0.0
 30
0.0
210
0.0
220
0.0
230
1.0
  2
SOLID
 70
     1
 71
     0
 91
        1
 92
        1
 93
        1
 72
     4
 94
        3
 73
     0
 74
     1
 95
       32
 96
       28
 40
0.0
 40
0.0
 40
0.0
 40
0.0
 40
1.0
 40
1.0
 40
1.0
 40
2.0
 40
2.0
 40
2.0
 40
3.0
 40
3.0
 40
3.0
 40
4.0
 40
4.0
 40
4.0
 40
5.0
 40
5.0
 40
5.0
 40
6.0
 40
6.0
 40
6.0
 40
7.0
 40
7.0
 40
7.0
 40
8.0
 40
8.0
 40
8.0
 40
9.0
 40
9.0
 40
9.0
 40
9.0
 10
4.147747301344313
 20
-3.931629044053996
 10
4.180786849829297
 20
-3.960524841890421
 10
4.215060914383066
 20
-3.975040151883465
 10
4.248165437397562
 20
-3.975040151883465
 10
4.278800928273894
 20
-3.975040151883465
 10
4.308413070302915
 20
-3.962597529396235
 10
4.335052627586606
 20
-3.93771553314803
 10
4.377773381035417
 20
-3.897826044842355
 10
4.399328681349352
 20
-3.822488077353707
 10
4.316908490095367
 20
-3.741269914903758
 10
4.207085290830453
 20
-3.633038591622974
 10
3.860511148023849
 20
-3.326342566579443
 10
3.860511148023849
 20
-3.326342566579443
 10
3.836941637281218
 20
-3.30491721532524
 10
3.805916299224931
 20
-3.282874606036216
 10
3.754700125984249
 20
-3.281558871804666
 10
3.754700125984249
 20
-3.281558871804666
 10
3.752442261067863
 20
-3.281558871804666
 10
3.752442261067863
 20
-3.281558871804666
 10
3.701648422271887
 20
-3.283491864070899
 10
3.661559137286468
 20
-3.312178119048187
 10
3.642440381845922
 20
-3.36029175848364
 10
3.621664775891304
 20
-3.412677473263746
 10
3.634773387310512
 20
-3.464251006419481
 10
3.679492107555638
 20
-3.505639782004083
 10
3.679492107555638
 20
-3.505639782004083
 10
4.147747301344313
 20
-3.931629044053996
 10
4.147747301344313
 20
-3.931629044053996
 97
        0
 97
        0
 75
     2
 76
     1
 98
        0
  0
SPLINE
  5
54
330
1F
100
AcDbEntity
  8
Layer 1
370
     0
100
AcDbSpline
210
0.0
220
0.0
230
1.0
 70
    11
 71
     3
 72
    26
 73
    22
 74
     0
 42
0.0000000001
 43
0.0000000001
 12
1.0
 22
0.0
 32
0.0
 13
1.0
 23
0.0
 33
0.0
 40
0.0
 40
0.0
 40
0.0
 40
0.0
 40
1.0
 40
1.0
 40
1.0
 40
2.0
 40
2.0
 40
2.0
 40
3.0
 40
3.0
 40
3.0
 40
4.0
 40
4.0
 40
4.0
 40
5.0
 40
5.0
 40
5.0
 40
6.0
 40
6.0
 40
6.0
 40
7.0
 40
7.0
 40
7.0
 40
7.0
 10
7.805065713155575
 20
-11.22706672975326
 30
0.0
 10
7.805065713155575
 20
-11.22706672975326
 30
0.0
 10
7.803230182730582
 20
-11.22706672975326
 30
0.0
 10
7.803230182730582
 20
-11.22706672975326
 30
0.0
 10
7.711989701339235
 20
-11.22802510407018
 30
0.0
 10
7.625687284100094
 20
-11.26439459721514
 30
0.0
 10
7.560257934083286
 20
-11.32941785807275
 30
0.0
 10
7.493090925392935
 20
-11.39616294397395
 30
0.0
 10
7.454496054596953
 20
-11.48753337673015
 30
0.0
 10
7.454414836434201
 20
-11.58015456918838
 30
0.0
 10
7.454366105536766
 20
-11.66808135185652
 30
0.0
 10
7.490004635220076
 20
-11.75184976460741
 30
0.0
 10
7.554783830072463
 20
-11.81602835657532
 30
0.0
 10
7.619466386165085
 20
-11.8800282685859
 30
0.0
 10
7.707880062423101
 20
-11.91673887801337
 30
0.0
 10
7.800956074239416
 20
-11.91673887801337
 30
0.0
 10
7.988716217447998
 20
-11.91467593668696
 30
0.0
 10
8.146247387815542
 20
-11.75534214559285
 30
0.0
 10
8.144996201686252
 20
-11.56873529554771
 30
0.0
 10
8.143664223855719
 20
-11.38448377221382
 30
0.0
 10
7.988001497636509
 20
-11.22800886043781
 30
0.0
 10
7.805065713155575
 20
-11.22706672975326
 30
0.0
  0
HATCH
  5
55
330
1F
100
AcDbEntity
  8
Layer 1
 62
     7
420
 16777215
100
AcDbHatch
 10
0.0
 20
0.0
 30
0.0
210
0.0
220
0.0
230
1.0
  2
SOLID
 70
     1
 71
     0
 91
        1
 92
        1
 93
        1
 72
     4
 94
        3
 73
     0
 74
     1
 95
       26
 96
       22
 40
0.0
 40
0.0
 40
0.0
 40
0.0
 40
1.0
 40
1.0
 40
1.0
 40
2.0
 40
2.0
 40
2.0
 40
3.0
 40
3.0
 40
3.0
 40
4.0
 40
4.0
 40
4.0
 40
5.0
 40
5.0
 40
5.0
 40
6.0
 40
6.0
 40
6.0
 40
7.0
 40
7.0
 40
7.0
 40
7.0
 10
7.805065713155575
 20
-11.22706672975326
 10
7.805065713155575
 20
-11.22706672975326
 10
7.803230182730582
 20
-11.22706672975326
 10
7.803230182730582
 20
-11.22706672975326
 10
7.711989701339235
 20
-11.22802510407018
 10
7.625687284100094
 20
-11.26439459721514
 10
7.560257934083286
 20
-11.32941785807275
 10
7.493090925392935
 20
-11.39616294397395
 10
7.454496054596953
 20
-11.48753337673015
 10
7.454414836434201
 20
-11.58015456918838
 10
7.454366105536766
 20
-11.66808135185652
 10
7.490004635220076
 20
-11.75184976460741
 10
7.554783830072463
 20
-11.81602835657532
 10
7.619466386165085
 20
-11.8800282685859
 10
7.707880062423101
 20
-11.91673887801337
 10
7.800956074239416
 20
-11.91673887801337
 10
7.988716217447998
 20
-11.91467593668696
 10
8.146247387815542
 20
-11.75534214559285
 10
8.144996201686252
 20
-11.56873529554771
 10
8.143664223855719
 20
-11.38448377221382
 10
7.988001497636509
 20
-11.22800886043781
 10
7.805065713155575
 20
-11.22706672975326
 97
        0
 97
        0
 75
     2
 76
     1
 98
        0
  0
SPLINE
  5
56
330
1F
100
AcDbEntity
  8
Layer 1
370
     0
100
AcDbSpline
210
0.0
220
0.0
230
1.0
 70
    11
 71
     3
 72
    26
 73
    22
 74
     0
 42
0.0000000001
 43
0.0000000001
 12
1.0
 22
0.0
 32
0.0
 13
1.0
 23
0.0
 33
0.0
 40
0.0
 40
0.0
 40
0.0
 40
0.0
 40
1.0
 40
1.0
 40
1.0
 40
2.0
 40
2.0
 40
2.0
 40
3.0
 40
3.0
 40
3.0
 40
4.0
 40
4.0
 40
4.0
 40
5.0
 40
5.0
 40
5.0
 40
6.0
 40
6.0
 40
6.0
 40
7.0
 40
7.0
 40
7.0
 40
7.0
 10
9.2139571415833
 20
0.083195893069463
 30
0.0
 10
9.119289253823151
 20
0.0849502053783782
 30
0.0
 10
9.03212592408378
 20
0.0512771552266334
 30
0.0
 10
8.966306726897074
 20
-0.0128527058438597
 30
0.0
 10
8.90050377334243
 20
-0.0768851051193577
 30
0.0
 10
8.864020575691585
 20
-0.163837269838344
 30
0.0
 10
8.863598241257503
 20
-0.2578229274253974
 30
0.0
 10
8.862834790549742
 20
-0.4470937331988251
 30
0.0
 10
9.009466057332675
 20
-0.598516875270396
 30
0.0
 10
9.197437367758285
 20
-0.6025777833929926
 30
0.0
 10
9.197437367758285
 20
-0.6025777833929926
 30
0.0
 10
9.205023143939494
 20
-0.6026427579229346
 30
0.0
 10
9.205023143939494
 20
-0.6026427579229346
 30
0.0
 10
9.29511032745318
 20
-0.6026427579229346
 30
0.0
 10
9.380064523229697
 20
-0.5682062570440772
 30
0.0
 10
9.444194382680127
 20
-0.5057170028551481
 30
0.0
 10
9.510419670668826
 20
-0.4412297818699042
 30
0.0
 10
9.547146522800883
 20
-0.3543588353133676
 30
0.0
 10
9.547633831763278
 20
-0.2610716539234722
 30
0.0
 10
9.548543475159729
 20
-0.0721906953298609
 30
0.0
 10
9.401880179291714
 20
0.0790375231520354
 30
0.0
 10
9.2139571415833
 20
0.083195893069463
 30
0.0
  0
HATCH
  5
58
330
1F
100
AcDbEntity
  8
Layer 1
 62
     7
420
 16777215
100
AcDbHatch
 10
0.0
 20
0.0
 30
0.0
210
0.0
220
0.0
230
1.0
  2
SOLID
 70
     1
 71
     0
 91
        2
 92
        1
 93
        1
 72
     4
 94
        3
 73
     0
 74
     1
 95
       26
 96
       22
 40
0.0
 40
0.0
 40
0.0
 40
0.0
 40
1.0
 40
1.0
 40
1.0
 40
2.0
 40
2.0
 40
2.0
 40
3.0
 40
3.0
 40
3.0
 40
4.0
 40
4.0
 40
4.0
 40
5.0
 40
5.0
 40
5.0
 40
6.0
 40
6.0
 40
6.0
 40
7.0
 40
7.0
 40
7.0
 40
7.0
 10
9.2139571415833
 20
0.083195893069463
 10
9.119289253823151
 20
0.0849502053783782
 10
9.03212592408378
 20
0.0512771552266334
 10
8.966306726897074
 20
-0.0128527058438597
 10
8.90050377334243
 20
-0.0768851051193577
 10
8.864020575691585
 20
-0.163837269838344
 10
8.863598241257503
 20
-0.2578229274253974
 10
8.862834790549742
 20
-0.4470937331988251
 10
9.009466057332675
 20
-0.598516875270396
 10
9.197437367758285
 20
-0.6025777833929926
 10
9.197437367758285
 20
-0.6025777833929926
 10
9.205023143939494
 20
-0.6026427579229346
 10
9.205023143939494
 20
-0.6026427579229346
 10
9.29511032745318
 20
-0.6026427579229346
 10
9.380064523229697
 20
-0.5682062570440772
 10
9.444194382680127
 20
-0.5057170028551481
 10
9.510419670668826
 20
-0.4412297818699042
 10
9.547146522800883
 20
-0.3543588353133676
 10
9.547633831763278
 20
-0.2610716539234722
 10
9.548543475159729
 20
-0.0721906953298609
 10
9.401880179291714
 20
0.0790375231520354
 10
9.2139571415833
 20
0.083195893069463
 97
        0
 97
        0
 92
        1
 93
        1
 72
     4
 94
        3
 73
     0
 74
     1
 95
       14
 96
       10
 40
0.0
 40
0.0
 40
0.0
 40
0.0
 40
1.0
 40
1.0
 40
1.0
 40
2.0
 40
2.0
 40
2.0
 40
3.0
 40
3.0
 40
3.0
 40
3.0
 10
9.199971827441054
 20
-0.4859809893797799
 10
9.199971827441054
 20
-0.4859809893797799
 10
9.199971827441054
 20
-0.4859809893797799
 10
9.199971827441054
 20
-0.4859809893797799
 10
9.199971827441054
 20
-0.4859809893797799
 10
9.199971827441054
 20
-0.4859809893797799
 10
9.199971827441054
 20
-0.4859809893797799
 10
9.199971827441054
 20
-0.4859809893797799
 10
9.199971827441054
 20
-0.4859809893797799
 10
9.199971827441054
 20
-0.4859809893797799
 97
        0
 97
        0
 75
     2
 76
     1
 98
        0
  0
SPLINE
  5
59
330
1F
100
AcDbEntity
  8
Layer 1
370
     0
100
AcDbSpline
210
0.0
220
0.0
230
1.0
 70
    11
 71
     3
 72
    26
 73
    22
 74
     0
 42
0.0000000001
 43
0.0000000001
 12
1.0
 22
0.0
 32
0.0
 13
1.0
 23
0.0
 33
0.0
 40
0.0
 40
0.0
 40
0.0
 40
0.0
 40
1.0
 40
1.0
 40
1.0
 40
2.0
 40
2.0
 40
2.0
 40
3.0
 40
3.0
 40
3.0
 40
4.0
 40
4.0
 40
4.0
 40
5.0
 40
5.0
 40
5.0
 40
6.0
 40
6.0
 40
6.0
 40
7.0
 40
7.0
 40
7.0
 40
7.0
 10
11.54123104052976
 20
-2.230157271625027
 30
0.0
 10
11.35743434354862
 20
-2.232934932780823
 30
0.0
 10
11.20571881992477
 20
-2.38689208152093
 30
0.0
 10
11.20305486426373
 20
-2.573368982506041
 30
0.0
 10
11.2017066428011
 20
-2.664625709834733
 30
0.0
 10
11.23645177181945
 20
-2.751155540109014
 30
0.0
 10
11.30093899117562
 20
-2.817088444385844
 30
0.0
 10
11.36508560203212
 20
-2.882631501482857
 30
0.0
 10
11.45031543178003
 20
-2.919147187320353
 30
0.0
 10
11.5434406867719
 20
-2.9198781507824
 30
0.0
 10
11.63390096154414
 20
-2.9198781507824
 30
0.0
 10
11.71903435398902
 20
-2.884483275586768
 30
0.0
 10
11.78306623493149
 20
-2.820369658148807
 30
0.0
 10
11.84950269013719
 20
-2.754046906692174
 30
0.0
 10
11.88569402333597
 20
-2.665129262441901
 30
0.0
 10
11.8850112698633
 20
-2.570039037845504
 30
0.0
 10
11.88434528094803
 20
-2.477385358122673
 30
0.0
 10
11.84768392330936
 20
-2.39082304058349
 30
0.0
 10
11.78165303894053
 20
-2.32622211417087
 30
0.0
 10
11.71661353609367
 20
-2.262725754767442
 30
0.0
 10
11.63068472239234
 20
-2.228581639273418
 30
0.0
 10
11.54123104052976
 20
-2.230157271625027
 30
0.0
  0
HATCH
  5
5A
330
1F
100
AcDbEntity
  8
Layer 1
 62
     7
420
 16777215
100
AcDbHatch
 10
0.0
 20
0.0
 30
0.0
210
0.0
220
0.0
230
1.0
  2
SOLID
 70
     1
 71
     0
 91
        1
 92
        1
 93
        1
 72
     4
 94
        3
 73
     0
 74
     1
 95
       26
 96
       22
 40
0.0
 40
0.0
 40
0.0
 40
0.0
 40
1.0
 40
1.0
 40
1.0
 40
2.0
 40
2.0
 40
2.0
 40
3.0
 40
3.0
 40
3.0
 40
4.0
 40
4.0
 40
4.0
 40
5.0
 40
5.0
 40
5.0
 40
6.0
 40
6.0
 40
6.0
 40
7.0
 40
7.0
 40
7.0
 40
7.0
 10
11.54123104052976
 20
-2.230157271625027
 10
11.35743434354862
 20
-2.232934932780823
 10
11.20571881992477
 20
-2.38689208152093
 10
11.20305486426373
 20
-2.573368982506041
 10
11.2017066428011
 20
-2.664625709834733
 10
11.23645177181945
 20
-2.751155540109014
 10
11.30093899117562
 20
-2.817088444385844
 10
11.36508560203212
 20
-2.882631501482857
 10
11.45031543178003
 20
-2.919147187320353
 10
11.5434406867719
 20
-2.9198781507824
 10
11.63390096154414
 20
-2.9198781507824
 10
11.71903435398902
 20
-2.884483275586768
 10
11.78306623493149
 20
-2.820369658148807
 10
11.84950269013719
 20
-2.754046906692174
 10
11.88569402333597
 20
-2.665129262441901
 10
11.8850112698633
 20
-2.570039037845504
 10
11.88434528094803
 20
-2.477385358122673
 10
11.84768392330936
 20
-2.39082304058349
 10
11.78165303894053
 20
-2.32622211417087
 10
11.71661353609367
 20
-2.262725754767442
 10
11.63068472239234
 20
-2.228581639273418
 10
11.54123104052976
 20
-2.230157271625027
 97
        0
 97
        0
 75
     2
 76
     1
 98
        0
  0
SPLINE
  5
5B
330
1F
100
AcDbEntity
  8
Layer 1
370
     0
100
AcDbSpline
210
0.0
220
0.0
230
1.0
 70
    11
 71
     3
 72
    26
 73
    22
 74
     0
 42
0.0000000001
 43
0.0000000001
 12
1.0
 22
0.0
 32
0.0
 13
1.0
 23
0.0
 33
0.0
 40
0.0
 40
0.0
 40
0.0
 40
0.0
 40
1.0
 40
1.0
 40
1.0
 40
2.0
 40
2.0
 40
2.0
 40
3.0
 40
3.0
 40
3.0
 40
4.0
 40
4.0
 40
4.0
 40
5.0
 40
5.0
 40
5.0
 40
6.0
 40
6.0
 40
6.0
 40
7.0
 40
7.0
 40
7.0
 40
7.0
 10
12.27744117727535
 20
-5.967539341456156
 30
0.0
 10
12.27744117727535
 20
-5.967539341456156
 30
0.0
 10
12.27622290486938
 20
-5.967482488742399
 30
0.0
 10
12.27622290486938
 20
-5.967482488742399
 30
0.0
 10
12.18239968597739
 20
-5.965916602570474
 30
0.0
 10
12.0939693529358
 20
-5.998801836546426
 30
0.0
 10
12.02785777037166
 20
-6.062096774906877
 30
0.0
 10
11.96095024983563
 20
-6.126047956019925
 30
0.0
 10
11.92350867789203
 20
-6.212662253183074
 30
0.0
 10
11.9223553800144
 20
-6.306167099248468
 30
0.0
 10
11.92034116963653
 20
-6.493719328704426
 30
0.0
 10
12.0708221772223
 20
-6.648982465496702
 30
0.0
 10
12.25783564368183
 20
-6.652314034520461
 30
0.0
 10
12.25783564368183
 20
-6.652314034520461
 30
0.0
 10
12.26412139897007
 20
-6.65234164869571
 30
0.0
 10
12.26412139897007
 20
-6.65234164869571
 30
0.0
 10
12.45027342260275
 20
-6.65234164869571
 30
0.0
 10
12.60013717216953
 20
-6.50610509847805
 30
0.0
 10
12.6052539162746
 20
-6.319407284091059
 30
0.0
 10
12.61053309670049
 20
-6.128724906654295
 30
0.0
 10
12.46653329831446
 20
-5.97414400242653
 30
0.0
 10
12.27744117727535
 20
-5.967539341456156
 30
0.0
  0
HATCH
  5
5C
330
1F
100
AcDbEntity
  8
Layer 1
 62
     7
420
 16777215
100
AcDbHatch
 10
0.0
 20
0.0
 30
0.0
210
0.0
220
0.0
230
1.0
  2
SOLID
 70
     1
 71
     0
 91
        1
 92
        1
 93
        1
 72
     4
 94
        3
 73
     0
 74
     1
 95
       26
 96
       22
 40
0.0
 40
0.0
 40
0.0
 40
0.0
 40
1.0
 40
1.0
 40
1.0
 40
2.0
 40
2.0
 40
2.0
 40
3.0
 40
3.0
 40
3.0
 40
4.0
 40
4.0
 40
4.0
 40
5.0
 40
5.0
 40
5.0
 40
6.0
 40
6.0
 40
6.0
 40
7.0
 40
7.0
 40
7.0
 40
7.0
 10
12.27744117727535
 20
-5.967539341456156
 10
12.27744117727535
 20
-5.967539341456156
 10
12.27622290486938
 20
-5.967482488742399
 10
12.27622290486938
 20
-5.967482488742399
 10
12.18239968597739
 20
-5.965916602570474
 10
12.0939693529358
 20
-5.998801836546426
 10
12.02785777037166
 20
-6.062096774906877
 10
11.96095024983563
 20
-6.126047956019925
 10
11.92350867789203
 20
-6.212662253183074
 10
11.9223553800144
 20
-6.306167099248468
 10
11.92034116963653
 20
-6.493719328704426
 10
12.0708221772223
 20
-6.648982465496702
 10
12.25783564368183
 20
-6.652314034520461
 10
12.25783564368183
 20
-6.652314034520461
 10
12.26412139897007
 20
-6.65234164869571
 10
12.26412139897007
 20
-6.65234164869571
 10
12.45027342260275
 20
-6.65234164869571
 10
12.60013717216953
 20
-6.50610509847805
 10
12.6052539162746
 20
-6.319407284091059
 10
12.61053309670049
 20
-6.128724906654295
 10
12.46653329831446
 20
-5.97414400242653
 10
12.27744117727535
 20
-5.967539341456156
 97
        0
 97
        0
 75
     2
 76
     1
 98
        0
  0
SPLINE
  5
5D
330
1F
100
AcDbEntity
  8
Layer 1
370
     0
100
AcDbSpline
210
0.0
220
0.0
230
1.0
 70
    11
 71
     3
 72
    26
 73
    22
 74
     0
 42
0.0000000001
 43
0.0000000001
 12
1.0
 22
0.0
 32
0.0
 13
1.0
 23
0.0
 33
0.0
 40
0.0
 40
0.0
 40
0.0
 40
0.0
 40
1.0
 40
1.0
 40
1.0
 40
2.0
 40
2.0
 40
2.0
 40
3.0
 40
3.0
 40
3.0
 40
4.0
 40
4.0
 40
4.0
 40
5.0
 40
5.0
 40
5.0
 40
6.0
 40
6.0
 40
6.0
 40
7.0
 40
7.0
 40
7.0
 40
7.0
 10
11.2087401354916
 20
-9.530354341644044
 30
0.0
 10
11.2087401354916
 20
-9.530354341644044
 30
0.0
 10
11.20378633140616
 20
-9.530354341644044
 30
0.0
 10
11.20378633140616
 20
-9.530354341644044
 30
0.0
 10
11.01868964015977
 20
-9.530354341644044
 30
0.0
 10
10.86544721512044
 20
-9.68109525115114
 30
0.0
 10
10.86216600144035
 20
-9.866370123331762
 30
0.0
 10
10.86055837689304
 20
-9.956733450873621
 30
0.0
 10
10.89457204743924
 20
-10.04261353584803
 30
0.0
 10
10.95792221254982
 20
-10.10812410568044
 30
0.0
 10
11.0216297375662
 20
-10.17402452269223
 30
0.0
 10
11.10692504961639
 20
-10.21112497929936
 30
0.0
 10
11.20355841685816
 20
-10.21260314985582
 30
0.0
 10
11.29262225155086
 20
-10.21260314985582
 30
0.0
 10
11.37679675298755
 20
-10.17841030346451
 30
0.0
 10
11.44052052163599
 20
-10.11642460188293
 30
0.0
 10
11.50591789572005
 20
-10.05292824247918
 30
0.0
 10
11.54262850514753
 20
-9.96773039006929
 30
0.0
 10
11.54387875255876
 20
-9.876587368168101
 30
0.0
 10
11.54654270821981
 20
-9.688502347566503
 30
0.0
 10
11.39620789332273
 20
-9.53318073369711
 30
0.0
 10
11.2087401354916
 20
-9.530354341644044
 30
0.0
  0
HATCH
  5
5E
330
1F
100
AcDbEntity
  8
Layer 1
 62
     7
420
 16777215
100
AcDbHatch
 10
0.0
 20
0.0
 30
0.0
210
0.0
220
0.0
230
1.0
  2
SOLID
 70
     1
 71
     0
 91
        1
 92
        1
 93
        1
 72
     4
 94
        3
 73
     0
 74
     1
 95
       26
 96
       22
 40
0.0
 40
0.0
 40
0.0
 40
0.0
 40
1.0
 40
1.0
 40
1.0
 40
2.0
 40
2.0
 40
2.0
 40
3.0
 40
3.0
 40
3.0
 40
4.0
 40
4.0
 40
4.0
 40
5.0
 40
5.0
 40
5.0
 40
6.0
 40
6.0
 40
6.0
 40
7.0
 40
7.0
 40
7.0
 40
7.0
 10
11.2087401354916
 20
-9.530354341644044
 10
11.2087401354916
 20
-9.530354341644044
 10
11.20378633140616
 20
-9.530354341644044
 10
11.20378633140616
 20
-9.530354341644044
 10
11.01868964015977
 20
-9.530354341644044
 10
10.86544721512044
 20
-9.68109525115114
 10
10.86216600144035
 20
-9.866370123331762
 10
10.86055837689304
 20
-9.956733450873621
 10
10.89457204743924
 20
-10.04261353584803
 10
10.95792221254982
 20
-10.10812410568044
 10
11.0216297375662
 20
-10.17402452269223
 10
11.10692504961639
 20
-10.21112497929936
 10
11.20355841685816
 20
-10.21260314985582
 10
11.29262225155086
 20
-10.21260314985582
 10
11.37679675298755
 20
-10.17841030346451
 10
11.44052052163599
 20
-10.11642460188293
 10
11.50591789572005
 20
-10.05292824247918
 10
11.54262850514753
 20
-9.96773039006929
 10
11.54387875255876
 20
-9.876587368168101
 10
11.54654270821981
 20
-9.688502347566503
 10
11.39620789332273
 20
-9.53318073369711
 10
11.2087401354916
 20
-9.530354341644044
 97
        0
 97
        0
 75
     2
 76
     1
 98
        0
  0
SPLINE
  5
5F
330
1F
100
AcDbEntity
  8
Layer 1
370
     0
100
AcDbSpline
210
0.0
220
0.0
230
1.0
 70
    11
 71
     3
 72
    26
 73
    22
 74
     0
 42
0.0000000001
 43
0.0000000001
 12
1.0
 22
0.0
 32
0.0
 13
1.0
 23
0.0
 33
0.0
 40
0.0
 40
0.0
 40
0.0
 40
0.0
 40
1.0
 40
1.0
 40
1.0
 40
2.0
 40
2.0
 40
2.0
 40
3.0
 40
3.0
 40
3.0
 40
4.0
 40
4.0
 40
4.0
 40
5.0
 40
5.0
 40
5.0
 40
6.0
 40
6.0
 40
6.0
 40
7.0
 40
7.0
 40
7.0
 40
7.0
 10
3.947040978297991
 20
-11.20003732528991
 30
0.0
 10
3.947040978297991
 20
-11.20003732528991
 30
0.0
 10
3.946293771203424
 20
-11.20003732528991
 30
0.0
 10
3.946293771203424
 20
-11.20003732528991
 30
0.0
 10
3.759930575645967
 20
-11.20003732528991
 30
0.0
 10
3.606119619598113
 20
-11.3511518383443
 30
0.0
 10
3.603455663869694
 20
-11.53684904496994
 30
0.0
 10
3.602139929638143
 20
-11.62690374349429
 30
0.0
 10
3.63503328543028
 20
-11.71067215624516
 30
0.0
 10
3.696158074490098
 20
-11.77288526868208
 30
0.0
 10
3.759703164791239
 20
-11.83737248966718
 30
0.0
 10
3.848182230963983
 20
-11.87299477571784
 30
0.0
 10
3.945579051374188
 20
-11.87310848114506
 30
0.0
 10
4.042244908321891
 20
-11.87310848114506
 30
0.0
 10
4.130691487229885
 20
-11.83774609321446
 30
0.0
 10
4.194512719283176
 20
-11.77356750124656
 30
0.0
 10
4.255881162830393
 20
-11.71203662137441
 30
0.0
 10
4.289472994819688
 20
-11.62883673576082
 30
0.0
 10
4.289131878537142
 20
-11.53931807710837
 30
0.0
 10
4.288400915075246
 20
-11.35584624813408
 30
0.0
 10
4.131731079709286
 20
-11.20047590336728
 30
0.0
 10
3.947040978297991
 20
-11.20003732528991
 30
0.0
  0
HATCH
  5
60
330
1F
100
AcDbEntity
  8
Layer 1
 62
     7
420
 16777215
100
AcDbHatch
 10
0.0
 20
0.0
 30
0.0
210
0.0
220
0.0
230
1.0
  2
SOLID
 70
     1
 71
     0
 91
        1
 92
        1
 93
        1
 72
     4
 94
        3
 73
     0
 74
     1
 95
       26
 96
       22
 40
0.0
 40
0.0
 40
0.0
 40
0.0
 40
1.0
 40
1.0
 40
1.0
 40
2.0
 40
2.0
 40
2.0
 40
3.0
 40
3.0
 40
3.0
 40
4.0
 40
4.0
 40
4.0
 40
5.0
 40
5.0
 40
5.0
 40
6.0
 40
6.0
 40
6.0
 40
7.0
 40
7.0
 40
7.0
 40
7.0
 10
3.947040978297991
 20
-11.20003732528991
 10
3.947040978297991
 20
-11.20003732528991
 10
3.946293771203424
 20
-11.20003732528991
 10
3.946293771203424
 20
-11.20003732528991
 10
3.759930575645967
 20
-11.20003732528991
 10
3.606119619598113
 20
-11.3511518383443
 10
3.603455663869694
 20
-11.53684904496994
 10
3.602139929638143
 20
-11.62690374349429
 10
3.63503328543028
 20
-11.71067215624516
 10
3.696158074490098
 20
-11.77288526868208
 10
3.759703164791239
 20
-11.83737248966718
 10
3.848182230963983
 20
-11.87299477571784
 10
3.945579051374188
 20
-11.87310848114506
 10
4.042244908321891
 20
-11.87310848114506
 10
4.130691487229885
 20
-11.83774609321446
 10
4.194512719283176
 20
-11.77356750124656
 10
4.255881162830393
 20
-11.71203662137441
 10
4.289472994819688
 20
-11.62883673576082
 10
4.289131878537142
 20
-11.53931807710837
 10
4.288400915075246
 20
-11.35584624813408
 10
4.131731079709286
 20
-11.20047590336728
 10
3.947040978297991
 20
-11.20003732528991
 97
        0
 97
        0
 75
     2
 76
     1
 98
        0
  0
SPLINE
  5
61
330
1F
100
AcDbEntity
  8
Layer 1
370
     0
100
AcDbSpline
210
0.0
220
0.0
230
1.0
 70
    11
 71
     3
 72
    29
 73
    25
 74
     0
 42
0.0000000001
 43
0.0000000001
 12
1.0
 22
0.0
 32
0.0
 13
1.0
 23
0.0
 33
0.0
 40
0.0
 40
0.0
 40
0.0
 40
0.0
 40
1.0
 40
1.0
 40
1.0
 40
2.0
 40
2.0
 40
2.0
 40
3.0
 40
3.0
 40
3.0
 40
4.0
 40
4.0
 40
4.0
 40
5.0
 40
5.0
 40
5.0
 40
6.0
 40
6.0
 40
6.0
 40
7.0
 40
7.0
 40
7.0
 40
8.0
 40
8.0
 40
8.0
 40
8.0
 10
1.077294669923882
 20
-8.845295385010962
 30
0.0
 10
1.077294669923882
 20
-8.845295385010962
 30
0.0
 10
1.074988074110668
 20
-8.845246654113554
 30
0.0
 10
1.074988074110668
 20
-8.845246654113554
 30
0.0
 10
0.984770939261087
 20
-8.842160363940415
 30
0.0
 10
0.8990857778763559
 20
-8.876304479434616
 30
0.0
 10
0.8345498259935387
 20
-8.937348050331668
 30
0.0
 10
0.7672849438527893
 20
-9.001071820590115
 30
0.0
 10
0.7293560619883313
 20
-9.087114341889748
 30
0.0
 10
0.7278291605344344
 20
-9.179508123492672
 30
0.0
 10
0.7245479467716096
 20
-9.365692639092787
 30
0.0
 10
0.8718939370883668
 20
-9.522979732493441
 30
0.0
 10
1.057250027431476
 20
-9.530159418054053
 30
0.0
 10
1.057250027431476
 20
-9.530159418054053
 30
0.0
 10
1.069042904619121
 20
-9.530354341644044
 30
0.0
 10
1.069042904619121
 20
-9.530354341644044
 30
0.0
 10
1.154403193354281
 20
-9.530354341644044
 30
0.0
 10
1.23623861383861
 20
-9.49744474221926
 30
0.0
 10
1.299442587857218
 20
-9.437684418288375
 30
0.0
 10
1.365879044741228
 20
-9.374919022347159
 30
0.0
 10
1.404912493614878
 20
-9.286911021516566
 30
0.0
 10
1.406569344128671
 20
-9.196092872264948
 30
0.0
 10
1.409801826994365
 20
-9.009648458544739
 30
0.0
 10
1.262098476762693
 20
-8.852296390614304
 30
0.0
 10
1.077294669923882
 20
-8.845295385010962
 30
0.0
  0
HATCH
  5
62
330
1F
100
AcDbEntity
  8
Layer 1
 62
     7
420
 16777215
100
AcDbHatch
 10
0.0
 20
0.0
 30
0.0
210
0.0
220
0.0
230
1.0
  2
SOLID
 70
     1
 71
     0
 91
        1
 92
        1
 93
        1
 72
     4
 94
        3
 73
     0
 74
     1
 95
       29
 96
       25
 40
0.0
 40
0.0
 40
0.0
 40
0.0
 40
1.0
 40
1.0
 40
1.0
 40
2.0
 40
2.0
 40
2.0
 40
3.0
 40
3.0
 40
3.0
 40
4.0
 40
4.0
 40
4.0
 40
5.0
 40
5.0
 40
5.0
 40
6.0
 40
6.0
 40
6.0
 40
7.0
 40
7.0
 40
7.0
 40
8.0
 40
8.0
 40
8.0
 40
8.0
 10
1.077294669923882
 20
-8.845295385010962
 10
1.077294669923882
 20
-8.845295385010962
 10
1.074988074110668
 20
-8.845246654113554
 10
1.074988074110668
 20
-8.845246654113554
 10
0.984770939261087
 20
-8.842160363940415
 10
0.8990857778763559
 20
-8.876304479434616
 10
0.8345498259935387
 20
-8.937348050331668
 10
0.7672849438527893
 20
-9.001071820590115
 10
0.7293560619883313
 20
-9.087114341889748
 10
0.7278291605344344
 20
-9.179508123492672
 10
0.7245479467716096
 20
-9.365692639092787
 10
0.8718939370883668
 20
-9.522979732493441
 10
1.057250027431476
 20
-9.530159418054053
 10
1.057250027431476
 20
-9.530159418054053
 10
1.069042904619121
 20
-9.530354341644044
 10
1.069042904619121
 20
-9.530354341644044
 10
1.154403193354281
 20
-9.530354341644044
 10
1.23623861383861
 20
-9.49744474221926
 10
1.299442587857218
 20
-9.437684418288375
 10
1.365879044741228
 20
-9.374919022347159
 10
1.404912493614878
 20
-9.286911021516566
 10
1.406569344128671
 20
-9.196092872264948
 10
1.409801826994365
 20
-9.009648458544739
 10
1.262098476762693
 20
-8.852296390614304
 10
1.077294669923882
 20
-8.845295385010962
 97
        0
 97
        0
 75
     2
 76
     1
 98
        0
  0
ENDSEC
  0
SECTION
  2
OBJECTS
  0
DICTIONARY
  5
C
330
0
100
AcDbDictionary
281
     1
  3
ACAD_GROUP
350
D
  3
ACAD_LAYOUT
350
1A
  3
ACAD_MATERIAL
350
3B
  3
ACAD_MLEADERSTYLE
350
64
  3
ACAD_MLINESTYLE
350
17
  3
ACAD_PLOTSETTINGS
350
19
  3
ACAD_PLOTSTYLENAME
350
E
  3
ACAD_TABLESTYLE
350
63
  3
ACAD_VISUALSTYLE
350
2A
  0
SUN
  5
3F
330
29
100
AcDbSun
 90
        1
290
     0
 63
     7
421
 16777215
 40
1.0
291
     1
 91
  2455826
 92
 54000000
292
     0
 70
     2
 71
   256
280
     1
  0
DICTIONARY
  5
D
102
{ACAD_REACTORS
330
C
102
}
330
C
100
AcDbDictionary
281
     1
  0
DICTIONARY
  5
1A
102
{ACAD_REACTORS
330
C
102
}
330
C
100
AcDbDictionary
281
     1
  3
Layout1
350
1E
  3
Layout2
350
26
  3
Model
350
22
  0
DICTIONARY
  5
3B
102
{ACAD_REACTORS
330
C
102
}
330
C
100
AcDbDictionary
281
     1
  3
ByBlock
350
3D
  3
ByLayer
350
3C
  3
Global
350
3E
  0
DICTIONARY
  5
64
102
{ACAD_REACTORS
330
C
102
}
330
C
100
AcDbDictionary
281
     1
  0
DICTIONARY
  5
17
102
{ACAD_REACTORS
330
C
102
}
330
C
100
AcDbDictionary
281
     1
  3
Standard
350
18
  0
DICTIONARY
  5
19
102
{ACAD_REACTORS
330
C
102
}
330
C
100
AcDbDictionary
281
     1
  0
ACDBDICTIONARYWDFLT
  5
E
102
{ACAD_REACTORS
330
C
102
}
330
C
100
AcDbDictionary
281
     1
  3
Normal
350
F
100
AcDbDictionaryWithDefault
340
F
  0
DICTIONARY
  5
63
102
{ACAD_REACTORS
330
C
102
}
330
C
100
AcDbDictionary
281
     1
  0
DICTIONARY
  5
2A
102
{ACAD_REACTORS
330
C
102
}
330
C
100
AcDbDictionary
281
     1
  3
2dWireframe
350
2F
  3
3D Hidden
350
31
  3
3dWireframe
350
30
  3
Basic
350
32
  3
Brighten
350
36
  3
ColorChange
350
3A
  3
Conceptual
350
34
  3
Dim
350
35
  3
Facepattern
350
39
  3
Flat
350
2B
  3
FlatWithEdges
350
2C
  3
Gouraud
350
2D
  3
GouraudWithEdges
350
2E
  3
Linepattern
350
38
  3
Realistic
350
33
  3
Thicken
350
37
  0
LAYOUT
  5
1E
102
{ACAD_REACTORS
330
1A
102
}
330
1A
100
AcDbPlotSettings
  1

  2
none_device
  4

  6

 40
0.0
 41
0.0
 42
0.0
 43
0.0
 44
0.0
 45
0.0
 46
0.0
 47
0.0
 48
0.0
 49
0.0
140
0.0
141
0.0
142
1.0
143
1.0
 70
   688
 72
     0
 73
     0
 74
     5
  7

 75
    16
 76
     0
 77
     2
 78
   300
147
1.0
148
0.0
149
0.0
100
AcDbLayout
  1
Layout1
 70
     1
 71
     1
 10
0.0
 20
0.0
 11
12.0
 21
9.0
 12
0.0
 22
0.0
 32
0.0
 14
1.000000000000000E+20
 24
1.000000000000000E+20
 34
1.000000000000000E+20
 15
-1.000000000000000E+20
 25
-1.000000000000000E+20
 35
-1.000000000000000E+20
146
0.0
 13
0.0
 23
0.0
 33
0.0
 16
1.0
 26
0.0
 36
0.0
 17
0.0
 27
1.0
 37
0.0
 76
     0
330
1B
  0
LAYOUT
  5
26
102
{ACAD_REACTORS
330
1A
102
}
330
1A
100
AcDbPlotSettings
  1

  2
none_device
  4

  6

 40
0.0
 41
0.0
 42
0.0
 43
0.0
 44
0.0
 45
0.0
 46
0.0
 47
0.0
 48
0.0
 49
0.0
140
0.0
141
0.0
142
1.0
143
1.0
 70
   688
 72
     0
 73
     0
 74
     5
  7

 75
    16
 76
     0
 77
     2
 78
   300
147
1.0
148
0.0
149
0.0
100
AcDbLayout
  1
Layout2
 70
     1
 71
     2
 10
0.0
 20
0.0
 11
0.0
 21
0.0
 12
0.0
 22
0.0
 32
0.0
 14
0.0
 24
0.0
 34
0.0
 15
0.0
 25
0.0
 35
0.0
146
0.0
 13
0.0
 23
0.0
 33
0.0
 16
1.0
 26
0.0
 36
0.0
 17
0.0
 27
1.0
 37
0.0
 76
     0
330
23
  0
LAYOUT
  5
22
102
{ACAD_REACTORS
330
1A
102
}
330
1A
100
AcDbPlotSettings
  1

  2
none_device
  4

  6

 40
0.0
 41
0.0
 42
0.0
 43
0.0
 44
0.0
 45
0.0
 46
0.0
 47
0.0
 48
0.0
 49
0.0
140
0.0
141
0.0
142
1.0
143
1.0
 70
  1712
 72
     0
 73
     0
 74
     0
  7

 75
     0
 76
     0
 77
     2
 78
   300
147
1.0
148
0.0
149
0.0
100
AcDbLayout
  1
Model
 70
     1
 71
     0
 10
0.0
 20
0.0
 11
12.0
 21
9.0
 12
0.0
 22
0.0
 32
0.0
 14
1.000000000000000E+20
 24
1.000000000000000E+20
 34
1.000000000000000E+20
 15
-1.000000000000000E+20
 25
-1.000000000000000E+20
 35
-1.000000000000000E+20
146
0.0
 13
0.0
 23
0.0
 33
0.0
 16
1.0
 26
0.0
 36
0.0
 17
0.0
 27
1.0
 37
0.0
 76
     0
330
1F
331
29
  0
MATERIAL
  5
3D
102
{ACAD_REACTORS
330
3B
102
}
330
3B
100
AcDbMaterial
  1
ByBlock
 72
     1
 94
      127
  0
MATERIAL
  5
3C
102
{ACAD_REACTORS
330
3B
102
}
330
3B
100
AcDbMaterial
  1
ByLayer
 72
     1
 94
      127
  0
MATERIAL
  5
3E
102
{ACAD_REACTORS
330
3B
102
}
330
3B
100
AcDbMaterial
  1
Global
 72
     1
 94
      127
  0
MLINESTYLE
  5
18
102
{ACAD_REACTORS
330
17
102
}
330
17
100
AcDbMlineStyle
  2
Standard
 70
     0
  3

 62
   256
 51
90.0
 52
90.0
 71
     2
 49
0.5
 62
   256
  6
BYLAYER
 49
-0.5
 62
   256
  6
BYLAYER
  0
ACDBPLACEHOLDER
  5
F
102
{ACAD_REACTORS
330
E
102
}
330
E
  0
VISUALSTYLE
  5
2F
102
{ACAD_REACTORS
330
2A
102
}
330
2A
100
AcDbVisualStyle
  2
2dWireframe
 70
     4
177
     2
291
     0
 71
     0
176
     1
 72
     2
176
     1
 73
     0
176
     1
 90
        0
176
     1
 40
-0.6
176
     1
 41
-30.0
176
     1
 62
     5
 63
     7
421
 16777215
176
     1
 74
     1
176
     1
 91
        4
176
     1
 64
     7
176
     1
 65
   257
176
     1
 75
     1
176
     1
175
     1
176
     1
 42
1.0
176
     1
 92
        0
176
     1
 66
   257
176
     1
 43
1.0
176
     1
 76
     1
176
     1
 77
     6
176
     1
 78
     2
176
     1
 67
     7
176
     1
 79
     5
176
     1
170
     0
176
     1
171
     0
176
     1
290
     0
176
     1
 93
        1
176
     1
 44
0.0
176
     1
173
     0
176
     1
  0
VISUALSTYLE
  5
31
102
{ACAD_REACTORS
330
2A
102
}
330
2A
100
AcDbVisualStyle
  2
3D Hidden
 70
     6
177
     2
291
     0
 71
     1
176
     1
 72
     2
176
     1
 73
     2
176
     1
 90
        0
176
     1
 40
-0.6
176
     1
 41
-30.0
176
     1
 62
     5
 63
     7
421
 16777215
176
     1
 74
     2
176
     1
 91
        2
176
     1
 64
     7
176
     1
 65
   257
176
     1
 75
     2
176
     1
175
     1
176
     1
 42
40.0
176
     1
 92
        0
176
     1
 66
   257
176
     1
 43
1.0
176
     1
 76
     1
176
     1
 77
     6
176
     1
 78
     2
176
     1
 67
     7
176
     1
 79
     3
176
     1
170
     0
176
     1
171
     0
176
     1
290
     0
176
     1
 93
        1
176
     1
 44
0.0
176
     1
173
     0
176
     1
  0
VISUALSTYLE
  5
30
102
{ACAD_REACTORS
330
2A
102
}
330
2A
100
AcDbVisualStyle
  2
3dWireframe
 70
     5
177
     2
291
     0
 71
     0
176
     1
 72
     2
176
     1
 73
     0
176
     1
 90
        0
176
     1
 40
-0.6
176
     1
 41
-30.0
176
     1
 62
     5
 63
     7
421
 16777215
176
     1
 74
     1
176
     1
 91
        4
176
     1
 64
     7
176
     1
 65
   257
176
     1
 75
     1
176
     1
175
     1
176
     1
 42
1.0
176
     1
 92
        0
176
     1
 66
   257
176
     1
 43
1.0
176
     1
 76
     1
176
     1
 77
     6
176
     1
 78
     2
176
     1
 67
     7
176
     1
 79
     5
176
     1
170
     0
176
     1
171
     0
176
     1
290
     0
176
     1
 93
        1
176
     1
 44
0.0
176
     1
173
     0
176
     1
  0
VISUALSTYLE
  5
32
102
{ACAD_REACTORS
330
2A
102
}
330
2A
100
AcDbVisualStyle
  2
Basic
 70
     7
177
     2
291
     1
 71
     1
176
     1
 72
     0
176
     1
 73
     1
176
     1
 90
        0
176
     1
 40
-0.6
176
     1
 41
-30.0
176
     1
 62
     5
 63
     7
421
 16777215
176
     1
 74
     0
176
     1
 91
        4
176
     1
 64
     7
176
     1
 65
   257
176
     1
 75
     1
176
     1
175
     1
176
     1
 42
1.0
176
     1
 92
        8
176
     1
 66
     7
176
     1
 43
1.0
176
     1
 76
     1
176
     1
 77
     6
176
     1
 78
     2
176
     1
 67
     7
176
     1
 79
     5
176
     1
170
     0
176
     1
171
     0
176
     1
290
     0
176
     1
 93
        1
176
     1
 44
0.0
176
     1
173
     0
176
     1
  0
VISUALSTYLE
  5
36
102
{ACAD_REACTORS
330
2A
102
}
330
2A
100
AcDbVisualStyle
  2
Brighten
 70
    12
177
     2
291
     1
 71
     2
176
     1
 72
     2
176
     1
 73
     0
176
     1
 90
        0
176
     1
 40
-0.6
176
     1
 41
-30.0
176
     1
 62
     5
 63
     7
421
 16777215
176
     1
 74
     1
176
     1
 91
        4
176
     1
 64
     7
176
     1
 65
   257
176
     1
 75
     1
176
     1
175
     1
176
     1
 42
1.0
176
     1
 92
        8
176
     1
 66
     7
176
     1
 43
1.0
176
     1
 76
     1
176
     1
 77
     6
176
     1
 78
     2
176
     1
 67
     7
176
     1
 79
     5
176
     1
170
     0
176
     1
171
     0
176
     1
290
     0
176
     1
 93
        1
176
     1
 44
50.0
176
     1
173
     0
176
     1
  0
VISUALSTYLE
  5
3A
102
{ACAD_REACTORS
330
2A
102
}
330
2A
100
AcDbVisualStyle
  2
ColorChange
 70
    16
177
     2
291
     1
 71
     2
176
     1
 72
     2
176
     1
 73
     3
176
     1
 90
        0
176
     1
 40
-0.6
176
     1
 41
-30.0
176
     1
 62
     5
 63
     8
421
  8421504
176
     1
 74
     1
176
     1
 91
        4
176
     1
 64
     7
176
     1
 65
   257
176
     1
 75
     1
176
     1
175
     1
176
     1
 42
1.0
176
     1
 92
        8
176
     1
 66
     8
424
  8421504
176
     1
 43
1.0
176
     1
 76
     1
176
     1
 77
     6
176
     1
 78
     2
176
     1
 67
     7
176
     1
 79
     5
176
     1
170
     0
176
     1
171
     0
176
     1
290
     0
176
     1
 93
        1
176
     1
 44
0.0
176
     1
173
     0
176
     1
  0
VISUALSTYLE
  5
34
102
{ACAD_REACTORS
330
2A
102
}
330
2A
100
AcDbVisualStyle
  2
Conceptual
 70
     9
177
     2
291
     0
 71
     3
176
     1
 72
     2
176
     1
 73
     0
176
     1
 90
        0
176
     1
 40
-0.6
176
     1
 41
-30.0
176
     1
 62
     5
 63
     7
421
 16777215
176
     1
 74
     2
176
     1
 91
        2
176
     1
 64
     7
176
     1
 65
   257
176
     1
 75
     1
176
     1
175
     1
176
     1
 42
40.0
176
     1
 92
        8
176
     1
 66
     7
176
     1
 43
1.0
176
     1
 76
     1
176
     1
 77
     6
176
     1
 78
     2
176
     1
 67
     7
176
     1
 79
     3
176
     1
170
     0
176
     1
171
     0
176
     1
290
     0
176
     1
 93
        1
176
     1
 44
0.0
176
     1
173
     0
176
     1
  0
VISUALSTYLE
  5
35
102
{ACAD_REACTORS
330
2A
102
}
330
2A
100
AcDbVisualStyle
  2
Dim
 70
    11
177
     2
291
     1
 71
     2
176
     1
 72
     2
176
     1
 73
     0
176
     1
 90
        0
176
     1
 40
-0.6
176
     1
 41
-30.0
176
     1
 62
     5
 63
     7
421
 16777215
176
     1
 74
     1
176
     1
 91
        4
176
     1
 64
     7
176
     1
 65
   257
176
     1
 75
     1
176
     1
175
     1
176
     1
 42
1.0
176
     1
 92
        8
176
     1
 66
     7
176
     1
 43
1.0
176
     1
 76
     1
176
     1
 77
     6
176
     1
 78
     2
176
     1
 67
     7
176
     1
 79
     5
176
     1
170
     0
176
     1
171
     0
176
     1
290
     0
176
     1
 93
        1
176
     1
 44
-50.0
176
     1
173
     0
176
     1
  0
VISUALSTYLE
  5
39
102
{ACAD_REACTORS
330
2A
102
}
330
2A
100
AcDbVisualStyle
  2
Facepattern
 70
    15
177
     2
291
     1
 71
     2
176
     1
 72
     2
176
     1
 73
     0
176
     1
 90
        0
176
     1
 40
-0.6
176
     1
 41
-30.0
176
     1
 62
     5
 63
     7
421
 16777215
176
     1
 74
     1
176
     1
 91
        4
176
     1
 64
     7
176
     1
 65
   257
176
     1
 75
     1
176
     1
175
     1
176
     1
 42
1.0
176
     1
 92
        8
176
     1
 66
     7
176
     1
 43
1.0
176
     1
 76
     1
176
     1
 77
     6
176
     1
 78
     2
176
     1
 67
     7
176
     1
 79
     5
176
     1
170
     0
176
     1
171
     0
176
     1
290
     0
176
     1
 93
        1
176
     1
 44
0.0
176
     1
173
     0
176
     1
  0
VISUALSTYLE
  5
2B
102
{ACAD_REACTORS
330
2A
102
}
330
2A
100
AcDbVisualStyle
  2
Flat
 70
     0
177
     2
291
     1
 71
     2
176
     1
 72
     1
176
     1
 73
     1
176
     1
 90
        2
176
     1
 40
-0.6
176
     1
 41
30.0
176
     1
 62
     5
 63
     7
421
 16777215
176
     1
 74
     0
176
     1
 91
        4
176
     1
 64
     7
176
     1
 65
   257
176
     1
 75
     1
176
     1
175
     1
176
     1
 42
1.0
176
     1
 92
        8
176
     1
 66
     7
176
     1
 43
1.0
176
     1
 76
     1
176
     1
 77
     6
176
     1
 78
     2
176
     1
 67
     7
176
     1
 79
     5
176
     1
170
     0
176
     1
171
     0
176
     1
290
     0
176
     1
 93
       13
176
     1
 44
0.0
176
     1
173
     0
176
     1
  0
VISUALSTYLE
  5
2C
102
{ACAD_REACTORS
330
2A
102
}
330
2A
100
AcDbVisualStyle
  2
FlatWithEdges
 70
     1
177
     2
291
     1
 71
     2
176
     1
 72
     1
176
     1
 73
     1
176
     1
 90
        2
176
     1
 40
-0.6
176
     1
 41
30.0
176
     1
 62
     5
 63
     7
421
 16777215
176
     1
 74
     1
176
     1
 91
        4
176
     1
 64
     7
176
     1
 65
   257
176
     1
 75
     1
176
     1
175
     1
176
     1
 42
1.0
176
     1
 92
        0
176
     1
 66
   257
176
     1
 43
1.0
176
     1
 76
     1
176
     1
 77
     6
176
     1
 78
     2
176
     1
 67
     7
176
     1
 79
     5
176
     1
170
     0
176
     1
171
     0
176
     1
290
     0
176
     1
 93
       13
176
     1
 44
0.0
176
     1
173
     0
176
     1
  0
VISUALSTYLE
  5
2D
102
{ACAD_REACTORS
330
2A
102
}
330
2A
100
AcDbVisualStyle
  2
Gouraud
 70
     2
177
     2
291
     1
 71
     2
176
     1
 72
     2
176
     1
 73
     1
176
     1
 90
        2
176
     1
 40
-0.6
176
     1
 41
30.0
176
     1
 62
     5
 63
     7
421
 16777215
176
     1
 74
     0
176
     1
 91
        4
176
     1
 64
     7
176
     1
 65
   257
176
     1
 75
     1
176
     1
175
     1
176
     1
 42
1.0
176
     1
 92
        0
176
     1
 66
     7
176
     1
 43
1.0
176
     1
 76
     1
176
     1
 77
     6
176
     1
 78
     2
176
     1
 67
     7
176
     1
 79
     5
176
     1
170
     0
176
     1
171
     0
176
     1
290
     0
176
     1
 93
       13
176
     1
 44
0.0
176
     1
173
     0
176
     1
  0
VISUALSTYLE
  5
2E
102
{ACAD_REACTORS
330
2A
102
}
330
2A
100
AcDbVisualStyle
  2
GouraudWithEdges
 70
     3
177
     2
291
     1
 71
     2
176
     1
 72
     2
176
     1
 73
     1
176
     1
 90
        2
176
     1
 40
-0.6
176
     1
 41
30.0
176
     1
 62
     5
 63
     7
421
 16777215
176
     1
 74
     1
176
     1
 91
        4
176
     1
 64
     7
176
     1
 65
   257
176
     1
 75
     1
176
     1
175
     1
176
     1
 42
1.0
176
     1
 92
        0
176
     1
 66
   257
176
     1
 43
1.0
176
     1
 76
     1
176
     1
 77
     6
176
     1
 78
     2
176
     1
 67
     7
176
     1
 79
     5
176
     1
170
     0
176
     1
171
     0
176
     1
290
     0
176
     1
 93
       13
176
     1
 44
0.0
176
     1
173
     0
176
     1
  0
VISUALSTYLE
  5
38
102
{ACAD_REACTORS
330
2A
102
}
330
2A
100
AcDbVisualStyle
  2
Linepattern
 70
    14
177
     2
291
     1
 71
     2
176
     1
 72
     2
176
     1
 73
     0
176
     1
 90
        0
176
     1
 40
-0.6
176
     1
 41
-30.0
176
     1
 62
     5
 63
     7
421
 16777215
176
     1
 74
     1
176
     1
 91
        4
176
     1
 64
     7
176
     1
 65
   257
176
     1
 75
     7
176
     1
175
     7
176
     1
 42
1.0
176
     1
 92
        8
176
     1
 66
     7
176
     1
 43
1.0
176
     1
 76
     1
176
     1
 77
     6
176
     1
 78
     2
176
     1
 67
     7
176
     1
 79
     5
176
     1
170
     0
176
     1
171
     0
176
     1
290
     0
176
     1
 93
        1
176
     1
 44
0.0
176
     1
173
     0
176
     1
  0
VISUALSTYLE
  5
33
102
{ACAD_REACTORS
330
2A
102
}
330
2A
100
AcDbVisualStyle
  2
Realistic
 70
     8
177
     2
291
     0
 71
     2
176
     1
 72
     2
176
     1
 73
     0
176
     1
 90
        0
176
     1
 40
-0.6
176
     1
 41
-30.0
176
     1
 62
     5
 63
     7
421
 16777215
176
     1
 74
     1
176
     1
 91
        0
176
     1
 64
     7
176
     1
 65
   257
176
     1
 75
     1
176
     1
175
     1
176
     1
 42
1.0
176
     1
 92
        8
176
     1
 66
     8
424
  7895160
176
     1
 43
1.0
176
     1
 76
     1
176
     1
 77
     6
176
     1
 78
     2
176
     1
 67
     7
176
     1
 79
     5
176
     1
170
     0
176
     1
171
     0
176
     1
290
     0
176
     1
 93
       13
176
     1
 44
0.0
176
     1
173
     0
176
     1
  0
VISUALSTYLE
  5
37
102
{ACAD_REACTORS
330
2A
102
}
330
2A
100
AcDbVisualStyle
  2
Thicken
 70
    13
177
     2
291
     1
 71
     2
176
     1
 72
     2
176
     1
 73
     0
176
     1
 90
        0
176
     1
 40
-0.6
176
     1
 41
-30.0
176
     1
 62
     5
 63
     7
421
 16777215
176
     1
 74
     1
176
     1
 91
        4
176
     1
 64
     7
176
     1
 65
   257
176
     1
 75
     1
176
     1
175
     1
176
     1
 42
1.0
176
     1
 92
       12
176
     1
 66
     7
176
     1
 43
1.0
176
     1
 76
     1
176
     1
 77
     6
176
     1
 78
     2
176
     1
 67
     7
176
     1
 79
     5
176
     1
170
     0
176
     1
171
     0
176
     1
290
     0
176
     1
 93
        1
176
     1
 44
0.0
176
     1
173
     0
176
     1
  0
ENDSEC
  0
EOF
