  0
SECTION
  2
HEADER
  9
$ACADVER
  1
AC1024
  9
$ACADMAINTVER
 70
     6
  9
$DWGCODEPAGE
  3
ANSI_1251
  9
$INSBASE
 10
0.0
 20
0.0
 30
0.0
  9
$EXTMIN
 10
1.000000000000000E+20
 20
1.000000000000000E+20
 30
1.000000000000000E+20
  9
$EXTMAX
 10
-1.000000000000000E+20
 20
-1.000000000000000E+20
 30
-1.000000000000000E+20
  9
$LIMMIN
 10
0.0
 20
0.0
  9
$LIMMAX
 10
12.0
 20
9.0
  9
$ORTHOMODE
 70
     0
  9
$REGENMODE
 70
     1
  9
$FILLMODE
 70
     1
  9
$QTEXTMODE
 70
     0
  9
$MIRRTEXT
 70
     1
  9
$LTSCALE
 40
1.0
  9
$ATTMODE
 70
     1
  9
$TEXTSIZE
 40
0.2
  9
$TRACEWID
 40
0.05
  9
$TEXTSTYLE
  7
Standard
  9
$CLAYER
  8
0
  9
$CELTYPE
  6
ByLayer
  9
$CECOLOR
 62
   256
  9
$CELTSCALE
 40
1.0
  9
$DISPSILH
 70
     0
  9
$DIMSCALE
 40
1.0
  9
$DIMASZ
 40
0.18
  9
$DIMEXO
 40
0.0625
  9
$DIMDLI
 40
0.38
  9
$DIMRND
 40
0.0
  9
$DIMDLE
 40
0.0
  9
$DIMEXE
 40
0.18
  9
$DIMTP
 40
0.0
  9
$DIMTM
 40
0.0
  9
$DIMTXT
 40
0.18
  9
$DIMCEN
 40
0.09
  9
$DIMTSZ
 40
0.0
  9
$DIMTOL
 70
     0
  9
$DIMLIM
 70
     0
  9
$DIMTIH
 70
     1
  9
$DIMTOH
 70
     1
  9
$DIMSE1
 70
     0
  9
$DIMSE2
 70
     0
  9
$DIMTAD
 70
     0
  9
$DIMZIN
 70
     0
  9
$DIMBLK
  1

  9
$DIMASO
 70
     1
  9
$DIMSHO
 70
     1
  9
$DIMPOST
  1

  9
$DIMAPOST
  1

  9
$DIMALT
 70
     0
  9
$DIMALTD
 70
     2
  9
$DIMALTF
 40
25.4
  9
$DIMLFAC
 40
1.0
  9
$DIMTOFL
 70
     0
  9
$DIMTVP
 40
0.0
  9
$DIMTIX
 70
     0
  9
$DIMSOXD
 70
     0
  9
$DIMSAH
 70
     0
  9
$DIMBLK1
  1

  9
$DIMBLK2
  1

  9
$DIMSTYLE
  2
Standard
  9
$DIMCLRD
 70
     0
  9
$DIMCLRE
 70
     0
  9
$DIMCLRT
 70
     0
  9
$DIMTFAC
 40
1.0
  9
$DIMGAP
 40
0.09
  9
$DIMJUST
 70
     0
  9
$DIMSD1
 70
     0
  9
$DIMSD2
 70
     0
  9
$DIMTOLJ
 70
     1
  9
$DIMTZIN
 70
     0
  9
$DIMALTZ
 70
     0
  9
$DIMALTTZ
 70
     0
  9
$DIMUPT
 70
     0
  9
$DIMDEC
 70
     4
  9
$DIMTDEC
 70
     4
  9
$DIMALTU
 70
     2
  9
$DIMALTTD
 70
     2
  9
$DIMTXSTY
  7
Standard
  9
$DIMAUNIT
 70
     0
  9
$DIMADEC
 70
     0
  9
$DIMALTRND
 40
0.0
  9
$DIMAZIN
 70
     0
  9
$DIMDSEP
 70
    46
  9
$DIMATFIT
 70
     3
  9
$DIMFRAC
 70
     0
  9
$DIMLDRBLK
  1

  9
$DIMLUNIT
 70
     2
  9
$DIMLWD
 70
    -2
  9
$DIMLWE
 70
    -2
  9
$DIMTMOVE
 70
     0
  9
$DIMFXL
 40
1.0
  9
$DIMFXLON
 70
     0
  9
$DIMJOGANG
 40
0.7853981633974483
  9
$DIMTFILL
 70
     0
  9
$DIMTFILLCLR
 70
     0
  9
$DIMARCSYM
 70
     0
  9
$DIMLTYPE
  6

  9
$DIMLTEX1
  6

  9
$DIMLTEX2
  6

  9
$DIMTXTDIRECTION
 70
     0
  9
$LUNITS
 70
     2
  9
$LUPREC
 70
     4
  9
$SKETCHINC
 40
0.1
  9
$FILLETRAD
 40
0.5
  9
$AUNITS
 70
     0
  9
$AUPREC
 70
     0
  9
$MENU
  1
.
  9
$ELEVATION
 40
0.0
  9
$PELEVATION
 40
0.0
  9
$THICKNESS
 40
0.0
  9
$LIMCHECK
 70
     0
  9
$CHAMFERA
 40
0.5
  9
$CHAMFERB
 40
0.5
  9
$CHAMFERC
 40
1.0
  9
$CHAMFERD
 40
0.0
  9
$SKPOLY
 70
     0
  9
$TDCREATE
 40
2459337.642714271
  9
$TDUCREATE
 40
2459337.517714271
  9
$TDUPDATE
 40
2459337.642714271
  9
$TDUUPDATE
 40
2459337.517714271
  9
$TDINDWG
 40
0.0000000116
  9
$TDUSRTIMER
 40
0.0000000116
  9
$USRTIMER
 70
     1
  9
$ANGBASE
 50
0.0
  9
$ANGDIR
 70
     0
  9
$PDMODE
 70
     0
  9
$PDSIZE
 40
0.0
  9
$PLINEWID
 40
0.0
  9
$SPLFRAME
 70
     0
  9
$SPLINETYPE
 70
     6
  9
$SPLINESEGS
 70
     8
  9
$HANDSEED
  5
5F
  9
$SURFTAB1
 70
     6
  9
$SURFTAB2
 70
     6
  9
$SURFTYPE
 70
     6
  9
$SURFU
 70
     6
  9
$SURFV
 70
     6
  9
$UCSBASE
  2

  9
$UCSNAME
  2

  9
$UCSORG
 10
0.0
 20
0.0
 30
0.0
  9
$UCSXDIR
 10
1.0
 20
0.0
 30
0.0
  9
$UCSYDIR
 10
0.0
 20
1.0
 30
0.0
  9
$UCSORTHOREF
  2

  9
$UCSORTHOVIEW
 70
     0
  9
$UCSORGTOP
 10
0.0
 20
0.0
 30
0.0
  9
$UCSORGBOTTOM
 10
0.0
 20
0.0
 30
0.0
  9
$UCSORGLEFT
 10
0.0
 20
0.0
 30
0.0
  9
$UCSORGRIGHT
 10
0.0
 20
0.0
 30
0.0
  9
$UCSORGFRONT
 10
0.0
 20
0.0
 30
0.0
  9
$UCSORGBACK
 10
0.0
 20
0.0
 30
0.0
  9
$PUCSBASE
  2

  9
$PUCSNAME
  2

  9
$PUCSORG
 10
0.0
 20
0.0
 30
0.0
  9
$PUCSXDIR
 10
1.0
 20
0.0
 30
0.0
  9
$PUCSYDIR
 10
0.0
 20
1.0
 30
0.0
  9
$PUCSORTHOREF
  2

  9
$PUCSORTHOVIEW
 70
     0
  9
$PUCSORGTOP
 10
0.0
 20
0.0
 30
0.0
  9
$PUCSORGBOTTOM
 10
0.0
 20
0.0
 30
0.0
  9
$PUCSORGLEFT
 10
0.0
 20
0.0
 30
0.0
  9
$PUCSORGRIGHT
 10
0.0
 20
0.0
 30
0.0
  9
$PUCSORGFRONT
 10
0.0
 20
0.0
 30
0.0
  9
$PUCSORGBACK
 10
0.0
 20
0.0
 30
0.0
  9
$USERI1
 70
     0
  9
$USERI2
 70
     0
  9
$USERI3
 70
     0
  9
$USERI4
 70
     0
  9
$USERI5
 70
     0
  9
$USERR1
 40
0.0
  9
$USERR2
 40
0.0
  9
$USERR3
 40
0.0
  9
$USERR4
 40
0.0
  9
$USERR5
 40
0.0
  9
$WORLDVIEW
 70
     1
  9
$SHADEDGE
 70
     3
  9
$SHADEDIF
 70
    70
  9
$TILEMODE
 70
     1
  9
$MAXACTVP
 70
    64
  9
$PINSBASE
 10
0.0
 20
0.0
 30
0.0
  9
$PLIMCHECK
 70
     0
  9
$PEXTMIN
 10
1.000000000000000E+20
 20
1.000000000000000E+20
 30
1.000000000000000E+20
  9
$PEXTMAX
 10
-1.000000000000000E+20
 20
-1.000000000000000E+20
 30
-1.000000000000000E+20
  9
$PLIMMIN
 10
0.0
 20
0.0
  9
$PLIMMAX
 10
12.0
 20
9.0
  9
$UNITMODE
 70
     0
  9
$VISRETAIN
 70
     1
  9
$PLINEGEN
 70
     0
  9
$PSLTSCALE
 70
     1
  9
$TREEDEPTH
 70
  3020
  9
$CMLSTYLE
  2
Standard
  9
$CMLJUST
 70
     0
  9
$CMLSCALE
 40
1.0
  9
$PROXYGRAPHICS
 70
     1
  9
$MEASUREMENT
 70
     0
  9
$CELWEIGHT
370
    -1
  9
$ENDCAPS
280
     0
  9
$JOINSTYLE
280
     0
  9
$LWDISPLAY
290
     1
  9
$INSUNITS
 70
     1
  9
$HYPERLINKBASE
  1

  9
$STYLESHEET
  1

  9
$XEDIT
290
     1
  9
$CEPSNTYPE
380
     0
  9
$PSTYLEMODE
290
     1
  9
$FINGERPRINTGUID
  2
{367377BF-E2B4-42B2-AAB9-118EDF6E786E}
  9
$VERSIONGUID
  2
{FAEB1C32-E019-11D5-929B-00C0DF256EC4}
  9
$EXTNAMES
290
     1
  9
$PSVPSCALE
 40
0.0
  9
$OLESTARTUP
290
     0
  9
$SORTENTS
280
   127
  9
$INDEXCTL
280
     0
  9
$HIDETEXT
280
     1
  9
$XCLIPFRAME
280
     2
  9
$HALOGAP
280
     0
  9
$OBSCOLOR
 70
   257
  9
$OBSLTYPE
280
     0
  9
$INTERSECTIONDISPLAY
280
     0
  9
$INTERSECTIONCOLOR
 70
   257
  9
$DIMASSOC
280
     2
  9
$PROJECTNAME
  1

  9
$CAMERADISPLAY
290
     0
  9
$LENSLENGTH
 40
50.0
  9
$CAMERAHEIGHT
 40
0.0
  9
$STEPSPERSEC
 40
2.0
  9
$STEPSIZE
 40
6.0
  9
$3DDWFPREC
 40
2.0
  9
$PSOLWIDTH
 40
0.25
  9
$PSOLHEIGHT
 40
4.0
  9
$LOFTANG1
 40
1.570796326794897
  9
$LOFTANG2
 40
1.570796326794897
  9
$LOFTMAG1
 40
0.0
  9
$LOFTMAG2
 40
0.0
  9
$LOFTPARAM
 70
     7
  9
$LOFTNORMALS
280
     1
  9
$LATITUDE
 40
37.795
  9
$LONGITUDE
 40
-122.394
  9
$NORTHDIRECTION
 40
0.0
  9
$TIMEZONE
 70
 -8000
  9
$LIGHTGLYPHDISPLAY
280
     1
  9
$TILEMODELIGHTSYNCH
280
     1
  9
$CMATERIAL
347
3C
  9
$SOLIDHIST
280
     1
  9
$SHOWHIST
280
     1
  9
$DWFFRAME
280
     2
  9
$DGNFRAME
280
     2
  9
$REALWORLDSCALE
290
     1
  9
$INTERFERECOLOR
 62
   256
  9
$CSHADOW
280
     0
  9
$SHADOWPLANELOCATION
 40
0.0
  0
ENDSEC
  0
SECTION
  2
CLASSES
  0
CLASS
  1
ACDBDICTIONARYWDFLT
  2
AcDbDictionaryWithDefault
  3
ObjectDBX Classes
 90
        0
 91
        4
280
     0
281
     0
  0
CLASS
  1
VISUALSTYLE
  2
AcDbVisualStyle
  3
ObjectDBX Classes
 90
     4095
 91
        4
280
     0
281
     0
  0
CLASS
  1
MATERIAL
  2
AcDbMaterial
  3
ObjectDBX Classes
 90
     1153
 91
        4
280
     0
281
     0
  0
CLASS
  1
SUN
  2
AcDbSun
  3
SCENEOE
 90
     1024
 91
        4
280
     0
281
     0
  0
ENDSEC
  0
SECTION
  2
TABLES
  0
TABLE
  2
VPORT
  5
8
330
0
100
AcDbSymbolTable
 70
     1
  0
VPORT
  5
29
330
8
100
AcDbSymbolTableRecord
100
AcDbViewportTableRecord
  2
*Active
 70
     0
 10
0.0
 20
0.0
 11
1.0
 21
1.0
 12
0.0
 22
0.0
 13
0.0
 23
0.0
 14
0.5
 24
0.5
 15
0.5
 25
0.5
 16
0.0
 26
0.0
 36
1.0
 17
5.777790731862025
 27
-5.631928834727975
 37
0.0
 40
11.46473925313752
 41
1.046687563933539
 42
50.0
 43
0.0
 44
0.0
 50
0.0
 51
0.0
 71
     0
 72
   100
 73
     1
 74
     3
 75
     0
 76
     0
 77
     0
 78
     0
281
     0
 65
     1
110
0.0
120
0.0
130
0.0
111
1.0
121
0.0
131
0.0
112
0.0
122
1.0
132
0.0
 79
     0
146
0.0
 60
     3
 61
     5
292
     1
282
     1
141
0.0
142
0.0
 63
   250
361
3F
  0
ENDTAB
  0
TABLE
  2
LTYPE
  5
5
330
0
100
AcDbSymbolTable
 70
     1
  0
LTYPE
  5
14
330
5
100
AcDbSymbolTableRecord
100
AcDbLinetypeTableRecord
  2
ByBlock
 70
     0
  3

 72
    65
 73
     0
 40
0.0
  0
LTYPE
  5
15
330
5
100
AcDbSymbolTableRecord
100
AcDbLinetypeTableRecord
  2
ByLayer
 70
     0
  3

 72
    65
 73
     0
 40
0.0
  0
LTYPE
  5
16
330
5
100
AcDbSymbolTableRecord
100
AcDbLinetypeTableRecord
  2
Continuous
 70
     0
  3
Solid line
 72
    65
 73
     0
 40
0.0
  0
ENDTAB
  0
TABLE
  2
LAYER
  5
2
330
0
100
AcDbSymbolTable
 70
     2
  0
LAYER
  5
10
330
2
100
AcDbSymbolTableRecord
100
AcDbLayerTableRecord
  2
0
 70
     0
 62
     7
  6
Continuous
370
    -3
390
F
347
3E
  0
LAYER
  5
40
330
2
100
AcDbSymbolTableRecord
100
AcDbLayerTableRecord
  2
Layer 1
 70
     0
 62
     7
  6
Continuous
370
    -3
390
F
347
3E
  0
ENDTAB
  0
TABLE
  2
STYLE
  5
3
330
0
100
AcDbSymbolTable
 70
     1
  0
STYLE
  5
11
330
3
100
AcDbSymbolTableRecord
100
AcDbTextStyleTableRecord
  2
Standard
 70
     0
 40
0.0
 41
1.0
 50
0.0
 71
     0
 42
0.2
  3
txt
  4

  0
ENDTAB
  0
TABLE
  2
VIEW
  5
6
330
0
100
AcDbSymbolTable
 70
     0
  0
ENDTAB
  0
TABLE
  2
UCS
  5
7
330
0
100
AcDbSymbolTable
 70
     0
  0
ENDTAB
  0
TABLE
  2
APPID
  5
9
330
0
100
AcDbSymbolTable
 70
     1
  0
APPID
  5
12
330
9
100
AcDbSymbolTableRecord
100
AcDbRegAppTableRecord
  2
ACAD
 70
     0
  0
ENDTAB
  0
TABLE
  2
DIMSTYLE
  5
A
330
0
100
AcDbSymbolTable
 70
     1
100
AcDbDimStyleTable
  0
DIMSTYLE
105
27
330
A
100
AcDbSymbolTableRecord
100
AcDbDimStyleTableRecord
  2
Standard
 70
     0
178
     0
340
11
  0
ENDTAB
  0
TABLE
  2
BLOCK_RECORD
  5
1
330
0
100
AcDbSymbolTable
 70
     1
  0
BLOCK_RECORD
  5
1F
330
1
100
AcDbSymbolTableRecord
100
AcDbBlockTableRecord
  2
*Model_Space
340
22
 70
     0
280
     1
281
     0
  0
BLOCK_RECORD
  5
1B
330
1
100
AcDbSymbolTableRecord
100
AcDbBlockTableRecord
  2
*Paper_Space
340
1E
 70
     0
280
     1
281
     0
  0
BLOCK_RECORD
  5
23
330
1
100
AcDbSymbolTableRecord
100
AcDbBlockTableRecord
  2
*Paper_Space0
340
26
 70
     0
280
     1
281
     0
  0
ENDTAB
  0
ENDSEC
  0
SECTION
  2
BLOCKS
  0
BLOCK
  5
20
330
1F
100
AcDbEntity
  8
0
100
AcDbBlockBegin
  2
*Model_Space
 70
     0
 10
0.0
 20
0.0
 30
0.0
  3
*Model_Space
  1

  0
ENDBLK
  5
21
330
1F
100
AcDbEntity
  8
0
100
AcDbBlockEnd
  0
BLOCK
  5
1C
330
1B
100
AcDbEntity
 67
     1
  8
0
100
AcDbBlockBegin
  2
*Paper_Space
 70
     0
 10
0.0
 20
0.0
 30
0.0
  3
*Paper_Space
  1

  0
ENDBLK
  5
1D
330
1B
100
AcDbEntity
 67
     1
  8
0
100
AcDbBlockEnd
  0
BLOCK
  5
24
330
23
100
AcDbEntity
  8
0
100
AcDbBlockBegin
  2
*Paper_Space0
 70
     0
 10
0.0
 20
0.0
 30
0.0
  3
*Paper_Space0
  1

  0
ENDBLK
  5
25
330
23
100
AcDbEntity
  8
0
100
AcDbBlockEnd
  0
ENDSEC
  0
SECTION
  2
ENTITIES
  0
SPLINE
  5
41
330
1F
100
AcDbEntity
  8
Layer 1
370
     0
100
AcDbSpline
210
0.0
220
0.0
230
1.0
 70
    11
 71
     3
 72
   305
 73
   301
 74
     0
 42
0.0000000001
 43
0.0000000001
 12
1.0
 22
0.0
 32
0.0
 13
1.0
 23
0.0
 33
0.0
 40
0.0
 40
0.0
 40
0.0
 40
0.0
 40
1.0
 40
1.0
 40
1.0
 40
2.0
 40
2.0
 40
2.0
 40
3.0
 40
3.0
 40
3.0
 40
4.0
 40
4.0
 40
4.0
 40
5.0
 40
5.0
 40
5.0
 40
6.0
 40
6.0
 40
6.0
 40
7.0
 40
7.0
 40
7.0
 40
8.0
 40
8.0
 40
8.0
 40
9.0
 40
9.0
 40
9.0
 40
10.0
 40
10.0
 40
10.0
 40
11.0
 40
11.0
 40
11.0
 40
12.0
 40
12.0
 40
12.0
 40
13.0
 40
13.0
 40
13.0
 40
14.0
 40
14.0
 40
14.0
 40
15.0
 40
15.0
 40
15.0
 40
16.0
 40
16.0
 40
16.0
 40
17.0
 40
17.0
 40
17.0
 40
18.0
 40
18.0
 40
18.0
 40
19.0
 40
19.0
 40
19.0
 40
20.0
 40
20.0
 40
20.0
 40
21.0
 40
21.0
 40
21.0
 40
22.0
 40
22.0
 40
22.0
 40
23.0
 40
23.0
 40
23.0
 40
24.0
 40
24.0
 40
24.0
 40
25.0
 40
25.0
 40
25.0
 40
26.0
 40
26.0
 40
26.0
 40
27.0
 40
27.0
 40
27.0
 40
28.0
 40
28.0
 40
28.0
 40
29.0
 40
29.0
 40
29.0
 40
30.0
 40
30.0
 40
30.0
 40
31.0
 40
31.0
 40
31.0
 40
32.0
 40
32.0
 40
32.0
 40
33.0
 40
33.0
 40
33.0
 40
34.0
 40
34.0
 40
34.0
 40
35.0
 40
35.0
 40
35.0
 40
36.0
 40
36.0
 40
36.0
 40
37.0
 40
37.0
 40
37.0
 40
38.0
 40
38.0
 40
38.0
 40
39.0
 40
39.0
 40
39.0
 40
40.0
 40
40.0
 40
40.0
 40
41.0
 40
41.0
 40
41.0
 40
42.0
 40
42.0
 40
42.0
 40
43.0
 40
43.0
 40
43.0
 40
44.0
 40
44.0
 40
44.0
 40
45.0
 40
45.0
 40
45.0
 40
46.0
 40
46.0
 40
46.0
 40
47.0
 40
47.0
 40
47.0
 40
48.0
 40
48.0
 40
48.0
 40
49.0
 40
49.0
 40
49.0
 40
50.0
 40
50.0
 40
50.0
 40
51.0
 40
51.0
 40
51.0
 40
52.0
 40
52.0
 40
52.0
 40
53.0
 40
53.0
 40
53.0
 40
54.0
 40
54.0
 40
54.0
 40
55.0
 40
55.0
 40
55.0
 40
56.0
 40
56.0
 40
56.0
 40
57.0
 40
57.0
 40
57.0
 40
58.0
 40
58.0
 40
58.0
 40
59.0
 40
59.0
 40
59.0
 40
60.0
 40
60.0
 40
60.0
 40
61.0
 40
61.0
 40
61.0
 40
62.0
 40
62.0
 40
62.0
 40
63.0
 40
63.0
 40
63.0
 40
64.0
 40
64.0
 40
64.0
 40
65.0
 40
65.0
 40
65.0
 40
66.0
 40
66.0
 40
66.0
 40
67.0
 40
67.0
 40
67.0
 40
68.0
 40
68.0
 40
68.0
 40
69.0
 40
69.0
 40
69.0
 40
70.0
 40
70.0
 40
70.0
 40
71.0
 40
71.0
 40
71.0
 40
72.0
 40
72.0
 40
72.0
 40
73.0
 40
73.0
 40
73.0
 40
74.0
 40
74.0
 40
74.0
 40
75.0
 40
75.0
 40
75.0
 40
76.0
 40
76.0
 40
76.0
 40
77.0
 40
77.0
 40
77.0
 40
78.0
 40
78.0
 40
78.0
 40
79.0
 40
79.0
 40
79.0
 40
80.0
 40
80.0
 40
80.0
 40
81.0
 40
81.0
 40
81.0
 40
82.0
 40
82.0
 40
82.0
 40
83.0
 40
83.0
 40
83.0
 40
84.0
 40
84.0
 40
84.0
 40
85.0
 40
85.0
 40
85.0
 40
86.0
 40
86.0
 40
86.0
 40
87.0
 40
87.0
 40
87.0
 40
88.0
 40
88.0
 40
88.0
 40
89.0
 40
89.0
 40
89.0
 40
90.0
 40
90.0
 40
90.0
 40
91.0
 40
91.0
 40
91.0
 40
92.0
 40
92.0
 40
92.0
 40
93.0
 40
93.0
 40
93.0
 40
94.0
 40
94.0
 40
94.0
 40
95.0
 40
95.0
 40
95.0
 40
96.0
 40
96.0
 40
96.0
 40
97.0
 40
97.0
 40
97.0
 40
98.0
 40
98.0
 40
98.0
 40
99.0
 40
99.0
 40
99.0
 40
100.0
 40
100.0
 40
100.0
 40
100.0
 10
11.15163258993632
 20
-10.18106822089496
 30
0.0
 10
11.12458319336388
 20
-10.13062568944052
 30
0.0
 10
11.0638429942087
 20
-10.10791355478636
 30
0.0
 10
11.01054145419276
 20
-10.12892627795675
 30
0.0
 10
10.19230604642831
 20
-10.44777585846984
 30
0.0
 10
9.302852879954418
 20
-10.54588188377577
 30
0.0
 10
8.438452248826074
 20
-10.41272799575108
 30
0.0
 10
7.950921096054824
 20
-10.33753403586196
 30
0.0
 10
7.548440487630058
 20
-10.20745908158445
 30
0.0
 10
7.207939550115573
 20
-10.01492575700829
 30
0.0
 10
7.040836286780833
 20
-9.920578430042976
 30
0.0
 10
6.872394623377204
 20
-9.806417964484302
 30
0.0
 10
6.707271810552179
 20
-9.675743217918427
 30
0.0
 10
6.442123639625303
 20
-9.466035840817767
 30
0.0
 10
6.225738580513431
 20
-9.25622849833548
 30
0.0
 10
6.045680940084568
 20
-9.034365330856568
 30
0.0
 10
5.866822884202191
 20
-8.81392167179365
 30
0.0
 10
5.70441912968258
 20
-8.554371555526915
 30
0.0
 10
5.534519065481277
 20
-8.217308282522632
 30
0.0
 10
5.415419219356219
 20
-7.981130072427226
 30
0.0
 10
5.324630662262343
 20
-7.78231892189918
 30
0.0
 10
5.328729242796195
 20
-7.553038323120441
 30
0.0
 10
5.32994882041847
 20
-7.484122189183254
 30
0.0
 10
5.333907449421897
 20
-7.41410643605079
 30
0.0
 10
5.34072508826115
 20
-7.340611887645663
 30
0.0
 10
5.61207111267826
 20
-7.463449348309748
 30
0.0
 10
5.902510524460417
 20
-7.348609118157633
 30
0.0
 10
6.102681199118832
 20
-7.247804027553936
 30
0.0
 10
6.166878965432084
 20
-7.215475223209094
 30
0.0
 10
6.229697209516871
 20
-7.181946834287575
 30
0.0
 10
6.292155578237675
 20
-7.148598383052558
 30
0.0
 10
6.483909167994877
 20
-7.04633379788053
 30
0.0
 10
6.665026441439799
 20
-6.949787232524512
 30
0.0
 10
6.873554221772135
 20
-6.891327477481809
 30
0.0
 10
7.147579318343079
 20
-6.814674023024432
 30
0.0
 10
7.36020567920928
 20
-6.684099241839804
 30
0.0
 10
7.523509122138774
 20
-6.49190579956035
 30
0.0
 10
7.748071349242561
 20
-6.227757275749379
 30
0.0
 10
7.832502108240027
 20
-5.886435477497596
 30
0.0
 10
7.914213808932092
 20
-5.556349788114971
 30
0.0
 10
7.924930097547454
 20
-5.512964812587484
 30
0.0
 10
7.935606400011238
 20
-5.469819753975306
 30
0.0
 10
7.946542612460133
 20
-5.427194515346362
 30
0.0
 10
7.967476517992004
 20
-5.345522798742725
 30
0.0
 10
7.950721165297081
 20
-5.289982032836797
 30
0.0
 10
7.8965199368713
 20
-5.261911753739835
 30
0.0
 10
7.84951736794028
 20
-5.237820096822461
 30
0.0
 10
7.788857223823394
 20
-5.255354024720014
 30
0.0
 10
7.738234755961305
 20
-5.306916168446011
 30
0.0
 10
7.607659978075364
 20
-5.438270679605504
 30
0.0
 10
7.443836715175721
 20
-5.520702133107849
 30
0.0
 10
7.237448193951321
 20
-5.558988874183998
 30
0.0
 10
7.079942742996536
 20
-5.58815877247658
 30
0.0
 10
6.916899210052128
 20
-5.581521071151466
 30
0.0
 10
6.758993897581881
 20
-5.575143279818172
 30
0.0
 10
6.67064449573253
 20
-5.571564519164085
 30
0.0
 10
6.57949606327472
 20
-5.568085723891423
 30
0.0
 10
6.488588665561918
 20
-5.570304955358438
 30
0.0
 10
6.488588665561918
 20
-5.570304955358438
 30
0.0
 10
6.474252512395575
 20
-5.570724809960262
 30
0.0
 10
6.474252512395575
 20
-5.570724809960262
 30
0.0
 10
6.461057082384134
 20
-5.571064692257159
 30
0.0
 10
6.441843736564452
 20
-5.571664484545509
 30
0.0
 10
6.42808850043131
 20
-5.571144664562262
 30
0.0
 10
6.42958798111441
 20
-5.559408728785822
 30
0.0
 10
6.433666568572511
 20
-5.539155742514329
 30
0.0
 10
6.443923016445043
 20
-5.505647346668941
 30
0.0
 10
6.469234250376076
 20
-5.423195900090453
 30
0.0
 10
6.503222479193432
 20
-5.314733461271468
 30
0.0
 10
6.541629177757032
 20
-5.207970433936453
 30
0.0
 10
6.54638752979147
 20
-5.194775003591517
 30
0.0
 10
6.554765748048667
 20
-5.177600951067196
 30
0.0
 10
6.564121388003817
 20
-5.15818767399916
 30
0.0
 10
6.605387096403218
 20
-5.07251734213945
 30
0.0
 10
6.661928636909376
 20
-4.955117998223411
 30
0.0
 10
6.586513632871729
 20
-4.890220472618617
 30
0.0
 10
6.551925611781118
 20
-4.860090906664658
 30
0.0
 10
6.508100789682506
 20
-4.854132969933352
 30
0.0
 10
6.469434181133844
 20
-4.873966101603021
 30
0.0
 10
6.469434181133844
 20
-4.873966101603021
 30
0.0
 10
6.453959540484043
 20
-4.881963332115017
 30
0.0
 10
6.453959540484043
 20
-4.881963332115017
 30
0.0
 10
6.334260995819628
 20
-4.943981854735486
 30
0.0
 10
6.210484974507456
 20
-5.008039671136644
 30
0.0
 10
6.076531363431564
 20
-5.018596015412375
 30
0.0
 10
5.8661031334743
 20
-5.035010331038342
 30
0.0
 10
5.69782141467686
 20
-5.06809887228173
 30
0.0
 10
5.541755465177895
 20
-5.124499340467436
 30
0.0
 10
5.549792681639411
 20
-5.062920665525098
 30
0.0
 10
5.565687176880462
 20
-4.965414432507701
 30
0.0
 10
5.595476859785081
 20
-4.852613496136099
 30
0.0
 10
5.687684925258976
 20
-4.50321449506704
 30
0.0
 10
5.660734259114393
 20
-4.177887157839235
 30
0.0
 10
5.513045408365112
 20
-3.858097902740901
 30
0.0
 10
5.488014077494932
 20
-3.803636762954271
 30
0.0
 10
5.454765592481244
 20
-3.745956737886596
 30
0.0
 10
5.398065229583595
 20
-3.730482096845865
 30
0.0
 10
5.341524811292149
 20
-3.715167400415326
 30
0.0
 10
5.284864434546042
 20
-3.746896412471655
 30
0.0
 10
5.232162686803374
 20
-3.783483742064012
 30
0.0
 10
4.843977127557675
 20
-4.05205073573307
 30
0.0
 10
4.587166069228929
 20
-4.551777677351159
 30
0.0
 10
4.577889282069362
 20
-5.056622846496894
 30
0.0
 10
4.574970293006231
 20
-5.216127609058629
 30
0.0
 10
4.516210643303755
 20
-5.37539245470489
 30
0.0
 10
4.459430308103012
 20
-5.529459100518566
 30
0.0
 10
4.434938790278744
 20
-5.595896092996756
 30
0.0
 10
4.409627556347699
 20
-5.664652282323762
 30
0.0
 10
4.388894736769114
 20
-5.732788686285921
 30
0.0
 10
4.315180266387011
 20
-5.975684570011392
 30
0.0
 10
4.298186151978345
 20
-6.157361654167541
 30
0.0
 10
4.297866262765941
 20
-6.351394459464649
 30
0.0
 10
4.179487261102685
 20
-5.679547124152287
 30
0.0
 10
4.199860205317324
 20
-5.000462295226485
 30
0.0
 10
4.371500760844949
 20
-4.304983143751024
 30
0.0
 10
5.003221976104846
 20
-1.746029324523938
 30
0.0
 10
7.437878778594798
 20
-0.1451837067858277
 30
0.0
 10
10.03443950871002
 20
-0.5807728596978323
 30
0.0
 10
10.09109988545611
 20
-0.5900296540154638
 30
0.0
 10
10.1459408923067
 20
-0.5553216735934003
 30
0.0
 10
10.16163545679001
 20
-0.5007205822727074
 30
0.0
 10
10.17800978584965
 20
-0.4453197679010196
 30
0.0
 10
10.15023940359828
 20
-0.3867200613244171
 30
0.0
 10
10.09723775971901
 20
-0.3645077535773503
 30
0.0
 10
9.821853133995369
 20
-0.2477082019496493
 30
0.0
 10
9.535192413534686
 20
-0.151901380416032
 30
0.0
 10
9.245212842495322
 20
-0.0795864235112731
 30
0.0
 10
7.734236140806337
 20
0.2999221504352363
 30
0.0
 10
6.181894875427083
 20
0.0749800492093173
 30
0.0
 10
4.874086699674686
 20
-0.712467253154058
 30
0.0
 10
4.27891282693132
 20
-1.07122301392197
 30
0.0
 10
3.762451693513791
 20
-1.526545333122221
 30
0.0
 10
3.337418895614923
 20
-2.067098136504038
 30
0.0
 10
3.337178978705626
 20
-2.048564554792468
 30
0.0
 10
3.335759470325608
 20
-2.030170924614961
 30
0.0
 10
3.331760855170627
 20
-2.011897252895008
 30
0.0
 10
3.324783271725184
 20
-1.979808365465652
 30
0.0
 10
3.308368956513984
 20
-1.904774350186951
 30
0.0
 10
3.227556944231777
 20
-1.895757472784617
 30
0.0
 10
3.143626012128695
 20
-1.886580650772101
 30
0.0
 10
3.115215851452553
 20
-1.959575372270302
 30
0.0
 10
3.103140033684503
 20
-1.990784564343383
 30
0.0
 10
3.05339726115652
 20
-2.118400370238596
 30
0.0
 10
2.952072353129261
 20
-2.192074856330237
 30
0.0
 10
2.844809501596854
 20
-2.270007867669581
 30
0.0
 10
2.784830274272116
 20
-2.313552787807453
 30
0.0
 10
2.722851739369894
 20
-2.358557202513616
 30
0.0
 10
2.66815068404973
 20
-2.414457843792408
 30
0.0
 10
2.590938444779832
 20
-2.252733849763659
 30
0.0
 10
2.493871042519825
 20
-2.10078647003594
 30
0.0
 10
2.399943572529284
 20
-1.953697407844099
 30
0.0
 10
2.325129482979567
 20
-1.83655797391969
 30
0.0
 10
2.247716293579098
 20
-1.715319959357771
 30
0.0
 10
2.181779129673436
 20
-1.591202941811717
 30
0.0
 10
2.048726216066863
 20
-1.340569737565892
 30
0.0
 10
1.938423411341205
 20
-1.11170899338899
 30
0.0
 10
1.93658404836991
 20
-0.850019617960331
 30
0.0
 10
1.936165196610558
 20
-0.7969380004369037
 30
0.0
 10
1.90341553565933
 20
-0.7568718755718843
 30
0.0
 10
1.85101368405329
 20
-0.7454758220923293
 30
0.0
 10
1.801570807661935
 20
-0.7350994155029487
 30
0.0
 10
1.758405757063896
 20
-0.7563520555886372
 30
0.0
 10
1.732194834722981
 20
-0.8040955217452518
 30
0.0
 10
1.726116939687409
 20
-0.8152316652331768
 30
0.0
 10
1.721558518410726
 20
-0.8270475733145429
 30
0.0
 10
1.714301031904433
 20
-0.8467007672978752
 30
0.0
 10
1.590085046204156
 20
-1.175606865179765
 30
0.0
 10
1.491398230089936
 20
-1.536841767406511
 30
0.0
 10
1.421042596438029
 20
-1.920508901219301
 30
0.0
 10
1.421042596438029
 20
-1.920508901219301
 30
0.0
 10
1.413505206870885
 20
-1.961274783754081
 30
0.0
 10
1.413505206870885
 20
-1.961274783754081
 30
0.0
 10
1.350207128967504
 20
-2.305315640379983
 30
0.0
 10
1.284790771408855
 20
-2.660832522790719
 30
0.0
 10
1.314479502557737
 20
-3.005553144010062
 30
0.0
 10
1.217453105822086
 20
-2.968985807494025
 30
0.0
 10
1.116308135476806
 20
-2.951191969604856
 30
0.0
 10
1.018342064179743
 20
-2.933917951698921
 30
0.0
 10
1.018342064179743
 20
-2.933917951698921
 30
0.0
 10
0.9683193885909102
 20
-2.925001039678023
 30
0.0
 10
0.9683193885909102
 20
-2.925001039678023
 30
0.0
 10
0.854578780507432
 20
-2.904408171109632
 30
0.0
 10
0.7351201527523269
 20
-2.876237926631246
 30
0.0
 10
0.6323157571177312
 20
-2.809541024161073
 30
0.0
 10
0.6021062196218356
 20
-2.789807857872814
 30
0.0
 10
0.531251726416359
 20
-2.743863768581415
 30
0.0
 10
0.4687524042031757
 20
-2.812440020221705
 30
0.0
 10
0.4282664257589709
 20
-2.857104552631161
 30
0.0
 10
0.4309454979128178
 20
-2.910446080146206
 30
0.0
 10
0.4767896206646911
 20
-2.971185045884731
 30
0.0
 10
0.5369487856713956
 20
-3.049717849512591
 30
0.0
 10
0.5626798741937161
 20
-3.145344733359694
 30
0.0
 10
0.5815733308010067
 20
-3.236953008874568
 30
0.0
 10
0.5815733308010067
 20
-3.236953008874568
 30
0.0
 10
0.5955284976918922
 20
-3.306808817396826
 30
0.0
 10
0.5955284976918922
 20
-3.306808817396826
 30
0.0
 10
0.6229190115035155
 20
-3.446080586763211
 30
0.0
 10
0.6512101840963093
 20
-3.5899307705977
 30
0.0
 10
0.7204052489819964
 20
-3.722644810944075
 30
0.0
 10
0.6520099071474937
 20
-3.734980539008865
 30
0.0
 10
0.583992492969767
 20
-3.748855733947228
 30
0.0
 10
0.5159760491835136
 20
-3.762810901190518
 30
0.0
 10
0.3987766389909792
 20
-3.786702627345234
 30
0.0
 10
0.277638592870782
 20
-3.811474048856048
 30
0.0
 10
0.1574802074635626
 20
-3.8272885721935
 30
0.0
 10
0.1091978861460095
 20
-3.833766328908218
 30
0.0
 10
0.0605737691825602
 20
-3.832826654323159
 30
0.0
 10
0.0094914605776542
 20
-3.831886979737924
 30
0.0
 10
-0.0316542893671112
 20
-3.83112724283938
 30
0.0
 10
-0.0727800462360998
 20
-3.830447478245762
 30
0.0
 10
-0.1139248451385634
 20
-3.833426446611497
 30
0.0
 10
-0.1723655566709491
 20
-3.837764944164304
 30
0.0
 10
-0.2123117220692166
 20
-3.871693194611326
 30
0.0
 10
-0.2207687931220082
 20
-3.92453489521928
 30
0.0
 10
-0.2286851029857644
 20
-3.974377634385342
 30
0.0
 10
-0.2036347271829047
 20
-4.017602665302635
 30
0.0
 10
-0.1539519338822528
 20
-4.039974917659909
 30
0.0
 10
0.0075321391517238
 20
-4.11372937605683
 30
0.0
 10
0.1225932472535886
 20
-4.243304503427263
 30
0.0
 10
0.2358330714254432
 20
-4.380776895928445
 30
0.0
 10
0.4301257818060422
 20
-4.617374960625713
 30
0.0
 10
0.6707224556813318
 20
-4.767882838861447
 30
0.0
 10
0.950825447287861
 20
-4.828201949998136
 30
0.0
 10
1.137520788873985
 20
-4.868348047168448
 30
0.0
 10
1.322896587458975
 20
-4.841457359571854
 30
0.0
 10
1.502154504856839
 20
-4.815346401950111
 30
0.0
 10
1.683531688286848
 20
-4.789055506642032
 30
0.0
 10
1.854832361526304
 20
-4.764224105902258
 30
0.0
 10
2.027152681630267
 20
-4.802930701580218
 30
0.0
 10
2.072197081351141
 20
-4.813307108169611
 30
0.0
 10
2.116902606181485
 20
-4.819524954892712
 30
0.0
 10
2.160687443234653
 20
-4.821644220978315
 30
0.0
 10
2.096309737613094
 20
-5.260632196857879
 30
0.0
 10
2.083053321496929
 20
-5.704538469502268
 30
0.0
 10
2.121120137772361
 20
-6.142766708483123
 30
0.0
 10
1.904475168675402
 20
-6.199007232058799
 30
0.0
 10
1.716000443345302
 20
-6.328902248649834
 30
0.0
 10
1.52900520562255
 20
-6.550685443823668
 30
0.0
 10
1.173948172935878
 20
-6.971719637203679
 30
0.0
 10
1.093975869836236
 20
-7.617096139521436
 30
0.0
 10
1.315119280982534
 20
-8.277027601371021
 30
0.0
 10
1.339971661941566
 20
-8.351381852056267
 30
0.0
 10
1.381736209464546
 20
-8.376553135092763
 30
0.0
 10
1.412405587703258
 20
-8.384550365604758
 30
0.0
 10
1.44371474436678
 20
-8.39254759611673
 30
0.0
 10
1.493737419955601
 20
-8.390948150014385
 30
0.0
 10
1.554516370311338
 20
-8.335907211015536
 30
0.0
 10
1.599820680017286
 20
-8.294461563887126
 30
0.0
 10
1.634708597244513
 20
-8.247417855400272
 30
0.0
 10
1.660060813183968
 20
-8.211010463494453
 30
0.0
 10
1.749508838344064
 20
-8.082375010709054
 30
0.0
 10
1.802590454526454
 20
-7.935965713110843
 30
0.0
 10
1.85399365309983
 20
-7.794394739972327
 30
0.0
 10
1.877244599469969
 20
-7.730256951266078
 30
0.0
 10
1.901377243883404
 20
-7.663899931092803
 30
0.0
 10
1.92824693577178
 20
-7.601101678497444
 30
0.0
 10
2.013277487042476
 20
-7.40271038257126
 30
0.0
 10
2.129377278067396
 20
-7.27637413355799
 30
0.0
 10
2.311435238385684
 20
-7.186805151823616
 30
0.0
 10
2.452145493377581
 20
-7.686012273458446
 30
0.0
 10
2.661433010589361
 20
-8.165586194186465
 30
0.0
 10
2.933838668022544
 20
-8.612991255179825
 30
0.0
 10
3.116015574483551
 20
-8.912107669404476
 30
0.0
 10
3.32474328557363
 20
-9.194209975715012
 30
0.0
 10
3.554743629288219
 20
-9.452420555871008
 30
0.0
 10
3.537049757227426
 20
-9.459298174111407
 30
0.0
 10
3.515837103830247
 20
-9.467815224606637
 30
0.0
 10
3.490265959914129
 20
-9.478031686585634
 30
0.0
 10
3.442202605751238
 20
-9.497245032890659
 30
0.0
 10
3.39565976504913
 20
-9.515958552288742
 30
0.0
 10
3.385102381338091
 20
-9.51919743064612
 30
0.0
 10
3.133889384226323
 20
-9.596610622002219
 30
0.0
 10
2.87152025083214
 20
-9.629119364033562
 30
0.0
 10
2.671169638491746
 20
-9.648672592635295
 30
0.0
 10
2.639600571843162
 20
-9.651651561001067
 30
0.0
 10
2.555849577422047
 20
-9.659488846902832
 30
0.0
 10
2.54139458363679
 20
-9.748218119433405
 30
0.0
 10
2.528079195170701
 20
-9.833968423598181
 30
0.0
 10
2.596295569714698
 20
-9.864857726450685
 30
0.0
 10
2.638960793418366
 20
-9.884251010442211
 30
0.0
 10
2.693502926096117
 20
-9.909182376563422
 30
0.0
 10
2.741525272143665
 20
-9.933174068099383
 30
0.0
 10
2.785671007746866
 20
-9.957585614237333
 30
0.0
 10
3.230395960991826
 20
-10.20404026554055
 30
0.0
 10
3.798320321327954
 20
-10.4564728466516
 30
0.0
 10
4.247203808752311
 20
-10.21885513506398
 30
0.0
 10
4.27541403867071
 20
-10.20380034862526
 30
0.0
 10
4.30442399162012
 20
-10.19044497367013
 30
0.0
 10
4.335313293692353
 20
-10.17834916252084
 30
0.0
 10
4.966294765148594
 20
-10.66302131770019
 30
0.0
 10
5.683406407043145
 20
-11.00588258282556
 30
0.0
 10
6.466975032813529
 20
-11.19763617742683
 30
0.0
 10
6.913441536511477
 20
-11.30823787540774
 30
0.0
 10
7.373181185387188
 20
-11.36429846129674
 30
0.0
 10
7.833401796649897
 20
-11.36429846129674
 30
0.0
 10
9.012053592808316
 20
-11.36429846129674
 30
0.0
 10
10.14742037991404
 20
-11.00578261744411
 30
0.0
 10
11.11680465193644
 20
-10.32749751156949
 30
0.0
 10
11.16388834538636
 20
-10.29438897724978
 30
0.0
 10
11.17882317299023
 20
-10.23135080773899
 30
0.0
 10
11.15163258993632
 20
-10.18106822089496
 30
0.0
  0
SPLINE
  5
42
330
1F
100
AcDbEntity
  8
Layer 1
370
     0
100
AcDbSpline
210
0.0
220
0.0
230
1.0
 70
    11
 71
     3
 72
    35
 73
    31
 74
     0
 42
0.0000000001
 43
0.0000000001
 12
1.0
 22
0.0
 32
0.0
 13
1.0
 23
0.0
 33
0.0
 40
0.0
 40
0.0
 40
0.0
 40
0.0
 40
1.0
 40
1.0
 40
1.0
 40
2.0
 40
2.0
 40
2.0
 40
3.0
 40
3.0
 40
3.0
 40
4.0
 40
4.0
 40
4.0
 40
5.0
 40
5.0
 40
5.0
 40
6.0
 40
6.0
 40
6.0
 40
7.0
 40
7.0
 40
7.0
 40
8.0
 40
8.0
 40
8.0
 40
9.0
 40
9.0
 40
9.0
 40
10.0
 40
10.0
 40
10.0
 40
10.0
 10
7.591145697485293
 20
-5.922423014801439
 30
0.0
 10
7.520631263134519
 20
-6.154582616564666
 30
0.0
 10
7.38845589527922
 20
-6.350594736413465
 30
0.0
 10
7.197462042401487
 20
-6.506120876795446
 30
0.0
 10
7.078023407722159
 20
-6.603447172126506
 30
0.0
 10
6.936112555871836
 20
-6.648951413739572
 30
0.0
 10
6.776427859657613
 20
-6.694395676124081
 30
0.0
 10
6.566180674808644
 20
-6.754194967277524
 30
0.0
 10
6.3684091692432
 20
-6.844803588978392
 30
0.0
 10
6.172017185906244
 20
-6.97147972028837
 30
0.0
 10
5.986381477336168
 20
-7.090918357984896
 30
0.0
 10
5.786550684965921
 20
-7.15471626439426
 30
0.0
 10
5.580462059878124
 20
-7.161194021108965
 30
0.0
 10
5.580462059878124
 20
-7.161194021108965
 30
0.0
 10
5.561268707134205
 20
-7.160934111117361
 30
0.0
 10
5.561268707134205
 20
-7.160934111117361
 30
0.0
 10
5.555790604371875
 20
-7.160934111117361
 30
0.0
 10
5.550292508533781
 20
-7.160934111117361
 30
0.0
 10
5.544334571952858
 20
-7.160754173430834
 30
0.0
 10
5.728651836159972
 20
-6.983295628369736
 30
0.0
 10
5.952793110034311
 20
-6.826589896487222
 30
0.0
 10
6.228637576500786
 20
-6.682139920364382
 30
0.0
 10
6.368509134622071
 20
-6.608885288874565
 30
0.0
 10
6.516917736099256
 20
-6.54686676625407
 30
0.0
 10
6.660428034011551
 20
-6.486807565108998
 30
0.0
 10
6.785664660665613
 20
-6.434485684484318
 30
0.0
 10
6.915099833232388
 20
-6.380284454689293
 30
0.0
 10
7.039656695310087
 20
-6.318525842060429
 30
0.0
 10
7.263520302173977
 20
-6.206984469494475
 30
0.0
 10
7.444857504033431
 20
-6.076829542911835
 30
0.0
 10
7.591145697485293
 20
-5.922423014801439
 30
0.0
  0
SPLINE
  5
43
330
1F
100
AcDbEntity
  8
Layer 1
370
     0
100
AcDbSpline
210
0.0
220
0.0
230
1.0
 70
    11
 71
     3
 72
    29
 73
    25
 74
     0
 42
0.0000000001
 43
0.0000000001
 12
1.0
 22
0.0
 32
0.0
 13
1.0
 23
0.0
 33
0.0
 40
0.0
 40
0.0
 40
0.0
 40
0.0
 40
1.0
 40
1.0
 40
1.0
 40
2.0
 40
2.0
 40
2.0
 40
3.0
 40
3.0
 40
3.0
 40
4.0
 40
4.0
 40
4.0
 40
5.0
 40
5.0
 40
5.0
 40
6.0
 40
6.0
 40
6.0
 40
7.0
 40
7.0
 40
7.0
 40
8.0
 40
8.0
 40
8.0
 40
8.0
 10
7.236568498617215
 20
-5.950333349288371
 30
0.0
 10
7.13358416530064
 20
-6.025267399185648
 30
0.0
 10
7.018943868807279
 20
-6.08482677342383
 30
0.0
 10
6.90120464556882
 20
-6.143266535390214
 30
0.0
 10
6.808336808594352
 20
-6.189290596986717
 30
0.0
 10
6.71015081346377
 20
-6.229456687233172
 30
0.0
 10
6.615223689684474
 20
-6.268243255216222
 30
0.0
 10
6.538270341026847
 20
-6.299732350357241
 30
0.0
 10
6.461356978520749
 20
-6.331201452421939
 30
0.0
 10
6.38598308284933
 20
-6.365989405149119
 30
0.0
 10
6.096643290234826
 20
-6.499403203165406
 30
0.0
 10
5.795828572460752
 20
-6.653549821284009
 30
0.0
 10
5.534058131004548
 20
-6.877212365628161
 30
0.0
 10
5.632184146907826
 20
-6.677961367421984
 30
0.0
 10
5.776134292487186
 20
-6.506960585999271
 30
0.0
 10
5.963170620924087
 20
-6.367608844327783
 30
0.0
 10
6.203706211009476
 20
-6.188610832393098
 30
0.0
 10
6.487567900861677
 20
-6.119714691532408
 30
0.0
 10
6.757674354580735
 20
-6.064413842541954
 30
0.0
 10
6.757674354580735
 20
-6.064413842541954
 30
0.0
 10
6.799539855253392
 20
-6.055816819741418
 30
0.0
 10
6.799539855253392
 20
-6.055816819741418
 30
0.0
 10
6.943270076999245
 20
-6.026626928372732
 30
0.0
 10
7.090519080081473
 20
-5.996777265486697
 30
0.0
 10
7.236568498617215
 20
-5.950333349288371
 30
0.0
  0
SPLINE
  5
44
330
1F
100
AcDbEntity
  8
Layer 1
370
     0
100
AcDbSpline
210
0.0
220
0.0
230
1.0
 70
    11
 71
     3
 72
    41
 73
    37
 74
     0
 42
0.0000000001
 43
0.0000000001
 12
1.0
 22
0.0
 32
0.0
 13
1.0
 23
0.0
 33
0.0
 40
0.0
 40
0.0
 40
0.0
 40
0.0
 40
1.0
 40
1.0
 40
1.0
 40
2.0
 40
2.0
 40
2.0
 40
3.0
 40
3.0
 40
3.0
 40
4.0
 40
4.0
 40
4.0
 40
5.0
 40
5.0
 40
5.0
 40
6.0
 40
6.0
 40
6.0
 40
7.0
 40
7.0
 40
7.0
 40
8.0
 40
8.0
 40
8.0
 40
9.0
 40
9.0
 40
9.0
 40
10.0
 40
10.0
 40
10.0
 40
11.0
 40
11.0
 40
11.0
 40
12.0
 40
12.0
 40
12.0
 40
12.0
 10
6.434486284679274
 20
-5.78748974298786
 30
0.0
 10
6.482409687311751
 20
-5.784690712308626
 30
0.0
 10
6.530652979156608
 20
-5.783571100037054
 30
0.0
 10
6.578976243304573
 20
-5.783571100037054
 30
0.0
 10
6.683060195788761
 20
-5.783571100037054
 30
0.0
 10
6.787444044409565
 20
-5.788849272174919
 30
0.0
 10
6.889408730861633
 20
-5.794047472007681
 30
0.0
 10
6.889408730861633
 20
-5.794047472007681
 30
0.0
 10
6.911141204228947
 20
-5.795067118898019
 30
0.0
 10
6.911141204228947
 20
-5.795067118898019
 30
0.0
 10
6.930974335397675
 20
-5.796086765788358
 30
0.0
 10
6.950207674293146
 20
-5.796766530381799
 30
0.0
 10
6.968881207066917
 20
-5.797186384983623
 30
0.0
 10
6.938033020335953
 20
-5.804243940910547
 30
0.0
 10
6.907282540604405
 20
-5.811061579921986
 30
0.0
 10
6.876773106971894
 20
-5.817859225857116
 30
0.0
 10
6.876773106971894
 20
-5.817859225857116
 30
0.0
 10
6.809136531625376
 20
-5.832914012296024
 30
0.0
 10
6.809136531625376
 20
-5.832914012296024
 30
0.0
 10
6.762093949072096
 20
-5.843550328877023
 30
0.0
 10
6.714849186270889
 20
-5.853506880864416
 30
0.0
 10
6.667585555138985
 20
-5.863383460546705
 30
0.0
 10
6.50198402666951
 20
-5.898091440968756
 30
0.0
 10
6.330762207559019
 20
-5.933899040586261
 30
0.0
 10
6.169757968343674
 20
-6.004174703710342
 30
0.0
 10
5.938997887749628
 20
-6.105079759695299
 30
0.0
 10
5.752902338436747
 20
-6.234295011692867
 30
0.0
 10
5.603034242428003
 20
-6.398498147180261
 30
0.0
 10
5.608832234402724
 20
-6.348735380319491
 30
0.0
 10
5.610531645843594
 20
-6.30347105562171
 30
0.0
 10
5.608312414432576
 20
-6.260345990085675
 30
0.0
 10
5.605094624749616
 20
-6.197047910583225
 30
0.0
 10
5.62826550405594
 20
-6.143106590779831
 30
0.0
 10
5.681147189480586
 20
-6.090784710155124
 30
0.0
 10
5.869162074067857
 20
-5.905408906887311
 30
0.0
 10
6.115576732993658
 20
-5.806203262385944
 30
0.0
 10
6.434486284679274
 20
-5.78748974298786
 30
0.0
  0
SPLINE
  5
45
330
1F
100
AcDbEntity
  8
Layer 1
370
     0
100
AcDbSpline
210
0.0
220
0.0
230
1.0
 70
    11
 71
     3
 72
    35
 73
    31
 74
     0
 42
0.0000000001
 43
0.0000000001
 12
1.0
 22
0.0
 32
0.0
 13
1.0
 23
0.0
 33
0.0
 40
0.0
 40
0.0
 40
0.0
 40
0.0
 40
1.0
 40
1.0
 40
1.0
 40
2.0
 40
2.0
 40
2.0
 40
3.0
 40
3.0
 40
3.0
 40
4.0
 40
4.0
 40
4.0
 40
5.0
 40
5.0
 40
5.0
 40
6.0
 40
6.0
 40
6.0
 40
7.0
 40
7.0
 40
7.0
 40
8.0
 40
8.0
 40
8.0
 40
9.0
 40
9.0
 40
9.0
 40
10.0
 40
10.0
 40
10.0
 40
10.0
 10
5.525541080724438
 20
-5.398784353952502
 30
0.0
 10
5.591558216933195
 20
-5.327329099327875
 30
0.0
 10
5.681187175632127
 20
-5.297299498755339
 30
0.0
 10
5.768297006783428
 20
-5.275347100999889
 30
0.0
 10
5.877839068954168
 20
-5.247436766513133
 30
0.0
 10
5.989400431778184
 20
-5.239439536001151
 30
0.0
 10
6.084187604027041
 20
-5.235280976134858
 30
0.0
 10
6.155562884543492
 20
-5.232042097777505
 30
0.0
 10
6.227238061196557
 20
-5.218686722822377
 30
0.0
 10
6.310309291041297
 20
-5.192315855209194
 30
0.0
 10
6.310309291041297
 20
-5.192315855209194
 30
0.0
 10
6.283818465639544
 20
-5.278326069365625
 30
0.0
 10
6.283818465639544
 20
-5.278326069365625
 30
0.0
 10
6.259986719315848
 20
-5.355919198408261
 30
0.0
 10
6.236174966067917
 20
-5.433592299755976
 30
0.0
 10
6.211884489846978
 20
-5.510745581120469
 30
0.0
 10
6.192491205855453
 20
-5.571824429155703
 30
0.0
 10
6.154583223830488
 20
-5.606532409577767
 30
0.0
 10
6.089025928364562
 20
-5.623386572881878
 30
0.0
 10
5.893613605740572
 20
-5.673069367437569
 30
0.0
 10
5.721473223318577
 20
-5.762658342248073
 30
0.0
 10
5.577063236996385
 20
-5.889674355854961
 30
0.0
 10
5.570165625854037
 20
-5.849508265608329
 30
0.0
 10
5.562588250135351
 20
-5.809442140743309
 30
0.0
 10
5.554970888265112
 20
-5.769196078191763
 30
0.0
 10
5.535017798641749
 20
-5.663632635433424
 30
0.0
 10
5.514344958290482
 20
-5.554390466639575
 30
0.0
 10
5.505508018797981
 20
-5.436811185037022
 30
0.0
 10
5.504788268070077
 20
-5.433492334374566
 30
0.0
 10
5.502688995113709
 20
-5.423455810082083
 30
0.0
 10
5.525541080724438
 20
-5.398784353952502
 30
0.0
  0
SPLINE
  5
46
330
1F
100
AcDbEntity
  8
Layer 1
370
     0
100
AcDbSpline
210
0.0
220
0.0
230
1.0
 70
    11
 71
     3
 72
    56
 73
    52
 74
     0
 42
0.0000000001
 43
0.0000000001
 12
1.0
 22
0.0
 32
0.0
 13
1.0
 23
0.0
 33
0.0
 40
0.0
 40
0.0
 40
0.0
 40
0.0
 40
1.0
 40
1.0
 40
1.0
 40
2.0
 40
2.0
 40
2.0
 40
3.0
 40
3.0
 40
3.0
 40
4.0
 40
4.0
 40
4.0
 40
5.0
 40
5.0
 40
5.0
 40
6.0
 40
6.0
 40
6.0
 40
7.0
 40
7.0
 40
7.0
 40
8.0
 40
8.0
 40
8.0
 40
9.0
 40
9.0
 40
9.0
 40
10.0
 40
10.0
 40
10.0
 40
11.0
 40
11.0
 40
11.0
 40
12.0
 40
12.0
 40
12.0
 40
13.0
 40
13.0
 40
13.0
 40
14.0
 40
14.0
 40
14.0
 40
15.0
 40
15.0
 40
15.0
 40
16.0
 40
16.0
 40
16.0
 40
17.0
 40
17.0
 40
17.0
 40
17.0
 10
5.069578994601784
 20
-6.915579079009401
 30
0.0
 10
5.069578994601784
 20
-6.915579079009401
 30
0.0
 10
5.073537623605223
 20
-6.896185795017876
 30
0.0
 10
5.073537623605223
 20
-6.896185795017876
 30
0.0
 10
5.123061555639285
 20
-6.628618455163
 30
0.0
 10
5.170304110355801
 20
-6.343197298190009
 30
0.0
 10
5.157168659571678
 20
-6.054877145156373
 30
0.0
 10
5.14763196242705
 20
-5.849008438701414
 30
0.0
 10
5.131177661064296
 20
-5.641000473084532
 30
0.0
 10
5.11518320044436
 20
-5.439110388809328
 30
0.0
 10
5.078595871776277
 20
-4.980309274336226
 30
0.0
 10
5.154609545872492
 20
-4.551617732740952
 30
0.0
 10
5.341104956700873
 20
-4.164951637486107
 30
0.0
 10
5.349941896193386
 20
-4.146737944995114
 30
0.0
 10
5.358798828761665
 20
-4.128204363283544
 30
0.0
 10
5.367395851344882
 20
-4.109230933893829
 30
0.0
 10
5.370194881953365
 20
-4.102933114865626
 30
0.0
 10
5.372873954107212
 20
-4.097055150439246
 30
0.0
 10
5.375393081654844
 20
-4.091537061386084
 30
0.0
 10
5.3755930124126
 20
-4.092296798284615
 30
0.0
 10
5.37581293624612
 20
-4.092976562878233
 30
0.0
 10
5.376032860079641
 20
-4.093576355166584
 30
0.0
 10
5.376032860079641
 20
-4.093576355166584
 30
0.0
 10
5.382490623554935
 20
-4.114589078336786
 30
0.0
 10
5.382490623554935
 20
-4.114589078336786
 30
0.0
 10
5.41655991542954
 20
-4.222471717943575
 30
0.0
 10
5.434252696736191
 20
-4.339271269571264
 30
0.0
 10
5.436631872753398
 20
-4.472665074511269
 30
0.0
 10
5.441790086303336
 20
-4.614316019954875
 30
0.0
 10
5.403423373891276
 20
-4.750608820955512
 30
0.0
 10
5.361179094133996
 20
-4.876865097663666
 30
0.0
 10
5.27094925380671
 20
-5.146531710527989
 30
0.0
 10
5.263771739603511
 20
-5.437410977325359
 30
0.0
 10
5.338625815304781
 20
-5.792168122837375
 30
0.0
 10
5.374033552502156
 20
-5.95985005359762
 30
0.0
 10
5.407382002894703
 20
-6.158161377218726
 30
0.0
 10
5.386570301009467
 20
-6.357072493128195
 30
0.0
 10
5.362717471613551
 20
-6.583873950448277
 30
0.0
 10
5.278146761085673
 20
-6.756574143354757
 30
0.0
 10
5.128078734319185
 20
-6.885029658453605
 30
0.0
 10
5.128078734319185
 20
-6.885029658453605
 30
0.0
 10
5.127558914349038
 20
-6.885469506131762
 30
0.0
 10
5.127558914349038
 20
-6.885469506131762
 30
0.0
 10
5.115603055035636
 20
-6.896005857331349
 30
0.0
 10
5.106006378663677
 20
-6.9032433509448
 30
0.0
 10
5.097569300686662
 20
-6.908001703099418
 30
0.0
 10
5.085713406752145
 20
-6.914559432119226
 30
0.0
 10
5.075956785773983
 20
-6.919577694265475
 30
0.0
 10
5.067959555464022
 20
-6.923316399529742
 30
0.0
 10
5.068559347737264
 20
-6.920517368850697
 30
0.0
 10
5.069119153858966
 20
-6.917878282781707
 30
0.0
 10
5.069578994601784
 20
-6.915579079009401
 30
0.0
  0
SPLINE
  5
47
330
1F
100
AcDbEntity
  8
Layer 1
370
     0
100
AcDbSpline
210
0.0
220
0.0
230
1.0
 70
    11
 71
     3
 72
    50
 73
    46
 74
     0
 42
0.0000000001
 43
0.0000000001
 12
1.0
 22
0.0
 32
0.0
 13
1.0
 23
0.0
 33
0.0
 40
0.0
 40
0.0
 40
0.0
 40
0.0
 40
1.0
 40
1.0
 40
1.0
 40
2.0
 40
2.0
 40
2.0
 40
3.0
 40
3.0
 40
3.0
 40
4.0
 40
4.0
 40
4.0
 40
5.0
 40
5.0
 40
5.0
 40
6.0
 40
6.0
 40
6.0
 40
7.0
 40
7.0
 40
7.0
 40
8.0
 40
8.0
 40
8.0
 40
9.0
 40
9.0
 40
9.0
 40
10.0
 40
10.0
 40
10.0
 40
11.0
 40
11.0
 40
11.0
 40
12.0
 40
12.0
 40
12.0
 40
13.0
 40
13.0
 40
13.0
 40
14.0
 40
14.0
 40
14.0
 40
15.0
 40
15.0
 40
15.0
 40
15.0
 10
4.590524905959114
 20
-5.799905443357741
 30
0.0
 10
4.611717566280516
 20
-5.7344880977697
 30
0.0
 10
4.636169097953231
 20
-5.670250343682028
 30
0.0
 10
4.660640622701723
 20
-5.606032582670852
 30
0.0
 10
4.706524731605151
 20
-5.485554305007654
 30
0.0
 10
4.754008286570575
 20
-5.360937460554497
 30
0.0
 10
4.779059610516533
 20
-5.229243067098284
 30
0.0
 10
4.790915504451062
 20
-5.166784696799659
 30
0.0
 10
4.792834839725452
 20
-5.104346319577189
 30
0.0
 10
4.794674202696746
 20
-5.043947236135383
 30
0.0
 10
4.796273648758731
 20
-4.992125182417781
 30
0.0
 10
4.797774204564107
 20
-4.943122152455531
 30
0.0
 10
4.805050609023914
 20
-4.894299060179795
 30
0.0
 10
4.839278754750567
 20
-4.665698225994523
 30
0.0
 10
4.924069389111978
 20
-4.457950170369259
 30
0.0
 10
5.057723100667267
 20
-4.274193806279944
 30
0.0
 10
4.956658102625081
 20
-4.540121713879986
 30
0.0
 10
4.901257289652802
 20
-4.825802780844596
 30
0.0
 10
4.889142563163507
 20
-5.141353503771547
 30
0.0
 10
4.882283860742405
 20
-5.31201440289735
 30
0.0
 10
4.898678182877839
 20
-5.48267530202333
 30
0.0
 10
4.914533770039169
 20
-5.647638174409445
 30
0.0
 10
4.914533770039169
 20
-5.647638174409445
 30
0.0
 10
4.922230026140684
 20
-5.728790071029835
 30
0.0
 10
4.922230026140684
 20
-5.728790071029835
 30
0.0
 10
4.956818047231283
 20
-6.103960147423726
 30
0.0
 10
4.942223101915588
 20
-6.445042028760225
 30
0.0
 10
4.877665460238404
 20
-6.771369019802048
 30
0.0
 10
4.870467952959428
 20
-6.807456522487301
 30
0.0
 10
4.862770618786095
 20
-6.843444059791333
 30
0.0
 10
4.853613790081188
 20
-6.88171080779115
 30
0.0
 10
4.851574496352137
 20
-6.89022785828638
 30
0.0
 10
4.849375258016898
 20
-6.899164763383598
 30
0.0
 10
4.84733596428786
 20
-6.906902083903964
 30
0.0
 10
4.840258415463546
 20
-6.903503260936405
 30
0.0
 10
4.831681385956105
 20
-6.899324707993805
 30
0.0
 10
4.822224661114571
 20
-6.894726300449393
 30
0.0
 10
4.666798490040403
 20
-6.818172811373415
 30
0.0
 10
4.574530445339178
 20
-6.687418092502437
 30
0.0
 10
4.531905207787063
 20
-6.483228804454939
 30
0.0
 10
4.515490892575864
 20
-6.405055876200095
 30
0.0
 10
4.508953156797461
 20
-6.321244900434571
 30
0.0
 10
4.511912132012159
 20
-6.226897573469235
 30
0.0
 10
4.51591074716714
 20
-6.091284537062216
 30
0.0
 10
4.541662897417583
 20
-5.951592913094019
 30
0.0
 10
4.590524905959114
 20
-5.799905443357741
 30
0.0
  0
SPLINE
  5
48
330
1F
100
AcDbEntity
  8
Layer 1
370
     0
100
AcDbSpline
210
0.0
220
0.0
230
1.0
 70
    11
 71
     3
 72
    23
 73
    19
 74
     0
 42
0.0000000001
 43
0.0000000001
 12
1.0
 22
0.0
 32
0.0
 13
1.0
 23
0.0
 33
0.0
 40
0.0
 40
0.0
 40
0.0
 40
0.0
 40
1.0
 40
1.0
 40
1.0
 40
2.0
 40
2.0
 40
2.0
 40
3.0
 40
3.0
 40
3.0
 40
4.0
 40
4.0
 40
4.0
 40
5.0
 40
5.0
 40
5.0
 40
6.0
 40
6.0
 40
6.0
 40
6.0
 10
4.808409445754111
 20
-7.126046193008783
 30
0.0
 10
4.825583497844756
 20
-7.132783859715119
 30
0.0
 10
4.841797882298212
 20
-7.138221976463379
 30
0.0
 10
4.857332502175319
 20
-7.142560474016161
 30
0.0
 10
4.882383826121276
 20
-7.237847475566544
 30
0.0
 10
4.912033557495483
 20
-7.33321444942203
 30
0.0
 10
4.945541952494232
 20
-7.426442164115592
 30
0.0
 10
5.062401480398598
 20
-7.752889113614956
 30
0.0
 10
5.218428529494771
 20
-8.066560487371614
 30
0.0
 10
5.370194881953365
 20
-8.37171481063304
 30
0.0
 10
5.544674454241027
 20
-8.722893195490794
 30
0.0
 10
5.759919908033731
 20
-9.0417627690802
 30
0.0
 10
6.013192191950325
 20
-9.324724777670882
 30
0.0
 10
5.182179997366094
 20
-8.638942268191183
 30
0.0
 10
4.628611715310322
 20
-7.756927715023519
 30
0.0
 10
4.38057761724676
 20
-6.733742050243007
 30
0.0
 10
4.460130065755126
 20
-6.942929607360433
 30
0.0
 10
4.592664165067023
 20
-7.042255210319379
 30
0.0
 10
4.808409445754111
 20
-7.126046193008783
 30
0.0
  0
SPLINE
  5
49
330
1F
100
AcDbEntity
  8
Layer 1
370
     0
100
AcDbSpline
210
0.0
220
0.0
230
1.0
 70
    11
 71
     3
 72
    35
 73
    31
 74
     0
 42
0.0000000001
 43
0.0000000001
 12
1.0
 22
0.0
 32
0.0
 13
1.0
 23
0.0
 33
0.0
 40
0.0
 40
0.0
 40
0.0
 40
0.0
 40
1.0
 40
1.0
 40
1.0
 40
2.0
 40
2.0
 40
2.0
 40
3.0
 40
3.0
 40
3.0
 40
4.0
 40
4.0
 40
4.0
 40
5.0
 40
5.0
 40
5.0
 40
6.0
 40
6.0
 40
6.0
 40
7.0
 40
7.0
 40
7.0
 40
8.0
 40
8.0
 40
8.0
 40
9.0
 40
9.0
 40
9.0
 40
10.0
 40
10.0
 40
10.0
 40
10.0
 10
4.739194491063661
 20
-8.175022926190598
 30
0.0
 10
5.077616211063299
 20
-8.737448155022598
 30
0.0
 10
5.518683455733645
 20
-9.229257838433972
 30
0.0
 10
6.035864339879077
 20
-9.62502078339609
 30
0.0
 10
5.80262621839587
 20
-9.487728328581397
 30
0.0
 10
5.584160778896476
 20
-9.337060505735481
 30
0.0
 10
5.382150741266766
 20
-9.17387701713844
 30
0.0
 10
4.992285763655976
 20
-8.858846114194723
 30
0.0
 10
4.635789229513509
 20
-8.518543962833089
 30
0.0
 10
4.322538781388908
 20
-8.162427288134191
 30
0.0
 10
3.773267947508013
 20
-7.538243446673176
 30
0.0
 10
3.333380294308388
 20
-6.816893254491434
 30
0.0
 10
3.015130514123332
 20
-6.018129870953796
 30
0.0
 10
2.872999738439489
 20
-5.662253113170045
 30
0.0
 10
2.746123679571888
 20
-5.270748693455466
 30
0.0
 10
2.627784664060187
 20
-4.823003750165374
 30
0.0
 10
2.814440019494769
 20
-4.809808319820629
 30
0.0
 10
3.011251857423
 20
-4.731215536963987
 30
0.0
 10
3.174555300352495
 20
-4.66595813598614
 30
0.0
 10
3.36243023340934
 20
-4.59092412070744
 30
0.0
 10
3.543767430687795
 20
-4.496156939140304
 30
0.0
 10
3.713549677900851
 20
-4.384195711972337
 30
0.0
 10
3.95104637729854
 20
-4.227529966242463
 30
0.0
 10
4.143600748683184
 20
-4.025240020441578
 30
0.0
 10
4.267476787588079
 20
-3.799998023071402
 30
0.0
 10
4.217114229711076
 20
-3.946287362211895
 30
0.0
 10
4.172390778526215
 20
-4.09521578742158
 30
0.0
 10
4.134862715973087
 20
-4.247083194844196
 30
0.0
 10
3.802137948926985
 20
-5.595096369945584
 30
0.0
 10
4.027299968304052
 20
-6.992232533466954
 30
0.0
 10
4.739194491063661
 20
-8.175022926190598
 30
0.0
  0
SPLINE
  5
4A
330
1F
100
AcDbEntity
  8
Layer 1
370
     0
100
AcDbSpline
210
0.0
220
0.0
230
1.0
 70
    11
 71
     3
 72
    38
 73
    34
 74
     0
 42
0.0000000001
 43
0.0000000001
 12
1.0
 22
0.0
 32
0.0
 13
1.0
 23
0.0
 33
0.0
 40
0.0
 40
0.0
 40
0.0
 40
0.0
 40
1.0
 40
1.0
 40
1.0
 40
2.0
 40
2.0
 40
2.0
 40
3.0
 40
3.0
 40
3.0
 40
4.0
 40
4.0
 40
4.0
 40
5.0
 40
5.0
 40
5.0
 40
6.0
 40
6.0
 40
6.0
 40
7.0
 40
7.0
 40
7.0
 40
8.0
 40
8.0
 40
8.0
 40
9.0
 40
9.0
 40
9.0
 40
10.0
 40
10.0
 40
10.0
 40
11.0
 40
11.0
 40
11.0
 40
11.0
 10
4.42328282710197
 20
-8.704279641474134
 30
0.0
 10
4.417705824481724
 20
-8.729290979900421
 30
0.0
 10
4.400350769188145
 20
-8.75114341227446
 30
0.0
 10
4.373000241528063
 20
-8.767557727900238
 30
0.0
 10
4.302884524785441
 20
-8.809583174240844
 30
0.0
 10
4.22543134923343
 20
-8.830855807402662
 30
0.0
 10
4.142240160934029
 20
-8.830855807402662
 30
0.0
 10
4.141640368660774
 20
-8.830855807402662
 30
0.0
 10
4.141040576387531
 20
-8.830855807402662
 30
0.0
 10
4.140440784114288
 20
-8.830855807402662
 30
0.0
 10
4.025260674575015
 20
-8.828656569011981
 30
0.0
 10
3.909600731217147
 20
-8.793508740911774
 30
0.0
 10
3.78338444385012
 20
-8.711417169706136
 30
0.0
 10
3.78338444385012
 20
-8.711417169706136
 30
0.0
 10
3.768749512382884
 20
-8.701980437702003
 30
0.0
 10
3.768749512382884
 20
-8.701980437702003
 30
0.0
 10
3.765990467925942
 20
-8.700181060836814
 30
0.0
 10
3.762751589650406
 20
-8.698141767056313
 30
0.0
 10
3.759232808314032
 20
-8.695842563284007
 30
0.0
 10
3.759232808314032
 20
-8.695842563284007
 30
0.0
 10
3.785683647564231
 20
-8.686145921288244
 30
0.0
 10
3.785683647564231
 20
-8.686145921288244
 30
0.0
 10
3.840564640566375
 20
-8.665393108109633
 30
0.0
 10
3.893466319066786
 20
-8.64012185969174
 30
0.0
 10
3.944688579202117
 20
-8.615710313553766
 30
0.0
 10
4.006487176422373
 20
-8.58628050526977
 30
0.0
 10
4.064906943836667
 20
-8.558370170782812
 30
0.0
 10
4.126865485663112
 20
-8.537517392222803
 30
0.0
 10
4.229090082100242
 20
-8.503229266402741
 30
0.0
 10
4.3480288898852
 20
-8.539656651384904
 30
0.0
 10
4.403409709781701
 20
-8.622168077192352
 30
0.0
 10
4.422163214858579
 20
-8.649998439374006
 30
0.0
 10
4.429020839849374
 20
-8.678408600767852
 30
0.0
 10
4.42328282710197
 20
-8.704279641474134
 30
0.0
  0
SPLINE
  5
4B
330
1F
100
AcDbEntity
  8
Layer 1
370
     0
100
AcDbSpline
210
0.0
220
0.0
230
1.0
 70
    11
 71
     3
 72
    26
 73
    22
 74
     0
 42
0.0000000001
 43
0.0000000001
 12
1.0
 22
0.0
 32
0.0
 13
1.0
 23
0.0
 33
0.0
 40
0.0
 40
0.0
 40
0.0
 40
0.0
 40
1.0
 40
1.0
 40
1.0
 40
2.0
 40
2.0
 40
2.0
 40
3.0
 40
3.0
 40
3.0
 40
4.0
 40
4.0
 40
4.0
 40
5.0
 40
5.0
 40
5.0
 40
6.0
 40
6.0
 40
6.0
 40
7.0
 40
7.0
 40
7.0
 40
7.0
 10
2.859784315352272
 20
-6.208443964062957
 30
0.0
 10
2.703998268914158
 20
-6.14130721391464
 30
0.0
 10
2.547852347112085
 20
-6.107538908077812
 30
0.0
 10
2.393565781357084
 20
-6.107538908077812
 30
0.0
 10
2.377651293040256
 20
-6.107538908077812
 30
0.0
 10
2.361756797799204
 20
-6.107958762679623
 30
0.0
 10
2.345842309482375
 20
-6.108638527273241
 30
0.0
 10
2.309294966965834
 20
-5.674768778921348
 30
0.0
 10
2.325209455282662
 20
-5.235700830736682
 30
0.0
 10
2.393225899068915
 20
-4.802250936986789
 30
0.0
 10
2.394625414373157
 20
-4.802250936986789
 30
0.0
 10
2.396044922753175
 20
-4.802250936986789
 30
0.0
 10
2.397444438057417
 20
-4.802150971605366
 30
0.0
 10
2.438830104911492
 20
-4.961595754938141
 30
0.0
 10
2.488213002075529
 20
-5.120340780601155
 30
0.0
 10
2.536016446253332
 20
-5.274147516423201
 30
0.0
 10
2.555629653588527
 20
-5.337185685933845
 30
0.0
 10
2.575282847075262
 20
-5.400323820826088
 30
0.0
 10
2.594436213667627
 20
-5.463621900328525
 30
0.0
 10
2.671169638491746
 20
-5.718153754448836
 30
0.0
 10
2.760238791068976
 20
-5.968187166406324
 30
0.0
 10
2.859784315352272
 20
-6.208443964062957
 30
0.0
  0
SPLINE
  5
4C
330
1F
100
AcDbEntity
  8
Layer 1
370
     0
100
AcDbSpline
210
0.0
220
0.0
230
1.0
 70
    11
 71
     3
 72
    26
 73
    22
 74
     0
 42
0.0000000001
 43
0.0000000001
 12
1.0
 22
0.0
 32
0.0
 13
1.0
 23
0.0
 33
0.0
 40
0.0
 40
0.0
 40
0.0
 40
0.0
 40
1.0
 40
1.0
 40
1.0
 40
2.0
 40
2.0
 40
2.0
 40
3.0
 40
3.0
 40
3.0
 40
4.0
 40
4.0
 40
4.0
 40
5.0
 40
5.0
 40
5.0
 40
6.0
 40
6.0
 40
6.0
 40
7.0
 40
7.0
 40
7.0
 40
7.0
 10
3.746037378302592
 20
-4.090597386800836
 30
0.0
 10
3.794960434723798
 20
-3.999908792794877
 30
0.0
 10
3.829068621995791
 20
-3.904021998956169
 30
0.0
 10
3.847703219739388
 20
-3.80475637522602
 30
0.0
 10
3.865655950663886
 20
-3.710229110574194
 30
0.0
 10
3.885649026438803
 20
-3.639613565153392
 30
0.0
 10
3.912539713356055
 20
-3.576155541040748
 30
0.0
 10
3.920057109847423
 20
-3.558721578524619
 30
0.0
 10
3.924515565745234
 20
-3.555482700167254
 30
0.0
 10
3.937072270710915
 20
-3.555482700167254
 30
0.0
 10
3.938390760333012
 20
-3.555482700167254
 30
0.0
 10
3.939790275637266
 20
-3.555562672472357
 30
0.0
 10
3.941289756320379
 20
-3.555642644777461
 30
0.0
 10
4.000189357553268
 20
-3.558201758541195
 30
0.0
 10
4.067486050611629
 20
-3.558461668533002
 30
0.0
 10
4.134862715973087
 20
-3.544426528984432
 30
0.0
 10
4.126145734935221
 20
-3.568758102817103
 30
0.0
 10
4.117228823139612
 20
-3.592909738963259
 30
0.0
 10
4.10573280456904
 20
-3.616141693600677
 30
0.0
 10
4.011565417669203
 20
-3.808315142803786
 30
0.0
 10
3.893126436778617
 20
-3.964680992389579
 30
0.0
 10
3.746037378302592
 20
-4.090597386800836
 30
0.0
  0
SPLINE
  5
4D
330
1F
100
AcDbEntity
  8
Layer 1
370
     0
100
AcDbSpline
210
0.0
220
0.0
230
1.0
 70
    11
 71
     3
 72
    71
 73
    67
 74
     0
 42
0.0000000001
 43
0.0000000001
 12
1.0
 22
0.0
 32
0.0
 13
1.0
 23
0.0
 33
0.0
 40
0.0
 40
0.0
 40
0.0
 40
0.0
 40
1.0
 40
1.0
 40
1.0
 40
2.0
 40
2.0
 40
2.0
 40
3.0
 40
3.0
 40
3.0
 40
4.0
 40
4.0
 40
4.0
 40
5.0
 40
5.0
 40
5.0
 40
6.0
 40
6.0
 40
6.0
 40
7.0
 40
7.0
 40
7.0
 40
8.0
 40
8.0
 40
8.0
 40
9.0
 40
9.0
 40
9.0
 40
10.0
 40
10.0
 40
10.0
 40
11.0
 40
11.0
 40
11.0
 40
12.0
 40
12.0
 40
12.0
 40
13.0
 40
13.0
 40
13.0
 40
14.0
 40
14.0
 40
14.0
 40
15.0
 40
15.0
 40
15.0
 40
16.0
 40
16.0
 40
16.0
 40
17.0
 40
17.0
 40
17.0
 40
18.0
 40
18.0
 40
18.0
 40
19.0
 40
19.0
 40
19.0
 40
20.0
 40
20.0
 40
20.0
 40
21.0
 40
21.0
 40
21.0
 40
22.0
 40
22.0
 40
22.0
 40
22.0
 10
4.991146158336808
 20
-0.9070198784345646
 30
0.0
 10
5.83913247425394
 20
-0.3962367656336659
 30
0.0
 10
6.811615673021454
 20
-0.1262902497014061
 30
0.0
 10
7.803492155290617
 20
-0.1262902497014061
 30
0.0
 10
8.245039233779556
 20
-0.1262902497014061
 30
0.0
 10
8.690404989741536
 20
-0.17947183260608
 30
0.0
 10
9.128393300742522
 20
-0.2843755038471221
 30
0.0
 10
8.151151749940583
 20
-0.2968711765221062
 30
0.0
 10
7.207038725697657
 20
-0.580512949706215
 30
0.0
 10
6.37870560326726
 20
-1.113588342559297
 30
0.0
 10
5.491113004240042
 20
-1.685110421098721
 30
0.0
 10
4.799112665518767
 20
-2.506905828511107
 30
0.0
 10
4.390994009725483
 20
-3.477609668056693
 30
0.0
 10
4.393353192666924
 20
-3.466953358399539
 30
0.0
 10
4.397112955913333
 20
-3.456516972581375
 30
0.0
 10
4.399151184641647
 20
-3.445820676771594
 30
0.0
 10
4.403789578221423
 20
-3.421149220642014
 30
0.0
 10
4.430280403623189
 20
-3.33371949806974
 30
0.0
 10
4.374379763756527
 20
-3.289634764872314
 30
0.0
 10
4.317599428555783
 20
-3.244390433250664
 30
0.0
 10
4.244584715825807
 20
-3.269801633202645
 30
0.0
 10
4.208497214052082
 20
-3.286295921133539
 30
0.0
 10
4.208497214052082
 20
-3.286295921133539
 30
0.0
 10
4.185925031502203
 20
-3.296432410807445
 30
0.0
 10
4.185925031502203
 20
-3.296432410807445
 30
0.0
 10
4.131084024651626
 20
-3.320763984640292
 30
0.0
 10
4.095396384393401
 20
-3.332919775018379
 30
0.0
 10
4.072304381873386
 20
-3.338717767139668
 30
0.0
 10
4.073624981703182
 20
-3.336758445664271
 30
0.0
 10
4.075024497042881
 20
-3.334719151883582
 30
0.0
 10
4.076462941634556
 20
-3.332579892721658
 30
0.0
 10
4.203279021274827
 20
-3.149083438623974
 30
0.0
 10
4.268016600634003
 20
-2.983860656246229
 30
0.0
 10
4.28021237685669
 20
-2.812599964831911
 30
0.0
 10
4.282511580570814
 20
-2.78113086276739
 30
0.0
 10
4.284310957390554
 20
-2.752200881390119
 30
0.0
 10
4.286090341134519
 20
-2.723870692301362
 30
0.0
 10
4.290728734714295
 20
-2.648496794725929
 30
0.0
 10
4.295148266885399
 20
-2.577381422398035
 30
0.0
 10
4.308382620623547
 20
-2.467379516705642
 30
0.0
 10
4.310681824337658
 20
-2.442188240592827
 30
0.0
 10
4.316759719373231
 20
-2.375591303504254
 30
0.0
 10
4.261938705598431
 20
-2.34674129443225
 30
0.0
 10
4.234828094847646
 20
-2.33236627258696
 30
0.0
 10
4.188804034413794
 20
-2.325888515872243
 30
0.0
 10
4.123646600463354
 20
-2.376510985012992
 30
0.0
 10
3.968720256283556
 20
-2.497489089583281
 30
0.0
 10
3.788923575476272
 20
-2.556108789236204
 30
0.0
 10
3.598568451386831
 20
-2.618127311856672
 30
0.0
 10
3.553763968575254
 20
-2.632682271388489
 30
0.0
 10
3.509020507556619
 20
-2.647317203225397
 30
0.0
 10
3.464435947452279
 20
-2.662791844266116
 30
0.0
 10
3.464055037573227
 20
-2.662971781952642
 30
0.0
 10
3.463675169133491
 20
-2.663051754257746
 30
0.0
 10
3.463335286845323
 20
-2.66321169886794
 30
0.0
 10
3.453518686639844
 20
-2.60255270543453
 30
0.0
 10
3.43424640226936
 20
-2.54573238264681
 30
0.0
 10
3.418510810957969
 20
-2.50294719940766
 30
0.0
 10
3.416852425905871
 20
-2.498268819558146
 30
0.0
 10
3.411833123649153
 20
-2.487372592985518
 30
0.0
 10
3.405315380946528
 20
-2.473497398047332
 30
0.0
 10
3.39765907267699
 20
-2.457263020107878
 30
0.0
 10
3.379364368590687
 20
-2.418376486743391
 30
0.0
 10
3.37230681284215
 20
-2.397783618175001
 30
0.0
 10
3.805456799505628
 20
-1.794772444494558
 30
0.0
 10
4.350068183614237
 20
-1.293186146782318
 30
0.0
 10
4.991146158336808
 20
-0.9070198784345646
 30
0.0
  0
SPLINE
  5
4E
330
1F
100
AcDbEntity
  8
Layer 1
370
     0
100
AcDbSpline
210
0.0
220
0.0
230
1.0
 70
    11
 71
     3
 72
    53
 73
    49
 74
     0
 42
0.0000000001
 43
0.0000000001
 12
1.0
 22
0.0
 32
0.0
 13
1.0
 23
0.0
 33
0.0
 40
0.0
 40
0.0
 40
0.0
 40
0.0
 40
1.0
 40
1.0
 40
1.0
 40
2.0
 40
2.0
 40
2.0
 40
3.0
 40
3.0
 40
3.0
 40
4.0
 40
4.0
 40
4.0
 40
5.0
 40
5.0
 40
5.0
 40
6.0
 40
6.0
 40
6.0
 40
7.0
 40
7.0
 40
7.0
 40
8.0
 40
8.0
 40
8.0
 40
9.0
 40
9.0
 40
9.0
 40
10.0
 40
10.0
 40
10.0
 40
11.0
 40
11.0
 40
11.0
 40
12.0
 40
12.0
 40
12.0
 40
13.0
 40
13.0
 40
13.0
 40
14.0
 40
14.0
 40
14.0
 40
15.0
 40
15.0
 40
15.0
 40
16.0
 40
16.0
 40
16.0
 40
16.0
 10
3.466014358999157
 20
-2.889353384670901
 30
0.0
 10
3.509779201870451
 20
-2.874878397444187
 30
0.0
 10
3.553863933954125
 20
-2.861023195582144
 30
0.0
 10
3.597968659113588
 20
-2.847227972948872
 30
0.0
 10
3.754794345491998
 20
-2.797885060689901
 30
0.0
 10
3.916618300814144
 20
-2.747022674633677
 30
0.0
 10
4.069965192007721
 20
-2.666530549530408
 30
0.0
 10
4.064946929988208
 20
-2.815918815494557
 30
0.0
 10
4.052651188386638
 20
-2.979702096380139
 30
0.0
 10
3.955704763954095
 20
-3.1164147519826
 30
0.0
 10
3.955704763954095
 20
-3.1164147519826
 30
0.0
 10
3.955624791650987
 20
-3.116494724287691
 30
0.0
 10
3.955624791650987
 20
-3.116494724287691
 30
0.0
 10
3.929753751598254
 20
-3.153241998490254
 30
0.0
 10
3.905042309940465
 20
-3.190689030362755
 30
0.0
 10
3.880330868282676
 20
-3.228036096853657
 30
0.0
 10
3.855879336609948
 20
-3.265123253353118
 30
0.0
 10
3.83144779801301
 20
-3.302130437547311
 30
0.0
 10
3.805896647172669
 20
-3.338377884842948
 30
0.0
 10
3.726004316376121
 20
-3.451858585807991
 30
0.0
 10
3.674322215497972
 20
-3.573176572675013
 30
0.0
 10
3.647911362399314
 20
-3.709369408294227
 30
0.0
 10
3.578275479475299
 20
-4.069064843647387
 30
0.0
 10
3.363549845652743
 20
-4.32675560381996
 30
0.0
 10
2.991438719330063
 20
-4.497176586030466
 30
0.0
 10
2.873099703818361
 20
-4.551357822749335
 30
0.0
 10
2.750122294726869
 20
-4.585905858561015
 30
0.0
 10
2.618667821506822
 20
-4.600780707313409
 30
0.0
 10
2.589198027814607
 20
-4.604279495662379
 30
0.0
 10
2.585279384962721
 20
-4.60291996647532
 30
0.0
 10
2.582000520535631
 20
-4.598741413532896
 30
0.0
 10
2.582640298960428
 20
-4.594742798276823
 30
0.0
 10
2.590138721728648
 20
-4.584286419382326
 30
0.0
 10
2.594596158273829
 20
-4.577988600354312
 30
0.0
 10
2.594596158273829
 20
-4.577988600354312
 30
0.0
 10
2.602513416280696
 20
-4.56659254687458
 30
0.0
 10
2.602513416280696
 20
-4.56659254687458
 30
0.0
 10
2.757519732763588
 20
-4.328215098388442
 30
0.0
 10
2.854546129499239
 20
-4.089157885308674
 30
0.0
 10
2.899130688477296
 20
-3.835885594994011
 30
0.0
 10
2.921203044132805
 20
-3.711588639761253
 30
0.0
 10
2.932259215036323
 20
-3.583892861561114
 30
0.0
 10
2.934978273341711
 20
-3.422588722134176
 30
0.0
 10
2.940296431497839
 20
-3.251687906092898
 30
0.0
 10
2.972705207328974
 20
-3.221818250130557
 30
0.0
 10
3.068931881033627
 20
-3.133168949905098
 30
0.0
 10
3.199826548131985
 20
-3.013210492225337
 30
0.0
 10
3.326022842423223
 20
-2.935717328564124
 30
0.0
 10
3.466014358999157
 20
-2.889353384670901
 30
0.0
  0
SPLINE
  5
4F
330
1F
100
AcDbEntity
  8
Layer 1
370
     0
100
AcDbSpline
210
0.0
220
0.0
230
1.0
 70
    11
 71
     3
 72
    47
 73
    43
 74
     0
 42
0.0000000001
 43
0.0000000001
 12
1.0
 22
0.0
 32
0.0
 13
1.0
 23
0.0
 33
0.0
 40
0.0
 40
0.0
 40
0.0
 40
0.0
 40
1.0
 40
1.0
 40
1.0
 40
2.0
 40
2.0
 40
2.0
 40
3.0
 40
3.0
 40
3.0
 40
4.0
 40
4.0
 40
4.0
 40
5.0
 40
5.0
 40
5.0
 40
6.0
 40
6.0
 40
6.0
 40
7.0
 40
7.0
 40
7.0
 40
8.0
 40
8.0
 40
8.0
 40
9.0
 40
9.0
 40
9.0
 40
10.0
 40
10.0
 40
10.0
 40
11.0
 40
11.0
 40
11.0
 40
12.0
 40
12.0
 40
12.0
 40
13.0
 40
13.0
 40
13.0
 40
14.0
 40
14.0
 40
14.0
 40
14.0
 10
2.781091569102209
 20
-2.603492380019765
 30
0.0
 10
2.820858821999713
 20
-2.563946075137804
 30
0.0
 10
2.86560230040277
 20
-2.526938890943623
 30
0.0
 10
2.914265446838903
 20
-2.493330529717001
 30
0.0
 10
2.980542493032746
 20
-2.447386440425589
 30
0.0
 10
3.060754713041686
 20
-2.391825681443518
 30
0.0
 10
3.132609827376718
 20
-2.325728571261859
 30
0.0
 10
3.134729093408863
 20
-2.337124624741591
 30
0.0
 10
3.1371682486534
 20
-2.348520678221133
 30
0.0
 10
3.139847320807247
 20
-2.359936724776996
 30
0.0
 10
3.154082390758983
 20
-2.420755662820612
 30
0.0
 10
3.174755231110238
 20
-2.479375362473534
 30
0.0
 10
3.19504820302177
 20
-2.533656564573637
 30
0.0
 10
3.19504820302177
 20
-2.533656564573637
 30
0.0
 10
3.201945814164118
 20
-2.552110173980117
 30
0.0
 10
3.201945814164118
 20
-2.552110173980117
 30
0.0
 10
3.214322563189689
 20
-2.585198715223492
 30
0.0
 10
3.226797207352332
 20
-2.61838722184829
 30
0.0
 10
3.238193260544032
 20
-2.651995583074911
 30
0.0
 10
3.245210830141029
 20
-2.672568458566982
 30
0.0
 10
3.250349050615177
 20
-2.693921064034106
 30
0.0
 10
3.25550830032647
 20
-2.715293662577349
 30
0.0
 10
3.25550830032647
 20
-2.715293662577349
 30
0.0
 10
3.260565512336168
 20
-2.735446683467608
 30
0.0
 10
3.260565512336168
 20
-2.735446683467608
 30
0.0
 10
3.257966412485429
 20
-2.73688618495977
 30
0.0
 10
3.254727534209893
 20
-2.73858559644355
 30
0.0
 10
3.25146866285858
 20
-2.740205035622226
 30
0.0
 10
3.124052790945067
 20
-2.805542408905163
 30
0.0
 10
3.007553138404647
 20
-2.889933183882918
 30
0.0
 10
2.906108271922739
 20
-2.990238447579536
 30
0.0
 10
2.899550543068572
 20
-2.996376321997546
 30
0.0
 10
2.893172751896373
 20
-3.00267414102575
 30
0.0
 10
2.886914919178821
 20
-3.009051932359044
 30
0.0
 10
2.880397176476208
 20
-2.980541805583774
 30
0.0
 10
2.873679503015839
 20
-2.952211616495017
 30
0.0
 10
2.866661933418843
 20
-2.923881427406438
 30
0.0
 10
2.836372423619852
 20
-2.801803703640884
 30
0.0
 10
2.806562747639456
 20
-2.70983555275297
 30
0.0
 10
2.769935432819807
 20
-2.626044570063565
 30
0.0
 10
2.767256360665972
 20
-2.619746751035362
 30
0.0
 10
2.766496623786527
 20
-2.618047339551582
 30
0.0
 10
2.781091569102209
 20
-2.603492380019765
 30
0.0
  0
SPLINE
  5
50
330
1F
100
AcDbEntity
  8
Layer 1
370
     0
100
AcDbSpline
210
0.0
220
0.0
230
1.0
 70
    11
 71
     3
 72
    47
 73
    43
 74
     0
 42
0.0000000001
 43
0.0000000001
 12
1.0
 22
0.0
 32
0.0
 13
1.0
 23
0.0
 33
0.0
 40
0.0
 40
0.0
 40
0.0
 40
0.0
 40
1.0
 40
1.0
 40
1.0
 40
2.0
 40
2.0
 40
2.0
 40
3.0
 40
3.0
 40
3.0
 40
4.0
 40
4.0
 40
4.0
 40
5.0
 40
5.0
 40
5.0
 40
6.0
 40
6.0
 40
6.0
 40
7.0
 40
7.0
 40
7.0
 40
8.0
 40
8.0
 40
8.0
 40
9.0
 40
9.0
 40
9.0
 40
10.0
 40
10.0
 40
10.0
 40
11.0
 40
11.0
 40
11.0
 40
12.0
 40
12.0
 40
12.0
 40
13.0
 40
13.0
 40
13.0
 40
14.0
 40
14.0
 40
14.0
 40
14.0
 10
1.573229889236662
 20
-2.306075377278704
 30
0.0
 10
1.634368714956344
 20
-1.897216967353099
 30
0.0
 10
1.706383773897578
 20
-1.568130931784683
 30
0.0
 10
1.798891735508088
 20
-1.275232364282955
 30
0.0
 10
1.890140133344794
 20
-1.537181649703232
 30
0.0
 10
2.031711102906949
 20
-1.775799015104856
 30
0.0
 10
2.169703311905399
 20
-1.998521884863749
 30
0.0
 10
2.169703311905399
 20
-1.998521884863749
 30
0.0
 10
2.240259886829007
 20
-2.111602724303288
 30
0.0
 10
2.240259886829007
 20
-2.111602724303288
 30
0.0
 10
2.360737150934685
 20
-2.303776173506586
 30
0.0
 10
2.485314006088161
 20
-2.502507351729529
 30
0.0
 10
2.571424183450707
 20
-2.715793489484276
 30
0.0
 10
2.628164532499909
 20
-2.856004933435896
 30
0.0
 10
2.667211009488319
 20
-2.988199153799036
 30
0.0
 10
2.690742859675386
 20
-3.120073484941776
 30
0.0
 10
2.706937251053066
 20
-3.209742432057573
 30
0.0
 10
2.715834169772898
 20
-3.299231441486667
 30
0.0
 10
2.717153712774044
 20
-3.386181330228333
 30
0.0
 10
2.717413622759118
 20
-3.402255763557402
 30
0.0
 10
2.717413622759118
 20
-3.418770044564793
 30
0.0
 10
2.717153712774044
 20
-3.435524242487304
 30
0.0
 10
2.715354335954304
 20
-3.725963661606543
 30
0.0
 10
2.662952484348251
 20
-3.97769648504781
 30
0.0
 10
2.556909210438119
 20
-4.205017762351127
 30
0.0
 10
2.526119873744758
 20
-4.271374782524402
 30
0.0
 10
2.48915267663694
 20
-4.338251622680925
 30
0.0
 10
2.441429204762231
 20
-4.413965402553256
 30
0.0
 10
2.409180373537298
 20
-4.372199866204444
 30
0.0
 10
2.373232823293999
 20
-4.331773865966195
 30
0.0
 10
2.331927128743031
 20
-4.290688094210838
 30
0.0
 10
2.265909992534274
 20
-4.224930866326076
 30
0.0
 10
2.193774975138391
 20
-4.164611755189386
 30
0.0
 10
2.123959154532397
 20
-4.106251965528082
 30
0.0
 10
2.092749963247759
 20
-4.080141007906351
 30
0.0
 10
2.061521784885927
 20
-4.05411002258989
 30
0.0
 10
2.030771428345525
 20
-4.027479244984925
 30
0.0
 10
1.739212404319978
 20
-3.775486511552028
 30
0.0
 10
1.577408442073609
 20
-3.45763658485296
 30
0.0
 10
1.5360627613711
 20
-3.055675786244074
 30
0.0
 10
1.509611922120889
 20
-2.795245974620886
 30
0.0
 10
1.538321978933658
 20
-2.541473857399107
 30
0.0
 10
1.573229889236662
 20
-2.306075377278704
 30
0.0
  0
SPLINE
  5
51
330
1F
100
AcDbEntity
  8
Layer 1
370
     0
100
AcDbSpline
210
0.0
220
0.0
230
1.0
 70
    11
 71
     3
 72
    41
 73
    37
 74
     0
 42
0.0000000001
 43
0.0000000001
 12
1.0
 22
0.0
 32
0.0
 13
1.0
 23
0.0
 33
0.0
 40
0.0
 40
0.0
 40
0.0
 40
0.0
 40
1.0
 40
1.0
 40
1.0
 40
2.0
 40
2.0
 40
2.0
 40
3.0
 40
3.0
 40
3.0
 40
4.0
 40
4.0
 40
4.0
 40
5.0
 40
5.0
 40
5.0
 40
6.0
 40
6.0
 40
6.0
 40
7.0
 40
7.0
 40
7.0
 40
8.0
 40
8.0
 40
8.0
 40
9.0
 40
9.0
 40
9.0
 40
10.0
 40
10.0
 40
10.0
 40
11.0
 40
11.0
 40
11.0
 40
12.0
 40
12.0
 40
12.0
 40
12.0
 10
0.9784758710845582
 20
-3.147124117148577
 30
0.0
 10
1.083299567372427
 20
-3.166517401140102
 30
0.0
 10
1.182325271685575
 20
-3.184891038241479
 30
0.0
 10
1.278411993859802
 20
-3.221218457842219
 30
0.0
 10
1.334852446772377
 20
-3.242571063309153
 30
0.0
 10
1.353446007243039
 20
-3.264023634157676
 30
0.0
 10
1.361364253561141
 20
-3.316585431697692
 30
0.0
 10
1.382296015586247
 20
-3.456616937962798
 30
0.0
 10
1.440955699909839
 20
-3.583053152357289
 30
0.0
 10
1.506114125828225
 20
-3.710489020565812
 30
0.0
 10
1.387174326075322
 20
-3.685737592131318
 30
0.0
 10
1.27879284852472
 20
-3.673561808676721
 30
0.0
 10
1.177087085832543
 20
-3.673561808676721
 30
0.0
 10
1.164832313728893
 20
-3.673561808676721
 30
0.0
 10
1.152715526462922
 20
-3.673741746363248
 30
0.0
 10
1.140679694846426
 20
-3.674081628659969
 30
0.0
 10
1.140679694846426
 20
-3.674081628659969
 30
0.0
 10
1.12446531039297
 20
-3.674501483261969
 30
0.0
 10
1.12446531039297
 20
-3.674501483261969
 30
0.0
 10
1.075463262757365
 20
-3.675781040143925
 30
0.0
 10
1.024759841503485
 20
-3.677040603949573
 30
0.0
 10
0.9745172420811311
 20
-3.685557654444791
 30
0.0
 10
0.9539843532602895
 20
-3.688956477412363
 30
0.0
 10
0.9475075745656087
 20
-3.6875169759202
 30
0.0
 10
0.9337313675003113
 20
-3.663445312079148
 30
0.0
 10
0.8791102844832545
 20
-3.568918047427309
 30
0.0
 10
0.8511599645499169
 20
-3.462234992397384
 30
0.0
 10
0.8272282528473498
 20
-3.360910081810415
 30
0.0
 10
0.8187521633224908
 20
-3.325182454498202
 30
0.0
 10
0.8121544481500298
 20
-3.288935007202554
 30
0.0
 10
0.8055757517831176
 20
-3.25278752528834
 30
0.0
 10
0.7965988607601906
 20
-3.20378449532609
 30
0.0
 10
0.7874020459037309
 20
-3.153501908481871
 30
0.0
 10
0.7735468443917171
 20
-3.103639176239666
 30
0.0
 10
0.8418032050872676
 20
-3.121772896425556
 30
0.0
 10
0.9110992057231139
 20
-3.13460845139726
 30
0.0
 10
0.9784758710845582
 20
-3.147124117148577
 30
0.0
  0
SPLINE
  5
52
330
1F
100
AcDbEntity
  8
Layer 1
370
     0
100
AcDbSpline
210
0.0
220
0.0
230
1.0
 70
    11
 71
     3
 72
    62
 73
    58
 74
     0
 42
0.0000000001
 43
0.0000000001
 12
1.0
 22
0.0
 32
0.0
 13
1.0
 23
0.0
 33
0.0
 40
0.0
 40
0.0
 40
0.0
 40
0.0
 40
1.0
 40
1.0
 40
1.0
 40
2.0
 40
2.0
 40
2.0
 40
3.0
 40
3.0
 40
3.0
 40
4.0
 40
4.0
 40
4.0
 40
5.0
 40
5.0
 40
5.0
 40
6.0
 40
6.0
 40
6.0
 40
7.0
 40
7.0
 40
7.0
 40
8.0
 40
8.0
 40
8.0
 40
9.0
 40
9.0
 40
9.0
 40
10.0
 40
10.0
 40
10.0
 40
11.0
 40
11.0
 40
11.0
 40
12.0
 40
12.0
 40
12.0
 40
13.0
 40
13.0
 40
13.0
 40
14.0
 40
14.0
 40
14.0
 40
15.0
 40
15.0
 40
15.0
 40
16.0
 40
16.0
 40
16.0
 40
17.0
 40
17.0
 40
17.0
 40
18.0
 40
18.0
 40
18.0
 40
19.0
 40
19.0
 40
19.0
 40
19.0
 10
2.015537709442065
 20
-4.581807277923695
 30
0.0
 10
1.975430594600564
 20
-4.574849687378181
 30
0.0
 10
1.935324484596094
 20
-4.567952076061639
 30
0.0
 10
1.894818513076125
 20
-4.563953460805743
 30
0.0
 10
1.775799732988073
 20
-4.55255740732601
 30
0.0
 10
1.661679256464873
 20
-4.572890365902784
 30
0.0
 10
1.551157533581153
 20
-4.59296341448794
 30
0.0
 10
1.551157533581153
 20
-4.59296341448794
 30
0.0
 10
1.537242352841809
 20
-4.595522528251674
 30
0.0
 10
1.537242352841809
 20
-4.595522528251674
 30
0.0
 10
1.350646976634557
 20
-4.629030924097062
 30
0.0
 10
1.134161952143801
 20
-4.65974028926304
 30
0.0
 10
0.9265538532971125
 20
-4.599861025804481
 30
0.0
 10
0.7285833892997794
 20
-4.542680827643734
 30
0.0
 10
0.5536230108676692
 20
-4.42442178144774
 30
0.0
 10
0.4064949304293274
 20
-4.248322765573688
 30
0.0
 10
0.3482941226593286
 20
-4.178906804729573
 30
0.0
 10
0.2861556431508916
 20
-4.105992055536464
 30
0.0
 10
0.2167196909846199
 20
-4.037595741582688
 30
0.0
 10
0.3431958883367214
 20
-4.019142132176208
 30
0.0
 10
0.4691322726428981
 20
-3.994130793749921
 30
0.0
 10
0.5914308860191745
 20
-3.969699254535827
 30
0.0
 10
0.7076096804860551
 20
-3.946647237584936
 30
0.0
 10
0.8277280797417208
 20
-3.922655546048973
 30
0.0
 10
0.9463669913900503
 20
-3.904881701236124
 30
0.0
 10
1.169389751659196
 20
-3.871453277696029
 30
0.0
 10
1.402568994422002
 20
-3.89442532234164
 30
0.0
 10
1.659160128917228
 20
-3.975397281275693
 30
0.0
 10
1.675034631082515
 20
-3.980435536498248
 30
0.0
 10
1.684652297008445
 20
-3.984434151754158
 30
0.0
 10
1.689909479459048
 20
-3.990891915392556
 30
0.0
 10
1.780178216582777
 20
-4.102513260263802
 30
0.0
 10
1.889280431086478
 20
-4.193961591168305
 30
0.0
 10
1.994783891950684
 20
-4.282430953707236
 30
0.0
 10
2.042627322280055
 20
-4.32259704395368
 30
0.0
 10
2.090490745685189
 20
-4.362663168818876
 30
0.0
 10
2.136695751698704
 20
-4.404688615159304
 30
0.0
 10
2.172502342513881
 20
-4.437197357190661
 30
0.0
 10
2.205211014481632
 20
-4.470365870739152
 30
0.0
 10
2.234300939734137
 20
-4.503974231965761
 30
0.0
 10
2.259072360619257
 20
-4.531704628766002
 30
0.0
 10
2.28296408617027
 20
-4.561994139330156
 30
0.0
 10
2.305256365659299
 20
-4.593723151386661
 30
0.0
 10
2.280804833986584
 20
-4.597901704329084
 30
0.0
 10
2.256254347852973
 20
-4.601120589610117
 30
0.0
 10
2.231042068382824
 20
-4.602140236500468
 30
0.0
 10
2.217886624522937
 20
-4.602999938780423
 30
0.0
 10
2.20483114604191
 20
-4.602660056483702
 30
0.0
 10
2.191635716030469
 20
-4.60190031958517
 30
0.0
 10
2.191635716030469
 20
-4.60190031958517
 30
0.0
 10
2.189016623103953
 20
-4.601800354203747
 30
0.0
 10
2.189016623103953
 20
-4.601800354203747
 30
0.0
 10
2.188616761588466
 20
-4.601800354203747
 30
0.0
 10
2.18819690699719
 20
-4.601800354203747
 30
0.0
 10
2.187777052405914
 20
-4.601800354203747
 30
0.0
 10
2.130816779523191
 20
-4.601800354203747
 30
0.0
 10
2.07479618120188
 20
-4.592103712207796
 30
0.0
 10
2.015537709442065
 20
-4.581807277923695
 30
0.0
  0
SPLINE
  5
53
330
1F
100
AcDbEntity
  8
Layer 1
370
     0
100
AcDbSpline
210
0.0
220
0.0
230
1.0
 70
    11
 71
     3
 72
    53
 73
    49
 74
     0
 42
0.0000000001
 43
0.0000000001
 12
1.0
 22
0.0
 32
0.0
 13
1.0
 23
0.0
 33
0.0
 40
0.0
 40
0.0
 40
0.0
 40
0.0
 40
1.0
 40
1.0
 40
1.0
 40
2.0
 40
2.0
 40
2.0
 40
3.0
 40
3.0
 40
3.0
 40
4.0
 40
4.0
 40
4.0
 40
5.0
 40
5.0
 40
5.0
 40
6.0
 40
6.0
 40
6.0
 40
7.0
 40
7.0
 40
7.0
 40
8.0
 40
8.0
 40
8.0
 40
9.0
 40
9.0
 40
9.0
 40
10.0
 40
10.0
 40
10.0
 40
11.0
 40
11.0
 40
11.0
 40
12.0
 40
12.0
 40
12.0
 40
13.0
 40
13.0
 40
13.0
 40
14.0
 40
14.0
 40
14.0
 40
15.0
 40
15.0
 40
15.0
 40
16.0
 40
16.0
 40
16.0
 40
16.0
 10
2.328988146604122
 20
-6.94161006432604
 30
0.0
 10
2.31895162256511
 20
-6.945608679581912
 30
0.0
 10
2.309214994662726
 20
-6.950127114821245
 30
0.0
 10
2.299478366760354
 20
-6.954705529289336
 30
0.0
 10
2.299478366760354
 20
-6.954705529289336
 30
0.0
 10
2.28866211276612
 20
-6.95972379143561
 30
0.0
 10
2.28866211276612
 20
-6.95972379143561
 30
0.0
 10
2.275906530421733
 20
-6.96568172816708
 30
0.0
 10
2.263410858062406
 20
-6.971379754906947
 30
0.0
 10
2.250735248021114
 20
-6.976238072442988
 30
0.0
 10
1.968154118658504
 20
-7.081641570590945
 30
0.0
 10
1.78167769726589
 20
-7.296367209838031
 30
0.0
 10
1.680653681752372
 20
-7.632750718248694
 30
0.0
 10
1.638268360038902
 20
-7.77380187140395
 30
0.0
 10
1.581906884122974
 20
-7.936805422314667
 30
0.0
 10
1.483221062098007
 20
-8.085613889066432
 30
0.0
 10
1.434178047222139
 20
-7.908135350929014
 30
0.0
 10
1.402489022118907
 20
-7.74343238853468
 30
0.0
 10
1.405268059651613
 20
-7.528286894685784
 30
0.0
 10
1.404149436800278
 20
-7.343171001409397
 30
0.0
 10
1.438356600059099
 20
-7.067946313339284
 30
0.0
 10
1.607438041887526
 20
-6.808036321699496
 30
0.0
 10
1.761884552248729
 20
-6.570678520103532
 30
0.0
 10
1.942342054193091
 20
-6.423429513301471
 30
0.0
 10
2.159446864032867
 20
-6.357752257721813
 30
0.0
 10
2.170463048784844
 20
-6.35425346937283
 30
0.0
 10
2.181519219688362
 20
-6.351374466388531
 30
0.0
 10
2.192495418288798
 20
-6.348555442632964
 30
0.0
 10
2.235420551977528
 20
-6.33741929914504
 30
0.0
 10
2.279446316337738
 20
-6.329761950929777
 30
0.0
 10
2.323290120008273
 20
-6.32576333567388
 30
0.0
 10
2.348001561666062
 20
-6.323464131901574
 30
0.0
 10
2.372732996399627
 20
-6.322364512706119
 30
0.0
 10
2.39748442420897
 20
-6.322364512706119
 30
0.0
 10
2.552151876796769
 20
-6.322364512706119
 30
0.0
 10
2.708897594831746
 20
-6.36642925282725
 30
0.0
 10
2.874159336834433
 20
-6.455998234561624
 30
0.0
 10
2.876958367442916
 20
-6.457537701435184
 30
0.0
 10
2.879097626550838
 20
-6.458817258316988
 30
0.0
 10
2.880657086461282
 20
-6.459916877512417
 30
0.0
 10
2.878397868898711
 20
-6.465714869633707
 30
0.0
 10
2.87457919142571
 20
-6.473372217848969
 30
0.0
 10
2.873099703818361
 20
-6.47643115851982
 30
0.0
 10
2.782311146724485
 20
-6.658907965727141
 30
0.0
 10
2.637561278114112
 20
-6.794001182150926
 30
0.0
 10
2.417737409968961
 20
-6.901543939461008
 30
0.0
 10
2.388887401625753
 20
-6.915499106704273
 30
0.0
 10
2.359197684100018
 20
-6.928854481659426
 30
0.0
 10
2.328988146604122
 20
-6.94161006432604
 30
0.0
  0
SPLINE
  5
54
330
1F
100
AcDbEntity
  8
Layer 1
370
     0
100
AcDbSpline
210
0.0
220
0.0
230
1.0
 70
    11
 71
     3
 72
    59
 73
    55
 74
     0
 42
0.0000000001
 43
0.0000000001
 12
1.0
 22
0.0
 32
0.0
 13
1.0
 23
0.0
 33
0.0
 40
0.0
 40
0.0
 40
0.0
 40
0.0
 40
1.0
 40
1.0
 40
1.0
 40
2.0
 40
2.0
 40
2.0
 40
3.0
 40
3.0
 40
3.0
 40
4.0
 40
4.0
 40
4.0
 40
5.0
 40
5.0
 40
5.0
 40
6.0
 40
6.0
 40
6.0
 40
7.0
 40
7.0
 40
7.0
 40
8.0
 40
8.0
 40
8.0
 40
9.0
 40
9.0
 40
9.0
 40
10.0
 40
10.0
 40
10.0
 40
11.0
 40
11.0
 40
11.0
 40
12.0
 40
12.0
 40
12.0
 40
13.0
 40
13.0
 40
13.0
 40
14.0
 40
14.0
 40
14.0
 40
15.0
 40
15.0
 40
15.0
 40
16.0
 40
16.0
 40
16.0
 40
17.0
 40
17.0
 40
17.0
 40
18.0
 40
18.0
 40
18.0
 40
18.0
 10
3.127552612134537
 20
-8.495072091280386
 30
0.0
 10
2.859344467685219
 20
-8.054384703917195
 30
0.0
 10
2.655135191720269
 20
-7.582128249107755
 30
0.0
 10
2.520241909466929
 20
-7.090738420298369
 30
0.0
 10
2.582980181248609
 20
-7.059529228225301
 30
0.0
 10
2.638281028842016
 20
-7.028819863059324
 30
0.0
 10
2.688304726263355
 20
-6.997250795613202
 30
0.0
 10
2.830334514735821
 20
-6.908101668480817
 30
0.0
 10
2.946634236518485
 20
-6.782525156366293
 30
0.0
 10
3.042081180267915
 20
-6.614923197911139
 30
0.0
 10
3.123333040217163
 20
-6.782865038663001
 30
0.0
 10
3.211523532510467
 20
-6.949447350227829
 30
0.0
 10
3.304850175177598
 20
-7.111171344256566
 30
0.0
 10
3.547086281266438
 20
-7.531185890746403
 30
0.0
 10
3.833826974030229
 20
-7.932306980151654
 30
0.0
 10
4.157974711568878
 20
-8.304837970476505
 30
0.0
 10
4.127905125603408
 20
-8.310635962597644
 30
0.0
 10
4.090977914647143
 20
-8.320672486890114
 30
0.0
 10
4.0455936326381
 20
-8.336926857905887
 30
0.0
 10
3.98245655386644
 20
-8.35953902717847
 30
0.0
 10
3.921756521288292
 20
-8.387109479368494
 30
0.0
 10
3.863056850813147
 20
-8.41374025697347
 30
0.0
 10
3.750675771882369
 20
-8.464702608411118
 30
0.0
 10
3.644592511820683
 20
-8.512765963788297
 30
0.0
 10
3.524415176292071
 20
-8.528420542515555
 30
0.0
 10
3.489846105322853
 20
-8.532938977754686
 30
0.0
 10
3.417951004836279
 20
-8.542295737453742
 30
0.0
 10
3.398677679789254
 20
-8.618509344232987
 30
0.0
 10
3.378724590165891
 20
-8.6977219124543
 30
0.0
 10
3.439343595915425
 20
-8.74230647255864
 30
0.0
 10
3.468393535016376
 20
-8.763659078025764
 30
0.0
 10
3.715368000063866
 20
-8.945616065249851
 30
0.0
 10
4.011385479987224
 20
-9.118336251232499
 30
0.0
 10
4.337172649739424
 20
-9.017851049849368
 30
0.0
 10
4.417905755244381
 20
-8.992839711423054
 30
0.0
 10
4.483382012881356
 20
-8.959831142484946
 30
0.0
 10
4.53170527702932
 20
-8.919585079933237
 30
0.0
 10
4.56961214869855
 20
-8.888115977868539
 30
0.0
 10
4.599921651573317
 20
-8.843191535467465
 30
0.0
 10
4.619454886605404
 20
-8.79104959252926
 30
0.0
 10
4.71882047320672
 20
-8.886916393291862
 30
0.0
 10
4.82364416949459
 20
-8.982543277138953
 30
0.0
 10
4.936605047622846
 20
-9.080389392453247
 30
0.0
 10
4.866689261637981
 20
-9.073571753441632
 30
0.0
 10
4.789855871434989
 20
-9.069153283583722
 30
0.0
 10
4.700866691160854
 20
-9.066694135201386
 30
0.0
 10
4.529965879436897
 20
-9.06175584536024
 30
0.0
 10
4.353646944177955
 20
-9.085067772302585
 30
0.0
 10
4.191523092719182
 20
-9.133970836883412
 30
0.0
 10
4.032239313803731
 20
-9.182054185336911
 30
0.0
 10
3.896705197342321
 20
-9.25988723129487
 30
0.0
 10
3.762451693513791
 20
-9.34393812397588
 30
0.0
 10
3.52569369018728
 20
-9.083948160031014
 30
0.0
 10
3.312207627062763
 20
-8.798447030752918
 30
0.0
 10
3.127552612134537
 20
-8.495072091280386
 30
0.0
  0
SPLINE
  5
55
330
1F
100
AcDbEntity
  8
Layer 1
370
     0
100
AcDbSpline
210
0.0
220
0.0
230
1.0
 70
    11
 71
     3
 72
    44
 73
    40
 74
     0
 42
0.0000000001
 43
0.0000000001
 12
1.0
 22
0.0
 32
0.0
 13
1.0
 23
0.0
 33
0.0
 40
0.0
 40
0.0
 40
0.0
 40
0.0
 40
1.0
 40
1.0
 40
1.0
 40
2.0
 40
2.0
 40
2.0
 40
3.0
 40
3.0
 40
3.0
 40
4.0
 40
4.0
 40
4.0
 40
5.0
 40
5.0
 40
5.0
 40
6.0
 40
6.0
 40
6.0
 40
7.0
 40
7.0
 40
7.0
 40
8.0
 40
8.0
 40
8.0
 40
9.0
 40
9.0
 40
9.0
 40
10.0
 40
10.0
 40
10.0
 40
11.0
 40
11.0
 40
11.0
 40
12.0
 40
12.0
 40
12.0
 40
13.0
 40
13.0
 40
13.0
 40
13.0
 10
3.485447628652373
 20
-9.715969287393666
 30
0.0
 10
3.580574683189411
 20
-9.685519832219294
 30
0.0
 10
3.664885483732216
 20
-9.650212059508904
 30
0.0
 10
3.743018423860576
 20
-9.608186613168273
 30
0.0
 10
3.786023529852413
 20
-9.585214568522689
 30
0.0
 10
3.828428843570994
 20
-9.55892367321442
 30
0.0
 10
3.868934815090976
 20
-9.530333574134046
 30
0.0
 10
3.868934815090976
 20
-9.530333574134046
 30
0.0
 10
3.886248818712046
 20
-9.517997846069445
 30
0.0
 10
3.886248818712046
 20
-9.517997846069445
 30
0.0
 10
4.081921051321109
 20
-9.37474745452328
 30
0.0
 10
4.320458438391597
 20
-9.296894415489026
 30
0.0
 10
4.615536243753531
 20
-9.280220189871619
 30
0.0
 10
4.757707005588927
 20
-9.272142987054343
 30
0.0
 10
4.903316576457617
 20
-9.281319809066897
 30
0.0
 10
5.049725870357292
 20
-9.307790642061667
 30
0.0
 10
4.917431687954704
 20
-9.327943662951913
 30
0.0
 10
4.780299181214584
 20
-9.371768486157533
 30
0.0
 10
4.629111542204694
 20
-9.441604301603496
 30
0.0
 10
4.629111542204694
 20
-9.441604301603496
 30
0.0
 10
4.528006558010954
 20
-9.488907920081955
 30
0.0
 10
4.528006558010954
 20
-9.488907920081955
 30
0.0
 10
4.378898198881668
 20
-9.559003645519523
 30
0.0
 10
4.224751584657093
 20
-9.631418567805692
 30
0.0
 10
4.066306459140908
 20
-9.68306068383678
 30
0.0
 10
4.019162786463665
 20
-9.698355387190986
 30
0.0
 10
3.973438622166441
 20
-9.711290907544127
 30
0.0
 10
3.927114665595973
 20
-9.722267106421844
 30
0.0
 10
3.927114665595973
 20
-9.722267106421844
 30
0.0
 10
3.911979907234354
 20
-9.72592583938121
 30
0.0
 10
3.911979907234354
 20
-9.72592583938121
 30
0.0
 10
3.708390416618423
 20
-9.773649312461504
 30
0.0
 10
3.550206244693413
 20
-9.791343184969264
 30
0.0
 10
3.398717665940808
 20
-9.78318600984706
 30
0.0
 10
3.3534533423864
 20
-9.781486598363294
 30
0.0
 10
3.305490991026419
 20
-9.77968722149808
 30
0.0
 10
3.25648692487808
 20
-9.776288398530342
 30
0.0
 10
3.332660543580497
 20
-9.759014380624597
 30
0.0
 10
3.40987380222321
 20
-9.740060944311027
 30
0.0
 10
3.485447628652373
 20
-9.715969287393666
 30
0.0
  0
SPLINE
  5
56
330
1F
100
AcDbEntity
  8
Layer 1
370
     0
100
AcDbSpline
210
0.0
220
0.0
230
1.0
 70
    11
 71
     3
 72
    44
 73
    40
 74
     0
 42
0.0000000001
 43
0.0000000001
 12
1.0
 22
0.0
 32
0.0
 13
1.0
 23
0.0
 33
0.0
 40
0.0
 40
0.0
 40
0.0
 40
0.0
 40
1.0
 40
1.0
 40
1.0
 40
2.0
 40
2.0
 40
2.0
 40
3.0
 40
3.0
 40
3.0
 40
4.0
 40
4.0
 40
4.0
 40
5.0
 40
5.0
 40
5.0
 40
6.0
 40
6.0
 40
6.0
 40
7.0
 40
7.0
 40
7.0
 40
8.0
 40
8.0
 40
8.0
 40
9.0
 40
9.0
 40
9.0
 40
10.0
 40
10.0
 40
10.0
 40
11.0
 40
11.0
 40
11.0
 40
12.0
 40
12.0
 40
12.0
 40
13.0
 40
13.0
 40
13.0
 40
13.0
 10
4.20727763642982
 20
-9.995792383008393
 30
0.0
 10
4.18464547465261
 20
-10.00608881729249
 30
0.0
 10
4.161973326723859
 20
-10.0173049330855
 30
0.0
 10
4.139721033386384
 20
-10.0299005711419
 30
0.0
 10
4.053111029129468
 20
-10.07856371880745
 30
0.0
 10
3.95030663349486
 20
-10.09863676739259
 30
0.0
 10
3.826049667553788
 20
-10.08995977228698
 30
0.0
 10
3.681639681231597
 20
-10.08010318568103
 30
0.0
 10
3.532111467511021
 20
-10.04767441595494
 30
0.0
 10
3.371966930553981
 20
-9.991353920074136
 30
0.0
 10
3.371966930553981
 20
-9.991353920074136
 30
0.0
 10
3.401057895644739
 20
-9.991193975463956
 30
0.0
 10
3.401057895644739
 20
-9.991193975463956
 30
0.0
 10
3.611923826004474
 20
-10.00284993893512
 30
0.0
 10
3.8233306092484
 20
-9.977918572814106
 30
0.0
 10
4.046693251805714
 20
-9.9144605487013
 30
0.0
 10
4.097735574259066
 20
-9.900325443771482
 30
0.0
 10
4.15099818690664
 20
-9.883491273543692
 30
0.0
 10
4.205018418867249
 20
-9.864337906467451
 30
0.0
 10
4.272215146546728
 20
-9.840526152618015
 30
0.0
 10
4.340371541863407
 20
-9.813475520411227
 30
0.0
 10
4.413486219972267
 20
-9.7817465083549
 30
0.0
 10
4.471687130437582
 20
-9.75629532225048
 30
0.0
 10
4.52888625334506
 20
-9.728824835441678
 30
0.0
 10
4.586106436212857
 20
-9.701334355556734
 30
0.0
 10
4.664079431735015
 20
-9.66390731676054
 30
0.0
 10
4.744771485562561
 20
-9.625120748777489
 30
0.0
 10
4.826103317814904
 20
-9.59287191673795
 30
0.0
 10
4.971452978698519
 20
-9.53501195398356
 30
0.0
 10
5.135736082340966
 20
-9.505582145699538
 30
0.0
 10
5.327409699795061
 20
-9.509240878658728
 30
0.0
 10
5.182359935048061
 20
-9.736822065953675
 30
0.0
 10
4.977112098795525
 20
-9.863318259577126
 30
0.0
 10
4.717121061765852
 20
-9.885270657332562
 30
0.0
 10
4.610697919415998
 20
-9.894547444726514
 30
0.0
 10
4.487240676505912
 20
-9.907043117401498
 30
0.0
 10
4.36892271835845
 20
-9.938532212542516
 30
0.0
 10
4.309922087458213
 20
-9.954186791269573
 30
0.0
 10
4.257040402033567
 20
-9.972900310667683
 30
0.0
 10
4.20727763642982
 20
-9.995792383008393
 30
0.0
  0
SPLINE
  5
57
330
1F
100
AcDbEntity
  8
Layer 1
370
     0
100
AcDbSpline
210
0.0
220
0.0
230
1.0
 70
    11
 71
     3
 72
    38
 73
    34
 74
     0
 42
0.0000000001
 43
0.0000000001
 12
1.0
 22
0.0
 32
0.0
 13
1.0
 23
0.0
 33
0.0
 40
0.0
 40
0.0
 40
0.0
 40
0.0
 40
1.0
 40
1.0
 40
1.0
 40
2.0
 40
2.0
 40
2.0
 40
3.0
 40
3.0
 40
3.0
 40
4.0
 40
4.0
 40
4.0
 40
5.0
 40
5.0
 40
5.0
 40
6.0
 40
6.0
 40
6.0
 40
7.0
 40
7.0
 40
7.0
 40
8.0
 40
8.0
 40
8.0
 40
9.0
 40
9.0
 40
9.0
 40
10.0
 40
10.0
 40
10.0
 40
11.0
 40
11.0
 40
11.0
 40
11.0
 10
6.520996323557331
 20
-10.97755239373679
 30
0.0
 10
5.832114904656944
 20
-10.8088508160862
 30
0.0
 10
5.195315448150205
 20
-10.5177116392972
 30
0.0
 10
4.626472456202401
 20
-10.11165226005081
 30
0.0
 10
4.647405206538742
 20
-10.10945302165995
 30
0.0
 10
4.669218724083836
 20
-10.10757367248966
 30
0.0
 10
4.692149710122989
 20
-10.10595423331097
 30
0.0
 10
5.059462498259677
 20
-10.08068298489305
 30
0.0
 10
5.341484825140595
 20
-9.90816272967307
 30
0.0
 10
5.530219460455769
 20
-9.59347170902629
 30
0.0
 10
5.535797528596971
 20
-9.584274893937415
 30
0.0
 10
5.541716572942075
 20
-9.574318341950049
 30
0.0
 10
5.547493477925286
 20
-9.56378199075046
 30
0.0
 10
6.115616719145186
 20
-9.963803460960257
 30
0.0
 10
6.732023238361509
 20
-10.25398297008804
 30
0.0
 10
7.380498651120812
 20
-10.42668316299452
 30
0.0
 10
7.522149592986048
 20
-10.46437011178215
 30
0.0
 10
7.706385786251884
 20
-10.50043762139128
 30
0.0
 10
7.854414519289346
 20
-10.52944757507349
 30
0.0
 10
7.854414519289346
 20
-10.52944757507349
 30
0.0
 10
7.908515782336255
 20
-10.54008389165448
 30
0.0
 10
7.908515782336255
 20
-10.54008389165448
 30
0.0
 10
8.35851993187796
 20
-10.62857324726974
 30
0.0
 10
8.76849794371833
 20
-10.70360726254845
 30
0.0
 10
9.241214227340352
 20
-10.69790923580856
 30
0.0
 10
9.531534875374897
 20
-10.69569000434154
 30
0.0
 10
9.823252649299622
 20
-10.66879931674495
 30
0.0
 10
10.10829393062254
 20
-10.61801690299383
 30
0.0
 10
10.13862342657308
 20
-10.61265875855088
 30
0.0
 10
10.16899290867516
 20
-10.60696073181099
 30
0.0
 10
10.19936239077727
 20
-10.60092282277441
 30
0.0
 10
9.052779488161805
 20
-11.1493928843633
 30
0.0
 10
7.75980728472243
 20
-11.28372636388836
 30
0.0
 10
6.520996323557331
 20
-10.97755239373679
 30
0.0
  0
HATCH
  5
58
330
1F
100
AcDbEntity
  8
Layer 1
 62
     7
420
 16777215
100
AcDbHatch
 10
0.0
 20
0.0
 30
0.0
210
0.0
220
0.0
230
1.0
  2
SOLID
 70
     1
 71
     0
 91
       23
 92
        1
 93
        1
 72
     4
 94
        3
 73
     0
 74
     1
 95
      305
 96
      301
 40
0.0
 40
0.0
 40
0.0
 40
0.0
 40
1.0
 40
1.0
 40
1.0
 40
2.0
 40
2.0
 40
2.0
 40
3.0
 40
3.0
 40
3.0
 40
4.0
 40
4.0
 40
4.0
 40
5.0
 40
5.0
 40
5.0
 40
6.0
 40
6.0
 40
6.0
 40
7.0
 40
7.0
 40
7.0
 40
8.0
 40
8.0
 40
8.0
 40
9.0
 40
9.0
 40
9.0
 40
10.0
 40
10.0
 40
10.0
 40
11.0
 40
11.0
 40
11.0
 40
12.0
 40
12.0
 40
12.0
 40
13.0
 40
13.0
 40
13.0
 40
14.0
 40
14.0
 40
14.0
 40
15.0
 40
15.0
 40
15.0
 40
16.0
 40
16.0
 40
16.0
 40
17.0
 40
17.0
 40
17.0
 40
18.0
 40
18.0
 40
18.0
 40
19.0
 40
19.0
 40
19.0
 40
20.0
 40
20.0
 40
20.0
 40
21.0
 40
21.0
 40
21.0
 40
22.0
 40
22.0
 40
22.0
 40
23.0
 40
23.0
 40
23.0
 40
24.0
 40
24.0
 40
24.0
 40
25.0
 40
25.0
 40
25.0
 40
26.0
 40
26.0
 40
26.0
 40
27.0
 40
27.0
 40
27.0
 40
28.0
 40
28.0
 40
28.0
 40
29.0
 40
29.0
 40
29.0
 40
30.0
 40
30.0
 40
30.0
 40
31.0
 40
31.0
 40
31.0
 40
32.0
 40
32.0
 40
32.0
 40
33.0
 40
33.0
 40
33.0
 40
34.0
 40
34.0
 40
34.0
 40
35.0
 40
35.0
 40
35.0
 40
36.0
 40
36.0
 40
36.0
 40
37.0
 40
37.0
 40
37.0
 40
38.0
 40
38.0
 40
38.0
 40
39.0
 40
39.0
 40
39.0
 40
40.0
 40
40.0
 40
40.0
 40
41.0
 40
41.0
 40
41.0
 40
42.0
 40
42.0
 40
42.0
 40
43.0
 40
43.0
 40
43.0
 40
44.0
 40
44.0
 40
44.0
 40
45.0
 40
45.0
 40
45.0
 40
46.0
 40
46.0
 40
46.0
 40
47.0
 40
47.0
 40
47.0
 40
48.0
 40
48.0
 40
48.0
 40
49.0
 40
49.0
 40
49.0
 40
50.0
 40
50.0
 40
50.0
 40
51.0
 40
51.0
 40
51.0
 40
52.0
 40
52.0
 40
52.0
 40
53.0
 40
53.0
 40
53.0
 40
54.0
 40
54.0
 40
54.0
 40
55.0
 40
55.0
 40
55.0
 40
56.0
 40
56.0
 40
56.0
 40
57.0
 40
57.0
 40
57.0
 40
58.0
 40
58.0
 40
58.0
 40
59.0
 40
59.0
 40
59.0
 40
60.0
 40
60.0
 40
60.0
 40
61.0
 40
61.0
 40
61.0
 40
62.0
 40
62.0
 40
62.0
 40
63.0
 40
63.0
 40
63.0
 40
64.0
 40
64.0
 40
64.0
 40
65.0
 40
65.0
 40
65.0
 40
66.0
 40
66.0
 40
66.0
 40
67.0
 40
67.0
 40
67.0
 40
68.0
 40
68.0
 40
68.0
 40
69.0
 40
69.0
 40
69.0
 40
70.0
 40
70.0
 40
70.0
 40
71.0
 40
71.0
 40
71.0
 40
72.0
 40
72.0
 40
72.0
 40
73.0
 40
73.0
 40
73.0
 40
74.0
 40
74.0
 40
74.0
 40
75.0
 40
75.0
 40
75.0
 40
76.0
 40
76.0
 40
76.0
 40
77.0
 40
77.0
 40
77.0
 40
78.0
 40
78.0
 40
78.0
 40
79.0
 40
79.0
 40
79.0
 40
80.0
 40
80.0
 40
80.0
 40
81.0
 40
81.0
 40
81.0
 40
82.0
 40
82.0
 40
82.0
 40
83.0
 40
83.0
 40
83.0
 40
84.0
 40
84.0
 40
84.0
 40
85.0
 40
85.0
 40
85.0
 40
86.0
 40
86.0
 40
86.0
 40
87.0
 40
87.0
 40
87.0
 40
88.0
 40
88.0
 40
88.0
 40
89.0
 40
89.0
 40
89.0
 40
90.0
 40
90.0
 40
90.0
 40
91.0
 40
91.0
 40
91.0
 40
92.0
 40
92.0
 40
92.0
 40
93.0
 40
93.0
 40
93.0
 40
94.0
 40
94.0
 40
94.0
 40
95.0
 40
95.0
 40
95.0
 40
96.0
 40
96.0
 40
96.0
 40
97.0
 40
97.0
 40
97.0
 40
98.0
 40
98.0
 40
98.0
 40
99.0
 40
99.0
 40
99.0
 40
100.0
 40
100.0
 40
100.0
 40
100.0
 10
11.15163258993632
 20
-10.18106822089496
 10
11.12458319336388
 20
-10.13062568944052
 10
11.0638429942087
 20
-10.10791355478636
 10
11.01054145419276
 20
-10.12892627795675
 10
10.19230604642831
 20
-10.44777585846984
 10
9.302852879954418
 20
-10.54588188377577
 10
8.438452248826074
 20
-10.41272799575108
 10
7.950921096054824
 20
-10.33753403586196
 10
7.548440487630058
 20
-10.20745908158445
 10
7.207939550115573
 20
-10.01492575700829
 10
7.040836286780833
 20
-9.920578430042976
 10
6.872394623377204
 20
-9.806417964484302
 10
6.707271810552179
 20
-9.675743217918427
 10
6.442123639625303
 20
-9.466035840817767
 10
6.225738580513431
 20
-9.25622849833548
 10
6.045680940084568
 20
-9.034365330856568
 10
5.866822884202191
 20
-8.81392167179365
 10
5.70441912968258
 20
-8.554371555526915
 10
5.534519065481277
 20
-8.217308282522632
 10
5.415419219356219
 20
-7.981130072427226
 10
5.324630662262343
 20
-7.78231892189918
 10
5.328729242796195
 20
-7.553038323120441
 10
5.32994882041847
 20
-7.484122189183254
 10
5.333907449421897
 20
-7.41410643605079
 10
5.34072508826115
 20
-7.340611887645663
 10
5.61207111267826
 20
-7.463449348309748
 10
5.902510524460417
 20
-7.348609118157633
 10
6.102681199118832
 20
-7.247804027553936
 10
6.166878965432084
 20
-7.215475223209094
 10
6.229697209516871
 20
-7.181946834287575
 10
6.292155578237675
 20
-7.148598383052558
 10
6.483909167994877
 20
-7.04633379788053
 10
6.665026441439799
 20
-6.949787232524512
 10
6.873554221772135
 20
-6.891327477481809
 10
7.147579318343079
 20
-6.814674023024432
 10
7.36020567920928
 20
-6.684099241839804
 10
7.523509122138774
 20
-6.49190579956035
 10
7.748071349242561
 20
-6.227757275749379
 10
7.832502108240027
 20
-5.886435477497596
 10
7.914213808932092
 20
-5.556349788114971
 10
7.924930097547454
 20
-5.512964812587484
 10
7.935606400011238
 20
-5.469819753975306
 10
7.946542612460133
 20
-5.427194515346362
 10
7.967476517992004
 20
-5.345522798742725
 10
7.950721165297081
 20
-5.289982032836797
 10
7.8965199368713
 20
-5.261911753739835
 10
7.84951736794028
 20
-5.237820096822461
 10
7.788857223823394
 20
-5.255354024720014
 10
7.738234755961305
 20
-5.306916168446011
 10
7.607659978075364
 20
-5.438270679605504
 10
7.443836715175721
 20
-5.520702133107849
 10
7.237448193951321
 20
-5.558988874183998
 10
7.079942742996536
 20
-5.58815877247658
 10
6.916899210052128
 20
-5.581521071151466
 10
6.758993897581881
 20
-5.575143279818172
 10
6.67064449573253
 20
-5.571564519164085
 10
6.57949606327472
 20
-5.568085723891423
 10
6.488588665561918
 20
-5.570304955358438
 10
6.488588665561918
 20
-5.570304955358438
 10
6.474252512395575
 20
-5.570724809960262
 10
6.474252512395575
 20
-5.570724809960262
 10
6.461057082384134
 20
-5.571064692257159
 10
6.441843736564452
 20
-5.571664484545509
 10
6.42808850043131
 20
-5.571144664562262
 10
6.42958798111441
 20
-5.559408728785822
 10
6.433666568572511
 20
-5.539155742514329
 10
6.443923016445043
 20
-5.505647346668941
 10
6.469234250376076
 20
-5.423195900090453
 10
6.503222479193432
 20
-5.314733461271468
 10
6.541629177757032
 20
-5.207970433936453
 10
6.54638752979147
 20
-5.194775003591517
 10
6.554765748048667
 20
-5.177600951067196
 10
6.564121388003817
 20
-5.15818767399916
 10
6.605387096403218
 20
-5.07251734213945
 10
6.661928636909376
 20
-4.955117998223411
 10
6.586513632871729
 20
-4.890220472618617
 10
6.551925611781118
 20
-4.860090906664658
 10
6.508100789682506
 20
-4.854132969933352
 10
6.469434181133844
 20
-4.873966101603021
 10
6.469434181133844
 20
-4.873966101603021
 10
6.453959540484043
 20
-4.881963332115017
 10
6.453959540484043
 20
-4.881963332115017
 10
6.334260995819628
 20
-4.943981854735486
 10
6.210484974507456
 20
-5.008039671136644
 10
6.076531363431564
 20
-5.018596015412375
 10
5.8661031334743
 20
-5.035010331038342
 10
5.69782141467686
 20
-5.06809887228173
 10
5.541755465177895
 20
-5.124499340467436
 10
5.549792681639411
 20
-5.062920665525098
 10
5.565687176880462
 20
-4.965414432507701
 10
5.595476859785081
 20
-4.852613496136099
 10
5.687684925258976
 20
-4.50321449506704
 10
5.660734259114393
 20
-4.177887157839235
 10
5.513045408365112
 20
-3.858097902740901
 10
5.488014077494932
 20
-3.803636762954271
 10
5.454765592481244
 20
-3.745956737886596
 10
5.398065229583595
 20
-3.730482096845865
 10
5.341524811292149
 20
-3.715167400415326
 10
5.284864434546042
 20
-3.746896412471655
 10
5.232162686803374
 20
-3.783483742064012
 10
4.843977127557675
 20
-4.05205073573307
 10
4.587166069228929
 20
-4.551777677351159
 10
4.577889282069362
 20
-5.056622846496894
 10
4.574970293006231
 20
-5.216127609058629
 10
4.516210643303755
 20
-5.37539245470489
 10
4.459430308103012
 20
-5.529459100518566
 10
4.434938790278744
 20
-5.595896092996756
 10
4.409627556347699
 20
-5.664652282323762
 10
4.388894736769114
 20
-5.732788686285921
 10
4.315180266387011
 20
-5.975684570011392
 10
4.298186151978345
 20
-6.157361654167541
 10
4.297866262765941
 20
-6.351394459464649
 10
4.179487261102685
 20
-5.679547124152287
 10
4.199860205317324
 20
-5.000462295226485
 10
4.371500760844949
 20
-4.304983143751024
 10
5.003221976104846
 20
-1.746029324523938
 10
7.437878778594798
 20
-0.1451837067858277
 10
10.03443950871002
 20
-0.5807728596978323
 10
10.09109988545611
 20
-0.5900296540154638
 10
10.1459408923067
 20
-0.5553216735934003
 10
10.16163545679001
 20
-0.5007205822727074
 10
10.17800978584965
 20
-0.4453197679010196
 10
10.15023940359828
 20
-0.3867200613244171
 10
10.09723775971901
 20
-0.3645077535773503
 10
9.821853133995369
 20
-0.2477082019496493
 10
9.535192413534686
 20
-0.151901380416032
 10
9.245212842495322
 20
-0.0795864235112731
 10
7.734236140806337
 20
0.2999221504352363
 10
6.181894875427083
 20
0.0749800492093173
 10
4.874086699674686
 20
-0.712467253154058
 10
4.27891282693132
 20
-1.07122301392197
 10
3.762451693513791
 20
-1.526545333122221
 10
3.337418895614923
 20
-2.067098136504038
 10
3.337178978705626
 20
-2.048564554792468
 10
3.335759470325608
 20
-2.030170924614961
 10
3.331760855170627
 20
-2.011897252895008
 10
3.324783271725184
 20
-1.979808365465652
 10
3.308368956513984
 20
-1.904774350186951
 10
3.227556944231777
 20
-1.895757472784617
 10
3.143626012128695
 20
-1.886580650772101
 10
3.115215851452553
 20
-1.959575372270302
 10
3.103140033684503
 20
-1.990784564343383
 10
3.05339726115652
 20
-2.118400370238596
 10
2.952072353129261
 20
-2.192074856330237
 10
2.844809501596854
 20
-2.270007867669581
 10
2.784830274272116
 20
-2.313552787807453
 10
2.722851739369894
 20
-2.358557202513616
 10
2.66815068404973
 20
-2.414457843792408
 10
2.590938444779832
 20
-2.252733849763659
 10
2.493871042519825
 20
-2.10078647003594
 10
2.399943572529284
 20
-1.953697407844099
 10
2.325129482979567
 20
-1.83655797391969
 10
2.247716293579098
 20
-1.715319959357771
 10
2.181779129673436
 20
-1.591202941811717
 10
2.048726216066863
 20
-1.340569737565892
 10
1.938423411341205
 20
-1.11170899338899
 10
1.93658404836991
 20
-0.850019617960331
 10
1.936165196610558
 20
-0.7969380004369037
 10
1.90341553565933
 20
-0.7568718755718843
 10
1.85101368405329
 20
-0.7454758220923293
 10
1.801570807661935
 20
-0.7350994155029487
 10
1.758405757063896
 20
-0.7563520555886372
 10
1.732194834722981
 20
-0.8040955217452518
 10
1.726116939687409
 20
-0.8152316652331768
 10
1.721558518410726
 20
-0.8270475733145429
 10
1.714301031904433
 20
-0.8467007672978752
 10
1.590085046204156
 20
-1.175606865179765
 10
1.491398230089936
 20
-1.536841767406511
 10
1.421042596438029
 20
-1.920508901219301
 10
1.421042596438029
 20
-1.920508901219301
 10
1.413505206870885
 20
-1.961274783754081
 10
1.413505206870885
 20
-1.961274783754081
 10
1.350207128967504
 20
-2.305315640379983
 10
1.284790771408855
 20
-2.660832522790719
 10
1.314479502557737
 20
-3.005553144010062
 10
1.217453105822086
 20
-2.968985807494025
 10
1.116308135476806
 20
-2.951191969604856
 10
1.018342064179743
 20
-2.933917951698921
 10
1.018342064179743
 20
-2.933917951698921
 10
0.9683193885909102
 20
-2.925001039678023
 10
0.9683193885909102
 20
-2.925001039678023
 10
0.854578780507432
 20
-2.904408171109632
 10
0.7351201527523269
 20
-2.876237926631246
 10
0.6323157571177312
 20
-2.809541024161073
 10
0.6021062196218356
 20
-2.789807857872814
 10
0.531251726416359
 20
-2.743863768581415
 10
0.4687524042031757
 20
-2.812440020221705
 10
0.4282664257589709
 20
-2.857104552631161
 10
0.4309454979128178
 20
-2.910446080146206
 10
0.4767896206646911
 20
-2.971185045884731
 10
0.5369487856713956
 20
-3.049717849512591
 10
0.5626798741937161
 20
-3.145344733359694
 10
0.5815733308010067
 20
-3.236953008874568
 10
0.5815733308010067
 20
-3.236953008874568
 10
0.5955284976918922
 20
-3.306808817396826
 10
0.5955284976918922
 20
-3.306808817396826
 10
0.6229190115035155
 20
-3.446080586763211
 10
0.6512101840963093
 20
-3.5899307705977
 10
0.7204052489819964
 20
-3.722644810944075
 10
0.6520099071474937
 20
-3.734980539008865
 10
0.583992492969767
 20
-3.748855733947228
 10
0.5159760491835136
 20
-3.762810901190518
 10
0.3987766389909792
 20
-3.786702627345234
 10
0.277638592870782
 20
-3.811474048856048
 10
0.1574802074635626
 20
-3.8272885721935
 10
0.1091978861460095
 20
-3.833766328908218
 10
0.0605737691825602
 20
-3.832826654323159
 10
0.0094914605776542
 20
-3.831886979737924
 10
-0.0316542893671112
 20
-3.83112724283938
 10
-0.0727800462360998
 20
-3.830447478245762
 10
-0.1139248451385634
 20
-3.833426446611497
 10
-0.1723655566709491
 20
-3.837764944164304
 10
-0.2123117220692166
 20
-3.871693194611326
 10
-0.2207687931220082
 20
-3.92453489521928
 10
-0.2286851029857644
 20
-3.974377634385342
 10
-0.2036347271829047
 20
-4.017602665302635
 10
-0.1539519338822528
 20
-4.039974917659909
 10
0.0075321391517238
 20
-4.11372937605683
 10
0.1225932472535886
 20
-4.243304503427263
 10
0.2358330714254432
 20
-4.380776895928445
 10
0.4301257818060422
 20
-4.617374960625713
 10
0.6707224556813318
 20
-4.767882838861447
 10
0.950825447287861
 20
-4.828201949998136
 10
1.137520788873985
 20
-4.868348047168448
 10
1.322896587458975
 20
-4.841457359571854
 10
1.502154504856839
 20
-4.815346401950111
 10
1.683531688286848
 20
-4.789055506642032
 10
1.854832361526304
 20
-4.764224105902258
 10
2.027152681630267
 20
-4.802930701580218
 10
2.072197081351141
 20
-4.813307108169611
 10
2.116902606181485
 20
-4.819524954892712
 10
2.160687443234653
 20
-4.821644220978315
 10
2.096309737613094
 20
-5.260632196857879
 10
2.083053321496929
 20
-5.704538469502268
 10
2.121120137772361
 20
-6.142766708483123
 10
1.904475168675402
 20
-6.199007232058799
 10
1.716000443345302
 20
-6.328902248649834
 10
1.52900520562255
 20
-6.550685443823668
 10
1.173948172935878
 20
-6.971719637203679
 10
1.093975869836236
 20
-7.617096139521436
 10
1.315119280982534
 20
-8.277027601371021
 10
1.339971661941566
 20
-8.351381852056267
 10
1.381736209464546
 20
-8.376553135092763
 10
1.412405587703258
 20
-8.384550365604758
 10
1.44371474436678
 20
-8.39254759611673
 10
1.493737419955601
 20
-8.390948150014385
 10
1.554516370311338
 20
-8.335907211015536
 10
1.599820680017286
 20
-8.294461563887126
 10
1.634708597244513
 20
-8.247417855400272
 10
1.660060813183968
 20
-8.211010463494453
 10
1.749508838344064
 20
-8.082375010709054
 10
1.802590454526454
 20
-7.935965713110843
 10
1.85399365309983
 20
-7.794394739972327
 10
1.877244599469969
 20
-7.730256951266078
 10
1.901377243883404
 20
-7.663899931092803
 10
1.92824693577178
 20
-7.601101678497444
 10
2.013277487042476
 20
-7.40271038257126
 10
2.129377278067396
 20
-7.27637413355799
 10
2.311435238385684
 20
-7.186805151823616
 10
2.452145493377581
 20
-7.686012273458446
 10
2.661433010589361
 20
-8.165586194186465
 10
2.933838668022544
 20
-8.612991255179825
 10
3.116015574483551
 20
-8.912107669404476
 10
3.32474328557363
 20
-9.194209975715012
 10
3.554743629288219
 20
-9.452420555871008
 10
3.537049757227426
 20
-9.459298174111407
 10
3.515837103830247
 20
-9.467815224606637
 10
3.490265959914129
 20
-9.478031686585634
 10
3.442202605751238
 20
-9.497245032890659
 10
3.39565976504913
 20
-9.515958552288742
 10
3.385102381338091
 20
-9.51919743064612
 10
3.133889384226323
 20
-9.596610622002219
 10
2.87152025083214
 20
-9.629119364033562
 10
2.671169638491746
 20
-9.648672592635295
 10
2.639600571843162
 20
-9.651651561001067
 10
2.555849577422047
 20
-9.659488846902832
 10
2.54139458363679
 20
-9.748218119433405
 10
2.528079195170701
 20
-9.833968423598181
 10
2.596295569714698
 20
-9.864857726450685
 10
2.638960793418366
 20
-9.884251010442211
 10
2.693502926096117
 20
-9.909182376563422
 10
2.741525272143665
 20
-9.933174068099383
 10
2.785671007746866
 20
-9.957585614237333
 10
3.230395960991826
 20
-10.20404026554055
 10
3.798320321327954
 20
-10.4564728466516
 10
4.247203808752311
 20
-10.21885513506398
 10
4.27541403867071
 20
-10.20380034862526
 10
4.30442399162012
 20
-10.19044497367013
 10
4.335313293692353
 20
-10.17834916252084
 10
4.966294765148594
 20
-10.66302131770019
 10
5.683406407043145
 20
-11.00588258282556
 10
6.466975032813529
 20
-11.19763617742683
 10
6.913441536511477
 20
-11.30823787540774
 10
7.373181185387188
 20
-11.36429846129674
 10
7.833401796649897
 20
-11.36429846129674
 10
9.012053592808316
 20
-11.36429846129674
 10
10.14742037991404
 20
-11.00578261744411
 10
11.11680465193644
 20
-10.32749751156949
 10
11.16388834538636
 20
-10.29438897724978
 10
11.17882317299023
 20
-10.23135080773899
 10
11.15163258993632
 20
-10.18106822089496
 97
        0
 97
        0
 92
        1
 93
        1
 72
     4
 94
        3
 73
     0
 74
     1
 95
       35
 96
       31
 40
0.0
 40
0.0
 40
0.0
 40
0.0
 40
1.0
 40
1.0
 40
1.0
 40
2.0
 40
2.0
 40
2.0
 40
3.0
 40
3.0
 40
3.0
 40
4.0
 40
4.0
 40
4.0
 40
5.0
 40
5.0
 40
5.0
 40
6.0
 40
6.0
 40
6.0
 40
7.0
 40
7.0
 40
7.0
 40
8.0
 40
8.0
 40
8.0
 40
9.0
 40
9.0
 40
9.0
 40
10.0
 40
10.0
 40
10.0
 40
10.0
 10
7.591145697485293
 20
-5.922423014801439
 10
7.520631263134519
 20
-6.154582616564666
 10
7.38845589527922
 20
-6.350594736413465
 10
7.197462042401487
 20
-6.506120876795446
 10
7.078023407722159
 20
-6.603447172126506
 10
6.936112555871836
 20
-6.648951413739572
 10
6.776427859657613
 20
-6.694395676124081
 10
6.566180674808644
 20
-6.754194967277524
 10
6.3684091692432
 20
-6.844803588978392
 10
6.172017185906244
 20
-6.97147972028837
 10
5.986381477336168
 20
-7.090918357984896
 10
5.786550684965921
 20
-7.15471626439426
 10
5.580462059878124
 20
-7.161194021108965
 10
5.580462059878124
 20
-7.161194021108965
 10
5.561268707134205
 20
-7.160934111117361
 10
5.561268707134205
 20
-7.160934111117361
 10
5.555790604371875
 20
-7.160934111117361
 10
5.550292508533781
 20
-7.160934111117361
 10
5.544334571952858
 20
-7.160754173430834
 10
5.728651836159972
 20
-6.983295628369736
 10
5.952793110034311
 20
-6.826589896487222
 10
6.228637576500786
 20
-6.682139920364382
 10
6.368509134622071
 20
-6.608885288874565
 10
6.516917736099256
 20
-6.54686676625407
 10
6.660428034011551
 20
-6.486807565108998
 10
6.785664660665613
 20
-6.434485684484318
 10
6.915099833232388
 20
-6.380284454689293
 10
7.039656695310087
 20
-6.318525842060429
 10
7.263520302173977
 20
-6.206984469494475
 10
7.444857504033431
 20
-6.076829542911835
 10
7.591145697485293
 20
-5.922423014801439
 97
        0
 97
        0
 92
        1
 93
        1
 72
     4
 94
        3
 73
     0
 74
     1
 95
       29
 96
       25
 40
0.0
 40
0.0
 40
0.0
 40
0.0
 40
1.0
 40
1.0
 40
1.0
 40
2.0
 40
2.0
 40
2.0
 40
3.0
 40
3.0
 40
3.0
 40
4.0
 40
4.0
 40
4.0
 40
5.0
 40
5.0
 40
5.0
 40
6.0
 40
6.0
 40
6.0
 40
7.0
 40
7.0
 40
7.0
 40
8.0
 40
8.0
 40
8.0
 40
8.0
 10
7.236568498617215
 20
-5.950333349288371
 10
7.13358416530064
 20
-6.025267399185648
 10
7.018943868807279
 20
-6.08482677342383
 10
6.90120464556882
 20
-6.143266535390214
 10
6.808336808594352
 20
-6.189290596986717
 10
6.71015081346377
 20
-6.229456687233172
 10
6.615223689684474
 20
-6.268243255216222
 10
6.538270341026847
 20
-6.299732350357241
 10
6.461356978520749
 20
-6.331201452421939
 10
6.38598308284933
 20
-6.365989405149119
 10
6.096643290234826
 20
-6.499403203165406
 10
5.795828572460752
 20
-6.653549821284009
 10
5.534058131004548
 20
-6.877212365628161
 10
5.632184146907826
 20
-6.677961367421984
 10
5.776134292487186
 20
-6.506960585999271
 10
5.963170620924087
 20
-6.367608844327783
 10
6.203706211009476
 20
-6.188610832393098
 10
6.487567900861677
 20
-6.119714691532408
 10
6.757674354580735
 20
-6.064413842541954
 10
6.757674354580735
 20
-6.064413842541954
 10
6.799539855253392
 20
-6.055816819741418
 10
6.799539855253392
 20
-6.055816819741418
 10
6.943270076999245
 20
-6.026626928372732
 10
7.090519080081473
 20
-5.996777265486697
 10
7.236568498617215
 20
-5.950333349288371
 97
        0
 97
        0
 92
        1
 93
        1
 72
     4
 94
        3
 73
     0
 74
     1
 95
       41
 96
       37
 40
0.0
 40
0.0
 40
0.0
 40
0.0
 40
1.0
 40
1.0
 40
1.0
 40
2.0
 40
2.0
 40
2.0
 40
3.0
 40
3.0
 40
3.0
 40
4.0
 40
4.0
 40
4.0
 40
5.0
 40
5.0
 40
5.0
 40
6.0
 40
6.0
 40
6.0
 40
7.0
 40
7.0
 40
7.0
 40
8.0
 40
8.0
 40
8.0
 40
9.0
 40
9.0
 40
9.0
 40
10.0
 40
10.0
 40
10.0
 40
11.0
 40
11.0
 40
11.0
 40
12.0
 40
12.0
 40
12.0
 40
12.0
 10
6.434486284679274
 20
-5.78748974298786
 10
6.482409687311751
 20
-5.784690712308626
 10
6.530652979156608
 20
-5.783571100037054
 10
6.578976243304573
 20
-5.783571100037054
 10
6.683060195788761
 20
-5.783571100037054
 10
6.787444044409565
 20
-5.788849272174919
 10
6.889408730861633
 20
-5.794047472007681
 10
6.889408730861633
 20
-5.794047472007681
 10
6.911141204228947
 20
-5.795067118898019
 10
6.911141204228947
 20
-5.795067118898019
 10
6.930974335397675
 20
-5.796086765788358
 10
6.950207674293146
 20
-5.796766530381799
 10
6.968881207066917
 20
-5.797186384983623
 10
6.938033020335953
 20
-5.804243940910547
 10
6.907282540604405
 20
-5.811061579921986
 10
6.876773106971894
 20
-5.817859225857116
 10
6.876773106971894
 20
-5.817859225857116
 10
6.809136531625376
 20
-5.832914012296024
 10
6.809136531625376
 20
-5.832914012296024
 10
6.762093949072096
 20
-5.843550328877023
 10
6.714849186270889
 20
-5.853506880864416
 10
6.667585555138985
 20
-5.863383460546705
 10
6.50198402666951
 20
-5.898091440968756
 10
6.330762207559019
 20
-5.933899040586261
 10
6.169757968343674
 20
-6.004174703710342
 10
5.938997887749628
 20
-6.105079759695299
 10
5.752902338436747
 20
-6.234295011692867
 10
5.603034242428003
 20
-6.398498147180261
 10
5.608832234402724
 20
-6.348735380319491
 10
5.610531645843594
 20
-6.30347105562171
 10
5.608312414432576
 20
-6.260345990085675
 10
5.605094624749616
 20
-6.197047910583225
 10
5.62826550405594
 20
-6.143106590779831
 10
5.681147189480586
 20
-6.090784710155124
 10
5.869162074067857
 20
-5.905408906887311
 10
6.115576732993658
 20
-5.806203262385944
 10
6.434486284679274
 20
-5.78748974298786
 97
        0
 97
        0
 92
        1
 93
        1
 72
     4
 94
        3
 73
     0
 74
     1
 95
       35
 96
       31
 40
0.0
 40
0.0
 40
0.0
 40
0.0
 40
1.0
 40
1.0
 40
1.0
 40
2.0
 40
2.0
 40
2.0
 40
3.0
 40
3.0
 40
3.0
 40
4.0
 40
4.0
 40
4.0
 40
5.0
 40
5.0
 40
5.0
 40
6.0
 40
6.0
 40
6.0
 40
7.0
 40
7.0
 40
7.0
 40
8.0
 40
8.0
 40
8.0
 40
9.0
 40
9.0
 40
9.0
 40
10.0
 40
10.0
 40
10.0
 40
10.0
 10
5.525541080724438
 20
-5.398784353952502
 10
5.591558216933195
 20
-5.327329099327875
 10
5.681187175632127
 20
-5.297299498755339
 10
5.768297006783428
 20
-5.275347100999889
 10
5.877839068954168
 20
-5.247436766513133
 10
5.989400431778184
 20
-5.239439536001151
 10
6.084187604027041
 20
-5.235280976134858
 10
6.155562884543492
 20
-5.232042097777505
 10
6.227238061196557
 20
-5.218686722822377
 10
6.310309291041297
 20
-5.192315855209194
 10
6.310309291041297
 20
-5.192315855209194
 10
6.283818465639544
 20
-5.278326069365625
 10
6.283818465639544
 20
-5.278326069365625
 10
6.259986719315848
 20
-5.355919198408261
 10
6.236174966067917
 20
-5.433592299755976
 10
6.211884489846978
 20
-5.510745581120469
 10
6.192491205855453
 20
-5.571824429155703
 10
6.154583223830488
 20
-5.606532409577767
 10
6.089025928364562
 20
-5.623386572881878
 10
5.893613605740572
 20
-5.673069367437569
 10
5.721473223318577
 20
-5.762658342248073
 10
5.577063236996385
 20
-5.889674355854961
 10
5.570165625854037
 20
-5.849508265608329
 10
5.562588250135351
 20
-5.809442140743309
 10
5.554970888265112
 20
-5.769196078191763
 10
5.535017798641749
 20
-5.663632635433424
 10
5.514344958290482
 20
-5.554390466639575
 10
5.505508018797981
 20
-5.436811185037022
 10
5.504788268070077
 20
-5.433492334374566
 10
5.502688995113709
 20
-5.423455810082083
 10
5.525541080724438
 20
-5.398784353952502
 97
        0
 97
        0
 92
        1
 93
        1
 72
     4
 94
        3
 73
     0
 74
     1
 95
       56
 96
       52
 40
0.0
 40
0.0
 40
0.0
 40
0.0
 40
1.0
 40
1.0
 40
1.0
 40
2.0
 40
2.0
 40
2.0
 40
3.0
 40
3.0
 40
3.0
 40
4.0
 40
4.0
 40
4.0
 40
5.0
 40
5.0
 40
5.0
 40
6.0
 40
6.0
 40
6.0
 40
7.0
 40
7.0
 40
7.0
 40
8.0
 40
8.0
 40
8.0
 40
9.0
 40
9.0
 40
9.0
 40
10.0
 40
10.0
 40
10.0
 40
11.0
 40
11.0
 40
11.0
 40
12.0
 40
12.0
 40
12.0
 40
13.0
 40
13.0
 40
13.0
 40
14.0
 40
14.0
 40
14.0
 40
15.0
 40
15.0
 40
15.0
 40
16.0
 40
16.0
 40
16.0
 40
17.0
 40
17.0
 40
17.0
 40
17.0
 10
5.069578994601784
 20
-6.915579079009401
 10
5.069578994601784
 20
-6.915579079009401
 10
5.073537623605223
 20
-6.896185795017876
 10
5.073537623605223
 20
-6.896185795017876
 10
5.123061555639285
 20
-6.628618455163
 10
5.170304110355801
 20
-6.343197298190009
 10
5.157168659571678
 20
-6.054877145156373
 10
5.14763196242705
 20
-5.849008438701414
 10
5.131177661064296
 20
-5.641000473084532
 10
5.11518320044436
 20
-5.439110388809328
 10
5.078595871776277
 20
-4.980309274336226
 10
5.154609545872492
 20
-4.551617732740952
 10
5.341104956700873
 20
-4.164951637486107
 10
5.349941896193386
 20
-4.146737944995114
 10
5.358798828761665
 20
-4.128204363283544
 10
5.367395851344882
 20
-4.109230933893829
 10
5.370194881953365
 20
-4.102933114865626
 10
5.372873954107212
 20
-4.097055150439246
 10
5.375393081654844
 20
-4.091537061386084
 10
5.3755930124126
 20
-4.092296798284615
 10
5.37581293624612
 20
-4.092976562878233
 10
5.376032860079641
 20
-4.093576355166584
 10
5.376032860079641
 20
-4.093576355166584
 10
5.382490623554935
 20
-4.114589078336786
 10
5.382490623554935
 20
-4.114589078336786
 10
5.41655991542954
 20
-4.222471717943575
 10
5.434252696736191
 20
-4.339271269571264
 10
5.436631872753398
 20
-4.472665074511269
 10
5.441790086303336
 20
-4.614316019954875
 10
5.403423373891276
 20
-4.750608820955512
 10
5.361179094133996
 20
-4.876865097663666
 10
5.27094925380671
 20
-5.146531710527989
 10
5.263771739603511
 20
-5.437410977325359
 10
5.338625815304781
 20
-5.792168122837375
 10
5.374033552502156
 20
-5.95985005359762
 10
5.407382002894703
 20
-6.158161377218726
 10
5.386570301009467
 20
-6.357072493128195
 10
5.362717471613551
 20
-6.583873950448277
 10
5.278146761085673
 20
-6.756574143354757
 10
5.128078734319185
 20
-6.885029658453605
 10
5.128078734319185
 20
-6.885029658453605
 10
5.127558914349038
 20
-6.885469506131762
 10
5.127558914349038
 20
-6.885469506131762
 10
5.115603055035636
 20
-6.896005857331349
 10
5.106006378663677
 20
-6.9032433509448
 10
5.097569300686662
 20
-6.908001703099418
 10
5.085713406752145
 20
-6.914559432119226
 10
5.075956785773983
 20
-6.919577694265475
 10
5.067959555464022
 20
-6.923316399529742
 10
5.068559347737264
 20
-6.920517368850697
 10
5.069119153858966
 20
-6.917878282781707
 10
5.069578994601784
 20
-6.915579079009401
 97
        0
 97
        0
 92
        1
 93
        1
 72
     4
 94
        3
 73
     0
 74
     1
 95
       50
 96
       46
 40
0.0
 40
0.0
 40
0.0
 40
0.0
 40
1.0
 40
1.0
 40
1.0
 40
2.0
 40
2.0
 40
2.0
 40
3.0
 40
3.0
 40
3.0
 40
4.0
 40
4.0
 40
4.0
 40
5.0
 40
5.0
 40
5.0
 40
6.0
 40
6.0
 40
6.0
 40
7.0
 40
7.0
 40
7.0
 40
8.0
 40
8.0
 40
8.0
 40
9.0
 40
9.0
 40
9.0
 40
10.0
 40
10.0
 40
10.0
 40
11.0
 40
11.0
 40
11.0
 40
12.0
 40
12.0
 40
12.0
 40
13.0
 40
13.0
 40
13.0
 40
14.0
 40
14.0
 40
14.0
 40
15.0
 40
15.0
 40
15.0
 40
15.0
 10
4.590524905959114
 20
-5.799905443357741
 10
4.611717566280516
 20
-5.7344880977697
 10
4.636169097953231
 20
-5.670250343682028
 10
4.660640622701723
 20
-5.606032582670852
 10
4.706524731605151
 20
-5.485554305007654
 10
4.754008286570575
 20
-5.360937460554497
 10
4.779059610516533
 20
-5.229243067098284
 10
4.790915504451062
 20
-5.166784696799659
 10
4.792834839725452
 20
-5.104346319577189
 10
4.794674202696746
 20
-5.043947236135383
 10
4.796273648758731
 20
-4.992125182417781
 10
4.797774204564107
 20
-4.943122152455531
 10
4.805050609023914
 20
-4.894299060179795
 10
4.839278754750567
 20
-4.665698225994523
 10
4.924069389111978
 20
-4.457950170369259
 10
5.057723100667267
 20
-4.274193806279944
 10
4.956658102625081
 20
-4.540121713879986
 10
4.901257289652802
 20
-4.825802780844596
 10
4.889142563163507
 20
-5.141353503771547
 10
4.882283860742405
 20
-5.31201440289735
 10
4.898678182877839
 20
-5.48267530202333
 10
4.914533770039169
 20
-5.647638174409445
 10
4.914533770039169
 20
-5.647638174409445
 10
4.922230026140684
 20
-5.728790071029835
 10
4.922230026140684
 20
-5.728790071029835
 10
4.956818047231283
 20
-6.103960147423726
 10
4.942223101915588
 20
-6.445042028760225
 10
4.877665460238404
 20
-6.771369019802048
 10
4.870467952959428
 20
-6.807456522487301
 10
4.862770618786095
 20
-6.843444059791333
 10
4.853613790081188
 20
-6.88171080779115
 10
4.851574496352137
 20
-6.89022785828638
 10
4.849375258016898
 20
-6.899164763383598
 10
4.84733596428786
 20
-6.906902083903964
 10
4.840258415463546
 20
-6.903503260936405
 10
4.831681385956105
 20
-6.899324707993805
 10
4.822224661114571
 20
-6.894726300449393
 10
4.666798490040403
 20
-6.818172811373415
 10
4.574530445339178
 20
-6.687418092502437
 10
4.531905207787063
 20
-6.483228804454939
 10
4.515490892575864
 20
-6.405055876200095
 10
4.508953156797461
 20
-6.321244900434571
 10
4.511912132012159
 20
-6.226897573469235
 10
4.51591074716714
 20
-6.091284537062216
 10
4.541662897417583
 20
-5.951592913094019
 10
4.590524905959114
 20
-5.799905443357741
 97
        0
 97
        0
 92
        1
 93
        1
 72
     4
 94
        3
 73
     0
 74
     1
 95
       23
 96
       19
 40
0.0
 40
0.0
 40
0.0
 40
0.0
 40
1.0
 40
1.0
 40
1.0
 40
2.0
 40
2.0
 40
2.0
 40
3.0
 40
3.0
 40
3.0
 40
4.0
 40
4.0
 40
4.0
 40
5.0
 40
5.0
 40
5.0
 40
6.0
 40
6.0
 40
6.0
 40
6.0
 10
4.808409445754111
 20
-7.126046193008783
 10
4.825583497844756
 20
-7.132783859715119
 10
4.841797882298212
 20
-7.138221976463379
 10
4.857332502175319
 20
-7.142560474016161
 10
4.882383826121276
 20
-7.237847475566544
 10
4.912033557495483
 20
-7.33321444942203
 10
4.945541952494232
 20
-7.426442164115592
 10
5.062401480398598
 20
-7.752889113614956
 10
5.218428529494771
 20
-8.066560487371614
 10
5.370194881953365
 20
-8.37171481063304
 10
5.544674454241027
 20
-8.722893195490794
 10
5.759919908033731
 20
-9.0417627690802
 10
6.013192191950325
 20
-9.324724777670882
 10
5.182179997366094
 20
-8.638942268191183
 10
4.628611715310322
 20
-7.756927715023519
 10
4.38057761724676
 20
-6.733742050243007
 10
4.460130065755126
 20
-6.942929607360433
 10
4.592664165067023
 20
-7.042255210319379
 10
4.808409445754111
 20
-7.126046193008783
 97
        0
 97
        0
 92
        1
 93
        1
 72
     4
 94
        3
 73
     0
 74
     1
 95
       35
 96
       31
 40
0.0
 40
0.0
 40
0.0
 40
0.0
 40
1.0
 40
1.0
 40
1.0
 40
2.0
 40
2.0
 40
2.0
 40
3.0
 40
3.0
 40
3.0
 40
4.0
 40
4.0
 40
4.0
 40
5.0
 40
5.0
 40
5.0
 40
6.0
 40
6.0
 40
6.0
 40
7.0
 40
7.0
 40
7.0
 40
8.0
 40
8.0
 40
8.0
 40
9.0
 40
9.0
 40
9.0
 40
10.0
 40
10.0
 40
10.0
 40
10.0
 10
4.739194491063661
 20
-8.175022926190598
 10
5.077616211063299
 20
-8.737448155022598
 10
5.518683455733645
 20
-9.229257838433972
 10
6.035864339879077
 20
-9.62502078339609
 10
5.80262621839587
 20
-9.487728328581397
 10
5.584160778896476
 20
-9.337060505735481
 10
5.382150741266766
 20
-9.17387701713844
 10
4.992285763655976
 20
-8.858846114194723
 10
4.635789229513509
 20
-8.518543962833089
 10
4.322538781388908
 20
-8.162427288134191
 10
3.773267947508013
 20
-7.538243446673176
 10
3.333380294308388
 20
-6.816893254491434
 10
3.015130514123332
 20
-6.018129870953796
 10
2.872999738439489
 20
-5.662253113170045
 10
2.746123679571888
 20
-5.270748693455466
 10
2.627784664060187
 20
-4.823003750165374
 10
2.814440019494769
 20
-4.809808319820629
 10
3.011251857423
 20
-4.731215536963987
 10
3.174555300352495
 20
-4.66595813598614
 10
3.36243023340934
 20
-4.59092412070744
 10
3.543767430687795
 20
-4.496156939140304
 10
3.713549677900851
 20
-4.384195711972337
 10
3.95104637729854
 20
-4.227529966242463
 10
4.143600748683184
 20
-4.025240020441578
 10
4.267476787588079
 20
-3.799998023071402
 10
4.217114229711076
 20
-3.946287362211895
 10
4.172390778526215
 20
-4.09521578742158
 10
4.134862715973087
 20
-4.247083194844196
 10
3.802137948926985
 20
-5.595096369945584
 10
4.027299968304052
 20
-6.992232533466954
 10
4.739194491063661
 20
-8.175022926190598
 97
        0
 97
        0
 92
        1
 93
        1
 72
     4
 94
        3
 73
     0
 74
     1
 95
       38
 96
       34
 40
0.0
 40
0.0
 40
0.0
 40
0.0
 40
1.0
 40
1.0
 40
1.0
 40
2.0
 40
2.0
 40
2.0
 40
3.0
 40
3.0
 40
3.0
 40
4.0
 40
4.0
 40
4.0
 40
5.0
 40
5.0
 40
5.0
 40
6.0
 40
6.0
 40
6.0
 40
7.0
 40
7.0
 40
7.0
 40
8.0
 40
8.0
 40
8.0
 40
9.0
 40
9.0
 40
9.0
 40
10.0
 40
10.0
 40
10.0
 40
11.0
 40
11.0
 40
11.0
 40
11.0
 10
4.42328282710197
 20
-8.704279641474134
 10
4.417705824481724
 20
-8.729290979900421
 10
4.400350769188145
 20
-8.75114341227446
 10
4.373000241528063
 20
-8.767557727900238
 10
4.302884524785441
 20
-8.809583174240844
 10
4.22543134923343
 20
-8.830855807402662
 10
4.142240160934029
 20
-8.830855807402662
 10
4.141640368660774
 20
-8.830855807402662
 10
4.141040576387531
 20
-8.830855807402662
 10
4.140440784114288
 20
-8.830855807402662
 10
4.025260674575015
 20
-8.828656569011981
 10
3.909600731217147
 20
-8.793508740911774
 10
3.78338444385012
 20
-8.711417169706136
 10
3.78338444385012
 20
-8.711417169706136
 10
3.768749512382884
 20
-8.701980437702003
 10
3.768749512382884
 20
-8.701980437702003
 10
3.765990467925942
 20
-8.700181060836814
 10
3.762751589650406
 20
-8.698141767056313
 10
3.759232808314032
 20
-8.695842563284007
 10
3.759232808314032
 20
-8.695842563284007
 10
3.785683647564231
 20
-8.686145921288244
 10
3.785683647564231
 20
-8.686145921288244
 10
3.840564640566375
 20
-8.665393108109633
 10
3.893466319066786
 20
-8.64012185969174
 10
3.944688579202117
 20
-8.615710313553766
 10
4.006487176422373
 20
-8.58628050526977
 10
4.064906943836667
 20
-8.558370170782812
 10
4.126865485663112
 20
-8.537517392222803
 10
4.229090082100242
 20
-8.503229266402741
 10
4.3480288898852
 20
-8.539656651384904
 10
4.403409709781701
 20
-8.622168077192352
 10
4.422163214858579
 20
-8.649998439374006
 10
4.429020839849374
 20
-8.678408600767852
 10
4.42328282710197
 20
-8.704279641474134
 97
        0
 97
        0
 92
        1
 93
        1
 72
     4
 94
        3
 73
     0
 74
     1
 95
       26
 96
       22
 40
0.0
 40
0.0
 40
0.0
 40
0.0
 40
1.0
 40
1.0
 40
1.0
 40
2.0
 40
2.0
 40
2.0
 40
3.0
 40
3.0
 40
3.0
 40
4.0
 40
4.0
 40
4.0
 40
5.0
 40
5.0
 40
5.0
 40
6.0
 40
6.0
 40
6.0
 40
7.0
 40
7.0
 40
7.0
 40
7.0
 10
2.859784315352272
 20
-6.208443964062957
 10
2.703998268914158
 20
-6.14130721391464
 10
2.547852347112085
 20
-6.107538908077812
 10
2.393565781357084
 20
-6.107538908077812
 10
2.377651293040256
 20
-6.107538908077812
 10
2.361756797799204
 20
-6.107958762679623
 10
2.345842309482375
 20
-6.108638527273241
 10
2.309294966965834
 20
-5.674768778921348
 10
2.325209455282662
 20
-5.235700830736682
 10
2.393225899068915
 20
-4.802250936986789
 10
2.394625414373157
 20
-4.802250936986789
 10
2.396044922753175
 20
-4.802250936986789
 10
2.397444438057417
 20
-4.802150971605366
 10
2.438830104911492
 20
-4.961595754938141
 10
2.488213002075529
 20
-5.120340780601155
 10
2.536016446253332
 20
-5.274147516423201
 10
2.555629653588527
 20
-5.337185685933845
 10
2.575282847075262
 20
-5.400323820826088
 10
2.594436213667627
 20
-5.463621900328525
 10
2.671169638491746
 20
-5.718153754448836
 10
2.760238791068976
 20
-5.968187166406324
 10
2.859784315352272
 20
-6.208443964062957
 97
        0
 97
        0
 92
        1
 93
        1
 72
     4
 94
        3
 73
     0
 74
     1
 95
       26
 96
       22
 40
0.0
 40
0.0
 40
0.0
 40
0.0
 40
1.0
 40
1.0
 40
1.0
 40
2.0
 40
2.0
 40
2.0
 40
3.0
 40
3.0
 40
3.0
 40
4.0
 40
4.0
 40
4.0
 40
5.0
 40
5.0
 40
5.0
 40
6.0
 40
6.0
 40
6.0
 40
7.0
 40
7.0
 40
7.0
 40
7.0
 10
3.746037378302592
 20
-4.090597386800836
 10
3.794960434723798
 20
-3.999908792794877
 10
3.829068621995791
 20
-3.904021998956169
 10
3.847703219739388
 20
-3.80475637522602
 10
3.865655950663886
 20
-3.710229110574194
 10
3.885649026438803
 20
-3.639613565153392
 10
3.912539713356055
 20
-3.576155541040748
 10
3.920057109847423
 20
-3.558721578524619
 10
3.924515565745234
 20
-3.555482700167254
 10
3.937072270710915
 20
-3.555482700167254
 10
3.938390760333012
 20
-3.555482700167254
 10
3.939790275637266
 20
-3.555562672472357
 10
3.941289756320379
 20
-3.555642644777461
 10
4.000189357553268
 20
-3.558201758541195
 10
4.067486050611629
 20
-3.558461668533002
 10
4.134862715973087
 20
-3.544426528984432
 10
4.126145734935221
 20
-3.568758102817103
 10
4.117228823139612
 20
-3.592909738963259
 10
4.10573280456904
 20
-3.616141693600677
 10
4.011565417669203
 20
-3.808315142803786
 10
3.893126436778617
 20
-3.964680992389579
 10
3.746037378302592
 20
-4.090597386800836
 97
        0
 97
        0
 92
        1
 93
        1
 72
     4
 94
        3
 73
     0
 74
     1
 95
       71
 96
       67
 40
0.0
 40
0.0
 40
0.0
 40
0.0
 40
1.0
 40
1.0
 40
1.0
 40
2.0
 40
2.0
 40
2.0
 40
3.0
 40
3.0
 40
3.0
 40
4.0
 40
4.0
 40
4.0
 40
5.0
 40
5.0
 40
5.0
 40
6.0
 40
6.0
 40
6.0
 40
7.0
 40
7.0
 40
7.0
 40
8.0
 40
8.0
 40
8.0
 40
9.0
 40
9.0
 40
9.0
 40
10.0
 40
10.0
 40
10.0
 40
11.0
 40
11.0
 40
11.0
 40
12.0
 40
12.0
 40
12.0
 40
13.0
 40
13.0
 40
13.0
 40
14.0
 40
14.0
 40
14.0
 40
15.0
 40
15.0
 40
15.0
 40
16.0
 40
16.0
 40
16.0
 40
17.0
 40
17.0
 40
17.0
 40
18.0
 40
18.0
 40
18.0
 40
19.0
 40
19.0
 40
19.0
 40
20.0
 40
20.0
 40
20.0
 40
21.0
 40
21.0
 40
21.0
 40
22.0
 40
22.0
 40
22.0
 40
22.0
 10
4.991146158336808
 20
-0.9070198784345646
 10
5.83913247425394
 20
-0.3962367656336659
 10
6.811615673021454
 20
-0.1262902497014061
 10
7.803492155290617
 20
-0.1262902497014061
 10
8.245039233779556
 20
-0.1262902497014061
 10
8.690404989741536
 20
-0.17947183260608
 10
9.128393300742522
 20
-0.2843755038471221
 10
8.151151749940583
 20
-0.2968711765221062
 10
7.207038725697657
 20
-0.580512949706215
 10
6.37870560326726
 20
-1.113588342559297
 10
5.491113004240042
 20
-1.685110421098721
 10
4.799112665518767
 20
-2.506905828511107
 10
4.390994009725483
 20
-3.477609668056693
 10
4.393353192666924
 20
-3.466953358399539
 10
4.397112955913333
 20
-3.456516972581375
 10
4.399151184641647
 20
-3.445820676771594
 10
4.403789578221423
 20
-3.421149220642014
 10
4.430280403623189
 20
-3.33371949806974
 10
4.374379763756527
 20
-3.289634764872314
 10
4.317599428555783
 20
-3.244390433250664
 10
4.244584715825807
 20
-3.269801633202645
 10
4.208497214052082
 20
-3.286295921133539
 10
4.208497214052082
 20
-3.286295921133539
 10
4.185925031502203
 20
-3.296432410807445
 10
4.185925031502203
 20
-3.296432410807445
 10
4.131084024651626
 20
-3.320763984640292
 10
4.095396384393401
 20
-3.332919775018379
 10
4.072304381873386
 20
-3.338717767139668
 10
4.073624981703182
 20
-3.336758445664271
 10
4.075024497042881
 20
-3.334719151883582
 10
4.076462941634556
 20
-3.332579892721658
 10
4.203279021274827
 20
-3.149083438623974
 10
4.268016600634003
 20
-2.983860656246229
 10
4.28021237685669
 20
-2.812599964831911
 10
4.282511580570814
 20
-2.78113086276739
 10
4.284310957390554
 20
-2.752200881390119
 10
4.286090341134519
 20
-2.723870692301362
 10
4.290728734714295
 20
-2.648496794725929
 10
4.295148266885399
 20
-2.577381422398035
 10
4.308382620623547
 20
-2.467379516705642
 10
4.310681824337658
 20
-2.442188240592827
 10
4.316759719373231
 20
-2.375591303504254
 10
4.261938705598431
 20
-2.34674129443225
 10
4.234828094847646
 20
-2.33236627258696
 10
4.188804034413794
 20
-2.325888515872243
 10
4.123646600463354
 20
-2.376510985012992
 10
3.968720256283556
 20
-2.497489089583281
 10
3.788923575476272
 20
-2.556108789236204
 10
3.598568451386831
 20
-2.618127311856672
 10
3.553763968575254
 20
-2.632682271388489
 10
3.509020507556619
 20
-2.647317203225397
 10
3.464435947452279
 20
-2.662791844266116
 10
3.464055037573227
 20
-2.662971781952642
 10
3.463675169133491
 20
-2.663051754257746
 10
3.463335286845323
 20
-2.66321169886794
 10
3.453518686639844
 20
-2.60255270543453
 10
3.43424640226936
 20
-2.54573238264681
 10
3.418510810957969
 20
-2.50294719940766
 10
3.416852425905871
 20
-2.498268819558146
 10
3.411833123649153
 20
-2.487372592985518
 10
3.405315380946528
 20
-2.473497398047332
 10
3.39765907267699
 20
-2.457263020107878
 10
3.379364368590687
 20
-2.418376486743391
 10
3.37230681284215
 20
-2.397783618175001
 10
3.805456799505628
 20
-1.794772444494558
 10
4.350068183614237
 20
-1.293186146782318
 10
4.991146158336808
 20
-0.9070198784345646
 97
        0
 97
        0
 92
        1
 93
        1
 72
     4
 94
        3
 73
     0
 74
     1
 95
       53
 96
       49
 40
0.0
 40
0.0
 40
0.0
 40
0.0
 40
1.0
 40
1.0
 40
1.0
 40
2.0
 40
2.0
 40
2.0
 40
3.0
 40
3.0
 40
3.0
 40
4.0
 40
4.0
 40
4.0
 40
5.0
 40
5.0
 40
5.0
 40
6.0
 40
6.0
 40
6.0
 40
7.0
 40
7.0
 40
7.0
 40
8.0
 40
8.0
 40
8.0
 40
9.0
 40
9.0
 40
9.0
 40
10.0
 40
10.0
 40
10.0
 40
11.0
 40
11.0
 40
11.0
 40
12.0
 40
12.0
 40
12.0
 40
13.0
 40
13.0
 40
13.0
 40
14.0
 40
14.0
 40
14.0
 40
15.0
 40
15.0
 40
15.0
 40
16.0
 40
16.0
 40
16.0
 40
16.0
 10
3.466014358999157
 20
-2.889353384670901
 10
3.509779201870451
 20
-2.874878397444187
 10
3.553863933954125
 20
-2.861023195582144
 10
3.597968659113588
 20
-2.847227972948872
 10
3.754794345491998
 20
-2.797885060689901
 10
3.916618300814144
 20
-2.747022674633677
 10
4.069965192007721
 20
-2.666530549530408
 10
4.064946929988208
 20
-2.815918815494557
 10
4.052651188386638
 20
-2.979702096380139
 10
3.955704763954095
 20
-3.1164147519826
 10
3.955704763954095
 20
-3.1164147519826
 10
3.955624791650987
 20
-3.116494724287691
 10
3.955624791650987
 20
-3.116494724287691
 10
3.929753751598254
 20
-3.153241998490254
 10
3.905042309940465
 20
-3.190689030362755
 10
3.880330868282676
 20
-3.228036096853657
 10
3.855879336609948
 20
-3.265123253353118
 10
3.83144779801301
 20
-3.302130437547311
 10
3.805896647172669
 20
-3.338377884842948
 10
3.726004316376121
 20
-3.451858585807991
 10
3.674322215497972
 20
-3.573176572675013
 10
3.647911362399314
 20
-3.709369408294227
 10
3.578275479475299
 20
-4.069064843647387
 10
3.363549845652743
 20
-4.32675560381996
 10
2.991438719330063
 20
-4.497176586030466
 10
2.873099703818361
 20
-4.551357822749335
 10
2.750122294726869
 20
-4.585905858561015
 10
2.618667821506822
 20
-4.600780707313409
 10
2.589198027814607
 20
-4.604279495662379
 10
2.585279384962721
 20
-4.60291996647532
 10
2.582000520535631
 20
-4.598741413532896
 10
2.582640298960428
 20
-4.594742798276823
 10
2.590138721728648
 20
-4.584286419382326
 10
2.594596158273829
 20
-4.577988600354312
 10
2.594596158273829
 20
-4.577988600354312
 10
2.602513416280696
 20
-4.56659254687458
 10
2.602513416280696
 20
-4.56659254687458
 10
2.757519732763588
 20
-4.328215098388442
 10
2.854546129499239
 20
-4.089157885308674
 10
2.899130688477296
 20
-3.835885594994011
 10
2.921203044132805
 20
-3.711588639761253
 10
2.932259215036323
 20
-3.583892861561114
 10
2.934978273341711
 20
-3.422588722134176
 10
2.940296431497839
 20
-3.251687906092898
 10
2.972705207328974
 20
-3.221818250130557
 10
3.068931881033627
 20
-3.133168949905098
 10
3.199826548131985
 20
-3.013210492225337
 10
3.326022842423223
 20
-2.935717328564124
 10
3.466014358999157
 20
-2.889353384670901
 97
        0
 97
        0
 92
        1
 93
        1
 72
     4
 94
        3
 73
     0
 74
     1
 95
       47
 96
       43
 40
0.0
 40
0.0
 40
0.0
 40
0.0
 40
1.0
 40
1.0
 40
1.0
 40
2.0
 40
2.0
 40
2.0
 40
3.0
 40
3.0
 40
3.0
 40
4.0
 40
4.0
 40
4.0
 40
5.0
 40
5.0
 40
5.0
 40
6.0
 40
6.0
 40
6.0
 40
7.0
 40
7.0
 40
7.0
 40
8.0
 40
8.0
 40
8.0
 40
9.0
 40
9.0
 40
9.0
 40
10.0
 40
10.0
 40
10.0
 40
11.0
 40
11.0
 40
11.0
 40
12.0
 40
12.0
 40
12.0
 40
13.0
 40
13.0
 40
13.0
 40
14.0
 40
14.0
 40
14.0
 40
14.0
 10
2.781091569102209
 20
-2.603492380019765
 10
2.820858821999713
 20
-2.563946075137804
 10
2.86560230040277
 20
-2.526938890943623
 10
2.914265446838903
 20
-2.493330529717001
 10
2.980542493032746
 20
-2.447386440425589
 10
3.060754713041686
 20
-2.391825681443518
 10
3.132609827376718
 20
-2.325728571261859
 10
3.134729093408863
 20
-2.337124624741591
 10
3.1371682486534
 20
-2.348520678221133
 10
3.139847320807247
 20
-2.359936724776996
 10
3.154082390758983
 20
-2.420755662820612
 10
3.174755231110238
 20
-2.479375362473534
 10
3.19504820302177
 20
-2.533656564573637
 10
3.19504820302177
 20
-2.533656564573637
 10
3.201945814164118
 20
-2.552110173980117
 10
3.201945814164118
 20
-2.552110173980117
 10
3.214322563189689
 20
-2.585198715223492
 10
3.226797207352332
 20
-2.61838722184829
 10
3.238193260544032
 20
-2.651995583074911
 10
3.245210830141029
 20
-2.672568458566982
 10
3.250349050615177
 20
-2.693921064034106
 10
3.25550830032647
 20
-2.715293662577349
 10
3.25550830032647
 20
-2.715293662577349
 10
3.260565512336168
 20
-2.735446683467608
 10
3.260565512336168
 20
-2.735446683467608
 10
3.257966412485429
 20
-2.73688618495977
 10
3.254727534209893
 20
-2.73858559644355
 10
3.25146866285858
 20
-2.740205035622226
 10
3.124052790945067
 20
-2.805542408905163
 10
3.007553138404647
 20
-2.889933183882918
 10
2.906108271922739
 20
-2.990238447579536
 10
2.899550543068572
 20
-2.996376321997546
 10
2.893172751896373
 20
-3.00267414102575
 10
2.886914919178821
 20
-3.009051932359044
 10
2.880397176476208
 20
-2.980541805583774
 10
2.873679503015839
 20
-2.952211616495017
 10
2.866661933418843
 20
-2.923881427406438
 10
2.836372423619852
 20
-2.801803703640884
 10
2.806562747639456
 20
-2.70983555275297
 10
2.769935432819807
 20
-2.626044570063565
 10
2.767256360665972
 20
-2.619746751035362
 10
2.766496623786527
 20
-2.618047339551582
 10
2.781091569102209
 20
-2.603492380019765
 97
        0
 97
        0
 92
        1
 93
        1
 72
     4
 94
        3
 73
     0
 74
     1
 95
       47
 96
       43
 40
0.0
 40
0.0
 40
0.0
 40
0.0
 40
1.0
 40
1.0
 40
1.0
 40
2.0
 40
2.0
 40
2.0
 40
3.0
 40
3.0
 40
3.0
 40
4.0
 40
4.0
 40
4.0
 40
5.0
 40
5.0
 40
5.0
 40
6.0
 40
6.0
 40
6.0
 40
7.0
 40
7.0
 40
7.0
 40
8.0
 40
8.0
 40
8.0
 40
9.0
 40
9.0
 40
9.0
 40
10.0
 40
10.0
 40
10.0
 40
11.0
 40
11.0
 40
11.0
 40
12.0
 40
12.0
 40
12.0
 40
13.0
 40
13.0
 40
13.0
 40
14.0
 40
14.0
 40
14.0
 40
14.0
 10
1.573229889236662
 20
-2.306075377278704
 10
1.634368714956344
 20
-1.897216967353099
 10
1.706383773897578
 20
-1.568130931784683
 10
1.798891735508088
 20
-1.275232364282955
 10
1.890140133344794
 20
-1.537181649703232
 10
2.031711102906949
 20
-1.775799015104856
 10
2.169703311905399
 20
-1.998521884863749
 10
2.169703311905399
 20
-1.998521884863749
 10
2.240259886829007
 20
-2.111602724303288
 10
2.240259886829007
 20
-2.111602724303288
 10
2.360737150934685
 20
-2.303776173506586
 10
2.485314006088161
 20
-2.502507351729529
 10
2.571424183450707
 20
-2.715793489484276
 10
2.628164532499909
 20
-2.856004933435896
 10
2.667211009488319
 20
-2.988199153799036
 10
2.690742859675386
 20
-3.120073484941776
 10
2.706937251053066
 20
-3.209742432057573
 10
2.715834169772898
 20
-3.299231441486667
 10
2.717153712774044
 20
-3.386181330228333
 10
2.717413622759118
 20
-3.402255763557402
 10
2.717413622759118
 20
-3.418770044564793
 10
2.717153712774044
 20
-3.435524242487304
 10
2.715354335954304
 20
-3.725963661606543
 10
2.662952484348251
 20
-3.97769648504781
 10
2.556909210438119
 20
-4.205017762351127
 10
2.526119873744758
 20
-4.271374782524402
 10
2.48915267663694
 20
-4.338251622680925
 10
2.441429204762231
 20
-4.413965402553256
 10
2.409180373537298
 20
-4.372199866204444
 10
2.373232823293999
 20
-4.331773865966195
 10
2.331927128743031
 20
-4.290688094210838
 10
2.265909992534274
 20
-4.224930866326076
 10
2.193774975138391
 20
-4.164611755189386
 10
2.123959154532397
 20
-4.106251965528082
 10
2.092749963247759
 20
-4.080141007906351
 10
2.061521784885927
 20
-4.05411002258989
 10
2.030771428345525
 20
-4.027479244984925
 10
1.739212404319978
 20
-3.775486511552028
 10
1.577408442073609
 20
-3.45763658485296
 10
1.5360627613711
 20
-3.055675786244074
 10
1.509611922120889
 20
-2.795245974620886
 10
1.538321978933658
 20
-2.541473857399107
 10
1.573229889236662
 20
-2.306075377278704
 97
        0
 97
        0
 92
        1
 93
        1
 72
     4
 94
        3
 73
     0
 74
     1
 95
       41
 96
       37
 40
0.0
 40
0.0
 40
0.0
 40
0.0
 40
1.0
 40
1.0
 40
1.0
 40
2.0
 40
2.0
 40
2.0
 40
3.0
 40
3.0
 40
3.0
 40
4.0
 40
4.0
 40
4.0
 40
5.0
 40
5.0
 40
5.0
 40
6.0
 40
6.0
 40
6.0
 40
7.0
 40
7.0
 40
7.0
 40
8.0
 40
8.0
 40
8.0
 40
9.0
 40
9.0
 40
9.0
 40
10.0
 40
10.0
 40
10.0
 40
11.0
 40
11.0
 40
11.0
 40
12.0
 40
12.0
 40
12.0
 40
12.0
 10
0.9784758710845582
 20
-3.147124117148577
 10
1.083299567372427
 20
-3.166517401140102
 10
1.182325271685575
 20
-3.184891038241479
 10
1.278411993859802
 20
-3.221218457842219
 10
1.334852446772377
 20
-3.242571063309153
 10
1.353446007243039
 20
-3.264023634157676
 10
1.361364253561141
 20
-3.316585431697692
 10
1.382296015586247
 20
-3.456616937962798
 10
1.440955699909839
 20
-3.583053152357289
 10
1.506114125828225
 20
-3.710489020565812
 10
1.387174326075322
 20
-3.685737592131318
 10
1.27879284852472
 20
-3.673561808676721
 10
1.177087085832543
 20
-3.673561808676721
 10
1.164832313728893
 20
-3.673561808676721
 10
1.152715526462922
 20
-3.673741746363248
 10
1.140679694846426
 20
-3.674081628659969
 10
1.140679694846426
 20
-3.674081628659969
 10
1.12446531039297
 20
-3.674501483261969
 10
1.12446531039297
 20
-3.674501483261969
 10
1.075463262757365
 20
-3.675781040143925
 10
1.024759841503485
 20
-3.677040603949573
 10
0.9745172420811311
 20
-3.685557654444791
 10
0.9539843532602895
 20
-3.688956477412363
 10
0.9475075745656087
 20
-3.6875169759202
 10
0.9337313675003113
 20
-3.663445312079148
 10
0.8791102844832545
 20
-3.568918047427309
 10
0.8511599645499169
 20
-3.462234992397384
 10
0.8272282528473498
 20
-3.360910081810415
 10
0.8187521633224908
 20
-3.325182454498202
 10
0.8121544481500298
 20
-3.288935007202554
 10
0.8055757517831176
 20
-3.25278752528834
 10
0.7965988607601906
 20
-3.20378449532609
 10
0.7874020459037309
 20
-3.153501908481871
 10
0.7735468443917171
 20
-3.103639176239666
 10
0.8418032050872676
 20
-3.121772896425556
 10
0.9110992057231139
 20
-3.13460845139726
 10
0.9784758710845582
 20
-3.147124117148577
 97
        0
 97
        0
 92
        1
 93
        1
 72
     4
 94
        3
 73
     0
 74
     1
 95
       62
 96
       58
 40
0.0
 40
0.0
 40
0.0
 40
0.0
 40
1.0
 40
1.0
 40
1.0
 40
2.0
 40
2.0
 40
2.0
 40
3.0
 40
3.0
 40
3.0
 40
4.0
 40
4.0
 40
4.0
 40
5.0
 40
5.0
 40
5.0
 40
6.0
 40
6.0
 40
6.0
 40
7.0
 40
7.0
 40
7.0
 40
8.0
 40
8.0
 40
8.0
 40
9.0
 40
9.0
 40
9.0
 40
10.0
 40
10.0
 40
10.0
 40
11.0
 40
11.0
 40
11.0
 40
12.0
 40
12.0
 40
12.0
 40
13.0
 40
13.0
 40
13.0
 40
14.0
 40
14.0
 40
14.0
 40
15.0
 40
15.0
 40
15.0
 40
16.0
 40
16.0
 40
16.0
 40
17.0
 40
17.0
 40
17.0
 40
18.0
 40
18.0
 40
18.0
 40
19.0
 40
19.0
 40
19.0
 40
19.0
 10
2.015537709442065
 20
-4.581807277923695
 10
1.975430594600564
 20
-4.574849687378181
 10
1.935324484596094
 20
-4.567952076061639
 10
1.894818513076125
 20
-4.563953460805743
 10
1.775799732988073
 20
-4.55255740732601
 10
1.661679256464873
 20
-4.572890365902784
 10
1.551157533581153
 20
-4.59296341448794
 10
1.551157533581153
 20
-4.59296341448794
 10
1.537242352841809
 20
-4.595522528251674
 10
1.537242352841809
 20
-4.595522528251674
 10
1.350646976634557
 20
-4.629030924097062
 10
1.134161952143801
 20
-4.65974028926304
 10
0.9265538532971125
 20
-4.599861025804481
 10
0.7285833892997794
 20
-4.542680827643734
 10
0.5536230108676692
 20
-4.42442178144774
 10
0.4064949304293274
 20
-4.248322765573688
 10
0.3482941226593286
 20
-4.178906804729573
 10
0.2861556431508916
 20
-4.105992055536464
 10
0.2167196909846199
 20
-4.037595741582688
 10
0.3431958883367214
 20
-4.019142132176208
 10
0.4691322726428981
 20
-3.994130793749921
 10
0.5914308860191745
 20
-3.969699254535827
 10
0.7076096804860551
 20
-3.946647237584936
 10
0.8277280797417208
 20
-3.922655546048973
 10
0.9463669913900503
 20
-3.904881701236124
 10
1.169389751659196
 20
-3.871453277696029
 10
1.402568994422002
 20
-3.89442532234164
 10
1.659160128917228
 20
-3.975397281275693
 10
1.675034631082515
 20
-3.980435536498248
 10
1.684652297008445
 20
-3.984434151754158
 10
1.689909479459048
 20
-3.990891915392556
 10
1.780178216582777
 20
-4.102513260263802
 10
1.889280431086478
 20
-4.193961591168305
 10
1.994783891950684
 20
-4.282430953707236
 10
2.042627322280055
 20
-4.32259704395368
 10
2.090490745685189
 20
-4.362663168818876
 10
2.136695751698704
 20
-4.404688615159304
 10
2.172502342513881
 20
-4.437197357190661
 10
2.205211014481632
 20
-4.470365870739152
 10
2.234300939734137
 20
-4.503974231965761
 10
2.259072360619257
 20
-4.531704628766002
 10
2.28296408617027
 20
-4.561994139330156
 10
2.305256365659299
 20
-4.593723151386661
 10
2.280804833986584
 20
-4.597901704329084
 10
2.256254347852973
 20
-4.601120589610117
 10
2.231042068382824
 20
-4.602140236500468
 10
2.217886624522937
 20
-4.602999938780423
 10
2.20483114604191
 20
-4.602660056483702
 10
2.191635716030469
 20
-4.60190031958517
 10
2.191635716030469
 20
-4.60190031958517
 10
2.189016623103953
 20
-4.601800354203747
 10
2.189016623103953
 20
-4.601800354203747
 10
2.188616761588466
 20
-4.601800354203747
 10
2.18819690699719
 20
-4.601800354203747
 10
2.187777052405914
 20
-4.601800354203747
 10
2.130816779523191
 20
-4.601800354203747
 10
2.07479618120188
 20
-4.592103712207796
 10
2.015537709442065
 20
-4.581807277923695
 97
        0
 97
        0
 92
        1
 93
        1
 72
     4
 94
        3
 73
     0
 74
     1
 95
       53
 96
       49
 40
0.0
 40
0.0
 40
0.0
 40
0.0
 40
1.0
 40
1.0
 40
1.0
 40
2.0
 40
2.0
 40
2.0
 40
3.0
 40
3.0
 40
3.0
 40
4.0
 40
4.0
 40
4.0
 40
5.0
 40
5.0
 40
5.0
 40
6.0
 40
6.0
 40
6.0
 40
7.0
 40
7.0
 40
7.0
 40
8.0
 40
8.0
 40
8.0
 40
9.0
 40
9.0
 40
9.0
 40
10.0
 40
10.0
 40
10.0
 40
11.0
 40
11.0
 40
11.0
 40
12.0
 40
12.0
 40
12.0
 40
13.0
 40
13.0
 40
13.0
 40
14.0
 40
14.0
 40
14.0
 40
15.0
 40
15.0
 40
15.0
 40
16.0
 40
16.0
 40
16.0
 40
16.0
 10
2.328988146604122
 20
-6.94161006432604
 10
2.31895162256511
 20
-6.945608679581912
 10
2.309214994662726
 20
-6.950127114821245
 10
2.299478366760354
 20
-6.954705529289336
 10
2.299478366760354
 20
-6.954705529289336
 10
2.28866211276612
 20
-6.95972379143561
 10
2.28866211276612
 20
-6.95972379143561
 10
2.275906530421733
 20
-6.96568172816708
 10
2.263410858062406
 20
-6.971379754906947
 10
2.250735248021114
 20
-6.976238072442988
 10
1.968154118658504
 20
-7.081641570590945
 10
1.78167769726589
 20
-7.296367209838031
 10
1.680653681752372
 20
-7.632750718248694
 10
1.638268360038902
 20
-7.77380187140395
 10
1.581906884122974
 20
-7.936805422314667
 10
1.483221062098007
 20
-8.085613889066432
 10
1.434178047222139
 20
-7.908135350929014
 10
1.402489022118907
 20
-7.74343238853468
 10
1.405268059651613
 20
-7.528286894685784
 10
1.404149436800278
 20
-7.343171001409397
 10
1.438356600059099
 20
-7.067946313339284
 10
1.607438041887526
 20
-6.808036321699496
 10
1.761884552248729
 20
-6.570678520103532
 10
1.942342054193091
 20
-6.423429513301471
 10
2.159446864032867
 20
-6.357752257721813
 10
2.170463048784844
 20
-6.35425346937283
 10
2.181519219688362
 20
-6.351374466388531
 10
2.192495418288798
 20
-6.348555442632964
 10
2.235420551977528
 20
-6.33741929914504
 10
2.279446316337738
 20
-6.329761950929777
 10
2.323290120008273
 20
-6.32576333567388
 10
2.348001561666062
 20
-6.323464131901574
 10
2.372732996399627
 20
-6.322364512706119
 10
2.39748442420897
 20
-6.322364512706119
 10
2.552151876796769
 20
-6.322364512706119
 10
2.708897594831746
 20
-6.36642925282725
 10
2.874159336834433
 20
-6.455998234561624
 10
2.876958367442916
 20
-6.457537701435184
 10
2.879097626550838
 20
-6.458817258316988
 10
2.880657086461282
 20
-6.459916877512417
 10
2.878397868898711
 20
-6.465714869633707
 10
2.87457919142571
 20
-6.473372217848969
 10
2.873099703818361
 20
-6.47643115851982
 10
2.782311146724485
 20
-6.658907965727141
 10
2.637561278114112
 20
-6.794001182150926
 10
2.417737409968961
 20
-6.901543939461008
 10
2.388887401625753
 20
-6.915499106704273
 10
2.359197684100018
 20
-6.928854481659426
 10
2.328988146604122
 20
-6.94161006432604
 97
        0
 97
        0
 92
        1
 93
        1
 72
     4
 94
        3
 73
     0
 74
     1
 95
       59
 96
       55
 40
0.0
 40
0.0
 40
0.0
 40
0.0
 40
1.0
 40
1.0
 40
1.0
 40
2.0
 40
2.0
 40
2.0
 40
3.0
 40
3.0
 40
3.0
 40
4.0
 40
4.0
 40
4.0
 40
5.0
 40
5.0
 40
5.0
 40
6.0
 40
6.0
 40
6.0
 40
7.0
 40
7.0
 40
7.0
 40
8.0
 40
8.0
 40
8.0
 40
9.0
 40
9.0
 40
9.0
 40
10.0
 40
10.0
 40
10.0
 40
11.0
 40
11.0
 40
11.0
 40
12.0
 40
12.0
 40
12.0
 40
13.0
 40
13.0
 40
13.0
 40
14.0
 40
14.0
 40
14.0
 40
15.0
 40
15.0
 40
15.0
 40
16.0
 40
16.0
 40
16.0
 40
17.0
 40
17.0
 40
17.0
 40
18.0
 40
18.0
 40
18.0
 40
18.0
 10
3.127552612134537
 20
-8.495072091280386
 10
2.859344467685219
 20
-8.054384703917195
 10
2.655135191720269
 20
-7.582128249107755
 10
2.520241909466929
 20
-7.090738420298369
 10
2.582980181248609
 20
-7.059529228225301
 10
2.638281028842016
 20
-7.028819863059324
 10
2.688304726263355
 20
-6.997250795613202
 10
2.830334514735821
 20
-6.908101668480817
 10
2.946634236518485
 20
-6.782525156366293
 10
3.042081180267915
 20
-6.614923197911139
 10
3.123333040217163
 20
-6.782865038663001
 10
3.211523532510467
 20
-6.949447350227829
 10
3.304850175177598
 20
-7.111171344256566
 10
3.547086281266438
 20
-7.531185890746403
 10
3.833826974030229
 20
-7.932306980151654
 10
4.157974711568878
 20
-8.304837970476505
 10
4.127905125603408
 20
-8.310635962597644
 10
4.090977914647143
 20
-8.320672486890114
 10
4.0455936326381
 20
-8.336926857905887
 10
3.98245655386644
 20
-8.35953902717847
 10
3.921756521288292
 20
-8.387109479368494
 10
3.863056850813147
 20
-8.41374025697347
 10
3.750675771882369
 20
-8.464702608411118
 10
3.644592511820683
 20
-8.512765963788297
 10
3.524415176292071
 20
-8.528420542515555
 10
3.489846105322853
 20
-8.532938977754686
 10
3.417951004836279
 20
-8.542295737453742
 10
3.398677679789254
 20
-8.618509344232987
 10
3.378724590165891
 20
-8.6977219124543
 10
3.439343595915425
 20
-8.74230647255864
 10
3.468393535016376
 20
-8.763659078025764
 10
3.715368000063866
 20
-8.945616065249851
 10
4.011385479987224
 20
-9.118336251232499
 10
4.337172649739424
 20
-9.017851049849368
 10
4.417905755244381
 20
-8.992839711423054
 10
4.483382012881356
 20
-8.959831142484946
 10
4.53170527702932
 20
-8.919585079933237
 10
4.56961214869855
 20
-8.888115977868539
 10
4.599921651573317
 20
-8.843191535467465
 10
4.619454886605404
 20
-8.79104959252926
 10
4.71882047320672
 20
-8.886916393291862
 10
4.82364416949459
 20
-8.982543277138953
 10
4.936605047622846
 20
-9.080389392453247
 10
4.866689261637981
 20
-9.073571753441632
 10
4.789855871434989
 20
-9.069153283583722
 10
4.700866691160854
 20
-9.066694135201386
 10
4.529965879436897
 20
-9.06175584536024
 10
4.353646944177955
 20
-9.085067772302585
 10
4.191523092719182
 20
-9.133970836883412
 10
4.032239313803731
 20
-9.182054185336911
 10
3.896705197342321
 20
-9.25988723129487
 10
3.762451693513791
 20
-9.34393812397588
 10
3.52569369018728
 20
-9.083948160031014
 10
3.312207627062763
 20
-8.798447030752918
 10
3.127552612134537
 20
-8.495072091280386
 97
        0
 97
        0
 92
        1
 93
        1
 72
     4
 94
        3
 73
     0
 74
     1
 95
       44
 96
       40
 40
0.0
 40
0.0
 40
0.0
 40
0.0
 40
1.0
 40
1.0
 40
1.0
 40
2.0
 40
2.0
 40
2.0
 40
3.0
 40
3.0
 40
3.0
 40
4.0
 40
4.0
 40
4.0
 40
5.0
 40
5.0
 40
5.0
 40
6.0
 40
6.0
 40
6.0
 40
7.0
 40
7.0
 40
7.0
 40
8.0
 40
8.0
 40
8.0
 40
9.0
 40
9.0
 40
9.0
 40
10.0
 40
10.0
 40
10.0
 40
11.0
 40
11.0
 40
11.0
 40
12.0
 40
12.0
 40
12.0
 40
13.0
 40
13.0
 40
13.0
 40
13.0
 10
3.485447628652373
 20
-9.715969287393666
 10
3.580574683189411
 20
-9.685519832219294
 10
3.664885483732216
 20
-9.650212059508904
 10
3.743018423860576
 20
-9.608186613168273
 10
3.786023529852413
 20
-9.585214568522689
 10
3.828428843570994
 20
-9.55892367321442
 10
3.868934815090976
 20
-9.530333574134046
 10
3.868934815090976
 20
-9.530333574134046
 10
3.886248818712046
 20
-9.517997846069445
 10
3.886248818712046
 20
-9.517997846069445
 10
4.081921051321109
 20
-9.37474745452328
 10
4.320458438391597
 20
-9.296894415489026
 10
4.615536243753531
 20
-9.280220189871619
 10
4.757707005588927
 20
-9.272142987054343
 10
4.903316576457617
 20
-9.281319809066897
 10
5.049725870357292
 20
-9.307790642061667
 10
4.917431687954704
 20
-9.327943662951913
 10
4.780299181214584
 20
-9.371768486157533
 10
4.629111542204694
 20
-9.441604301603496
 10
4.629111542204694
 20
-9.441604301603496
 10
4.528006558010954
 20
-9.488907920081955
 10
4.528006558010954
 20
-9.488907920081955
 10
4.378898198881668
 20
-9.559003645519523
 10
4.224751584657093
 20
-9.631418567805692
 10
4.066306459140908
 20
-9.68306068383678
 10
4.019162786463665
 20
-9.698355387190986
 10
3.973438622166441
 20
-9.711290907544127
 10
3.927114665595973
 20
-9.722267106421844
 10
3.927114665595973
 20
-9.722267106421844
 10
3.911979907234354
 20
-9.72592583938121
 10
3.911979907234354
 20
-9.72592583938121
 10
3.708390416618423
 20
-9.773649312461504
 10
3.550206244693413
 20
-9.791343184969264
 10
3.398717665940808
 20
-9.78318600984706
 10
3.3534533423864
 20
-9.781486598363294
 10
3.305490991026419
 20
-9.77968722149808
 10
3.25648692487808
 20
-9.776288398530342
 10
3.332660543580497
 20
-9.759014380624597
 10
3.40987380222321
 20
-9.740060944311027
 10
3.485447628652373
 20
-9.715969287393666
 97
        0
 97
        0
 92
        1
 93
        1
 72
     4
 94
        3
 73
     0
 74
     1
 95
       44
 96
       40
 40
0.0
 40
0.0
 40
0.0
 40
0.0
 40
1.0
 40
1.0
 40
1.0
 40
2.0
 40
2.0
 40
2.0
 40
3.0
 40
3.0
 40
3.0
 40
4.0
 40
4.0
 40
4.0
 40
5.0
 40
5.0
 40
5.0
 40
6.0
 40
6.0
 40
6.0
 40
7.0
 40
7.0
 40
7.0
 40
8.0
 40
8.0
 40
8.0
 40
9.0
 40
9.0
 40
9.0
 40
10.0
 40
10.0
 40
10.0
 40
11.0
 40
11.0
 40
11.0
 40
12.0
 40
12.0
 40
12.0
 40
13.0
 40
13.0
 40
13.0
 40
13.0
 10
4.20727763642982
 20
-9.995792383008393
 10
4.18464547465261
 20
-10.00608881729249
 10
4.161973326723859
 20
-10.0173049330855
 10
4.139721033386384
 20
-10.0299005711419
 10
4.053111029129468
 20
-10.07856371880745
 10
3.95030663349486
 20
-10.09863676739259
 10
3.826049667553788
 20
-10.08995977228698
 10
3.681639681231597
 20
-10.08010318568103
 10
3.532111467511021
 20
-10.04767441595494
 10
3.371966930553981
 20
-9.991353920074136
 10
3.371966930553981
 20
-9.991353920074136
 10
3.401057895644739
 20
-9.991193975463956
 10
3.401057895644739
 20
-9.991193975463956
 10
3.611923826004474
 20
-10.00284993893512
 10
3.8233306092484
 20
-9.977918572814106
 10
4.046693251805714
 20
-9.9144605487013
 10
4.097735574259066
 20
-9.900325443771482
 10
4.15099818690664
 20
-9.883491273543692
 10
4.205018418867249
 20
-9.864337906467451
 10
4.272215146546728
 20
-9.840526152618015
 10
4.340371541863407
 20
-9.813475520411227
 10
4.413486219972267
 20
-9.7817465083549
 10
4.471687130437582
 20
-9.75629532225048
 10
4.52888625334506
 20
-9.728824835441678
 10
4.586106436212857
 20
-9.701334355556734
 10
4.664079431735015
 20
-9.66390731676054
 10
4.744771485562561
 20
-9.625120748777489
 10
4.826103317814904
 20
-9.59287191673795
 10
4.971452978698519
 20
-9.53501195398356
 10
5.135736082340966
 20
-9.505582145699538
 10
5.327409699795061
 20
-9.509240878658728
 10
5.182359935048061
 20
-9.736822065953675
 10
4.977112098795525
 20
-9.863318259577126
 10
4.717121061765852
 20
-9.885270657332562
 10
4.610697919415998
 20
-9.894547444726514
 10
4.487240676505912
 20
-9.907043117401498
 10
4.36892271835845
 20
-9.938532212542516
 10
4.309922087458213
 20
-9.954186791269573
 10
4.257040402033567
 20
-9.972900310667683
 10
4.20727763642982
 20
-9.995792383008393
 97
        0
 97
        0
 92
        1
 93
        1
 72
     4
 94
        3
 73
     0
 74
     1
 95
       38
 96
       34
 40
0.0
 40
0.0
 40
0.0
 40
0.0
 40
1.0
 40
1.0
 40
1.0
 40
2.0
 40
2.0
 40
2.0
 40
3.0
 40
3.0
 40
3.0
 40
4.0
 40
4.0
 40
4.0
 40
5.0
 40
5.0
 40
5.0
 40
6.0
 40
6.0
 40
6.0
 40
7.0
 40
7.0
 40
7.0
 40
8.0
 40
8.0
 40
8.0
 40
9.0
 40
9.0
 40
9.0
 40
10.0
 40
10.0
 40
10.0
 40
11.0
 40
11.0
 40
11.0
 40
11.0
 10
6.520996323557331
 20
-10.97755239373679
 10
5.832114904656944
 20
-10.8088508160862
 10
5.195315448150205
 20
-10.5177116392972
 10
4.626472456202401
 20
-10.11165226005081
 10
4.647405206538742
 20
-10.10945302165995
 10
4.669218724083836
 20
-10.10757367248966
 10
4.692149710122989
 20
-10.10595423331097
 10
5.059462498259677
 20
-10.08068298489305
 10
5.341484825140595
 20
-9.90816272967307
 10
5.530219460455769
 20
-9.59347170902629
 10
5.535797528596971
 20
-9.584274893937415
 10
5.541716572942075
 20
-9.574318341950049
 10
5.547493477925286
 20
-9.56378199075046
 10
6.115616719145186
 20
-9.963803460960257
 10
6.732023238361509
 20
-10.25398297008804
 10
7.380498651120812
 20
-10.42668316299452
 10
7.522149592986048
 20
-10.46437011178215
 10
7.706385786251884
 20
-10.50043762139128
 10
7.854414519289346
 20
-10.52944757507349
 10
7.854414519289346
 20
-10.52944757507349
 10
7.908515782336255
 20
-10.54008389165448
 10
7.908515782336255
 20
-10.54008389165448
 10
8.35851993187796
 20
-10.62857324726974
 10
8.76849794371833
 20
-10.70360726254845
 10
9.241214227340352
 20
-10.69790923580856
 10
9.531534875374897
 20
-10.69569000434154
 10
9.823252649299622
 20
-10.66879931674495
 10
10.10829393062254
 20
-10.61801690299383
 10
10.13862342657308
 20
-10.61265875855088
 10
10.16899290867516
 20
-10.60696073181099
 10
10.19936239077727
 20
-10.60092282277441
 10
9.052779488161805
 20
-11.1493928843633
 10
7.75980728472243
 20
-11.28372636388836
 10
6.520996323557331
 20
-10.97755239373679
 97
        0
 97
        0
 75
     2
 76
     1
 98
        0
  0
SPLINE
  5
59
330
1F
100
AcDbEntity
  8
Layer 1
370
     0
100
AcDbSpline
210
0.0
220
0.0
230
1.0
 70
    11
 71
     3
 72
    53
 73
    49
 74
     0
 42
0.0000000001
 43
0.0000000001
 12
1.0
 22
0.0
 32
0.0
 13
1.0
 23
0.0
 33
0.0
 40
0.0
 40
0.0
 40
0.0
 40
0.0
 40
1.0
 40
1.0
 40
1.0
 40
2.0
 40
2.0
 40
2.0
 40
3.0
 40
3.0
 40
3.0
 40
4.0
 40
4.0
 40
4.0
 40
5.0
 40
5.0
 40
5.0
 40
6.0
 40
6.0
 40
6.0
 40
7.0
 40
7.0
 40
7.0
 40
8.0
 40
8.0
 40
8.0
 40
9.0
 40
9.0
 40
9.0
 40
10.0
 40
10.0
 40
10.0
 40
11.0
 40
11.0
 40
11.0
 40
12.0
 40
12.0
 40
12.0
 40
13.0
 40
13.0
 40
13.0
 40
14.0
 40
14.0
 40
14.0
 40
15.0
 40
15.0
 40
15.0
 40
16.0
 40
16.0
 40
16.0
 40
16.0
 10
9.069173810297242
 20
-3.997669568251543
 30
0.0
 10
9.069173810297242
 20
-3.997669568251543
 30
0.0
 10
9.069173810297242
 20
-3.997689561327863
 30
0.0
 10
9.069173810297242
 20
-3.997689561327863
 30
0.0
 10
9.037124909830052
 20
-4.006566487196121
 30
0.0
 10
9.037124909830052
 20
-4.060767716991133
 30
0.0
 10
9.069173810297242
 20
-4.069664635935725
 30
0.0
 10
9.069173810297242
 20
-4.069664635935725
 30
0.0
 10
9.069173810297242
 20
-4.069664635935725
 30
0.0
 10
9.069173810297242
 20
-4.069664635935725
 30
0.0
 10
9.464216994533722
 20
-4.179306666255065
 30
0.0
 10
9.772690160664853
 20
-4.545839733695995
 30
0.0
 10
9.86495820536609
 20
-5.015257171673587
 30
0.0
 10
9.86495820536609
 20
-5.015257171673587
 30
0.0
 10
9.86495820536609
 20
-5.015257171673587
 30
0.0
 10
9.86495820536609
 20
-5.015257171673587
 30
0.0
 10
9.872455608781667
 20
-5.053323988910758
 30
0.0
 10
9.91805981462423
 20
-5.053323988910758
 30
0.0
 10
9.925537224964046
 20
-5.015257171673587
 30
0.0
 10
9.925537224964046
 20
-5.015257171673587
 30
0.0
 10
9.925537224964046
 20
-5.015257171673587
 30
0.0
 10
9.925537224964046
 20
-5.015257171673587
 30
0.0
 10
10.01782526274105
 20
-4.545839733695995
 30
0.0
 10
10.32627843579641
 20
-4.179306666255065
 30
0.0
 10
10.72134161310866
 20
-4.069664635935725
 30
0.0
 10
10.72134161310866
 20
-4.069664635935725
 30
0.0
 10
10.72134161310866
 20
-4.069664635935725
 30
0.0
 10
10.72134161310866
 20
-4.069664635935725
 30
0.0
 10
10.75339051357585
 20
-4.060767716991133
 30
0.0
 10
10.75339051357585
 20
-4.006566487196121
 30
0.0
 10
10.72134161310866
 20
-3.997689561327863
 30
0.0
 10
10.72134161310866
 20
-3.997689561327863
 30
0.0
 10
10.72134161310866
 20
-3.997669568251543
 30
0.0
 10
10.72134161310866
 20
-3.997669568251543
 30
0.0
 10
10.32627843579641
 20
-3.888047531008333
 30
0.0
 10
10.01782526274105
 20
-3.521514463567592
 30
0.0
 10
9.925537224964046
 20
-3.052097025589811
 30
0.0
 10
9.925537224964046
 20
-3.052097025589811
 30
0.0
 10
9.925537224964046
 20
-3.052097025589811
 30
0.0
 10
9.925537224964046
 20
-3.052097025589811
 30
0.0
 10
9.91805981462423
 20
-3.014030208352829
 30
0.0
 10
9.872455608781667
 20
-3.014030208352829
 30
0.0
 10
9.86495820536609
 20
-3.052097025589811
 30
0.0
 10
9.86495820536609
 20
-3.052097025589811
 30
0.0
 10
9.86495820536609
 20
-3.052097025589811
 30
0.0
 10
9.86495820536609
 20
-3.052097025589811
 30
0.0
 10
9.772690160664853
 20
-3.521514463567592
 30
0.0
 10
9.464236987609485
 20
-3.888047531008333
 30
0.0
 10
9.069173810297242
 20
-3.997669568251543
 30
0.0
  0
HATCH
  5
5A
330
1F
100
AcDbEntity
  8
Layer 1
 62
     7
420
 16777215
100
AcDbHatch
 10
0.0
 20
0.0
 30
0.0
210
0.0
220
0.0
230
1.0
  2
SOLID
 70
     1
 71
     0
 91
        1
 92
        1
 93
        1
 72
     4
 94
        3
 73
     0
 74
     1
 95
       53
 96
       49
 40
0.0
 40
0.0
 40
0.0
 40
0.0
 40
1.0
 40
1.0
 40
1.0
 40
2.0
 40
2.0
 40
2.0
 40
3.0
 40
3.0
 40
3.0
 40
4.0
 40
4.0
 40
4.0
 40
5.0
 40
5.0
 40
5.0
 40
6.0
 40
6.0
 40
6.0
 40
7.0
 40
7.0
 40
7.0
 40
8.0
 40
8.0
 40
8.0
 40
9.0
 40
9.0
 40
9.0
 40
10.0
 40
10.0
 40
10.0
 40
11.0
 40
11.0
 40
11.0
 40
12.0
 40
12.0
 40
12.0
 40
13.0
 40
13.0
 40
13.0
 40
14.0
 40
14.0
 40
14.0
 40
15.0
 40
15.0
 40
15.0
 40
16.0
 40
16.0
 40
16.0
 40
16.0
 10
9.069173810297242
 20
-3.997669568251543
 10
9.069173810297242
 20
-3.997669568251543
 10
9.069173810297242
 20
-3.997689561327863
 10
9.069173810297242
 20
-3.997689561327863
 10
9.037124909830052
 20
-4.006566487196121
 10
9.037124909830052
 20
-4.060767716991133
 10
9.069173810297242
 20
-4.069664635935725
 10
9.069173810297242
 20
-4.069664635935725
 10
9.069173810297242
 20
-4.069664635935725
 10
9.069173810297242
 20
-4.069664635935725
 10
9.464216994533722
 20
-4.179306666255065
 10
9.772690160664853
 20
-4.545839733695995
 10
9.86495820536609
 20
-5.015257171673587
 10
9.86495820536609
 20
-5.015257171673587
 10
9.86495820536609
 20
-5.015257171673587
 10
9.86495820536609
 20
-5.015257171673587
 10
9.872455608781667
 20
-5.053323988910758
 10
9.91805981462423
 20
-5.053323988910758
 10
9.925537224964046
 20
-5.015257171673587
 10
9.925537224964046
 20
-5.015257171673587
 10
9.925537224964046
 20
-5.015257171673587
 10
9.925537224964046
 20
-5.015257171673587
 10
10.01782526274105
 20
-4.545839733695995
 10
10.32627843579641
 20
-4.179306666255065
 10
10.72134161310866
 20
-4.069664635935725
 10
10.72134161310866
 20
-4.069664635935725
 10
10.72134161310866
 20
-4.069664635935725
 10
10.72134161310866
 20
-4.069664635935725
 10
10.75339051357585
 20
-4.060767716991133
 10
10.75339051357585
 20
-4.006566487196121
 10
10.72134161310866
 20
-3.997689561327863
 10
10.72134161310866
 20
-3.997689561327863
 10
10.72134161310866
 20
-3.997669568251543
 10
10.72134161310866
 20
-3.997669568251543
 10
10.32627843579641
 20
-3.888047531008333
 10
10.01782526274105
 20
-3.521514463567592
 10
9.925537224964046
 20
-3.052097025589811
 10
9.925537224964046
 20
-3.052097025589811
 10
9.925537224964046
 20
-3.052097025589811
 10
9.925537224964046
 20
-3.052097025589811
 10
9.91805981462423
 20
-3.014030208352829
 10
9.872455608781667
 20
-3.014030208352829
 10
9.86495820536609
 20
-3.052097025589811
 10
9.86495820536609
 20
-3.052097025589811
 10
9.86495820536609
 20
-3.052097025589811
 10
9.86495820536609
 20
-3.052097025589811
 10
9.772690160664853
 20
-3.521514463567592
 10
9.464236987609485
 20
-3.888047531008333
 10
9.069173810297242
 20
-3.997669568251543
 97
        0
 97
        0
 75
     2
 76
     1
 98
        0
  0
SPLINE
  5
5B
330
1F
100
AcDbEntity
  8
Layer 1
370
     0
100
AcDbSpline
210
0.0
220
0.0
230
1.0
 70
    11
 71
     3
 72
    53
 73
    49
 74
     0
 42
0.0000000001
 43
0.0000000001
 12
1.0
 22
0.0
 32
0.0
 13
1.0
 23
0.0
 33
0.0
 40
0.0
 40
0.0
 40
0.0
 40
0.0
 40
1.0
 40
1.0
 40
1.0
 40
2.0
 40
2.0
 40
2.0
 40
3.0
 40
3.0
 40
3.0
 40
4.0
 40
4.0
 40
4.0
 40
5.0
 40
5.0
 40
5.0
 40
6.0
 40
6.0
 40
6.0
 40
7.0
 40
7.0
 40
7.0
 40
8.0
 40
8.0
 40
8.0
 40
9.0
 40
9.0
 40
9.0
 40
10.0
 40
10.0
 40
10.0
 40
11.0
 40
11.0
 40
11.0
 40
12.0
 40
12.0
 40
12.0
 40
13.0
 40
13.0
 40
13.0
 40
14.0
 40
14.0
 40
14.0
 40
15.0
 40
15.0
 40
15.0
 40
16.0
 40
16.0
 40
16.0
 40
16.0
 10
10.50101791806914
 20
-5.783930975410095
 30
0.0
 10
10.50101791806914
 20
-5.783930975410095
 30
0.0
 10
10.50101791806914
 20
-5.783930975410095
 30
0.0
 10
10.50101791806914
 20
-5.783930975410095
 30
0.0
 10
10.47660759112937
 20
-5.790708628268892
 30
0.0
 10
10.47660759112937
 20
-5.831994330787097
 30
0.0
 10
10.50101791806914
 20
-5.838771983646084
 30
0.0
 10
10.50101791806914
 20
-5.838771983646084
 30
0.0
 10
10.50101791806914
 20
-5.838771983646084
 30
0.0
 10
10.50101791806914
 20
-5.838771983646084
 30
0.0
 10
10.80193370155735
 20
-5.922283063267551
 30
0.0
 10
11.03689232806411
 20
-6.201466380441111
 30
0.0
 10
11.10718921700037
 20
-6.559022556632347
 30
0.0
 10
11.10718921700037
 20
-6.559022556632347
 30
0.0
 10
11.10718921700037
 20
-6.559022556632347
 30
0.0
 10
11.10718921700037
 20
-6.559022556632347
 30
0.0
 10
11.11288600908455
 20
-6.588032510314557
 30
0.0
 10
11.14763397478136
 20
-6.588032510314557
 30
0.0
 10
11.15333200137719
 20
-6.559022556632347
 30
0.0
 10
11.15333200137719
 20
-6.559022556632347
 30
0.0
 10
11.15333200137719
 20
-6.559022556632347
 30
0.0
 10
11.15333200137719
 20
-6.559022556632347
 30
0.0
 10
11.223607662726
 20
-6.201466380441111
 30
0.0
 10
11.4585662892328
 20
-5.922283063267551
 30
0.0
 10
11.75948207272101
 20
-5.838771983646084
 30
0.0
 10
11.75948207272101
 20
-5.838771983646084
 30
0.0
 10
11.75948207272101
 20
-5.838771983646084
 30
0.0
 10
11.75948207272101
 20
-5.838771983646084
 30
0.0
 10
11.78389361824217
 20
-5.831994330787097
 30
0.0
 10
11.78389361824217
 20
-5.790708628268892
 30
0.0
 10
11.75948207272101
 20
-5.783930975410095
 30
0.0
 10
11.75948207272101
 20
-5.783930975410095
 30
0.0
 10
11.75948207272101
 20
-5.783930975410095
 30
0.0
 10
11.75948207272101
 20
-5.783930975410095
 30
0.0
 10
11.4585662892328
 20
-5.700419895788627
 30
0.0
 10
11.223607662726
 20
-5.421236578614879
 30
0.0
 10
11.15333200137719
 20
-5.063680402423819
 30
0.0
 10
11.15333200137719
 20
-5.063680402423819
 30
0.0
 10
11.15333200137719
 20
-5.063680402423819
 30
0.0
 10
11.15333200137719
 20
-5.063680402423819
 30
0.0
 10
11.14763397478136
 20
-5.034670448741445
 30
0.0
 10
11.11288600908455
 20
-5.034670448741445
 30
0.0
 10
11.10718921700037
 20
-5.063680402423819
 30
0.0
 10
11.10718921700037
 20
-5.063680402423819
 30
0.0
 10
11.10718921700037
 20
-5.063680402423819
 30
0.0
 10
11.10718921700037
 20
-5.063680402423819
 30
0.0
 10
11.03689232806411
 20
-5.421236578614879
 30
0.0
 10
10.80193370155735
 20
-5.700419895788627
 30
0.0
 10
10.50101791806914
 20
-5.783930975410095
 30
0.0
  0
HATCH
  5
5C
330
1F
100
AcDbEntity
  8
Layer 1
 62
     7
420
 16777215
100
AcDbHatch
 10
0.0
 20
0.0
 30
0.0
210
0.0
220
0.0
230
1.0
  2
SOLID
 70
     1
 71
     0
 91
        1
 92
        1
 93
        1
 72
     4
 94
        3
 73
     0
 74
     1
 95
       53
 96
       49
 40
0.0
 40
0.0
 40
0.0
 40
0.0
 40
1.0
 40
1.0
 40
1.0
 40
2.0
 40
2.0
 40
2.0
 40
3.0
 40
3.0
 40
3.0
 40
4.0
 40
4.0
 40
4.0
 40
5.0
 40
5.0
 40
5.0
 40
6.0
 40
6.0
 40
6.0
 40
7.0
 40
7.0
 40
7.0
 40
8.0
 40
8.0
 40
8.0
 40
9.0
 40
9.0
 40
9.0
 40
10.0
 40
10.0
 40
10.0
 40
11.0
 40
11.0
 40
11.0
 40
12.0
 40
12.0
 40
12.0
 40
13.0
 40
13.0
 40
13.0
 40
14.0
 40
14.0
 40
14.0
 40
15.0
 40
15.0
 40
15.0
 40
16.0
 40
16.0
 40
16.0
 40
16.0
 10
10.50101791806914
 20
-5.783930975410095
 10
10.50101791806914
 20
-5.783930975410095
 10
10.50101791806914
 20
-5.783930975410095
 10
10.50101791806914
 20
-5.783930975410095
 10
10.47660759112937
 20
-5.790708628268892
 10
10.47660759112937
 20
-5.831994330787097
 10
10.50101791806914
 20
-5.838771983646084
 10
10.50101791806914
 20
-5.838771983646084
 10
10.50101791806914
 20
-5.838771983646084
 10
10.50101791806914
 20
-5.838771983646084
 10
10.80193370155735
 20
-5.922283063267551
 10
11.03689232806411
 20
-6.201466380441111
 10
11.10718921700037
 20
-6.559022556632347
 10
11.10718921700037
 20
-6.559022556632347
 10
11.10718921700037
 20
-6.559022556632347
 10
11.10718921700037
 20
-6.559022556632347
 10
11.11288600908455
 20
-6.588032510314557
 10
11.14763397478136
 20
-6.588032510314557
 10
11.15333200137719
 20
-6.559022556632347
 10
11.15333200137719
 20
-6.559022556632347
 10
11.15333200137719
 20
-6.559022556632347
 10
11.15333200137719
 20
-6.559022556632347
 10
11.223607662726
 20
-6.201466380441111
 10
11.4585662892328
 20
-5.922283063267551
 10
11.75948207272101
 20
-5.838771983646084
 10
11.75948207272101
 20
-5.838771983646084
 10
11.75948207272101
 20
-5.838771983646084
 10
11.75948207272101
 20
-5.838771983646084
 10
11.78389361824217
 20
-5.831994330787097
 10
11.78389361824217
 20
-5.790708628268892
 10
11.75948207272101
 20
-5.783930975410095
 10
11.75948207272101
 20
-5.783930975410095
 10
11.75948207272101
 20
-5.783930975410095
 10
11.75948207272101
 20
-5.783930975410095
 10
11.4585662892328
 20
-5.700419895788627
 10
11.223607662726
 20
-5.421236578614879
 10
11.15333200137719
 20
-5.063680402423819
 10
11.15333200137719
 20
-5.063680402423819
 10
11.15333200137719
 20
-5.063680402423819
 10
11.15333200137719
 20
-5.063680402423819
 10
11.14763397478136
 20
-5.034670448741445
 10
11.11288600908455
 20
-5.034670448741445
 10
11.10718921700037
 20
-5.063680402423819
 10
11.10718921700037
 20
-5.063680402423819
 10
11.10718921700037
 20
-5.063680402423819
 10
11.10718921700037
 20
-5.063680402423819
 10
11.03689232806411
 20
-5.421236578614879
 10
10.80193370155735
 20
-5.700419895788627
 10
10.50101791806914
 20
-5.783930975410095
 97
        0
 97
        0
 75
     2
 76
     1
 98
        0
  0
ENDSEC
  0
SECTION
  2
OBJECTS
  0
DICTIONARY
  5
C
330
0
100
AcDbDictionary
281
     1
  3
ACAD_GROUP
350
D
  3
ACAD_LAYOUT
350
1A
  3
ACAD_MATERIAL
350
3B
  3
ACAD_MLEADERSTYLE
350
5E
  3
ACAD_MLINESTYLE
350
17
  3
ACAD_PLOTSETTINGS
350
19
  3
ACAD_PLOTSTYLENAME
350
E
  3
ACAD_TABLESTYLE
350
5D
  3
ACAD_VISUALSTYLE
350
2A
  0
SUN
  5
3F
330
29
100
AcDbSun
 90
        1
290
     0
 63
     7
421
 16777215
 40
1.0
291
     1
 91
  2455826
 92
 54000000
292
     0
 70
     2
 71
   256
280
     1
  0
DICTIONARY
  5
D
102
{ACAD_REACTORS
330
C
102
}
330
C
100
AcDbDictionary
281
     1
  0
DICTIONARY
  5
1A
102
{ACAD_REACTORS
330
C
102
}
330
C
100
AcDbDictionary
281
     1
  3
Layout1
350
1E
  3
Layout2
350
26
  3
Model
350
22
  0
DICTIONARY
  5
3B
102
{ACAD_REACTORS
330
C
102
}
330
C
100
AcDbDictionary
281
     1
  3
ByBlock
350
3D
  3
ByLayer
350
3C
  3
Global
350
3E
  0
DICTIONARY
  5
5E
102
{ACAD_REACTORS
330
C
102
}
330
C
100
AcDbDictionary
281
     1
  0
DICTIONARY
  5
17
102
{ACAD_REACTORS
330
C
102
}
330
C
100
AcDbDictionary
281
     1
  3
Standard
350
18
  0
DICTIONARY
  5
19
102
{ACAD_REACTORS
330
C
102
}
330
C
100
AcDbDictionary
281
     1
  0
ACDBDICTIONARYWDFLT
  5
E
102
{ACAD_REACTORS
330
C
102
}
330
C
100
AcDbDictionary
281
     1
  3
Normal
350
F
100
AcDbDictionaryWithDefault
340
F
  0
DICTIONARY
  5
5D
102
{ACAD_REACTORS
330
C
102
}
330
C
100
AcDbDictionary
281
     1
  0
DICTIONARY
  5
2A
102
{ACAD_REACTORS
330
C
102
}
330
C
100
AcDbDictionary
281
     1
  3
2dWireframe
350
2F
  3
3D Hidden
350
31
  3
3dWireframe
350
30
  3
Basic
350
32
  3
Brighten
350
36
  3
ColorChange
350
3A
  3
Conceptual
350
34
  3
Dim
350
35
  3
Facepattern
350
39
  3
Flat
350
2B
  3
FlatWithEdges
350
2C
  3
Gouraud
350
2D
  3
GouraudWithEdges
350
2E
  3
Linepattern
350
38
  3
Realistic
350
33
  3
Thicken
350
37
  0
LAYOUT
  5
1E
102
{ACAD_REACTORS
330
1A
102
}
330
1A
100
AcDbPlotSettings
  1

  2
none_device
  4

  6

 40
0.0
 41
0.0
 42
0.0
 43
0.0
 44
0.0
 45
0.0
 46
0.0
 47
0.0
 48
0.0
 49
0.0
140
0.0
141
0.0
142
1.0
143
1.0
 70
   688
 72
     0
 73
     0
 74
     5
  7

 75
    16
 76
     0
 77
     2
 78
   300
147
1.0
148
0.0
149
0.0
100
AcDbLayout
  1
Layout1
 70
     1
 71
     1
 10
0.0
 20
0.0
 11
12.0
 21
9.0
 12
0.0
 22
0.0
 32
0.0
 14
1.000000000000000E+20
 24
1.000000000000000E+20
 34
1.000000000000000E+20
 15
-1.000000000000000E+20
 25
-1.000000000000000E+20
 35
-1.000000000000000E+20
146
0.0
 13
0.0
 23
0.0
 33
0.0
 16
1.0
 26
0.0
 36
0.0
 17
0.0
 27
1.0
 37
0.0
 76
     0
330
1B
  0
LAYOUT
  5
26
102
{ACAD_REACTORS
330
1A
102
}
330
1A
100
AcDbPlotSettings
  1

  2
none_device
  4

  6

 40
0.0
 41
0.0
 42
0.0
 43
0.0
 44
0.0
 45
0.0
 46
0.0
 47
0.0
 48
0.0
 49
0.0
140
0.0
141
0.0
142
1.0
143
1.0
 70
   688
 72
     0
 73
     0
 74
     5
  7

 75
    16
 76
     0
 77
     2
 78
   300
147
1.0
148
0.0
149
0.0
100
AcDbLayout
  1
Layout2
 70
     1
 71
     2
 10
0.0
 20
0.0
 11
0.0
 21
0.0
 12
0.0
 22
0.0
 32
0.0
 14
0.0
 24
0.0
 34
0.0
 15
0.0
 25
0.0
 35
0.0
146
0.0
 13
0.0
 23
0.0
 33
0.0
 16
1.0
 26
0.0
 36
0.0
 17
0.0
 27
1.0
 37
0.0
 76
     0
330
23
  0
LAYOUT
  5
22
102
{ACAD_REACTORS
330
1A
102
}
330
1A
100
AcDbPlotSettings
  1

  2
none_device
  4

  6

 40
0.0
 41
0.0
 42
0.0
 43
0.0
 44
0.0
 45
0.0
 46
0.0
 47
0.0
 48
0.0
 49
0.0
140
0.0
141
0.0
142
1.0
143
1.0
 70
  1712
 72
     0
 73
     0
 74
     0
  7

 75
     0
 76
     0
 77
     2
 78
   300
147
1.0
148
0.0
149
0.0
100
AcDbLayout
  1
Model
 70
     1
 71
     0
 10
0.0
 20
0.0
 11
12.0
 21
9.0
 12
0.0
 22
0.0
 32
0.0
 14
1.000000000000000E+20
 24
1.000000000000000E+20
 34
1.000000000000000E+20
 15
-1.000000000000000E+20
 25
-1.000000000000000E+20
 35
-1.000000000000000E+20
146
0.0
 13
0.0
 23
0.0
 33
0.0
 16
1.0
 26
0.0
 36
0.0
 17
0.0
 27
1.0
 37
0.0
 76
     0
330
1F
331
29
  0
MATERIAL
  5
3D
102
{ACAD_REACTORS
330
3B
102
}
330
3B
100
AcDbMaterial
  1
ByBlock
 72
     1
 94
      127
  0
MATERIAL
  5
3C
102
{ACAD_REACTORS
330
3B
102
}
330
3B
100
AcDbMaterial
  1
ByLayer
 72
     1
 94
      127
  0
MATERIAL
  5
3E
102
{ACAD_REACTORS
330
3B
102
}
330
3B
100
AcDbMaterial
  1
Global
 72
     1
 94
      127
  0
MLINESTYLE
  5
18
102
{ACAD_REACTORS
330
17
102
}
330
17
100
AcDbMlineStyle
  2
Standard
 70
     0
  3

 62
   256
 51
90.0
 52
90.0
 71
     2
 49
0.5
 62
   256
  6
BYLAYER
 49
-0.5
 62
   256
  6
BYLAYER
  0
ACDBPLACEHOLDER
  5
F
102
{ACAD_REACTORS
330
E
102
}
330
E
  0
VISUALSTYLE
  5
2F
102
{ACAD_REACTORS
330
2A
102
}
330
2A
100
AcDbVisualStyle
  2
2dWireframe
 70
     4
177
     2
291
     0
 71
     0
176
     1
 72
     2
176
     1
 73
     0
176
     1
 90
        0
176
     1
 40
-0.6
176
     1
 41
-30.0
176
     1
 62
     5
 63
     7
421
 16777215
176
     1
 74
     1
176
     1
 91
        4
176
     1
 64
     7
176
     1
 65
   257
176
     1
 75
     1
176
     1
175
     1
176
     1
 42
1.0
176
     1
 92
        0
176
     1
 66
   257
176
     1
 43
1.0
176
     1
 76
     1
176
     1
 77
     6
176
     1
 78
     2
176
     1
 67
     7
176
     1
 79
     5
176
     1
170
     0
176
     1
171
     0
176
     1
290
     0
176
     1
 93
        1
176
     1
 44
0.0
176
     1
173
     0
176
     1
  0
VISUALSTYLE
  5
31
102
{ACAD_REACTORS
330
2A
102
}
330
2A
100
AcDbVisualStyle
  2
3D Hidden
 70
     6
177
     2
291
     0
 71
     1
176
     1
 72
     2
176
     1
 73
     2
176
     1
 90
        0
176
     1
 40
-0.6
176
     1
 41
-30.0
176
     1
 62
     5
 63
     7
421
 16777215
176
     1
 74
     2
176
     1
 91
        2
176
     1
 64
     7
176
     1
 65
   257
176
     1
 75
     2
176
     1
175
     1
176
     1
 42
40.0
176
     1
 92
        0
176
     1
 66
   257
176
     1
 43
1.0
176
     1
 76
     1
176
     1
 77
     6
176
     1
 78
     2
176
     1
 67
     7
176
     1
 79
     3
176
     1
170
     0
176
     1
171
     0
176
     1
290
     0
176
     1
 93
        1
176
     1
 44
0.0
176
     1
173
     0
176
     1
  0
VISUALSTYLE
  5
30
102
{ACAD_REACTORS
330
2A
102
}
330
2A
100
AcDbVisualStyle
  2
3dWireframe
 70
     5
177
     2
291
     0
 71
     0
176
     1
 72
     2
176
     1
 73
     0
176
     1
 90
        0
176
     1
 40
-0.6
176
     1
 41
-30.0
176
     1
 62
     5
 63
     7
421
 16777215
176
     1
 74
     1
176
     1
 91
        4
176
     1
 64
     7
176
     1
 65
   257
176
     1
 75
     1
176
     1
175
     1
176
     1
 42
1.0
176
     1
 92
        0
176
     1
 66
   257
176
     1
 43
1.0
176
     1
 76
     1
176
     1
 77
     6
176
     1
 78
     2
176
     1
 67
     7
176
     1
 79
     5
176
     1
170
     0
176
     1
171
     0
176
     1
290
     0
176
     1
 93
        1
176
     1
 44
0.0
176
     1
173
     0
176
     1
  0
VISUALSTYLE
  5
32
102
{ACAD_REACTORS
330
2A
102
}
330
2A
100
AcDbVisualStyle
  2
Basic
 70
     7
177
     2
291
     1
 71
     1
176
     1
 72
     0
176
     1
 73
     1
176
     1
 90
        0
176
     1
 40
-0.6
176
     1
 41
-30.0
176
     1
 62
     5
 63
     7
421
 16777215
176
     1
 74
     0
176
     1
 91
        4
176
     1
 64
     7
176
     1
 65
   257
176
     1
 75
     1
176
     1
175
     1
176
     1
 42
1.0
176
     1
 92
        8
176
     1
 66
     7
176
     1
 43
1.0
176
     1
 76
     1
176
     1
 77
     6
176
     1
 78
     2
176
     1
 67
     7
176
     1
 79
     5
176
     1
170
     0
176
     1
171
     0
176
     1
290
     0
176
     1
 93
        1
176
     1
 44
0.0
176
     1
173
     0
176
     1
  0
VISUALSTYLE
  5
36
102
{ACAD_REACTORS
330
2A
102
}
330
2A
100
AcDbVisualStyle
  2
Brighten
 70
    12
177
     2
291
     1
 71
     2
176
     1
 72
     2
176
     1
 73
     0
176
     1
 90
        0
176
     1
 40
-0.6
176
     1
 41
-30.0
176
     1
 62
     5
 63
     7
421
 16777215
176
     1
 74
     1
176
     1
 91
        4
176
     1
 64
     7
176
     1
 65
   257
176
     1
 75
     1
176
     1
175
     1
176
     1
 42
1.0
176
     1
 92
        8
176
     1
 66
     7
176
     1
 43
1.0
176
     1
 76
     1
176
     1
 77
     6
176
     1
 78
     2
176
     1
 67
     7
176
     1
 79
     5
176
     1
170
     0
176
     1
171
     0
176
     1
290
     0
176
     1
 93
        1
176
     1
 44
50.0
176
     1
173
     0
176
     1
  0
VISUALSTYLE
  5
3A
102
{ACAD_REACTORS
330
2A
102
}
330
2A
100
AcDbVisualStyle
  2
ColorChange
 70
    16
177
     2
291
     1
 71
     2
176
     1
 72
     2
176
     1
 73
     3
176
     1
 90
        0
176
     1
 40
-0.6
176
     1
 41
-30.0
176
     1
 62
     5
 63
     8
421
  8421504
176
     1
 74
     1
176
     1
 91
        4
176
     1
 64
     7
176
     1
 65
   257
176
     1
 75
     1
176
     1
175
     1
176
     1
 42
1.0
176
     1
 92
        8
176
     1
 66
     8
424
  8421504
176
     1
 43
1.0
176
     1
 76
     1
176
     1
 77
     6
176
     1
 78
     2
176
     1
 67
     7
176
     1
 79
     5
176
     1
170
     0
176
     1
171
     0
176
     1
290
     0
176
     1
 93
        1
176
     1
 44
0.0
176
     1
173
     0
176
     1
  0
VISUALSTYLE
  5
34
102
{ACAD_REACTORS
330
2A
102
}
330
2A
100
AcDbVisualStyle
  2
Conceptual
 70
     9
177
     2
291
     0
 71
     3
176
     1
 72
     2
176
     1
 73
     0
176
     1
 90
        0
176
     1
 40
-0.6
176
     1
 41
-30.0
176
     1
 62
     5
 63
     7
421
 16777215
176
     1
 74
     2
176
     1
 91
        2
176
     1
 64
     7
176
     1
 65
   257
176
     1
 75
     1
176
     1
175
     1
176
     1
 42
40.0
176
     1
 92
        8
176
     1
 66
     7
176
     1
 43
1.0
176
     1
 76
     1
176
     1
 77
     6
176
     1
 78
     2
176
     1
 67
     7
176
     1
 79
     3
176
     1
170
     0
176
     1
171
     0
176
     1
290
     0
176
     1
 93
        1
176
     1
 44
0.0
176
     1
173
     0
176
     1
  0
VISUALSTYLE
  5
35
102
{ACAD_REACTORS
330
2A
102
}
330
2A
100
AcDbVisualStyle
  2
Dim
 70
    11
177
     2
291
     1
 71
     2
176
     1
 72
     2
176
     1
 73
     0
176
     1
 90
        0
176
     1
 40
-0.6
176
     1
 41
-30.0
176
     1
 62
     5
 63
     7
421
 16777215
176
     1
 74
     1
176
     1
 91
        4
176
     1
 64
     7
176
     1
 65
   257
176
     1
 75
     1
176
     1
175
     1
176
     1
 42
1.0
176
     1
 92
        8
176
     1
 66
     7
176
     1
 43
1.0
176
     1
 76
     1
176
     1
 77
     6
176
     1
 78
     2
176
     1
 67
     7
176
     1
 79
     5
176
     1
170
     0
176
     1
171
     0
176
     1
290
     0
176
     1
 93
        1
176
     1
 44
-50.0
176
     1
173
     0
176
     1
  0
VISUALSTYLE
  5
39
102
{ACAD_REACTORS
330
2A
102
}
330
2A
100
AcDbVisualStyle
  2
Facepattern
 70
    15
177
     2
291
     1
 71
     2
176
     1
 72
     2
176
     1
 73
     0
176
     1
 90
        0
176
     1
 40
-0.6
176
     1
 41
-30.0
176
     1
 62
     5
 63
     7
421
 16777215
176
     1
 74
     1
176
     1
 91
        4
176
     1
 64
     7
176
     1
 65
   257
176
     1
 75
     1
176
     1
175
     1
176
     1
 42
1.0
176
     1
 92
        8
176
     1
 66
     7
176
     1
 43
1.0
176
     1
 76
     1
176
     1
 77
     6
176
     1
 78
     2
176
     1
 67
     7
176
     1
 79
     5
176
     1
170
     0
176
     1
171
     0
176
     1
290
     0
176
     1
 93
        1
176
     1
 44
0.0
176
     1
173
     0
176
     1
  0
VISUALSTYLE
  5
2B
102
{ACAD_REACTORS
330
2A
102
}
330
2A
100
AcDbVisualStyle
  2
Flat
 70
     0
177
     2
291
     1
 71
     2
176
     1
 72
     1
176
     1
 73
     1
176
     1
 90
        2
176
     1
 40
-0.6
176
     1
 41
30.0
176
     1
 62
     5
 63
     7
421
 16777215
176
     1
 74
     0
176
     1
 91
        4
176
     1
 64
     7
176
     1
 65
   257
176
     1
 75
     1
176
     1
175
     1
176
     1
 42
1.0
176
     1
 92
        8
176
     1
 66
     7
176
     1
 43
1.0
176
     1
 76
     1
176
     1
 77
     6
176
     1
 78
     2
176
     1
 67
     7
176
     1
 79
     5
176
     1
170
     0
176
     1
171
     0
176
     1
290
     0
176
     1
 93
       13
176
     1
 44
0.0
176
     1
173
     0
176
     1
  0
VISUALSTYLE
  5
2C
102
{ACAD_REACTORS
330
2A
102
}
330
2A
100
AcDbVisualStyle
  2
FlatWithEdges
 70
     1
177
     2
291
     1
 71
     2
176
     1
 72
     1
176
     1
 73
     1
176
     1
 90
        2
176
     1
 40
-0.6
176
     1
 41
30.0
176
     1
 62
     5
 63
     7
421
 16777215
176
     1
 74
     1
176
     1
 91
        4
176
     1
 64
     7
176
     1
 65
   257
176
     1
 75
     1
176
     1
175
     1
176
     1
 42
1.0
176
     1
 92
        0
176
     1
 66
   257
176
     1
 43
1.0
176
     1
 76
     1
176
     1
 77
     6
176
     1
 78
     2
176
     1
 67
     7
176
     1
 79
     5
176
     1
170
     0
176
     1
171
     0
176
     1
290
     0
176
     1
 93
       13
176
     1
 44
0.0
176
     1
173
     0
176
     1
  0
VISUALSTYLE
  5
2D
102
{ACAD_REACTORS
330
2A
102
}
330
2A
100
AcDbVisualStyle
  2
Gouraud
 70
     2
177
     2
291
     1
 71
     2
176
     1
 72
     2
176
     1
 73
     1
176
     1
 90
        2
176
     1
 40
-0.6
176
     1
 41
30.0
176
     1
 62
     5
 63
     7
421
 16777215
176
     1
 74
     0
176
     1
 91
        4
176
     1
 64
     7
176
     1
 65
   257
176
     1
 75
     1
176
     1
175
     1
176
     1
 42
1.0
176
     1
 92
        0
176
     1
 66
     7
176
     1
 43
1.0
176
     1
 76
     1
176
     1
 77
     6
176
     1
 78
     2
176
     1
 67
     7
176
     1
 79
     5
176
     1
170
     0
176
     1
171
     0
176
     1
290
     0
176
     1
 93
       13
176
     1
 44
0.0
176
     1
173
     0
176
     1
  0
VISUALSTYLE
  5
2E
102
{ACAD_REACTORS
330
2A
102
}
330
2A
100
AcDbVisualStyle
  2
GouraudWithEdges
 70
     3
177
     2
291
     1
 71
     2
176
     1
 72
     2
176
     1
 73
     1
176
     1
 90
        2
176
     1
 40
-0.6
176
     1
 41
30.0
176
     1
 62
     5
 63
     7
421
 16777215
176
     1
 74
     1
176
     1
 91
        4
176
     1
 64
     7
176
     1
 65
   257
176
     1
 75
     1
176
     1
175
     1
176
     1
 42
1.0
176
     1
 92
        0
176
     1
 66
   257
176
     1
 43
1.0
176
     1
 76
     1
176
     1
 77
     6
176
     1
 78
     2
176
     1
 67
     7
176
     1
 79
     5
176
     1
170
     0
176
     1
171
     0
176
     1
290
     0
176
     1
 93
       13
176
     1
 44
0.0
176
     1
173
     0
176
     1
  0
VISUALSTYLE
  5
38
102
{ACAD_REACTORS
330
2A
102
}
330
2A
100
AcDbVisualStyle
  2
Linepattern
 70
    14
177
     2
291
     1
 71
     2
176
     1
 72
     2
176
     1
 73
     0
176
     1
 90
        0
176
     1
 40
-0.6
176
     1
 41
-30.0
176
     1
 62
     5
 63
     7
421
 16777215
176
     1
 74
     1
176
     1
 91
        4
176
     1
 64
     7
176
     1
 65
   257
176
     1
 75
     7
176
     1
175
     7
176
     1
 42
1.0
176
     1
 92
        8
176
     1
 66
     7
176
     1
 43
1.0
176
     1
 76
     1
176
     1
 77
     6
176
     1
 78
     2
176
     1
 67
     7
176
     1
 79
     5
176
     1
170
     0
176
     1
171
     0
176
     1
290
     0
176
     1
 93
        1
176
     1
 44
0.0
176
     1
173
     0
176
     1
  0
VISUALSTYLE
  5
33
102
{ACAD_REACTORS
330
2A
102
}
330
2A
100
AcDbVisualStyle
  2
Realistic
 70
     8
177
     2
291
     0
 71
     2
176
     1
 72
     2
176
     1
 73
     0
176
     1
 90
        0
176
     1
 40
-0.6
176
     1
 41
-30.0
176
     1
 62
     5
 63
     7
421
 16777215
176
     1
 74
     1
176
     1
 91
        0
176
     1
 64
     7
176
     1
 65
   257
176
     1
 75
     1
176
     1
175
     1
176
     1
 42
1.0
176
     1
 92
        8
176
     1
 66
     8
424
  7895160
176
     1
 43
1.0
176
     1
 76
     1
176
     1
 77
     6
176
     1
 78
     2
176
     1
 67
     7
176
     1
 79
     5
176
     1
170
     0
176
     1
171
     0
176
     1
290
     0
176
     1
 93
       13
176
     1
 44
0.0
176
     1
173
     0
176
     1
  0
VISUALSTYLE
  5
37
102
{ACAD_REACTORS
330
2A
102
}
330
2A
100
AcDbVisualStyle
  2
Thicken
 70
    13
177
     2
291
     1
 71
     2
176
     1
 72
     2
176
     1
 73
     0
176
     1
 90
        0
176
     1
 40
-0.6
176
     1
 41
-30.0
176
     1
 62
     5
 63
     7
421
 16777215
176
     1
 74
     1
176
     1
 91
        4
176
     1
 64
     7
176
     1
 65
   257
176
     1
 75
     1
176
     1
175
     1
176
     1
 42
1.0
176
     1
 92
       12
176
     1
 66
     7
176
     1
 43
1.0
176
     1
 76
     1
176
     1
 77
     6
176
     1
 78
     2
176
     1
 67
     7
176
     1
 79
     5
176
     1
170
     0
176
     1
171
     0
176
     1
290
     0
176
     1
 93
        1
176
     1
 44
0.0
176
     1
173
     0
176
     1
  0
ENDSEC
  0
EOF
