  0
SECTION
  2
HEADER
  9
$ACADVER
  1
AC1024
  9
$ACADMAINTVER
 70
     6
  9
$DWGCODEPAGE
  3
ANSI_1251
  9
$INSBASE
 10
0.0
 20
0.0
 30
0.0
  9
$EXTMIN
 10
1.000000000000000E+20
 20
1.000000000000000E+20
 30
1.000000000000000E+20
  9
$EXTMAX
 10
-1.000000000000000E+20
 20
-1.000000000000000E+20
 30
-1.000000000000000E+20
  9
$LIMMIN
 10
0.0
 20
0.0
  9
$LIMMAX
 10
12.0
 20
9.0
  9
$ORTHOMODE
 70
     0
  9
$REGENMODE
 70
     1
  9
$FILLMODE
 70
     1
  9
$QTEXTMODE
 70
     0
  9
$MIRRTEXT
 70
     1
  9
$LTSCALE
 40
1.0
  9
$ATTMODE
 70
     1
  9
$TEXTSIZE
 40
0.2
  9
$TRACEWID
 40
0.05
  9
$TEXTSTYLE
  7
Standard
  9
$CLAYER
  8
0
  9
$CELTYPE
  6
ByLayer
  9
$CECOLOR
 62
   256
  9
$CELTSCALE
 40
1.0
  9
$DISPSILH
 70
     0
  9
$DIMSCALE
 40
1.0
  9
$DIMASZ
 40
0.18
  9
$DIMEXO
 40
0.0625
  9
$DIMDLI
 40
0.38
  9
$DIMRND
 40
0.0
  9
$DIMDLE
 40
0.0
  9
$DIMEXE
 40
0.18
  9
$DIMTP
 40
0.0
  9
$DIMTM
 40
0.0
  9
$DIMTXT
 40
0.18
  9
$DIMCEN
 40
0.09
  9
$DIMTSZ
 40
0.0
  9
$DIMTOL
 70
     0
  9
$DIMLIM
 70
     0
  9
$DIMTIH
 70
     1
  9
$DIMTOH
 70
     1
  9
$DIMSE1
 70
     0
  9
$DIMSE2
 70
     0
  9
$DIMTAD
 70
     0
  9
$DIMZIN
 70
     0
  9
$DIMBLK
  1

  9
$DIMASO
 70
     1
  9
$DIMSHO
 70
     1
  9
$DIMPOST
  1

  9
$DIMAPOST
  1

  9
$DIMALT
 70
     0
  9
$DIMALTD
 70
     2
  9
$DIMALTF
 40
25.4
  9
$DIMLFAC
 40
1.0
  9
$DIMTOFL
 70
     0
  9
$DIMTVP
 40
0.0
  9
$DIMTIX
 70
     0
  9
$DIMSOXD
 70
     0
  9
$DIMSAH
 70
     0
  9
$DIMBLK1
  1

  9
$DIMBLK2
  1

  9
$DIMSTYLE
  2
Standard
  9
$DIMCLRD
 70
     0
  9
$DIMCLRE
 70
     0
  9
$DIMCLRT
 70
     0
  9
$DIMTFAC
 40
1.0
  9
$DIMGAP
 40
0.09
  9
$DIMJUST
 70
     0
  9
$DIMSD1
 70
     0
  9
$DIMSD2
 70
     0
  9
$DIMTOLJ
 70
     1
  9
$DIMTZIN
 70
     0
  9
$DIMALTZ
 70
     0
  9
$DIMALTTZ
 70
     0
  9
$DIMUPT
 70
     0
  9
$DIMDEC
 70
     4
  9
$DIMTDEC
 70
     4
  9
$DIMALTU
 70
     2
  9
$DIMALTTD
 70
     2
  9
$DIMTXSTY
  7
Standard
  9
$DIMAUNIT
 70
     0
  9
$DIMADEC
 70
     0
  9
$DIMALTRND
 40
0.0
  9
$DIMAZIN
 70
     0
  9
$DIMDSEP
 70
    46
  9
$DIMATFIT
 70
     3
  9
$DIMFRAC
 70
     0
  9
$DIMLDRBLK
  1

  9
$DIMLUNIT
 70
     2
  9
$DIMLWD
 70
    -2
  9
$DIMLWE
 70
    -2
  9
$DIMTMOVE
 70
     0
  9
$DIMFXL
 40
1.0
  9
$DIMFXLON
 70
     0
  9
$DIMJOGANG
 40
0.7853981633974483
  9
$DIMTFILL
 70
     0
  9
$DIMTFILLCLR
 70
     0
  9
$DIMARCSYM
 70
     0
  9
$DIMLTYPE
  6

  9
$DIMLTEX1
  6

  9
$DIMLTEX2
  6

  9
$DIMTXTDIRECTION
 70
     0
  9
$LUNITS
 70
     2
  9
$LUPREC
 70
     4
  9
$SKETCHINC
 40
0.1
  9
$FILLETRAD
 40
0.5
  9
$AUNITS
 70
     0
  9
$AUPREC
 70
     0
  9
$MENU
  1
.
  9
$ELEVATION
 40
0.0
  9
$PELEVATION
 40
0.0
  9
$THICKNESS
 40
0.0
  9
$LIMCHECK
 70
     0
  9
$CHAMFERA
 40
0.5
  9
$CHAMFERB
 40
0.5
  9
$CHAMFERC
 40
1.0
  9
$CHAMFERD
 40
0.0
  9
$SKPOLY
 70
     0
  9
$TDCREATE
 40
2459337.642378808
  9
$TDUCREATE
 40
2459337.517378808
  9
$TDUPDATE
 40
2459337.642378808
  9
$TDUUPDATE
 40
2459337.517378808
  9
$TDINDWG
 40
0.0000000116
  9
$TDUSRTIMER
 40
0.0000000116
  9
$USRTIMER
 70
     1
  9
$ANGBASE
 50
0.0
  9
$ANGDIR
 70
     0
  9
$PDMODE
 70
     0
  9
$PDSIZE
 40
0.0
  9
$PLINEWID
 40
0.0
  9
$SPLFRAME
 70
     0
  9
$SPLINETYPE
 70
     6
  9
$SPLINESEGS
 70
     8
  9
$HANDSEED
  5
63
  9
$SURFTAB1
 70
     6
  9
$SURFTAB2
 70
     6
  9
$SURFTYPE
 70
     6
  9
$SURFU
 70
     6
  9
$SURFV
 70
     6
  9
$UCSBASE
  2

  9
$UCSNAME
  2

  9
$UCSORG
 10
0.0
 20
0.0
 30
0.0
  9
$UCSXDIR
 10
1.0
 20
0.0
 30
0.0
  9
$UCSYDIR
 10
0.0
 20
1.0
 30
0.0
  9
$UCSORTHOREF
  2

  9
$UCSORTHOVIEW
 70
     0
  9
$UCSORGTOP
 10
0.0
 20
0.0
 30
0.0
  9
$UCSORGBOTTOM
 10
0.0
 20
0.0
 30
0.0
  9
$UCSORGLEFT
 10
0.0
 20
0.0
 30
0.0
  9
$UCSORGRIGHT
 10
0.0
 20
0.0
 30
0.0
  9
$UCSORGFRONT
 10
0.0
 20
0.0
 30
0.0
  9
$UCSORGBACK
 10
0.0
 20
0.0
 30
0.0
  9
$PUCSBASE
  2

  9
$PUCSNAME
  2

  9
$PUCSORG
 10
0.0
 20
0.0
 30
0.0
  9
$PUCSXDIR
 10
1.0
 20
0.0
 30
0.0
  9
$PUCSYDIR
 10
0.0
 20
1.0
 30
0.0
  9
$PUCSORTHOREF
  2

  9
$PUCSORTHOVIEW
 70
     0
  9
$PUCSORGTOP
 10
0.0
 20
0.0
 30
0.0
  9
$PUCSORGBOTTOM
 10
0.0
 20
0.0
 30
0.0
  9
$PUCSORGLEFT
 10
0.0
 20
0.0
 30
0.0
  9
$PUCSORGRIGHT
 10
0.0
 20
0.0
 30
0.0
  9
$PUCSORGFRONT
 10
0.0
 20
0.0
 30
0.0
  9
$PUCSORGBACK
 10
0.0
 20
0.0
 30
0.0
  9
$USERI1
 70
     0
  9
$USERI2
 70
     0
  9
$USERI3
 70
     0
  9
$USERI4
 70
     0
  9
$USERI5
 70
     0
  9
$USERR1
 40
0.0
  9
$USERR2
 40
0.0
  9
$USERR3
 40
0.0
  9
$USERR4
 40
0.0
  9
$USERR5
 40
0.0
  9
$WORLDVIEW
 70
     1
  9
$SHADEDGE
 70
     3
  9
$SHADEDIF
 70
    70
  9
$TILEMODE
 70
     1
  9
$MAXACTVP
 70
    64
  9
$PINSBASE
 10
0.0
 20
0.0
 30
0.0
  9
$PLIMCHECK
 70
     0
  9
$PEXTMIN
 10
1.000000000000000E+20
 20
1.000000000000000E+20
 30
1.000000000000000E+20
  9
$PEXTMAX
 10
-1.000000000000000E+20
 20
-1.000000000000000E+20
 30
-1.000000000000000E+20
  9
$PLIMMIN
 10
0.0
 20
0.0
  9
$PLIMMAX
 10
12.0
 20
9.0
  9
$UNITMODE
 70
     0
  9
$VISRETAIN
 70
     1
  9
$PLINEGEN
 70
     0
  9
$PSLTSCALE
 70
     1
  9
$TREEDEPTH
 70
  3020
  9
$CMLSTYLE
  2
Standard
  9
$CMLJUST
 70
     0
  9
$CMLSCALE
 40
1.0
  9
$PROXYGRAPHICS
 70
     1
  9
$MEASUREMENT
 70
     0
  9
$CELWEIGHT
370
    -1
  9
$ENDCAPS
280
     0
  9
$JOINSTYLE
280
     0
  9
$LWDISPLAY
290
     1
  9
$INSUNITS
 70
     1
  9
$HYPERLINKBASE
  1

  9
$STYLESHEET
  1

  9
$XEDIT
290
     1
  9
$CEPSNTYPE
380
     0
  9
$PSTYLEMODE
290
     1
  9
$FINGERPRINTGUID
  2
{40D50B32-3564-4374-A625-51FBCB8390F4}
  9
$VERSIONGUID
  2
{FAEB1C32-E019-11D5-929B-00C0DF256EC4}
  9
$EXTNAMES
290
     1
  9
$PSVPSCALE
 40
0.0
  9
$OLESTARTUP
290
     0
  9
$SORTENTS
280
   127
  9
$INDEXCTL
280
     0
  9
$HIDETEXT
280
     1
  9
$XCLIPFRAME
280
     2
  9
$HALOGAP
280
     0
  9
$OBSCOLOR
 70
   257
  9
$OBSLTYPE
280
     0
  9
$INTERSECTIONDISPLAY
280
     0
  9
$INTERSECTIONCOLOR
 70
   257
  9
$DIMASSOC
280
     2
  9
$PROJECTNAME
  1

  9
$CAMERADISPLAY
290
     0
  9
$LENSLENGTH
 40
50.0
  9
$CAMERAHEIGHT
 40
0.0
  9
$STEPSPERSEC
 40
2.0
  9
$STEPSIZE
 40
6.0
  9
$3DDWFPREC
 40
2.0
  9
$PSOLWIDTH
 40
0.25
  9
$PSOLHEIGHT
 40
4.0
  9
$LOFTANG1
 40
1.570796326794897
  9
$LOFTANG2
 40
1.570796326794897
  9
$LOFTMAG1
 40
0.0
  9
$LOFTMAG2
 40
0.0
  9
$LOFTPARAM
 70
     7
  9
$LOFTNORMALS
280
     1
  9
$LATITUDE
 40
37.795
  9
$LONGITUDE
 40
-122.394
  9
$NORTHDIRECTION
 40
0.0
  9
$TIMEZONE
 70
 -8000
  9
$LIGHTGLYPHDISPLAY
280
     1
  9
$TILEMODELIGHTSYNCH
280
     1
  9
$CMATERIAL
347
3C
  9
$SOLIDHIST
280
     1
  9
$SHOWHIST
280
     1
  9
$DWFFRAME
280
     2
  9
$DGNFRAME
280
     2
  9
$REALWORLDSCALE
290
     1
  9
$INTERFERECOLOR
 62
   256
  9
$CSHADOW
280
     0
  9
$SHADOWPLANELOCATION
 40
0.0
  0
ENDSEC
  0
SECTION
  2
CLASSES
  0
CLASS
  1
ACDBDICTIONARYWDFLT
  2
AcDbDictionaryWithDefault
  3
ObjectDBX Classes
 90
        0
 91
        4
280
     0
281
     0
  0
CLASS
  1
VISUALSTYLE
  2
AcDbVisualStyle
  3
ObjectDBX Classes
 90
     4095
 91
        4
280
     0
281
     0
  0
CLASS
  1
MATERIAL
  2
AcDbMaterial
  3
ObjectDBX Classes
 90
     1153
 91
        4
280
     0
281
     0
  0
CLASS
  1
SUN
  2
AcDbSun
  3
SCENEOE
 90
     1024
 91
        4
280
     0
281
     0
  0
ENDSEC
  0
SECTION
  2
TABLES
  0
TABLE
  2
VPORT
  5
8
330
0
100
AcDbSymbolTable
 70
     1
  0
VPORT
  5
29
330
8
100
AcDbSymbolTableRecord
100
AcDbViewportTableRecord
  2
*Active
 70
     0
 10
0.0
 20
0.0
 11
1.0
 21
1.0
 12
0.0
 22
0.0
 13
0.0
 23
0.0
 14
0.5
 24
0.5
 15
0.5
 25
0.5
 16
0.0
 26
0.0
 36
1.0
 17
5.444832984346873
 27
-5.445301672359726
 37
0.0
 40
12.00000000000014
 41
0.919516261526335
 42
50.0
 43
0.0
 44
0.0
 50
0.0
 51
0.0
 71
     0
 72
   100
 73
     1
 74
     3
 75
     0
 76
     0
 77
     0
 78
     0
281
     0
 65
     1
110
0.0
120
0.0
130
0.0
111
1.0
121
0.0
131
0.0
112
0.0
122
1.0
132
0.0
 79
     0
146
0.0
 60
     3
 61
     5
292
     1
282
     1
141
0.0
142
0.0
 63
   250
361
3F
  0
ENDTAB
  0
TABLE
  2
LTYPE
  5
5
330
0
100
AcDbSymbolTable
 70
     1
  0
LTYPE
  5
14
330
5
100
AcDbSymbolTableRecord
100
AcDbLinetypeTableRecord
  2
ByBlock
 70
     0
  3

 72
    65
 73
     0
 40
0.0
  0
LTYPE
  5
15
330
5
100
AcDbSymbolTableRecord
100
AcDbLinetypeTableRecord
  2
ByLayer
 70
     0
  3

 72
    65
 73
     0
 40
0.0
  0
LTYPE
  5
16
330
5
100
AcDbSymbolTableRecord
100
AcDbLinetypeTableRecord
  2
Continuous
 70
     0
  3
Solid line
 72
    65
 73
     0
 40
0.0
  0
ENDTAB
  0
TABLE
  2
LAYER
  5
2
330
0
100
AcDbSymbolTable
 70
     2
  0
LAYER
  5
10
330
2
100
AcDbSymbolTableRecord
100
AcDbLayerTableRecord
  2
0
 70
     0
 62
     7
  6
Continuous
370
    -3
390
F
347
3E
  0
LAYER
  5
40
330
2
100
AcDbSymbolTableRecord
100
AcDbLayerTableRecord
  2
Layer 1
 70
     0
 62
     7
  6
Continuous
370
    -3
390
F
347
3E
  0
ENDTAB
  0
TABLE
  2
STYLE
  5
3
330
0
100
AcDbSymbolTable
 70
     1
  0
STYLE
  5
11
330
3
100
AcDbSymbolTableRecord
100
AcDbTextStyleTableRecord
  2
Standard
 70
     0
 40
0.0
 41
1.0
 50
0.0
 71
     0
 42
0.2
  3
txt
  4

  0
ENDTAB
  0
TABLE
  2
VIEW
  5
6
330
0
100
AcDbSymbolTable
 70
     0
  0
ENDTAB
  0
TABLE
  2
UCS
  5
7
330
0
100
AcDbSymbolTable
 70
     0
  0
ENDTAB
  0
TABLE
  2
APPID
  5
9
330
0
100
AcDbSymbolTable
 70
     1
  0
APPID
  5
12
330
9
100
AcDbSymbolTableRecord
100
AcDbRegAppTableRecord
  2
ACAD
 70
     0
  0
ENDTAB
  0
TABLE
  2
DIMSTYLE
  5
A
330
0
100
AcDbSymbolTable
 70
     1
100
AcDbDimStyleTable
  0
DIMSTYLE
105
27
330
A
100
AcDbSymbolTableRecord
100
AcDbDimStyleTableRecord
  2
Standard
 70
     0
178
     0
340
11
  0
ENDTAB
  0
TABLE
  2
BLOCK_RECORD
  5
1
330
0
100
AcDbSymbolTable
 70
     1
  0
BLOCK_RECORD
  5
1F
330
1
100
AcDbSymbolTableRecord
100
AcDbBlockTableRecord
  2
*Model_Space
340
22
 70
     0
280
     1
281
     0
  0
BLOCK_RECORD
  5
1B
330
1
100
AcDbSymbolTableRecord
100
AcDbBlockTableRecord
  2
*Paper_Space
340
1E
 70
     0
280
     1
281
     0
  0
BLOCK_RECORD
  5
23
330
1
100
AcDbSymbolTableRecord
100
AcDbBlockTableRecord
  2
*Paper_Space0
340
26
 70
     0
280
     1
281
     0
  0
ENDTAB
  0
ENDSEC
  0
SECTION
  2
BLOCKS
  0
BLOCK
  5
20
330
1F
100
AcDbEntity
  8
0
100
AcDbBlockBegin
  2
*Model_Space
 70
     0
 10
0.0
 20
0.0
 30
0.0
  3
*Model_Space
  1

  0
ENDBLK
  5
21
330
1F
100
AcDbEntity
  8
0
100
AcDbBlockEnd
  0
BLOCK
  5
1C
330
1B
100
AcDbEntity
 67
     1
  8
0
100
AcDbBlockBegin
  2
*Paper_Space
 70
     0
 10
0.0
 20
0.0
 30
0.0
  3
*Paper_Space
  1

  0
ENDBLK
  5
1D
330
1B
100
AcDbEntity
 67
     1
  8
0
100
AcDbBlockEnd
  0
BLOCK
  5
24
330
23
100
AcDbEntity
  8
0
100
AcDbBlockBegin
  2
*Paper_Space0
 70
     0
 10
0.0
 20
0.0
 30
0.0
  3
*Paper_Space0
  1

  0
ENDBLK
  5
25
330
23
100
AcDbEntity
  8
0
100
AcDbBlockEnd
  0
ENDSEC
  0
SECTION
  2
ENTITIES
  0
SPLINE
  5
41
330
1F
100
AcDbEntity
  8
Layer 1
370
     0
100
AcDbSpline
210
0.0
220
0.0
230
1.0
 70
    11
 71
     3
 72
    29
 73
    25
 74
     0
 42
0.0000000001
 43
0.0000000001
 12
1.0
 22
0.0
 32
0.0
 13
1.0
 23
0.0
 33
0.0
 40
0.0
 40
0.0
 40
0.0
 40
0.0
 40
1.0
 40
1.0
 40
1.0
 40
2.0
 40
2.0
 40
2.0
 40
3.0
 40
3.0
 40
3.0
 40
4.0
 40
4.0
 40
4.0
 40
5.0
 40
5.0
 40
5.0
 40
6.0
 40
6.0
 40
6.0
 40
7.0
 40
7.0
 40
7.0
 40
8.0
 40
8.0
 40
8.0
 40
8.0
 10
10.83267684472419
 20
-5.565131919716211
 30
0.0
 10
10.83267684472419
 20
-5.565131919716211
 30
0.0
 10
8.872260851599524
 20
-5.320617247332999
 30
0.0
 10
8.872260851599524
 20
-5.320617247332999
 30
0.0
 10
8.799664343900556
 20
-5.315273764595796
 30
0.0
 10
8.741642897807044
 20
-5.360159019588182
 30
0.0
 10
8.729700950413012
 20
-5.429825643796802
 30
0.0
 10
8.718177203511358
 20
-5.497107061218318
 30
0.0
 10
8.758712128177295
 20
-5.558332531537644
 30
0.0
 10
8.833445650342076
 20
-5.579892322755578
 30
0.0
 10
8.833445650342076
 20
-5.579892322755578
 30
0.0
 10
10.8186124099437
 20
-5.833684520239128
 30
0.0
 10
10.8186124099437
 20
-5.833684520239128
 30
0.0
 10
10.8211835685266
 20
-5.833823915440954
 30
0.0
 10
10.8237082603881
 20
-5.833885868863982
 30
0.0
 10
10.8262174633425
 20
-5.833885868863982
 30
0.0
 10
10.89729605814313
 20
-5.833885868863982
 30
0.0
 10
10.95474441467299
 20
-5.783146015394095
 30
0.0
 10
10.96126524457299
 20
-5.713154135714717
 30
0.0
 10
10.96126524457299
 20
-5.713154135714717
 30
0.0
 10
10.96126524457299
 20
-5.713076693935919
 30
0.0
 10
10.96126524457299
 20
-5.713076693935919
 30
0.0
 10
10.96845209747938
 20
-5.63571235691466
 30
0.0
 10
10.91687403675024
 20
-5.576268047507609
 30
0.0
 10
10.83267684472419
 20
-5.565131919716211
 30
0.0
  0
HATCH
  5
42
330
1F
100
AcDbEntity
  8
Layer 1
 62
     7
420
 16777215
100
AcDbHatch
 10
0.0
 20
0.0
 30
0.0
210
0.0
220
0.0
230
1.0
  2
SOLID
 70
     1
 71
     0
 91
        1
 92
        1
 93
        1
 72
     4
 94
        3
 73
     0
 74
     1
 95
       29
 96
       25
 40
0.0
 40
0.0
 40
0.0
 40
0.0
 40
1.0
 40
1.0
 40
1.0
 40
2.0
 40
2.0
 40
2.0
 40
3.0
 40
3.0
 40
3.0
 40
4.0
 40
4.0
 40
4.0
 40
5.0
 40
5.0
 40
5.0
 40
6.0
 40
6.0
 40
6.0
 40
7.0
 40
7.0
 40
7.0
 40
8.0
 40
8.0
 40
8.0
 40
8.0
 10
10.83267684472419
 20
-5.565131919716211
 10
10.83267684472419
 20
-5.565131919716211
 10
8.872260851599524
 20
-5.320617247332999
 10
8.872260851599524
 20
-5.320617247332999
 10
8.799664343900556
 20
-5.315273764595796
 10
8.741642897807044
 20
-5.360159019588182
 10
8.729700950413012
 20
-5.429825643796802
 10
8.718177203511358
 20
-5.497107061218318
 10
8.758712128177295
 20
-5.558332531537644
 10
8.833445650342076
 20
-5.579892322755578
 10
8.833445650342076
 20
-5.579892322755578
 10
10.8186124099437
 20
-5.833684520239128
 10
10.8186124099437
 20
-5.833684520239128
 10
10.8211835685266
 20
-5.833823915440954
 10
10.8237082603881
 20
-5.833885868863982
 10
10.8262174633425
 20
-5.833885868863982
 10
10.89729605814313
 20
-5.833885868863982
 10
10.95474441467299
 20
-5.783146015394095
 10
10.96126524457299
 20
-5.713154135714717
 10
10.96126524457299
 20
-5.713154135714717
 10
10.96126524457299
 20
-5.713076693935919
 10
10.96126524457299
 20
-5.713076693935919
 10
10.96845209747938
 20
-5.63571235691466
 10
10.91687403675024
 20
-5.576268047507609
 10
10.83267684472419
 20
-5.565131919716211
 97
        0
 97
        0
 75
     2
 76
     1
 98
        0
  0
SPLINE
  5
43
330
1F
100
AcDbEntity
  8
Layer 1
370
     0
100
AcDbSpline
210
0.0
220
0.0
230
1.0
 70
    11
 71
     3
 72
    32
 73
    28
 74
     0
 42
0.0000000001
 43
0.0000000001
 12
1.0
 22
0.0
 32
0.0
 13
1.0
 23
0.0
 33
0.0
 40
0.0
 40
0.0
 40
0.0
 40
0.0
 40
1.0
 40
1.0
 40
1.0
 40
2.0
 40
2.0
 40
2.0
 40
3.0
 40
3.0
 40
3.0
 40
4.0
 40
4.0
 40
4.0
 40
5.0
 40
5.0
 40
5.0
 40
6.0
 40
6.0
 40
6.0
 40
7.0
 40
7.0
 40
7.0
 40
8.0
 40
8.0
 40
8.0
 40
9.0
 40
9.0
 40
9.0
 40
9.0
 10
6.075878457130835
 20
-0.7813364062565142
 30
0.0
 10
6.077055614102265
 20
-0.7813364062565142
 30
0.0
 10
6.078217282166002
 20
-0.7813364062565142
 30
0.0
 10
6.079363461322196
 20
-0.7813364062565142
 30
0.0
 10
6.079363461322196
 20
-0.7813364062565142
 30
0.0
 10
6.07985910636277
 20
-0.7813364062565142
 30
0.0
 10
6.07985910636277
 20
-0.7813364062565142
 30
0.0
 10
6.15572377538183
 20
-0.7784400837294293
 30
0.0
 10
6.190264039145076
 20
-0.7246645125306309
 30
0.0
 10
6.211871065131541
 20
-0.6780600500487328
 30
0.0
 10
6.211871065131541
 20
-0.6780600500487328
 30
0.0
 10
6.564258800773359
 20
0.085391982073563
 30
0.0
 10
6.564258800773359
 20
0.085391982073563
 30
0.0
 10
6.588871074099112
 20
0.1515582378804083
 30
0.0
 10
6.560727329948677
 20
0.2214881641368973
 30
0.0
 10
6.497253788546837
 20
0.2516749695130834
 30
0.0
 10
6.435344626764744
 20
0.2810718687454962
 30
0.0
 10
6.366899146175506
 20
0.2599147747773966
 30
0.0
 10
6.324444051743487
 20
0.1947862388066015
 30
0.0
 10
6.324444051743487
 20
0.1947862388066015
 30
0.0
 10
5.956675824878882
 20
-0.5962040898572114
 30
0.0
 10
5.956675824878882
 20
-0.5962040898572114
 30
0.0
 10
5.938662225436474
 20
-0.6422045064642816
 30
0.0
 10
5.943231453153985
 20
-0.6900015723398003
 30
0.0
 10
5.969299284505395
 20
-0.727235579586818
 30
0.0
 10
5.9934929580471
 20
-0.7617591245758224
 30
0.0
 10
6.032184249025022
 20
-0.7813364062565142
 30
0.0
 10
6.075878457130835
 20
-0.7813364062565142
 30
0.0
  0
HATCH
  5
44
330
1F
100
AcDbEntity
  8
Layer 1
 62
     7
420
 16777215
100
AcDbHatch
 10
0.0
 20
0.0
 30
0.0
210
0.0
220
0.0
230
1.0
  2
SOLID
 70
     1
 71
     0
 91
        1
 92
        1
 93
        1
 72
     4
 94
        3
 73
     0
 74
     1
 95
       32
 96
       28
 40
0.0
 40
0.0
 40
0.0
 40
0.0
 40
1.0
 40
1.0
 40
1.0
 40
2.0
 40
2.0
 40
2.0
 40
3.0
 40
3.0
 40
3.0
 40
4.0
 40
4.0
 40
4.0
 40
5.0
 40
5.0
 40
5.0
 40
6.0
 40
6.0
 40
6.0
 40
7.0
 40
7.0
 40
7.0
 40
8.0
 40
8.0
 40
8.0
 40
9.0
 40
9.0
 40
9.0
 40
9.0
 10
6.075878457130835
 20
-0.7813364062565142
 10
6.077055614102265
 20
-0.7813364062565142
 10
6.078217282166002
 20
-0.7813364062565142
 10
6.079363461322196
 20
-0.7813364062565142
 10
6.079363461322196
 20
-0.7813364062565142
 10
6.07985910636277
 20
-0.7813364062565142
 10
6.07985910636277
 20
-0.7813364062565142
 10
6.15572377538183
 20
-0.7784400837294293
 10
6.190264039145076
 20
-0.7246645125306309
 10
6.211871065131541
 20
-0.6780600500487328
 10
6.211871065131541
 20
-0.6780600500487328
 10
6.564258800773359
 20
0.085391982073563
 10
6.564258800773359
 20
0.085391982073563
 10
6.588871074099112
 20
0.1515582378804083
 10
6.560727329948677
 20
0.2214881641368973
 10
6.497253788546837
 20
0.2516749695130834
 10
6.435344626764744
 20
0.2810718687454962
 10
6.366899146175506
 20
0.2599147747773966
 10
6.324444051743487
 20
0.1947862388066015
 10
6.324444051743487
 20
0.1947862388066015
 10
5.956675824878882
 20
-0.5962040898572114
 10
5.956675824878882
 20
-0.5962040898572114
 10
5.938662225436474
 20
-0.6422045064642816
 10
5.943231453153985
 20
-0.6900015723398003
 10
5.969299284505395
 20
-0.727235579586818
 10
5.9934929580471
 20
-0.7617591245758224
 10
6.032184249025022
 20
-0.7813364062565142
 10
6.075878457130835
 20
-0.7813364062565142
 97
        0
 97
        0
 75
     2
 76
     1
 98
        0
  0
SPLINE
  5
45
330
1F
100
AcDbEntity
  8
Layer 1
370
     0
100
AcDbSpline
210
0.0
220
0.0
230
1.0
 70
    11
 71
     3
 72
    41
 73
    37
 74
     0
 42
0.0000000001
 43
0.0000000001
 12
1.0
 22
0.0
 32
0.0
 13
1.0
 23
0.0
 33
0.0
 40
0.0
 40
0.0
 40
0.0
 40
0.0
 40
1.0
 40
1.0
 40
1.0
 40
2.0
 40
2.0
 40
2.0
 40
3.0
 40
3.0
 40
3.0
 40
4.0
 40
4.0
 40
4.0
 40
5.0
 40
5.0
 40
5.0
 40
6.0
 40
6.0
 40
6.0
 40
7.0
 40
7.0
 40
7.0
 40
8.0
 40
8.0
 40
8.0
 40
9.0
 40
9.0
 40
9.0
 40
10.0
 40
10.0
 40
10.0
 40
11.0
 40
11.0
 40
11.0
 40
12.0
 40
12.0
 40
12.0
 40
12.0
 10
8.28476660431521
 20
-4.729968800425013
 30
0.0
 10
8.273552635556067
 20
-2.782974062901303
 30
0.0
 10
6.943365291586209
 20
-1.153583548592552
 30
0.0
 10
5.0499551788246
 20
-0.7675672579859135
 30
0.0
 10
5.0499551788246
 20
-0.7675672579859135
 30
0.0
 10
4.856808502085793
 20
-0.7282268343554456
 30
0.0
 10
4.856808502085793
 20
-0.7282268343554456
 30
0.0
 10
4.856808502085793
 20
-0.7282268343554456
 30
0.0
 10
5.025823460912938
 20
-0.8295826344490125
 30
0.0
 10
5.025823460912938
 20
-0.8295826344490125
 30
0.0
 10
6.108343207286806
 20
-1.478823531197122
 30
0.0
 10
6.772073467681189
 20
-2.623087766390793
 30
0.0
 10
6.801301035427715
 20
-3.89059284836704
 30
0.0
 10
6.847798734619573
 20
-5.907052861474236
 30
0.0
 10
5.310850337043576
 20
-7.555556006790791
 30
0.0
 10
3.302295276941499
 20
-7.643529867507722
 30
0.0
 10
2.42779155852299
 20
-7.682823826070893
 30
0.0
 10
1.569225925939627
 20
-7.411018670838479
 30
0.0
 10
0.8850653919994454
 20
-6.880542486058149
 30
0.0
 10
0.8850653919994454
 20
-6.880542486058149
 30
0.0
 10
0.7290611154866661
 20
-6.759609404283865
 30
0.0
 10
0.7290611154866661
 20
-6.759609404283865
 30
0.0
 10
0.7290611154866661
 20
-6.759609404283865
 30
0.0
 10
0.8360275108001234
 20
-6.925489694473551
 30
0.0
 10
0.8360275108001234
 20
-6.925489694473551
 30
0.0
 10
1.573376953154163
 20
-8.069025976946628
 30
0.0
 10
2.825701592638754
 20
-8.762021478716836
 30
0.0
 10
4.186061362055398
 20
-8.779352948812225
 30
0.0
 10
4.203951050237694
 20
-8.779554297437244
 30
0.0
 10
4.221778782789948
 20
-8.779693692639032
 30
0.0
 10
4.239637493157135
 20
-8.779693692639032
 30
0.0
 10
5.306095242435756
 20
-8.779693692639032
 30
0.0
 10
6.310147790466317
 20
-8.369562032114041
 30
0.0
 10
7.072078109802204
 20
-7.621319565347928
 30
0.0
 10
7.848289201508148
 20
-6.859122090042016
 30
0.0
 10
8.278927286328756
 20
-5.832445451778236
 30
0.0
 10
8.28476660431521
 20
-4.729968800425013
 30
0.0
  0
HATCH
  5
46
330
1F
100
AcDbEntity
  8
Layer 1
 62
     7
420
 16777215
100
AcDbHatch
 10
0.0
 20
0.0
 30
0.0
210
0.0
220
0.0
230
1.0
  2
SOLID
 70
     1
 71
     0
 91
        1
 92
        1
 93
        1
 72
     4
 94
        3
 73
     0
 74
     1
 95
       41
 96
       37
 40
0.0
 40
0.0
 40
0.0
 40
0.0
 40
1.0
 40
1.0
 40
1.0
 40
2.0
 40
2.0
 40
2.0
 40
3.0
 40
3.0
 40
3.0
 40
4.0
 40
4.0
 40
4.0
 40
5.0
 40
5.0
 40
5.0
 40
6.0
 40
6.0
 40
6.0
 40
7.0
 40
7.0
 40
7.0
 40
8.0
 40
8.0
 40
8.0
 40
9.0
 40
9.0
 40
9.0
 40
10.0
 40
10.0
 40
10.0
 40
11.0
 40
11.0
 40
11.0
 40
12.0
 40
12.0
 40
12.0
 40
12.0
 10
8.28476660431521
 20
-4.729968800425013
 10
8.273552635556067
 20
-2.782974062901303
 10
6.943365291586209
 20
-1.153583548592552
 10
5.0499551788246
 20
-0.7675672579859135
 10
5.0499551788246
 20
-0.7675672579859135
 10
4.856808502085793
 20
-0.7282268343554456
 10
4.856808502085793
 20
-0.7282268343554456
 10
4.856808502085793
 20
-0.7282268343554456
 10
5.025823460912938
 20
-0.8295826344490125
 10
5.025823460912938
 20
-0.8295826344490125
 10
6.108343207286806
 20
-1.478823531197122
 10
6.772073467681189
 20
-2.623087766390793
 10
6.801301035427715
 20
-3.89059284836704
 10
6.847798734619573
 20
-5.907052861474236
 10
5.310850337043576
 20
-7.555556006790791
 10
3.302295276941499
 20
-7.643529867507722
 10
2.42779155852299
 20
-7.682823826070893
 10
1.569225925939627
 20
-7.411018670838479
 10
0.8850653919994454
 20
-6.880542486058149
 10
0.8850653919994454
 20
-6.880542486058149
 10
0.7290611154866661
 20
-6.759609404283865
 10
0.7290611154866661
 20
-6.759609404283865
 10
0.7290611154866661
 20
-6.759609404283865
 10
0.8360275108001234
 20
-6.925489694473551
 10
0.8360275108001234
 20
-6.925489694473551
 10
1.573376953154163
 20
-8.069025976946628
 10
2.825701592638754
 20
-8.762021478716836
 10
4.186061362055398
 20
-8.779352948812225
 10
4.203951050237694
 20
-8.779554297437244
 10
4.221778782789948
 20
-8.779693692639032
 10
4.239637493157135
 20
-8.779693692639032
 10
5.306095242435756
 20
-8.779693692639032
 10
6.310147790466317
 20
-8.369562032114041
 10
7.072078109802204
 20
-7.621319565347928
 10
7.848289201508148
 20
-6.859122090042016
 10
8.278927286328756
 20
-5.832445451778236
 10
8.28476660431521
 20
-4.729968800425013
 97
        0
 97
        0
 75
     2
 76
     1
 98
        0
  0
SPLINE
  5
47
330
1F
100
AcDbEntity
  8
Layer 1
370
     0
100
AcDbSpline
210
0.0
220
0.0
230
1.0
 70
    11
 71
     3
 72
    26
 73
    22
 74
     0
 42
0.0000000001
 43
0.0000000001
 12
1.0
 22
0.0
 32
0.0
 13
1.0
 23
0.0
 33
0.0
 40
0.0
 40
0.0
 40
0.0
 40
0.0
 40
1.0
 40
1.0
 40
1.0
 40
2.0
 40
2.0
 40
2.0
 40
3.0
 40
3.0
 40
3.0
 40
4.0
 40
4.0
 40
4.0
 40
5.0
 40
5.0
 40
5.0
 40
6.0
 40
6.0
 40
6.0
 40
7.0
 40
7.0
 40
7.0
 40
7.0
 10
7.206212045512252
 20
-1.285513362956383
 30
0.0
 10
7.240907197474193
 20
-1.285513362956383
 30
0.0
 10
7.276733456935921
 20
-1.270954308541996
 30
0.0
 10
7.307478520301199
 20
-1.241619362732485
 30
0.0
 10
7.307478520301199
 20
-1.241619362732485
 30
0.0
 10
8.527632668048884
 20
0.3446670574961546
 30
0.0
 10
8.527632668048884
 20
0.3446670574961546
 30
0.0
 10
8.568430449418429
 20
0.4072090380551445
 30
0.0
 10
8.554552388633637
 20
0.486292582565789
 30
0.0
 10
8.495400700385566
 20
0.5286067705021398
 30
0.0
 10
8.432236489060642
 20
0.5738172809655755
 30
0.0
 10
8.354853909059784
 20
0.5593821333972452
 30
0.0
 10
8.30268726985984
 20
0.4922246228217849
 30
0.0
 10
8.30268726985984
 20
0.4922246228217849
 30
0.0
 10
7.103117879682435
 20
-1.077458280032185
 30
0.0
 10
7.103117879682435
 20
-1.077458280032185
 30
0.0
 10
7.062258142684388
 20
-1.136902589439084
 30
0.0
 10
7.071489531331407
 20
-1.210193488895407
 30
0.0
 10
7.125561719568395
 20
-1.255527906204912
 30
0.0
 10
7.149290311824668
 20
-1.275507885135287
 30
0.0
 10
7.177371700443877
 20
-1.285513362956383
 30
0.0
 10
7.206212045512252
 20
-1.285513362956383
 30
0.0
  0
HATCH
  5
48
330
1F
100
AcDbEntity
  8
Layer 1
 62
     7
420
 16777215
100
AcDbHatch
 10
0.0
 20
0.0
 30
0.0
210
0.0
220
0.0
230
1.0
  2
SOLID
 70
     1
 71
     0
 91
        1
 92
        1
 93
        1
 72
     4
 94
        3
 73
     0
 74
     1
 95
       26
 96
       22
 40
0.0
 40
0.0
 40
0.0
 40
0.0
 40
1.0
 40
1.0
 40
1.0
 40
2.0
 40
2.0
 40
2.0
 40
3.0
 40
3.0
 40
3.0
 40
4.0
 40
4.0
 40
4.0
 40
5.0
 40
5.0
 40
5.0
 40
6.0
 40
6.0
 40
6.0
 40
7.0
 40
7.0
 40
7.0
 40
7.0
 10
7.206212045512252
 20
-1.285513362956383
 10
7.240907197474193
 20
-1.285513362956383
 10
7.276733456935921
 20
-1.270954308541996
 10
7.307478520301199
 20
-1.241619362732485
 10
7.307478520301199
 20
-1.241619362732485
 10
8.527632668048884
 20
0.3446670574961546
 10
8.527632668048884
 20
0.3446670574961546
 10
8.568430449418429
 20
0.4072090380551445
 10
8.554552388633637
 20
0.486292582565789
 10
8.495400700385566
 20
0.5286067705021398
 10
8.432236489060642
 20
0.5738172809655755
 10
8.354853909059784
 20
0.5593821333972452
 10
8.30268726985984
 20
0.4922246228217849
 10
8.30268726985984
 20
0.4922246228217849
 10
7.103117879682435
 20
-1.077458280032185
 10
7.103117879682435
 20
-1.077458280032185
 10
7.062258142684388
 20
-1.136902589439084
 10
7.071489531331407
 20
-1.210193488895407
 10
7.125561719568395
 20
-1.255527906204912
 10
7.149290311824668
 20
-1.275507885135287
 10
7.177371700443877
 20
-1.285513362956383
 10
7.206212045512252
 20
-1.285513362956383
 97
        0
 97
        0
 75
     2
 76
     1
 98
        0
  0
SPLINE
  5
49
330
1F
100
AcDbEntity
  8
Layer 1
370
     0
100
AcDbSpline
210
0.0
220
0.0
230
1.0
 70
    11
 71
     3
 72
    26
 73
    22
 74
     0
 42
0.0000000001
 43
0.0000000001
 12
1.0
 22
0.0
 32
0.0
 13
1.0
 23
0.0
 33
0.0
 40
0.0
 40
0.0
 40
0.0
 40
0.0
 40
1.0
 40
1.0
 40
1.0
 40
2.0
 40
2.0
 40
2.0
 40
3.0
 40
3.0
 40
3.0
 40
4.0
 40
4.0
 40
4.0
 40
5.0
 40
5.0
 40
5.0
 40
6.0
 40
6.0
 40
6.0
 40
7.0
 40
7.0
 40
7.0
 40
7.0
 10
8.328166522081903
 20
-3.099122380674758
 30
0.0
 10
8.344801608335096
 20
-3.156522227121387
 30
0.0
 10
8.395218001029788
 20
-3.19231581728281
 30
0.0
 10
8.455423383028068
 20
-3.19231581728281
 30
0.0
 10
8.46406619320429
 20
-3.19231581728281
 30
0.0
 10
8.472925848080296
 20
-3.191587864561926
 30
0.0
 10
8.481893925306167
 20
-3.190070005697534
 30
0.0
 10
8.481893925306167
 20
-3.190070005697534
 30
0.0
 10
10.38371487566347
 20
-2.550060168982365
 30
0.0
 10
10.38371487566347
 20
-2.550060168982365
 30
0.0
 10
10.45242416517807
 20
-2.520802664951778
 30
0.0
 10
10.48491939482392
 20
-2.447372370293503
 30
0.0
 10
10.45930074243771
 20
-2.379301046728339
 30
0.0
 10
10.43196282136056
 20
-2.306474797944752
 30
0.0
 10
10.35958315836137
 20
-2.275560039847821
 30
0.0
 10
10.27897888567832
 20
-2.302246476822233
 30
0.0
 10
10.27897888567832
 20
-2.302246476822233
 30
0.0
 10
8.40866281828956
 20
-2.938647526645329
 30
0.0
 10
8.40866281828956
 20
-2.938647526645329
 30
0.0
 10
8.341610893467152
 20
-2.965333963619729
 30
0.0
 10
8.308495610032043
 20
-3.03129887080172
 30
0.0
 10
8.328166522081903
 20
-3.099122380674758
 30
0.0
  0
HATCH
  5
4A
330
1F
100
AcDbEntity
  8
Layer 1
 62
     7
420
 16777215
100
AcDbHatch
 10
0.0
 20
0.0
 30
0.0
210
0.0
220
0.0
230
1.0
  2
SOLID
 70
     1
 71
     0
 91
        1
 92
        1
 93
        1
 72
     4
 94
        3
 73
     0
 74
     1
 95
       26
 96
       22
 40
0.0
 40
0.0
 40
0.0
 40
0.0
 40
1.0
 40
1.0
 40
1.0
 40
2.0
 40
2.0
 40
2.0
 40
3.0
 40
3.0
 40
3.0
 40
4.0
 40
4.0
 40
4.0
 40
5.0
 40
5.0
 40
5.0
 40
6.0
 40
6.0
 40
6.0
 40
7.0
 40
7.0
 40
7.0
 40
7.0
 10
8.328166522081903
 20
-3.099122380674758
 10
8.344801608335096
 20
-3.156522227121387
 10
8.395218001029788
 20
-3.19231581728281
 10
8.455423383028068
 20
-3.19231581728281
 10
8.46406619320429
 20
-3.19231581728281
 10
8.472925848080296
 20
-3.191587864561926
 10
8.481893925306167
 20
-3.190070005697534
 10
8.481893925306167
 20
-3.190070005697534
 10
10.38371487566347
 20
-2.550060168982365
 10
10.38371487566347
 20
-2.550060168982365
 10
10.45242416517807
 20
-2.520802664951778
 10
10.48491939482392
 20
-2.447372370293503
 10
10.45930074243771
 20
-2.379301046728339
 10
10.43196282136056
 20
-2.306474797944752
 10
10.35958315836137
 20
-2.275560039847821
 10
10.27897888567832
 20
-2.302246476822233
 10
10.27897888567832
 20
-2.302246476822233
 10
8.40866281828956
 20
-2.938647526645329
 10
8.40866281828956
 20
-2.938647526645329
 10
8.341610893467152
 20
-2.965333963619729
 10
8.308495610032043
 20
-3.03129887080172
 10
8.328166522081903
 20
-3.099122380674758
 97
        0
 97
        0
 75
     2
 76
     1
 98
        0
  0
SPLINE
  5
4B
330
1F
100
AcDbEntity
  8
Layer 1
370
     0
100
AcDbSpline
210
0.0
220
0.0
230
1.0
 70
    11
 71
     3
 72
    26
 73
    22
 74
     0
 42
0.0000000001
 43
0.0000000001
 12
1.0
 22
0.0
 32
0.0
 13
1.0
 23
0.0
 33
0.0
 40
0.0
 40
0.0
 40
0.0
 40
0.0
 40
1.0
 40
1.0
 40
1.0
 40
2.0
 40
2.0
 40
2.0
 40
3.0
 40
3.0
 40
3.0
 40
4.0
 40
4.0
 40
4.0
 40
5.0
 40
5.0
 40
5.0
 40
6.0
 40
6.0
 40
6.0
 40
7.0
 40
7.0
 40
7.0
 40
7.0
 10
9.515298319837205
 20
-8.642017698288175
 30
0.0
 10
9.515298319837205
 20
-8.642017698288175
 30
0.0
 10
7.99628570909585
 20
-7.378400193607932
 30
0.0
 10
7.99628570909585
 20
-7.378400193607932
 30
0.0
 10
7.938543063330599
 20
-7.335094750902954
 30
0.0
 10
7.864955265575569
 20
-7.341290093206958
 30
0.0
 10
7.817435298513399
 20
-7.39348585211807
 30
0.0
 10
7.771402266535309
 20
-7.443900450116896
 30
0.0
 10
7.772455512219873
 20
-7.517392698198212
 30
0.0
 10
7.823801670441829
 20
-7.575845752836484
 30
0.0
 10
7.823801670441829
 20
-7.575845752836484
 30
0.0
 10
9.358380201745023
 20
-8.86049644463891
 30
0.0
 10
9.358380201745023
 20
-8.86049644463891
 30
0.0
 10
9.383487720196046
 20
-8.878416472253269
 30
0.0
 10
9.411785953515011
 20
-8.887043486411635
 30
0.0
 10
9.43954207508457
 20
-8.887043486411635
 30
0.0
 10
9.478961343719927
 20
-8.887043486411635
 30
0.0
 10
9.517218944320827
 20
-8.869526156047135
 30
0.0
 10
9.543472641899168
 20
-8.835838982269049
 30
0.0
 10
9.591333364918126
 20
-8.774551558526683
 30
0.0
 10
9.58002646271623
 20
-8.696645129053902
 30
0.0
 10
9.515298319837205
 20
-8.642017698288175
 30
0.0
  0
HATCH
  5
4C
330
1F
100
AcDbEntity
  8
Layer 1
 62
     7
420
 16777215
100
AcDbHatch
 10
0.0
 20
0.0
 30
0.0
210
0.0
220
0.0
230
1.0
  2
SOLID
 70
     1
 71
     0
 91
        1
 92
        1
 93
        1
 72
     4
 94
        3
 73
     0
 74
     1
 95
       26
 96
       22
 40
0.0
 40
0.0
 40
0.0
 40
0.0
 40
1.0
 40
1.0
 40
1.0
 40
2.0
 40
2.0
 40
2.0
 40
3.0
 40
3.0
 40
3.0
 40
4.0
 40
4.0
 40
4.0
 40
5.0
 40
5.0
 40
5.0
 40
6.0
 40
6.0
 40
6.0
 40
7.0
 40
7.0
 40
7.0
 40
7.0
 10
9.515298319837205
 20
-8.642017698288175
 10
9.515298319837205
 20
-8.642017698288175
 10
7.99628570909585
 20
-7.378400193607932
 10
7.99628570909585
 20
-7.378400193607932
 10
7.938543063330599
 20
-7.335094750902954
 10
7.864955265575569
 20
-7.341290093206958
 10
7.817435298513399
 20
-7.39348585211807
 10
7.771402266535309
 20
-7.443900450116896
 10
7.772455512219873
 20
-7.517392698198212
 10
7.823801670441829
 20
-7.575845752836484
 10
7.823801670441829
 20
-7.575845752836484
 10
9.358380201745023
 20
-8.86049644463891
 10
9.358380201745023
 20
-8.86049644463891
 10
9.383487720196046
 20
-8.878416472253269
 10
9.411785953515011
 20
-8.887043486411635
 10
9.43954207508457
 20
-8.887043486411635
 10
9.478961343719927
 20
-8.887043486411635
 10
9.517218944320827
 20
-8.869526156047135
 10
9.543472641899168
 20
-8.835838982269049
 10
9.591333364918126
 20
-8.774551558526683
 10
9.58002646271623
 20
-8.696645129053902
 10
9.515298319837205
 20
-8.642017698288175
 97
        0
 97
        0
 75
     2
 76
     1
 98
        0
  0
SPLINE
  5
4D
330
1F
100
AcDbEntity
  8
Layer 1
370
     0
100
AcDbSpline
210
0.0
220
0.0
230
1.0
 70
    11
 71
     3
 72
    26
 73
    22
 74
     0
 42
0.0000000001
 43
0.0000000001
 12
1.0
 22
0.0
 32
0.0
 13
1.0
 23
0.0
 33
0.0
 40
0.0
 40
0.0
 40
0.0
 40
0.0
 40
1.0
 40
1.0
 40
1.0
 40
2.0
 40
2.0
 40
2.0
 40
3.0
 40
3.0
 40
3.0
 40
4.0
 40
4.0
 40
4.0
 40
5.0
 40
5.0
 40
5.0
 40
6.0
 40
6.0
 40
6.0
 40
7.0
 40
7.0
 40
7.0
 40
7.0
 10
6.198333759961492
 20
-8.831099545406383
 30
0.0
 10
6.169725747777344
 20
-8.764855847821005
 30
0.0
 10
6.102829156210671
 20
-8.733352532205016
 30
0.0
 10
6.035638275401298
 20
-8.755438927518854
 30
0.0
 10
5.970615841644328
 20
-8.776332719439072
 30
0.0
 10
5.935068798892416
 20
-8.840593907487321
 30
0.0
 10
5.950650639854757
 20
-8.916905036316923
 30
0.0
 10
5.950650639854757
 20
-8.916905036316923
 30
0.0
 10
6.645529096462824
 20
-10.79358263869007
 30
0.0
 10
6.645529096462824
 20
-10.79358263869007
 30
0.0
 10
6.668979301851398
 20
-10.84452384078466
 30
0.0
 10
6.716700624706188
 20
-10.87430794891129
 30
0.0
 10
6.767550706800446
 20
-10.87430794891129
 30
0.0
 10
6.784418126660512
 20
-10.87430794891129
 30
0.0
 10
6.801657280291591
 20
-10.87102441749009
 30
0.0
 10
6.818431766708929
 20
-10.86416307588838
 30
0.0
 10
6.890377740308597
 20
-10.83470422323277
 30
0.0
 10
6.919202596469833
 20
-10.7614133237766
 30
0.0
 10
6.890067962166086
 20
-10.68160182654522
 30
0.0
 10
6.890067962166086
 20
-10.68160182654522
 30
0.0
 10
6.198333759961492
 20
-8.831099545406383
 30
0.0
 10
6.198333759961492
 20
-8.831099545406383
 30
0.0
  0
HATCH
  5
4E
330
1F
100
AcDbEntity
  8
Layer 1
 62
     7
420
 16777215
100
AcDbHatch
 10
0.0
 20
0.0
 30
0.0
210
0.0
220
0.0
230
1.0
  2
SOLID
 70
     1
 71
     0
 91
        1
 92
        1
 93
        1
 72
     4
 94
        3
 73
     0
 74
     1
 95
       26
 96
       22
 40
0.0
 40
0.0
 40
0.0
 40
0.0
 40
1.0
 40
1.0
 40
1.0
 40
2.0
 40
2.0
 40
2.0
 40
3.0
 40
3.0
 40
3.0
 40
4.0
 40
4.0
 40
4.0
 40
5.0
 40
5.0
 40
5.0
 40
6.0
 40
6.0
 40
6.0
 40
7.0
 40
7.0
 40
7.0
 40
7.0
 10
6.198333759961492
 20
-8.831099545406383
 10
6.169725747777344
 20
-8.764855847821005
 10
6.102829156210671
 20
-8.733352532205016
 10
6.035638275401298
 20
-8.755438927518854
 10
5.970615841644328
 20
-8.776332719439072
 10
5.935068798892416
 20
-8.840593907487321
 10
5.950650639854757
 20
-8.916905036316923
 10
5.950650639854757
 20
-8.916905036316923
 10
6.645529096462824
 20
-10.79358263869007
 10
6.645529096462824
 20
-10.79358263869007
 10
6.668979301851398
 20
-10.84452384078466
 10
6.716700624706188
 20
-10.87430794891129
 10
6.767550706800446
 20
-10.87430794891129
 10
6.784418126660512
 20
-10.87430794891129
 10
6.801657280291591
 20
-10.87102441749009
 10
6.818431766708929
 20
-10.86416307588838
 10
6.890377740308597
 20
-10.83470422323277
 10
6.919202596469833
 20
-10.7614133237766
 10
6.890067962166086
 20
-10.68160182654522
 10
6.890067962166086
 20
-10.68160182654522
 10
6.198333759961492
 20
-8.831099545406383
 10
6.198333759961492
 20
-8.831099545406383
 97
        0
 97
        0
 75
     2
 76
     1
 98
        0
  0
SPLINE
  5
4F
330
1F
100
AcDbEntity
  8
Layer 1
370
     0
100
AcDbSpline
210
0.0
220
0.0
230
1.0
 70
    11
 71
     3
 72
    26
 73
    22
 74
     0
 42
0.0000000001
 43
0.0000000001
 12
1.0
 22
0.0
 32
0.0
 13
1.0
 23
0.0
 33
0.0
 40
0.0
 40
0.0
 40
0.0
 40
0.0
 40
1.0
 40
1.0
 40
1.0
 40
2.0
 40
2.0
 40
2.0
 40
3.0
 40
3.0
 40
3.0
 40
4.0
 40
4.0
 40
4.0
 40
5.0
 40
5.0
 40
5.0
 40
6.0
 40
6.0
 40
6.0
 40
7.0
 40
7.0
 40
7.0
 40
7.0
 10
3.754431976274772
 20
-9.223342155028678
 30
0.0
 10
3.687612829245836
 20
-9.209046402662175
 30
0.0
 10
3.624929220523907
 20
-9.247922175619907
 30
0.0
 10
3.600936902779772
 20
-9.322002981220015
 30
0.0
 10
3.600936902779772
 20
-9.322002981220015
 30
0.0
 10
3.281075473643038
 20
-11.29748080498616
 30
0.0
 10
3.281075473643038
 20
-11.29748080498616
 30
0.0
 10
3.274848932821088
 20
-11.37188686605729
 30
0.0
 10
3.32461479267378
 20
-11.43495545071204
 30
0.0
 10
3.396855057333823
 20
-11.4441090689663
 30
0.0
 10
3.403282953953344
 20
-11.44489897510996
 30
0.0
 10
3.409633406035406
 20
-11.4453016723598
 30
0.0
 10
3.415828969042271
 20
-11.4453016723598
 30
0.0
 10
3.483887228672681
 20
-11.4453016723598
 30
0.0
 10
3.536317180618223
 20
-11.39725679279228
 30
0.0
 10
3.549033573689889
 20
-11.32074431533768
 30
0.0
 10
3.549033573689889
 20
-11.32074431533768
 30
0.0
 10
3.858734279495366
 20
-9.369397349845686
 30
0.0
 10
3.858734279495366
 20
-9.369397349845686
 30
0.0
 10
3.86650971106893
 20
-9.297686262676784
 30
0.0
 10
3.823605437246417
 20
-9.237575953972156
 30
0.0
 10
3.754431976274772
 20
-9.223342155028678
 30
0.0
  0
HATCH
  5
50
330
1F
100
AcDbEntity
  8
Layer 1
 62
     7
420
 16777215
100
AcDbHatch
 10
0.0
 20
0.0
 30
0.0
210
0.0
220
0.0
230
1.0
  2
SOLID
 70
     1
 71
     0
 91
        1
 92
        1
 93
        1
 72
     4
 94
        3
 73
     0
 74
     1
 95
       26
 96
       22
 40
0.0
 40
0.0
 40
0.0
 40
0.0
 40
1.0
 40
1.0
 40
1.0
 40
2.0
 40
2.0
 40
2.0
 40
3.0
 40
3.0
 40
3.0
 40
4.0
 40
4.0
 40
4.0
 40
5.0
 40
5.0
 40
5.0
 40
6.0
 40
6.0
 40
6.0
 40
7.0
 40
7.0
 40
7.0
 40
7.0
 10
3.754431976274772
 20
-9.223342155028678
 10
3.687612829245836
 20
-9.209046402662175
 10
3.624929220523907
 20
-9.247922175619907
 10
3.600936902779772
 20
-9.322002981220015
 10
3.600936902779772
 20
-9.322002981220015
 10
3.281075473643038
 20
-11.29748080498616
 10
3.281075473643038
 20
-11.29748080498616
 10
3.274848932821088
 20
-11.37188686605729
 10
3.32461479267378
 20
-11.43495545071204
 10
3.396855057333823
 20
-11.4441090689663
 10
3.403282953953344
 20
-11.44489897510996
 10
3.409633406035406
 20
-11.4453016723598
 10
3.415828969042271
 20
-11.4453016723598
 10
3.483887228672681
 20
-11.4453016723598
 10
3.536317180618223
 20
-11.39725679279228
 10
3.549033573689889
 20
-11.32074431533768
 10
3.549033573689889
 20
-11.32074431533768
 10
3.858734279495366
 20
-9.369397349845686
 10
3.858734279495366
 20
-9.369397349845686
 10
3.86650971106893
 20
-9.297686262676784
 10
3.823605437246417
 20
-9.237575953972156
 10
3.754431976274772
 20
-9.223342155028678
 97
        0
 97
        0
 75
     2
 76
     1
 98
        0
  0
SPLINE
  5
51
330
1F
100
AcDbEntity
  8
Layer 1
370
     0
100
AcDbSpline
210
0.0
220
0.0
230
1.0
 70
    11
 71
     3
 72
    26
 73
    22
 74
     0
 42
0.0000000001
 43
0.0000000001
 12
1.0
 22
0.0
 32
0.0
 13
1.0
 23
0.0
 33
0.0
 40
0.0
 40
0.0
 40
0.0
 40
0.0
 40
1.0
 40
1.0
 40
1.0
 40
2.0
 40
2.0
 40
2.0
 40
3.0
 40
3.0
 40
3.0
 40
4.0
 40
4.0
 40
4.0
 40
5.0
 40
5.0
 40
5.0
 40
6.0
 40
6.0
 40
6.0
 40
7.0
 40
7.0
 40
7.0
 40
7.0
 10
1.487940139289574
 20
-8.389232243929149
 30
0.0
 10
1.487940139289574
 20
-8.389232243929149
 30
0.0
 10
0.2257335768091858
 20
-9.942249675985243
 30
0.0
 10
0.2257335768091858
 20
-9.942249675985243
 30
0.0
 10
0.1832165256745384
 20
-10.00359905315079
 30
0.0
 10
0.194910650849983
 20
-10.08308529491112
 30
0.0
 10
0.2529785651317474
 20
-10.12697929513502
 30
0.0
 10
0.2780241285870741
 20
-10.14595253094103
 30
0.0
 10
0.3056098728751395
 20
-10.1551835909741
 30
0.0
 10
0.3331181726256192
 20
-10.1551835909741
 30
0.0
 10
0.3738539993957172
 20
-10.1551835909741
 30
0.0
 10
0.4144504259981608
 20
-10.13495579835146
 30
0.0
 10
0.4465899090961961
 20
-10.09580123499008
 30
0.0
 10
0.4465899090961961
 20
-10.09580123499008
 30
0.0
 10
1.687809001890906
 20
-8.55887620456848
 30
0.0
 10
1.687809001890906
 20
-8.55887620456848
 30
0.0
 10
1.730279586302938
 20
-8.500547056776389
 30
0.0
 10
1.723030777584881
 20
-8.427070297050856
 30
0.0
 10
1.670213602951485
 20
-8.38020253252105
 30
0.0
 10
1.61902276360729
 20
-8.334728720009732
 30
0.0
 10
1.545605341975943
 20
-8.336974531594882
 30
0.0
 10
1.487940139289574
 20
-8.389232243929149
 30
0.0
  0
HATCH
  5
52
330
1F
100
AcDbEntity
  8
Layer 1
 62
     7
420
 16777215
100
AcDbHatch
 10
0.0
 20
0.0
 30
0.0
210
0.0
220
0.0
230
1.0
  2
SOLID
 70
     1
 71
     0
 91
        1
 92
        1
 93
        1
 72
     4
 94
        3
 73
     0
 74
     1
 95
       26
 96
       22
 40
0.0
 40
0.0
 40
0.0
 40
0.0
 40
1.0
 40
1.0
 40
1.0
 40
2.0
 40
2.0
 40
2.0
 40
3.0
 40
3.0
 40
3.0
 40
4.0
 40
4.0
 40
4.0
 40
5.0
 40
5.0
 40
5.0
 40
6.0
 40
6.0
 40
6.0
 40
7.0
 40
7.0
 40
7.0
 40
7.0
 10
1.487940139289574
 20
-8.389232243929149
 10
1.487940139289574
 20
-8.389232243929149
 10
0.2257335768091858
 20
-9.942249675985243
 10
0.2257335768091858
 20
-9.942249675985243
 10
0.1832165256745384
 20
-10.00359905315079
 10
0.194910650849983
 20
-10.08308529491112
 10
0.2529785651317474
 20
-10.12697929513502
 10
0.2780241285870741
 20
-10.14595253094103
 10
0.3056098728751395
 20
-10.1551835909741
 10
0.3331181726256192
 20
-10.1551835909741
 10
0.3738539993957172
 20
-10.1551835909741
 10
0.4144504259981608
 20
-10.13495579835146
 10
0.4465899090961961
 20
-10.09580123499008
 10
0.4465899090961961
 20
-10.09580123499008
 10
1.687809001890906
 20
-8.55887620456848
 10
1.687809001890906
 20
-8.55887620456848
 10
1.730279586302938
 20
-8.500547056776389
 10
1.723030777584881
 20
-8.427070297050856
 10
1.670213602951485
 20
-8.38020253252105
 10
1.61902276360729
 20
-8.334728720009732
 10
1.545605341975943
 20
-8.336974531594882
 10
1.487940139289574
 20
-8.389232243929149
 97
        0
 97
        0
 75
     2
 76
     1
 98
        0
  0
SPLINE
  5
53
330
1F
100
AcDbEntity
  8
Layer 1
370
     0
100
AcDbSpline
210
0.0
220
0.0
230
1.0
 70
    11
 71
     3
 72
    32
 73
    28
 74
     0
 42
0.0000000001
 43
0.0000000001
 12
1.0
 22
0.0
 32
0.0
 13
1.0
 23
0.0
 33
0.0
 40
0.0
 40
0.0
 40
0.0
 40
0.0
 40
1.0
 40
1.0
 40
1.0
 40
2.0
 40
2.0
 40
2.0
 40
3.0
 40
3.0
 40
3.0
 40
4.0
 40
4.0
 40
4.0
 40
5.0
 40
5.0
 40
5.0
 40
6.0
 40
6.0
 40
6.0
 40
7.0
 40
7.0
 40
7.0
 40
8.0
 40
8.0
 40
8.0
 40
9.0
 40
9.0
 40
9.0
 40
9.0
 10
7.88444031073992
 20
-1.987151367240573
 30
0.0
 10
7.887662003422115
 20
-2.030394856522523
 30
0.0
 10
7.912118987773864
 20
-2.067752770615597
 30
0.0
 10
7.951491789687831
 20
-2.089901119352463
 30
0.0
 10
7.951491789687831
 20
-2.089901119352463
 30
0.0
 10
7.951894935608607
 20
-2.090102467977456
 30
0.0
 10
7.951894935608607
 20
-2.090102467977456
 30
0.0
 10
7.974260483162854
 20
-2.102229850537343
 30
0.0
 10
7.995557730460935
 20
-2.107108682601822
 30
0.0
 10
8.015584887374668
 20
-2.107108682601822
 30
0.0
 10
8.055298445245423
 20
-2.107108682601822
 30
0.0
 10
8.090009086114504
 20
-2.08791860981522
 30
0.0
 10
8.118183408176467
 20
-2.068620118538307
 30
0.0
 10
8.118183408176467
 20
-2.068620118538307
 30
0.0
 10
8.810738912495555
 20
-1.591857551533596
 30
0.0
 10
8.810738912495555
 20
-1.591857551533596
 30
0.0
 10
8.865678066071041
 20
-1.547498900636962
 30
0.0
 10
8.877108879529917
 20
-1.473015397787043
 30
0.0
 10
8.837937433408595
 20
-1.41476369177374
 30
0.0
 10
8.799695321714808
 20
-1.357813007644204
 30
0.0
 10
8.730010728555524
 20
-1.341085583423339
 30
0.0
 10
8.660310646489101
 20
-1.375423268143272
 30
0.0
 10
8.660310646489101
 20
-1.375423268143272
 30
0.0
 10
7.94038624327858
 20
-1.868123353224923
 30
0.0
 10
7.94038624327858
 20
-1.868123353224923
 30
0.0
 10
7.901401097102684
 20
-1.898449553803074
 30
0.0
 10
7.881001773357992
 20
-1.941878903354109
 30
0.0
 10
7.88444031073992
 20
-1.987151367240573
 30
0.0
  0
HATCH
  5
54
330
1F
100
AcDbEntity
  8
Layer 1
 62
     7
420
 16777215
100
AcDbHatch
 10
0.0
 20
0.0
 30
0.0
210
0.0
220
0.0
230
1.0
  2
SOLID
 70
     1
 71
     0
 91
        1
 92
        1
 93
        1
 72
     4
 94
        3
 73
     0
 74
     1
 95
       32
 96
       28
 40
0.0
 40
0.0
 40
0.0
 40
0.0
 40
1.0
 40
1.0
 40
1.0
 40
2.0
 40
2.0
 40
2.0
 40
3.0
 40
3.0
 40
3.0
 40
4.0
 40
4.0
 40
4.0
 40
5.0
 40
5.0
 40
5.0
 40
6.0
 40
6.0
 40
6.0
 40
7.0
 40
7.0
 40
7.0
 40
8.0
 40
8.0
 40
8.0
 40
9.0
 40
9.0
 40
9.0
 40
9.0
 10
7.88444031073992
 20
-1.987151367240573
 10
7.887662003422115
 20
-2.030394856522523
 10
7.912118987773864
 20
-2.067752770615597
 10
7.951491789687831
 20
-2.089901119352463
 10
7.951491789687831
 20
-2.089901119352463
 10
7.951894935608607
 20
-2.090102467977456
 10
7.951894935608607
 20
-2.090102467977456
 10
7.974260483162854
 20
-2.102229850537343
 10
7.995557730460935
 20
-2.107108682601822
 10
8.015584887374668
 20
-2.107108682601822
 10
8.055298445245423
 20
-2.107108682601822
 10
8.090009086114504
 20
-2.08791860981522
 10
8.118183408176467
 20
-2.068620118538307
 10
8.118183408176467
 20
-2.068620118538307
 10
8.810738912495555
 20
-1.591857551533596
 10
8.810738912495555
 20
-1.591857551533596
 10
8.865678066071041
 20
-1.547498900636962
 10
8.877108879529917
 20
-1.473015397787043
 10
8.837937433408595
 20
-1.41476369177374
 10
8.799695321714808
 20
-1.357813007644204
 10
8.730010728555524
 20
-1.341085583423339
 10
8.660310646489101
 20
-1.375423268143272
 10
8.660310646489101
 20
-1.375423268143272
 10
7.94038624327858
 20
-1.868123353224923
 10
7.94038624327858
 20
-1.868123353224923
 10
7.901401097102684
 20
-1.898449553803074
 10
7.881001773357992
 20
-1.941878903354109
 10
7.88444031073992
 20
-1.987151367240573
 97
        0
 97
        0
 75
     2
 76
     1
 98
        0
  0
SPLINE
  5
55
330
1F
100
AcDbEntity
  8
Layer 1
370
     0
100
AcDbSpline
210
0.0
220
0.0
230
1.0
 70
    11
 71
     3
 72
    29
 73
    25
 74
     0
 42
0.0000000001
 43
0.0000000001
 12
1.0
 22
0.0
 32
0.0
 13
1.0
 23
0.0
 33
0.0
 40
0.0
 40
0.0
 40
0.0
 40
0.0
 40
1.0
 40
1.0
 40
1.0
 40
2.0
 40
2.0
 40
2.0
 40
3.0
 40
3.0
 40
3.0
 40
4.0
 40
4.0
 40
4.0
 40
5.0
 40
5.0
 40
5.0
 40
6.0
 40
6.0
 40
6.0
 40
7.0
 40
7.0
 40
7.0
 40
8.0
 40
8.0
 40
8.0
 40
8.0
 10
8.866437022520206
 20
-4.275075791753541
 30
0.0
 10
8.868683371548968
 20
-4.275075791753541
 30
0.0
 10
8.87091331667956
 20
-4.275013838330501
 30
0.0
 10
8.87309725258433
 20
-4.275013838330501
 30
0.0
 10
8.87309725258433
 20
-4.275013838330501
 30
0.0
 10
9.713850620283766
 20
-4.260315388714162
 30
0.0
 10
9.713850620283766
 20
-4.260315388714162
 30
0.0
 10
9.784139280820984
 20
-4.253732837516205
 30
0.0
 10
9.834865451658212
 20
-4.197912803357124
 30
0.0
 10
9.83440078444442
 20
-4.127657621629725
 30
0.0
 10
9.833998072859155
 20
-4.059168112458969
 30
0.0
 10
9.785223504319776
 20
-4.00664709807682
 30
0.0
 10
9.7080577690187
 20
-3.996765527101779
 30
0.0
 10
9.7080577690187
 20
-3.996765527101779
 30
0.0
 10
8.835784475318102
 20
-4.009605374026933
 30
0.0
 10
8.835784475318102
 20
-4.009605374026933
 30
0.0
 10
8.786560728472068
 20
-4.013430997899629
 30
0.0
 10
8.745561591309903
 20
-4.0382743205386
 30
0.0
 10
8.723350498491401
 20
-4.077955487995874
 30
0.0
 10
8.702223629171714
 20
-4.115716099338644
 30
0.0
 10
8.701898362122064
 20
-4.160477447485265
 30
0.0
 10
8.722715453299239
 20
-4.20107242793223
 30
0.0
 10
8.756760071161908
 20
-4.265256174201681
 30
0.0
 10
8.816376874689366
 20
-4.275075791753541
 30
0.0
 10
8.866437022520206
 20
-4.275075791753541
 30
0.0
  0
HATCH
  5
56
330
1F
100
AcDbEntity
  8
Layer 1
 62
     7
420
 16777215
100
AcDbHatch
 10
0.0
 20
0.0
 30
0.0
210
0.0
220
0.0
230
1.0
  2
SOLID
 70
     1
 71
     0
 91
        1
 92
        1
 93
        1
 72
     4
 94
        3
 73
     0
 74
     1
 95
       29
 96
       25
 40
0.0
 40
0.0
 40
0.0
 40
0.0
 40
1.0
 40
1.0
 40
1.0
 40
2.0
 40
2.0
 40
2.0
 40
3.0
 40
3.0
 40
3.0
 40
4.0
 40
4.0
 40
4.0
 40
5.0
 40
5.0
 40
5.0
 40
6.0
 40
6.0
 40
6.0
 40
7.0
 40
7.0
 40
7.0
 40
8.0
 40
8.0
 40
8.0
 40
8.0
 10
8.866437022520206
 20
-4.275075791753541
 10
8.868683371548968
 20
-4.275075791753541
 10
8.87091331667956
 20
-4.275013838330501
 10
8.87309725258433
 20
-4.275013838330501
 10
8.87309725258433
 20
-4.275013838330501
 10
9.713850620283766
 20
-4.260315388714162
 10
9.713850620283766
 20
-4.260315388714162
 10
9.784139280820984
 20
-4.253732837516205
 10
9.834865451658212
 20
-4.197912803357124
 10
9.83440078444442
 20
-4.127657621629725
 10
9.833998072859155
 20
-4.059168112458969
 10
9.785223504319776
 20
-4.00664709807682
 10
9.7080577690187
 20
-3.996765527101779
 10
9.7080577690187
 20
-3.996765527101779
 10
8.835784475318102
 20
-4.009605374026933
 10
8.835784475318102
 20
-4.009605374026933
 10
8.786560728472068
 20
-4.013430997899629
 10
8.745561591309903
 20
-4.0382743205386
 10
8.723350498491401
 20
-4.077955487995874
 10
8.702223629171714
 20
-4.115716099338644
 10
8.701898362122064
 20
-4.160477447485265
 10
8.722715453299239
 20
-4.20107242793223
 10
8.756760071161908
 20
-4.265256174201681
 10
8.816376874689366
 20
-4.275075791753541
 10
8.866437022520206
 20
-4.275075791753541
 97
        0
 97
        0
 75
     2
 76
     1
 98
        0
  0
SPLINE
  5
57
330
1F
100
AcDbEntity
  8
Layer 1
370
     0
100
AcDbSpline
210
0.0
220
0.0
230
1.0
 70
    11
 71
     3
 72
    32
 73
    28
 74
     0
 42
0.0000000001
 43
0.0000000001
 12
1.0
 22
0.0
 32
0.0
 13
1.0
 23
0.0
 33
0.0
 40
0.0
 40
0.0
 40
0.0
 40
0.0
 40
1.0
 40
1.0
 40
1.0
 40
2.0
 40
2.0
 40
2.0
 40
3.0
 40
3.0
 40
3.0
 40
4.0
 40
4.0
 40
4.0
 40
5.0
 40
5.0
 40
5.0
 40
6.0
 40
6.0
 40
6.0
 40
7.0
 40
7.0
 40
7.0
 40
8.0
 40
8.0
 40
8.0
 40
9.0
 40
9.0
 40
9.0
 40
9.0
 10
8.51586109863322
 20
-6.473105799435238
 30
0.0
 10
8.481196924485504
 20
-6.499017818621773
 30
0.0
 10
8.462719105524457
 20
-6.539674752491767
 30
0.0
 10
8.465212372331608
 20
-6.584761356109134
 30
0.0
 10
8.465212372331608
 20
-6.584761356109134
 30
0.0
 10
8.465212372331608
 20
-6.585210518426114
 30
0.0
 10
8.465212372331608
 20
-6.585210518426114
 30
0.0
 10
8.47038566731165
 20
-6.661072484938763
 30
0.0
 10
8.525262865258608
 20
-6.693892310794277
 30
0.0
 10
8.572488543085404
 20
-6.713996196570734
 30
0.0
 10
8.572488543085404
 20
-6.713996196570734
 30
0.0
 10
9.34631434309396
 20
-7.042937896201793
 30
0.0
 10
9.34631434309396
 20
-7.042937896201793
 30
0.0
 10
9.36118369393479
 20
-7.047940635112354
 30
0.0
 10
9.376176956032648
 20
-7.050387795322472
 30
0.0
 10
9.390798484359467
 20
-7.050387795322472
 30
0.0
 10
9.441849922246345
 20
-7.050387795322472
 30
0.0
 10
9.488440554880954
 20
-7.020990896089895
 30
0.0
 10
9.51041931409256
 20
-6.970963506985021
 30
0.0
 10
9.53794310205525
 20
-6.908158224378136
 30
0.0
 10
9.514740719180685
 20
-6.840334714505085
 30
0.0
 10
9.448308796517823
 20
-6.799879129259958
 30
0.0
 10
9.448308796517823
 20
-6.799879129259958
 30
0.0
 10
8.646432585704309
 20
-6.456502282060582
 30
0.0
 10
8.646432585704309
 20
-6.456502282060582
 30
0.0
 10
8.5998419530697
 20
-6.439898764685899
 30
0.0
 10
8.552352963821779
 20
-6.446032153566748
 30
0.0
 10
8.51586109863322
 20
-6.473105799435238
 30
0.0
  0
HATCH
  5
58
330
1F
100
AcDbEntity
  8
Layer 1
 62
     7
420
 16777215
100
AcDbHatch
 10
0.0
 20
0.0
 30
0.0
210
0.0
220
0.0
230
1.0
  2
SOLID
 70
     1
 71
     0
 91
        1
 92
        1
 93
        1
 72
     4
 94
        3
 73
     0
 74
     1
 95
       32
 96
       28
 40
0.0
 40
0.0
 40
0.0
 40
0.0
 40
1.0
 40
1.0
 40
1.0
 40
2.0
 40
2.0
 40
2.0
 40
3.0
 40
3.0
 40
3.0
 40
4.0
 40
4.0
 40
4.0
 40
5.0
 40
5.0
 40
5.0
 40
6.0
 40
6.0
 40
6.0
 40
7.0
 40
7.0
 40
7.0
 40
8.0
 40
8.0
 40
8.0
 40
9.0
 40
9.0
 40
9.0
 40
9.0
 10
8.51586109863322
 20
-6.473105799435238
 10
8.481196924485504
 20
-6.499017818621773
 10
8.462719105524457
 20
-6.539674752491767
 10
8.465212372331608
 20
-6.584761356109134
 10
8.465212372331608
 20
-6.584761356109134
 10
8.465212372331608
 20
-6.585210518426114
 10
8.465212372331608
 20
-6.585210518426114
 10
8.47038566731165
 20
-6.661072484938763
 10
8.525262865258608
 20
-6.693892310794277
 10
8.572488543085404
 20
-6.713996196570734
 10
8.572488543085404
 20
-6.713996196570734
 10
9.34631434309396
 20
-7.042937896201793
 10
9.34631434309396
 20
-7.042937896201793
 10
9.36118369393479
 20
-7.047940635112354
 10
9.376176956032648
 20
-7.050387795322472
 10
9.390798484359467
 20
-7.050387795322472
 10
9.441849922246345
 20
-7.050387795322472
 10
9.488440554880954
 20
-7.020990896089895
 10
9.51041931409256
 20
-6.970963506985021
 10
9.53794310205525
 20
-6.908158224378136
 10
9.514740719180685
 20
-6.840334714505085
 10
9.448308796517823
 20
-6.799879129259958
 10
9.448308796517823
 20
-6.799879129259958
 10
8.646432585704309
 20
-6.456502282060582
 10
8.646432585704309
 20
-6.456502282060582
 10
8.5998419530697
 20
-6.439898764685899
 10
8.552352963821779
 20
-6.446032153566748
 10
8.51586109863322
 20
-6.473105799435238
 97
        0
 97
        0
 75
     2
 76
     1
 98
        0
  0
SPLINE
  5
59
330
1F
100
AcDbEntity
  8
Layer 1
370
     0
100
AcDbSpline
210
0.0
220
0.0
230
1.0
 70
    11
 71
     3
 72
    32
 73
    28
 74
     0
 42
0.0000000001
 43
0.0000000001
 12
1.0
 22
0.0
 32
0.0
 13
1.0
 23
0.0
 33
0.0
 40
0.0
 40
0.0
 40
0.0
 40
0.0
 40
1.0
 40
1.0
 40
1.0
 40
2.0
 40
2.0
 40
2.0
 40
3.0
 40
3.0
 40
3.0
 40
4.0
 40
4.0
 40
4.0
 40
5.0
 40
5.0
 40
5.0
 40
6.0
 40
6.0
 40
6.0
 40
7.0
 40
7.0
 40
7.0
 40
8.0
 40
8.0
 40
8.0
 40
9.0
 40
9.0
 40
9.0
 40
9.0
 10
7.180066770283777
 20
-8.315910367761312
 30
0.0
 10
7.146455841820625
 20
-8.279729568705937
 30
0.0
 10
7.10150703334135
 20
-8.26324995817721
 30
0.0
 10
7.056620180490578
 20
-8.270436555249843
 30
0.0
 10
7.013886696369783
 20
-8.277483757120686
 30
0.0
 10
6.978726876305877
 20
-8.305099495440674
 30
0.0
 10
6.960140187285307
 20
-8.346221079983682
 30
0.0
 10
6.960140187285307
 20
-8.346221079983682
 30
0.0
 10
6.959938422210875
 20
-8.34662377723339
 30
0.0
 10
6.959938422210875
 20
-8.34662377723339
 30
0.0
 10
6.92958016424417
 20
-8.416290401441882
 30
0.0
 10
6.96312913707882
 20
-8.470716483582489
 30
0.0
 10
6.995795242207274
 20
-8.510397651039613
 30
0.0
 10
6.995795242207274
 20
-8.510397651039613
 30
0.0
 10
7.531138339198782
 20
-9.15870924644211
 30
0.0
 10
7.531138339198782
 20
-9.15870924644211
 30
0.0
 10
7.55773279273391
 20
-9.186402426541209
 30
0.0
 10
7.592102677646229
 20
-9.200434876859667
 30
0.0
 10
7.626735873979669
 20
-9.200434876859667
 30
0.0
 10
7.655793063747801
 20
-9.200434876859667
 30
0.0
 10
7.685021059088032
 20
-9.190553305884805
 30
0.0
 10
7.710004238688346
 20
-9.170387466685193
 30
0.0
 10
7.763301568108469
 20
-9.127407279451239
 30
0.0
 10
7.773973425118204
 20
-9.056563540204934
 30
0.0
 10
7.733640310962427
 20
-8.989994587148532
 30
0.0
 10
7.733640310962427
 20
-8.989994587148532
 30
0.0
 10
7.180066770283777
 20
-8.315910367761312
 30
0.0
 10
7.180066770283777
 20
-8.315910367761312
 30
0.0
  0
HATCH
  5
5A
330
1F
100
AcDbEntity
  8
Layer 1
 62
     7
420
 16777215
100
AcDbHatch
 10
0.0
 20
0.0
 30
0.0
210
0.0
220
0.0
230
1.0
  2
SOLID
 70
     1
 71
     0
 91
        1
 92
        1
 93
        1
 72
     4
 94
        3
 73
     0
 74
     1
 95
       32
 96
       28
 40
0.0
 40
0.0
 40
0.0
 40
0.0
 40
1.0
 40
1.0
 40
1.0
 40
2.0
 40
2.0
 40
2.0
 40
3.0
 40
3.0
 40
3.0
 40
4.0
 40
4.0
 40
4.0
 40
5.0
 40
5.0
 40
5.0
 40
6.0
 40
6.0
 40
6.0
 40
7.0
 40
7.0
 40
7.0
 40
8.0
 40
8.0
 40
8.0
 40
9.0
 40
9.0
 40
9.0
 40
9.0
 10
7.180066770283777
 20
-8.315910367761312
 10
7.146455841820625
 20
-8.279729568705937
 10
7.10150703334135
 20
-8.26324995817721
 10
7.056620180490578
 20
-8.270436555249843
 10
7.013886696369783
 20
-8.277483757120686
 10
6.978726876305877
 20
-8.305099495440674
 10
6.960140187285307
 20
-8.346221079983682
 10
6.960140187285307
 20
-8.346221079983682
 10
6.959938422210875
 20
-8.34662377723339
 10
6.959938422210875
 20
-8.34662377723339
 10
6.92958016424417
 20
-8.416290401441882
 10
6.96312913707882
 20
-8.470716483582489
 10
6.995795242207274
 20
-8.510397651039613
 10
6.995795242207274
 20
-8.510397651039613
 10
7.531138339198782
 20
-9.15870924644211
 10
7.531138339198782
 20
-9.15870924644211
 10
7.55773279273391
 20
-9.186402426541209
 10
7.592102677646229
 20
-9.200434876859667
 10
7.626735873979669
 20
-9.200434876859667
 10
7.655793063747801
 20
-9.200434876859667
 10
7.685021059088032
 20
-9.190553305884805
 10
7.710004238688346
 20
-9.170387466685193
 10
7.763301568108469
 20
-9.127407279451239
 10
7.773973425118204
 20
-9.056563540204934
 10
7.733640310962427
 20
-8.989994587148532
 10
7.733640310962427
 20
-8.989994587148532
 10
7.180066770283777
 20
-8.315910367761312
 10
7.180066770283777
 20
-8.315910367761312
 97
        0
 97
        0
 75
     2
 76
     1
 98
        0
  0
SPLINE
  5
5B
330
1F
100
AcDbEntity
  8
Layer 1
370
     0
100
AcDbSpline
210
0.0
220
0.0
230
1.0
 70
    11
 71
     3
 72
    32
 73
    28
 74
     0
 42
0.0000000001
 43
0.0000000001
 12
1.0
 22
0.0
 32
0.0
 13
1.0
 23
0.0
 33
0.0
 40
0.0
 40
0.0
 40
0.0
 40
0.0
 40
1.0
 40
1.0
 40
1.0
 40
2.0
 40
2.0
 40
2.0
 40
3.0
 40
3.0
 40
3.0
 40
4.0
 40
4.0
 40
4.0
 40
5.0
 40
5.0
 40
5.0
 40
6.0
 40
6.0
 40
6.0
 40
7.0
 40
7.0
 40
7.0
 40
8.0
 40
8.0
 40
8.0
 40
9.0
 40
9.0
 40
9.0
 40
9.0
 10
5.009978308522831
 20
-9.193976232507794
 30
0.0
 10
4.970729416874418
 20
-9.175715461066778
 30
0.0
 10
4.926105874317525
 20
-9.178751178795538
 30
0.0
 10
4.887615939137302
 20
-9.202339944618162
 30
0.0
 10
4.887615939137302
 20
-9.202339944618162
 30
0.0
 10
4.887259694264407
 20
-9.202603246666031
 30
0.0
 10
4.887259694264407
 20
-9.202603246666031
 30
0.0
 10
4.822996216975753
 20
-9.24301236684404
 30
0.0
 10
4.820053324547467
 20
-9.306870857642428
 30
0.0
 10
4.824669018987606
 20
-9.358075361785065
 30
0.0
 10
4.824669018987606
 20
-9.358075361785065
 30
0.0
 10
4.902020623128237
 20
-10.19534489745971
 30
0.0
 10
4.902020623128237
 20
-10.19534489745971
 30
0.0
 10
4.913188125448161
 20
-10.2610619909493
 30
0.0
 10
4.966810723272551
 20
-10.30613310621106
 30
0.0
 10
5.031662779046883
 20
-10.30613310621106
 30
0.0
 10
5.035488539203621
 20
-10.30613310621106
 30
0.0
 10
5.039329788267903
 20
-10.30594724594195
 30
0.0
 10
5.043263970777186
 20
-10.30560650211515
 30
0.0
 10
5.111539075112836
 20
-10.3002010659549
 30
0.0
 10
5.160282667069319
 20
-10.24761809814961
 30
0.0
 10
5.16440271646891
 20
-10.16985106387864
 30
0.0
 10
5.16440271646891
 20
-10.16985106387864
 30
0.0
 10
5.08652448947262
 20
-9.301078212588259
 30
0.0
 10
5.08652448947262
 20
-9.301078212588259
 30
0.0
 10
5.079105302771975
 20
-9.252165985098044
 30
0.0
 10
5.0511942914261
 20
-9.21315081693865
 30
0.0
 10
5.009978308522831
 20
-9.193976232507794
 30
0.0
  0
HATCH
  5
5C
330
1F
100
AcDbEntity
  8
Layer 1
 62
     7
420
 16777215
100
AcDbHatch
 10
0.0
 20
0.0
 30
0.0
210
0.0
220
0.0
230
1.0
  2
SOLID
 70
     1
 71
     0
 91
        1
 92
        1
 93
        1
 72
     4
 94
        3
 73
     0
 74
     1
 95
       32
 96
       28
 40
0.0
 40
0.0
 40
0.0
 40
0.0
 40
1.0
 40
1.0
 40
1.0
 40
2.0
 40
2.0
 40
2.0
 40
3.0
 40
3.0
 40
3.0
 40
4.0
 40
4.0
 40
4.0
 40
5.0
 40
5.0
 40
5.0
 40
6.0
 40
6.0
 40
6.0
 40
7.0
 40
7.0
 40
7.0
 40
8.0
 40
8.0
 40
8.0
 40
9.0
 40
9.0
 40
9.0
 40
9.0
 10
5.009978308522831
 20
-9.193976232507794
 10
4.970729416874418
 20
-9.175715461066778
 10
4.926105874317525
 20
-9.178751178795538
 10
4.887615939137302
 20
-9.202339944618162
 10
4.887615939137302
 20
-9.202339944618162
 10
4.887259694264407
 20
-9.202603246666031
 10
4.887259694264407
 20
-9.202603246666031
 10
4.822996216975753
 20
-9.24301236684404
 10
4.820053324547467
 20
-9.306870857642428
 10
4.824669018987606
 20
-9.358075361785065
 10
4.824669018987606
 20
-9.358075361785065
 10
4.902020623128237
 20
-10.19534489745971
 10
4.902020623128237
 20
-10.19534489745971
 10
4.913188125448161
 20
-10.2610619909493
 10
4.966810723272551
 20
-10.30613310621106
 10
5.031662779046883
 20
-10.30613310621106
 10
5.035488539203621
 20
-10.30613310621106
 10
5.039329788267903
 20
-10.30594724594195
 10
5.043263970777186
 20
-10.30560650211515
 10
5.111539075112836
 20
-10.3002010659549
 10
5.160282667069319
 20
-10.24761809814961
 10
5.16440271646891
 20
-10.16985106387864
 10
5.16440271646891
 20
-10.16985106387864
 10
5.08652448947262
 20
-9.301078212588259
 10
5.08652448947262
 20
-9.301078212588259
 10
5.079105302771975
 20
-9.252165985098044
 10
5.0511942914261
 20
-9.21315081693865
 10
5.009978308522831
 20
-9.193976232507794
 97
        0
 97
        0
 75
     2
 76
     1
 98
        0
  0
SPLINE
  5
5D
330
1F
100
AcDbEntity
  8
Layer 1
370
     0
100
AcDbSpline
210
0.0
220
0.0
230
1.0
 70
    11
 71
     3
 72
    29
 73
    25
 74
     0
 42
0.0000000001
 43
0.0000000001
 12
1.0
 22
0.0
 32
0.0
 13
1.0
 23
0.0
 33
0.0
 40
0.0
 40
0.0
 40
0.0
 40
0.0
 40
1.0
 40
1.0
 40
1.0
 40
2.0
 40
2.0
 40
2.0
 40
3.0
 40
3.0
 40
3.0
 40
4.0
 40
4.0
 40
4.0
 40
5.0
 40
5.0
 40
5.0
 40
6.0
 40
6.0
 40
6.0
 40
7.0
 40
7.0
 40
7.0
 40
8.0
 40
8.0
 40
8.0
 40
8.0
 10
2.582990411844952
 20
-8.901556075758764
 30
0.0
 10
2.506661075600404
 20
-8.897807893664877
 30
0.0
 10
2.468961074703606
 20
-8.950390861470169
 30
0.0
 10
2.444116867046129
 20
-8.995477465087435
 30
0.0
 10
2.444116867046129
 20
-8.995477465087435
 30
0.0
 10
2.039794425218259
 20
-9.732630269129407
 30
0.0
 10
2.039794425218259
 20
-9.732630269129407
 30
0.0
 10
2.010628812363494
 20
-9.796891457177631
 30
0.0
 10
2.033862173639161
 20
-9.868602544346533
 30
0.0
 10
2.095089825054502
 20
-9.903141577691434
 30
0.0
 10
2.115752027682472
 20
-9.914804309578585
 30
0.0
 10
2.137668831819206
 20
-9.92047304778685
 30
0.0
 10
2.159291346713088
 20
-9.92047304778685
 30
0.0
 10
2.200058151298284
 20
-9.92047304778685
 30
0.0
 10
2.239864643617314
 20
-9.900369162010419
 30
0.0
 10
2.268735967229354
 20
-9.862531108888561
 30
0.0
 10
2.268735967229354
 20
-9.862531108888561
 30
0.0
 10
2.693054588661754
 20
-9.094664895374637
 30
0.0
 10
2.693054588661754
 20
-9.094664895374637
 30
0.0
 10
2.714243414145256
 20
-9.05004294242998
 30
0.0
 10
2.712926857006323
 20
-9.002075504641146
 30
0.0
 10
2.689492139932781
 20
-8.963122289904883
 30
0.0
 10
2.667188113108194
 20
-8.926012189503934
 30
0.0
 10
2.628496822130273
 20
-8.903600538719047
 30
0.0
 10
2.582990411844952
 20
-8.901556075758764
 30
0.0
  0
HATCH
  5
5E
330
1F
100
AcDbEntity
  8
Layer 1
 62
     7
420
 16777215
100
AcDbHatch
 10
0.0
 20
0.0
 30
0.0
210
0.0
220
0.0
230
1.0
  2
SOLID
 70
     1
 71
     0
 91
        1
 92
        1
 93
        1
 72
     4
 94
        3
 73
     0
 74
     1
 95
       29
 96
       25
 40
0.0
 40
0.0
 40
0.0
 40
0.0
 40
1.0
 40
1.0
 40
1.0
 40
2.0
 40
2.0
 40
2.0
 40
3.0
 40
3.0
 40
3.0
 40
4.0
 40
4.0
 40
4.0
 40
5.0
 40
5.0
 40
5.0
 40
6.0
 40
6.0
 40
6.0
 40
7.0
 40
7.0
 40
7.0
 40
8.0
 40
8.0
 40
8.0
 40
8.0
 10
2.582990411844952
 20
-8.901556075758764
 10
2.506661075600404
 20
-8.897807893664877
 10
2.468961074703606
 20
-8.950390861470169
 10
2.444116867046129
 20
-8.995477465087435
 10
2.444116867046129
 20
-8.995477465087435
 10
2.039794425218259
 20
-9.732630269129407
 10
2.039794425218259
 20
-9.732630269129407
 10
2.010628812363494
 20
-9.796891457177631
 10
2.033862173639161
 20
-9.868602544346533
 10
2.095089825054502
 20
-9.903141577691434
 10
2.115752027682472
 20
-9.914804309578585
 10
2.137668831819206
 20
-9.92047304778685
 10
2.159291346713088
 20
-9.92047304778685
 10
2.200058151298284
 20
-9.92047304778685
 10
2.239864643617314
 20
-9.900369162010419
 10
2.268735967229354
 20
-9.862531108888561
 10
2.268735967229354
 20
-9.862531108888561
 10
2.693054588661754
 20
-9.094664895374637
 10
2.693054588661754
 20
-9.094664895374637
 10
2.714243414145256
 20
-9.05004294242998
 10
2.712926857006323
 20
-9.002075504641146
 10
2.689492139932781
 20
-8.963122289904883
 10
2.667188113108194
 20
-8.926012189503934
 10
2.628496822130273
 20
-8.903600538719047
 10
2.582990411844952
 20
-8.901556075758764
 97
        0
 97
        0
 75
     2
 76
     1
 98
        0
  0
SPLINE
  5
5F
330
1F
100
AcDbEntity
  8
Layer 1
370
     0
100
AcDbSpline
210
0.0
220
0.0
230
1.0
 70
    11
 71
     3
 72
    29
 73
    25
 74
     0
 42
0.0000000001
 43
0.0000000001
 12
1.0
 22
0.0
 32
0.0
 13
1.0
 23
0.0
 33
0.0
 40
0.0
 40
0.0
 40
0.0
 40
0.0
 40
1.0
 40
1.0
 40
1.0
 40
2.0
 40
2.0
 40
2.0
 40
3.0
 40
3.0
 40
3.0
 40
4.0
 40
4.0
 40
4.0
 40
5.0
 40
5.0
 40
5.0
 40
6.0
 40
6.0
 40
6.0
 40
7.0
 40
7.0
 40
7.0
 40
8.0
 40
8.0
 40
8.0
 40
8.0
 10
0.8822154330161613
 20
-7.600859447388934
 30
0.0
 10
0.8771195824431288
 20
-7.557817306731825
 30
0.0
 10
0.8510827289066785
 20
-7.52151260083042
 30
0.0
 10
0.8103778799516652
 20
-7.500882110958072
 30
0.0
 10
0.7421027756160027
 20
-7.467396285804827
 30
0.0
 10
0.6862807529242521
 20
-7.498636299372795
 30
0.0
 10
0.64521965909618
 20
-7.529489104046711
 30
0.0
 10
0.64521965909618
 20
-7.529489104046711
 30
0.0
 10
-0.0261935039573776
 20
-8.035648570283835
 30
0.0
 10
-0.0261935039573776
 20
-8.035648570283835
 30
0.0
 10
-0.079212034388623
 20
-8.082237544409963
 30
0.0
 10
-0.0874521331876521
 20
-8.157170209576861
 30
0.0
 10
-0.0458024608740288
 20
-8.213780149879868
 30
0.0
 10
-0.0201373411181673
 20
-8.248644438695539
 30
0.0
 10
0.0174387485185182
 20
-8.266967163559709
 30
0.0
 10
0.057771863693069
 20
-8.266967163559709
 30
0.0
 10
0.0812375585815567
 20
-8.266967163559709
 30
0.0
 10
0.1056635657361969
 20
-8.260771821255705
 30
0.0
 10
0.1292221940696992
 20
-8.247993927753567
 30
0.0
 10
0.1292221940696992
 20
-8.247993927753567
 30
0.0
 10
0.8314118163599585
 20
-7.722195226412749
 30
0.0
 10
0.8314118163599585
 20
-7.722195226412749
 30
0.0
 10
0.8690343727191703
 20
-7.690227260124175
 30
0.0
 10
0.8875591061096707
 20
-7.645946051006326
 30
0.0
 10
0.8822154330161613
 20
-7.600859447388934
 30
0.0
  0
HATCH
  5
60
330
1F
100
AcDbEntity
  8
Layer 1
 62
     7
420
 16777215
100
AcDbHatch
 10
0.0
 20
0.0
 30
0.0
210
0.0
220
0.0
230
1.0
  2
SOLID
 70
     1
 71
     0
 91
        1
 92
        1
 93
        1
 72
     4
 94
        3
 73
     0
 74
     1
 95
       29
 96
       25
 40
0.0
 40
0.0
 40
0.0
 40
0.0
 40
1.0
 40
1.0
 40
1.0
 40
2.0
 40
2.0
 40
2.0
 40
3.0
 40
3.0
 40
3.0
 40
4.0
 40
4.0
 40
4.0
 40
5.0
 40
5.0
 40
5.0
 40
6.0
 40
6.0
 40
6.0
 40
7.0
 40
7.0
 40
7.0
 40
8.0
 40
8.0
 40
8.0
 40
8.0
 10
0.8822154330161613
 20
-7.600859447388934
 10
0.8771195824431288
 20
-7.557817306731825
 10
0.8510827289066785
 20
-7.52151260083042
 10
0.8103778799516652
 20
-7.500882110958072
 10
0.7421027756160027
 20
-7.467396285804827
 10
0.6862807529242521
 20
-7.498636299372795
 10
0.64521965909618
 20
-7.529489104046711
 10
0.64521965909618
 20
-7.529489104046711
 10
-0.0261935039573776
 20
-8.035648570283835
 10
-0.0261935039573776
 20
-8.035648570283835
 10
-0.079212034388623
 20
-8.082237544409963
 10
-0.0874521331876521
 20
-8.157170209576861
 10
-0.0458024608740288
 20
-8.213780149879868
 10
-0.0201373411181673
 20
-8.248644438695539
 10
0.0174387485185182
 20
-8.266967163559709
 10
0.057771863693069
 20
-8.266967163559709
 10
0.0812375585815567
 20
-8.266967163559709
 10
0.1056635657361969
 20
-8.260771821255705
 10
0.1292221940696992
 20
-8.247993927753567
 10
0.1292221940696992
 20
-8.247993927753567
 10
0.8314118163599585
 20
-7.722195226412749
 10
0.8314118163599585
 20
-7.722195226412749
 10
0.8690343727191703
 20
-7.690227260124175
 10
0.8875591061096707
 20
-7.645946051006326
 10
0.8822154330161613
 20
-7.600859447388934
 97
        0
 97
        0
 75
     2
 76
     1
 98
        0
  0
ENDSEC
  0
SECTION
  2
OBJECTS
  0
DICTIONARY
  5
C
330
0
100
AcDbDictionary
281
     1
  3
ACAD_GROUP
350
D
  3
ACAD_LAYOUT
350
1A
  3
ACAD_MATERIAL
350
3B
  3
ACAD_MLEADERSTYLE
350
62
  3
ACAD_MLINESTYLE
350
17
  3
ACAD_PLOTSETTINGS
350
19
  3
ACAD_PLOTSTYLENAME
350
E
  3
ACAD_TABLESTYLE
350
61
  3
ACAD_VISUALSTYLE
350
2A
  0
SUN
  5
3F
330
29
100
AcDbSun
 90
        1
290
     0
 63
     7
421
 16777215
 40
1.0
291
     1
 91
  2455826
 92
 54000000
292
     0
 70
     2
 71
   256
280
     1
  0
DICTIONARY
  5
D
102
{ACAD_REACTORS
330
C
102
}
330
C
100
AcDbDictionary
281
     1
  0
DICTIONARY
  5
1A
102
{ACAD_REACTORS
330
C
102
}
330
C
100
AcDbDictionary
281
     1
  3
Layout1
350
1E
  3
Layout2
350
26
  3
Model
350
22
  0
DICTIONARY
  5
3B
102
{ACAD_REACTORS
330
C
102
}
330
C
100
AcDbDictionary
281
     1
  3
ByBlock
350
3D
  3
ByLayer
350
3C
  3
Global
350
3E
  0
DICTIONARY
  5
62
102
{ACAD_REACTORS
330
C
102
}
330
C
100
AcDbDictionary
281
     1
  0
DICTIONARY
  5
17
102
{ACAD_REACTORS
330
C
102
}
330
C
100
AcDbDictionary
281
     1
  3
Standard
350
18
  0
DICTIONARY
  5
19
102
{ACAD_REACTORS
330
C
102
}
330
C
100
AcDbDictionary
281
     1
  0
ACDBDICTIONARYWDFLT
  5
E
102
{ACAD_REACTORS
330
C
102
}
330
C
100
AcDbDictionary
281
     1
  3
Normal
350
F
100
AcDbDictionaryWithDefault
340
F
  0
DICTIONARY
  5
61
102
{ACAD_REACTORS
330
C
102
}
330
C
100
AcDbDictionary
281
     1
  0
DICTIONARY
  5
2A
102
{ACAD_REACTORS
330
C
102
}
330
C
100
AcDbDictionary
281
     1
  3
2dWireframe
350
2F
  3
3D Hidden
350
31
  3
3dWireframe
350
30
  3
Basic
350
32
  3
Brighten
350
36
  3
ColorChange
350
3A
  3
Conceptual
350
34
  3
Dim
350
35
  3
Facepattern
350
39
  3
Flat
350
2B
  3
FlatWithEdges
350
2C
  3
Gouraud
350
2D
  3
GouraudWithEdges
350
2E
  3
Linepattern
350
38
  3
Realistic
350
33
  3
Thicken
350
37
  0
LAYOUT
  5
1E
102
{ACAD_REACTORS
330
1A
102
}
330
1A
100
AcDbPlotSettings
  1

  2
none_device
  4

  6

 40
0.0
 41
0.0
 42
0.0
 43
0.0
 44
0.0
 45
0.0
 46
0.0
 47
0.0
 48
0.0
 49
0.0
140
0.0
141
0.0
142
1.0
143
1.0
 70
   688
 72
     0
 73
     0
 74
     5
  7

 75
    16
 76
     0
 77
     2
 78
   300
147
1.0
148
0.0
149
0.0
100
AcDbLayout
  1
Layout1
 70
     1
 71
     1
 10
0.0
 20
0.0
 11
12.0
 21
9.0
 12
0.0
 22
0.0
 32
0.0
 14
1.000000000000000E+20
 24
1.000000000000000E+20
 34
1.000000000000000E+20
 15
-1.000000000000000E+20
 25
-1.000000000000000E+20
 35
-1.000000000000000E+20
146
0.0
 13
0.0
 23
0.0
 33
0.0
 16
1.0
 26
0.0
 36
0.0
 17
0.0
 27
1.0
 37
0.0
 76
     0
330
1B
  0
LAYOUT
  5
26
102
{ACAD_REACTORS
330
1A
102
}
330
1A
100
AcDbPlotSettings
  1

  2
none_device
  4

  6

 40
0.0
 41
0.0
 42
0.0
 43
0.0
 44
0.0
 45
0.0
 46
0.0
 47
0.0
 48
0.0
 49
0.0
140
0.0
141
0.0
142
1.0
143
1.0
 70
   688
 72
     0
 73
     0
 74
     5
  7

 75
    16
 76
     0
 77
     2
 78
   300
147
1.0
148
0.0
149
0.0
100
AcDbLayout
  1
Layout2
 70
     1
 71
     2
 10
0.0
 20
0.0
 11
0.0
 21
0.0
 12
0.0
 22
0.0
 32
0.0
 14
0.0
 24
0.0
 34
0.0
 15
0.0
 25
0.0
 35
0.0
146
0.0
 13
0.0
 23
0.0
 33
0.0
 16
1.0
 26
0.0
 36
0.0
 17
0.0
 27
1.0
 37
0.0
 76
     0
330
23
  0
LAYOUT
  5
22
102
{ACAD_REACTORS
330
1A
102
}
330
1A
100
AcDbPlotSettings
  1

  2
none_device
  4

  6

 40
0.0
 41
0.0
 42
0.0
 43
0.0
 44
0.0
 45
0.0
 46
0.0
 47
0.0
 48
0.0
 49
0.0
140
0.0
141
0.0
142
1.0
143
1.0
 70
  1712
 72
     0
 73
     0
 74
     0
  7

 75
     0
 76
     0
 77
     2
 78
   300
147
1.0
148
0.0
149
0.0
100
AcDbLayout
  1
Model
 70
     1
 71
     0
 10
0.0
 20
0.0
 11
12.0
 21
9.0
 12
0.0
 22
0.0
 32
0.0
 14
1.000000000000000E+20
 24
1.000000000000000E+20
 34
1.000000000000000E+20
 15
-1.000000000000000E+20
 25
-1.000000000000000E+20
 35
-1.000000000000000E+20
146
0.0
 13
0.0
 23
0.0
 33
0.0
 16
1.0
 26
0.0
 36
0.0
 17
0.0
 27
1.0
 37
0.0
 76
     0
330
1F
331
29
  0
MATERIAL
  5
3D
102
{ACAD_REACTORS
330
3B
102
}
330
3B
100
AcDbMaterial
  1
ByBlock
 72
     1
 94
      127
  0
MATERIAL
  5
3C
102
{ACAD_REACTORS
330
3B
102
}
330
3B
100
AcDbMaterial
  1
ByLayer
 72
     1
 94
      127
  0
MATERIAL
  5
3E
102
{ACAD_REACTORS
330
3B
102
}
330
3B
100
AcDbMaterial
  1
Global
 72
     1
 94
      127
  0
MLINESTYLE
  5
18
102
{ACAD_REACTORS
330
17
102
}
330
17
100
AcDbMlineStyle
  2
Standard
 70
     0
  3

 62
   256
 51
90.0
 52
90.0
 71
     2
 49
0.5
 62
   256
  6
BYLAYER
 49
-0.5
 62
   256
  6
BYLAYER
  0
ACDBPLACEHOLDER
  5
F
102
{ACAD_REACTORS
330
E
102
}
330
E
  0
VISUALSTYLE
  5
2F
102
{ACAD_REACTORS
330
2A
102
}
330
2A
100
AcDbVisualStyle
  2
2dWireframe
 70
     4
177
     2
291
     0
 71
     0
176
     1
 72
     2
176
     1
 73
     0
176
     1
 90
        0
176
     1
 40
-0.6
176
     1
 41
-30.0
176
     1
 62
     5
 63
     7
421
 16777215
176
     1
 74
     1
176
     1
 91
        4
176
     1
 64
     7
176
     1
 65
   257
176
     1
 75
     1
176
     1
175
     1
176
     1
 42
1.0
176
     1
 92
        0
176
     1
 66
   257
176
     1
 43
1.0
176
     1
 76
     1
176
     1
 77
     6
176
     1
 78
     2
176
     1
 67
     7
176
     1
 79
     5
176
     1
170
     0
176
     1
171
     0
176
     1
290
     0
176
     1
 93
        1
176
     1
 44
0.0
176
     1
173
     0
176
     1
  0
VISUALSTYLE
  5
31
102
{ACAD_REACTORS
330
2A
102
}
330
2A
100
AcDbVisualStyle
  2
3D Hidden
 70
     6
177
     2
291
     0
 71
     1
176
     1
 72
     2
176
     1
 73
     2
176
     1
 90
        0
176
     1
 40
-0.6
176
     1
 41
-30.0
176
     1
 62
     5
 63
     7
421
 16777215
176
     1
 74
     2
176
     1
 91
        2
176
     1
 64
     7
176
     1
 65
   257
176
     1
 75
     2
176
     1
175
     1
176
     1
 42
40.0
176
     1
 92
        0
176
     1
 66
   257
176
     1
 43
1.0
176
     1
 76
     1
176
     1
 77
     6
176
     1
 78
     2
176
     1
 67
     7
176
     1
 79
     3
176
     1
170
     0
176
     1
171
     0
176
     1
290
     0
176
     1
 93
        1
176
     1
 44
0.0
176
     1
173
     0
176
     1
  0
VISUALSTYLE
  5
30
102
{ACAD_REACTORS
330
2A
102
}
330
2A
100
AcDbVisualStyle
  2
3dWireframe
 70
     5
177
     2
291
     0
 71
     0
176
     1
 72
     2
176
     1
 73
     0
176
     1
 90
        0
176
     1
 40
-0.6
176
     1
 41
-30.0
176
     1
 62
     5
 63
     7
421
 16777215
176
     1
 74
     1
176
     1
 91
        4
176
     1
 64
     7
176
     1
 65
   257
176
     1
 75
     1
176
     1
175
     1
176
     1
 42
1.0
176
     1
 92
        0
176
     1
 66
   257
176
     1
 43
1.0
176
     1
 76
     1
176
     1
 77
     6
176
     1
 78
     2
176
     1
 67
     7
176
     1
 79
     5
176
     1
170
     0
176
     1
171
     0
176
     1
290
     0
176
     1
 93
        1
176
     1
 44
0.0
176
     1
173
     0
176
     1
  0
VISUALSTYLE
  5
32
102
{ACAD_REACTORS
330
2A
102
}
330
2A
100
AcDbVisualStyle
  2
Basic
 70
     7
177
     2
291
     1
 71
     1
176
     1
 72
     0
176
     1
 73
     1
176
     1
 90
        0
176
     1
 40
-0.6
176
     1
 41
-30.0
176
     1
 62
     5
 63
     7
421
 16777215
176
     1
 74
     0
176
     1
 91
        4
176
     1
 64
     7
176
     1
 65
   257
176
     1
 75
     1
176
     1
175
     1
176
     1
 42
1.0
176
     1
 92
        8
176
     1
 66
     7
176
     1
 43
1.0
176
     1
 76
     1
176
     1
 77
     6
176
     1
 78
     2
176
     1
 67
     7
176
     1
 79
     5
176
     1
170
     0
176
     1
171
     0
176
     1
290
     0
176
     1
 93
        1
176
     1
 44
0.0
176
     1
173
     0
176
     1
  0
VISUALSTYLE
  5
36
102
{ACAD_REACTORS
330
2A
102
}
330
2A
100
AcDbVisualStyle
  2
Brighten
 70
    12
177
     2
291
     1
 71
     2
176
     1
 72
     2
176
     1
 73
     0
176
     1
 90
        0
176
     1
 40
-0.6
176
     1
 41
-30.0
176
     1
 62
     5
 63
     7
421
 16777215
176
     1
 74
     1
176
     1
 91
        4
176
     1
 64
     7
176
     1
 65
   257
176
     1
 75
     1
176
     1
175
     1
176
     1
 42
1.0
176
     1
 92
        8
176
     1
 66
     7
176
     1
 43
1.0
176
     1
 76
     1
176
     1
 77
     6
176
     1
 78
     2
176
     1
 67
     7
176
     1
 79
     5
176
     1
170
     0
176
     1
171
     0
176
     1
290
     0
176
     1
 93
        1
176
     1
 44
50.0
176
     1
173
     0
176
     1
  0
VISUALSTYLE
  5
3A
102
{ACAD_REACTORS
330
2A
102
}
330
2A
100
AcDbVisualStyle
  2
ColorChange
 70
    16
177
     2
291
     1
 71
     2
176
     1
 72
     2
176
     1
 73
     3
176
     1
 90
        0
176
     1
 40
-0.6
176
     1
 41
-30.0
176
     1
 62
     5
 63
     8
421
  8421504
176
     1
 74
     1
176
     1
 91
        4
176
     1
 64
     7
176
     1
 65
   257
176
     1
 75
     1
176
     1
175
     1
176
     1
 42
1.0
176
     1
 92
        8
176
     1
 66
     8
424
  8421504
176
     1
 43
1.0
176
     1
 76
     1
176
     1
 77
     6
176
     1
 78
     2
176
     1
 67
     7
176
     1
 79
     5
176
     1
170
     0
176
     1
171
     0
176
     1
290
     0
176
     1
 93
        1
176
     1
 44
0.0
176
     1
173
     0
176
     1
  0
VISUALSTYLE
  5
34
102
{ACAD_REACTORS
330
2A
102
}
330
2A
100
AcDbVisualStyle
  2
Conceptual
 70
     9
177
     2
291
     0
 71
     3
176
     1
 72
     2
176
     1
 73
     0
176
     1
 90
        0
176
     1
 40
-0.6
176
     1
 41
-30.0
176
     1
 62
     5
 63
     7
421
 16777215
176
     1
 74
     2
176
     1
 91
        2
176
     1
 64
     7
176
     1
 65
   257
176
     1
 75
     1
176
     1
175
     1
176
     1
 42
40.0
176
     1
 92
        8
176
     1
 66
     7
176
     1
 43
1.0
176
     1
 76
     1
176
     1
 77
     6
176
     1
 78
     2
176
     1
 67
     7
176
     1
 79
     3
176
     1
170
     0
176
     1
171
     0
176
     1
290
     0
176
     1
 93
        1
176
     1
 44
0.0
176
     1
173
     0
176
     1
  0
VISUALSTYLE
  5
35
102
{ACAD_REACTORS
330
2A
102
}
330
2A
100
AcDbVisualStyle
  2
Dim
 70
    11
177
     2
291
     1
 71
     2
176
     1
 72
     2
176
     1
 73
     0
176
     1
 90
        0
176
     1
 40
-0.6
176
     1
 41
-30.0
176
     1
 62
     5
 63
     7
421
 16777215
176
     1
 74
     1
176
     1
 91
        4
176
     1
 64
     7
176
     1
 65
   257
176
     1
 75
     1
176
     1
175
     1
176
     1
 42
1.0
176
     1
 92
        8
176
     1
 66
     7
176
     1
 43
1.0
176
     1
 76
     1
176
     1
 77
     6
176
     1
 78
     2
176
     1
 67
     7
176
     1
 79
     5
176
     1
170
     0
176
     1
171
     0
176
     1
290
     0
176
     1
 93
        1
176
     1
 44
-50.0
176
     1
173
     0
176
     1
  0
VISUALSTYLE
  5
39
102
{ACAD_REACTORS
330
2A
102
}
330
2A
100
AcDbVisualStyle
  2
Facepattern
 70
    15
177
     2
291
     1
 71
     2
176
     1
 72
     2
176
     1
 73
     0
176
     1
 90
        0
176
     1
 40
-0.6
176
     1
 41
-30.0
176
     1
 62
     5
 63
     7
421
 16777215
176
     1
 74
     1
176
     1
 91
        4
176
     1
 64
     7
176
     1
 65
   257
176
     1
 75
     1
176
     1
175
     1
176
     1
 42
1.0
176
     1
 92
        8
176
     1
 66
     7
176
     1
 43
1.0
176
     1
 76
     1
176
     1
 77
     6
176
     1
 78
     2
176
     1
 67
     7
176
     1
 79
     5
176
     1
170
     0
176
     1
171
     0
176
     1
290
     0
176
     1
 93
        1
176
     1
 44
0.0
176
     1
173
     0
176
     1
  0
VISUALSTYLE
  5
2B
102
{ACAD_REACTORS
330
2A
102
}
330
2A
100
AcDbVisualStyle
  2
Flat
 70
     0
177
     2
291
     1
 71
     2
176
     1
 72
     1
176
     1
 73
     1
176
     1
 90
        2
176
     1
 40
-0.6
176
     1
 41
30.0
176
     1
 62
     5
 63
     7
421
 16777215
176
     1
 74
     0
176
     1
 91
        4
176
     1
 64
     7
176
     1
 65
   257
176
     1
 75
     1
176
     1
175
     1
176
     1
 42
1.0
176
     1
 92
        8
176
     1
 66
     7
176
     1
 43
1.0
176
     1
 76
     1
176
     1
 77
     6
176
     1
 78
     2
176
     1
 67
     7
176
     1
 79
     5
176
     1
170
     0
176
     1
171
     0
176
     1
290
     0
176
     1
 93
       13
176
     1
 44
0.0
176
     1
173
     0
176
     1
  0
VISUALSTYLE
  5
2C
102
{ACAD_REACTORS
330
2A
102
}
330
2A
100
AcDbVisualStyle
  2
FlatWithEdges
 70
     1
177
     2
291
     1
 71
     2
176
     1
 72
     1
176
     1
 73
     1
176
     1
 90
        2
176
     1
 40
-0.6
176
     1
 41
30.0
176
     1
 62
     5
 63
     7
421
 16777215
176
     1
 74
     1
176
     1
 91
        4
176
     1
 64
     7
176
     1
 65
   257
176
     1
 75
     1
176
     1
175
     1
176
     1
 42
1.0
176
     1
 92
        0
176
     1
 66
   257
176
     1
 43
1.0
176
     1
 76
     1
176
     1
 77
     6
176
     1
 78
     2
176
     1
 67
     7
176
     1
 79
     5
176
     1
170
     0
176
     1
171
     0
176
     1
290
     0
176
     1
 93
       13
176
     1
 44
0.0
176
     1
173
     0
176
     1
  0
VISUALSTYLE
  5
2D
102
{ACAD_REACTORS
330
2A
102
}
330
2A
100
AcDbVisualStyle
  2
Gouraud
 70
     2
177
     2
291
     1
 71
     2
176
     1
 72
     2
176
     1
 73
     1
176
     1
 90
        2
176
     1
 40
-0.6
176
     1
 41
30.0
176
     1
 62
     5
 63
     7
421
 16777215
176
     1
 74
     0
176
     1
 91
        4
176
     1
 64
     7
176
     1
 65
   257
176
     1
 75
     1
176
     1
175
     1
176
     1
 42
1.0
176
     1
 92
        0
176
     1
 66
     7
176
     1
 43
1.0
176
     1
 76
     1
176
     1
 77
     6
176
     1
 78
     2
176
     1
 67
     7
176
     1
 79
     5
176
     1
170
     0
176
     1
171
     0
176
     1
290
     0
176
     1
 93
       13
176
     1
 44
0.0
176
     1
173
     0
176
     1
  0
VISUALSTYLE
  5
2E
102
{ACAD_REACTORS
330
2A
102
}
330
2A
100
AcDbVisualStyle
  2
GouraudWithEdges
 70
     3
177
     2
291
     1
 71
     2
176
     1
 72
     2
176
     1
 73
     1
176
     1
 90
        2
176
     1
 40
-0.6
176
     1
 41
30.0
176
     1
 62
     5
 63
     7
421
 16777215
176
     1
 74
     1
176
     1
 91
        4
176
     1
 64
     7
176
     1
 65
   257
176
     1
 75
     1
176
     1
175
     1
176
     1
 42
1.0
176
     1
 92
        0
176
     1
 66
   257
176
     1
 43
1.0
176
     1
 76
     1
176
     1
 77
     6
176
     1
 78
     2
176
     1
 67
     7
176
     1
 79
     5
176
     1
170
     0
176
     1
171
     0
176
     1
290
     0
176
     1
 93
       13
176
     1
 44
0.0
176
     1
173
     0
176
     1
  0
VISUALSTYLE
  5
38
102
{ACAD_REACTORS
330
2A
102
}
330
2A
100
AcDbVisualStyle
  2
Linepattern
 70
    14
177
     2
291
     1
 71
     2
176
     1
 72
     2
176
     1
 73
     0
176
     1
 90
        0
176
     1
 40
-0.6
176
     1
 41
-30.0
176
     1
 62
     5
 63
     7
421
 16777215
176
     1
 74
     1
176
     1
 91
        4
176
     1
 64
     7
176
     1
 65
   257
176
     1
 75
     7
176
     1
175
     7
176
     1
 42
1.0
176
     1
 92
        8
176
     1
 66
     7
176
     1
 43
1.0
176
     1
 76
     1
176
     1
 77
     6
176
     1
 78
     2
176
     1
 67
     7
176
     1
 79
     5
176
     1
170
     0
176
     1
171
     0
176
     1
290
     0
176
     1
 93
        1
176
     1
 44
0.0
176
     1
173
     0
176
     1
  0
VISUALSTYLE
  5
33
102
{ACAD_REACTORS
330
2A
102
}
330
2A
100
AcDbVisualStyle
  2
Realistic
 70
     8
177
     2
291
     0
 71
     2
176
     1
 72
     2
176
     1
 73
     0
176
     1
 90
        0
176
     1
 40
-0.6
176
     1
 41
-30.0
176
     1
 62
     5
 63
     7
421
 16777215
176
     1
 74
     1
176
     1
 91
        0
176
     1
 64
     7
176
     1
 65
   257
176
     1
 75
     1
176
     1
175
     1
176
     1
 42
1.0
176
     1
 92
        8
176
     1
 66
     8
424
  7895160
176
     1
 43
1.0
176
     1
 76
     1
176
     1
 77
     6
176
     1
 78
     2
176
     1
 67
     7
176
     1
 79
     5
176
     1
170
     0
176
     1
171
     0
176
     1
290
     0
176
     1
 93
       13
176
     1
 44
0.0
176
     1
173
     0
176
     1
  0
VISUALSTYLE
  5
37
102
{ACAD_REACTORS
330
2A
102
}
330
2A
100
AcDbVisualStyle
  2
Thicken
 70
    13
177
     2
291
     1
 71
     2
176
     1
 72
     2
176
     1
 73
     0
176
     1
 90
        0
176
     1
 40
-0.6
176
     1
 41
-30.0
176
     1
 62
     5
 63
     7
421
 16777215
176
     1
 74
     1
176
     1
 91
        4
176
     1
 64
     7
176
     1
 65
   257
176
     1
 75
     1
176
     1
175
     1
176
     1
 42
1.0
176
     1
 92
       12
176
     1
 66
     7
176
     1
 43
1.0
176
     1
 76
     1
176
     1
 77
     6
176
     1
 78
     2
176
     1
 67
     7
176
     1
 79
     5
176
     1
170
     0
176
     1
171
     0
176
     1
290
     0
176
     1
 93
        1
176
     1
 44
0.0
176
     1
173
     0
176
     1
  0
ENDSEC
  0
EOF
