  0
SECTION
  2
HEADER
  9
$ACADVER
  1
AC1024
  9
$ACADMAINTVER
 70
     6
  9
$DWGCODEPAGE
  3
ANSI_1251
  9
$INSBASE
 10
0.0
 20
0.0
 30
0.0
  9
$EXTMIN
 10
1.000000000000000E+20
 20
1.000000000000000E+20
 30
1.000000000000000E+20
  9
$EXTMAX
 10
-1.000000000000000E+20
 20
-1.000000000000000E+20
 30
-1.000000000000000E+20
  9
$LIMMIN
 10
0.0
 20
0.0
  9
$LIMMAX
 10
12.0
 20
9.0
  9
$ORTHOMODE
 70
     0
  9
$REGENMODE
 70
     1
  9
$FILLMODE
 70
     1
  9
$QTEXTMODE
 70
     0
  9
$MIRRTEXT
 70
     1
  9
$LTSCALE
 40
1.0
  9
$ATTMODE
 70
     1
  9
$TEXTSIZE
 40
0.2
  9
$TRACEWID
 40
0.05
  9
$TEXTSTYLE
  7
Standard
  9
$CLAYER
  8
0
  9
$CELTYPE
  6
ByLayer
  9
$CECOLOR
 62
   256
  9
$CELTSCALE
 40
1.0
  9
$DISPSILH
 70
     0
  9
$DIMSCALE
 40
1.0
  9
$DIMASZ
 40
0.18
  9
$DIMEXO
 40
0.0625
  9
$DIMDLI
 40
0.38
  9
$DIMRND
 40
0.0
  9
$DIMDLE
 40
0.0
  9
$DIMEXE
 40
0.18
  9
$DIMTP
 40
0.0
  9
$DIMTM
 40
0.0
  9
$DIMTXT
 40
0.18
  9
$DIMCEN
 40
0.09
  9
$DIMTSZ
 40
0.0
  9
$DIMTOL
 70
     0
  9
$DIMLIM
 70
     0
  9
$DIMTIH
 70
     1
  9
$DIMTOH
 70
     1
  9
$DIMSE1
 70
     0
  9
$DIMSE2
 70
     0
  9
$DIMTAD
 70
     0
  9
$DIMZIN
 70
     0
  9
$DIMBLK
  1

  9
$DIMASO
 70
     1
  9
$DIMSHO
 70
     1
  9
$DIMPOST
  1

  9
$DIMAPOST
  1

  9
$DIMALT
 70
     0
  9
$DIMALTD
 70
     2
  9
$DIMALTF
 40
25.4
  9
$DIMLFAC
 40
1.0
  9
$DIMTOFL
 70
     0
  9
$DIMTVP
 40
0.0
  9
$DIMTIX
 70
     0
  9
$DIMSOXD
 70
     0
  9
$DIMSAH
 70
     0
  9
$DIMBLK1
  1

  9
$DIMBLK2
  1

  9
$DIMSTYLE
  2
Standard
  9
$DIMCLRD
 70
     0
  9
$DIMCLRE
 70
     0
  9
$DIMCLRT
 70
     0
  9
$DIMTFAC
 40
1.0
  9
$DIMGAP
 40
0.09
  9
$DIMJUST
 70
     0
  9
$DIMSD1
 70
     0
  9
$DIMSD2
 70
     0
  9
$DIMTOLJ
 70
     1
  9
$DIMTZIN
 70
     0
  9
$DIMALTZ
 70
     0
  9
$DIMALTTZ
 70
     0
  9
$DIMUPT
 70
     0
  9
$DIMDEC
 70
     4
  9
$DIMTDEC
 70
     4
  9
$DIMALTU
 70
     2
  9
$DIMALTTD
 70
     2
  9
$DIMTXSTY
  7
Standard
  9
$DIMAUNIT
 70
     0
  9
$DIMADEC
 70
     0
  9
$DIMALTRND
 40
0.0
  9
$DIMAZIN
 70
     0
  9
$DIMDSEP
 70
    46
  9
$DIMATFIT
 70
     3
  9
$DIMFRAC
 70
     0
  9
$DIMLDRBLK
  1

  9
$DIMLUNIT
 70
     2
  9
$DIMLWD
 70
    -2
  9
$DIMLWE
 70
    -2
  9
$DIMTMOVE
 70
     0
  9
$DIMFXL
 40
1.0
  9
$DIMFXLON
 70
     0
  9
$DIMJOGANG
 40
0.7853981633974483
  9
$DIMTFILL
 70
     0
  9
$DIMTFILLCLR
 70
     0
  9
$DIMARCSYM
 70
     0
  9
$DIMLTYPE
  6

  9
$DIMLTEX1
  6

  9
$DIMLTEX2
  6

  9
$DIMTXTDIRECTION
 70
     0
  9
$LUNITS
 70
     2
  9
$LUPREC
 70
     4
  9
$SKETCHINC
 40
0.1
  9
$FILLETRAD
 40
0.5
  9
$AUNITS
 70
     0
  9
$AUPREC
 70
     0
  9
$MENU
  1
.
  9
$ELEVATION
 40
0.0
  9
$PELEVATION
 40
0.0
  9
$THICKNESS
 40
0.0
  9
$LIMCHECK
 70
     0
  9
$CHAMFERA
 40
0.5
  9
$CHAMFERB
 40
0.5
  9
$CHAMFERC
 40
1.0
  9
$CHAMFERD
 40
0.0
  9
$SKPOLY
 70
     0
  9
$TDCREATE
 40
2459337.639998021
  9
$TDUCREATE
 40
2459337.514998021
  9
$TDUPDATE
 40
2459337.639998021
  9
$TDUUPDATE
 40
2459337.514998021
  9
$TDINDWG
 40
0.0000000116
  9
$TDUSRTIMER
 40
0.0000000116
  9
$USRTIMER
 70
     1
  9
$ANGBASE
 50
0.0
  9
$ANGDIR
 70
     0
  9
$PDMODE
 70
     0
  9
$PDSIZE
 40
0.0
  9
$PLINEWID
 40
0.0
  9
$SPLFRAME
 70
     0
  9
$SPLINETYPE
 70
     6
  9
$SPLINESEGS
 70
     8
  9
$HANDSEED
  5
5F
  9
$SURFTAB1
 70
     6
  9
$SURFTAB2
 70
     6
  9
$SURFTYPE
 70
     6
  9
$SURFU
 70
     6
  9
$SURFV
 70
     6
  9
$UCSBASE
  2

  9
$UCSNAME
  2

  9
$UCSORG
 10
0.0
 20
0.0
 30
0.0
  9
$UCSXDIR
 10
1.0
 20
0.0
 30
0.0
  9
$UCSYDIR
 10
0.0
 20
1.0
 30
0.0
  9
$UCSORTHOREF
  2

  9
$UCSORTHOVIEW
 70
     0
  9
$UCSORGTOP
 10
0.0
 20
0.0
 30
0.0
  9
$UCSORGBOTTOM
 10
0.0
 20
0.0
 30
0.0
  9
$UCSORGLEFT
 10
0.0
 20
0.0
 30
0.0
  9
$UCSORGRIGHT
 10
0.0
 20
0.0
 30
0.0
  9
$UCSORGFRONT
 10
0.0
 20
0.0
 30
0.0
  9
$UCSORGBACK
 10
0.0
 20
0.0
 30
0.0
  9
$PUCSBASE
  2

  9
$PUCSNAME
  2

  9
$PUCSORG
 10
0.0
 20
0.0
 30
0.0
  9
$PUCSXDIR
 10
1.0
 20
0.0
 30
0.0
  9
$PUCSYDIR
 10
0.0
 20
1.0
 30
0.0
  9
$PUCSORTHOREF
  2

  9
$PUCSORTHOVIEW
 70
     0
  9
$PUCSORGTOP
 10
0.0
 20
0.0
 30
0.0
  9
$PUCSORGBOTTOM
 10
0.0
 20
0.0
 30
0.0
  9
$PUCSORGLEFT
 10
0.0
 20
0.0
 30
0.0
  9
$PUCSORGRIGHT
 10
0.0
 20
0.0
 30
0.0
  9
$PUCSORGFRONT
 10
0.0
 20
0.0
 30
0.0
  9
$PUCSORGBACK
 10
0.0
 20
0.0
 30
0.0
  9
$USERI1
 70
     0
  9
$USERI2
 70
     0
  9
$USERI3
 70
     0
  9
$USERI4
 70
     0
  9
$USERI5
 70
     0
  9
$USERR1
 40
0.0
  9
$USERR2
 40
0.0
  9
$USERR3
 40
0.0
  9
$USERR4
 40
0.0
  9
$USERR5
 40
0.0
  9
$WORLDVIEW
 70
     1
  9
$SHADEDGE
 70
     3
  9
$SHADEDIF
 70
    70
  9
$TILEMODE
 70
     1
  9
$MAXACTVP
 70
    64
  9
$PINSBASE
 10
0.0
 20
0.0
 30
0.0
  9
$PLIMCHECK
 70
     0
  9
$PEXTMIN
 10
1.000000000000000E+20
 20
1.000000000000000E+20
 30
1.000000000000000E+20
  9
$PEXTMAX
 10
-1.000000000000000E+20
 20
-1.000000000000000E+20
 30
-1.000000000000000E+20
  9
$PLIMMIN
 10
0.0
 20
0.0
  9
$PLIMMAX
 10
12.0
 20
9.0
  9
$UNITMODE
 70
     0
  9
$VISRETAIN
 70
     1
  9
$PLINEGEN
 70
     0
  9
$PSLTSCALE
 70
     1
  9
$TREEDEPTH
 70
  3020
  9
$CMLSTYLE
  2
Standard
  9
$CMLJUST
 70
     0
  9
$CMLSCALE
 40
1.0
  9
$PROXYGRAPHICS
 70
     1
  9
$MEASUREMENT
 70
     0
  9
$CELWEIGHT
370
    -1
  9
$ENDCAPS
280
     0
  9
$JOINSTYLE
280
     0
  9
$LWDISPLAY
290
     1
  9
$INSUNITS
 70
     1
  9
$HYPERLINKBASE
  1

  9
$STYLESHEET
  1

  9
$XEDIT
290
     1
  9
$CEPSNTYPE
380
     0
  9
$PSTYLEMODE
290
     1
  9
$FINGERPRINTGUID
  2
{9F676098-884D-45F7-80A7-AD50C080E3E9}
  9
$VERSIONGUID
  2
{FAEB1C32-E019-11D5-929B-00C0DF256EC4}
  9
$EXTNAMES
290
     1
  9
$PSVPSCALE
 40
0.0
  9
$OLESTARTUP
290
     0
  9
$SORTENTS
280
   127
  9
$INDEXCTL
280
     0
  9
$HIDETEXT
280
     1
  9
$XCLIPFRAME
280
     2
  9
$HALOGAP
280
     0
  9
$OBSCOLOR
 70
   257
  9
$OBSLTYPE
280
     0
  9
$INTERSECTIONDISPLAY
280
     0
  9
$INTERSECTIONCOLOR
 70
   257
  9
$DIMASSOC
280
     2
  9
$PROJECTNAME
  1

  9
$CAMERADISPLAY
290
     0
  9
$LENSLENGTH
 40
50.0
  9
$CAMERAHEIGHT
 40
0.0
  9
$STEPSPERSEC
 40
2.0
  9
$STEPSIZE
 40
6.0
  9
$3DDWFPREC
 40
2.0
  9
$PSOLWIDTH
 40
0.25
  9
$PSOLHEIGHT
 40
4.0
  9
$LOFTANG1
 40
1.570796326794897
  9
$LOFTANG2
 40
1.570796326794897
  9
$LOFTMAG1
 40
0.0
  9
$LOFTMAG2
 40
0.0
  9
$LOFTPARAM
 70
     7
  9
$LOFTNORMALS
280
     1
  9
$LATITUDE
 40
37.795
  9
$LONGITUDE
 40
-122.394
  9
$NORTHDIRECTION
 40
0.0
  9
$TIMEZONE
 70
 -8000
  9
$LIGHTGLYPHDISPLAY
280
     1
  9
$TILEMODELIGHTSYNCH
280
     1
  9
$CMATERIAL
347
3C
  9
$SOLIDHIST
280
     1
  9
$SHOWHIST
280
     1
  9
$DWFFRAME
280
     2
  9
$DGNFRAME
280
     2
  9
$REALWORLDSCALE
290
     1
  9
$INTERFERECOLOR
 62
   256
  9
$CSHADOW
280
     0
  9
$SHADOWPLANELOCATION
 40
0.0
  0
ENDSEC
  0
SECTION
  2
CLASSES
  0
CLASS
  1
ACDBDICTIONARYWDFLT
  2
AcDbDictionaryWithDefault
  3
ObjectDBX Classes
 90
        0
 91
        4
280
     0
281
     0
  0
CLASS
  1
VISUALSTYLE
  2
AcDbVisualStyle
  3
ObjectDBX Classes
 90
     4095
 91
        4
280
     0
281
     0
  0
CLASS
  1
MATERIAL
  2
AcDbMaterial
  3
ObjectDBX Classes
 90
     1153
 91
        4
280
     0
281
     0
  0
CLASS
  1
SUN
  2
AcDbSun
  3
SCENEOE
 90
     1024
 91
        4
280
     0
281
     0
  0
ENDSEC
  0
SECTION
  2
TABLES
  0
TABLE
  2
VPORT
  5
8
330
0
100
AcDbSymbolTable
 70
     1
  0
VPORT
  5
29
330
8
100
AcDbSymbolTableRecord
100
AcDbViewportTableRecord
  2
*Active
 70
     0
 10
0.0
 20
0.0
 11
1.0
 21
1.0
 12
0.0
 22
0.0
 13
0.0
 23
0.0
 14
0.5
 24
0.5
 15
0.5
 25
0.5
 16
0.0
 26
0.0
 36
1.0
 17
5.5131440713994
 27
-4.444197290163376
 37
0.0
 40
12.0000000000001
 41
0.9483721461866902
 42
50.0
 43
0.0
 44
0.0
 50
0.0
 51
0.0
 71
     0
 72
   100
 73
     1
 74
     3
 75
     0
 76
     0
 77
     0
 78
     0
281
     0
 65
     1
110
0.0
120
0.0
130
0.0
111
1.0
121
0.0
131
0.0
112
0.0
122
1.0
132
0.0
 79
     0
146
0.0
 60
     3
 61
     5
292
     1
282
     1
141
0.0
142
0.0
 63
   250
361
3F
  0
ENDTAB
  0
TABLE
  2
LTYPE
  5
5
330
0
100
AcDbSymbolTable
 70
     1
  0
LTYPE
  5
14
330
5
100
AcDbSymbolTableRecord
100
AcDbLinetypeTableRecord
  2
ByBlock
 70
     0
  3

 72
    65
 73
     0
 40
0.0
  0
LTYPE
  5
15
330
5
100
AcDbSymbolTableRecord
100
AcDbLinetypeTableRecord
  2
ByLayer
 70
     0
  3

 72
    65
 73
     0
 40
0.0
  0
LTYPE
  5
16
330
5
100
AcDbSymbolTableRecord
100
AcDbLinetypeTableRecord
  2
Continuous
 70
     0
  3
Solid line
 72
    65
 73
     0
 40
0.0
  0
ENDTAB
  0
TABLE
  2
LAYER
  5
2
330
0
100
AcDbSymbolTable
 70
     2
  0
LAYER
  5
10
330
2
100
AcDbSymbolTableRecord
100
AcDbLayerTableRecord
  2
0
 70
     0
 62
     7
  6
Continuous
370
    -3
390
F
347
3E
  0
LAYER
  5
40
330
2
100
AcDbSymbolTableRecord
100
AcDbLayerTableRecord
  2
Layer 1
 70
     0
 62
     7
  6
Continuous
370
    -3
390
F
347
3E
  0
ENDTAB
  0
TABLE
  2
STYLE
  5
3
330
0
100
AcDbSymbolTable
 70
     1
  0
STYLE
  5
11
330
3
100
AcDbSymbolTableRecord
100
AcDbTextStyleTableRecord
  2
Standard
 70
     0
 40
0.0
 41
1.0
 50
0.0
 71
     0
 42
0.2
  3
txt
  4

  0
ENDTAB
  0
TABLE
  2
VIEW
  5
6
330
0
100
AcDbSymbolTable
 70
     0
  0
ENDTAB
  0
TABLE
  2
UCS
  5
7
330
0
100
AcDbSymbolTable
 70
     0
  0
ENDTAB
  0
TABLE
  2
APPID
  5
9
330
0
100
AcDbSymbolTable
 70
     1
  0
APPID
  5
12
330
9
100
AcDbSymbolTableRecord
100
AcDbRegAppTableRecord
  2
ACAD
 70
     0
  0
ENDTAB
  0
TABLE
  2
DIMSTYLE
  5
A
330
0
100
AcDbSymbolTable
 70
     1
100
AcDbDimStyleTable
  0
DIMSTYLE
105
27
330
A
100
AcDbSymbolTableRecord
100
AcDbDimStyleTableRecord
  2
Standard
 70
     0
178
     0
340
11
  0
ENDTAB
  0
TABLE
  2
BLOCK_RECORD
  5
1
330
0
100
AcDbSymbolTable
 70
     1
  0
BLOCK_RECORD
  5
1F
330
1
100
AcDbSymbolTableRecord
100
AcDbBlockTableRecord
  2
*Model_Space
340
22
 70
     0
280
     1
281
     0
  0
BLOCK_RECORD
  5
1B
330
1
100
AcDbSymbolTableRecord
100
AcDbBlockTableRecord
  2
*Paper_Space
340
1E
 70
     0
280
     1
281
     0
  0
BLOCK_RECORD
  5
23
330
1
100
AcDbSymbolTableRecord
100
AcDbBlockTableRecord
  2
*Paper_Space0
340
26
 70
     0
280
     1
281
     0
  0
ENDTAB
  0
ENDSEC
  0
SECTION
  2
BLOCKS
  0
BLOCK
  5
20
330
1F
100
AcDbEntity
  8
0
100
AcDbBlockBegin
  2
*Model_Space
 70
     0
 10
0.0
 20
0.0
 30
0.0
  3
*Model_Space
  1

  0
ENDBLK
  5
21
330
1F
100
AcDbEntity
  8
0
100
AcDbBlockEnd
  0
BLOCK
  5
1C
330
1B
100
AcDbEntity
 67
     1
  8
0
100
AcDbBlockBegin
  2
*Paper_Space
 70
     0
 10
0.0
 20
0.0
 30
0.0
  3
*Paper_Space
  1

  0
ENDBLK
  5
1D
330
1B
100
AcDbEntity
 67
     1
  8
0
100
AcDbBlockEnd
  0
BLOCK
  5
24
330
23
100
AcDbEntity
  8
0
100
AcDbBlockBegin
  2
*Paper_Space0
 70
     0
 10
0.0
 20
0.0
 30
0.0
  3
*Paper_Space0
  1

  0
ENDBLK
  5
25
330
23
100
AcDbEntity
  8
0
100
AcDbBlockEnd
  0
ENDSEC
  0
SECTION
  2
ENTITIES
  0
SPLINE
  5
41
330
1F
100
AcDbEntity
  8
Layer 1
370
     0
100
AcDbSpline
210
0.0
220
0.0
230
1.0
 70
    11
 71
     3
 72
    44
 73
    40
 74
     0
 42
0.0000000001
 43
0.0000000001
 12
1.0
 22
0.0
 32
0.0
 13
1.0
 23
0.0
 33
0.0
 40
0.0
 40
0.0
 40
0.0
 40
0.0
 40
1.0
 40
1.0
 40
1.0
 40
2.0
 40
2.0
 40
2.0
 40
3.0
 40
3.0
 40
3.0
 40
4.0
 40
4.0
 40
4.0
 40
5.0
 40
5.0
 40
5.0
 40
6.0
 40
6.0
 40
6.0
 40
7.0
 40
7.0
 40
7.0
 40
8.0
 40
8.0
 40
8.0
 40
9.0
 40
9.0
 40
9.0
 40
10.0
 40
10.0
 40
10.0
 40
11.0
 40
11.0
 40
11.0
 40
12.0
 40
12.0
 40
12.0
 40
13.0
 40
13.0
 40
13.0
 40
13.0
 10
3.486509442364814
 20
-2.955199491286496
 30
0.0
 10
3.441364180501359
 20
-2.94923731716867
 30
0.0
 10
3.305915001473295
 20
-2.931350794815166
 30
0.0
 10
3.305915001473295
 20
-2.931350794815166
 30
0.0
 10
3.305915001473295
 20
-2.931350794815166
 30
0.0
 10
3.425412193366936
 20
-2.997584840799732
 30
0.0
 10
3.465261268110226
 20
-3.019673427358637
 30
0.0
 10
4.53088807315161
 20
-3.610325086175812
 30
0.0
 10
5.20031740761586
 20
-4.735193888689511
 30
0.0
 10
5.212225034574923
 20
-5.95529848303027
 30
0.0
 10
5.221295150520139
 20
-6.873109015315372
 30
0.0
 10
4.870906423174877
 20
-7.735657632868323
 30
0.0
 10
4.225612072841563
 20
-8.384091655101908
 30
0.0
 10
3.581506985962606
 20
-9.031257129618805
 30
0.0
 10
2.71737230318182
 20
-9.387290903154987
 30
0.0
 10
1.798404646732213
 20
-9.38047245917768
 30
0.0
 10
1.148765520578991
 20
-9.377237662500217
 30
0.0
 10
0.5191377341510588
 20
-9.19058672283543
 30
0.0
 10
-0.0223735587321572
 20
-8.840721262571757
 30
0.0
 10
-0.0610484062677996
 20
-8.815730872552852
 30
0.0
 10
-0.1770888057207887
 20
-8.740743845649932
 30
0.0
 10
-0.1770888057207887
 20
-8.740743845649932
 30
0.0
 10
-0.1770888057207887
 20
-8.740743845649932
 30
0.0
 10
-0.096123749748257
 20
-8.852661467955032
 30
0.0
 10
-0.0691353977574131
 20
-8.8899726276723
 30
0.0
 10
0.6445178159322545
 20
-9.876347761632612
 30
0.0
 10
1.779281290386178
 20
-10.45837331089744
 30
0.0
 10
2.974760628396476
 20
-10.44368987107674
 30
0.0
 10
2.994630065217482
 20
-10.44403872169882
 30
0.0
 10
3.01452959831013
 20
-10.44419729016343
 30
0.0
 10
3.034398226420889
 20
-10.44419729016343
 30
0.0
 10
4.000318004048457
 20
-10.44419729016343
 30
0.0
 10
4.950190653465243
 20
-10.04620630089774
 30
0.0
 10
5.64884329078398
 20
-9.34663394883498
 30
0.0
 10
6.376513956388989
 20
-8.61809113829223
 30
0.0
 10
6.766782651570288
 20
-7.648888969046588
 30
0.0
 10
6.747833720530909
 20
-6.617623511627673
 30
0.0
 10
6.712948659203144
 20
-4.740283936274156
 30
0.0
 10
5.341363188871873
 20
-3.200092621807395
 30
0.0
 10
3.486509442364814
 20
-2.955199491286496
 30
0.0
  0
HATCH
  5
42
330
1F
100
AcDbEntity
  8
Layer 1
 62
     7
420
 16777215
100
AcDbHatch
 10
0.0
 20
0.0
 30
0.0
210
0.0
220
0.0
230
1.0
  2
SOLID
 70
     1
 71
     0
 91
        1
 92
        1
 93
        1
 72
     4
 94
        3
 73
     0
 74
     1
 95
       44
 96
       40
 40
0.0
 40
0.0
 40
0.0
 40
0.0
 40
1.0
 40
1.0
 40
1.0
 40
2.0
 40
2.0
 40
2.0
 40
3.0
 40
3.0
 40
3.0
 40
4.0
 40
4.0
 40
4.0
 40
5.0
 40
5.0
 40
5.0
 40
6.0
 40
6.0
 40
6.0
 40
7.0
 40
7.0
 40
7.0
 40
8.0
 40
8.0
 40
8.0
 40
9.0
 40
9.0
 40
9.0
 40
10.0
 40
10.0
 40
10.0
 40
11.0
 40
11.0
 40
11.0
 40
12.0
 40
12.0
 40
12.0
 40
13.0
 40
13.0
 40
13.0
 40
13.0
 10
3.486509442364814
 20
-2.955199491286496
 10
3.441364180501359
 20
-2.94923731716867
 10
3.305915001473295
 20
-2.931350794815166
 10
3.305915001473295
 20
-2.931350794815166
 10
3.305915001473295
 20
-2.931350794815166
 10
3.425412193366936
 20
-2.997584840799732
 10
3.465261268110226
 20
-3.019673427358637
 10
4.53088807315161
 20
-3.610325086175812
 10
5.20031740761586
 20
-4.735193888689511
 10
5.212225034574923
 20
-5.95529848303027
 10
5.221295150520139
 20
-6.873109015315372
 10
4.870906423174877
 20
-7.735657632868323
 10
4.225612072841563
 20
-8.384091655101908
 10
3.581506985962606
 20
-9.031257129618805
 10
2.71737230318182
 20
-9.387290903154987
 10
1.798404646732213
 20
-9.38047245917768
 10
1.148765520578991
 20
-9.377237662500217
 10
0.5191377341510588
 20
-9.19058672283543
 10
-0.0223735587321572
 20
-8.840721262571757
 10
-0.0610484062677996
 20
-8.815730872552852
 10
-0.1770888057207887
 20
-8.740743845649932
 10
-0.1770888057207887
 20
-8.740743845649932
 10
-0.1770888057207887
 20
-8.740743845649932
 10
-0.096123749748257
 20
-8.852661467955032
 10
-0.0691353977574131
 20
-8.8899726276723
 10
0.6445178159322545
 20
-9.876347761632612
 10
1.779281290386178
 20
-10.45837331089744
 10
2.974760628396476
 20
-10.44368987107674
 10
2.994630065217482
 20
-10.44403872169882
 10
3.01452959831013
 20
-10.44419729016343
 10
3.034398226420889
 20
-10.44419729016343
 10
4.000318004048457
 20
-10.44419729016343
 10
4.950190653465243
 20
-10.04620630089774
 10
5.64884329078398
 20
-9.34663394883498
 10
6.376513956388989
 20
-8.61809113829223
 10
6.766782651570288
 20
-7.648888969046588
 10
6.747833720530909
 20
-6.617623511627673
 10
6.712948659203144
 20
-4.740283936274156
 10
5.341363188871873
 20
-3.200092621807395
 10
3.486509442364814
 20
-2.955199491286496
 97
        0
 97
        0
 75
     2
 76
     1
 98
        0
  0
SPLINE
  5
43
330
1F
100
AcDbEntity
  8
Layer 1
370
     0
100
AcDbSpline
210
0.0
220
0.0
230
1.0
 70
    11
 71
     3
 72
    35
 73
    31
 74
     0
 42
0.0000000001
 43
0.0000000001
 12
1.0
 22
0.0
 32
0.0
 13
1.0
 23
0.0
 33
0.0
 40
0.0
 40
0.0
 40
0.0
 40
0.0
 40
1.0
 40
1.0
 40
1.0
 40
2.0
 40
2.0
 40
2.0
 40
3.0
 40
3.0
 40
3.0
 40
4.0
 40
4.0
 40
4.0
 40
5.0
 40
5.0
 40
5.0
 40
6.0
 40
6.0
 40
6.0
 40
7.0
 40
7.0
 40
7.0
 40
8.0
 40
8.0
 40
8.0
 40
9.0
 40
9.0
 40
9.0
 40
10.0
 40
10.0
 40
10.0
 40
10.0
 10
8.53168228011393
 20
-0.1113851486933805
 30
0.0
 10
7.858589930052908
 20
-0.9553176576882834
 30
0.0
 10
6.604582973242259
 20
-2.563884244265359
 30
0.0
 10
5.968105913143707
 20
-3.385950714454086
 30
0.0
 10
5.936026629741756
 20
-3.427368796357769
 30
0.0
 10
5.923372866587404
 20
-3.474067207998789
 30
0.0
 10
5.932236843533878
 20
-3.517181972430687
 30
0.0
 10
5.939927413872042
 20
-3.554604129127748
 30
0.0
 10
5.963474830268283
 20
-3.585937256938501
 30
0.0
 10
5.998597744286914
 20
-3.605504604974158
 30
0.0
 10
6.019576351621759
 20
-3.617175243672907
 30
0.0
 10
6.041585653950354
 20
-3.622914937427266
 30
0.0
 10
6.0635790994329
 20
-3.622914937427266
 30
0.0
 10
6.108374689546963
 20
-3.622883708253817
 30
0.0
 10
6.153756982965155
 20
-3.599669285624789
 30
0.0
 10
6.189514170826113
 20
-3.55409622379668
 30
0.0
 10
6.831875004638682
 20
-2.735423604921607
 30
0.0
 10
8.76308028605149
 20
-0.2843991960330262
 30
0.0
 10
8.76308028605149
 20
-0.2843991960330262
 30
0.0
 10
8.786247138142345
 20
-0.2550164602874045
 30
0.0
 10
8.80922370808048
 20
-0.2196715504239692
 30
0.0
 10
8.808589434238153
 20
-0.1730682798592827
 30
0.0
 10
8.808161299394593
 20
-0.1420047184315207
 30
0.0
 10
8.799614459369296
 20
-0.1136362476630792
 30
0.0
 10
8.780015397641515
 20
-0.0887257156763957
 30
0.0
 10
8.753360993605888
 20
-0.054728637727875
 30
0.0
 10
8.713353216813378
 20
-0.0395060655121395
 30
0.0
 10
8.677659456336642
 20
-0.0360017025333011
 30
0.0
 10
8.619195264920512
 20
-0.0302773811063414
 30
0.0
 10
8.556386297684487
 20
-0.0804325851880145
 30
0.0
 10
8.53168228011393
 20
-0.1113851486933805
 30
0.0
  0
HATCH
  5
44
330
1F
100
AcDbEntity
  8
Layer 1
 62
     7
420
 16777215
100
AcDbHatch
 10
0.0
 20
0.0
 30
0.0
210
0.0
220
0.0
230
1.0
  2
SOLID
 70
     1
 71
     0
 91
        1
 92
        1
 93
        1
 72
     4
 94
        3
 73
     0
 74
     1
 95
       35
 96
       31
 40
0.0
 40
0.0
 40
0.0
 40
0.0
 40
1.0
 40
1.0
 40
1.0
 40
2.0
 40
2.0
 40
2.0
 40
3.0
 40
3.0
 40
3.0
 40
4.0
 40
4.0
 40
4.0
 40
5.0
 40
5.0
 40
5.0
 40
6.0
 40
6.0
 40
6.0
 40
7.0
 40
7.0
 40
7.0
 40
8.0
 40
8.0
 40
8.0
 40
9.0
 40
9.0
 40
9.0
 40
10.0
 40
10.0
 40
10.0
 40
10.0
 10
8.53168228011393
 20
-0.1113851486933805
 10
7.858589930052908
 20
-0.9553176576882834
 10
6.604582973242259
 20
-2.563884244265359
 10
5.968105913143707
 20
-3.385950714454086
 10
5.936026629741756
 20
-3.427368796357769
 10
5.923372866587404
 20
-3.474067207998789
 10
5.932236843533878
 20
-3.517181972430687
 10
5.939927413872042
 20
-3.554604129127748
 10
5.963474830268283
 20
-3.585937256938501
 10
5.998597744286914
 20
-3.605504604974158
 10
6.019576351621759
 20
-3.617175243672907
 10
6.041585653950354
 20
-3.622914937427266
 10
6.0635790994329
 20
-3.622914937427266
 10
6.108374689546963
 20
-3.622883708253817
 10
6.153756982965155
 20
-3.599669285624789
 10
6.189514170826113
 20
-3.55409622379668
 10
6.831875004638682
 20
-2.735423604921607
 10
8.76308028605149
 20
-0.2843991960330262
 10
8.76308028605149
 20
-0.2843991960330262
 10
8.786247138142345
 20
-0.2550164602874045
 10
8.80922370808048
 20
-0.2196715504239692
 10
8.808589434238153
 20
-0.1730682798592827
 10
8.808161299394593
 20
-0.1420047184315207
 10
8.799614459369296
 20
-0.1136362476630792
 10
8.780015397641515
 20
-0.0887257156763957
 10
8.753360993605888
 20
-0.054728637727875
 10
8.713353216813378
 20
-0.0395060655121395
 10
8.677659456336642
 20
-0.0360017025333011
 10
8.619195264920512
 20
-0.0302773811063414
 10
8.556386297684487
 20
-0.0804325851880145
 10
8.53168228011393
 20
-0.1113851486933805
 97
        0
 97
        0
 75
     2
 76
     1
 98
        0
  0
SPLINE
  5
45
330
1F
100
AcDbEntity
  8
Layer 1
370
     0
100
AcDbSpline
210
0.0
220
0.0
230
1.0
 70
    11
 71
     3
 72
    29
 73
    25
 74
     0
 42
0.0000000001
 43
0.0000000001
 12
1.0
 22
0.0
 32
0.0
 13
1.0
 23
0.0
 33
0.0
 40
0.0
 40
0.0
 40
0.0
 40
0.0
 40
1.0
 40
1.0
 40
1.0
 40
2.0
 40
2.0
 40
2.0
 40
3.0
 40
3.0
 40
3.0
 40
4.0
 40
4.0
 40
4.0
 40
5.0
 40
5.0
 40
5.0
 40
6.0
 40
6.0
 40
6.0
 40
7.0
 40
7.0
 40
7.0
 40
8.0
 40
8.0
 40
8.0
 40
8.0
 10
11.19322122868157
 20
-3.399143610374393
 30
0.0
 10
11.16683543684096
 20
-3.331434877706417
 30
0.0
 10
11.09268882467338
 20
-3.289652088343397
 30
0.0
 10
11.01568798021539
 20
-3.318844541936313
 30
0.0
 10
10.01339259773062
 20
-3.698933141948335
 30
0.0
 10
8.095491210160516
 20
-4.425541398867456
 30
0.0
 10
7.100077698864929
 20
-4.80975277885457
 30
0.0
 10
7.096922186499391
 20
-4.810973756001052
 30
0.0
 10
7.091277149302717
 20
-4.814890396977388
 30
0.0
 10
7.088613199164961
 20
-4.816967643811002
 30
0.0
 10
7.041248799989489
 20
-4.853723359547732
 30
0.0
 10
7.031624605125519
 20
-4.910316896554883
 30
0.0
 10
7.050747050778277
 20
-4.963722754078465
 30
0.0
 10
7.070821817887817
 20
-5.01990311043437
 30
0.0
 10
7.11630016521465
 20
-5.051204973780866
 30
0.0
 10
7.185942520269413
 20
-5.056739013055132
 30
0.0
 10
7.187861198642445
 20
-5.056897581515714
 30
0.0
 10
7.195108692114192
 20
-5.055930313906174
 30
0.0
 10
7.196915457741599
 20
-5.055248469525673
 30
0.0
 10
8.220633439250832
 20
-4.667168019100371
 30
0.0
 10
10.13867753843543
 20
-3.946077468254518
 30
0.0
 10
11.11791706675179
 20
-3.576692715686653
 30
0.0
 10
11.19231738845625
 20
-3.548641955009922
 30
0.0
 10
11.22038400597906
 20
-3.468882019337798
 30
0.0
 10
11.19322122868157
 20
-3.399143610374393
 30
0.0
  0
HATCH
  5
46
330
1F
100
AcDbEntity
  8
Layer 1
 62
     7
420
 16777215
100
AcDbHatch
 10
0.0
 20
0.0
 30
0.0
210
0.0
220
0.0
230
1.0
  2
SOLID
 70
     1
 71
     0
 91
        1
 92
        1
 93
        1
 72
     4
 94
        3
 73
     0
 74
     1
 95
       29
 96
       25
 40
0.0
 40
0.0
 40
0.0
 40
0.0
 40
1.0
 40
1.0
 40
1.0
 40
2.0
 40
2.0
 40
2.0
 40
3.0
 40
3.0
 40
3.0
 40
4.0
 40
4.0
 40
4.0
 40
5.0
 40
5.0
 40
5.0
 40
6.0
 40
6.0
 40
6.0
 40
7.0
 40
7.0
 40
7.0
 40
8.0
 40
8.0
 40
8.0
 40
8.0
 10
11.19322122868157
 20
-3.399143610374393
 10
11.16683543684096
 20
-3.331434877706417
 10
11.09268882467338
 20
-3.289652088343397
 10
11.01568798021539
 20
-3.318844541936313
 10
10.01339259773062
 20
-3.698933141948335
 10
8.095491210160516
 20
-4.425541398867456
 10
7.100077698864929
 20
-4.80975277885457
 10
7.096922186499391
 20
-4.810973756001052
 10
7.091277149302717
 20
-4.814890396977388
 10
7.088613199164961
 20
-4.816967643811002
 10
7.041248799989489
 20
-4.853723359547732
 10
7.031624605125519
 20
-4.910316896554883
 10
7.050747050778277
 20
-4.963722754078465
 10
7.070821817887817
 20
-5.01990311043437
 10
7.11630016521465
 20
-5.051204973780866
 10
7.185942520269413
 20
-5.056739013055132
 10
7.187861198642445
 20
-5.056897581515714
 10
7.195108692114192
 20
-5.055930313906174
 10
7.196915457741599
 20
-5.055248469525673
 10
8.220633439250832
 20
-4.667168019100371
 10
10.13867753843543
 20
-3.946077468254518
 10
11.11791706675179
 20
-3.576692715686653
 10
11.19231738845625
 20
-3.548641955009922
 10
11.22038400597906
 20
-3.468882019337798
 10
11.19322122868157
 20
-3.399143610374393
 97
        0
 97
        0
 75
     2
 76
     1
 98
        0
  0
SPLINE
  5
47
330
1F
100
AcDbEntity
  8
Layer 1
370
     0
100
AcDbSpline
210
0.0
220
0.0
230
1.0
 70
    11
 71
     3
 72
    29
 73
    25
 74
     0
 42
0.0000000001
 43
0.0000000001
 12
1.0
 22
0.0
 32
0.0
 13
1.0
 23
0.0
 33
0.0
 40
0.0
 40
0.0
 40
0.0
 40
0.0
 40
1.0
 40
1.0
 40
1.0
 40
2.0
 40
2.0
 40
2.0
 40
3.0
 40
3.0
 40
3.0
 40
4.0
 40
4.0
 40
4.0
 40
5.0
 40
5.0
 40
5.0
 40
6.0
 40
6.0
 40
6.0
 40
7.0
 40
7.0
 40
7.0
 40
8.0
 40
8.0
 40
8.0
 40
8.0
 10
4.378583066763806
 20
-2.648274378986419
 30
0.0
 10
4.396422018579137
 20
-2.655536814481025
 30
0.0
 10
4.416068650845091
 20
-2.656345513629983
 30
0.0
 10
4.43317818774176
 20
-2.656345513629983
 30
0.0
 10
4.470552773900636
 20
-2.656345513629983
 30
0.0
 10
4.503471586317194
 20
-2.642042638485603
 30
0.0
 10
4.532553041987701
 20
-2.608774975455769
 30
0.0
 10
4.556782302764443
 20
-2.581073065392312
 30
0.0
 10
4.564568014178954
 20
-2.548407962512682
 30
0.0
 10
4.569404352226671
 20
-2.517375602330124
 30
0.0
 10
4.569404352226671
 20
-2.517375602330124
 30
0.0
 10
5.030695860902092
 20
0.3931485651554061
 30
0.0
 10
5.189882738479089
 20
1.394666987483801
 30
0.0
 10
5.203805913836757
 20
1.482243736989087
 30
0.0
 10
5.146260554973335
 20
1.544529428305193
 30
0.0
 10
5.071749235346437
 20
1.554408243399381
 30
0.0
 10
4.99830118373259
 20
1.564335244591323
 30
0.0
 10
4.928577772288096
 20
1.520664874987801
 30
0.0
 10
4.915939865979807
 20
1.44242719653726
 30
0.0
 10
4.751662940818164
 20
0.4250360966052034
 30
0.0
 10
4.436872832873291
 20
-1.511211661854077
 30
0.0
 10
4.293193950741081
 20
-2.498173474200699
 30
0.0
 10
4.283077282956027
 20
-2.567721601011411
 30
0.0
 10
4.315060541455156
 20
-2.622570431526292
 30
0.0
 10
4.378583066763806
 20
-2.648274378986419
 30
0.0
  0
HATCH
  5
48
330
1F
100
AcDbEntity
  8
Layer 1
 62
     7
420
 16777215
100
AcDbHatch
 10
0.0
 20
0.0
 30
0.0
210
0.0
220
0.0
230
1.0
  2
SOLID
 70
     1
 71
     0
 91
        1
 92
        1
 93
        1
 72
     4
 94
        3
 73
     0
 74
     1
 95
       29
 96
       25
 40
0.0
 40
0.0
 40
0.0
 40
0.0
 40
1.0
 40
1.0
 40
1.0
 40
2.0
 40
2.0
 40
2.0
 40
3.0
 40
3.0
 40
3.0
 40
4.0
 40
4.0
 40
4.0
 40
5.0
 40
5.0
 40
5.0
 40
6.0
 40
6.0
 40
6.0
 40
7.0
 40
7.0
 40
7.0
 40
8.0
 40
8.0
 40
8.0
 40
8.0
 10
4.378583066763806
 20
-2.648274378986419
 10
4.396422018579137
 20
-2.655536814481025
 10
4.416068650845091
 20
-2.656345513629983
 10
4.43317818774176
 20
-2.656345513629983
 10
4.470552773900636
 20
-2.656345513629983
 10
4.503471586317194
 20
-2.642042638485603
 10
4.532553041987701
 20
-2.608774975455769
 10
4.556782302764443
 20
-2.581073065392312
 10
4.564568014178954
 20
-2.548407962512682
 10
4.569404352226671
 20
-2.517375602330124
 10
4.569404352226671
 20
-2.517375602330124
 10
5.030695860902092
 20
0.3931485651554061
 10
5.189882738479089
 20
1.394666987483801
 10
5.203805913836757
 20
1.482243736989087
 10
5.146260554973335
 20
1.544529428305193
 10
5.071749235346437
 20
1.554408243399381
 10
4.99830118373259
 20
1.564335244591323
 10
4.928577772288096
 20
1.520664874987801
 10
4.915939865979807
 20
1.44242719653726
 10
4.751662940818164
 20
0.4250360966052034
 10
4.436872832873291
 20
-1.511211661854077
 10
4.293193950741081
 20
-2.498173474200699
 10
4.283077282956027
 20
-2.567721601011411
 10
4.315060541455156
 20
-2.622570431526292
 10
4.378583066763806
 20
-2.648274378986419
 97
        0
 97
        0
 75
     2
 76
     1
 98
        0
  0
SPLINE
  5
49
330
1F
100
AcDbEntity
  8
Layer 1
370
     0
100
AcDbSpline
210
0.0
220
0.0
230
1.0
 70
    11
 71
     3
 72
    32
 73
    28
 74
     0
 42
0.0000000001
 43
0.0000000001
 12
1.0
 22
0.0
 32
0.0
 13
1.0
 23
0.0
 33
0.0
 40
0.0
 40
0.0
 40
0.0
 40
0.0
 40
1.0
 40
1.0
 40
1.0
 40
2.0
 40
2.0
 40
2.0
 40
3.0
 40
3.0
 40
3.0
 40
4.0
 40
4.0
 40
4.0
 40
5.0
 40
5.0
 40
5.0
 40
6.0
 40
6.0
 40
6.0
 40
7.0
 40
7.0
 40
7.0
 40
8.0
 40
8.0
 40
8.0
 40
9.0
 40
9.0
 40
9.0
 40
9.0
 10
2.122249013776253
 20
-2.479065974700714
 30
0.0
 10
2.122328298006551
 20
-2.479303827391593
 30
0.0
 10
2.122503509991652
 20
-2.479794876223119
 30
0.0
 10
2.122582007543479
 20
-2.480033242310267
 30
0.0
 10
2.144971874177473
 20
-2.544316896229702
 30
0.0
 10
2.1967761902492
 20
-2.582357469923017
 30
0.0
 10
2.255446520664084
 20
-2.582357469923017
 30
0.0
 10
2.268862202804965
 20
-2.582357469923017
 30
0.0
 10
2.282657659223913
 20
-2.58037536416575
 30
0.0
 10
2.296563322492665
 20
-2.576252584190658
 30
0.0
 10
2.368585117288439
 20
-2.554829985166205
 30
0.0
 10
2.41336485055644
 20
-2.481967777529348
 30
0.0
 10
2.386471639641943
 20
-2.397038510042307
 30
0.0
 10
2.098035609845586
 20
-1.486046308659449
 30
0.0
 10
1.516358925897255
 20
0.3354607732231392
 30
0.0
 10
1.225006000431853
 20
1.245881589647448
 30
0.0
 10
1.202330709995989
 20
1.316729977834914
 30
0.0
 10
1.157359931142474
 20
1.355547536985088
 30
0.0
 10
1.089730482704782
 20
1.361351142642333
 30
0.0
 10
1.045489882202762
 20
1.362936827248139
 30
0.0
 10
1.005340347983722
 20
1.344559352674499
 30
0.0
 10
0.9796364005235824
 20
1.310847087947372
 30
0.0
 10
0.9498572436265122
 20
1.271744105568157
 30
0.0
 10
0.9425313807476843
 20
1.218100395353695
 30
0.0
 10
0.9597043450285758
 20
1.163457703837568
 30
0.0
 10
1.246269266990086
 20
0.2515304870377501
 30
0.0
 10
1.821095793441322
 20
-1.571848241180154
 30
0.0
 10
2.122249013776253
 20
-2.479065974700714
 30
0.0
  0
HATCH
  5
4A
330
1F
100
AcDbEntity
  8
Layer 1
 62
     7
420
 16777215
100
AcDbHatch
 10
0.0
 20
0.0
 30
0.0
210
0.0
220
0.0
230
1.0
  2
SOLID
 70
     1
 71
     0
 91
        1
 92
        1
 93
        1
 72
     4
 94
        3
 73
     0
 74
     1
 95
       32
 96
       28
 40
0.0
 40
0.0
 40
0.0
 40
0.0
 40
1.0
 40
1.0
 40
1.0
 40
2.0
 40
2.0
 40
2.0
 40
3.0
 40
3.0
 40
3.0
 40
4.0
 40
4.0
 40
4.0
 40
5.0
 40
5.0
 40
5.0
 40
6.0
 40
6.0
 40
6.0
 40
7.0
 40
7.0
 40
7.0
 40
8.0
 40
8.0
 40
8.0
 40
9.0
 40
9.0
 40
9.0
 40
9.0
 10
2.122249013776253
 20
-2.479065974700714
 10
2.122328298006551
 20
-2.479303827391593
 10
2.122503509991652
 20
-2.479794876223119
 10
2.122582007543479
 20
-2.480033242310267
 10
2.144971874177473
 20
-2.544316896229702
 10
2.1967761902492
 20
-2.582357469923017
 10
2.255446520664084
 20
-2.582357469923017
 10
2.268862202804965
 20
-2.582357469923017
 10
2.282657659223913
 20
-2.58037536416575
 10
2.296563322492665
 20
-2.576252584190658
 10
2.368585117288439
 20
-2.554829985166205
 10
2.41336485055644
 20
-2.481967777529348
 10
2.386471639641943
 20
-2.397038510042307
 10
2.098035609845586
 20
-1.486046308659449
 10
1.516358925897255
 20
0.3354607732231392
 10
1.225006000431853
 20
1.245881589647448
 10
1.202330709995989
 20
1.316729977834914
 10
1.157359931142474
 20
1.355547536985088
 10
1.089730482704782
 20
1.361351142642333
 10
1.045489882202762
 20
1.362936827248139
 10
1.005340347983722
 20
1.344559352674499
 10
0.9796364005235824
 20
1.310847087947372
 10
0.9498572436265122
 20
1.271744105568157
 10
0.9425313807476843
 20
1.218100395353695
 10
0.9597043450285758
 20
1.163457703837568
 10
1.246269266990086
 20
0.2515304870377501
 10
1.821095793441322
 20
-1.571848241180154
 10
2.122249013776253
 20
-2.479065974700714
 97
        0
 97
        0
 75
     2
 76
     1
 98
        0
  0
SPLINE
  5
4B
330
1F
100
AcDbEntity
  8
Layer 1
370
     0
100
AcDbSpline
210
0.0
220
0.0
230
1.0
 70
    11
 71
     3
 72
    35
 73
    31
 74
     0
 42
0.0000000001
 43
0.0000000001
 12
1.0
 22
0.0
 32
0.0
 13
1.0
 23
0.0
 33
0.0
 40
0.0
 40
0.0
 40
0.0
 40
0.0
 40
1.0
 40
1.0
 40
1.0
 40
2.0
 40
2.0
 40
2.0
 40
3.0
 40
3.0
 40
3.0
 40
4.0
 40
4.0
 40
4.0
 40
5.0
 40
5.0
 40
5.0
 40
6.0
 40
6.0
 40
6.0
 40
7.0
 40
7.0
 40
7.0
 40
8.0
 40
8.0
 40
8.0
 40
9.0
 40
9.0
 40
9.0
 40
10.0
 40
10.0
 40
10.0
 40
10.0
 10
3.136754167725762
 20
-0.9997015217127228
 30
0.0
 10
3.147885673658531
 20
-1.313778071584996
 30
0.0
 10
3.167595733308707
 20
-1.942042169251939
 30
0.0
 10
3.177807542170108
 20
-2.256150432816324
 30
0.0
 10
3.179520894925228
 20
-2.308985443881814
 30
0.0
 10
3.196724759517401
 20
-2.351925783007093
 30
0.0
 10
3.227455327177937
 20
-2.380341251143161
 30
0.0
 10
3.250273328655516
 20
-2.40141499955434
 30
0.0
 10
3.279132788481206
 20
-2.413006354022779
 30
0.0
 10
3.311464897593611
 20
-2.414259044861372
 30
0.0
 10
3.315809673413532
 20
-2.414433470168016
 30
0.0
 10
3.320202019771614
 20
-2.414433470168016
 30
0.0
 10
3.324657793513931
 20
-2.414211474323199
 30
0.0
 10
3.404275017571523
 20
-2.410580256575902
 30
0.0
 10
3.460677819000087
 20
-2.347121158651488
 30
0.0
 10
3.457760159325403
 20
-2.251155526308025
 30
0.0
 10
3.448135873934853
 20
-1.93579457190506
 30
0.0
 10
3.416422181017575
 20
-1.303978540721106
 30
0.0
 10
3.417532160269628
 20
-0.9880467398600482
 30
0.0
 10
3.417532160269628
 20
-0.9880308830139862
 30
0.0
 10
3.417547197722127
 20
-0.9879991693218749
 30
0.0
 10
3.417547197722127
 20
-0.9879827613931411
 30
0.0
 10
3.41769072873424
 20
-0.9407933386069847
 30
0.0
 10
3.398962974142073
 20
-0.8998033915468618
 30
0.0
 10
3.369564381550402
 20
-0.872529616326978
 30
0.0
 10
3.343146876017651
 20
-0.8479990754751472
 30
0.0
 10
3.308975372762499
 20
-0.835947872470999
 30
0.0
 10
3.270998226453407
 20
-0.8375012885005869
 30
0.0
 10
3.189763604097897
 20
-0.8408000673647772
 30
0.0
 10
3.133536040195155
 20
-0.9091430738750811
 30
0.0
 10
3.136754167725762
 20
-0.9997015217127228
 30
0.0
  0
HATCH
  5
4C
330
1F
100
AcDbEntity
  8
Layer 1
 62
     7
420
 16777215
100
AcDbHatch
 10
0.0
 20
0.0
 30
0.0
210
0.0
220
0.0
230
1.0
  2
SOLID
 70
     1
 71
     0
 91
        1
 92
        1
 93
        1
 72
     4
 94
        3
 73
     0
 74
     1
 95
       35
 96
       31
 40
0.0
 40
0.0
 40
0.0
 40
0.0
 40
1.0
 40
1.0
 40
1.0
 40
2.0
 40
2.0
 40
2.0
 40
3.0
 40
3.0
 40
3.0
 40
4.0
 40
4.0
 40
4.0
 40
5.0
 40
5.0
 40
5.0
 40
6.0
 40
6.0
 40
6.0
 40
7.0
 40
7.0
 40
7.0
 40
8.0
 40
8.0
 40
8.0
 40
9.0
 40
9.0
 40
9.0
 40
10.0
 40
10.0
 40
10.0
 40
10.0
 10
3.136754167725762
 20
-0.9997015217127228
 10
3.147885673658531
 20
-1.313778071584996
 10
3.167595733308707
 20
-1.942042169251939
 10
3.177807542170108
 20
-2.256150432816324
 10
3.179520894925228
 20
-2.308985443881814
 10
3.196724759517401
 20
-2.351925783007093
 10
3.227455327177937
 20
-2.380341251143161
 10
3.250273328655516
 20
-2.40141499955434
 10
3.279132788481206
 20
-2.413006354022779
 10
3.311464897593611
 20
-2.414259044861372
 10
3.315809673413532
 20
-2.414433470168016
 10
3.320202019771614
 20
-2.414433470168016
 10
3.324657793513931
 20
-2.414211474323199
 10
3.404275017571523
 20
-2.410580256575902
 10
3.460677819000087
 20
-2.347121158651488
 10
3.457760159325403
 20
-2.251155526308025
 10
3.448135873934853
 20
-1.93579457190506
 10
3.416422181017575
 20
-1.303978540721106
 10
3.417532160269628
 20
-0.9880467398600482
 10
3.417532160269628
 20
-0.9880308830139862
 10
3.417547197722127
 20
-0.9879991693218749
 10
3.417547197722127
 20
-0.9879827613931411
 10
3.41769072873424
 20
-0.9407933386069847
 10
3.398962974142073
 20
-0.8998033915468618
 10
3.369564381550402
 20
-0.872529616326978
 10
3.343146876017651
 20
-0.8479990754751472
 10
3.308975372762499
 20
-0.835947872470999
 10
3.270998226453407
 20
-0.8375012885005869
 10
3.189763604097897
 20
-0.8408000673647772
 10
3.133536040195155
 20
-0.9091430738750811
 10
3.136754167725762
 20
-0.9997015217127228
 97
        0
 97
        0
 75
     2
 76
     1
 98
        0
  0
SPLINE
  5
4D
330
1F
100
AcDbEntity
  8
Layer 1
370
     0
100
AcDbSpline
210
0.0
220
0.0
230
1.0
 70
    11
 71
     3
 72
    26
 73
    22
 74
     0
 42
0.0000000001
 43
0.0000000001
 12
1.0
 22
0.0
 32
0.0
 13
1.0
 23
0.0
 33
0.0
 40
0.0
 40
0.0
 40
0.0
 40
0.0
 40
1.0
 40
1.0
 40
1.0
 40
2.0
 40
2.0
 40
2.0
 40
3.0
 40
3.0
 40
3.0
 40
4.0
 40
4.0
 40
4.0
 40
5.0
 40
5.0
 40
5.0
 40
6.0
 40
6.0
 40
6.0
 40
7.0
 40
7.0
 40
7.0
 40
7.0
 10
3.242948280759922
 20
-0.3596082168864743
 30
0.0
 10
3.246515256139749
 20
-0.3597984990391675
 30
0.0
 10
3.250130617040984
 20
-0.3598777832694648
 30
0.0
 10
3.253777691634342
 20
-0.3598143558852169
 30
0.0
 10
3.333585197844627
 20
-0.3585458082005744
 30
0.0
 10
3.390336849886479
 20
-0.3000181894002354
 30
0.0
 10
3.38954400758357
 20
-0.2125201128517852
 30
0.0
 10
3.388227889360754
 20
-0.0674299714204002
 30
0.0
 10
3.375019136594371
 20
0.2166137120178746
 30
0.0
 10
3.371657485230066
 20
0.3675867433367885
 30
0.0
 10
3.369913232163678
 20
0.4454761584689398
 30
0.0
 10
3.300888381272885
 20
0.4980251590105177
 30
0.0
 10
3.225917213110304
 20
0.4942036591105155
 30
0.0
 10
3.156273945223246
 20
0.4906358687474545
 30
0.0
 10
3.091879293381415
 20
0.4381497082952137
 30
0.0
 10
3.094400531904651
 20
0.3576920713965642
 30
0.0
 10
3.099126683379937
 20
0.2072106023054453
 30
0.0
 10
3.105754033682223
 20
-0.0657650025843092
 30
0.0
 10
3.110574514883877
 20
-0.2068909325011595
 30
0.0
 10
3.113650743019143
 20
-0.2969413927250773
 30
0.0
 10
3.165740482319923
 20
-0.3557867169864721
 30
0.0
 10
3.242948280759922
 20
-0.3596082168864743
 30
0.0
  0
HATCH
  5
4E
330
1F
100
AcDbEntity
  8
Layer 1
 62
     7
420
 16777215
100
AcDbHatch
 10
0.0
 20
0.0
 30
0.0
210
0.0
220
0.0
230
1.0
  2
SOLID
 70
     1
 71
     0
 91
        1
 92
        1
 93
        1
 72
     4
 94
        3
 73
     0
 74
     1
 95
       26
 96
       22
 40
0.0
 40
0.0
 40
0.0
 40
0.0
 40
1.0
 40
1.0
 40
1.0
 40
2.0
 40
2.0
 40
2.0
 40
3.0
 40
3.0
 40
3.0
 40
4.0
 40
4.0
 40
4.0
 40
5.0
 40
5.0
 40
5.0
 40
6.0
 40
6.0
 40
6.0
 40
7.0
 40
7.0
 40
7.0
 40
7.0
 10
3.242948280759922
 20
-0.3596082168864743
 10
3.246515256139749
 20
-0.3597984990391675
 10
3.250130617040984
 20
-0.3598777832694648
 10
3.253777691634342
 20
-0.3598143558852169
 10
3.333585197844627
 20
-0.3585458082005744
 10
3.390336849886479
 20
-0.3000181894002354
 10
3.38954400758357
 20
-0.2125201128517852
 10
3.388227889360754
 20
-0.0674299714204002
 10
3.375019136594371
 20
0.2166137120178746
 10
3.371657485230066
 20
0.3675867433367885
 10
3.369913232163678
 20
0.4454761584689398
 10
3.300888381272885
 20
0.4980251590105177
 10
3.225917213110304
 20
0.4942036591105155
 10
3.156273945223246
 20
0.4906358687474545
 10
3.091879293381415
 20
0.4381497082952137
 10
3.094400531904651
 20
0.3576920713965642
 10
3.099126683379937
 20
0.2072106023054453
 10
3.105754033682223
 20
-0.0657650025843092
 10
3.110574514883877
 20
-0.2068909325011595
 10
3.113650743019143
 20
-0.2969413927250773
 10
3.165740482319923
 20
-0.3557867169864721
 10
3.242948280759922
 20
-0.3596082168864743
 97
        0
 97
        0
 75
     2
 76
     1
 98
        0
  0
SPLINE
  5
4F
330
1F
100
AcDbEntity
  8
Layer 1
370
     0
100
AcDbSpline
210
0.0
220
0.0
230
1.0
 70
    11
 71
     3
 72
    32
 73
    28
 74
     0
 42
0.0000000001
 43
0.0000000001
 12
1.0
 22
0.0
 32
0.0
 13
1.0
 23
0.0
 33
0.0
 40
0.0
 40
0.0
 40
0.0
 40
0.0
 40
1.0
 40
1.0
 40
1.0
 40
2.0
 40
2.0
 40
2.0
 40
3.0
 40
3.0
 40
3.0
 40
4.0
 40
4.0
 40
4.0
 40
5.0
 40
5.0
 40
5.0
 40
6.0
 40
6.0
 40
6.0
 40
7.0
 40
7.0
 40
7.0
 40
8.0
 40
8.0
 40
8.0
 40
9.0
 40
9.0
 40
9.0
 40
9.0
 10
5.269008400308874
 20
-2.975734106931706
 30
0.0
 10
5.287925617656166
 20
-2.984439515417585
 30
0.0
 10
5.30706483084825
 20
-2.988689150161159
 30
0.0
 10
5.325775909196787
 20
-2.988689150161159
 30
0.0
 10
5.378817059261046
 20
-2.988689150161159
 30
0.0
 10
5.430970225946049
 20
-2.955865478820947
 30
0.0
 10
5.462208212680454
 20
-2.892168528205654
 30
0.0
 10
5.599829779618466
 20
-2.611597494054093
 30
0.0
 10
5.871457552593281
 20
-2.037262529830665
 30
0.0
 10
6.007715430770304
 20
-1.752204008244677
 30
0.0
 10
6.028075621108857
 20
-1.709596662886636
 30
0.0
 10
6.031770266240401
 20
-1.665324348692492
 30
0.0
 10
6.018228519706806
 20
-1.627616768766403
 30
0.0
 10
6.006082175626324
 20
-1.593698975048179
 30
0.0
 10
5.981393066313899
 20
-1.567249755823316
 30
0.0
 10
5.946809285061236
 20
-1.551123343382238
 30
0.0
 10
5.87320180565967
 20
-1.516745701128343
 30
0.0
 10
5.791824471689627
 20
-1.551472193995525
 30
0.0
 10
5.752991055693403
 20
-1.633372803885474
 30
0.0
 10
5.618382289506422
 20
-1.917368916785575
 30
0.0
 10
5.346865514454016
 20
-2.484251163361705
 30
0.0
 10
5.21138462173384
 20
-2.767819141418247
 30
0.0
 10
5.188583341236381
 20
-2.815548248053043
 30
0.0
 10
5.184094989667894
 20
-2.861580672159637
 30
0.0
 10
5.198318580581991
 20
-2.900952718164894
 30
0.0
 10
5.210307220884829
 20
-2.934078172337144
 30
0.0
 10
5.234726764431078
 20
-2.959924831411803
 30
0.0
 10
5.269008400308874
 20
-2.975734106931706
 30
0.0
  0
HATCH
  5
50
330
1F
100
AcDbEntity
  8
Layer 1
 62
     7
420
 16777215
100
AcDbHatch
 10
0.0
 20
0.0
 30
0.0
210
0.0
220
0.0
230
1.0
  2
SOLID
 70
     1
 71
     0
 91
        1
 92
        1
 93
        1
 72
     4
 94
        3
 73
     0
 74
     1
 95
       32
 96
       28
 40
0.0
 40
0.0
 40
0.0
 40
0.0
 40
1.0
 40
1.0
 40
1.0
 40
2.0
 40
2.0
 40
2.0
 40
3.0
 40
3.0
 40
3.0
 40
4.0
 40
4.0
 40
4.0
 40
5.0
 40
5.0
 40
5.0
 40
6.0
 40
6.0
 40
6.0
 40
7.0
 40
7.0
 40
7.0
 40
8.0
 40
8.0
 40
8.0
 40
9.0
 40
9.0
 40
9.0
 40
9.0
 10
5.269008400308874
 20
-2.975734106931706
 10
5.287925617656166
 20
-2.984439515417585
 10
5.30706483084825
 20
-2.988689150161159
 10
5.325775909196787
 20
-2.988689150161159
 10
5.378817059261046
 20
-2.988689150161159
 10
5.430970225946049
 20
-2.955865478820947
 10
5.462208212680454
 20
-2.892168528205654
 10
5.599829779618466
 20
-2.611597494054093
 10
5.871457552593281
 20
-2.037262529830665
 10
6.007715430770304
 20
-1.752204008244677
 10
6.028075621108857
 20
-1.709596662886636
 10
6.031770266240401
 20
-1.665324348692492
 10
6.018228519706806
 20
-1.627616768766403
 10
6.006082175626324
 20
-1.593698975048179
 10
5.981393066313899
 20
-1.567249755823316
 10
5.946809285061236
 20
-1.551123343382238
 10
5.87320180565967
 20
-1.516745701128343
 10
5.791824471689627
 20
-1.551472193995525
 10
5.752991055693403
 20
-1.633372803885474
 10
5.618382289506422
 20
-1.917368916785575
 10
5.346865514454016
 20
-2.484251163361705
 10
5.21138462173384
 20
-2.767819141418247
 10
5.188583341236381
 20
-2.815548248053043
 10
5.184094989667894
 20
-2.861580672159637
 10
5.198318580581991
 20
-2.900952718164894
 10
5.210307220884829
 20
-2.934078172337144
 10
5.234726764431078
 20
-2.959924831411803
 10
5.269008400308874
 20
-2.975734106931706
 97
        0
 97
        0
 75
     2
 76
     1
 98
        0
  0
SPLINE
  5
51
330
1F
100
AcDbEntity
  8
Layer 1
370
     0
100
AcDbSpline
210
0.0
220
0.0
230
1.0
 70
    11
 71
     3
 72
    26
 73
    22
 74
     0
 42
0.0000000001
 43
0.0000000001
 12
1.0
 22
0.0
 32
0.0
 13
1.0
 23
0.0
 33
0.0
 40
0.0
 40
0.0
 40
0.0
 40
0.0
 40
1.0
 40
1.0
 40
1.0
 40
2.0
 40
2.0
 40
2.0
 40
3.0
 40
3.0
 40
3.0
 40
4.0
 40
4.0
 40
4.0
 40
5.0
 40
5.0
 40
5.0
 40
6.0
 40
6.0
 40
6.0
 40
7.0
 40
7.0
 40
7.0
 40
7.0
 10
6.142784045492994
 20
-1.108574626747466
 30
0.0
 10
6.163462261514269
 20
-1.118548582917987
 30
0.0
 10
6.184376552703321
 20
-1.123416634657815
 30
0.0
 10
6.204690062306832
 20
-1.123416634657815
 30
0.0
 10
6.25492366081567
 20
-1.123416634657815
 30
0.0
 10
6.303968885673283
 20
-1.095096307598106
 30
0.0
 10
6.329577692057076
 20
-1.039533919010612
 30
0.0
 10
6.390483837766143
 20
-0.9074146776547423
 30
0.0
 10
6.5109641541154
 20
-0.6486626636790965
 30
0.0
 10
6.575517374417814
 20
-0.5121352191190706
 30
0.0
 10
6.608848464831882
 20
-0.4416515383909427
 30
0.0
 10
6.570871318522777
 20
-0.3636199989391571
 30
0.0
 10
6.502338029859806
 20
-0.3334602777367005
 30
0.0
 10
6.438561795014215
 20
-0.305377803367858
 30
0.0
 10
6.359642272183186
 20
-0.3242315933309025
 30
0.0
 10
6.323472806324743
 20
-0.3961423902042674
 30
0.0
 10
6.25409910482065
 20
-0.5340335235252824
 30
0.0
 10
6.142244912727013
 20
-0.7790535088146396
 30
0.0
 10
6.08373315077271
 20
-0.9075573892692621
 30
0.0
 10
6.044677738931669
 20
-0.9933587832894974
 30
0.0
 10
6.067908018406746
 20
-1.072294162966601
 30
0.0
 10
6.142784045492994
 20
-1.108574626747466
 30
0.0
  0
HATCH
  5
52
330
1F
100
AcDbEntity
  8
Layer 1
 62
     7
420
 16777215
100
AcDbHatch
 10
0.0
 20
0.0
 30
0.0
210
0.0
220
0.0
230
1.0
  2
SOLID
 70
     1
 71
     0
 91
        1
 92
        1
 93
        1
 72
     4
 94
        3
 73
     0
 74
     1
 95
       26
 96
       22
 40
0.0
 40
0.0
 40
0.0
 40
0.0
 40
1.0
 40
1.0
 40
1.0
 40
2.0
 40
2.0
 40
2.0
 40
3.0
 40
3.0
 40
3.0
 40
4.0
 40
4.0
 40
4.0
 40
5.0
 40
5.0
 40
5.0
 40
6.0
 40
6.0
 40
6.0
 40
7.0
 40
7.0
 40
7.0
 40
7.0
 10
6.142784045492994
 20
-1.108574626747466
 10
6.163462261514269
 20
-1.118548582917987
 10
6.184376552703321
 20
-1.123416634657815
 10
6.204690062306832
 20
-1.123416634657815
 10
6.25492366081567
 20
-1.123416634657815
 10
6.303968885673283
 20
-1.095096307598106
 10
6.329577692057076
 20
-1.039533919010612
 10
6.390483837766143
 20
-0.9074146776547423
 10
6.5109641541154
 20
-0.6486626636790965
 10
6.575517374417814
 20
-0.5121352191190706
 10
6.608848464831882
 20
-0.4416515383909427
 10
6.570871318522777
 20
-0.3636199989391571
 10
6.502338029859806
 20
-0.3334602777367005
 10
6.438561795014215
 20
-0.305377803367858
 10
6.359642272183186
 20
-0.3242315933309025
 10
6.323472806324743
 20
-0.3961423902042674
 10
6.25409910482065
 20
-0.5340335235252824
 10
6.142244912727013
 20
-0.7790535088146396
 10
6.08373315077271
 20
-0.9075573892692621
 10
6.044677738931669
 20
-0.9933587832894974
 10
6.067908018406746
 20
-1.072294162966601
 10
6.142784045492994
 20
-1.108574626747466
 97
        0
 97
        0
 75
     2
 76
     1
 98
        0
  0
SPLINE
  5
53
330
1F
100
AcDbEntity
  8
Layer 1
370
     0
100
AcDbSpline
210
0.0
220
0.0
230
1.0
 70
    11
 71
     3
 72
    32
 73
    28
 74
     0
 42
0.0000000001
 43
0.0000000001
 12
1.0
 22
0.0
 32
0.0
 13
1.0
 23
0.0
 33
0.0
 40
0.0
 40
0.0
 40
0.0
 40
0.0
 40
1.0
 40
1.0
 40
1.0
 40
2.0
 40
2.0
 40
2.0
 40
3.0
 40
3.0
 40
3.0
 40
4.0
 40
4.0
 40
4.0
 40
5.0
 40
5.0
 40
5.0
 40
6.0
 40
6.0
 40
6.0
 40
7.0
 40
7.0
 40
7.0
 40
8.0
 40
8.0
 40
8.0
 40
9.0
 40
9.0
 40
9.0
 40
9.0
 10
7.930484870080211
 20
-3.345563327544166
 30
0.0
 10
7.936764181119214
 20
-3.310075706066199
 30
0.0
 10
7.928455193784783
 20
-3.274857157659905
 30
0.0
 10
7.906493461994361
 20
-3.24371480531315
 30
0.0
 10
7.859604768200622
 20
-3.177258763483767
 30
0.0
 10
7.771710270500736
 20
-3.167110382006601
 30
0.0
 10
7.697389233026519
 20
-3.218851270694093
 30
0.0
 10
7.439477631891956
 20
-3.398430052301781
 30
0.0
 10
6.922338311400002
 20
-3.755700650836236
 30
0.0
 10
6.664030289113978
 20
-3.934708585985832
 30
0.0
 10
6.620566674068792
 20
-3.964836593496178
 30
0.0
 10
6.593784461076716
 20
-4.002560030268342
 30
0.0
 10
6.586601309812421
 20
-4.043787830019331
 30
0.0
 10
6.580528137772161
 20
-4.078498466040451
 30
0.0
 10
6.588948123028987
 20
-4.113066390447051
 30
0.0
 10
6.610830570589137
 20
-4.143812343593936
 30
0.0
 10
6.637327360352174
 20
-4.181044689498018
 30
0.0
 10
6.675431361429723
 20
-4.200088761613756
 30
0.0
 10
6.718244845786532
 20
-4.200088761613756
 30
0.0
 10
6.750085392671129
 20
-4.200088761613756
 30
0.0
 10
6.785588870995171
 20
-4.191082073052763
 30
0.0
 10
6.818713822410498
 20
-4.168073318675712
 30
0.0
 10
7.084648987650426
 20
-3.983357389691996
 30
0.0
 10
7.599393924387641
 20
-3.628464833687771
 30
0.0
 10
7.859525483970325
 20
-3.448458401614996
 30
0.0
 10
7.89832718627445
 20
-3.421612761238685
 30
0.0
 10
7.923492000968609
 20
-3.385031017382706
 30
0.0
 10
7.930484870080211
 20
-3.345563327544166
 30
0.0
  0
HATCH
  5
54
330
1F
100
AcDbEntity
  8
Layer 1
 62
     7
420
 16777215
100
AcDbHatch
 10
0.0
 20
0.0
 30
0.0
210
0.0
220
0.0
230
1.0
  2
SOLID
 70
     1
 71
     0
 91
        1
 92
        1
 93
        1
 72
     4
 94
        3
 73
     0
 74
     1
 95
       32
 96
       28
 40
0.0
 40
0.0
 40
0.0
 40
0.0
 40
1.0
 40
1.0
 40
1.0
 40
2.0
 40
2.0
 40
2.0
 40
3.0
 40
3.0
 40
3.0
 40
4.0
 40
4.0
 40
4.0
 40
5.0
 40
5.0
 40
5.0
 40
6.0
 40
6.0
 40
6.0
 40
7.0
 40
7.0
 40
7.0
 40
8.0
 40
8.0
 40
8.0
 40
9.0
 40
9.0
 40
9.0
 40
9.0
 10
7.930484870080211
 20
-3.345563327544166
 10
7.936764181119214
 20
-3.310075706066199
 10
7.928455193784783
 20
-3.274857157659905
 10
7.906493461994361
 20
-3.24371480531315
 10
7.859604768200622
 20
-3.177258763483767
 10
7.771710270500736
 20
-3.167110382006601
 10
7.697389233026519
 20
-3.218851270694093
 10
7.439477631891956
 20
-3.398430052301781
 10
6.922338311400002
 20
-3.755700650836236
 10
6.664030289113978
 20
-3.934708585985832
 10
6.620566674068792
 20
-3.964836593496178
 10
6.593784461076716
 20
-4.002560030268342
 10
6.586601309812421
 20
-4.043787830019331
 10
6.580528137772161
 20
-4.078498466040451
 10
6.588948123028987
 20
-4.113066390447051
 10
6.610830570589137
 20
-4.143812343593936
 10
6.637327360352174
 20
-4.181044689498018
 10
6.675431361429723
 20
-4.200088761613756
 10
6.718244845786532
 20
-4.200088761613756
 10
6.750085392671129
 20
-4.200088761613756
 10
6.785588870995171
 20
-4.191082073052763
 10
6.818713822410498
 20
-4.168073318675712
 10
7.084648987650426
 20
-3.983357389691996
 10
7.599393924387641
 20
-3.628464833687771
 10
7.859525483970325
 20
-3.448458401614996
 10
7.89832718627445
 20
-3.421612761238685
 10
7.923492000968609
 20
-3.385031017382706
 10
7.930484870080211
 20
-3.345563327544166
 97
        0
 97
        0
 75
     2
 76
     1
 98
        0
  0
SPLINE
  5
55
330
1F
100
AcDbEntity
  8
Layer 1
370
     0
100
AcDbSpline
210
0.0
220
0.0
230
1.0
 70
    11
 71
     3
 72
    26
 73
    22
 74
     0
 42
0.0000000001
 43
0.0000000001
 12
1.0
 22
0.0
 32
0.0
 13
1.0
 23
0.0
 33
0.0
 40
0.0
 40
0.0
 40
0.0
 40
0.0
 40
1.0
 40
1.0
 40
1.0
 40
2.0
 40
2.0
 40
2.0
 40
3.0
 40
3.0
 40
3.0
 40
4.0
 40
4.0
 40
4.0
 40
5.0
 40
5.0
 40
5.0
 40
6.0
 40
6.0
 40
6.0
 40
7.0
 40
7.0
 40
7.0
 40
7.0
 10
8.334945442483482
 20
-2.77126007701285
 30
0.0
 10
8.258436160253293
 20
-2.826425539809179
 30
0.0
 10
8.239376231291493
 20
-2.906407975965812
 30
0.0
 10
8.286407636699753
 20
-2.975068119397267
 30
0.0
 10
8.313570413997216
 20
-3.014741948234561
 30
0.0
 10
8.35297562052488
 20
-3.035324134417957
 30
0.0
 10
8.395819874500425
 20
-3.035324134417957
 30
0.0
 10
8.424156058406222
 20
-3.035324134417957
 30
0.0
 10
8.454014499533564
 20
-3.026317445856964
 30
0.0
 10
8.482794675128995
 20
-3.007923504429603
 30
0.0
 10
8.482794675128995
 20
-3.007923504429603
 30
0.0
 10
8.832723553938548
 20
-2.759462583545643
 30
0.0
 10
8.958135349411855
 20
-2.672170645995948
 30
0.0
 10
9.02210186641014
 20
-2.627660479110924
 30
0.0
 10
9.027873758375259
 20
-2.540939388019322
 30
0.0
 10
8.983316020952062
 20
-2.480746287010536
 30
0.0
 10
8.941818654818082
 20
-2.424676992721528
 30
0.0
 10
8.862645422450138
 20
-2.399750030718236
 30
0.0
 10
8.79695050923154
 20
-2.446336930195318
 30
0.0
 10
8.67518674056469
 20
-2.532693828069126
 30
0.0
 10
8.334945442483482
 20
-2.77126007701285
 30
0.0
 10
8.334945442483482
 20
-2.77126007701285
 30
0.0
  0
HATCH
  5
56
330
1F
100
AcDbEntity
  8
Layer 1
 62
     7
420
 16777215
100
AcDbHatch
 10
0.0
 20
0.0
 30
0.0
210
0.0
220
0.0
230
1.0
  2
SOLID
 70
     1
 71
     0
 91
        1
 92
        1
 93
        1
 72
     4
 94
        3
 73
     0
 74
     1
 95
       26
 96
       22
 40
0.0
 40
0.0
 40
0.0
 40
0.0
 40
1.0
 40
1.0
 40
1.0
 40
2.0
 40
2.0
 40
2.0
 40
3.0
 40
3.0
 40
3.0
 40
4.0
 40
4.0
 40
4.0
 40
5.0
 40
5.0
 40
5.0
 40
6.0
 40
6.0
 40
6.0
 40
7.0
 40
7.0
 40
7.0
 40
7.0
 10
8.334945442483482
 20
-2.77126007701285
 10
8.258436160253293
 20
-2.826425539809179
 10
8.239376231291493
 20
-2.906407975965812
 10
8.286407636699753
 20
-2.975068119397267
 10
8.313570413997216
 20
-3.014741948234561
 10
8.35297562052488
 20
-3.035324134417957
 10
8.395819874500425
 20
-3.035324134417957
 10
8.424156058406222
 20
-3.035324134417957
 10
8.454014499533564
 20
-3.026317445856964
 10
8.482794675128995
 20
-3.007923504429603
 10
8.482794675128995
 20
-3.007923504429603
 10
8.832723553938548
 20
-2.759462583545643
 10
8.958135349411855
 20
-2.672170645995948
 10
9.02210186641014
 20
-2.627660479110924
 10
9.027873758375259
 20
-2.540939388019322
 10
8.983316020952062
 20
-2.480746287010536
 10
8.941818654818082
 20
-2.424676992721528
 10
8.862645422450138
 20
-2.399750030718236
 10
8.79695050923154
 20
-2.446336930195318
 10
8.67518674056469
 20
-2.532693828069126
 10
8.334945442483482
 20
-2.77126007701285
 10
8.334945442483482
 20
-2.77126007701285
 97
        0
 97
        0
 75
     2
 76
     1
 98
        0
  0
SPLINE
  5
57
330
1F
100
AcDbEntity
  8
Layer 1
370
     0
100
AcDbSpline
210
0.0
220
0.0
230
1.0
 70
    11
 71
     3
 72
    32
 73
    28
 74
     0
 42
0.0000000001
 43
0.0000000001
 12
1.0
 22
0.0
 32
0.0
 13
1.0
 23
0.0
 33
0.0
 40
0.0
 40
0.0
 40
0.0
 40
0.0
 40
1.0
 40
1.0
 40
1.0
 40
2.0
 40
2.0
 40
2.0
 40
3.0
 40
3.0
 40
3.0
 40
4.0
 40
4.0
 40
4.0
 40
5.0
 40
5.0
 40
5.0
 40
6.0
 40
6.0
 40
6.0
 40
7.0
 40
7.0
 40
7.0
 40
8.0
 40
8.0
 40
8.0
 40
9.0
 40
9.0
 40
9.0
 40
9.0
 10
8.765839377265593
 20
-5.678137096378931
 30
0.0
 10
8.452523956004118
 20
-5.702683494076823
 30
0.0
 10
7.512038559453686
 20
-5.76956767074978
 30
0.0
 10
7.512038559453686
 20
-5.76956767074978
 30
0.0
 10
7.459283754115353
 20
-5.773452598034004
 30
0.0
 10
7.417071908411899
 20
-5.792338101689173
 30
0.0
 10
7.389909131114412
 20
-5.824226219111956
 30
0.0
 10
7.367075272790796
 20
-5.851008432104057
 30
0.0
 10
7.356720752314888
 20
-5.885052653218407
 30
0.0
 10
7.359987262602822
 20
-5.922633379325425
 30
0.0
 10
7.366662994793286
 20
-6.000062785049939
 30
0.0
 10
7.428980399801528
 20
-6.049187294137861
 30
0.0
 10
7.520981820630468
 20
-6.049187294137861
 30
0.0
 10
7.523376204385234
 20
-6.049187294137861
 30
0.0
 10
7.52854553620015
 20
-6.048949441446994
 30
0.0
 10
7.531003347339164
 20
-6.048886014062746
 30
0.0
 10
7.531003347339164
 20
-6.048886014062746
 30
0.0
 10
8.474311262487895
 20
-5.980939428703904
 30
0.0
 10
8.788752519819505
 20
-5.958232425148745
 30
0.0
 10
8.835847352611987
 20
-5.954822777636561
 30
0.0
 10
8.876107884753436
 20
-5.936143838589841
 30
0.0
 10
8.902176539672912
 20
-5.905698694158344
 30
0.0
 10
8.925597101300683
 20
-5.878329777862114
 30
0.0
 10
8.936379756620175
 20
-5.843761853455513
 30
0.0
 10
8.933271814792786
 20
-5.805768420925157
 30
0.0
 10
8.926676325398931
 20
-5.724739935521521
 30
0.0
 10
8.856128258720268
 20
-5.671064943037032
 30
0.0
 10
8.765839377265593
 20
-5.678137096378931
 30
0.0
  0
HATCH
  5
58
330
1F
100
AcDbEntity
  8
Layer 1
 62
     7
420
 16777215
100
AcDbHatch
 10
0.0
 20
0.0
 30
0.0
210
0.0
220
0.0
230
1.0
  2
SOLID
 70
     1
 71
     0
 91
        1
 92
        1
 93
        1
 72
     4
 94
        3
 73
     0
 74
     1
 95
       32
 96
       28
 40
0.0
 40
0.0
 40
0.0
 40
0.0
 40
1.0
 40
1.0
 40
1.0
 40
2.0
 40
2.0
 40
2.0
 40
3.0
 40
3.0
 40
3.0
 40
4.0
 40
4.0
 40
4.0
 40
5.0
 40
5.0
 40
5.0
 40
6.0
 40
6.0
 40
6.0
 40
7.0
 40
7.0
 40
7.0
 40
8.0
 40
8.0
 40
8.0
 40
9.0
 40
9.0
 40
9.0
 40
9.0
 10
8.765839377265593
 20
-5.678137096378931
 10
8.452523956004118
 20
-5.702683494076823
 10
7.512038559453686
 20
-5.76956767074978
 10
7.512038559453686
 20
-5.76956767074978
 10
7.459283754115353
 20
-5.773452598034004
 10
7.417071908411899
 20
-5.792338101689173
 10
7.389909131114412
 20
-5.824226219111956
 10
7.367075272790796
 20
-5.851008432104057
 10
7.356720752314888
 20
-5.885052653218407
 10
7.359987262602822
 20
-5.922633379325425
 10
7.366662994793286
 20
-6.000062785049939
 10
7.428980399801528
 20
-6.049187294137861
 10
7.520981820630468
 20
-6.049187294137861
 10
7.523376204385234
 20
-6.049187294137861
 10
7.52854553620015
 20
-6.048949441446994
 10
7.531003347339164
 20
-6.048886014062746
 10
7.531003347339164
 20
-6.048886014062746
 10
8.474311262487895
 20
-5.980939428703904
 10
8.788752519819505
 20
-5.958232425148745
 10
8.835847352611987
 20
-5.954822777636561
 10
8.876107884753436
 20
-5.936143838589841
 10
8.902176539672912
 20
-5.905698694158344
 10
8.925597101300683
 20
-5.878329777862114
 10
8.936379756620175
 20
-5.843761853455513
 10
8.933271814792786
 20
-5.805768420925157
 10
8.926676325398931
 20
-5.724739935521521
 10
8.856128258720268
 20
-5.671064943037032
 10
8.765839377265593
 20
-5.678137096378931
 97
        0
 97
        0
 75
     2
 76
     1
 98
        0
  0
SPLINE
  5
59
330
1F
100
AcDbEntity
  8
Layer 1
370
     0
100
AcDbSpline
210
0.0
220
0.0
230
1.0
 70
    11
 71
     3
 72
    26
 73
    22
 74
     0
 42
0.0000000001
 43
0.0000000001
 12
1.0
 22
0.0
 32
0.0
 13
1.0
 23
0.0
 33
0.0
 40
0.0
 40
0.0
 40
0.0
 40
0.0
 40
1.0
 40
1.0
 40
1.0
 40
2.0
 40
2.0
 40
2.0
 40
3.0
 40
3.0
 40
3.0
 40
4.0
 40
4.0
 40
4.0
 40
5.0
 40
5.0
 40
5.0
 40
6.0
 40
6.0
 40
6.0
 40
7.0
 40
7.0
 40
7.0
 40
7.0
 10
9.556017730031524
 20
-5.624366097438294
 30
0.0
 10
9.462003461842894
 20
-5.631818815273795
 30
0.0
 10
9.404188429025453
 20
-5.690346867843648
 30
0.0
 10
9.408755200690191
 20
-5.773405027495831
 30
0.0
 10
9.412973121741642
 20
-5.850818149951351
 30
0.0
 10
9.47029562024156
 20
-5.902321185947977
 30
0.0
 10
9.553797771583403
 20
-5.903351880941752
 30
0.0
 10
9.556223869030266
 20
-5.903383594633864
 30
0.0
 10
9.558713393861403
 20
-5.903383594633864
 30
0.0
 10
9.56121877553859
 20
-5.903351880941752
 30
0.0
 10
9.56121877553859
 20
-5.903351880941752
 30
0.0
 10
9.987799648192878
 20
-5.872922593356305
 30
0.0
 10
10.14015222511883
 20
-5.862996207723957
 30
0.0
 10
10.21794591187977
 20
-5.857922016985362
 30
0.0
 10
10.2678949769627
 20
-5.786994344567599
 30
0.0
 10
10.26102995489444
 20
-5.712403740710417
 30
0.0
 10
10.25460693996603
 20
-5.642982468668176
 30
0.0
 10
10.19983739368144
 20
-5.581188339579866
 30
0.0
 10
10.12461251598193
 20
-5.586341814548732
 30
0.0
 10
9.978158685789568
 20
-5.59636334125744
 30
0.0
 10
9.556017730031524
 20
-5.624366097438294
 30
0.0
 10
9.556017730031524
 20
-5.624366097438294
 30
0.0
  0
HATCH
  5
5A
330
1F
100
AcDbEntity
  8
Layer 1
 62
     7
420
 16777215
100
AcDbHatch
 10
0.0
 20
0.0
 30
0.0
210
0.0
220
0.0
230
1.0
  2
SOLID
 70
     1
 71
     0
 91
        1
 92
        1
 93
        1
 72
     4
 94
        3
 73
     0
 74
     1
 95
       26
 96
       22
 40
0.0
 40
0.0
 40
0.0
 40
0.0
 40
1.0
 40
1.0
 40
1.0
 40
2.0
 40
2.0
 40
2.0
 40
3.0
 40
3.0
 40
3.0
 40
4.0
 40
4.0
 40
4.0
 40
5.0
 40
5.0
 40
5.0
 40
6.0
 40
6.0
 40
6.0
 40
7.0
 40
7.0
 40
7.0
 40
7.0
 10
9.556017730031524
 20
-5.624366097438294
 10
9.462003461842894
 20
-5.631818815273795
 10
9.404188429025453
 20
-5.690346867843648
 10
9.408755200690191
 20
-5.773405027495831
 10
9.412973121741642
 20
-5.850818149951351
 10
9.47029562024156
 20
-5.902321185947977
 10
9.553797771583403
 20
-5.903351880941752
 10
9.556223869030266
 20
-5.903383594633864
 10
9.558713393861403
 20
-5.903383594633864
 10
9.56121877553859
 20
-5.903351880941752
 10
9.56121877553859
 20
-5.903351880941752
 10
9.987799648192878
 20
-5.872922593356305
 10
10.14015222511883
 20
-5.862996207723957
 10
10.21794591187977
 20
-5.857922016985362
 10
10.2678949769627
 20
-5.786994344567599
 10
10.26102995489444
 20
-5.712403740710417
 10
10.25460693996603
 20
-5.642982468668176
 10
10.19983739368144
 20
-5.581188339579866
 10
10.12461251598193
 20
-5.586341814548732
 10
9.978158685789568
 20
-5.59636334125744
 10
9.556017730031524
 20
-5.624366097438294
 10
9.556017730031524
 20
-5.624366097438294
 97
        0
 97
        0
 75
     2
 76
     1
 98
        0
  0
SPLINE
  5
5B
330
1F
100
AcDbEntity
  8
Layer 1
370
     0
100
AcDbSpline
210
0.0
220
0.0
230
1.0
 70
    11
 71
     3
 72
    53
 73
    49
 74
     0
 42
0.0000000001
 43
0.0000000001
 12
1.0
 22
0.0
 32
0.0
 13
1.0
 23
0.0
 33
0.0
 40
0.0
 40
0.0
 40
0.0
 40
0.0
 40
1.0
 40
1.0
 40
1.0
 40
2.0
 40
2.0
 40
2.0
 40
3.0
 40
3.0
 40
3.0
 40
4.0
 40
4.0
 40
4.0
 40
5.0
 40
5.0
 40
5.0
 40
6.0
 40
6.0
 40
6.0
 40
7.0
 40
7.0
 40
7.0
 40
8.0
 40
8.0
 40
8.0
 40
9.0
 40
9.0
 40
9.0
 40
10.0
 40
10.0
 40
10.0
 40
11.0
 40
11.0
 40
11.0
 40
12.0
 40
12.0
 40
12.0
 40
13.0
 40
13.0
 40
13.0
 40
14.0
 40
14.0
 40
14.0
 40
15.0
 40
15.0
 40
15.0
 40
16.0
 40
16.0
 40
16.0
 40
16.0
 10
1.199887992270229
 20
-6.102720006429914
 30
0.0
 10
1.199887992270229
 20
-6.102720006429914
 30
0.0
 10
1.199872135424167
 20
-6.102720006429914
 30
0.0
 10
1.199872135424167
 20
-6.102720006429914
 30
0.0
 10
1.161737183061935
 20
-6.113296522750639
 30
0.0
 10
1.161737183061935
 20
-6.177818029360954
 30
0.0
 10
1.199872135424167
 20
-6.188410402527754
 30
0.0
 10
1.199872135424167
 20
-6.188410402527754
 30
0.0
 10
1.199872135424167
 20
-6.188410402527754
 30
0.0
 10
1.199872135424167
 20
-6.188410402527754
 30
0.0
 10
1.670091048430284
 20
-6.318895972327103
 30
0.0
 10
2.037256318904989
 20
-6.755165794335426
 30
0.0
 10
2.147081622002512
 20
-7.31389723076106
 30
0.0
 10
2.147081622002512
 20
-7.31389723076106
 30
0.0
 10
2.147081622002512
 20
-7.31389723076106
 30
0.0
 10
2.147081622002512
 20
-7.31389723076106
 30
0.0
 10
2.155976525341783
 20
-7.35921609793983
 30
0.0
 10
2.210286223090685
 20
-7.35921609793983
 30
0.0
 10
2.219181913729269
 20
-7.31389723076106
 30
0.0
 10
2.219181913729269
 20
-7.31389723076106
 30
0.0
 10
2.219181913729269
 20
-7.31389723076106
 30
0.0
 10
2.219181913729269
 20
-7.31389723076106
 30
0.0
 10
2.329006429527479
 20
-6.755165794335426
 30
0.0
 10
2.696171700002183
 20
-6.318895972327103
 30
0.0
 10
3.1663906130083
 20
-6.188410402527754
 30
0.0
 10
3.1663906130083
 20
-6.188410402527754
 30
0.0
 10
3.1663906130083
 20
-6.188410402527754
 30
0.0
 10
3.1663906130083
 20
-6.188410402527754
 30
0.0
 10
3.204526327777962
 20
-6.177818029360954
 30
0.0
 10
3.204526327777962
 20
-6.113296522750639
 30
0.0
 10
3.1663906130083
 20
-6.102720006429914
 30
0.0
 10
3.1663906130083
 20
-6.102720006429914
 30
0.0
 10
3.1663906130083
 20
-6.102720006429914
 30
0.0
 10
3.1663906130083
 20
-6.102720006429914
 30
0.0
 10
2.696171700002183
 20
-5.972218163371963
 30
0.0
 10
2.329006429527479
 20
-5.535948757776181
 30
0.0
 10
2.219181913729269
 20
-4.977216930073888
 30
0.0
 10
2.219181913729269
 20
-4.977216930073888
 30
0.0
 10
2.219181913729269
 20
-4.977216930073888
 30
0.0
 10
2.219181913729269
 20
-4.977216930073888
 30
0.0
 10
2.210286223090685
 20
-4.931897612588955
 30
0.0
 10
2.155976525341783
 20
-4.931897612588955
 30
0.0
 10
2.147081622002512
 20
-4.977216930073888
 30
0.0
 10
2.147081622002512
 20
-4.977216930073888
 30
0.0
 10
2.147081622002512
 20
-4.97723278691995
 30
0.0
 10
2.147081622002512
 20
-4.97723278691995
 30
0.0
 10
2.037256318904989
 20
-5.535948757776181
 30
0.0
 10
1.670091048430284
 20
-5.972218163371963
 30
0.0
 10
1.199887992270229
 20
-6.102720006429914
 30
0.0
  0
HATCH
  5
5C
330
1F
100
AcDbEntity
  8
Layer 1
 62
     7
420
 16777215
100
AcDbHatch
 10
0.0
 20
0.0
 30
0.0
210
0.0
220
0.0
230
1.0
  2
SOLID
 70
     1
 71
     0
 91
        1
 92
        1
 93
        1
 72
     4
 94
        3
 73
     0
 74
     1
 95
       53
 96
       49
 40
0.0
 40
0.0
 40
0.0
 40
0.0
 40
1.0
 40
1.0
 40
1.0
 40
2.0
 40
2.0
 40
2.0
 40
3.0
 40
3.0
 40
3.0
 40
4.0
 40
4.0
 40
4.0
 40
5.0
 40
5.0
 40
5.0
 40
6.0
 40
6.0
 40
6.0
 40
7.0
 40
7.0
 40
7.0
 40
8.0
 40
8.0
 40
8.0
 40
9.0
 40
9.0
 40
9.0
 40
10.0
 40
10.0
 40
10.0
 40
11.0
 40
11.0
 40
11.0
 40
12.0
 40
12.0
 40
12.0
 40
13.0
 40
13.0
 40
13.0
 40
14.0
 40
14.0
 40
14.0
 40
15.0
 40
15.0
 40
15.0
 40
16.0
 40
16.0
 40
16.0
 40
16.0
 10
1.199887992270229
 20
-6.102720006429914
 10
1.199887992270229
 20
-6.102720006429914
 10
1.199872135424167
 20
-6.102720006429914
 10
1.199872135424167
 20
-6.102720006429914
 10
1.161737183061935
 20
-6.113296522750639
 10
1.161737183061935
 20
-6.177818029360954
 10
1.199872135424167
 20
-6.188410402527754
 10
1.199872135424167
 20
-6.188410402527754
 10
1.199872135424167
 20
-6.188410402527754
 10
1.199872135424167
 20
-6.188410402527754
 10
1.670091048430284
 20
-6.318895972327103
 10
2.037256318904989
 20
-6.755165794335426
 10
2.147081622002512
 20
-7.31389723076106
 10
2.147081622002512
 20
-7.31389723076106
 10
2.147081622002512
 20
-7.31389723076106
 10
2.147081622002512
 20
-7.31389723076106
 10
2.155976525341783
 20
-7.35921609793983
 10
2.210286223090685
 20
-7.35921609793983
 10
2.219181913729269
 20
-7.31389723076106
 10
2.219181913729269
 20
-7.31389723076106
 10
2.219181913729269
 20
-7.31389723076106
 10
2.219181913729269
 20
-7.31389723076106
 10
2.329006429527479
 20
-6.755165794335426
 10
2.696171700002183
 20
-6.318895972327103
 10
3.1663906130083
 20
-6.188410402527754
 10
3.1663906130083
 20
-6.188410402527754
 10
3.1663906130083
 20
-6.188410402527754
 10
3.1663906130083
 20
-6.188410402527754
 10
3.204526327777962
 20
-6.177818029360954
 10
3.204526327777962
 20
-6.113296522750639
 10
3.1663906130083
 20
-6.102720006429914
 10
3.1663906130083
 20
-6.102720006429914
 10
3.1663906130083
 20
-6.102720006429914
 10
3.1663906130083
 20
-6.102720006429914
 10
2.696171700002183
 20
-5.972218163371963
 10
2.329006429527479
 20
-5.535948757776181
 10
2.219181913729269
 20
-4.977216930073888
 10
2.219181913729269
 20
-4.977216930073888
 10
2.219181913729269
 20
-4.977216930073888
 10
2.219181913729269
 20
-4.977216930073888
 10
2.210286223090685
 20
-4.931897612588955
 10
2.155976525341783
 20
-4.931897612588955
 10
2.147081622002512
 20
-4.977216930073888
 10
2.147081622002512
 20
-4.977216930073888
 10
2.147081622002512
 20
-4.97723278691995
 10
2.147081622002512
 20
-4.97723278691995
 10
2.037256318904989
 20
-5.535948757776181
 10
1.670091048430284
 20
-5.972218163371963
 10
1.199887992270229
 20
-6.102720006429914
 97
        0
 97
        0
 75
     2
 76
     1
 98
        0
  0
ENDSEC
  0
SECTION
  2
OBJECTS
  0
DICTIONARY
  5
C
330
0
100
AcDbDictionary
281
     1
  3
ACAD_GROUP
350
D
  3
ACAD_LAYOUT
350
1A
  3
ACAD_MATERIAL
350
3B
  3
ACAD_MLEADERSTYLE
350
5E
  3
ACAD_MLINESTYLE
350
17
  3
ACAD_PLOTSETTINGS
350
19
  3
ACAD_PLOTSTYLENAME
350
E
  3
ACAD_TABLESTYLE
350
5D
  3
ACAD_VISUALSTYLE
350
2A
  0
SUN
  5
3F
330
29
100
AcDbSun
 90
        1
290
     0
 63
     7
421
 16777215
 40
1.0
291
     1
 91
  2455826
 92
 54000000
292
     0
 70
     2
 71
   256
280
     1
  0
DICTIONARY
  5
D
102
{ACAD_REACTORS
330
C
102
}
330
C
100
AcDbDictionary
281
     1
  0
DICTIONARY
  5
1A
102
{ACAD_REACTORS
330
C
102
}
330
C
100
AcDbDictionary
281
     1
  3
Layout1
350
1E
  3
Layout2
350
26
  3
Model
350
22
  0
DICTIONARY
  5
3B
102
{ACAD_REACTORS
330
C
102
}
330
C
100
AcDbDictionary
281
     1
  3
ByBlock
350
3D
  3
ByLayer
350
3C
  3
Global
350
3E
  0
DICTIONARY
  5
5E
102
{ACAD_REACTORS
330
C
102
}
330
C
100
AcDbDictionary
281
     1
  0
DICTIONARY
  5
17
102
{ACAD_REACTORS
330
C
102
}
330
C
100
AcDbDictionary
281
     1
  3
Standard
350
18
  0
DICTIONARY
  5
19
102
{ACAD_REACTORS
330
C
102
}
330
C
100
AcDbDictionary
281
     1
  0
ACDBDICTIONARYWDFLT
  5
E
102
{ACAD_REACTORS
330
C
102
}
330
C
100
AcDbDictionary
281
     1
  3
Normal
350
F
100
AcDbDictionaryWithDefault
340
F
  0
DICTIONARY
  5
5D
102
{ACAD_REACTORS
330
C
102
}
330
C
100
AcDbDictionary
281
     1
  0
DICTIONARY
  5
2A
102
{ACAD_REACTORS
330
C
102
}
330
C
100
AcDbDictionary
281
     1
  3
2dWireframe
350
2F
  3
3D Hidden
350
31
  3
3dWireframe
350
30
  3
Basic
350
32
  3
Brighten
350
36
  3
ColorChange
350
3A
  3
Conceptual
350
34
  3
Dim
350
35
  3
Facepattern
350
39
  3
Flat
350
2B
  3
FlatWithEdges
350
2C
  3
Gouraud
350
2D
  3
GouraudWithEdges
350
2E
  3
Linepattern
350
38
  3
Realistic
350
33
  3
Thicken
350
37
  0
LAYOUT
  5
1E
102
{ACAD_REACTORS
330
1A
102
}
330
1A
100
AcDbPlotSettings
  1

  2
none_device
  4

  6

 40
0.0
 41
0.0
 42
0.0
 43
0.0
 44
0.0
 45
0.0
 46
0.0
 47
0.0
 48
0.0
 49
0.0
140
0.0
141
0.0
142
1.0
143
1.0
 70
   688
 72
     0
 73
     0
 74
     5
  7

 75
    16
 76
     0
 77
     2
 78
   300
147
1.0
148
0.0
149
0.0
100
AcDbLayout
  1
Layout1
 70
     1
 71
     1
 10
0.0
 20
0.0
 11
12.0
 21
9.0
 12
0.0
 22
0.0
 32
0.0
 14
1.000000000000000E+20
 24
1.000000000000000E+20
 34
1.000000000000000E+20
 15
-1.000000000000000E+20
 25
-1.000000000000000E+20
 35
-1.000000000000000E+20
146
0.0
 13
0.0
 23
0.0
 33
0.0
 16
1.0
 26
0.0
 36
0.0
 17
0.0
 27
1.0
 37
0.0
 76
     0
330
1B
  0
LAYOUT
  5
26
102
{ACAD_REACTORS
330
1A
102
}
330
1A
100
AcDbPlotSettings
  1

  2
none_device
  4

  6

 40
0.0
 41
0.0
 42
0.0
 43
0.0
 44
0.0
 45
0.0
 46
0.0
 47
0.0
 48
0.0
 49
0.0
140
0.0
141
0.0
142
1.0
143
1.0
 70
   688
 72
     0
 73
     0
 74
     5
  7

 75
    16
 76
     0
 77
     2
 78
   300
147
1.0
148
0.0
149
0.0
100
AcDbLayout
  1
Layout2
 70
     1
 71
     2
 10
0.0
 20
0.0
 11
0.0
 21
0.0
 12
0.0
 22
0.0
 32
0.0
 14
0.0
 24
0.0
 34
0.0
 15
0.0
 25
0.0
 35
0.0
146
0.0
 13
0.0
 23
0.0
 33
0.0
 16
1.0
 26
0.0
 36
0.0
 17
0.0
 27
1.0
 37
0.0
 76
     0
330
23
  0
LAYOUT
  5
22
102
{ACAD_REACTORS
330
1A
102
}
330
1A
100
AcDbPlotSettings
  1

  2
none_device
  4

  6

 40
0.0
 41
0.0
 42
0.0
 43
0.0
 44
0.0
 45
0.0
 46
0.0
 47
0.0
 48
0.0
 49
0.0
140
0.0
141
0.0
142
1.0
143
1.0
 70
  1712
 72
     0
 73
     0
 74
     0
  7

 75
     0
 76
     0
 77
     2
 78
   300
147
1.0
148
0.0
149
0.0
100
AcDbLayout
  1
Model
 70
     1
 71
     0
 10
0.0
 20
0.0
 11
12.0
 21
9.0
 12
0.0
 22
0.0
 32
0.0
 14
1.000000000000000E+20
 24
1.000000000000000E+20
 34
1.000000000000000E+20
 15
-1.000000000000000E+20
 25
-1.000000000000000E+20
 35
-1.000000000000000E+20
146
0.0
 13
0.0
 23
0.0
 33
0.0
 16
1.0
 26
0.0
 36
0.0
 17
0.0
 27
1.0
 37
0.0
 76
     0
330
1F
331
29
  0
MATERIAL
  5
3D
102
{ACAD_REACTORS
330
3B
102
}
330
3B
100
AcDbMaterial
  1
ByBlock
 72
     1
 94
      127
  0
MATERIAL
  5
3C
102
{ACAD_REACTORS
330
3B
102
}
330
3B
100
AcDbMaterial
  1
ByLayer
 72
     1
 94
      127
  0
MATERIAL
  5
3E
102
{ACAD_REACTORS
330
3B
102
}
330
3B
100
AcDbMaterial
  1
Global
 72
     1
 94
      127
  0
MLINESTYLE
  5
18
102
{ACAD_REACTORS
330
17
102
}
330
17
100
AcDbMlineStyle
  2
Standard
 70
     0
  3

 62
   256
 51
90.0
 52
90.0
 71
     2
 49
0.5
 62
   256
  6
BYLAYER
 49
-0.5
 62
   256
  6
BYLAYER
  0
ACDBPLACEHOLDER
  5
F
102
{ACAD_REACTORS
330
E
102
}
330
E
  0
VISUALSTYLE
  5
2F
102
{ACAD_REACTORS
330
2A
102
}
330
2A
100
AcDbVisualStyle
  2
2dWireframe
 70
     4
177
     2
291
     0
 71
     0
176
     1
 72
     2
176
     1
 73
     0
176
     1
 90
        0
176
     1
 40
-0.6
176
     1
 41
-30.0
176
     1
 62
     5
 63
     7
421
 16777215
176
     1
 74
     1
176
     1
 91
        4
176
     1
 64
     7
176
     1
 65
   257
176
     1
 75
     1
176
     1
175
     1
176
     1
 42
1.0
176
     1
 92
        0
176
     1
 66
   257
176
     1
 43
1.0
176
     1
 76
     1
176
     1
 77
     6
176
     1
 78
     2
176
     1
 67
     7
176
     1
 79
     5
176
     1
170
     0
176
     1
171
     0
176
     1
290
     0
176
     1
 93
        1
176
     1
 44
0.0
176
     1
173
     0
176
     1
  0
VISUALSTYLE
  5
31
102
{ACAD_REACTORS
330
2A
102
}
330
2A
100
AcDbVisualStyle
  2
3D Hidden
 70
     6
177
     2
291
     0
 71
     1
176
     1
 72
     2
176
     1
 73
     2
176
     1
 90
        0
176
     1
 40
-0.6
176
     1
 41
-30.0
176
     1
 62
     5
 63
     7
421
 16777215
176
     1
 74
     2
176
     1
 91
        2
176
     1
 64
     7
176
     1
 65
   257
176
     1
 75
     2
176
     1
175
     1
176
     1
 42
40.0
176
     1
 92
        0
176
     1
 66
   257
176
     1
 43
1.0
176
     1
 76
     1
176
     1
 77
     6
176
     1
 78
     2
176
     1
 67
     7
176
     1
 79
     3
176
     1
170
     0
176
     1
171
     0
176
     1
290
     0
176
     1
 93
        1
176
     1
 44
0.0
176
     1
173
     0
176
     1
  0
VISUALSTYLE
  5
30
102
{ACAD_REACTORS
330
2A
102
}
330
2A
100
AcDbVisualStyle
  2
3dWireframe
 70
     5
177
     2
291
     0
 71
     0
176
     1
 72
     2
176
     1
 73
     0
176
     1
 90
        0
176
     1
 40
-0.6
176
     1
 41
-30.0
176
     1
 62
     5
 63
     7
421
 16777215
176
     1
 74
     1
176
     1
 91
        4
176
     1
 64
     7
176
     1
 65
   257
176
     1
 75
     1
176
     1
175
     1
176
     1
 42
1.0
176
     1
 92
        0
176
     1
 66
   257
176
     1
 43
1.0
176
     1
 76
     1
176
     1
 77
     6
176
     1
 78
     2
176
     1
 67
     7
176
     1
 79
     5
176
     1
170
     0
176
     1
171
     0
176
     1
290
     0
176
     1
 93
        1
176
     1
 44
0.0
176
     1
173
     0
176
     1
  0
VISUALSTYLE
  5
32
102
{ACAD_REACTORS
330
2A
102
}
330
2A
100
AcDbVisualStyle
  2
Basic
 70
     7
177
     2
291
     1
 71
     1
176
     1
 72
     0
176
     1
 73
     1
176
     1
 90
        0
176
     1
 40
-0.6
176
     1
 41
-30.0
176
     1
 62
     5
 63
     7
421
 16777215
176
     1
 74
     0
176
     1
 91
        4
176
     1
 64
     7
176
     1
 65
   257
176
     1
 75
     1
176
     1
175
     1
176
     1
 42
1.0
176
     1
 92
        8
176
     1
 66
     7
176
     1
 43
1.0
176
     1
 76
     1
176
     1
 77
     6
176
     1
 78
     2
176
     1
 67
     7
176
     1
 79
     5
176
     1
170
     0
176
     1
171
     0
176
     1
290
     0
176
     1
 93
        1
176
     1
 44
0.0
176
     1
173
     0
176
     1
  0
VISUALSTYLE
  5
36
102
{ACAD_REACTORS
330
2A
102
}
330
2A
100
AcDbVisualStyle
  2
Brighten
 70
    12
177
     2
291
     1
 71
     2
176
     1
 72
     2
176
     1
 73
     0
176
     1
 90
        0
176
     1
 40
-0.6
176
     1
 41
-30.0
176
     1
 62
     5
 63
     7
421
 16777215
176
     1
 74
     1
176
     1
 91
        4
176
     1
 64
     7
176
     1
 65
   257
176
     1
 75
     1
176
     1
175
     1
176
     1
 42
1.0
176
     1
 92
        8
176
     1
 66
     7
176
     1
 43
1.0
176
     1
 76
     1
176
     1
 77
     6
176
     1
 78
     2
176
     1
 67
     7
176
     1
 79
     5
176
     1
170
     0
176
     1
171
     0
176
     1
290
     0
176
     1
 93
        1
176
     1
 44
50.0
176
     1
173
     0
176
     1
  0
VISUALSTYLE
  5
3A
102
{ACAD_REACTORS
330
2A
102
}
330
2A
100
AcDbVisualStyle
  2
ColorChange
 70
    16
177
     2
291
     1
 71
     2
176
     1
 72
     2
176
     1
 73
     3
176
     1
 90
        0
176
     1
 40
-0.6
176
     1
 41
-30.0
176
     1
 62
     5
 63
     8
421
  8421504
176
     1
 74
     1
176
     1
 91
        4
176
     1
 64
     7
176
     1
 65
   257
176
     1
 75
     1
176
     1
175
     1
176
     1
 42
1.0
176
     1
 92
        8
176
     1
 66
     8
424
  8421504
176
     1
 43
1.0
176
     1
 76
     1
176
     1
 77
     6
176
     1
 78
     2
176
     1
 67
     7
176
     1
 79
     5
176
     1
170
     0
176
     1
171
     0
176
     1
290
     0
176
     1
 93
        1
176
     1
 44
0.0
176
     1
173
     0
176
     1
  0
VISUALSTYLE
  5
34
102
{ACAD_REACTORS
330
2A
102
}
330
2A
100
AcDbVisualStyle
  2
Conceptual
 70
     9
177
     2
291
     0
 71
     3
176
     1
 72
     2
176
     1
 73
     0
176
     1
 90
        0
176
     1
 40
-0.6
176
     1
 41
-30.0
176
     1
 62
     5
 63
     7
421
 16777215
176
     1
 74
     2
176
     1
 91
        2
176
     1
 64
     7
176
     1
 65
   257
176
     1
 75
     1
176
     1
175
     1
176
     1
 42
40.0
176
     1
 92
        8
176
     1
 66
     7
176
     1
 43
1.0
176
     1
 76
     1
176
     1
 77
     6
176
     1
 78
     2
176
     1
 67
     7
176
     1
 79
     3
176
     1
170
     0
176
     1
171
     0
176
     1
290
     0
176
     1
 93
        1
176
     1
 44
0.0
176
     1
173
     0
176
     1
  0
VISUALSTYLE
  5
35
102
{ACAD_REACTORS
330
2A
102
}
330
2A
100
AcDbVisualStyle
  2
Dim
 70
    11
177
     2
291
     1
 71
     2
176
     1
 72
     2
176
     1
 73
     0
176
     1
 90
        0
176
     1
 40
-0.6
176
     1
 41
-30.0
176
     1
 62
     5
 63
     7
421
 16777215
176
     1
 74
     1
176
     1
 91
        4
176
     1
 64
     7
176
     1
 65
   257
176
     1
 75
     1
176
     1
175
     1
176
     1
 42
1.0
176
     1
 92
        8
176
     1
 66
     7
176
     1
 43
1.0
176
     1
 76
     1
176
     1
 77
     6
176
     1
 78
     2
176
     1
 67
     7
176
     1
 79
     5
176
     1
170
     0
176
     1
171
     0
176
     1
290
     0
176
     1
 93
        1
176
     1
 44
-50.0
176
     1
173
     0
176
     1
  0
VISUALSTYLE
  5
39
102
{ACAD_REACTORS
330
2A
102
}
330
2A
100
AcDbVisualStyle
  2
Facepattern
 70
    15
177
     2
291
     1
 71
     2
176
     1
 72
     2
176
     1
 73
     0
176
     1
 90
        0
176
     1
 40
-0.6
176
     1
 41
-30.0
176
     1
 62
     5
 63
     7
421
 16777215
176
     1
 74
     1
176
     1
 91
        4
176
     1
 64
     7
176
     1
 65
   257
176
     1
 75
     1
176
     1
175
     1
176
     1
 42
1.0
176
     1
 92
        8
176
     1
 66
     7
176
     1
 43
1.0
176
     1
 76
     1
176
     1
 77
     6
176
     1
 78
     2
176
     1
 67
     7
176
     1
 79
     5
176
     1
170
     0
176
     1
171
     0
176
     1
290
     0
176
     1
 93
        1
176
     1
 44
0.0
176
     1
173
     0
176
     1
  0
VISUALSTYLE
  5
2B
102
{ACAD_REACTORS
330
2A
102
}
330
2A
100
AcDbVisualStyle
  2
Flat
 70
     0
177
     2
291
     1
 71
     2
176
     1
 72
     1
176
     1
 73
     1
176
     1
 90
        2
176
     1
 40
-0.6
176
     1
 41
30.0
176
     1
 62
     5
 63
     7
421
 16777215
176
     1
 74
     0
176
     1
 91
        4
176
     1
 64
     7
176
     1
 65
   257
176
     1
 75
     1
176
     1
175
     1
176
     1
 42
1.0
176
     1
 92
        8
176
     1
 66
     7
176
     1
 43
1.0
176
     1
 76
     1
176
     1
 77
     6
176
     1
 78
     2
176
     1
 67
     7
176
     1
 79
     5
176
     1
170
     0
176
     1
171
     0
176
     1
290
     0
176
     1
 93
       13
176
     1
 44
0.0
176
     1
173
     0
176
     1
  0
VISUALSTYLE
  5
2C
102
{ACAD_REACTORS
330
2A
102
}
330
2A
100
AcDbVisualStyle
  2
FlatWithEdges
 70
     1
177
     2
291
     1
 71
     2
176
     1
 72
     1
176
     1
 73
     1
176
     1
 90
        2
176
     1
 40
-0.6
176
     1
 41
30.0
176
     1
 62
     5
 63
     7
421
 16777215
176
     1
 74
     1
176
     1
 91
        4
176
     1
 64
     7
176
     1
 65
   257
176
     1
 75
     1
176
     1
175
     1
176
     1
 42
1.0
176
     1
 92
        0
176
     1
 66
   257
176
     1
 43
1.0
176
     1
 76
     1
176
     1
 77
     6
176
     1
 78
     2
176
     1
 67
     7
176
     1
 79
     5
176
     1
170
     0
176
     1
171
     0
176
     1
290
     0
176
     1
 93
       13
176
     1
 44
0.0
176
     1
173
     0
176
     1
  0
VISUALSTYLE
  5
2D
102
{ACAD_REACTORS
330
2A
102
}
330
2A
100
AcDbVisualStyle
  2
Gouraud
 70
     2
177
     2
291
     1
 71
     2
176
     1
 72
     2
176
     1
 73
     1
176
     1
 90
        2
176
     1
 40
-0.6
176
     1
 41
30.0
176
     1
 62
     5
 63
     7
421
 16777215
176
     1
 74
     0
176
     1
 91
        4
176
     1
 64
     7
176
     1
 65
   257
176
     1
 75
     1
176
     1
175
     1
176
     1
 42
1.0
176
     1
 92
        0
176
     1
 66
     7
176
     1
 43
1.0
176
     1
 76
     1
176
     1
 77
     6
176
     1
 78
     2
176
     1
 67
     7
176
     1
 79
     5
176
     1
170
     0
176
     1
171
     0
176
     1
290
     0
176
     1
 93
       13
176
     1
 44
0.0
176
     1
173
     0
176
     1
  0
VISUALSTYLE
  5
2E
102
{ACAD_REACTORS
330
2A
102
}
330
2A
100
AcDbVisualStyle
  2
GouraudWithEdges
 70
     3
177
     2
291
     1
 71
     2
176
     1
 72
     2
176
     1
 73
     1
176
     1
 90
        2
176
     1
 40
-0.6
176
     1
 41
30.0
176
     1
 62
     5
 63
     7
421
 16777215
176
     1
 74
     1
176
     1
 91
        4
176
     1
 64
     7
176
     1
 65
   257
176
     1
 75
     1
176
     1
175
     1
176
     1
 42
1.0
176
     1
 92
        0
176
     1
 66
   257
176
     1
 43
1.0
176
     1
 76
     1
176
     1
 77
     6
176
     1
 78
     2
176
     1
 67
     7
176
     1
 79
     5
176
     1
170
     0
176
     1
171
     0
176
     1
290
     0
176
     1
 93
       13
176
     1
 44
0.0
176
     1
173
     0
176
     1
  0
VISUALSTYLE
  5
38
102
{ACAD_REACTORS
330
2A
102
}
330
2A
100
AcDbVisualStyle
  2
Linepattern
 70
    14
177
     2
291
     1
 71
     2
176
     1
 72
     2
176
     1
 73
     0
176
     1
 90
        0
176
     1
 40
-0.6
176
     1
 41
-30.0
176
     1
 62
     5
 63
     7
421
 16777215
176
     1
 74
     1
176
     1
 91
        4
176
     1
 64
     7
176
     1
 65
   257
176
     1
 75
     7
176
     1
175
     7
176
     1
 42
1.0
176
     1
 92
        8
176
     1
 66
     7
176
     1
 43
1.0
176
     1
 76
     1
176
     1
 77
     6
176
     1
 78
     2
176
     1
 67
     7
176
     1
 79
     5
176
     1
170
     0
176
     1
171
     0
176
     1
290
     0
176
     1
 93
        1
176
     1
 44
0.0
176
     1
173
     0
176
     1
  0
VISUALSTYLE
  5
33
102
{ACAD_REACTORS
330
2A
102
}
330
2A
100
AcDbVisualStyle
  2
Realistic
 70
     8
177
     2
291
     0
 71
     2
176
     1
 72
     2
176
     1
 73
     0
176
     1
 90
        0
176
     1
 40
-0.6
176
     1
 41
-30.0
176
     1
 62
     5
 63
     7
421
 16777215
176
     1
 74
     1
176
     1
 91
        0
176
     1
 64
     7
176
     1
 65
   257
176
     1
 75
     1
176
     1
175
     1
176
     1
 42
1.0
176
     1
 92
        8
176
     1
 66
     8
424
  7895160
176
     1
 43
1.0
176
     1
 76
     1
176
     1
 77
     6
176
     1
 78
     2
176
     1
 67
     7
176
     1
 79
     5
176
     1
170
     0
176
     1
171
     0
176
     1
290
     0
176
     1
 93
       13
176
     1
 44
0.0
176
     1
173
     0
176
     1
  0
VISUALSTYLE
  5
37
102
{ACAD_REACTORS
330
2A
102
}
330
2A
100
AcDbVisualStyle
  2
Thicken
 70
    13
177
     2
291
     1
 71
     2
176
     1
 72
     2
176
     1
 73
     0
176
     1
 90
        0
176
     1
 40
-0.6
176
     1
 41
-30.0
176
     1
 62
     5
 63
     7
421
 16777215
176
     1
 74
     1
176
     1
 91
        4
176
     1
 64
     7
176
     1
 65
   257
176
     1
 75
     1
176
     1
175
     1
176
     1
 42
1.0
176
     1
 92
       12
176
     1
 66
     7
176
     1
 43
1.0
176
     1
 76
     1
176
     1
 77
     6
176
     1
 78
     2
176
     1
 67
     7
176
     1
 79
     5
176
     1
170
     0
176
     1
171
     0
176
     1
290
     0
176
     1
 93
        1
176
     1
 44
0.0
176
     1
173
     0
176
     1
  0
ENDSEC
  0
EOF
