  0
SECTION
  2
HEADER
  9
$ACADVER
  1
AC1024
  9
$ACADMAINTVER
 70
     6
  9
$DWGCODEPAGE
  3
ANSI_1251
  9
$INSBASE
 10
0.0
 20
0.0
 30
0.0
  9
$EXTMIN
 10
1.000000000000000E+20
 20
1.000000000000000E+20
 30
1.000000000000000E+20
  9
$EXTMAX
 10
-1.000000000000000E+20
 20
-1.000000000000000E+20
 30
-1.000000000000000E+20
  9
$LIMMIN
 10
0.0
 20
0.0
  9
$LIMMAX
 10
12.0
 20
9.0
  9
$ORTHOMODE
 70
     0
  9
$REGENMODE
 70
     1
  9
$FILLMODE
 70
     1
  9
$QTEXTMODE
 70
     0
  9
$MIRRTEXT
 70
     1
  9
$LTSCALE
 40
1.0
  9
$ATTMODE
 70
     1
  9
$TEXTSIZE
 40
0.2
  9
$TRACEWID
 40
0.05
  9
$TEXTSTYLE
  7
Standard
  9
$CLAYER
  8
0
  9
$CELTYPE
  6
ByLayer
  9
$CECOLOR
 62
   256
  9
$CELTSCALE
 40
1.0
  9
$DISPSILH
 70
     0
  9
$DIMSCALE
 40
1.0
  9
$DIMASZ
 40
0.18
  9
$DIMEXO
 40
0.0625
  9
$DIMDLI
 40
0.38
  9
$DIMRND
 40
0.0
  9
$DIMDLE
 40
0.0
  9
$DIMEXE
 40
0.18
  9
$DIMTP
 40
0.0
  9
$DIMTM
 40
0.0
  9
$DIMTXT
 40
0.18
  9
$DIMCEN
 40
0.09
  9
$DIMTSZ
 40
0.0
  9
$DIMTOL
 70
     0
  9
$DIMLIM
 70
     0
  9
$DIMTIH
 70
     1
  9
$DIMTOH
 70
     1
  9
$DIMSE1
 70
     0
  9
$DIMSE2
 70
     0
  9
$DIMTAD
 70
     0
  9
$DIMZIN
 70
     0
  9
$DIMBLK
  1

  9
$DIMASO
 70
     1
  9
$DIMSHO
 70
     1
  9
$DIMPOST
  1

  9
$DIMAPOST
  1

  9
$DIMALT
 70
     0
  9
$DIMALTD
 70
     2
  9
$DIMALTF
 40
25.4
  9
$DIMLFAC
 40
1.0
  9
$DIMTOFL
 70
     0
  9
$DIMTVP
 40
0.0
  9
$DIMTIX
 70
     0
  9
$DIMSOXD
 70
     0
  9
$DIMSAH
 70
     0
  9
$DIMBLK1
  1

  9
$DIMBLK2
  1

  9
$DIMSTYLE
  2
Standard
  9
$DIMCLRD
 70
     0
  9
$DIMCLRE
 70
     0
  9
$DIMCLRT
 70
     0
  9
$DIMTFAC
 40
1.0
  9
$DIMGAP
 40
0.09
  9
$DIMJUST
 70
     0
  9
$DIMSD1
 70
     0
  9
$DIMSD2
 70
     0
  9
$DIMTOLJ
 70
     1
  9
$DIMTZIN
 70
     0
  9
$DIMALTZ
 70
     0
  9
$DIMALTTZ
 70
     0
  9
$DIMUPT
 70
     0
  9
$DIMDEC
 70
     4
  9
$DIMTDEC
 70
     4
  9
$DIMALTU
 70
     2
  9
$DIMALTTD
 70
     2
  9
$DIMTXSTY
  7
Standard
  9
$DIMAUNIT
 70
     0
  9
$DIMADEC
 70
     0
  9
$DIMALTRND
 40
0.0
  9
$DIMAZIN
 70
     0
  9
$DIMDSEP
 70
    46
  9
$DIMATFIT
 70
     3
  9
$DIMFRAC
 70
     0
  9
$DIMLDRBLK
  1

  9
$DIMLUNIT
 70
     2
  9
$DIMLWD
 70
    -2
  9
$DIMLWE
 70
    -2
  9
$DIMTMOVE
 70
     0
  9
$DIMFXL
 40
1.0
  9
$DIMFXLON
 70
     0
  9
$DIMJOGANG
 40
0.7853981633974483
  9
$DIMTFILL
 70
     0
  9
$DIMTFILLCLR
 70
     0
  9
$DIMARCSYM
 70
     0
  9
$DIMLTYPE
  6

  9
$DIMLTEX1
  6

  9
$DIMLTEX2
  6

  9
$DIMTXTDIRECTION
 70
     0
  9
$LUNITS
 70
     2
  9
$LUPREC
 70
     4
  9
$SKETCHINC
 40
0.1
  9
$FILLETRAD
 40
0.5
  9
$AUNITS
 70
     0
  9
$AUPREC
 70
     0
  9
$MENU
  1
.
  9
$ELEVATION
 40
0.0
  9
$PELEVATION
 40
0.0
  9
$THICKNESS
 40
0.0
  9
$LIMCHECK
 70
     0
  9
$CHAMFERA
 40
0.5
  9
$CHAMFERB
 40
0.5
  9
$CHAMFERC
 40
1.0
  9
$CHAMFERD
 40
0.0
  9
$SKPOLY
 70
     0
  9
$TDCREATE
 40
2459337.641331678
  9
$TDUCREATE
 40
2459337.516331678
  9
$TDUPDATE
 40
2459337.641331678
  9
$TDUUPDATE
 40
2459337.516331678
  9
$TDINDWG
 40
0.0000000116
  9
$TDUSRTIMER
 40
0.0000000116
  9
$USRTIMER
 70
     1
  9
$ANGBASE
 50
0.0
  9
$ANGDIR
 70
     0
  9
$PDMODE
 70
     0
  9
$PDSIZE
 40
0.0
  9
$PLINEWID
 40
0.0
  9
$SPLFRAME
 70
     0
  9
$SPLINETYPE
 70
     6
  9
$SPLINESEGS
 70
     8
  9
$HANDSEED
  5
7F
  9
$SURFTAB1
 70
     6
  9
$SURFTAB2
 70
     6
  9
$SURFTYPE
 70
     6
  9
$SURFU
 70
     6
  9
$SURFV
 70
     6
  9
$UCSBASE
  2

  9
$UCSNAME
  2

  9
$UCSORG
 10
0.0
 20
0.0
 30
0.0
  9
$UCSXDIR
 10
1.0
 20
0.0
 30
0.0
  9
$UCSYDIR
 10
0.0
 20
1.0
 30
0.0
  9
$UCSORTHOREF
  2

  9
$UCSORTHOVIEW
 70
     0
  9
$UCSORGTOP
 10
0.0
 20
0.0
 30
0.0
  9
$UCSORGBOTTOM
 10
0.0
 20
0.0
 30
0.0
  9
$UCSORGLEFT
 10
0.0
 20
0.0
 30
0.0
  9
$UCSORGRIGHT
 10
0.0
 20
0.0
 30
0.0
  9
$UCSORGFRONT
 10
0.0
 20
0.0
 30
0.0
  9
$UCSORGBACK
 10
0.0
 20
0.0
 30
0.0
  9
$PUCSBASE
  2

  9
$PUCSNAME
  2

  9
$PUCSORG
 10
0.0
 20
0.0
 30
0.0
  9
$PUCSXDIR
 10
1.0
 20
0.0
 30
0.0
  9
$PUCSYDIR
 10
0.0
 20
1.0
 30
0.0
  9
$PUCSORTHOREF
  2

  9
$PUCSORTHOVIEW
 70
     0
  9
$PUCSORGTOP
 10
0.0
 20
0.0
 30
0.0
  9
$PUCSORGBOTTOM
 10
0.0
 20
0.0
 30
0.0
  9
$PUCSORGLEFT
 10
0.0
 20
0.0
 30
0.0
  9
$PUCSORGRIGHT
 10
0.0
 20
0.0
 30
0.0
  9
$PUCSORGFRONT
 10
0.0
 20
0.0
 30
0.0
  9
$PUCSORGBACK
 10
0.0
 20
0.0
 30
0.0
  9
$USERI1
 70
     0
  9
$USERI2
 70
     0
  9
$USERI3
 70
     0
  9
$USERI4
 70
     0
  9
$USERI5
 70
     0
  9
$USERR1
 40
0.0
  9
$USERR2
 40
0.0
  9
$USERR3
 40
0.0
  9
$USERR4
 40
0.0
  9
$USERR5
 40
0.0
  9
$WORLDVIEW
 70
     1
  9
$SHADEDGE
 70
     3
  9
$SHADEDIF
 70
    70
  9
$TILEMODE
 70
     1
  9
$MAXACTVP
 70
    64
  9
$PINSBASE
 10
0.0
 20
0.0
 30
0.0
  9
$PLIMCHECK
 70
     0
  9
$PEXTMIN
 10
1.000000000000000E+20
 20
1.000000000000000E+20
 30
1.000000000000000E+20
  9
$PEXTMAX
 10
-1.000000000000000E+20
 20
-1.000000000000000E+20
 30
-1.000000000000000E+20
  9
$PLIMMIN
 10
0.0
 20
0.0
  9
$PLIMMAX
 10
12.0
 20
9.0
  9
$UNITMODE
 70
     0
  9
$VISRETAIN
 70
     1
  9
$PLINEGEN
 70
     0
  9
$PSLTSCALE
 70
     1
  9
$TREEDEPTH
 70
  3020
  9
$CMLSTYLE
  2
Standard
  9
$CMLJUST
 70
     0
  9
$CMLSCALE
 40
1.0
  9
$PROXYGRAPHICS
 70
     1
  9
$MEASUREMENT
 70
     0
  9
$CELWEIGHT
370
    -1
  9
$ENDCAPS
280
     0
  9
$JOINSTYLE
280
     0
  9
$LWDISPLAY
290
     1
  9
$INSUNITS
 70
     1
  9
$HYPERLINKBASE
  1

  9
$STYLESHEET
  1

  9
$XEDIT
290
     1
  9
$CEPSNTYPE
380
     0
  9
$PSTYLEMODE
290
     1
  9
$FINGERPRINTGUID
  2
{2CB4240B-AA89-4A15-8C89-35E43C279161}
  9
$VERSIONGUID
  2
{FAEB1C32-E019-11D5-929B-00C0DF256EC4}
  9
$EXTNAMES
290
     1
  9
$PSVPSCALE
 40
0.0
  9
$OLESTARTUP
290
     0
  9
$SORTENTS
280
   127
  9
$INDEXCTL
280
     0
  9
$HIDETEXT
280
     1
  9
$XCLIPFRAME
280
     2
  9
$HALOGAP
280
     0
  9
$OBSCOLOR
 70
   257
  9
$OBSLTYPE
280
     0
  9
$INTERSECTIONDISPLAY
280
     0
  9
$INTERSECTIONCOLOR
 70
   257
  9
$DIMASSOC
280
     2
  9
$PROJECTNAME
  1

  9
$CAMERADISPLAY
290
     0
  9
$LENSLENGTH
 40
50.0
  9
$CAMERAHEIGHT
 40
0.0
  9
$STEPSPERSEC
 40
2.0
  9
$STEPSIZE
 40
6.0
  9
$3DDWFPREC
 40
2.0
  9
$PSOLWIDTH
 40
0.25
  9
$PSOLHEIGHT
 40
4.0
  9
$LOFTANG1
 40
1.570796326794897
  9
$LOFTANG2
 40
1.570796326794897
  9
$LOFTMAG1
 40
0.0
  9
$LOFTMAG2
 40
0.0
  9
$LOFTPARAM
 70
     7
  9
$LOFTNORMALS
280
     1
  9
$LATITUDE
 40
37.795
  9
$LONGITUDE
 40
-122.394
  9
$NORTHDIRECTION
 40
0.0
  9
$TIMEZONE
 70
 -8000
  9
$LIGHTGLYPHDISPLAY
280
     1
  9
$TILEMODELIGHTSYNCH
280
     1
  9
$CMATERIAL
347
3C
  9
$SOLIDHIST
280
     1
  9
$SHOWHIST
280
     1
  9
$DWFFRAME
280
     2
  9
$DGNFRAME
280
     2
  9
$REALWORLDSCALE
290
     1
  9
$INTERFERECOLOR
 62
   256
  9
$CSHADOW
280
     0
  9
$SHADOWPLANELOCATION
 40
0.0
  0
ENDSEC
  0
SECTION
  2
CLASSES
  0
CLASS
  1
ACDBDICTIONARYWDFLT
  2
AcDbDictionaryWithDefault
  3
ObjectDBX Classes
 90
        0
 91
        4
280
     0
281
     0
  0
CLASS
  1
VISUALSTYLE
  2
AcDbVisualStyle
  3
ObjectDBX Classes
 90
     4095
 91
        4
280
     0
281
     0
  0
CLASS
  1
MATERIAL
  2
AcDbMaterial
  3
ObjectDBX Classes
 90
     1153
 91
        4
280
     0
281
     0
  0
CLASS
  1
SUN
  2
AcDbSun
  3
SCENEOE
 90
     1024
 91
        4
280
     0
281
     0
  0
ENDSEC
  0
SECTION
  2
TABLES
  0
TABLE
  2
VPORT
  5
8
330
0
100
AcDbSymbolTable
 70
     1
  0
VPORT
  5
29
330
8
100
AcDbSymbolTableRecord
100
AcDbViewportTableRecord
  2
*Active
 70
     0
 10
0.0
 20
0.0
 11
1.0
 21
1.0
 12
0.0
 22
0.0
 13
0.0
 23
0.0
 14
0.5
 24
0.5
 15
0.5
 25
0.5
 16
0.0
 26
0.0
 36
1.0
 17
4.819377134838305
 27
-5.930734119694338
 37
0.0
 40
11.79443685023316
 41
1.017428822789693
 42
50.0
 43
0.0
 44
0.0
 50
0.0
 51
0.0
 71
     0
 72
   100
 73
     1
 74
     3
 75
     0
 76
     0
 77
     0
 78
     0
281
     0
 65
     1
110
0.0
120
0.0
130
0.0
111
1.0
121
0.0
131
0.0
112
0.0
122
1.0
132
0.0
 79
     0
146
0.0
 60
     3
 61
     5
292
     1
282
     1
141
0.0
142
0.0
 63
   250
361
3F
  0
ENDTAB
  0
TABLE
  2
LTYPE
  5
5
330
0
100
AcDbSymbolTable
 70
     1
  0
LTYPE
  5
14
330
5
100
AcDbSymbolTableRecord
100
AcDbLinetypeTableRecord
  2
ByBlock
 70
     0
  3

 72
    65
 73
     0
 40
0.0
  0
LTYPE
  5
15
330
5
100
AcDbSymbolTableRecord
100
AcDbLinetypeTableRecord
  2
ByLayer
 70
     0
  3

 72
    65
 73
     0
 40
0.0
  0
LTYPE
  5
16
330
5
100
AcDbSymbolTableRecord
100
AcDbLinetypeTableRecord
  2
Continuous
 70
     0
  3
Solid line
 72
    65
 73
     0
 40
0.0
  0
ENDTAB
  0
TABLE
  2
LAYER
  5
2
330
0
100
AcDbSymbolTable
 70
     2
  0
LAYER
  5
10
330
2
100
AcDbSymbolTableRecord
100
AcDbLayerTableRecord
  2
0
 70
     0
 62
     7
  6
Continuous
370
    -3
390
F
347
3E
  0
LAYER
  5
40
330
2
100
AcDbSymbolTableRecord
100
AcDbLayerTableRecord
  2
Layer 1
 70
     0
 62
     7
  6
Continuous
370
    -3
390
F
347
3E
  0
ENDTAB
  0
TABLE
  2
STYLE
  5
3
330
0
100
AcDbSymbolTable
 70
     1
  0
STYLE
  5
11
330
3
100
AcDbSymbolTableRecord
100
AcDbTextStyleTableRecord
  2
Standard
 70
     0
 40
0.0
 41
1.0
 50
0.0
 71
     0
 42
0.2
  3
txt
  4

  0
ENDTAB
  0
TABLE
  2
VIEW
  5
6
330
0
100
AcDbSymbolTable
 70
     0
  0
ENDTAB
  0
TABLE
  2
UCS
  5
7
330
0
100
AcDbSymbolTable
 70
     0
  0
ENDTAB
  0
TABLE
  2
APPID
  5
9
330
0
100
AcDbSymbolTable
 70
     1
  0
APPID
  5
12
330
9
100
AcDbSymbolTableRecord
100
AcDbRegAppTableRecord
  2
ACAD
 70
     0
  0
ENDTAB
  0
TABLE
  2
DIMSTYLE
  5
A
330
0
100
AcDbSymbolTable
 70
     1
100
AcDbDimStyleTable
  0
DIMSTYLE
105
27
330
A
100
AcDbSymbolTableRecord
100
AcDbDimStyleTableRecord
  2
Standard
 70
     0
178
     0
340
11
  0
ENDTAB
  0
TABLE
  2
BLOCK_RECORD
  5
1
330
0
100
AcDbSymbolTable
 70
     1
  0
BLOCK_RECORD
  5
1F
330
1
100
AcDbSymbolTableRecord
100
AcDbBlockTableRecord
  2
*Model_Space
340
22
 70
     0
280
     1
281
     0
  0
BLOCK_RECORD
  5
1B
330
1
100
AcDbSymbolTableRecord
100
AcDbBlockTableRecord
  2
*Paper_Space
340
1E
 70
     0
280
     1
281
     0
  0
BLOCK_RECORD
  5
23
330
1
100
AcDbSymbolTableRecord
100
AcDbBlockTableRecord
  2
*Paper_Space0
340
26
 70
     0
280
     1
281
     0
  0
ENDTAB
  0
ENDSEC
  0
SECTION
  2
BLOCKS
  0
BLOCK
  5
20
330
1F
100
AcDbEntity
  8
0
100
AcDbBlockBegin
  2
*Model_Space
 70
     0
 10
0.0
 20
0.0
 30
0.0
  3
*Model_Space
  1

  0
ENDBLK
  5
21
330
1F
100
AcDbEntity
  8
0
100
AcDbBlockEnd
  0
BLOCK
  5
1C
330
1B
100
AcDbEntity
 67
     1
  8
0
100
AcDbBlockBegin
  2
*Paper_Space
 70
     0
 10
0.0
 20
0.0
 30
0.0
  3
*Paper_Space
  1

  0
ENDBLK
  5
1D
330
1B
100
AcDbEntity
 67
     1
  8
0
100
AcDbBlockEnd
  0
BLOCK
  5
24
330
23
100
AcDbEntity
  8
0
100
AcDbBlockBegin
  2
*Paper_Space0
 70
     0
 10
0.0
 20
0.0
 30
0.0
  3
*Paper_Space0
  1

  0
ENDBLK
  5
25
330
23
100
AcDbEntity
  8
0
100
AcDbBlockEnd
  0
ENDSEC
  0
SECTION
  2
ENTITIES
  0
SPLINE
  5
41
330
1F
100
AcDbEntity
  8
Layer 1
370
     0
100
AcDbSpline
210
0.0
220
0.0
230
1.0
 70
    11
 71
     3
 72
    26
 73
    22
 74
     0
 42
0.0000000001
 43
0.0000000001
 12
1.0
 22
0.0
 32
0.0
 13
1.0
 23
0.0
 33
0.0
 40
0.0
 40
0.0
 40
0.0
 40
0.0
 40
1.0
 40
1.0
 40
1.0
 40
2.0
 40
2.0
 40
2.0
 40
3.0
 40
3.0
 40
3.0
 40
4.0
 40
4.0
 40
4.0
 40
5.0
 40
5.0
 40
5.0
 40
6.0
 40
6.0
 40
6.0
 40
7.0
 40
7.0
 40
7.0
 40
7.0
 10
5.2416050486325
 20
-2.799443875490245
 30
0.0
 10
5.242123153477905
 20
-2.799443875490245
 30
0.0
 10
5.242641258323172
 20
-2.799443875490245
 30
0.0
 10
5.243200266182637
 20
-2.799443875490245
 30
0.0
 10
5.286393849078851
 20
-2.799443875490245
 30
0.0
 10
5.326451534226761
 20
-2.783259916242236
 30
0.0
 10
5.356133488129848
 20
-2.753673402705342
 30
0.0
 10
5.387165241498425
 20
-2.722750724041134
 30
0.0
 10
5.404112723676361
 20
-2.680157052018469
 30
0.0
 10
5.403880939929776
 20
-2.63374576534597
 30
0.0
 10
5.403376469422432
 20
-2.543063783072663
 30
0.0
 10
5.333527755667192
 20
-2.47146987404882
 30
0.0
 10
5.244850021084908
 20
-2.470774522808976
 30
0.0
 10
5.200293004385255
 20
-2.472165225288538
 30
0.0
 10
5.161107916871515
 20
-2.487258437493741
 30
0.0
 10
5.130089797840987
 20
-2.518235653510196
 30
0.0
 10
5.098267252866372
 20
-2.5500309298087
 30
0.0
 10
5.080924374885361
 20
-2.592270109042349
 30
0.0
 10
5.081278867674251
 20
-2.637167984192956
 30
0.0
 10
5.082001487590231
 20
-2.727331861620996
 30
0.0
 10
5.152395574866887
 20
-2.798571277855949
 30
0.0
 10
5.2416050486325
 20
-2.799443875490245
 30
0.0
  0
HATCH
  5
42
330
1F
100
AcDbEntity
  8
Layer 1
 62
     7
420
 16777215
100
AcDbHatch
 10
0.0
 20
0.0
 30
0.0
210
0.0
220
0.0
230
1.0
  2
SOLID
 70
     1
 71
     0
 91
        1
 92
        1
 93
        1
 72
     4
 94
        3
 73
     0
 74
     1
 95
       26
 96
       22
 40
0.0
 40
0.0
 40
0.0
 40
0.0
 40
1.0
 40
1.0
 40
1.0
 40
2.0
 40
2.0
 40
2.0
 40
3.0
 40
3.0
 40
3.0
 40
4.0
 40
4.0
 40
4.0
 40
5.0
 40
5.0
 40
5.0
 40
6.0
 40
6.0
 40
6.0
 40
7.0
 40
7.0
 40
7.0
 40
7.0
 10
5.2416050486325
 20
-2.799443875490245
 10
5.242123153477905
 20
-2.799443875490245
 10
5.242641258323172
 20
-2.799443875490245
 10
5.243200266182637
 20
-2.799443875490245
 10
5.286393849078851
 20
-2.799443875490245
 10
5.326451534226761
 20
-2.783259916242236
 10
5.356133488129848
 20
-2.753673402705342
 10
5.387165241498425
 20
-2.722750724041134
 10
5.404112723676361
 20
-2.680157052018469
 10
5.403880939929776
 20
-2.63374576534597
 10
5.403376469422432
 20
-2.543063783072663
 10
5.333527755667192
 20
-2.47146987404882
 10
5.244850021084908
 20
-2.470774522808976
 10
5.200293004385255
 20
-2.472165225288538
 10
5.161107916871515
 20
-2.487258437493741
 10
5.130089797840987
 20
-2.518235653510196
 10
5.098267252866372
 20
-2.5500309298087
 10
5.080924374885361
 20
-2.592270109042349
 10
5.081278867674251
 20
-2.637167984192956
 10
5.082001487590231
 20
-2.727331861620996
 10
5.152395574866887
 20
-2.798571277855949
 10
5.2416050486325
 20
-2.799443875490245
 97
        0
 97
        0
 75
     2
 76
     1
 98
        0
  0
SPLINE
  5
43
330
1F
100
AcDbEntity
  8
Layer 1
370
     0
100
AcDbSpline
210
0.0
220
0.0
230
1.0
 70
    11
 71
     3
 72
    29
 73
    25
 74
     0
 42
0.0000000001
 43
0.0000000001
 12
1.0
 22
0.0
 32
0.0
 13
1.0
 23
0.0
 33
0.0
 40
0.0
 40
0.0
 40
0.0
 40
0.0
 40
1.0
 40
1.0
 40
1.0
 40
2.0
 40
2.0
 40
2.0
 40
3.0
 40
3.0
 40
3.0
 40
4.0
 40
4.0
 40
4.0
 40
5.0
 40
5.0
 40
5.0
 40
6.0
 40
6.0
 40
6.0
 40
7.0
 40
7.0
 40
7.0
 40
8.0
 40
8.0
 40
8.0
 40
8.0
 10
1.837560774349337
 20
-5.254251901411016
 30
0.0
 10
1.880836163273671
 20
-5.25378833391787
 30
0.0
 10
1.921507393633318
 20
-5.236090963147969
 30
0.0
 10
1.952075579508624
 20
-5.204472933243791
 30
0.0
 10
1.983148235891273
 20
-5.172336798494459
 30
0.0
 10
1.999686687928311
 20
-5.130206693965065
 30
0.0
 10
1.998664112575562
 20
-5.08577238630773
 30
0.0
 10
1.996659864884401
 20
-4.997640025246861
 30
0.0
 10
1.924029746169885
 20
-4.926346071659787
 30
0.0
 10
1.836510930320603
 20
-4.926346071659787
 30
0.0
 10
1.836101900179579
 20
-4.926346071659787
 30
0.0
 10
1.835733773052627
 20
-4.926346071659787
 30
0.0
 10
1.835352011587601
 20
-4.926346071659787
 30
0.0
 10
1.79195391362095
 20
-4.926632392758607
 30
0.0
 10
1.75117360855706
 20
-4.944261591838325
 30
0.0
 10
1.720509982315434
 20
-4.976056868136816
 30
0.0
 10
1.689382788580663
 20
-5.008315711928591
 30
0.0
 10
1.672994314262066
 20
-5.050609428514374
 30
0.0
 10
1.674289576375448
 20
-5.095111907861892
 30
0.0
 10
1.676989175306466
 20
-5.184744046106592
 30
0.0
 10
1.747710486696127
 20
-5.254251901411016
 30
0.0
 10
1.835665601362431
 20
-5.254251901411016
 30
0.0
 10
1.836306415250154
 20
-5.254251901411016
 30
0.0
 10
1.836947229137751
 20
-5.254251901411016
 30
0.0
 10
1.837560774349337
 20
-5.254251901411016
 30
0.0
  0
HATCH
  5
44
330
1F
100
AcDbEntity
  8
Layer 1
 62
     7
420
 16777215
100
AcDbHatch
 10
0.0
 20
0.0
 30
0.0
210
0.0
220
0.0
230
1.0
  2
SOLID
 70
     1
 71
     0
 91
        1
 92
        1
 93
        1
 72
     4
 94
        3
 73
     0
 74
     1
 95
       29
 96
       25
 40
0.0
 40
0.0
 40
0.0
 40
0.0
 40
1.0
 40
1.0
 40
1.0
 40
2.0
 40
2.0
 40
2.0
 40
3.0
 40
3.0
 40
3.0
 40
4.0
 40
4.0
 40
4.0
 40
5.0
 40
5.0
 40
5.0
 40
6.0
 40
6.0
 40
6.0
 40
7.0
 40
7.0
 40
7.0
 40
8.0
 40
8.0
 40
8.0
 40
8.0
 10
1.837560774349337
 20
-5.254251901411016
 10
1.880836163273671
 20
-5.25378833391787
 10
1.921507393633318
 20
-5.236090963147969
 10
1.952075579508624
 20
-5.204472933243791
 10
1.983148235891273
 20
-5.172336798494459
 10
1.999686687928311
 20
-5.130206693965065
 10
1.998664112575562
 20
-5.08577238630773
 10
1.996659864884401
 20
-4.997640025246861
 10
1.924029746169885
 20
-4.926346071659787
 10
1.836510930320603
 20
-4.926346071659787
 10
1.836101900179579
 20
-4.926346071659787
 10
1.835733773052627
 20
-4.926346071659787
 10
1.835352011587601
 20
-4.926346071659787
 10
1.79195391362095
 20
-4.926632392758607
 10
1.75117360855706
 20
-4.944261591838325
 10
1.720509982315434
 20
-4.976056868136816
 10
1.689382788580663
 20
-5.008315711928591
 10
1.672994314262066
 20
-5.050609428514374
 10
1.674289576375448
 20
-5.095111907861892
 10
1.676989175306466
 20
-5.184744046106592
 10
1.747710486696127
 20
-5.254251901411016
 10
1.835665601362431
 20
-5.254251901411016
 10
1.836306415250154
 20
-5.254251901411016
 10
1.836947229137751
 20
-5.254251901411016
 10
1.837560774349337
 20
-5.254251901411016
 97
        0
 97
        0
 75
     2
 76
     1
 98
        0
  0
SPLINE
  5
45
330
1F
100
AcDbEntity
  8
Layer 1
370
     0
100
AcDbSpline
210
0.0
220
0.0
230
1.0
 70
    11
 71
     3
 72
    26
 73
    22
 74
     0
 42
0.0000000001
 43
0.0000000001
 12
1.0
 22
0.0
 32
0.0
 13
1.0
 23
0.0
 33
0.0
 40
0.0
 40
0.0
 40
0.0
 40
0.0
 40
1.0
 40
1.0
 40
1.0
 40
2.0
 40
2.0
 40
2.0
 40
3.0
 40
3.0
 40
3.0
 40
4.0
 40
4.0
 40
4.0
 40
5.0
 40
5.0
 40
5.0
 40
6.0
 40
6.0
 40
6.0
 40
7.0
 40
7.0
 40
7.0
 40
7.0
 10
3.604884573511476
 20
-3.067999431773387
 30
0.0
 10
3.605157260272234
 20
-3.067999431773387
 30
0.0
 10
3.605389044018807
 20
-3.067999431773387
 30
0.0
 10
3.605648096441377
 20
-3.067999431773387
 30
0.0
 10
3.692444292374817
 20
-3.067999431773387
 30
0.0
 10
3.766846875033921
 20
-2.994210394325869
 30
0.0
 10
3.76826484618962
 20
-2.906487063406151
 30
0.0
 10
3.769655548669195
 20
-2.818995516232992
 30
0.0
 10
3.697107235982925
 20
-2.742820469629173
 30
0.0
 10
3.609874741232475
 20
-2.740093602022145
 30
0.0
 10
3.566776598702593
 20
-2.738702899542457
 30
0.0
 10
3.526568935836091
 20
-2.754777784086223
 30
0.0
 10
3.49489636857993
 20
-2.785168723567204
 30
0.0
 10
3.463360144703996
 20
-2.815396050991555
 30
0.0
 10
3.445253743793071
 20
-2.855658251210166
 30
0.0
 10
3.44391757866563
 20
-2.898538244331424
 30
0.0
 10
3.442526876185942
 20
-2.943736074918787
 30
0.0
 10
3.458915350504513
 20
-2.986438821645606
 30
0.0
 10
3.49011071592948
 20
-3.018752202789503
 30
0.0
 10
3.520597095776667
 20
-3.050370232693669
 30
0.0
 10
3.561377400840557
 20
-3.067835819716997
 30
0.0
 10
3.604884573511476
 20
-3.067999431773387
 30
0.0
  0
HATCH
  5
46
330
1F
100
AcDbEntity
  8
Layer 1
 62
     7
420
 16777215
100
AcDbHatch
 10
0.0
 20
0.0
 30
0.0
210
0.0
220
0.0
230
1.0
  2
SOLID
 70
     1
 71
     0
 91
        1
 92
        1
 93
        1
 72
     4
 94
        3
 73
     0
 74
     1
 95
       26
 96
       22
 40
0.0
 40
0.0
 40
0.0
 40
0.0
 40
1.0
 40
1.0
 40
1.0
 40
2.0
 40
2.0
 40
2.0
 40
3.0
 40
3.0
 40
3.0
 40
4.0
 40
4.0
 40
4.0
 40
5.0
 40
5.0
 40
5.0
 40
6.0
 40
6.0
 40
6.0
 40
7.0
 40
7.0
 40
7.0
 40
7.0
 10
3.604884573511476
 20
-3.067999431773387
 10
3.605157260272234
 20
-3.067999431773387
 10
3.605389044018807
 20
-3.067999431773387
 10
3.605648096441377
 20
-3.067999431773387
 10
3.692444292374817
 20
-3.067999431773387
 10
3.766846875033921
 20
-2.994210394325869
 10
3.76826484618962
 20
-2.906487063406151
 10
3.769655548669195
 20
-2.818995516232992
 10
3.697107235982925
 20
-2.742820469629173
 10
3.609874741232475
 20
-2.740093602022145
 10
3.566776598702593
 20
-2.738702899542457
 10
3.526568935836091
 20
-2.754777784086223
 10
3.49489636857993
 20
-2.785168723567204
 10
3.463360144703996
 20
-2.815396050991555
 10
3.445253743793071
 20
-2.855658251210166
 10
3.44391757866563
 20
-2.898538244331424
 10
3.442526876185942
 20
-2.943736074918787
 10
3.458915350504513
 20
-2.986438821645606
 10
3.49011071592948
 20
-3.018752202789503
 10
3.520597095776667
 20
-3.050370232693669
 10
3.561377400840557
 20
-3.067835819716997
 10
3.604884573511476
 20
-3.067999431773387
 97
        0
 97
        0
 75
     2
 76
     1
 98
        0
  0
SPLINE
  5
47
330
1F
100
AcDbEntity
  8
Layer 1
370
     0
100
AcDbSpline
210
0.0
220
0.0
230
1.0
 70
    11
 71
     3
 72
    29
 73
    25
 74
     0
 42
0.0000000001
 43
0.0000000001
 12
1.0
 22
0.0
 32
0.0
 13
1.0
 23
0.0
 33
0.0
 40
0.0
 40
0.0
 40
0.0
 40
0.0
 40
1.0
 40
1.0
 40
1.0
 40
2.0
 40
2.0
 40
2.0
 40
3.0
 40
3.0
 40
3.0
 40
4.0
 40
4.0
 40
4.0
 40
5.0
 40
5.0
 40
5.0
 40
6.0
 40
6.0
 40
6.0
 40
7.0
 40
7.0
 40
7.0
 40
8.0
 40
8.0
 40
8.0
 40
8.0
 10
2.305054956906941
 20
-3.67172791998069
 30
0.0
 10
2.274282255961073
 20
-3.703809517378027
 30
0.0
 10
2.257280236431016
 20
-3.746853122555775
 30
0.0
 10
2.258384617811872
 20
-3.789787653029154
 30
0.0
 10
2.260647917925755
 20
-3.875833960370604
 30
0.0
 10
2.332705394442731
 20
-3.946323488013579
 30
0.0
 10
2.419051657220962
 20
-3.946964301901302
 30
0.0
 10
2.419433418685975
 20
-3.946964301901302
 30
0.0
 10
2.419815180150863
 20
-3.946964301901302
 30
0.0
 10
2.420210575953951
 20
-3.946964301901302
 30
0.0
 10
2.463758651639055
 20
-3.946964301901302
 30
0.0
 10
2.505002524196091
 20
-3.929607789582228
 30
0.0
 10
2.536456942043767
 20
-3.89804429703031
 30
0.0
 10
2.568047703271809
 20
-3.866317192421876
 30
0.0
 10
2.585186066182246
 20
-3.824718827075937
 30
0.0
 10
2.584695230012964
 20
-3.780966236320271
 30
0.0
 10
2.584204393843695
 20
-3.737690847395937
 30
0.0
 10
2.566616097778049
 20
-3.697019617036428
 30
0.0
 10
2.535270754634641
 20
-3.666451431160997
 30
0.0
 10
2.504143560899858
 20
-3.636101394694189
 30
0.0
 10
2.46129083645461
 20
-3.619276621558583
 30
0.0
 10
2.420796852489426
 20
-3.620381002939451
 30
0.0
 10
2.377916859368169
 20
-3.621021816827048
 30
0.0
 10
2.335745851824703
 20
-3.639755397287748
 30
0.0
 10
2.305054956906941
 20
-3.67172791998069
 30
0.0
  0
HATCH
  5
48
330
1F
100
AcDbEntity
  8
Layer 1
 62
     7
420
 16777215
100
AcDbHatch
 10
0.0
 20
0.0
 30
0.0
210
0.0
220
0.0
230
1.0
  2
SOLID
 70
     1
 71
     0
 91
        1
 92
        1
 93
        1
 72
     4
 94
        3
 73
     0
 74
     1
 95
       29
 96
       25
 40
0.0
 40
0.0
 40
0.0
 40
0.0
 40
1.0
 40
1.0
 40
1.0
 40
2.0
 40
2.0
 40
2.0
 40
3.0
 40
3.0
 40
3.0
 40
4.0
 40
4.0
 40
4.0
 40
5.0
 40
5.0
 40
5.0
 40
6.0
 40
6.0
 40
6.0
 40
7.0
 40
7.0
 40
7.0
 40
8.0
 40
8.0
 40
8.0
 40
8.0
 10
2.305054956906941
 20
-3.67172791998069
 10
2.274282255961073
 20
-3.703809517378027
 10
2.257280236431016
 20
-3.746853122555775
 10
2.258384617811872
 20
-3.789787653029154
 10
2.260647917925755
 20
-3.875833960370604
 10
2.332705394442731
 20
-3.946323488013579
 10
2.419051657220962
 20
-3.946964301901302
 10
2.419433418685975
 20
-3.946964301901302
 10
2.419815180150863
 20
-3.946964301901302
 10
2.420210575953951
 20
-3.946964301901302
 10
2.463758651639055
 20
-3.946964301901302
 10
2.505002524196091
 20
-3.929607789582228
 10
2.536456942043767
 20
-3.89804429703031
 10
2.568047703271809
 20
-3.866317192421876
 10
2.585186066182246
 20
-3.824718827075937
 10
2.584695230012964
 20
-3.780966236320271
 10
2.584204393843695
 20
-3.737690847395937
 10
2.566616097778049
 20
-3.697019617036428
 10
2.535270754634641
 20
-3.666451431160997
 10
2.504143560899858
 20
-3.636101394694189
 10
2.46129083645461
 20
-3.619276621558583
 10
2.420796852489426
 20
-3.620381002939451
 10
2.377916859368169
 20
-3.621021816827048
 10
2.335745851824703
 20
-3.639755397287748
 10
2.305054956906941
 20
-3.67172791998069
 97
        0
 97
        0
 75
     2
 76
     1
 98
        0
  0
SPLINE
  5
49
330
1F
100
AcDbEntity
  8
Layer 1
370
     0
100
AcDbSpline
210
0.0
220
0.0
230
1.0
 70
    11
 71
     3
 72
    26
 73
    22
 74
     0
 42
0.0000000001
 43
0.0000000001
 12
1.0
 22
0.0
 32
0.0
 13
1.0
 23
0.0
 33
0.0
 40
0.0
 40
0.0
 40
0.0
 40
0.0
 40
1.0
 40
1.0
 40
1.0
 40
2.0
 40
2.0
 40
2.0
 40
3.0
 40
3.0
 40
3.0
 40
4.0
 40
4.0
 40
4.0
 40
5.0
 40
5.0
 40
5.0
 40
6.0
 40
6.0
 40
6.0
 40
7.0
 40
7.0
 40
7.0
 40
7.0
 10
1.916285442165733
 20
-6.892526691068118
 30
0.0
 10
1.916285442165733
 20
-6.892526691068118
 30
0.0
 10
1.91631271084187
 20
-6.892526691068118
 30
0.0
 10
1.91631271084187
 20
-6.892526691068118
 30
0.0
 10
1.916694472306757
 20
-6.892526691068118
 30
0.0
 10
1.917062599433722
 20
-6.892526691068118
 30
0.0
 10
1.917444360898723
 20
-6.892526691068118
 30
0.0
 10
1.959683540132396
 20
-6.892526691068118
 30
0.0
 10
1.999482172857723
 20
-6.875756455284646
 30
0.0
 10
2.02965496293008
 20
-6.845242806761462
 30
0.0
 10
2.060577641594288
 20
-6.813979269646198
 30
0.0
 10
2.077129727969249
 20
-6.772721762751189
 30
0.0
 10
2.076352570701273
 20
-6.72903734368573
 30
0.0
 10
2.074702815799002
 20
-6.640509586821887
 30
0.0
 10
2.002440824211438
 20
-6.571110806221718
 30
0.0
 10
1.915794605996451
 20
-6.57355135273004
 30
0.0
 10
1.828971141387026
 20
-6.574887517857607
 30
0.0
 10
1.758277098673489
 20
-6.646481426881437
 30
0.0
 10
1.758249829997491
 20
-6.733100376420301
 30
0.0
 10
1.758222561321354
 20
-6.818846728324868
 30
0.0
 10
1.8305936276133
 20
-6.891885877180534
 30
0.0
 10
1.916285442165733
 20
-6.892526691068118
 30
0.0
  0
HATCH
  5
4A
330
1F
100
AcDbEntity
  8
Layer 1
 62
     7
420
 16777215
100
AcDbHatch
 10
0.0
 20
0.0
 30
0.0
210
0.0
220
0.0
230
1.0
  2
SOLID
 70
     1
 71
     0
 91
        1
 92
        1
 93
        1
 72
     4
 94
        3
 73
     0
 74
     1
 95
       26
 96
       22
 40
0.0
 40
0.0
 40
0.0
 40
0.0
 40
1.0
 40
1.0
 40
1.0
 40
2.0
 40
2.0
 40
2.0
 40
3.0
 40
3.0
 40
3.0
 40
4.0
 40
4.0
 40
4.0
 40
5.0
 40
5.0
 40
5.0
 40
6.0
 40
6.0
 40
6.0
 40
7.0
 40
7.0
 40
7.0
 40
7.0
 10
1.916285442165733
 20
-6.892526691068118
 10
1.916285442165733
 20
-6.892526691068118
 10
1.91631271084187
 20
-6.892526691068118
 10
1.91631271084187
 20
-6.892526691068118
 10
1.916694472306757
 20
-6.892526691068118
 10
1.917062599433722
 20
-6.892526691068118
 10
1.917444360898723
 20
-6.892526691068118
 10
1.959683540132396
 20
-6.892526691068118
 10
1.999482172857723
 20
-6.875756455284646
 10
2.02965496293008
 20
-6.845242806761462
 10
2.060577641594288
 20
-6.813979269646198
 10
2.077129727969249
 20
-6.772721762751189
 10
2.076352570701273
 20
-6.72903734368573
 10
2.074702815799002
 20
-6.640509586821887
 10
2.002440824211438
 20
-6.571110806221718
 10
1.915794605996451
 20
-6.57355135273004
 10
1.828971141387026
 20
-6.574887517857607
 10
1.758277098673489
 20
-6.646481426881437
 10
1.758249829997491
 20
-6.733100376420301
 10
1.758222561321354
 20
-6.818846728324868
 10
1.8305936276133
 20
-6.891885877180534
 10
1.916285442165733
 20
-6.892526691068118
 97
        0
 97
        0
 75
     2
 76
     1
 98
        0
  0
SPLINE
  5
4B
330
1F
100
AcDbEntity
  8
Layer 1
370
     0
100
AcDbSpline
210
0.0
220
0.0
230
1.0
 70
    11
 71
     3
 72
    44
 73
    40
 74
     0
 42
0.0000000001
 43
0.0000000001
 12
1.0
 22
0.0
 32
0.0
 13
1.0
 23
0.0
 33
0.0
 40
0.0
 40
0.0
 40
0.0
 40
0.0
 40
1.0
 40
1.0
 40
1.0
 40
2.0
 40
2.0
 40
2.0
 40
3.0
 40
3.0
 40
3.0
 40
4.0
 40
4.0
 40
4.0
 40
5.0
 40
5.0
 40
5.0
 40
6.0
 40
6.0
 40
6.0
 40
7.0
 40
7.0
 40
7.0
 40
8.0
 40
8.0
 40
8.0
 40
9.0
 40
9.0
 40
9.0
 40
10.0
 40
10.0
 40
10.0
 40
11.0
 40
11.0
 40
11.0
 40
12.0
 40
12.0
 40
12.0
 40
13.0
 40
13.0
 40
13.0
 40
13.0
 10
8.141710144280472
 20
-5.54700840770709
 30
0.0
 10
8.107160732571577
 20
-4.197413457273393
 30
0.0
 10
7.274566267135191
 20
-3.028037186991658
 30
0.0
 10
6.020589317946865
 20
-2.567905546973053
 30
0.0
 10
6.020589317946865
 20
-2.567905546973053
 30
0.0
 10
5.939982756592927
 20
-2.53837357078842
 30
0.0
 10
5.939982756592927
 20
-2.53837357078842
 30
0.0
 10
5.939982756592927
 20
-2.53837357078842
 30
0.0
 10
5.985085145674639
 20
-2.611412719644085
 30
0.0
 10
5.985085145674639
 20
-2.611412719644085
 30
0.0
 10
6.291735034682106
 20
-3.10820709463975
 30
0.0
 10
6.454842984374156
 20
-3.681817330126957
 30
0.0
 10
6.456819595444282
 20
-4.270234456720547
 30
0.0
 10
6.462887243815076
 20
-6.029241309681007
 30
0.0
 10
5.094381466526354
 20
-7.430224080170269
 30
0.0
 10
3.341264647597073
 20
-7.459701519002616
 30
0.0
 10
2.924612911573377
 20
-7.467418554330632
 30
0.0
 10
2.520041199049173
 20
-7.395879182658923
 30
0.0
 10
2.138402443100378
 20
-7.248982824665568
 30
0.0
 10
2.138402443100378
 20
-7.248982824665568
 30
0.0
 10
2.058082557733845
 20
-7.218060146001234
 30
0.0
 10
2.058082557733845
 20
-7.218060146001234
 30
0.0
 10
2.058082557733845
 20
-7.218060146001234
 30
0.0
 10
2.102230544292474
 20
-7.291971892491195
 30
0.0
 10
2.102230544292474
 20
-7.291971892491195
 30
0.0
 10
2.685589331474868
 20
-8.26821776450164
 30
0.0
 10
3.757152860690742
 20
-8.874550411273654
 30
0.0
 10
4.899096842845337
 20
-8.87449587392166
 30
0.0
 10
4.899451335634226
 20
-8.87449587392166
 30
0.0
 10
4.899887634451375
 20
-8.87449587392166
 30
0.0
 10
4.900228492902329
 20
-8.87449587392166
 30
0.0
 10
4.900228492902329
 20
-8.87449587392166
 30
0.0
 10
4.900433007972778
 20
-8.87449587392166
 30
0.0
 10
4.900433007972778
 20
-8.87449587392166
 30
0.0
 10
5.791682065528321
 20
-8.86870128025642
 30
0.0
 10
6.620172595319723
 20
-8.516771746886963
 30
0.0
 10
7.23325422393158
 20
-7.883511282495014
 30
0.0
 10
7.841741080741586
 20
-7.255077373767208
 30
0.0
 10
8.164343144847482
 20
-6.425264292257098
 30
0.0
 10
8.141710144280472
 20
-5.54700840770709
 30
0.0
  0
HATCH
  5
4C
330
1F
100
AcDbEntity
  8
Layer 1
 62
     7
420
 16777215
100
AcDbHatch
 10
0.0
 20
0.0
 30
0.0
210
0.0
220
0.0
230
1.0
  2
SOLID
 70
     1
 71
     0
 91
        1
 92
        1
 93
        1
 72
     4
 94
        3
 73
     0
 74
     1
 95
       44
 96
       40
 40
0.0
 40
0.0
 40
0.0
 40
0.0
 40
1.0
 40
1.0
 40
1.0
 40
2.0
 40
2.0
 40
2.0
 40
3.0
 40
3.0
 40
3.0
 40
4.0
 40
4.0
 40
4.0
 40
5.0
 40
5.0
 40
5.0
 40
6.0
 40
6.0
 40
6.0
 40
7.0
 40
7.0
 40
7.0
 40
8.0
 40
8.0
 40
8.0
 40
9.0
 40
9.0
 40
9.0
 40
10.0
 40
10.0
 40
10.0
 40
11.0
 40
11.0
 40
11.0
 40
12.0
 40
12.0
 40
12.0
 40
13.0
 40
13.0
 40
13.0
 40
13.0
 10
8.141710144280472
 20
-5.54700840770709
 10
8.107160732571577
 20
-4.197413457273393
 10
7.274566267135191
 20
-3.028037186991658
 10
6.020589317946865
 20
-2.567905546973053
 10
6.020589317946865
 20
-2.567905546973053
 10
5.939982756592927
 20
-2.53837357078842
 10
5.939982756592927
 20
-2.53837357078842
 10
5.939982756592927
 20
-2.53837357078842
 10
5.985085145674639
 20
-2.611412719644085
 10
5.985085145674639
 20
-2.611412719644085
 10
6.291735034682106
 20
-3.10820709463975
 10
6.454842984374156
 20
-3.681817330126957
 10
6.456819595444282
 20
-4.270234456720547
 10
6.462887243815076
 20
-6.029241309681007
 10
5.094381466526354
 20
-7.430224080170269
 10
3.341264647597073
 20
-7.459701519002616
 10
2.924612911573377
 20
-7.467418554330632
 10
2.520041199049173
 20
-7.395879182658923
 10
2.138402443100378
 20
-7.248982824665568
 10
2.138402443100378
 20
-7.248982824665568
 10
2.058082557733845
 20
-7.218060146001234
 10
2.058082557733845
 20
-7.218060146001234
 10
2.058082557733845
 20
-7.218060146001234
 10
2.102230544292474
 20
-7.291971892491195
 10
2.102230544292474
 20
-7.291971892491195
 10
2.685589331474868
 20
-8.26821776450164
 10
3.757152860690742
 20
-8.874550411273654
 10
4.899096842845337
 20
-8.87449587392166
 10
4.899451335634226
 20
-8.87449587392166
 10
4.899887634451375
 20
-8.87449587392166
 10
4.900228492902329
 20
-8.87449587392166
 10
4.900228492902329
 20
-8.87449587392166
 10
4.900433007972778
 20
-8.87449587392166
 10
4.900433007972778
 20
-8.87449587392166
 10
5.791682065528321
 20
-8.86870128025642
 10
6.620172595319723
 20
-8.516771746886963
 10
7.23325422393158
 20
-7.883511282495014
 10
7.841741080741586
 20
-7.255077373767208
 10
8.164343144847482
 20
-6.425264292257098
 10
8.141710144280472
 20
-5.54700840770709
 97
        0
 97
        0
 75
     2
 76
     1
 98
        0
  0
SPLINE
  5
4D
330
1F
100
AcDbEntity
  8
Layer 1
370
     0
100
AcDbSpline
210
0.0
220
0.0
230
1.0
 70
    11
 71
     3
 72
    35
 73
    31
 74
     0
 42
0.0000000001
 43
0.0000000001
 12
1.0
 22
0.0
 32
0.0
 13
1.0
 23
0.0
 33
0.0
 40
0.0
 40
0.0
 40
0.0
 40
0.0
 40
1.0
 40
1.0
 40
1.0
 40
2.0
 40
2.0
 40
2.0
 40
3.0
 40
3.0
 40
3.0
 40
4.0
 40
4.0
 40
4.0
 40
5.0
 40
5.0
 40
5.0
 40
6.0
 40
6.0
 40
6.0
 40
7.0
 40
7.0
 40
7.0
 40
8.0
 40
8.0
 40
8.0
 40
9.0
 40
9.0
 40
9.0
 40
10.0
 40
10.0
 40
10.0
 40
10.0
 10
3.016426543903814
 20
-8.969881702817272
 30
0.0
 10
3.016426543903814
 20
-8.969881702817272
 30
0.0
 10
3.015935707734545
 20
-8.969881702817272
 30
0.0
 10
3.015935707734545
 20
-8.969881702817272
 30
0.0
 10
2.964302469594461
 20
-8.971504189043419
 30
0.0
 10
2.933952433127665
 20
-9.010893791627597
 30
0.0
 10
2.911005842214056
 20
-9.049301721873487
 30
0.0
 10
2.911005842214056
 20
-9.049301721873487
 30
0.0
 10
1.730572123785578
 20
-11.05018173158179
 30
0.0
 10
1.730572123785578
 20
-11.05018173158179
 30
0.0
 10
1.694400224977661
 20
-11.11238158169933
 30
0.0
 10
1.697331607655251
 20
-11.16481924578339
 30
0.0
 10
1.739339003142327
 20
-11.20602221532638
 30
0.0
 10
1.761412996421642
 20
-11.2277144471408
 30
0.0
 10
1.788558963450088
 20
-11.23920819410445
 30
0.0
 10
1.816986558253979
 20
-11.23920819410445
 30
0.0
 10
1.821540427157717
 20
-11.23920819410445
 30
0.0
 10
1.826121564737693
 20
-11.23890823866779
 30
0.0
 10
1.830702702317555
 20
-11.2383355964704
 30
0.0
 10
1.867283631266484
 20
-11.23357721249572
 30
0.0
 10
1.900905908861824
 20
-11.20973075527207
 30
0.0
 10
1.922952633465014
 20
-11.17265899015385
 30
0.0
 10
1.922952633465014
 20
-11.17265899015385
 30
0.0
 10
3.131364013542174
 20
-9.118509621741042
 30
0.0
 10
3.131364013542174
 20
-9.118509621741042
 30
0.0
 10
3.143362231013295
 20
-9.08364661938458
 30
0.0
 10
3.138181182559896
 20
-9.046983884407256
 30
0.0
 10
3.117088861619145
 20
-9.017860938363507
 30
0.0
 10
3.094605838198681
 20
-8.986815550657006
 30
0.0
 10
3.059879179222586
 20
-8.970577054056877
 30
0.0
 10
3.016426543903814
 20
-8.969881702817272
 30
0.0
  0
HATCH
  5
4E
330
1F
100
AcDbEntity
  8
Layer 1
 62
     7
420
 16777215
100
AcDbHatch
 10
0.0
 20
0.0
 30
0.0
210
0.0
220
0.0
230
1.0
  2
SOLID
 70
     1
 71
     0
 91
        1
 92
        1
 93
        1
 72
     4
 94
        3
 73
     0
 74
     1
 95
       35
 96
       31
 40
0.0
 40
0.0
 40
0.0
 40
0.0
 40
1.0
 40
1.0
 40
1.0
 40
2.0
 40
2.0
 40
2.0
 40
3.0
 40
3.0
 40
3.0
 40
4.0
 40
4.0
 40
4.0
 40
5.0
 40
5.0
 40
5.0
 40
6.0
 40
6.0
 40
6.0
 40
7.0
 40
7.0
 40
7.0
 40
8.0
 40
8.0
 40
8.0
 40
9.0
 40
9.0
 40
9.0
 40
10.0
 40
10.0
 40
10.0
 40
10.0
 10
3.016426543903814
 20
-8.969881702817272
 10
3.016426543903814
 20
-8.969881702817272
 10
3.015935707734545
 20
-8.969881702817272
 10
3.015935707734545
 20
-8.969881702817272
 10
2.964302469594461
 20
-8.971504189043419
 10
2.933952433127665
 20
-9.010893791627597
 10
2.911005842214056
 20
-9.049301721873487
 10
2.911005842214056
 20
-9.049301721873487
 10
1.730572123785578
 20
-11.05018173158179
 10
1.730572123785578
 20
-11.05018173158179
 10
1.694400224977661
 20
-11.11238158169933
 10
1.697331607655251
 20
-11.16481924578339
 10
1.739339003142327
 20
-11.20602221532638
 10
1.761412996421642
 20
-11.2277144471408
 10
1.788558963450088
 20
-11.23920819410445
 10
1.816986558253979
 20
-11.23920819410445
 10
1.821540427157717
 20
-11.23920819410445
 10
1.826121564737693
 20
-11.23890823866779
 10
1.830702702317555
 20
-11.2383355964704
 10
1.867283631266484
 20
-11.23357721249572
 10
1.900905908861824
 20
-11.20973075527207
 10
1.922952633465014
 20
-11.17265899015385
 10
1.922952633465014
 20
-11.17265899015385
 10
3.131364013542174
 20
-9.118509621741042
 10
3.131364013542174
 20
-9.118509621741042
 10
3.143362231013295
 20
-9.08364661938458
 10
3.138181182559896
 20
-9.046983884407256
 10
3.117088861619145
 20
-9.017860938363507
 10
3.094605838198681
 20
-8.986815550657006
 10
3.059879179222586
 20
-8.970577054056877
 10
3.016426543903814
 20
-8.969881702817272
 97
        0
 97
        0
 75
     2
 76
     1
 98
        0
  0
SPLINE
  5
4F
330
1F
100
AcDbEntity
  8
Layer 1
370
     0
100
AcDbSpline
210
0.0
220
0.0
230
1.0
 70
    11
 71
     3
 72
    32
 73
    28
 74
     0
 42
0.0000000001
 43
0.0000000001
 12
1.0
 22
0.0
 32
0.0
 13
1.0
 23
0.0
 33
0.0
 40
0.0
 40
0.0
 40
0.0
 40
0.0
 40
1.0
 40
1.0
 40
1.0
 40
2.0
 40
2.0
 40
2.0
 40
3.0
 40
3.0
 40
3.0
 40
4.0
 40
4.0
 40
4.0
 40
5.0
 40
5.0
 40
5.0
 40
6.0
 40
6.0
 40
6.0
 40
7.0
 40
7.0
 40
7.0
 40
8.0
 40
8.0
 40
8.0
 40
9.0
 40
9.0
 40
9.0
 40
9.0
 10
6.810930613953992
 20
-9.090613766120743
 30
0.0
 10
6.775944903438964
 20
-9.04459787525108
 30
0.0
 10
6.722157441248125
 20
-9.03322683732962
 30
0.0
 10
6.670415129710919
 20
-9.0609590808934
 30
0.0
 10
6.670415129710919
 20
-9.0609590808934
 30
0.0
 10
6.670374226697832
 20
-9.0609590808934
 30
0.0
 10
6.670374226697832
 20
-9.0609590808934
 30
0.0
 10
6.62084067786658
 20
-9.08770965211915
 30
0.0
 10
6.60070276109703
 20
-9.137025052793105
 30
0.0
 10
6.616477689805479
 20
-9.19300764476634
 30
0.0
 10
6.616477689805479
 20
-9.19300764476634
 30
0.0
 10
7.715923412529365
 20
-11.28300168787417
 30
0.0
 10
7.715923412529365
 20
-11.28300168787417
 30
0.0
 10
7.739743000829852
 20
-11.32744962986946
 30
0.0
 10
7.776296259824953
 20
-11.35135062444561
 30
0.0
 10
7.818849027758461
 20
-11.35135062444561
 30
0.0
 10
7.828366198060015
 20
-11.35135062444561
 30
0.0
 10
7.838168884266552
 20
-11.35013716836061
 30
0.0
 10
7.848203756807101
 20
-11.34775115920416
 30
0.0
 10
7.900191486422752
 20
-11.33509849350753
 30
0.0
 10
7.93232762036036
 20
-11.29536803247215
 30
0.0
 10
7.936417921667624
 20
-11.23484520593322
 30
0.0
 10
7.93468636078089
 20
-11.20386798991664
 30
0.0
 10
7.922088232754428
 20
-11.17996699534074
 30
0.0
 10
7.90883565651883
 20
-11.15478437298914
 30
0.0
 10
7.90883565651883
 20
-11.15478437298914
 30
0.0
 10
6.810930613953992
 20
-9.090613766120743
 30
0.0
 10
6.810930613953992
 20
-9.090613766120743
 30
0.0
  0
HATCH
  5
50
330
1F
100
AcDbEntity
  8
Layer 1
 62
     7
420
 16777215
100
AcDbHatch
 10
0.0
 20
0.0
 30
0.0
210
0.0
220
0.0
230
1.0
  2
SOLID
 70
     1
 71
     0
 91
        1
 92
        1
 93
        1
 72
     4
 94
        3
 73
     0
 74
     1
 95
       32
 96
       28
 40
0.0
 40
0.0
 40
0.0
 40
0.0
 40
1.0
 40
1.0
 40
1.0
 40
2.0
 40
2.0
 40
2.0
 40
3.0
 40
3.0
 40
3.0
 40
4.0
 40
4.0
 40
4.0
 40
5.0
 40
5.0
 40
5.0
 40
6.0
 40
6.0
 40
6.0
 40
7.0
 40
7.0
 40
7.0
 40
8.0
 40
8.0
 40
8.0
 40
9.0
 40
9.0
 40
9.0
 40
9.0
 10
6.810930613953992
 20
-9.090613766120743
 10
6.775944903438964
 20
-9.04459787525108
 10
6.722157441248125
 20
-9.03322683732962
 10
6.670415129710919
 20
-9.0609590808934
 10
6.670415129710919
 20
-9.0609590808934
 10
6.670374226697832
 20
-9.0609590808934
 10
6.670374226697832
 20
-9.0609590808934
 10
6.62084067786658
 20
-9.08770965211915
 10
6.60070276109703
 20
-9.137025052793105
 10
6.616477689805479
 20
-9.19300764476634
 10
6.616477689805479
 20
-9.19300764476634
 10
7.715923412529365
 20
-11.28300168787417
 10
7.715923412529365
 20
-11.28300168787417
 10
7.739743000829852
 20
-11.32744962986946
 10
7.776296259824953
 20
-11.35135062444561
 10
7.818849027758461
 20
-11.35135062444561
 10
7.828366198060015
 20
-11.35135062444561
 10
7.838168884266552
 20
-11.35013716836061
 10
7.848203756807101
 20
-11.34775115920416
 10
7.900191486422752
 20
-11.33509849350753
 10
7.93232762036036
 20
-11.29536803247215
 10
7.936417921667624
 20
-11.23484520593322
 10
7.93468636078089
 20
-11.20386798991664
 10
7.922088232754428
 20
-11.17996699534074
 10
7.90883565651883
 20
-11.15478437298914
 10
7.90883565651883
 20
-11.15478437298914
 10
6.810930613953992
 20
-9.090613766120743
 10
6.810930613953992
 20
-9.090613766120743
 97
        0
 97
        0
 75
     2
 76
     1
 98
        0
  0
SPLINE
  5
51
330
1F
100
AcDbEntity
  8
Layer 1
370
     0
100
AcDbSpline
210
0.0
220
0.0
230
1.0
 70
    11
 71
     3
 72
    23
 73
    19
 74
     0
 42
0.0000000001
 43
0.0000000001
 12
1.0
 22
0.0
 32
0.0
 13
1.0
 23
0.0
 33
0.0
 40
0.0
 40
0.0
 40
0.0
 40
0.0
 40
1.0
 40
1.0
 40
1.0
 40
2.0
 40
2.0
 40
2.0
 40
3.0
 40
3.0
 40
3.0
 40
4.0
 40
4.0
 40
4.0
 40
5.0
 40
5.0
 40
5.0
 40
6.0
 40
6.0
 40
6.0
 40
6.0
 10
1.198928380771374
 20
-5.922716226610507
 30
0.0
 10
1.196528737277125
 20
-5.861048115676428
 30
0.0
 10
1.150253793985017
 20
-5.817240987568627
 30
0.0
 10
1.081195871835803
 20
-5.813641522327316
 30
0.0
 10
1.081195871835803
 20
-5.813641522327316
 30
0.0
 10
-1.054841330817579
 20
-5.889121217691291
 30
0.0
 10
-1.054841330817579
 20
-5.889121217691291
 30
0.0
 10
-1.130211951477172
 20
-5.892843391974919
 30
0.0
 10
-1.18305864570238
 20
-5.943140464987423
 30
0.0
 10
-1.180536293165814
 20
-6.008694362261647
 30
0.0
 10
-1.177986671953237
 20
-6.075134491508101
 30
0.0
 10
-1.125712619925568
 20
-6.118355343080313
 30
0.0
 10
-1.046115354474877
 20
-6.118696201531242
 30
0.0
 10
-1.046115354474877
 20
-6.118696201531242
 30
0.0
 10
1.090508124713968
 20
-6.039098936080588
 30
0.0
 10
1.090508124713968
 20
-6.039098936080588
 30
0.0
 10
1.156839179256167
 20
-6.034640507543018
 30
0.0
 10
1.201423464631944
 20
-5.986770346700774
 30
0.0
 10
1.198928380771374
 20
-5.922716226610507
 30
0.0
  0
HATCH
  5
52
330
1F
100
AcDbEntity
  8
Layer 1
 62
     7
420
 16777215
100
AcDbHatch
 10
0.0
 20
0.0
 30
0.0
210
0.0
220
0.0
230
1.0
  2
SOLID
 70
     1
 71
     0
 91
        1
 92
        1
 93
        1
 72
     4
 94
        3
 73
     0
 74
     1
 95
       23
 96
       19
 40
0.0
 40
0.0
 40
0.0
 40
0.0
 40
1.0
 40
1.0
 40
1.0
 40
2.0
 40
2.0
 40
2.0
 40
3.0
 40
3.0
 40
3.0
 40
4.0
 40
4.0
 40
4.0
 40
5.0
 40
5.0
 40
5.0
 40
6.0
 40
6.0
 40
6.0
 40
6.0
 10
1.198928380771374
 20
-5.922716226610507
 10
1.196528737277125
 20
-5.861048115676428
 10
1.150253793985017
 20
-5.817240987568627
 10
1.081195871835803
 20
-5.813641522327316
 10
1.081195871835803
 20
-5.813641522327316
 10
-1.054841330817579
 20
-5.889121217691291
 10
-1.054841330817579
 20
-5.889121217691291
 10
-1.130211951477172
 20
-5.892843391974919
 10
-1.18305864570238
 20
-5.943140464987423
 10
-1.180536293165814
 20
-6.008694362261647
 10
-1.177986671953237
 20
-6.075134491508101
 10
-1.125712619925568
 20
-6.118355343080313
 10
-1.046115354474877
 20
-6.118696201531242
 10
-1.046115354474877
 20
-6.118696201531242
 10
1.090508124713968
 20
-6.039098936080588
 10
1.090508124713968
 20
-6.039098936080588
 10
1.156839179256167
 20
-6.034640507543018
 10
1.201423464631944
 20
-5.986770346700774
 10
1.198928380771374
 20
-5.922716226610507
 97
        0
 97
        0
 75
     2
 76
     1
 98
        0
  0
SPLINE
  5
53
330
1F
100
AcDbEntity
  8
Layer 1
370
     0
100
AcDbSpline
210
0.0
220
0.0
230
1.0
 70
    11
 71
     3
 72
    29
 73
    25
 74
     0
 42
0.0000000001
 43
0.0000000001
 12
1.0
 22
0.0
 32
0.0
 13
1.0
 23
0.0
 33
0.0
 40
0.0
 40
0.0
 40
0.0
 40
0.0
 40
1.0
 40
1.0
 40
1.0
 40
2.0
 40
2.0
 40
2.0
 40
3.0
 40
3.0
 40
3.0
 40
4.0
 40
4.0
 40
4.0
 40
5.0
 40
5.0
 40
5.0
 40
6.0
 40
6.0
 40
6.0
 40
7.0
 40
7.0
 40
7.0
 40
8.0
 40
8.0
 40
8.0
 40
8.0
 10
5.445206618515082
 20
-9.422923487057131
 30
0.0
 10
5.412865968695175
 20
-9.407898446542225
 30
0.0
 10
5.375644225858523
 20
-9.410925269586034
 30
0.0
 10
5.343276307362506
 20
-9.43117226156874
 30
0.0
 10
5.300314508212876
 20
-9.457909198456036
 30
0.0
 10
5.282671674795097
 20
-9.501484542817252
 30
0.0
 10
5.290770471588126
 20
-9.56060303253854
 30
0.0
 10
5.290770471588126
 20
-9.56060303253854
 30
0.0
 10
5.552017677596571
 20
-11.48368550941697
 30
0.0
 10
5.552017677596571
 20
-11.48368550941697
 30
0.0
 10
5.562284333877869
 20
-11.54802595060609
 30
0.0
 10
5.606868618127312
 20
-11.58880625566998
 30
0.0
 10
5.664869438603343
 20
-11.58880625566998
 30
0.0
 10
5.669191175712714
 20
-11.58880625566998
 30
0.0
 10
5.673595414946046
 20
-11.58857447192354
 30
0.0
 10
5.678067129549516
 20
-11.58811090443037
 30
0.0
 10
5.738658126248159
 20
-11.58185274327201
 30
0.0
 10
5.778402220617332
 20
-11.53305544744343
 30
0.0
 10
5.779043034488798
 20
-11.45949819374239
 30
0.0
 10
5.779043034488798
 20
-11.45949819374239
 30
0.0
 10
5.516745990186791
 20
-9.528289651394768
 30
0.0
 10
5.516745990186791
 20
-9.528289651394768
 30
0.0
 10
5.50941071632379
 20
-9.479560527256403
 30
0.0
 10
5.482660145098306
 20
-9.440157290334001
 30
0.0
 10
5.445206618515082
 20
-9.422923487057131
 30
0.0
  0
HATCH
  5
54
330
1F
100
AcDbEntity
  8
Layer 1
 62
     7
420
 16777215
100
AcDbHatch
 10
0.0
 20
0.0
 30
0.0
210
0.0
220
0.0
230
1.0
  2
SOLID
 70
     1
 71
     0
 91
        1
 92
        1
 93
        1
 72
     4
 94
        3
 73
     0
 74
     1
 95
       29
 96
       25
 40
0.0
 40
0.0
 40
0.0
 40
0.0
 40
1.0
 40
1.0
 40
1.0
 40
2.0
 40
2.0
 40
2.0
 40
3.0
 40
3.0
 40
3.0
 40
4.0
 40
4.0
 40
4.0
 40
5.0
 40
5.0
 40
5.0
 40
6.0
 40
6.0
 40
6.0
 40
7.0
 40
7.0
 40
7.0
 40
8.0
 40
8.0
 40
8.0
 40
8.0
 10
5.445206618515082
 20
-9.422923487057131
 10
5.412865968695175
 20
-9.407898446542225
 10
5.375644225858523
 20
-9.410925269586034
 10
5.343276307362506
 20
-9.43117226156874
 10
5.300314508212876
 20
-9.457909198456036
 10
5.282671674795097
 20
-9.501484542817252
 10
5.290770471588126
 20
-9.56060303253854
 10
5.290770471588126
 20
-9.56060303253854
 10
5.552017677596571
 20
-11.48368550941697
 10
5.552017677596571
 20
-11.48368550941697
 10
5.562284333877869
 20
-11.54802595060609
 10
5.606868618127312
 20
-11.58880625566998
 10
5.664869438603343
 20
-11.58880625566998
 10
5.669191175712714
 20
-11.58880625566998
 10
5.673595414946046
 20
-11.58857447192354
 10
5.678067129549516
 20
-11.58811090443037
 10
5.738658126248159
 20
-11.58185274327201
 10
5.778402220617332
 20
-11.53305544744343
 10
5.779043034488798
 20
-11.45949819374239
 10
5.779043034488798
 20
-11.45949819374239
 10
5.516745990186791
 20
-9.528289651394768
 10
5.516745990186791
 20
-9.528289651394768
 10
5.50941071632379
 20
-9.479560527256403
 10
5.482660145098306
 20
-9.440157290334001
 10
5.445206618515082
 20
-9.422923487057131
 97
        0
 97
        0
 75
     2
 76
     1
 98
        0
  0
SPLINE
  5
55
330
1F
100
AcDbEntity
  8
Layer 1
370
     0
100
AcDbSpline
210
0.0
220
0.0
230
1.0
 70
    11
 71
     3
 72
    26
 73
    22
 74
     0
 42
0.0000000001
 43
0.0000000001
 12
1.0
 22
0.0
 32
0.0
 13
1.0
 23
0.0
 33
0.0
 40
0.0
 40
0.0
 40
0.0
 40
0.0
 40
1.0
 40
1.0
 40
1.0
 40
2.0
 40
2.0
 40
2.0
 40
3.0
 40
3.0
 40
3.0
 40
4.0
 40
4.0
 40
4.0
 40
5.0
 40
5.0
 40
5.0
 40
6.0
 40
6.0
 40
6.0
 40
7.0
 40
7.0
 40
7.0
 40
7.0
 10
10.71701838470042
 20
-5.918653193875924
 30
0.0
 10
10.71701838470042
 20
-5.918653193875924
 30
0.0
 10
8.783001217574943
 20
-5.881649600447783
 30
0.0
 10
8.783001217574943
 20
-5.881649600447783
 30
0.0
 10
8.700472571531538
 20
-5.881417816701211
 30
0.0
 10
8.646753281029152
 20
-5.92521131047095
 30
0.0
 10
8.644599055673956
 20
-5.993560247042372
 30
0.0
 10
8.643617383360226
 20
-6.023896649171093
 30
0.0
 10
8.65374769626462
 20
-6.051110787889734
 30
0.0
 10
8.673817441345717
 20
-6.072175840154513
 30
0.0
 10
8.697663897967207
 20
-6.097235753463539
 30
0.0
 10
8.734217557316672
 20
-6.111388196344251
 30
0.0
 10
8.776797593925544
 20
-6.112138084936254
 30
0.0
 10
8.776797593925544
 20
-6.112138084936254
 30
0.0
 10
10.70710622119908
 20
-6.143933361234732
 30
0.0
 10
10.70710622119908
 20
-6.143933361234732
 30
0.0
 10
10.76787446428772
 20
-6.141970016557631
 30
0.0
 10
10.81498110100999
 20
-6.097344828167782
 30
0.0
 10
10.81909867099267
 20
-6.037762770953123
 30
0.0
 10
10.82313443494917
 20
-5.978535206527352
 30
0.0
 10
10.78302221346237
 20
-5.929737910698678
 30
0.0
 10
10.71701838470042
 20
-5.918653193875924
 30
0.0
  0
HATCH
  5
56
330
1F
100
AcDbEntity
  8
Layer 1
 62
     7
420
 16777215
100
AcDbHatch
 10
0.0
 20
0.0
 30
0.0
210
0.0
220
0.0
230
1.0
  2
SOLID
 70
     1
 71
     0
 91
        1
 92
        1
 93
        1
 72
     4
 94
        3
 73
     0
 74
     1
 95
       26
 96
       22
 40
0.0
 40
0.0
 40
0.0
 40
0.0
 40
1.0
 40
1.0
 40
1.0
 40
2.0
 40
2.0
 40
2.0
 40
3.0
 40
3.0
 40
3.0
 40
4.0
 40
4.0
 40
4.0
 40
5.0
 40
5.0
 40
5.0
 40
6.0
 40
6.0
 40
6.0
 40
7.0
 40
7.0
 40
7.0
 40
7.0
 10
10.71701838470042
 20
-5.918653193875924
 10
10.71701838470042
 20
-5.918653193875924
 10
8.783001217574943
 20
-5.881649600447783
 10
8.783001217574943
 20
-5.881649600447783
 10
8.700472571531538
 20
-5.881417816701211
 10
8.646753281029152
 20
-5.92521131047095
 10
8.644599055673956
 20
-5.993560247042372
 10
8.643617383360226
 20
-6.023896649171093
 10
8.65374769626462
 20
-6.051110787889734
 10
8.673817441345717
 20
-6.072175840154513
 10
8.697663897967207
 20
-6.097235753463539
 10
8.734217557316672
 20
-6.111388196344251
 10
8.776797593925544
 20
-6.112138084936254
 10
8.776797593925544
 20
-6.112138084936254
 10
10.70710622119908
 20
-6.143933361234732
 10
10.70710622119908
 20
-6.143933361234732
 10
10.76787446428772
 20
-6.141970016557631
 10
10.81498110100999
 20
-6.097344828167782
 10
10.81909867099267
 20
-6.037762770953123
 10
10.82313443494917
 20
-5.978535206527352
 10
10.78302221346237
 20
-5.929737910698678
 10
10.71701838470042
 20
-5.918653193875924
 97
        0
 97
        0
 75
     2
 76
     1
 98
        0
  0
SPLINE
  5
57
330
1F
100
AcDbEntity
  8
Layer 1
370
     0
100
AcDbSpline
210
0.0
220
0.0
230
1.0
 70
    11
 71
     3
 72
    32
 73
    28
 74
     0
 42
0.0000000001
 43
0.0000000001
 12
1.0
 22
0.0
 32
0.0
 13
1.0
 23
0.0
 33
0.0
 40
0.0
 40
0.0
 40
0.0
 40
0.0
 40
1.0
 40
1.0
 40
1.0
 40
2.0
 40
2.0
 40
2.0
 40
3.0
 40
3.0
 40
3.0
 40
4.0
 40
4.0
 40
4.0
 40
5.0
 40
5.0
 40
5.0
 40
6.0
 40
6.0
 40
6.0
 40
7.0
 40
7.0
 40
7.0
 40
8.0
 40
8.0
 40
8.0
 40
9.0
 40
9.0
 40
9.0
 40
9.0
 10
2.157435978997733
 20
-8.227778317888452
 30
0.0
 10
2.156467940997244
 20
-8.184448391612124
 30
0.0
 10
2.137039009296814
 20
-8.150798845340887
 30
0.0
 10
2.101276140629933
 20
-8.130320069611722
 30
0.0
 10
2.101276140629933
 20
-8.130320069611722
 30
0.0
 10
2.101235237615861
 20
-8.130320069611722
 30
0.0
 10
2.101235237615861
 20
-8.130320069611722
 30
0.0
 10
2.05752354987438
 20
-8.105369231006836
 30
0.0
 10
2.011262240920334
 20
-8.109895831234553
 30
0.0
 10
1.970672816588957
 20
-8.143190884716887
 30
0.0
 10
1.970672816588957
 20
-8.143190884716887
 30
0.0
 10
0.520510988806134
 20
-9.366940895083896
 30
0.0
 10
0.520510988806134
 20
-9.366940895083896
 30
0.0
 10
0.465346457114947
 20
-9.414579272179454
 30
0.0
 10
0.4558024204901964
 20
-9.483269067202096
 30
0.0
 10
0.4973326141460651
 20
-9.53402970770776
 30
0.0
 10
0.5196520255100141
 20
-9.561243846426375
 30
0.0
 10
0.5493476137510369
 20
-9.574987259166088
 30
0.0
 10
0.581429211148361
 20
-9.574987259166088
 30
0.0
 10
0.6105248885158466
 20
-9.574987259166088
 30
0.0
 10
0.641597544898496
 20
-9.56368439293457
 30
0.0
 10
0.6709250060126806
 20
-9.540819608049459
 30
0.0
 10
0.6709250060126806
 20
-9.540819608049459
 30
0.0
 10
2.102230544292474
 20
-8.328904203097055
 30
0.0
 10
2.102230544292474
 20
-8.328904203097055
 30
0.0
 10
2.129499220363237
 20
-8.30564402240874
 30
0.0
 10
2.157395075983661
 20
-8.275593941378702
 30
0.0
 10
2.157435978997733
 20
-8.227778317888452
 30
0.0
  0
HATCH
  5
58
330
1F
100
AcDbEntity
  8
Layer 1
 62
     7
420
 16777215
100
AcDbHatch
 10
0.0
 20
0.0
 30
0.0
210
0.0
220
0.0
230
1.0
  2
SOLID
 70
     1
 71
     0
 91
        1
 92
        1
 93
        1
 72
     4
 94
        3
 73
     0
 74
     1
 95
       32
 96
       28
 40
0.0
 40
0.0
 40
0.0
 40
0.0
 40
1.0
 40
1.0
 40
1.0
 40
2.0
 40
2.0
 40
2.0
 40
3.0
 40
3.0
 40
3.0
 40
4.0
 40
4.0
 40
4.0
 40
5.0
 40
5.0
 40
5.0
 40
6.0
 40
6.0
 40
6.0
 40
7.0
 40
7.0
 40
7.0
 40
8.0
 40
8.0
 40
8.0
 40
9.0
 40
9.0
 40
9.0
 40
9.0
 10
2.157435978997733
 20
-8.227778317888452
 10
2.156467940997244
 20
-8.184448391612124
 10
2.137039009296814
 20
-8.150798845340887
 10
2.101276140629933
 20
-8.130320069611722
 10
2.101276140629933
 20
-8.130320069611722
 10
2.101235237615861
 20
-8.130320069611722
 10
2.101235237615861
 20
-8.130320069611722
 10
2.05752354987438
 20
-8.105369231006836
 10
2.011262240920334
 20
-8.109895831234553
 10
1.970672816588957
 20
-8.143190884716887
 10
1.970672816588957
 20
-8.143190884716887
 10
0.520510988806134
 20
-9.366940895083896
 10
0.520510988806134
 20
-9.366940895083896
 10
0.465346457114947
 20
-9.414579272179454
 10
0.4558024204901964
 20
-9.483269067202096
 10
0.4973326141460651
 20
-9.53402970770776
 10
0.5196520255100141
 20
-9.561243846426375
 10
0.5493476137510369
 20
-9.574987259166088
 10
0.581429211148361
 20
-9.574987259166088
 10
0.6105248885158466
 20
-9.574987259166088
 10
0.641597544898496
 20
-9.56368439293457
 10
0.6709250060126806
 20
-9.540819608049459
 10
0.6709250060126806
 20
-9.540819608049459
 10
2.102230544292474
 20
-8.328904203097055
 10
2.102230544292474
 20
-8.328904203097055
 10
2.129499220363237
 20
-8.30564402240874
 10
2.157395075983661
 20
-8.275593941378702
 10
2.157435978997733
 20
-8.227778317888452
 97
        0
 97
        0
 75
     2
 76
     1
 98
        0
  0
SPLINE
  5
59
330
1F
100
AcDbEntity
  8
Layer 1
370
     0
100
AcDbSpline
210
0.0
220
0.0
230
1.0
 70
    11
 71
     3
 72
    32
 73
    28
 74
     0
 42
0.0000000001
 43
0.0000000001
 12
1.0
 22
0.0
 32
0.0
 13
1.0
 23
0.0
 33
0.0
 40
0.0
 40
0.0
 40
0.0
 40
0.0
 40
1.0
 40
1.0
 40
1.0
 40
2.0
 40
2.0
 40
2.0
 40
3.0
 40
3.0
 40
3.0
 40
4.0
 40
4.0
 40
4.0
 40
5.0
 40
5.0
 40
5.0
 40
6.0
 40
6.0
 40
6.0
 40
7.0
 40
7.0
 40
7.0
 40
8.0
 40
8.0
 40
8.0
 40
9.0
 40
9.0
 40
9.0
 40
9.0
 10
2.800976734268438
 20
-2.622320190072388
 30
0.0
 10
2.822150861237459
 20
-2.650106970988557
 30
0.0
 10
2.852064598887106
 20
-2.664791153052622
 30
0.0
 10
2.885250577665185
 20
-2.664791153052622
 30
0.0
 10
2.899239408489519
 20
-2.664791153052622
 30
0.0
 10
2.913759978497208
 20
-2.662173360149862
 30
0.0
 10
2.928498697913508
 20
-2.656896871330155
 30
0.0
 10
2.972946639908918
 20
-2.640944695828719
 30
0.0
 10
2.998783710486047
 20
-2.604745528344804
 30
0.0
 10
3.001319697360536
 20
-2.554966560177579
 30
0.0
 10
3.0031057956432
 20
-2.516258674495046
 30
0.0
 10
2.984917588704017
 20
-2.487953788733598
 30
0.0
 10
2.968910875850447
 20
-2.462948412776692
 30
0.0
 10
2.968910875850447
 20
-2.462948412776692
 30
0.0
 10
1.991642428487391
 20
-0.8958039646501623
 30
0.0
 10
1.991642428487391
 20
-0.8958039646501623
 30
0.0
 10
1.991642428487391
 20
-0.8958039646501623
 30
0.0
 10
1.989965404908995
 20
-0.8933634181418407
 30
0.0
 10
1.989965404908995
 20
-0.8933634181418407
 30
0.0
 10
1.951816527085915
 20
-0.8439934801157657
 30
0.0
 10
1.889562139616373
 20
-0.8318589192641512
 30
0.0
 10
1.838774230434461
 20
-0.8637087329149027
 30
0.0
 10
1.78981332254941
 20
-0.8943450904804042
 30
0.0
 10
1.77364299763945
 20
-0.9553860218649485
 30
0.0
 10
1.801293435175239
 20
-1.015431646572754
 30
0.0
 10
1.801293435175239
 20
-1.015431646572754
 30
0.0
 10
2.800976734268438
 20
-2.622320190072388
 30
0.0
 10
2.800976734268438
 20
-2.622320190072388
 30
0.0
  0
HATCH
  5
5A
330
1F
100
AcDbEntity
  8
Layer 1
 62
     7
420
 16777215
100
AcDbHatch
 10
0.0
 20
0.0
 30
0.0
210
0.0
220
0.0
230
1.0
  2
SOLID
 70
     1
 71
     0
 91
        1
 92
        1
 93
        1
 72
     4
 94
        3
 73
     0
 74
     1
 95
       32
 96
       28
 40
0.0
 40
0.0
 40
0.0
 40
0.0
 40
1.0
 40
1.0
 40
1.0
 40
2.0
 40
2.0
 40
2.0
 40
3.0
 40
3.0
 40
3.0
 40
4.0
 40
4.0
 40
4.0
 40
5.0
 40
5.0
 40
5.0
 40
6.0
 40
6.0
 40
6.0
 40
7.0
 40
7.0
 40
7.0
 40
8.0
 40
8.0
 40
8.0
 40
9.0
 40
9.0
 40
9.0
 40
9.0
 10
2.800976734268438
 20
-2.622320190072388
 10
2.822150861237459
 20
-2.650106970988557
 10
2.852064598887106
 20
-2.664791153052622
 10
2.885250577665185
 20
-2.664791153052622
 10
2.899239408489519
 20
-2.664791153052622
 10
2.913759978497208
 20
-2.662173360149862
 10
2.928498697913508
 20
-2.656896871330155
 10
2.972946639908918
 20
-2.640944695828719
 10
2.998783710486047
 20
-2.604745528344804
 10
3.001319697360536
 20
-2.554966560177579
 10
3.0031057956432
 20
-2.516258674495046
 10
2.984917588704017
 20
-2.487953788733598
 10
2.968910875850447
 20
-2.462948412776692
 10
2.968910875850447
 20
-2.462948412776692
 10
1.991642428487391
 20
-0.8958039646501623
 10
1.991642428487391
 20
-0.8958039646501623
 10
1.991642428487391
 20
-0.8958039646501623
 10
1.989965404908995
 20
-0.8933634181418407
 10
1.989965404908995
 20
-0.8933634181418407
 10
1.951816527085915
 20
-0.8439934801157657
 10
1.889562139616373
 20
-0.8318589192641512
 10
1.838774230434461
 20
-0.8637087329149027
 10
1.78981332254941
 20
-0.8943450904804042
 10
1.77364299763945
 20
-0.9553860218649485
 10
1.801293435175239
 20
-1.015431646572754
 10
1.801293435175239
 20
-1.015431646572754
 10
2.800976734268438
 20
-2.622320190072388
 10
2.800976734268438
 20
-2.622320190072388
 97
        0
 97
        0
 75
     2
 76
     1
 98
        0
  0
SPLINE
  5
5B
330
1F
100
AcDbEntity
  8
Layer 1
370
     0
100
AcDbSpline
210
0.0
220
0.0
230
1.0
 70
    11
 71
     3
 72
    29
 73
    25
 74
     0
 42
0.0000000001
 43
0.0000000001
 12
1.0
 22
0.0
 32
0.0
 13
1.0
 23
0.0
 33
0.0
 40
0.0
 40
0.0
 40
0.0
 40
0.0
 40
1.0
 40
1.0
 40
1.0
 40
2.0
 40
2.0
 40
2.0
 40
3.0
 40
3.0
 40
3.0
 40
4.0
 40
4.0
 40
4.0
 40
5.0
 40
5.0
 40
5.0
 40
6.0
 40
6.0
 40
6.0
 40
7.0
 40
7.0
 40
7.0
 40
8.0
 40
8.0
 40
8.0
 40
8.0
 10
6.909820844615372
 20
-2.619007045929783
 30
0.0
 10
6.981087148337211
 20
-2.616975529562498
 30
0.0
 10
7.01214616959722
 20
-2.560842959870822
 30
0.0
 10
7.028807330255581
 20
-2.530588363770208
 30
0.0
 10
7.236308315574357
 20
-2.153817066500109
 30
0.0
 10
7.856411628097071
 20
-1.022153375224169
 30
0.0
 10
7.856411628097071
 20
-1.022153375224169
 30
0.0
 10
7.856411628097071
 20
-1.022153375224169
 30
0.0
 10
7.859288473349856
 20
-1.014668123642726
 30
0.0
 10
7.859288473349856
 20
-1.014668123642726
 30
0.0
 10
7.871996079773226
 20
-0.9604852642900772
 30
0.0
 10
7.852266789439
 20
-0.9145920824629835
 30
0.0
 10
7.805105615365973
 20
-0.8887822805619786
 30
0.0
 10
7.757058610134865
 20
-0.8624952768297791
 30
0.0
 10
7.706379376145706
 20
-0.8704986332564886
 30
0.0
 10
7.669403052327803
 20
-0.9101881912775853
 30
0.0
 10
7.669403052327803
 20
-0.9101881912775853
 30
0.0
 10
6.80915815005417
 20
-2.455176840096429
 30
0.0
 10
6.80915815005417
 20
-2.455176840096429
 30
0.0
 10
6.792333377343513
 20
-2.492998493806605
 30
0.0
 10
6.794883374976886
 20
-2.535237673040254
 30
0.0
 10
6.816002587575035
 20
-2.568191868071886
 30
0.0
 10
6.836072332656133
 20
-2.599523576877219
 30
0.0
 10
6.870717184728871
 20
-2.618543478436512
 30
0.0
 10
6.909820844615372
 20
-2.619007045929783
 30
0.0
  0
HATCH
  5
5C
330
1F
100
AcDbEntity
  8
Layer 1
 62
     7
420
 16777215
100
AcDbHatch
 10
0.0
 20
0.0
 30
0.0
210
0.0
220
0.0
230
1.0
  2
SOLID
 70
     1
 71
     0
 91
        1
 92
        1
 93
        1
 72
     4
 94
        3
 73
     0
 74
     1
 95
       29
 96
       25
 40
0.0
 40
0.0
 40
0.0
 40
0.0
 40
1.0
 40
1.0
 40
1.0
 40
2.0
 40
2.0
 40
2.0
 40
3.0
 40
3.0
 40
3.0
 40
4.0
 40
4.0
 40
4.0
 40
5.0
 40
5.0
 40
5.0
 40
6.0
 40
6.0
 40
6.0
 40
7.0
 40
7.0
 40
7.0
 40
8.0
 40
8.0
 40
8.0
 40
8.0
 10
6.909820844615372
 20
-2.619007045929783
 10
6.981087148337211
 20
-2.616975529562498
 10
7.01214616959722
 20
-2.560842959870822
 10
7.028807330255581
 20
-2.530588363770208
 10
7.236308315574357
 20
-2.153817066500109
 10
7.856411628097071
 20
-1.022153375224169
 10
7.856411628097071
 20
-1.022153375224169
 10
7.856411628097071
 20
-1.022153375224169
 10
7.859288473349856
 20
-1.014668123642726
 10
7.859288473349856
 20
-1.014668123642726
 10
7.871996079773226
 20
-0.9604852642900772
 10
7.852266789439
 20
-0.9145920824629835
 10
7.805105615365973
 20
-0.8887822805619786
 10
7.757058610134865
 20
-0.8624952768297791
 10
7.706379376145706
 20
-0.8704986332564886
 10
7.669403052327803
 20
-0.9101881912775853
 10
7.669403052327803
 20
-0.9101881912775853
 10
6.80915815005417
 20
-2.455176840096429
 10
6.80915815005417
 20
-2.455176840096429
 10
6.792333377343513
 20
-2.492998493806605
 10
6.794883374976886
 20
-2.535237673040254
 10
6.816002587575035
 20
-2.568191868071886
 10
6.836072332656133
 20
-2.599523576877219
 10
6.870717184728871
 20
-2.618543478436512
 10
6.909820844615372
 20
-2.619007045929783
 97
        0
 97
        0
 75
     2
 76
     1
 98
        0
  0
SPLINE
  5
5D
330
1F
100
AcDbEntity
  8
Layer 1
370
     0
100
AcDbSpline
210
0.0
220
0.0
230
1.0
 70
    11
 71
     3
 72
    38
 73
    34
 74
     0
 42
0.0000000001
 43
0.0000000001
 12
1.0
 22
0.0
 32
0.0
 13
1.0
 23
0.0
 33
0.0
 40
0.0
 40
0.0
 40
0.0
 40
0.0
 40
1.0
 40
1.0
 40
1.0
 40
2.0
 40
2.0
 40
2.0
 40
3.0
 40
3.0
 40
3.0
 40
4.0
 40
4.0
 40
4.0
 40
5.0
 40
5.0
 40
5.0
 40
6.0
 40
6.0
 40
6.0
 40
7.0
 40
7.0
 40
7.0
 40
8.0
 40
8.0
 40
8.0
 40
9.0
 40
9.0
 40
9.0
 40
10.0
 40
10.0
 40
10.0
 40
11.0
 40
11.0
 40
11.0
 40
11.0
 10
9.952336555302736
 20
-7.810472133639349
 30
0.0
 10
9.952336555302736
 20
-7.810472133639349
 30
0.0
 10
8.494198676604961
 20
-7.232744328065412
 30
0.0
 10
8.494198676604961
 20
-7.232744328065412
 30
0.0
 10
8.494198676604961
 20
-7.232744328065412
 30
0.0
 10
8.487286067395644
 20
-7.233316970262826
 30
0.0
 10
8.487286067395644
 20
-7.233316970262826
 30
0.0
 10
8.431862484681863
 20
-7.237789033138546
 30
0.0
 10
8.396290497646152
 20
-7.260640183685963
 30
0.0
 10
8.37856585864789
 20
-7.303056609313948
 30
0.0
 10
8.360527629882755
 20
-7.346331998238282
 30
0.0
 10
8.36937673130448
 20
-7.389784633557055
 30
0.0
 10
8.40346257639299
 20
-7.425411158843568
 30
0.0
 10
8.40346257639299
 20
-7.425411158843568
 30
0.0
 10
8.407838781670382
 20
-7.429992296423556
 30
0.0
 10
8.407838781670382
 20
-7.429992296423556
 30
0.0
 10
8.407838781670382
 20
-7.429992296423556
 30
0.0
 10
9.86957612551858
 20
-8.025185689020569
 30
0.0
 10
9.86957612551858
 20
-8.025185689020569
 30
0.0
 10
9.86957612551858
 20
-8.025185689020569
 30
0.0
 10
9.869739737570878
 20
-8.025253860710993
 30
0.0
 10
9.869739737570878
 20
-8.025253860710993
 30
0.0
 10
9.891268356784899
 20
-8.033898031025323
 30
0.0
 10
9.912183430802845
 20
-8.038179213168405
 30
0.0
 10
9.931789608402443
 20
-8.038179213168405
 30
0.0
 10
9.948532575086952
 20
-8.038179213168405
 30
0.0
 10
9.964334772470767
 20
-8.035056949758301
 30
0.0
 10
9.9787871704232
 20
-8.028785154261994
 30
0.0
 10
10.00556500964826
 20
-8.017127795241827
 30
0.0
 10
10.0257165607555
 20
-7.995421929089237
 30
0.0
 10
10.03706032971437
 20
-7.966121736651277
 30
0.0
 10
10.06183392129886
 20
-7.902135788251093
 30
0.0
 10
10.02862067468368
 20
-7.841108491204724
 30
0.0
 10
9.952336555302736
 20
-7.810472133639349
 30
0.0
  0
HATCH
  5
5E
330
1F
100
AcDbEntity
  8
Layer 1
 62
     7
420
 16777215
100
AcDbHatch
 10
0.0
 20
0.0
 30
0.0
210
0.0
220
0.0
230
1.0
  2
SOLID
 70
     1
 71
     0
 91
        1
 92
        1
 93
        1
 72
     4
 94
        3
 73
     0
 74
     1
 95
       38
 96
       34
 40
0.0
 40
0.0
 40
0.0
 40
0.0
 40
1.0
 40
1.0
 40
1.0
 40
2.0
 40
2.0
 40
2.0
 40
3.0
 40
3.0
 40
3.0
 40
4.0
 40
4.0
 40
4.0
 40
5.0
 40
5.0
 40
5.0
 40
6.0
 40
6.0
 40
6.0
 40
7.0
 40
7.0
 40
7.0
 40
8.0
 40
8.0
 40
8.0
 40
9.0
 40
9.0
 40
9.0
 40
10.0
 40
10.0
 40
10.0
 40
11.0
 40
11.0
 40
11.0
 40
11.0
 10
9.952336555302736
 20
-7.810472133639349
 10
9.952336555302736
 20
-7.810472133639349
 10
8.494198676604961
 20
-7.232744328065412
 10
8.494198676604961
 20
-7.232744328065412
 10
8.494198676604961
 20
-7.232744328065412
 10
8.487286067395644
 20
-7.233316970262826
 10
8.487286067395644
 20
-7.233316970262826
 10
8.431862484681863
 20
-7.237789033138546
 10
8.396290497646152
 20
-7.260640183685963
 10
8.37856585864789
 20
-7.303056609313948
 10
8.360527629882755
 20
-7.346331998238282
 10
8.36937673130448
 20
-7.389784633557055
 10
8.40346257639299
 20
-7.425411158843568
 10
8.40346257639299
 20
-7.425411158843568
 10
8.407838781670382
 20
-7.429992296423556
 10
8.407838781670382
 20
-7.429992296423556
 10
8.407838781670382
 20
-7.429992296423556
 10
9.86957612551858
 20
-8.025185689020569
 10
9.86957612551858
 20
-8.025185689020569
 10
9.86957612551858
 20
-8.025185689020569
 10
9.869739737570878
 20
-8.025253860710993
 10
9.869739737570878
 20
-8.025253860710993
 10
9.891268356784899
 20
-8.033898031025323
 10
9.912183430802845
 20
-8.038179213168405
 10
9.931789608402443
 20
-8.038179213168405
 10
9.948532575086952
 20
-8.038179213168405
 10
9.964334772470767
 20
-8.035056949758301
 10
9.9787871704232
 20
-8.028785154261994
 10
10.00556500964826
 20
-8.017127795241827
 10
10.0257165607555
 20
-7.995421929089237
 10
10.03706032971437
 20
-7.966121736651277
 10
10.06183392129886
 20
-7.902135788251093
 10
10.02862067468368
 20
-7.841108491204724
 10
9.952336555302736
 20
-7.810472133639349
 97
        0
 97
        0
 75
     2
 76
     1
 98
        0
  0
SPLINE
  5
5F
330
1F
100
AcDbEntity
  8
Layer 1
370
     0
100
AcDbSpline
210
0.0
220
0.0
230
1.0
 70
    11
 71
     3
 72
    29
 73
    25
 74
     0
 42
0.0000000001
 43
0.0000000001
 12
1.0
 22
0.0
 32
0.0
 13
1.0
 23
0.0
 33
0.0
 40
0.0
 40
0.0
 40
0.0
 40
0.0
 40
1.0
 40
1.0
 40
1.0
 40
2.0
 40
2.0
 40
2.0
 40
3.0
 40
3.0
 40
3.0
 40
4.0
 40
4.0
 40
4.0
 40
5.0
 40
5.0
 40
5.0
 40
6.0
 40
6.0
 40
6.0
 40
7.0
 40
7.0
 40
7.0
 40
8.0
 40
8.0
 40
8.0
 40
8.0
 10
-0.1281426432277865
 20
-4.304402107837177
 30
0.0
 10
-0.1281426432277865
 20
-4.304402107837177
 30
0.0
 10
1.298295436373324
 20
-4.773464239268921
 30
0.0
 10
1.298295436373324
 20
-4.773464239268921
 30
0.0
 10
1.311888871394709
 20
-4.777295488256805
 30
0.0
 10
1.325468672077894
 20
-4.779204295581772
 30
0.0
 10
1.338666711296203
 20
-4.779204295581772
 30
0.0
 10
1.365294573479357
 20
-4.779204295581772
 30
0.0
 10
1.390272680760139
 20
-4.771487260253758
 30
0.0
 10
1.410519672742743
 20
-4.756530391428933
 30
0.0
 10
1.437706542785248
 20
-4.736392474150711
 30
0.0
 10
1.453740524314943
 20
-4.704774444246545
 30
0.0
 10
1.454504047244856
 20
-4.669679658143498
 30
0.0
 10
1.456331048541693
 20
-4.583756059844366
 30
0.0
 10
1.371102801482417
 20
-4.555560248787174
 30
0.0
 10
1.343138774171798
 20
-4.546329801937266
 30
0.0
 10
1.343138774171798
 20
-4.546329801937266
 30
0.0
 10
-0.0550625913580613
 20
-4.081903345437619
 30
0.0
 10
-0.0550625913580613
 20
-4.081903345437619
 30
0.0
 10
-0.1246658870287926
 20
-4.060142941933009
 30
0.0
 10
-0.1878746781607737
 20
-4.088052431891507
 30
0.0
 10
-0.2087488496930266
 20
-4.149952326572285
 30
0.0
 10
-0.230604693563704
 20
-4.214592723198026
 30
0.0
 10
-0.1988639546173342
 20
-4.276438080526557
 30
0.0
 10
-0.1281426432277865
 20
-4.304402107837177
 30
0.0
  0
HATCH
  5
60
330
1F
100
AcDbEntity
  8
Layer 1
 62
     7
420
 16777215
100
AcDbHatch
 10
0.0
 20
0.0
 30
0.0
210
0.0
220
0.0
230
1.0
  2
SOLID
 70
     1
 71
     0
 91
        1
 92
        1
 93
        1
 72
     4
 94
        3
 73
     0
 74
     1
 95
       29
 96
       25
 40
0.0
 40
0.0
 40
0.0
 40
0.0
 40
1.0
 40
1.0
 40
1.0
 40
2.0
 40
2.0
 40
2.0
 40
3.0
 40
3.0
 40
3.0
 40
4.0
 40
4.0
 40
4.0
 40
5.0
 40
5.0
 40
5.0
 40
6.0
 40
6.0
 40
6.0
 40
7.0
 40
7.0
 40
7.0
 40
8.0
 40
8.0
 40
8.0
 40
8.0
 10
-0.1281426432277865
 20
-4.304402107837177
 10
-0.1281426432277865
 20
-4.304402107837177
 10
1.298295436373324
 20
-4.773464239268921
 10
1.298295436373324
 20
-4.773464239268921
 10
1.311888871394709
 20
-4.777295488256805
 10
1.325468672077894
 20
-4.779204295581772
 10
1.338666711296203
 20
-4.779204295581772
 10
1.365294573479357
 20
-4.779204295581772
 10
1.390272680760139
 20
-4.771487260253758
 10
1.410519672742743
 20
-4.756530391428933
 10
1.437706542785248
 20
-4.736392474150711
 10
1.453740524314943
 20
-4.704774444246545
 10
1.454504047244856
 20
-4.669679658143498
 10
1.456331048541693
 20
-4.583756059844366
 10
1.371102801482417
 20
-4.555560248787174
 10
1.343138774171798
 20
-4.546329801937266
 10
1.343138774171798
 20
-4.546329801937266
 10
-0.0550625913580613
 20
-4.081903345437619
 10
-0.0550625913580613
 20
-4.081903345437619
 10
-0.1246658870287926
 20
-4.060142941933009
 10
-0.1878746781607737
 20
-4.088052431891507
 10
-0.2087488496930266
 20
-4.149952326572285
 10
-0.230604693563704
 20
-4.214592723198026
 10
-0.1988639546173342
 20
-4.276438080526557
 10
-0.1281426432277865
 20
-4.304402107837177
 97
        0
 97
        0
 75
     2
 76
     1
 98
        0
  0
SPLINE
  5
61
330
1F
100
AcDbEntity
  8
Layer 1
370
     0
100
AcDbSpline
210
0.0
220
0.0
230
1.0
 70
    11
 71
     3
 72
    32
 73
    28
 74
     0
 42
0.0000000001
 43
0.0000000001
 12
1.0
 22
0.0
 32
0.0
 13
1.0
 23
0.0
 33
0.0
 40
0.0
 40
0.0
 40
0.0
 40
0.0
 40
1.0
 40
1.0
 40
1.0
 40
2.0
 40
2.0
 40
2.0
 40
3.0
 40
3.0
 40
3.0
 40
4.0
 40
4.0
 40
4.0
 40
5.0
 40
5.0
 40
5.0
 40
6.0
 40
6.0
 40
6.0
 40
7.0
 40
7.0
 40
7.0
 40
8.0
 40
8.0
 40
8.0
 40
9.0
 40
9.0
 40
9.0
 40
9.0
 10
7.862683423434898
 20
-8.383850585379731
 30
0.0
 10
7.836955831022199
 20
-8.361681151734222
 30
0.0
 10
7.807709773864947
 20
-8.340806980202109
 30
0.0
 10
7.768429246977272
 20
-8.338366433693661
 30
0.0
 10
7.768429246977272
 20
-8.338366433693661
 30
0.0
 10
7.76739303731276
 20
-8.338311896341667
 30
0.0
 10
7.76739303731276
 20
-8.338311896341667
 30
0.0
 10
7.723245451807012
 20
-8.339293568680205
 30
0.0
 10
7.681851202639664
 20
-8.364298944636857
 30
0.0
 10
7.663431212419153
 20
-8.405897309983049
 30
0.0
 10
7.645583864381706
 20
-8.446214047553541
 30
0.0
 10
7.654309840503906
 20
-8.490484743154614
 30
0.0
 10
7.686745929870717
 20
-8.52431153582054
 30
0.0
 10
7.956938005733693
 20
-8.806269646392415
 30
0.0
 10
8.852945369929582
 20
-9.53049841415648
 30
0.0
 10
8.863880108757737
 20
-9.539197121823083
 30
0.0
 10
8.883404480331187
 20
-9.552545138759797
 30
0.0
 10
8.905123980272895
 20
-9.558980546312643
 30
0.0
 10
8.92659806213616
 20
-9.558980546312643
 30
0.0
 10
8.95844787498226
 20
-9.558980546312643
 30
0.0
 10
8.989656873956871
 20
-9.54470539438959
 30
0.0
 10
9.011963082912668
 20
-9.517382180966452
 30
0.0
 10
9.046225741036677
 20
-9.475374785479618
 30
0.0
 10
9.043880634953842
 20
-9.41944673085815
 30
0.0
 10
9.002854912841737
 20
-9.371644741706328
 30
0.0
 10
9.002854912841737
 20
-9.371644741706328
 30
0.0
 10
7.862683423434898
 20
-8.383850585379731
 30
0.0
 10
7.862683423434898
 20
-8.383850585379731
 30
0.0
  0
HATCH
  5
62
330
1F
100
AcDbEntity
  8
Layer 1
 62
     7
420
 16777215
100
AcDbHatch
 10
0.0
 20
0.0
 30
0.0
210
0.0
220
0.0
230
1.0
  2
SOLID
 70
     1
 71
     0
 91
        1
 92
        1
 93
        1
 72
     4
 94
        3
 73
     0
 74
     1
 95
       32
 96
       28
 40
0.0
 40
0.0
 40
0.0
 40
0.0
 40
1.0
 40
1.0
 40
1.0
 40
2.0
 40
2.0
 40
2.0
 40
3.0
 40
3.0
 40
3.0
 40
4.0
 40
4.0
 40
4.0
 40
5.0
 40
5.0
 40
5.0
 40
6.0
 40
6.0
 40
6.0
 40
7.0
 40
7.0
 40
7.0
 40
8.0
 40
8.0
 40
8.0
 40
9.0
 40
9.0
 40
9.0
 40
9.0
 10
7.862683423434898
 20
-8.383850585379731
 10
7.836955831022199
 20
-8.361681151734222
 10
7.807709773864947
 20
-8.340806980202109
 10
7.768429246977272
 20
-8.338366433693661
 10
7.768429246977272
 20
-8.338366433693661
 10
7.76739303731276
 20
-8.338311896341667
 10
7.76739303731276
 20
-8.338311896341667
 10
7.723245451807012
 20
-8.339293568680205
 10
7.681851202639664
 20
-8.364298944636857
 10
7.663431212419153
 20
-8.405897309983049
 10
7.645583864381706
 20
-8.446214047553541
 10
7.654309840503906
 20
-8.490484743154614
 10
7.686745929870717
 20
-8.52431153582054
 10
7.956938005733693
 20
-8.806269646392415
 10
8.852945369929582
 20
-9.53049841415648
 10
8.863880108757737
 20
-9.539197121823083
 10
8.883404480331187
 20
-9.552545138759797
 10
8.905123980272895
 20
-9.558980546312643
 10
8.92659806213616
 20
-9.558980546312643
 10
8.95844787498226
 20
-9.558980546312643
 10
8.989656873956871
 20
-9.54470539438959
 10
9.011963082912668
 20
-9.517382180966452
 10
9.046225741036677
 20
-9.475374785479618
 10
9.043880634953842
 20
-9.41944673085815
 10
9.002854912841737
 20
-9.371644741706328
 10
9.002854912841737
 20
-9.371644741706328
 10
7.862683423434898
 20
-8.383850585379731
 10
7.862683423434898
 20
-8.383850585379731
 97
        0
 97
        0
 75
     2
 76
     1
 98
        0
  0
SPLINE
  5
63
330
1F
100
AcDbEntity
  8
Layer 1
370
     0
100
AcDbSpline
210
0.0
220
0.0
230
1.0
 70
    11
 71
     3
 72
    26
 73
    22
 74
     0
 42
0.0000000001
 43
0.0000000001
 12
1.0
 22
0.0
 32
0.0
 13
1.0
 23
0.0
 33
0.0
 40
0.0
 40
0.0
 40
0.0
 40
0.0
 40
1.0
 40
1.0
 40
1.0
 40
2.0
 40
2.0
 40
2.0
 40
3.0
 40
3.0
 40
3.0
 40
4.0
 40
4.0
 40
4.0
 40
5.0
 40
5.0
 40
5.0
 40
6.0
 40
6.0
 40
6.0
 40
7.0
 40
7.0
 40
7.0
 40
7.0
 10
4.12703881725305
 20
-2.037570700410293
 30
0.0
 10
4.140795864330698
 20
-2.094534964722205
 30
0.0
 10
4.184562089424313
 20
-2.130447811107413
 30
0.0
 10
4.237122462550789
 20
-2.130447811107413
 30
0.0
 10
4.243857825540267
 20
-2.130447811107413
 30
0.0
 10
4.25072953191011
 20
-2.129820631557752
 30
0.0
 10
4.257723947322297
 20
-2.128593541134579
 30
0.0
 10
4.3154244658881
 20
-2.118613205692681
 30
0.0
 10
4.353368828640606
 20
-2.067620781440332
 30
0.0
 10
4.351541827343882
 20
-1.996258656163061
 30
0.0
 10
4.351541827343882
 20
-1.996258656163061
 30
0.0
 10
4.06153945733096
 20
-0.6043836234816555
 30
0.0
 10
4.06153945733096
 20
-0.6043836234816555
 30
0.0
 10
4.0451782516885
 20
-0.5372481429953571
 30
0.0
 10
3.987218680699975
 20
-0.4997809820740713
 30
0.0
 10
3.923723568469187
 20
-0.5152695900823624
 30
0.0
 10
3.86275080877494
 20
-0.530117384202817
 30
0.0
 10
3.82880130706672
 20
-0.5861681478663487
 30
0.0
 10
3.839599702790767
 20
-0.6562486453683
 30
0.0
 10
3.839599702790767
 20
-0.6562486453683
 30
0.0
 10
4.12703881725305
 20
-2.037570700410293
 30
0.0
 10
4.12703881725305
 20
-2.037570700410293
 30
0.0
  0
HATCH
  5
64
330
1F
100
AcDbEntity
  8
Layer 1
 62
     7
420
 16777215
100
AcDbHatch
 10
0.0
 20
0.0
 30
0.0
210
0.0
220
0.0
230
1.0
  2
SOLID
 70
     1
 71
     0
 91
        1
 92
        1
 93
        1
 72
     4
 94
        3
 73
     0
 74
     1
 95
       26
 96
       22
 40
0.0
 40
0.0
 40
0.0
 40
0.0
 40
1.0
 40
1.0
 40
1.0
 40
2.0
 40
2.0
 40
2.0
 40
3.0
 40
3.0
 40
3.0
 40
4.0
 40
4.0
 40
4.0
 40
5.0
 40
5.0
 40
5.0
 40
6.0
 40
6.0
 40
6.0
 40
7.0
 40
7.0
 40
7.0
 40
7.0
 10
4.12703881725305
 20
-2.037570700410293
 10
4.140795864330698
 20
-2.094534964722205
 10
4.184562089424313
 20
-2.130447811107413
 10
4.237122462550789
 20
-2.130447811107413
 10
4.243857825540267
 20
-2.130447811107413
 10
4.25072953191011
 20
-2.129820631557752
 10
4.257723947322297
 20
-2.128593541134579
 10
4.3154244658881
 20
-2.118613205692681
 10
4.353368828640606
 20
-2.067620781440332
 10
4.351541827343882
 20
-1.996258656163061
 10
4.351541827343882
 20
-1.996258656163061
 10
4.06153945733096
 20
-0.6043836234816555
 10
4.06153945733096
 20
-0.6043836234816555
 10
4.0451782516885
 20
-0.5372481429953571
 10
3.987218680699975
 20
-0.4997809820740713
 10
3.923723568469187
 20
-0.5152695900823624
 10
3.86275080877494
 20
-0.530117384202817
 10
3.82880130706672
 20
-0.5861681478663487
 10
3.839599702790767
 20
-0.6562486453683
 10
3.839599702790767
 20
-0.6562486453683
 10
4.12703881725305
 20
-2.037570700410293
 10
4.12703881725305
 20
-2.037570700410293
 97
        0
 97
        0
 75
     2
 76
     1
 98
        0
  0
SPLINE
  5
65
330
1F
100
AcDbEntity
  8
Layer 1
370
     0
100
AcDbSpline
210
0.0
220
0.0
230
1.0
 70
    11
 71
     3
 72
    26
 73
    22
 74
     0
 42
0.0000000001
 43
0.0000000001
 12
1.0
 22
0.0
 32
0.0
 13
1.0
 23
0.0
 33
0.0
 40
0.0
 40
0.0
 40
0.0
 40
0.0
 40
1.0
 40
1.0
 40
1.0
 40
2.0
 40
2.0
 40
2.0
 40
3.0
 40
3.0
 40
3.0
 40
4.0
 40
4.0
 40
4.0
 40
5.0
 40
5.0
 40
5.0
 40
6.0
 40
6.0
 40
6.0
 40
7.0
 40
7.0
 40
7.0
 40
7.0
 10
4.201414131236157
 20
-9.313630633365543
 30
0.0
 10
4.139050669062233
 20
-9.298837376597122
 30
0.0
 10
4.083586181934152
 20
-9.333700378953582
 30
0.0
 10
4.062466592317378
 20
-9.403603630060944
 30
0.0
 10
4.062466592317378
 20
-9.403603630060944
 30
0.0
 10
3.814158028016714
 20
-10.79096569685281
 30
0.0
 10
3.814158028016714
 20
-10.79096569685281
 30
0.0
 10
3.812249220691733
 20
-10.86765884830192
 30
0.0
 10
3.851638823276062
 20
-10.92139177449937
 30
0.0
 10
3.91458856198546
 20
-10.92782718205192
 30
0.0
 10
3.918965184494873
 20
-10.92829074954534
 30
0.0
 10
3.923260000976029
 20
-10.92852253329203
 30
0.0
 10
3.927486645767001
 20
-10.92852253329203
 30
0.0
 10
3.985514388445583
 20
-10.92852253329203
 30
0.0
 10
4.029716912356333
 20
-10.88686963059384
 30
0.0
 10
4.041810570193775
 20
-10.81916150791001
 30
0.0
 10
4.041810570193775
 20
-10.81916150791001
 30
0.0
 10
4.284815376998608
 20
-9.447997034704207
 30
0.0
 10
4.284815376998608
 20
-9.447997034704207
 30
0.0
 10
4.295286548609763
 20
-9.381856860894787
 30
0.0
 10
4.261759711380742
 20
-9.327837613598401
 30
0.0
 10
4.201414131236157
 20
-9.313630633365543
 30
0.0
  0
HATCH
  5
66
330
1F
100
AcDbEntity
  8
Layer 1
 62
     7
420
 16777215
100
AcDbHatch
 10
0.0
 20
0.0
 30
0.0
210
0.0
220
0.0
230
1.0
  2
SOLID
 70
     1
 71
     0
 91
        1
 92
        1
 93
        1
 72
     4
 94
        3
 73
     0
 74
     1
 95
       26
 96
       22
 40
0.0
 40
0.0
 40
0.0
 40
0.0
 40
1.0
 40
1.0
 40
1.0
 40
2.0
 40
2.0
 40
2.0
 40
3.0
 40
3.0
 40
3.0
 40
4.0
 40
4.0
 40
4.0
 40
5.0
 40
5.0
 40
5.0
 40
6.0
 40
6.0
 40
6.0
 40
7.0
 40
7.0
 40
7.0
 40
7.0
 10
4.201414131236157
 20
-9.313630633365543
 10
4.139050669062233
 20
-9.298837376597122
 10
4.083586181934152
 20
-9.333700378953582
 10
4.062466592317378
 20
-9.403603630060944
 10
4.062466592317378
 20
-9.403603630060944
 10
3.814158028016714
 20
-10.79096569685281
 10
3.814158028016714
 20
-10.79096569685281
 10
3.812249220691733
 20
-10.86765884830192
 10
3.851638823276062
 20
-10.92139177449937
 10
3.91458856198546
 20
-10.92782718205192
 10
3.918965184494873
 20
-10.92829074954534
 10
3.923260000976029
 20
-10.92852253329203
 10
3.927486645767001
 20
-10.92852253329203
 10
3.985514388445583
 20
-10.92852253329203
 10
4.029716912356333
 20
-10.88686963059384
 10
4.041810570193775
 20
-10.81916150791001
 10
4.041810570193775
 20
-10.81916150791001
 10
4.284815376998608
 20
-9.447997034704207
 10
4.284815376998608
 20
-9.447997034704207
 10
4.295286548609763
 20
-9.381856860894787
 10
4.261759711380742
 20
-9.327837613598401
 10
4.201414131236157
 20
-9.313630633365543
 97
        0
 97
        0
 75
     2
 76
     1
 98
        0
  0
SPLINE
  5
67
330
1F
100
AcDbEntity
  8
Layer 1
370
     0
100
AcDbSpline
210
0.0
220
0.0
230
1.0
 70
    11
 71
     3
 72
    29
 73
    25
 74
     0
 42
0.0000000001
 43
0.0000000001
 12
1.0
 22
0.0
 32
0.0
 13
1.0
 23
0.0
 33
0.0
 40
0.0
 40
0.0
 40
0.0
 40
0.0
 40
1.0
 40
1.0
 40
1.0
 40
2.0
 40
2.0
 40
2.0
 40
3.0
 40
3.0
 40
3.0
 40
4.0
 40
4.0
 40
4.0
 40
5.0
 40
5.0
 40
5.0
 40
6.0
 40
6.0
 40
6.0
 40
7.0
 40
7.0
 40
7.0
 40
8.0
 40
8.0
 40
8.0
 40
8.0
 10
1.520207922237521
 20
-7.220377983467237
 30
0.0
 10
1.521162325899948
 20
-7.186782974548022
 30
0.0
 10
1.50726893544192
 20
-7.154769548841133
 30
0.0
 10
1.482031775738329
 20
-7.132600115195373
 30
0.0
 10
1.456440123245961
 20
-7.110144360451159
 30
0.0
 10
1.422381546833473
 20
-7.100286734051602
 30
0.0
 10
1.388213895716844
 20
-7.105740469265633
 30
0.0
 10
1.388213895716844
 20
-7.105740469265633
 30
0.0
 10
0.1503387111452462
 20
-7.599467118203342
 30
0.0
 10
0.1503387111452462
 20
-7.599467118203342
 30
0.0
 10
0.0688326383695868
 20
-7.63265309698166
 30
0.0
 10
0.0350331143797828
 20
-7.691471631266268
 30
0.0
 10
0.0599566843085692
 20
-7.756861916483861
 30
0.0
 10
0.0691734968205411
 20
-7.781049232158718
 30
0.0
 10
0.0953377915104233
 20
-7.826601555534984
 30
0.0
 10
0.161682480390684
 20
-7.826601555534984
 30
0.0
 10
0.1827748013314603
 20
-7.826601555534984
 30
0.0
 10
0.2079165206686058
 20
-7.822020417955248
 30
0.0
 10
0.2378847956705259
 20
-7.810649380033787
 30
0.0
 10
0.2378847956705259
 20
-7.810649380033787
 30
0.0
 10
1.423458659538331
 20
-7.334551930175671
 30
0.0
 10
1.423458659538331
 20
-7.334551930175671
 30
0.0
 10
1.453999576737639
 20
-7.322021973521234
 30
0.0
 10
1.517562860658636
 20
-7.295857678831099
 30
0.0
 10
1.520207922237521
 20
-7.220377983467237
 30
0.0
  0
HATCH
  5
68
330
1F
100
AcDbEntity
  8
Layer 1
 62
     7
420
 16777215
100
AcDbHatch
 10
0.0
 20
0.0
 30
0.0
210
0.0
220
0.0
230
1.0
  2
SOLID
 70
     1
 71
     0
 91
        1
 92
        1
 93
        1
 72
     4
 94
        3
 73
     0
 74
     1
 95
       29
 96
       25
 40
0.0
 40
0.0
 40
0.0
 40
0.0
 40
1.0
 40
1.0
 40
1.0
 40
2.0
 40
2.0
 40
2.0
 40
3.0
 40
3.0
 40
3.0
 40
4.0
 40
4.0
 40
4.0
 40
5.0
 40
5.0
 40
5.0
 40
6.0
 40
6.0
 40
6.0
 40
7.0
 40
7.0
 40
7.0
 40
8.0
 40
8.0
 40
8.0
 40
8.0
 10
1.520207922237521
 20
-7.220377983467237
 10
1.521162325899948
 20
-7.186782974548022
 10
1.50726893544192
 20
-7.154769548841133
 10
1.482031775738329
 20
-7.132600115195373
 10
1.456440123245961
 20
-7.110144360451159
 10
1.422381546833473
 20
-7.100286734051602
 10
1.388213895716844
 20
-7.105740469265633
 10
1.388213895716844
 20
-7.105740469265633
 10
0.1503387111452462
 20
-7.599467118203342
 10
0.1503387111452462
 20
-7.599467118203342
 10
0.0688326383695868
 20
-7.63265309698166
 10
0.0350331143797828
 20
-7.691471631266268
 10
0.0599566843085692
 20
-7.756861916483861
 10
0.0691734968205411
 20
-7.781049232158718
 10
0.0953377915104233
 20
-7.826601555534984
 10
0.161682480390684
 20
-7.826601555534984
 10
0.1827748013314603
 20
-7.826601555534984
 10
0.2079165206686058
 20
-7.822020417955248
 10
0.2378847956705259
 20
-7.810649380033787
 10
0.2378847956705259
 20
-7.810649380033787
 10
1.423458659538331
 20
-7.334551930175671
 10
1.423458659538331
 20
-7.334551930175671
 10
1.453999576737639
 20
-7.322021973521234
 10
1.517562860658636
 20
-7.295857678831099
 10
1.520207922237521
 20
-7.220377983467237
 97
        0
 97
        0
 75
     2
 76
     1
 98
        0
  0
SPLINE
  5
69
330
1F
100
AcDbEntity
  8
Layer 1
370
     0
100
AcDbSpline
210
0.0
220
0.0
230
1.0
 70
    11
 71
     3
 72
    32
 73
    28
 74
     0
 42
0.0000000001
 43
0.0000000001
 12
1.0
 22
0.0
 32
0.0
 13
1.0
 23
0.0
 33
0.0
 40
0.0
 40
0.0
 40
0.0
 40
0.0
 40
1.0
 40
1.0
 40
1.0
 40
2.0
 40
2.0
 40
2.0
 40
3.0
 40
3.0
 40
3.0
 40
4.0
 40
4.0
 40
4.0
 40
5.0
 40
5.0
 40
5.0
 40
6.0
 40
6.0
 40
6.0
 40
7.0
 40
7.0
 40
7.0
 40
8.0
 40
8.0
 40
8.0
 40
9.0
 40
9.0
 40
9.0
 40
9.0
 10
8.123290154059987
 20
-3.365800643142456
 30
0.0
 10
8.150122530635802
 20
-3.365800643142456
 30
0.0
 10
8.183335777250981
 20
-3.356147531813475
 30
0.0
 10
8.223284386685513
 20
-3.328442556925552
 30
0.0
 10
8.483741139595976
 20
-3.147787577956579
 30
0.0
 10
9.262302724763078
 20
-2.601841414343224
 30
0.0
 10
9.262302724763078
 20
-2.601841414343224
 30
0.0
 10
9.285085703044665
 20
-2.585998313546042
 30
0.0
 10
9.332451392183076
 20
-2.552989581162415
 30
0.0
 10
9.332396854832318
 20
-2.490217088847456
 30
0.0
 10
9.332396854832318
 20
-2.454713272603284
 30
0.0
 10
9.316321970694666
 20
-2.422099936022606
 30
0.0
 10
9.288276138064349
 20
-2.400748562659146
 30
0.0
 10
9.260108035156817
 20
-2.379288114591418
 30
0.0
 10
9.224249726123743
 20
-2.372443676897698
 30
0.0
 10
9.189754850894234
 20
-2.382069519550694
 30
0.0
 10
9.189754850894234
 20
-2.382069519550694
 30
0.0
 10
8.089504265261768
 20
-3.141856640911101
 30
0.0
 10
8.089504265261768
 20
-3.141856640911101
 30
0.0
 10
8.047646848550508
 20
-3.171443154447969
 30
0.0
 10
8.023391361798303
 20
-3.204574595873914
 30
0.0
 10
8.01744679056502
 20
-3.240255658512549
 30
0.0
 10
8.012865653100864
 20
-3.267810655682145
 30
0.0
 10
8.019914605687113
 20
-3.295488361893932
 30
0.0
 10
8.037802856737647
 20
-3.320261954104252
 30
0.0
 10
8.050223738374118
 20
-3.337427585690825
 30
0.0
 10
8.077628757132945
 20
-3.365800643142456
 30
0.0
 10
8.123290154059987
 20
-3.365800643142456
 30
0.0
  0
HATCH
  5
6A
330
1F
100
AcDbEntity
  8
Layer 1
 62
     7
420
 16777215
100
AcDbHatch
 10
0.0
 20
0.0
 30
0.0
210
0.0
220
0.0
230
1.0
  2
SOLID
 70
     1
 71
     0
 91
        1
 92
        1
 93
        1
 72
     4
 94
        3
 73
     0
 74
     1
 95
       32
 96
       28
 40
0.0
 40
0.0
 40
0.0
 40
0.0
 40
1.0
 40
1.0
 40
1.0
 40
2.0
 40
2.0
 40
2.0
 40
3.0
 40
3.0
 40
3.0
 40
4.0
 40
4.0
 40
4.0
 40
5.0
 40
5.0
 40
5.0
 40
6.0
 40
6.0
 40
6.0
 40
7.0
 40
7.0
 40
7.0
 40
8.0
 40
8.0
 40
8.0
 40
9.0
 40
9.0
 40
9.0
 40
9.0
 10
8.123290154059987
 20
-3.365800643142456
 10
8.150122530635802
 20
-3.365800643142456
 10
8.183335777250981
 20
-3.356147531813475
 10
8.223284386685513
 20
-3.328442556925552
 10
8.483741139595976
 20
-3.147787577956579
 10
9.262302724763078
 20
-2.601841414343224
 10
9.262302724763078
 20
-2.601841414343224
 10
9.285085703044665
 20
-2.585998313546042
 10
9.332451392183076
 20
-2.552989581162415
 10
9.332396854832318
 20
-2.490217088847456
 10
9.332396854832318
 20
-2.454713272603284
 10
9.316321970694666
 20
-2.422099936022606
 10
9.288276138064349
 20
-2.400748562659146
 10
9.260108035156817
 20
-2.379288114591418
 10
9.224249726123743
 20
-2.372443676897698
 10
9.189754850894234
 20
-2.382069519550694
 10
9.189754850894234
 20
-2.382069519550694
 10
8.089504265261768
 20
-3.141856640911101
 10
8.089504265261768
 20
-3.141856640911101
 10
8.047646848550508
 20
-3.171443154447969
 10
8.023391361798303
 20
-3.204574595873914
 10
8.01744679056502
 20
-3.240255658512549
 10
8.012865653100864
 20
-3.267810655682145
 10
8.019914605687113
 20
-3.295488361893932
 10
8.037802856737647
 20
-3.320261954104252
 10
8.050223738374118
 20
-3.337427585690825
 10
8.077628757132945
 20
-3.365800643142456
 10
8.123290154059987
 20
-3.365800643142456
 97
        0
 97
        0
 75
     2
 76
     1
 98
        0
  0
SPLINE
  5
6B
330
1F
100
AcDbEntity
  8
Layer 1
370
     0
100
AcDbSpline
210
0.0
220
0.0
230
1.0
 70
    11
 71
     3
 72
    26
 73
    22
 74
     0
 42
0.0000000001
 43
0.0000000001
 12
1.0
 22
0.0
 32
0.0
 13
1.0
 23
0.0
 33
0.0
 40
0.0
 40
0.0
 40
0.0
 40
0.0
 40
1.0
 40
1.0
 40
1.0
 40
2.0
 40
2.0
 40
2.0
 40
3.0
 40
3.0
 40
3.0
 40
4.0
 40
4.0
 40
4.0
 40
5.0
 40
5.0
 40
5.0
 40
6.0
 40
6.0
 40
6.0
 40
7.0
 40
7.0
 40
7.0
 40
7.0
 10
5.600201426996439
 20
-2.108578332898674
 30
0.0
 10
5.606091460878929
 20
-2.109396393180835
 30
0.0
 10
5.611831863645648
 20
-2.109805423321859
 30
0.0
 10
5.61748976718857
 20
-2.109805423321859
 30
0.0
 10
5.670745490209482
 20
-2.109805423321859
 30
0.0
 10
5.712466563543836
 20
-2.075051495669653
 30
0.0
 10
5.728827768772981
 20
-2.013901489580841
 30
0.0
 10
5.728827768772981
 20
-2.013901489580841
 30
0.0
 10
5.903170044827334
 20
-1.027838894185025
 30
0.0
 10
5.903170044827334
 20
-1.027838894185025
 30
0.0
 10
5.910300803439705
 20
-0.9674524110262533
 30
0.0
 10
5.871947411515028
 20
-0.914946575251886
 30
0.0
 10
5.812024497363242
 20
-0.9029347234427152
 30
0.0
 10
5.755278383893457
 20
-0.8918500066199613
 30
0.0
 10
5.701790877131796
 20
-0.9254995528912988
 30
0.0
 10
5.682348311584493
 20
-0.9857224239936815
 30
0.0
 10
5.682348311584493
 20
-0.9857224239936815
 30
0.0
 10
5.504475085954911
 20
-1.97508452919404
 30
0.0
 10
5.504475085954911
 20
-1.97508452919404
 30
0.0
 10
5.501952733418344
 20
-2.049228059430587
 30
0.0
 10
5.538642392321738
 20
-2.100397730077374
 30
0.0
 10
5.600201426996439
 20
-2.108578332898674
 30
0.0
  0
HATCH
  5
6C
330
1F
100
AcDbEntity
  8
Layer 1
 62
     7
420
 16777215
100
AcDbHatch
 10
0.0
 20
0.0
 30
0.0
210
0.0
220
0.0
230
1.0
  2
SOLID
 70
     1
 71
     0
 91
        1
 92
        1
 93
        1
 72
     4
 94
        3
 73
     0
 74
     1
 95
       26
 96
       22
 40
0.0
 40
0.0
 40
0.0
 40
0.0
 40
1.0
 40
1.0
 40
1.0
 40
2.0
 40
2.0
 40
2.0
 40
3.0
 40
3.0
 40
3.0
 40
4.0
 40
4.0
 40
4.0
 40
5.0
 40
5.0
 40
5.0
 40
6.0
 40
6.0
 40
6.0
 40
7.0
 40
7.0
 40
7.0
 40
7.0
 10
5.600201426996439
 20
-2.108578332898674
 10
5.606091460878929
 20
-2.109396393180835
 10
5.611831863645648
 20
-2.109805423321859
 10
5.61748976718857
 20
-2.109805423321859
 10
5.670745490209482
 20
-2.109805423321859
 10
5.712466563543836
 20
-2.075051495669653
 10
5.728827768772981
 20
-2.013901489580841
 10
5.728827768772981
 20
-2.013901489580841
 10
5.903170044827334
 20
-1.027838894185025
 10
5.903170044827334
 20
-1.027838894185025
 10
5.910300803439705
 20
-0.9674524110262533
 10
5.871947411515028
 20
-0.914946575251886
 10
5.812024497363242
 20
-0.9029347234427152
 10
5.755278383893457
 20
-0.8918500066199613
 10
5.701790877131796
 20
-0.9254995528912988
 10
5.682348311584493
 20
-0.9857224239936815
 10
5.682348311584493
 20
-0.9857224239936815
 10
5.504475085954911
 20
-1.97508452919404
 10
5.504475085954911
 20
-1.97508452919404
 10
5.501952733418344
 20
-2.049228059430587
 10
5.538642392321738
 20
-2.100397730077374
 10
5.600201426996439
 20
-2.108578332898674
 97
        0
 97
        0
 75
     2
 76
     1
 98
        0
  0
SPLINE
  5
6D
330
1F
100
AcDbEntity
  8
Layer 1
370
     0
100
AcDbSpline
210
0.0
220
0.0
230
1.0
 70
    11
 71
     3
 72
    35
 73
    31
 74
     0
 42
0.0000000001
 43
0.0000000001
 12
1.0
 22
0.0
 32
0.0
 13
1.0
 23
0.0
 33
0.0
 40
0.0
 40
0.0
 40
0.0
 40
0.0
 40
1.0
 40
1.0
 40
1.0
 40
2.0
 40
2.0
 40
2.0
 40
3.0
 40
3.0
 40
3.0
 40
4.0
 40
4.0
 40
4.0
 40
5.0
 40
5.0
 40
5.0
 40
6.0
 40
6.0
 40
6.0
 40
7.0
 40
7.0
 40
7.0
 40
8.0
 40
8.0
 40
8.0
 40
9.0
 40
9.0
 40
9.0
 40
10.0
 40
10.0
 40
10.0
 40
10.0
 10
1.819249858367837
 20
-3.560280840879386
 30
0.0
 10
1.839728634097014
 20
-3.575305881394393
 30
0.0
 10
1.862211657517352
 20
-3.58284567032797
 30
0.0
 10
1.884953733360387
 20
-3.58284567032797
 30
0.0
 10
1.905091650638724
 20
-3.58284567032797
 30
0.0
 10
1.925420448649447
 20
-3.576928367620667
 30
0.0
 10
1.944713036969498
 20
-3.565039224853687
 30
0.0
 10
1.980625883354706
 20
-3.542924328560313
 30
0.0
 10
1.999277657787161
 20
-3.508756677443696
 30
0.0
 10
1.998691381251698
 20
-3.466353886153532
 30
0.0
 10
1.997914223983596
 20
-3.409430524855805
 30
0.0
 10
1.959097263596921
 20
-3.37955769022023
 30
0.0
 10
1.924411507634773
 20
-3.352861656346855
 30
0.0
 10
1.924411507634773
 20
-3.352861656346855
 30
0.0
 10
1.162442892188639
 20
-2.768234875727204
 30
0.0
 10
1.162442892188639
 20
-2.768234875727204
 30
0.0
 10
1.162442892188639
 20
-2.768234875727204
 30
0.0
 10
1.156498320805213
 20
-2.764689947838026
 30
0.0
 10
1.156498320805213
 20
-2.764689947838026
 30
0.0
 10
1.103324402467251
 20
-2.740843490614123
 30
0.0
 10
1.052877351736293
 20
-2.752746267718925
 30
0.0
 10
1.018218864450281
 20
-2.797235112728508
 30
0.0
 10
1.018218864450281
 20
-2.797235112728508
 30
0.0
 10
1.018177961436221
 20
-2.797235112728508
 30
0.0
 10
1.018177961436221
 20
-2.797235112728508
 30
0.0
 10
0.9839557729673439
 20
-2.841219487230622
 30
0.0
 10
0.9847056615593222
 20
-2.894366136892586
 30
0.0
 10
1.020236746479516
 20
-2.939441258437632
 30
0.0
 10
1.020236746479516
 20
-2.939441258437632
 30
0.0
 10
1.819249858367837
 20
-3.560280840879386
 30
0.0
 10
1.819249858367837
 20
-3.560280840879386
 30
0.0
  0
HATCH
  5
6E
330
1F
100
AcDbEntity
  8
Layer 1
 62
     7
420
 16777215
100
AcDbHatch
 10
0.0
 20
0.0
 30
0.0
210
0.0
220
0.0
230
1.0
  2
SOLID
 70
     1
 71
     0
 91
        1
 92
        1
 93
        1
 72
     4
 94
        3
 73
     0
 74
     1
 95
       35
 96
       31
 40
0.0
 40
0.0
 40
0.0
 40
0.0
 40
1.0
 40
1.0
 40
1.0
 40
2.0
 40
2.0
 40
2.0
 40
3.0
 40
3.0
 40
3.0
 40
4.0
 40
4.0
 40
4.0
 40
5.0
 40
5.0
 40
5.0
 40
6.0
 40
6.0
 40
6.0
 40
7.0
 40
7.0
 40
7.0
 40
8.0
 40
8.0
 40
8.0
 40
9.0
 40
9.0
 40
9.0
 40
10.0
 40
10.0
 40
10.0
 40
10.0
 10
1.819249858367837
 20
-3.560280840879386
 10
1.839728634097014
 20
-3.575305881394393
 10
1.862211657517352
 20
-3.58284567032797
 10
1.884953733360387
 20
-3.58284567032797
 10
1.905091650638724
 20
-3.58284567032797
 10
1.925420448649447
 20
-3.576928367620667
 10
1.944713036969498
 20
-3.565039224853687
 10
1.980625883354706
 20
-3.542924328560313
 10
1.999277657787161
 20
-3.508756677443696
 10
1.998691381251698
 20
-3.466353886153532
 10
1.997914223983596
 20
-3.409430524855805
 10
1.959097263596921
 20
-3.37955769022023
 10
1.924411507634773
 20
-3.352861656346855
 10
1.924411507634773
 20
-3.352861656346855
 10
1.162442892188639
 20
-2.768234875727204
 10
1.162442892188639
 20
-2.768234875727204
 10
1.162442892188639
 20
-2.768234875727204
 10
1.156498320805213
 20
-2.764689947838026
 10
1.156498320805213
 20
-2.764689947838026
 10
1.103324402467251
 20
-2.740843490614123
 10
1.052877351736293
 20
-2.752746267718925
 10
1.018218864450281
 20
-2.797235112728508
 10
1.018218864450281
 20
-2.797235112728508
 10
1.018177961436221
 20
-2.797235112728508
 10
1.018177961436221
 20
-2.797235112728508
 10
0.9839557729673439
 20
-2.841219487230622
 10
0.9847056615593222
 20
-2.894366136892586
 10
1.020236746479516
 20
-2.939441258437632
 10
1.020236746479516
 20
-2.939441258437632
 10
1.819249858367837
 20
-3.560280840879386
 10
1.819249858367837
 20
-3.560280840879386
 97
        0
 97
        0
 75
     2
 76
     1
 98
        0
  0
SPLINE
  5
6F
330
1F
100
AcDbEntity
  8
Layer 1
370
     0
100
AcDbSpline
210
0.0
220
0.0
230
1.0
 70
    11
 71
     3
 72
    32
 73
    28
 74
     0
 42
0.0000000001
 43
0.0000000001
 12
1.0
 22
0.0
 32
0.0
 13
1.0
 23
0.0
 33
0.0
 40
0.0
 40
0.0
 40
0.0
 40
0.0
 40
1.0
 40
1.0
 40
1.0
 40
2.0
 40
2.0
 40
2.0
 40
3.0
 40
3.0
 40
3.0
 40
4.0
 40
4.0
 40
4.0
 40
5.0
 40
5.0
 40
5.0
 40
6.0
 40
6.0
 40
6.0
 40
7.0
 40
7.0
 40
7.0
 40
8.0
 40
8.0
 40
8.0
 40
9.0
 40
9.0
 40
9.0
 40
9.0
 10
8.646985064769877
 20
-4.488656552047574
 30
0.0
 10
8.63909078324683
 20
-4.52474664482722
 30
0.0
 10
8.650325477504186
 20
-4.561177596057834
 30
0.0
 10
8.67775776493838
 20
-4.588568981170915
 30
0.0
 10
8.704249283071931
 20
-4.615019596959528
 30
0.0
 10
8.733344959704457
 20
-4.622559385893092
 30
0.0
 10
8.75843214105584
 20
-4.622559385893092
 30
0.0
 10
8.783560225420262
 20
-4.622559385893092
 30
0.0
 10
8.804638911490503
 20
-4.615019596959528
 30
0.0
 10
8.815028276811011
 20
-4.611311057013962
 30
0.0
 10
8.815028276811011
 20
-4.611311057013962
 30
0.0
 10
9.535658006852271
 20
-4.357085190005983
 30
0.0
 10
9.535658006852271
 20
-4.357085190005983
 30
0.0
 10
9.558345099046972
 20
-4.349190908283516
 30
0.0
 10
9.62729394475016
 20
-4.32505812996078
 30
0.0
 10
9.633497568399536
 20
-4.241915936620924
 30
0.0
 10
9.63408384492027
 20
-4.204898708854848
 30
0.0
 10
9.617722639691111
 20
-4.17148094633007
 30
0.0
 10
9.588626963058585
 20
-4.150252282009053
 30
0.0
 10
9.556858956238658
 20
-4.127101176024881
 30
0.0
 10
9.515083345553547
 20
-4.121701978162845
 30
0.0
 10
9.474303485692872
 20
-4.135568099944875
 30
0.0
 10
9.474303485692872
 20
-4.135568099944875
 30
0.0
 10
8.732322809806647
 20
-4.397742786027556
 30
0.0
 10
8.732322809806647
 20
-4.397742786027556
 30
0.0
 10
8.687738524430996
 20
-4.414226700712334
 30
0.0
 10
8.655861018606704
 20
-4.448217105434511
 30
0.0
 10
8.646985064769877
 20
-4.488656552047574
 30
0.0
  0
HATCH
  5
70
330
1F
100
AcDbEntity
  8
Layer 1
 62
     7
420
 16777215
100
AcDbHatch
 10
0.0
 20
0.0
 30
0.0
210
0.0
220
0.0
230
1.0
  2
SOLID
 70
     1
 71
     0
 91
        1
 92
        1
 93
        1
 72
     4
 94
        3
 73
     0
 74
     1
 95
       32
 96
       28
 40
0.0
 40
0.0
 40
0.0
 40
0.0
 40
1.0
 40
1.0
 40
1.0
 40
2.0
 40
2.0
 40
2.0
 40
3.0
 40
3.0
 40
3.0
 40
4.0
 40
4.0
 40
4.0
 40
5.0
 40
5.0
 40
5.0
 40
6.0
 40
6.0
 40
6.0
 40
7.0
 40
7.0
 40
7.0
 40
8.0
 40
8.0
 40
8.0
 40
9.0
 40
9.0
 40
9.0
 40
9.0
 10
8.646985064769877
 20
-4.488656552047574
 10
8.63909078324683
 20
-4.52474664482722
 10
8.650325477504186
 20
-4.561177596057834
 10
8.67775776493838
 20
-4.588568981170915
 10
8.704249283071931
 20
-4.615019596959528
 10
8.733344959704457
 20
-4.622559385893092
 10
8.75843214105584
 20
-4.622559385893092
 10
8.783560225420262
 20
-4.622559385893092
 10
8.804638911490503
 20
-4.615019596959528
 10
8.815028276811011
 20
-4.611311057013962
 10
8.815028276811011
 20
-4.611311057013962
 10
9.535658006852271
 20
-4.357085190005983
 10
9.535658006852271
 20
-4.357085190005983
 10
9.558345099046972
 20
-4.349190908283516
 10
9.62729394475016
 20
-4.32505812996078
 10
9.633497568399536
 20
-4.241915936620924
 10
9.63408384492027
 20
-4.204898708854848
 10
9.617722639691111
 20
-4.17148094633007
 10
9.588626963058585
 20
-4.150252282009053
 10
9.556858956238658
 20
-4.127101176024881
 10
9.515083345553547
 20
-4.121701978162845
 10
9.474303485692872
 20
-4.135568099944875
 10
9.474303485692872
 20
-4.135568099944875
 10
8.732322809806647
 20
-4.397742786027556
 10
8.732322809806647
 20
-4.397742786027556
 10
8.687738524430996
 20
-4.414226700712334
 10
8.655861018606704
 20
-4.448217105434511
 10
8.646985064769877
 20
-4.488656552047574
 97
        0
 97
        0
 75
     2
 76
     1
 98
        0
  0
SPLINE
  5
71
330
1F
100
AcDbEntity
  8
Layer 1
370
     0
100
AcDbSpline
210
0.0
220
0.0
230
1.0
 70
    11
 71
     3
 72
    35
 73
    31
 74
     0
 42
0.0000000001
 43
0.0000000001
 12
1.0
 22
0.0
 32
0.0
 13
1.0
 23
0.0
 33
0.0
 40
0.0
 40
0.0
 40
0.0
 40
0.0
 40
1.0
 40
1.0
 40
1.0
 40
2.0
 40
2.0
 40
2.0
 40
3.0
 40
3.0
 40
3.0
 40
4.0
 40
4.0
 40
4.0
 40
5.0
 40
5.0
 40
5.0
 40
6.0
 40
6.0
 40
6.0
 40
7.0
 40
7.0
 40
7.0
 40
8.0
 40
8.0
 40
8.0
 40
9.0
 40
9.0
 40
9.0
 40
10.0
 40
10.0
 40
10.0
 40
10.0
 10
3.858715044716493
 20
-11.12229374545091
 30
0.0
 10
3.797674113331936
 20
-11.11202708891046
 30
0.0
 10
3.740655311667903
 20
-11.15380270065058
 30
0.0
 10
3.729447885802831
 20
-11.2168615140645
 30
0.0
 10
3.729447885802831
 20
-11.2168615140645
 30
0.0
 10
3.729447885802831
 20
-11.21692968575467
 30
0.0
 10
3.729447885802831
 20
-11.21692968575467
 30
0.0
 10
3.708860035369399
 20
-11.33283519339355
 30
0.0
 10
3.690003745866382
 20
-11.44910882815922
 30
0.0
 10
3.671120187687468
 20
-11.5653688285872
 30
0.0
 10
3.671120187687468
 20
-11.5653688285872
 30
0.0
 10
3.649564299253446
 20
-11.6982899900942
 30
0.0
 10
3.649564299253446
 20
-11.6982899900942
 30
0.0
 10
3.645296751448414
 20
-11.7620441547477
 30
0.0
 10
3.684809063074933
 20
-11.81583161829763
 30
0.0
 10
3.7434912539793
 20
-11.82609827483808
 30
0.0
 10
3.750567475419719
 20
-11.82737990261353
 30
0.0
 10
3.757616428184014
 20
-11.82795254481092
 30
0.0
 10
3.764583574920051
 20
-11.82795254481092
 30
0.0
 10
3.787871024284489
 20
-11.82795254481092
 30
0.0
 10
3.810149532634391
 20
-11.82110810711694
 30
0.0
 10
3.828869478756903
 20
-11.8078827992229
 30
0.0
 10
3.854856527052359
 20
-11.78954461456528
 30
0.0
 10
3.872458457456067
 20
-11.76008081007058
 30
0.0
 10
3.878443931853679
 20
-11.72486331492524
 30
0.0
 10
3.904867278966271
 20
-11.56896829382865
 30
0.0
 10
3.929981729627444
 20
-11.41290966067557
 30
0.0
 10
3.953896358541531
 20
-11.25660560943758
 30
0.0
 10
3.96380852229322
 20
-11.19169252605108
 30
0.0
 10
3.922005641876719
 20
-11.13262857368181
 30
0.0
 10
3.858715044716493
 20
-11.12229374545091
 30
0.0
  0
HATCH
  5
72
330
1F
100
AcDbEntity
  8
Layer 1
 62
     7
420
 16777215
100
AcDbHatch
 10
0.0
 20
0.0
 30
0.0
210
0.0
220
0.0
230
1.0
  2
SOLID
 70
     1
 71
     0
 91
        1
 92
        1
 93
        1
 72
     4
 94
        3
 73
     0
 74
     1
 95
       35
 96
       31
 40
0.0
 40
0.0
 40
0.0
 40
0.0
 40
1.0
 40
1.0
 40
1.0
 40
2.0
 40
2.0
 40
2.0
 40
3.0
 40
3.0
 40
3.0
 40
4.0
 40
4.0
 40
4.0
 40
5.0
 40
5.0
 40
5.0
 40
6.0
 40
6.0
 40
6.0
 40
7.0
 40
7.0
 40
7.0
 40
8.0
 40
8.0
 40
8.0
 40
9.0
 40
9.0
 40
9.0
 40
10.0
 40
10.0
 40
10.0
 40
10.0
 10
3.858715044716493
 20
-11.12229374545091
 10
3.797674113331936
 20
-11.11202708891046
 10
3.740655311667903
 20
-11.15380270065058
 10
3.729447885802831
 20
-11.2168615140645
 10
3.729447885802831
 20
-11.2168615140645
 10
3.729447885802831
 20
-11.21692968575467
 10
3.729447885802831
 20
-11.21692968575467
 10
3.708860035369399
 20
-11.33283519339355
 10
3.690003745866382
 20
-11.44910882815922
 10
3.671120187687468
 20
-11.5653688285872
 10
3.671120187687468
 20
-11.5653688285872
 10
3.649564299253446
 20
-11.6982899900942
 10
3.649564299253446
 20
-11.6982899900942
 10
3.645296751448414
 20
-11.7620441547477
 10
3.684809063074933
 20
-11.81583161829763
 10
3.7434912539793
 20
-11.82609827483808
 10
3.750567475419719
 20
-11.82737990261353
 10
3.757616428184014
 20
-11.82795254481092
 10
3.764583574920051
 20
-11.82795254481092
 10
3.787871024284489
 20
-11.82795254481092
 10
3.810149532634391
 20
-11.82110810711694
 10
3.828869478756903
 20
-11.8078827992229
 10
3.854856527052359
 20
-11.78954461456528
 10
3.872458457456067
 20
-11.76008081007058
 10
3.878443931853679
 20
-11.72486331492524
 10
3.904867278966271
 20
-11.56896829382865
 10
3.929981729627444
 20
-11.41290966067557
 10
3.953896358541531
 20
-11.25660560943758
 10
3.96380852229322
 20
-11.19169252605108
 10
3.922005641876719
 20
-11.13262857368181
 10
3.858715044716493
 20
-11.12229374545091
 97
        0
 97
        0
 75
     2
 76
     1
 98
        0
  0
SPLINE
  5
73
330
1F
100
AcDbEntity
  8
Layer 1
370
     0
100
AcDbSpline
210
0.0
220
0.0
230
1.0
 70
    11
 71
     3
 72
    44
 73
    40
 74
     0
 42
0.0000000001
 43
0.0000000001
 12
1.0
 22
0.0
 32
0.0
 13
1.0
 23
0.0
 33
0.0
 40
0.0
 40
0.0
 40
0.0
 40
0.0
 40
1.0
 40
1.0
 40
1.0
 40
2.0
 40
2.0
 40
2.0
 40
3.0
 40
3.0
 40
3.0
 40
4.0
 40
4.0
 40
4.0
 40
5.0
 40
5.0
 40
5.0
 40
6.0
 40
6.0
 40
6.0
 40
7.0
 40
7.0
 40
7.0
 40
8.0
 40
8.0
 40
8.0
 40
9.0
 40
9.0
 40
9.0
 40
10.0
 40
10.0
 40
10.0
 40
11.0
 40
11.0
 40
11.0
 40
12.0
 40
12.0
 40
12.0
 40
13.0
 40
13.0
 40
13.0
 40
13.0
 10
0.6852001579357218
 20
-2.665486504292466
 30
0.0
 10
0.6852001579357218
 20
-2.665486504292466
 30
0.0
 10
0.6852274266118457
 20
-2.665486504292466
 30
0.0
 10
0.6852274266118457
 20
-2.665486504292466
 30
0.0
 10
0.7124961026826087
 20
-2.686428847514788
 30
0.0
 10
0.7424916463605263
 20
-2.697513564337542
 30
0.0
 10
0.7711782935869753
 20
-2.697513564337542
 30
0.0
 10
0.7761684613078614
 20
-2.697513564337542
 30
0.0
 10
0.7811313603527499
 20
-2.69715907154864
 30
0.0
 10
0.7860260877074299
 20
-2.696463720308808
 30
0.0
 10
0.8148081753002113
 20
-2.692455224926473
 30
0.0
 10
0.8396635735387892
 20
-2.677430184411453
 30
0.0
 10
0.8579063178301061
 20
-2.652956547637889
 30
0.0
 10
0.8980594433443355
 20
-2.598991837693764
 30
0.0
 10
0.8844523739850148
 20
-2.532619880137493
 30
0.0
 10
0.8232478305440811
 20
-2.483781681294759
 30
0.0
 10
0.7366016123292208
 20
-2.414682856131359
 30
0.0
 10
0.6493418489026478
 20
-2.346388456912059
 30
0.0
 10
0.5620820854760621
 20
-2.278162229382954
 30
0.0
 10
0.5620820854760621
 20
-2.278162229382954
 30
0.0
 10
0.4922061030446861
 20
-2.22344763084685
 30
0.0
 10
0.4922061030446861
 20
-2.22344763084685
 30
0.0
 10
0.4682369367784657
 20
-2.204714050386264
 30
0.0
 10
0.439904782340894
 20
-2.18801198629285
 30
0.0
 10
0.3981019019243806
 20
-2.188707337532706
 30
0.0
 10
0.3981019019243806
 20
-2.188707337532706
 30
0.0
 10
0.3881761038346288
 20
-2.190329823758854
 30
0.0
 10
0.3881761038346288
 20
-2.190329823758854
 30
0.0
 10
0.3815361812113577
 20
-2.191543279844104
 30
0.0
 10
0.3714740397413405
 20
-2.193465721507007
 30
0.0
 10
0.3613437265810009
 20
-2.197815075340284
 30
0.0
 10
0.3232357517719922
 20
-2.213944497236171
 30
0.0
 10
0.2983121818433574
 20
-2.244921713252627
 30
0.0
 10
0.2929675213334551
 20
-2.282866076005133
 30
0.0
 10
0.2871456589923456
 20
-2.324518978703319
 30
0.0
 10
0.3064927846646444
 20
-2.367794367627653
 30
0.0
 10
0.3447507371918416
 20
-2.398717046291848
 30
0.0
 10
0.4640648293396276
 20
-2.495084547526024
 30
0.0
 10
0.5838152203045486
 20
-2.587620799772316
 30
0.0
 10
0.6852001579357218
 20
-2.665486504292466
 30
0.0
  0
HATCH
  5
74
330
1F
100
AcDbEntity
  8
Layer 1
 62
     7
420
 16777215
100
AcDbHatch
 10
0.0
 20
0.0
 30
0.0
210
0.0
220
0.0
230
1.0
  2
SOLID
 70
     1
 71
     0
 91
        1
 92
        1
 93
        1
 72
     4
 94
        3
 73
     0
 74
     1
 95
       44
 96
       40
 40
0.0
 40
0.0
 40
0.0
 40
0.0
 40
1.0
 40
1.0
 40
1.0
 40
2.0
 40
2.0
 40
2.0
 40
3.0
 40
3.0
 40
3.0
 40
4.0
 40
4.0
 40
4.0
 40
5.0
 40
5.0
 40
5.0
 40
6.0
 40
6.0
 40
6.0
 40
7.0
 40
7.0
 40
7.0
 40
8.0
 40
8.0
 40
8.0
 40
9.0
 40
9.0
 40
9.0
 40
10.0
 40
10.0
 40
10.0
 40
11.0
 40
11.0
 40
11.0
 40
12.0
 40
12.0
 40
12.0
 40
13.0
 40
13.0
 40
13.0
 40
13.0
 10
0.6852001579357218
 20
-2.665486504292466
 10
0.6852001579357218
 20
-2.665486504292466
 10
0.6852274266118457
 20
-2.665486504292466
 10
0.6852274266118457
 20
-2.665486504292466
 10
0.7124961026826087
 20
-2.686428847514788
 10
0.7424916463605263
 20
-2.697513564337542
 10
0.7711782935869753
 20
-2.697513564337542
 10
0.7761684613078614
 20
-2.697513564337542
 10
0.7811313603527499
 20
-2.69715907154864
 10
0.7860260877074299
 20
-2.696463720308808
 10
0.8148081753002113
 20
-2.692455224926473
 10
0.8396635735387892
 20
-2.677430184411453
 10
0.8579063178301061
 20
-2.652956547637889
 10
0.8980594433443355
 20
-2.598991837693764
 10
0.8844523739850148
 20
-2.532619880137493
 10
0.8232478305440811
 20
-2.483781681294759
 10
0.7366016123292208
 20
-2.414682856131359
 10
0.6493418489026478
 20
-2.346388456912059
 10
0.5620820854760621
 20
-2.278162229382954
 10
0.5620820854760621
 20
-2.278162229382954
 10
0.4922061030446861
 20
-2.22344763084685
 10
0.4922061030446861
 20
-2.22344763084685
 10
0.4682369367784657
 20
-2.204714050386264
 10
0.439904782340894
 20
-2.18801198629285
 10
0.3981019019243806
 20
-2.188707337532706
 10
0.3981019019243806
 20
-2.188707337532706
 10
0.3881761038346288
 20
-2.190329823758854
 10
0.3881761038346288
 20
-2.190329823758854
 10
0.3815361812113577
 20
-2.191543279844104
 10
0.3714740397413405
 20
-2.193465721507007
 10
0.3613437265810009
 20
-2.197815075340284
 10
0.3232357517719922
 20
-2.213944497236171
 10
0.2983121818433574
 20
-2.244921713252627
 10
0.2929675213334551
 20
-2.282866076005133
 10
0.2871456589923456
 20
-2.324518978703319
 10
0.3064927846646444
 20
-2.367794367627653
 10
0.3447507371918416
 20
-2.398717046291848
 10
0.4640648293396276
 20
-2.495084547526024
 10
0.5838152203045486
 20
-2.587620799772316
 10
0.6852001579357218
 20
-2.665486504292466
 97
        0
 97
        0
 75
     2
 76
     1
 98
        0
  0
SPLINE
  5
75
330
1F
100
AcDbEntity
  8
Layer 1
370
     0
100
AcDbSpline
210
0.0
220
0.0
230
1.0
 70
    11
 71
     3
 72
    35
 73
    31
 74
     0
 42
0.0000000001
 43
0.0000000001
 12
1.0
 22
0.0
 32
0.0
 13
1.0
 23
0.0
 33
0.0
 40
0.0
 40
0.0
 40
0.0
 40
0.0
 40
1.0
 40
1.0
 40
1.0
 40
2.0
 40
2.0
 40
2.0
 40
3.0
 40
3.0
 40
3.0
 40
4.0
 40
4.0
 40
4.0
 40
5.0
 40
5.0
 40
5.0
 40
6.0
 40
6.0
 40
6.0
 40
7.0
 40
7.0
 40
7.0
 40
8.0
 40
8.0
 40
8.0
 40
9.0
 40
9.0
 40
9.0
 40
10.0
 40
10.0
 40
10.0
 40
10.0
 10
5.849614718982896
 20
-0.6858896962571887
 30
0.0
 10
5.849614718982896
 20
-0.6858896962571887
 30
0.0
 10
5.849641635052611
 20
-0.6858896962571887
 30
0.0
 10
5.849641635052611
 20
-0.6858896962571887
 30
0.0
 10
5.857222326808786
 20
-0.6872258613847558
 30
0.0
 10
5.864612490821918
 20
-0.687866675272365
 30
0.0
 10
5.871838689980652
 20
-0.687866675272365
 30
0.0
 10
5.927221016514194
 20
-0.687866675272365
 30
0.0
 10
5.971014509177571
 20
-0.6496359914211653
 30
0.0
 10
5.981894710654956
 20
-0.5888268437833074
 30
0.0
 10
5.999742058692428
 20
-0.4888053399555727
 30
0.0
 10
6.015435181374717
 20
-0.3883884403248885
 30
0.0
 10
6.030051191379445
 20
-0.2949250530923058
 30
0.0
 10
6.030051191379445
 20
-0.2949250530923058
 30
0.0
 10
6.046289687569368
 20
-0.1918221888686654
 30
0.0
 10
6.046289687569368
 20
-0.1918221888686654
 30
0.0
 10
6.066686656755059
 20
-0.0731761792846126
 30
0.0
 10
5.998951267106349
 20
-0.0428943145080009
 30
0.0
 10
5.956739357615131
 20
-0.0354090629265708
 30
0.0
 10
5.926839255058844
 20
-0.0300098650645345
 30
0.0
 10
5.897566332036351
 20
-0.0362816605608537
 30
0.0
 10
5.874128905545578
 20
-0.052642866203314
 30
0.0
 10
5.84758285006127
 20
-0.0712673719596447
 30
0.0
 10
5.83006272612839
 20
-0.1010856692430985
 30
0.0
 10
5.823477341023653
 20
-0.1389073229532743
 30
0.0
 10
5.799862668142901
 20
-0.2745553520673841
 30
0.0
 10
5.777856847109685
 20
-0.4127530023941846
 30
0.0
 10
5.758100691795486
 20
-0.5496690249455646
 30
0.0
 10
5.748147625281086
 20
-0.6185360663623921
 30
0.0
 10
5.785764762970453
 20
-0.6745186583357407
 30
0.0
 10
5.849614718982896
 20
-0.6858896962571887
 30
0.0
  0
HATCH
  5
76
330
1F
100
AcDbEntity
  8
Layer 1
 62
     7
420
 16777215
100
AcDbHatch
 10
0.0
 20
0.0
 30
0.0
210
0.0
220
0.0
230
1.0
  2
SOLID
 70
     1
 71
     0
 91
        1
 92
        1
 93
        1
 72
     4
 94
        3
 73
     0
 74
     1
 95
       35
 96
       31
 40
0.0
 40
0.0
 40
0.0
 40
0.0
 40
1.0
 40
1.0
 40
1.0
 40
2.0
 40
2.0
 40
2.0
 40
3.0
 40
3.0
 40
3.0
 40
4.0
 40
4.0
 40
4.0
 40
5.0
 40
5.0
 40
5.0
 40
6.0
 40
6.0
 40
6.0
 40
7.0
 40
7.0
 40
7.0
 40
8.0
 40
8.0
 40
8.0
 40
9.0
 40
9.0
 40
9.0
 40
10.0
 40
10.0
 40
10.0
 40
10.0
 10
5.849614718982896
 20
-0.6858896962571887
 10
5.849614718982896
 20
-0.6858896962571887
 10
5.849641635052611
 20
-0.6858896962571887
 10
5.849641635052611
 20
-0.6858896962571887
 10
5.857222326808786
 20
-0.6872258613847558
 10
5.864612490821918
 20
-0.687866675272365
 10
5.871838689980652
 20
-0.687866675272365
 10
5.927221016514194
 20
-0.687866675272365
 10
5.971014509177571
 20
-0.6496359914211653
 10
5.981894710654956
 20
-0.5888268437833074
 10
5.999742058692428
 20
-0.4888053399555727
 10
6.015435181374717
 20
-0.3883884403248885
 10
6.030051191379445
 20
-0.2949250530923058
 10
6.030051191379445
 20
-0.2949250530923058
 10
6.046289687569368
 20
-0.1918221888686654
 10
6.046289687569368
 20
-0.1918221888686654
 10
6.066686656755059
 20
-0.0731761792846126
 10
5.998951267106349
 20
-0.0428943145080009
 10
5.956739357615131
 20
-0.0354090629265708
 10
5.926839255058844
 20
-0.0300098650645345
 10
5.897566332036351
 20
-0.0362816605608537
 10
5.874128905545578
 20
-0.052642866203314
 10
5.84758285006127
 20
-0.0712673719596447
 10
5.83006272612839
 20
-0.1010856692430985
 10
5.823477341023653
 20
-0.1389073229532743
 10
5.799862668142901
 20
-0.2745553520673841
 10
5.777856847109685
 20
-0.4127530023941846
 10
5.758100691795486
 20
-0.5496690249455646
 10
5.748147625281086
 20
-0.6185360663623921
 10
5.785764762970453
 20
-0.6745186583357407
 10
5.849614718982896
 20
-0.6858896962571887
 97
        0
 97
        0
 75
     2
 76
     1
 98
        0
  0
SPLINE
  5
77
330
1F
100
AcDbEntity
  8
Layer 1
370
     0
100
AcDbSpline
210
0.0
220
0.0
230
1.0
 70
    11
 71
     3
 72
    29
 73
    25
 74
     0
 42
0.0000000001
 43
0.0000000001
 12
1.0
 22
0.0
 32
0.0
 13
1.0
 23
0.0
 33
0.0
 40
0.0
 40
0.0
 40
0.0
 40
0.0
 40
1.0
 40
1.0
 40
1.0
 40
2.0
 40
2.0
 40
2.0
 40
3.0
 40
3.0
 40
3.0
 40
4.0
 40
4.0
 40
4.0
 40
5.0
 40
5.0
 40
5.0
 40
6.0
 40
6.0
 40
6.0
 40
7.0
 40
7.0
 40
7.0
 40
8.0
 40
8.0
 40
8.0
 40
8.0
 10
9.972665352799948
 20
-4.203739790121846
 30
0.0
 10
9.98861752789839
 20
-4.203739790121846
 30
0.0
 10
10.00533322590751
 20
-4.20072660141601
 30
0.0
 10
10.02215799861814
 20
-4.194345731215435
 30
0.0
 10
10.13453220986707
 20
-4.151752059192884
 30
0.0
 10
10.24633377893297
 20
-4.107426826239804
 30
0.0
 10
10.35798537028427
 20
-4.062815272188029
 30
0.0
 10
10.4068099335556
 20
-4.043318168797415
 30
0.0
 10
10.43531933366742
 20
-4.005551052439361
 30
0.0
 10
10.43624646863039
 20
-3.958389877174896
 30
0.0
 10
10.43593334732946
 20
-3.917664109463253
 30
0.0
 10
10.41852182963215
 20
-3.882092121528861
 30
0.0
 10
10.38847174936126
 20
-3.860808919855597
 30
0.0
 10
10.3572632168652
 20
-3.83869402356221
 30
0.0
 10
10.31607341622225
 20
-3.834003811277979
 30
0.0
 10
10.27397058143257
 20
-3.848619821651975
 30
0.0
 10
10.27397058143257
 20
-3.848619821651975
 30
0.0
 10
9.93333028856154
 20
-3.984840492963611
 30
0.0
 10
9.93333028856154
 20
-3.984840492963611
 30
0.0
 10
9.870707775546936
 20
-4.013499871513949
 30
0.0
 10
9.843984473672636
 20
-4.077199498815326
 30
0.0
 10
9.869767006246244
 20
-4.136263451184706
 30
0.0
 10
9.88859602659747
 20
-4.179429765404797
 30
0.0
 10
9.927672038419788
 20
-4.203739790121846
 30
0.0
 10
9.972665352799948
 20
-4.203739790121846
 30
0.0
  0
HATCH
  5
78
330
1F
100
AcDbEntity
  8
Layer 1
 62
     7
420
 16777215
100
AcDbHatch
 10
0.0
 20
0.0
 30
0.0
210
0.0
220
0.0
230
1.0
  2
SOLID
 70
     1
 71
     0
 91
        1
 92
        1
 93
        1
 72
     4
 94
        3
 73
     0
 74
     1
 95
       29
 96
       25
 40
0.0
 40
0.0
 40
0.0
 40
0.0
 40
1.0
 40
1.0
 40
1.0
 40
2.0
 40
2.0
 40
2.0
 40
3.0
 40
3.0
 40
3.0
 40
4.0
 40
4.0
 40
4.0
 40
5.0
 40
5.0
 40
5.0
 40
6.0
 40
6.0
 40
6.0
 40
7.0
 40
7.0
 40
7.0
 40
8.0
 40
8.0
 40
8.0
 40
8.0
 10
9.972665352799948
 20
-4.203739790121846
 10
9.98861752789839
 20
-4.203739790121846
 10
10.00533322590751
 20
-4.20072660141601
 10
10.02215799861814
 20
-4.194345731215435
 10
10.13453220986707
 20
-4.151752059192884
 10
10.24633377893297
 20
-4.107426826239804
 10
10.35798537028427
 20
-4.062815272188029
 10
10.4068099335556
 20
-4.043318168797415
 10
10.43531933366742
 20
-4.005551052439361
 10
10.43624646863039
 20
-3.958389877174896
 10
10.43593334732946
 20
-3.917664109463253
 10
10.41852182963215
 20
-3.882092121528861
 10
10.38847174936126
 20
-3.860808919855597
 10
10.3572632168652
 20
-3.83869402356221
 10
10.31607341622225
 20
-3.834003811277979
 10
10.27397058143257
 20
-3.848619821651975
 10
10.27397058143257
 20
-3.848619821651975
 10
9.93333028856154
 20
-3.984840492963611
 10
9.93333028856154
 20
-3.984840492963611
 10
9.870707775546936
 20
-4.013499871513949
 10
9.843984473672636
 20
-4.077199498815326
 10
9.869767006246244
 20
-4.136263451184706
 10
9.88859602659747
 20
-4.179429765404797
 10
9.927672038419788
 20
-4.203739790121846
 10
9.972665352799948
 20
-4.203739790121846
 97
        0
 97
        0
 75
     2
 76
     1
 98
        0
  0
SPLINE
  5
79
330
1F
100
AcDbEntity
  8
Layer 1
370
     0
100
AcDbSpline
210
0.0
220
0.0
230
1.0
 70
    11
 71
     3
 72
    35
 73
    31
 74
     0
 42
0.0000000001
 43
0.0000000001
 12
1.0
 22
0.0
 32
0.0
 13
1.0
 23
0.0
 33
0.0
 40
0.0
 40
0.0
 40
0.0
 40
0.0
 40
1.0
 40
1.0
 40
1.0
 40
2.0
 40
2.0
 40
2.0
 40
3.0
 40
3.0
 40
3.0
 40
4.0
 40
4.0
 40
4.0
 40
5.0
 40
5.0
 40
5.0
 40
6.0
 40
6.0
 40
6.0
 40
7.0
 40
7.0
 40
7.0
 40
8.0
 40
8.0
 40
8.0
 40
9.0
 40
9.0
 40
9.0
 40
10.0
 40
10.0
 40
10.0
 40
10.0
 10
9.399000594452673
 20
-9.708549234560651
 30
0.0
 10
9.399000594452673
 20
-9.708549234560651
 30
0.0
 10
9.330215360801756
 20
-9.647167444725406
 30
0.0
 10
9.330215360801756
 20
-9.647167444725406
 30
0.0
 10
9.30234677456143
 20
-9.622216606120496
 30
0.0
 10
9.27202400753673
 20
-9.611022814593474
 30
0.0
 10
9.233616078261294
 20
-9.61223627067875
 30
0.0
 10
9.233616078261294
 20
-9.61223627067875
 30
0.0
 10
9.232688943298298
 20
-9.612290808030997
 30
0.0
 10
9.232688943298298
 20
-9.612290808030997
 30
0.0
 10
9.189495361493325
 20
-9.615017675638127
 30
0.0
 10
9.155150464849788
 20
-9.641304679370224
 30
0.0
 10
9.13840749816528
 20
-9.684348284548099
 30
0.0
 10
9.120110216984004
 20
-9.731577631502507
 30
0.0
 10
9.132531098620474
 20
-9.778111627217337
 30
0.0
 10
9.173338671329525
 20
-9.815360638729972
 30
0.0
 10
9.260707507253224
 20
-9.895189687927363
 30
0.0
 10
9.348430835956883
 20
-9.9746642443356
 30
0.0
 10
9.437340352039655
 20
-10.05287080730684
 30
0.0
 10
9.463572817757065
 20
-10.07591283858639
 30
0.0
 10
9.493241136572603
 20
-10.0873384138601
 30
0.0
 10
9.521968686087474
 20
-10.0873384138601
 30
0.0
 10
9.552768654931343
 20
-10.0873384138601
 30
0.0
 10
9.582505145435334
 20
-10.0741676433178
 30
0.0
 10
9.6056562508346
 20
-10.0479488112759
 30
0.0
 10
9.650417781474035
 20
-9.99717453643206
 30
0.0
 10
9.64420052348694
 20
-9.92987544388936
 30
0.0
 10
9.59022218056844
 20
-9.880505505863159
 30
0.0
 10
9.526986122357735
 20
-9.82266864391709
 30
0.0
 10
9.462986985123557
 20
-9.765581670562874
 30
0.0
 10
9.399000594452673
 20
-9.708549234560651
 30
0.0
  0
HATCH
  5
7A
330
1F
100
AcDbEntity
  8
Layer 1
 62
     7
420
 16777215
100
AcDbHatch
 10
0.0
 20
0.0
 30
0.0
210
0.0
220
0.0
230
1.0
  2
SOLID
 70
     1
 71
     0
 91
        1
 92
        1
 93
        1
 72
     4
 94
        3
 73
     0
 74
     1
 95
       35
 96
       31
 40
0.0
 40
0.0
 40
0.0
 40
0.0
 40
1.0
 40
1.0
 40
1.0
 40
2.0
 40
2.0
 40
2.0
 40
3.0
 40
3.0
 40
3.0
 40
4.0
 40
4.0
 40
4.0
 40
5.0
 40
5.0
 40
5.0
 40
6.0
 40
6.0
 40
6.0
 40
7.0
 40
7.0
 40
7.0
 40
8.0
 40
8.0
 40
8.0
 40
9.0
 40
9.0
 40
9.0
 40
10.0
 40
10.0
 40
10.0
 40
10.0
 10
9.399000594452673
 20
-9.708549234560651
 10
9.399000594452673
 20
-9.708549234560651
 10
9.330215360801756
 20
-9.647167444725406
 10
9.330215360801756
 20
-9.647167444725406
 10
9.30234677456143
 20
-9.622216606120496
 10
9.27202400753673
 20
-9.611022814593474
 10
9.233616078261294
 20
-9.61223627067875
 10
9.233616078261294
 20
-9.61223627067875
 10
9.232688943298298
 20
-9.612290808030997
 10
9.232688943298298
 20
-9.612290808030997
 10
9.189495361493325
 20
-9.615017675638127
 10
9.155150464849788
 20
-9.641304679370224
 10
9.13840749816528
 20
-9.684348284548099
 10
9.120110216984004
 20
-9.731577631502507
 10
9.132531098620474
 20
-9.778111627217337
 10
9.173338671329525
 20
-9.815360638729972
 10
9.260707507253224
 20
-9.895189687927363
 10
9.348430835956883
 20
-9.9746642443356
 10
9.437340352039655
 20
-10.05287080730684
 10
9.463572817757065
 20
-10.07591283858639
 10
9.493241136572603
 20
-10.0873384138601
 10
9.521968686087474
 20
-10.0873384138601
 10
9.552768654931343
 20
-10.0873384138601
 10
9.582505145435334
 20
-10.0741676433178
 10
9.6056562508346
 20
-10.0479488112759
 10
9.650417781474035
 20
-9.99717453643206
 10
9.64420052348694
 20
-9.92987544388936
 10
9.59022218056844
 20
-9.880505505863159
 10
9.526986122357735
 20
-9.82266864391709
 10
9.462986985123557
 20
-9.765581670562874
 10
9.399000594452673
 20
-9.708549234560651
 97
        0
 97
        0
 75
     2
 76
     1
 98
        0
  0
SPLINE
  5
7B
330
1F
100
AcDbEntity
  8
Layer 1
370
     0
100
AcDbSpline
210
0.0
220
0.0
230
1.0
 70
    11
 71
     3
 72
    26
 73
    22
 74
     0
 42
0.0000000001
 43
0.0000000001
 12
1.0
 22
0.0
 32
0.0
 13
1.0
 23
0.0
 33
0.0
 40
0.0
 40
0.0
 40
0.0
 40
0.0
 40
1.0
 40
1.0
 40
1.0
 40
2.0
 40
2.0
 40
2.0
 40
3.0
 40
3.0
 40
3.0
 40
4.0
 40
4.0
 40
4.0
 40
5.0
 40
5.0
 40
5.0
 40
6.0
 40
6.0
 40
6.0
 40
7.0
 40
7.0
 40
7.0
 40
7.0
 10
-0.3400202562978494
 20
-7.819525334094806
 30
0.0
 10
-0.3400202562978494
 20
-7.819525334094806
 30
0.0
 10
-0.6517421268010695
 20
-7.951451188925299
 30
0.0
 10
-0.6517421268010695
 20
-7.951451188925299
 30
0.0
 10
-0.7065112626892944
 20
-7.976865595023102
 30
0.0
 10
-0.7324710423086268
 20
-8.028839691613989
 30
0.0
 10
-0.7178823006107551
 20
-8.083963320291382
 30
0.0
 10
-0.7079837711971272
 20
-8.121321406508034
 30
0.0
 10
-0.6806332890981063
 20
-8.166751020842083
 30
0.0
 10
-0.6063125124671337
 20
-8.170868590928926
 30
0.0
 10
-0.6063125124671337
 20
-8.170868590928926
 30
0.0
 10
-0.5996453211678524
 20
-8.17127762107005
 30
0.0
 10
-0.5996453211678524
 20
-8.17127762107005
 30
0.0
 10
-0.5996453211678524
 20
-8.17127762107005
 30
0.0
 10
-0.2510425662788091
 20
-8.02924872175514
 30
0.0
 10
-0.2510425662788091
 20
-8.02924872175514
 30
0.0
 10
-0.1930011892621527
 20
-8.003138964417252
 30
0.0
 10
-0.1673549994175371
 20
-7.939384799763754
 30
0.0
 10
-0.1914059717120153
 20
-7.881016198634319
 30
0.0
 10
-0.2149388391610879
 20
-7.823929225280103
 30
0.0
 10
-0.2767160247994221
 20
-7.797642221547751
 30
0.0
 10
-0.3400202562978494
 20
-7.819525334094806
 30
0.0
  0
HATCH
  5
7C
330
1F
100
AcDbEntity
  8
Layer 1
 62
     7
420
 16777215
100
AcDbHatch
 10
0.0
 20
0.0
 30
0.0
210
0.0
220
0.0
230
1.0
  2
SOLID
 70
     1
 71
     0
 91
        1
 92
        1
 93
        1
 72
     4
 94
        3
 73
     0
 74
     1
 95
       26
 96
       22
 40
0.0
 40
0.0
 40
0.0
 40
0.0
 40
1.0
 40
1.0
 40
1.0
 40
2.0
 40
2.0
 40
2.0
 40
3.0
 40
3.0
 40
3.0
 40
4.0
 40
4.0
 40
4.0
 40
5.0
 40
5.0
 40
5.0
 40
6.0
 40
6.0
 40
6.0
 40
7.0
 40
7.0
 40
7.0
 40
7.0
 10
-0.3400202562978494
 20
-7.819525334094806
 10
-0.3400202562978494
 20
-7.819525334094806
 10
-0.6517421268010695
 20
-7.951451188925299
 10
-0.6517421268010695
 20
-7.951451188925299
 10
-0.7065112626892944
 20
-7.976865595023102
 10
-0.7324710423086268
 20
-8.028839691613989
 10
-0.7178823006107551
 20
-8.083963320291382
 10
-0.7079837711971272
 20
-8.121321406508034
 10
-0.6806332890981063
 20
-8.166751020842083
 10
-0.6063125124671337
 20
-8.170868590928926
 10
-0.6063125124671337
 20
-8.170868590928926
 10
-0.5996453211678524
 20
-8.17127762107005
 10
-0.5996453211678524
 20
-8.17127762107005
 10
-0.5996453211678524
 20
-8.17127762107005
 10
-0.2510425662788091
 20
-8.02924872175514
 10
-0.2510425662788091
 20
-8.02924872175514
 10
-0.1930011892621527
 20
-8.003138964417252
 10
-0.1673549994175371
 20
-7.939384799763754
 10
-0.1914059717120153
 20
-7.881016198634319
 10
-0.2149388391610879
 20
-7.823929225280103
 10
-0.2767160247994221
 20
-7.797642221547751
 10
-0.3400202562978494
 20
-7.819525334094806
 97
        0
 97
        0
 75
     2
 76
     1
 98
        0
  0
ENDSEC
  0
SECTION
  2
OBJECTS
  0
DICTIONARY
  5
C
330
0
100
AcDbDictionary
281
     1
  3
ACAD_GROUP
350
D
  3
ACAD_LAYOUT
350
1A
  3
ACAD_MATERIAL
350
3B
  3
ACAD_MLEADERSTYLE
350
7E
  3
ACAD_MLINESTYLE
350
17
  3
ACAD_PLOTSETTINGS
350
19
  3
ACAD_PLOTSTYLENAME
350
E
  3
ACAD_TABLESTYLE
350
7D
  3
ACAD_VISUALSTYLE
350
2A
  0
SUN
  5
3F
330
29
100
AcDbSun
 90
        1
290
     0
 63
     7
421
 16777215
 40
1.0
291
     1
 91
  2455826
 92
 54000000
292
     0
 70
     2
 71
   256
280
     1
  0
DICTIONARY
  5
D
102
{ACAD_REACTORS
330
C
102
}
330
C
100
AcDbDictionary
281
     1
  0
DICTIONARY
  5
1A
102
{ACAD_REACTORS
330
C
102
}
330
C
100
AcDbDictionary
281
     1
  3
Layout1
350
1E
  3
Layout2
350
26
  3
Model
350
22
  0
DICTIONARY
  5
3B
102
{ACAD_REACTORS
330
C
102
}
330
C
100
AcDbDictionary
281
     1
  3
ByBlock
350
3D
  3
ByLayer
350
3C
  3
Global
350
3E
  0
DICTIONARY
  5
7E
102
{ACAD_REACTORS
330
C
102
}
330
C
100
AcDbDictionary
281
     1
  0
DICTIONARY
  5
17
102
{ACAD_REACTORS
330
C
102
}
330
C
100
AcDbDictionary
281
     1
  3
Standard
350
18
  0
DICTIONARY
  5
19
102
{ACAD_REACTORS
330
C
102
}
330
C
100
AcDbDictionary
281
     1
  0
ACDBDICTIONARYWDFLT
  5
E
102
{ACAD_REACTORS
330
C
102
}
330
C
100
AcDbDictionary
281
     1
  3
Normal
350
F
100
AcDbDictionaryWithDefault
340
F
  0
DICTIONARY
  5
7D
102
{ACAD_REACTORS
330
C
102
}
330
C
100
AcDbDictionary
281
     1
  0
DICTIONARY
  5
2A
102
{ACAD_REACTORS
330
C
102
}
330
C
100
AcDbDictionary
281
     1
  3
2dWireframe
350
2F
  3
3D Hidden
350
31
  3
3dWireframe
350
30
  3
Basic
350
32
  3
Brighten
350
36
  3
ColorChange
350
3A
  3
Conceptual
350
34
  3
Dim
350
35
  3
Facepattern
350
39
  3
Flat
350
2B
  3
FlatWithEdges
350
2C
  3
Gouraud
350
2D
  3
GouraudWithEdges
350
2E
  3
Linepattern
350
38
  3
Realistic
350
33
  3
Thicken
350
37
  0
LAYOUT
  5
1E
102
{ACAD_REACTORS
330
1A
102
}
330
1A
100
AcDbPlotSettings
  1

  2
none_device
  4

  6

 40
0.0
 41
0.0
 42
0.0
 43
0.0
 44
0.0
 45
0.0
 46
0.0
 47
0.0
 48
0.0
 49
0.0
140
0.0
141
0.0
142
1.0
143
1.0
 70
   688
 72
     0
 73
     0
 74
     5
  7

 75
    16
 76
     0
 77
     2
 78
   300
147
1.0
148
0.0
149
0.0
100
AcDbLayout
  1
Layout1
 70
     1
 71
     1
 10
0.0
 20
0.0
 11
12.0
 21
9.0
 12
0.0
 22
0.0
 32
0.0
 14
1.000000000000000E+20
 24
1.000000000000000E+20
 34
1.000000000000000E+20
 15
-1.000000000000000E+20
 25
-1.000000000000000E+20
 35
-1.000000000000000E+20
146
0.0
 13
0.0
 23
0.0
 33
0.0
 16
1.0
 26
0.0
 36
0.0
 17
0.0
 27
1.0
 37
0.0
 76
     0
330
1B
  0
LAYOUT
  5
26
102
{ACAD_REACTORS
330
1A
102
}
330
1A
100
AcDbPlotSettings
  1

  2
none_device
  4

  6

 40
0.0
 41
0.0
 42
0.0
 43
0.0
 44
0.0
 45
0.0
 46
0.0
 47
0.0
 48
0.0
 49
0.0
140
0.0
141
0.0
142
1.0
143
1.0
 70
   688
 72
     0
 73
     0
 74
     5
  7

 75
    16
 76
     0
 77
     2
 78
   300
147
1.0
148
0.0
149
0.0
100
AcDbLayout
  1
Layout2
 70
     1
 71
     2
 10
0.0
 20
0.0
 11
0.0
 21
0.0
 12
0.0
 22
0.0
 32
0.0
 14
0.0
 24
0.0
 34
0.0
 15
0.0
 25
0.0
 35
0.0
146
0.0
 13
0.0
 23
0.0
 33
0.0
 16
1.0
 26
0.0
 36
0.0
 17
0.0
 27
1.0
 37
0.0
 76
     0
330
23
  0
LAYOUT
  5
22
102
{ACAD_REACTORS
330
1A
102
}
330
1A
100
AcDbPlotSettings
  1

  2
none_device
  4

  6

 40
0.0
 41
0.0
 42
0.0
 43
0.0
 44
0.0
 45
0.0
 46
0.0
 47
0.0
 48
0.0
 49
0.0
140
0.0
141
0.0
142
1.0
143
1.0
 70
  1712
 72
     0
 73
     0
 74
     0
  7

 75
     0
 76
     0
 77
     2
 78
   300
147
1.0
148
0.0
149
0.0
100
AcDbLayout
  1
Model
 70
     1
 71
     0
 10
0.0
 20
0.0
 11
12.0
 21
9.0
 12
0.0
 22
0.0
 32
0.0
 14
1.000000000000000E+20
 24
1.000000000000000E+20
 34
1.000000000000000E+20
 15
-1.000000000000000E+20
 25
-1.000000000000000E+20
 35
-1.000000000000000E+20
146
0.0
 13
0.0
 23
0.0
 33
0.0
 16
1.0
 26
0.0
 36
0.0
 17
0.0
 27
1.0
 37
0.0
 76
     0
330
1F
331
29
  0
MATERIAL
  5
3D
102
{ACAD_REACTORS
330
3B
102
}
330
3B
100
AcDbMaterial
  1
ByBlock
 72
     1
 94
      127
  0
MATERIAL
  5
3C
102
{ACAD_REACTORS
330
3B
102
}
330
3B
100
AcDbMaterial
  1
ByLayer
 72
     1
 94
      127
  0
MATERIAL
  5
3E
102
{ACAD_REACTORS
330
3B
102
}
330
3B
100
AcDbMaterial
  1
Global
 72
     1
 94
      127
  0
MLINESTYLE
  5
18
102
{ACAD_REACTORS
330
17
102
}
330
17
100
AcDbMlineStyle
  2
Standard
 70
     0
  3

 62
   256
 51
90.0
 52
90.0
 71
     2
 49
0.5
 62
   256
  6
BYLAYER
 49
-0.5
 62
   256
  6
BYLAYER
  0
ACDBPLACEHOLDER
  5
F
102
{ACAD_REACTORS
330
E
102
}
330
E
  0
VISUALSTYLE
  5
2F
102
{ACAD_REACTORS
330
2A
102
}
330
2A
100
AcDbVisualStyle
  2
2dWireframe
 70
     4
177
     2
291
     0
 71
     0
176
     1
 72
     2
176
     1
 73
     0
176
     1
 90
        0
176
     1
 40
-0.6
176
     1
 41
-30.0
176
     1
 62
     5
 63
     7
421
 16777215
176
     1
 74
     1
176
     1
 91
        4
176
     1
 64
     7
176
     1
 65
   257
176
     1
 75
     1
176
     1
175
     1
176
     1
 42
1.0
176
     1
 92
        0
176
     1
 66
   257
176
     1
 43
1.0
176
     1
 76
     1
176
     1
 77
     6
176
     1
 78
     2
176
     1
 67
     7
176
     1
 79
     5
176
     1
170
     0
176
     1
171
     0
176
     1
290
     0
176
     1
 93
        1
176
     1
 44
0.0
176
     1
173
     0
176
     1
  0
VISUALSTYLE
  5
31
102
{ACAD_REACTORS
330
2A
102
}
330
2A
100
AcDbVisualStyle
  2
3D Hidden
 70
     6
177
     2
291
     0
 71
     1
176
     1
 72
     2
176
     1
 73
     2
176
     1
 90
        0
176
     1
 40
-0.6
176
     1
 41
-30.0
176
     1
 62
     5
 63
     7
421
 16777215
176
     1
 74
     2
176
     1
 91
        2
176
     1
 64
     7
176
     1
 65
   257
176
     1
 75
     2
176
     1
175
     1
176
     1
 42
40.0
176
     1
 92
        0
176
     1
 66
   257
176
     1
 43
1.0
176
     1
 76
     1
176
     1
 77
     6
176
     1
 78
     2
176
     1
 67
     7
176
     1
 79
     3
176
     1
170
     0
176
     1
171
     0
176
     1
290
     0
176
     1
 93
        1
176
     1
 44
0.0
176
     1
173
     0
176
     1
  0
VISUALSTYLE
  5
30
102
{ACAD_REACTORS
330
2A
102
}
330
2A
100
AcDbVisualStyle
  2
3dWireframe
 70
     5
177
     2
291
     0
 71
     0
176
     1
 72
     2
176
     1
 73
     0
176
     1
 90
        0
176
     1
 40
-0.6
176
     1
 41
-30.0
176
     1
 62
     5
 63
     7
421
 16777215
176
     1
 74
     1
176
     1
 91
        4
176
     1
 64
     7
176
     1
 65
   257
176
     1
 75
     1
176
     1
175
     1
176
     1
 42
1.0
176
     1
 92
        0
176
     1
 66
   257
176
     1
 43
1.0
176
     1
 76
     1
176
     1
 77
     6
176
     1
 78
     2
176
     1
 67
     7
176
     1
 79
     5
176
     1
170
     0
176
     1
171
     0
176
     1
290
     0
176
     1
 93
        1
176
     1
 44
0.0
176
     1
173
     0
176
     1
  0
VISUALSTYLE
  5
32
102
{ACAD_REACTORS
330
2A
102
}
330
2A
100
AcDbVisualStyle
  2
Basic
 70
     7
177
     2
291
     1
 71
     1
176
     1
 72
     0
176
     1
 73
     1
176
     1
 90
        0
176
     1
 40
-0.6
176
     1
 41
-30.0
176
     1
 62
     5
 63
     7
421
 16777215
176
     1
 74
     0
176
     1
 91
        4
176
     1
 64
     7
176
     1
 65
   257
176
     1
 75
     1
176
     1
175
     1
176
     1
 42
1.0
176
     1
 92
        8
176
     1
 66
     7
176
     1
 43
1.0
176
     1
 76
     1
176
     1
 77
     6
176
     1
 78
     2
176
     1
 67
     7
176
     1
 79
     5
176
     1
170
     0
176
     1
171
     0
176
     1
290
     0
176
     1
 93
        1
176
     1
 44
0.0
176
     1
173
     0
176
     1
  0
VISUALSTYLE
  5
36
102
{ACAD_REACTORS
330
2A
102
}
330
2A
100
AcDbVisualStyle
  2
Brighten
 70
    12
177
     2
291
     1
 71
     2
176
     1
 72
     2
176
     1
 73
     0
176
     1
 90
        0
176
     1
 40
-0.6
176
     1
 41
-30.0
176
     1
 62
     5
 63
     7
421
 16777215
176
     1
 74
     1
176
     1
 91
        4
176
     1
 64
     7
176
     1
 65
   257
176
     1
 75
     1
176
     1
175
     1
176
     1
 42
1.0
176
     1
 92
        8
176
     1
 66
     7
176
     1
 43
1.0
176
     1
 76
     1
176
     1
 77
     6
176
     1
 78
     2
176
     1
 67
     7
176
     1
 79
     5
176
     1
170
     0
176
     1
171
     0
176
     1
290
     0
176
     1
 93
        1
176
     1
 44
50.0
176
     1
173
     0
176
     1
  0
VISUALSTYLE
  5
3A
102
{ACAD_REACTORS
330
2A
102
}
330
2A
100
AcDbVisualStyle
  2
ColorChange
 70
    16
177
     2
291
     1
 71
     2
176
     1
 72
     2
176
     1
 73
     3
176
     1
 90
        0
176
     1
 40
-0.6
176
     1
 41
-30.0
176
     1
 62
     5
 63
     8
421
  8421504
176
     1
 74
     1
176
     1
 91
        4
176
     1
 64
     7
176
     1
 65
   257
176
     1
 75
     1
176
     1
175
     1
176
     1
 42
1.0
176
     1
 92
        8
176
     1
 66
     8
424
  8421504
176
     1
 43
1.0
176
     1
 76
     1
176
     1
 77
     6
176
     1
 78
     2
176
     1
 67
     7
176
     1
 79
     5
176
     1
170
     0
176
     1
171
     0
176
     1
290
     0
176
     1
 93
        1
176
     1
 44
0.0
176
     1
173
     0
176
     1
  0
VISUALSTYLE
  5
34
102
{ACAD_REACTORS
330
2A
102
}
330
2A
100
AcDbVisualStyle
  2
Conceptual
 70
     9
177
     2
291
     0
 71
     3
176
     1
 72
     2
176
     1
 73
     0
176
     1
 90
        0
176
     1
 40
-0.6
176
     1
 41
-30.0
176
     1
 62
     5
 63
     7
421
 16777215
176
     1
 74
     2
176
     1
 91
        2
176
     1
 64
     7
176
     1
 65
   257
176
     1
 75
     1
176
     1
175
     1
176
     1
 42
40.0
176
     1
 92
        8
176
     1
 66
     7
176
     1
 43
1.0
176
     1
 76
     1
176
     1
 77
     6
176
     1
 78
     2
176
     1
 67
     7
176
     1
 79
     3
176
     1
170
     0
176
     1
171
     0
176
     1
290
     0
176
     1
 93
        1
176
     1
 44
0.0
176
     1
173
     0
176
     1
  0
VISUALSTYLE
  5
35
102
{ACAD_REACTORS
330
2A
102
}
330
2A
100
AcDbVisualStyle
  2
Dim
 70
    11
177
     2
291
     1
 71
     2
176
     1
 72
     2
176
     1
 73
     0
176
     1
 90
        0
176
     1
 40
-0.6
176
     1
 41
-30.0
176
     1
 62
     5
 63
     7
421
 16777215
176
     1
 74
     1
176
     1
 91
        4
176
     1
 64
     7
176
     1
 65
   257
176
     1
 75
     1
176
     1
175
     1
176
     1
 42
1.0
176
     1
 92
        8
176
     1
 66
     7
176
     1
 43
1.0
176
     1
 76
     1
176
     1
 77
     6
176
     1
 78
     2
176
     1
 67
     7
176
     1
 79
     5
176
     1
170
     0
176
     1
171
     0
176
     1
290
     0
176
     1
 93
        1
176
     1
 44
-50.0
176
     1
173
     0
176
     1
  0
VISUALSTYLE
  5
39
102
{ACAD_REACTORS
330
2A
102
}
330
2A
100
AcDbVisualStyle
  2
Facepattern
 70
    15
177
     2
291
     1
 71
     2
176
     1
 72
     2
176
     1
 73
     0
176
     1
 90
        0
176
     1
 40
-0.6
176
     1
 41
-30.0
176
     1
 62
     5
 63
     7
421
 16777215
176
     1
 74
     1
176
     1
 91
        4
176
     1
 64
     7
176
     1
 65
   257
176
     1
 75
     1
176
     1
175
     1
176
     1
 42
1.0
176
     1
 92
        8
176
     1
 66
     7
176
     1
 43
1.0
176
     1
 76
     1
176
     1
 77
     6
176
     1
 78
     2
176
     1
 67
     7
176
     1
 79
     5
176
     1
170
     0
176
     1
171
     0
176
     1
290
     0
176
     1
 93
        1
176
     1
 44
0.0
176
     1
173
     0
176
     1
  0
VISUALSTYLE
  5
2B
102
{ACAD_REACTORS
330
2A
102
}
330
2A
100
AcDbVisualStyle
  2
Flat
 70
     0
177
     2
291
     1
 71
     2
176
     1
 72
     1
176
     1
 73
     1
176
     1
 90
        2
176
     1
 40
-0.6
176
     1
 41
30.0
176
     1
 62
     5
 63
     7
421
 16777215
176
     1
 74
     0
176
     1
 91
        4
176
     1
 64
     7
176
     1
 65
   257
176
     1
 75
     1
176
     1
175
     1
176
     1
 42
1.0
176
     1
 92
        8
176
     1
 66
     7
176
     1
 43
1.0
176
     1
 76
     1
176
     1
 77
     6
176
     1
 78
     2
176
     1
 67
     7
176
     1
 79
     5
176
     1
170
     0
176
     1
171
     0
176
     1
290
     0
176
     1
 93
       13
176
     1
 44
0.0
176
     1
173
     0
176
     1
  0
VISUALSTYLE
  5
2C
102
{ACAD_REACTORS
330
2A
102
}
330
2A
100
AcDbVisualStyle
  2
FlatWithEdges
 70
     1
177
     2
291
     1
 71
     2
176
     1
 72
     1
176
     1
 73
     1
176
     1
 90
        2
176
     1
 40
-0.6
176
     1
 41
30.0
176
     1
 62
     5
 63
     7
421
 16777215
176
     1
 74
     1
176
     1
 91
        4
176
     1
 64
     7
176
     1
 65
   257
176
     1
 75
     1
176
     1
175
     1
176
     1
 42
1.0
176
     1
 92
        0
176
     1
 66
   257
176
     1
 43
1.0
176
     1
 76
     1
176
     1
 77
     6
176
     1
 78
     2
176
     1
 67
     7
176
     1
 79
     5
176
     1
170
     0
176
     1
171
     0
176
     1
290
     0
176
     1
 93
       13
176
     1
 44
0.0
176
     1
173
     0
176
     1
  0
VISUALSTYLE
  5
2D
102
{ACAD_REACTORS
330
2A
102
}
330
2A
100
AcDbVisualStyle
  2
Gouraud
 70
     2
177
     2
291
     1
 71
     2
176
     1
 72
     2
176
     1
 73
     1
176
     1
 90
        2
176
     1
 40
-0.6
176
     1
 41
30.0
176
     1
 62
     5
 63
     7
421
 16777215
176
     1
 74
     0
176
     1
 91
        4
176
     1
 64
     7
176
     1
 65
   257
176
     1
 75
     1
176
     1
175
     1
176
     1
 42
1.0
176
     1
 92
        0
176
     1
 66
     7
176
     1
 43
1.0
176
     1
 76
     1
176
     1
 77
     6
176
     1
 78
     2
176
     1
 67
     7
176
     1
 79
     5
176
     1
170
     0
176
     1
171
     0
176
     1
290
     0
176
     1
 93
       13
176
     1
 44
0.0
176
     1
173
     0
176
     1
  0
VISUALSTYLE
  5
2E
102
{ACAD_REACTORS
330
2A
102
}
330
2A
100
AcDbVisualStyle
  2
GouraudWithEdges
 70
     3
177
     2
291
     1
 71
     2
176
     1
 72
     2
176
     1
 73
     1
176
     1
 90
        2
176
     1
 40
-0.6
176
     1
 41
30.0
176
     1
 62
     5
 63
     7
421
 16777215
176
     1
 74
     1
176
     1
 91
        4
176
     1
 64
     7
176
     1
 65
   257
176
     1
 75
     1
176
     1
175
     1
176
     1
 42
1.0
176
     1
 92
        0
176
     1
 66
   257
176
     1
 43
1.0
176
     1
 76
     1
176
     1
 77
     6
176
     1
 78
     2
176
     1
 67
     7
176
     1
 79
     5
176
     1
170
     0
176
     1
171
     0
176
     1
290
     0
176
     1
 93
       13
176
     1
 44
0.0
176
     1
173
     0
176
     1
  0
VISUALSTYLE
  5
38
102
{ACAD_REACTORS
330
2A
102
}
330
2A
100
AcDbVisualStyle
  2
Linepattern
 70
    14
177
     2
291
     1
 71
     2
176
     1
 72
     2
176
     1
 73
     0
176
     1
 90
        0
176
     1
 40
-0.6
176
     1
 41
-30.0
176
     1
 62
     5
 63
     7
421
 16777215
176
     1
 74
     1
176
     1
 91
        4
176
     1
 64
     7
176
     1
 65
   257
176
     1
 75
     7
176
     1
175
     7
176
     1
 42
1.0
176
     1
 92
        8
176
     1
 66
     7
176
     1
 43
1.0
176
     1
 76
     1
176
     1
 77
     6
176
     1
 78
     2
176
     1
 67
     7
176
     1
 79
     5
176
     1
170
     0
176
     1
171
     0
176
     1
290
     0
176
     1
 93
        1
176
     1
 44
0.0
176
     1
173
     0
176
     1
  0
VISUALSTYLE
  5
33
102
{ACAD_REACTORS
330
2A
102
}
330
2A
100
AcDbVisualStyle
  2
Realistic
 70
     8
177
     2
291
     0
 71
     2
176
     1
 72
     2
176
     1
 73
     0
176
     1
 90
        0
176
     1
 40
-0.6
176
     1
 41
-30.0
176
     1
 62
     5
 63
     7
421
 16777215
176
     1
 74
     1
176
     1
 91
        0
176
     1
 64
     7
176
     1
 65
   257
176
     1
 75
     1
176
     1
175
     1
176
     1
 42
1.0
176
     1
 92
        8
176
     1
 66
     8
424
  7895160
176
     1
 43
1.0
176
     1
 76
     1
176
     1
 77
     6
176
     1
 78
     2
176
     1
 67
     7
176
     1
 79
     5
176
     1
170
     0
176
     1
171
     0
176
     1
290
     0
176
     1
 93
       13
176
     1
 44
0.0
176
     1
173
     0
176
     1
  0
VISUALSTYLE
  5
37
102
{ACAD_REACTORS
330
2A
102
}
330
2A
100
AcDbVisualStyle
  2
Thicken
 70
    13
177
     2
291
     1
 71
     2
176
     1
 72
     2
176
     1
 73
     0
176
     1
 90
        0
176
     1
 40
-0.6
176
     1
 41
-30.0
176
     1
 62
     5
 63
     7
421
 16777215
176
     1
 74
     1
176
     1
 91
        4
176
     1
 64
     7
176
     1
 65
   257
176
     1
 75
     1
176
     1
175
     1
176
     1
 42
1.0
176
     1
 92
       12
176
     1
 66
     7
176
     1
 43
1.0
176
     1
 76
     1
176
     1
 77
     6
176
     1
 78
     2
176
     1
 67
     7
176
     1
 79
     5
176
     1
170
     0
176
     1
171
     0
176
     1
290
     0
176
     1
 93
        1
176
     1
 44
0.0
176
     1
173
     0
176
     1
  0
ENDSEC
  0
EOF
