<?xml version="1.0" encoding="utf-8"?>
<!-- Generator: Adobe Illustrator 25.0.1, SVG Export Plug-In . SVG Version: 6.00 Build 0)  -->
<svg version="1.1" id="Layer_1" xmlns="http://www.w3.org/2000/svg" xmlns:xlink="http://www.w3.org/1999/xlink" x="0px" y="0px"
	 viewBox="0 0 576 720" style="enable-background:new 0 0 576 720;" xml:space="preserve">
<g>
	<path d="M468.29,69.17h-360c-8,0-14.5,6.5-14.5,14.5v552c0,8,6.5,14.5,14.5,14.5h360c8,0,14.5-6.5,14.5-14.5v-552
		C482.78,75.68,476.28,69.17,468.29,69.17z M477.78,635.67c0,5.24-4.26,9.5-9.5,9.5h-360c-5.24,0-9.5-4.26-9.5-9.5v-552
		c0-5.24,4.26-9.5,9.5-9.5h360c5.24,0,9.5,4.26,9.5,9.5V635.67z"/>
	<path d="M458.78,608.31V111.04c0-1.38-1.12-2.5-2.5-2.5c-7.09,0-12.86-5.77-12.86-12.86c0-1.38-1.12-2.5-2.5-2.5H135.65
		c-1.38,0-2.5,1.12-2.5,2.5c0,7.09-5.77,12.86-12.86,12.86c-1.38,0-2.5,1.12-2.5,2.5v497.27c0,1.38,1.12,2.5,2.5,2.5
		c7.09,0,12.86,5.77,12.86,12.86c0,1.38,1.12,2.5,2.5,2.5h305.27c1.38,0,2.5-1.12,2.5-2.5c0-7.09,5.77-12.86,12.86-12.86
		C457.67,610.81,458.78,609.69,458.78,608.31z M453.78,605.99c-7.85,1.1-14.08,7.33-15.19,15.19H137.97
		c-1.1-7.85-7.34-14.08-15.19-15.19V113.36c7.85-1.1,14.08-7.34,15.19-15.19H438.6c1.1,7.85,7.33,14.08,15.19,15.19V605.99z"/>
	<path d="M359.56,166.53l5.84,2.83l3.28,6.33c0.67,1.3,2,2.11,3.55,2.11c0,0,0,0,0,0c1.48-0.04,2.84-0.93,3.45-2.27l2.65-5.77
		l6.45-3.26c1.39-0.7,2.22-2.16,2.13-3.72c-0.09-1.56-1.1-2.9-2.56-3.43l-6.06-2.2l-2.52-6.43c-0.58-1.49-1.99-2.46-3.65-2.48
		c-1.58,0.02-2.99,0.96-3.59,2.41l-2.78,6.74l-5.74,1.94c-1.5,0.51-2.54,1.86-2.65,3.45C357.27,164.36,358.13,165.84,359.56,166.53z
		 M368.43,161.76c0.68-0.23,1.24-0.75,1.51-1.41l2.17-5.26l1.93,4.94c0.26,0.67,0.8,1.19,1.47,1.44l4.74,1.72l-4.96,2.51
		c-0.5,0.25-0.91,0.67-1.14,1.19l-2.08,4.52l-2.63-5.07c-0.25-0.48-0.64-0.86-1.13-1.1l-4.17-2.02L368.43,161.76z"/>
	<path d="M424.54,231.57l-6.06-2.2l-2.52-6.44c-0.58-1.49-2-2.46-3.65-2.48c-1.58,0.02-2.99,0.96-3.59,2.41l-2.78,6.74l-5.74,1.94
		c-1.51,0.51-2.54,1.86-2.65,3.45c-0.1,1.59,0.76,3.06,2.19,3.75l5.84,2.83l3.28,6.33c0.67,1.3,2,2.11,3.55,2.11c0,0,0,0,0,0
		c1.48-0.04,2.84-0.93,3.45-2.27l2.65-5.77l6.45-3.26c1.39-0.7,2.22-2.16,2.13-3.71c0,0,0,0,0,0
		C427.01,233.45,426,232.1,424.54,231.57z M415.49,237.91c-0.5,0.25-0.91,0.67-1.14,1.19l-2.08,4.52l-2.63-5.07
		c-0.25-0.48-0.64-0.86-1.13-1.1l-4.17-2.02l4.28-1.44c0.68-0.23,1.24-0.75,1.51-1.41l2.17-5.26l1.93,4.94
		c0.26,0.67,0.8,1.19,1.48,1.44l4.74,1.72L415.49,237.91z"/>
	<path d="M135.19,281.29c-0.1,1.59,0.76,3.06,2.19,3.75l5.84,2.83l3.28,6.33c0.67,1.3,2,2.1,3.55,2.1c0,0,0,0,0,0
		c1.48-0.04,2.83-0.93,3.45-2.27l2.65-5.77l6.45-3.26c1.39-0.7,2.22-2.16,2.13-3.71c0,0,0,0,0,0c-0.09-1.55-1.1-2.9-2.56-3.43
		l-6.06-2.2l-2.52-6.44c-0.58-1.49-2-2.46-3.64-2.48c-1.58,0.02-2.99,0.96-3.59,2.41l-2.78,6.73l-5.74,1.94
		C136.33,278.34,135.29,279.7,135.19,281.29z M146.25,280.27c0.68-0.23,1.24-0.75,1.51-1.41l2.17-5.26l1.93,4.94
		c0.26,0.67,0.8,1.19,1.48,1.44l4.74,1.72l-4.96,2.51c-0.5,0.25-0.91,0.67-1.14,1.19l-2.08,4.52l-2.63-5.07
		c-0.25-0.48-0.64-0.86-1.13-1.1l-4.17-2.02L146.25,280.27z"/>
	<path d="M169.12,321.4l-5.74,1.94c-1.5,0.51-2.54,1.86-2.65,3.45c-0.1,1.59,0.76,3.06,2.19,3.76l5.84,2.83l3.28,6.33
		c0.67,1.3,2,2.11,3.55,2.11c0,0,0,0,0,0c1.48-0.04,2.84-0.93,3.45-2.27l2.65-5.77l6.45-3.26c1.39-0.7,2.22-2.16,2.13-3.72
		c-0.09-1.56-1.1-2.9-2.56-3.43l-6.06-2.2l-2.52-6.43c-0.58-1.49-1.99-2.46-3.65-2.48c-1.58,0.02-2.99,0.96-3.59,2.41L169.12,321.4z
		 M173.31,324.36l2.17-5.26l1.93,4.94c0.26,0.67,0.8,1.19,1.47,1.44l4.74,1.72l-4.96,2.51c-0.5,0.25-0.91,0.67-1.14,1.19l-2.08,4.52
		l-2.63-5.07c-0.25-0.48-0.64-0.86-1.13-1.1l-4.17-2.02l4.28-1.44C172.48,325.55,173.03,325.03,173.31,324.36z"/>
	<path d="M207.72,158.19l5.84,2.83l3.28,6.33c0.67,1.3,2,2.11,3.55,2.11c0,0,0,0,0,0c1.48-0.04,2.83-0.93,3.45-2.27l2.65-5.77
		l6.45-3.26c1.39-0.7,2.22-2.16,2.13-3.71c-0.09-1.56-1.1-2.9-2.56-3.43l-6.06-2.2l-2.52-6.43c-0.58-1.49-2-2.46-3.65-2.48
		c-1.58,0.02-2.99,0.96-3.59,2.41l-2.78,6.74l-5.74,1.94c-1.5,0.51-2.54,1.86-2.65,3.45C205.43,156.02,206.29,157.5,207.72,158.19z
		 M216.59,153.42c0.68-0.23,1.24-0.75,1.51-1.41l2.17-5.26l1.93,4.94c0.26,0.67,0.8,1.19,1.48,1.44l4.74,1.72l-4.96,2.51
		c-0.5,0.25-0.91,0.67-1.14,1.19l-2.08,4.52l-2.63-5.07c-0.25-0.48-0.64-0.86-1.13-1.1l-4.17-2.02L216.59,153.42z"/>
	<path d="M397.29,338.16l4.96,9.57c0.78,1.51,2.33,2.45,4.03,2.45c0.02,0,0.09,0,0.11,0c1.72-0.04,3.3-1.08,4.02-2.64l4.03-8.77
		l9.76-4.94c1.62-0.82,2.59-2.52,2.48-4.33c-0.11-1.81-1.28-3.38-2.98-4l-9.32-3.39l-3.86-9.87c-0.68-1.73-2.32-2.87-4.24-2.89
		c-1.85,0.02-3.49,1.12-4.19,2.81l-4.26,10.3l-8.86,2.99c-1.75,0.59-2.96,2.17-3.08,4.02c-0.12,1.85,0.89,3.56,2.55,4.37
		L397.29,338.16z M400.5,326.85c0.68-0.23,1.24-0.75,1.51-1.41l4.26-10.31l3.86,9.86c0.26,0.67,0.8,1.19,1.47,1.44l9.4,3.41
		l-9.59,4.85c-0.5,0.25-0.91,0.67-1.14,1.19l-4.01,8.72l-4.91-9.48c-0.25-0.48-0.64-0.86-1.13-1.1l-8.6-4.17L400.5,326.85z"/>
	<path d="M168.59,215.14l-3.86-9.87c-0.68-1.74-2.32-2.87-4.24-2.89c-1.85,0.02-3.49,1.12-4.19,2.81l-4.26,10.3l-8.86,2.99
		c-1.75,0.59-2.96,2.17-3.08,4.02c-0.12,1.85,0.89,3.56,2.55,4.37l8.86,4.3l4.96,9.57c0.78,1.51,2.33,2.45,4.03,2.45
		c0.02,0,0.09,0,0.11,0c1.72-0.04,3.3-1.08,4.02-2.64l4.03-8.77l9.76-4.94c1.62-0.82,2.59-2.52,2.48-4.33
		c-0.11-1.81-1.28-3.38-2.98-4L168.59,215.14z M165.62,227.72c-0.5,0.25-0.91,0.67-1.14,1.19l-4.01,8.72l-4.91-9.48
		c-0.25-0.48-0.64-0.86-1.13-1.1l-8.6-4.17l8.88-3c0.68-0.23,1.24-0.75,1.51-1.41l4.26-10.31l3.86,9.86
		c0.26,0.67,0.8,1.19,1.47,1.44l9.4,3.41L165.62,227.72z"/>
	<path d="M470.38,625.51c-0.6-0.47-2.46-1.92-3.76-3.02c-1.04-0.88-2.42-2.83-2.98-3.67c-0.55-1.08-1.66-1.76-2.94-1.77
		c-1.23,0.01-2.33,0.69-2.88,1.76c-0.86,1.33-2.36,3.57-3.01,4.33c-0.4,0.47-2.1,1.54-3.43,2.23c-1.14,0.48-1.91,1.56-1.99,2.81
		c-0.08,1.26,0.56,2.44,1.65,3.06c1.22,0.81,3.2,2.28,3.78,3.01l3.15,3.98c0.6,0.93,1.64,1.5,2.84,1.5c0,0,0,0,0,0
		c1.18-0.03,2.26-0.71,2.81-1.74c0.42-0.68,1.59-2.44,2.72-3.52c1.35-1.29,3.66-2.93,4.13-3.26c1.04-0.63,1.66-1.78,1.58-3.01
		c0,0,0,0,0,0C471.99,627.05,471.35,626.05,470.38,625.51z M462.89,630.85c-0.84,0.81-1.64,1.8-2.27,2.66l-1.87-2.37
		c-0.67-0.85-1.82-1.81-2.86-2.6c1.02-0.64,2.09-1.42,2.73-2.16c0.57-0.67,1.43-1.9,2.15-2.97c0.75,0.98,1.69,2.12,2.62,2.9
		c0.78,0.66,1.72,1.42,2.51,2.04C464.94,629.08,463.78,630,462.89,630.85z"/>
	<path d="M202.06,533.35c-5.04,0-9.14,4.1-9.14,9.14c0,5.04,4.1,9.14,9.14,9.14s9.14-4.1,9.14-9.14
		C211.2,537.45,207.1,533.35,202.06,533.35z M202.06,546.62c-2.28,0-4.14-1.86-4.14-4.14c0-2.28,1.86-4.14,4.14-4.14
		s4.14,1.86,4.14,4.14C206.2,544.77,204.34,546.62,202.06,546.62z"/>
	<path d="M126.11,625.51c-0.6-0.47-2.46-1.92-3.76-3.02c-1.04-0.88-2.43-2.84-2.98-3.67c-0.56-1.08-1.66-1.76-2.94-1.77
		c-1.22,0.01-2.33,0.69-2.88,1.75c-0.86,1.33-2.36,3.57-3.01,4.33c-0.4,0.47-2.1,1.54-3.43,2.23c-1.14,0.48-1.91,1.56-1.99,2.81
		c-0.08,1.26,0.56,2.44,1.65,3.06c1.22,0.81,3.2,2.28,3.78,3.01l3.15,3.98c0.6,0.93,1.64,1.5,2.84,1.5c0,0,0,0,0,0
		c1.18-0.03,2.26-0.71,2.81-1.74c0.42-0.68,1.59-2.44,2.72-3.52c1.35-1.29,3.66-2.93,4.13-3.26c1.04-0.63,1.66-1.78,1.58-3.01
		C127.72,627.06,127.08,626.05,126.11,625.51z M118.62,630.85c-0.85,0.81-1.64,1.8-2.27,2.66l-1.87-2.37
		c-0.67-0.85-1.82-1.81-2.86-2.6c1.02-0.64,2.09-1.42,2.73-2.16c0.58-0.67,1.43-1.9,2.15-2.97c0.75,0.98,1.69,2.12,2.62,2.9
		c0.78,0.66,1.72,1.42,2.51,2.04C120.66,629.08,119.5,630,118.62,630.85z"/>
	<path d="M470.38,89.54c-0.6-0.47-2.46-1.92-3.76-3.02c-1.04-0.88-2.42-2.83-2.98-3.67c-0.55-1.08-1.66-1.76-2.94-1.77
		c-1.23,0.01-2.33,0.69-2.88,1.76c-0.86,1.33-2.36,3.57-3.01,4.33c-0.4,0.47-2.1,1.54-3.43,2.23c-1.14,0.48-1.91,1.56-1.99,2.81
		c-0.08,1.26,0.56,2.44,1.65,3.06c1.22,0.81,3.2,2.28,3.78,3.01l3.15,3.98c0.6,0.93,1.64,1.5,2.83,1.5c0,0,0,0,0,0
		c1.18-0.03,2.26-0.7,2.81-1.73c0.24-0.38,1.46-2.32,2.72-3.53c1.35-1.29,3.65-2.93,4.13-3.26c1.04-0.63,1.66-1.78,1.59-3.01
		c0,0,0,0,0,0C471.99,91.08,471.35,90.08,470.38,89.54z M462.89,94.87c-0.85,0.81-1.64,1.8-2.27,2.66l-1.87-2.37
		c-0.67-0.85-1.82-1.81-2.86-2.6c1.02-0.64,2.09-1.42,2.73-2.16c0.57-0.67,1.43-1.9,2.15-2.97c0.75,0.98,1.69,2.12,2.62,2.9
		c0.78,0.66,1.72,1.42,2.51,2.04C464.94,93.1,463.78,94.03,462.89,94.87z"/>
	<path d="M106.78,95.26c1.22,0.81,3.2,2.28,3.78,3.01l3.15,3.98c0.6,0.93,1.64,1.5,2.83,1.5c0,0,0,0,0,0
		c1.18-0.03,2.26-0.7,2.81-1.73c0.23-0.38,1.46-2.32,2.72-3.53c1.35-1.29,3.65-2.93,4.13-3.26c1.04-0.63,1.66-1.78,1.59-3.01
		c-0.07-1.13-0.71-2.13-1.68-2.67c-0.6-0.47-2.46-1.92-3.76-3.02c-1.04-0.88-2.43-2.84-2.98-3.67c-0.56-1.08-1.66-1.76-2.94-1.77
		c-1.22,0.01-2.33,0.69-2.88,1.75c-0.86,1.33-2.36,3.57-3.01,4.33c-0.4,0.47-2.1,1.54-3.43,2.23c-1.14,0.48-1.91,1.56-1.99,2.81
		C105.05,93.46,105.69,94.64,106.78,95.26z M114.35,90.4c0.57-0.67,1.43-1.9,2.15-2.97c0.75,0.98,1.69,2.12,2.62,2.9
		c0.78,0.66,1.72,1.42,2.51,2.04c-0.96,0.73-2.12,1.65-3.01,2.5c-0.85,0.81-1.64,1.8-2.27,2.66l-1.87-2.37
		c-0.67-0.85-1.82-1.81-2.86-2.6C112.64,91.93,113.71,91.15,114.35,90.4z"/>
	<path d="M249.67,141.11c0.46,0.36,1,0.53,1.54,0.53c0.74,0,1.48-0.33,1.97-0.96l6.05-7.71l6.05,7.71c0.49,0.63,1.23,0.96,1.97,0.96
		c0.54,0,1.08-0.17,1.54-0.53c1.09-0.85,1.28-2.42,0.42-3.51l-6.81-8.68l6.81-8.68c0.85-1.09,0.66-2.66-0.42-3.51
		c-1.08-0.85-2.66-0.66-3.51,0.42l-6.05,7.71l-6.05-7.71c-0.85-1.09-2.43-1.28-3.51-0.42c-1.09,0.85-1.28,2.42-0.42,3.51l6.81,8.68
		l-6.81,8.68C248.39,138.69,248.58,140.26,249.67,141.11z"/>
	<path d="M286.24,140.77c0.02,0.05,0.04,0.09,0.06,0.14c0.02,0.05,0.04,0.1,0.07,0.15c0.05,0.1,0.11,0.19,0.17,0.28
		c0.02,0.03,0.04,0.06,0.06,0.09c0.09,0.12,0.19,0.23,0.3,0.33c0.02,0.02,0.05,0.04,0.07,0.06c0.09,0.08,0.18,0.15,0.28,0.21
		c0.04,0.03,0.08,0.05,0.12,0.07c0.1,0.06,0.2,0.1,0.31,0.15c0.03,0.01,0.05,0.03,0.07,0.03c0.01,0,0.03,0.01,0.04,0.01
		c0.09,0.03,0.19,0.05,0.28,0.07c0.04,0.01,0.08,0.02,0.12,0.03c0.13,0.02,0.27,0.03,0.4,0.03c0.14,0,0.27-0.01,0.4-0.03
		c0.04-0.01,0.07-0.02,0.11-0.03c0.1-0.02,0.19-0.04,0.29-0.08c0.01,0,0.03-0.01,0.04-0.01c0.03-0.01,0.05-0.02,0.07-0.03
		c0.11-0.04,0.21-0.09,0.31-0.15c0.04-0.02,0.08-0.05,0.12-0.07c0.1-0.06,0.19-0.13,0.28-0.21c0.02-0.02,0.05-0.04,0.07-0.06
		c0.11-0.1,0.21-0.21,0.3-0.33c0.02-0.03,0.04-0.06,0.06-0.09c0.06-0.09,0.12-0.18,0.17-0.28c0.02-0.05,0.05-0.1,0.07-0.15
		c0.02-0.05,0.04-0.09,0.06-0.14l7.83-22c0.46-1.3-0.22-2.73-1.52-3.19c-1.3-0.47-2.73,0.22-3.19,1.52l-5.48,15.39l-5.48-15.39
		c-0.46-1.3-1.89-1.98-3.19-1.52c-1.3,0.46-1.98,1.89-1.52,3.19L286.24,140.77z"/>
	<path d="M308.54,142.43c1.38,0,2.5-1.12,2.5-2.5v-22c0-1.38-1.12-2.5-2.5-2.5s-2.5,1.12-2.5,2.5v22
		C306.04,141.31,307.16,142.43,308.54,142.43z"/>
	<path d="M322.43,142.43c1.38,0,2.5-1.12,2.5-2.5v-22c0-1.38-1.12-2.5-2.5-2.5s-2.5,1.12-2.5,2.5v22
		C319.93,141.31,321.05,142.43,322.43,142.43z"/>
	<path d="M406.28,181.65c-4.71,0-8.54,3.83-8.54,8.54s3.83,8.54,8.54,8.54s8.54-3.83,8.54-8.54S410.99,181.65,406.28,181.65z
		 M406.28,193.73c-1.95,0-3.54-1.59-3.54-3.54s1.59-3.54,3.54-3.54s3.54,1.59,3.54,3.54S408.24,193.73,406.28,193.73z"/>
	<path d="M144.16,178.84c0.56,0,1.13-0.03,1.7-0.09c6.45-0.7,11.94-5.21,15.08-12.37c10.57-24.09-22.59-47.68-24-48.67
		c-1.13-0.79-2.69-0.52-3.48,0.61c-0.79,1.13-0.52,2.69,0.61,3.48c0.31,0.22,31.22,22.22,22.29,42.57
		c-3.29,7.5-8.33,9.11-11.04,9.41c-3.54,0.39-6.93-0.99-8.82-3.6c-1.81-2.49-1.96-5.77-0.41-9.23c0.56-1.26,0-2.74-1.26-3.3
		c-1.26-0.56-2.74,0-3.3,1.26c-2.27,5.09-1.93,10.27,0.94,14.21C135.09,176.74,139.46,178.84,144.16,178.84z"/>
	<path d="M180.49,137.96c3.54,0,7.14-0.74,10.71-2.47c7.03-3.42,11.33-9.08,11.78-15.55c0.37-5.34-1.98-10.39-6.14-13.18
		c-4.05-2.72-9.24-2.86-14.24-0.39c-1.24,0.61-1.75,2.11-1.13,3.35c0.61,1.24,2.11,1.75,3.35,1.13c3.4-1.68,6.68-1.66,9.24,0.06
		c2.67,1.79,4.18,5.12,3.94,8.68c-0.19,2.72-1.61,7.82-8.97,11.4c-19.99,9.7-43.16-20.33-43.39-20.63c-0.83-1.1-2.4-1.31-3.5-0.48
		c-1.1,0.84-1.31,2.4-0.48,3.5C142.53,114.55,160.58,137.96,180.49,137.96z"/>
	<path d="M439.93,157.65c-1.26,0.56-1.83,2.04-1.26,3.3c1.55,3.46,1.4,6.74-0.41,9.23c-1.9,2.6-5.28,3.98-8.82,3.6
		c-2.71-0.29-7.76-1.91-11.04-9.4c-8.93-20.35,21.98-42.35,22.29-42.57c1.13-0.79,1.4-2.35,0.61-3.48c-0.79-1.13-2.35-1.4-3.48-0.61
		c-1.42,0.99-34.57,24.57-24,48.67c3.14,7.16,8.64,11.67,15.08,12.37c0.57,0.06,1.14,0.09,1.7,0.09c4.69,0,9.07-2.11,11.7-5.72
		c2.87-3.94,3.21-9.12,0.94-14.21C442.67,157.65,441.19,157.09,439.93,157.65z"/>
	<path d="M383.55,135.49c3.57,1.73,7.17,2.47,10.71,2.47c19.92,0,37.97-23.41,38.85-24.58c0.83-1.1,0.62-2.67-0.48-3.5
		c-1.1-0.83-2.67-0.62-3.5,0.48c-0.23,0.3-23.4,30.34-43.39,20.63c-7.37-3.58-8.78-8.68-8.97-11.4c-0.25-3.56,1.26-6.88,3.94-8.68
		c2.56-1.72,5.84-1.74,9.24-0.06c1.24,0.61,2.74,0.1,3.35-1.13c0.61-1.24,0.1-2.74-1.13-3.35c-5-2.47-10.19-2.33-14.24,0.39
		c-4.16,2.79-6.51,7.84-6.14,13.17C372.22,126.41,376.52,132.08,383.55,135.49z"/>
	<path d="M160.94,553.09c-3.14-7.16-8.64-11.67-15.08-12.37c-5.32-0.57-10.46,1.58-13.4,5.63c-2.87,3.94-3.21,9.12-0.94,14.21
		c0.56,1.26,2.04,1.83,3.3,1.26c1.26-0.56,1.83-2.04,1.26-3.3c-1.55-3.46-1.4-6.74,0.41-9.23c1.9-2.6,5.27-3.98,8.82-3.6
		c2.71,0.29,7.76,1.91,11.04,9.4c8.93,20.35-21.98,42.35-22.29,42.57c-1.13,0.79-1.4,2.35-0.61,3.48c0.49,0.69,1.26,1.07,2.05,1.07
		c0.5,0,1-0.15,1.43-0.45C138.36,600.76,171.51,577.18,160.94,553.09z"/>
	<path d="M191.2,583.98c-23.67-11.49-48.51,20.73-49.56,22.11c-0.83,1.1-0.62,2.67,0.48,3.5c1.1,0.83,2.67,0.62,3.5-0.48
		c0.23-0.3,23.41-30.34,43.39-20.63c7.37,3.58,8.78,8.68,8.97,11.4c0.25,3.56-1.26,6.88-3.94,8.68c-2.56,1.72-5.84,1.74-9.24,0.06
		c-1.24-0.61-2.74-0.1-3.35,1.13c-0.61,1.24-0.1,2.74,1.13,3.35c2.37,1.17,4.79,1.76,7.1,1.76c2.56,0,5.01-0.72,7.13-2.14
		c4.16-2.79,6.51-7.84,6.14-13.17C202.53,593.07,198.23,587.4,191.2,583.98z"/>
	<path d="M428.89,540.72c-6.45,0.7-11.94,5.21-15.08,12.37c-10.57,24.1,22.59,47.68,24,48.67c0.44,0.31,0.94,0.45,1.43,0.45
		c0.79,0,1.56-0.37,2.05-1.07c0.79-1.13,0.52-2.69-0.61-3.48c-0.31-0.22-31.22-22.22-22.29-42.57c3.29-7.5,8.33-9.11,11.04-9.4
		c3.55-0.38,6.93,0.99,8.82,3.6c1.81,2.49,1.96,5.77,0.41,9.23c-0.56,1.26,0,2.74,1.26,3.3c1.26,0.56,2.74,0,3.3-1.26
		c2.27-5.09,1.93-10.27-0.94-14.21C439.35,542.3,434.22,540.15,428.89,540.72z"/>
	<path d="M383.55,583.98c-7.03,3.42-11.33,9.08-11.78,15.55c-0.37,5.34,1.98,10.39,6.14,13.17c2.13,1.43,4.57,2.14,7.13,2.14
		c2.32,0,4.73-0.58,7.1-1.76c1.24-0.61,1.75-2.11,1.13-3.35c-0.61-1.24-2.11-1.75-3.35-1.13c-3.4,1.68-6.68,1.66-9.24-0.06
		c-2.67-1.79-4.18-5.12-3.94-8.67c0.19-2.72,1.61-7.82,8.97-11.4c19.99-9.71,43.16,20.33,43.39,20.63c0.84,1.1,2.4,1.31,3.5,0.48
		c1.1-0.83,1.31-2.4,0.48-3.5C432.06,604.71,407.22,572.5,383.55,583.98z"/>
	<path d="M330.97,523.11c0.49-3.16,1.05-8.61,0.44-14.83c-0.55-5.55-3.65-8.58-6.13-11.02c-2.35-2.3-3.56-3.61-3.29-5.99
		c0.76-6.7,0.93-32.4-2.94-40.39c-2.18-4.51-2.48-6.56-2.97-9.95c-0.22-1.51-0.47-3.22-0.93-5.44c0.08-0.64,1.27-2.34,2.15-3.59
		c0.98-1.41,2.12-3.04,3.08-4.87c2.2,0.15,7.65,1.05,12.75,6.19c0.49,0.49,1.13,0.74,1.78,0.74c0.64,0,1.27-0.24,1.76-0.72
		c0.98-0.97,0.99-2.55,0.02-3.54c-4.42-4.46-9.14-6.34-12.58-7.13c3.87,0.34,10.81,1.4,17.64,4.73c0.35,0.17,0.73,0.25,1.09,0.25
		c0.93,0,1.82-0.52,2.25-1.41c0.6-1.24,0.09-2.74-1.15-3.34c-6.69-3.26-13.38-4.55-17.81-5.06c2.47-0.33,6.31-0.36,11.2,1.18
		c0.25,0.08,0.5,0.12,0.75,0.12c1.06,0,2.05-0.68,2.38-1.75c0.41-1.32-0.32-2.72-1.63-3.14c-7.23-2.28-12.73-1.62-15.61-0.93
		c-0.04-1.95-0.21-3.96-0.55-6.04c-0.9-5.58-4.08-11.55-5.34-13.75c0.89-5.89-1.94-17.21-2.29-18.56c-0.18-0.7-0.65-1.29-1.29-1.61
		c-0.64-0.32-1.4-0.36-2.06-0.09c-4.6,1.86-11.26,11.63-13.99,15.87c-4.7-0.84-10.84-0.08-13.94,0.42
		c-4.09-7.49-14.98-14.65-15.48-14.98c-1.13-0.74-2.65-0.44-3.42,0.67c-4.64,6.68-1.89,19.69-0.87,23.76
		c-1.18,1.92-3.75,6.38-4.85,10.3c-0.34,1.22-0.59,2.64-0.73,4.17c-2.67-0.73-8.43-1.67-16.21,0.78c-1.32,0.42-2.05,1.82-1.63,3.14
		c0.34,1.07,1.32,1.75,2.38,1.75c0.25,0,0.5-0.04,0.75-0.12c4.89-1.54,8.74-1.52,11.21-1.18c-4.43,0.51-11.13,1.8-17.82,5.06
		c-1.24,0.6-1.76,2.1-1.15,3.34c0.43,0.89,1.32,1.41,2.25,1.41c0.37,0,0.74-0.08,1.09-0.25c6.81-3.32,13.77-4.39,17.65-4.73
		c-3.44,0.79-8.17,2.67-12.59,7.13c-0.97,0.98-0.96,2.56,0.02,3.54c0.49,0.48,1.12,0.72,1.76,0.72c0.64,0,1.29-0.25,1.78-0.74
		c5.16-5.21,10.7-6.07,12.84-6.2c1.41,2.48,3.56,4.15,5.33,5.54c0.95,0.75,2.04,1.59,2.32,2.1c0.96,1.78,0.83,3.23-0.56,5.94
		c-4.37,8.54-7.38,28.38-6.68,38.02c0.22,3.07,0.68,5.12,1.02,6.62c0.69,3.06,0.87,3.88-2.57,10.05c-3.67,6.59-2.4,20.98-1.77,26.33
		c-3.19,1.56-9.69,5.4-12.57,11.83c-2.76,6.15-1.48,22.58,3.6,30.96c4.57,7.54,12.1,16.01,16.84,21.04
		c-6.85-0.56-17.95-2.76-23.61-10.89c-12.98-18.64-1.77-43.88,7.23-64.15l1.3-2.92c4.92-11.14,7.6-32.71-6.13-43.17
		c-7.76-5.91-13.1-3.7-15.04-2.48c-3.01,1.91-4.57,5.41-3.87,8.71c0.67,3.19,3.28,5.42,6.98,5.97c0.88,0.13,2.25,0.92,3.49,2.74
		c1.1,1.62,3.46,6.2,1.68,13.79c-1.39,5.92-4.41,12.78-7.62,20.04c-7.63,17.29-17.12,38.81-9.28,60.12
		c9.57,26.02,29.59,28.83,47.67,28.83c2.56,0,5.08-0.06,7.53-0.11c1.31-0.03,2.61-0.06,3.89-0.08c16.33-0.26,27.01-2.49,33.62-7.03
		c16.99-11.65,30.53-45.13,27.86-60.69C340.07,526.77,335.01,523.9,330.97,523.11z M310.65,590.71c-5.68,3.9-15.78,5.91-30.87,6.15
		c-1.29,0.02-2.6,0.05-3.92,0.08c-20.01,0.44-40.7,0.91-50.39-25.44c-7.14-19.41,1.52-39.05,9.16-56.38
		c3.3-7.48,6.42-14.55,7.91-20.92c1.57-6.71,0.69-13.17-2.41-17.74c-1.85-2.72-4.36-4.5-6.89-4.88c-1.12-0.17-2.52-0.66-2.82-2.06
		c-0.26-1.25,0.42-2.67,1.65-3.45c0.72-0.45,1.56-0.68,2.49-0.68c1.96,0,4.34,0.99,6.85,2.9c12.83,9.78,7.48,30.64,4.59,37.18
		l-1.29,2.91c-9.01,20.29-21.35,48.08-6.76,69.04c10.1,14.51,32.95,13.23,33.92,13.17c0.98-0.06,1.84-0.7,2.18-1.62
		c0.34-0.92,0.11-1.96-0.59-2.65c-0.14-0.14-13.78-13.64-20.36-24.48c-4.4-7.25-5.29-21.92-3.32-26.33
		c2.96-6.61,11.54-9.99,11.62-10.02c1.09-0.42,1.75-1.53,1.58-2.69c-0.74-5.18-2.01-19.77,0.95-25.07
		c4.03-7.23,4.05-9.24,3.08-13.58c-0.32-1.42-0.72-3.18-0.91-5.88c-0.64-8.95,2.22-27.72,6.15-35.39c1.58-3.08,2.73-6.5,0.51-10.6
		c-0.78-1.43-2.17-2.52-3.64-3.67c-1.74-1.36-3.55-2.77-4.38-4.7c-1.89-4.39-1.75-10-0.81-13.36c1.2-4.3,4.78-9.81,4.82-9.87
		c0.39-0.6,0.51-1.35,0.31-2.04c-1-3.56-2.83-12.81-1.19-18.33c4.08,3,10.39,8.35,12.06,12.81c0.43,1.15,1.63,1.82,2.84,1.58
		c2.83-0.58,11.1-1.77,15.29-0.43c1.09,0.35,2.28-0.09,2.89-1.06c2.69-4.34,6.95-10.33,10.07-13.45c1.03,4.9,1.92,10.99,1.24,13.45
		c-0.19,0.67-0.09,1.39,0.28,1.98c0.04,0.07,4.23,6.94,5.18,12.8c0.85,5.27,0.62,10.04-0.68,14.17c-0.79,2.52-2.41,4.83-3.84,6.88
		c-1.86,2.66-3.47,4.96-2.96,7.4c0.44,2.11,0.68,3.76,0.89,5.22c0.5,3.46,0.9,6.2,3.42,11.41c3.04,6.29,3.31,30.22,2.47,37.65
		c-0.56,4.92,2.27,7.68,4.76,10.12c2.2,2.16,4.28,4.2,4.66,7.94c0.86,8.7-0.84,15.94-0.86,16.01c-0.19,0.77,0.01,1.58,0.51,2.18
		c0.5,0.61,1.27,0.93,2.06,0.9c0.71-0.04,7.02-0.15,8.27,7.12C338.83,549.06,325.91,580.25,310.65,590.71z"/>
	<path d="M210.23,187.01c-0.85,0.85-0.97,2.19-0.29,3.19l40.73,58.99l-70.48,13.08c-1.19,0.22-2.05,1.26-2.04,2.46
		c0,1.21,0.86,2.24,2.05,2.46l70.51,12.91l-40.59,59.09c-0.68,0.99-0.56,2.33,0.29,3.19c0.85,0.85,2.19,0.97,3.19,0.29l58.99-40.73
		l13.08,70.48c0.22,1.19,1.25,2.04,2.46,2.04c0,0,0,0,0,0c1.21,0,2.24-0.86,2.46-2.05l12.91-70.51l59.09,40.59
		c0.99,0.68,2.33,0.56,3.19-0.29c0.85-0.85,0.97-2.19,0.29-3.19l-40.73-58.99l70.48-13.08c1.19-0.22,2.05-1.26,2.04-2.46
		c0-1.21-0.86-2.24-2.05-2.46l-70.51-12.91L365.87,190c0.68-0.99,0.56-2.33-0.29-3.19c-0.85-0.85-2.19-0.97-3.19-0.29l-58.99,40.73
		l-13.08-70.48c-0.22-1.19-1.26-2-2.46-2.04c-1.21,0-2.24,0.86-2.46,2.05L272.5,227.3l-59.09-40.59
		C212.42,186.03,211.08,186.15,210.23,187.01z M272.85,233.6c0.7,0.48,1.59,0.57,2.38,0.25c0.78-0.33,1.35-1.02,1.5-1.86
		l11.16-60.97l11.31,60.94c0.15,0.83,0.72,1.53,1.5,1.85c0.78,0.32,1.68,0.23,2.37-0.25l51-35.22l-35.09,51.09
		c-0.48,0.7-0.57,1.59-0.25,2.38c0.33,0.78,1.02,1.35,1.86,1.5l60.97,11.16l-60.94,11.31c-0.83,0.15-1.53,0.72-1.85,1.5
		c-0.32,0.78-0.23,1.68,0.25,2.37l35.22,51l-51.09-35.09c-0.7-0.48-1.59-0.57-2.38-0.25c-0.78,0.33-1.35,1.02-1.5,1.86l-11.16,60.97
		l-11.31-60.94c-0.15-0.83-0.72-1.53-1.5-1.85c-0.31-0.13-0.63-0.19-0.95-0.19c-0.5,0-1,0.15-1.42,0.44l-51,35.22l35.09-51.09
		c0.48-0.7,0.57-1.59,0.25-2.38c-0.33-0.78-1.02-1.35-1.86-1.5l-60.97-11.16l60.94-11.31c0.83-0.15,1.53-0.72,1.85-1.5
		c0.32-0.78,0.23-1.68-0.25-2.37l-35.22-51L272.85,233.6z"/>
	<path d="M306.48,217.42c0.32,0.13,0.65,0.2,0.97,0.2c0.97,0,1.9-0.57,2.3-1.53l16.91-39.97c0.54-1.27-0.06-2.74-1.33-3.28
		c-1.27-0.54-2.74,0.06-3.28,1.33l-16.91,39.97C304.61,215.42,305.21,216.88,306.48,217.42z"/>
	<path d="M376.76,226.46l-40.4,15.85c-1.29,0.5-1.92,1.96-1.41,3.24c0.39,0.99,1.33,1.59,2.33,1.59c0.3,0,0.61-0.06,0.91-0.17
		l40.4-15.85c1.29-0.5,1.92-1.96,1.41-3.24C379.49,226.59,378.04,225.96,376.76,226.46z"/>
	<path d="M379.56,302.36c0.53-1.28-0.08-2.74-1.35-3.27l-40.08-16.63c-1.27-0.53-2.74,0.08-3.27,1.35
		c-0.53,1.28,0.08,2.74,1.35,3.27l40.08,16.63c0.31,0.13,0.64,0.19,0.96,0.19C378.23,303.9,379.16,303.32,379.56,302.36z"/>
	<path d="M307.19,311.47c-1.26,0.55-1.84,2.03-1.28,3.29l17.44,39.74c0.41,0.94,1.33,1.5,2.29,1.5c0.34,0,0.68-0.07,1-0.21
		c1.26-0.55,1.84-2.03,1.28-3.29l-17.44-39.74C309.93,311.49,308.45,310.91,307.19,311.47z"/>
	<path d="M264.57,312.36l-17.37,39.76c-0.55,1.27,0.02,2.74,1.29,3.29c0.33,0.14,0.67,0.21,1,0.21c0.96,0,1.88-0.56,2.29-1.5
		l17.37-39.76c0.55-1.27-0.02-2.74-1.29-3.29C266.6,310.52,265.13,311.09,264.57,312.36z"/>
	<path d="M198.39,303.04c0.3,0,0.61-0.06,0.91-0.17l40.38-15.89c1.29-0.51,1.92-1.96,1.41-3.24c-0.51-1.29-1.96-1.92-3.24-1.41
		l-40.38,15.89c-1.29,0.51-1.92,1.96-1.41,3.24C196.45,302.44,197.39,303.04,198.39,303.04z"/>
	<path d="M237.74,246.71c0.34,0.16,0.7,0.24,1.06,0.24c0.94,0,1.84-0.53,2.27-1.44c0.59-1.25,0.05-2.74-1.2-3.33l-39.31-18.43
		c-1.25-0.58-2.74-0.05-3.33,1.2c-0.59,1.25-0.05,2.74,1.2,3.33L237.74,246.71z"/>
	<path d="M250.44,172.93c-1.28,0.51-1.9,1.97-1.39,3.25l16.15,40.27c0.39,0.98,1.33,1.57,2.32,1.57c0.31,0,0.62-0.06,0.93-0.18
		c1.28-0.51,1.9-1.97,1.39-3.25l-16.15-40.27C253.17,173.04,251.72,172.42,250.44,172.93z"/>
	<path d="M192.68,392.82c-6.8,2.22-11.28,8.51-11.15,15.66c0.02,1.07,0.71,2,1.73,2.33c1.01,0.33,2.12-0.02,2.77-0.87
		c1-1.32,2.36-2.29,3.94-2.81c0,0,0,0,0,0c4.24-1.38,8.82,0.94,10.2,5.19c0.85,2.62,0.33,5.46-1.41,7.61
		c-0.67,0.83-0.74,1.99-0.18,2.89c0.46,0.74,1.27,1.18,2.12,1.18c0.18,0,0.37-0.02,0.56-0.06c0.51-0.12,0.98-0.24,1.44-0.39
		c8.47-2.76,13.11-11.9,10.35-20.37C210.28,394.7,201.15,390.05,192.68,392.82z M205.51,416.13c0.18-1.78-0.01-3.61-0.58-5.37
		c-1.8-5.52-6.94-9.03-12.46-9.03c-1.34,0-2.71,0.21-4.05,0.65c-0.12,0.04-0.23,0.08-0.35,0.12c1.34-2.28,3.49-4.05,6.16-4.92
		c5.85-1.91,12.16,1.3,14.06,7.15C209.64,408.87,208.42,413.25,205.51,416.13z"/>
	<path d="M230.67,387.04c-0.67-8.08-15.57-17.38-23.11-17.48c-3.44-0.06-6.22,1.01-8.29,3.14c-2.05,2.12-2.9,4.86-3.24,6.92
		c-3.57-0.41-6.61-0.4-8.58-0.31l-1.26-7.73c-0.16-1.01-0.92-1.81-1.92-2.03c-1-0.23-2.03,0.18-2.6,1.02
		c-0.05,0.08-5.5,7.91-12.85,15.9c-7.71,8.38-21.02,13.63-21.15,13.68c-1.1,0.43-1.75,1.56-1.56,2.72c0.18,1.16,1.15,2.04,2.33,2.1
		l20.22,1.14c1.11,4.66,4.87,16.26,15.99,24.36c7.34,5.34,14.75,6.65,20.26,6.65c5.07,0,8.53-1.11,8.82-1.21
		c0.51-0.17,0.96-0.5,1.27-0.95l14.33-20.72c0.31-0.45,0.47-0.99,0.44-1.53c-0.02-0.48-0.45-8.52-5.28-16.52
		C227.72,394.71,231.07,391.83,230.67,387.04z M211.39,431.37c-2.9,0.73-13.41,2.61-23.8-4.96c-12.15-8.85-14.37-22.92-14.39-23.06
		c-0.17-1.18-1.15-2.07-2.33-2.14l-12.51-0.7c4.55-2.55,9.99-6.16,14.14-10.67c3.97-4.31,7.35-8.52,9.71-11.6l0.68,4.13
		c0.22,1.32,1.44,2.24,2.77,2.08c0.16-0.02,15.69-1.82,27.12,6.29c9.64,6.83,11.56,18.31,11.91,21.4L211.39,431.37z M221.48,392
		c-1.61-1.91-3.52-3.73-5.8-5.35c-4.71-3.34-9.93-5.2-14.72-6.22c0.22-1.32,0.72-3.05,1.92-4.27c1.09-1.11,2.58-1.65,4.62-1.61
		c6.09,0.08,17.82,8.4,18.19,12.89C225.91,390.06,223.21,391.41,221.48,392z"/>
	<path d="M193.94,516.75c0.32,0.14,0.66,0.21,0.99,0.21c0.97,0,1.89-0.56,2.29-1.51c7.89-18.17-0.39-44.24-27.9-56.4
		c-8.47-3.75-15.67-8.9-21.05-14.9c-3.69-10.49-2.89-20.11,2.38-29c0.7-1.19,0.31-2.72-0.88-3.42c-1.19-0.71-2.72-0.31-3.43,0.88
		c-3.88,6.56-5.68,13.39-5.4,20.56c-0.38-0.83-0.73-1.66-1.04-2.5c-2.64-7.09-2.63-14.09,0.02-19.7c0.59-1.25,0.06-2.74-1.19-3.33
		c-1.25-0.59-2.74-0.06-3.33,1.19c-3.23,6.84-3.3,15.21-0.19,23.58c1.87,5.03,4.79,9.82,8.56,14.2
		c4.02,10.77,12.29,22.25,24.83,34.58c23.09,22.7,10.96,56.46,10.84,56.8c-0.48,1.29,0.18,2.73,1.47,3.21
		c0.29,0.11,0.58,0.16,0.87,0.16c1.01,0,1.97-0.62,2.34-1.63c0.14-0.37,13.4-37.11-12.02-62.11c-7.67-7.54-13.63-14.69-17.91-21.5
		c3.95,2.86,8.34,5.39,13.1,7.49c27.18,12.02,31.18,36.38,25.33,49.84C192.09,514.73,192.67,516.2,193.94,516.75z"/>
	<path d="M140.05,498.8c3.06-1.56,8.21-0.01,9.58,1.81c0.83,1.1,2.4,1.32,3.5,0.49c1.1-0.83,1.32-2.4,0.49-3.5
		c-2.79-3.7-10.48-5.98-15.84-3.25c-2.14,1.09-6.81,4.66-3.91,14.2c2.27,7.45,7.51,11.73,14.38,11.74c0.01,0,0.02,0,0.03,0
		c7.55,0,15.3-5.2,17.27-11.6c4.87-15.81-3.66-25.02-11.19-33.14c-5.63-6.07-10.95-11.81-10.95-19.91c0-1.38-1.12-2.5-2.5-2.5
		s-2.5,1.12-2.5,2.5c0,10.06,6.24,16.79,12.28,23.31c7.25,7.82,14.1,15.21,10.08,28.27c-1.3,4.23-7.25,8.07-12.49,8.07
		c-0.01,0-0.01,0-0.02,0c-4.66-0.01-7.98-2.84-9.61-8.19C137.74,504.1,137.25,500.23,140.05,498.8z"/>
	<path d="M207.28,492.87c0,5.88,4.79,10.67,10.67,10.67c5.88,0,10.67-4.79,10.67-10.67s-4.79-10.67-10.67-10.67
		C212.07,482.2,207.28,486.99,207.28,492.87z M217.95,487.2c3.13,0,5.67,2.54,5.67,5.67s-2.54,5.67-5.67,5.67s-5.67-2.54-5.67-5.67
		S214.83,487.2,217.95,487.2z"/>
	<path d="M204.56,452.53c0-5.04-4.1-9.14-9.14-9.14c-5.04,0-9.14,4.1-9.14,9.14c0,5.04,4.1,9.14,9.14,9.14
		C200.46,461.67,204.56,457.57,204.56,452.53z M195.42,456.67c-2.28,0-4.14-1.86-4.14-4.14c0-2.28,1.86-4.14,4.14-4.14
		c2.28,0,4.14,1.86,4.14,4.14C199.56,454.81,197.7,456.67,195.42,456.67z"/>
	<path d="M341.42,476.94c-0.65-0.2-1.34-0.12-1.93,0.21c-0.59,0.33-1.02,0.87-1.2,1.52c-0.17,0.61-4.06,15.04,2.12,22.36
		c5.75,6.81,17.57,11.49,18.07,11.69c0.05,0.02,0.11,0.03,0.17,0.05c0.05,0.02,0.11,0.03,0.16,0.05c0.19,0.05,0.38,0.08,0.57,0.08
		c0.01,0,0.01,0,0.02,0c0.03,0,0.06-0.01,0.1-0.01c0.15-0.01,0.31-0.02,0.46-0.05c0.06-0.01,0.12-0.04,0.19-0.06
		c0.1-0.03,0.2-0.06,0.3-0.1c0.02-0.01,0.04-0.03,0.06-0.04c0.02-0.01,0.04-0.01,0.05-0.02c0.06-0.03,0.1-0.07,0.16-0.1
		c0.07-0.04,0.14-0.09,0.21-0.14c0.07-0.05,0.13-0.12,0.2-0.18c0.06-0.05,0.11-0.1,0.16-0.16c0.06-0.07,0.11-0.14,0.16-0.22
		c0.04-0.06,0.09-0.12,0.12-0.18c0.05-0.08,0.08-0.17,0.12-0.25c0.02-0.05,0.05-0.1,0.07-0.16c0.2-0.56,4.75-13.93-3.17-22.88
		C351.17,479.95,341.82,477.06,341.42,476.94z M344.24,497.8c-2.98-3.54-2.51-10.63-1.72-15.09c2.97,1.33,8.04,4.09,12.33,8.93
		c2.87,3.25,3.49,7.51,3.36,11.06l-4.51-8.64c-0.64-1.22-2.15-1.7-3.37-1.06c-1.22,0.64-1.7,2.15-1.06,3.37l4.45,8.53
		C350.41,503.09,346.61,500.62,344.24,497.8z"/>
	<path d="M379.95,465.28c5.43-8.26,5.68-16.87,5.68-17.23c0.01-0.67-0.24-1.32-0.71-1.8c-0.47-0.48-1.11-0.75-1.79-0.75c0,0,0,0,0,0
		c-1.42,0-13.97,0.23-18.75,7.13c-4.48,6.48-5.67,17.57-5.72,18.04c0,0.03,0,0.05,0,0.08c-0.01,0.09,0,0.18,0,0.27
		c0,0.07,0,0.15,0.01,0.22c0.01,0.09,0.03,0.18,0.05,0.27c0.02,0.07,0.03,0.14,0.05,0.21c0.03,0.09,0.07,0.17,0.11,0.26
		c0.03,0.07,0.06,0.13,0.09,0.2c0.04,0.08,0.1,0.15,0.15,0.22c0.04,0.05,0.07,0.11,0.11,0.16c0.01,0.01,0.03,0.02,0.04,0.04
		c0.01,0.01,0.02,0.03,0.03,0.04c0.04,0.05,0.09,0.08,0.14,0.12c0.07,0.06,0.13,0.13,0.21,0.18c0.07,0.05,0.14,0.09,0.21,0.14
		c0.07,0.04,0.14,0.09,0.22,0.12c0.08,0.04,0.16,0.06,0.24,0.09c0.08,0.03,0.16,0.05,0.24,0.07c0.08,0.02,0.16,0.03,0.25,0.04
		c0.06,0.01,0.11,0.02,0.17,0.03c0.08,0,0.44,0.03,1.02,0.03C365.22,473.43,375.01,472.79,379.95,465.28z M368.55,467.48l5.32-4.91
		c1.01-0.94,1.08-2.52,0.14-3.53c-0.94-1.01-2.52-1.08-3.53-0.14l-5.48,5.06c0.76-2.92,1.88-6.15,3.5-8.49
		c2.17-3.13,7.9-4.39,11.83-4.8c-0.47,2.83-1.65,7.45-4.55,11.87C374.01,465.21,371.22,466.68,368.55,467.48z"/>
	<path d="M371.65,534.04c-0.24-0.63-0.72-1.14-1.33-1.41c-0.62-0.27-1.32-0.29-1.94-0.03c-0.59,0.24-14.42,5.88-16.51,15.23
		c-1.94,8.7,1.5,20.94,1.65,21.46c0.01,0.03,0.02,0.05,0.03,0.08c0.03,0.09,0.06,0.17,0.1,0.25c0.03,0.07,0.06,0.13,0.09,0.2
		c0.04,0.08,0.1,0.15,0.15,0.23c0.04,0.06,0.08,0.12,0.13,0.18c0.06,0.07,0.12,0.13,0.19,0.19c0.05,0.05,0.11,0.1,0.17,0.15
		c0.07,0.05,0.14,0.1,0.21,0.14c0.05,0.03,0.1,0.07,0.16,0.1c0.02,0.01,0.04,0.01,0.05,0.02c0.02,0.01,0.04,0.03,0.06,0.04
		c0.1,0.05,0.2,0.07,0.3,0.1c0.06,0.02,0.12,0.05,0.19,0.06c0.19,0.05,0.38,0.07,0.57,0.07c0,0,0.01,0,0.01,0
		c0.21,0,0.42-0.03,0.62-0.09c0.03-0.01,0.06-0.01,0.08-0.02c0.02-0.01,0.04-0.01,0.06-0.01c0.57-0.19,13.96-4.66,16.29-16.38
		C375.16,543.62,371.8,534.43,371.65,534.04z M368.08,553.63c-0.84,4.26-3.86,7.33-6.76,9.37l4.14-8.82
		c0.59-1.25,0.05-2.74-1.2-3.33c-1.25-0.58-2.74-0.05-3.33,1.2l-4.09,8.71c-0.56-3.73-0.89-8.25-0.09-11.85
		c1.01-4.52,6.94-8.44,10.96-10.51C368.46,541.58,369.33,547.29,368.08,553.63z"/>
	<path d="M398.58,408.47c0.13-7.15-4.35-13.44-11.15-15.66c-8.47-2.76-17.61,1.88-20.37,10.35c-2.76,8.47,1.88,17.6,10.35,20.37
		c0.46,0.15,0.93,0.28,1.44,0.39c0.19,0.04,0.37,0.06,0.56,0.06c0.85,0,1.66-0.43,2.12-1.18c0.56-0.9,0.49-2.07-0.18-2.89
		c-1.74-2.15-2.26-4.99-1.41-7.61c1.38-4.24,5.96-6.57,10.2-5.19c1.58,0.51,2.94,1.48,3.94,2.81c0.64,0.85,1.75,1.2,2.77,0.87
		C397.87,410.47,398.56,409.54,398.58,408.47z M391.7,402.37c-6.86-2.23-14.27,1.53-16.51,8.39c-0.57,1.76-0.76,3.59-0.58,5.37
		c-2.92-2.88-4.14-7.26-2.79-11.41c1.53-4.7,5.92-7.7,10.61-7.7c1.14,0,2.3,0.18,3.45,0.55c2.67,0.87,4.82,2.65,6.16,4.92
		C391.93,402.45,391.82,402.41,391.7,402.37z"/>
	<path d="M411.46,406.1l20.22-1.14c1.17-0.07,2.14-0.94,2.33-2.1c0.19-1.16-0.47-2.29-1.56-2.72c-0.13-0.05-13.44-5.3-21.15-13.68
		c-7.35-7.99-12.79-15.82-12.85-15.9c-0.58-0.84-1.61-1.24-2.6-1.02c-0.99,0.22-1.75,1.03-1.92,2.03l-1.26,7.73
		c-1.97-0.09-5.01-0.1-8.58,0.31c-0.34-2.06-1.19-4.8-3.24-6.92c-2.07-2.13-4.87-3.2-8.29-3.14c-7.54,0.1-22.44,9.4-23.11,17.48
		c-0.4,4.8,2.95,7.68,6.19,9.16c-4.83,7.99-5.26,16.04-5.28,16.52c-0.02,0.54,0.13,1.08,0.44,1.53l14.33,20.72
		c0.31,0.45,0.75,0.78,1.27,0.95c0.29,0.1,3.75,1.21,8.82,1.21c5.51,0,12.93-1.31,20.26-6.65
		C406.59,422.36,410.35,410.76,411.46,406.1z M354.43,387.45c0.37-4.5,12.1-12.81,18.19-12.89c2.03-0.04,3.53,0.5,4.62,1.61
		c1.2,1.22,1.7,2.95,1.92,4.27c-4.78,1.02-10,2.89-14.72,6.22c-2.29,1.62-4.2,3.44-5.8,5.35
		C356.91,391.41,354.21,390.06,354.43,387.45z M368.73,431.37l-13.31-19.24c0.35-3.1,2.27-14.57,11.91-21.4
		c11.39-8.07,26.97-6.31,27.13-6.29c1.32,0.16,2.55-0.75,2.77-2.08l0.68-4.13c2.36,3.08,5.75,7.29,9.71,11.6
		c4.15,4.51,9.59,8.13,14.14,10.67l-12.51,0.7c-1.19,0.07-2.16,0.96-2.33,2.14c-0.02,0.14-2.17,14.16-14.39,23.06
		C382.13,433.99,371.61,432.1,368.73,431.37z"/>
	<path d="M441.37,407.64c-1.25,0.59-1.78,2.08-1.19,3.33c2.65,5.61,2.66,12.6,0.02,19.7c-0.31,0.84-0.67,1.67-1.04,2.5
		c0.28-7.16-1.51-14-5.4-20.56c-0.7-1.19-2.24-1.58-3.43-0.88c-1.19,0.7-1.58,2.24-0.88,3.42c5.27,8.89,6.07,18.51,2.38,29
		c-5.38,6-12.57,11.15-21.05,14.9c-27.51,12.16-35.79,38.23-27.9,56.4c0.41,0.94,1.33,1.51,2.29,1.51c0.33,0,0.67-0.07,0.99-0.21
		c1.27-0.55,1.85-2.02,1.3-3.29c-5.84-13.46-1.84-37.82,25.33-49.84c4.76-2.1,9.15-4.63,13.1-7.49
		c-4.29,6.81-10.25,13.96-17.91,21.5c-25.42,25-12.16,61.74-12.02,62.11c0.37,1.01,1.33,1.63,2.34,1.63c0.29,0,0.58-0.05,0.87-0.16
		c1.29-0.48,1.95-1.92,1.47-3.21c-0.12-0.34-12.25-34.1,10.84-56.8c12.54-12.33,20.8-23.82,24.83-34.58
		c3.77-4.38,6.69-9.17,8.56-14.2c3.11-8.37,3.05-16.74-0.19-23.58C444.11,407.59,442.62,407.06,441.37,407.64z"/>
	<path d="M441.42,496.28c-5.36-2.73-13.04-0.45-15.84,3.25c-0.83,1.1-0.61,2.67,0.49,3.5c1.1,0.83,2.67,0.61,3.5-0.49
		c1.37-1.82,6.52-3.37,9.58-1.81c2.8,1.43,2.31,5.29,1.4,8.29c-1.63,5.35-4.95,8.18-9.61,8.19c-0.01,0-0.01,0-0.02,0
		c-5.24,0-11.19-3.84-12.49-8.07c-4.02-13.06,2.83-20.45,10.08-28.27c6.04-6.51,12.28-13.25,12.28-23.31c0-1.38-1.12-2.5-2.5-2.5
		s-2.5,1.12-2.5,2.5c0,8.1-5.32,13.84-10.95,19.91c-7.53,8.12-16.06,17.33-11.19,33.14c1.97,6.4,9.71,11.6,17.27,11.6
		c0.01,0,0.02,0,0.03,0c6.87-0.01,12.12-4.29,14.38-11.74C448.24,500.94,443.57,497.37,441.42,496.28z"/>
	<path d="M441.09,289.25c0-4.71-3.83-8.54-8.54-8.54s-8.54,3.83-8.54,8.54s3.83,8.54,8.54,8.54S441.09,293.96,441.09,289.25z
		 M432.55,292.79c-1.95,0-3.54-1.59-3.54-3.54s1.59-3.54,3.54-3.54s3.54,1.59,3.54,3.54S434.5,292.79,432.55,292.79z"/>
	<path d="M143.63,353.49c4.71,0,8.54-3.83,8.54-8.54s-3.83-8.54-8.54-8.54s-8.54,3.83-8.54,8.54S138.92,353.49,143.63,353.49z
		 M143.63,341.41c1.95,0,3.54,1.59,3.54,3.54s-1.59,3.54-3.54,3.54s-3.54-1.59-3.54-3.54S141.68,341.41,143.63,341.41z"/>
	<path d="M187.92,189.89c4.71,0,8.54-3.83,8.54-8.54s-3.83-8.54-8.54-8.54s-8.54,3.83-8.54,8.54S183.21,189.89,187.92,189.89z
		 M187.92,177.8c1.95,0,3.54,1.59,3.54,3.54s-1.59,3.54-3.54,3.54s-3.54-1.59-3.54-3.54S185.97,177.8,187.92,177.8z"/>
</g>
</svg>
