<svg id="Layer_1" data-name="Layer 1" xmlns="http://www.w3.org/2000/svg" viewBox="0 0 278.61 864"><defs><style>.cls-1{fill:#a16e58;}</style></defs><title>Untitled-30</title><path class="cls-1" d="M206.8,844.5c-65.61-12.75-107.61-75-95.41-139.74,12-63.62,70-103.77,131-97a131.67,131.67,0,0,0-20-5.46,135.88,135.88,0,0,0-36.23-2.07V417.1c3-2.74,5.93-5.57,8.83-8.41,11.64-11.37,25.13-20.23,35.33-33.13,7.14-9,11.38-19.42,17.63-28.92,2.43-3.71,5.22-7.19,7.44-11,4.73-8.2,8.25-16.79,7.77-26.52-1.22-24.17-2.35-47.61,1.72-71.64a122.31,122.31,0,0,0,2-28.08,22.57,22.57,0,0,0-5.24-13.82c-29.34-34.72-71.3-48.7-106.89-74.76-9.9-7.25-16.9-18.08-21.08-29.5-7.64-20.89-8.55-45.43-9.7-67.45a11.52,11.52,0,0,0-6.49-10.33C85.57-4,43.59-5.61,4.38,15.29,1.89,16.62-.32,18.64,0,21.61,4.21,56.07,12.11,88.81,11.66,124c-.17,13.2.11,25.43,7.08,37.19,10.84,18.27,30.4,23.59,48.79,31.37,3.81,1.61,6.94,4,8.51,8.07a43.69,43.69,0,0,0,13.22,18.57,13.77,13.77,0,0,1,5.23,12.21c-.28,4.07-.47,8.15-.86,12.21-.27,2.82-.81,5.62-1.24,8.42-.1.65-.42,1.17-1.16,1.08s-1-.75-.89-1.47c.07-.52.17-1,.27-1.57a86.31,86.31,0,0,0,1.31-11.45c0-.4.13-1.05-.07-1.18-.46-.29-.86.21-1.2.51a41.05,41.05,0,0,0-7.24,7.77,6.2,6.2,0,0,1-.49.73c-.39.44-.85.69-1.4.3a1,1,0,0,1-.3-1.41,19,19,0,0,1,1.37-2.07,32.74,32.74,0,0,1,7.55-7.45c1.94-1.27,2.26-2.77,2.33-4.84a11.7,11.7,0,0,0-4.92-10.26,48.32,48.32,0,0,1-3.79-3.21c-.77-.74-1.15-.61-1.76.19a68.75,68.75,0,0,0-11.65,24.19c-3.8,15.34,7.69,24.79,16.91,34.88,4.59,5,9.64,9.42,16.07,12a14.91,14.91,0,0,0,15-1.91,22.77,22.77,0,0,0,7.79-10.17c3.33-8.35,4.94-17.15,6.36-26a165.64,165.64,0,0,0,1.53-17c.05-.81.07-1.87,1.22-1.81s.92,1,.88,1.8c-.72,15.48-5,68.94-33.54,57a45,45,0,0,1-13.19-8.84c-5.14-4.74-9.27-12.83-17.11-12.82a23.18,23.18,0,0,0-12.52,3.6c-13.14,9.16,8.27,20.62,14.64,25.2,5.35,3.85,9.82,8.41,14.67,12.78a28.18,28.18,0,0,0,19.46,7.74c11.18,0,22.37-1.23,33.54-.87,3,.1,6.21.19,9.13-.94a25.72,25.72,0,0,0,12-9.37c6.6-9.38,7.74-20.64,9-31.7q2.07-18.86,2.73-37.83c0-.57.13-1.26.67-1.44.81-.27,1.28.92,1.3,1.78.35,12.71-.85,25.31-2,37.94-1.05,11.3-3.19,23.21-10.06,32.56-4.7,6.4-10.69,10.87-19.08,11-1,0-3.39,1.18-4.26,1.56-18,8-33.61,3.94-45.93,18.52-5.14,6.08-3.34,13.3,4,16.2,11.82,4.63,26.27,2.6,38.79,4.13,9.54,1.17,18.14,1.73,26.83-3.43a139.3,139.3,0,0,0,24.6-18c7.26-6.84,16.95-12.31,19.62-22.66a343.29,343.29,0,0,0,7.65-39.7,4.75,4.75,0,0,1,.2-.64,1.57,1.57,0,0,1,.18.57c-.13,3.38.51,6.72.62,10.08.4,12.6,2.89,26.72-3.23,38.39-10.59,20.17-19.77,41.69-37.7,56.77-6.09,5.12-10.95,11.09-13.77,18.6-2.71,7.21-2.27,14,2.48,20.33a9.88,9.88,0,0,0,4.27,3.34,9.56,9.56,0,0,0,7,.15V601.25C122.46,609.34,77.82,651,67.2,707.79A132,132,0,0,0,278.61,835.71,119.75,119.75,0,0,1,206.8,844.5ZM188,202.46c-.42,1.12-1.32.67-2.09.34A38.92,38.92,0,0,0,166,199.75a40.44,40.44,0,0,0-8.58,2.17c-.73.24-1.58.66-1.95-.38s.51-1.33,1.24-1.59A41.48,41.48,0,0,1,170,197.33c5.42.4,11.31.88,16.76,3.54C187.46,201.2,188.41,201.45,188,202.46Zm29.16,0a28.13,28.13,0,0,0-16.87,1.06c-.81.31-2,1.34-2.58-.09s1-1.52,1.85-1.86a33,33,0,0,1,10.91-2.08,42.71,42.71,0,0,1,9.59,1.52c.33.1.68.21,1,.34.65.28,1.16.71.86,1.49s-.91.65-1.51.49C219.35,203,218.28,202.72,217.19,202.46Z"/><path class="cls-1" d="M172.48,382.8c1.6-1.49,3.25-2.93,4.86-4.41a97,97,0,0,0,12.34-13.2c4.22-5.67,7.34-12,10.5-18.27a6.78,6.78,0,0,0,.78-2.15c-.41-3.17-.87-6.15-1.07-9.16-.06-.91.19-2.32-.49-2.58s-1.53.88-2.24,1.48c-4.73,4-8.92,8.65-14,12.26-6.5,4.63-12.74,9.65-20.08,13-1.23.55-.92,1.32-.65,2.14a152.46,152.46,0,0,0,8.38,20.68C171.33,383.59,171.76,383.48,172.48,382.8Z"/></svg>