<svg id="Layer_1" data-name="Layer 1" xmlns="http://www.w3.org/2000/svg" viewBox="0 0 514.89 864"><defs><style>.cls-1{fill:#a16e58;}</style></defs><title>Untitled-30</title><path class="cls-1" d="M257.44,27.81C129.81,27.81,26,131.65,26,259.28V604.72c0,127.63,103.84,231.47,231.47,231.47S488.92,732.35,488.92,604.72V259.28C488.92,131.65,385.08,27.81,257.44,27.81ZM228.41,529c-.77-9.61-2.84-16.55-6.19-21.06a99.35,99.35,0,0,0,14.36.91h1.64a101,101,0,0,0,48.2-12.45,108.77,108.77,0,0,0-6,16.26c-4.87,16.4-8.15,33.5-11.1,49.62a85.27,85.27,0,0,1-3.42,13.61c-2.11,5.79-6.29,10.45-10.05,14.36a127,127,0,0,1-21.12,17.49A194.31,194.31,0,0,1,213,620.8c.08-5.37.23-11.49.72-17.47a48.33,48.33,0,0,1,1.44-8.82c1.31-4.84,2.85-9.85,4.35-14.7C224.57,563.33,229.82,546.29,228.41,529Zm-16.77-20.1a8,8,0,0,1,5.19,4c2,3.2,2.88,6.84,3.72,10.59,2.09,9.28.87,18.7-.77,27.49a205.79,205.79,0,0,1-6.16,23.64c-4.28,13.7-7.19,25.39-7.53,37.91,0,1.13-.09,2.26-.14,3.39a69.09,69.09,0,0,0-.1,7.77v.07a28,28,0,0,0-3.68,1.07,3.77,3.77,0,0,0-2.16,2,3.5,3.5,0,0,0,0,2.75,3.44,3.44,0,0,0,4.33,2l1.09-.32a62.07,62.07,0,0,0,9.16-3.28c18.24-8.77,34.56-20.37,47.21-33.55,7-7.25,11.22-14.91,13.05-23.41,1.2-5.53,2.32-11.08,3.43-16.64,1.56-7.73,3.16-15.73,5-23.53l.34-1.5c2.78-12,5.65-24.45,11.93-34.77a21.91,21.91,0,0,1,4.41-5.36,2.82,2.82,0,0,1,4.25.12,8.48,8.48,0,0,1,2.53,4c1.93,6.9,1.71,14.46,1.49,21.77l-.08,2.82c-.25,9.79-1.18,19.71-2.08,29.31-.69,7.38-1.4,15-1.8,22.58-.7,12.94-3.13,22.73-7.43,29.94-2.85,4.76-6.92,8.24-11.22,11.93l-.59.5c-8.71,7.48-19.77,17.78-28,31.23-1.58,2.6-.54,4.54.82,5.4a3.33,3.33,0,0,0,2.61.47,4.22,4.22,0,0,0,2.64-2.12c6.49-10.71,15.11-20.26,26.36-29.21,4.93-3.92,10.45-8.83,14.07-15.55,12.29-22.82,15.16-48,16.35-69.61.57-10.26,1.57-22.34,4.69-34.07a25.2,25.2,0,0,1,6.52-12c.59-.58,1.15-.93,1.54-.86s.88.45,1.36,1.14a10.88,10.88,0,0,1,1.56,4.15,75.79,75.79,0,0,1,1.15,11.45,91.84,91.84,0,0,0,1,10.73c.52,3,1.23,6,1.91,8.83,1.3,5.46,2.53,10.6,2.54,16.18,0,6-.53,12.09-1.06,18a176.69,176.69,0,0,0-1,21c.05,1.6.11,3.19.18,4.79.18,4.38.37,8.91.13,13.33A32,32,0,0,1,338,606.07c-4.4,10.56-13,18.7-21.38,26.56l-.31.3c-7.59,7.15-17.18,17-24,29.5l-.11.2A16.27,16.27,0,0,0,291,665a3.49,3.49,0,0,0,6,3.42,5.61,5.61,0,0,0,.84-1.28c3.24-6.38,7.51-12,12.93-18.55a151.71,151.71,0,0,1,12.65-13c1.72-1.63,3.44-3.26,5.13-4.92a93.69,93.69,0,0,0,8.9-9.79c-.14.77-.29,1.53-.47,2.29-1.29,5.63-2.88,11.3-4.42,16.79-1.06,3.8-2.16,7.73-3.16,11.63a123,123,0,0,0-3.8,29.31,7.53,7.53,0,0,0,.42,3,3.51,3.51,0,0,0,6.81-1.28c0-.39,0-.79-.05-1.18s0-.66,0-1A111.58,111.58,0,0,1,336.37,653c.17,1.09.33,2.18.5,3.26,1.15,7.56,2.35,15.37,3.62,23,1.24,7.43-1.06,13.46-7,18.43a154.75,154.75,0,0,1-15.66,11.63c-5.23,3.35-10.71,6.52-16,9.59-3.23,1.86-6.45,3.73-9.65,5.65A230.53,230.53,0,0,1,269.69,736c-1.53.7-3.07,1.37-4.61,2-2.29,1-4.65,2-7,3.15a106,106,0,0,0-16.22,9.4A28.71,28.71,0,0,0,231.27,765a36.39,36.39,0,0,0-1.3,9.08,44.53,44.53,0,0,1-.63,6.25c-.93,4.62-3.63,8.83-6.23,12.9l-.2.31c-5.06,7.9-8,16.7-10.84,25.2l-.57,1.72A219.46,219.46,0,0,1,137.93,790a11,11,0,0,0,.44-1.16,238.07,238.07,0,0,0,10.29-57.77c.1-1.89.19-3.78.28-5.67.39-8.39.8-17.06,2-25.47,1.18-8.08,3.68-15.41,6.33-23.16.73-2.13,1.46-4.27,2.17-6.44,4.19-12.84,5.76-26.23,7.28-39.17.63-5.37,1.28-10.92,2.11-16.37a140.23,140.23,0,0,1,9.67-34.33c2.17-5,4.74-9.94,7.22-14.72a180.56,180.56,0,0,0,9.35-19.91,119.82,119.82,0,0,0,3.88-13.5c1.94-8,3.78-15.46,8.21-21.88C208.36,508.78,209.48,508.38,211.64,508.86Zm266.42,95.86c0,121.65-99,220.62-220.62,220.62h0a220.5,220.5,0,0,1-38.79-3.49c.1-.29.2-.58.28-.85l.15-.52a131.05,131.05,0,0,1,7.56-19.24c1.05-2.11,2.34-4.21,3.58-6.24,2.39-3.88,4.85-7.89,6-12.55a26.41,26.41,0,0,0,.6-6.3c0-.95,0-1.9.09-2.84.5-6.83,3.08-12,7.9-15.92A79.63,79.63,0,0,1,262.54,747l4.76-2.13c7.78-3.47,15.82-7,23.43-11.3l3.17-1.78c11.63-6.49,23.65-13.2,34.6-21.17l1.49-1.08c5.21-3.77,11.13-8,14.44-13.95,3.18-5.67,4.11-12.94,2.7-21-1.78-10.15-3.79-22.14-5.24-34.13a23.48,23.48,0,0,1,.5-9.47c1.76-6.26,2.37-12.72,3-19,.27-2.87.55-5.84.94-8.73,1.19-8.86,1.14-17.88,1.1-26.6,0-2,0-4.09,0-6.14,0-5.5.57-11.11,1.11-16.53.37-3.73.75-7.57,1-11.39.48-8.83-1.56-17.31-3.39-23.71-1.61-5.63-2.08-11.66-2.53-17.5l0-.38c-.08-1-.13-2-.19-3-.27-5-.57-10.6-3.49-15-2.55-3.85-5.81-4.4-8.1-4.19A9.29,9.29,0,0,0,326,481.7a28.63,28.63,0,0,0-7.47,12c-1.21,4-2.23,8.15-3,12.34a52.76,52.76,0,0,0-1.8-14.34,14.9,14.9,0,0,0-7.55-9.32q2.06-1.85,4-3.79a102.7,102.7,0,0,0,30.24-75.08c-1-51.65-38.7-94-89.72-100.75l-5-.66,4.38,2.43a93.39,93.39,0,1,1-95.94,160.14L149.87,462l3,4.1A103.4,103.4,0,0,0,204,503.69a15,15,0,0,0-3.38,3.79c-.78,1.21-1.46,2.44-2,3.37-2.87,5.23-4.25,10.94-5.57,16.47-.59,2.43-1.19,4.95-1.91,7.36-3.18,10.61-7.89,20.14-12.88,30.24-1.11,2.26-2.23,4.52-3.33,6.8a147.65,147.65,0,0,0-12.44,37,168.06,168.06,0,0,0-2.07,18.47c-.37,5-.76,10.12-1.52,15.11-1.49,9.83-4.65,19.47-7.7,28.8-1.86,5.69-3.79,11.57-5.34,17.48-3.51,13.4-4.23,27.39-4.93,40.93-.43,8.26-.87,16.8-1.94,25A153.41,153.41,0,0,1,135.67,773c-.92,3.53-2.06,7.08-3.15,10.52-.26.8-.5,1.59-.76,2.39C74.44,746,36.82,679.69,36.82,604.72V259.28c0-121.65,99-220.62,220.62-220.62s220.62,99,220.62,220.62Z"/><path class="cls-1" d="M439.48,72.85C390.86,25.87,326.21,0,257.44,0S124,25.87,75.4,72.85,0,182.3,0,248.74V615.26C0,681.7,26.78,744.17,75.4,791.15S188.68,864,257.44,864s133.42-25.87,182-72.85,75.41-109.45,75.41-175.89V248.74C514.89,182.3,488.11,119.83,439.48,72.85Zm64.71,542.41c0,131.46-110.69,238.4-246.75,238.4h0c-136,0-246.74-106.94-246.74-238.4V248.74c0-131.46,110.69-238.4,246.74-238.4s246.75,106.94,246.75,238.4Z"/><path class="cls-1" d="M275.61,713.33a7.43,7.43,0,0,0-1.44.79,3.4,3.4,0,0,0-1.16,4.23,3.32,3.32,0,0,0,2.9,2.08,3.7,3.7,0,0,0,1-.09,11.64,11.64,0,0,0,2.12-.75,139.6,139.6,0,0,1,16.69-6.41,33.24,33.24,0,0,0,8.72-3.81c6.93-4.53,10.12-10.68,9.49-18.29l-.17-1.91a66.22,66.22,0,0,1-.34-11.45l.05-.93c.05-.73.09-1.46.11-2.19a4.08,4.08,0,0,0-1.11-3,3.22,3.22,0,0,0-2.41-.92,3.55,3.55,0,0,0-3.55,3.56l-.09,1.34c-.12,1.63-.24,3.31-.26,5,0,2.49.15,5,.34,7.37.13,1.7.27,3.46.32,5.17a9.41,9.41,0,0,1-1.75,6.07,16.2,16.2,0,0,1-7.9,5.92l-3.09,1.07a181.27,181.27,0,0,0-18.24,7.06Z"/><path class="cls-1" d="M236.38,704.25A3.83,3.83,0,0,0,235,706.9a3.41,3.41,0,0,0,.9,2.49,3.53,3.53,0,0,0,2.41,1.2,4,4,0,0,0,2.41-.72,60.06,60.06,0,0,1,11-5.63l1.08-.44c2.37-1,4.83-2,7.18-3.2,7.78-4.11,12.62-10.35,14.39-18.54.72-3.31,1.28-6.7,1.82-10,.22-1.36.45-2.72.68-4.08a37.39,37.39,0,0,1,1.12-4.68l.09-.28v-.3a3.51,3.51,0,0,0-2.66-3.74,3.45,3.45,0,0,0-4.21,2.25,24.52,24.52,0,0,0-.83,2.87c-.71,3-1.19,6.09-1.65,9.07-.16,1.06-.33,2.12-.51,3.19-.66,4-1.32,7.31-3.21,10.24a22.06,22.06,0,0,1-10.42,8.67l-1.15.48a109,109,0,0,0-15,7.05A13.59,13.59,0,0,0,236.38,704.25Z"/><path class="cls-1" d="M190.82,675.43a3.45,3.45,0,0,0,3.1,2.56h0a4.56,4.56,0,0,0,2.54-.64,38.25,38.25,0,0,1,11.41-3.61l3-.4c1.95-.27,3.91-.53,5.86-.87,8.84-1.54,14.94-5.63,18.63-12.49l1.1-2.06A58.51,58.51,0,0,1,243.3,647a3.63,3.63,0,0,0,.93-2.5,3.59,3.59,0,0,0-6.2-2.22,19.79,19.79,0,0,0-2.84,3.7l-2.5,4.28c-1.5,2.58-3,5.16-4.54,7.71a12,12,0,0,1-5.46,5.23,32.78,32.78,0,0,1-8.8,2.5l-2.12.28A62.87,62.87,0,0,0,200,668.23a46.12,46.12,0,0,0-7.25,3A3.53,3.53,0,0,0,190.82,675.43Z"/><path class="cls-1" d="M397.07,226.26a3.68,3.68,0,0,0-.79-2.32,4,4,0,0,0-2.81-1.45c-1.61-.16-3.34,1.22-4,2.07-18.52,23.22-53,67.47-70.52,90.09a4.4,4.4,0,0,0-1,3.61,3.6,3.6,0,0,0,1.82,2.43,3.7,3.7,0,0,0,1.79.48,4.51,4.51,0,0,0,3.47-1.9c17.67-22.52,70.8-89.95,70.8-89.95A4.81,4.81,0,0,0,397.07,226.26Z"/><path class="cls-1" d="M349.75,354a3.43,3.43,0,0,0-1,4,3.88,3.88,0,0,0,3.72,2.56,1.54,1.54,0,0,0,.3,0c28.16-10.68,80.93-30.51,107.87-40.68a3.67,3.67,0,0,0,2.07-4.88,3.76,3.76,0,0,0-4.88-2.21c-27.58,10.46-80.34,30.45-107.72,41A1.69,1.69,0,0,0,349.75,354Z"/><path class="cls-1" d="M294.27,178.74a3.7,3.7,0,0,0-4.29,3.08c-4.52,28-13.18,81.25-17.13,108.4a3.62,3.62,0,0,0,2.35,4.13,4,4,0,0,0,1.5.22,3.48,3.48,0,0,0,2.73-1.3,4.79,4.79,0,0,0,1-2.52s12.69-80.07,17.07-107.62A3.68,3.68,0,0,0,294.27,178.74Z"/><path class="cls-1" d="M213.13,289.72a3.91,3.91,0,0,0,3.66,2.82,3.82,3.82,0,0,0,3.6-5.1c-7.93-25.06-23.93-75.17-31.95-100.22a4.08,4.08,0,0,0-3.72-3.17,3.56,3.56,0,0,0-3,1.39,4.41,4.41,0,0,0-.55,4.05c7.89,25.09,23.7,75.25,32,100.21Z"/><path class="cls-1" d="M248.76,248.68a4.29,4.29,0,0,0-1.32-3.18,3.71,3.71,0,0,0-2.71-1c-2.24.09-3.78,2-3.7,4.46.31,8.64.85,25.92,1.13,34.57a4.71,4.71,0,0,0,1.37,3.41,3.58,3.58,0,0,0,2.31.94h.36c2.19-.1,3.74-1.84,3.66-4.48-.26-8.68-1.13-26.06-1.1-34.75Z"/><path class="cls-1" d="M244,231.39h.29a3.74,3.74,0,0,0,3.74-4.06c0-4-.4-11.8-.49-16a3.82,3.82,0,0,0-7.63.27c.13,4.14.31,11.65.44,15.53C240.4,229.67,241.83,231.29,244,231.39Z"/><path class="cls-1" d="M320.3,266.27a3.64,3.64,0,0,0-2-2.1c-2-.95-4.26,0-5.33,2.26-3.71,7.82-11.18,23.41-14.9,31.21a4.71,4.71,0,0,0-.36,3.66,3.57,3.57,0,0,0,1.94,2.06,3.73,3.73,0,0,0,1.56.36,4.29,4.29,0,0,0,3.76-2.66c3.78-7.72,11.26-23.52,15-31.36A4.43,4.43,0,0,0,320.3,266.27Z"/><path class="cls-1" d="M323.73,252a4,4,0,0,0,1.7.4,3.78,3.78,0,0,0,3.44-2.3c1.67-3.64,5-10.76,6.77-14.51a3.82,3.82,0,0,0-6.94-3.19c-1.91,3.79-5,10.53-6.59,14.07C321,248.83,321.67,251,323.73,252Z"/><path class="cls-1" d="M372.91,313.54a3.72,3.72,0,0,0-.66-2.81c-1.29-1.82-3.71-2.1-5.75-.68-7.1,4.94-21.32,14.77-28.43,19.69a4.73,4.73,0,0,0-2.13,3,3.58,3.58,0,0,0,.67,2.76,3.53,3.53,0,0,0,2.95,1.54,4.81,4.81,0,0,0,2.77-.88c7.31-5.08,21.47-14.84,28.63-19.79A4.45,4.45,0,0,0,372.91,313.54Z"/><path class="cls-1" d="M384,297.74c-2.11,1.51-2.63,3.71-1.34,5.6a3.6,3.6,0,0,0,3,1.66,4.49,4.49,0,0,0,2.39-.75s9.63-6.84,13.08-9.24a3.82,3.82,0,0,0-4.43-6.21C393.4,291.17,384,297.74,384,297.74Z"/><path class="cls-1" d="M395.89,377.71c-8.62.67-34.49,2.51-34.49,2.51a4.77,4.77,0,0,0-3.36,1.5,3.6,3.6,0,0,0-.82,2.71c.18,2.13,1.89,3.48,4.43,3.48h.27l34.6-2.49a4.45,4.45,0,0,0,3.12-1.44,3.69,3.69,0,0,0,.86-2.75C400.32,379,398.38,377.51,395.89,377.71Z"/><path class="cls-1" d="M433.27,375.18l-15.64,1.05c-2.59.2-4.18,1.81-4.05,4.1a3.72,3.72,0,0,0,4,3.57h.2s11.74-.84,15.93-1.11a3.68,3.68,0,0,0,3.32-4.14A3.64,3.64,0,0,0,433.27,375.18Z"/><path class="cls-1" d="M241.85,386.73h0c-12.94-3.59-23-15.59-26.06-31h0a1,1,0,0,0-2,0h0c-3,15.37-13.12,27.37-26.06,31h0a1.28,1.28,0,0,0,0,2.36h0c12.94,3.59,23,15.59,26.06,31a1,1,0,0,0,2,0c3-15.37,13.12-27.37,26.06-31h0A1.28,1.28,0,0,0,241.85,386.73Z"/></svg>