<svg id="Layer_1" data-name="Layer 1" xmlns="http://www.w3.org/2000/svg" viewBox="0 0 514.89 864"><defs><style>.cls-1{fill:#a16e58;}</style></defs><title>Untitled-30</title><path class="cls-1" d="M196.35,462.78a42.8,42.8,0,0,0-.63,8.81c.15,6.35,1.27,12.71,1.28,19.08a195.57,195.57,0,0,1-2,29c-.06.43-.21,1.13,0,1.25s.65-.6.92-1a159.88,159.88,0,0,0,10.79-17.54q8.83-16.94,16.35-34.48a1.71,1.71,0,0,0,.17-1.52c-1.84-4-3.86-7.91-7.43-10.76A12,12,0,0,0,196.35,462.78Z"/><path class="cls-1" d="M410.45,314.15h0c-16.44-4.57-29.27-19.82-33.11-39.35h0a1.26,1.26,0,0,0-2.52,0h0c-3.84,19.53-16.68,34.78-33.12,39.35h0a1.62,1.62,0,0,0,0,3h0C358.14,321.7,371,337,374.82,356.49h0a1.26,1.26,0,0,0,2.52,0C381.18,337,394,321.7,410.45,317.14h0A1.61,1.61,0,0,0,410.45,314.15Z"/><path class="cls-1" d="M257.44,27.81C129.81,27.81,26,131.65,26,259.28V604.72c0,127.63,103.84,231.47,231.47,231.47S488.92,732.35,488.92,604.72V259.28C488.92,131.65,385.08,27.81,257.44,27.81ZM478.06,604.72c0,121.65-99,220.62-220.62,220.62h0c-.71,0-1.42-.05-2.13-.06-6.69-31-14.57-74.69-19.6-104.61-.26-1.57-.37-1.54-1.73-.68a103.41,103.41,0,0,1-20,9.54c-.76.28-1.93,1.07-2.38-.18s1-1.3,1.73-1.58a107.45,107.45,0,0,0,20.71-10c14.28-9.15,20.86-25.13,24.82-41,3.5-13.88,5.71-27.83,10.31-41.46,3.47-10.3,4.92-22.68,10.33-32.09,7.81-13.58,20.09-22.56,29.63-34.66a58.94,58.94,0,0,1,5.62-6.09,169.63,169.63,0,0,0,98.41-54.09L416,505.2a6.08,6.08,0,0,0-5.61-10l-4.25.76a153,153,0,0,1-58.92-.93c-3.21-.67-6.36-1.47-9.48-2.32,6.23-4.48,12.31-9.14,17.44-15,3.72-4.22,6.11-9.06,5.74-14.93-.25-4.05-2.52-6.88-6-7.28a7.44,7.44,0,0,0-3.3.59c-4.67,1.61-8.75,4.3-12.77,7.1-7.66,5.35-15.37,10.64-23.25,15.67-1.81,1.15-3.65,2.26-5.47,3.39-.9-.44-1.78-.92-2.68-1.38,11.12-6.81,22.24-13.53,32.68-20.82a54.46,54.46,0,0,1,10.72-5.88,12.5,12.5,0,0,1,5.88-.55c1.75.12,2.13-.18,2.64-1.84,1.85-5.89-.67-12.87-6.73-15.05-10.16-3.65-24.59,6.2-33.76,9.78-11.76,4.6-21.79,12.28-33.17,17.51l-2.56,1.2a149.19,149.19,0,0,1-11.28-9.85c9.34-13.88,25.3-22.06,32.43-37.86,2.94-6.51,4.35-16.48-4.41-19a13.75,13.75,0,0,0-9.29.64c-11.53,4.79-20.72,14-29.13,22.95-3.12,3.32-6.17,6.71-9.22,10.1-22.4-32.61-32-74-23.7-116.59A153.22,153.22,0,0,1,266,241.32l2.91-3.17A6.08,6.08,0,0,0,263.41,228l-4.26.69C190.57,240,136.58,291.57,121.62,360.16a168.41,168.41,0,0,0,66.26,172.89,35.59,35.59,0,0,0-6.06,11.79c-2.36,8.71-2.81,17.71-4.34,26.58-5.81,33.73-21.85,64.18-32.66,96.47-13.63,40.75-1.14,86,1.94,127.55C81.09,757.18,36.83,686,36.83,604.72V259.28c0-121.65,99-220.62,220.61-220.62s220.62,99,220.62,220.62ZM243.87,441.52c-3.37,3.7-6.78,7.38-10.31,10.94a31.21,31.21,0,0,0-6.74,11.06,301.35,301.35,0,0,1-21.3,45,149.8,149.8,0,0,1-10.05,15,156.74,156.74,0,0,1-40.12-41.74,155.14,155.14,0,0,1-21.85-119h0c12.95-59.36,57.34-105,114.82-119.38a165.46,165.46,0,0,0-31.69,69.92C207.46,360.3,218.5,406,243.87,441.52ZM344.72,506.9a165.31,165.31,0,0,0,50.18,2.85,157.24,157.24,0,0,1-59.18,35.07,50,50,0,0,0,9.89-12.34,16.45,16.45,0,0,0,2.4-7.93,7.72,7.72,0,0,0-6.68-8c-10.38-2-20.1,7.9-26.88,14.35-8.85,8.42-19.4,15.09-30.11,20.9-.54.29-1,.6-1.58.9q-4.68-.12-9.38-.51a49.76,49.76,0,0,1,15.73-20.65c12.27-9.77,23.84-20.36,36.32-29.87A169.9,169.9,0,0,0,344.72,506.9Zm-80.81,56.49c.84.11,1.67.19,2.51.29A90.51,90.51,0,0,0,252,578.43a84.15,84.15,0,0,1-6.29,7.18c-.87.9-5.4,6.41-6.61,5-.51-.56-.1-1.11.34-1.55s.92-.9,1.39-1.34a109.54,109.54,0,0,0,10.93-12A76.74,76.74,0,0,1,263.91,563.39Zm7.14-55.92c-13.85,10.26-25.19,23.22-36.12,36.47l-1.91-.67c6.34-7.4,12.54-14.93,19.36-21.91,12.62-12.89,27.65-23.31,43.17-33.1.84.48,1.66,1,2.51,1.46C288.87,495.35,279.72,501.05,271.05,507.47Zm-14.6-25.73A206.46,206.46,0,0,0,236,503c-6.33,7.3-13.47,13.94-20.53,20.54a3.89,3.89,0,0,1-.5.41c-.5.34-1.07.71-1.58.13s-.1-1.1.36-1.53l4.84-4.51a209.44,209.44,0,0,0,15.08-15.45c4.22-4.87,8.73-9.49,13.22-14.11,2.85-2.92,5.49-6,8.62-8.69a72.85,72.85,0,0,1,6.19-4.91,5.6,5.6,0,0,0,2.09-2.74q1.08-2.75,2.24-5.45c1.74,1.6,3.52,3.15,5.33,4.68A93.83,93.83,0,0,0,256.45,481.74Z"/><path class="cls-1" d="M439.48,72.85C390.86,25.87,326.21,0,257.44,0S124,25.87,75.4,72.85,0,182.3,0,248.74V615.26C0,681.7,26.78,744.17,75.4,791.15S188.68,864,257.44,864s133.42-25.87,182-72.85,75.41-109.45,75.41-175.89V248.74C514.89,182.3,488.11,119.83,439.48,72.85Zm64.71,542.41c0,131.46-110.69,238.4-246.75,238.4h0c-136,0-246.74-106.94-246.74-238.4V248.74c0-131.46,110.69-238.4,246.74-238.4s246.75,106.94,246.75,238.4Z"/></svg>