<svg id="Layer_1" data-name="Layer 1" xmlns="http://www.w3.org/2000/svg" viewBox="0 0 514.88 864"><defs><style>.cls-1{fill:#a16e58;}.cls-2{fill:#f8efe3;}</style></defs><title>Untitled-30</title><path class="cls-1" d="M483.49,259.27V604.73c0,121-95.08,219.81-214.64,225.73q-5.64.3-11.39.3a225.89,225.89,0,0,1-226-226V259.27c0-124.83,101.2-226,226-226a226.06,226.06,0,0,1,226,226Z"/><path class="cls-1" d="M439.5,72.87C390.86,25.88,326.23,0,257.46,0s-133.4,25.88-182,72.87S0,182.31,0,248.72V615.25C0,681.7,26.79,744.18,75.42,791.13S188.69,864,257.46,864s133.4-25.88,182-72.87,75.38-109.43,75.38-175.88V248.72C514.88,182.31,488.13,119.82,439.5,72.87Zm64.7,542.38c0,65.74-27.67,125.33-72.33,168.49s-106.38,69.91-174.41,69.91c-136.06,0-246.74-106.95-246.74-238.4V248.72c0-131.45,110.68-238.4,246.74-238.4s246.74,107,246.74,238.4Z"/><path class="cls-2" d="M234.89,208.2a95.21,95.21,0,0,1,10.34-.62c54-.36,96.81,42.17,97,95.76a95.75,95.75,0,0,1-95.71,96.16c-50.71.23-94.12-39.64-96-92a74.53,74.53,0,0,0,144.25-26.6C294.09,244.46,268.61,214.84,234.89,208.2Z"/><path class="cls-2" d="M379.13,570.58c-1.38,5.44-2.86,10.92-3.06,16.57,0,.6-.07,1.21-.1,1.78-.5,7.76-2.49,14.89-7.56,21.11-7.13,8.74-11.6,19.49-18.08,28.77a110.55,110.55,0,0,1-14,16.57c-5,4.8-10.79,8.43-16,12.94-10.29,8.77-18.79,19.83-26.08,31.16-7.16,11-11.06,24.13-18.56,34.85-5.11,7.39-5.17,16.17-5.34,24.8q-.51,26.58,0,53.11a113.3,113.3,0,0,1-1.45,18.22q-5.64.3-11.39.3a225,225,0,0,1-77.94-13.82c.94-4.9,1.78-9.88,2.52-14.85,2.79-18.69,4.33-37.54,6.35-56.33,1.85-17.38,3.63-35.23-1.65-52.27-2.35-7.56-4.57-15.22-5.38-23.16-1.51-14.75,1.62-28.13,7.33-41.61,5.18-12.2,11.4-24.46,12.44-37.81,1.24-15.26-2.52-31-3.06-46.31-.3-8.34-1.68-18.05,1.41-26a12.46,12.46,0,0,1,5.55-6.65c4.8-2.73,9.58-.64,12.84,2.62a38.93,38.93,0,0,1,9.44,15c7.33,21.08,11.7,44.13,15,66.15.07.4-.06,1,.44,1.11s.64-.3.94-.57c6.12-5.18,12.3-8.71,17.11-15.43,2.32-3.23,4.4-6.62,6.62-9.92,1.92-2.75,5.35-5.58,4.74-9.27a100.54,100.54,0,0,1-1-20.81c.47-9.58-2.62-18.58-3.83-28a82.66,82.66,0,0,0-5.65-20.2,76.43,76.43,0,0,1-5.11-18.49c-1.41-10.68,2.93-30.08,13.68-35.19,3.5-1.68,6.22-.94,8.4,2.29a52.68,52.68,0,0,1,7,15.53c.4,1.44.81,2.85,1.21,4.27.07.33.3.67,0,.94-.1.06-.47-.14-.7-.24q-6.56-2.62-10.89,3c-3,3.93-4.31,8.47-5,13.24-1.75,12,0,23.66,3,35.29,3.73,14.59,8.57,28.84,13.38,43.12a12,12,0,0,1,.27,5.55c-1,6.08-2.05,12.2-2.66,18.35a245.33,245.33,0,0,0-1.54,26.25c0,.88-.31,2.22,1.07,2.19s.84-1.38.84-2.22c0-2.36,0-4.71,0-7.06.43-7.9,1.11-15.8,2.08-23.63.87-6.92,3.53-14.65,1.21-21.51-5.81-17.11-11.7-34.22-15.16-52a69,69,0,0,1-.2-26.48,24.62,24.62,0,0,1,3.8-9.38c2.89-4.27,7.22-4.84,11-1.41,3.46,3.06,5.28,7.06,6.56,11.39,2.52,8.61,5.95,16.81,11.29,24.1,9.61,13.14,11.7,30.08,19.49,44.23,11.33,20.61,1.55,43.83,2.39,65.71a5.62,5.62,0,0,0,.1,1.31c.34,1.21,1,1.45,2.05.68,7.9-6,14.66-14.29,17.58-23.83,3.93-12.81,8.6-28,20.33-35.83a14.46,14.46,0,0,1,7.63-2.72,5.67,5.67,0,0,1,5.95,4.16C382.36,559.62,380.44,565.33,379.13,570.58Z"/><path class="cls-2" d="M340.93,444c0-8.23-1.89-16.9-11.12-13.78-9.52,3.22-14.9,17.66-16.36,26.65-1.69,10.41-1,21.23-4.22,31.38-1,3.25-4.34,8.53-2.06,11.78a61.34,61.34,0,0,1,7.88,15.65c2.6,7.61,4.74,15.39,8.48,22.58,1.9,3.64,3.65,7.36,5.43,11.06.35.73.57.67.93.05.25-.42.54-.82.79-1.25a61.18,61.18,0,0,0,8.65-31.63c-.13-12.73,4-25.28,2.67-38-.85-8.24-2.65-15.84-1.76-24.23A92.44,92.44,0,0,0,340.93,444Z"/><path class="cls-2" d="M418.07,375.73l-23.67,5.53a.82.82,0,0,0,0,1.6l23.84,5.57a3.7,3.7,0,0,1,2.76,2.75L426.57,415a.82.82,0,0,0,1.6,0l5.56-23.84a3.7,3.7,0,0,1,2.76-2.75l23.84-5.57a.82.82,0,0,0,0-1.6l-23.8-5.56a3.76,3.76,0,0,1-2.81-2.81l-5.55-23.79a.82.82,0,0,0-1.6,0L421,372.76A4,4,0,0,1,418.07,375.73Z"/><path class="cls-2" d="M104.22,516.85,86.64,521a.61.61,0,0,0,0,1.19l17.71,4.14a2.75,2.75,0,0,1,2.05,2.05L110.54,546a.6.6,0,0,0,1.18,0l4.14-17.71a2.75,2.75,0,0,1,2-2.05l17.71-4.14a.61.61,0,0,0,0-1.19l-17.68-4.13a2.8,2.8,0,0,1-2.09-2.08l-4.13-17.68a.6.6,0,0,0-1.18,0l-4.11,17.58A3,3,0,0,1,104.22,516.85Z"/><path class="cls-2" d="M189.87,132.86l-22.21,5.19a.77.77,0,0,0,0,1.5L190,144.78a3.46,3.46,0,0,1,2.58,2.58l5.23,22.38a.77.77,0,0,0,1.5,0l5.23-22.38a3.46,3.46,0,0,1,2.58-2.58l22.38-5.23a.77.77,0,0,0,0-1.5l-22.34-5.22a3.5,3.5,0,0,1-2.63-2.63l-5.22-22.34a.77.77,0,0,0-1.5,0l-5.19,22.22A3.72,3.72,0,0,1,189.87,132.86Z"/></svg>