<svg id="Layer_1" data-name="Layer 1" xmlns="http://www.w3.org/2000/svg" viewBox="0 0 514.89 864"><defs><style>.cls-1{fill:#a16e58;}.cls-2{fill:#f8efe3;}</style></defs><title>Untitled-30</title><rect class="cls-1" x="31.4" y="33.23" width="452.1" height="797.53" rx="226.05"/><path class="cls-1" d="M257.44,864c-68.76,0-133.41-25.87-182-72.85S0,681.7,0,615.26V248.74C0,182.3,26.78,119.83,75.4,72.85S188.68,0,257.44,0s133.42,25.87,182,72.85,75.41,109.45,75.41,175.89V615.26c0,66.44-26.78,128.91-75.41,175.89S326.21,864,257.44,864Zm0-853.66c-136,0-246.74,106.94-246.74,238.4V615.26c0,131.46,110.69,238.4,246.74,238.4h0c136.06,0,246.75-106.94,246.75-238.4V248.74C504.19,117.28,393.5,10.34,257.44,10.34Z"/><path class="cls-2" d="M108.1,490.92c-4,5.2-7.67,10.67-9.27,17.18-2,8,1.66,13.89,9.58,15.86a28.13,28.13,0,0,0,7.37.84c9.66-.18,18.94-2.45,28.07-5.37a6.73,6.73,0,0,0,11.44-4,343.13,343.13,0,0,0,38.18-17A89.92,89.92,0,0,0,318,485.07a91.58,91.58,0,0,1-18.71,1.53,90.3,90.3,0,0,1-53.68-18.94,427.88,427.88,0,0,0,42.3-32c10.21-8.8,19.93-18.13,28-29,3.9-5.3,7.39-10.85,8.42-17.56a11.56,11.56,0,0,0-7.75-13.23,26.6,26.6,0,0,0-9.4-1.49,65.5,65.5,0,0,0-8.07.57,7.5,7.5,0,0,0-13.22,2.76c-1.67.46-3.34.93-5,1.44-19.91,6-38.67,14.77-57,24.49q-6,3.17-11.85,6.47a92.8,92.8,0,0,1-1-13.84,89.82,89.82,0,0,1,20.65-57.44,90.33,90.33,0,0,0-73.1,88.57A88.71,88.71,0,0,0,160,443.53c-6.22,4.59-12.34,9.31-18.33,14.23C129.47,467.77,117.81,478.37,108.1,490.92Zm119.85-82c18.25-9.68,37-18.22,56.85-24.1l2.37-.68a7.49,7.49,0,0,0,6,3,7.68,7.68,0,0,0,7.35-5.77,62.13,62.13,0,0,1,7.24-.48,17.37,17.37,0,0,1,6.76,1.21,4.87,4.87,0,0,1,3.27,5.2,19,19,0,0,1-2.59,8c-4.3,7.94-10.19,14.68-16.47,21.08-13.81,14.09-29.19,26.31-45.25,37.69q-6.53,4.64-13.17,9.05a89.13,89.13,0,0,1-27-46.21Q220.57,412.86,228,408.94Zm-40,84.86q-13,6.52-26.59,12.19-4.17,1.74-8.39,3.34a6.82,6.82,0,0,0-4.37-1.69,7,7,0,0,0-6.72,5.51,138.55,138.55,0,0,1-16.41,4.09,45.67,45.67,0,0,1-9,.89,22.94,22.94,0,0,1-7-.72c-3.73-1.17-5-3.4-4.18-7.32a32.91,32.91,0,0,1,5.47-11.43c6.77-9.85,15.14-18.27,24-26.16q13-11.58,26.9-21.92A89.63,89.63,0,0,0,187.92,493.8Z"/><path class="cls-2" d="M379,612c-5.86-3-13.36-.63-18.84,1.07l-.24.07a99.5,99.5,0,0,0-14.68,6.3c-3.24,1.6-6.59,3.26-10,4.62-9.39,3.74-18.3,5-27.2,3.85-5.56-.72-11.33-1.07-16.91-1.41-5.15-.31-10.48-.63-15.63-1.25a68,68,0,0,1-29.18-10,53.15,53.15,0,0,1-5.22-3.87,67.76,67.76,0,0,1,17.47-6.86c7.12-1.59,14.7-3.56,22-7.27,9.35-4.78,16.79-11.42,21.5-19.21,1.2-2,7.11-12.36,4.91-20.45a10.27,10.27,0,0,0-5.19-6.58,13.18,13.18,0,0,0-6.15-1.51,29.13,29.13,0,0,0-12.44,2.58,95.29,95.29,0,0,0-10.92,5.81c-2.08,1.23-4.24,2.5-6.4,3.63a21.9,21.9,0,0,1-5.47,2.16c-7.44,1.63-15.18,2-22.67,2.31a158.3,158.3,0,0,0-19.76,1.71,112.41,112.41,0,0,0-27.6,8.83c-6.19,2.8-12.3,6-18.2,9l-3.39,1.76L165,589.23c-3.06,1.56-6.22,3.17-9.28,4.87-3.73,2.07-7.5,4.37-11.15,6.59-12,7.32-24.35,14.88-38.4,16.2a134,134,0,0,1-25.39.1l-2.62-.21q-3.19-.27-6.4-.51A3.19,3.19,0,0,0,68,618.93a3.24,3.24,0,0,0,2.85,3.57,6.47,6.47,0,0,0,1.15.15c1.88.12,3.76.29,5.64.47,3,.28,6.16.57,9.29.61,4.51,0,9.16,0,13.82-.15,11.77-.36,21.93-3.1,31.05-8.37l7.07-4.09c18.76-10.89,38.16-22.14,58.21-30.66a105.94,105.94,0,0,1,27.27-7.36,140,140,0,0,1,14.13-.91,134.84,134.84,0,0,0,15.16-1,54.72,54.72,0,0,0,17.84-5.46c1.94-1,3.83-2.14,5.65-3.21a62.23,62.23,0,0,1,11.5-5.78,17.36,17.36,0,0,1,8.59-.69,3.64,3.64,0,0,1,3.22,2.73,13.06,13.06,0,0,1-.06,7.68c-5.15,17.11-22,26.76-36,30.09-8,1.9-18.41,4.78-28.06,10.23a26.42,26.42,0,0,0-8.37,6.81,3.71,3.71,0,0,0-.85,2.78,3,3,0,0,0,1.18,2c1.45,1.09,3.36.7,4.65-.94a15.56,15.56,0,0,1,2.46-2.41l.11-.1c4.63,4.39,10.09,7.46,14.84,9.89a77.12,77.12,0,0,0,26.78,7.59c4.27.47,8.57.55,12.73.62a116.39,116.39,0,0,1,14.4.86,69.07,69.07,0,0,0,12.23.79,63,63,0,0,0,20.21-4.37A120.53,120.53,0,0,0,348,625.1c1.68-.83,3.35-1.67,5.05-2.47,5.62-2.66,11.77-5.17,18.63-5.57a8.52,8.52,0,0,1,4.67.65c.77.42.88.74.82,1.31a11.47,11.47,0,0,1-.63,2.93,27.83,27.83,0,0,1-5.74,9.21l-1.39,1.5c-3.85,4.2-7.5,8.16-12.43,10.63a189.56,189.56,0,0,0-20.66,12.2,24.72,24.72,0,0,1-11.47,4.39,175,175,0,0,1-17.77.48c-10.72-.07-21.81-.14-32.26,3.31a33,33,0,0,0-7.21,3.19,3.42,3.42,0,0,0-1.63,2.24,3,3,0,0,0,.53,2.38,3.12,3.12,0,0,0,4.35.78,29.78,29.78,0,0,1,7-2.89c9.44-2.66,19.35-3.07,28.66-3.12,2,0,4,.06,6,.12,6.35.2,12.87.41,19-1.52-.31.69-.61,1.41-.89,2.13a17.32,17.32,0,0,1-9.39,9.83,79,79,0,0,1-13.64,5.1c-5.61,1.5-11.64,2.91-19,4.43a144.28,144.28,0,0,0-23.25,7,13.3,13.3,0,0,0-2.11,1,3.17,3.17,0,0,0-1.35,4.23,2.91,2.91,0,0,0,1.65,1.53,3.46,3.46,0,0,0,2.69-.21,86,86,0,0,1,10.88-4,239.6,239.6,0,0,1,23.53-5.77,110.86,110.86,0,0,0,19.59-5.94,18.65,18.65,0,0,1-2.33,6.54l-.16.24c-1.41,2.14-2.75,4.17-4.85,5.34a45,45,0,0,1-10.15,4.26c-4.07,1.09-8.31,1.86-12.42,2.61l-1.26.23c-3.08.57-6.16,1.29-9.14,2-2.34.55-4.76,1.12-7.15,1.6-3.14.63-6.28,1.23-9.42,1.83l-3.18.61a3.1,3.1,0,0,0-2.75,3.24,3,3,0,0,0,1.35,2.44l-.37,0a135.11,135.11,0,0,0-17.48,2.69l-2.32.45a33.13,33.13,0,0,1-13.6,0,213.44,213.44,0,0,1-21.8-5.91,294.48,294.48,0,0,0-40.88-10.43,107,107,0,0,0-27.44-1.21,30.24,30.24,0,0,1-8.65-.41c-4.33-.88-8.71-1.92-13-2.92-5.43-1.29-11-2.62-16.65-3.64A147.25,147.25,0,0,0,80,692l-4.79-.34a3.12,3.12,0,0,0-.91,6.16,10.67,10.67,0,0,0,2.09.26,141.34,141.34,0,0,1,23.46,2.69c3.44.69,6.94,1.59,10.32,2.46,4.68,1.2,9.53,2.44,14.37,3.2a120.46,120.46,0,0,0,19,1c6.51,0,13.24,0,19.8,1.13,7.63,1.37,15.73,3.27,25.46,6,4,1.13,8.09,2.4,12,3.64,6,1.88,12.17,3.82,18.43,5.31A63,63,0,0,0,228.7,725,42.2,42.2,0,0,0,242,724.1c4-.93,7.93-1.54,12-2.13,3.9-.56,8-.77,12.23-1,7.7-.4,15.66-.81,22.86-3.43a28.64,28.64,0,0,0,10.23-5.9,8.37,8.37,0,0,0,2.47-4.33l.08,0a50.36,50.36,0,0,0,12.24-4.46,20.91,20.91,0,0,0,8.32-7.45c2.49-3.73,4-8.18,4.66-14,.08-.73.16-.79.47-1A21.41,21.41,0,0,0,336,670.5c.79-1.83,1.58-3.68,2.42-5.49a15.79,15.79,0,0,1,4.73-6.27,70.07,70.07,0,0,1,11.21-6.9,65.24,65.24,0,0,0,17.49-12.48l.13-.13c5.05-5.1,10.92-11.92,11.46-19.55A7.34,7.34,0,0,0,379,612Zm-87,97.33c-3.31,2.46-7.39,3.65-12.39,4.34a101,101,0,0,1-13.08,1c1.61-.32,3.21-.62,4.79-.92,3.73-.7,7.58-1.42,11.36-2.35C285.73,710.61,288.87,710,292,709.32Z"/><path class="cls-2" d="M135.84,251.09c5.84,3,13.35.71,18.84-1l.25-.08a98.91,98.91,0,0,0,14.71-6.2c3.25-1.58,6.62-3.22,10-4.56,9.42-3.68,18.33-4.87,27.22-3.67,5.57.75,11.33,1.13,16.91,1.51,5.15.35,10.47.7,15.62,1.35a68.11,68.11,0,0,1,29.12,10.2,54,54,0,0,1,5.19,3.9,67.67,67.67,0,0,1-17.51,6.76c-7.13,1.54-14.72,3.47-22,7.13-9.39,4.72-16.86,11.31-21.62,19.07-1.22,2-7.19,12.32-5.05,20.42a10.29,10.29,0,0,0,5.15,6.61,13.11,13.11,0,0,0,6.14,1.55,29.25,29.25,0,0,0,12.46-2.5,95.34,95.34,0,0,0,10.95-5.74c2.1-1.22,4.26-2.48,6.43-3.6a22.51,22.51,0,0,1,5.48-2.12c7.45-1.58,15.2-1.88,22.68-2.16a159.88,159.88,0,0,0,19.77-1.59,112.6,112.6,0,0,0,27.66-8.66c6.21-2.76,12.34-5.9,18.26-8.93l3.4-1.74,3.75-1.9c3.07-1.54,6.24-3.13,9.32-4.81,3.74-2,7.52-4.32,11.18-6.52,12-7.24,24.45-14.73,38.5-16a134.32,134.32,0,0,1,25.39.06l2.62.23c2.13.19,4.26.38,6.4.55a3.19,3.19,0,0,0,3.75-2.64,3.25,3.25,0,0,0-2.84-3.59,7.26,7.26,0,0,0-1.14-.15c-1.88-.13-3.76-.32-5.63-.51-3-.3-6.16-.61-9.3-.67-4.51-.07-9.15-.05-13.81.06-11.78.3-21.95,3-31.11,8.18l-7.09,4.05c-18.83,10.77-38.3,21.9-58.41,30.29A105.61,105.61,0,0,1,290.21,291a139.81,139.81,0,0,1-14.14.82,136.88,136.88,0,0,0-15.16.93A55,55,0,0,0,243,298.05c-1.94,1-3.83,2.12-5.66,3.18a62.49,62.49,0,0,1-11.54,5.7,17.4,17.4,0,0,1-8.6.64,3.63,3.63,0,0,1-3.2-2.75,13,13,0,0,1,.11-7.68c5.26-17.08,22.13-26.62,36.17-29.86,8-1.85,18.44-4.66,28.12-10.06a26.3,26.3,0,0,0,8.41-6.75,3.66,3.66,0,0,0,.87-2.78,3,3,0,0,0-1.17-2c-1.44-1.09-3.35-.71-4.65.92a16.88,16.88,0,0,1-2.47,2.39l-.12.1c-4.6-4.42-10-7.52-14.77-10a77.24,77.24,0,0,0-26.74-7.75c-4.26-.49-8.56-.6-12.72-.7a116,116,0,0,1-14.39-1,68.75,68.75,0,0,0-12.23-.86,62.57,62.57,0,0,0-20.24,4.24A119.25,119.25,0,0,0,167,238.17c-1.68.83-3.36,1.66-5.06,2.44-5.64,2.63-11.81,5.1-18.67,5.46a8.51,8.51,0,0,1-4.67-.69c-.77-.42-.87-.74-.81-1.31a12,12,0,0,1,.65-2.93,27.75,27.75,0,0,1,5.8-9.17l1.39-1.5c3.89-4.16,7.56-8.1,12.5-10.54a189.37,189.37,0,0,0,20.74-12.07,24.62,24.62,0,0,1,11.49-4.32c5.81-.52,11.89-.44,17.78-.37,10.72.14,21.81.28,32.28-3.1a33.43,33.43,0,0,0,7.23-3.15,3.43,3.43,0,0,0,1.65-2.23,3,3,0,0,0-.52-2.38,3.11,3.11,0,0,0-4.34-.81,29.33,29.33,0,0,1-7,2.84c-9.45,2.61-19.37,2.95-28.67,2.94-2,0-4-.08-6-.15-6.34-.25-12.86-.5-19,1.4.31-.69.62-1.4.9-2.13a17.36,17.36,0,0,1,9.45-9.77,80,80,0,0,1,13.67-5c5.63-1.47,11.67-2.84,19-4.31A144.85,144.85,0,0,0,250,170.4a13.14,13.14,0,0,0,2.11-1,3.18,3.18,0,0,0,1.38-4.22,3,3,0,0,0-1.64-1.55,3.45,3.45,0,0,0-2.69.2,86.4,86.4,0,0,1-10.9,3.94,239.51,239.51,0,0,1-23.57,5.62,111,111,0,0,0-19.63,5.82,18.53,18.53,0,0,1,2.37-6.52l.16-.24c1.43-2.14,2.78-4.16,4.88-5.31a44.79,44.79,0,0,1,10.18-4.2c4.08-1.07,8.33-1.81,12.43-2.53l1.27-.23c3.09-.54,6.17-1.24,9.15-1.92,2.35-.54,4.77-1.09,7.16-1.56q4.71-.91,9.44-1.78l3.17-.59a3.09,3.09,0,0,0,2.78-3.22,3,3,0,0,0-1.34-2.44l.37,0a133.63,133.63,0,0,0,17.5-2.58l2.32-.44a33.1,33.1,0,0,1,13.6.12,211.53,211.53,0,0,1,21.76,6,294.48,294.48,0,0,0,40.82,10.68,106.94,106.94,0,0,0,27.43,1.38,30.43,30.43,0,0,1,8.64.47c4.33.91,8.71,2,12.94,3,5.42,1.32,11,2.69,16.62,3.74A147.56,147.56,0,0,0,435.34,173l4.79.37a3.11,3.11,0,0,0,.95-6.15,10.55,10.55,0,0,0-2.08-.28,141.89,141.89,0,0,1-23.45-2.83c-3.44-.72-6.93-1.64-10.31-2.53-4.67-1.23-9.51-2.5-14.35-3.29a119.23,119.23,0,0,0-19-1.09c-6.51,0-13.24-.05-19.79-1.26-7.62-1.41-15.7-3.37-25.42-6.15-4-1.16-8.07-2.46-12-3.72-6-1.91-12.16-3.9-18.4-5.43a62.25,62.25,0,0,0-9.45-1.6,42,42,0,0,0-13.35.85c-3.95.9-7.94,1.49-12,2-3.9.54-7.95.73-12.24.92-7.71.35-15.67.71-22.88,3.29a28.53,28.53,0,0,0-10.27,5.83,8.4,8.4,0,0,0-2.49,4.32h-.08a50.6,50.6,0,0,0-12.27,4.38,21,21,0,0,0-8.37,7.4c-2.51,3.72-4,8.16-4.74,14-.1.73-.18.78-.48,1a21.49,21.49,0,0,0-8.42,9.86c-.8,1.83-1.6,3.67-2.45,5.48a15.9,15.9,0,0,1-4.77,6.24,70,70,0,0,1-11.25,6.82,65.68,65.68,0,0,0-17.57,12.37l-.13.14c-5.09,5.06-11,11.85-11.58,19.47A7.34,7.34,0,0,0,135.84,251.09Zm87.63-96.79c3.32-2.44,7.41-3.6,12.41-4.25a99.38,99.38,0,0,1,13.09-.89c-1.61.31-3.22.6-4.8.89-3.73.67-7.59,1.37-11.37,2.27C229.73,153.06,226.59,153.7,223.47,154.3Z"/></svg>