<svg id="Layer_1" data-name="Layer 1" xmlns="http://www.w3.org/2000/svg" viewBox="0 0 864 776.94"><defs><style>.cls-1{fill:#a16e58;}</style></defs><title>Untitled-30</title><path class="cls-1" d="M580.94,624.27c-8.61-4.91-19.57-7.34-33.52-7.44a2.5,2.5,0,0,0-.41,0,8,8,0,0,1-.45-.77,17.07,17.07,0,0,0-2.93-4.26,29.55,29.55,0,0,0-12.2-7.6,70.53,70.53,0,0,0-35.83-2.3c-14.7,2.91-27.93,5.85-40.57,12.32-2.39-5.43-7.57-8.41-13.78-7.86a38.65,38.65,0,0,0-11.73,2.85,155.48,155.48,0,0,0-27.2,14.88c-2.07,1.42-2.76,1.63-4.77.48-8.74-5-18.49-8.53-27.71-11.58-24.67-8.14-47.31-12.48-69.23-13.27a12,12,0,0,1-7.67-2.88c-4.89-4-7.76-8.11-9.05-12.85-.06-.22-.08-.36-.1-.41a1.9,1.9,0,0,1,.27-.17l1.26-.66c2.88-1.53,5.6-3,8.47-4.18,16.11-6.75,33-14.33,46.87-26,15.56-13.09,29.39-33.78,21.51-52.55-3.78-9-11.71-12.76-21.22-10.07a30.42,30.42,0,0,0-8.21,3.85c-4.68,3-9.36,6.13-13.88,9.16-6.54,4.38-13.31,8.91-20.14,13.05-11,6.66-23.88,10.68-39.36,12.29a86.14,86.14,0,0,0-34.15,10.46c-3.84,2.16-7.77,4.32-11.72,6.48-8.84,4.85-18,9.85-26.57,15.26-13.1,8.24-23.75,18.15-35.71,30.49-6.73,6.94-13.41,10.57-21,11.43-32.66,3.7-70.29-8.81-94.61-21.72-.16-.09-.32-.16-.58-.28a5.21,5.21,0,0,0-5.17,9,58.14,58.14,0,0,0,9.87,5c21.55,9.16,42.52,15.1,62.3,17.64,18.4,2.36,39.29,3.64,54.18-11.2,10.08-10,21.5-21.42,34.88-30.31,16.37-10.87,35.4-22.9,54.28-28,5.89-1.6,12-2.78,18-3.91,9.17-1.75,18.64-3.56,27.64-7,10.82-4.12,20.62-10.4,28.78-16,2.22-1.53,4.47-3.24,6.64-4.89,5.33-4.06,10.84-8.25,16.76-10.36,4.5-1.61,6.88-.69,9.08,3.5,6.75,12.89-5.67,28.3-11.32,34.33-10.6,11.31-24.71,18.55-38.25,25-2.71,1.29-5.57,2.47-8.33,3.61A97.41,97.41,0,0,0,279,574.23c-1.56,1-3.14,1.95-4.71,2.91-3.59,2.19-7.31,4.45-10.79,7s-3.05,5.54-1.68,7.6,4.18,3.36,8,.85l2.16-1.41,2.58-1.69a32.17,32.17,0,0,0,5.24,9l-2.56-.3c-3.58-.42-7.16-.84-10.74-1.18a5.86,5.86,0,0,0-4.48,1.19,5.11,5.11,0,0,0-1.8,3.54c-.27,3.06,1.76,5.32,5.2,5.78,8.74,1.17,17.63,1.65,26.22,2.11,8.24.44,16.76.89,25,2a249.22,249.22,0,0,1,64.81,17c3,1.27,6.05,2.67,8.86,4-3.91,3.16-7.85,6.28-11.79,9.41-8.44,6.69-17.17,13.61-25.43,20.88-10.43,9.18-20.67,18.13-31.21,26.74-.85.68-1,.66-1.2.64-7.79-1-15.59-.56-23.14-.11l-1.71.1A104.48,104.48,0,0,0,279.58,693l-1.12.24a5.13,5.13,0,0,0-4.3,6c.47,3,2.82,4.66,6.14,4.38a12.8,12.8,0,0,0,1.73-.31l.28-.07a114.5,114.5,0,0,1,27.34-2.83l-.16.16a80.38,80.38,0,0,0-8.42,8.92,6.12,6.12,0,0,0-1.42,4.62,4.88,4.88,0,0,0,2,3.24c2.47,1.78,5.32,1.36,7.44-1.1,6.26-7.28,13.79-13.56,21.07-19.64l1.78-1.49c7-5.84,14-11.86,20.8-17.69,12.16-10.43,24.73-21.21,37.5-31.3,13.75-10.86,26-18.84,38.55-25.11a43.67,43.67,0,0,1,13.08-4.09,3.17,3.17,0,0,1,3.06.77,3.21,3.21,0,0,1,0,3.18,17.39,17.39,0,0,1-1.62,2.77,92.92,92.92,0,0,1-17,18.88c-9.84,8.44-18.44,18.26-26.75,27.76-4.32,4.93-8.79,10-13.36,14.86-6.91,7.29-15,13.47-22.76,19.45-8.09,6.2-16.45,12.62-23.69,20.37-2.69,2.87-5.29,5.81-7.89,8.74-3.91,4.42-8,9-12.2,13.2a66.61,66.61,0,0,1-18.54,13.33c-17.5,8.2-38.63,5.54-55.09,2.3-15.86-3.12-31.54-8.32-46.7-13.35-4.15-1.38-8.3-2.76-12.46-4.1-9.54-3.07-19-7-28.1-10.79-7.63-3.18-15.52-6.45-23.49-9.25-14.7-5.16-29.94-8.71-44.67-12.15-8.08-1.88-16.43-3.82-24.51-6-11.49-3.4-23-7.34-34.19-11.14-5.66-1.93-11.32-3.86-17-5.73l-.92-.3c-2.21-.73-4.42-1.46-6.64-2.14a6.48,6.48,0,0,0-4.27,0,4.92,4.92,0,0,0-2.87,3.22c-.68,2.25-.06,5.2,3.77,6.74.39.16.79.29,1.19.42l.35.11c30.41,10.15,62.85,20.68,95.77,28,22.57,5,44.48,13.81,65.67,22.3,9.81,3.93,19.95,8,30,11.63,20.57,7.43,46.68,16.86,72.75,16.86a88.76,88.76,0,0,0,28.65-4.46c2-.67,3.91-1.41,5.73-2.21,13.33-5.78,23.31-15.59,32.1-25.33.31-.34.61-.7.9-1.06a7.43,7.43,0,0,1,2.06-2c1-.48,1.94-1,2.91-1.5a55.73,55.73,0,0,1,7.25-3.41c4.61-1.65,9.28-3.21,13.95-4.77,15.67-5.25,31.87-10.68,46.41-19.44,13.09-7.89,22.78-18.34,30.52-27.53a5.34,5.34,0,0,1,2.28-1.71c10.19-3.83,20.19-7.49,30.37-10,23.75-5.92,47.34-9.3,73.51-12.81l2.91-.38c8.19-1.08,16.66-2.19,24.85-4.61a31.46,31.46,0,0,0,11.84-6c4.63-3.92,5.26-8.36,5-11.39C590.5,633,586.55,627.47,580.94,624.27Zm-72.82-12.88a61.32,61.32,0,0,1,18.56,2.44,20.1,20.1,0,0,1,6.64,3h-5.77c-6,.17-12.36.67-20,1.59A11,11,0,0,0,508.12,611.39Zm-28.65,21.5c-2.34,1.75-4.68,3.5-7,5.32a242.65,242.65,0,0,0-38.59,38c-5.74,7.17-13.58,16.34-23.45,23.63-7.6,5.63-16.46,10.09-28.73,14.47-7.53,2.69-15.1,5.31-22.66,7.93l-2.4.83a60.48,60.48,0,0,1,7.44-5.77c9.32-6,20-13.15,28.72-22.54,5.76-6.2,11-12.95,16-19.48l1.59-2.06c5.88-7.61,12.89-13.81,20.35-20.41,10-8.81,17.18-16.79,22.69-25.09.95-1.43,2.65-2.25,4.45-3.11l1-.48a98.36,98.36,0,0,1,29.6-9.57c.94-.14,1.89-.21,2.83-.27l1.2-.1a15.15,15.15,0,0,1,5,.71,23.89,23.89,0,0,1-5.9,8.11A149.09,149.09,0,0,1,479.47,632.89ZM465.86,658c1.49-1.35,3-2.69,4.46-4.06,4.54-4.17,9.57-7.95,14.45-11.61,1.63-1.23,3.27-2.46,4.89-3.7,1.07-.83,2.08-1.67,3.13-2.53l1.51-1.23c5.21-4.24,8.18-5.18,12.87-5.7a295.24,295.24,0,0,1,32-1.7q7.13,0,14.38.32c8.62.39,15.83,2.28,22.07,5.77a12.92,12.92,0,0,1,4,3.17,3.91,3.91,0,0,1,.9,2.41c0,.85-.34,2-2.32,3.35a28.91,28.91,0,0,1-8.55,3.53c-7.21,2-14.81,3-22.16,3.91-2.22.28-4.45.56-6.66.88h0c-15.37,2.15-31.89,4.56-48.54,7.67a285.65,285.65,0,0,0-36.83,9.27C458.82,664.3,462.38,661.09,465.86,658Z"/><path class="cls-1" d="M199.44,718a5.75,5.75,0,0,0,3.74-1.5h0c2.81-2.38,5.63-4.76,8.48-7.1,14.1-11.58,27.91-20.12,42.23-26.1,5.06-2.11,10.33-4,15.42-5.91,3.6-1.32,7.21-2.65,10.78-4A139.31,139.31,0,0,0,316,652.3a18.51,18.51,0,0,0,5-5.17,5.25,5.25,0,0,0-1.33-7.17c-2.34-1.74-5.11-1.36-7.22,1-.23.25-.45.51-.66.76a10.33,10.33,0,0,1-1.25,1.34,125.48,125.48,0,0,1-23.33,15.48c-8.54,4.37-17.72,7.66-26.39,10.66A176.51,176.51,0,0,0,215,693.36c-5.43,3.9-11.16,8.52-18,14.53-1,.9-2.73,2.39-2.66,4.52,0,2.44,1,4.13,2.81,5A5.46,5.46,0,0,0,199.44,718Z"/><path class="cls-1" d="M119.46,710.46a4.67,4.67,0,0,0,3.32-1.34,6.24,6.24,0,0,0,1.73-3.69,32,32,0,0,0,.33-3.46c.24-10.05,3.34-20,9.22-29.45C138.63,665.14,144,658.4,150,651c2.69-3.33,1.85-6.54-.18-8.23s-5-2.07-8,1.47-5.92,7.48-8.67,11.22c-1.17,1.59-2.34,3.18-3.53,4.75-9.75,12.92-15,27.27-15.47,42.61l0,.53c0,.43,0,.85,0,1.28,0,3.21,1.71,5.38,4.72,5.79A5.81,5.81,0,0,0,119.46,710.46Z"/><path class="cls-1" d="M741.71,12a82.13,82.13,0,0,0-7.12,4.9c27-9.77,57.95.45,74.13,26.2A62.22,62.22,0,0,1,717,124.25c23.92,36.65,72.13,46.49,108.3,24.49a79.94,79.94,0,0,0,27.07-110C829.12.51,780.16-11.46,741.71,12Z"/><path class="cls-1" d="M449.43,405.78c1.13-3.44,2.65-7.78,5.3-9.92,12.71-10.23,28.95-14,44.38-16.86,18.46-3.45,32.4-14.2,40.84-22.61,13.57-13.51,20.19-26.49,19.68-38.55a25.28,25.28,0,0,0-1.76-8.14c-3.09-8.05-12.6-10-19.83-8.28-9.16,2.18-15.82,7.52-22.27,12.68-2.56,2-5.13,4.21-7.67,6.35-7.64,6.42-15.53,13.06-24.64,17.86a88.19,88.19,0,0,0-12.1,7.21l2.28-7.07c.76-2.36,2.45-4.29,4.25-6.33,5.62-6.38,13.58-11,21.28-15.46l3.1-1.8c13.7-8,29.23-17.15,42-27.7a162.83,162.83,0,0,0,32.31-36c2.07-3.14,4.09-6.45,5.88-9.39,4.91-8.07,10-16.42,17.14-23.36.8-.78,2.92-2.84,1.35-5.37-1.29-2.06-4-2.24-5.08-2.22-1.73,0-3.46.2-5.14.37l-.65.06c-13.26,1.32-25.1,2.8-35.69,7.66-26,11.93-41.1,33.42-51.38,50.81l-2.72,4.61c-3.06,5.19-6.22,10.56-9.44,15.83l-1.46,2.41A74,74,0,0,1,481,304.63c1.17-9.35,4.47-18.51,7.69-27.46,1.24-3.45,2.53-7,3.66-10.53,1.37-4.24,2.8-8.52,4.27-12.91,2.4-7.19,4.89-14.63,7.1-21.95a41.67,41.67,0,0,1,5.46-11.56c5.21-7.34,15.59-10.52,25.64-13.61a122.75,122.75,0,0,0,12.73-4.4c13.26-5.76,24.66-16,33.88-30.49a165.54,165.54,0,0,0,10.18-19.57c3.29-7.07,6.69-14.38,11.19-21,1.39-2,2.93-4.2,4.83-6.75q.48-.64,1-1.26l.17-.22c.47-.6.93-1.2,1.37-1.81.65-.88,2.64-3.94,1.43-6.22-.46-.86-1.54-1.86-4-1.77-2.06.08-3.74,1.67-5,2.86-.31.3-.6.57-.86.79l-1.7,1.39c-12.6,10.34-25.64,21-41.58,26.81-2.52.91-5.12,1.77-7.86,2.67-8.34,2.74-17,5.57-23.7,10.25l-.07,0c1.38-2.33,2.82-4.71,4.36-7.18.57-.92,1.11-1.88,1.63-2.83a28.8,28.8,0,0,1,3.42-5.26c1.08-1.22,3-1.94,4.88-2.64l.59-.22c23.18-8.8,35.18-33.78,38.68-54.22a286.58,286.58,0,0,0,3-29.87c.41-6.47.84-13.17,1.56-19.71,0-.28.1-.62.17-1,.41-2.36,1.27-7.25-3.38-8.32-3-.88-5.52,1.8-7.1,3.49-.2.22-.38.41-.54.56-2,1.95-4,3.87-6,5.8-6.24,6-12.7,12.19-18.19,19A97.48,97.48,0,0,0,531.69,92.1c-3.74,14.4-5,29.59-4,49.24-7.89,12.94-15.31,25.81-19.64,40.84-2,7-3.67,14.18-5.24,21.27-.19-1.72-.39-3.43-.6-5.15l-.27-2.31c-1-8.39-1.94-15.23-3-21.51-.61-3.63-1.49-8.92-2.09-13.27.69-1.61,3.23-7.57,4.06-9.5,7.26-16.8,15.49-35.83,17.65-55.77a114.89,114.89,0,0,0,.3-15.49c-.09-3.33-.18-6.76-.06-10.15a14.09,14.09,0,0,1,.18-1.7,9.58,9.58,0,0,0-.32-5.34,4.11,4.11,0,0,0-3-2.5c-2.72-.52-5.25,1.84-5.53,2.11-10.07,9.8-21.5,21.37-29.59,34.7-14.69,24.21-14.07,44.16,1.85,59.29a34.78,34.78,0,0,0,6.19,4.65l5.7,35.68.41,3.33c.93,7.52,1.89,15.3,2.12,22.92.2,6.56-2.19,13-4.57,19.34-.55,1.45-1.09,2.9-1.59,4.35-1.38,3.94-2.83,7.94-4.29,11.94-3.44,9.46-7,19.25-9.78,29.1A141.43,141.43,0,0,0,473.51,303c-.9-3.77-2.12-7.52-3.33-11.11-.69-2-.29-4.7.06-7.05.1-.64.19-1.25.26-1.84.8-6.62,3-13.17,5.06-19.58,1-3.15,2.1-6.4,3-9.64,5.31-19.18,8.26-35.64,5.44-53.58a88.59,88.59,0,0,1-.8-22.2c.07-.72.17-1.45.27-2.2a17.45,17.45,0,0,0,0-7.44,5.67,5.67,0,0,0-3.08-3.86c-2.8-1.24-6.42.16-9.6,1.7-11.62,5.65-20.32,16.3-26.59,32.58-4.18,10.83-8.71,25.14-6.69,39.67,1.54,11.05,7.19,20.89,12.71,30.48,2.42,4.22,4.92,8.58,7,13,7.53,15.76,11.2,30.81,10.9,44.71-.08,3.9-1.48,8.07-2.83,12.1-.46,1.36-.91,2.7-1.3,4-2.8,9.31-6.45,18.67-10,27.72-2.15,5.52-4.36,11.2-6.39,16.88,0-.9,0-1.74-.07-2.41-.25-5.95-.75-12.16-1.2-17.72-.55-7-1.12-14.15-1.29-21.19-.32-13.27-1.82-30.21-10.6-43.58-3.47-5.3-7.73-10.89-13-12.26-5.71-1.49-11.36,1.92-14,6.07-2.8,4.43-3.3,9.9-3.74,14.72l-.06.62A108.77,108.77,0,0,0,408,355.21c4.34,13.49,12.08,25.6,25.09,39.3,2.15,2.27,4.16,4.73,6.13,7.17.67.82,1.33,1.64,2,2.45l-2,7C429.4,444.9,420.11,476.8,425,512.59c.61,4.46,1.4,9.15,2.35,13.93.25,1.22,1.69,4.81,4.16,5.53a3.09,3.09,0,0,0,.89.13,3.56,3.56,0,0,0,2.62-1.24c1.28-1.33.83-3.15.61-4-4.28-17.13-5.25-36.49-2.81-56,1.85-14.73,5.88-29.3,9.69-41.58C444.29,423.49,447.29,412.3,449.43,405.78ZM575.4,51.9c-.59,5.82-1,12.29-1.28,19.86-.79,21.82-10,41.95-25.27,55.22a33.22,33.22,0,0,1-8.88,5.64l1-1.69c3-5.52,5.66-11.27,8.24-16.86,1-2.16,2-4.32,3-6.47l1.8-3.77a164,164,0,0,0,8.3-19.42A344,344,0,0,1,575.4,51.9ZM542.75,83.81c2.82-6.48,6.22-13.93,11-20.39a134.2,134.2,0,0,1,13.59-15.16c.12-.11.42-.43,1-1l1.47-1.55-1.86,4c-4,8.77-7.57,17.85-11,26.67-3.73,9.48-7.58,19.29-12,28.69l-2.14,4.62c-2.5,5.42-5.08,11-7.92,16.37l-.12.22C534.09,113,537.14,96.74,542.75,83.81Zm-127,271.38c-3.72-11.55-5.12-24.46-4.3-39.45l.07-1.32c.26-5.42.63-12.84,4.61-16.21a2.11,2.11,0,0,1,.23-.19v.2a233.54,233.54,0,0,0,2.54,35.11c2.61,17.65,8.6,34,15,51.28C424.61,374.45,419,365.23,415.72,355.19Zm21.93,17.87a209,209,0,0,1-9.85-37.75c-1-6.12-2.06-12.7-2.53-19.4-.2-3-.51-9.91-.7-14.5,7.6,8.68,10.2,21.24,11.6,31.44,1,7.48,1.3,15.09,1.57,22.45.23,6.22.46,12.65,1.14,19,.1.92.18,1.84.25,2.76Zm21.19-156.25q-.16,3.16-.34,6.33l-.05,1.05c-.51,9.24-1,18.78-.95,28.26,0,4.67.09,9.83.46,15.14-.68-1.18-1.38-2.36-2.08-3.55-1.76-3-3.58-6-5.15-9.09-10-19.52-5-40,.95-53.8,2.94-6.78,7.08-15.37,13.1-21.51l.15-.15c-4.86,10.44-5.43,22.85-5.94,34Zm7,53.1c-.16-1-.3-2.05-.41-3.06-1.22-17.43-.15-34.5.92-47.41.13-1.57.25-3.14.37-4.73,1-13.05,2-26.54,8.71-38-.75,7.76-.44,15.33,1,25.24,1.56,10.52,1,20.62-1.75,33.76C472.07,247.93,469.6,259,465.8,269.91Zm-6.56,113.2c-.15.06-.27-.14-.13-.21,12.66-7,37-21,47.58-29l1.14-.87C521.69,342.47,536,331.59,546,318c.9-1.22,2.29-3.21,3.6-5.08l.84-1.2c4.33,8.82,1.17,19.51-9.41,31.81-7.4,8.6-14.85,15.15-22.77,20-10.16,6.24-21.36,8.74-32,10.52C477.05,375.56,468.7,379.28,459.24,383.11ZM483,346.87c13.69-7.6,25.34-16.81,36.09-25.6.76-.62,1.55-1.29,2.37-2,5.92-5,13.28-11.15,21.68-11.47h.81l0,.06c-.78,1.21-1.62,2.34-2.53,3.55l-.14.2c-.43.57-.85,1.14-1.27,1.72-6.94,9.69-16.15,17.69-27.86,26.72l-.91.7c-8.07,6.23-16.42,12.67-25.11,18.49A146.42,146.42,0,0,1,470,368.68c-2.49,1.23-5.17,2.5-7.9,3.74l5.77-13.68C471.52,353.84,478.09,349.58,483,346.87ZM581.42,228h0c-2.19,3.23-4.37,6.78-6.85,11.17-3.94,7-8.27,14.34-14,21.11a203.72,203.72,0,0,1-23,22.82c-6.06,5.23-13.27,9.53-20.25,13.68-2.07,1.24-4.15,2.47-6.2,3.74-2.66,1.63-5.3,3.34-7.9,5L500.9,307a250.93,250.93,0,0,0,29.52-31.74l3.35-4.31c6.87-8.84,14-18,22.13-26.06a126.79,126.79,0,0,1,28.19-20.64C583.07,225.62,582.13,226.92,581.42,228Zm-95.63,82.11c6.85-9,16.65-23.24,21.94-33.06,16.71-31,36.74-49.22,61.23-55.63a60.14,60.14,0,0,1,7.68-1.4,171.25,171.25,0,0,0-18.23,12.35c-10.14,7.8-17.84,17.11-24,25.19-13.51,17.62-28.23,36.06-46.49,50.83C487.18,308.93,486.48,309.5,485.79,310.08Zm.32-165a51.71,51.71,0,0,0,.73,5.87l0,.18c-6.35-6.91-9.75-15.36-9.17-23.08.51-6.8,3.06-13.44,5.74-19.59A87.27,87.27,0,0,1,501.7,81.58l1-1c1-1.08,1.9-2,2.65-2.73-1.75,4.08-3.65,8.12-5.66,12-.88,1.7-1.86,3.41-2.86,5.13a80.74,80.74,0,0,0-4.29,8.14C487.47,114.83,485.31,129,486.11,145.11Zm7.93,4.24c-2.59-15.64.32-33.33,8-48,1-1.93,2.08-3.87,3.16-5.82,2.06-3.73,4.19-7.57,6-11.54l0,.61c.06,1.41.13,2.82.16,4.23a71.89,71.89,0,0,1-3.86,23.64A387.66,387.66,0,0,1,494,149.35Zm18.2,49.41c.23-1.07.44-2.14.65-3.19.49-2.4,1-4.89,1.61-7.28l.55-2.14c.91-3.64,1.85-7.39,3.8-10.51,6.73-10.73,19.83-15.46,32.51-20a157.19,157.19,0,0,0,16.69-6.74c1.41-.7,2.78-1.42,4.13-2.14l-2.18,2.1c-4.55,4.41-9.17,8.78-13.74,13a318.88,318.88,0,0,1-26.33,21.61C523.49,188.2,517.28,193,512.24,198.76Zm74.53-55.39c-.69,1.47-1.36,3-2,4.45-3.09,6.78-6.29,13.79-10.33,20.09-8,12.43-18.64,22.24-30.07,27.6A111.7,111.7,0,0,1,531,200.4a111.1,111.1,0,0,0-14.41,5.37,63.27,63.27,0,0,1,6-7.1,103.63,103.63,0,0,1,12.2-9.84c2.07-1.5,4.2-3.05,6.21-4.63,7.92-6.19,14.46-11.48,20.67-17.14,5.94-5.42,11.84-11.19,16.59-15.83.27-.26.86-.88,1.67-1.72l.2-.2c1.51-1.58,4.56-4.75,7.37-7.49C587.26,142.33,587,142.85,586.77,143.37Z"/></svg>