<svg id="Layer_1" data-name="Layer 1" xmlns="http://www.w3.org/2000/svg" viewBox="0 0 625.73 864"><defs><style>.cls-1{fill:#a16e58;}</style></defs><title>Untitled-30</title><path class="cls-1" d="M450.18,424.3a155.27,155.27,0,0,0-30.71-61.24c6.35-1.17,13.74-6.26,16.51-8.59,1.46-1.22,2.91-2.46,4.36-3.69a194.23,194.23,0,0,1,17.24-13.62c11.34-7.65,20-16.18,30.2-26.54a65,65,0,0,1,8.18-7.28,25.26,25.26,0,0,1-.16,4c-1.26,9.83-4.51,19.4-7.66,28.66-3.24,9.5-6.58,19.33-7.88,29.65l-.29,2.27c-1.33,10.07-3.14,23.86,3.76,32.19a6.77,6.77,0,0,0,8.62,1.83A11.88,11.88,0,0,0,496,399a29.17,29.17,0,0,0,4.43-7.35q2.64-5.85,5.26-11.8c5.71-12.85,11.62-26.13,18-38.79,8.8-17.42,15.54-32.18,15.54-50v-.48c0-5.31-.21-10.62-.38-15.76-.4-11.85-.77-23.05.39-34.82a2.87,2.87,0,0,1,.35-.57c2.24-3.22,4.2-6.58,5.65-9.15,7.76-13.75,3.68-30.52.08-45.31-.47-1.91-.93-3.79-1.35-5.61l-1.15-5c-4.1-17.73-8.33-36.07-8.91-54.48-.11-3.54-.16-7.07-.22-10.6-.22-14.32-.45-29.14-4.53-43.47-2.69-9.44-4.89-17.31-6.66-25.59-2-9.35-3-19.67-3.27-32.48a21.2,21.2,0,0,0-.51-4.67A4,4,0,0,0,514,.1a3.84,3.84,0,0,0-2.82,4.79,17.54,17.54,0,0,1,.29,3.57,196.76,196.76,0,0,0,7.38,49.46c4.7,16.29,6.9,30.2,6.92,43.77,0,18,2.45,35.15,5.38,54.2,2.22,12,5,24.08,7.39,34.29a100.57,100.57,0,0,1,3,25,24.82,24.82,0,0,1-2.57,10.67,112.45,112.45,0,0,0-4.52-24.06c-1-3.31-3.34-3.9-5.16-3.35-.84.26-3.47,1.4-2.29,5.5a111.19,111.19,0,0,1,3.3,14.26c1.35,9.24.75,19,.18,28.49-.22,3.63-.45,7.39-.57,11.07a184.4,184.4,0,0,0,.73,19.18c.53,7.21,1.08,14.67.56,22a62.68,62.68,0,0,1-5.51,21.69c-2.13,4.67-4.65,9.28-7.08,13.74-1.45,2.64-2.89,5.29-4.27,8-4.31,8.37-8.11,17.1-11.78,25.55-1.66,3.82-3.32,7.65-5,11.45-.55,1.22-1.08,2.45-1.6,3.68a61.71,61.71,0,0,1-5,10.1c-.48.74-1.15,1.76-1.65,1.72a4.69,4.69,0,0,1-.74-1.46c-.09-.22-.17-.44-.26-.65-1.63-3.85-1.71-8.1-1.56-12.13.62-16.2,5.11-30.58,9.87-45.8,1.71-5.48,3.48-11.14,5.05-16.89,1.66-6.08,3.3-14.14,1.16-22.54a137.33,137.33,0,0,1-3.65-20.74,89.86,89.86,0,0,0-9.49-32.12c-3.74-7.42-7.78-16.18-10.1-25.87l1.9,1.91c2.12,2.13,4.27,1.75,5.58.69s2.06-3.38.25-5.68a21.69,21.69,0,0,0-1.68-1.88,86.56,86.56,0,0,0-13-11c-7.73-5.31-15.23-8.47-22.83-9.63l.13-.09a44.06,44.06,0,0,1,6.42-4.19,13.11,13.11,0,0,1,5.5-1.79,4.64,4.64,0,0,0,3.51-1.3,3.59,3.59,0,0,0,.93-2.75,3.73,3.73,0,0,0-1.59-2.89,4.93,4.93,0,0,0-3.19-.82,15.43,15.43,0,0,0-4.57.92,51.2,51.2,0,0,0-18.38,12.34C426.7,202.38,420.67,218,414.84,233c-1,2.49-1.93,5-2.91,7.42-4.86,12.15-11.55,25.81-24.36,35.1-2.33,1.69-5.83,3.17-8.4,2.68a3.23,3.23,0,0,1-2.25-1.48c-.62-1-.77-2.4-.48-4.36.79-5.35,3.57-10.09,6.51-15.1,1-1.69,2-3.37,2.88-5.07,6.3-11.83,8.93-25,11.47-37.69,1-5.08,2.07-10.33,3.34-15.37,3-11.83,8.57-22.92,14-33.64,2.31-4.59,4.71-9.34,6.89-14.1,3.29-7.23,5.68-15.05,8-22.61,3.23-10.57,6.56-21.5,12.42-30.78a56.45,56.45,0,0,1,32.2-24c2.18-.61,4.64-2.7,4.84-4.84a2.94,2.94,0,0,0-1.73-2.95,4.42,4.42,0,0,0-3-.15,62.37,62.37,0,0,0-21.45,9.47c2.16-23.28-4.16-46.85-9.77-67.77-.43-1.58-1.56-3.44-3.14-4a3,3,0,0,0-2.79.34c-1.32.89-1.75,2.46-1.27,4.69l6.1,28.4c3.8,17.71,6.41,33.5-.12,47.35a72.75,72.75,0,0,1-5.89,9.74c-1.73,2.57-3.53,5.22-5.05,8-3.84,7.08-5.85,14.94-7.79,22.54-1.21,4.74-2.46,9.64-4.14,14.25-2.68,7.33-6.58,14.34-10.36,21.11a177.25,177.25,0,0,0-9.34,18.4c-4.28,10.36-6.59,21.51-8.82,32.29-2.64,12.8-5.37,26-11.43,37.64-.93,1.78-2,3.58-3,5.32-2.7,4.69-5.49,9.54-6.79,15a21,21,0,0,0-.6,4.86,12.9,12.9,0,0,0,2.94,8.72c2.88,3.25,7.9,4.59,12.78,3.4,4.56-1.11,8.26-4,11-6.39C409.44,267,416.35,250.24,423,234c4.91-11.9,10-24.22,17.95-34.75l.27-.39a19.63,19.63,0,0,1,6.21-.37c7.53,1.11,14.84,4.31,22.35,9.77a.5.5,0,0,1,.26.43l.07.43a72.73,72.73,0,0,0,1.46,7.13,3.54,3.54,0,0,1-.28,2.82c-.58,1.12-1.15,2.24-1.72,3.37-1.33,2.6-2.7,5.3-4.16,7.87a23.76,23.76,0,0,1-6.52,7.51,97.9,97.9,0,0,0-11.44,10.6c-1.87,1.93-3.81,3.92-5.78,5.78a96.56,96.56,0,0,1-12.29,9.28l-2.15,1.43c-3.8,2.51-7.73,5.11-9.62,9.92a9,9,0,0,0,2.82,10.9,7.92,7.92,0,0,0,2.22,1.24c-1.44.85-2.88,1.71-4.29,2.6A61.28,61.28,0,0,0,398,311.07a15.1,15.1,0,0,0-2.05,9.19,6.19,6.19,0,0,0,5.09,5.81,12.8,12.8,0,0,0,7.36-.6,152.7,152.7,0,0,0,19.24-8.65c1.75-.88,3.49-1.76,5.24-2.62,3.75-1.85,7.5-3.84,11.12-5.77a44.48,44.48,0,0,1-9.64,9.91,84.22,84.22,0,0,0-21.63,25.15,23.68,23.68,0,0,0-3.09,8.73c-37-37-91.81-53.89-147.07-40a156.48,156.48,0,0,0-15.87,4.92c55.05-2.54,106,33.83,121,90.28A119.42,119.42,0,0,1,160.57,513.42a18.1,18.1,0,0,0,.38-2.63c.28-4.74-1-7.88-3.86-9.32-6.65-3.36-18.89,4.9-22.65,8.06-1.46,1.22-2.9,2.46-4.35,3.69a195.83,195.83,0,0,1-17.25,13.62c-11.34,7.65-20,16.18-30.2,26.54a65,65,0,0,1-8.18,7.28,26.48,26.48,0,0,1,.16-4c1.26-9.83,4.52-19.4,7.67-28.66,3.23-9.5,6.57-19.33,7.87-29.65l.3-2.27c1.32-10.07,3.13-23.86-3.77-32.19a6.77,6.77,0,0,0-8.62-1.83A11.88,11.88,0,0,0,74.44,465,29.17,29.17,0,0,0,70,472.31q-2.62,5.85-5.26,11.8C59,497,53.13,510.24,46.74,522.9c-8.8,17.42-15.54,32.18-15.54,50v.48c0,5.31.21,10.62.38,15.76.4,11.85.77,23-.39,34.82a2.87,2.87,0,0,1-.35.57c-2.24,3.22-4.19,6.58-5.65,9.15-7.76,13.75-3.68,30.52-.08,45.31.47,1.91.93,3.79,1.35,5.61l1.15,5c4.1,17.73,8.33,36.07,8.91,54.48.11,3.54.16,7.07.22,10.6.22,14.32.45,29.14,4.53,43.47,2.7,9.44,4.89,17.31,6.66,25.59,2,9.35,3,19.67,3.27,32.48a20.62,20.62,0,0,0,.52,4.67,4,4,0,0,0,4.73,3,3.84,3.84,0,0,0,2.82-4.79,17.54,17.54,0,0,1-.29-3.57,196.76,196.76,0,0,0-7.38-49.46c-4.7-16.29-6.9-30.2-6.92-43.77,0-18-2.44-35.15-5.38-54.2-2.22-12-5-24.08-7.39-34.29a101,101,0,0,1-2.95-25,24.82,24.82,0,0,1,2.57-10.67,111.84,111.84,0,0,0,4.53,24.06c1,3.31,3.33,3.9,5.15,3.35.84-.26,3.47-1.4,2.29-5.5a111.19,111.19,0,0,1-3.3-14.26c-1.35-9.24-.75-19-.18-28.49.22-3.63.45-7.39.57-11.07a184.4,184.4,0,0,0-.73-19.18c-.53-7.21-1.08-14.67-.56-22a62.68,62.68,0,0,1,5.51-21.69c2.14-4.67,4.65-9.28,7.08-13.74,1.45-2.64,2.89-5.29,4.27-8,4.31-8.37,8.11-17.1,11.78-25.55,1.66-3.82,3.32-7.65,5-11.45.55-1.22,1.08-2.45,1.6-3.68a62.52,62.52,0,0,1,5-10.1c.48-.74,1.15-1.76,1.65-1.72a4.48,4.48,0,0,1,.74,1.46c.09.22.17.44.26.65,1.63,3.85,1.71,8.1,1.56,12.13-.62,16.2-5.11,30.58-9.87,45.8-1.71,5.48-3.48,11.14-5.05,16.89-1.66,6.08-3.29,14.14-1.16,22.54a137.33,137.33,0,0,1,3.65,20.74,89.86,89.86,0,0,0,9.49,32.12c3.74,7.42,7.78,16.18,10.1,25.87l-1.9-1.91c-2.11-2.13-4.27-1.75-5.58-.69s-2.06,3.38-.25,5.68a21.69,21.69,0,0,0,1.68,1.88,86.56,86.56,0,0,0,13,11c7.73,5.31,15.23,8.47,22.83,9.63l-.13.09a43.53,43.53,0,0,1-6.42,4.19,12.93,12.93,0,0,1-5.5,1.79,4.64,4.64,0,0,0-3.51,1.3,3.59,3.59,0,0,0-.93,2.75,3.73,3.73,0,0,0,1.59,2.89,4.93,4.93,0,0,0,3.19.82,15.43,15.43,0,0,0,4.57-.92A51.12,51.12,0,0,0,132,673.5C143.72,661.62,149.75,646,155.58,631c1-2.49,1.93-5,2.91-7.42,4.86-12.15,11.55-25.81,24.36-35.1,2.33-1.69,5.83-3.17,8.4-2.68a3.23,3.23,0,0,1,2.25,1.48c.62,1,.77,2.4.48,4.36-.79,5.35-3.57,10.09-6.51,15.1-1,1.69-2,3.37-2.88,5.07-6.3,11.83-8.93,25-11.47,37.69-1,5.08-2.07,10.33-3.34,15.37-3,11.83-8.56,22.92-14,33.64-2.31,4.59-4.71,9.34-6.89,14.1-3.29,7.23-5.68,15-8,22.61-3.23,10.57-6.56,21.5-12.42,30.78a56.42,56.42,0,0,1-32.2,24c-2.18.61-4.64,2.7-4.84,4.84a2.94,2.94,0,0,0,1.73,3,4.42,4.42,0,0,0,3,.15,62.28,62.28,0,0,0,21.45-9.47c-2.16,23.28,4.16,46.85,9.78,67.77a6,6,0,0,0,3.14,4,2.94,2.94,0,0,0,2.78-.34c1.32-.89,1.75-2.46,1.27-4.69l-6.1-28.4c-3.79-17.71-6.41-33.5.12-47.35a72.75,72.75,0,0,1,5.89-9.74c1.74-2.57,3.53-5.22,5.05-8,3.84-7.08,5.85-14.94,7.79-22.54,1.21-4.74,2.46-9.64,4.14-14.25,2.68-7.33,6.58-14.34,10.36-21.11a177.25,177.25,0,0,0,9.34-18.4C175.49,675,177.8,663.83,180,653c2.64-12.79,5.37-26,11.43-37.63.93-1.78,2-3.58,3-5.32,2.7-4.69,5.49-9.54,6.79-15a21,21,0,0,0,.6-4.86,12.9,12.9,0,0,0-2.94-8.72c-2.88-3.25-7.9-4.59-12.78-3.4-4.56,1.11-8.26,4-11,6.38C161,597,154.07,613.76,147.38,630c-4.9,11.9-10,24.22-17.95,34.75a3.5,3.5,0,0,0-.26.39,19.71,19.71,0,0,1-6.22.37c-7.53-1.11-14.84-4.31-22.35-9.77a.5.5,0,0,1-.26-.43l-.07-.43a72.73,72.73,0,0,0-1.46-7.13,3.59,3.59,0,0,1,.28-2.82c.58-1.12,1.15-2.24,1.72-3.36,1.33-2.61,2.7-5.31,4.16-7.88a23.76,23.76,0,0,1,6.52-7.51,97.9,97.9,0,0,0,11.44-10.6c1.87-1.93,3.81-3.92,5.78-5.78a96,96,0,0,1,12.3-9.28l2.14-1.43c3.8-2.51,7.73-5.11,9.62-9.92a9,9,0,0,0-2.82-10.9,8,8,0,0,0-2.21-1.24c1.43-.85,2.87-1.71,4.28-2.6a61.28,61.28,0,0,0,20.42-21.51,16,16,0,0,0,1.73-4.36,153.68,153.68,0,0,0,163.72,62C420.18,590.15,470.86,507.18,450.18,424.3ZM425.11,277h0a11.7,11.7,0,0,1,3.46-3.95c2.73-2.05,5.69-3.86,8.25-5.41a62.43,62.43,0,0,0,15.52-13.26,61.28,61.28,0,0,1,10.67-10,35.55,35.55,0,0,0,10.75-13.17c.43-.85.86-1.71,1.28-2.57.5,1.36,1,2.74,1.59,4.1a1.51,1.51,0,0,1,.17.54.88.88,0,0,1-.24.3c-6.11,5.89-10.63,12.86-14.73,19.5a41.15,41.15,0,0,1-11.56,12.35c-1.31.9-2.57,1.85-3.84,2.8-.85.63-1.7,1.27-2.56,1.89-1.85,1.33-3.55,2.83-5.2,4.28-.55.49-1.1,1-1.66,1.45a16.31,16.31,0,0,1-9.58,4c-1.64,0-2.47-.44-2.69-.82S424.65,277.91,425.11,277Zm18.69,22.71-5,2.59c-8.67,4.55-17.63,9.25-26.67,13.36-1.87.85-3.77,1.58-5.88,2.38a9.82,9.82,0,0,1-2.73.58,12.34,12.34,0,0,1,2-5.45c5.59-8.44,12-14.56,19.53-18.71a74,74,0,0,0,17.54-13.26,71.44,71.44,0,0,1,10.58-8.37l.57-.39a54.24,54.24,0,0,0,15.62-16.91,83.59,83.59,0,0,1,10.83-14.7c2.06,4.19,3.69,7.72,5.09,11.06a2.43,2.43,0,0,1,.11.27,88.65,88.65,0,0,0-9.06,16.92c-2.87,7.05-7.38,13-14.2,18.61A104.32,104.32,0,0,1,443.8,299.74Zm-24.88,48.51a76.25,76.25,0,0,1,21-24.45,54.48,54.48,0,0,0,12-13c2.05-3.06,4.45-6.26,7.32-9.77a48.88,48.88,0,0,1,8.58-8,48.08,48.08,0,0,0,15.77-21,86.7,86.7,0,0,1,5.28-10.62,84.36,84.36,0,0,1,1.84,9.64l.1.63c.31,2.09.59,4.2.86,6.31a124.59,124.59,0,0,0,3.06,17c-7.33,4.57-13,10.59-19.09,17.41a87.92,87.92,0,0,1-19.22,16.38c-9.09,5.62-17.1,12.48-23.74,18.44a73.83,73.83,0,0,1-9.53,7.14,11.46,11.46,0,0,1-3.57,1.5,2.36,2.36,0,0,1-1.83-.07,2.94,2.94,0,0,1-.57-2.19A15,15,0,0,1,418.92,348.25ZM79.73,593l-.09-.63c-.32-2.09-.6-4.2-.87-6.31a123.07,123.07,0,0,0-3.06-17c7.33-4.57,13-10.59,19.09-17.41A87.59,87.59,0,0,1,114,535.32c9.09-5.63,17.1-12.49,23.74-18.45a73.83,73.83,0,0,1,9.53-7.14,11.46,11.46,0,0,1,3.57-1.5,2.36,2.36,0,0,1,1.83.07,3,3,0,0,1,.58,2.19,15.21,15.21,0,0,1-1.77,5.26,76.25,76.25,0,0,1-21,24.45,54.48,54.48,0,0,0-12,13c-2,3.06-4.45,6.26-7.32,9.77a48.88,48.88,0,0,1-8.58,8,48.08,48.08,0,0,0-15.77,21,86.51,86.51,0,0,1-5.27,10.62A82.23,82.23,0,0,1,79.73,593ZM145.31,587h0a11.6,11.6,0,0,1-3.46,3.95c-2.73,2.05-5.69,3.86-8.25,5.41a62.43,62.43,0,0,0-15.52,13.26,61.28,61.28,0,0,1-10.67,10,35.55,35.55,0,0,0-10.75,13.17c-.43.85-.85,1.71-1.28,2.57-.49-1.36-1-2.74-1.59-4.1a1.45,1.45,0,0,1-.17-.54.86.86,0,0,1,.25-.3c6.1-5.89,10.62-12.86,14.72-19.5a41.15,41.15,0,0,1,11.56-12.35c1.31-.9,2.57-1.85,3.84-2.8.85-.63,1.7-1.27,2.56-1.89,1.85-1.33,3.55-2.83,5.2-4.28l1.66-1.46a16.39,16.39,0,0,1,9.58-4c1.64,0,2.47.44,2.69.82S145.77,586.09,145.31,587Zm19.52-36.17c-5.59,8.44-12,14.56-19.53,18.71a74,74,0,0,0-17.54,13.26,70.8,70.8,0,0,1-10.58,8.37l-.57.39A54.24,54.24,0,0,0,101,608.44a82.59,82.59,0,0,1-10.83,14.7c-2.06-4.19-3.69-7.72-5.09-11.06l-.11-.27A88.1,88.1,0,0,0,94,594.89c2.87-7,7.38-13,14.2-18.61a104.05,104.05,0,0,1,18.41-12l5-2.6c8.67-4.54,17.63-9.24,26.67-13.35,1.87-.85,3.77-1.58,5.88-2.38a9.82,9.82,0,0,1,2.73-.58A12.34,12.34,0,0,1,164.83,550.8Zm-2.78-12.27a152.84,152.84,0,0,0-19.25,8.65c-1.75.88-3.49,1.76-5.24,2.62-3.75,1.85-7.5,3.84-11.12,5.77a44.48,44.48,0,0,1,9.64-9.91,84.22,84.22,0,0,0,21.63-25.15c.24-.43.49-.91.73-1.39a153.13,153.13,0,0,0,8.92,18.55A14,14,0,0,0,162.05,538.53Z"/><path class="cls-1" d="M33.88,394.08c.86,2.89,1.77,6.65,1.13,10.18a3.26,3.26,0,0,0,.7,3.2,2.23,2.23,0,0,0,2.36.48,4.68,4.68,0,0,0,2.46-3.68c1.54-12.82,11.41-25,26.39-32.48,12.43-6.29,27.14-9.19,39-11.51s20.88-8.45,30.49-14.95c1.08-.73,2.17-1.47,3.27-2.2.67-.45,1.33-.91,2.1-1.45.62-.42,2-1.41,1.61-3.15-.27-1.09-1.32-2.15-3.41-1.87-1.18.15-2.34.4-3.45.65-.59.13-1.18.26-1.77.37-5.14,1-10.82.55-16.33.13l-3-.23a84.25,84.25,0,0,0-20.87,1.18,82,82,0,0,0-30.13,11.8c3-4.37,5.91-8.53,9.09-12.65.8-1,1.58-2.09,2.35-3.15,1.37-1.86,2.78-3.79,4.32-5.57,10.32-12,28.05-19,48.66-19.25,18.63-.3,44.8-3.86,63.65-19l.3-.24c1.29-1,3.05-2.43,2.86-4.19a2.64,2.64,0,0,0-1.63-2.09c-1-.51-2.76-.35-5.5,0-.81.09-1.63.19-2,.19-2.37,0-4.8-.26-7.14-.48a74.66,74.66,0,0,0-8.78-.48c-12.71.31-25.9,3.29-41.51,9.38a131.31,131.31,0,0,1-15.9,4.94c-1.08.27-2.17.52-3.26.77a46.37,46.37,0,0,0-9.06,2.69l3.35-4.28c1.4-1.81,2.8-3.61,4.23-5.39.86-.62,5.13-3.61,6.8-4.77,4.64-3.26,11-3.36,17.16-3.46a73.48,73.48,0,0,0,9-.51,89.52,89.52,0,0,0,16.06-4.33c1.77-.6,3.55-1.2,5.36-1.77a225.44,225.44,0,0,1,27.4-7.06c4-.69,8.07-1.13,12.06-1.57,4.56-.49,9.27-1,13.82-1.88,2.13-.4,2.54-1.7,2.62-2.24a2.94,2.94,0,0,0-1.88-2.94c-3.8-2-9.24-1.89-14-1.83-1.27,0-2.48,0-3.56,0q-5.67-.17-11.29-.38c-6.47-.23-13.15-.47-19.78-.57-9.59-.14-21.24-.33-31.45,3.14,1.65-1.55,3.31-3.09,5-4.65,3.57-3.37,7.61-6.67,13-8,5.07-1.29,10.86-1,16.47-.64,2,.12,4.15.24,6.17.28,24.83.35,53.19-.68,75.41-10.94.49-.23,2-.93,1.93-2.46,0-.77-.49-2.15-3.27-2.61-5.71-.93-11.48-.76-17.05-.58l-4.71.12c-7,.1-14.29-.3-21.3-.69-7.88-.44-16-.89-24-.63l5.31-2.43a35.36,35.36,0,0,1,9.42-3.2c4.87-.74,10.23,0,15.41.72,1.51.21,3,.42,4.48.59l4.6.53c15.62,1.83,31.76,3.72,45.82-1.36,7.56-2.74,14.29-7.59,20.57-14.85,1.52-1.75,1.67-3.76.37-5a3.49,3.49,0,0,0-.72-.52,5.72,5.72,0,0,0-4-.18l-2,.47c-12.29,2.93-24.93,5.94-38,6.25,10.38-5.17,17.58-13.28,19.76-22.54.63-2.74-.74-4-1.62-4.47-1.87-1.05-4.21-.54-6.58,1.43-5.79,4.77-14.4,7.43-22.73,10-2.43.75-5,1.52-7.36,2.34-9.65,3.23-21.47,9-23.87,18.5a255.56,255.56,0,0,0-46.91,23.07c4.86-7.55,13-13.52,19.92-18.06,2.32-1.53,4.72-3,7-4.45,10-6.18,19.41-12,24.16-21.88,2.68-5.56,4.12-11.48,5.52-17.21.37-1.49.73-3,1.12-4.46.5-1.92.21-3.27-.85-4-1.95-1.33-5.25.49-9.95,3.87l-.57.4c-4.36,2.9-9.11,5.71-13.71,8.42-12.37,7.3-25.17,14.84-32.7,25.62-6.66,9.65-8.24,20.43-9.49,32.5,0,.39-.06.8-.1,1.21-.14,1.94-.27,3.78-1.52,4.95-.34.31-1.62,1.33-2.86,2.31s-2.66,2.11-3.66,2.95c-3,2.48-5.74,5.15-8.4,7.74l-1.54,1.5c-3.18,3.08-6.92,6.72-10.53,10.43q-1.71,1.75-3.38,3.61c0-.77.08-1.53.09-2.3V272c0-1,0-2,.09-3,1-10.95,4.26-22.65,10-35.76,1-2.42,2.16-4.81,3.25-7.12,4.27-9.11,8.3-17.72,8.31-28v-1.58c0-4.79.09-11.34-2.75-15.5a3.25,3.25,0,0,0-2.63-1.45,3.8,3.8,0,0,0-3.1,1.53,11.39,11.39,0,0,0-1,1.6c-.17.33-.34.66-.54,1a126.62,126.62,0,0,1-11.1,13.59,142,142,0,0,0-10.3,12.38c-7,9.81-10.46,20.92-9.8,31.29.59,9.14,3.93,17.93,7.17,26.43.56,1.47,1.12,2.94,1.66,4.41,1.46,3.91,3,7.94,2.31,11.89a15.22,15.22,0,0,1-.4,1.88,4.59,4.59,0,0,1-.79,1.22l-.16.21c-2,2.59-4,5.18-6.06,7.76-6.28,8-12.78,16.27-18.52,24.7-2.07,3-4.32,6.14-6.83,9.43a76.52,76.52,0,0,0,.46-10.24,64.15,64.15,0,0,1,.6-10.86l.49-2.72c1.72-9.69,3.51-19.7,2.8-29.24-.74-10.07-4.23-19.66-8.38-30.25a2.94,2.94,0,0,0-3.36-1.95,3.24,3.24,0,0,0-2.64,2.6l-.08.26c-1,2.93-2.21,5.9-3.36,8.77-1.25,3.1-2.53,6.31-3.62,9.51-3.8,11.26-1.52,22.43.7,33.23.88,4.31,1.79,8.77,2.29,13.14.57,4.84,1.49,14.45,2.65,32.68,0,.13,0,.25,0,.36-.92,1.3-1.8,2.61-2.65,3.9l-.09.13c-1.52,2.28-3.07,4.76-4.74,7.57A216.62,216.62,0,0,0,43.9,377.09c.81-20.24-.64-44.38-12.39-65.53C25.14,300.17,16.79,292,6.68,287.38c-2.06-.95-3.78-1-5.1-.2S-.83,289.59.81,293c2.42,5,2.72,10.79,3,16.4,0,.78.08,1.56.13,2.33.77,13.79,3.18,25.49,7.36,35.77a186.11,186.11,0,0,0,10.1,19.87C26.17,375.86,31.11,384.69,33.88,394.08Z"/><path class="cls-1" d="M624.64,636c-2.89-4.84-3.7-10.62-4.48-16.21l-.31-2.18c-2-13.67-5.31-25.15-10.21-35.09a196.34,196.34,0,0,0-11.22-18.8c-5.43-8.36-11-17-14.43-26.37-1-2.82-2.17-6.52-1.72-10.09a3.3,3.3,0,0,0-.88-3.14,2.24,2.24,0,0,0-2.39-.35c-1.33.57-2.14,2.39-2.24,3.81-.81,12.88-9.89,25.55-24.31,33.89-11.1,6.46-23.37,9.93-38.25,13.8-11.75,3-20.45,9.78-29.67,16.91-1,.76-2,1.53-3,2.29-.64.49-1.27,1-2,1.57s-2,1.56-1.39,3.28c.37,1,1.49,2,3.55,1.63,1.18-.23,2.32-.56,3.43-.88l1.74-.48c5.09-1.31,10.85-1.22,16.42-1.14l3,0a85.11,85.11,0,0,0,20.84-2.45,81.48,81.48,0,0,0,29.33-13.6c-2.54,4.33-5.26,8.83-8.16,13.19-.72,1.1-1.42,2.2-2.12,3.31-1.21,1.93-2.46,3.92-3.85,5.77-9.32,12.56-26.47,20.64-47.07,22.18-18.72,1.49-44.69,6.73-62.1,23.18l-.28.27c-1.18,1.1-2.79,2.62-2.47,4.36a2.69,2.69,0,0,0,1.82,2c1.06.43,2.79.16,5.5-.35.8-.14,1.63-.3,2-.32,2.39-.14,4.86-.07,7.24,0a74.72,74.72,0,0,0,8.84-.11c12.68-1.15,25.61-5,40.7-12.08A130.7,130.7,0,0,1,512,637.92c1.07-.34,2.14-.66,3.21-1a45.55,45.55,0,0,0,8.92-3.3c-1.1,1.64-2.17,3.28-3.24,4.9s-2.31,3.52-3.48,5.27L511.1,649c-4.31,3.53-10.66,4-16.81,4.55a71.91,71.91,0,0,0-8.93,1.09,87.45,87.45,0,0,0-15.73,5.4c-1.69.71-3.39,1.42-5.12,2.1a220.92,220.92,0,0,1-26.72,8.9c-3.86,1-7.92,1.68-11.84,2.38-4.54.81-9.23,1.65-13.73,2.85-2.07.56-2.38,1.87-2.41,2.41A3,3,0,0,0,412,681.5c4,1.69,9.44,1.24,14.23.85,1.28-.11,2.49-.21,3.58-.25q5.88-.24,11.72-.41c6.38-.21,13-.42,19.5-.77,9.66-.51,21.42-1.12,31.3-5.3q-2.28,2.52-4.55,5c-3.2,3.59-6.88,7.14-12.05,8.85-4.91,1.62-10.74,1.69-16.37,1.75-2.06,0-4.19.05-6.22.16-24.88,1.36-53.14,4.36-74.12,16.32-.47.27-1.92,1.11-1.67,2.66.13.75.74,2.05,3.51,2.3,5.8.52,11.5-.08,17-.65,1.59-.17,3.18-.34,4.77-.47,7.09-.63,14.43-.74,21.53-.85,7.92-.13,16.05-.25,24-1.08l-5.06,2.83a34.92,34.92,0,0,1-9,3.87c-4.76,1.08-10.19.72-15.44.38-1.55-.1-3.07-.2-4.57-.26l-4.58-.2c-15.85-.7-32.24-1.43-45.64,4.76-7.22,3.34-13.3,8.75-18.56,16.54-1.27,1.88-1.17,3.89.25,5a3.2,3.2,0,0,0,.76.44,5.49,5.49,0,0,0,4-.13l1.41-.47c12.07-4,24.48-8.08,37.7-9.35-9.67,6-15.93,14.87-16.79,24.26-.25,2.75,1.24,3.85,2.15,4.27,2,.91,4.27.2,6.38-2,5.09-5.25,13.34-8.57,21.31-11.78,2.28-.92,4.65-1.87,6.9-2.86,13.07-5.63,20.46-12.63,21.46-20.28A249,249,0,0,0,475,698.28c-4,7.9-11.41,14.48-17.82,19.53-2.08,1.65-4.24,3.27-6.33,4.83-9.27,6.93-18,13.48-21.49,23.79-2,5.85-2.6,12-3.22,17.88-.15,1.44-.3,2.88-.47,4.31-.23,2,.24,3.28,1.39,3.88a2.64,2.64,0,0,0,1.24.3c2,0,4.63-1.94,8-5l.52-.46c4-3.31,8.5-6.54,12.82-9.66,11.24-8.13,22.86-16.53,29-27.72,5.85-10.81,5.73-23.15,5.64-33.06,0-.39,0-.79,0-1.2-.08-1.94-.15-3.78,1-5,.3-.33,1.5-1.46,2.66-2.55s2.38-2.24,3.28-3.12c2.69-2.65,5.14-5.47,7.5-8.2l1.45-1.67c3.06-3.51,6.33-7.28,9.45-11.07q1.54-1.89,3.05-3.84c0,.8.07,1.6.14,2.39,0,.39.07.79.11,1.18.1,1,.2,2,.21,2.94.12,10.92-1.88,22.78-6.12,36.26-.74,2.39-1.55,4.76-2.34,7.05-3.24,9.46-6.29,18.39-5,28.72l.18,1.5c.56,4.78,1.34,11.34,4.7,15.27a3.31,3.31,0,0,0,2.86,1.2,3.64,3.64,0,0,0,2.83-1.78,9.86,9.86,0,0,0,.77-1.68,9.39,9.39,0,0,1,.41-1,112.47,112.47,0,0,1,9.47-14.46,135.21,135.21,0,0,0,8.61-12.81c5.79-10.24,8-21.52,6.2-31.78-1.57-8.94-5.77-17.37-9.82-25.53-.75-1.52-1.51-3-2.24-4.55-1.85-3.79-3.76-7.71-3.48-11.68a13.65,13.65,0,0,1,.21-1.89,4.49,4.49,0,0,1,.66-1.25l.14-.22c2-3.11,4.07-6.2,6.12-9.29,5.28-8,10.75-16.21,15.54-24.54,1.83-3.16,3.83-6.4,6.08-9.82a72.22,72.22,0,0,0,.39,10.41,62.86,62.86,0,0,1,.32,10.73l-.19,2.17c-.88,9.93-1.79,20.19-.11,29.83,1.74,10.07,6.23,19.33,11.47,29.51a3,3,0,0,0,3.49,1.68,3.17,3.17,0,0,0,2.41-2.81l0-.26c.73-3.06,1.63-6.17,2.51-9.18s1.81-6.23,2.56-9.39c2.62-11.31-.64-22.16-3.8-32.66-1.3-4.32-2.64-8.8-3.54-13.21-2.26-10.85-4.9-29.38-5.37-32.7.81-1.3,1.56-2.63,2.3-3.92l.14-.25c1.33-2.33,2.69-4.89,4.17-7.81a224.07,224.07,0,0,0,9.43-21.76c.51,19.14,3.59,43.87,17.34,64.52,7.3,10.92,16.34,18.5,26.86,22.54,2.14.82,3.86.79,5.11-.11S626.59,639.29,624.64,636Z"/></svg>