<svg id="Layer_1" data-name="Layer 1" xmlns="http://www.w3.org/2000/svg" viewBox="0 0 864 852.07"><defs><style>.cls-1{fill:#a16e58;}</style></defs><title>Untitled-30</title><path class="cls-1" d="M859.35,542c-.7-2.06-1.47-4.06-2.29-6-6-13.83-16.18-24.18-26.3-33.36-.41-.29-.76-.59-1.12-.88a7.74,7.74,0,0,1-2-2.18l-1.59-3a65,65,0,0,1-3.53-7.53c-1.71-4.82-3.36-9.65-4.94-14.53-5.47-16.23-11.12-33.12-20.24-48.18-8.18-13.64-19-23.7-28.59-31.71a6.16,6.16,0,0,1-1.77-2.41c-4-10.59-7.76-20.94-10.41-31.53-6.12-24.71-9.65-49.18-13.29-76.36l-.41-3.06c-1.12-8.47-2.3-17.29-4.77-25.82a33,33,0,0,0-6.18-12.3c-4.11-4.82-8.7-5.47-11.82-5.17-.59.06-1.18.17-1.82.29a16.43,16.43,0,0,0,8.94-14.18,15.66,15.66,0,0,0-15.3-16c-9-.12-16.06,6.24-16.41,15.24a15.43,15.43,0,0,0,.76,5.65,92.7,92.7,0,0,0-8.06,9.17c.3-9.41.59-19.12,2.36-28.53,2.35-12.41,6.53-24.53,10.59-36.29,1.06-3.06,2.11-6.18,3.17-9.3a.85.85,0,0,0,.36-.12c9-2.47,16.76-9.94,20.76-19.94,2.59-6.47,2.3-12.71,2-18.71a90.16,90.16,0,0,1,.3-12.53c.06-.7.29-3.35-1.42-4.35-1.35-.77-3.17-.53-5,1.18a94.48,94.48,0,0,1-8,7.06c-1.77,1.35-3.59,2.7-5.3,4.23a58.07,58.07,0,0,0-12.65,15.3c-3.41,6.11-7.47,19-.06,25.59-.88,2.53-1.76,5-2.64,7.53L691.34,173c-5.59,16-11.59,34.77-12.35,54.3l-.12,4.83A147.89,147.89,0,0,0,665.93,211,87.66,87.66,0,0,0,655,198.78c2.24-5.47,1.89-14.18,1.18-22.18l-.06-.65c-3-34.76-23.65-67.77-52.71-84.06-13.82-7.77-29.18-12.59-44-17.3L558,74.18c-13.77-4.35-26.65-16.06-32.83-29.71-1.88-4.23-3.82-8.35-5.82-12.53-.65-1.41-2.3-4.82-6.18-4.29-3.7.53-4.23,3.88-4.59,6-3.11,18.41-4.35,33.36-3.82,47,.76,21.95,6,39.36,15.94,53.18,16.94,23.47,39.71,39.59,69.59,49.24l1,.3c18.18,5.88,35.42,11.41,52.6,19.53a13,13,0,0,0,3,1c17.17,16.53,28,36.23,32.12,58.65a89.84,89.84,0,0,1,.7,30.12c-6.7-19.12-19.23-33.89-37.41-44.06-1.06-4.77-4.94-9.24-11.94-13.65a46.86,46.86,0,0,0-18-6.47l-2.94-.47c-10.23-1.53-18-3.36-27.7-10.12-1.53-1.06-3.24-2.24-4.65-1.65s-2.12,2.77-2.18,4.82a17.74,17.74,0,0,0,.41,3.89c3,16,13.42,30.53,26.65,36.94,6.59,3.3,20.12,6.77,30.18,3.06a15.85,15.85,0,0,0,8.47-6.65,45.89,45.89,0,0,1,7.3,5c17.29,15.24,25.12,29.71,25.23,46.83C638.34,374.08,571.33,414.44,498,415.62a58.37,58.37,0,0,0-8-6.06c-9.11-5.88-20.23-11.47-34-8.71a35.76,35.76,0,0,0-15.71,7.41A202.94,202.94,0,0,1,324,322.32c1.24-11.77-3.35-21.71-12.64-27.42a11.75,11.75,0,0,0-2.71-1.17,201.33,201.33,0,0,1-17-85.13,209.32,209.32,0,0,1,6.06-46.24c20.7-7.58,25.82-30.76,20.18-49.88-.06-.18-.12-.3-.18-.47A200.16,200.16,0,0,1,371,50.77c5.7,3.88,12.47,7.53,20.59,7.53,13,0,24.41-10.65,28.35-26.53l.18-.89a24.32,24.32,0,0,0,1.12-8,211,211,0,0,1,33.47-9.71l22.59-4.53a2.53,2.53,0,0,0-.24-5l-22.94-2.3C445.27.41,436.21,0,427.15,0a263.48,263.48,0,0,0-83.77,13.77C338,9.59,331.43,5.12,323.9,2.53c-12.58-4.24-22.7,1.06-28.47,14.82-2.06,4.89-2.88,10.12-3.7,15.18l-.36,2.24a12.82,12.82,0,0,0-.11,3.29,266.49,266.49,0,0,0-49.83,39.36,260.37,260.37,0,0,0-60,93.89,76.74,76.74,0,0,0-32.23,27.23c-6.95,10.24-10.83,21.12-10.65,29.83.06,3.53.29,6.82.64,10.06a14.51,14.51,0,0,0-7.11,4.76,32.12,32.12,0,0,0-6.18,12.3c-2.53,8.53-3.65,17.35-4.77,25.82l-.41,3.06c-3.64,27.18-7.17,51.65-13.29,76.36-2.65,10.59-6.47,20.94-10.41,31.53a5.79,5.79,0,0,1-1.83,2.41c-9.53,8-20.35,18.07-28.59,31.71-9.12,15.06-14.71,31.95-20.18,48.18-1.64,4.88-3.23,9.71-4.94,14.53a65.69,65.69,0,0,1-3.59,7.53c-.53,1-1.06,2-1.53,3a8.73,8.73,0,0,1-2,2.18c-.36.29-.77.59-1.12.88-10.12,9.18-20.3,19.53-26.3,33.36C6.12,538,5.35,540,4.65,542A91.82,91.82,0,0,0,0,571.8C0,598.86,9.82,626,17.53,647.34c3.77,10.53,8,21.06,12.06,31.24,8.82,22,17.94,44.76,23.18,68.24C60.42,781,71.36,814.7,81.89,846.29l.12.36a5.37,5.37,0,0,0,.41,1.23c1.59,4,4.7,4.65,7,3.94a5,5,0,0,0,3.35-3,6.61,6.61,0,0,0,.06-4.41c-.71-2.29-1.47-4.59-2.24-6.88l-.29-1q-2.91-8.82-6-17.65c-3.94-11.59-8-23.59-11.53-35.47-2.29-8.42-4.29-17.12-6.24-25.48-3.58-15.35-7.29-31.17-12.64-46.41-2.89-8.3-6.3-16.53-9.59-24.41-3.94-9.48-8-19.3-11.24-29.24-1.35-4.3-2.82-8.59-4.23-12.94-5.24-15.71-10.65-32-13.89-48.54-3.35-17.06-6.12-39,2.41-57.18a69.26,69.26,0,0,1,13.83-19.29c4.41-4.41,9.12-8.59,13.71-12.65,3-2.71,6.11-5.41,9.11-8.24,8.06-7.53,14.71-16.17,21.18-24.58,6.18-8.12,12.59-16.48,20.18-23.65,5-4.77,10.29-9.42,15.41-13.89,9.89-8.64,20.12-17.59,28.89-27.76a95.46,95.46,0,0,1,19.59-17.71,16.42,16.42,0,0,1,2.88-1.65c1.35-.59,2.59-.59,3.29,0s1.06,1.71.83,3.18A46.5,46.5,0,0,1,162,406.56c-6.53,13.06-14.82,25.76-26.12,40.06-10.47,13.24-21.71,26.3-32.53,38.94C97.3,492.62,91.07,499.92,85,507.21L83.48,509c-6.36,7.59-12.89,15.42-20.42,21.89-2.59,2.23-3,5.18-1.17,7.76a5.32,5.32,0,0,0,3.35,2.06,6.39,6.39,0,0,0,4.82-1.47,81.74,81.74,0,0,0,9.3-8.76c.06-.06.12-.12.12-.18a115.48,115.48,0,0,1-3,28.41l0,.3a16.85,16.85,0,0,0-.3,1.82c-.29,3.41,1.41,5.89,4.53,6.36A5.35,5.35,0,0,0,87,562.75l.23-1.18A100.21,100.21,0,0,0,90,544.68l.11-1.76c.48-7.82,1-15.94-.11-24.06,0-.24,0-.35.7-1.24,8.95-10.94,18.24-21.59,27.77-32.41,7.53-8.59,14.77-17.65,21.71-26.41,3.23-4.12,6.47-8.24,9.76-12.3,1.41,2.94,2.83,6.06,4.18,9.24a258.72,258.72,0,0,1,17.71,67.36c1.11,8.58,1.58,17.47,2.06,26,.47,8.94.94,18.17,2.17,27.23.47,3.59,2.83,5.71,6,5.42a5.07,5.07,0,0,0,3.65-1.89,5.94,5.94,0,0,0,1.24-4.64c-.36-3.71-.77-7.42-1.24-11.18l-.29-2.65a33.75,33.75,0,0,0,9.35,5.47L193,569.51l-1.47,2.24c-2.58,4-1.11,6.94.89,8.35,2.17,1.41,5.35,1.71,7.94-1.77,2.64-3.64,5-7.47,7.29-11.23,1-1.59,2-3.24,3-4.88a99.56,99.56,0,0,0,7.71-16c1.23-2.82,2.41-5.82,3.76-8.64,6.71-14.06,14.24-28.71,26-39.71a67.27,67.27,0,0,1,7.76-6.41,51.74,51.74,0,0,1,10.88-5.83c5.53-1.94,11.48-2.41,17,.47,3.35,1.77,4.7,3.65,4.35,6.53a16.22,16.22,0,0,1-.71,2.88,42.2,42.2,0,0,1-4.47,8.77c-1.94,2.94-4.12,5.82-6.29,8.65-1.71,2.29-3.47,4.59-5.06,6.94-5.83,8.47-12.36,18.65-16.65,29.88-3.59,9.36-5.47,19.18-7.24,28.71-1.23,6.18-2.41,12.59-4.11,18.71-5.3,19.59-17.83,39.41-29.12,56.41-9.24,13.89-21.06,25.77-31.48,36.24-15.41,15.47-14.11,37.18-11.64,56.3,2.64,20.53,8.82,42.3,18.35,64.71a59.33,59.33,0,0,0,5.12,10.24c1.76,2.58,4.65,3.35,7.17,1.88a5.26,5.26,0,0,0,2.24-7.24,3.6,3.6,0,0,0-.29-.59c-13.42-25.29-26.42-64.41-22.53-98.3.88-7.94,4.64-14.88,11.82-21.82,12.82-12.47,23.12-23.53,31.71-37.12,5.59-8.94,10.82-18.41,15.82-27.59,2.3-4.12,4.53-8.24,6.77-12.18,5.94-10.53,9.47-22.12,10.88-35.53,1.65-16.06,5.82-29.41,12.77-40.89,4.29-7,9-14.11,13.53-20.88,3.17-4.71,6.41-9.59,9.53-14.47.53-.77,1-1.59,1.41-2.3a81,81,0,0,0,14.94-3.64,7.18,7.18,0,0,0,3.06-1.89,262.05,262.05,0,0,0,252.84-13.76,18.23,18.23,0,0,0-.65,13.06,30.2,30.2,0,0,0,4,8.53c3.12,4.88,6.36,9.76,9.53,14.47,4.53,6.77,9.24,13.83,13.53,20.88,6.95,11.48,11.12,24.83,12.77,40.89,1.41,13.41,4.94,25,10.88,35.53,2.24,3.94,4.47,8.06,6.71,12.18,5.06,9.18,10.23,18.65,15.88,27.59,8.53,13.59,18.83,24.65,31.65,37.12,7.24,6.94,11,13.88,11.88,21.82,3.89,33.89-9.11,73-22.53,98.3a3.6,3.6,0,0,0-.29.59c-1.35,2.95-.53,5.71,2.18,7.24a5.2,5.2,0,0,0,7.17-1.88,59.7,59.7,0,0,0,5.18-10.24c9.53-22.41,15.71-44.18,18.35-64.71,2.42-19.12,3.77-40.83-11.64-56.3-10.42-10.47-22.24-22.35-31.48-36.24-11.29-17-23.82-36.82-29.17-56.41-1.65-6.12-2.89-12.53-4.06-18.71-1.83-9.53-3.71-19.35-7.24-28.71-4.29-11.23-10.82-21.41-16.65-29.88-1.59-2.35-3.35-4.65-5.06-6.94-4.23-5.53-8.59-11.24-10.76-17.42-.89-2.52-1.32-5.25.71-7.34,2.46-2.54,6.19-3.68,9.62-4a24,24,0,0,1,10,1.4,43.18,43.18,0,0,1,9.17,4.58,64.69,64.69,0,0,1,7.29,5.46c.86.74,1.68,1.49,2.5,2.26,11.77,11,19.3,25.65,26,39.71,1.29,2.82,2.53,5.82,3.7,8.64a110.84,110.84,0,0,0,7.71,16c1.06,1.64,2.06,3.29,3.06,4.88,2.29,3.76,4.59,7.59,7.29,11.23,2.59,3.48,5.77,3.18,7.89,1.77s3.52-4.35.88-8.35L671,569.51c-.53-.88-1.12-1.77-1.77-2.65a32.28,32.28,0,0,0,9.36-5.47l-.3,2.65c-.41,3.76-.88,7.47-1.23,11.18a6.15,6.15,0,0,0,1.23,4.64,5.2,5.2,0,0,0,3.71,1.89c3.17.29,5.53-1.83,6-5.42,1.23-9.06,1.7-18.29,2.17-27.23.48-8.53,1-17.42,2.06-26a258.72,258.72,0,0,1,17.71-67.36c1.35-3.18,2.77-6.3,4.18-9.24,3.29,4.06,6.53,8.18,9.76,12.3,6.94,8.76,14.12,17.82,21.71,26.41,9.53,10.82,18.82,21.47,27.77,32.41.7.89.7,1,.64,1.24-1.06,8.12-.58,16.24-.11,24.06l.11,1.76a114,114,0,0,0,2.77,16.89l.29,1.18a5.35,5.35,0,0,0,6.24,4.47c3.12-.47,4.82-3,4.53-6.36a9.77,9.77,0,0,0-.35-1.82l-.06-.3a121,121,0,0,1-2.94-28.41l.17.18a81.74,81.74,0,0,0,9.3,8.76,6.26,6.26,0,0,0,4.76,1.47,5.17,5.17,0,0,0,3.35-2.06c1.89-2.58,1.42-5.53-1.11-7.76-7.59-6.47-14.12-14.3-20.42-21.89L779,507.21c-6.06-7.29-12.35-14.59-18.41-21.65-10.82-12.64-22-25.7-32.47-38.94-11.3-14.3-19.59-27-26.12-40.06A44.76,44.76,0,0,1,697.75,393a3.34,3.34,0,0,1,.77-3.18c.76-.59,1.94-.59,3.35,0a14.55,14.55,0,0,1,2.83,1.65,94.4,94.4,0,0,1,19.64,17.71c8.77,10.17,19,19.12,28.83,27.76,5.12,4.47,10.47,9.12,15.47,13.89,7.59,7.17,14,15.53,20.18,23.65,6.47,8.41,13.12,17.05,21.18,24.58,3,2.83,6.06,5.53,9.06,8.24,4.64,4.06,9.35,8.24,13.76,12.65a69.26,69.26,0,0,1,13.83,19.29c8.53,18.18,5.76,40.12,2.41,57.18-3.3,16.53-8.65,32.83-13.89,48.54-1.47,4.35-2.88,8.64-4.29,12.94-3.18,9.94-7.24,19.76-11.18,29.24-3.29,7.88-6.7,16.11-9.64,24.41-5.36,15.24-9,31.06-12.59,46.41-2,8.36-4,17.06-6.24,25.48-3.53,11.88-7.65,23.88-11.59,35.47-2,5.88-4,11.77-5.94,17.65l-.29,1c-.77,2.29-1.53,4.59-2.24,6.88a6.61,6.61,0,0,0,.06,4.41,4.94,4.94,0,0,0,3.29,3c2.36.71,5.42.06,7-3.94a5.35,5.35,0,0,0,.47-1.23l.12-.36c10.53-31.59,21.47-65.3,29.12-99.47,5.24-23.48,14.36-46.24,23.18-68.24,4.06-10.18,8.29-20.71,12.06-31.24C854.18,626,864,598.86,864,571.8A91.82,91.82,0,0,0,859.35,542ZM718.28,249.84a3.83,3.83,0,0,1,2.47-.94c.89,0,2.06.35,3.48,2.41a29.74,29.74,0,0,1,3.7,8.88c2.06,7.48,3.06,15.36,4.06,23,.3,2.29.59,4.64.88,6.94,2.24,15.94,4.77,33.12,8,50.41a306.38,306.38,0,0,0,9.59,38.3c-3.53-3.47-6.82-7.18-10.12-10.82-1.41-1.53-2.76-3.06-4.17-4.65-4.36-4.71-8.3-9.94-12.12-15-1.24-1.71-2.53-3.36-3.82-5.06-.89-1.12-1.71-2.18-2.65-3.24l-1.24-1.59c-4.41-5.41-5.41-8.53-5.94-13.35a305.83,305.83,0,0,1-1.76-33.3c0-4.94.11-9.88.35-14.94.35-8.94,2.35-16.41,6-22.88A12.32,12.32,0,0,1,718.28,249.84Zm-27.94,2.3a74.58,74.58,0,0,1,11.35-15.42,16.68,16.68,0,0,0,9.36,3.24,13.52,13.52,0,0,0,3.76-.41,22,22,0,0,0-9.47,8.94c-5.06,8.94-7.59,20.29-7.7,34.82v.42c-.12,0-.36.23-.83.47a17.31,17.31,0,0,0-4.41,3.06,25.1,25.1,0,0,0-3.12,3.64,21.72,21.72,0,0,0,.36-2.76c.11-1.12.23-2.3.29-3.47a105.64,105.64,0,0,0-1.47-22.42A15.29,15.29,0,0,1,690.34,252.14Zm9,72.59a11.23,11.23,0,0,0-7.35-.59,62.89,62.89,0,0,1,2.53-19.3,19.91,19.91,0,0,1,3.17-6.88v6C697.87,310.14,698.34,316.79,699.34,324.73ZM394.14,45.59c-4.47,1-8.7-.41-12.41-2.47a207.16,207.16,0,0,1,27.83-15.41C407.5,36.83,401.56,43.83,394.14,45.59Zm21.3-33.29a216,216,0,0,0-44.3,23.88c-5.35-4-10.64-8.41-15.82-12.65l-.83-.7A251.14,251.14,0,0,1,415.44,12.3ZM304.84,23.94c2.42-6.94,6-10.29,11-10.29a15.38,15.38,0,0,1,4.17.65,40.2,40.2,0,0,1,9.83,4.47,260.21,260.21,0,0,0-26.71,12.47A49.42,49.42,0,0,1,304.84,23.94ZM250,85.89a248.4,248.4,0,0,1,91.18-58.65l.77.7c6.29,5.18,12.76,10.53,19.29,15.59a219,219,0,0,0-30.71,29.53,212.67,212.67,0,0,0-42.65,79.48c-16.23,4.82-33.23,5.82-49.71,6.71l-3.23.23c-14.94.83-27.24,2.77-38.3,6.06A248.76,248.76,0,0,1,250,85.89ZM177.37,262a250.5,250.5,0,0,1,13.53-81.42c7.94-3.17,16.94-5.41,28.29-7.06,7.77-1.17,15.77-1.59,23.47-2,5.3-.29,10.77-.59,16.18-1.11a196.46,196.46,0,0,0,25.59-4.12,222.31,222.31,0,0,0-4.82,42.12,214.8,214.8,0,0,0,31.88,117.42A54.78,54.78,0,0,1,304.37,341C298,351,290.84,360.55,284,369.85c-5.18,6.94-10.47,14.06-15.47,21.35-10.3,15-18.18,28.36-22.94,43.65-31.89-33.53-53-75-62.77-120-.78-3.56-1.46-6.84-2.06-10.76a274.17,274.17,0,0,1-3.35-40.59ZM172,324.14a11.2,11.2,0,0,0-7.35.59c.94-7.94,1.47-14.59,1.65-20.77v-6a16.71,16.71,0,0,1,2,3.65,25.3,25.3,0,0,1,1.17,3.23,59.7,59.7,0,0,1,2.47,16C172,321.85,172,323,172,324.14Zm-6.65-57.83c-2-6.83-3.94-12.88-6.76-17.82a22.16,22.16,0,0,0-8.06-8.24,44.65,44.65,0,0,1,4.29-28.47,60.83,60.83,0,0,1,15.42-19.12c1.76-1.47,3.64-2.82,5.53-4.18a262.69,262.69,0,0,0-10.42,75.13Zm-42.23,74.24c3.23-17.29,5.76-34.47,8-50.41.29-2.3.58-4.65.88-6.94,1-7.65,2-15.53,4.06-23a30.94,30.94,0,0,1,3.65-8.88,6.38,6.38,0,0,1,1.76-1.82,3.11,3.11,0,0,1,1.77-.59,4,4,0,0,1,2.47.94A13.1,13.1,0,0,1,149,254a47.66,47.66,0,0,1,5.65,18.47c.17,1.41.29,2.88.35,4.41.24,5.06.35,10,.35,14.94a305.83,305.83,0,0,1-1.76,33.3c-.53,4.82-1.53,7.94-5.94,13.35l-1.3,1.59c-.88,1.06-1.76,2.12-2.59,3.24-1.29,1.7-2.58,3.35-3.88,5.06a179.89,179.89,0,0,1-12.06,15c-1.41,1.59-2.82,3.12-4.17,4.65-3.3,3.64-6.65,7.35-10.18,10.82A296,296,0,0,0,123.13,340.55Zm35.59,34.71-.47,1c-.89,1.88-1.77,3.65-3.24,4.65-8.65,5.71-16.94,13.18-26.06,23.53-6.88,7.77-13.3,15.06-21.24,21.18l-2.11,1.64c-6.77,5.24-13.83,10.65-20.24,16.65C75.59,453,68.12,464.09,62,473.74a72.47,72.47,0,0,1-6,7.76l.89-2.53c2.7-7.82,5.41-15.7,8.23-23.53,4.53-12.76,9.18-21.94,15-29.82,7.59-10.3,17.12-18.42,24.59-24.42a252.26,252.26,0,0,0,39.48-40.06c1.88-2.35,3.7-4.82,5.53-7.23a162.88,162.88,0,0,1,10.23-12.71c2.65-2.82,6.36-7.11,8.42-6.12.93.46.76,3,.76,5.24l-.12,1.23a24.38,24.38,0,0,1-.29,2.94A101.12,101.12,0,0,1,158.72,375.26Zm74.41,122.89c-12.11,14.41-20,32-27.06,48.65-1.23,3-2.7,5.83-4.29,8.83l-.71,1.29a.63.63,0,0,1-.17.29c-.06,0-.18-.05-.42-.11-4.94-1.36-9.17-4.3-13.35-9.42a12.53,12.53,0,0,1-3-7.94c-.82-22.76-5.35-46.29-13.77-71.94-3.17-9.59-6.82-19.71-12.06-28.77-1.17-2.12-.94-2.82.53-4.94a163.79,163.79,0,0,0,15.42-28.3,40.47,40.47,0,0,0,3-12.17c.53-6.48-2.53-11.83-8.18-14.36,5.12-10,8.12-20.35,10.59-31.47a262.06,262.06,0,0,0,61.42,98.83l1.29,1.29a48.07,48.07,0,0,0-.18,18.3,50.61,50.61,0,0,0,6.94,17.06A87.57,87.57,0,0,0,233.13,498.15Zm26.06-20.7A37.51,37.51,0,0,1,253,457.91a245.39,245.39,0,0,0,19.41,15.71A41.42,41.42,0,0,0,259.19,477.45Zm166.9,35.11c-64.54-.7-125.25-24.94-171.13-68.35,3.53-13.06,9.53-25.77,18.76-39.83,6.12-9.35,12.89-18.41,19.42-27.18,4.64-6.29,9.47-12.82,14.12-19.41,4.7-6.77,8.94-13.06,12.11-20.06a224.67,224.67,0,0,0,20.3,24.35,214.65,214.65,0,0,0,94.54,57.07c3,.88,6,1.64,9,2.35a213.88,213.88,0,0,0,46.29,6.06,28.13,28.13,0,0,0,3.18.06l1.18,1.12q15.88,15.35,31.59,30.82a103,103,0,0,0,24.88,18.12c.77.35,1.47.71,2.24,1.06A253,253,0,0,1,426.09,512.56Zm139.48-41.88a71.28,71.28,0,0,1-22.3-12.18c-8.47-6.7-16.23-14.47-23.76-22-3.18-3.18-6.3-6.35-9.53-9.41V427c60.76-4.24,115.77-33.06,153.12-80A250.62,250.62,0,0,1,565.57,470.68Zm139.6-36.59c1.47,2.12,1.7,2.82.53,4.94-5.24,9.06-8.89,19.18-12.06,28.77-8.48,25.65-12.95,49.18-13.77,71.94a12.53,12.53,0,0,1-3,7.94c-4.18,5.12-8.41,8.06-13.35,9.42l-.42.11a.63.63,0,0,1-.17-.29l-.71-1.29c-1.59-3-3.06-5.83-4.35-8.83-7-16.7-14.89-34.24-27-48.65-8-9.53-18.83-18.47-30.3-22.41,5.94-5.83,9.71-13.94,10.94-23.94a8.82,8.82,0,0,0-.12-2.83c1.53-1.88,6.83-7.12,9.48-9.76l3.58-3.59c4.48-5.12,8.83-10.47,12.89-15.88a261.19,261.19,0,0,0,21.88-34.48A269.4,269.4,0,0,0,681,329a75.07,75.07,0,0,0,1.12,8.12c3,15.3,6.11,29,12.82,42.12-5.65,2.53-8.77,7.88-8.18,14.36a40.73,40.73,0,0,0,2.94,12.17A164.73,164.73,0,0,0,705.17,434.09Zm96.88,39.65c-6.23-9.65-13.64-20.77-23.41-29.83-6.47-6-13.47-11.41-20.24-16.65l-2.17-1.64c-7.88-6.12-14.36-13.41-21.18-21.18-9.18-10.35-17.47-17.82-26.06-23.53-1.53-1-2.35-2.77-3.24-4.65l-.53-1a104.52,104.52,0,0,1-9.94-30.77c-.12-1-.17-1.94-.29-2.94l-.06-1.23a15.8,15.8,0,0,1,.71-5.24,25.06,25.06,0,0,1,8.47,6.12,162.88,162.88,0,0,1,10.23,12.71c1.77,2.41,3.59,4.88,5.53,7.23a252.26,252.26,0,0,0,39.48,40.06c7.47,6,17,14.12,24.59,24.42,5.82,7.88,10.47,17.06,15,29.82,2.82,7.83,5.53,15.71,8.23,23.53l.89,2.53A59.74,59.74,0,0,1,802.05,473.74Z"/><path class="cls-1" d="M724.88,529.44A130.8,130.8,0,0,1,741,553.68c4.54,8.87,8,18.41,11.07,27.42a183.75,183.75,0,0,0,25.1,47.62c4.06,5.65,8.86,11.61,15.1,18.74.93,1.06,2.49,2.84,4.7,2.77,2.53-.05,4.29-1,5.23-2.93a5.5,5.5,0,0,0,.59-2.44A6,6,0,0,0,801.2,641h0c-2.48-2.93-5-5.85-7.38-8.82-12-14.64-20.9-29-27.11-43.87-2.2-5.26-4.21-10.73-6.15-16-1.37-3.74-2.75-7.49-4.2-11.21a144.43,144.43,0,0,0-21.88-37.31,19.13,19.13,0,0,0-5.37-5.17,5.47,5.47,0,0,0-7.45,1.38c-1.81,2.44-1.41,5.32,1,7.51l.79.69A10.44,10.44,0,0,1,724.88,529.44Z"/><path class="cls-1" d="M787.52,733.55q.66,0,1.32.06c3.34,0,5.59-1.79,6-4.91a6.3,6.3,0,0,0,0-.75,4.9,4.9,0,0,0-1.39-3.45,6.43,6.43,0,0,0-3.84-1.79,31.67,31.67,0,0,0-3.59-.35c-10.44-.25-20.73-3.47-30.59-9.57-7.68-4.76-14.68-10.31-22.38-16.54-3.46-2.81-6.79-1.93-8.55.18s-2.15,5.23,1.52,8.35,7.78,6.15,11.66,9c1.66,1.22,3.31,2.43,4.94,3.67C756.12,727.58,771,733,787,733.52Z"/><path class="cls-1" d="M134.87,518.57a19.13,19.13,0,0,0-5.37,5.17,144.71,144.71,0,0,0-21.88,37.31c-1.45,3.72-2.82,7.47-4.2,11.21-1.94,5.29-4,10.76-6.14,16-6.21,14.88-15.08,29.23-27.12,43.87-2.43,3-4.9,5.89-7.37,8.82h0a6,6,0,0,0-1.57,3.89,5.5,5.5,0,0,0,.59,2.44c.94,1.9,2.7,2.88,5.23,2.93,2.22.07,3.77-1.71,4.7-2.77,6.24-7.13,11-13.09,15.1-18.74a183.75,183.75,0,0,0,25.1-47.62c3.11-9,6.54-18.55,11.07-27.42a130.8,130.8,0,0,1,16.09-24.24,11.11,11.11,0,0,1,1.39-1.29l.79-.69c2.45-2.19,2.85-5.07,1-7.51A5.47,5.47,0,0,0,134.87,518.57Z"/><path class="cls-1" d="M130.86,696.25c-7.7,6.23-14.7,11.78-22.37,16.54-9.86,6.1-20.16,9.32-30.6,9.57a31.67,31.67,0,0,0-3.59.35,6.43,6.43,0,0,0-3.84,1.79A4.9,4.9,0,0,0,69.07,728a6.3,6.3,0,0,0,.05.75c.43,3.12,2.68,5,6,4.91l1.33-.06.55,0c15.94-.53,30.84-5.94,44.27-16.07,1.63-1.24,3.29-2.45,4.94-3.67,3.88-2.85,7.89-5.8,11.66-9s3.2-6.36,1.53-8.35S134.32,693.44,130.86,696.25Z"/></svg>