  0
SECTION
  2
HEADER
  9
$ACADVER
  1
AC1024
  9
$ACADMAINTVER
 70
     6
  9
$DWGCODEPAGE
  3
ANSI_1251
  9
$INSBASE
 10
0.0
 20
0.0
 30
0.0
  9
$EXTMIN
 10
1.000000000000000E+20
 20
1.000000000000000E+20
 30
1.000000000000000E+20
  9
$EXTMAX
 10
-1.000000000000000E+20
 20
-1.000000000000000E+20
 30
-1.000000000000000E+20
  9
$LIMMIN
 10
0.0
 20
0.0
  9
$LIMMAX
 10
12.0
 20
9.0
  9
$ORTHOMODE
 70
     0
  9
$REGENMODE
 70
     1
  9
$FILLMODE
 70
     1
  9
$QTEXTMODE
 70
     0
  9
$MIRRTEXT
 70
     1
  9
$LTSCALE
 40
1.0
  9
$ATTMODE
 70
     1
  9
$TEXTSIZE
 40
0.2
  9
$TRACEWID
 40
0.05
  9
$TEXTSTYLE
  7
Standard
  9
$CLAYER
  8
0
  9
$CELTYPE
  6
ByLayer
  9
$CECOLOR
 62
   256
  9
$CELTSCALE
 40
1.0
  9
$DISPSILH
 70
     0
  9
$DIMSCALE
 40
1.0
  9
$DIMASZ
 40
0.18
  9
$DIMEXO
 40
0.0625
  9
$DIMDLI
 40
0.38
  9
$DIMRND
 40
0.0
  9
$DIMDLE
 40
0.0
  9
$DIMEXE
 40
0.18
  9
$DIMTP
 40
0.0
  9
$DIMTM
 40
0.0
  9
$DIMTXT
 40
0.18
  9
$DIMCEN
 40
0.09
  9
$DIMTSZ
 40
0.0
  9
$DIMTOL
 70
     0
  9
$DIMLIM
 70
     0
  9
$DIMTIH
 70
     1
  9
$DIMTOH
 70
     1
  9
$DIMSE1
 70
     0
  9
$DIMSE2
 70
     0
  9
$DIMTAD
 70
     0
  9
$DIMZIN
 70
     0
  9
$DIMBLK
  1

  9
$DIMASO
 70
     1
  9
$DIMSHO
 70
     1
  9
$DIMPOST
  1

  9
$DIMAPOST
  1

  9
$DIMALT
 70
     0
  9
$DIMALTD
 70
     2
  9
$DIMALTF
 40
25.4
  9
$DIMLFAC
 40
1.0
  9
$DIMTOFL
 70
     0
  9
$DIMTVP
 40
0.0
  9
$DIMTIX
 70
     0
  9
$DIMSOXD
 70
     0
  9
$DIMSAH
 70
     0
  9
$DIMBLK1
  1

  9
$DIMBLK2
  1

  9
$DIMSTYLE
  2
Standard
  9
$DIMCLRD
 70
     0
  9
$DIMCLRE
 70
     0
  9
$DIMCLRT
 70
     0
  9
$DIMTFAC
 40
1.0
  9
$DIMGAP
 40
0.09
  9
$DIMJUST
 70
     0
  9
$DIMSD1
 70
     0
  9
$DIMSD2
 70
     0
  9
$DIMTOLJ
 70
     1
  9
$DIMTZIN
 70
     0
  9
$DIMALTZ
 70
     0
  9
$DIMALTTZ
 70
     0
  9
$DIMUPT
 70
     0
  9
$DIMDEC
 70
     4
  9
$DIMTDEC
 70
     4
  9
$DIMALTU
 70
     2
  9
$DIMALTTD
 70
     2
  9
$DIMTXSTY
  7
Standard
  9
$DIMAUNIT
 70
     0
  9
$DIMADEC
 70
     0
  9
$DIMALTRND
 40
0.0
  9
$DIMAZIN
 70
     0
  9
$DIMDSEP
 70
    46
  9
$DIMATFIT
 70
     3
  9
$DIMFRAC
 70
     0
  9
$DIMLDRBLK
  1

  9
$DIMLUNIT
 70
     2
  9
$DIMLWD
 70
    -2
  9
$DIMLWE
 70
    -2
  9
$DIMTMOVE
 70
     0
  9
$DIMFXL
 40
1.0
  9
$DIMFXLON
 70
     0
  9
$DIMJOGANG
 40
0.7853981633974483
  9
$DIMTFILL
 70
     0
  9
$DIMTFILLCLR
 70
     0
  9
$DIMARCSYM
 70
     0
  9
$DIMLTYPE
  6

  9
$DIMLTEX1
  6

  9
$DIMLTEX2
  6

  9
$DIMTXTDIRECTION
 70
     0
  9
$LUNITS
 70
     2
  9
$LUPREC
 70
     4
  9
$SKETCHINC
 40
0.1
  9
$FILLETRAD
 40
0.5
  9
$AUNITS
 70
     0
  9
$AUPREC
 70
     0
  9
$MENU
  1
.
  9
$ELEVATION
 40
0.0
  9
$PELEVATION
 40
0.0
  9
$THICKNESS
 40
0.0
  9
$LIMCHECK
 70
     0
  9
$CHAMFERA
 40
0.5
  9
$CHAMFERB
 40
0.5
  9
$CHAMFERC
 40
1.0
  9
$CHAMFERD
 40
0.0
  9
$SKPOLY
 70
     0
  9
$TDCREATE
 40
2459337.687453032
  9
$TDUCREATE
 40
2459337.562453032
  9
$TDUPDATE
 40
2459337.687453032
  9
$TDUUPDATE
 40
2459337.562453032
  9
$TDINDWG
 40
0.0000000116
  9
$TDUSRTIMER
 40
0.0000000116
  9
$USRTIMER
 70
     1
  9
$ANGBASE
 50
0.0
  9
$ANGDIR
 70
     0
  9
$PDMODE
 70
     0
  9
$PDSIZE
 40
0.0
  9
$PLINEWID
 40
0.0
  9
$SPLFRAME
 70
     0
  9
$SPLINETYPE
 70
     6
  9
$SPLINESEGS
 70
     8
  9
$HANDSEED
  5
51
  9
$SURFTAB1
 70
     6
  9
$SURFTAB2
 70
     6
  9
$SURFTYPE
 70
     6
  9
$SURFU
 70
     6
  9
$SURFV
 70
     6
  9
$UCSBASE
  2

  9
$UCSNAME
  2

  9
$UCSORG
 10
0.0
 20
0.0
 30
0.0
  9
$UCSXDIR
 10
1.0
 20
0.0
 30
0.0
  9
$UCSYDIR
 10
0.0
 20
1.0
 30
0.0
  9
$UCSORTHOREF
  2

  9
$UCSORTHOVIEW
 70
     0
  9
$UCSORGTOP
 10
0.0
 20
0.0
 30
0.0
  9
$UCSORGBOTTOM
 10
0.0
 20
0.0
 30
0.0
  9
$UCSORGLEFT
 10
0.0
 20
0.0
 30
0.0
  9
$UCSORGRIGHT
 10
0.0
 20
0.0
 30
0.0
  9
$UCSORGFRONT
 10
0.0
 20
0.0
 30
0.0
  9
$UCSORGBACK
 10
0.0
 20
0.0
 30
0.0
  9
$PUCSBASE
  2

  9
$PUCSNAME
  2

  9
$PUCSORG
 10
0.0
 20
0.0
 30
0.0
  9
$PUCSXDIR
 10
1.0
 20
0.0
 30
0.0
  9
$PUCSYDIR
 10
0.0
 20
1.0
 30
0.0
  9
$PUCSORTHOREF
  2

  9
$PUCSORTHOVIEW
 70
     0
  9
$PUCSORGTOP
 10
0.0
 20
0.0
 30
0.0
  9
$PUCSORGBOTTOM
 10
0.0
 20
0.0
 30
0.0
  9
$PUCSORGLEFT
 10
0.0
 20
0.0
 30
0.0
  9
$PUCSORGRIGHT
 10
0.0
 20
0.0
 30
0.0
  9
$PUCSORGFRONT
 10
0.0
 20
0.0
 30
0.0
  9
$PUCSORGBACK
 10
0.0
 20
0.0
 30
0.0
  9
$USERI1
 70
     0
  9
$USERI2
 70
     0
  9
$USERI3
 70
     0
  9
$USERI4
 70
     0
  9
$USERI5
 70
     0
  9
$USERR1
 40
0.0
  9
$USERR2
 40
0.0
  9
$USERR3
 40
0.0
  9
$USERR4
 40
0.0
  9
$USERR5
 40
0.0
  9
$WORLDVIEW
 70
     1
  9
$SHADEDGE
 70
     3
  9
$SHADEDIF
 70
    70
  9
$TILEMODE
 70
     1
  9
$MAXACTVP
 70
    64
  9
$PINSBASE
 10
0.0
 20
0.0
 30
0.0
  9
$PLIMCHECK
 70
     0
  9
$PEXTMIN
 10
1.000000000000000E+20
 20
1.000000000000000E+20
 30
1.000000000000000E+20
  9
$PEXTMAX
 10
-1.000000000000000E+20
 20
-1.000000000000000E+20
 30
-1.000000000000000E+20
  9
$PLIMMIN
 10
0.0
 20
0.0
  9
$PLIMMAX
 10
12.0
 20
9.0
  9
$UNITMODE
 70
     0
  9
$VISRETAIN
 70
     1
  9
$PLINEGEN
 70
     0
  9
$PSLTSCALE
 70
     1
  9
$TREEDEPTH
 70
  3020
  9
$CMLSTYLE
  2
Standard
  9
$CMLJUST
 70
     0
  9
$CMLSCALE
 40
1.0
  9
$PROXYGRAPHICS
 70
     1
  9
$MEASUREMENT
 70
     0
  9
$CELWEIGHT
370
    -1
  9
$ENDCAPS
280
     0
  9
$JOINSTYLE
280
     0
  9
$LWDISPLAY
290
     1
  9
$INSUNITS
 70
     1
  9
$HYPERLINKBASE
  1

  9
$STYLESHEET
  1

  9
$XEDIT
290
     1
  9
$CEPSNTYPE
380
     0
  9
$PSTYLEMODE
290
     1
  9
$FINGERPRINTGUID
  2
{D4F5164F-947F-4A0B-AB56-D098FA18410E}
  9
$VERSIONGUID
  2
{FAEB1C32-E019-11D5-929B-00C0DF256EC4}
  9
$EXTNAMES
290
     1
  9
$PSVPSCALE
 40
0.0
  9
$OLESTARTUP
290
     0
  9
$SORTENTS
280
   127
  9
$INDEXCTL
280
     0
  9
$HIDETEXT
280
     1
  9
$XCLIPFRAME
280
     2
  9
$HALOGAP
280
     0
  9
$OBSCOLOR
 70
   257
  9
$OBSLTYPE
280
     0
  9
$INTERSECTIONDISPLAY
280
     0
  9
$INTERSECTIONCOLOR
 70
   257
  9
$DIMASSOC
280
     2
  9
$PROJECTNAME
  1

  9
$CAMERADISPLAY
290
     0
  9
$LENSLENGTH
 40
50.0
  9
$CAMERAHEIGHT
 40
0.0
  9
$STEPSPERSEC
 40
2.0
  9
$STEPSIZE
 40
6.0
  9
$3DDWFPREC
 40
2.0
  9
$PSOLWIDTH
 40
0.25
  9
$PSOLHEIGHT
 40
4.0
  9
$LOFTANG1
 40
1.570796326794897
  9
$LOFTANG2
 40
1.570796326794897
  9
$LOFTMAG1
 40
0.0
  9
$LOFTMAG2
 40
0.0
  9
$LOFTPARAM
 70
     7
  9
$LOFTNORMALS
280
     1
  9
$LATITUDE
 40
37.795
  9
$LONGITUDE
 40
-122.394
  9
$NORTHDIRECTION
 40
0.0
  9
$TIMEZONE
 70
 -8000
  9
$LIGHTGLYPHDISPLAY
280
     1
  9
$TILEMODELIGHTSYNCH
280
     1
  9
$CMATERIAL
347
3C
  9
$SOLIDHIST
280
     1
  9
$SHOWHIST
280
     1
  9
$DWFFRAME
280
     2
  9
$DGNFRAME
280
     2
  9
$REALWORLDSCALE
290
     1
  9
$INTERFERECOLOR
 62
   256
  9
$CSHADOW
280
     0
  9
$SHADOWPLANELOCATION
 40
0.0
  0
ENDSEC
  0
SECTION
  2
CLASSES
  0
CLASS
  1
ACDBDICTIONARYWDFLT
  2
AcDbDictionaryWithDefault
  3
ObjectDBX Classes
 90
        0
 91
        4
280
     0
281
     0
  0
CLASS
  1
VISUALSTYLE
  2
AcDbVisualStyle
  3
ObjectDBX Classes
 90
     4095
 91
        4
280
     0
281
     0
  0
CLASS
  1
MATERIAL
  2
AcDbMaterial
  3
ObjectDBX Classes
 90
     1153
 91
        4
280
     0
281
     0
  0
CLASS
  1
SUN
  2
AcDbSun
  3
SCENEOE
 90
     1024
 91
        4
280
     0
281
     0
  0
ENDSEC
  0
SECTION
  2
TABLES
  0
TABLE
  2
VPORT
  5
8
330
0
100
AcDbSymbolTable
 70
     1
  0
VPORT
  5
29
330
8
100
AcDbSymbolTableRecord
100
AcDbViewportTableRecord
  2
*Active
 70
     0
 10
0.0
 20
0.0
 11
1.0
 21
1.0
 12
0.0
 22
0.0
 13
0.0
 23
0.0
 14
0.5
 24
0.5
 15
0.5
 25
0.5
 16
0.0
 26
0.0
 36
1.0
 17
17.67660555555555
 27
-6.041602777777787
 37
0.0
 40
6.415097222222231
 41
1.870587394752393
 42
50.0
 43
0.0
 44
0.0
 50
0.0
 51
0.0
 71
     0
 72
   100
 73
     1
 74
     3
 75
     0
 76
     0
 77
     0
 78
     0
281
     0
 65
     1
110
0.0
120
0.0
130
0.0
111
1.0
121
0.0
131
0.0
112
0.0
122
1.0
132
0.0
 79
     0
146
0.0
 60
     3
 61
     5
292
     1
282
     1
141
0.0
142
0.0
 63
   250
361
3F
  0
ENDTAB
  0
TABLE
  2
LTYPE
  5
5
330
0
100
AcDbSymbolTable
 70
     1
  0
LTYPE
  5
14
330
5
100
AcDbSymbolTableRecord
100
AcDbLinetypeTableRecord
  2
ByBlock
 70
     0
  3

 72
    65
 73
     0
 40
0.0
  0
LTYPE
  5
15
330
5
100
AcDbSymbolTableRecord
100
AcDbLinetypeTableRecord
  2
ByLayer
 70
     0
  3

 72
    65
 73
     0
 40
0.0
  0
LTYPE
  5
16
330
5
100
AcDbSymbolTableRecord
100
AcDbLinetypeTableRecord
  2
Continuous
 70
     0
  3
Solid line
 72
    65
 73
     0
 40
0.0
  0
ENDTAB
  0
TABLE
  2
LAYER
  5
2
330
0
100
AcDbSymbolTable
 70
     2
  0
LAYER
  5
10
330
2
100
AcDbSymbolTableRecord
100
AcDbLayerTableRecord
  2
0
 70
     0
 62
     7
  6
Continuous
370
    -3
390
F
347
3E
  0
LAYER
  5
40
330
2
100
AcDbSymbolTableRecord
100
AcDbLayerTableRecord
  2
Layer 1
 70
     0
 62
     7
  6
Continuous
370
    -3
390
F
347
3E
  0
ENDTAB
  0
TABLE
  2
STYLE
  5
3
330
0
100
AcDbSymbolTable
 70
     1
  0
STYLE
  5
11
330
3
100
AcDbSymbolTableRecord
100
AcDbTextStyleTableRecord
  2
Standard
 70
     0
 40
0.0
 41
1.0
 50
0.0
 71
     0
 42
0.2
  3
txt
  4

  0
ENDTAB
  0
TABLE
  2
VIEW
  5
6
330
0
100
AcDbSymbolTable
 70
     0
  0
ENDTAB
  0
TABLE
  2
UCS
  5
7
330
0
100
AcDbSymbolTable
 70
     0
  0
ENDTAB
  0
TABLE
  2
APPID
  5
9
330
0
100
AcDbSymbolTable
 70
     1
  0
APPID
  5
12
330
9
100
AcDbSymbolTableRecord
100
AcDbRegAppTableRecord
  2
ACAD
 70
     0
  0
ENDTAB
  0
TABLE
  2
DIMSTYLE
  5
A
330
0
100
AcDbSymbolTable
 70
     1
100
AcDbDimStyleTable
  0
DIMSTYLE
105
27
330
A
100
AcDbSymbolTableRecord
100
AcDbDimStyleTableRecord
  2
Standard
 70
     0
178
     0
340
11
  0
ENDTAB
  0
TABLE
  2
BLOCK_RECORD
  5
1
330
0
100
AcDbSymbolTable
 70
     1
  0
BLOCK_RECORD
  5
1F
330
1
100
AcDbSymbolTableRecord
100
AcDbBlockTableRecord
  2
*Model_Space
340
22
 70
     0
280
     1
281
     0
  0
BLOCK_RECORD
  5
1B
330
1
100
AcDbSymbolTableRecord
100
AcDbBlockTableRecord
  2
*Paper_Space
340
1E
 70
     0
280
     1
281
     0
  0
BLOCK_RECORD
  5
23
330
1
100
AcDbSymbolTableRecord
100
AcDbBlockTableRecord
  2
*Paper_Space0
340
26
 70
     0
280
     1
281
     0
  0
ENDTAB
  0
ENDSEC
  0
SECTION
  2
BLOCKS
  0
BLOCK
  5
20
330
1F
100
AcDbEntity
  8
0
100
AcDbBlockBegin
  2
*Model_Space
 70
     0
 10
0.0
 20
0.0
 30
0.0
  3
*Model_Space
  1

  0
ENDBLK
  5
21
330
1F
100
AcDbEntity
  8
0
100
AcDbBlockEnd
  0
BLOCK
  5
1C
330
1B
100
AcDbEntity
 67
     1
  8
0
100
AcDbBlockBegin
  2
*Paper_Space
 70
     0
 10
0.0
 20
0.0
 30
0.0
  3
*Paper_Space
  1

  0
ENDBLK
  5
1D
330
1B
100
AcDbEntity
 67
     1
  8
0
100
AcDbBlockEnd
  0
BLOCK
  5
24
330
23
100
AcDbEntity
  8
0
100
AcDbBlockBegin
  2
*Paper_Space0
 70
     0
 10
0.0
 20
0.0
 30
0.0
  3
*Paper_Space0
  1

  0
ENDBLK
  5
25
330
23
100
AcDbEntity
  8
0
100
AcDbBlockEnd
  0
ENDSEC
  0
SECTION
  2
ENTITIES
  0
SPLINE
  5
41
330
1F
100
AcDbEntity
  8
Layer 1
370
     0
100
AcDbSpline
210
0.0
220
0.0
230
1.0
 70
    11
 71
     3
 72
    53
 73
    49
 74
     0
 42
0.0000000001
 43
0.0000000001
 12
1.0
 22
0.0
 32
0.0
 13
1.0
 23
0.0
 33
0.0
 40
0.0
 40
0.0
 40
0.0
 40
0.0
 40
1.0
 40
1.0
 40
1.0
 40
2.0
 40
2.0
 40
2.0
 40
3.0
 40
3.0
 40
3.0
 40
4.0
 40
4.0
 40
4.0
 40
5.0
 40
5.0
 40
5.0
 40
6.0
 40
6.0
 40
6.0
 40
7.0
 40
7.0
 40
7.0
 40
8.0
 40
8.0
 40
8.0
 40
9.0
 40
9.0
 40
9.0
 40
10.0
 40
10.0
 40
10.0
 40
11.0
 40
11.0
 40
11.0
 40
12.0
 40
12.0
 40
12.0
 40
13.0
 40
13.0
 40
13.0
 40
14.0
 40
14.0
 40
14.0
 40
15.0
 40
15.0
 40
15.0
 40
16.0
 40
16.0
 40
16.0
 40
16.0
 10
17.11397777777778
 20
-5.958098611111116
 30
0.0
 10
17.11397777777778
 20
-5.958098611111116
 30
0.0
 10
17.11397083333333
 20
-5.958098611111116
 30
0.0
 10
17.11397083333333
 20
-5.958098611111116
 30
0.0
 10
17.09409722222222
 20
-5.963616666666667
 30
0.0
 10
17.09409722222222
 20
-5.997231944444441
 30
0.0
 10
17.11397083333333
 20
-6.00274444444445
 30
0.0
 10
17.11397083333333
 20
-6.00274444444445
 30
0.0
 10
17.11397083333333
 20
-6.00274444444445
 30
0.0
 10
17.11397083333333
 20
-6.00274444444445
 30
0.0
 10
17.3589625
 20
-6.070740277777784
 30
0.0
 10
17.55026805555556
 20
-6.298045833333339
 30
0.0
 10
17.60749166666667
 20
-6.589158333333343
 30
0.0
 10
17.60749166666667
 20
-6.589158333333343
 30
0.0
 10
17.60749166666667
 20
-6.589158333333343
 30
0.0
 10
17.60749166666667
 20
-6.589158333333343
 30
0.0
 10
17.61212777777778
 20
-6.612772222222222
 30
0.0
 10
17.64042222222222
 20
-6.612772222222222
 30
0.0
 10
17.64505833333333
 20
-6.589158333333343
 30
0.0
 10
17.64505833333333
 20
-6.589158333333343
 30
0.0
 10
17.64505833333333
 20
-6.589158333333343
 30
0.0
 10
17.64505833333333
 20
-6.589158333333343
 30
0.0
 10
17.70228194444444
 20
-6.298045833333339
 30
0.0
 10
17.89358055555554
 20
-6.070740277777784
 30
0.0
 10
18.13857916666666
 20
-6.00274444444445
 30
0.0
 10
18.13857916666666
 20
-6.00274444444445
 30
0.0
 10
18.1385861111111
 20
-6.00274444444445
 30
0.0
 10
18.1385861111111
 20
-6.00274444444445
 30
0.0
 10
18.15845277777779
 20
-5.997231944444441
 30
0.0
 10
18.15845277777779
 20
-5.963616666666667
 30
0.0
 10
18.1385861111111
 20
-5.958098611111116
 30
0.0
 10
18.1385861111111
 20
-5.958098611111116
 30
0.0
 10
18.13857916666666
 20
-5.958098611111116
 30
0.0
 10
18.13857916666666
 20
-5.958098611111116
 30
0.0
 10
17.89358055555554
 20
-5.890108333333337
 30
0.0
 10
17.70228194444444
 20
-5.662797222222227
 30
0.0
 10
17.64505833333333
 20
-5.371683333333332
 30
0.0
 10
17.64505833333333
 20
-5.371683333333332
 30
0.0
 10
17.64505833333333
 20
-5.371683333333332
 30
0.0
 10
17.64505833333333
 20
-5.371683333333332
 30
0.0
 10
17.64042222222222
 20
-5.348070833333332
 30
0.0
 10
17.61212777777778
 20
-5.348070833333332
 30
0.0
 10
17.60749166666667
 20
-5.371683333333332
 30
0.0
 10
17.60749166666667
 20
-5.371683333333332
 30
0.0
 10
17.60749166666667
 20
-5.371690277777778
 30
0.0
 10
17.60749166666667
 20
-5.371690277777778
 30
0.0
 10
17.55026805555556
 20
-5.662797222222227
 30
0.0
 10
17.35896944444444
 20
-5.890108333333337
 30
0.0
 10
17.11397777777778
 20
-5.958098611111116
 30
0.0
  0
HATCH
  5
42
330
1F
100
AcDbEntity
  8
Layer 1
 62
    35
420
 10579544
100
AcDbHatch
 10
0.0
 20
0.0
 30
0.0
210
0.0
220
0.0
230
1.0
  2
SOLID
 70
     1
 71
     0
 91
        1
 92
        1
 93
        1
 72
     4
 94
        3
 73
     0
 74
     1
 95
       53
 96
       49
 40
0.0
 40
0.0
 40
0.0
 40
0.0
 40
1.0
 40
1.0
 40
1.0
 40
2.0
 40
2.0
 40
2.0
 40
3.0
 40
3.0
 40
3.0
 40
4.0
 40
4.0
 40
4.0
 40
5.0
 40
5.0
 40
5.0
 40
6.0
 40
6.0
 40
6.0
 40
7.0
 40
7.0
 40
7.0
 40
8.0
 40
8.0
 40
8.0
 40
9.0
 40
9.0
 40
9.0
 40
10.0
 40
10.0
 40
10.0
 40
11.0
 40
11.0
 40
11.0
 40
12.0
 40
12.0
 40
12.0
 40
13.0
 40
13.0
 40
13.0
 40
14.0
 40
14.0
 40
14.0
 40
15.0
 40
15.0
 40
15.0
 40
16.0
 40
16.0
 40
16.0
 40
16.0
 10
17.11397777777778
 20
-5.958098611111116
 10
17.11397777777778
 20
-5.958098611111116
 10
17.11397083333333
 20
-5.958098611111116
 10
17.11397083333333
 20
-5.958098611111116
 10
17.09409722222222
 20
-5.963616666666667
 10
17.09409722222222
 20
-5.997231944444441
 10
17.11397083333333
 20
-6.00274444444445
 10
17.11397083333333
 20
-6.00274444444445
 10
17.11397083333333
 20
-6.00274444444445
 10
17.11397083333333
 20
-6.00274444444445
 10
17.3589625
 20
-6.070740277777784
 10
17.55026805555556
 20
-6.298045833333339
 10
17.60749166666667
 20
-6.589158333333343
 10
17.60749166666667
 20
-6.589158333333343
 10
17.60749166666667
 20
-6.589158333333343
 10
17.60749166666667
 20
-6.589158333333343
 10
17.61212777777778
 20
-6.612772222222222
 10
17.64042222222222
 20
-6.612772222222222
 10
17.64505833333333
 20
-6.589158333333343
 10
17.64505833333333
 20
-6.589158333333343
 10
17.64505833333333
 20
-6.589158333333343
 10
17.64505833333333
 20
-6.589158333333343
 10
17.70228194444444
 20
-6.298045833333339
 10
17.89358055555554
 20
-6.070740277777784
 10
18.13857916666666
 20
-6.00274444444445
 10
18.13857916666666
 20
-6.00274444444445
 10
18.1385861111111
 20
-6.00274444444445
 10
18.1385861111111
 20
-6.00274444444445
 10
18.15845277777779
 20
-5.997231944444441
 10
18.15845277777779
 20
-5.963616666666667
 10
18.1385861111111
 20
-5.958098611111116
 10
18.1385861111111
 20
-5.958098611111116
 10
18.13857916666666
 20
-5.958098611111116
 10
18.13857916666666
 20
-5.958098611111116
 10
17.89358055555554
 20
-5.890108333333337
 10
17.70228194444444
 20
-5.662797222222227
 10
17.64505833333333
 20
-5.371683333333332
 10
17.64505833333333
 20
-5.371683333333332
 10
17.64505833333333
 20
-5.371683333333332
 10
17.64505833333333
 20
-5.371683333333332
 10
17.64042222222222
 20
-5.348070833333332
 10
17.61212777777778
 20
-5.348070833333332
 10
17.60749166666667
 20
-5.371683333333332
 10
17.60749166666667
 20
-5.371683333333332
 10
17.60749166666667
 20
-5.371690277777778
 10
17.60749166666667
 20
-5.371690277777778
 10
17.55026805555556
 20
-5.662797222222227
 10
17.35896944444444
 20
-5.890108333333337
 10
17.11397777777778
 20
-5.958098611111116
 97
        0
 97
        0
 75
     2
 76
     1
 98
        0
  0
SPLINE
  5
43
330
1F
100
AcDbEntity
  8
Layer 1
370
     0
100
AcDbSpline
210
0.0
220
0.0
230
1.0
 70
    11
 71
     3
 72
    44
 73
    40
 74
     0
 42
0.0000000001
 43
0.0000000001
 12
1.0
 22
0.0
 32
0.0
 13
1.0
 23
0.0
 33
0.0
 40
0.0
 40
0.0
 40
0.0
 40
0.0
 40
1.0
 40
1.0
 40
1.0
 40
2.0
 40
2.0
 40
2.0
 40
3.0
 40
3.0
 40
3.0
 40
4.0
 40
4.0
 40
4.0
 40
5.0
 40
5.0
 40
5.0
 40
6.0
 40
6.0
 40
6.0
 40
7.0
 40
7.0
 40
7.0
 40
8.0
 40
8.0
 40
8.0
 40
9.0
 40
9.0
 40
9.0
 40
10.0
 40
10.0
 40
10.0
 40
11.0
 40
11.0
 40
11.0
 40
12.0
 40
12.0
 40
12.0
 40
13.0
 40
13.0
 40
13.0
 40
13.0
 10
17.83797638888889
 20
-3.427259722222225
 30
0.0
 10
17.717275
 20
-3.427384722222225
 30
0.0
 10
17.59005416666667
 20
-3.455020833333328
 30
0.0
 10
17.63581944444445
 20
-3.590473611111115
 30
0.0
 10
17.68300694444444
 20
-3.730100000000006
 30
0.0
 10
17.89487777777777
 20
-3.809093055555561
 30
0.0
 10
18.02685972222222
 20
-3.830526388888883
 30
0.0
 10
18.17959722222223
 20
-3.855331944444439
 30
0.0
 10
18.33844444444445
 20
-3.84579722222222
 30
0.0
 10
18.48738333333333
 20
-3.892470833333328
 30
0.0
 10
18.53494583333334
 20
-3.90737361111111
 30
0.0
 10
18.61252916666666
 20
-3.956180555555559
 30
0.0
 10
18.66017916666667
 20
-3.922643055555555
 30
0.0
 10
18.73095277777778
 20
-3.872834722222226
 30
0.0
 10
18.80783888888888
 20
-3.835090277777782
 30
0.0
 10
18.88979583333333
 20
-3.807070833333329
 30
0.0
 10
19.00146805555556
 20
-3.768891666666668
 30
0.0
 10
19.11563194444446
 20
-3.737422222222222
 30
0.0
 10
19.22114166666668
 20
-3.682550000000004
 30
0.0
 10
19.27459861111111
 20
-3.654755555555552
 30
0.0
 10
19.32914722222222
 20
-3.629047222222223
 30
0.0
 10
19.38346805555557
 20
-3.602944444444448
 30
0.0
 10
19.39415416666667
 20
-3.597808333333331
 30
0.0
 10
19.39335138888888
 20
-3.594555555555555
 30
0.0
 10
19.38424444444445
 20
-3.589287500000005
 30
0.0
 10
19.37798194444445
 20
-3.585666666666662
 30
0.0
 10
19.37214722222224
 20
-3.58132083333333
 30
0.0
 10
19.36588611111112
 20
-3.577718055555553
 30
0.0
 10
19.22224722222222
 20
-3.494972222222221
 30
0.0
 10
19.06833194444446
 20
-3.44905555555556
 30
0.0
 10
18.90177222222221
 20
-3.45078055555555
 30
0.0
 10
18.71489999999999
 20
-3.452709722222228
 30
0.0
 10
18.53077777777778
 20
-3.392266666666665
 30
0.0
 10
18.34444444444443
 20
-3.411534722222225
 30
0.0
 10
18.22343194444445
 20
-3.424052777777774
 30
0.0
 10
18.11201527777778
 20
-3.450451388888887
 30
0.0
 10
17.98887777777776
 20
-3.437366666666662
 30
0.0
 10
17.95390416666666
 20
-3.433652777777777
 30
0.0
 10
17.89671527777778
 20
-3.427199999999996
 30
0.0
 10
17.83797638888889
 20
-3.427259722222225
 30
0.0
  0
HATCH
  5
44
330
1F
100
AcDbEntity
  8
Layer 1
 62
    35
420
 10579544
100
AcDbHatch
 10
0.0
 20
0.0
 30
0.0
210
0.0
220
0.0
230
1.0
  2
SOLID
 70
     1
 71
     0
 91
        1
 92
        1
 93
        1
 72
     4
 94
        3
 73
     0
 74
     1
 95
       44
 96
       40
 40
0.0
 40
0.0
 40
0.0
 40
0.0
 40
1.0
 40
1.0
 40
1.0
 40
2.0
 40
2.0
 40
2.0
 40
3.0
 40
3.0
 40
3.0
 40
4.0
 40
4.0
 40
4.0
 40
5.0
 40
5.0
 40
5.0
 40
6.0
 40
6.0
 40
6.0
 40
7.0
 40
7.0
 40
7.0
 40
8.0
 40
8.0
 40
8.0
 40
9.0
 40
9.0
 40
9.0
 40
10.0
 40
10.0
 40
10.0
 40
11.0
 40
11.0
 40
11.0
 40
12.0
 40
12.0
 40
12.0
 40
13.0
 40
13.0
 40
13.0
 40
13.0
 10
17.83797638888889
 20
-3.427259722222225
 10
17.717275
 20
-3.427384722222225
 10
17.59005416666667
 20
-3.455020833333328
 10
17.63581944444445
 20
-3.590473611111115
 10
17.68300694444444
 20
-3.730100000000006
 10
17.89487777777777
 20
-3.809093055555561
 10
18.02685972222222
 20
-3.830526388888883
 10
18.17959722222223
 20
-3.855331944444439
 10
18.33844444444445
 20
-3.84579722222222
 10
18.48738333333333
 20
-3.892470833333328
 10
18.53494583333334
 20
-3.90737361111111
 10
18.61252916666666
 20
-3.956180555555559
 10
18.66017916666667
 20
-3.922643055555555
 10
18.73095277777778
 20
-3.872834722222226
 10
18.80783888888888
 20
-3.835090277777782
 10
18.88979583333333
 20
-3.807070833333329
 10
19.00146805555556
 20
-3.768891666666668
 10
19.11563194444446
 20
-3.737422222222222
 10
19.22114166666668
 20
-3.682550000000004
 10
19.27459861111111
 20
-3.654755555555552
 10
19.32914722222222
 20
-3.629047222222223
 10
19.38346805555557
 20
-3.602944444444448
 10
19.39415416666667
 20
-3.597808333333331
 10
19.39335138888888
 20
-3.594555555555555
 10
19.38424444444445
 20
-3.589287500000005
 10
19.37798194444445
 20
-3.585666666666662
 10
19.37214722222224
 20
-3.58132083333333
 10
19.36588611111112
 20
-3.577718055555553
 10
19.22224722222222
 20
-3.494972222222221
 10
19.06833194444446
 20
-3.44905555555556
 10
18.90177222222221
 20
-3.45078055555555
 10
18.71489999999999
 20
-3.452709722222228
 10
18.53077777777778
 20
-3.392266666666665
 10
18.34444444444443
 20
-3.411534722222225
 10
18.22343194444445
 20
-3.424052777777774
 10
18.11201527777778
 20
-3.450451388888887
 10
17.98887777777776
 20
-3.437366666666662
 10
17.95390416666666
 20
-3.433652777777777
 10
17.89671527777778
 20
-3.427199999999996
 10
17.83797638888889
 20
-3.427259722222225
 97
        0
 97
        0
 75
     2
 76
     1
 98
        0
  0
SPLINE
  5
45
330
1F
100
AcDbEntity
  8
Layer 1
370
     0
100
AcDbSpline
210
0.0
220
0.0
230
1.0
 70
    11
 71
     3
 72
   209
 73
   205
 74
     0
 42
0.0000000001
 43
0.0000000001
 12
1.0
 22
0.0
 32
0.0
 13
1.0
 23
0.0
 33
0.0
 40
0.0
 40
0.0
 40
0.0
 40
0.0
 40
1.0
 40
1.0
 40
1.0
 40
2.0
 40
2.0
 40
2.0
 40
3.0
 40
3.0
 40
3.0
 40
4.0
 40
4.0
 40
4.0
 40
5.0
 40
5.0
 40
5.0
 40
6.0
 40
6.0
 40
6.0
 40
7.0
 40
7.0
 40
7.0
 40
8.0
 40
8.0
 40
8.0
 40
9.0
 40
9.0
 40
9.0
 40
10.0
 40
10.0
 40
10.0
 40
11.0
 40
11.0
 40
11.0
 40
12.0
 40
12.0
 40
12.0
 40
13.0
 40
13.0
 40
13.0
 40
14.0
 40
14.0
 40
14.0
 40
15.0
 40
15.0
 40
15.0
 40
16.0
 40
16.0
 40
16.0
 40
17.0
 40
17.0
 40
17.0
 40
18.0
 40
18.0
 40
18.0
 40
19.0
 40
19.0
 40
19.0
 40
20.0
 40
20.0
 40
20.0
 40
21.0
 40
21.0
 40
21.0
 40
22.0
 40
22.0
 40
22.0
 40
23.0
 40
23.0
 40
23.0
 40
24.0
 40
24.0
 40
24.0
 40
25.0
 40
25.0
 40
25.0
 40
26.0
 40
26.0
 40
26.0
 40
27.0
 40
27.0
 40
27.0
 40
28.0
 40
28.0
 40
28.0
 40
29.0
 40
29.0
 40
29.0
 40
30.0
 40
30.0
 40
30.0
 40
31.0
 40
31.0
 40
31.0
 40
32.0
 40
32.0
 40
32.0
 40
33.0
 40
33.0
 40
33.0
 40
34.0
 40
34.0
 40
34.0
 40
35.0
 40
35.0
 40
35.0
 40
36.0
 40
36.0
 40
36.0
 40
37.0
 40
37.0
 40
37.0
 40
38.0
 40
38.0
 40
38.0
 40
39.0
 40
39.0
 40
39.0
 40
40.0
 40
40.0
 40
40.0
 40
41.0
 40
41.0
 40
41.0
 40
42.0
 40
42.0
 40
42.0
 40
43.0
 40
43.0
 40
43.0
 40
44.0
 40
44.0
 40
44.0
 40
45.0
 40
45.0
 40
45.0
 40
46.0
 40
46.0
 40
46.0
 40
47.0
 40
47.0
 40
47.0
 40
48.0
 40
48.0
 40
48.0
 40
49.0
 40
49.0
 40
49.0
 40
50.0
 40
50.0
 40
50.0
 40
51.0
 40
51.0
 40
51.0
 40
52.0
 40
52.0
 40
52.0
 40
53.0
 40
53.0
 40
53.0
 40
54.0
 40
54.0
 40
54.0
 40
55.0
 40
55.0
 40
55.0
 40
56.0
 40
56.0
 40
56.0
 40
57.0
 40
57.0
 40
57.0
 40
58.0
 40
58.0
 40
58.0
 40
59.0
 40
59.0
 40
59.0
 40
60.0
 40
60.0
 40
60.0
 40
61.0
 40
61.0
 40
61.0
 40
62.0
 40
62.0
 40
62.0
 40
63.0
 40
63.0
 40
63.0
 40
64.0
 40
64.0
 40
64.0
 40
65.0
 40
65.0
 40
65.0
 40
66.0
 40
66.0
 40
66.0
 40
67.0
 40
67.0
 40
67.0
 40
68.0
 40
68.0
 40
68.0
 40
68.0
 10
23.67478749999999
 20
-5.038044444444444
 30
0.0
 10
23.66626527777779
 20
-4.853911111111112
 30
0.0
 10
23.63093055555555
 20
-4.641118055555554
 30
0.0
 10
23.515425
 20
-4.49148888888889
 30
0.0
 10
23.46682777777778
 20
-4.428438888888889
 30
0.0
 10
23.30894305555555
 20
-4.462759722222219
 30
0.0
 10
23.24169583333332
 20
-4.463925000000004
 30
0.0
 10
22.98182777777778
 20
-4.468422222222216
 30
0.0
 10
22.72229027777778
 20
-4.468527777777783
 30
0.0
 10
22.46242916666668
 20
-4.463720833333329
 30
0.0
 10
22.3356625
 20
-4.461369444444446
 30
0.0
 10
22.20683472222223
 20
-4.460415277777782
 30
0.0
 10
22.0986375
 20
-4.38510972222222
 30
0.0
 10
21.94108611111111
 20
-4.275456944444449
 30
0.0
 10
21.74959722222221
 20
-4.217918055555552
 30
0.0
 10
21.58705416666668
 20
-4.113237499999993
 30
0.0
 10
21.42078472222223
 20
-4.006154166666672
 30
0.0
 10
21.25886805555557
 20
-3.881105555555551
 30
0.0
 10
21.12981666666666
 20
-3.730416666666668
 30
0.0
 10
21.06395416666667
 20
-3.653511111111116
 30
0.0
 10
21.01068194444444
 20
-3.568262499999996
 30
0.0
 10
20.94024305555556
 20
-3.494938888888883
 30
0.0
 10
20.86657777777777
 20
-3.41825694444444
 30
0.0
 10
20.78399583333334
 20
-3.35049166666666
 30
0.0
 10
20.69694999999999
 20
-3.289587500000001
 30
0.0
 10
20.5609513888889
 20
-3.194436111111107
 30
0.0
 10
20.40294722222223
 20
-3.12840833333333
 30
0.0
 10
20.2748625
 20
-3.023879166666663
 30
0.0
 10
20.18358194444444
 20
-2.949384722222223
 30
0.0
 10
20.07878888888889
 20
-2.920258333333335
 30
0.0
 10
19.96518055555556
 20
-2.912923611111106
 30
0.0
 10
19.95644722222222
 20
-2.912363888888889
 30
0.0
 10
19.94767083333333
 20
-2.911929166666671
 30
0.0
 10
19.93883333333332
 20
-2.911606944444442
 30
0.0
 10
19.85590972222222
 20
-2.908636111111112
 30
0.0
 10
19.7754875
 20
-2.887070833333332
 30
0.0
 10
19.69544166666666
 20
-2.8669875
 30
0.0
 10
19.61874722222223
 20
-2.847738888888885
 30
0.0
 10
19.53468333333333
 20
-2.819377777777782
 30
0.0
 10
19.4559736111111
 20
-2.843056944444445
 30
0.0
 10
19.41616805555557
 20
-2.855034722222222
 30
0.0
 10
19.39296249999999
 20
-2.888723611111105
 30
0.0
 10
19.39463472222224
 20
-2.930333333333338
 30
0.0
 10
19.39630833333333
 20
-2.971898611111113
 30
0.0
 10
19.41198611111112
 20
-3.008583333333338
 30
0.0
 10
19.43462499999999
 20
-3.042501388888884
 30
0.0
 10
19.54957777777779
 20
-3.214625000000006
 30
0.0
 10
19.77255000000001
 20
-3.282779166666665
 30
0.0
 10
19.96051805555556
 20
-3.340555555555561
 30
0.0
 10
20.10051944444444
 20
-3.383594444444447
 30
0.0
 10
20.22259722222222
 20
-3.482670833333334
 30
0.0
 10
20.31030277777778
 20
-3.598605555555549
 30
0.0
 10
20.32139722222223
 20
-3.613270833333331
 30
0.0
 10
20.31825000000001
 20
-3.623680555555552
 30
0.0
 10
20.30030694444445
 20
-3.628686111111114
 30
0.0
 10
20.29424166666667
 20
-3.630377777777779
 30
0.0
 10
20.28759027777778
 20
-3.630213888888887
 30
0.0
 10
20.28119166666668
 20
-3.630449999999996
 30
0.0
 10
19.9600888888889
 20
-3.642579166666665
 30
0.0
 10
19.61947777777777
 20
-3.498797222222227
 30
0.0
 10
19.3168736111111
 20
-3.665469444444448
 30
0.0
 10
19.10932361111112
 20
-3.779783333333335
 30
0.0
 10
18.86093333333332
 20
-3.81006805555555
 30
0.0
 10
18.66809999999999
 20
-3.951116666666671
 30
0.0
 10
18.56086388888889
 20
-4.029549999999997
 30
0.0
 10
18.44040555555555
 20
-4.079911111111111
 30
0.0
 10
18.31398888888889
 20
-4.117222222222217
 30
0.0
 10
18.25050277777778
 20
-4.135948611111113
 30
0.0
 10
18.19214027777778
 20
-4.16232777777778
 30
0.0
 10
18.14692916666667
 20
-4.212926388888895
 30
0.0
 10
18.09678472222221
 20
-4.269056944444438
 30
0.0
 10
18.10499583333333
 20
-4.332536111111115
 30
0.0
 10
18.16772361111111
 20
-4.374902777777783
 30
0.0
 10
18.20980833333333
 20
-4.403330555555562
 30
0.0
 10
18.25609444444444
 20
-4.421366666666661
 30
0.0
 10
18.30527638888889
 20
-4.430881944444447
 30
0.0
 10
18.43483472222222
 20
-4.455963888888883
 30
0.0
 10
18.56539444444444
 20
-4.452894444444445
 30
0.0
 10
18.69380694444445
 20
-4.427859722222226
 30
0.0
 10
18.95476805555555
 20
-4.376977777777774
 30
0.0
 10
19.20588472222223
 20
-4.290484722222219
 30
0.0
 10
19.4570736111111
 20
-4.205275000000003
 30
0.0
 10
19.55760555555556
 20
-4.171179166666661
 30
0.0
 10
19.67084583333333
 20
-4.210023611111106
 30
0.0
 10
19.77265000000001
 20
-4.222870833333332
 30
0.0
 10
19.88772777777778
 20
-4.237383333333329
 30
0.0
 10
20.00336527777777
 20
-4.247162499999996
 30
0.0
 10
20.11915555555555
 20
-4.253759722222222
 30
0.0
 10
20.15371944444445
 20
-4.253759722222222
 30
0.0
 10
20.18829027777777
 20
-4.253418055555559
 30
0.0
 10
20.2228486111111
 20
-4.253944444444439
 30
0.0
 10
20.23513472222223
 20
-4.254136111111115
 30
0.0
 10
20.25476527777778
 20
-4.245719444444439
 30
0.0
 10
20.25533194444445
 20
-4.266626388888893
 30
0.0
 10
20.25585833333333
 20
-4.286526388888888
 30
0.0
 10
20.23599861111112
 20
-4.281870833333338
 30
0.0
 10
20.22343333333333
 20
-4.282043055555556
 30
0.0
 10
20.09454722222222
 20
-4.283873611111113
 30
0.0
 10
19.96644999999999
 20
-4.272086111111106
 30
0.0
 10
19.83836666666667
 20
-4.259502777777773
 30
0.0
 10
19.74786388888889
 20
-4.250612500000001
 30
0.0
 10
19.65836111111111
 20
-4.235387500000002
 30
0.0
 10
19.56870694444445
 20
-4.220802777777774
 30
0.0
 10
19.54179444444445
 20
-4.216423611111117
 30
0.0
 10
19.51473055555556
 20
-4.21555416666667
 30
0.0
 10
19.48764722222222
 20
-4.224641666666672
 30
0.0
 10
19.27813472222222
 20
-4.29491527777778
 30
0.0
 10
19.06902916666667
 20
-4.366256944444444
 30
0.0
 10
18.85453888888888
 20
-4.420872222222227
 30
0.0
 10
18.68396944444445
 20
-4.464306944444439
 30
0.0
 10
18.51276805555555
 20
-4.490349999999997
 30
0.0
 10
18.3368375
 20
-4.464945833333331
 30
0.0
 10
18.26689305555556
 20
-4.454856944444448
 30
0.0
 10
18.20021388888889
 20
-4.435287499999996
 30
0.0
 10
18.14278749999999
 20
-4.391629166666664
 30
0.0
 10
18.08733472222222
 20
-4.349472222222226
 30
0.0
 10
18.07242083333333
 20
-4.296265277777782
 30
0.0
 10
18.09806249999999
 20
-4.231924999999996
 30
0.0
 10
18.09947222222223
 20
-4.228381944444449
 30
0.0
 10
18.10267083333332
 20
-4.222916666666669
 30
0.0
 10
18.10142638888889
 20
-4.221480555555559
 30
0.0
 10
18.09780555555555
 20
-4.217312499999998
 30
0.0
 10
18.09257638888888
 20
-4.220500000000003
 30
0.0
 10
18.08804583333333
 20
-4.221744444444438
 30
0.0
 10
18.06712638888888
 20
-4.227526388888893
 30
0.0
 10
18.04621250000001
 20
-4.233320833333336
 30
0.0
 10
18.02529861111111
 20
-4.239148611111116
 30
0.0
 10
17.94420000000001
 20
-4.261754166666669
 30
0.0
 10
17.86729305555557
 20
-4.294006944444441
 30
0.0
 10
17.79746666666668
 20
-4.341412499999996
 30
0.0
 10
17.75008750000001
 20
-4.373579166666673
 30
0.0
 10
17.73913749999999
 20
-4.413206944444444
 30
0.0
 10
17.76371250000001
 20
-4.464852777777777
 30
0.0
 10
17.83872777777777
 20
-4.622529166666671
 30
0.0
 10
18.12334166666667
 20
-4.686186111111106
 30
0.0
 10
18.28026111111111
 20
-4.665522222222219
 30
0.0
 10
18.37443750000001
 20
-4.653123611111115
 30
0.0
 10
18.4637763888889
 20
-4.625452777777784
 30
0.0
 10
18.5513486111111
 20
-4.590612499999994
 30
0.0
 10
18.64722500000001
 20
-4.552465277777779
 30
0.0
 10
18.74461666666667
 20
-4.520502777777779
 30
0.0
 10
18.84763749999999
 20
-4.507470833333337
 30
0.0
 10
18.98625
 20
-4.489934722222225
 30
0.0
 10
19.11865972222222
 20
-4.444505555555552
 30
0.0
 10
19.25930833333334
 20
-4.451611111111106
 30
0.0
 10
19.36161805555556
 20
-4.45678055555556
 30
0.0
 10
19.46355277777777
 20
-4.452045833333336
 30
0.0
 10
19.56461111111111
 20
-4.435898611111106
 30
0.0
 10
19.61871388888888
 20
-4.427252777777779
 30
0.0
 10
19.66006666666665
 20
-4.477390277777772
 30
0.0
 10
19.70084027777779
 20
-4.505429166666671
 30
0.0
 10
19.74883888888889
 20
-4.538433333333336
 30
0.0
 10
19.79862638888888
 20
-4.568776388888889
 30
0.0
 10
19.846025
 20
-4.602669444444447
 30
0.0
 10
19.9448125
 20
-4.67329861111111
 30
0.0
 10
19.99668888888889
 20
-4.763954166666672
 30
0.0
 10
20.07273055555556
 20
-4.853963888888883
 30
0.0
 10
20.0762611111111
 20
-4.858151388888889
 30
0.0
 10
20.08272777777777
 20
-4.862273611111113
 30
0.0
 10
20.08102222222222
 20
-4.867851388888893
 30
0.0
 10
20.07876250000001
 20
-4.875180555555554
 30
0.0
 10
20.07026805555557
 20
-4.873079166666671
 30
0.0
 10
20.06441527777777
 20
-4.873955555555552
 30
0.0
 10
19.74135833333333
 20
-4.922769444444447
 30
0.0
 10
19.4031361111111
 20
-4.986933333333329
 30
0.0
 10
19.09420416666666
 20
-5.094405555555555
 30
0.0
 10
19.01028611111112
 20
-5.123595833333335
 30
0.0
 10
18.93613333333335
 20
-5.169836111111104
 30
0.0
 10
18.8732861111111
 20
-5.23305138888889
 30
0.0
 10
18.82588055555556
 20
-5.280745833333336
 30
0.0
 10
18.79512916666666
 20
-5.351165277777782
 30
0.0
 10
18.83492916666667
 20
-5.421373611111107
 30
0.0
 10
18.85728472222223
 20
-5.460811111111108
 30
0.0
 10
18.89079583333334
 20
-5.486827777777775
 30
0.0
 10
18.9328861111111
 20
-5.502920833333329
 30
0.0
 10
19.04967777777779
 20
-5.548041666666664
 30
0.0
 10
19.19216111111112
 20
-5.528076388888886
 30
0.0
 10
19.31459444444443
 20
-5.523683333333338
 30
0.0
 10
19.53910833333333
 20
-5.515623611111108
 30
0.0
 10
19.76999583333334
 20
-5.460665277777783
 30
0.0
 10
19.9942125
 20
-5.478504166666665
 30
0.0
 10
20.18966666666665
 20
-5.493873611111111
 30
0.0
 10
20.36980972222222
 20
-5.585055555555552
 30
0.0
 10
20.5489
 20
-5.661163888888887
 30
0.0
 10
20.74689027777777
 20
-5.745293055555559
 30
0.0
 10
20.94312083333332
 20
-5.790993055555557
 30
0.0
 10
21.15940277777779
 20
-5.76869583333333
 30
0.0
 10
21.27591666666666
 20
-5.756691666666661
 30
0.0
 10
21.3881111111111
 20
-5.72441805555555
 30
0.0
 10
21.49946111111111
 20
-5.689827777777774
 30
0.0
 10
21.74914861111112
 20
-5.61225694444445
 30
0.0
 10
22.01109166666667
 20
-5.638623611111117
 30
0.0
 10
22.26640138888888
 20
-5.665800000000003
 30
0.0
 10
22.54215277777778
 20
-5.695141666666662
 30
0.0
 10
22.81864027777778
 20
-5.71781388888889
 30
0.0
 10
23.09302222222221
 20
-5.758877777777772
 30
0.0
 10
23.21119444444444
 20
-5.776558333333329
 30
0.0
 10
23.32891388888889
 20
-5.797498611111109
 30
0.0
 10
23.44559166666666
 20
-5.823363888888884
 30
0.0
 10
23.47843888888888
 20
-5.83064722222222
 30
0.0
 10
23.48695138888888
 20
-5.826729166666673
 30
0.0
 10
23.50499444444444
 20
-5.797597222222217
 30
0.0
 10
23.64170416666666
 20
-5.576777777777781
 30
0.0
 10
23.68664583333333
 20
-5.294349999999995
 30
0.0
 10
23.67478749999999
 20
-5.038044444444444
 30
0.0
  0
SPLINE
  5
46
330
1F
100
AcDbEntity
  8
Layer 1
370
     0
100
AcDbSpline
210
0.0
220
0.0
230
1.0
 70
    11
 71
     3
 72
    26
 73
    22
 74
     0
 42
0.0000000001
 43
0.0000000001
 12
1.0
 22
0.0
 32
0.0
 13
1.0
 23
0.0
 33
0.0
 40
0.0
 40
0.0
 40
0.0
 40
0.0
 40
1.0
 40
1.0
 40
1.0
 40
2.0
 40
2.0
 40
2.0
 40
3.0
 40
3.0
 40
3.0
 40
4.0
 40
4.0
 40
4.0
 40
5.0
 40
5.0
 40
5.0
 40
6.0
 40
6.0
 40
6.0
 40
7.0
 40
7.0
 40
7.0
 40
7.0
 10
21.11988055555556
 20
-5.411159722222224
 30
0.0
 10
20.82035833333333
 20
-5.412556944444443
 30
0.0
 10
20.56395416666667
 20
-5.177045833333333
 30
0.0
 10
20.55274027777778
 20
-4.867633333333338
 30
0.0
 10
20.61612638888889
 20
-5.036622222222225
 30
0.0
 10
20.78274444444444
 20
-5.156422222222217
 30
0.0
 10
20.97485972222221
 20
-5.152313888888885
 30
0.0
 10
21.215725
 20
-5.14709166666666
 30
0.0
 10
21.40525833333332
 20
-4.950452777777778
 30
0.0
 10
21.40477777777778
 20
-4.710563888888891
 30
0.0
 10
21.40066111111112
 20
-4.495394444444451
 30
0.0
 10
21.25020833333332
 20
-4.320484722222217
 30
0.0
 10
21.0509888888889
 20
-4.281265277777783
 30
0.0
 10
21.07105416666667
 20
-4.278966666666671
 30
0.0
 10
21.09138750000001
 20
-4.277716666666669
 30
0.0
 10
21.11208333333333
 20
-4.277570833333331
 30
0.0
 10
21.43075416666668
 20
-4.275483333333328
 30
0.0
 10
21.6838861111111
 20
-4.526665277777775
 30
0.0
 10
21.68520972222223
 20
-4.843183333333337
 30
0.0
 10
21.68646666666667
 20
-5.157963888888895
 30
0.0
 10
21.43228888888888
 20
-5.410397222222223
 30
0.0
 10
21.11988055555556
 20
-5.411159722222224
 30
0.0
  0
HATCH
  5
47
330
1F
100
AcDbEntity
  8
Layer 1
 62
    35
420
 10579544
100
AcDbHatch
 10
0.0
 20
0.0
 30
0.0
210
0.0
220
0.0
230
1.0
  2
SOLID
 70
     1
 71
     0
 91
        2
 92
        1
 93
        1
 72
     4
 94
        3
 73
     0
 74
     1
 95
      209
 96
      205
 40
0.0
 40
0.0
 40
0.0
 40
0.0
 40
1.0
 40
1.0
 40
1.0
 40
2.0
 40
2.0
 40
2.0
 40
3.0
 40
3.0
 40
3.0
 40
4.0
 40
4.0
 40
4.0
 40
5.0
 40
5.0
 40
5.0
 40
6.0
 40
6.0
 40
6.0
 40
7.0
 40
7.0
 40
7.0
 40
8.0
 40
8.0
 40
8.0
 40
9.0
 40
9.0
 40
9.0
 40
10.0
 40
10.0
 40
10.0
 40
11.0
 40
11.0
 40
11.0
 40
12.0
 40
12.0
 40
12.0
 40
13.0
 40
13.0
 40
13.0
 40
14.0
 40
14.0
 40
14.0
 40
15.0
 40
15.0
 40
15.0
 40
16.0
 40
16.0
 40
16.0
 40
17.0
 40
17.0
 40
17.0
 40
18.0
 40
18.0
 40
18.0
 40
19.0
 40
19.0
 40
19.0
 40
20.0
 40
20.0
 40
20.0
 40
21.0
 40
21.0
 40
21.0
 40
22.0
 40
22.0
 40
22.0
 40
23.0
 40
23.0
 40
23.0
 40
24.0
 40
24.0
 40
24.0
 40
25.0
 40
25.0
 40
25.0
 40
26.0
 40
26.0
 40
26.0
 40
27.0
 40
27.0
 40
27.0
 40
28.0
 40
28.0
 40
28.0
 40
29.0
 40
29.0
 40
29.0
 40
30.0
 40
30.0
 40
30.0
 40
31.0
 40
31.0
 40
31.0
 40
32.0
 40
32.0
 40
32.0
 40
33.0
 40
33.0
 40
33.0
 40
34.0
 40
34.0
 40
34.0
 40
35.0
 40
35.0
 40
35.0
 40
36.0
 40
36.0
 40
36.0
 40
37.0
 40
37.0
 40
37.0
 40
38.0
 40
38.0
 40
38.0
 40
39.0
 40
39.0
 40
39.0
 40
40.0
 40
40.0
 40
40.0
 40
41.0
 40
41.0
 40
41.0
 40
42.0
 40
42.0
 40
42.0
 40
43.0
 40
43.0
 40
43.0
 40
44.0
 40
44.0
 40
44.0
 40
45.0
 40
45.0
 40
45.0
 40
46.0
 40
46.0
 40
46.0
 40
47.0
 40
47.0
 40
47.0
 40
48.0
 40
48.0
 40
48.0
 40
49.0
 40
49.0
 40
49.0
 40
50.0
 40
50.0
 40
50.0
 40
51.0
 40
51.0
 40
51.0
 40
52.0
 40
52.0
 40
52.0
 40
53.0
 40
53.0
 40
53.0
 40
54.0
 40
54.0
 40
54.0
 40
55.0
 40
55.0
 40
55.0
 40
56.0
 40
56.0
 40
56.0
 40
57.0
 40
57.0
 40
57.0
 40
58.0
 40
58.0
 40
58.0
 40
59.0
 40
59.0
 40
59.0
 40
60.0
 40
60.0
 40
60.0
 40
61.0
 40
61.0
 40
61.0
 40
62.0
 40
62.0
 40
62.0
 40
63.0
 40
63.0
 40
63.0
 40
64.0
 40
64.0
 40
64.0
 40
65.0
 40
65.0
 40
65.0
 40
66.0
 40
66.0
 40
66.0
 40
67.0
 40
67.0
 40
67.0
 40
68.0
 40
68.0
 40
68.0
 40
68.0
 10
23.67478749999999
 20
-5.038044444444444
 10
23.66626527777779
 20
-4.853911111111112
 10
23.63093055555555
 20
-4.641118055555554
 10
23.515425
 20
-4.49148888888889
 10
23.46682777777778
 20
-4.428438888888889
 10
23.30894305555555
 20
-4.462759722222219
 10
23.24169583333332
 20
-4.463925000000004
 10
22.98182777777778
 20
-4.468422222222216
 10
22.72229027777778
 20
-4.468527777777783
 10
22.46242916666668
 20
-4.463720833333329
 10
22.3356625
 20
-4.461369444444446
 10
22.20683472222223
 20
-4.460415277777782
 10
22.0986375
 20
-4.38510972222222
 10
21.94108611111111
 20
-4.275456944444449
 10
21.74959722222221
 20
-4.217918055555552
 10
21.58705416666668
 20
-4.113237499999993
 10
21.42078472222223
 20
-4.006154166666672
 10
21.25886805555557
 20
-3.881105555555551
 10
21.12981666666666
 20
-3.730416666666668
 10
21.06395416666667
 20
-3.653511111111116
 10
21.01068194444444
 20
-3.568262499999996
 10
20.94024305555556
 20
-3.494938888888883
 10
20.86657777777777
 20
-3.41825694444444
 10
20.78399583333334
 20
-3.35049166666666
 10
20.69694999999999
 20
-3.289587500000001
 10
20.5609513888889
 20
-3.194436111111107
 10
20.40294722222223
 20
-3.12840833333333
 10
20.2748625
 20
-3.023879166666663
 10
20.18358194444444
 20
-2.949384722222223
 10
20.07878888888889
 20
-2.920258333333335
 10
19.96518055555556
 20
-2.912923611111106
 10
19.95644722222222
 20
-2.912363888888889
 10
19.94767083333333
 20
-2.911929166666671
 10
19.93883333333332
 20
-2.911606944444442
 10
19.85590972222222
 20
-2.908636111111112
 10
19.7754875
 20
-2.887070833333332
 10
19.69544166666666
 20
-2.8669875
 10
19.61874722222223
 20
-2.847738888888885
 10
19.53468333333333
 20
-2.819377777777782
 10
19.4559736111111
 20
-2.843056944444445
 10
19.41616805555557
 20
-2.855034722222222
 10
19.39296249999999
 20
-2.888723611111105
 10
19.39463472222224
 20
-2.930333333333338
 10
19.39630833333333
 20
-2.971898611111113
 10
19.41198611111112
 20
-3.008583333333338
 10
19.43462499999999
 20
-3.042501388888884
 10
19.54957777777779
 20
-3.214625000000006
 10
19.77255000000001
 20
-3.282779166666665
 10
19.96051805555556
 20
-3.340555555555561
 10
20.10051944444444
 20
-3.383594444444447
 10
20.22259722222222
 20
-3.482670833333334
 10
20.31030277777778
 20
-3.598605555555549
 10
20.32139722222223
 20
-3.613270833333331
 10
20.31825000000001
 20
-3.623680555555552
 10
20.30030694444445
 20
-3.628686111111114
 10
20.29424166666667
 20
-3.630377777777779
 10
20.28759027777778
 20
-3.630213888888887
 10
20.28119166666668
 20
-3.630449999999996
 10
19.9600888888889
 20
-3.642579166666665
 10
19.61947777777777
 20
-3.498797222222227
 10
19.3168736111111
 20
-3.665469444444448
 10
19.10932361111112
 20
-3.779783333333335
 10
18.86093333333332
 20
-3.81006805555555
 10
18.66809999999999
 20
-3.951116666666671
 10
18.56086388888889
 20
-4.029549999999997
 10
18.44040555555555
 20
-4.079911111111111
 10
18.31398888888889
 20
-4.117222222222217
 10
18.25050277777778
 20
-4.135948611111113
 10
18.19214027777778
 20
-4.16232777777778
 10
18.14692916666667
 20
-4.212926388888895
 10
18.09678472222221
 20
-4.269056944444438
 10
18.10499583333333
 20
-4.332536111111115
 10
18.16772361111111
 20
-4.374902777777783
 10
18.20980833333333
 20
-4.403330555555562
 10
18.25609444444444
 20
-4.421366666666661
 10
18.30527638888889
 20
-4.430881944444447
 10
18.43483472222222
 20
-4.455963888888883
 10
18.56539444444444
 20
-4.452894444444445
 10
18.69380694444445
 20
-4.427859722222226
 10
18.95476805555555
 20
-4.376977777777774
 10
19.20588472222223
 20
-4.290484722222219
 10
19.4570736111111
 20
-4.205275000000003
 10
19.55760555555556
 20
-4.171179166666661
 10
19.67084583333333
 20
-4.210023611111106
 10
19.77265000000001
 20
-4.222870833333332
 10
19.88772777777778
 20
-4.237383333333329
 10
20.00336527777777
 20
-4.247162499999996
 10
20.11915555555555
 20
-4.253759722222222
 10
20.15371944444445
 20
-4.253759722222222
 10
20.18829027777777
 20
-4.253418055555559
 10
20.2228486111111
 20
-4.253944444444439
 10
20.23513472222223
 20
-4.254136111111115
 10
20.25476527777778
 20
-4.245719444444439
 10
20.25533194444445
 20
-4.266626388888893
 10
20.25585833333333
 20
-4.286526388888888
 10
20.23599861111112
 20
-4.281870833333338
 10
20.22343333333333
 20
-4.282043055555556
 10
20.09454722222222
 20
-4.283873611111113
 10
19.96644999999999
 20
-4.272086111111106
 10
19.83836666666667
 20
-4.259502777777773
 10
19.74786388888889
 20
-4.250612500000001
 10
19.65836111111111
 20
-4.235387500000002
 10
19.56870694444445
 20
-4.220802777777774
 10
19.54179444444445
 20
-4.216423611111117
 10
19.51473055555556
 20
-4.21555416666667
 10
19.48764722222222
 20
-4.224641666666672
 10
19.27813472222222
 20
-4.29491527777778
 10
19.06902916666667
 20
-4.366256944444444
 10
18.85453888888888
 20
-4.420872222222227
 10
18.68396944444445
 20
-4.464306944444439
 10
18.51276805555555
 20
-4.490349999999997
 10
18.3368375
 20
-4.464945833333331
 10
18.26689305555556
 20
-4.454856944444448
 10
18.20021388888889
 20
-4.435287499999996
 10
18.14278749999999
 20
-4.391629166666664
 10
18.08733472222222
 20
-4.349472222222226
 10
18.07242083333333
 20
-4.296265277777782
 10
18.09806249999999
 20
-4.231924999999996
 10
18.09947222222223
 20
-4.228381944444449
 10
18.10267083333332
 20
-4.222916666666669
 10
18.10142638888889
 20
-4.221480555555559
 10
18.09780555555555
 20
-4.217312499999998
 10
18.09257638888888
 20
-4.220500000000003
 10
18.08804583333333
 20
-4.221744444444438
 10
18.06712638888888
 20
-4.227526388888893
 10
18.04621250000001
 20
-4.233320833333336
 10
18.02529861111111
 20
-4.239148611111116
 10
17.94420000000001
 20
-4.261754166666669
 10
17.86729305555557
 20
-4.294006944444441
 10
17.79746666666668
 20
-4.341412499999996
 10
17.75008750000001
 20
-4.373579166666673
 10
17.73913749999999
 20
-4.413206944444444
 10
17.76371250000001
 20
-4.464852777777777
 10
17.83872777777777
 20
-4.622529166666671
 10
18.12334166666667
 20
-4.686186111111106
 10
18.28026111111111
 20
-4.665522222222219
 10
18.37443750000001
 20
-4.653123611111115
 10
18.4637763888889
 20
-4.625452777777784
 10
18.5513486111111
 20
-4.590612499999994
 10
18.64722500000001
 20
-4.552465277777779
 10
18.74461666666667
 20
-4.520502777777779
 10
18.84763749999999
 20
-4.507470833333337
 10
18.98625
 20
-4.489934722222225
 10
19.11865972222222
 20
-4.444505555555552
 10
19.25930833333334
 20
-4.451611111111106
 10
19.36161805555556
 20
-4.45678055555556
 10
19.46355277777777
 20
-4.452045833333336
 10
19.56461111111111
 20
-4.435898611111106
 10
19.61871388888888
 20
-4.427252777777779
 10
19.66006666666665
 20
-4.477390277777772
 10
19.70084027777779
 20
-4.505429166666671
 10
19.74883888888889
 20
-4.538433333333336
 10
19.79862638888888
 20
-4.568776388888889
 10
19.846025
 20
-4.602669444444447
 10
19.9448125
 20
-4.67329861111111
 10
19.99668888888889
 20
-4.763954166666672
 10
20.07273055555556
 20
-4.853963888888883
 10
20.0762611111111
 20
-4.858151388888889
 10
20.08272777777777
 20
-4.862273611111113
 10
20.08102222222222
 20
-4.867851388888893
 10
20.07876250000001
 20
-4.875180555555554
 10
20.07026805555557
 20
-4.873079166666671
 10
20.06441527777777
 20
-4.873955555555552
 10
19.74135833333333
 20
-4.922769444444447
 10
19.4031361111111
 20
-4.986933333333329
 10
19.09420416666666
 20
-5.094405555555555
 10
19.01028611111112
 20
-5.123595833333335
 10
18.93613333333335
 20
-5.169836111111104
 10
18.8732861111111
 20
-5.23305138888889
 10
18.82588055555556
 20
-5.280745833333336
 10
18.79512916666666
 20
-5.351165277777782
 10
18.83492916666667
 20
-5.421373611111107
 10
18.85728472222223
 20
-5.460811111111108
 10
18.89079583333334
 20
-5.486827777777775
 10
18.9328861111111
 20
-5.502920833333329
 10
19.04967777777779
 20
-5.548041666666664
 10
19.19216111111112
 20
-5.528076388888886
 10
19.31459444444443
 20
-5.523683333333338
 10
19.53910833333333
 20
-5.515623611111108
 10
19.76999583333334
 20
-5.460665277777783
 10
19.9942125
 20
-5.478504166666665
 10
20.18966666666665
 20
-5.493873611111111
 10
20.36980972222222
 20
-5.585055555555552
 10
20.5489
 20
-5.661163888888887
 10
20.74689027777777
 20
-5.745293055555559
 10
20.94312083333332
 20
-5.790993055555557
 10
21.15940277777779
 20
-5.76869583333333
 10
21.27591666666666
 20
-5.756691666666661
 10
21.3881111111111
 20
-5.72441805555555
 10
21.49946111111111
 20
-5.689827777777774
 10
21.74914861111112
 20
-5.61225694444445
 10
22.01109166666667
 20
-5.638623611111117
 10
22.26640138888888
 20
-5.665800000000003
 10
22.54215277777778
 20
-5.695141666666662
 10
22.81864027777778
 20
-5.71781388888889
 10
23.09302222222221
 20
-5.758877777777772
 10
23.21119444444444
 20
-5.776558333333329
 10
23.32891388888889
 20
-5.797498611111109
 10
23.44559166666666
 20
-5.823363888888884
 10
23.47843888888888
 20
-5.83064722222222
 10
23.48695138888888
 20
-5.826729166666673
 10
23.50499444444444
 20
-5.797597222222217
 10
23.64170416666666
 20
-5.576777777777781
 10
23.68664583333333
 20
-5.294349999999995
 10
23.67478749999999
 20
-5.038044444444444
 97
        0
 97
        0
 92
        1
 93
        1
 72
     4
 94
        3
 73
     0
 74
     1
 95
       26
 96
       22
 40
0.0
 40
0.0
 40
0.0
 40
0.0
 40
1.0
 40
1.0
 40
1.0
 40
2.0
 40
2.0
 40
2.0
 40
3.0
 40
3.0
 40
3.0
 40
4.0
 40
4.0
 40
4.0
 40
5.0
 40
5.0
 40
5.0
 40
6.0
 40
6.0
 40
6.0
 40
7.0
 40
7.0
 40
7.0
 40
7.0
 10
21.11988055555556
 20
-5.411159722222224
 10
20.82035833333333
 20
-5.412556944444443
 10
20.56395416666667
 20
-5.177045833333333
 10
20.55274027777778
 20
-4.867633333333338
 10
20.61612638888889
 20
-5.036622222222225
 10
20.78274444444444
 20
-5.156422222222217
 10
20.97485972222221
 20
-5.152313888888885
 10
21.215725
 20
-5.14709166666666
 10
21.40525833333332
 20
-4.950452777777778
 10
21.40477777777778
 20
-4.710563888888891
 10
21.40066111111112
 20
-4.495394444444451
 10
21.25020833333332
 20
-4.320484722222217
 10
21.0509888888889
 20
-4.281265277777783
 10
21.07105416666667
 20
-4.278966666666671
 10
21.09138750000001
 20
-4.277716666666669
 10
21.11208333333333
 20
-4.277570833333331
 10
21.43075416666668
 20
-4.275483333333328
 10
21.6838861111111
 20
-4.526665277777775
 10
21.68520972222223
 20
-4.843183333333337
 10
21.68646666666667
 20
-5.157963888888895
 10
21.43228888888888
 20
-5.410397222222223
 10
21.11988055555556
 20
-5.411159722222224
 97
        0
 97
        0
 75
     2
 76
     1
 98
        0
  0
SPLINE
  5
48
330
1F
100
AcDbEntity
  8
Layer 1
370
     0
100
AcDbSpline
210
0.0
220
0.0
230
1.0
 70
    11
 71
     3
 72
    44
 73
    40
 74
     0
 42
0.0000000001
 43
0.0000000001
 12
1.0
 22
0.0
 32
0.0
 13
1.0
 23
0.0
 33
0.0
 40
0.0
 40
0.0
 40
0.0
 40
0.0
 40
1.0
 40
1.0
 40
1.0
 40
2.0
 40
2.0
 40
2.0
 40
3.0
 40
3.0
 40
3.0
 40
4.0
 40
4.0
 40
4.0
 40
5.0
 40
5.0
 40
5.0
 40
6.0
 40
6.0
 40
6.0
 40
7.0
 40
7.0
 40
7.0
 40
8.0
 40
8.0
 40
8.0
 40
9.0
 40
9.0
 40
9.0
 40
10.0
 40
10.0
 40
10.0
 40
11.0
 40
11.0
 40
11.0
 40
12.0
 40
12.0
 40
12.0
 40
13.0
 40
13.0
 40
13.0
 40
13.0
 10
17.51523611111111
 20
-8.655944444444458
 30
0.0
 10
17.63593888888888
 20
-8.655819444444433
 30
0.0
 10
17.76315972222222
 20
-8.628181944444451
 30
0.0
 10
17.71738750000001
 20
-8.492730555555555
 30
0.0
 10
17.67020555555556
 20
-8.353097222222232
 30
0.0
 10
17.45832916666667
 20
-8.274109722222217
 30
0.0
 10
17.32634722222222
 20
-8.252676388888883
 30
0.0
 10
17.17361666666666
 20
-8.227870833333327
 30
0.0
 10
17.01476805555555
 20
-8.237405555555545
 30
0.0
 10
16.86583055555555
 20
-8.190731944444451
 30
0.0
 10
16.81826805555556
 20
-8.175823611111102
 30
0.0
 10
16.74068333333333
 20
-8.12702222222222
 30
0.0
 10
16.69302916666667
 20
-8.16055972222221
 30
0.0
 10
16.62225416666667
 20
-8.210368055555566
 30
0.0
 10
16.54536805555555
 20
-8.248112500000008
 30
0.0
 10
16.4634125
 20
-8.276131944444437
 30
0.0
 10
16.35174444444445
 20
-8.314311111111111
 30
0.0
 10
16.23758333333333
 20
-8.345780555555544
 30
0.0
 10
16.13206527777778
 20
-8.400652777777774
 30
0.0
 10
16.07861527777777
 20
-8.428448611111106
 30
0.0
 10
16.02406527777778
 20
-8.454155555555568
 30
0.0
 10
15.96974722222222
 20
-8.480251388888897
 30
0.0
 10
15.95905972222223
 20
-8.485394444444434
 30
0.0
 10
15.9598625
 20
-8.488647222222223
 30
0.0
 10
15.96896944444445
 20
-8.493915277777786
 30
0.0
 10
15.97523194444444
 20
-8.497530555555562
 30
0.0
 10
15.98106666666667
 20
-8.501883333333328
 30
0.0
 10
15.98732777777778
 20
-8.505484722222212
 30
0.0
 10
16.13096527777778
 20
-8.58822499999999
 30
0.0
 10
16.28487500000001
 20
-8.634141666666665
 30
0.0
 10
16.45143472222222
 20
-8.632422222222228
 30
0.0
 10
16.63830833333333
 20
-8.630487499999996
 30
0.0
 10
16.82243611111111
 20
-8.690930555555546
 30
0.0
 10
17.00876944444445
 20
-8.671662499999986
 30
0.0
 10
17.12977500000001
 20
-8.659144444444438
 30
0.0
 10
17.24119861111111
 20
-8.632745833333324
 30
0.0
 10
17.36433611111111
 20
-8.645836111111116
 30
0.0
 10
17.39930277777777
 20
-8.649549999999989
 30
0.0
 10
17.45649861111111
 20
-8.656002777777783
 30
0.0
 10
17.51523611111111
 20
-8.655944444444458
 30
0.0
  0
HATCH
  5
49
330
1F
100
AcDbEntity
  8
Layer 1
 62
    35
420
 10579544
100
AcDbHatch
 10
0.0
 20
0.0
 30
0.0
210
0.0
220
0.0
230
1.0
  2
SOLID
 70
     1
 71
     0
 91
        1
 92
        1
 93
        1
 72
     4
 94
        3
 73
     0
 74
     1
 95
       44
 96
       40
 40
0.0
 40
0.0
 40
0.0
 40
0.0
 40
1.0
 40
1.0
 40
1.0
 40
2.0
 40
2.0
 40
2.0
 40
3.0
 40
3.0
 40
3.0
 40
4.0
 40
4.0
 40
4.0
 40
5.0
 40
5.0
 40
5.0
 40
6.0
 40
6.0
 40
6.0
 40
7.0
 40
7.0
 40
7.0
 40
8.0
 40
8.0
 40
8.0
 40
9.0
 40
9.0
 40
9.0
 40
10.0
 40
10.0
 40
10.0
 40
11.0
 40
11.0
 40
11.0
 40
12.0
 40
12.0
 40
12.0
 40
13.0
 40
13.0
 40
13.0
 40
13.0
 10
17.51523611111111
 20
-8.655944444444458
 10
17.63593888888888
 20
-8.655819444444433
 10
17.76315972222222
 20
-8.628181944444451
 10
17.71738750000001
 20
-8.492730555555555
 10
17.67020555555556
 20
-8.353097222222232
 10
17.45832916666667
 20
-8.274109722222217
 10
17.32634722222222
 20
-8.252676388888883
 10
17.17361666666666
 20
-8.227870833333327
 10
17.01476805555555
 20
-8.237405555555545
 10
16.86583055555555
 20
-8.190731944444451
 10
16.81826805555556
 20
-8.175823611111102
 10
16.74068333333333
 20
-8.12702222222222
 10
16.69302916666667
 20
-8.16055972222221
 10
16.62225416666667
 20
-8.210368055555566
 10
16.54536805555555
 20
-8.248112500000008
 10
16.4634125
 20
-8.276131944444437
 10
16.35174444444445
 20
-8.314311111111111
 10
16.23758333333333
 20
-8.345780555555544
 10
16.13206527777778
 20
-8.400652777777774
 10
16.07861527777777
 20
-8.428448611111106
 10
16.02406527777778
 20
-8.454155555555568
 10
15.96974722222222
 20
-8.480251388888897
 10
15.95905972222223
 20
-8.485394444444434
 10
15.9598625
 20
-8.488647222222223
 10
15.96896944444445
 20
-8.493915277777786
 10
15.97523194444444
 20
-8.497530555555562
 10
15.98106666666667
 20
-8.501883333333328
 10
15.98732777777778
 20
-8.505484722222212
 10
16.13096527777778
 20
-8.58822499999999
 10
16.28487500000001
 20
-8.634141666666665
 10
16.45143472222222
 20
-8.632422222222228
 10
16.63830833333333
 20
-8.630487499999996
 10
16.82243611111111
 20
-8.690930555555546
 10
17.00876944444445
 20
-8.671662499999986
 10
17.12977500000001
 20
-8.659144444444438
 10
17.24119861111111
 20
-8.632745833333324
 10
17.36433611111111
 20
-8.645836111111116
 10
17.39930277777777
 20
-8.649549999999989
 10
17.45649861111111
 20
-8.656002777777783
 10
17.51523611111111
 20
-8.655944444444458
 97
        0
 97
        0
 75
     2
 76
     1
 98
        0
  0
SPLINE
  5
4A
330
1F
100
AcDbEntity
  8
Layer 1
370
     0
100
AcDbSpline
210
0.0
220
0.0
230
1.0
 70
    11
 71
     3
 72
    17
 73
    13
 74
     0
 42
0.0000000001
 43
0.0000000001
 12
1.0
 22
0.0
 32
0.0
 13
1.0
 23
0.0
 33
0.0
 40
0.0
 40
0.0
 40
0.0
 40
0.0
 40
1.0
 40
1.0
 40
1.0
 40
2.0
 40
2.0
 40
2.0
 40
3.0
 40
3.0
 40
3.0
 40
4.0
 40
4.0
 40
4.0
 40
4.0
 10
14.19015
 20
-6.877255555555545
 30
0.0
 10
14.01959305555556
 20
-6.877255555555545
 30
0.0
 10
13.88133576043906
 20
-7.015519444444433
 30
0.0
 10
13.88133576043906
 20
-7.186076388888901
 30
0.0
 10
13.88133576043906
 20
-7.356624999999995
 30
0.0
 10
14.01959305555556
 20
-7.494888888888883
 30
0.0
 10
14.19015
 20
-7.494888888888883
 30
0.0
 10
14.36069861111111
 20
-7.494888888888883
 30
0.0
 10
14.49896388888889
 20
-7.356624999999995
 30
0.0
 10
14.49896388888889
 20
-7.186076388888901
 30
0.0
 10
14.49896388888889
 20
-7.015519444444433
 30
0.0
 10
14.36069861111111
 20
-6.877255555555545
 30
0.0
 10
14.19015
 20
-6.877255555555545
 30
0.0
  0
HATCH
  5
4B
330
1F
100
AcDbEntity
  8
Layer 1
 62
    35
420
 10579544
100
AcDbHatch
 10
0.0
 20
0.0
 30
0.0
210
0.0
220
0.0
230
1.0
  2
SOLID
 70
     1
 71
     0
 91
        1
 92
        1
 93
        1
 72
     4
 94
        3
 73
     0
 74
     1
 95
       17
 96
       13
 40
0.0
 40
0.0
 40
0.0
 40
0.0
 40
1.0
 40
1.0
 40
1.0
 40
2.0
 40
2.0
 40
2.0
 40
3.0
 40
3.0
 40
3.0
 40
4.0
 40
4.0
 40
4.0
 40
4.0
 10
14.19015
 20
-6.877255555555545
 10
14.01959305555556
 20
-6.877255555555545
 10
13.88133576043906
 20
-7.015519444444433
 10
13.88133576043906
 20
-7.186076388888901
 10
13.88133576043906
 20
-7.356624999999995
 10
14.01959305555556
 20
-7.494888888888883
 10
14.19015
 20
-7.494888888888883
 10
14.36069861111111
 20
-7.494888888888883
 10
14.49896388888889
 20
-7.356624999999995
 10
14.49896388888889
 20
-7.186076388888901
 10
14.49896388888889
 20
-7.015519444444433
 10
14.36069861111111
 20
-6.877255555555545
 10
14.19015
 20
-6.877255555555545
 97
        0
 97
        0
 75
     2
 76
     1
 98
        0
  0
SPLINE
  5
4C
330
1F
100
AcDbEntity
  8
Layer 1
370
     0
100
AcDbSpline
210
0.0
220
0.0
230
1.0
 70
    11
 71
     3
 72
   209
 73
   205
 74
     0
 42
0.0000000001
 43
0.0000000001
 12
1.0
 22
0.0
 32
0.0
 13
1.0
 23
0.0
 33
0.0
 40
0.0
 40
0.0
 40
0.0
 40
0.0
 40
1.0
 40
1.0
 40
1.0
 40
2.0
 40
2.0
 40
2.0
 40
3.0
 40
3.0
 40
3.0
 40
4.0
 40
4.0
 40
4.0
 40
5.0
 40
5.0
 40
5.0
 40
6.0
 40
6.0
 40
6.0
 40
7.0
 40
7.0
 40
7.0
 40
8.0
 40
8.0
 40
8.0
 40
9.0
 40
9.0
 40
9.0
 40
10.0
 40
10.0
 40
10.0
 40
11.0
 40
11.0
 40
11.0
 40
12.0
 40
12.0
 40
12.0
 40
13.0
 40
13.0
 40
13.0
 40
14.0
 40
14.0
 40
14.0
 40
15.0
 40
15.0
 40
15.0
 40
16.0
 40
16.0
 40
16.0
 40
17.0
 40
17.0
 40
17.0
 40
18.0
 40
18.0
 40
18.0
 40
19.0
 40
19.0
 40
19.0
 40
20.0
 40
20.0
 40
20.0
 40
21.0
 40
21.0
 40
21.0
 40
22.0
 40
22.0
 40
22.0
 40
23.0
 40
23.0
 40
23.0
 40
24.0
 40
24.0
 40
24.0
 40
25.0
 40
25.0
 40
25.0
 40
26.0
 40
26.0
 40
26.0
 40
27.0
 40
27.0
 40
27.0
 40
28.0
 40
28.0
 40
28.0
 40
29.0
 40
29.0
 40
29.0
 40
30.0
 40
30.0
 40
30.0
 40
31.0
 40
31.0
 40
31.0
 40
32.0
 40
32.0
 40
32.0
 40
33.0
 40
33.0
 40
33.0
 40
34.0
 40
34.0
 40
34.0
 40
35.0
 40
35.0
 40
35.0
 40
36.0
 40
36.0
 40
36.0
 40
37.0
 40
37.0
 40
37.0
 40
38.0
 40
38.0
 40
38.0
 40
39.0
 40
39.0
 40
39.0
 40
40.0
 40
40.0
 40
40.0
 40
41.0
 40
41.0
 40
41.0
 40
42.0
 40
42.0
 40
42.0
 40
43.0
 40
43.0
 40
43.0
 40
44.0
 40
44.0
 40
44.0
 40
45.0
 40
45.0
 40
45.0
 40
46.0
 40
46.0
 40
46.0
 40
47.0
 40
47.0
 40
47.0
 40
48.0
 40
48.0
 40
48.0
 40
49.0
 40
49.0
 40
49.0
 40
50.0
 40
50.0
 40
50.0
 40
51.0
 40
51.0
 40
51.0
 40
52.0
 40
52.0
 40
52.0
 40
53.0
 40
53.0
 40
53.0
 40
54.0
 40
54.0
 40
54.0
 40
55.0
 40
55.0
 40
55.0
 40
56.0
 40
56.0
 40
56.0
 40
57.0
 40
57.0
 40
57.0
 40
58.0
 40
58.0
 40
58.0
 40
59.0
 40
59.0
 40
59.0
 40
60.0
 40
60.0
 40
60.0
 40
61.0
 40
61.0
 40
61.0
 40
62.0
 40
62.0
 40
62.0
 40
63.0
 40
63.0
 40
63.0
 40
64.0
 40
64.0
 40
64.0
 40
65.0
 40
65.0
 40
65.0
 40
66.0
 40
66.0
 40
66.0
 40
67.0
 40
67.0
 40
67.0
 40
68.0
 40
68.0
 40
68.0
 40
68.0
 10
17.5895013888889
 20
-7.618349999999989
 30
0.0
 10
17.51447916666666
 20
-7.460680555555554
 30
0.0
 10
17.22987222222222
 20
-7.397018055555564
 30
0.0
 10
17.07294722222222
 20
-7.417674999999993
 30
0.0
 10
16.97876805555556
 20
-7.430073611111109
 30
0.0
 10
16.88943055555555
 20
-7.457750000000007
 30
0.0
 10
16.80186527777778
 20
-7.492584722222217
 30
0.0
 10
16.7059875
 20
-7.530737500000011
 30
0.0
 10
16.60859722222222
 20
-7.562701388888879
 30
0.0
 10
16.505575
 20
-7.575731944444442
 30
0.0
 10
16.36695694444445
 20
-7.593268055555553
 30
0.0
 10
16.23454583333334
 20
-7.638697222222213
 30
0.0
 10
16.09390555555555
 20
-7.631593055555564
 30
0.0
 10
15.99159583333334
 20
-7.626423611111123
 30
0.0
 10
15.88966111111111
 20
-7.631158333333334
 30
0.0
 10
15.78860138888889
 20
-7.647297222222227
 30
0.0
 10
15.7345
 20
-7.655943055555554
 30
0.0
 10
15.69314722222222
 20
-7.605812500000006
 30
0.0
 10
15.65237222222222
 20
-7.577766666666674
 30
0.0
 10
15.60436805555556
 20
-7.544769444444455
 30
0.0
 10
15.55458055555555
 20
-7.514419444444457
 30
0.0
 10
15.50718194444444
 20
-7.480534722222223
 30
0.0
 10
15.40839444444445
 20
-7.409904166666668
 30
0.0
 10
15.35652499999999
 20
-7.319243055555565
 30
0.0
 10
15.28048194444444
 20
-7.229233333333341
 30
0.0
 10
15.27694583333333
 20
-7.225051388888889
 30
0.0
 10
15.27047916666667
 20
-7.220916666666678
 30
0.0
 10
15.27218472222223
 20
-7.215352777777778
 30
0.0
 10
15.27444444444445
 20
-7.208016666666658
 30
0.0
 10
15.28293888888889
 20
-7.210123611111107
 30
0.0
 10
15.28879861111111
 20
-7.209241666666659
 30
0.0
 10
15.61185555555556
 20
-7.160427777777764
 30
0.0
 10
15.95007777777778
 20
-7.096263888888895
 30
0.0
 10
16.25900972222222
 20
-6.988791666666657
 30
0.0
 10
16.34292777777778
 20
-6.95960000000001
 30
0.0
 10
16.41708055555556
 20
-6.91336111111112
 30
0.0
 10
16.47992083333333
 20
-6.850152777777768
 30
0.0
 10
16.52732499999999
 20
-6.802456944444454
 30
0.0
 10
16.55807777777778
 20
-6.732038888888887
 30
0.0
 10
16.51828472222222
 20
-6.661829166666671
 30
0.0
 10
16.49592222222222
 20
-6.622386111111104
 30
0.0
 10
16.46241805555556
 20
-6.596369444444437
 30
0.0
 10
16.42032777777778
 20
-6.580281944444449
 30
0.0
 10
16.3035375
 20
-6.53516805555556
 30
0.0
 10
16.16105277777778
 20
-6.555127777777771
 30
0.0
 10
16.03861805555555
 20
-6.559519444444454
 30
0.0
 10
15.81409861111111
 20
-6.56757916666667
 30
0.0
 10
15.58321805555556
 20
-6.622530555555563
 30
0.0
 10
15.35900138888889
 20
-6.604698611111113
 30
0.0
 10
15.16354722222223
 20
-6.589329166666655
 30
0.0
 10
14.98340277777778
 20
-6.498148611111118
 30
0.0
 10
14.8043125
 20
-6.422038888888892
 30
0.0
 10
14.60632361111112
 20
-6.337904166666678
 30
0.0
 10
14.41009305555556
 20
-6.292211111111101
 30
0.0
 10
14.19381111111112
 20
-6.314501388888882
 30
0.0
 10
14.07729722222223
 20
-6.32651250000001
 30
0.0
 10
13.96510277777778
 20
-6.358777777777782
 30
0.0
 10
13.85375103891369
 20
-6.393375000000004
 30
0.0
 10
13.60406354522133
 20
-6.470945833333341
 30
0.0
 10
13.3421149407276
 20
-6.444573611111107
 30
0.0
 10
13.08680555555556
 20
-6.417397222222235
 30
0.0
 10
12.81105384303222
 20
-6.388061111111104
 30
0.0
 10
12.53456635001688
 20
-6.365388888888876
 30
0.0
 10
12.26019135694817
 20
-6.324324999999994
 30
0.0
 10
12.14201219326696
 20
-6.306638888888882
 30
0.0
 10
12.02429275179636
 20
-6.285698611111102
 30
0.0
 10
11.90762192141038
 20
-6.25983333333334
 30
0.0
 10
11.8747760889068
 20
-6.25255694444445
 30
0.0
 10
11.86625525578873
 20
-6.25647500000001
 30
0.0
 10
11.84821914513324
 20
-6.285606944444453
 30
0.0
 10
11.7115094263646
 20
-6.506412499999997
 30
0.0
 10
11.66656081638899
 20
-6.78885277777777
 30
0.0
 10
11.67842609386702
 20
-7.045151388888901
 30
0.0
 10
11.6869469269851
 20
-7.2292861111111
 30
0.0
 10
11.72228164831469
 20
-7.442077777777765
 30
0.0
 10
11.83778858984119
 20
-7.591713888888888
 30
0.0
 10
11.88637886639147
 20
-7.654765277777768
 30
0.0
 10
12.04427191795831
 20
-7.620444444444451
 30
0.0
 10
12.11151774959287
 20
-7.619272222222232
 30
0.0
 10
12.37137885413934
 20
-7.61478055555555
 30
0.0
 10
12.63092329202714
 20
-7.614676388888888
 30
0.0
 10
12.89077777777778
 20
-7.619483333333341
 30
0.0
 10
13.01755244892673
 20
-7.621826388888898
 30
0.0
 10
13.14637189011692
 20
-7.622781944444442
 30
0.0
 10
13.25456944444444
 20
-7.698093055555546
 30
0.0
 10
13.41212605007008
 20
-7.807738888888884
 30
0.0
 10
13.6036163230104
 20
-7.865284722222214
 30
0.0
 10
13.76615277777778
 20
-7.969965277777773
 30
0.0
 10
13.93242916666667
 20
-8.077049999999998
 30
0.0
 10
14.09434583333334
 20
-8.202097222222214
 30
0.0
 10
14.22339027777778
 20
-8.352780555555556
 30
0.0
 10
14.28925277777777
 20
-8.429693055555566
 30
0.0
 10
14.34253194444444
 20
-8.514941666666674
 30
0.0
 10
14.41297083333333
 20
-8.588263888888882
 30
0.0
 10
14.48663611111111
 20
-8.664945833333325
 30
0.0
 10
14.56921805555555
 20
-8.73270416666666
 30
0.0
 10
14.65626388888889
 20
-8.793615277777791
 30
0.0
 10
14.79225694444444
 20
-8.88876805555555
 30
0.0
 10
14.95026805555555
 20
-8.954801388888882
 30
0.0
 10
15.07835138888889
 20
-9.05931666666667
 30
0.0
 10
15.16963194444444
 20
-9.133812500000001
 30
0.0
 10
15.27441805555556
 20
-9.162944444444443
 30
0.0
 10
15.38802777777778
 20
-9.170280555555564
 30
0.0
 10
15.39675833333333
 20
-9.170845833333335
 30
0.0
 10
15.40554305555555
 20
-9.17127361111112
 30
0.0
 10
15.41437361111111
 20
-9.171590277777769
 30
0.0
 10
15.49730555555556
 20
-9.174566666666653
 30
0.0
 10
15.57772638888889
 20
-9.196131944444433
 30
0.0
 10
15.65776527777777
 20
-9.21621666666667
 30
0.0
 10
15.73446666666668
 20
-9.235463888888892
 30
0.0
 10
15.81853055555555
 20
-9.263831944444442
 30
0.0
 10
15.89724027777778
 20
-9.240145833333345
 30
0.0
 10
15.93704722222222
 20
-9.228168055555544
 30
0.0
 10
15.96025138888889
 20
-9.194479166666673
 30
0.0
 10
15.95857222222222
 20
-9.152862500000007
 30
0.0
 10
15.95690555555556
 20
-9.111291666666677
 30
0.0
 10
15.94122777777778
 20
-9.074613888888885
 30
0.0
 10
15.91858194444444
 20
-9.040701388888893
 30
0.0
 10
15.80363611111112
 20
-8.86857222222223
 30
0.0
 10
15.5806625
 20
-8.800418055555559
 30
0.0
 10
15.39269583333334
 20
-8.742641666666662
 30
0.0
 10
15.25269444444444
 20
-8.699608333333344
 30
0.0
 10
15.13061527777778
 20
-8.60052500000001
 30
0.0
 10
15.04291111111111
 20
-8.484597222222217
 30
0.0
 10
15.03181666666666
 20
-8.469926388888881
 30
0.0
 10
15.03496249999999
 20
-8.459522222222226
 30
0.0
 10
15.05290694444444
 20
-8.454518055555557
 30
0.0
 10
15.05897222222222
 20
-8.452824999999999
 30
0.0
 10
15.06561666666667
 20
-8.45299027777777
 30
0.0
 10
15.07201666666666
 20
-8.452745833333337
 30
0.0
 10
15.39311805555556
 20
-8.4406236111111
 30
0.0
 10
15.73372916666666
 20
-8.584405555555552
 30
0.0
 10
16.03634027777778
 20
-8.417734722222223
 30
0.0
 10
16.24388333333334
 20
-8.303419444444444
 30
0.0
 10
16.49228055555555
 20
-8.27313611111112
 30
0.0
 10
16.68511388888889
 20
-8.13208611111112
 30
0.0
 10
16.79234305555556
 20
-8.053654166666673
 30
0.0
 10
16.91280138888889
 20
-8.003291666666655
 30
0.0
 10
17.039225
 20
-7.965981944444441
 30
0.0
 10
17.10270416666666
 20
-7.947254166666678
 30
0.0
 10
17.16107222222222
 20
-7.920874999999998
 30
0.0
 10
17.20628472222222
 20
-7.870269444444451
 30
0.0
 10
17.25642916666667
 20
-7.814133333333327
 30
0.0
 10
17.24821805555555
 20
-7.750661111111109
 30
0.0
 10
17.18548888888889
 20
-7.708293055555562
 30
0.0
 10
17.14339861111111
 20
-7.679873611111108
 30
0.0
 10
17.0971138888889
 20
-7.661843055555563
 30
0.0
 10
17.0479375
 20
-7.652322222222235
 30
0.0
 10
16.91837777777778
 20
-7.627240277777774
 30
0.0
 10
16.78781944444444
 20
-7.630308333333333
 30
0.0
 10
16.65940000000001
 20
-7.655344444444457
 30
0.0
 10
16.39843888888889
 20
-7.706226388888884
 30
0.0
 10
16.14732222222223
 20
-7.792719444444451
 30
0.0
 10
15.89614027777778
 20
-7.877920833333341
 30
0.0
 10
15.79560833333333
 20
-7.912025000000009
 30
0.0
 10
15.68236111111111
 20
-7.873173611111118
 30
0.0
 10
15.58056388888889
 20
-7.860333333333326
 30
0.0
 10
15.46547916666667
 20
-7.845819444444436
 30
0.0
 10
15.3498486111111
 20
-7.836034722222216
 30
0.0
 10
15.23405833333334
 20
-7.829443055555556
 30
0.0
 10
15.19948750000001
 20
-7.829443055555556
 30
0.0
 10
15.16491666666666
 20
-7.829779166666665
 30
0.0
 10
15.13035972222222
 20
-7.829258333333327
 30
0.0
 10
15.11807916666666
 20
-7.829068055555555
 30
0.0
 10
15.09844166666667
 20
-7.837483333333339
 30
0.0
 10
15.09788194444445
 20
-7.816576388888885
 30
0.0
 10
15.09735555555556
 20
-7.796669444444458
 30
0.0
 10
15.11721527777778
 20
-7.801331944444453
 30
0.0
 10
15.12977916666667
 20
-7.801147222222223
 30
0.0
 10
15.25866666666666
 20
-7.799323611111125
 30
0.0
 10
15.38676250000001
 20
-7.811123611111118
 30
0.0
 10
15.51484722222222
 20
-7.823701388888897
 30
0.0
 10
15.60534305555556
 20
-7.832584722222211
 30
0.0
 10
15.69484583333334
 20
-7.847815277777777
 30
0.0
 10
15.7845
 20
-7.862401388888884
 30
0.0
 10
15.8114125
 20
-7.866779166666674
 30
0.0
 10
15.83848333333334
 20
-7.867648611111108
 30
0.0
 10
15.86555972222223
 20
-7.858561111111107
 30
0.0
 10
16.07507916666667
 20
-7.788287499999998
 30
0.0
 10
16.28417777777777
 20
-7.716945833333334
 30
0.0
 10
16.498675
 20
-7.662330555555551
 30
0.0
 10
16.66923750000001
 20
-7.618897222222231
 30
0.0
 10
16.84044583333333
 20
-7.592847222222215
 30
0.0
 10
17.016375
 20
-7.618244444444447
 30
0.0
 10
17.08632083333334
 20
-7.628345833333342
 30
0.0
 10
17.153
 20
-7.647909722222216
 30
0.0
 10
17.21042638888889
 20
-7.691575000000006
 30
0.0
 10
17.26587777777778
 20
-7.733730555555566
 30
0.0
 10
17.28078611111111
 20
-7.78693055555555
 30
0.0
 10
17.25515277777778
 20
-7.851279166666674
 30
0.0
 10
17.25373611111111
 20
-7.854815277777789
 30
0.0
 10
17.25053472222223
 20
-7.860280555555542
 30
0.0
 10
17.25178611111111
 20
-7.861715277777774
 30
0.0
 10
17.25540833333333
 20
-7.865884722222214
 30
0.0
 10
17.26063611111111
 20
-7.862704166666667
 30
0.0
 10
17.26516111111111
 20
-7.861445833333341
 30
0.0
 10
17.28608749999999
 20
-7.855677777777777
 30
0.0
 10
17.3070013888889
 20
-7.849883333333334
 30
0.0
 10
17.32790833333334
 20
-7.844055555555567
 30
0.0
 10
17.40900833333333
 20
-7.821443055555569
 30
0.0
 10
17.48592083333334
 20
-7.789188888888879
 30
0.0
 10
17.55574722222223
 20
-7.741784722222215
 30
0.0
 10
17.603125
 20
-7.70961666666666
 30
0.0
 10
17.61407638888889
 20
-7.669995833333334
 30
0.0
 10
17.5895013888889
 20
-7.618349999999989
 30
0.0
  0
SPLINE
  5
4D
330
1F
100
AcDbEntity
  8
Layer 1
370
     0
100
AcDbSpline
210
0.0
220
0.0
230
1.0
 70
    11
 71
     3
 72
   152
 73
   148
 74
     0
 42
0.0000000001
 43
0.0000000001
 12
1.0
 22
0.0
 32
0.0
 13
1.0
 23
0.0
 33
0.0
 40
0.0
 40
0.0
 40
0.0
 40
0.0
 40
1.0
 40
1.0
 40
1.0
 40
2.0
 40
2.0
 40
2.0
 40
3.0
 40
3.0
 40
3.0
 40
4.0
 40
4.0
 40
4.0
 40
5.0
 40
5.0
 40
5.0
 40
6.0
 40
6.0
 40
6.0
 40
7.0
 40
7.0
 40
7.0
 40
8.0
 40
8.0
 40
8.0
 40
9.0
 40
9.0
 40
9.0
 40
10.0
 40
10.0
 40
10.0
 40
11.0
 40
11.0
 40
11.0
 40
12.0
 40
12.0
 40
12.0
 40
13.0
 40
13.0
 40
13.0
 40
14.0
 40
14.0
 40
14.0
 40
15.0
 40
15.0
 40
15.0
 40
16.0
 40
16.0
 40
16.0
 40
17.0
 40
17.0
 40
17.0
 40
18.0
 40
18.0
 40
18.0
 40
19.0
 40
19.0
 40
19.0
 40
20.0
 40
20.0
 40
20.0
 40
21.0
 40
21.0
 40
21.0
 40
22.0
 40
22.0
 40
22.0
 40
23.0
 40
23.0
 40
23.0
 40
24.0
 40
24.0
 40
24.0
 40
25.0
 40
25.0
 40
25.0
 40
26.0
 40
26.0
 40
26.0
 40
27.0
 40
27.0
 40
27.0
 40
28.0
 40
28.0
 40
28.0
 40
29.0
 40
29.0
 40
29.0
 40
30.0
 40
30.0
 40
30.0
 40
31.0
 40
31.0
 40
31.0
 40
32.0
 40
32.0
 40
32.0
 40
33.0
 40
33.0
 40
33.0
 40
34.0
 40
34.0
 40
34.0
 40
35.0
 40
35.0
 40
35.0
 40
36.0
 40
36.0
 40
36.0
 40
37.0
 40
37.0
 40
37.0
 40
38.0
 40
38.0
 40
38.0
 40
39.0
 40
39.0
 40
39.0
 40
40.0
 40
40.0
 40
40.0
 40
41.0
 40
41.0
 40
41.0
 40
42.0
 40
42.0
 40
42.0
 40
43.0
 40
43.0
 40
43.0
 40
44.0
 40
44.0
 40
44.0
 40
45.0
 40
45.0
 40
45.0
 40
46.0
 40
46.0
 40
46.0
 40
47.0
 40
47.0
 40
47.0
 40
48.0
 40
48.0
 40
48.0
 40
49.0
 40
49.0
 40
49.0
 40
49.0
 10
14.81771944444444
 20
-7.213818055555546
 30
0.0
 10
14.81771944444444
 20
-7.213818055555546
 30
0.0
 10
14.60145694444445
 20
-7.308074999999993
 30
0.0
 10
14.60145694444445
 20
-7.308074999999993
 30
0.0
 10
14.60145694444445
 20
-7.308074999999993
 30
0.0
 10
14.73829861111111
 20
-7.476280555555554
 30
0.0
 10
14.73829861111111
 20
-7.476280555555554
 30
0.0
 10
14.74144583333334
 20
-7.480138888888884
 30
0.0
 10
14.74196666666666
 20
-7.485479166666664
 30
0.0
 10
14.7396486111111
 20
-7.489877777777767
 30
0.0
 10
14.73734444444444
 20
-7.49424999999999
 30
0.0
 10
14.73264861111112
 20
-7.496858333333345
 30
0.0
 10
14.72767777777777
 20
-7.496436111111102
 30
0.0
 10
14.72767777777777
 20
-7.496436111111102
 30
0.0
 10
14.50510694444444
 20
-7.477998611111111
 30
0.0
 10
14.50510694444444
 20
-7.477998611111111
 30
0.0
 10
14.50510694444444
 20
-7.477998611111111
 30
0.0
 10
14.53440972222222
 20
-7.695808333333338
 30
0.0
 10
14.53440972222222
 20
-7.695808333333338
 30
0.0
 10
14.53504166666667
 20
-7.700509722222225
 30
0.0
 10
14.53288194444445
 20
-7.705225000000003
 30
0.0
 10
14.528925
 20
-7.707826388888886
 30
0.0
 10
14.52496666666666
 20
-7.710413888888878
 30
0.0
 10
14.51979166666667
 20
-7.710519444444444
 30
0.0
 10
14.51572222222222
 20
-7.708062499999995
 30
0.0
 10
14.51572222222222
 20
-7.708062499999995
 30
0.0
 10
14.32286944444445
 20
-7.591252777777779
 30
0.0
 10
14.32286944444445
 20
-7.591252777777779
 30
0.0
 10
14.32286944444445
 20
-7.591252777777779
 30
0.0
 10
14.21998611111111
 20
-7.808713888888885
 30
0.0
 10
14.21998611111111
 20
-7.808713888888885
 30
0.0
 10
14.21796388888889
 20
-7.812973611111121
 30
0.0
 10
14.2137763888889
 20
-7.815694444444438
 30
0.0
 10
14.20906805555555
 20
-7.815805555555547
 30
0.0
 10
14.20418194444445
 20
-7.815805555555547
 30
0.0
 10
14.19998055555556
 20
-7.813277777777785
 30
0.0
 10
14.19783472222222
 20
-7.809208333333345
 30
0.0
 10
14.19783472222222
 20
-7.809208333333345
 30
0.0
 10
14.08443472222223
 20
-7.594716666666677
 30
0.0
 10
14.08443472222223
 20
-7.594716666666677
 30
0.0
 10
14.08443472222223
 20
-7.594716666666677
 30
0.0
 10
13.88638576031149
 20
-7.722912499999993
 30
0.0
 10
13.88638576031149
 20
-7.722912499999993
 30
0.0
 10
13.88242187152274
 20
-7.725473611111106
 30
0.0
 10
13.87745103831498
 20
-7.725586111111119
 30
0.0
 10
13.87339548286188
 20
-7.723195833333344
 30
0.0
 10
13.86932464963138
 20
-7.720811111111111
 30
0.0
 10
13.86698714969043
 20
-7.716406944444442
 30
0.0
 10
13.86729687190483
 20
-7.711704166666676
 30
0.0
 10
13.86729687190483
 20
-7.711704166666676
 30
0.0
 10
13.88277777777778
 20
-7.473844444444441
 30
0.0
 10
13.88277777777778
 20
-7.473844444444441
 30
0.0
 10
13.88277777777778
 20
-7.473844444444441
 30
0.0
 10
13.65349687730587
 20
-7.488633333333332
 30
0.0
 10
13.65349687730587
 20
-7.488633333333332
 30
0.0
 10
13.64855243298633
 20
-7.489008333333332
 30
0.0
 10
13.64405382198887
 20
-7.486381944444449
 30
0.0
 10
13.64176909982436
 20
-7.4821013888889
 30
0.0
 10
13.63949132210412
 20
-7.477820833333326
 30
0.0
 10
13.6399190998711
 20
-7.472572222222222
 30
0.0
 10
13.64286909979657
 20
-7.468733333333325
 30
0.0
 10
13.64286909979657
 20
-7.468733333333325
 30
0.0
 10
13.78050104076414
 20
-7.289294444444446
 30
0.0
 10
13.78050104076414
 20
-7.289294444444446
 30
0.0
 10
13.78050104076414
 20
-7.289294444444446
 30
0.0
 10
13.55640937975851
 20
-7.205837499999991
 30
0.0
 10
13.55640937975851
 20
-7.205837499999991
 30
0.0
 10
13.5517135465438
 20
-7.204098611111122
 30
0.0
 10
13.54856076884567
 20
-7.199733333333344
 30
0.0
 10
13.54835521329531
 20
-7.194722222222228
 30
0.0
 10
13.5481510466338
 20
-7.189730555555545
 30
0.0
 10
13.55095660211848
 20
-7.18512777777778
 30
0.0
 10
13.55549410200385
 20
-7.183006944444438
 30
0.0
 10
13.55549410200385
 20
-7.183006944444438
 30
0.0
 10
13.78306944444445
 20
-7.076772222222214
 30
0.0
 10
13.78306944444445
 20
-7.076772222222214
 30
0.0
 10
13.78306944444445
 20
-7.076772222222214
 30
0.0
 10
13.64455555555556
 20
-6.897504166666673
 30
0.0
 10
13.64455555555556
 20
-6.897504166666673
 30
0.0
 10
13.64161111111111
 20
-6.893691666666655
 30
0.0
 10
13.64115104428442
 20
-6.888469444444454
 30
0.0
 10
13.64336354422853
 20
-6.884209722222218
 30
0.0
 10
13.64558159972805
 20
-6.879941666666658
 30
0.0
 10
13.65013888888889
 20
-6.877176388888882
 30
0.0
 10
13.6549329883807
 20
-6.877558333333329
 30
0.0
 10
13.6549329883807
 20
-6.877558333333329
 30
0.0
 10
13.65493854393612
 20
-6.877558333333329
 30
0.0
 10
13.65493854393612
 20
-6.877558333333329
 30
0.0
 10
13.65493854393612
 20
-6.877558333333329
 30
0.0
 10
13.89333333333333
 20
-6.888897222222213
 30
0.0
 10
13.89333333333333
 20
-6.888897222222213
 30
0.0
 10
13.89333333333333
 20
-6.888897222222213
 30
0.0
 10
13.88759131583659
 20
-6.646427777777767
 30
0.0
 10
13.88759131583659
 20
-6.646427777777767
 30
0.0
 10
13.88747326028402
 20
-6.641719444444434
 30
0.0
 10
13.88998194444444
 20
-6.637419444444453
 30
0.0
 10
13.89415694444445
 20
-6.635193055555545
 30
0.0
 10
13.8983125
 20
-6.6329875
 30
0.0
 10
13.90329722222222
 20
-6.633304166666676
 30
0.0
 10
13.90714305555555
 20
-6.636030555555559
 30
0.0
 10
13.90714305555555
 20
-6.636030555555559
 30
0.0
 10
14.09707222222222
 20
-6.770902777777766
 30
0.0
 10
14.09707222222222
 20
-6.770902777777766
 30
0.0
 10
14.09707222222222
 20
-6.770902777777766
 30
0.0
 10
14.19425833333334
 20
-6.584161111111118
 30
0.0
 10
14.19425833333334
 20
-6.584161111111118
 30
0.0
 10
14.19637916666666
 20
-6.58007083333334
 30
0.0
 10
14.20056666666667
 20
-6.577516666666674
 30
0.0
 10
14.2051625
 20
-6.57749027777777
 30
0.0
 10
14.2098125
 20
-6.57749027777777
 30
0.0
 10
14.214
 20
-6.579991666666678
 30
0.0
 10
14.21615277777778
 20
-6.584029166666672
 30
0.0
 10
14.21615277777778
 20
-6.584029166666672
 30
0.0
 10
14.32229583333333
 20
-6.782097222222218
 30
0.0
 10
14.32229583333333
 20
-6.782097222222218
 30
0.0
 10
14.32229583333333
 20
-6.782097222222218
 30
0.0
 10
14.52447916666666
 20
-6.657754166666664
 30
0.0
 10
14.52447916666666
 20
-6.657754166666664
 30
0.0
 10
14.52862222222222
 20
-6.655218055555552
 30
0.0
 10
14.53388333333333
 20
-6.655316666666673
 30
0.0
 10
14.5379
 20
-6.658043055555557
 30
0.0
 10
14.54191666666667
 20
-6.660750000000007
 30
0.0
 10
14.54399027777778
 20
-6.665590277777786
 30
0.0
 10
14.54318055555556
 20
-6.670370833333335
 30
0.0
 10
14.54318055555556
 20
-6.670370833333335
 30
0.0
 10
14.50498194444444
 20
-6.896048611111104
 30
0.0
 10
14.50498194444444
 20
-6.896048611111104
 30
0.0
 10
14.50498194444444
 20
-6.896048611111104
 30
0.0
 10
14.73618472222222
 20
-6.871586111111102
 30
0.0
 10
14.73618472222222
 20
-6.871586111111102
 30
0.0
 10
14.74104444444444
 20
-6.871026388888898
 30
0.0
 10
14.7456875
 20
-6.87342916666666
 30
0.0
 10
14.74815
 20
-6.877591666666653
 30
0.0
 10
14.7506125
 20
-6.881747222222227
 30
0.0
 10
14.75042222222222
 20
-6.887001388888898
 30
0.0
 10
14.74766944444444
 20
-6.890965277777771
 30
0.0
 10
14.74766944444444
 20
-6.890965277777771
 30
0.0
 10
14.60768055555555
 20
-7.092840277777769
 30
0.0
 10
14.60768055555555
 20
-7.092840277777769
 30
0.0
 10
14.67835694444444
 20
-7.123808333333322
 30
0.0
 10
14.74919166666667
 20
-7.156950000000001
 30
0.0
 10
14.81829305555556
 20
-7.191390277777777
 30
0.0
 10
14.82259305555556
 20
-7.193530555555551
 30
0.0
 10
14.82527916666667
 20
-7.198001388888896
 30
0.0
 10
14.82515416666667
 20
-7.202794444444432
 30
0.0
 10
14.82502916666667
 20
-7.207575000000007
 30
0.0
 10
14.82210555555556
 20
-7.211908333333339
 30
0.0
 10
14.81771944444444
 20
-7.213818055555546
 30
0.0
  0
HATCH
  5
4E
330
1F
100
AcDbEntity
  8
Layer 1
 62
    35
420
 10579544
100
AcDbHatch
 10
0.0
 20
0.0
 30
0.0
210
0.0
220
0.0
230
1.0
  2
SOLID
 70
     1
 71
     0
 91
        2
 92
        1
 93
        1
 72
     4
 94
        3
 73
     0
 74
     1
 95
      209
 96
      205
 40
0.0
 40
0.0
 40
0.0
 40
0.0
 40
1.0
 40
1.0
 40
1.0
 40
2.0
 40
2.0
 40
2.0
 40
3.0
 40
3.0
 40
3.0
 40
4.0
 40
4.0
 40
4.0
 40
5.0
 40
5.0
 40
5.0
 40
6.0
 40
6.0
 40
6.0
 40
7.0
 40
7.0
 40
7.0
 40
8.0
 40
8.0
 40
8.0
 40
9.0
 40
9.0
 40
9.0
 40
10.0
 40
10.0
 40
10.0
 40
11.0
 40
11.0
 40
11.0
 40
12.0
 40
12.0
 40
12.0
 40
13.0
 40
13.0
 40
13.0
 40
14.0
 40
14.0
 40
14.0
 40
15.0
 40
15.0
 40
15.0
 40
16.0
 40
16.0
 40
16.0
 40
17.0
 40
17.0
 40
17.0
 40
18.0
 40
18.0
 40
18.0
 40
19.0
 40
19.0
 40
19.0
 40
20.0
 40
20.0
 40
20.0
 40
21.0
 40
21.0
 40
21.0
 40
22.0
 40
22.0
 40
22.0
 40
23.0
 40
23.0
 40
23.0
 40
24.0
 40
24.0
 40
24.0
 40
25.0
 40
25.0
 40
25.0
 40
26.0
 40
26.0
 40
26.0
 40
27.0
 40
27.0
 40
27.0
 40
28.0
 40
28.0
 40
28.0
 40
29.0
 40
29.0
 40
29.0
 40
30.0
 40
30.0
 40
30.0
 40
31.0
 40
31.0
 40
31.0
 40
32.0
 40
32.0
 40
32.0
 40
33.0
 40
33.0
 40
33.0
 40
34.0
 40
34.0
 40
34.0
 40
35.0
 40
35.0
 40
35.0
 40
36.0
 40
36.0
 40
36.0
 40
37.0
 40
37.0
 40
37.0
 40
38.0
 40
38.0
 40
38.0
 40
39.0
 40
39.0
 40
39.0
 40
40.0
 40
40.0
 40
40.0
 40
41.0
 40
41.0
 40
41.0
 40
42.0
 40
42.0
 40
42.0
 40
43.0
 40
43.0
 40
43.0
 40
44.0
 40
44.0
 40
44.0
 40
45.0
 40
45.0
 40
45.0
 40
46.0
 40
46.0
 40
46.0
 40
47.0
 40
47.0
 40
47.0
 40
48.0
 40
48.0
 40
48.0
 40
49.0
 40
49.0
 40
49.0
 40
50.0
 40
50.0
 40
50.0
 40
51.0
 40
51.0
 40
51.0
 40
52.0
 40
52.0
 40
52.0
 40
53.0
 40
53.0
 40
53.0
 40
54.0
 40
54.0
 40
54.0
 40
55.0
 40
55.0
 40
55.0
 40
56.0
 40
56.0
 40
56.0
 40
57.0
 40
57.0
 40
57.0
 40
58.0
 40
58.0
 40
58.0
 40
59.0
 40
59.0
 40
59.0
 40
60.0
 40
60.0
 40
60.0
 40
61.0
 40
61.0
 40
61.0
 40
62.0
 40
62.0
 40
62.0
 40
63.0
 40
63.0
 40
63.0
 40
64.0
 40
64.0
 40
64.0
 40
65.0
 40
65.0
 40
65.0
 40
66.0
 40
66.0
 40
66.0
 40
67.0
 40
67.0
 40
67.0
 40
68.0
 40
68.0
 40
68.0
 40
68.0
 10
17.5895013888889
 20
-7.618349999999989
 10
17.51447916666666
 20
-7.460680555555554
 10
17.22987222222222
 20
-7.397018055555564
 10
17.07294722222222
 20
-7.417674999999993
 10
16.97876805555556
 20
-7.430073611111109
 10
16.88943055555555
 20
-7.457750000000007
 10
16.80186527777778
 20
-7.492584722222217
 10
16.7059875
 20
-7.530737500000011
 10
16.60859722222222
 20
-7.562701388888879
 10
16.505575
 20
-7.575731944444442
 10
16.36695694444445
 20
-7.593268055555553
 10
16.23454583333334
 20
-7.638697222222213
 10
16.09390555555555
 20
-7.631593055555564
 10
15.99159583333334
 20
-7.626423611111123
 10
15.88966111111111
 20
-7.631158333333334
 10
15.78860138888889
 20
-7.647297222222227
 10
15.7345
 20
-7.655943055555554
 10
15.69314722222222
 20
-7.605812500000006
 10
15.65237222222222
 20
-7.577766666666674
 10
15.60436805555556
 20
-7.544769444444455
 10
15.55458055555555
 20
-7.514419444444457
 10
15.50718194444444
 20
-7.480534722222223
 10
15.40839444444445
 20
-7.409904166666668
 10
15.35652499999999
 20
-7.319243055555565
 10
15.28048194444444
 20
-7.229233333333341
 10
15.27694583333333
 20
-7.225051388888889
 10
15.27047916666667
 20
-7.220916666666678
 10
15.27218472222223
 20
-7.215352777777778
 10
15.27444444444445
 20
-7.208016666666658
 10
15.28293888888889
 20
-7.210123611111107
 10
15.28879861111111
 20
-7.209241666666659
 10
15.61185555555556
 20
-7.160427777777764
 10
15.95007777777778
 20
-7.096263888888895
 10
16.25900972222222
 20
-6.988791666666657
 10
16.34292777777778
 20
-6.95960000000001
 10
16.41708055555556
 20
-6.91336111111112
 10
16.47992083333333
 20
-6.850152777777768
 10
16.52732499999999
 20
-6.802456944444454
 10
16.55807777777778
 20
-6.732038888888887
 10
16.51828472222222
 20
-6.661829166666671
 10
16.49592222222222
 20
-6.622386111111104
 10
16.46241805555556
 20
-6.596369444444437
 10
16.42032777777778
 20
-6.580281944444449
 10
16.3035375
 20
-6.53516805555556
 10
16.16105277777778
 20
-6.555127777777771
 10
16.03861805555555
 20
-6.559519444444454
 10
15.81409861111111
 20
-6.56757916666667
 10
15.58321805555556
 20
-6.622530555555563
 10
15.35900138888889
 20
-6.604698611111113
 10
15.16354722222223
 20
-6.589329166666655
 10
14.98340277777778
 20
-6.498148611111118
 10
14.8043125
 20
-6.422038888888892
 10
14.60632361111112
 20
-6.337904166666678
 10
14.41009305555556
 20
-6.292211111111101
 10
14.19381111111112
 20
-6.314501388888882
 10
14.07729722222223
 20
-6.32651250000001
 10
13.96510277777778
 20
-6.358777777777782
 10
13.85375103891369
 20
-6.393375000000004
 10
13.60406354522133
 20
-6.470945833333341
 10
13.3421149407276
 20
-6.444573611111107
 10
13.08680555555556
 20
-6.417397222222235
 10
12.81105384303222
 20
-6.388061111111104
 10
12.53456635001688
 20
-6.365388888888876
 10
12.26019135694817
 20
-6.324324999999994
 10
12.14201219326696
 20
-6.306638888888882
 10
12.02429275179636
 20
-6.285698611111102
 10
11.90762192141038
 20
-6.25983333333334
 10
11.8747760889068
 20
-6.25255694444445
 10
11.86625525578873
 20
-6.25647500000001
 10
11.84821914513324
 20
-6.285606944444453
 10
11.7115094263646
 20
-6.506412499999997
 10
11.66656081638899
 20
-6.78885277777777
 10
11.67842609386702
 20
-7.045151388888901
 10
11.6869469269851
 20
-7.2292861111111
 10
11.72228164831469
 20
-7.442077777777765
 10
11.83778858984119
 20
-7.591713888888888
 10
11.88637886639147
 20
-7.654765277777768
 10
12.04427191795831
 20
-7.620444444444451
 10
12.11151774959287
 20
-7.619272222222232
 10
12.37137885413934
 20
-7.61478055555555
 10
12.63092329202714
 20
-7.614676388888888
 10
12.89077777777778
 20
-7.619483333333341
 10
13.01755244892673
 20
-7.621826388888898
 10
13.14637189011692
 20
-7.622781944444442
 10
13.25456944444444
 20
-7.698093055555546
 10
13.41212605007008
 20
-7.807738888888884
 10
13.6036163230104
 20
-7.865284722222214
 10
13.76615277777778
 20
-7.969965277777773
 10
13.93242916666667
 20
-8.077049999999998
 10
14.09434583333334
 20
-8.202097222222214
 10
14.22339027777778
 20
-8.352780555555556
 10
14.28925277777777
 20
-8.429693055555566
 10
14.34253194444444
 20
-8.514941666666674
 10
14.41297083333333
 20
-8.588263888888882
 10
14.48663611111111
 20
-8.664945833333325
 10
14.56921805555555
 20
-8.73270416666666
 10
14.65626388888889
 20
-8.793615277777791
 10
14.79225694444444
 20
-8.88876805555555
 10
14.95026805555555
 20
-8.954801388888882
 10
15.07835138888889
 20
-9.05931666666667
 10
15.16963194444444
 20
-9.133812500000001
 10
15.27441805555556
 20
-9.162944444444443
 10
15.38802777777778
 20
-9.170280555555564
 10
15.39675833333333
 20
-9.170845833333335
 10
15.40554305555555
 20
-9.17127361111112
 10
15.41437361111111
 20
-9.171590277777769
 10
15.49730555555556
 20
-9.174566666666653
 10
15.57772638888889
 20
-9.196131944444433
 10
15.65776527777777
 20
-9.21621666666667
 10
15.73446666666668
 20
-9.235463888888892
 10
15.81853055555555
 20
-9.263831944444442
 10
15.89724027777778
 20
-9.240145833333345
 10
15.93704722222222
 20
-9.228168055555544
 10
15.96025138888889
 20
-9.194479166666673
 10
15.95857222222222
 20
-9.152862500000007
 10
15.95690555555556
 20
-9.111291666666677
 10
15.94122777777778
 20
-9.074613888888885
 10
15.91858194444444
 20
-9.040701388888893
 10
15.80363611111112
 20
-8.86857222222223
 10
15.5806625
 20
-8.800418055555559
 10
15.39269583333334
 20
-8.742641666666662
 10
15.25269444444444
 20
-8.699608333333344
 10
15.13061527777778
 20
-8.60052500000001
 10
15.04291111111111
 20
-8.484597222222217
 10
15.03181666666666
 20
-8.469926388888881
 10
15.03496249999999
 20
-8.459522222222226
 10
15.05290694444444
 20
-8.454518055555557
 10
15.05897222222222
 20
-8.452824999999999
 10
15.06561666666667
 20
-8.45299027777777
 10
15.07201666666666
 20
-8.452745833333337
 10
15.39311805555556
 20
-8.4406236111111
 10
15.73372916666666
 20
-8.584405555555552
 10
16.03634027777778
 20
-8.417734722222223
 10
16.24388333333334
 20
-8.303419444444444
 10
16.49228055555555
 20
-8.27313611111112
 10
16.68511388888889
 20
-8.13208611111112
 10
16.79234305555556
 20
-8.053654166666673
 10
16.91280138888889
 20
-8.003291666666655
 10
17.039225
 20
-7.965981944444441
 10
17.10270416666666
 20
-7.947254166666678
 10
17.16107222222222
 20
-7.920874999999998
 10
17.20628472222222
 20
-7.870269444444451
 10
17.25642916666667
 20
-7.814133333333327
 10
17.24821805555555
 20
-7.750661111111109
 10
17.18548888888889
 20
-7.708293055555562
 10
17.14339861111111
 20
-7.679873611111108
 10
17.0971138888889
 20
-7.661843055555563
 10
17.0479375
 20
-7.652322222222235
 10
16.91837777777778
 20
-7.627240277777774
 10
16.78781944444444
 20
-7.630308333333333
 10
16.65940000000001
 20
-7.655344444444457
 10
16.39843888888889
 20
-7.706226388888884
 10
16.14732222222223
 20
-7.792719444444451
 10
15.89614027777778
 20
-7.877920833333341
 10
15.79560833333333
 20
-7.912025000000009
 10
15.68236111111111
 20
-7.873173611111118
 10
15.58056388888889
 20
-7.860333333333326
 10
15.46547916666667
 20
-7.845819444444436
 10
15.3498486111111
 20
-7.836034722222216
 10
15.23405833333334
 20
-7.829443055555556
 10
15.19948750000001
 20
-7.829443055555556
 10
15.16491666666666
 20
-7.829779166666665
 10
15.13035972222222
 20
-7.829258333333327
 10
15.11807916666666
 20
-7.829068055555555
 10
15.09844166666667
 20
-7.837483333333339
 10
15.09788194444445
 20
-7.816576388888885
 10
15.09735555555556
 20
-7.796669444444458
 10
15.11721527777778
 20
-7.801331944444453
 10
15.12977916666667
 20
-7.801147222222223
 10
15.25866666666666
 20
-7.799323611111125
 10
15.38676250000001
 20
-7.811123611111118
 10
15.51484722222222
 20
-7.823701388888897
 10
15.60534305555556
 20
-7.832584722222211
 10
15.69484583333334
 20
-7.847815277777777
 10
15.7845
 20
-7.862401388888884
 10
15.8114125
 20
-7.866779166666674
 10
15.83848333333334
 20
-7.867648611111108
 10
15.86555972222223
 20
-7.858561111111107
 10
16.07507916666667
 20
-7.788287499999998
 10
16.28417777777777
 20
-7.716945833333334
 10
16.498675
 20
-7.662330555555551
 10
16.66923750000001
 20
-7.618897222222231
 10
16.84044583333333
 20
-7.592847222222215
 10
17.016375
 20
-7.618244444444447
 10
17.08632083333334
 20
-7.628345833333342
 10
17.153
 20
-7.647909722222216
 10
17.21042638888889
 20
-7.691575000000006
 10
17.26587777777778
 20
-7.733730555555566
 10
17.28078611111111
 20
-7.78693055555555
 10
17.25515277777778
 20
-7.851279166666674
 10
17.25373611111111
 20
-7.854815277777789
 10
17.25053472222223
 20
-7.860280555555542
 10
17.25178611111111
 20
-7.861715277777774
 10
17.25540833333333
 20
-7.865884722222214
 10
17.26063611111111
 20
-7.862704166666667
 10
17.26516111111111
 20
-7.861445833333341
 10
17.28608749999999
 20
-7.855677777777777
 10
17.3070013888889
 20
-7.849883333333334
 10
17.32790833333334
 20
-7.844055555555567
 10
17.40900833333333
 20
-7.821443055555569
 10
17.48592083333334
 20
-7.789188888888879
 10
17.55574722222223
 20
-7.741784722222215
 10
17.603125
 20
-7.70961666666666
 10
17.61407638888889
 20
-7.669995833333334
 10
17.5895013888889
 20
-7.618349999999989
 97
        0
 97
        0
 92
        1
 93
        1
 72
     4
 94
        3
 73
     0
 74
     1
 95
      152
 96
      148
 40
0.0
 40
0.0
 40
0.0
 40
0.0
 40
1.0
 40
1.0
 40
1.0
 40
2.0
 40
2.0
 40
2.0
 40
3.0
 40
3.0
 40
3.0
 40
4.0
 40
4.0
 40
4.0
 40
5.0
 40
5.0
 40
5.0
 40
6.0
 40
6.0
 40
6.0
 40
7.0
 40
7.0
 40
7.0
 40
8.0
 40
8.0
 40
8.0
 40
9.0
 40
9.0
 40
9.0
 40
10.0
 40
10.0
 40
10.0
 40
11.0
 40
11.0
 40
11.0
 40
12.0
 40
12.0
 40
12.0
 40
13.0
 40
13.0
 40
13.0
 40
14.0
 40
14.0
 40
14.0
 40
15.0
 40
15.0
 40
15.0
 40
16.0
 40
16.0
 40
16.0
 40
17.0
 40
17.0
 40
17.0
 40
18.0
 40
18.0
 40
18.0
 40
19.0
 40
19.0
 40
19.0
 40
20.0
 40
20.0
 40
20.0
 40
21.0
 40
21.0
 40
21.0
 40
22.0
 40
22.0
 40
22.0
 40
23.0
 40
23.0
 40
23.0
 40
24.0
 40
24.0
 40
24.0
 40
25.0
 40
25.0
 40
25.0
 40
26.0
 40
26.0
 40
26.0
 40
27.0
 40
27.0
 40
27.0
 40
28.0
 40
28.0
 40
28.0
 40
29.0
 40
29.0
 40
29.0
 40
30.0
 40
30.0
 40
30.0
 40
31.0
 40
31.0
 40
31.0
 40
32.0
 40
32.0
 40
32.0
 40
33.0
 40
33.0
 40
33.0
 40
34.0
 40
34.0
 40
34.0
 40
35.0
 40
35.0
 40
35.0
 40
36.0
 40
36.0
 40
36.0
 40
37.0
 40
37.0
 40
37.0
 40
38.0
 40
38.0
 40
38.0
 40
39.0
 40
39.0
 40
39.0
 40
40.0
 40
40.0
 40
40.0
 40
41.0
 40
41.0
 40
41.0
 40
42.0
 40
42.0
 40
42.0
 40
43.0
 40
43.0
 40
43.0
 40
44.0
 40
44.0
 40
44.0
 40
45.0
 40
45.0
 40
45.0
 40
46.0
 40
46.0
 40
46.0
 40
47.0
 40
47.0
 40
47.0
 40
48.0
 40
48.0
 40
48.0
 40
49.0
 40
49.0
 40
49.0
 40
49.0
 10
14.81771944444444
 20
-7.213818055555546
 10
14.81771944444444
 20
-7.213818055555546
 10
14.60145694444445
 20
-7.308074999999993
 10
14.60145694444445
 20
-7.308074999999993
 10
14.60145694444445
 20
-7.308074999999993
 10
14.73829861111111
 20
-7.476280555555554
 10
14.73829861111111
 20
-7.476280555555554
 10
14.74144583333334
 20
-7.480138888888884
 10
14.74196666666666
 20
-7.485479166666664
 10
14.7396486111111
 20
-7.489877777777767
 10
14.73734444444444
 20
-7.49424999999999
 10
14.73264861111112
 20
-7.496858333333345
 10
14.72767777777777
 20
-7.496436111111102
 10
14.72767777777777
 20
-7.496436111111102
 10
14.50510694444444
 20
-7.477998611111111
 10
14.50510694444444
 20
-7.477998611111111
 10
14.50510694444444
 20
-7.477998611111111
 10
14.53440972222222
 20
-7.695808333333338
 10
14.53440972222222
 20
-7.695808333333338
 10
14.53504166666667
 20
-7.700509722222225
 10
14.53288194444445
 20
-7.705225000000003
 10
14.528925
 20
-7.707826388888886
 10
14.52496666666666
 20
-7.710413888888878
 10
14.51979166666667
 20
-7.710519444444444
 10
14.51572222222222
 20
-7.708062499999995
 10
14.51572222222222
 20
-7.708062499999995
 10
14.32286944444445
 20
-7.591252777777779
 10
14.32286944444445
 20
-7.591252777777779
 10
14.32286944444445
 20
-7.591252777777779
 10
14.21998611111111
 20
-7.808713888888885
 10
14.21998611111111
 20
-7.808713888888885
 10
14.21796388888889
 20
-7.812973611111121
 10
14.2137763888889
 20
-7.815694444444438
 10
14.20906805555555
 20
-7.815805555555547
 10
14.20418194444445
 20
-7.815805555555547
 10
14.19998055555556
 20
-7.813277777777785
 10
14.19783472222222
 20
-7.809208333333345
 10
14.19783472222222
 20
-7.809208333333345
 10
14.08443472222223
 20
-7.594716666666677
 10
14.08443472222223
 20
-7.594716666666677
 10
14.08443472222223
 20
-7.594716666666677
 10
13.88638576031149
 20
-7.722912499999993
 10
13.88638576031149
 20
-7.722912499999993
 10
13.88242187152274
 20
-7.725473611111106
 10
13.87745103831498
 20
-7.725586111111119
 10
13.87339548286188
 20
-7.723195833333344
 10
13.86932464963138
 20
-7.720811111111111
 10
13.86698714969043
 20
-7.716406944444442
 10
13.86729687190483
 20
-7.711704166666676
 10
13.86729687190483
 20
-7.711704166666676
 10
13.88277777777778
 20
-7.473844444444441
 10
13.88277777777778
 20
-7.473844444444441
 10
13.88277777777778
 20
-7.473844444444441
 10
13.65349687730587
 20
-7.488633333333332
 10
13.65349687730587
 20
-7.488633333333332
 10
13.64855243298633
 20
-7.489008333333332
 10
13.64405382198887
 20
-7.486381944444449
 10
13.64176909982436
 20
-7.4821013888889
 10
13.63949132210412
 20
-7.477820833333326
 10
13.6399190998711
 20
-7.472572222222222
 10
13.64286909979657
 20
-7.468733333333325
 10
13.64286909979657
 20
-7.468733333333325
 10
13.78050104076414
 20
-7.289294444444446
 10
13.78050104076414
 20
-7.289294444444446
 10
13.78050104076414
 20
-7.289294444444446
 10
13.55640937975851
 20
-7.205837499999991
 10
13.55640937975851
 20
-7.205837499999991
 10
13.5517135465438
 20
-7.204098611111122
 10
13.54856076884567
 20
-7.199733333333344
 10
13.54835521329531
 20
-7.194722222222228
 10
13.5481510466338
 20
-7.189730555555545
 10
13.55095660211848
 20
-7.18512777777778
 10
13.55549410200385
 20
-7.183006944444438
 10
13.55549410200385
 20
-7.183006944444438
 10
13.78306944444445
 20
-7.076772222222214
 10
13.78306944444445
 20
-7.076772222222214
 10
13.78306944444445
 20
-7.076772222222214
 10
13.64455555555556
 20
-6.897504166666673
 10
13.64455555555556
 20
-6.897504166666673
 10
13.64161111111111
 20
-6.893691666666655
 10
13.64115104428442
 20
-6.888469444444454
 10
13.64336354422853
 20
-6.884209722222218
 10
13.64558159972805
 20
-6.879941666666658
 10
13.65013888888889
 20
-6.877176388888882
 10
13.6549329883807
 20
-6.877558333333329
 10
13.6549329883807
 20
-6.877558333333329
 10
13.65493854393612
 20
-6.877558333333329
 10
13.65493854393612
 20
-6.877558333333329
 10
13.65493854393612
 20
-6.877558333333329
 10
13.89333333333333
 20
-6.888897222222213
 10
13.89333333333333
 20
-6.888897222222213
 10
13.89333333333333
 20
-6.888897222222213
 10
13.88759131583659
 20
-6.646427777777767
 10
13.88759131583659
 20
-6.646427777777767
 10
13.88747326028402
 20
-6.641719444444434
 10
13.88998194444444
 20
-6.637419444444453
 10
13.89415694444445
 20
-6.635193055555545
 10
13.8983125
 20
-6.6329875
 10
13.90329722222222
 20
-6.633304166666676
 10
13.90714305555555
 20
-6.636030555555559
 10
13.90714305555555
 20
-6.636030555555559
 10
14.09707222222222
 20
-6.770902777777766
 10
14.09707222222222
 20
-6.770902777777766
 10
14.09707222222222
 20
-6.770902777777766
 10
14.19425833333334
 20
-6.584161111111118
 10
14.19425833333334
 20
-6.584161111111118
 10
14.19637916666666
 20
-6.58007083333334
 10
14.20056666666667
 20
-6.577516666666674
 10
14.2051625
 20
-6.57749027777777
 10
14.2098125
 20
-6.57749027777777
 10
14.214
 20
-6.579991666666678
 10
14.21615277777778
 20
-6.584029166666672
 10
14.21615277777778
 20
-6.584029166666672
 10
14.32229583333333
 20
-6.782097222222218
 10
14.32229583333333
 20
-6.782097222222218
 10
14.32229583333333
 20
-6.782097222222218
 10
14.52447916666666
 20
-6.657754166666664
 10
14.52447916666666
 20
-6.657754166666664
 10
14.52862222222222
 20
-6.655218055555552
 10
14.53388333333333
 20
-6.655316666666673
 10
14.5379
 20
-6.658043055555557
 10
14.54191666666667
 20
-6.660750000000007
 10
14.54399027777778
 20
-6.665590277777786
 10
14.54318055555556
 20
-6.670370833333335
 10
14.54318055555556
 20
-6.670370833333335
 10
14.50498194444444
 20
-6.896048611111104
 10
14.50498194444444
 20
-6.896048611111104
 10
14.50498194444444
 20
-6.896048611111104
 10
14.73618472222222
 20
-6.871586111111102
 10
14.73618472222222
 20
-6.871586111111102
 10
14.74104444444444
 20
-6.871026388888898
 10
14.7456875
 20
-6.87342916666666
 10
14.74815
 20
-6.877591666666653
 10
14.7506125
 20
-6.881747222222227
 10
14.75042222222222
 20
-6.887001388888898
 10
14.74766944444444
 20
-6.890965277777771
 10
14.74766944444444
 20
-6.890965277777771
 10
14.60768055555555
 20
-7.092840277777769
 10
14.60768055555555
 20
-7.092840277777769
 10
14.67835694444444
 20
-7.123808333333322
 10
14.74919166666667
 20
-7.156950000000001
 10
14.81829305555556
 20
-7.191390277777777
 10
14.82259305555556
 20
-7.193530555555551
 10
14.82527916666667
 20
-7.198001388888896
 10
14.82515416666667
 20
-7.202794444444432
 10
14.82502916666667
 20
-7.207575000000007
 10
14.82210555555556
 20
-7.211908333333339
 10
14.81771944444444
 20
-7.213818055555546
 97
        0
 97
        0
 75
     2
 76
     1
 98
        0
  0
ENDSEC
  0
SECTION
  2
OBJECTS
  0
DICTIONARY
  5
C
330
0
100
AcDbDictionary
281
     1
  3
ACAD_GROUP
350
D
  3
ACAD_LAYOUT
350
1A
  3
ACAD_MATERIAL
350
3B
  3
ACAD_MLEADERSTYLE
350
50
  3
ACAD_MLINESTYLE
350
17
  3
ACAD_PLOTSETTINGS
350
19
  3
ACAD_PLOTSTYLENAME
350
E
  3
ACAD_TABLESTYLE
350
4F
  3
ACAD_VISUALSTYLE
350
2A
  0
SUN
  5
3F
330
29
100
AcDbSun
 90
        1
290
     0
 63
     7
421
 16777215
 40
1.0
291
     1
 91
  2455826
 92
 54000000
292
     0
 70
     2
 71
   256
280
     1
  0
DICTIONARY
  5
D
102
{ACAD_REACTORS
330
C
102
}
330
C
100
AcDbDictionary
281
     1
  0
DICTIONARY
  5
1A
102
{ACAD_REACTORS
330
C
102
}
330
C
100
AcDbDictionary
281
     1
  3
Layout1
350
1E
  3
Layout2
350
26
  3
Model
350
22
  0
DICTIONARY
  5
3B
102
{ACAD_REACTORS
330
C
102
}
330
C
100
AcDbDictionary
281
     1
  3
ByBlock
350
3D
  3
ByLayer
350
3C
  3
Global
350
3E
  0
DICTIONARY
  5
50
102
{ACAD_REACTORS
330
C
102
}
330
C
100
AcDbDictionary
281
     1
  0
DICTIONARY
  5
17
102
{ACAD_REACTORS
330
C
102
}
330
C
100
AcDbDictionary
281
     1
  3
Standard
350
18
  0
DICTIONARY
  5
19
102
{ACAD_REACTORS
330
C
102
}
330
C
100
AcDbDictionary
281
     1
  0
ACDBDICTIONARYWDFLT
  5
E
102
{ACAD_REACTORS
330
C
102
}
330
C
100
AcDbDictionary
281
     1
  3
Normal
350
F
100
AcDbDictionaryWithDefault
340
F
  0
DICTIONARY
  5
4F
102
{ACAD_REACTORS
330
C
102
}
330
C
100
AcDbDictionary
281
     1
  0
DICTIONARY
  5
2A
102
{ACAD_REACTORS
330
C
102
}
330
C
100
AcDbDictionary
281
     1
  3
2dWireframe
350
2F
  3
3D Hidden
350
31
  3
3dWireframe
350
30
  3
Basic
350
32
  3
Brighten
350
36
  3
ColorChange
350
3A
  3
Conceptual
350
34
  3
Dim
350
35
  3
Facepattern
350
39
  3
Flat
350
2B
  3
FlatWithEdges
350
2C
  3
Gouraud
350
2D
  3
GouraudWithEdges
350
2E
  3
Linepattern
350
38
  3
Realistic
350
33
  3
Thicken
350
37
  0
LAYOUT
  5
1E
102
{ACAD_REACTORS
330
1A
102
}
330
1A
100
AcDbPlotSettings
  1

  2
none_device
  4

  6

 40
0.0
 41
0.0
 42
0.0
 43
0.0
 44
0.0
 45
0.0
 46
0.0
 47
0.0
 48
0.0
 49
0.0
140
0.0
141
0.0
142
1.0
143
1.0
 70
   688
 72
     0
 73
     0
 74
     5
  7

 75
    16
 76
     0
 77
     2
 78
   300
147
1.0
148
0.0
149
0.0
100
AcDbLayout
  1
Layout1
 70
     1
 71
     1
 10
0.0
 20
0.0
 11
12.0
 21
9.0
 12
0.0
 22
0.0
 32
0.0
 14
1.000000000000000E+20
 24
1.000000000000000E+20
 34
1.000000000000000E+20
 15
-1.000000000000000E+20
 25
-1.000000000000000E+20
 35
-1.000000000000000E+20
146
0.0
 13
0.0
 23
0.0
 33
0.0
 16
1.0
 26
0.0
 36
0.0
 17
0.0
 27
1.0
 37
0.0
 76
     0
330
1B
  0
LAYOUT
  5
26
102
{ACAD_REACTORS
330
1A
102
}
330
1A
100
AcDbPlotSettings
  1

  2
none_device
  4

  6

 40
0.0
 41
0.0
 42
0.0
 43
0.0
 44
0.0
 45
0.0
 46
0.0
 47
0.0
 48
0.0
 49
0.0
140
0.0
141
0.0
142
1.0
143
1.0
 70
   688
 72
     0
 73
     0
 74
     5
  7

 75
    16
 76
     0
 77
     2
 78
   300
147
1.0
148
0.0
149
0.0
100
AcDbLayout
  1
Layout2
 70
     1
 71
     2
 10
0.0
 20
0.0
 11
0.0
 21
0.0
 12
0.0
 22
0.0
 32
0.0
 14
0.0
 24
0.0
 34
0.0
 15
0.0
 25
0.0
 35
0.0
146
0.0
 13
0.0
 23
0.0
 33
0.0
 16
1.0
 26
0.0
 36
0.0
 17
0.0
 27
1.0
 37
0.0
 76
     0
330
23
  0
LAYOUT
  5
22
102
{ACAD_REACTORS
330
1A
102
}
330
1A
100
AcDbPlotSettings
  1

  2
none_device
  4

  6

 40
0.0
 41
0.0
 42
0.0
 43
0.0
 44
0.0
 45
0.0
 46
0.0
 47
0.0
 48
0.0
 49
0.0
140
0.0
141
0.0
142
1.0
143
1.0
 70
  1712
 72
     0
 73
     0
 74
     0
  7

 75
     0
 76
     0
 77
     2
 78
   300
147
1.0
148
0.0
149
0.0
100
AcDbLayout
  1
Model
 70
     1
 71
     0
 10
0.0
 20
0.0
 11
12.0
 21
9.0
 12
0.0
 22
0.0
 32
0.0
 14
1.000000000000000E+20
 24
1.000000000000000E+20
 34
1.000000000000000E+20
 15
-1.000000000000000E+20
 25
-1.000000000000000E+20
 35
-1.000000000000000E+20
146
0.0
 13
0.0
 23
0.0
 33
0.0
 16
1.0
 26
0.0
 36
0.0
 17
0.0
 27
1.0
 37
0.0
 76
     0
330
1F
331
29
  0
MATERIAL
  5
3D
102
{ACAD_REACTORS
330
3B
102
}
330
3B
100
AcDbMaterial
  1
ByBlock
 72
     1
 94
      127
  0
MATERIAL
  5
3C
102
{ACAD_REACTORS
330
3B
102
}
330
3B
100
AcDbMaterial
  1
ByLayer
 72
     1
 94
      127
  0
MATERIAL
  5
3E
102
{ACAD_REACTORS
330
3B
102
}
330
3B
100
AcDbMaterial
  1
Global
 72
     1
 94
      127
  0
MLINESTYLE
  5
18
102
{ACAD_REACTORS
330
17
102
}
330
17
100
AcDbMlineStyle
  2
Standard
 70
     0
  3

 62
   256
 51
90.0
 52
90.0
 71
     2
 49
0.5
 62
   256
  6
BYLAYER
 49
-0.5
 62
   256
  6
BYLAYER
  0
ACDBPLACEHOLDER
  5
F
102
{ACAD_REACTORS
330
E
102
}
330
E
  0
VISUALSTYLE
  5
2F
102
{ACAD_REACTORS
330
2A
102
}
330
2A
100
AcDbVisualStyle
  2
2dWireframe
 70
     4
177
     2
291
     0
 71
     0
176
     1
 72
     2
176
     1
 73
     0
176
     1
 90
        0
176
     1
 40
-0.6
176
     1
 41
-30.0
176
     1
 62
     5
 63
     7
421
 16777215
176
     1
 74
     1
176
     1
 91
        4
176
     1
 64
     7
176
     1
 65
   257
176
     1
 75
     1
176
     1
175
     1
176
     1
 42
1.0
176
     1
 92
        0
176
     1
 66
   257
176
     1
 43
1.0
176
     1
 76
     1
176
     1
 77
     6
176
     1
 78
     2
176
     1
 67
     7
176
     1
 79
     5
176
     1
170
     0
176
     1
171
     0
176
     1
290
     0
176
     1
 93
        1
176
     1
 44
0.0
176
     1
173
     0
176
     1
  0
VISUALSTYLE
  5
31
102
{ACAD_REACTORS
330
2A
102
}
330
2A
100
AcDbVisualStyle
  2
3D Hidden
 70
     6
177
     2
291
     0
 71
     1
176
     1
 72
     2
176
     1
 73
     2
176
     1
 90
        0
176
     1
 40
-0.6
176
     1
 41
-30.0
176
     1
 62
     5
 63
     7
421
 16777215
176
     1
 74
     2
176
     1
 91
        2
176
     1
 64
     7
176
     1
 65
   257
176
     1
 75
     2
176
     1
175
     1
176
     1
 42
40.0
176
     1
 92
        0
176
     1
 66
   257
176
     1
 43
1.0
176
     1
 76
     1
176
     1
 77
     6
176
     1
 78
     2
176
     1
 67
     7
176
     1
 79
     3
176
     1
170
     0
176
     1
171
     0
176
     1
290
     0
176
     1
 93
        1
176
     1
 44
0.0
176
     1
173
     0
176
     1
  0
VISUALSTYLE
  5
30
102
{ACAD_REACTORS
330
2A
102
}
330
2A
100
AcDbVisualStyle
  2
3dWireframe
 70
     5
177
     2
291
     0
 71
     0
176
     1
 72
     2
176
     1
 73
     0
176
     1
 90
        0
176
     1
 40
-0.6
176
     1
 41
-30.0
176
     1
 62
     5
 63
     7
421
 16777215
176
     1
 74
     1
176
     1
 91
        4
176
     1
 64
     7
176
     1
 65
   257
176
     1
 75
     1
176
     1
175
     1
176
     1
 42
1.0
176
     1
 92
        0
176
     1
 66
   257
176
     1
 43
1.0
176
     1
 76
     1
176
     1
 77
     6
176
     1
 78
     2
176
     1
 67
     7
176
     1
 79
     5
176
     1
170
     0
176
     1
171
     0
176
     1
290
     0
176
     1
 93
        1
176
     1
 44
0.0
176
     1
173
     0
176
     1
  0
VISUALSTYLE
  5
32
102
{ACAD_REACTORS
330
2A
102
}
330
2A
100
AcDbVisualStyle
  2
Basic
 70
     7
177
     2
291
     1
 71
     1
176
     1
 72
     0
176
     1
 73
     1
176
     1
 90
        0
176
     1
 40
-0.6
176
     1
 41
-30.0
176
     1
 62
     5
 63
     7
421
 16777215
176
     1
 74
     0
176
     1
 91
        4
176
     1
 64
     7
176
     1
 65
   257
176
     1
 75
     1
176
     1
175
     1
176
     1
 42
1.0
176
     1
 92
        8
176
     1
 66
     7
176
     1
 43
1.0
176
     1
 76
     1
176
     1
 77
     6
176
     1
 78
     2
176
     1
 67
     7
176
     1
 79
     5
176
     1
170
     0
176
     1
171
     0
176
     1
290
     0
176
     1
 93
        1
176
     1
 44
0.0
176
     1
173
     0
176
     1
  0
VISUALSTYLE
  5
36
102
{ACAD_REACTORS
330
2A
102
}
330
2A
100
AcDbVisualStyle
  2
Brighten
 70
    12
177
     2
291
     1
 71
     2
176
     1
 72
     2
176
     1
 73
     0
176
     1
 90
        0
176
     1
 40
-0.6
176
     1
 41
-30.0
176
     1
 62
     5
 63
     7
421
 16777215
176
     1
 74
     1
176
     1
 91
        4
176
     1
 64
     7
176
     1
 65
   257
176
     1
 75
     1
176
     1
175
     1
176
     1
 42
1.0
176
     1
 92
        8
176
     1
 66
     7
176
     1
 43
1.0
176
     1
 76
     1
176
     1
 77
     6
176
     1
 78
     2
176
     1
 67
     7
176
     1
 79
     5
176
     1
170
     0
176
     1
171
     0
176
     1
290
     0
176
     1
 93
        1
176
     1
 44
50.0
176
     1
173
     0
176
     1
  0
VISUALSTYLE
  5
3A
102
{ACAD_REACTORS
330
2A
102
}
330
2A
100
AcDbVisualStyle
  2
ColorChange
 70
    16
177
     2
291
     1
 71
     2
176
     1
 72
     2
176
     1
 73
     3
176
     1
 90
        0
176
     1
 40
-0.6
176
     1
 41
-30.0
176
     1
 62
     5
 63
     8
421
  8421504
176
     1
 74
     1
176
     1
 91
        4
176
     1
 64
     7
176
     1
 65
   257
176
     1
 75
     1
176
     1
175
     1
176
     1
 42
1.0
176
     1
 92
        8
176
     1
 66
     8
424
  8421504
176
     1
 43
1.0
176
     1
 76
     1
176
     1
 77
     6
176
     1
 78
     2
176
     1
 67
     7
176
     1
 79
     5
176
     1
170
     0
176
     1
171
     0
176
     1
290
     0
176
     1
 93
        1
176
     1
 44
0.0
176
     1
173
     0
176
     1
  0
VISUALSTYLE
  5
34
102
{ACAD_REACTORS
330
2A
102
}
330
2A
100
AcDbVisualStyle
  2
Conceptual
 70
     9
177
     2
291
     0
 71
     3
176
     1
 72
     2
176
     1
 73
     0
176
     1
 90
        0
176
     1
 40
-0.6
176
     1
 41
-30.0
176
     1
 62
     5
 63
     7
421
 16777215
176
     1
 74
     2
176
     1
 91
        2
176
     1
 64
     7
176
     1
 65
   257
176
     1
 75
     1
176
     1
175
     1
176
     1
 42
40.0
176
     1
 92
        8
176
     1
 66
     7
176
     1
 43
1.0
176
     1
 76
     1
176
     1
 77
     6
176
     1
 78
     2
176
     1
 67
     7
176
     1
 79
     3
176
     1
170
     0
176
     1
171
     0
176
     1
290
     0
176
     1
 93
        1
176
     1
 44
0.0
176
     1
173
     0
176
     1
  0
VISUALSTYLE
  5
35
102
{ACAD_REACTORS
330
2A
102
}
330
2A
100
AcDbVisualStyle
  2
Dim
 70
    11
177
     2
291
     1
 71
     2
176
     1
 72
     2
176
     1
 73
     0
176
     1
 90
        0
176
     1
 40
-0.6
176
     1
 41
-30.0
176
     1
 62
     5
 63
     7
421
 16777215
176
     1
 74
     1
176
     1
 91
        4
176
     1
 64
     7
176
     1
 65
   257
176
     1
 75
     1
176
     1
175
     1
176
     1
 42
1.0
176
     1
 92
        8
176
     1
 66
     7
176
     1
 43
1.0
176
     1
 76
     1
176
     1
 77
     6
176
     1
 78
     2
176
     1
 67
     7
176
     1
 79
     5
176
     1
170
     0
176
     1
171
     0
176
     1
290
     0
176
     1
 93
        1
176
     1
 44
-50.0
176
     1
173
     0
176
     1
  0
VISUALSTYLE
  5
39
102
{ACAD_REACTORS
330
2A
102
}
330
2A
100
AcDbVisualStyle
  2
Facepattern
 70
    15
177
     2
291
     1
 71
     2
176
     1
 72
     2
176
     1
 73
     0
176
     1
 90
        0
176
     1
 40
-0.6
176
     1
 41
-30.0
176
     1
 62
     5
 63
     7
421
 16777215
176
     1
 74
     1
176
     1
 91
        4
176
     1
 64
     7
176
     1
 65
   257
176
     1
 75
     1
176
     1
175
     1
176
     1
 42
1.0
176
     1
 92
        8
176
     1
 66
     7
176
     1
 43
1.0
176
     1
 76
     1
176
     1
 77
     6
176
     1
 78
     2
176
     1
 67
     7
176
     1
 79
     5
176
     1
170
     0
176
     1
171
     0
176
     1
290
     0
176
     1
 93
        1
176
     1
 44
0.0
176
     1
173
     0
176
     1
  0
VISUALSTYLE
  5
2B
102
{ACAD_REACTORS
330
2A
102
}
330
2A
100
AcDbVisualStyle
  2
Flat
 70
     0
177
     2
291
     1
 71
     2
176
     1
 72
     1
176
     1
 73
     1
176
     1
 90
        2
176
     1
 40
-0.6
176
     1
 41
30.0
176
     1
 62
     5
 63
     7
421
 16777215
176
     1
 74
     0
176
     1
 91
        4
176
     1
 64
     7
176
     1
 65
   257
176
     1
 75
     1
176
     1
175
     1
176
     1
 42
1.0
176
     1
 92
        8
176
     1
 66
     7
176
     1
 43
1.0
176
     1
 76
     1
176
     1
 77
     6
176
     1
 78
     2
176
     1
 67
     7
176
     1
 79
     5
176
     1
170
     0
176
     1
171
     0
176
     1
290
     0
176
     1
 93
       13
176
     1
 44
0.0
176
     1
173
     0
176
     1
  0
VISUALSTYLE
  5
2C
102
{ACAD_REACTORS
330
2A
102
}
330
2A
100
AcDbVisualStyle
  2
FlatWithEdges
 70
     1
177
     2
291
     1
 71
     2
176
     1
 72
     1
176
     1
 73
     1
176
     1
 90
        2
176
     1
 40
-0.6
176
     1
 41
30.0
176
     1
 62
     5
 63
     7
421
 16777215
176
     1
 74
     1
176
     1
 91
        4
176
     1
 64
     7
176
     1
 65
   257
176
     1
 75
     1
176
     1
175
     1
176
     1
 42
1.0
176
     1
 92
        0
176
     1
 66
   257
176
     1
 43
1.0
176
     1
 76
     1
176
     1
 77
     6
176
     1
 78
     2
176
     1
 67
     7
176
     1
 79
     5
176
     1
170
     0
176
     1
171
     0
176
     1
290
     0
176
     1
 93
       13
176
     1
 44
0.0
176
     1
173
     0
176
     1
  0
VISUALSTYLE
  5
2D
102
{ACAD_REACTORS
330
2A
102
}
330
2A
100
AcDbVisualStyle
  2
Gouraud
 70
     2
177
     2
291
     1
 71
     2
176
     1
 72
     2
176
     1
 73
     1
176
     1
 90
        2
176
     1
 40
-0.6
176
     1
 41
30.0
176
     1
 62
     5
 63
     7
421
 16777215
176
     1
 74
     0
176
     1
 91
        4
176
     1
 64
     7
176
     1
 65
   257
176
     1
 75
     1
176
     1
175
     1
176
     1
 42
1.0
176
     1
 92
        0
176
     1
 66
     7
176
     1
 43
1.0
176
     1
 76
     1
176
     1
 77
     6
176
     1
 78
     2
176
     1
 67
     7
176
     1
 79
     5
176
     1
170
     0
176
     1
171
     0
176
     1
290
     0
176
     1
 93
       13
176
     1
 44
0.0
176
     1
173
     0
176
     1
  0
VISUALSTYLE
  5
2E
102
{ACAD_REACTORS
330
2A
102
}
330
2A
100
AcDbVisualStyle
  2
GouraudWithEdges
 70
     3
177
     2
291
     1
 71
     2
176
     1
 72
     2
176
     1
 73
     1
176
     1
 90
        2
176
     1
 40
-0.6
176
     1
 41
30.0
176
     1
 62
     5
 63
     7
421
 16777215
176
     1
 74
     1
176
     1
 91
        4
176
     1
 64
     7
176
     1
 65
   257
176
     1
 75
     1
176
     1
175
     1
176
     1
 42
1.0
176
     1
 92
        0
176
     1
 66
   257
176
     1
 43
1.0
176
     1
 76
     1
176
     1
 77
     6
176
     1
 78
     2
176
     1
 67
     7
176
     1
 79
     5
176
     1
170
     0
176
     1
171
     0
176
     1
290
     0
176
     1
 93
       13
176
     1
 44
0.0
176
     1
173
     0
176
     1
  0
VISUALSTYLE
  5
38
102
{ACAD_REACTORS
330
2A
102
}
330
2A
100
AcDbVisualStyle
  2
Linepattern
 70
    14
177
     2
291
     1
 71
     2
176
     1
 72
     2
176
     1
 73
     0
176
     1
 90
        0
176
     1
 40
-0.6
176
     1
 41
-30.0
176
     1
 62
     5
 63
     7
421
 16777215
176
     1
 74
     1
176
     1
 91
        4
176
     1
 64
     7
176
     1
 65
   257
176
     1
 75
     7
176
     1
175
     7
176
     1
 42
1.0
176
     1
 92
        8
176
     1
 66
     7
176
     1
 43
1.0
176
     1
 76
     1
176
     1
 77
     6
176
     1
 78
     2
176
     1
 67
     7
176
     1
 79
     5
176
     1
170
     0
176
     1
171
     0
176
     1
290
     0
176
     1
 93
        1
176
     1
 44
0.0
176
     1
173
     0
176
     1
  0
VISUALSTYLE
  5
33
102
{ACAD_REACTORS
330
2A
102
}
330
2A
100
AcDbVisualStyle
  2
Realistic
 70
     8
177
     2
291
     0
 71
     2
176
     1
 72
     2
176
     1
 73
     0
176
     1
 90
        0
176
     1
 40
-0.6
176
     1
 41
-30.0
176
     1
 62
     5
 63
     7
421
 16777215
176
     1
 74
     1
176
     1
 91
        0
176
     1
 64
     7
176
     1
 65
   257
176
     1
 75
     1
176
     1
175
     1
176
     1
 42
1.0
176
     1
 92
        8
176
     1
 66
     8
424
  7895160
176
     1
 43
1.0
176
     1
 76
     1
176
     1
 77
     6
176
     1
 78
     2
176
     1
 67
     7
176
     1
 79
     5
176
     1
170
     0
176
     1
171
     0
176
     1
290
     0
176
     1
 93
       13
176
     1
 44
0.0
176
     1
173
     0
176
     1
  0
VISUALSTYLE
  5
37
102
{ACAD_REACTORS
330
2A
102
}
330
2A
100
AcDbVisualStyle
  2
Thicken
 70
    13
177
     2
291
     1
 71
     2
176
     1
 72
     2
176
     1
 73
     0
176
     1
 90
        0
176
     1
 40
-0.6
176
     1
 41
-30.0
176
     1
 62
     5
 63
     7
421
 16777215
176
     1
 74
     1
176
     1
 91
        4
176
     1
 64
     7
176
     1
 65
   257
176
     1
 75
     1
176
     1
175
     1
176
     1
 42
1.0
176
     1
 92
       12
176
     1
 66
     7
176
     1
 43
1.0
176
     1
 76
     1
176
     1
 77
     6
176
     1
 78
     2
176
     1
 67
     7
176
     1
 79
     5
176
     1
170
     0
176
     1
171
     0
176
     1
290
     0
176
     1
 93
        1
176
     1
 44
0.0
176
     1
173
     0
176
     1
  0
ENDSEC
  0
EOF
