  0
SECTION
  2
HEADER
  9
$ACADVER
  1
AC1024
  9
$ACADMAINTVER
 70
     6
  9
$DWGCODEPAGE
  3
ANSI_1251
  9
$INSBASE
 10
0.0
 20
0.0
 30
0.0
  9
$EXTMIN
 10
1.000000000000000E+20
 20
1.000000000000000E+20
 30
1.000000000000000E+20
  9
$EXTMAX
 10
-1.000000000000000E+20
 20
-1.000000000000000E+20
 30
-1.000000000000000E+20
  9
$LIMMIN
 10
0.0
 20
0.0
  9
$LIMMAX
 10
12.0
 20
9.0
  9
$ORTHOMODE
 70
     0
  9
$REGENMODE
 70
     1
  9
$FILLMODE
 70
     1
  9
$QTEXTMODE
 70
     0
  9
$MIRRTEXT
 70
     1
  9
$LTSCALE
 40
1.0
  9
$ATTMODE
 70
     1
  9
$TEXTSIZE
 40
0.2
  9
$TRACEWID
 40
0.05
  9
$TEXTSTYLE
  7
Standard
  9
$CLAYER
  8
0
  9
$CELTYPE
  6
ByLayer
  9
$CECOLOR
 62
   256
  9
$CELTSCALE
 40
1.0
  9
$DISPSILH
 70
     0
  9
$DIMSCALE
 40
1.0
  9
$DIMASZ
 40
0.18
  9
$DIMEXO
 40
0.0625
  9
$DIMDLI
 40
0.38
  9
$DIMRND
 40
0.0
  9
$DIMDLE
 40
0.0
  9
$DIMEXE
 40
0.18
  9
$DIMTP
 40
0.0
  9
$DIMTM
 40
0.0
  9
$DIMTXT
 40
0.18
  9
$DIMCEN
 40
0.09
  9
$DIMTSZ
 40
0.0
  9
$DIMTOL
 70
     0
  9
$DIMLIM
 70
     0
  9
$DIMTIH
 70
     1
  9
$DIMTOH
 70
     1
  9
$DIMSE1
 70
     0
  9
$DIMSE2
 70
     0
  9
$DIMTAD
 70
     0
  9
$DIMZIN
 70
     0
  9
$DIMBLK
  1

  9
$DIMASO
 70
     1
  9
$DIMSHO
 70
     1
  9
$DIMPOST
  1

  9
$DIMAPOST
  1

  9
$DIMALT
 70
     0
  9
$DIMALTD
 70
     2
  9
$DIMALTF
 40
25.4
  9
$DIMLFAC
 40
1.0
  9
$DIMTOFL
 70
     0
  9
$DIMTVP
 40
0.0
  9
$DIMTIX
 70
     0
  9
$DIMSOXD
 70
     0
  9
$DIMSAH
 70
     0
  9
$DIMBLK1
  1

  9
$DIMBLK2
  1

  9
$DIMSTYLE
  2
Standard
  9
$DIMCLRD
 70
     0
  9
$DIMCLRE
 70
     0
  9
$DIMCLRT
 70
     0
  9
$DIMTFAC
 40
1.0
  9
$DIMGAP
 40
0.09
  9
$DIMJUST
 70
     0
  9
$DIMSD1
 70
     0
  9
$DIMSD2
 70
     0
  9
$DIMTOLJ
 70
     1
  9
$DIMTZIN
 70
     0
  9
$DIMALTZ
 70
     0
  9
$DIMALTTZ
 70
     0
  9
$DIMUPT
 70
     0
  9
$DIMDEC
 70
     4
  9
$DIMTDEC
 70
     4
  9
$DIMALTU
 70
     2
  9
$DIMALTTD
 70
     2
  9
$DIMTXSTY
  7
Standard
  9
$DIMAUNIT
 70
     0
  9
$DIMADEC
 70
     0
  9
$DIMALTRND
 40
0.0
  9
$DIMAZIN
 70
     0
  9
$DIMDSEP
 70
    46
  9
$DIMATFIT
 70
     3
  9
$DIMFRAC
 70
     0
  9
$DIMLDRBLK
  1

  9
$DIMLUNIT
 70
     2
  9
$DIMLWD
 70
    -2
  9
$DIMLWE
 70
    -2
  9
$DIMTMOVE
 70
     0
  9
$DIMFXL
 40
1.0
  9
$DIMFXLON
 70
     0
  9
$DIMJOGANG
 40
0.7853981633974483
  9
$DIMTFILL
 70
     0
  9
$DIMTFILLCLR
 70
     0
  9
$DIMARCSYM
 70
     0
  9
$DIMLTYPE
  6

  9
$DIMLTEX1
  6

  9
$DIMLTEX2
  6

  9
$DIMTXTDIRECTION
 70
     0
  9
$LUNITS
 70
     2
  9
$LUPREC
 70
     4
  9
$SKETCHINC
 40
0.1
  9
$FILLETRAD
 40
0.5
  9
$AUNITS
 70
     0
  9
$AUPREC
 70
     0
  9
$MENU
  1
.
  9
$ELEVATION
 40
0.0
  9
$PELEVATION
 40
0.0
  9
$THICKNESS
 40
0.0
  9
$LIMCHECK
 70
     0
  9
$CHAMFERA
 40
0.5
  9
$CHAMFERB
 40
0.5
  9
$CHAMFERC
 40
1.0
  9
$CHAMFERD
 40
0.0
  9
$SKPOLY
 70
     0
  9
$TDCREATE
 40
2459337.687623345
  9
$TDUCREATE
 40
2459337.562623345
  9
$TDUPDATE
 40
2459337.687623345
  9
$TDUUPDATE
 40
2459337.562623345
  9
$TDINDWG
 40
0.0000000116
  9
$TDUSRTIMER
 40
0.0000000116
  9
$USRTIMER
 70
     1
  9
$ANGBASE
 50
0.0
  9
$ANGDIR
 70
     0
  9
$PDMODE
 70
     0
  9
$PDSIZE
 40
0.0
  9
$PLINEWID
 40
0.0
  9
$SPLFRAME
 70
     0
  9
$SPLINETYPE
 70
     6
  9
$SPLINESEGS
 70
     8
  9
$HANDSEED
  5
4B
  9
$SURFTAB1
 70
     6
  9
$SURFTAB2
 70
     6
  9
$SURFTYPE
 70
     6
  9
$SURFU
 70
     6
  9
$SURFV
 70
     6
  9
$UCSBASE
  2

  9
$UCSNAME
  2

  9
$UCSORG
 10
0.0
 20
0.0
 30
0.0
  9
$UCSXDIR
 10
1.0
 20
0.0
 30
0.0
  9
$UCSYDIR
 10
0.0
 20
1.0
 30
0.0
  9
$UCSORTHOREF
  2

  9
$UCSORTHOVIEW
 70
     0
  9
$UCSORGTOP
 10
0.0
 20
0.0
 30
0.0
  9
$UCSORGBOTTOM
 10
0.0
 20
0.0
 30
0.0
  9
$UCSORGLEFT
 10
0.0
 20
0.0
 30
0.0
  9
$UCSORGRIGHT
 10
0.0
 20
0.0
 30
0.0
  9
$UCSORGFRONT
 10
0.0
 20
0.0
 30
0.0
  9
$UCSORGBACK
 10
0.0
 20
0.0
 30
0.0
  9
$PUCSBASE
  2

  9
$PUCSNAME
  2

  9
$PUCSORG
 10
0.0
 20
0.0
 30
0.0
  9
$PUCSXDIR
 10
1.0
 20
0.0
 30
0.0
  9
$PUCSYDIR
 10
0.0
 20
1.0
 30
0.0
  9
$PUCSORTHOREF
  2

  9
$PUCSORTHOVIEW
 70
     0
  9
$PUCSORGTOP
 10
0.0
 20
0.0
 30
0.0
  9
$PUCSORGBOTTOM
 10
0.0
 20
0.0
 30
0.0
  9
$PUCSORGLEFT
 10
0.0
 20
0.0
 30
0.0
  9
$PUCSORGRIGHT
 10
0.0
 20
0.0
 30
0.0
  9
$PUCSORGFRONT
 10
0.0
 20
0.0
 30
0.0
  9
$PUCSORGBACK
 10
0.0
 20
0.0
 30
0.0
  9
$USERI1
 70
     0
  9
$USERI2
 70
     0
  9
$USERI3
 70
     0
  9
$USERI4
 70
     0
  9
$USERI5
 70
     0
  9
$USERR1
 40
0.0
  9
$USERR2
 40
0.0
  9
$USERR3
 40
0.0
  9
$USERR4
 40
0.0
  9
$USERR5
 40
0.0
  9
$WORLDVIEW
 70
     1
  9
$SHADEDGE
 70
     3
  9
$SHADEDIF
 70
    70
  9
$TILEMODE
 70
     1
  9
$MAXACTVP
 70
    64
  9
$PINSBASE
 10
0.0
 20
0.0
 30
0.0
  9
$PLIMCHECK
 70
     0
  9
$PEXTMIN
 10
1.000000000000000E+20
 20
1.000000000000000E+20
 30
1.000000000000000E+20
  9
$PEXTMAX
 10
-1.000000000000000E+20
 20
-1.000000000000000E+20
 30
-1.000000000000000E+20
  9
$PLIMMIN
 10
0.0
 20
0.0
  9
$PLIMMAX
 10
12.0
 20
9.0
  9
$UNITMODE
 70
     0
  9
$VISRETAIN
 70
     1
  9
$PLINEGEN
 70
     0
  9
$PSLTSCALE
 70
     1
  9
$TREEDEPTH
 70
  3020
  9
$CMLSTYLE
  2
Standard
  9
$CMLJUST
 70
     0
  9
$CMLSCALE
 40
1.0
  9
$PROXYGRAPHICS
 70
     1
  9
$MEASUREMENT
 70
     0
  9
$CELWEIGHT
370
    -1
  9
$ENDCAPS
280
     0
  9
$JOINSTYLE
280
     0
  9
$LWDISPLAY
290
     1
  9
$INSUNITS
 70
     1
  9
$HYPERLINKBASE
  1

  9
$STYLESHEET
  1

  9
$XEDIT
290
     1
  9
$CEPSNTYPE
380
     0
  9
$PSTYLEMODE
290
     1
  9
$FINGERPRINTGUID
  2
{C794CEF7-EC31-4707-BDD1-7545BB4B6247}
  9
$VERSIONGUID
  2
{FAEB1C32-E019-11D5-929B-00C0DF256EC4}
  9
$EXTNAMES
290
     1
  9
$PSVPSCALE
 40
0.0
  9
$OLESTARTUP
290
     0
  9
$SORTENTS
280
   127
  9
$INDEXCTL
280
     0
  9
$HIDETEXT
280
     1
  9
$XCLIPFRAME
280
     2
  9
$HALOGAP
280
     0
  9
$OBSCOLOR
 70
   257
  9
$OBSLTYPE
280
     0
  9
$INTERSECTIONDISPLAY
280
     0
  9
$INTERSECTIONCOLOR
 70
   257
  9
$DIMASSOC
280
     2
  9
$PROJECTNAME
  1

  9
$CAMERADISPLAY
290
     0
  9
$LENSLENGTH
 40
50.0
  9
$CAMERAHEIGHT
 40
0.0
  9
$STEPSPERSEC
 40
2.0
  9
$STEPSIZE
 40
6.0
  9
$3DDWFPREC
 40
2.0
  9
$PSOLWIDTH
 40
0.25
  9
$PSOLHEIGHT
 40
4.0
  9
$LOFTANG1
 40
1.570796326794897
  9
$LOFTANG2
 40
1.570796326794897
  9
$LOFTMAG1
 40
0.0
  9
$LOFTMAG2
 40
0.0
  9
$LOFTPARAM
 70
     7
  9
$LOFTNORMALS
280
     1
  9
$LATITUDE
 40
37.795
  9
$LONGITUDE
 40
-122.394
  9
$NORTHDIRECTION
 40
0.0
  9
$TIMEZONE
 70
 -8000
  9
$LIGHTGLYPHDISPLAY
280
     1
  9
$TILEMODELIGHTSYNCH
280
     1
  9
$CMATERIAL
347
3C
  9
$SOLIDHIST
280
     1
  9
$SHOWHIST
280
     1
  9
$DWFFRAME
280
     2
  9
$DGNFRAME
280
     2
  9
$REALWORLDSCALE
290
     1
  9
$INTERFERECOLOR
 62
   256
  9
$CSHADOW
280
     0
  9
$SHADOWPLANELOCATION
 40
0.0
  0
ENDSEC
  0
SECTION
  2
CLASSES
  0
CLASS
  1
ACDBDICTIONARYWDFLT
  2
AcDbDictionaryWithDefault
  3
ObjectDBX Classes
 90
        0
 91
        4
280
     0
281
     0
  0
CLASS
  1
VISUALSTYLE
  2
AcDbVisualStyle
  3
ObjectDBX Classes
 90
     4095
 91
        4
280
     0
281
     0
  0
CLASS
  1
MATERIAL
  2
AcDbMaterial
  3
ObjectDBX Classes
 90
     1153
 91
        4
280
     0
281
     0
  0
CLASS
  1
SUN
  2
AcDbSun
  3
SCENEOE
 90
     1024
 91
        4
280
     0
281
     0
  0
ENDSEC
  0
SECTION
  2
TABLES
  0
TABLE
  2
VPORT
  5
8
330
0
100
AcDbSymbolTable
 70
     1
  0
VPORT
  5
29
330
8
100
AcDbSymbolTableRecord
100
AcDbViewportTableRecord
  2
*Active
 70
     0
 10
0.0
 20
0.0
 11
1.0
 21
1.0
 12
0.0
 22
0.0
 13
0.0
 23
0.0
 14
0.5
 24
0.5
 15
0.5
 25
0.5
 16
0.0
 26
0.0
 36
1.0
 17
5.112933084350111
 27
-5.894030555555547
 37
0.0
 40
12.0
 41
0.7891259059909282
 42
50.0
 43
0.0
 44
0.0
 50
0.0
 51
0.0
 71
     0
 72
   100
 73
     1
 74
     3
 75
     0
 76
     0
 77
     0
 78
     0
281
     0
 65
     1
110
0.0
120
0.0
130
0.0
111
1.0
121
0.0
131
0.0
112
0.0
122
1.0
132
0.0
 79
     0
146
0.0
 60
     3
 61
     5
292
     1
282
     1
141
0.0
142
0.0
 63
   250
361
3F
  0
ENDTAB
  0
TABLE
  2
LTYPE
  5
5
330
0
100
AcDbSymbolTable
 70
     1
  0
LTYPE
  5
14
330
5
100
AcDbSymbolTableRecord
100
AcDbLinetypeTableRecord
  2
ByBlock
 70
     0
  3

 72
    65
 73
     0
 40
0.0
  0
LTYPE
  5
15
330
5
100
AcDbSymbolTableRecord
100
AcDbLinetypeTableRecord
  2
ByLayer
 70
     0
  3

 72
    65
 73
     0
 40
0.0
  0
LTYPE
  5
16
330
5
100
AcDbSymbolTableRecord
100
AcDbLinetypeTableRecord
  2
Continuous
 70
     0
  3
Solid line
 72
    65
 73
     0
 40
0.0
  0
ENDTAB
  0
TABLE
  2
LAYER
  5
2
330
0
100
AcDbSymbolTable
 70
     2
  0
LAYER
  5
10
330
2
100
AcDbSymbolTableRecord
100
AcDbLayerTableRecord
  2
0
 70
     0
 62
     7
  6
Continuous
370
    -3
390
F
347
3E
  0
LAYER
  5
40
330
2
100
AcDbSymbolTableRecord
100
AcDbLayerTableRecord
  2
Layer 1
 70
     0
 62
     7
  6
Continuous
370
    -3
390
F
347
3E
  0
ENDTAB
  0
TABLE
  2
STYLE
  5
3
330
0
100
AcDbSymbolTable
 70
     1
  0
STYLE
  5
11
330
3
100
AcDbSymbolTableRecord
100
AcDbTextStyleTableRecord
  2
Standard
 70
     0
 40
0.0
 41
1.0
 50
0.0
 71
     0
 42
0.2
  3
txt
  4

  0
ENDTAB
  0
TABLE
  2
VIEW
  5
6
330
0
100
AcDbSymbolTable
 70
     0
  0
ENDTAB
  0
TABLE
  2
UCS
  5
7
330
0
100
AcDbSymbolTable
 70
     0
  0
ENDTAB
  0
TABLE
  2
APPID
  5
9
330
0
100
AcDbSymbolTable
 70
     1
  0
APPID
  5
12
330
9
100
AcDbSymbolTableRecord
100
AcDbRegAppTableRecord
  2
ACAD
 70
     0
  0
ENDTAB
  0
TABLE
  2
DIMSTYLE
  5
A
330
0
100
AcDbSymbolTable
 70
     1
100
AcDbDimStyleTable
  0
DIMSTYLE
105
27
330
A
100
AcDbSymbolTableRecord
100
AcDbDimStyleTableRecord
  2
Standard
 70
     0
178
     0
340
11
  0
ENDTAB
  0
TABLE
  2
BLOCK_RECORD
  5
1
330
0
100
AcDbSymbolTable
 70
     1
  0
BLOCK_RECORD
  5
1F
330
1
100
AcDbSymbolTableRecord
100
AcDbBlockTableRecord
  2
*Model_Space
340
22
 70
     0
280
     1
281
     0
  0
BLOCK_RECORD
  5
1B
330
1
100
AcDbSymbolTableRecord
100
AcDbBlockTableRecord
  2
*Paper_Space
340
1E
 70
     0
280
     1
281
     0
  0
BLOCK_RECORD
  5
23
330
1
100
AcDbSymbolTableRecord
100
AcDbBlockTableRecord
  2
*Paper_Space0
340
26
 70
     0
280
     1
281
     0
  0
ENDTAB
  0
ENDSEC
  0
SECTION
  2
BLOCKS
  0
BLOCK
  5
20
330
1F
100
AcDbEntity
  8
0
100
AcDbBlockBegin
  2
*Model_Space
 70
     0
 10
0.0
 20
0.0
 30
0.0
  3
*Model_Space
  1

  0
ENDBLK
  5
21
330
1F
100
AcDbEntity
  8
0
100
AcDbBlockEnd
  0
BLOCK
  5
1C
330
1B
100
AcDbEntity
 67
     1
  8
0
100
AcDbBlockBegin
  2
*Paper_Space
 70
     0
 10
0.0
 20
0.0
 30
0.0
  3
*Paper_Space
  1

  0
ENDBLK
  5
1D
330
1B
100
AcDbEntity
 67
     1
  8
0
100
AcDbBlockEnd
  0
BLOCK
  5
24
330
23
100
AcDbEntity
  8
0
100
AcDbBlockBegin
  2
*Paper_Space0
 70
     0
 10
0.0
 20
0.0
 30
0.0
  3
*Paper_Space0
  1

  0
ENDBLK
  5
25
330
23
100
AcDbEntity
  8
0
100
AcDbBlockEnd
  0
ENDSEC
  0
SECTION
  2
ENTITIES
  0
SPLINE
  5
41
330
1F
100
AcDbEntity
  8
Layer 1
370
     0
100
AcDbSpline
210
0.0
220
0.0
230
1.0
 70
    11
 71
     3
 72
   536
 73
   532
 74
     0
 42
0.0000000001
 43
0.0000000001
 12
1.0
 22
0.0
 32
0.0
 13
1.0
 23
0.0
 33
0.0
 40
0.0
 40
0.0
 40
0.0
 40
0.0
 40
1.0
 40
1.0
 40
1.0
 40
2.0
 40
2.0
 40
2.0
 40
3.0
 40
3.0
 40
3.0
 40
4.0
 40
4.0
 40
4.0
 40
5.0
 40
5.0
 40
5.0
 40
6.0
 40
6.0
 40
6.0
 40
7.0
 40
7.0
 40
7.0
 40
8.0
 40
8.0
 40
8.0
 40
9.0
 40
9.0
 40
9.0
 40
10.0
 40
10.0
 40
10.0
 40
11.0
 40
11.0
 40
11.0
 40
12.0
 40
12.0
 40
12.0
 40
13.0
 40
13.0
 40
13.0
 40
14.0
 40
14.0
 40
14.0
 40
15.0
 40
15.0
 40
15.0
 40
16.0
 40
16.0
 40
16.0
 40
17.0
 40
17.0
 40
17.0
 40
18.0
 40
18.0
 40
18.0
 40
19.0
 40
19.0
 40
19.0
 40
20.0
 40
20.0
 40
20.0
 40
21.0
 40
21.0
 40
21.0
 40
22.0
 40
22.0
 40
22.0
 40
23.0
 40
23.0
 40
23.0
 40
24.0
 40
24.0
 40
24.0
 40
25.0
 40
25.0
 40
25.0
 40
26.0
 40
26.0
 40
26.0
 40
27.0
 40
27.0
 40
27.0
 40
28.0
 40
28.0
 40
28.0
 40
29.0
 40
29.0
 40
29.0
 40
30.0
 40
30.0
 40
30.0
 40
31.0
 40
31.0
 40
31.0
 40
32.0
 40
32.0
 40
32.0
 40
33.0
 40
33.0
 40
33.0
 40
34.0
 40
34.0
 40
34.0
 40
35.0
 40
35.0
 40
35.0
 40
36.0
 40
36.0
 40
36.0
 40
37.0
 40
37.0
 40
37.0
 40
38.0
 40
38.0
 40
38.0
 40
39.0
 40
39.0
 40
39.0
 40
40.0
 40
40.0
 40
40.0
 40
41.0
 40
41.0
 40
41.0
 40
42.0
 40
42.0
 40
42.0
 40
43.0
 40
43.0
 40
43.0
 40
44.0
 40
44.0
 40
44.0
 40
45.0
 40
45.0
 40
45.0
 40
46.0
 40
46.0
 40
46.0
 40
47.0
 40
47.0
 40
47.0
 40
48.0
 40
48.0
 40
48.0
 40
49.0
 40
49.0
 40
49.0
 40
50.0
 40
50.0
 40
50.0
 40
51.0
 40
51.0
 40
51.0
 40
52.0
 40
52.0
 40
52.0
 40
53.0
 40
53.0
 40
53.0
 40
54.0
 40
54.0
 40
54.0
 40
55.0
 40
55.0
 40
55.0
 40
56.0
 40
56.0
 40
56.0
 40
57.0
 40
57.0
 40
57.0
 40
58.0
 40
58.0
 40
58.0
 40
59.0
 40
59.0
 40
59.0
 40
60.0
 40
60.0
 40
60.0
 40
61.0
 40
61.0
 40
61.0
 40
62.0
 40
62.0
 40
62.0
 40
63.0
 40
63.0
 40
63.0
 40
64.0
 40
64.0
 40
64.0
 40
65.0
 40
65.0
 40
65.0
 40
66.0
 40
66.0
 40
66.0
 40
67.0
 40
67.0
 40
67.0
 40
68.0
 40
68.0
 40
68.0
 40
69.0
 40
69.0
 40
69.0
 40
70.0
 40
70.0
 40
70.0
 40
71.0
 40
71.0
 40
71.0
 40
72.0
 40
72.0
 40
72.0
 40
73.0
 40
73.0
 40
73.0
 40
74.0
 40
74.0
 40
74.0
 40
75.0
 40
75.0
 40
75.0
 40
76.0
 40
76.0
 40
76.0
 40
77.0
 40
77.0
 40
77.0
 40
78.0
 40
78.0
 40
78.0
 40
79.0
 40
79.0
 40
79.0
 40
80.0
 40
80.0
 40
80.0
 40
81.0
 40
81.0
 40
81.0
 40
82.0
 40
82.0
 40
82.0
 40
83.0
 40
83.0
 40
83.0
 40
84.0
 40
84.0
 40
84.0
 40
85.0
 40
85.0
 40
85.0
 40
86.0
 40
86.0
 40
86.0
 40
87.0
 40
87.0
 40
87.0
 40
88.0
 40
88.0
 40
88.0
 40
89.0
 40
89.0
 40
89.0
 40
90.0
 40
90.0
 40
90.0
 40
91.0
 40
91.0
 40
91.0
 40
92.0
 40
92.0
 40
92.0
 40
93.0
 40
93.0
 40
93.0
 40
94.0
 40
94.0
 40
94.0
 40
95.0
 40
95.0
 40
95.0
 40
96.0
 40
96.0
 40
96.0
 40
97.0
 40
97.0
 40
97.0
 40
98.0
 40
98.0
 40
98.0
 40
99.0
 40
99.0
 40
99.0
 40
100.0
 40
100.0
 40
100.0
 40
101.0
 40
101.0
 40
101.0
 40
102.0
 40
102.0
 40
102.0
 40
103.0
 40
103.0
 40
103.0
 40
104.0
 40
104.0
 40
104.0
 40
105.0
 40
105.0
 40
105.0
 40
106.0
 40
106.0
 40
106.0
 40
107.0
 40
107.0
 40
107.0
 40
108.0
 40
108.0
 40
108.0
 40
109.0
 40
109.0
 40
109.0
 40
110.0
 40
110.0
 40
110.0
 40
111.0
 40
111.0
 40
111.0
 40
112.0
 40
112.0
 40
112.0
 40
113.0
 40
113.0
 40
113.0
 40
114.0
 40
114.0
 40
114.0
 40
115.0
 40
115.0
 40
115.0
 40
116.0
 40
116.0
 40
116.0
 40
117.0
 40
117.0
 40
117.0
 40
118.0
 40
118.0
 40
118.0
 40
119.0
 40
119.0
 40
119.0
 40
120.0
 40
120.0
 40
120.0
 40
121.0
 40
121.0
 40
121.0
 40
122.0
 40
122.0
 40
122.0
 40
123.0
 40
123.0
 40
123.0
 40
124.0
 40
124.0
 40
124.0
 40
125.0
 40
125.0
 40
125.0
 40
126.0
 40
126.0
 40
126.0
 40
127.0
 40
127.0
 40
127.0
 40
128.0
 40
128.0
 40
128.0
 40
129.0
 40
129.0
 40
129.0
 40
130.0
 40
130.0
 40
130.0
 40
131.0
 40
131.0
 40
131.0
 40
132.0
 40
132.0
 40
132.0
 40
133.0
 40
133.0
 40
133.0
 40
134.0
 40
134.0
 40
134.0
 40
135.0
 40
135.0
 40
135.0
 40
136.0
 40
136.0
 40
136.0
 40
137.0
 40
137.0
 40
137.0
 40
138.0
 40
138.0
 40
138.0
 40
139.0
 40
139.0
 40
139.0
 40
140.0
 40
140.0
 40
140.0
 40
141.0
 40
141.0
 40
141.0
 40
142.0
 40
142.0
 40
142.0
 40
143.0
 40
143.0
 40
143.0
 40
144.0
 40
144.0
 40
144.0
 40
145.0
 40
145.0
 40
145.0
 40
146.0
 40
146.0
 40
146.0
 40
147.0
 40
147.0
 40
147.0
 40
148.0
 40
148.0
 40
148.0
 40
149.0
 40
149.0
 40
149.0
 40
150.0
 40
150.0
 40
150.0
 40
151.0
 40
151.0
 40
151.0
 40
152.0
 40
152.0
 40
152.0
 40
153.0
 40
153.0
 40
153.0
 40
154.0
 40
154.0
 40
154.0
 40
155.0
 40
155.0
 40
155.0
 40
156.0
 40
156.0
 40
156.0
 40
157.0
 40
157.0
 40
157.0
 40
158.0
 40
158.0
 40
158.0
 40
159.0
 40
159.0
 40
159.0
 40
160.0
 40
160.0
 40
160.0
 40
161.0
 40
161.0
 40
161.0
 40
162.0
 40
162.0
 40
162.0
 40
163.0
 40
163.0
 40
163.0
 40
164.0
 40
164.0
 40
164.0
 40
165.0
 40
165.0
 40
165.0
 40
166.0
 40
166.0
 40
166.0
 40
167.0
 40
167.0
 40
167.0
 40
168.0
 40
168.0
 40
168.0
 40
169.0
 40
169.0
 40
169.0
 40
170.0
 40
170.0
 40
170.0
 40
171.0
 40
171.0
 40
171.0
 40
172.0
 40
172.0
 40
172.0
 40
173.0
 40
173.0
 40
173.0
 40
174.0
 40
174.0
 40
174.0
 40
175.0
 40
175.0
 40
175.0
 40
176.0
 40
176.0
 40
176.0
 40
177.0
 40
177.0
 40
177.0
 40
177.0
 10
9.842722222222214
 20
-9.231397222222212
 30
0.0
 10
9.824898362913295
 20
-9.197640277777786
 30
0.0
 10
9.774494197519944
 20
-9.20947638888889
 30
0.0
 10
9.744398364946896
 20
-9.216545833333333
 30
0.0
 10
9.740667809485583
 20
-9.217416666666672
 30
0.0
 10
9.737260865127205
 20
-9.218244444444457
 30
0.0
 10
9.734253920758722
 20
-9.218863888888892
 30
0.0
 10
9.684546977569982
 20
-9.229331944444437
 30
0.0
 10
9.633594201079378
 20
-9.224606944444455
 30
0.0
 10
9.582790035696133
 20
-9.204883333333328
 30
0.0
 10
9.52457614827785
 20
-9.182240277777787
 30
0.0
 10
9.474128927330032
 20
-9.143175000000003
 30
0.0
 10
9.425337261895947
 20
-9.105383333333343
 30
0.0
 10
9.371010874379458
 20
-9.063311111111108
 30
0.0
 10
9.314845598020534
 20
-9.019802777777764
 30
0.0
 10
9.246783099739938
 20
-8.997480555555562
 30
0.0
 10
9.13601504698262
 20
-8.961101388888892
 30
0.0
 10
9.018392827731784
 20
-8.967916666666673
 30
0.0
 10
8.887219219934398
 20
-8.979726388888896
 30
0.0
 10
8.842149776628503
 20
-8.983770833333336
 30
0.0
 10
8.796252555565742
 20
-8.982663888888888
 30
0.0
 10
8.750276167838313
 20
-8.976431944444432
 30
0.0
 10
8.784188666981612
 20
-8.966730555555563
 30
0.0
 10
8.820002554965766
 20
-8.960891666666662
 30
0.0
 10
8.85494444444445
 20
-8.955200000000003
 30
0.0
 10
8.923285885689943
 20
-8.944044444444444
 30
0.0
 10
8.993953939460273
 20
-8.932512500000003
 30
0.0
 10
9.05238449353975
 20
-8.892315277777772
 30
0.0
 10
9.12501388888889
 20
-8.84232916666666
 30
0.0
 10
9.173038657158434
 20
-8.758020833333324
 30
0.0
 10
9.195098378823381
 20
-8.641708333333327
 30
0.0
 10
9.199361111111102
 20
-8.619220833333328
 30
0.0
 10
9.190348378943376
 20
-8.59954027777778
 30
0.0
 10
9.171583333333324
 20
-8.590354166666657
 30
0.0
 10
9.158317824196981
 20
-8.583895833333347
 30
0.0
 10
9.138209491371628
 20
-8.581027777777788
 30
0.0
 10
9.117701158556377
 20
-8.604891666666667
 30
0.0
 10
9.117701158556377
 20
-8.604891666666667
 30
0.0
 10
9.11625532525957
 20
-8.606644444444454
 30
0.0
 10
9.11625532525957
 20
-8.606644444444454
 30
0.0
 10
9.077940048449717
 20
-8.6535263888889
 30
0.0
 10
9.019935883248358
 20
-8.680902777777773
 30
0.0
 10
8.948491440608752
 20
-8.685783333333323
 30
0.0
 10
8.917934496936242
 20
-8.687901388888879
 30
0.0
 10
8.886574775506233
 20
-8.684938888888887
 30
0.0
 10
8.85626922071626
 20
-8.682105555555557
 30
0.0
 10
8.828378943643049
 20
-8.679491666666662
 30
0.0
 10
8.799712277700564
 20
-8.67675416666667
 30
0.0
 10
8.771098389534522
 20
-8.6779138888889
 30
0.0
 10
8.777102556049512
 20
-8.670670833333336
 30
0.0
 10
8.784441444753003
 20
-8.661136111111116
 30
0.0
 10
8.79368055555556
 20
-8.64867222222223
 30
0.0
 10
8.797141444432174
 20
-8.644000000000005
 30
0.0
 10
8.799895611029266
 20
-8.640277777777783
 30
0.0
 10
8.80140277777779
 20
-8.638456944444442
 30
0.0
 10
8.873884498049039
 20
-8.551490277777777
 30
0.0
 10
8.918081719154744
 20
-8.446011111111122
 30
0.0
 10
8.960833333333337
 20
-8.344008333333324
 30
0.0
 10
8.960833333333337
 20
-8.344008333333324
 30
0.0
 10
8.962472222222232
 20
-8.340104166666656
 30
0.0
 10
8.962472222222232
 20
-8.340104166666656
 30
0.0
 10
8.967780329010363
 20
-8.327422222222214
 30
0.0
 10
8.972948384435362
 20
-8.314401388888882
 30
0.0
 10
8.978152777777773
 20
-8.301205555555548
 30
0.0
 10
8.99358727280287
 20
-8.262201388888899
 30
0.0
 10
9.009537272399939
 20
-8.2218736111111
 30
0.0
 10
9.031144216298545
 20
-8.187558333333325
 30
0.0
 10
9.059566437802761
 20
-8.142384722222232
 30
0.0
 10
9.100853936759751
 20
-8.107120833333333
 30
0.0
 10
9.140771991306893
 20
-8.073031944444438
 30
0.0
 10
9.165038657360531
 20
-8.05230555555555
 30
0.0
 10
9.190121990060208
 20
-8.030881944444445
 30
0.0
 10
9.212452545051645
 20
-8.00722777777777
 30
0.0
 10
9.294451154091297
 20
-7.920399999999997
 30
0.0
 10
9.334919208624543
 20
-7.792573611111114
 30
0.0
 10
9.320667820095675
 20
-7.665051388888893
 30
0.0
 10
9.319640042343861
 20
-7.655777777777782
 30
0.0
 10
9.316484486868022
 20
-7.627512499999991
 30
0.0
 10
9.28638032096185
 20
-7.621847222222211
 30
0.0
 10
9.256633099491106
 20
-7.616320833333323
 30
0.0
 10
9.238251155511028
 20
-7.646329166666671
 30
0.0
 10
9.22697222222223
 20
-7.664859722222218
 30
0.0
 10
9.220933100392964
 20
-7.674752777777788
 30
0.0
 10
9.215580322750409
 20
-7.684688888888886
 30
0.0
 10
9.21028171177315
 20
-7.694545833333323
 30
0.0
 10
9.199962267589399
 20
-7.713738888888884
 30
0.0
 10
9.190209490057997
 20
-7.73186666666667
 30
0.0
 10
9.17593310152976
 20
-7.748636111111106
 30
0.0
 10
9.114912269737943
 20
-7.820133333333337
 30
0.0
 10
9.029749999999996
 20
-7.845208333333327
 30
0.0
 10
8.932873385447742
 20
-7.868454166666677
 30
0.0
 10
8.844703943230645
 20
-7.889633333333323
 30
0.0
 10
8.75289005666117
 20
-7.918055555555561
 30
0.0
 10
8.678727558534673
 20
-7.982222222222212
 30
0.0
 10
8.601338671600791
 20
-8.049177777777787
 30
0.0
 10
8.544258117487212
 20
-8.135655555555559
 30
0.0
 10
8.493898396537183
 20
-8.211954166666676
 30
0.0
 10
8.4688845082802
 20
-8.249886111111108
 30
0.0
 10
8.439258120139735
 20
-8.285229166666669
 30
0.0
 10
8.40558034321273
 20
-8.317337499999995
 30
0.0
 10
8.409276176452698
 20
-8.305240277777784
 30
0.0
 10
8.414662287427745
 20
-8.293779166666656
 30
0.0
 10
8.420355342839482
 20
-8.281672222222216
 30
0.0
 10
8.431474787003026
 20
-8.25805277777777
 30
0.0
 10
8.445037286660408
 20
-8.23503472222223
 30
0.0
 10
8.458145619662597
 20
-8.212730555555556
 30
0.0
 10
8.47295395262184
 20
-8.187576388888878
 30
0.0
 10
8.488267841123868
 20
-8.161551388888887
 30
0.0
 10
8.500375
 20
-8.134313888888881
 30
0.0
 10
8.556940061611284
 20
-8.012536111111103
 30
0.0
 10
8.53041784005907
 20
-7.886756944444439
 30
0.0
 10
8.42151388888889
 20
-7.760463888888883
 30
0.0
 10
8.406644232074743
 20
-7.743180555555555
 30
0.0
 10
8.385656732604932
 20
-7.73796805555556
 30
0.0
 10
8.366785899748315
 20
-7.746849999999995
 30
0.0
 10
8.338695622680158
 20
-7.760080555555557
 30
0.0
 10
8.342870622574688
 20
-7.78749166666666
 30
0.0
 10
8.345928955830761
 20
-7.807512500000004
 30
0.0
 10
8.346687289144938
 20
-7.812436111111108
 30
0.0
 10
8.347445622459114
 20
-7.817344444444441
 30
0.0
 10
8.347741455784973
 20
-7.821972222222231
 30
0.0
 10
8.35135951124913
 20
-7.876863888888894
 30
0.0
 10
8.336977567168004
 20
-7.930911111111122
 30
0.0
 10
8.306158123502124
 20
-7.97829999999999
 30
0.0
 10
8.288081735069884
 20
-8.006120833333322
 30
0.0
 10
8.264270624560291
 20
-8.030184722222227
 30
0.0
 10
8.241244236253099
 20
-8.053456944444456
 30
0.0
 10
8.220909514544575
 20
-8.073991666666668
 30
0.0
 10
8.200034515071922
 20
-8.095101388888882
 30
0.0
 10
8.182419237739143
 20
-8.119252777777774
 30
0.0
 10
8.171342849130067
 20
-8.041977777777776
 30
0.0
 10
8.147652777777768
 20
-7.964084722222221
 30
0.0
 10
8.111855350632847
 20
-7.887384722222223
 30
0.0
 10
8.094642851067672
 20
-7.85051666666666
 30
0.0
 10
8.073202573831521
 20
-7.815426388888883
 30
0.0
 10
8.052448407689148
 20
-7.781486111111108
 30
0.0
 10
8.029917852702763
 20
-7.744636111111125
 30
0.0
 10
8.006620631069078
 20
-7.706504166666668
 30
0.0
 10
7.989101187067212
 20
-7.666524999999991
 30
0.0
 10
7.971609520842422
 20
-7.626579166666665
 30
0.0
 10
7.958762298944748
 20
-7.582948611111103
 30
0.0
 10
7.951928965784039
 20
-7.540318055555543
 30
0.0
 10
7.94708333333334
 20
-7.509961111111124
 30
0.0
 10
7.946124999999988
 20
-7.479168055555546
 30
0.0
 10
7.945208333333337
 20
-7.449386111111102
 30
0.0
 10
7.94388313265396
 20
-7.406530555555567
 30
0.0
 10
7.942506743799842
 20
-7.362227777777788
 30
0.0
 10
7.929667855235291
 20
-7.317584722222212
 30
0.0
 10
7.897201189388801
 20
-7.20466249999999
 30
0.0
 10
7.830394246632042
 20
-7.113354166666668
 30
0.0
 10
7.736498415670717
 20
-7.053555555555552
 30
0.0
 10
7.715397027314894
 20
-7.039940277777784
 30
0.0
 10
7.696737305564056
 20
-7.039836111111121
 30
0.0
 10
7.68109147262597
 20
-7.053162499999997
 30
0.0
 10
7.652634528900408
 20
-7.077409722222228
 30
0.0
 10
7.67443313946084
 20
-7.123247222222213
 30
0.0
 10
7.68745397246524
 20
-7.150623611111111
 30
0.0
 10
7.688919250206001
 20
-7.153699999999995
 30
0.0
 10
7.690252583505652
 20
-7.156506944444446
 30
0.0
 10
7.691384527921501
 20
-7.159000000000004
 30
0.0
 10
7.71204980517723
 20
-7.204783333333327
 30
0.0
 10
7.719798416092594
 20
-7.250036111111108
 30
0.0
 10
7.715083333333344
 20
-7.297320833333337
 30
0.0
 10
7.707805555555549
 20
-7.370272222222233
 30
0.0
 10
7.674781750563144
 20
-7.441140277777777
 30
0.0
 10
7.644398417997358
 20
-7.501863888888894
 30
0.0
 10
7.597219252522538
 20
-7.596169444444437
 30
0.0
 10
7.576972222222214
 20
-7.689891666666654
 30
0.0
 10
7.585870641698117
 20
-7.772893055555565
 30
0.0
 10
7.593916666666675
 20
-7.848031944444452
 30
0.0
 10
7.609465085546516
 20
-7.92270138888888
 30
0.0
 10
7.632073418308714
 20
-7.994833333333341
 30
0.0
 10
7.650090084520242
 20
-8.052262499999996
 30
0.0
 10
7.668637306273922
 20
-8.111355555555544
 30
0.0
 10
7.675434528324431
 20
-8.176150000000007
 30
0.0
 10
7.670353972897222
 20
-8.1676861111111
 30
0.0
 10
7.665359528578947
 20
-8.158918055555558
 30
0.0
 10
7.660513888888898
 20
-8.149906944444435
 30
0.0
 10
7.646106751287536
 20
-8.123148611111118
 30
0.0
 10
7.635202584896332
 20
-8.094229166666663
 30
0.0
 10
7.624656751829408
 20
-8.066269444444439
 30
0.0
 10
7.61540952984079
 20
-8.041690277777787
 30
0.0
 10
7.604923418994581
 20
-8.013861111111105
 30
0.0
 10
7.591676197107012
 20
-7.987259722222234
 30
0.0
 10
7.531745643065429
 20
-7.867163888888879
 30
0.0
 10
7.416956757076352
 20
-7.809752777777779
 30
0.0
 10
7.25030120573087
 20
-7.815836111111113
 30
0.0
 10
7.227422039642179
 20
-7.816698611111102
 30
0.0
 10
7.210252595631472
 20
-7.829833333333327
 30
0.0
 10
7.205510929084589
 20
-7.850072222222226
 30
0.0
 10
7.198206762602442
 20
-7.880386111111116
 30
0.0
 10
7.221948428669343
 20
-7.893800000000005
 30
0.0
 10
7.23929287267563
 20
-7.903569444444454
 30
0.0
 10
7.243486111111123
 20
-7.905958333333324
 30
0.0
 10
7.247651205797815
 20
-7.908294444444437
 30
0.0
 10
7.251383150147982
 20
-7.910820833333345
 30
0.0
 10
7.272309538508225
 20
-7.925062499999992
 30
0.0
 10
7.291127593588397
 20
-7.942661111111116
 30
0.0
 10
7.307302593179783
 20
-7.963108333333341
 30
0.0
 10
7.346960925511262
 20
-8.01333750000001
 30
0.0
 10
7.355292869745224
 20
-8.07173333333334
 30
0.0
 10
7.364122036188847
 20
-8.13357222222223
 30
0.0
 10
7.368244258306933
 20
-8.162387499999998
 30
0.0
 10
7.372462313755932
 20
-8.191961111111116
 30
0.0
 10
7.380149813561729
 20
-8.220888888888895
 30
0.0
 10
7.366397036131375
 20
-8.213436111111099
 30
0.0
 10
7.348808147686819
 20
-8.206280555555546
 30
0.0
 10
7.330391481485397
 20
-8.19910694444444
 30
0.0
 10
7.324587314965356
 20
-8.19685833333334
 30
0.0
 10
7.319697037311117
 20
-8.194958333333336
 30
0.0
 10
7.316394259616774
 20
-8.193494444444443
 30
0.0
 10
7.287430555555551
 20
-8.180786111111122
 30
0.0
 10
7.256681761125239
 20
-8.169673611111117
 30
0.0
 10
7.222384539769437
 20
-8.159502777777789
 30
0.0
 10
7.170499999999997
 20
-8.144119444444438
 30
0.0
 10
7.11619009800769
 20
-8.132169444444445
 30
0.0
 10
7.063667877112291
 20
-8.120604166666656
 30
0.0
 10
6.976213712654903
 20
-8.101376388888891
 30
0.0
 10
6.885795659383499
 20
-8.081477777777788
 30
0.0
 10
6.803028994807694
 20
-8.04505416666666
 30
0.0
 10
6.761698440296236
 20
-8.026881944444439
 30
0.0
 10
6.722869274610477
 20
-8.003741666666656
 30
0.0
 10
6.6853303866699
 20
-7.981349999999995
 30
0.0
 10
6.606102610893585
 20
-7.934127777777777
 30
0.0
 10
6.524173446296622
 20
-7.885266666666666
 30
0.0
 10
6.4191567822829
 20
-7.885266666666666
 30
0.0
 10
6.369729005753773
 20
-7.885266666666666
 30
0.0
 10
6.319673451462727
 20
-7.893800000000005
 30
0.0
 10
6.270341508264512
 20
-7.910663888888898
 30
0.0
 10
6.246626231085833
 20
-7.918848611111116
 30
0.0
 10
6.234963731380453
 20
-7.933334722222222
 30
0.0
 10
6.235679009140161
 20
-7.953720833333338
 30
0.0
 10
6.237012342439812
 20
-7.991809722222215
 30
0.0
 10
6.28220400796484
 20
-8.001152777777785
 30
0.0
 10
6.31519289602036
 20
-8.007959722222216
 30
0.0
 10
6.323656784695433
 20
-8.009711111111123
 30
0.0
 10
6.33164011782709
 20
-8.011368055555547
 30
0.0
 10
6.337113728799927
 20
-8.013198611111116
 30
0.0
 10
6.447988725998989
 20
-8.050144444444438
 30
0.0
 10
6.50164428019909
 20
-8.150977777777774
 30
0.0
 10
6.553537334443718
 20
-8.248438888888888
 30
0.0
 10
6.563760945296558
 20
-8.267658333333328
 30
0.0
 10
6.57395955615003
 20
-8.286806944444454
 30
0.0
 10
6.584548444771421
 20
-8.305449999999988
 30
0.0
 10
6.676780386885891
 20
-8.46787916666666
 30
0.0
 10
6.834127605133189
 20
-8.537570833333323
 30
0.0
 10
6.987378990150622
 20
-8.595043055555555
 30
0.0
 10
7.025658155850275
 20
-8.60938888888889
 30
0.0
 10
7.060085932758334
 20
-8.62860833333333
 30
0.0
 10
7.094452598556826
 20
-8.649795833333327
 30
0.0
 10
7.092195654169396
 20
-8.649543055555544
 30
0.0
 10
7.089955376448213
 20
-8.64924722222223
 30
0.0
 10
7.087724820949006
 20
-8.648994444444446
 30
0.0
 10
7.087724820949006
 20
-8.648994444444446
 30
0.0
 10
7.077640098981545
 20
-8.647712499999999
 30
0.0
 10
7.077640098981545
 20
-8.647712499999999
 30
0.0
 10
7.044702599813617
 20
-8.643425000000004
 30
0.0
 10
7.012472222222211
 20
-8.634412500000002
 30
0.0
 10
6.981303990304089
 20
-8.625687499999987
 30
0.0
 10
6.962398435226127
 20
-8.620406944444438
 30
0.0
 10
6.942858157941979
 20
-8.614933333333333
 30
0.0
 10
6.923098436218929
 20
-8.610452777777784
 30
0.0
 10
6.78541510636377
 20
-8.579668055555556
 30
0.0
 10
6.661003998395548
 20
-8.633454166666676
 30
0.0
 10
6.563316500863341
 20
-8.766065277777772
 30
0.0
 10
6.549772056761058
 20
-8.78445694444445
 30
0.0
 10
6.549335945660964
 20
-8.80607222222223
 30
0.0
 10
6.562183167558638
 20
-8.822456944444436
 30
0.0
 10
6.571405389547888
 20
-8.834268055555563
 30
0.0
 10
6.588417889118116
 20
-8.845676388888881
 30
0.0
 10
6.616780388401619
 20
-8.832881944444454
 30
0.0
 10
6.684109553367407
 20
-8.804415277777782
 30
0.0
 10
6.758142884830502
 20
-8.806855555555558
 30
0.0
 10
6.825210938691775
 20
-8.839776388888897
 30
0.0
 10
6.846024827054862
 20
-8.850026388888889
 30
0.0
 10
6.866253993210496
 20
-8.862916666666655
 30
0.0
 10
6.885830381604844
 20
-8.875380555555568
 30
0.0
 10
6.906503992193696
 20
-8.888549999999997
 30
0.0
 10
6.927631769437741
 20
-8.90200694444444
 30
0.0
 10
6.950117879980805
 20
-8.91284166666666
 30
0.0
 10
6.886605381585266
 20
-8.930787500000001
 30
0.0
 10
6.804598439212491
 20
-8.999755555555566
 30
0.0
 10
6.760635940323077
 20
-9.036727777777767
 30
0.0
 10
6.760635940323077
 20
-9.036727777777767
 30
0.0
 10
6.74913888888889
 20
-9.046359722222228
 30
0.0
 10
6.74913888888889
 20
-9.046359722222228
 30
0.0
 10
6.723967885693835
 20
-9.06726805555556
 30
0.0
 10
6.699963719633565
 20
-9.088422222222233
 30
0.0
 10
6.676762331330792
 20
-9.108869444444457
 30
0.0
 10
6.582448444824472
 20
-9.191966666666657
 30
0.0
 10
6.49336372485272
 20
-9.270461111111116
 30
0.0
 10
6.358572061591176
 20
-9.30059305555556
 30
0.0
 10
6.252752619819956
 20
-9.32423055555556
 30
0.0
 10
6.163111111111119
 20
-9.379061111111115
 30
0.0
 10
6.099327623695798
 20
-9.459212499999996
 30
0.0
 10
6.068491513363672
 20
-9.49790277777778
 30
0.0
 10
6.04400818064884
 20
-9.542301388888896
 30
0.0
 10
6.026549847756542
 20
-9.591213888888888
 30
0.0
 10
6.023377625614456
 20
-9.600077777777768
 30
0.0
 10
6.013747070302188
 20
-9.62709722222222
 30
0.0
 10
6.029879014339106
 20
-9.640354166666661
 30
0.0
 10
6.053151235973423
 20
-9.659441666666654
 30
0.0
 10
6.109585956769984
 20
-9.632422222222228
 30
0.0
 10
6.19307623243862
 20
-9.58256805555556
 30
0.0
 10
6.202829009970022
 20
-9.576737500000009
 30
0.0
 10
6.212895676382383
 20
-9.570713888888879
 30
0.0
 10
6.215144287436689
 20
-9.56987777777777
 30
0.0
 10
6.300088729735257
 20
-9.542109722222222
 30
0.0
 10
6.384720672041718
 20
-9.558686111111102
 30
0.0
 10
6.474335947555623
 20
-9.57626666666667
 30
0.0
 10
6.557251223238786
 20
-9.592522222222215
 30
0.0
 10
6.643015109961096
 20
-9.609343055555554
 30
0.0
 10
6.727802607819184
 20
-9.586830555555554
 30
0.0
 10
6.809095661321104
 20
-9.565241666666653
 30
0.0
 10
6.887495659340553
 20
-9.532102777777784
 30
0.0
 10
6.960812324155086
 20
-9.488305555555547
 30
0.0
 10
6.971080379451248
 20
-9.482169444444454
 30
0.0
 10
6.981120656975387
 20
-9.47585138888889
 30
0.0
 10
6.991117878945058
 20
-9.469523611111121
 30
0.0
 10
7.01314287838866
 20
-9.45561249999999
 30
0.0
 10
7.033947044529769
 20
-9.442486111111116
 30
0.0
 10
7.056983155058939
 20
-9.431504166666677
 30
0.0
 10
7.066048432607708
 20
-9.427208333333333
 30
0.0
 10
7.081841487764298
 20
-9.422927777777785
 30
0.0
 10
7.098576209563766
 20
-9.418404166666656
 30
0.0
 10
7.106438709365142
 20
-9.416269444444449
 30
0.0
 10
7.114359542498378
 20
-9.414134722222217
 30
0.0
 10
7.122012320082831
 20
-9.411868055555562
 30
0.0
 10
7.099526209539767
 20
-9.431740277777786
 30
0.0
 10
7.075530376812619
 20
-9.450374999999996
 30
0.0
 10
7.052041666666658
 20
-9.468634722222228
 30
0.0
 10
7.012288711743571
 20
-9.49948888888889
 30
0.0
 10
6.971184546115283
 20
-9.531431944444446
 30
0.0
 10
6.936844269205014
 20
-9.569390277777782
 30
0.0
 10
6.860719271128093
 20
-9.653549999999996
 30
0.0
 10
6.841440104948459
 20
-9.760266666666666
 30
0.0
 10
6.877881770694532
 20
-9.895615277777779
 30
0.0
 10
6.883851214988176
 20
-9.918024999999993
 30
0.0
 10
6.900228992352216
 20
-9.931516666666665
 30
0.0
 10
6.921765102919279
 20
-9.931716666666665
 30
0.0
 10
6.93572899145541
 20
-9.931716666666665
 30
0.0
 10
6.953717879889862
 20
-9.92603472222221
 30
0.0
 10
6.962172046342958
 20
-9.899981944444436
 30
0.0
 10
6.962172046342958
 20
-9.899981944444436
 30
0.0
 10
6.964116490738282
 20
-9.893350000000003
 30
0.0
 10
6.964116490738282
 20
-9.893350000000003
 30
0.0
 10
6.982427601386815
 20
-9.828869444444434
 30
0.0
 10
7.024394266993315
 20
-9.77829166666667
 30
0.0
 10
7.088805555555559
 20
-9.74302777777777
 30
0.0
 10
7.114935931372706
 20
-9.72873333333334
 30
0.0
 10
7.143313708433602
 20
-9.718379166666661
 30
0.0
 10
7.170760929962448
 20
-9.708363888888899
 30
0.0
 10
7.196838707081446
 20
-9.698855555555559
 30
0.0
 10
7.223622039738175
 20
-9.68907638888888
 30
0.0
 10
7.249116483538576
 20
-9.675766666666656
 30
0.0
 10
7.22277620642621
 20
-9.758358333333337
 30
0.0
 10
7.210609540066899
 20
-9.846101388888883
 30
0.0
 10
7.21289287334255
 20
-9.936990277777769
 30
0.0
 10
7.213642873323604
 20
-9.9664763888889
 30
0.0
 10
7.215053984399067
 20
-9.99515972222222
 30
0.0
 10
7.216423428808916
 20
-10.02325138888889
 30
0.0
 10
7.222794261981309
 20
-10.15317916666666
 30
0.0
 10
7.228294261842367
 20
-10.26543055555557
 30
0.0
 10
7.168137318917616
 20
-10.38901250000001
 30
0.0
 10
7.098453987344631
 20
-10.532075
 30
0.0
 10
7.106019264931294
 20
-10.69688333333334
 30
0.0
 10
7.188383151739496
 20
-10.82989583333334
 30
0.0
 10
7.192767873850951
 20
-10.83695555555556
 30
0.0
 10
7.204385929113009
 20
-10.8556861111111
 30
0.0
 10
7.22696926187584
 20
-10.8556861111111
 30
0.0
 10
7.230638888888885
 20
-10.8556861111111
 30
0.0
 10
7.23429981724621
 20
-10.85517222222221
 30
0.0
 10
7.238212317147372
 20
-10.85410833333334
 30
0.0
 10
7.275316482876709
 20
-10.84389305555555
 30
0.0
 10
7.27737342726919
 20
-10.7847736111111
 30
0.0
 10
7.279037316116046
 20
-10.7372638888889
 30
0.0
 10
7.279647038322865
 20
-10.71997083333334
 30
0.0
 10
7.280231760530316
 20
-10.70362916666666
 30
0.0
 10
7.28252342713909
 20
-10.69458194444443
 30
0.0
 10
7.305708333333339
 20
-10.60323055555556
 30
0.0
 10
7.376969258086521
 20
-10.53654583333332
 30
0.0
 10
7.443611111111117
 20
-10.48334444444443
 30
0.0
 10
7.50503175485139
 20
-10.4343263888889
 30
0.0
 10
7.581120641818112
 20
-10.36649027777778
 30
0.0
 10
7.624638888888891
 20
-10.27615972222222
 30
0.0
 10
7.662859528642103
 20
-10.19684444444445
 30
0.0
 10
7.679801194880787
 20
-10.10978194444445
 30
0.0
 10
7.691333333333331
 20
-10.03505277777779
 30
0.0
 10
7.693738694528697
 20
-10.01942500000001
 30
0.0
 10
7.695534527816663
 20
-10.00358749999999
 30
0.0
 10
7.697328972215776
 20
-9.98773333333333
 30
0.0
 10
7.699874999999994
 20
-9.965159722222223
 30
0.0
 10
7.702516472084729
 20
-9.941836111111115
 30
0.0
 10
7.707030360859587
 20
-9.919619444444454
 30
0.0
 10
7.709113694140291
 20
-9.909387499999992
 30
0.0
 10
7.715912305079655
 20
-9.894230555555547
 30
0.0
 10
7.723119249342036
 20
-9.878201388888884
 30
0.0
 10
7.725559527058167
 20
-9.87276250000001
 30
0.0
 10
7.728026193662521
 20
-9.867280555555554
 30
0.0
 10
7.730353971381494
 20
-9.861850000000004
 30
0.0
 10
7.730963693588314
 20
-9.891833333333325
 30
0.0
 10
7.729099804746511
 20
-9.922347222222216
 30
0.0
 10
7.727269249237199
 20
-9.952251388888877
 30
0.0
 10
7.722953971568434
 20
-10.02267638888889
 30
0.0
 10
7.718509527236265
 20
-10.09547083333334
 30
0.0
 10
7.745667859883522
 20
-10.1617638888889
 30
0.0
 10
7.779180555555563
 20
-10.24357083333333
 30
0.0
 10
7.878976189849204
 20
-10.34397777777778
 30
0.0
 10
7.96858452091884
 20
-10.3572861111111
 30
0.0
 10
7.991359520343495
 20
-10.36069444444444
 30
0.0
 10
8.003185908933624
 20
-10.35269305555557
 30
0.0
 10
8.009103964339676
 20
-10.34537222222222
 30
0.0
 10
8.019276186304927
 20
-10.33279444444444
 30
0.0
 10
8.020297019612473
 20
-10.31175555555557
 30
0.0
 10
8.0118150753823
 20
-10.28909305555557
 30
0.0
 10
8.006106742193172
 20
-10.27381527777778
 30
0.0
 10
7.999324797920053
 20
-10.26051388888888
 30
0.0
 10
7.992762298085836
 20
-10.24762361111112
 30
0.0
 10
7.980394242842723
 20
-10.22337638888889
 30
0.0
 10
7.968706743137974
 20
-10.20045277777778
 30
0.0
 10
7.967294243173657
 20
-10.16884999999999
 30
0.0
 10
7.964784521014836
 20
-10.11306805555556
 30
0.0
 10
7.980988687272151
 20
-10.05647638888889
 30
0.0
 10
7.996658131320752
 20
-10.00174861111112
 30
0.0
 10
8.002759520055507
 20
-9.980447222222235
 30
0.0
 10
8.00899999999999
 20
-9.958666666666659
 30
0.0
 10
8.014133130879296
 20
-9.936920833333335
 30
0.0
 10
8.02564701947732
 20
-9.954422222222219
 30
0.0
 10
8.044377574559702
 20
-9.973693055555561
 30
0.0
 10
8.064415074053512
 20
-9.99342499999999
 30
0.0
 10
8.070830351669226
 20
-9.999736111111106
 30
0.0
 10
8.076373407084752
 20
-10.00518333333333
 30
0.0
 10
8.080042851436499
 20
-10.0092625
 30
0.0
 10
8.134569444444448
 20
-10.06987222222223
 30
0.0
 10
8.200784515052975
 20
-10.11811388888888
 30
0.0
 10
8.26481090232442
 20
-10.16479722222223
 30
0.0
 10
8.298637290358784
 20
-10.18943611111111
 30
0.0
 10
8.333595622808994
 20
-10.21493055555556
 30
0.0
 10
8.366253955317308
 20
-10.24182777777777
 30
0.0
 10
8.430237287034288
 20
-10.29454166666667
 30
0.0
 10
8.472831730402707
 20
-10.34373333333332
 30
0.0
 10
8.50438311849454
 20
-10.40127499999999
 30
0.0
 10
8.60331783821746
 20
-10.58179027777778
 30
0.0
 10
8.723030335193268
 20
-10.67472777777779
 30
0.0
 10
8.881780331182906
 20
-10.6937625
 30
0.0
 10
8.884299775563704
 20
-10.69405000000001
 30
0.0
 10
8.887690053255836
 20
-10.69440694444446
 30
0.0
 10
8.891542830936285
 20
-10.69440694444446
 30
0.0
 10
8.915371997000976
 20
-10.69440694444446
 30
0.0
 10
8.926223385615735
 20
-10.68109861111111
 30
0.0
 10
8.931120607714243
 20
-10.66994166666667
 30
0.0
 10
8.945519218461614
 20
-10.63720555555556
 30
0.0
 10
8.900319444444449
 20
-10.59499444444443
 30
0.0
 10
8.860435887277667
 20
-10.55776944444445
 30
0.0
 10
8.844416666666676
 20
-10.54281250000001
 30
0.0
 10
8.82928449917573
 20
-10.52869305555555
 30
0.0
 10
8.823376165991652
 20
-10.51962777777779
 30
0.0
 10
8.774052556126561
 20
-10.44389583333332
 30
0.0
 10
8.768875000000005
 20
-10.34863194444445
 30
0.0
 10
8.769284500691457
 20
-10.28356805555556
 30
0.0
 10
8.76980811178934
 20
-10.20100277777778
 30
0.0
 10
8.76448311192386
 20
-10.09443333333333
 30
0.0
 10
8.71820950198172
 20
-10.0024638888889
 30
0.0
 10
8.6737150586613
 20
-9.914023611111107
 30
0.0
 10
8.603509504879286
 20
-9.840609722222224
 30
0.0
 10
8.535622006594268
 20
-9.769619444444439
 30
0.0
 10
8.535622006594268
 20
-9.769619444444439
 30
0.0
 10
8.53217895112569
 20
-9.766011111111109
 30
0.0
 10
8.53217895112569
 20
-9.766011111111109
 30
0.0
 10
8.5004970074816
 20
-9.732890277777768
 30
0.0
 10
8.472388888888897
 20
-9.695743055555567
 30
0.0
 10
8.448349786576728
 20
-9.655249999999997
 30
0.0
 10
8.456865064139391
 20
-9.660845833333344
 30
0.0
 10
8.465406730590278
 20
-9.666745833333328
 30
0.0
 10
8.47390395259784
 20
-9.672925000000001
 30
0.0
 10
8.498238674205316
 20
-9.690627777777788
 30
0.0
 10
8.521545618060978
 20
-9.711344444444446
 30
0.0
 10
8.544084506380488
 20
-9.731391666666669
 30
0.0
 10
8.579672005481472
 20
-9.763030555555561
 30
0.0
 10
8.616478948996093
 20
-9.795758333333323
 30
0.0
 10
8.659403947911716
 20
-9.818768055555564
 30
0.0
 10
8.752394223340364
 20
-9.868597222222231
 30
0.0
 10
8.866171998243873
 20
-9.860708333333326
 30
0.0
 10
8.988480328487437
 20
-9.795915277777768
 30
0.0
 10
9.00859722222223
 20
-9.785186111111114
 30
0.0
 10
9.018331716622216
 20
-9.765880555555567
 30
0.0
 10
9.013895605623171
 20
-9.745572222222235
 30
0.0
 10
9.010740050147332
 20
-9.731034722222223
 30
0.0
 10
9.00039560596421
 20
-9.713515277777788
 30
0.0
 10
8.969087273421792
 20
-9.712487500000002
 30
0.0
 10
8.969087273421792
 20
-9.712487500000002
 30
0.0
 10
8.966891440143929
 20
-9.71240833333334
 30
0.0
 10
8.966891440143929
 20
-9.71240833333334
 30
0.0
 10
8.90691783054788
 20
-9.710255555555552
 30
0.0
 10
8.848677554241375
 20
-9.683533333333344
 30
0.0
 10
8.802876166509526
 20
-9.637190277777764
 30
0.0
 10
8.779047000444836
 20
-9.613065277777777
 30
0.0
 10
8.76060394535519
 20
-9.583736111111117
 30
0.0
 10
8.74277200136122
 20
-9.555365277777783
 30
0.0
 10
8.729044223930234
 20
-9.533515277777774
 30
0.0
 10
8.714976168730066
 20
-9.511133333333342
 30
0.0
 10
8.69771922472157
 20
-9.49004027777778
 30
0.0
 10
8.713163668775854
 20
-9.49102500000001
 30
0.0
 10
8.730333333333343
 20
-9.489273611111104
 30
0.0
 10
8.745560890179654
 20
-9.487704166666667
 30
0.0
 10
8.753631723309102
 20
-9.486884722222232
 30
0.0
 10
8.76089977868105
 20
-9.48613611111111
 30
0.0
 10
8.766513888888893
 20
-9.486013888888893
 30
0.0
 10
8.875592831339215
 20
-9.483608333333324
 30
0.0
 10
8.98155949532894
 20
-9.453145833333338
 30
0.0
 10
9.084031714962494
 20
-9.42369583333334
 30
0.0
 10
9.084031714962494
 20
-9.42369583333334
 30
0.0
 10
9.09534560356557
 20
-9.420436111111105
 30
0.0
 10
9.09534560356557
 20
-9.420436111111105
 30
0.0
 10
9.105098381096973
 20
-9.417629166666655
 30
0.0
 10
9.114903936404819
 20
-9.414683333333338
 30
0.0
 10
9.12474421393401
 20
-9.411711111111117
 30
0.0
 10
9.16530810179817
 20
-9.399483333333338
 30
0.0
 10
9.207266434071546
 20
-9.386827777777777
 30
0.0
 10
9.248972222222214
 20
-9.384795833333328
 30
0.0
 10
9.295784487390948
 20
-9.382626388888891
 30
0.0
 10
9.342841430646633
 20
-9.391245833333338
 30
0.0
 10
9.388338651719499
 20
-9.39962222222223
 30
0.0
 10
9.421431706439053
 20
-9.405723611111119
 30
0.0
 10
9.455667816685288
 20
-9.412059722222212
 30
0.0
 10
9.49005253803888
 20
-9.414265277777783
 30
0.0
 10
9.61478447933233
 20
-9.422483333333325
 30
0.0
 10
9.738847222222223
 20
-9.375356944444446
 30
0.0
 10
9.830180555555545
 20
-9.285234722222235
 30
0.0
 10
9.8480386401065
 20
-9.267594444444436
 30
0.0
 10
9.852266417777475
 20
-9.249481944444444
 30
0.0
 10
9.842722222222214
 20
-9.231397222222212
 30
0.0
  0
HATCH
  5
42
330
1F
100
AcDbEntity
  8
Layer 1
 62
    35
420
 10579544
100
AcDbHatch
 10
0.0
 20
0.0
 30
0.0
210
0.0
220
0.0
230
1.0
  2
SOLID
 70
     1
 71
     0
 91
        1
 92
        1
 93
        1
 72
     4
 94
        3
 73
     0
 74
     1
 95
      536
 96
      532
 40
0.0
 40
0.0
 40
0.0
 40
0.0
 40
1.0
 40
1.0
 40
1.0
 40
2.0
 40
2.0
 40
2.0
 40
3.0
 40
3.0
 40
3.0
 40
4.0
 40
4.0
 40
4.0
 40
5.0
 40
5.0
 40
5.0
 40
6.0
 40
6.0
 40
6.0
 40
7.0
 40
7.0
 40
7.0
 40
8.0
 40
8.0
 40
8.0
 40
9.0
 40
9.0
 40
9.0
 40
10.0
 40
10.0
 40
10.0
 40
11.0
 40
11.0
 40
11.0
 40
12.0
 40
12.0
 40
12.0
 40
13.0
 40
13.0
 40
13.0
 40
14.0
 40
14.0
 40
14.0
 40
15.0
 40
15.0
 40
15.0
 40
16.0
 40
16.0
 40
16.0
 40
17.0
 40
17.0
 40
17.0
 40
18.0
 40
18.0
 40
18.0
 40
19.0
 40
19.0
 40
19.0
 40
20.0
 40
20.0
 40
20.0
 40
21.0
 40
21.0
 40
21.0
 40
22.0
 40
22.0
 40
22.0
 40
23.0
 40
23.0
 40
23.0
 40
24.0
 40
24.0
 40
24.0
 40
25.0
 40
25.0
 40
25.0
 40
26.0
 40
26.0
 40
26.0
 40
27.0
 40
27.0
 40
27.0
 40
28.0
 40
28.0
 40
28.0
 40
29.0
 40
29.0
 40
29.0
 40
30.0
 40
30.0
 40
30.0
 40
31.0
 40
31.0
 40
31.0
 40
32.0
 40
32.0
 40
32.0
 40
33.0
 40
33.0
 40
33.0
 40
34.0
 40
34.0
 40
34.0
 40
35.0
 40
35.0
 40
35.0
 40
36.0
 40
36.0
 40
36.0
 40
37.0
 40
37.0
 40
37.0
 40
38.0
 40
38.0
 40
38.0
 40
39.0
 40
39.0
 40
39.0
 40
40.0
 40
40.0
 40
40.0
 40
41.0
 40
41.0
 40
41.0
 40
42.0
 40
42.0
 40
42.0
 40
43.0
 40
43.0
 40
43.0
 40
44.0
 40
44.0
 40
44.0
 40
45.0
 40
45.0
 40
45.0
 40
46.0
 40
46.0
 40
46.0
 40
47.0
 40
47.0
 40
47.0
 40
48.0
 40
48.0
 40
48.0
 40
49.0
 40
49.0
 40
49.0
 40
50.0
 40
50.0
 40
50.0
 40
51.0
 40
51.0
 40
51.0
 40
52.0
 40
52.0
 40
52.0
 40
53.0
 40
53.0
 40
53.0
 40
54.0
 40
54.0
 40
54.0
 40
55.0
 40
55.0
 40
55.0
 40
56.0
 40
56.0
 40
56.0
 40
57.0
 40
57.0
 40
57.0
 40
58.0
 40
58.0
 40
58.0
 40
59.0
 40
59.0
 40
59.0
 40
60.0
 40
60.0
 40
60.0
 40
61.0
 40
61.0
 40
61.0
 40
62.0
 40
62.0
 40
62.0
 40
63.0
 40
63.0
 40
63.0
 40
64.0
 40
64.0
 40
64.0
 40
65.0
 40
65.0
 40
65.0
 40
66.0
 40
66.0
 40
66.0
 40
67.0
 40
67.0
 40
67.0
 40
68.0
 40
68.0
 40
68.0
 40
69.0
 40
69.0
 40
69.0
 40
70.0
 40
70.0
 40
70.0
 40
71.0
 40
71.0
 40
71.0
 40
72.0
 40
72.0
 40
72.0
 40
73.0
 40
73.0
 40
73.0
 40
74.0
 40
74.0
 40
74.0
 40
75.0
 40
75.0
 40
75.0
 40
76.0
 40
76.0
 40
76.0
 40
77.0
 40
77.0
 40
77.0
 40
78.0
 40
78.0
 40
78.0
 40
79.0
 40
79.0
 40
79.0
 40
80.0
 40
80.0
 40
80.0
 40
81.0
 40
81.0
 40
81.0
 40
82.0
 40
82.0
 40
82.0
 40
83.0
 40
83.0
 40
83.0
 40
84.0
 40
84.0
 40
84.0
 40
85.0
 40
85.0
 40
85.0
 40
86.0
 40
86.0
 40
86.0
 40
87.0
 40
87.0
 40
87.0
 40
88.0
 40
88.0
 40
88.0
 40
89.0
 40
89.0
 40
89.0
 40
90.0
 40
90.0
 40
90.0
 40
91.0
 40
91.0
 40
91.0
 40
92.0
 40
92.0
 40
92.0
 40
93.0
 40
93.0
 40
93.0
 40
94.0
 40
94.0
 40
94.0
 40
95.0
 40
95.0
 40
95.0
 40
96.0
 40
96.0
 40
96.0
 40
97.0
 40
97.0
 40
97.0
 40
98.0
 40
98.0
 40
98.0
 40
99.0
 40
99.0
 40
99.0
 40
100.0
 40
100.0
 40
100.0
 40
101.0
 40
101.0
 40
101.0
 40
102.0
 40
102.0
 40
102.0
 40
103.0
 40
103.0
 40
103.0
 40
104.0
 40
104.0
 40
104.0
 40
105.0
 40
105.0
 40
105.0
 40
106.0
 40
106.0
 40
106.0
 40
107.0
 40
107.0
 40
107.0
 40
108.0
 40
108.0
 40
108.0
 40
109.0
 40
109.0
 40
109.0
 40
110.0
 40
110.0
 40
110.0
 40
111.0
 40
111.0
 40
111.0
 40
112.0
 40
112.0
 40
112.0
 40
113.0
 40
113.0
 40
113.0
 40
114.0
 40
114.0
 40
114.0
 40
115.0
 40
115.0
 40
115.0
 40
116.0
 40
116.0
 40
116.0
 40
117.0
 40
117.0
 40
117.0
 40
118.0
 40
118.0
 40
118.0
 40
119.0
 40
119.0
 40
119.0
 40
120.0
 40
120.0
 40
120.0
 40
121.0
 40
121.0
 40
121.0
 40
122.0
 40
122.0
 40
122.0
 40
123.0
 40
123.0
 40
123.0
 40
124.0
 40
124.0
 40
124.0
 40
125.0
 40
125.0
 40
125.0
 40
126.0
 40
126.0
 40
126.0
 40
127.0
 40
127.0
 40
127.0
 40
128.0
 40
128.0
 40
128.0
 40
129.0
 40
129.0
 40
129.0
 40
130.0
 40
130.0
 40
130.0
 40
131.0
 40
131.0
 40
131.0
 40
132.0
 40
132.0
 40
132.0
 40
133.0
 40
133.0
 40
133.0
 40
134.0
 40
134.0
 40
134.0
 40
135.0
 40
135.0
 40
135.0
 40
136.0
 40
136.0
 40
136.0
 40
137.0
 40
137.0
 40
137.0
 40
138.0
 40
138.0
 40
138.0
 40
139.0
 40
139.0
 40
139.0
 40
140.0
 40
140.0
 40
140.0
 40
141.0
 40
141.0
 40
141.0
 40
142.0
 40
142.0
 40
142.0
 40
143.0
 40
143.0
 40
143.0
 40
144.0
 40
144.0
 40
144.0
 40
145.0
 40
145.0
 40
145.0
 40
146.0
 40
146.0
 40
146.0
 40
147.0
 40
147.0
 40
147.0
 40
148.0
 40
148.0
 40
148.0
 40
149.0
 40
149.0
 40
149.0
 40
150.0
 40
150.0
 40
150.0
 40
151.0
 40
151.0
 40
151.0
 40
152.0
 40
152.0
 40
152.0
 40
153.0
 40
153.0
 40
153.0
 40
154.0
 40
154.0
 40
154.0
 40
155.0
 40
155.0
 40
155.0
 40
156.0
 40
156.0
 40
156.0
 40
157.0
 40
157.0
 40
157.0
 40
158.0
 40
158.0
 40
158.0
 40
159.0
 40
159.0
 40
159.0
 40
160.0
 40
160.0
 40
160.0
 40
161.0
 40
161.0
 40
161.0
 40
162.0
 40
162.0
 40
162.0
 40
163.0
 40
163.0
 40
163.0
 40
164.0
 40
164.0
 40
164.0
 40
165.0
 40
165.0
 40
165.0
 40
166.0
 40
166.0
 40
166.0
 40
167.0
 40
167.0
 40
167.0
 40
168.0
 40
168.0
 40
168.0
 40
169.0
 40
169.0
 40
169.0
 40
170.0
 40
170.0
 40
170.0
 40
171.0
 40
171.0
 40
171.0
 40
172.0
 40
172.0
 40
172.0
 40
173.0
 40
173.0
 40
173.0
 40
174.0
 40
174.0
 40
174.0
 40
175.0
 40
175.0
 40
175.0
 40
176.0
 40
176.0
 40
176.0
 40
177.0
 40
177.0
 40
177.0
 40
177.0
 10
9.842722222222214
 20
-9.231397222222212
 10
9.824898362913295
 20
-9.197640277777786
 10
9.774494197519944
 20
-9.20947638888889
 10
9.744398364946896
 20
-9.216545833333333
 10
9.740667809485583
 20
-9.217416666666672
 10
9.737260865127205
 20
-9.218244444444457
 10
9.734253920758722
 20
-9.218863888888892
 10
9.684546977569982
 20
-9.229331944444437
 10
9.633594201079378
 20
-9.224606944444455
 10
9.582790035696133
 20
-9.204883333333328
 10
9.52457614827785
 20
-9.182240277777787
 10
9.474128927330032
 20
-9.143175000000003
 10
9.425337261895947
 20
-9.105383333333343
 10
9.371010874379458
 20
-9.063311111111108
 10
9.314845598020534
 20
-9.019802777777764
 10
9.246783099739938
 20
-8.997480555555562
 10
9.13601504698262
 20
-8.961101388888892
 10
9.018392827731784
 20
-8.967916666666673
 10
8.887219219934398
 20
-8.979726388888896
 10
8.842149776628503
 20
-8.983770833333336
 10
8.796252555565742
 20
-8.982663888888888
 10
8.750276167838313
 20
-8.976431944444432
 10
8.784188666981612
 20
-8.966730555555563
 10
8.820002554965766
 20
-8.960891666666662
 10
8.85494444444445
 20
-8.955200000000003
 10
8.923285885689943
 20
-8.944044444444444
 10
8.993953939460273
 20
-8.932512500000003
 10
9.05238449353975
 20
-8.892315277777772
 10
9.12501388888889
 20
-8.84232916666666
 10
9.173038657158434
 20
-8.758020833333324
 10
9.195098378823381
 20
-8.641708333333327
 10
9.199361111111102
 20
-8.619220833333328
 10
9.190348378943376
 20
-8.59954027777778
 10
9.171583333333324
 20
-8.590354166666657
 10
9.158317824196981
 20
-8.583895833333347
 10
9.138209491371628
 20
-8.581027777777788
 10
9.117701158556377
 20
-8.604891666666667
 10
9.117701158556377
 20
-8.604891666666667
 10
9.11625532525957
 20
-8.606644444444454
 10
9.11625532525957
 20
-8.606644444444454
 10
9.077940048449717
 20
-8.6535263888889
 10
9.019935883248358
 20
-8.680902777777773
 10
8.948491440608752
 20
-8.685783333333323
 10
8.917934496936242
 20
-8.687901388888879
 10
8.886574775506233
 20
-8.684938888888887
 10
8.85626922071626
 20
-8.682105555555557
 10
8.828378943643049
 20
-8.679491666666662
 10
8.799712277700564
 20
-8.67675416666667
 10
8.771098389534522
 20
-8.6779138888889
 10
8.777102556049512
 20
-8.670670833333336
 10
8.784441444753003
 20
-8.661136111111116
 10
8.79368055555556
 20
-8.64867222222223
 10
8.797141444432174
 20
-8.644000000000005
 10
8.799895611029266
 20
-8.640277777777783
 10
8.80140277777779
 20
-8.638456944444442
 10
8.873884498049039
 20
-8.551490277777777
 10
8.918081719154744
 20
-8.446011111111122
 10
8.960833333333337
 20
-8.344008333333324
 10
8.960833333333337
 20
-8.344008333333324
 10
8.962472222222232
 20
-8.340104166666656
 10
8.962472222222232
 20
-8.340104166666656
 10
8.967780329010363
 20
-8.327422222222214
 10
8.972948384435362
 20
-8.314401388888882
 10
8.978152777777773
 20
-8.301205555555548
 10
8.99358727280287
 20
-8.262201388888899
 10
9.009537272399939
 20
-8.2218736111111
 10
9.031144216298545
 20
-8.187558333333325
 10
9.059566437802761
 20
-8.142384722222232
 10
9.100853936759751
 20
-8.107120833333333
 10
9.140771991306893
 20
-8.073031944444438
 10
9.165038657360531
 20
-8.05230555555555
 10
9.190121990060208
 20
-8.030881944444445
 10
9.212452545051645
 20
-8.00722777777777
 10
9.294451154091297
 20
-7.920399999999997
 10
9.334919208624543
 20
-7.792573611111114
 10
9.320667820095675
 20
-7.665051388888893
 10
9.319640042343861
 20
-7.655777777777782
 10
9.316484486868022
 20
-7.627512499999991
 10
9.28638032096185
 20
-7.621847222222211
 10
9.256633099491106
 20
-7.616320833333323
 10
9.238251155511028
 20
-7.646329166666671
 10
9.22697222222223
 20
-7.664859722222218
 10
9.220933100392964
 20
-7.674752777777788
 10
9.215580322750409
 20
-7.684688888888886
 10
9.21028171177315
 20
-7.694545833333323
 10
9.199962267589399
 20
-7.713738888888884
 10
9.190209490057997
 20
-7.73186666666667
 10
9.17593310152976
 20
-7.748636111111106
 10
9.114912269737943
 20
-7.820133333333337
 10
9.029749999999996
 20
-7.845208333333327
 10
8.932873385447742
 20
-7.868454166666677
 10
8.844703943230645
 20
-7.889633333333323
 10
8.75289005666117
 20
-7.918055555555561
 10
8.678727558534673
 20
-7.982222222222212
 10
8.601338671600791
 20
-8.049177777777787
 10
8.544258117487212
 20
-8.135655555555559
 10
8.493898396537183
 20
-8.211954166666676
 10
8.4688845082802
 20
-8.249886111111108
 10
8.439258120139735
 20
-8.285229166666669
 10
8.40558034321273
 20
-8.317337499999995
 10
8.409276176452698
 20
-8.305240277777784
 10
8.414662287427745
 20
-8.293779166666656
 10
8.420355342839482
 20
-8.281672222222216
 10
8.431474787003026
 20
-8.25805277777777
 10
8.445037286660408
 20
-8.23503472222223
 10
8.458145619662597
 20
-8.212730555555556
 10
8.47295395262184
 20
-8.187576388888878
 10
8.488267841123868
 20
-8.161551388888887
 10
8.500375
 20
-8.134313888888881
 10
8.556940061611284
 20
-8.012536111111103
 10
8.53041784005907
 20
-7.886756944444439
 10
8.42151388888889
 20
-7.760463888888883
 10
8.406644232074743
 20
-7.743180555555555
 10
8.385656732604932
 20
-7.73796805555556
 10
8.366785899748315
 20
-7.746849999999995
 10
8.338695622680158
 20
-7.760080555555557
 10
8.342870622574688
 20
-7.78749166666666
 10
8.345928955830761
 20
-7.807512500000004
 10
8.346687289144938
 20
-7.812436111111108
 10
8.347445622459114
 20
-7.817344444444441
 10
8.347741455784973
 20
-7.821972222222231
 10
8.35135951124913
 20
-7.876863888888894
 10
8.336977567168004
 20
-7.930911111111122
 10
8.306158123502124
 20
-7.97829999999999
 10
8.288081735069884
 20
-8.006120833333322
 10
8.264270624560291
 20
-8.030184722222227
 10
8.241244236253099
 20
-8.053456944444456
 10
8.220909514544575
 20
-8.073991666666668
 10
8.200034515071922
 20
-8.095101388888882
 10
8.182419237739143
 20
-8.119252777777774
 10
8.171342849130067
 20
-8.041977777777776
 10
8.147652777777768
 20
-7.964084722222221
 10
8.111855350632847
 20
-7.887384722222223
 10
8.094642851067672
 20
-7.85051666666666
 10
8.073202573831521
 20
-7.815426388888883
 10
8.052448407689148
 20
-7.781486111111108
 10
8.029917852702763
 20
-7.744636111111125
 10
8.006620631069078
 20
-7.706504166666668
 10
7.989101187067212
 20
-7.666524999999991
 10
7.971609520842422
 20
-7.626579166666665
 10
7.958762298944748
 20
-7.582948611111103
 10
7.951928965784039
 20
-7.540318055555543
 10
7.94708333333334
 20
-7.509961111111124
 10
7.946124999999988
 20
-7.479168055555546
 10
7.945208333333337
 20
-7.449386111111102
 10
7.94388313265396
 20
-7.406530555555567
 10
7.942506743799842
 20
-7.362227777777788
 10
7.929667855235291
 20
-7.317584722222212
 10
7.897201189388801
 20
-7.20466249999999
 10
7.830394246632042
 20
-7.113354166666668
 10
7.736498415670717
 20
-7.053555555555552
 10
7.715397027314894
 20
-7.039940277777784
 10
7.696737305564056
 20
-7.039836111111121
 10
7.68109147262597
 20
-7.053162499999997
 10
7.652634528900408
 20
-7.077409722222228
 10
7.67443313946084
 20
-7.123247222222213
 10
7.68745397246524
 20
-7.150623611111111
 10
7.688919250206001
 20
-7.153699999999995
 10
7.690252583505652
 20
-7.156506944444446
 10
7.691384527921501
 20
-7.159000000000004
 10
7.71204980517723
 20
-7.204783333333327
 10
7.719798416092594
 20
-7.250036111111108
 10
7.715083333333344
 20
-7.297320833333337
 10
7.707805555555549
 20
-7.370272222222233
 10
7.674781750563144
 20
-7.441140277777777
 10
7.644398417997358
 20
-7.501863888888894
 10
7.597219252522538
 20
-7.596169444444437
 10
7.576972222222214
 20
-7.689891666666654
 10
7.585870641698117
 20
-7.772893055555565
 10
7.593916666666675
 20
-7.848031944444452
 10
7.609465085546516
 20
-7.92270138888888
 10
7.632073418308714
 20
-7.994833333333341
 10
7.650090084520242
 20
-8.052262499999996
 10
7.668637306273922
 20
-8.111355555555544
 10
7.675434528324431
 20
-8.176150000000007
 10
7.670353972897222
 20
-8.1676861111111
 10
7.665359528578947
 20
-8.158918055555558
 10
7.660513888888898
 20
-8.149906944444435
 10
7.646106751287536
 20
-8.123148611111118
 10
7.635202584896332
 20
-8.094229166666663
 10
7.624656751829408
 20
-8.066269444444439
 10
7.61540952984079
 20
-8.041690277777787
 10
7.604923418994581
 20
-8.013861111111105
 10
7.591676197107012
 20
-7.987259722222234
 10
7.531745643065429
 20
-7.867163888888879
 10
7.416956757076352
 20
-7.809752777777779
 10
7.25030120573087
 20
-7.815836111111113
 10
7.227422039642179
 20
-7.816698611111102
 10
7.210252595631472
 20
-7.829833333333327
 10
7.205510929084589
 20
-7.850072222222226
 10
7.198206762602442
 20
-7.880386111111116
 10
7.221948428669343
 20
-7.893800000000005
 10
7.23929287267563
 20
-7.903569444444454
 10
7.243486111111123
 20
-7.905958333333324
 10
7.247651205797815
 20
-7.908294444444437
 10
7.251383150147982
 20
-7.910820833333345
 10
7.272309538508225
 20
-7.925062499999992
 10
7.291127593588397
 20
-7.942661111111116
 10
7.307302593179783
 20
-7.963108333333341
 10
7.346960925511262
 20
-8.01333750000001
 10
7.355292869745224
 20
-8.07173333333334
 10
7.364122036188847
 20
-8.13357222222223
 10
7.368244258306933
 20
-8.162387499999998
 10
7.372462313755932
 20
-8.191961111111116
 10
7.380149813561729
 20
-8.220888888888895
 10
7.366397036131375
 20
-8.213436111111099
 10
7.348808147686819
 20
-8.206280555555546
 10
7.330391481485397
 20
-8.19910694444444
 10
7.324587314965356
 20
-8.19685833333334
 10
7.319697037311117
 20
-8.194958333333336
 10
7.316394259616774
 20
-8.193494444444443
 10
7.287430555555551
 20
-8.180786111111122
 10
7.256681761125239
 20
-8.169673611111117
 10
7.222384539769437
 20
-8.159502777777789
 10
7.170499999999997
 20
-8.144119444444438
 10
7.11619009800769
 20
-8.132169444444445
 10
7.063667877112291
 20
-8.120604166666656
 10
6.976213712654903
 20
-8.101376388888891
 10
6.885795659383499
 20
-8.081477777777788
 10
6.803028994807694
 20
-8.04505416666666
 10
6.761698440296236
 20
-8.026881944444439
 10
6.722869274610477
 20
-8.003741666666656
 10
6.6853303866699
 20
-7.981349999999995
 10
6.606102610893585
 20
-7.934127777777777
 10
6.524173446296622
 20
-7.885266666666666
 10
6.4191567822829
 20
-7.885266666666666
 10
6.369729005753773
 20
-7.885266666666666
 10
6.319673451462727
 20
-7.893800000000005
 10
6.270341508264512
 20
-7.910663888888898
 10
6.246626231085833
 20
-7.918848611111116
 10
6.234963731380453
 20
-7.933334722222222
 10
6.235679009140161
 20
-7.953720833333338
 10
6.237012342439812
 20
-7.991809722222215
 10
6.28220400796484
 20
-8.001152777777785
 10
6.31519289602036
 20
-8.007959722222216
 10
6.323656784695433
 20
-8.009711111111123
 10
6.33164011782709
 20
-8.011368055555547
 10
6.337113728799927
 20
-8.013198611111116
 10
6.447988725998989
 20
-8.050144444444438
 10
6.50164428019909
 20
-8.150977777777774
 10
6.553537334443718
 20
-8.248438888888888
 10
6.563760945296558
 20
-8.267658333333328
 10
6.57395955615003
 20
-8.286806944444454
 10
6.584548444771421
 20
-8.305449999999988
 10
6.676780386885891
 20
-8.46787916666666
 10
6.834127605133189
 20
-8.537570833333323
 10
6.987378990150622
 20
-8.595043055555555
 10
7.025658155850275
 20
-8.60938888888889
 10
7.060085932758334
 20
-8.62860833333333
 10
7.094452598556826
 20
-8.649795833333327
 10
7.092195654169396
 20
-8.649543055555544
 10
7.089955376448213
 20
-8.64924722222223
 10
7.087724820949006
 20
-8.648994444444446
 10
7.087724820949006
 20
-8.648994444444446
 10
7.077640098981545
 20
-8.647712499999999
 10
7.077640098981545
 20
-8.647712499999999
 10
7.044702599813617
 20
-8.643425000000004
 10
7.012472222222211
 20
-8.634412500000002
 10
6.981303990304089
 20
-8.625687499999987
 10
6.962398435226127
 20
-8.620406944444438
 10
6.942858157941979
 20
-8.614933333333333
 10
6.923098436218929
 20
-8.610452777777784
 10
6.78541510636377
 20
-8.579668055555556
 10
6.661003998395548
 20
-8.633454166666676
 10
6.563316500863341
 20
-8.766065277777772
 10
6.549772056761058
 20
-8.78445694444445
 10
6.549335945660964
 20
-8.80607222222223
 10
6.562183167558638
 20
-8.822456944444436
 10
6.571405389547888
 20
-8.834268055555563
 10
6.588417889118116
 20
-8.845676388888881
 10
6.616780388401619
 20
-8.832881944444454
 10
6.684109553367407
 20
-8.804415277777782
 10
6.758142884830502
 20
-8.806855555555558
 10
6.825210938691775
 20
-8.839776388888897
 10
6.846024827054862
 20
-8.850026388888889
 10
6.866253993210496
 20
-8.862916666666655
 10
6.885830381604844
 20
-8.875380555555568
 10
6.906503992193696
 20
-8.888549999999997
 10
6.927631769437741
 20
-8.90200694444444
 10
6.950117879980805
 20
-8.91284166666666
 10
6.886605381585266
 20
-8.930787500000001
 10
6.804598439212491
 20
-8.999755555555566
 10
6.760635940323077
 20
-9.036727777777767
 10
6.760635940323077
 20
-9.036727777777767
 10
6.74913888888889
 20
-9.046359722222228
 10
6.74913888888889
 20
-9.046359722222228
 10
6.723967885693835
 20
-9.06726805555556
 10
6.699963719633565
 20
-9.088422222222233
 10
6.676762331330792
 20
-9.108869444444457
 10
6.582448444824472
 20
-9.191966666666657
 10
6.49336372485272
 20
-9.270461111111116
 10
6.358572061591176
 20
-9.30059305555556
 10
6.252752619819956
 20
-9.32423055555556
 10
6.163111111111119
 20
-9.379061111111115
 10
6.099327623695798
 20
-9.459212499999996
 10
6.068491513363672
 20
-9.49790277777778
 10
6.04400818064884
 20
-9.542301388888896
 10
6.026549847756542
 20
-9.591213888888888
 10
6.023377625614456
 20
-9.600077777777768
 10
6.013747070302188
 20
-9.62709722222222
 10
6.029879014339106
 20
-9.640354166666661
 10
6.053151235973423
 20
-9.659441666666654
 10
6.109585956769984
 20
-9.632422222222228
 10
6.19307623243862
 20
-9.58256805555556
 10
6.202829009970022
 20
-9.576737500000009
 10
6.212895676382383
 20
-9.570713888888879
 10
6.215144287436689
 20
-9.56987777777777
 10
6.300088729735257
 20
-9.542109722222222
 10
6.384720672041718
 20
-9.558686111111102
 10
6.474335947555623
 20
-9.57626666666667
 10
6.557251223238786
 20
-9.592522222222215
 10
6.643015109961096
 20
-9.609343055555554
 10
6.727802607819184
 20
-9.586830555555554
 10
6.809095661321104
 20
-9.565241666666653
 10
6.887495659340553
 20
-9.532102777777784
 10
6.960812324155086
 20
-9.488305555555547
 10
6.971080379451248
 20
-9.482169444444454
 10
6.981120656975387
 20
-9.47585138888889
 10
6.991117878945058
 20
-9.469523611111121
 10
7.01314287838866
 20
-9.45561249999999
 10
7.033947044529769
 20
-9.442486111111116
 10
7.056983155058939
 20
-9.431504166666677
 10
7.066048432607708
 20
-9.427208333333333
 10
7.081841487764298
 20
-9.422927777777785
 10
7.098576209563766
 20
-9.418404166666656
 10
7.106438709365142
 20
-9.416269444444449
 10
7.114359542498378
 20
-9.414134722222217
 10
7.122012320082831
 20
-9.411868055555562
 10
7.099526209539767
 20
-9.431740277777786
 10
7.075530376812619
 20
-9.450374999999996
 10
7.052041666666658
 20
-9.468634722222228
 10
7.012288711743571
 20
-9.49948888888889
 10
6.971184546115283
 20
-9.531431944444446
 10
6.936844269205014
 20
-9.569390277777782
 10
6.860719271128093
 20
-9.653549999999996
 10
6.841440104948459
 20
-9.760266666666666
 10
6.877881770694532
 20
-9.895615277777779
 10
6.883851214988176
 20
-9.918024999999993
 10
6.900228992352216
 20
-9.931516666666665
 10
6.921765102919279
 20
-9.931716666666665
 10
6.93572899145541
 20
-9.931716666666665
 10
6.953717879889862
 20
-9.92603472222221
 10
6.962172046342958
 20
-9.899981944444436
 10
6.962172046342958
 20
-9.899981944444436
 10
6.964116490738282
 20
-9.893350000000003
 10
6.964116490738282
 20
-9.893350000000003
 10
6.982427601386815
 20
-9.828869444444434
 10
7.024394266993315
 20
-9.77829166666667
 10
7.088805555555559
 20
-9.74302777777777
 10
7.114935931372706
 20
-9.72873333333334
 10
7.143313708433602
 20
-9.718379166666661
 10
7.170760929962448
 20
-9.708363888888899
 10
7.196838707081446
 20
-9.698855555555559
 10
7.223622039738175
 20
-9.68907638888888
 10
7.249116483538576
 20
-9.675766666666656
 10
7.22277620642621
 20
-9.758358333333337
 10
7.210609540066899
 20
-9.846101388888883
 10
7.21289287334255
 20
-9.936990277777769
 10
7.213642873323604
 20
-9.9664763888889
 10
7.215053984399067
 20
-9.99515972222222
 10
7.216423428808916
 20
-10.02325138888889
 10
7.222794261981309
 20
-10.15317916666666
 10
7.228294261842367
 20
-10.26543055555557
 10
7.168137318917616
 20
-10.38901250000001
 10
7.098453987344631
 20
-10.532075
 10
7.106019264931294
 20
-10.69688333333334
 10
7.188383151739496
 20
-10.82989583333334
 10
7.192767873850951
 20
-10.83695555555556
 10
7.204385929113009
 20
-10.8556861111111
 10
7.22696926187584
 20
-10.8556861111111
 10
7.230638888888885
 20
-10.8556861111111
 10
7.23429981724621
 20
-10.85517222222221
 10
7.238212317147372
 20
-10.85410833333334
 10
7.275316482876709
 20
-10.84389305555555
 10
7.27737342726919
 20
-10.7847736111111
 10
7.279037316116046
 20
-10.7372638888889
 10
7.279647038322865
 20
-10.71997083333334
 10
7.280231760530316
 20
-10.70362916666666
 10
7.28252342713909
 20
-10.69458194444443
 10
7.305708333333339
 20
-10.60323055555556
 10
7.376969258086521
 20
-10.53654583333332
 10
7.443611111111117
 20
-10.48334444444443
 10
7.50503175485139
 20
-10.4343263888889
 10
7.581120641818112
 20
-10.36649027777778
 10
7.624638888888891
 20
-10.27615972222222
 10
7.662859528642103
 20
-10.19684444444445
 10
7.679801194880787
 20
-10.10978194444445
 10
7.691333333333331
 20
-10.03505277777779
 10
7.693738694528697
 20
-10.01942500000001
 10
7.695534527816663
 20
-10.00358749999999
 10
7.697328972215776
 20
-9.98773333333333
 10
7.699874999999994
 20
-9.965159722222223
 10
7.702516472084729
 20
-9.941836111111115
 10
7.707030360859587
 20
-9.919619444444454
 10
7.709113694140291
 20
-9.909387499999992
 10
7.715912305079655
 20
-9.894230555555547
 10
7.723119249342036
 20
-9.878201388888884
 10
7.725559527058167
 20
-9.87276250000001
 10
7.728026193662521
 20
-9.867280555555554
 10
7.730353971381494
 20
-9.861850000000004
 10
7.730963693588314
 20
-9.891833333333325
 10
7.729099804746511
 20
-9.922347222222216
 10
7.727269249237199
 20
-9.952251388888877
 10
7.722953971568434
 20
-10.02267638888889
 10
7.718509527236265
 20
-10.09547083333334
 10
7.745667859883522
 20
-10.1617638888889
 10
7.779180555555563
 20
-10.24357083333333
 10
7.878976189849204
 20
-10.34397777777778
 10
7.96858452091884
 20
-10.3572861111111
 10
7.991359520343495
 20
-10.36069444444444
 10
8.003185908933624
 20
-10.35269305555557
 10
8.009103964339676
 20
-10.34537222222222
 10
8.019276186304927
 20
-10.33279444444444
 10
8.020297019612473
 20
-10.31175555555557
 10
8.0118150753823
 20
-10.28909305555557
 10
8.006106742193172
 20
-10.27381527777778
 10
7.999324797920053
 20
-10.26051388888888
 10
7.992762298085836
 20
-10.24762361111112
 10
7.980394242842723
 20
-10.22337638888889
 10
7.968706743137974
 20
-10.20045277777778
 10
7.967294243173657
 20
-10.16884999999999
 10
7.964784521014836
 20
-10.11306805555556
 10
7.980988687272151
 20
-10.05647638888889
 10
7.996658131320752
 20
-10.00174861111112
 10
8.002759520055507
 20
-9.980447222222235
 10
8.00899999999999
 20
-9.958666666666659
 10
8.014133130879296
 20
-9.936920833333335
 10
8.02564701947732
 20
-9.954422222222219
 10
8.044377574559702
 20
-9.973693055555561
 10
8.064415074053512
 20
-9.99342499999999
 10
8.070830351669226
 20
-9.999736111111106
 10
8.076373407084752
 20
-10.00518333333333
 10
8.080042851436499
 20
-10.0092625
 10
8.134569444444448
 20
-10.06987222222223
 10
8.200784515052975
 20
-10.11811388888888
 10
8.26481090232442
 20
-10.16479722222223
 10
8.298637290358784
 20
-10.18943611111111
 10
8.333595622808994
 20
-10.21493055555556
 10
8.366253955317308
 20
-10.24182777777777
 10
8.430237287034288
 20
-10.29454166666667
 10
8.472831730402707
 20
-10.34373333333332
 10
8.50438311849454
 20
-10.40127499999999
 10
8.60331783821746
 20
-10.58179027777778
 10
8.723030335193268
 20
-10.67472777777779
 10
8.881780331182906
 20
-10.6937625
 10
8.884299775563704
 20
-10.69405000000001
 10
8.887690053255836
 20
-10.69440694444446
 10
8.891542830936285
 20
-10.69440694444446
 10
8.915371997000976
 20
-10.69440694444446
 10
8.926223385615735
 20
-10.68109861111111
 10
8.931120607714243
 20
-10.66994166666667
 10
8.945519218461614
 20
-10.63720555555556
 10
8.900319444444449
 20
-10.59499444444443
 10
8.860435887277667
 20
-10.55776944444445
 10
8.844416666666676
 20
-10.54281250000001
 10
8.82928449917573
 20
-10.52869305555555
 10
8.823376165991652
 20
-10.51962777777779
 10
8.774052556126561
 20
-10.44389583333332
 10
8.768875000000005
 20
-10.34863194444445
 10
8.769284500691457
 20
-10.28356805555556
 10
8.76980811178934
 20
-10.20100277777778
 10
8.76448311192386
 20
-10.09443333333333
 10
8.71820950198172
 20
-10.0024638888889
 10
8.6737150586613
 20
-9.914023611111107
 10
8.603509504879286
 20
-9.840609722222224
 10
8.535622006594268
 20
-9.769619444444439
 10
8.535622006594268
 20
-9.769619444444439
 10
8.53217895112569
 20
-9.766011111111109
 10
8.53217895112569
 20
-9.766011111111109
 10
8.5004970074816
 20
-9.732890277777768
 10
8.472388888888897
 20
-9.695743055555567
 10
8.448349786576728
 20
-9.655249999999997
 10
8.456865064139391
 20
-9.660845833333344
 10
8.465406730590278
 20
-9.666745833333328
 10
8.47390395259784
 20
-9.672925000000001
 10
8.498238674205316
 20
-9.690627777777788
 10
8.521545618060978
 20
-9.711344444444446
 10
8.544084506380488
 20
-9.731391666666669
 10
8.579672005481472
 20
-9.763030555555561
 10
8.616478948996093
 20
-9.795758333333323
 10
8.659403947911716
 20
-9.818768055555564
 10
8.752394223340364
 20
-9.868597222222231
 10
8.866171998243873
 20
-9.860708333333326
 10
8.988480328487437
 20
-9.795915277777768
 10
9.00859722222223
 20
-9.785186111111114
 10
9.018331716622216
 20
-9.765880555555567
 10
9.013895605623171
 20
-9.745572222222235
 10
9.010740050147332
 20
-9.731034722222223
 10
9.00039560596421
 20
-9.713515277777788
 10
8.969087273421792
 20
-9.712487500000002
 10
8.969087273421792
 20
-9.712487500000002
 10
8.966891440143929
 20
-9.71240833333334
 10
8.966891440143929
 20
-9.71240833333334
 10
8.90691783054788
 20
-9.710255555555552
 10
8.848677554241375
 20
-9.683533333333344
 10
8.802876166509526
 20
-9.637190277777764
 10
8.779047000444836
 20
-9.613065277777777
 10
8.76060394535519
 20
-9.583736111111117
 10
8.74277200136122
 20
-9.555365277777783
 10
8.729044223930234
 20
-9.533515277777774
 10
8.714976168730066
 20
-9.511133333333342
 10
8.69771922472157
 20
-9.49004027777778
 10
8.713163668775854
 20
-9.49102500000001
 10
8.730333333333343
 20
-9.489273611111104
 10
8.745560890179654
 20
-9.487704166666667
 10
8.753631723309102
 20
-9.486884722222232
 10
8.76089977868105
 20
-9.48613611111111
 10
8.766513888888893
 20
-9.486013888888893
 10
8.875592831339215
 20
-9.483608333333324
 10
8.98155949532894
 20
-9.453145833333338
 10
9.084031714962494
 20
-9.42369583333334
 10
9.084031714962494
 20
-9.42369583333334
 10
9.09534560356557
 20
-9.420436111111105
 10
9.09534560356557
 20
-9.420436111111105
 10
9.105098381096973
 20
-9.417629166666655
 10
9.114903936404819
 20
-9.414683333333338
 10
9.12474421393401
 20
-9.411711111111117
 10
9.16530810179817
 20
-9.399483333333338
 10
9.207266434071546
 20
-9.386827777777777
 10
9.248972222222214
 20
-9.384795833333328
 10
9.295784487390948
 20
-9.382626388888891
 10
9.342841430646633
 20
-9.391245833333338
 10
9.388338651719499
 20
-9.39962222222223
 10
9.421431706439053
 20
-9.405723611111119
 10
9.455667816685288
 20
-9.412059722222212
 10
9.49005253803888
 20
-9.414265277777783
 10
9.61478447933233
 20
-9.422483333333325
 10
9.738847222222223
 20
-9.375356944444446
 10
9.830180555555545
 20
-9.285234722222235
 10
9.8480386401065
 20
-9.267594444444436
 10
9.852266417777475
 20
-9.249481944444444
 10
9.842722222222214
 20
-9.231397222222212
 97
        0
 97
        0
 75
     2
 76
     1
 98
        0
  0
SPLINE
  5
43
330
1F
100
AcDbEntity
  8
Layer 1
370
     0
100
AcDbSpline
210
0.0
220
0.0
230
1.0
 70
    11
 71
     3
 72
   278
 73
   274
 74
     0
 42
0.0000000001
 43
0.0000000001
 12
1.0
 22
0.0
 32
0.0
 13
1.0
 23
0.0
 33
0.0
 40
0.0
 40
0.0
 40
0.0
 40
0.0
 40
1.0
 40
1.0
 40
1.0
 40
2.0
 40
2.0
 40
2.0
 40
3.0
 40
3.0
 40
3.0
 40
4.0
 40
4.0
 40
4.0
 40
5.0
 40
5.0
 40
5.0
 40
6.0
 40
6.0
 40
6.0
 40
7.0
 40
7.0
 40
7.0
 40
8.0
 40
8.0
 40
8.0
 40
9.0
 40
9.0
 40
9.0
 40
10.0
 40
10.0
 40
10.0
 40
11.0
 40
11.0
 40
11.0
 40
12.0
 40
12.0
 40
12.0
 40
13.0
 40
13.0
 40
13.0
 40
14.0
 40
14.0
 40
14.0
 40
15.0
 40
15.0
 40
15.0
 40
16.0
 40
16.0
 40
16.0
 40
17.0
 40
17.0
 40
17.0
 40
18.0
 40
18.0
 40
18.0
 40
19.0
 40
19.0
 40
19.0
 40
20.0
 40
20.0
 40
20.0
 40
21.0
 40
21.0
 40
21.0
 40
22.0
 40
22.0
 40
22.0
 40
23.0
 40
23.0
 40
23.0
 40
24.0
 40
24.0
 40
24.0
 40
25.0
 40
25.0
 40
25.0
 40
26.0
 40
26.0
 40
26.0
 40
27.0
 40
27.0
 40
27.0
 40
28.0
 40
28.0
 40
28.0
 40
29.0
 40
29.0
 40
29.0
 40
30.0
 40
30.0
 40
30.0
 40
31.0
 40
31.0
 40
31.0
 40
32.0
 40
32.0
 40
32.0
 40
33.0
 40
33.0
 40
33.0
 40
34.0
 40
34.0
 40
34.0
 40
35.0
 40
35.0
 40
35.0
 40
36.0
 40
36.0
 40
36.0
 40
37.0
 40
37.0
 40
37.0
 40
38.0
 40
38.0
 40
38.0
 40
39.0
 40
39.0
 40
39.0
 40
40.0
 40
40.0
 40
40.0
 40
41.0
 40
41.0
 40
41.0
 40
42.0
 40
42.0
 40
42.0
 40
43.0
 40
43.0
 40
43.0
 40
44.0
 40
44.0
 40
44.0
 40
45.0
 40
45.0
 40
45.0
 40
46.0
 40
46.0
 40
46.0
 40
47.0
 40
47.0
 40
47.0
 40
48.0
 40
48.0
 40
48.0
 40
49.0
 40
49.0
 40
49.0
 40
50.0
 40
50.0
 40
50.0
 40
51.0
 40
51.0
 40
51.0
 40
52.0
 40
52.0
 40
52.0
 40
53.0
 40
53.0
 40
53.0
 40
54.0
 40
54.0
 40
54.0
 40
55.0
 40
55.0
 40
55.0
 40
56.0
 40
56.0
 40
56.0
 40
57.0
 40
57.0
 40
57.0
 40
58.0
 40
58.0
 40
58.0
 40
59.0
 40
59.0
 40
59.0
 40
60.0
 40
60.0
 40
60.0
 40
61.0
 40
61.0
 40
61.0
 40
62.0
 40
62.0
 40
62.0
 40
63.0
 40
63.0
 40
63.0
 40
64.0
 40
64.0
 40
64.0
 40
65.0
 40
65.0
 40
65.0
 40
66.0
 40
66.0
 40
66.0
 40
67.0
 40
67.0
 40
67.0
 40
68.0
 40
68.0
 40
68.0
 40
69.0
 40
69.0
 40
69.0
 40
70.0
 40
70.0
 40
70.0
 40
71.0
 40
71.0
 40
71.0
 40
72.0
 40
72.0
 40
72.0
 40
73.0
 40
73.0
 40
73.0
 40
74.0
 40
74.0
 40
74.0
 40
75.0
 40
75.0
 40
75.0
 40
76.0
 40
76.0
 40
76.0
 40
77.0
 40
77.0
 40
77.0
 40
78.0
 40
78.0
 40
78.0
 40
79.0
 40
79.0
 40
79.0
 40
80.0
 40
80.0
 40
80.0
 40
81.0
 40
81.0
 40
81.0
 40
82.0
 40
82.0
 40
82.0
 40
83.0
 40
83.0
 40
83.0
 40
84.0
 40
84.0
 40
84.0
 40
85.0
 40
85.0
 40
85.0
 40
86.0
 40
86.0
 40
86.0
 40
87.0
 40
87.0
 40
87.0
 40
88.0
 40
88.0
 40
88.0
 40
89.0
 40
89.0
 40
89.0
 40
90.0
 40
90.0
 40
90.0
 40
91.0
 40
91.0
 40
91.0
 40
91.0
 10
7.456762311626335
 20
-11.49130833333334
 30
0.0
 10
6.101863734742841
 20
-11.22804583333333
 30
0.0
 10
5.234626256651103
 20
-9.943143055555563
 30
0.0
 10
5.486462361400299
 20
-8.605902777777777
 30
0.0
 10
5.733992910702707
 20
-7.292055555555558
 30
0.0
 10
6.932477602648659
 20
-6.463045833333328
 30
0.0
 10
8.190960904190028
 20
-6.602604166666676
 30
0.0
 10
8.059020629745342
 20
-6.555129166666675
 30
0.0
 10
7.921580355439598
 20
-6.517198611111123
 30
0.0
 10
7.778456747944094
 20
-6.489812499999996
 30
0.0
 10
7.635647029329548
 20
-6.462313888888881
 30
0.0
 10
7.493848421800571
 20
-6.446111111111122
 30
0.0
 10
7.353898425336006
 20
-6.440506944444451
 30
0.0
 10
7.353898425336006
 20
-6.440506944444451
 30
0.0
 10
7.353898425336006
 20
-3.548216666666665
 30
0.0
 10
7.353898425336006
 20
-3.548216666666665
 30
0.0
 10
7.398880368644111
 20
-3.572508333333328
 30
0.0
 10
7.450034534018514
 20
-3.586784722222218
 30
0.0
 10
7.509040088083465
 20
-3.588291666666666
 30
0.0
 10
7.541115087273182
 20
-3.589111111111113
 30
0.0
 10
7.570758142079891
 20
-3.58287916666667
 30
0.0
 10
7.598988696922283
 20
-3.566676388888886
 30
0.0
 10
7.66809722222221
 20
-3.52699305555556
 30
0.0
 10
7.687567861351251
 20
-3.462348611111111
 30
0.0
 10
7.68842202799634
 20
-3.389318055555552
 30
0.0
 10
7.689659527965078
 20
-3.283986111111112
 30
0.0
 10
7.675478972767753
 20
-3.179518055555554
 30
0.0
 10
7.664776195260351
 20
-3.075101388888887
 30
0.0
 10
7.636458333333343
 20
-2.798722222222219
 30
0.0
 10
7.661402777777766
 20
-2.52428611111111
 30
0.0
 10
7.597253974743883
 20
-2.25097361111111
 30
0.0
 10
7.552315086990246
 20
-2.059433333333332
 30
0.0
 10
7.458750000000009
 20
-1.892533333333328
 30
0.0
 10
7.398052590887245
 20
-1.708148611111116
 30
0.0
 10
7.374363702596788
 20
-1.636200000000005
 30
0.0
 10
7.357462314134864
 20
-1.562054166666662
 30
0.0
 10
7.329598425949875
 20
-1.491455555555553
 30
0.0
 10
7.270191483006177
 20
-1.34099305555555
 30
0.0
 10
7.192890096070085
 20
-1.202716666666662
 30
0.0
 10
7.057680555555558
 20
-1.105908333333332
 30
0.0
 10
6.721658163529961
 20
-0.8652722222222261
 30
0.0
 10
6.396434560634689
 20
-0.6313916666666728
 30
0.0
 10
6.118424845435584
 20
-0.321681944444448
 30
0.0
 10
6.011035959259567
 20
-0.2020472222222275
 30
0.0
 10
5.896683184370582
 20
-0.0897784722222165
 30
0.0
 10
5.76391513216903
 20
0.0028450555555537
 30
0.0
 10
5.690815134015692
 20
0.053850277777782
 30
0.0
 10
5.613305555555548
 20
0.0825604166666633
 30
0.0
 10
5.523583333333337
 20
0.0796056944444419
 30
0.0
 10
4.747819444444442
 20
0.0563081944444421
 30
0.0
 10
4.115265173817432
 20
-0.3560999999999947
 30
0.0
 10
3.38889435883377
 20
-0.5548402777777837
 30
0.0
 10
3.186694444444444
 20
-0.6101680555555554
 30
0.0
 10
2.96763888888889
 20
-0.5887097222222211
 30
0.0
 10
2.770547152232312
 20
-0.523166666666662
 30
0.0
 10
2.410320772443507
 20
-0.4033833333333329
 30
0.0
 10
2.072649947640457
 20
-0.1548944444444436
 30
0.0
 10
1.766061066496655
 20
0.0638038888888938
 30
0.0
 10
1.699140234853884
 20
0.111540694444443
 30
0.0
 10
1.633893014279945
 20
0.1181123611111161
 30
0.0
 10
1.559102738391529
 20
0.0867265277777784
 30
0.0
 10
0.9868972222222206
 20
-0.1533166666666703
 30
0.0
 10
0.519186111111114
 20
-0.6971083333333278
 30
0.0
 10
0.3820249999999987
 20
-1.443238888888888
 30
0.0
 10
0.3733180555555514
 20
-1.490662499999998
 30
0.0
 10
0.3767513888888945
 20
-1.541668055555558
 30
0.0
 10
0.4203305555555517
 20
-1.568459722222226
 30
0.0
 10
0.9252152777777761
 20
-1.878770833333331
 30
0.0
 10
1.446702741230992
 20
-2.121019444444439
 30
0.0
 10
1.91207772947463
 20
-2.500709722222218
 30
0.0
 10
2.086734669506869
 20
-2.643195833333329
 30
0.0
 10
2.25320833333333
 20
-2.769488888888885
 30
0.0
 10
2.48444854834866
 20
-2.801215277777778
 30
0.0
 10
2.843777777777783
 20
-2.850529166666661
 30
0.0
 10
3.122624999999996
 20
-2.64556666666667
 30
0.0
 10
3.422023524663523
 20
-2.482293055555551
 30
0.0
 10
3.483931856432921
 20
-2.448536111111113
 30
0.0
 10
3.549344354780462
 20
-2.432211111111112
 30
0.0
 10
3.620299908543529
 20
-2.454470833333339
 30
0.0
 10
3.747934627541427
 20
-2.494494444444449
 30
0.0
 10
3.877148513166099
 20
-2.503419444444439
 30
0.0
 10
4.008915176504059
 20
-2.474944444444443
 30
0.0
 10
4.091140174426881
 20
-2.457173611111115
 30
0.0
 10
4.164990172561273
 20
-2.477368055555556
 30
0.0
 10
4.227726282087537
 20
-2.534797222222222
 30
0.0
 10
4.279098503011988
 20
-2.581844444444439
 30
0.0
 10
4.331672112794978
 20
-2.627638888888883
 30
0.0
 10
4.381797111528714
 20
-2.675984722222223
 30
0.0
 10
4.416616555093545
 20
-2.709584722222227
 30
0.0
 10
4.448237387628069
 20
-2.746479166666669
 30
0.0
 10
4.481105442353307
 20
-2.782075000000001
 30
0.0
 10
4.488635997718625
 20
-2.790233333333339
 30
0.0
 10
4.492270719849026
 20
-2.800063888888884
 30
0.0
 10
4.483127664524444
 20
-2.808937499999994
 30
0.0
 10
4.472816553673813
 20
-2.818916666666673
 30
0.0
 10
4.462697109485007
 20
-2.814148611111111
 30
0.0
 10
4.454120720812776
 20
-2.805319444444447
 30
0.0
 10
4.447792943194852
 20
-2.79880972222222
 30
0.0
 10
4.44194444444444
 20
-2.791827777777775
 30
0.0
 10
4.435956832382746
 20
-2.784986111111114
 30
0.0
 10
4.392691555697941
 20
-2.73552361111111
 30
0.0
 10
4.346366556868209
 20
-2.689111111111111
 30
0.0
 10
4.296879058118368
 20
-2.645872222222225
 30
0.0
 10
4.291648502694948
 20
-2.641295833333338
 30
0.0
 10
4.284126280662753
 20
-2.632980555555554
 30
0.0
 10
4.280413780756539
 20
-2.634270833333327
 30
0.0
 10
4.271584614312916
 20
-2.637338888888886
 30
0.0
 10
4.274042947584146
 20
-2.647963888888891
 30
0.0
 10
4.274442947574041
 20
-2.655651388888891
 30
0.0
 10
4.277590169716758
 20
-2.716279166666671
 30
0.0
 10
4.282636002922623
 20
-2.776644444444451
 30
0.0
 10
4.301411002448327
 20
-2.834927777777782
 30
0.0
 10
4.302952669076047
 20
-2.839738888888885
 30
0.0
 10
4.305036002356752
 20
-2.844454166666663
 30
0.0
 10
4.305924891223185
 20
-2.849369444444442
 30
0.0
 10
4.307686002289807
 20
-2.859122222222216
 30
0.0
 10
4.30613461344011
 20
-2.867943055555555
 30
0.0
 10
4.295048502609057
 20
-2.871176388888885
 30
0.0
 10
4.284692947315104
 20
-2.874209722222228
 30
0.0
 10
4.276822114180606
 20
-2.869877777777775
 30
0.0
 10
4.273092947608145
 20
-2.860204166666664
 30
0.0
 10
4.268019336625204
 20
-2.847043055555559
 30
0.0
 10
4.263122114526697
 20
-2.833681944444442
 30
0.0
 10
4.259852670164845
 20
-2.819997222222228
 30
0.0
 10
4.24569017052262
 20
-2.760798611111113
 30
0.0
 10
4.235161004121943
 20
-2.700302777777779
 30
0.0
 10
4.240599892873433
 20
-2.639919444444445
 30
0.0
 10
4.244138888888894
 20
-2.600523611111107
 30
0.0
 10
4.227534615425713
 20
-2.58019722222222
 30
0.0
 10
4.200576282773404
 20
-2.557388888888883
 30
0.0
 10
4.144062395312176
 20
-2.509573611111111
 30
0.0
 10
4.081945730214708
 20
-2.496255555555561
 30
0.0
 10
4.011206843112833
 20
-2.514001388888889
 30
0.0
 10
3.983805555555553
 20
-2.520886111111117
 30
0.0
 10
3.955991566729911
 20
-2.526777777777776
 30
0.0
 10
3.928023511880888
 20
-2.530604166666661
 30
0.0
 10
3.909945734559793
 20
-2.533070833333328
 30
0.0
 10
3.90770545683861
 20
-2.539563888888893
 30
0.0
 10
3.911854067844918
 20
-2.556098611111111
 30
0.0
 10
3.948147122483634
 20
-2.700249999999995
 30
0.0
 10
4.020906842867791
 20
-2.851156944444445
 30
0.0
 10
4.111456840580305
 20
-2.968802777777783
 30
0.0
 10
4.276081836421528
 20
-3.18268194444445
 30
0.0
 10
4.524379052371235
 20
-3.129462499999994
 30
0.0
 10
4.757258213154879
 20
-3.113373611111115
 30
0.0
 10
4.873162376893561
 20
-3.105372222222222
 30
0.0
 10
4.985535985165876
 20
-3.084549999999997
 30
0.0
 10
5.088226260349479
 20
-3.025918055555558
 30
0.0
 10
5.173851258186409
 20
-2.977022222222217
 30
0.0
 10
5.216820701545354
 20
-2.901543055555559
 30
0.0
 10
5.221622090312949
 20
-2.805625000000001
 30
0.0
 10
5.225370701329362
 20
-2.730563888888885
 30
0.0
 10
5.205663757382758
 20
-2.658579166666666
 30
0.0
 10
5.168490147210731
 20
-2.593472222222216
 30
0.0
 10
5.092401260244009
 20
-2.460249999999999
 30
0.0
 10
4.991784596119133
 20
-2.345322222222219
 30
0.0
 10
4.889069444444443
 20
-2.232618055555551
 30
0.0
 10
4.823742933697556
 20
-2.160938888888887
 30
0.0
 10
4.750966546647153
 20
-2.096493055555559
 30
0.0
 10
4.678598492919769
 20
-2.031891666666664
 30
0.0
 10
4.668226270959571
 20
-2.022634722222228
 30
0.0
 10
4.654324882421861
 20
-2.011104166666668
 30
0.0
 10
4.667319444444451
 20
-1.99644444444444
 30
0.0
 10
4.679365159567068
 20
-1.982863888888889
 30
0.0
 10
4.690835992610624
 20
-1.994997222222221
 30
0.0
 10
4.700815159025195
 20
-2.003722222222223
 30
0.0
 10
4.900104042879623
 20
-2.17789027777778
 30
0.0
 10
5.569184581532782
 20
-2.802931944444443
 30
0.0
 10
5.106180555555562
 20
-3.057538888888883
 30
0.0
 10
5.025105428610711
 20
-3.102120833333338
 30
0.0
 10
4.938313764136587
 20
-3.126037500000002
 30
0.0
 10
4.847895710865183
 20
-3.139973611111107
 30
0.0
 10
4.729838769403108
 20
-3.158163888888895
 30
0.0
 10
4.577947106573547
 20
-3.127415277777775
 30
0.0
 10
4.494841553117415
 20
-3.232362499999997
 30
0.0
 10
4.450895720894247
 20
-3.287838888888889
 30
0.0
 10
4.414324888484771
 20
-3.366465277777782
 30
0.0
 10
4.409852666375526
 20
-3.437881944444446
 30
0.0
 10
4.392744333474385
 20
-3.710933333333337
 30
0.0
 10
4.77325265719527
 20
-3.546420833333336
 30
0.0
 10
4.90224709838104
 20
-3.509962500000003
 30
0.0
 10
5.010576262311083
 20
-3.47934444444445
 30
0.0
 10
5.118872092908632
 20
-3.468048611111107
 30
0.0
 10
5.228866534574384
 20
-3.449674999999994
 30
0.0
 10
5.354295698072443
 20
-3.42871388888889
 30
0.0
 10
5.458494306551276
 20
-3.372870833333334
 30
0.0
 10
5.539133193403055
 20
-3.271774999999997
 30
0.0
 10
5.658069444444436
 20
-3.122638888888888
 30
0.0
 10
5.760288743371752
 20
-2.959765277777781
 30
0.0
 10
5.883766518030218
 20
-2.814350000000003
 30
0.0
 10
5.917323461626943
 20
-2.77482361111111
 30
0.0
 10
5.952283182966008
 20
-2.733395833333336
 30
0.0
 10
5.968154015898411
 20
-2.682251388888883
 30
0.0
 10
5.994833333333341
 20
-2.596295833333329
 30
0.0
 10
5.995905404086241
 20
-2.509241666666665
 30
0.0
 10
5.970141515848202
 20
-2.422641666666664
 30
0.0
 10
5.915030406129315
 20
-2.234726388888892
 30
0.0
 10
5.776648465180693
 20
-2.099858333333334
 30
0.0
 10
5.641701246367524
 20
-1.966077777777779
 30
0.0
 10
5.488372083574277
 20
-1.814090277777773
 30
0.0
 10
5.329341532036172
 20
-1.667829166666668
 30
0.0
 10
5.165083333333339
 20
-1.527730555555561
 30
0.0
 10
5.15773611111111
 20
-1.521472222222226
 30
0.0
 10
5.149594314354746
 20
-1.512581944444441
 30
0.0
 10
5.152923480937312
 20
-1.503500000000006
 30
0.0
 10
5.15798875858713
 20
-1.489686111111117
 30
0.0
 10
5.178845702504683
 20
-1.496197222222223
 30
0.0
 10
5.190620702207221
 20
-1.505026388888887
 30
0.0
 10
5.364152777777766
 20
-1.635250000000004
 30
0.0
 10
5.519766527225632
 20
-1.78520555555556
 30
0.0
 10
5.676137356608706
 20
-1.935074999999996
 30
0.0
 10
5.816027777777789
 20
-2.069124999999998
 30
0.0
 10
5.952534571848546
 20
-2.224294444444442
 30
0.0
 10
6.004585959422507
 20
-2.415415277777773
 30
0.0
 10
6.040208333333339
 20
-2.546205555555553
 30
0.0
 10
6.036206791957031
 20
-2.673805555555557
 30
0.0
 10
5.948665127501853
 20
-2.78719027777778
 30
0.0
 10
5.937787349998871
 20
-2.801258333333332
 30
0.0
 10
5.92846235023444
 20
-2.844941666666664
 30
0.0
 10
5.924392905892798
 20
-2.860665277777773
 30
0.0
 10
5.839995685802629
 20
-3.187362499999999
 30
0.0
 10
5.619998469138005
 20
-3.351761111111109
 30
0.0
 10
5.683859578635848
 20
-3.671354166666661
 30
0.0
 10
5.710487355740952
 20
-3.804629166666662
 30
0.0
 10
5.826094297264919
 20
-3.857263888888888
 30
0.0
 10
5.943401238745941
 20
-3.789270833333338
 30
0.0
 10
6.130879011787632
 20
-3.680593055555555
 30
0.0
 10
6.257259564150545
 20
-3.465843055555549
 30
0.0
 10
6.410772060272493
 20
-3.314727777777774
 30
0.0
 10
6.527659557319667
 20
-3.199661111111115
 30
0.0
 10
6.626445665935231
 20
-3.090668055555561
 30
0.0
 10
6.649873443121173
 20
-2.91962777777778
 30
0.0
 10
6.673476220302695
 20
-2.747272222222225
 30
0.0
 10
6.685426220000813
 20
-2.573983333333331
 30
0.0
 10
6.670844275924739
 20
-2.399909722222219
 30
0.0
 10
6.656620665172946
 20
-2.230133333333331
 30
0.0
 10
6.686541666666673
 20
-2.042559722222222
 30
0.0
 10
6.576477611641975
 20
-1.896918055555552
 30
0.0
 10
6.439979003979109
 20
-1.716306944444442
 30
0.0
 10
6.284270674579298
 20
-1.535880555555561
 30
0.0
 10
6.127192900769639
 20
-1.37290277777778
 30
0.0
 10
6.124559567502829
 20
-1.370156944444451
 30
0.0
 10
6.122852623101506
 20
-1.366538888888891
 30
0.0
 10
6.120716512044358
 20
-1.363323611111115
 30
0.0
 10
6.123933178629764
 20
-1.36451805555555
 30
0.0
 10
6.127845678530926
 20
-1.364944444444442
 30
0.0
 10
6.130277777777766
 20
-1.367044444444446
 30
0.0
 10
6.174048455141524
 20
-1.404776388888889
 30
0.0
 10
6.225429009399098
 20
-1.431629166666666
 30
0.0
 10
6.271545674900759
 20
-1.465934722222225
 30
0.0
 10
6.444215114983207
 20
-1.594415277777772
 30
0.0
 10
6.659444444444438
 20
-1.711155555555554
 30
0.0
 10
6.750308162806201
 20
-1.916955555555559
 30
0.0
 10
6.907401214393253
 20
-2.272772222222228
 30
0.0
 10
7.097599820699543
 20
-2.624004166666661
 30
0.0
 10
7.108590098199683
 20
-3.023765277777784
 30
0.0
 10
7.112041666666654
 20
-3.149613888888894
 30
0.0
 10
7.137997041901245
 20
-3.268472222222221
 30
0.0
 10
7.197448429288265
 20
-3.378745833333331
 30
0.0
 10
7.197448429288265
 20
-3.378745833333331
 30
0.0
 10
7.197448429288265
 20
-6.439025000000002
 30
0.0
 10
7.197448429288265
 20
-6.439025000000002
 30
0.0
 10
5.913784572827454
 20
-6.460100000000011
 30
0.0
 10
4.816099878335081
 20
-7.373636111111106
 30
0.0
 10
4.573981828895941
 20
-8.668377777777778
 30
0.0
 10
4.295709613703467
 20
-10.15642916666666
 30
0.0
 10
5.276959588915006
 20
-11.5713375
 30
0.0
 10
6.753270662731362
 20
-11.84676666666668
 30
0.0
 10
7.546580364912895
 20
-11.99668055555556
 30
0.0
 10
8.338477567130111
 20
-11.78254027777777
 30
0.0
 10
8.939601163055562
 20
-11.30977361111112
 30
0.0
 10
8.492112285471194
 20
-11.51449166666667
 30
0.0
 10
7.978877576214371
 20
-11.5878625
 30
0.0
 10
7.456762311626335
 20
-11.49130833333334
 30
0.0
  0
SPLINE
  5
44
330
1F
100
AcDbEntity
  8
Layer 1
370
     0
100
AcDbSpline
210
0.0
220
0.0
230
1.0
 70
    11
 71
     3
 72
    29
 73
    25
 74
     0
 42
0.0000000001
 43
0.0000000001
 12
1.0
 22
0.0
 32
0.0
 13
1.0
 23
0.0
 33
0.0
 40
0.0
 40
0.0
 40
0.0
 40
0.0
 40
1.0
 40
1.0
 40
1.0
 40
2.0
 40
2.0
 40
2.0
 40
3.0
 40
3.0
 40
3.0
 40
4.0
 40
4.0
 40
4.0
 40
5.0
 40
5.0
 40
5.0
 40
6.0
 40
6.0
 40
6.0
 40
7.0
 40
7.0
 40
7.0
 40
8.0
 40
8.0
 40
8.0
 40
8.0
 10
4.816858211649256
 20
-1.00864861111111
 30
0.0
 10
4.7117012698613
 20
-1.063925000000002
 30
0.0
 10
4.628542938628723
 20
-1.143126388888883
 30
0.0
 10
4.564481829135931
 20
-1.242504166666663
 30
0.0
 10
4.537001274274593
 20
-1.285125000000006
 30
0.0
 10
4.520056830258201
 20
-1.332895833333333
 30
0.0
 10
4.5024332195923
 20
-1.380179166666671
 30
0.0
 10
4.497813775264553
 20
-1.392565277777774
 30
0.0
 10
4.494509608681356
 20
-1.408375000000003
 30
0.0
 10
4.476642942466039
 20
-1.402222222222223
 30
0.0
 10
4.459612387340712
 20
-1.396356944444442
 30
0.0
 10
4.46421377611336
 20
-1.381391666666673
 30
0.0
 10
4.46863322044616
 20
-1.368770833333327
 30
0.0
 10
4.493412386486852
 20
-1.29799861111111
 30
0.0
 10
4.523585996835714
 20
-1.229952777777776
 30
0.0
 10
4.574730439988141
 20
-1.163406944444445
 30
0.0
 10
4.637616549510615
 20
-1.09504861111111
 30
0.0
 10
4.706698492209903
 20
-1.021530555555551
 30
0.0
 10
4.800054045407099
 20
-0.9769319444444464
 30
0.0
 10
4.81176793400007
 20
-0.97134444444445
 30
0.0
 10
4.825163766994996
 20
-0.9614083333333383
 30
0.0
 10
4.834560988979825
 20
-0.977105555555555
 30
0.0
 10
4.845106822046747
 20
-0.994720833333329
 30
0.0
 10
4.829522100218228
 20
-1.00197222222222
 30
0.0
 10
4.816858211649256
 20
-1.00864861111111
 30
0.0
  0
SPLINE
  5
45
330
1F
100
AcDbEntity
  8
Layer 1
370
     0
100
AcDbSpline
210
0.0
220
0.0
230
1.0
 70
    11
 71
     3
 72
    32
 73
    28
 74
     0
 42
0.0000000001
 43
0.0000000001
 12
1.0
 22
0.0
 32
0.0
 13
1.0
 23
0.0
 33
0.0
 40
0.0
 40
0.0
 40
0.0
 40
0.0
 40
1.0
 40
1.0
 40
1.0
 40
2.0
 40
2.0
 40
2.0
 40
3.0
 40
3.0
 40
3.0
 40
4.0
 40
4.0
 40
4.0
 40
5.0
 40
5.0
 40
5.0
 40
6.0
 40
6.0
 40
6.0
 40
7.0
 40
7.0
 40
7.0
 40
8.0
 40
8.0
 40
8.0
 40
9.0
 40
9.0
 40
9.0
 40
9.0
 10
5.190533202209432
 20
-0.5532361111111059
 30
0.0
 10
5.175192924819182
 20
-0.5646625000000035
 30
0.0
 10
5.159408202995715
 20
-0.5755305555555499
 30
0.0
 10
5.144426258929747
 20
-0.5873930555555564
 30
0.0
 10
5.065695705363092
 20
-0.649712500000002
 30
0.0
 10
5.009670706778403
 20
-0.7277277777777726
 30
0.0
 10
4.979356818655307
 20
-0.8240986111111144
 30
0.0
 10
4.974894318768039
 20
-0.8382708333333286
 30
0.0
 10
4.975504040974859
 20
-0.8656124999999975
 30
0.0
 10
4.950724874934167
 20
-0.8576458333333347
 30
0.0
 10
4.927472222222225
 20
-0.8501680555555519
 30
0.0
 10
4.941206819619057
 20
-0.8280208333333373
 30
0.0
 10
4.945522097287822
 20
-0.8131166666666634
 30
0.0
 10
4.963415152391361
 20
-0.7513472222222187
 30
0.0
 10
4.996526262666015
 20
-0.697283333333328
 30
0.0
 10
5.033612372840253
 20
-0.6452138888888864
 30
0.0
 10
5.071081816338139
 20
-0.6044597222222212
 30
0.0
 10
5.109763888888892
 20
-0.5648805555555579
 30
0.0
 10
5.155774869754168
 20
-0.5332597222222198
 30
0.0
 10
5.160759591850465
 20
-0.5298513888888894
 30
0.0
 10
5.165736111111124
 20
-0.5263652777777754
 30
0.0
 10
5.171027777777781
 20
-0.5235152777777835
 30
0.0
 10
5.18168598021071
 20
-0.5177625000000035
 30
0.0
 10
5.192869313261528
 20
-0.5154874999999998
 30
0.0
 10
5.200067924190787
 20
-0.5278722222222237
 30
0.0
 10
5.206501257361601
 20
-0.5389499999999998
 30
0.0
 10
5.199117924214786
 20
-0.5468555555555541
 30
0.0
 10
5.190533202209432
 20
-0.5532361111111059
 30
0.0
  0
HATCH
  5
46
330
1F
100
AcDbEntity
  8
Layer 1
 62
    35
420
 10579544
100
AcDbHatch
 10
0.0
 20
0.0
 30
0.0
210
0.0
220
0.0
230
1.0
  2
SOLID
 70
     1
 71
     0
 91
        3
 92
        1
 93
        1
 72
     4
 94
        3
 73
     0
 74
     1
 95
      278
 96
      274
 40
0.0
 40
0.0
 40
0.0
 40
0.0
 40
1.0
 40
1.0
 40
1.0
 40
2.0
 40
2.0
 40
2.0
 40
3.0
 40
3.0
 40
3.0
 40
4.0
 40
4.0
 40
4.0
 40
5.0
 40
5.0
 40
5.0
 40
6.0
 40
6.0
 40
6.0
 40
7.0
 40
7.0
 40
7.0
 40
8.0
 40
8.0
 40
8.0
 40
9.0
 40
9.0
 40
9.0
 40
10.0
 40
10.0
 40
10.0
 40
11.0
 40
11.0
 40
11.0
 40
12.0
 40
12.0
 40
12.0
 40
13.0
 40
13.0
 40
13.0
 40
14.0
 40
14.0
 40
14.0
 40
15.0
 40
15.0
 40
15.0
 40
16.0
 40
16.0
 40
16.0
 40
17.0
 40
17.0
 40
17.0
 40
18.0
 40
18.0
 40
18.0
 40
19.0
 40
19.0
 40
19.0
 40
20.0
 40
20.0
 40
20.0
 40
21.0
 40
21.0
 40
21.0
 40
22.0
 40
22.0
 40
22.0
 40
23.0
 40
23.0
 40
23.0
 40
24.0
 40
24.0
 40
24.0
 40
25.0
 40
25.0
 40
25.0
 40
26.0
 40
26.0
 40
26.0
 40
27.0
 40
27.0
 40
27.0
 40
28.0
 40
28.0
 40
28.0
 40
29.0
 40
29.0
 40
29.0
 40
30.0
 40
30.0
 40
30.0
 40
31.0
 40
31.0
 40
31.0
 40
32.0
 40
32.0
 40
32.0
 40
33.0
 40
33.0
 40
33.0
 40
34.0
 40
34.0
 40
34.0
 40
35.0
 40
35.0
 40
35.0
 40
36.0
 40
36.0
 40
36.0
 40
37.0
 40
37.0
 40
37.0
 40
38.0
 40
38.0
 40
38.0
 40
39.0
 40
39.0
 40
39.0
 40
40.0
 40
40.0
 40
40.0
 40
41.0
 40
41.0
 40
41.0
 40
42.0
 40
42.0
 40
42.0
 40
43.0
 40
43.0
 40
43.0
 40
44.0
 40
44.0
 40
44.0
 40
45.0
 40
45.0
 40
45.0
 40
46.0
 40
46.0
 40
46.0
 40
47.0
 40
47.0
 40
47.0
 40
48.0
 40
48.0
 40
48.0
 40
49.0
 40
49.0
 40
49.0
 40
50.0
 40
50.0
 40
50.0
 40
51.0
 40
51.0
 40
51.0
 40
52.0
 40
52.0
 40
52.0
 40
53.0
 40
53.0
 40
53.0
 40
54.0
 40
54.0
 40
54.0
 40
55.0
 40
55.0
 40
55.0
 40
56.0
 40
56.0
 40
56.0
 40
57.0
 40
57.0
 40
57.0
 40
58.0
 40
58.0
 40
58.0
 40
59.0
 40
59.0
 40
59.0
 40
60.0
 40
60.0
 40
60.0
 40
61.0
 40
61.0
 40
61.0
 40
62.0
 40
62.0
 40
62.0
 40
63.0
 40
63.0
 40
63.0
 40
64.0
 40
64.0
 40
64.0
 40
65.0
 40
65.0
 40
65.0
 40
66.0
 40
66.0
 40
66.0
 40
67.0
 40
67.0
 40
67.0
 40
68.0
 40
68.0
 40
68.0
 40
69.0
 40
69.0
 40
69.0
 40
70.0
 40
70.0
 40
70.0
 40
71.0
 40
71.0
 40
71.0
 40
72.0
 40
72.0
 40
72.0
 40
73.0
 40
73.0
 40
73.0
 40
74.0
 40
74.0
 40
74.0
 40
75.0
 40
75.0
 40
75.0
 40
76.0
 40
76.0
 40
76.0
 40
77.0
 40
77.0
 40
77.0
 40
78.0
 40
78.0
 40
78.0
 40
79.0
 40
79.0
 40
79.0
 40
80.0
 40
80.0
 40
80.0
 40
81.0
 40
81.0
 40
81.0
 40
82.0
 40
82.0
 40
82.0
 40
83.0
 40
83.0
 40
83.0
 40
84.0
 40
84.0
 40
84.0
 40
85.0
 40
85.0
 40
85.0
 40
86.0
 40
86.0
 40
86.0
 40
87.0
 40
87.0
 40
87.0
 40
88.0
 40
88.0
 40
88.0
 40
89.0
 40
89.0
 40
89.0
 40
90.0
 40
90.0
 40
90.0
 40
91.0
 40
91.0
 40
91.0
 40
91.0
 10
7.456762311626335
 20
-11.49130833333334
 10
6.101863734742841
 20
-11.22804583333333
 10
5.234626256651103
 20
-9.943143055555563
 10
5.486462361400299
 20
-8.605902777777777
 10
5.733992910702707
 20
-7.292055555555558
 10
6.932477602648659
 20
-6.463045833333328
 10
8.190960904190028
 20
-6.602604166666676
 10
8.059020629745342
 20
-6.555129166666675
 10
7.921580355439598
 20
-6.517198611111123
 10
7.778456747944094
 20
-6.489812499999996
 10
7.635647029329548
 20
-6.462313888888881
 10
7.493848421800571
 20
-6.446111111111122
 10
7.353898425336006
 20
-6.440506944444451
 10
7.353898425336006
 20
-6.440506944444451
 10
7.353898425336006
 20
-3.548216666666665
 10
7.353898425336006
 20
-3.548216666666665
 10
7.398880368644111
 20
-3.572508333333328
 10
7.450034534018514
 20
-3.586784722222218
 10
7.509040088083465
 20
-3.588291666666666
 10
7.541115087273182
 20
-3.589111111111113
 10
7.570758142079891
 20
-3.58287916666667
 10
7.598988696922283
 20
-3.566676388888886
 10
7.66809722222221
 20
-3.52699305555556
 10
7.687567861351251
 20
-3.462348611111111
 10
7.68842202799634
 20
-3.389318055555552
 10
7.689659527965078
 20
-3.283986111111112
 10
7.675478972767753
 20
-3.179518055555554
 10
7.664776195260351
 20
-3.075101388888887
 10
7.636458333333343
 20
-2.798722222222219
 10
7.661402777777766
 20
-2.52428611111111
 10
7.597253974743883
 20
-2.25097361111111
 10
7.552315086990246
 20
-2.059433333333332
 10
7.458750000000009
 20
-1.892533333333328
 10
7.398052590887245
 20
-1.708148611111116
 10
7.374363702596788
 20
-1.636200000000005
 10
7.357462314134864
 20
-1.562054166666662
 10
7.329598425949875
 20
-1.491455555555553
 10
7.270191483006177
 20
-1.34099305555555
 10
7.192890096070085
 20
-1.202716666666662
 10
7.057680555555558
 20
-1.105908333333332
 10
6.721658163529961
 20
-0.8652722222222261
 10
6.396434560634689
 20
-0.6313916666666728
 10
6.118424845435584
 20
-0.321681944444448
 10
6.011035959259567
 20
-0.2020472222222275
 10
5.896683184370582
 20
-0.0897784722222165
 10
5.76391513216903
 20
0.0028450555555537
 10
5.690815134015692
 20
0.053850277777782
 10
5.613305555555548
 20
0.0825604166666633
 10
5.523583333333337
 20
0.0796056944444419
 10
4.747819444444442
 20
0.0563081944444421
 10
4.115265173817432
 20
-0.3560999999999947
 10
3.38889435883377
 20
-0.5548402777777837
 10
3.186694444444444
 20
-0.6101680555555554
 10
2.96763888888889
 20
-0.5887097222222211
 10
2.770547152232312
 20
-0.523166666666662
 10
2.410320772443507
 20
-0.4033833333333329
 10
2.072649947640457
 20
-0.1548944444444436
 10
1.766061066496655
 20
0.0638038888888938
 10
1.699140234853884
 20
0.111540694444443
 10
1.633893014279945
 20
0.1181123611111161
 10
1.559102738391529
 20
0.0867265277777784
 10
0.9868972222222206
 20
-0.1533166666666703
 10
0.519186111111114
 20
-0.6971083333333278
 10
0.3820249999999987
 20
-1.443238888888888
 10
0.3733180555555514
 20
-1.490662499999998
 10
0.3767513888888945
 20
-1.541668055555558
 10
0.4203305555555517
 20
-1.568459722222226
 10
0.9252152777777761
 20
-1.878770833333331
 10
1.446702741230992
 20
-2.121019444444439
 10
1.91207772947463
 20
-2.500709722222218
 10
2.086734669506869
 20
-2.643195833333329
 10
2.25320833333333
 20
-2.769488888888885
 10
2.48444854834866
 20
-2.801215277777778
 10
2.843777777777783
 20
-2.850529166666661
 10
3.122624999999996
 20
-2.64556666666667
 10
3.422023524663523
 20
-2.482293055555551
 10
3.483931856432921
 20
-2.448536111111113
 10
3.549344354780462
 20
-2.432211111111112
 10
3.620299908543529
 20
-2.454470833333339
 10
3.747934627541427
 20
-2.494494444444449
 10
3.877148513166099
 20
-2.503419444444439
 10
4.008915176504059
 20
-2.474944444444443
 10
4.091140174426881
 20
-2.457173611111115
 10
4.164990172561273
 20
-2.477368055555556
 10
4.227726282087537
 20
-2.534797222222222
 10
4.279098503011988
 20
-2.581844444444439
 10
4.331672112794978
 20
-2.627638888888883
 10
4.381797111528714
 20
-2.675984722222223
 10
4.416616555093545
 20
-2.709584722222227
 10
4.448237387628069
 20
-2.746479166666669
 10
4.481105442353307
 20
-2.782075000000001
 10
4.488635997718625
 20
-2.790233333333339
 10
4.492270719849026
 20
-2.800063888888884
 10
4.483127664524444
 20
-2.808937499999994
 10
4.472816553673813
 20
-2.818916666666673
 10
4.462697109485007
 20
-2.814148611111111
 10
4.454120720812776
 20
-2.805319444444447
 10
4.447792943194852
 20
-2.79880972222222
 10
4.44194444444444
 20
-2.791827777777775
 10
4.435956832382746
 20
-2.784986111111114
 10
4.392691555697941
 20
-2.73552361111111
 10
4.346366556868209
 20
-2.689111111111111
 10
4.296879058118368
 20
-2.645872222222225
 10
4.291648502694948
 20
-2.641295833333338
 10
4.284126280662753
 20
-2.632980555555554
 10
4.280413780756539
 20
-2.634270833333327
 10
4.271584614312916
 20
-2.637338888888886
 10
4.274042947584146
 20
-2.647963888888891
 10
4.274442947574041
 20
-2.655651388888891
 10
4.277590169716758
 20
-2.716279166666671
 10
4.282636002922623
 20
-2.776644444444451
 10
4.301411002448327
 20
-2.834927777777782
 10
4.302952669076047
 20
-2.839738888888885
 10
4.305036002356752
 20
-2.844454166666663
 10
4.305924891223185
 20
-2.849369444444442
 10
4.307686002289807
 20
-2.859122222222216
 10
4.30613461344011
 20
-2.867943055555555
 10
4.295048502609057
 20
-2.871176388888885
 10
4.284692947315104
 20
-2.874209722222228
 10
4.276822114180606
 20
-2.869877777777775
 10
4.273092947608145
 20
-2.860204166666664
 10
4.268019336625204
 20
-2.847043055555559
 10
4.263122114526697
 20
-2.833681944444442
 10
4.259852670164845
 20
-2.819997222222228
 10
4.24569017052262
 20
-2.760798611111113
 10
4.235161004121943
 20
-2.700302777777779
 10
4.240599892873433
 20
-2.639919444444445
 10
4.244138888888894
 20
-2.600523611111107
 10
4.227534615425713
 20
-2.58019722222222
 10
4.200576282773404
 20
-2.557388888888883
 10
4.144062395312176
 20
-2.509573611111111
 10
4.081945730214708
 20
-2.496255555555561
 10
4.011206843112833
 20
-2.514001388888889
 10
3.983805555555553
 20
-2.520886111111117
 10
3.955991566729911
 20
-2.526777777777776
 10
3.928023511880888
 20
-2.530604166666661
 10
3.909945734559793
 20
-2.533070833333328
 10
3.90770545683861
 20
-2.539563888888893
 10
3.911854067844918
 20
-2.556098611111111
 10
3.948147122483634
 20
-2.700249999999995
 10
4.020906842867791
 20
-2.851156944444445
 10
4.111456840580305
 20
-2.968802777777783
 10
4.276081836421528
 20
-3.18268194444445
 10
4.524379052371235
 20
-3.129462499999994
 10
4.757258213154879
 20
-3.113373611111115
 10
4.873162376893561
 20
-3.105372222222222
 10
4.985535985165876
 20
-3.084549999999997
 10
5.088226260349479
 20
-3.025918055555558
 10
5.173851258186409
 20
-2.977022222222217
 10
5.216820701545354
 20
-2.901543055555559
 10
5.221622090312949
 20
-2.805625000000001
 10
5.225370701329362
 20
-2.730563888888885
 10
5.205663757382758
 20
-2.658579166666666
 10
5.168490147210731
 20
-2.593472222222216
 10
5.092401260244009
 20
-2.460249999999999
 10
4.991784596119133
 20
-2.345322222222219
 10
4.889069444444443
 20
-2.232618055555551
 10
4.823742933697556
 20
-2.160938888888887
 10
4.750966546647153
 20
-2.096493055555559
 10
4.678598492919769
 20
-2.031891666666664
 10
4.668226270959571
 20
-2.022634722222228
 10
4.654324882421861
 20
-2.011104166666668
 10
4.667319444444451
 20
-1.99644444444444
 10
4.679365159567068
 20
-1.982863888888889
 10
4.690835992610624
 20
-1.994997222222221
 10
4.700815159025195
 20
-2.003722222222223
 10
4.900104042879623
 20
-2.17789027777778
 10
5.569184581532782
 20
-2.802931944444443
 10
5.106180555555562
 20
-3.057538888888883
 10
5.025105428610711
 20
-3.102120833333338
 10
4.938313764136587
 20
-3.126037500000002
 10
4.847895710865183
 20
-3.139973611111107
 10
4.729838769403108
 20
-3.158163888888895
 10
4.577947106573547
 20
-3.127415277777775
 10
4.494841553117415
 20
-3.232362499999997
 10
4.450895720894247
 20
-3.287838888888889
 10
4.414324888484771
 20
-3.366465277777782
 10
4.409852666375526
 20
-3.437881944444446
 10
4.392744333474385
 20
-3.710933333333337
 10
4.77325265719527
 20
-3.546420833333336
 10
4.90224709838104
 20
-3.509962500000003
 10
5.010576262311083
 20
-3.47934444444445
 10
5.118872092908632
 20
-3.468048611111107
 10
5.228866534574384
 20
-3.449674999999994
 10
5.354295698072443
 20
-3.42871388888889
 10
5.458494306551276
 20
-3.372870833333334
 10
5.539133193403055
 20
-3.271774999999997
 10
5.658069444444436
 20
-3.122638888888888
 10
5.760288743371752
 20
-2.959765277777781
 10
5.883766518030218
 20
-2.814350000000003
 10
5.917323461626943
 20
-2.77482361111111
 10
5.952283182966008
 20
-2.733395833333336
 10
5.968154015898411
 20
-2.682251388888883
 10
5.994833333333341
 20
-2.596295833333329
 10
5.995905404086241
 20
-2.509241666666665
 10
5.970141515848202
 20
-2.422641666666664
 10
5.915030406129315
 20
-2.234726388888892
 10
5.776648465180693
 20
-2.099858333333334
 10
5.641701246367524
 20
-1.966077777777779
 10
5.488372083574277
 20
-1.814090277777773
 10
5.329341532036172
 20
-1.667829166666668
 10
5.165083333333339
 20
-1.527730555555561
 10
5.15773611111111
 20
-1.521472222222226
 10
5.149594314354746
 20
-1.512581944444441
 10
5.152923480937312
 20
-1.503500000000006
 10
5.15798875858713
 20
-1.489686111111117
 10
5.178845702504683
 20
-1.496197222222223
 10
5.190620702207221
 20
-1.505026388888887
 10
5.364152777777766
 20
-1.635250000000004
 10
5.519766527225632
 20
-1.78520555555556
 10
5.676137356608706
 20
-1.935074999999996
 10
5.816027777777789
 20
-2.069124999999998
 10
5.952534571848546
 20
-2.224294444444442
 10
6.004585959422507
 20
-2.415415277777773
 10
6.040208333333339
 20
-2.546205555555553
 10
6.036206791957031
 20
-2.673805555555557
 10
5.948665127501853
 20
-2.78719027777778
 10
5.937787349998871
 20
-2.801258333333332
 10
5.92846235023444
 20
-2.844941666666664
 10
5.924392905892798
 20
-2.860665277777773
 10
5.839995685802629
 20
-3.187362499999999
 10
5.619998469138005
 20
-3.351761111111109
 10
5.683859578635848
 20
-3.671354166666661
 10
5.710487355740952
 20
-3.804629166666662
 10
5.826094297264919
 20
-3.857263888888888
 10
5.943401238745941
 20
-3.789270833333338
 10
6.130879011787632
 20
-3.680593055555555
 10
6.257259564150545
 20
-3.465843055555549
 10
6.410772060272493
 20
-3.314727777777774
 10
6.527659557319667
 20
-3.199661111111115
 10
6.626445665935231
 20
-3.090668055555561
 10
6.649873443121173
 20
-2.91962777777778
 10
6.673476220302695
 20
-2.747272222222225
 10
6.685426220000813
 20
-2.573983333333331
 10
6.670844275924739
 20
-2.399909722222219
 10
6.656620665172946
 20
-2.230133333333331
 10
6.686541666666673
 20
-2.042559722222222
 10
6.576477611641975
 20
-1.896918055555552
 10
6.439979003979109
 20
-1.716306944444442
 10
6.284270674579298
 20
-1.535880555555561
 10
6.127192900769639
 20
-1.37290277777778
 10
6.124559567502829
 20
-1.370156944444451
 10
6.122852623101506
 20
-1.366538888888891
 10
6.120716512044358
 20
-1.363323611111115
 10
6.123933178629764
 20
-1.36451805555555
 10
6.127845678530926
 20
-1.364944444444442
 10
6.130277777777766
 20
-1.367044444444446
 10
6.174048455141524
 20
-1.404776388888889
 10
6.225429009399098
 20
-1.431629166666666
 10
6.271545674900759
 20
-1.465934722222225
 10
6.444215114983207
 20
-1.594415277777772
 10
6.659444444444438
 20
-1.711155555555554
 10
6.750308162806201
 20
-1.916955555555559
 10
6.907401214393253
 20
-2.272772222222228
 10
7.097599820699543
 20
-2.624004166666661
 10
7.108590098199683
 20
-3.023765277777784
 10
7.112041666666654
 20
-3.149613888888894
 10
7.137997041901245
 20
-3.268472222222221
 10
7.197448429288265
 20
-3.378745833333331
 10
7.197448429288265
 20
-3.378745833333331
 10
7.197448429288265
 20
-6.439025000000002
 10
7.197448429288265
 20
-6.439025000000002
 10
5.913784572827454
 20
-6.460100000000011
 10
4.816099878335081
 20
-7.373636111111106
 10
4.573981828895941
 20
-8.668377777777778
 10
4.295709613703467
 20
-10.15642916666666
 10
5.276959588915006
 20
-11.5713375
 10
6.753270662731362
 20
-11.84676666666668
 10
7.546580364912895
 20
-11.99668055555556
 10
8.338477567130111
 20
-11.78254027777777
 10
8.939601163055562
 20
-11.30977361111112
 10
8.492112285471194
 20
-11.51449166666667
 10
7.978877576214371
 20
-11.5878625
 10
7.456762311626335
 20
-11.49130833333334
 97
        0
 97
        0
 92
        1
 93
        1
 72
     4
 94
        3
 73
     0
 74
     1
 95
       29
 96
       25
 40
0.0
 40
0.0
 40
0.0
 40
0.0
 40
1.0
 40
1.0
 40
1.0
 40
2.0
 40
2.0
 40
2.0
 40
3.0
 40
3.0
 40
3.0
 40
4.0
 40
4.0
 40
4.0
 40
5.0
 40
5.0
 40
5.0
 40
6.0
 40
6.0
 40
6.0
 40
7.0
 40
7.0
 40
7.0
 40
8.0
 40
8.0
 40
8.0
 40
8.0
 10
4.816858211649256
 20
-1.00864861111111
 10
4.7117012698613
 20
-1.063925000000002
 10
4.628542938628723
 20
-1.143126388888883
 10
4.564481829135931
 20
-1.242504166666663
 10
4.537001274274593
 20
-1.285125000000006
 10
4.520056830258201
 20
-1.332895833333333
 10
4.5024332195923
 20
-1.380179166666671
 10
4.497813775264553
 20
-1.392565277777774
 10
4.494509608681356
 20
-1.408375000000003
 10
4.476642942466039
 20
-1.402222222222223
 10
4.459612387340712
 20
-1.396356944444442
 10
4.46421377611336
 20
-1.381391666666673
 10
4.46863322044616
 20
-1.368770833333327
 10
4.493412386486852
 20
-1.29799861111111
 10
4.523585996835714
 20
-1.229952777777776
 10
4.574730439988141
 20
-1.163406944444445
 10
4.637616549510615
 20
-1.09504861111111
 10
4.706698492209903
 20
-1.021530555555551
 10
4.800054045407099
 20
-0.9769319444444464
 10
4.81176793400007
 20
-0.97134444444445
 10
4.825163766994996
 20
-0.9614083333333383
 10
4.834560988979825
 20
-0.977105555555555
 10
4.845106822046747
 20
-0.994720833333329
 10
4.829522100218228
 20
-1.00197222222222
 10
4.816858211649256
 20
-1.00864861111111
 97
        0
 97
        0
 92
        1
 93
        1
 72
     4
 94
        3
 73
     0
 74
     1
 95
       32
 96
       28
 40
0.0
 40
0.0
 40
0.0
 40
0.0
 40
1.0
 40
1.0
 40
1.0
 40
2.0
 40
2.0
 40
2.0
 40
3.0
 40
3.0
 40
3.0
 40
4.0
 40
4.0
 40
4.0
 40
5.0
 40
5.0
 40
5.0
 40
6.0
 40
6.0
 40
6.0
 40
7.0
 40
7.0
 40
7.0
 40
8.0
 40
8.0
 40
8.0
 40
9.0
 40
9.0
 40
9.0
 40
9.0
 10
5.190533202209432
 20
-0.5532361111111059
 10
5.175192924819182
 20
-0.5646625000000035
 10
5.159408202995715
 20
-0.5755305555555499
 10
5.144426258929747
 20
-0.5873930555555564
 10
5.065695705363092
 20
-0.649712500000002
 10
5.009670706778403
 20
-0.7277277777777726
 10
4.979356818655307
 20
-0.8240986111111144
 10
4.974894318768039
 20
-0.8382708333333286
 10
4.975504040974859
 20
-0.8656124999999975
 10
4.950724874934167
 20
-0.8576458333333347
 10
4.927472222222225
 20
-0.8501680555555519
 10
4.941206819619057
 20
-0.8280208333333373
 10
4.945522097287822
 20
-0.8131166666666634
 10
4.963415152391361
 20
-0.7513472222222187
 10
4.996526262666015
 20
-0.697283333333328
 10
5.033612372840253
 20
-0.6452138888888864
 10
5.071081816338139
 20
-0.6044597222222212
 10
5.109763888888892
 20
-0.5648805555555579
 10
5.155774869754168
 20
-0.5332597222222198
 10
5.160759591850465
 20
-0.5298513888888894
 10
5.165736111111124
 20
-0.5263652777777754
 10
5.171027777777781
 20
-0.5235152777777835
 10
5.18168598021071
 20
-0.5177625000000035
 10
5.192869313261528
 20
-0.5154874999999998
 10
5.200067924190787
 20
-0.5278722222222237
 10
5.206501257361601
 20
-0.5389499999999998
 10
5.199117924214786
 20
-0.5468555555555541
 10
5.190533202209432
 20
-0.5532361111111059
 97
        0
 97
        0
 75
     2
 76
     1
 98
        0
  0
SPLINE
  5
47
330
1F
100
AcDbEntity
  8
Layer 1
370
     0
100
AcDbSpline
210
0.0
220
0.0
230
1.0
 70
    11
 71
     3
 72
    41
 73
    37
 74
     0
 42
0.0000000001
 43
0.0000000001
 12
1.0
 22
0.0
 32
0.0
 13
1.0
 23
0.0
 33
0.0
 40
0.0
 40
0.0
 40
0.0
 40
0.0
 40
1.0
 40
1.0
 40
1.0
 40
2.0
 40
2.0
 40
2.0
 40
3.0
 40
3.0
 40
3.0
 40
4.0
 40
4.0
 40
4.0
 40
5.0
 40
5.0
 40
5.0
 40
6.0
 40
6.0
 40
6.0
 40
7.0
 40
7.0
 40
7.0
 40
8.0
 40
8.0
 40
8.0
 40
9.0
 40
9.0
 40
9.0
 40
10.0
 40
10.0
 40
10.0
 40
11.0
 40
11.0
 40
11.0
 40
12.0
 40
12.0
 40
12.0
 40
12.0
 10
6.671367887022623
 20
-2.981249999999995
 30
0.0
 10
6.66567622049974
 20
-3.003554166666668
 30
0.0
 10
6.679342886821157
 20
-3.007588888888891
 30
0.0
 10
6.693087330918388
 20
-3.012748611111116
 30
0.0
 10
6.812302605684534
 20
-3.057495833333329
 30
0.0
 10
6.934116491496146
 20
-3.093413888888891
 30
0.0
 10
7.058622043906426
 20
-3.12034583333333
 30
0.0
 10
7.078066487859663
 20
-3.124547222222215
 30
0.0
 10
7.081144265559689
 20
-3.117626388888892
 30
0.0
 10
7.079784543371816
 20
-3.100848611111107
 30
0.0
 10
7.076785932336456
 20
-3.06362361111111
 30
0.0
 10
7.075069444444453
 20
-3.026301388888883
 30
0.0
 10
7.072359543559387
 20
-2.98904166666667
 30
0.0
 10
7.064888888888895
 20
-2.88622083333333
 30
0.0
 10
7.053592877366807
 20
-2.783930555555558
 30
0.0
 10
7.027088711369692
 20
-2.683924999999994
 30
0.0
 10
6.996147045484677
 20
-2.567168055555562
 30
0.0
 10
6.945010935665373
 20
-2.458419444444442
 30
0.0
 10
6.894467881386642
 20
-2.349445833333334
 30
0.0
 10
6.88854982598059
 20
-2.336694444444447
 30
0.0
 10
6.882091492810408
 20
-2.324029166666668
 30
0.0
 10
6.874063715235429
 20
-2.316176388888885
 30
0.0
 10
6.82727621641738
 20
-2.288006944444444
 30
0.0
 10
6.782590106435135
 20
-2.262512499999995
 30
0.0
 10
6.740213718616764
 20
-2.233184722222227
 30
0.0
 10
6.727453996716879
 20
-2.224345833333334
 30
0.0
 10
6.711251219348418
 20
-2.206043055555559
 30
0.0
 10
6.700522052952793
 20
-2.212318055555556
 30
0.0
 10
6.689183164350348
 20
-2.218933333333338
 30
0.0
 10
6.69597222222223
 20
-2.242038888888891
 30
0.0
 10
6.696503997498742
 20
-2.257884722222216
 30
0.0
 10
6.700017886298863
 20
-2.363783333333332
 30
0.0
 10
6.71727483030736
 20
-2.469036111111109
 30
0.0
 10
6.711634552672067
 20
-2.575377777777779
 30
0.0
 10
6.704426219520832
 20
-2.711284722222217
 30
0.0
 10
6.705359552830587
 20
-2.848105555555561
 30
0.0
 10
6.671367887022623
 20
-2.981249999999995
 30
0.0
  0
HATCH
  5
48
330
1F
100
AcDbEntity
  8
Layer 1
 62
    35
420
 10579544
100
AcDbHatch
 10
0.0
 20
0.0
 30
0.0
210
0.0
220
0.0
230
1.0
  2
SOLID
 70
     1
 71
     0
 91
        1
 92
        1
 93
        1
 72
     4
 94
        3
 73
     0
 74
     1
 95
       41
 96
       37
 40
0.0
 40
0.0
 40
0.0
 40
0.0
 40
1.0
 40
1.0
 40
1.0
 40
2.0
 40
2.0
 40
2.0
 40
3.0
 40
3.0
 40
3.0
 40
4.0
 40
4.0
 40
4.0
 40
5.0
 40
5.0
 40
5.0
 40
6.0
 40
6.0
 40
6.0
 40
7.0
 40
7.0
 40
7.0
 40
8.0
 40
8.0
 40
8.0
 40
9.0
 40
9.0
 40
9.0
 40
10.0
 40
10.0
 40
10.0
 40
11.0
 40
11.0
 40
11.0
 40
12.0
 40
12.0
 40
12.0
 40
12.0
 10
6.671367887022623
 20
-2.981249999999995
 10
6.66567622049974
 20
-3.003554166666668
 10
6.679342886821157
 20
-3.007588888888891
 10
6.693087330918388
 20
-3.012748611111116
 10
6.812302605684534
 20
-3.057495833333329
 10
6.934116491496146
 20
-3.093413888888891
 10
7.058622043906426
 20
-3.12034583333333
 10
7.078066487859663
 20
-3.124547222222215
 10
7.081144265559689
 20
-3.117626388888892
 10
7.079784543371816
 20
-3.100848611111107
 10
7.076785932336456
 20
-3.06362361111111
 10
7.075069444444453
 20
-3.026301388888883
 10
7.072359543559387
 20
-2.98904166666667
 10
7.064888888888895
 20
-2.88622083333333
 10
7.053592877366807
 20
-2.783930555555558
 10
7.027088711369692
 20
-2.683924999999994
 10
6.996147045484677
 20
-2.567168055555562
 10
6.945010935665373
 20
-2.458419444444442
 10
6.894467881386642
 20
-2.349445833333334
 10
6.88854982598059
 20
-2.336694444444447
 10
6.882091492810408
 20
-2.324029166666668
 10
6.874063715235429
 20
-2.316176388888885
 10
6.82727621641738
 20
-2.288006944444444
 10
6.782590106435135
 20
-2.262512499999995
 10
6.740213718616764
 20
-2.233184722222227
 10
6.727453996716879
 20
-2.224345833333334
 10
6.711251219348418
 20
-2.206043055555559
 10
6.700522052952793
 20
-2.212318055555556
 10
6.689183164350348
 20
-2.218933333333338
 10
6.69597222222223
 20
-2.242038888888891
 10
6.696503997498742
 20
-2.257884722222216
 10
6.700017886298863
 20
-2.363783333333332
 10
6.71727483030736
 20
-2.469036111111109
 10
6.711634552672067
 20
-2.575377777777779
 10
6.704426219520832
 20
-2.711284722222217
 10
6.705359552830587
 20
-2.848105555555561
 10
6.671367887022623
 20
-2.981249999999995
 97
        0
 97
        0
 75
     2
 76
     1
 98
        0
  0
ENDSEC
  0
SECTION
  2
OBJECTS
  0
DICTIONARY
  5
C
330
0
100
AcDbDictionary
281
     1
  3
ACAD_GROUP
350
D
  3
ACAD_LAYOUT
350
1A
  3
ACAD_MATERIAL
350
3B
  3
ACAD_MLEADERSTYLE
350
4A
  3
ACAD_MLINESTYLE
350
17
  3
ACAD_PLOTSETTINGS
350
19
  3
ACAD_PLOTSTYLENAME
350
E
  3
ACAD_TABLESTYLE
350
49
  3
ACAD_VISUALSTYLE
350
2A
  0
SUN
  5
3F
330
29
100
AcDbSun
 90
        1
290
     0
 63
     7
421
 16777215
 40
1.0
291
     1
 91
  2455826
 92
 54000000
292
     0
 70
     2
 71
   256
280
     1
  0
DICTIONARY
  5
D
102
{ACAD_REACTORS
330
C
102
}
330
C
100
AcDbDictionary
281
     1
  0
DICTIONARY
  5
1A
102
{ACAD_REACTORS
330
C
102
}
330
C
100
AcDbDictionary
281
     1
  3
Layout1
350
1E
  3
Layout2
350
26
  3
Model
350
22
  0
DICTIONARY
  5
3B
102
{ACAD_REACTORS
330
C
102
}
330
C
100
AcDbDictionary
281
     1
  3
ByBlock
350
3D
  3
ByLayer
350
3C
  3
Global
350
3E
  0
DICTIONARY
  5
4A
102
{ACAD_REACTORS
330
C
102
}
330
C
100
AcDbDictionary
281
     1
  0
DICTIONARY
  5
17
102
{ACAD_REACTORS
330
C
102
}
330
C
100
AcDbDictionary
281
     1
  3
Standard
350
18
  0
DICTIONARY
  5
19
102
{ACAD_REACTORS
330
C
102
}
330
C
100
AcDbDictionary
281
     1
  0
ACDBDICTIONARYWDFLT
  5
E
102
{ACAD_REACTORS
330
C
102
}
330
C
100
AcDbDictionary
281
     1
  3
Normal
350
F
100
AcDbDictionaryWithDefault
340
F
  0
DICTIONARY
  5
49
102
{ACAD_REACTORS
330
C
102
}
330
C
100
AcDbDictionary
281
     1
  0
DICTIONARY
  5
2A
102
{ACAD_REACTORS
330
C
102
}
330
C
100
AcDbDictionary
281
     1
  3
2dWireframe
350
2F
  3
3D Hidden
350
31
  3
3dWireframe
350
30
  3
Basic
350
32
  3
Brighten
350
36
  3
ColorChange
350
3A
  3
Conceptual
350
34
  3
Dim
350
35
  3
Facepattern
350
39
  3
Flat
350
2B
  3
FlatWithEdges
350
2C
  3
Gouraud
350
2D
  3
GouraudWithEdges
350
2E
  3
Linepattern
350
38
  3
Realistic
350
33
  3
Thicken
350
37
  0
LAYOUT
  5
1E
102
{ACAD_REACTORS
330
1A
102
}
330
1A
100
AcDbPlotSettings
  1

  2
none_device
  4

  6

 40
0.0
 41
0.0
 42
0.0
 43
0.0
 44
0.0
 45
0.0
 46
0.0
 47
0.0
 48
0.0
 49
0.0
140
0.0
141
0.0
142
1.0
143
1.0
 70
   688
 72
     0
 73
     0
 74
     5
  7

 75
    16
 76
     0
 77
     2
 78
   300
147
1.0
148
0.0
149
0.0
100
AcDbLayout
  1
Layout1
 70
     1
 71
     1
 10
0.0
 20
0.0
 11
12.0
 21
9.0
 12
0.0
 22
0.0
 32
0.0
 14
1.000000000000000E+20
 24
1.000000000000000E+20
 34
1.000000000000000E+20
 15
-1.000000000000000E+20
 25
-1.000000000000000E+20
 35
-1.000000000000000E+20
146
0.0
 13
0.0
 23
0.0
 33
0.0
 16
1.0
 26
0.0
 36
0.0
 17
0.0
 27
1.0
 37
0.0
 76
     0
330
1B
  0
LAYOUT
  5
26
102
{ACAD_REACTORS
330
1A
102
}
330
1A
100
AcDbPlotSettings
  1

  2
none_device
  4

  6

 40
0.0
 41
0.0
 42
0.0
 43
0.0
 44
0.0
 45
0.0
 46
0.0
 47
0.0
 48
0.0
 49
0.0
140
0.0
141
0.0
142
1.0
143
1.0
 70
   688
 72
     0
 73
     0
 74
     5
  7

 75
    16
 76
     0
 77
     2
 78
   300
147
1.0
148
0.0
149
0.0
100
AcDbLayout
  1
Layout2
 70
     1
 71
     2
 10
0.0
 20
0.0
 11
0.0
 21
0.0
 12
0.0
 22
0.0
 32
0.0
 14
0.0
 24
0.0
 34
0.0
 15
0.0
 25
0.0
 35
0.0
146
0.0
 13
0.0
 23
0.0
 33
0.0
 16
1.0
 26
0.0
 36
0.0
 17
0.0
 27
1.0
 37
0.0
 76
     0
330
23
  0
LAYOUT
  5
22
102
{ACAD_REACTORS
330
1A
102
}
330
1A
100
AcDbPlotSettings
  1

  2
none_device
  4

  6

 40
0.0
 41
0.0
 42
0.0
 43
0.0
 44
0.0
 45
0.0
 46
0.0
 47
0.0
 48
0.0
 49
0.0
140
0.0
141
0.0
142
1.0
143
1.0
 70
  1712
 72
     0
 73
     0
 74
     0
  7

 75
     0
 76
     0
 77
     2
 78
   300
147
1.0
148
0.0
149
0.0
100
AcDbLayout
  1
Model
 70
     1
 71
     0
 10
0.0
 20
0.0
 11
12.0
 21
9.0
 12
0.0
 22
0.0
 32
0.0
 14
1.000000000000000E+20
 24
1.000000000000000E+20
 34
1.000000000000000E+20
 15
-1.000000000000000E+20
 25
-1.000000000000000E+20
 35
-1.000000000000000E+20
146
0.0
 13
0.0
 23
0.0
 33
0.0
 16
1.0
 26
0.0
 36
0.0
 17
0.0
 27
1.0
 37
0.0
 76
     0
330
1F
331
29
  0
MATERIAL
  5
3D
102
{ACAD_REACTORS
330
3B
102
}
330
3B
100
AcDbMaterial
  1
ByBlock
 72
     1
 94
      127
  0
MATERIAL
  5
3C
102
{ACAD_REACTORS
330
3B
102
}
330
3B
100
AcDbMaterial
  1
ByLayer
 72
     1
 94
      127
  0
MATERIAL
  5
3E
102
{ACAD_REACTORS
330
3B
102
}
330
3B
100
AcDbMaterial
  1
Global
 72
     1
 94
      127
  0
MLINESTYLE
  5
18
102
{ACAD_REACTORS
330
17
102
}
330
17
100
AcDbMlineStyle
  2
Standard
 70
     0
  3

 62
   256
 51
90.0
 52
90.0
 71
     2
 49
0.5
 62
   256
  6
BYLAYER
 49
-0.5
 62
   256
  6
BYLAYER
  0
ACDBPLACEHOLDER
  5
F
102
{ACAD_REACTORS
330
E
102
}
330
E
  0
VISUALSTYLE
  5
2F
102
{ACAD_REACTORS
330
2A
102
}
330
2A
100
AcDbVisualStyle
  2
2dWireframe
 70
     4
177
     2
291
     0
 71
     0
176
     1
 72
     2
176
     1
 73
     0
176
     1
 90
        0
176
     1
 40
-0.6
176
     1
 41
-30.0
176
     1
 62
     5
 63
     7
421
 16777215
176
     1
 74
     1
176
     1
 91
        4
176
     1
 64
     7
176
     1
 65
   257
176
     1
 75
     1
176
     1
175
     1
176
     1
 42
1.0
176
     1
 92
        0
176
     1
 66
   257
176
     1
 43
1.0
176
     1
 76
     1
176
     1
 77
     6
176
     1
 78
     2
176
     1
 67
     7
176
     1
 79
     5
176
     1
170
     0
176
     1
171
     0
176
     1
290
     0
176
     1
 93
        1
176
     1
 44
0.0
176
     1
173
     0
176
     1
  0
VISUALSTYLE
  5
31
102
{ACAD_REACTORS
330
2A
102
}
330
2A
100
AcDbVisualStyle
  2
3D Hidden
 70
     6
177
     2
291
     0
 71
     1
176
     1
 72
     2
176
     1
 73
     2
176
     1
 90
        0
176
     1
 40
-0.6
176
     1
 41
-30.0
176
     1
 62
     5
 63
     7
421
 16777215
176
     1
 74
     2
176
     1
 91
        2
176
     1
 64
     7
176
     1
 65
   257
176
     1
 75
     2
176
     1
175
     1
176
     1
 42
40.0
176
     1
 92
        0
176
     1
 66
   257
176
     1
 43
1.0
176
     1
 76
     1
176
     1
 77
     6
176
     1
 78
     2
176
     1
 67
     7
176
     1
 79
     3
176
     1
170
     0
176
     1
171
     0
176
     1
290
     0
176
     1
 93
        1
176
     1
 44
0.0
176
     1
173
     0
176
     1
  0
VISUALSTYLE
  5
30
102
{ACAD_REACTORS
330
2A
102
}
330
2A
100
AcDbVisualStyle
  2
3dWireframe
 70
     5
177
     2
291
     0
 71
     0
176
     1
 72
     2
176
     1
 73
     0
176
     1
 90
        0
176
     1
 40
-0.6
176
     1
 41
-30.0
176
     1
 62
     5
 63
     7
421
 16777215
176
     1
 74
     1
176
     1
 91
        4
176
     1
 64
     7
176
     1
 65
   257
176
     1
 75
     1
176
     1
175
     1
176
     1
 42
1.0
176
     1
 92
        0
176
     1
 66
   257
176
     1
 43
1.0
176
     1
 76
     1
176
     1
 77
     6
176
     1
 78
     2
176
     1
 67
     7
176
     1
 79
     5
176
     1
170
     0
176
     1
171
     0
176
     1
290
     0
176
     1
 93
        1
176
     1
 44
0.0
176
     1
173
     0
176
     1
  0
VISUALSTYLE
  5
32
102
{ACAD_REACTORS
330
2A
102
}
330
2A
100
AcDbVisualStyle
  2
Basic
 70
     7
177
     2
291
     1
 71
     1
176
     1
 72
     0
176
     1
 73
     1
176
     1
 90
        0
176
     1
 40
-0.6
176
     1
 41
-30.0
176
     1
 62
     5
 63
     7
421
 16777215
176
     1
 74
     0
176
     1
 91
        4
176
     1
 64
     7
176
     1
 65
   257
176
     1
 75
     1
176
     1
175
     1
176
     1
 42
1.0
176
     1
 92
        8
176
     1
 66
     7
176
     1
 43
1.0
176
     1
 76
     1
176
     1
 77
     6
176
     1
 78
     2
176
     1
 67
     7
176
     1
 79
     5
176
     1
170
     0
176
     1
171
     0
176
     1
290
     0
176
     1
 93
        1
176
     1
 44
0.0
176
     1
173
     0
176
     1
  0
VISUALSTYLE
  5
36
102
{ACAD_REACTORS
330
2A
102
}
330
2A
100
AcDbVisualStyle
  2
Brighten
 70
    12
177
     2
291
     1
 71
     2
176
     1
 72
     2
176
     1
 73
     0
176
     1
 90
        0
176
     1
 40
-0.6
176
     1
 41
-30.0
176
     1
 62
     5
 63
     7
421
 16777215
176
     1
 74
     1
176
     1
 91
        4
176
     1
 64
     7
176
     1
 65
   257
176
     1
 75
     1
176
     1
175
     1
176
     1
 42
1.0
176
     1
 92
        8
176
     1
 66
     7
176
     1
 43
1.0
176
     1
 76
     1
176
     1
 77
     6
176
     1
 78
     2
176
     1
 67
     7
176
     1
 79
     5
176
     1
170
     0
176
     1
171
     0
176
     1
290
     0
176
     1
 93
        1
176
     1
 44
50.0
176
     1
173
     0
176
     1
  0
VISUALSTYLE
  5
3A
102
{ACAD_REACTORS
330
2A
102
}
330
2A
100
AcDbVisualStyle
  2
ColorChange
 70
    16
177
     2
291
     1
 71
     2
176
     1
 72
     2
176
     1
 73
     3
176
     1
 90
        0
176
     1
 40
-0.6
176
     1
 41
-30.0
176
     1
 62
     5
 63
     8
421
  8421504
176
     1
 74
     1
176
     1
 91
        4
176
     1
 64
     7
176
     1
 65
   257
176
     1
 75
     1
176
     1
175
     1
176
     1
 42
1.0
176
     1
 92
        8
176
     1
 66
     8
424
  8421504
176
     1
 43
1.0
176
     1
 76
     1
176
     1
 77
     6
176
     1
 78
     2
176
     1
 67
     7
176
     1
 79
     5
176
     1
170
     0
176
     1
171
     0
176
     1
290
     0
176
     1
 93
        1
176
     1
 44
0.0
176
     1
173
     0
176
     1
  0
VISUALSTYLE
  5
34
102
{ACAD_REACTORS
330
2A
102
}
330
2A
100
AcDbVisualStyle
  2
Conceptual
 70
     9
177
     2
291
     0
 71
     3
176
     1
 72
     2
176
     1
 73
     0
176
     1
 90
        0
176
     1
 40
-0.6
176
     1
 41
-30.0
176
     1
 62
     5
 63
     7
421
 16777215
176
     1
 74
     2
176
     1
 91
        2
176
     1
 64
     7
176
     1
 65
   257
176
     1
 75
     1
176
     1
175
     1
176
     1
 42
40.0
176
     1
 92
        8
176
     1
 66
     7
176
     1
 43
1.0
176
     1
 76
     1
176
     1
 77
     6
176
     1
 78
     2
176
     1
 67
     7
176
     1
 79
     3
176
     1
170
     0
176
     1
171
     0
176
     1
290
     0
176
     1
 93
        1
176
     1
 44
0.0
176
     1
173
     0
176
     1
  0
VISUALSTYLE
  5
35
102
{ACAD_REACTORS
330
2A
102
}
330
2A
100
AcDbVisualStyle
  2
Dim
 70
    11
177
     2
291
     1
 71
     2
176
     1
 72
     2
176
     1
 73
     0
176
     1
 90
        0
176
     1
 40
-0.6
176
     1
 41
-30.0
176
     1
 62
     5
 63
     7
421
 16777215
176
     1
 74
     1
176
     1
 91
        4
176
     1
 64
     7
176
     1
 65
   257
176
     1
 75
     1
176
     1
175
     1
176
     1
 42
1.0
176
     1
 92
        8
176
     1
 66
     7
176
     1
 43
1.0
176
     1
 76
     1
176
     1
 77
     6
176
     1
 78
     2
176
     1
 67
     7
176
     1
 79
     5
176
     1
170
     0
176
     1
171
     0
176
     1
290
     0
176
     1
 93
        1
176
     1
 44
-50.0
176
     1
173
     0
176
     1
  0
VISUALSTYLE
  5
39
102
{ACAD_REACTORS
330
2A
102
}
330
2A
100
AcDbVisualStyle
  2
Facepattern
 70
    15
177
     2
291
     1
 71
     2
176
     1
 72
     2
176
     1
 73
     0
176
     1
 90
        0
176
     1
 40
-0.6
176
     1
 41
-30.0
176
     1
 62
     5
 63
     7
421
 16777215
176
     1
 74
     1
176
     1
 91
        4
176
     1
 64
     7
176
     1
 65
   257
176
     1
 75
     1
176
     1
175
     1
176
     1
 42
1.0
176
     1
 92
        8
176
     1
 66
     7
176
     1
 43
1.0
176
     1
 76
     1
176
     1
 77
     6
176
     1
 78
     2
176
     1
 67
     7
176
     1
 79
     5
176
     1
170
     0
176
     1
171
     0
176
     1
290
     0
176
     1
 93
        1
176
     1
 44
0.0
176
     1
173
     0
176
     1
  0
VISUALSTYLE
  5
2B
102
{ACAD_REACTORS
330
2A
102
}
330
2A
100
AcDbVisualStyle
  2
Flat
 70
     0
177
     2
291
     1
 71
     2
176
     1
 72
     1
176
     1
 73
     1
176
     1
 90
        2
176
     1
 40
-0.6
176
     1
 41
30.0
176
     1
 62
     5
 63
     7
421
 16777215
176
     1
 74
     0
176
     1
 91
        4
176
     1
 64
     7
176
     1
 65
   257
176
     1
 75
     1
176
     1
175
     1
176
     1
 42
1.0
176
     1
 92
        8
176
     1
 66
     7
176
     1
 43
1.0
176
     1
 76
     1
176
     1
 77
     6
176
     1
 78
     2
176
     1
 67
     7
176
     1
 79
     5
176
     1
170
     0
176
     1
171
     0
176
     1
290
     0
176
     1
 93
       13
176
     1
 44
0.0
176
     1
173
     0
176
     1
  0
VISUALSTYLE
  5
2C
102
{ACAD_REACTORS
330
2A
102
}
330
2A
100
AcDbVisualStyle
  2
FlatWithEdges
 70
     1
177
     2
291
     1
 71
     2
176
     1
 72
     1
176
     1
 73
     1
176
     1
 90
        2
176
     1
 40
-0.6
176
     1
 41
30.0
176
     1
 62
     5
 63
     7
421
 16777215
176
     1
 74
     1
176
     1
 91
        4
176
     1
 64
     7
176
     1
 65
   257
176
     1
 75
     1
176
     1
175
     1
176
     1
 42
1.0
176
     1
 92
        0
176
     1
 66
   257
176
     1
 43
1.0
176
     1
 76
     1
176
     1
 77
     6
176
     1
 78
     2
176
     1
 67
     7
176
     1
 79
     5
176
     1
170
     0
176
     1
171
     0
176
     1
290
     0
176
     1
 93
       13
176
     1
 44
0.0
176
     1
173
     0
176
     1
  0
VISUALSTYLE
  5
2D
102
{ACAD_REACTORS
330
2A
102
}
330
2A
100
AcDbVisualStyle
  2
Gouraud
 70
     2
177
     2
291
     1
 71
     2
176
     1
 72
     2
176
     1
 73
     1
176
     1
 90
        2
176
     1
 40
-0.6
176
     1
 41
30.0
176
     1
 62
     5
 63
     7
421
 16777215
176
     1
 74
     0
176
     1
 91
        4
176
     1
 64
     7
176
     1
 65
   257
176
     1
 75
     1
176
     1
175
     1
176
     1
 42
1.0
176
     1
 92
        0
176
     1
 66
     7
176
     1
 43
1.0
176
     1
 76
     1
176
     1
 77
     6
176
     1
 78
     2
176
     1
 67
     7
176
     1
 79
     5
176
     1
170
     0
176
     1
171
     0
176
     1
290
     0
176
     1
 93
       13
176
     1
 44
0.0
176
     1
173
     0
176
     1
  0
VISUALSTYLE
  5
2E
102
{ACAD_REACTORS
330
2A
102
}
330
2A
100
AcDbVisualStyle
  2
GouraudWithEdges
 70
     3
177
     2
291
     1
 71
     2
176
     1
 72
     2
176
     1
 73
     1
176
     1
 90
        2
176
     1
 40
-0.6
176
     1
 41
30.0
176
     1
 62
     5
 63
     7
421
 16777215
176
     1
 74
     1
176
     1
 91
        4
176
     1
 64
     7
176
     1
 65
   257
176
     1
 75
     1
176
     1
175
     1
176
     1
 42
1.0
176
     1
 92
        0
176
     1
 66
   257
176
     1
 43
1.0
176
     1
 76
     1
176
     1
 77
     6
176
     1
 78
     2
176
     1
 67
     7
176
     1
 79
     5
176
     1
170
     0
176
     1
171
     0
176
     1
290
     0
176
     1
 93
       13
176
     1
 44
0.0
176
     1
173
     0
176
     1
  0
VISUALSTYLE
  5
38
102
{ACAD_REACTORS
330
2A
102
}
330
2A
100
AcDbVisualStyle
  2
Linepattern
 70
    14
177
     2
291
     1
 71
     2
176
     1
 72
     2
176
     1
 73
     0
176
     1
 90
        0
176
     1
 40
-0.6
176
     1
 41
-30.0
176
     1
 62
     5
 63
     7
421
 16777215
176
     1
 74
     1
176
     1
 91
        4
176
     1
 64
     7
176
     1
 65
   257
176
     1
 75
     7
176
     1
175
     7
176
     1
 42
1.0
176
     1
 92
        8
176
     1
 66
     7
176
     1
 43
1.0
176
     1
 76
     1
176
     1
 77
     6
176
     1
 78
     2
176
     1
 67
     7
176
     1
 79
     5
176
     1
170
     0
176
     1
171
     0
176
     1
290
     0
176
     1
 93
        1
176
     1
 44
0.0
176
     1
173
     0
176
     1
  0
VISUALSTYLE
  5
33
102
{ACAD_REACTORS
330
2A
102
}
330
2A
100
AcDbVisualStyle
  2
Realistic
 70
     8
177
     2
291
     0
 71
     2
176
     1
 72
     2
176
     1
 73
     0
176
     1
 90
        0
176
     1
 40
-0.6
176
     1
 41
-30.0
176
     1
 62
     5
 63
     7
421
 16777215
176
     1
 74
     1
176
     1
 91
        0
176
     1
 64
     7
176
     1
 65
   257
176
     1
 75
     1
176
     1
175
     1
176
     1
 42
1.0
176
     1
 92
        8
176
     1
 66
     8
424
  7895160
176
     1
 43
1.0
176
     1
 76
     1
176
     1
 77
     6
176
     1
 78
     2
176
     1
 67
     7
176
     1
 79
     5
176
     1
170
     0
176
     1
171
     0
176
     1
290
     0
176
     1
 93
       13
176
     1
 44
0.0
176
     1
173
     0
176
     1
  0
VISUALSTYLE
  5
37
102
{ACAD_REACTORS
330
2A
102
}
330
2A
100
AcDbVisualStyle
  2
Thicken
 70
    13
177
     2
291
     1
 71
     2
176
     1
 72
     2
176
     1
 73
     0
176
     1
 90
        0
176
     1
 40
-0.6
176
     1
 41
-30.0
176
     1
 62
     5
 63
     7
421
 16777215
176
     1
 74
     1
176
     1
 91
        4
176
     1
 64
     7
176
     1
 65
   257
176
     1
 75
     1
176
     1
175
     1
176
     1
 42
1.0
176
     1
 92
       12
176
     1
 66
     7
176
     1
 43
1.0
176
     1
 76
     1
176
     1
 77
     6
176
     1
 78
     2
176
     1
 67
     7
176
     1
 79
     5
176
     1
170
     0
176
     1
171
     0
176
     1
290
     0
176
     1
 93
        1
176
     1
 44
0.0
176
     1
173
     0
176
     1
  0
ENDSEC
  0
EOF
