  0
SECTION
  2
HEADER
  9
$ACADVER
  1
AC1024
  9
$ACADMAINTVER
 70
     6
  9
$DWGCODEPAGE
  3
ANSI_1251
  9
$INSBASE
 10
0.0
 20
0.0
 30
0.0
  9
$EXTMIN
 10
1.000000000000000E+20
 20
1.000000000000000E+20
 30
1.000000000000000E+20
  9
$EXTMAX
 10
-1.000000000000000E+20
 20
-1.000000000000000E+20
 30
-1.000000000000000E+20
  9
$LIMMIN
 10
0.0
 20
0.0
  9
$LIMMAX
 10
12.0
 20
9.0
  9
$ORTHOMODE
 70
     0
  9
$REGENMODE
 70
     1
  9
$FILLMODE
 70
     1
  9
$QTEXTMODE
 70
     0
  9
$MIRRTEXT
 70
     1
  9
$LTSCALE
 40
1.0
  9
$ATTMODE
 70
     1
  9
$TEXTSIZE
 40
0.2
  9
$TRACEWID
 40
0.05
  9
$TEXTSTYLE
  7
Standard
  9
$CLAYER
  8
0
  9
$CELTYPE
  6
ByLayer
  9
$CECOLOR
 62
   256
  9
$CELTSCALE
 40
1.0
  9
$DISPSILH
 70
     0
  9
$DIMSCALE
 40
1.0
  9
$DIMASZ
 40
0.18
  9
$DIMEXO
 40
0.0625
  9
$DIMDLI
 40
0.38
  9
$DIMRND
 40
0.0
  9
$DIMDLE
 40
0.0
  9
$DIMEXE
 40
0.18
  9
$DIMTP
 40
0.0
  9
$DIMTM
 40
0.0
  9
$DIMTXT
 40
0.18
  9
$DIMCEN
 40
0.09
  9
$DIMTSZ
 40
0.0
  9
$DIMTOL
 70
     0
  9
$DIMLIM
 70
     0
  9
$DIMTIH
 70
     1
  9
$DIMTOH
 70
     1
  9
$DIMSE1
 70
     0
  9
$DIMSE2
 70
     0
  9
$DIMTAD
 70
     0
  9
$DIMZIN
 70
     0
  9
$DIMBLK
  1

  9
$DIMASO
 70
     1
  9
$DIMSHO
 70
     1
  9
$DIMPOST
  1

  9
$DIMAPOST
  1

  9
$DIMALT
 70
     0
  9
$DIMALTD
 70
     2
  9
$DIMALTF
 40
25.4
  9
$DIMLFAC
 40
1.0
  9
$DIMTOFL
 70
     0
  9
$DIMTVP
 40
0.0
  9
$DIMTIX
 70
     0
  9
$DIMSOXD
 70
     0
  9
$DIMSAH
 70
     0
  9
$DIMBLK1
  1

  9
$DIMBLK2
  1

  9
$DIMSTYLE
  2
Standard
  9
$DIMCLRD
 70
     0
  9
$DIMCLRE
 70
     0
  9
$DIMCLRT
 70
     0
  9
$DIMTFAC
 40
1.0
  9
$DIMGAP
 40
0.09
  9
$DIMJUST
 70
     0
  9
$DIMSD1
 70
     0
  9
$DIMSD2
 70
     0
  9
$DIMTOLJ
 70
     1
  9
$DIMTZIN
 70
     0
  9
$DIMALTZ
 70
     0
  9
$DIMALTTZ
 70
     0
  9
$DIMUPT
 70
     0
  9
$DIMDEC
 70
     4
  9
$DIMTDEC
 70
     4
  9
$DIMALTU
 70
     2
  9
$DIMALTTD
 70
     2
  9
$DIMTXSTY
  7
Standard
  9
$DIMAUNIT
 70
     0
  9
$DIMADEC
 70
     0
  9
$DIMALTRND
 40
0.0
  9
$DIMAZIN
 70
     0
  9
$DIMDSEP
 70
    46
  9
$DIMATFIT
 70
     3
  9
$DIMFRAC
 70
     0
  9
$DIMLDRBLK
  1

  9
$DIMLUNIT
 70
     2
  9
$DIMLWD
 70
    -2
  9
$DIMLWE
 70
    -2
  9
$DIMTMOVE
 70
     0
  9
$DIMFXL
 40
1.0
  9
$DIMFXLON
 70
     0
  9
$DIMJOGANG
 40
0.7853981633974483
  9
$DIMTFILL
 70
     0
  9
$DIMTFILLCLR
 70
     0
  9
$DIMARCSYM
 70
     0
  9
$DIMLTYPE
  6

  9
$DIMLTEX1
  6

  9
$DIMLTEX2
  6

  9
$DIMTXTDIRECTION
 70
     0
  9
$LUNITS
 70
     2
  9
$LUPREC
 70
     4
  9
$SKETCHINC
 40
0.1
  9
$FILLETRAD
 40
0.5
  9
$AUNITS
 70
     0
  9
$AUPREC
 70
     0
  9
$MENU
  1
.
  9
$ELEVATION
 40
0.0
  9
$PELEVATION
 40
0.0
  9
$THICKNESS
 40
0.0
  9
$LIMCHECK
 70
     0
  9
$CHAMFERA
 40
0.5
  9
$CHAMFERB
 40
0.5
  9
$CHAMFERC
 40
1.0
  9
$CHAMFERD
 40
0.0
  9
$SKPOLY
 70
     0
  9
$TDCREATE
 40
2459337.687058067
  9
$TDUCREATE
 40
2459337.562058067
  9
$TDUPDATE
 40
2459337.687058067
  9
$TDUUPDATE
 40
2459337.562058067
  9
$TDINDWG
 40
0.0000000116
  9
$TDUSRTIMER
 40
0.0000000116
  9
$USRTIMER
 70
     1
  9
$ANGBASE
 50
0.0
  9
$ANGDIR
 70
     0
  9
$PDMODE
 70
     0
  9
$PDSIZE
 40
0.0
  9
$PLINEWID
 40
0.0
  9
$SPLFRAME
 70
     0
  9
$SPLINETYPE
 70
     6
  9
$SPLINESEGS
 70
     8
  9
$HANDSEED
  5
62
  9
$SURFTAB1
 70
     6
  9
$SURFTAB2
 70
     6
  9
$SURFTYPE
 70
     6
  9
$SURFU
 70
     6
  9
$SURFV
 70
     6
  9
$UCSBASE
  2

  9
$UCSNAME
  2

  9
$UCSORG
 10
0.0
 20
0.0
 30
0.0
  9
$UCSXDIR
 10
1.0
 20
0.0
 30
0.0
  9
$UCSYDIR
 10
0.0
 20
1.0
 30
0.0
  9
$UCSORTHOREF
  2

  9
$UCSORTHOVIEW
 70
     0
  9
$UCSORGTOP
 10
0.0
 20
0.0
 30
0.0
  9
$UCSORGBOTTOM
 10
0.0
 20
0.0
 30
0.0
  9
$UCSORGLEFT
 10
0.0
 20
0.0
 30
0.0
  9
$UCSORGRIGHT
 10
0.0
 20
0.0
 30
0.0
  9
$UCSORGFRONT
 10
0.0
 20
0.0
 30
0.0
  9
$UCSORGBACK
 10
0.0
 20
0.0
 30
0.0
  9
$PUCSBASE
  2

  9
$PUCSNAME
  2

  9
$PUCSORG
 10
0.0
 20
0.0
 30
0.0
  9
$PUCSXDIR
 10
1.0
 20
0.0
 30
0.0
  9
$PUCSYDIR
 10
0.0
 20
1.0
 30
0.0
  9
$PUCSORTHOREF
  2

  9
$PUCSORTHOVIEW
 70
     0
  9
$PUCSORGTOP
 10
0.0
 20
0.0
 30
0.0
  9
$PUCSORGBOTTOM
 10
0.0
 20
0.0
 30
0.0
  9
$PUCSORGLEFT
 10
0.0
 20
0.0
 30
0.0
  9
$PUCSORGRIGHT
 10
0.0
 20
0.0
 30
0.0
  9
$PUCSORGFRONT
 10
0.0
 20
0.0
 30
0.0
  9
$PUCSORGBACK
 10
0.0
 20
0.0
 30
0.0
  9
$USERI1
 70
     0
  9
$USERI2
 70
     0
  9
$USERI3
 70
     0
  9
$USERI4
 70
     0
  9
$USERI5
 70
     0
  9
$USERR1
 40
0.0
  9
$USERR2
 40
0.0
  9
$USERR3
 40
0.0
  9
$USERR4
 40
0.0
  9
$USERR5
 40
0.0
  9
$WORLDVIEW
 70
     1
  9
$SHADEDGE
 70
     3
  9
$SHADEDIF
 70
    70
  9
$TILEMODE
 70
     1
  9
$MAXACTVP
 70
    64
  9
$PINSBASE
 10
0.0
 20
0.0
 30
0.0
  9
$PLIMCHECK
 70
     0
  9
$PEXTMIN
 10
1.000000000000000E+20
 20
1.000000000000000E+20
 30
1.000000000000000E+20
  9
$PEXTMAX
 10
-1.000000000000000E+20
 20
-1.000000000000000E+20
 30
-1.000000000000000E+20
  9
$PLIMMIN
 10
0.0
 20
0.0
  9
$PLIMMAX
 10
12.0
 20
9.0
  9
$UNITMODE
 70
     0
  9
$VISRETAIN
 70
     1
  9
$PLINEGEN
 70
     0
  9
$PSLTSCALE
 70
     1
  9
$TREEDEPTH
 70
  3020
  9
$CMLSTYLE
  2
Standard
  9
$CMLJUST
 70
     0
  9
$CMLSCALE
 40
1.0
  9
$PROXYGRAPHICS
 70
     1
  9
$MEASUREMENT
 70
     0
  9
$CELWEIGHT
370
    -1
  9
$ENDCAPS
280
     0
  9
$JOINSTYLE
280
     0
  9
$LWDISPLAY
290
     1
  9
$INSUNITS
 70
     1
  9
$HYPERLINKBASE
  1

  9
$STYLESHEET
  1

  9
$XEDIT
290
     1
  9
$CEPSNTYPE
380
     0
  9
$PSTYLEMODE
290
     1
  9
$FINGERPRINTGUID
  2
{D6DBAE22-8BA4-44EC-A182-83595D52AEB4}
  9
$VERSIONGUID
  2
{FAEB1C32-E019-11D5-929B-00C0DF256EC4}
  9
$EXTNAMES
290
     1
  9
$PSVPSCALE
 40
0.0
  9
$OLESTARTUP
290
     0
  9
$SORTENTS
280
   127
  9
$INDEXCTL
280
     0
  9
$HIDETEXT
280
     1
  9
$XCLIPFRAME
280
     2
  9
$HALOGAP
280
     0
  9
$OBSCOLOR
 70
   257
  9
$OBSLTYPE
280
     0
  9
$INTERSECTIONDISPLAY
280
     0
  9
$INTERSECTIONCOLOR
 70
   257
  9
$DIMASSOC
280
     2
  9
$PROJECTNAME
  1

  9
$CAMERADISPLAY
290
     0
  9
$LENSLENGTH
 40
50.0
  9
$CAMERAHEIGHT
 40
0.0
  9
$STEPSPERSEC
 40
2.0
  9
$STEPSIZE
 40
6.0
  9
$3DDWFPREC
 40
2.0
  9
$PSOLWIDTH
 40
0.25
  9
$PSOLHEIGHT
 40
4.0
  9
$LOFTANG1
 40
1.570796326794897
  9
$LOFTANG2
 40
1.570796326794897
  9
$LOFTMAG1
 40
0.0
  9
$LOFTMAG2
 40
0.0
  9
$LOFTPARAM
 70
     7
  9
$LOFTNORMALS
280
     1
  9
$LATITUDE
 40
37.795
  9
$LONGITUDE
 40
-122.394
  9
$NORTHDIRECTION
 40
0.0
  9
$TIMEZONE
 70
 -8000
  9
$LIGHTGLYPHDISPLAY
280
     1
  9
$TILEMODELIGHTSYNCH
280
     1
  9
$CMATERIAL
347
3C
  9
$SOLIDHIST
280
     1
  9
$SHOWHIST
280
     1
  9
$DWFFRAME
280
     2
  9
$DGNFRAME
280
     2
  9
$REALWORLDSCALE
290
     1
  9
$INTERFERECOLOR
 62
   256
  9
$CSHADOW
280
     0
  9
$SHADOWPLANELOCATION
 40
0.0
  0
ENDSEC
  0
SECTION
  2
CLASSES
  0
CLASS
  1
ACDBDICTIONARYWDFLT
  2
AcDbDictionaryWithDefault
  3
ObjectDBX Classes
 90
        0
 91
        4
280
     0
281
     0
  0
CLASS
  1
VISUALSTYLE
  2
AcDbVisualStyle
  3
ObjectDBX Classes
 90
     4095
 91
        4
280
     0
281
     0
  0
CLASS
  1
MATERIAL
  2
AcDbMaterial
  3
ObjectDBX Classes
 90
     1153
 91
        4
280
     0
281
     0
  0
CLASS
  1
SUN
  2
AcDbSun
  3
SCENEOE
 90
     1024
 91
        4
280
     0
281
     0
  0
ENDSEC
  0
SECTION
  2
TABLES
  0
TABLE
  2
VPORT
  5
8
330
0
100
AcDbSymbolTable
 70
     1
  0
VPORT
  5
29
330
8
100
AcDbSymbolTableRecord
100
AcDbViewportTableRecord
  2
*Active
 70
     0
 10
0.0
 20
0.0
 11
1.0
 21
1.0
 12
0.0
 22
0.0
 13
0.0
 23
0.0
 14
0.5
 24
0.5
 15
0.5
 25
0.5
 16
0.0
 26
0.0
 36
1.0
 17
5.558990187450844
 27
-18.81944444444444
 37
0.0
 40
12.0
 41
0.5959312349455104
 42
50.0
 43
0.0
 44
0.0
 50
0.0
 51
0.0
 71
     0
 72
   100
 73
     1
 74
     3
 75
     0
 76
     0
 77
     0
 78
     0
281
     0
 65
     1
110
0.0
120
0.0
130
0.0
111
1.0
121
0.0
131
0.0
112
0.0
122
1.0
132
0.0
 79
     0
146
0.0
 60
     3
 61
     5
292
     1
282
     1
141
0.0
142
0.0
 63
   250
361
3F
  0
ENDTAB
  0
TABLE
  2
LTYPE
  5
5
330
0
100
AcDbSymbolTable
 70
     1
  0
LTYPE
  5
14
330
5
100
AcDbSymbolTableRecord
100
AcDbLinetypeTableRecord
  2
ByBlock
 70
     0
  3

 72
    65
 73
     0
 40
0.0
  0
LTYPE
  5
15
330
5
100
AcDbSymbolTableRecord
100
AcDbLinetypeTableRecord
  2
ByLayer
 70
     0
  3

 72
    65
 73
     0
 40
0.0
  0
LTYPE
  5
16
330
5
100
AcDbSymbolTableRecord
100
AcDbLinetypeTableRecord
  2
Continuous
 70
     0
  3
Solid line
 72
    65
 73
     0
 40
0.0
  0
ENDTAB
  0
TABLE
  2
LAYER
  5
2
330
0
100
AcDbSymbolTable
 70
     2
  0
LAYER
  5
10
330
2
100
AcDbSymbolTableRecord
100
AcDbLayerTableRecord
  2
0
 70
     0
 62
     7
  6
Continuous
370
    -3
390
F
347
3E
  0
LAYER
  5
40
330
2
100
AcDbSymbolTableRecord
100
AcDbLayerTableRecord
  2
Layer 1
 70
     0
 62
     7
  6
Continuous
370
    -3
390
F
347
3E
  0
ENDTAB
  0
TABLE
  2
STYLE
  5
3
330
0
100
AcDbSymbolTable
 70
     1
  0
STYLE
  5
11
330
3
100
AcDbSymbolTableRecord
100
AcDbTextStyleTableRecord
  2
Standard
 70
     0
 40
0.0
 41
1.0
 50
0.0
 71
     0
 42
0.2
  3
txt
  4

  0
ENDTAB
  0
TABLE
  2
VIEW
  5
6
330
0
100
AcDbSymbolTable
 70
     0
  0
ENDTAB
  0
TABLE
  2
UCS
  5
7
330
0
100
AcDbSymbolTable
 70
     0
  0
ENDTAB
  0
TABLE
  2
APPID
  5
9
330
0
100
AcDbSymbolTable
 70
     1
  0
APPID
  5
12
330
9
100
AcDbSymbolTableRecord
100
AcDbRegAppTableRecord
  2
ACAD
 70
     0
  0
ENDTAB
  0
TABLE
  2
DIMSTYLE
  5
A
330
0
100
AcDbSymbolTable
 70
     1
100
AcDbDimStyleTable
  0
DIMSTYLE
105
27
330
A
100
AcDbSymbolTableRecord
100
AcDbDimStyleTableRecord
  2
Standard
 70
     0
178
     0
340
11
  0
ENDTAB
  0
TABLE
  2
BLOCK_RECORD
  5
1
330
0
100
AcDbSymbolTable
 70
     4
  0
BLOCK_RECORD
  5
1F
330
1
100
AcDbSymbolTableRecord
100
AcDbBlockTableRecord
  2
*Model_Space
340
22
 70
     0
280
     1
281
     0
  0
BLOCK_RECORD
  5
1B
330
1
100
AcDbSymbolTableRecord
100
AcDbBlockTableRecord
  2
*Paper_Space
340
1E
 70
     0
280
     1
281
     0
  0
BLOCK_RECORD
  5
23
330
1
100
AcDbSymbolTableRecord
100
AcDbBlockTableRecord
  2
*Paper_Space0
340
26
 70
     0
280
     1
281
     0
  0
BLOCK_RECORD
  5
43
330
1
100
AcDbSymbolTableRecord
100
AcDbBlockTableRecord
  2
block 2
340
0
102
{BLKREFS
331
44
102
}
 70
     0
280
     1
281
     0
  0
BLOCK_RECORD
  5
4E
330
1
100
AcDbSymbolTableRecord
100
AcDbBlockTableRecord
  2
block 3
340
0
102
{BLKREFS
331
4F
102
}
 70
     0
280
     1
281
     0
  0
BLOCK_RECORD
  5
57
330
1
100
AcDbSymbolTableRecord
100
AcDbBlockTableRecord
  2
block 4
340
0
102
{BLKREFS
331
58
102
}
 70
     0
280
     1
281
     0
  0
ENDTAB
  0
ENDSEC
  0
SECTION
  2
BLOCKS
  0
BLOCK
  5
20
330
1F
100
AcDbEntity
  8
0
100
AcDbBlockBegin
  2
*Model_Space
 70
     0
 10
0.0
 20
0.0
 30
0.0
  3
*Model_Space
  1

  0
ENDBLK
  5
21
330
1F
100
AcDbEntity
  8
0
100
AcDbBlockEnd
  0
BLOCK
  5
1C
330
1B
100
AcDbEntity
 67
     1
  8
0
100
AcDbBlockBegin
  2
*Paper_Space
 70
     0
 10
0.0
 20
0.0
 30
0.0
  3
*Paper_Space
  1

  0
ENDBLK
  5
1D
330
1B
100
AcDbEntity
 67
     1
  8
0
100
AcDbBlockEnd
  0
BLOCK
  5
24
330
23
100
AcDbEntity
  8
0
100
AcDbBlockBegin
  2
*Paper_Space0
 70
     0
 10
0.0
 20
0.0
 30
0.0
  3
*Paper_Space0
  1

  0
ENDBLK
  5
25
330
23
100
AcDbEntity
  8
0
100
AcDbBlockEnd
  0
BLOCK
  5
45
330
43
100
AcDbEntity
  8
0
100
AcDbBlockBegin
  2
block 2
 70
     0
 10
0.0
 20
0.0
 30
0.0
  3
block 2
  1

  0
SPLINE
  5
47
330
43
100
AcDbEntity
  8
Layer 1
370
     0
100
AcDbSpline
210
0.0
220
0.0
230
1.0
 70
    11
 71
     3
 72
    35
 73
    31
 74
     0
 42
0.0000000001
 43
0.0000000001
 12
1.0
 22
0.0
 32
0.0
 13
1.0
 23
0.0
 33
0.0
 40
0.0
 40
0.0
 40
0.0
 40
0.0
 40
1.0
 40
1.0
 40
1.0
 40
2.0
 40
2.0
 40
2.0
 40
3.0
 40
3.0
 40
3.0
 40
4.0
 40
4.0
 40
4.0
 40
5.0
 40
5.0
 40
5.0
 40
6.0
 40
6.0
 40
6.0
 40
7.0
 40
7.0
 40
7.0
 40
8.0
 40
8.0
 40
8.0
 40
9.0
 40
9.0
 40
9.0
 40
10.0
 40
10.0
 40
10.0
 40
10.0
 10
8.087035906815395
 20
-13.83149861111111
 30
0.0
 10
7.412023423867645
 20
-13.17888888888889
 30
0.0
 10
6.513866502112553
 20
-12.81944444444444
 30
0.0
 10
5.558759581796139
 20
-12.81944444444444
 30
0.0
 10
4.603651272590873
 20
-12.81944444444444
 30
0.0
 10
3.705966573046074
 20
-13.17888888888889
 30
0.0
 10
3.03047770122147
 20
-13.83149861111111
 30
0.0
 10
2.354992996063427
 20
-14.48411388888889
 30
0.0
 10
1.983402777777782
 20
-15.35145972222222
 30
0.0
 10
1.983402777777782
 20
-16.27435833333334
 30
0.0
 10
1.983402777777782
 20
-16.27435833333334
 30
0.0
 10
1.983402777777782
 20
-21.3649986111111
 30
0.0
 10
1.983402777777782
 20
-21.3649986111111
 30
0.0
 10
1.983402777777782
 20
-22.28790000000001
 30
0.0
 10
2.354992996063427
 20
-23.15524166666667
 30
0.0
 10
3.03047770122147
 20
-23.8078513888889
 30
0.0
 10
3.705966573046074
 20
-24.4604625
 30
0.0
 10
4.603651272590873
 20
-24.81944444444444
 30
0.0
 10
5.558759581796139
 20
-24.81944444444444
 30
0.0
 10
6.513866502112553
 20
-24.81944444444444
 30
0.0
 10
7.412023423867645
 20
-24.4604625
 30
0.0
 10
8.087035906815395
 20
-23.8078513888889
 30
0.0
 10
8.76252477864
 20
-23.15524166666667
 30
0.0
 10
9.134577547018933
 20
-22.28790000000001
 30
0.0
 10
9.134577547018933
 20
-21.3649986111111
 30
0.0
 10
9.134577547018933
 20
-21.3649986111111
 30
0.0
 10
9.134577547018933
 20
-16.27435833333334
 30
0.0
 10
9.134577547018933
 20
-16.27435833333334
 30
0.0
 10
9.134577547018933
 20
-15.35145972222222
 30
0.0
 10
8.76252477864
 20
-14.48411388888889
 30
0.0
 10
8.087035906815395
 20
-13.83149861111111
 30
0.0
  0
SPLINE
  5
48
330
43
100
AcDbEntity
  8
Layer 1
370
     0
100
AcDbSpline
210
0.0
220
0.0
230
1.0
 70
    11
 71
     3
 72
    26
 73
    22
 74
     0
 42
0.0000000001
 43
0.0000000001
 12
1.0
 22
0.0
 32
0.0
 13
1.0
 23
0.0
 33
0.0
 40
0.0
 40
0.0
 40
0.0
 40
0.0
 40
1.0
 40
1.0
 40
1.0
 40
2.0
 40
2.0
 40
2.0
 40
3.0
 40
3.0
 40
3.0
 40
4.0
 40
4.0
 40
4.0
 40
5.0
 40
5.0
 40
5.0
 40
6.0
 40
6.0
 40
6.0
 40
7.0
 40
7.0
 40
7.0
 40
7.0
 10
8.98565810633651
 20
-21.3649986111111
 30
0.0
 10
8.98565810633651
 20
-22.27809166666667
 30
0.0
 10
8.601467838264195
 20
-23.10575833333334
 30
0.0
 10
7.980606742837355
 20
-23.70514722222222
 30
0.0
 10
7.360206758509977
 20
-24.3050125
 30
0.0
 10
6.503597222222222
 20
-24.67613194444445
 30
0.0
 10
5.558759581796139
 20
-24.67613194444445
 30
0.0
 10
3.669083333333333
 20
-24.67613194444445
 30
0.0
 10
2.131855501700354
 20
-23.19071527777777
 30
0.0
 10
2.131855501700354
 20
-21.3649986111111
 30
0.0
 10
2.131855501700354
 20
-21.3649986111111
 30
0.0
 10
2.131855501700354
 20
-16.27435833333334
 30
0.0
 10
2.131855501700354
 20
-16.27435833333334
 30
0.0
 10
2.131855501700354
 20
-14.44863611111111
 30
0.0
 10
3.669083333333333
 20
-12.96322916666666
 30
0.0
 10
5.558759581796139
 20
-12.96322916666666
 30
0.0
 10
7.448434534058934
 20
-12.96322916666666
 30
0.0
 10
8.98565810633651
 20
-14.44863611111111
 30
0.0
 10
8.98565810633651
 20
-16.27435833333334
 30
0.0
 10
8.98565810633651
 20
-16.27435833333334
 30
0.0
 10
8.98565810633651
 20
-21.3649986111111
 30
0.0
 10
8.98565810633651
 20
-21.3649986111111
 30
0.0
  0
ENDBLK
  5
46
330
43
100
AcDbEntity
  8
0
100
AcDbBlockEnd
  0
BLOCK
  5
50
330
4E
100
AcDbEntity
  8
0
100
AcDbBlockBegin
  2
block 3
 70
     0
 10
0.0
 20
0.0
 30
0.0
  3
block 3
  1

  0
SPLINE
  5
52
330
4E
100
AcDbEntity
  8
Layer 1
370
     0
100
AcDbSpline
210
0.0
220
0.0
230
1.0
 70
    11
 71
     3
 72
    26
 73
    22
 74
     0
 42
0.0000000001
 43
0.0000000001
 12
1.0
 22
0.0
 32
0.0
 13
1.0
 23
0.0
 33
0.0
 40
0.0
 40
0.0
 40
0.0
 40
0.0
 40
1.0
 40
1.0
 40
1.0
 40
2.0
 40
2.0
 40
2.0
 40
3.0
 40
3.0
 40
3.0
 40
4.0
 40
4.0
 40
4.0
 40
5.0
 40
5.0
 40
5.0
 40
6.0
 40
6.0
 40
6.0
 40
7.0
 40
7.0
 40
7.0
 40
7.0
 10
6.560081778722835
 20
-22.16932361111111
 30
0.0
 10
6.297267896473183
 20
-22.17025694444444
 30
0.0
 10
6.086266512914638
 20
-21.95785555555555
 30
0.0
 10
6.085795679593199
 20
-21.69689999999999
 30
0.0
 10
6.084395679628566
 20
-21.44669166666666
 30
0.0
 10
6.281391507985366
 20
-21.23242222222221
 30
0.0
 10
6.540008168118826
 20
-21.22308611111112
 30
0.0
 10
6.398562338358715
 20
-21.2758361111111
 30
0.0
 10
6.298663729771255
 20
-21.41541388888888
 30
0.0
 10
6.301927618577691
 20
-21.57553194444444
 30
0.0
 10
6.306133174027005
 20
-21.77719722222223
 30
0.0
 10
6.470452614320392
 20
-21.93544861111112
 30
0.0
 10
6.671188720360482
 20
-21.93498194444444
 30
0.0
 10
6.85090399359827
 20
-21.93170972222222
 30
0.0
 10
6.997027777777778
 20
-21.80567361111111
 30
0.0
 10
7.029699822414841
 20
-21.63948194444444
 30
0.0
 10
7.031572044589766
 20
-21.65629166666668
 30
0.0
 10
7.032972222222219
 20
-21.67309722222222
 30
0.0
 10
7.032972222222219
 20
-21.69036944444444
 30
0.0
 10
7.034834544507349
 20
-21.95692222222222
 30
0.0
 10
6.824766494258559
 20
-22.16839027777779
 30
0.0
 10
6.560081778722835
 20
-22.16932361111111
 30
0.0
  0
ENDBLK
  5
51
330
4E
100
AcDbEntity
  8
0
100
AcDbBlockEnd
  0
BLOCK
  5
59
330
57
100
AcDbEntity
  8
0
100
AcDbBlockBegin
  2
block 4
 70
     0
 10
0.0
 20
0.0
 30
0.0
  3
block 4
  1

  0
SPLINE
  5
5B
330
57
100
AcDbEntity
  8
Layer 1
370
     0
100
AcDbSpline
210
0.0
220
0.0
230
1.0
 70
    11
 71
     3
 72
   206
 73
   202
 74
     0
 42
0.0000000001
 43
0.0000000001
 12
1.0
 22
0.0
 32
0.0
 13
1.0
 23
0.0
 33
0.0
 40
0.0
 40
0.0
 40
0.0
 40
0.0
 40
1.0
 40
1.0
 40
1.0
 40
2.0
 40
2.0
 40
2.0
 40
3.0
 40
3.0
 40
3.0
 40
4.0
 40
4.0
 40
4.0
 40
5.0
 40
5.0
 40
5.0
 40
6.0
 40
6.0
 40
6.0
 40
7.0
 40
7.0
 40
7.0
 40
8.0
 40
8.0
 40
8.0
 40
9.0
 40
9.0
 40
9.0
 40
10.0
 40
10.0
 40
10.0
 40
11.0
 40
11.0
 40
11.0
 40
12.0
 40
12.0
 40
12.0
 40
13.0
 40
13.0
 40
13.0
 40
14.0
 40
14.0
 40
14.0
 40
15.0
 40
15.0
 40
15.0
 40
16.0
 40
16.0
 40
16.0
 40
17.0
 40
17.0
 40
17.0
 40
18.0
 40
18.0
 40
18.0
 40
19.0
 40
19.0
 40
19.0
 40
20.0
 40
20.0
 40
20.0
 40
21.0
 40
21.0
 40
21.0
 40
22.0
 40
22.0
 40
22.0
 40
23.0
 40
23.0
 40
23.0
 40
24.0
 40
24.0
 40
24.0
 40
25.0
 40
25.0
 40
25.0
 40
26.0
 40
26.0
 40
26.0
 40
27.0
 40
27.0
 40
27.0
 40
28.0
 40
28.0
 40
28.0
 40
29.0
 40
29.0
 40
29.0
 40
30.0
 40
30.0
 40
30.0
 40
31.0
 40
31.0
 40
31.0
 40
32.0
 40
32.0
 40
32.0
 40
33.0
 40
33.0
 40
33.0
 40
34.0
 40
34.0
 40
34.0
 40
35.0
 40
35.0
 40
35.0
 40
36.0
 40
36.0
 40
36.0
 40
37.0
 40
37.0
 40
37.0
 40
38.0
 40
38.0
 40
38.0
 40
39.0
 40
39.0
 40
39.0
 40
40.0
 40
40.0
 40
40.0
 40
41.0
 40
41.0
 40
41.0
 40
42.0
 40
42.0
 40
42.0
 40
43.0
 40
43.0
 40
43.0
 40
44.0
 40
44.0
 40
44.0
 40
45.0
 40
45.0
 40
45.0
 40
46.0
 40
46.0
 40
46.0
 40
47.0
 40
47.0
 40
47.0
 40
48.0
 40
48.0
 40
48.0
 40
49.0
 40
49.0
 40
49.0
 40
50.0
 40
50.0
 40
50.0
 40
51.0
 40
51.0
 40
51.0
 40
52.0
 40
52.0
 40
52.0
 40
53.0
 40
53.0
 40
53.0
 40
54.0
 40
54.0
 40
54.0
 40
55.0
 40
55.0
 40
55.0
 40
56.0
 40
56.0
 40
56.0
 40
57.0
 40
57.0
 40
57.0
 40
58.0
 40
58.0
 40
58.0
 40
59.0
 40
59.0
 40
59.0
 40
60.0
 40
60.0
 40
60.0
 40
61.0
 40
61.0
 40
61.0
 40
62.0
 40
62.0
 40
62.0
 40
63.0
 40
63.0
 40
63.0
 40
64.0
 40
64.0
 40
64.0
 40
65.0
 40
65.0
 40
65.0
 40
66.0
 40
66.0
 40
66.0
 40
67.0
 40
67.0
 40
67.0
 40
67.0
 10
5.264663755892292
 20
-15.62501527777777
 30
0.0
 10
5.200248479741782
 20
-15.41634722222222
 30
0.0
 10
5.222184590298739
 20
-15.19740555555556
 30
0.0
 10
5.244591534177137
 20
-14.984075
 30
0.0
 10
5.269337366885338
 20
-14.75392916666667
 30
0.0
 10
5.288472222222228
 20
-14.52285972222221
 30
0.0
 10
5.322549865541077
 20
-14.29365694444444
 30
0.0
 10
5.334687365234458
 20
-14.21429444444445
 30
0.0
 10
5.442055555555561
 20
-13.57988888888889
 30
0.0
 10
5.495272083399969
 20
-13.28205972222222
 30
0.0
 10
5.042926261493853
 20
-13.29092916666666
 30
0.0
 10
4.614388888888887
 20
-13.39550138888889
 30
0.0
 10
4.228330448738941
 20
-13.57615
 30
0.0
 10
4.228330448738941
 20
-13.57615
 30
0.0
 10
4.228330448738941
 20
-13.57615
 30
0.0
 10
4.228330448738941
 20
-13.57662222222223
 30
0.0
 10
4.221794337792946
 20
-13.79415833333333
 30
0.0
 10
4.240001281777444
 20
-14.13027083333333
 30
0.0
 10
4.240467948432322
 20
-14.16901249999999
 30
0.0
 10
4.244202670560197
 20
-14.38654999999999
 30
0.0
 10
4.244202670560197
 20
-14.60314722222222
 30
0.0
 10
4.240467948432322
 20
-14.82022222222223
 30
0.0
 10
4.238133226269079
 20
-14.92619027777778
 30
0.0
 10
4.237666666666668
 20
-15.03401944444444
 30
0.0
 10
4.174647116761763
 20
-15.1245875
 30
0.0
 10
4.083149896850955
 20
-15.256225
 30
0.0
 10
4.035067953621162
 20
-15.41588055555556
 30
0.0
 10
3.947306844727084
 20
-15.55172500000001
 30
0.0
 10
3.858148513646079
 20
-15.69083611111111
 30
0.0
 10
3.753581849620989
 20
-15.82621388888889
 30
0.0
 10
3.627537408360695
 20
-15.93404861111111
 30
0.0
 10
3.563116576654768
 20
-15.98913194444444
 30
0.0
 10
3.492159634002847
 20
-16.03348055555556
 30
0.0
 10
3.430536024448479
 20
-16.09229861111112
 30
0.0
 10
3.366586026063992
 20
-16.15391388888889
 30
0.0
 10
3.310105471935255
 20
-16.22300833333333
 30
0.0
 10
3.259217973220782
 20
-16.29583194444444
 30
0.0
 10
3.179859641892209
 20
-16.40926805555556
 30
0.0
 10
3.124308254406666
 20
-16.5413763888889
 30
0.0
 10
3.037013888888888
 20
-16.64827777777777
 30
0.0
 10
2.974922147069365
 20
-16.72483611111112
 30
0.0
 10
2.950652777777779
 20
-16.81213055555555
 30
0.0
 10
2.944583333333336
 20
-16.90736111111111
 30
0.0
 10
2.944116592292024
 20
-16.91436388888889
 30
0.0
 10
2.943649925637146
 20
-16.92183333333334
 30
0.0
 10
2.943183258982268
 20
-16.92930138888889
 30
0.0
 10
2.940844370152465
 20
-16.99839166666667
 30
0.0
 10
2.922642981723382
 20
-17.06560833333333
 30
0.0
 10
2.905833333333337
 20
-17.13236805555555
 30
0.0
 10
2.889970760326529
 20
-17.19678888888888
 30
0.0
 10
2.866162427594645
 20
-17.26681111111111
 30
0.0
 10
2.886231871532093
 20
-17.33262777777778
 30
0.0
 10
2.896034649062231
 20
-17.36577638888889
 30
0.0
 10
2.92404853724343
 20
-17.38538194444444
 30
0.0
 10
2.959059647470086
 20
-17.38398194444445
 30
0.0
 10
2.993604091041864
 20
-17.38258194444445
 30
0.0
 10
3.024409645819206
 20
-17.36951111111111
 30
0.0
 10
3.052890200655282
 20
-17.35037083333334
 30
0.0
 10
3.196659641467805
 20
-17.2546736111111
 30
0.0
 10
3.253616584473396
 20
-17.06794722222222
 30
0.0
 10
3.301694444444441
 20
-16.91109583333333
 30
0.0
 10
3.337638888888894
 20
-16.79392499999999
 30
0.0
 10
3.420737413584902
 20
-16.69215416666667
 30
0.0
 10
3.517367966699364
 20
-16.61886805555556
 30
0.0
 10
3.529505466392745
 20
-16.60952777777778
 30
0.0
 10
3.538374999999998
 20
-16.61233333333333
 30
0.0
 10
3.542580466062443
 20
-16.62727083333334
 30
0.0
 10
3.543976299360515
 20
-16.63240138888889
 30
0.0
 10
3.543976299360515
 20
-16.63800833333333
 30
0.0
 10
3.543976299360515
 20
-16.64314305555556
 30
0.0
 10
3.554251299100947
 20
-16.9115625
 30
0.0
 10
3.433808246588038
 20
-17.19632083333332
 30
0.0
 10
3.573386020839785
 20
-17.44886527777778
 30
0.0
 10
3.668616573989614
 20
-17.622525
 30
0.0
 10
3.694295740007571
 20
-17.82979722222222
 30
0.0
 10
3.811934625924651
 20
-17.99131111111111
 30
0.0
 10
3.877284624273771
 20
-18.08046805555556
 30
0.0
 10
3.919763888888888
 20
-18.18130555555556
 30
0.0
 10
3.950579066866642
 20
-18.28680555555555
 30
0.0
 10
3.966445733132483
 20
-18.34002361111111
 30
0.0
 10
3.988386010356003
 20
-18.38903888888889
 30
0.0
 10
4.030866564838409
 20
-18.42638472222222
 30
0.0
 10
4.077548508103569
 20
-18.46839861111111
 30
0.0
 10
4.130761006759308
 20
-18.4618625
 30
0.0
 10
4.166238783640842
 20
-18.4091125
 30
0.0
 10
4.190047116372726
 20
-18.37410138888889
 30
0.0
 10
4.204990171550788
 20
-18.33535555555555
 30
0.0
 10
4.212920726906001
 20
-18.294275
 30
0.0
 10
4.233931837486327
 20
-18.18596944444444
 30
0.0
 10
4.231136004223623
 20
-18.07673888888889
 30
0.0
 10
4.210124999999999
 20
-17.96984166666666
 30
0.0
 10
4.16764433916089
 20
-17.75136666666666
 30
0.0
 10
4.095750000000003
 20
-17.54176666666667
 30
0.0
 10
4.024331842781268
 20
-17.33169861111111
 30
0.0
 10
3.995855454611753
 20
-17.24767083333333
 30
0.0
 10
4.028533231564021
 20
-17.15337916666667
 30
0.0
 10
4.039269342403915
 20
-17.06794722222222
 30
0.0
 10
4.050940175442419
 20
-16.97177777777777
 30
0.0
 10
4.059342953007924
 20
-16.87515138888889
 30
0.0
 10
4.06494444444445
 20
-16.77852083333333
 30
0.0
 10
4.06494444444445
 20
-16.74957222222222
 30
0.0
 10
4.064477675100433
 20
-16.72063472222222
 30
0.0
 10
4.06494444444445
 20
-16.69168749999999
 30
0.0
 10
4.06494444444445
 20
-16.68142222222222
 30
0.0
 10
4.057941564154437
 20
-16.66508333333334
 30
0.0
 10
4.075681841484058
 20
-16.66461666666666
 30
0.0
 10
4.092024896626754
 20
-16.66415
 30
0.0
 10
4.088286007832317
 20
-16.68095555555556
 30
0.0
 10
4.088286007832317
 20
-16.69122083333333
 30
0.0
 10
4.090152777777777
 20
-16.79905972222222
 30
0.0
 10
4.08035406358825
 20
-16.90596111111111
 30
0.0
 10
4.069612397192941
 20
-17.01333333333333
 30
0.0
 10
4.06214295293719
 20
-17.08894861111111
 30
0.0
 10
4.049534619922371
 20
-17.16364444444444
 30
0.0
 10
4.03739712022899
 20
-17.23833472222222
 30
0.0
 10
4.033672120323091
 20
-17.26120833333333
 30
0.0
 10
4.032738787013336
 20
-17.28361666666667
 30
0.0
 10
4.040669342368548
 20
-17.30602361111111
 30
0.0
 10
4.099022118672211
 20
-17.48154722222223
 30
0.0
 10
4.158774894940507
 20
-17.65613611111111
 30
0.0
 10
4.204522116007057
 20
-17.83538888888889
 30
0.0
 10
4.2409346150872
 20
-17.97777361111111
 30
0.0
 10
4.262408225655841
 20
-18.12108611111112
 30
0.0
 10
4.241401281742077
 20
-18.2676625
 30
0.0
 10
4.232998504176572
 20
-18.32648611111111
 30
0.0
 10
4.216659615700438
 20
-18.3820375
 30
0.0
 10
4.180248505509149
 20
-18.43011388888889
 30
0.0
 10
4.144770728627615
 20
-18.47632916666666
 30
0.0
 10
4.100422118636844
 20
-18.48893333333333
 30
0.0
 10
4.046738786659666
 20
-18.46746388888889
 30
0.0
 10
4.043470731186668
 20
-18.46605972222222
 30
0.0
 10
4.039269342403915
 20
-18.46372916666667
 30
0.0
 10
4.037863786883867
 20
-18.46465833333333
 30
0.0
 10
4.034601286966285
 20
-18.46746388888889
 30
0.0
 10
4.036930555555551
 20
-18.47213749999999
 30
0.0
 10
4.038331842427598
 20
-18.4758625
 30
0.0
 10
4.04300406453179
 20
-18.49313888888889
 30
0.0
 10
4.047672119969421
 20
-18.51087361111111
 30
0.0
 10
4.052806842061929
 20
-18.52814999999999
 30
0.0
 10
4.071480452701305
 20
-18.5958388888889
 30
0.0
 10
4.098555555555549
 20
-18.66025972222222
 30
0.0
 10
4.138238784348181
 20
-18.7186125
 30
0.0
 10
4.16484295034277
 20
-18.75829166666666
 30
0.0
 10
4.197987393949916
 20
-18.76716111111111
 30
0.0
 10
4.241401281742077
 20
-18.74662083333333
 30
0.0
 10
4.373044333972049
 20
-18.68406805555555
 30
0.0
 10
4.42626099929435
 20
-18.44645694444445
 30
0.0
 10
4.408988777508461
 20
-18.31528194444445
 30
0.0
 10
4.398713777768029
 20
-18.23639027777777
 30
0.0
 10
4.375373500579877
 20
-18.16169444444444
 30
0.0
 10
4.346434612422046
 20
-18.0888763888889
 30
0.0
 10
4.314691557668387
 20
-18.00858333333334
 30
0.0
 10
4.287616558352359
 20
-17.92735277777778
 30
0.0
 10
4.276879058623611
 20
-17.84099583333333
 30
0.0
 10
4.262408225655841
 20
-17.72523055555555
 30
0.0
 10
4.224124999999995
 20
-17.61458888888889
 30
0.0
 10
4.230197115358452
 20
-17.49694722222223
 30
0.0
 10
4.234398504141205
 20
-17.4115236111111
 30
0.0
 10
4.230669337568744
 20
-17.32656388888889
 30
0.0
 10
4.217126282355316
 20
-17.24206944444445
 30
0.0
 10
4.209658226988418
 20
-17.19678888888888
 30
0.0
 10
4.251670725927093
 20
-17.16224444444444
 30
0.0
 10
4.275012392004101
 20
-17.12816666666667
 30
0.0
 10
4.302554057975006
 20
-17.08801527777777
 30
0.0
 10
4.328229057326401
 20
-17.04647361111111
 30
0.0
 10
4.356238778841038
 20
-17.00678888888889
 30
0.0
 10
4.415523499565603
 20
-16.9241625
 30
0.0
 10
4.491148497655154
 20
-16.88075277777778
 30
0.0
 10
4.56630555555556
 20
-16.81726527777778
 30
0.0
 10
4.570045717884264
 20
-16.81446944444445
 30
0.0
 10
4.573308217801847
 20
-16.80885833333333
 30
0.0
 10
4.577976273239478
 20
-16.81026388888889
 30
0.0
 10
4.584045717530595
 20
-16.81213055555555
 30
0.0
 10
4.582181828688792
 20
-16.81959583333333
 30
0.0
 10
4.583111111111116
 20
-16.82426805555555
 30
0.0
 10
4.623724883194882
 20
-17.09408888888889
 30
0.0
 10
4.67740821517206
 20
-17.37697916666666
 30
0.0
 10
4.767508212895942
 20
-17.63512916666667
 30
0.0
 10
4.791783212282704
 20
-17.70515138888888
 30
0.0
 10
4.830519322415259
 20
-17.76723888888889
 30
0.0
 10
4.883274876638097
 20
-17.81952222222223
 30
0.0
 10
4.922954042302384
 20
-17.85919722222221
 30
0.0
 10
4.981773485260924
 20
-17.88487638888889
 30
0.0
 10
5.040587372664049
 20
-17.85173194444445
 30
0.0
 10
5.073736111111113
 20
-17.83305972222222
 30
0.0
 10
5.095213760172959
 20
-17.80505138888889
 30
0.0
 10
5.108747093164411
 20
-17.77004027777778
 30
0.0
 10
5.146555555555551
 20
-17.67200277777778
 30
0.0
 10
5.129758203744737
 20
-17.55296944444444
 30
0.0
 10
5.126019314950301
 20
-17.45073194444444
 30
0.0
 10
5.119484592893159
 20
-17.26307222222222
 30
0.0
 10
5.073269316282878
 20
-17.07028055555555
 30
0.0
 10
5.088202649238964
 20
-16.8830875
 30
0.0
 10
5.101279037797515
 20
-16.71970138888889
 30
0.0
 10
5.177374999999996
 20
-16.56891944444444
 30
0.0
 10
5.240856812049262
 20
-16.4195375
 30
0.0
 10
5.311345699157451
 20
-16.25381805555556
 30
0.0
 10
5.349624999999997
 20
-16.08996527777778
 30
0.0
 10
5.330952643106583
 20
-15.90930138888888
 30
0.0
 10
5.320677643366151
 20
-15.81174166666667
 30
0.0
 10
5.2936123662721
 20
-15.71837916666666
 30
0.0
 10
5.264663755892292
 20
-15.62501527777777
 30
0.0
  0
SPLINE
  5
5C
330
57
100
AcDbEntity
  8
Layer 1
370
     0
100
AcDbSpline
210
0.0
220
0.0
230
1.0
 70
    11
 71
     3
 72
   149
 73
   145
 74
     0
 42
0.0000000001
 43
0.0000000001
 12
1.0
 22
0.0
 32
0.0
 13
1.0
 23
0.0
 33
0.0
 40
0.0
 40
0.0
 40
0.0
 40
0.0
 40
1.0
 40
1.0
 40
1.0
 40
2.0
 40
2.0
 40
2.0
 40
3.0
 40
3.0
 40
3.0
 40
4.0
 40
4.0
 40
4.0
 40
5.0
 40
5.0
 40
5.0
 40
6.0
 40
6.0
 40
6.0
 40
7.0
 40
7.0
 40
7.0
 40
8.0
 40
8.0
 40
8.0
 40
9.0
 40
9.0
 40
9.0
 40
10.0
 40
10.0
 40
10.0
 40
11.0
 40
11.0
 40
11.0
 40
12.0
 40
12.0
 40
12.0
 40
13.0
 40
13.0
 40
13.0
 40
14.0
 40
14.0
 40
14.0
 40
15.0
 40
15.0
 40
15.0
 40
16.0
 40
16.0
 40
16.0
 40
17.0
 40
17.0
 40
17.0
 40
18.0
 40
18.0
 40
18.0
 40
19.0
 40
19.0
 40
19.0
 40
20.0
 40
20.0
 40
20.0
 40
21.0
 40
21.0
 40
21.0
 40
22.0
 40
22.0
 40
22.0
 40
23.0
 40
23.0
 40
23.0
 40
24.0
 40
24.0
 40
24.0
 40
25.0
 40
25.0
 40
25.0
 40
26.0
 40
26.0
 40
26.0
 40
27.0
 40
27.0
 40
27.0
 40
28.0
 40
28.0
 40
28.0
 40
29.0
 40
29.0
 40
29.0
 40
30.0
 40
30.0
 40
30.0
 40
31.0
 40
31.0
 40
31.0
 40
32.0
 40
32.0
 40
32.0
 40
33.0
 40
33.0
 40
33.0
 40
34.0
 40
34.0
 40
34.0
 40
35.0
 40
35.0
 40
35.0
 40
36.0
 40
36.0
 40
36.0
 40
37.0
 40
37.0
 40
37.0
 40
38.0
 40
38.0
 40
38.0
 40
39.0
 40
39.0
 40
39.0
 40
40.0
 40
40.0
 40
40.0
 40
41.0
 40
41.0
 40
41.0
 40
42.0
 40
42.0
 40
42.0
 40
43.0
 40
43.0
 40
43.0
 40
44.0
 40
44.0
 40
44.0
 40
45.0
 40
45.0
 40
45.0
 40
46.0
 40
46.0
 40
46.0
 40
47.0
 40
47.0
 40
47.0
 40
48.0
 40
48.0
 40
48.0
 40
48.0
 10
5.105480426580268
 20
-15.92798472222223
 30
0.0
 10
5.105480426580268
 20
-15.92798472222223
 30
0.0
 10
4.940226264088273
 20
-16.016675
 30
0.0
 10
4.940226264088273
 20
-16.016675
 30
0.0
 10
4.940226264088273
 20
-16.016675
 30
0.0
 10
5.043859594803608
 20
-16.1856625
 30
0.0
 10
5.043859594803608
 20
-16.1856625
 30
0.0
 10
5.046194444444445
 20
-16.188925
 30
0.0
 10
5.046194444444445
 20
-16.19359861111111
 30
0.0
 10
5.043859594803608
 20
-16.19686666666666
 30
0.0
 10
5.041520705973804
 20
-16.20012916666667
 30
0.0
 10
5.037329039413028
 20
-16.20199583333333
 30
0.0
 10
5.033590150618592
 20
-16.2010625
 30
0.0
 10
5.033590150618592
 20
-16.2010625
 30
0.0
 10
4.844995710938443
 20
-16.16932361111112
 30
0.0
 10
4.844995710938443
 20
-16.16932361111112
 30
0.0
 10
4.844995710938443
 20
-16.16932361111112
 30
0.0
 10
4.865069444444442
 20
-16.36258611111111
 30
0.0
 10
4.865069444444442
 20
-16.36258611111111
 30
0.0
 10
4.865530432641915
 20
-16.3667875
 30
0.0
 10
4.863667932688966
 20
-16.37052222222222
 30
0.0
 10
4.860401266104822
 20
-16.37238888888889
 30
0.0
 10
4.85666666666667
 20
-16.37472361111111
 30
0.0
 10
4.852465155194194
 20
-16.37425694444444
 30
0.0
 10
4.849201266387758
 20
-16.37192222222222
 30
0.0
 10
4.849201266387758
 20
-16.37192222222222
 30
0.0
 10
4.680204048434764
 20
-16.25521805555556
 30
0.0
 10
4.680204048434764
 20
-16.25521805555556
 30
0.0
 10
4.654534604638784
 20
-16.3140375
 30
0.0
 10
4.626991549779025
 20
-16.37332222222222
 30
0.0
 10
4.598044328288071
 20
-16.43120833333334
 30
0.0
 10
4.596181828335122
 20
-16.43447083333333
 30
0.0
 10
4.592452661762662
 20
-16.43680972222223
 30
0.0
 10
4.588713772968226
 20
-16.43680972222223
 30
0.0
 10
4.584512384185473
 20
-16.43680972222223
 30
0.0
 10
4.580781828724159
 20
-16.43447083333333
 30
0.0
 10
4.579376273204111
 20
-16.43074166666666
 30
0.0
 10
4.579376273204111
 20
-16.43074166666666
 30
0.0
 10
4.50049016408583
 20
-16.25008333333334
 30
0.0
 10
4.50049016408583
 20
-16.25008333333334
 30
0.0
 10
4.50049016408583
 20
-16.25008333333334
 30
0.0
 10
4.359977667635475
 20
-16.3644486111111
 30
0.0
 10
4.359977667635475
 20
-16.3644486111111
 30
0.0
 10
4.356705445495916
 20
-16.3667875
 30
0.0
 10
4.352498501157748
 20
-16.36725416666666
 30
0.0
 10
4.348773501251849
 20
-16.36538194444444
 30
0.0
 10
4.345034612457413
 20
-16.36351527777778
 30
0.0
 10
4.342701279183024
 20
-16.35932361111111
 30
0.0
 10
4.343167945837902
 20
-16.35558333333333
 30
0.0
 10
4.343167945837902
 20
-16.35558333333333
 30
0.0
 10
4.358572112115427
 20
-16.16932361111112
 30
0.0
 10
4.358572112115427
 20
-16.16932361111112
 30
0.0
 10
4.358572112115427
 20
-16.16932361111112
 30
0.0
 10
4.176513888888886
 20
-16.19406527777778
 30
0.0
 10
4.176513888888886
 20
-16.19406527777778
 30
0.0
 10
4.172783227919959
 20
-16.19453194444444
 30
0.0
 10
4.168577672470645
 20
-16.19266527777778
 30
0.0
 10
4.166705450295719
 20
-16.18939166666667
 30
0.0
 10
4.164376283687893
 20
-16.18612916666666
 30
0.0
 10
4.164376283687893
 20
-16.18146111111111
 30
0.0
 10
4.166238783640842
 20
-16.17818888888889
 30
0.0
 10
4.166238783640842
 20
-16.17818888888889
 30
0.0
 10
4.263808225620474
 20
-16.01714166666666
 30
0.0
 10
4.263808225620474
 20
-16.01714166666666
 30
0.0
 10
4.263808225620474
 20
-16.01714166666666
 30
0.0
 10
4.082216563541199
 20
-15.93124722222222
 30
0.0
 10
4.082216563541199
 20
-15.93124722222222
 30
0.0
 10
4.078481841413324
 20
-15.92938055555555
 30
0.0
 10
4.076148508138936
 20
-15.92611249999999
 30
0.0
 10
4.076148508138936
 20
-15.92190555555555
 30
0.0
 10
4.076148508138936
 20
-15.91817638888888
 30
0.0
 10
4.078481841413324
 20
-15.91444166666666
 30
0.0
 10
4.081750000000006
 20
-15.912575
 30
0.0
 10
4.081750000000006
 20
-15.912575
 30
0.0
 10
4.261008225691208
 20
-15.81781111111112
 30
0.0
 10
4.261008225691208
 20
-15.81781111111112
 30
0.0
 10
4.261008225691208
 20
-15.81781111111112
 30
0.0
 10
4.154101283947461
 20
-15.65255277777778
 30
0.0
 10
4.154101283947461
 20
-15.65255277777778
 30
0.0
 10
4.151772117339634
 20
-15.64929027777778
 30
0.0
 10
4.151772117339634
 20
-15.64508888888889
 30
0.0
 10
4.153634617292584
 20
-15.64134861111111
 30
0.0
 10
4.155506839467509
 20
-15.6380861111111
 30
0.0
 10
4.159241561595384
 20
-15.63622361111111
 30
0.0
 10
4.163442950378137
 20
-15.63622361111111
 30
0.0
 10
4.163442950378137
 20
-15.63622361111111
 30
0.0
 10
4.361840167588424
 20
-15.64929027777778
 30
0.0
 10
4.361840167588424
 20
-15.64929027777778
 30
0.0
 10
4.361840167588424
 20
-15.64929027777778
 30
0.0
 10
4.349702667895043
 20
-15.45789444444444
 30
0.0
 10
4.349702667895043
 20
-15.45789444444444
 30
0.0
 10
4.349236111111117
 20
-15.45368888888889
 30
0.0
 10
4.351570723403407
 20
-15.44995833333333
 30
0.0
 10
4.355304056642429
 20
-15.44809166666667
 30
0.0
 10
4.358572112115427
 20
-15.44622361111111
 30
0.0
 10
4.363240167553057
 20
-15.44622361111111
 30
0.0
 10
4.366508223026054
 20
-15.44902916666667
 30
0.0
 10
4.366508223026054
 20
-15.44902916666667
 30
0.0
 10
4.516351274796256
 20
-15.5638625
 30
0.0
 10
4.516351274796256
 20
-15.5638625
 30
0.0
 10
4.516351274796256
 20
-15.5638625
 30
0.0
 10
4.585908217483544
 20
-15.37666805555556
 30
0.0
 10
4.585908217483544
 20
-15.37666805555556
 30
0.0
 10
4.587312384114739
 20
-15.37292916666666
 30
0.0
 10
4.591047106242613
 20
-15.37013333333333
 30
0.0
 10
4.595248495025367
 20
-15.37013333333333
 30
0.0
 10
4.59944988380812
 20
-15.36966666666667
 30
0.0
 10
4.603184605935994
 20
-15.37199583333333
 30
0.0
 10
4.605056828110921
 20
-15.37573472222222
 30
0.0
 10
4.605056828110921
 20
-15.37573472222222
 30
0.0
 10
4.693747103648193
 20
-15.56620138888889
 30
0.0
 10
4.693747103648193
 20
-15.56620138888889
 30
0.0
 10
4.693747103648193
 20
-15.56620138888889
 30
0.0
 10
4.843590155418395
 20
-15.450425
 30
0.0
 10
4.843590155418395
 20
-15.450425
 30
0.0
 10
4.846863766446808
 20
-15.447625
 30
0.0
 10
4.851063766340707
 20
-15.447625
 30
0.0
 10
4.854794321802021
 20
-15.44949722222222
 30
0.0
 10
4.85806654394158
 20
-15.45135972222223
 30
0.0
 10
4.860401266104822
 20
-15.45508888888889
 30
0.0
 10
4.860401266104822
 20
-15.45882777777778
 30
0.0
 10
4.860401266104822
 20
-15.45882777777778
 30
0.0
 10
4.850602655241245
 20
-15.65815972222222
 30
0.0
 10
4.850602655241245
 20
-15.65815972222222
 30
0.0
 10
4.850602655241245
 20
-15.65815972222222
 30
0.0
 10
5.053191539012308
 20
-15.6534861111111
 30
0.0
 10
5.053191539012308
 20
-15.6534861111111
 30
0.0
 10
5.057397094461622
 20
-15.6534861111111
 30
0.0
 10
5.061131816589497
 20
-15.65535833333334
 30
0.0
 10
5.063000000000001
 20
-15.65909722222222
 30
0.0
 10
5.064862372050811
 20
-15.66236111111112
 30
0.0
 10
5.064395705395933
 20
-15.6665625
 30
0.0
 10
5.062065149899253
 20
-15.66982916666666
 30
0.0
 10
5.062065149899253
 20
-15.66982916666666
 30
0.0
 10
4.949562374963534
 20
-15.82854305555555
 30
0.0
 10
4.949562374963534
 20
-15.82854305555555
 30
0.0
 10
4.949562374963534
 20
-15.82854305555555
 30
0.0
 10
5.105480426580268
 20
-15.90976944444444
 30
0.0
 10
5.105480426580268
 20
-15.90976944444444
 30
0.0
 10
5.108747093164411
 20
-15.91164027777778
 30
0.0
 10
5.111076259772239
 20
-15.91490833333334
 30
0.0
 10
5.111076259772239
 20
-15.91864305555555
 30
0.0
 10
5.111076259772239
 20
-15.92284444444445
 30
0.0
 10
5.108747093164411
 20
-15.92611249999999
 30
0.0
 10
5.105480426580268
 20
-15.92798472222223
 30
0.0
  0
ENDBLK
  5
5A
330
57
100
AcDbEntity
  8
0
100
AcDbBlockEnd
  0
ENDSEC
  0
SECTION
  2
ENTITIES
  0
SPLINE
  5
41
330
1F
100
AcDbEntity
  8
Layer 1
370
     0
100
AcDbSpline
210
0.0
220
0.0
230
1.0
 70
    11
 71
     3
 72
    41
 73
    37
 74
     0
 42
0.0000000001
 43
0.0000000001
 12
1.0
 22
0.0
 32
0.0
 13
1.0
 23
0.0
 33
0.0
 40
0.0
 40
0.0
 40
0.0
 40
0.0
 40
1.0
 40
1.0
 40
1.0
 40
2.0
 40
2.0
 40
2.0
 40
3.0
 40
3.0
 40
3.0
 40
4.0
 40
4.0
 40
4.0
 40
5.0
 40
5.0
 40
5.0
 40
6.0
 40
6.0
 40
6.0
 40
7.0
 40
7.0
 40
7.0
 40
8.0
 40
8.0
 40
8.0
 40
9.0
 40
9.0
 40
9.0
 40
10.0
 40
10.0
 40
10.0
 40
11.0
 40
11.0
 40
11.0
 40
12.0
 40
12.0
 40
12.0
 40
12.0
 10
8.69857061358895
 20
-16.42093888888889
 30
0.0
 10
8.69857061358895
 20
-16.42093888888889
 30
0.0
 10
8.69857061358895
 20
-21.21841249999999
 30
0.0
 10
8.69857061358895
 20
-21.21841249999999
 30
0.0
 10
8.69857061358895
 20
-22.48582638888888
 30
0.0
 10
7.947924799218526
 20
-23.57770694444444
 30
0.0
 10
6.86631371543121
 20
-24.07347499999999
 30
0.0
 10
6.482590114013773
 20
-24.24946111111111
 30
0.0
 10
6.056381791447367
 20
-24.35075972222221
 30
0.0
 10
5.607779025002249
 20
-24.35729583333333
 30
0.0
 10
5.591435969859554
 20
-24.35775833333332
 30
0.0
 10
5.575097222222212
 20
-24.35775833333332
 30
0.0
 10
5.558759581796139
 20
-24.35775833333332
 30
0.0
 10
3.824999999999995
 20
-24.35775833333332
 30
0.0
 10
2.419413827769353
 20
-22.9521763888889
 30
0.0
 10
2.419413827769353
 20
-21.21841249999999
 30
0.0
 10
2.419413827769353
 20
-21.21841249999999
 30
0.0
 10
2.419413827769353
 20
-16.42093888888889
 30
0.0
 10
2.419413827769353
 20
-16.42093888888889
 30
0.0
 10
2.419413827769353
 20
-15.16239444444444
 30
0.0
 10
3.1597860312882
 20
-14.07704444444444
 30
0.0
 10
4.228330448738941
 20
-13.57662222222223
 30
0.0
 10
4.228330448738941
 20
-13.57615
 30
0.0
 10
4.228330448738941
 20
-13.57615
 30
0.0
 10
4.228330448738941
 20
-13.57615
 30
0.0
 10
4.614388888888887
 20
-13.39550138888889
 30
0.0
 10
5.042926261493853
 20
-13.29092916666666
 30
0.0
 10
5.495272083399969
 20
-13.28205972222222
 30
0.0
 10
5.516279027313733
 20
-13.28112638888889
 30
0.0
 10
5.537756804548937
 20
-13.28112638888889
 30
0.0
 10
5.558759581796139
 20
-13.28112638888889
 30
0.0
 10
6.426109559885036
 20
-13.28112638888889
 30
0.0
 10
7.210824817839239
 20
-13.63263472222222
 30
0.0
 10
7.778945636820632
 20
-14.2007611111111
 30
0.0
 10
8.347058122468903
 20
-14.76887222222222
 30
0.0
 10
8.69857061358895
 20
-15.55406388888889
 30
0.0
 10
8.69857061358895
 20
-16.42093888888889
 30
0.0
  0
HATCH
  5
42
330
1F
100
AcDbEntity
  8
Layer 1
 62
    35
420
 10579544
100
AcDbHatch
 10
0.0
 20
0.0
 30
0.0
210
0.0
220
0.0
230
1.0
  2
SOLID
 70
     1
 71
     0
 91
        1
 92
        1
 93
        1
 72
     4
 94
        3
 73
     0
 74
     1
 95
       41
 96
       37
 40
0.0
 40
0.0
 40
0.0
 40
0.0
 40
1.0
 40
1.0
 40
1.0
 40
2.0
 40
2.0
 40
2.0
 40
3.0
 40
3.0
 40
3.0
 40
4.0
 40
4.0
 40
4.0
 40
5.0
 40
5.0
 40
5.0
 40
6.0
 40
6.0
 40
6.0
 40
7.0
 40
7.0
 40
7.0
 40
8.0
 40
8.0
 40
8.0
 40
9.0
 40
9.0
 40
9.0
 40
10.0
 40
10.0
 40
10.0
 40
11.0
 40
11.0
 40
11.0
 40
12.0
 40
12.0
 40
12.0
 40
12.0
 10
8.69857061358895
 20
-16.42093888888889
 10
8.69857061358895
 20
-16.42093888888889
 10
8.69857061358895
 20
-21.21841249999999
 10
8.69857061358895
 20
-21.21841249999999
 10
8.69857061358895
 20
-22.48582638888888
 10
7.947924799218526
 20
-23.57770694444444
 10
6.86631371543121
 20
-24.07347499999999
 10
6.482590114013773
 20
-24.24946111111111
 10
6.056381791447367
 20
-24.35075972222221
 10
5.607779025002249
 20
-24.35729583333333
 10
5.591435969859554
 20
-24.35775833333332
 10
5.575097222222212
 20
-24.35775833333332
 10
5.558759581796139
 20
-24.35775833333332
 10
3.824999999999995
 20
-24.35775833333332
 10
2.419413827769353
 20
-22.9521763888889
 10
2.419413827769353
 20
-21.21841249999999
 10
2.419413827769353
 20
-21.21841249999999
 10
2.419413827769353
 20
-16.42093888888889
 10
2.419413827769353
 20
-16.42093888888889
 10
2.419413827769353
 20
-15.16239444444444
 10
3.1597860312882
 20
-14.07704444444444
 10
4.228330448738941
 20
-13.57662222222223
 10
4.228330448738941
 20
-13.57615
 10
4.228330448738941
 20
-13.57615
 10
4.228330448738941
 20
-13.57615
 10
4.614388888888887
 20
-13.39550138888889
 10
5.042926261493853
 20
-13.29092916666666
 10
5.495272083399969
 20
-13.28205972222222
 10
5.516279027313733
 20
-13.28112638888889
 10
5.537756804548937
 20
-13.28112638888889
 10
5.558759581796139
 20
-13.28112638888889
 10
6.426109559885036
 20
-13.28112638888889
 10
7.210824817839239
 20
-13.63263472222222
 10
7.778945636820632
 20
-14.2007611111111
 10
8.347058122468903
 20
-14.76887222222222
 10
8.69857061358895
 20
-15.55406388888889
 10
8.69857061358895
 20
-16.42093888888889
 97
        0
 97
        0
 75
     2
 76
     1
 98
        0
  0
INSERT
  5
44
330
1F
100
AcDbEntity
  8
Layer 1
100
AcDbBlockReference
  2
block 2
 10
0.0
 20
0.0
 30
0.0
  0
HATCH
  5
49
330
1F
100
AcDbEntity
  8
Layer 1
 62
    35
420
 10579544
100
AcDbHatch
 10
0.0
 20
0.0
 30
0.0
210
0.0
220
0.0
230
1.0
  2
SOLID
 70
     1
 71
     0
 91
        2
 92
        1
 93
        1
 72
     4
 94
        3
 73
     0
 74
     1
 95
       35
 96
       31
 40
0.0
 40
0.0
 40
0.0
 40
0.0
 40
1.0
 40
1.0
 40
1.0
 40
2.0
 40
2.0
 40
2.0
 40
3.0
 40
3.0
 40
3.0
 40
4.0
 40
4.0
 40
4.0
 40
5.0
 40
5.0
 40
5.0
 40
6.0
 40
6.0
 40
6.0
 40
7.0
 40
7.0
 40
7.0
 40
8.0
 40
8.0
 40
8.0
 40
9.0
 40
9.0
 40
9.0
 40
10.0
 40
10.0
 40
10.0
 40
10.0
 10
8.087035906815395
 20
-13.83149861111111
 10
7.412023423867645
 20
-13.17888888888889
 10
6.513866502112553
 20
-12.81944444444444
 10
5.558759581796139
 20
-12.81944444444444
 10
4.603651272590873
 20
-12.81944444444444
 10
3.705966573046074
 20
-13.17888888888889
 10
3.03047770122147
 20
-13.83149861111111
 10
2.354992996063427
 20
-14.48411388888889
 10
1.983402777777782
 20
-15.35145972222222
 10
1.983402777777782
 20
-16.27435833333334
 10
1.983402777777782
 20
-16.27435833333334
 10
1.983402777777782
 20
-21.3649986111111
 10
1.983402777777782
 20
-21.3649986111111
 10
1.983402777777782
 20
-22.28790000000001
 10
2.354992996063427
 20
-23.15524166666667
 10
3.03047770122147
 20
-23.8078513888889
 10
3.705966573046074
 20
-24.4604625
 10
4.603651272590873
 20
-24.81944444444444
 10
5.558759581796139
 20
-24.81944444444444
 10
6.513866502112553
 20
-24.81944444444444
 10
7.412023423867645
 20
-24.4604625
 10
8.087035906815395
 20
-23.8078513888889
 10
8.76252477864
 20
-23.15524166666667
 10
9.134577547018933
 20
-22.28790000000001
 10
9.134577547018933
 20
-21.3649986111111
 10
9.134577547018933
 20
-21.3649986111111
 10
9.134577547018933
 20
-16.27435833333334
 10
9.134577547018933
 20
-16.27435833333334
 10
9.134577547018933
 20
-15.35145972222222
 10
8.76252477864
 20
-14.48411388888889
 10
8.087035906815395
 20
-13.83149861111111
 97
        0
 97
        0
 92
        1
 93
        1
 72
     4
 94
        3
 73
     0
 74
     1
 95
       26
 96
       22
 40
0.0
 40
0.0
 40
0.0
 40
0.0
 40
1.0
 40
1.0
 40
1.0
 40
2.0
 40
2.0
 40
2.0
 40
3.0
 40
3.0
 40
3.0
 40
4.0
 40
4.0
 40
4.0
 40
5.0
 40
5.0
 40
5.0
 40
6.0
 40
6.0
 40
6.0
 40
7.0
 40
7.0
 40
7.0
 40
7.0
 10
8.98565810633651
 20
-21.3649986111111
 10
8.98565810633651
 20
-22.27809166666667
 10
8.601467838264195
 20
-23.10575833333334
 10
7.980606742837355
 20
-23.70514722222222
 10
7.360206758509977
 20
-24.3050125
 10
6.503597222222222
 20
-24.67613194444445
 10
5.558759581796139
 20
-24.67613194444445
 10
3.669083333333333
 20
-24.67613194444445
 10
2.131855501700354
 20
-23.19071527777777
 10
2.131855501700354
 20
-21.3649986111111
 10
2.131855501700354
 20
-21.3649986111111
 10
2.131855501700354
 20
-16.27435833333334
 10
2.131855501700354
 20
-16.27435833333334
 10
2.131855501700354
 20
-14.44863611111111
 10
3.669083333333333
 20
-12.96322916666666
 10
5.558759581796139
 20
-12.96322916666666
 10
7.448434534058934
 20
-12.96322916666666
 10
8.98565810633651
 20
-14.44863611111111
 10
8.98565810633651
 20
-16.27435833333334
 10
8.98565810633651
 20
-16.27435833333334
 10
8.98565810633651
 20
-21.3649986111111
 10
8.98565810633651
 20
-21.3649986111111
 97
        0
 97
        0
 75
     2
 76
     1
 98
        0
  0
SPLINE
  5
4A
330
1F
100
AcDbEntity
  8
Layer 1
370
     0
100
AcDbSpline
210
0.0
220
0.0
230
1.0
 70
    11
 71
     3
 72
    53
 73
    49
 74
     0
 42
0.0000000001
 43
0.0000000001
 12
1.0
 22
0.0
 32
0.0
 13
1.0
 23
0.0
 33
0.0
 40
0.0
 40
0.0
 40
0.0
 40
0.0
 40
1.0
 40
1.0
 40
1.0
 40
2.0
 40
2.0
 40
2.0
 40
3.0
 40
3.0
 40
3.0
 40
4.0
 40
4.0
 40
4.0
 40
5.0
 40
5.0
 40
5.0
 40
6.0
 40
6.0
 40
6.0
 40
7.0
 40
7.0
 40
7.0
 40
8.0
 40
8.0
 40
8.0
 40
9.0
 40
9.0
 40
9.0
 40
10.0
 40
10.0
 40
10.0
 40
11.0
 40
11.0
 40
11.0
 40
12.0
 40
12.0
 40
12.0
 40
13.0
 40
13.0
 40
13.0
 40
14.0
 40
14.0
 40
14.0
 40
15.0
 40
15.0
 40
15.0
 40
16.0
 40
16.0
 40
16.0
 40
16.0
 10
6.038054014132588
 20
-18.79620694444444
 30
0.0
 10
6.038054014132588
 20
-18.79620694444444
 30
0.0
 10
6.038058180799149
 20
-18.79620694444444
 30
0.0
 10
6.038058180799149
 20
-18.79620694444444
 30
0.0
 10
6.054667902601775
 20
-18.79159861111111
 30
0.0
 10
6.054667902601775
 20
-18.7635111111111
 30
0.0
 10
6.038058180799149
 20
-18.75889861111111
 30
0.0
 10
6.038058180799149
 20
-18.75889861111111
 30
0.0
 10
6.038058180799149
 20
-18.75889861111111
 30
0.0
 10
6.038058180799149
 20
-18.75889861111111
 30
0.0
 10
5.833331797082084
 20
-18.70208194444444
 30
0.0
 10
5.673474856675966
 20
-18.51213888888888
 30
0.0
 10
5.62565819121725
 20
-18.26887638888888
 30
0.0
 10
5.62565819121725
 20
-18.26887638888888
 30
0.0
 10
5.62565819121725
 20
-18.26887083333333
 30
0.0
 10
5.62565819121725
 20
-18.26887083333333
 30
0.0
 10
5.621779024648579
 20
-18.24914305555555
 30
0.0
 10
5.598140136356859
 20
-18.24914305555555
 30
0.0
 10
5.594260969788189
 20
-18.26887083333333
 30
0.0
 10
5.594260969788189
 20
-18.26887083333333
 30
0.0
 10
5.594260969788189
 20
-18.26887083333333
 30
0.0
 10
5.594260969788189
 20
-18.26887083333333
 30
0.0
 10
5.546444444444445
 20
-18.51213888888888
 30
0.0
 10
5.386587363923354
 20
-18.70208194444444
 30
0.0
 10
5.181861111111112
 20
-18.75889861111111
 30
0.0
 10
5.181861111111112
 20
-18.75889861111111
 30
0.0
 10
5.181861111111112
 20
-18.75889861111111
 30
0.0
 10
5.181861111111112
 20
-18.75889861111111
 30
0.0
 10
5.165255425070225
 20
-18.7635111111111
 30
0.0
 10
5.165255425070225
 20
-18.79159861111111
 30
0.0
 10
5.181861111111112
 20
-18.79620694444444
 30
0.0
 10
5.181861111111112
 20
-18.79620694444444
 30
0.0
 10
5.18186514687285
 20
-18.79620694444444
 30
0.0
 10
5.18186514687285
 20
-18.79620694444444
 30
0.0
 10
5.386587363923354
 20
-18.85302777777777
 30
0.0
 10
5.546444444444445
 20
-19.04297083333333
 30
0.0
 10
5.594260969788189
 20
-19.28623333333333
 30
0.0
 10
5.594260969788189
 20
-19.28623333333333
 30
0.0
 10
5.594260969788189
 20
-19.28623333333333
 30
0.0
 10
5.594260969788189
 20
-19.28623333333333
 30
0.0
 10
5.598140136356859
 20
-19.30596527777778
 30
0.0
 10
5.621779024648579
 20
-19.30596527777778
 30
0.0
 10
5.62565819121725
 20
-19.28623333333333
 30
0.0
 10
5.62565819121725
 20
-19.28623333333333
 30
0.0
 10
5.62565819121725
 20
-19.28622916666667
 30
0.0
 10
5.62565819121725
 20
-19.28622916666667
 30
0.0
 10
5.673474856675966
 20
-19.04297083333333
 30
0.0
 10
5.833331797082084
 20
-18.85302777777777
 30
0.0
 10
6.038054014132588
 20
-18.79620694444444
 30
0.0
  0
HATCH
  5
4B
330
1F
100
AcDbEntity
  8
Layer 1
 62
     7
420
 16314339
100
AcDbHatch
 10
0.0
 20
0.0
 30
0.0
210
0.0
220
0.0
230
1.0
  2
SOLID
 70
     1
 71
     0
 91
        1
 92
        1
 93
        1
 72
     4
 94
        3
 73
     0
 74
     1
 95
       53
 96
       49
 40
0.0
 40
0.0
 40
0.0
 40
0.0
 40
1.0
 40
1.0
 40
1.0
 40
2.0
 40
2.0
 40
2.0
 40
3.0
 40
3.0
 40
3.0
 40
4.0
 40
4.0
 40
4.0
 40
5.0
 40
5.0
 40
5.0
 40
6.0
 40
6.0
 40
6.0
 40
7.0
 40
7.0
 40
7.0
 40
8.0
 40
8.0
 40
8.0
 40
9.0
 40
9.0
 40
9.0
 40
10.0
 40
10.0
 40
10.0
 40
11.0
 40
11.0
 40
11.0
 40
12.0
 40
12.0
 40
12.0
 40
13.0
 40
13.0
 40
13.0
 40
14.0
 40
14.0
 40
14.0
 40
15.0
 40
15.0
 40
15.0
 40
16.0
 40
16.0
 40
16.0
 40
16.0
 10
6.038054014132588
 20
-18.79620694444444
 10
6.038054014132588
 20
-18.79620694444444
 10
6.038058180799149
 20
-18.79620694444444
 10
6.038058180799149
 20
-18.79620694444444
 10
6.054667902601775
 20
-18.79159861111111
 10
6.054667902601775
 20
-18.7635111111111
 10
6.038058180799149
 20
-18.75889861111111
 10
6.038058180799149
 20
-18.75889861111111
 10
6.038058180799149
 20
-18.75889861111111
 10
6.038058180799149
 20
-18.75889861111111
 10
5.833331797082084
 20
-18.70208194444444
 10
5.673474856675966
 20
-18.51213888888888
 10
5.62565819121725
 20
-18.26887638888888
 10
5.62565819121725
 20
-18.26887638888888
 10
5.62565819121725
 20
-18.26887083333333
 10
5.62565819121725
 20
-18.26887083333333
 10
5.621779024648579
 20
-18.24914305555555
 10
5.598140136356859
 20
-18.24914305555555
 10
5.594260969788189
 20
-18.26887083333333
 10
5.594260969788189
 20
-18.26887083333333
 10
5.594260969788189
 20
-18.26887083333333
 10
5.594260969788189
 20
-18.26887083333333
 10
5.546444444444445
 20
-18.51213888888888
 10
5.386587363923354
 20
-18.70208194444444
 10
5.181861111111112
 20
-18.75889861111111
 10
5.181861111111112
 20
-18.75889861111111
 10
5.181861111111112
 20
-18.75889861111111
 10
5.181861111111112
 20
-18.75889861111111
 10
5.165255425070225
 20
-18.7635111111111
 10
5.165255425070225
 20
-18.79159861111111
 10
5.181861111111112
 20
-18.79620694444444
 10
5.181861111111112
 20
-18.79620694444444
 10
5.18186514687285
 20
-18.79620694444444
 10
5.18186514687285
 20
-18.79620694444444
 10
5.386587363923354
 20
-18.85302777777777
 10
5.546444444444445
 20
-19.04297083333333
 10
5.594260969788189
 20
-19.28623333333333
 10
5.594260969788189
 20
-19.28623333333333
 10
5.594260969788189
 20
-19.28623333333333
 10
5.594260969788189
 20
-19.28623333333333
 10
5.598140136356859
 20
-19.30596527777778
 10
5.621779024648579
 20
-19.30596527777778
 10
5.62565819121725
 20
-19.28623333333333
 10
5.62565819121725
 20
-19.28623333333333
 10
5.62565819121725
 20
-19.28622916666667
 10
5.62565819121725
 20
-19.28622916666667
 10
5.673474856675966
 20
-19.04297083333333
 10
5.833331797082084
 20
-18.85302777777777
 10
6.038054014132588
 20
-18.79620694444444
 97
        0
 97
        0
 75
     2
 76
     1
 98
        0
  0
SPLINE
  5
4C
330
1F
100
AcDbEntity
  8
Layer 1
370
     0
100
AcDbSpline
210
0.0
220
0.0
230
1.0
 70
    11
 71
     3
 72
    44
 73
    40
 74
     0
 42
0.0000000001
 43
0.0000000001
 12
1.0
 22
0.0
 32
0.0
 13
1.0
 23
0.0
 33
0.0
 40
0.0
 40
0.0
 40
0.0
 40
0.0
 40
1.0
 40
1.0
 40
1.0
 40
2.0
 40
2.0
 40
2.0
 40
3.0
 40
3.0
 40
3.0
 40
4.0
 40
4.0
 40
4.0
 40
5.0
 40
5.0
 40
5.0
 40
6.0
 40
6.0
 40
6.0
 40
7.0
 40
7.0
 40
7.0
 40
8.0
 40
8.0
 40
8.0
 40
9.0
 40
9.0
 40
9.0
 40
10.0
 40
10.0
 40
10.0
 40
11.0
 40
11.0
 40
11.0
 40
12.0
 40
12.0
 40
12.0
 40
13.0
 40
13.0
 40
13.0
 40
13.0
 10
7.743467859939098
 20
-18.95445694444445
 30
0.0
 10
7.743365082163917
 20
-18.85359166666666
 30
0.0
 10
7.720266471636326
 20
-18.74728888888889
 30
0.0
 10
7.607077585606829
 20
-18.78553055555555
 30
0.0
 10
7.490397032998872
 20
-18.82495694444444
 30
0.0
 10
7.424392867999611
 20
-19.00200694444445
 30
0.0
 10
7.406481757340972
 20
-19.11229722222222
 30
0.0
 10
7.385749999999992
 20
-19.23992500000001
 30
0.0
 10
7.393723424329941
 20
-19.37266527777777
 30
0.0
 10
7.354720647537457
 20
-19.49712222222221
 30
0.0
 10
7.342266481185409
 20
-19.53686805555556
 30
0.0
 10
7.301486111111116
 20
-19.60169861111111
 30
0.0
 10
7.329503981507817
 20
-19.64151805555555
 30
0.0
 10
7.371124999999993
 20
-19.70065972222222
 30
0.0
 10
7.402672035214992
 20
-19.76490833333332
 30
0.0
 10
7.426083333333331
 20
-19.83339444444444
 30
0.0
 10
7.457986111111116
 20
-19.92671111111111
 30
0.0
 10
7.48428592204214
 20
-20.02210972222221
 30
0.0
 10
7.530137309772726
 20
-20.11027777777779
 30
0.0
 10
7.553365086963721
 20
-20.15494305555555
 30
0.0
 10
7.574844253087778
 20
-20.20052777777778
 30
0.0
 10
7.59665397475904
 20
-20.24592083333333
 30
0.0
 10
7.600948419094998
 20
-20.25485138888888
 30
0.0
 10
7.603670641248451
 20
-20.25417916666667
 30
0.0
 10
7.608072030026151
 20
-20.24656944444445
 30
0.0
 10
7.611092863283172
 20
-20.24133611111112
 30
0.0
 10
7.614724807635866
 20
-20.23645833333333
 30
0.0
 10
7.617734529782056
 20
-20.23122499999999
 30
0.0
 10
7.686880361368619
 20
-20.11119722222222
 30
0.0
 10
7.725248415954916
 20
-19.98258472222222
 30
0.0
 10
7.723815082657792
 20
-19.84340277777778
 30
0.0
 10
7.722194444444439
 20
-19.68724861111112
 30
0.0
 10
7.772703970311643
 20
-19.53338472222223
 30
0.0
 10
7.756603970718364
 20
-19.37767777777779
 30
0.0
 10
7.746142859871522
 20
-19.2765611111111
 30
0.0
 10
7.724085915984283
 20
-19.18345416666665
 30
0.0
 10
7.735017860152563
 20
-19.08055416666667
 30
0.0
 10
7.738122026740812
 20
-19.05133055555555
 30
0.0
 10
7.743519248826689
 20
-19.00354305555556
 30
0.0
 10
7.743467859939098
 20
-18.95445694444445
 30
0.0
  0
HATCH
  5
4D
330
1F
100
AcDbEntity
  8
Layer 1
 62
     7
420
 16314339
100
AcDbHatch
 10
0.0
 20
0.0
 30
0.0
210
0.0
220
0.0
230
1.0
  2
SOLID
 70
     1
 71
     0
 91
        1
 92
        1
 93
        1
 72
     4
 94
        3
 73
     0
 74
     1
 95
       44
 96
       40
 40
0.0
 40
0.0
 40
0.0
 40
0.0
 40
1.0
 40
1.0
 40
1.0
 40
2.0
 40
2.0
 40
2.0
 40
3.0
 40
3.0
 40
3.0
 40
4.0
 40
4.0
 40
4.0
 40
5.0
 40
5.0
 40
5.0
 40
6.0
 40
6.0
 40
6.0
 40
7.0
 40
7.0
 40
7.0
 40
8.0
 40
8.0
 40
8.0
 40
9.0
 40
9.0
 40
9.0
 40
10.0
 40
10.0
 40
10.0
 40
11.0
 40
11.0
 40
11.0
 40
12.0
 40
12.0
 40
12.0
 40
13.0
 40
13.0
 40
13.0
 40
13.0
 10
7.743467859939098
 20
-18.95445694444445
 10
7.743365082163917
 20
-18.85359166666666
 10
7.720266471636326
 20
-18.74728888888889
 10
7.607077585606829
 20
-18.78553055555555
 10
7.490397032998872
 20
-18.82495694444444
 10
7.424392867999611
 20
-19.00200694444445
 10
7.406481757340972
 20
-19.11229722222222
 10
7.385749999999992
 20
-19.23992500000001
 10
7.393723424329941
 20
-19.37266527777777
 10
7.354720647537457
 20
-19.49712222222221
 10
7.342266481185409
 20
-19.53686805555556
 10
7.301486111111116
 20
-19.60169861111111
 10
7.329503981507817
 20
-19.64151805555555
 10
7.371124999999993
 20
-19.70065972222222
 10
7.402672035214992
 20
-19.76490833333332
 10
7.426083333333331
 20
-19.83339444444444
 10
7.457986111111116
 20
-19.92671111111111
 10
7.48428592204214
 20
-20.02210972222221
 10
7.530137309772726
 20
-20.11027777777779
 10
7.553365086963721
 20
-20.15494305555555
 10
7.574844253087778
 20
-20.20052777777778
 10
7.59665397475904
 20
-20.24592083333333
 10
7.600948419094998
 20
-20.25485138888888
 10
7.603670641248451
 20
-20.25417916666667
 10
7.608072030026151
 20
-20.24656944444445
 10
7.611092863283172
 20
-20.24133611111112
 10
7.614724807635866
 20
-20.23645833333333
 10
7.617734529782056
 20
-20.23122499999999
 10
7.686880361368619
 20
-20.11119722222222
 10
7.725248415954916
 20
-19.98258472222222
 10
7.723815082657792
 20
-19.84340277777778
 10
7.722194444444439
 20
-19.68724861111112
 10
7.772703970311643
 20
-19.53338472222223
 10
7.756603970718364
 20
-19.37767777777779
 10
7.746142859871522
 20
-19.2765611111111
 10
7.724085915984283
 20
-19.18345416666665
 10
7.735017860152563
 20
-19.08055416666667
 10
7.738122026740812
 20
-19.05133055555555
 10
7.743519248826689
 20
-19.00354305555556
 10
7.743467859939098
 20
-18.95445694444445
 97
        0
 97
        0
 75
     2
 76
     1
 98
        0
  0
INSERT
  5
4F
330
1F
100
AcDbEntity
  8
Layer 1
100
AcDbBlockReference
  2
block 3
 10
0.0
 20
0.0
 30
0.0
  0
SPLINE
  5
53
330
1F
100
AcDbEntity
  8
Layer 1
370
     0
100
AcDbSpline
210
0.0
220
0.0
230
1.0
 70
    11
 71
     3
 72
   203
 73
   199
 74
     0
 42
0.0000000001
 43
0.0000000001
 12
1.0
 22
0.0
 32
0.0
 13
1.0
 23
0.0
 33
0.0
 40
0.0
 40
0.0
 40
0.0
 40
0.0
 40
1.0
 40
1.0
 40
1.0
 40
2.0
 40
2.0
 40
2.0
 40
3.0
 40
3.0
 40
3.0
 40
4.0
 40
4.0
 40
4.0
 40
5.0
 40
5.0
 40
5.0
 40
6.0
 40
6.0
 40
6.0
 40
7.0
 40
7.0
 40
7.0
 40
8.0
 40
8.0
 40
8.0
 40
9.0
 40
9.0
 40
9.0
 40
10.0
 40
10.0
 40
10.0
 40
11.0
 40
11.0
 40
11.0
 40
12.0
 40
12.0
 40
12.0
 40
13.0
 40
13.0
 40
13.0
 40
14.0
 40
14.0
 40
14.0
 40
15.0
 40
15.0
 40
15.0
 40
16.0
 40
16.0
 40
16.0
 40
17.0
 40
17.0
 40
17.0
 40
18.0
 40
18.0
 40
18.0
 40
19.0
 40
19.0
 40
19.0
 40
20.0
 40
20.0
 40
20.0
 40
21.0
 40
21.0
 40
21.0
 40
22.0
 40
22.0
 40
22.0
 40
23.0
 40
23.0
 40
23.0
 40
24.0
 40
24.0
 40
24.0
 40
25.0
 40
25.0
 40
25.0
 40
26.0
 40
26.0
 40
26.0
 40
27.0
 40
27.0
 40
27.0
 40
28.0
 40
28.0
 40
28.0
 40
29.0
 40
29.0
 40
29.0
 40
30.0
 40
30.0
 40
30.0
 40
31.0
 40
31.0
 40
31.0
 40
32.0
 40
32.0
 40
32.0
 40
33.0
 40
33.0
 40
33.0
 40
34.0
 40
34.0
 40
34.0
 40
35.0
 40
35.0
 40
35.0
 40
36.0
 40
36.0
 40
36.0
 40
37.0
 40
37.0
 40
37.0
 40
38.0
 40
38.0
 40
38.0
 40
39.0
 40
39.0
 40
39.0
 40
40.0
 40
40.0
 40
40.0
 40
41.0
 40
41.0
 40
41.0
 40
42.0
 40
42.0
 40
42.0
 40
43.0
 40
43.0
 40
43.0
 40
44.0
 40
44.0
 40
44.0
 40
45.0
 40
45.0
 40
45.0
 40
46.0
 40
46.0
 40
46.0
 40
47.0
 40
47.0
 40
47.0
 40
48.0
 40
48.0
 40
48.0
 40
49.0
 40
49.0
 40
49.0
 40
50.0
 40
50.0
 40
50.0
 40
51.0
 40
51.0
 40
51.0
 40
52.0
 40
52.0
 40
52.0
 40
53.0
 40
53.0
 40
53.0
 40
54.0
 40
54.0
 40
54.0
 40
55.0
 40
55.0
 40
55.0
 40
56.0
 40
56.0
 40
56.0
 40
57.0
 40
57.0
 40
57.0
 40
58.0
 40
58.0
 40
58.0
 40
59.0
 40
59.0
 40
59.0
 40
60.0
 40
60.0
 40
60.0
 40
61.0
 40
61.0
 40
61.0
 40
62.0
 40
62.0
 40
62.0
 40
63.0
 40
63.0
 40
63.0
 40
64.0
 40
64.0
 40
64.0
 40
65.0
 40
65.0
 40
65.0
 40
66.0
 40
66.0
 40
66.0
 40
66.0
 10
8.231753958715064
 20
-20.30672361111111
 30
0.0
 10
8.221483125641194
 20
-20.27310833333334
 30
0.0
 10
8.193474793015412
 20
-20.2539736111111
 30
0.0
 10
8.158930555555546
 20
-20.2553736111111
 30
0.0
 10
8.123919239216978
 20
-20.2567736111111
 30
0.0
 10
8.093109517773074
 20
-20.26984444444444
 30
0.0
 10
8.065099796258437
 20
-20.28851805555556
 30
0.0
 10
7.921320633223937
 20
-20.38468194444443
 30
0.0
 10
7.864369245773761
 20
-20.57094166666666
 30
0.0
 10
7.815819444444438
 20
-20.72825416666668
 30
0.0
 10
7.779878970130388
 20
-20.84495972222223
 30
0.0
 10
7.697252583328817
 20
-20.94719722222223
 30
0.0
 10
7.600149808004062
 20
-21.02048194444445
 30
0.0
 10
7.588012308310681
 20
-21.02982361111112
 30
0.0
 10
7.579142864090297
 20
-21.02702222222221
 30
0.0
 10
7.574941475307544
 20
-21.01208472222222
 30
0.0
 10
7.57353730867635
 20
-21.00695000000001
 30
0.0
 10
7.574003975331228
 20
-21.00134722222222
 30
0.0
 10
7.57353730867635
 20
-20.99621250000001
 30
0.0
 10
7.563738697812773
 20
-20.72779305555554
 30
0.0
 10
7.683710917004241
 20
-20.44303472222221
 30
0.0
 10
7.544598420518518
 20
-20.19048611111111
 30
0.0
 10
7.448901200713812
 20
-20.016825
 30
0.0
 10
7.423692868017294
 20
-19.80909722222223
 30
0.0
 10
7.305584537667628
 20
-19.64804444444444
 30
0.0
 10
7.240234539318508
 20
-19.55841527777779
 30
0.0
 10
7.198220651490979
 20
-19.45804583333332
 30
0.0
 10
7.16694444444445
 20
-19.35207777777777
 30
0.0
 10
7.151072041570942
 20
-19.29933194444445
 30
0.0
 10
7.129131764347423
 20
-19.25031666666667
 30
0.0
 10
7.087117876519894
 20
-19.21249999999999
 30
0.0
 10
7.039969266599857
 20
-19.17095833333332
 30
0.0
 10
6.987219267932434
 20
-19.1774888888889
 30
0.0
 10
6.951741491050901
 20
-19.23024861111111
 30
0.0
 10
6.927938713874432
 20
-19.26525972222223
 30
0.0
 10
6.912528992041492
 20
-19.30399999999998
 30
0.0
 10
6.904597222222214
 20
-19.34508055555554
 30
0.0
 10
6.884052603871977
 20
-19.45338194444444
 30
0.0
 10
6.886387326035219
 20
-19.56214583333334
 30
0.0
 10
6.907394269948983
 20
-19.66951805555555
 30
0.0
 10
6.949878991097951
 20
-19.88752222222221
 30
0.0
 10
7.02223037815909
 20
-20.09759027777778
 30
0.0
 10
7.093187320811012
 20
-20.30765694444444
 30
0.0
 10
7.121662320091673
 20
-20.39121250000001
 30
0.0
 10
7.089452598683136
 20
-20.48598194444445
 30
0.0
 10
7.078720654509803
 20
-20.57094166666666
 30
0.0
 10
7.066583333333331
 20
-20.66710694444444
 30
0.0
 10
7.058176210584356
 20
-20.76373333333332
 30
0.0
 10
7.053040099602994
 20
-20.86083611111111
 30
0.0
 10
7.053040099602994
 20
-20.88977777777778
 30
0.0
 10
7.053040099602994
 20
-20.91825416666666
 30
0.0
 10
7.052573432948115
 20
-20.94719722222223
 30
0.0
 10
7.052573432948115
 20
-20.95747083333334
 30
0.0
 10
7.059570654993573
 20
-20.97380000000001
 30
0.0
 10
7.041837322108222
 20
-20.97426805555556
 30
0.0
 10
7.025494266965526
 20
-20.97473472222221
 30
0.0
 10
7.029233155759963
 20
-20.95840000000001
 30
0.0
 10
7.029233155759963
 20
-20.94766388888888
 30
0.0
 10
7.027831766906476
 20
-20.84029583333333
 30
0.0
 10
7.037630377770054
 20
-20.73292777777778
 30
0.0
 10
7.047901210843924
 20
-20.62602638888888
 30
0.0
 10
7.055378988432797
 20
-20.55040277777779
 30
0.0
 10
7.067983154781055
 20
-20.47571111111112
 30
0.0
 10
7.080583333333329
 20
-20.40055416666665
 30
0.0
 10
7.083845654380335
 20
-20.37814166666668
 30
0.0
 10
7.084784543245505
 20
-20.35573472222222
 30
0.0
 10
7.077315098989756
 20
-20.33286111111111
 30
0.0
 10
7.018495656031215
 20
-20.15780416666666
 30
0.0
 10
6.958742879762919
 20
-19.98321527777777
 30
0.0
 10
6.912995658696369
 20
-19.80396111111112
 30
0.0
 10
6.877051215159958
 20
-19.66158194444445
 30
0.0
 10
6.855109549047584
 20
-19.51826944444444
 30
0.0
 10
6.876116492961349
 20
-19.37122222222221
 30
0.0
 10
6.884981770515171
 20
-19.31286944444443
 30
0.0
 10
6.901324825657866
 20
-19.25731944444444
 30
0.0
 10
6.937737324738009
 20
-19.20923611111112
 30
0.0
 10
6.972748434964664
 20
-19.16302222222223
 30
0.0
 10
7.017095656066582
 20
-19.15041805555554
 30
0.0
 10
7.071241488032077
 20
-19.17189583333334
 30
0.0
 10
7.074047043516758
 20
-19.172825
 30
0.0
 10
7.078720654509803
 20
-19.17562638888888
 30
0.0
 10
7.079653987819559
 20
-19.17469166666665
 30
0.0
 10
7.083378987725458
 20
-19.171425
 30
0.0
 10
7.080583333333329
 20
-19.16722361111111
 30
0.0
 10
7.079653987819559
 20
-19.16348888888888
 30
0.0
 10
7.074513888888886
 20
-19.14575000000001
 30
0.0
 10
7.069845654734005
 20
-19.12847777777779
 30
0.0
 10
7.065177599296375
 20
-19.11120555555554
 30
0.0
 10
7.046038710890975
 20
-19.04304999999999
 30
0.0
 10
7.018962322686093
 20
-18.97909166666667
 30
0.0
 10
6.979749999999992
 20
-18.92073888888889
 30
0.0
 10
6.952674824360656
 20
-18.8810638888889
 30
0.0
 10
6.919526214086949
 20
-18.87172777777778
 30
0.0
 10
6.876583333333327
 20
-18.89227222222222
 30
0.0
 10
6.744469274064815
 20
-18.95528333333333
 30
0.0
 10
6.691256775409076
 20
-19.1928986111111
 30
0.0
 10
6.708528997194965
 20
-19.32407777777778
 30
0.0
 10
6.719266496923713
 20
-19.40296527777779
 30
0.0
 10
6.742140107456988
 20
-19.47719027777778
 30
0.0
 10
6.771549828936259
 20
-19.55047500000001
 30
0.0
 10
6.803288717023356
 20
-19.63077222222222
 30
0.0
 10
6.829902777777786
 20
-19.71199861111111
 30
0.0
 10
6.840638888888886
 20
-19.79835972222223
 30
0.0
 10
6.855577604591316
 20
-19.91413055555555
 30
0.0
 10
6.893388888888896
 20
-20.02476666666666
 30
0.0
 10
6.887320659344974
 20
-20.14193749999999
 30
0.0
 10
6.883119270562221
 20
-20.22782638888889
 30
0.0
 10
6.887320659344974
 20
-20.31279166666667
 30
0.0
 10
6.900391492348111
 20
-20.39729027777778
 30
0.0
 10
6.907855381048446
 20
-20.44256805555556
 30
0.0
 10
6.865847222222227
 20
-20.4771125
 30
0.0
 10
6.842505382699326
 20
-20.51118888888888
 30
0.0
 10
6.814959550061858
 20
-20.55133611111112
 30
0.0
 10
6.789755384031903
 20
-20.59288194444444
 30
0.0
 10
6.761280384751242
 20
-20.6325625
 30
0.0
 10
6.702460941792701
 20
-20.71518888888889
 30
0.0
 10
6.626369277048272
 20
-20.75813611111112
 30
0.0
 10
6.551212334502452
 20
-20.82208472222222
 30
0.0
 10
6.547944444444434
 20
-20.82489027777779
 30
0.0
 10
6.544209556901579
 20
-20.830025
 30
0.0
 10
6.539541666666663
 20
-20.828625
 30
0.0
 10
6.533473446061684
 20
-20.82675833333332
 30
0.0
 10
6.535335946014634
 20
-20.81975555555555
 30
0.0
 10
6.534402777777788
 20
-20.81508749999999
 30
0.0
 10
6.493794280397398
 20
-20.5448
 30
0.0
 10
6.440109559531366
 20
-20.26237083333333
 30
0.0
 10
6.350480395128923
 20
-20.00422638888888
 30
0.0
 10
6.325734562420721
 20
-19.93420416666666
 30
0.0
 10
6.287460952276483
 20
-19.87212222222221
 30
0.0
 10
6.234709564720206
 20
-19.8193625
 30
0.0
 10
6.194563732401043
 20
-19.78015416666666
 30
0.0
 10
6.135745678331356
 20
-19.75447916666667
 30
0.0
 10
6.076926235372816
 20
-19.7876236111111
 30
0.0
 10
6.044244291753986
 20
-19.80629166666666
 30
0.0
 10
6.022304014530467
 20
-19.83430416666667
 30
0.0
 10
6.008770681539014
 20
-19.86931666666667
 30
0.0
 10
5.971424849149116
 20
-19.96688055555556
 30
0.0
 10
5.987763888888897
 20
-20.08591944444445
 30
0.0
 10
5.991498459753125
 20
-20.18815277777778
 30
0.0
 10
5.998495681798582
 20
-20.37581249999999
 30
0.0
 10
6.044244291753986
 20
-20.56907500000001
 30
0.0
 10
6.029315125464462
 20
-20.75626805555556
 30
0.0
 10
6.016710959116204
 20
-20.91965416666666
 30
0.0
 10
5.940144294383773
 20
-21.06996944444444
 30
0.0
 10
5.876666666666678
 20
-21.21981388888889
 30
0.0
 10
5.806644297756267
 20
-21.38507083333333
 30
0.0
 10
5.768359576501198
 20
-21.54939027777777
 30
0.0
 10
5.787033187140574
 20
-21.73004861111111
 30
0.0
 10
5.796835964670714
 20
-21.82714166666667
 30
0.0
 10
5.82390679732018
 20
-21.92097777777778
 30
0.0
 10
5.852858185477695
 20
-22.01434027777777
 30
0.0
 10
5.917741517171938
 20
-22.22253611111111
 30
0.0
 10
5.895801239948418
 20
-22.44147777777779
 30
0.0
 10
5.872927629415143
 20
-22.65480833333332
 30
0.0
 10
5.848185963373504
 20
-22.88542083333333
 30
0.0
 10
5.829517908289542
 20
-23.11650000000001
 30
0.0
 10
5.794973464717764
 20
-23.34570277777778
 30
0.0
 10
5.781430555555567
 20
-23.43906666666668
 30
0.0
 10
5.641852635252588
 20
-24.19064583333334
 30
0.0
 10
5.607779025002249
 20
-24.35729583333333
 30
0.0
 10
6.056381791447367
 20
-24.35075972222221
 30
0.0
 10
6.482590114013773
 20
-24.24946111111111
 30
0.0
 10
6.86631371543121
 20
-24.07347499999999
 30
0.0
 10
6.881719270597588
 20
-23.85546666666667
 30
0.0
 10
6.877517881814835
 20
-23.50955555555555
 30
0.0
 10
6.877051215159958
 20
-23.46987638888888
 30
0.0
 10
6.873310937476667
 20
-23.25280694444445
 30
0.0
 10
6.873310937476667
 20
-23.03573611111111
 30
0.0
 10
6.877517881814835
 20
-22.81866111111112
 30
0.0
 10
6.879384548434346
 20
-22.71269444444445
 30
0.0
 10
6.880323437299516
 20
-22.60533055555556
 30
0.0
 10
6.942866491275102
 20
-22.51476388888889
 30
0.0
 10
7.034834544507349
 20
-22.38312638888889
 30
0.0
 10
7.08291232107058
 20
-22.22300277777777
 30
0.0
 10
7.170212318865197
 20
-22.08716388888888
 30
0.0
 10
7.259840094378786
 20
-21.94851944444445
 30
0.0
 10
7.364402777777766
 20
-21.81314305555555
 30
0.0
 10
7.489981755231585
 20
-21.70530833333333
 30
0.0
 10
7.55440277777777
 20
-21.65021805555554
 30
0.0
 10
7.625824807355457
 20
-21.60587499999999
 30
0.0
 10
7.686977583588385
 20
-21.54658472222223
 30
0.0
 10
7.750931748639434
 20
-21.48543749999999
 30
0.0
 10
7.807412302768171
 20
-21.41634722222223
 30
0.0
 10
7.858299801482644
 20
-21.343525
 30
0.0
 10
7.938126188354949
 20
-21.23008333333334
 30
0.0
 10
7.993205353630199
 20
-21.09798333333333
 30
0.0
 10
8.080505351424815
 20
-20.99061111111112
 30
0.0
 10
8.142591460967498
 20
-20.91451944444444
 30
0.0
 10
8.167333333333342
 20
-20.82675833333332
 30
0.0
 10
8.173401182411402
 20
-20.73199444444445
 30
0.0
 10
8.17386784906628
 20
-20.72452916666667
 30
0.0
 10
8.17386784906628
 20
-20.71751805555555
 30
0.0
 10
8.174334515721158
 20
-20.71005416666667
 30
0.0
 10
8.17667340455096
 20
-20.64049722222222
 30
0.0
 10
8.194875000000012
 20
-20.5732763888889
 30
0.0
 10
8.211684514777618
 20
-20.50651666666666
 30
0.0
 10
8.227547014376897
 20
-20.44256805555556
 30
0.0
 10
8.251355347108781
 20
-20.37207777777778
 30
0.0
 10
8.231753958715064
 20
-20.30672361111111
 30
0.0
  0
HATCH
  5
54
330
1F
100
AcDbEntity
  8
Layer 1
 62
     7
420
 16314339
100
AcDbHatch
 10
0.0
 20
0.0
 30
0.0
210
0.0
220
0.0
230
1.0
  2
SOLID
 70
     1
 71
     0
 91
        2
 92
        1
 93
        1
 72
     4
 94
        3
 73
     0
 74
     1
 95
       26
 96
       22
 40
0.0
 40
0.0
 40
0.0
 40
0.0
 40
1.0
 40
1.0
 40
1.0
 40
2.0
 40
2.0
 40
2.0
 40
3.0
 40
3.0
 40
3.0
 40
4.0
 40
4.0
 40
4.0
 40
5.0
 40
5.0
 40
5.0
 40
6.0
 40
6.0
 40
6.0
 40
7.0
 40
7.0
 40
7.0
 40
7.0
 10
6.560081778722835
 20
-22.16932361111111
 10
6.297267896473183
 20
-22.17025694444444
 10
6.086266512914638
 20
-21.95785555555555
 10
6.085795679593199
 20
-21.69689999999999
 10
6.084395679628566
 20
-21.44669166666666
 10
6.281391507985366
 20
-21.23242222222221
 10
6.540008168118826
 20
-21.22308611111112
 10
6.398562338358715
 20
-21.2758361111111
 10
6.298663729771255
 20
-21.41541388888888
 10
6.301927618577691
 20
-21.57553194444444
 10
6.306133174027005
 20
-21.77719722222223
 10
6.470452614320392
 20
-21.93544861111112
 10
6.671188720360482
 20
-21.93498194444444
 10
6.85090399359827
 20
-21.93170972222222
 10
6.997027777777778
 20
-21.80567361111111
 10
7.029699822414841
 20
-21.63948194444444
 10
7.031572044589766
 20
-21.65629166666668
 10
7.032972222222219
 20
-21.67309722222222
 10
7.032972222222219
 20
-21.69036944444444
 10
7.034834544507349
 20
-21.95692222222222
 10
6.824766494258559
 20
-22.16839027777779
 10
6.560081778722835
 20
-22.16932361111111
 97
        0
 97
        0
 92
        1
 93
        1
 72
     4
 94
        3
 73
     0
 74
     1
 95
      203
 96
      199
 40
0.0
 40
0.0
 40
0.0
 40
0.0
 40
1.0
 40
1.0
 40
1.0
 40
2.0
 40
2.0
 40
2.0
 40
3.0
 40
3.0
 40
3.0
 40
4.0
 40
4.0
 40
4.0
 40
5.0
 40
5.0
 40
5.0
 40
6.0
 40
6.0
 40
6.0
 40
7.0
 40
7.0
 40
7.0
 40
8.0
 40
8.0
 40
8.0
 40
9.0
 40
9.0
 40
9.0
 40
10.0
 40
10.0
 40
10.0
 40
11.0
 40
11.0
 40
11.0
 40
12.0
 40
12.0
 40
12.0
 40
13.0
 40
13.0
 40
13.0
 40
14.0
 40
14.0
 40
14.0
 40
15.0
 40
15.0
 40
15.0
 40
16.0
 40
16.0
 40
16.0
 40
17.0
 40
17.0
 40
17.0
 40
18.0
 40
18.0
 40
18.0
 40
19.0
 40
19.0
 40
19.0
 40
20.0
 40
20.0
 40
20.0
 40
21.0
 40
21.0
 40
21.0
 40
22.0
 40
22.0
 40
22.0
 40
23.0
 40
23.0
 40
23.0
 40
24.0
 40
24.0
 40
24.0
 40
25.0
 40
25.0
 40
25.0
 40
26.0
 40
26.0
 40
26.0
 40
27.0
 40
27.0
 40
27.0
 40
28.0
 40
28.0
 40
28.0
 40
29.0
 40
29.0
 40
29.0
 40
30.0
 40
30.0
 40
30.0
 40
31.0
 40
31.0
 40
31.0
 40
32.0
 40
32.0
 40
32.0
 40
33.0
 40
33.0
 40
33.0
 40
34.0
 40
34.0
 40
34.0
 40
35.0
 40
35.0
 40
35.0
 40
36.0
 40
36.0
 40
36.0
 40
37.0
 40
37.0
 40
37.0
 40
38.0
 40
38.0
 40
38.0
 40
39.0
 40
39.0
 40
39.0
 40
40.0
 40
40.0
 40
40.0
 40
41.0
 40
41.0
 40
41.0
 40
42.0
 40
42.0
 40
42.0
 40
43.0
 40
43.0
 40
43.0
 40
44.0
 40
44.0
 40
44.0
 40
45.0
 40
45.0
 40
45.0
 40
46.0
 40
46.0
 40
46.0
 40
47.0
 40
47.0
 40
47.0
 40
48.0
 40
48.0
 40
48.0
 40
49.0
 40
49.0
 40
49.0
 40
50.0
 40
50.0
 40
50.0
 40
51.0
 40
51.0
 40
51.0
 40
52.0
 40
52.0
 40
52.0
 40
53.0
 40
53.0
 40
53.0
 40
54.0
 40
54.0
 40
54.0
 40
55.0
 40
55.0
 40
55.0
 40
56.0
 40
56.0
 40
56.0
 40
57.0
 40
57.0
 40
57.0
 40
58.0
 40
58.0
 40
58.0
 40
59.0
 40
59.0
 40
59.0
 40
60.0
 40
60.0
 40
60.0
 40
61.0
 40
61.0
 40
61.0
 40
62.0
 40
62.0
 40
62.0
 40
63.0
 40
63.0
 40
63.0
 40
64.0
 40
64.0
 40
64.0
 40
65.0
 40
65.0
 40
65.0
 40
66.0
 40
66.0
 40
66.0
 40
66.0
 10
8.231753958715064
 20
-20.30672361111111
 10
8.221483125641194
 20
-20.27310833333334
 10
8.193474793015412
 20
-20.2539736111111
 10
8.158930555555546
 20
-20.2553736111111
 10
8.123919239216978
 20
-20.2567736111111
 10
8.093109517773074
 20
-20.26984444444444
 10
8.065099796258437
 20
-20.28851805555556
 10
7.921320633223937
 20
-20.38468194444443
 10
7.864369245773761
 20
-20.57094166666666
 10
7.815819444444438
 20
-20.72825416666668
 10
7.779878970130388
 20
-20.84495972222223
 10
7.697252583328817
 20
-20.94719722222223
 10
7.600149808004062
 20
-21.02048194444445
 10
7.588012308310681
 20
-21.02982361111112
 10
7.579142864090297
 20
-21.02702222222221
 10
7.574941475307544
 20
-21.01208472222222
 10
7.57353730867635
 20
-21.00695000000001
 10
7.574003975331228
 20
-21.00134722222222
 10
7.57353730867635
 20
-20.99621250000001
 10
7.563738697812773
 20
-20.72779305555554
 10
7.683710917004241
 20
-20.44303472222221
 10
7.544598420518518
 20
-20.19048611111111
 10
7.448901200713812
 20
-20.016825
 10
7.423692868017294
 20
-19.80909722222223
 10
7.305584537667628
 20
-19.64804444444444
 10
7.240234539318508
 20
-19.55841527777779
 10
7.198220651490979
 20
-19.45804583333332
 10
7.16694444444445
 20
-19.35207777777777
 10
7.151072041570942
 20
-19.29933194444445
 10
7.129131764347423
 20
-19.25031666666667
 10
7.087117876519894
 20
-19.21249999999999
 10
7.039969266599857
 20
-19.17095833333332
 10
6.987219267932434
 20
-19.1774888888889
 10
6.951741491050901
 20
-19.23024861111111
 10
6.927938713874432
 20
-19.26525972222223
 10
6.912528992041492
 20
-19.30399999999998
 10
6.904597222222214
 20
-19.34508055555554
 10
6.884052603871977
 20
-19.45338194444444
 10
6.886387326035219
 20
-19.56214583333334
 10
6.907394269948983
 20
-19.66951805555555
 10
6.949878991097951
 20
-19.88752222222221
 10
7.02223037815909
 20
-20.09759027777778
 10
7.093187320811012
 20
-20.30765694444444
 10
7.121662320091673
 20
-20.39121250000001
 10
7.089452598683136
 20
-20.48598194444445
 10
7.078720654509803
 20
-20.57094166666666
 10
7.066583333333331
 20
-20.66710694444444
 10
7.058176210584356
 20
-20.76373333333332
 10
7.053040099602994
 20
-20.86083611111111
 10
7.053040099602994
 20
-20.88977777777778
 10
7.053040099602994
 20
-20.91825416666666
 10
7.052573432948115
 20
-20.94719722222223
 10
7.052573432948115
 20
-20.95747083333334
 10
7.059570654993573
 20
-20.97380000000001
 10
7.041837322108222
 20
-20.97426805555556
 10
7.025494266965526
 20
-20.97473472222221
 10
7.029233155759963
 20
-20.95840000000001
 10
7.029233155759963
 20
-20.94766388888888
 10
7.027831766906476
 20
-20.84029583333333
 10
7.037630377770054
 20
-20.73292777777778
 10
7.047901210843924
 20
-20.62602638888888
 10
7.055378988432797
 20
-20.55040277777779
 10
7.067983154781055
 20
-20.47571111111112
 10
7.080583333333329
 20
-20.40055416666665
 10
7.083845654380335
 20
-20.37814166666668
 10
7.084784543245505
 20
-20.35573472222222
 10
7.077315098989756
 20
-20.33286111111111
 10
7.018495656031215
 20
-20.15780416666666
 10
6.958742879762919
 20
-19.98321527777777
 10
6.912995658696369
 20
-19.80396111111112
 10
6.877051215159958
 20
-19.66158194444445
 10
6.855109549047584
 20
-19.51826944444444
 10
6.876116492961349
 20
-19.37122222222221
 10
6.884981770515171
 20
-19.31286944444443
 10
6.901324825657866
 20
-19.25731944444444
 10
6.937737324738009
 20
-19.20923611111112
 10
6.972748434964664
 20
-19.16302222222223
 10
7.017095656066582
 20
-19.15041805555554
 10
7.071241488032077
 20
-19.17189583333334
 10
7.074047043516758
 20
-19.172825
 10
7.078720654509803
 20
-19.17562638888888
 10
7.079653987819559
 20
-19.17469166666665
 10
7.083378987725458
 20
-19.171425
 10
7.080583333333329
 20
-19.16722361111111
 10
7.079653987819559
 20
-19.16348888888888
 10
7.074513888888886
 20
-19.14575000000001
 10
7.069845654734005
 20
-19.12847777777779
 10
7.065177599296375
 20
-19.11120555555554
 10
7.046038710890975
 20
-19.04304999999999
 10
7.018962322686093
 20
-18.97909166666667
 10
6.979749999999992
 20
-18.92073888888889
 10
6.952674824360656
 20
-18.8810638888889
 10
6.919526214086949
 20
-18.87172777777778
 10
6.876583333333327
 20
-18.89227222222222
 10
6.744469274064815
 20
-18.95528333333333
 10
6.691256775409076
 20
-19.1928986111111
 10
6.708528997194965
 20
-19.32407777777778
 10
6.719266496923713
 20
-19.40296527777779
 10
6.742140107456988
 20
-19.47719027777778
 10
6.771549828936259
 20
-19.55047500000001
 10
6.803288717023356
 20
-19.63077222222222
 10
6.829902777777786
 20
-19.71199861111111
 10
6.840638888888886
 20
-19.79835972222223
 10
6.855577604591316
 20
-19.91413055555555
 10
6.893388888888896
 20
-20.02476666666666
 10
6.887320659344974
 20
-20.14193749999999
 10
6.883119270562221
 20
-20.22782638888889
 10
6.887320659344974
 20
-20.31279166666667
 10
6.900391492348111
 20
-20.39729027777778
 10
6.907855381048446
 20
-20.44256805555556
 10
6.865847222222227
 20
-20.4771125
 10
6.842505382699326
 20
-20.51118888888888
 10
6.814959550061858
 20
-20.55133611111112
 10
6.789755384031903
 20
-20.59288194444444
 10
6.761280384751242
 20
-20.6325625
 10
6.702460941792701
 20
-20.71518888888889
 10
6.626369277048272
 20
-20.75813611111112
 10
6.551212334502452
 20
-20.82208472222222
 10
6.547944444444434
 20
-20.82489027777779
 10
6.544209556901579
 20
-20.830025
 10
6.539541666666663
 20
-20.828625
 10
6.533473446061684
 20
-20.82675833333332
 10
6.535335946014634
 20
-20.81975555555555
 10
6.534402777777788
 20
-20.81508749999999
 10
6.493794280397398
 20
-20.5448
 10
6.440109559531366
 20
-20.26237083333333
 10
6.350480395128923
 20
-20.00422638888888
 10
6.325734562420721
 20
-19.93420416666666
 10
6.287460952276483
 20
-19.87212222222221
 10
6.234709564720206
 20
-19.8193625
 10
6.194563732401043
 20
-19.78015416666666
 10
6.135745678331356
 20
-19.75447916666667
 10
6.076926235372816
 20
-19.7876236111111
 10
6.044244291753986
 20
-19.80629166666666
 10
6.022304014530467
 20
-19.83430416666667
 10
6.008770681539014
 20
-19.86931666666667
 10
5.971424849149116
 20
-19.96688055555556
 10
5.987763888888897
 20
-20.08591944444445
 10
5.991498459753125
 20
-20.18815277777778
 10
5.998495681798582
 20
-20.37581249999999
 10
6.044244291753986
 20
-20.56907500000001
 10
6.029315125464462
 20
-20.75626805555556
 10
6.016710959116204
 20
-20.91965416666666
 10
5.940144294383773
 20
-21.06996944444444
 10
5.876666666666678
 20
-21.21981388888889
 10
5.806644297756267
 20
-21.38507083333333
 10
5.768359576501198
 20
-21.54939027777777
 10
5.787033187140574
 20
-21.73004861111111
 10
5.796835964670714
 20
-21.82714166666667
 10
5.82390679732018
 20
-21.92097777777778
 10
5.852858185477695
 20
-22.01434027777777
 10
5.917741517171938
 20
-22.22253611111111
 10
5.895801239948418
 20
-22.44147777777779
 10
5.872927629415143
 20
-22.65480833333332
 10
5.848185963373504
 20
-22.88542083333333
 10
5.829517908289542
 20
-23.11650000000001
 10
5.794973464717764
 20
-23.34570277777778
 10
5.781430555555567
 20
-23.43906666666668
 10
5.641852635252588
 20
-24.19064583333334
 10
5.607779025002249
 20
-24.35729583333333
 10
6.056381791447367
 20
-24.35075972222221
 10
6.482590114013773
 20
-24.24946111111111
 10
6.86631371543121
 20
-24.07347499999999
 10
6.881719270597588
 20
-23.85546666666667
 10
6.877517881814835
 20
-23.50955555555555
 10
6.877051215159958
 20
-23.46987638888888
 10
6.873310937476667
 20
-23.25280694444445
 10
6.873310937476667
 20
-23.03573611111111
 10
6.877517881814835
 20
-22.81866111111112
 10
6.879384548434346
 20
-22.71269444444445
 10
6.880323437299516
 20
-22.60533055555556
 10
6.942866491275102
 20
-22.51476388888889
 10
7.034834544507349
 20
-22.38312638888889
 10
7.08291232107058
 20
-22.22300277777777
 10
7.170212318865197
 20
-22.08716388888888
 10
7.259840094378786
 20
-21.94851944444445
 10
7.364402777777766
 20
-21.81314305555555
 10
7.489981755231585
 20
-21.70530833333333
 10
7.55440277777777
 20
-21.65021805555554
 10
7.625824807355457
 20
-21.60587499999999
 10
7.686977583588385
 20
-21.54658472222223
 10
7.750931748639434
 20
-21.48543749999999
 10
7.807412302768171
 20
-21.41634722222223
 10
7.858299801482644
 20
-21.343525
 10
7.938126188354949
 20
-21.23008333333334
 10
7.993205353630199
 20
-21.09798333333333
 10
8.080505351424815
 20
-20.99061111111112
 10
8.142591460967498
 20
-20.91451944444444
 10
8.167333333333342
 20
-20.82675833333332
 10
8.173401182411402
 20
-20.73199444444445
 10
8.17386784906628
 20
-20.72452916666667
 10
8.17386784906628
 20
-20.71751805555555
 10
8.174334515721158
 20
-20.71005416666667
 10
8.17667340455096
 20
-20.64049722222222
 10
8.194875000000012
 20
-20.5732763888889
 10
8.211684514777618
 20
-20.50651666666666
 10
8.227547014376897
 20
-20.44256805555556
 10
8.251355347108781
 20
-20.37207777777778
 10
8.231753958715064
 20
-20.30672361111111
 97
        0
 97
        0
 75
     2
 76
     1
 98
        0
  0
SPLINE
  5
55
330
1F
100
AcDbEntity
  8
Layer 1
370
     0
100
AcDbSpline
210
0.0
220
0.0
230
1.0
 70
    11
 71
     3
 72
    44
 73
    40
 74
     0
 42
0.0000000001
 43
0.0000000001
 12
1.0
 22
0.0
 32
0.0
 13
1.0
 23
0.0
 33
0.0
 40
0.0
 40
0.0
 40
0.0
 40
0.0
 40
1.0
 40
1.0
 40
1.0
 40
2.0
 40
2.0
 40
2.0
 40
3.0
 40
3.0
 40
3.0
 40
4.0
 40
4.0
 40
4.0
 40
5.0
 40
5.0
 40
5.0
 40
6.0
 40
6.0
 40
6.0
 40
7.0
 40
7.0
 40
7.0
 40
8.0
 40
8.0
 40
8.0
 40
9.0
 40
9.0
 40
9.0
 40
10.0
 40
10.0
 40
10.0
 40
11.0
 40
11.0
 40
11.0
 40
12.0
 40
12.0
 40
12.0
 40
13.0
 40
13.0
 40
13.0
 40
13.0
 10
3.374204081427099
 20
-18.68476249999999
 30
0.0
 10
3.374312414757696
 20
-18.78562777777778
 30
0.0
 10
3.397405469729872
 20
-18.89193611111111
 30
0.0
 10
3.510594355759369
 20
-18.85369027777779
 30
0.0
 10
3.627274908367326
 20
-18.8142625
 30
0.0
 10
3.693279073366587
 20
-18.63721250000001
 30
0.0
 10
3.711190184025225
 20
-18.52692777777778
 30
0.0
 10
3.731922127945937
 20
-18.39929444444445
 30
0.0
 10
3.723948517036256
 20
-18.26655555555556
 30
0.0
 10
3.762951293828741
 20
-18.14210277777777
 30
0.0
 10
3.775411015736204
 20
-18.10235277777777
 30
0.0
 10
3.816191570261556
 20
-18.03752638888889
 30
0.0
 10
3.788167959858381
 20
-17.99770694444444
 30
0.0
 10
3.746547127576478
 20
-17.93856527777777
 30
0.0
 10
3.715004072817767
 20
-17.87431666666667
 30
0.0
 10
3.691588795631509
 20
-17.80583055555556
 30
0.0
 10
3.659686018659663
 20
-17.71251388888888
 30
0.0
 10
3.633386019324057
 20
-17.61711527777778
 30
0.0
 10
3.587540187148887
 20
-17.52894305555555
 30
0.0
 10
3.564311021069039
 20
-17.48427777777778
 30
0.0
 10
3.54282768827842
 20
-17.43869305555555
 30
0.0
 10
3.521017966607157
 20
-17.39330416666667
 30
0.0
 10
3.5167235222712
 20
-17.38437361111111
 30
0.0
 10
3.514006855673162
 20
-17.38504166666667
 30
0.0
 10
3.509599911340047
 20
-17.39265555555556
 30
0.0
 10
3.506580466971879
 20
-17.39788888888889
 30
0.0
 10
3.502948522619186
 20
-17.40276666666667
 30
0.0
 10
3.499937411584142
 20
-17.40799444444445
 30
0.0
 10
3.430791666666664
 20
-17.52802361111112
 30
0.0
 10
3.392424914300136
 20
-17.65664027777777
 30
0.0
 10
3.393862414263822
 20
-17.79582222222221
 30
0.0
 10
3.395477692000794
 20
-17.95197638888889
 30
0.0
 10
3.344967971054555
 20
-18.10583472222222
 30
0.0
 10
3.361067970647834
 20
-18.26154722222222
 30
0.0
 10
3.371529081494676
 20
-18.36266388888888
 30
0.0
 10
3.39359158093733
 20
-18.45577083333333
 30
0.0
 10
3.382654081213635
 20
-18.55867083333333
 30
0.0
 10
3.379549914625386
 20
-18.58788888888888
 30
0.0
 10
3.374158248094924
 20
-18.63568194444444
 30
0.0
 10
3.374204081427099
 20
-18.68476249999999
 30
0.0
  0
HATCH
  5
56
330
1F
100
AcDbEntity
  8
Layer 1
 62
     7
420
 16314339
100
AcDbHatch
 10
0.0
 20
0.0
 30
0.0
210
0.0
220
0.0
230
1.0
  2
SOLID
 70
     1
 71
     0
 91
        1
 92
        1
 93
        1
 72
     4
 94
        3
 73
     0
 74
     1
 95
       44
 96
       40
 40
0.0
 40
0.0
 40
0.0
 40
0.0
 40
1.0
 40
1.0
 40
1.0
 40
2.0
 40
2.0
 40
2.0
 40
3.0
 40
3.0
 40
3.0
 40
4.0
 40
4.0
 40
4.0
 40
5.0
 40
5.0
 40
5.0
 40
6.0
 40
6.0
 40
6.0
 40
7.0
 40
7.0
 40
7.0
 40
8.0
 40
8.0
 40
8.0
 40
9.0
 40
9.0
 40
9.0
 40
10.0
 40
10.0
 40
10.0
 40
11.0
 40
11.0
 40
11.0
 40
12.0
 40
12.0
 40
12.0
 40
13.0
 40
13.0
 40
13.0
 40
13.0
 10
3.374204081427099
 20
-18.68476249999999
 10
3.374312414757696
 20
-18.78562777777778
 10
3.397405469729872
 20
-18.89193611111111
 10
3.510594355759369
 20
-18.85369027777779
 10
3.627274908367326
 20
-18.8142625
 10
3.693279073366587
 20
-18.63721250000001
 10
3.711190184025225
 20
-18.52692777777778
 10
3.731922127945937
 20
-18.39929444444445
 10
3.723948517036256
 20
-18.26655555555556
 10
3.762951293828741
 20
-18.14210277777777
 10
3.775411015736204
 20
-18.10235277777777
 10
3.816191570261556
 20
-18.03752638888889
 10
3.788167959858381
 20
-17.99770694444444
 10
3.746547127576478
 20
-17.93856527777777
 10
3.715004072817767
 20
-17.87431666666667
 10
3.691588795631509
 20
-17.80583055555556
 10
3.659686018659663
 20
-17.71251388888888
 10
3.633386019324057
 20
-17.61711527777778
 10
3.587540187148887
 20
-17.52894305555555
 10
3.564311021069039
 20
-17.48427777777778
 10
3.54282768827842
 20
-17.43869305555555
 10
3.521017966607157
 20
-17.39330416666667
 10
3.5167235222712
 20
-17.38437361111111
 10
3.514006855673162
 20
-17.38504166666667
 10
3.509599911340047
 20
-17.39265555555556
 10
3.506580466971879
 20
-17.39788888888889
 10
3.502948522619186
 20
-17.40276666666667
 10
3.499937411584142
 20
-17.40799444444445
 10
3.430791666666664
 20
-17.52802361111112
 10
3.392424914300136
 20
-17.65664027777777
 10
3.393862414263822
 20
-17.79582222222221
 10
3.395477692000794
 20
-17.95197638888889
 10
3.344967971054555
 20
-18.10583472222222
 10
3.361067970647834
 20
-18.26154722222222
 10
3.371529081494676
 20
-18.36266388888888
 10
3.39359158093733
 20
-18.45577083333333
 10
3.382654081213635
 20
-18.55867083333333
 10
3.379549914625386
 20
-18.58788888888888
 10
3.374158248094924
 20
-18.63568194444444
 10
3.374204081427099
 20
-18.68476249999999
 97
        0
 97
        0
 75
     2
 76
     1
 98
        0
  0
INSERT
  5
58
330
1F
100
AcDbEntity
  8
Layer 1
100
AcDbBlockReference
  2
block 4
 10
0.0
 20
0.0
 30
0.0
  0
HATCH
  5
5D
330
1F
100
AcDbEntity
  8
Layer 1
 62
     7
420
 16314339
100
AcDbHatch
 10
0.0
 20
0.0
 30
0.0
210
0.0
220
0.0
230
1.0
  2
SOLID
 70
     1
 71
     0
 91
        2
 92
        1
 93
        1
 72
     4
 94
        3
 73
     0
 74
     1
 95
      206
 96
      202
 40
0.0
 40
0.0
 40
0.0
 40
0.0
 40
1.0
 40
1.0
 40
1.0
 40
2.0
 40
2.0
 40
2.0
 40
3.0
 40
3.0
 40
3.0
 40
4.0
 40
4.0
 40
4.0
 40
5.0
 40
5.0
 40
5.0
 40
6.0
 40
6.0
 40
6.0
 40
7.0
 40
7.0
 40
7.0
 40
8.0
 40
8.0
 40
8.0
 40
9.0
 40
9.0
 40
9.0
 40
10.0
 40
10.0
 40
10.0
 40
11.0
 40
11.0
 40
11.0
 40
12.0
 40
12.0
 40
12.0
 40
13.0
 40
13.0
 40
13.0
 40
14.0
 40
14.0
 40
14.0
 40
15.0
 40
15.0
 40
15.0
 40
16.0
 40
16.0
 40
16.0
 40
17.0
 40
17.0
 40
17.0
 40
18.0
 40
18.0
 40
18.0
 40
19.0
 40
19.0
 40
19.0
 40
20.0
 40
20.0
 40
20.0
 40
21.0
 40
21.0
 40
21.0
 40
22.0
 40
22.0
 40
22.0
 40
23.0
 40
23.0
 40
23.0
 40
24.0
 40
24.0
 40
24.0
 40
25.0
 40
25.0
 40
25.0
 40
26.0
 40
26.0
 40
26.0
 40
27.0
 40
27.0
 40
27.0
 40
28.0
 40
28.0
 40
28.0
 40
29.0
 40
29.0
 40
29.0
 40
30.0
 40
30.0
 40
30.0
 40
31.0
 40
31.0
 40
31.0
 40
32.0
 40
32.0
 40
32.0
 40
33.0
 40
33.0
 40
33.0
 40
34.0
 40
34.0
 40
34.0
 40
35.0
 40
35.0
 40
35.0
 40
36.0
 40
36.0
 40
36.0
 40
37.0
 40
37.0
 40
37.0
 40
38.0
 40
38.0
 40
38.0
 40
39.0
 40
39.0
 40
39.0
 40
40.0
 40
40.0
 40
40.0
 40
41.0
 40
41.0
 40
41.0
 40
42.0
 40
42.0
 40
42.0
 40
43.0
 40
43.0
 40
43.0
 40
44.0
 40
44.0
 40
44.0
 40
45.0
 40
45.0
 40
45.0
 40
46.0
 40
46.0
 40
46.0
 40
47.0
 40
47.0
 40
47.0
 40
48.0
 40
48.0
 40
48.0
 40
49.0
 40
49.0
 40
49.0
 40
50.0
 40
50.0
 40
50.0
 40
51.0
 40
51.0
 40
51.0
 40
52.0
 40
52.0
 40
52.0
 40
53.0
 40
53.0
 40
53.0
 40
54.0
 40
54.0
 40
54.0
 40
55.0
 40
55.0
 40
55.0
 40
56.0
 40
56.0
 40
56.0
 40
57.0
 40
57.0
 40
57.0
 40
58.0
 40
58.0
 40
58.0
 40
59.0
 40
59.0
 40
59.0
 40
60.0
 40
60.0
 40
60.0
 40
61.0
 40
61.0
 40
61.0
 40
62.0
 40
62.0
 40
62.0
 40
63.0
 40
63.0
 40
63.0
 40
64.0
 40
64.0
 40
64.0
 40
65.0
 40
65.0
 40
65.0
 40
66.0
 40
66.0
 40
66.0
 40
67.0
 40
67.0
 40
67.0
 40
67.0
 10
5.264663755892292
 20
-15.62501527777777
 10
5.200248479741782
 20
-15.41634722222222
 10
5.222184590298739
 20
-15.19740555555556
 10
5.244591534177137
 20
-14.984075
 10
5.269337366885338
 20
-14.75392916666667
 10
5.288472222222228
 20
-14.52285972222221
 10
5.322549865541077
 20
-14.29365694444444
 10
5.334687365234458
 20
-14.21429444444445
 10
5.442055555555561
 20
-13.57988888888889
 10
5.495272083399969
 20
-13.28205972222222
 10
5.042926261493853
 20
-13.29092916666666
 10
4.614388888888887
 20
-13.39550138888889
 10
4.228330448738941
 20
-13.57615
 10
4.228330448738941
 20
-13.57615
 10
4.228330448738941
 20
-13.57615
 10
4.228330448738941
 20
-13.57662222222223
 10
4.221794337792946
 20
-13.79415833333333
 10
4.240001281777444
 20
-14.13027083333333
 10
4.240467948432322
 20
-14.16901249999999
 10
4.244202670560197
 20
-14.38654999999999
 10
4.244202670560197
 20
-14.60314722222222
 10
4.240467948432322
 20
-14.82022222222223
 10
4.238133226269079
 20
-14.92619027777778
 10
4.237666666666668
 20
-15.03401944444444
 10
4.174647116761763
 20
-15.1245875
 10
4.083149896850955
 20
-15.256225
 10
4.035067953621162
 20
-15.41588055555556
 10
3.947306844727084
 20
-15.55172500000001
 10
3.858148513646079
 20
-15.69083611111111
 10
3.753581849620989
 20
-15.82621388888889
 10
3.627537408360695
 20
-15.93404861111111
 10
3.563116576654768
 20
-15.98913194444444
 10
3.492159634002847
 20
-16.03348055555556
 10
3.430536024448479
 20
-16.09229861111112
 10
3.366586026063992
 20
-16.15391388888889
 10
3.310105471935255
 20
-16.22300833333333
 10
3.259217973220782
 20
-16.29583194444444
 10
3.179859641892209
 20
-16.40926805555556
 10
3.124308254406666
 20
-16.5413763888889
 10
3.037013888888888
 20
-16.64827777777777
 10
2.974922147069365
 20
-16.72483611111112
 10
2.950652777777779
 20
-16.81213055555555
 10
2.944583333333336
 20
-16.90736111111111
 10
2.944116592292024
 20
-16.91436388888889
 10
2.943649925637146
 20
-16.92183333333334
 10
2.943183258982268
 20
-16.92930138888889
 10
2.940844370152465
 20
-16.99839166666667
 10
2.922642981723382
 20
-17.06560833333333
 10
2.905833333333337
 20
-17.13236805555555
 10
2.889970760326529
 20
-17.19678888888888
 10
2.866162427594645
 20
-17.26681111111111
 10
2.886231871532093
 20
-17.33262777777778
 10
2.896034649062231
 20
-17.36577638888889
 10
2.92404853724343
 20
-17.38538194444444
 10
2.959059647470086
 20
-17.38398194444445
 10
2.993604091041864
 20
-17.38258194444445
 10
3.024409645819206
 20
-17.36951111111111
 10
3.052890200655282
 20
-17.35037083333334
 10
3.196659641467805
 20
-17.2546736111111
 10
3.253616584473396
 20
-17.06794722222222
 10
3.301694444444441
 20
-16.91109583333333
 10
3.337638888888894
 20
-16.79392499999999
 10
3.420737413584902
 20
-16.69215416666667
 10
3.517367966699364
 20
-16.61886805555556
 10
3.529505466392745
 20
-16.60952777777778
 10
3.538374999999998
 20
-16.61233333333333
 10
3.542580466062443
 20
-16.62727083333334
 10
3.543976299360515
 20
-16.63240138888889
 10
3.543976299360515
 20
-16.63800833333333
 10
3.543976299360515
 20
-16.64314305555556
 10
3.554251299100947
 20
-16.9115625
 10
3.433808246588038
 20
-17.19632083333332
 10
3.573386020839785
 20
-17.44886527777778
 10
3.668616573989614
 20
-17.622525
 10
3.694295740007571
 20
-17.82979722222222
 10
3.811934625924651
 20
-17.99131111111111
 10
3.877284624273771
 20
-18.08046805555556
 10
3.919763888888888
 20
-18.18130555555556
 10
3.950579066866642
 20
-18.28680555555555
 10
3.966445733132483
 20
-18.34002361111111
 10
3.988386010356003
 20
-18.38903888888889
 10
4.030866564838409
 20
-18.42638472222222
 10
4.077548508103569
 20
-18.46839861111111
 10
4.130761006759308
 20
-18.4618625
 10
4.166238783640842
 20
-18.4091125
 10
4.190047116372726
 20
-18.37410138888889
 10
4.204990171550788
 20
-18.33535555555555
 10
4.212920726906001
 20
-18.294275
 10
4.233931837486327
 20
-18.18596944444444
 10
4.231136004223623
 20
-18.07673888888889
 10
4.210124999999999
 20
-17.96984166666666
 10
4.16764433916089
 20
-17.75136666666666
 10
4.095750000000003
 20
-17.54176666666667
 10
4.024331842781268
 20
-17.33169861111111
 10
3.995855454611753
 20
-17.24767083333333
 10
4.028533231564021
 20
-17.15337916666667
 10
4.039269342403915
 20
-17.06794722222222
 10
4.050940175442419
 20
-16.97177777777777
 10
4.059342953007924
 20
-16.87515138888889
 10
4.06494444444445
 20
-16.77852083333333
 10
4.06494444444445
 20
-16.74957222222222
 10
4.064477675100433
 20
-16.72063472222222
 10
4.06494444444445
 20
-16.69168749999999
 10
4.06494444444445
 20
-16.68142222222222
 10
4.057941564154437
 20
-16.66508333333334
 10
4.075681841484058
 20
-16.66461666666666
 10
4.092024896626754
 20
-16.66415
 10
4.088286007832317
 20
-16.68095555555556
 10
4.088286007832317
 20
-16.69122083333333
 10
4.090152777777777
 20
-16.79905972222222
 10
4.08035406358825
 20
-16.90596111111111
 10
4.069612397192941
 20
-17.01333333333333
 10
4.06214295293719
 20
-17.08894861111111
 10
4.049534619922371
 20
-17.16364444444444
 10
4.03739712022899
 20
-17.23833472222222
 10
4.033672120323091
 20
-17.26120833333333
 10
4.032738787013336
 20
-17.28361666666667
 10
4.040669342368548
 20
-17.30602361111111
 10
4.099022118672211
 20
-17.48154722222223
 10
4.158774894940507
 20
-17.65613611111111
 10
4.204522116007057
 20
-17.83538888888889
 10
4.2409346150872
 20
-17.97777361111111
 10
4.262408225655841
 20
-18.12108611111112
 10
4.241401281742077
 20
-18.2676625
 10
4.232998504176572
 20
-18.32648611111111
 10
4.216659615700438
 20
-18.3820375
 10
4.180248505509149
 20
-18.43011388888889
 10
4.144770728627615
 20
-18.47632916666666
 10
4.100422118636844
 20
-18.48893333333333
 10
4.046738786659666
 20
-18.46746388888889
 10
4.043470731186668
 20
-18.46605972222222
 10
4.039269342403915
 20
-18.46372916666667
 10
4.037863786883867
 20
-18.46465833333333
 10
4.034601286966285
 20
-18.46746388888889
 10
4.036930555555551
 20
-18.47213749999999
 10
4.038331842427598
 20
-18.4758625
 10
4.04300406453179
 20
-18.49313888888889
 10
4.047672119969421
 20
-18.51087361111111
 10
4.052806842061929
 20
-18.52814999999999
 10
4.071480452701305
 20
-18.5958388888889
 10
4.098555555555549
 20
-18.66025972222222
 10
4.138238784348181
 20
-18.7186125
 10
4.16484295034277
 20
-18.75829166666666
 10
4.197987393949916
 20
-18.76716111111111
 10
4.241401281742077
 20
-18.74662083333333
 10
4.373044333972049
 20
-18.68406805555555
 10
4.42626099929435
 20
-18.44645694444445
 10
4.408988777508461
 20
-18.31528194444445
 10
4.398713777768029
 20
-18.23639027777777
 10
4.375373500579877
 20
-18.16169444444444
 10
4.346434612422046
 20
-18.0888763888889
 10
4.314691557668387
 20
-18.00858333333334
 10
4.287616558352359
 20
-17.92735277777778
 10
4.276879058623611
 20
-17.84099583333333
 10
4.262408225655841
 20
-17.72523055555555
 10
4.224124999999995
 20
-17.61458888888889
 10
4.230197115358452
 20
-17.49694722222223
 10
4.234398504141205
 20
-17.4115236111111
 10
4.230669337568744
 20
-17.32656388888889
 10
4.217126282355316
 20
-17.24206944444445
 10
4.209658226988418
 20
-17.19678888888888
 10
4.251670725927093
 20
-17.16224444444444
 10
4.275012392004101
 20
-17.12816666666667
 10
4.302554057975006
 20
-17.08801527777777
 10
4.328229057326401
 20
-17.04647361111111
 10
4.356238778841038
 20
-17.00678888888889
 10
4.415523499565603
 20
-16.9241625
 10
4.491148497655154
 20
-16.88075277777778
 10
4.56630555555556
 20
-16.81726527777778
 10
4.570045717884264
 20
-16.81446944444445
 10
4.573308217801847
 20
-16.80885833333333
 10
4.577976273239478
 20
-16.81026388888889
 10
4.584045717530595
 20
-16.81213055555555
 10
4.582181828688792
 20
-16.81959583333333
 10
4.583111111111116
 20
-16.82426805555555
 10
4.623724883194882
 20
-17.09408888888889
 10
4.67740821517206
 20
-17.37697916666666
 10
4.767508212895942
 20
-17.63512916666667
 10
4.791783212282704
 20
-17.70515138888888
 10
4.830519322415259
 20
-17.76723888888889
 10
4.883274876638097
 20
-17.81952222222223
 10
4.922954042302384
 20
-17.85919722222221
 10
4.981773485260924
 20
-17.88487638888889
 10
5.040587372664049
 20
-17.85173194444445
 10
5.073736111111113
 20
-17.83305972222222
 10
5.095213760172959
 20
-17.80505138888889
 10
5.108747093164411
 20
-17.77004027777778
 10
5.146555555555551
 20
-17.67200277777778
 10
5.129758203744737
 20
-17.55296944444444
 10
5.126019314950301
 20
-17.45073194444444
 10
5.119484592893159
 20
-17.26307222222222
 10
5.073269316282878
 20
-17.07028055555555
 10
5.088202649238964
 20
-16.8830875
 10
5.101279037797515
 20
-16.71970138888889
 10
5.177374999999996
 20
-16.56891944444444
 10
5.240856812049262
 20
-16.4195375
 10
5.311345699157451
 20
-16.25381805555556
 10
5.349624999999997
 20
-16.08996527777778
 10
5.330952643106583
 20
-15.90930138888888
 10
5.320677643366151
 20
-15.81174166666667
 10
5.2936123662721
 20
-15.71837916666666
 10
5.264663755892292
 20
-15.62501527777777
 97
        0
 97
        0
 92
        1
 93
        1
 72
     4
 94
        3
 73
     0
 74
     1
 95
      149
 96
      145
 40
0.0
 40
0.0
 40
0.0
 40
0.0
 40
1.0
 40
1.0
 40
1.0
 40
2.0
 40
2.0
 40
2.0
 40
3.0
 40
3.0
 40
3.0
 40
4.0
 40
4.0
 40
4.0
 40
5.0
 40
5.0
 40
5.0
 40
6.0
 40
6.0
 40
6.0
 40
7.0
 40
7.0
 40
7.0
 40
8.0
 40
8.0
 40
8.0
 40
9.0
 40
9.0
 40
9.0
 40
10.0
 40
10.0
 40
10.0
 40
11.0
 40
11.0
 40
11.0
 40
12.0
 40
12.0
 40
12.0
 40
13.0
 40
13.0
 40
13.0
 40
14.0
 40
14.0
 40
14.0
 40
15.0
 40
15.0
 40
15.0
 40
16.0
 40
16.0
 40
16.0
 40
17.0
 40
17.0
 40
17.0
 40
18.0
 40
18.0
 40
18.0
 40
19.0
 40
19.0
 40
19.0
 40
20.0
 40
20.0
 40
20.0
 40
21.0
 40
21.0
 40
21.0
 40
22.0
 40
22.0
 40
22.0
 40
23.0
 40
23.0
 40
23.0
 40
24.0
 40
24.0
 40
24.0
 40
25.0
 40
25.0
 40
25.0
 40
26.0
 40
26.0
 40
26.0
 40
27.0
 40
27.0
 40
27.0
 40
28.0
 40
28.0
 40
28.0
 40
29.0
 40
29.0
 40
29.0
 40
30.0
 40
30.0
 40
30.0
 40
31.0
 40
31.0
 40
31.0
 40
32.0
 40
32.0
 40
32.0
 40
33.0
 40
33.0
 40
33.0
 40
34.0
 40
34.0
 40
34.0
 40
35.0
 40
35.0
 40
35.0
 40
36.0
 40
36.0
 40
36.0
 40
37.0
 40
37.0
 40
37.0
 40
38.0
 40
38.0
 40
38.0
 40
39.0
 40
39.0
 40
39.0
 40
40.0
 40
40.0
 40
40.0
 40
41.0
 40
41.0
 40
41.0
 40
42.0
 40
42.0
 40
42.0
 40
43.0
 40
43.0
 40
43.0
 40
44.0
 40
44.0
 40
44.0
 40
45.0
 40
45.0
 40
45.0
 40
46.0
 40
46.0
 40
46.0
 40
47.0
 40
47.0
 40
47.0
 40
48.0
 40
48.0
 40
48.0
 40
48.0
 10
5.105480426580268
 20
-15.92798472222223
 10
5.105480426580268
 20
-15.92798472222223
 10
4.940226264088273
 20
-16.016675
 10
4.940226264088273
 20
-16.016675
 10
4.940226264088273
 20
-16.016675
 10
5.043859594803608
 20
-16.1856625
 10
5.043859594803608
 20
-16.1856625
 10
5.046194444444445
 20
-16.188925
 10
5.046194444444445
 20
-16.19359861111111
 10
5.043859594803608
 20
-16.19686666666666
 10
5.041520705973804
 20
-16.20012916666667
 10
5.037329039413028
 20
-16.20199583333333
 10
5.033590150618592
 20
-16.2010625
 10
5.033590150618592
 20
-16.2010625
 10
4.844995710938443
 20
-16.16932361111112
 10
4.844995710938443
 20
-16.16932361111112
 10
4.844995710938443
 20
-16.16932361111112
 10
4.865069444444442
 20
-16.36258611111111
 10
4.865069444444442
 20
-16.36258611111111
 10
4.865530432641915
 20
-16.3667875
 10
4.863667932688966
 20
-16.37052222222222
 10
4.860401266104822
 20
-16.37238888888889
 10
4.85666666666667
 20
-16.37472361111111
 10
4.852465155194194
 20
-16.37425694444444
 10
4.849201266387758
 20
-16.37192222222222
 10
4.849201266387758
 20
-16.37192222222222
 10
4.680204048434764
 20
-16.25521805555556
 10
4.680204048434764
 20
-16.25521805555556
 10
4.654534604638784
 20
-16.3140375
 10
4.626991549779025
 20
-16.37332222222222
 10
4.598044328288071
 20
-16.43120833333334
 10
4.596181828335122
 20
-16.43447083333333
 10
4.592452661762662
 20
-16.43680972222223
 10
4.588713772968226
 20
-16.43680972222223
 10
4.584512384185473
 20
-16.43680972222223
 10
4.580781828724159
 20
-16.43447083333333
 10
4.579376273204111
 20
-16.43074166666666
 10
4.579376273204111
 20
-16.43074166666666
 10
4.50049016408583
 20
-16.25008333333334
 10
4.50049016408583
 20
-16.25008333333334
 10
4.50049016408583
 20
-16.25008333333334
 10
4.359977667635475
 20
-16.3644486111111
 10
4.359977667635475
 20
-16.3644486111111
 10
4.356705445495916
 20
-16.3667875
 10
4.352498501157748
 20
-16.36725416666666
 10
4.348773501251849
 20
-16.36538194444444
 10
4.345034612457413
 20
-16.36351527777778
 10
4.342701279183024
 20
-16.35932361111111
 10
4.343167945837902
 20
-16.35558333333333
 10
4.343167945837902
 20
-16.35558333333333
 10
4.358572112115427
 20
-16.16932361111112
 10
4.358572112115427
 20
-16.16932361111112
 10
4.358572112115427
 20
-16.16932361111112
 10
4.176513888888886
 20
-16.19406527777778
 10
4.176513888888886
 20
-16.19406527777778
 10
4.172783227919959
 20
-16.19453194444444
 10
4.168577672470645
 20
-16.19266527777778
 10
4.166705450295719
 20
-16.18939166666667
 10
4.164376283687893
 20
-16.18612916666666
 10
4.164376283687893
 20
-16.18146111111111
 10
4.166238783640842
 20
-16.17818888888889
 10
4.166238783640842
 20
-16.17818888888889
 10
4.263808225620474
 20
-16.01714166666666
 10
4.263808225620474
 20
-16.01714166666666
 10
4.263808225620474
 20
-16.01714166666666
 10
4.082216563541199
 20
-15.93124722222222
 10
4.082216563541199
 20
-15.93124722222222
 10
4.078481841413324
 20
-15.92938055555555
 10
4.076148508138936
 20
-15.92611249999999
 10
4.076148508138936
 20
-15.92190555555555
 10
4.076148508138936
 20
-15.91817638888888
 10
4.078481841413324
 20
-15.91444166666666
 10
4.081750000000006
 20
-15.912575
 10
4.081750000000006
 20
-15.912575
 10
4.261008225691208
 20
-15.81781111111112
 10
4.261008225691208
 20
-15.81781111111112
 10
4.261008225691208
 20
-15.81781111111112
 10
4.154101283947461
 20
-15.65255277777778
 10
4.154101283947461
 20
-15.65255277777778
 10
4.151772117339634
 20
-15.64929027777778
 10
4.151772117339634
 20
-15.64508888888889
 10
4.153634617292584
 20
-15.64134861111111
 10
4.155506839467509
 20
-15.6380861111111
 10
4.159241561595384
 20
-15.63622361111111
 10
4.163442950378137
 20
-15.63622361111111
 10
4.163442950378137
 20
-15.63622361111111
 10
4.361840167588424
 20
-15.64929027777778
 10
4.361840167588424
 20
-15.64929027777778
 10
4.361840167588424
 20
-15.64929027777778
 10
4.349702667895043
 20
-15.45789444444444
 10
4.349702667895043
 20
-15.45789444444444
 10
4.349236111111117
 20
-15.45368888888889
 10
4.351570723403407
 20
-15.44995833333333
 10
4.355304056642429
 20
-15.44809166666667
 10
4.358572112115427
 20
-15.44622361111111
 10
4.363240167553057
 20
-15.44622361111111
 10
4.366508223026054
 20
-15.44902916666667
 10
4.366508223026054
 20
-15.44902916666667
 10
4.516351274796256
 20
-15.5638625
 10
4.516351274796256
 20
-15.5638625
 10
4.516351274796256
 20
-15.5638625
 10
4.585908217483544
 20
-15.37666805555556
 10
4.585908217483544
 20
-15.37666805555556
 10
4.587312384114739
 20
-15.37292916666666
 10
4.591047106242613
 20
-15.37013333333333
 10
4.595248495025367
 20
-15.37013333333333
 10
4.59944988380812
 20
-15.36966666666667
 10
4.603184605935994
 20
-15.37199583333333
 10
4.605056828110921
 20
-15.37573472222222
 10
4.605056828110921
 20
-15.37573472222222
 10
4.693747103648193
 20
-15.56620138888889
 10
4.693747103648193
 20
-15.56620138888889
 10
4.693747103648193
 20
-15.56620138888889
 10
4.843590155418395
 20
-15.450425
 10
4.843590155418395
 20
-15.450425
 10
4.846863766446808
 20
-15.447625
 10
4.851063766340707
 20
-15.447625
 10
4.854794321802021
 20
-15.44949722222222
 10
4.85806654394158
 20
-15.45135972222223
 10
4.860401266104822
 20
-15.45508888888889
 10
4.860401266104822
 20
-15.45882777777778
 10
4.860401266104822
 20
-15.45882777777778
 10
4.850602655241245
 20
-15.65815972222222
 10
4.850602655241245
 20
-15.65815972222222
 10
4.850602655241245
 20
-15.65815972222222
 10
5.053191539012308
 20
-15.6534861111111
 10
5.053191539012308
 20
-15.6534861111111
 10
5.057397094461622
 20
-15.6534861111111
 10
5.061131816589497
 20
-15.65535833333334
 10
5.063000000000001
 20
-15.65909722222222
 10
5.064862372050811
 20
-15.66236111111112
 10
5.064395705395933
 20
-15.6665625
 10
5.062065149899253
 20
-15.66982916666666
 10
5.062065149899253
 20
-15.66982916666666
 10
4.949562374963534
 20
-15.82854305555555
 10
4.949562374963534
 20
-15.82854305555555
 10
4.949562374963534
 20
-15.82854305555555
 10
5.105480426580268
 20
-15.90976944444444
 10
5.105480426580268
 20
-15.90976944444444
 10
5.108747093164411
 20
-15.91164027777778
 10
5.111076259772239
 20
-15.91490833333334
 10
5.111076259772239
 20
-15.91864305555555
 10
5.111076259772239
 20
-15.92284444444445
 10
5.108747093164411
 20
-15.92611249999999
 10
5.105480426580268
 20
-15.92798472222223
 97
        0
 97
        0
 75
     2
 76
     1
 98
        0
  0
SPLINE
  5
5E
330
1F
100
AcDbEntity
  8
Layer 1
370
     0
100
AcDbSpline
210
0.0
220
0.0
230
1.0
 70
    11
 71
     3
 72
    17
 73
    13
 74
     0
 42
0.0000000001
 43
0.0000000001
 12
1.0
 22
0.0
 32
0.0
 13
1.0
 23
0.0
 33
0.0
 40
0.0
 40
0.0
 40
0.0
 40
0.0
 40
1.0
 40
1.0
 40
1.0
 40
2.0
 40
2.0
 40
2.0
 40
3.0
 40
3.0
 40
3.0
 40
4.0
 40
4.0
 40
4.0
 40
4.0
 10
4.602474883731702
 20
-15.64815972222222
 30
0.0
 10
4.459955442887601
 20
-15.64815972222222
 30
0.0
 10
4.34442350136174
 20
-15.76369305555555
 30
0.0
 10
4.34442350136174
 20
-15.90621111111111
 30
0.0
 10
4.34442350136174
 20
-16.04873611111111
 30
0.0
 10
4.459955442887601
 20
-16.16426805555555
 30
0.0
 10
4.602474883731702
 20
-16.16426805555555
 30
0.0
 10
4.744994324575802
 20
-16.16426805555555
 30
0.0
 10
4.860531821657079
 20
-16.04873611111111
 30
0.0
 10
4.860531821657079
 20
-15.90621111111111
 30
0.0
 10
4.860531821657079
 20
-15.76369305555555
 30
0.0
 10
4.744994324575802
 20
-15.64815972222222
 30
0.0
 10
4.602474883731702
 20
-15.64815972222222
 30
0.0
  0
HATCH
  5
5F
330
1F
100
AcDbEntity
  8
Layer 1
 62
     7
420
 16314339
100
AcDbHatch
 10
0.0
 20
0.0
 30
0.0
210
0.0
220
0.0
230
1.0
  2
SOLID
 70
     1
 71
     0
 91
        1
 92
        1
 93
        1
 72
     4
 94
        3
 73
     0
 74
     1
 95
       17
 96
       13
 40
0.0
 40
0.0
 40
0.0
 40
0.0
 40
1.0
 40
1.0
 40
1.0
 40
2.0
 40
2.0
 40
2.0
 40
3.0
 40
3.0
 40
3.0
 40
4.0
 40
4.0
 40
4.0
 40
4.0
 10
4.602474883731702
 20
-15.64815972222222
 10
4.459955442887601
 20
-15.64815972222222
 10
4.34442350136174
 20
-15.76369305555555
 10
4.34442350136174
 20
-15.90621111111111
 10
4.34442350136174
 20
-16.04873611111111
 10
4.459955442887601
 20
-16.16426805555555
 10
4.602474883731702
 20
-16.16426805555555
 10
4.744994324575802
 20
-16.16426805555555
 10
4.860531821657079
 20
-16.04873611111111
 10
4.860531821657079
 20
-15.90621111111111
 10
4.860531821657079
 20
-15.76369305555555
 10
4.744994324575802
 20
-15.64815972222222
 10
4.602474883731702
 20
-15.64815972222222
 97
        0
 97
        0
 75
     2
 76
     1
 98
        0
  0
ENDSEC
  0
SECTION
  2
OBJECTS
  0
DICTIONARY
  5
C
330
0
100
AcDbDictionary
281
     1
  3
ACAD_GROUP
350
D
  3
ACAD_LAYOUT
350
1A
  3
ACAD_MATERIAL
350
3B
  3
ACAD_MLEADERSTYLE
350
61
  3
ACAD_MLINESTYLE
350
17
  3
ACAD_PLOTSETTINGS
350
19
  3
ACAD_PLOTSTYLENAME
350
E
  3
ACAD_TABLESTYLE
350
60
  3
ACAD_VISUALSTYLE
350
2A
  0
SUN
  5
3F
330
29
100
AcDbSun
 90
        1
290
     0
 63
     7
421
 16777215
 40
1.0
291
     1
 91
  2455826
 92
 54000000
292
     0
 70
     2
 71
   256
280
     1
  0
DICTIONARY
  5
D
102
{ACAD_REACTORS
330
C
102
}
330
C
100
AcDbDictionary
281
     1
  0
DICTIONARY
  5
1A
102
{ACAD_REACTORS
330
C
102
}
330
C
100
AcDbDictionary
281
     1
  3
Layout1
350
1E
  3
Layout2
350
26
  3
Model
350
22
  0
DICTIONARY
  5
3B
102
{ACAD_REACTORS
330
C
102
}
330
C
100
AcDbDictionary
281
     1
  3
ByBlock
350
3D
  3
ByLayer
350
3C
  3
Global
350
3E
  0
DICTIONARY
  5
61
102
{ACAD_REACTORS
330
C
102
}
330
C
100
AcDbDictionary
281
     1
  0
DICTIONARY
  5
17
102
{ACAD_REACTORS
330
C
102
}
330
C
100
AcDbDictionary
281
     1
  3
Standard
350
18
  0
DICTIONARY
  5
19
102
{ACAD_REACTORS
330
C
102
}
330
C
100
AcDbDictionary
281
     1
  0
ACDBDICTIONARYWDFLT
  5
E
102
{ACAD_REACTORS
330
C
102
}
330
C
100
AcDbDictionary
281
     1
  3
Normal
350
F
100
AcDbDictionaryWithDefault
340
F
  0
DICTIONARY
  5
60
102
{ACAD_REACTORS
330
C
102
}
330
C
100
AcDbDictionary
281
     1
  0
DICTIONARY
  5
2A
102
{ACAD_REACTORS
330
C
102
}
330
C
100
AcDbDictionary
281
     1
  3
2dWireframe
350
2F
  3
3D Hidden
350
31
  3
3dWireframe
350
30
  3
Basic
350
32
  3
Brighten
350
36
  3
ColorChange
350
3A
  3
Conceptual
350
34
  3
Dim
350
35
  3
Facepattern
350
39
  3
Flat
350
2B
  3
FlatWithEdges
350
2C
  3
Gouraud
350
2D
  3
GouraudWithEdges
350
2E
  3
Linepattern
350
38
  3
Realistic
350
33
  3
Thicken
350
37
  0
LAYOUT
  5
1E
102
{ACAD_REACTORS
330
1A
102
}
330
1A
100
AcDbPlotSettings
  1

  2
none_device
  4

  6

 40
0.0
 41
0.0
 42
0.0
 43
0.0
 44
0.0
 45
0.0
 46
0.0
 47
0.0
 48
0.0
 49
0.0
140
0.0
141
0.0
142
1.0
143
1.0
 70
   688
 72
     0
 73
     0
 74
     5
  7

 75
    16
 76
     0
 77
     2
 78
   300
147
1.0
148
0.0
149
0.0
100
AcDbLayout
  1
Layout1
 70
     1
 71
     1
 10
0.0
 20
0.0
 11
12.0
 21
9.0
 12
0.0
 22
0.0
 32
0.0
 14
1.000000000000000E+20
 24
1.000000000000000E+20
 34
1.000000000000000E+20
 15
-1.000000000000000E+20
 25
-1.000000000000000E+20
 35
-1.000000000000000E+20
146
0.0
 13
0.0
 23
0.0
 33
0.0
 16
1.0
 26
0.0
 36
0.0
 17
0.0
 27
1.0
 37
0.0
 76
     0
330
1B
  0
LAYOUT
  5
26
102
{ACAD_REACTORS
330
1A
102
}
330
1A
100
AcDbPlotSettings
  1

  2
none_device
  4

  6

 40
0.0
 41
0.0
 42
0.0
 43
0.0
 44
0.0
 45
0.0
 46
0.0
 47
0.0
 48
0.0
 49
0.0
140
0.0
141
0.0
142
1.0
143
1.0
 70
   688
 72
     0
 73
     0
 74
     5
  7

 75
    16
 76
     0
 77
     2
 78
   300
147
1.0
148
0.0
149
0.0
100
AcDbLayout
  1
Layout2
 70
     1
 71
     2
 10
0.0
 20
0.0
 11
0.0
 21
0.0
 12
0.0
 22
0.0
 32
0.0
 14
0.0
 24
0.0
 34
0.0
 15
0.0
 25
0.0
 35
0.0
146
0.0
 13
0.0
 23
0.0
 33
0.0
 16
1.0
 26
0.0
 36
0.0
 17
0.0
 27
1.0
 37
0.0
 76
     0
330
23
  0
LAYOUT
  5
22
102
{ACAD_REACTORS
330
1A
102
}
330
1A
100
AcDbPlotSettings
  1

  2
none_device
  4

  6

 40
0.0
 41
0.0
 42
0.0
 43
0.0
 44
0.0
 45
0.0
 46
0.0
 47
0.0
 48
0.0
 49
0.0
140
0.0
141
0.0
142
1.0
143
1.0
 70
  1712
 72
     0
 73
     0
 74
     0
  7

 75
     0
 76
     0
 77
     2
 78
   300
147
1.0
148
0.0
149
0.0
100
AcDbLayout
  1
Model
 70
     1
 71
     0
 10
0.0
 20
0.0
 11
12.0
 21
9.0
 12
0.0
 22
0.0
 32
0.0
 14
1.000000000000000E+20
 24
1.000000000000000E+20
 34
1.000000000000000E+20
 15
-1.000000000000000E+20
 25
-1.000000000000000E+20
 35
-1.000000000000000E+20
146
0.0
 13
0.0
 23
0.0
 33
0.0
 16
1.0
 26
0.0
 36
0.0
 17
0.0
 27
1.0
 37
0.0
 76
     0
330
1F
331
29
  0
MATERIAL
  5
3D
102
{ACAD_REACTORS
330
3B
102
}
330
3B
100
AcDbMaterial
  1
ByBlock
 72
     1
 94
      127
  0
MATERIAL
  5
3C
102
{ACAD_REACTORS
330
3B
102
}
330
3B
100
AcDbMaterial
  1
ByLayer
 72
     1
 94
      127
  0
MATERIAL
  5
3E
102
{ACAD_REACTORS
330
3B
102
}
330
3B
100
AcDbMaterial
  1
Global
 72
     1
 94
      127
  0
MLINESTYLE
  5
18
102
{ACAD_REACTORS
330
17
102
}
330
17
100
AcDbMlineStyle
  2
Standard
 70
     0
  3

 62
   256
 51
90.0
 52
90.0
 71
     2
 49
0.5
 62
   256
  6
BYLAYER
 49
-0.5
 62
   256
  6
BYLAYER
  0
ACDBPLACEHOLDER
  5
F
102
{ACAD_REACTORS
330
E
102
}
330
E
  0
VISUALSTYLE
  5
2F
102
{ACAD_REACTORS
330
2A
102
}
330
2A
100
AcDbVisualStyle
  2
2dWireframe
 70
     4
177
     2
291
     0
 71
     0
176
     1
 72
     2
176
     1
 73
     0
176
     1
 90
        0
176
     1
 40
-0.6
176
     1
 41
-30.0
176
     1
 62
     5
 63
     7
421
 16777215
176
     1
 74
     1
176
     1
 91
        4
176
     1
 64
     7
176
     1
 65
   257
176
     1
 75
     1
176
     1
175
     1
176
     1
 42
1.0
176
     1
 92
        0
176
     1
 66
   257
176
     1
 43
1.0
176
     1
 76
     1
176
     1
 77
     6
176
     1
 78
     2
176
     1
 67
     7
176
     1
 79
     5
176
     1
170
     0
176
     1
171
     0
176
     1
290
     0
176
     1
 93
        1
176
     1
 44
0.0
176
     1
173
     0
176
     1
  0
VISUALSTYLE
  5
31
102
{ACAD_REACTORS
330
2A
102
}
330
2A
100
AcDbVisualStyle
  2
3D Hidden
 70
     6
177
     2
291
     0
 71
     1
176
     1
 72
     2
176
     1
 73
     2
176
     1
 90
        0
176
     1
 40
-0.6
176
     1
 41
-30.0
176
     1
 62
     5
 63
     7
421
 16777215
176
     1
 74
     2
176
     1
 91
        2
176
     1
 64
     7
176
     1
 65
   257
176
     1
 75
     2
176
     1
175
     1
176
     1
 42
40.0
176
     1
 92
        0
176
     1
 66
   257
176
     1
 43
1.0
176
     1
 76
     1
176
     1
 77
     6
176
     1
 78
     2
176
     1
 67
     7
176
     1
 79
     3
176
     1
170
     0
176
     1
171
     0
176
     1
290
     0
176
     1
 93
        1
176
     1
 44
0.0
176
     1
173
     0
176
     1
  0
VISUALSTYLE
  5
30
102
{ACAD_REACTORS
330
2A
102
}
330
2A
100
AcDbVisualStyle
  2
3dWireframe
 70
     5
177
     2
291
     0
 71
     0
176
     1
 72
     2
176
     1
 73
     0
176
     1
 90
        0
176
     1
 40
-0.6
176
     1
 41
-30.0
176
     1
 62
     5
 63
     7
421
 16777215
176
     1
 74
     1
176
     1
 91
        4
176
     1
 64
     7
176
     1
 65
   257
176
     1
 75
     1
176
     1
175
     1
176
     1
 42
1.0
176
     1
 92
        0
176
     1
 66
   257
176
     1
 43
1.0
176
     1
 76
     1
176
     1
 77
     6
176
     1
 78
     2
176
     1
 67
     7
176
     1
 79
     5
176
     1
170
     0
176
     1
171
     0
176
     1
290
     0
176
     1
 93
        1
176
     1
 44
0.0
176
     1
173
     0
176
     1
  0
VISUALSTYLE
  5
32
102
{ACAD_REACTORS
330
2A
102
}
330
2A
100
AcDbVisualStyle
  2
Basic
 70
     7
177
     2
291
     1
 71
     1
176
     1
 72
     0
176
     1
 73
     1
176
     1
 90
        0
176
     1
 40
-0.6
176
     1
 41
-30.0
176
     1
 62
     5
 63
     7
421
 16777215
176
     1
 74
     0
176
     1
 91
        4
176
     1
 64
     7
176
     1
 65
   257
176
     1
 75
     1
176
     1
175
     1
176
     1
 42
1.0
176
     1
 92
        8
176
     1
 66
     7
176
     1
 43
1.0
176
     1
 76
     1
176
     1
 77
     6
176
     1
 78
     2
176
     1
 67
     7
176
     1
 79
     5
176
     1
170
     0
176
     1
171
     0
176
     1
290
     0
176
     1
 93
        1
176
     1
 44
0.0
176
     1
173
     0
176
     1
  0
VISUALSTYLE
  5
36
102
{ACAD_REACTORS
330
2A
102
}
330
2A
100
AcDbVisualStyle
  2
Brighten
 70
    12
177
     2
291
     1
 71
     2
176
     1
 72
     2
176
     1
 73
     0
176
     1
 90
        0
176
     1
 40
-0.6
176
     1
 41
-30.0
176
     1
 62
     5
 63
     7
421
 16777215
176
     1
 74
     1
176
     1
 91
        4
176
     1
 64
     7
176
     1
 65
   257
176
     1
 75
     1
176
     1
175
     1
176
     1
 42
1.0
176
     1
 92
        8
176
     1
 66
     7
176
     1
 43
1.0
176
     1
 76
     1
176
     1
 77
     6
176
     1
 78
     2
176
     1
 67
     7
176
     1
 79
     5
176
     1
170
     0
176
     1
171
     0
176
     1
290
     0
176
     1
 93
        1
176
     1
 44
50.0
176
     1
173
     0
176
     1
  0
VISUALSTYLE
  5
3A
102
{ACAD_REACTORS
330
2A
102
}
330
2A
100
AcDbVisualStyle
  2
ColorChange
 70
    16
177
     2
291
     1
 71
     2
176
     1
 72
     2
176
     1
 73
     3
176
     1
 90
        0
176
     1
 40
-0.6
176
     1
 41
-30.0
176
     1
 62
     5
 63
     8
421
  8421504
176
     1
 74
     1
176
     1
 91
        4
176
     1
 64
     7
176
     1
 65
   257
176
     1
 75
     1
176
     1
175
     1
176
     1
 42
1.0
176
     1
 92
        8
176
     1
 66
     8
424
  8421504
176
     1
 43
1.0
176
     1
 76
     1
176
     1
 77
     6
176
     1
 78
     2
176
     1
 67
     7
176
     1
 79
     5
176
     1
170
     0
176
     1
171
     0
176
     1
290
     0
176
     1
 93
        1
176
     1
 44
0.0
176
     1
173
     0
176
     1
  0
VISUALSTYLE
  5
34
102
{ACAD_REACTORS
330
2A
102
}
330
2A
100
AcDbVisualStyle
  2
Conceptual
 70
     9
177
     2
291
     0
 71
     3
176
     1
 72
     2
176
     1
 73
     0
176
     1
 90
        0
176
     1
 40
-0.6
176
     1
 41
-30.0
176
     1
 62
     5
 63
     7
421
 16777215
176
     1
 74
     2
176
     1
 91
        2
176
     1
 64
     7
176
     1
 65
   257
176
     1
 75
     1
176
     1
175
     1
176
     1
 42
40.0
176
     1
 92
        8
176
     1
 66
     7
176
     1
 43
1.0
176
     1
 76
     1
176
     1
 77
     6
176
     1
 78
     2
176
     1
 67
     7
176
     1
 79
     3
176
     1
170
     0
176
     1
171
     0
176
     1
290
     0
176
     1
 93
        1
176
     1
 44
0.0
176
     1
173
     0
176
     1
  0
VISUALSTYLE
  5
35
102
{ACAD_REACTORS
330
2A
102
}
330
2A
100
AcDbVisualStyle
  2
Dim
 70
    11
177
     2
291
     1
 71
     2
176
     1
 72
     2
176
     1
 73
     0
176
     1
 90
        0
176
     1
 40
-0.6
176
     1
 41
-30.0
176
     1
 62
     5
 63
     7
421
 16777215
176
     1
 74
     1
176
     1
 91
        4
176
     1
 64
     7
176
     1
 65
   257
176
     1
 75
     1
176
     1
175
     1
176
     1
 42
1.0
176
     1
 92
        8
176
     1
 66
     7
176
     1
 43
1.0
176
     1
 76
     1
176
     1
 77
     6
176
     1
 78
     2
176
     1
 67
     7
176
     1
 79
     5
176
     1
170
     0
176
     1
171
     0
176
     1
290
     0
176
     1
 93
        1
176
     1
 44
-50.0
176
     1
173
     0
176
     1
  0
VISUALSTYLE
  5
39
102
{ACAD_REACTORS
330
2A
102
}
330
2A
100
AcDbVisualStyle
  2
Facepattern
 70
    15
177
     2
291
     1
 71
     2
176
     1
 72
     2
176
     1
 73
     0
176
     1
 90
        0
176
     1
 40
-0.6
176
     1
 41
-30.0
176
     1
 62
     5
 63
     7
421
 16777215
176
     1
 74
     1
176
     1
 91
        4
176
     1
 64
     7
176
     1
 65
   257
176
     1
 75
     1
176
     1
175
     1
176
     1
 42
1.0
176
     1
 92
        8
176
     1
 66
     7
176
     1
 43
1.0
176
     1
 76
     1
176
     1
 77
     6
176
     1
 78
     2
176
     1
 67
     7
176
     1
 79
     5
176
     1
170
     0
176
     1
171
     0
176
     1
290
     0
176
     1
 93
        1
176
     1
 44
0.0
176
     1
173
     0
176
     1
  0
VISUALSTYLE
  5
2B
102
{ACAD_REACTORS
330
2A
102
}
330
2A
100
AcDbVisualStyle
  2
Flat
 70
     0
177
     2
291
     1
 71
     2
176
     1
 72
     1
176
     1
 73
     1
176
     1
 90
        2
176
     1
 40
-0.6
176
     1
 41
30.0
176
     1
 62
     5
 63
     7
421
 16777215
176
     1
 74
     0
176
     1
 91
        4
176
     1
 64
     7
176
     1
 65
   257
176
     1
 75
     1
176
     1
175
     1
176
     1
 42
1.0
176
     1
 92
        8
176
     1
 66
     7
176
     1
 43
1.0
176
     1
 76
     1
176
     1
 77
     6
176
     1
 78
     2
176
     1
 67
     7
176
     1
 79
     5
176
     1
170
     0
176
     1
171
     0
176
     1
290
     0
176
     1
 93
       13
176
     1
 44
0.0
176
     1
173
     0
176
     1
  0
VISUALSTYLE
  5
2C
102
{ACAD_REACTORS
330
2A
102
}
330
2A
100
AcDbVisualStyle
  2
FlatWithEdges
 70
     1
177
     2
291
     1
 71
     2
176
     1
 72
     1
176
     1
 73
     1
176
     1
 90
        2
176
     1
 40
-0.6
176
     1
 41
30.0
176
     1
 62
     5
 63
     7
421
 16777215
176
     1
 74
     1
176
     1
 91
        4
176
     1
 64
     7
176
     1
 65
   257
176
     1
 75
     1
176
     1
175
     1
176
     1
 42
1.0
176
     1
 92
        0
176
     1
 66
   257
176
     1
 43
1.0
176
     1
 76
     1
176
     1
 77
     6
176
     1
 78
     2
176
     1
 67
     7
176
     1
 79
     5
176
     1
170
     0
176
     1
171
     0
176
     1
290
     0
176
     1
 93
       13
176
     1
 44
0.0
176
     1
173
     0
176
     1
  0
VISUALSTYLE
  5
2D
102
{ACAD_REACTORS
330
2A
102
}
330
2A
100
AcDbVisualStyle
  2
Gouraud
 70
     2
177
     2
291
     1
 71
     2
176
     1
 72
     2
176
     1
 73
     1
176
     1
 90
        2
176
     1
 40
-0.6
176
     1
 41
30.0
176
     1
 62
     5
 63
     7
421
 16777215
176
     1
 74
     0
176
     1
 91
        4
176
     1
 64
     7
176
     1
 65
   257
176
     1
 75
     1
176
     1
175
     1
176
     1
 42
1.0
176
     1
 92
        0
176
     1
 66
     7
176
     1
 43
1.0
176
     1
 76
     1
176
     1
 77
     6
176
     1
 78
     2
176
     1
 67
     7
176
     1
 79
     5
176
     1
170
     0
176
     1
171
     0
176
     1
290
     0
176
     1
 93
       13
176
     1
 44
0.0
176
     1
173
     0
176
     1
  0
VISUALSTYLE
  5
2E
102
{ACAD_REACTORS
330
2A
102
}
330
2A
100
AcDbVisualStyle
  2
GouraudWithEdges
 70
     3
177
     2
291
     1
 71
     2
176
     1
 72
     2
176
     1
 73
     1
176
     1
 90
        2
176
     1
 40
-0.6
176
     1
 41
30.0
176
     1
 62
     5
 63
     7
421
 16777215
176
     1
 74
     1
176
     1
 91
        4
176
     1
 64
     7
176
     1
 65
   257
176
     1
 75
     1
176
     1
175
     1
176
     1
 42
1.0
176
     1
 92
        0
176
     1
 66
   257
176
     1
 43
1.0
176
     1
 76
     1
176
     1
 77
     6
176
     1
 78
     2
176
     1
 67
     7
176
     1
 79
     5
176
     1
170
     0
176
     1
171
     0
176
     1
290
     0
176
     1
 93
       13
176
     1
 44
0.0
176
     1
173
     0
176
     1
  0
VISUALSTYLE
  5
38
102
{ACAD_REACTORS
330
2A
102
}
330
2A
100
AcDbVisualStyle
  2
Linepattern
 70
    14
177
     2
291
     1
 71
     2
176
     1
 72
     2
176
     1
 73
     0
176
     1
 90
        0
176
     1
 40
-0.6
176
     1
 41
-30.0
176
     1
 62
     5
 63
     7
421
 16777215
176
     1
 74
     1
176
     1
 91
        4
176
     1
 64
     7
176
     1
 65
   257
176
     1
 75
     7
176
     1
175
     7
176
     1
 42
1.0
176
     1
 92
        8
176
     1
 66
     7
176
     1
 43
1.0
176
     1
 76
     1
176
     1
 77
     6
176
     1
 78
     2
176
     1
 67
     7
176
     1
 79
     5
176
     1
170
     0
176
     1
171
     0
176
     1
290
     0
176
     1
 93
        1
176
     1
 44
0.0
176
     1
173
     0
176
     1
  0
VISUALSTYLE
  5
33
102
{ACAD_REACTORS
330
2A
102
}
330
2A
100
AcDbVisualStyle
  2
Realistic
 70
     8
177
     2
291
     0
 71
     2
176
     1
 72
     2
176
     1
 73
     0
176
     1
 90
        0
176
     1
 40
-0.6
176
     1
 41
-30.0
176
     1
 62
     5
 63
     7
421
 16777215
176
     1
 74
     1
176
     1
 91
        0
176
     1
 64
     7
176
     1
 65
   257
176
     1
 75
     1
176
     1
175
     1
176
     1
 42
1.0
176
     1
 92
        8
176
     1
 66
     8
424
  7895160
176
     1
 43
1.0
176
     1
 76
     1
176
     1
 77
     6
176
     1
 78
     2
176
     1
 67
     7
176
     1
 79
     5
176
     1
170
     0
176
     1
171
     0
176
     1
290
     0
176
     1
 93
       13
176
     1
 44
0.0
176
     1
173
     0
176
     1
  0
VISUALSTYLE
  5
37
102
{ACAD_REACTORS
330
2A
102
}
330
2A
100
AcDbVisualStyle
  2
Thicken
 70
    13
177
     2
291
     1
 71
     2
176
     1
 72
     2
176
     1
 73
     0
176
     1
 90
        0
176
     1
 40
-0.6
176
     1
 41
-30.0
176
     1
 62
     5
 63
     7
421
 16777215
176
     1
 74
     1
176
     1
 91
        4
176
     1
 64
     7
176
     1
 65
   257
176
     1
 75
     1
176
     1
175
     1
176
     1
 42
1.0
176
     1
 92
       12
176
     1
 66
     7
176
     1
 43
1.0
176
     1
 76
     1
176
     1
 77
     6
176
     1
 78
     2
176
     1
 67
     7
176
     1
 79
     5
176
     1
170
     0
176
     1
171
     0
176
     1
290
     0
176
     1
 93
        1
176
     1
 44
0.0
176
     1
173
     0
176
     1
  0
ENDSEC
  0
EOF
