<svg id="Layer_1" data-name="Layer 1" xmlns="http://www.w3.org/2000/svg" viewBox="0 0 864 585.49"><title>Untitled-26</title><path d="M544.33,391.69,662.67,233.81c.87-1.21,1.19-2.63-.06-3.8a2.77,2.77,0,0,0-3.83,0L503.37,352.9a36.73,36.73,0,0,0,6.2-25.71c-1-7.79-7.38-15.43-4.41-23.76,1.69-4.73,6.18-7.46,9.56-10.91A28.39,28.39,0,0,0,522.35,280c2.58-9.94-1.76-17.15-5.83-25.75-3.1-6.55-.8-12.55,4.19-17.32a47.51,47.51,0,0,1,5.62-4.47c1.16-.82,3.75-1.88,3.32-3.67-.33-1.36-1.53-1.49-2.68-1.49-4.9,0-9.79.17-14.4,2.09-11,4.57-17.17,15.22-16.55,28.88.41,9-2.75,16-10.45,20.92a25.73,25.73,0,0,0-10.72,12.92c-2.2,6.31-.41,13.17-3.48,19.28-2,4-14.25,19.33-17.05,22.79l-28-195.28c-.24-1.48-1-2.71-2.73-2.65a2.78,2.78,0,0,0-2.72,2.7L398.2,333.33c-1.17-9.16-3.44-14.26-12.6-20.2s-20.65-6-21.09-19.49c-.14-4,.48-8.09.07-12.11-1.29-12.9-11.94-18.71-22.89-22.84C331.24,254.74,328,245.51,330.53,235c.63-2.6.09-7.23-3.26-3.9s-6.81,7-8.71,11.65c-5.83,14.18,2,24.27,10.83,34.44,4.5,5.2,6.43,10.59,5.65,17.5-.6,5.26-1.74,10.62,0,15.8,1.81,5.5,6.3,9.64,9.59,14.24,6.39,8.94,2.17,21.1,7.5,30.94L193,236.38c-1.22-.88-2.64-1.2-3.81.05a2.78,2.78,0,0,0,0,3.83L312.44,396.15c-6.46-4.88-18.91-6.56-27.8-5.3-7.76,1.1-14.48,6.89-22.78,3.71-6.73-2.58-10.12-9.56-16-13.34a25.77,25.77,0,0,0-23.62-2.59c-6,2.41-11.68,7.16-18.07,6.14s-11.2-7.7-14.58-12.85c-.62-.95-1.18-2.05-2.55-1.72s-1.48,1.53-1.48,2.67c0,4.91.16,9.8,2.08,14.4a26.61,26.61,0,0,0,17.51,15.34c8.34,2.36,18.26-.54,25.8,4.59,4.71,3.21,6.92,8.73,11,12.61,5.62,5.4,12.42,6,19.78,6.73,12.65,1.31,18.32,14,30.55,17.15L97.16,471.64c-1.49.23-2.71,1-2.66,2.73a2.78,2.78,0,0,0,2.71,2.71l196,22.89H566.59l196-29c1.47-.23,2.69-1,2.64-2.78a2.8,2.8,0,0,0-2.69-2.76L566.33,442c11.31-1.27,19.71-6.19,23.82-14.95,2.92-6.25,3.4-14.6,9.34-19a15.48,15.48,0,0,1,8.09-2.73c8.19-.61,15.48,1.27,23.08-3.2,8.84-5.2,10.88-13.37,14.08-22.33a14.09,14.09,0,0,1,4.37-6.63c5.2-4,13.95-2.75,19.91-1.51,1.1.23,2.28.62,3-.58s0-2.13-.84-2.95c-3.46-3.47-7-6.8-11.66-8.7a26.85,26.85,0,0,0-25.47,2.89c-6.23,4.36-10.84,11.79-18.66,13.52-6.24,1.37-12.44-1.49-18.71-1-7.78.64-11.49,6.82-18.18,9.91C566.79,390.15,549,392.2,544.33,391.69Z"/><path d="M708.92,531.69H150.67a7.42,7.42,0,0,0,0,14.84H708.92a7.42,7.42,0,0,0,0-14.84Z"/><path d="M634.53,570.66H225.05a7.43,7.43,0,0,0,0,14.83H634.53a7.43,7.43,0,0,0,0-14.83Z"/><path d="M14.23,524.66a14,14,0,0,0-9.95,3.87A13.74,13.74,0,0,0,0,538.27a14,14,0,0,0,13.73,14.17H14a13.9,13.9,0,0,0,9.68-3.9A13.74,13.74,0,0,0,24.09,529,14,14,0,0,0,14.23,524.66Z"/><path d="M107.12,524.68H107a13.87,13.87,0,0,0-.16,27.74h.28a13.58,13.58,0,0,0,9.54-3.93,13.8,13.8,0,0,0,.1-19.77A13.63,13.63,0,0,0,107.12,524.68Z"/><path d="M60.72,524.75h-.11a13.8,13.8,0,0,0-.36,27.59h.38a13.8,13.8,0,0,0,.09-27.6Z"/><path d="M756,524.66a13.92,13.92,0,0,0-14.24,13.61,14,14,0,0,0,13.73,14.17h.3a13.92,13.92,0,0,0,9.69-3.9,13.78,13.78,0,0,0,4.27-9.72h0a13.72,13.72,0,0,0-3.9-9.83A14,14,0,0,0,756,524.66Z"/><path d="M859.88,528.73a13.6,13.6,0,0,0-9.67-4.05h-.09a13.87,13.87,0,0,0-.16,27.74h.28a13.62,13.62,0,0,0,9.55-3.93,14,14,0,0,0,4.21-9.86A13.8,13.8,0,0,0,859.88,528.73Z"/><path d="M803.11,524.75H803a13.8,13.8,0,0,0-.37,27.59H803a13.8,13.8,0,0,0,.08-27.6Z"/><path d="M425.86,23.88h.28A11.84,11.84,0,0,0,438,12.24a11.82,11.82,0,0,0-20-8.93,12.11,12.11,0,0,0-3.8,8.39,12,12,0,0,0,11.66,12.18Z"/><path d="M434.71,45.48a11.86,11.86,0,0,0-20.48,7.94,11.78,11.78,0,0,0,11.3,11.9h.57a11.84,11.84,0,0,0,8.1-3.15A11.63,11.63,0,0,0,438,54,11.93,11.93,0,0,0,434.71,45.48Z"/><path d="M426.06,83.1a11.65,11.65,0,0,0-8.35,3.56,11.83,11.83,0,0,0,8.11,20.15h.31A11.84,11.84,0,0,0,437.92,95.1a11.85,11.85,0,0,0-3.49-8.49,11.71,11.71,0,0,0-8.34-3.51Z"/><path d="M159.37,216.76a12.26,12.26,0,1,0-12.25-12.26A12.27,12.27,0,0,0,159.37,216.76Z"/><path d="M45.62,461.85a12.55,12.55,0,0,0-17.33,0,12.25,12.25,0,1,0,17.33,17.33,12.25,12.25,0,0,0,0-17.33Z"/><path d="M836.36,470.51a12.18,12.18,0,0,0-3.59-8.66,12.54,12.54,0,0,0-17.34,0,12.26,12.26,0,1,0,20.93,8.66Z"/><path d="M694.65,216.76A12.26,12.26,0,1,0,682.4,204.5,12.27,12.27,0,0,0,694.65,216.76Z"/></svg>