<svg id="Layer_1" data-name="Layer 1" xmlns="http://www.w3.org/2000/svg" viewBox="0 0 863.93 864"><title>Untitled-26</title><path d="M495.51,226a289.62,289.62,0,0,1-.76-30.48c.28-17.92,4.77-35.58,3.75-53.55-.88-15.39-7.11-28.8-16.87-40.61-3.71-4.48-8.51-8.59-6.88.49,3.57,19.84-2,39.26-8.82,57.73-3.44,9.3-7.22,18.47-10.32,27.89-1.44,4.38-2.77,8.81-4.05,13.24-1,3.36-2.95,11.18-3.86,15.67-.7-2-1.41-4.07-2.15-6.09a347,347,0,0,1-18.21-74.89c-3.46-26.46-2.38-55.84-17.1-79.23-9.4-14.94-25.6-31.26-25.5-50.13,0-1.45.67-5.26-.84-5.9s-3.1,1.44-4.07,2.77c-5.4,7.32-6.93,15.75-8.4,24.44-3.84,22.62,6.18,44.24,8.82,66.37,2.54,21.35-.66,42.74-2,64.05a212.83,212.83,0,0,0,5.54,63.06c.08.33.15.66.23,1a292.78,292.78,0,0,1-15.9-26c-6.75-12.12-11.19-25.34-17.37-37.75-8.72-17.51-22.49-30.31-41.07-37.22-5.46-2-11.67-3.2-5.71,3.86,23.22,27.49,20.73,63.16,29,96,.94,3.7,3.37,12.53,4.82,16.82-1.63-1.43-3.25-2.88-4.92-4.27-19.12-15.94-37.64-34.35-52.57-54.31-17.36-23.21-31.75-50-58.87-63.24-13.13-6.42-27.82-11-38-22a39.46,39.46,0,0,1-5.34-6.89c-.7-1.28-2-4.89-3.68-4.69s-2,2.8-2.14,4.43c-3.9,34.83,29.43,55.11,46.5,80.1,20,29.35,32.73,63.1,53.65,91.81,2.46,3.38,8.59,10.65,11.5,14-32.32-11.86-59.75-51.13-96-50a127.23,127.23,0,0,0-17.44,1.3c-5.74,1-11.7,3.07-3,6.2,36.71,13.22,58.32,51.63,83.35,79.12-13,1.21-30.81-6-43.46-9.73-31.58-9.3-61.18-28.42-93.42-34.59-22-4.21-44.89,5.25-66.38-1.46a39.1,39.1,0,0,1-8.07-3.3c-1.24-.75-4.22-3.2-5.53-2.22s-.3,3.41.36,4.91c13.6,31.09,51,33,78.15,44.45,22.88,9.7,40.94,27.53,62.44,39.76A241.94,241.94,0,0,0,225,368.12l1,.3a292.34,292.34,0,0,1-30.48.76c-24.57-.39-56.82-10.86-79.7,3.28a126.5,126.5,0,0,0-14.46,9.84c-4.48,3.71-8.59,8.51.49,6.88,20.18-3.63,40.21,1.71,59.06,8.65,15,5.54,35.63,16.53,55,18.54-1.86.68-3.74,1.32-5.6,2-24.7,9.08-50.64,13.91-76.62,17.57-20.7,2.92-42.15,4.19-61.94,11.43-15.92,5.82-29,17-43.91,24.78C24.63,473.82.74,478.59.13,480s1.44,3.09,2.77,4.07c18.5,13.63,41,10,61.9,5.19,51.59-11.85,104.49,3,156-9.14l1-.23a292.78,292.78,0,0,1-26,15.9c-16.53,9.2-35.22,14.3-50.79,25.29-11.63,8.22-19.26,19.91-24.18,33.15-2,5.45-3.2,11.66,3.86,5.71,23.88-20.18,54.12-20.77,83.25-26.13,6.46-1.19,21.72-4.69,29.53-7.73-1.43,1.64-2.88,3.26-4.27,4.93A351.57,351.57,0,0,1,170,589.82c-15.66,11.41-32.43,22.1-44.62,37.45-12.94,16.28-16.26,38.92-31.77,53.22a40,40,0,0,1-6.89,5.34c-2.78,1.58-7.54,5.14-1,5.82,26.68,2.79,45.84-16.58,63.93-33.13,18.52-16.94,41.06-28.65,63.69-39.08a218.35,218.35,0,0,0,59.9-40.17l.75-.7a293.81,293.81,0,0,1-14.59,26.78c-12.62,21.08-37.81,43.86-37,70.66a127.23,127.23,0,0,0,1.3,17.44c1,5.74,3.07,11.7,6.2,3,11.31-31.38,38.59-44.48,61.1-66,6.81-6.5,13.52-12.79,19.6-19.71-.42,2.12-.83,4.23-1.19,6.35A350.47,350.47,0,0,1,288.25,690c-10.33,25.27-26.36,50.38-25.2,78.67.67,16,5.07,31.91.14,47.71a39.1,39.1,0,0,1-3.3,8.07c-.75,1.24-3.2,4.22-2.22,5.53s3.41.29,4.91-.37c8.33-3.64,13.88-10.18,19.5-17,14.9-18,16.45-41.22,25.16-62,8.39-20.05,21.87-37.44,34.68-54.8,12.33-16.71,20.25-37,26.2-56.89l.3-1a292.6,292.6,0,0,1,.76,30.49c-.54,34.14-10.81,65.22,13.12,94.15,3.71,4.49,8.51,8.6,6.87-.48-7.05-39.25,19.56-77,27.06-114.54.7,2,1.4,4.07,2.15,6.09a343.89,343.89,0,0,1,20.43,96.64c1.1,17.64,4.55,35.29,12,51.4,7.74,16.7,23.07,29.26,27.19,47.58a39.42,39.42,0,0,1,1.18,8.64c0,1.45-.67,5.24.83,5.9,6.15,2.69,11.6-22.15,12.18-25.42,4.18-23.58-5.84-44.31-8.67-67.25-3-24.66,3.36-49.22,3.21-74a242,242,0,0,0-6.59-54.07c-.08-.33-.15-.67-.23-1a294.06,294.06,0,0,1,15.9,26c9.28,16.68,13.82,35.35,25.47,50.88,10.11,13.46,25,24.28,41.81,25.5-5.32-3.8-18.17-32.14-20-38.32-4.09-13.67-6.28-27.67-8-41.79-1.06-8.63-6.47-29.35-8.95-37.93,1.64,1.43,3.26,2.88,4.93,4.27a354.79,354.79,0,0,1,63.28,69.51c10.4,14.89,21.62,29.61,36.28,40.58,15.59,11.65,36.45,14.92,49.89,29.5a39.17,39.17,0,0,1,5.34,6.9c7.44,13.54,5.3-11.56,3.85-16.48a89.89,89.89,0,0,0-18.35-33.19c-8.12-9.45-17.63-17.71-25.13-27.65-15-19.84-21.7-44.31-34.2-65.65a241.56,241.56,0,0,0-32.73-43.53l-.7-.75a289,289,0,0,1,26.78,14.59c14.24,8.52,26.42,20.09,41,28.13,14.95,8.27,30.33,10.42,47.12,7.58,5.74-1,11.7-3.07,3-6.2-13.83-5-25.89-14.06-36.15-24.59-9-9.29-16.53-19.9-24.61-30-3.52-4.39-7.16-8.6-11.05-12.65-2.92-3-10.52-10.39-13.85-13.46,2.12.42,4.23.82,6.35,1.19a336.26,336.26,0,0,1,74.69,22c24.49,10.49,49.25,25.43,76.83,24.29,16-.66,31.91-5.07,47.71-.13a39.07,39.07,0,0,1,8.07,3.29c1.24.75,4.22,3.21,5.53,2.22s.29-3.4-.37-4.9c-7.72-17.66-28.37-28-45.59-33.86-16.74-5.72-34-10-49.18-19.33-15.72-9.67-29.75-21.88-45.81-31a241,241,0,0,0-50.12-21.33l-1-.31a292.6,292.6,0,0,1,30.49-.75c18.48.29,36.71,5.06,55.26,3.64,15.84-1.22,32.53-9,43.19-20.95a2.34,2.34,0,0,0,.67-1.15c.2-1.45-1.94-1.83-3.39-1.62a109.93,109.93,0,0,1-45.78-3.07c-15.12-4.3-28.87-12.36-44-16.78-9-2.65-17.83-5.32-26.87-7.12,2-.7,4.07-1.41,6.09-2.15a358.65,358.65,0,0,1,77.61-18.79c25.83-3.33,53.92-2.39,76.76-16.87,13.55-8.59,25.11-20.35,41.25-24a38.83,38.83,0,0,1,8.64-1.18c1.45,0,5.26.67,5.9-.84s-1.45-3.1-2.77-4.07c-7.32-5.4-15.76-6.93-24.44-8.4-23.23-3.94-46.11,5.11-68.74,8.86-23.23,3.84-47.29-3.24-70.67-3.1a241.44,241.44,0,0,0-54.07,6.59l-1,.23a294.06,294.06,0,0,1,26-15.9c22.24-12.38,54.36-18.48,67.38-42.69a126.07,126.07,0,0,0,7.6-15.75c2-5.46,3.2-11.67-3.86-5.71-25.22,21.3-55.85,19.27-85.89,26.57-9.17,2.22-18.15,4.32-26.89,7.28,1.43-1.63,2.88-3.25,4.27-4.92A344.23,344.23,0,0,1,680,284.76c18.3-14.67,40.32-25.85,55.59-44,15.63-18.59,19.34-49.93,41.64-62.65,1.27-.7,4.89-2,4.69-3.68s-2.8-2-4.43-2.14c-33.63-3.75-54.08,27.72-77.57,45.45C683,230.49,662.57,237.38,643.85,247a224.23,224.23,0,0,0-53.27,38c7.55-19.79,22.15-35.9,33.92-53.52,8.34-12.47,15.5-26.61,17.07-41.73a59.5,59.5,0,0,0-1.42-19.94c-1.19-4.92-3.35-9.82-6.07-2.27-6.14,17-18.84,31.67-32.53,43.21-16.4,13.82-33.15,26.72-48.42,41.89.83-4.07,2.22-10.56,2.82-13.36a385,385,0,0,1,20.12-65.73c10.44-25.59,26-49.5,24.8-78.21-.73-17.75-6.44-39.35,3.16-55.78.75-1.24,3.21-4.22,2.23-5.53s-3.41-.3-4.91.36c-19.78,8.65-29.53,30.34-35.94,49.6-3.23,9.7-4.64,20.67-8.66,30C550.43,128.61,539.64,141,530.61,154c-10.5,15.15-21.52,32.16-27.39,49.76-2.35,5.87-5.25,14.36-7.41,21.22C495.7,225.34,495.6,225.66,495.51,226Zm-66,277.13c4.12,1.39,7.73-.57,11.06-2.84,3.82-2.6,7.71-5,11.68-7.37,3.09-1.84,5.43-4.28,6.08-8,.39-2.24,1.82-4,4.39-3.15,2.8.94,2,3.87,1.48,6a14.2,14.2,0,0,1-4.51,7.79,48.54,48.54,0,0,1-8.09,5.29c-5.91,3.44-11.36,9-18.72,9.07a18.85,18.85,0,0,1-11.79-4.33c-4-3.06-7.76-5.95-12.32-8.15a16.11,16.11,0,0,1-9.27-11.57c-.49-2.3-.45-4.74,2.41-5.35,2.68-.58,3.61,1.43,3.95,3.69,1.07,7.07,9.36,8.89,14.4,12.42C423.29,498.83,425.85,501.9,429.48,503.12ZM259.54,350.65c-1.76,1.06-3.49,1.16-4.77-.65s-.55-3.54,1.11-4.66c3.55-2.4,7.15-4.76,10.86-6.93,18.77-11,38.67-18.64,60.66-19.69,31.44-1.49,56.45,10.45,74.5,36.31,16,22.94,21.42,51.36,21.5,79,0,3.85-.08,7.69-.26,11.5a176.69,176.69,0,0,1-4.29,31.89c-.5,2.1-1.61,3.71-4,3.24s-2.94-2.38-2.48-4.51a183.42,183.42,0,0,0,3-18.47C420,415,413.11,358,371,334.93,333.19,314.13,293.48,330.22,259.54,350.65ZM339.16,432c-.75,0-1.48,0-2.21-.09-21-1.8-31.62-25.22-33.66-43.51-.24-2.21,0-4.44,2.76-4.71s3.42,1.88,3.65,4.08c1.05,10.15,4.33,19.43,10.71,27.5,5.92,7.5,15.32,12.34,24.92,9.69,13.76-3.81,20.07-19.27,21.79-32.12.32-2.39.89-4.66,3.9-4.18,2.66.42,2.82,2.61,2.53,4.86-1.42,10.89-5.14,21.56-13,29.48A30.46,30.46,0,0,1,339.16,432Zm139.9,130.25c-9.32.85-16.95,5.8-24.73,10.3A46.19,46.19,0,0,1,431.15,579a56,56,0,0,1-25-6.25c-7.17-3.53-13.71-8.5-22-9.49a2.78,2.78,0,0,1-2.53-3.26,3,3,0,0,1,3.07-2.83,17,17,0,0,1,6.5,1.09c7.64,2.32,14.1,7.06,21.3,10.29,12.67,5.7,25,6.25,37.39-1,8.88-5.2,17.7-10.23,28.15-11.71,2.17-.31,4,.47,4.28,2.85C482.56,560.83,481.12,562,479.06,562.21Zm28.7-9.63a2.76,2.76,0,0,1-2.35,2.57c-3.85.48-8.16-.64-11.85-1.68a98.23,98.23,0,0,1-12-4.41c-14.63-6.25-30.53-18.46-46.74-9.8a5.94,5.94,0,0,1-2.89,1,6.64,6.64,0,0,1-2.86-1c-16.21-8.66-32.11,3.55-46.74,9.8a98.84,98.84,0,0,1-12,4.41c-3.69,1-8,2.16-11.86,1.68a2.75,2.75,0,0,1-2.34-2.57,2.64,2.64,0,0,1,1.37-2.82,11.86,11.86,0,0,1,3.51-1.15,99.34,99.34,0,0,0,28.83-10.19c8.05-4.18,17.12-8.26,26.16-8.72A27.83,27.83,0,0,1,432,533.47a27.85,27.85,0,0,1,15.93-3.77c9,.46,18.1,4.54,26.15,8.72a99.3,99.3,0,0,0,28.84,10.19,11.86,11.86,0,0,1,3.51,1.15A2.65,2.65,0,0,1,507.76,552.58Zm52.87-164.22c-2,18.29-12.67,41.71-33.65,43.51-.73.06-1.47.09-2.21.09a30.48,30.48,0,0,1-21.38-9c-7.88-7.92-11.59-18.59-13-29.48-.29-2.25-.14-4.44,2.53-4.86,3-.48,3.58,1.79,3.89,4.18,1.72,12.85,8,28.31,21.79,32.12,9.61,2.65,19-2.19,24.93-9.69,6.38-8.07,9.65-17.35,10.71-27.5.23-2.2.88-4.35,3.64-4.08S560.88,386.15,560.63,388.36Zm-24.11-69.64c22,1,41.9,8.68,60.67,19.69,3.7,2.17,7.3,4.53,10.86,6.93,1.66,1.12,2.42,2.8,1.11,4.66s-3,1.71-4.77.65c-33.95-20.43-73.65-36.52-111.5-15.72-42.07,23.11-49,80.08-44.3,122.79a183.45,183.45,0,0,0,3,18.47c.46,2.13-.11,4.05-2.49,4.51s-3.49-1.14-4-3.24a175.8,175.8,0,0,1-4.29-31.89c-.18-3.81-.28-7.65-.26-11.5.08-27.68,5.49-56.1,21.5-79C480.08,329.17,505.09,317.23,536.52,318.72Z"/></svg>