<svg id="Layer_1" data-name="Layer 1" xmlns="http://www.w3.org/2000/svg" viewBox="0 0 864 864"><title>Untitled-26</title><path d="M432,219.73a8.5,8.5,0,0,0,8.48-8.49V8.48a8.48,8.48,0,0,0-17,0V211.24A8.49,8.49,0,0,0,432,219.73Z"/><path d="M314.28,245.06a8.48,8.48,0,0,0,7.36,4.24,8.32,8.32,0,0,0,4.22-1.14A8.49,8.49,0,0,0,329,236.58L227.58,61A8.47,8.47,0,0,0,216,57.88h0a8.49,8.49,0,0,0-3.11,11.58Z"/><path d="M61,227.58,236.58,329a8.46,8.46,0,0,0,4.22,1.14,8.48,8.48,0,0,0,4.26-15.83L69.46,212.9A8.48,8.48,0,1,0,61,227.58Z"/><path d="M219.72,432a8.48,8.48,0,0,0-8.48-8.48H8.48a8.48,8.48,0,0,0,0,17H211.24A8.48,8.48,0,0,0,219.72,432Z"/><path d="M248.16,538.14A8.47,8.47,0,0,0,236.58,535L61,636.42A8.48,8.48,0,0,0,63,652a8.31,8.31,0,0,0,6.43-.85l175.6-101.38A8.48,8.48,0,0,0,248.16,538.14Z"/><path d="M329.81,621a8.48,8.48,0,0,0-15.53-2L212.89,794.54A8.48,8.48,0,0,0,227.58,803L329,627.42A8.43,8.43,0,0,0,329.81,621Z"/><path d="M432,644.27a8.49,8.49,0,0,0-8.48,8.48V855.52a8.48,8.48,0,0,0,17,0V652.75A8.5,8.5,0,0,0,432,644.27Z"/><path d="M549.72,618.94a8.46,8.46,0,0,0-11.58-3.1A8.48,8.48,0,0,0,535,627.42L636.41,803a8.48,8.48,0,1,0,14.69-8.48Z"/><path d="M803,636.42,627.42,535a8.48,8.48,0,1,0-8.48,14.69L794.54,651.1a8.47,8.47,0,0,0,11.58-3.1A8.49,8.49,0,0,0,803,636.42Z"/><path d="M855.52,423.52H652.75a8.48,8.48,0,0,0,0,17H855.52a8.48,8.48,0,0,0,0-17Z"/><path d="M615,319.42A8.48,8.48,0,0,0,627.42,329L803,227.58a8.48,8.48,0,0,0-8.48-14.68L618.94,314.28A8.4,8.4,0,0,0,615,319.42Z"/><path d="M533.42,241a8.48,8.48,0,0,0,3.85.95c3.28,0,6.43-2,8.28-5.57L630.84,72a16.61,16.61,0,0,0,2.29-7.15,8.3,8.3,0,0,0-5.37-7.62c-3.7-1.43-7.23-.44-9.86,3L530.1,228.37a10.2,10.2,0,0,0-1,7.18A8.36,8.36,0,0,0,533.42,241Z"/><path d="M355.32,96.7l27.77,116.13h0c.47,2,1.9,7.91,8.78,8.31,4.11-.09,7-2.27,8.25-6.32.78-2.47.19-4.68-.34-6.63L371.7,90.45c-1.41-5.18-5.85-8.07-10.56-6.92s-7.21,5.52-6.29,10.84C355,95.15,355.14,95.93,355.32,96.7Z"/><path d="M197.94,180l82.12,86.69c1,1.09,3.68,3.87,7.54,3.87a9.3,9.3,0,0,0,4.21-1.07c3.52-2.13,4.9-5.45,4-9.6-.55-2.52-2.17-4.14-3.59-5.57L209,166.35c-3.81-3.77-9.11-4.07-12.6-.7s-3.48,8.38,0,12.53C196.88,178.79,197.4,179.39,197.94,180Z"/><path d="M221.92,365.48a8.34,8.34,0,0,0,7.31-4l.09-.14c2-3.6,1.52-7.17-1.35-10.3-1.74-1.91-4-2.5-5.91-3l-116-34.55c-5.18-1.37-9.92,1-11.27,5.69S96,328.14,101,330c.74.28,1.49.54,2.25.76l114.46,34A14.35,14.35,0,0,0,221.92,365.48Z"/><path d="M221.13,472.13c-.08-4.11-2.27-7-6.32-8.25-2.46-.78-4.66-.19-6.61.33L90.44,492.3c-5.18,1.41-8.08,5.85-6.91,10.56,1,4,4.38,6.47,8.7,6.47a12.32,12.32,0,0,0,2.14-.19c.77-.13,1.55-.28,2.33-.46l116.13-27.77C214.78,480.44,220.74,479,221.13,472.13Z"/><path d="M269.45,572.19c-2.13-3.53-5.45-4.89-9.6-4-2.52.56-4.14,2.18-5.57,3.6L166.35,655c-3.78,3.81-4.07,9.11-.71,12.6a8.22,8.22,0,0,0,6,2.61,10.29,10.29,0,0,0,6.56-2.59h0c.61-.51,1.21-1,1.78-1.56l86.68-82.12C268.1,582.55,272.54,578.34,269.45,572.19Z"/><path d="M361.32,634.68c-3.6-2-7.17-1.52-10.31,1.35-1.9,1.74-2.5,4-3,5.9L313.44,758c-1.37,5.19,1,9.92,5.69,11.26a8.79,8.79,0,0,0,2.45.35c3.67,0,6.89-2.43,8.42-6.6.27-.74.53-1.49.75-2.24l34-114.46C365.34,644.33,367.08,638.46,361.32,634.68Z"/><path d="M508.68,767.3,480.91,651.17h0c-.47-2-1.9-7.91-8.77-8.31-4.12.09-7,2.27-8.25,6.33-.78,2.46-.19,4.67.33,6.62L492.3,773.55c1.19,4.42,4.59,7.18,8.49,7.18a8.76,8.76,0,0,0,2.07-.26c4.68-1.17,7.2-5.53,6.28-10.84C509,768.85,508.86,768.07,508.68,767.3Z"/><path d="M666.05,684l-82.11-86.69c-1.39-1.46-5.61-5.89-11.76-2.8-3.52,2.13-4.89,5.45-4,9.6.56,2.52,2.18,4.14,3.61,5.57L655,697.65a9.87,9.87,0,0,0,6.89,3.05,8.13,8.13,0,0,0,5.71-2.35c3.47-3.35,3.48-8.38,0-12.53C667.11,685.22,666.6,684.61,666.05,684Z"/><path d="M634.77,502.54l-.09.14c-2,3.6-1.52,7.16,1.35,10.31a11.34,11.34,0,0,0,5.91,3l116,34.55a11.62,11.62,0,0,0,2.87.38,8.41,8.41,0,0,0,8.39-6.07c1.33-4.64-1.18-9-6.24-10.86-.75-.28-1.5-.54-2.25-.77l-114.46-34C644.33,498.66,638.45,496.92,634.77,502.54Z"/><path d="M649.18,400.12a8.24,8.24,0,0,0,2.49.38,16.28,16.28,0,0,0,4.13-.71L773.56,371.7c5.17-1.41,8.08-5.85,6.91-10.56s-5.54-7.23-10.85-6.28c-.78.13-1.55.28-2.32.46L651.17,383.09c-2,.47-7.91,1.91-8.31,8.78C643,396,645.13,398.83,649.18,400.12Z"/><path d="M594.55,291.81a8.08,8.08,0,0,0,7.2,4.26,11.46,11.46,0,0,0,2.4-.27c2.52-.56,4.14-2.18,5.57-3.61L697.65,209c3.77-3.81,4.07-9.11.7-12.6s-8.39-3.48-12.53,0h0c-.61.51-1.21,1-1.78,1.56l-86.69,82.12C595.89,281.45,591.45,285.66,594.55,291.81Z"/><path d="M465.53,215.72a9.48,9.48,0,0,0,1.39.1,8,8,0,0,0,4.88-1.58c2.09-1.58,3.45-4.22,3.92-7.64l6.3-45.4c.24-5.16-2.66-9.1-7.23-9.79s-8.46,2.11-9.83,7.41L458.46,204a12.23,12.23,0,0,0,1.09,7.71A8,8,0,0,0,465.53,215.72Z"/><path d="M497.64,224a9.3,9.3,0,0,0,3,.52,7.76,7.76,0,0,0,3.47-.81c2.35-1.16,4.18-3.5,5.28-6.77l14.7-43.41c1.2-5-.92-9.44-5.27-11s-8.71.49-11,5.44L492.9,211.16a12.11,12.11,0,0,0-.37,7.78A8,8,0,0,0,497.64,224Z"/><path d="M340.91,221.31a12.17,12.17,0,0,0,4.81,6.13,7.7,7.7,0,0,0,4,1.12,8.52,8.52,0,0,0,3.16-.63,8.19,8.19,0,0,0,4.68-4.42c1-2.42.88-5.38-.42-8.57L340,172.65l-.09-.18c-2.37-4.6-6.86-6.56-11.16-4.87s-6.26,6.07-4.8,11.34Z"/><path d="M261.46,294.83a8.26,8.26,0,0,0,1.85-6.18c-.32-2.61-1.93-5.1-4.66-7.21l-36.16-28.16c-4.35-2.8-9.22-2.24-12.09,1.36s-2.4,8.39,1.5,12.22l35.87,28.22A12.2,12.2,0,0,0,255,298h.11A8,8,0,0,0,261.46,294.83Z"/><path d="M206.6,388.28,161.4,382l-.2,0c-5.15-.38-9.1,2.67-9.79,7.24s2.12,8.46,7.41,9.83l45.17,6.5a17.31,17.31,0,0,0,2.34.17,10.88,10.88,0,0,0,5.37-1.27,7.92,7.92,0,0,0,4-6,8.24,8.24,0,0,0-1.48-6.27C212.65,390.1,210,388.75,206.6,388.28Z"/><path d="M175.56,540.52a12.53,12.53,0,0,0,3.38-.48l42.36-16.95a12.19,12.19,0,0,0,6.14-4.81,8,8,0,0,0,.49-7.18,8.24,8.24,0,0,0-4.42-4.69c-2.42-1-5.38-.87-8.58.43l-42.47,17.23c-4.59,2.38-6.54,6.87-4.86,11.16A8.13,8.13,0,0,0,175.56,540.52Z"/><path d="M288.65,600.69c-2.61.32-5.1,1.93-7.21,4.65l-28.17,36.17c-2.78,4.35-2.23,9.21,1.37,12.09a8.1,8.1,0,0,0,5.1,1.86,10.14,10.14,0,0,0,7.12-3.36l28.22-35.87A12.2,12.2,0,0,0,298,609a8,8,0,0,0-3.17-6.47A8.2,8.2,0,0,0,288.65,600.69Z"/><path d="M398.47,648.28a8.24,8.24,0,0,0-6.27,1.48c-2.1,1.59-3.45,4.22-3.92,7.64L382,702.8c-.24,5.17,2.67,9.1,7.23,9.79a9.38,9.38,0,0,0,1.38.11c4,0,7.22-2.76,8.45-7.52L405.54,660a12.2,12.2,0,0,0-1.1-7.72A8,8,0,0,0,398.47,648.28Z"/><path d="M523.09,642.69a12.24,12.24,0,0,0-4.81-6.14,8,8,0,0,0-7.18-.48,8.18,8.18,0,0,0-4.69,4.42c-1,2.42-.87,5.39.43,8.57l17.23,42.48c1.81,3.49,4.84,5.45,8.08,5.45a8.42,8.42,0,0,0,3.08-.59c4.35-1.71,6.27-6.07,4.81-11.34Z"/><path d="M600.69,575.35c.32,2.61,1.93,5.1,4.65,7.21l36,28.05.16.12a10.55,10.55,0,0,0,5.64,1.76,8.14,8.14,0,0,0,6.46-3.13c2.91-3.65,2.39-8.39-1.51-12.22l-35.86-28.21c-5.06-4-10.44-3.89-13.7.25A8.22,8.22,0,0,0,600.69,575.35Z"/><path d="M657.4,475.72,702.6,482h.2a5.82,5.82,0,0,0,.59,0c4.87,0,8.54-2.86,9.2-7.25.7-4.61-2.12-8.45-7.42-9.83L660,458.46c-6.38-.93-11,1.86-11.74,7.07a8.28,8.28,0,0,0,1.49,6.27C651.34,473.89,654,475.25,657.4,475.72Z"/><path d="M640.48,357.58a8.89,8.89,0,0,0,3.48.68,13.69,13.69,0,0,0,5.11-1.1l42.46-17.23c4.59-2.38,6.54-6.87,4.86-11.17s-6.06-6.28-11.33-4.8l-42.37,17a12.13,12.13,0,0,0-6.14,4.8,8,8,0,0,0-.49,7.18A8.23,8.23,0,0,0,640.48,357.58Z"/><path d="M574.39,263.37a7.73,7.73,0,0,0,1-.06c2.61-.32,5.1-1.93,7.21-4.65l28.16-36.17c2.79-4.35,2.24-9.21-1.37-12.09S601,208,597.13,211.9l-28.21,35.87c-4,5.06-3.88,10.44.26,13.7A8.41,8.41,0,0,0,574.39,263.37Z"/><path d="M432,241.47c-105.06,0-190.54,85.47-190.54,190.53S326.94,622.53,432,622.53,622.53,537.06,622.53,432,537.06,241.47,432,241.47ZM606.63,432c0,96.29-78.34,174.63-174.63,174.63S257.37,528.29,257.37,432,335.71,257.37,432,257.37,606.63,335.71,606.63,432Z"/></svg>