<svg id="Layer_1" data-name="Layer 1" xmlns="http://www.w3.org/2000/svg" viewBox="0 0 864 837.95"><title>Untitled-26-06 [Converted]</title><path d="M859.35,415.41c-46.76-23.3-94.69-45.72-142.51-66.68l94.72-136.6a8.4,8.4,0,0,0,.33-9,8.31,8.31,0,0,0-8.1-4.07L647.34,215.57,673.19,62.85a8.37,8.37,0,0,0-12.65-8.53L523.72,138.46,451.9,4.42a8.38,8.38,0,0,0-14.82.09L371.31,130.88,242.79,39.61a8.39,8.39,0,0,0-13.23,7l3.89,164.08L72.13,203.05h0a8.23,8.23,0,0,0-7.82,4.5,8.42,8.42,0,0,0,.8,9l93.73,121.31-154,71.89a8.39,8.39,0,0,0,.63,15.45l151.63,56.47L64,603.09a8.42,8.42,0,0,0-.74,9,8.25,8.25,0,0,0,7.93,4.41l155.15-10-10.47,161a8.38,8.38,0,0,0,12.92,7.58l134-86.75L439.5,833.49a8.38,8.38,0,0,0,15-.34L524.11,686l130.5,79a8.38,8.38,0,0,0,12.64-8.29L647.42,609.36,798,621.84a8.37,8.37,0,0,0,7.18-13.64l-92.6-113.82L859,430.6a8.38,8.38,0,0,0,.38-15.19ZM629.43,601.27l18.88,140.36L524.84,666.85a8.38,8.38,0,0,0-11.91,3.59L446.5,810.85,373.31,672.42a8.46,8.46,0,0,0-5.31-4.2,8.35,8.35,0,0,0-6.66,1.08L233.64,752l10-153.84a8.37,8.37,0,0,0-8.9-8.91L88.5,598.64l88.8-115.77a8.39,8.39,0,0,0-3.73-13L30.05,416.47l145.37-67.85a8.4,8.4,0,0,0,3.08-12.73l-89-115.24,152.18,7.25a8.38,8.38,0,0,0,8.77-8.57L246.71,63l122.74,87.15a8.49,8.49,0,0,0,6.82,1.32,8.38,8.38,0,0,0,5.47-4.28L444.62,26.33l68.52,127.89a8.41,8.41,0,0,0,5.21,4.12,8.28,8.28,0,0,0,6.57-1L653.58,78.27,629,223.66a8.41,8.41,0,0,0,2.16,7.14,8.29,8.29,0,0,0,7,2.6l149.24-15.79-90.1,130A8.37,8.37,0,0,0,700.8,360c45.13,19.6,90.5,40.58,134.94,62.41l-139.93,61a8.37,8.37,0,0,0-3.15,13L779.8,603.51,638.42,591.8a8.23,8.23,0,0,0-6.76,2.57A8.33,8.33,0,0,0,629.43,601.27ZM623.5,412.49c0,104.61-84.8,189.42-189.42,189.42S244.66,517.1,244.66,412.49s84.81-189.42,189.42-189.42S623.5,307.88,623.5,412.49ZM434.19,170.41c-133.29,0-241.73,108.44-241.73,241.74S300.9,653.88,434.19,653.88,675.93,545.44,675.93,412.15,567.49,170.41,434.19,170.41ZM659.51,412.15c0,124.24-101.08,225.31-225.32,225.31S208.88,536.39,208.88,412.15,310,186.84,434.19,186.84,659.51,287.91,659.51,412.15Z"/></svg>