<svg id="Layer_1" data-name="Layer 1" xmlns="http://www.w3.org/2000/svg" viewBox="0 0 864 864"><title>Untitled-26</title><path d="M861.16,422.63l-260.8-35.71a173.35,173.35,0,0,0-17.72-42.53l150.89-218a3.29,3.29,0,0,0-4.69-4.49L519.15,281.1a173.65,173.65,0,0,0-42.59-17.61L429.13,2.7a3.29,3.29,0,0,0-6.5.14l-35.71,260.8a173,173,0,0,0-42.53,17.73l-218-150.9a3.29,3.29,0,0,0-4.49,4.69L281.1,344.86a173.42,173.42,0,0,0-17.61,42.58L2.7,434.88a3.29,3.29,0,0,0,.14,6.49l260.8,35.71a173.35,173.35,0,0,0,17.72,42.53l-150.89,218a3.29,3.29,0,0,0,4.7,4.49L344.86,582.9a173.42,173.42,0,0,0,42.58,17.61L434.88,861.3a3.29,3.29,0,0,0,6.49-.14l35.71-260.8a173,173,0,0,0,42.53-17.73l218,150.9a3.29,3.29,0,0,0,4.5-4.7L582.9,519.14a173.42,173.42,0,0,0,17.61-42.58L861.3,429.12A3.29,3.29,0,0,0,861.16,422.63ZM134.68,440.09a5.68,5.68,0,1,1,0-11.35H259.83l-.06,3.26c0,1.68.06,3.33.12,5l.11,3.09ZM216,227.48a5.69,5.69,0,0,1,0-8,5.82,5.82,0,0,1,8,0l88.49,88.48-1.47,1.46c-1.7,1.67-3.35,3.39-5,5.14l-1.45,1.55ZM277.53,432a14,14,0,0,1,23.92-9.92,13.8,13.8,0,0,1,4.1,9.92,14.44,14.44,0,0,1-14.08,14.09h-.07a13.71,13.71,0,0,1-9.76-4.06A14,14,0,0,1,277.53,432Zm-50,216a5.67,5.67,0,0,1-8-8L308,551.45l1.45,1.47c1.67,1.7,3.39,3.35,5.14,5l1.55,1.45ZM342.59,541.32a13.67,13.67,0,0,1-9.81,4.09h0a14,14,0,0,1-10-4.19,14.16,14.16,0,0,1-.06-19.84,14,14,0,0,1,9.93-4.09h0a13.8,13.8,0,0,1,9.92,4.12A14.42,14.42,0,0,1,342.59,541.32Zm0-198.74a14.45,14.45,0,0,1-19.93,0,13.72,13.72,0,0,1-4.08-9.82,14,14,0,0,1,4.19-10,14,14,0,0,1,23.93,9.9A13.8,13.8,0,0,1,342.6,342.58Zm81.31-207.9a5.68,5.68,0,1,1,11.35,0V259.82l-3.26-.05c-1.75,0-3.47.06-5.2.13l-2.89.1Zm16.18,594.65a5.68,5.68,0,0,1-11.35,0V604.2l3.26,0c1.68,0,3.34-.06,5-.12l3.08-.11Zm1.93-147a14,14,0,0,1-9.95,4.11H432a14.16,14.16,0,0,1-14.07-14,14,14,0,0,1,4.15-9.94,13.79,13.79,0,0,1,9.77-4.1H432a14.43,14.43,0,0,1,14.1,14.07A13.71,13.71,0,0,1,442,582.36Zm-.09-280.92a13.76,13.76,0,0,1-9.78,4.11H432a14.44,14.44,0,0,1-14.09-14.08,13.7,13.7,0,0,1,4.05-9.82,14,14,0,0,1,10-4.12H432a14.16,14.16,0,0,1,14.07,14A14,14,0,0,1,441.93,301.44Zm79.48,21.24a14.08,14.08,0,0,1,19.88,19.94,14,14,0,0,1-9.92,4.09h0a13.8,13.8,0,0,1-9.92-4.12A14.42,14.42,0,0,1,521.41,322.68Zm19.81,218.55a14,14,0,0,1-23.92-9.89,13.73,13.73,0,0,1,4.11-9.92,14.41,14.41,0,0,1,19.91,0,13.7,13.7,0,0,1,4.08,9.83A13.94,13.94,0,0,1,541.22,541.23Zm6.69-236.58L636.52,216a5.67,5.67,0,1,1,8,8l-88.49,88.48-1.45-1.47c-1.67-1.7-3.39-3.35-5.14-5ZM648,636.52a5.67,5.67,0,0,1-4,9.68,5.61,5.61,0,0,1-4-1.66l-88.49-88.48,1.47-1.45c1.7-1.68,3.35-3.4,5-5.15l1.45-1.55ZM572.48,446.08h-.08a14,14,0,0,1-9.85-4.15,13.77,13.77,0,0,1-4.1-9.92,14.44,14.44,0,0,1,14.08-14.09h.07a13.7,13.7,0,0,1,9.75,4.05,14,14,0,0,1,4.12,10A14.16,14.16,0,0,1,572.48,446.08Zm156.84-10.82H604.18l.05-3.26c0-1.68-.06-3.34-.12-5l-.11-3.08H729.32a5.68,5.68,0,0,1,0,11.35Z"/></svg>