<svg id="Layer_1" data-name="Layer 1" xmlns="http://www.w3.org/2000/svg" viewBox="0 0 864 860.74"><title>Untitled-26-05</title><path d="M862.88,494c-4-7.62-15.4-4.95-22.2-3.35-.84.19-1.61.38-2.29.52a59.35,59.35,0,0,1-34.2-3.16c-13.14-5.11-24.53-13.93-35.55-22.46-12.26-9.5-24.94-19.32-40.31-24.37-25-8.21-51.56-6.67-81.18-4a138.71,138.71,0,0,1-30.91-.74,208.62,208.62,0,0,1,23.63-4.8c15.43-2.52,31.38-5.12,44.57-14.19,16.4-11.29,27.24-30.33,32.22-56.59,1-5.07-1.07-9.51-5.31-11.59-3-1.46-7.53-2.11-12.16,3.28l-.33.4c-8.64,10.58-21.74,16.76-37.87,17.86-6.9.48-14-.18-20.82-.83a146.07,146.07,0,0,0-19.23-.94c1.35-1.64,3-3.79,5.1-6.6.78-1.06,1.4-1.9,1.74-2.31,16.36-19.63,26.34-43.45,36-66.48l.36-.88c1.2-2.86,2.37-5.8,3.54-8.78,3.49-8.81,7.09-17.91,12-25.66,6.41-10.2,15.74-18.16,24.75-25.86a205.27,205.27,0,0,0,16.18-14.85C739.1,198,748.23,169.18,745,140.38c-.23-2.09-.94-8.47-7.74-9.75s-10.86,5.53-13.41,9.71c-1.36,2.23-2.57,4.48-3.77,6.7-2.33,4.34-4.53,8.43-7.75,12.21-13.78,16.15-33,21.81-54.88,27.06-19.9,4.78-40.63,11.19-57.38,25.68-17.47,15.12-30.36,34.64-41.73,51.87a137,137,0,0,1-19.94,23.79,62.36,62.36,0,0,1,3.34-8c2.51-5.33,5.57-10.53,8.53-15.56a178.75,178.75,0,0,0,9.54-17.71c12.77-27.49,6.78-55.89-17.81-84.4-3.36-3.91-8.09-5.08-12.35-3.08-6.35,3-5.4,9.18-4.71,13.7.17,1.11.34,2.22.41,3.26a57.48,57.48,0,0,1-9.39,35.3c-4.08,6.28-9.46,11.71-14.66,17A132.3,132.3,0,0,0,488,242.93a186.58,186.58,0,0,0-15.93-52.35,249,249,0,0,0-13.41-23.91c-5.09-8.32-10.35-16.93-14.3-25.95a119.38,119.38,0,0,1-8.4-28.5,160.89,160.89,0,0,1-1.51-20.53C434.18,82,433.87,72,431,61.93c-7.33-25.49-22.41-46.11-43.61-59.6-4.77-3.08-9-3.1-12.51-.09-6.43,5.47-1.51,15.82,1.43,22,.33.69.63,1.33.89,1.89a59.73,59.73,0,0,1,5.35,31.23c-1.64,16.47-9.1,32.47-16,46.18-10.65,21.29-15.22,42.45-13.21,61.19a260.72,260.72,0,0,0,10.43,50.11c4.07,13,8.25,26.31,9.79,40.94-1.15-1.92-2.28-3.9-3.37-5.93A155.39,155.39,0,0,1,362.11,231a189.57,189.57,0,0,0-7.45-17.84c-13.53-27.12-39.45-40.08-77.07-38.71-5.17.2-9,3.17-10.12,7.74-1.65,6.84,3.72,9.87,7.63,12.08.95.53,1.89,1.06,2.73,1.63a57.15,57.15,0,0,1,12.63,11.81c9,11.34,10.83,24.52,12.83,38.48a169,169,0,0,0,3.61,19.72A103,103,0,0,0,295.67,261c-1.31-.51-2.42-.94-3.16-1.27A177.55,177.55,0,0,0,271.28,252c-11.71-3.48-24-6.18-35.83-8.79-19.75-4.34-40.16-8.83-58.84-17-9.34-4.11-18.1-9.33-26.58-14.39-17.89-10.66-36.38-21.69-60.09-21.69a103.72,103.72,0,0,0-33.6,5.74c-5.35,1.84-8,5.11-7.83,9.72.3,8.6,10.51,10.71,18,12.24,1.91.4,3.71.77,5,1.18,25,8.35,37.14,31.11,48.86,53.12,2.31,4.34,4.61,8.66,7,12.87,20.82,36.67,56.35,52.4,90.95,65.38a139,139,0,0,1,24.17,12.36l-1.52-.18-2.28-.29c-7.43-1-14.71-3-21.75-5-4.26-1.2-8.68-2.43-13.14-3.44-31.08-6.95-59.17,5.19-81.23,35.13-3,4.15-3.15,9-.25,12.73,2.08,2.67,5.92,5.24,12.32,2.36a55.94,55.94,0,0,1,47.06,1.55,149,149,0,0,1,13.69,8,144.64,144.64,0,0,0,14.51,8.46c-14.34,4-32.85,19.62-42.78,28l-2.59,2.17c-5.69,4.72-11.1,9.5-16.34,14.12-21.3,18.76-41.41,36.48-71.84,43.28C52.37,515,32.13,527.36,17.73,545.45A103.48,103.48,0,0,0,1.3,575.25c-.72,2-2.89,8.11.75,11.1,5.25,4.31,18-1.79,36.85-13.05,2.2-1.31,4.47-2.67,5-2.86,19.18-6.27,38.28-2.53,58.52,1.44,18.72,3.67,38.08,7.47,57.22,2.39A205.76,205.76,0,0,0,212.23,552c2.32-1.39,4.58-2.81,6.84-4.24a143.21,143.21,0,0,1,14.87-8.58,67.39,67.39,0,0,1,9.39-3c1.78-.48,3.57-1,5.29-1.48-5.07,4.49-10.49,8.7-15.8,12.82-9,7-18.25,14.18-26,22.75-17.19,19-21.54,43.09-13.31,73.65,1.34,5.06,5,8.11,9.9,8.15,3.16,0,7.22-1.28,9.12-7.16l.44-1.5c4.14-14.56,13.61-26,28.15-33.94a133.47,133.47,0,0,1,18.51-7.83,145.07,145.07,0,0,0,17.69-7.35,178.43,178.43,0,0,0-8.18,59c.17,6.66.49,13.13.8,19.47,1.43,29.34,2.68,54.68-10.9,82.59-15.74,32.29-14,69.5,4.57,99.53,1,1.6,3.61,5.83,8.71,5.83a9.61,9.61,0,0,0,2.54-.36c8.37-2.31,8.84-15.65,9.21-26.38a57.7,57.7,0,0,1,.79-9.64c5.24-20.62,21.32-35.68,36.37-47.69,13.87-11.06,31-26.38,40.87-46.77,8.63-17.91,12.45-37.57,15.06-54.44.54-3.53.95-7.11,1.35-10.68.58-5.1,1.17-10.37,2.19-15.38.47-2.31,2-5.73,3.63-9.35.56-1.23,1.11-2.47,1.64-3.69.14,6.76-.29,13.66-.7,20.41-1,15.9-2,32.33,4.16,47.3,7.56,18.47,30.09,41.14,50.32,44.14,5.14.77,7.82-1,9.15-2.69,2.3-2.84,2.53-7.59.61-12.7a89,89,0,0,0-4.3-9.37c-2.79-5.47-5.43-10.65-5.75-17.78-.57-12.59,3.09-25.37,6.63-37.73,1.38-4.81,2.79-9.73,4-14.64,2.6,4,6.83,8.31,11.35,12.76,1.45,1.43,2.7,2.66,3.53,3.58,12.31,13.68,27.26,24.57,41.71,35.11,7.64,5.57,15.53,11.32,22.91,17.39,14.44,11.91,24.06,23,31.18,36,22.34,40.76,49.37,61.74,85.21,66a20.33,20.33,0,0,0,2.2.14c5.38,0,7.83-3,8.94-5.52,3.25-7.39-7-16.92-16-25.33-3.62-3.37-7-6.56-8.37-8.61-11.14-17.1-12.3-38.6-12.21-53.29.12-18.64-1.09-42.7-11.53-63.47-10-20-25.9-36.54-41.23-52.57l-.77-.81a138.16,138.16,0,0,1-18.93-25c1.92,1.27,3.85,2.6,5.77,4,5.49,4,10.75,8.68,15.84,13.2,8,7.14,16.35,14.54,26,19.73,21,11.25,46.68,9.47,74.3-5.16,4.54-2.42,6.74-6.78,5.74-11.37-.72-3.28-3-7.23-10.12-7.47h-.5c-13.54-.49-26.69-6.52-37-17-5.38-5.44-9.54-12.06-13.57-18.47a141.81,141.81,0,0,0-10.17-14.75,67.1,67.1,0,0,0,10.8-.53c1.82-.18,3.46-.35,4.73-.38,24.63-.54,48.55-7.42,71.69-14.07l2.55-.73c2.2-.63,4.42-1.3,6.64-2,9.16-2.76,18.63-5.62,28.05-6.08,10.57-.49,21.19,1.46,31.46,3.35a198.78,198.78,0,0,0,23,3.31c28.16,1.85,56.17-8.79,76.79-29.14C864.08,502.19,865,498.1,862.88,494Zm-256.1,83.49c12,16.22,25.54,32.27,47.55,36.92-24.23,10.23-45.25,8.64-62.54-4.76-5.63-4.36-11-9.1-16.17-13.67-10-8.83-20.31-18-32.85-24.58a196.1,196.1,0,0,0,25.1-29.12,161.68,161.68,0,0,1,15,7.41c4.6,3,8.89,7.29,13.51,13.54q2.58,3.5,5.14,7.06C603.28,572.71,605,575.13,606.78,577.51Zm7.14,197.62c4.83,14.26,12.82,22.66,22.09,32.39l2.28,2.4c-6.6-1.06-13.74-4.18-19.57-7-18.09-8.67-32.53-23.5-41.76-42.89-10.64-22.36-25.71-40-47.41-55.41-4-2.83-8.25-5.74-12.68-8.75-25.52-17.38-57.28-39-64.58-68.8a70.78,70.78,0,0,1-1.58-10.53,175.52,175.52,0,0,0,78.8-33.91,153.64,153.64,0,0,0,28,41.14l2,2.05c13.8,14.42,28.07,29.33,37,47a105.47,105.47,0,0,1,11.33,48.63C607.61,738.88,607.91,757.4,613.92,775.13ZM399.57,638.73A148.51,148.51,0,0,0,397,616.88a175.14,175.14,0,0,0,25.78,1.9c4,0,9.15-.28,12.06-.47.47,1.79.92,3.42,1.35,5,.66,2.44,1.29,4.78,2,7.36a37.83,37.83,0,0,1,.74,14.28c-1,7.84-3.85,15.67-6.63,23.24-.79,2.14-1.57,4.26-2.29,6.35-6.94,20-6.11,38.56,2.43,55.4l-.89-.39a34.5,34.5,0,0,1-3.76-1.76,83.13,83.13,0,0,1-10.52-7.71c-10.2-8.89-16.87-20.62-18.79-33-1.38-9-.56-18.27.23-27.27A158.56,158.56,0,0,0,399.57,638.73ZM327.11,280.87c-7-11-8.51-23.05-10.16-35.79-.72-5.56-1.47-11.3-2.69-17-3.61-16.58-12.65-30.95-25.5-40.55,14.68.72,26.92,4.36,36.45,10.82,12.81,8.69,19.45,23.32,25.67,38.82,4.93,12.27,9.58,23.3,16.61,34l.34.54c.66,1.13,1.31,2.18,1.94,3.07A212.7,212.7,0,0,0,334,290.78a39.59,39.59,0,0,1-5.34-7.41ZM265.88,363a154,154,0,0,0-43.06-24.9c-26.47-9.93-49.77-19.49-66.9-36-11.69-11.25-19.38-25.81-26.81-39.88C118.21,241.57,107,220.25,83,209.1a54.21,54.21,0,0,0-8.1-2.4c-1.07-.26-2.79-.69-4.69-1.2a89.27,89.27,0,0,1,19.89-2.28c21.29,0,40.41,10.44,56.3,20.66,17.13,11,37,19.31,62.47,26.13,7.7,2.05,16,3.85,24.8,5.75,29.5,6.39,62.95,13.63,82.94,33.65a28.3,28.3,0,0,1,4.64,6.92c.35.63.7,1.29,1.07,1.95A177.15,177.15,0,0,0,265.88,363Zm4.7,168.14A210.15,210.15,0,0,0,294,562.67c-2.91,3.41-5.74,6.66-8.93,9.8a53.51,53.51,0,0,1-10.81,8.1c-6.48,3.76-13.75,6.59-20.78,9.32-2.84,1.1-5.66,2.2-8.42,3.35-20,8.33-33.83,20.75-41.2,37-2-11.14-2.81-27.19,3.9-41.38,6.41-13.52,19.28-22.38,31.73-31,3.14-2.16,6.26-4.31,9.25-6.51A126.16,126.16,0,0,0,270.58,531.11ZM285.1,701.38c-.1-8-.85-16.11-1.59-23.93-.76-8.17-1.55-16.61-1.57-24.91-.06-27,1.69-54.52,14.77-72.33a48.7,48.7,0,0,1,7.29-7.78,176.9,176.9,0,0,0,75.89,41.05A153.85,153.85,0,0,0,365.23,661l-.34,2.5c-3,22.22-6.08,45.2-16.56,64.65-8.06,15-21.8,26.94-35.08,38.5-20.83,18.13-42.36,36.87-43.15,67.84l0,.63c0,1.15-.06,2.63-.12,4.19a88.1,88.1,0,0,1-6.63-18.76C258,797.41,266,775,273.65,753.34c1.28-3.58,2.54-7.16,3.75-10.72C281.31,731.06,285.28,717.13,285.1,701.38Zm22.33-144.19a163.68,163.68,0,0,1-46.85-109.85,165.4,165.4,0,0,1,19.93-83.2A163.56,163.56,0,0,1,376,286.66c66.13-19.77,138.48,5.68,178.52,61.64a163.56,163.56,0,0,1,23.94,49.18c19.49,66.73-7.29,140.43-64.42,179.8-62.36,43-149.08,35.61-203.5-17Q309,558.77,307.43,557.19ZM387.9,18.75a89.15,89.15,0,0,1,14.63,14.42c12.52,15.63,18.37,34.27,18.4,58.66,0,31,14.29,58.12,28.07,84.32,10.62,20.17,21.6,41,25.94,63.5a91.3,91.3,0,0,1,1.7,25,67.71,67.71,0,0,1-1.32,10.07c-17.18-5.11-36.21-8-52.54-8a175.43,175.43,0,0,0-35.46,3.61,153.75,153.75,0,0,0-7.38-49.14c-6.39-19.65-13.64-41.93-14-64.3a74,74,0,0,1,.58-10.37c1.89-14.82,7.88-27.85,14.22-41.65,4.75-10.34,9.66-21,12.65-32.49C398.69,52.06,394,36.36,387.9,18.75ZM638.3,418.41c-4,.62-8.09,1.24-12.12,2a122.91,122.91,0,0,0-27.9,8.73,191.69,191.69,0,0,0-7.08-37.75,98,98,0,0,1,10.06-4.85,54.88,54.88,0,0,1,15.2-3.69c9.75-1,19.95.12,29.81,1.21l.92.1c21.34,2.36,39.53-2.78,54.17-15.27-7.13,25.26-21.46,40.66-42.68,45.82C652,416.31,645,417.38,638.3,418.41Zm-42.22-44.87c-3.32,1.52-6.59,2.77-9.77,3.95a181,181,0,0,0-50.9-69.93,153.59,153.59,0,0,0,33.89-36.47c12.71-19.26,28.53-43.22,50.32-56.57,13.35-8.18,28.17-12.41,40.91-15.46,34.87-8.36,57.39-23,72-47.12v0c0,20.69-7.88,41.36-22.2,58.19-5.72,6.72-12.33,12.48-18.72,18.05-10.38,9-21.11,18.38-28.19,32-5.95,11.48-11,23.82-16,35.75-4,9.66-8.13,19.64-12.68,29.11C624.89,345.54,613.4,365.56,596.08,373.54Zm-75-76.78a198.71,198.71,0,0,0-34.86-18.46c-.06-.66.07-3.07,3.27-10,1.82-3.93,3.86-7.66,4.84-9.46l.44-.8c4.81-9,11.75-16.65,18.46-24,10.15-11.2,20.65-22.78,24.15-39.3A93.12,93.12,0,0,0,539.52,180c8.7,12.48,13.26,24.87,13.57,36.92.4,15.77-8,30.33-16.11,44.4-2.56,4.44-5.21,9-7.47,13.5C529.42,275,522.58,288.71,521,296.76Zm128.56,153c23.43-1.08,47.67-2.19,70.79,3.38,16.24,3.91,29.45,14.29,42.23,24.32,4.11,3.23,8.36,6.57,12.66,9.66A92.39,92.39,0,0,0,810.13,503c9,1.89,17.35,1.15,25.46.47,3-.26,6.11-.53,9.24-.66-5.15,5-13.42,9-18.26,11.34C808.5,522.85,787.89,524.9,767,520c-23.82-5.55-45-5.13-68.64,1.38-5.61,1.54-11.34,3.25-17.14,5-31.92,9.53-64.92,19.39-95.91,7.7a46,46,0,0,1-9.27-4.8,175.45,175.45,0,0,0,22.73-82.74c17.39,4,34,4,49.46,3.25ZM247.23,429.6c-.3,4.49-.5,9.47-.5,13.12a174.09,174.09,0,0,0,15.84,72.94,153.3,153.3,0,0,0-46.28,18.15l-.66.39c-24.7,14.76-52.71,31.51-82.42,29.92-10.35-.55-21.28-2.65-31.85-4.67-27.26-5.24-55.44-10.65-80,8.15-1.12.86-2.45,1.87-3.84,2.9A89,89,0,0,1,28,553.61C40.6,537.73,58.89,527.09,82.34,522c29.08-6.36,51.58-23.85,65.33-37.39,20.59-20.3,45.44-42.25,73.69-51.16C223.48,432.76,241.75,429.68,247.23,429.6Zm1.39-12.7c-3.14,1-17.05-1.12-19.62-1.83-9.65-2.67-18.41-7.83-26.88-12.82L199,400.42c-4.31-2.52-9-5.15-13.78-7.35a70.64,70.64,0,0,0-29.42-6.64,65.12,65.12,0,0,0-16.1,2c17.37-19.7,37-27.38,58.36-22.8,7,1.48,13.91,3.43,20.61,5.32,12.83,3.6,26.07,7.32,40.09,7.86A193.09,193.09,0,0,0,248.62,416.9Z"/></svg>