<svg id="Layer_1" data-name="Layer 1" xmlns="http://www.w3.org/2000/svg" viewBox="0 0 864 635.66"><title>Untitled-26</title><path d="M43.87,555.1c34.78-14.71,77.33-16.89,125.22-9.59,14.66,2.24,29.4,5.57,43.65,8.79,14.06,3.18,28.6,6.46,43.11,8.72,35.54,5.52,72.66,4.41,110.31-3.28,12.64-2.58,25.35-5.76,37.63-8.84,17.77-4.46,36.15-9.06,54.54-11.89,55.15-8.5,105.32,4.32,158.43,17.89,20.31,5.19,41.32,10.56,62.44,14.55a274,274,0,0,0,51,5.2q3.72,0,7.38-.12a14.92,14.92,0,0,0,7.33-2,4.84,4.84,0,0,0,2.41-4.2,5.07,5.07,0,0,0-1.67-3.94,7.88,7.88,0,0,0-5.24-1.33,252.82,252.82,0,0,1-51.33-2.77c-15.4-13.41-35.36-23.27-54-31.17a186.12,186.12,0,0,0,22.74-2c27.24-4.18,49.9-15.2,74.6-28.1,35.42-18.51,85.23-30.07,118.83-7a8.54,8.54,0,0,0,10,.31c3.08-2.4,3.5-6.62,1.63-10.25-4.83-9.41-13-17.73-20.2-25.07l-3.28-3.34C806.91,422,768.74,400.28,729,392.76c-20.18-3.83-40.45-3.5-64,1.08-5.89,1.14-11.94,2.3-18,3.4,10.51-9.62,19.44-20.86,28.12-31.78,1.85-2.33,3.69-4.65,5.56-7,12.67-15.72,24.88-25,41.05-31a8.56,8.56,0,0,0,4.48-3.43l.2-.33a8.53,8.53,0,0,0-.71-9.4c-9.5-13.38-29.9-16.38-38.23-17.05-27.13-2.2-55.13,9.8-81.65,24.18a185.29,185.29,0,0,0,12.61-19.06c13.72-23.9,19.23-48.49,24.54-75.85,7.61-39.22,30.42-84.34,68.59-97.3,5.41-1.84,6.75-6.25,6.77-7.59.05-3.84-3.38-6.88-7.34-7.67-14.2-2.84-28.73-.77-42.77,1.23l-2.93.42a253.92,253.92,0,0,0-40.19,8.71c-26.47,8.24-49.65,20.82-68.92,37.39-15.51,13.35-27.9,29.4-39,50.53-2.84,5.42-5.75,11-8.73,16.51-.94-11.67-3.42-23.16-5.84-34.32-4.95-22.86-9.63-44.45-2.1-67.63a8.45,8.45,0,0,0,.15-5.68l-.14-.39a8.6,8.6,0,0,0-7.78-5.31c-16.37-1-31.45,13.17-37.17,19.26-18.69,19.9-26.73,49.22-32,78.9a184.56,184.56,0,0,0-7-21.72c-10.16-25.68-25.93-45.3-44-66.48C346.6,95,324.24,49,339.21,11.1A7.79,7.79,0,0,0,326.94,2C306,19.58,293.81,45.91,283.1,71.37c-19.9,47.31-20,98.25-.16,143.43,2.32,5.27,4.89,11.09,7.4,17-12-8.25-25-14.35-37.63-20.26-20.91-9.79-35.4-21.22-46.91-37a8.57,8.57,0,0,0-4.31-3.66l-.42-.13a8.46,8.46,0,0,0-9,2.77c-10.93,12.26-9.32,32.81-8.12,41.07,3.9,27,21.82,51.62,41.74,74.27-25.69-11.39-55.4-16.77-88.37-16-28.24.69-53.68.41-79.34-9.75-13.75-5.45-32.41-15.88-43.21-34.67A7.8,7.8,0,0,0,0,232.41c.71,27.68,14.6,55.72,28.09,79.5C42.17,336.74,60,357.2,81,372.74c22.73,16.79,49.7,25.15,75.91,31.33-7.82,3.19-15.74,7-23.45,10.66C112,425,89.73,435.64,66.78,435.19c-1,0-2.07-.15-3.19-.28-3.23-.37-6.89-.79-9.81.92l-.37.26A8.54,8.54,0,0,0,50,444.85c3.88,22.79,29.94,34.49,41,38.46,22.15,8,46.67,8.3,70.12,7.16a183.1,183.1,0,0,0-19.61,11.69C130,510,119.59,519.39,108.86,531.57q-5,.16-10,.51A202.62,202.62,0,0,0,28,550.33a18.41,18.41,0,0,0-4.3,2.62,5,5,0,0,0-.93,6.67c1.26,2,4.28,2.21,6.74,1.32C33.4,559.53,40.07,556.71,43.87,555.1ZM364.34,132.36c17.41,20.43,32.61,39.3,42.17,63.47a174.5,174.5,0,0,1,11.71,51.9c.37,5,.53,10,.47,15l-2.2-.16c-4.52-.33-9.15-.49-13.77-.49a193.69,193.69,0,0,0-69.16,12.68c-2.42.94-4.82,1.9-7.17,2.93-2.78,1.17-5.65,2.48-8.56,3.89a158.57,158.57,0,0,0-4.64-20.3c-.88-3-1.88-6-3-8.9-.8-2.16-1.63-4.33-2.47-6.49-4.7-12.1-9.92-24-15-35.41h0l-.83-1.88q-1.87-4.23-3.72-8.48c-5.95-13.66-9.06-28.8-9.76-47.65-1.4-38.18,10.7-78.06,35-115.33l2.59-4c2.89-4.5,6-9.42,9.47-13.87C317,58.84,339.37,103.08,364.34,132.36Zm-95.7,182.51c-1.75.11-3.3-1.89-4.53-2.87-2.26-1.81-4.61-3.5-6.92-5.25-5.59-4.25-10.22-10.38-15-15.52-5.22-5.59-10.37-11.23-15.31-17.07-9.8-11.59-18.87-24-25.15-37.9a102,102,0,0,1-4.51-11.8c-3.86-12.4-6.35-30,1.23-41.6-1.22,1.91,8.7,10.51,10,11.71,16.21,15.5,36.36,24.15,56,34.37a177.15,177.15,0,0,1,34.16,22.89c1.26,1.09,2,5.17,2.48,6.7,1.93,5.58,3.51,11.28,5,17,.33,1.31,3.36,10.4,1.77,11.29A195.14,195.14,0,0,0,282.19,304c-4.05,3.2-7.8,6.72-11.73,10.05A3.13,3.13,0,0,1,268.64,314.87ZM259.56,325a195.93,195.93,0,0,0-42.24,72.37c-.79,2.46-1.53,4.93-2.22,7.43-.83,3-1.59,6-2.28,9.07a155.42,155.42,0,0,0-18.67-9c-18.67-7.48-38.2-12.51-57.69-17.33a136.24,136.24,0,0,1-49.07-23.45C56.67,341.38,33,307.06,19,264.82q-.73-2.24-1.51-4.53c-1.73-5.05-3.62-10.58-5-16.08,25.62,31.38,74.25,41.47,112.65,40.25,26.84-.89,51.09-1,75.92,6.6A175.28,175.28,0,0,1,249,314.25c4.14,2.82,8.2,5.86,12.11,9.06C260.58,323.85,260.07,324.4,259.56,325Zm-83.71,85.17c1.42.45,4.64,1.19,6.06,1.66A146.64,146.64,0,0,1,210.65,425a195.05,195.05,0,0,0-2.59,31.72c0,5.69.24,11.34.72,16.83-5.2,1.11-10.36,2.43-15.37,3.93-.7,0-1.4.1-2.1.15-30.53,2.38-63.37,6.19-93.12-3.22a77.19,77.19,0,0,1-15.73-6.87C77,464.36,64.68,456.18,61.24,445.7c17.52,1.18,33.23-1.61,47.92-8.55,4.42-2.09,8.83-4.26,13.17-6.41,14.08-7,27.63-12.2,41.84-17.47A64.63,64.63,0,0,1,175.85,410.13Zm19.68,77.94c4.66-1.44,9.52-2.7,14.48-3.77.1.72.21,1.45.33,2.17a192.12,192.12,0,0,0,20.1,60.79c-5.79-1.2-12.09-2.57-19.51-4.25-33-7.51-60.82-11.21-87.28-11.59a154.61,154.61,0,0,1,23.87-20.37A174.9,174.9,0,0,1,195.53,488.07Zm25.37-59.42a185.51,185.51,0,0,1,7.34-30.09c15.1-45.17,48-83.08,90-105.21,46.5-24.46,103.47-27,152.22-7.61,51.66,20.51,92.81,65.5,108.58,118.81a185,185,0,0,1-8.36,127,2,2,0,0,1-.76,1,2,2,0,0,1-1.35,0c-34.8-8.08-70.82-8.85-106.18-4.39-42.61,5.37-83.11,20.65-125.87,25.62-31.1,3.61-61.66,1.78-92.3-3.87A184.15,184.15,0,0,1,220.9,428.65Zm268.5-302.4c-1.94.2-3.85,18.16-4,20.31a88.6,88.6,0,0,0,.47,21.28c2.27,15.43,6.95,30.37,9.8,45.68,3.09,16.57,3,33.51,1,50.2-.83,6.8-2,13.73-3.51,20.63.11-.52-8.56-4.24-9.36-4.61a193.46,193.46,0,0,0-37.08-12.69c-1.44-.33-17.25-3.19-17.25-3.18.13-7.73-.36-15,.63-22.71,4.22-33,9.5-73.74,33.34-99.09C467.66,137.55,478.34,127.38,489.4,126.25ZM636.27,392.32c-3.56,3-7.15,5.82-10.7,8.42-1.47.22-3,.43-4.42.61a144.73,144.73,0,0,1-31.59.58,193.63,193.63,0,0,0-19.45-44.53c4.16-3.2,8.26-6.64,12.18-10.22l3.9-2.25c31.89-18.54,68.09-39.6,100.38-36.95,6.26.52,20.95,2.56,28.58,10.47-16.32,6.53-29.24,15.87-39.45,28.49-3.09,3.8-6.12,7.68-9.13,11.54C656.93,370.87,647.81,382.56,636.27,392.32Zm-60.46-53.8c-3.66,3.38-7.51,6.66-11.48,9.76-.42-.62-.85-1.24-1.27-1.84a196.87,196.87,0,0,0-60.15-56.57,222.62,222.62,0,0,0,5.64-39.15c6.26-10.78,12.09-21.91,17.74-32.66l5.7-10.83c7-13.18,16.88-25,31.18-37.35,29-24.9,67.69-40.3,112-44.55l4.74-.48c5.32-.56,11.13-1.17,16.79-1.25-36.33,18-57,63.09-64.31,100.87-5.1,26.38-10.38,50-23.31,72.55A175,175,0,0,1,575.81,338.52Zm9,187.16c5.11,1.26,10.32,2.32,15.51,3.13.65.27,1.31.53,2,.79l2.23.86c19.48,7.57,41.23,16,59.38,26.95-15.9-3.59-31.74-8-47.14-12.31-11.77-3.28-23.91-6.67-36-9.66C582.19,532.21,583.54,528.94,584.78,525.68ZM603,518.35c-4.79-.72-9.72-1.69-14.67-2.88.23-.69.45-1.39.67-2.09a194.37,194.37,0,0,0,8.4-56.67,197.91,197.91,0,0,0-1.86-26.95c-.36-2.58-.76-5.14-1.22-7.67-.55-3-1.18-6.12-1.88-9.14,23.59,1.48,47.13-2.53,70.19-7.11,10.56-2.09,21.07-5,31.84-5.37A147.53,147.53,0,0,1,727,403.33c37.52,7.11,73.71,27.78,104.66,59.77l3.32,3.39c3.75,3.82,7.86,8,11.45,12.37-36.73-17.19-84.85-5.21-119,12.62-23.85,12.45-45.66,23.08-71.26,27A175.3,175.3,0,0,1,603,518.35Z"/><path d="M92.59,561.8c24.81,1.48,44,4.53,66.15,10.52,12.48,3.38,25.12,7.35,37.33,11.19,11.93,3.74,24.27,7.62,36.5,11A260.67,260.67,0,0,0,301.16,604q3.6,0,7.18-.11a189.17,189.17,0,0,0,53.54-9.07l4.68-1.55c30.84-10.2,62.72-20.76,95.35-25.2,36.11-4.91,71.78,1.55,105,9.3,11.57,2.69,23.53,5.48,35.45,7.53.33.06,34.66,6.48,61.8,7.13,24.23.57,29.54-1.69,31.7-3.81a3.8,3.8,0,0,0,1.53-3.08,4.39,4.39,0,0,0-1.53-3.27c-2.4-2.14-7-1.65-11-1.37l-2.27.16c-36,2.19-72.59-5-105-12.17-33.68-7.47-72.87-15.18-111.55-12-27.64,2.29-54.26,11-80,19.35-9.18,3-18.67,6.09-28.05,8.84-22.89,6.71-48.44,9.17-75.9,7.28-17.47-1.19-35.15-6-52.25-10.64l-1.24-.34c-11.42-3.1-22.76-6.82-33.74-10.41-12.3-4-25-8.2-38-11.55a295.23,295.23,0,0,0-51.38-8.79l-1-.08c-7.37-.61-16.27-.88-19.84,2.61a5.17,5.17,0,0,0-1.59,4.14c.15,2.41,1.76,4.08,4.77,4.51C89.05,561.57,92.59,561.8,92.59,561.8Z"/><path d="M673.45,601.61c-2.68-1.69-6.89-.82-8.13-.51s-2.23.53-3.38.73c-12.63,2.18-24.92.9-38.53-.85-14-1.81-28.15-4.55-41.81-7.2-12.47-2.41-25.36-4.91-38.17-6.7-29.93-4.19-54.63-4.05-77.74.44-15.4,3-30.82,7.61-45.74,12.09-7.8,2.34-15.87,4.76-23.81,6.9-25.05,6.77-48.82,9.53-72.68,8.45-5.16-.24-10.31-.56-15.46-.89-1-.06-1.95-.15-2.95-.25-3.74-.35-8.19-.46-11.75.55a5.14,5.14,0,0,0-3.49,2.83,4.69,4.69,0,0,0,.21,3.92c1.16,2.52,6.73,3.11,8.41,3.22q4.83.35,9.49.71c11.31.86,22.15,1.69,33.11,1.69,3.92,0,7.87-.11,11.85-.36,20.91-1.3,41.22-7.69,60.87-13.87,7.86-2.48,16-5,24.05-7.23,30.41-8.28,60.62-11.56,89.77-9.76,18.75,1.16,37.36,5.19,55.35,9.09,7.86,1.71,16,3.47,24.05,5,7.06,1.32,13.38,2.28,19.33,2.94,15.79,1.75,30.1,1.3,42.54-1.32,4.41-.93,7-3.36,6.65-6.42l-.06-.35A4.32,4.32,0,0,0,673.45,601.61Z"/><path d="M582.55,614.62c-23.87,7.26-50.09,10.78-77.83,10.56a365.81,365.81,0,0,1-64.13-6.59l-1.07-.21c-2.81-.57-6.67-1.35-9.54,0a5.18,5.18,0,0,0-2.85,3.55,4.39,4.39,0,0,0,1.1,3.88c1.35,1.49,3.24,2,5.06,2.32,10.63,2.11,21.33,3.8,31.79,5a360.89,360.89,0,0,0,41.86,2.5,303.21,303.21,0,0,0,39-2.44,261.93,261.93,0,0,0,39.79-8.29c1.07-.32,4.67-1.56,6-4.18a4.42,4.42,0,0,0,.32-3.5C591.11,614.14,587.45,613.13,582.55,614.62Z"/></svg>