<svg id="Layer_1" data-name="Layer 1" xmlns="http://www.w3.org/2000/svg" viewBox="0 0 864 847.18"><title>Untitled-26</title><path d="M429.39,632.75c33.5-10.72,65.67-25.48,92.75-48.64,23.93-20.45,43.43-46.67,51.67-77.39s8.61-65.66-1.71-95.87C559.93,375.17,536.44,349.24,501,336c-38.36-14.28-84-4.24-115.48,21.09-33.6,27.07-45.35,72.35-28.11,111.88,14,32.15,58.71,42.36,87.23,23.23,13.89-9.32,20.34-26.61,17.32-42.87a18,18,0,0,0-2.23-6.46c-1.5-2.4-1.57-4.75,1.13-6.24s4.76,0,6.1,2.25c2.4,4.17,3.34,8.78,3.83,13.53,2.8,27.06-16.48,49.69-42.21,55.55a73.78,73.78,0,0,1-53.46-8c-16.8-9.91-26.71-25.84-31.19-44.51a101,101,0,0,1,9.24-71.64c15.47-29.08,40-46,70.43-55.74,26.61-8.48,53.34-9,80-.19,20.38,6.71,36.15,19.94,50.45,35.43,24.28,26.3,34.11,62.62,33.9,98.27a197,197,0,0,1-3.29,34.54c-7.28,39.18-31.22,73.45-61.71,98.34-19.34,15.77-40.75,27.25-63.27,36.29C561.77,616.64,640.4,529,640.4,423c0-115.83-93.91-209.75-209.74-209.75S220.91,307.18,220.91,423C220.91,538.43,314.13,632.08,429.39,632.75Z"/><path d="M430.66,0a9.94,9.94,0,0,0-9.94,9.93v158.4a9.94,9.94,0,0,0,19.87,0V9.93A9.94,9.94,0,0,0,430.66,0Z"/><path d="M66,223.49l137.18,79.2a9.93,9.93,0,1,0,9.93-17.2L75.88,206.29A9.93,9.93,0,1,0,66,223.49Z"/><path d="M220.57,552.17A9.93,9.93,0,0,0,206,541L68.83,620.19a9.93,9.93,0,1,0,9.93,17.21l137.18-79.2A9.89,9.89,0,0,0,220.57,552.17Z"/><path d="M430.66,668.92a9.94,9.94,0,0,0-9.94,9.93v158.4a9.94,9.94,0,0,0,19.87,0V678.85A9.94,9.94,0,0,0,430.66,668.92Z"/><path d="M792.48,621.38,655.3,542.18a9.93,9.93,0,1,0-9.93,17.2l137.18,79.2a9.91,9.91,0,0,0,5,1.33,10,10,0,0,0,2.59-.34,9.93,9.93,0,0,0,2.39-18.19Z"/><path d="M640.75,291.32a9.92,9.92,0,0,0,14.56,11.17l137.17-79.2a9.93,9.93,0,0,0-9.93-17.2l-137.18,79.2A9.87,9.87,0,0,0,640.75,291.32Z"/><path d="M561.62,201.18c3.48,0,6.82-2.11,9.2-6.05l30.27-52.3a8.83,8.83,0,0,0-3.6-11.43c-4.58-2.52-9.47-1.27-12.18,3.11l-31.19,50.54c-3.44,6.06-2.36,11.87,2.76,14.8A9.55,9.55,0,0,0,561.62,201.18Z"/><path d="M614,115.59h.24c5.78,0,8.39-4.48,9.65-6.64l28.54-49c2.87-5.22,1.65-10.85-2.95-13.7s-10.4-1.32-14,4.06L605.9,101.13A10.14,10.14,0,0,0,606,111,9.45,9.45,0,0,0,614,115.59Z"/><path d="M294.43,201.18a9.56,9.56,0,0,0,4.79-1.36c5-2.9,6.11-8.57,2.84-14.5L272,133a8.86,8.86,0,0,0-11.71-2.6c-4.47,2.71-5.83,7.58-3.39,12.11L285,194.8C287.46,199,290.87,201.18,294.43,201.18Z"/><path d="M238.23,108a10.17,10.17,0,0,0,8.5,4.88h.11a9.41,9.41,0,0,0,7.94-4.64c3.08-5.08.46-9.67-.8-11.88L225.87,47.24l-.05-.09c-3.09-5.09-8.58-6.85-13.34-4.29S206.14,51.21,209,57Z"/><path d="M108,415.77a9.54,9.54,0,0,0-8.33,9.34c.11,5.22,3.57,9.51,8.72,9.66l59.43,1.06c7-.05,11.46-3.89,11.44-9.78h0c0-5.76-4.36-9.58-11.13-9.72Z"/><path d="M77.83,429.28a9.44,9.44,0,0,0,0-9.2c-2.87-5.21-8.16-5.23-10.7-5.24l-56.6-.22h-.1c-5.95.13-10.22,4-10.39,9.4s4.06,9.67,10.49,10.05l58.81.23A10.17,10.17,0,0,0,77.83,429.28Z"/><path d="M306.47,641.24c-5-2.86-10.48-1-13.94,4.72l-30.28,52.3a8.86,8.86,0,0,0,3.61,11.44,9.9,9.9,0,0,0,4.73,1.28,8.68,8.68,0,0,0,7.45-4.39L309.22,656C312.66,650,311.58,644.17,306.47,641.24Z"/><path d="M249.39,725.51c-6,0-8.61,4.44-9.89,6.64l-28.54,49c-2.87,5.22-1.65,10.86,2.95,13.7a9.22,9.22,0,0,0,4.9,1.44c3.35,0,6.67-1.91,9.05-5.5L257.45,740a10.14,10.14,0,0,0-.08-9.89A9.39,9.39,0,0,0,249.39,725.51Z"/><path d="M601.85,699.74l-28.18-52.28c-3.53-6-9.1-8-14.19-5s-6.12,8.56-2.85,14.5l30.12,52.3a9,9,0,0,0,7.33,3.81,8.39,8.39,0,0,0,4.37-1.22C602.92,709.14,604.29,704.27,601.85,699.74Z"/><path d="M620.46,734.26a10,10,0,0,0-8.61-4.88,9.43,9.43,0,0,0-7.94,4.63h0c-3.08,5.09-.45,9.68.81,11.88l28.15,49.22c2.14,3.53,5.44,5.46,8.84,5.46a9.48,9.48,0,0,0,4.51-1.17c4.87-2.62,6.34-8.34,3.46-14.1Z"/><path d="M696.14,410.78c-7,0-11.46,3.89-11.44,9.78h0c0,5.76,4.36,9.58,11.13,9.72l60.36.07a8.87,8.87,0,0,0,8.1-8.85c-.12-5.22-3.65-8.83-8.79-9Z"/><path d="M853.51,413.87l-58.81-.22a10.14,10.14,0,0,0-8.53,5,9.4,9.4,0,0,0,0,9.19c2.87,5.22,8.16,5.24,10.7,5.24l56.6.23h.1c5.95-.13,10.22-4,10.39-9.41S859.94,414.26,853.51,413.87Z"/><path d="M629.13,199.91a19.6,19.6,0,1,0,19.59,19.6A19.6,19.6,0,0,0,629.13,199.91Z"/><path d="M510.58,164.5a19.59,19.59,0,1,0-26.77-7.17A19.59,19.59,0,0,0,510.58,164.5Z"/><path d="M370.61,159.18a19.59,19.59,0,1,0-26.76,7.17A19.59,19.59,0,0,0,370.61,159.18Z"/><path d="M207.55,224.54A19.6,19.6,0,1,0,227.14,205,19.59,19.59,0,0,0,207.55,224.54Z"/><path d="M165,369.86a19.59,19.59,0,1,0-26.77-7.17A19.6,19.6,0,0,0,165,369.86Z"/><path d="M140.05,490.23a19.59,19.59,0,1,0,26.76-7.17A19.59,19.59,0,0,0,140.05,490.23Z"/><path d="M251.78,626.53a19.6,19.6,0,1,0-19.6,19.59A19.61,19.61,0,0,0,251.78,626.53Z"/><path d="M350.73,681.53a19.59,19.59,0,1,0,26.77,7.17A19.59,19.59,0,0,0,350.73,681.53Z"/><path d="M490.7,686.86a19.59,19.59,0,1,0,26.76-7.18A19.58,19.58,0,0,0,490.7,686.86Z"/><path d="M653.76,621.49a19.6,19.6,0,1,0-19.6,19.59A19.6,19.6,0,0,0,653.76,621.49Z"/><path d="M696.34,476.17a19.59,19.59,0,1,0,26.77,7.18A19.6,19.6,0,0,0,696.34,476.17Z"/><path d="M721.26,355.8A19.59,19.59,0,1,0,694.5,363,19.59,19.59,0,0,0,721.26,355.8Z"/></svg>