  0
SECTION
  2
HEADER
  9
$ACADVER
  1
AC1024
  9
$ACADMAINTVER
 70
     6
  9
$DWGCODEPAGE
  3
ANSI_1251
  9
$INSBASE
 10
0.0
 20
0.0
 30
0.0
  9
$EXTMIN
 10
1.000000000000000E+20
 20
1.000000000000000E+20
 30
1.000000000000000E+20
  9
$EXTMAX
 10
-1.000000000000000E+20
 20
-1.000000000000000E+20
 30
-1.000000000000000E+20
  9
$LIMMIN
 10
0.0
 20
0.0
  9
$LIMMAX
 10
12.0
 20
9.0
  9
$ORTHOMODE
 70
     0
  9
$REGENMODE
 70
     1
  9
$FILLMODE
 70
     1
  9
$QTEXTMODE
 70
     0
  9
$MIRRTEXT
 70
     1
  9
$LTSCALE
 40
1.0
  9
$ATTMODE
 70
     1
  9
$TEXTSIZE
 40
0.2
  9
$TRACEWID
 40
0.05
  9
$TEXTSTYLE
  7
Standard
  9
$CLAYER
  8
0
  9
$CELTYPE
  6
ByLayer
  9
$CECOLOR
 62
   256
  9
$CELTSCALE
 40
1.0
  9
$DISPSILH
 70
     0
  9
$DIMSCALE
 40
1.0
  9
$DIMASZ
 40
0.18
  9
$DIMEXO
 40
0.0625
  9
$DIMDLI
 40
0.38
  9
$DIMRND
 40
0.0
  9
$DIMDLE
 40
0.0
  9
$DIMEXE
 40
0.18
  9
$DIMTP
 40
0.0
  9
$DIMTM
 40
0.0
  9
$DIMTXT
 40
0.18
  9
$DIMCEN
 40
0.09
  9
$DIMTSZ
 40
0.0
  9
$DIMTOL
 70
     0
  9
$DIMLIM
 70
     0
  9
$DIMTIH
 70
     1
  9
$DIMTOH
 70
     1
  9
$DIMSE1
 70
     0
  9
$DIMSE2
 70
     0
  9
$DIMTAD
 70
     0
  9
$DIMZIN
 70
     0
  9
$DIMBLK
  1

  9
$DIMASO
 70
     1
  9
$DIMSHO
 70
     1
  9
$DIMPOST
  1

  9
$DIMAPOST
  1

  9
$DIMALT
 70
     0
  9
$DIMALTD
 70
     2
  9
$DIMALTF
 40
25.4
  9
$DIMLFAC
 40
1.0
  9
$DIMTOFL
 70
     0
  9
$DIMTVP
 40
0.0
  9
$DIMTIX
 70
     0
  9
$DIMSOXD
 70
     0
  9
$DIMSAH
 70
     0
  9
$DIMBLK1
  1

  9
$DIMBLK2
  1

  9
$DIMSTYLE
  2
Standard
  9
$DIMCLRD
 70
     0
  9
$DIMCLRE
 70
     0
  9
$DIMCLRT
 70
     0
  9
$DIMTFAC
 40
1.0
  9
$DIMGAP
 40
0.09
  9
$DIMJUST
 70
     0
  9
$DIMSD1
 70
     0
  9
$DIMSD2
 70
     0
  9
$DIMTOLJ
 70
     1
  9
$DIMTZIN
 70
     0
  9
$DIMALTZ
 70
     0
  9
$DIMALTTZ
 70
     0
  9
$DIMUPT
 70
     0
  9
$DIMDEC
 70
     4
  9
$DIMTDEC
 70
     4
  9
$DIMALTU
 70
     2
  9
$DIMALTTD
 70
     2
  9
$DIMTXSTY
  7
Standard
  9
$DIMAUNIT
 70
     0
  9
$DIMADEC
 70
     0
  9
$DIMALTRND
 40
0.0
  9
$DIMAZIN
 70
     0
  9
$DIMDSEP
 70
    46
  9
$DIMATFIT
 70
     3
  9
$DIMFRAC
 70
     0
  9
$DIMLDRBLK
  1

  9
$DIMLUNIT
 70
     2
  9
$DIMLWD
 70
    -2
  9
$DIMLWE
 70
    -2
  9
$DIMTMOVE
 70
     0
  9
$DIMFXL
 40
1.0
  9
$DIMFXLON
 70
     0
  9
$DIMJOGANG
 40
0.7853981633974483
  9
$DIMTFILL
 70
     0
  9
$DIMTFILLCLR
 70
     0
  9
$DIMARCSYM
 70
     0
  9
$DIMLTYPE
  6

  9
$DIMLTEX1
  6

  9
$DIMLTEX2
  6

  9
$DIMTXTDIRECTION
 70
     0
  9
$LUNITS
 70
     2
  9
$LUPREC
 70
     4
  9
$SKETCHINC
 40
0.1
  9
$FILLETRAD
 40
0.5
  9
$AUNITS
 70
     0
  9
$AUPREC
 70
     0
  9
$MENU
  1
.
  9
$ELEVATION
 40
0.0
  9
$PELEVATION
 40
0.0
  9
$THICKNESS
 40
0.0
  9
$LIMCHECK
 70
     0
  9
$CHAMFERA
 40
0.5
  9
$CHAMFERB
 40
0.5
  9
$CHAMFERC
 40
1.0
  9
$CHAMFERD
 40
0.0
  9
$SKPOLY
 70
     0
  9
$TDCREATE
 40
2459337.65862522
  9
$TDUCREATE
 40
2459337.53362522
  9
$TDUPDATE
 40
2459337.658625405
  9
$TDUUPDATE
 40
2459337.533625405
  9
$TDINDWG
 40
0.0000000116
  9
$TDUSRTIMER
 40
0.0000000116
  9
$USRTIMER
 70
     1
  9
$ANGBASE
 50
0.0
  9
$ANGDIR
 70
     0
  9
$PDMODE
 70
     0
  9
$PDSIZE
 40
0.0
  9
$PLINEWID
 40
0.0
  9
$SPLFRAME
 70
     0
  9
$SPLINETYPE
 70
     6
  9
$SPLINESEGS
 70
     8
  9
$HANDSEED
  5
56
  9
$SURFTAB1
 70
     6
  9
$SURFTAB2
 70
     6
  9
$SURFTYPE
 70
     6
  9
$SURFU
 70
     6
  9
$SURFV
 70
     6
  9
$UCSBASE
  2

  9
$UCSNAME
  2

  9
$UCSORG
 10
0.0
 20
0.0
 30
0.0
  9
$UCSXDIR
 10
1.0
 20
0.0
 30
0.0
  9
$UCSYDIR
 10
0.0
 20
1.0
 30
0.0
  9
$UCSORTHOREF
  2

  9
$UCSORTHOVIEW
 70
     0
  9
$UCSORGTOP
 10
0.0
 20
0.0
 30
0.0
  9
$UCSORGBOTTOM
 10
0.0
 20
0.0
 30
0.0
  9
$UCSORGLEFT
 10
0.0
 20
0.0
 30
0.0
  9
$UCSORGRIGHT
 10
0.0
 20
0.0
 30
0.0
  9
$UCSORGFRONT
 10
0.0
 20
0.0
 30
0.0
  9
$UCSORGBACK
 10
0.0
 20
0.0
 30
0.0
  9
$PUCSBASE
  2

  9
$PUCSNAME
  2

  9
$PUCSORG
 10
0.0
 20
0.0
 30
0.0
  9
$PUCSXDIR
 10
1.0
 20
0.0
 30
0.0
  9
$PUCSYDIR
 10
0.0
 20
1.0
 30
0.0
  9
$PUCSORTHOREF
  2

  9
$PUCSORTHOVIEW
 70
     0
  9
$PUCSORGTOP
 10
0.0
 20
0.0
 30
0.0
  9
$PUCSORGBOTTOM
 10
0.0
 20
0.0
 30
0.0
  9
$PUCSORGLEFT
 10
0.0
 20
0.0
 30
0.0
  9
$PUCSORGRIGHT
 10
0.0
 20
0.0
 30
0.0
  9
$PUCSORGFRONT
 10
0.0
 20
0.0
 30
0.0
  9
$PUCSORGBACK
 10
0.0
 20
0.0
 30
0.0
  9
$USERI1
 70
     0
  9
$USERI2
 70
     0
  9
$USERI3
 70
     0
  9
$USERI4
 70
     0
  9
$USERI5
 70
     0
  9
$USERR1
 40
0.0
  9
$USERR2
 40
0.0
  9
$USERR3
 40
0.0
  9
$USERR4
 40
0.0
  9
$USERR5
 40
0.0
  9
$WORLDVIEW
 70
     1
  9
$SHADEDGE
 70
     3
  9
$SHADEDIF
 70
    70
  9
$TILEMODE
 70
     1
  9
$MAXACTVP
 70
    64
  9
$PINSBASE
 10
0.0
 20
0.0
 30
0.0
  9
$PLIMCHECK
 70
     0
  9
$PEXTMIN
 10
1.000000000000000E+20
 20
1.000000000000000E+20
 30
1.000000000000000E+20
  9
$PEXTMAX
 10
-1.000000000000000E+20
 20
-1.000000000000000E+20
 30
-1.000000000000000E+20
  9
$PLIMMIN
 10
0.0
 20
0.0
  9
$PLIMMAX
 10
12.0
 20
9.0
  9
$UNITMODE
 70
     0
  9
$VISRETAIN
 70
     1
  9
$PLINEGEN
 70
     0
  9
$PSLTSCALE
 70
     1
  9
$TREEDEPTH
 70
  3020
  9
$CMLSTYLE
  2
Standard
  9
$CMLJUST
 70
     0
  9
$CMLSCALE
 40
1.0
  9
$PROXYGRAPHICS
 70
     1
  9
$MEASUREMENT
 70
     0
  9
$CELWEIGHT
370
    -1
  9
$ENDCAPS
280
     0
  9
$JOINSTYLE
280
     0
  9
$LWDISPLAY
290
     1
  9
$INSUNITS
 70
     1
  9
$HYPERLINKBASE
  1

  9
$STYLESHEET
  1

  9
$XEDIT
290
     1
  9
$CEPSNTYPE
380
     0
  9
$PSTYLEMODE
290
     1
  9
$FINGERPRINTGUID
  2
{F6C2EB32-D5FF-4993-BD64-6314076BE740}
  9
$VERSIONGUID
  2
{FAEB1C32-E019-11D5-929B-00C0DF256EC4}
  9
$EXTNAMES
290
     1
  9
$PSVPSCALE
 40
0.0
  9
$OLESTARTUP
290
     0
  9
$SORTENTS
280
   127
  9
$INDEXCTL
280
     0
  9
$HIDETEXT
280
     1
  9
$XCLIPFRAME
280
     2
  9
$HALOGAP
280
     0
  9
$OBSCOLOR
 70
   257
  9
$OBSLTYPE
280
     0
  9
$INTERSECTIONDISPLAY
280
     0
  9
$INTERSECTIONCOLOR
 70
   257
  9
$DIMASSOC
280
     2
  9
$PROJECTNAME
  1

  9
$CAMERADISPLAY
290
     0
  9
$LENSLENGTH
 40
50.0
  9
$CAMERAHEIGHT
 40
0.0
  9
$STEPSPERSEC
 40
2.0
  9
$STEPSIZE
 40
6.0
  9
$3DDWFPREC
 40
2.0
  9
$PSOLWIDTH
 40
0.25
  9
$PSOLHEIGHT
 40
4.0
  9
$LOFTANG1
 40
1.570796326794897
  9
$LOFTANG2
 40
1.570796326794897
  9
$LOFTMAG1
 40
0.0
  9
$LOFTMAG2
 40
0.0
  9
$LOFTPARAM
 70
     7
  9
$LOFTNORMALS
280
     1
  9
$LATITUDE
 40
37.795
  9
$LONGITUDE
 40
-122.394
  9
$NORTHDIRECTION
 40
0.0
  9
$TIMEZONE
 70
 -8000
  9
$LIGHTGLYPHDISPLAY
280
     1
  9
$TILEMODELIGHTSYNCH
280
     1
  9
$CMATERIAL
347
3C
  9
$SOLIDHIST
280
     1
  9
$SHOWHIST
280
     1
  9
$DWFFRAME
280
     2
  9
$DGNFRAME
280
     2
  9
$REALWORLDSCALE
290
     1
  9
$INTERFERECOLOR
 62
   256
  9
$CSHADOW
280
     0
  9
$SHADOWPLANELOCATION
 40
0.0
  0
ENDSEC
  0
SECTION
  2
CLASSES
  0
CLASS
  1
ACDBDICTIONARYWDFLT
  2
AcDbDictionaryWithDefault
  3
ObjectDBX Classes
 90
        0
 91
        4
280
     0
281
     0
  0
CLASS
  1
VISUALSTYLE
  2
AcDbVisualStyle
  3
ObjectDBX Classes
 90
     4095
 91
        4
280
     0
281
     0
  0
CLASS
  1
MATERIAL
  2
AcDbMaterial
  3
ObjectDBX Classes
 90
     1153
 91
        4
280
     0
281
     0
  0
CLASS
  1
SUN
  2
AcDbSun
  3
SCENEOE
 90
     1024
 91
        4
280
     0
281
     0
  0
ENDSEC
  0
SECTION
  2
TABLES
  0
TABLE
  2
VPORT
  5
8
330
0
100
AcDbSymbolTable
 70
     1
  0
VPORT
  5
29
330
8
100
AcDbSymbolTableRecord
100
AcDbViewportTableRecord
  2
*Active
 70
     0
 10
0.0
 20
0.0
 11
1.0
 21
1.0
 12
0.0
 22
0.0
 13
0.0
 23
0.0
 14
0.5
 24
0.5
 15
0.5
 25
0.5
 16
0.0
 26
0.0
 36
1.0
 17
18.24381388888888
 27
-7.225896416262332
 37
0.0
 40
8.82866783252464
 41
1.359208459037527
 42
50.0
 43
0.0
 44
0.0
 50
0.0
 51
0.0
 71
     0
 72
   100
 73
     1
 74
     3
 75
     0
 76
     0
 77
     0
 78
     0
281
     0
 65
     1
110
0.0
120
0.0
130
0.0
111
1.0
121
0.0
131
0.0
112
0.0
122
1.0
132
0.0
 79
     0
146
0.0
 60
     3
 61
     5
292
     1
282
     1
141
0.0
142
0.0
 63
   250
361
3F
  0
ENDTAB
  0
TABLE
  2
LTYPE
  5
5
330
0
100
AcDbSymbolTable
 70
     1
  0
LTYPE
  5
14
330
5
100
AcDbSymbolTableRecord
100
AcDbLinetypeTableRecord
  2
ByBlock
 70
     0
  3

 72
    65
 73
     0
 40
0.0
  0
LTYPE
  5
15
330
5
100
AcDbSymbolTableRecord
100
AcDbLinetypeTableRecord
  2
ByLayer
 70
     0
  3

 72
    65
 73
     0
 40
0.0
  0
LTYPE
  5
16
330
5
100
AcDbSymbolTableRecord
100
AcDbLinetypeTableRecord
  2
Continuous
 70
     0
  3
Solid line
 72
    65
 73
     0
 40
0.0
  0
ENDTAB
  0
TABLE
  2
LAYER
  5
2
330
0
100
AcDbSymbolTable
 70
     2
  0
LAYER
  5
10
330
2
100
AcDbSymbolTableRecord
100
AcDbLayerTableRecord
  2
0
 70
     0
 62
     7
  6
Continuous
370
    -3
390
F
347
3E
  0
LAYER
  5
40
330
2
100
AcDbSymbolTableRecord
100
AcDbLayerTableRecord
  2
Layer 1
 70
     0
 62
     7
  6
Continuous
370
    -3
390
F
347
3E
  0
ENDTAB
  0
TABLE
  2
STYLE
  5
3
330
0
100
AcDbSymbolTable
 70
     1
  0
STYLE
  5
11
330
3
100
AcDbSymbolTableRecord
100
AcDbTextStyleTableRecord
  2
Standard
 70
     0
 40
0.0
 41
1.0
 50
0.0
 71
     0
 42
0.2
  3
txt
  4

  0
ENDTAB
  0
TABLE
  2
VIEW
  5
6
330
0
100
AcDbSymbolTable
 70
     0
  0
ENDTAB
  0
TABLE
  2
UCS
  5
7
330
0
100
AcDbSymbolTable
 70
     0
  0
ENDTAB
  0
TABLE
  2
APPID
  5
9
330
0
100
AcDbSymbolTable
 70
     1
  0
APPID
  5
12
330
9
100
AcDbSymbolTableRecord
100
AcDbRegAppTableRecord
  2
ACAD
 70
     0
  0
ENDTAB
  0
TABLE
  2
DIMSTYLE
  5
A
330
0
100
AcDbSymbolTable
 70
     1
100
AcDbDimStyleTable
  0
DIMSTYLE
105
27
330
A
100
AcDbSymbolTableRecord
100
AcDbDimStyleTableRecord
  2
Standard
 70
     0
178
     0
340
11
  0
ENDTAB
  0
TABLE
  2
BLOCK_RECORD
  5
1
330
0
100
AcDbSymbolTable
 70
     1
  0
BLOCK_RECORD
  5
1F
330
1
100
AcDbSymbolTableRecord
100
AcDbBlockTableRecord
  2
*Model_Space
340
22
 70
     0
280
     1
281
     0
  0
BLOCK_RECORD
  5
1B
330
1
100
AcDbSymbolTableRecord
100
AcDbBlockTableRecord
  2
*Paper_Space
340
1E
 70
     0
280
     1
281
     0
  0
BLOCK_RECORD
  5
23
330
1
100
AcDbSymbolTableRecord
100
AcDbBlockTableRecord
  2
*Paper_Space0
340
26
 70
     0
280
     1
281
     0
  0
ENDTAB
  0
ENDSEC
  0
SECTION
  2
BLOCKS
  0
BLOCK
  5
20
330
1F
100
AcDbEntity
  8
0
100
AcDbBlockBegin
  2
*Model_Space
 70
     0
 10
0.0
 20
0.0
 30
0.0
  3
*Model_Space
  1

  0
ENDBLK
  5
21
330
1F
100
AcDbEntity
  8
0
100
AcDbBlockEnd
  0
BLOCK
  5
1C
330
1B
100
AcDbEntity
 67
     1
  8
0
100
AcDbBlockBegin
  2
*Paper_Space
 70
     0
 10
0.0
 20
0.0
 30
0.0
  3
*Paper_Space
  1

  0
ENDBLK
  5
1D
330
1B
100
AcDbEntity
 67
     1
  8
0
100
AcDbBlockEnd
  0
BLOCK
  5
24
330
23
100
AcDbEntity
  8
0
100
AcDbBlockBegin
  2
*Paper_Space0
 70
     0
 10
0.0
 20
0.0
 30
0.0
  3
*Paper_Space0
  1

  0
ENDBLK
  5
25
330
23
100
AcDbEntity
  8
0
100
AcDbBlockEnd
  0
ENDSEC
  0
SECTION
  2
ENTITIES
  0
SPLINE
  5
41
330
1F
100
AcDbEntity
  8
Layer 1
370
     0
100
AcDbSpline
210
0.0
220
0.0
230
1.0
 70
    11
 71
     3
 72
   278
 73
   274
 74
     0
 42
0.0000000001
 43
0.0000000001
 12
1.0
 22
0.0
 32
0.0
 13
1.0
 23
0.0
 33
0.0
 40
0.0
 40
0.0
 40
0.0
 40
0.0
 40
1.0
 40
1.0
 40
1.0
 40
2.0
 40
2.0
 40
2.0
 40
3.0
 40
3.0
 40
3.0
 40
4.0
 40
4.0
 40
4.0
 40
5.0
 40
5.0
 40
5.0
 40
6.0
 40
6.0
 40
6.0
 40
7.0
 40
7.0
 40
7.0
 40
8.0
 40
8.0
 40
8.0
 40
9.0
 40
9.0
 40
9.0
 40
10.0
 40
10.0
 40
10.0
 40
11.0
 40
11.0
 40
11.0
 40
12.0
 40
12.0
 40
12.0
 40
13.0
 40
13.0
 40
13.0
 40
14.0
 40
14.0
 40
14.0
 40
15.0
 40
15.0
 40
15.0
 40
16.0
 40
16.0
 40
16.0
 40
17.0
 40
17.0
 40
17.0
 40
18.0
 40
18.0
 40
18.0
 40
19.0
 40
19.0
 40
19.0
 40
20.0
 40
20.0
 40
20.0
 40
21.0
 40
21.0
 40
21.0
 40
22.0
 40
22.0
 40
22.0
 40
23.0
 40
23.0
 40
23.0
 40
24.0
 40
24.0
 40
24.0
 40
25.0
 40
25.0
 40
25.0
 40
26.0
 40
26.0
 40
26.0
 40
27.0
 40
27.0
 40
27.0
 40
28.0
 40
28.0
 40
28.0
 40
29.0
 40
29.0
 40
29.0
 40
30.0
 40
30.0
 40
30.0
 40
31.0
 40
31.0
 40
31.0
 40
32.0
 40
32.0
 40
32.0
 40
33.0
 40
33.0
 40
33.0
 40
34.0
 40
34.0
 40
34.0
 40
35.0
 40
35.0
 40
35.0
 40
36.0
 40
36.0
 40
36.0
 40
37.0
 40
37.0
 40
37.0
 40
38.0
 40
38.0
 40
38.0
 40
39.0
 40
39.0
 40
39.0
 40
40.0
 40
40.0
 40
40.0
 40
41.0
 40
41.0
 40
41.0
 40
42.0
 40
42.0
 40
42.0
 40
43.0
 40
43.0
 40
43.0
 40
44.0
 40
44.0
 40
44.0
 40
45.0
 40
45.0
 40
45.0
 40
46.0
 40
46.0
 40
46.0
 40
47.0
 40
47.0
 40
47.0
 40
48.0
 40
48.0
 40
48.0
 40
49.0
 40
49.0
 40
49.0
 40
50.0
 40
50.0
 40
50.0
 40
51.0
 40
51.0
 40
51.0
 40
52.0
 40
52.0
 40
52.0
 40
53.0
 40
53.0
 40
53.0
 40
54.0
 40
54.0
 40
54.0
 40
55.0
 40
55.0
 40
55.0
 40
56.0
 40
56.0
 40
56.0
 40
57.0
 40
57.0
 40
57.0
 40
58.0
 40
58.0
 40
58.0
 40
59.0
 40
59.0
 40
59.0
 40
60.0
 40
60.0
 40
60.0
 40
61.0
 40
61.0
 40
61.0
 40
62.0
 40
62.0
 40
62.0
 40
63.0
 40
63.0
 40
63.0
 40
64.0
 40
64.0
 40
64.0
 40
65.0
 40
65.0
 40
65.0
 40
66.0
 40
66.0
 40
66.0
 40
67.0
 40
67.0
 40
67.0
 40
68.0
 40
68.0
 40
68.0
 40
69.0
 40
69.0
 40
69.0
 40
70.0
 40
70.0
 40
70.0
 40
71.0
 40
71.0
 40
71.0
 40
72.0
 40
72.0
 40
72.0
 40
73.0
 40
73.0
 40
73.0
 40
74.0
 40
74.0
 40
74.0
 40
75.0
 40
75.0
 40
75.0
 40
76.0
 40
76.0
 40
76.0
 40
77.0
 40
77.0
 40
77.0
 40
78.0
 40
78.0
 40
78.0
 40
79.0
 40
79.0
 40
79.0
 40
80.0
 40
80.0
 40
80.0
 40
81.0
 40
81.0
 40
81.0
 40
82.0
 40
82.0
 40
82.0
 40
83.0
 40
83.0
 40
83.0
 40
84.0
 40
84.0
 40
84.0
 40
85.0
 40
85.0
 40
85.0
 40
86.0
 40
86.0
 40
86.0
 40
87.0
 40
87.0
 40
87.0
 40
88.0
 40
88.0
 40
88.0
 40
89.0
 40
89.0
 40
89.0
 40
90.0
 40
90.0
 40
90.0
 40
91.0
 40
91.0
 40
91.0
 40
91.0
 10
12.85318578641232
 20
-10.52130694444445
 30
0.0
 10
13.33613299643427
 20
-10.31691666666666
 30
0.0
 10
13.92714305555556
 20
-10.2866486111111
 30
0.0
 10
14.59223472222223
 20
-10.38811250000001
 30
0.0
 10
14.79594722222221
 20
-10.41924166666667
 30
0.0
 10
15.00061666666666
 20
-10.46549861111112
 30
0.0
 10
15.19858888888888
 20
-10.51021666666667
 30
0.0
 10
15.39382638888888
 20
-10.55432083333332
 30
0.0
 10
15.59574027777777
 20
-10.59993194444445
 30
0.0
 10
15.79734166666666
 20
-10.63124444444444
 30
0.0
 10
16.29089444444445
 20
-10.7078986111111
 30
0.0
 10
16.80639305555556
 20
-10.69257638888889
 30
0.0
 10
17.32940555555556
 20
-10.58569722222223
 30
0.0
 10
17.50489583333333
 20
-10.54985138888888
 30
0.0
 10
17.6813875
 20
-10.50566111111112
 30
0.0
 10
17.85200972222222
 20
-10.46291388888888
 30
0.0
 10
18.09883472222223
 20
-10.4010763888889
 30
0.0
 10
18.3540375
 20
-10.33713888888888
 30
0.0
 10
18.60947638888888
 20
-10.29778333333333
 30
0.0
 10
19.37546111111111
 20
-10.17978055555555
 30
0.0
 10
20.07221944444445
 20
-10.35775833333332
 30
0.0
 10
20.80989583333333
 20
-10.54625555555556
 30
0.0
 10
21.09199444444446
 20
-10.61834444444445
 30
0.0
 10
21.38376388888888
 20
-10.6928875
 30
0.0
 10
21.67713749999999
 20
-10.74835138888888
 30
0.0
 10
21.93353472222222
 20
-10.79685972222223
 30
0.0
 10
22.16648055555556
 20
-10.82065555555555
 30
0.0
 10
22.3859013888889
 20
-10.82065555555555
 30
0.0
 10
22.42035833333335
 20
-10.82065555555555
 30
0.0
 10
22.45453472222223
 20
-10.82006388888888
 30
0.0
 10
22.48834444444444
 20
-10.81889027777778
 30
0.0
 10
22.52541805555554
 20
-10.81742638888889
 30
0.0
 10
22.56305
 20
-10.80907083333333
 30
0.0
 10
22.59020555555556
 20
-10.7914763888889
 30
0.0
 10
22.61124583333334
 20
-10.77782222222221
 30
0.0
 10
22.62352083333333
 20
-10.75851666666666
 30
0.0
 10
22.62360694444444
 20
-10.73308333333332
 30
0.0
 10
22.6236611111111
 20
-10.71214027777778
 30
0.0
 10
22.61560694444445
 20
-10.69014305555556
 30
0.0
 10
22.60053194444446
 20
-10.67835138888889
 30
0.0
 10
22.57808194444445
 20
-10.66047777777776
 30
0.0
 10
22.54734027777777
 20
-10.65899166666665
 30
0.0
 10
22.5277111111111
 20
-10.65985277777779
 30
0.0
 10
22.3068361111111
 20
-10.66960833333332
 30
0.0
 10
22.07387916666665
 20
-10.66224305555556
 30
0.0
 10
21.81477916666666
 20
-10.62136944444445
 30
0.0
 10
21.60094583333332
 20
-10.43516666666667
 30
0.0
 10
21.32370277777778
 20
-10.29828888888889
 30
0.0
 10
21.06487083333334
 20
-10.18848055555557
 30
0.0
 10
21.17047916666666
 20
-10.18561666666667
 30
0.0
 10
21.27641111111112
 20
-10.17622777777779
 30
0.0
 10
21.3807375
 20
-10.16044305555556
 30
0.0
 10
21.7591111111111
 20
-10.10234027777778
 30
0.0
 10
22.0738361111111
 20
-9.949333333333344
 30
0.0
 10
22.41686944444445
 20
-9.770181944444452
 30
0.0
 10
22.908775
 20
-9.513149999999996
 30
0.0
 10
23.60067777777777
 20
-9.352508333333338
 30
0.0
 10
24.06729166666666
 20
-9.672315277777772
 30
0.0
 10
24.13275833333334
 20
-9.717334722222226
 30
0.0
 10
24.19089166666668
 20
-9.688069444444434
 30
0.0
 10
24.20559027777777
 20
-9.676612499999994
 30
0.0
 10
24.24839027777777
 20
-9.643276388888882
 30
0.0
 10
24.25422638888888
 20
-9.584602777777768
 30
0.0
 10
24.22820138888889
 20
-9.534179166666666
 30
0.0
 10
24.16111944444444
 20
-9.40348194444444
 30
0.0
 10
24.04772638888888
 20
-9.287945833333323
 30
0.0
 10
23.94765277777777
 20
-9.185955555555564
 30
0.0
 10
23.94765277777777
 20
-9.185955555555564
 30
0.0
 10
23.90215972222222
 20
-9.139676388888876
 30
0.0
 10
23.90215972222222
 20
-9.139676388888876
 30
0.0
 10
23.45094444444445
 20
-8.672955555555568
 30
0.0
 10
22.92082361111112
 20
-8.371033333333344
 30
0.0
 10
22.36912638888889
 20
-8.266544444444435
 30
0.0
 10
22.08885694444444
 20
-8.213395833333328
 30
0.0
 10
21.80726388888888
 20
-8.217961111111107
 30
0.0
 10
21.47971388888888
 20
-8.28157638888888
 30
0.0
 10
21.3978375
 20
-8.29734027777777
 30
0.0
 10
21.31379583333334
 20
-8.31351249999999
 30
0.0
 10
21.22945416666668
 20
-8.328770833333339
 30
0.0
 10
21.37542916666666
 20
-8.1951875
 30
0.0
 10
21.49954722222222
 20
-8.038993055555567
 30
0.0
 10
21.62000416666665
 20
-7.887429166666656
 30
0.0
 10
21.64570694444445
 20
-7.855083333333343
 30
0.0
 10
21.67136527777777
 20
-7.822780555555558
 30
0.0
 10
21.69725138888889
 20
-7.790704166666678
 30
0.0
 10
21.87329027777777
 20
-7.572380555555557
 30
0.0
 10
22.0429013888889
 20
-7.44381666666666
 30
0.0
 10
22.26737222222222
 20
-7.359720833333338
 30
0.0
 10
22.28051944444445
 20
-7.354854166666655
 30
0.0
 10
22.3079125
 20
-7.344776388888881
 30
0.0
 10
22.32963055555557
 20
-7.312106944444444
 30
0.0
 10
22.32963055555557
 20
-7.312106944444444
 30
0.0
 10
22.33238749999999
 20
-7.30759583333333
 30
0.0
 10
22.33238749999999
 20
-7.30759583333333
 30
0.0
 10
22.34333750000001
 20
-7.287804166666673
 30
0.0
 10
22.3643236111111
 20
-7.235452777777785
 30
0.0
 10
22.32257777777777
 20
-7.17701666666667
 30
0.0
 10
22.19057777777779
 20
-6.991136111111106
 30
0.0
 10
21.90724027777777
 20
-6.949465277777777
 30
0.0
 10
21.79154305555554
 20
-6.940162500000004
 30
0.0
 10
21.41478472222222
 20
-6.909593055555559
 30
0.0
 10
21.02583888888888
 20
-7.076243055555551
 30
0.0
 10
20.65750138888888
 20
-7.27595972222222
 30
0.0
 10
20.72155833333333
 20
-7.191079166666668
 30
0.0
 10
20.78025277777778
 20
-7.102419444444447
 30
0.0
 10
20.83266805555556
 20
-7.011336111111113
 30
0.0
 10
21.02326527777778
 20
-6.679297222222228
 30
0.0
 10
21.09983333333333
 20
-6.337793055555557
 30
0.0
 10
21.17360277777778
 20
-5.957837499999995
 30
0.0
 10
21.27929722222221
 20
-5.413083333333335
 30
0.0
 10
21.59605694444445
 20
-4.786399999999995
 30
0.0
 10
22.12615555555557
 20
-4.606463888888887
 30
0.0
 10
22.20137777777778
 20
-4.580922222222221
 30
0.0
 10
22.21993055555554
 20
-4.519612499999994
 30
0.0
 10
22.22015694444445
 20
-4.501027777777773
 30
0.0
 10
22.2209
 20
-4.447652777777774
 30
0.0
 10
22.17330694444445
 20
-4.405486111111107
 30
0.0
 10
22.11831666666666
 20
-4.394481944444439
 30
0.0
 10
21.92097916666666
 20
-4.354986111111113
 30
0.0
 10
21.71924861111112
 20
-4.38373611111111
 30
0.0
 10
21.52424861111111
 20
-4.411591666666671
 30
0.0
 10
21.52424861111111
 20
-4.411591666666671
 30
0.0
 10
21.48351527777777
 20
-4.417363888888884
 30
0.0
 10
21.48351527777777
 20
-4.417363888888884
 30
0.0
 10
21.27486111111112
 20
-4.446801388888894
 30
0.0
 10
21.092275
 20
-4.486394444444449
 30
0.0
 10
20.92531249999999
 20
-4.538369444444444
 30
0.0
 10
20.5577513888889
 20
-4.652829166666669
 30
0.0
 10
20.23570416666666
 20
-4.827554166666661
 30
0.0
 10
19.96811805555555
 20
-5.057700000000005
 30
0.0
 10
19.75263749999999
 20
-5.243052777777772
 30
0.0
 10
19.58063611111111
 20
-5.466006944444441
 30
0.0
 10
19.42683194444445
 20
-5.759422222222219
 30
0.0
 10
19.38742361111111
 20
-5.834709722222227
 30
0.0
 10
19.34705555555555
 20
-5.911913888888888
 30
0.0
 10
19.30559027777779
 20
-5.98879444444444
 30
0.0
 10
19.29262499999999
 20
-5.826730555555551
 30
0.0
 10
19.25808333333334
 20
-5.667123611111113
 30
0.0
 10
19.22449861111111
 20
-5.512145833333332
 30
0.0
 10
19.15576944444446
 20
-5.194631944444445
 30
0.0
 10
19.09079861111111
 20
-4.894700000000006
 30
0.0
 10
19.19540555555555
 20
-4.572847222222221
 30
0.0
 10
19.19965833333334
 20
-4.560572222222226
 30
0.0
 10
19.20960694444446
 20
-4.531865277777771
 30
0.0
 10
19.1974611111111
 20
-4.493909722222219
 30
0.0
 10
19.1974611111111
 20
-4.493909722222219
 30
0.0
 10
19.19553472222222
 20
-4.488472222222223
 30
0.0
 10
19.19553472222222
 20
-4.488472222222223
 30
0.0
 10
19.17730416666667
 20
-4.444583333333336
 30
0.0
 10
19.13789583333333
 20
-4.417729166666668
 30
0.0
 10
19.08736388888888
 20
-4.414779166666664
 30
0.0
 10
18.86000555555554
 20
-4.401609722222221
 30
0.0
 10
18.65061944444445
 20
-4.597666666666669
 30
0.0
 10
18.57117638888889
 20
-4.682223611111112
 30
0.0
 10
18.31165694444444
 20
-4.958638888888887
 30
0.0
 10
18.19991111111111
 20
-5.365868055555552
 30
0.0
 10
18.12650833333333
 20
-5.778147222222224
 30
0.0
 10
18.10021388888889
 20
-5.675629166666668
 30
0.0
 10
18.06749166666667
 20
-5.574576388888886
 30
0.0
 10
18.02878194444444
 20
-5.476451388888891
 30
0.0
 10
17.88774722222222
 20
-5.119763888888883
 30
0.0
 10
17.66860555555556
 20
-4.847237500000006
 30
0.0
 10
17.41769999999999
 20
-4.553034722222226
 30
0.0
 10
17.05770833333333
 20
-4.130848611111105
 30
0.0
 10
16.74710694444444
 20
-3.4921375
 30
0.0
 10
16.95502777777777
 20
-2.965711111111116
 30
0.0
 10
16.98454166666666
 20
-2.891275000000001
 30
0.0
 10
16.93940416666667
 20
-2.847472222222223
 30
0.0
 10
16.92515972222222
 20
-2.836026388888892
 30
0.0
 10
16.88405972222222
 20
-2.802098611111117
 30
0.0
 10
16.82751805555555
 20
-2.803605555555552
 30
0.0
 10
16.7845888888889
 20
-2.839644444444439
 30
0.0
 10
16.49405833333334
 20
-3.08353055555555
 30
0.0
 10
16.32452222222222
 20
-3.449206944444439
 30
0.0
 10
16.17580000000001
 20
-3.802836111111118
 30
0.0
 10
15.89938611111111
 20
-4.459905555555552
 30
0.0
 10
15.89855694444445
 20
-5.16734583333333
 30
0.0
 10
16.17350694444445
 20
-5.794848611111117
 30
0.0
 10
16.20580972222222
 20
-5.868131944444447
 30
0.0
 10
16.24141805555555
 20
-5.948888888888884
 30
0.0
 10
16.2763263888889
 20
-6.030583333333336
 30
0.0
 10
16.11023611111111
 20
-5.915962500000003
 30
0.0
 10
15.92929861111111
 20
-5.831318055555559
 30
0.0
 10
15.75372222222222
 20
-5.749161111111107
 30
0.0
 10
15.46323472222222
 20
-5.613241666666668
 30
0.0
 10
15.26199999999999
 20
-5.454484722222219
 30
0.0
 10
15.10210138888889
 20
-5.235677777777773
 30
0.0
 10
15.09517777777778
 20
-5.224726388888889
 30
0.0
 10
15.07900416666666
 20
-5.19906805555556
 30
0.0
 10
15.0423513888889
 20
-5.184865277777779
 30
0.0
 10
15.0423513888889
 20
-5.184865277777779
 30
0.0
 10
15.03639722222222
 20
-5.183034722222222
 30
0.0
 10
15.03639722222222
 20
-5.183034722222222
 30
0.0
 10
15.01476527777778
 20
-5.17661666666667
 30
0.0
 10
14.95941944444444
 20
-5.167572222222222
 30
0.0
 10
14.91135416666667
 20
-5.221518055555558
 30
0.0
 10
14.7595625
 20
-5.39178611111111
 30
0.0
 10
14.78192777777778
 20
-5.677201388888887
 30
0.0
 10
14.79855277777779
 20
-5.792005555555559
 30
0.0
 10
14.85275694444445
 20
-6.167438888888884
 30
0.0
 10
15.10159444444444
 20
-6.508877777777772
 30
0.0
 10
15.37820277777777
 20
-6.823484722222221
 30
0.0
 10
15.02150555555555
 20
-6.665255555555555
 30
0.0
 10
14.60881666666667
 20
-6.590593055555561
 30
0.0
 10
14.15087222222222
 20
-6.601748611111108
 30
0.0
 10
13.75864131909414
 20
-6.611234722222219
 30
0.0
 10
13.40538993912913
 20
-6.607455555555551
 30
0.0
 10
13.04891772591216
 20
-6.466259722222225
 30
0.0
 10
12.85795523073628
 20
-6.390618055555554
 30
0.0
 10
12.59880107061639
 20
-6.245676388888884
 30
0.0
 10
12.44886218551528
 20
-5.984755555555554
 30
0.0
 10
12.40898024207834
 20
-5.915390277777773
 30
0.0
 10
12.346625
 20
-5.923337500000002
 30
0.0
 10
12.3286857996623
 20
-5.927322222222225
 30
0.0
 10
12.27665663431
 20
-5.938412500000001
 30
0.0
 10
12.24256635739342
 20
-5.983452777777782
 30
0.0
 10
12.24384830180548
 20
-6.039487500000001
 30
0.0
 10
12.25374413488882
 20
-6.423856944444449
 30
0.0
 10
12.44662329668295
 20
-6.813352777777784
 30
0.0
 10
12.63396773639468
 20
-7.143680555555559
 30
0.0
 10
12.82953995367633
 20
-7.488490277777777
 30
0.0
 10
13.07675244743122
 20
-7.772722222222228
 30
0.0
 10
13.36878021783175
 20
-7.988504166666669
 30
0.0
 10
13.68446354319025
 20
-8.221740277777775
 30
0.0
 10
14.05914305555556
 20
-8.337837500000003
 30
0.0
 10
14.4231625
 20
-8.423686111111111
 30
0.0
 10
14.31452777777777
 20
-8.467898611111119
 30
0.0
 10
14.20447361111111
 20
-8.520497222222223
 30
0.0
 10
14.09735694444445
 20
-8.571676388888893
 30
0.0
 10
13.79880381807955
 20
-8.714324999999992
 30
0.0
 10
13.49003299254643
 20
-8.862120833333341
 30
0.0
 10
13.17136633392996
 20
-8.85586527777779
 30
0.0
 10
13.1576496676098
 20
-8.85560555555556
 30
0.0
 10
13.14257466799063
 20
-8.853819444444449
 30
0.0
 10
13.12699411282867
 20
-8.852031944444434
 30
0.0
 10
13.08213578062855
 20
-8.846830555555545
 30
0.0
 10
13.03128022635772
 20
-8.840994444444453
 30
0.0
 10
12.9907510607149
 20
-8.864823611111104
 30
0.0
 10
12.9907510607149
 20
-8.864823611111104
 30
0.0
 10
12.98557189417907
 20
-8.868344444444448
 30
0.0
 10
12.98557189417907
 20
-8.868344444444448
 30
0.0
 10
12.94668055555556
 20
-8.89593055555555
 30
0.0
 10
12.92928995115643
 20
-8.940325000000003
 30
0.0
 10
12.93786111111111
 20
-8.99010416666667
 30
0.0
 10
12.99166666666666
 20
-9.30657361111111
 30
0.0
 10
13.35372605154538
 20
-9.46902361111112
 30
0.0
 10
13.50689549212044
 20
-9.524165277777785
 30
0.0
 10
13.81456770657021
 20
-9.634995833333328
 30
0.0
 10
14.15499583333333
 20
-9.639443055555551
 30
0.0
 10
14.48075833333333
 20
-9.623613888888888
 30
0.0
 10
14.38614305555556
 20
-9.672337500000014
 30
0.0
 10
14.29487777777778
 20
-9.726745833333325
 30
0.0
 10
14.20837083333333
 20
-9.786011111111115
 30
0.0
 10
14.04878472222222
 20
-9.895355555555549
 30
0.0
 10
13.90473611111111
 20
-10.02531944444445
 30
0.0
 10
13.75577777777778
 20
-10.19453194444443
 30
0.0
 10
13.70941215367111
 20
-10.19599722222223
 30
0.0
 10
13.66286354373591
 20
-10.1983763888889
 30
0.0
 10
13.61635798935519
 20
-10.20162777777778
 30
0.0
 10
13.27737327569644
 20
-10.22529583333332
 30
0.0
 10
12.94647606183339
 20
-10.31052083333333
 30
0.0
 10
12.63289134753298
 20
-10.45497916666666
 30
0.0
 10
12.6084274592621
 20
-10.46618750000001
 30
0.0
 10
12.58888440420024
 20
-10.47809722222223
 30
0.0
 10
12.57307746015512
 20
-10.49148055555555
 30
0.0
 10
12.54514690530515
 20
-10.51535277777778
 30
0.0
 10
12.54008579432189
 20
-10.55168194444445
 30
0.0
 10
12.56015662714819
 20
-10.58400694444446
 30
0.0
 10
12.5777288489265
 20
-10.61243333333333
 30
0.0
 10
12.61960384786865
 20
-10.6147375
 30
0.0
 10
12.65376912478334
 20
-10.60233333333334
 30
0.0
 10
12.70766079008859
 20
-10.58279027777778
 30
0.0
 10
12.80039134330157
 20
-10.54364999999999
 30
0.0
 10
12.85318578641232
 20
-10.52130694444445
 30
0.0
  0
SPLINE
  5
42
330
1F
100
AcDbEntity
  8
Layer 1
370
     0
100
AcDbSpline
210
0.0
220
0.0
230
1.0
 70
    11
 71
     3
 72
    65
 73
    61
 74
     0
 42
0.0000000001
 43
0.0000000001
 12
1.0
 22
0.0
 32
0.0
 13
1.0
 23
0.0
 33
0.0
 40
0.0
 40
0.0
 40
0.0
 40
0.0
 40
1.0
 40
1.0
 40
1.0
 40
2.0
 40
2.0
 40
2.0
 40
3.0
 40
3.0
 40
3.0
 40
4.0
 40
4.0
 40
4.0
 40
5.0
 40
5.0
 40
5.0
 40
6.0
 40
6.0
 40
6.0
 40
7.0
 40
7.0
 40
7.0
 40
8.0
 40
8.0
 40
8.0
 40
9.0
 40
9.0
 40
9.0
 40
10.0
 40
10.0
 40
10.0
 40
11.0
 40
11.0
 40
11.0
 40
12.0
 40
12.0
 40
12.0
 40
13.0
 40
13.0
 40
13.0
 40
14.0
 40
14.0
 40
14.0
 40
15.0
 40
15.0
 40
15.0
 40
16.0
 40
16.0
 40
16.0
 40
17.0
 40
17.0
 40
17.0
 40
18.0
 40
18.0
 40
18.0
 40
19.0
 40
19.0
 40
19.0
 40
20.0
 40
20.0
 40
20.0
 40
20.0
 10
17.30402638888889
 20
-4.649888888888894
 30
0.0
 10
17.54594166666667
 20
-4.933604166666669
 30
0.0
 10
17.75698611111111
 20
-5.195751388888892
 30
0.0
 10
17.88976111111111
 20
-5.5314625
 30
0.0
 10
17.97998333333333
 20
-5.759401388888894
 30
0.0
 10
18.03469305555556
 20
-6.00189722222222
 30
0.0
 10
18.05247083333333
 20
-6.252319444444449
 30
0.0
 10
18.05755277777778
 20
-6.320951388888893
 30
0.0
 10
18.05974861111111
 20
-6.390736111111108
 30
0.0
 10
18.05901666666667
 20
-6.460144444444444
 30
0.0
 10
18.04875555555556
 20
-6.459347222222227
 30
0.0
 10
18.0385375
 20
-6.458583333333333
 30
0.0
 10
18.0283611111111
 20
-6.457926388888886
 30
0.0
 10
17.96559722222222
 20
-6.453393055555554
 30
0.0
 10
17.90127222222222
 20
-6.451099999999997
 30
0.0
 10
17.83711805555555
 20
-6.451099999999997
 30
0.0
 10
17.50695277777778
 20
-6.451099999999997
 30
0.0
 10
17.18379583333333
 20
-6.510343055555558
 30
0.0
 10
16.87654305555555
 20
-6.627245833333328
 30
0.0
 10
16.84295972222223
 20
-6.640254166666661
 30
0.0
 10
16.80969861111112
 20
-6.653702777777779
 30
0.0
 10
16.77702916666667
 20
-6.66788333333333
 30
0.0
 10
16.73835277777778
 20
-6.684195833333332
 30
0.0
 10
16.69849027777778
 20
-6.70233888888889
 30
0.0
 10
16.65817638888888
 20
-6.721968055555559
 30
0.0
 10
16.64255277777777
 20
-6.625458333333338
 30
0.0
 10
16.62087777777777
 20
-6.53072638888889
 30
0.0
 10
16.59371111111111
 20
-6.439965277777774
 30
0.0
 10
16.58142638888888
 20
-6.398790277777784
 30
0.0
 10
16.56758888888888
 20
-6.357238888888888
 30
0.0
 10
16.55256805555556
 20
-6.316462499999993
 30
0.0
 10
16.54143472222222
 20
-6.286398611111117
 30
0.0
 10
16.52993472222223
 20
-6.256324999999997
 30
0.0
 10
16.51819861111111
 20
-6.226262499999999
 30
0.0
 10
16.45300138888889
 20
-6.05823333333333
 30
0.0
 10
16.38051388888889
 20
-5.893651388888884
 30
0.0
 10
16.31041666666667
 20
-5.734475
 30
0.0
 10
16.31041666666667
 20
-5.734475
 30
0.0
 10
16.31041666666667
 20
-5.734495833333337
 30
0.0
 10
16.31041666666667
 20
-5.734495833333337
 30
0.0
 10
16.31041666666667
 20
-5.734495833333337
 30
0.0
 10
16.29891666666666
 20
-5.708427777777779
 30
0.0
 10
16.29891666666666
 20
-5.708427777777779
 30
0.0
 10
16.28164583333334
 20
-5.669212499999995
 30
0.0
 10
16.26441805555555
 20
-5.630061111111116
 30
0.0
 10
16.24727499999999
 20
-5.590587499999994
 30
0.0
 10
16.16458055555555
 20
-5.400873611111112
 30
0.0
 10
16.12150972222222
 20
-5.190593055555559
 30
0.0
 10
16.11179861111111
 20
-4.928790277777781
 30
0.0
 10
16.09227638888889
 20
-4.398466666666662
 30
0.0
 10
16.26029305555556
 20
-3.844570833333339
 30
0.0
 10
16.59765277777777
 20
-3.326920833333336
 30
0.0
 10
16.59765277777777
 20
-3.326920833333336
 30
0.0
 10
16.6337125
 20
-3.270972222222225
 30
0.0
 10
16.6337125
 20
-3.270972222222225
 30
0.0
 10
16.67375833333333
 20
-3.208476388888887
 30
0.0
 10
16.71750694444444
 20
-3.140231944444445
 30
0.0
 10
16.76520694444444
 20
-3.078426388888892
 30
0.0
 10
16.64631111111112
 20
-3.62876805555556
 30
0.0
 10
16.957225
 20
-4.243262500000002
 30
0.0
 10
17.30402638888889
 20
-4.649888888888894
 30
0.0
  0
SPLINE
  5
43
330
1F
100
AcDbEntity
  8
Layer 1
370
     0
100
AcDbSpline
210
0.0
220
0.0
230
1.0
 70
    11
 71
     3
 72
    53
 73
    49
 74
     0
 42
0.0000000001
 43
0.0000000001
 12
1.0
 22
0.0
 32
0.0
 13
1.0
 23
0.0
 33
0.0
 40
0.0
 40
0.0
 40
0.0
 40
0.0
 40
1.0
 40
1.0
 40
1.0
 40
2.0
 40
2.0
 40
2.0
 40
3.0
 40
3.0
 40
3.0
 40
4.0
 40
4.0
 40
4.0
 40
5.0
 40
5.0
 40
5.0
 40
6.0
 40
6.0
 40
6.0
 40
7.0
 40
7.0
 40
7.0
 40
8.0
 40
8.0
 40
8.0
 40
9.0
 40
9.0
 40
9.0
 40
10.0
 40
10.0
 40
10.0
 40
11.0
 40
11.0
 40
11.0
 40
12.0
 40
12.0
 40
12.0
 40
13.0
 40
13.0
 40
13.0
 40
14.0
 40
14.0
 40
14.0
 40
15.0
 40
15.0
 40
15.0
 40
16.0
 40
16.0
 40
16.0
 40
16.0
 10
15.97492083333333
 20
-7.184823611111116
 30
0.0
 10
15.95056388888889
 20
-7.186341666666673
 30
0.0
 10
15.92909444444444
 20
-7.15857222222222
 30
0.0
 10
15.9119736111111
 20
-7.144897222222223
 30
0.0
 10
15.88055416666667
 20
-7.119808333333329
 30
0.0
 10
15.84791666666667
 20
-7.096250000000004
 30
0.0
 10
15.81589444444444
 20
-7.071936111111111
 30
0.0
 10
15.73820694444445
 20
-7.012919444444441
 30
0.0
 10
15.67390277777777
 20
-6.927801388888888
 30
0.0
 10
15.60736944444444
 20
-6.856444444444441
 30
0.0
 10
15.53497916666667
 20
-6.778811111111117
 30
0.0
 10
15.46335277777777
 20
-6.700422222222224
 30
0.0
 10
15.39478472222222
 20
-6.619375000000003
 30
0.0
 10
15.25862916666666
 20
-6.458420833333333
 30
0.0
 10
15.13276666666666
 20
-6.285709722222223
 30
0.0
 10
15.04542083333333
 20
-6.09292638888889
 30
0.0
 10
15.02126944444444
 20
-6.039616666666663
 30
0.0
 10
15.00015416666666
 20
-5.984918055555554
 30
0.0
 10
14.98278611111111
 20
-5.929023611111107
 30
0.0
 10
14.92928194444444
 20
-5.756795833333336
 30
0.0
 10
14.89457777777778
 20
-5.512005555555561
 30
0.0
 10
14.99991666666666
 20
-5.351256944444445
 30
0.0
 10
14.9829361111111
 20
-5.377830555555558
 30
0.0
 10
15.12080416666667
 20
-5.497318055555549
 30
0.0
 10
15.13824722222222
 20
-5.513987499999997
 30
0.0
 10
15.36333333333333
 20
-5.729230555555558
 30
0.0
 10
15.64321527777777
 20
-5.849343055555551
 30
0.0
 10
15.91560138888889
 20
-5.991259722222227
 30
0.0
 10
16.08403888888889
 20
-6.079004166666664
 30
0.0
 10
16.24638194444444
 20
-6.184677777777779
 30
0.0
 10
16.39
 20
-6.309193055555561
 30
0.0
 10
16.40752916666666
 20
-6.324397222222223
 30
0.0
 10
16.41722083333333
 20
-6.381066666666672
 30
0.0
 10
16.42453194444445
 20
-6.402225000000006
 30
0.0
 10
16.45134305555555
 20
-6.47979583333333
 30
0.0
 10
16.47326527777778
 20
-6.558980555555561
 30
0.0
 10
16.49349722222222
 20
-6.638498611111117
 30
0.0
 10
16.49813888888889
 20
-6.656716666666663
 30
0.0
 10
16.54022916666666
 20
-6.782934722222219
 30
0.0
 10
16.51805833333333
 20
-6.795370833333335
 30
0.0
 10
16.39371527777778
 20
-6.865123611111104
 30
0.0
 10
16.27494861111111
 20
-6.944781944444444
 30
0.0
 10
16.1631375
 20
-7.033226388888894
 30
0.0
 10
16.10687777777778
 20
-7.077729166666662
 30
0.0
 10
16.05481666666666
 20
-7.126538888888894
 30
0.0
 10
16.00019166666666
 20
-7.172850000000001
 30
0.0
 10
15.99084583333333
 20
-7.180775000000001
 30
0.0
 10
15.98259722222222
 20
-7.184338888888886
 30
0.0
 10
15.97492083333333
 20
-7.184823611111116
 30
0.0
  0
SPLINE
  5
44
330
1F
100
AcDbEntity
  8
Layer 1
370
     0
100
AcDbSpline
210
0.0
220
0.0
230
1.0
 70
    11
 71
     3
 72
    47
 73
    43
 74
     0
 42
0.0000000001
 43
0.0000000001
 12
1.0
 22
0.0
 32
0.0
 13
1.0
 23
0.0
 33
0.0
 40
0.0
 40
0.0
 40
0.0
 40
0.0
 40
1.0
 40
1.0
 40
1.0
 40
2.0
 40
2.0
 40
2.0
 40
3.0
 40
3.0
 40
3.0
 40
4.0
 40
4.0
 40
4.0
 40
5.0
 40
5.0
 40
5.0
 40
6.0
 40
6.0
 40
6.0
 40
7.0
 40
7.0
 40
7.0
 40
8.0
 40
8.0
 40
8.0
 40
9.0
 40
9.0
 40
9.0
 40
10.0
 40
10.0
 40
10.0
 40
11.0
 40
11.0
 40
11.0
 40
12.0
 40
12.0
 40
12.0
 40
13.0
 40
13.0
 40
13.0
 40
14.0
 40
14.0
 40
14.0
 40
14.0
 10
15.84875694444444
 20
-7.324844444444452
 30
0.0
 10
15.58360555555555
 20
-7.612726388888884
 30
0.0
 10
15.38076527777778
 20
-7.960304166666674
 30
0.0
 10
15.26213888888888
 20
-8.330008333333328
 30
0.0
 10
15.25118888888889
 20
-8.36418472222221
 30
0.0
 10
15.24084166666666
 20
-8.398555555555554
 30
0.0
 10
15.23135555555556
 20
-8.433216666666668
 30
0.0
 10
15.21980138888889
 20
-8.4745638888889
 30
0.0
 10
15.2091736111111
 20
-8.516804166666663
 30
0.0
 10
15.19968750000001
 20
-8.559163888888886
 30
0.0
 10
15.11447361111112
 20
-8.511173611111113
 30
0.0
 10
15.02733055555556
 20
-8.469244444444433
 30
0.0
 10
14.94036111111111
 20
-8.434422222222212
 30
0.0
 10
14.68106805555556
 20
-8.330601388888883
 30
0.0
 10
14.40981111111111
 20
-8.260783333333341
 30
0.0
 10
14.13915694444444
 20
-8.193820833333323
 30
0.0
 10
13.88712048251515
 20
-8.131454166666673
 30
0.0
 10
13.66669687697241
 20
-8.022519444444445
 30
0.0
 10
13.45756944444444
 20
-7.868090277777784
 30
0.0
 10
13.03089272636751
 20
-7.553020833333322
 30
0.0
 10
12.70260106799419
 20
-7.076329166666672
 30
0.0
 10
12.50824551734847
 20
-6.489561111111116
 30
0.0
 10
12.50146218418649
 20
-6.468984722222217
 30
0.0
 10
12.49445246214135
 20
-6.447976388888883
 30
0.0
 10
12.4872385734347
 20
-6.426765277777778
 30
0.0
 10
12.46324829626297
 20
-6.35650694444444
 30
0.0
 10
12.43706218581337
 20
-6.279733333333334
 30
0.0
 10
12.41836913073004
 20
-6.2033375
 30
0.0
 10
12.77421634396281
 20
-6.639133333333334
 30
0.0
 10
13.44966666666667
 20
-6.779295833333334
 30
0.0
 10
13.9830375
 20
-6.762390277777778
 30
0.0
 10
14.35581111111111
 20
-6.750061111111108
 30
0.0
 10
14.69262083333333
 20
-6.748618055555552
 30
0.0
 10
15.03745277777778
 20
-6.854086111111112
 30
0.0
 10
15.27166944444444
 20
-6.925863888888885
 30
0.0
 10
15.49526805555556
 20
-7.034195833333329
 30
0.0
 10
15.70199444444444
 20
-7.176144444444439
 30
0.0
 10
15.75945138888889
 20
-7.215316666666669
 30
0.0
 10
15.81590555555556
 20
-7.257569444444445
 30
0.0
 10
15.87019583333333
 20
-7.301943055555562
 30
0.0
 10
15.86300277777778
 20
-7.309522222222212
 30
0.0
 10
15.85589583333333
 20
-7.317145833333345
 30
0.0
 10
15.84875694444444
 20
-7.324844444444452
 30
0.0
  0
SPLINE
  5
45
330
1F
100
AcDbEntity
  8
Layer 1
370
     0
100
AcDbSpline
210
0.0
220
0.0
230
1.0
 70
    11
 71
     3
 72
    44
 73
    40
 74
     0
 42
0.0000000001
 43
0.0000000001
 12
1.0
 22
0.0
 32
0.0
 13
1.0
 23
0.0
 33
0.0
 40
0.0
 40
0.0
 40
0.0
 40
0.0
 40
1.0
 40
1.0
 40
1.0
 40
2.0
 40
2.0
 40
2.0
 40
3.0
 40
3.0
 40
3.0
 40
4.0
 40
4.0
 40
4.0
 40
5.0
 40
5.0
 40
5.0
 40
6.0
 40
6.0
 40
6.0
 40
7.0
 40
7.0
 40
7.0
 40
8.0
 40
8.0
 40
8.0
 40
9.0
 40
9.0
 40
9.0
 40
10.0
 40
10.0
 40
10.0
 40
11.0
 40
11.0
 40
11.0
 40
12.0
 40
12.0
 40
12.0
 40
13.0
 40
13.0
 40
13.0
 40
13.0
 10
14.68618194444444
 20
-8.507856944444432
 30
0.0
 10
14.70592916666667
 20
-8.514048611111118
 30
0.0
 10
14.75067916666666
 20
-8.524384722222218
 30
0.0
 10
14.77028749999999
 20
-8.530920833333337
 30
0.0
 10
14.90645416666666
 20
-8.576004166666658
 30
0.0
 10
15.03722638888889
 20
-8.636023611111113
 30
0.0
 10
15.16949583333333
 20
-8.714216666666667
 30
0.0
 10
15.14558055555555
 20
-8.858749999999999
 30
0.0
 10
15.13348888888889
 20
-9.006858333333335
 30
0.0
 10
15.13348888888889
 20
-9.154751388888876
 30
0.0
 10
15.13348888888889
 20
-9.233741666666674
 30
0.0
 10
15.13688055555556
 20
-9.312302777777782
 30
0.0
 10
15.14352361111111
 20
-9.388569444444455
 30
0.0
 10
15.07135972222222
 20
-9.403869444444455
 30
0.0
 10
14.99964722222222
 20
-9.422195833333337
 30
0.0
 10
14.93005694444444
 20
-9.443084722222212
 30
0.0
 10
14.92034444444444
 20
-9.443687499999998
 30
0.0
 10
14.91062083333333
 20
-9.44444166666666
 30
0.0
 10
14.90090833333334
 20
-9.445195833333324
 30
0.0
 10
14.47691388888889
 20
-9.478198611111111
 30
0.0
 10
14.02073472222222
 20
-9.531175
 30
0.0
 10
13.60762604513133
 20
-9.400466666666665
 30
0.0
 10
13.53168299149426
 20
-9.376433333333326
 30
0.0
 10
13.45783854891528
 20
-9.345272222222219
 30
0.0
 10
13.38902327287592
 20
-9.304969444444446
 30
0.0
 10
13.31374688588868
 20
-9.260983333333343
 30
0.0
 10
13.14213300133512
 20
-9.147331944444456
 30
0.0
 10
13.09438994698566
 20
-9.001862499999989
 30
0.0
 10
13.33773716306041
 20
-9.018240277777775
 30
0.0
 10
13.55589826866031
 20
-8.979454166666654
 30
0.0
 10
13.75988020795173
 20
-8.883073611111108
 30
0.0
 10
13.82134131751021
 20
-8.854098611111112
 30
0.0
 10
13.88255381596385
 20
-8.823884722222221
 30
0.0
 10
13.94285277777778
 20
-8.794080555555562
 30
0.0
 10
14.13835972222222
 20
-8.697129166666677
 30
0.0
 10
14.32663055555555
 20
-8.624577777777782
 30
0.0
 10
14.52393611111111
 20
-8.551487499999995
 30
0.0
 10
14.58312500000001
 20
-8.52956388888889
 30
0.0
 10
14.62483888888889
 20
-8.519291666666655
 30
0.0
 10
14.68618194444444
 20
-8.507856944444432
 30
0.0
  0
SPLINE
  5
46
330
1F
100
AcDbEntity
  8
Layer 1
370
     0
100
AcDbSpline
210
0.0
220
0.0
230
1.0
 70
    11
 71
     3
 72
    26
 73
    22
 74
     0
 42
0.0000000001
 43
0.0000000001
 12
1.0
 22
0.0
 32
0.0
 13
1.0
 23
0.0
 33
0.0
 40
0.0
 40
0.0
 40
0.0
 40
0.0
 40
1.0
 40
1.0
 40
1.0
 40
2.0
 40
2.0
 40
2.0
 40
3.0
 40
3.0
 40
3.0
 40
4.0
 40
4.0
 40
4.0
 40
5.0
 40
5.0
 40
5.0
 40
6.0
 40
6.0
 40
6.0
 40
7.0
 40
7.0
 40
7.0
 40
7.0
 10
14.95955972222223
 20
-9.590277777777777
 30
0.0
 10
15.02420833333334
 20
-9.570347222222228
 30
0.0
 10
15.09174305555555
 20
-9.55277500000001
 30
0.0
 10
15.16055833333333
 20
-9.537936111111119
 30
0.0
 10
15.16203333333333
 20
-9.548015277777772
 30
0.0
 10
15.16354027777778
 20
-9.558093055555547
 30
0.0
 10
15.16514583333333
 20
-9.568150000000008
 30
0.0
 10
15.21059444444444
 20
-9.863816666666656
 30
0.0
 10
15.30443472222222
 20
-10.14756388888888
 30
0.0
 10
15.44431666666666
 20
-10.41235000000001
 30
0.0
 10
15.36390416666667
 20
-10.39576805555556
 30
0.0
 10
15.27643888888888
 20
-10.37669861111112
 30
0.0
 10
15.17343611111111
 20
-10.35335416666668
 30
0.0
 10
14.71530833333333
 20
-10.24910277777778
 30
0.0
 10
14.3286875
 20
-10.19762222222223
 30
0.0
 10
13.96113611111111
 20
-10.19237916666667
 30
0.0
 10
14.068575
 20
-10.08131111111111
 30
0.0
 10
14.17748888888889
 20
-9.988441666666656
 30
0.0
 10
14.29272361111111
 20
-9.909450000000005
 30
0.0
 10
14.49469166666667
 20
-9.771011111111116
 30
0.0
 10
14.7190125
 20
-9.663637499999998
 30
0.0
 10
14.95955972222223
 20
-9.590277777777777
 30
0.0
  0
SPLINE
  5
47
330
1F
100
AcDbEntity
  8
Layer 1
370
     0
100
AcDbSpline
210
0.0
220
0.0
230
1.0
 70
    11
 71
     3
 72
    38
 73
    34
 74
     0
 42
0.0000000001
 43
0.0000000001
 12
1.0
 22
0.0
 32
0.0
 13
1.0
 23
0.0
 33
0.0
 40
0.0
 40
0.0
 40
0.0
 40
0.0
 40
1.0
 40
1.0
 40
1.0
 40
2.0
 40
2.0
 40
2.0
 40
3.0
 40
3.0
 40
3.0
 40
4.0
 40
4.0
 40
4.0
 40
5.0
 40
5.0
 40
5.0
 40
6.0
 40
6.0
 40
6.0
 40
7.0
 40
7.0
 40
7.0
 40
8.0
 40
8.0
 40
8.0
 40
9.0
 40
9.0
 40
9.0
 40
10.0
 40
10.0
 40
10.0
 40
11.0
 40
11.0
 40
11.0
 40
11.0
 10
15.31183194444444
 20
-8.76504027777777
 30
0.0
 10
15.33415277777778
 20
-8.623048611111118
 30
0.0
 10
15.3684375
 20
-8.482972222222214
 30
0.0
 10
15.41384444444444
 20
-8.34709722222222
 30
0.0
 10
15.62350972222223
 20
-7.719820833333339
 30
0.0
 10
16.08035694444445
 20
-7.193222222222225
 30
0.0
 10
16.66441111111111
 20
-6.885915277777776
 30
0.0
 10
17.31025
 20
-6.546091666666661
 30
0.0
 10
18.10148472222221
 20
-6.51143055555556
 30
0.0
 10
18.77849583333333
 20
-6.780211111111107
 30
0.0
 10
19.49606805555555
 20
-7.065087500000004
 30
0.0
 10
20.06753611111111
 20
-7.689876388888883
 30
0.0
 10
20.28664444444444
 20
-8.430362500000001
 30
0.0
 10
20.45794583333334
 20
-9.009313888888881
 30
0.0
 10
20.4165875
 20
-9.643276388888882
 30
0.0
 10
20.17044166666667
 20
-10.19458611111112
 30
0.0
 10
20.16799722222221
 20
-10.20004583333333
 30
0.0
 10
20.16518611111112
 20
-10.20588194444445
 30
0.0
 10
20.1598888888889
 20
-10.2086486111111
 30
0.0
 10
20.15425694444444
 20
-10.21158888888888
 30
0.0
 10
20.14743055555555
 20
-10.21022083333332
 30
0.0
 10
20.14124027777777
 20
-10.20877777777777
 30
0.0
 10
19.65788333333333
 20
-10.09654722222222
 30
0.0
 10
19.15757916666666
 20
-10.08590972222222
 30
0.0
 10
18.66640555555556
 20
-10.14783333333334
 30
0.0
 10
18.07469444444444
 20
-10.22243194444445
 30
0.0
 10
17.51216388888889
 20
-10.43464999999999
 30
0.0
 10
16.91820277777778
 20
-10.50359444444444
 30
0.0
 10
16.48634861111111
 20
-10.55372777777777
 30
0.0
 10
16.06189027777778
 20
-10.52832777777778
 30
0.0
 10
15.63624861111111
 20
-10.44985277777778
 30
0.0
 10
15.33904166666667
 20
-9.946943055555568
 30
0.0
 10
15.22109305555556
 20
-9.342333333333322
 30
0.0
 10
15.31183194444444
 20
-8.76504027777777
 30
0.0
  0
SPLINE
  5
48
330
1F
100
AcDbEntity
  8
Layer 1
370
     0
100
AcDbSpline
210
0.0
220
0.0
230
1.0
 70
    11
 71
     3
 72
    38
 73
    34
 74
     0
 42
0.0000000001
 43
0.0000000001
 12
1.0
 22
0.0
 32
0.0
 13
1.0
 23
0.0
 33
0.0
 40
0.0
 40
0.0
 40
0.0
 40
0.0
 40
1.0
 40
1.0
 40
1.0
 40
2.0
 40
2.0
 40
2.0
 40
3.0
 40
3.0
 40
3.0
 40
4.0
 40
4.0
 40
4.0
 40
5.0
 40
5.0
 40
5.0
 40
6.0
 40
6.0
 40
6.0
 40
7.0
 40
7.0
 40
7.0
 40
8.0
 40
8.0
 40
8.0
 40
9.0
 40
9.0
 40
9.0
 40
10.0
 40
10.0
 40
10.0
 40
11.0
 40
11.0
 40
11.0
 40
11.0
 10
19.04108472222222
 20
-4.565083333333328
 30
0.0
 10
19.01413333333332
 20
-4.56782916666667
 30
0.0
 10
18.9876236111111
 20
-4.817293055555561
 30
0.0
 10
18.98480277777778
 20
-4.847172222222222
 30
0.0
 10
18.97554166666666
 20
-4.945308333333338
 30
0.0
 10
18.97692083333332
 20
-5.045134722222226
 30
0.0
 10
18.99130555555555
 20
-5.142731944444449
 30
0.0
 10
19.02289722222223
 20
-5.357016666666671
 30
0.0
 10
19.08782638888889
 20
-5.56442222222222
 30
0.0
 10
19.12746111111111
 20
-5.777113888888885
 30
0.0
 10
19.17034861111112
 20
-6.007293055555553
 30
0.0
 10
19.16970277777778
 20
-6.242477777777784
 30
0.0
 10
19.14156666666668
 20
-6.474368055555551
 30
0.0
 10
19.13011111111112
 20
-6.568734722222226
 30
0.0
 10
19.11370138888888
 20
-6.664976388888893
 30
0.0
 10
19.09285416666666
 20
-6.760872222222221
 30
0.0
 10
19.09442638888888
 20
-6.753656944444439
 30
0.0
 10
18.97398055555555
 20
-6.701951388888889
 30
0.0
 10
18.96278194444443
 20
-6.696804166666665
 30
0.0
 10
18.79764027777777
 20
-6.620904166666668
 30
0.0
 10
18.62492777777778
 20
-6.561724999999998
 30
0.0
 10
18.44787638888889
 20
-6.520658333333333
 30
0.0
 10
18.42785972222221
 20
-6.516016666666663
 30
0.0
 10
18.20829861111111
 20
-6.476273611111107
 30
0.0
 10
18.20829861111111
 20
-6.476456944444445
 30
0.0
 10
18.21010694444444
 20
-6.369104166666665
 30
0.0
 10
18.2033125
 20
-6.267738888888895
 30
0.0
 10
18.21694444444444
 20
-6.160998611111116
 30
0.0
 10
18.27558472222222
 20
-5.702020833333336
 30
0.0
 10
18.3489875
 20
-5.136798611111114
 30
0.0
 10
18.68003611111112
 20
-4.784709722222222
 30
0.0
 10
18.73905416666667
 20
-4.721966666666668
 30
0.0
 10
18.88736666666667
 20
-4.580729166666666
 30
0.0
 10
19.04108472222222
 20
-4.565083333333328
 30
0.0
  0
SPLINE
  5
49
330
1F
100
AcDbEntity
  8
Layer 1
370
     0
100
AcDbSpline
210
0.0
220
0.0
230
1.0
 70
    11
 71
     3
 72
    38
 73
    34
 74
     0
 42
0.0000000001
 43
0.0000000001
 12
1.0
 22
0.0
 32
0.0
 13
1.0
 23
0.0
 33
0.0
 40
0.0
 40
0.0
 40
0.0
 40
0.0
 40
1.0
 40
1.0
 40
1.0
 40
2.0
 40
2.0
 40
2.0
 40
3.0
 40
3.0
 40
3.0
 40
4.0
 40
4.0
 40
4.0
 40
5.0
 40
5.0
 40
5.0
 40
6.0
 40
6.0
 40
6.0
 40
7.0
 40
7.0
 40
7.0
 40
8.0
 40
8.0
 40
8.0
 40
9.0
 40
9.0
 40
9.0
 40
10.0
 40
10.0
 40
10.0
 40
11.0
 40
11.0
 40
11.0
 40
11.0
 10
21.08086111111111
 20
-8.2603861111111
 30
0.0
 10
21.03151388888889
 20
-8.302013888888899
 30
0.0
 10
20.98157361111112
 20
-8.341347222222213
 30
0.0
 10
20.93232222222223
 20
-8.377429166666666
 30
0.0
 10
20.91184305555556
 20
-8.380519444444442
 30
0.0
 10
20.89136250000001
 20
-8.383319444444446
 30
0.0
 10
20.87082916666668
 20
-8.385924999999991
 30
0.0
 10
20.72925694444444
 20
-8.404455555555563
 30
0.0
 10
20.58556388888888
 20
-8.407115277777772
 30
0.0
 10
20.43221111111112
 20
-8.393990277777776
 30
0.0
 10
20.36853194444443
 20
-8.17745416666667
 30
0.0
 10
20.27771805555555
 20
-7.969575000000001
 30
0.0
 10
20.16207500000001
 20
-7.775511111111099
 30
0.0
 10
20.2198
 20
-7.73095555555556
 30
0.0
 10
20.27666388888888
 20
-7.683233333333343
 30
0.0
 10
20.33123333333333
 20
-7.633454166666676
 30
0.0
 10
20.33123333333333
 20
-7.633454166666676
 30
0.0
 10
20.38534027777779
 20
-7.602229166666675
 30
0.0
 10
20.38534027777779
 20
-7.602229166666675
 30
0.0
 10
20.82830833333333
 20
-7.344690277777772
 30
0.0
 10
21.3310236111111
 20
-7.052274999999995
 30
0.0
 10
21.77954722222221
 20
-7.089088888888884
 30
0.0
 10
21.86646388888888
 20
-7.096259722222221
 30
0.0
 10
22.07044444444444
 20
-7.124599999999999
 30
0.0
 10
22.17641944444444
 20
-7.234451388888892
 30
0.0
 10
21.94984722222221
 20
-7.325233333333345
 30
0.0
 10
21.77033055555555
 20
-7.454927777777786
 30
0.0
 10
21.62847916666667
 20
-7.630159722222212
 30
0.0
 10
21.5856875
 20
-7.682984722222222
 30
0.0
 10
21.5435763888889
 20
-7.736866666666653
 30
0.0
 10
21.5017986111111
 20
-7.790499999999989
 30
0.0
 10
21.36777361111111
 20
-7.962479166666677
 30
0.0
 10
21.24117916666667
 20
-8.124929166666663
 30
0.0
 10
21.08086111111111
 20
-8.2603861111111
 30
0.0
  0
SPLINE
  5
4A
330
1F
100
AcDbEntity
  8
Layer 1
370
     0
100
AcDbSpline
210
0.0
220
0.0
230
1.0
 70
    11
 71
     3
 72
    44
 73
    40
 74
     0
 42
0.0000000001
 43
0.0000000001
 12
1.0
 22
0.0
 32
0.0
 13
1.0
 23
0.0
 33
0.0
 40
0.0
 40
0.0
 40
0.0
 40
0.0
 40
1.0
 40
1.0
 40
1.0
 40
2.0
 40
2.0
 40
2.0
 40
3.0
 40
3.0
 40
3.0
 40
4.0
 40
4.0
 40
4.0
 40
5.0
 40
5.0
 40
5.0
 40
6.0
 40
6.0
 40
6.0
 40
7.0
 40
7.0
 40
7.0
 40
8.0
 40
8.0
 40
8.0
 40
9.0
 40
9.0
 40
9.0
 40
10.0
 40
10.0
 40
10.0
 40
11.0
 40
11.0
 40
11.0
 40
12.0
 40
12.0
 40
12.0
 40
13.0
 40
13.0
 40
13.0
 40
13.0
 10
20.24110833333333
 20
-7.513255555555562
 30
0.0
 10
20.19038333333333
 20
-7.560191666666671
 30
0.0
 10
20.13682499999999
 20
-7.605716666666669
 30
0.0
 10
20.08166249999999
 20
-7.648755555555554
 30
0.0
 10
20.07583750000001
 20
-7.640140277777769
 30
0.0
 10
20.06997916666667
 20
-7.631580555555551
 30
0.0
 10
20.06411111111111
 20
-7.623213888888889
 30
0.0
 10
19.84597083333334
 20
-7.306776388888895
 30
0.0
 10
19.55736805555555
 20
-7.035391666666669
 30
0.0
 10
19.22870972222222
 20
-6.837547222222219
 30
0.0
 10
19.2719625
 20
-6.651441666666667
 30
0.0
 10
19.29757916666666
 20
-6.473291666666669
 30
0.0
 10
19.30696805555554
 20
-6.293752777777778
 30
0.0
 10
19.39398055555555
 20
-6.143997222222222
 30
0.0
 10
19.47498472222221
 20
-5.989526388888887
 30
0.0
 10
19.55337361111111
 20
-5.840115277777778
 30
0.0
 10
19.55337361111111
 20
-5.840115277777778
 30
0.0
 10
19.63254722222223
 20
-5.689691666666666
 30
0.0
 10
19.63254722222223
 20
-5.689691666666666
 30
0.0
 10
19.72936944444445
 20
-5.506674999999998
 30
0.0
 10
19.86699999999999
 20
-5.341866666666672
 30
0.0
 10
20.06561944444444
 20
-5.171029166666661
 30
0.0
 10
20.46795
 20
-4.825195833333333
 30
0.0
 10
21.00572500000001
 20
-4.611222222222219
 30
0.0
 10
21.62083333333334
 20
-4.55220555555555
 30
0.0
 10
21.62083333333334
 20
-4.55220555555555
 30
0.0
 10
21.68666666666667
 20
-4.545615277777781
 30
0.0
 10
21.68666666666667
 20
-4.545615277777781
 30
0.0
 10
21.76057499999999
 20
-4.537873611111106
 30
0.0
 10
21.84125694444444
 20
-4.529388888888889
 30
0.0
 10
21.91988194444444
 20
-4.528183333333332
 30
0.0
 10
21.41533472222222
 20
-4.778248611111116
 30
0.0
 10
21.12864722222222
 20
-5.404491666666672
 30
0.0
 10
21.02679722222223
 20
-5.929205555555553
 30
0.0
 10
20.95587083333334
 20
-6.295562499999997
 30
0.0
 10
20.88251111111112
 20
-6.624241666666661
 30
0.0
 10
20.70295138888888
 20
-6.936879166666661
 30
0.0
 10
20.58076111111111
 20
-7.149591666666664
 30
0.0
 10
20.42538472222223
 20
-7.343494444444458
 30
0.0
 10
20.24110833333333
 20
-7.513255555555562
 30
0.0
  0
SPLINE
  5
4B
330
1F
100
AcDbEntity
  8
Layer 1
370
     0
100
AcDbSpline
210
0.0
220
0.0
230
1.0
 70
    11
 71
     3
 72
    26
 73
    22
 74
     0
 42
0.0000000001
 43
0.0000000001
 12
1.0
 22
0.0
 32
0.0
 13
1.0
 23
0.0
 33
0.0
 40
0.0
 40
0.0
 40
0.0
 40
0.0
 40
1.0
 40
1.0
 40
1.0
 40
2.0
 40
2.0
 40
2.0
 40
3.0
 40
3.0
 40
3.0
 40
4.0
 40
4.0
 40
4.0
 40
5.0
 40
5.0
 40
5.0
 40
6.0
 40
6.0
 40
6.0
 40
7.0
 40
7.0
 40
7.0
 40
7.0
 10
20.36581944444444
 20
-10.11263472222223
 30
0.0
 10
20.43679861111112
 20
-10.13022916666667
 30
0.0
 10
20.50909166666666
 20
-10.14484027777778
 30
0.0
 10
20.58112777777779
 20
-10.15611388888889
 30
0.0
 10
20.5902361111111
 20
-10.15989305555556
 30
0.0
 10
20.59940000000001
 20
-10.16351111111112
 30
0.0
 10
20.60884305555555
 20
-10.16714999999999
 30
0.0
 10
20.60884305555555
 20
-10.16714999999999
 30
0.0
 10
20.639725
 20
-10.17899444444444
 30
0.0
 10
20.639725
 20
-10.17899444444444
 30
0.0
 10
20.910325
 20
-10.28419444444444
 30
0.0
 10
21.21245138888889
 20
-10.40162499999999
 30
0.0
 10
21.46454166666667
 20
-10.55337222222223
 30
0.0
 10
21.24374166666666
 20
-10.50350833333333
 30
0.0
 10
21.02372916666667
 20
-10.44211111111112
 30
0.0
 10
20.80979861111112
 20
-10.38242638888889
 30
0.0
 10
20.64636805555556
 20
-10.33683611111112
 30
0.0
 10
20.47771527777778
 20
-10.28980416666668
 30
0.0
 10
20.309925
 20
-10.24818750000001
 30
0.0
 10
20.32985555555554
 20
-10.20339444444443
 30
0.0
 10
20.34860138888888
 20
-10.15798749999999
 30
0.0
 10
20.36581944444444
 20
-10.11263472222223
 30
0.0
  0
SPLINE
  5
4C
330
1F
100
AcDbEntity
  8
Layer 1
370
     0
100
AcDbSpline
210
0.0
220
0.0
230
1.0
 70
    11
 71
     3
 72
    50
 73
    46
 74
     0
 42
0.0000000001
 43
0.0000000001
 12
1.0
 22
0.0
 32
0.0
 13
1.0
 23
0.0
 33
0.0
 40
0.0
 40
0.0
 40
0.0
 40
0.0
 40
1.0
 40
1.0
 40
1.0
 40
2.0
 40
2.0
 40
2.0
 40
3.0
 40
3.0
 40
3.0
 40
4.0
 40
4.0
 40
4.0
 40
5.0
 40
5.0
 40
5.0
 40
6.0
 40
6.0
 40
6.0
 40
7.0
 40
7.0
 40
7.0
 40
8.0
 40
8.0
 40
8.0
 40
9.0
 40
9.0
 40
9.0
 40
10.0
 40
10.0
 40
10.0
 40
11.0
 40
11.0
 40
11.0
 40
12.0
 40
12.0
 40
12.0
 40
13.0
 40
13.0
 40
13.0
 40
14.0
 40
14.0
 40
14.0
 40
15.0
 40
15.0
 40
15.0
 40
15.0
 10
20.61887777777777
 20
-10.01086944444445
 30
0.0
 10
20.55225972222221
 20
-10.00081249999999
 30
0.0
 10
20.48385277777778
 20
-9.987386111111112
 30
0.0
 10
20.41512361111111
 20
-9.970933333333328
 30
0.0
 10
20.41819305555555
 20
-9.961295833333326
 30
0.0
 10
20.42126111111111
 20
-9.951605555555563
 30
0.0
 10
20.42433055555555
 20
-9.941861111111114
 30
0.0
 10
20.50177083333334
 20
-9.6878
 30
0.0
 10
20.54102916666668
 20
-9.42297083333334
 30
0.0
 10
20.54102916666668
 20
-9.154751388888876
 30
0.0
 10
20.54102916666668
 20
-9.030202777777781
 30
0.0
 10
20.53232916666666
 20
-8.904286111111105
 30
0.0
 10
20.51514305555555
 20
-8.780491666666673
 30
0.0
 10
20.51014722222223
 20
-8.744656944444436
 30
0.0
 10
20.50460277777777
 20
-8.709059722222213
 30
0.0
 10
20.49819583333333
 20
-8.673968055555557
 30
0.0
 10
20.49058333333333
 20
-8.631554166666673
 30
0.0
 10
20.48183888888889
 20
-8.58896944444445
 30
0.0
 10
20.47212777777779
 20
-8.546975
 30
0.0
 10
20.79979583333334
 20
-8.567519444444441
 30
0.0
 10
21.12679583333334
 20
-8.51183055555556
 30
0.0
 10
21.44702361111111
 20
-8.44826944444445
 30
0.0
 10
21.59361249999998
 20
-8.419163888888887
 30
0.0
 10
21.73962083333334
 20
-8.378861111111114
 30
0.0
 10
21.8892263888889
 20
-8.373670833333335
 30
0.0
 10
22.04076944444445
 20
-8.368416666666665
 30
0.0
 10
22.19243055555555
 20
-8.38515972222222
 30
0.0
 10
22.34118472222222
 20
-8.413350000000012
 30
0.0
 10
22.86222777777779
 20
-8.512088888888886
 30
0.0
 10
23.36490000000001
 20
-8.799141666666678
 30
0.0
 10
23.79485
 20
-9.243551388888893
 30
0.0
 10
23.79485
 20
-9.243551388888893
 30
0.0
 10
23.84090277777778
 20
-9.290562500000002
 30
0.0
 10
23.84090277777778
 20
-9.290562500000002
 30
0.0
 10
23.8930388888889
 20
-9.343711111111107
 30
0.0
 10
23.95004305555555
 20
-9.401759722222222
 30
0.0
 10
23.99988611111111
 20
-9.462380555555557
 30
0.0
 10
23.48979305555556
 20
-9.223663888888899
 30
0.0
 10
22.82145000000001
 20
-9.390033333333323
 30
0.0
 10
22.3477736111111
 20
-9.637719444444453
 30
0.0
 10
22.01665
 20
-9.810647222222213
 30
0.0
 10
21.71360694444444
 20
-9.958194444444441
 30
0.0
 10
21.35806111111111
 20
-10.01253888888889
 30
0.0
 10
21.11540416666667
 20
-10.04963333333333
 30
0.0
 10
20.86675833333334
 20
-10.04908472222223
 30
0.0
 10
20.61887777777777
 20
-10.01086944444445
 30
0.0
  0
HATCH
  5
4D
330
1F
100
AcDbEntity
  8
Layer 1
 62
     7
420
 16777215
100
AcDbHatch
 10
0.0
 20
0.0
 30
0.0
210
0.0
220
0.0
230
1.0
  2
SOLID
 70
     1
 71
     0
 91
       12
 92
        1
 93
        1
 72
     4
 94
        3
 73
     0
 74
     1
 95
      278
 96
      274
 40
0.0
 40
0.0
 40
0.0
 40
0.0
 40
1.0
 40
1.0
 40
1.0
 40
2.0
 40
2.0
 40
2.0
 40
3.0
 40
3.0
 40
3.0
 40
4.0
 40
4.0
 40
4.0
 40
5.0
 40
5.0
 40
5.0
 40
6.0
 40
6.0
 40
6.0
 40
7.0
 40
7.0
 40
7.0
 40
8.0
 40
8.0
 40
8.0
 40
9.0
 40
9.0
 40
9.0
 40
10.0
 40
10.0
 40
10.0
 40
11.0
 40
11.0
 40
11.0
 40
12.0
 40
12.0
 40
12.0
 40
13.0
 40
13.0
 40
13.0
 40
14.0
 40
14.0
 40
14.0
 40
15.0
 40
15.0
 40
15.0
 40
16.0
 40
16.0
 40
16.0
 40
17.0
 40
17.0
 40
17.0
 40
18.0
 40
18.0
 40
18.0
 40
19.0
 40
19.0
 40
19.0
 40
20.0
 40
20.0
 40
20.0
 40
21.0
 40
21.0
 40
21.0
 40
22.0
 40
22.0
 40
22.0
 40
23.0
 40
23.0
 40
23.0
 40
24.0
 40
24.0
 40
24.0
 40
25.0
 40
25.0
 40
25.0
 40
26.0
 40
26.0
 40
26.0
 40
27.0
 40
27.0
 40
27.0
 40
28.0
 40
28.0
 40
28.0
 40
29.0
 40
29.0
 40
29.0
 40
30.0
 40
30.0
 40
30.0
 40
31.0
 40
31.0
 40
31.0
 40
32.0
 40
32.0
 40
32.0
 40
33.0
 40
33.0
 40
33.0
 40
34.0
 40
34.0
 40
34.0
 40
35.0
 40
35.0
 40
35.0
 40
36.0
 40
36.0
 40
36.0
 40
37.0
 40
37.0
 40
37.0
 40
38.0
 40
38.0
 40
38.0
 40
39.0
 40
39.0
 40
39.0
 40
40.0
 40
40.0
 40
40.0
 40
41.0
 40
41.0
 40
41.0
 40
42.0
 40
42.0
 40
42.0
 40
43.0
 40
43.0
 40
43.0
 40
44.0
 40
44.0
 40
44.0
 40
45.0
 40
45.0
 40
45.0
 40
46.0
 40
46.0
 40
46.0
 40
47.0
 40
47.0
 40
47.0
 40
48.0
 40
48.0
 40
48.0
 40
49.0
 40
49.0
 40
49.0
 40
50.0
 40
50.0
 40
50.0
 40
51.0
 40
51.0
 40
51.0
 40
52.0
 40
52.0
 40
52.0
 40
53.0
 40
53.0
 40
53.0
 40
54.0
 40
54.0
 40
54.0
 40
55.0
 40
55.0
 40
55.0
 40
56.0
 40
56.0
 40
56.0
 40
57.0
 40
57.0
 40
57.0
 40
58.0
 40
58.0
 40
58.0
 40
59.0
 40
59.0
 40
59.0
 40
60.0
 40
60.0
 40
60.0
 40
61.0
 40
61.0
 40
61.0
 40
62.0
 40
62.0
 40
62.0
 40
63.0
 40
63.0
 40
63.0
 40
64.0
 40
64.0
 40
64.0
 40
65.0
 40
65.0
 40
65.0
 40
66.0
 40
66.0
 40
66.0
 40
67.0
 40
67.0
 40
67.0
 40
68.0
 40
68.0
 40
68.0
 40
69.0
 40
69.0
 40
69.0
 40
70.0
 40
70.0
 40
70.0
 40
71.0
 40
71.0
 40
71.0
 40
72.0
 40
72.0
 40
72.0
 40
73.0
 40
73.0
 40
73.0
 40
74.0
 40
74.0
 40
74.0
 40
75.0
 40
75.0
 40
75.0
 40
76.0
 40
76.0
 40
76.0
 40
77.0
 40
77.0
 40
77.0
 40
78.0
 40
78.0
 40
78.0
 40
79.0
 40
79.0
 40
79.0
 40
80.0
 40
80.0
 40
80.0
 40
81.0
 40
81.0
 40
81.0
 40
82.0
 40
82.0
 40
82.0
 40
83.0
 40
83.0
 40
83.0
 40
84.0
 40
84.0
 40
84.0
 40
85.0
 40
85.0
 40
85.0
 40
86.0
 40
86.0
 40
86.0
 40
87.0
 40
87.0
 40
87.0
 40
88.0
 40
88.0
 40
88.0
 40
89.0
 40
89.0
 40
89.0
 40
90.0
 40
90.0
 40
90.0
 40
91.0
 40
91.0
 40
91.0
 40
91.0
 10
12.85318578641232
 20
-10.52130694444445
 10
13.33613299643427
 20
-10.31691666666666
 10
13.92714305555556
 20
-10.2866486111111
 10
14.59223472222223
 20
-10.38811250000001
 10
14.79594722222221
 20
-10.41924166666667
 10
15.00061666666666
 20
-10.46549861111112
 10
15.19858888888888
 20
-10.51021666666667
 10
15.39382638888888
 20
-10.55432083333332
 10
15.59574027777777
 20
-10.59993194444445
 10
15.79734166666666
 20
-10.63124444444444
 10
16.29089444444445
 20
-10.7078986111111
 10
16.80639305555556
 20
-10.69257638888889
 10
17.32940555555556
 20
-10.58569722222223
 10
17.50489583333333
 20
-10.54985138888888
 10
17.6813875
 20
-10.50566111111112
 10
17.85200972222222
 20
-10.46291388888888
 10
18.09883472222223
 20
-10.4010763888889
 10
18.3540375
 20
-10.33713888888888
 10
18.60947638888888
 20
-10.29778333333333
 10
19.37546111111111
 20
-10.17978055555555
 10
20.07221944444445
 20
-10.35775833333332
 10
20.80989583333333
 20
-10.54625555555556
 10
21.09199444444446
 20
-10.61834444444445
 10
21.38376388888888
 20
-10.6928875
 10
21.67713749999999
 20
-10.74835138888888
 10
21.93353472222222
 20
-10.79685972222223
 10
22.16648055555556
 20
-10.82065555555555
 10
22.3859013888889
 20
-10.82065555555555
 10
22.42035833333335
 20
-10.82065555555555
 10
22.45453472222223
 20
-10.82006388888888
 10
22.48834444444444
 20
-10.81889027777778
 10
22.52541805555554
 20
-10.81742638888889
 10
22.56305
 20
-10.80907083333333
 10
22.59020555555556
 20
-10.7914763888889
 10
22.61124583333334
 20
-10.77782222222221
 10
22.62352083333333
 20
-10.75851666666666
 10
22.62360694444444
 20
-10.73308333333332
 10
22.6236611111111
 20
-10.71214027777778
 10
22.61560694444445
 20
-10.69014305555556
 10
22.60053194444446
 20
-10.67835138888889
 10
22.57808194444445
 20
-10.66047777777776
 10
22.54734027777777
 20
-10.65899166666665
 10
22.5277111111111
 20
-10.65985277777779
 10
22.3068361111111
 20
-10.66960833333332
 10
22.07387916666665
 20
-10.66224305555556
 10
21.81477916666666
 20
-10.62136944444445
 10
21.60094583333332
 20
-10.43516666666667
 10
21.32370277777778
 20
-10.29828888888889
 10
21.06487083333334
 20
-10.18848055555557
 10
21.17047916666666
 20
-10.18561666666667
 10
21.27641111111112
 20
-10.17622777777779
 10
21.3807375
 20
-10.16044305555556
 10
21.7591111111111
 20
-10.10234027777778
 10
22.0738361111111
 20
-9.949333333333344
 10
22.41686944444445
 20
-9.770181944444452
 10
22.908775
 20
-9.513149999999996
 10
23.60067777777777
 20
-9.352508333333338
 10
24.06729166666666
 20
-9.672315277777772
 10
24.13275833333334
 20
-9.717334722222226
 10
24.19089166666668
 20
-9.688069444444434
 10
24.20559027777777
 20
-9.676612499999994
 10
24.24839027777777
 20
-9.643276388888882
 10
24.25422638888888
 20
-9.584602777777768
 10
24.22820138888889
 20
-9.534179166666666
 10
24.16111944444444
 20
-9.40348194444444
 10
24.04772638888888
 20
-9.287945833333323
 10
23.94765277777777
 20
-9.185955555555564
 10
23.94765277777777
 20
-9.185955555555564
 10
23.90215972222222
 20
-9.139676388888876
 10
23.90215972222222
 20
-9.139676388888876
 10
23.45094444444445
 20
-8.672955555555568
 10
22.92082361111112
 20
-8.371033333333344
 10
22.36912638888889
 20
-8.266544444444435
 10
22.08885694444444
 20
-8.213395833333328
 10
21.80726388888888
 20
-8.217961111111107
 10
21.47971388888888
 20
-8.28157638888888
 10
21.3978375
 20
-8.29734027777777
 10
21.31379583333334
 20
-8.31351249999999
 10
21.22945416666668
 20
-8.328770833333339
 10
21.37542916666666
 20
-8.1951875
 10
21.49954722222222
 20
-8.038993055555567
 10
21.62000416666665
 20
-7.887429166666656
 10
21.64570694444445
 20
-7.855083333333343
 10
21.67136527777777
 20
-7.822780555555558
 10
21.69725138888889
 20
-7.790704166666678
 10
21.87329027777777
 20
-7.572380555555557
 10
22.0429013888889
 20
-7.44381666666666
 10
22.26737222222222
 20
-7.359720833333338
 10
22.28051944444445
 20
-7.354854166666655
 10
22.3079125
 20
-7.344776388888881
 10
22.32963055555557
 20
-7.312106944444444
 10
22.32963055555557
 20
-7.312106944444444
 10
22.33238749999999
 20
-7.30759583333333
 10
22.33238749999999
 20
-7.30759583333333
 10
22.34333750000001
 20
-7.287804166666673
 10
22.3643236111111
 20
-7.235452777777785
 10
22.32257777777777
 20
-7.17701666666667
 10
22.19057777777779
 20
-6.991136111111106
 10
21.90724027777777
 20
-6.949465277777777
 10
21.79154305555554
 20
-6.940162500000004
 10
21.41478472222222
 20
-6.909593055555559
 10
21.02583888888888
 20
-7.076243055555551
 10
20.65750138888888
 20
-7.27595972222222
 10
20.72155833333333
 20
-7.191079166666668
 10
20.78025277777778
 20
-7.102419444444447
 10
20.83266805555556
 20
-7.011336111111113
 10
21.02326527777778
 20
-6.679297222222228
 10
21.09983333333333
 20
-6.337793055555557
 10
21.17360277777778
 20
-5.957837499999995
 10
21.27929722222221
 20
-5.413083333333335
 10
21.59605694444445
 20
-4.786399999999995
 10
22.12615555555557
 20
-4.606463888888887
 10
22.20137777777778
 20
-4.580922222222221
 10
22.21993055555554
 20
-4.519612499999994
 10
22.22015694444445
 20
-4.501027777777773
 10
22.2209
 20
-4.447652777777774
 10
22.17330694444445
 20
-4.405486111111107
 10
22.11831666666666
 20
-4.394481944444439
 10
21.92097916666666
 20
-4.354986111111113
 10
21.71924861111112
 20
-4.38373611111111
 10
21.52424861111111
 20
-4.411591666666671
 10
21.52424861111111
 20
-4.411591666666671
 10
21.48351527777777
 20
-4.417363888888884
 10
21.48351527777777
 20
-4.417363888888884
 10
21.27486111111112
 20
-4.446801388888894
 10
21.092275
 20
-4.486394444444449
 10
20.92531249999999
 20
-4.538369444444444
 10
20.5577513888889
 20
-4.652829166666669
 10
20.23570416666666
 20
-4.827554166666661
 10
19.96811805555555
 20
-5.057700000000005
 10
19.75263749999999
 20
-5.243052777777772
 10
19.58063611111111
 20
-5.466006944444441
 10
19.42683194444445
 20
-5.759422222222219
 10
19.38742361111111
 20
-5.834709722222227
 10
19.34705555555555
 20
-5.911913888888888
 10
19.30559027777779
 20
-5.98879444444444
 10
19.29262499999999
 20
-5.826730555555551
 10
19.25808333333334
 20
-5.667123611111113
 10
19.22449861111111
 20
-5.512145833333332
 10
19.15576944444446
 20
-5.194631944444445
 10
19.09079861111111
 20
-4.894700000000006
 10
19.19540555555555
 20
-4.572847222222221
 10
19.19965833333334
 20
-4.560572222222226
 10
19.20960694444446
 20
-4.531865277777771
 10
19.1974611111111
 20
-4.493909722222219
 10
19.1974611111111
 20
-4.493909722222219
 10
19.19553472222222
 20
-4.488472222222223
 10
19.19553472222222
 20
-4.488472222222223
 10
19.17730416666667
 20
-4.444583333333336
 10
19.13789583333333
 20
-4.417729166666668
 10
19.08736388888888
 20
-4.414779166666664
 10
18.86000555555554
 20
-4.401609722222221
 10
18.65061944444445
 20
-4.597666666666669
 10
18.57117638888889
 20
-4.682223611111112
 10
18.31165694444444
 20
-4.958638888888887
 10
18.19991111111111
 20
-5.365868055555552
 10
18.12650833333333
 20
-5.778147222222224
 10
18.10021388888889
 20
-5.675629166666668
 10
18.06749166666667
 20
-5.574576388888886
 10
18.02878194444444
 20
-5.476451388888891
 10
17.88774722222222
 20
-5.119763888888883
 10
17.66860555555556
 20
-4.847237500000006
 10
17.41769999999999
 20
-4.553034722222226
 10
17.05770833333333
 20
-4.130848611111105
 10
16.74710694444444
 20
-3.4921375
 10
16.95502777777777
 20
-2.965711111111116
 10
16.98454166666666
 20
-2.891275000000001
 10
16.93940416666667
 20
-2.847472222222223
 10
16.92515972222222
 20
-2.836026388888892
 10
16.88405972222222
 20
-2.802098611111117
 10
16.82751805555555
 20
-2.803605555555552
 10
16.7845888888889
 20
-2.839644444444439
 10
16.49405833333334
 20
-3.08353055555555
 10
16.32452222222222
 20
-3.449206944444439
 10
16.17580000000001
 20
-3.802836111111118
 10
15.89938611111111
 20
-4.459905555555552
 10
15.89855694444445
 20
-5.16734583333333
 10
16.17350694444445
 20
-5.794848611111117
 10
16.20580972222222
 20
-5.868131944444447
 10
16.24141805555555
 20
-5.948888888888884
 10
16.2763263888889
 20
-6.030583333333336
 10
16.11023611111111
 20
-5.915962500000003
 10
15.92929861111111
 20
-5.831318055555559
 10
15.75372222222222
 20
-5.749161111111107
 10
15.46323472222222
 20
-5.613241666666668
 10
15.26199999999999
 20
-5.454484722222219
 10
15.10210138888889
 20
-5.235677777777773
 10
15.09517777777778
 20
-5.224726388888889
 10
15.07900416666666
 20
-5.19906805555556
 10
15.0423513888889
 20
-5.184865277777779
 10
15.0423513888889
 20
-5.184865277777779
 10
15.03639722222222
 20
-5.183034722222222
 10
15.03639722222222
 20
-5.183034722222222
 10
15.01476527777778
 20
-5.17661666666667
 10
14.95941944444444
 20
-5.167572222222222
 10
14.91135416666667
 20
-5.221518055555558
 10
14.7595625
 20
-5.39178611111111
 10
14.78192777777778
 20
-5.677201388888887
 10
14.79855277777779
 20
-5.792005555555559
 10
14.85275694444445
 20
-6.167438888888884
 10
15.10159444444444
 20
-6.508877777777772
 10
15.37820277777777
 20
-6.823484722222221
 10
15.02150555555555
 20
-6.665255555555555
 10
14.60881666666667
 20
-6.590593055555561
 10
14.15087222222222
 20
-6.601748611111108
 10
13.75864131909414
 20
-6.611234722222219
 10
13.40538993912913
 20
-6.607455555555551
 10
13.04891772591216
 20
-6.466259722222225
 10
12.85795523073628
 20
-6.390618055555554
 10
12.59880107061639
 20
-6.245676388888884
 10
12.44886218551528
 20
-5.984755555555554
 10
12.40898024207834
 20
-5.915390277777773
 10
12.346625
 20
-5.923337500000002
 10
12.3286857996623
 20
-5.927322222222225
 10
12.27665663431
 20
-5.938412500000001
 10
12.24256635739342
 20
-5.983452777777782
 10
12.24384830180548
 20
-6.039487500000001
 10
12.25374413488882
 20
-6.423856944444449
 10
12.44662329668295
 20
-6.813352777777784
 10
12.63396773639468
 20
-7.143680555555559
 10
12.82953995367633
 20
-7.488490277777777
 10
13.07675244743122
 20
-7.772722222222228
 10
13.36878021783175
 20
-7.988504166666669
 10
13.68446354319025
 20
-8.221740277777775
 10
14.05914305555556
 20
-8.337837500000003
 10
14.4231625
 20
-8.423686111111111
 10
14.31452777777777
 20
-8.467898611111119
 10
14.20447361111111
 20
-8.520497222222223
 10
14.09735694444445
 20
-8.571676388888893
 10
13.79880381807955
 20
-8.714324999999992
 10
13.49003299254643
 20
-8.862120833333341
 10
13.17136633392996
 20
-8.85586527777779
 10
13.1576496676098
 20
-8.85560555555556
 10
13.14257466799063
 20
-8.853819444444449
 10
13.12699411282867
 20
-8.852031944444434
 10
13.08213578062855
 20
-8.846830555555545
 10
13.03128022635772
 20
-8.840994444444453
 10
12.9907510607149
 20
-8.864823611111104
 10
12.9907510607149
 20
-8.864823611111104
 10
12.98557189417907
 20
-8.868344444444448
 10
12.98557189417907
 20
-8.868344444444448
 10
12.94668055555556
 20
-8.89593055555555
 10
12.92928995115643
 20
-8.940325000000003
 10
12.93786111111111
 20
-8.99010416666667
 10
12.99166666666666
 20
-9.30657361111111
 10
13.35372605154538
 20
-9.46902361111112
 10
13.50689549212044
 20
-9.524165277777785
 10
13.81456770657021
 20
-9.634995833333328
 10
14.15499583333333
 20
-9.639443055555551
 10
14.48075833333333
 20
-9.623613888888888
 10
14.38614305555556
 20
-9.672337500000014
 10
14.29487777777778
 20
-9.726745833333325
 10
14.20837083333333
 20
-9.786011111111115
 10
14.04878472222222
 20
-9.895355555555549
 10
13.90473611111111
 20
-10.02531944444445
 10
13.75577777777778
 20
-10.19453194444443
 10
13.70941215367111
 20
-10.19599722222223
 10
13.66286354373591
 20
-10.1983763888889
 10
13.61635798935519
 20
-10.20162777777778
 10
13.27737327569644
 20
-10.22529583333332
 10
12.94647606183339
 20
-10.31052083333333
 10
12.63289134753298
 20
-10.45497916666666
 10
12.6084274592621
 20
-10.46618750000001
 10
12.58888440420024
 20
-10.47809722222223
 10
12.57307746015512
 20
-10.49148055555555
 10
12.54514690530515
 20
-10.51535277777778
 10
12.54008579432189
 20
-10.55168194444445
 10
12.56015662714819
 20
-10.58400694444446
 10
12.5777288489265
 20
-10.61243333333333
 10
12.61960384786865
 20
-10.6147375
 10
12.65376912478334
 20
-10.60233333333334
 10
12.70766079008859
 20
-10.58279027777778
 10
12.80039134330157
 20
-10.54364999999999
 10
12.85318578641232
 20
-10.52130694444445
 97
        0
 97
        0
 92
        1
 93
        1
 72
     4
 94
        3
 73
     0
 74
     1
 95
       65
 96
       61
 40
0.0
 40
0.0
 40
0.0
 40
0.0
 40
1.0
 40
1.0
 40
1.0
 40
2.0
 40
2.0
 40
2.0
 40
3.0
 40
3.0
 40
3.0
 40
4.0
 40
4.0
 40
4.0
 40
5.0
 40
5.0
 40
5.0
 40
6.0
 40
6.0
 40
6.0
 40
7.0
 40
7.0
 40
7.0
 40
8.0
 40
8.0
 40
8.0
 40
9.0
 40
9.0
 40
9.0
 40
10.0
 40
10.0
 40
10.0
 40
11.0
 40
11.0
 40
11.0
 40
12.0
 40
12.0
 40
12.0
 40
13.0
 40
13.0
 40
13.0
 40
14.0
 40
14.0
 40
14.0
 40
15.0
 40
15.0
 40
15.0
 40
16.0
 40
16.0
 40
16.0
 40
17.0
 40
17.0
 40
17.0
 40
18.0
 40
18.0
 40
18.0
 40
19.0
 40
19.0
 40
19.0
 40
20.0
 40
20.0
 40
20.0
 40
20.0
 10
17.30402638888889
 20
-4.649888888888894
 10
17.54594166666667
 20
-4.933604166666669
 10
17.75698611111111
 20
-5.195751388888892
 10
17.88976111111111
 20
-5.5314625
 10
17.97998333333333
 20
-5.759401388888894
 10
18.03469305555556
 20
-6.00189722222222
 10
18.05247083333333
 20
-6.252319444444449
 10
18.05755277777778
 20
-6.320951388888893
 10
18.05974861111111
 20
-6.390736111111108
 10
18.05901666666667
 20
-6.460144444444444
 10
18.04875555555556
 20
-6.459347222222227
 10
18.0385375
 20
-6.458583333333333
 10
18.0283611111111
 20
-6.457926388888886
 10
17.96559722222222
 20
-6.453393055555554
 10
17.90127222222222
 20
-6.451099999999997
 10
17.83711805555555
 20
-6.451099999999997
 10
17.50695277777778
 20
-6.451099999999997
 10
17.18379583333333
 20
-6.510343055555558
 10
16.87654305555555
 20
-6.627245833333328
 10
16.84295972222223
 20
-6.640254166666661
 10
16.80969861111112
 20
-6.653702777777779
 10
16.77702916666667
 20
-6.66788333333333
 10
16.73835277777778
 20
-6.684195833333332
 10
16.69849027777778
 20
-6.70233888888889
 10
16.65817638888888
 20
-6.721968055555559
 10
16.64255277777777
 20
-6.625458333333338
 10
16.62087777777777
 20
-6.53072638888889
 10
16.59371111111111
 20
-6.439965277777774
 10
16.58142638888888
 20
-6.398790277777784
 10
16.56758888888888
 20
-6.357238888888888
 10
16.55256805555556
 20
-6.316462499999993
 10
16.54143472222222
 20
-6.286398611111117
 10
16.52993472222223
 20
-6.256324999999997
 10
16.51819861111111
 20
-6.226262499999999
 10
16.45300138888889
 20
-6.05823333333333
 10
16.38051388888889
 20
-5.893651388888884
 10
16.31041666666667
 20
-5.734475
 10
16.31041666666667
 20
-5.734475
 10
16.31041666666667
 20
-5.734495833333337
 10
16.31041666666667
 20
-5.734495833333337
 10
16.31041666666667
 20
-5.734495833333337
 10
16.29891666666666
 20
-5.708427777777779
 10
16.29891666666666
 20
-5.708427777777779
 10
16.28164583333334
 20
-5.669212499999995
 10
16.26441805555555
 20
-5.630061111111116
 10
16.24727499999999
 20
-5.590587499999994
 10
16.16458055555555
 20
-5.400873611111112
 10
16.12150972222222
 20
-5.190593055555559
 10
16.11179861111111
 20
-4.928790277777781
 10
16.09227638888889
 20
-4.398466666666662
 10
16.26029305555556
 20
-3.844570833333339
 10
16.59765277777777
 20
-3.326920833333336
 10
16.59765277777777
 20
-3.326920833333336
 10
16.6337125
 20
-3.270972222222225
 10
16.6337125
 20
-3.270972222222225
 10
16.67375833333333
 20
-3.208476388888887
 10
16.71750694444444
 20
-3.140231944444445
 10
16.76520694444444
 20
-3.078426388888892
 10
16.64631111111112
 20
-3.62876805555556
 10
16.957225
 20
-4.243262500000002
 10
17.30402638888889
 20
-4.649888888888894
 97
        0
 97
        0
 92
        1
 93
        1
 72
     4
 94
        3
 73
     0
 74
     1
 95
       53
 96
       49
 40
0.0
 40
0.0
 40
0.0
 40
0.0
 40
1.0
 40
1.0
 40
1.0
 40
2.0
 40
2.0
 40
2.0
 40
3.0
 40
3.0
 40
3.0
 40
4.0
 40
4.0
 40
4.0
 40
5.0
 40
5.0
 40
5.0
 40
6.0
 40
6.0
 40
6.0
 40
7.0
 40
7.0
 40
7.0
 40
8.0
 40
8.0
 40
8.0
 40
9.0
 40
9.0
 40
9.0
 40
10.0
 40
10.0
 40
10.0
 40
11.0
 40
11.0
 40
11.0
 40
12.0
 40
12.0
 40
12.0
 40
13.0
 40
13.0
 40
13.0
 40
14.0
 40
14.0
 40
14.0
 40
15.0
 40
15.0
 40
15.0
 40
16.0
 40
16.0
 40
16.0
 40
16.0
 10
15.97492083333333
 20
-7.184823611111116
 10
15.95056388888889
 20
-7.186341666666673
 10
15.92909444444444
 20
-7.15857222222222
 10
15.9119736111111
 20
-7.144897222222223
 10
15.88055416666667
 20
-7.119808333333329
 10
15.84791666666667
 20
-7.096250000000004
 10
15.81589444444444
 20
-7.071936111111111
 10
15.73820694444445
 20
-7.012919444444441
 10
15.67390277777777
 20
-6.927801388888888
 10
15.60736944444444
 20
-6.856444444444441
 10
15.53497916666667
 20
-6.778811111111117
 10
15.46335277777777
 20
-6.700422222222224
 10
15.39478472222222
 20
-6.619375000000003
 10
15.25862916666666
 20
-6.458420833333333
 10
15.13276666666666
 20
-6.285709722222223
 10
15.04542083333333
 20
-6.09292638888889
 10
15.02126944444444
 20
-6.039616666666663
 10
15.00015416666666
 20
-5.984918055555554
 10
14.98278611111111
 20
-5.929023611111107
 10
14.92928194444444
 20
-5.756795833333336
 10
14.89457777777778
 20
-5.512005555555561
 10
14.99991666666666
 20
-5.351256944444445
 10
14.9829361111111
 20
-5.377830555555558
 10
15.12080416666667
 20
-5.497318055555549
 10
15.13824722222222
 20
-5.513987499999997
 10
15.36333333333333
 20
-5.729230555555558
 10
15.64321527777777
 20
-5.849343055555551
 10
15.91560138888889
 20
-5.991259722222227
 10
16.08403888888889
 20
-6.079004166666664
 10
16.24638194444444
 20
-6.184677777777779
 10
16.39
 20
-6.309193055555561
 10
16.40752916666666
 20
-6.324397222222223
 10
16.41722083333333
 20
-6.381066666666672
 10
16.42453194444445
 20
-6.402225000000006
 10
16.45134305555555
 20
-6.47979583333333
 10
16.47326527777778
 20
-6.558980555555561
 10
16.49349722222222
 20
-6.638498611111117
 10
16.49813888888889
 20
-6.656716666666663
 10
16.54022916666666
 20
-6.782934722222219
 10
16.51805833333333
 20
-6.795370833333335
 10
16.39371527777778
 20
-6.865123611111104
 10
16.27494861111111
 20
-6.944781944444444
 10
16.1631375
 20
-7.033226388888894
 10
16.10687777777778
 20
-7.077729166666662
 10
16.05481666666666
 20
-7.126538888888894
 10
16.00019166666666
 20
-7.172850000000001
 10
15.99084583333333
 20
-7.180775000000001
 10
15.98259722222222
 20
-7.184338888888886
 10
15.97492083333333
 20
-7.184823611111116
 97
        0
 97
        0
 92
        1
 93
        1
 72
     4
 94
        3
 73
     0
 74
     1
 95
       47
 96
       43
 40
0.0
 40
0.0
 40
0.0
 40
0.0
 40
1.0
 40
1.0
 40
1.0
 40
2.0
 40
2.0
 40
2.0
 40
3.0
 40
3.0
 40
3.0
 40
4.0
 40
4.0
 40
4.0
 40
5.0
 40
5.0
 40
5.0
 40
6.0
 40
6.0
 40
6.0
 40
7.0
 40
7.0
 40
7.0
 40
8.0
 40
8.0
 40
8.0
 40
9.0
 40
9.0
 40
9.0
 40
10.0
 40
10.0
 40
10.0
 40
11.0
 40
11.0
 40
11.0
 40
12.0
 40
12.0
 40
12.0
 40
13.0
 40
13.0
 40
13.0
 40
14.0
 40
14.0
 40
14.0
 40
14.0
 10
15.84875694444444
 20
-7.324844444444452
 10
15.58360555555555
 20
-7.612726388888884
 10
15.38076527777778
 20
-7.960304166666674
 10
15.26213888888888
 20
-8.330008333333328
 10
15.25118888888889
 20
-8.36418472222221
 10
15.24084166666666
 20
-8.398555555555554
 10
15.23135555555556
 20
-8.433216666666668
 10
15.21980138888889
 20
-8.4745638888889
 10
15.2091736111111
 20
-8.516804166666663
 10
15.19968750000001
 20
-8.559163888888886
 10
15.11447361111112
 20
-8.511173611111113
 10
15.02733055555556
 20
-8.469244444444433
 10
14.94036111111111
 20
-8.434422222222212
 10
14.68106805555556
 20
-8.330601388888883
 10
14.40981111111111
 20
-8.260783333333341
 10
14.13915694444444
 20
-8.193820833333323
 10
13.88712048251515
 20
-8.131454166666673
 10
13.66669687697241
 20
-8.022519444444445
 10
13.45756944444444
 20
-7.868090277777784
 10
13.03089272636751
 20
-7.553020833333322
 10
12.70260106799419
 20
-7.076329166666672
 10
12.50824551734847
 20
-6.489561111111116
 10
12.50146218418649
 20
-6.468984722222217
 10
12.49445246214135
 20
-6.447976388888883
 10
12.4872385734347
 20
-6.426765277777778
 10
12.46324829626297
 20
-6.35650694444444
 10
12.43706218581337
 20
-6.279733333333334
 10
12.41836913073004
 20
-6.2033375
 10
12.77421634396281
 20
-6.639133333333334
 10
13.44966666666667
 20
-6.779295833333334
 10
13.9830375
 20
-6.762390277777778
 10
14.35581111111111
 20
-6.750061111111108
 10
14.69262083333333
 20
-6.748618055555552
 10
15.03745277777778
 20
-6.854086111111112
 10
15.27166944444444
 20
-6.925863888888885
 10
15.49526805555556
 20
-7.034195833333329
 10
15.70199444444444
 20
-7.176144444444439
 10
15.75945138888889
 20
-7.215316666666669
 10
15.81590555555556
 20
-7.257569444444445
 10
15.87019583333333
 20
-7.301943055555562
 10
15.86300277777778
 20
-7.309522222222212
 10
15.85589583333333
 20
-7.317145833333345
 10
15.84875694444444
 20
-7.324844444444452
 97
        0
 97
        0
 92
        1
 93
        1
 72
     4
 94
        3
 73
     0
 74
     1
 95
       44
 96
       40
 40
0.0
 40
0.0
 40
0.0
 40
0.0
 40
1.0
 40
1.0
 40
1.0
 40
2.0
 40
2.0
 40
2.0
 40
3.0
 40
3.0
 40
3.0
 40
4.0
 40
4.0
 40
4.0
 40
5.0
 40
5.0
 40
5.0
 40
6.0
 40
6.0
 40
6.0
 40
7.0
 40
7.0
 40
7.0
 40
8.0
 40
8.0
 40
8.0
 40
9.0
 40
9.0
 40
9.0
 40
10.0
 40
10.0
 40
10.0
 40
11.0
 40
11.0
 40
11.0
 40
12.0
 40
12.0
 40
12.0
 40
13.0
 40
13.0
 40
13.0
 40
13.0
 10
14.68618194444444
 20
-8.507856944444432
 10
14.70592916666667
 20
-8.514048611111118
 10
14.75067916666666
 20
-8.524384722222218
 10
14.77028749999999
 20
-8.530920833333337
 10
14.90645416666666
 20
-8.576004166666658
 10
15.03722638888889
 20
-8.636023611111113
 10
15.16949583333333
 20
-8.714216666666667
 10
15.14558055555555
 20
-8.858749999999999
 10
15.13348888888889
 20
-9.006858333333335
 10
15.13348888888889
 20
-9.154751388888876
 10
15.13348888888889
 20
-9.233741666666674
 10
15.13688055555556
 20
-9.312302777777782
 10
15.14352361111111
 20
-9.388569444444455
 10
15.07135972222222
 20
-9.403869444444455
 10
14.99964722222222
 20
-9.422195833333337
 10
14.93005694444444
 20
-9.443084722222212
 10
14.92034444444444
 20
-9.443687499999998
 10
14.91062083333333
 20
-9.44444166666666
 10
14.90090833333334
 20
-9.445195833333324
 10
14.47691388888889
 20
-9.478198611111111
 10
14.02073472222222
 20
-9.531175
 10
13.60762604513133
 20
-9.400466666666665
 10
13.53168299149426
 20
-9.376433333333326
 10
13.45783854891528
 20
-9.345272222222219
 10
13.38902327287592
 20
-9.304969444444446
 10
13.31374688588868
 20
-9.260983333333343
 10
13.14213300133512
 20
-9.147331944444456
 10
13.09438994698566
 20
-9.001862499999989
 10
13.33773716306041
 20
-9.018240277777775
 10
13.55589826866031
 20
-8.979454166666654
 10
13.75988020795173
 20
-8.883073611111108
 10
13.82134131751021
 20
-8.854098611111112
 10
13.88255381596385
 20
-8.823884722222221
 10
13.94285277777778
 20
-8.794080555555562
 10
14.13835972222222
 20
-8.697129166666677
 10
14.32663055555555
 20
-8.624577777777782
 10
14.52393611111111
 20
-8.551487499999995
 10
14.58312500000001
 20
-8.52956388888889
 10
14.62483888888889
 20
-8.519291666666655
 10
14.68618194444444
 20
-8.507856944444432
 97
        0
 97
        0
 92
        1
 93
        1
 72
     4
 94
        3
 73
     0
 74
     1
 95
       26
 96
       22
 40
0.0
 40
0.0
 40
0.0
 40
0.0
 40
1.0
 40
1.0
 40
1.0
 40
2.0
 40
2.0
 40
2.0
 40
3.0
 40
3.0
 40
3.0
 40
4.0
 40
4.0
 40
4.0
 40
5.0
 40
5.0
 40
5.0
 40
6.0
 40
6.0
 40
6.0
 40
7.0
 40
7.0
 40
7.0
 40
7.0
 10
14.95955972222223
 20
-9.590277777777777
 10
15.02420833333334
 20
-9.570347222222228
 10
15.09174305555555
 20
-9.55277500000001
 10
15.16055833333333
 20
-9.537936111111119
 10
15.16203333333333
 20
-9.548015277777772
 10
15.16354027777778
 20
-9.558093055555547
 10
15.16514583333333
 20
-9.568150000000008
 10
15.21059444444444
 20
-9.863816666666656
 10
15.30443472222222
 20
-10.14756388888888
 10
15.44431666666666
 20
-10.41235000000001
 10
15.36390416666667
 20
-10.39576805555556
 10
15.27643888888888
 20
-10.37669861111112
 10
15.17343611111111
 20
-10.35335416666668
 10
14.71530833333333
 20
-10.24910277777778
 10
14.3286875
 20
-10.19762222222223
 10
13.96113611111111
 20
-10.19237916666667
 10
14.068575
 20
-10.08131111111111
 10
14.17748888888889
 20
-9.988441666666656
 10
14.29272361111111
 20
-9.909450000000005
 10
14.49469166666667
 20
-9.771011111111116
 10
14.7190125
 20
-9.663637499999998
 10
14.95955972222223
 20
-9.590277777777777
 97
        0
 97
        0
 92
        1
 93
        1
 72
     4
 94
        3
 73
     0
 74
     1
 95
       38
 96
       34
 40
0.0
 40
0.0
 40
0.0
 40
0.0
 40
1.0
 40
1.0
 40
1.0
 40
2.0
 40
2.0
 40
2.0
 40
3.0
 40
3.0
 40
3.0
 40
4.0
 40
4.0
 40
4.0
 40
5.0
 40
5.0
 40
5.0
 40
6.0
 40
6.0
 40
6.0
 40
7.0
 40
7.0
 40
7.0
 40
8.0
 40
8.0
 40
8.0
 40
9.0
 40
9.0
 40
9.0
 40
10.0
 40
10.0
 40
10.0
 40
11.0
 40
11.0
 40
11.0
 40
11.0
 10
15.31183194444444
 20
-8.76504027777777
 10
15.33415277777778
 20
-8.623048611111118
 10
15.3684375
 20
-8.482972222222214
 10
15.41384444444444
 20
-8.34709722222222
 10
15.62350972222223
 20
-7.719820833333339
 10
16.08035694444445
 20
-7.193222222222225
 10
16.66441111111111
 20
-6.885915277777776
 10
17.31025
 20
-6.546091666666661
 10
18.10148472222221
 20
-6.51143055555556
 10
18.77849583333333
 20
-6.780211111111107
 10
19.49606805555555
 20
-7.065087500000004
 10
20.06753611111111
 20
-7.689876388888883
 10
20.28664444444444
 20
-8.430362500000001
 10
20.45794583333334
 20
-9.009313888888881
 10
20.4165875
 20
-9.643276388888882
 10
20.17044166666667
 20
-10.19458611111112
 10
20.16799722222221
 20
-10.20004583333333
 10
20.16518611111112
 20
-10.20588194444445
 10
20.1598888888889
 20
-10.2086486111111
 10
20.15425694444444
 20
-10.21158888888888
 10
20.14743055555555
 20
-10.21022083333332
 10
20.14124027777777
 20
-10.20877777777777
 10
19.65788333333333
 20
-10.09654722222222
 10
19.15757916666666
 20
-10.08590972222222
 10
18.66640555555556
 20
-10.14783333333334
 10
18.07469444444444
 20
-10.22243194444445
 10
17.51216388888889
 20
-10.43464999999999
 10
16.91820277777778
 20
-10.50359444444444
 10
16.48634861111111
 20
-10.55372777777777
 10
16.06189027777778
 20
-10.52832777777778
 10
15.63624861111111
 20
-10.44985277777778
 10
15.33904166666667
 20
-9.946943055555568
 10
15.22109305555556
 20
-9.342333333333322
 10
15.31183194444444
 20
-8.76504027777777
 97
        0
 97
        0
 92
        1
 93
        1
 72
     4
 94
        3
 73
     0
 74
     1
 95
       38
 96
       34
 40
0.0
 40
0.0
 40
0.0
 40
0.0
 40
1.0
 40
1.0
 40
1.0
 40
2.0
 40
2.0
 40
2.0
 40
3.0
 40
3.0
 40
3.0
 40
4.0
 40
4.0
 40
4.0
 40
5.0
 40
5.0
 40
5.0
 40
6.0
 40
6.0
 40
6.0
 40
7.0
 40
7.0
 40
7.0
 40
8.0
 40
8.0
 40
8.0
 40
9.0
 40
9.0
 40
9.0
 40
10.0
 40
10.0
 40
10.0
 40
11.0
 40
11.0
 40
11.0
 40
11.0
 10
19.04108472222222
 20
-4.565083333333328
 10
19.01413333333332
 20
-4.56782916666667
 10
18.9876236111111
 20
-4.817293055555561
 10
18.98480277777778
 20
-4.847172222222222
 10
18.97554166666666
 20
-4.945308333333338
 10
18.97692083333332
 20
-5.045134722222226
 10
18.99130555555555
 20
-5.142731944444449
 10
19.02289722222223
 20
-5.357016666666671
 10
19.08782638888889
 20
-5.56442222222222
 10
19.12746111111111
 20
-5.777113888888885
 10
19.17034861111112
 20
-6.007293055555553
 10
19.16970277777778
 20
-6.242477777777784
 10
19.14156666666668
 20
-6.474368055555551
 10
19.13011111111112
 20
-6.568734722222226
 10
19.11370138888888
 20
-6.664976388888893
 10
19.09285416666666
 20
-6.760872222222221
 10
19.09442638888888
 20
-6.753656944444439
 10
18.97398055555555
 20
-6.701951388888889
 10
18.96278194444443
 20
-6.696804166666665
 10
18.79764027777777
 20
-6.620904166666668
 10
18.62492777777778
 20
-6.561724999999998
 10
18.44787638888889
 20
-6.520658333333333
 10
18.42785972222221
 20
-6.516016666666663
 10
18.20829861111111
 20
-6.476273611111107
 10
18.20829861111111
 20
-6.476456944444445
 10
18.21010694444444
 20
-6.369104166666665
 10
18.2033125
 20
-6.267738888888895
 10
18.21694444444444
 20
-6.160998611111116
 10
18.27558472222222
 20
-5.702020833333336
 10
18.3489875
 20
-5.136798611111114
 10
18.68003611111112
 20
-4.784709722222222
 10
18.73905416666667
 20
-4.721966666666668
 10
18.88736666666667
 20
-4.580729166666666
 10
19.04108472222222
 20
-4.565083333333328
 97
        0
 97
        0
 92
        1
 93
        1
 72
     4
 94
        3
 73
     0
 74
     1
 95
       38
 96
       34
 40
0.0
 40
0.0
 40
0.0
 40
0.0
 40
1.0
 40
1.0
 40
1.0
 40
2.0
 40
2.0
 40
2.0
 40
3.0
 40
3.0
 40
3.0
 40
4.0
 40
4.0
 40
4.0
 40
5.0
 40
5.0
 40
5.0
 40
6.0
 40
6.0
 40
6.0
 40
7.0
 40
7.0
 40
7.0
 40
8.0
 40
8.0
 40
8.0
 40
9.0
 40
9.0
 40
9.0
 40
10.0
 40
10.0
 40
10.0
 40
11.0
 40
11.0
 40
11.0
 40
11.0
 10
21.08086111111111
 20
-8.2603861111111
 10
21.03151388888889
 20
-8.302013888888899
 10
20.98157361111112
 20
-8.341347222222213
 10
20.93232222222223
 20
-8.377429166666666
 10
20.91184305555556
 20
-8.380519444444442
 10
20.89136250000001
 20
-8.383319444444446
 10
20.87082916666668
 20
-8.385924999999991
 10
20.72925694444444
 20
-8.404455555555563
 10
20.58556388888888
 20
-8.407115277777772
 10
20.43221111111112
 20
-8.393990277777776
 10
20.36853194444443
 20
-8.17745416666667
 10
20.27771805555555
 20
-7.969575000000001
 10
20.16207500000001
 20
-7.775511111111099
 10
20.2198
 20
-7.73095555555556
 10
20.27666388888888
 20
-7.683233333333343
 10
20.33123333333333
 20
-7.633454166666676
 10
20.33123333333333
 20
-7.633454166666676
 10
20.38534027777779
 20
-7.602229166666675
 10
20.38534027777779
 20
-7.602229166666675
 10
20.82830833333333
 20
-7.344690277777772
 10
21.3310236111111
 20
-7.052274999999995
 10
21.77954722222221
 20
-7.089088888888884
 10
21.86646388888888
 20
-7.096259722222221
 10
22.07044444444444
 20
-7.124599999999999
 10
22.17641944444444
 20
-7.234451388888892
 10
21.94984722222221
 20
-7.325233333333345
 10
21.77033055555555
 20
-7.454927777777786
 10
21.62847916666667
 20
-7.630159722222212
 10
21.5856875
 20
-7.682984722222222
 10
21.5435763888889
 20
-7.736866666666653
 10
21.5017986111111
 20
-7.790499999999989
 10
21.36777361111111
 20
-7.962479166666677
 10
21.24117916666667
 20
-8.124929166666663
 10
21.08086111111111
 20
-8.2603861111111
 97
        0
 97
        0
 92
        1
 93
        1
 72
     4
 94
        3
 73
     0
 74
     1
 95
       44
 96
       40
 40
0.0
 40
0.0
 40
0.0
 40
0.0
 40
1.0
 40
1.0
 40
1.0
 40
2.0
 40
2.0
 40
2.0
 40
3.0
 40
3.0
 40
3.0
 40
4.0
 40
4.0
 40
4.0
 40
5.0
 40
5.0
 40
5.0
 40
6.0
 40
6.0
 40
6.0
 40
7.0
 40
7.0
 40
7.0
 40
8.0
 40
8.0
 40
8.0
 40
9.0
 40
9.0
 40
9.0
 40
10.0
 40
10.0
 40
10.0
 40
11.0
 40
11.0
 40
11.0
 40
12.0
 40
12.0
 40
12.0
 40
13.0
 40
13.0
 40
13.0
 40
13.0
 10
20.24110833333333
 20
-7.513255555555562
 10
20.19038333333333
 20
-7.560191666666671
 10
20.13682499999999
 20
-7.605716666666669
 10
20.08166249999999
 20
-7.648755555555554
 10
20.07583750000001
 20
-7.640140277777769
 10
20.06997916666667
 20
-7.631580555555551
 10
20.06411111111111
 20
-7.623213888888889
 10
19.84597083333334
 20
-7.306776388888895
 10
19.55736805555555
 20
-7.035391666666669
 10
19.22870972222222
 20
-6.837547222222219
 10
19.2719625
 20
-6.651441666666667
 10
19.29757916666666
 20
-6.473291666666669
 10
19.30696805555554
 20
-6.293752777777778
 10
19.39398055555555
 20
-6.143997222222222
 10
19.47498472222221
 20
-5.989526388888887
 10
19.55337361111111
 20
-5.840115277777778
 10
19.55337361111111
 20
-5.840115277777778
 10
19.63254722222223
 20
-5.689691666666666
 10
19.63254722222223
 20
-5.689691666666666
 10
19.72936944444445
 20
-5.506674999999998
 10
19.86699999999999
 20
-5.341866666666672
 10
20.06561944444444
 20
-5.171029166666661
 10
20.46795
 20
-4.825195833333333
 10
21.00572500000001
 20
-4.611222222222219
 10
21.62083333333334
 20
-4.55220555555555
 10
21.62083333333334
 20
-4.55220555555555
 10
21.68666666666667
 20
-4.545615277777781
 10
21.68666666666667
 20
-4.545615277777781
 10
21.76057499999999
 20
-4.537873611111106
 10
21.84125694444444
 20
-4.529388888888889
 10
21.91988194444444
 20
-4.528183333333332
 10
21.41533472222222
 20
-4.778248611111116
 10
21.12864722222222
 20
-5.404491666666672
 10
21.02679722222223
 20
-5.929205555555553
 10
20.95587083333334
 20
-6.295562499999997
 10
20.88251111111112
 20
-6.624241666666661
 10
20.70295138888888
 20
-6.936879166666661
 10
20.58076111111111
 20
-7.149591666666664
 10
20.42538472222223
 20
-7.343494444444458
 10
20.24110833333333
 20
-7.513255555555562
 97
        0
 97
        0
 92
        1
 93
        1
 72
     4
 94
        3
 73
     0
 74
     1
 95
       26
 96
       22
 40
0.0
 40
0.0
 40
0.0
 40
0.0
 40
1.0
 40
1.0
 40
1.0
 40
2.0
 40
2.0
 40
2.0
 40
3.0
 40
3.0
 40
3.0
 40
4.0
 40
4.0
 40
4.0
 40
5.0
 40
5.0
 40
5.0
 40
6.0
 40
6.0
 40
6.0
 40
7.0
 40
7.0
 40
7.0
 40
7.0
 10
20.36581944444444
 20
-10.11263472222223
 10
20.43679861111112
 20
-10.13022916666667
 10
20.50909166666666
 20
-10.14484027777778
 10
20.58112777777779
 20
-10.15611388888889
 10
20.5902361111111
 20
-10.15989305555556
 10
20.59940000000001
 20
-10.16351111111112
 10
20.60884305555555
 20
-10.16714999999999
 10
20.60884305555555
 20
-10.16714999999999
 10
20.639725
 20
-10.17899444444444
 10
20.639725
 20
-10.17899444444444
 10
20.910325
 20
-10.28419444444444
 10
21.21245138888889
 20
-10.40162499999999
 10
21.46454166666667
 20
-10.55337222222223
 10
21.24374166666666
 20
-10.50350833333333
 10
21.02372916666667
 20
-10.44211111111112
 10
20.80979861111112
 20
-10.38242638888889
 10
20.64636805555556
 20
-10.33683611111112
 10
20.47771527777778
 20
-10.28980416666668
 10
20.309925
 20
-10.24818750000001
 10
20.32985555555554
 20
-10.20339444444443
 10
20.34860138888888
 20
-10.15798749999999
 10
20.36581944444444
 20
-10.11263472222223
 97
        0
 97
        0
 92
        1
 93
        1
 72
     4
 94
        3
 73
     0
 74
     1
 95
       50
 96
       46
 40
0.0
 40
0.0
 40
0.0
 40
0.0
 40
1.0
 40
1.0
 40
1.0
 40
2.0
 40
2.0
 40
2.0
 40
3.0
 40
3.0
 40
3.0
 40
4.0
 40
4.0
 40
4.0
 40
5.0
 40
5.0
 40
5.0
 40
6.0
 40
6.0
 40
6.0
 40
7.0
 40
7.0
 40
7.0
 40
8.0
 40
8.0
 40
8.0
 40
9.0
 40
9.0
 40
9.0
 40
10.0
 40
10.0
 40
10.0
 40
11.0
 40
11.0
 40
11.0
 40
12.0
 40
12.0
 40
12.0
 40
13.0
 40
13.0
 40
13.0
 40
14.0
 40
14.0
 40
14.0
 40
15.0
 40
15.0
 40
15.0
 40
15.0
 10
20.61887777777777
 20
-10.01086944444445
 10
20.55225972222221
 20
-10.00081249999999
 10
20.48385277777778
 20
-9.987386111111112
 10
20.41512361111111
 20
-9.970933333333328
 10
20.41819305555555
 20
-9.961295833333326
 10
20.42126111111111
 20
-9.951605555555563
 10
20.42433055555555
 20
-9.941861111111114
 10
20.50177083333334
 20
-9.6878
 10
20.54102916666668
 20
-9.42297083333334
 10
20.54102916666668
 20
-9.154751388888876
 10
20.54102916666668
 20
-9.030202777777781
 10
20.53232916666666
 20
-8.904286111111105
 10
20.51514305555555
 20
-8.780491666666673
 10
20.51014722222223
 20
-8.744656944444436
 10
20.50460277777777
 20
-8.709059722222213
 10
20.49819583333333
 20
-8.673968055555557
 10
20.49058333333333
 20
-8.631554166666673
 10
20.48183888888889
 20
-8.58896944444445
 10
20.47212777777779
 20
-8.546975
 10
20.79979583333334
 20
-8.567519444444441
 10
21.12679583333334
 20
-8.51183055555556
 10
21.44702361111111
 20
-8.44826944444445
 10
21.59361249999998
 20
-8.419163888888887
 10
21.73962083333334
 20
-8.378861111111114
 10
21.8892263888889
 20
-8.373670833333335
 10
22.04076944444445
 20
-8.368416666666665
 10
22.19243055555555
 20
-8.38515972222222
 10
22.34118472222222
 20
-8.413350000000012
 10
22.86222777777779
 20
-8.512088888888886
 10
23.36490000000001
 20
-8.799141666666678
 10
23.79485
 20
-9.243551388888893
 10
23.79485
 20
-9.243551388888893
 10
23.84090277777778
 20
-9.290562500000002
 10
23.84090277777778
 20
-9.290562500000002
 10
23.8930388888889
 20
-9.343711111111107
 10
23.95004305555555
 20
-9.401759722222222
 10
23.99988611111111
 20
-9.462380555555557
 10
23.48979305555556
 20
-9.223663888888899
 10
22.82145000000001
 20
-9.390033333333323
 10
22.3477736111111
 20
-9.637719444444453
 10
22.01665
 20
-9.810647222222213
 10
21.71360694444444
 20
-9.958194444444441
 10
21.35806111111111
 20
-10.01253888888889
 10
21.11540416666667
 20
-10.04963333333333
 10
20.86675833333334
 20
-10.04908472222223
 10
20.61887777777777
 20
-10.01086944444445
 97
        0
 97
        0
 75
     2
 76
     1
 98
        0
  0
SPLINE
  5
4E
330
1F
100
AcDbEntity
  8
Layer 1
370
     0
100
AcDbSpline
210
0.0
220
0.0
230
1.0
 70
    11
 71
     3
 72
    98
 73
    94
 74
     0
 42
0.0000000001
 43
0.0000000001
 12
1.0
 22
0.0
 32
0.0
 13
1.0
 23
0.0
 33
0.0
 40
0.0
 40
0.0
 40
0.0
 40
0.0
 40
1.0
 40
1.0
 40
1.0
 40
2.0
 40
2.0
 40
2.0
 40
3.0
 40
3.0
 40
3.0
 40
4.0
 40
4.0
 40
4.0
 40
5.0
 40
5.0
 40
5.0
 40
6.0
 40
6.0
 40
6.0
 40
7.0
 40
7.0
 40
7.0
 40
8.0
 40
8.0
 40
8.0
 40
9.0
 40
9.0
 40
9.0
 40
10.0
 40
10.0
 40
10.0
 40
11.0
 40
11.0
 40
11.0
 40
12.0
 40
12.0
 40
12.0
 40
13.0
 40
13.0
 40
13.0
 40
14.0
 40
14.0
 40
14.0
 40
15.0
 40
15.0
 40
15.0
 40
16.0
 40
16.0
 40
16.0
 40
17.0
 40
17.0
 40
17.0
 40
18.0
 40
18.0
 40
18.0
 40
19.0
 40
19.0
 40
19.0
 40
20.0
 40
20.0
 40
20.0
 40
21.0
 40
21.0
 40
21.0
 40
22.0
 40
22.0
 40
22.0
 40
23.0
 40
23.0
 40
23.0
 40
24.0
 40
24.0
 40
24.0
 40
25.0
 40
25.0
 40
25.0
 40
26.0
 40
26.0
 40
26.0
 40
27.0
 40
27.0
 40
27.0
 40
28.0
 40
28.0
 40
28.0
 40
29.0
 40
29.0
 40
29.0
 40
30.0
 40
30.0
 40
30.0
 40
31.0
 40
31.0
 40
31.0
 40
31.0
 10
13.52983021376329
 20
-10.61438194444445
 30
0.0
 10
13.87430659394997
 20
-10.63488333333334
 30
0.0
 10
14.14047083333334
 20
-10.67722083333332
 30
0.0
 10
14.44849861111111
 20
-10.76049722222223
 30
0.0
 10
14.62192083333333
 20
-10.8074125
 30
0.0
 10
14.79736805555555
 20
-10.86250972222223
 30
0.0
 10
14.96703194444444
 20
-10.91581944444445
 30
0.0
 10
15.13275694444444
 20
-10.96787083333334
 30
0.0
 10
15.30411111111111
 20
-11.02170833333333
 30
0.0
 10
15.47391666666667
 20
-11.06800833333333
 30
0.0
 10
15.79601805555555
 20
-11.15584027777777
 30
0.0
 10
16.11596527777778
 20
-11.20021388888889
 30
0.0
 10
16.42665277777778
 20
-11.20019166666667
 30
0.0
 10
16.45996805555555
 20
-11.20019166666667
 30
0.0
 10
16.49318611111111
 20
-11.1996861111111
 30
0.0
 10
16.52626388888888
 20
-11.19868472222222
 30
0.0
 10
16.79164166666667
 20
-11.19047916666667
 30
0.0
 10
17.04185833333333
 20
-11.14807638888889
 30
0.0
 10
17.26997916666667
 20
-11.07268194444444
 30
0.0
 10
17.26997916666667
 20
-11.07268194444444
 30
0.0
 10
17.33495138888889
 20
-11.05119027777778
 30
0.0
 10
17.33495138888889
 20
-11.05119027777778
 30
0.0
 10
17.76322083333333
 20
-10.90943472222223
 30
0.0
 10
18.20609166666667
 20
-10.76285555555556
 30
0.0
 10
18.65923333333333
 20
-10.70119027777777
 30
0.0
 10
19.16080833333333
 20
-10.6329125
 30
0.0
 10
19.65619305555555
 20
-10.72272500000001
 30
0.0
 10
20.11799305555557
 20
-10.83026111111111
 30
0.0
 10
20.27863333333335
 20
-10.86766805555557
 30
0.0
 10
20.4447236111111
 20
-10.90635555555557
 30
0.0
 10
20.61040416666666
 20
-10.93487916666666
 30
0.0
 10
20.6149375
 20
-10.93566527777777
 30
0.0
 10
21.09176944444446
 20
-11.02493888888888
 30
0.0
 10
21.46866666666667
 20
-11.03385416666667
 30
0.0
 10
21.80524999999999
 20
-11.04179999999999
 30
0.0
 10
21.87901805555556
 20
-11.01039166666667
 30
0.0
 10
21.90898472222223
 20
-10.98099583333333
 30
0.0
 10
21.92240138888888
 20
-10.96780555555556
 30
0.0
 10
21.93162916666668
 20
-10.955725
 30
0.0
 10
21.93024027777778
 20
-10.93822777777778
 30
0.0
 10
21.92877500000001
 20
-10.91985833333332
 30
0.0
 10
21.92379027777777
 20
-10.90594583333334
 30
0.0
 10
21.90898472222223
 20
-10.89277777777779
 30
0.0
 10
21.87557222222222
 20
-10.86308055555555
 30
0.0
 10
21.8117
 20
-10.8699611111111
 30
0.0
 10
21.75612777777777
 20
-10.87378333333332
 30
0.0
 10
21.74571527777779
 20
-10.87449444444446
 30
0.0
 10
21.73149166666667
 20
-10.87561388888889
 30
0.0
 10
21.72465416666667
 20
-10.87602361111112
 30
0.0
 10
21.22522222222223
 20
-10.90646250000001
 30
0.0
 10
20.71642222222221
 20
-10.80684166666667
 30
0.0
 10
20.26676805555556
 20
-10.70702638888888
 30
0.0
 10
19.79895972222223
 20
-10.60322638888889
 30
0.0
 10
19.25469166666666
 20
-10.49613194444444
 30
0.0
 10
18.71742222222221
 20
-10.5406125
 30
0.0
 10
18.33347222222222
 20
-10.57234583333333
 30
0.0
 10
17.96385277777777
 20
-10.69284444444444
 30
0.0
 10
17.60642361111111
 20
-10.80938194444444
 30
0.0
 10
17.47891388888888
 20
-10.85094583333332
 30
0.0
 10
17.34709722222222
 20
-10.89391944444444
 30
0.0
 10
17.21692777777778
 20
-10.93209027777779
 30
0.0
 10
16.89895138888889
 20
-11.02530416666668
 30
0.0
 10
16.54413750000001
 20
-11.05948055555556
 30
0.0
 10
16.16269583333333
 20
-11.03329444444444
 30
0.0
 10
15.92004861111112
 20
-11.01673333333333
 30
0.0
 10
15.6744625
 20
-10.94995277777778
 30
0.0
 10
15.43694027777778
 20
-10.8854013888889
 30
0.0
 10
15.43694027777778
 20
-10.8854013888889
 30
0.0
 10
15.41975555555556
 20
-10.88072916666667
 30
0.0
 10
15.41975555555556
 20
-10.88072916666667
 30
0.0
 10
15.26122361111111
 20
-10.83763611111112
 30
0.0
 10
15.10360833333334
 20
-10.78601666666666
 30
0.0
 10
14.95122638888889
 20
-10.73611944444444
 30
0.0
 10
14.78032222222221
 20
-10.68016111111112
 30
0.0
 10
14.60364861111111
 20
-10.62230694444444
 30
0.0
 10
14.42348611111111
 20
-10.57567222222221
 30
0.0
 10
14.17153472222223
 20
-10.51039999999999
 30
0.0
 10
13.93136388888889
 20
-10.47051666666668
 30
0.0
 10
13.70989687588109
 20
-10.45363333333333
 30
0.0
 10
13.7063760426367
 20
-10.45336388888889
 30
0.0
 10
13.69935520948072
 20
-10.45277083333334
 30
0.0
 10
13.69584409845831
 20
-10.45248055555557
 30
0.0
 10
13.59350937882128
 20
-10.44402777777777
 30
0.0
 10
13.46985521527838
 20
-10.44036666666668
 30
0.0
 10
13.42030243875241
 20
-10.48877777777779
 30
0.0
 10
13.40456077248341
 20
-10.50416527777778
 30
0.0
 10
13.39693716156489
 20
-10.52403055555556
 30
0.0
 10
13.39826077264257
 20
-10.54629861111112
 30
0.0
 10
13.40039271703315
 20
-10.57979583333334
 30
0.0
 10
13.42272466091345
 20
-10.60299999999999
 30
0.0
 10
13.46443854874855
 20
-10.60891250000001
 30
0.0
 10
13.48067604833836
 20
-10.61120555555554
 30
0.0
 10
13.52983021376329
 20
-10.61438194444445
 30
0.0
 10
13.52983021376329
 20
-10.61438194444445
 30
0.0
  0
HATCH
  5
4F
330
1F
100
AcDbEntity
  8
Layer 1
 62
     7
420
 16777215
100
AcDbHatch
 10
0.0
 20
0.0
 30
0.0
210
0.0
220
0.0
230
1.0
  2
SOLID
 70
     1
 71
     0
 91
        1
 92
        1
 93
        1
 72
     4
 94
        3
 73
     0
 74
     1
 95
       98
 96
       94
 40
0.0
 40
0.0
 40
0.0
 40
0.0
 40
1.0
 40
1.0
 40
1.0
 40
2.0
 40
2.0
 40
2.0
 40
3.0
 40
3.0
 40
3.0
 40
4.0
 40
4.0
 40
4.0
 40
5.0
 40
5.0
 40
5.0
 40
6.0
 40
6.0
 40
6.0
 40
7.0
 40
7.0
 40
7.0
 40
8.0
 40
8.0
 40
8.0
 40
9.0
 40
9.0
 40
9.0
 40
10.0
 40
10.0
 40
10.0
 40
11.0
 40
11.0
 40
11.0
 40
12.0
 40
12.0
 40
12.0
 40
13.0
 40
13.0
 40
13.0
 40
14.0
 40
14.0
 40
14.0
 40
15.0
 40
15.0
 40
15.0
 40
16.0
 40
16.0
 40
16.0
 40
17.0
 40
17.0
 40
17.0
 40
18.0
 40
18.0
 40
18.0
 40
19.0
 40
19.0
 40
19.0
 40
20.0
 40
20.0
 40
20.0
 40
21.0
 40
21.0
 40
21.0
 40
22.0
 40
22.0
 40
22.0
 40
23.0
 40
23.0
 40
23.0
 40
24.0
 40
24.0
 40
24.0
 40
25.0
 40
25.0
 40
25.0
 40
26.0
 40
26.0
 40
26.0
 40
27.0
 40
27.0
 40
27.0
 40
28.0
 40
28.0
 40
28.0
 40
29.0
 40
29.0
 40
29.0
 40
30.0
 40
30.0
 40
30.0
 40
31.0
 40
31.0
 40
31.0
 40
31.0
 10
13.52983021376329
 20
-10.61438194444445
 10
13.87430659394997
 20
-10.63488333333334
 10
14.14047083333334
 20
-10.67722083333332
 10
14.44849861111111
 20
-10.76049722222223
 10
14.62192083333333
 20
-10.8074125
 10
14.79736805555555
 20
-10.86250972222223
 10
14.96703194444444
 20
-10.91581944444445
 10
15.13275694444444
 20
-10.96787083333334
 10
15.30411111111111
 20
-11.02170833333333
 10
15.47391666666667
 20
-11.06800833333333
 10
15.79601805555555
 20
-11.15584027777777
 10
16.11596527777778
 20
-11.20021388888889
 10
16.42665277777778
 20
-11.20019166666667
 10
16.45996805555555
 20
-11.20019166666667
 10
16.49318611111111
 20
-11.1996861111111
 10
16.52626388888888
 20
-11.19868472222222
 10
16.79164166666667
 20
-11.19047916666667
 10
17.04185833333333
 20
-11.14807638888889
 10
17.26997916666667
 20
-11.07268194444444
 10
17.26997916666667
 20
-11.07268194444444
 10
17.33495138888889
 20
-11.05119027777778
 10
17.33495138888889
 20
-11.05119027777778
 10
17.76322083333333
 20
-10.90943472222223
 10
18.20609166666667
 20
-10.76285555555556
 10
18.65923333333333
 20
-10.70119027777777
 10
19.16080833333333
 20
-10.6329125
 10
19.65619305555555
 20
-10.72272500000001
 10
20.11799305555557
 20
-10.83026111111111
 10
20.27863333333335
 20
-10.86766805555557
 10
20.4447236111111
 20
-10.90635555555557
 10
20.61040416666666
 20
-10.93487916666666
 10
20.6149375
 20
-10.93566527777777
 10
21.09176944444446
 20
-11.02493888888888
 10
21.46866666666667
 20
-11.03385416666667
 10
21.80524999999999
 20
-11.04179999999999
 10
21.87901805555556
 20
-11.01039166666667
 10
21.90898472222223
 20
-10.98099583333333
 10
21.92240138888888
 20
-10.96780555555556
 10
21.93162916666668
 20
-10.955725
 10
21.93024027777778
 20
-10.93822777777778
 10
21.92877500000001
 20
-10.91985833333332
 10
21.92379027777777
 20
-10.90594583333334
 10
21.90898472222223
 20
-10.89277777777779
 10
21.87557222222222
 20
-10.86308055555555
 10
21.8117
 20
-10.8699611111111
 10
21.75612777777777
 20
-10.87378333333332
 10
21.74571527777779
 20
-10.87449444444446
 10
21.73149166666667
 20
-10.87561388888889
 10
21.72465416666667
 20
-10.87602361111112
 10
21.22522222222223
 20
-10.90646250000001
 10
20.71642222222221
 20
-10.80684166666667
 10
20.26676805555556
 20
-10.70702638888888
 10
19.79895972222223
 20
-10.60322638888889
 10
19.25469166666666
 20
-10.49613194444444
 10
18.71742222222221
 20
-10.5406125
 10
18.33347222222222
 20
-10.57234583333333
 10
17.96385277777777
 20
-10.69284444444444
 10
17.60642361111111
 20
-10.80938194444444
 10
17.47891388888888
 20
-10.85094583333332
 10
17.34709722222222
 20
-10.89391944444444
 10
17.21692777777778
 20
-10.93209027777779
 10
16.89895138888889
 20
-11.02530416666668
 10
16.54413750000001
 20
-11.05948055555556
 10
16.16269583333333
 20
-11.03329444444444
 10
15.92004861111112
 20
-11.01673333333333
 10
15.6744625
 20
-10.94995277777778
 10
15.43694027777778
 20
-10.8854013888889
 10
15.43694027777778
 20
-10.8854013888889
 10
15.41975555555556
 20
-10.88072916666667
 10
15.41975555555556
 20
-10.88072916666667
 10
15.26122361111111
 20
-10.83763611111112
 10
15.10360833333334
 20
-10.78601666666666
 10
14.95122638888889
 20
-10.73611944444444
 10
14.78032222222221
 20
-10.68016111111112
 10
14.60364861111111
 20
-10.62230694444444
 10
14.42348611111111
 20
-10.57567222222221
 10
14.17153472222223
 20
-10.51039999999999
 10
13.93136388888889
 20
-10.47051666666668
 10
13.70989687588109
 20
-10.45363333333333
 10
13.7063760426367
 20
-10.45336388888889
 10
13.69935520948072
 20
-10.45277083333334
 10
13.69584409845831
 20
-10.45248055555557
 10
13.59350937882128
 20
-10.44402777777777
 10
13.46985521527838
 20
-10.44036666666668
 10
13.42030243875241
 20
-10.48877777777779
 10
13.40456077248341
 20
-10.50416527777778
 10
13.39693716156489
 20
-10.52403055555556
 10
13.39826077264257
 20
-10.54629861111112
 10
13.40039271703315
 20
-10.57979583333334
 10
13.42272466091345
 20
-10.60299999999999
 10
13.46443854874855
 20
-10.60891250000001
 10
13.48067604833836
 20
-10.61120555555554
 10
13.52983021376329
 20
-10.61438194444445
 10
13.52983021376329
 20
-10.61438194444445
 97
        0
 97
        0
 75
     2
 76
     1
 98
        0
  0
SPLINE
  5
50
330
1F
100
AcDbEntity
  8
Layer 1
370
     0
100
AcDbSpline
210
0.0
220
0.0
230
1.0
 70
    11
 71
     3
 72
    89
 73
    85
 74
     0
 42
0.0000000001
 43
0.0000000001
 12
1.0
 22
0.0
 32
0.0
 13
1.0
 23
0.0
 33
0.0
 40
0.0
 40
0.0
 40
0.0
 40
0.0
 40
1.0
 40
1.0
 40
1.0
 40
2.0
 40
2.0
 40
2.0
 40
3.0
 40
3.0
 40
3.0
 40
4.0
 40
4.0
 40
4.0
 40
5.0
 40
5.0
 40
5.0
 40
6.0
 40
6.0
 40
6.0
 40
7.0
 40
7.0
 40
7.0
 40
8.0
 40
8.0
 40
8.0
 40
9.0
 40
9.0
 40
9.0
 40
10.0
 40
10.0
 40
10.0
 40
11.0
 40
11.0
 40
11.0
 40
12.0
 40
12.0
 40
12.0
 40
13.0
 40
13.0
 40
13.0
 40
14.0
 40
14.0
 40
14.0
 40
15.0
 40
15.0
 40
15.0
 40
16.0
 40
16.0
 40
16.0
 40
17.0
 40
17.0
 40
17.0
 40
18.0
 40
18.0
 40
18.0
 40
19.0
 40
19.0
 40
19.0
 40
20.0
 40
20.0
 40
20.0
 40
21.0
 40
21.0
 40
21.0
 40
22.0
 40
22.0
 40
22.0
 40
23.0
 40
23.0
 40
23.0
 40
24.0
 40
24.0
 40
24.0
 40
25.0
 40
25.0
 40
25.0
 40
26.0
 40
26.0
 40
26.0
 40
27.0
 40
27.0
 40
27.0
 40
28.0
 40
28.0
 40
28.0
 40
28.0
 10
21.59723055555554
 20
-11.16719999999999
 30
0.0
 10
21.56011527777779
 20
-11.14379166666668
 30
0.0
 10
21.50156111111111
 20
-11.15588333333332
 30
0.0
 10
21.48438749999999
 20
-11.16019027777778
 30
0.0
 10
21.46898888888889
 20
-11.16413055555555
 30
0.0
 10
21.45336527777777
 20
-11.1675013888889
 30
0.0
 10
21.437375
 20
-11.17024722222221
 30
0.0
 10
21.26198194444444
 20
-11.20055833333332
 30
0.0
 10
21.09130555555556
 20
-11.1828013888889
 30
0.0
 10
20.90221666666667
 20
-11.15845694444445
 30
0.0
 10
20.7075388888889
 20
-11.13336805555557
 30
0.0
 10
20.51134305555555
 20
-11.09533749999999
 30
0.0
 10
20.32160694444443
 20
-11.05856527777779
 30
0.0
 10
20.14846527777778
 20
-11.02500277777777
 30
0.0
 10
19.96935694444445
 20
-10.99030000000001
 30
0.0
 10
19.79144444444445
 20
-10.96539444444445
 30
0.0
 10
19.37582638888888
 20
-10.90720555555554
 30
0.0
 10
19.03269583333334
 20
-10.90915555555554
 30
0.0
 10
18.71169305555557
 20
-10.97150972222223
 30
0.0
 10
18.49785972222222
 20
-11.0130513888889
 30
0.0
 10
18.28361805555556
 20
-11.07731250000001
 30
0.0
 10
18.07642777777778
 20
-11.13944166666667
 30
0.0
 10
17.96811666666667
 20
-11.17192638888888
 30
0.0
 10
17.85609166666667
 20
-11.20553194444445
 30
0.0
 10
17.74575555555556
 20
-11.23533749999999
 30
0.0
 10
17.39790972222222
 20
-11.32938055555554
 30
0.0
 10
17.06764583333333
 20
-11.36770277777777
 30
0.0
 10
16.73629583333334
 20
-11.35264999999999
 30
0.0
 10
16.66468055555556
 20
-11.34937638888889
 30
0.0
 10
16.59311944444444
 20
-11.34484305555556
 30
0.0
 10
16.52159027777778
 20
-11.34037499999999
 30
0.0
 10
16.50830277777777
 20
-11.33954583333333
 30
0.0
 10
16.49456388888888
 20
-11.3382111111111
 30
0.0
 10
16.48063055555556
 20
-11.33688611111112
 30
0.0
 10
16.42867638888889
 20
-11.33195416666667
 30
0.0
 10
16.366925
 20
-11.33038194444445
 30
0.0
 10
16.31742638888889
 20
-11.34452083333334
 30
0.0
 10
16.29239166666667
 20
-11.35166944444445
 30
0.0
 10
16.27650972222222
 20
-11.36621666666666
 30
0.0
 10
16.26890833333333
 20
-11.38373611111112
 30
0.0
 10
16.26194166666667
 20
-11.39990833333334
 30
0.0
 10
16.26275972222222
 20
-11.41825694444444
 30
0.0
 10
16.27193333333333
 20
-11.43821944444443
 30
0.0
 10
16.28800972222223
 20
-11.47322500000001
 30
0.0
 10
16.36530972222223
 20
-11.48135416666666
 30
0.0
 10
16.38862222222222
 20
-11.4830013888889
 30
0.0
 10
16.43343611111111
 20
-11.48618888888889
 30
0.0
 10
16.47728194444445
 20
-11.4895375
 30
0.0
 10
16.52044861111111
 20
-11.49283333333334
 30
0.0
 10
16.67751527777778
 20
-11.50479583333335
 30
0.0
 10
16.82816527777777
 20
-11.51626249999999
 30
0.0
 10
16.98032083333333
 20
-11.51626249999999
 30
0.0
 10
17.03484861111111
 20
-11.51626249999999
 30
0.0
 10
17.08964444444445
 20
-11.51479861111112
 30
0.0
 10
17.14490416666667
 20
-11.51134166666667
 30
0.0
 10
17.43539166666667
 20
-11.49317777777777
 30
0.0
 10
17.71749166666667
 20
-11.40443055555556
 30
0.0
 10
17.9902875
 20
-11.31861388888888
 30
0.0
 10
18.09956805555556
 20
-11.28422222222222
 30
0.0
 10
18.21255138888889
 20
-11.24868888888889
 30
0.0
 10
18.32430833333334
 20
-11.21827083333334
 30
0.0
 10
18.74675277777778
 20
-11.10324027777779
 30
0.0
 10
19.16625694444443
 20
-11.05760694444444
 30
0.0
 10
19.57115000000001
 20
-11.08264166666666
 30
0.0
 10
19.83158611111111
 20
-11.09875000000001
 30
0.0
 10
20.08999722222223
 20
-11.15478472222223
 30
0.0
 10
20.33989027777779
 20
-11.20896666666666
 30
0.0
 10
20.44907361111111
 20
-11.23265555555556
 30
0.0
 10
20.56197222222221
 20
-11.25711944444444
 30
0.0
 10
20.67395416666666
 20
-11.27808472222222
 30
0.0
 10
20.77200416666667
 20
-11.29641111111111
 30
0.0
 10
20.85979166666667
 20
-11.30978472222222
 30
0.0
 10
20.94244444444444
 20
-11.31892638888889
 30
0.0
 10
21.16168194444445
 20
-11.34321666666667
 30
0.0
 10
21.36044166666668
 20
-11.33704722222223
 30
0.0
 10
21.53322916666666
 20
-11.30062083333334
 30
0.0
 10
21.59457083333334
 20
-11.28763472222221
 30
0.0
 10
21.63004027777778
 20
-11.25395416666667
 30
0.0
 10
21.62559305555556
 20
-11.21144444444445
 30
0.0
 10
21.62559305555556
 20
-11.21144444444445
 30
0.0
 10
21.62476388888889
 20
-11.20653333333333
 30
0.0
 10
21.62476388888889
 20
-11.20653333333333
 30
0.0
 10
21.62138333333334
 20
-11.18999444444444
 30
0.0
 10
21.61185277777779
 20
-11.17641666666666
 30
0.0
 10
21.59723055555554
 20
-11.16719999999999
 30
0.0
  0
HATCH
  5
51
330
1F
100
AcDbEntity
  8
Layer 1
 62
     7
420
 16777215
100
AcDbHatch
 10
0.0
 20
0.0
 30
0.0
210
0.0
220
0.0
230
1.0
  2
SOLID
 70
     1
 71
     0
 91
        1
 92
        1
 93
        1
 72
     4
 94
        3
 73
     0
 74
     1
 95
       89
 96
       85
 40
0.0
 40
0.0
 40
0.0
 40
0.0
 40
1.0
 40
1.0
 40
1.0
 40
2.0
 40
2.0
 40
2.0
 40
3.0
 40
3.0
 40
3.0
 40
4.0
 40
4.0
 40
4.0
 40
5.0
 40
5.0
 40
5.0
 40
6.0
 40
6.0
 40
6.0
 40
7.0
 40
7.0
 40
7.0
 40
8.0
 40
8.0
 40
8.0
 40
9.0
 40
9.0
 40
9.0
 40
10.0
 40
10.0
 40
10.0
 40
11.0
 40
11.0
 40
11.0
 40
12.0
 40
12.0
 40
12.0
 40
13.0
 40
13.0
 40
13.0
 40
14.0
 40
14.0
 40
14.0
 40
15.0
 40
15.0
 40
15.0
 40
16.0
 40
16.0
 40
16.0
 40
17.0
 40
17.0
 40
17.0
 40
18.0
 40
18.0
 40
18.0
 40
19.0
 40
19.0
 40
19.0
 40
20.0
 40
20.0
 40
20.0
 40
21.0
 40
21.0
 40
21.0
 40
22.0
 40
22.0
 40
22.0
 40
23.0
 40
23.0
 40
23.0
 40
24.0
 40
24.0
 40
24.0
 40
25.0
 40
25.0
 40
25.0
 40
26.0
 40
26.0
 40
26.0
 40
27.0
 40
27.0
 40
27.0
 40
28.0
 40
28.0
 40
28.0
 40
28.0
 10
21.59723055555554
 20
-11.16719999999999
 10
21.56011527777779
 20
-11.14379166666668
 10
21.50156111111111
 20
-11.15588333333332
 10
21.48438749999999
 20
-11.16019027777778
 10
21.46898888888889
 20
-11.16413055555555
 10
21.45336527777777
 20
-11.1675013888889
 10
21.437375
 20
-11.17024722222221
 10
21.26198194444444
 20
-11.20055833333332
 10
21.09130555555556
 20
-11.1828013888889
 10
20.90221666666667
 20
-11.15845694444445
 10
20.7075388888889
 20
-11.13336805555557
 10
20.51134305555555
 20
-11.09533749999999
 10
20.32160694444443
 20
-11.05856527777779
 10
20.14846527777778
 20
-11.02500277777777
 10
19.96935694444445
 20
-10.99030000000001
 10
19.79144444444445
 20
-10.96539444444445
 10
19.37582638888888
 20
-10.90720555555554
 10
19.03269583333334
 20
-10.90915555555554
 10
18.71169305555557
 20
-10.97150972222223
 10
18.49785972222222
 20
-11.0130513888889
 10
18.28361805555556
 20
-11.07731250000001
 10
18.07642777777778
 20
-11.13944166666667
 10
17.96811666666667
 20
-11.17192638888888
 10
17.85609166666667
 20
-11.20553194444445
 10
17.74575555555556
 20
-11.23533749999999
 10
17.39790972222222
 20
-11.32938055555554
 10
17.06764583333333
 20
-11.36770277777777
 10
16.73629583333334
 20
-11.35264999999999
 10
16.66468055555556
 20
-11.34937638888889
 10
16.59311944444444
 20
-11.34484305555556
 10
16.52159027777778
 20
-11.34037499999999
 10
16.50830277777777
 20
-11.33954583333333
 10
16.49456388888888
 20
-11.3382111111111
 10
16.48063055555556
 20
-11.33688611111112
 10
16.42867638888889
 20
-11.33195416666667
 10
16.366925
 20
-11.33038194444445
 10
16.31742638888889
 20
-11.34452083333334
 10
16.29239166666667
 20
-11.35166944444445
 10
16.27650972222222
 20
-11.36621666666666
 10
16.26890833333333
 20
-11.38373611111112
 10
16.26194166666667
 20
-11.39990833333334
 10
16.26275972222222
 20
-11.41825694444444
 10
16.27193333333333
 20
-11.43821944444443
 10
16.28800972222223
 20
-11.47322500000001
 10
16.36530972222223
 20
-11.48135416666666
 10
16.38862222222222
 20
-11.4830013888889
 10
16.43343611111111
 20
-11.48618888888889
 10
16.47728194444445
 20
-11.4895375
 10
16.52044861111111
 20
-11.49283333333334
 10
16.67751527777778
 20
-11.50479583333335
 10
16.82816527777777
 20
-11.51626249999999
 10
16.98032083333333
 20
-11.51626249999999
 10
17.03484861111111
 20
-11.51626249999999
 10
17.08964444444445
 20
-11.51479861111112
 10
17.14490416666667
 20
-11.51134166666667
 10
17.43539166666667
 20
-11.49317777777777
 10
17.71749166666667
 20
-11.40443055555556
 10
17.9902875
 20
-11.31861388888888
 10
18.09956805555556
 20
-11.28422222222222
 10
18.21255138888889
 20
-11.24868888888889
 10
18.32430833333334
 20
-11.21827083333334
 10
18.74675277777778
 20
-11.10324027777779
 10
19.16625694444443
 20
-11.05760694444444
 10
19.57115000000001
 20
-11.08264166666666
 10
19.83158611111111
 20
-11.09875000000001
 10
20.08999722222223
 20
-11.15478472222223
 10
20.33989027777779
 20
-11.20896666666666
 10
20.44907361111111
 20
-11.23265555555556
 10
20.56197222222221
 20
-11.25711944444444
 10
20.67395416666666
 20
-11.27808472222222
 10
20.77200416666667
 20
-11.29641111111111
 10
20.85979166666667
 20
-11.30978472222222
 10
20.94244444444444
 20
-11.31892638888889
 10
21.16168194444445
 20
-11.34321666666667
 10
21.36044166666668
 20
-11.33704722222223
 10
21.53322916666666
 20
-11.30062083333334
 10
21.59457083333334
 20
-11.28763472222221
 10
21.63004027777778
 20
-11.25395416666667
 10
21.62559305555556
 20
-11.21144444444445
 10
21.62559305555556
 20
-11.21144444444445
 10
21.62476388888889
 20
-11.20653333333333
 10
21.62476388888889
 20
-11.20653333333333
 10
21.62138333333334
 20
-11.18999444444444
 10
21.61185277777779
 20
-11.17641666666666
 10
21.59723055555554
 20
-11.16719999999999
 97
        0
 97
        0
 75
     2
 76
     1
 98
        0
  0
SPLINE
  5
52
330
1F
100
AcDbEntity
  8
Layer 1
370
     0
100
AcDbSpline
210
0.0
220
0.0
230
1.0
 70
    11
 71
     3
 72
    47
 73
    43
 74
     0
 42
0.0000000001
 43
0.0000000001
 12
1.0
 22
0.0
 32
0.0
 13
1.0
 23
0.0
 33
0.0
 40
0.0
 40
0.0
 40
0.0
 40
0.0
 40
1.0
 40
1.0
 40
1.0
 40
2.0
 40
2.0
 40
2.0
 40
3.0
 40
3.0
 40
3.0
 40
4.0
 40
4.0
 40
4.0
 40
5.0
 40
5.0
 40
5.0
 40
6.0
 40
6.0
 40
6.0
 40
7.0
 40
7.0
 40
7.0
 40
8.0
 40
8.0
 40
8.0
 40
9.0
 40
9.0
 40
9.0
 40
10.0
 40
10.0
 40
10.0
 40
11.0
 40
11.0
 40
11.0
 40
12.0
 40
12.0
 40
12.0
 40
13.0
 40
13.0
 40
13.0
 40
14.0
 40
14.0
 40
14.0
 40
14.0
 10
20.33475416666667
 20
-11.34793333333333
 30
0.0
 10
20.00322083333334
 20
-11.44884722222223
 30
0.0
 10
19.63914722222221
 20
-11.4977111111111
 30
0.0
 10
19.25377638888888
 20
-11.49464166666667
 30
0.0
 10
18.97176249999999
 20
-11.49205694444443
 30
0.0
 10
18.67206805555555
 20
-11.4612625
 30
0.0
 10
18.36311527777778
 20
-11.40313888888889
 30
0.0
 10
18.36311527777778
 20
-11.40313888888889
 30
0.0
 10
18.34826666666666
 20
-11.40020972222222
 30
0.0
 10
18.34826666666666
 20
-11.40020972222222
 30
0.0
 10
18.30919027777776
 20
-11.39228472222223
 30
0.0
 10
18.25557916666667
 20
-11.38147500000001
 30
0.0
 10
18.21580416666667
 20
-11.40027499999999
 30
0.0
 10
18.19556111111111
 20
-11.40985833333333
 30
0.0
 10
18.18034583333334
 20
-11.42879861111111
 30
0.0
 10
18.17612500000001
 20
-11.4496763888889
 30
0.0
 10
18.1722375
 20
-11.46898194444445
 30
0.0
 10
18.17759999999999
 20
-11.48806249999999
 30
0.0
 10
18.19147916666667
 20
-11.50353611111111
 30
0.0
 10
18.21026944444444
 20
-11.52416666666666
 30
0.0
 10
18.23647777777777
 20
-11.53076666666667
 30
0.0
 10
18.26167361111111
 20
-11.53574166666666
 30
0.0
 10
18.40943749999999
 20
-11.56504027777777
 30
0.0
 10
18.55797499999999
 20
-11.58848055555556
 30
0.0
 10
18.70331666666667
 20
-11.6054513888889
 30
0.0
 10
18.9017513888889
 20
-11.62863333333333
 30
0.0
 10
19.09592361111112
 20
-11.64023055555556
 30
0.0
 10
19.28460416666667
 20
-11.64023055555556
 30
0.0
 10
19.47113055555554
 20
-11.64023055555556
 30
0.0
 10
19.6522513888889
 20
-11.62889166666666
 30
0.0
 10
19.82663333333332
 20
-11.60623750000001
 30
0.0
 10
20.01701388888889
 20
-11.5815138888889
 30
0.0
 10
20.20289444444446
 20
-11.54279444444445
 30
0.0
 10
20.37924583333334
 20
-11.49113194444446
 30
0.0
 10
20.39409444444444
 20
-11.48671666666668
 30
0.0
 10
20.44403472222221
 20
-11.46948888888889
 30
0.0
 10
20.46327638888889
 20
-11.43306250000001
 30
0.0
 10
20.47143749999999
 20
-11.41766388888888
 30
0.0
 10
20.47294583333334
 20
-11.40092083333333
 30
0.0
 10
20.46768055555556
 20
-11.38449999999999
 30
0.0
 10
20.45370416666666
 20
-11.34129027777777
 30
0.0
 10
20.40284861111111
 20
-11.32722777777778
 30
0.0
 10
20.33475416666667
 20
-11.34793333333333
 30
0.0
  0
HATCH
  5
53
330
1F
100
AcDbEntity
  8
Layer 1
 62
     7
420
 16777215
100
AcDbHatch
 10
0.0
 20
0.0
 30
0.0
210
0.0
220
0.0
230
1.0
  2
SOLID
 70
     1
 71
     0
 91
        1
 92
        1
 93
        1
 72
     4
 94
        3
 73
     0
 74
     1
 95
       47
 96
       43
 40
0.0
 40
0.0
 40
0.0
 40
0.0
 40
1.0
 40
1.0
 40
1.0
 40
2.0
 40
2.0
 40
2.0
 40
3.0
 40
3.0
 40
3.0
 40
4.0
 40
4.0
 40
4.0
 40
5.0
 40
5.0
 40
5.0
 40
6.0
 40
6.0
 40
6.0
 40
7.0
 40
7.0
 40
7.0
 40
8.0
 40
8.0
 40
8.0
 40
9.0
 40
9.0
 40
9.0
 40
10.0
 40
10.0
 40
10.0
 40
11.0
 40
11.0
 40
11.0
 40
12.0
 40
12.0
 40
12.0
 40
13.0
 40
13.0
 40
13.0
 40
14.0
 40
14.0
 40
14.0
 40
14.0
 10
20.33475416666667
 20
-11.34793333333333
 10
20.00322083333334
 20
-11.44884722222223
 10
19.63914722222221
 20
-11.4977111111111
 10
19.25377638888888
 20
-11.49464166666667
 10
18.97176249999999
 20
-11.49205694444443
 10
18.67206805555555
 20
-11.4612625
 10
18.36311527777778
 20
-11.40313888888889
 10
18.36311527777778
 20
-11.40313888888889
 10
18.34826666666666
 20
-11.40020972222222
 10
18.34826666666666
 20
-11.40020972222222
 10
18.30919027777776
 20
-11.39228472222223
 10
18.25557916666667
 20
-11.38147500000001
 10
18.21580416666667
 20
-11.40027499999999
 10
18.19556111111111
 20
-11.40985833333333
 10
18.18034583333334
 20
-11.42879861111111
 10
18.17612500000001
 20
-11.4496763888889
 10
18.1722375
 20
-11.46898194444445
 10
18.17759999999999
 20
-11.48806249999999
 10
18.19147916666667
 20
-11.50353611111111
 10
18.21026944444444
 20
-11.52416666666666
 10
18.23647777777777
 20
-11.53076666666667
 10
18.26167361111111
 20
-11.53574166666666
 10
18.40943749999999
 20
-11.56504027777777
 10
18.55797499999999
 20
-11.58848055555556
 10
18.70331666666667
 20
-11.6054513888889
 10
18.9017513888889
 20
-11.62863333333333
 10
19.09592361111112
 20
-11.64023055555556
 10
19.28460416666667
 20
-11.64023055555556
 10
19.47113055555554
 20
-11.64023055555556
 10
19.6522513888889
 20
-11.62889166666666
 10
19.82663333333332
 20
-11.60623750000001
 10
20.01701388888889
 20
-11.5815138888889
 10
20.20289444444446
 20
-11.54279444444445
 10
20.37924583333334
 20
-11.49113194444446
 10
20.39409444444444
 20
-11.48671666666668
 10
20.44403472222221
 20
-11.46948888888889
 10
20.46327638888889
 20
-11.43306250000001
 10
20.47143749999999
 20
-11.41766388888888
 10
20.47294583333334
 20
-11.40092083333333
 10
20.46768055555556
 20
-11.38449999999999
 10
20.45370416666666
 20
-11.34129027777777
 10
20.40284861111111
 20
-11.32722777777778
 10
20.33475416666667
 20
-11.34793333333333
 97
        0
 97
        0
 75
     2
 76
     1
 98
        0
  0
ENDSEC
  0
SECTION
  2
OBJECTS
  0
DICTIONARY
  5
C
330
0
100
AcDbDictionary
281
     1
  3
ACAD_GROUP
350
D
  3
ACAD_LAYOUT
350
1A
  3
ACAD_MATERIAL
350
3B
  3
ACAD_MLEADERSTYLE
350
55
  3
ACAD_MLINESTYLE
350
17
  3
ACAD_PLOTSETTINGS
350
19
  3
ACAD_PLOTSTYLENAME
350
E
  3
ACAD_TABLESTYLE
350
54
  3
ACAD_VISUALSTYLE
350
2A
  0
SUN
  5
3F
330
29
100
AcDbSun
 90
        1
290
     0
 63
     7
421
 16777215
 40
1.0
291
     1
 91
  2455826
 92
 54000000
292
     0
 70
     2
 71
   256
280
     1
  0
DICTIONARY
  5
D
102
{ACAD_REACTORS
330
C
102
}
330
C
100
AcDbDictionary
281
     1
  0
DICTIONARY
  5
1A
102
{ACAD_REACTORS
330
C
102
}
330
C
100
AcDbDictionary
281
     1
  3
Layout1
350
1E
  3
Layout2
350
26
  3
Model
350
22
  0
DICTIONARY
  5
3B
102
{ACAD_REACTORS
330
C
102
}
330
C
100
AcDbDictionary
281
     1
  3
ByBlock
350
3D
  3
ByLayer
350
3C
  3
Global
350
3E
  0
DICTIONARY
  5
55
102
{ACAD_REACTORS
330
C
102
}
330
C
100
AcDbDictionary
281
     1
  0
DICTIONARY
  5
17
102
{ACAD_REACTORS
330
C
102
}
330
C
100
AcDbDictionary
281
     1
  3
Standard
350
18
  0
DICTIONARY
  5
19
102
{ACAD_REACTORS
330
C
102
}
330
C
100
AcDbDictionary
281
     1
  0
ACDBDICTIONARYWDFLT
  5
E
102
{ACAD_REACTORS
330
C
102
}
330
C
100
AcDbDictionary
281
     1
  3
Normal
350
F
100
AcDbDictionaryWithDefault
340
F
  0
DICTIONARY
  5
54
102
{ACAD_REACTORS
330
C
102
}
330
C
100
AcDbDictionary
281
     1
  0
DICTIONARY
  5
2A
102
{ACAD_REACTORS
330
C
102
}
330
C
100
AcDbDictionary
281
     1
  3
2dWireframe
350
2F
  3
3D Hidden
350
31
  3
3dWireframe
350
30
  3
Basic
350
32
  3
Brighten
350
36
  3
ColorChange
350
3A
  3
Conceptual
350
34
  3
Dim
350
35
  3
Facepattern
350
39
  3
Flat
350
2B
  3
FlatWithEdges
350
2C
  3
Gouraud
350
2D
  3
GouraudWithEdges
350
2E
  3
Linepattern
350
38
  3
Realistic
350
33
  3
Thicken
350
37
  0
LAYOUT
  5
1E
102
{ACAD_REACTORS
330
1A
102
}
330
1A
100
AcDbPlotSettings
  1

  2
none_device
  4

  6

 40
0.0
 41
0.0
 42
0.0
 43
0.0
 44
0.0
 45
0.0
 46
0.0
 47
0.0
 48
0.0
 49
0.0
140
0.0
141
0.0
142
1.0
143
1.0
 70
   688
 72
     0
 73
     0
 74
     5
  7

 75
    16
 76
     0
 77
     2
 78
   300
147
1.0
148
0.0
149
0.0
100
AcDbLayout
  1
Layout1
 70
     1
 71
     1
 10
0.0
 20
0.0
 11
12.0
 21
9.0
 12
0.0
 22
0.0
 32
0.0
 14
1.000000000000000E+20
 24
1.000000000000000E+20
 34
1.000000000000000E+20
 15
-1.000000000000000E+20
 25
-1.000000000000000E+20
 35
-1.000000000000000E+20
146
0.0
 13
0.0
 23
0.0
 33
0.0
 16
1.0
 26
0.0
 36
0.0
 17
0.0
 27
1.0
 37
0.0
 76
     0
330
1B
  0
LAYOUT
  5
26
102
{ACAD_REACTORS
330
1A
102
}
330
1A
100
AcDbPlotSettings
  1

  2
none_device
  4

  6

 40
0.0
 41
0.0
 42
0.0
 43
0.0
 44
0.0
 45
0.0
 46
0.0
 47
0.0
 48
0.0
 49
0.0
140
0.0
141
0.0
142
1.0
143
1.0
 70
   688
 72
     0
 73
     0
 74
     5
  7

 75
    16
 76
     0
 77
     2
 78
   300
147
1.0
148
0.0
149
0.0
100
AcDbLayout
  1
Layout2
 70
     1
 71
     2
 10
0.0
 20
0.0
 11
0.0
 21
0.0
 12
0.0
 22
0.0
 32
0.0
 14
0.0
 24
0.0
 34
0.0
 15
0.0
 25
0.0
 35
0.0
146
0.0
 13
0.0
 23
0.0
 33
0.0
 16
1.0
 26
0.0
 36
0.0
 17
0.0
 27
1.0
 37
0.0
 76
     0
330
23
  0
LAYOUT
  5
22
102
{ACAD_REACTORS
330
1A
102
}
330
1A
100
AcDbPlotSettings
  1

  2
none_device
  4

  6

 40
0.0
 41
0.0
 42
0.0
 43
0.0
 44
0.0
 45
0.0
 46
0.0
 47
0.0
 48
0.0
 49
0.0
140
0.0
141
0.0
142
1.0
143
1.0
 70
  1712
 72
     0
 73
     0
 74
     0
  7

 75
     0
 76
     0
 77
     2
 78
   300
147
1.0
148
0.0
149
0.0
100
AcDbLayout
  1
Model
 70
     1
 71
     0
 10
0.0
 20
0.0
 11
12.0
 21
9.0
 12
0.0
 22
0.0
 32
0.0
 14
1.000000000000000E+20
 24
1.000000000000000E+20
 34
1.000000000000000E+20
 15
-1.000000000000000E+20
 25
-1.000000000000000E+20
 35
-1.000000000000000E+20
146
0.0
 13
0.0
 23
0.0
 33
0.0
 16
1.0
 26
0.0
 36
0.0
 17
0.0
 27
1.0
 37
0.0
 76
     0
330
1F
331
29
  0
MATERIAL
  5
3D
102
{ACAD_REACTORS
330
3B
102
}
330
3B
100
AcDbMaterial
  1
ByBlock
 72
     1
 94
      127
  0
MATERIAL
  5
3C
102
{ACAD_REACTORS
330
3B
102
}
330
3B
100
AcDbMaterial
  1
ByLayer
 72
     1
 94
      127
  0
MATERIAL
  5
3E
102
{ACAD_REACTORS
330
3B
102
}
330
3B
100
AcDbMaterial
  1
Global
 72
     1
 94
      127
  0
MLINESTYLE
  5
18
102
{ACAD_REACTORS
330
17
102
}
330
17
100
AcDbMlineStyle
  2
Standard
 70
     0
  3

 62
   256
 51
90.0
 52
90.0
 71
     2
 49
0.5
 62
   256
  6
BYLAYER
 49
-0.5
 62
   256
  6
BYLAYER
  0
ACDBPLACEHOLDER
  5
F
102
{ACAD_REACTORS
330
E
102
}
330
E
  0
VISUALSTYLE
  5
2F
102
{ACAD_REACTORS
330
2A
102
}
330
2A
100
AcDbVisualStyle
  2
2dWireframe
 70
     4
177
     2
291
     0
 71
     0
176
     1
 72
     2
176
     1
 73
     0
176
     1
 90
        0
176
     1
 40
-0.6
176
     1
 41
-30.0
176
     1
 62
     5
 63
     7
421
 16777215
176
     1
 74
     1
176
     1
 91
        4
176
     1
 64
     7
176
     1
 65
   257
176
     1
 75
     1
176
     1
175
     1
176
     1
 42
1.0
176
     1
 92
        0
176
     1
 66
   257
176
     1
 43
1.0
176
     1
 76
     1
176
     1
 77
     6
176
     1
 78
     2
176
     1
 67
     7
176
     1
 79
     5
176
     1
170
     0
176
     1
171
     0
176
     1
290
     0
176
     1
 93
        1
176
     1
 44
0.0
176
     1
173
     0
176
     1
  0
VISUALSTYLE
  5
31
102
{ACAD_REACTORS
330
2A
102
}
330
2A
100
AcDbVisualStyle
  2
3D Hidden
 70
     6
177
     2
291
     0
 71
     1
176
     1
 72
     2
176
     1
 73
     2
176
     1
 90
        0
176
     1
 40
-0.6
176
     1
 41
-30.0
176
     1
 62
     5
 63
     7
421
 16777215
176
     1
 74
     2
176
     1
 91
        2
176
     1
 64
     7
176
     1
 65
   257
176
     1
 75
     2
176
     1
175
     1
176
     1
 42
40.0
176
     1
 92
        0
176
     1
 66
   257
176
     1
 43
1.0
176
     1
 76
     1
176
     1
 77
     6
176
     1
 78
     2
176
     1
 67
     7
176
     1
 79
     3
176
     1
170
     0
176
     1
171
     0
176
     1
290
     0
176
     1
 93
        1
176
     1
 44
0.0
176
     1
173
     0
176
     1
  0
VISUALSTYLE
  5
30
102
{ACAD_REACTORS
330
2A
102
}
330
2A
100
AcDbVisualStyle
  2
3dWireframe
 70
     5
177
     2
291
     0
 71
     0
176
     1
 72
     2
176
     1
 73
     0
176
     1
 90
        0
176
     1
 40
-0.6
176
     1
 41
-30.0
176
     1
 62
     5
 63
     7
421
 16777215
176
     1
 74
     1
176
     1
 91
        4
176
     1
 64
     7
176
     1
 65
   257
176
     1
 75
     1
176
     1
175
     1
176
     1
 42
1.0
176
     1
 92
        0
176
     1
 66
   257
176
     1
 43
1.0
176
     1
 76
     1
176
     1
 77
     6
176
     1
 78
     2
176
     1
 67
     7
176
     1
 79
     5
176
     1
170
     0
176
     1
171
     0
176
     1
290
     0
176
     1
 93
        1
176
     1
 44
0.0
176
     1
173
     0
176
     1
  0
VISUALSTYLE
  5
32
102
{ACAD_REACTORS
330
2A
102
}
330
2A
100
AcDbVisualStyle
  2
Basic
 70
     7
177
     2
291
     1
 71
     1
176
     1
 72
     0
176
     1
 73
     1
176
     1
 90
        0
176
     1
 40
-0.6
176
     1
 41
-30.0
176
     1
 62
     5
 63
     7
421
 16777215
176
     1
 74
     0
176
     1
 91
        4
176
     1
 64
     7
176
     1
 65
   257
176
     1
 75
     1
176
     1
175
     1
176
     1
 42
1.0
176
     1
 92
        8
176
     1
 66
     7
176
     1
 43
1.0
176
     1
 76
     1
176
     1
 77
     6
176
     1
 78
     2
176
     1
 67
     7
176
     1
 79
     5
176
     1
170
     0
176
     1
171
     0
176
     1
290
     0
176
     1
 93
        1
176
     1
 44
0.0
176
     1
173
     0
176
     1
  0
VISUALSTYLE
  5
36
102
{ACAD_REACTORS
330
2A
102
}
330
2A
100
AcDbVisualStyle
  2
Brighten
 70
    12
177
     2
291
     1
 71
     2
176
     1
 72
     2
176
     1
 73
     0
176
     1
 90
        0
176
     1
 40
-0.6
176
     1
 41
-30.0
176
     1
 62
     5
 63
     7
421
 16777215
176
     1
 74
     1
176
     1
 91
        4
176
     1
 64
     7
176
     1
 65
   257
176
     1
 75
     1
176
     1
175
     1
176
     1
 42
1.0
176
     1
 92
        8
176
     1
 66
     7
176
     1
 43
1.0
176
     1
 76
     1
176
     1
 77
     6
176
     1
 78
     2
176
     1
 67
     7
176
     1
 79
     5
176
     1
170
     0
176
     1
171
     0
176
     1
290
     0
176
     1
 93
        1
176
     1
 44
50.0
176
     1
173
     0
176
     1
  0
VISUALSTYLE
  5
3A
102
{ACAD_REACTORS
330
2A
102
}
330
2A
100
AcDbVisualStyle
  2
ColorChange
 70
    16
177
     2
291
     1
 71
     2
176
     1
 72
     2
176
     1
 73
     3
176
     1
 90
        0
176
     1
 40
-0.6
176
     1
 41
-30.0
176
     1
 62
     5
 63
     8
421
  8421504
176
     1
 74
     1
176
     1
 91
        4
176
     1
 64
     7
176
     1
 65
   257
176
     1
 75
     1
176
     1
175
     1
176
     1
 42
1.0
176
     1
 92
        8
176
     1
 66
     8
424
  8421504
176
     1
 43
1.0
176
     1
 76
     1
176
     1
 77
     6
176
     1
 78
     2
176
     1
 67
     7
176
     1
 79
     5
176
     1
170
     0
176
     1
171
     0
176
     1
290
     0
176
     1
 93
        1
176
     1
 44
0.0
176
     1
173
     0
176
     1
  0
VISUALSTYLE
  5
34
102
{ACAD_REACTORS
330
2A
102
}
330
2A
100
AcDbVisualStyle
  2
Conceptual
 70
     9
177
     2
291
     0
 71
     3
176
     1
 72
     2
176
     1
 73
     0
176
     1
 90
        0
176
     1
 40
-0.6
176
     1
 41
-30.0
176
     1
 62
     5
 63
     7
421
 16777215
176
     1
 74
     2
176
     1
 91
        2
176
     1
 64
     7
176
     1
 65
   257
176
     1
 75
     1
176
     1
175
     1
176
     1
 42
40.0
176
     1
 92
        8
176
     1
 66
     7
176
     1
 43
1.0
176
     1
 76
     1
176
     1
 77
     6
176
     1
 78
     2
176
     1
 67
     7
176
     1
 79
     3
176
     1
170
     0
176
     1
171
     0
176
     1
290
     0
176
     1
 93
        1
176
     1
 44
0.0
176
     1
173
     0
176
     1
  0
VISUALSTYLE
  5
35
102
{ACAD_REACTORS
330
2A
102
}
330
2A
100
AcDbVisualStyle
  2
Dim
 70
    11
177
     2
291
     1
 71
     2
176
     1
 72
     2
176
     1
 73
     0
176
     1
 90
        0
176
     1
 40
-0.6
176
     1
 41
-30.0
176
     1
 62
     5
 63
     7
421
 16777215
176
     1
 74
     1
176
     1
 91
        4
176
     1
 64
     7
176
     1
 65
   257
176
     1
 75
     1
176
     1
175
     1
176
     1
 42
1.0
176
     1
 92
        8
176
     1
 66
     7
176
     1
 43
1.0
176
     1
 76
     1
176
     1
 77
     6
176
     1
 78
     2
176
     1
 67
     7
176
     1
 79
     5
176
     1
170
     0
176
     1
171
     0
176
     1
290
     0
176
     1
 93
        1
176
     1
 44
-50.0
176
     1
173
     0
176
     1
  0
VISUALSTYLE
  5
39
102
{ACAD_REACTORS
330
2A
102
}
330
2A
100
AcDbVisualStyle
  2
Facepattern
 70
    15
177
     2
291
     1
 71
     2
176
     1
 72
     2
176
     1
 73
     0
176
     1
 90
        0
176
     1
 40
-0.6
176
     1
 41
-30.0
176
     1
 62
     5
 63
     7
421
 16777215
176
     1
 74
     1
176
     1
 91
        4
176
     1
 64
     7
176
     1
 65
   257
176
     1
 75
     1
176
     1
175
     1
176
     1
 42
1.0
176
     1
 92
        8
176
     1
 66
     7
176
     1
 43
1.0
176
     1
 76
     1
176
     1
 77
     6
176
     1
 78
     2
176
     1
 67
     7
176
     1
 79
     5
176
     1
170
     0
176
     1
171
     0
176
     1
290
     0
176
     1
 93
        1
176
     1
 44
0.0
176
     1
173
     0
176
     1
  0
VISUALSTYLE
  5
2B
102
{ACAD_REACTORS
330
2A
102
}
330
2A
100
AcDbVisualStyle
  2
Flat
 70
     0
177
     2
291
     1
 71
     2
176
     1
 72
     1
176
     1
 73
     1
176
     1
 90
        2
176
     1
 40
-0.6
176
     1
 41
30.0
176
     1
 62
     5
 63
     7
421
 16777215
176
     1
 74
     0
176
     1
 91
        4
176
     1
 64
     7
176
     1
 65
   257
176
     1
 75
     1
176
     1
175
     1
176
     1
 42
1.0
176
     1
 92
        8
176
     1
 66
     7
176
     1
 43
1.0
176
     1
 76
     1
176
     1
 77
     6
176
     1
 78
     2
176
     1
 67
     7
176
     1
 79
     5
176
     1
170
     0
176
     1
171
     0
176
     1
290
     0
176
     1
 93
       13
176
     1
 44
0.0
176
     1
173
     0
176
     1
  0
VISUALSTYLE
  5
2C
102
{ACAD_REACTORS
330
2A
102
}
330
2A
100
AcDbVisualStyle
  2
FlatWithEdges
 70
     1
177
     2
291
     1
 71
     2
176
     1
 72
     1
176
     1
 73
     1
176
     1
 90
        2
176
     1
 40
-0.6
176
     1
 41
30.0
176
     1
 62
     5
 63
     7
421
 16777215
176
     1
 74
     1
176
     1
 91
        4
176
     1
 64
     7
176
     1
 65
   257
176
     1
 75
     1
176
     1
175
     1
176
     1
 42
1.0
176
     1
 92
        0
176
     1
 66
   257
176
     1
 43
1.0
176
     1
 76
     1
176
     1
 77
     6
176
     1
 78
     2
176
     1
 67
     7
176
     1
 79
     5
176
     1
170
     0
176
     1
171
     0
176
     1
290
     0
176
     1
 93
       13
176
     1
 44
0.0
176
     1
173
     0
176
     1
  0
VISUALSTYLE
  5
2D
102
{ACAD_REACTORS
330
2A
102
}
330
2A
100
AcDbVisualStyle
  2
Gouraud
 70
     2
177
     2
291
     1
 71
     2
176
     1
 72
     2
176
     1
 73
     1
176
     1
 90
        2
176
     1
 40
-0.6
176
     1
 41
30.0
176
     1
 62
     5
 63
     7
421
 16777215
176
     1
 74
     0
176
     1
 91
        4
176
     1
 64
     7
176
     1
 65
   257
176
     1
 75
     1
176
     1
175
     1
176
     1
 42
1.0
176
     1
 92
        0
176
     1
 66
     7
176
     1
 43
1.0
176
     1
 76
     1
176
     1
 77
     6
176
     1
 78
     2
176
     1
 67
     7
176
     1
 79
     5
176
     1
170
     0
176
     1
171
     0
176
     1
290
     0
176
     1
 93
       13
176
     1
 44
0.0
176
     1
173
     0
176
     1
  0
VISUALSTYLE
  5
2E
102
{ACAD_REACTORS
330
2A
102
}
330
2A
100
AcDbVisualStyle
  2
GouraudWithEdges
 70
     3
177
     2
291
     1
 71
     2
176
     1
 72
     2
176
     1
 73
     1
176
     1
 90
        2
176
     1
 40
-0.6
176
     1
 41
30.0
176
     1
 62
     5
 63
     7
421
 16777215
176
     1
 74
     1
176
     1
 91
        4
176
     1
 64
     7
176
     1
 65
   257
176
     1
 75
     1
176
     1
175
     1
176
     1
 42
1.0
176
     1
 92
        0
176
     1
 66
   257
176
     1
 43
1.0
176
     1
 76
     1
176
     1
 77
     6
176
     1
 78
     2
176
     1
 67
     7
176
     1
 79
     5
176
     1
170
     0
176
     1
171
     0
176
     1
290
     0
176
     1
 93
       13
176
     1
 44
0.0
176
     1
173
     0
176
     1
  0
VISUALSTYLE
  5
38
102
{ACAD_REACTORS
330
2A
102
}
330
2A
100
AcDbVisualStyle
  2
Linepattern
 70
    14
177
     2
291
     1
 71
     2
176
     1
 72
     2
176
     1
 73
     0
176
     1
 90
        0
176
     1
 40
-0.6
176
     1
 41
-30.0
176
     1
 62
     5
 63
     7
421
 16777215
176
     1
 74
     1
176
     1
 91
        4
176
     1
 64
     7
176
     1
 65
   257
176
     1
 75
     7
176
     1
175
     7
176
     1
 42
1.0
176
     1
 92
        8
176
     1
 66
     7
176
     1
 43
1.0
176
     1
 76
     1
176
     1
 77
     6
176
     1
 78
     2
176
     1
 67
     7
176
     1
 79
     5
176
     1
170
     0
176
     1
171
     0
176
     1
290
     0
176
     1
 93
        1
176
     1
 44
0.0
176
     1
173
     0
176
     1
  0
VISUALSTYLE
  5
33
102
{ACAD_REACTORS
330
2A
102
}
330
2A
100
AcDbVisualStyle
  2
Realistic
 70
     8
177
     2
291
     0
 71
     2
176
     1
 72
     2
176
     1
 73
     0
176
     1
 90
        0
176
     1
 40
-0.6
176
     1
 41
-30.0
176
     1
 62
     5
 63
     7
421
 16777215
176
     1
 74
     1
176
     1
 91
        0
176
     1
 64
     7
176
     1
 65
   257
176
     1
 75
     1
176
     1
175
     1
176
     1
 42
1.0
176
     1
 92
        8
176
     1
 66
     8
424
  7895160
176
     1
 43
1.0
176
     1
 76
     1
176
     1
 77
     6
176
     1
 78
     2
176
     1
 67
     7
176
     1
 79
     5
176
     1
170
     0
176
     1
171
     0
176
     1
290
     0
176
     1
 93
       13
176
     1
 44
0.0
176
     1
173
     0
176
     1
  0
VISUALSTYLE
  5
37
102
{ACAD_REACTORS
330
2A
102
}
330
2A
100
AcDbVisualStyle
  2
Thicken
 70
    13
177
     2
291
     1
 71
     2
176
     1
 72
     2
176
     1
 73
     0
176
     1
 90
        0
176
     1
 40
-0.6
176
     1
 41
-30.0
176
     1
 62
     5
 63
     7
421
 16777215
176
     1
 74
     1
176
     1
 91
        4
176
     1
 64
     7
176
     1
 65
   257
176
     1
 75
     1
176
     1
175
     1
176
     1
 42
1.0
176
     1
 92
       12
176
     1
 66
     7
176
     1
 43
1.0
176
     1
 76
     1
176
     1
 77
     6
176
     1
 78
     2
176
     1
 67
     7
176
     1
 79
     5
176
     1
170
     0
176
     1
171
     0
176
     1
290
     0
176
     1
 93
        1
176
     1
 44
0.0
176
     1
173
     0
176
     1
  0
ENDSEC
  0
EOF
