  0
SECTION
  2
HEADER
  9
$ACADVER
  1
AC1024
  9
$ACADMAINTVER
 70
     6
  9
$DWGCODEPAGE
  3
ANSI_1251
  9
$INSBASE
 10
0.0
 20
0.0
 30
0.0
  9
$EXTMIN
 10
1.000000000000000E+20
 20
1.000000000000000E+20
 30
1.000000000000000E+20
  9
$EXTMAX
 10
-1.000000000000000E+20
 20
-1.000000000000000E+20
 30
-1.000000000000000E+20
  9
$LIMMIN
 10
0.0
 20
0.0
  9
$LIMMAX
 10
12.0
 20
9.0
  9
$ORTHOMODE
 70
     0
  9
$REGENMODE
 70
     1
  9
$FILLMODE
 70
     1
  9
$QTEXTMODE
 70
     0
  9
$MIRRTEXT
 70
     1
  9
$LTSCALE
 40
1.0
  9
$ATTMODE
 70
     1
  9
$TEXTSIZE
 40
0.2
  9
$TRACEWID
 40
0.05
  9
$TEXTSTYLE
  7
Standard
  9
$CLAYER
  8
0
  9
$CELTYPE
  6
ByLayer
  9
$CECOLOR
 62
   256
  9
$CELTSCALE
 40
1.0
  9
$DISPSILH
 70
     0
  9
$DIMSCALE
 40
1.0
  9
$DIMASZ
 40
0.18
  9
$DIMEXO
 40
0.0625
  9
$DIMDLI
 40
0.38
  9
$DIMRND
 40
0.0
  9
$DIMDLE
 40
0.0
  9
$DIMEXE
 40
0.18
  9
$DIMTP
 40
0.0
  9
$DIMTM
 40
0.0
  9
$DIMTXT
 40
0.18
  9
$DIMCEN
 40
0.09
  9
$DIMTSZ
 40
0.0
  9
$DIMTOL
 70
     0
  9
$DIMLIM
 70
     0
  9
$DIMTIH
 70
     1
  9
$DIMTOH
 70
     1
  9
$DIMSE1
 70
     0
  9
$DIMSE2
 70
     0
  9
$DIMTAD
 70
     0
  9
$DIMZIN
 70
     0
  9
$DIMBLK
  1

  9
$DIMASO
 70
     1
  9
$DIMSHO
 70
     1
  9
$DIMPOST
  1

  9
$DIMAPOST
  1

  9
$DIMALT
 70
     0
  9
$DIMALTD
 70
     2
  9
$DIMALTF
 40
25.4
  9
$DIMLFAC
 40
1.0
  9
$DIMTOFL
 70
     0
  9
$DIMTVP
 40
0.0
  9
$DIMTIX
 70
     0
  9
$DIMSOXD
 70
     0
  9
$DIMSAH
 70
     0
  9
$DIMBLK1
  1

  9
$DIMBLK2
  1

  9
$DIMSTYLE
  2
Standard
  9
$DIMCLRD
 70
     0
  9
$DIMCLRE
 70
     0
  9
$DIMCLRT
 70
     0
  9
$DIMTFAC
 40
1.0
  9
$DIMGAP
 40
0.09
  9
$DIMJUST
 70
     0
  9
$DIMSD1
 70
     0
  9
$DIMSD2
 70
     0
  9
$DIMTOLJ
 70
     1
  9
$DIMTZIN
 70
     0
  9
$DIMALTZ
 70
     0
  9
$DIMALTTZ
 70
     0
  9
$DIMUPT
 70
     0
  9
$DIMDEC
 70
     4
  9
$DIMTDEC
 70
     4
  9
$DIMALTU
 70
     2
  9
$DIMALTTD
 70
     2
  9
$DIMTXSTY
  7
Standard
  9
$DIMAUNIT
 70
     0
  9
$DIMADEC
 70
     0
  9
$DIMALTRND
 40
0.0
  9
$DIMAZIN
 70
     0
  9
$DIMDSEP
 70
    46
  9
$DIMATFIT
 70
     3
  9
$DIMFRAC
 70
     0
  9
$DIMLDRBLK
  1

  9
$DIMLUNIT
 70
     2
  9
$DIMLWD
 70
    -2
  9
$DIMLWE
 70
    -2
  9
$DIMTMOVE
 70
     0
  9
$DIMFXL
 40
1.0
  9
$DIMFXLON
 70
     0
  9
$DIMJOGANG
 40
0.7853981633974483
  9
$DIMTFILL
 70
     0
  9
$DIMTFILLCLR
 70
     0
  9
$DIMARCSYM
 70
     0
  9
$DIMLTYPE
  6

  9
$DIMLTEX1
  6

  9
$DIMLTEX2
  6

  9
$DIMTXTDIRECTION
 70
     0
  9
$LUNITS
 70
     2
  9
$LUPREC
 70
     4
  9
$SKETCHINC
 40
0.1
  9
$FILLETRAD
 40
0.5
  9
$AUNITS
 70
     0
  9
$AUPREC
 70
     0
  9
$MENU
  1
.
  9
$ELEVATION
 40
0.0
  9
$PELEVATION
 40
0.0
  9
$THICKNESS
 40
0.0
  9
$LIMCHECK
 70
     0
  9
$CHAMFERA
 40
0.5
  9
$CHAMFERB
 40
0.5
  9
$CHAMFERC
 40
1.0
  9
$CHAMFERD
 40
0.0
  9
$SKPOLY
 70
     0
  9
$TDCREATE
 40
2459337.659059155
  9
$TDUCREATE
 40
2459337.534059155
  9
$TDUPDATE
 40
2459337.659059155
  9
$TDUUPDATE
 40
2459337.534059155
  9
$TDINDWG
 40
0.0000000116
  9
$TDUSRTIMER
 40
0.0000000116
  9
$USRTIMER
 70
     1
  9
$ANGBASE
 50
0.0
  9
$ANGDIR
 70
     0
  9
$PDMODE
 70
     0
  9
$PDSIZE
 40
0.0
  9
$PLINEWID
 40
0.0
  9
$SPLFRAME
 70
     0
  9
$SPLINETYPE
 70
     6
  9
$SPLINESEGS
 70
     8
  9
$HANDSEED
  5
63
  9
$SURFTAB1
 70
     6
  9
$SURFTAB2
 70
     6
  9
$SURFTYPE
 70
     6
  9
$SURFU
 70
     6
  9
$SURFV
 70
     6
  9
$UCSBASE
  2

  9
$UCSNAME
  2

  9
$UCSORG
 10
0.0
 20
0.0
 30
0.0
  9
$UCSXDIR
 10
1.0
 20
0.0
 30
0.0
  9
$UCSYDIR
 10
0.0
 20
1.0
 30
0.0
  9
$UCSORTHOREF
  2

  9
$UCSORTHOVIEW
 70
     0
  9
$UCSORGTOP
 10
0.0
 20
0.0
 30
0.0
  9
$UCSORGBOTTOM
 10
0.0
 20
0.0
 30
0.0
  9
$UCSORGLEFT
 10
0.0
 20
0.0
 30
0.0
  9
$UCSORGRIGHT
 10
0.0
 20
0.0
 30
0.0
  9
$UCSORGFRONT
 10
0.0
 20
0.0
 30
0.0
  9
$UCSORGBACK
 10
0.0
 20
0.0
 30
0.0
  9
$PUCSBASE
  2

  9
$PUCSNAME
  2

  9
$PUCSORG
 10
0.0
 20
0.0
 30
0.0
  9
$PUCSXDIR
 10
1.0
 20
0.0
 30
0.0
  9
$PUCSYDIR
 10
0.0
 20
1.0
 30
0.0
  9
$PUCSORTHOREF
  2

  9
$PUCSORTHOVIEW
 70
     0
  9
$PUCSORGTOP
 10
0.0
 20
0.0
 30
0.0
  9
$PUCSORGBOTTOM
 10
0.0
 20
0.0
 30
0.0
  9
$PUCSORGLEFT
 10
0.0
 20
0.0
 30
0.0
  9
$PUCSORGRIGHT
 10
0.0
 20
0.0
 30
0.0
  9
$PUCSORGFRONT
 10
0.0
 20
0.0
 30
0.0
  9
$PUCSORGBACK
 10
0.0
 20
0.0
 30
0.0
  9
$USERI1
 70
     0
  9
$USERI2
 70
     0
  9
$USERI3
 70
     0
  9
$USERI4
 70
     0
  9
$USERI5
 70
     0
  9
$USERR1
 40
0.0
  9
$USERR2
 40
0.0
  9
$USERR3
 40
0.0
  9
$USERR4
 40
0.0
  9
$USERR5
 40
0.0
  9
$WORLDVIEW
 70
     1
  9
$SHADEDGE
 70
     3
  9
$SHADEDIF
 70
    70
  9
$TILEMODE
 70
     1
  9
$MAXACTVP
 70
    64
  9
$PINSBASE
 10
0.0
 20
0.0
 30
0.0
  9
$PLIMCHECK
 70
     0
  9
$PEXTMIN
 10
1.000000000000000E+20
 20
1.000000000000000E+20
 30
1.000000000000000E+20
  9
$PEXTMAX
 10
-1.000000000000000E+20
 20
-1.000000000000000E+20
 30
-1.000000000000000E+20
  9
$PLIMMIN
 10
0.0
 20
0.0
  9
$PLIMMAX
 10
12.0
 20
9.0
  9
$UNITMODE
 70
     0
  9
$VISRETAIN
 70
     1
  9
$PLINEGEN
 70
     0
  9
$PSLTSCALE
 70
     1
  9
$TREEDEPTH
 70
  3020
  9
$CMLSTYLE
  2
Standard
  9
$CMLJUST
 70
     0
  9
$CMLSCALE
 40
1.0
  9
$PROXYGRAPHICS
 70
     1
  9
$MEASUREMENT
 70
     0
  9
$CELWEIGHT
370
    -1
  9
$ENDCAPS
280
     0
  9
$JOINSTYLE
280
     0
  9
$LWDISPLAY
290
     1
  9
$INSUNITS
 70
     1
  9
$HYPERLINKBASE
  1

  9
$STYLESHEET
  1

  9
$XEDIT
290
     1
  9
$CEPSNTYPE
380
     0
  9
$PSTYLEMODE
290
     1
  9
$FINGERPRINTGUID
  2
{92530CE5-7564-4BDF-AB5D-D54AFC8B1A6C}
  9
$VERSIONGUID
  2
{FAEB1C32-E019-11D5-929B-00C0DF256EC4}
  9
$EXTNAMES
290
     1
  9
$PSVPSCALE
 40
0.0
  9
$OLESTARTUP
290
     0
  9
$SORTENTS
280
   127
  9
$INDEXCTL
280
     0
  9
$HIDETEXT
280
     1
  9
$XCLIPFRAME
280
     2
  9
$HALOGAP
280
     0
  9
$OBSCOLOR
 70
   257
  9
$OBSLTYPE
280
     0
  9
$INTERSECTIONDISPLAY
280
     0
  9
$INTERSECTIONCOLOR
 70
   257
  9
$DIMASSOC
280
     2
  9
$PROJECTNAME
  1

  9
$CAMERADISPLAY
290
     0
  9
$LENSLENGTH
 40
50.0
  9
$CAMERAHEIGHT
 40
0.0
  9
$STEPSPERSEC
 40
2.0
  9
$STEPSIZE
 40
6.0
  9
$3DDWFPREC
 40
2.0
  9
$PSOLWIDTH
 40
0.25
  9
$PSOLHEIGHT
 40
4.0
  9
$LOFTANG1
 40
1.570796326794897
  9
$LOFTANG2
 40
1.570796326794897
  9
$LOFTMAG1
 40
0.0
  9
$LOFTMAG2
 40
0.0
  9
$LOFTPARAM
 70
     7
  9
$LOFTNORMALS
280
     1
  9
$LATITUDE
 40
37.795
  9
$LONGITUDE
 40
-122.394
  9
$NORTHDIRECTION
 40
0.0
  9
$TIMEZONE
 70
 -8000
  9
$LIGHTGLYPHDISPLAY
280
     1
  9
$TILEMODELIGHTSYNCH
280
     1
  9
$CMATERIAL
347
3C
  9
$SOLIDHIST
280
     1
  9
$SHOWHIST
280
     1
  9
$DWFFRAME
280
     2
  9
$DGNFRAME
280
     2
  9
$REALWORLDSCALE
290
     1
  9
$INTERFERECOLOR
 62
   256
  9
$CSHADOW
280
     0
  9
$SHADOWPLANELOCATION
 40
0.0
  0
ENDSEC
  0
SECTION
  2
CLASSES
  0
CLASS
  1
ACDBDICTIONARYWDFLT
  2
AcDbDictionaryWithDefault
  3
ObjectDBX Classes
 90
        0
 91
        4
280
     0
281
     0
  0
CLASS
  1
VISUALSTYLE
  2
AcDbVisualStyle
  3
ObjectDBX Classes
 90
     4095
 91
        4
280
     0
281
     0
  0
CLASS
  1
MATERIAL
  2
AcDbMaterial
  3
ObjectDBX Classes
 90
     1153
 91
        4
280
     0
281
     0
  0
CLASS
  1
SUN
  2
AcDbSun
  3
SCENEOE
 90
     1024
 91
        4
280
     0
281
     0
  0
ENDSEC
  0
SECTION
  2
TABLES
  0
TABLE
  2
VPORT
  5
8
330
0
100
AcDbSymbolTable
 70
     1
  0
VPORT
  5
29
330
8
100
AcDbSymbolTableRecord
100
AcDbViewportTableRecord
  2
*Active
 70
     0
 10
0.0
 20
0.0
 11
1.0
 21
1.0
 12
0.0
 22
0.0
 13
0.0
 23
0.0
 14
0.5
 24
0.5
 15
0.5
 25
0.5
 16
0.0
 26
0.0
 36
1.0
 17
42.82714722222222
 27
-6.558706147286177
 37
0.0
 40
8.13184285012792
 41
1.47568026352246
 42
50.0
 43
0.0
 44
0.0
 50
0.0
 51
0.0
 71
     0
 72
   100
 73
     1
 74
     3
 75
     0
 76
     0
 77
     0
 78
     0
281
     0
 65
     1
110
0.0
120
0.0
130
0.0
111
1.0
121
0.0
131
0.0
112
0.0
122
1.0
132
0.0
 79
     0
146
0.0
 60
     3
 61
     5
292
     1
282
     1
141
0.0
142
0.0
 63
   250
361
3F
  0
ENDTAB
  0
TABLE
  2
LTYPE
  5
5
330
0
100
AcDbSymbolTable
 70
     1
  0
LTYPE
  5
14
330
5
100
AcDbSymbolTableRecord
100
AcDbLinetypeTableRecord
  2
ByBlock
 70
     0
  3

 72
    65
 73
     0
 40
0.0
  0
LTYPE
  5
15
330
5
100
AcDbSymbolTableRecord
100
AcDbLinetypeTableRecord
  2
ByLayer
 70
     0
  3

 72
    65
 73
     0
 40
0.0
  0
LTYPE
  5
16
330
5
100
AcDbSymbolTableRecord
100
AcDbLinetypeTableRecord
  2
Continuous
 70
     0
  3
Solid line
 72
    65
 73
     0
 40
0.0
  0
ENDTAB
  0
TABLE
  2
LAYER
  5
2
330
0
100
AcDbSymbolTable
 70
     2
  0
LAYER
  5
10
330
2
100
AcDbSymbolTableRecord
100
AcDbLayerTableRecord
  2
0
 70
     0
 62
     7
  6
Continuous
370
    -3
390
F
347
3E
  0
LAYER
  5
40
330
2
100
AcDbSymbolTableRecord
100
AcDbLayerTableRecord
  2
Layer 1
 70
     0
 62
     7
  6
Continuous
370
    -3
390
F
347
3E
  0
ENDTAB
  0
TABLE
  2
STYLE
  5
3
330
0
100
AcDbSymbolTable
 70
     1
  0
STYLE
  5
11
330
3
100
AcDbSymbolTableRecord
100
AcDbTextStyleTableRecord
  2
Standard
 70
     0
 40
0.0
 41
1.0
 50
0.0
 71
     0
 42
0.2
  3
txt
  4

  0
ENDTAB
  0
TABLE
  2
VIEW
  5
6
330
0
100
AcDbSymbolTable
 70
     0
  0
ENDTAB
  0
TABLE
  2
UCS
  5
7
330
0
100
AcDbSymbolTable
 70
     0
  0
ENDTAB
  0
TABLE
  2
APPID
  5
9
330
0
100
AcDbSymbolTable
 70
     1
  0
APPID
  5
12
330
9
100
AcDbSymbolTableRecord
100
AcDbRegAppTableRecord
  2
ACAD
 70
     0
  0
ENDTAB
  0
TABLE
  2
DIMSTYLE
  5
A
330
0
100
AcDbSymbolTable
 70
     1
100
AcDbDimStyleTable
  0
DIMSTYLE
105
27
330
A
100
AcDbSymbolTableRecord
100
AcDbDimStyleTableRecord
  2
Standard
 70
     0
178
     0
340
11
  0
ENDTAB
  0
TABLE
  2
BLOCK_RECORD
  5
1
330
0
100
AcDbSymbolTable
 70
     1
  0
BLOCK_RECORD
  5
1F
330
1
100
AcDbSymbolTableRecord
100
AcDbBlockTableRecord
  2
*Model_Space
340
22
 70
     0
280
     1
281
     0
  0
BLOCK_RECORD
  5
1B
330
1
100
AcDbSymbolTableRecord
100
AcDbBlockTableRecord
  2
*Paper_Space
340
1E
 70
     0
280
     1
281
     0
  0
BLOCK_RECORD
  5
23
330
1
100
AcDbSymbolTableRecord
100
AcDbBlockTableRecord
  2
*Paper_Space0
340
26
 70
     0
280
     1
281
     0
  0
ENDTAB
  0
ENDSEC
  0
SECTION
  2
BLOCKS
  0
BLOCK
  5
20
330
1F
100
AcDbEntity
  8
0
100
AcDbBlockBegin
  2
*Model_Space
 70
     0
 10
0.0
 20
0.0
 30
0.0
  3
*Model_Space
  1

  0
ENDBLK
  5
21
330
1F
100
AcDbEntity
  8
0
100
AcDbBlockEnd
  0
BLOCK
  5
1C
330
1B
100
AcDbEntity
 67
     1
  8
0
100
AcDbBlockBegin
  2
*Paper_Space
 70
     0
 10
0.0
 20
0.0
 30
0.0
  3
*Paper_Space
  1

  0
ENDBLK
  5
1D
330
1B
100
AcDbEntity
 67
     1
  8
0
100
AcDbBlockEnd
  0
BLOCK
  5
24
330
23
100
AcDbEntity
  8
0
100
AcDbBlockBegin
  2
*Paper_Space0
 70
     0
 10
0.0
 20
0.0
 30
0.0
  3
*Paper_Space0
  1

  0
ENDBLK
  5
25
330
23
100
AcDbEntity
  8
0
100
AcDbBlockEnd
  0
ENDSEC
  0
SECTION
  2
ENTITIES
  0
SPLINE
  5
41
330
1F
100
AcDbEntity
  8
Layer 1
370
     0
100
AcDbSpline
210
0.0
220
0.0
230
1.0
 70
    11
 71
     3
 72
   248
 73
   244
 74
     0
 42
0.0000000001
 43
0.0000000001
 12
1.0
 22
0.0
 32
0.0
 13
1.0
 23
0.0
 33
0.0
 40
0.0
 40
0.0
 40
0.0
 40
0.0
 40
1.0
 40
1.0
 40
1.0
 40
2.0
 40
2.0
 40
2.0
 40
3.0
 40
3.0
 40
3.0
 40
4.0
 40
4.0
 40
4.0
 40
5.0
 40
5.0
 40
5.0
 40
6.0
 40
6.0
 40
6.0
 40
7.0
 40
7.0
 40
7.0
 40
8.0
 40
8.0
 40
8.0
 40
9.0
 40
9.0
 40
9.0
 40
10.0
 40
10.0
 40
10.0
 40
11.0
 40
11.0
 40
11.0
 40
12.0
 40
12.0
 40
12.0
 40
13.0
 40
13.0
 40
13.0
 40
14.0
 40
14.0
 40
14.0
 40
15.0
 40
15.0
 40
15.0
 40
16.0
 40
16.0
 40
16.0
 40
17.0
 40
17.0
 40
17.0
 40
18.0
 40
18.0
 40
18.0
 40
19.0
 40
19.0
 40
19.0
 40
20.0
 40
20.0
 40
20.0
 40
21.0
 40
21.0
 40
21.0
 40
22.0
 40
22.0
 40
22.0
 40
23.0
 40
23.0
 40
23.0
 40
24.0
 40
24.0
 40
24.0
 40
25.0
 40
25.0
 40
25.0
 40
26.0
 40
26.0
 40
26.0
 40
27.0
 40
27.0
 40
27.0
 40
28.0
 40
28.0
 40
28.0
 40
29.0
 40
29.0
 40
29.0
 40
30.0
 40
30.0
 40
30.0
 40
31.0
 40
31.0
 40
31.0
 40
32.0
 40
32.0
 40
32.0
 40
33.0
 40
33.0
 40
33.0
 40
34.0
 40
34.0
 40
34.0
 40
35.0
 40
35.0
 40
35.0
 40
36.0
 40
36.0
 40
36.0
 40
37.0
 40
37.0
 40
37.0
 40
38.0
 40
38.0
 40
38.0
 40
39.0
 40
39.0
 40
39.0
 40
40.0
 40
40.0
 40
40.0
 40
41.0
 40
41.0
 40
41.0
 40
42.0
 40
42.0
 40
42.0
 40
43.0
 40
43.0
 40
43.0
 40
44.0
 40
44.0
 40
44.0
 40
45.0
 40
45.0
 40
45.0
 40
46.0
 40
46.0
 40
46.0
 40
47.0
 40
47.0
 40
47.0
 40
48.0
 40
48.0
 40
48.0
 40
49.0
 40
49.0
 40
49.0
 40
50.0
 40
50.0
 40
50.0
 40
51.0
 40
51.0
 40
51.0
 40
52.0
 40
52.0
 40
52.0
 40
53.0
 40
53.0
 40
53.0
 40
54.0
 40
54.0
 40
54.0
 40
55.0
 40
55.0
 40
55.0
 40
56.0
 40
56.0
 40
56.0
 40
57.0
 40
57.0
 40
57.0
 40
58.0
 40
58.0
 40
58.0
 40
59.0
 40
59.0
 40
59.0
 40
60.0
 40
60.0
 40
60.0
 40
61.0
 40
61.0
 40
61.0
 40
62.0
 40
62.0
 40
62.0
 40
63.0
 40
63.0
 40
63.0
 40
64.0
 40
64.0
 40
64.0
 40
65.0
 40
65.0
 40
65.0
 40
66.0
 40
66.0
 40
66.0
 40
67.0
 40
67.0
 40
67.0
 40
68.0
 40
68.0
 40
68.0
 40
69.0
 40
69.0
 40
69.0
 40
70.0
 40
70.0
 40
70.0
 40
71.0
 40
71.0
 40
71.0
 40
72.0
 40
72.0
 40
72.0
 40
73.0
 40
73.0
 40
73.0
 40
74.0
 40
74.0
 40
74.0
 40
75.0
 40
75.0
 40
75.0
 40
76.0
 40
76.0
 40
76.0
 40
77.0
 40
77.0
 40
77.0
 40
78.0
 40
78.0
 40
78.0
 40
79.0
 40
79.0
 40
79.0
 40
80.0
 40
80.0
 40
80.0
 40
81.0
 40
81.0
 40
81.0
 40
81.0
 10
44.38732222222223
 20
-7.932991666666667
 30
0.0
 10
44.38732222222223
 20
-7.932991666666667
 30
0.0
 10
46.03084583333334
 20
-5.740120833333334
 30
0.0
 10
46.03084583333334
 20
-5.740120833333334
 30
0.0
 10
46.04300694444444
 20
-5.723297222222223
 30
0.0
 10
46.04740833333335
 20
-5.703554166666663
 30
0.0
 10
46.03011250000001
 20
-5.687316666666661
 30
0.0
 10
46.01350555555556
 20
-5.671729166666662
 30
0.0
 10
45.99376805555554
 20
-5.674418055555558
 30
0.0
 10
45.97687638888889
 20
-5.687191666666662
 30
0.0
 10
45.97687638888889
 20
-5.687191666666662
 30
0.0
 10
43.81842777777779
 20
-7.394145833333343
 30
0.0
 10
43.81842777777779
 20
-7.394145833333343
 30
0.0
 10
43.89274722222222
 20
-7.284894444444439
 30
0.0
 10
43.92049722222221
 20
-7.161062499999995
 30
0.0
 10
43.90444861111111
 20
-7.03706527777778
 30
0.0
 10
43.89044722222221
 20
-6.928868055555565
 30
0.0
 10
43.80199583333332
 20
-6.822737500000003
 30
0.0
 10
43.84328750000001
 20
-6.70708472222221
 30
0.0
 10
43.86676944444444
 20
-6.641344444444434
 30
0.0
 10
43.9291125
 20
-6.603523611111111
 30
0.0
 10
43.9759986111111
 20
-6.555509722222218
 30
0.0
 10
44.02452777777777
 20
-6.505811111111117
 30
0.0
 10
44.06439583333334
 20
-6.449009722222222
 30
0.0
 10
44.08204305555556
 20
-6.38099027777778
 30
0.0
 10
44.11782916666667
 20
-6.242986111111109
 30
0.0
 10
44.05760972222222
 20
-6.142834722222219
 30
0.0
 10
44.00101249999999
 20
-6.023337499999999
 30
0.0
 10
43.95796944444444
 20
-5.932436111111112
 30
0.0
 10
43.98985833333333
 20
-5.849019444444441
 30
0.0
 10
44.05919583333333
 20
-5.782797222222219
 30
0.0
 10
44.08330138888888
 20
-5.759772222222219
 30
0.0
 10
44.11006666666668
 20
-5.739848611111117
 30
0.0
 10
44.13724861111111
 20
-5.720648611111111
 30
0.0
 10
44.15339583333333
 20
-5.709254166666672
 30
0.0
 10
44.18943333333333
 20
-5.694643055555553
 30
0.0
 10
44.1834013888889
 20
-5.669701388888888
 30
0.0
 10
44.17884722222222
 20
-5.65085972222222
 30
0.0
 10
44.16215277777776
 20
-5.649094444444446
 30
0.0
 10
44.14622500000001
 20
-5.649055555555555
 30
0.0
 10
44.07815694444444
 20
-5.648855555555555
 30
0.0
 10
44.01021944444445
 20
-5.651327777777775
 30
0.0
 10
43.94622361111111
 20
-5.678005555555552
 30
0.0
 10
43.7938513888889
 20
-5.741518055555553
 30
0.0
 10
43.70769861111113
 20
-5.88946388888889
 30
0.0
 10
43.71633472222222
 20
-6.07923611111111
 30
0.0
 10
43.72205
 20
-6.204515277777773
 30
0.0
 10
43.67806388888887
 20
-6.301065277777777
 30
0.0
 10
43.57113333333334
 20
-6.369790277777774
 30
0.0
 10
43.50429166666668
 20
-6.412758333333335
 30
0.0
 10
43.44865833333334
 20
-6.473318055555561
 30
0.0
 10
43.42225416666666
 20
-6.549208333333328
 30
0.0
 10
43.39176666666668
 20
-6.636831944444439
 30
0.0
 10
43.41664861111111
 20
-6.732122222222213
 30
0.0
 10
43.37393333333335
 20
-6.816918055555561
 30
0.0
 10
43.34564722222222
 20
-6.873051388888901
 30
0.0
 10
43.17605555555554
 20
-7.085406944444432
 30
0.0
 10
43.13714999999999
 20
-7.133486111111122
 30
0.0
 10
43.13714999999999
 20
-7.133486111111122
 30
0.0
 10
42.74877083333333
 20
-4.421215277777782
 30
0.0
 10
42.74877083333333
 20
-4.421215277777782
 30
0.0
 10
42.74547499999999
 20
-4.400712500000004
 30
0.0
 10
42.73462638888889
 20
-4.383634722222218
 30
0.0
 10
42.71091527777778
 20
-4.384390277777773
 30
0.0
 10
42.68814583333334
 20
-4.385123611111112
 30
0.0
 10
42.67609305555556
 20
-4.400963888888883
 30
0.0
 10
42.67318055555555
 20
-4.421938888888891
 30
0.0
 10
42.67318055555555
 20
-4.421938888888891
 30
0.0
 10
42.35775277777778
 20
-7.122374999999995
 30
0.0
 10
42.35775277777778
 20
-7.122374999999995
 30
0.0
 10
42.34145277777777
 20
-6.995105555555559
 30
0.0
 10
42.30994722222222
 20
-6.924355555555545
 30
0.0
 10
42.18265555555556
 20
-6.841763888888888
 30
0.0
 10
42.05545138888889
 20
-6.759226388888893
 30
0.0
 10
41.89594166666667
 20
-6.758915277777785
 30
0.0
 10
41.88974583333334
 20
-6.571083333333338
 30
0.0
 10
41.88788472222222
 20
-6.515006944444444
 30
0.0
 10
41.89643472222222
 20
-6.458716666666671
 30
0.0
 10
41.89081805555555
 20
-6.402898611111115
 30
0.0
 10
41.87277777777778
 20
-6.223705555555549
 30
0.0
 10
41.7249375
 20
-6.143093055555558
 30
0.0
 10
41.57286111111111
 20
-6.085637499999999
 30
0.0
 10
41.42771527777778
 20
-6.030802777777782
 30
0.0
 10
41.38224027777778
 20
-5.90264305555556
 30
0.0
 10
41.41786250000001
 20
-5.756333333333335
 30
0.0
 10
41.42664166666667
 20
-5.720248611111111
 30
0.0
 10
41.41914305555554
 20
-5.655924999999999
 30
0.0
 10
41.37257499999999
 20
-5.702204166666661
 30
0.0
 10
41.32430972222222
 20
-5.750204166666663
 30
0.0
 10
41.27801388888889
 20
-5.799987500000005
 30
0.0
 10
41.25163194444445
 20
-5.864097222222224
 30
0.0
 10
41.17059027777778
 20
-6.06097777777778
 30
0.0
 10
41.27990833333333
 20
-6.20115277777778
 30
0.0
 10
41.40204444444445
 20
-6.34242916666666
 30
0.0
 10
41.46445277777777
 20
-6.414627777777771
 30
0.0
 10
41.49136111111112
 20
-6.489444444444441
 30
0.0
 10
41.48045833333333
 20
-6.585359722222215
 30
0.0
 10
41.47213749999999
 20
-6.658516666666678
 30
0.0
 10
41.45629722222222
 20
-6.732870833333335
 30
0.0
 10
41.48015138888889
 20
-6.804930555555554
 30
0.0
 10
41.50539444444444
 20
-6.881231944444456
 30
0.0
 10
41.56766249999999
 20
-6.938756944444448
 30
0.0
 10
41.61334444444444
 20
-7.002669444444437
 30
0.0
 10
41.70211388888889
 20
-7.126863888888894
 30
0.0
 10
41.64355694444445
 20
-7.295699999999997
 30
0.0
 10
41.71760277777778
 20
-7.432318055555545
 30
0.0
 10
41.71760277777778
 20
-7.432318055555545
 30
0.0
 10
39.50736388888889
 20
-5.775780555555557
 30
0.0
 10
39.50736388888889
 20
-5.775780555555557
 30
0.0
 10
39.49053888888889
 20
-5.763622222222225
 30
0.0
 10
39.47080138888888
 20
-5.759209722222218
 30
0.0
 10
39.45454444444444
 20
-5.776515277777776
 30
0.0
 10
39.43896666666667
 20
-5.793119444444439
 30
0.0
 10
39.44165972222222
 20
-5.812856944444446
 30
0.0
 10
39.45443472222223
 20
-5.829752777777773
 30
0.0
 10
39.45443472222223
 20
-5.829752777777773
 30
0.0
 10
41.16660555555556
 20
-7.994809722222221
 30
0.0
 10
41.16660555555556
 20
-7.994809722222221
 30
0.0
 10
41.07690555555556
 20
-7.9271138888889
 30
0.0
 10
40.90394305555555
 20
-7.903795833333334
 30
0.0
 10
40.78054861111112
 20
-7.92129027777777
 30
0.0
 10
40.67270833333333
 20
-7.936572222222215
 30
0.0
 10
40.57934166666667
 20
-8.016988888888893
 30
0.0
 10
40.46412361111111
 20
-7.972806944444452
 30
0.0
 10
40.37061388888888
 20
-7.936966666666674
 30
0.0
 10
40.32348750000001
 20
-7.840008333333344
 30
0.0
 10
40.2418986111111
 20
-7.787505555555551
 30
0.0
 10
40.1437375
 20
-7.72433055555555
 30
0.0
 10
40.02296944444444
 20
-7.707734722222211
 30
0.0
 10
39.91388194444444
 20
-7.751490277777773
 30
0.0
 10
39.83046527777777
 20
-7.784944444444439
 30
0.0
 10
39.75157083333334
 20
-7.850922222222228
 30
0.0
 10
39.66282222222222
 20
-7.836745833333326
 30
0.0
 10
39.57195138888889
 20
-7.822230555555556
 30
0.0
 10
39.50726527777778
 20
-7.729924999999993
 30
0.0
 10
39.46029166666666
 20
-7.65828749999999
 30
0.0
 10
39.45168750000001
 20
-7.645161111111115
 30
0.0
 10
39.44401388888889
 20
-7.62980277777779
 30
0.0
 10
39.42496527777777
 20
-7.634412500000002
 30
0.0
 10
39.406125
 20
-7.638976388888876
 30
0.0
 10
39.40435277777778
 20
-7.655670833333336
 30
0.0
 10
39.40430833333333
 20
-7.67159861111112
 30
0.0
 10
39.4041111111111
 20
-7.739668055555562
 30
0.0
 10
39.40658472222223
 20
-7.807605555555559
 30
0.0
 10
39.43326388888888
 20
-7.87159027777779
 30
0.0
 10
39.47721527777778
 20
-7.977020833333325
 30
0.0
 10
39.56691527777777
 20
-8.053486111111118
 30
0.0
 10
39.67638611111111
 20
-8.084520833333322
 30
0.0
 10
39.79228194444443
 20
-8.117384722222216
 30
0.0
 10
39.93012777777777
 20
-8.077066666666672
 30
0.0
 10
40.03479166666666
 20
-8.148341666666662
 30
0.0
 10
40.10021111111111
 20
-8.192875000000008
 30
0.0
 10
40.13091805555556
 20
-8.269645833333344
 30
0.0
 10
40.18686805555555
 20
-8.32342916666668
 30
0.0
 10
40.26489861111111
 20
-8.398427777777771
 30
0.0
 10
40.35939305555555
 20
-8.406276388888879
 30
0.0
 10
40.46160555555555
 20
-8.416905555555559
 30
0.0
 10
40.63731666666667
 20
-8.435198611111117
 30
0.0
 10
40.71609166666667
 20
-8.611183333333328
 30
0.0
 10
40.88592361111111
 20
-8.655190277777768
 30
0.0
 10
40.88592361111111
 20
-8.655190277777768
 30
0.0
 10
38.17656527777778
 20
-9.04340555555556
 30
0.0
 10
38.17656527777778
 20
-9.04340555555556
 30
0.0
 10
38.15594166666667
 20
-9.046568055555554
 30
0.0
 10
38.13895138888888
 20
-9.05748333333334
 30
0.0
 10
38.13968472222223
 20
-9.081270833333342
 30
0.0
 10
38.14040694444444
 20
-9.103843055555545
 30
0.0
 10
38.15617083333333
 20
-9.115972222222227
 30
0.0
 10
38.17728749999999
 20
-9.11887361111111
 30
0.0
 10
38.17728749999999
 20
-9.11887361111111
 30
0.0
 10
40.89892916666668
 20
-9.436765277777768
 30
0.0
 10
40.89892916666668
 20
-9.436765277777768
 30
0.0
 10
40.89892916666668
 20
-9.436765277777768
 30
0.0
 10
40.90403055555556
 20
-9.436765277777768
 30
0.0
 10
40.90403055555556
 20
-9.436765277777768
 30
0.0
 10
40.90403055555556
 20
-9.436765277777768
 30
0.0
 10
40.99478194444443
 20
-9.436765277777768
 30
0.0
 10
40.99478194444443
 20
-9.436765277777768
 30
0.0
 10
40.99478194444443
 20
-9.436765277777768
 30
0.0
 10
44.58270555555555
 20
-9.436765277777768
 30
0.0
 10
44.58270555555555
 20
-9.436765277777768
 30
0.0
 10
44.58270555555555
 20
-9.436765277777768
 30
0.0
 10
44.69238333333333
 20
-9.436765277777768
 30
0.0
 10
44.69238333333333
 20
-9.436765277777768
 30
0.0
 10
44.69238333333333
 20
-9.436765277777768
 30
0.0
 10
44.69651111111109
 20
-9.436765277777768
 30
0.0
 10
44.69651111111109
 20
-9.436765277777768
 30
0.0
 10
44.69651111111109
 20
-9.436765277777768
 30
0.0
 10
47.41911527777776
 20
-9.033465277777774
 30
0.0
 10
47.41911527777776
 20
-9.033465277777774
 30
0.0
 10
47.43950972222223
 20
-9.03031250000001
 30
0.0
 10
47.45648888888889
 20
-9.019145833333342
 30
0.0
 10
47.45576666666668
 20
-8.994876388888896
 30
0.0
 10
47.45503333333333
 20
-8.97182222222222
 30
0.0
 10
47.43925833333333
 20
-8.959451388888889
 30
0.0
 10
47.41839305555555
 20
-8.956540277777776
 30
0.0
 10
47.41839305555555
 20
-8.956540277777776
 30
0.0
 10
44.69286527777778
 20
-8.631620833333322
 30
0.0
 10
44.69286527777778
 20
-8.631620833333322
 30
0.0
 10
44.84987916666667
 20
-8.614083333333332
 30
0.0
 10
44.96660694444444
 20
-8.545763888888889
 30
0.0
 10
45.02363055555555
 20
-8.42402222222222
 30
0.0
 10
45.0642986111111
 20
-8.337190277777784
 30
0.0
 10
45.07094305555554
 20
-8.22121666666668
 30
0.0
 10
45.15341805555555
 20
-8.159913888888898
 30
0.0
 10
45.18555833333332
 20
-8.136016666666666
 30
0.0
 10
45.22582222222223
 20
-8.124991666666675
 30
0.0
 10
45.26575694444444
 20
-8.122004166666658
 30
0.0
 10
45.37951805555556
 20
-8.113498611111101
 30
0.0
 10
45.48074583333333
 20
-8.139551388888902
 30
0.0
 10
45.58626388888888
 20
-8.07750416666666
 30
0.0
 10
45.70915555555555
 20
-8.005231944444454
 30
0.0
 10
45.73739861111113
 20
-7.891831944444448
 30
0.0
 10
45.78187638888888
 20
-7.767319444444436
 30
0.0
 10
45.7944111111111
 20
-7.732212500000009
 30
0.0
 10
45.81298888888889
 20
-7.697937500000004
 30
0.0
 10
45.84255694444444
 20
-7.675244444444438
 30
0.0
 10
45.91483888888888
 20
-7.619774999999991
 30
0.0
 10
46.0363625
 20
-7.637104166666656
 30
0.0
 10
46.11904583333332
 20
-7.654334722222226
 30
0.0
 10
46.13440416666668
 20
-7.657520833333339
 30
0.0
 10
46.15069305555557
 20
-7.662961111111119
 30
0.0
 10
46.16090694444445
 20
-7.646234722222212
 30
0.0
 10
46.171
 20
-7.629693055555562
 30
0.0
 10
46.16044722222222
 20
-7.616633333333336
 30
0.0
 10
46.14921527777778
 20
-7.605336111111101
 30
0.0
 10
46.1012125
 20
-7.557070833333328
 30
0.0
 10
46.05144722222222
 20
-7.510776388888896
 30
0.0
 10
45.98731944444444
 20
-7.484383333333325
 30
0.0
 10
45.87116111111113
 20
-7.436576388888877
 30
0.0
 10
45.73634861111112
 20
-7.452658333333324
 30
0.0
 10
45.63346805555557
 20
-7.524645833333326
 30
0.0
 10
45.54701944444443
 20
-7.585127777777769
 30
0.0
 10
45.48295694444444
 20
-7.688391666666676
 30
0.0
 10
45.37442777777778
 20
-7.712299999999989
 30
0.0
 10
45.28764027777778
 20
-7.731424999999994
 30
0.0
 10
45.20153055555556
 20
-7.691697222222223
 30
0.0
 10
45.11444722222222
 20
-7.698856944444438
 30
0.0
 10
45.0064875
 20
-7.707734722222211
 30
0.0
 10
44.95490555555554
 20
-7.793604166666657
 30
0.0
 10
44.86194305555556
 20
-7.836505555555554
 30
0.0
 10
44.69926944444445
 20
-7.911569444444441
 30
0.0
 10
44.45182222222224
 20
-7.940075000000004
 30
0.0
 10
44.38732222222223
 20
-7.932991666666667
 30
0.0
  0
HATCH
  5
42
330
1F
100
AcDbEntity
  8
Layer 1
 62
     7
420
 16777215
100
AcDbHatch
 10
0.0
 20
0.0
 30
0.0
210
0.0
220
0.0
230
1.0
  2
SOLID
 70
     1
 71
     0
 91
        1
 92
        1
 93
        1
 72
     4
 94
        3
 73
     0
 74
     1
 95
      248
 96
      244
 40
0.0
 40
0.0
 40
0.0
 40
0.0
 40
1.0
 40
1.0
 40
1.0
 40
2.0
 40
2.0
 40
2.0
 40
3.0
 40
3.0
 40
3.0
 40
4.0
 40
4.0
 40
4.0
 40
5.0
 40
5.0
 40
5.0
 40
6.0
 40
6.0
 40
6.0
 40
7.0
 40
7.0
 40
7.0
 40
8.0
 40
8.0
 40
8.0
 40
9.0
 40
9.0
 40
9.0
 40
10.0
 40
10.0
 40
10.0
 40
11.0
 40
11.0
 40
11.0
 40
12.0
 40
12.0
 40
12.0
 40
13.0
 40
13.0
 40
13.0
 40
14.0
 40
14.0
 40
14.0
 40
15.0
 40
15.0
 40
15.0
 40
16.0
 40
16.0
 40
16.0
 40
17.0
 40
17.0
 40
17.0
 40
18.0
 40
18.0
 40
18.0
 40
19.0
 40
19.0
 40
19.0
 40
20.0
 40
20.0
 40
20.0
 40
21.0
 40
21.0
 40
21.0
 40
22.0
 40
22.0
 40
22.0
 40
23.0
 40
23.0
 40
23.0
 40
24.0
 40
24.0
 40
24.0
 40
25.0
 40
25.0
 40
25.0
 40
26.0
 40
26.0
 40
26.0
 40
27.0
 40
27.0
 40
27.0
 40
28.0
 40
28.0
 40
28.0
 40
29.0
 40
29.0
 40
29.0
 40
30.0
 40
30.0
 40
30.0
 40
31.0
 40
31.0
 40
31.0
 40
32.0
 40
32.0
 40
32.0
 40
33.0
 40
33.0
 40
33.0
 40
34.0
 40
34.0
 40
34.0
 40
35.0
 40
35.0
 40
35.0
 40
36.0
 40
36.0
 40
36.0
 40
37.0
 40
37.0
 40
37.0
 40
38.0
 40
38.0
 40
38.0
 40
39.0
 40
39.0
 40
39.0
 40
40.0
 40
40.0
 40
40.0
 40
41.0
 40
41.0
 40
41.0
 40
42.0
 40
42.0
 40
42.0
 40
43.0
 40
43.0
 40
43.0
 40
44.0
 40
44.0
 40
44.0
 40
45.0
 40
45.0
 40
45.0
 40
46.0
 40
46.0
 40
46.0
 40
47.0
 40
47.0
 40
47.0
 40
48.0
 40
48.0
 40
48.0
 40
49.0
 40
49.0
 40
49.0
 40
50.0
 40
50.0
 40
50.0
 40
51.0
 40
51.0
 40
51.0
 40
52.0
 40
52.0
 40
52.0
 40
53.0
 40
53.0
 40
53.0
 40
54.0
 40
54.0
 40
54.0
 40
55.0
 40
55.0
 40
55.0
 40
56.0
 40
56.0
 40
56.0
 40
57.0
 40
57.0
 40
57.0
 40
58.0
 40
58.0
 40
58.0
 40
59.0
 40
59.0
 40
59.0
 40
60.0
 40
60.0
 40
60.0
 40
61.0
 40
61.0
 40
61.0
 40
62.0
 40
62.0
 40
62.0
 40
63.0
 40
63.0
 40
63.0
 40
64.0
 40
64.0
 40
64.0
 40
65.0
 40
65.0
 40
65.0
 40
66.0
 40
66.0
 40
66.0
 40
67.0
 40
67.0
 40
67.0
 40
68.0
 40
68.0
 40
68.0
 40
69.0
 40
69.0
 40
69.0
 40
70.0
 40
70.0
 40
70.0
 40
71.0
 40
71.0
 40
71.0
 40
72.0
 40
72.0
 40
72.0
 40
73.0
 40
73.0
 40
73.0
 40
74.0
 40
74.0
 40
74.0
 40
75.0
 40
75.0
 40
75.0
 40
76.0
 40
76.0
 40
76.0
 40
77.0
 40
77.0
 40
77.0
 40
78.0
 40
78.0
 40
78.0
 40
79.0
 40
79.0
 40
79.0
 40
80.0
 40
80.0
 40
80.0
 40
81.0
 40
81.0
 40
81.0
 40
81.0
 10
44.38732222222223
 20
-7.932991666666667
 10
44.38732222222223
 20
-7.932991666666667
 10
46.03084583333334
 20
-5.740120833333334
 10
46.03084583333334
 20
-5.740120833333334
 10
46.04300694444444
 20
-5.723297222222223
 10
46.04740833333335
 20
-5.703554166666663
 10
46.03011250000001
 20
-5.687316666666661
 10
46.01350555555556
 20
-5.671729166666662
 10
45.99376805555554
 20
-5.674418055555558
 10
45.97687638888889
 20
-5.687191666666662
 10
45.97687638888889
 20
-5.687191666666662
 10
43.81842777777779
 20
-7.394145833333343
 10
43.81842777777779
 20
-7.394145833333343
 10
43.89274722222222
 20
-7.284894444444439
 10
43.92049722222221
 20
-7.161062499999995
 10
43.90444861111111
 20
-7.03706527777778
 10
43.89044722222221
 20
-6.928868055555565
 10
43.80199583333332
 20
-6.822737500000003
 10
43.84328750000001
 20
-6.70708472222221
 10
43.86676944444444
 20
-6.641344444444434
 10
43.9291125
 20
-6.603523611111111
 10
43.9759986111111
 20
-6.555509722222218
 10
44.02452777777777
 20
-6.505811111111117
 10
44.06439583333334
 20
-6.449009722222222
 10
44.08204305555556
 20
-6.38099027777778
 10
44.11782916666667
 20
-6.242986111111109
 10
44.05760972222222
 20
-6.142834722222219
 10
44.00101249999999
 20
-6.023337499999999
 10
43.95796944444444
 20
-5.932436111111112
 10
43.98985833333333
 20
-5.849019444444441
 10
44.05919583333333
 20
-5.782797222222219
 10
44.08330138888888
 20
-5.759772222222219
 10
44.11006666666668
 20
-5.739848611111117
 10
44.13724861111111
 20
-5.720648611111111
 10
44.15339583333333
 20
-5.709254166666672
 10
44.18943333333333
 20
-5.694643055555553
 10
44.1834013888889
 20
-5.669701388888888
 10
44.17884722222222
 20
-5.65085972222222
 10
44.16215277777776
 20
-5.649094444444446
 10
44.14622500000001
 20
-5.649055555555555
 10
44.07815694444444
 20
-5.648855555555555
 10
44.01021944444445
 20
-5.651327777777775
 10
43.94622361111111
 20
-5.678005555555552
 10
43.7938513888889
 20
-5.741518055555553
 10
43.70769861111113
 20
-5.88946388888889
 10
43.71633472222222
 20
-6.07923611111111
 10
43.72205
 20
-6.204515277777773
 10
43.67806388888887
 20
-6.301065277777777
 10
43.57113333333334
 20
-6.369790277777774
 10
43.50429166666668
 20
-6.412758333333335
 10
43.44865833333334
 20
-6.473318055555561
 10
43.42225416666666
 20
-6.549208333333328
 10
43.39176666666668
 20
-6.636831944444439
 10
43.41664861111111
 20
-6.732122222222213
 10
43.37393333333335
 20
-6.816918055555561
 10
43.34564722222222
 20
-6.873051388888901
 10
43.17605555555554
 20
-7.085406944444432
 10
43.13714999999999
 20
-7.133486111111122
 10
43.13714999999999
 20
-7.133486111111122
 10
42.74877083333333
 20
-4.421215277777782
 10
42.74877083333333
 20
-4.421215277777782
 10
42.74547499999999
 20
-4.400712500000004
 10
42.73462638888889
 20
-4.383634722222218
 10
42.71091527777778
 20
-4.384390277777773
 10
42.68814583333334
 20
-4.385123611111112
 10
42.67609305555556
 20
-4.400963888888883
 10
42.67318055555555
 20
-4.421938888888891
 10
42.67318055555555
 20
-4.421938888888891
 10
42.35775277777778
 20
-7.122374999999995
 10
42.35775277777778
 20
-7.122374999999995
 10
42.34145277777777
 20
-6.995105555555559
 10
42.30994722222222
 20
-6.924355555555545
 10
42.18265555555556
 20
-6.841763888888888
 10
42.05545138888889
 20
-6.759226388888893
 10
41.89594166666667
 20
-6.758915277777785
 10
41.88974583333334
 20
-6.571083333333338
 10
41.88788472222222
 20
-6.515006944444444
 10
41.89643472222222
 20
-6.458716666666671
 10
41.89081805555555
 20
-6.402898611111115
 10
41.87277777777778
 20
-6.223705555555549
 10
41.7249375
 20
-6.143093055555558
 10
41.57286111111111
 20
-6.085637499999999
 10
41.42771527777778
 20
-6.030802777777782
 10
41.38224027777778
 20
-5.90264305555556
 10
41.41786250000001
 20
-5.756333333333335
 10
41.42664166666667
 20
-5.720248611111111
 10
41.41914305555554
 20
-5.655924999999999
 10
41.37257499999999
 20
-5.702204166666661
 10
41.32430972222222
 20
-5.750204166666663
 10
41.27801388888889
 20
-5.799987500000005
 10
41.25163194444445
 20
-5.864097222222224
 10
41.17059027777778
 20
-6.06097777777778
 10
41.27990833333333
 20
-6.20115277777778
 10
41.40204444444445
 20
-6.34242916666666
 10
41.46445277777777
 20
-6.414627777777771
 10
41.49136111111112
 20
-6.489444444444441
 10
41.48045833333333
 20
-6.585359722222215
 10
41.47213749999999
 20
-6.658516666666678
 10
41.45629722222222
 20
-6.732870833333335
 10
41.48015138888889
 20
-6.804930555555554
 10
41.50539444444444
 20
-6.881231944444456
 10
41.56766249999999
 20
-6.938756944444448
 10
41.61334444444444
 20
-7.002669444444437
 10
41.70211388888889
 20
-7.126863888888894
 10
41.64355694444445
 20
-7.295699999999997
 10
41.71760277777778
 20
-7.432318055555545
 10
41.71760277777778
 20
-7.432318055555545
 10
39.50736388888889
 20
-5.775780555555557
 10
39.50736388888889
 20
-5.775780555555557
 10
39.49053888888889
 20
-5.763622222222225
 10
39.47080138888888
 20
-5.759209722222218
 10
39.45454444444444
 20
-5.776515277777776
 10
39.43896666666667
 20
-5.793119444444439
 10
39.44165972222222
 20
-5.812856944444446
 10
39.45443472222223
 20
-5.829752777777773
 10
39.45443472222223
 20
-5.829752777777773
 10
41.16660555555556
 20
-7.994809722222221
 10
41.16660555555556
 20
-7.994809722222221
 10
41.07690555555556
 20
-7.9271138888889
 10
40.90394305555555
 20
-7.903795833333334
 10
40.78054861111112
 20
-7.92129027777777
 10
40.67270833333333
 20
-7.936572222222215
 10
40.57934166666667
 20
-8.016988888888893
 10
40.46412361111111
 20
-7.972806944444452
 10
40.37061388888888
 20
-7.936966666666674
 10
40.32348750000001
 20
-7.840008333333344
 10
40.2418986111111
 20
-7.787505555555551
 10
40.1437375
 20
-7.72433055555555
 10
40.02296944444444
 20
-7.707734722222211
 10
39.91388194444444
 20
-7.751490277777773
 10
39.83046527777777
 20
-7.784944444444439
 10
39.75157083333334
 20
-7.850922222222228
 10
39.66282222222222
 20
-7.836745833333326
 10
39.57195138888889
 20
-7.822230555555556
 10
39.50726527777778
 20
-7.729924999999993
 10
39.46029166666666
 20
-7.65828749999999
 10
39.45168750000001
 20
-7.645161111111115
 10
39.44401388888889
 20
-7.62980277777779
 10
39.42496527777777
 20
-7.634412500000002
 10
39.406125
 20
-7.638976388888876
 10
39.40435277777778
 20
-7.655670833333336
 10
39.40430833333333
 20
-7.67159861111112
 10
39.4041111111111
 20
-7.739668055555562
 10
39.40658472222223
 20
-7.807605555555559
 10
39.43326388888888
 20
-7.87159027777779
 10
39.47721527777778
 20
-7.977020833333325
 10
39.56691527777777
 20
-8.053486111111118
 10
39.67638611111111
 20
-8.084520833333322
 10
39.79228194444443
 20
-8.117384722222216
 10
39.93012777777777
 20
-8.077066666666672
 10
40.03479166666666
 20
-8.148341666666662
 10
40.10021111111111
 20
-8.192875000000008
 10
40.13091805555556
 20
-8.269645833333344
 10
40.18686805555555
 20
-8.32342916666668
 10
40.26489861111111
 20
-8.398427777777771
 10
40.35939305555555
 20
-8.406276388888879
 10
40.46160555555555
 20
-8.416905555555559
 10
40.63731666666667
 20
-8.435198611111117
 10
40.71609166666667
 20
-8.611183333333328
 10
40.88592361111111
 20
-8.655190277777768
 10
40.88592361111111
 20
-8.655190277777768
 10
38.17656527777778
 20
-9.04340555555556
 10
38.17656527777778
 20
-9.04340555555556
 10
38.15594166666667
 20
-9.046568055555554
 10
38.13895138888888
 20
-9.05748333333334
 10
38.13968472222223
 20
-9.081270833333342
 10
38.14040694444444
 20
-9.103843055555545
 10
38.15617083333333
 20
-9.115972222222227
 10
38.17728749999999
 20
-9.11887361111111
 10
38.17728749999999
 20
-9.11887361111111
 10
40.89892916666668
 20
-9.436765277777768
 10
40.89892916666668
 20
-9.436765277777768
 10
40.89892916666668
 20
-9.436765277777768
 10
40.90403055555556
 20
-9.436765277777768
 10
40.90403055555556
 20
-9.436765277777768
 10
40.90403055555556
 20
-9.436765277777768
 10
40.99478194444443
 20
-9.436765277777768
 10
40.99478194444443
 20
-9.436765277777768
 10
40.99478194444443
 20
-9.436765277777768
 10
44.58270555555555
 20
-9.436765277777768
 10
44.58270555555555
 20
-9.436765277777768
 10
44.58270555555555
 20
-9.436765277777768
 10
44.69238333333333
 20
-9.436765277777768
 10
44.69238333333333
 20
-9.436765277777768
 10
44.69238333333333
 20
-9.436765277777768
 10
44.69651111111109
 20
-9.436765277777768
 10
44.69651111111109
 20
-9.436765277777768
 10
44.69651111111109
 20
-9.436765277777768
 10
47.41911527777776
 20
-9.033465277777774
 10
47.41911527777776
 20
-9.033465277777774
 10
47.43950972222223
 20
-9.03031250000001
 10
47.45648888888889
 20
-9.019145833333342
 10
47.45576666666668
 20
-8.994876388888896
 10
47.45503333333333
 20
-8.97182222222222
 10
47.43925833333333
 20
-8.959451388888889
 10
47.41839305555555
 20
-8.956540277777776
 10
47.41839305555555
 20
-8.956540277777776
 10
44.69286527777778
 20
-8.631620833333322
 10
44.69286527777778
 20
-8.631620833333322
 10
44.84987916666667
 20
-8.614083333333332
 10
44.96660694444444
 20
-8.545763888888889
 10
45.02363055555555
 20
-8.42402222222222
 10
45.0642986111111
 20
-8.337190277777784
 10
45.07094305555554
 20
-8.22121666666668
 10
45.15341805555555
 20
-8.159913888888898
 10
45.18555833333332
 20
-8.136016666666666
 10
45.22582222222223
 20
-8.124991666666675
 10
45.26575694444444
 20
-8.122004166666658
 10
45.37951805555556
 20
-8.113498611111101
 10
45.48074583333333
 20
-8.139551388888902
 10
45.58626388888888
 20
-8.07750416666666
 10
45.70915555555555
 20
-8.005231944444454
 10
45.73739861111113
 20
-7.891831944444448
 10
45.78187638888888
 20
-7.767319444444436
 10
45.7944111111111
 20
-7.732212500000009
 10
45.81298888888889
 20
-7.697937500000004
 10
45.84255694444444
 20
-7.675244444444438
 10
45.91483888888888
 20
-7.619774999999991
 10
46.0363625
 20
-7.637104166666656
 10
46.11904583333332
 20
-7.654334722222226
 10
46.13440416666668
 20
-7.657520833333339
 10
46.15069305555557
 20
-7.662961111111119
 10
46.16090694444445
 20
-7.646234722222212
 10
46.171
 20
-7.629693055555562
 10
46.16044722222222
 20
-7.616633333333336
 10
46.14921527777778
 20
-7.605336111111101
 10
46.1012125
 20
-7.557070833333328
 10
46.05144722222222
 20
-7.510776388888896
 10
45.98731944444444
 20
-7.484383333333325
 10
45.87116111111113
 20
-7.436576388888877
 10
45.73634861111112
 20
-7.452658333333324
 10
45.63346805555557
 20
-7.524645833333326
 10
45.54701944444443
 20
-7.585127777777769
 10
45.48295694444444
 20
-7.688391666666676
 10
45.37442777777778
 20
-7.712299999999989
 10
45.28764027777778
 20
-7.731424999999994
 10
45.20153055555556
 20
-7.691697222222223
 10
45.11444722222222
 20
-7.698856944444438
 10
45.0064875
 20
-7.707734722222211
 10
44.95490555555554
 20
-7.793604166666657
 10
44.86194305555556
 20
-7.836505555555554
 10
44.69926944444445
 20
-7.911569444444441
 10
44.45182222222224
 20
-7.940075000000004
 10
44.38732222222223
 20
-7.932991666666667
 97
        0
 97
        0
 75
     2
 76
     1
 98
        0
  0
SPLINE
  5
43
330
1F
100
AcDbEntity
  8
Layer 1
370
     0
100
AcDbSpline
210
0.0
220
0.0
230
1.0
 70
    11
 71
     3
 72
    23
 73
    19
 74
     0
 42
0.0000000001
 43
0.0000000001
 12
1.0
 22
0.0
 32
0.0
 13
1.0
 23
0.0
 33
0.0
 40
0.0
 40
0.0
 40
0.0
 40
0.0
 40
1.0
 40
1.0
 40
1.0
 40
2.0
 40
2.0
 40
2.0
 40
3.0
 40
3.0
 40
3.0
 40
4.0
 40
4.0
 40
4.0
 40
5.0
 40
5.0
 40
5.0
 40
6.0
 40
6.0
 40
6.0
 40
6.0
 10
46.67319583333334
 20
-9.877383333333329
 30
0.0
 10
46.67319583333334
 20
-9.877383333333329
 30
0.0
 10
38.91975972222222
 20
-9.877383333333329
 30
0.0
 10
38.91975972222222
 20
-9.877383333333329
 30
0.0
 10
38.86480555555555
 20
-9.877383333333329
 30
0.0
 10
38.82011944444444
 20
-9.92361249999999
 30
0.0
 10
38.82011944444444
 20
-9.980416666666668
 30
0.0
 10
38.82011944444444
 20
-10.03723194444446
 30
0.0
 10
38.86480555555555
 20
-10.08346111111112
 30
0.0
 10
38.91975972222222
 20
-10.08346111111112
 30
0.0
 10
38.91975972222222
 20
-10.08346111111112
 30
0.0
 10
46.67319583333334
 20
-10.08346111111112
 30
0.0
 10
46.67319583333334
 20
-10.08346111111112
 30
0.0
 10
46.7281611111111
 20
-10.08346111111112
 30
0.0
 10
46.77284583333332
 20
-10.03723194444446
 30
0.0
 10
46.77284583333332
 20
-9.980416666666668
 30
0.0
 10
46.77284583333332
 20
-9.92361249999999
 30
0.0
 10
46.7281611111111
 20
-9.877383333333329
 30
0.0
 10
46.67319583333334
 20
-9.877383333333329
 30
0.0
  0
HATCH
  5
44
330
1F
100
AcDbEntity
  8
Layer 1
 62
     7
420
 16777215
100
AcDbHatch
 10
0.0
 20
0.0
 30
0.0
210
0.0
220
0.0
230
1.0
  2
SOLID
 70
     1
 71
     0
 91
        1
 92
        1
 93
        1
 72
     4
 94
        3
 73
     0
 74
     1
 95
       23
 96
       19
 40
0.0
 40
0.0
 40
0.0
 40
0.0
 40
1.0
 40
1.0
 40
1.0
 40
2.0
 40
2.0
 40
2.0
 40
3.0
 40
3.0
 40
3.0
 40
4.0
 40
4.0
 40
4.0
 40
5.0
 40
5.0
 40
5.0
 40
6.0
 40
6.0
 40
6.0
 40
6.0
 10
46.67319583333334
 20
-9.877383333333329
 10
46.67319583333334
 20
-9.877383333333329
 10
38.91975972222222
 20
-9.877383333333329
 10
38.91975972222222
 20
-9.877383333333329
 10
38.86480555555555
 20
-9.877383333333329
 10
38.82011944444444
 20
-9.92361249999999
 10
38.82011944444444
 20
-9.980416666666668
 10
38.82011944444444
 20
-10.03723194444446
 10
38.86480555555555
 20
-10.08346111111112
 10
38.91975972222222
 20
-10.08346111111112
 10
38.91975972222222
 20
-10.08346111111112
 10
46.67319583333334
 20
-10.08346111111112
 10
46.67319583333334
 20
-10.08346111111112
 10
46.7281611111111
 20
-10.08346111111112
 10
46.77284583333332
 20
-10.03723194444446
 10
46.77284583333332
 20
-9.980416666666668
 10
46.77284583333332
 20
-9.92361249999999
 10
46.7281611111111
 20
-9.877383333333329
 10
46.67319583333334
 20
-9.877383333333329
 97
        0
 97
        0
 75
     2
 76
     1
 98
        0
  0
SPLINE
  5
45
330
1F
100
AcDbEntity
  8
Layer 1
370
     0
100
AcDbSpline
210
0.0
220
0.0
230
1.0
 70
    11
 71
     3
 72
    23
 73
    19
 74
     0
 42
0.0000000001
 43
0.0000000001
 12
1.0
 22
0.0
 32
0.0
 13
1.0
 23
0.0
 33
0.0
 40
0.0
 40
0.0
 40
0.0
 40
0.0
 40
1.0
 40
1.0
 40
1.0
 40
2.0
 40
2.0
 40
2.0
 40
3.0
 40
3.0
 40
3.0
 40
4.0
 40
4.0
 40
4.0
 40
5.0
 40
5.0
 40
5.0
 40
6.0
 40
6.0
 40
6.0
 40
6.0
 10
45.64012361111111
 20
-10.41857222222221
 30
0.0
 10
45.64012361111111
 20
-10.41857222222221
 30
0.0
 10
39.95284305555555
 20
-10.41857222222221
 30
0.0
 10
39.95284305555555
 20
-10.41857222222221
 30
0.0
 10
39.89902638888889
 20
-10.41857222222221
 30
0.0
 10
39.85527222222222
 20
-10.46477916666666
 30
0.0
 10
39.85527222222222
 20
-10.52158333333333
 30
0.0
 10
39.85527222222222
 20
-10.57838750000001
 30
0.0
 10
39.89902638888889
 20
-10.62462777777778
 30
0.0
 10
39.95284305555555
 20
-10.62462777777778
 30
0.0
 10
39.95284305555555
 20
-10.62462777777778
 30
0.0
 10
45.64012361111111
 20
-10.62462777777778
 30
0.0
 10
45.64012361111111
 20
-10.62462777777778
 30
0.0
 10
45.69393888888887
 20
-10.62462777777778
 30
0.0
 10
45.73769444444444
 20
-10.57838750000001
 30
0.0
 10
45.73769444444444
 20
-10.52158333333333
 30
0.0
 10
45.73769444444444
 20
-10.46477916666666
 30
0.0
 10
45.69393888888887
 20
-10.41857222222221
 30
0.0
 10
45.64012361111111
 20
-10.41857222222221
 30
0.0
  0
HATCH
  5
46
330
1F
100
AcDbEntity
  8
Layer 1
 62
     7
420
 16777215
100
AcDbHatch
 10
0.0
 20
0.0
 30
0.0
210
0.0
220
0.0
230
1.0
  2
SOLID
 70
     1
 71
     0
 91
        1
 92
        1
 93
        1
 72
     4
 94
        3
 73
     0
 74
     1
 95
       23
 96
       19
 40
0.0
 40
0.0
 40
0.0
 40
0.0
 40
1.0
 40
1.0
 40
1.0
 40
2.0
 40
2.0
 40
2.0
 40
3.0
 40
3.0
 40
3.0
 40
4.0
 40
4.0
 40
4.0
 40
5.0
 40
5.0
 40
5.0
 40
6.0
 40
6.0
 40
6.0
 40
6.0
 10
45.64012361111111
 20
-10.41857222222221
 10
45.64012361111111
 20
-10.41857222222221
 10
39.95284305555555
 20
-10.41857222222221
 10
39.95284305555555
 20
-10.41857222222221
 10
39.89902638888889
 20
-10.41857222222221
 10
39.85527222222222
 20
-10.46477916666666
 10
39.85527222222222
 20
-10.52158333333333
 10
39.85527222222222
 20
-10.57838750000001
 10
39.89902638888889
 20
-10.62462777777778
 10
39.95284305555555
 20
-10.62462777777778
 10
39.95284305555555
 20
-10.62462777777778
 10
45.64012361111111
 20
-10.62462777777778
 10
45.64012361111111
 20
-10.62462777777778
 10
45.69393888888887
 20
-10.62462777777778
 10
45.73769444444444
 20
-10.57838750000001
 10
45.73769444444444
 20
-10.52158333333333
 10
45.73769444444444
 20
-10.46477916666666
 10
45.69393888888887
 20
-10.41857222222221
 10
45.64012361111111
 20
-10.41857222222221
 97
        0
 97
        0
 75
     2
 76
     1
 98
        0
  0
SPLINE
  5
47
330
1F
100
AcDbEntity
  8
Layer 1
370
     0
100
AcDbSpline
210
0.0
220
0.0
230
1.0
 70
    11
 71
     3
 72
    29
 73
    25
 74
     0
 42
0.0000000001
 43
0.0000000001
 12
1.0
 22
0.0
 32
0.0
 13
1.0
 23
0.0
 33
0.0
 40
0.0
 40
0.0
 40
0.0
 40
0.0
 40
1.0
 40
1.0
 40
1.0
 40
2.0
 40
2.0
 40
2.0
 40
3.0
 40
3.0
 40
3.0
 40
4.0
 40
4.0
 40
4.0
 40
5.0
 40
5.0
 40
5.0
 40
6.0
 40
6.0
 40
6.0
 40
7.0
 40
7.0
 40
7.0
 40
8.0
 40
8.0
 40
8.0
 40
8.0
 10
37.02485
 20
-9.779745833333335
 30
0.0
 10
36.97439444444444
 20
-9.778422222222211
 30
0.0
 10
36.92392916666666
 20
-9.797863888888893
 30
0.0
 10
36.88664305555556
 20
-9.83343055555555
 30
0.0
 10
36.84923749999999
 20
-9.869118055555544
 30
0.0
 10
36.82810972222223
 20
-9.917208333333342
 30
0.0
 10
36.82717916666666
 20
-9.968823611111121
 30
0.0
 10
36.82526250000001
 20
-10.07500972222222
 30
0.0
 10
36.91077083333333
 20
-10.16323194444443
 30
0.0
 10
37.01781111111111
 20
-10.16550833333334
 30
0.0
 10
37.01923333333333
 20
-10.16554166666666
 30
0.0
 10
37.02065694444445
 20
-10.16554166666666
 30
0.0
 10
37.02208055555555
 20
-10.16554166666666
 30
0.0
 10
37.0725013888889
 20
-10.16554166666666
 30
0.0
 10
37.12013194444444
 20
-10.1464388888889
 30
0.0
 10
37.156575
 20
-10.11145277777779
 30
0.0
 10
37.19379583333333
 20
-10.07572083333333
 30
0.0
 10
37.21485694444443
 20
-10.02777361111112
 30
0.0
 10
37.21589722222222
 20
-9.976409722222217
 30
0.0
 10
37.21690416666666
 20
-9.925713888888897
 30
0.0
 10
37.19769166666666
 20
-9.877240277777775
 30
0.0
 10
37.16175277777778
 20
-9.839911111111102
 30
0.0
 10
37.12532083333333
 20
-9.802056944444454
 30
0.0
 10
37.07671666666667
 20
-9.78069861111112
 30
0.0
 10
37.02485
 20
-9.779745833333335
 30
0.0
  0
HATCH
  5
48
330
1F
100
AcDbEntity
  8
Layer 1
 62
     7
420
 16777215
100
AcDbHatch
 10
0.0
 20
0.0
 30
0.0
210
0.0
220
0.0
230
1.0
  2
SOLID
 70
     1
 71
     0
 91
        1
 92
        1
 93
        1
 72
     4
 94
        3
 73
     0
 74
     1
 95
       29
 96
       25
 40
0.0
 40
0.0
 40
0.0
 40
0.0
 40
1.0
 40
1.0
 40
1.0
 40
2.0
 40
2.0
 40
2.0
 40
3.0
 40
3.0
 40
3.0
 40
4.0
 40
4.0
 40
4.0
 40
5.0
 40
5.0
 40
5.0
 40
6.0
 40
6.0
 40
6.0
 40
7.0
 40
7.0
 40
7.0
 40
8.0
 40
8.0
 40
8.0
 40
8.0
 10
37.02485
 20
-9.779745833333335
 10
36.97439444444444
 20
-9.778422222222211
 10
36.92392916666666
 20
-9.797863888888893
 10
36.88664305555556
 20
-9.83343055555555
 10
36.84923749999999
 20
-9.869118055555544
 10
36.82810972222223
 20
-9.917208333333342
 10
36.82717916666666
 20
-9.968823611111121
 10
36.82526250000001
 20
-10.07500972222222
 10
36.91077083333333
 20
-10.16323194444443
 10
37.01781111111111
 20
-10.16550833333334
 10
37.01923333333333
 20
-10.16554166666666
 10
37.02065694444445
 20
-10.16554166666666
 10
37.02208055555555
 20
-10.16554166666666
 10
37.0725013888889
 20
-10.16554166666666
 10
37.12013194444444
 20
-10.1464388888889
 10
37.156575
 20
-10.11145277777779
 10
37.19379583333333
 20
-10.07572083333333
 10
37.21485694444443
 20
-10.02777361111112
 10
37.21589722222222
 20
-9.976409722222217
 10
37.21690416666666
 20
-9.925713888888897
 10
37.19769166666666
 20
-9.877240277777775
 10
37.16175277777778
 20
-9.839911111111102
 10
37.12532083333333
 20
-9.802056944444454
 10
37.07671666666667
 20
-9.78069861111112
 10
37.02485
 20
-9.779745833333335
 97
        0
 97
        0
 75
     2
 76
     1
 98
        0
  0
SPLINE
  5
49
330
1F
100
AcDbEntity
  8
Layer 1
370
     0
100
AcDbSpline
210
0.0
220
0.0
230
1.0
 70
    11
 71
     3
 72
    32
 73
    28
 74
     0
 42
0.0000000001
 43
0.0000000001
 12
1.0
 22
0.0
 32
0.0
 13
1.0
 23
0.0
 33
0.0
 40
0.0
 40
0.0
 40
0.0
 40
0.0
 40
1.0
 40
1.0
 40
1.0
 40
2.0
 40
2.0
 40
2.0
 40
3.0
 40
3.0
 40
3.0
 40
4.0
 40
4.0
 40
4.0
 40
5.0
 40
5.0
 40
5.0
 40
6.0
 40
6.0
 40
6.0
 40
7.0
 40
7.0
 40
7.0
 40
8.0
 40
8.0
 40
8.0
 40
9.0
 40
9.0
 40
9.0
 40
9.0
 10
38.31493611111111
 20
-9.77995416666666
 30
0.0
 10
38.31454166666666
 20
-9.77995416666666
 30
0.0
 10
38.31412638888888
 20
-9.77995416666666
 30
0.0
 10
38.31370972222223
 20
-9.77995416666666
 30
0.0
 10
38.26362777777778
 20
-9.780261111111106
 30
0.0
 10
38.2142125
 20
-9.801640277777778
 30
0.0
 10
38.1780875
 20
-9.838630555555557
 30
0.0
 10
38.14194027777777
 20
-9.875631944444446
 30
0.0
 10
38.12169861111111
 20
-9.925594444444439
 30
0.0
 10
38.12255277777778
 20
-9.97574166666666
 30
0.0
 10
38.12430416666666
 20
-10.07810833333332
 30
0.0
 10
38.20901249999999
 20
-10.16311111111112
 30
0.0
 10
38.3114
 20
-10.16527916666668
 30
0.0
 10
38.312725
 20
-10.16530138888889
 30
0.0
 10
38.31405972222223
 20
-10.16530138888889
 30
0.0
 10
38.31538472222222
 20
-10.16530138888889
 30
0.0
 10
38.36475555555555
 20
-10.16530138888889
 30
0.0
 10
38.41171805555556
 20
-10.14599027777778
 30
0.0
 10
38.44790972222222
 20
-10.11066388888889
 30
0.0
 10
38.4849
 20
-10.0745611111111
 30
0.0
 10
38.50622500000001
 20
-10.02465416666668
 30
0.0
 10
38.50641111111111
 20
-9.973716666666657
 30
0.0
 10
38.50665138888889
 20
-9.922025
 30
0.0
 10
38.48629027777777
 20
-9.873190277777768
 30
0.0
 10
38.4492125
 20
-9.83617777777777
 30
0.0
 10
38.41283472222221
 20
-9.799888888888896
 30
0.0
 10
38.36518333333333
 20
-9.77995416666666
 30
0.0
 10
38.31493611111111
 20
-9.77995416666666
 30
0.0
  0
HATCH
  5
4A
330
1F
100
AcDbEntity
  8
Layer 1
 62
     7
420
 16777215
100
AcDbHatch
 10
0.0
 20
0.0
 30
0.0
210
0.0
220
0.0
230
1.0
  2
SOLID
 70
     1
 71
     0
 91
        1
 92
        1
 93
        1
 72
     4
 94
        3
 73
     0
 74
     1
 95
       32
 96
       28
 40
0.0
 40
0.0
 40
0.0
 40
0.0
 40
1.0
 40
1.0
 40
1.0
 40
2.0
 40
2.0
 40
2.0
 40
3.0
 40
3.0
 40
3.0
 40
4.0
 40
4.0
 40
4.0
 40
5.0
 40
5.0
 40
5.0
 40
6.0
 40
6.0
 40
6.0
 40
7.0
 40
7.0
 40
7.0
 40
8.0
 40
8.0
 40
8.0
 40
9.0
 40
9.0
 40
9.0
 40
9.0
 10
38.31493611111111
 20
-9.77995416666666
 10
38.31454166666666
 20
-9.77995416666666
 10
38.31412638888888
 20
-9.77995416666666
 10
38.31370972222223
 20
-9.77995416666666
 10
38.26362777777778
 20
-9.780261111111106
 10
38.2142125
 20
-9.801640277777778
 10
38.1780875
 20
-9.838630555555557
 10
38.14194027777777
 20
-9.875631944444446
 10
38.12169861111111
 20
-9.925594444444439
 10
38.12255277777778
 20
-9.97574166666666
 10
38.12430416666666
 20
-10.07810833333332
 10
38.20901249999999
 20
-10.16311111111112
 10
38.3114
 20
-10.16527916666668
 10
38.312725
 20
-10.16530138888889
 10
38.31405972222223
 20
-10.16530138888889
 10
38.31538472222222
 20
-10.16530138888889
 10
38.36475555555555
 20
-10.16530138888889
 10
38.41171805555556
 20
-10.14599027777778
 10
38.44790972222222
 20
-10.11066388888889
 10
38.4849
 20
-10.0745611111111
 10
38.50622500000001
 20
-10.02465416666668
 10
38.50641111111111
 20
-9.973716666666657
 10
38.50665138888889
 20
-9.922025
 10
38.48629027777777
 20
-9.873190277777768
 10
38.4492125
 20
-9.83617777777777
 10
38.41283472222221
 20
-9.799888888888896
 10
38.36518333333333
 20
-9.77995416666666
 10
38.31493611111111
 20
-9.77995416666666
 97
        0
 97
        0
 75
     2
 76
     1
 98
        0
  0
SPLINE
  5
4B
330
1F
100
AcDbEntity
  8
Layer 1
370
     0
100
AcDbSpline
210
0.0
220
0.0
230
1.0
 70
    11
 71
     3
 72
    35
 73
    31
 74
     0
 42
0.0000000001
 43
0.0000000001
 12
1.0
 22
0.0
 32
0.0
 13
1.0
 23
0.0
 33
0.0
 40
0.0
 40
0.0
 40
0.0
 40
0.0
 40
1.0
 40
1.0
 40
1.0
 40
2.0
 40
2.0
 40
2.0
 40
3.0
 40
3.0
 40
3.0
 40
4.0
 40
4.0
 40
4.0
 40
5.0
 40
5.0
 40
5.0
 40
6.0
 40
6.0
 40
6.0
 40
7.0
 40
7.0
 40
7.0
 40
8.0
 40
8.0
 40
8.0
 40
9.0
 40
9.0
 40
9.0
 40
10.0
 40
10.0
 40
10.0
 40
10.0
 10
37.67041805555555
 20
-9.781005555555566
 30
0.0
 10
37.66993611111111
 20
-9.781005555555566
 30
0.0
 10
37.66946527777777
 20
-9.781005555555566
 30
0.0
 10
37.66899444444445
 20
-9.781005555555566
 30
0.0
 10
37.56526111111111
 20
-9.781005555555566
 30
0.0
 10
37.48152777777778
 20
-9.86170694444445
 30
0.0
 10
37.47809027777778
 20
-9.96533194444444
 30
0.0
 10
37.47633888888889
 20
-10.01773472222223
 30
0.0
 10
37.49480555555556
 20
-10.06720416666667
 30
0.0
 10
37.53004444444444
 20
-10.10465416666665
 30
0.0
 10
37.56491111111111
 20
-10.14168888888889
 30
0.0
 10
37.61245416666667
 20
-10.1628375
 30
0.0
 10
37.66389444444444
 20
-10.16420694444443
 30
0.0
 10
37.66389444444444
 20
-10.16420694444443
 30
0.0
 10
37.66392638888889
 20
-10.16420694444443
 30
0.0
 10
37.66392638888889
 20
-10.16420694444443
 30
0.0
 10
37.66571111111111
 20
-10.16424999999999
 30
0.0
 10
37.66748472222222
 20
-10.16428333333334
 30
0.0
 10
37.66925833333333
 20
-10.16428333333334
 30
0.0
 10
37.71932916666666
 20
-10.16428333333334
 30
0.0
 10
37.76625972222223
 20
-10.14561805555556
 30
0.0
 10
37.80194722222222
 20
-10.11140833333333
 30
0.0
 10
37.83885972222222
 20
-10.07602777777778
 30
0.0
 10
37.8596375
 20
-10.02791527777777
 30
0.0
 10
37.86046944444445
 20
-9.975950000000012
 30
0.0
 10
37.8613125
 20
-9.923841666666677
 30
0.0
 10
37.84202361111112
 20
-9.87496388888889
 30
0.0
 10
37.80616111111111
 20
-9.838280555555558
 30
0.0
 10
37.77043055555555
 20
-9.801705555555548
 30
0.0
 10
37.72221944444443
 20
-9.781355555555566
 30
0.0
 10
37.67041805555555
 20
-9.781005555555566
 30
0.0
  0
HATCH
  5
4C
330
1F
100
AcDbEntity
  8
Layer 1
 62
     7
420
 16777215
100
AcDbHatch
 10
0.0
 20
0.0
 30
0.0
210
0.0
220
0.0
230
1.0
  2
SOLID
 70
     1
 71
     0
 91
        1
 92
        1
 93
        1
 72
     4
 94
        3
 73
     0
 74
     1
 95
       35
 96
       31
 40
0.0
 40
0.0
 40
0.0
 40
0.0
 40
1.0
 40
1.0
 40
1.0
 40
2.0
 40
2.0
 40
2.0
 40
3.0
 40
3.0
 40
3.0
 40
4.0
 40
4.0
 40
4.0
 40
5.0
 40
5.0
 40
5.0
 40
6.0
 40
6.0
 40
6.0
 40
7.0
 40
7.0
 40
7.0
 40
8.0
 40
8.0
 40
8.0
 40
9.0
 40
9.0
 40
9.0
 40
10.0
 40
10.0
 40
10.0
 40
10.0
 10
37.67041805555555
 20
-9.781005555555566
 10
37.66993611111111
 20
-9.781005555555566
 10
37.66946527777777
 20
-9.781005555555566
 10
37.66899444444445
 20
-9.781005555555566
 10
37.56526111111111
 20
-9.781005555555566
 10
37.48152777777778
 20
-9.86170694444445
 10
37.47809027777778
 20
-9.96533194444444
 10
37.47633888888889
 20
-10.01773472222223
 10
37.49480555555556
 20
-10.06720416666667
 10
37.53004444444444
 20
-10.10465416666665
 10
37.56491111111111
 20
-10.14168888888889
 10
37.61245416666667
 20
-10.1628375
 10
37.66389444444444
 20
-10.16420694444443
 10
37.66389444444444
 20
-10.16420694444443
 10
37.66392638888889
 20
-10.16420694444443
 10
37.66392638888889
 20
-10.16420694444443
 10
37.66571111111111
 20
-10.16424999999999
 10
37.66748472222222
 20
-10.16428333333334
 10
37.66925833333333
 20
-10.16428333333334
 10
37.71932916666666
 20
-10.16428333333334
 10
37.76625972222223
 20
-10.14561805555556
 10
37.80194722222222
 20
-10.11140833333333
 10
37.83885972222222
 20
-10.07602777777778
 10
37.8596375
 20
-10.02791527777777
 10
37.86046944444445
 20
-9.975950000000012
 10
37.8613125
 20
-9.923841666666677
 10
37.84202361111112
 20
-9.87496388888889
 10
37.80616111111111
 20
-9.838280555555558
 10
37.77043055555555
 20
-9.801705555555548
 10
37.72221944444443
 20
-9.781355555555566
 10
37.67041805555555
 20
-9.781005555555566
 97
        0
 97
        0
 75
     2
 76
     1
 98
        0
  0
SPLINE
  5
4D
330
1F
100
AcDbEntity
  8
Layer 1
370
     0
100
AcDbSpline
210
0.0
220
0.0
230
1.0
 70
    11
 71
     3
 72
    32
 73
    28
 74
     0
 42
0.0000000001
 43
0.0000000001
 12
1.0
 22
0.0
 32
0.0
 13
1.0
 23
0.0
 33
0.0
 40
0.0
 40
0.0
 40
0.0
 40
0.0
 40
1.0
 40
1.0
 40
1.0
 40
2.0
 40
2.0
 40
2.0
 40
3.0
 40
3.0
 40
3.0
 40
4.0
 40
4.0
 40
4.0
 40
5.0
 40
5.0
 40
5.0
 40
6.0
 40
6.0
 40
6.0
 40
7.0
 40
7.0
 40
7.0
 40
8.0
 40
8.0
 40
8.0
 40
9.0
 40
9.0
 40
9.0
 40
9.0
 10
47.32639444444445
 20
-9.779745833333335
 30
0.0
 10
47.27296111111112
 20
-9.778902777777779
 30
0.0
 10
47.22545138888889
 20
-9.797863888888893
 30
0.0
 10
47.18814444444443
 20
-9.83343055555555
 30
0.0
 10
47.1507375
 20
-9.869118055555544
 30
0.0
 10
47.12963194444445
 20
-9.917208333333342
 30
0.0
 10
47.12870138888889
 20
-9.968823611111121
 30
0.0
 10
47.12679722222222
 20
-10.07500972222222
 30
0.0
 10
47.21231527777778
 20
-10.16323194444443
 30
0.0
 10
47.31931111111112
 20
-10.16550833333334
 30
0.0
 10
47.32075694444443
 20
-10.16554166666666
 30
0.0
 10
47.32215833333334
 20
-10.16554166666666
 30
0.0
 10
47.32360277777777
 20
-10.16554166666666
 30
0.0
 10
47.37400277777778
 20
-10.16554166666666
 30
0.0
 10
47.4216111111111
 20
-10.1464388888889
 30
0.0
 10
47.45808749999999
 20
-10.11145277777779
 30
0.0
 10
47.49529583333333
 20
-10.07575416666666
 30
0.0
 10
47.51635833333335
 20
-10.02779583333333
 30
0.0
 10
47.51743055555557
 20
-9.976443055555565
 30
0.0
 10
47.51743055555557
 20
-9.976443055555565
 30
0.0
 10
47.51743055555557
 20
-9.9763875
 30
0.0
 10
47.51743055555557
 20
-9.9763875
 30
0.0
 10
47.51840555555555
 20
-9.925659722222235
 30
0.0
 10
47.49917083333333
 20
-9.877175000000003
 30
0.0
 10
47.46320972222222
 20
-9.839856944444438
 30
0.0
 10
47.42677916666667
 20
-9.802056944444454
 30
0.0
 10
47.37819583333334
 20
-9.78069861111112
 30
0.0
 10
47.32639444444445
 20
-9.779745833333335
 30
0.0
  0
HATCH
  5
4E
330
1F
100
AcDbEntity
  8
Layer 1
 62
     7
420
 16777215
100
AcDbHatch
 10
0.0
 20
0.0
 30
0.0
210
0.0
220
0.0
230
1.0
  2
SOLID
 70
     1
 71
     0
 91
        1
 92
        1
 93
        1
 72
     4
 94
        3
 73
     0
 74
     1
 95
       32
 96
       28
 40
0.0
 40
0.0
 40
0.0
 40
0.0
 40
1.0
 40
1.0
 40
1.0
 40
2.0
 40
2.0
 40
2.0
 40
3.0
 40
3.0
 40
3.0
 40
4.0
 40
4.0
 40
4.0
 40
5.0
 40
5.0
 40
5.0
 40
6.0
 40
6.0
 40
6.0
 40
7.0
 40
7.0
 40
7.0
 40
8.0
 40
8.0
 40
8.0
 40
9.0
 40
9.0
 40
9.0
 40
9.0
 10
47.32639444444445
 20
-9.779745833333335
 10
47.27296111111112
 20
-9.778902777777779
 10
47.22545138888889
 20
-9.797863888888893
 10
47.18814444444443
 20
-9.83343055555555
 10
47.1507375
 20
-9.869118055555544
 10
47.12963194444445
 20
-9.917208333333342
 10
47.12870138888889
 20
-9.968823611111121
 10
47.12679722222222
 20
-10.07500972222222
 10
47.21231527777778
 20
-10.16323194444443
 10
47.31931111111112
 20
-10.16550833333334
 10
47.32075694444443
 20
-10.16554166666666
 10
47.32215833333334
 20
-10.16554166666666
 10
47.32360277777777
 20
-10.16554166666666
 10
47.37400277777778
 20
-10.16554166666666
 10
47.4216111111111
 20
-10.1464388888889
 10
47.45808749999999
 20
-10.11145277777779
 10
47.49529583333333
 20
-10.07575416666666
 10
47.51635833333335
 20
-10.02779583333333
 10
47.51743055555557
 20
-9.976443055555565
 10
47.51743055555557
 20
-9.976443055555565
 10
47.51743055555557
 20
-9.9763875
 10
47.51743055555557
 20
-9.9763875
 10
47.51840555555555
 20
-9.925659722222235
 10
47.49917083333333
 20
-9.877175000000003
 10
47.46320972222222
 20
-9.839856944444438
 10
47.42677916666667
 20
-9.802056944444454
 10
47.37819583333334
 20
-9.78069861111112
 10
47.32639444444445
 20
-9.779745833333335
 97
        0
 97
        0
 75
     2
 76
     1
 98
        0
  0
SPLINE
  5
4F
330
1F
100
AcDbEntity
  8
Layer 1
370
     0
100
AcDbSpline
210
0.0
220
0.0
230
1.0
 70
    11
 71
     3
 72
    32
 73
    28
 74
     0
 42
0.0000000001
 43
0.0000000001
 12
1.0
 22
0.0
 32
0.0
 13
1.0
 23
0.0
 33
0.0
 40
0.0
 40
0.0
 40
0.0
 40
0.0
 40
1.0
 40
1.0
 40
1.0
 40
2.0
 40
2.0
 40
2.0
 40
3.0
 40
3.0
 40
3.0
 40
4.0
 40
4.0
 40
4.0
 40
5.0
 40
5.0
 40
5.0
 40
6.0
 40
6.0
 40
6.0
 40
7.0
 40
7.0
 40
7.0
 40
8.0
 40
8.0
 40
8.0
 40
9.0
 40
9.0
 40
9.0
 40
9.0
 10
48.76993611111111
 20
-9.836200000000012
 30
0.0
 10
48.73355972222222
 20
-9.799888888888896
 30
0.0
 10
48.68590694444444
 20
-9.77995416666666
 30
0.0
 10
48.6356375
 20
-9.77995416666666
 30
0.0
 10
48.63522222222223
 20
-9.77995416666666
 30
0.0
 10
48.63480555555555
 20
-9.77995416666666
 30
0.0
 10
48.63443333333334
 20
-9.77995416666666
 30
0.0
 10
48.58435138888888
 20
-9.780261111111106
 30
0.0
 10
48.53493611111112
 20
-9.801662499999994
 30
0.0
 10
48.49878888888889
 20
-9.838630555555557
 30
0.0
 10
48.46264166666666
 20
-9.875631944444446
 30
0.0
 10
48.44242222222222
 20
-9.925615277777776
 30
0.0
 10
48.44325416666667
 20
-9.97574166666666
 30
0.0
 10
48.44502777777777
 20
-10.07810833333332
 30
0.0
 10
48.52971388888889
 20
-10.16311111111112
 30
0.0
 10
48.63210138888889
 20
-10.16527916666668
 30
0.0
 10
48.63340416666667
 20
-10.16530138888889
 30
0.0
 10
48.63470694444443
 20
-10.16530138888889
 30
0.0
 10
48.63606527777779
 20
-10.16530138888889
 30
0.0
 10
48.68547916666668
 20
-10.16530138888889
 30
0.0
 10
48.73244305555555
 20
-10.14599027777778
 30
0.0
 10
48.76863333333333
 20
-10.11064305555556
 30
0.0
 10
48.80562361111111
 20
-10.07453888888888
 30
0.0
 10
48.82695972222223
 20
-10.02463194444443
 30
0.0
 10
48.82714583333333
 20
-9.973716666666657
 30
0.0
 10
48.827375
 20
-9.922058333333325
 30
0.0
 10
48.80701388888888
 20
-9.87321250000001
 30
0.0
 10
48.76993611111111
 20
-9.836200000000012
 30
0.0
  0
HATCH
  5
50
330
1F
100
AcDbEntity
  8
Layer 1
 62
     7
420
 16777215
100
AcDbHatch
 10
0.0
 20
0.0
 30
0.0
210
0.0
220
0.0
230
1.0
  2
SOLID
 70
     1
 71
     0
 91
        1
 92
        1
 93
        1
 72
     4
 94
        3
 73
     0
 74
     1
 95
       32
 96
       28
 40
0.0
 40
0.0
 40
0.0
 40
0.0
 40
1.0
 40
1.0
 40
1.0
 40
2.0
 40
2.0
 40
2.0
 40
3.0
 40
3.0
 40
3.0
 40
4.0
 40
4.0
 40
4.0
 40
5.0
 40
5.0
 40
5.0
 40
6.0
 40
6.0
 40
6.0
 40
7.0
 40
7.0
 40
7.0
 40
8.0
 40
8.0
 40
8.0
 40
9.0
 40
9.0
 40
9.0
 40
9.0
 10
48.76993611111111
 20
-9.836200000000012
 10
48.73355972222222
 20
-9.799888888888896
 10
48.68590694444444
 20
-9.77995416666666
 10
48.6356375
 20
-9.77995416666666
 10
48.63522222222223
 20
-9.77995416666666
 10
48.63480555555555
 20
-9.77995416666666
 10
48.63443333333334
 20
-9.77995416666666
 10
48.58435138888888
 20
-9.780261111111106
 10
48.53493611111112
 20
-9.801662499999994
 10
48.49878888888889
 20
-9.838630555555557
 10
48.46264166666666
 20
-9.875631944444446
 10
48.44242222222222
 20
-9.925615277777776
 10
48.44325416666667
 20
-9.97574166666666
 10
48.44502777777777
 20
-10.07810833333332
 10
48.52971388888889
 20
-10.16311111111112
 10
48.63210138888889
 20
-10.16527916666668
 10
48.63340416666667
 20
-10.16530138888889
 10
48.63470694444443
 20
-10.16530138888889
 10
48.63606527777779
 20
-10.16530138888889
 10
48.68547916666668
 20
-10.16530138888889
 10
48.73244305555555
 20
-10.14599027777778
 10
48.76863333333333
 20
-10.11064305555556
 10
48.80562361111111
 20
-10.07453888888888
 10
48.82695972222223
 20
-10.02463194444443
 10
48.82714583333333
 20
-9.973716666666657
 10
48.827375
 20
-9.922058333333325
 10
48.80701388888888
 20
-9.87321250000001
 10
48.76993611111111
 20
-9.836200000000012
 97
        0
 97
        0
 75
     2
 76
     1
 98
        0
  0
SPLINE
  5
51
330
1F
100
AcDbEntity
  8
Layer 1
370
     0
100
AcDbSpline
210
0.0
220
0.0
230
1.0
 70
    11
 71
     3
 72
    35
 73
    31
 74
     0
 42
0.0000000001
 43
0.0000000001
 12
1.0
 22
0.0
 32
0.0
 13
1.0
 23
0.0
 33
0.0
 40
0.0
 40
0.0
 40
0.0
 40
0.0
 40
1.0
 40
1.0
 40
1.0
 40
2.0
 40
2.0
 40
2.0
 40
3.0
 40
3.0
 40
3.0
 40
4.0
 40
4.0
 40
4.0
 40
5.0
 40
5.0
 40
5.0
 40
6.0
 40
6.0
 40
6.0
 40
7.0
 40
7.0
 40
7.0
 40
8.0
 40
8.0
 40
8.0
 40
9.0
 40
9.0
 40
9.0
 40
10.0
 40
10.0
 40
10.0
 40
10.0
 10
47.98148750000001
 20
-9.781005555555566
 30
0.0
 10
47.9810263888889
 20
-9.781005555555566
 30
0.0
 10
47.98055694444444
 20
-9.781005555555566
 30
0.0
 10
47.98009722222221
 20
-9.781005555555566
 30
0.0
 10
47.87635138888891
 20
-9.781005555555566
 30
0.0
 10
47.79259583333333
 20
-9.86170694444445
 30
0.0
 10
47.78920277777777
 20
-9.96533194444444
 30
0.0
 10
47.78742916666667
 20
-10.01773472222223
 30
0.0
 10
47.80587500000001
 20
-10.06720416666667
 30
0.0
 10
47.84113472222222
 20
-10.10465416666665
 30
0.0
 10
47.87602361111112
 20
-10.14168888888889
 30
0.0
 10
47.92354444444446
 20
-10.1628375
 30
0.0
 10
47.9749625
 20
-10.16420694444443
 30
0.0
 10
47.9749625
 20
-10.16420694444443
 30
0.0
 10
47.97501666666665
 20
-10.16420694444443
 30
0.0
 10
47.97501666666665
 20
-10.16420694444443
 30
0.0
 10
47.97677916666667
 20
-10.16424999999999
 30
0.0
 10
47.97859722222223
 20
-10.16428333333334
 30
0.0
 10
47.98037083333333
 20
-10.16428333333334
 30
0.0
 10
48.03039861111112
 20
-10.16428333333334
 30
0.0
 10
48.07735
 20
-10.14561805555556
 30
0.0
 10
48.11303749999999
 20
-10.11143055555555
 30
0.0
 10
48.14997222222223
 20
-10.07605
 30
0.0
 10
48.17075
 20
-10.02793750000001
 30
0.0
 10
48.17159305555555
 20
-9.975950000000012
 30
0.0
 10
48.172425
 20
-9.923875000000002
 30
0.0
 10
48.15314722222224
 20
-9.874986111111108
 30
0.0
 10
48.11727361111111
 20
-9.838280555555558
 30
0.0
 10
48.08154305555556
 20
-9.801705555555548
 30
0.0
 10
48.03328888888889
 20
-9.781355555555566
 30
0.0
 10
47.98148750000001
 20
-9.781005555555566
 30
0.0
  0
HATCH
  5
52
330
1F
100
AcDbEntity
  8
Layer 1
 62
     7
420
 16777215
100
AcDbHatch
 10
0.0
 20
0.0
 30
0.0
210
0.0
220
0.0
230
1.0
  2
SOLID
 70
     1
 71
     0
 91
        1
 92
        1
 93
        1
 72
     4
 94
        3
 73
     0
 74
     1
 95
       35
 96
       31
 40
0.0
 40
0.0
 40
0.0
 40
0.0
 40
1.0
 40
1.0
 40
1.0
 40
2.0
 40
2.0
 40
2.0
 40
3.0
 40
3.0
 40
3.0
 40
4.0
 40
4.0
 40
4.0
 40
5.0
 40
5.0
 40
5.0
 40
6.0
 40
6.0
 40
6.0
 40
7.0
 40
7.0
 40
7.0
 40
8.0
 40
8.0
 40
8.0
 40
9.0
 40
9.0
 40
9.0
 40
10.0
 40
10.0
 40
10.0
 40
10.0
 10
47.98148750000001
 20
-9.781005555555566
 10
47.9810263888889
 20
-9.781005555555566
 10
47.98055694444444
 20
-9.781005555555566
 10
47.98009722222221
 20
-9.781005555555566
 10
47.87635138888891
 20
-9.781005555555566
 10
47.79259583333333
 20
-9.86170694444445
 10
47.78920277777777
 20
-9.96533194444444
 10
47.78742916666667
 20
-10.01773472222223
 10
47.80587500000001
 20
-10.06720416666667
 10
47.84113472222222
 20
-10.10465416666665
 10
47.87602361111112
 20
-10.14168888888889
 10
47.92354444444446
 20
-10.1628375
 10
47.9749625
 20
-10.16420694444443
 10
47.9749625
 20
-10.16420694444443
 10
47.97501666666665
 20
-10.16420694444443
 10
47.97501666666665
 20
-10.16420694444443
 10
47.97677916666667
 20
-10.16424999999999
 10
47.97859722222223
 20
-10.16428333333334
 10
47.98037083333333
 20
-10.16428333333334
 10
48.03039861111112
 20
-10.16428333333334
 10
48.07735
 20
-10.14561805555556
 10
48.11303749999999
 20
-10.11143055555555
 10
48.14997222222223
 20
-10.07605
 10
48.17075
 20
-10.02793750000001
 10
48.17159305555555
 20
-9.975950000000012
 10
48.172425
 20
-9.923875000000002
 10
48.15314722222224
 20
-9.874986111111108
 10
48.11727361111111
 20
-9.838280555555558
 10
48.08154305555556
 20
-9.801705555555548
 10
48.03328888888889
 20
-9.781355555555566
 10
47.98148750000001
 20
-9.781005555555566
 97
        0
 97
        0
 75
     2
 76
     1
 98
        0
  0
SPLINE
  5
53
330
1F
100
AcDbEntity
  8
Layer 1
370
     0
100
AcDbSpline
210
0.0
220
0.0
230
1.0
 70
    11
 71
     3
 72
    29
 73
    25
 74
     0
 42
0.0000000001
 43
0.0000000001
 12
1.0
 22
0.0
 32
0.0
 13
1.0
 23
0.0
 33
0.0
 40
0.0
 40
0.0
 40
0.0
 40
0.0
 40
1.0
 40
1.0
 40
1.0
 40
2.0
 40
2.0
 40
2.0
 40
3.0
 40
3.0
 40
3.0
 40
4.0
 40
4.0
 40
4.0
 40
5.0
 40
5.0
 40
5.0
 40
6.0
 40
6.0
 40
6.0
 40
7.0
 40
7.0
 40
7.0
 40
8.0
 40
8.0
 40
8.0
 40
8.0
 10
42.7418625
 20
-2.824448611111115
 30
0.0
 10
42.74316527777778
 20
-2.824502777777778
 30
0.0
 10
42.744425
 20
-2.824502777777778
 30
0.0
 10
42.74572777777777
 20
-2.824502777777778
 30
0.0
 10
42.78858472222221
 20
-2.824502777777778
 30
0.0
 10
42.82902361111112
 20
-2.808334722222222
 30
0.0
 10
42.85994861111112
 20
-2.778711111111117
 30
0.0
 10
42.89176111111111
 20
-2.748223611111105
 30
0.0
 10
42.90979027777777
 20
-2.707095833333331
 30
0.0
 10
42.91067777777779
 20
-2.662837499999998
 30
0.0
 10
42.91245000000001
 20
-2.571659722222219
 30
0.0
 10
42.84019999999999
 20
-2.495401388888884
 30
0.0
 10
42.74959166666667
 20
-2.492862500000001
 30
0.0
 10
42.7084638888889
 20
-2.491483333333336
 30
0.0
 10
42.66486111111111
 20
-2.508395833333338
 30
0.0
 10
42.63276527777778
 20
-2.538795833333337
 30
0.0
 10
42.60025138888889
 20
-2.569623611111107
 30
0.0
 10
42.58097361111111
 20
-2.612065277777775
 30
0.0
 10
42.57990138888888
 20
-2.655249999999998
 30
0.0
 10
42.57882916666666
 20
-2.698895833333331
 30
0.0
 10
42.59504166666666
 20
-2.740626388888889
 30
0.0
 10
42.6256375
 20
-2.772745833333336
 30
0.0
 10
42.65643194444444
 20
-2.805072222222217
 30
0.0
 10
42.69770277777777
 20
-2.823451388888884
 30
0.0
 10
42.7418625
 20
-2.824448611111115
 30
0.0
  0
HATCH
  5
54
330
1F
100
AcDbEntity
  8
Layer 1
 62
     7
420
 16777215
100
AcDbHatch
 10
0.0
 20
0.0
 30
0.0
210
0.0
220
0.0
230
1.0
  2
SOLID
 70
     1
 71
     0
 91
        1
 92
        1
 93
        1
 72
     4
 94
        3
 73
     0
 74
     1
 95
       29
 96
       25
 40
0.0
 40
0.0
 40
0.0
 40
0.0
 40
1.0
 40
1.0
 40
1.0
 40
2.0
 40
2.0
 40
2.0
 40
3.0
 40
3.0
 40
3.0
 40
4.0
 40
4.0
 40
4.0
 40
5.0
 40
5.0
 40
5.0
 40
6.0
 40
6.0
 40
6.0
 40
7.0
 40
7.0
 40
7.0
 40
8.0
 40
8.0
 40
8.0
 40
8.0
 10
42.7418625
 20
-2.824448611111115
 10
42.74316527777778
 20
-2.824502777777778
 10
42.744425
 20
-2.824502777777778
 10
42.74572777777777
 20
-2.824502777777778
 10
42.78858472222221
 20
-2.824502777777778
 10
42.82902361111112
 20
-2.808334722222222
 10
42.85994861111112
 20
-2.778711111111117
 10
42.89176111111111
 20
-2.748223611111105
 10
42.90979027777777
 20
-2.707095833333331
 10
42.91067777777779
 20
-2.662837499999998
 10
42.91245000000001
 20
-2.571659722222219
 10
42.84019999999999
 20
-2.495401388888884
 10
42.74959166666667
 20
-2.492862500000001
 10
42.7084638888889
 20
-2.491483333333336
 10
42.66486111111111
 20
-2.508395833333338
 10
42.63276527777778
 20
-2.538795833333337
 10
42.60025138888889
 20
-2.569623611111107
 10
42.58097361111111
 20
-2.612065277777775
 10
42.57990138888888
 20
-2.655249999999998
 10
42.57882916666666
 20
-2.698895833333331
 10
42.59504166666666
 20
-2.740626388888889
 10
42.6256375
 20
-2.772745833333336
 10
42.65643194444444
 20
-2.805072222222217
 10
42.69770277777777
 20
-2.823451388888884
 10
42.7418625
 20
-2.824448611111115
 97
        0
 97
        0
 75
     2
 76
     1
 98
        0
  0
SPLINE
  5
55
330
1F
100
AcDbEntity
  8
Layer 1
370
     0
100
AcDbSpline
210
0.0
220
0.0
230
1.0
 70
    11
 71
     3
 72
    29
 73
    25
 74
     0
 42
0.0000000001
 43
0.0000000001
 12
1.0
 22
0.0
 32
0.0
 13
1.0
 23
0.0
 33
0.0
 40
0.0
 40
0.0
 40
0.0
 40
0.0
 40
1.0
 40
1.0
 40
1.0
 40
2.0
 40
2.0
 40
2.0
 40
3.0
 40
3.0
 40
3.0
 40
4.0
 40
4.0
 40
4.0
 40
5.0
 40
5.0
 40
5.0
 40
6.0
 40
6.0
 40
6.0
 40
7.0
 40
7.0
 40
7.0
 40
8.0
 40
8.0
 40
8.0
 40
8.0
 10
42.86483055555555
 20
-3.124506944444445
 30
0.0
 10
42.83436527777778
 20
-3.091949999999997
 30
0.0
 10
42.79225138888889
 20
-3.072573611111112
 30
0.0
 10
42.74926250000001
 20
-3.071315277777772
 30
0.0
 10
42.70733611111111
 20
-3.070613888888892
 30
0.0
 10
42.66401805555557
 20
-3.086947222222218
 30
0.0
 10
42.63206388888889
 20
-3.117663888888892
 30
0.0
 10
42.59968333333333
 20
-3.148709722222217
 30
0.0
 10
42.58086527777778
 20
-3.191381944444439
 30
0.0
 10
42.58040555555556
 20
-3.234743055555555
 30
0.0
 10
42.579475
 20
-3.32337083333333
 30
0.0
 10
42.64840833333334
 20
-3.395970833333333
 30
0.0
 10
42.73733055555556
 20
-3.400000000000002
 30
0.0
 10
42.73994722222222
 20
-3.400108333333328
 30
0.0
 10
42.74255277777777
 20
-3.400186111111111
 30
0.0
 10
42.7452125
 20
-3.400186111111111
 30
0.0
 10
42.78722777777778
 20
-3.400163888888894
 30
0.0
 10
42.82690972222223
 20
-3.384805555555557
 30
0.0
 10
42.85766111111111
 20
-3.356462499999995
 30
0.0
 10
42.88984444444446
 20
-3.326818055555552
 30
0.0
 10
42.90847638888888
 20
-3.286380555555549
 30
0.0
 10
42.91006388888889
 20
-3.242570833333338
 30
0.0
 10
42.91164027777778
 20
-3.199952777777778
 30
0.0
 10
42.89515416666666
 20
-3.156909722222217
 30
0.0
 10
42.86483055555555
 20
-3.124506944444445
 30
0.0
  0
HATCH
  5
56
330
1F
100
AcDbEntity
  8
Layer 1
 62
     7
420
 16777215
100
AcDbHatch
 10
0.0
 20
0.0
 30
0.0
210
0.0
220
0.0
230
1.0
  2
SOLID
 70
     1
 71
     0
 91
        1
 92
        1
 93
        1
 72
     4
 94
        3
 73
     0
 74
     1
 95
       29
 96
       25
 40
0.0
 40
0.0
 40
0.0
 40
0.0
 40
1.0
 40
1.0
 40
1.0
 40
2.0
 40
2.0
 40
2.0
 40
3.0
 40
3.0
 40
3.0
 40
4.0
 40
4.0
 40
4.0
 40
5.0
 40
5.0
 40
5.0
 40
6.0
 40
6.0
 40
6.0
 40
7.0
 40
7.0
 40
7.0
 40
8.0
 40
8.0
 40
8.0
 40
8.0
 10
42.86483055555555
 20
-3.124506944444445
 10
42.83436527777778
 20
-3.091949999999997
 10
42.79225138888889
 20
-3.072573611111112
 10
42.74926250000001
 20
-3.071315277777772
 10
42.70733611111111
 20
-3.070613888888892
 10
42.66401805555557
 20
-3.086947222222218
 10
42.63206388888889
 20
-3.117663888888892
 10
42.59968333333333
 20
-3.148709722222217
 10
42.58086527777778
 20
-3.191381944444439
 10
42.58040555555556
 20
-3.234743055555555
 10
42.579475
 20
-3.32337083333333
 10
42.64840833333334
 20
-3.395970833333333
 10
42.73733055555556
 20
-3.400000000000002
 10
42.73994722222222
 20
-3.400108333333328
 10
42.74255277777777
 20
-3.400186111111111
 10
42.7452125
 20
-3.400186111111111
 10
42.78722777777778
 20
-3.400163888888894
 10
42.82690972222223
 20
-3.384805555555557
 10
42.85766111111111
 20
-3.356462499999995
 10
42.88984444444446
 20
-3.326818055555552
 10
42.90847638888888
 20
-3.286380555555549
 10
42.91006388888889
 20
-3.242570833333338
 10
42.91164027777778
 20
-3.199952777777778
 10
42.89515416666666
 20
-3.156909722222217
 10
42.86483055555555
 20
-3.124506944444445
 97
        0
 97
        0
 75
     2
 76
     1
 98
        0
  0
SPLINE
  5
57
330
1F
100
AcDbEntity
  8
Layer 1
370
     0
100
AcDbSpline
210
0.0
220
0.0
230
1.0
 70
    11
 71
     3
 72
    32
 73
    28
 74
     0
 42
0.0000000001
 43
0.0000000001
 12
1.0
 22
0.0
 32
0.0
 13
1.0
 23
0.0
 33
0.0
 40
0.0
 40
0.0
 40
0.0
 40
0.0
 40
1.0
 40
1.0
 40
1.0
 40
2.0
 40
2.0
 40
2.0
 40
3.0
 40
3.0
 40
3.0
 40
4.0
 40
4.0
 40
4.0
 40
5.0
 40
5.0
 40
5.0
 40
6.0
 40
6.0
 40
6.0
 40
7.0
 40
7.0
 40
7.0
 40
8.0
 40
8.0
 40
8.0
 40
9.0
 40
9.0
 40
9.0
 40
9.0
 10
42.74470972222222
 20
-3.646974999999998
 30
0.0
 10
42.70096527777778
 20
-3.647095833333335
 30
0.0
 10
42.6597388888889
 20
-3.664633333333338
 30
0.0
 10
42.62862638888888
 20
-3.696379166666664
 30
0.0
 10
42.597275
 20
-3.728333333333328
 30
0.0
 10
42.58045972222223
 20
-3.770305555555549
 30
0.0
 10
42.58120416666667
 20
-3.814552777777774
 30
0.0
 10
42.58273611111111
 20
-3.903015277777778
 30
0.0
 10
42.65308194444444
 20
-3.974051388888888
 30
0.0
 10
42.74134861111111
 20
-3.976262499999999
 30
0.0
 10
42.74279305555555
 20
-3.976305555555554
 30
0.0
 10
42.74419444444445
 20
-3.976327777777783
 30
0.0
 10
42.74558472222222
 20
-3.976327777777783
 30
0.0
 10
42.78821249999999
 20
-3.976327777777783
 30
0.0
 10
42.82845416666666
 20
-3.960027777777782
 30
0.0
 10
42.85929166666667
 20
-3.930197222222217
 30
0.0
 10
42.89120277777779
 20
-3.899326388888893
 30
0.0
 10
42.90894722222222
 20
-3.857924999999998
 30
0.0
 10
42.90933055555554
 20
-3.813666666666664
 30
0.0
 10
42.90970277777779
 20
-3.769462499999993
 30
0.0
 10
42.89250555555554
 20
-3.727556944444447
 30
0.0
 10
42.86083472222223
 20
-3.695722222222217
 30
0.0
 10
42.82958194444445
 20
-3.664283333333338
 30
0.0
 10
42.78849722222223
 20
-3.646974999999998
 30
0.0
 10
42.74512499999999
 20
-3.646974999999998
 30
0.0
 10
42.74498333333334
 20
-3.646974999999998
 30
0.0
 10
42.74484027777778
 20
-3.646974999999998
 30
0.0
 10
42.74470972222222
 20
-3.646974999999998
 30
0.0
  0
HATCH
  5
58
330
1F
100
AcDbEntity
  8
Layer 1
 62
     7
420
 16777215
100
AcDbHatch
 10
0.0
 20
0.0
 30
0.0
210
0.0
220
0.0
230
1.0
  2
SOLID
 70
     1
 71
     0
 91
        1
 92
        1
 93
        1
 72
     4
 94
        3
 73
     0
 74
     1
 95
       32
 96
       28
 40
0.0
 40
0.0
 40
0.0
 40
0.0
 40
1.0
 40
1.0
 40
1.0
 40
2.0
 40
2.0
 40
2.0
 40
3.0
 40
3.0
 40
3.0
 40
4.0
 40
4.0
 40
4.0
 40
5.0
 40
5.0
 40
5.0
 40
6.0
 40
6.0
 40
6.0
 40
7.0
 40
7.0
 40
7.0
 40
8.0
 40
8.0
 40
8.0
 40
9.0
 40
9.0
 40
9.0
 40
9.0
 10
42.74470972222222
 20
-3.646974999999998
 10
42.70096527777778
 20
-3.647095833333335
 10
42.6597388888889
 20
-3.664633333333338
 10
42.62862638888888
 20
-3.696379166666664
 10
42.597275
 20
-3.728333333333328
 10
42.58045972222223
 20
-3.770305555555549
 10
42.58120416666667
 20
-3.814552777777774
 10
42.58273611111111
 20
-3.903015277777778
 10
42.65308194444444
 20
-3.974051388888888
 10
42.74134861111111
 20
-3.976262499999999
 10
42.74279305555555
 20
-3.976305555555554
 10
42.74419444444445
 20
-3.976327777777783
 10
42.74558472222222
 20
-3.976327777777783
 10
42.78821249999999
 20
-3.976327777777783
 10
42.82845416666666
 20
-3.960027777777782
 10
42.85929166666667
 20
-3.930197222222217
 10
42.89120277777779
 20
-3.899326388888893
 10
42.90894722222222
 20
-3.857924999999998
 10
42.90933055555554
 20
-3.813666666666664
 10
42.90970277777779
 20
-3.769462499999993
 10
42.89250555555554
 20
-3.727556944444447
 10
42.86083472222223
 20
-3.695722222222217
 10
42.82958194444445
 20
-3.664283333333338
 10
42.78849722222223
 20
-3.646974999999998
 10
42.74512499999999
 20
-3.646974999999998
 10
42.74498333333334
 20
-3.646974999999998
 10
42.74484027777778
 20
-3.646974999999998
 10
42.74470972222222
 20
-3.646974999999998
 97
        0
 97
        0
 75
     2
 76
     1
 98
        0
  0
SPLINE
  5
59
330
1F
100
AcDbEntity
  8
Layer 1
370
     0
100
AcDbSpline
210
0.0
220
0.0
230
1.0
 70
    11
 71
     3
 72
    17
 73
    13
 74
     0
 42
0.0000000001
 43
0.0000000001
 12
1.0
 22
0.0
 32
0.0
 13
1.0
 23
0.0
 33
0.0
 40
0.0
 40
0.0
 40
0.0
 40
0.0
 40
1.0
 40
1.0
 40
1.0
 40
2.0
 40
2.0
 40
2.0
 40
3.0
 40
3.0
 40
3.0
 40
4.0
 40
4.0
 40
4.0
 40
4.0
 10
39.04068055555555
 20
-5.503305555555559
 30
0.0
 10
39.13455138888889
 20
-5.503305555555559
 30
0.0
 10
39.21089583333333
 20
-5.426934722222224
 30
0.0
 10
39.21089583333333
 20
-5.333073611111116
 30
0.0
 10
39.21089583333333
 20
-5.239209722222224
 30
0.0
 10
39.13455138888889
 20
-5.162838888888889
 30
0.0
 10
39.04068055555555
 20
-5.162838888888889
 30
0.0
 10
38.94682083333333
 20
-5.162838888888889
 30
0.0
 10
38.87043194444443
 20
-5.239209722222224
 30
0.0
 10
38.87043194444443
 20
-5.333073611111116
 30
0.0
 10
38.87043194444443
 20
-5.426934722222224
 30
0.0
 10
38.94682083333333
 20
-5.503305555555559
 30
0.0
 10
39.04068055555555
 20
-5.503305555555559
 30
0.0
  0
HATCH
  5
5A
330
1F
100
AcDbEntity
  8
Layer 1
 62
     7
420
 16777215
100
AcDbHatch
 10
0.0
 20
0.0
 30
0.0
210
0.0
220
0.0
230
1.0
  2
SOLID
 70
     1
 71
     0
 91
        1
 92
        1
 93
        1
 72
     4
 94
        3
 73
     0
 74
     1
 95
       17
 96
       13
 40
0.0
 40
0.0
 40
0.0
 40
0.0
 40
1.0
 40
1.0
 40
1.0
 40
2.0
 40
2.0
 40
2.0
 40
3.0
 40
3.0
 40
3.0
 40
4.0
 40
4.0
 40
4.0
 40
4.0
 10
39.04068055555555
 20
-5.503305555555559
 10
39.13455138888889
 20
-5.503305555555559
 10
39.21089583333333
 20
-5.426934722222224
 10
39.21089583333333
 20
-5.333073611111116
 10
39.21089583333333
 20
-5.239209722222224
 10
39.13455138888889
 20
-5.162838888888889
 10
39.04068055555555
 20
-5.162838888888889
 10
38.94682083333333
 20
-5.162838888888889
 10
38.87043194444443
 20
-5.239209722222224
 10
38.87043194444443
 20
-5.333073611111116
 10
38.87043194444443
 20
-5.426934722222224
 10
38.94682083333333
 20
-5.503305555555559
 10
39.04068055555555
 20
-5.503305555555559
 97
        0
 97
        0
 75
     2
 76
     1
 98
        0
  0
SPLINE
  5
5B
330
1F
100
AcDbEntity
  8
Layer 1
370
     0
100
AcDbSpline
210
0.0
220
0.0
230
1.0
 70
    11
 71
     3
 72
    23
 73
    19
 74
     0
 42
0.0000000001
 43
0.0000000001
 12
1.0
 22
0.0
 32
0.0
 13
1.0
 23
0.0
 33
0.0
 40
0.0
 40
0.0
 40
0.0
 40
0.0
 40
1.0
 40
1.0
 40
1.0
 40
2.0
 40
2.0
 40
2.0
 40
3.0
 40
3.0
 40
3.0
 40
4.0
 40
4.0
 40
4.0
 40
5.0
 40
5.0
 40
5.0
 40
6.0
 40
6.0
 40
6.0
 40
6.0
 10
37.46081527777778
 20
-8.907344444444435
 30
0.0
 10
37.3965236111111
 20
-8.843062500000011
 30
0.0
 10
37.28442638888888
 20
-8.843019444444431
 30
0.0
 10
37.22005694444444
 20
-8.907344444444435
 30
0.0
 10
37.15369583333333
 20
-8.973705555555549
 30
0.0
 10
37.15369583333333
 20
-9.081697222222221
 30
0.0
 10
37.22005694444444
 20
-9.148102777777769
 30
0.0
 10
37.25324861111111
 20
-9.181272222222232
 30
0.0
 10
37.29684027777777
 20
-9.197856944444437
 30
0.0
 10
37.34041944444445
 20
-9.197856944444437
 30
0.0
 10
37.38402222222223
 20
-9.197856944444437
 30
0.0
 10
37.4276236111111
 20
-9.181272222222232
 30
0.0
 10
37.46079305555556
 20
-9.148080555555554
 30
0.0
 10
37.49295555555555
 20
-9.115918055555564
 30
0.0
 10
37.51065694444443
 20
-9.073180555555558
 30
0.0
 10
37.51065694444443
 20
-9.027718055555548
 30
0.0
 10
37.51065694444443
 20
-8.982222222222212
 30
0.0
 10
37.49295555555555
 20
-8.939484722222232
 30
0.0
 10
37.46081527777778
 20
-8.907344444444435
 30
0.0
  0
HATCH
  5
5C
330
1F
100
AcDbEntity
  8
Layer 1
 62
     7
420
 16777215
100
AcDbHatch
 10
0.0
 20
0.0
 30
0.0
210
0.0
220
0.0
230
1.0
  2
SOLID
 70
     1
 71
     0
 91
        1
 92
        1
 93
        1
 72
     4
 94
        3
 73
     0
 74
     1
 95
       23
 96
       19
 40
0.0
 40
0.0
 40
0.0
 40
0.0
 40
1.0
 40
1.0
 40
1.0
 40
2.0
 40
2.0
 40
2.0
 40
3.0
 40
3.0
 40
3.0
 40
4.0
 40
4.0
 40
4.0
 40
5.0
 40
5.0
 40
5.0
 40
6.0
 40
6.0
 40
6.0
 40
6.0
 10
37.46081527777778
 20
-8.907344444444435
 10
37.3965236111111
 20
-8.843062500000011
 10
37.28442638888888
 20
-8.843019444444431
 10
37.22005694444444
 20
-8.907344444444435
 10
37.15369583333333
 20
-8.973705555555549
 10
37.15369583333333
 20
-9.081697222222221
 10
37.22005694444444
 20
-9.148102777777769
 10
37.25324861111111
 20
-9.181272222222232
 10
37.29684027777777
 20
-9.197856944444437
 10
37.34041944444445
 20
-9.197856944444437
 10
37.38402222222223
 20
-9.197856944444437
 10
37.4276236111111
 20
-9.181272222222232
 10
37.46079305555556
 20
-9.148080555555554
 10
37.49295555555555
 20
-9.115918055555564
 10
37.51065694444443
 20
-9.073180555555558
 10
37.51065694444443
 20
-9.027718055555548
 10
37.51065694444443
 20
-8.982222222222212
 10
37.49295555555555
 20
-8.939484722222232
 10
37.46081527777778
 20
-8.907344444444435
 97
        0
 97
        0
 75
     2
 76
     1
 98
        0
  0
SPLINE
  5
5D
330
1F
100
AcDbEntity
  8
Layer 1
370
     0
100
AcDbSpline
210
0.0
220
0.0
230
1.0
 70
    11
 71
     3
 72
    23
 73
    19
 74
     0
 42
0.0000000001
 43
0.0000000001
 12
1.0
 22
0.0
 32
0.0
 13
1.0
 23
0.0
 33
0.0
 40
0.0
 40
0.0
 40
0.0
 40
0.0
 40
1.0
 40
1.0
 40
1.0
 40
2.0
 40
2.0
 40
2.0
 40
3.0
 40
3.0
 40
3.0
 40
4.0
 40
4.0
 40
4.0
 40
5.0
 40
5.0
 40
5.0
 40
6.0
 40
6.0
 40
6.0
 40
6.0
 10
48.44323333333333
 20
-9.027684722222222
 30
0.0
 10
48.44323333333333
 20
-8.982199999999995
 30
0.0
 10
48.42553194444445
 20
-8.939440277777774
 30
0.0
 10
48.39334722222222
 20
-8.907322222222218
 30
0.0
 10
48.32906666666668
 20
-8.842986111111106
 30
0.0
 10
48.21689166666667
 20
-8.842986111111106
 30
0.0
 10
48.15261111111113
 20
-8.907322222222218
 30
0.0
 10
48.08622777777777
 20
-8.973672222222223
 30
0.0
 10
48.08622777777777
 20
-9.081676388888884
 30
0.0
 10
48.15261111111113
 20
-9.148058333333337
 30
0.0
 10
48.1847513888889
 20
-9.18019861111111
 30
0.0
 10
48.22751111111112
 20
-9.197899999999992
 30
0.0
 10
48.27297361111111
 20
-9.197899999999992
 30
0.0
 10
48.31844722222223
 20
-9.197899999999992
 30
0.0
 10
48.36120694444445
 20
-9.18019861111111
 30
0.0
 10
48.39334722222222
 20
-9.148080555555554
 30
0.0
 10
48.42553194444445
 20
-9.115906944444456
 30
0.0
 10
48.44323333333333
 20
-9.073148611111112
 30
0.0
 10
48.44323333333333
 20
-9.027684722222222
 30
0.0
  0
HATCH
  5
5E
330
1F
100
AcDbEntity
  8
Layer 1
 62
     7
420
 16777215
100
AcDbHatch
 10
0.0
 20
0.0
 30
0.0
210
0.0
220
0.0
230
1.0
  2
SOLID
 70
     1
 71
     0
 91
        1
 92
        1
 93
        1
 72
     4
 94
        3
 73
     0
 74
     1
 95
       23
 96
       19
 40
0.0
 40
0.0
 40
0.0
 40
0.0
 40
1.0
 40
1.0
 40
1.0
 40
2.0
 40
2.0
 40
2.0
 40
3.0
 40
3.0
 40
3.0
 40
4.0
 40
4.0
 40
4.0
 40
5.0
 40
5.0
 40
5.0
 40
6.0
 40
6.0
 40
6.0
 40
6.0
 10
48.44323333333333
 20
-9.027684722222222
 10
48.44323333333333
 20
-8.982199999999995
 10
48.42553194444445
 20
-8.939440277777774
 10
48.39334722222222
 20
-8.907322222222218
 10
48.32906666666668
 20
-8.842986111111106
 10
48.21689166666667
 20
-8.842986111111106
 10
48.15261111111113
 20
-8.907322222222218
 10
48.08622777777777
 20
-8.973672222222223
 10
48.08622777777777
 20
-9.081676388888884
 10
48.15261111111113
 20
-9.148058333333337
 10
48.1847513888889
 20
-9.18019861111111
 10
48.22751111111112
 20
-9.197899999999992
 10
48.27297361111111
 20
-9.197899999999992
 10
48.31844722222223
 20
-9.197899999999992
 10
48.36120694444445
 20
-9.18019861111111
 10
48.39334722222222
 20
-9.148080555555554
 10
48.42553194444445
 20
-9.115906944444456
 10
48.44323333333333
 20
-9.073148611111112
 10
48.44323333333333
 20
-9.027684722222222
 97
        0
 97
        0
 75
     2
 76
     1
 98
        0
  0
SPLINE
  5
5F
330
1F
100
AcDbEntity
  8
Layer 1
370
     0
100
AcDbSpline
210
0.0
220
0.0
230
1.0
 70
    11
 71
     3
 72
    17
 73
    13
 74
     0
 42
0.0000000001
 43
0.0000000001
 12
1.0
 22
0.0
 32
0.0
 13
1.0
 23
0.0
 33
0.0
 40
0.0
 40
0.0
 40
0.0
 40
0.0
 40
1.0
 40
1.0
 40
1.0
 40
2.0
 40
2.0
 40
2.0
 40
3.0
 40
3.0
 40
3.0
 40
4.0
 40
4.0
 40
4.0
 40
4.0
 10
46.47506527777778
 20
-5.503305555555559
 30
0.0
 10
46.56892500000001
 20
-5.503305555555559
 30
0.0
 10
46.64532500000001
 20
-5.426934722222224
 30
0.0
 10
46.64532500000001
 20
-5.333073611111116
 30
0.0
 10
46.64532500000001
 20
-5.239209722222224
 30
0.0
 10
46.56892500000001
 20
-5.162838888888889
 30
0.0
 10
46.47506527777778
 20
-5.162838888888889
 30
0.0
 10
46.38120555555555
 20
-5.162838888888889
 30
0.0
 10
46.30486111111112
 20
-5.239209722222224
 30
0.0
 10
46.30486111111112
 20
-5.333073611111116
 30
0.0
 10
46.30486111111112
 20
-5.426934722222224
 30
0.0
 10
46.38120555555555
 20
-5.503305555555559
 30
0.0
 10
46.47506527777778
 20
-5.503305555555559
 30
0.0
  0
HATCH
  5
60
330
1F
100
AcDbEntity
  8
Layer 1
 62
     7
420
 16777215
100
AcDbHatch
 10
0.0
 20
0.0
 30
0.0
210
0.0
220
0.0
230
1.0
  2
SOLID
 70
     1
 71
     0
 91
        1
 92
        1
 93
        1
 72
     4
 94
        3
 73
     0
 74
     1
 95
       17
 96
       13
 40
0.0
 40
0.0
 40
0.0
 40
0.0
 40
1.0
 40
1.0
 40
1.0
 40
2.0
 40
2.0
 40
2.0
 40
3.0
 40
3.0
 40
3.0
 40
4.0
 40
4.0
 40
4.0
 40
4.0
 10
46.47506527777778
 20
-5.503305555555559
 10
46.56892500000001
 20
-5.503305555555559
 10
46.64532500000001
 20
-5.426934722222224
 10
46.64532500000001
 20
-5.333073611111116
 10
46.64532500000001
 20
-5.239209722222224
 10
46.56892500000001
 20
-5.162838888888889
 10
46.47506527777778
 20
-5.162838888888889
 10
46.38120555555555
 20
-5.162838888888889
 10
46.30486111111112
 20
-5.239209722222224
 10
46.30486111111112
 20
-5.333073611111116
 10
46.30486111111112
 20
-5.426934722222224
 10
46.38120555555555
 20
-5.503305555555559
 10
46.47506527777778
 20
-5.503305555555559
 97
        0
 97
        0
 75
     2
 76
     1
 98
        0
  0
ENDSEC
  0
SECTION
  2
OBJECTS
  0
DICTIONARY
  5
C
330
0
100
AcDbDictionary
281
     1
  3
ACAD_GROUP
350
D
  3
ACAD_LAYOUT
350
1A
  3
ACAD_MATERIAL
350
3B
  3
ACAD_MLEADERSTYLE
350
62
  3
ACAD_MLINESTYLE
350
17
  3
ACAD_PLOTSETTINGS
350
19
  3
ACAD_PLOTSTYLENAME
350
E
  3
ACAD_TABLESTYLE
350
61
  3
ACAD_VISUALSTYLE
350
2A
  0
SUN
  5
3F
330
29
100
AcDbSun
 90
        1
290
     0
 63
     7
421
 16777215
 40
1.0
291
     1
 91
  2455826
 92
 54000000
292
     0
 70
     2
 71
   256
280
     1
  0
DICTIONARY
  5
D
102
{ACAD_REACTORS
330
C
102
}
330
C
100
AcDbDictionary
281
     1
  0
DICTIONARY
  5
1A
102
{ACAD_REACTORS
330
C
102
}
330
C
100
AcDbDictionary
281
     1
  3
Layout1
350
1E
  3
Layout2
350
26
  3
Model
350
22
  0
DICTIONARY
  5
3B
102
{ACAD_REACTORS
330
C
102
}
330
C
100
AcDbDictionary
281
     1
  3
ByBlock
350
3D
  3
ByLayer
350
3C
  3
Global
350
3E
  0
DICTIONARY
  5
62
102
{ACAD_REACTORS
330
C
102
}
330
C
100
AcDbDictionary
281
     1
  0
DICTIONARY
  5
17
102
{ACAD_REACTORS
330
C
102
}
330
C
100
AcDbDictionary
281
     1
  3
Standard
350
18
  0
DICTIONARY
  5
19
102
{ACAD_REACTORS
330
C
102
}
330
C
100
AcDbDictionary
281
     1
  0
ACDBDICTIONARYWDFLT
  5
E
102
{ACAD_REACTORS
330
C
102
}
330
C
100
AcDbDictionary
281
     1
  3
Normal
350
F
100
AcDbDictionaryWithDefault
340
F
  0
DICTIONARY
  5
61
102
{ACAD_REACTORS
330
C
102
}
330
C
100
AcDbDictionary
281
     1
  0
DICTIONARY
  5
2A
102
{ACAD_REACTORS
330
C
102
}
330
C
100
AcDbDictionary
281
     1
  3
2dWireframe
350
2F
  3
3D Hidden
350
31
  3
3dWireframe
350
30
  3
Basic
350
32
  3
Brighten
350
36
  3
ColorChange
350
3A
  3
Conceptual
350
34
  3
Dim
350
35
  3
Facepattern
350
39
  3
Flat
350
2B
  3
FlatWithEdges
350
2C
  3
Gouraud
350
2D
  3
GouraudWithEdges
350
2E
  3
Linepattern
350
38
  3
Realistic
350
33
  3
Thicken
350
37
  0
LAYOUT
  5
1E
102
{ACAD_REACTORS
330
1A
102
}
330
1A
100
AcDbPlotSettings
  1

  2
none_device
  4

  6

 40
0.0
 41
0.0
 42
0.0
 43
0.0
 44
0.0
 45
0.0
 46
0.0
 47
0.0
 48
0.0
 49
0.0
140
0.0
141
0.0
142
1.0
143
1.0
 70
   688
 72
     0
 73
     0
 74
     5
  7

 75
    16
 76
     0
 77
     2
 78
   300
147
1.0
148
0.0
149
0.0
100
AcDbLayout
  1
Layout1
 70
     1
 71
     1
 10
0.0
 20
0.0
 11
12.0
 21
9.0
 12
0.0
 22
0.0
 32
0.0
 14
1.000000000000000E+20
 24
1.000000000000000E+20
 34
1.000000000000000E+20
 15
-1.000000000000000E+20
 25
-1.000000000000000E+20
 35
-1.000000000000000E+20
146
0.0
 13
0.0
 23
0.0
 33
0.0
 16
1.0
 26
0.0
 36
0.0
 17
0.0
 27
1.0
 37
0.0
 76
     0
330
1B
  0
LAYOUT
  5
26
102
{ACAD_REACTORS
330
1A
102
}
330
1A
100
AcDbPlotSettings
  1

  2
none_device
  4

  6

 40
0.0
 41
0.0
 42
0.0
 43
0.0
 44
0.0
 45
0.0
 46
0.0
 47
0.0
 48
0.0
 49
0.0
140
0.0
141
0.0
142
1.0
143
1.0
 70
   688
 72
     0
 73
     0
 74
     5
  7

 75
    16
 76
     0
 77
     2
 78
   300
147
1.0
148
0.0
149
0.0
100
AcDbLayout
  1
Layout2
 70
     1
 71
     2
 10
0.0
 20
0.0
 11
0.0
 21
0.0
 12
0.0
 22
0.0
 32
0.0
 14
0.0
 24
0.0
 34
0.0
 15
0.0
 25
0.0
 35
0.0
146
0.0
 13
0.0
 23
0.0
 33
0.0
 16
1.0
 26
0.0
 36
0.0
 17
0.0
 27
1.0
 37
0.0
 76
     0
330
23
  0
LAYOUT
  5
22
102
{ACAD_REACTORS
330
1A
102
}
330
1A
100
AcDbPlotSettings
  1

  2
none_device
  4

  6

 40
0.0
 41
0.0
 42
0.0
 43
0.0
 44
0.0
 45
0.0
 46
0.0
 47
0.0
 48
0.0
 49
0.0
140
0.0
141
0.0
142
1.0
143
1.0
 70
  1712
 72
     0
 73
     0
 74
     0
  7

 75
     0
 76
     0
 77
     2
 78
   300
147
1.0
148
0.0
149
0.0
100
AcDbLayout
  1
Model
 70
     1
 71
     0
 10
0.0
 20
0.0
 11
12.0
 21
9.0
 12
0.0
 22
0.0
 32
0.0
 14
1.000000000000000E+20
 24
1.000000000000000E+20
 34
1.000000000000000E+20
 15
-1.000000000000000E+20
 25
-1.000000000000000E+20
 35
-1.000000000000000E+20
146
0.0
 13
0.0
 23
0.0
 33
0.0
 16
1.0
 26
0.0
 36
0.0
 17
0.0
 27
1.0
 37
0.0
 76
     0
330
1F
331
29
  0
MATERIAL
  5
3D
102
{ACAD_REACTORS
330
3B
102
}
330
3B
100
AcDbMaterial
  1
ByBlock
 72
     1
 94
      127
  0
MATERIAL
  5
3C
102
{ACAD_REACTORS
330
3B
102
}
330
3B
100
AcDbMaterial
  1
ByLayer
 72
     1
 94
      127
  0
MATERIAL
  5
3E
102
{ACAD_REACTORS
330
3B
102
}
330
3B
100
AcDbMaterial
  1
Global
 72
     1
 94
      127
  0
MLINESTYLE
  5
18
102
{ACAD_REACTORS
330
17
102
}
330
17
100
AcDbMlineStyle
  2
Standard
 70
     0
  3

 62
   256
 51
90.0
 52
90.0
 71
     2
 49
0.5
 62
   256
  6
BYLAYER
 49
-0.5
 62
   256
  6
BYLAYER
  0
ACDBPLACEHOLDER
  5
F
102
{ACAD_REACTORS
330
E
102
}
330
E
  0
VISUALSTYLE
  5
2F
102
{ACAD_REACTORS
330
2A
102
}
330
2A
100
AcDbVisualStyle
  2
2dWireframe
 70
     4
177
     2
291
     0
 71
     0
176
     1
 72
     2
176
     1
 73
     0
176
     1
 90
        0
176
     1
 40
-0.6
176
     1
 41
-30.0
176
     1
 62
     5
 63
     7
421
 16777215
176
     1
 74
     1
176
     1
 91
        4
176
     1
 64
     7
176
     1
 65
   257
176
     1
 75
     1
176
     1
175
     1
176
     1
 42
1.0
176
     1
 92
        0
176
     1
 66
   257
176
     1
 43
1.0
176
     1
 76
     1
176
     1
 77
     6
176
     1
 78
     2
176
     1
 67
     7
176
     1
 79
     5
176
     1
170
     0
176
     1
171
     0
176
     1
290
     0
176
     1
 93
        1
176
     1
 44
0.0
176
     1
173
     0
176
     1
  0
VISUALSTYLE
  5
31
102
{ACAD_REACTORS
330
2A
102
}
330
2A
100
AcDbVisualStyle
  2
3D Hidden
 70
     6
177
     2
291
     0
 71
     1
176
     1
 72
     2
176
     1
 73
     2
176
     1
 90
        0
176
     1
 40
-0.6
176
     1
 41
-30.0
176
     1
 62
     5
 63
     7
421
 16777215
176
     1
 74
     2
176
     1
 91
        2
176
     1
 64
     7
176
     1
 65
   257
176
     1
 75
     2
176
     1
175
     1
176
     1
 42
40.0
176
     1
 92
        0
176
     1
 66
   257
176
     1
 43
1.0
176
     1
 76
     1
176
     1
 77
     6
176
     1
 78
     2
176
     1
 67
     7
176
     1
 79
     3
176
     1
170
     0
176
     1
171
     0
176
     1
290
     0
176
     1
 93
        1
176
     1
 44
0.0
176
     1
173
     0
176
     1
  0
VISUALSTYLE
  5
30
102
{ACAD_REACTORS
330
2A
102
}
330
2A
100
AcDbVisualStyle
  2
3dWireframe
 70
     5
177
     2
291
     0
 71
     0
176
     1
 72
     2
176
     1
 73
     0
176
     1
 90
        0
176
     1
 40
-0.6
176
     1
 41
-30.0
176
     1
 62
     5
 63
     7
421
 16777215
176
     1
 74
     1
176
     1
 91
        4
176
     1
 64
     7
176
     1
 65
   257
176
     1
 75
     1
176
     1
175
     1
176
     1
 42
1.0
176
     1
 92
        0
176
     1
 66
   257
176
     1
 43
1.0
176
     1
 76
     1
176
     1
 77
     6
176
     1
 78
     2
176
     1
 67
     7
176
     1
 79
     5
176
     1
170
     0
176
     1
171
     0
176
     1
290
     0
176
     1
 93
        1
176
     1
 44
0.0
176
     1
173
     0
176
     1
  0
VISUALSTYLE
  5
32
102
{ACAD_REACTORS
330
2A
102
}
330
2A
100
AcDbVisualStyle
  2
Basic
 70
     7
177
     2
291
     1
 71
     1
176
     1
 72
     0
176
     1
 73
     1
176
     1
 90
        0
176
     1
 40
-0.6
176
     1
 41
-30.0
176
     1
 62
     5
 63
     7
421
 16777215
176
     1
 74
     0
176
     1
 91
        4
176
     1
 64
     7
176
     1
 65
   257
176
     1
 75
     1
176
     1
175
     1
176
     1
 42
1.0
176
     1
 92
        8
176
     1
 66
     7
176
     1
 43
1.0
176
     1
 76
     1
176
     1
 77
     6
176
     1
 78
     2
176
     1
 67
     7
176
     1
 79
     5
176
     1
170
     0
176
     1
171
     0
176
     1
290
     0
176
     1
 93
        1
176
     1
 44
0.0
176
     1
173
     0
176
     1
  0
VISUALSTYLE
  5
36
102
{ACAD_REACTORS
330
2A
102
}
330
2A
100
AcDbVisualStyle
  2
Brighten
 70
    12
177
     2
291
     1
 71
     2
176
     1
 72
     2
176
     1
 73
     0
176
     1
 90
        0
176
     1
 40
-0.6
176
     1
 41
-30.0
176
     1
 62
     5
 63
     7
421
 16777215
176
     1
 74
     1
176
     1
 91
        4
176
     1
 64
     7
176
     1
 65
   257
176
     1
 75
     1
176
     1
175
     1
176
     1
 42
1.0
176
     1
 92
        8
176
     1
 66
     7
176
     1
 43
1.0
176
     1
 76
     1
176
     1
 77
     6
176
     1
 78
     2
176
     1
 67
     7
176
     1
 79
     5
176
     1
170
     0
176
     1
171
     0
176
     1
290
     0
176
     1
 93
        1
176
     1
 44
50.0
176
     1
173
     0
176
     1
  0
VISUALSTYLE
  5
3A
102
{ACAD_REACTORS
330
2A
102
}
330
2A
100
AcDbVisualStyle
  2
ColorChange
 70
    16
177
     2
291
     1
 71
     2
176
     1
 72
     2
176
     1
 73
     3
176
     1
 90
        0
176
     1
 40
-0.6
176
     1
 41
-30.0
176
     1
 62
     5
 63
     8
421
  8421504
176
     1
 74
     1
176
     1
 91
        4
176
     1
 64
     7
176
     1
 65
   257
176
     1
 75
     1
176
     1
175
     1
176
     1
 42
1.0
176
     1
 92
        8
176
     1
 66
     8
424
  8421504
176
     1
 43
1.0
176
     1
 76
     1
176
     1
 77
     6
176
     1
 78
     2
176
     1
 67
     7
176
     1
 79
     5
176
     1
170
     0
176
     1
171
     0
176
     1
290
     0
176
     1
 93
        1
176
     1
 44
0.0
176
     1
173
     0
176
     1
  0
VISUALSTYLE
  5
34
102
{ACAD_REACTORS
330
2A
102
}
330
2A
100
AcDbVisualStyle
  2
Conceptual
 70
     9
177
     2
291
     0
 71
     3
176
     1
 72
     2
176
     1
 73
     0
176
     1
 90
        0
176
     1
 40
-0.6
176
     1
 41
-30.0
176
     1
 62
     5
 63
     7
421
 16777215
176
     1
 74
     2
176
     1
 91
        2
176
     1
 64
     7
176
     1
 65
   257
176
     1
 75
     1
176
     1
175
     1
176
     1
 42
40.0
176
     1
 92
        8
176
     1
 66
     7
176
     1
 43
1.0
176
     1
 76
     1
176
     1
 77
     6
176
     1
 78
     2
176
     1
 67
     7
176
     1
 79
     3
176
     1
170
     0
176
     1
171
     0
176
     1
290
     0
176
     1
 93
        1
176
     1
 44
0.0
176
     1
173
     0
176
     1
  0
VISUALSTYLE
  5
35
102
{ACAD_REACTORS
330
2A
102
}
330
2A
100
AcDbVisualStyle
  2
Dim
 70
    11
177
     2
291
     1
 71
     2
176
     1
 72
     2
176
     1
 73
     0
176
     1
 90
        0
176
     1
 40
-0.6
176
     1
 41
-30.0
176
     1
 62
     5
 63
     7
421
 16777215
176
     1
 74
     1
176
     1
 91
        4
176
     1
 64
     7
176
     1
 65
   257
176
     1
 75
     1
176
     1
175
     1
176
     1
 42
1.0
176
     1
 92
        8
176
     1
 66
     7
176
     1
 43
1.0
176
     1
 76
     1
176
     1
 77
     6
176
     1
 78
     2
176
     1
 67
     7
176
     1
 79
     5
176
     1
170
     0
176
     1
171
     0
176
     1
290
     0
176
     1
 93
        1
176
     1
 44
-50.0
176
     1
173
     0
176
     1
  0
VISUALSTYLE
  5
39
102
{ACAD_REACTORS
330
2A
102
}
330
2A
100
AcDbVisualStyle
  2
Facepattern
 70
    15
177
     2
291
     1
 71
     2
176
     1
 72
     2
176
     1
 73
     0
176
     1
 90
        0
176
     1
 40
-0.6
176
     1
 41
-30.0
176
     1
 62
     5
 63
     7
421
 16777215
176
     1
 74
     1
176
     1
 91
        4
176
     1
 64
     7
176
     1
 65
   257
176
     1
 75
     1
176
     1
175
     1
176
     1
 42
1.0
176
     1
 92
        8
176
     1
 66
     7
176
     1
 43
1.0
176
     1
 76
     1
176
     1
 77
     6
176
     1
 78
     2
176
     1
 67
     7
176
     1
 79
     5
176
     1
170
     0
176
     1
171
     0
176
     1
290
     0
176
     1
 93
        1
176
     1
 44
0.0
176
     1
173
     0
176
     1
  0
VISUALSTYLE
  5
2B
102
{ACAD_REACTORS
330
2A
102
}
330
2A
100
AcDbVisualStyle
  2
Flat
 70
     0
177
     2
291
     1
 71
     2
176
     1
 72
     1
176
     1
 73
     1
176
     1
 90
        2
176
     1
 40
-0.6
176
     1
 41
30.0
176
     1
 62
     5
 63
     7
421
 16777215
176
     1
 74
     0
176
     1
 91
        4
176
     1
 64
     7
176
     1
 65
   257
176
     1
 75
     1
176
     1
175
     1
176
     1
 42
1.0
176
     1
 92
        8
176
     1
 66
     7
176
     1
 43
1.0
176
     1
 76
     1
176
     1
 77
     6
176
     1
 78
     2
176
     1
 67
     7
176
     1
 79
     5
176
     1
170
     0
176
     1
171
     0
176
     1
290
     0
176
     1
 93
       13
176
     1
 44
0.0
176
     1
173
     0
176
     1
  0
VISUALSTYLE
  5
2C
102
{ACAD_REACTORS
330
2A
102
}
330
2A
100
AcDbVisualStyle
  2
FlatWithEdges
 70
     1
177
     2
291
     1
 71
     2
176
     1
 72
     1
176
     1
 73
     1
176
     1
 90
        2
176
     1
 40
-0.6
176
     1
 41
30.0
176
     1
 62
     5
 63
     7
421
 16777215
176
     1
 74
     1
176
     1
 91
        4
176
     1
 64
     7
176
     1
 65
   257
176
     1
 75
     1
176
     1
175
     1
176
     1
 42
1.0
176
     1
 92
        0
176
     1
 66
   257
176
     1
 43
1.0
176
     1
 76
     1
176
     1
 77
     6
176
     1
 78
     2
176
     1
 67
     7
176
     1
 79
     5
176
     1
170
     0
176
     1
171
     0
176
     1
290
     0
176
     1
 93
       13
176
     1
 44
0.0
176
     1
173
     0
176
     1
  0
VISUALSTYLE
  5
2D
102
{ACAD_REACTORS
330
2A
102
}
330
2A
100
AcDbVisualStyle
  2
Gouraud
 70
     2
177
     2
291
     1
 71
     2
176
     1
 72
     2
176
     1
 73
     1
176
     1
 90
        2
176
     1
 40
-0.6
176
     1
 41
30.0
176
     1
 62
     5
 63
     7
421
 16777215
176
     1
 74
     0
176
     1
 91
        4
176
     1
 64
     7
176
     1
 65
   257
176
     1
 75
     1
176
     1
175
     1
176
     1
 42
1.0
176
     1
 92
        0
176
     1
 66
     7
176
     1
 43
1.0
176
     1
 76
     1
176
     1
 77
     6
176
     1
 78
     2
176
     1
 67
     7
176
     1
 79
     5
176
     1
170
     0
176
     1
171
     0
176
     1
290
     0
176
     1
 93
       13
176
     1
 44
0.0
176
     1
173
     0
176
     1
  0
VISUALSTYLE
  5
2E
102
{ACAD_REACTORS
330
2A
102
}
330
2A
100
AcDbVisualStyle
  2
GouraudWithEdges
 70
     3
177
     2
291
     1
 71
     2
176
     1
 72
     2
176
     1
 73
     1
176
     1
 90
        2
176
     1
 40
-0.6
176
     1
 41
30.0
176
     1
 62
     5
 63
     7
421
 16777215
176
     1
 74
     1
176
     1
 91
        4
176
     1
 64
     7
176
     1
 65
   257
176
     1
 75
     1
176
     1
175
     1
176
     1
 42
1.0
176
     1
 92
        0
176
     1
 66
   257
176
     1
 43
1.0
176
     1
 76
     1
176
     1
 77
     6
176
     1
 78
     2
176
     1
 67
     7
176
     1
 79
     5
176
     1
170
     0
176
     1
171
     0
176
     1
290
     0
176
     1
 93
       13
176
     1
 44
0.0
176
     1
173
     0
176
     1
  0
VISUALSTYLE
  5
38
102
{ACAD_REACTORS
330
2A
102
}
330
2A
100
AcDbVisualStyle
  2
Linepattern
 70
    14
177
     2
291
     1
 71
     2
176
     1
 72
     2
176
     1
 73
     0
176
     1
 90
        0
176
     1
 40
-0.6
176
     1
 41
-30.0
176
     1
 62
     5
 63
     7
421
 16777215
176
     1
 74
     1
176
     1
 91
        4
176
     1
 64
     7
176
     1
 65
   257
176
     1
 75
     7
176
     1
175
     7
176
     1
 42
1.0
176
     1
 92
        8
176
     1
 66
     7
176
     1
 43
1.0
176
     1
 76
     1
176
     1
 77
     6
176
     1
 78
     2
176
     1
 67
     7
176
     1
 79
     5
176
     1
170
     0
176
     1
171
     0
176
     1
290
     0
176
     1
 93
        1
176
     1
 44
0.0
176
     1
173
     0
176
     1
  0
VISUALSTYLE
  5
33
102
{ACAD_REACTORS
330
2A
102
}
330
2A
100
AcDbVisualStyle
  2
Realistic
 70
     8
177
     2
291
     0
 71
     2
176
     1
 72
     2
176
     1
 73
     0
176
     1
 90
        0
176
     1
 40
-0.6
176
     1
 41
-30.0
176
     1
 62
     5
 63
     7
421
 16777215
176
     1
 74
     1
176
     1
 91
        0
176
     1
 64
     7
176
     1
 65
   257
176
     1
 75
     1
176
     1
175
     1
176
     1
 42
1.0
176
     1
 92
        8
176
     1
 66
     8
424
  7895160
176
     1
 43
1.0
176
     1
 76
     1
176
     1
 77
     6
176
     1
 78
     2
176
     1
 67
     7
176
     1
 79
     5
176
     1
170
     0
176
     1
171
     0
176
     1
290
     0
176
     1
 93
       13
176
     1
 44
0.0
176
     1
173
     0
176
     1
  0
VISUALSTYLE
  5
37
102
{ACAD_REACTORS
330
2A
102
}
330
2A
100
AcDbVisualStyle
  2
Thicken
 70
    13
177
     2
291
     1
 71
     2
176
     1
 72
     2
176
     1
 73
     0
176
     1
 90
        0
176
     1
 40
-0.6
176
     1
 41
-30.0
176
     1
 62
     5
 63
     7
421
 16777215
176
     1
 74
     1
176
     1
 91
        4
176
     1
 64
     7
176
     1
 65
   257
176
     1
 75
     1
176
     1
175
     1
176
     1
 42
1.0
176
     1
 92
       12
176
     1
 66
     7
176
     1
 43
1.0
176
     1
 76
     1
176
     1
 77
     6
176
     1
 78
     2
176
     1
 67
     7
176
     1
 79
     5
176
     1
170
     0
176
     1
171
     0
176
     1
290
     0
176
     1
 93
        1
176
     1
 44
0.0
176
     1
173
     0
176
     1
  0
ENDSEC
  0
EOF
