  0
SECTION
  2
HEADER
  9
$ACADVER
  1
AC1024
  9
$ACADMAINTVER
 70
     6
  9
$DWGCODEPAGE
  3
ANSI_1251
  9
$INSBASE
 10
0.0
 20
0.0
 30
0.0
  9
$EXTMIN
 10
1.000000000000000E+20
 20
1.000000000000000E+20
 30
1.000000000000000E+20
  9
$EXTMAX
 10
-1.000000000000000E+20
 20
-1.000000000000000E+20
 30
-1.000000000000000E+20
  9
$LIMMIN
 10
0.0
 20
0.0
  9
$LIMMAX
 10
12.0
 20
9.0
  9
$ORTHOMODE
 70
     0
  9
$REGENMODE
 70
     1
  9
$FILLMODE
 70
     1
  9
$QTEXTMODE
 70
     0
  9
$MIRRTEXT
 70
     1
  9
$LTSCALE
 40
1.0
  9
$ATTMODE
 70
     1
  9
$TEXTSIZE
 40
0.2
  9
$TRACEWID
 40
0.05
  9
$TEXTSTYLE
  7
Standard
  9
$CLAYER
  8
0
  9
$CELTYPE
  6
ByLayer
  9
$CECOLOR
 62
   256
  9
$CELTSCALE
 40
1.0
  9
$DISPSILH
 70
     0
  9
$DIMSCALE
 40
1.0
  9
$DIMASZ
 40
0.18
  9
$DIMEXO
 40
0.0625
  9
$DIMDLI
 40
0.38
  9
$DIMRND
 40
0.0
  9
$DIMDLE
 40
0.0
  9
$DIMEXE
 40
0.18
  9
$DIMTP
 40
0.0
  9
$DIMTM
 40
0.0
  9
$DIMTXT
 40
0.18
  9
$DIMCEN
 40
0.09
  9
$DIMTSZ
 40
0.0
  9
$DIMTOL
 70
     0
  9
$DIMLIM
 70
     0
  9
$DIMTIH
 70
     1
  9
$DIMTOH
 70
     1
  9
$DIMSE1
 70
     0
  9
$DIMSE2
 70
     0
  9
$DIMTAD
 70
     0
  9
$DIMZIN
 70
     0
  9
$DIMBLK
  1

  9
$DIMASO
 70
     1
  9
$DIMSHO
 70
     1
  9
$DIMPOST
  1

  9
$DIMAPOST
  1

  9
$DIMALT
 70
     0
  9
$DIMALTD
 70
     2
  9
$DIMALTF
 40
25.4
  9
$DIMLFAC
 40
1.0
  9
$DIMTOFL
 70
     0
  9
$DIMTVP
 40
0.0
  9
$DIMTIX
 70
     0
  9
$DIMSOXD
 70
     0
  9
$DIMSAH
 70
     0
  9
$DIMBLK1
  1

  9
$DIMBLK2
  1

  9
$DIMSTYLE
  2
Standard
  9
$DIMCLRD
 70
     0
  9
$DIMCLRE
 70
     0
  9
$DIMCLRT
 70
     0
  9
$DIMTFAC
 40
1.0
  9
$DIMGAP
 40
0.09
  9
$DIMJUST
 70
     0
  9
$DIMSD1
 70
     0
  9
$DIMSD2
 70
     0
  9
$DIMTOLJ
 70
     1
  9
$DIMTZIN
 70
     0
  9
$DIMALTZ
 70
     0
  9
$DIMALTTZ
 70
     0
  9
$DIMUPT
 70
     0
  9
$DIMDEC
 70
     4
  9
$DIMTDEC
 70
     4
  9
$DIMALTU
 70
     2
  9
$DIMALTTD
 70
     2
  9
$DIMTXSTY
  7
Standard
  9
$DIMAUNIT
 70
     0
  9
$DIMADEC
 70
     0
  9
$DIMALTRND
 40
0.0
  9
$DIMAZIN
 70
     0
  9
$DIMDSEP
 70
    46
  9
$DIMATFIT
 70
     3
  9
$DIMFRAC
 70
     0
  9
$DIMLDRBLK
  1

  9
$DIMLUNIT
 70
     2
  9
$DIMLWD
 70
    -2
  9
$DIMLWE
 70
    -2
  9
$DIMTMOVE
 70
     0
  9
$DIMFXL
 40
1.0
  9
$DIMFXLON
 70
     0
  9
$DIMJOGANG
 40
0.7853981633974483
  9
$DIMTFILL
 70
     0
  9
$DIMTFILLCLR
 70
     0
  9
$DIMARCSYM
 70
     0
  9
$DIMLTYPE
  6

  9
$DIMLTEX1
  6

  9
$DIMLTEX2
  6

  9
$DIMTXTDIRECTION
 70
     0
  9
$LUNITS
 70
     2
  9
$LUPREC
 70
     4
  9
$SKETCHINC
 40
0.1
  9
$FILLETRAD
 40
0.5
  9
$AUNITS
 70
     0
  9
$AUPREC
 70
     0
  9
$MENU
  1
.
  9
$ELEVATION
 40
0.0
  9
$PELEVATION
 40
0.0
  9
$THICKNESS
 40
0.0
  9
$LIMCHECK
 70
     0
  9
$CHAMFERA
 40
0.5
  9
$CHAMFERB
 40
0.5
  9
$CHAMFERC
 40
1.0
  9
$CHAMFERD
 40
0.0
  9
$SKPOLY
 70
     0
  9
$TDCREATE
 40
2459337.659560081
  9
$TDUCREATE
 40
2459337.534560081
  9
$TDUPDATE
 40
2459337.659560266
  9
$TDUUPDATE
 40
2459337.534560266
  9
$TDINDWG
 40
0.0000000116
  9
$TDUSRTIMER
 40
0.0000000116
  9
$USRTIMER
 70
     1
  9
$ANGBASE
 50
0.0
  9
$ANGDIR
 70
     0
  9
$PDMODE
 70
     0
  9
$PDSIZE
 40
0.0
  9
$PLINEWID
 40
0.0
  9
$SPLFRAME
 70
     0
  9
$SPLINETYPE
 70
     6
  9
$SPLINESEGS
 70
     8
  9
$HANDSEED
  5
4B
  9
$SURFTAB1
 70
     6
  9
$SURFTAB2
 70
     6
  9
$SURFTYPE
 70
     6
  9
$SURFU
 70
     6
  9
$SURFV
 70
     6
  9
$UCSBASE
  2

  9
$UCSNAME
  2

  9
$UCSORG
 10
0.0
 20
0.0
 30
0.0
  9
$UCSXDIR
 10
1.0
 20
0.0
 30
0.0
  9
$UCSYDIR
 10
0.0
 20
1.0
 30
0.0
  9
$UCSORTHOREF
  2

  9
$UCSORTHOVIEW
 70
     0
  9
$UCSORGTOP
 10
0.0
 20
0.0
 30
0.0
  9
$UCSORGBOTTOM
 10
0.0
 20
0.0
 30
0.0
  9
$UCSORGLEFT
 10
0.0
 20
0.0
 30
0.0
  9
$UCSORGRIGHT
 10
0.0
 20
0.0
 30
0.0
  9
$UCSORGFRONT
 10
0.0
 20
0.0
 30
0.0
  9
$UCSORGBACK
 10
0.0
 20
0.0
 30
0.0
  9
$PUCSBASE
  2

  9
$PUCSNAME
  2

  9
$PUCSORG
 10
0.0
 20
0.0
 30
0.0
  9
$PUCSXDIR
 10
1.0
 20
0.0
 30
0.0
  9
$PUCSYDIR
 10
0.0
 20
1.0
 30
0.0
  9
$PUCSORTHOREF
  2

  9
$PUCSORTHOVIEW
 70
     0
  9
$PUCSORGTOP
 10
0.0
 20
0.0
 30
0.0
  9
$PUCSORGBOTTOM
 10
0.0
 20
0.0
 30
0.0
  9
$PUCSORGLEFT
 10
0.0
 20
0.0
 30
0.0
  9
$PUCSORGRIGHT
 10
0.0
 20
0.0
 30
0.0
  9
$PUCSORGFRONT
 10
0.0
 20
0.0
 30
0.0
  9
$PUCSORGBACK
 10
0.0
 20
0.0
 30
0.0
  9
$USERI1
 70
     0
  9
$USERI2
 70
     0
  9
$USERI3
 70
     0
  9
$USERI4
 70
     0
  9
$USERI5
 70
     0
  9
$USERR1
 40
0.0
  9
$USERR2
 40
0.0
  9
$USERR3
 40
0.0
  9
$USERR4
 40
0.0
  9
$USERR5
 40
0.0
  9
$WORLDVIEW
 70
     1
  9
$SHADEDGE
 70
     3
  9
$SHADEDIF
 70
    70
  9
$TILEMODE
 70
     1
  9
$MAXACTVP
 70
    64
  9
$PINSBASE
 10
0.0
 20
0.0
 30
0.0
  9
$PLIMCHECK
 70
     0
  9
$PEXTMIN
 10
1.000000000000000E+20
 20
1.000000000000000E+20
 30
1.000000000000000E+20
  9
$PEXTMAX
 10
-1.000000000000000E+20
 20
-1.000000000000000E+20
 30
-1.000000000000000E+20
  9
$PLIMMIN
 10
0.0
 20
0.0
  9
$PLIMMAX
 10
12.0
 20
9.0
  9
$UNITMODE
 70
     0
  9
$VISRETAIN
 70
     1
  9
$PLINEGEN
 70
     0
  9
$PSLTSCALE
 70
     1
  9
$TREEDEPTH
 70
  3020
  9
$CMLSTYLE
  2
Standard
  9
$CMLJUST
 70
     0
  9
$CMLSCALE
 40
1.0
  9
$PROXYGRAPHICS
 70
     1
  9
$MEASUREMENT
 70
     0
  9
$CELWEIGHT
370
    -1
  9
$ENDCAPS
280
     0
  9
$JOINSTYLE
280
     0
  9
$LWDISPLAY
290
     1
  9
$INSUNITS
 70
     1
  9
$HYPERLINKBASE
  1

  9
$STYLESHEET
  1

  9
$XEDIT
290
     1
  9
$CEPSNTYPE
380
     0
  9
$PSTYLEMODE
290
     1
  9
$FINGERPRINTGUID
  2
{F70BEBB1-F2F6-41AB-A187-57EC0041B2BA}
  9
$VERSIONGUID
  2
{FAEB1C32-E019-11D5-929B-00C0DF256EC4}
  9
$EXTNAMES
290
     1
  9
$PSVPSCALE
 40
0.0
  9
$OLESTARTUP
290
     0
  9
$SORTENTS
280
   127
  9
$INDEXCTL
280
     0
  9
$HIDETEXT
280
     1
  9
$XCLIPFRAME
280
     2
  9
$HALOGAP
280
     0
  9
$OBSCOLOR
 70
   257
  9
$OBSLTYPE
280
     0
  9
$INTERSECTIONDISPLAY
280
     0
  9
$INTERSECTIONCOLOR
 70
   257
  9
$DIMASSOC
280
     2
  9
$PROJECTNAME
  1

  9
$CAMERADISPLAY
290
     0
  9
$LENSLENGTH
 40
50.0
  9
$CAMERAHEIGHT
 40
0.0
  9
$STEPSPERSEC
 40
2.0
  9
$STEPSIZE
 40
6.0
  9
$3DDWFPREC
 40
2.0
  9
$PSOLWIDTH
 40
0.25
  9
$PSOLHEIGHT
 40
4.0
  9
$LOFTANG1
 40
1.570796326794897
  9
$LOFTANG2
 40
1.570796326794897
  9
$LOFTMAG1
 40
0.0
  9
$LOFTMAG2
 40
0.0
  9
$LOFTPARAM
 70
     7
  9
$LOFTNORMALS
280
     1
  9
$LATITUDE
 40
37.795
  9
$LONGITUDE
 40
-122.394
  9
$NORTHDIRECTION
 40
0.0
  9
$TIMEZONE
 70
 -8000
  9
$LIGHTGLYPHDISPLAY
280
     1
  9
$TILEMODELIGHTSYNCH
280
     1
  9
$CMATERIAL
347
3C
  9
$SOLIDHIST
280
     1
  9
$SHOWHIST
280
     1
  9
$DWFFRAME
280
     2
  9
$DGNFRAME
280
     2
  9
$REALWORLDSCALE
290
     1
  9
$INTERFERECOLOR
 62
   256
  9
$CSHADOW
280
     0
  9
$SHADOWPLANELOCATION
 40
0.0
  0
ENDSEC
  0
SECTION
  2
CLASSES
  0
CLASS
  1
ACDBDICTIONARYWDFLT
  2
AcDbDictionaryWithDefault
  3
ObjectDBX Classes
 90
        0
 91
        4
280
     0
281
     0
  0
CLASS
  1
VISUALSTYLE
  2
AcDbVisualStyle
  3
ObjectDBX Classes
 90
     4095
 91
        4
280
     0
281
     0
  0
CLASS
  1
MATERIAL
  2
AcDbMaterial
  3
ObjectDBX Classes
 90
     1153
 91
        4
280
     0
281
     0
  0
CLASS
  1
SUN
  2
AcDbSun
  3
SCENEOE
 90
     1024
 91
        4
280
     0
281
     0
  0
ENDSEC
  0
SECTION
  2
TABLES
  0
TABLE
  2
VPORT
  5
8
330
0
100
AcDbSymbolTable
 70
     1
  0
VPORT
  5
29
330
8
100
AcDbSymbolTableRecord
100
AcDbViewportTableRecord
  2
*Active
 70
     0
 10
0.0
 20
0.0
 11
1.0
 21
1.0
 12
0.0
 22
0.0
 13
0.0
 23
0.0
 14
0.5
 24
0.5
 15
0.5
 25
0.5
 16
0.0
 26
0.0
 36
1.0
 17
67.38270277777777
 27
-6.068342908552722
 37
0.0
 40
11.63819970599434
 41
1.031087307585838
 42
50.0
 43
0.0
 44
0.0
 50
0.0
 51
0.0
 71
     0
 72
   100
 73
     1
 74
     3
 75
     0
 76
     0
 77
     0
 78
     0
281
     0
 65
     1
110
0.0
120
0.0
130
0.0
111
1.0
121
0.0
131
0.0
112
0.0
122
1.0
132
0.0
 79
     0
146
0.0
 60
     3
 61
     5
292
     1
282
     1
141
0.0
142
0.0
 63
   250
361
3F
  0
ENDTAB
  0
TABLE
  2
LTYPE
  5
5
330
0
100
AcDbSymbolTable
 70
     1
  0
LTYPE
  5
14
330
5
100
AcDbSymbolTableRecord
100
AcDbLinetypeTableRecord
  2
ByBlock
 70
     0
  3

 72
    65
 73
     0
 40
0.0
  0
LTYPE
  5
15
330
5
100
AcDbSymbolTableRecord
100
AcDbLinetypeTableRecord
  2
ByLayer
 70
     0
  3

 72
    65
 73
     0
 40
0.0
  0
LTYPE
  5
16
330
5
100
AcDbSymbolTableRecord
100
AcDbLinetypeTableRecord
  2
Continuous
 70
     0
  3
Solid line
 72
    65
 73
     0
 40
0.0
  0
ENDTAB
  0
TABLE
  2
LAYER
  5
2
330
0
100
AcDbSymbolTable
 70
     2
  0
LAYER
  5
10
330
2
100
AcDbSymbolTableRecord
100
AcDbLayerTableRecord
  2
0
 70
     0
 62
     7
  6
Continuous
370
    -3
390
F
347
3E
  0
LAYER
  5
40
330
2
100
AcDbSymbolTableRecord
100
AcDbLayerTableRecord
  2
Layer 1
 70
     0
 62
     7
  6
Continuous
370
    -3
390
F
347
3E
  0
ENDTAB
  0
TABLE
  2
STYLE
  5
3
330
0
100
AcDbSymbolTable
 70
     1
  0
STYLE
  5
11
330
3
100
AcDbSymbolTableRecord
100
AcDbTextStyleTableRecord
  2
Standard
 70
     0
 40
0.0
 41
1.0
 50
0.0
 71
     0
 42
0.2
  3
txt
  4

  0
ENDTAB
  0
TABLE
  2
VIEW
  5
6
330
0
100
AcDbSymbolTable
 70
     0
  0
ENDTAB
  0
TABLE
  2
UCS
  5
7
330
0
100
AcDbSymbolTable
 70
     0
  0
ENDTAB
  0
TABLE
  2
APPID
  5
9
330
0
100
AcDbSymbolTable
 70
     1
  0
APPID
  5
12
330
9
100
AcDbSymbolTableRecord
100
AcDbRegAppTableRecord
  2
ACAD
 70
     0
  0
ENDTAB
  0
TABLE
  2
DIMSTYLE
  5
A
330
0
100
AcDbSymbolTable
 70
     1
100
AcDbDimStyleTable
  0
DIMSTYLE
105
27
330
A
100
AcDbSymbolTableRecord
100
AcDbDimStyleTableRecord
  2
Standard
 70
     0
178
     0
340
11
  0
ENDTAB
  0
TABLE
  2
BLOCK_RECORD
  5
1
330
0
100
AcDbSymbolTable
 70
     1
  0
BLOCK_RECORD
  5
1F
330
1
100
AcDbSymbolTableRecord
100
AcDbBlockTableRecord
  2
*Model_Space
340
22
 70
     0
280
     1
281
     0
  0
BLOCK_RECORD
  5
1B
330
1
100
AcDbSymbolTableRecord
100
AcDbBlockTableRecord
  2
*Paper_Space
340
1E
 70
     0
280
     1
281
     0
  0
BLOCK_RECORD
  5
23
330
1
100
AcDbSymbolTableRecord
100
AcDbBlockTableRecord
  2
*Paper_Space0
340
26
 70
     0
280
     1
281
     0
  0
ENDTAB
  0
ENDSEC
  0
SECTION
  2
BLOCKS
  0
BLOCK
  5
20
330
1F
100
AcDbEntity
  8
0
100
AcDbBlockBegin
  2
*Model_Space
 70
     0
 10
0.0
 20
0.0
 30
0.0
  3
*Model_Space
  1

  0
ENDBLK
  5
21
330
1F
100
AcDbEntity
  8
0
100
AcDbBlockEnd
  0
BLOCK
  5
1C
330
1B
100
AcDbEntity
 67
     1
  8
0
100
AcDbBlockBegin
  2
*Paper_Space
 70
     0
 10
0.0
 20
0.0
 30
0.0
  3
*Paper_Space
  1

  0
ENDBLK
  5
1D
330
1B
100
AcDbEntity
 67
     1
  8
0
100
AcDbBlockEnd
  0
BLOCK
  5
24
330
23
100
AcDbEntity
  8
0
100
AcDbBlockBegin
  2
*Paper_Space0
 70
     0
 10
0.0
 20
0.0
 30
0.0
  3
*Paper_Space0
  1

  0
ENDBLK
  5
25
330
23
100
AcDbEntity
  8
0
100
AcDbBlockEnd
  0
ENDSEC
  0
SECTION
  2
ENTITIES
  0
SPLINE
  5
41
330
1F
100
AcDbEntity
  8
Layer 1
370
     0
100
AcDbSpline
210
0.0
220
0.0
230
1.0
 70
    11
 71
     3
 72
   152
 73
   148
 74
     0
 42
0.0000000001
 43
0.0000000001
 12
1.0
 22
0.0
 32
0.0
 13
1.0
 23
0.0
 33
0.0
 40
0.0
 40
0.0
 40
0.0
 40
0.0
 40
1.0
 40
1.0
 40
1.0
 40
2.0
 40
2.0
 40
2.0
 40
3.0
 40
3.0
 40
3.0
 40
4.0
 40
4.0
 40
4.0
 40
5.0
 40
5.0
 40
5.0
 40
6.0
 40
6.0
 40
6.0
 40
7.0
 40
7.0
 40
7.0
 40
8.0
 40
8.0
 40
8.0
 40
9.0
 40
9.0
 40
9.0
 40
10.0
 40
10.0
 40
10.0
 40
11.0
 40
11.0
 40
11.0
 40
12.0
 40
12.0
 40
12.0
 40
13.0
 40
13.0
 40
13.0
 40
14.0
 40
14.0
 40
14.0
 40
15.0
 40
15.0
 40
15.0
 40
16.0
 40
16.0
 40
16.0
 40
17.0
 40
17.0
 40
17.0
 40
18.0
 40
18.0
 40
18.0
 40
19.0
 40
19.0
 40
19.0
 40
20.0
 40
20.0
 40
20.0
 40
21.0
 40
21.0
 40
21.0
 40
22.0
 40
22.0
 40
22.0
 40
23.0
 40
23.0
 40
23.0
 40
24.0
 40
24.0
 40
24.0
 40
25.0
 40
25.0
 40
25.0
 40
26.0
 40
26.0
 40
26.0
 40
27.0
 40
27.0
 40
27.0
 40
28.0
 40
28.0
 40
28.0
 40
29.0
 40
29.0
 40
29.0
 40
30.0
 40
30.0
 40
30.0
 40
31.0
 40
31.0
 40
31.0
 40
32.0
 40
32.0
 40
32.0
 40
33.0
 40
33.0
 40
33.0
 40
34.0
 40
34.0
 40
34.0
 40
35.0
 40
35.0
 40
35.0
 40
36.0
 40
36.0
 40
36.0
 40
37.0
 40
37.0
 40
37.0
 40
38.0
 40
38.0
 40
38.0
 40
39.0
 40
39.0
 40
39.0
 40
40.0
 40
40.0
 40
40.0
 40
41.0
 40
41.0
 40
41.0
 40
42.0
 40
42.0
 40
42.0
 40
43.0
 40
43.0
 40
43.0
 40
44.0
 40
44.0
 40
44.0
 40
45.0
 40
45.0
 40
45.0
 40
46.0
 40
46.0
 40
46.0
 40
47.0
 40
47.0
 40
47.0
 40
48.0
 40
48.0
 40
48.0
 40
49.0
 40
49.0
 40
49.0
 40
49.0
 10
73.31816111111111
 20
-6.018887500000005
 30
0.0
 10
72.66871388888889
 20
-5.695263888888891
 30
0.0
 10
72.00296805555556
 20
-5.383763888888893
 30
0.0
 10
71.33876805555555
 20
-5.092711111111107
 30
0.0
 10
71.33876805555555
 20
-5.092711111111107
 30
0.0
 10
72.65443333333332
 20
-3.195427777777784
 30
0.0
 10
72.65443333333332
 20
-3.195427777777784
 30
0.0
 10
72.68025416666667
 20
-3.158166666666665
 30
0.0
 10
72.68209027777779
 20
-3.108836111111107
 30
0.0
 10
72.65892916666667
 20
-3.069736111111107
 30
0.0
 10
72.63578194444443
 20
-3.030651388888891
 30
0.0
 10
72.5921861111111
 20
-3.008018055555554
 30
0.0
 10
72.54651666666668
 20
-3.013294444444442
 30
0.0
 10
72.54651666666668
 20
-3.013294444444442
 30
0.0
 10
70.37357638888888
 20
-3.243226388888893
 30
0.0
 10
70.37357638888888
 20
-3.243226388888893
 30
0.0
 10
70.37357638888888
 20
-3.243226388888893
 30
0.0
 10
70.73255416666666
 20
-1.122162499999995
 30
0.0
 10
70.73255416666666
 20
-1.122162499999995
 30
0.0
 10
70.74014027777778
 20
-1.077259722222228
 30
0.0
 10
70.72065416666666
 20
-1.031770833333338
 30
0.0
 10
70.68293194444443
 20
-1.006312499999998
 30
0.0
 10
70.64514166666666
 20
-0.9807152777777774
 30
0.0
 10
70.59574166666665
 20
-0.9797694444444384
 30
0.0
 10
70.55682361111111
 20
-1.003640277777777
 30
0.0
 10
70.55682361111111
 20
-1.003640277777777
 30
0.0
 10
68.656575
 20
-2.172234722222217
 30
0.0
 10
68.656575
 20
-2.172234722222217
 30
0.0
 10
68.656575
 20
-2.172234722222217
 30
0.0
 10
67.6590361111111
 20
-0.3106958333333346
 30
0.0
 10
67.6590361111111
 20
-0.3106958333333346
 30
0.0
 10
67.63878333333332
 20
-0.2727805555555531
 30
0.0
 10
67.59944722222222
 20
-0.2492430555555529
 30
0.0
 10
67.55574027777779
 20
-0.2492430555555529
 30
0.0
 10
67.51250694444444
 20
-0.249506944444445
 30
0.0
 10
67.47317083333331
 20
-0.2735180555555543
 30
0.0
 10
67.4532111111111
 20
-0.3119069444444449
 30
0.0
 10
67.4532111111111
 20
-0.3119069444444449
 30
0.0
 10
66.53984027777778
 20
-2.066990277777778
 30
0.0
 10
66.53984027777778
 20
-2.066990277777778
 30
0.0
 10
66.53984027777778
 20
-2.066990277777778
 30
0.0
 10
64.75478888888887
 20
-0.79944444444445
 30
0.0
 10
64.75478888888887
 20
-0.79944444444445
 30
0.0
 10
64.71865416666665
 20
-0.7738055555555547
 30
0.0
 10
64.67180277777778
 20
-0.7708402777777792
 30
0.0
 10
64.63277222222223
 20
-0.791608333333329
 30
0.0
 10
64.59356249999999
 20
-0.8124444444444457
 30
0.0
 10
64.56992638888889
 20
-0.8529083333333397
 30
0.0
 10
64.57105416666664
 20
-0.8971444444444437
 30
0.0
 10
64.57105416666664
 20
-0.8971444444444437
 30
0.0
 10
64.62500555555553
 20
-3.175997222222223
 30
0.0
 10
64.62500555555553
 20
-3.175997222222223
 30
0.0
 10
64.62500555555553
 20
-3.175997222222223
 30
0.0
 10
62.38448611111109
 20
-3.069444444444444
 30
0.0
 10
62.38448611111109
 20
-3.069444444444444
 30
0.0
 10
62.38448611111109
 20
-3.069444444444444
 30
0.0
 10
62.38443055555555
 20
-3.069444444444444
 30
0.0
 10
62.38443055555555
 20
-3.069444444444444
 30
0.0
 10
62.33941527777776
 20
-3.065825000000005
 30
0.0
 10
62.2965861111111
 20
-3.091826388888888
 30
0.0
 10
62.27573472222222
 20
-3.131927777777782
 30
0.0
 10
62.25489722222222
 20
-3.171973611111108
 30
0.0
 10
62.25926805555554
 20
-3.221011111111112
 30
0.0
 10
62.28687083333332
 20
-3.256840277777782
 30
0.0
 10
62.28687083333332
 20
-3.256840277777782
 30
0.0
 10
63.58874166666666
 20
-4.941687499999994
 30
0.0
 10
63.58874166666666
 20
-4.941687499999994
 30
0.0
 10
63.58874166666666
 20
-4.941687499999994
 30
0.0
 10
61.44984722222221
 20
-5.940173611111113
 30
0.0
 10
61.44984722222221
 20
-5.940173611111113
 30
0.0
 10
61.40719861111109
 20
-5.96006388888889
 30
0.0
 10
61.38090555555555
 20
-6.003366666666667
 30
0.0
 10
61.38279861111111
 20
-6.050275000000005
 30
0.0
 10
61.38469166666666
 20
-6.097363888888897
 30
0.0
 10
61.41436805555554
 20
-6.138356944444442
 30
0.0
 10
61.45849166666665
 20
-6.154752777777781
 30
0.0
 10
61.45849166666665
 20
-6.154752777777781
 30
0.0
 10
63.56456388888889
 20
-6.939077777777785
 30
0.0
 10
63.56456388888889
 20
-6.939077777777785
 30
0.0
 10
63.56456388888889
 20
-6.939077777777785
 30
0.0
 10
62.27105833333333
 20
-8.62551111111111
 30
0.0
 10
62.27105833333333
 20
-8.62551111111111
 30
0.0
 10
62.24334444444445
 20
-8.661631944444455
 30
0.0
 10
62.23930833333333
 20
-8.710919444444446
 30
0.0
 10
62.26075833333334
 20
-8.751133333333327
 30
0.0
 10
62.28219305555555
 20
-8.791345833333327
 30
0.0
 10
62.32448055555556
 20
-8.816052777777788
 30
0.0
 10
62.37092916666666
 20
-8.812488888888891
 30
0.0
 10
62.37092916666666
 20
-8.812488888888891
 30
0.0
 10
64.52580277777777
 20
-8.673547222222219
 30
0.0
 10
64.52580277777777
 20
-8.673547222222219
 30
0.0
 10
64.52580277777777
 20
-8.673547222222219
 30
0.0
 10
64.38033194444442
 20
-10.90904027777778
 30
0.0
 10
64.38033194444442
 20
-10.90904027777778
 30
0.0
 10
64.37743749999998
 20
-10.95322083333334
 30
0.0
 10
64.39940138888889
 20
-10.99461666666667
 30
0.0
 10
64.43760972222222
 20
-11.01701249999999
 30
0.0
 10
64.4757486111111
 20
-11.03952083333333
 30
0.0
 10
64.52249027777778
 20
-11.03844861111111
 30
0.0
 10
64.55973750000001
 20
-11.01434027777777
 30
0.0
 10
64.55973750000001
 20
-11.01434027777777
 30
0.0
 10
66.42108194444444
 20
-9.809555555555562
 30
0.0
 10
66.42108194444444
 20
-9.809555555555562
 30
0.0
 10
66.42108194444444
 20
-9.809555555555562
 30
0.0
 10
67.48685416666666
 20
-11.82543194444444
 30
0.0
 10
67.48685416666666
 20
-11.82543194444444
 30
0.0
 10
67.50705138888888
 20
-11.86369583333334
 30
0.0
 10
67.54649861111112
 20
-11.88744166666667
 30
0.0
 10
67.59240416666665
 20
-11.88744166666667
 30
0.0
 10
67.63670972222222
 20
-11.88638472222222
 30
0.0
 10
67.67603055555554
 20
-11.86085555555557
 30
0.0
 10
67.69504444444445
 20
-11.82080972222222
 30
0.0
 10
67.69504444444445
 20
-11.82080972222222
 30
0.0
 10
68.66196249999999
 20
-9.777040277777788
 30
0.0
 10
68.66196249999999
 20
-9.777040277777788
 30
0.0
 10
68.66196249999999
 20
-9.777040277777788
 30
0.0
 10
70.47450555555555
 20
-10.8748
 30
0.0
 10
70.47450555555555
 20
-10.8748
 30
0.0
 10
70.5127
 20
-10.89790555555555
 30
0.0
 10
70.56138888888889
 20
-10.89695833333333
 30
0.0
 10
70.59858194444445
 20
-10.87254444444445
 30
0.0
 10
70.6357736111111
 20
-10.84814444444444
 30
0.0
 10
70.65604027777776
 20
-10.80383888888888
 30
0.0
 10
70.6501111111111
 20
-10.75965972222222
 30
0.0
 10
70.6501111111111
 20
-10.75965972222222
 30
0.0
 10
70.37470416666666
 20
-8.712631944444436
 30
0.0
 10
70.37470416666666
 20
-8.712631944444436
 30
0.0
 10
70.37470416666666
 20
-8.712631944444436
 30
0.0
 10
72.46656527777776
 20
-8.8858861111111
 30
0.0
 10
72.46656527777776
 20
-8.8858861111111
 30
0.0
 10
72.5132361111111
 20
-8.889852777777781
 30
0.0
 10
72.55735972222222
 20
-8.865381944444454
 30
0.0
 10
72.57903194444444
 20
-8.824223611111114
 30
0.0
 10
72.60083055555555
 20
-8.782883333333327
 30
0.0
 10
72.59591666666665
 20
-8.732718055555551
 30
0.0
 10
72.56636527777778
 20
-8.69647222222223
 30
0.0
 10
72.56636527777778
 20
-8.69647222222223
 30
0.0
 10
71.28025138888887
 20
-7.115573611111105
 30
0.0
 10
71.28025138888887
 20
-7.115573611111105
 30
0.0
 10
71.28025138888887
 20
-7.115573611111105
 30
0.0
 10
73.3127736111111
 20
-6.229736111111101
 30
0.0
 10
73.3127736111111
 20
-6.229736111111101
 30
0.0
 10
73.35398888888888
 20
-6.21173888888888
 30
0.0
 10
73.38147916666667
 20
-6.171052777777782
 30
0.0
 10
73.3826625
 20
-6.126093055555556
 30
0.0
 10
73.38384583333333
 20
-6.081077777777775
 30
0.0
 10
73.35855416666665
 20
-6.039027777777783
 30
0.0
 10
73.31816111111111
 20
-6.018887500000005
 30
0.0
  0
SPLINE
  5
42
330
1F
100
AcDbEntity
  8
Layer 1
370
     0
100
AcDbSpline
210
0.0
220
0.0
230
1.0
 70
    11
 71
     3
 72
   152
 73
   148
 74
     0
 42
0.0000000001
 43
0.0000000001
 12
1.0
 22
0.0
 32
0.0
 13
1.0
 23
0.0
 33
0.0
 40
0.0
 40
0.0
 40
0.0
 40
0.0
 40
1.0
 40
1.0
 40
1.0
 40
2.0
 40
2.0
 40
2.0
 40
3.0
 40
3.0
 40
3.0
 40
4.0
 40
4.0
 40
4.0
 40
5.0
 40
5.0
 40
5.0
 40
6.0
 40
6.0
 40
6.0
 40
7.0
 40
7.0
 40
7.0
 40
8.0
 40
8.0
 40
8.0
 40
9.0
 40
9.0
 40
9.0
 40
10.0
 40
10.0
 40
10.0
 40
11.0
 40
11.0
 40
11.0
 40
12.0
 40
12.0
 40
12.0
 40
13.0
 40
13.0
 40
13.0
 40
14.0
 40
14.0
 40
14.0
 40
15.0
 40
15.0
 40
15.0
 40
16.0
 40
16.0
 40
16.0
 40
17.0
 40
17.0
 40
17.0
 40
18.0
 40
18.0
 40
18.0
 40
19.0
 40
19.0
 40
19.0
 40
20.0
 40
20.0
 40
20.0
 40
21.0
 40
21.0
 40
21.0
 40
22.0
 40
22.0
 40
22.0
 40
23.0
 40
23.0
 40
23.0
 40
24.0
 40
24.0
 40
24.0
 40
25.0
 40
25.0
 40
25.0
 40
26.0
 40
26.0
 40
26.0
 40
27.0
 40
27.0
 40
27.0
 40
28.0
 40
28.0
 40
28.0
 40
29.0
 40
29.0
 40
29.0
 40
30.0
 40
30.0
 40
30.0
 40
31.0
 40
31.0
 40
31.0
 40
32.0
 40
32.0
 40
32.0
 40
33.0
 40
33.0
 40
33.0
 40
34.0
 40
34.0
 40
34.0
 40
35.0
 40
35.0
 40
35.0
 40
36.0
 40
36.0
 40
36.0
 40
37.0
 40
37.0
 40
37.0
 40
38.0
 40
38.0
 40
38.0
 40
39.0
 40
39.0
 40
39.0
 40
40.0
 40
40.0
 40
40.0
 40
41.0
 40
41.0
 40
41.0
 40
42.0
 40
42.0
 40
42.0
 40
43.0
 40
43.0
 40
43.0
 40
44.0
 40
44.0
 40
44.0
 40
45.0
 40
45.0
 40
45.0
 40
46.0
 40
46.0
 40
46.0
 40
47.0
 40
47.0
 40
47.0
 40
48.0
 40
48.0
 40
48.0
 40
49.0
 40
49.0
 40
49.0
 40
49.0
 10
70.12475555555554
 20
-8.600163888888876
 30
0.0
 10
70.12475555555554
 20
-8.600163888888876
 30
0.0
 10
70.38695277777778
 20
-10.54963055555555
 30
0.0
 10
70.38695277777778
 20
-10.54963055555555
 30
0.0
 10
70.38695277777778
 20
-10.54963055555555
 30
0.0
 10
68.67220694444444
 20
-9.511098611111112
 30
0.0
 10
68.67220694444444
 20
-9.511098611111112
 30
0.0
 10
68.64402083333331
 20
-9.493991666666664
 30
0.0
 10
68.6097236111111
 20
-9.489606944444454
 30
0.0
 10
68.57833472222222
 20
-9.499197222222215
 30
0.0
 10
68.54687777777778
 20
-9.508676388888892
 30
0.0
 10
68.52076527777777
 20
-9.531183333333324
 30
0.0
 10
68.50666527777778
 20
-9.560859722222226
 30
0.0
 10
68.50666527777778
 20
-9.560859722222226
 30
0.0
 10
67.58405277777777
 20
-11.51110555555556
 30
0.0
 10
67.58405277777777
 20
-11.51110555555556
 30
0.0
 10
67.58405277777777
 20
-11.51110555555556
 30
0.0
 10
66.5674986111111
 20
-9.588405555555557
 30
0.0
 10
66.5674986111111
 20
-9.588405555555557
 30
0.0
 10
66.55227083333332
 20
-9.559606944444441
 30
0.0
 10
66.5254486111111
 20
-9.538408333333336
 30
0.0
 10
66.49380972222221
 20
-9.53011250000001
 30
0.0
 10
66.48416388888889
 20
-9.527634722222222
 30
0.0
 10
66.47432222222223
 20
-9.526381944444438
 30
0.0
 10
66.46455138888889
 20
-9.526381944444438
 30
0.0
 10
66.44198888888887
 20
-9.526381944444438
 30
0.0
 10
66.42013472222223
 20
-9.532840277777773
 30
0.0
 10
66.40135833333333
 20
-9.545047222222212
 30
0.0
 10
66.40135833333333
 20
-9.545047222222212
 30
0.0
 10
64.62767777777776
 20
-10.69308333333333
 30
0.0
 10
64.62767777777776
 20
-10.69308333333333
 30
0.0
 10
64.62767777777776
 20
-10.69308333333333
 30
0.0
 10
64.76674583333333
 20
-8.556443055555544
 30
0.0
 10
64.76674583333333
 20
-8.556443055555544
 30
0.0
 10
64.76887500000001
 20
-8.523106944444432
 30
0.0
 10
64.75662638888889
 20
-8.490341666666659
 30
0.0
 10
64.73292222222221
 20
-8.466594444444455
 30
0.0
 10
64.70923055555555
 20
-8.44290416666667
 30
0.0
 10
64.67653472222221
 20
-8.430641666666663
 30
0.0
 10
64.64307222222222
 20
-8.432715277777788
 30
0.0
 10
64.64307222222222
 20
-8.432715277777788
 30
0.0
 10
62.61187222222222
 20
-8.563668055555556
 30
0.0
 10
62.61187222222222
 20
-8.563668055555556
 30
0.0
 10
62.61187222222222
 20
-8.563668055555556
 30
0.0
 10
63.84520555555554
 20
-6.955780555555545
 30
0.0
 10
63.84520555555554
 20
-6.955780555555545
 30
0.0
 10
63.86753194444443
 20
-6.926577777777791
 30
0.0
 10
63.87481111111111
 20
-6.888022222222212
 30
0.0
 10
63.86462222222222
 20
-6.852833333333339
 30
0.0
 10
63.85450277777777
 20
-6.81747916666667
 30
0.0
 10
63.82790277777778
 20
-6.788693055555566
 30
0.0
 10
63.79343888888889
 20
-6.775831944444437
 30
0.0
 10
63.79343888888889
 20
-6.775831944444437
 30
0.0
 10
61.80012638888888
 20
-6.03357222222222
 30
0.0
 10
61.80012638888888
 20
-6.03357222222222
 30
0.0
 10
61.80012638888888
 20
-6.03357222222222
 30
0.0
 10
63.81902222222222
 20
-5.091124999999995
 30
0.0
 10
63.81902222222222
 20
-5.091124999999995
 30
0.0
 10
63.85117638888889
 20
-5.076008333333334
 30
0.0
 10
63.87446388888889
 20
-5.047584722222218
 30
0.0
 10
63.88287083333332
 20
-5.013106944444441
 30
0.0
 10
63.89122222222221
 20
-4.978516666666665
 30
0.0
 10
63.88358055555555
 20
-4.942563888888887
 30
0.0
 10
63.86183888888889
 20
-4.914433333333338
 30
0.0
 10
63.86183888888889
 20
-4.914433333333338
 30
0.0
 10
62.62519305555555
 20
-3.313880555555556
 30
0.0
 10
62.62519305555555
 20
-3.313880555555556
 30
0.0
 10
62.62519305555555
 20
-3.313880555555556
 30
0.0
 10
64.73879583333331
 20
-3.414518055555555
 30
0.0
 10
64.73879583333331
 20
-3.414518055555555
 30
0.0
 10
64.77005833333332
 20
-3.41652222222222
 30
0.0
 10
64.80258749999999
 20
-3.404147222222226
 30
0.0
 10
64.82568055555556
 20
-3.381529166666673
 30
0.0
 10
64.84871666666666
 20
-3.358951388888891
 30
0.0
 10
64.86145277777779
 20
-3.327619444444445
 30
0.0
 10
64.86068749999998
 20
-3.295522222222227
 30
0.0
 10
64.86068749999998
 20
-3.295522222222227
 30
0.0
 10
64.80926944444445
 20
-1.123708333333335
 30
0.0
 10
64.80926944444445
 20
-1.123708333333335
 30
0.0
 10
64.80926944444445
 20
-1.123708333333335
 30
0.0
 10
66.51400694444445
 20
-2.334172222222226
 30
0.0
 10
66.51400694444445
 20
-2.334172222222226
 30
0.0
 10
66.54137222222221
 20
-2.353477777777774
 30
0.0
 10
66.57572499999999
 20
-2.360116666666663
 30
0.0
 10
66.60865833333332
 20
-2.352419444444447
 30
0.0
 10
66.64140972222222
 20
-2.344472222222218
 30
0.0
 10
66.66908194444444
 20
-2.322800000000004
 30
0.0
 10
66.6845875
 20
-2.29294305555556
 30
0.0
 10
66.6845875
 20
-2.29294305555556
 30
0.0
 10
67.55798194444444
 20
-0.6148888888888879
 30
0.0
 10
67.55798194444444
 20
-0.6148888888888879
 30
0.0
 10
67.55798194444444
 20
-0.6148888888888879
 30
0.0
 10
68.50968472222222
 20
-2.391143055555555
 30
0.0
 10
68.50968472222222
 20
-2.391143055555555
 30
0.0
 10
68.52484305555554
 20
-2.419287499999996
 30
0.0
 10
68.55120694444444
 20
-2.44019444444445
 30
0.0
 10
68.58194027777778
 20
-2.44842083333333
 30
0.0
 10
68.61298055555554
 20
-2.456954166666669
 30
0.0
 10
68.64615
 20
-2.451984722222227
 30
0.0
 10
68.67327916666666
 20
-2.435212499999996
 30
0.0
 10
68.67327916666666
 20
-2.435212499999996
 30
0.0
 10
70.46016805555554
 20
-1.336269444444446
 30
0.0
 10
70.46016805555554
 20
-1.336269444444446
 30
0.0
 10
70.46016805555554
 20
-1.336269444444446
 30
0.0
 10
70.11840833333333
 20
-3.35569444444444
 30
0.0
 10
70.11840833333333
 20
-3.35569444444444
 30
0.0
 10
70.11236666666665
 20
-3.391466666666664
 30
0.0
 10
70.12357222222221
 20
-3.428493055555552
 30
0.0
 10
70.14837638888889
 20
-3.454841666666665
 30
0.0
 10
70.17355555555554
 20
-3.481622222222224
 30
0.0
 10
70.208675
 20
-3.49483194444445
 30
0.0
 10
70.2454625
 20
-3.490865277777781
 30
0.0
 10
70.2454625
 20
-3.490865277777781
 30
0.0
 10
72.31830972222221
 20
-3.271538888888888
 30
0.0
 10
72.31830972222221
 20
-3.271538888888888
 30
0.0
 10
72.31830972222221
 20
-3.271538888888888
 30
0.0
 10
71.06685416666667
 20
-5.076424999999997
 30
0.0
 10
71.06685416666667
 20
-5.076424999999997
 30
0.0
 10
71.04695
 20
-5.105029166666668
 30
0.0
 10
71.04096388888888
 20
-5.140816666666662
 30
0.0
 10
71.05044305555556
 20
-5.174626388888883
 30
0.0
 10
71.06003333333332
 20
-5.208269444444441
 30
0.0
 10
71.08397500000001
 20
-5.235634722222218
 30
0.0
 10
71.1160736111111
 20
-5.249554166666662
 30
0.0
 10
71.74277499999998
 20
-5.521718055555551
 30
0.0
 10
72.37291527777776
 20
-5.813187500000001
 30
0.0
 10
72.99026388888888
 20
-6.116377777777769
 30
0.0
 10
72.99026388888888
 20
-6.116377777777769
 30
0.0
 10
71.04671388888889
 20
-6.963422222222233
 30
0.0
 10
71.04671388888889
 20
-6.963422222222233
 30
0.0
 10
71.01354305555554
 20
-6.977870833333327
 30
0.0
 10
70.98861388888889
 20
-7.00747638888889
 30
0.0
 10
70.98008194444444
 20
-7.042665277777789
 30
0.0
 10
70.97160416666667
 20
-7.077783333333324
 30
0.0
 10
70.9801375
 20
-7.115518055555563
 30
0.0
 10
71.00293749999999
 20
-7.143593055555558
 30
0.0
 10
71.00293749999999
 20
-7.143593055555558
 30
0.0
 10
72.21328888888888
 20
-8.63131527777778
 30
0.0
 10
72.21328888888888
 20
-8.63131527777778
 30
0.0
 10
72.21328888888888
 20
-8.63131527777778
 30
0.0
 10
70.24966666666664
 20
-8.468668055555554
 30
0.0
 10
70.24966666666664
 20
-8.468668055555554
 30
0.0
 10
70.21406111111109
 20
-8.465286111111102
 30
0.0
 10
70.18007083333332
 20
-8.478856944444436
 30
0.0
 10
70.15572499999999
 20
-8.504441666666656
 30
0.0
 10
70.13126944444444
 20
-8.530205555555565
 30
0.0
 10
70.11995277777777
 20
-8.565101388888882
 30
0.0
 10
70.12475555555554
 20
-8.600163888888876
 30
0.0
  0
HATCH
  5
43
330
1F
100
AcDbEntity
  8
Layer 1
 62
     7
420
 16777215
100
AcDbHatch
 10
0.0
 20
0.0
 30
0.0
210
0.0
220
0.0
230
1.0
  2
SOLID
 70
     1
 71
     0
 91
        2
 92
        1
 93
        1
 72
     4
 94
        3
 73
     0
 74
     1
 95
      152
 96
      148
 40
0.0
 40
0.0
 40
0.0
 40
0.0
 40
1.0
 40
1.0
 40
1.0
 40
2.0
 40
2.0
 40
2.0
 40
3.0
 40
3.0
 40
3.0
 40
4.0
 40
4.0
 40
4.0
 40
5.0
 40
5.0
 40
5.0
 40
6.0
 40
6.0
 40
6.0
 40
7.0
 40
7.0
 40
7.0
 40
8.0
 40
8.0
 40
8.0
 40
9.0
 40
9.0
 40
9.0
 40
10.0
 40
10.0
 40
10.0
 40
11.0
 40
11.0
 40
11.0
 40
12.0
 40
12.0
 40
12.0
 40
13.0
 40
13.0
 40
13.0
 40
14.0
 40
14.0
 40
14.0
 40
15.0
 40
15.0
 40
15.0
 40
16.0
 40
16.0
 40
16.0
 40
17.0
 40
17.0
 40
17.0
 40
18.0
 40
18.0
 40
18.0
 40
19.0
 40
19.0
 40
19.0
 40
20.0
 40
20.0
 40
20.0
 40
21.0
 40
21.0
 40
21.0
 40
22.0
 40
22.0
 40
22.0
 40
23.0
 40
23.0
 40
23.0
 40
24.0
 40
24.0
 40
24.0
 40
25.0
 40
25.0
 40
25.0
 40
26.0
 40
26.0
 40
26.0
 40
27.0
 40
27.0
 40
27.0
 40
28.0
 40
28.0
 40
28.0
 40
29.0
 40
29.0
 40
29.0
 40
30.0
 40
30.0
 40
30.0
 40
31.0
 40
31.0
 40
31.0
 40
32.0
 40
32.0
 40
32.0
 40
33.0
 40
33.0
 40
33.0
 40
34.0
 40
34.0
 40
34.0
 40
35.0
 40
35.0
 40
35.0
 40
36.0
 40
36.0
 40
36.0
 40
37.0
 40
37.0
 40
37.0
 40
38.0
 40
38.0
 40
38.0
 40
39.0
 40
39.0
 40
39.0
 40
40.0
 40
40.0
 40
40.0
 40
41.0
 40
41.0
 40
41.0
 40
42.0
 40
42.0
 40
42.0
 40
43.0
 40
43.0
 40
43.0
 40
44.0
 40
44.0
 40
44.0
 40
45.0
 40
45.0
 40
45.0
 40
46.0
 40
46.0
 40
46.0
 40
47.0
 40
47.0
 40
47.0
 40
48.0
 40
48.0
 40
48.0
 40
49.0
 40
49.0
 40
49.0
 40
49.0
 10
73.31816111111111
 20
-6.018887500000005
 10
72.66871388888889
 20
-5.695263888888891
 10
72.00296805555556
 20
-5.383763888888893
 10
71.33876805555555
 20
-5.092711111111107
 10
71.33876805555555
 20
-5.092711111111107
 10
72.65443333333332
 20
-3.195427777777784
 10
72.65443333333332
 20
-3.195427777777784
 10
72.68025416666667
 20
-3.158166666666665
 10
72.68209027777779
 20
-3.108836111111107
 10
72.65892916666667
 20
-3.069736111111107
 10
72.63578194444443
 20
-3.030651388888891
 10
72.5921861111111
 20
-3.008018055555554
 10
72.54651666666668
 20
-3.013294444444442
 10
72.54651666666668
 20
-3.013294444444442
 10
70.37357638888888
 20
-3.243226388888893
 10
70.37357638888888
 20
-3.243226388888893
 10
70.37357638888888
 20
-3.243226388888893
 10
70.73255416666666
 20
-1.122162499999995
 10
70.73255416666666
 20
-1.122162499999995
 10
70.74014027777778
 20
-1.077259722222228
 10
70.72065416666666
 20
-1.031770833333338
 10
70.68293194444443
 20
-1.006312499999998
 10
70.64514166666666
 20
-0.9807152777777774
 10
70.59574166666665
 20
-0.9797694444444384
 10
70.55682361111111
 20
-1.003640277777777
 10
70.55682361111111
 20
-1.003640277777777
 10
68.656575
 20
-2.172234722222217
 10
68.656575
 20
-2.172234722222217
 10
68.656575
 20
-2.172234722222217
 10
67.6590361111111
 20
-0.3106958333333346
 10
67.6590361111111
 20
-0.3106958333333346
 10
67.63878333333332
 20
-0.2727805555555531
 10
67.59944722222222
 20
-0.2492430555555529
 10
67.55574027777779
 20
-0.2492430555555529
 10
67.51250694444444
 20
-0.249506944444445
 10
67.47317083333331
 20
-0.2735180555555543
 10
67.4532111111111
 20
-0.3119069444444449
 10
67.4532111111111
 20
-0.3119069444444449
 10
66.53984027777778
 20
-2.066990277777778
 10
66.53984027777778
 20
-2.066990277777778
 10
66.53984027777778
 20
-2.066990277777778
 10
64.75478888888887
 20
-0.79944444444445
 10
64.75478888888887
 20
-0.79944444444445
 10
64.71865416666665
 20
-0.7738055555555547
 10
64.67180277777778
 20
-0.7708402777777792
 10
64.63277222222223
 20
-0.791608333333329
 10
64.59356249999999
 20
-0.8124444444444457
 10
64.56992638888889
 20
-0.8529083333333397
 10
64.57105416666664
 20
-0.8971444444444437
 10
64.57105416666664
 20
-0.8971444444444437
 10
64.62500555555553
 20
-3.175997222222223
 10
64.62500555555553
 20
-3.175997222222223
 10
64.62500555555553
 20
-3.175997222222223
 10
62.38448611111109
 20
-3.069444444444444
 10
62.38448611111109
 20
-3.069444444444444
 10
62.38448611111109
 20
-3.069444444444444
 10
62.38443055555555
 20
-3.069444444444444
 10
62.38443055555555
 20
-3.069444444444444
 10
62.33941527777776
 20
-3.065825000000005
 10
62.2965861111111
 20
-3.091826388888888
 10
62.27573472222222
 20
-3.131927777777782
 10
62.25489722222222
 20
-3.171973611111108
 10
62.25926805555554
 20
-3.221011111111112
 10
62.28687083333332
 20
-3.256840277777782
 10
62.28687083333332
 20
-3.256840277777782
 10
63.58874166666666
 20
-4.941687499999994
 10
63.58874166666666
 20
-4.941687499999994
 10
63.58874166666666
 20
-4.941687499999994
 10
61.44984722222221
 20
-5.940173611111113
 10
61.44984722222221
 20
-5.940173611111113
 10
61.40719861111109
 20
-5.96006388888889
 10
61.38090555555555
 20
-6.003366666666667
 10
61.38279861111111
 20
-6.050275000000005
 10
61.38469166666666
 20
-6.097363888888897
 10
61.41436805555554
 20
-6.138356944444442
 10
61.45849166666665
 20
-6.154752777777781
 10
61.45849166666665
 20
-6.154752777777781
 10
63.56456388888889
 20
-6.939077777777785
 10
63.56456388888889
 20
-6.939077777777785
 10
63.56456388888889
 20
-6.939077777777785
 10
62.27105833333333
 20
-8.62551111111111
 10
62.27105833333333
 20
-8.62551111111111
 10
62.24334444444445
 20
-8.661631944444455
 10
62.23930833333333
 20
-8.710919444444446
 10
62.26075833333334
 20
-8.751133333333327
 10
62.28219305555555
 20
-8.791345833333327
 10
62.32448055555556
 20
-8.816052777777788
 10
62.37092916666666
 20
-8.812488888888891
 10
62.37092916666666
 20
-8.812488888888891
 10
64.52580277777777
 20
-8.673547222222219
 10
64.52580277777777
 20
-8.673547222222219
 10
64.52580277777777
 20
-8.673547222222219
 10
64.38033194444442
 20
-10.90904027777778
 10
64.38033194444442
 20
-10.90904027777778
 10
64.37743749999998
 20
-10.95322083333334
 10
64.39940138888889
 20
-10.99461666666667
 10
64.43760972222222
 20
-11.01701249999999
 10
64.4757486111111
 20
-11.03952083333333
 10
64.52249027777778
 20
-11.03844861111111
 10
64.55973750000001
 20
-11.01434027777777
 10
64.55973750000001
 20
-11.01434027777777
 10
66.42108194444444
 20
-9.809555555555562
 10
66.42108194444444
 20
-9.809555555555562
 10
66.42108194444444
 20
-9.809555555555562
 10
67.48685416666666
 20
-11.82543194444444
 10
67.48685416666666
 20
-11.82543194444444
 10
67.50705138888888
 20
-11.86369583333334
 10
67.54649861111112
 20
-11.88744166666667
 10
67.59240416666665
 20
-11.88744166666667
 10
67.63670972222222
 20
-11.88638472222222
 10
67.67603055555554
 20
-11.86085555555557
 10
67.69504444444445
 20
-11.82080972222222
 10
67.69504444444445
 20
-11.82080972222222
 10
68.66196249999999
 20
-9.777040277777788
 10
68.66196249999999
 20
-9.777040277777788
 10
68.66196249999999
 20
-9.777040277777788
 10
70.47450555555555
 20
-10.8748
 10
70.47450555555555
 20
-10.8748
 10
70.5127
 20
-10.89790555555555
 10
70.56138888888889
 20
-10.89695833333333
 10
70.59858194444445
 20
-10.87254444444445
 10
70.6357736111111
 20
-10.84814444444444
 10
70.65604027777776
 20
-10.80383888888888
 10
70.6501111111111
 20
-10.75965972222222
 10
70.6501111111111
 20
-10.75965972222222
 10
70.37470416666666
 20
-8.712631944444436
 10
70.37470416666666
 20
-8.712631944444436
 10
70.37470416666666
 20
-8.712631944444436
 10
72.46656527777776
 20
-8.8858861111111
 10
72.46656527777776
 20
-8.8858861111111
 10
72.5132361111111
 20
-8.889852777777781
 10
72.55735972222222
 20
-8.865381944444454
 10
72.57903194444444
 20
-8.824223611111114
 10
72.60083055555555
 20
-8.782883333333327
 10
72.59591666666665
 20
-8.732718055555551
 10
72.56636527777778
 20
-8.69647222222223
 10
72.56636527777778
 20
-8.69647222222223
 10
71.28025138888887
 20
-7.115573611111105
 10
71.28025138888887
 20
-7.115573611111105
 10
71.28025138888887
 20
-7.115573611111105
 10
73.3127736111111
 20
-6.229736111111101
 10
73.3127736111111
 20
-6.229736111111101
 10
73.35398888888888
 20
-6.21173888888888
 10
73.38147916666667
 20
-6.171052777777782
 10
73.3826625
 20
-6.126093055555556
 10
73.38384583333333
 20
-6.081077777777775
 10
73.35855416666665
 20
-6.039027777777783
 10
73.31816111111111
 20
-6.018887500000005
 97
        0
 97
        0
 92
        1
 93
        1
 72
     4
 94
        3
 73
     0
 74
     1
 95
      152
 96
      148
 40
0.0
 40
0.0
 40
0.0
 40
0.0
 40
1.0
 40
1.0
 40
1.0
 40
2.0
 40
2.0
 40
2.0
 40
3.0
 40
3.0
 40
3.0
 40
4.0
 40
4.0
 40
4.0
 40
5.0
 40
5.0
 40
5.0
 40
6.0
 40
6.0
 40
6.0
 40
7.0
 40
7.0
 40
7.0
 40
8.0
 40
8.0
 40
8.0
 40
9.0
 40
9.0
 40
9.0
 40
10.0
 40
10.0
 40
10.0
 40
11.0
 40
11.0
 40
11.0
 40
12.0
 40
12.0
 40
12.0
 40
13.0
 40
13.0
 40
13.0
 40
14.0
 40
14.0
 40
14.0
 40
15.0
 40
15.0
 40
15.0
 40
16.0
 40
16.0
 40
16.0
 40
17.0
 40
17.0
 40
17.0
 40
18.0
 40
18.0
 40
18.0
 40
19.0
 40
19.0
 40
19.0
 40
20.0
 40
20.0
 40
20.0
 40
21.0
 40
21.0
 40
21.0
 40
22.0
 40
22.0
 40
22.0
 40
23.0
 40
23.0
 40
23.0
 40
24.0
 40
24.0
 40
24.0
 40
25.0
 40
25.0
 40
25.0
 40
26.0
 40
26.0
 40
26.0
 40
27.0
 40
27.0
 40
27.0
 40
28.0
 40
28.0
 40
28.0
 40
29.0
 40
29.0
 40
29.0
 40
30.0
 40
30.0
 40
30.0
 40
31.0
 40
31.0
 40
31.0
 40
32.0
 40
32.0
 40
32.0
 40
33.0
 40
33.0
 40
33.0
 40
34.0
 40
34.0
 40
34.0
 40
35.0
 40
35.0
 40
35.0
 40
36.0
 40
36.0
 40
36.0
 40
37.0
 40
37.0
 40
37.0
 40
38.0
 40
38.0
 40
38.0
 40
39.0
 40
39.0
 40
39.0
 40
40.0
 40
40.0
 40
40.0
 40
41.0
 40
41.0
 40
41.0
 40
42.0
 40
42.0
 40
42.0
 40
43.0
 40
43.0
 40
43.0
 40
44.0
 40
44.0
 40
44.0
 40
45.0
 40
45.0
 40
45.0
 40
46.0
 40
46.0
 40
46.0
 40
47.0
 40
47.0
 40
47.0
 40
48.0
 40
48.0
 40
48.0
 40
49.0
 40
49.0
 40
49.0
 40
49.0
 10
70.12475555555554
 20
-8.600163888888876
 10
70.12475555555554
 20
-8.600163888888876
 10
70.38695277777778
 20
-10.54963055555555
 10
70.38695277777778
 20
-10.54963055555555
 10
70.38695277777778
 20
-10.54963055555555
 10
68.67220694444444
 20
-9.511098611111112
 10
68.67220694444444
 20
-9.511098611111112
 10
68.64402083333331
 20
-9.493991666666664
 10
68.6097236111111
 20
-9.489606944444454
 10
68.57833472222222
 20
-9.499197222222215
 10
68.54687777777778
 20
-9.508676388888892
 10
68.52076527777777
 20
-9.531183333333324
 10
68.50666527777778
 20
-9.560859722222226
 10
68.50666527777778
 20
-9.560859722222226
 10
67.58405277777777
 20
-11.51110555555556
 10
67.58405277777777
 20
-11.51110555555556
 10
67.58405277777777
 20
-11.51110555555556
 10
66.5674986111111
 20
-9.588405555555557
 10
66.5674986111111
 20
-9.588405555555557
 10
66.55227083333332
 20
-9.559606944444441
 10
66.5254486111111
 20
-9.538408333333336
 10
66.49380972222221
 20
-9.53011250000001
 10
66.48416388888889
 20
-9.527634722222222
 10
66.47432222222223
 20
-9.526381944444438
 10
66.46455138888889
 20
-9.526381944444438
 10
66.44198888888887
 20
-9.526381944444438
 10
66.42013472222223
 20
-9.532840277777773
 10
66.40135833333333
 20
-9.545047222222212
 10
66.40135833333333
 20
-9.545047222222212
 10
64.62767777777776
 20
-10.69308333333333
 10
64.62767777777776
 20
-10.69308333333333
 10
64.62767777777776
 20
-10.69308333333333
 10
64.76674583333333
 20
-8.556443055555544
 10
64.76674583333333
 20
-8.556443055555544
 10
64.76887500000001
 20
-8.523106944444432
 10
64.75662638888889
 20
-8.490341666666659
 10
64.73292222222221
 20
-8.466594444444455
 10
64.70923055555555
 20
-8.44290416666667
 10
64.67653472222221
 20
-8.430641666666663
 10
64.64307222222222
 20
-8.432715277777788
 10
64.64307222222222
 20
-8.432715277777788
 10
62.61187222222222
 20
-8.563668055555556
 10
62.61187222222222
 20
-8.563668055555556
 10
62.61187222222222
 20
-8.563668055555556
 10
63.84520555555554
 20
-6.955780555555545
 10
63.84520555555554
 20
-6.955780555555545
 10
63.86753194444443
 20
-6.926577777777791
 10
63.87481111111111
 20
-6.888022222222212
 10
63.86462222222222
 20
-6.852833333333339
 10
63.85450277777777
 20
-6.81747916666667
 10
63.82790277777778
 20
-6.788693055555566
 10
63.79343888888889
 20
-6.775831944444437
 10
63.79343888888889
 20
-6.775831944444437
 10
61.80012638888888
 20
-6.03357222222222
 10
61.80012638888888
 20
-6.03357222222222
 10
61.80012638888888
 20
-6.03357222222222
 10
63.81902222222222
 20
-5.091124999999995
 10
63.81902222222222
 20
-5.091124999999995
 10
63.85117638888889
 20
-5.076008333333334
 10
63.87446388888889
 20
-5.047584722222218
 10
63.88287083333332
 20
-5.013106944444441
 10
63.89122222222221
 20
-4.978516666666665
 10
63.88358055555555
 20
-4.942563888888887
 10
63.86183888888889
 20
-4.914433333333338
 10
63.86183888888889
 20
-4.914433333333338
 10
62.62519305555555
 20
-3.313880555555556
 10
62.62519305555555
 20
-3.313880555555556
 10
62.62519305555555
 20
-3.313880555555556
 10
64.73879583333331
 20
-3.414518055555555
 10
64.73879583333331
 20
-3.414518055555555
 10
64.77005833333332
 20
-3.41652222222222
 10
64.80258749999999
 20
-3.404147222222226
 10
64.82568055555556
 20
-3.381529166666673
 10
64.84871666666666
 20
-3.358951388888891
 10
64.86145277777779
 20
-3.327619444444445
 10
64.86068749999998
 20
-3.295522222222227
 10
64.86068749999998
 20
-3.295522222222227
 10
64.80926944444445
 20
-1.123708333333335
 10
64.80926944444445
 20
-1.123708333333335
 10
64.80926944444445
 20
-1.123708333333335
 10
66.51400694444445
 20
-2.334172222222226
 10
66.51400694444445
 20
-2.334172222222226
 10
66.54137222222221
 20
-2.353477777777774
 10
66.57572499999999
 20
-2.360116666666663
 10
66.60865833333332
 20
-2.352419444444447
 10
66.64140972222222
 20
-2.344472222222218
 10
66.66908194444444
 20
-2.322800000000004
 10
66.6845875
 20
-2.29294305555556
 10
66.6845875
 20
-2.29294305555556
 10
67.55798194444444
 20
-0.6148888888888879
 10
67.55798194444444
 20
-0.6148888888888879
 10
67.55798194444444
 20
-0.6148888888888879
 10
68.50968472222222
 20
-2.391143055555555
 10
68.50968472222222
 20
-2.391143055555555
 10
68.52484305555554
 20
-2.419287499999996
 10
68.55120694444444
 20
-2.44019444444445
 10
68.58194027777778
 20
-2.44842083333333
 10
68.61298055555554
 20
-2.456954166666669
 10
68.64615
 20
-2.451984722222227
 10
68.67327916666666
 20
-2.435212499999996
 10
68.67327916666666
 20
-2.435212499999996
 10
70.46016805555554
 20
-1.336269444444446
 10
70.46016805555554
 20
-1.336269444444446
 10
70.46016805555554
 20
-1.336269444444446
 10
70.11840833333333
 20
-3.35569444444444
 10
70.11840833333333
 20
-3.35569444444444
 10
70.11236666666665
 20
-3.391466666666664
 10
70.12357222222221
 20
-3.428493055555552
 10
70.14837638888889
 20
-3.454841666666665
 10
70.17355555555554
 20
-3.481622222222224
 10
70.208675
 20
-3.49483194444445
 10
70.2454625
 20
-3.490865277777781
 10
70.2454625
 20
-3.490865277777781
 10
72.31830972222221
 20
-3.271538888888888
 10
72.31830972222221
 20
-3.271538888888888
 10
72.31830972222221
 20
-3.271538888888888
 10
71.06685416666667
 20
-5.076424999999997
 10
71.06685416666667
 20
-5.076424999999997
 10
71.04695
 20
-5.105029166666668
 10
71.04096388888888
 20
-5.140816666666662
 10
71.05044305555556
 20
-5.174626388888883
 10
71.06003333333332
 20
-5.208269444444441
 10
71.08397500000001
 20
-5.235634722222218
 10
71.1160736111111
 20
-5.249554166666662
 10
71.74277499999998
 20
-5.521718055555551
 10
72.37291527777776
 20
-5.813187500000001
 10
72.99026388888888
 20
-6.116377777777769
 10
72.99026388888888
 20
-6.116377777777769
 10
71.04671388888889
 20
-6.963422222222233
 10
71.04671388888889
 20
-6.963422222222233
 10
71.01354305555554
 20
-6.977870833333327
 10
70.98861388888889
 20
-7.00747638888889
 10
70.98008194444444
 20
-7.042665277777789
 10
70.97160416666667
 20
-7.077783333333324
 10
70.9801375
 20
-7.115518055555563
 10
71.00293749999999
 20
-7.143593055555558
 10
71.00293749999999
 20
-7.143593055555558
 10
72.21328888888888
 20
-8.63131527777778
 10
72.21328888888888
 20
-8.63131527777778
 10
72.21328888888888
 20
-8.63131527777778
 10
70.24966666666664
 20
-8.468668055555554
 10
70.24966666666664
 20
-8.468668055555554
 10
70.21406111111109
 20
-8.465286111111102
 10
70.18007083333332
 20
-8.478856944444436
 10
70.15572499999999
 20
-8.504441666666656
 10
70.13126944444444
 20
-8.530205555555565
 10
70.11995277777777
 20
-8.565101388888882
 10
70.12475555555554
 20
-8.600163888888876
 97
        0
 97
        0
 75
     2
 76
     1
 98
        0
  0
SPLINE
  5
44
330
1F
100
AcDbEntity
  8
Layer 1
370
     0
100
AcDbSpline
210
0.0
220
0.0
230
1.0
 70
    11
 71
     3
 72
    17
 73
    13
 74
     0
 42
0.0000000001
 43
0.0000000001
 12
1.0
 22
0.0
 32
0.0
 13
1.0
 23
0.0
 33
0.0
 40
0.0
 40
0.0
 40
0.0
 40
0.0
 40
1.0
 40
1.0
 40
1.0
 40
2.0
 40
2.0
 40
2.0
 40
3.0
 40
3.0
 40
3.0
 40
4.0
 40
4.0
 40
4.0
 40
4.0
 10
67.41162083333332
 20
-3.347426388888885
 30
0.0
 10
65.95866805555556
 20
-3.347426388888885
 30
0.0
 10
64.78080416666666
 20
-4.525291666666665
 30
0.0
 10
64.78080416666666
 20
-5.978256944444448
 30
0.0
 10
64.78080416666666
 20
-7.431208333333339
 30
0.0
 10
65.95866805555556
 20
-8.609086111111107
 30
0.0
 10
67.41162083333332
 20
-8.609086111111107
 30
0.0
 10
68.86458611111111
 20
-8.609086111111107
 30
0.0
 10
70.04244999999999
 20
-7.431208333333339
 30
0.0
 10
70.04244999999999
 20
-5.978256944444448
 30
0.0
 10
70.04244999999999
 20
-4.525291666666665
 30
0.0
 10
68.86458611111111
 20
-3.347426388888885
 30
0.0
 10
67.41162083333332
 20
-3.347426388888885
 30
0.0
  0
HATCH
  5
45
330
1F
100
AcDbEntity
  8
Layer 1
 62
     7
420
 16777215
100
AcDbHatch
 10
0.0
 20
0.0
 30
0.0
210
0.0
220
0.0
230
1.0
  2
SOLID
 70
     1
 71
     0
 91
        1
 92
        1
 93
        1
 72
     4
 94
        3
 73
     0
 74
     1
 95
       17
 96
       13
 40
0.0
 40
0.0
 40
0.0
 40
0.0
 40
1.0
 40
1.0
 40
1.0
 40
2.0
 40
2.0
 40
2.0
 40
3.0
 40
3.0
 40
3.0
 40
4.0
 40
4.0
 40
4.0
 40
4.0
 10
67.41162083333332
 20
-3.347426388888885
 10
65.95866805555556
 20
-3.347426388888885
 10
64.78080416666666
 20
-4.525291666666665
 10
64.78080416666666
 20
-5.978256944444448
 10
64.78080416666666
 20
-7.431208333333339
 10
65.95866805555556
 20
-8.609086111111107
 10
67.41162083333332
 20
-8.609086111111107
 10
68.86458611111111
 20
-8.609086111111107
 10
70.04244999999999
 20
-7.431208333333339
 10
70.04244999999999
 20
-5.978256944444448
 10
70.04244999999999
 20
-4.525291666666665
 10
68.86458611111111
 20
-3.347426388888885
 10
67.41162083333332
 20
-3.347426388888885
 97
        0
 97
        0
 75
     2
 76
     1
 98
        0
  0
SPLINE
  5
46
330
1F
100
AcDbEntity
  8
Layer 1
370
     0
100
AcDbSpline
210
0.0
220
0.0
230
1.0
 70
    11
 71
     3
 72
    17
 73
    13
 74
     0
 42
0.0000000001
 43
0.0000000001
 12
1.0
 22
0.0
 32
0.0
 13
1.0
 23
0.0
 33
0.0
 40
0.0
 40
0.0
 40
0.0
 40
0.0
 40
1.0
 40
1.0
 40
1.0
 40
2.0
 40
2.0
 40
2.0
 40
3.0
 40
3.0
 40
3.0
 40
4.0
 40
4.0
 40
4.0
 40
4.0
 10
67.41310972222222
 20
-2.616037499999998
 30
0.0
 10
65.56184305555556
 20
-2.616037499999998
 30
0.0
 10
64.05570694444444
 20
-4.122188888888887
 30
0.0
 10
64.05570694444444
 20
-5.973509722222224
 30
0.0
 10
64.05570694444444
 20
-7.824790277777765
 30
0.0
 10
65.56184305555556
 20
-9.330927777777788
 30
0.0
 10
67.41310972222222
 20
-9.330927777777788
 30
0.0
 10
69.26444583333333
 20
-9.330927777777788
 30
0.0
 10
70.77058194444444
 20
-7.824790277777765
 30
0.0
 10
70.77058194444444
 20
-5.973509722222224
 30
0.0
 10
70.77058194444444
 20
-4.122188888888887
 30
0.0
 10
69.26444583333333
 20
-2.616037499999998
 30
0.0
 10
67.41310972222222
 20
-2.616037499999998
 30
0.0
  0
SPLINE
  5
47
330
1F
100
AcDbEntity
  8
Layer 1
370
     0
100
AcDbSpline
210
0.0
220
0.0
230
1.0
 70
    11
 71
     3
 72
    17
 73
    13
 74
     0
 42
0.0000000001
 43
0.0000000001
 12
1.0
 22
0.0
 32
0.0
 13
1.0
 23
0.0
 33
0.0
 40
0.0
 40
0.0
 40
0.0
 40
0.0
 40
1.0
 40
1.0
 40
1.0
 40
2.0
 40
2.0
 40
2.0
 40
3.0
 40
3.0
 40
3.0
 40
4.0
 40
4.0
 40
4.0
 40
4.0
 10
70.5425013888889
 20
-5.973509722222224
 30
0.0
 10
70.5425013888889
 20
-7.699043055555547
 30
0.0
 10
69.13864305555555
 20
-9.102831944444434
 30
0.0
 10
67.41310972222222
 20
-9.102831944444434
 30
0.0
 10
65.68759027777777
 20
-9.102831944444434
 30
0.0
 10
64.28378749999999
 20
-7.699043055555547
 30
0.0
 10
64.28378749999999
 20
-5.973509722222224
 30
0.0
 10
64.28378749999999
 20
-4.247991666666672
 30
0.0
 10
65.68759027777777
 20
-2.844188888888892
 30
0.0
 10
67.41310972222222
 20
-2.844188888888892
 30
0.0
 10
69.13864305555555
 20
-2.844188888888892
 30
0.0
 10
70.5425013888889
 20
-4.247991666666672
 30
0.0
 10
70.5425013888889
 20
-5.973509722222224
 30
0.0
  0
HATCH
  5
48
330
1F
100
AcDbEntity
  8
Layer 1
 62
     7
420
 16777215
100
AcDbHatch
 10
0.0
 20
0.0
 30
0.0
210
0.0
220
0.0
230
1.0
  2
SOLID
 70
     1
 71
     0
 91
        2
 92
        1
 93
        1
 72
     4
 94
        3
 73
     0
 74
     1
 95
       17
 96
       13
 40
0.0
 40
0.0
 40
0.0
 40
0.0
 40
1.0
 40
1.0
 40
1.0
 40
2.0
 40
2.0
 40
2.0
 40
3.0
 40
3.0
 40
3.0
 40
4.0
 40
4.0
 40
4.0
 40
4.0
 10
67.41310972222222
 20
-2.616037499999998
 10
65.56184305555556
 20
-2.616037499999998
 10
64.05570694444444
 20
-4.122188888888887
 10
64.05570694444444
 20
-5.973509722222224
 10
64.05570694444444
 20
-7.824790277777765
 10
65.56184305555556
 20
-9.330927777777788
 10
67.41310972222222
 20
-9.330927777777788
 10
69.26444583333333
 20
-9.330927777777788
 10
70.77058194444444
 20
-7.824790277777765
 10
70.77058194444444
 20
-5.973509722222224
 10
70.77058194444444
 20
-4.122188888888887
 10
69.26444583333333
 20
-2.616037499999998
 10
67.41310972222222
 20
-2.616037499999998
 97
        0
 97
        0
 92
        1
 93
        1
 72
     4
 94
        3
 73
     0
 74
     1
 95
       17
 96
       13
 40
0.0
 40
0.0
 40
0.0
 40
0.0
 40
1.0
 40
1.0
 40
1.0
 40
2.0
 40
2.0
 40
2.0
 40
3.0
 40
3.0
 40
3.0
 40
4.0
 40
4.0
 40
4.0
 40
4.0
 10
70.5425013888889
 20
-5.973509722222224
 10
70.5425013888889
 20
-7.699043055555547
 10
69.13864305555555
 20
-9.102831944444434
 10
67.41310972222222
 20
-9.102831944444434
 10
65.68759027777777
 20
-9.102831944444434
 10
64.28378749999999
 20
-7.699043055555547
 10
64.28378749999999
 20
-5.973509722222224
 10
64.28378749999999
 20
-4.247991666666672
 10
65.68759027777777
 20
-2.844188888888892
 10
67.41310972222222
 20
-2.844188888888892
 10
69.13864305555555
 20
-2.844188888888892
 10
70.5425013888889
 20
-4.247991666666672
 10
70.5425013888889
 20
-5.973509722222224
 97
        0
 97
        0
 75
     2
 76
     1
 98
        0
  0
ENDSEC
  0
SECTION
  2
OBJECTS
  0
DICTIONARY
  5
C
330
0
100
AcDbDictionary
281
     1
  3
ACAD_GROUP
350
D
  3
ACAD_LAYOUT
350
1A
  3
ACAD_MATERIAL
350
3B
  3
ACAD_MLEADERSTYLE
350
4A
  3
ACAD_MLINESTYLE
350
17
  3
ACAD_PLOTSETTINGS
350
19
  3
ACAD_PLOTSTYLENAME
350
E
  3
ACAD_TABLESTYLE
350
49
  3
ACAD_VISUALSTYLE
350
2A
  0
SUN
  5
3F
330
29
100
AcDbSun
 90
        1
290
     0
 63
     7
421
 16777215
 40
1.0
291
     1
 91
  2455826
 92
 54000000
292
     0
 70
     2
 71
   256
280
     1
  0
DICTIONARY
  5
D
102
{ACAD_REACTORS
330
C
102
}
330
C
100
AcDbDictionary
281
     1
  0
DICTIONARY
  5
1A
102
{ACAD_REACTORS
330
C
102
}
330
C
100
AcDbDictionary
281
     1
  3
Layout1
350
1E
  3
Layout2
350
26
  3
Model
350
22
  0
DICTIONARY
  5
3B
102
{ACAD_REACTORS
330
C
102
}
330
C
100
AcDbDictionary
281
     1
  3
ByBlock
350
3D
  3
ByLayer
350
3C
  3
Global
350
3E
  0
DICTIONARY
  5
4A
102
{ACAD_REACTORS
330
C
102
}
330
C
100
AcDbDictionary
281
     1
  0
DICTIONARY
  5
17
102
{ACAD_REACTORS
330
C
102
}
330
C
100
AcDbDictionary
281
     1
  3
Standard
350
18
  0
DICTIONARY
  5
19
102
{ACAD_REACTORS
330
C
102
}
330
C
100
AcDbDictionary
281
     1
  0
ACDBDICTIONARYWDFLT
  5
E
102
{ACAD_REACTORS
330
C
102
}
330
C
100
AcDbDictionary
281
     1
  3
Normal
350
F
100
AcDbDictionaryWithDefault
340
F
  0
DICTIONARY
  5
49
102
{ACAD_REACTORS
330
C
102
}
330
C
100
AcDbDictionary
281
     1
  0
DICTIONARY
  5
2A
102
{ACAD_REACTORS
330
C
102
}
330
C
100
AcDbDictionary
281
     1
  3
2dWireframe
350
2F
  3
3D Hidden
350
31
  3
3dWireframe
350
30
  3
Basic
350
32
  3
Brighten
350
36
  3
ColorChange
350
3A
  3
Conceptual
350
34
  3
Dim
350
35
  3
Facepattern
350
39
  3
Flat
350
2B
  3
FlatWithEdges
350
2C
  3
Gouraud
350
2D
  3
GouraudWithEdges
350
2E
  3
Linepattern
350
38
  3
Realistic
350
33
  3
Thicken
350
37
  0
LAYOUT
  5
1E
102
{ACAD_REACTORS
330
1A
102
}
330
1A
100
AcDbPlotSettings
  1

  2
none_device
  4

  6

 40
0.0
 41
0.0
 42
0.0
 43
0.0
 44
0.0
 45
0.0
 46
0.0
 47
0.0
 48
0.0
 49
0.0
140
0.0
141
0.0
142
1.0
143
1.0
 70
   688
 72
     0
 73
     0
 74
     5
  7

 75
    16
 76
     0
 77
     2
 78
   300
147
1.0
148
0.0
149
0.0
100
AcDbLayout
  1
Layout1
 70
     1
 71
     1
 10
0.0
 20
0.0
 11
12.0
 21
9.0
 12
0.0
 22
0.0
 32
0.0
 14
1.000000000000000E+20
 24
1.000000000000000E+20
 34
1.000000000000000E+20
 15
-1.000000000000000E+20
 25
-1.000000000000000E+20
 35
-1.000000000000000E+20
146
0.0
 13
0.0
 23
0.0
 33
0.0
 16
1.0
 26
0.0
 36
0.0
 17
0.0
 27
1.0
 37
0.0
 76
     0
330
1B
  0
LAYOUT
  5
26
102
{ACAD_REACTORS
330
1A
102
}
330
1A
100
AcDbPlotSettings
  1

  2
none_device
  4

  6

 40
0.0
 41
0.0
 42
0.0
 43
0.0
 44
0.0
 45
0.0
 46
0.0
 47
0.0
 48
0.0
 49
0.0
140
0.0
141
0.0
142
1.0
143
1.0
 70
   688
 72
     0
 73
     0
 74
     5
  7

 75
    16
 76
     0
 77
     2
 78
   300
147
1.0
148
0.0
149
0.0
100
AcDbLayout
  1
Layout2
 70
     1
 71
     2
 10
0.0
 20
0.0
 11
0.0
 21
0.0
 12
0.0
 22
0.0
 32
0.0
 14
0.0
 24
0.0
 34
0.0
 15
0.0
 25
0.0
 35
0.0
146
0.0
 13
0.0
 23
0.0
 33
0.0
 16
1.0
 26
0.0
 36
0.0
 17
0.0
 27
1.0
 37
0.0
 76
     0
330
23
  0
LAYOUT
  5
22
102
{ACAD_REACTORS
330
1A
102
}
330
1A
100
AcDbPlotSettings
  1

  2
none_device
  4

  6

 40
0.0
 41
0.0
 42
0.0
 43
0.0
 44
0.0
 45
0.0
 46
0.0
 47
0.0
 48
0.0
 49
0.0
140
0.0
141
0.0
142
1.0
143
1.0
 70
  1712
 72
     0
 73
     0
 74
     0
  7

 75
     0
 76
     0
 77
     2
 78
   300
147
1.0
148
0.0
149
0.0
100
AcDbLayout
  1
Model
 70
     1
 71
     0
 10
0.0
 20
0.0
 11
12.0
 21
9.0
 12
0.0
 22
0.0
 32
0.0
 14
1.000000000000000E+20
 24
1.000000000000000E+20
 34
1.000000000000000E+20
 15
-1.000000000000000E+20
 25
-1.000000000000000E+20
 35
-1.000000000000000E+20
146
0.0
 13
0.0
 23
0.0
 33
0.0
 16
1.0
 26
0.0
 36
0.0
 17
0.0
 27
1.0
 37
0.0
 76
     0
330
1F
331
29
  0
MATERIAL
  5
3D
102
{ACAD_REACTORS
330
3B
102
}
330
3B
100
AcDbMaterial
  1
ByBlock
 72
     1
 94
      127
  0
MATERIAL
  5
3C
102
{ACAD_REACTORS
330
3B
102
}
330
3B
100
AcDbMaterial
  1
ByLayer
 72
     1
 94
      127
  0
MATERIAL
  5
3E
102
{ACAD_REACTORS
330
3B
102
}
330
3B
100
AcDbMaterial
  1
Global
 72
     1
 94
      127
  0
MLINESTYLE
  5
18
102
{ACAD_REACTORS
330
17
102
}
330
17
100
AcDbMlineStyle
  2
Standard
 70
     0
  3

 62
   256
 51
90.0
 52
90.0
 71
     2
 49
0.5
 62
   256
  6
BYLAYER
 49
-0.5
 62
   256
  6
BYLAYER
  0
ACDBPLACEHOLDER
  5
F
102
{ACAD_REACTORS
330
E
102
}
330
E
  0
VISUALSTYLE
  5
2F
102
{ACAD_REACTORS
330
2A
102
}
330
2A
100
AcDbVisualStyle
  2
2dWireframe
 70
     4
177
     2
291
     0
 71
     0
176
     1
 72
     2
176
     1
 73
     0
176
     1
 90
        0
176
     1
 40
-0.6
176
     1
 41
-30.0
176
     1
 62
     5
 63
     7
421
 16777215
176
     1
 74
     1
176
     1
 91
        4
176
     1
 64
     7
176
     1
 65
   257
176
     1
 75
     1
176
     1
175
     1
176
     1
 42
1.0
176
     1
 92
        0
176
     1
 66
   257
176
     1
 43
1.0
176
     1
 76
     1
176
     1
 77
     6
176
     1
 78
     2
176
     1
 67
     7
176
     1
 79
     5
176
     1
170
     0
176
     1
171
     0
176
     1
290
     0
176
     1
 93
        1
176
     1
 44
0.0
176
     1
173
     0
176
     1
  0
VISUALSTYLE
  5
31
102
{ACAD_REACTORS
330
2A
102
}
330
2A
100
AcDbVisualStyle
  2
3D Hidden
 70
     6
177
     2
291
     0
 71
     1
176
     1
 72
     2
176
     1
 73
     2
176
     1
 90
        0
176
     1
 40
-0.6
176
     1
 41
-30.0
176
     1
 62
     5
 63
     7
421
 16777215
176
     1
 74
     2
176
     1
 91
        2
176
     1
 64
     7
176
     1
 65
   257
176
     1
 75
     2
176
     1
175
     1
176
     1
 42
40.0
176
     1
 92
        0
176
     1
 66
   257
176
     1
 43
1.0
176
     1
 76
     1
176
     1
 77
     6
176
     1
 78
     2
176
     1
 67
     7
176
     1
 79
     3
176
     1
170
     0
176
     1
171
     0
176
     1
290
     0
176
     1
 93
        1
176
     1
 44
0.0
176
     1
173
     0
176
     1
  0
VISUALSTYLE
  5
30
102
{ACAD_REACTORS
330
2A
102
}
330
2A
100
AcDbVisualStyle
  2
3dWireframe
 70
     5
177
     2
291
     0
 71
     0
176
     1
 72
     2
176
     1
 73
     0
176
     1
 90
        0
176
     1
 40
-0.6
176
     1
 41
-30.0
176
     1
 62
     5
 63
     7
421
 16777215
176
     1
 74
     1
176
     1
 91
        4
176
     1
 64
     7
176
     1
 65
   257
176
     1
 75
     1
176
     1
175
     1
176
     1
 42
1.0
176
     1
 92
        0
176
     1
 66
   257
176
     1
 43
1.0
176
     1
 76
     1
176
     1
 77
     6
176
     1
 78
     2
176
     1
 67
     7
176
     1
 79
     5
176
     1
170
     0
176
     1
171
     0
176
     1
290
     0
176
     1
 93
        1
176
     1
 44
0.0
176
     1
173
     0
176
     1
  0
VISUALSTYLE
  5
32
102
{ACAD_REACTORS
330
2A
102
}
330
2A
100
AcDbVisualStyle
  2
Basic
 70
     7
177
     2
291
     1
 71
     1
176
     1
 72
     0
176
     1
 73
     1
176
     1
 90
        0
176
     1
 40
-0.6
176
     1
 41
-30.0
176
     1
 62
     5
 63
     7
421
 16777215
176
     1
 74
     0
176
     1
 91
        4
176
     1
 64
     7
176
     1
 65
   257
176
     1
 75
     1
176
     1
175
     1
176
     1
 42
1.0
176
     1
 92
        8
176
     1
 66
     7
176
     1
 43
1.0
176
     1
 76
     1
176
     1
 77
     6
176
     1
 78
     2
176
     1
 67
     7
176
     1
 79
     5
176
     1
170
     0
176
     1
171
     0
176
     1
290
     0
176
     1
 93
        1
176
     1
 44
0.0
176
     1
173
     0
176
     1
  0
VISUALSTYLE
  5
36
102
{ACAD_REACTORS
330
2A
102
}
330
2A
100
AcDbVisualStyle
  2
Brighten
 70
    12
177
     2
291
     1
 71
     2
176
     1
 72
     2
176
     1
 73
     0
176
     1
 90
        0
176
     1
 40
-0.6
176
     1
 41
-30.0
176
     1
 62
     5
 63
     7
421
 16777215
176
     1
 74
     1
176
     1
 91
        4
176
     1
 64
     7
176
     1
 65
   257
176
     1
 75
     1
176
     1
175
     1
176
     1
 42
1.0
176
     1
 92
        8
176
     1
 66
     7
176
     1
 43
1.0
176
     1
 76
     1
176
     1
 77
     6
176
     1
 78
     2
176
     1
 67
     7
176
     1
 79
     5
176
     1
170
     0
176
     1
171
     0
176
     1
290
     0
176
     1
 93
        1
176
     1
 44
50.0
176
     1
173
     0
176
     1
  0
VISUALSTYLE
  5
3A
102
{ACAD_REACTORS
330
2A
102
}
330
2A
100
AcDbVisualStyle
  2
ColorChange
 70
    16
177
     2
291
     1
 71
     2
176
     1
 72
     2
176
     1
 73
     3
176
     1
 90
        0
176
     1
 40
-0.6
176
     1
 41
-30.0
176
     1
 62
     5
 63
     8
421
  8421504
176
     1
 74
     1
176
     1
 91
        4
176
     1
 64
     7
176
     1
 65
   257
176
     1
 75
     1
176
     1
175
     1
176
     1
 42
1.0
176
     1
 92
        8
176
     1
 66
     8
424
  8421504
176
     1
 43
1.0
176
     1
 76
     1
176
     1
 77
     6
176
     1
 78
     2
176
     1
 67
     7
176
     1
 79
     5
176
     1
170
     0
176
     1
171
     0
176
     1
290
     0
176
     1
 93
        1
176
     1
 44
0.0
176
     1
173
     0
176
     1
  0
VISUALSTYLE
  5
34
102
{ACAD_REACTORS
330
2A
102
}
330
2A
100
AcDbVisualStyle
  2
Conceptual
 70
     9
177
     2
291
     0
 71
     3
176
     1
 72
     2
176
     1
 73
     0
176
     1
 90
        0
176
     1
 40
-0.6
176
     1
 41
-30.0
176
     1
 62
     5
 63
     7
421
 16777215
176
     1
 74
     2
176
     1
 91
        2
176
     1
 64
     7
176
     1
 65
   257
176
     1
 75
     1
176
     1
175
     1
176
     1
 42
40.0
176
     1
 92
        8
176
     1
 66
     7
176
     1
 43
1.0
176
     1
 76
     1
176
     1
 77
     6
176
     1
 78
     2
176
     1
 67
     7
176
     1
 79
     3
176
     1
170
     0
176
     1
171
     0
176
     1
290
     0
176
     1
 93
        1
176
     1
 44
0.0
176
     1
173
     0
176
     1
  0
VISUALSTYLE
  5
35
102
{ACAD_REACTORS
330
2A
102
}
330
2A
100
AcDbVisualStyle
  2
Dim
 70
    11
177
     2
291
     1
 71
     2
176
     1
 72
     2
176
     1
 73
     0
176
     1
 90
        0
176
     1
 40
-0.6
176
     1
 41
-30.0
176
     1
 62
     5
 63
     7
421
 16777215
176
     1
 74
     1
176
     1
 91
        4
176
     1
 64
     7
176
     1
 65
   257
176
     1
 75
     1
176
     1
175
     1
176
     1
 42
1.0
176
     1
 92
        8
176
     1
 66
     7
176
     1
 43
1.0
176
     1
 76
     1
176
     1
 77
     6
176
     1
 78
     2
176
     1
 67
     7
176
     1
 79
     5
176
     1
170
     0
176
     1
171
     0
176
     1
290
     0
176
     1
 93
        1
176
     1
 44
-50.0
176
     1
173
     0
176
     1
  0
VISUALSTYLE
  5
39
102
{ACAD_REACTORS
330
2A
102
}
330
2A
100
AcDbVisualStyle
  2
Facepattern
 70
    15
177
     2
291
     1
 71
     2
176
     1
 72
     2
176
     1
 73
     0
176
     1
 90
        0
176
     1
 40
-0.6
176
     1
 41
-30.0
176
     1
 62
     5
 63
     7
421
 16777215
176
     1
 74
     1
176
     1
 91
        4
176
     1
 64
     7
176
     1
 65
   257
176
     1
 75
     1
176
     1
175
     1
176
     1
 42
1.0
176
     1
 92
        8
176
     1
 66
     7
176
     1
 43
1.0
176
     1
 76
     1
176
     1
 77
     6
176
     1
 78
     2
176
     1
 67
     7
176
     1
 79
     5
176
     1
170
     0
176
     1
171
     0
176
     1
290
     0
176
     1
 93
        1
176
     1
 44
0.0
176
     1
173
     0
176
     1
  0
VISUALSTYLE
  5
2B
102
{ACAD_REACTORS
330
2A
102
}
330
2A
100
AcDbVisualStyle
  2
Flat
 70
     0
177
     2
291
     1
 71
     2
176
     1
 72
     1
176
     1
 73
     1
176
     1
 90
        2
176
     1
 40
-0.6
176
     1
 41
30.0
176
     1
 62
     5
 63
     7
421
 16777215
176
     1
 74
     0
176
     1
 91
        4
176
     1
 64
     7
176
     1
 65
   257
176
     1
 75
     1
176
     1
175
     1
176
     1
 42
1.0
176
     1
 92
        8
176
     1
 66
     7
176
     1
 43
1.0
176
     1
 76
     1
176
     1
 77
     6
176
     1
 78
     2
176
     1
 67
     7
176
     1
 79
     5
176
     1
170
     0
176
     1
171
     0
176
     1
290
     0
176
     1
 93
       13
176
     1
 44
0.0
176
     1
173
     0
176
     1
  0
VISUALSTYLE
  5
2C
102
{ACAD_REACTORS
330
2A
102
}
330
2A
100
AcDbVisualStyle
  2
FlatWithEdges
 70
     1
177
     2
291
     1
 71
     2
176
     1
 72
     1
176
     1
 73
     1
176
     1
 90
        2
176
     1
 40
-0.6
176
     1
 41
30.0
176
     1
 62
     5
 63
     7
421
 16777215
176
     1
 74
     1
176
     1
 91
        4
176
     1
 64
     7
176
     1
 65
   257
176
     1
 75
     1
176
     1
175
     1
176
     1
 42
1.0
176
     1
 92
        0
176
     1
 66
   257
176
     1
 43
1.0
176
     1
 76
     1
176
     1
 77
     6
176
     1
 78
     2
176
     1
 67
     7
176
     1
 79
     5
176
     1
170
     0
176
     1
171
     0
176
     1
290
     0
176
     1
 93
       13
176
     1
 44
0.0
176
     1
173
     0
176
     1
  0
VISUALSTYLE
  5
2D
102
{ACAD_REACTORS
330
2A
102
}
330
2A
100
AcDbVisualStyle
  2
Gouraud
 70
     2
177
     2
291
     1
 71
     2
176
     1
 72
     2
176
     1
 73
     1
176
     1
 90
        2
176
     1
 40
-0.6
176
     1
 41
30.0
176
     1
 62
     5
 63
     7
421
 16777215
176
     1
 74
     0
176
     1
 91
        4
176
     1
 64
     7
176
     1
 65
   257
176
     1
 75
     1
176
     1
175
     1
176
     1
 42
1.0
176
     1
 92
        0
176
     1
 66
     7
176
     1
 43
1.0
176
     1
 76
     1
176
     1
 77
     6
176
     1
 78
     2
176
     1
 67
     7
176
     1
 79
     5
176
     1
170
     0
176
     1
171
     0
176
     1
290
     0
176
     1
 93
       13
176
     1
 44
0.0
176
     1
173
     0
176
     1
  0
VISUALSTYLE
  5
2E
102
{ACAD_REACTORS
330
2A
102
}
330
2A
100
AcDbVisualStyle
  2
GouraudWithEdges
 70
     3
177
     2
291
     1
 71
     2
176
     1
 72
     2
176
     1
 73
     1
176
     1
 90
        2
176
     1
 40
-0.6
176
     1
 41
30.0
176
     1
 62
     5
 63
     7
421
 16777215
176
     1
 74
     1
176
     1
 91
        4
176
     1
 64
     7
176
     1
 65
   257
176
     1
 75
     1
176
     1
175
     1
176
     1
 42
1.0
176
     1
 92
        0
176
     1
 66
   257
176
     1
 43
1.0
176
     1
 76
     1
176
     1
 77
     6
176
     1
 78
     2
176
     1
 67
     7
176
     1
 79
     5
176
     1
170
     0
176
     1
171
     0
176
     1
290
     0
176
     1
 93
       13
176
     1
 44
0.0
176
     1
173
     0
176
     1
  0
VISUALSTYLE
  5
38
102
{ACAD_REACTORS
330
2A
102
}
330
2A
100
AcDbVisualStyle
  2
Linepattern
 70
    14
177
     2
291
     1
 71
     2
176
     1
 72
     2
176
     1
 73
     0
176
     1
 90
        0
176
     1
 40
-0.6
176
     1
 41
-30.0
176
     1
 62
     5
 63
     7
421
 16777215
176
     1
 74
     1
176
     1
 91
        4
176
     1
 64
     7
176
     1
 65
   257
176
     1
 75
     7
176
     1
175
     7
176
     1
 42
1.0
176
     1
 92
        8
176
     1
 66
     7
176
     1
 43
1.0
176
     1
 76
     1
176
     1
 77
     6
176
     1
 78
     2
176
     1
 67
     7
176
     1
 79
     5
176
     1
170
     0
176
     1
171
     0
176
     1
290
     0
176
     1
 93
        1
176
     1
 44
0.0
176
     1
173
     0
176
     1
  0
VISUALSTYLE
  5
33
102
{ACAD_REACTORS
330
2A
102
}
330
2A
100
AcDbVisualStyle
  2
Realistic
 70
     8
177
     2
291
     0
 71
     2
176
     1
 72
     2
176
     1
 73
     0
176
     1
 90
        0
176
     1
 40
-0.6
176
     1
 41
-30.0
176
     1
 62
     5
 63
     7
421
 16777215
176
     1
 74
     1
176
     1
 91
        0
176
     1
 64
     7
176
     1
 65
   257
176
     1
 75
     1
176
     1
175
     1
176
     1
 42
1.0
176
     1
 92
        8
176
     1
 66
     8
424
  7895160
176
     1
 43
1.0
176
     1
 76
     1
176
     1
 77
     6
176
     1
 78
     2
176
     1
 67
     7
176
     1
 79
     5
176
     1
170
     0
176
     1
171
     0
176
     1
290
     0
176
     1
 93
       13
176
     1
 44
0.0
176
     1
173
     0
176
     1
  0
VISUALSTYLE
  5
37
102
{ACAD_REACTORS
330
2A
102
}
330
2A
100
AcDbVisualStyle
  2
Thicken
 70
    13
177
     2
291
     1
 71
     2
176
     1
 72
     2
176
     1
 73
     0
176
     1
 90
        0
176
     1
 40
-0.6
176
     1
 41
-30.0
176
     1
 62
     5
 63
     7
421
 16777215
176
     1
 74
     1
176
     1
 91
        4
176
     1
 64
     7
176
     1
 65
   257
176
     1
 75
     1
176
     1
175
     1
176
     1
 42
1.0
176
     1
 92
       12
176
     1
 66
     7
176
     1
 43
1.0
176
     1
 76
     1
176
     1
 77
     6
176
     1
 78
     2
176
     1
 67
     7
176
     1
 79
     5
176
     1
170
     0
176
     1
171
     0
176
     1
290
     0
176
     1
 93
        1
176
     1
 44
0.0
176
     1
173
     0
176
     1
  0
ENDSEC
  0
EOF
