  0
SECTION
  2
HEADER
  9
$ACADVER
  1
AC1024
  9
$ACADMAINTVER
 70
     6
  9
$DWGCODEPAGE
  3
ANSI_1251
  9
$INSBASE
 10
0.0
 20
0.0
 30
0.0
  9
$EXTMIN
 10
1.000000000000000E+20
 20
1.000000000000000E+20
 30
1.000000000000000E+20
  9
$EXTMAX
 10
-1.000000000000000E+20
 20
-1.000000000000000E+20
 30
-1.000000000000000E+20
  9
$LIMMIN
 10
0.0
 20
0.0
  9
$LIMMAX
 10
12.0
 20
9.0
  9
$ORTHOMODE
 70
     0
  9
$REGENMODE
 70
     1
  9
$FILLMODE
 70
     1
  9
$QTEXTMODE
 70
     0
  9
$MIRRTEXT
 70
     1
  9
$LTSCALE
 40
1.0
  9
$ATTMODE
 70
     1
  9
$TEXTSIZE
 40
0.2
  9
$TRACEWID
 40
0.05
  9
$TEXTSTYLE
  7
Standard
  9
$CLAYER
  8
0
  9
$CELTYPE
  6
ByLayer
  9
$CECOLOR
 62
   256
  9
$CELTSCALE
 40
1.0
  9
$DISPSILH
 70
     0
  9
$DIMSCALE
 40
1.0
  9
$DIMASZ
 40
0.18
  9
$DIMEXO
 40
0.0625
  9
$DIMDLI
 40
0.38
  9
$DIMRND
 40
0.0
  9
$DIMDLE
 40
0.0
  9
$DIMEXE
 40
0.18
  9
$DIMTP
 40
0.0
  9
$DIMTM
 40
0.0
  9
$DIMTXT
 40
0.18
  9
$DIMCEN
 40
0.09
  9
$DIMTSZ
 40
0.0
  9
$DIMTOL
 70
     0
  9
$DIMLIM
 70
     0
  9
$DIMTIH
 70
     1
  9
$DIMTOH
 70
     1
  9
$DIMSE1
 70
     0
  9
$DIMSE2
 70
     0
  9
$DIMTAD
 70
     0
  9
$DIMZIN
 70
     0
  9
$DIMBLK
  1

  9
$DIMASO
 70
     1
  9
$DIMSHO
 70
     1
  9
$DIMPOST
  1

  9
$DIMAPOST
  1

  9
$DIMALT
 70
     0
  9
$DIMALTD
 70
     2
  9
$DIMALTF
 40
25.4
  9
$DIMLFAC
 40
1.0
  9
$DIMTOFL
 70
     0
  9
$DIMTVP
 40
0.0
  9
$DIMTIX
 70
     0
  9
$DIMSOXD
 70
     0
  9
$DIMSAH
 70
     0
  9
$DIMBLK1
  1

  9
$DIMBLK2
  1

  9
$DIMSTYLE
  2
Standard
  9
$DIMCLRD
 70
     0
  9
$DIMCLRE
 70
     0
  9
$DIMCLRT
 70
     0
  9
$DIMTFAC
 40
1.0
  9
$DIMGAP
 40
0.09
  9
$DIMJUST
 70
     0
  9
$DIMSD1
 70
     0
  9
$DIMSD2
 70
     0
  9
$DIMTOLJ
 70
     1
  9
$DIMTZIN
 70
     0
  9
$DIMALTZ
 70
     0
  9
$DIMALTTZ
 70
     0
  9
$DIMUPT
 70
     0
  9
$DIMDEC
 70
     4
  9
$DIMTDEC
 70
     4
  9
$DIMALTU
 70
     2
  9
$DIMALTTD
 70
     2
  9
$DIMTXSTY
  7
Standard
  9
$DIMAUNIT
 70
     0
  9
$DIMADEC
 70
     0
  9
$DIMALTRND
 40
0.0
  9
$DIMAZIN
 70
     0
  9
$DIMDSEP
 70
    46
  9
$DIMATFIT
 70
     3
  9
$DIMFRAC
 70
     0
  9
$DIMLDRBLK
  1

  9
$DIMLUNIT
 70
     2
  9
$DIMLWD
 70
    -2
  9
$DIMLWE
 70
    -2
  9
$DIMTMOVE
 70
     0
  9
$DIMFXL
 40
1.0
  9
$DIMFXLON
 70
     0
  9
$DIMJOGANG
 40
0.7853981633974483
  9
$DIMTFILL
 70
     0
  9
$DIMTFILLCLR
 70
     0
  9
$DIMARCSYM
 70
     0
  9
$DIMLTYPE
  6

  9
$DIMLTEX1
  6

  9
$DIMLTEX2
  6

  9
$DIMTXTDIRECTION
 70
     0
  9
$LUNITS
 70
     2
  9
$LUPREC
 70
     4
  9
$SKETCHINC
 40
0.1
  9
$FILLETRAD
 40
0.5
  9
$AUNITS
 70
     0
  9
$AUPREC
 70
     0
  9
$MENU
  1
.
  9
$ELEVATION
 40
0.0
  9
$PELEVATION
 40
0.0
  9
$THICKNESS
 40
0.0
  9
$LIMCHECK
 70
     0
  9
$CHAMFERA
 40
0.5
  9
$CHAMFERB
 40
0.5
  9
$CHAMFERC
 40
1.0
  9
$CHAMFERD
 40
0.0
  9
$SKPOLY
 70
     0
  9
$TDCREATE
 40
2459337.660063102
  9
$TDUCREATE
 40
2459337.535063102
  9
$TDUPDATE
 40
2459337.660063102
  9
$TDUUPDATE
 40
2459337.535063102
  9
$TDINDWG
 40
0.0000000116
  9
$TDUSRTIMER
 40
0.0000000116
  9
$USRTIMER
 70
     1
  9
$ANGBASE
 50
0.0
  9
$ANGDIR
 70
     0
  9
$PDMODE
 70
     0
  9
$PDSIZE
 40
0.0
  9
$PLINEWID
 40
0.0
  9
$SPLFRAME
 70
     0
  9
$SPLINETYPE
 70
     6
  9
$SPLINESEGS
 70
     8
  9
$HANDSEED
  5
55
  9
$SURFTAB1
 70
     6
  9
$SURFTAB2
 70
     6
  9
$SURFTYPE
 70
     6
  9
$SURFU
 70
     6
  9
$SURFV
 70
     6
  9
$UCSBASE
  2

  9
$UCSNAME
  2

  9
$UCSORG
 10
0.0
 20
0.0
 30
0.0
  9
$UCSXDIR
 10
1.0
 20
0.0
 30
0.0
  9
$UCSYDIR
 10
0.0
 20
1.0
 30
0.0
  9
$UCSORTHOREF
  2

  9
$UCSORTHOVIEW
 70
     0
  9
$UCSORGTOP
 10
0.0
 20
0.0
 30
0.0
  9
$UCSORGBOTTOM
 10
0.0
 20
0.0
 30
0.0
  9
$UCSORGLEFT
 10
0.0
 20
0.0
 30
0.0
  9
$UCSORGRIGHT
 10
0.0
 20
0.0
 30
0.0
  9
$UCSORGFRONT
 10
0.0
 20
0.0
 30
0.0
  9
$UCSORGBACK
 10
0.0
 20
0.0
 30
0.0
  9
$PUCSBASE
  2

  9
$PUCSNAME
  2

  9
$PUCSORG
 10
0.0
 20
0.0
 30
0.0
  9
$PUCSXDIR
 10
1.0
 20
0.0
 30
0.0
  9
$PUCSYDIR
 10
0.0
 20
1.0
 30
0.0
  9
$PUCSORTHOREF
  2

  9
$PUCSORTHOVIEW
 70
     0
  9
$PUCSORGTOP
 10
0.0
 20
0.0
 30
0.0
  9
$PUCSORGBOTTOM
 10
0.0
 20
0.0
 30
0.0
  9
$PUCSORGLEFT
 10
0.0
 20
0.0
 30
0.0
  9
$PUCSORGRIGHT
 10
0.0
 20
0.0
 30
0.0
  9
$PUCSORGFRONT
 10
0.0
 20
0.0
 30
0.0
  9
$PUCSORGBACK
 10
0.0
 20
0.0
 30
0.0
  9
$USERI1
 70
     0
  9
$USERI2
 70
     0
  9
$USERI3
 70
     0
  9
$USERI4
 70
     0
  9
$USERI5
 70
     0
  9
$USERR1
 40
0.0
  9
$USERR2
 40
0.0
  9
$USERR3
 40
0.0
  9
$USERR4
 40
0.0
  9
$USERR5
 40
0.0
  9
$WORLDVIEW
 70
     1
  9
$SHADEDGE
 70
     3
  9
$SHADEDIF
 70
    70
  9
$TILEMODE
 70
     1
  9
$MAXACTVP
 70
    64
  9
$PINSBASE
 10
0.0
 20
0.0
 30
0.0
  9
$PLIMCHECK
 70
     0
  9
$PEXTMIN
 10
1.000000000000000E+20
 20
1.000000000000000E+20
 30
1.000000000000000E+20
  9
$PEXTMAX
 10
-1.000000000000000E+20
 20
-1.000000000000000E+20
 30
-1.000000000000000E+20
  9
$PLIMMIN
 10
0.0
 20
0.0
  9
$PLIMMAX
 10
12.0
 20
9.0
  9
$UNITMODE
 70
     0
  9
$VISRETAIN
 70
     1
  9
$PLINEGEN
 70
     0
  9
$PSLTSCALE
 70
     1
  9
$TREEDEPTH
 70
  3020
  9
$CMLSTYLE
  2
Standard
  9
$CMLJUST
 70
     0
  9
$CMLSCALE
 40
1.0
  9
$PROXYGRAPHICS
 70
     1
  9
$MEASUREMENT
 70
     0
  9
$CELWEIGHT
370
    -1
  9
$ENDCAPS
280
     0
  9
$JOINSTYLE
280
     0
  9
$LWDISPLAY
290
     1
  9
$INSUNITS
 70
     1
  9
$HYPERLINKBASE
  1

  9
$STYLESHEET
  1

  9
$XEDIT
290
     1
  9
$CEPSNTYPE
380
     0
  9
$PSTYLEMODE
290
     1
  9
$FINGERPRINTGUID
  2
{171189A1-AB7E-4F63-A9BC-1247324D55E8}
  9
$VERSIONGUID
  2
{FAEB1C32-E019-11D5-929B-00C0DF256EC4}
  9
$EXTNAMES
290
     1
  9
$PSVPSCALE
 40
0.0
  9
$OLESTARTUP
290
     0
  9
$SORTENTS
280
   127
  9
$INDEXCTL
280
     0
  9
$HIDETEXT
280
     1
  9
$XCLIPFRAME
280
     2
  9
$HALOGAP
280
     0
  9
$OBSCOLOR
 70
   257
  9
$OBSLTYPE
280
     0
  9
$INTERSECTIONDISPLAY
280
     0
  9
$INTERSECTIONCOLOR
 70
   257
  9
$DIMASSOC
280
     2
  9
$PROJECTNAME
  1

  9
$CAMERADISPLAY
290
     0
  9
$LENSLENGTH
 40
50.0
  9
$CAMERAHEIGHT
 40
0.0
  9
$STEPSPERSEC
 40
2.0
  9
$STEPSIZE
 40
6.0
  9
$3DDWFPREC
 40
2.0
  9
$PSOLWIDTH
 40
0.25
  9
$PSOLHEIGHT
 40
4.0
  9
$LOFTANG1
 40
1.570796326794897
  9
$LOFTANG2
 40
1.570796326794897
  9
$LOFTMAG1
 40
0.0
  9
$LOFTMAG2
 40
0.0
  9
$LOFTPARAM
 70
     7
  9
$LOFTNORMALS
280
     1
  9
$LATITUDE
 40
37.795
  9
$LONGITUDE
 40
-122.394
  9
$NORTHDIRECTION
 40
0.0
  9
$TIMEZONE
 70
 -8000
  9
$LIGHTGLYPHDISPLAY
280
     1
  9
$TILEMODELIGHTSYNCH
280
     1
  9
$CMATERIAL
347
3C
  9
$SOLIDHIST
280
     1
  9
$SHOWHIST
280
     1
  9
$DWFFRAME
280
     2
  9
$DGNFRAME
280
     2
  9
$REALWORLDSCALE
290
     1
  9
$INTERFERECOLOR
 62
   256
  9
$CSHADOW
280
     0
  9
$SHADOWPLANELOCATION
 40
0.0
  0
ENDSEC
  0
SECTION
  2
CLASSES
  0
CLASS
  1
ACDBDICTIONARYWDFLT
  2
AcDbDictionaryWithDefault
  3
ObjectDBX Classes
 90
        0
 91
        4
280
     0
281
     0
  0
CLASS
  1
VISUALSTYLE
  2
AcDbVisualStyle
  3
ObjectDBX Classes
 90
     4095
 91
        4
280
     0
281
     0
  0
CLASS
  1
MATERIAL
  2
AcDbMaterial
  3
ObjectDBX Classes
 90
     1153
 91
        4
280
     0
281
     0
  0
CLASS
  1
SUN
  2
AcDbSun
  3
SCENEOE
 90
     1024
 91
        4
280
     0
281
     0
  0
ENDSEC
  0
SECTION
  2
TABLES
  0
TABLE
  2
VPORT
  5
8
330
0
100
AcDbSymbolTable
 70
     1
  0
VPORT
  5
29
330
8
100
AcDbSymbolTableRecord
100
AcDbViewportTableRecord
  2
*Active
 70
     0
 10
0.0
 20
0.0
 11
1.0
 21
1.0
 12
0.0
 22
0.0
 13
0.0
 23
0.0
 14
0.5
 24
0.5
 15
0.5
 25
0.5
 16
0.0
 26
0.0
 36
1.0
 17
18.24381388888888
 27
-18.23821304287177
 37
0.0
 40
11.99999275241023
 41
1.000000603966179
 42
50.0
 43
0.0
 44
0.0
 50
0.0
 51
0.0
 71
     0
 72
   100
 73
     1
 74
     3
 75
     0
 76
     0
 77
     0
 78
     0
281
     0
 65
     1
110
0.0
120
0.0
130
0.0
111
1.0
121
0.0
131
0.0
112
0.0
122
1.0
132
0.0
 79
     0
146
0.0
 60
     3
 61
     5
292
     1
282
     1
141
0.0
142
0.0
 63
   250
361
3F
  0
ENDTAB
  0
TABLE
  2
LTYPE
  5
5
330
0
100
AcDbSymbolTable
 70
     1
  0
LTYPE
  5
14
330
5
100
AcDbSymbolTableRecord
100
AcDbLinetypeTableRecord
  2
ByBlock
 70
     0
  3

 72
    65
 73
     0
 40
0.0
  0
LTYPE
  5
15
330
5
100
AcDbSymbolTableRecord
100
AcDbLinetypeTableRecord
  2
ByLayer
 70
     0
  3

 72
    65
 73
     0
 40
0.0
  0
LTYPE
  5
16
330
5
100
AcDbSymbolTableRecord
100
AcDbLinetypeTableRecord
  2
Continuous
 70
     0
  3
Solid line
 72
    65
 73
     0
 40
0.0
  0
ENDTAB
  0
TABLE
  2
LAYER
  5
2
330
0
100
AcDbSymbolTable
 70
     2
  0
LAYER
  5
10
330
2
100
AcDbSymbolTableRecord
100
AcDbLayerTableRecord
  2
0
 70
     0
 62
     7
  6
Continuous
370
    -3
390
F
347
3E
  0
LAYER
  5
40
330
2
100
AcDbSymbolTableRecord
100
AcDbLayerTableRecord
  2
Layer 1
 70
     0
 62
     7
  6
Continuous
370
    -3
390
F
347
3E
  0
ENDTAB
  0
TABLE
  2
STYLE
  5
3
330
0
100
AcDbSymbolTable
 70
     1
  0
STYLE
  5
11
330
3
100
AcDbSymbolTableRecord
100
AcDbTextStyleTableRecord
  2
Standard
 70
     0
 40
0.0
 41
1.0
 50
0.0
 71
     0
 42
0.2
  3
txt
  4

  0
ENDTAB
  0
TABLE
  2
VIEW
  5
6
330
0
100
AcDbSymbolTable
 70
     0
  0
ENDTAB
  0
TABLE
  2
UCS
  5
7
330
0
100
AcDbSymbolTable
 70
     0
  0
ENDTAB
  0
TABLE
  2
APPID
  5
9
330
0
100
AcDbSymbolTable
 70
     1
  0
APPID
  5
12
330
9
100
AcDbSymbolTableRecord
100
AcDbRegAppTableRecord
  2
ACAD
 70
     0
  0
ENDTAB
  0
TABLE
  2
DIMSTYLE
  5
A
330
0
100
AcDbSymbolTable
 70
     1
100
AcDbDimStyleTable
  0
DIMSTYLE
105
27
330
A
100
AcDbSymbolTableRecord
100
AcDbDimStyleTableRecord
  2
Standard
 70
     0
178
     0
340
11
  0
ENDTAB
  0
TABLE
  2
BLOCK_RECORD
  5
1
330
0
100
AcDbSymbolTable
 70
     1
  0
BLOCK_RECORD
  5
1F
330
1
100
AcDbSymbolTableRecord
100
AcDbBlockTableRecord
  2
*Model_Space
340
22
 70
     0
280
     1
281
     0
  0
BLOCK_RECORD
  5
1B
330
1
100
AcDbSymbolTableRecord
100
AcDbBlockTableRecord
  2
*Paper_Space
340
1E
 70
     0
280
     1
281
     0
  0
BLOCK_RECORD
  5
23
330
1
100
AcDbSymbolTableRecord
100
AcDbBlockTableRecord
  2
*Paper_Space0
340
26
 70
     0
280
     1
281
     0
  0
ENDTAB
  0
ENDSEC
  0
SECTION
  2
BLOCKS
  0
BLOCK
  5
20
330
1F
100
AcDbEntity
  8
0
100
AcDbBlockBegin
  2
*Model_Space
 70
     0
 10
0.0
 20
0.0
 30
0.0
  3
*Model_Space
  1

  0
ENDBLK
  5
21
330
1F
100
AcDbEntity
  8
0
100
AcDbBlockEnd
  0
BLOCK
  5
1C
330
1B
100
AcDbEntity
 67
     1
  8
0
100
AcDbBlockBegin
  2
*Paper_Space
 70
     0
 10
0.0
 20
0.0
 30
0.0
  3
*Paper_Space
  1

  0
ENDBLK
  5
1D
330
1B
100
AcDbEntity
 67
     1
  8
0
100
AcDbBlockEnd
  0
BLOCK
  5
24
330
23
100
AcDbEntity
  8
0
100
AcDbBlockBegin
  2
*Paper_Space0
 70
     0
 10
0.0
 20
0.0
 30
0.0
  3
*Paper_Space0
  1

  0
ENDBLK
  5
25
330
23
100
AcDbEntity
  8
0
100
AcDbBlockEnd
  0
ENDSEC
  0
SECTION
  2
ENTITIES
  0
SPLINE
  5
41
330
1F
100
AcDbEntity
  8
Layer 1
370
     0
100
AcDbSpline
210
0.0
220
0.0
230
1.0
 70
    11
 71
     3
 72
   101
 73
    97
 74
     0
 42
0.0000000001
 43
0.0000000001
 12
1.0
 22
0.0
 32
0.0
 13
1.0
 23
0.0
 33
0.0
 40
0.0
 40
0.0
 40
0.0
 40
0.0
 40
1.0
 40
1.0
 40
1.0
 40
2.0
 40
2.0
 40
2.0
 40
3.0
 40
3.0
 40
3.0
 40
4.0
 40
4.0
 40
4.0
 40
5.0
 40
5.0
 40
5.0
 40
6.0
 40
6.0
 40
6.0
 40
7.0
 40
7.0
 40
7.0
 40
8.0
 40
8.0
 40
8.0
 40
9.0
 40
9.0
 40
9.0
 40
10.0
 40
10.0
 40
10.0
 40
11.0
 40
11.0
 40
11.0
 40
12.0
 40
12.0
 40
12.0
 40
13.0
 40
13.0
 40
13.0
 40
14.0
 40
14.0
 40
14.0
 40
15.0
 40
15.0
 40
15.0
 40
16.0
 40
16.0
 40
16.0
 40
17.0
 40
17.0
 40
17.0
 40
18.0
 40
18.0
 40
18.0
 40
19.0
 40
19.0
 40
19.0
 40
20.0
 40
20.0
 40
20.0
 40
21.0
 40
21.0
 40
21.0
 40
22.0
 40
22.0
 40
22.0
 40
23.0
 40
23.0
 40
23.0
 40
24.0
 40
24.0
 40
24.0
 40
25.0
 40
25.0
 40
25.0
 40
26.0
 40
26.0
 40
26.0
 40
27.0
 40
27.0
 40
27.0
 40
28.0
 40
28.0
 40
28.0
 40
29.0
 40
29.0
 40
29.0
 40
30.0
 40
30.0
 40
30.0
 40
31.0
 40
31.0
 40
31.0
 40
32.0
 40
32.0
 40
32.0
 40
32.0
 10
24.20433055555557
 20
-18.1080875
 30
0.0
 10
24.20433055555557
 20
-18.1080875
 30
0.0
 10
20.58213749999999
 20
-17.6121138888889
 30
0.0
 10
20.58213749999999
 20
-17.6121138888889
 30
0.0
 10
20.52617222222223
 20
-17.40260694444444
 30
0.0
 10
20.44266249999999
 20
-17.2044875
 30
0.0
 10
20.33597361111111
 20
-17.02142777777778
 30
0.0
 10
20.33597361111111
 20
-17.02142777777778
 30
0.0
 10
22.43169444444445
 20
-13.99385555555556
 30
0.0
 10
22.43169444444445
 20
-13.99385555555556
 30
0.0
 10
22.46127916666667
 20
-13.95113333333333
 30
0.0
 10
22.40791527777777
 20
-13.90005694444445
 30
0.0
 10
22.36652638888889
 20
-13.93148472222222
 30
0.0
 10
22.36652638888889
 20
-13.93148472222222
 30
0.0
 10
19.45416666666668
 20
-16.14235138888888
 30
0.0
 10
19.45416666666668
 20
-16.14235138888888
 30
0.0
 10
19.27077916666667
 20
-16.03621249999999
 30
0.0
 10
19.07243611111112
 20
-15.95317361111111
 30
0.0
 10
18.86269444444444
 20
-15.89784861111111
 30
0.0
 10
18.86269444444444
 20
-15.89784861111111
 30
0.0
 10
18.20389722222222
 20
-12.27571944444445
 30
0.0
 10
18.20389722222222
 20
-12.27571944444445
 30
0.0
 10
18.19459027777778
 20
-12.22459166666667
 30
0.0
 10
18.12072777777778
 20
-12.2262125
 30
0.0
 10
18.11369444444444
 20
-12.27769444444444
 30
0.0
 10
18.11369444444444
 20
-12.27769444444444
 30
0.0
 10
17.61773333333334
 20
-15.8998875
 30
0.0
 10
17.61773333333334
 20
-15.8998875
 30
0.0
 10
17.40822777777777
 20
-15.95586666666667
 30
0.0
 10
17.21008055555555
 20
-16.0393625
 30
0.0
 10
17.02703333333333
 20
-16.14606388888889
 30
0.0
 10
17.02703333333333
 20
-16.14606388888889
 30
0.0
 10
13.9994625
 20
-14.05031666666667
 30
0.0
 10
13.9994625
 20
-14.05031666666667
 30
0.0
 10
13.95674027777778
 20
-14.02074583333333
 30
0.0
 10
13.90566388888889
 20
-14.07410972222222
 30
0.0
 10
13.93707777777778
 20
-14.11549861111111
 30
0.0
 10
13.93707777777778
 20
-14.11549861111111
 30
0.0
 10
16.14795833333334
 20
-17.02787222222222
 30
0.0
 10
16.14795833333334
 20
-17.02787222222222
 30
0.0
 10
16.04181944444445
 20
-17.21125972222222
 30
0.0
 10
15.95876666666667
 20
-17.40961527777777
 30
0.0
 10
15.90344166666667
 20
-17.61933055555556
 30
0.0
 10
15.90344166666667
 20
-17.61933055555556
 30
0.0
 10
12.28132607863649
 20
-18.27815416666666
 30
0.0
 10
12.28132607863649
 20
-18.27815416666666
 30
0.0
 10
12.23018441326177
 20
-18.28743611111112
 30
0.0
 10
12.23180663544301
 20
-18.36129722222222
 30
0.0
 10
12.28330107858659
 20
-18.36835694444443
 30
0.0
 10
12.28330107858659
 20
-18.36835694444443
 30
0.0
 10
15.90550694444444
 20
-18.86430416666667
 30
0.0
 10
15.90550694444444
 20
-18.86430416666667
 30
0.0
 10
15.96147222222223
 20
-19.07382361111111
 30
0.0
 10
16.04498194444444
 20
-19.27194444444444
 30
0.0
 10
16.15165833333333
 20
-19.45500416666667
 30
0.0
 10
16.15165833333333
 20
-19.45500416666667
 30
0.0
 10
14.0559375
 20
-22.48256388888889
 30
0.0
 10
14.0559375
 20
-22.48256388888889
 30
0.0
 10
14.02635277777777
 20
-22.52529861111111
 30
0.0
 10
14.07971666666666
 20
-22.576375
 30
0.0
 10
14.12111805555556
 20
-22.54494722222221
 30
0.0
 10
14.12111805555556
 20
-22.54494722222221
 30
0.0
 10
17.03349166666667
 20
-20.33406666666666
 30
0.0
 10
17.03349166666667
 20
-20.33406666666666
 30
0.0
 10
17.21685277777778
 20
-20.44019305555556
 30
0.0
 10
17.41520833333334
 20
-20.52327222222223
 30
0.0
 10
17.62495
 20
-20.57857083333334
 30
0.0
 10
17.62495
 20
-20.57857083333334
 30
0.0
 10
18.28374722222222
 20
-24.2007111111111
 30
0.0
 10
18.28374722222222
 20
-24.2007111111111
 30
0.0
 10
18.29304166666667
 20
-24.25182638888888
 30
0.0
 10
18.36690416666668
 20
-24.25021944444443
 30
0.0
 10
18.37395
 20
-24.1987375
 30
0.0
 10
18.37395
 20
-24.1987375
 30
0.0
 10
18.86991111111113
 20
-20.57653055555556
 30
0.0
 10
18.86991111111113
 20
-20.57653055555556
 30
0.0
 10
19.07941805555555
 20
-20.52056527777778
 30
0.0
 10
19.2775375
 20
-20.43706944444443
 30
0.0
 10
19.46059861111111
 20
-20.33035416666667
 30
0.0
 10
19.46059861111111
 20
-20.33035416666667
 30
0.0
 10
22.48816944444444
 20
-22.42610138888888
 30
0.0
 10
22.48816944444444
 20
-22.42610138888888
 30
0.0
 10
22.53090555555557
 20
-22.45568472222221
 30
0.0
 10
22.58198055555555
 20
-22.40232222222224
 30
0.0
 10
22.55055416666667
 20
-22.36091944444443
 30
0.0
 10
22.55055416666667
 20
-22.36091944444443
 30
0.0
 10
20.3396875
 20
-19.44854583333333
 30
0.0
 10
20.3396875
 20
-19.44854583333333
 30
0.0
 10
20.4458125
 20
-19.26517222222222
 30
0.0
 10
20.52886527777779
 20
-19.06683055555555
 30
0.0
 10
20.58419027777778
 20
-18.85708750000001
 30
0.0
 10
20.58419027777778
 20
-18.85708750000001
 30
0.0
 10
24.20630555555555
 20
-18.19827777777778
 30
0.0
 10
24.20630555555555
 20
-18.19827777777778
 30
0.0
 10
24.25744722222223
 20
-18.18898333333333
 30
0.0
 10
24.25581249999999
 20
-18.11513472222223
 30
0.0
 10
24.20433055555557
 20
-18.1080875
 30
0.0
  0
SPLINE
  5
42
330
1F
100
AcDbEntity
  8
Layer 1
370
     0
100
AcDbSpline
210
0.0
220
0.0
230
1.0
 70
    11
 71
     3
 72
    26
 73
    22
 74
     0
 42
0.0000000001
 43
0.0000000001
 12
1.0
 22
0.0
 32
0.0
 13
1.0
 23
0.0
 33
0.0
 40
0.0
 40
0.0
 40
0.0
 40
0.0
 40
1.0
 40
1.0
 40
1.0
 40
2.0
 40
2.0
 40
2.0
 40
3.0
 40
3.0
 40
3.0
 40
4.0
 40
4.0
 40
4.0
 40
5.0
 40
5.0
 40
5.0
 40
6.0
 40
6.0
 40
6.0
 40
7.0
 40
7.0
 40
7.0
 40
7.0
 10
14.11434722222222
 20
-18.35056527777778
 30
0.0
 10
14.07090555555556
 20
-18.35056527777778
 30
0.0
 10
14.03551666666667
 20
-18.31518888888889
 30
0.0
 10
14.03551666666667
 20
-18.27173472222221
 30
0.0
 10
14.03551666666667
 20
-18.22829305555556
 30
0.0
 10
14.07090555555556
 20
-18.19297083333333
 30
0.0
 10
14.11434722222222
 20
-18.19297083333333
 30
0.0
 10
14.11434722222222
 20
-18.19297083333333
 30
0.0
 10
15.85249722222223
 20
-18.19297083333333
 30
0.0
 10
15.85249722222223
 20
-18.19297083333333
 30
0.0
 10
15.85249722222223
 20
-18.19297083333333
 30
0.0
 10
15.85176527777778
 20
-18.23820277777778
 30
0.0
 10
15.85176527777778
 20
-18.23820277777778
 30
0.0
 10
15.85176527777778
 20
-18.26149861111111
 30
0.0
 10
15.85260138888889
 20
-18.28453333333333
 30
0.0
 10
15.85338611111111
 20
-18.30761944444445
 30
0.0
 10
15.85338611111111
 20
-18.30761944444445
 30
0.0
 10
15.85488888888888
 20
-18.35056527777778
 30
0.0
 10
15.85488888888888
 20
-18.35056527777778
 30
0.0
 10
15.85488888888888
 20
-18.35056527777778
 30
0.0
 10
14.11434722222222
 20
-18.35056527777778
 30
0.0
 10
14.11434722222222
 20
-18.35056527777778
 30
0.0
  0
SPLINE
  5
43
330
1F
100
AcDbEntity
  8
Layer 1
370
     0
100
AcDbSpline
210
0.0
220
0.0
230
1.0
 70
    11
 71
     3
 72
    29
 73
    25
 74
     0
 42
0.0000000001
 43
0.0000000001
 12
1.0
 22
0.0
 32
0.0
 13
1.0
 23
0.0
 33
0.0
 40
0.0
 40
0.0
 40
0.0
 40
0.0
 40
1.0
 40
1.0
 40
1.0
 40
2.0
 40
2.0
 40
2.0
 40
3.0
 40
3.0
 40
3.0
 40
4.0
 40
4.0
 40
4.0
 40
5.0
 40
5.0
 40
5.0
 40
6.0
 40
6.0
 40
6.0
 40
7.0
 40
7.0
 40
7.0
 40
8.0
 40
8.0
 40
8.0
 40
8.0
 10
15.24437083333333
 20
-15.39766527777778
 30
0.0
 10
15.22946805555556
 20
-15.3827625
 30
0.0
 10
15.22128333333333
 20
-15.36300833333333
 30
0.0
 10
15.22128333333333
 20
-15.3419361111111
 30
0.0
 10
15.22133611111111
 20
-15.32084861111111
 30
0.0
 10
15.22951944444445
 20
-15.30109583333333
 30
0.0
 10
15.24442222222222
 20
-15.28619305555556
 30
0.0
 10
15.274125
 20
-15.25659583333334
 30
0.0
 10
15.32608888888889
 20
-15.25654305555555
 30
0.0
 10
15.35579166666667
 20
-15.28624444444444
 30
0.0
 10
15.35579166666667
 20
-15.28624444444444
 30
0.0
 10
16.58482916666667
 20
-16.51523055555555
 30
0.0
 10
16.58482916666667
 20
-16.51523055555555
 30
0.0
 10
16.58482916666667
 20
-16.51523055555555
 30
0.0
 10
16.56435694444445
 20
-16.53537638888888
 30
0.0
 10
16.56435694444445
 20
-16.53537638888888
 30
0.0
 10
16.54072083333333
 20
-16.55868472222222
 30
0.0
 10
16.51780416666666
 20
-16.58254305555556
 30
0.0
 10
16.4951625
 20
-16.60679305555555
 30
0.0
 10
16.4951625
 20
-16.60679305555555
 30
0.0
 10
16.47508194444444
 20
-16.628325
 30
0.0
 10
16.47508194444444
 20
-16.628325
 30
0.0
 10
16.47508194444444
 20
-16.628325
 30
0.0
 10
15.24437083333333
 20
-15.39766527777778
 30
0.0
 10
15.24437083333333
 20
-15.39766527777778
 30
0.0
  0
SPLINE
  5
44
330
1F
100
AcDbEntity
  8
Layer 1
370
     0
100
AcDbSpline
210
0.0
220
0.0
230
1.0
 70
    11
 71
     3
 72
    26
 73
    22
 74
     0
 42
0.0000000001
 43
0.0000000001
 12
1.0
 22
0.0
 32
0.0
 13
1.0
 23
0.0
 33
0.0
 40
0.0
 40
0.0
 40
0.0
 40
0.0
 40
1.0
 40
1.0
 40
1.0
 40
2.0
 40
2.0
 40
2.0
 40
3.0
 40
3.0
 40
3.0
 40
4.0
 40
4.0
 40
4.0
 40
5.0
 40
5.0
 40
5.0
 40
6.0
 40
6.0
 40
6.0
 40
7.0
 40
7.0
 40
7.0
 40
7.0
 10
16.09842500000001
 20
-18.23813749999999
 30
0.0
 10
16.09903888888889
 20
-18.13100416666667
 30
0.0
 10
16.18614444444444
 20
-18.04333750000001
 30
0.0
 10
16.29262361111111
 20
-18.04265833333333
 30
0.0
 10
16.34129305555555
 20
-18.04210833333333
 30
0.0
 10
16.39375555555556
 20
-18.06335277777778
 30
0.0
 10
16.43058194444445
 20
-18.10034861111111
 30
0.0
 10
16.46785277777778
 20
-18.13773749999999
 30
0.0
 10
16.48810277777778
 20
-18.18663055555555
 30
0.0
 10
16.48759305555556
 20
-18.23803333333333
 30
0.0
 10
16.48648194444445
 20
-18.34355694444444
 30
0.0
 10
16.39691944444444
 20
-18.43317222222223
 30
0.0
 10
16.29206111111111
 20
-18.4337875
 30
0.0
 10
16.29166805555556
 20
-18.4337875
 30
0.0
 10
16.29134166666666
 20
-18.4337875
 30
0.0
 10
16.29100138888889
 20
-18.4337875
 30
0.0
 10
16.23993888888889
 20
-18.4337875
 30
0.0
 10
16.19188333333333
 20
-18.41381111111112
 30
0.0
 10
16.15550138888889
 20
-18.37742916666667
 30
0.0
 10
16.1184
 20
-18.3402763888889
 30
0.0
 10
16.09808472222222
 20
-18.29082083333333
 30
0.0
 10
16.09842500000001
 20
-18.23813749999999
 30
0.0
  0
SPLINE
  5
45
330
1F
100
AcDbEntity
  8
Layer 1
370
     0
100
AcDbSpline
210
0.0
220
0.0
230
1.0
 70
    11
 71
     3
 72
    29
 73
    25
 74
     0
 42
0.0000000001
 43
0.0000000001
 12
1.0
 22
0.0
 32
0.0
 13
1.0
 23
0.0
 33
0.0
 40
0.0
 40
0.0
 40
0.0
 40
0.0
 40
1.0
 40
1.0
 40
1.0
 40
2.0
 40
2.0
 40
2.0
 40
3.0
 40
3.0
 40
3.0
 40
4.0
 40
4.0
 40
4.0
 40
5.0
 40
5.0
 40
5.0
 40
6.0
 40
6.0
 40
6.0
 40
7.0
 40
7.0
 40
7.0
 40
8.0
 40
8.0
 40
8.0
 40
8.0
 10
15.40324583333333
 20
-21.23765416666667
 30
0.0
 10
15.38788472222222
 20
-21.25300277777779
 30
0.0
 10
15.3677
 20
-21.2606763888889
 30
0.0
 10
15.34750277777778
 20
-21.2606763888889
 30
0.0
 10
15.32737083333333
 20
-21.2606763888889
 30
0.0
 10
15.30717222222222
 20
-21.25300277777779
 30
0.0
 10
15.291825
 20
-21.23765416666667
 30
0.0
 10
15.26111666666667
 20
-21.20694583333334
 30
0.0
 10
15.26111666666667
 20
-21.15692916666666
 30
0.0
 10
15.291825
 20
-21.12622083333334
 30
0.0
 10
15.291825
 20
-21.12622083333334
 30
0.0
 10
16.52086388888889
 20
-19.89718333333333
 30
0.0
 10
16.52086388888889
 20
-19.89718333333333
 30
0.0
 10
16.52086388888889
 20
-19.89718333333333
 30
0.0
 10
16.54099583333333
 20
-19.91765555555556
 30
0.0
 10
16.54099583333333
 20
-19.91765555555556
 30
0.0
 10
16.56425277777779
 20
-19.94130416666667
 30
0.0
 10
16.58810972222222
 20
-19.96422083333333
 30
0.0
 10
16.61237361111111
 20
-19.9867986111111
 30
0.0
 10
16.61237361111111
 20
-19.9867986111111
 30
0.0
 10
16.63395694444445
 20
-20.00694305555556
 30
0.0
 10
16.63395694444445
 20
-20.00694305555556
 30
0.0
 10
16.63395694444445
 20
-20.00694305555556
 30
0.0
 10
15.40324583333333
 20
-21.23765416666667
 30
0.0
 10
15.40324583333333
 20
-21.23765416666667
 30
0.0
  0
SPLINE
  5
46
330
1F
100
AcDbEntity
  8
Layer 1
370
     0
100
AcDbSpline
210
0.0
220
0.0
230
1.0
 70
    11
 71
     3
 72
    29
 73
    25
 74
     0
 42
0.0000000001
 43
0.0000000001
 12
1.0
 22
0.0
 32
0.0
 13
1.0
 23
0.0
 33
0.0
 40
0.0
 40
0.0
 40
0.0
 40
0.0
 40
1.0
 40
1.0
 40
1.0
 40
2.0
 40
2.0
 40
2.0
 40
3.0
 40
3.0
 40
3.0
 40
4.0
 40
4.0
 40
4.0
 40
5.0
 40
5.0
 40
5.0
 40
6.0
 40
6.0
 40
6.0
 40
7.0
 40
7.0
 40
7.0
 40
8.0
 40
8.0
 40
8.0
 40
8.0
 10
17.00198611111111
 20
-19.75660972222221
 30
0.0
 10
16.96587916666667
 20
-19.7931625
 30
0.0
 10
16.91748333333333
 20
-19.81329444444443
 30
0.0
 10
16.86570138888889
 20
-19.81329444444443
 30
0.0
 10
16.86570138888889
 20
-19.81329444444443
 30
0.0
 10
16.86570138888889
 20
-19.81329444444443
 30
0.0
 10
16.86564861111111
 20
-19.81329444444443
 30
0.0
 10
16.81313472222223
 20
-19.81329444444443
 30
0.0
 10
16.76378472222223
 20
-19.79266527777779
 30
0.0
 10
16.72673611111111
 20
-19.7552236111111
 30
0.0
 10
16.65137083333333
 20
-19.67907499999999
 30
0.0
 10
16.65097777777778
 20
-19.55546944444444
 30
0.0
 10
16.72584722222223
 20
-19.47958194444444
 30
0.0
 10
16.76145694444444
 20
-19.4435388888889
 30
0.0
 10
16.81173611111111
 20
-19.42284444444443
 30
0.0
 10
16.86375277777778
 20
-19.42284444444443
 30
0.0
 10
16.86385694444445
 20
-19.42284444444443
 30
0.0
 10
16.86402777777778
 20
-19.42284444444443
 30
0.0
 10
16.86414583333333
 20
-19.42284444444443
 30
0.0
 10
16.91698611111111
 20
-19.42296249999999
 30
0.0
 10
16.96582638888889
 20
-19.44326527777778
 30
0.0
 10
17.00181666666666
 20
-19.47997361111111
 30
0.0
 10
17.07569166666667
 20
-19.55530000000001
 30
0.0
 10
17.07580833333333
 20
-19.68201527777779
 30
0.0
 10
17.00198611111111
 20
-19.75660972222221
 30
0.0
  0
SPLINE
  5
47
330
1F
100
AcDbEntity
  8
Layer 1
370
     0
100
AcDbSpline
210
0.0
220
0.0
230
1.0
 70
    11
 71
     3
 72
    26
 73
    22
 74
     0
 42
0.0000000001
 43
0.0000000001
 12
1.0
 22
0.0
 32
0.0
 13
1.0
 23
0.0
 33
0.0
 40
0.0
 40
0.0
 40
0.0
 40
0.0
 40
1.0
 40
1.0
 40
1.0
 40
2.0
 40
2.0
 40
2.0
 40
3.0
 40
3.0
 40
3.0
 40
4.0
 40
4.0
 40
4.0
 40
5.0
 40
5.0
 40
5.0
 40
6.0
 40
6.0
 40
6.0
 40
7.0
 40
7.0
 40
7.0
 40
7.0
 10
17.00210416666667
 20
-16.99624861111111
 30
0.0
 10
16.96438888888888
 20
-17.03317916666666
 30
0.0
 10
16.91382222222223
 20
-17.05165138888889
 30
0.0
 10
16.86336111111111
 20
-17.05165138888889
 30
0.0
 10
16.81296527777777
 20
-17.05165138888889
 30
0.0
 10
16.76267361111111
 20
-17.03324444444445
 30
0.0
 10
16.72540277777778
 20
-16.99636666666667
 30
0.0
 10
16.68886388888889
 20
-16.96020694444444
 30
0.0
 10
16.66871805555555
 20
-16.91181111111112
 30
0.0
 10
16.66871805555555
 20
-16.86006805555555
 30
0.0
 10
16.66871805555555
 20
-16.80750138888889
 30
0.0
 10
16.68935972222222
 20
-16.75816527777778
 30
0.0
 10
16.72685277777777
 20
-16.72111666666667
 30
0.0
 10
16.80295138888889
 20
-16.64579027777778
 30
0.0
 10
16.92655555555555
 20
-16.64539722222222
 30
0.0
 10
17.00243055555556
 20
-16.72027916666666
 30
0.0
 10
17.03859027777778
 20
-16.75599444444444
 30
0.0
 10
17.05928472222222
 20
-16.80639027777777
 30
0.0
 10
17.05916666666667
 20
-16.85856527777778
 30
0.0
 10
17.05906250000001
 20
-16.91136666666667
 30
0.0
 10
17.0388125
 20
-16.96025833333334
 30
0.0
 10
17.00210416666667
 20
-16.99624861111111
 30
0.0
  0
SPLINE
  5
48
330
1F
100
AcDbEntity
  8
Layer 1
370
     0
100
AcDbSpline
210
0.0
220
0.0
230
1.0
 70
    11
 71
     3
 72
    26
 73
    22
 74
     0
 42
0.0000000001
 43
0.0000000001
 12
1.0
 22
0.0
 32
0.0
 13
1.0
 23
0.0
 33
0.0
 40
0.0
 40
0.0
 40
0.0
 40
0.0
 40
1.0
 40
1.0
 40
1.0
 40
2.0
 40
2.0
 40
2.0
 40
3.0
 40
3.0
 40
3.0
 40
4.0
 40
4.0
 40
4.0
 40
5.0
 40
5.0
 40
5.0
 40
6.0
 40
6.0
 40
6.0
 40
7.0
 40
7.0
 40
7.0
 40
7.0
 10
18.13146111111112
 20
-14.10871388888889
 30
0.0
 10
18.13146111111112
 20
-14.06527222222222
 30
0.0
 10
18.16683611111111
 20
-14.02995
 30
0.0
 10
18.21027777777778
 20
-14.02995
 30
0.0
 10
18.25371805555556
 20
-14.02995
 30
0.0
 10
18.28905416666667
 20
-14.06527222222222
 30
0.0
 10
18.28905416666667
 20
-14.10871388888889
 30
0.0
 10
18.28905416666667
 20
-14.10871388888889
 30
0.0
 10
18.28905416666667
 20
-15.8468638888889
 30
0.0
 10
18.28905416666667
 20
-15.8468638888889
 30
0.0
 10
18.28905416666667
 20
-15.8468638888889
 30
0.0
 10
18.24382222222222
 20
-15.84614444444444
 30
0.0
 10
18.24382222222222
 20
-15.84614444444444
 30
0.0
 10
18.21957222222222
 20
-15.84614444444444
 30
0.0
 10
18.19559583333334
 20
-15.84703472222222
 30
0.0
 10
18.17156805555555
 20
-15.84792361111111
 30
0.0
 10
18.17156805555555
 20
-15.84792361111111
 30
0.0
 10
18.13146111111112
 20
-15.8493736111111
 30
0.0
 10
18.13146111111112
 20
-15.8493736111111
 30
0.0
 10
18.13146111111112
 20
-15.8493736111111
 30
0.0
 10
18.13146111111112
 20
-14.10871388888889
 30
0.0
 10
18.13146111111112
 20
-14.10871388888889
 30
0.0
  0
SPLINE
  5
49
330
1F
100
AcDbEntity
  8
Layer 1
370
     0
100
AcDbSpline
210
0.0
220
0.0
230
1.0
 70
    11
 71
     3
 72
    26
 73
    22
 74
     0
 42
0.0000000001
 43
0.0000000001
 12
1.0
 22
0.0
 32
0.0
 13
1.0
 23
0.0
 33
0.0
 40
0.0
 40
0.0
 40
0.0
 40
0.0
 40
1.0
 40
1.0
 40
1.0
 40
2.0
 40
2.0
 40
2.0
 40
3.0
 40
3.0
 40
3.0
 40
4.0
 40
4.0
 40
4.0
 40
5.0
 40
5.0
 40
5.0
 40
6.0
 40
6.0
 40
6.0
 40
7.0
 40
7.0
 40
7.0
 40
7.0
 10
18.35613194444444
 20
-22.36773055555555
 30
0.0
 10
18.35613194444444
 20
-22.41117222222222
 30
0.0
 10
18.32080833333334
 20
-22.44649444444445
 30
0.0
 10
18.27736805555555
 20
-22.44649444444445
 30
0.0
 10
18.23392638888889
 20
-22.44649444444445
 30
0.0
 10
18.1985375
 20
-22.41117222222222
 30
0.0
 10
18.1985375
 20
-22.36773055555555
 30
0.0
 10
18.1985375
 20
-22.36773055555555
 30
0.0
 10
18.1985375
 20
-20.62985555555555
 30
0.0
 10
18.1985375
 20
-20.62985555555555
 30
0.0
 10
18.1985375
 20
-20.62985555555555
 30
0.0
 10
18.24382222222222
 20
-20.63024722222222
 30
0.0
 10
18.24382222222222
 20
-20.63024722222222
 30
0.0
 10
18.26713194444445
 20
-20.63024722222222
 30
0.0
 10
18.29021805555557
 20
-20.62941111111111
 30
0.0
 10
18.31335694444445
 20
-20.6286388888889
 30
0.0
 10
18.31335694444445
 20
-20.6286388888889
 30
0.0
 10
18.35613194444444
 20
-20.62713611111111
 30
0.0
 10
18.35613194444444
 20
-20.62713611111111
 30
0.0
 10
18.35613194444444
 20
-20.62713611111111
 30
0.0
 10
18.35613194444444
 20
-22.36773055555555
 30
0.0
 10
18.35613194444444
 20
-22.36773055555555
 30
0.0
  0
SPLINE
  5
4A
330
1F
100
AcDbEntity
  8
Layer 1
370
     0
100
AcDbSpline
210
0.0
220
0.0
230
1.0
 70
    11
 71
     3
 72
    29
 73
    25
 74
     0
 42
0.0000000001
 43
0.0000000001
 12
1.0
 22
0.0
 32
0.0
 13
1.0
 23
0.0
 33
0.0
 40
0.0
 40
0.0
 40
0.0
 40
0.0
 40
1.0
 40
1.0
 40
1.0
 40
2.0
 40
2.0
 40
2.0
 40
3.0
 40
3.0
 40
3.0
 40
4.0
 40
4.0
 40
4.0
 40
5.0
 40
5.0
 40
5.0
 40
6.0
 40
6.0
 40
6.0
 40
7.0
 40
7.0
 40
7.0
 40
8.0
 40
8.0
 40
8.0
 40
8.0
 10
18.38300972222222
 20
-20.32652361111112
 30
0.0
 10
18.34611805555556
 20
-20.36340277777776
 30
0.0
 10
18.29712083333334
 20
-20.38365277777777
 30
0.0
 10
18.24482916666667
 20
-20.38365277777777
 30
0.0
 10
18.2444375
 20
-20.38365277777777
 30
0.0
 10
18.24409722222222
 20
-20.38365277777777
 30
0.0
 10
18.24371805555555
 20
-20.38365277777777
 30
0.0
 10
18.13662499999999
 20
-20.38303888888888
 30
0.0
 10
18.04895694444445
 20
-20.29592083333333
 30
0.0
 10
18.04823888888889
 20
-20.18940277777779
 30
0.0
 10
18.04789861111111
 20
-20.13854861111112
 30
0.0
 10
18.06898472222223
 20
-20.08826944444445
 30
0.0
 10
18.10591666666667
 20
-20.05144305555556
 30
0.0
 10
18.14285972222222
 20
-20.01466944444445
 30
0.0
 10
18.19098194444445
 20
-19.99448472222222
 30
0.0
 10
18.2416
 20
-19.99448472222222
 30
0.0
 10
18.24226666666666
 20
-19.99448472222222
 30
0.0
 10
18.24293333333334
 20
-19.99448472222222
 30
0.0
 10
18.2436
 20
-19.99448472222222
 30
0.0
 10
18.34917777777779
 20
-19.99553055555556
 30
0.0
 10
18.43885694444445
 20
-20.08504166666666
 30
0.0
 10
18.43935416666666
 20
-20.18995138888888
 30
0.0
 10
18.43962916666667
 20
-20.24140694444443
 30
0.0
 10
18.4196013888889
 20
-20.28986805555554
 30
0.0
 10
18.38300972222222
 20
-20.32652361111112
 30
0.0
  0
SPLINE
  5
4B
330
1F
100
AcDbEntity
  8
Layer 1
370
     0
100
AcDbSpline
210
0.0
220
0.0
230
1.0
 70
    11
 71
     3
 72
    29
 73
    25
 74
     0
 42
0.0000000001
 43
0.0000000001
 12
1.0
 22
0.0
 32
0.0
 13
1.0
 23
0.0
 33
0.0
 40
0.0
 40
0.0
 40
0.0
 40
0.0
 40
1.0
 40
1.0
 40
1.0
 40
2.0
 40
2.0
 40
2.0
 40
3.0
 40
3.0
 40
3.0
 40
4.0
 40
4.0
 40
4.0
 40
5.0
 40
5.0
 40
5.0
 40
6.0
 40
6.0
 40
6.0
 40
7.0
 40
7.0
 40
7.0
 40
8.0
 40
8.0
 40
8.0
 40
8.0
 10
18.38178055555555
 20
-16.42489722222222
 30
0.0
 10
18.34483750000001
 20
-16.461775
 30
0.0
 10
18.29661111111111
 20
-16.48197361111112
 30
0.0
 10
18.24587499999999
 20
-16.48197361111112
 30
0.0
 10
18.24520833333333
 20
-16.48197361111112
 30
0.0
 10
18.24460694444445
 20
-16.48197361111112
 30
0.0
 10
18.24399305555556
 20
-16.48197361111112
 30
0.0
 10
18.13846805555555
 20
-16.48091388888889
 30
0.0
 10
18.04885277777777
 20
-16.39135138888889
 30
0.0
 10
18.04823888888889
 20
-16.28644166666667
 30
0.0
 10
18.04796388888889
 20
-16.23503888888889
 30
0.0
 10
18.06792638888889
 20
-16.18659027777778
 30
0.0
 10
18.10453055555556
 20
-16.14998611111111
 30
0.0
 10
18.14146111111111
 20
-16.11310694444445
 30
0.0
 10
18.1905375
 20
-16.09279166666667
 30
0.0
 10
18.24281527777778
 20
-16.09279166666667
 30
0.0
 10
18.24320833333334
 20
-16.09279166666667
 30
0.0
 10
18.24354861111111
 20
-16.09279166666667
 30
0.0
 10
18.24394027777779
 20
-16.09279166666667
 30
0.0
 10
18.35102083333332
 20
-16.09340694444445
 30
0.0
 10
18.43868750000001
 20
-16.180525
 30
0.0
 10
18.43935416666666
 20
-16.28705555555555
 30
0.0
 10
18.43969444444443
 20
-16.33784444444445
 30
0.0
 10
18.41871250000001
 20
-16.38806944444444
 30
0.0
 10
18.38178055555555
 20
-16.42489722222222
 30
0.0
  0
SPLINE
  5
4C
330
1F
100
AcDbEntity
  8
Layer 1
370
     0
100
AcDbSpline
210
0.0
220
0.0
230
1.0
 70
    11
 71
     3
 72
    23
 73
    19
 74
     0
 42
0.0000000001
 43
0.0000000001
 12
1.0
 22
0.0
 32
0.0
 13
1.0
 23
0.0
 33
0.0
 40
0.0
 40
0.0
 40
0.0
 40
0.0
 40
1.0
 40
1.0
 40
1.0
 40
2.0
 40
2.0
 40
2.0
 40
3.0
 40
3.0
 40
3.0
 40
4.0
 40
4.0
 40
4.0
 40
5.0
 40
5.0
 40
5.0
 40
6.0
 40
6.0
 40
6.0
 40
6.0
 10
19.48565833333333
 20
-16.71983472222222
 30
0.0
 10
19.55852777777778
 20
-16.64623472222222
 30
0.0
 10
19.68730833333332
 20
-16.6468486111111
 30
0.0
 10
19.76090972222222
 20
-16.72122083333333
 30
0.0
 10
19.83622222222223
 20
-16.79738333333333
 30
0.0
 10
19.83661527777778
 20
-16.9209875
 30
0.0
 10
19.76179861111111
 20
-16.99681111111111
 30
0.0
 10
19.72620138888889
 20
-17.03290555555555
 30
0.0
 10
19.67590972222221
 20
-17.0536
 30
0.0
 10
19.62389166666667
 20
-17.0536
 30
0.0
 10
19.62378750000001
 20
-17.0536
 30
0.0
 10
19.62366944444446
 20
-17.0536
 30
0.0
 10
19.6235
 20
-17.0536
 30
0.0
 10
19.57071111111112
 20
-17.05349444444444
 30
0.0
 10
19.52176666666666
 20
-17.03324444444445
 30
0.0
 10
19.48577638888888
 20
-16.99647083333333
 30
0.0
 10
19.41190138888889
 20
-16.92109305555555
 30
0.0
 10
19.41183611111112
 20
-16.79442916666667
 30
0.0
 10
19.48565833333333
 20
-16.71983472222222
 30
0.0
  0
SPLINE
  5
4D
330
1F
100
AcDbEntity
  8
Layer 1
370
     0
100
AcDbSpline
210
0.0
220
0.0
230
1.0
 70
    11
 71
     3
 72
    26
 73
    22
 74
     0
 42
0.0000000001
 43
0.0000000001
 12
1.0
 22
0.0
 32
0.0
 13
1.0
 23
0.0
 33
0.0
 40
0.0
 40
0.0
 40
0.0
 40
0.0
 40
1.0
 40
1.0
 40
1.0
 40
2.0
 40
2.0
 40
2.0
 40
3.0
 40
3.0
 40
3.0
 40
4.0
 40
4.0
 40
4.0
 40
5.0
 40
5.0
 40
5.0
 40
6.0
 40
6.0
 40
6.0
 40
7.0
 40
7.0
 40
7.0
 40
7.0
 10
19.76079166666667
 20
-19.75532916666667
 30
0.0
 10
19.72257916666667
 20
-19.7931625
 30
0.0
 10
19.67234027777777
 20
-19.81207777777778
 30
0.0
 10
19.62223194444444
 20
-19.81207777777778
 30
0.0
 10
19.57255416666668
 20
-19.81207777777778
 30
0.0
 10
19.52298194444443
 20
-19.7934361111111
 30
0.0
 10
19.48521388888889
 20
-19.75616527777778
 30
0.0
 10
19.44905416666668
 20
-19.72045
 30
0.0
 10
19.42835972222221
 20
-19.67005416666666
 30
0.0
 10
19.42847777777777
 20
-19.61788055555555
 30
0.0
 10
19.42858194444443
 20
-19.56509166666665
 30
0.0
 10
19.44883194444444
 20
-19.51618611111111
 30
0.0
 10
19.48555416666666
 20
-19.48019583333333
 30
0.0
 10
19.56091944444445
 20
-19.40621666666667
 30
0.0
 10
19.68758333333333
 20
-19.40616388888889
 30
0.0
 10
19.76219027777779
 20
-19.48002638888889
 30
0.0
 10
19.79879444444444
 20
-19.51625138888888
 30
0.0
 10
19.81887500000001
 20
-19.5647
 30
0.0
 10
19.81887500000001
 20
-19.61648194444446
 30
0.0
 10
19.81887500000001
 20
-19.66899583333333
 30
0.0
 10
19.79823194444445
 20
-19.71828055555557
 30
0.0
 10
19.76079166666667
 20
-19.75532916666667
 30
0.0
  0
SPLINE
  5
4E
330
1F
100
AcDbEntity
  8
Layer 1
370
     0
100
AcDbSpline
210
0.0
220
0.0
230
1.0
 70
    11
 71
     3
 72
    29
 73
    25
 74
     0
 42
0.0000000001
 43
0.0000000001
 12
1.0
 22
0.0
 32
0.0
 13
1.0
 23
0.0
 33
0.0
 40
0.0
 40
0.0
 40
0.0
 40
0.0
 40
1.0
 40
1.0
 40
1.0
 40
2.0
 40
2.0
 40
2.0
 40
3.0
 40
3.0
 40
3.0
 40
4.0
 40
4.0
 40
4.0
 40
5.0
 40
5.0
 40
5.0
 40
6.0
 40
6.0
 40
6.0
 40
7.0
 40
7.0
 40
7.0
 40
8.0
 40
8.0
 40
8.0
 40
8.0
 10
19.8536875
 20
-16.46951388888889
 30
0.0
 10
19.8536875
 20
-16.46951388888889
 30
0.0
 10
21.08434722222222
 20
-15.23873749999999
 30
0.0
 10
21.08434722222222
 20
-15.23873749999999
 30
0.0
 10
21.11515972222221
 20
-15.20814722222222
 30
0.0
 10
21.16505972222222
 20
-15.20809444444444
 30
0.0
 10
21.19576805555556
 20
-15.23880277777778
 30
0.0
 10
21.21068333333334
 20
-15.25365416666667
 30
0.0
 10
21.21890694444444
 20
-15.27345972222222
 30
0.0
 10
21.21890694444444
 20
-15.29453333333333
 30
0.0
 10
21.21890694444444
 20
-15.31556666666667
 30
0.0
 10
21.21068333333334
 20
-15.33537222222223
 30
0.0
 10
21.19576805555556
 20
-15.35027638888889
 30
0.0
 10
21.19576805555556
 20
-15.35027638888889
 30
0.0
 10
19.96678194444444
 20
-16.57920972222222
 30
0.0
 10
19.96678194444444
 20
-16.57920972222222
 30
0.0
 10
19.96678194444444
 20
-16.57920972222222
 30
0.0
 10
19.94665000000001
 20
-16.55873750000001
 30
0.0
 10
19.94665000000001
 20
-16.55873750000001
 30
0.0
 10
19.92339305555555
 20
-16.53520555555555
 30
0.0
 10
19.89953472222222
 20
-16.51223611111111
 30
0.0
 10
19.87527083333334
 20
-16.48964722222222
 30
0.0
 10
19.87527083333334
 20
-16.48964722222222
 30
0.0
 10
19.8536875
 20
-16.46951388888889
 30
0.0
 10
19.8536875
 20
-16.46951388888889
 30
0.0
  0
SPLINE
  5
4F
330
1F
100
AcDbEntity
  8
Layer 1
370
     0
100
AcDbSpline
210
0.0
220
0.0
230
1.0
 70
    11
 71
     3
 72
    29
 73
    25
 74
     0
 42
0.0000000001
 43
0.0000000001
 12
1.0
 22
0.0
 32
0.0
 13
1.0
 23
0.0
 33
0.0
 40
0.0
 40
0.0
 40
0.0
 40
0.0
 40
1.0
 40
1.0
 40
1.0
 40
2.0
 40
2.0
 40
2.0
 40
3.0
 40
3.0
 40
3.0
 40
4.0
 40
4.0
 40
4.0
 40
5.0
 40
5.0
 40
5.0
 40
6.0
 40
6.0
 40
6.0
 40
7.0
 40
7.0
 40
7.0
 40
8.0
 40
8.0
 40
8.0
 40
8.0
 10
21.24322222222223
 20
-21.07877916666666
 30
0.0
 10
21.27393055555556
 20
-21.10948750000001
 30
0.0
 10
21.27393055555556
 20
-21.15949166666665
 30
0.0
 10
21.24322222222223
 20
-21.1902
 30
0.0
 10
21.22787499999999
 20
-21.20554722222222
 30
0.0
 10
21.20767638888888
 20
-21.21323472222222
 30
0.0
 10
21.18747916666666
 20
-21.21323472222222
 30
0.0
 10
21.16734722222221
 20
-21.21323472222222
 30
0.0
 10
21.14714861111111
 20
-21.20554722222222
 30
0.0
 10
21.13180138888889
 20
-21.1902
 30
0.0
 10
21.13180138888889
 20
-21.1902
 30
0.0
 10
19.90286805555555
 20
-19.96126666666666
 30
0.0
 10
19.90286805555555
 20
-19.96126666666666
 30
0.0
 10
19.90286805555555
 20
-19.96126666666666
 30
0.0
 10
19.92322222222222
 20
-19.94113472222223
 30
0.0
 10
19.92322222222222
 20
-19.94113472222223
 30
0.0
 10
19.94681944444445
 20
-19.91782499999999
 30
0.0
 10
19.96984027777777
 20
-19.89385
 30
0.0
 10
19.99248333333334
 20
-19.86959861111111
 30
0.0
 10
19.99248333333334
 20
-19.86959861111111
 30
0.0
 10
20.0125625
 20
-19.84806805555556
 30
0.0
 10
20.0125625
 20
-19.84806805555556
 30
0.0
 10
20.0125625
 20
-19.84806805555556
 30
0.0
 10
21.24322222222223
 20
-21.07877916666666
 30
0.0
 10
21.24322222222223
 20
-21.07877916666666
 30
0.0
  0
SPLINE
  5
50
330
1F
100
AcDbEntity
  8
Layer 1
370
     0
100
AcDbSpline
210
0.0
220
0.0
230
1.0
 70
    11
 71
     3
 72
    29
 73
    25
 74
     0
 42
0.0000000001
 43
0.0000000001
 12
1.0
 22
0.0
 32
0.0
 13
1.0
 23
0.0
 33
0.0
 40
0.0
 40
0.0
 40
0.0
 40
0.0
 40
1.0
 40
1.0
 40
1.0
 40
2.0
 40
2.0
 40
2.0
 40
3.0
 40
3.0
 40
3.0
 40
4.0
 40
4.0
 40
4.0
 40
5.0
 40
5.0
 40
5.0
 40
6.0
 40
6.0
 40
6.0
 40
7.0
 40
7.0
 40
7.0
 40
8.0
 40
8.0
 40
8.0
 40
8.0
 10
20.19496944444444
 20
-18.4337875
 30
0.0
 10
20.19464305555556
 20
-18.4337875
 30
0.0
 10
20.19425000000001
 20
-18.4337875
 30
0.0
 10
20.19385833333333
 20
-18.4337875
 30
0.0
 10
20.14339722222222
 20
-18.4337875
 30
0.0
 10
20.09361527777777
 20
-18.41281805555557
 30
0.0
 10
20.05706388888888
 20
-18.37614861111112
 30
0.0
 10
20.01979305555556
 20
-18.33872083333333
 30
0.0
 10
19.99955555555556
 20
-18.28981527777778
 30
0.0
 10
20.00005277777778
 20
-18.23842500000001
 30
0.0
 10
20.00111111111111
 20
-18.1328875
 30
0.0
 10
20.09067361111111
 20
-18.04327222222222
 30
0.0
 10
20.19558472222221
 20
-18.04265833333333
 30
0.0
 10
20.19597638888889
 20
-18.04265833333333
 30
0.0
 10
20.19630277777777
 20
-18.04265833333333
 30
0.0
 10
20.19664305555554
 20
-18.04265833333333
 30
0.0
 10
20.24765416666666
 20
-18.04265833333333
 30
0.0
 10
20.29570972222223
 20
-18.06263333333334
 30
0.0
 10
20.3320388888889
 20
-18.0989625
 30
0.0
 10
20.36919305555557
 20
-18.13611666666667
 30
0.0
 10
20.38949444444446
 20
-18.18562361111112
 30
0.0
 10
20.38922083333333
 20
-18.23830694444445
 30
0.0
 10
20.38860555555556
 20
-18.34545277777778
 30
0.0
 10
20.30150138888888
 20
-18.43311944444445
 30
0.0
 10
20.19496944444444
 20
-18.4337875
 30
0.0
  0
SPLINE
  5
51
330
1F
100
AcDbEntity
  8
Layer 1
370
     0
100
AcDbSpline
210
0.0
220
0.0
230
1.0
 70
    11
 71
     3
 72
    26
 73
    22
 74
     0
 42
0.0000000001
 43
0.0000000001
 12
1.0
 22
0.0
 32
0.0
 13
1.0
 23
0.0
 33
0.0
 40
0.0
 40
0.0
 40
0.0
 40
0.0
 40
1.0
 40
1.0
 40
1.0
 40
2.0
 40
2.0
 40
2.0
 40
3.0
 40
3.0
 40
3.0
 40
4.0
 40
4.0
 40
4.0
 40
5.0
 40
5.0
 40
5.0
 40
6.0
 40
6.0
 40
6.0
 40
7.0
 40
7.0
 40
7.0
 40
7.0
 10
22.37329861111112
 20
-18.283475
 30
0.0
 10
22.37329861111112
 20
-18.283475
 30
0.0
 10
20.63514861111111
 20
-18.283475
 30
0.0
 10
20.63514861111111
 20
-18.283475
 30
0.0
 10
20.63514861111111
 20
-18.283475
 30
0.0
 10
20.63588055555556
 20
-18.23820277777778
 30
0.0
 10
20.63588055555556
 20
-18.23820277777778
 30
0.0
 10
20.63588055555556
 20
-18.21489444444445
 30
0.0
 10
20.63504305555555
 20
-18.19180694444444
 30
0.0
 10
20.63425972222222
 20
-18.16866805555555
 30
0.0
 10
20.63425972222222
 20
-18.16866805555555
 30
0.0
 10
20.63275555555555
 20
-18.12588055555555
 30
0.0
 10
20.63275555555555
 20
-18.12588055555555
 30
0.0
 10
20.63275555555555
 20
-18.12588055555555
 30
0.0
 10
22.37329861111112
 20
-18.12588055555555
 30
0.0
 10
22.37329861111112
 20
-18.12588055555555
 30
0.0
 10
22.41675277777777
 20
-18.12588055555555
 30
0.0
 10
22.452075
 20
-18.16120277777778
 30
0.0
 10
22.452075
 20
-18.20465833333333
 30
0.0
 10
22.452075
 20
-18.24809861111112
 30
0.0
 10
22.41675277777777
 20
-18.283475
 30
0.0
 10
22.37329861111112
 20
-18.283475
 30
0.0
  0
HATCH
  5
52
330
1F
100
AcDbEntity
  8
Layer 1
 62
     7
420
 16777215
100
AcDbHatch
 10
0.0
 20
0.0
 30
0.0
210
0.0
220
0.0
230
1.0
  2
SOLID
 70
     1
 71
     0
 91
       17
 92
        1
 93
        1
 72
     4
 94
        3
 73
     0
 74
     1
 95
      101
 96
       97
 40
0.0
 40
0.0
 40
0.0
 40
0.0
 40
1.0
 40
1.0
 40
1.0
 40
2.0
 40
2.0
 40
2.0
 40
3.0
 40
3.0
 40
3.0
 40
4.0
 40
4.0
 40
4.0
 40
5.0
 40
5.0
 40
5.0
 40
6.0
 40
6.0
 40
6.0
 40
7.0
 40
7.0
 40
7.0
 40
8.0
 40
8.0
 40
8.0
 40
9.0
 40
9.0
 40
9.0
 40
10.0
 40
10.0
 40
10.0
 40
11.0
 40
11.0
 40
11.0
 40
12.0
 40
12.0
 40
12.0
 40
13.0
 40
13.0
 40
13.0
 40
14.0
 40
14.0
 40
14.0
 40
15.0
 40
15.0
 40
15.0
 40
16.0
 40
16.0
 40
16.0
 40
17.0
 40
17.0
 40
17.0
 40
18.0
 40
18.0
 40
18.0
 40
19.0
 40
19.0
 40
19.0
 40
20.0
 40
20.0
 40
20.0
 40
21.0
 40
21.0
 40
21.0
 40
22.0
 40
22.0
 40
22.0
 40
23.0
 40
23.0
 40
23.0
 40
24.0
 40
24.0
 40
24.0
 40
25.0
 40
25.0
 40
25.0
 40
26.0
 40
26.0
 40
26.0
 40
27.0
 40
27.0
 40
27.0
 40
28.0
 40
28.0
 40
28.0
 40
29.0
 40
29.0
 40
29.0
 40
30.0
 40
30.0
 40
30.0
 40
31.0
 40
31.0
 40
31.0
 40
32.0
 40
32.0
 40
32.0
 40
32.0
 10
24.20433055555557
 20
-18.1080875
 10
24.20433055555557
 20
-18.1080875
 10
20.58213749999999
 20
-17.6121138888889
 10
20.58213749999999
 20
-17.6121138888889
 10
20.52617222222223
 20
-17.40260694444444
 10
20.44266249999999
 20
-17.2044875
 10
20.33597361111111
 20
-17.02142777777778
 10
20.33597361111111
 20
-17.02142777777778
 10
22.43169444444445
 20
-13.99385555555556
 10
22.43169444444445
 20
-13.99385555555556
 10
22.46127916666667
 20
-13.95113333333333
 10
22.40791527777777
 20
-13.90005694444445
 10
22.36652638888889
 20
-13.93148472222222
 10
22.36652638888889
 20
-13.93148472222222
 10
19.45416666666668
 20
-16.14235138888888
 10
19.45416666666668
 20
-16.14235138888888
 10
19.27077916666667
 20
-16.03621249999999
 10
19.07243611111112
 20
-15.95317361111111
 10
18.86269444444444
 20
-15.89784861111111
 10
18.86269444444444
 20
-15.89784861111111
 10
18.20389722222222
 20
-12.27571944444445
 10
18.20389722222222
 20
-12.27571944444445
 10
18.19459027777778
 20
-12.22459166666667
 10
18.12072777777778
 20
-12.2262125
 10
18.11369444444444
 20
-12.27769444444444
 10
18.11369444444444
 20
-12.27769444444444
 10
17.61773333333334
 20
-15.8998875
 10
17.61773333333334
 20
-15.8998875
 10
17.40822777777777
 20
-15.95586666666667
 10
17.21008055555555
 20
-16.0393625
 10
17.02703333333333
 20
-16.14606388888889
 10
17.02703333333333
 20
-16.14606388888889
 10
13.9994625
 20
-14.05031666666667
 10
13.9994625
 20
-14.05031666666667
 10
13.95674027777778
 20
-14.02074583333333
 10
13.90566388888889
 20
-14.07410972222222
 10
13.93707777777778
 20
-14.11549861111111
 10
13.93707777777778
 20
-14.11549861111111
 10
16.14795833333334
 20
-17.02787222222222
 10
16.14795833333334
 20
-17.02787222222222
 10
16.04181944444445
 20
-17.21125972222222
 10
15.95876666666667
 20
-17.40961527777777
 10
15.90344166666667
 20
-17.61933055555556
 10
15.90344166666667
 20
-17.61933055555556
 10
12.28132607863649
 20
-18.27815416666666
 10
12.28132607863649
 20
-18.27815416666666
 10
12.23018441326177
 20
-18.28743611111112
 10
12.23180663544301
 20
-18.36129722222222
 10
12.28330107858659
 20
-18.36835694444443
 10
12.28330107858659
 20
-18.36835694444443
 10
15.90550694444444
 20
-18.86430416666667
 10
15.90550694444444
 20
-18.86430416666667
 10
15.96147222222223
 20
-19.07382361111111
 10
16.04498194444444
 20
-19.27194444444444
 10
16.15165833333333
 20
-19.45500416666667
 10
16.15165833333333
 20
-19.45500416666667
 10
14.0559375
 20
-22.48256388888889
 10
14.0559375
 20
-22.48256388888889
 10
14.02635277777777
 20
-22.52529861111111
 10
14.07971666666666
 20
-22.576375
 10
14.12111805555556
 20
-22.54494722222221
 10
14.12111805555556
 20
-22.54494722222221
 10
17.03349166666667
 20
-20.33406666666666
 10
17.03349166666667
 20
-20.33406666666666
 10
17.21685277777778
 20
-20.44019305555556
 10
17.41520833333334
 20
-20.52327222222223
 10
17.62495
 20
-20.57857083333334
 10
17.62495
 20
-20.57857083333334
 10
18.28374722222222
 20
-24.2007111111111
 10
18.28374722222222
 20
-24.2007111111111
 10
18.29304166666667
 20
-24.25182638888888
 10
18.36690416666668
 20
-24.25021944444443
 10
18.37395
 20
-24.1987375
 10
18.37395
 20
-24.1987375
 10
18.86991111111113
 20
-20.57653055555556
 10
18.86991111111113
 20
-20.57653055555556
 10
19.07941805555555
 20
-20.52056527777778
 10
19.2775375
 20
-20.43706944444443
 10
19.46059861111111
 20
-20.33035416666667
 10
19.46059861111111
 20
-20.33035416666667
 10
22.48816944444444
 20
-22.42610138888888
 10
22.48816944444444
 20
-22.42610138888888
 10
22.53090555555557
 20
-22.45568472222221
 10
22.58198055555555
 20
-22.40232222222224
 10
22.55055416666667
 20
-22.36091944444443
 10
22.55055416666667
 20
-22.36091944444443
 10
20.3396875
 20
-19.44854583333333
 10
20.3396875
 20
-19.44854583333333
 10
20.4458125
 20
-19.26517222222222
 10
20.52886527777779
 20
-19.06683055555555
 10
20.58419027777778
 20
-18.85708750000001
 10
20.58419027777778
 20
-18.85708750000001
 10
24.20630555555555
 20
-18.19827777777778
 10
24.20630555555555
 20
-18.19827777777778
 10
24.25744722222223
 20
-18.18898333333333
 10
24.25581249999999
 20
-18.11513472222223
 10
24.20433055555557
 20
-18.1080875
 97
        0
 97
        0
 92
        1
 93
        1
 72
     4
 94
        3
 73
     0
 74
     1
 95
       26
 96
       22
 40
0.0
 40
0.0
 40
0.0
 40
0.0
 40
1.0
 40
1.0
 40
1.0
 40
2.0
 40
2.0
 40
2.0
 40
3.0
 40
3.0
 40
3.0
 40
4.0
 40
4.0
 40
4.0
 40
5.0
 40
5.0
 40
5.0
 40
6.0
 40
6.0
 40
6.0
 40
7.0
 40
7.0
 40
7.0
 40
7.0
 10
14.11434722222222
 20
-18.35056527777778
 10
14.07090555555556
 20
-18.35056527777778
 10
14.03551666666667
 20
-18.31518888888889
 10
14.03551666666667
 20
-18.27173472222221
 10
14.03551666666667
 20
-18.22829305555556
 10
14.07090555555556
 20
-18.19297083333333
 10
14.11434722222222
 20
-18.19297083333333
 10
14.11434722222222
 20
-18.19297083333333
 10
15.85249722222223
 20
-18.19297083333333
 10
15.85249722222223
 20
-18.19297083333333
 10
15.85249722222223
 20
-18.19297083333333
 10
15.85176527777778
 20
-18.23820277777778
 10
15.85176527777778
 20
-18.23820277777778
 10
15.85176527777778
 20
-18.26149861111111
 10
15.85260138888889
 20
-18.28453333333333
 10
15.85338611111111
 20
-18.30761944444445
 10
15.85338611111111
 20
-18.30761944444445
 10
15.85488888888888
 20
-18.35056527777778
 10
15.85488888888888
 20
-18.35056527777778
 10
15.85488888888888
 20
-18.35056527777778
 10
14.11434722222222
 20
-18.35056527777778
 10
14.11434722222222
 20
-18.35056527777778
 97
        0
 97
        0
 92
        1
 93
        1
 72
     4
 94
        3
 73
     0
 74
     1
 95
       29
 96
       25
 40
0.0
 40
0.0
 40
0.0
 40
0.0
 40
1.0
 40
1.0
 40
1.0
 40
2.0
 40
2.0
 40
2.0
 40
3.0
 40
3.0
 40
3.0
 40
4.0
 40
4.0
 40
4.0
 40
5.0
 40
5.0
 40
5.0
 40
6.0
 40
6.0
 40
6.0
 40
7.0
 40
7.0
 40
7.0
 40
8.0
 40
8.0
 40
8.0
 40
8.0
 10
15.24437083333333
 20
-15.39766527777778
 10
15.22946805555556
 20
-15.3827625
 10
15.22128333333333
 20
-15.36300833333333
 10
15.22128333333333
 20
-15.3419361111111
 10
15.22133611111111
 20
-15.32084861111111
 10
15.22951944444445
 20
-15.30109583333333
 10
15.24442222222222
 20
-15.28619305555556
 10
15.274125
 20
-15.25659583333334
 10
15.32608888888889
 20
-15.25654305555555
 10
15.35579166666667
 20
-15.28624444444444
 10
15.35579166666667
 20
-15.28624444444444
 10
16.58482916666667
 20
-16.51523055555555
 10
16.58482916666667
 20
-16.51523055555555
 10
16.58482916666667
 20
-16.51523055555555
 10
16.56435694444445
 20
-16.53537638888888
 10
16.56435694444445
 20
-16.53537638888888
 10
16.54072083333333
 20
-16.55868472222222
 10
16.51780416666666
 20
-16.58254305555556
 10
16.4951625
 20
-16.60679305555555
 10
16.4951625
 20
-16.60679305555555
 10
16.47508194444444
 20
-16.628325
 10
16.47508194444444
 20
-16.628325
 10
16.47508194444444
 20
-16.628325
 10
15.24437083333333
 20
-15.39766527777778
 10
15.24437083333333
 20
-15.39766527777778
 97
        0
 97
        0
 92
        1
 93
        1
 72
     4
 94
        3
 73
     0
 74
     1
 95
       26
 96
       22
 40
0.0
 40
0.0
 40
0.0
 40
0.0
 40
1.0
 40
1.0
 40
1.0
 40
2.0
 40
2.0
 40
2.0
 40
3.0
 40
3.0
 40
3.0
 40
4.0
 40
4.0
 40
4.0
 40
5.0
 40
5.0
 40
5.0
 40
6.0
 40
6.0
 40
6.0
 40
7.0
 40
7.0
 40
7.0
 40
7.0
 10
16.09842500000001
 20
-18.23813749999999
 10
16.09903888888889
 20
-18.13100416666667
 10
16.18614444444444
 20
-18.04333750000001
 10
16.29262361111111
 20
-18.04265833333333
 10
16.34129305555555
 20
-18.04210833333333
 10
16.39375555555556
 20
-18.06335277777778
 10
16.43058194444445
 20
-18.10034861111111
 10
16.46785277777778
 20
-18.13773749999999
 10
16.48810277777778
 20
-18.18663055555555
 10
16.48759305555556
 20
-18.23803333333333
 10
16.48648194444445
 20
-18.34355694444444
 10
16.39691944444444
 20
-18.43317222222223
 10
16.29206111111111
 20
-18.4337875
 10
16.29166805555556
 20
-18.4337875
 10
16.29134166666666
 20
-18.4337875
 10
16.29100138888889
 20
-18.4337875
 10
16.23993888888889
 20
-18.4337875
 10
16.19188333333333
 20
-18.41381111111112
 10
16.15550138888889
 20
-18.37742916666667
 10
16.1184
 20
-18.3402763888889
 10
16.09808472222222
 20
-18.29082083333333
 10
16.09842500000001
 20
-18.23813749999999
 97
        0
 97
        0
 92
        1
 93
        1
 72
     4
 94
        3
 73
     0
 74
     1
 95
       29
 96
       25
 40
0.0
 40
0.0
 40
0.0
 40
0.0
 40
1.0
 40
1.0
 40
1.0
 40
2.0
 40
2.0
 40
2.0
 40
3.0
 40
3.0
 40
3.0
 40
4.0
 40
4.0
 40
4.0
 40
5.0
 40
5.0
 40
5.0
 40
6.0
 40
6.0
 40
6.0
 40
7.0
 40
7.0
 40
7.0
 40
8.0
 40
8.0
 40
8.0
 40
8.0
 10
15.40324583333333
 20
-21.23765416666667
 10
15.38788472222222
 20
-21.25300277777779
 10
15.3677
 20
-21.2606763888889
 10
15.34750277777778
 20
-21.2606763888889
 10
15.32737083333333
 20
-21.2606763888889
 10
15.30717222222222
 20
-21.25300277777779
 10
15.291825
 20
-21.23765416666667
 10
15.26111666666667
 20
-21.20694583333334
 10
15.26111666666667
 20
-21.15692916666666
 10
15.291825
 20
-21.12622083333334
 10
15.291825
 20
-21.12622083333334
 10
16.52086388888889
 20
-19.89718333333333
 10
16.52086388888889
 20
-19.89718333333333
 10
16.52086388888889
 20
-19.89718333333333
 10
16.54099583333333
 20
-19.91765555555556
 10
16.54099583333333
 20
-19.91765555555556
 10
16.56425277777779
 20
-19.94130416666667
 10
16.58810972222222
 20
-19.96422083333333
 10
16.61237361111111
 20
-19.9867986111111
 10
16.61237361111111
 20
-19.9867986111111
 10
16.63395694444445
 20
-20.00694305555556
 10
16.63395694444445
 20
-20.00694305555556
 10
16.63395694444445
 20
-20.00694305555556
 10
15.40324583333333
 20
-21.23765416666667
 10
15.40324583333333
 20
-21.23765416666667
 97
        0
 97
        0
 92
        1
 93
        1
 72
     4
 94
        3
 73
     0
 74
     1
 95
       29
 96
       25
 40
0.0
 40
0.0
 40
0.0
 40
0.0
 40
1.0
 40
1.0
 40
1.0
 40
2.0
 40
2.0
 40
2.0
 40
3.0
 40
3.0
 40
3.0
 40
4.0
 40
4.0
 40
4.0
 40
5.0
 40
5.0
 40
5.0
 40
6.0
 40
6.0
 40
6.0
 40
7.0
 40
7.0
 40
7.0
 40
8.0
 40
8.0
 40
8.0
 40
8.0
 10
17.00198611111111
 20
-19.75660972222221
 10
16.96587916666667
 20
-19.7931625
 10
16.91748333333333
 20
-19.81329444444443
 10
16.86570138888889
 20
-19.81329444444443
 10
16.86570138888889
 20
-19.81329444444443
 10
16.86570138888889
 20
-19.81329444444443
 10
16.86564861111111
 20
-19.81329444444443
 10
16.81313472222223
 20
-19.81329444444443
 10
16.76378472222223
 20
-19.79266527777779
 10
16.72673611111111
 20
-19.7552236111111
 10
16.65137083333333
 20
-19.67907499999999
 10
16.65097777777778
 20
-19.55546944444444
 10
16.72584722222223
 20
-19.47958194444444
 10
16.76145694444444
 20
-19.4435388888889
 10
16.81173611111111
 20
-19.42284444444443
 10
16.86375277777778
 20
-19.42284444444443
 10
16.86385694444445
 20
-19.42284444444443
 10
16.86402777777778
 20
-19.42284444444443
 10
16.86414583333333
 20
-19.42284444444443
 10
16.91698611111111
 20
-19.42296249999999
 10
16.96582638888889
 20
-19.44326527777778
 10
17.00181666666666
 20
-19.47997361111111
 10
17.07569166666667
 20
-19.55530000000001
 10
17.07580833333333
 20
-19.68201527777779
 10
17.00198611111111
 20
-19.75660972222221
 97
        0
 97
        0
 92
        1
 93
        1
 72
     4
 94
        3
 73
     0
 74
     1
 95
       26
 96
       22
 40
0.0
 40
0.0
 40
0.0
 40
0.0
 40
1.0
 40
1.0
 40
1.0
 40
2.0
 40
2.0
 40
2.0
 40
3.0
 40
3.0
 40
3.0
 40
4.0
 40
4.0
 40
4.0
 40
5.0
 40
5.0
 40
5.0
 40
6.0
 40
6.0
 40
6.0
 40
7.0
 40
7.0
 40
7.0
 40
7.0
 10
17.00210416666667
 20
-16.99624861111111
 10
16.96438888888888
 20
-17.03317916666666
 10
16.91382222222223
 20
-17.05165138888889
 10
16.86336111111111
 20
-17.05165138888889
 10
16.81296527777777
 20
-17.05165138888889
 10
16.76267361111111
 20
-17.03324444444445
 10
16.72540277777778
 20
-16.99636666666667
 10
16.68886388888889
 20
-16.96020694444444
 10
16.66871805555555
 20
-16.91181111111112
 10
16.66871805555555
 20
-16.86006805555555
 10
16.66871805555555
 20
-16.80750138888889
 10
16.68935972222222
 20
-16.75816527777778
 10
16.72685277777777
 20
-16.72111666666667
 10
16.80295138888889
 20
-16.64579027777778
 10
16.92655555555555
 20
-16.64539722222222
 10
17.00243055555556
 20
-16.72027916666666
 10
17.03859027777778
 20
-16.75599444444444
 10
17.05928472222222
 20
-16.80639027777777
 10
17.05916666666667
 20
-16.85856527777778
 10
17.05906250000001
 20
-16.91136666666667
 10
17.0388125
 20
-16.96025833333334
 10
17.00210416666667
 20
-16.99624861111111
 97
        0
 97
        0
 92
        1
 93
        1
 72
     4
 94
        3
 73
     0
 74
     1
 95
       26
 96
       22
 40
0.0
 40
0.0
 40
0.0
 40
0.0
 40
1.0
 40
1.0
 40
1.0
 40
2.0
 40
2.0
 40
2.0
 40
3.0
 40
3.0
 40
3.0
 40
4.0
 40
4.0
 40
4.0
 40
5.0
 40
5.0
 40
5.0
 40
6.0
 40
6.0
 40
6.0
 40
7.0
 40
7.0
 40
7.0
 40
7.0
 10
18.13146111111112
 20
-14.10871388888889
 10
18.13146111111112
 20
-14.06527222222222
 10
18.16683611111111
 20
-14.02995
 10
18.21027777777778
 20
-14.02995
 10
18.25371805555556
 20
-14.02995
 10
18.28905416666667
 20
-14.06527222222222
 10
18.28905416666667
 20
-14.10871388888889
 10
18.28905416666667
 20
-14.10871388888889
 10
18.28905416666667
 20
-15.8468638888889
 10
18.28905416666667
 20
-15.8468638888889
 10
18.28905416666667
 20
-15.8468638888889
 10
18.24382222222222
 20
-15.84614444444444
 10
18.24382222222222
 20
-15.84614444444444
 10
18.21957222222222
 20
-15.84614444444444
 10
18.19559583333334
 20
-15.84703472222222
 10
18.17156805555555
 20
-15.84792361111111
 10
18.17156805555555
 20
-15.84792361111111
 10
18.13146111111112
 20
-15.8493736111111
 10
18.13146111111112
 20
-15.8493736111111
 10
18.13146111111112
 20
-15.8493736111111
 10
18.13146111111112
 20
-14.10871388888889
 10
18.13146111111112
 20
-14.10871388888889
 97
        0
 97
        0
 92
        1
 93
        1
 72
     4
 94
        3
 73
     0
 74
     1
 95
       26
 96
       22
 40
0.0
 40
0.0
 40
0.0
 40
0.0
 40
1.0
 40
1.0
 40
1.0
 40
2.0
 40
2.0
 40
2.0
 40
3.0
 40
3.0
 40
3.0
 40
4.0
 40
4.0
 40
4.0
 40
5.0
 40
5.0
 40
5.0
 40
6.0
 40
6.0
 40
6.0
 40
7.0
 40
7.0
 40
7.0
 40
7.0
 10
18.35613194444444
 20
-22.36773055555555
 10
18.35613194444444
 20
-22.41117222222222
 10
18.32080833333334
 20
-22.44649444444445
 10
18.27736805555555
 20
-22.44649444444445
 10
18.23392638888889
 20
-22.44649444444445
 10
18.1985375
 20
-22.41117222222222
 10
18.1985375
 20
-22.36773055555555
 10
18.1985375
 20
-22.36773055555555
 10
18.1985375
 20
-20.62985555555555
 10
18.1985375
 20
-20.62985555555555
 10
18.1985375
 20
-20.62985555555555
 10
18.24382222222222
 20
-20.63024722222222
 10
18.24382222222222
 20
-20.63024722222222
 10
18.26713194444445
 20
-20.63024722222222
 10
18.29021805555557
 20
-20.62941111111111
 10
18.31335694444445
 20
-20.6286388888889
 10
18.31335694444445
 20
-20.6286388888889
 10
18.35613194444444
 20
-20.62713611111111
 10
18.35613194444444
 20
-20.62713611111111
 10
18.35613194444444
 20
-20.62713611111111
 10
18.35613194444444
 20
-22.36773055555555
 10
18.35613194444444
 20
-22.36773055555555
 97
        0
 97
        0
 92
        1
 93
        1
 72
     4
 94
        3
 73
     0
 74
     1
 95
       29
 96
       25
 40
0.0
 40
0.0
 40
0.0
 40
0.0
 40
1.0
 40
1.0
 40
1.0
 40
2.0
 40
2.0
 40
2.0
 40
3.0
 40
3.0
 40
3.0
 40
4.0
 40
4.0
 40
4.0
 40
5.0
 40
5.0
 40
5.0
 40
6.0
 40
6.0
 40
6.0
 40
7.0
 40
7.0
 40
7.0
 40
8.0
 40
8.0
 40
8.0
 40
8.0
 10
18.38300972222222
 20
-20.32652361111112
 10
18.34611805555556
 20
-20.36340277777776
 10
18.29712083333334
 20
-20.38365277777777
 10
18.24482916666667
 20
-20.38365277777777
 10
18.2444375
 20
-20.38365277777777
 10
18.24409722222222
 20
-20.38365277777777
 10
18.24371805555555
 20
-20.38365277777777
 10
18.13662499999999
 20
-20.38303888888888
 10
18.04895694444445
 20
-20.29592083333333
 10
18.04823888888889
 20
-20.18940277777779
 10
18.04789861111111
 20
-20.13854861111112
 10
18.06898472222223
 20
-20.08826944444445
 10
18.10591666666667
 20
-20.05144305555556
 10
18.14285972222222
 20
-20.01466944444445
 10
18.19098194444445
 20
-19.99448472222222
 10
18.2416
 20
-19.99448472222222
 10
18.24226666666666
 20
-19.99448472222222
 10
18.24293333333334
 20
-19.99448472222222
 10
18.2436
 20
-19.99448472222222
 10
18.34917777777779
 20
-19.99553055555556
 10
18.43885694444445
 20
-20.08504166666666
 10
18.43935416666666
 20
-20.18995138888888
 10
18.43962916666667
 20
-20.24140694444443
 10
18.4196013888889
 20
-20.28986805555554
 10
18.38300972222222
 20
-20.32652361111112
 97
        0
 97
        0
 92
        1
 93
        1
 72
     4
 94
        3
 73
     0
 74
     1
 95
       29
 96
       25
 40
0.0
 40
0.0
 40
0.0
 40
0.0
 40
1.0
 40
1.0
 40
1.0
 40
2.0
 40
2.0
 40
2.0
 40
3.0
 40
3.0
 40
3.0
 40
4.0
 40
4.0
 40
4.0
 40
5.0
 40
5.0
 40
5.0
 40
6.0
 40
6.0
 40
6.0
 40
7.0
 40
7.0
 40
7.0
 40
8.0
 40
8.0
 40
8.0
 40
8.0
 10
18.38178055555555
 20
-16.42489722222222
 10
18.34483750000001
 20
-16.461775
 10
18.29661111111111
 20
-16.48197361111112
 10
18.24587499999999
 20
-16.48197361111112
 10
18.24520833333333
 20
-16.48197361111112
 10
18.24460694444445
 20
-16.48197361111112
 10
18.24399305555556
 20
-16.48197361111112
 10
18.13846805555555
 20
-16.48091388888889
 10
18.04885277777777
 20
-16.39135138888889
 10
18.04823888888889
 20
-16.28644166666667
 10
18.04796388888889
 20
-16.23503888888889
 10
18.06792638888889
 20
-16.18659027777778
 10
18.10453055555556
 20
-16.14998611111111
 10
18.14146111111111
 20
-16.11310694444445
 10
18.1905375
 20
-16.09279166666667
 10
18.24281527777778
 20
-16.09279166666667
 10
18.24320833333334
 20
-16.09279166666667
 10
18.24354861111111
 20
-16.09279166666667
 10
18.24394027777779
 20
-16.09279166666667
 10
18.35102083333332
 20
-16.09340694444445
 10
18.43868750000001
 20
-16.180525
 10
18.43935416666666
 20
-16.28705555555555
 10
18.43969444444443
 20
-16.33784444444445
 10
18.41871250000001
 20
-16.38806944444444
 10
18.38178055555555
 20
-16.42489722222222
 97
        0
 97
        0
 92
        1
 93
        1
 72
     4
 94
        3
 73
     0
 74
     1
 95
       23
 96
       19
 40
0.0
 40
0.0
 40
0.0
 40
0.0
 40
1.0
 40
1.0
 40
1.0
 40
2.0
 40
2.0
 40
2.0
 40
3.0
 40
3.0
 40
3.0
 40
4.0
 40
4.0
 40
4.0
 40
5.0
 40
5.0
 40
5.0
 40
6.0
 40
6.0
 40
6.0
 40
6.0
 10
19.48565833333333
 20
-16.71983472222222
 10
19.55852777777778
 20
-16.64623472222222
 10
19.68730833333332
 20
-16.6468486111111
 10
19.76090972222222
 20
-16.72122083333333
 10
19.83622222222223
 20
-16.79738333333333
 10
19.83661527777778
 20
-16.9209875
 10
19.76179861111111
 20
-16.99681111111111
 10
19.72620138888889
 20
-17.03290555555555
 10
19.67590972222221
 20
-17.0536
 10
19.62389166666667
 20
-17.0536
 10
19.62378750000001
 20
-17.0536
 10
19.62366944444446
 20
-17.0536
 10
19.6235
 20
-17.0536
 10
19.57071111111112
 20
-17.05349444444444
 10
19.52176666666666
 20
-17.03324444444445
 10
19.48577638888888
 20
-16.99647083333333
 10
19.41190138888889
 20
-16.92109305555555
 10
19.41183611111112
 20
-16.79442916666667
 10
19.48565833333333
 20
-16.71983472222222
 97
        0
 97
        0
 92
        1
 93
        1
 72
     4
 94
        3
 73
     0
 74
     1
 95
       26
 96
       22
 40
0.0
 40
0.0
 40
0.0
 40
0.0
 40
1.0
 40
1.0
 40
1.0
 40
2.0
 40
2.0
 40
2.0
 40
3.0
 40
3.0
 40
3.0
 40
4.0
 40
4.0
 40
4.0
 40
5.0
 40
5.0
 40
5.0
 40
6.0
 40
6.0
 40
6.0
 40
7.0
 40
7.0
 40
7.0
 40
7.0
 10
19.76079166666667
 20
-19.75532916666667
 10
19.72257916666667
 20
-19.7931625
 10
19.67234027777777
 20
-19.81207777777778
 10
19.62223194444444
 20
-19.81207777777778
 10
19.57255416666668
 20
-19.81207777777778
 10
19.52298194444443
 20
-19.7934361111111
 10
19.48521388888889
 20
-19.75616527777778
 10
19.44905416666668
 20
-19.72045
 10
19.42835972222221
 20
-19.67005416666666
 10
19.42847777777777
 20
-19.61788055555555
 10
19.42858194444443
 20
-19.56509166666665
 10
19.44883194444444
 20
-19.51618611111111
 10
19.48555416666666
 20
-19.48019583333333
 10
19.56091944444445
 20
-19.40621666666667
 10
19.68758333333333
 20
-19.40616388888889
 10
19.76219027777779
 20
-19.48002638888889
 10
19.79879444444444
 20
-19.51625138888888
 10
19.81887500000001
 20
-19.5647
 10
19.81887500000001
 20
-19.61648194444446
 10
19.81887500000001
 20
-19.66899583333333
 10
19.79823194444445
 20
-19.71828055555557
 10
19.76079166666667
 20
-19.75532916666667
 97
        0
 97
        0
 92
        1
 93
        1
 72
     4
 94
        3
 73
     0
 74
     1
 95
       29
 96
       25
 40
0.0
 40
0.0
 40
0.0
 40
0.0
 40
1.0
 40
1.0
 40
1.0
 40
2.0
 40
2.0
 40
2.0
 40
3.0
 40
3.0
 40
3.0
 40
4.0
 40
4.0
 40
4.0
 40
5.0
 40
5.0
 40
5.0
 40
6.0
 40
6.0
 40
6.0
 40
7.0
 40
7.0
 40
7.0
 40
8.0
 40
8.0
 40
8.0
 40
8.0
 10
19.8536875
 20
-16.46951388888889
 10
19.8536875
 20
-16.46951388888889
 10
21.08434722222222
 20
-15.23873749999999
 10
21.08434722222222
 20
-15.23873749999999
 10
21.11515972222221
 20
-15.20814722222222
 10
21.16505972222222
 20
-15.20809444444444
 10
21.19576805555556
 20
-15.23880277777778
 10
21.21068333333334
 20
-15.25365416666667
 10
21.21890694444444
 20
-15.27345972222222
 10
21.21890694444444
 20
-15.29453333333333
 10
21.21890694444444
 20
-15.31556666666667
 10
21.21068333333334
 20
-15.33537222222223
 10
21.19576805555556
 20
-15.35027638888889
 10
21.19576805555556
 20
-15.35027638888889
 10
19.96678194444444
 20
-16.57920972222222
 10
19.96678194444444
 20
-16.57920972222222
 10
19.96678194444444
 20
-16.57920972222222
 10
19.94665000000001
 20
-16.55873750000001
 10
19.94665000000001
 20
-16.55873750000001
 10
19.92339305555555
 20
-16.53520555555555
 10
19.89953472222222
 20
-16.51223611111111
 10
19.87527083333334
 20
-16.48964722222222
 10
19.87527083333334
 20
-16.48964722222222
 10
19.8536875
 20
-16.46951388888889
 10
19.8536875
 20
-16.46951388888889
 97
        0
 97
        0
 92
        1
 93
        1
 72
     4
 94
        3
 73
     0
 74
     1
 95
       29
 96
       25
 40
0.0
 40
0.0
 40
0.0
 40
0.0
 40
1.0
 40
1.0
 40
1.0
 40
2.0
 40
2.0
 40
2.0
 40
3.0
 40
3.0
 40
3.0
 40
4.0
 40
4.0
 40
4.0
 40
5.0
 40
5.0
 40
5.0
 40
6.0
 40
6.0
 40
6.0
 40
7.0
 40
7.0
 40
7.0
 40
8.0
 40
8.0
 40
8.0
 40
8.0
 10
21.24322222222223
 20
-21.07877916666666
 10
21.27393055555556
 20
-21.10948750000001
 10
21.27393055555556
 20
-21.15949166666665
 10
21.24322222222223
 20
-21.1902
 10
21.22787499999999
 20
-21.20554722222222
 10
21.20767638888888
 20
-21.21323472222222
 10
21.18747916666666
 20
-21.21323472222222
 10
21.16734722222221
 20
-21.21323472222222
 10
21.14714861111111
 20
-21.20554722222222
 10
21.13180138888889
 20
-21.1902
 10
21.13180138888889
 20
-21.1902
 10
19.90286805555555
 20
-19.96126666666666
 10
19.90286805555555
 20
-19.96126666666666
 10
19.90286805555555
 20
-19.96126666666666
 10
19.92322222222222
 20
-19.94113472222223
 10
19.92322222222222
 20
-19.94113472222223
 10
19.94681944444445
 20
-19.91782499999999
 10
19.96984027777777
 20
-19.89385
 10
19.99248333333334
 20
-19.86959861111111
 10
19.99248333333334
 20
-19.86959861111111
 10
20.0125625
 20
-19.84806805555556
 10
20.0125625
 20
-19.84806805555556
 10
20.0125625
 20
-19.84806805555556
 10
21.24322222222223
 20
-21.07877916666666
 10
21.24322222222223
 20
-21.07877916666666
 97
        0
 97
        0
 92
        1
 93
        1
 72
     4
 94
        3
 73
     0
 74
     1
 95
       29
 96
       25
 40
0.0
 40
0.0
 40
0.0
 40
0.0
 40
1.0
 40
1.0
 40
1.0
 40
2.0
 40
2.0
 40
2.0
 40
3.0
 40
3.0
 40
3.0
 40
4.0
 40
4.0
 40
4.0
 40
5.0
 40
5.0
 40
5.0
 40
6.0
 40
6.0
 40
6.0
 40
7.0
 40
7.0
 40
7.0
 40
8.0
 40
8.0
 40
8.0
 40
8.0
 10
20.19496944444444
 20
-18.4337875
 10
20.19464305555556
 20
-18.4337875
 10
20.19425000000001
 20
-18.4337875
 10
20.19385833333333
 20
-18.4337875
 10
20.14339722222222
 20
-18.4337875
 10
20.09361527777777
 20
-18.41281805555557
 10
20.05706388888888
 20
-18.37614861111112
 10
20.01979305555556
 20
-18.33872083333333
 10
19.99955555555556
 20
-18.28981527777778
 10
20.00005277777778
 20
-18.23842500000001
 10
20.00111111111111
 20
-18.1328875
 10
20.09067361111111
 20
-18.04327222222222
 10
20.19558472222221
 20
-18.04265833333333
 10
20.19597638888889
 20
-18.04265833333333
 10
20.19630277777777
 20
-18.04265833333333
 10
20.19664305555554
 20
-18.04265833333333
 10
20.24765416666666
 20
-18.04265833333333
 10
20.29570972222223
 20
-18.06263333333334
 10
20.3320388888889
 20
-18.0989625
 10
20.36919305555557
 20
-18.13611666666667
 10
20.38949444444446
 20
-18.18562361111112
 10
20.38922083333333
 20
-18.23830694444445
 10
20.38860555555556
 20
-18.34545277777778
 10
20.30150138888888
 20
-18.43311944444445
 10
20.19496944444444
 20
-18.4337875
 97
        0
 97
        0
 92
        1
 93
        1
 72
     4
 94
        3
 73
     0
 74
     1
 95
       26
 96
       22
 40
0.0
 40
0.0
 40
0.0
 40
0.0
 40
1.0
 40
1.0
 40
1.0
 40
2.0
 40
2.0
 40
2.0
 40
3.0
 40
3.0
 40
3.0
 40
4.0
 40
4.0
 40
4.0
 40
5.0
 40
5.0
 40
5.0
 40
6.0
 40
6.0
 40
6.0
 40
7.0
 40
7.0
 40
7.0
 40
7.0
 10
22.37329861111112
 20
-18.283475
 10
22.37329861111112
 20
-18.283475
 10
20.63514861111111
 20
-18.283475
 10
20.63514861111111
 20
-18.283475
 10
20.63514861111111
 20
-18.283475
 10
20.63588055555556
 20
-18.23820277777778
 10
20.63588055555556
 20
-18.23820277777778
 10
20.63588055555556
 20
-18.21489444444445
 10
20.63504305555555
 20
-18.19180694444444
 10
20.63425972222222
 20
-18.16866805555555
 10
20.63425972222222
 20
-18.16866805555555
 10
20.63275555555555
 20
-18.12588055555555
 10
20.63275555555555
 20
-18.12588055555555
 10
20.63275555555555
 20
-18.12588055555555
 10
22.37329861111112
 20
-18.12588055555555
 10
22.37329861111112
 20
-18.12588055555555
 10
22.41675277777777
 20
-18.12588055555555
 10
22.452075
 20
-18.16120277777778
 10
22.452075
 20
-18.20465833333333
 10
22.452075
 20
-18.24809861111112
 10
22.41675277777777
 20
-18.283475
 10
22.37329861111112
 20
-18.283475
 97
        0
 97
        0
 75
     2
 76
     1
 98
        0
  0
ENDSEC
  0
SECTION
  2
OBJECTS
  0
DICTIONARY
  5
C
330
0
100
AcDbDictionary
281
     1
  3
ACAD_GROUP
350
D
  3
ACAD_LAYOUT
350
1A
  3
ACAD_MATERIAL
350
3B
  3
ACAD_MLEADERSTYLE
350
54
  3
ACAD_MLINESTYLE
350
17
  3
ACAD_PLOTSETTINGS
350
19
  3
ACAD_PLOTSTYLENAME
350
E
  3
ACAD_TABLESTYLE
350
53
  3
ACAD_VISUALSTYLE
350
2A
  0
SUN
  5
3F
330
29
100
AcDbSun
 90
        1
290
     0
 63
     7
421
 16777215
 40
1.0
291
     1
 91
  2455826
 92
 54000000
292
     0
 70
     2
 71
   256
280
     1
  0
DICTIONARY
  5
D
102
{ACAD_REACTORS
330
C
102
}
330
C
100
AcDbDictionary
281
     1
  0
DICTIONARY
  5
1A
102
{ACAD_REACTORS
330
C
102
}
330
C
100
AcDbDictionary
281
     1
  3
Layout1
350
1E
  3
Layout2
350
26
  3
Model
350
22
  0
DICTIONARY
  5
3B
102
{ACAD_REACTORS
330
C
102
}
330
C
100
AcDbDictionary
281
     1
  3
ByBlock
350
3D
  3
ByLayer
350
3C
  3
Global
350
3E
  0
DICTIONARY
  5
54
102
{ACAD_REACTORS
330
C
102
}
330
C
100
AcDbDictionary
281
     1
  0
DICTIONARY
  5
17
102
{ACAD_REACTORS
330
C
102
}
330
C
100
AcDbDictionary
281
     1
  3
Standard
350
18
  0
DICTIONARY
  5
19
102
{ACAD_REACTORS
330
C
102
}
330
C
100
AcDbDictionary
281
     1
  0
ACDBDICTIONARYWDFLT
  5
E
102
{ACAD_REACTORS
330
C
102
}
330
C
100
AcDbDictionary
281
     1
  3
Normal
350
F
100
AcDbDictionaryWithDefault
340
F
  0
DICTIONARY
  5
53
102
{ACAD_REACTORS
330
C
102
}
330
C
100
AcDbDictionary
281
     1
  0
DICTIONARY
  5
2A
102
{ACAD_REACTORS
330
C
102
}
330
C
100
AcDbDictionary
281
     1
  3
2dWireframe
350
2F
  3
3D Hidden
350
31
  3
3dWireframe
350
30
  3
Basic
350
32
  3
Brighten
350
36
  3
ColorChange
350
3A
  3
Conceptual
350
34
  3
Dim
350
35
  3
Facepattern
350
39
  3
Flat
350
2B
  3
FlatWithEdges
350
2C
  3
Gouraud
350
2D
  3
GouraudWithEdges
350
2E
  3
Linepattern
350
38
  3
Realistic
350
33
  3
Thicken
350
37
  0
LAYOUT
  5
1E
102
{ACAD_REACTORS
330
1A
102
}
330
1A
100
AcDbPlotSettings
  1

  2
none_device
  4

  6

 40
0.0
 41
0.0
 42
0.0
 43
0.0
 44
0.0
 45
0.0
 46
0.0
 47
0.0
 48
0.0
 49
0.0
140
0.0
141
0.0
142
1.0
143
1.0
 70
   688
 72
     0
 73
     0
 74
     5
  7

 75
    16
 76
     0
 77
     2
 78
   300
147
1.0
148
0.0
149
0.0
100
AcDbLayout
  1
Layout1
 70
     1
 71
     1
 10
0.0
 20
0.0
 11
12.0
 21
9.0
 12
0.0
 22
0.0
 32
0.0
 14
1.000000000000000E+20
 24
1.000000000000000E+20
 34
1.000000000000000E+20
 15
-1.000000000000000E+20
 25
-1.000000000000000E+20
 35
-1.000000000000000E+20
146
0.0
 13
0.0
 23
0.0
 33
0.0
 16
1.0
 26
0.0
 36
0.0
 17
0.0
 27
1.0
 37
0.0
 76
     0
330
1B
  0
LAYOUT
  5
26
102
{ACAD_REACTORS
330
1A
102
}
330
1A
100
AcDbPlotSettings
  1

  2
none_device
  4

  6

 40
0.0
 41
0.0
 42
0.0
 43
0.0
 44
0.0
 45
0.0
 46
0.0
 47
0.0
 48
0.0
 49
0.0
140
0.0
141
0.0
142
1.0
143
1.0
 70
   688
 72
     0
 73
     0
 74
     5
  7

 75
    16
 76
     0
 77
     2
 78
   300
147
1.0
148
0.0
149
0.0
100
AcDbLayout
  1
Layout2
 70
     1
 71
     2
 10
0.0
 20
0.0
 11
0.0
 21
0.0
 12
0.0
 22
0.0
 32
0.0
 14
0.0
 24
0.0
 34
0.0
 15
0.0
 25
0.0
 35
0.0
146
0.0
 13
0.0
 23
0.0
 33
0.0
 16
1.0
 26
0.0
 36
0.0
 17
0.0
 27
1.0
 37
0.0
 76
     0
330
23
  0
LAYOUT
  5
22
102
{ACAD_REACTORS
330
1A
102
}
330
1A
100
AcDbPlotSettings
  1

  2
none_device
  4

  6

 40
0.0
 41
0.0
 42
0.0
 43
0.0
 44
0.0
 45
0.0
 46
0.0
 47
0.0
 48
0.0
 49
0.0
140
0.0
141
0.0
142
1.0
143
1.0
 70
  1712
 72
     0
 73
     0
 74
     0
  7

 75
     0
 76
     0
 77
     2
 78
   300
147
1.0
148
0.0
149
0.0
100
AcDbLayout
  1
Model
 70
     1
 71
     0
 10
0.0
 20
0.0
 11
12.0
 21
9.0
 12
0.0
 22
0.0
 32
0.0
 14
1.000000000000000E+20
 24
1.000000000000000E+20
 34
1.000000000000000E+20
 15
-1.000000000000000E+20
 25
-1.000000000000000E+20
 35
-1.000000000000000E+20
146
0.0
 13
0.0
 23
0.0
 33
0.0
 16
1.0
 26
0.0
 36
0.0
 17
0.0
 27
1.0
 37
0.0
 76
     0
330
1F
331
29
  0
MATERIAL
  5
3D
102
{ACAD_REACTORS
330
3B
102
}
330
3B
100
AcDbMaterial
  1
ByBlock
 72
     1
 94
      127
  0
MATERIAL
  5
3C
102
{ACAD_REACTORS
330
3B
102
}
330
3B
100
AcDbMaterial
  1
ByLayer
 72
     1
 94
      127
  0
MATERIAL
  5
3E
102
{ACAD_REACTORS
330
3B
102
}
330
3B
100
AcDbMaterial
  1
Global
 72
     1
 94
      127
  0
MLINESTYLE
  5
18
102
{ACAD_REACTORS
330
17
102
}
330
17
100
AcDbMlineStyle
  2
Standard
 70
     0
  3

 62
   256
 51
90.0
 52
90.0
 71
     2
 49
0.5
 62
   256
  6
BYLAYER
 49
-0.5
 62
   256
  6
BYLAYER
  0
ACDBPLACEHOLDER
  5
F
102
{ACAD_REACTORS
330
E
102
}
330
E
  0
VISUALSTYLE
  5
2F
102
{ACAD_REACTORS
330
2A
102
}
330
2A
100
AcDbVisualStyle
  2
2dWireframe
 70
     4
177
     2
291
     0
 71
     0
176
     1
 72
     2
176
     1
 73
     0
176
     1
 90
        0
176
     1
 40
-0.6
176
     1
 41
-30.0
176
     1
 62
     5
 63
     7
421
 16777215
176
     1
 74
     1
176
     1
 91
        4
176
     1
 64
     7
176
     1
 65
   257
176
     1
 75
     1
176
     1
175
     1
176
     1
 42
1.0
176
     1
 92
        0
176
     1
 66
   257
176
     1
 43
1.0
176
     1
 76
     1
176
     1
 77
     6
176
     1
 78
     2
176
     1
 67
     7
176
     1
 79
     5
176
     1
170
     0
176
     1
171
     0
176
     1
290
     0
176
     1
 93
        1
176
     1
 44
0.0
176
     1
173
     0
176
     1
  0
VISUALSTYLE
  5
31
102
{ACAD_REACTORS
330
2A
102
}
330
2A
100
AcDbVisualStyle
  2
3D Hidden
 70
     6
177
     2
291
     0
 71
     1
176
     1
 72
     2
176
     1
 73
     2
176
     1
 90
        0
176
     1
 40
-0.6
176
     1
 41
-30.0
176
     1
 62
     5
 63
     7
421
 16777215
176
     1
 74
     2
176
     1
 91
        2
176
     1
 64
     7
176
     1
 65
   257
176
     1
 75
     2
176
     1
175
     1
176
     1
 42
40.0
176
     1
 92
        0
176
     1
 66
   257
176
     1
 43
1.0
176
     1
 76
     1
176
     1
 77
     6
176
     1
 78
     2
176
     1
 67
     7
176
     1
 79
     3
176
     1
170
     0
176
     1
171
     0
176
     1
290
     0
176
     1
 93
        1
176
     1
 44
0.0
176
     1
173
     0
176
     1
  0
VISUALSTYLE
  5
30
102
{ACAD_REACTORS
330
2A
102
}
330
2A
100
AcDbVisualStyle
  2
3dWireframe
 70
     5
177
     2
291
     0
 71
     0
176
     1
 72
     2
176
     1
 73
     0
176
     1
 90
        0
176
     1
 40
-0.6
176
     1
 41
-30.0
176
     1
 62
     5
 63
     7
421
 16777215
176
     1
 74
     1
176
     1
 91
        4
176
     1
 64
     7
176
     1
 65
   257
176
     1
 75
     1
176
     1
175
     1
176
     1
 42
1.0
176
     1
 92
        0
176
     1
 66
   257
176
     1
 43
1.0
176
     1
 76
     1
176
     1
 77
     6
176
     1
 78
     2
176
     1
 67
     7
176
     1
 79
     5
176
     1
170
     0
176
     1
171
     0
176
     1
290
     0
176
     1
 93
        1
176
     1
 44
0.0
176
     1
173
     0
176
     1
  0
VISUALSTYLE
  5
32
102
{ACAD_REACTORS
330
2A
102
}
330
2A
100
AcDbVisualStyle
  2
Basic
 70
     7
177
     2
291
     1
 71
     1
176
     1
 72
     0
176
     1
 73
     1
176
     1
 90
        0
176
     1
 40
-0.6
176
     1
 41
-30.0
176
     1
 62
     5
 63
     7
421
 16777215
176
     1
 74
     0
176
     1
 91
        4
176
     1
 64
     7
176
     1
 65
   257
176
     1
 75
     1
176
     1
175
     1
176
     1
 42
1.0
176
     1
 92
        8
176
     1
 66
     7
176
     1
 43
1.0
176
     1
 76
     1
176
     1
 77
     6
176
     1
 78
     2
176
     1
 67
     7
176
     1
 79
     5
176
     1
170
     0
176
     1
171
     0
176
     1
290
     0
176
     1
 93
        1
176
     1
 44
0.0
176
     1
173
     0
176
     1
  0
VISUALSTYLE
  5
36
102
{ACAD_REACTORS
330
2A
102
}
330
2A
100
AcDbVisualStyle
  2
Brighten
 70
    12
177
     2
291
     1
 71
     2
176
     1
 72
     2
176
     1
 73
     0
176
     1
 90
        0
176
     1
 40
-0.6
176
     1
 41
-30.0
176
     1
 62
     5
 63
     7
421
 16777215
176
     1
 74
     1
176
     1
 91
        4
176
     1
 64
     7
176
     1
 65
   257
176
     1
 75
     1
176
     1
175
     1
176
     1
 42
1.0
176
     1
 92
        8
176
     1
 66
     7
176
     1
 43
1.0
176
     1
 76
     1
176
     1
 77
     6
176
     1
 78
     2
176
     1
 67
     7
176
     1
 79
     5
176
     1
170
     0
176
     1
171
     0
176
     1
290
     0
176
     1
 93
        1
176
     1
 44
50.0
176
     1
173
     0
176
     1
  0
VISUALSTYLE
  5
3A
102
{ACAD_REACTORS
330
2A
102
}
330
2A
100
AcDbVisualStyle
  2
ColorChange
 70
    16
177
     2
291
     1
 71
     2
176
     1
 72
     2
176
     1
 73
     3
176
     1
 90
        0
176
     1
 40
-0.6
176
     1
 41
-30.0
176
     1
 62
     5
 63
     8
421
  8421504
176
     1
 74
     1
176
     1
 91
        4
176
     1
 64
     7
176
     1
 65
   257
176
     1
 75
     1
176
     1
175
     1
176
     1
 42
1.0
176
     1
 92
        8
176
     1
 66
     8
424
  8421504
176
     1
 43
1.0
176
     1
 76
     1
176
     1
 77
     6
176
     1
 78
     2
176
     1
 67
     7
176
     1
 79
     5
176
     1
170
     0
176
     1
171
     0
176
     1
290
     0
176
     1
 93
        1
176
     1
 44
0.0
176
     1
173
     0
176
     1
  0
VISUALSTYLE
  5
34
102
{ACAD_REACTORS
330
2A
102
}
330
2A
100
AcDbVisualStyle
  2
Conceptual
 70
     9
177
     2
291
     0
 71
     3
176
     1
 72
     2
176
     1
 73
     0
176
     1
 90
        0
176
     1
 40
-0.6
176
     1
 41
-30.0
176
     1
 62
     5
 63
     7
421
 16777215
176
     1
 74
     2
176
     1
 91
        2
176
     1
 64
     7
176
     1
 65
   257
176
     1
 75
     1
176
     1
175
     1
176
     1
 42
40.0
176
     1
 92
        8
176
     1
 66
     7
176
     1
 43
1.0
176
     1
 76
     1
176
     1
 77
     6
176
     1
 78
     2
176
     1
 67
     7
176
     1
 79
     3
176
     1
170
     0
176
     1
171
     0
176
     1
290
     0
176
     1
 93
        1
176
     1
 44
0.0
176
     1
173
     0
176
     1
  0
VISUALSTYLE
  5
35
102
{ACAD_REACTORS
330
2A
102
}
330
2A
100
AcDbVisualStyle
  2
Dim
 70
    11
177
     2
291
     1
 71
     2
176
     1
 72
     2
176
     1
 73
     0
176
     1
 90
        0
176
     1
 40
-0.6
176
     1
 41
-30.0
176
     1
 62
     5
 63
     7
421
 16777215
176
     1
 74
     1
176
     1
 91
        4
176
     1
 64
     7
176
     1
 65
   257
176
     1
 75
     1
176
     1
175
     1
176
     1
 42
1.0
176
     1
 92
        8
176
     1
 66
     7
176
     1
 43
1.0
176
     1
 76
     1
176
     1
 77
     6
176
     1
 78
     2
176
     1
 67
     7
176
     1
 79
     5
176
     1
170
     0
176
     1
171
     0
176
     1
290
     0
176
     1
 93
        1
176
     1
 44
-50.0
176
     1
173
     0
176
     1
  0
VISUALSTYLE
  5
39
102
{ACAD_REACTORS
330
2A
102
}
330
2A
100
AcDbVisualStyle
  2
Facepattern
 70
    15
177
     2
291
     1
 71
     2
176
     1
 72
     2
176
     1
 73
     0
176
     1
 90
        0
176
     1
 40
-0.6
176
     1
 41
-30.0
176
     1
 62
     5
 63
     7
421
 16777215
176
     1
 74
     1
176
     1
 91
        4
176
     1
 64
     7
176
     1
 65
   257
176
     1
 75
     1
176
     1
175
     1
176
     1
 42
1.0
176
     1
 92
        8
176
     1
 66
     7
176
     1
 43
1.0
176
     1
 76
     1
176
     1
 77
     6
176
     1
 78
     2
176
     1
 67
     7
176
     1
 79
     5
176
     1
170
     0
176
     1
171
     0
176
     1
290
     0
176
     1
 93
        1
176
     1
 44
0.0
176
     1
173
     0
176
     1
  0
VISUALSTYLE
  5
2B
102
{ACAD_REACTORS
330
2A
102
}
330
2A
100
AcDbVisualStyle
  2
Flat
 70
     0
177
     2
291
     1
 71
     2
176
     1
 72
     1
176
     1
 73
     1
176
     1
 90
        2
176
     1
 40
-0.6
176
     1
 41
30.0
176
     1
 62
     5
 63
     7
421
 16777215
176
     1
 74
     0
176
     1
 91
        4
176
     1
 64
     7
176
     1
 65
   257
176
     1
 75
     1
176
     1
175
     1
176
     1
 42
1.0
176
     1
 92
        8
176
     1
 66
     7
176
     1
 43
1.0
176
     1
 76
     1
176
     1
 77
     6
176
     1
 78
     2
176
     1
 67
     7
176
     1
 79
     5
176
     1
170
     0
176
     1
171
     0
176
     1
290
     0
176
     1
 93
       13
176
     1
 44
0.0
176
     1
173
     0
176
     1
  0
VISUALSTYLE
  5
2C
102
{ACAD_REACTORS
330
2A
102
}
330
2A
100
AcDbVisualStyle
  2
FlatWithEdges
 70
     1
177
     2
291
     1
 71
     2
176
     1
 72
     1
176
     1
 73
     1
176
     1
 90
        2
176
     1
 40
-0.6
176
     1
 41
30.0
176
     1
 62
     5
 63
     7
421
 16777215
176
     1
 74
     1
176
     1
 91
        4
176
     1
 64
     7
176
     1
 65
   257
176
     1
 75
     1
176
     1
175
     1
176
     1
 42
1.0
176
     1
 92
        0
176
     1
 66
   257
176
     1
 43
1.0
176
     1
 76
     1
176
     1
 77
     6
176
     1
 78
     2
176
     1
 67
     7
176
     1
 79
     5
176
     1
170
     0
176
     1
171
     0
176
     1
290
     0
176
     1
 93
       13
176
     1
 44
0.0
176
     1
173
     0
176
     1
  0
VISUALSTYLE
  5
2D
102
{ACAD_REACTORS
330
2A
102
}
330
2A
100
AcDbVisualStyle
  2
Gouraud
 70
     2
177
     2
291
     1
 71
     2
176
     1
 72
     2
176
     1
 73
     1
176
     1
 90
        2
176
     1
 40
-0.6
176
     1
 41
30.0
176
     1
 62
     5
 63
     7
421
 16777215
176
     1
 74
     0
176
     1
 91
        4
176
     1
 64
     7
176
     1
 65
   257
176
     1
 75
     1
176
     1
175
     1
176
     1
 42
1.0
176
     1
 92
        0
176
     1
 66
     7
176
     1
 43
1.0
176
     1
 76
     1
176
     1
 77
     6
176
     1
 78
     2
176
     1
 67
     7
176
     1
 79
     5
176
     1
170
     0
176
     1
171
     0
176
     1
290
     0
176
     1
 93
       13
176
     1
 44
0.0
176
     1
173
     0
176
     1
  0
VISUALSTYLE
  5
2E
102
{ACAD_REACTORS
330
2A
102
}
330
2A
100
AcDbVisualStyle
  2
GouraudWithEdges
 70
     3
177
     2
291
     1
 71
     2
176
     1
 72
     2
176
     1
 73
     1
176
     1
 90
        2
176
     1
 40
-0.6
176
     1
 41
30.0
176
     1
 62
     5
 63
     7
421
 16777215
176
     1
 74
     1
176
     1
 91
        4
176
     1
 64
     7
176
     1
 65
   257
176
     1
 75
     1
176
     1
175
     1
176
     1
 42
1.0
176
     1
 92
        0
176
     1
 66
   257
176
     1
 43
1.0
176
     1
 76
     1
176
     1
 77
     6
176
     1
 78
     2
176
     1
 67
     7
176
     1
 79
     5
176
     1
170
     0
176
     1
171
     0
176
     1
290
     0
176
     1
 93
       13
176
     1
 44
0.0
176
     1
173
     0
176
     1
  0
VISUALSTYLE
  5
38
102
{ACAD_REACTORS
330
2A
102
}
330
2A
100
AcDbVisualStyle
  2
Linepattern
 70
    14
177
     2
291
     1
 71
     2
176
     1
 72
     2
176
     1
 73
     0
176
     1
 90
        0
176
     1
 40
-0.6
176
     1
 41
-30.0
176
     1
 62
     5
 63
     7
421
 16777215
176
     1
 74
     1
176
     1
 91
        4
176
     1
 64
     7
176
     1
 65
   257
176
     1
 75
     7
176
     1
175
     7
176
     1
 42
1.0
176
     1
 92
        8
176
     1
 66
     7
176
     1
 43
1.0
176
     1
 76
     1
176
     1
 77
     6
176
     1
 78
     2
176
     1
 67
     7
176
     1
 79
     5
176
     1
170
     0
176
     1
171
     0
176
     1
290
     0
176
     1
 93
        1
176
     1
 44
0.0
176
     1
173
     0
176
     1
  0
VISUALSTYLE
  5
33
102
{ACAD_REACTORS
330
2A
102
}
330
2A
100
AcDbVisualStyle
  2
Realistic
 70
     8
177
     2
291
     0
 71
     2
176
     1
 72
     2
176
     1
 73
     0
176
     1
 90
        0
176
     1
 40
-0.6
176
     1
 41
-30.0
176
     1
 62
     5
 63
     7
421
 16777215
176
     1
 74
     1
176
     1
 91
        0
176
     1
 64
     7
176
     1
 65
   257
176
     1
 75
     1
176
     1
175
     1
176
     1
 42
1.0
176
     1
 92
        8
176
     1
 66
     8
424
  7895160
176
     1
 43
1.0
176
     1
 76
     1
176
     1
 77
     6
176
     1
 78
     2
176
     1
 67
     7
176
     1
 79
     5
176
     1
170
     0
176
     1
171
     0
176
     1
290
     0
176
     1
 93
       13
176
     1
 44
0.0
176
     1
173
     0
176
     1
  0
VISUALSTYLE
  5
37
102
{ACAD_REACTORS
330
2A
102
}
330
2A
100
AcDbVisualStyle
  2
Thicken
 70
    13
177
     2
291
     1
 71
     2
176
     1
 72
     2
176
     1
 73
     0
176
     1
 90
        0
176
     1
 40
-0.6
176
     1
 41
-30.0
176
     1
 62
     5
 63
     7
421
 16777215
176
     1
 74
     1
176
     1
 91
        4
176
     1
 64
     7
176
     1
 65
   257
176
     1
 75
     1
176
     1
175
     1
176
     1
 42
1.0
176
     1
 92
       12
176
     1
 66
     7
176
     1
 43
1.0
176
     1
 76
     1
176
     1
 77
     6
176
     1
 78
     2
176
     1
 67
     7
176
     1
 79
     5
176
     1
170
     0
176
     1
171
     0
176
     1
290
     0
176
     1
 93
        1
176
     1
 44
0.0
176
     1
173
     0
176
     1
  0
ENDSEC
  0
EOF
