  0
SECTION
  2
HEADER
  9
$ACADVER
  1
AC1024
  9
$ACADMAINTVER
 70
     6
  9
$DWGCODEPAGE
  3
ANSI_1251
  9
$INSBASE
 10
0.0
 20
0.0
 30
0.0
  9
$EXTMIN
 10
1.000000000000000E+20
 20
1.000000000000000E+20
 30
1.000000000000000E+20
  9
$EXTMAX
 10
-1.000000000000000E+20
 20
-1.000000000000000E+20
 30
-1.000000000000000E+20
  9
$LIMMIN
 10
0.0
 20
0.0
  9
$LIMMAX
 10
12.0
 20
9.0
  9
$ORTHOMODE
 70
     0
  9
$REGENMODE
 70
     1
  9
$FILLMODE
 70
     1
  9
$QTEXTMODE
 70
     0
  9
$MIRRTEXT
 70
     1
  9
$LTSCALE
 40
1.0
  9
$ATTMODE
 70
     1
  9
$TEXTSIZE
 40
0.2
  9
$TRACEWID
 40
0.05
  9
$TEXTSTYLE
  7
Standard
  9
$CLAYER
  8
0
  9
$CELTYPE
  6
ByLayer
  9
$CECOLOR
 62
   256
  9
$CELTSCALE
 40
1.0
  9
$DISPSILH
 70
     0
  9
$DIMSCALE
 40
1.0
  9
$DIMASZ
 40
0.18
  9
$DIMEXO
 40
0.0625
  9
$DIMDLI
 40
0.38
  9
$DIMRND
 40
0.0
  9
$DIMDLE
 40
0.0
  9
$DIMEXE
 40
0.18
  9
$DIMTP
 40
0.0
  9
$DIMTM
 40
0.0
  9
$DIMTXT
 40
0.18
  9
$DIMCEN
 40
0.09
  9
$DIMTSZ
 40
0.0
  9
$DIMTOL
 70
     0
  9
$DIMLIM
 70
     0
  9
$DIMTIH
 70
     1
  9
$DIMTOH
 70
     1
  9
$DIMSE1
 70
     0
  9
$DIMSE2
 70
     0
  9
$DIMTAD
 70
     0
  9
$DIMZIN
 70
     0
  9
$DIMBLK
  1

  9
$DIMASO
 70
     1
  9
$DIMSHO
 70
     1
  9
$DIMPOST
  1

  9
$DIMAPOST
  1

  9
$DIMALT
 70
     0
  9
$DIMALTD
 70
     2
  9
$DIMALTF
 40
25.4
  9
$DIMLFAC
 40
1.0
  9
$DIMTOFL
 70
     0
  9
$DIMTVP
 40
0.0
  9
$DIMTIX
 70
     0
  9
$DIMSOXD
 70
     0
  9
$DIMSAH
 70
     0
  9
$DIMBLK1
  1

  9
$DIMBLK2
  1

  9
$DIMSTYLE
  2
Standard
  9
$DIMCLRD
 70
     0
  9
$DIMCLRE
 70
     0
  9
$DIMCLRT
 70
     0
  9
$DIMTFAC
 40
1.0
  9
$DIMGAP
 40
0.09
  9
$DIMJUST
 70
     0
  9
$DIMSD1
 70
     0
  9
$DIMSD2
 70
     0
  9
$DIMTOLJ
 70
     1
  9
$DIMTZIN
 70
     0
  9
$DIMALTZ
 70
     0
  9
$DIMALTTZ
 70
     0
  9
$DIMUPT
 70
     0
  9
$DIMDEC
 70
     4
  9
$DIMTDEC
 70
     4
  9
$DIMALTU
 70
     2
  9
$DIMALTTD
 70
     2
  9
$DIMTXSTY
  7
Standard
  9
$DIMAUNIT
 70
     0
  9
$DIMADEC
 70
     0
  9
$DIMALTRND
 40
0.0
  9
$DIMAZIN
 70
     0
  9
$DIMDSEP
 70
    46
  9
$DIMATFIT
 70
     3
  9
$DIMFRAC
 70
     0
  9
$DIMLDRBLK
  1

  9
$DIMLUNIT
 70
     2
  9
$DIMLWD
 70
    -2
  9
$DIMLWE
 70
    -2
  9
$DIMTMOVE
 70
     0
  9
$DIMFXL
 40
1.0
  9
$DIMFXLON
 70
     0
  9
$DIMJOGANG
 40
0.7853981633974483
  9
$DIMTFILL
 70
     0
  9
$DIMTFILLCLR
 70
     0
  9
$DIMARCSYM
 70
     0
  9
$DIMLTYPE
  6

  9
$DIMLTEX1
  6

  9
$DIMLTEX2
  6

  9
$DIMTXTDIRECTION
 70
     0
  9
$LUNITS
 70
     2
  9
$LUPREC
 70
     4
  9
$SKETCHINC
 40
0.1
  9
$FILLETRAD
 40
0.5
  9
$AUNITS
 70
     0
  9
$AUPREC
 70
     0
  9
$MENU
  1
.
  9
$ELEVATION
 40
0.0
  9
$PELEVATION
 40
0.0
  9
$THICKNESS
 40
0.0
  9
$LIMCHECK
 70
     0
  9
$CHAMFERA
 40
0.5
  9
$CHAMFERB
 40
0.5
  9
$CHAMFERC
 40
1.0
  9
$CHAMFERD
 40
0.0
  9
$SKPOLY
 70
     0
  9
$TDCREATE
 40
2459337.658414178
  9
$TDUCREATE
 40
2459337.533414178
  9
$TDUPDATE
 40
2459337.658414363
  9
$TDUUPDATE
 40
2459337.533414363
  9
$TDINDWG
 40
0.0000000116
  9
$TDUSRTIMER
 40
0.0000000116
  9
$USRTIMER
 70
     1
  9
$ANGBASE
 50
0.0
  9
$ANGDIR
 70
     0
  9
$PDMODE
 70
     0
  9
$PDSIZE
 40
0.0
  9
$PLINEWID
 40
0.0
  9
$SPLFRAME
 70
     0
  9
$SPLINETYPE
 70
     6
  9
$SPLINESEGS
 70
     8
  9
$HANDSEED
  5
4C
  9
$SURFTAB1
 70
     6
  9
$SURFTAB2
 70
     6
  9
$SURFTYPE
 70
     6
  9
$SURFU
 70
     6
  9
$SURFV
 70
     6
  9
$UCSBASE
  2

  9
$UCSNAME
  2

  9
$UCSORG
 10
0.0
 20
0.0
 30
0.0
  9
$UCSXDIR
 10
1.0
 20
0.0
 30
0.0
  9
$UCSYDIR
 10
0.0
 20
1.0
 30
0.0
  9
$UCSORTHOREF
  2

  9
$UCSORTHOVIEW
 70
     0
  9
$UCSORGTOP
 10
0.0
 20
0.0
 30
0.0
  9
$UCSORGBOTTOM
 10
0.0
 20
0.0
 30
0.0
  9
$UCSORGLEFT
 10
0.0
 20
0.0
 30
0.0
  9
$UCSORGRIGHT
 10
0.0
 20
0.0
 30
0.0
  9
$UCSORGFRONT
 10
0.0
 20
0.0
 30
0.0
  9
$UCSORGBACK
 10
0.0
 20
0.0
 30
0.0
  9
$PUCSBASE
  2

  9
$PUCSNAME
  2

  9
$PUCSORG
 10
0.0
 20
0.0
 30
0.0
  9
$PUCSXDIR
 10
1.0
 20
0.0
 30
0.0
  9
$PUCSYDIR
 10
0.0
 20
1.0
 30
0.0
  9
$PUCSORTHOREF
  2

  9
$PUCSORTHOVIEW
 70
     0
  9
$PUCSORGTOP
 10
0.0
 20
0.0
 30
0.0
  9
$PUCSORGBOTTOM
 10
0.0
 20
0.0
 30
0.0
  9
$PUCSORGLEFT
 10
0.0
 20
0.0
 30
0.0
  9
$PUCSORGRIGHT
 10
0.0
 20
0.0
 30
0.0
  9
$PUCSORGFRONT
 10
0.0
 20
0.0
 30
0.0
  9
$PUCSORGBACK
 10
0.0
 20
0.0
 30
0.0
  9
$USERI1
 70
     0
  9
$USERI2
 70
     0
  9
$USERI3
 70
     0
  9
$USERI4
 70
     0
  9
$USERI5
 70
     0
  9
$USERR1
 40
0.0
  9
$USERR2
 40
0.0
  9
$USERR3
 40
0.0
  9
$USERR4
 40
0.0
  9
$USERR5
 40
0.0
  9
$WORLDVIEW
 70
     1
  9
$SHADEDGE
 70
     3
  9
$SHADEDIF
 70
    70
  9
$TILEMODE
 70
     1
  9
$MAXACTVP
 70
    64
  9
$PINSBASE
 10
0.0
 20
0.0
 30
0.0
  9
$PLIMCHECK
 70
     0
  9
$PEXTMIN
 10
1.000000000000000E+20
 20
1.000000000000000E+20
 30
1.000000000000000E+20
  9
$PEXTMAX
 10
-1.000000000000000E+20
 20
-1.000000000000000E+20
 30
-1.000000000000000E+20
  9
$PLIMMIN
 10
0.0
 20
0.0
  9
$PLIMMAX
 10
12.0
 20
9.0
  9
$UNITMODE
 70
     0
  9
$VISRETAIN
 70
     1
  9
$PLINEGEN
 70
     0
  9
$PSLTSCALE
 70
     1
  9
$TREEDEPTH
 70
  3020
  9
$CMLSTYLE
  2
Standard
  9
$CMLJUST
 70
     0
  9
$CMLSCALE
 40
1.0
  9
$PROXYGRAPHICS
 70
     1
  9
$MEASUREMENT
 70
     0
  9
$CELWEIGHT
370
    -1
  9
$ENDCAPS
280
     0
  9
$JOINSTYLE
280
     0
  9
$LWDISPLAY
290
     1
  9
$INSUNITS
 70
     1
  9
$HYPERLINKBASE
  1

  9
$STYLESHEET
  1

  9
$XEDIT
290
     1
  9
$CEPSNTYPE
380
     0
  9
$PSTYLEMODE
290
     1
  9
$FINGERPRINTGUID
  2
{0A222904-5328-4111-B374-1AE2F39702E0}
  9
$VERSIONGUID
  2
{FAEB1C32-E019-11D5-929B-00C0DF256EC4}
  9
$EXTNAMES
290
     1
  9
$PSVPSCALE
 40
0.0
  9
$OLESTARTUP
290
     0
  9
$SORTENTS
280
   127
  9
$INDEXCTL
280
     0
  9
$HIDETEXT
280
     1
  9
$XCLIPFRAME
280
     2
  9
$HALOGAP
280
     0
  9
$OBSCOLOR
 70
   257
  9
$OBSLTYPE
280
     0
  9
$INTERSECTIONDISPLAY
280
     0
  9
$INTERSECTIONCOLOR
 70
   257
  9
$DIMASSOC
280
     2
  9
$PROJECTNAME
  1

  9
$CAMERADISPLAY
290
     0
  9
$LENSLENGTH
 40
50.0
  9
$CAMERAHEIGHT
 40
0.0
  9
$STEPSPERSEC
 40
2.0
  9
$STEPSIZE
 40
6.0
  9
$3DDWFPREC
 40
2.0
  9
$PSOLWIDTH
 40
0.25
  9
$PSOLHEIGHT
 40
4.0
  9
$LOFTANG1
 40
1.570796326794897
  9
$LOFTANG2
 40
1.570796326794897
  9
$LOFTMAG1
 40
0.0
  9
$LOFTMAG2
 40
0.0
  9
$LOFTPARAM
 70
     7
  9
$LOFTNORMALS
280
     1
  9
$LATITUDE
 40
37.795
  9
$LONGITUDE
 40
-122.394
  9
$NORTHDIRECTION
 40
0.0
  9
$TIMEZONE
 70
 -8000
  9
$LIGHTGLYPHDISPLAY
280
     1
  9
$TILEMODELIGHTSYNCH
280
     1
  9
$CMATERIAL
347
3C
  9
$SOLIDHIST
280
     1
  9
$SHOWHIST
280
     1
  9
$DWFFRAME
280
     2
  9
$DGNFRAME
280
     2
  9
$REALWORLDSCALE
290
     1
  9
$INTERFERECOLOR
 62
   256
  9
$CSHADOW
280
     0
  9
$SHADOWPLANELOCATION
 40
0.0
  0
ENDSEC
  0
SECTION
  2
CLASSES
  0
CLASS
  1
ACDBDICTIONARYWDFLT
  2
AcDbDictionaryWithDefault
  3
ObjectDBX Classes
 90
        0
 91
        4
280
     0
281
     0
  0
CLASS
  1
VISUALSTYLE
  2
AcDbVisualStyle
  3
ObjectDBX Classes
 90
     4095
 91
        4
280
     0
281
     0
  0
CLASS
  1
MATERIAL
  2
AcDbMaterial
  3
ObjectDBX Classes
 90
     1153
 91
        4
280
     0
281
     0
  0
CLASS
  1
SUN
  2
AcDbSun
  3
SCENEOE
 90
     1024
 91
        4
280
     0
281
     0
  0
ENDSEC
  0
SECTION
  2
TABLES
  0
TABLE
  2
VPORT
  5
8
330
0
100
AcDbSymbolTable
 70
     1
  0
VPORT
  5
29
330
8
100
AcDbSymbolTableRecord
100
AcDbViewportTableRecord
  2
*Active
 70
     0
 10
0.0
 20
0.0
 11
1.0
 21
1.0
 12
0.0
 22
0.0
 13
0.0
 23
0.0
 14
0.5
 24
0.5
 15
0.5
 25
0.5
 16
0.0
 26
0.0
 36
1.0
 17
6.026542057119665
 27
-6.059229166666657
 37
0.0
 40
12.0
 41
0.9999155997400068
 42
50.0
 43
0.0
 44
0.0
 50
0.0
 51
0.0
 71
     0
 72
   100
 73
     1
 74
     3
 75
     0
 76
     0
 77
     0
 78
     0
281
     0
 65
     1
110
0.0
120
0.0
130
0.0
111
1.0
121
0.0
131
0.0
112
0.0
122
1.0
132
0.0
 79
     0
146
0.0
 60
     3
 61
     5
292
     1
282
     1
141
0.0
142
0.0
 63
   250
361
3F
  0
ENDTAB
  0
TABLE
  2
LTYPE
  5
5
330
0
100
AcDbSymbolTable
 70
     1
  0
LTYPE
  5
14
330
5
100
AcDbSymbolTableRecord
100
AcDbLinetypeTableRecord
  2
ByBlock
 70
     0
  3

 72
    65
 73
     0
 40
0.0
  0
LTYPE
  5
15
330
5
100
AcDbSymbolTableRecord
100
AcDbLinetypeTableRecord
  2
ByLayer
 70
     0
  3

 72
    65
 73
     0
 40
0.0
  0
LTYPE
  5
16
330
5
100
AcDbSymbolTableRecord
100
AcDbLinetypeTableRecord
  2
Continuous
 70
     0
  3
Solid line
 72
    65
 73
     0
 40
0.0
  0
ENDTAB
  0
TABLE
  2
LAYER
  5
2
330
0
100
AcDbSymbolTable
 70
     2
  0
LAYER
  5
10
330
2
100
AcDbSymbolTableRecord
100
AcDbLayerTableRecord
  2
0
 70
     0
 62
     7
  6
Continuous
370
    -3
390
F
347
3E
  0
LAYER
  5
40
330
2
100
AcDbSymbolTableRecord
100
AcDbLayerTableRecord
  2
Layer 1
 70
     0
 62
     7
  6
Continuous
370
    -3
390
F
347
3E
  0
ENDTAB
  0
TABLE
  2
STYLE
  5
3
330
0
100
AcDbSymbolTable
 70
     1
  0
STYLE
  5
11
330
3
100
AcDbSymbolTableRecord
100
AcDbTextStyleTableRecord
  2
Standard
 70
     0
 40
0.0
 41
1.0
 50
0.0
 71
     0
 42
0.2
  3
txt
  4

  0
ENDTAB
  0
TABLE
  2
VIEW
  5
6
330
0
100
AcDbSymbolTable
 70
     0
  0
ENDTAB
  0
TABLE
  2
UCS
  5
7
330
0
100
AcDbSymbolTable
 70
     0
  0
ENDTAB
  0
TABLE
  2
APPID
  5
9
330
0
100
AcDbSymbolTable
 70
     1
  0
APPID
  5
12
330
9
100
AcDbSymbolTableRecord
100
AcDbRegAppTableRecord
  2
ACAD
 70
     0
  0
ENDTAB
  0
TABLE
  2
DIMSTYLE
  5
A
330
0
100
AcDbSymbolTable
 70
     1
100
AcDbDimStyleTable
  0
DIMSTYLE
105
27
330
A
100
AcDbSymbolTableRecord
100
AcDbDimStyleTableRecord
  2
Standard
 70
     0
178
     0
340
11
  0
ENDTAB
  0
TABLE
  2
BLOCK_RECORD
  5
1
330
0
100
AcDbSymbolTable
 70
     1
  0
BLOCK_RECORD
  5
1F
330
1
100
AcDbSymbolTableRecord
100
AcDbBlockTableRecord
  2
*Model_Space
340
22
 70
     0
280
     1
281
     0
  0
BLOCK_RECORD
  5
1B
330
1
100
AcDbSymbolTableRecord
100
AcDbBlockTableRecord
  2
*Paper_Space
340
1E
 70
     0
280
     1
281
     0
  0
BLOCK_RECORD
  5
23
330
1
100
AcDbSymbolTableRecord
100
AcDbBlockTableRecord
  2
*Paper_Space0
340
26
 70
     0
280
     1
281
     0
  0
ENDTAB
  0
ENDSEC
  0
SECTION
  2
BLOCKS
  0
BLOCK
  5
20
330
1F
100
AcDbEntity
  8
0
100
AcDbBlockBegin
  2
*Model_Space
 70
     0
 10
0.0
 20
0.0
 30
0.0
  3
*Model_Space
  1

  0
ENDBLK
  5
21
330
1F
100
AcDbEntity
  8
0
100
AcDbBlockEnd
  0
BLOCK
  5
1C
330
1B
100
AcDbEntity
 67
     1
  8
0
100
AcDbBlockBegin
  2
*Paper_Space
 70
     0
 10
0.0
 20
0.0
 30
0.0
  3
*Paper_Space
  1

  0
ENDBLK
  5
1D
330
1B
100
AcDbEntity
 67
     1
  8
0
100
AcDbBlockEnd
  0
BLOCK
  5
24
330
23
100
AcDbEntity
  8
0
100
AcDbBlockBegin
  2
*Paper_Space0
 70
     0
 10
0.0
 20
0.0
 30
0.0
  3
*Paper_Space0
  1

  0
ENDBLK
  5
25
330
23
100
AcDbEntity
  8
0
100
AcDbBlockEnd
  0
ENDSEC
  0
SECTION
  2
ENTITIES
  0
SPLINE
  5
41
330
1F
100
AcDbEntity
  8
Layer 1
370
     0
100
AcDbSpline
210
0.0
220
0.0
230
1.0
 70
    11
 71
     3
 72
   614
 73
   610
 74
     0
 42
0.0000000001
 43
0.0000000001
 12
1.0
 22
0.0
 32
0.0
 13
1.0
 23
0.0
 33
0.0
 40
0.0
 40
0.0
 40
0.0
 40
0.0
 40
1.0
 40
1.0
 40
1.0
 40
2.0
 40
2.0
 40
2.0
 40
3.0
 40
3.0
 40
3.0
 40
4.0
 40
4.0
 40
4.0
 40
5.0
 40
5.0
 40
5.0
 40
6.0
 40
6.0
 40
6.0
 40
7.0
 40
7.0
 40
7.0
 40
8.0
 40
8.0
 40
8.0
 40
9.0
 40
9.0
 40
9.0
 40
10.0
 40
10.0
 40
10.0
 40
11.0
 40
11.0
 40
11.0
 40
12.0
 40
12.0
 40
12.0
 40
13.0
 40
13.0
 40
13.0
 40
14.0
 40
14.0
 40
14.0
 40
15.0
 40
15.0
 40
15.0
 40
16.0
 40
16.0
 40
16.0
 40
17.0
 40
17.0
 40
17.0
 40
18.0
 40
18.0
 40
18.0
 40
19.0
 40
19.0
 40
19.0
 40
20.0
 40
20.0
 40
20.0
 40
21.0
 40
21.0
 40
21.0
 40
22.0
 40
22.0
 40
22.0
 40
23.0
 40
23.0
 40
23.0
 40
24.0
 40
24.0
 40
24.0
 40
25.0
 40
25.0
 40
25.0
 40
26.0
 40
26.0
 40
26.0
 40
27.0
 40
27.0
 40
27.0
 40
28.0
 40
28.0
 40
28.0
 40
29.0
 40
29.0
 40
29.0
 40
30.0
 40
30.0
 40
30.0
 40
31.0
 40
31.0
 40
31.0
 40
32.0
 40
32.0
 40
32.0
 40
33.0
 40
33.0
 40
33.0
 40
34.0
 40
34.0
 40
34.0
 40
35.0
 40
35.0
 40
35.0
 40
36.0
 40
36.0
 40
36.0
 40
37.0
 40
37.0
 40
37.0
 40
38.0
 40
38.0
 40
38.0
 40
39.0
 40
39.0
 40
39.0
 40
40.0
 40
40.0
 40
40.0
 40
41.0
 40
41.0
 40
41.0
 40
42.0
 40
42.0
 40
42.0
 40
43.0
 40
43.0
 40
43.0
 40
44.0
 40
44.0
 40
44.0
 40
45.0
 40
45.0
 40
45.0
 40
46.0
 40
46.0
 40
46.0
 40
47.0
 40
47.0
 40
47.0
 40
48.0
 40
48.0
 40
48.0
 40
49.0
 40
49.0
 40
49.0
 40
50.0
 40
50.0
 40
50.0
 40
51.0
 40
51.0
 40
51.0
 40
52.0
 40
52.0
 40
52.0
 40
53.0
 40
53.0
 40
53.0
 40
54.0
 40
54.0
 40
54.0
 40
55.0
 40
55.0
 40
55.0
 40
56.0
 40
56.0
 40
56.0
 40
57.0
 40
57.0
 40
57.0
 40
58.0
 40
58.0
 40
58.0
 40
59.0
 40
59.0
 40
59.0
 40
60.0
 40
60.0
 40
60.0
 40
61.0
 40
61.0
 40
61.0
 40
62.0
 40
62.0
 40
62.0
 40
63.0
 40
63.0
 40
63.0
 40
64.0
 40
64.0
 40
64.0
 40
65.0
 40
65.0
 40
65.0
 40
66.0
 40
66.0
 40
66.0
 40
67.0
 40
67.0
 40
67.0
 40
68.0
 40
68.0
 40
68.0
 40
69.0
 40
69.0
 40
69.0
 40
70.0
 40
70.0
 40
70.0
 40
71.0
 40
71.0
 40
71.0
 40
72.0
 40
72.0
 40
72.0
 40
73.0
 40
73.0
 40
73.0
 40
74.0
 40
74.0
 40
74.0
 40
75.0
 40
75.0
 40
75.0
 40
76.0
 40
76.0
 40
76.0
 40
77.0
 40
77.0
 40
77.0
 40
78.0
 40
78.0
 40
78.0
 40
79.0
 40
79.0
 40
79.0
 40
80.0
 40
80.0
 40
80.0
 40
81.0
 40
81.0
 40
81.0
 40
82.0
 40
82.0
 40
82.0
 40
83.0
 40
83.0
 40
83.0
 40
84.0
 40
84.0
 40
84.0
 40
85.0
 40
85.0
 40
85.0
 40
86.0
 40
86.0
 40
86.0
 40
87.0
 40
87.0
 40
87.0
 40
88.0
 40
88.0
 40
88.0
 40
89.0
 40
89.0
 40
89.0
 40
90.0
 40
90.0
 40
90.0
 40
91.0
 40
91.0
 40
91.0
 40
92.0
 40
92.0
 40
92.0
 40
93.0
 40
93.0
 40
93.0
 40
94.0
 40
94.0
 40
94.0
 40
95.0
 40
95.0
 40
95.0
 40
96.0
 40
96.0
 40
96.0
 40
97.0
 40
97.0
 40
97.0
 40
98.0
 40
98.0
 40
98.0
 40
99.0
 40
99.0
 40
99.0
 40
100.0
 40
100.0
 40
100.0
 40
101.0
 40
101.0
 40
101.0
 40
102.0
 40
102.0
 40
102.0
 40
103.0
 40
103.0
 40
103.0
 40
104.0
 40
104.0
 40
104.0
 40
105.0
 40
105.0
 40
105.0
 40
106.0
 40
106.0
 40
106.0
 40
107.0
 40
107.0
 40
107.0
 40
108.0
 40
108.0
 40
108.0
 40
109.0
 40
109.0
 40
109.0
 40
110.0
 40
110.0
 40
110.0
 40
111.0
 40
111.0
 40
111.0
 40
112.0
 40
112.0
 40
112.0
 40
113.0
 40
113.0
 40
113.0
 40
114.0
 40
114.0
 40
114.0
 40
115.0
 40
115.0
 40
115.0
 40
116.0
 40
116.0
 40
116.0
 40
117.0
 40
117.0
 40
117.0
 40
118.0
 40
118.0
 40
118.0
 40
119.0
 40
119.0
 40
119.0
 40
120.0
 40
120.0
 40
120.0
 40
121.0
 40
121.0
 40
121.0
 40
122.0
 40
122.0
 40
122.0
 40
123.0
 40
123.0
 40
123.0
 40
124.0
 40
124.0
 40
124.0
 40
125.0
 40
125.0
 40
125.0
 40
126.0
 40
126.0
 40
126.0
 40
127.0
 40
127.0
 40
127.0
 40
128.0
 40
128.0
 40
128.0
 40
129.0
 40
129.0
 40
129.0
 40
130.0
 40
130.0
 40
130.0
 40
131.0
 40
131.0
 40
131.0
 40
132.0
 40
132.0
 40
132.0
 40
133.0
 40
133.0
 40
133.0
 40
134.0
 40
134.0
 40
134.0
 40
135.0
 40
135.0
 40
135.0
 40
136.0
 40
136.0
 40
136.0
 40
137.0
 40
137.0
 40
137.0
 40
138.0
 40
138.0
 40
138.0
 40
139.0
 40
139.0
 40
139.0
 40
140.0
 40
140.0
 40
140.0
 40
141.0
 40
141.0
 40
141.0
 40
142.0
 40
142.0
 40
142.0
 40
143.0
 40
143.0
 40
143.0
 40
144.0
 40
144.0
 40
144.0
 40
145.0
 40
145.0
 40
145.0
 40
146.0
 40
146.0
 40
146.0
 40
147.0
 40
147.0
 40
147.0
 40
148.0
 40
148.0
 40
148.0
 40
149.0
 40
149.0
 40
149.0
 40
150.0
 40
150.0
 40
150.0
 40
151.0
 40
151.0
 40
151.0
 40
152.0
 40
152.0
 40
152.0
 40
153.0
 40
153.0
 40
153.0
 40
154.0
 40
154.0
 40
154.0
 40
155.0
 40
155.0
 40
155.0
 40
156.0
 40
156.0
 40
156.0
 40
157.0
 40
157.0
 40
157.0
 40
158.0
 40
158.0
 40
158.0
 40
159.0
 40
159.0
 40
159.0
 40
160.0
 40
160.0
 40
160.0
 40
161.0
 40
161.0
 40
161.0
 40
162.0
 40
162.0
 40
162.0
 40
163.0
 40
163.0
 40
163.0
 40
164.0
 40
164.0
 40
164.0
 40
165.0
 40
165.0
 40
165.0
 40
166.0
 40
166.0
 40
166.0
 40
167.0
 40
167.0
 40
167.0
 40
168.0
 40
168.0
 40
168.0
 40
169.0
 40
169.0
 40
169.0
 40
170.0
 40
170.0
 40
170.0
 40
171.0
 40
171.0
 40
171.0
 40
172.0
 40
172.0
 40
172.0
 40
173.0
 40
173.0
 40
173.0
 40
174.0
 40
174.0
 40
174.0
 40
175.0
 40
175.0
 40
175.0
 40
176.0
 40
176.0
 40
176.0
 40
177.0
 40
177.0
 40
177.0
 40
178.0
 40
178.0
 40
178.0
 40
179.0
 40
179.0
 40
179.0
 40
180.0
 40
180.0
 40
180.0
 40
181.0
 40
181.0
 40
181.0
 40
182.0
 40
182.0
 40
182.0
 40
183.0
 40
183.0
 40
183.0
 40
184.0
 40
184.0
 40
184.0
 40
185.0
 40
185.0
 40
185.0
 40
186.0
 40
186.0
 40
186.0
 40
187.0
 40
187.0
 40
187.0
 40
188.0
 40
188.0
 40
188.0
 40
189.0
 40
189.0
 40
189.0
 40
190.0
 40
190.0
 40
190.0
 40
191.0
 40
191.0
 40
191.0
 40
192.0
 40
192.0
 40
192.0
 40
193.0
 40
193.0
 40
193.0
 40
194.0
 40
194.0
 40
194.0
 40
195.0
 40
195.0
 40
195.0
 40
196.0
 40
196.0
 40
196.0
 40
197.0
 40
197.0
 40
197.0
 40
198.0
 40
198.0
 40
198.0
 40
199.0
 40
199.0
 40
199.0
 40
200.0
 40
200.0
 40
200.0
 40
201.0
 40
201.0
 40
201.0
 40
202.0
 40
202.0
 40
202.0
 40
203.0
 40
203.0
 40
203.0
 40
203.0
 10
6.90907343657323
 20
-3.19801944444445
 30
0.0
 10
6.8965345480011
 20
-3.05724444444445
 30
0.0
 10
6.896369270227498
 20
-2.915876388888894
 30
0.0
 10
6.898581770171606
 20
-2.774608333333339
 30
0.0
 10
6.902474825628815
 20
-2.52580972222222
 30
0.0
 10
6.964867879608189
 20
-2.280423611111107
 30
0.0
 10
6.950634546634419
 20
-2.030865277777782
 30
0.0
 10
6.938435935831471
 20
-1.817080555555561
 30
0.0
 10
6.851951215794037
 20
-1.630901388888889
 30
0.0
 10
6.716320663664797
 20
-1.466931944444443
 30
0.0
 10
6.66479983163299
 20
-1.404640277777781
 30
0.0
 10
6.598172055538371
 20
-1.34749305555556
 30
0.0
 10
6.620835943854722
 20
-1.473694444444441
 30
0.0
 10
6.670323442604563
 20
-1.74916388888889
 30
0.0
 10
6.593267888995594
 20
-2.01888333333333
 30
0.0
 10
6.498238724729567
 20
-2.275531944444449
 30
0.0
 10
6.450458333333345
 20
-2.404588888888889
 30
0.0
 10
6.398026227261147
 20
-2.531990277777772
 30
0.0
 10
6.355023450569711
 20
-2.662779166666673
 30
0.0
 10
6.335026228852661
 20
-2.72361666666667
 30
0.0
 10
6.316458333333331
 20
-2.785150000000006
 30
0.0
 10
6.298750000000003
 20
-2.846670833333329
 30
0.0
 10
6.285287341220283
 20
-2.893426388888884
 30
0.0
 10
6.257680555555553
 20
-3.002019444444449
 30
0.0
 10
6.24504012001479
 20
-3.064437500000003
 30
0.0
 10
6.235395675813985
 20
-3.036123611111116
 30
0.0
 10
6.225574842728747
 20
-3.007884722222216
 30
0.0
 10
6.215259565211555
 20
-2.979836111111113
 30
0.0
 10
6.09181512388558
 20
-2.64404583333333
 30
0.0
 10
6.008629014875926
 20
-2.294238888888887
 30
0.0
 10
5.962265127158288
 20
-1.939627777777774
 30
0.0
 10
5.91420679503901
 20
-1.572150000000003
 30
0.0
 10
5.929323461323798
 20
-1.164056944444446
 30
0.0
 10
5.724892910932592
 20
-0.8392527777777761
 30
0.0
 10
5.594267914232457
 20
-0.6317111111111064
 30
0.0
 10
5.369245697694774
 20
-0.4050583333333356
 30
0.0
 10
5.370648475437116
 20
-0.1429611111111121
 30
0.0
 10
5.371040142093888
 20
-0.1228005555555506
 30
0.0
 10
5.379913752980833
 20
-0.0699515277777765
 30
0.0
 10
5.358942920177267
 20
-0.0609895833333288
 30
0.0
 10
5.337252642947432
 20
-0.0517368055555557
 30
0.0
 10
5.315966532374053
 20
-0.0810876388888902
 30
0.0
 10
5.302429032716039
 20
-0.0994787500000029
 30
0.0
 10
5.227522090163903
 20
-0.2011583333333344
 30
0.0
 10
5.206260979589893
 20
-0.3183208333333343
 30
0.0
 10
5.185797091217965
 20
-0.4389472222222189
 30
0.0
 10
5.132505425897559
 20
-0.7530583333333298
 30
0.0
 10
5.271637366827235
 20
-1.05344166666666
 30
0.0
 10
5.308255421457741
 20
-1.360752777777773
 30
0.0
 10
5.343585976120772
 20
-1.657244444444447
 30
0.0
 10
5.299091532800351
 20
-1.954404166666664
 30
0.0
 10
5.280409588827852
 20
-2.250338888888892
 30
0.0
 10
5.261663755968079
 20
-2.547450000000001
 30
0.0
 10
5.288763888888891
 20
-2.836368055555555
 30
0.0
 10
5.357312364662903
 20
-3.126122222222218
 30
0.0
 10
5.35839986463543
 20
-3.130773611111105
 30
0.0
 10
5.35938597572163
 20
-3.135375000000004
 30
0.0
 10
5.36048611111111
 20
-3.140026388888891
 30
0.0
 10
5.279233199968681
 20
-3.024368055555556
 30
0.0
 10
5.208409590646725
 20
-2.902022222222222
 30
0.0
 10
5.139697092382549
 20
-2.778577777777779
 30
0.0
 10
5.045969316972534
 20
-2.610233333333339
 30
0.0
 10
4.984234596309862
 20
-2.426556944444441
 30
0.0
 10
4.898381820700908
 20
-2.25419444444444
 30
0.0
 10
4.777262379316198
 20
-2.01102083333333
 30
0.0
 10
4.586040161924656
 20
-1.833197222222225
 30
0.0
 10
4.328013888888892
 20
-1.73723194444445
 30
0.0
 10
4.252234614801738
 20
-1.709030555555551
 30
0.0
 10
4.165965172536643
 20
-1.692863888888888
 30
0.0
 10
4.248708333333335
 20
-1.790826388888894
 30
0.0
 10
4.571212384521459
 20
-2.172702777777772
 30
0.0
 10
4.536591552062721
 20
-2.668062500000006
 30
0.0
 10
4.651895715816559
 20
-3.123631944444444
 30
0.0
 10
4.66492765993179
 20
-3.175102777777776
 30
0.0
 10
4.698715159078246
 20
-3.297651388888893
 30
0.0
 10
4.718915158567951
 20
-3.357274999999996
 30
0.0
 10
4.696212381363694
 20
-3.337391666666665
 30
0.0
 10
4.673699881932407
 20
-3.317281944444441
 30
0.0
 10
4.650530438073272
 20
-3.297966666666664
 30
0.0
 10
4.384919333672062
 20
-3.076520833333335
 30
0.0
 10
4.127779062390194
 20
-2.820909722222217
 30
0.0
 10
3.920401289851219
 20
-2.54364444444444
 30
0.0
 10
3.679313795941602
 20
-2.221329166666667
 30
0.0
 10
3.47945833333333
 20
-1.84952777777778
 30
0.0
 10
3.102802699394386
 20
-1.66534583333334
 30
0.0
 10
2.920326315115239
 20
-1.576118055555551
 30
0.0
 10
2.716287431380806
 20
-1.512740277777779
 30
0.0
 10
2.574804101621642
 20
-1.359186111111108
 30
0.0
 10
2.547842991191626
 20
-1.329948611111111
 30
0.0
 10
2.520401325218194
 20
-1.298108333333339
 30
0.0
 10
2.500656881272536
 20
-1.263473611111117
 30
0.0
 10
2.490898548185719
 20
-1.245815277777776
 30
0.0
 10
2.47216521532563
 20
-1.195608333333338
 30
0.0
 10
2.449513888888886
 20
-1.198337500000005
 30
0.0
 10
2.42610410537812
 20
-1.201156944444443
 30
0.0
 10
2.422349938806292
 20
-1.23723194444445
 30
0.0
 10
2.419809661092687
 20
-1.25993472222222
 30
0.0
 10
2.365645773572093
 20
-1.743716666666665
 30
0.0
 10
2.828634650764899
 20
-2.025304166666666
 30
0.0
 10
3.065613811444968
 20
-2.372481944444442
 30
0.0
 10
3.343802693306214
 20
-2.780018055555552
 30
0.0
 10
3.520298522180888
 20
-3.248745833333335
 30
0.0
 10
3.810772125954018
 20
-3.647547222222228
 30
0.0
 10
3.844965180645785
 20
-3.694518055555553
 30
0.0
 10
3.930172122937721
 20
-3.795424999999998
 30
0.0
 10
3.97046934414195
 20
-3.842573611111106
 30
0.0
 10
3.521599911036901
 20
-3.677908333333335
 30
0.0
 10
3.140723531769759
 20
-3.132441666666661
 30
0.0
 10
2.637083333333332
 20
-3.147484722222227
 30
0.0
 10
2.555641602105728
 20
-3.14992361111111
 30
0.0
 10
2.47540132635499
 20
-3.151831944444439
 30
0.0
 10
2.394831883945901
 20
-3.16545833333334
 30
0.0
 10
2.315097222222221
 20
-3.178945833333336
 30
0.0
 10
2.232302721385066
 20
-3.208069444444441
 30
0.0
 10
2.35294160722636
 20
-3.251526388888894
 30
0.0
 10
2.862674927682747
 20
-3.435227777777779
 30
0.0
 10
3.162869364543642
 20
-3.968673611111108
 30
0.0
 10
3.510515189094702
 20
-4.350536111111106
 30
0.0
 10
3.330112415874282
 20
-4.367259722222217
 30
0.0
 10
3.08266666666667
 20
-4.267148611111111
 30
0.0
 10
2.906940204342289
 20
-4.215373611111115
 30
0.0
 10
2.468234659869368
 20
-4.086127777777784
 30
0.0
 10
2.057184670253365
 20
-3.820630555555554
 30
0.0
 10
1.609427737120212
 20
-3.734979166666663
 30
0.0
 10
1.304024999999999
 20
-3.676493055555561
 30
0.0
 10
0.9859069444444483
 20
-3.807851388888884
 30
0.0
 10
0.6874819444444458
 20
-3.714679166666668
 30
0.0
 10
0.64951111111111
 20
-3.702822222222216
 30
0.0
 10
0.6098194444444466
 20
-3.688981944444448
 30
0.0
 10
0.5753999999999956
 20
-3.668858333333333
 30
0.0
 10
0.5581333333333305
 20
-3.658443055555558
 30
0.0
 10
0.5167875000000018
 20
-3.62432638888889
 30
0.0
 10
0.4985472222222269
 20
-3.638016666666671
 30
0.0
 10
0.4796888888888841
 20
-3.652173611111114
 30
0.0
 10
0.4944652777777744
 20
-3.68527777777778
 30
0.0
 10
0.5036291666666683
 20
-3.706211111111113
 30
0.0
 10
0.6924374999999953
 20
-4.137913888888887
 30
0.0
 10
1.212143055555556
 20
-4.163940277777783
 30
0.0
 10
1.588924959860378
 20
-4.323600000000005
 30
0.0
 10
1.906740229609467
 20
-4.458283333333333
 30
0.0
 10
2.157637445493492
 20
-4.705868055555558
 30
0.0
 10
2.456174937951801
 20
-4.875766666666664
 30
0.0
 10
2.675876321290565
 20
-5.000804166666663
 30
0.0
 10
2.910138888888885
 20
-5.099411111111118
 30
0.0
 10
3.152213809257268
 20
-5.171991666666663
 30
0.0
 10
3.156801309141378
 20
-5.173381944444448
 30
0.0
 10
3.16127630902833
 20
-5.174823611111113
 30
0.0
 10
3.165852697801609
 20
-5.176199999999994
 30
0.0
 10
3.025051312469663
 20
-5.188740277777772
 30
0.0
 10
2.883683260485365
 20
-5.188891666666664
 30
0.0
 10
2.742427708498225
 20
-5.186691666666661
 30
0.0
 10
2.401265217116714
 20
-5.181370833333327
 30
0.0
 10
1.953306895099761
 20
-5.035906944444441
 30
0.0
 10
1.635568014237631
 20
-5.232248611111117
 30
0.0
 10
1.566248571544343
 20
-5.27508611111111
 30
0.0
 10
1.497724962164284
 20
-5.316862499999994
 30
0.0
 10
1.43475135264402
 20
-5.368952777777773
 30
0.0
 10
1.372447222222225
 20
-5.420474999999997
 30
0.0
 10
1.315312500000005
 20
-5.487101388888883
 30
0.0
 10
1.441513888888885
 20
-5.464437500000005
 30
0.0
 10
1.721773567615451
 20
-5.414090277777783
 30
0.0
 10
2.000012449475435
 20
-5.488277777777776
 30
0.0
 10
2.261817998417226
 20
-5.584709722222227
 30
0.0
 10
2.47059854869854
 20
-5.661613888888888
 30
0.0
 10
2.756597222222227
 20
-5.814206944444448
 30
0.0
 10
3.025342979128962
 20
-5.842168055555551
 30
0.0
 10
2.999505479781672
 20
-5.851597222222217
 30
0.0
 10
2.973479091550264
 20
-5.860508333333339
 30
0.0
 10
2.947642981091829
 20
-5.870001388888883
 30
0.0
 10
2.604522156426456
 20
-5.996138888888885
 30
0.0
 10
2.244336054414412
 20
-6.063195833333339
 30
0.0
 10
1.883393007977045
 20
-6.114111111111115
 30
0.0
 10
1.59587634857366
 20
-6.154673611111118
 30
0.0
 10
1.297995833333339
 20
-6.172243055555555
 30
0.0
 10
1.023131944444445
 20
-6.272834722222215
 30
0.0
 10
0.8020916666666709
 20
-6.353733333333341
 30
0.0
 10
0.6204125000000051
 20
-6.509081944444435
 30
0.0
 10
0.4133513888888905
 20
-6.616979166666674
 30
0.0
 10
0.3691236111111114
 20
-6.640023611111119
 30
0.0
 10
0.0373790277777744
 20
-6.706245833333342
 30
0.0
 10
0.0288088888888877
 20
-6.726330555555553
 30
0.0
 10
0.01955625
 20
-6.748008333333321
 30
0.0
 10
0.0489069444444491
 20
-6.769295833333343
 30
0.0
 10
0.0673238888888869
 20
-6.782858333333327
 30
0.0
 10
0.3242249999999937
 20
-6.972095833333342
 30
0.0
 10
0.6371736111111154
 20
-6.921420833333336
 30
0.0
 10
0.9270791666666708
 20
-6.854856944444438
 30
0.0
 10
1.643581902924072
 20
-6.69035694444445
 30
0.0
 10
2.37828605103055
 20
-6.897252777777768
 30
0.0
 10
3.093941588507126
 20
-6.727961111111123
 30
0.0
 10
3.098605477278195
 20
-6.7268625
 30
0.0
 10
3.103194444444448
 20
-6.72587638888889
 30
0.0
 10
3.107845754822544
 20
-6.724788888888901
 30
0.0
 10
2.992187424410986
 20
-6.806040277777785
 30
0.0
 10
2.869829094168684
 20
-6.876863888888894
 30
0.0
 10
2.746397152842392
 20
-6.945576388888892
 30
0.0
 10
2.516786047531746
 20
-7.073395833333329
 30
0.0
 10
2.257154109646156
 20
-7.144206944444451
 30
0.0
 10
2.04099161510688
 20
-7.296913888888891
 30
0.0
 10
1.879386063633824
 20
-7.411080555555549
 30
0.0
 10
1.773422177421809
 20
-7.57341944444445
 30
0.0
 10
1.705038845815984
 20
-7.75726111111112
 30
0.0
 10
1.676849957639206
 20
-7.833026388888887
 30
0.0
 10
1.660683291380944
 20
-7.919295833333333
 30
0.0
 10
1.758658288905887
 20
-7.836552777777771
 30
0.0
 10
2.09042772496913
 20
-7.556380555555556
 30
0.0
 10
2.510390214359985
 20
-7.548113888888893
 30
0.0
 10
2.914904093029993
 20
-7.473650000000007
 30
0.0
 10
3.004688812984063
 20
-7.457129166666668
 30
0.0
 10
3.216602696519557
 20
-7.408515277777774
 30
0.0
 10
3.325094360445493
 20
-7.366347222222227
 30
0.0
 10
3.305211027614455
 20
-7.389048611111118
 30
0.0
 10
3.285099917011394
 20
-7.411561111111117
 30
0.0
 10
3.265786028610414
 20
-7.434730555555562
 30
0.0
 10
3.009048535096149
 20
-7.742661111111121
 30
0.0
 10
2.711926320379866
 20
-8.0153
 30
0.0
 10
2.388019384117999
 20
-8.251180555555568
 30
0.0
 10
2.170466611836066
 20
-8.409601388888884
 30
0.0
 10
1.937670784383651
 20
-8.558162500000005
 30
0.0
 10
1.768315233106376
 20
-8.771265277777779
 30
0.0
 10
1.588533293203606
 20
-8.997488888888887
 30
0.0
 10
1.542497183255465
 20
-9.311890277777769
 30
0.0
 10
1.327005555555552
 20
-9.51046944444445
 30
0.0
 10
1.297768055555556
 20
-9.537418055555564
 30
0.0
 10
1.265952777777784
 20
-9.564848611111124
 30
0.0
 10
1.231318055555549
 20
-9.584604166666672
 30
0.0
 10
1.192752777777779
 20
-9.606586111111103
 30
0.0
 10
1.126593055555557
 20
-9.656034722222229
 30
0.0
 10
1.217034722222226
 20
-9.665490277777785
 30
0.0
 10
1.587648571003734
 20
-9.704244444444434
 30
0.0
 10
1.853738842059506
 20
-9.435209722222226
 30
0.0
 10
2.104926335713976
 20
-9.205358333333328
 30
0.0
 10
2.362131884771972
 20
-8.970008333333327
 30
0.0
 10
2.675194444444438
 20
-8.807404166666679
 30
0.0
 10
2.989570757810422
 20
-8.662595833333322
 30
0.0
 10
3.300331861071047
 20
-8.519456944444451
 30
0.0
 10
3.571137409785479
 20
-8.340901388888899
 30
0.0
 10
3.821454070128614
 20
-8.104602777777774
 30
0.0
 10
3.824929070040828
 20
-8.101316666666662
 30
0.0
 10
3.82841795884158
 20
-8.09816944444444
 30
0.0
 10
3.831906847642333
 20
-8.09489583333334
 30
0.0
 10
3.77237073803523
 20
-8.22309305555556
 30
0.0
 10
3.701826295372888
 20
-8.345602777777787
 30
0.0
 10
3.629283241649925
 20
-8.466823611111117
 30
0.0
 10
3.454038801632527
 20
-8.759673611111111
 30
0.0
 10
3.104167977137675
 20
-9.076034722222225
 30
0.0
 10
3.115304087967464
 20
-9.448190277777787
 30
0.0
 10
3.117742976794741
 20
-9.529631944444443
 30
0.0
 10
3.11966381007955
 20
-9.609859722222229
 30
0.0
 10
3.133277777777771
 20
-9.690441666666654
 30
0.0
 10
3.146752698284116
 20
-9.770163888888899
 30
0.0
 10
3.175876308659503
 20
-9.852958333333339
 30
0.0
 10
3.219358252005501
 20
-9.732319444444455
 30
0.0
 10
3.376438803592868
 20
-9.296469444444456
 30
0.0
 10
3.755395738464055
 20
-9.114500000000008
 30
0.0
 10
4.067952675012647
 20
-8.816315277777777
 30
0.0
 10
4.162551283733996
 20
-8.726063888888877
 30
0.0
 10
4.255736111111117
 20
-8.638719444444455
 30
0.0
 10
4.340186001468788
 20
-8.542601388888897
 30
0.0
 10
4.33437211272677
 20
-8.571940277777786
 30
0.0
 10
4.328759612868554
 20
-8.601316666666662
 30
0.0
 10
4.323652777777776
 20
-8.63075555555555
 30
0.0
 10
4.263724892289247
 20
-8.977099999999988
 30
0.0
 10
4.163663783705892
 20
-9.317376388888887
 30
0.0
 10
4.030587398178795
 20
-9.642598611111099
 30
0.0
 10
3.886980457362167
 20
-9.993518055555569
 30
0.0
 10
3.664359629652709
 20
-10.34228888888889
 30
0.0
 10
3.680590184798247
 20
-10.73515
 30
0.0
 10
3.689792962343542
 20
-10.95774583333334
 30
0.0
 10
3.75097073857584
 20
-11.17844444444444
 30
0.0
 10
3.682498518083371
 20
-11.39779166666666
 30
0.0
 10
3.670641573938458
 20
-11.43575138888888
 30
0.0
 10
3.656801296510316
 20
-11.47544166666666
 30
0.0
 10
3.636665185907885
 20
-11.50986111111112
 30
0.0
 10
3.626262408392904
 20
-11.52712777777778
 30
0.0
 10
3.592145742588097
 20
-11.5684736111111
 30
0.0
 10
3.605836020020029
 20
-11.58671388888888
 30
0.0
 10
3.619992964106839
 20
-11.6055861111111
 30
0.0
 10
3.653097222222224
 20
-11.59079722222221
 30
0.0
 10
3.674030462741737
 20
-11.58164444444444
 30
0.0
 10
3.789726293152348
 20
-11.53104583333334
 30
0.0
 10
3.866730457873725
 20
-11.44018749999999
 30
0.0
 10
3.944759622569209
 20
-11.34595416666667
 30
0.0
 10
4.151808228449832
 20
-11.09591666666668
 30
0.0
 10
4.17333461679492
 20
-10.77333611111112
 30
0.0
 10
4.294313780405395
 20
-10.48422777777778
 30
0.0
 10
4.410806833018088
 20
-10.205825
 30
0.0
 10
4.598060994954317
 20
-9.96418055555556
 30
0.0
 10
4.775959601571331
 20
-9.723116666666657
 30
0.0
 10
4.947210986134047
 20
-9.491029166666673
 30
0.0
 10
5.057181816689282
 20
-9.209313888888902
 30
0.0
 10
5.139810981268561
 20
-8.933048611111113
 30
0.0
 10
5.141188759011533
 20
-8.928459722222215
 30
0.0
 10
5.14263042564178
 20
-8.92399722222222
 30
0.0
 10
5.144020703384436
 20
-8.919422222222211
 30
0.0
 10
5.156559591956566
 20
-9.060209722222226
 30
0.0
 10
5.156723480841316
 20
-9.201565277777767
 30
0.0
 10
5.154498480897524
 20
-9.342820833333336
 30
0.0
 10
5.147054036641141
 20
-9.817072222222224
 30
0.0
 10
5.00439570691166
 20
-10.24863750000001
 30
0.0
 10
5.336759587404331
 20
-10.65050972222222
 30
0.0
 10
5.388294308324677
 20
-10.71281388888888
 30
0.0
 10
5.454908195530757
 20
-10.76996111111112
 30
0.0
 10
5.432244307214407
 20
-10.64374722222222
 30
0.0
 10
5.334333333333334
 20
-10.09864722222222
 30
0.0
 10
5.70379568924333
 20
-9.57455555555556
 30
0.0
 10
5.808052631054023
 20
-9.05301666666666
 30
0.0
 10
5.817684575255144
 20
-9.081318055555558
 30
0.0
 10
5.827506797229236
 20
-9.109556944444446
 30
0.0
 10
5.837820685857574
 20
-9.13761805555555
 30
0.0
 10
5.995420681876263
 20
-9.566452777777789
 30
0.0
 10
6.093230401627604
 20
-10.02353888888888
 30
0.0
 10
6.121633178687867
 20
-10.47979027777779
 30
0.0
 10
6.136890122746889
 20
-10.72474722222223
 30
0.0
 10
6.18482206598047
 20
-10.96998055555557
 30
0.0
 10
6.288486111111119
 20
-11.19366388888888
 30
0.0
 10
6.395991505090326
 20
-11.42562638888888
 30
0.0
 10
6.608916666666674
 20
-11.6001125
 30
0.0
 10
6.666076220489635
 20
-11.8545111111111
 30
0.0
 10
6.67478594249183
 20
-11.89331666666665
 30
0.0
 10
6.682634553404669
 20
-11.93461250000001
 30
0.0
 10
6.682420664521183
 20
-11.97448055555555
 30
0.0
 10
6.682041666666666
 20
-11.99460277777777
 30
0.0
 10
6.673205386976203
 20
-12.04728888888889
 30
0.0
 10
6.694010942006166
 20
-12.05640138888889
 30
0.0
 10
6.779383162071705
 20
-12.09379166666668
 30
0.0
 10
6.855099826825608
 20
-11.74878750000001
 30
0.0
 10
6.863163715510786
 20
-11.70338333333332
 30
0.0
 10
6.921245658487956
 20
-11.37595
 30
0.0
 10
6.782012328671954
 20
-11.08804166666667
 30
0.0
 10
6.74268871855424
 20
-10.76937916666667
 30
0.0
 10
6.700406775177927
 20
-10.42680277777777
 30
0.0
 10
6.789369272930545
 20
-10.08572916666667
 30
0.0
 10
6.787258161872765
 20
-9.742241666666661
 30
0.0
 10
6.785691495245676
 20
-9.489461111111115
 30
0.0
 10
6.753951218269726
 20
-9.237262499999991
 30
0.0
 10
6.695780386405911
 20
-8.991319444444445
 30
0.0
 10
6.694667886434015
 20
-8.986668055555556
 30
0.0
 10
6.693695664236353
 20
-8.98206666666667
 30
0.0
 10
6.692608164263826
 20
-8.977415277777784
 30
0.0
 10
6.773859551100132
 20
-9.093087500000012
 30
0.0
 10
6.844670660422404
 20
-9.21543194444444
 30
0.0
 10
6.91338315868658
 20
-9.338865277777787
 30
0.0
 10
7.042352599872983
 20
-9.570536111111121
 30
0.0
 10
7.105313709393562
 20
-9.829750000000002
 30
0.0
 10
7.26723611111111
 20
-10.04541944444446
 30
0.0
 10
7.407631757311921
 20
-10.23240694444444
 30
0.0
 10
7.614717863191597
 20
-10.3826625
 30
0.0
 10
7.847931746189007
 20
-10.3996125
 30
0.0
 10
7.774010914723071
 20
-10.34692777777779
 30
0.0
 10
7.595478974788723
 20
-9.953195833333337
 30
0.0
 10
7.569756753216299
 20
-9.867355555555553
 30
0.0
 10
7.51286231020913
 20
-9.677586111111117
 30
0.0
 10
7.482512310975835
 20
-9.48315416666666
 30
0.0
 10
7.458470644916511
 20
-9.2869638888889
 30
0.0
 10
7.443783145287549
 20
-9.167083333333341
 30
0.0
 10
7.368598424964652
 20
-8.87940277777779
 30
0.0
 10
7.334166666666659
 20
-8.760166666666667
 30
0.0
 10
7.356867869705436
 20
-8.78006250000001
 30
0.0
 10
7.379380369136722
 20
-8.800161111111112
 30
0.0
 10
7.402549812995858
 20
-8.819487499999997
 30
0.0
 10
7.738125000000005
 20
-9.099356944444454
 30
0.0
 10
8.031492852662975
 20
-9.426968055555562
 30
0.0
 10
8.281531735235351
 20
-9.78495277777779
 30
0.0
 10
8.425934509365208
 20
-9.99168611111112
 30
0.0
 10
8.581763888888897
 20
-10.19623055555556
 30
0.0
 10
8.785398389173274
 20
-10.34847083333334
 30
0.0
 10
9.001851161482994
 20
-10.51030416666665
 30
0.0
 10
9.291667820828277
 20
-10.55575833333334
 30
0.0
 10
9.47828864944717
 20
-10.75826944444445
 30
0.0
 10
9.505238648766356
 20
-10.78750555555555
 30
0.0
 10
9.532680555555544
 20
-10.81933472222221
 30
0.0
 10
9.552512258683237
 20
-10.85412083333333
 30
0.0
 10
9.65575808940836
 20
-11.04210694444444
 30
0.0
 10
9.626142812378728
 20
-10.69352500000001
 30
0.0
 10
9.605892812890286
 20
-10.62517916666666
 30
0.0
 10
9.554977536398736
 20
-10.45330972222223
 30
0.0
 10
9.467444444444455
 20
-10.29967916666667
 30
0.0
 10
9.351115041548736
 20
-10.1642375
 30
0.0
 10
9.238363655508186
 20
-10.03295555555554
 30
0.0
 10
9.106222222222211
 20
-9.918233333333344
 30
0.0
 10
9.002066439255334
 20
-9.780199999999997
 30
0.0
 10
8.794170611173891
 20
-9.504641666666657
 30
0.0
 10
8.7006706135359
 20
-9.164781944444433
 30
0.0
 10
8.52709422903192
 20
-8.868393055555543
 30
0.0
 10
8.39933867670374
 20
-8.650247222222232
 30
0.0
 10
8.245759513916811
 20
-8.447711111111124
 30
0.0
 10
8.072409518296
 20
-8.263806944444443
 30
0.0
 10
8.069123407267902
 20
-8.260331944444436
 30
0.0
 10
8.06598868512487
 20
-8.256830555555553
 30
0.0
 10
8.062715074096458
 20
-8.253366666666654
 30
0.0
 10
8.190912293080146
 20
-8.312902777777783
 30
0.0
 10
8.313409512207828
 20
-8.38344861111111
 30
0.0
 10
8.43464284247855
 20
-8.455990277777776
 30
0.0
 10
8.63250117081356
 20
-8.574379166666656
 30
0.0
 10
8.801691444317232
 20
-8.735012499999987
 30
0.0
 10
9.00381088365571
 20
-8.846765277777775
 30
0.0
 10
9.211440045077223
 20
-8.961551388888893
 30
0.0
 10
9.425048373014356
 20
-8.991408333333336
 30
0.0
 10
9.658260867122912
 20
-8.951995833333335
 30
0.0
 10
9.737970587331498
 20
-8.938508333333326
 30
0.0
 10
9.82077777777777
 20
-8.909386111111113
 30
0.0
 10
9.700138888888887
 20
-8.86591527777778
 30
0.0
 10
9.508056704250722
 20
-8.796697222222216
 30
0.0
 10
9.3405094862611
 20
-8.670572222222214
 30
0.0
 10
9.198028934304904
 20
-8.52432361111111
 30
0.0
 10
9.072396993034191
 20
-8.395355555555549
 30
0.0
 10
8.968430555555566
 20
-8.247956944444443
 30
0.0
 10
8.856196998495863
 20
-8.10773750000001
 30
0.0
 10
8.807380333062408
 20
-8.046761111111108
 30
0.0
 10
8.75679422322921
 20
-7.988287499999993
 30
0.0
 10
8.702680555555565
 20
-7.932037500000003
 30
0.0
 10
8.662219225618376
 20
-7.889983333333324
 30
0.0
 10
8.556572006065027
 20
-7.787736111111118
 30
0.0
 10
8.510422007230874
 20
-7.745087500000004
 30
0.0
 10
8.539759506489746
 20
-7.750902777777784
 30
0.0
 10
8.56912339463684
 20
-7.756501388888889
 30
0.0
 10
8.59858728278141
 20
-7.761608333333343
 30
0.0
 10
8.953728940476442
 20
-7.823052777777775
 30
0.0
 10
9.304712264943191
 20
-7.925502777777789
 30
0.0
 10
9.635901145465544
 20
-8.06735277777779
 30
0.0
 10
9.976051136872632
 20
-8.213019444444448
 30
0.0
 10
10.3199177948525
 20
-8.420509722222226
 30
0.0
 10
10.70296917406469
 20
-8.404670833333334
 30
0.0
 10
10.9255525017751
 20
-8.39546944444444
 30
0.0
 10
11.14626499619943
 20
-8.33429027777778
 30
0.0
 10
11.36561111111112
 20
-8.402774999999995
 30
0.0
 10
11.4035705452549
 20
-8.414619444444446
 30
0.0
 10
11.44324832203034
 20
-8.428459722222215
 30
0.0
 10
11.47768055555555
 20
-8.44859583333333
 30
0.0
 10
11.49494693183543
 20
-8.459011111111117
 30
0.0
 10
11.53629276412428
 20
-8.493127777777772
 30
0.0
 10
11.55452054144159
 20
-8.479426388888896
 30
0.0
 10
11.57339276318706
 20
-8.465268055555548
 30
0.0
 10
11.55861637467145
 20
-8.432163888888883
 30
0.0
 10
11.54945248601406
 20
-8.41124444444444
 30
0.0
 10
11.44216082205781
 20
-8.166098611111112
 30
0.0
 10
11.15540388485745
 20
-8.022769444444444
 30
0.0
 10
10.9162747242317
 20
-7.941037499999993
 30
0.0
 10
10.68370528566245
 20
-7.861530555555545
 30
0.0
 10
10.44442473615163
 20
-7.8025638888889
 30
0.0
 10
10.23318055555557
 20
-7.672583333333326
 30
0.0
 10
10.01484419144819
 20
-7.538216666666661
 30
0.0
 10
9.82003169636957
 20
-7.368672222222231
 30
0.0
 10
9.596917813117013
 20
-7.241688888888878
 30
0.0
 10
9.377217818667102
 20
-7.116650000000011
 30
0.0
 10
9.142928935696848
 20
-7.018043055555558
 30
0.0
 10
8.900867830700715
 20
-6.945449999999987
 30
0.0
 10
8.89627894192775
 20
-6.944072222222227
 30
0.0
 10
8.891803942040799
 20
-6.942631944444454
 30
0.0
 10
8.887241442156057
 20
-6.941241666666656
 30
0.0
 10
9.028028938599466
 20
-6.928715277777782
 30
0.0
 10
9.169398379472618
 20
-6.92855000000001
 30
0.0
 10
9.310653931459758
 20
-6.930762500000001
 30
0.0
 10
9.567365036085802
 20
-6.934781944444441
 30
0.0
 10
9.820562251911724
 20
-7.001093055555556
 30
0.0
 10
10.07813446762712
 20
-6.981311111111103
 30
0.0
 10
10.2981511287357
 20
-6.964411111111101
 30
0.0
 10
10.52992334510287
 20
-6.855994444444453
 30
0.0
 10
10.67801778580613
 20
-6.69033194444445
 30
0.0
 10
10.6821886190341
 20
-6.685666666666672
 30
0.0
 10
10.68647334114808
 20
-6.680547222222231
 30
0.0
 10
10.68733333333332
 20
-6.674341666666678
 30
0.0
 10
10.69010111883421
 20
-6.654193055555551
 30
0.0
 10
10.66035945291888
 20
-6.648895833333325
 30
0.0
 10
10.64023611111111
 20
-6.651854166666655
 30
0.0
 10
10.42844695877749
 20
-6.682886111111101
 30
0.0
 10
10.21018724206897
 20
-6.667743055555547
 30
0.0
 10
10.00436502504625
 20
-6.609205555555566
 30
0.0
 10
9.794396974794937
 20
-6.549480555555546
 30
0.0
 10
9.603503924061744
 20
-6.437563888888891
 30
0.0
 10
9.393965040466254
 20
-6.376119444444434
 30
0.0
 10
9.26852337696851
 20
-6.339309722222222
 30
0.0
 10
9.146291666666658
 20
-6.302300000000009
 30
0.0
 10
9.020824772114793
 20
-6.277220833333331
 30
0.0
 10
9.049138888888894
 20
-6.267576388888882
 30
0.0
 10
9.077376159575072
 20
-6.257755555555554
 30
0.0
 10
9.10542615886647
 20
-6.247452777777779
 30
0.0
 10
9.45230115010367
 20
-6.120001388888896
 30
0.0
 10
9.817112251998878
 20
-6.033529166666666
 30
0.0
 10
10.18327613163769
 20
-5.986393055555557
 30
0.0
 10
10.54205806701854
 20
-5.940205555555559
 30
0.0
 10
10.93213722383098
 20
-5.95325
 30
0.0
 10
11.24942193803791
 20
-5.752168055555558
 30
0.0
 10
11.43758582217338
 20
-5.632906944444446
 30
0.0
 10
11.59813026256213
 20
-5.469556944444447
 30
0.0
 10
11.82233025689836
 20
-5.419198611111116
 30
0.0
 10
11.86113581147361
 20
-5.410476388888886
 30
0.0
 10
11.90241914376404
 20
-5.402626388888885
 30
0.0
 10
11.94229969831213
 20
-5.402841666666669
 30
0.0
 10
11.96246080891392
 20
-5.403220833333332
 30
0.0
 10
12.01532330757851
 20
-5.412094444444443
 30
0.0
 10
12.02427191846356
 20
-5.391123611111109
 30
0.0
 10
12.03353719600727
 20
-5.369433333333328
 30
0.0
 10
12.00417330786018
 20
-5.348159722222223
 30
0.0
 10
11.98579553054666
 20
-5.334595833333335
 30
0.0
 10
11.88411636644863
 20
-5.259702777777774
 30
0.0
 10
11.76694136940872
 20
-5.238441666666668
 30
0.0
 10
11.64632748356679
 20
-5.217977777777782
 30
0.0
 10
11.32368304727303
 20
-5.163256944444444
 30
0.0
 10
11.00589416641216
 20
-5.289002777777783
 30
0.0
 10
10.69165667435047
 20
-5.341030555555562
 30
0.0
 10
10.36897473805766
 20
-5.394436111111114
 30
0.0
 10
10.03479002427765
 20
-5.296005555555553
 30
0.0
 10
9.710060865814334
 20
-5.298015277777773
 30
0.0
 10
9.457267816644869
 20
-5.29956944444445
 30
0.0
 10
9.205069444444435
 20
-5.331322222222221
 30
0.0
 10
8.959140051450857
 20
-5.389493055555552
 30
0.0
 10
8.954487273790619
 20
-5.390593055555554
 30
0.0
 10
8.949887273906825
 20
-5.391579166666664
 30
0.0
 10
8.945234496246586
 20
-5.392666666666665
 30
0.0
 10
9.060894215546996
 20
-5.31141388888889
 30
0.0
 10
9.1832525457893
 20
-5.24059027777778
 30
0.0
 10
9.306684487115591
 20
-5.171865277777783
 30
0.0
 10
9.615549757090776
 20
-4.999931944444445
 30
0.0
 10
10.06156224582355
 20
-4.915204166666664
 30
0.0
 10
10.24247057458676
 20
-4.578984722222217
 30
0.0
 10
10.28108724027788
 20
-4.507238888888891
 30
0.0
 10
10.31953862819541
 20
-4.436794444444445
 30
0.0
 10
10.348042794142
 20
-4.360194444444447
 30
0.0
 10
10.37623029342992
 20
-4.284427777777776
 30
0.0
 10
10.39240945968787
 20
-4.198158333333329
 30
0.0
 10
10.29443446216293
 20
-4.280888888888891
 30
0.0
 10
9.944171971011302
 20
-4.576709722222227
 30
0.0
 10
9.51872475953678
 20
-4.548547222222219
 30
0.0
 10
9.101519214520723
 20
-4.649872222222219
 30
0.0
 10
8.97415671773817
 20
-4.680815277777772
 30
0.0
 10
8.849472222222225
 20
-4.709926388888889
 30
0.0
 10
8.727986111111123
 20
-4.751095833333339
 30
0.0
 10
8.747869223454675
 20
-4.728405555555557
 30
0.0
 10
8.767980334057736
 20
-4.705893055555558
 30
0.0
 10
8.787294222458716
 20
-4.682723611111113
 30
0.0
 10
8.991815050625418
 20
-4.437325
 30
0.0
 10
9.22218448925024
 20
-4.213970833333329
 30
0.0
 10
9.471375000000004
 20
-4.014216666666672
 30
0.0
 10
9.725520587646011
 20
-3.810505555555551
 30
0.0
 10
10.03135252436449
 20
-3.655244444444444
 30
0.0
 10
10.24348168567232
 20
-3.40291944444444
 30
0.0
 10
10.46054166666666
 20
-3.144754166666669
 30
0.0
 10
10.51199999999999
 20
-2.709498611111106
 30
0.0
 10
10.82180111550719
 20
-2.532825000000003
 30
0.0
 10
10.83945944839444
 20
-2.523091666666662
 30
0.0
 10
10.88966666666667
 20
-2.504333333333332
 30
0.0
 10
10.88692333608429
 20
-2.481706944444441
 30
0.0
 10
10.88410528059992
 20
-2.458284722222225
 30
0.0
 10
10.84804166666666
 20
-2.454530555555556
 30
0.0
 10
10.825327504307
 20
-2.452002777777782
 30
0.0
 10
10.35831944444443
 20
-2.399873611111111
 30
0.0
 10
10.07431641216802
 20
-2.837013888888893
 30
0.0
 10
9.748020587077614
 20
-3.083208333333333
 30
0.0
 10
9.512987259681722
 20
-3.260538888888883
 30
0.0
 10
9.229465044621874
 20
-3.356174999999995
 30
0.0
 10
8.969453940079195
 20
-3.489087499999995
 30
0.0
 10
8.698812280249513
 20
-3.627436111111112
 30
0.0
 10
8.448585897681873
 20
-3.805690277777772
 30
0.0
 10
8.229617847657916
 20
-4.016516666666663
 30
0.0
 10
8.334355345012025
 20
-3.741602777777782
 30
0.0
 10
8.53724422877551
 20
-3.517794444444449
 30
0.0
 10
8.700695613535268
 20
-3.273179166666662
 30
0.0
 10
8.816455332833154
 20
-3.099944444444443
 30
0.0
 10
8.915960885874988
 20
-2.903474999999995
 30
0.0
 10
8.937777777777784
 20
-2.693520833333335
 30
0.0
 10
8.947371996192588
 20
-2.601208333333337
 30
0.0
 10
8.939723385274696
 20
-2.506861111111107
 30
0.0
 10
8.917956719157901
 20
-2.416647222222221
 30
0.0
 10
8.90143588624192
 20
-2.348199999999995
 30
0.0
 10
8.871528942552988
 20
-2.280245833333336
 30
0.0
 10
8.833734499063313
 20
-2.38512222222222
 30
0.0
 10
8.748399778996827
 20
-2.621913888888887
 30
0.0
 10
8.572094227895125
 20
-2.824865277777778
 30
0.0
 10
8.38194562158757
 20
-2.985144444444447
 30
0.0
 10
8.154142849564575
 20
-3.177176388888888
 30
0.0
 10
7.921484522108686
 20
-3.356251388888886
 30
0.0
 10
7.709380360800221
 20
-3.567002777777778
 30
0.0
 10
7.720895638287098
 20
-3.510450000000004
 30
0.0
 10
7.740273415575352
 20
-3.420401388888889
 30
0.0
 10
7.748515082033817
 20
-3.381393055555552
 30
0.0
 10
7.814370635925721
 20
-3.069619444444445
 30
0.0
 10
7.907770633566239
 20
-2.763636111111105
 30
0.0
 10
8.028080352749182
 20
-2.468548611111108
 30
0.0
 10
8.173013888888892
 20
-2.113090277777776
 30
0.0
 10
8.388973399187812
 20
-1.780993055555554
 30
0.0
 10
8.372490066270883
 20
-1.382305555555553
 30
0.0
 10
8.36230256652824
 20
-1.135768055555559
 30
0.0
 10
8.283085901862755
 20
-0.8357263888888913
 30
0.0
 10
8.416402777777774
 20
-0.6075805555555512
 30
0.0
 10
8.42681944444444
 20
-0.5903138888888861
 30
0.0
 10
8.460934508481033
 20
-0.5489805555555576
 30
0.0
 10
8.447258119937638
 20
-0.5307402777777825
 30
0.0
 10
8.433101175850828
 20
-0.5118694444444397
 30
0.0
 10
8.399983121131905
 20
-0.5266583333333301
 30
0.0
 10
8.37906367721593
 20
-0.535809722222224
 30
0.0
 10
8.104440073042396
 20
-0.6558791666666618
 30
0.0
 10
7.969024798685496
 20
-0.9572111111111149
 30
0.0
 10
7.879948412046865
 20
-1.224668055555551
 30
0.0
 10
7.835088690957895
 20
-1.3593125
 30
0.0
 10
7.815547024784892
 20
-1.511690277777777
 30
0.0
 10
7.759688692862659
 20
-1.641481944444447
 30
0.0
 10
7.671902777777783
 20
-1.845520833333328
 30
0.0
 10
7.522051198865888
 20
-2.017543055555557
 30
0.0
 10
7.396572035369091
 20
-2.198577777777776
 30
0.0
 10
7.25076509460804
 20
-2.408925000000004
 30
0.0
 10
7.097755376251168
 20
-2.645197222222224
 30
0.0
 10
7.016276211642839
 20
-2.889634722222227
 30
0.0
 10
6.98352482358132
 20
-2.971215277777774
 30
0.0
 10
6.943353991262787
 20
-3.089034722222221
 30
0.0
 10
6.913269269800568
 20
-3.184406944444441
 30
0.0
 10
6.911828992059175
 20
-3.188956944444448
 30
0.0
 10
6.910438714316519
 20
-3.193456944444443
 30
0.0
 10
6.90907343657323
 20
-3.19801944444445
 30
0.0
  0
SPLINE
  5
42
330
1F
100
AcDbEntity
  8
Layer 1
370
     0
100
AcDbSpline
210
0.0
220
0.0
230
1.0
 70
    11
 71
     3
 72
    50
 73
    46
 74
     0
 42
0.0000000001
 43
0.0000000001
 12
1.0
 22
0.0
 32
0.0
 13
1.0
 23
0.0
 33
0.0
 40
0.0
 40
0.0
 40
0.0
 40
0.0
 40
1.0
 40
1.0
 40
1.0
 40
2.0
 40
2.0
 40
2.0
 40
3.0
 40
3.0
 40
3.0
 40
4.0
 40
4.0
 40
4.0
 40
5.0
 40
5.0
 40
5.0
 40
6.0
 40
6.0
 40
6.0
 40
7.0
 40
7.0
 40
7.0
 40
8.0
 40
8.0
 40
8.0
 40
9.0
 40
9.0
 40
9.0
 40
10.0
 40
10.0
 40
10.0
 40
11.0
 40
11.0
 40
11.0
 40
12.0
 40
12.0
 40
12.0
 40
13.0
 40
13.0
 40
13.0
 40
14.0
 40
14.0
 40
14.0
 40
15.0
 40
15.0
 40
15.0
 40
15.0
 10
5.992006793073616
 20
-7.047027777777783
 30
0.0
 10
6.049230402739138
 20
-7.066341666666656
 30
0.0
 10
6.099348457028605
 20
-7.039140277777783
 30
0.0
 10
6.145713733635097
 20
-7.00755277777777
 30
0.0
 10
6.198726232295889
 20
-6.971438888888896
 30
0.0
 10
6.252726230931734
 20
-6.937916666666675
 30
0.0
 10
6.307824840650937
 20
-6.905165277777769
 30
0.0
 10
6.350852617341742
 20
-6.87959444444444
 30
0.0
 10
6.383299838744279
 20
-6.845718055555557
 30
0.0
 10
6.392262338517867
 20
-6.794651388888901
 30
0.0
 10
6.397748449490386
 20
-6.763531944444442
 30
0.0
 10
6.417669282320477
 20
-6.738856944444453
 30
0.0
 10
6.453365114752058
 20
-6.750916666666676
 30
0.0
 10
6.492145669327934
 20
-6.763998611111118
 30
0.0
 10
6.481326225156812
 20
-6.804662499999999
 30
0.0
 10
6.473842892012524
 20
-6.834708333333335
 30
0.0
 10
6.462972222222232
 20
-6.878355555555546
 30
0.0
 10
6.445604003837009
 20
-6.912447222222227
 30
0.0
 10
6.411273449148716
 20
-6.942909722222212
 30
0.0
 10
6.377751227773337
 20
-6.97267777777779
 30
0.0
 10
6.337580395454804
 20
-6.993686111111123
 30
0.0
 10
6.298862340877349
 20
-7.016248611111122
 30
0.0
 10
6.216815120727814
 20
-7.064054166666665
 30
0.0
 10
6.141137344861818
 20
-7.14110972222223
 30
0.0
 10
6.038852625223525
 20
-7.142272222222219
 30
0.0
 10
5.977281793445601
 20
-7.142993055555557
 30
0.0
 10
5.923420683695136
 20
-7.119140277777786
 30
0.0
 10
5.875047073806045
 20
-7.082116666666656
 30
0.0
 10
5.819492908542795
 20
-7.039620833333325
 30
0.0
 10
5.767376243192706
 20
-6.999499999999999
 30
0.0
 10
5.704060967014407
 20
-6.968986111111108
 30
0.0
 10
5.636220690950418
 20
-6.936298611111119
 30
0.0
 10
5.591031803203097
 20
-6.883070833333325
 30
0.0
 10
5.575192914714332
 20
-6.808227777777776
 30
0.0
 10
5.568442914884852
 20
-6.7763611111111
 30
0.0
 10
5.568935970427952
 20
-6.742409722222217
 30
0.0
 10
5.608715136089712
 20
-6.733915277777769
 30
0.0
 10
5.645954024037867
 20
-6.72595138888889
 30
0.0
 10
5.658809579268664
 20
-6.753836111111114
 30
0.0
 10
5.663574856926061
 20
-6.78525972222221
 30
0.0
 10
5.678452634327995
 20
-6.8834375
 30
0.0
 10
5.793592909197084
 20
-6.908641666666679
 30
0.0
 10
5.863606796317273
 20
-6.957723611111103
 30
0.0
 10
5.906065128578019
 20
-6.987491666666655
 30
0.0
 10
5.941635961012758
 20
-7.030038888888889
 30
0.0
 10
5.992006793073616
 20
-7.047027777777783
 30
0.0
  0
SPLINE
  5
43
330
1F
100
AcDbEntity
  8
Layer 1
370
     0
100
AcDbSpline
210
0.0
220
0.0
230
1.0
 70
    11
 71
     3
 72
    44
 73
    40
 74
     0
 42
0.0000000001
 43
0.0000000001
 12
1.0
 22
0.0
 32
0.0
 13
1.0
 23
0.0
 33
0.0
 40
0.0
 40
0.0
 40
0.0
 40
0.0
 40
1.0
 40
1.0
 40
1.0
 40
2.0
 40
2.0
 40
2.0
 40
3.0
 40
3.0
 40
3.0
 40
4.0
 40
4.0
 40
4.0
 40
5.0
 40
5.0
 40
5.0
 40
6.0
 40
6.0
 40
6.0
 40
7.0
 40
7.0
 40
7.0
 40
8.0
 40
8.0
 40
8.0
 40
9.0
 40
9.0
 40
9.0
 40
10.0
 40
10.0
 40
10.0
 40
11.0
 40
11.0
 40
11.0
 40
12.0
 40
12.0
 40
12.0
 40
13.0
 40
13.0
 40
13.0
 40
13.0
 10
3.631761019365108
 20
-4.929412499999999
 30
0.0
 10
3.607340186648697
 20
-4.944112499999997
 30
0.0
 10
3.583247131701783
 20
-4.945452777777783
 30
0.0
 10
3.565512409927578
 20
-4.920311111111105
 30
0.0
 10
3.547323521498179
 20
-4.894550000000006
 30
0.0
 10
3.557877687898225
 20
-4.871190277777777
 30
0.0
 10
3.580895742872296
 20
-4.85563055555556
 30
0.0
 10
3.630306852735177
 20
-4.822247222222219
 30
0.0
 10
3.680273518139579
 20
-4.789445833333338
 30
0.0
 10
3.731706850173598
 20
-4.75929861111111
 30
0.0
 10
3.992476288030452
 20
-4.606502777777778
 30
0.0
 10
4.268819444444438
 20
-4.500425000000001
 30
0.0
 10
4.574334606664807
 20
-4.485927777777773
 30
0.0
 10
5.010930555555559
 20
-4.465209722222223
 30
0.0
 10
5.358310975748787
 20
-4.630987499999997
 30
0.0
 10
5.60895541386142
 20
-4.990173611111104
 30
0.0
 10
5.831361111111113
 20
-5.308873611111115
 30
0.0
 10
5.906444444444446
 20
-5.703490277777771
 30
0.0
 10
5.907620684094278
 20
-6.087958333333341
 30
0.0
 10
5.907784572979026
 20
-6.141463888888893
 30
0.0
 10
5.906520684122066
 20
-6.194794444444445
 30
0.0
 10
5.904017906407514
 20
-6.247680555555562
 30
0.0
 10
5.896965128807905
 20
-6.396583333333334
 30
0.0
 10
5.87843457372047
 20
-6.545334722222226
 30
0.0
 10
5.844355407914716
 20
-6.690558333333329
 30
0.0
 10
5.837491519199223
 20
-6.719833333333327
 30
0.0
 10
5.822058186255768
 20
-6.742194444444445
 30
0.0
 10
5.788902777777783
 20
-6.735684722222231
 30
0.0
 10
5.755835965706461
 20
-6.729187500000004
 30
0.0
 10
5.748037354792359
 20
-6.702630555555565
 30
0.0
 10
5.754408187964751
 20
-6.67300138888888
 30
0.0
 10
5.772659576392571
 20
-6.58818472222222
 30
0.0
 10
5.786109576052795
 20
-6.502597222222221
 30
0.0
 10
5.795577631369168
 20
-6.416479166666679
 30
0.0
 10
5.860788740832908
 20
-5.82323194444445
 30
0.0
 10
5.764633187706446
 20
-5.032000000000001
 30
0.0
 10
5.180398480243235
 20
-4.711025
 30
0.0
 10
4.654626271303136
 20
-4.422156944444446
 30
0.0
 10
4.103217951899548
 20
-4.645662499999995
 30
0.0
 10
3.631761019365108
 20
-4.929412499999999
 30
0.0
  0
SPLINE
  5
44
330
1F
100
AcDbEntity
  8
Layer 1
370
     0
100
AcDbSpline
210
0.0
220
0.0
230
1.0
 70
    11
 71
     3
 72
    38
 73
    34
 74
     0
 42
0.0000000001
 43
0.0000000001
 12
1.0
 22
0.0
 32
0.0
 13
1.0
 23
0.0
 33
0.0
 40
0.0
 40
0.0
 40
0.0
 40
0.0
 40
1.0
 40
1.0
 40
1.0
 40
2.0
 40
2.0
 40
2.0
 40
3.0
 40
3.0
 40
3.0
 40
4.0
 40
4.0
 40
4.0
 40
5.0
 40
5.0
 40
5.0
 40
6.0
 40
6.0
 40
6.0
 40
7.0
 40
7.0
 40
7.0
 40
8.0
 40
8.0
 40
8.0
 40
9.0
 40
9.0
 40
9.0
 40
10.0
 40
10.0
 40
10.0
 40
11.0
 40
11.0
 40
11.0
 40
11.0
 10
4.737597222222221
 20
-6.058720833333331
 30
0.0
 10
4.727244325024205
 20
-6.058720833333331
 30
0.0
 10
4.717005436393972
 20
-6.058266666666668
 30
0.0
 10
4.706892936649435
 20
-6.05740694444445
 30
0.0
 10
4.415522110676749
 20
-6.032366666666664
 30
0.0
 10
4.267694444444449
 20
-5.70710555555556
 30
0.0
 10
4.239467948457584
 20
-5.453175
 30
0.0
 10
4.236042948544107
 20
-5.422472222222217
 30
0.0
 10
4.239366559571256
 20
-5.391477777777772
 30
0.0
 10
4.277806836377951
 20
-5.387698611111116
 30
0.0
 10
4.316233224296107
 20
-5.383893055555555
 30
0.0
 10
4.325233224068748
 20
-5.413826388888891
 30
0.0
 10
4.328405446210834
 20
-5.444427777777782
 30
0.0
 10
4.343080445840112
 20
-5.585380555555553
 30
0.0
 10
4.388586000246101
 20
-5.714286111111114
 30
0.0
 10
4.477130442453724
 20
-5.826341666666672
 30
0.0
 10
4.559406829264137
 20
-5.930434722222217
 30
0.0
 10
4.689930555555557
 20
-5.997769444444442
 30
0.0
 10
4.823361111111113
 20
-5.960859722222216
 30
0.0
 10
5.014369317770817
 20
-5.908023611111111
 30
0.0
 10
5.102105426665528
 20
-5.69330277777778
 30
0.0
 10
5.125969314951564
 20
-5.514834722222227
 30
0.0
 10
5.130406814839463
 20
-5.48164166666667
 30
0.0
 10
5.138230425752933
 20
-5.450002777777778
 30
0.0
 10
5.180120702472474
 20
-5.456676388888885
 30
0.0
 10
5.217081812649869
 20
-5.462579166666665
 30
0.0
 10
5.219267923705754
 20
-5.492954166666664
 30
0.0
 10
5.215198479364113
 20
-5.524251388888893
 30
0.0
 10
5.195516535416876
 20
-5.675429166666668
 30
0.0
 10
5.143881814499056
 20
-5.823725000000005
 30
0.0
 10
5.034454039485657
 20
-5.933683333333331
 30
0.0
 10
4.956666666666668
 20
-6.011863888888885
 30
0.0
 10
4.848174877524798
 20
-6.058809722222223
 30
0.0
 10
4.737597222222221
 20
-6.058720833333331
 30
0.0
  0
SPLINE
  5
45
330
1F
100
AcDbEntity
  8
Layer 1
370
     0
100
AcDbSpline
210
0.0
220
0.0
230
1.0
 70
    11
 71
     3
 72
    41
 73
    37
 74
     0
 42
0.0000000001
 43
0.0000000001
 12
1.0
 22
0.0
 32
0.0
 13
1.0
 23
0.0
 33
0.0
 40
0.0
 40
0.0
 40
0.0
 40
0.0
 40
1.0
 40
1.0
 40
1.0
 40
2.0
 40
2.0
 40
2.0
 40
3.0
 40
3.0
 40
3.0
 40
4.0
 40
4.0
 40
4.0
 40
5.0
 40
5.0
 40
5.0
 40
6.0
 40
6.0
 40
6.0
 40
7.0
 40
7.0
 40
7.0
 40
8.0
 40
8.0
 40
8.0
 40
9.0
 40
9.0
 40
9.0
 40
10.0
 40
10.0
 40
10.0
 40
11.0
 40
11.0
 40
11.0
 40
12.0
 40
12.0
 40
12.0
 40
12.0
 10
6.680713720119861
 20
-7.867648611111108
 30
0.0
 10
6.551201223391621
 20
-7.879543055555561
 30
0.0
 10
6.445237337179606
 20
-7.948293055555546
 30
0.0
 10
6.337238728796769
 20
-8.010799999999993
 30
0.0
 10
6.231995675899876
 20
-8.07169999999999
 30
0.0
 10
6.123934567518618
 20
-8.099976388888889
 30
0.0
 10
6.015277777777783
 20
-8.100583333333336
 30
0.0
 10
5.899176239863158
 20
-8.101227777777769
 30
0.0
 10
5.782417909479388
 20
-8.070297222222228
 30
0.0
 10
5.667695690155293
 20
-8.013833333333322
 30
0.0
 10
5.568115137115354
 20
-7.964813888888885
 30
0.0
 10
5.477358194963623
 20
-7.895759722222212
 30
0.0
 10
5.36226792009327
 20
-7.882033333333336
 30
0.0
 10
5.338529031804076
 20
-7.879201388888886
 30
0.0
 10
5.325142921031127
 20
-7.861555555555545
 30
0.0
 10
5.327190143201632
 20
-7.836743055555543
 30
0.0
 10
5.329288754259728
 20
-7.811549999999998
 30
0.0
 10
5.346783198262225
 20
-7.799605555555545
 30
0.0
 10
5.369890142122939
 20
-7.797405555555567
 30
0.0
 10
5.401048474669147
 20
-7.794461111111104
 30
0.0
 10
5.430588751700674
 20
-7.803675000000011
 30
0.0
 10
5.46015402873157
 20
-7.812625
 30
0.0
 10
5.56626930382865
 20
-7.844769444444434
 30
0.0
 10
5.656002634895129
 20
-7.910575000000007
 30
0.0
 10
5.755949854592473
 20
-7.955523611111125
 30
0.0
 10
5.931852627926572
 20
-8.034601388888884
 30
0.0
 10
6.103405401370562
 20
-8.042337500000006
 30
0.0
 10
6.275199841475114
 20
-7.94161944444444
 30
0.0
 10
6.398519282804247
 20
-7.869329166666678
 30
0.0
 10
6.521130390817941
 20
-7.799541666666679
 30
0.0
 10
6.666165109376278
 20
-7.778938888888888
 30
0.0
 10
6.696362330835655
 20
-7.774654166666677
 30
0.0
 10
6.721781774637949
 20
-7.785436111111115
 30
0.0
 10
6.725687330094843
 20
-7.81849027777778
 30
0.0
 10
6.729215107783501
 20
-7.848498611111103
 30
0.0
 10
6.709319444444443
 20
-7.865019444444442
 30
0.0
 10
6.680713720119861
 20
-7.867648611111108
 30
0.0
  0
SPLINE
  5
46
330
1F
100
AcDbEntity
  8
Layer 1
370
     0
100
AcDbSpline
210
0.0
220
0.0
230
1.0
 70
    11
 71
     3
 72
    65
 73
    61
 74
     0
 42
0.0000000001
 43
0.0000000001
 12
1.0
 22
0.0
 32
0.0
 13
1.0
 23
0.0
 33
0.0
 40
0.0
 40
0.0
 40
0.0
 40
0.0
 40
1.0
 40
1.0
 40
1.0
 40
2.0
 40
2.0
 40
2.0
 40
3.0
 40
3.0
 40
3.0
 40
4.0
 40
4.0
 40
4.0
 40
5.0
 40
5.0
 40
5.0
 40
6.0
 40
6.0
 40
6.0
 40
7.0
 40
7.0
 40
7.0
 40
8.0
 40
8.0
 40
8.0
 40
9.0
 40
9.0
 40
9.0
 40
10.0
 40
10.0
 40
10.0
 40
11.0
 40
11.0
 40
11.0
 40
12.0
 40
12.0
 40
12.0
 40
13.0
 40
13.0
 40
13.0
 40
14.0
 40
14.0
 40
14.0
 40
15.0
 40
15.0
 40
15.0
 40
16.0
 40
16.0
 40
16.0
 40
17.0
 40
17.0
 40
17.0
 40
18.0
 40
18.0
 40
18.0
 40
19.0
 40
19.0
 40
19.0
 40
20.0
 40
20.0
 40
20.0
 40
20.0
 10
7.079287321162155
 20
-7.733913888888891
 30
0.0
 10
7.076519265676526
 20
-7.752672222222221
 30
0.0
 10
7.065522043732117
 20
-7.767272222222219
 30
0.0
 10
7.046701210874239
 20
-7.769597222222223
 30
0.0
 10
6.993117878894534
 20
-7.776258333333342
 30
0.0
 10
6.933253991517934
 20
-7.760824999999992
 30
0.0
 10
6.882060937255623
 20
-7.746338888888886
 30
0.0
 10
6.825141494249086
 20
-7.73022222222221
 30
0.0
 10
6.770017884530514
 20
-7.708355555555549
 30
0.0
 10
6.715676219236633
 20
-7.685122222222212
 30
0.0
 10
6.512445668815113
 20
-7.598220833333344
 30
0.0
 10
6.2915942855054
 20
-7.42872638888889
 30
0.0
 10
6.066509568969296
 20
-7.548884722222232
 30
0.0
 10
6.054260958167611
 20
-7.555433333333339
 30
0.0
 10
6.04054568073631
 20
-7.56265
 30
0.0
 10
6.026312347762541
 20
-7.562208333333324
 30
0.0
 10
6.012155403675731
 20
-7.561752777777782
 30
0.0
 10
5.99884568178974
 20
-7.555433333333339
 30
0.0
 10
5.986572070988687
 20
-7.548884722222232
 30
0.0
 10
5.761486111111114
 20
-7.42872638888889
 30
0.0
 10
5.540634582254016
 20
-7.598220833333344
 30
0.0
 10
5.337404031832496
 20
-7.685122222222212
 30
0.0
 10
5.283063755427469
 20
-7.708355555555549
 30
0.0
 10
5.227951256819728
 20
-7.73022222222221
 30
0.0
 10
5.171019313813505
 20
-7.746338888888886
 30
0.0
 10
5.11983875955088
 20
-7.760824999999992
 30
0.0
 10
5.059962372174596
 20
-7.776258333333342
 30
0.0
 10
5.006380429083745
 20
-7.769597222222223
 30
0.0
 10
4.987558207337011
 20
-7.767272222222219
 30
0.0
 10
4.976560985392603
 20
-7.752672222222221
 30
0.0
 10
4.97380555555555
 20
-7.733913888888891
 30
0.0
 10
4.971329041080328
 20
-7.717088888888888
 30
0.0
 10
4.978773485336711
 20
-7.702198611111119
 30
0.0
 10
4.992830429426046
 20
-7.694741666666661
 30
0.0
 10
5.007733206827348
 20
-7.686829166666661
 30
0.0
 10
5.024847222222219
 20
-7.681784722222219
 30
0.0
 10
5.041595705971909
 20
-7.678852777777769
 30
0.0
 10
5.183066535731389
 20
-7.654077777777779
 30
0.0
 10
5.31516931017197
 20
-7.603390277777786
 30
0.0
 10
5.442104029187552
 20
-7.537344444444443
 30
0.0
 10
5.553881804141585
 20
-7.479161111111099
 30
0.0
 10
5.679830412070967
 20
-7.422622222222217
 30
0.0
 10
5.805373464455038
 20
-7.416137500000003
 30
0.0
 10
5.880266518118636
 20
-7.412281944444455
 30
0.0
 10
5.955009571786023
 20
-7.426438888888899
 30
0.0
 10
6.026552625534249
 20
-7.468505555555566
 30
0.0
 10
6.09807206817196
 20
-7.426438888888899
 30
0.0
 10
6.17280123295081
 20
-7.412281944444455
 30
0.0
 10
6.247708333333321
 20
-7.416137500000003
 30
0.0
 10
6.373251227887017
 20
-7.422622222222217
 30
0.0
 10
6.499198446927544
 20
-7.479161111111099
 30
0.0
 10
6.610977610770432
 20
-7.537344444444443
 30
0.0
 10
6.737910940897159
 20
-7.603390277777786
 30
0.0
 10
6.870015104226594
 20
-7.654077777777779
 30
0.0
 10
7.011497045096903
 20
-7.678852777777769
 30
0.0
 10
7.028233155785225
 20
-7.681784722222219
 30
0.0
 10
7.045361111111106
 20
-7.686829166666661
 30
0.0
 10
7.060263888888888
 20
-7.694741666666661
 30
0.0
 10
7.074319444444452
 20
-7.702198611111119
 30
0.0
 10
7.081765098877339
 20
-7.717088888888888
 30
0.0
 10
7.079287321162155
 20
-7.733913888888891
 30
0.0
  0
SPLINE
  5
47
330
1F
100
AcDbEntity
  8
Layer 1
370
     0
100
AcDbSpline
210
0.0
220
0.0
230
1.0
 70
    11
 71
     3
 72
    38
 73
    34
 74
     0
 42
0.0000000001
 43
0.0000000001
 12
1.0
 22
0.0
 32
0.0
 13
1.0
 23
0.0
 33
0.0
 40
0.0
 40
0.0
 40
0.0
 40
0.0
 40
1.0
 40
1.0
 40
1.0
 40
2.0
 40
2.0
 40
2.0
 40
3.0
 40
3.0
 40
3.0
 40
4.0
 40
4.0
 40
4.0
 40
5.0
 40
5.0
 40
5.0
 40
6.0
 40
6.0
 40
6.0
 40
7.0
 40
7.0
 40
7.0
 40
8.0
 40
8.0
 40
8.0
 40
9.0
 40
9.0
 40
9.0
 40
10.0
 40
10.0
 40
10.0
 40
11.0
 40
11.0
 40
11.0
 40
11.0
 10
7.813625000000002
 20
-5.453175
 30
0.0
 10
7.785387303324569
 20
-5.70710555555556
 30
0.0
 10
7.637558140392381
 20
-6.032366666666664
 30
0.0
 10
7.346187314419694
 20
-6.05740694444445
 30
0.0
 10
7.336087314674842
 20
-6.058266666666668
 30
0.0
 10
7.325848426044608
 20
-6.058720833333331
 30
0.0
 10
7.315484537417533
 20
-6.058720833333331
 30
0.0
 10
7.204906762433185
 20
-6.058809722222223
 30
0.0
 10
7.096402777777787
 20
-6.011863888888885
 30
0.0
 10
7.018613711583789
 20
-5.933683333333331
 30
0.0
 10
6.909199825458927
 20
-5.823725000000005
 30
0.0
 10
6.857576215651938
 20
-5.675429166666668
 30
0.0
 10
6.83788316059387
 20
-5.524251388888893
 30
0.0
 10
6.833799827363691
 20
-5.492954166666664
 30
0.0
 10
6.835999999999987
 20
-5.462579166666665
 30
0.0
 10
6.872972222222213
 20
-5.456676388888885
 30
0.0
 10
6.914849825316196
 20
-5.450002777777778
 30
0.0
 10
6.92267482511852
 20
-5.48164166666667
 30
0.0
 10
6.927111111111117
 20
-5.514834722222227
 30
0.0
 10
6.950963713292771
 20
-5.69330277777778
 30
0.0
 10
7.03872482218685
 20
-5.908023611111111
 30
0.0
 10
7.229706761806685
 20
-5.960859722222216
 30
0.0
 10
7.363151202880039
 20
-5.997769444444442
 30
0.0
 10
7.493674810693847
 20
-5.930434722222217
 30
0.0
 10
7.575949808615405
 20
-5.826341666666672
 30
0.0
 10
7.664508139711566
 20
-5.714286111111114
 30
0.0
 10
7.710012305228702
 20
-5.585380555555553
 30
0.0
 10
7.724662304858612
 20
-5.444427777777782
 30
0.0
 10
7.727848415889234
 20
-5.413826388888891
 30
0.0
 10
7.736848415661875
 20
-5.383893055555555
 30
0.0
 10
7.775262303580348
 20
-5.387698611111116
 30
0.0
 10
7.813713691497873
 20
-5.391477777777772
 30
0.0
 10
7.817038691413877
 20
-5.422472222222217
 30
0.0
 10
7.813625000000002
 20
-5.453175
 30
0.0
  0
SPLINE
  5
48
330
1F
100
AcDbEntity
  8
Layer 1
370
     0
100
AcDbSpline
210
0.0
220
0.0
230
1.0
 70
    11
 71
     3
 72
    44
 73
    40
 74
     0
 42
0.0000000001
 43
0.0000000001
 12
1.0
 22
0.0
 32
0.0
 13
1.0
 23
0.0
 33
0.0
 40
0.0
 40
0.0
 40
0.0
 40
0.0
 40
1.0
 40
1.0
 40
1.0
 40
2.0
 40
2.0
 40
2.0
 40
3.0
 40
3.0
 40
3.0
 40
4.0
 40
4.0
 40
4.0
 40
5.0
 40
5.0
 40
5.0
 40
6.0
 40
6.0
 40
6.0
 40
7.0
 40
7.0
 40
7.0
 40
8.0
 40
8.0
 40
8.0
 40
9.0
 40
9.0
 40
9.0
 40
10.0
 40
10.0
 40
10.0
 40
11.0
 40
11.0
 40
11.0
 40
12.0
 40
12.0
 40
12.0
 40
13.0
 40
13.0
 40
13.0
 40
13.0
 10
7.478733144404638
 20
-4.485927777777773
 30
0.0
 10
7.784262303352989
 20
-4.500425000000001
 30
0.0
 10
8.060616463038361
 20
-4.606502777777778
 30
0.0
 10
8.321373400895531
 20
-4.75929861111111
 30
0.0
 10
8.37280673292955
 20
-4.789445833333338
 30
0.0
 10
8.422773398333952
 20
-4.822247222222219
 30
0.0
 10
8.472184508196834
 20
-4.85563055555556
 30
0.0
 10
8.495202563170904
 20
-4.871190277777777
 30
0.0
 10
8.505744229571267
 20
-4.894550000000006
 30
0.0
 10
8.487567841141551
 20
-4.920311111111105
 30
0.0
 10
8.469833333333327
 20
-4.945452777777783
 30
0.0
 10
8.445741453309285
 20
-4.944112499999997
 30
0.0
 10
8.42130812059319
 20
-4.929412499999999
 30
0.0
 10
7.949862299169581
 20
-4.645662499999995
 30
0.0
 10
7.398455368654847
 20
-4.422156944444446
 30
0.0
 10
6.872681770825895
 20
-4.711025
 30
0.0
 10
6.288447063362683
 20
-5.032000000000001
 30
0.0
 10
6.192292899125075
 20
-5.82323194444445
 30
0.0
 10
6.257504008588815
 20
-6.416479166666679
 30
0.0
 10
6.266984563904871
 20
-6.502597222222221
 30
0.0
 10
6.280420674676558
 20
-6.58818472222222
 30
0.0
 10
6.298673451993231
 20
-6.67300138888888
 30
0.0
 10
6.305044285165624
 20
-6.702630555555565
 30
0.0
 10
6.297245674251522
 20
-6.729187500000004
 30
0.0
 10
6.264190119531021
 20
-6.735684722222231
 30
0.0
 10
6.23102206481336
 20
-6.742194444444445
 30
0.0
 10
6.215601231869591
 20
-6.719833333333327
 30
0.0
 10
6.208737343154098
 20
-6.690558333333329
 30
0.0
 10
6.174659566237197
 20
-6.545334722222226
 30
0.0
 10
6.156116511150079
 20
-6.396583333333334
 30
0.0
 10
6.1490748446613
 20
-6.247680555555562
 30
0.0
 10
6.146572066946747
 20
-6.194794444444445
 30
0.0
 10
6.145295678090102
 20
-6.141463888888893
 30
0.0
 10
6.145460955863705
 20
-6.087958333333341
 30
0.0
 10
6.146635955834022
 20
-5.703490277777771
 30
0.0
 10
6.221706787270906
 20
-5.308873611111115
 30
0.0
 10
6.44412500000001
 20
-4.990173611111104
 30
0.0
 10
6.694769275320342
 20
-4.630987499999997
 30
0.0
 10
7.042149822100328
 20
-4.465209722222223
 30
0.0
 10
7.478733144404638
 20
-4.485927777777773
 30
0.0
  0
HATCH
  5
49
330
1F
100
AcDbEntity
  8
Layer 1
 62
     7
420
 16777215
100
AcDbHatch
 10
0.0
 20
0.0
 30
0.0
210
0.0
220
0.0
230
1.0
  2
SOLID
 70
     1
 71
     0
 91
        8
 92
        1
 93
        1
 72
     4
 94
        3
 73
     0
 74
     1
 95
      614
 96
      610
 40
0.0
 40
0.0
 40
0.0
 40
0.0
 40
1.0
 40
1.0
 40
1.0
 40
2.0
 40
2.0
 40
2.0
 40
3.0
 40
3.0
 40
3.0
 40
4.0
 40
4.0
 40
4.0
 40
5.0
 40
5.0
 40
5.0
 40
6.0
 40
6.0
 40
6.0
 40
7.0
 40
7.0
 40
7.0
 40
8.0
 40
8.0
 40
8.0
 40
9.0
 40
9.0
 40
9.0
 40
10.0
 40
10.0
 40
10.0
 40
11.0
 40
11.0
 40
11.0
 40
12.0
 40
12.0
 40
12.0
 40
13.0
 40
13.0
 40
13.0
 40
14.0
 40
14.0
 40
14.0
 40
15.0
 40
15.0
 40
15.0
 40
16.0
 40
16.0
 40
16.0
 40
17.0
 40
17.0
 40
17.0
 40
18.0
 40
18.0
 40
18.0
 40
19.0
 40
19.0
 40
19.0
 40
20.0
 40
20.0
 40
20.0
 40
21.0
 40
21.0
 40
21.0
 40
22.0
 40
22.0
 40
22.0
 40
23.0
 40
23.0
 40
23.0
 40
24.0
 40
24.0
 40
24.0
 40
25.0
 40
25.0
 40
25.0
 40
26.0
 40
26.0
 40
26.0
 40
27.0
 40
27.0
 40
27.0
 40
28.0
 40
28.0
 40
28.0
 40
29.0
 40
29.0
 40
29.0
 40
30.0
 40
30.0
 40
30.0
 40
31.0
 40
31.0
 40
31.0
 40
32.0
 40
32.0
 40
32.0
 40
33.0
 40
33.0
 40
33.0
 40
34.0
 40
34.0
 40
34.0
 40
35.0
 40
35.0
 40
35.0
 40
36.0
 40
36.0
 40
36.0
 40
37.0
 40
37.0
 40
37.0
 40
38.0
 40
38.0
 40
38.0
 40
39.0
 40
39.0
 40
39.0
 40
40.0
 40
40.0
 40
40.0
 40
41.0
 40
41.0
 40
41.0
 40
42.0
 40
42.0
 40
42.0
 40
43.0
 40
43.0
 40
43.0
 40
44.0
 40
44.0
 40
44.0
 40
45.0
 40
45.0
 40
45.0
 40
46.0
 40
46.0
 40
46.0
 40
47.0
 40
47.0
 40
47.0
 40
48.0
 40
48.0
 40
48.0
 40
49.0
 40
49.0
 40
49.0
 40
50.0
 40
50.0
 40
50.0
 40
51.0
 40
51.0
 40
51.0
 40
52.0
 40
52.0
 40
52.0
 40
53.0
 40
53.0
 40
53.0
 40
54.0
 40
54.0
 40
54.0
 40
55.0
 40
55.0
 40
55.0
 40
56.0
 40
56.0
 40
56.0
 40
57.0
 40
57.0
 40
57.0
 40
58.0
 40
58.0
 40
58.0
 40
59.0
 40
59.0
 40
59.0
 40
60.0
 40
60.0
 40
60.0
 40
61.0
 40
61.0
 40
61.0
 40
62.0
 40
62.0
 40
62.0
 40
63.0
 40
63.0
 40
63.0
 40
64.0
 40
64.0
 40
64.0
 40
65.0
 40
65.0
 40
65.0
 40
66.0
 40
66.0
 40
66.0
 40
67.0
 40
67.0
 40
67.0
 40
68.0
 40
68.0
 40
68.0
 40
69.0
 40
69.0
 40
69.0
 40
70.0
 40
70.0
 40
70.0
 40
71.0
 40
71.0
 40
71.0
 40
72.0
 40
72.0
 40
72.0
 40
73.0
 40
73.0
 40
73.0
 40
74.0
 40
74.0
 40
74.0
 40
75.0
 40
75.0
 40
75.0
 40
76.0
 40
76.0
 40
76.0
 40
77.0
 40
77.0
 40
77.0
 40
78.0
 40
78.0
 40
78.0
 40
79.0
 40
79.0
 40
79.0
 40
80.0
 40
80.0
 40
80.0
 40
81.0
 40
81.0
 40
81.0
 40
82.0
 40
82.0
 40
82.0
 40
83.0
 40
83.0
 40
83.0
 40
84.0
 40
84.0
 40
84.0
 40
85.0
 40
85.0
 40
85.0
 40
86.0
 40
86.0
 40
86.0
 40
87.0
 40
87.0
 40
87.0
 40
88.0
 40
88.0
 40
88.0
 40
89.0
 40
89.0
 40
89.0
 40
90.0
 40
90.0
 40
90.0
 40
91.0
 40
91.0
 40
91.0
 40
92.0
 40
92.0
 40
92.0
 40
93.0
 40
93.0
 40
93.0
 40
94.0
 40
94.0
 40
94.0
 40
95.0
 40
95.0
 40
95.0
 40
96.0
 40
96.0
 40
96.0
 40
97.0
 40
97.0
 40
97.0
 40
98.0
 40
98.0
 40
98.0
 40
99.0
 40
99.0
 40
99.0
 40
100.0
 40
100.0
 40
100.0
 40
101.0
 40
101.0
 40
101.0
 40
102.0
 40
102.0
 40
102.0
 40
103.0
 40
103.0
 40
103.0
 40
104.0
 40
104.0
 40
104.0
 40
105.0
 40
105.0
 40
105.0
 40
106.0
 40
106.0
 40
106.0
 40
107.0
 40
107.0
 40
107.0
 40
108.0
 40
108.0
 40
108.0
 40
109.0
 40
109.0
 40
109.0
 40
110.0
 40
110.0
 40
110.0
 40
111.0
 40
111.0
 40
111.0
 40
112.0
 40
112.0
 40
112.0
 40
113.0
 40
113.0
 40
113.0
 40
114.0
 40
114.0
 40
114.0
 40
115.0
 40
115.0
 40
115.0
 40
116.0
 40
116.0
 40
116.0
 40
117.0
 40
117.0
 40
117.0
 40
118.0
 40
118.0
 40
118.0
 40
119.0
 40
119.0
 40
119.0
 40
120.0
 40
120.0
 40
120.0
 40
121.0
 40
121.0
 40
121.0
 40
122.0
 40
122.0
 40
122.0
 40
123.0
 40
123.0
 40
123.0
 40
124.0
 40
124.0
 40
124.0
 40
125.0
 40
125.0
 40
125.0
 40
126.0
 40
126.0
 40
126.0
 40
127.0
 40
127.0
 40
127.0
 40
128.0
 40
128.0
 40
128.0
 40
129.0
 40
129.0
 40
129.0
 40
130.0
 40
130.0
 40
130.0
 40
131.0
 40
131.0
 40
131.0
 40
132.0
 40
132.0
 40
132.0
 40
133.0
 40
133.0
 40
133.0
 40
134.0
 40
134.0
 40
134.0
 40
135.0
 40
135.0
 40
135.0
 40
136.0
 40
136.0
 40
136.0
 40
137.0
 40
137.0
 40
137.0
 40
138.0
 40
138.0
 40
138.0
 40
139.0
 40
139.0
 40
139.0
 40
140.0
 40
140.0
 40
140.0
 40
141.0
 40
141.0
 40
141.0
 40
142.0
 40
142.0
 40
142.0
 40
143.0
 40
143.0
 40
143.0
 40
144.0
 40
144.0
 40
144.0
 40
145.0
 40
145.0
 40
145.0
 40
146.0
 40
146.0
 40
146.0
 40
147.0
 40
147.0
 40
147.0
 40
148.0
 40
148.0
 40
148.0
 40
149.0
 40
149.0
 40
149.0
 40
150.0
 40
150.0
 40
150.0
 40
151.0
 40
151.0
 40
151.0
 40
152.0
 40
152.0
 40
152.0
 40
153.0
 40
153.0
 40
153.0
 40
154.0
 40
154.0
 40
154.0
 40
155.0
 40
155.0
 40
155.0
 40
156.0
 40
156.0
 40
156.0
 40
157.0
 40
157.0
 40
157.0
 40
158.0
 40
158.0
 40
158.0
 40
159.0
 40
159.0
 40
159.0
 40
160.0
 40
160.0
 40
160.0
 40
161.0
 40
161.0
 40
161.0
 40
162.0
 40
162.0
 40
162.0
 40
163.0
 40
163.0
 40
163.0
 40
164.0
 40
164.0
 40
164.0
 40
165.0
 40
165.0
 40
165.0
 40
166.0
 40
166.0
 40
166.0
 40
167.0
 40
167.0
 40
167.0
 40
168.0
 40
168.0
 40
168.0
 40
169.0
 40
169.0
 40
169.0
 40
170.0
 40
170.0
 40
170.0
 40
171.0
 40
171.0
 40
171.0
 40
172.0
 40
172.0
 40
172.0
 40
173.0
 40
173.0
 40
173.0
 40
174.0
 40
174.0
 40
174.0
 40
175.0
 40
175.0
 40
175.0
 40
176.0
 40
176.0
 40
176.0
 40
177.0
 40
177.0
 40
177.0
 40
178.0
 40
178.0
 40
178.0
 40
179.0
 40
179.0
 40
179.0
 40
180.0
 40
180.0
 40
180.0
 40
181.0
 40
181.0
 40
181.0
 40
182.0
 40
182.0
 40
182.0
 40
183.0
 40
183.0
 40
183.0
 40
184.0
 40
184.0
 40
184.0
 40
185.0
 40
185.0
 40
185.0
 40
186.0
 40
186.0
 40
186.0
 40
187.0
 40
187.0
 40
187.0
 40
188.0
 40
188.0
 40
188.0
 40
189.0
 40
189.0
 40
189.0
 40
190.0
 40
190.0
 40
190.0
 40
191.0
 40
191.0
 40
191.0
 40
192.0
 40
192.0
 40
192.0
 40
193.0
 40
193.0
 40
193.0
 40
194.0
 40
194.0
 40
194.0
 40
195.0
 40
195.0
 40
195.0
 40
196.0
 40
196.0
 40
196.0
 40
197.0
 40
197.0
 40
197.0
 40
198.0
 40
198.0
 40
198.0
 40
199.0
 40
199.0
 40
199.0
 40
200.0
 40
200.0
 40
200.0
 40
201.0
 40
201.0
 40
201.0
 40
202.0
 40
202.0
 40
202.0
 40
203.0
 40
203.0
 40
203.0
 40
203.0
 10
6.90907343657323
 20
-3.19801944444445
 10
6.8965345480011
 20
-3.05724444444445
 10
6.896369270227498
 20
-2.915876388888894
 10
6.898581770171606
 20
-2.774608333333339
 10
6.902474825628815
 20
-2.52580972222222
 10
6.964867879608189
 20
-2.280423611111107
 10
6.950634546634419
 20
-2.030865277777782
 10
6.938435935831471
 20
-1.817080555555561
 10
6.851951215794037
 20
-1.630901388888889
 10
6.716320663664797
 20
-1.466931944444443
 10
6.66479983163299
 20
-1.404640277777781
 10
6.598172055538371
 20
-1.34749305555556
 10
6.620835943854722
 20
-1.473694444444441
 10
6.670323442604563
 20
-1.74916388888889
 10
6.593267888995594
 20
-2.01888333333333
 10
6.498238724729567
 20
-2.275531944444449
 10
6.450458333333345
 20
-2.404588888888889
 10
6.398026227261147
 20
-2.531990277777772
 10
6.355023450569711
 20
-2.662779166666673
 10
6.335026228852661
 20
-2.72361666666667
 10
6.316458333333331
 20
-2.785150000000006
 10
6.298750000000003
 20
-2.846670833333329
 10
6.285287341220283
 20
-2.893426388888884
 10
6.257680555555553
 20
-3.002019444444449
 10
6.24504012001479
 20
-3.064437500000003
 10
6.235395675813985
 20
-3.036123611111116
 10
6.225574842728747
 20
-3.007884722222216
 10
6.215259565211555
 20
-2.979836111111113
 10
6.09181512388558
 20
-2.64404583333333
 10
6.008629014875926
 20
-2.294238888888887
 10
5.962265127158288
 20
-1.939627777777774
 10
5.91420679503901
 20
-1.572150000000003
 10
5.929323461323798
 20
-1.164056944444446
 10
5.724892910932592
 20
-0.8392527777777761
 10
5.594267914232457
 20
-0.6317111111111064
 10
5.369245697694774
 20
-0.4050583333333356
 10
5.370648475437116
 20
-0.1429611111111121
 10
5.371040142093888
 20
-0.1228005555555506
 10
5.379913752980833
 20
-0.0699515277777765
 10
5.358942920177267
 20
-0.0609895833333288
 10
5.337252642947432
 20
-0.0517368055555557
 10
5.315966532374053
 20
-0.0810876388888902
 10
5.302429032716039
 20
-0.0994787500000029
 10
5.227522090163903
 20
-0.2011583333333344
 10
5.206260979589893
 20
-0.3183208333333343
 10
5.185797091217965
 20
-0.4389472222222189
 10
5.132505425897559
 20
-0.7530583333333298
 10
5.271637366827235
 20
-1.05344166666666
 10
5.308255421457741
 20
-1.360752777777773
 10
5.343585976120772
 20
-1.657244444444447
 10
5.299091532800351
 20
-1.954404166666664
 10
5.280409588827852
 20
-2.250338888888892
 10
5.261663755968079
 20
-2.547450000000001
 10
5.288763888888891
 20
-2.836368055555555
 10
5.357312364662903
 20
-3.126122222222218
 10
5.35839986463543
 20
-3.130773611111105
 10
5.35938597572163
 20
-3.135375000000004
 10
5.36048611111111
 20
-3.140026388888891
 10
5.279233199968681
 20
-3.024368055555556
 10
5.208409590646725
 20
-2.902022222222222
 10
5.139697092382549
 20
-2.778577777777779
 10
5.045969316972534
 20
-2.610233333333339
 10
4.984234596309862
 20
-2.426556944444441
 10
4.898381820700908
 20
-2.25419444444444
 10
4.777262379316198
 20
-2.01102083333333
 10
4.586040161924656
 20
-1.833197222222225
 10
4.328013888888892
 20
-1.73723194444445
 10
4.252234614801738
 20
-1.709030555555551
 10
4.165965172536643
 20
-1.692863888888888
 10
4.248708333333335
 20
-1.790826388888894
 10
4.571212384521459
 20
-2.172702777777772
 10
4.536591552062721
 20
-2.668062500000006
 10
4.651895715816559
 20
-3.123631944444444
 10
4.66492765993179
 20
-3.175102777777776
 10
4.698715159078246
 20
-3.297651388888893
 10
4.718915158567951
 20
-3.357274999999996
 10
4.696212381363694
 20
-3.337391666666665
 10
4.673699881932407
 20
-3.317281944444441
 10
4.650530438073272
 20
-3.297966666666664
 10
4.384919333672062
 20
-3.076520833333335
 10
4.127779062390194
 20
-2.820909722222217
 10
3.920401289851219
 20
-2.54364444444444
 10
3.679313795941602
 20
-2.221329166666667
 10
3.47945833333333
 20
-1.84952777777778
 10
3.102802699394386
 20
-1.66534583333334
 10
2.920326315115239
 20
-1.576118055555551
 10
2.716287431380806
 20
-1.512740277777779
 10
2.574804101621642
 20
-1.359186111111108
 10
2.547842991191626
 20
-1.329948611111111
 10
2.520401325218194
 20
-1.298108333333339
 10
2.500656881272536
 20
-1.263473611111117
 10
2.490898548185719
 20
-1.245815277777776
 10
2.47216521532563
 20
-1.195608333333338
 10
2.449513888888886
 20
-1.198337500000005
 10
2.42610410537812
 20
-1.201156944444443
 10
2.422349938806292
 20
-1.23723194444445
 10
2.419809661092687
 20
-1.25993472222222
 10
2.365645773572093
 20
-1.743716666666665
 10
2.828634650764899
 20
-2.025304166666666
 10
3.065613811444968
 20
-2.372481944444442
 10
3.343802693306214
 20
-2.780018055555552
 10
3.520298522180888
 20
-3.248745833333335
 10
3.810772125954018
 20
-3.647547222222228
 10
3.844965180645785
 20
-3.694518055555553
 10
3.930172122937721
 20
-3.795424999999998
 10
3.97046934414195
 20
-3.842573611111106
 10
3.521599911036901
 20
-3.677908333333335
 10
3.140723531769759
 20
-3.132441666666661
 10
2.637083333333332
 20
-3.147484722222227
 10
2.555641602105728
 20
-3.14992361111111
 10
2.47540132635499
 20
-3.151831944444439
 10
2.394831883945901
 20
-3.16545833333334
 10
2.315097222222221
 20
-3.178945833333336
 10
2.232302721385066
 20
-3.208069444444441
 10
2.35294160722636
 20
-3.251526388888894
 10
2.862674927682747
 20
-3.435227777777779
 10
3.162869364543642
 20
-3.968673611111108
 10
3.510515189094702
 20
-4.350536111111106
 10
3.330112415874282
 20
-4.367259722222217
 10
3.08266666666667
 20
-4.267148611111111
 10
2.906940204342289
 20
-4.215373611111115
 10
2.468234659869368
 20
-4.086127777777784
 10
2.057184670253365
 20
-3.820630555555554
 10
1.609427737120212
 20
-3.734979166666663
 10
1.304024999999999
 20
-3.676493055555561
 10
0.9859069444444483
 20
-3.807851388888884
 10
0.6874819444444458
 20
-3.714679166666668
 10
0.64951111111111
 20
-3.702822222222216
 10
0.6098194444444466
 20
-3.688981944444448
 10
0.5753999999999956
 20
-3.668858333333333
 10
0.5581333333333305
 20
-3.658443055555558
 10
0.5167875000000018
 20
-3.62432638888889
 10
0.4985472222222269
 20
-3.638016666666671
 10
0.4796888888888841
 20
-3.652173611111114
 10
0.4944652777777744
 20
-3.68527777777778
 10
0.5036291666666683
 20
-3.706211111111113
 10
0.6924374999999953
 20
-4.137913888888887
 10
1.212143055555556
 20
-4.163940277777783
 10
1.588924959860378
 20
-4.323600000000005
 10
1.906740229609467
 20
-4.458283333333333
 10
2.157637445493492
 20
-4.705868055555558
 10
2.456174937951801
 20
-4.875766666666664
 10
2.675876321290565
 20
-5.000804166666663
 10
2.910138888888885
 20
-5.099411111111118
 10
3.152213809257268
 20
-5.171991666666663
 10
3.156801309141378
 20
-5.173381944444448
 10
3.16127630902833
 20
-5.174823611111113
 10
3.165852697801609
 20
-5.176199999999994
 10
3.025051312469663
 20
-5.188740277777772
 10
2.883683260485365
 20
-5.188891666666664
 10
2.742427708498225
 20
-5.186691666666661
 10
2.401265217116714
 20
-5.181370833333327
 10
1.953306895099761
 20
-5.035906944444441
 10
1.635568014237631
 20
-5.232248611111117
 10
1.566248571544343
 20
-5.27508611111111
 10
1.497724962164284
 20
-5.316862499999994
 10
1.43475135264402
 20
-5.368952777777773
 10
1.372447222222225
 20
-5.420474999999997
 10
1.315312500000005
 20
-5.487101388888883
 10
1.441513888888885
 20
-5.464437500000005
 10
1.721773567615451
 20
-5.414090277777783
 10
2.000012449475435
 20
-5.488277777777776
 10
2.261817998417226
 20
-5.584709722222227
 10
2.47059854869854
 20
-5.661613888888888
 10
2.756597222222227
 20
-5.814206944444448
 10
3.025342979128962
 20
-5.842168055555551
 10
2.999505479781672
 20
-5.851597222222217
 10
2.973479091550264
 20
-5.860508333333339
 10
2.947642981091829
 20
-5.870001388888883
 10
2.604522156426456
 20
-5.996138888888885
 10
2.244336054414412
 20
-6.063195833333339
 10
1.883393007977045
 20
-6.114111111111115
 10
1.59587634857366
 20
-6.154673611111118
 10
1.297995833333339
 20
-6.172243055555555
 10
1.023131944444445
 20
-6.272834722222215
 10
0.8020916666666709
 20
-6.353733333333341
 10
0.6204125000000051
 20
-6.509081944444435
 10
0.4133513888888905
 20
-6.616979166666674
 10
0.3691236111111114
 20
-6.640023611111119
 10
0.0373790277777744
 20
-6.706245833333342
 10
0.0288088888888877
 20
-6.726330555555553
 10
0.01955625
 20
-6.748008333333321
 10
0.0489069444444491
 20
-6.769295833333343
 10
0.0673238888888869
 20
-6.782858333333327
 10
0.3242249999999937
 20
-6.972095833333342
 10
0.6371736111111154
 20
-6.921420833333336
 10
0.9270791666666708
 20
-6.854856944444438
 10
1.643581902924072
 20
-6.69035694444445
 10
2.37828605103055
 20
-6.897252777777768
 10
3.093941588507126
 20
-6.727961111111123
 10
3.098605477278195
 20
-6.7268625
 10
3.103194444444448
 20
-6.72587638888889
 10
3.107845754822544
 20
-6.724788888888901
 10
2.992187424410986
 20
-6.806040277777785
 10
2.869829094168684
 20
-6.876863888888894
 10
2.746397152842392
 20
-6.945576388888892
 10
2.516786047531746
 20
-7.073395833333329
 10
2.257154109646156
 20
-7.144206944444451
 10
2.04099161510688
 20
-7.296913888888891
 10
1.879386063633824
 20
-7.411080555555549
 10
1.773422177421809
 20
-7.57341944444445
 10
1.705038845815984
 20
-7.75726111111112
 10
1.676849957639206
 20
-7.833026388888887
 10
1.660683291380944
 20
-7.919295833333333
 10
1.758658288905887
 20
-7.836552777777771
 10
2.09042772496913
 20
-7.556380555555556
 10
2.510390214359985
 20
-7.548113888888893
 10
2.914904093029993
 20
-7.473650000000007
 10
3.004688812984063
 20
-7.457129166666668
 10
3.216602696519557
 20
-7.408515277777774
 10
3.325094360445493
 20
-7.366347222222227
 10
3.305211027614455
 20
-7.389048611111118
 10
3.285099917011394
 20
-7.411561111111117
 10
3.265786028610414
 20
-7.434730555555562
 10
3.009048535096149
 20
-7.742661111111121
 10
2.711926320379866
 20
-8.0153
 10
2.388019384117999
 20
-8.251180555555568
 10
2.170466611836066
 20
-8.409601388888884
 10
1.937670784383651
 20
-8.558162500000005
 10
1.768315233106376
 20
-8.771265277777779
 10
1.588533293203606
 20
-8.997488888888887
 10
1.542497183255465
 20
-9.311890277777769
 10
1.327005555555552
 20
-9.51046944444445
 10
1.297768055555556
 20
-9.537418055555564
 10
1.265952777777784
 20
-9.564848611111124
 10
1.231318055555549
 20
-9.584604166666672
 10
1.192752777777779
 20
-9.606586111111103
 10
1.126593055555557
 20
-9.656034722222229
 10
1.217034722222226
 20
-9.665490277777785
 10
1.587648571003734
 20
-9.704244444444434
 10
1.853738842059506
 20
-9.435209722222226
 10
2.104926335713976
 20
-9.205358333333328
 10
2.362131884771972
 20
-8.970008333333327
 10
2.675194444444438
 20
-8.807404166666679
 10
2.989570757810422
 20
-8.662595833333322
 10
3.300331861071047
 20
-8.519456944444451
 10
3.571137409785479
 20
-8.340901388888899
 10
3.821454070128614
 20
-8.104602777777774
 10
3.824929070040828
 20
-8.101316666666662
 10
3.82841795884158
 20
-8.09816944444444
 10
3.831906847642333
 20
-8.09489583333334
 10
3.77237073803523
 20
-8.22309305555556
 10
3.701826295372888
 20
-8.345602777777787
 10
3.629283241649925
 20
-8.466823611111117
 10
3.454038801632527
 20
-8.759673611111111
 10
3.104167977137675
 20
-9.076034722222225
 10
3.115304087967464
 20
-9.448190277777787
 10
3.117742976794741
 20
-9.529631944444443
 10
3.11966381007955
 20
-9.609859722222229
 10
3.133277777777771
 20
-9.690441666666654
 10
3.146752698284116
 20
-9.770163888888899
 10
3.175876308659503
 20
-9.852958333333339
 10
3.219358252005501
 20
-9.732319444444455
 10
3.376438803592868
 20
-9.296469444444456
 10
3.755395738464055
 20
-9.114500000000008
 10
4.067952675012647
 20
-8.816315277777777
 10
4.162551283733996
 20
-8.726063888888877
 10
4.255736111111117
 20
-8.638719444444455
 10
4.340186001468788
 20
-8.542601388888897
 10
4.33437211272677
 20
-8.571940277777786
 10
4.328759612868554
 20
-8.601316666666662
 10
4.323652777777776
 20
-8.63075555555555
 10
4.263724892289247
 20
-8.977099999999988
 10
4.163663783705892
 20
-9.317376388888887
 10
4.030587398178795
 20
-9.642598611111099
 10
3.886980457362167
 20
-9.993518055555569
 10
3.664359629652709
 20
-10.34228888888889
 10
3.680590184798247
 20
-10.73515
 10
3.689792962343542
 20
-10.95774583333334
 10
3.75097073857584
 20
-11.17844444444444
 10
3.682498518083371
 20
-11.39779166666666
 10
3.670641573938458
 20
-11.43575138888888
 10
3.656801296510316
 20
-11.47544166666666
 10
3.636665185907885
 20
-11.50986111111112
 10
3.626262408392904
 20
-11.52712777777778
 10
3.592145742588097
 20
-11.5684736111111
 10
3.605836020020029
 20
-11.58671388888888
 10
3.619992964106839
 20
-11.6055861111111
 10
3.653097222222224
 20
-11.59079722222221
 10
3.674030462741737
 20
-11.58164444444444
 10
3.789726293152348
 20
-11.53104583333334
 10
3.866730457873725
 20
-11.44018749999999
 10
3.944759622569209
 20
-11.34595416666667
 10
4.151808228449832
 20
-11.09591666666668
 10
4.17333461679492
 20
-10.77333611111112
 10
4.294313780405395
 20
-10.48422777777778
 10
4.410806833018088
 20
-10.205825
 10
4.598060994954317
 20
-9.96418055555556
 10
4.775959601571331
 20
-9.723116666666657
 10
4.947210986134047
 20
-9.491029166666673
 10
5.057181816689282
 20
-9.209313888888902
 10
5.139810981268561
 20
-8.933048611111113
 10
5.141188759011533
 20
-8.928459722222215
 10
5.14263042564178
 20
-8.92399722222222
 10
5.144020703384436
 20
-8.919422222222211
 10
5.156559591956566
 20
-9.060209722222226
 10
5.156723480841316
 20
-9.201565277777767
 10
5.154498480897524
 20
-9.342820833333336
 10
5.147054036641141
 20
-9.817072222222224
 10
5.00439570691166
 20
-10.24863750000001
 10
5.336759587404331
 20
-10.65050972222222
 10
5.388294308324677
 20
-10.71281388888888
 10
5.454908195530757
 20
-10.76996111111112
 10
5.432244307214407
 20
-10.64374722222222
 10
5.334333333333334
 20
-10.09864722222222
 10
5.70379568924333
 20
-9.57455555555556
 10
5.808052631054023
 20
-9.05301666666666
 10
5.817684575255144
 20
-9.081318055555558
 10
5.827506797229236
 20
-9.109556944444446
 10
5.837820685857574
 20
-9.13761805555555
 10
5.995420681876263
 20
-9.566452777777789
 10
6.093230401627604
 20
-10.02353888888888
 10
6.121633178687867
 20
-10.47979027777779
 10
6.136890122746889
 20
-10.72474722222223
 10
6.18482206598047
 20
-10.96998055555557
 10
6.288486111111119
 20
-11.19366388888888
 10
6.395991505090326
 20
-11.42562638888888
 10
6.608916666666674
 20
-11.6001125
 10
6.666076220489635
 20
-11.8545111111111
 10
6.67478594249183
 20
-11.89331666666665
 10
6.682634553404669
 20
-11.93461250000001
 10
6.682420664521183
 20
-11.97448055555555
 10
6.682041666666666
 20
-11.99460277777777
 10
6.673205386976203
 20
-12.04728888888889
 10
6.694010942006166
 20
-12.05640138888889
 10
6.779383162071705
 20
-12.09379166666668
 10
6.855099826825608
 20
-11.74878750000001
 10
6.863163715510786
 20
-11.70338333333332
 10
6.921245658487956
 20
-11.37595
 10
6.782012328671954
 20
-11.08804166666667
 10
6.74268871855424
 20
-10.76937916666667
 10
6.700406775177927
 20
-10.42680277777777
 10
6.789369272930545
 20
-10.08572916666667
 10
6.787258161872765
 20
-9.742241666666661
 10
6.785691495245676
 20
-9.489461111111115
 10
6.753951218269726
 20
-9.237262499999991
 10
6.695780386405911
 20
-8.991319444444445
 10
6.694667886434015
 20
-8.986668055555556
 10
6.693695664236353
 20
-8.98206666666667
 10
6.692608164263826
 20
-8.977415277777784
 10
6.773859551100132
 20
-9.093087500000012
 10
6.844670660422404
 20
-9.21543194444444
 10
6.91338315868658
 20
-9.338865277777787
 10
7.042352599872983
 20
-9.570536111111121
 10
7.105313709393562
 20
-9.829750000000002
 10
7.26723611111111
 20
-10.04541944444446
 10
7.407631757311921
 20
-10.23240694444444
 10
7.614717863191597
 20
-10.3826625
 10
7.847931746189007
 20
-10.3996125
 10
7.774010914723071
 20
-10.34692777777779
 10
7.595478974788723
 20
-9.953195833333337
 10
7.569756753216299
 20
-9.867355555555553
 10
7.51286231020913
 20
-9.677586111111117
 10
7.482512310975835
 20
-9.48315416666666
 10
7.458470644916511
 20
-9.2869638888889
 10
7.443783145287549
 20
-9.167083333333341
 10
7.368598424964652
 20
-8.87940277777779
 10
7.334166666666659
 20
-8.760166666666667
 10
7.356867869705436
 20
-8.78006250000001
 10
7.379380369136722
 20
-8.800161111111112
 10
7.402549812995858
 20
-8.819487499999997
 10
7.738125000000005
 20
-9.099356944444454
 10
8.031492852662975
 20
-9.426968055555562
 10
8.281531735235351
 20
-9.78495277777779
 10
8.425934509365208
 20
-9.99168611111112
 10
8.581763888888897
 20
-10.19623055555556
 10
8.785398389173274
 20
-10.34847083333334
 10
9.001851161482994
 20
-10.51030416666665
 10
9.291667820828277
 20
-10.55575833333334
 10
9.47828864944717
 20
-10.75826944444445
 10
9.505238648766356
 20
-10.78750555555555
 10
9.532680555555544
 20
-10.81933472222221
 10
9.552512258683237
 20
-10.85412083333333
 10
9.65575808940836
 20
-11.04210694444444
 10
9.626142812378728
 20
-10.69352500000001
 10
9.605892812890286
 20
-10.62517916666666
 10
9.554977536398736
 20
-10.45330972222223
 10
9.467444444444455
 20
-10.29967916666667
 10
9.351115041548736
 20
-10.1642375
 10
9.238363655508186
 20
-10.03295555555554
 10
9.106222222222211
 20
-9.918233333333344
 10
9.002066439255334
 20
-9.780199999999997
 10
8.794170611173891
 20
-9.504641666666657
 10
8.7006706135359
 20
-9.164781944444433
 10
8.52709422903192
 20
-8.868393055555543
 10
8.39933867670374
 20
-8.650247222222232
 10
8.245759513916811
 20
-8.447711111111124
 10
8.072409518296
 20
-8.263806944444443
 10
8.069123407267902
 20
-8.260331944444436
 10
8.06598868512487
 20
-8.256830555555553
 10
8.062715074096458
 20
-8.253366666666654
 10
8.190912293080146
 20
-8.312902777777783
 10
8.313409512207828
 20
-8.38344861111111
 10
8.43464284247855
 20
-8.455990277777776
 10
8.63250117081356
 20
-8.574379166666656
 10
8.801691444317232
 20
-8.735012499999987
 10
9.00381088365571
 20
-8.846765277777775
 10
9.211440045077223
 20
-8.961551388888893
 10
9.425048373014356
 20
-8.991408333333336
 10
9.658260867122912
 20
-8.951995833333335
 10
9.737970587331498
 20
-8.938508333333326
 10
9.82077777777777
 20
-8.909386111111113
 10
9.700138888888887
 20
-8.86591527777778
 10
9.508056704250722
 20
-8.796697222222216
 10
9.3405094862611
 20
-8.670572222222214
 10
9.198028934304904
 20
-8.52432361111111
 10
9.072396993034191
 20
-8.395355555555549
 10
8.968430555555566
 20
-8.247956944444443
 10
8.856196998495863
 20
-8.10773750000001
 10
8.807380333062408
 20
-8.046761111111108
 10
8.75679422322921
 20
-7.988287499999993
 10
8.702680555555565
 20
-7.932037500000003
 10
8.662219225618376
 20
-7.889983333333324
 10
8.556572006065027
 20
-7.787736111111118
 10
8.510422007230874
 20
-7.745087500000004
 10
8.539759506489746
 20
-7.750902777777784
 10
8.56912339463684
 20
-7.756501388888889
 10
8.59858728278141
 20
-7.761608333333343
 10
8.953728940476442
 20
-7.823052777777775
 10
9.304712264943191
 20
-7.925502777777789
 10
9.635901145465544
 20
-8.06735277777779
 10
9.976051136872632
 20
-8.213019444444448
 10
10.3199177948525
 20
-8.420509722222226
 10
10.70296917406469
 20
-8.404670833333334
 10
10.9255525017751
 20
-8.39546944444444
 10
11.14626499619943
 20
-8.33429027777778
 10
11.36561111111112
 20
-8.402774999999995
 10
11.4035705452549
 20
-8.414619444444446
 10
11.44324832203034
 20
-8.428459722222215
 10
11.47768055555555
 20
-8.44859583333333
 10
11.49494693183543
 20
-8.459011111111117
 10
11.53629276412428
 20
-8.493127777777772
 10
11.55452054144159
 20
-8.479426388888896
 10
11.57339276318706
 20
-8.465268055555548
 10
11.55861637467145
 20
-8.432163888888883
 10
11.54945248601406
 20
-8.41124444444444
 10
11.44216082205781
 20
-8.166098611111112
 10
11.15540388485745
 20
-8.022769444444444
 10
10.9162747242317
 20
-7.941037499999993
 10
10.68370528566245
 20
-7.861530555555545
 10
10.44442473615163
 20
-7.8025638888889
 10
10.23318055555557
 20
-7.672583333333326
 10
10.01484419144819
 20
-7.538216666666661
 10
9.82003169636957
 20
-7.368672222222231
 10
9.596917813117013
 20
-7.241688888888878
 10
9.377217818667102
 20
-7.116650000000011
 10
9.142928935696848
 20
-7.018043055555558
 10
8.900867830700715
 20
-6.945449999999987
 10
8.89627894192775
 20
-6.944072222222227
 10
8.891803942040799
 20
-6.942631944444454
 10
8.887241442156057
 20
-6.941241666666656
 10
9.028028938599466
 20
-6.928715277777782
 10
9.169398379472618
 20
-6.92855000000001
 10
9.310653931459758
 20
-6.930762500000001
 10
9.567365036085802
 20
-6.934781944444441
 10
9.820562251911724
 20
-7.001093055555556
 10
10.07813446762712
 20
-6.981311111111103
 10
10.2981511287357
 20
-6.964411111111101
 10
10.52992334510287
 20
-6.855994444444453
 10
10.67801778580613
 20
-6.69033194444445
 10
10.6821886190341
 20
-6.685666666666672
 10
10.68647334114808
 20
-6.680547222222231
 10
10.68733333333332
 20
-6.674341666666678
 10
10.69010111883421
 20
-6.654193055555551
 10
10.66035945291888
 20
-6.648895833333325
 10
10.64023611111111
 20
-6.651854166666655
 10
10.42844695877749
 20
-6.682886111111101
 10
10.21018724206897
 20
-6.667743055555547
 10
10.00436502504625
 20
-6.609205555555566
 10
9.794396974794937
 20
-6.549480555555546
 10
9.603503924061744
 20
-6.437563888888891
 10
9.393965040466254
 20
-6.376119444444434
 10
9.26852337696851
 20
-6.339309722222222
 10
9.146291666666658
 20
-6.302300000000009
 10
9.020824772114793
 20
-6.277220833333331
 10
9.049138888888894
 20
-6.267576388888882
 10
9.077376159575072
 20
-6.257755555555554
 10
9.10542615886647
 20
-6.247452777777779
 10
9.45230115010367
 20
-6.120001388888896
 10
9.817112251998878
 20
-6.033529166666666
 10
10.18327613163769
 20
-5.986393055555557
 10
10.54205806701854
 20
-5.940205555555559
 10
10.93213722383098
 20
-5.95325
 10
11.24942193803791
 20
-5.752168055555558
 10
11.43758582217338
 20
-5.632906944444446
 10
11.59813026256213
 20
-5.469556944444447
 10
11.82233025689836
 20
-5.419198611111116
 10
11.86113581147361
 20
-5.410476388888886
 10
11.90241914376404
 20
-5.402626388888885
 10
11.94229969831213
 20
-5.402841666666669
 10
11.96246080891392
 20
-5.403220833333332
 10
12.01532330757851
 20
-5.412094444444443
 10
12.02427191846356
 20
-5.391123611111109
 10
12.03353719600727
 20
-5.369433333333328
 10
12.00417330786018
 20
-5.348159722222223
 10
11.98579553054666
 20
-5.334595833333335
 10
11.88411636644863
 20
-5.259702777777774
 10
11.76694136940872
 20
-5.238441666666668
 10
11.64632748356679
 20
-5.217977777777782
 10
11.32368304727303
 20
-5.163256944444444
 10
11.00589416641216
 20
-5.289002777777783
 10
10.69165667435047
 20
-5.341030555555562
 10
10.36897473805766
 20
-5.394436111111114
 10
10.03479002427765
 20
-5.296005555555553
 10
9.710060865814334
 20
-5.298015277777773
 10
9.457267816644869
 20
-5.29956944444445
 10
9.205069444444435
 20
-5.331322222222221
 10
8.959140051450857
 20
-5.389493055555552
 10
8.954487273790619
 20
-5.390593055555554
 10
8.949887273906825
 20
-5.391579166666664
 10
8.945234496246586
 20
-5.392666666666665
 10
9.060894215546996
 20
-5.31141388888889
 10
9.1832525457893
 20
-5.24059027777778
 10
9.306684487115591
 20
-5.171865277777783
 10
9.615549757090776
 20
-4.999931944444445
 10
10.06156224582355
 20
-4.915204166666664
 10
10.24247057458676
 20
-4.578984722222217
 10
10.28108724027788
 20
-4.507238888888891
 10
10.31953862819541
 20
-4.436794444444445
 10
10.348042794142
 20
-4.360194444444447
 10
10.37623029342992
 20
-4.284427777777776
 10
10.39240945968787
 20
-4.198158333333329
 10
10.29443446216293
 20
-4.280888888888891
 10
9.944171971011302
 20
-4.576709722222227
 10
9.51872475953678
 20
-4.548547222222219
 10
9.101519214520723
 20
-4.649872222222219
 10
8.97415671773817
 20
-4.680815277777772
 10
8.849472222222225
 20
-4.709926388888889
 10
8.727986111111123
 20
-4.751095833333339
 10
8.747869223454675
 20
-4.728405555555557
 10
8.767980334057736
 20
-4.705893055555558
 10
8.787294222458716
 20
-4.682723611111113
 10
8.991815050625418
 20
-4.437325
 10
9.22218448925024
 20
-4.213970833333329
 10
9.471375000000004
 20
-4.014216666666672
 10
9.725520587646011
 20
-3.810505555555551
 10
10.03135252436449
 20
-3.655244444444444
 10
10.24348168567232
 20
-3.40291944444444
 10
10.46054166666666
 20
-3.144754166666669
 10
10.51199999999999
 20
-2.709498611111106
 10
10.82180111550719
 20
-2.532825000000003
 10
10.83945944839444
 20
-2.523091666666662
 10
10.88966666666667
 20
-2.504333333333332
 10
10.88692333608429
 20
-2.481706944444441
 10
10.88410528059992
 20
-2.458284722222225
 10
10.84804166666666
 20
-2.454530555555556
 10
10.825327504307
 20
-2.452002777777782
 10
10.35831944444443
 20
-2.399873611111111
 10
10.07431641216802
 20
-2.837013888888893
 10
9.748020587077614
 20
-3.083208333333333
 10
9.512987259681722
 20
-3.260538888888883
 10
9.229465044621874
 20
-3.356174999999995
 10
8.969453940079195
 20
-3.489087499999995
 10
8.698812280249513
 20
-3.627436111111112
 10
8.448585897681873
 20
-3.805690277777772
 10
8.229617847657916
 20
-4.016516666666663
 10
8.334355345012025
 20
-3.741602777777782
 10
8.53724422877551
 20
-3.517794444444449
 10
8.700695613535268
 20
-3.273179166666662
 10
8.816455332833154
 20
-3.099944444444443
 10
8.915960885874988
 20
-2.903474999999995
 10
8.937777777777784
 20
-2.693520833333335
 10
8.947371996192588
 20
-2.601208333333337
 10
8.939723385274696
 20
-2.506861111111107
 10
8.917956719157901
 20
-2.416647222222221
 10
8.90143588624192
 20
-2.348199999999995
 10
8.871528942552988
 20
-2.280245833333336
 10
8.833734499063313
 20
-2.38512222222222
 10
8.748399778996827
 20
-2.621913888888887
 10
8.572094227895125
 20
-2.824865277777778
 10
8.38194562158757
 20
-2.985144444444447
 10
8.154142849564575
 20
-3.177176388888888
 10
7.921484522108686
 20
-3.356251388888886
 10
7.709380360800221
 20
-3.567002777777778
 10
7.720895638287098
 20
-3.510450000000004
 10
7.740273415575352
 20
-3.420401388888889
 10
7.748515082033817
 20
-3.381393055555552
 10
7.814370635925721
 20
-3.069619444444445
 10
7.907770633566239
 20
-2.763636111111105
 10
8.028080352749182
 20
-2.468548611111108
 10
8.173013888888892
 20
-2.113090277777776
 10
8.388973399187812
 20
-1.780993055555554
 10
8.372490066270883
 20
-1.382305555555553
 10
8.36230256652824
 20
-1.135768055555559
 10
8.283085901862755
 20
-0.8357263888888913
 10
8.416402777777774
 20
-0.6075805555555512
 10
8.42681944444444
 20
-0.5903138888888861
 10
8.460934508481033
 20
-0.5489805555555576
 10
8.447258119937638
 20
-0.5307402777777825
 10
8.433101175850828
 20
-0.5118694444444397
 10
8.399983121131905
 20
-0.5266583333333301
 10
8.37906367721593
 20
-0.535809722222224
 10
8.104440073042396
 20
-0.6558791666666618
 10
7.969024798685496
 20
-0.9572111111111149
 10
7.879948412046865
 20
-1.224668055555551
 10
7.835088690957895
 20
-1.3593125
 10
7.815547024784892
 20
-1.511690277777777
 10
7.759688692862659
 20
-1.641481944444447
 10
7.671902777777783
 20
-1.845520833333328
 10
7.522051198865888
 20
-2.017543055555557
 10
7.396572035369091
 20
-2.198577777777776
 10
7.25076509460804
 20
-2.408925000000004
 10
7.097755376251168
 20
-2.645197222222224
 10
7.016276211642839
 20
-2.889634722222227
 10
6.98352482358132
 20
-2.971215277777774
 10
6.943353991262787
 20
-3.089034722222221
 10
6.913269269800568
 20
-3.184406944444441
 10
6.911828992059175
 20
-3.188956944444448
 10
6.910438714316519
 20
-3.193456944444443
 10
6.90907343657323
 20
-3.19801944444445
 97
        0
 97
        0
 92
        1
 93
        1
 72
     4
 94
        3
 73
     0
 74
     1
 95
       50
 96
       46
 40
0.0
 40
0.0
 40
0.0
 40
0.0
 40
1.0
 40
1.0
 40
1.0
 40
2.0
 40
2.0
 40
2.0
 40
3.0
 40
3.0
 40
3.0
 40
4.0
 40
4.0
 40
4.0
 40
5.0
 40
5.0
 40
5.0
 40
6.0
 40
6.0
 40
6.0
 40
7.0
 40
7.0
 40
7.0
 40
8.0
 40
8.0
 40
8.0
 40
9.0
 40
9.0
 40
9.0
 40
10.0
 40
10.0
 40
10.0
 40
11.0
 40
11.0
 40
11.0
 40
12.0
 40
12.0
 40
12.0
 40
13.0
 40
13.0
 40
13.0
 40
14.0
 40
14.0
 40
14.0
 40
15.0
 40
15.0
 40
15.0
 40
15.0
 10
5.992006793073616
 20
-7.047027777777783
 10
6.049230402739138
 20
-7.066341666666656
 10
6.099348457028605
 20
-7.039140277777783
 10
6.145713733635097
 20
-7.00755277777777
 10
6.198726232295889
 20
-6.971438888888896
 10
6.252726230931734
 20
-6.937916666666675
 10
6.307824840650937
 20
-6.905165277777769
 10
6.350852617341742
 20
-6.87959444444444
 10
6.383299838744279
 20
-6.845718055555557
 10
6.392262338517867
 20
-6.794651388888901
 10
6.397748449490386
 20
-6.763531944444442
 10
6.417669282320477
 20
-6.738856944444453
 10
6.453365114752058
 20
-6.750916666666676
 10
6.492145669327934
 20
-6.763998611111118
 10
6.481326225156812
 20
-6.804662499999999
 10
6.473842892012524
 20
-6.834708333333335
 10
6.462972222222232
 20
-6.878355555555546
 10
6.445604003837009
 20
-6.912447222222227
 10
6.411273449148716
 20
-6.942909722222212
 10
6.377751227773337
 20
-6.97267777777779
 10
6.337580395454804
 20
-6.993686111111123
 10
6.298862340877349
 20
-7.016248611111122
 10
6.216815120727814
 20
-7.064054166666665
 10
6.141137344861818
 20
-7.14110972222223
 10
6.038852625223525
 20
-7.142272222222219
 10
5.977281793445601
 20
-7.142993055555557
 10
5.923420683695136
 20
-7.119140277777786
 10
5.875047073806045
 20
-7.082116666666656
 10
5.819492908542795
 20
-7.039620833333325
 10
5.767376243192706
 20
-6.999499999999999
 10
5.704060967014407
 20
-6.968986111111108
 10
5.636220690950418
 20
-6.936298611111119
 10
5.591031803203097
 20
-6.883070833333325
 10
5.575192914714332
 20
-6.808227777777776
 10
5.568442914884852
 20
-6.7763611111111
 10
5.568935970427952
 20
-6.742409722222217
 10
5.608715136089712
 20
-6.733915277777769
 10
5.645954024037867
 20
-6.72595138888889
 10
5.658809579268664
 20
-6.753836111111114
 10
5.663574856926061
 20
-6.78525972222221
 10
5.678452634327995
 20
-6.8834375
 10
5.793592909197084
 20
-6.908641666666679
 10
5.863606796317273
 20
-6.957723611111103
 10
5.906065128578019
 20
-6.987491666666655
 10
5.941635961012758
 20
-7.030038888888889
 10
5.992006793073616
 20
-7.047027777777783
 97
        0
 97
        0
 92
        1
 93
        1
 72
     4
 94
        3
 73
     0
 74
     1
 95
       44
 96
       40
 40
0.0
 40
0.0
 40
0.0
 40
0.0
 40
1.0
 40
1.0
 40
1.0
 40
2.0
 40
2.0
 40
2.0
 40
3.0
 40
3.0
 40
3.0
 40
4.0
 40
4.0
 40
4.0
 40
5.0
 40
5.0
 40
5.0
 40
6.0
 40
6.0
 40
6.0
 40
7.0
 40
7.0
 40
7.0
 40
8.0
 40
8.0
 40
8.0
 40
9.0
 40
9.0
 40
9.0
 40
10.0
 40
10.0
 40
10.0
 40
11.0
 40
11.0
 40
11.0
 40
12.0
 40
12.0
 40
12.0
 40
13.0
 40
13.0
 40
13.0
 40
13.0
 10
3.631761019365108
 20
-4.929412499999999
 10
3.607340186648697
 20
-4.944112499999997
 10
3.583247131701783
 20
-4.945452777777783
 10
3.565512409927578
 20
-4.920311111111105
 10
3.547323521498179
 20
-4.894550000000006
 10
3.557877687898225
 20
-4.871190277777777
 10
3.580895742872296
 20
-4.85563055555556
 10
3.630306852735177
 20
-4.822247222222219
 10
3.680273518139579
 20
-4.789445833333338
 10
3.731706850173598
 20
-4.75929861111111
 10
3.992476288030452
 20
-4.606502777777778
 10
4.268819444444438
 20
-4.500425000000001
 10
4.574334606664807
 20
-4.485927777777773
 10
5.010930555555559
 20
-4.465209722222223
 10
5.358310975748787
 20
-4.630987499999997
 10
5.60895541386142
 20
-4.990173611111104
 10
5.831361111111113
 20
-5.308873611111115
 10
5.906444444444446
 20
-5.703490277777771
 10
5.907620684094278
 20
-6.087958333333341
 10
5.907784572979026
 20
-6.141463888888893
 10
5.906520684122066
 20
-6.194794444444445
 10
5.904017906407514
 20
-6.247680555555562
 10
5.896965128807905
 20
-6.396583333333334
 10
5.87843457372047
 20
-6.545334722222226
 10
5.844355407914716
 20
-6.690558333333329
 10
5.837491519199223
 20
-6.719833333333327
 10
5.822058186255768
 20
-6.742194444444445
 10
5.788902777777783
 20
-6.735684722222231
 10
5.755835965706461
 20
-6.729187500000004
 10
5.748037354792359
 20
-6.702630555555565
 10
5.754408187964751
 20
-6.67300138888888
 10
5.772659576392571
 20
-6.58818472222222
 10
5.786109576052795
 20
-6.502597222222221
 10
5.795577631369168
 20
-6.416479166666679
 10
5.860788740832908
 20
-5.82323194444445
 10
5.764633187706446
 20
-5.032000000000001
 10
5.180398480243235
 20
-4.711025
 10
4.654626271303136
 20
-4.422156944444446
 10
4.103217951899548
 20
-4.645662499999995
 10
3.631761019365108
 20
-4.929412499999999
 97
        0
 97
        0
 92
        1
 93
        1
 72
     4
 94
        3
 73
     0
 74
     1
 95
       38
 96
       34
 40
0.0
 40
0.0
 40
0.0
 40
0.0
 40
1.0
 40
1.0
 40
1.0
 40
2.0
 40
2.0
 40
2.0
 40
3.0
 40
3.0
 40
3.0
 40
4.0
 40
4.0
 40
4.0
 40
5.0
 40
5.0
 40
5.0
 40
6.0
 40
6.0
 40
6.0
 40
7.0
 40
7.0
 40
7.0
 40
8.0
 40
8.0
 40
8.0
 40
9.0
 40
9.0
 40
9.0
 40
10.0
 40
10.0
 40
10.0
 40
11.0
 40
11.0
 40
11.0
 40
11.0
 10
4.737597222222221
 20
-6.058720833333331
 10
4.727244325024205
 20
-6.058720833333331
 10
4.717005436393972
 20
-6.058266666666668
 10
4.706892936649435
 20
-6.05740694444445
 10
4.415522110676749
 20
-6.032366666666664
 10
4.267694444444449
 20
-5.70710555555556
 10
4.239467948457584
 20
-5.453175
 10
4.236042948544107
 20
-5.422472222222217
 10
4.239366559571256
 20
-5.391477777777772
 10
4.277806836377951
 20
-5.387698611111116
 10
4.316233224296107
 20
-5.383893055555555
 10
4.325233224068748
 20
-5.413826388888891
 10
4.328405446210834
 20
-5.444427777777782
 10
4.343080445840112
 20
-5.585380555555553
 10
4.388586000246101
 20
-5.714286111111114
 10
4.477130442453724
 20
-5.826341666666672
 10
4.559406829264137
 20
-5.930434722222217
 10
4.689930555555557
 20
-5.997769444444442
 10
4.823361111111113
 20
-5.960859722222216
 10
5.014369317770817
 20
-5.908023611111111
 10
5.102105426665528
 20
-5.69330277777778
 10
5.125969314951564
 20
-5.514834722222227
 10
5.130406814839463
 20
-5.48164166666667
 10
5.138230425752933
 20
-5.450002777777778
 10
5.180120702472474
 20
-5.456676388888885
 10
5.217081812649869
 20
-5.462579166666665
 10
5.219267923705754
 20
-5.492954166666664
 10
5.215198479364113
 20
-5.524251388888893
 10
5.195516535416876
 20
-5.675429166666668
 10
5.143881814499056
 20
-5.823725000000005
 10
5.034454039485657
 20
-5.933683333333331
 10
4.956666666666668
 20
-6.011863888888885
 10
4.848174877524798
 20
-6.058809722222223
 10
4.737597222222221
 20
-6.058720833333331
 97
        0
 97
        0
 92
        1
 93
        1
 72
     4
 94
        3
 73
     0
 74
     1
 95
       41
 96
       37
 40
0.0
 40
0.0
 40
0.0
 40
0.0
 40
1.0
 40
1.0
 40
1.0
 40
2.0
 40
2.0
 40
2.0
 40
3.0
 40
3.0
 40
3.0
 40
4.0
 40
4.0
 40
4.0
 40
5.0
 40
5.0
 40
5.0
 40
6.0
 40
6.0
 40
6.0
 40
7.0
 40
7.0
 40
7.0
 40
8.0
 40
8.0
 40
8.0
 40
9.0
 40
9.0
 40
9.0
 40
10.0
 40
10.0
 40
10.0
 40
11.0
 40
11.0
 40
11.0
 40
12.0
 40
12.0
 40
12.0
 40
12.0
 10
6.680713720119861
 20
-7.867648611111108
 10
6.551201223391621
 20
-7.879543055555561
 10
6.445237337179606
 20
-7.948293055555546
 10
6.337238728796769
 20
-8.010799999999993
 10
6.231995675899876
 20
-8.07169999999999
 10
6.123934567518618
 20
-8.099976388888889
 10
6.015277777777783
 20
-8.100583333333336
 10
5.899176239863158
 20
-8.101227777777769
 10
5.782417909479388
 20
-8.070297222222228
 10
5.667695690155293
 20
-8.013833333333322
 10
5.568115137115354
 20
-7.964813888888885
 10
5.477358194963623
 20
-7.895759722222212
 10
5.36226792009327
 20
-7.882033333333336
 10
5.338529031804076
 20
-7.879201388888886
 10
5.325142921031127
 20
-7.861555555555545
 10
5.327190143201632
 20
-7.836743055555543
 10
5.329288754259728
 20
-7.811549999999998
 10
5.346783198262225
 20
-7.799605555555545
 10
5.369890142122939
 20
-7.797405555555567
 10
5.401048474669147
 20
-7.794461111111104
 10
5.430588751700674
 20
-7.803675000000011
 10
5.46015402873157
 20
-7.812625
 10
5.56626930382865
 20
-7.844769444444434
 10
5.656002634895129
 20
-7.910575000000007
 10
5.755949854592473
 20
-7.955523611111125
 10
5.931852627926572
 20
-8.034601388888884
 10
6.103405401370562
 20
-8.042337500000006
 10
6.275199841475114
 20
-7.94161944444444
 10
6.398519282804247
 20
-7.869329166666678
 10
6.521130390817941
 20
-7.799541666666679
 10
6.666165109376278
 20
-7.778938888888888
 10
6.696362330835655
 20
-7.774654166666677
 10
6.721781774637949
 20
-7.785436111111115
 10
6.725687330094843
 20
-7.81849027777778
 10
6.729215107783501
 20
-7.848498611111103
 10
6.709319444444443
 20
-7.865019444444442
 10
6.680713720119861
 20
-7.867648611111108
 97
        0
 97
        0
 92
        1
 93
        1
 72
     4
 94
        3
 73
     0
 74
     1
 95
       65
 96
       61
 40
0.0
 40
0.0
 40
0.0
 40
0.0
 40
1.0
 40
1.0
 40
1.0
 40
2.0
 40
2.0
 40
2.0
 40
3.0
 40
3.0
 40
3.0
 40
4.0
 40
4.0
 40
4.0
 40
5.0
 40
5.0
 40
5.0
 40
6.0
 40
6.0
 40
6.0
 40
7.0
 40
7.0
 40
7.0
 40
8.0
 40
8.0
 40
8.0
 40
9.0
 40
9.0
 40
9.0
 40
10.0
 40
10.0
 40
10.0
 40
11.0
 40
11.0
 40
11.0
 40
12.0
 40
12.0
 40
12.0
 40
13.0
 40
13.0
 40
13.0
 40
14.0
 40
14.0
 40
14.0
 40
15.0
 40
15.0
 40
15.0
 40
16.0
 40
16.0
 40
16.0
 40
17.0
 40
17.0
 40
17.0
 40
18.0
 40
18.0
 40
18.0
 40
19.0
 40
19.0
 40
19.0
 40
20.0
 40
20.0
 40
20.0
 40
20.0
 10
7.079287321162155
 20
-7.733913888888891
 10
7.076519265676526
 20
-7.752672222222221
 10
7.065522043732117
 20
-7.767272222222219
 10
7.046701210874239
 20
-7.769597222222223
 10
6.993117878894534
 20
-7.776258333333342
 10
6.933253991517934
 20
-7.760824999999992
 10
6.882060937255623
 20
-7.746338888888886
 10
6.825141494249086
 20
-7.73022222222221
 10
6.770017884530514
 20
-7.708355555555549
 10
6.715676219236633
 20
-7.685122222222212
 10
6.512445668815113
 20
-7.598220833333344
 10
6.2915942855054
 20
-7.42872638888889
 10
6.066509568969296
 20
-7.548884722222232
 10
6.054260958167611
 20
-7.555433333333339
 10
6.04054568073631
 20
-7.56265
 10
6.026312347762541
 20
-7.562208333333324
 10
6.012155403675731
 20
-7.561752777777782
 10
5.99884568178974
 20
-7.555433333333339
 10
5.986572070988687
 20
-7.548884722222232
 10
5.761486111111114
 20
-7.42872638888889
 10
5.540634582254016
 20
-7.598220833333344
 10
5.337404031832496
 20
-7.685122222222212
 10
5.283063755427469
 20
-7.708355555555549
 10
5.227951256819728
 20
-7.73022222222221
 10
5.171019313813505
 20
-7.746338888888886
 10
5.11983875955088
 20
-7.760824999999992
 10
5.059962372174596
 20
-7.776258333333342
 10
5.006380429083745
 20
-7.769597222222223
 10
4.987558207337011
 20
-7.767272222222219
 10
4.976560985392603
 20
-7.752672222222221
 10
4.97380555555555
 20
-7.733913888888891
 10
4.971329041080328
 20
-7.717088888888888
 10
4.978773485336711
 20
-7.702198611111119
 10
4.992830429426046
 20
-7.694741666666661
 10
5.007733206827348
 20
-7.686829166666661
 10
5.024847222222219
 20
-7.681784722222219
 10
5.041595705971909
 20
-7.678852777777769
 10
5.183066535731389
 20
-7.654077777777779
 10
5.31516931017197
 20
-7.603390277777786
 10
5.442104029187552
 20
-7.537344444444443
 10
5.553881804141585
 20
-7.479161111111099
 10
5.679830412070967
 20
-7.422622222222217
 10
5.805373464455038
 20
-7.416137500000003
 10
5.880266518118636
 20
-7.412281944444455
 10
5.955009571786023
 20
-7.426438888888899
 10
6.026552625534249
 20
-7.468505555555566
 10
6.09807206817196
 20
-7.426438888888899
 10
6.17280123295081
 20
-7.412281944444455
 10
6.247708333333321
 20
-7.416137500000003
 10
6.373251227887017
 20
-7.422622222222217
 10
6.499198446927544
 20
-7.479161111111099
 10
6.610977610770432
 20
-7.537344444444443
 10
6.737910940897159
 20
-7.603390277777786
 10
6.870015104226594
 20
-7.654077777777779
 10
7.011497045096903
 20
-7.678852777777769
 10
7.028233155785225
 20
-7.681784722222219
 10
7.045361111111106
 20
-7.686829166666661
 10
7.060263888888888
 20
-7.694741666666661
 10
7.074319444444452
 20
-7.702198611111119
 10
7.081765098877339
 20
-7.717088888888888
 10
7.079287321162155
 20
-7.733913888888891
 97
        0
 97
        0
 92
        1
 93
        1
 72
     4
 94
        3
 73
     0
 74
     1
 95
       38
 96
       34
 40
0.0
 40
0.0
 40
0.0
 40
0.0
 40
1.0
 40
1.0
 40
1.0
 40
2.0
 40
2.0
 40
2.0
 40
3.0
 40
3.0
 40
3.0
 40
4.0
 40
4.0
 40
4.0
 40
5.0
 40
5.0
 40
5.0
 40
6.0
 40
6.0
 40
6.0
 40
7.0
 40
7.0
 40
7.0
 40
8.0
 40
8.0
 40
8.0
 40
9.0
 40
9.0
 40
9.0
 40
10.0
 40
10.0
 40
10.0
 40
11.0
 40
11.0
 40
11.0
 40
11.0
 10
7.813625000000002
 20
-5.453175
 10
7.785387303324569
 20
-5.70710555555556
 10
7.637558140392381
 20
-6.032366666666664
 10
7.346187314419694
 20
-6.05740694444445
 10
7.336087314674842
 20
-6.058266666666668
 10
7.325848426044608
 20
-6.058720833333331
 10
7.315484537417533
 20
-6.058720833333331
 10
7.204906762433185
 20
-6.058809722222223
 10
7.096402777777787
 20
-6.011863888888885
 10
7.018613711583789
 20
-5.933683333333331
 10
6.909199825458927
 20
-5.823725000000005
 10
6.857576215651938
 20
-5.675429166666668
 10
6.83788316059387
 20
-5.524251388888893
 10
6.833799827363691
 20
-5.492954166666664
 10
6.835999999999987
 20
-5.462579166666665
 10
6.872972222222213
 20
-5.456676388888885
 10
6.914849825316196
 20
-5.450002777777778
 10
6.92267482511852
 20
-5.48164166666667
 10
6.927111111111117
 20
-5.514834722222227
 10
6.950963713292771
 20
-5.69330277777778
 10
7.03872482218685
 20
-5.908023611111111
 10
7.229706761806685
 20
-5.960859722222216
 10
7.363151202880039
 20
-5.997769444444442
 10
7.493674810693847
 20
-5.930434722222217
 10
7.575949808615405
 20
-5.826341666666672
 10
7.664508139711566
 20
-5.714286111111114
 10
7.710012305228702
 20
-5.585380555555553
 10
7.724662304858612
 20
-5.444427777777782
 10
7.727848415889234
 20
-5.413826388888891
 10
7.736848415661875
 20
-5.383893055555555
 10
7.775262303580348
 20
-5.387698611111116
 10
7.813713691497873
 20
-5.391477777777772
 10
7.817038691413877
 20
-5.422472222222217
 10
7.813625000000002
 20
-5.453175
 97
        0
 97
        0
 92
        1
 93
        1
 72
     4
 94
        3
 73
     0
 74
     1
 95
       44
 96
       40
 40
0.0
 40
0.0
 40
0.0
 40
0.0
 40
1.0
 40
1.0
 40
1.0
 40
2.0
 40
2.0
 40
2.0
 40
3.0
 40
3.0
 40
3.0
 40
4.0
 40
4.0
 40
4.0
 40
5.0
 40
5.0
 40
5.0
 40
6.0
 40
6.0
 40
6.0
 40
7.0
 40
7.0
 40
7.0
 40
8.0
 40
8.0
 40
8.0
 40
9.0
 40
9.0
 40
9.0
 40
10.0
 40
10.0
 40
10.0
 40
11.0
 40
11.0
 40
11.0
 40
12.0
 40
12.0
 40
12.0
 40
13.0
 40
13.0
 40
13.0
 40
13.0
 10
7.478733144404638
 20
-4.485927777777773
 10
7.784262303352989
 20
-4.500425000000001
 10
8.060616463038361
 20
-4.606502777777778
 10
8.321373400895531
 20
-4.75929861111111
 10
8.37280673292955
 20
-4.789445833333338
 10
8.422773398333952
 20
-4.822247222222219
 10
8.472184508196834
 20
-4.85563055555556
 10
8.495202563170904
 20
-4.871190277777777
 10
8.505744229571267
 20
-4.894550000000006
 10
8.487567841141551
 20
-4.920311111111105
 10
8.469833333333327
 20
-4.945452777777783
 10
8.445741453309285
 20
-4.944112499999997
 10
8.42130812059319
 20
-4.929412499999999
 10
7.949862299169581
 20
-4.645662499999995
 10
7.398455368654847
 20
-4.422156944444446
 10
6.872681770825895
 20
-4.711025
 10
6.288447063362683
 20
-5.032000000000001
 10
6.192292899125075
 20
-5.82323194444445
 10
6.257504008588815
 20
-6.416479166666679
 10
6.266984563904871
 20
-6.502597222222221
 10
6.280420674676558
 20
-6.58818472222222
 10
6.298673451993231
 20
-6.67300138888888
 10
6.305044285165624
 20
-6.702630555555565
 10
6.297245674251522
 20
-6.729187500000004
 10
6.264190119531021
 20
-6.735684722222231
 10
6.23102206481336
 20
-6.742194444444445
 10
6.215601231869591
 20
-6.719833333333327
 10
6.208737343154098
 20
-6.690558333333329
 10
6.174659566237197
 20
-6.545334722222226
 10
6.156116511150079
 20
-6.396583333333334
 10
6.1490748446613
 20
-6.247680555555562
 10
6.146572066946747
 20
-6.194794444444445
 10
6.145295678090102
 20
-6.141463888888893
 10
6.145460955863705
 20
-6.087958333333341
 10
6.146635955834022
 20
-5.703490277777771
 10
6.221706787270906
 20
-5.308873611111115
 10
6.44412500000001
 20
-4.990173611111104
 10
6.694769275320342
 20
-4.630987499999997
 10
7.042149822100328
 20
-4.465209722222223
 10
7.478733144404638
 20
-4.485927777777773
 97
        0
 97
        0
 75
     2
 76
     1
 98
        0
  0
ENDSEC
  0
SECTION
  2
OBJECTS
  0
DICTIONARY
  5
C
330
0
100
AcDbDictionary
281
     1
  3
ACAD_GROUP
350
D
  3
ACAD_LAYOUT
350
1A
  3
ACAD_MATERIAL
350
3B
  3
ACAD_MLEADERSTYLE
350
4B
  3
ACAD_MLINESTYLE
350
17
  3
ACAD_PLOTSETTINGS
350
19
  3
ACAD_PLOTSTYLENAME
350
E
  3
ACAD_TABLESTYLE
350
4A
  3
ACAD_VISUALSTYLE
350
2A
  0
SUN
  5
3F
330
29
100
AcDbSun
 90
        1
290
     0
 63
     7
421
 16777215
 40
1.0
291
     1
 91
  2455826
 92
 54000000
292
     0
 70
     2
 71
   256
280
     1
  0
DICTIONARY
  5
D
102
{ACAD_REACTORS
330
C
102
}
330
C
100
AcDbDictionary
281
     1
  0
DICTIONARY
  5
1A
102
{ACAD_REACTORS
330
C
102
}
330
C
100
AcDbDictionary
281
     1
  3
Layout1
350
1E
  3
Layout2
350
26
  3
Model
350
22
  0
DICTIONARY
  5
3B
102
{ACAD_REACTORS
330
C
102
}
330
C
100
AcDbDictionary
281
     1
  3
ByBlock
350
3D
  3
ByLayer
350
3C
  3
Global
350
3E
  0
DICTIONARY
  5
4B
102
{ACAD_REACTORS
330
C
102
}
330
C
100
AcDbDictionary
281
     1
  0
DICTIONARY
  5
17
102
{ACAD_REACTORS
330
C
102
}
330
C
100
AcDbDictionary
281
     1
  3
Standard
350
18
  0
DICTIONARY
  5
19
102
{ACAD_REACTORS
330
C
102
}
330
C
100
AcDbDictionary
281
     1
  0
ACDBDICTIONARYWDFLT
  5
E
102
{ACAD_REACTORS
330
C
102
}
330
C
100
AcDbDictionary
281
     1
  3
Normal
350
F
100
AcDbDictionaryWithDefault
340
F
  0
DICTIONARY
  5
4A
102
{ACAD_REACTORS
330
C
102
}
330
C
100
AcDbDictionary
281
     1
  0
DICTIONARY
  5
2A
102
{ACAD_REACTORS
330
C
102
}
330
C
100
AcDbDictionary
281
     1
  3
2dWireframe
350
2F
  3
3D Hidden
350
31
  3
3dWireframe
350
30
  3
Basic
350
32
  3
Brighten
350
36
  3
ColorChange
350
3A
  3
Conceptual
350
34
  3
Dim
350
35
  3
Facepattern
350
39
  3
Flat
350
2B
  3
FlatWithEdges
350
2C
  3
Gouraud
350
2D
  3
GouraudWithEdges
350
2E
  3
Linepattern
350
38
  3
Realistic
350
33
  3
Thicken
350
37
  0
LAYOUT
  5
1E
102
{ACAD_REACTORS
330
1A
102
}
330
1A
100
AcDbPlotSettings
  1

  2
none_device
  4

  6

 40
0.0
 41
0.0
 42
0.0
 43
0.0
 44
0.0
 45
0.0
 46
0.0
 47
0.0
 48
0.0
 49
0.0
140
0.0
141
0.0
142
1.0
143
1.0
 70
   688
 72
     0
 73
     0
 74
     5
  7

 75
    16
 76
     0
 77
     2
 78
   300
147
1.0
148
0.0
149
0.0
100
AcDbLayout
  1
Layout1
 70
     1
 71
     1
 10
0.0
 20
0.0
 11
12.0
 21
9.0
 12
0.0
 22
0.0
 32
0.0
 14
1.000000000000000E+20
 24
1.000000000000000E+20
 34
1.000000000000000E+20
 15
-1.000000000000000E+20
 25
-1.000000000000000E+20
 35
-1.000000000000000E+20
146
0.0
 13
0.0
 23
0.0
 33
0.0
 16
1.0
 26
0.0
 36
0.0
 17
0.0
 27
1.0
 37
0.0
 76
     0
330
1B
  0
LAYOUT
  5
26
102
{ACAD_REACTORS
330
1A
102
}
330
1A
100
AcDbPlotSettings
  1

  2
none_device
  4

  6

 40
0.0
 41
0.0
 42
0.0
 43
0.0
 44
0.0
 45
0.0
 46
0.0
 47
0.0
 48
0.0
 49
0.0
140
0.0
141
0.0
142
1.0
143
1.0
 70
   688
 72
     0
 73
     0
 74
     5
  7

 75
    16
 76
     0
 77
     2
 78
   300
147
1.0
148
0.0
149
0.0
100
AcDbLayout
  1
Layout2
 70
     1
 71
     2
 10
0.0
 20
0.0
 11
0.0
 21
0.0
 12
0.0
 22
0.0
 32
0.0
 14
0.0
 24
0.0
 34
0.0
 15
0.0
 25
0.0
 35
0.0
146
0.0
 13
0.0
 23
0.0
 33
0.0
 16
1.0
 26
0.0
 36
0.0
 17
0.0
 27
1.0
 37
0.0
 76
     0
330
23
  0
LAYOUT
  5
22
102
{ACAD_REACTORS
330
1A
102
}
330
1A
100
AcDbPlotSettings
  1

  2
none_device
  4

  6

 40
0.0
 41
0.0
 42
0.0
 43
0.0
 44
0.0
 45
0.0
 46
0.0
 47
0.0
 48
0.0
 49
0.0
140
0.0
141
0.0
142
1.0
143
1.0
 70
  1712
 72
     0
 73
     0
 74
     0
  7

 75
     0
 76
     0
 77
     2
 78
   300
147
1.0
148
0.0
149
0.0
100
AcDbLayout
  1
Model
 70
     1
 71
     0
 10
0.0
 20
0.0
 11
12.0
 21
9.0
 12
0.0
 22
0.0
 32
0.0
 14
1.000000000000000E+20
 24
1.000000000000000E+20
 34
1.000000000000000E+20
 15
-1.000000000000000E+20
 25
-1.000000000000000E+20
 35
-1.000000000000000E+20
146
0.0
 13
0.0
 23
0.0
 33
0.0
 16
1.0
 26
0.0
 36
0.0
 17
0.0
 27
1.0
 37
0.0
 76
     0
330
1F
331
29
  0
MATERIAL
  5
3D
102
{ACAD_REACTORS
330
3B
102
}
330
3B
100
AcDbMaterial
  1
ByBlock
 72
     1
 94
      127
  0
MATERIAL
  5
3C
102
{ACAD_REACTORS
330
3B
102
}
330
3B
100
AcDbMaterial
  1
ByLayer
 72
     1
 94
      127
  0
MATERIAL
  5
3E
102
{ACAD_REACTORS
330
3B
102
}
330
3B
100
AcDbMaterial
  1
Global
 72
     1
 94
      127
  0
MLINESTYLE
  5
18
102
{ACAD_REACTORS
330
17
102
}
330
17
100
AcDbMlineStyle
  2
Standard
 70
     0
  3

 62
   256
 51
90.0
 52
90.0
 71
     2
 49
0.5
 62
   256
  6
BYLAYER
 49
-0.5
 62
   256
  6
BYLAYER
  0
ACDBPLACEHOLDER
  5
F
102
{ACAD_REACTORS
330
E
102
}
330
E
  0
VISUALSTYLE
  5
2F
102
{ACAD_REACTORS
330
2A
102
}
330
2A
100
AcDbVisualStyle
  2
2dWireframe
 70
     4
177
     2
291
     0
 71
     0
176
     1
 72
     2
176
     1
 73
     0
176
     1
 90
        0
176
     1
 40
-0.6
176
     1
 41
-30.0
176
     1
 62
     5
 63
     7
421
 16777215
176
     1
 74
     1
176
     1
 91
        4
176
     1
 64
     7
176
     1
 65
   257
176
     1
 75
     1
176
     1
175
     1
176
     1
 42
1.0
176
     1
 92
        0
176
     1
 66
   257
176
     1
 43
1.0
176
     1
 76
     1
176
     1
 77
     6
176
     1
 78
     2
176
     1
 67
     7
176
     1
 79
     5
176
     1
170
     0
176
     1
171
     0
176
     1
290
     0
176
     1
 93
        1
176
     1
 44
0.0
176
     1
173
     0
176
     1
  0
VISUALSTYLE
  5
31
102
{ACAD_REACTORS
330
2A
102
}
330
2A
100
AcDbVisualStyle
  2
3D Hidden
 70
     6
177
     2
291
     0
 71
     1
176
     1
 72
     2
176
     1
 73
     2
176
     1
 90
        0
176
     1
 40
-0.6
176
     1
 41
-30.0
176
     1
 62
     5
 63
     7
421
 16777215
176
     1
 74
     2
176
     1
 91
        2
176
     1
 64
     7
176
     1
 65
   257
176
     1
 75
     2
176
     1
175
     1
176
     1
 42
40.0
176
     1
 92
        0
176
     1
 66
   257
176
     1
 43
1.0
176
     1
 76
     1
176
     1
 77
     6
176
     1
 78
     2
176
     1
 67
     7
176
     1
 79
     3
176
     1
170
     0
176
     1
171
     0
176
     1
290
     0
176
     1
 93
        1
176
     1
 44
0.0
176
     1
173
     0
176
     1
  0
VISUALSTYLE
  5
30
102
{ACAD_REACTORS
330
2A
102
}
330
2A
100
AcDbVisualStyle
  2
3dWireframe
 70
     5
177
     2
291
     0
 71
     0
176
     1
 72
     2
176
     1
 73
     0
176
     1
 90
        0
176
     1
 40
-0.6
176
     1
 41
-30.0
176
     1
 62
     5
 63
     7
421
 16777215
176
     1
 74
     1
176
     1
 91
        4
176
     1
 64
     7
176
     1
 65
   257
176
     1
 75
     1
176
     1
175
     1
176
     1
 42
1.0
176
     1
 92
        0
176
     1
 66
   257
176
     1
 43
1.0
176
     1
 76
     1
176
     1
 77
     6
176
     1
 78
     2
176
     1
 67
     7
176
     1
 79
     5
176
     1
170
     0
176
     1
171
     0
176
     1
290
     0
176
     1
 93
        1
176
     1
 44
0.0
176
     1
173
     0
176
     1
  0
VISUALSTYLE
  5
32
102
{ACAD_REACTORS
330
2A
102
}
330
2A
100
AcDbVisualStyle
  2
Basic
 70
     7
177
     2
291
     1
 71
     1
176
     1
 72
     0
176
     1
 73
     1
176
     1
 90
        0
176
     1
 40
-0.6
176
     1
 41
-30.0
176
     1
 62
     5
 63
     7
421
 16777215
176
     1
 74
     0
176
     1
 91
        4
176
     1
 64
     7
176
     1
 65
   257
176
     1
 75
     1
176
     1
175
     1
176
     1
 42
1.0
176
     1
 92
        8
176
     1
 66
     7
176
     1
 43
1.0
176
     1
 76
     1
176
     1
 77
     6
176
     1
 78
     2
176
     1
 67
     7
176
     1
 79
     5
176
     1
170
     0
176
     1
171
     0
176
     1
290
     0
176
     1
 93
        1
176
     1
 44
0.0
176
     1
173
     0
176
     1
  0
VISUALSTYLE
  5
36
102
{ACAD_REACTORS
330
2A
102
}
330
2A
100
AcDbVisualStyle
  2
Brighten
 70
    12
177
     2
291
     1
 71
     2
176
     1
 72
     2
176
     1
 73
     0
176
     1
 90
        0
176
     1
 40
-0.6
176
     1
 41
-30.0
176
     1
 62
     5
 63
     7
421
 16777215
176
     1
 74
     1
176
     1
 91
        4
176
     1
 64
     7
176
     1
 65
   257
176
     1
 75
     1
176
     1
175
     1
176
     1
 42
1.0
176
     1
 92
        8
176
     1
 66
     7
176
     1
 43
1.0
176
     1
 76
     1
176
     1
 77
     6
176
     1
 78
     2
176
     1
 67
     7
176
     1
 79
     5
176
     1
170
     0
176
     1
171
     0
176
     1
290
     0
176
     1
 93
        1
176
     1
 44
50.0
176
     1
173
     0
176
     1
  0
VISUALSTYLE
  5
3A
102
{ACAD_REACTORS
330
2A
102
}
330
2A
100
AcDbVisualStyle
  2
ColorChange
 70
    16
177
     2
291
     1
 71
     2
176
     1
 72
     2
176
     1
 73
     3
176
     1
 90
        0
176
     1
 40
-0.6
176
     1
 41
-30.0
176
     1
 62
     5
 63
     8
421
  8421504
176
     1
 74
     1
176
     1
 91
        4
176
     1
 64
     7
176
     1
 65
   257
176
     1
 75
     1
176
     1
175
     1
176
     1
 42
1.0
176
     1
 92
        8
176
     1
 66
     8
424
  8421504
176
     1
 43
1.0
176
     1
 76
     1
176
     1
 77
     6
176
     1
 78
     2
176
     1
 67
     7
176
     1
 79
     5
176
     1
170
     0
176
     1
171
     0
176
     1
290
     0
176
     1
 93
        1
176
     1
 44
0.0
176
     1
173
     0
176
     1
  0
VISUALSTYLE
  5
34
102
{ACAD_REACTORS
330
2A
102
}
330
2A
100
AcDbVisualStyle
  2
Conceptual
 70
     9
177
     2
291
     0
 71
     3
176
     1
 72
     2
176
     1
 73
     0
176
     1
 90
        0
176
     1
 40
-0.6
176
     1
 41
-30.0
176
     1
 62
     5
 63
     7
421
 16777215
176
     1
 74
     2
176
     1
 91
        2
176
     1
 64
     7
176
     1
 65
   257
176
     1
 75
     1
176
     1
175
     1
176
     1
 42
40.0
176
     1
 92
        8
176
     1
 66
     7
176
     1
 43
1.0
176
     1
 76
     1
176
     1
 77
     6
176
     1
 78
     2
176
     1
 67
     7
176
     1
 79
     3
176
     1
170
     0
176
     1
171
     0
176
     1
290
     0
176
     1
 93
        1
176
     1
 44
0.0
176
     1
173
     0
176
     1
  0
VISUALSTYLE
  5
35
102
{ACAD_REACTORS
330
2A
102
}
330
2A
100
AcDbVisualStyle
  2
Dim
 70
    11
177
     2
291
     1
 71
     2
176
     1
 72
     2
176
     1
 73
     0
176
     1
 90
        0
176
     1
 40
-0.6
176
     1
 41
-30.0
176
     1
 62
     5
 63
     7
421
 16777215
176
     1
 74
     1
176
     1
 91
        4
176
     1
 64
     7
176
     1
 65
   257
176
     1
 75
     1
176
     1
175
     1
176
     1
 42
1.0
176
     1
 92
        8
176
     1
 66
     7
176
     1
 43
1.0
176
     1
 76
     1
176
     1
 77
     6
176
     1
 78
     2
176
     1
 67
     7
176
     1
 79
     5
176
     1
170
     0
176
     1
171
     0
176
     1
290
     0
176
     1
 93
        1
176
     1
 44
-50.0
176
     1
173
     0
176
     1
  0
VISUALSTYLE
  5
39
102
{ACAD_REACTORS
330
2A
102
}
330
2A
100
AcDbVisualStyle
  2
Facepattern
 70
    15
177
     2
291
     1
 71
     2
176
     1
 72
     2
176
     1
 73
     0
176
     1
 90
        0
176
     1
 40
-0.6
176
     1
 41
-30.0
176
     1
 62
     5
 63
     7
421
 16777215
176
     1
 74
     1
176
     1
 91
        4
176
     1
 64
     7
176
     1
 65
   257
176
     1
 75
     1
176
     1
175
     1
176
     1
 42
1.0
176
     1
 92
        8
176
     1
 66
     7
176
     1
 43
1.0
176
     1
 76
     1
176
     1
 77
     6
176
     1
 78
     2
176
     1
 67
     7
176
     1
 79
     5
176
     1
170
     0
176
     1
171
     0
176
     1
290
     0
176
     1
 93
        1
176
     1
 44
0.0
176
     1
173
     0
176
     1
  0
VISUALSTYLE
  5
2B
102
{ACAD_REACTORS
330
2A
102
}
330
2A
100
AcDbVisualStyle
  2
Flat
 70
     0
177
     2
291
     1
 71
     2
176
     1
 72
     1
176
     1
 73
     1
176
     1
 90
        2
176
     1
 40
-0.6
176
     1
 41
30.0
176
     1
 62
     5
 63
     7
421
 16777215
176
     1
 74
     0
176
     1
 91
        4
176
     1
 64
     7
176
     1
 65
   257
176
     1
 75
     1
176
     1
175
     1
176
     1
 42
1.0
176
     1
 92
        8
176
     1
 66
     7
176
     1
 43
1.0
176
     1
 76
     1
176
     1
 77
     6
176
     1
 78
     2
176
     1
 67
     7
176
     1
 79
     5
176
     1
170
     0
176
     1
171
     0
176
     1
290
     0
176
     1
 93
       13
176
     1
 44
0.0
176
     1
173
     0
176
     1
  0
VISUALSTYLE
  5
2C
102
{ACAD_REACTORS
330
2A
102
}
330
2A
100
AcDbVisualStyle
  2
FlatWithEdges
 70
     1
177
     2
291
     1
 71
     2
176
     1
 72
     1
176
     1
 73
     1
176
     1
 90
        2
176
     1
 40
-0.6
176
     1
 41
30.0
176
     1
 62
     5
 63
     7
421
 16777215
176
     1
 74
     1
176
     1
 91
        4
176
     1
 64
     7
176
     1
 65
   257
176
     1
 75
     1
176
     1
175
     1
176
     1
 42
1.0
176
     1
 92
        0
176
     1
 66
   257
176
     1
 43
1.0
176
     1
 76
     1
176
     1
 77
     6
176
     1
 78
     2
176
     1
 67
     7
176
     1
 79
     5
176
     1
170
     0
176
     1
171
     0
176
     1
290
     0
176
     1
 93
       13
176
     1
 44
0.0
176
     1
173
     0
176
     1
  0
VISUALSTYLE
  5
2D
102
{ACAD_REACTORS
330
2A
102
}
330
2A
100
AcDbVisualStyle
  2
Gouraud
 70
     2
177
     2
291
     1
 71
     2
176
     1
 72
     2
176
     1
 73
     1
176
     1
 90
        2
176
     1
 40
-0.6
176
     1
 41
30.0
176
     1
 62
     5
 63
     7
421
 16777215
176
     1
 74
     0
176
     1
 91
        4
176
     1
 64
     7
176
     1
 65
   257
176
     1
 75
     1
176
     1
175
     1
176
     1
 42
1.0
176
     1
 92
        0
176
     1
 66
     7
176
     1
 43
1.0
176
     1
 76
     1
176
     1
 77
     6
176
     1
 78
     2
176
     1
 67
     7
176
     1
 79
     5
176
     1
170
     0
176
     1
171
     0
176
     1
290
     0
176
     1
 93
       13
176
     1
 44
0.0
176
     1
173
     0
176
     1
  0
VISUALSTYLE
  5
2E
102
{ACAD_REACTORS
330
2A
102
}
330
2A
100
AcDbVisualStyle
  2
GouraudWithEdges
 70
     3
177
     2
291
     1
 71
     2
176
     1
 72
     2
176
     1
 73
     1
176
     1
 90
        2
176
     1
 40
-0.6
176
     1
 41
30.0
176
     1
 62
     5
 63
     7
421
 16777215
176
     1
 74
     1
176
     1
 91
        4
176
     1
 64
     7
176
     1
 65
   257
176
     1
 75
     1
176
     1
175
     1
176
     1
 42
1.0
176
     1
 92
        0
176
     1
 66
   257
176
     1
 43
1.0
176
     1
 76
     1
176
     1
 77
     6
176
     1
 78
     2
176
     1
 67
     7
176
     1
 79
     5
176
     1
170
     0
176
     1
171
     0
176
     1
290
     0
176
     1
 93
       13
176
     1
 44
0.0
176
     1
173
     0
176
     1
  0
VISUALSTYLE
  5
38
102
{ACAD_REACTORS
330
2A
102
}
330
2A
100
AcDbVisualStyle
  2
Linepattern
 70
    14
177
     2
291
     1
 71
     2
176
     1
 72
     2
176
     1
 73
     0
176
     1
 90
        0
176
     1
 40
-0.6
176
     1
 41
-30.0
176
     1
 62
     5
 63
     7
421
 16777215
176
     1
 74
     1
176
     1
 91
        4
176
     1
 64
     7
176
     1
 65
   257
176
     1
 75
     7
176
     1
175
     7
176
     1
 42
1.0
176
     1
 92
        8
176
     1
 66
     7
176
     1
 43
1.0
176
     1
 76
     1
176
     1
 77
     6
176
     1
 78
     2
176
     1
 67
     7
176
     1
 79
     5
176
     1
170
     0
176
     1
171
     0
176
     1
290
     0
176
     1
 93
        1
176
     1
 44
0.0
176
     1
173
     0
176
     1
  0
VISUALSTYLE
  5
33
102
{ACAD_REACTORS
330
2A
102
}
330
2A
100
AcDbVisualStyle
  2
Realistic
 70
     8
177
     2
291
     0
 71
     2
176
     1
 72
     2
176
     1
 73
     0
176
     1
 90
        0
176
     1
 40
-0.6
176
     1
 41
-30.0
176
     1
 62
     5
 63
     7
421
 16777215
176
     1
 74
     1
176
     1
 91
        0
176
     1
 64
     7
176
     1
 65
   257
176
     1
 75
     1
176
     1
175
     1
176
     1
 42
1.0
176
     1
 92
        8
176
     1
 66
     8
424
  7895160
176
     1
 43
1.0
176
     1
 76
     1
176
     1
 77
     6
176
     1
 78
     2
176
     1
 67
     7
176
     1
 79
     5
176
     1
170
     0
176
     1
171
     0
176
     1
290
     0
176
     1
 93
       13
176
     1
 44
0.0
176
     1
173
     0
176
     1
  0
VISUALSTYLE
  5
37
102
{ACAD_REACTORS
330
2A
102
}
330
2A
100
AcDbVisualStyle
  2
Thicken
 70
    13
177
     2
291
     1
 71
     2
176
     1
 72
     2
176
     1
 73
     0
176
     1
 90
        0
176
     1
 40
-0.6
176
     1
 41
-30.0
176
     1
 62
     5
 63
     7
421
 16777215
176
     1
 74
     1
176
     1
 91
        4
176
     1
 64
     7
176
     1
 65
   257
176
     1
 75
     1
176
     1
175
     1
176
     1
 42
1.0
176
     1
 92
       12
176
     1
 66
     7
176
     1
 43
1.0
176
     1
 76
     1
176
     1
 77
     6
176
     1
 78
     2
176
     1
 67
     7
176
     1
 79
     5
176
     1
170
     0
176
     1
171
     0
176
     1
290
     0
176
     1
 93
        1
176
     1
 44
0.0
176
     1
173
     0
176
     1
  0
ENDSEC
  0
EOF
