  0
SECTION
  2
HEADER
  9
$ACADVER
  1
AC1024
  9
$ACADMAINTVER
 70
     6
  9
$DWGCODEPAGE
  3
ANSI_1251
  9
$INSBASE
 10
0.0
 20
0.0
 30
0.0
  9
$EXTMIN
 10
1.000000000000000E+20
 20
1.000000000000000E+20
 30
1.000000000000000E+20
  9
$EXTMAX
 10
-1.000000000000000E+20
 20
-1.000000000000000E+20
 30
-1.000000000000000E+20
  9
$LIMMIN
 10
0.0
 20
0.0
  9
$LIMMAX
 10
12.0
 20
9.0
  9
$ORTHOMODE
 70
     0
  9
$REGENMODE
 70
     1
  9
$FILLMODE
 70
     1
  9
$QTEXTMODE
 70
     0
  9
$MIRRTEXT
 70
     1
  9
$LTSCALE
 40
1.0
  9
$ATTMODE
 70
     1
  9
$TEXTSIZE
 40
0.2
  9
$TRACEWID
 40
0.05
  9
$TEXTSTYLE
  7
Standard
  9
$CLAYER
  8
0
  9
$CELTYPE
  6
ByLayer
  9
$CECOLOR
 62
   256
  9
$CELTSCALE
 40
1.0
  9
$DISPSILH
 70
     0
  9
$DIMSCALE
 40
1.0
  9
$DIMASZ
 40
0.18
  9
$DIMEXO
 40
0.0625
  9
$DIMDLI
 40
0.38
  9
$DIMRND
 40
0.0
  9
$DIMDLE
 40
0.0
  9
$DIMEXE
 40
0.18
  9
$DIMTP
 40
0.0
  9
$DIMTM
 40
0.0
  9
$DIMTXT
 40
0.18
  9
$DIMCEN
 40
0.09
  9
$DIMTSZ
 40
0.0
  9
$DIMTOL
 70
     0
  9
$DIMLIM
 70
     0
  9
$DIMTIH
 70
     1
  9
$DIMTOH
 70
     1
  9
$DIMSE1
 70
     0
  9
$DIMSE2
 70
     0
  9
$DIMTAD
 70
     0
  9
$DIMZIN
 70
     0
  9
$DIMBLK
  1

  9
$DIMASO
 70
     1
  9
$DIMSHO
 70
     1
  9
$DIMPOST
  1

  9
$DIMAPOST
  1

  9
$DIMALT
 70
     0
  9
$DIMALTD
 70
     2
  9
$DIMALTF
 40
25.4
  9
$DIMLFAC
 40
1.0
  9
$DIMTOFL
 70
     0
  9
$DIMTVP
 40
0.0
  9
$DIMTIX
 70
     0
  9
$DIMSOXD
 70
     0
  9
$DIMSAH
 70
     0
  9
$DIMBLK1
  1

  9
$DIMBLK2
  1

  9
$DIMSTYLE
  2
Standard
  9
$DIMCLRD
 70
     0
  9
$DIMCLRE
 70
     0
  9
$DIMCLRT
 70
     0
  9
$DIMTFAC
 40
1.0
  9
$DIMGAP
 40
0.09
  9
$DIMJUST
 70
     0
  9
$DIMSD1
 70
     0
  9
$DIMSD2
 70
     0
  9
$DIMTOLJ
 70
     1
  9
$DIMTZIN
 70
     0
  9
$DIMALTZ
 70
     0
  9
$DIMALTTZ
 70
     0
  9
$DIMUPT
 70
     0
  9
$DIMDEC
 70
     4
  9
$DIMTDEC
 70
     4
  9
$DIMALTU
 70
     2
  9
$DIMALTTD
 70
     2
  9
$DIMTXSTY
  7
Standard
  9
$DIMAUNIT
 70
     0
  9
$DIMADEC
 70
     0
  9
$DIMALTRND
 40
0.0
  9
$DIMAZIN
 70
     0
  9
$DIMDSEP
 70
    46
  9
$DIMATFIT
 70
     3
  9
$DIMFRAC
 70
     0
  9
$DIMLDRBLK
  1

  9
$DIMLUNIT
 70
     2
  9
$DIMLWD
 70
    -2
  9
$DIMLWE
 70
    -2
  9
$DIMTMOVE
 70
     0
  9
$DIMFXL
 40
1.0
  9
$DIMFXLON
 70
     0
  9
$DIMJOGANG
 40
0.7853981633974483
  9
$DIMTFILL
 70
     0
  9
$DIMTFILLCLR
 70
     0
  9
$DIMARCSYM
 70
     0
  9
$DIMLTYPE
  6

  9
$DIMLTEX1
  6

  9
$DIMLTEX2
  6

  9
$DIMTXTDIRECTION
 70
     0
  9
$LUNITS
 70
     2
  9
$LUPREC
 70
     4
  9
$SKETCHINC
 40
0.1
  9
$FILLETRAD
 40
0.5
  9
$AUNITS
 70
     0
  9
$AUPREC
 70
     0
  9
$MENU
  1
.
  9
$ELEVATION
 40
0.0
  9
$PELEVATION
 40
0.0
  9
$THICKNESS
 40
0.0
  9
$LIMCHECK
 70
     0
  9
$CHAMFERA
 40
0.5
  9
$CHAMFERB
 40
0.5
  9
$CHAMFERC
 40
1.0
  9
$CHAMFERD
 40
0.0
  9
$SKPOLY
 70
     0
  9
$TDCREATE
 40
2459349.660687419
  9
$TDUCREATE
 40
2459349.535687419
  9
$TDUPDATE
 40
2459349.660687442
  9
$TDUUPDATE
 40
2459349.535687442
  9
$TDINDWG
 40
0.0000000116
  9
$TDUSRTIMER
 40
0.0000000116
  9
$USRTIMER
 70
     1
  9
$ANGBASE
 50
0.0
  9
$ANGDIR
 70
     0
  9
$PDMODE
 70
     0
  9
$PDSIZE
 40
0.0
  9
$PLINEWID
 40
0.0
  9
$SPLFRAME
 70
     0
  9
$SPLINETYPE
 70
     6
  9
$SPLINESEGS
 70
     8
  9
$HANDSEED
  5
54
  9
$SURFTAB1
 70
     6
  9
$SURFTAB2
 70
     6
  9
$SURFTYPE
 70
     6
  9
$SURFU
 70
     6
  9
$SURFV
 70
     6
  9
$UCSBASE
  2

  9
$UCSNAME
  2

  9
$UCSORG
 10
0.0
 20
0.0
 30
0.0
  9
$UCSXDIR
 10
1.0
 20
0.0
 30
0.0
  9
$UCSYDIR
 10
0.0
 20
1.0
 30
0.0
  9
$UCSORTHOREF
  2

  9
$UCSORTHOVIEW
 70
     0
  9
$UCSORGTOP
 10
0.0
 20
0.0
 30
0.0
  9
$UCSORGBOTTOM
 10
0.0
 20
0.0
 30
0.0
  9
$UCSORGLEFT
 10
0.0
 20
0.0
 30
0.0
  9
$UCSORGRIGHT
 10
0.0
 20
0.0
 30
0.0
  9
$UCSORGFRONT
 10
0.0
 20
0.0
 30
0.0
  9
$UCSORGBACK
 10
0.0
 20
0.0
 30
0.0
  9
$PUCSBASE
  2

  9
$PUCSNAME
  2

  9
$PUCSORG
 10
0.0
 20
0.0
 30
0.0
  9
$PUCSXDIR
 10
1.0
 20
0.0
 30
0.0
  9
$PUCSYDIR
 10
0.0
 20
1.0
 30
0.0
  9
$PUCSORTHOREF
  2

  9
$PUCSORTHOVIEW
 70
     0
  9
$PUCSORGTOP
 10
0.0
 20
0.0
 30
0.0
  9
$PUCSORGBOTTOM
 10
0.0
 20
0.0
 30
0.0
  9
$PUCSORGLEFT
 10
0.0
 20
0.0
 30
0.0
  9
$PUCSORGRIGHT
 10
0.0
 20
0.0
 30
0.0
  9
$PUCSORGFRONT
 10
0.0
 20
0.0
 30
0.0
  9
$PUCSORGBACK
 10
0.0
 20
0.0
 30
0.0
  9
$USERI1
 70
     0
  9
$USERI2
 70
     0
  9
$USERI3
 70
     0
  9
$USERI4
 70
     0
  9
$USERI5
 70
     0
  9
$USERR1
 40
0.0
  9
$USERR2
 40
0.0
  9
$USERR3
 40
0.0
  9
$USERR4
 40
0.0
  9
$USERR5
 40
0.0
  9
$WORLDVIEW
 70
     1
  9
$SHADEDGE
 70
     3
  9
$SHADEDIF
 70
    70
  9
$TILEMODE
 70
     1
  9
$MAXACTVP
 70
    64
  9
$PINSBASE
 10
0.0
 20
0.0
 30
0.0
  9
$PLIMCHECK
 70
     0
  9
$PEXTMIN
 10
1.000000000000000E+20
 20
1.000000000000000E+20
 30
1.000000000000000E+20
  9
$PEXTMAX
 10
-1.000000000000000E+20
 20
-1.000000000000000E+20
 30
-1.000000000000000E+20
  9
$PLIMMIN
 10
0.0
 20
0.0
  9
$PLIMMAX
 10
12.0
 20
9.0
  9
$UNITMODE
 70
     0
  9
$VISRETAIN
 70
     1
  9
$PLINEGEN
 70
     0
  9
$PSLTSCALE
 70
     1
  9
$TREEDEPTH
 70
  3020
  9
$CMLSTYLE
  2
Standard
  9
$CMLJUST
 70
     0
  9
$CMLSCALE
 40
1.0
  9
$PROXYGRAPHICS
 70
     1
  9
$MEASUREMENT
 70
     0
  9
$CELWEIGHT
370
    -1
  9
$ENDCAPS
280
     0
  9
$JOINSTYLE
280
     0
  9
$LWDISPLAY
290
     1
  9
$INSUNITS
 70
     1
  9
$HYPERLINKBASE
  1

  9
$STYLESHEET
  1

  9
$XEDIT
290
     1
  9
$CEPSNTYPE
380
     0
  9
$PSTYLEMODE
290
     1
  9
$FINGERPRINTGUID
  2
{DD5EF193-1FF6-4266-BF89-767C0B8A5D26}
  9
$VERSIONGUID
  2
{FAEB1C32-E019-11D5-929B-00C0DF256EC4}
  9
$EXTNAMES
290
     1
  9
$PSVPSCALE
 40
0.0
  9
$OLESTARTUP
290
     0
  9
$SORTENTS
280
   127
  9
$INDEXCTL
280
     0
  9
$HIDETEXT
280
     1
  9
$XCLIPFRAME
280
     2
  9
$HALOGAP
280
     0
  9
$OBSCOLOR
 70
   257
  9
$OBSLTYPE
280
     0
  9
$INTERSECTIONDISPLAY
280
     0
  9
$INTERSECTIONCOLOR
 70
   257
  9
$DIMASSOC
280
     2
  9
$PROJECTNAME
  1

  9
$CAMERADISPLAY
290
     0
  9
$LENSLENGTH
 40
50.0
  9
$CAMERAHEIGHT
 40
0.0
  9
$STEPSPERSEC
 40
2.0
  9
$STEPSIZE
 40
6.0
  9
$3DDWFPREC
 40
2.0
  9
$PSOLWIDTH
 40
0.25
  9
$PSOLHEIGHT
 40
4.0
  9
$LOFTANG1
 40
1.570796326794897
  9
$LOFTANG2
 40
1.570796326794897
  9
$LOFTMAG1
 40
0.0
  9
$LOFTMAG2
 40
0.0
  9
$LOFTPARAM
 70
     7
  9
$LOFTNORMALS
280
     1
  9
$LATITUDE
 40
37.795
  9
$LONGITUDE
 40
-122.394
  9
$NORTHDIRECTION
 40
0.0
  9
$TIMEZONE
 70
 -8000
  9
$LIGHTGLYPHDISPLAY
280
     1
  9
$TILEMODELIGHTSYNCH
280
     1
  9
$CMATERIAL
347
3C
  9
$SOLIDHIST
280
     1
  9
$SHOWHIST
280
     1
  9
$DWFFRAME
280
     2
  9
$DGNFRAME
280
     2
  9
$REALWORLDSCALE
290
     1
  9
$INTERFERECOLOR
 62
   256
  9
$CSHADOW
280
     0
  9
$SHADOWPLANELOCATION
 40
0.0
  0
ENDSEC
  0
SECTION
  2
CLASSES
  0
CLASS
  1
ACDBDICTIONARYWDFLT
  2
AcDbDictionaryWithDefault
  3
ObjectDBX Classes
 90
        0
 91
        4
280
     0
281
     0
  0
CLASS
  1
VISUALSTYLE
  2
AcDbVisualStyle
  3
ObjectDBX Classes
 90
     4095
 91
        4
280
     0
281
     0
  0
CLASS
  1
MATERIAL
  2
AcDbMaterial
  3
ObjectDBX Classes
 90
     1153
 91
        4
280
     0
281
     0
  0
CLASS
  1
SUN
  2
AcDbSun
  3
SCENEOE
 90
     1024
 91
        4
280
     0
281
     0
  0
ENDSEC
  0
SECTION
  2
TABLES
  0
TABLE
  2
VPORT
  5
8
330
0
100
AcDbSymbolTable
 70
     1
  0
VPORT
  5
29
330
8
100
AcDbSymbolTableRecord
100
AcDbViewportTableRecord
  2
*Active
 70
     0
 10
0.0
 20
0.0
 11
1.0
 21
1.0
 12
0.0
 22
0.0
 13
0.0
 23
0.0
 14
0.5
 24
0.5
 15
0.5
 25
0.5
 16
0.0
 26
0.0
 36
1.0
 17
3147.337800000001
 27
-163.4002391279864
 37
0.0
 40
860.7362782559721
 41
1.003791778999534
 42
50.0
 43
0.0
 44
0.0
 50
0.0
 51
0.0
 71
     0
 72
   100
 73
     1
 74
     3
 75
     0
 76
     0
 77
     0
 78
     0
281
     0
 65
     1
110
0.0
120
0.0
130
0.0
111
1.0
121
0.0
131
0.0
112
0.0
122
1.0
132
0.0
 79
     0
146
0.0
 60
     3
 61
     5
292
     1
282
     1
141
0.0
142
0.0
 63
   250
361
3F
  0
ENDTAB
  0
TABLE
  2
LTYPE
  5
5
330
0
100
AcDbSymbolTable
 70
     1
  0
LTYPE
  5
14
330
5
100
AcDbSymbolTableRecord
100
AcDbLinetypeTableRecord
  2
ByBlock
 70
     0
  3

 72
    65
 73
     0
 40
0.0
  0
LTYPE
  5
15
330
5
100
AcDbSymbolTableRecord
100
AcDbLinetypeTableRecord
  2
ByLayer
 70
     0
  3

 72
    65
 73
     0
 40
0.0
  0
LTYPE
  5
16
330
5
100
AcDbSymbolTableRecord
100
AcDbLinetypeTableRecord
  2
Continuous
 70
     0
  3
Solid line
 72
    65
 73
     0
 40
0.0
  0
ENDTAB
  0
TABLE
  2
LAYER
  5
2
330
0
100
AcDbSymbolTable
 70
     2
  0
LAYER
  5
10
330
2
100
AcDbSymbolTableRecord
100
AcDbLayerTableRecord
  2
0
 70
     0
 62
     7
  6
Continuous
370
    -3
390
F
347
3E
  0
LAYER
  5
40
330
2
100
AcDbSymbolTableRecord
100
AcDbLayerTableRecord
  2
Layer 1
 70
     0
 62
     7
  6
Continuous
370
    -3
390
F
347
3E
  0
ENDTAB
  0
TABLE
  2
STYLE
  5
3
330
0
100
AcDbSymbolTable
 70
     1
  0
STYLE
  5
11
330
3
100
AcDbSymbolTableRecord
100
AcDbTextStyleTableRecord
  2
Standard
 70
     0
 40
0.0
 41
1.0
 50
0.0
 71
     0
 42
0.2
  3
txt
  4

  0
ENDTAB
  0
TABLE
  2
VIEW
  5
6
330
0
100
AcDbSymbolTable
 70
     0
  0
ENDTAB
  0
TABLE
  2
UCS
  5
7
330
0
100
AcDbSymbolTable
 70
     0
  0
ENDTAB
  0
TABLE
  2
APPID
  5
9
330
0
100
AcDbSymbolTable
 70
     1
  0
APPID
  5
12
330
9
100
AcDbSymbolTableRecord
100
AcDbRegAppTableRecord
  2
ACAD
 70
     0
  0
ENDTAB
  0
TABLE
  2
DIMSTYLE
  5
A
330
0
100
AcDbSymbolTable
 70
     1
100
AcDbDimStyleTable
  0
DIMSTYLE
105
27
330
A
100
AcDbSymbolTableRecord
100
AcDbDimStyleTableRecord
  2
Standard
 70
     0
178
     0
340
11
  0
ENDTAB
  0
TABLE
  2
BLOCK_RECORD
  5
1
330
0
100
AcDbSymbolTable
 70
     1
  0
BLOCK_RECORD
  5
1F
330
1
100
AcDbSymbolTableRecord
100
AcDbBlockTableRecord
  2
*Model_Space
340
22
 70
     0
280
     1
281
     0
  0
BLOCK_RECORD
  5
1B
330
1
100
AcDbSymbolTableRecord
100
AcDbBlockTableRecord
  2
*Paper_Space
340
1E
 70
     0
280
     1
281
     0
  0
BLOCK_RECORD
  5
23
330
1
100
AcDbSymbolTableRecord
100
AcDbBlockTableRecord
  2
*Paper_Space0
340
26
 70
     0
280
     1
281
     0
  0
ENDTAB
  0
ENDSEC
  0
SECTION
  2
BLOCKS
  0
BLOCK
  5
20
330
1F
100
AcDbEntity
  8
0
100
AcDbBlockBegin
  2
*Model_Space
 70
     0
 10
0.0
 20
0.0
 30
0.0
  3
*Model_Space
  1

  0
ENDBLK
  5
21
330
1F
100
AcDbEntity
  8
0
100
AcDbBlockEnd
  0
BLOCK
  5
1C
330
1B
100
AcDbEntity
 67
     1
  8
0
100
AcDbBlockBegin
  2
*Paper_Space
 70
     0
 10
0.0
 20
0.0
 30
0.0
  3
*Paper_Space
  1

  0
ENDBLK
  5
1D
330
1B
100
AcDbEntity
 67
     1
  8
0
100
AcDbBlockEnd
  0
BLOCK
  5
24
330
23
100
AcDbEntity
  8
0
100
AcDbBlockBegin
  2
*Paper_Space0
 70
     0
 10
0.0
 20
0.0
 30
0.0
  3
*Paper_Space0
  1

  0
ENDBLK
  5
25
330
23
100
AcDbEntity
  8
0
100
AcDbBlockEnd
  0
ENDSEC
  0
SECTION
  2
ENTITIES
  0
SPLINE
  5
41
330
1F
100
AcDbEntity
  8
Layer 1
370
     0
100
AcDbSpline
210
0.0
220
0.0
230
1.0
 70
    11
 71
     3
 72
   536
 73
   532
 74
     0
 42
0.0000000001
 43
0.0000000001
 12
1.0
 22
0.0
 32
0.0
 13
1.0
 23
0.0
 33
0.0
 40
0.0
 40
0.0
 40
0.0
 40
0.0
 40
1.0
 40
1.0
 40
1.0
 40
2.0
 40
2.0
 40
2.0
 40
3.0
 40
3.0
 40
3.0
 40
4.0
 40
4.0
 40
4.0
 40
5.0
 40
5.0
 40
5.0
 40
6.0
 40
6.0
 40
6.0
 40
7.0
 40
7.0
 40
7.0
 40
8.0
 40
8.0
 40
8.0
 40
9.0
 40
9.0
 40
9.0
 40
10.0
 40
10.0
 40
10.0
 40
11.0
 40
11.0
 40
11.0
 40
12.0
 40
12.0
 40
12.0
 40
13.0
 40
13.0
 40
13.0
 40
14.0
 40
14.0
 40
14.0
 40
15.0
 40
15.0
 40
15.0
 40
16.0
 40
16.0
 40
16.0
 40
17.0
 40
17.0
 40
17.0
 40
18.0
 40
18.0
 40
18.0
 40
19.0
 40
19.0
 40
19.0
 40
20.0
 40
20.0
 40
20.0
 40
21.0
 40
21.0
 40
21.0
 40
22.0
 40
22.0
 40
22.0
 40
23.0
 40
23.0
 40
23.0
 40
24.0
 40
24.0
 40
24.0
 40
25.0
 40
25.0
 40
25.0
 40
26.0
 40
26.0
 40
26.0
 40
27.0
 40
27.0
 40
27.0
 40
28.0
 40
28.0
 40
28.0
 40
29.0
 40
29.0
 40
29.0
 40
30.0
 40
30.0
 40
30.0
 40
31.0
 40
31.0
 40
31.0
 40
32.0
 40
32.0
 40
32.0
 40
33.0
 40
33.0
 40
33.0
 40
34.0
 40
34.0
 40
34.0
 40
35.0
 40
35.0
 40
35.0
 40
36.0
 40
36.0
 40
36.0
 40
37.0
 40
37.0
 40
37.0
 40
38.0
 40
38.0
 40
38.0
 40
39.0
 40
39.0
 40
39.0
 40
40.0
 40
40.0
 40
40.0
 40
41.0
 40
41.0
 40
41.0
 40
42.0
 40
42.0
 40
42.0
 40
43.0
 40
43.0
 40
43.0
 40
44.0
 40
44.0
 40
44.0
 40
45.0
 40
45.0
 40
45.0
 40
46.0
 40
46.0
 40
46.0
 40
47.0
 40
47.0
 40
47.0
 40
48.0
 40
48.0
 40
48.0
 40
49.0
 40
49.0
 40
49.0
 40
50.0
 40
50.0
 40
50.0
 40
51.0
 40
51.0
 40
51.0
 40
52.0
 40
52.0
 40
52.0
 40
53.0
 40
53.0
 40
53.0
 40
54.0
 40
54.0
 40
54.0
 40
55.0
 40
55.0
 40
55.0
 40
56.0
 40
56.0
 40
56.0
 40
57.0
 40
57.0
 40
57.0
 40
58.0
 40
58.0
 40
58.0
 40
59.0
 40
59.0
 40
59.0
 40
60.0
 40
60.0
 40
60.0
 40
61.0
 40
61.0
 40
61.0
 40
62.0
 40
62.0
 40
62.0
 40
63.0
 40
63.0
 40
63.0
 40
64.0
 40
64.0
 40
64.0
 40
65.0
 40
65.0
 40
65.0
 40
66.0
 40
66.0
 40
66.0
 40
67.0
 40
67.0
 40
67.0
 40
68.0
 40
68.0
 40
68.0
 40
69.0
 40
69.0
 40
69.0
 40
70.0
 40
70.0
 40
70.0
 40
71.0
 40
71.0
 40
71.0
 40
72.0
 40
72.0
 40
72.0
 40
73.0
 40
73.0
 40
73.0
 40
74.0
 40
74.0
 40
74.0
 40
75.0
 40
75.0
 40
75.0
 40
76.0
 40
76.0
 40
76.0
 40
77.0
 40
77.0
 40
77.0
 40
78.0
 40
78.0
 40
78.0
 40
79.0
 40
79.0
 40
79.0
 40
80.0
 40
80.0
 40
80.0
 40
81.0
 40
81.0
 40
81.0
 40
82.0
 40
82.0
 40
82.0
 40
83.0
 40
83.0
 40
83.0
 40
84.0
 40
84.0
 40
84.0
 40
85.0
 40
85.0
 40
85.0
 40
86.0
 40
86.0
 40
86.0
 40
87.0
 40
87.0
 40
87.0
 40
88.0
 40
88.0
 40
88.0
 40
89.0
 40
89.0
 40
89.0
 40
90.0
 40
90.0
 40
90.0
 40
91.0
 40
91.0
 40
91.0
 40
92.0
 40
92.0
 40
92.0
 40
93.0
 40
93.0
 40
93.0
 40
94.0
 40
94.0
 40
94.0
 40
95.0
 40
95.0
 40
95.0
 40
96.0
 40
96.0
 40
96.0
 40
97.0
 40
97.0
 40
97.0
 40
98.0
 40
98.0
 40
98.0
 40
99.0
 40
99.0
 40
99.0
 40
100.0
 40
100.0
 40
100.0
 40
101.0
 40
101.0
 40
101.0
 40
102.0
 40
102.0
 40
102.0
 40
103.0
 40
103.0
 40
103.0
 40
104.0
 40
104.0
 40
104.0
 40
105.0
 40
105.0
 40
105.0
 40
106.0
 40
106.0
 40
106.0
 40
107.0
 40
107.0
 40
107.0
 40
108.0
 40
108.0
 40
108.0
 40
109.0
 40
109.0
 40
109.0
 40
110.0
 40
110.0
 40
110.0
 40
111.0
 40
111.0
 40
111.0
 40
112.0
 40
112.0
 40
112.0
 40
113.0
 40
113.0
 40
113.0
 40
114.0
 40
114.0
 40
114.0
 40
115.0
 40
115.0
 40
115.0
 40
116.0
 40
116.0
 40
116.0
 40
117.0
 40
117.0
 40
117.0
 40
118.0
 40
118.0
 40
118.0
 40
119.0
 40
119.0
 40
119.0
 40
120.0
 40
120.0
 40
120.0
 40
121.0
 40
121.0
 40
121.0
 40
122.0
 40
122.0
 40
122.0
 40
123.0
 40
123.0
 40
123.0
 40
124.0
 40
124.0
 40
124.0
 40
125.0
 40
125.0
 40
125.0
 40
126.0
 40
126.0
 40
126.0
 40
127.0
 40
127.0
 40
127.0
 40
128.0
 40
128.0
 40
128.0
 40
129.0
 40
129.0
 40
129.0
 40
130.0
 40
130.0
 40
130.0
 40
131.0
 40
131.0
 40
131.0
 40
132.0
 40
132.0
 40
132.0
 40
133.0
 40
133.0
 40
133.0
 40
134.0
 40
134.0
 40
134.0
 40
135.0
 40
135.0
 40
135.0
 40
136.0
 40
136.0
 40
136.0
 40
137.0
 40
137.0
 40
137.0
 40
138.0
 40
138.0
 40
138.0
 40
139.0
 40
139.0
 40
139.0
 40
140.0
 40
140.0
 40
140.0
 40
141.0
 40
141.0
 40
141.0
 40
142.0
 40
142.0
 40
142.0
 40
143.0
 40
143.0
 40
143.0
 40
144.0
 40
144.0
 40
144.0
 40
145.0
 40
145.0
 40
145.0
 40
146.0
 40
146.0
 40
146.0
 40
147.0
 40
147.0
 40
147.0
 40
148.0
 40
148.0
 40
148.0
 40
149.0
 40
149.0
 40
149.0
 40
150.0
 40
150.0
 40
150.0
 40
151.0
 40
151.0
 40
151.0
 40
152.0
 40
152.0
 40
152.0
 40
153.0
 40
153.0
 40
153.0
 40
154.0
 40
154.0
 40
154.0
 40
155.0
 40
155.0
 40
155.0
 40
156.0
 40
156.0
 40
156.0
 40
157.0
 40
157.0
 40
157.0
 40
158.0
 40
158.0
 40
158.0
 40
159.0
 40
159.0
 40
159.0
 40
160.0
 40
160.0
 40
160.0
 40
161.0
 40
161.0
 40
161.0
 40
162.0
 40
162.0
 40
162.0
 40
163.0
 40
163.0
 40
163.0
 40
164.0
 40
164.0
 40
164.0
 40
165.0
 40
165.0
 40
165.0
 40
166.0
 40
166.0
 40
166.0
 40
167.0
 40
167.0
 40
167.0
 40
168.0
 40
168.0
 40
168.0
 40
169.0
 40
169.0
 40
169.0
 40
170.0
 40
170.0
 40
170.0
 40
171.0
 40
171.0
 40
171.0
 40
172.0
 40
172.0
 40
172.0
 40
173.0
 40
173.0
 40
173.0
 40
174.0
 40
174.0
 40
174.0
 40
175.0
 40
175.0
 40
175.0
 40
176.0
 40
176.0
 40
176.0
 40
177.0
 40
177.0
 40
177.0
 40
177.0
 10
3578.2171
 20
-227.0519999999997
 30
0.0
 10
3574.1926
 20
-219.4280999999992
 30
0.0
 10
3562.813599999999
 20
-222.1023000000005
 30
0.0
 10
3556.0175
 20
-223.6983
 30
0.0
 10
3555.1756
 20
-223.8958000000002
 30
0.0
 10
3554.4054
 20
-224.0800999999992
 30
0.0
 10
3553.7279
 20
-224.2209000000003
 30
0.0
 10
3542.5057
 20
-226.5851999999995
 30
0.0
 10
3531.002
 20
-225.5202000000008
 30
0.0
 10
3519.5322
 20
-221.0648000000001
 30
0.0
 10
3506.388999999999
 20
-215.9544999999998
 30
0.0
 10
3494.998600000001
 20
-207.1324999999997
 30
0.0
 10
3483.982400000001
 20
-198.5995999999996
 30
0.0
 10
3471.7189
 20
-189.1020000000008
 30
0.0
 10
3459.0368
 20
-179.2793000000001
 30
0.0
 10
3443.671
 20
-174.2369999999992
 30
0.0
 10
3418.663
 20
-166.0264000000006
 30
0.0
 10
3392.106299999999
 20
-167.5666999999994
 30
0.0
 10
3362.4926
 20
-170.2324000000008
 30
0.0
 10
3352.3174
 20
-171.1452000000008
 30
0.0
 10
3341.953300000001
 20
-170.8956999999991
 30
0.0
 10
3331.573
 20
-169.4886999999999
 30
0.0
 10
3339.2318
 20
-167.2973999999995
 30
0.0
 10
3347.3177
 20
-165.9781999999996
 30
0.0
 10
3355.2042
 20
-164.6911999999993
 30
0.0
 10
3370.635200000001
 20
-162.1738999999998
 30
0.0
 10
3386.5897
 20
-159.5724
 30
0.0
 10
3399.780200000001
 20
-150.4971999999998
 30
0.0
 10
3416.179700000001
 20
-139.2106999999996
 30
0.0
 10
3427.0201
 20
-120.1756999999998
 30
0.0
 10
3432.001899999999
 20
-93.91470000000027
 30
0.0
 10
3432.965700000001
 20
-88.84040000000005
 30
0.0
 10
3430.9303
 20
-84.39729999999963
 30
0.0
 10
3426.6922
 20
-82.32219999999961
 30
0.0
 10
3423.6986
 20
-80.86319999999978
 30
0.0
 10
3419.1572
 20
-80.21590000000015
 30
0.0
 10
3414.528900000001
 20
-85.60390000000007
 30
0.0
 10
3414.528900000001
 20
-85.60390000000007
 30
0.0
 10
3414.2019
 20
-86.0018
 30
0.0
 10
3414.2019
 20
-86.0018
 30
0.0
 10
3405.552800000001
 20
-96.58520000000044
 30
0.0
 10
3392.454
 20
-102.7650999999996
 30
0.0
 10
3376.324700000001
 20
-103.8669
 30
0.0
 10
3369.426600000001
 20
-104.3451000000005
 30
0.0
 10
3362.346100000001
 20
-103.6778999999997
 30
0.0
 10
3355.5038
 20
-103.0344000000005
 30
0.0
 10
3349.2076
 20
-102.4476000000004
 30
0.0
 10
3342.735700000001
 20
-101.8276999999998
 30
0.0
 10
3336.276
 20
-102.0895
 30
0.0
 10
3337.631100000001
 20
-100.4566000000004
 30
0.0
 10
3339.2876
 20
-98.30209999999988
 30
0.0
 10
3341.374900000001
 20
-95.48710000000028
 30
0.0
 10
3342.154500000001
 20
-94.4335000000001
 30
0.0
 10
3342.7754
 20
-93.59349999999995
 30
0.0
 10
3343.117399999999
 20
-93.18339999999989
 30
0.0
 10
3359.481100000001
 20
-73.54929999999968
 30
0.0
 10
3369.4606
 20
-49.73289999999997
 30
0.0
 10
3379.1132
 20
-26.70550000000003
 30
0.0
 10
3379.1132
 20
-26.70550000000003
 30
0.0
 10
3379.480800000001
 20
-25.82480000000032
 30
0.0
 10
3379.480800000001
 20
-25.82480000000032
 30
0.0
 10
3380.680899999999
 20
-22.96159999999963
 30
0.0
 10
3381.847
 20
-20.01810000000023
 30
0.0
 10
3383.021500000001
 20
-17.04249999999956
 30
0.0
 10
3386.5056
 20
-8.236499999999978
 30
0.0
 10
3390.1086
 20
0.8708880000003774
 30
0.0
 10
3394.985500000001
 20
8.618499999999585
 30
0.0
 10
3401.402600000001
 20
18.81540000000041
 30
0.0
 10
3410.723600000001
 20
26.77750000000015
 30
0.0
 10
3419.736499999999
 20
34.47320000000036
 30
0.0
 10
3425.2153
 20
39.15350000000035
 30
0.0
 10
3430.8783
 20
43.99070000000029
 30
0.0
 10
3435.920600000001
 20
49.33050000000003
 30
0.0
 10
3454.433000000001
 20
68.93249999999989
 30
0.0
 10
3463.5687
 20
97.79119999999966
 30
0.0
 10
3460.3521
 20
126.584596802204
 30
0.0
 10
3460.118699999999
 20
128.6794967492824
 30
0.0
 10
3459.4072
 20
135.0569999999998
 30
0.0
 10
3452.6111
 20
136.3392965557796
 30
0.0
 10
3445.8945
 20
137.5856965242929
 30
0.0
 10
3441.745200000001
 20
130.8103966954513
 30
0.0
 10
3439.1976
 20
126.6289999999999
 30
0.0
 10
3437.834999999999
 20
124.3932968575609
 30
0.0
 10
3436.626400000001
 20
122.1499999999996
 30
0.0
 10
3435.4301
 20
119.9264969704018
 30
0.0
 10
3433.099900000001
 20
115.5919999999996
 30
0.0
 10
3430.8982
 20
111.498497183311
 30
0.0
 10
3427.673999999999
 20
107.7150000000001
 30
0.0
 10
3413.8977
 20
91.57060000000001
 30
0.0
 10
3394.6718
 20
85.90940000000046
 30
0.0
 10
3372.798200000001
 20
80.66209999999955
 30
0.0
 10
3352.892900000001
 20
75.8806999999997
 30
0.0
 10
3332.1646
 20
69.46360000000004
 30
0.0
 10
3315.4211
 20
54.97569999999996
 30
0.0
 10
3297.9481
 20
39.85750000000007
 30
0.0
 10
3285.061799999999
 20
20.33579999999984
 30
0.0
 10
3273.6922
 20
3.110410000000229
 30
0.0
 10
3268.0452
 20
-5.454579999999623
 30
0.0
 10
3261.356
 20
-13.43180000000029
 30
0.0
 10
3253.752
 20
-20.68140000000039
 30
0.0
 10
3254.5864
 20
-17.95150000000012
 30
0.0
 10
3255.8035
 20
-15.36610000000019
 30
0.0
 10
3257.0877
 20
-12.63140000000021
 30
0.0
 10
3259.598400000001
 20
-7.300059999999576
 30
0.0
 10
3262.659100000001
 20
-2.100970000000416
 30
0.0
 10
3265.620500000001
 20
2.932759999999689
 30
0.0
 10
3268.9637
 20
8.61471999999958
 30
0.0
 10
3272.4213
 20
14.48940000000039
 30
0.0
 10
3275.1541
 20
20.63730000000032
 30
0.0
 10
3287.925999999999
 20
48.13240000000042
 30
0.0
 10
3281.936900000001
 20
76.52800000000025
 30
0.0
 10
3257.349399999999
 20
105.0407973464462
 30
0.0
 10
3253.992
 20
108.9452972478102
 30
0.0
 10
3249.2531
 20
110.1226972180666
 30
0.0
 10
3244.995200000001
 20
108.116597268745
 30
0.0
 10
3238.6518
 20
105.1286973442257
 30
0.0
 10
3239.594800000001
 20
98.94120000000021
 30
0.0
 10
3240.284599999999
 20
94.42150000000038
 30
0.0
 10
3240.4557
 20
93.30739999999969
 30
0.0
 10
3240.6258
 20
92.20179999999982
 30
0.0
 10
3240.6947
 20
91.15669999999955
 30
0.0
 10
3241.510200000001
 20
78.76370000000043
 30
0.0
 10
3238.2634
 20
66.5607
 30
0.0
 10
3231.3058
 20
55.86110000000008
 30
0.0
 10
3227.2245
 20
49.57999999999993
 30
0.0
 10
3221.8487
 20
44.14750000000004
 30
0.0
 10
3216.649600000001
 20
38.89270000000033
 30
0.0
 10
3212.0591
 20
34.25579999999991
 30
0.0
 10
3207.344800000001
 20
29.49139999999989
 30
0.0
 10
3203.368399999999
 20
24.03909999999996
 30
0.0
 10
3200.867200000001
 20
41.48559999999998
 30
0.0
 10
3195.519700000001
 20
59.06919999999991
 30
0.0
 10
3187.437600000001
 20
76.38720000000012
 30
0.0
 10
3183.550999999999
 20
84.71119999999974
 30
0.0
 10
3178.7101
 20
92.63180000000011
 30
0.0
 10
3174.025
 20
100.2961974663049
 30
0.0
 10
3168.9393
 20
108.6154972561417
 30
0.0
 10
3163.677900000001
 20
117.2240000000002
 30
0.0
 10
3159.7233
 20
126.2510000000002
 30
0.0
 10
3155.774300000001
 20
135.2695965828025
 30
0.0
 10
3152.873299999999
 20
145.12159633392
 30
0.0
 10
3151.331200000001
 20
154.7477960907418
 30
0.0
 10
3150.236000000001
 20
161.598595917676
 30
0.0
 10
3150.0206
 20
168.551495742031
 30
0.0
 10
3149.813599999999
 20
175.2738955722089
 30
0.0
 10
3149.5141
 20
184.9481953278155
 30
0.0
 10
3149.204099999999
 20
194.9504950751361
 30
0.0
 10
3146.305
 20
205.0330948204282
 30
0.0
 10
3138.9751
 20
230.5276941763805
 30
0.0
 10
3123.8928
 20
251.143593655579
 30
0.0
 10
3102.6939
 20
264.641193314601
 30
0.0
 10
3097.9276
 20
267.7150932369477
 30
0.0
 10
3093.715
 20
267.7415932362783
 30
0.0
 10
3090.1828
 20
264.7299999999996
 30
0.0
 10
3083.7572
 20
259.2550000000001
 30
0.0
 10
3088.6813
 20
248.9078937120576
 30
0.0
 10
3091.6201
 20
242.7269999999999
 30
0.0
 10
3091.9498
 20
242.033393885722
 30
0.0
 10
3092.252200000001
 20
241.4002939017155
 30
0.0
 10
3092.5074
 20
240.8370939159431
 30
0.0
 10
3097.173500000001
 20
230.4974941771434
 30
0.0
 10
3098.9226
 20
220.2825944351935
 30
0.0
 10
3097.8586
 20
209.6065947048919
 30
0.0
 10
3096.214400000001
 20
193.1370951209465
 30
0.0
 10
3088.759700000001
 20
177.1363955251582
 30
0.0
 10
3081.9003
 20
163.4290000000001
 30
0.0
 10
3071.2461
 20
142.1336964094007
 30
0.0
 10
3066.6763
 20
120.9753969439043
 30
0.0
 10
3068.6853
 20
102.2380974172484
 30
0.0
 10
3070.5024
 20
85.27350000000024
 30
0.0
 10
3074.0129
 20
68.41370000000006
 30
0.0
 10
3079.1175
 20
52.12950000000001
 30
0.0
 10
3083.1845
 20
39.16200000000026
 30
0.0
 10
3087.3706
 20
25.82030000000032
 30
0.0
 10
3088.9062
 20
11.19250000000011
 30
0.0
 10
3087.7581
 20
13.10599999999977
 30
0.0
 10
3086.632600000001
 20
15.08479999999963
 30
0.0
 10
3085.5365
 20
17.11920000000009
 30
0.0
 10
3082.285900000001
 20
23.15840000000026
 30
0.0
 10
3079.8234
 20
29.6889000000001
 30
0.0
 10
3077.443
 20
36.00110000000041
 30
0.0
 10
3075.353800000001
 20
41.54989999999998
 30
0.0
 10
3072.9876
 20
47.83470000000034
 30
0.0
 10
3069.9959
 20
53.83790000000045
 30
0.0
 10
3056.465200000001
 20
80.95510000000013
 30
0.0
 10
3030.550999999999
 20
93.91499999999996
 30
0.0
 10
2992.9252
 20
92.54389999999967
 30
0.0
 10
2987.7582
 20
92.34640000000036
 30
0.0
 10
2983.882100000001
 20
89.37920000000031
 30
0.0
 10
2982.8105
 20
84.8113999999996
 30
0.0
 10
2981.1616
 20
77.96810000000005
 30
0.0
 10
2986.5232
 20
74.93950000000041
 30
0.0
 10
2990.4381
 20
72.73210000000017
 30
0.0
 10
2991.3849
 20
72.19350000000031
 30
0.0
 10
2992.3261
 20
71.66719999999987
 30
0.0
 10
2993.168
 20
71.09640000000036
 30
0.0
 10
2997.8928
 20
67.88360000000011
 30
0.0
 10
3002.1403
 20
63.91010000000006
 30
0.0
 10
3005.7935
 20
59.29029999999966
 30
0.0
 10
3014.7459
 20
47.95190000000002
 30
0.0
 10
3016.6282
 20
34.76699999999983
 30
0.0
 10
3018.623
 20
20.80640000000039
 30
0.0
 10
3019.5509
 20
14.30050000000028
 30
0.0
 10
3020.5044
 20
7.621579999999994
 30
0.0
 10
3022.2393
 20
1.091999999999643
 30
0.0
 10
3019.135200000001
 20
2.775899999999638
 30
0.0
 10
3015.1626
 20
4.388920000000326
 30
0.0
 10
3011.004800000001
 20
6.009500000000116
 30
0.0
 10
3009.6961
 20
6.51976999999988
 30
0.0
 10
3008.5905
 20
6.945950000000266
 30
0.0
 10
3007.8468
 20
7.275730000000294
 30
0.0
 10
3001.3069
 20
10.14649999999983
 30
0.0
 10
2994.3643
 20
12.65530000000035
 30
0.0
 10
2986.6224
 20
14.95150000000012
 30
0.0
 10
2974.907
 20
18.42609999999968
 30
0.0
 10
2962.6453
 20
21.12389999999959
 30
0.0
 10
2950.787200000001
 20
23.73390000000018
 30
0.0
 10
2931.042600000001
 20
28.07589999999982
 30
0.0
 10
2910.628000000001
 20
32.56720000000041
 30
0.0
 10
2891.9435
 20
40.79010000000017
 30
0.0
 10
2882.6103
 20
44.89590000000044
 30
0.0
 10
2873.845
 20
50.11859999999979
 30
0.0
 10
2865.3688
 20
55.17320000000018
 30
0.0
 10
2847.481900000001
 20
65.83690000000024
 30
0.0
 10
2828.9856
 20
76.86629999999968
 30
0.0
 10
2805.275900000001
 20
76.86629999999968
 30
0.0
 10
2794.1161
 20
76.86629999999968
 30
0.0
 10
2782.815500000001
 20
74.93950000000041
 30
0.0
 10
2771.6774
 20
71.13230000000021
 30
0.0
 10
2766.3234
 20
69.28690000000006
 30
0.0
 10
2763.6917
 20
66.01360000000022
 30
0.0
 10
2763.8523
 20
61.40980000000036
 30
0.0
 10
2764.151900000001
 20
52.8127000000004
 30
0.0
 10
2774.3554
 20
50.70169999999962
 30
0.0
 10
2781.8035
 20
49.16610000000037
 30
0.0
 10
2783.7142
 20
48.77210000000014
 30
0.0
 10
2785.5171
 20
48.39789999999994
 30
0.0
 10
2786.754
 20
47.98400000000038
 30
0.0
 10
2811.7857
 20
39.64009999999962
 30
0.0
 10
2823.8989
 20
16.8773000000001
 30
0.0
 10
2835.6163
 20
-5.128569999999854
 30
0.0
 10
2837.9238
 20
-9.4677700000002
 30
0.0
 10
2840.2257
 20
-13.78989999999976
 30
0.0
 10
2842.616400000001
 20
-17.9997000000003
 30
0.0
 10
2863.4411
 20
-54.67019999999957
 30
0.0
 10
2898.9635
 20
-70.40449999999964
 30
0.0
 10
2933.563700000001
 20
-83.38050000000021
 30
0.0
 10
2942.2071
 20
-86.6207000000004
 30
0.0
 10
2949.9793
 20
-90.95989999999983
 30
0.0
 10
2957.737300000001
 20
-95.74420000000009
 30
0.0
 10
2957.2289
 20
-95.68369999999959
 30
0.0
 10
2956.722400000001
 20
-95.61939999999959
 30
0.0
 10
2956.2178
 20
-95.5599000000002
 30
0.0
 10
2956.2178
 20
-95.5599000000002
 30
0.0
 10
2953.9414
 20
-95.27360000000044
 30
0.0
 10
2953.9414
 20
-95.27360000000044
 30
0.0
 10
2946.5047
 20
-94.30500000000029
 30
0.0
 10
2939.229600000001
 20
-92.27049999999963
 30
0.0
 10
2932.1926
 20
-90.30029999999988
 30
0.0
 10
2927.924199999999
 20
-89.10589999999956
 30
0.0
 10
2923.5113
 20
-87.8717999999999
 30
0.0
 10
2919.050300000001
 20
-86.86260000000038
 30
0.0
 10
2887.9663
 20
-79.90970000000016
 30
0.0
 10
2859.8787
 20
-92.05320000000029
 30
0.0
 10
2837.8218
 20
-121.9929000000002
 30
0.0
 10
2834.7639
 20
-126.1431000000002
 30
0.0
 10
2834.6666
 20
-131.0236999999997
 30
0.0
 10
2837.5657
 20
-134.7232000000004
 30
0.0
 10
2839.6493
 20
-137.3888999999999
 30
0.0
 10
2843.4905
 20
-139.9666999999999
 30
0.0
 10
2849.8925
 20
-137.0798999999997
 30
0.0
 10
2865.0957
 20
-130.6504999999997
 30
0.0
 10
2881.808
 20
-131.2013999999999
 30
0.0
 10
2896.950800000001
 20
-138.6352999999999
 30
0.0
 10
2901.65
 20
-140.9475000000002
 30
0.0
 10
2906.2179
 20
-143.8589000000002
 30
0.0
 10
2910.636500000001
 20
-146.6738999999998
 30
0.0
 10
2915.3045
 20
-149.6448
 30
0.0
 10
2920.0755
 20
-152.6846999999998
 30
0.0
 10
2925.1518
 20
-155.1292999999996
 30
0.0
 10
2910.8113
 20
-159.1831000000002
 30
0.0
 10
2892.2969
 20
-174.7520000000004
 30
0.0
 10
2882.3712
 20
-183.0987000000005
 30
0.0
 10
2882.3712
 20
-183.0987000000005
 30
0.0
 10
2879.7755
 20
-185.2739999999994
 30
0.0
 10
2879.7755
 20
-185.2739999999994
 30
0.0
 10
2874.0926
 20
-189.9950000000008
 30
0.0
 10
2868.674199999999
 20
-194.7716999999993
 30
0.0
 10
2863.4345
 20
-199.3876999999993
 30
0.0
 10
2842.1421
 20
-218.1496000000006
 30
0.0
 10
2822.0289
 20
-235.8701999999994
 30
0.0
 10
2791.5969
 20
-242.6728999999996
 30
0.0
 10
2767.7068
 20
-248.009
 30
0.0
 10
2747.467000000001
 20
-260.3896999999997
 30
0.0
 10
2733.0679
 20
-278.4835000000003
 30
0.0
 10
2726.1055
 20
-287.2214000000004
 30
0.0
 10
2720.577600000001
 20
-297.2453999999998
 30
0.0
 10
2716.6362
 20
-308.2870999999996
 30
0.0
 10
2715.9209
 20
-310.2893999999997
 30
0.0
 10
2713.7456
 20
-316.3889999999992
 30
0.0
 10
2717.3884
 20
-319.3806999999997
 30
0.0
 10
2722.6423
 20
-323.6905999999999
 30
0.0
 10
2735.384
 20
-317.5910000000003
 30
0.0
 10
2754.2347
 20
-306.3328999999994
 30
0.0
 10
2756.4336
 20
-305.0175999999992
 30
0.0
 10
2758.7081
 20
-303.6587
 30
0.0
 10
2759.2145
 20
-303.4696999999996
 30
0.0
 10
2778.3941
 20
-297.2010000000009
 30
0.0
 10
2797.5019
 20
-300.9447999999993
 30
0.0
 10
2817.733200000001
 20
-304.9135999999999
 30
0.0
 10
2836.454400000001
 20
-308.5799999999999
 30
0.0
 10
2855.817300000001
 20
-312.3796000000002
 30
0.0
 10
2874.9591
 20
-307.2976999999992
 30
0.0
 10
2893.311799999999
 20
-302.4246000000003
 30
0.0
 10
2911.012500000001
 20
-294.9416000000001
 30
0.0
 10
2927.5661
 20
-285.0537000000004
 30
0.0
 10
2929.885
 20
-283.6664999999994
 30
0.0
 10
2932.15
 20
-282.2396000000008
 30
0.0
 10
2934.4085
 20
-280.8117999999995
 30
0.0
 10
2939.379800000001
 20
-277.6718000000001
 30
0.0
 10
2944.0762
 20
-274.7083999999995
 30
0.0
 10
2949.2772
 20
-272.2307999999994
 30
0.0
 10
2951.3239
 20
-271.2584000000006
 30
0.0
 10
2954.891100000001
 20
-270.2927
 30
0.0
 10
2958.668100000001
 20
-269.2721000000001
 30
0.0
 10
2960.443600000001
 20
-268.7893000000004
 30
0.0
 10
2962.2333
 20
-268.3063999999995
 30
0.0
 10
2963.959800000001
 20
-267.7960999999996
 30
0.0
 10
2958.8835
 20
-272.2837
 30
0.0
 10
2953.465200000001
 20
-276.4896000000008
 30
0.0
 10
2948.162200000001
 20
-280.6106
 30
0.0
 10
2939.1871
 20
-287.5786000000007
 30
0.0
 10
2929.9067
 20
-294.7885000000006
 30
0.0
 10
2922.1544
 20
-303.3611000000001
 30
0.0
 10
2904.9668
 20
-322.3601999999992
 30
0.0
 10
2900.6144
 20
-346.4534000000003
 30
0.0
 10
2908.843
 20
-377.0120000000006
 30
0.0
 10
2910.190399999999
 20
-382.0712999999996
 30
0.0
 10
2913.8871
 20
-385.1187000000009
 30
0.0
 10
2918.750700000001
 20
-385.1630999999998
 30
0.0
 10
2921.903
 20
-385.1630999999998
 30
0.0
 10
2925.964400000001
 20
-383.8798999999999
 30
0.0
 10
2927.8723
 20
-377.9976000000006
 30
0.0
 10
2927.8723
 20
-377.9976000000006
 30
0.0
 10
2928.3107
 20
-376.5018
 30
0.0
 10
2928.3107
 20
-376.5018
 30
0.0
 10
2932.4458
 20
-361.9419999999991
 30
0.0
 10
2941.918900000001
 20
-350.5223999999998
 30
0.0
 10
2956.462600000001
 20
-342.5612000000001
 30
0.0
 10
2962.3619
 20
-339.3323
 30
0.0
 10
2968.7686
 20
-336.9964
 30
0.0
 10
2974.9655
 20
-334.7361000000001
 30
0.0
 10
2980.8535
 20
-332.5892000000003
 30
0.0
 10
2986.9012
 20
-330.3817999999992
 30
0.0
 10
2992.6549
 20
-327.3778000000002
 30
0.0
 10
2986.710300000001
 20
-346.0234999999993
 30
0.0
 10
2983.9624
 20
-365.8343000000004
 30
0.0
 10
2984.4793
 20
-386.3528000000006
 30
0.0
 10
2984.6475
 20
-393.0118999999995
 30
0.0
 10
2984.965
 20
-399.4856999999993
 30
0.0
 10
2985.2749
 20
-405.8263000000006
 30
0.0
 10
2986.7122
 20
-435.1630999999998
 30
0.0
 10
2987.9548
 20
-460.5027000000009
 30
0.0
 10
2974.374
 20
-488.4079000000002
 30
0.0
 10
2958.6425
 20
-520.7042999999994
 30
0.0
 10
2960.3491
 20
-557.9143999999997
 30
0.0
 10
2978.9457
 20
-587.9467000000004
 30
0.0
 10
2979.934999999999
 20
-589.5388999999996
 30
0.0
 10
2982.5591
 20
-593.7685000000001
 30
0.0
 10
2987.6552
 20
-593.7685000000001
 30
0.0
 10
2988.4839
 20
-593.7685000000001
 30
0.0
 10
2989.3117
 20
-593.6522000000004
 30
0.0
 10
2990.1943
 20
-593.4112999999998
 30
0.0
 10
2998.5703
 20
-591.1065999999992
 30
0.0
 10
2999.0362
 20
-577.7572999999993
 30
0.0
 10
2999.412200000001
 20
-567.0341000000008
 30
0.0
 10
2999.549300000001
 20
-563.1247999999996
 30
0.0
 10
2999.679700000001
 20
-559.4375999999993
 30
0.0
 10
3000.1984
 20
-557.3955999999998
 30
0.0
 10
3005.4334
 20
-536.7721999999994
 30
0.0
 10
3021.5221
 20
-521.7134999999998
 30
0.0
 10
3036.5675
 20
-509.7031999999999
 30
0.0
 10
3050.4337
 20
-498.6378999999997
 30
0.0
 10
3067.6137
 20
-483.3222000000005
 30
0.0
 10
3077.4383
 20
-462.9274999999998
 30
0.0
 10
3086.0676
 20
-445.0226000000002
 30
0.0
 10
3089.8918
 20
-425.3639999999996
 30
0.0
 10
3092.4951
 20
-408.4920000000002
 30
0.0
 10
3093.040300000001
 20
-404.9616999999998
 30
0.0
 10
3093.4438
 20
-401.3868999999995
 30
0.0
 10
3093.8501
 20
-397.8083999999999
 30
0.0
 10
3094.4247
 20
-392.7142000000003
 30
0.0
 10
3095.02
 20
-387.4470999999994
 30
0.0
 10
3096.0396
 20
-382.4323000000004
 30
0.0
 10
3096.510200000001
 20
-380.1208999999999
 30
0.0
 10
3098.045700000001
 20
-376.6993000000002
 30
0.0
 10
3099.6719
 20
-373.0800999999992
 30
0.0
 10
3100.222900000001
 20
-371.8536000000004
 30
0.0
 10
3100.7804
 20
-370.6147999999994
 30
0.0
 10
3101.3067
 20
-369.3891999999996
 30
0.0
 10
3101.4437
 20
-376.1558999999997
 30
0.0
 10
3101.0213
 20
-383.0483999999997
 30
0.0
 10
3100.6093
 20
-389.7991000000002
 30
0.0
 10
3099.636
 20
-405.6977999999999
 30
0.0
 10
3098.6306
 20
-422.1350999999995
 30
0.0
 10
3104.763300000001
 20
-437.1011999999992
 30
0.0
 10
3112.328600000001
 20
-455.5691999999999
 30
0.0
 10
3134.8598
 20
-478.2394000000004
 30
0.0
 10
3155.0911
 20
-481.2433999999994
 30
0.0
 10
3160.231599999999
 20
-482.0107000000007
 30
0.0
 10
3162.904
 20
-480.2057999999997
 30
0.0
 10
3164.2382
 20
-478.5530999999992
 30
0.0
 10
3166.5363
 20
-475.7145
 30
0.0
 10
3166.7659
 20
-470.9614000000001
 30
0.0
 10
3164.851500000001
 20
-465.8474000000006
 30
0.0
 10
3163.562600000001
 20
-462.3973999999998
 30
0.0
 10
3162.0308
 20
-459.3934000000008
 30
0.0
 10
3160.5491
 20
-456.4858000000004
 30
0.0
 10
3157.756799999999
 20
-451.0097999999998
 30
0.0
 10
3155.1185
 20
-445.8343000000004
 30
0.0
 10
3154.7991
 20
-438.7019
 30
0.0
 10
3154.2322
 20
-426.1077000000005
 30
0.0
 10
3157.891
 20
-413.3292000000001
 30
0.0
 10
3161.4298
 20
-400.973
 30
0.0
 10
3162.8066
 20
-396.1641999999993
 30
0.0
 10
3164.2165
 20
-391.2466999999997
 30
0.0
 10
3165.374
 20
-386.3368000000009
 30
0.0
 10
3167.973600000001
 20
-390.2895000000008
 30
0.0
 10
3172.204099999999
 20
-394.6399999999994
 30
0.0
 10
3176.7276
 20
-399.0954000000002
 30
0.0
 10
3178.1752
 20
-400.5185000000001
 30
0.0
 10
3179.4254
 20
-401.7487999999994
 30
0.0
 10
3180.255999999999
 20
-402.6702000000005
 30
0.0
 10
3192.5658
 20
-416.3529999999992
 30
0.0
 10
3207.515800000001
 20
-427.2463000000007
 30
0.0
 10
3221.970600000001
 20
-437.7852999999996
 30
0.0
 10
3229.6067
 20
-443.3500999999997
 30
0.0
 10
3237.499900000001
 20
-449.1039000000001
 30
0.0
 10
3244.8742
 20
-455.1751000000004
 30
0.0
 10
3259.3177
 20
-467.0776999999998
 30
0.0
 10
3268.9354
 20
-478.1826999999994
 30
0.0
 10
3276.0584
 20
-491.1746999999996
 30
0.0
 10
3298.395
 20
-531.9311999999991
 30
0.0
 10
3325.4233
 20
-552.9117999999999
 30
0.0
 10
3361.2642
 20
-557.2103999999999
 30
0.0
 10
3361.833000000001
 20
-557.2746999999999
 30
0.0
 10
3362.599399999999
 20
-557.3549999999996
 30
0.0
 10
3363.4678
 20
-557.3549999999996
 30
0.0
 10
3368.847400000001
 20
-557.3549999999996
 30
0.0
 10
3371.298500000001
 20
-554.3518999999997
 30
0.0
 10
3372.4041
 20
-551.8307999999997
 30
0.0
 10
3375.654699999999
 20
-544.4403999999995
 30
0.0
 10
3365.4503
 20
-534.9105999999992
 30
0.0
 10
3356.4449
 20
-526.5063000000009
 30
0.0
 10
3352.8277
 20
-523.1290000000008
 30
0.0
 10
3349.412700000001
 20
-519.9408000000003
 30
0.0
 10
3348.0774
 20
-517.8940000000002
 30
0.0
 10
3336.9413
 20
-500.7970999999998
 30
0.0
 10
3335.773300000001
 20
-479.2891999999993
 30
0.0
 10
3335.865900000001
 20
-464.6000000000004
 30
0.0
 10
3335.984
 20
-445.9591
 30
0.0
 10
3334.780200000001
 20
-421.8978999999999
 30
0.0
 10
3324.3338
 20
-401.1337000000003
 30
0.0
 10
3314.290000000001
 20
-381.1697999999997
 30
0.0
 10
3298.439399999999
 20
-364.5954999999994
 30
0.0
 10
3283.111499999999
 20
-348.5643999999993
 30
0.0
 10
3283.111499999999
 20
-348.5643999999993
 30
0.0
 10
3282.3328
 20
-347.7518
 30
0.0
 10
3282.3328
 20
-347.7518
 30
0.0
 10
3275.1824
 20
-340.2734999999993
 30
0.0
 10
3268.8352
 20
-331.8852000000006
 30
0.0
 10
3263.4084
 20
-322.7456999999995
 30
0.0
 10
3265.330400000001
 20
-324.0090999999993
 30
0.0
 10
3267.259099999999
 20
-325.3395999999993
 30
0.0
 10
3269.1782
 20
-326.7353000000003
 30
0.0
 10
3274.671200000001
 20
-330.7314000000006
 30
0.0
 10
3279.932700000001
 20
-335.4079999999994
 30
0.0
 10
3285.021199999999
 20
-339.9351999999999
 30
0.0
 10
3293.057000000001
 20
-347.0771000000004
 30
0.0
 10
3301.365900000001
 20
-354.4675000000007
 30
0.0
 10
3311.058199999999
 20
-359.6618999999992
 30
0.0
 10
3332.052100000001
 20
-370.9123999999993
 30
0.0
 10
3357.7395
 20
-369.1311999999998
 30
0.0
 10
3385.3537
 20
-354.5033999999996
 30
0.0
 10
3389.8951
 20
-352.0787
 30
0.0
 10
3392.0949
 20
-347.7196999999996
 30
0.0
 10
3391.0933
 20
-343.1357000000007
 30
0.0
 10
3390.379800000001
 20
-339.8549000000003
 30
0.0
 10
3388.043
 20
-335.8984
 30
0.0
 10
3380.976699999999
 20
-335.6650000000009
 30
0.0
 10
3380.976699999999
 20
-335.6650000000009
 30
0.0
 10
3380.479600000001
 20
-335.6489000000001
 30
0.0
 10
3380.479600000001
 20
-335.6489000000001
 30
0.0
 10
3366.9395
 20
-335.1623
 30
0.0
 10
3353.788700000001
 20
-329.1316000000006
 30
0.0
 10
3343.4491
 20
-318.6645000000008
 30
0.0
 10
3338.0695
 20
-313.2206000000006
 30
0.0
 10
3333.9061
 20
-306.5985000000001
 30
0.0
 10
3329.8806
 20
-300.1926999999996
 30
0.0
 10
3326.7803
 20
-295.2590999999993
 30
0.0
 10
3323.604299999999
 20
-290.2046000000009
 30
0.0
 10
3319.7073
 20
-285.4439000000002
 30
0.0
 10
3323.196100000001
 20
-285.6651000000002
 30
0.0
 10
3327.072200000001
 20
-285.2710000000006
 30
0.0
 10
3330.51
 20
-284.9166999999998
 30
0.0
 10
3332.3318
 20
-284.7324000000008
 30
0.0
 10
3333.9722
 20
-284.5632999999998
 30
0.0
 10
3335.240400000001
 20
-284.5349000000006
 30
0.0
 10
3359.866600000001
 20
-283.9925000000003
 30
0.0
 10
3383.7917
 20
-277.1160999999993
 30
0.0
 10
3406.9277
 20
-270.4655999999995
 30
0.0
 10
3406.9277
 20
-270.4655999999995
 30
0.0
 10
3409.481
 20
-269.7304000000004
 30
0.0
 10
3409.481
 20
-269.7304000000004
 30
0.0
 10
3411.682700000001
 20
-269.0992000000006
 30
0.0
 10
3413.8958
 20
-268.4310999999998
 30
0.0
 10
3416.1173
 20
-267.7602000000006
 30
0.0
 10
3425.277600000001
 20
-264.9971999999998
 30
0.0
 10
3434.748800000001
 20
-262.1424999999999
 30
0.0
 10
3444.165199999999
 20
-261.6841999999997
 30
0.0
 10
3454.734400000001
 20
-261.1938000000009
 30
0.0
 10
3465.3575
 20
-263.1394
 30
0.0
 10
3475.6291
 20
-265.0293000000001
 30
0.0
 10
3483.102699999999
 20
-266.4089999999997
 30
0.0
 10
3490.830400000001
 20
-267.8358000000007
 30
0.0
 10
3498.593199999999
 20
-268.3384999999998
 30
0.0
 10
3526.7554
 20
-270.1924999999992
 30
0.0
 10
3554.7655
 20
-259.5534000000007
 30
0.0
 10
3575.3842
 20
-239.2067999999999
 30
0.0
 10
3579.4172
 20
-235.2229000000007
 30
0.0
 10
3580.370699999999
 20
-231.1332000000002
 30
0.0
 10
3578.2171
 20
-227.0519999999997
 30
0.0
  0
SPLINE
  5
42
330
1F
100
AcDbEntity
  8
Layer 1
370
     0
100
AcDbSpline
210
0.0
220
0.0
230
1.0
 70
    11
 71
     3
 72
    32
 73
    28
 74
     0
 42
0.0000000001
 43
0.0000000001
 12
1.0
 22
0.0
 32
0.0
 13
1.0
 23
0.0
 33
0.0
 40
0.0
 40
0.0
 40
0.0
 40
0.0
 40
1.0
 40
1.0
 40
1.0
 40
2.0
 40
2.0
 40
2.0
 40
3.0
 40
3.0
 40
3.0
 40
4.0
 40
4.0
 40
4.0
 40
5.0
 40
5.0
 40
5.0
 40
6.0
 40
6.0
 40
6.0
 40
7.0
 40
7.0
 40
7.0
 40
8.0
 40
8.0
 40
8.0
 40
9.0
 40
9.0
 40
9.0
 40
9.0
 10
3322.122600000001
 20
-310.5388999999996
 30
0.0
 10
3334.1149
 20
-326.7626999999993
 30
0.0
 10
3347.653200000001
 20
-342.8107
 30
0.0
 10
3369.6657
 20
-347.4588999999996
 30
0.0
 10
3345.433499999999
 20
-357.6964000000007
 30
0.0
 10
3324.420700000001
 20
-356.0993999999992
 30
0.0
 10
3307.128199999999
 20
-342.7019999999993
 30
0.0
 10
3301.497299999999
 20
-338.3392000000003
 30
0.0
 10
3296.141299999999
 20
-333.6069000000007
 30
0.0
 10
3290.9602
 20
-329.0305000000008
 30
0.0
 10
3280.963599999999
 20
-320.1972000000005
 30
0.0
 10
3270.6505
 20
-311.0851000000002
 30
0.0
 10
3258.1054
 20
-304.4544000000005
 30
0.0
 10
3266.8367
 20
-296.2522000000008
 30
0.0
 10
3275.8269
 20
-285.8219000000008
 30
0.0
 10
3283.204100000001
 20
-275.3274000000001
 30
0.0
 10
3286.6541
 20
-276.6144000000004
 30
0.0
 10
3296.7981
 20
-281.8125
 30
0.0
 10
3298.2363
 20
-282.7461000000003
 30
0.0
 10
3302.8382
 20
-285.7293000000009
 30
0.0
 10
3307.132
 20
-290.0316999999995
 30
0.0
 10
3311.748100000001
 20
-296.2806
 30
0.0
 10
3313.471600000001
 20
-298.6165000000001
 30
0.0
 10
3315.1782
 20
-300.9770000000008
 30
0.0
 10
3316.882900000001
 20
-303.3374000000003
 30
0.0
 10
3318.622499999999
 20
-305.7451999999994
 30
0.0
 10
3320.3631
 20
-308.1586000000007
 30
0.0
 10
3322.122600000001
 20
-310.5388999999996
 30
0.0
  0
SPLINE
  5
43
330
1F
100
AcDbEntity
  8
Layer 1
370
     0
100
AcDbSpline
210
0.0
220
0.0
230
1.0
 70
    11
 71
     3
 72
    47
 73
    43
 74
     0
 42
0.0000000001
 43
0.0000000001
 12
1.0
 22
0.0
 32
0.0
 13
1.0
 23
0.0
 33
0.0
 40
0.0
 40
0.0
 40
0.0
 40
0.0
 40
1.0
 40
1.0
 40
1.0
 40
2.0
 40
2.0
 40
2.0
 40
3.0
 40
3.0
 40
3.0
 40
4.0
 40
4.0
 40
4.0
 40
5.0
 40
5.0
 40
5.0
 40
6.0
 40
6.0
 40
6.0
 40
7.0
 40
7.0
 40
7.0
 40
8.0
 40
8.0
 40
8.0
 40
9.0
 40
9.0
 40
9.0
 40
10.0
 40
10.0
 40
10.0
 40
11.0
 40
11.0
 40
11.0
 40
12.0
 40
12.0
 40
12.0
 40
13.0
 40
13.0
 40
13.0
 40
14.0
 40
14.0
 40
14.0
 40
14.0
 10
3329.2551
 20
-508.1668000000009
 30
0.0
 10
3334.0828
 20
-522.4251000000004
 30
0.0
 10
3342.0818
 20
-530.8246999999992
 30
0.0
 10
3351.3441
 20
-540.5481999999993
 30
0.0
 10
3352.0982
 20
-541.3400000000001
 30
0.0
 10
3352.8598
 20
-542.1357000000007
 30
0.0
 10
3353.626200000001
 20
-542.9483
 30
0.0
 10
3347.029500000001
 20
-541.8909000000003
 30
0.0
 10
3339.8904
 20
-538.7707000000009
 30
0.0
 10
3334.062
 20
-535.9595000000008
 30
0.0
 10
3315.972
 20
-527.2944000000007
 30
0.0
 10
3301.531300000001
 20
-512.4614999999994
 30
0.0
 10
3292.299200000001
 20
-493.0684000000001
 30
0.0
 10
3281.6572
 20
-470.7119000000002
 30
0.0
 10
3266.591
 20
-453.1047999999992
 30
0.0
 10
3244.8884
 20
-437.6643000000004
 30
0.0
 10
3240.9092
 20
-434.8333000000002
 30
0.0
 10
3236.635200000001
 20
-431.9218999999994
 30
0.0
 10
3232.208200000001
 20
-428.9104000000007
 30
0.0
 10
3206.687099999999
 20
-411.5365999999995
 30
0.0
 10
3174.928400000001
 20
-389.9115000000002
 30
0.0
 10
3167.624
 20
-360.1126000000004
 30
0.0
 10
3166.853800000001
 20
-356.9725999999991
 30
0.0
 10
3166.411599999999
 20
-353.5782999999992
 30
0.0
 10
3166.044
 20
-349.5822000000007
 30
0.0
 10
3194.602200000001
 20
-345.0180999999993
 30
0.0
 10
3221.756100000001
 20
-333.3291000000008
 30
0.0
 10
3244.849700000001
 20
-315.6689999999999
 30
0.0
 10
3252.0936
 20
-331.1255000000001
 30
0.0
 10
3261.509099999999
 20
-344.9537999999993
 30
0.0
 10
3272.859700000001
 20
-356.8071999999993
 30
0.0
 10
3272.859700000001
 20
-356.8071999999993
 30
0.0
 10
3274.83
 20
-358.8662000000004
 30
0.0
 10
3274.83
 20
-358.8662000000004
 30
0.0
 10
3288.6281
 20
-373.2852000000003
 30
0.0
 10
3302.893899999999
 20
-388.1944999999996
 30
0.0
 10
3311.826499999999
 20
-405.8461000000007
 30
0.0
 10
3319.4342
 20
-420.8763999999992
 30
0.0
 10
3323.351000000001
 20
-437.6880000000001
 30
0.0
 10
3323.1554
 20
-454.4673999999995
 30
0.0
 10
3322.9504
 20
-471.9148999999998
 30
0.0
 10
3323.2518
 20
-490.4310999999998
 30
0.0
 10
3329.2551
 20
-508.1668000000009
 30
0.0
  0
SPLINE
  5
44
330
1F
100
AcDbEntity
  8
Layer 1
370
     0
100
AcDbSpline
210
0.0
220
0.0
230
1.0
 70
    11
 71
     3
 72
    50
 73
    46
 74
     0
 42
0.0000000001
 43
0.0000000001
 12
1.0
 22
0.0
 32
0.0
 13
1.0
 23
0.0
 33
0.0
 40
0.0
 40
0.0
 40
0.0
 40
0.0
 40
1.0
 40
1.0
 40
1.0
 40
2.0
 40
2.0
 40
2.0
 40
3.0
 40
3.0
 40
3.0
 40
4.0
 40
4.0
 40
4.0
 40
5.0
 40
5.0
 40
5.0
 40
6.0
 40
6.0
 40
6.0
 40
7.0
 40
7.0
 40
7.0
 40
8.0
 40
8.0
 40
8.0
 40
9.0
 40
9.0
 40
9.0
 40
10.0
 40
10.0
 40
10.0
 40
11.0
 40
11.0
 40
11.0
 40
12.0
 40
12.0
 40
12.0
 40
13.0
 40
13.0
 40
13.0
 40
14.0
 40
14.0
 40
14.0
 40
15.0
 40
15.0
 40
15.0
 40
15.0
 10
3114.9054
 20
-371.7572
 30
0.0
 10
3114.5378
 20
-363.9802999999993
 30
0.0
 10
3113.6949
 20
-356.7996999999996
 30
0.0
 10
3112.3399
 20
-349.9110000000001
 30
0.0
 10
3120.7839
 20
-351.1697000000004
 30
0.0
 10
3129.441500000001
 20
-351.8094000000001
 30
0.0
 10
3138.1209
 20
-351.8094000000001
 30
0.0
 10
3142.1114
 20
-351.8094000000001
 30
0.0
 10
3147.2717
 20
-351.5277999999998
 30
0.0
 10
3150.1793
 20
-351.3425999999999
 30
0.0
 10
3150.6518
 20
-353.1285000000007
 30
0.0
 10
3151.094000000001
 20
-354.7641999999996
 30
0.0
 10
3151.523999999999
 20
-356.3611999999994
 30
0.0
 10
3152.183499999999
 20
-358.8019999999997
 30
0.0
 10
3152.812900000001
 20
-361.1378999999997
 30
0.0
 10
3153.484700000001
 20
-363.7271000000001
 30
0.0
 10
3154.6281
 20
-368.1587999999992
 30
0.0
 10
3154.8719
 20
-372.8269
 30
0.0
 10
3154.226500000001
 20
-378.0061000000005
 30
0.0
 10
3153.2513
 20
-385.8387999999995
 30
0.0
 10
3150.374
 20
-393.6713999999993
 30
0.0
 10
3147.5939
 20
-401.2422999999999
 30
0.0
 10
3146.809600000001
 20
-403.3816999999999
 30
0.0
 10
3146.0319
 20
-405.5012000000006
 30
0.0
 10
3145.3043
 20
-407.5962
 30
0.0
 10
3138.3675
 20
-427.5514999999996
 30
0.0
 10
3139.1943
 20
-446.1481000000003
 30
0.0
 10
3147.740400000001
 20
-462.9917000000005
 30
0.0
 10
3147.4494
 20
-462.8670000000002
 30
0.0
 10
3147.1498
 20
-462.7384999999995
 30
0.0
 10
3146.8455
 20
-462.6062000000002
 30
0.0
 10
3145.3081
 20
-461.9465999999993
 30
0.0
 10
3143.8567
 20
-461.3191999999999
 30
0.0
 10
3143.0847
 20
-460.8410000000003
 30
0.0
 10
3139.1943
 20
-458.4125000000004
 30
0.0
 10
3135.655500000001
 20
-455.8186000000005
 30
0.0
 10
3132.5693
 20
-453.1330999999991
 30
0.0
 10
3122.3686
 20
-444.2420999999995
 30
0.0
 10
3115.695400000001
 20
-432.5133999999998
 30
0.0
 10
3113.7819
 20
-420.1005999999998
 30
0.0
 10
3112.3985
 20
-411.1378000000004
 30
0.0
 10
3113.2168
 20
-401.8300999999992
 30
0.0
 10
3114.0068
 20
-392.8304000000007
 30
0.0
 10
3114.6125
 20
-385.9388999999992
 30
0.0
 10
3115.2371
 20
-378.8102999999992
 30
0.0
 10
3114.9054
 20
-371.7572
 30
0.0
  0
SPLINE
  5
45
330
1F
100
AcDbEntity
  8
Layer 1
370
     0
100
AcDbSpline
210
0.0
220
0.0
230
1.0
 70
    11
 71
     3
 72
    38
 73
    34
 74
     0
 42
0.0000000001
 43
0.0000000001
 12
1.0
 22
0.0
 32
0.0
 13
1.0
 23
0.0
 33
0.0
 40
0.0
 40
0.0
 40
0.0
 40
0.0
 40
1.0
 40
1.0
 40
1.0
 40
2.0
 40
2.0
 40
2.0
 40
3.0
 40
3.0
 40
3.0
 40
4.0
 40
4.0
 40
4.0
 40
5.0
 40
5.0
 40
5.0
 40
6.0
 40
6.0
 40
6.0
 40
7.0
 40
7.0
 40
7.0
 40
8.0
 40
8.0
 40
8.0
 40
9.0
 40
9.0
 40
9.0
 40
10.0
 40
10.0
 40
10.0
 40
11.0
 40
11.0
 40
11.0
 40
11.0
 10
3042.444100000001
 20
-13.89860000000044
 30
0.0
 10
3035.492200000001
 20
-2.88904999999977
 30
0.0
 10
3033.9339
 20
9.149559999999838
 30
0.0
 10
3032.284100000001
 20
21.89220000000023
 30
0.0
 10
3031.564
 20
27.44470000000001
 30
0.0
 10
3030.820400000001
 20
33.1871000000001
 30
0.0
 10
3029.593800000001
 20
38.83600000000024
 30
0.0
 10
3025.9851
 20
55.42259999999987
 30
0.0
 10
3016.9457
 20
69.78480000000036
 30
0.0
 10
3004.0973
 20
79.38739999999962
 30
0.0
 10
3018.775100000001
 20
78.66359999999986
 30
0.0
 10
3031.0131
 20
75.03210000000036
 30
0.0
 10
3040.5429
 20
68.5667999999996
 30
0.0
 10
3053.3535
 20
59.8733000000002
 30
0.0
 10
3060.0003
 20
45.24549999999999
 30
0.0
 10
3066.2228
 20
29.7484000000004
 30
0.0
 10
3071.1497
 20
17.47639999999956
 30
0.0
 10
3075.8026
 20
6.443229999999858
 30
0.0
 10
3082.8311
 20
-4.300799999999981
 30
0.0
 10
3082.8311
 20
-4.300799999999981
 30
0.0
 10
3083.1628
 20
-4.846980000000258
 30
0.0
 10
3083.1628
 20
-4.846980000000258
 30
0.0
 10
3083.8318
 20
-5.973359999999957
 30
0.0
 10
3084.473400000001
 20
-7.018469999999979
 30
0.0
 10
3085.1084
 20
-7.907659999999851
 30
0.0
 10
3074.0828
 20
-11.4975000000004
 30
0.0
 10
3060.8243
 20
-17.38069999999971
 30
0.0
 10
3049.3403
 20
-23.8101999999999
 30
0.0
 10
3047.197200000001
 20
-21.61030000000028
 30
0.0
 10
3045.8157
 20
-19.36319999999978
 30
0.0
 10
3043.9967
 20
-16.39990000000034
 30
0.0
 10
3043.9967
 20
-16.39990000000034
 30
0.0
 10
3042.444100000001
 20
-13.89860000000044
 30
0.0
 10
3042.444100000001
 20
-13.89860000000044
 30
0.0
  0
SPLINE
  5
46
330
1F
100
AcDbEntity
  8
Layer 1
370
     0
100
AcDbSpline
210
0.0
220
0.0
230
1.0
 70
    11
 71
     3
 72
    47
 73
    43
 74
     0
 42
0.0000000001
 43
0.0000000001
 12
1.0
 22
0.0
 32
0.0
 13
1.0
 23
0.0
 33
0.0
 40
0.0
 40
0.0
 40
0.0
 40
0.0
 40
1.0
 40
1.0
 40
1.0
 40
2.0
 40
2.0
 40
2.0
 40
3.0
 40
3.0
 40
3.0
 40
4.0
 40
4.0
 40
4.0
 40
5.0
 40
5.0
 40
5.0
 40
6.0
 40
6.0
 40
6.0
 40
7.0
 40
7.0
 40
7.0
 40
8.0
 40
8.0
 40
8.0
 40
9.0
 40
9.0
 40
9.0
 40
10.0
 40
10.0
 40
10.0
 40
11.0
 40
11.0
 40
11.0
 40
12.0
 40
12.0
 40
12.0
 40
13.0
 40
13.0
 40
13.0
 40
14.0
 40
14.0
 40
14.0
 40
14.0
 10
2981.2135
 20
-96.0020999999997
 30
0.0
 10
2968.008900000001
 20
-85.2496000000001
 30
0.0
 10
2953.5361
 20
-76.87830000000031
 30
0.0
 10
2938.159900000001
 20
-71.10379999999986
 30
0.0
 10
2911.6901
 20
-61.17240000000038
 30
0.0
 10
2888.3849
 20
-51.61049999999977
 30
0.0
 10
2871.253000000001
 20
-35.11269999999968
 30
0.0
 10
2859.565000000001
 20
-23.85829999999987
 30
0.0
 10
2851.8769
 20
-9.306179999999586
 30
0.0
 10
2844.4439
 20
4.766899999999623
 30
0.0
 10
2833.5487
 20
25.39410000000044
 30
0.0
 10
2822.285
 20
46.72159999999985
 30
0.0
 10
2798.2899
 20
57.86719999999968
 30
0.0
 10
2796.6495
 20
58.62309999999979
 30
0.0
 10
2794.2201
 20
59.23829999999998
 30
0.0
 10
2790.185100000001
 20
60.26360000000022
 30
0.0
 10
2789.1183
 20
60.52909999999974
 30
0.0
 10
2787.4013
 20
60.95529999999962
 30
0.0
 10
2785.501
 20
61.46550000000025
 30
0.0
 10
2792.1072
 20
62.98220000000038
 30
0.0
 10
2798.7681
 20
63.7494999999999
 30
0.0
 10
2805.3846
 20
63.7494999999999
 30
0.0
 10
2826.6752
 20
63.7494999999999
 30
0.0
 10
2845.7971
 20
53.30310000000009
 30
0.0
 10
2861.692
 20
43.08629999999994
 30
0.0
 10
2878.8164
 20
32.08060000000023
 30
0.0
 10
2898.664000000001
 20
23.78200000000015
 30
0.0
 10
2924.153
 20
16.96240000000034
 30
0.0
 10
2931.8571
 20
14.90329999999994
 30
0.0
 10
2940.162200000001
 20
13.10599999999977
 30
0.0
 10
2948.954
 20
11.20390000000043
 30
0.0
 10
2978.4618
 20
4.818870000000061
 30
0.0
 10
3011.9054
 20
-2.418469999999616
 30
0.0
 10
3031.8938
 20
-22.44279999999981
 30
0.0
 10
3033.8716
 20
-24.42529999999988
 30
0.0
 10
3035.1085
 20
-26.70920000000024
 30
0.0
 10
3036.5401
 20
-29.35890000000018
 30
0.0
 10
3036.8831
 20
-29.99390000000039
 30
0.0
 10
3037.2375
 20
-30.64969999999994
 30
0.0
 10
3037.611699999999
 20
-31.3167999999996
 30
0.0
 10
3013.8038
 20
-47.91569999999956
 30
0.0
 10
2994.37
 20
-70.20790000000034
 30
0.0
 10
2981.2135
 20
-96.0020999999997
 30
0.0
  0
SPLINE
  5
47
330
1F
100
AcDbEntity
  8
Layer 1
370
     0
100
AcDbSpline
210
0.0
220
0.0
230
1.0
 70
    11
 71
     3
 72
    35
 73
    31
 74
     0
 42
0.0000000001
 43
0.0000000001
 12
1.0
 22
0.0
 32
0.0
 13
1.0
 23
0.0
 33
0.0
 40
0.0
 40
0.0
 40
0.0
 40
0.0
 40
1.0
 40
1.0
 40
1.0
 40
2.0
 40
2.0
 40
2.0
 40
3.0
 40
3.0
 40
3.0
 40
4.0
 40
4.0
 40
4.0
 40
5.0
 40
5.0
 40
5.0
 40
6.0
 40
6.0
 40
6.0
 40
7.0
 40
7.0
 40
7.0
 40
8.0
 40
8.0
 40
8.0
 40
9.0
 40
9.0
 40
9.0
 40
10.0
 40
10.0
 40
10.0
 40
10.0
 10
2985.9146
 20
-264.1448999999993
 30
0.0
 10
2991.8952
 20
-274.2615000000005
 30
0.0
 10
3000.5944
 20
-285.9948999999997
 30
0.0
 10
3009.3323
 20
-295.7050999999992
 30
0.0
 10
3006.4152
 20
-299.1154000000006
 30
0.0
 10
3003.5842
 20
-302.3642
 30
0.0
 10
3000.394
 20
-305.5041999999994
 30
0.0
 10
2997.3702
 20
-308.4835999999996
 30
0.0
 10
2993.8333
 20
-311.1332999999995
 30
0.0
 10
2989.5857
 20
-313.6023999999998
 30
0.0
 10
2983.1119
 20
-317.3660999999993
 30
0.0
 10
2975.8396
 20
-320.1923999999999
 30
0.0
 10
2968.8073
 20
-322.9233000000004
 30
0.0
 10
2965.9725
 20
-324.0251000000007
 30
0.0
 10
2963.1518
 20
-325.1221999999998
 30
0.0
 10
2960.385
 20
-326.2721999999994
 30
0.0
 10
2940.3871
 20
-334.6000000000004
 30
0.0
 10
2926.5616
 20
-347.0203999999994
 30
0.0
 10
2919.1911
 20
-363.2612000000008
 30
0.0
 10
2917.2303
 20
-352.1268999999993
 30
0.0
 10
2916.3742
 20
-336.0674999999992
 30
0.0
 10
2923.089
 20
-321.8858
 30
0.0
 10
2929.4985
 20
-308.3588999999993
 30
0.0
 10
2942.367700000001
 20
-299.5010000000002
 30
0.0
 10
2954.8146
 20
-290.9369000000006
 30
0.0
 10
2957.960300000001
 20
-288.7692000000006
 30
0.0
 10
2961.0815
 20
-286.6222999999991
 30
0.0
 10
2964.072200000001
 20
-284.4187000000002
 30
0.0
 10
2972.421700000001
 20
-278.2746000000006
 30
0.0
 10
2979.5929
 20
-271.6203000000005
 30
0.0
 10
2985.9146
 20
-264.1448999999993
 30
0.0
  0
SPLINE
  5
48
330
1F
100
AcDbEntity
  8
Layer 1
370
     0
100
AcDbSpline
210
0.0
220
0.0
230
1.0
 70
    11
 71
     3
 72
    53
 73
    49
 74
     0
 42
0.0000000001
 43
0.0000000001
 12
1.0
 22
0.0
 32
0.0
 13
1.0
 23
0.0
 33
0.0
 40
0.0
 40
0.0
 40
0.0
 40
0.0
 40
1.0
 40
1.0
 40
1.0
 40
2.0
 40
2.0
 40
2.0
 40
3.0
 40
3.0
 40
3.0
 40
4.0
 40
4.0
 40
4.0
 40
5.0
 40
5.0
 40
5.0
 40
6.0
 40
6.0
 40
6.0
 40
7.0
 40
7.0
 40
7.0
 40
8.0
 40
8.0
 40
8.0
 40
9.0
 40
9.0
 40
9.0
 40
10.0
 40
10.0
 40
10.0
 40
11.0
 40
11.0
 40
11.0
 40
12.0
 40
12.0
 40
12.0
 40
13.0
 40
13.0
 40
13.0
 40
14.0
 40
14.0
 40
14.0
 40
15.0
 40
15.0
 40
15.0
 40
16.0
 40
16.0
 40
16.0
 40
16.0
 10
3000.4337
 20
-434.4156000000003
 30
0.0
 10
3000.3411
 20
-426.3855000000003
 30
0.0
 10
2999.5833
 20
-418.2996000000003
 30
0.0
 10
2998.85
 20
-410.4783000000007
 30
0.0
 10
2998.0855
 20
-402.3158000000003
 30
0.0
 10
2997.2937
 20
-393.8726999999999
 30
0.0
 10
2997.2757
 20
-385.5694999999996
 30
0.0
 10
2997.2171
 20
-358.5280000000002
 30
0.0
 10
2998.966200000001
 20
-331.0488999999998
 30
0.0
 10
3012.0481
 20
-313.2404999999999
 30
0.0
 10
3013.9701
 20
-310.6268
 30
0.0
 10
3016.1435
 20
-308.2983999999997
 30
0.0
 10
3019.3383
 20
-305.4645
 30
0.0
 10
3041.1259
 20
-325.3433000000005
 30
0.0
 10
3067.2801
 20
-339.4892
 30
0.0
 10
3095.228800000001
 20
-346.5100999999995
 30
0.0
 10
3087.6985
 20
-361.7775999999994
 30
0.0
 10
3082.7688
 20
-377.7358999999997
 30
0.0
 10
3080.567
 20
-393.9889000000003
 30
0.0
 10
3080.567
 20
-393.9889000000003
 30
0.0
 10
3080.2316
 20
-396.4940000000006
 30
0.0
 10
3080.2316
 20
-396.4940000000006
 30
0.0
 10
3077.2418
 20
-418.7134999999998
 30
0.0
 10
3074.1499
 20
-441.6888999999992
 30
0.0
 10
3063.6686
 20
-461.1463000000003
 30
0.0
 10
3055.6053
 20
-476.1245999999992
 30
0.0
 10
3041.8696
 20
-488.0781999999999
 30
0.0
 10
3028.5865
 20
-499.6424000000006
 30
0.0
 10
3007.7599
 20
-517.7692999999999
 30
0.0
 10
2986.2236
 20
-536.5151000000005
 30
0.0
 10
2985.4355
 20
-567.4838999999993
 30
0.0
 10
2985.4355
 20
-567.4838999999993
 30
0.0
 10
2985.4214
 20
-568.1075000000001
 30
0.0
 10
2985.4214
 20
-568.1075000000001
 30
0.0
 10
2985.391100000001
 20
-569.2651000000005
 30
0.0
 10
2985.3552
 20
-570.7373000000007
 30
0.0
 10
2985.2947
 20
-572.3050000000003
 30
0.0
 10
2982.3616
 20
-566.2412000000004
 30
0.0
 10
2980.1382
 20
-559.9526000000005
 30
0.0
 10
2978.665
 20
-553.5393000000004
 30
0.0
 10
2973.3591
 20
-530.4467000000004
 30
0.0
 10
2981.3061
 20
-508.0429999999997
 30
0.0
 10
2988.9923
 20
-486.3734999999997
 30
0.0
 10
2990.263300000001
 20
-482.7911999999997
 30
0.0
 10
2991.5314
 20
-479.2165000000005
 30
0.0
 10
2992.7362
 20
-475.6540000000005
 30
0.0
 10
2996.6445
 20
-464.0935000000009
 30
0.0
 10
3000.6152
 20
-450.1574999999993
 30
0.0
 10
3000.4337
 20
-434.4156000000003
 30
0.0
  0
SPLINE
  5
49
330
1F
100
AcDbEntity
  8
Layer 1
370
     0
100
AcDbSpline
210
0.0
220
0.0
230
1.0
 70
    11
 71
     3
 72
    29
 73
    25
 74
     0
 42
0.0000000001
 43
0.0000000001
 12
1.0
 22
0.0
 32
0.0
 13
1.0
 23
0.0
 33
0.0
 40
0.0
 40
0.0
 40
0.0
 40
0.0
 40
1.0
 40
1.0
 40
1.0
 40
2.0
 40
2.0
 40
2.0
 40
3.0
 40
3.0
 40
3.0
 40
4.0
 40
4.0
 40
4.0
 40
5.0
 40
5.0
 40
5.0
 40
6.0
 40
6.0
 40
6.0
 40
7.0
 40
7.0
 40
7.0
 40
8.0
 40
8.0
 40
8.0
 40
8.0
 10
3022.7628
 20
-290.2263000000003
 30
0.0
 10
2994.5118
 20
-261.3582000000006
 30
0.0
 10
2977.0227
 20
-222.2232999999997
 30
0.0
 10
2975.9218
 20
-180.3696999999993
 30
0.0
 10
2975.163
 20
-151.4969000000001
 30
0.0
 10
2982.0082
 20
-122.5391
 30
0.0
 10
2995.8488
 20
-97.17100000000028
 30
0.0
 10
3015.934600000001
 20
-60.35879999999997
 30
0.0
 10
3050.9052
 20
-31.8137999999999
 30
0.0
 10
3091.3498
 20
-19.6882999999998
 30
0.0
 10
3157.4771
 20
0.0752430000002278
 30
0.0
 10
3229.8231
 20
-25.36930000000029
 30
0.0
 10
3269.8652
 20
-81.32899999999972
 30
0.0
 10
3280.5299
 20
-96.23359999999957
 30
0.0
 10
3288.6659
 20
-112.9195
 30
0.0
 10
3293.805400000001
 20
-130.5133999999998
 30
0.0
 10
3313.2997
 20
-197.2435999999998
 30
0.0
 10
3286.513300000001
 20
-270.9428000000007
 30
0.0
 10
3229.3837
 20
-310.3111000000008
 30
0.0
 10
3167.0324
 20
-353.2788
 30
0.0
 10
3080.3043
 20
-345.9233000000004
 30
0.0
 10
3025.8858
 20
-293.3294999999998
 30
0.0
 10
3024.8303
 20
-292.3089999999993
 30
0.0
 10
3023.79
 20
-291.2743000000009
 30
0.0
 10
3022.7628
 20
-290.2263000000003
 30
0.0
  0
SPLINE
  5
4A
330
1F
100
AcDbEntity
  8
Layer 1
370
     0
100
AcDbSpline
210
0.0
220
0.0
230
1.0
 70
    11
 71
     3
 72
    47
 73
    43
 74
     0
 42
0.0000000001
 43
0.0000000001
 12
1.0
 22
0.0
 32
0.0
 13
1.0
 23
0.0
 33
0.0
 40
0.0
 40
0.0
 40
0.0
 40
0.0
 40
1.0
 40
1.0
 40
1.0
 40
2.0
 40
2.0
 40
2.0
 40
3.0
 40
3.0
 40
3.0
 40
4.0
 40
4.0
 40
4.0
 40
5.0
 40
5.0
 40
5.0
 40
6.0
 40
6.0
 40
6.0
 40
7.0
 40
7.0
 40
7.0
 40
8.0
 40
8.0
 40
8.0
 40
9.0
 40
9.0
 40
9.0
 40
10.0
 40
10.0
 40
10.0
 40
11.0
 40
11.0
 40
11.0
 40
12.0
 40
12.0
 40
12.0
 40
13.0
 40
13.0
 40
13.0
 40
14.0
 40
14.0
 40
14.0
 40
14.0
 10
3103.2372
 20
248.2142937295794
 30
0.0
 10
3108.7056
 20
243.9354938376709
 30
0.0
 10
3113.609
 20
239.1040000000003
 30
0.0
 10
3117.8669
 20
233.7943940938567
 30
0.0
 10
3130.3921
 20
218.1696944885698
 30
0.0
 10
3136.240400000001
 20
199.5287949594785
 30
0.0
 10
3136.2688
 20
175.1330955757658
 30
0.0
 10
3136.304700000001
 20
144.0962963598213
 30
0.0
 10
3150.5573
 20
117.0150970439499
 30
0.0
 10
3164.341200000001
 20
90.82219999999961
 30
0.0
 10
3174.960500000001
 20
70.64950000000044
 30
0.0
 10
3185.9398
 20
49.78880000000026
 30
0.0
 10
3190.2762
 20
27.31990000000042
 30
0.0
 10
3192.0432
 20
18.15679999999975
 30
0.0
 10
3192.606400000001
 20
10.0586000000003
 30
0.0
 10
3191.9771
 20
2.313820000000305
 30
0.0
 10
3191.7012
 20
-1.087989999999991
 30
0.0
 10
3191.4177
 20
-4.58994999999959
 30
0.0
 10
3190.654200000001
 20
-7.754579999999805
 30
0.0
 10
3173.476999999999
 20
-2.639589999999771
 30
0.0
 10
3154.4514
 20
0.2755719999995563
 30
0.0
 10
3138.1209
 20
0.2755719999995563
 30
0.0
 10
3126.138
 20
0.2755719999995563
 30
0.0
 10
3114.2222
 20
-0.9386839999997392
 30
0.0
 10
3102.659900000001
 20
-3.331290000000081
 30
0.0
 10
3102.8252
 20
13.67299999999977
 30
0.0
 10
3100.343800000001
 20
30.19070000000011
 30
0.0
 10
3095.275100000001
 20
45.8125
 30
0.0
 10
3088.884400000001
 20
65.46270000000004
 30
0.0
 10
3081.6405
 20
87.73499999999967
 30
0.0
 10
3081.2871
 20
110.1113972183521
 30
0.0
 10
3081.234200000001
 20
113.5244971321299
 30
0.0
 10
3081.4317
 20
117.0113970440434
 30
0.0
 10
3081.871999999999
 20
120.4773969564849
 30
0.0
 10
3083.76
 20
135.294196582181
 30
0.0
 10
3089.7472
 20
148.3258962529726
 30
0.0
 10
3096.0878
 20
162.1258959043553
 30
0.0
 10
3100.8361
 20
172.463595643203
 30
0.0
 10
3105.748
 20
183.1556953730978
 30
0.0
 10
3108.739600000001
 20
194.6187950835156
 30
0.0
 10
3114.031300000001
 20
214.9048945710456
 30
0.0
 10
3109.2981
 20
230.6098941743039
 30
0.0
 10
3103.2372
 20
248.2142937295794
 30
0.0
  0
SPLINE
  5
4B
330
1F
100
AcDbEntity
  8
Layer 1
370
     0
100
AcDbSpline
210
0.0
220
0.0
230
1.0
 70
    11
 71
     3
 72
    35
 73
    31
 74
     0
 42
0.0000000001
 43
0.0000000001
 12
1.0
 22
0.0
 32
0.0
 13
1.0
 23
0.0
 33
0.0
 40
0.0
 40
0.0
 40
0.0
 40
0.0
 40
1.0
 40
1.0
 40
1.0
 40
2.0
 40
2.0
 40
2.0
 40
3.0
 40
3.0
 40
3.0
 40
4.0
 40
4.0
 40
4.0
 40
5.0
 40
5.0
 40
5.0
 40
6.0
 40
6.0
 40
6.0
 40
7.0
 40
7.0
 40
7.0
 40
8.0
 40
8.0
 40
8.0
 40
9.0
 40
9.0
 40
9.0
 40
10.0
 40
10.0
 40
10.0
 40
10.0
 10
3353.638500000001
 20
-151.4382999999998
 30
0.0
 10
3349.591200000001
 20
-152.0573000000004
 30
0.0
 10
3345.544
 20
-152.6809000000003
 30
0.0
 10
3341.5195
 20
-153.4170000000004
 30
0.0
 10
3332.018100000001
 20
-155.1661000000004
 30
0.0
 10
3322.645200000001
 20
-158.0973999999997
 30
0.0
 10
3313.6162
 20
-162.1417000000001
 30
0.0
 10
3312.6533
 20
-150.0388999999996
 30
0.0
 10
3310.1199
 20
-136.5167000000001
 30
0.0
 10
3306.534800000001
 20
-124.3940000000002
 30
0.0
 10
3308.6042
 20
-123.0909000000001
 30
0.0
 10
3314.315500000001
 20
-120.4733999999999
 30
0.0
 10
3316.5975
 20
-119.5445
 30
0.0
 10
3321.2637
 20
-117.6423000000004
 30
0.0
 10
3326.236000000001
 20
-116.4318999999996
 30
0.0
 10
3331.7989
 20
-115.8536000000004
 30
0.0
 10
3341.545
 20
-114.8396000000002
 30
0.0
 10
3351.750400000001
 20
-115.9697999999999
 30
0.0
 10
3361.610000000001
 20
-117.0631000000003
 30
0.0
 10
3361.610000000001
 20
-117.0631000000003
 30
0.0
 10
3362.522800000001
 20
-117.1642000000002
 30
0.0
 10
3362.522800000001
 20
-117.1642000000002
 30
0.0
 10
3383.865400000001
 20
-119.5199000000002
 30
0.0
 10
3402.060300000001
 20
-114.3851000000004
 30
0.0
 10
3416.6947
 20
-101.8882000000003
 30
0.0
 10
3409.569800000001
 20
-127.1476000000002
 30
0.0
 10
3395.2369
 20
-142.5483000000004
 30
0.0
 10
3374.0162
 20
-147.7151999999996
 30
0.0
 10
3367.3279
 20
-149.3396000000002
 30
0.0
 10
3360.3693
 20
-150.4093000000003
 30
0.0
 10
3353.638500000001
 20
-151.4382999999998
 30
0.0
  0
SPLINE
  5
4C
330
1F
100
AcDbEntity
  8
Layer 1
370
     0
100
AcDbSpline
210
0.0
220
0.0
230
1.0
 70
    11
 71
     3
 72
    44
 73
    40
 74
     0
 42
0.0000000001
 43
0.0000000001
 12
1.0
 22
0.0
 32
0.0
 13
1.0
 23
0.0
 33
0.0
 40
0.0
 40
0.0
 40
0.0
 40
0.0
 40
1.0
 40
1.0
 40
1.0
 40
2.0
 40
2.0
 40
2.0
 40
3.0
 40
3.0
 40
3.0
 40
4.0
 40
4.0
 40
4.0
 40
5.0
 40
5.0
 40
5.0
 40
6.0
 40
6.0
 40
6.0
 40
7.0
 40
7.0
 40
7.0
 40
8.0
 40
8.0
 40
8.0
 40
9.0
 40
9.0
 40
9.0
 40
10.0
 40
10.0
 40
10.0
 40
11.0
 40
11.0
 40
11.0
 40
12.0
 40
12.0
 40
12.0
 40
13.0
 40
13.0
 40
13.0
 40
13.0
 10
3311.414500000001
 20
-106.5685000000003
 30
0.0
 10
3308.0996
 20
-108.0964999999997
 30
0.0
 10
3304.826300000001
 20
-109.3391000000001
 30
0.0
 10
3301.6456
 20
-110.5173999999997
 30
0.0
 10
3290.757
 20
-83.6857
 30
0.0
 10
3272.7898
 20
-59.00560000000041
 30
0.0
 10
3250.747100000001
 20
-40.59709999999995
 30
0.0
 10
3264.1927
 20
-30.09879999999976
 30
0.0
 10
3275.5859
 20
-17.83899999999994
 30
0.0
 10
3284.634700000001
 20
-4.123150000000351
 30
0.0
 10
3297.3452
 20
15.13299999999981
 30
0.0
 10
3313.1636
 20
39.09770000000026
 30
0.0
 10
3334.955
 20
52.44700000000012
 30
0.0
 10
3348.3042
 20
60.6292999999996
 30
0.0
 10
3363.125700000001
 20
64.85509999999977
 30
0.0
 10
3375.863600000001
 20
67.90719999999965
 30
0.0
 10
3410.7415
 20
76.27099999999973
 30
0.0
 10
3433.256799999999
 20
90.92709999999988
 30
0.0
 10
3447.8467
 20
115.0250970942216
 30
0.0
 10
3447.8467
 20
115.0127970945323
 30
0.0
 10
3447.8467
 20
114.996697094939
 30
0.0
 10
3447.8467
 20
114.9843970952497
 30
0.0
 10
3447.8467
 20
94.29299999999967
 30
0.0
 10
3439.964
 20
73.6288999999997
 30
0.0
 10
3425.6471
 20
56.80130000000008
 30
0.0
 10
3419.925500000001
 20
50.07420000000002
 30
0.0
 10
3413.316500000001
 20
44.31670000000031
 30
0.0
 10
3406.925800000001
 20
38.75190000000021
 30
0.0
 10
3396.5494
 20
29.71630000000005
 30
0.0
 10
3385.8195
 20
20.37169999999969
 30
0.0
 10
3378.740900000001
 20
6.724830000000111
 30
0.0
 10
3372.7878
 20
-4.75438000000031
 30
0.0
 10
3367.683199999999
 20
-17.09060000000045
 30
0.0
 10
3362.7477
 20
-29.02530000000024
 30
0.0
 10
3358.752500000001
 20
-38.67979999999989
 30
0.0
 10
3354.6212
 20
-48.66319999999996
 30
0.0
 10
3350.0656
 20
-58.13249999999971
 30
0.0
 10
3340.230600000001
 20
-78.57070000000022
 30
0.0
 10
3328.741
 20
-98.58749999999964
 30
0.0
 10
3311.414500000001
 20
-106.5685000000003
 30
0.0
  0
SPLINE
  5
4D
330
1F
100
AcDbEntity
  8
Layer 1
370
     0
100
AcDbSpline
210
0.0
220
0.0
230
1.0
 70
    11
 71
     3
 72
    38
 73
    34
 74
     0
 42
0.0000000001
 43
0.0000000001
 12
1.0
 22
0.0
 32
0.0
 13
1.0
 23
0.0
 33
0.0
 40
0.0
 40
0.0
 40
0.0
 40
0.0
 40
1.0
 40
1.0
 40
1.0
 40
2.0
 40
2.0
 40
2.0
 40
3.0
 40
3.0
 40
3.0
 40
4.0
 40
4.0
 40
4.0
 40
5.0
 40
5.0
 40
5.0
 40
6.0
 40
6.0
 40
6.0
 40
7.0
 40
7.0
 40
7.0
 40
8.0
 40
8.0
 40
8.0
 40
9.0
 40
9.0
 40
9.0
 40
10.0
 40
10.0
 40
10.0
 40
11.0
 40
11.0
 40
11.0
 40
11.0
 10
3236.3763
 20
-29.78880000000026
 30
0.0
 10
3226.0178
 20
-22.83690000000024
 30
0.0
 10
3213.2592
 20
-16.06540000000041
 30
0.0
 10
3201.516299999999
 20
-11.32930000000033
 30
0.0
 10
3201.454
 20
-10.66970000000038
 30
0.0
 10
3201.5872
 20
-8.261069999999563
 30
0.0
 10
3204.7858
 20
-1.361069999999927
 30
0.0
 10
3206.6086
 20
2.570850000000064
 30
0.0
 10
3208.651600000001
 20
6.302440000000388
 30
0.0
 10
3209.6325
 20
8.095940000000155
 30
0.0
 10
3209.6325
 20
8.095940000000155
 30
0.0
 10
3210.0671
 20
8.896310000000085
 30
0.0
 10
3210.0671
 20
8.896310000000085
 30
0.0
 10
3214.879800000001
 20
17.89500000000044
 30
0.0
 10
3221.818500000001
 20
25.55100000000039
 30
0.0
 10
3228.529500000001
 20
32.94899999999961
 30
0.0
 10
3238.6801
 20
44.14750000000004
 30
0.0
 10
3249.1785
 20
55.72779999999966
 30
0.0
 10
3252.680400000001
 20
72.2502000000004
 30
0.0
 10
3253.969300000001
 20
78.32530000000042
 30
0.0
 10
3254.6932
 20
83.17100000000028
 30
0.0
 10
3254.8557
 20
86.94220000000041
 30
0.0
 10
3263.5615
 20
74.45759999999973
 30
0.0
 10
3268.119000000001
 20
62.06940000000031
 30
0.0
 10
3268.427
 20
50.02229999999963
 30
0.0
 10
3268.8305
 20
34.24449999999979
 30
0.0
 10
3260.435600000001
 20
19.6922999999997
 30
0.0
 10
3252.3166
 20
5.615459999999985
 30
0.0
 10
3249.7577
 20
1.179879999999685
 30
0.0
 10
3247.110000000001
 20
-3.41161000000011
 30
0.0
 10
3244.8478
 20
-7.883090000000266
 30
0.0
 10
3244.7552
 20
-8.064519999999902
 30
0.0
 10
3237.9223
 20
-21.74359999999979
 30
0.0
 10
3236.3763
 20
-29.78880000000026
 30
0.0
  0
SPLINE
  5
4E
330
1F
100
AcDbEntity
  8
Layer 1
370
     0
100
AcDbSpline
210
0.0
220
0.0
230
1.0
 70
    11
 71
     3
 72
    50
 73
    46
 74
     0
 42
0.0000000001
 43
0.0000000001
 12
1.0
 22
0.0
 32
0.0
 13
1.0
 23
0.0
 33
0.0
 40
0.0
 40
0.0
 40
0.0
 40
0.0
 40
1.0
 40
1.0
 40
1.0
 40
2.0
 40
2.0
 40
2.0
 40
3.0
 40
3.0
 40
3.0
 40
4.0
 40
4.0
 40
4.0
 40
5.0
 40
5.0
 40
5.0
 40
6.0
 40
6.0
 40
6.0
 40
7.0
 40
7.0
 40
7.0
 40
8.0
 40
8.0
 40
8.0
 40
9.0
 40
9.0
 40
9.0
 40
10.0
 40
10.0
 40
10.0
 40
11.0
 40
11.0
 40
11.0
 40
12.0
 40
12.0
 40
12.0
 40
13.0
 40
13.0
 40
13.0
 40
14.0
 40
14.0
 40
14.0
 40
15.0
 40
15.0
 40
15.0
 40
15.0
 10
3364.9372
 20
-182.7613999999994
 30
0.0
 10
3388.372800000001
 20
-181.6794000000009
 30
0.0
 10
3412.6116
 20
-180.5701000000008
 30
0.0
 10
3435.727800000001
 20
-186.1386000000002
 30
0.0
 10
3451.965700000001
 20
-190.0517
 30
0.0
 10
3465.178900000001
 20
-200.4290999999994
 30
0.0
 10
3477.957399999999
 20
-210.4652999999998
 30
0.0
 10
3482.066999999999
 20
-213.6941999999999
 30
0.0
 10
3486.3145
 20
-217.0280000000002
 30
0.0
 10
3490.6216
 20
-220.1236000000008
 30
0.0
 10
3501.771000000001
 20
-228.1376999999993
 30
0.0
 10
3513.496800000001
 20
-233.4776000000002
 30
0.0
 10
3525.4712
 20
-235.9987000000001
 30
0.0
 10
3534.421700000001
 20
-237.8886000000002
 30
0.0
 10
3542.8166
 20
-237.1563000000006
 30
0.0
 10
3550.9252
 20
-236.4693000000007
 30
0.0
 10
3553.947100000001
 20
-236.2075000000004
 30
0.0
 10
3557.0371
 20
-235.9419999999991
 30
0.0
 10
3560.163
 20
-235.8135000000002
 30
0.0
 10
3555.022499999999
 20
-240.8112999999994
 30
0.0
 10
3546.7438
 20
-244.8122000000003
 30
0.0
 10
3541.9085
 20
-247.1481000000003
 30
0.0
 10
3523.8346
 20
-255.8822999999993
 30
0.0
 10
3503.231
 20
-257.9328000000005
 30
0.0
 10
3482.324000000001
 20
-253.0436000000009
 30
0.0
 10
3458.5038
 20
-247.4902000000002
 30
0.0
 10
3437.339899999999
 20
-247.9164000000001
 30
0.0
 10
3413.683199999999
 20
-254.4184999999998
 30
0.0
 10
3408.074000000001
 20
-255.9626000000007
 30
0.0
 10
3402.3495
 20
-257.6710000000003
 30
0.0
 10
3396.5437
 20
-259.4087999999992
 30
0.0
 10
3364.6291
 20
-268.9423999999999
 30
0.0
 10
3331.6278
 20
-278.8009999999995
 30
0.0
 10
3300.6402
 20
-267.1119999999992
 30
0.0
 10
3297.4784
 20
-265.9184999999998
 30
0.0
 10
3294.43
 20
-264.3423999999995
 30
0.0
 10
3291.3703
 20
-262.3155000000006
 30
0.0
 10
3305.655000000001
 20
-237.1080999999995
 30
0.0
 10
3313.484899999999
 20
-208.5962
 30
0.0
 10
3314.098099999999
 20
-179.5732000000007
 30
0.0
 10
3331.483200000001
 20
-183.6100000000006
 30
0.0
 10
3348.111499999999
 20
-183.5334000000003
 30
0.0
 10
3363.557500000001
 20
-182.8219000000008
 30
0.0
 10
3363.557500000001
 20
-182.8219000000008
 30
0.0
 10
3364.9372
 20
-182.7613999999994
 30
0.0
 10
3364.9372
 20
-182.7613999999994
 30
0.0
  0
SPLINE
  5
4F
330
1F
100
AcDbEntity
  8
Layer 1
370
     0
100
AcDbSpline
210
0.0
220
0.0
230
1.0
 70
    11
 71
     3
 72
    44
 73
    40
 74
     0
 42
0.0000000001
 43
0.0000000001
 12
1.0
 22
0.0
 32
0.0
 13
1.0
 23
0.0
 33
0.0
 40
0.0
 40
0.0
 40
0.0
 40
0.0
 40
1.0
 40
1.0
 40
1.0
 40
2.0
 40
2.0
 40
2.0
 40
3.0
 40
3.0
 40
3.0
 40
4.0
 40
4.0
 40
4.0
 40
5.0
 40
5.0
 40
5.0
 40
6.0
 40
6.0
 40
6.0
 40
7.0
 40
7.0
 40
7.0
 40
8.0
 40
8.0
 40
8.0
 40
9.0
 40
9.0
 40
9.0
 40
10.0
 40
10.0
 40
10.0
 40
11.0
 40
11.0
 40
11.0
 40
12.0
 40
12.0
 40
12.0
 40
13.0
 40
13.0
 40
13.0
 40
13.0
 10
2962.5707
 20
-162.6369000000004
 30
0.0
 10
2962.2636
 20
-167.1196999999993
 30
0.0
 10
2962.0699
 20
-172.0977000000003
 30
0.0
 10
2962.0699
 20
-175.7564999999995
 30
0.0
 10
2962.0699
 20
-201.1934999999994
 30
0.0
 10
2967.3975
 20
-225.7168000000001
 30
0.0
 10
2977.9062
 20
-248.6883999999991
 30
0.0
 10
2961.2459
 20
-252.3235999999997
 30
0.0
 10
2945.6845
 20
-258.4231999999993
 30
0.0
 10
2931.6256
 20
-266.8389000000006
 30
0.0
 10
2931.6256
 20
-266.8389000000006
 30
0.0
 10
2930.9641
 20
-267.2330000000002
 30
0.0
 10
2930.9641
 20
-267.2330000000002
 30
0.0
 10
2906.2718
 20
-281.9902000000002
 30
0.0
 10
2878.257900000001
 20
-298.7374
 30
0.0
 10
2848.543100000001
 20
-297.1489999999994
 30
0.0
 10
2838.195
 20
-296.6018999999997
 30
0.0
 10
2827.2667
 20
-294.5069000000003
 30
0.0
 10
2816.6975
 20
-292.4809999999998
 30
0.0
 10
2789.441500000001
 20
-287.2412000000004
 30
0.0
 10
2761.2547
 20
-281.8371000000006
 30
0.0
 10
2736.6464
 20
-300.6311000000005
 30
0.0
 10
2735.5285
 20
-301.491
 30
0.0
 10
2734.198
 20
-302.5048999999999
 30
0.0
 10
2732.805200000001
 20
-303.5339999999997
 30
0.0
 10
2735.724099999999
 20
-297.4418999999998
 30
0.0
 10
2739.2488
 20
-291.7808000000005
 30
0.0
 10
2743.33
 20
-286.6421000000009
 30
0.0
 10
2755.9413
 20
-270.7669999999998
 30
0.0
 10
2774.224099999999
 20
-260.1203000000005
 30
0.0
 10
2797.6729
 20
-254.9977999999992
 30
0.0
 10
2826.760200000001
 20
-248.6401999999998
 30
0.0
 10
2849.2547
 20
-231.1530000000002
 30
0.0
 10
2863.0046
 20
-217.6072000000004
 30
0.0
 10
2883.594
 20
-197.3088000000007
 30
0.0
 10
2908.450800000001
 20
-175.3624999999993
 30
0.0
 10
2936.700000000001
 20
-166.4526000000005
 30
0.0
 10
2938.812900000001
 20
-165.7891999999993
 30
0.0
 10
2957.0843
 20
-162.7087000000001
 30
0.0
 10
2962.5707
 20
-162.6369000000004
 30
0.0
  0
SPLINE
  5
50
330
1F
100
AcDbEntity
  8
Layer 1
370
     0
100
AcDbSpline
210
0.0
220
0.0
230
1.0
 70
    11
 71
     3
 72
    35
 73
    31
 74
     0
 42
0.0000000001
 43
0.0000000001
 12
1.0
 22
0.0
 32
0.0
 13
1.0
 23
0.0
 33
0.0
 40
0.0
 40
0.0
 40
0.0
 40
0.0
 40
1.0
 40
1.0
 40
1.0
 40
2.0
 40
2.0
 40
2.0
 40
3.0
 40
3.0
 40
3.0
 40
4.0
 40
4.0
 40
4.0
 40
5.0
 40
5.0
 40
5.0
 40
6.0
 40
6.0
 40
6.0
 40
7.0
 40
7.0
 40
7.0
 40
8.0
 40
8.0
 40
8.0
 40
9.0
 40
9.0
 40
9.0
 40
10.0
 40
10.0
 40
10.0
 40
10.0
 10
2963.961600000001
 20
-149.9349000000002
 30
0.0
 10
2960.817800000001
 20
-150.9072999999999
 30
0.0
 10
2946.9054
 20
-148.8085000000001
 30
0.0
 10
2944.3361
 20
-148.1008000000002
 30
0.0
 10
2934.6834
 20
-145.4313000000002
 30
0.0
 10
2925.9276
 20
-140.2718999999997
 30
0.0
 10
2917.4618
 20
-135.2864
 30
0.0
 10
2917.4618
 20
-135.2864
 30
0.0
 10
2914.3397
 20
-133.4531999999999
 30
0.0
 10
2914.3397
 20
-133.4531999999999
 30
0.0
 10
2910.025100000001
 20
-130.9358000000002
 30
0.0
 10
2905.3693
 20
-128.3060999999998
 30
0.0
 10
2900.553900000001
 20
-126.1023999999998
 30
0.0
 10
2890.871999999999
 20
-121.6791999999996
 30
0.0
 10
2880.9557
 20
-119.4594999999999
 30
0.0
 10
2871.142400000001
 20
-119.4594999999999
 30
0.0
 10
2865.7251
 20
-119.4594999999999
 30
0.0
 10
2860.337
 20
-120.1397999999999
 30
0.0
 10
2855.0387
 20
-121.4948999999997
 30
0.0
 10
2872.4115
 20
-101.7879999999996
 30
0.0
 10
2892.009700000001
 20
-94.11219999999958
 30
0.0
 10
2913.392900000001
 20
-98.69620000000032
 30
0.0
 10
2920.3694
 20
-100.1711999999998
 30
0.0
 10
2927.303400000001
 20
-102.1216000000004
 30
0.0
 10
2934.0078
 20
-104.0077000000001
 30
0.0
 10
2946.8373
 20
-107.6145999999999
 30
0.0
 10
2960.0741
 20
-111.3338999999996
 30
0.0
 10
2974.094300000001
 20
-111.8725000000004
 30
0.0
 10
2969.654
 20
-123.3319000000001
 30
0.0
 10
2965.999
 20
-137.0514999999996
 30
0.0
 10
2963.961600000001
 20
-149.9349000000002
 30
0.0
  0
HATCH
  5
51
330
1F
100
AcDbEntity
  8
Layer 1
 62
     7
420
 16777215
100
AcDbHatch
 10
0.0
 20
0.0
 30
0.0
210
0.0
220
0.0
230
1.0
  2
SOLID
 70
     1
 71
     0
 91
       16
 92
        1
 93
        1
 72
     4
 94
        3
 73
     0
 74
     1
 95
      536
 96
      532
 40
0.0
 40
0.0
 40
0.0
 40
0.0
 40
1.0
 40
1.0
 40
1.0
 40
2.0
 40
2.0
 40
2.0
 40
3.0
 40
3.0
 40
3.0
 40
4.0
 40
4.0
 40
4.0
 40
5.0
 40
5.0
 40
5.0
 40
6.0
 40
6.0
 40
6.0
 40
7.0
 40
7.0
 40
7.0
 40
8.0
 40
8.0
 40
8.0
 40
9.0
 40
9.0
 40
9.0
 40
10.0
 40
10.0
 40
10.0
 40
11.0
 40
11.0
 40
11.0
 40
12.0
 40
12.0
 40
12.0
 40
13.0
 40
13.0
 40
13.0
 40
14.0
 40
14.0
 40
14.0
 40
15.0
 40
15.0
 40
15.0
 40
16.0
 40
16.0
 40
16.0
 40
17.0
 40
17.0
 40
17.0
 40
18.0
 40
18.0
 40
18.0
 40
19.0
 40
19.0
 40
19.0
 40
20.0
 40
20.0
 40
20.0
 40
21.0
 40
21.0
 40
21.0
 40
22.0
 40
22.0
 40
22.0
 40
23.0
 40
23.0
 40
23.0
 40
24.0
 40
24.0
 40
24.0
 40
25.0
 40
25.0
 40
25.0
 40
26.0
 40
26.0
 40
26.0
 40
27.0
 40
27.0
 40
27.0
 40
28.0
 40
28.0
 40
28.0
 40
29.0
 40
29.0
 40
29.0
 40
30.0
 40
30.0
 40
30.0
 40
31.0
 40
31.0
 40
31.0
 40
32.0
 40
32.0
 40
32.0
 40
33.0
 40
33.0
 40
33.0
 40
34.0
 40
34.0
 40
34.0
 40
35.0
 40
35.0
 40
35.0
 40
36.0
 40
36.0
 40
36.0
 40
37.0
 40
37.0
 40
37.0
 40
38.0
 40
38.0
 40
38.0
 40
39.0
 40
39.0
 40
39.0
 40
40.0
 40
40.0
 40
40.0
 40
41.0
 40
41.0
 40
41.0
 40
42.0
 40
42.0
 40
42.0
 40
43.0
 40
43.0
 40
43.0
 40
44.0
 40
44.0
 40
44.0
 40
45.0
 40
45.0
 40
45.0
 40
46.0
 40
46.0
 40
46.0
 40
47.0
 40
47.0
 40
47.0
 40
48.0
 40
48.0
 40
48.0
 40
49.0
 40
49.0
 40
49.0
 40
50.0
 40
50.0
 40
50.0
 40
51.0
 40
51.0
 40
51.0
 40
52.0
 40
52.0
 40
52.0
 40
53.0
 40
53.0
 40
53.0
 40
54.0
 40
54.0
 40
54.0
 40
55.0
 40
55.0
 40
55.0
 40
56.0
 40
56.0
 40
56.0
 40
57.0
 40
57.0
 40
57.0
 40
58.0
 40
58.0
 40
58.0
 40
59.0
 40
59.0
 40
59.0
 40
60.0
 40
60.0
 40
60.0
 40
61.0
 40
61.0
 40
61.0
 40
62.0
 40
62.0
 40
62.0
 40
63.0
 40
63.0
 40
63.0
 40
64.0
 40
64.0
 40
64.0
 40
65.0
 40
65.0
 40
65.0
 40
66.0
 40
66.0
 40
66.0
 40
67.0
 40
67.0
 40
67.0
 40
68.0
 40
68.0
 40
68.0
 40
69.0
 40
69.0
 40
69.0
 40
70.0
 40
70.0
 40
70.0
 40
71.0
 40
71.0
 40
71.0
 40
72.0
 40
72.0
 40
72.0
 40
73.0
 40
73.0
 40
73.0
 40
74.0
 40
74.0
 40
74.0
 40
75.0
 40
75.0
 40
75.0
 40
76.0
 40
76.0
 40
76.0
 40
77.0
 40
77.0
 40
77.0
 40
78.0
 40
78.0
 40
78.0
 40
79.0
 40
79.0
 40
79.0
 40
80.0
 40
80.0
 40
80.0
 40
81.0
 40
81.0
 40
81.0
 40
82.0
 40
82.0
 40
82.0
 40
83.0
 40
83.0
 40
83.0
 40
84.0
 40
84.0
 40
84.0
 40
85.0
 40
85.0
 40
85.0
 40
86.0
 40
86.0
 40
86.0
 40
87.0
 40
87.0
 40
87.0
 40
88.0
 40
88.0
 40
88.0
 40
89.0
 40
89.0
 40
89.0
 40
90.0
 40
90.0
 40
90.0
 40
91.0
 40
91.0
 40
91.0
 40
92.0
 40
92.0
 40
92.0
 40
93.0
 40
93.0
 40
93.0
 40
94.0
 40
94.0
 40
94.0
 40
95.0
 40
95.0
 40
95.0
 40
96.0
 40
96.0
 40
96.0
 40
97.0
 40
97.0
 40
97.0
 40
98.0
 40
98.0
 40
98.0
 40
99.0
 40
99.0
 40
99.0
 40
100.0
 40
100.0
 40
100.0
 40
101.0
 40
101.0
 40
101.0
 40
102.0
 40
102.0
 40
102.0
 40
103.0
 40
103.0
 40
103.0
 40
104.0
 40
104.0
 40
104.0
 40
105.0
 40
105.0
 40
105.0
 40
106.0
 40
106.0
 40
106.0
 40
107.0
 40
107.0
 40
107.0
 40
108.0
 40
108.0
 40
108.0
 40
109.0
 40
109.0
 40
109.0
 40
110.0
 40
110.0
 40
110.0
 40
111.0
 40
111.0
 40
111.0
 40
112.0
 40
112.0
 40
112.0
 40
113.0
 40
113.0
 40
113.0
 40
114.0
 40
114.0
 40
114.0
 40
115.0
 40
115.0
 40
115.0
 40
116.0
 40
116.0
 40
116.0
 40
117.0
 40
117.0
 40
117.0
 40
118.0
 40
118.0
 40
118.0
 40
119.0
 40
119.0
 40
119.0
 40
120.0
 40
120.0
 40
120.0
 40
121.0
 40
121.0
 40
121.0
 40
122.0
 40
122.0
 40
122.0
 40
123.0
 40
123.0
 40
123.0
 40
124.0
 40
124.0
 40
124.0
 40
125.0
 40
125.0
 40
125.0
 40
126.0
 40
126.0
 40
126.0
 40
127.0
 40
127.0
 40
127.0
 40
128.0
 40
128.0
 40
128.0
 40
129.0
 40
129.0
 40
129.0
 40
130.0
 40
130.0
 40
130.0
 40
131.0
 40
131.0
 40
131.0
 40
132.0
 40
132.0
 40
132.0
 40
133.0
 40
133.0
 40
133.0
 40
134.0
 40
134.0
 40
134.0
 40
135.0
 40
135.0
 40
135.0
 40
136.0
 40
136.0
 40
136.0
 40
137.0
 40
137.0
 40
137.0
 40
138.0
 40
138.0
 40
138.0
 40
139.0
 40
139.0
 40
139.0
 40
140.0
 40
140.0
 40
140.0
 40
141.0
 40
141.0
 40
141.0
 40
142.0
 40
142.0
 40
142.0
 40
143.0
 40
143.0
 40
143.0
 40
144.0
 40
144.0
 40
144.0
 40
145.0
 40
145.0
 40
145.0
 40
146.0
 40
146.0
 40
146.0
 40
147.0
 40
147.0
 40
147.0
 40
148.0
 40
148.0
 40
148.0
 40
149.0
 40
149.0
 40
149.0
 40
150.0
 40
150.0
 40
150.0
 40
151.0
 40
151.0
 40
151.0
 40
152.0
 40
152.0
 40
152.0
 40
153.0
 40
153.0
 40
153.0
 40
154.0
 40
154.0
 40
154.0
 40
155.0
 40
155.0
 40
155.0
 40
156.0
 40
156.0
 40
156.0
 40
157.0
 40
157.0
 40
157.0
 40
158.0
 40
158.0
 40
158.0
 40
159.0
 40
159.0
 40
159.0
 40
160.0
 40
160.0
 40
160.0
 40
161.0
 40
161.0
 40
161.0
 40
162.0
 40
162.0
 40
162.0
 40
163.0
 40
163.0
 40
163.0
 40
164.0
 40
164.0
 40
164.0
 40
165.0
 40
165.0
 40
165.0
 40
166.0
 40
166.0
 40
166.0
 40
167.0
 40
167.0
 40
167.0
 40
168.0
 40
168.0
 40
168.0
 40
169.0
 40
169.0
 40
169.0
 40
170.0
 40
170.0
 40
170.0
 40
171.0
 40
171.0
 40
171.0
 40
172.0
 40
172.0
 40
172.0
 40
173.0
 40
173.0
 40
173.0
 40
174.0
 40
174.0
 40
174.0
 40
175.0
 40
175.0
 40
175.0
 40
176.0
 40
176.0
 40
176.0
 40
177.0
 40
177.0
 40
177.0
 40
177.0
 10
3578.2171
 20
-227.0519999999997
 10
3574.1926
 20
-219.4280999999992
 10
3562.813599999999
 20
-222.1023000000005
 10
3556.0175
 20
-223.6983
 10
3555.1756
 20
-223.8958000000002
 10
3554.4054
 20
-224.0800999999992
 10
3553.7279
 20
-224.2209000000003
 10
3542.5057
 20
-226.5851999999995
 10
3531.002
 20
-225.5202000000008
 10
3519.5322
 20
-221.0648000000001
 10
3506.388999999999
 20
-215.9544999999998
 10
3494.998600000001
 20
-207.1324999999997
 10
3483.982400000001
 20
-198.5995999999996
 10
3471.7189
 20
-189.1020000000008
 10
3459.0368
 20
-179.2793000000001
 10
3443.671
 20
-174.2369999999992
 10
3418.663
 20
-166.0264000000006
 10
3392.106299999999
 20
-167.5666999999994
 10
3362.4926
 20
-170.2324000000008
 10
3352.3174
 20
-171.1452000000008
 10
3341.953300000001
 20
-170.8956999999991
 10
3331.573
 20
-169.4886999999999
 10
3339.2318
 20
-167.2973999999995
 10
3347.3177
 20
-165.9781999999996
 10
3355.2042
 20
-164.6911999999993
 10
3370.635200000001
 20
-162.1738999999998
 10
3386.5897
 20
-159.5724
 10
3399.780200000001
 20
-150.4971999999998
 10
3416.179700000001
 20
-139.2106999999996
 10
3427.0201
 20
-120.1756999999998
 10
3432.001899999999
 20
-93.91470000000027
 10
3432.965700000001
 20
-88.84040000000005
 10
3430.9303
 20
-84.39729999999963
 10
3426.6922
 20
-82.32219999999961
 10
3423.6986
 20
-80.86319999999978
 10
3419.1572
 20
-80.21590000000015
 10
3414.528900000001
 20
-85.60390000000007
 10
3414.528900000001
 20
-85.60390000000007
 10
3414.2019
 20
-86.0018
 10
3414.2019
 20
-86.0018
 10
3405.552800000001
 20
-96.58520000000044
 10
3392.454
 20
-102.7650999999996
 10
3376.324700000001
 20
-103.8669
 10
3369.426600000001
 20
-104.3451000000005
 10
3362.346100000001
 20
-103.6778999999997
 10
3355.5038
 20
-103.0344000000005
 10
3349.2076
 20
-102.4476000000004
 10
3342.735700000001
 20
-101.8276999999998
 10
3336.276
 20
-102.0895
 10
3337.631100000001
 20
-100.4566000000004
 10
3339.2876
 20
-98.30209999999988
 10
3341.374900000001
 20
-95.48710000000028
 10
3342.154500000001
 20
-94.4335000000001
 10
3342.7754
 20
-93.59349999999995
 10
3343.117399999999
 20
-93.18339999999989
 10
3359.481100000001
 20
-73.54929999999968
 10
3369.4606
 20
-49.73289999999997
 10
3379.1132
 20
-26.70550000000003
 10
3379.1132
 20
-26.70550000000003
 10
3379.480800000001
 20
-25.82480000000032
 10
3379.480800000001
 20
-25.82480000000032
 10
3380.680899999999
 20
-22.96159999999963
 10
3381.847
 20
-20.01810000000023
 10
3383.021500000001
 20
-17.04249999999956
 10
3386.5056
 20
-8.236499999999978
 10
3390.1086
 20
0.8708880000003774
 10
3394.985500000001
 20
8.618499999999585
 10
3401.402600000001
 20
18.81540000000041
 10
3410.723600000001
 20
26.77750000000015
 10
3419.736499999999
 20
34.47320000000036
 10
3425.2153
 20
39.15350000000035
 10
3430.8783
 20
43.99070000000029
 10
3435.920600000001
 20
49.33050000000003
 10
3454.433000000001
 20
68.93249999999989
 10
3463.5687
 20
97.79119999999966
 10
3460.3521
 20
126.584596802204
 10
3460.118699999999
 20
128.6794967492824
 10
3459.4072
 20
135.0569999999998
 10
3452.6111
 20
136.3392965557796
 10
3445.8945
 20
137.5856965242929
 10
3441.745200000001
 20
130.8103966954513
 10
3439.1976
 20
126.6289999999999
 10
3437.834999999999
 20
124.3932968575609
 10
3436.626400000001
 20
122.1499999999996
 10
3435.4301
 20
119.9264969704018
 10
3433.099900000001
 20
115.5919999999996
 10
3430.8982
 20
111.498497183311
 10
3427.673999999999
 20
107.7150000000001
 10
3413.8977
 20
91.57060000000001
 10
3394.6718
 20
85.90940000000046
 10
3372.798200000001
 20
80.66209999999955
 10
3352.892900000001
 20
75.8806999999997
 10
3332.1646
 20
69.46360000000004
 10
3315.4211
 20
54.97569999999996
 10
3297.9481
 20
39.85750000000007
 10
3285.061799999999
 20
20.33579999999984
 10
3273.6922
 20
3.110410000000229
 10
3268.0452
 20
-5.454579999999623
 10
3261.356
 20
-13.43180000000029
 10
3253.752
 20
-20.68140000000039
 10
3254.5864
 20
-17.95150000000012
 10
3255.8035
 20
-15.36610000000019
 10
3257.0877
 20
-12.63140000000021
 10
3259.598400000001
 20
-7.300059999999576
 10
3262.659100000001
 20
-2.100970000000416
 10
3265.620500000001
 20
2.932759999999689
 10
3268.9637
 20
8.61471999999958
 10
3272.4213
 20
14.48940000000039
 10
3275.1541
 20
20.63730000000032
 10
3287.925999999999
 20
48.13240000000042
 10
3281.936900000001
 20
76.52800000000025
 10
3257.349399999999
 20
105.0407973464462
 10
3253.992
 20
108.9452972478102
 10
3249.2531
 20
110.1226972180666
 10
3244.995200000001
 20
108.116597268745
 10
3238.6518
 20
105.1286973442257
 10
3239.594800000001
 20
98.94120000000021
 10
3240.284599999999
 20
94.42150000000038
 10
3240.4557
 20
93.30739999999969
 10
3240.6258
 20
92.20179999999982
 10
3240.6947
 20
91.15669999999955
 10
3241.510200000001
 20
78.76370000000043
 10
3238.2634
 20
66.5607
 10
3231.3058
 20
55.86110000000008
 10
3227.2245
 20
49.57999999999993
 10
3221.8487
 20
44.14750000000004
 10
3216.649600000001
 20
38.89270000000033
 10
3212.0591
 20
34.25579999999991
 10
3207.344800000001
 20
29.49139999999989
 10
3203.368399999999
 20
24.03909999999996
 10
3200.867200000001
 20
41.48559999999998
 10
3195.519700000001
 20
59.06919999999991
 10
3187.437600000001
 20
76.38720000000012
 10
3183.550999999999
 20
84.71119999999974
 10
3178.7101
 20
92.63180000000011
 10
3174.025
 20
100.2961974663049
 10
3168.9393
 20
108.6154972561417
 10
3163.677900000001
 20
117.2240000000002
 10
3159.7233
 20
126.2510000000002
 10
3155.774300000001
 20
135.2695965828025
 10
3152.873299999999
 20
145.12159633392
 10
3151.331200000001
 20
154.7477960907418
 10
3150.236000000001
 20
161.598595917676
 10
3150.0206
 20
168.551495742031
 10
3149.813599999999
 20
175.2738955722089
 10
3149.5141
 20
184.9481953278155
 10
3149.204099999999
 20
194.9504950751361
 10
3146.305
 20
205.0330948204282
 10
3138.9751
 20
230.5276941763805
 10
3123.8928
 20
251.143593655579
 10
3102.6939
 20
264.641193314601
 10
3097.9276
 20
267.7150932369477
 10
3093.715
 20
267.7415932362783
 10
3090.1828
 20
264.7299999999996
 10
3083.7572
 20
259.2550000000001
 10
3088.6813
 20
248.9078937120576
 10
3091.6201
 20
242.7269999999999
 10
3091.9498
 20
242.033393885722
 10
3092.252200000001
 20
241.4002939017155
 10
3092.5074
 20
240.8370939159431
 10
3097.173500000001
 20
230.4974941771434
 10
3098.9226
 20
220.2825944351935
 10
3097.8586
 20
209.6065947048919
 10
3096.214400000001
 20
193.1370951209465
 10
3088.759700000001
 20
177.1363955251582
 10
3081.9003
 20
163.4290000000001
 10
3071.2461
 20
142.1336964094007
 10
3066.6763
 20
120.9753969439043
 10
3068.6853
 20
102.2380974172484
 10
3070.5024
 20
85.27350000000024
 10
3074.0129
 20
68.41370000000006
 10
3079.1175
 20
52.12950000000001
 10
3083.1845
 20
39.16200000000026
 10
3087.3706
 20
25.82030000000032
 10
3088.9062
 20
11.19250000000011
 10
3087.7581
 20
13.10599999999977
 10
3086.632600000001
 20
15.08479999999963
 10
3085.5365
 20
17.11920000000009
 10
3082.285900000001
 20
23.15840000000026
 10
3079.8234
 20
29.6889000000001
 10
3077.443
 20
36.00110000000041
 10
3075.353800000001
 20
41.54989999999998
 10
3072.9876
 20
47.83470000000034
 10
3069.9959
 20
53.83790000000045
 10
3056.465200000001
 20
80.95510000000013
 10
3030.550999999999
 20
93.91499999999996
 10
2992.9252
 20
92.54389999999967
 10
2987.7582
 20
92.34640000000036
 10
2983.882100000001
 20
89.37920000000031
 10
2982.8105
 20
84.8113999999996
 10
2981.1616
 20
77.96810000000005
 10
2986.5232
 20
74.93950000000041
 10
2990.4381
 20
72.73210000000017
 10
2991.3849
 20
72.19350000000031
 10
2992.3261
 20
71.66719999999987
 10
2993.168
 20
71.09640000000036
 10
2997.8928
 20
67.88360000000011
 10
3002.1403
 20
63.91010000000006
 10
3005.7935
 20
59.29029999999966
 10
3014.7459
 20
47.95190000000002
 10
3016.6282
 20
34.76699999999983
 10
3018.623
 20
20.80640000000039
 10
3019.5509
 20
14.30050000000028
 10
3020.5044
 20
7.621579999999994
 10
3022.2393
 20
1.091999999999643
 10
3019.135200000001
 20
2.775899999999638
 10
3015.1626
 20
4.388920000000326
 10
3011.004800000001
 20
6.009500000000116
 10
3009.6961
 20
6.51976999999988
 10
3008.5905
 20
6.945950000000266
 10
3007.8468
 20
7.275730000000294
 10
3001.3069
 20
10.14649999999983
 10
2994.3643
 20
12.65530000000035
 10
2986.6224
 20
14.95150000000012
 10
2974.907
 20
18.42609999999968
 10
2962.6453
 20
21.12389999999959
 10
2950.787200000001
 20
23.73390000000018
 10
2931.042600000001
 20
28.07589999999982
 10
2910.628000000001
 20
32.56720000000041
 10
2891.9435
 20
40.79010000000017
 10
2882.6103
 20
44.89590000000044
 10
2873.845
 20
50.11859999999979
 10
2865.3688
 20
55.17320000000018
 10
2847.481900000001
 20
65.83690000000024
 10
2828.9856
 20
76.86629999999968
 10
2805.275900000001
 20
76.86629999999968
 10
2794.1161
 20
76.86629999999968
 10
2782.815500000001
 20
74.93950000000041
 10
2771.6774
 20
71.13230000000021
 10
2766.3234
 20
69.28690000000006
 10
2763.6917
 20
66.01360000000022
 10
2763.8523
 20
61.40980000000036
 10
2764.151900000001
 20
52.8127000000004
 10
2774.3554
 20
50.70169999999962
 10
2781.8035
 20
49.16610000000037
 10
2783.7142
 20
48.77210000000014
 10
2785.5171
 20
48.39789999999994
 10
2786.754
 20
47.98400000000038
 10
2811.7857
 20
39.64009999999962
 10
2823.8989
 20
16.8773000000001
 10
2835.6163
 20
-5.128569999999854
 10
2837.9238
 20
-9.4677700000002
 10
2840.2257
 20
-13.78989999999976
 10
2842.616400000001
 20
-17.9997000000003
 10
2863.4411
 20
-54.67019999999957
 10
2898.9635
 20
-70.40449999999964
 10
2933.563700000001
 20
-83.38050000000021
 10
2942.2071
 20
-86.6207000000004
 10
2949.9793
 20
-90.95989999999983
 10
2957.737300000001
 20
-95.74420000000009
 10
2957.2289
 20
-95.68369999999959
 10
2956.722400000001
 20
-95.61939999999959
 10
2956.2178
 20
-95.5599000000002
 10
2956.2178
 20
-95.5599000000002
 10
2953.9414
 20
-95.27360000000044
 10
2953.9414
 20
-95.27360000000044
 10
2946.5047
 20
-94.30500000000029
 10
2939.229600000001
 20
-92.27049999999963
 10
2932.1926
 20
-90.30029999999988
 10
2927.924199999999
 20
-89.10589999999956
 10
2923.5113
 20
-87.8717999999999
 10
2919.050300000001
 20
-86.86260000000038
 10
2887.9663
 20
-79.90970000000016
 10
2859.8787
 20
-92.05320000000029
 10
2837.8218
 20
-121.9929000000002
 10
2834.7639
 20
-126.1431000000002
 10
2834.6666
 20
-131.0236999999997
 10
2837.5657
 20
-134.7232000000004
 10
2839.6493
 20
-137.3888999999999
 10
2843.4905
 20
-139.9666999999999
 10
2849.8925
 20
-137.0798999999997
 10
2865.0957
 20
-130.6504999999997
 10
2881.808
 20
-131.2013999999999
 10
2896.950800000001
 20
-138.6352999999999
 10
2901.65
 20
-140.9475000000002
 10
2906.2179
 20
-143.8589000000002
 10
2910.636500000001
 20
-146.6738999999998
 10
2915.3045
 20
-149.6448
 10
2920.0755
 20
-152.6846999999998
 10
2925.1518
 20
-155.1292999999996
 10
2910.8113
 20
-159.1831000000002
 10
2892.2969
 20
-174.7520000000004
 10
2882.3712
 20
-183.0987000000005
 10
2882.3712
 20
-183.0987000000005
 10
2879.7755
 20
-185.2739999999994
 10
2879.7755
 20
-185.2739999999994
 10
2874.0926
 20
-189.9950000000008
 10
2868.674199999999
 20
-194.7716999999993
 10
2863.4345
 20
-199.3876999999993
 10
2842.1421
 20
-218.1496000000006
 10
2822.0289
 20
-235.8701999999994
 10
2791.5969
 20
-242.6728999999996
 10
2767.7068
 20
-248.009
 10
2747.467000000001
 20
-260.3896999999997
 10
2733.0679
 20
-278.4835000000003
 10
2726.1055
 20
-287.2214000000004
 10
2720.577600000001
 20
-297.2453999999998
 10
2716.6362
 20
-308.2870999999996
 10
2715.9209
 20
-310.2893999999997
 10
2713.7456
 20
-316.3889999999992
 10
2717.3884
 20
-319.3806999999997
 10
2722.6423
 20
-323.6905999999999
 10
2735.384
 20
-317.5910000000003
 10
2754.2347
 20
-306.3328999999994
 10
2756.4336
 20
-305.0175999999992
 10
2758.7081
 20
-303.6587
 10
2759.2145
 20
-303.4696999999996
 10
2778.3941
 20
-297.2010000000009
 10
2797.5019
 20
-300.9447999999993
 10
2817.733200000001
 20
-304.9135999999999
 10
2836.454400000001
 20
-308.5799999999999
 10
2855.817300000001
 20
-312.3796000000002
 10
2874.9591
 20
-307.2976999999992
 10
2893.311799999999
 20
-302.4246000000003
 10
2911.012500000001
 20
-294.9416000000001
 10
2927.5661
 20
-285.0537000000004
 10
2929.885
 20
-283.6664999999994
 10
2932.15
 20
-282.2396000000008
 10
2934.4085
 20
-280.8117999999995
 10
2939.379800000001
 20
-277.6718000000001
 10
2944.0762
 20
-274.7083999999995
 10
2949.2772
 20
-272.2307999999994
 10
2951.3239
 20
-271.2584000000006
 10
2954.891100000001
 20
-270.2927
 10
2958.668100000001
 20
-269.2721000000001
 10
2960.443600000001
 20
-268.7893000000004
 10
2962.2333
 20
-268.3063999999995
 10
2963.959800000001
 20
-267.7960999999996
 10
2958.8835
 20
-272.2837
 10
2953.465200000001
 20
-276.4896000000008
 10
2948.162200000001
 20
-280.6106
 10
2939.1871
 20
-287.5786000000007
 10
2929.9067
 20
-294.7885000000006
 10
2922.1544
 20
-303.3611000000001
 10
2904.9668
 20
-322.3601999999992
 10
2900.6144
 20
-346.4534000000003
 10
2908.843
 20
-377.0120000000006
 10
2910.190399999999
 20
-382.0712999999996
 10
2913.8871
 20
-385.1187000000009
 10
2918.750700000001
 20
-385.1630999999998
 10
2921.903
 20
-385.1630999999998
 10
2925.964400000001
 20
-383.8798999999999
 10
2927.8723
 20
-377.9976000000006
 10
2927.8723
 20
-377.9976000000006
 10
2928.3107
 20
-376.5018
 10
2928.3107
 20
-376.5018
 10
2932.4458
 20
-361.9419999999991
 10
2941.918900000001
 20
-350.5223999999998
 10
2956.462600000001
 20
-342.5612000000001
 10
2962.3619
 20
-339.3323
 10
2968.7686
 20
-336.9964
 10
2974.9655
 20
-334.7361000000001
 10
2980.8535
 20
-332.5892000000003
 10
2986.9012
 20
-330.3817999999992
 10
2992.6549
 20
-327.3778000000002
 10
2986.710300000001
 20
-346.0234999999993
 10
2983.9624
 20
-365.8343000000004
 10
2984.4793
 20
-386.3528000000006
 10
2984.6475
 20
-393.0118999999995
 10
2984.965
 20
-399.4856999999993
 10
2985.2749
 20
-405.8263000000006
 10
2986.7122
 20
-435.1630999999998
 10
2987.9548
 20
-460.5027000000009
 10
2974.374
 20
-488.4079000000002
 10
2958.6425
 20
-520.7042999999994
 10
2960.3491
 20
-557.9143999999997
 10
2978.9457
 20
-587.9467000000004
 10
2979.934999999999
 20
-589.5388999999996
 10
2982.5591
 20
-593.7685000000001
 10
2987.6552
 20
-593.7685000000001
 10
2988.4839
 20
-593.7685000000001
 10
2989.3117
 20
-593.6522000000004
 10
2990.1943
 20
-593.4112999999998
 10
2998.5703
 20
-591.1065999999992
 10
2999.0362
 20
-577.7572999999993
 10
2999.412200000001
 20
-567.0341000000008
 10
2999.549300000001
 20
-563.1247999999996
 10
2999.679700000001
 20
-559.4375999999993
 10
3000.1984
 20
-557.3955999999998
 10
3005.4334
 20
-536.7721999999994
 10
3021.5221
 20
-521.7134999999998
 10
3036.5675
 20
-509.7031999999999
 10
3050.4337
 20
-498.6378999999997
 10
3067.6137
 20
-483.3222000000005
 10
3077.4383
 20
-462.9274999999998
 10
3086.0676
 20
-445.0226000000002
 10
3089.8918
 20
-425.3639999999996
 10
3092.4951
 20
-408.4920000000002
 10
3093.040300000001
 20
-404.9616999999998
 10
3093.4438
 20
-401.3868999999995
 10
3093.8501
 20
-397.8083999999999
 10
3094.4247
 20
-392.7142000000003
 10
3095.02
 20
-387.4470999999994
 10
3096.0396
 20
-382.4323000000004
 10
3096.510200000001
 20
-380.1208999999999
 10
3098.045700000001
 20
-376.6993000000002
 10
3099.6719
 20
-373.0800999999992
 10
3100.222900000001
 20
-371.8536000000004
 10
3100.7804
 20
-370.6147999999994
 10
3101.3067
 20
-369.3891999999996
 10
3101.4437
 20
-376.1558999999997
 10
3101.0213
 20
-383.0483999999997
 10
3100.6093
 20
-389.7991000000002
 10
3099.636
 20
-405.6977999999999
 10
3098.6306
 20
-422.1350999999995
 10
3104.763300000001
 20
-437.1011999999992
 10
3112.328600000001
 20
-455.5691999999999
 10
3134.8598
 20
-478.2394000000004
 10
3155.0911
 20
-481.2433999999994
 10
3160.231599999999
 20
-482.0107000000007
 10
3162.904
 20
-480.2057999999997
 10
3164.2382
 20
-478.5530999999992
 10
3166.5363
 20
-475.7145
 10
3166.7659
 20
-470.9614000000001
 10
3164.851500000001
 20
-465.8474000000006
 10
3163.562600000001
 20
-462.3973999999998
 10
3162.0308
 20
-459.3934000000008
 10
3160.5491
 20
-456.4858000000004
 10
3157.756799999999
 20
-451.0097999999998
 10
3155.1185
 20
-445.8343000000004
 10
3154.7991
 20
-438.7019
 10
3154.2322
 20
-426.1077000000005
 10
3157.891
 20
-413.3292000000001
 10
3161.4298
 20
-400.973
 10
3162.8066
 20
-396.1641999999993
 10
3164.2165
 20
-391.2466999999997
 10
3165.374
 20
-386.3368000000009
 10
3167.973600000001
 20
-390.2895000000008
 10
3172.204099999999
 20
-394.6399999999994
 10
3176.7276
 20
-399.0954000000002
 10
3178.1752
 20
-400.5185000000001
 10
3179.4254
 20
-401.7487999999994
 10
3180.255999999999
 20
-402.6702000000005
 10
3192.5658
 20
-416.3529999999992
 10
3207.515800000001
 20
-427.2463000000007
 10
3221.970600000001
 20
-437.7852999999996
 10
3229.6067
 20
-443.3500999999997
 10
3237.499900000001
 20
-449.1039000000001
 10
3244.8742
 20
-455.1751000000004
 10
3259.3177
 20
-467.0776999999998
 10
3268.9354
 20
-478.1826999999994
 10
3276.0584
 20
-491.1746999999996
 10
3298.395
 20
-531.9311999999991
 10
3325.4233
 20
-552.9117999999999
 10
3361.2642
 20
-557.2103999999999
 10
3361.833000000001
 20
-557.2746999999999
 10
3362.599399999999
 20
-557.3549999999996
 10
3363.4678
 20
-557.3549999999996
 10
3368.847400000001
 20
-557.3549999999996
 10
3371.298500000001
 20
-554.3518999999997
 10
3372.4041
 20
-551.8307999999997
 10
3375.654699999999
 20
-544.4403999999995
 10
3365.4503
 20
-534.9105999999992
 10
3356.4449
 20
-526.5063000000009
 10
3352.8277
 20
-523.1290000000008
 10
3349.412700000001
 20
-519.9408000000003
 10
3348.0774
 20
-517.8940000000002
 10
3336.9413
 20
-500.7970999999998
 10
3335.773300000001
 20
-479.2891999999993
 10
3335.865900000001
 20
-464.6000000000004
 10
3335.984
 20
-445.9591
 10
3334.780200000001
 20
-421.8978999999999
 10
3324.3338
 20
-401.1337000000003
 10
3314.290000000001
 20
-381.1697999999997
 10
3298.439399999999
 20
-364.5954999999994
 10
3283.111499999999
 20
-348.5643999999993
 10
3283.111499999999
 20
-348.5643999999993
 10
3282.3328
 20
-347.7518
 10
3282.3328
 20
-347.7518
 10
3275.1824
 20
-340.2734999999993
 10
3268.8352
 20
-331.8852000000006
 10
3263.4084
 20
-322.7456999999995
 10
3265.330400000001
 20
-324.0090999999993
 10
3267.259099999999
 20
-325.3395999999993
 10
3269.1782
 20
-326.7353000000003
 10
3274.671200000001
 20
-330.7314000000006
 10
3279.932700000001
 20
-335.4079999999994
 10
3285.021199999999
 20
-339.9351999999999
 10
3293.057000000001
 20
-347.0771000000004
 10
3301.365900000001
 20
-354.4675000000007
 10
3311.058199999999
 20
-359.6618999999992
 10
3332.052100000001
 20
-370.9123999999993
 10
3357.7395
 20
-369.1311999999998
 10
3385.3537
 20
-354.5033999999996
 10
3389.8951
 20
-352.0787
 10
3392.0949
 20
-347.7196999999996
 10
3391.0933
 20
-343.1357000000007
 10
3390.379800000001
 20
-339.8549000000003
 10
3388.043
 20
-335.8984
 10
3380.976699999999
 20
-335.6650000000009
 10
3380.976699999999
 20
-335.6650000000009
 10
3380.479600000001
 20
-335.6489000000001
 10
3380.479600000001
 20
-335.6489000000001
 10
3366.9395
 20
-335.1623
 10
3353.788700000001
 20
-329.1316000000006
 10
3343.4491
 20
-318.6645000000008
 10
3338.0695
 20
-313.2206000000006
 10
3333.9061
 20
-306.5985000000001
 10
3329.8806
 20
-300.1926999999996
 10
3326.7803
 20
-295.2590999999993
 10
3323.604299999999
 20
-290.2046000000009
 10
3319.7073
 20
-285.4439000000002
 10
3323.196100000001
 20
-285.6651000000002
 10
3327.072200000001
 20
-285.2710000000006
 10
3330.51
 20
-284.9166999999998
 10
3332.3318
 20
-284.7324000000008
 10
3333.9722
 20
-284.5632999999998
 10
3335.240400000001
 20
-284.5349000000006
 10
3359.866600000001
 20
-283.9925000000003
 10
3383.7917
 20
-277.1160999999993
 10
3406.9277
 20
-270.4655999999995
 10
3406.9277
 20
-270.4655999999995
 10
3409.481
 20
-269.7304000000004
 10
3409.481
 20
-269.7304000000004
 10
3411.682700000001
 20
-269.0992000000006
 10
3413.8958
 20
-268.4310999999998
 10
3416.1173
 20
-267.7602000000006
 10
3425.277600000001
 20
-264.9971999999998
 10
3434.748800000001
 20
-262.1424999999999
 10
3444.165199999999
 20
-261.6841999999997
 10
3454.734400000001
 20
-261.1938000000009
 10
3465.3575
 20
-263.1394
 10
3475.6291
 20
-265.0293000000001
 10
3483.102699999999
 20
-266.4089999999997
 10
3490.830400000001
 20
-267.8358000000007
 10
3498.593199999999
 20
-268.3384999999998
 10
3526.7554
 20
-270.1924999999992
 10
3554.7655
 20
-259.5534000000007
 10
3575.3842
 20
-239.2067999999999
 10
3579.4172
 20
-235.2229000000007
 10
3580.370699999999
 20
-231.1332000000002
 10
3578.2171
 20
-227.0519999999997
 97
        0
 97
        0
 92
        1
 93
        1
 72
     4
 94
        3
 73
     0
 74
     1
 95
       32
 96
       28
 40
0.0
 40
0.0
 40
0.0
 40
0.0
 40
1.0
 40
1.0
 40
1.0
 40
2.0
 40
2.0
 40
2.0
 40
3.0
 40
3.0
 40
3.0
 40
4.0
 40
4.0
 40
4.0
 40
5.0
 40
5.0
 40
5.0
 40
6.0
 40
6.0
 40
6.0
 40
7.0
 40
7.0
 40
7.0
 40
8.0
 40
8.0
 40
8.0
 40
9.0
 40
9.0
 40
9.0
 40
9.0
 10
3322.122600000001
 20
-310.5388999999996
 10
3334.1149
 20
-326.7626999999993
 10
3347.653200000001
 20
-342.8107
 10
3369.6657
 20
-347.4588999999996
 10
3345.433499999999
 20
-357.6964000000007
 10
3324.420700000001
 20
-356.0993999999992
 10
3307.128199999999
 20
-342.7019999999993
 10
3301.497299999999
 20
-338.3392000000003
 10
3296.141299999999
 20
-333.6069000000007
 10
3290.9602
 20
-329.0305000000008
 10
3280.963599999999
 20
-320.1972000000005
 10
3270.6505
 20
-311.0851000000002
 10
3258.1054
 20
-304.4544000000005
 10
3266.8367
 20
-296.2522000000008
 10
3275.8269
 20
-285.8219000000008
 10
3283.204100000001
 20
-275.3274000000001
 10
3286.6541
 20
-276.6144000000004
 10
3296.7981
 20
-281.8125
 10
3298.2363
 20
-282.7461000000003
 10
3302.8382
 20
-285.7293000000009
 10
3307.132
 20
-290.0316999999995
 10
3311.748100000001
 20
-296.2806
 10
3313.471600000001
 20
-298.6165000000001
 10
3315.1782
 20
-300.9770000000008
 10
3316.882900000001
 20
-303.3374000000003
 10
3318.622499999999
 20
-305.7451999999994
 10
3320.3631
 20
-308.1586000000007
 10
3322.122600000001
 20
-310.5388999999996
 97
        0
 97
        0
 92
        1
 93
        1
 72
     4
 94
        3
 73
     0
 74
     1
 95
       47
 96
       43
 40
0.0
 40
0.0
 40
0.0
 40
0.0
 40
1.0
 40
1.0
 40
1.0
 40
2.0
 40
2.0
 40
2.0
 40
3.0
 40
3.0
 40
3.0
 40
4.0
 40
4.0
 40
4.0
 40
5.0
 40
5.0
 40
5.0
 40
6.0
 40
6.0
 40
6.0
 40
7.0
 40
7.0
 40
7.0
 40
8.0
 40
8.0
 40
8.0
 40
9.0
 40
9.0
 40
9.0
 40
10.0
 40
10.0
 40
10.0
 40
11.0
 40
11.0
 40
11.0
 40
12.0
 40
12.0
 40
12.0
 40
13.0
 40
13.0
 40
13.0
 40
14.0
 40
14.0
 40
14.0
 40
14.0
 10
3329.2551
 20
-508.1668000000009
 10
3334.0828
 20
-522.4251000000004
 10
3342.0818
 20
-530.8246999999992
 10
3351.3441
 20
-540.5481999999993
 10
3352.0982
 20
-541.3400000000001
 10
3352.8598
 20
-542.1357000000007
 10
3353.626200000001
 20
-542.9483
 10
3347.029500000001
 20
-541.8909000000003
 10
3339.8904
 20
-538.7707000000009
 10
3334.062
 20
-535.9595000000008
 10
3315.972
 20
-527.2944000000007
 10
3301.531300000001
 20
-512.4614999999994
 10
3292.299200000001
 20
-493.0684000000001
 10
3281.6572
 20
-470.7119000000002
 10
3266.591
 20
-453.1047999999992
 10
3244.8884
 20
-437.6643000000004
 10
3240.9092
 20
-434.8333000000002
 10
3236.635200000001
 20
-431.9218999999994
 10
3232.208200000001
 20
-428.9104000000007
 10
3206.687099999999
 20
-411.5365999999995
 10
3174.928400000001
 20
-389.9115000000002
 10
3167.624
 20
-360.1126000000004
 10
3166.853800000001
 20
-356.9725999999991
 10
3166.411599999999
 20
-353.5782999999992
 10
3166.044
 20
-349.5822000000007
 10
3194.602200000001
 20
-345.0180999999993
 10
3221.756100000001
 20
-333.3291000000008
 10
3244.849700000001
 20
-315.6689999999999
 10
3252.0936
 20
-331.1255000000001
 10
3261.509099999999
 20
-344.9537999999993
 10
3272.859700000001
 20
-356.8071999999993
 10
3272.859700000001
 20
-356.8071999999993
 10
3274.83
 20
-358.8662000000004
 10
3274.83
 20
-358.8662000000004
 10
3288.6281
 20
-373.2852000000003
 10
3302.893899999999
 20
-388.1944999999996
 10
3311.826499999999
 20
-405.8461000000007
 10
3319.4342
 20
-420.8763999999992
 10
3323.351000000001
 20
-437.6880000000001
 10
3323.1554
 20
-454.4673999999995
 10
3322.9504
 20
-471.9148999999998
 10
3323.2518
 20
-490.4310999999998
 10
3329.2551
 20
-508.1668000000009
 97
        0
 97
        0
 92
        1
 93
        1
 72
     4
 94
        3
 73
     0
 74
     1
 95
       50
 96
       46
 40
0.0
 40
0.0
 40
0.0
 40
0.0
 40
1.0
 40
1.0
 40
1.0
 40
2.0
 40
2.0
 40
2.0
 40
3.0
 40
3.0
 40
3.0
 40
4.0
 40
4.0
 40
4.0
 40
5.0
 40
5.0
 40
5.0
 40
6.0
 40
6.0
 40
6.0
 40
7.0
 40
7.0
 40
7.0
 40
8.0
 40
8.0
 40
8.0
 40
9.0
 40
9.0
 40
9.0
 40
10.0
 40
10.0
 40
10.0
 40
11.0
 40
11.0
 40
11.0
 40
12.0
 40
12.0
 40
12.0
 40
13.0
 40
13.0
 40
13.0
 40
14.0
 40
14.0
 40
14.0
 40
15.0
 40
15.0
 40
15.0
 40
15.0
 10
3114.9054
 20
-371.7572
 10
3114.5378
 20
-363.9802999999993
 10
3113.6949
 20
-356.7996999999996
 10
3112.3399
 20
-349.9110000000001
 10
3120.7839
 20
-351.1697000000004
 10
3129.441500000001
 20
-351.8094000000001
 10
3138.1209
 20
-351.8094000000001
 10
3142.1114
 20
-351.8094000000001
 10
3147.2717
 20
-351.5277999999998
 10
3150.1793
 20
-351.3425999999999
 10
3150.6518
 20
-353.1285000000007
 10
3151.094000000001
 20
-354.7641999999996
 10
3151.523999999999
 20
-356.3611999999994
 10
3152.183499999999
 20
-358.8019999999997
 10
3152.812900000001
 20
-361.1378999999997
 10
3153.484700000001
 20
-363.7271000000001
 10
3154.6281
 20
-368.1587999999992
 10
3154.8719
 20
-372.8269
 10
3154.226500000001
 20
-378.0061000000005
 10
3153.2513
 20
-385.8387999999995
 10
3150.374
 20
-393.6713999999993
 10
3147.5939
 20
-401.2422999999999
 10
3146.809600000001
 20
-403.3816999999999
 10
3146.0319
 20
-405.5012000000006
 10
3145.3043
 20
-407.5962
 10
3138.3675
 20
-427.5514999999996
 10
3139.1943
 20
-446.1481000000003
 10
3147.740400000001
 20
-462.9917000000005
 10
3147.4494
 20
-462.8670000000002
 10
3147.1498
 20
-462.7384999999995
 10
3146.8455
 20
-462.6062000000002
 10
3145.3081
 20
-461.9465999999993
 10
3143.8567
 20
-461.3191999999999
 10
3143.0847
 20
-460.8410000000003
 10
3139.1943
 20
-458.4125000000004
 10
3135.655500000001
 20
-455.8186000000005
 10
3132.5693
 20
-453.1330999999991
 10
3122.3686
 20
-444.2420999999995
 10
3115.695400000001
 20
-432.5133999999998
 10
3113.7819
 20
-420.1005999999998
 10
3112.3985
 20
-411.1378000000004
 10
3113.2168
 20
-401.8300999999992
 10
3114.0068
 20
-392.8304000000007
 10
3114.6125
 20
-385.9388999999992
 10
3115.2371
 20
-378.8102999999992
 10
3114.9054
 20
-371.7572
 97
        0
 97
        0
 92
        1
 93
        1
 72
     4
 94
        3
 73
     0
 74
     1
 95
       38
 96
       34
 40
0.0
 40
0.0
 40
0.0
 40
0.0
 40
1.0
 40
1.0
 40
1.0
 40
2.0
 40
2.0
 40
2.0
 40
3.0
 40
3.0
 40
3.0
 40
4.0
 40
4.0
 40
4.0
 40
5.0
 40
5.0
 40
5.0
 40
6.0
 40
6.0
 40
6.0
 40
7.0
 40
7.0
 40
7.0
 40
8.0
 40
8.0
 40
8.0
 40
9.0
 40
9.0
 40
9.0
 40
10.0
 40
10.0
 40
10.0
 40
11.0
 40
11.0
 40
11.0
 40
11.0
 10
3042.444100000001
 20
-13.89860000000044
 10
3035.492200000001
 20
-2.88904999999977
 10
3033.9339
 20
9.149559999999838
 10
3032.284100000001
 20
21.89220000000023
 10
3031.564
 20
27.44470000000001
 10
3030.820400000001
 20
33.1871000000001
 10
3029.593800000001
 20
38.83600000000024
 10
3025.9851
 20
55.42259999999987
 10
3016.9457
 20
69.78480000000036
 10
3004.0973
 20
79.38739999999962
 10
3018.775100000001
 20
78.66359999999986
 10
3031.0131
 20
75.03210000000036
 10
3040.5429
 20
68.5667999999996
 10
3053.3535
 20
59.8733000000002
 10
3060.0003
 20
45.24549999999999
 10
3066.2228
 20
29.7484000000004
 10
3071.1497
 20
17.47639999999956
 10
3075.8026
 20
6.443229999999858
 10
3082.8311
 20
-4.300799999999981
 10
3082.8311
 20
-4.300799999999981
 10
3083.1628
 20
-4.846980000000258
 10
3083.1628
 20
-4.846980000000258
 10
3083.8318
 20
-5.973359999999957
 10
3084.473400000001
 20
-7.018469999999979
 10
3085.1084
 20
-7.907659999999851
 10
3074.0828
 20
-11.4975000000004
 10
3060.8243
 20
-17.38069999999971
 10
3049.3403
 20
-23.8101999999999
 10
3047.197200000001
 20
-21.61030000000028
 10
3045.8157
 20
-19.36319999999978
 10
3043.9967
 20
-16.39990000000034
 10
3043.9967
 20
-16.39990000000034
 10
3042.444100000001
 20
-13.89860000000044
 10
3042.444100000001
 20
-13.89860000000044
 97
        0
 97
        0
 92
        1
 93
        1
 72
     4
 94
        3
 73
     0
 74
     1
 95
       47
 96
       43
 40
0.0
 40
0.0
 40
0.0
 40
0.0
 40
1.0
 40
1.0
 40
1.0
 40
2.0
 40
2.0
 40
2.0
 40
3.0
 40
3.0
 40
3.0
 40
4.0
 40
4.0
 40
4.0
 40
5.0
 40
5.0
 40
5.0
 40
6.0
 40
6.0
 40
6.0
 40
7.0
 40
7.0
 40
7.0
 40
8.0
 40
8.0
 40
8.0
 40
9.0
 40
9.0
 40
9.0
 40
10.0
 40
10.0
 40
10.0
 40
11.0
 40
11.0
 40
11.0
 40
12.0
 40
12.0
 40
12.0
 40
13.0
 40
13.0
 40
13.0
 40
14.0
 40
14.0
 40
14.0
 40
14.0
 10
2981.2135
 20
-96.0020999999997
 10
2968.008900000001
 20
-85.2496000000001
 10
2953.5361
 20
-76.87830000000031
 10
2938.159900000001
 20
-71.10379999999986
 10
2911.6901
 20
-61.17240000000038
 10
2888.3849
 20
-51.61049999999977
 10
2871.253000000001
 20
-35.11269999999968
 10
2859.565000000001
 20
-23.85829999999987
 10
2851.8769
 20
-9.306179999999586
 10
2844.4439
 20
4.766899999999623
 10
2833.5487
 20
25.39410000000044
 10
2822.285
 20
46.72159999999985
 10
2798.2899
 20
57.86719999999968
 10
2796.6495
 20
58.62309999999979
 10
2794.2201
 20
59.23829999999998
 10
2790.185100000001
 20
60.26360000000022
 10
2789.1183
 20
60.52909999999974
 10
2787.4013
 20
60.95529999999962
 10
2785.501
 20
61.46550000000025
 10
2792.1072
 20
62.98220000000038
 10
2798.7681
 20
63.7494999999999
 10
2805.3846
 20
63.7494999999999
 10
2826.6752
 20
63.7494999999999
 10
2845.7971
 20
53.30310000000009
 10
2861.692
 20
43.08629999999994
 10
2878.8164
 20
32.08060000000023
 10
2898.664000000001
 20
23.78200000000015
 10
2924.153
 20
16.96240000000034
 10
2931.8571
 20
14.90329999999994
 10
2940.162200000001
 20
13.10599999999977
 10
2948.954
 20
11.20390000000043
 10
2978.4618
 20
4.818870000000061
 10
3011.9054
 20
-2.418469999999616
 10
3031.8938
 20
-22.44279999999981
 10
3033.8716
 20
-24.42529999999988
 10
3035.1085
 20
-26.70920000000024
 10
3036.5401
 20
-29.35890000000018
 10
3036.8831
 20
-29.99390000000039
 10
3037.2375
 20
-30.64969999999994
 10
3037.611699999999
 20
-31.3167999999996
 10
3013.8038
 20
-47.91569999999956
 10
2994.37
 20
-70.20790000000034
 10
2981.2135
 20
-96.0020999999997
 97
        0
 97
        0
 92
        1
 93
        1
 72
     4
 94
        3
 73
     0
 74
     1
 95
       35
 96
       31
 40
0.0
 40
0.0
 40
0.0
 40
0.0
 40
1.0
 40
1.0
 40
1.0
 40
2.0
 40
2.0
 40
2.0
 40
3.0
 40
3.0
 40
3.0
 40
4.0
 40
4.0
 40
4.0
 40
5.0
 40
5.0
 40
5.0
 40
6.0
 40
6.0
 40
6.0
 40
7.0
 40
7.0
 40
7.0
 40
8.0
 40
8.0
 40
8.0
 40
9.0
 40
9.0
 40
9.0
 40
10.0
 40
10.0
 40
10.0
 40
10.0
 10
2985.9146
 20
-264.1448999999993
 10
2991.8952
 20
-274.2615000000005
 10
3000.5944
 20
-285.9948999999997
 10
3009.3323
 20
-295.7050999999992
 10
3006.4152
 20
-299.1154000000006
 10
3003.5842
 20
-302.3642
 10
3000.394
 20
-305.5041999999994
 10
2997.3702
 20
-308.4835999999996
 10
2993.8333
 20
-311.1332999999995
 10
2989.5857
 20
-313.6023999999998
 10
2983.1119
 20
-317.3660999999993
 10
2975.8396
 20
-320.1923999999999
 10
2968.8073
 20
-322.9233000000004
 10
2965.9725
 20
-324.0251000000007
 10
2963.1518
 20
-325.1221999999998
 10
2960.385
 20
-326.2721999999994
 10
2940.3871
 20
-334.6000000000004
 10
2926.5616
 20
-347.0203999999994
 10
2919.1911
 20
-363.2612000000008
 10
2917.2303
 20
-352.1268999999993
 10
2916.3742
 20
-336.0674999999992
 10
2923.089
 20
-321.8858
 10
2929.4985
 20
-308.3588999999993
 10
2942.367700000001
 20
-299.5010000000002
 10
2954.8146
 20
-290.9369000000006
 10
2957.960300000001
 20
-288.7692000000006
 10
2961.0815
 20
-286.6222999999991
 10
2964.072200000001
 20
-284.4187000000002
 10
2972.421700000001
 20
-278.2746000000006
 10
2979.5929
 20
-271.6203000000005
 10
2985.9146
 20
-264.1448999999993
 97
        0
 97
        0
 92
        1
 93
        1
 72
     4
 94
        3
 73
     0
 74
     1
 95
       53
 96
       49
 40
0.0
 40
0.0
 40
0.0
 40
0.0
 40
1.0
 40
1.0
 40
1.0
 40
2.0
 40
2.0
 40
2.0
 40
3.0
 40
3.0
 40
3.0
 40
4.0
 40
4.0
 40
4.0
 40
5.0
 40
5.0
 40
5.0
 40
6.0
 40
6.0
 40
6.0
 40
7.0
 40
7.0
 40
7.0
 40
8.0
 40
8.0
 40
8.0
 40
9.0
 40
9.0
 40
9.0
 40
10.0
 40
10.0
 40
10.0
 40
11.0
 40
11.0
 40
11.0
 40
12.0
 40
12.0
 40
12.0
 40
13.0
 40
13.0
 40
13.0
 40
14.0
 40
14.0
 40
14.0
 40
15.0
 40
15.0
 40
15.0
 40
16.0
 40
16.0
 40
16.0
 40
16.0
 10
3000.4337
 20
-434.4156000000003
 10
3000.3411
 20
-426.3855000000003
 10
2999.5833
 20
-418.2996000000003
 10
2998.85
 20
-410.4783000000007
 10
2998.0855
 20
-402.3158000000003
 10
2997.2937
 20
-393.8726999999999
 10
2997.2757
 20
-385.5694999999996
 10
2997.2171
 20
-358.5280000000002
 10
2998.966200000001
 20
-331.0488999999998
 10
3012.0481
 20
-313.2404999999999
 10
3013.9701
 20
-310.6268
 10
3016.1435
 20
-308.2983999999997
 10
3019.3383
 20
-305.4645
 10
3041.1259
 20
-325.3433000000005
 10
3067.2801
 20
-339.4892
 10
3095.228800000001
 20
-346.5100999999995
 10
3087.6985
 20
-361.7775999999994
 10
3082.7688
 20
-377.7358999999997
 10
3080.567
 20
-393.9889000000003
 10
3080.567
 20
-393.9889000000003
 10
3080.2316
 20
-396.4940000000006
 10
3080.2316
 20
-396.4940000000006
 10
3077.2418
 20
-418.7134999999998
 10
3074.1499
 20
-441.6888999999992
 10
3063.6686
 20
-461.1463000000003
 10
3055.6053
 20
-476.1245999999992
 10
3041.8696
 20
-488.0781999999999
 10
3028.5865
 20
-499.6424000000006
 10
3007.7599
 20
-517.7692999999999
 10
2986.2236
 20
-536.5151000000005
 10
2985.4355
 20
-567.4838999999993
 10
2985.4355
 20
-567.4838999999993
 10
2985.4214
 20
-568.1075000000001
 10
2985.4214
 20
-568.1075000000001
 10
2985.391100000001
 20
-569.2651000000005
 10
2985.3552
 20
-570.7373000000007
 10
2985.2947
 20
-572.3050000000003
 10
2982.3616
 20
-566.2412000000004
 10
2980.1382
 20
-559.9526000000005
 10
2978.665
 20
-553.5393000000004
 10
2973.3591
 20
-530.4467000000004
 10
2981.3061
 20
-508.0429999999997
 10
2988.9923
 20
-486.3734999999997
 10
2990.263300000001
 20
-482.7911999999997
 10
2991.5314
 20
-479.2165000000005
 10
2992.7362
 20
-475.6540000000005
 10
2996.6445
 20
-464.0935000000009
 10
3000.6152
 20
-450.1574999999993
 10
3000.4337
 20
-434.4156000000003
 97
        0
 97
        0
 92
        1
 93
        1
 72
     4
 94
        3
 73
     0
 74
     1
 95
       29
 96
       25
 40
0.0
 40
0.0
 40
0.0
 40
0.0
 40
1.0
 40
1.0
 40
1.0
 40
2.0
 40
2.0
 40
2.0
 40
3.0
 40
3.0
 40
3.0
 40
4.0
 40
4.0
 40
4.0
 40
5.0
 40
5.0
 40
5.0
 40
6.0
 40
6.0
 40
6.0
 40
7.0
 40
7.0
 40
7.0
 40
8.0
 40
8.0
 40
8.0
 40
8.0
 10
3022.7628
 20
-290.2263000000003
 10
2994.5118
 20
-261.3582000000006
 10
2977.0227
 20
-222.2232999999997
 10
2975.9218
 20
-180.3696999999993
 10
2975.163
 20
-151.4969000000001
 10
2982.0082
 20
-122.5391
 10
2995.8488
 20
-97.17100000000028
 10
3015.934600000001
 20
-60.35879999999997
 10
3050.9052
 20
-31.8137999999999
 10
3091.3498
 20
-19.6882999999998
 10
3157.4771
 20
0.0752430000002278
 10
3229.8231
 20
-25.36930000000029
 10
3269.8652
 20
-81.32899999999972
 10
3280.5299
 20
-96.23359999999957
 10
3288.6659
 20
-112.9195
 10
3293.805400000001
 20
-130.5133999999998
 10
3313.2997
 20
-197.2435999999998
 10
3286.513300000001
 20
-270.9428000000007
 10
3229.3837
 20
-310.3111000000008
 10
3167.0324
 20
-353.2788
 10
3080.3043
 20
-345.9233000000004
 10
3025.8858
 20
-293.3294999999998
 10
3024.8303
 20
-292.3089999999993
 10
3023.79
 20
-291.2743000000009
 10
3022.7628
 20
-290.2263000000003
 97
        0
 97
        0
 92
        1
 93
        1
 72
     4
 94
        3
 73
     0
 74
     1
 95
       47
 96
       43
 40
0.0
 40
0.0
 40
0.0
 40
0.0
 40
1.0
 40
1.0
 40
1.0
 40
2.0
 40
2.0
 40
2.0
 40
3.0
 40
3.0
 40
3.0
 40
4.0
 40
4.0
 40
4.0
 40
5.0
 40
5.0
 40
5.0
 40
6.0
 40
6.0
 40
6.0
 40
7.0
 40
7.0
 40
7.0
 40
8.0
 40
8.0
 40
8.0
 40
9.0
 40
9.0
 40
9.0
 40
10.0
 40
10.0
 40
10.0
 40
11.0
 40
11.0
 40
11.0
 40
12.0
 40
12.0
 40
12.0
 40
13.0
 40
13.0
 40
13.0
 40
14.0
 40
14.0
 40
14.0
 40
14.0
 10
3103.2372
 20
248.2142937295794
 10
3108.7056
 20
243.9354938376709
 10
3113.609
 20
239.1040000000003
 10
3117.8669
 20
233.7943940938567
 10
3130.3921
 20
218.1696944885698
 10
3136.240400000001
 20
199.5287949594785
 10
3136.2688
 20
175.1330955757658
 10
3136.304700000001
 20
144.0962963598213
 10
3150.5573
 20
117.0150970439499
 10
3164.341200000001
 20
90.82219999999961
 10
3174.960500000001
 20
70.64950000000044
 10
3185.9398
 20
49.78880000000026
 10
3190.2762
 20
27.31990000000042
 10
3192.0432
 20
18.15679999999975
 10
3192.606400000001
 20
10.0586000000003
 10
3191.9771
 20
2.313820000000305
 10
3191.7012
 20
-1.087989999999991
 10
3191.4177
 20
-4.58994999999959
 10
3190.654200000001
 20
-7.754579999999805
 10
3173.476999999999
 20
-2.639589999999771
 10
3154.4514
 20
0.2755719999995563
 10
3138.1209
 20
0.2755719999995563
 10
3126.138
 20
0.2755719999995563
 10
3114.2222
 20
-0.9386839999997392
 10
3102.659900000001
 20
-3.331290000000081
 10
3102.8252
 20
13.67299999999977
 10
3100.343800000001
 20
30.19070000000011
 10
3095.275100000001
 20
45.8125
 10
3088.884400000001
 20
65.46270000000004
 10
3081.6405
 20
87.73499999999967
 10
3081.2871
 20
110.1113972183521
 10
3081.234200000001
 20
113.5244971321299
 10
3081.4317
 20
117.0113970440434
 10
3081.871999999999
 20
120.4773969564849
 10
3083.76
 20
135.294196582181
 10
3089.7472
 20
148.3258962529726
 10
3096.0878
 20
162.1258959043553
 10
3100.8361
 20
172.463595643203
 10
3105.748
 20
183.1556953730978
 10
3108.739600000001
 20
194.6187950835156
 10
3114.031300000001
 20
214.9048945710456
 10
3109.2981
 20
230.6098941743039
 10
3103.2372
 20
248.2142937295794
 97
        0
 97
        0
 92
        1
 93
        1
 72
     4
 94
        3
 73
     0
 74
     1
 95
       35
 96
       31
 40
0.0
 40
0.0
 40
0.0
 40
0.0
 40
1.0
 40
1.0
 40
1.0
 40
2.0
 40
2.0
 40
2.0
 40
3.0
 40
3.0
 40
3.0
 40
4.0
 40
4.0
 40
4.0
 40
5.0
 40
5.0
 40
5.0
 40
6.0
 40
6.0
 40
6.0
 40
7.0
 40
7.0
 40
7.0
 40
8.0
 40
8.0
 40
8.0
 40
9.0
 40
9.0
 40
9.0
 40
10.0
 40
10.0
 40
10.0
 40
10.0
 10
3353.638500000001
 20
-151.4382999999998
 10
3349.591200000001
 20
-152.0573000000004
 10
3345.544
 20
-152.6809000000003
 10
3341.5195
 20
-153.4170000000004
 10
3332.018100000001
 20
-155.1661000000004
 10
3322.645200000001
 20
-158.0973999999997
 10
3313.6162
 20
-162.1417000000001
 10
3312.6533
 20
-150.0388999999996
 10
3310.1199
 20
-136.5167000000001
 10
3306.534800000001
 20
-124.3940000000002
 10
3308.6042
 20
-123.0909000000001
 10
3314.315500000001
 20
-120.4733999999999
 10
3316.5975
 20
-119.5445
 10
3321.2637
 20
-117.6423000000004
 10
3326.236000000001
 20
-116.4318999999996
 10
3331.7989
 20
-115.8536000000004
 10
3341.545
 20
-114.8396000000002
 10
3351.750400000001
 20
-115.9697999999999
 10
3361.610000000001
 20
-117.0631000000003
 10
3361.610000000001
 20
-117.0631000000003
 10
3362.522800000001
 20
-117.1642000000002
 10
3362.522800000001
 20
-117.1642000000002
 10
3383.865400000001
 20
-119.5199000000002
 10
3402.060300000001
 20
-114.3851000000004
 10
3416.6947
 20
-101.8882000000003
 10
3409.569800000001
 20
-127.1476000000002
 10
3395.2369
 20
-142.5483000000004
 10
3374.0162
 20
-147.7151999999996
 10
3367.3279
 20
-149.3396000000002
 10
3360.3693
 20
-150.4093000000003
 10
3353.638500000001
 20
-151.4382999999998
 97
        0
 97
        0
 92
        1
 93
        1
 72
     4
 94
        3
 73
     0
 74
     1
 95
       44
 96
       40
 40
0.0
 40
0.0
 40
0.0
 40
0.0
 40
1.0
 40
1.0
 40
1.0
 40
2.0
 40
2.0
 40
2.0
 40
3.0
 40
3.0
 40
3.0
 40
4.0
 40
4.0
 40
4.0
 40
5.0
 40
5.0
 40
5.0
 40
6.0
 40
6.0
 40
6.0
 40
7.0
 40
7.0
 40
7.0
 40
8.0
 40
8.0
 40
8.0
 40
9.0
 40
9.0
 40
9.0
 40
10.0
 40
10.0
 40
10.0
 40
11.0
 40
11.0
 40
11.0
 40
12.0
 40
12.0
 40
12.0
 40
13.0
 40
13.0
 40
13.0
 40
13.0
 10
3311.414500000001
 20
-106.5685000000003
 10
3308.0996
 20
-108.0964999999997
 10
3304.826300000001
 20
-109.3391000000001
 10
3301.6456
 20
-110.5173999999997
 10
3290.757
 20
-83.6857
 10
3272.7898
 20
-59.00560000000041
 10
3250.747100000001
 20
-40.59709999999995
 10
3264.1927
 20
-30.09879999999976
 10
3275.5859
 20
-17.83899999999994
 10
3284.634700000001
 20
-4.123150000000351
 10
3297.3452
 20
15.13299999999981
 10
3313.1636
 20
39.09770000000026
 10
3334.955
 20
52.44700000000012
 10
3348.3042
 20
60.6292999999996
 10
3363.125700000001
 20
64.85509999999977
 10
3375.863600000001
 20
67.90719999999965
 10
3410.7415
 20
76.27099999999973
 10
3433.256799999999
 20
90.92709999999988
 10
3447.8467
 20
115.0250970942216
 10
3447.8467
 20
115.0127970945323
 10
3447.8467
 20
114.996697094939
 10
3447.8467
 20
114.9843970952497
 10
3447.8467
 20
94.29299999999967
 10
3439.964
 20
73.6288999999997
 10
3425.6471
 20
56.80130000000008
 10
3419.925500000001
 20
50.07420000000002
 10
3413.316500000001
 20
44.31670000000031
 10
3406.925800000001
 20
38.75190000000021
 10
3396.5494
 20
29.71630000000005
 10
3385.8195
 20
20.37169999999969
 10
3378.740900000001
 20
6.724830000000111
 10
3372.7878
 20
-4.75438000000031
 10
3367.683199999999
 20
-17.09060000000045
 10
3362.7477
 20
-29.02530000000024
 10
3358.752500000001
 20
-38.67979999999989
 10
3354.6212
 20
-48.66319999999996
 10
3350.0656
 20
-58.13249999999971
 10
3340.230600000001
 20
-78.57070000000022
 10
3328.741
 20
-98.58749999999964
 10
3311.414500000001
 20
-106.5685000000003
 97
        0
 97
        0
 92
        1
 93
        1
 72
     4
 94
        3
 73
     0
 74
     1
 95
       38
 96
       34
 40
0.0
 40
0.0
 40
0.0
 40
0.0
 40
1.0
 40
1.0
 40
1.0
 40
2.0
 40
2.0
 40
2.0
 40
3.0
 40
3.0
 40
3.0
 40
4.0
 40
4.0
 40
4.0
 40
5.0
 40
5.0
 40
5.0
 40
6.0
 40
6.0
 40
6.0
 40
7.0
 40
7.0
 40
7.0
 40
8.0
 40
8.0
 40
8.0
 40
9.0
 40
9.0
 40
9.0
 40
10.0
 40
10.0
 40
10.0
 40
11.0
 40
11.0
 40
11.0
 40
11.0
 10
3236.3763
 20
-29.78880000000026
 10
3226.0178
 20
-22.83690000000024
 10
3213.2592
 20
-16.06540000000041
 10
3201.516299999999
 20
-11.32930000000033
 10
3201.454
 20
-10.66970000000038
 10
3201.5872
 20
-8.261069999999563
 10
3204.7858
 20
-1.361069999999927
 10
3206.6086
 20
2.570850000000064
 10
3208.651600000001
 20
6.302440000000388
 10
3209.6325
 20
8.095940000000155
 10
3209.6325
 20
8.095940000000155
 10
3210.0671
 20
8.896310000000085
 10
3210.0671
 20
8.896310000000085
 10
3214.879800000001
 20
17.89500000000044
 10
3221.818500000001
 20
25.55100000000039
 10
3228.529500000001
 20
32.94899999999961
 10
3238.6801
 20
44.14750000000004
 10
3249.1785
 20
55.72779999999966
 10
3252.680400000001
 20
72.2502000000004
 10
3253.969300000001
 20
78.32530000000042
 10
3254.6932
 20
83.17100000000028
 10
3254.8557
 20
86.94220000000041
 10
3263.5615
 20
74.45759999999973
 10
3268.119000000001
 20
62.06940000000031
 10
3268.427
 20
50.02229999999963
 10
3268.8305
 20
34.24449999999979
 10
3260.435600000001
 20
19.6922999999997
 10
3252.3166
 20
5.615459999999985
 10
3249.7577
 20
1.179879999999685
 10
3247.110000000001
 20
-3.41161000000011
 10
3244.8478
 20
-7.883090000000266
 10
3244.7552
 20
-8.064519999999902
 10
3237.9223
 20
-21.74359999999979
 10
3236.3763
 20
-29.78880000000026
 97
        0
 97
        0
 92
        1
 93
        1
 72
     4
 94
        3
 73
     0
 74
     1
 95
       50
 96
       46
 40
0.0
 40
0.0
 40
0.0
 40
0.0
 40
1.0
 40
1.0
 40
1.0
 40
2.0
 40
2.0
 40
2.0
 40
3.0
 40
3.0
 40
3.0
 40
4.0
 40
4.0
 40
4.0
 40
5.0
 40
5.0
 40
5.0
 40
6.0
 40
6.0
 40
6.0
 40
7.0
 40
7.0
 40
7.0
 40
8.0
 40
8.0
 40
8.0
 40
9.0
 40
9.0
 40
9.0
 40
10.0
 40
10.0
 40
10.0
 40
11.0
 40
11.0
 40
11.0
 40
12.0
 40
12.0
 40
12.0
 40
13.0
 40
13.0
 40
13.0
 40
14.0
 40
14.0
 40
14.0
 40
15.0
 40
15.0
 40
15.0
 40
15.0
 10
3364.9372
 20
-182.7613999999994
 10
3388.372800000001
 20
-181.6794000000009
 10
3412.6116
 20
-180.5701000000008
 10
3435.727800000001
 20
-186.1386000000002
 10
3451.965700000001
 20
-190.0517
 10
3465.178900000001
 20
-200.4290999999994
 10
3477.957399999999
 20
-210.4652999999998
 10
3482.066999999999
 20
-213.6941999999999
 10
3486.3145
 20
-217.0280000000002
 10
3490.6216
 20
-220.1236000000008
 10
3501.771000000001
 20
-228.1376999999993
 10
3513.496800000001
 20
-233.4776000000002
 10
3525.4712
 20
-235.9987000000001
 10
3534.421700000001
 20
-237.8886000000002
 10
3542.8166
 20
-237.1563000000006
 10
3550.9252
 20
-236.4693000000007
 10
3553.947100000001
 20
-236.2075000000004
 10
3557.0371
 20
-235.9419999999991
 10
3560.163
 20
-235.8135000000002
 10
3555.022499999999
 20
-240.8112999999994
 10
3546.7438
 20
-244.8122000000003
 10
3541.9085
 20
-247.1481000000003
 10
3523.8346
 20
-255.8822999999993
 10
3503.231
 20
-257.9328000000005
 10
3482.324000000001
 20
-253.0436000000009
 10
3458.5038
 20
-247.4902000000002
 10
3437.339899999999
 20
-247.9164000000001
 10
3413.683199999999
 20
-254.4184999999998
 10
3408.074000000001
 20
-255.9626000000007
 10
3402.3495
 20
-257.6710000000003
 10
3396.5437
 20
-259.4087999999992
 10
3364.6291
 20
-268.9423999999999
 10
3331.6278
 20
-278.8009999999995
 10
3300.6402
 20
-267.1119999999992
 10
3297.4784
 20
-265.9184999999998
 10
3294.43
 20
-264.3423999999995
 10
3291.3703
 20
-262.3155000000006
 10
3305.655000000001
 20
-237.1080999999995
 10
3313.484899999999
 20
-208.5962
 10
3314.098099999999
 20
-179.5732000000007
 10
3331.483200000001
 20
-183.6100000000006
 10
3348.111499999999
 20
-183.5334000000003
 10
3363.557500000001
 20
-182.8219000000008
 10
3363.557500000001
 20
-182.8219000000008
 10
3364.9372
 20
-182.7613999999994
 10
3364.9372
 20
-182.7613999999994
 97
        0
 97
        0
 92
        1
 93
        1
 72
     4
 94
        3
 73
     0
 74
     1
 95
       44
 96
       40
 40
0.0
 40
0.0
 40
0.0
 40
0.0
 40
1.0
 40
1.0
 40
1.0
 40
2.0
 40
2.0
 40
2.0
 40
3.0
 40
3.0
 40
3.0
 40
4.0
 40
4.0
 40
4.0
 40
5.0
 40
5.0
 40
5.0
 40
6.0
 40
6.0
 40
6.0
 40
7.0
 40
7.0
 40
7.0
 40
8.0
 40
8.0
 40
8.0
 40
9.0
 40
9.0
 40
9.0
 40
10.0
 40
10.0
 40
10.0
 40
11.0
 40
11.0
 40
11.0
 40
12.0
 40
12.0
 40
12.0
 40
13.0
 40
13.0
 40
13.0
 40
13.0
 10
2962.5707
 20
-162.6369000000004
 10
2962.2636
 20
-167.1196999999993
 10
2962.0699
 20
-172.0977000000003
 10
2962.0699
 20
-175.7564999999995
 10
2962.0699
 20
-201.1934999999994
 10
2967.3975
 20
-225.7168000000001
 10
2977.9062
 20
-248.6883999999991
 10
2961.2459
 20
-252.3235999999997
 10
2945.6845
 20
-258.4231999999993
 10
2931.6256
 20
-266.8389000000006
 10
2931.6256
 20
-266.8389000000006
 10
2930.9641
 20
-267.2330000000002
 10
2930.9641
 20
-267.2330000000002
 10
2906.2718
 20
-281.9902000000002
 10
2878.257900000001
 20
-298.7374
 10
2848.543100000001
 20
-297.1489999999994
 10
2838.195
 20
-296.6018999999997
 10
2827.2667
 20
-294.5069000000003
 10
2816.6975
 20
-292.4809999999998
 10
2789.441500000001
 20
-287.2412000000004
 10
2761.2547
 20
-281.8371000000006
 10
2736.6464
 20
-300.6311000000005
 10
2735.5285
 20
-301.491
 10
2734.198
 20
-302.5048999999999
 10
2732.805200000001
 20
-303.5339999999997
 10
2735.724099999999
 20
-297.4418999999998
 10
2739.2488
 20
-291.7808000000005
 10
2743.33
 20
-286.6421000000009
 10
2755.9413
 20
-270.7669999999998
 10
2774.224099999999
 20
-260.1203000000005
 10
2797.6729
 20
-254.9977999999992
 10
2826.760200000001
 20
-248.6401999999998
 10
2849.2547
 20
-231.1530000000002
 10
2863.0046
 20
-217.6072000000004
 10
2883.594
 20
-197.3088000000007
 10
2908.450800000001
 20
-175.3624999999993
 10
2936.700000000001
 20
-166.4526000000005
 10
2938.812900000001
 20
-165.7891999999993
 10
2957.0843
 20
-162.7087000000001
 10
2962.5707
 20
-162.6369000000004
 97
        0
 97
        0
 92
        1
 93
        1
 72
     4
 94
        3
 73
     0
 74
     1
 95
       35
 96
       31
 40
0.0
 40
0.0
 40
0.0
 40
0.0
 40
1.0
 40
1.0
 40
1.0
 40
2.0
 40
2.0
 40
2.0
 40
3.0
 40
3.0
 40
3.0
 40
4.0
 40
4.0
 40
4.0
 40
5.0
 40
5.0
 40
5.0
 40
6.0
 40
6.0
 40
6.0
 40
7.0
 40
7.0
 40
7.0
 40
8.0
 40
8.0
 40
8.0
 40
9.0
 40
9.0
 40
9.0
 40
10.0
 40
10.0
 40
10.0
 40
10.0
 10
2963.961600000001
 20
-149.9349000000002
 10
2960.817800000001
 20
-150.9072999999999
 10
2946.9054
 20
-148.8085000000001
 10
2944.3361
 20
-148.1008000000002
 10
2934.6834
 20
-145.4313000000002
 10
2925.9276
 20
-140.2718999999997
 10
2917.4618
 20
-135.2864
 10
2917.4618
 20
-135.2864
 10
2914.3397
 20
-133.4531999999999
 10
2914.3397
 20
-133.4531999999999
 10
2910.025100000001
 20
-130.9358000000002
 10
2905.3693
 20
-128.3060999999998
 10
2900.553900000001
 20
-126.1023999999998
 10
2890.871999999999
 20
-121.6791999999996
 10
2880.9557
 20
-119.4594999999999
 10
2871.142400000001
 20
-119.4594999999999
 10
2865.7251
 20
-119.4594999999999
 10
2860.337
 20
-120.1397999999999
 10
2855.0387
 20
-121.4948999999997
 10
2872.4115
 20
-101.7879999999996
 10
2892.009700000001
 20
-94.11219999999958
 10
2913.392900000001
 20
-98.69620000000032
 10
2920.3694
 20
-100.1711999999998
 10
2927.303400000001
 20
-102.1216000000004
 10
2934.0078
 20
-104.0077000000001
 10
2946.8373
 20
-107.6145999999999
 10
2960.0741
 20
-111.3338999999996
 10
2974.094300000001
 20
-111.8725000000004
 10
2969.654
 20
-123.3319000000001
 10
2965.999
 20
-137.0514999999996
 10
2963.961600000001
 20
-149.9349000000002
 97
        0
 97
        0
 75
     2
 76
     1
 98
        0
  0
ENDSEC
  0
SECTION
  2
OBJECTS
  0
DICTIONARY
  5
C
330
0
100
AcDbDictionary
281
     1
  3
ACAD_GROUP
350
D
  3
ACAD_LAYOUT
350
1A
  3
ACAD_MATERIAL
350
3B
  3
ACAD_MLEADERSTYLE
350
53
  3
ACAD_MLINESTYLE
350
17
  3
ACAD_PLOTSETTINGS
350
19
  3
ACAD_PLOTSTYLENAME
350
E
  3
ACAD_TABLESTYLE
350
52
  3
ACAD_VISUALSTYLE
350
2A
  0
SUN
  5
3F
330
29
100
AcDbSun
 90
        1
290
     0
 63
     7
421
 16777215
 40
1.0
291
     1
 91
  2455826
 92
 54000000
292
     0
 70
     2
 71
   256
280
     1
  0
DICTIONARY
  5
D
102
{ACAD_REACTORS
330
C
102
}
330
C
100
AcDbDictionary
281
     1
  0
DICTIONARY
  5
1A
102
{ACAD_REACTORS
330
C
102
}
330
C
100
AcDbDictionary
281
     1
  3
Layout1
350
1E
  3
Layout2
350
26
  3
Model
350
22
  0
DICTIONARY
  5
3B
102
{ACAD_REACTORS
330
C
102
}
330
C
100
AcDbDictionary
281
     1
  3
ByBlock
350
3D
  3
ByLayer
350
3C
  3
Global
350
3E
  0
DICTIONARY
  5
53
102
{ACAD_REACTORS
330
C
102
}
330
C
100
AcDbDictionary
281
     1
  0
DICTIONARY
  5
17
102
{ACAD_REACTORS
330
C
102
}
330
C
100
AcDbDictionary
281
     1
  3
Standard
350
18
  0
DICTIONARY
  5
19
102
{ACAD_REACTORS
330
C
102
}
330
C
100
AcDbDictionary
281
     1
  0
ACDBDICTIONARYWDFLT
  5
E
102
{ACAD_REACTORS
330
C
102
}
330
C
100
AcDbDictionary
281
     1
  3
Normal
350
F
100
AcDbDictionaryWithDefault
340
F
  0
DICTIONARY
  5
52
102
{ACAD_REACTORS
330
C
102
}
330
C
100
AcDbDictionary
281
     1
  0
DICTIONARY
  5
2A
102
{ACAD_REACTORS
330
C
102
}
330
C
100
AcDbDictionary
281
     1
  3
2dWireframe
350
2F
  3
3D Hidden
350
31
  3
3dWireframe
350
30
  3
Basic
350
32
  3
Brighten
350
36
  3
ColorChange
350
3A
  3
Conceptual
350
34
  3
Dim
350
35
  3
Facepattern
350
39
  3
Flat
350
2B
  3
FlatWithEdges
350
2C
  3
Gouraud
350
2D
  3
GouraudWithEdges
350
2E
  3
Linepattern
350
38
  3
Realistic
350
33
  3
Thicken
350
37
  0
LAYOUT
  5
1E
102
{ACAD_REACTORS
330
1A
102
}
330
1A
100
AcDbPlotSettings
  1

  2
none_device
  4

  6

 40
0.0
 41
0.0
 42
0.0
 43
0.0
 44
0.0
 45
0.0
 46
0.0
 47
0.0
 48
0.0
 49
0.0
140
0.0
141
0.0
142
1.0
143
1.0
 70
   688
 72
     0
 73
     0
 74
     5
  7

 75
    16
 76
     0
 77
     2
 78
   300
147
1.0
148
0.0
149
0.0
100
AcDbLayout
  1
Layout1
 70
     1
 71
     1
 10
0.0
 20
0.0
 11
12.0
 21
9.0
 12
0.0
 22
0.0
 32
0.0
 14
1.000000000000000E+20
 24
1.000000000000000E+20
 34
1.000000000000000E+20
 15
-1.000000000000000E+20
 25
-1.000000000000000E+20
 35
-1.000000000000000E+20
146
0.0
 13
0.0
 23
0.0
 33
0.0
 16
1.0
 26
0.0
 36
0.0
 17
0.0
 27
1.0
 37
0.0
 76
     0
330
1B
  0
LAYOUT
  5
26
102
{ACAD_REACTORS
330
1A
102
}
330
1A
100
AcDbPlotSettings
  1

  2
none_device
  4

  6

 40
0.0
 41
0.0
 42
0.0
 43
0.0
 44
0.0
 45
0.0
 46
0.0
 47
0.0
 48
0.0
 49
0.0
140
0.0
141
0.0
142
1.0
143
1.0
 70
   688
 72
     0
 73
     0
 74
     5
  7

 75
    16
 76
     0
 77
     2
 78
   300
147
1.0
148
0.0
149
0.0
100
AcDbLayout
  1
Layout2
 70
     1
 71
     2
 10
0.0
 20
0.0
 11
0.0
 21
0.0
 12
0.0
 22
0.0
 32
0.0
 14
0.0
 24
0.0
 34
0.0
 15
0.0
 25
0.0
 35
0.0
146
0.0
 13
0.0
 23
0.0
 33
0.0
 16
1.0
 26
0.0
 36
0.0
 17
0.0
 27
1.0
 37
0.0
 76
     0
330
23
  0
LAYOUT
  5
22
102
{ACAD_REACTORS
330
1A
102
}
330
1A
100
AcDbPlotSettings
  1

  2
none_device
  4

  6

 40
0.0
 41
0.0
 42
0.0
 43
0.0
 44
0.0
 45
0.0
 46
0.0
 47
0.0
 48
0.0
 49
0.0
140
0.0
141
0.0
142
1.0
143
1.0
 70
  1712
 72
     0
 73
     0
 74
     0
  7

 75
     0
 76
     0
 77
     2
 78
   300
147
1.0
148
0.0
149
0.0
100
AcDbLayout
  1
Model
 70
     1
 71
     0
 10
0.0
 20
0.0
 11
12.0
 21
9.0
 12
0.0
 22
0.0
 32
0.0
 14
1.000000000000000E+20
 24
1.000000000000000E+20
 34
1.000000000000000E+20
 15
-1.000000000000000E+20
 25
-1.000000000000000E+20
 35
-1.000000000000000E+20
146
0.0
 13
0.0
 23
0.0
 33
0.0
 16
1.0
 26
0.0
 36
0.0
 17
0.0
 27
1.0
 37
0.0
 76
     0
330
1F
331
29
  0
MATERIAL
  5
3D
102
{ACAD_REACTORS
330
3B
102
}
330
3B
100
AcDbMaterial
  1
ByBlock
 72
     1
 94
      127
  0
MATERIAL
  5
3C
102
{ACAD_REACTORS
330
3B
102
}
330
3B
100
AcDbMaterial
  1
ByLayer
 72
     1
 94
      127
  0
MATERIAL
  5
3E
102
{ACAD_REACTORS
330
3B
102
}
330
3B
100
AcDbMaterial
  1
Global
 72
     1
 94
      127
  0
MLINESTYLE
  5
18
102
{ACAD_REACTORS
330
17
102
}
330
17
100
AcDbMlineStyle
  2
Standard
 70
     0
  3

 62
   256
 51
90.0
 52
90.0
 71
     2
 49
0.5
 62
   256
  6
BYLAYER
 49
-0.5
 62
   256
  6
BYLAYER
  0
ACDBPLACEHOLDER
  5
F
102
{ACAD_REACTORS
330
E
102
}
330
E
  0
VISUALSTYLE
  5
2F
102
{ACAD_REACTORS
330
2A
102
}
330
2A
100
AcDbVisualStyle
  2
2dWireframe
 70
     4
177
     2
291
     0
 71
     0
176
     1
 72
     2
176
     1
 73
     0
176
     1
 90
        0
176
     1
 40
-0.6
176
     1
 41
-30.0
176
     1
 62
     5
 63
     7
421
 16777215
176
     1
 74
     1
176
     1
 91
        4
176
     1
 64
     7
176
     1
 65
   257
176
     1
 75
     1
176
     1
175
     1
176
     1
 42
1.0
176
     1
 92
        0
176
     1
 66
   257
176
     1
 43
1.0
176
     1
 76
     1
176
     1
 77
     6
176
     1
 78
     2
176
     1
 67
     7
176
     1
 79
     5
176
     1
170
     0
176
     1
171
     0
176
     1
290
     0
176
     1
 93
        1
176
     1
 44
0.0
176
     1
173
     0
176
     1
  0
VISUALSTYLE
  5
31
102
{ACAD_REACTORS
330
2A
102
}
330
2A
100
AcDbVisualStyle
  2
3D Hidden
 70
     6
177
     2
291
     0
 71
     1
176
     1
 72
     2
176
     1
 73
     2
176
     1
 90
        0
176
     1
 40
-0.6
176
     1
 41
-30.0
176
     1
 62
     5
 63
     7
421
 16777215
176
     1
 74
     2
176
     1
 91
        2
176
     1
 64
     7
176
     1
 65
   257
176
     1
 75
     2
176
     1
175
     1
176
     1
 42
40.0
176
     1
 92
        0
176
     1
 66
   257
176
     1
 43
1.0
176
     1
 76
     1
176
     1
 77
     6
176
     1
 78
     2
176
     1
 67
     7
176
     1
 79
     3
176
     1
170
     0
176
     1
171
     0
176
     1
290
     0
176
     1
 93
        1
176
     1
 44
0.0
176
     1
173
     0
176
     1
  0
VISUALSTYLE
  5
30
102
{ACAD_REACTORS
330
2A
102
}
330
2A
100
AcDbVisualStyle
  2
3dWireframe
 70
     5
177
     2
291
     0
 71
     0
176
     1
 72
     2
176
     1
 73
     0
176
     1
 90
        0
176
     1
 40
-0.6
176
     1
 41
-30.0
176
     1
 62
     5
 63
     7
421
 16777215
176
     1
 74
     1
176
     1
 91
        4
176
     1
 64
     7
176
     1
 65
   257
176
     1
 75
     1
176
     1
175
     1
176
     1
 42
1.0
176
     1
 92
        0
176
     1
 66
   257
176
     1
 43
1.0
176
     1
 76
     1
176
     1
 77
     6
176
     1
 78
     2
176
     1
 67
     7
176
     1
 79
     5
176
     1
170
     0
176
     1
171
     0
176
     1
290
     0
176
     1
 93
        1
176
     1
 44
0.0
176
     1
173
     0
176
     1
  0
VISUALSTYLE
  5
32
102
{ACAD_REACTORS
330
2A
102
}
330
2A
100
AcDbVisualStyle
  2
Basic
 70
     7
177
     2
291
     1
 71
     1
176
     1
 72
     0
176
     1
 73
     1
176
     1
 90
        0
176
     1
 40
-0.6
176
     1
 41
-30.0
176
     1
 62
     5
 63
     7
421
 16777215
176
     1
 74
     0
176
     1
 91
        4
176
     1
 64
     7
176
     1
 65
   257
176
     1
 75
     1
176
     1
175
     1
176
     1
 42
1.0
176
     1
 92
        8
176
     1
 66
     7
176
     1
 43
1.0
176
     1
 76
     1
176
     1
 77
     6
176
     1
 78
     2
176
     1
 67
     7
176
     1
 79
     5
176
     1
170
     0
176
     1
171
     0
176
     1
290
     0
176
     1
 93
        1
176
     1
 44
0.0
176
     1
173
     0
176
     1
  0
VISUALSTYLE
  5
36
102
{ACAD_REACTORS
330
2A
102
}
330
2A
100
AcDbVisualStyle
  2
Brighten
 70
    12
177
     2
291
     1
 71
     2
176
     1
 72
     2
176
     1
 73
     0
176
     1
 90
        0
176
     1
 40
-0.6
176
     1
 41
-30.0
176
     1
 62
     5
 63
     7
421
 16777215
176
     1
 74
     1
176
     1
 91
        4
176
     1
 64
     7
176
     1
 65
   257
176
     1
 75
     1
176
     1
175
     1
176
     1
 42
1.0
176
     1
 92
        8
176
     1
 66
     7
176
     1
 43
1.0
176
     1
 76
     1
176
     1
 77
     6
176
     1
 78
     2
176
     1
 67
     7
176
     1
 79
     5
176
     1
170
     0
176
     1
171
     0
176
     1
290
     0
176
     1
 93
        1
176
     1
 44
50.0
176
     1
173
     0
176
     1
  0
VISUALSTYLE
  5
3A
102
{ACAD_REACTORS
330
2A
102
}
330
2A
100
AcDbVisualStyle
  2
ColorChange
 70
    16
177
     2
291
     1
 71
     2
176
     1
 72
     2
176
     1
 73
     3
176
     1
 90
        0
176
     1
 40
-0.6
176
     1
 41
-30.0
176
     1
 62
     5
 63
     8
421
  8421504
176
     1
 74
     1
176
     1
 91
        4
176
     1
 64
     7
176
     1
 65
   257
176
     1
 75
     1
176
     1
175
     1
176
     1
 42
1.0
176
     1
 92
        8
176
     1
 66
     8
424
  8421504
176
     1
 43
1.0
176
     1
 76
     1
176
     1
 77
     6
176
     1
 78
     2
176
     1
 67
     7
176
     1
 79
     5
176
     1
170
     0
176
     1
171
     0
176
     1
290
     0
176
     1
 93
        1
176
     1
 44
0.0
176
     1
173
     0
176
     1
  0
VISUALSTYLE
  5
34
102
{ACAD_REACTORS
330
2A
102
}
330
2A
100
AcDbVisualStyle
  2
Conceptual
 70
     9
177
     2
291
     0
 71
     3
176
     1
 72
     2
176
     1
 73
     0
176
     1
 90
        0
176
     1
 40
-0.6
176
     1
 41
-30.0
176
     1
 62
     5
 63
     7
421
 16777215
176
     1
 74
     2
176
     1
 91
        2
176
     1
 64
     7
176
     1
 65
   257
176
     1
 75
     1
176
     1
175
     1
176
     1
 42
40.0
176
     1
 92
        8
176
     1
 66
     7
176
     1
 43
1.0
176
     1
 76
     1
176
     1
 77
     6
176
     1
 78
     2
176
     1
 67
     7
176
     1
 79
     3
176
     1
170
     0
176
     1
171
     0
176
     1
290
     0
176
     1
 93
        1
176
     1
 44
0.0
176
     1
173
     0
176
     1
  0
VISUALSTYLE
  5
35
102
{ACAD_REACTORS
330
2A
102
}
330
2A
100
AcDbVisualStyle
  2
Dim
 70
    11
177
     2
291
     1
 71
     2
176
     1
 72
     2
176
     1
 73
     0
176
     1
 90
        0
176
     1
 40
-0.6
176
     1
 41
-30.0
176
     1
 62
     5
 63
     7
421
 16777215
176
     1
 74
     1
176
     1
 91
        4
176
     1
 64
     7
176
     1
 65
   257
176
     1
 75
     1
176
     1
175
     1
176
     1
 42
1.0
176
     1
 92
        8
176
     1
 66
     7
176
     1
 43
1.0
176
     1
 76
     1
176
     1
 77
     6
176
     1
 78
     2
176
     1
 67
     7
176
     1
 79
     5
176
     1
170
     0
176
     1
171
     0
176
     1
290
     0
176
     1
 93
        1
176
     1
 44
-50.0
176
     1
173
     0
176
     1
  0
VISUALSTYLE
  5
39
102
{ACAD_REACTORS
330
2A
102
}
330
2A
100
AcDbVisualStyle
  2
Facepattern
 70
    15
177
     2
291
     1
 71
     2
176
     1
 72
     2
176
     1
 73
     0
176
     1
 90
        0
176
     1
 40
-0.6
176
     1
 41
-30.0
176
     1
 62
     5
 63
     7
421
 16777215
176
     1
 74
     1
176
     1
 91
        4
176
     1
 64
     7
176
     1
 65
   257
176
     1
 75
     1
176
     1
175
     1
176
     1
 42
1.0
176
     1
 92
        8
176
     1
 66
     7
176
     1
 43
1.0
176
     1
 76
     1
176
     1
 77
     6
176
     1
 78
     2
176
     1
 67
     7
176
     1
 79
     5
176
     1
170
     0
176
     1
171
     0
176
     1
290
     0
176
     1
 93
        1
176
     1
 44
0.0
176
     1
173
     0
176
     1
  0
VISUALSTYLE
  5
2B
102
{ACAD_REACTORS
330
2A
102
}
330
2A
100
AcDbVisualStyle
  2
Flat
 70
     0
177
     2
291
     1
 71
     2
176
     1
 72
     1
176
     1
 73
     1
176
     1
 90
        2
176
     1
 40
-0.6
176
     1
 41
30.0
176
     1
 62
     5
 63
     7
421
 16777215
176
     1
 74
     0
176
     1
 91
        4
176
     1
 64
     7
176
     1
 65
   257
176
     1
 75
     1
176
     1
175
     1
176
     1
 42
1.0
176
     1
 92
        8
176
     1
 66
     7
176
     1
 43
1.0
176
     1
 76
     1
176
     1
 77
     6
176
     1
 78
     2
176
     1
 67
     7
176
     1
 79
     5
176
     1
170
     0
176
     1
171
     0
176
     1
290
     0
176
     1
 93
       13
176
     1
 44
0.0
176
     1
173
     0
176
     1
  0
VISUALSTYLE
  5
2C
102
{ACAD_REACTORS
330
2A
102
}
330
2A
100
AcDbVisualStyle
  2
FlatWithEdges
 70
     1
177
     2
291
     1
 71
     2
176
     1
 72
     1
176
     1
 73
     1
176
     1
 90
        2
176
     1
 40
-0.6
176
     1
 41
30.0
176
     1
 62
     5
 63
     7
421
 16777215
176
     1
 74
     1
176
     1
 91
        4
176
     1
 64
     7
176
     1
 65
   257
176
     1
 75
     1
176
     1
175
     1
176
     1
 42
1.0
176
     1
 92
        0
176
     1
 66
   257
176
     1
 43
1.0
176
     1
 76
     1
176
     1
 77
     6
176
     1
 78
     2
176
     1
 67
     7
176
     1
 79
     5
176
     1
170
     0
176
     1
171
     0
176
     1
290
     0
176
     1
 93
       13
176
     1
 44
0.0
176
     1
173
     0
176
     1
  0
VISUALSTYLE
  5
2D
102
{ACAD_REACTORS
330
2A
102
}
330
2A
100
AcDbVisualStyle
  2
Gouraud
 70
     2
177
     2
291
     1
 71
     2
176
     1
 72
     2
176
     1
 73
     1
176
     1
 90
        2
176
     1
 40
-0.6
176
     1
 41
30.0
176
     1
 62
     5
 63
     7
421
 16777215
176
     1
 74
     0
176
     1
 91
        4
176
     1
 64
     7
176
     1
 65
   257
176
     1
 75
     1
176
     1
175
     1
176
     1
 42
1.0
176
     1
 92
        0
176
     1
 66
     7
176
     1
 43
1.0
176
     1
 76
     1
176
     1
 77
     6
176
     1
 78
     2
176
     1
 67
     7
176
     1
 79
     5
176
     1
170
     0
176
     1
171
     0
176
     1
290
     0
176
     1
 93
       13
176
     1
 44
0.0
176
     1
173
     0
176
     1
  0
VISUALSTYLE
  5
2E
102
{ACAD_REACTORS
330
2A
102
}
330
2A
100
AcDbVisualStyle
  2
GouraudWithEdges
 70
     3
177
     2
291
     1
 71
     2
176
     1
 72
     2
176
     1
 73
     1
176
     1
 90
        2
176
     1
 40
-0.6
176
     1
 41
30.0
176
     1
 62
     5
 63
     7
421
 16777215
176
     1
 74
     1
176
     1
 91
        4
176
     1
 64
     7
176
     1
 65
   257
176
     1
 75
     1
176
     1
175
     1
176
     1
 42
1.0
176
     1
 92
        0
176
     1
 66
   257
176
     1
 43
1.0
176
     1
 76
     1
176
     1
 77
     6
176
     1
 78
     2
176
     1
 67
     7
176
     1
 79
     5
176
     1
170
     0
176
     1
171
     0
176
     1
290
     0
176
     1
 93
       13
176
     1
 44
0.0
176
     1
173
     0
176
     1
  0
VISUALSTYLE
  5
38
102
{ACAD_REACTORS
330
2A
102
}
330
2A
100
AcDbVisualStyle
  2
Linepattern
 70
    14
177
     2
291
     1
 71
     2
176
     1
 72
     2
176
     1
 73
     0
176
     1
 90
        0
176
     1
 40
-0.6
176
     1
 41
-30.0
176
     1
 62
     5
 63
     7
421
 16777215
176
     1
 74
     1
176
     1
 91
        4
176
     1
 64
     7
176
     1
 65
   257
176
     1
 75
     7
176
     1
175
     7
176
     1
 42
1.0
176
     1
 92
        8
176
     1
 66
     7
176
     1
 43
1.0
176
     1
 76
     1
176
     1
 77
     6
176
     1
 78
     2
176
     1
 67
     7
176
     1
 79
     5
176
     1
170
     0
176
     1
171
     0
176
     1
290
     0
176
     1
 93
        1
176
     1
 44
0.0
176
     1
173
     0
176
     1
  0
VISUALSTYLE
  5
33
102
{ACAD_REACTORS
330
2A
102
}
330
2A
100
AcDbVisualStyle
  2
Realistic
 70
     8
177
     2
291
     0
 71
     2
176
     1
 72
     2
176
     1
 73
     0
176
     1
 90
        0
176
     1
 40
-0.6
176
     1
 41
-30.0
176
     1
 62
     5
 63
     7
421
 16777215
176
     1
 74
     1
176
     1
 91
        0
176
     1
 64
     7
176
     1
 65
   257
176
     1
 75
     1
176
     1
175
     1
176
     1
 42
1.0
176
     1
 92
        8
176
     1
 66
     8
424
  7895160
176
     1
 43
1.0
176
     1
 76
     1
176
     1
 77
     6
176
     1
 78
     2
176
     1
 67
     7
176
     1
 79
     5
176
     1
170
     0
176
     1
171
     0
176
     1
290
     0
176
     1
 93
       13
176
     1
 44
0.0
176
     1
173
     0
176
     1
  0
VISUALSTYLE
  5
37
102
{ACAD_REACTORS
330
2A
102
}
330
2A
100
AcDbVisualStyle
  2
Thicken
 70
    13
177
     2
291
     1
 71
     2
176
     1
 72
     2
176
     1
 73
     0
176
     1
 90
        0
176
     1
 40
-0.6
176
     1
 41
-30.0
176
     1
 62
     5
 63
     7
421
 16777215
176
     1
 74
     1
176
     1
 91
        4
176
     1
 64
     7
176
     1
 65
   257
176
     1
 75
     1
176
     1
175
     1
176
     1
 42
1.0
176
     1
 92
       12
176
     1
 66
     7
176
     1
 43
1.0
176
     1
 76
     1
176
     1
 77
     6
176
     1
 78
     2
176
     1
 67
     7
176
     1
 79
     5
176
     1
170
     0
176
     1
171
     0
176
     1
290
     0
176
     1
 93
        1
176
     1
 44
0.0
176
     1
173
     0
176
     1
  0
ENDSEC
  0
EOF
