  0
SECTION
  2
HEADER
  9
$ACADVER
  1
AC1024
  9
$ACADMAINTVER
 70
     6
  9
$DWGCODEPAGE
  3
ANSI_1251
  9
$INSBASE
 10
0.0
 20
0.0
 30
0.0
  9
$EXTMIN
 10
1.000000000000000E+20
 20
1.000000000000000E+20
 30
1.000000000000000E+20
  9
$EXTMAX
 10
-1.000000000000000E+20
 20
-1.000000000000000E+20
 30
-1.000000000000000E+20
  9
$LIMMIN
 10
0.0
 20
0.0
  9
$LIMMAX
 10
12.0
 20
9.0
  9
$ORTHOMODE
 70
     0
  9
$REGENMODE
 70
     1
  9
$FILLMODE
 70
     1
  9
$QTEXTMODE
 70
     0
  9
$MIRRTEXT
 70
     1
  9
$LTSCALE
 40
1.0
  9
$ATTMODE
 70
     1
  9
$TEXTSIZE
 40
0.2
  9
$TRACEWID
 40
0.05
  9
$TEXTSTYLE
  7
Standard
  9
$CLAYER
  8
0
  9
$CELTYPE
  6
ByLayer
  9
$CECOLOR
 62
   256
  9
$CELTSCALE
 40
1.0
  9
$DISPSILH
 70
     0
  9
$DIMSCALE
 40
1.0
  9
$DIMASZ
 40
0.18
  9
$DIMEXO
 40
0.0625
  9
$DIMDLI
 40
0.38
  9
$DIMRND
 40
0.0
  9
$DIMDLE
 40
0.0
  9
$DIMEXE
 40
0.18
  9
$DIMTP
 40
0.0
  9
$DIMTM
 40
0.0
  9
$DIMTXT
 40
0.18
  9
$DIMCEN
 40
0.09
  9
$DIMTSZ
 40
0.0
  9
$DIMTOL
 70
     0
  9
$DIMLIM
 70
     0
  9
$DIMTIH
 70
     1
  9
$DIMTOH
 70
     1
  9
$DIMSE1
 70
     0
  9
$DIMSE2
 70
     0
  9
$DIMTAD
 70
     0
  9
$DIMZIN
 70
     0
  9
$DIMBLK
  1

  9
$DIMASO
 70
     1
  9
$DIMSHO
 70
     1
  9
$DIMPOST
  1

  9
$DIMAPOST
  1

  9
$DIMALT
 70
     0
  9
$DIMALTD
 70
     2
  9
$DIMALTF
 40
25.4
  9
$DIMLFAC
 40
1.0
  9
$DIMTOFL
 70
     0
  9
$DIMTVP
 40
0.0
  9
$DIMTIX
 70
     0
  9
$DIMSOXD
 70
     0
  9
$DIMSAH
 70
     0
  9
$DIMBLK1
  1

  9
$DIMBLK2
  1

  9
$DIMSTYLE
  2
Standard
  9
$DIMCLRD
 70
     0
  9
$DIMCLRE
 70
     0
  9
$DIMCLRT
 70
     0
  9
$DIMTFAC
 40
1.0
  9
$DIMGAP
 40
0.09
  9
$DIMJUST
 70
     0
  9
$DIMSD1
 70
     0
  9
$DIMSD2
 70
     0
  9
$DIMTOLJ
 70
     1
  9
$DIMTZIN
 70
     0
  9
$DIMALTZ
 70
     0
  9
$DIMALTTZ
 70
     0
  9
$DIMUPT
 70
     0
  9
$DIMDEC
 70
     4
  9
$DIMTDEC
 70
     4
  9
$DIMALTU
 70
     2
  9
$DIMALTTD
 70
     2
  9
$DIMTXSTY
  7
Standard
  9
$DIMAUNIT
 70
     0
  9
$DIMADEC
 70
     0
  9
$DIMALTRND
 40
0.0
  9
$DIMAZIN
 70
     0
  9
$DIMDSEP
 70
    46
  9
$DIMATFIT
 70
     3
  9
$DIMFRAC
 70
     0
  9
$DIMLDRBLK
  1

  9
$DIMLUNIT
 70
     2
  9
$DIMLWD
 70
    -2
  9
$DIMLWE
 70
    -2
  9
$DIMTMOVE
 70
     0
  9
$DIMFXL
 40
1.0
  9
$DIMFXLON
 70
     0
  9
$DIMJOGANG
 40
0.7853981633974483
  9
$DIMTFILL
 70
     0
  9
$DIMTFILLCLR
 70
     0
  9
$DIMARCSYM
 70
     0
  9
$DIMLTYPE
  6

  9
$DIMLTEX1
  6

  9
$DIMLTEX2
  6

  9
$DIMTXTDIRECTION
 70
     0
  9
$LUNITS
 70
     2
  9
$LUPREC
 70
     4
  9
$SKETCHINC
 40
0.1
  9
$FILLETRAD
 40
0.5
  9
$AUNITS
 70
     0
  9
$AUPREC
 70
     0
  9
$MENU
  1
.
  9
$ELEVATION
 40
0.0
  9
$PELEVATION
 40
0.0
  9
$THICKNESS
 40
0.0
  9
$LIMCHECK
 70
     0
  9
$CHAMFERA
 40
0.5
  9
$CHAMFERB
 40
0.5
  9
$CHAMFERC
 40
1.0
  9
$CHAMFERD
 40
0.0
  9
$SKPOLY
 70
     0
  9
$TDCREATE
 40
2459337.658776227
  9
$TDUCREATE
 40
2459337.533776227
  9
$TDUPDATE
 40
2459337.658776401
  9
$TDUUPDATE
 40
2459337.533776401
  9
$TDINDWG
 40
0.0000000116
  9
$TDUSRTIMER
 40
0.0000000116
  9
$USRTIMER
 70
     1
  9
$ANGBASE
 50
0.0
  9
$ANGDIR
 70
     0
  9
$PDMODE
 70
     0
  9
$PDSIZE
 40
0.0
  9
$PLINEWID
 40
0.0
  9
$SPLFRAME
 70
     0
  9
$SPLINETYPE
 70
     6
  9
$SPLINESEGS
 70
     8
  9
$HANDSEED
  5
81
  9
$SURFTAB1
 70
     6
  9
$SURFTAB2
 70
     6
  9
$SURFTYPE
 70
     6
  9
$SURFU
 70
     6
  9
$SURFV
 70
     6
  9
$UCSBASE
  2

  9
$UCSNAME
  2

  9
$UCSORG
 10
0.0
 20
0.0
 30
0.0
  9
$UCSXDIR
 10
1.0
 20
0.0
 30
0.0
  9
$UCSYDIR
 10
0.0
 20
1.0
 30
0.0
  9
$UCSORTHOREF
  2

  9
$UCSORTHOVIEW
 70
     0
  9
$UCSORGTOP
 10
0.0
 20
0.0
 30
0.0
  9
$UCSORGBOTTOM
 10
0.0
 20
0.0
 30
0.0
  9
$UCSORGLEFT
 10
0.0
 20
0.0
 30
0.0
  9
$UCSORGRIGHT
 10
0.0
 20
0.0
 30
0.0
  9
$UCSORGFRONT
 10
0.0
 20
0.0
 30
0.0
  9
$UCSORGBACK
 10
0.0
 20
0.0
 30
0.0
  9
$PUCSBASE
  2

  9
$PUCSNAME
  2

  9
$PUCSORG
 10
0.0
 20
0.0
 30
0.0
  9
$PUCSXDIR
 10
1.0
 20
0.0
 30
0.0
  9
$PUCSYDIR
 10
0.0
 20
1.0
 30
0.0
  9
$PUCSORTHOREF
  2

  9
$PUCSORTHOVIEW
 70
     0
  9
$PUCSORGTOP
 10
0.0
 20
0.0
 30
0.0
  9
$PUCSORGBOTTOM
 10
0.0
 20
0.0
 30
0.0
  9
$PUCSORGLEFT
 10
0.0
 20
0.0
 30
0.0
  9
$PUCSORGRIGHT
 10
0.0
 20
0.0
 30
0.0
  9
$PUCSORGFRONT
 10
0.0
 20
0.0
 30
0.0
  9
$PUCSORGBACK
 10
0.0
 20
0.0
 30
0.0
  9
$USERI1
 70
     0
  9
$USERI2
 70
     0
  9
$USERI3
 70
     0
  9
$USERI4
 70
     0
  9
$USERI5
 70
     0
  9
$USERR1
 40
0.0
  9
$USERR2
 40
0.0
  9
$USERR3
 40
0.0
  9
$USERR4
 40
0.0
  9
$USERR5
 40
0.0
  9
$WORLDVIEW
 70
     1
  9
$SHADEDGE
 70
     3
  9
$SHADEDIF
 70
    70
  9
$TILEMODE
 70
     1
  9
$MAXACTVP
 70
    64
  9
$PINSBASE
 10
0.0
 20
0.0
 30
0.0
  9
$PLIMCHECK
 70
     0
  9
$PEXTMIN
 10
1.000000000000000E+20
 20
1.000000000000000E+20
 30
1.000000000000000E+20
  9
$PEXTMAX
 10
-1.000000000000000E+20
 20
-1.000000000000000E+20
 30
-1.000000000000000E+20
  9
$PLIMMIN
 10
0.0
 20
0.0
  9
$PLIMMAX
 10
12.0
 20
9.0
  9
$UNITMODE
 70
     0
  9
$VISRETAIN
 70
     1
  9
$PLINEGEN
 70
     0
  9
$PSLTSCALE
 70
     1
  9
$TREEDEPTH
 70
  3020
  9
$CMLSTYLE
  2
Standard
  9
$CMLJUST
 70
     0
  9
$CMLSCALE
 40
1.0
  9
$PROXYGRAPHICS
 70
     1
  9
$MEASUREMENT
 70
     0
  9
$CELWEIGHT
370
    -1
  9
$ENDCAPS
280
     0
  9
$JOINSTYLE
280
     0
  9
$LWDISPLAY
290
     1
  9
$INSUNITS
 70
     1
  9
$HYPERLINKBASE
  1

  9
$STYLESHEET
  1

  9
$XEDIT
290
     1
  9
$CEPSNTYPE
380
     0
  9
$PSTYLEMODE
290
     1
  9
$FINGERPRINTGUID
  2
{8ABBAEAA-A1D0-4AD9-93E2-A5C1A3771816}
  9
$VERSIONGUID
  2
{FAEB1C32-E019-11D5-929B-00C0DF256EC4}
  9
$EXTNAMES
290
     1
  9
$PSVPSCALE
 40
0.0
  9
$OLESTARTUP
290
     0
  9
$SORTENTS
280
   127
  9
$INDEXCTL
280
     0
  9
$HIDETEXT
280
     1
  9
$XCLIPFRAME
280
     2
  9
$HALOGAP
280
     0
  9
$OBSCOLOR
 70
   257
  9
$OBSLTYPE
280
     0
  9
$INTERSECTIONDISPLAY
280
     0
  9
$INTERSECTIONCOLOR
 70
   257
  9
$DIMASSOC
280
     2
  9
$PROJECTNAME
  1

  9
$CAMERADISPLAY
290
     0
  9
$LENSLENGTH
 40
50.0
  9
$CAMERAHEIGHT
 40
0.0
  9
$STEPSPERSEC
 40
2.0
  9
$STEPSIZE
 40
6.0
  9
$3DDWFPREC
 40
2.0
  9
$PSOLWIDTH
 40
0.25
  9
$PSOLHEIGHT
 40
4.0
  9
$LOFTANG1
 40
1.570796326794897
  9
$LOFTANG2
 40
1.570796326794897
  9
$LOFTMAG1
 40
0.0
  9
$LOFTMAG2
 40
0.0
  9
$LOFTPARAM
 70
     7
  9
$LOFTNORMALS
280
     1
  9
$LATITUDE
 40
37.795
  9
$LONGITUDE
 40
-122.394
  9
$NORTHDIRECTION
 40
0.0
  9
$TIMEZONE
 70
 -8000
  9
$LIGHTGLYPHDISPLAY
280
     1
  9
$TILEMODELIGHTSYNCH
280
     1
  9
$CMATERIAL
347
3C
  9
$SOLIDHIST
280
     1
  9
$SHOWHIST
280
     1
  9
$DWFFRAME
280
     2
  9
$DGNFRAME
280
     2
  9
$REALWORLDSCALE
290
     1
  9
$INTERFERECOLOR
 62
   256
  9
$CSHADOW
280
     0
  9
$SHADOWPLANELOCATION
 40
0.0
  0
ENDSEC
  0
SECTION
  2
CLASSES
  0
CLASS
  1
ACDBDICTIONARYWDFLT
  2
AcDbDictionaryWithDefault
  3
ObjectDBX Classes
 90
        0
 91
        4
280
     0
281
     0
  0
CLASS
  1
VISUALSTYLE
  2
AcDbVisualStyle
  3
ObjectDBX Classes
 90
     4095
 91
        4
280
     0
281
     0
  0
CLASS
  1
MATERIAL
  2
AcDbMaterial
  3
ObjectDBX Classes
 90
     1153
 91
        4
280
     0
281
     0
  0
CLASS
  1
SUN
  2
AcDbSun
  3
SCENEOE
 90
     1024
 91
        4
280
     0
281
     0
  0
ENDSEC
  0
SECTION
  2
TABLES
  0
TABLE
  2
VPORT
  5
8
330
0
100
AcDbSymbolTable
 70
     1
  0
VPORT
  5
29
330
8
100
AcDbSymbolTableRecord
100
AcDbViewportTableRecord
  2
*Active
 70
     0
 10
0.0
 20
0.0
 11
1.0
 21
1.0
 12
0.0
 22
0.0
 13
0.0
 23
0.0
 14
0.5
 24
0.5
 15
0.5
 25
0.5
 16
0.0
 26
0.0
 36
1.0
 17
30.55431944444445
 27
-5.975372222222227
 37
0.0
 40
11.76638888888889
 41
1.019854104204537
 42
50.0
 43
0.0
 44
0.0
 50
0.0
 51
0.0
 71
     0
 72
   100
 73
     1
 74
     3
 75
     0
 76
     0
 77
     0
 78
     0
281
     0
 65
     1
110
0.0
120
0.0
130
0.0
111
1.0
121
0.0
131
0.0
112
0.0
122
1.0
132
0.0
 79
     0
146
0.0
 60
     3
 61
     5
292
     1
282
     1
141
0.0
142
0.0
 63
   250
361
3F
  0
ENDTAB
  0
TABLE
  2
LTYPE
  5
5
330
0
100
AcDbSymbolTable
 70
     1
  0
LTYPE
  5
14
330
5
100
AcDbSymbolTableRecord
100
AcDbLinetypeTableRecord
  2
ByBlock
 70
     0
  3

 72
    65
 73
     0
 40
0.0
  0
LTYPE
  5
15
330
5
100
AcDbSymbolTableRecord
100
AcDbLinetypeTableRecord
  2
ByLayer
 70
     0
  3

 72
    65
 73
     0
 40
0.0
  0
LTYPE
  5
16
330
5
100
AcDbSymbolTableRecord
100
AcDbLinetypeTableRecord
  2
Continuous
 70
     0
  3
Solid line
 72
    65
 73
     0
 40
0.0
  0
ENDTAB
  0
TABLE
  2
LAYER
  5
2
330
0
100
AcDbSymbolTable
 70
     2
  0
LAYER
  5
10
330
2
100
AcDbSymbolTableRecord
100
AcDbLayerTableRecord
  2
0
 70
     0
 62
     7
  6
Continuous
370
    -3
390
F
347
3E
  0
LAYER
  5
40
330
2
100
AcDbSymbolTableRecord
100
AcDbLayerTableRecord
  2
Layer 1
 70
     0
 62
     7
  6
Continuous
370
    -3
390
F
347
3E
  0
ENDTAB
  0
TABLE
  2
STYLE
  5
3
330
0
100
AcDbSymbolTable
 70
     1
  0
STYLE
  5
11
330
3
100
AcDbSymbolTableRecord
100
AcDbTextStyleTableRecord
  2
Standard
 70
     0
 40
0.0
 41
1.0
 50
0.0
 71
     0
 42
0.2
  3
txt
  4

  0
ENDTAB
  0
TABLE
  2
VIEW
  5
6
330
0
100
AcDbSymbolTable
 70
     0
  0
ENDTAB
  0
TABLE
  2
UCS
  5
7
330
0
100
AcDbSymbolTable
 70
     0
  0
ENDTAB
  0
TABLE
  2
APPID
  5
9
330
0
100
AcDbSymbolTable
 70
     1
  0
APPID
  5
12
330
9
100
AcDbSymbolTableRecord
100
AcDbRegAppTableRecord
  2
ACAD
 70
     0
  0
ENDTAB
  0
TABLE
  2
DIMSTYLE
  5
A
330
0
100
AcDbSymbolTable
 70
     1
100
AcDbDimStyleTable
  0
DIMSTYLE
105
27
330
A
100
AcDbSymbolTableRecord
100
AcDbDimStyleTableRecord
  2
Standard
 70
     0
178
     0
340
11
  0
ENDTAB
  0
TABLE
  2
BLOCK_RECORD
  5
1
330
0
100
AcDbSymbolTable
 70
     1
  0
BLOCK_RECORD
  5
1F
330
1
100
AcDbSymbolTableRecord
100
AcDbBlockTableRecord
  2
*Model_Space
340
22
 70
     0
280
     1
281
     0
  0
BLOCK_RECORD
  5
1B
330
1
100
AcDbSymbolTableRecord
100
AcDbBlockTableRecord
  2
*Paper_Space
340
1E
 70
     0
280
     1
281
     0
  0
BLOCK_RECORD
  5
23
330
1
100
AcDbSymbolTableRecord
100
AcDbBlockTableRecord
  2
*Paper_Space0
340
26
 70
     0
280
     1
281
     0
  0
ENDTAB
  0
ENDSEC
  0
SECTION
  2
BLOCKS
  0
BLOCK
  5
20
330
1F
100
AcDbEntity
  8
0
100
AcDbBlockBegin
  2
*Model_Space
 70
     0
 10
0.0
 20
0.0
 30
0.0
  3
*Model_Space
  1

  0
ENDBLK
  5
21
330
1F
100
AcDbEntity
  8
0
100
AcDbBlockEnd
  0
BLOCK
  5
1C
330
1B
100
AcDbEntity
 67
     1
  8
0
100
AcDbBlockBegin
  2
*Paper_Space
 70
     0
 10
0.0
 20
0.0
 30
0.0
  3
*Paper_Space
  1

  0
ENDBLK
  5
1D
330
1B
100
AcDbEntity
 67
     1
  8
0
100
AcDbBlockEnd
  0
BLOCK
  5
24
330
23
100
AcDbEntity
  8
0
100
AcDbBlockBegin
  2
*Paper_Space0
 70
     0
 10
0.0
 20
0.0
 30
0.0
  3
*Paper_Space0
  1

  0
ENDBLK
  5
25
330
23
100
AcDbEntity
  8
0
100
AcDbBlockEnd
  0
ENDSEC
  0
SECTION
  2
ENTITIES
  0
SPLINE
  5
41
330
1F
100
AcDbEntity
  8
Layer 1
370
     0
100
AcDbSpline
210
0.0
220
0.0
230
1.0
 70
    11
 71
     3
 72
    86
 73
    82
 74
     0
 42
0.0000000001
 43
0.0000000001
 12
1.0
 22
0.0
 32
0.0
 13
1.0
 23
0.0
 33
0.0
 40
0.0
 40
0.0
 40
0.0
 40
0.0
 40
1.0
 40
1.0
 40
1.0
 40
2.0
 40
2.0
 40
2.0
 40
3.0
 40
3.0
 40
3.0
 40
4.0
 40
4.0
 40
4.0
 40
5.0
 40
5.0
 40
5.0
 40
6.0
 40
6.0
 40
6.0
 40
7.0
 40
7.0
 40
7.0
 40
8.0
 40
8.0
 40
8.0
 40
9.0
 40
9.0
 40
9.0
 40
10.0
 40
10.0
 40
10.0
 40
11.0
 40
11.0
 40
11.0
 40
12.0
 40
12.0
 40
12.0
 40
13.0
 40
13.0
 40
13.0
 40
14.0
 40
14.0
 40
14.0
 40
15.0
 40
15.0
 40
15.0
 40
16.0
 40
16.0
 40
16.0
 40
17.0
 40
17.0
 40
17.0
 40
18.0
 40
18.0
 40
18.0
 40
19.0
 40
19.0
 40
19.0
 40
20.0
 40
20.0
 40
20.0
 40
21.0
 40
21.0
 40
21.0
 40
22.0
 40
22.0
 40
22.0
 40
23.0
 40
23.0
 40
23.0
 40
24.0
 40
24.0
 40
24.0
 40
25.0
 40
25.0
 40
25.0
 40
26.0
 40
26.0
 40
26.0
 40
27.0
 40
27.0
 40
27.0
 40
27.0
 10
30.51807638888888
 20
-8.880415277777779
 30
0.0
 10
30.98334583333333
 20
-8.731513888888887
 30
0.0
 10
31.43009861111111
 20
-8.5265361111111
 30
0.0
 10
31.80626111111112
 20
-8.204788888888894
 30
0.0
 10
32.13855972222223
 20
-7.920786111111106
 30
0.0
 10
32.40942638888888
 20
-7.556590277777786
 30
0.0
 10
32.52386944444444
 20
-7.130013888888899
 30
0.0
 10
32.6383125
 20
-6.70365972222223
 30
0.0
 10
32.64347083333334
 20
-6.217990277777769
 30
0.0
 10
32.50018333333335
 20
-5.798448611111111
 30
0.0
 10
32.33109166666665
 20
-5.302916666666672
 30
0.0
 10
32.0048875
 20
-4.942699999999996
 30
0.0
 10
31.51194305555555
 20
-4.758844444444447
 30
0.0
 10
30.97912361111111
 20
-4.560451388888888
 30
0.0
 10
30.34499583333334
 20
-4.699986111111116
 30
0.0
 10
29.90810416666666
 20
-5.051755555555549
 30
0.0
 10
29.44143055555555
 20
-5.427673611111104
 30
0.0
 10
29.27821250000001
 20
-6.056643055555544
 30
0.0
 10
29.51763611111111
 20
-6.605640277777789
 30
0.0
 10
29.71251944444445
 20
-7.052159722222212
 30
0.0
 10
30.33304166666667
 20
-7.194031944444456
 30
0.0
 10
30.72912361111111
 20
-6.928336111111118
 30
0.0
 10
30.92214722222221
 20
-6.798873611111098
 30
0.0
 10
31.01172222222223
 20
-6.558734722222223
 30
0.0
 10
30.96974166666667
 20
-6.332898611111103
 30
0.0
 10
30.96388194444444
 20
-6.301475000000007
 30
0.0
 10
30.95615138888888
 20
-6.270758333333333
 30
0.0
 10
30.93879166666667
 20
-6.243083333333338
 30
0.0
 10
30.9179125
 20
-6.209777777777768
 30
0.0
 10
30.91697777777777
 20
-6.177184722222212
 30
0.0
 10
30.95450138888888
 20
-6.156543055555554
 30
0.0
 10
30.99179166666666
 20
-6.135674999999992
 30
0.0
 10
31.02063611111112
 20
-6.156080555555566
 30
0.0
 10
31.0391638888889
 20
-6.187740277777771
 30
0.0
 10
31.07246527777778
 20
-6.245663888888885
 30
0.0
 10
31.08560138888889
 20
-6.309681944444441
 30
0.0
 10
31.09239583333333
 20
-6.375581944444447
 30
0.0
 10
31.1313236111111
 20
-6.751500000000002
 30
0.0
 10
30.86351111111111
 20
-7.065762499999992
 30
0.0
 10
30.50610972222222
 20
-7.147126388888889
 30
0.0
 10
30.25588888888889
 20
-7.204113888888893
 30
0.0
 10
29.98549027777777
 20
-7.167291666666667
 30
0.0
 10
29.76364722222223
 20
-7.0364388888889
 30
0.0
 10
29.53029166666667
 20
-6.898776388888892
 30
0.0
 10
29.39264305555556
 20
-6.677634722222213
 30
0.0
 10
29.33049722222222
 20
-6.418254166666657
 30
0.0
 10
29.248875
 20
-6.078920833333338
 30
0.0
 10
29.29485694444444
 20
-5.731137499999995
 30
0.0
 10
29.45877777777778
 20
-5.423222222222218
 30
0.0
 10
29.67359166666666
 20
-5.019391666666668
 30
0.0
 10
30.01386805555555
 20
-4.783706944444449
 30
0.0
 10
30.43693472222223
 20
-4.649094444444446
 30
0.0
 10
30.80652361111111
 20
-4.531370833333337
 30
0.0
 10
31.17776111111112
 20
-4.524800000000002
 30
0.0
 10
31.54829722222222
 20
-4.64651527777778
 30
0.0
 10
31.83135138888888
 20
-4.73961805555555
 30
0.0
 10
32.05037638888889
 20
-4.923473611111111
 30
0.0
 10
32.24901388888889
 20
-5.138518055555551
 30
0.0
 10
32.58624861111111
 20
-5.503894444444439
 30
0.0
 10
32.72272916666667
 20
-6.008331944444434
 30
0.0
 10
32.71990972222223
 20
-6.503384722222235
 30
0.0
 10
32.71898611111111
 20
-6.666148611111112
 30
0.0
 10
32.70279722222222
 20
-6.827718055555553
 30
0.0
 10
32.67418611111111
 20
-6.983205555555564
 30
0.0
 10
32.5731125
 20
-7.527277777777776
 30
0.0
 10
32.24056805555556
 20
-8.003330555555547
 30
0.0
 10
31.81704583333334
 20
-8.349011111111116
 30
0.0
 10
31.54853055555557
 20
-8.568048611111104
 30
0.0
 10
31.25115833333333
 20
-8.727512500000001
 30
0.0
 10
30.938325
 20
-8.852986111111123
 30
0.0
 10
32.3566611111111
 20
-8.656687500000013
 30
0.0
 10
33.44878194444443
 20
-7.439573611111124
 30
0.0
 10
33.44878194444443
 20
-5.967295833333335
 30
0.0
 10
33.44878194444443
 20
-4.358527777777782
 30
0.0
 10
32.14441944444444
 20
-3.054177777777782
 30
0.0
 10
30.53565694444445
 20
-3.054177777777782
 30
0.0
 10
28.92665972222222
 20
-3.054177777777782
 30
0.0
 10
27.62253194444444
 20
-4.358527777777782
 30
0.0
 10
27.62253194444444
 20
-5.967295833333335
 30
0.0
 10
27.62253194444444
 20
-7.570427777777771
 30
0.0
 10
28.91729027777779
 20
-8.871034722222223
 30
0.0
 10
30.51807638888888
 20
-8.880415277777779
 30
0.0
  0
HATCH
  5
42
330
1F
100
AcDbEntity
  8
Layer 1
 62
     7
420
 16777215
100
AcDbHatch
 10
0.0
 20
0.0
 30
0.0
210
0.0
220
0.0
230
1.0
  2
SOLID
 70
     1
 71
     0
 91
        1
 92
        1
 93
        1
 72
     4
 94
        3
 73
     0
 74
     1
 95
       86
 96
       82
 40
0.0
 40
0.0
 40
0.0
 40
0.0
 40
1.0
 40
1.0
 40
1.0
 40
2.0
 40
2.0
 40
2.0
 40
3.0
 40
3.0
 40
3.0
 40
4.0
 40
4.0
 40
4.0
 40
5.0
 40
5.0
 40
5.0
 40
6.0
 40
6.0
 40
6.0
 40
7.0
 40
7.0
 40
7.0
 40
8.0
 40
8.0
 40
8.0
 40
9.0
 40
9.0
 40
9.0
 40
10.0
 40
10.0
 40
10.0
 40
11.0
 40
11.0
 40
11.0
 40
12.0
 40
12.0
 40
12.0
 40
13.0
 40
13.0
 40
13.0
 40
14.0
 40
14.0
 40
14.0
 40
15.0
 40
15.0
 40
15.0
 40
16.0
 40
16.0
 40
16.0
 40
17.0
 40
17.0
 40
17.0
 40
18.0
 40
18.0
 40
18.0
 40
19.0
 40
19.0
 40
19.0
 40
20.0
 40
20.0
 40
20.0
 40
21.0
 40
21.0
 40
21.0
 40
22.0
 40
22.0
 40
22.0
 40
23.0
 40
23.0
 40
23.0
 40
24.0
 40
24.0
 40
24.0
 40
25.0
 40
25.0
 40
25.0
 40
26.0
 40
26.0
 40
26.0
 40
27.0
 40
27.0
 40
27.0
 40
27.0
 10
30.51807638888888
 20
-8.880415277777779
 10
30.98334583333333
 20
-8.731513888888887
 10
31.43009861111111
 20
-8.5265361111111
 10
31.80626111111112
 20
-8.204788888888894
 10
32.13855972222223
 20
-7.920786111111106
 10
32.40942638888888
 20
-7.556590277777786
 10
32.52386944444444
 20
-7.130013888888899
 10
32.6383125
 20
-6.70365972222223
 10
32.64347083333334
 20
-6.217990277777769
 10
32.50018333333335
 20
-5.798448611111111
 10
32.33109166666665
 20
-5.302916666666672
 10
32.0048875
 20
-4.942699999999996
 10
31.51194305555555
 20
-4.758844444444447
 10
30.97912361111111
 20
-4.560451388888888
 10
30.34499583333334
 20
-4.699986111111116
 10
29.90810416666666
 20
-5.051755555555549
 10
29.44143055555555
 20
-5.427673611111104
 10
29.27821250000001
 20
-6.056643055555544
 10
29.51763611111111
 20
-6.605640277777789
 10
29.71251944444445
 20
-7.052159722222212
 10
30.33304166666667
 20
-7.194031944444456
 10
30.72912361111111
 20
-6.928336111111118
 10
30.92214722222221
 20
-6.798873611111098
 10
31.01172222222223
 20
-6.558734722222223
 10
30.96974166666667
 20
-6.332898611111103
 10
30.96388194444444
 20
-6.301475000000007
 10
30.95615138888888
 20
-6.270758333333333
 10
30.93879166666667
 20
-6.243083333333338
 10
30.9179125
 20
-6.209777777777768
 10
30.91697777777777
 20
-6.177184722222212
 10
30.95450138888888
 20
-6.156543055555554
 10
30.99179166666666
 20
-6.135674999999992
 10
31.02063611111112
 20
-6.156080555555566
 10
31.0391638888889
 20
-6.187740277777771
 10
31.07246527777778
 20
-6.245663888888885
 10
31.08560138888889
 20
-6.309681944444441
 10
31.09239583333333
 20
-6.375581944444447
 10
31.1313236111111
 20
-6.751500000000002
 10
30.86351111111111
 20
-7.065762499999992
 10
30.50610972222222
 20
-7.147126388888889
 10
30.25588888888889
 20
-7.204113888888893
 10
29.98549027777777
 20
-7.167291666666667
 10
29.76364722222223
 20
-7.0364388888889
 10
29.53029166666667
 20
-6.898776388888892
 10
29.39264305555556
 20
-6.677634722222213
 10
29.33049722222222
 20
-6.418254166666657
 10
29.248875
 20
-6.078920833333338
 10
29.29485694444444
 20
-5.731137499999995
 10
29.45877777777778
 20
-5.423222222222218
 10
29.67359166666666
 20
-5.019391666666668
 10
30.01386805555555
 20
-4.783706944444449
 10
30.43693472222223
 20
-4.649094444444446
 10
30.80652361111111
 20
-4.531370833333337
 10
31.17776111111112
 20
-4.524800000000002
 10
31.54829722222222
 20
-4.64651527777778
 10
31.83135138888888
 20
-4.73961805555555
 10
32.05037638888889
 20
-4.923473611111111
 10
32.24901388888889
 20
-5.138518055555551
 10
32.58624861111111
 20
-5.503894444444439
 10
32.72272916666667
 20
-6.008331944444434
 10
32.71990972222223
 20
-6.503384722222235
 10
32.71898611111111
 20
-6.666148611111112
 10
32.70279722222222
 20
-6.827718055555553
 10
32.67418611111111
 20
-6.983205555555564
 10
32.5731125
 20
-7.527277777777776
 10
32.24056805555556
 20
-8.003330555555547
 10
31.81704583333334
 20
-8.349011111111116
 10
31.54853055555557
 20
-8.568048611111104
 10
31.25115833333333
 20
-8.727512500000001
 10
30.938325
 20
-8.852986111111123
 10
32.3566611111111
 20
-8.656687500000013
 10
33.44878194444443
 20
-7.439573611111124
 10
33.44878194444443
 20
-5.967295833333335
 10
33.44878194444443
 20
-4.358527777777782
 10
32.14441944444444
 20
-3.054177777777782
 10
30.53565694444445
 20
-3.054177777777782
 10
28.92665972222222
 20
-3.054177777777782
 10
27.62253194444444
 20
-4.358527777777782
 10
27.62253194444444
 20
-5.967295833333335
 10
27.62253194444444
 20
-7.570427777777771
 10
28.91729027777779
 20
-8.871034722222223
 10
30.51807638888888
 20
-8.880415277777779
 97
        0
 97
        0
 75
     2
 76
     1
 98
        0
  0
SPLINE
  5
43
330
1F
100
AcDbEntity
  8
Layer 1
370
     0
100
AcDbSpline
210
0.0
220
0.0
230
1.0
 70
    11
 71
     3
 72
    23
 73
    19
 74
     0
 42
0.0000000001
 43
0.0000000001
 12
1.0
 22
0.0
 32
0.0
 13
1.0
 23
0.0
 33
0.0
 40
0.0
 40
0.0
 40
0.0
 40
0.0
 40
1.0
 40
1.0
 40
1.0
 40
2.0
 40
2.0
 40
2.0
 40
3.0
 40
3.0
 40
3.0
 40
4.0
 40
4.0
 40
4.0
 40
5.0
 40
5.0
 40
5.0
 40
6.0
 40
6.0
 40
6.0
 40
6.0
 10
30.53564444444444
 20
-0.0921784722222204
 30
0.0
 10
30.4595875
 20
-0.0921784722222204
 30
0.0
 10
30.3977125
 20
-0.1540416666666715
 30
0.0
 10
30.3977125
 20
-0.230111111111114
 30
0.0
 10
30.3977125
 20
-0.230111111111114
 30
0.0
 10
30.3977125
 20
-2.430097222222217
 30
0.0
 10
30.3977125
 20
-2.430097222222217
 30
0.0
 10
30.3977125
 20
-2.506154166666672
 30
0.0
 10
30.4595875
 20
-2.568029166666671
 30
0.0
 10
30.53564444444444
 20
-2.568029166666671
 30
0.0
 10
30.61171388888889
 20
-2.568029166666671
 30
0.0
 10
30.67357638888888
 20
-2.506154166666672
 30
0.0
 10
30.67357638888888
 20
-2.430097222222217
 30
0.0
 10
30.67357638888888
 20
-2.430097222222217
 30
0.0
 10
30.67357638888888
 20
-0.230111111111114
 30
0.0
 10
30.67357638888888
 20
-0.230111111111114
 30
0.0
 10
30.67357638888888
 20
-0.1540416666666715
 30
0.0
 10
30.61171388888889
 20
-0.0921784722222204
 30
0.0
 10
30.53564444444444
 20
-0.0921784722222204
 30
0.0
  0
HATCH
  5
44
330
1F
100
AcDbEntity
  8
Layer 1
 62
     7
420
 16777215
100
AcDbHatch
 10
0.0
 20
0.0
 30
0.0
210
0.0
220
0.0
230
1.0
  2
SOLID
 70
     1
 71
     0
 91
        1
 92
        1
 93
        1
 72
     4
 94
        3
 73
     0
 74
     1
 95
       23
 96
       19
 40
0.0
 40
0.0
 40
0.0
 40
0.0
 40
1.0
 40
1.0
 40
1.0
 40
2.0
 40
2.0
 40
2.0
 40
3.0
 40
3.0
 40
3.0
 40
4.0
 40
4.0
 40
4.0
 40
5.0
 40
5.0
 40
5.0
 40
6.0
 40
6.0
 40
6.0
 40
6.0
 10
30.53564444444444
 20
-0.0921784722222204
 10
30.4595875
 20
-0.0921784722222204
 10
30.3977125
 20
-0.1540416666666715
 10
30.3977125
 20
-0.230111111111114
 10
30.3977125
 20
-0.230111111111114
 10
30.3977125
 20
-2.430097222222217
 10
30.3977125
 20
-2.430097222222217
 10
30.3977125
 20
-2.506154166666672
 10
30.4595875
 20
-2.568029166666671
 10
30.53564444444444
 20
-2.568029166666671
 10
30.61171388888889
 20
-2.568029166666671
 10
30.67357638888888
 20
-2.506154166666672
 10
30.67357638888888
 20
-2.430097222222217
 10
30.67357638888888
 20
-2.430097222222217
 10
30.67357638888888
 20
-0.230111111111114
 10
30.67357638888888
 20
-0.230111111111114
 10
30.67357638888888
 20
-0.1540416666666715
 10
30.61171388888889
 20
-0.0921784722222204
 10
30.53564444444444
 20
-0.0921784722222204
 97
        0
 97
        0
 75
     2
 76
     1
 98
        0
  0
SPLINE
  5
45
330
1F
100
AcDbEntity
  8
Layer 1
370
     0
100
AcDbSpline
210
0.0
220
0.0
230
1.0
 70
    11
 71
     3
 72
    35
 73
    31
 74
     0
 42
0.0000000001
 43
0.0000000001
 12
1.0
 22
0.0
 32
0.0
 13
1.0
 23
0.0
 33
0.0
 40
0.0
 40
0.0
 40
0.0
 40
0.0
 40
1.0
 40
1.0
 40
1.0
 40
2.0
 40
2.0
 40
2.0
 40
3.0
 40
3.0
 40
3.0
 40
4.0
 40
4.0
 40
4.0
 40
5.0
 40
5.0
 40
5.0
 40
6.0
 40
6.0
 40
6.0
 40
7.0
 40
7.0
 40
7.0
 40
8.0
 40
8.0
 40
8.0
 40
9.0
 40
9.0
 40
9.0
 40
10.0
 40
10.0
 40
10.0
 40
10.0
 10
25.4703
 20
-3.196197222222218
 30
0.0
 10
25.4703
 20
-3.196197222222218
 30
0.0
 10
27.37556111111111
 20
-4.29616388888889
 30
0.0
 10
27.37556111111111
 20
-4.29616388888889
 30
0.0
 10
27.39722777777778
 20
-4.308683333333331
 30
0.0
 10
27.42090277777778
 20
-4.314630555555557
 30
0.0
 10
27.44429305555555
 20
-4.314630555555557
 30
0.0
 10
27.49199861111111
 20
-4.314630555555557
 30
0.0
 10
27.53845972222223
 20
-4.289902777777772
 30
0.0
 10
27.56396805555556
 20
-4.245690277777777
 30
0.0
 10
27.58240972222222
 20
-4.213787500000004
 30
0.0
 10
27.58730972222222
 20
-4.176619444444441
 30
0.0
 10
27.57776944444444
 20
-4.141022222222217
 30
0.0
 10
27.56824027777778
 20
-4.105454166666669
 30
0.0
 10
27.54540277777778
 20
-4.075698611111116
 30
0.0
 10
27.51349305555555
 20
-4.057258333333329
 30
0.0
 10
27.51349305555555
 20
-4.057258333333329
 30
0.0
 10
25.60825694444444
 20
-2.957290277777777
 30
0.0
 10
25.60825694444444
 20
-2.957290277777777
 30
0.0
 10
25.57632222222222
 20
-2.93882361111111
 30
0.0
 10
25.53915555555555
 20
-2.933899999999994
 30
0.0
 10
25.50356388888889
 20
-2.94349027777778
 30
0.0
 10
25.46797361111112
 20
-2.953018055555554
 30
0.0
 10
25.43824166666666
 20
-2.975855555555553
 30
0.0
 10
25.419825
 20
-3.007790277777783
 30
0.0
 10
25.40140694444444
 20
-3.039687500000001
 30
0.0
 10
25.39650833333333
 20
-3.076830555555552
 30
0.0
 10
25.40604861111111
 20
-3.11240833333333
 30
0.0
 10
25.41555277777777
 20
-3.147999999999999
 30
0.0
 10
25.43840277777778
 20
-3.177755555555551
 30
0.0
 10
25.4703
 20
-3.196197222222218
 30
0.0
  0
HATCH
  5
46
330
1F
100
AcDbEntity
  8
Layer 1
 62
     7
420
 16777215
100
AcDbHatch
 10
0.0
 20
0.0
 30
0.0
210
0.0
220
0.0
230
1.0
  2
SOLID
 70
     1
 71
     0
 91
        1
 92
        1
 93
        1
 72
     4
 94
        3
 73
     0
 74
     1
 95
       35
 96
       31
 40
0.0
 40
0.0
 40
0.0
 40
0.0
 40
1.0
 40
1.0
 40
1.0
 40
2.0
 40
2.0
 40
2.0
 40
3.0
 40
3.0
 40
3.0
 40
4.0
 40
4.0
 40
4.0
 40
5.0
 40
5.0
 40
5.0
 40
6.0
 40
6.0
 40
6.0
 40
7.0
 40
7.0
 40
7.0
 40
8.0
 40
8.0
 40
8.0
 40
9.0
 40
9.0
 40
9.0
 40
10.0
 40
10.0
 40
10.0
 40
10.0
 10
25.4703
 20
-3.196197222222218
 10
25.4703
 20
-3.196197222222218
 10
27.37556111111111
 20
-4.29616388888889
 10
27.37556111111111
 20
-4.29616388888889
 10
27.39722777777778
 20
-4.308683333333331
 10
27.42090277777778
 20
-4.314630555555557
 10
27.44429305555555
 20
-4.314630555555557
 10
27.49199861111111
 20
-4.314630555555557
 10
27.53845972222223
 20
-4.289902777777772
 10
27.56396805555556
 20
-4.245690277777777
 10
27.58240972222222
 20
-4.213787500000004
 10
27.58730972222222
 20
-4.176619444444441
 10
27.57776944444444
 20
-4.141022222222217
 10
27.56824027777778
 20
-4.105454166666669
 10
27.54540277777778
 20
-4.075698611111116
 10
27.51349305555555
 20
-4.057258333333329
 10
27.51349305555555
 20
-4.057258333333329
 10
25.60825694444444
 20
-2.957290277777777
 10
25.60825694444444
 20
-2.957290277777777
 10
25.57632222222222
 20
-2.93882361111111
 10
25.53915555555555
 20
-2.933899999999994
 10
25.50356388888889
 20
-2.94349027777778
 10
25.46797361111112
 20
-2.953018055555554
 10
25.43824166666666
 20
-2.975855555555553
 10
25.419825
 20
-3.007790277777783
 10
25.40140694444444
 20
-3.039687500000001
 10
25.39650833333333
 20
-3.076830555555552
 10
25.40604861111111
 20
-3.11240833333333
 10
25.41555277777777
 20
-3.147999999999999
 10
25.43840277777778
 20
-3.177755555555551
 10
25.4703
 20
-3.196197222222218
 97
        0
 97
        0
 75
     2
 76
     1
 98
        0
  0
SPLINE
  5
47
330
1F
100
AcDbEntity
  8
Layer 1
370
     0
100
AcDbSpline
210
0.0
220
0.0
230
1.0
 70
    11
 71
     3
 72
    38
 73
    34
 74
     0
 42
0.0000000001
 43
0.0000000001
 12
1.0
 22
0.0
 32
0.0
 13
1.0
 23
0.0
 33
0.0
 40
0.0
 40
0.0
 40
0.0
 40
0.0
 40
1.0
 40
1.0
 40
1.0
 40
2.0
 40
2.0
 40
2.0
 40
3.0
 40
3.0
 40
3.0
 40
4.0
 40
4.0
 40
4.0
 40
5.0
 40
5.0
 40
5.0
 40
6.0
 40
6.0
 40
6.0
 40
7.0
 40
7.0
 40
7.0
 40
8.0
 40
8.0
 40
8.0
 40
9.0
 40
9.0
 40
9.0
 40
10.0
 40
10.0
 40
10.0
 40
11.0
 40
11.0
 40
11.0
 40
11.0
 10
27.61777916666666
 20
-7.7611611111111
 30
0.0
 10
27.62730833333333
 20
-7.725558333333336
 30
0.0
 10
27.62240833333333
 20
-7.688391666666676
 30
0.0
 10
27.60400416666667
 20
-7.656493055555554
 30
0.0
 10
27.5855625
 20
-7.624583333333324
 30
0.0
 10
27.55583055555556
 20
-7.60174722222223
 30
0.0
 10
27.52024027777778
 20
-7.592218055555551
 30
0.0
 10
27.48463611111111
 20
-7.582676388888886
 30
0.0
 10
27.44746944444445
 20
-7.587662500000002
 30
0.0
 10
27.41557222222222
 20
-7.605994444444453
 30
0.0
 10
27.41557222222222
 20
-7.605994444444453
 30
0.0
 10
25.51029861111111
 20
-8.705980555555545
 30
0.0
 10
25.51029861111111
 20
-8.705980555555545
 30
0.0
 10
25.4784
 20
-8.724398611111104
 30
0.0
 10
25.45558888888889
 20
-8.75415416666667
 30
0.0
 10
25.44604722222223
 20
-8.789744444444446
 30
0.0
 10
25.43651805555555
 20
-8.825348611111115
 30
0.0
 10
25.44141805555556
 20
-8.862515277777776
 30
0.0
 10
25.4598236111111
 20
-8.894412499999993
 30
0.0
 10
25.47824027777779
 20
-8.926323611111103
 30
0.0
 10
25.50799583333334
 20
-8.949134722222222
 30
0.0
 10
25.54356250000001
 20
-8.958701388888887
 30
0.0
 10
25.55545555555555
 20
-8.961865277777784
 30
0.0
 10
25.56753194444444
 20
-8.963465277777788
 30
0.0
 10
25.57949861111111
 20
-8.963465277777788
 30
0.0
 10
25.60341805555555
 20
-8.963465277777788
 30
0.0
 10
25.62699444444445
 20
-8.957175000000007
 30
0.0
 10
25.64823055555555
 20
-8.9449125
 30
0.0
 10
25.64823055555555
 20
-8.9449125
 30
0.0
 10
27.55350416666667
 20
-7.84490138888888
 30
0.0
 10
27.55350416666667
 20
-7.84490138888888
 30
0.0
 10
27.58540138888889
 20
-7.826483333333321
 30
0.0
 10
27.60823888888889
 20
-7.796727777777782
 30
0.0
 10
27.61777916666666
 20
-7.7611611111111
 30
0.0
  0
HATCH
  5
48
330
1F
100
AcDbEntity
  8
Layer 1
 62
     7
420
 16777215
100
AcDbHatch
 10
0.0
 20
0.0
 30
0.0
210
0.0
220
0.0
230
1.0
  2
SOLID
 70
     1
 71
     0
 91
        1
 92
        1
 93
        1
 72
     4
 94
        3
 73
     0
 74
     1
 95
       38
 96
       34
 40
0.0
 40
0.0
 40
0.0
 40
0.0
 40
1.0
 40
1.0
 40
1.0
 40
2.0
 40
2.0
 40
2.0
 40
3.0
 40
3.0
 40
3.0
 40
4.0
 40
4.0
 40
4.0
 40
5.0
 40
5.0
 40
5.0
 40
6.0
 40
6.0
 40
6.0
 40
7.0
 40
7.0
 40
7.0
 40
8.0
 40
8.0
 40
8.0
 40
9.0
 40
9.0
 40
9.0
 40
10.0
 40
10.0
 40
10.0
 40
11.0
 40
11.0
 40
11.0
 40
11.0
 10
27.61777916666666
 20
-7.7611611111111
 10
27.62730833333333
 20
-7.725558333333336
 10
27.62240833333333
 20
-7.688391666666676
 10
27.60400416666667
 20
-7.656493055555554
 10
27.5855625
 20
-7.624583333333324
 10
27.55583055555556
 20
-7.60174722222223
 10
27.52024027777778
 20
-7.592218055555551
 10
27.48463611111111
 20
-7.582676388888886
 10
27.44746944444445
 20
-7.587662500000002
 10
27.41557222222222
 20
-7.605994444444453
 10
27.41557222222222
 20
-7.605994444444453
 10
25.51029861111111
 20
-8.705980555555545
 10
25.51029861111111
 20
-8.705980555555545
 10
25.4784
 20
-8.724398611111104
 10
25.45558888888889
 20
-8.75415416666667
 10
25.44604722222223
 20
-8.789744444444446
 10
25.43651805555555
 20
-8.825348611111115
 10
25.44141805555556
 20
-8.862515277777776
 10
25.4598236111111
 20
-8.894412499999993
 10
25.47824027777779
 20
-8.926323611111103
 10
25.50799583333334
 20
-8.949134722222222
 10
25.54356250000001
 20
-8.958701388888887
 10
25.55545555555555
 20
-8.961865277777784
 10
25.56753194444444
 20
-8.963465277777788
 10
25.57949861111111
 20
-8.963465277777788
 10
25.60341805555555
 20
-8.963465277777788
 10
25.62699444444445
 20
-8.957175000000007
 10
25.64823055555555
 20
-8.9449125
 10
25.64823055555555
 20
-8.9449125
 10
27.55350416666667
 20
-7.84490138888888
 10
27.55350416666667
 20
-7.84490138888888
 10
27.58540138888889
 20
-7.826483333333321
 10
27.60823888888889
 20
-7.796727777777782
 10
27.61777916666666
 20
-7.7611611111111
 97
        0
 97
        0
 75
     2
 76
     1
 98
        0
  0
SPLINE
  5
49
330
1F
100
AcDbEntity
  8
Layer 1
370
     0
100
AcDbSpline
210
0.0
220
0.0
230
1.0
 70
    11
 71
     3
 72
    23
 73
    19
 74
     0
 42
0.0000000001
 43
0.0000000001
 12
1.0
 22
0.0
 32
0.0
 13
1.0
 23
0.0
 33
0.0
 40
0.0
 40
0.0
 40
0.0
 40
0.0
 40
1.0
 40
1.0
 40
1.0
 40
2.0
 40
2.0
 40
2.0
 40
3.0
 40
3.0
 40
3.0
 40
4.0
 40
4.0
 40
4.0
 40
5.0
 40
5.0
 40
5.0
 40
6.0
 40
6.0
 40
6.0
 40
6.0
 10
30.53564444444444
 20
-9.382679166666675
 30
0.0
 10
30.4595875
 20
-9.382679166666675
 30
0.0
 10
30.3977125
 20
-9.444554166666673
 30
0.0
 10
30.3977125
 20
-9.520611111111116
 30
0.0
 10
30.3977125
 20
-9.520611111111116
 30
0.0
 10
30.3977125
 20
-11.72063472222223
 30
0.0
 10
30.3977125
 20
-11.72063472222223
 30
0.0
 10
30.3977125
 20
-11.79669166666667
 30
0.0
 10
30.4595875
 20
-11.85856666666667
 30
0.0
 10
30.53564444444444
 20
-11.85856666666667
 30
0.0
 10
30.61171388888889
 20
-11.85856666666667
 30
0.0
 10
30.67357638888888
 20
-11.79669166666667
 30
0.0
 10
30.67357638888888
 20
-11.72063472222223
 30
0.0
 10
30.67357638888888
 20
-11.72063472222223
 30
0.0
 10
30.67357638888888
 20
-9.520611111111116
 30
0.0
 10
30.67357638888888
 20
-9.520611111111116
 30
0.0
 10
30.67357638888888
 20
-9.444554166666673
 30
0.0
 10
30.61171388888889
 20
-9.382679166666675
 30
0.0
 10
30.53564444444444
 20
-9.382679166666675
 30
0.0
  0
HATCH
  5
4A
330
1F
100
AcDbEntity
  8
Layer 1
 62
     7
420
 16777215
100
AcDbHatch
 10
0.0
 20
0.0
 30
0.0
210
0.0
220
0.0
230
1.0
  2
SOLID
 70
     1
 71
     0
 91
        1
 92
        1
 93
        1
 72
     4
 94
        3
 73
     0
 74
     1
 95
       23
 96
       19
 40
0.0
 40
0.0
 40
0.0
 40
0.0
 40
1.0
 40
1.0
 40
1.0
 40
2.0
 40
2.0
 40
2.0
 40
3.0
 40
3.0
 40
3.0
 40
4.0
 40
4.0
 40
4.0
 40
5.0
 40
5.0
 40
5.0
 40
6.0
 40
6.0
 40
6.0
 40
6.0
 10
30.53564444444444
 20
-9.382679166666675
 10
30.4595875
 20
-9.382679166666675
 10
30.3977125
 20
-9.444554166666673
 10
30.3977125
 20
-9.520611111111116
 10
30.3977125
 20
-9.520611111111116
 10
30.3977125
 20
-11.72063472222223
 10
30.3977125
 20
-11.72063472222223
 10
30.3977125
 20
-11.79669166666667
 10
30.4595875
 20
-11.85856666666667
 10
30.53564444444444
 20
-11.85856666666667
 10
30.61171388888889
 20
-11.85856666666667
 10
30.67357638888888
 20
-11.79669166666667
 10
30.67357638888888
 20
-11.72063472222223
 10
30.67357638888888
 20
-11.72063472222223
 10
30.67357638888888
 20
-9.520611111111116
 10
30.67357638888888
 20
-9.520611111111116
 10
30.67357638888888
 20
-9.444554166666673
 10
30.61171388888889
 20
-9.382679166666675
 10
30.53564444444444
 20
-9.382679166666675
 97
        0
 97
        0
 75
     2
 76
     1
 98
        0
  0
SPLINE
  5
4B
330
1F
100
AcDbEntity
  8
Layer 1
370
     0
100
AcDbSpline
210
0.0
220
0.0
230
1.0
 70
    11
 71
     3
 72
    38
 73
    34
 74
     0
 42
0.0000000001
 43
0.0000000001
 12
1.0
 22
0.0
 32
0.0
 13
1.0
 23
0.0
 33
0.0
 40
0.0
 40
0.0
 40
0.0
 40
0.0
 40
1.0
 40
1.0
 40
1.0
 40
2.0
 40
2.0
 40
2.0
 40
3.0
 40
3.0
 40
3.0
 40
4.0
 40
4.0
 40
4.0
 40
5.0
 40
5.0
 40
5.0
 40
6.0
 40
6.0
 40
6.0
 40
7.0
 40
7.0
 40
7.0
 40
8.0
 40
8.0
 40
8.0
 40
9.0
 40
9.0
 40
9.0
 40
10.0
 40
10.0
 40
10.0
 40
11.0
 40
11.0
 40
11.0
 40
11.0
 10
35.56099027777777
 20
-8.722391666666656
 30
0.0
 10
35.56099027777777
 20
-8.722391666666656
 30
0.0
 10
33.65575416666666
 20
-7.622404166666658
 30
0.0
 10
33.65575416666666
 20
-7.622404166666658
 30
0.0
 10
33.62381944444446
 20
-7.604012500000003
 30
0.0
 10
33.58665277777777
 20
-7.599087499999996
 30
0.0
 10
33.55108611111111
 20
-7.608629166666661
 30
0.0
 10
33.51545833333332
 20
-7.618156944444435
 30
0.0
 10
33.48572638888888
 20
-7.640994444444433
 30
0.0
 10
33.46734583333333
 20
-7.672904166666664
 30
0.0
 10
33.44890416666668
 20
-7.704801388888882
 30
0.0
 10
33.44400416666667
 20
-7.741969444444445
 30
0.0
 10
33.45353333333333
 20
-7.777572222222211
 30
0.0
 10
33.46307500000002
 20
-7.813163888888893
 30
0.0
 10
33.48591111111111
 20
-7.842894444444432
 30
0.0
 10
33.51782083333334
 20
-7.861336111111111
 30
0.0
 10
33.51782083333334
 20
-7.861336111111111
 30
0.0
 10
35.42305833333332
 20
-8.961298611111108
 30
0.0
 10
35.42305833333332
 20
-8.961298611111108
 30
0.0
 10
35.44429444444444
 20
-8.973584722222212
 30
0.0
 10
35.46789444444443
 20
-8.979876388888897
 30
0.0
 10
35.49179027777778
 20
-8.979876388888897
 30
0.0
 10
35.50378055555554
 20
-8.979876388888897
 30
0.0
 10
35.51583333333333
 20
-8.97827499999999
 30
0.0
 10
35.52772638888889
 20
-8.975098611111106
 30
0.0
 10
35.56329305555555
 20
-8.965570833333333
 30
0.0
 10
35.59304861111112
 20
-8.942733333333333
 30
0.0
 10
35.61146527777777
 20
-8.910823611111102
 30
0.0
 10
35.62990694444445
 20
-8.878926388888885
 30
0.0
 10
35.63479444444445
 20
-8.84175833333332
 30
0.0
 10
35.62526527777777
 20
-8.806155555555556
 30
0.0
 10
35.61570000000001
 20
-8.7705638888889
 30
0.0
 10
35.59288750000001
 20
-8.740808333333336
 30
0.0
 10
35.56099027777777
 20
-8.722391666666656
 30
0.0
  0
HATCH
  5
4C
330
1F
100
AcDbEntity
  8
Layer 1
 62
     7
420
 16777215
100
AcDbHatch
 10
0.0
 20
0.0
 30
0.0
210
0.0
220
0.0
230
1.0
  2
SOLID
 70
     1
 71
     0
 91
        1
 92
        1
 93
        1
 72
     4
 94
        3
 73
     0
 74
     1
 95
       38
 96
       34
 40
0.0
 40
0.0
 40
0.0
 40
0.0
 40
1.0
 40
1.0
 40
1.0
 40
2.0
 40
2.0
 40
2.0
 40
3.0
 40
3.0
 40
3.0
 40
4.0
 40
4.0
 40
4.0
 40
5.0
 40
5.0
 40
5.0
 40
6.0
 40
6.0
 40
6.0
 40
7.0
 40
7.0
 40
7.0
 40
8.0
 40
8.0
 40
8.0
 40
9.0
 40
9.0
 40
9.0
 40
10.0
 40
10.0
 40
10.0
 40
11.0
 40
11.0
 40
11.0
 40
11.0
 10
35.56099027777777
 20
-8.722391666666656
 10
35.56099027777777
 20
-8.722391666666656
 10
33.65575416666666
 20
-7.622404166666658
 10
33.65575416666666
 20
-7.622404166666658
 10
33.62381944444446
 20
-7.604012500000003
 10
33.58665277777777
 20
-7.599087499999996
 10
33.55108611111111
 20
-7.608629166666661
 10
33.51545833333332
 20
-7.618156944444435
 10
33.48572638888888
 20
-7.640994444444433
 10
33.46734583333333
 20
-7.672904166666664
 10
33.44890416666668
 20
-7.704801388888882
 10
33.44400416666667
 20
-7.741969444444445
 10
33.45353333333333
 20
-7.777572222222211
 10
33.46307500000002
 20
-7.813163888888893
 10
33.48591111111111
 20
-7.842894444444432
 10
33.51782083333334
 20
-7.861336111111111
 10
33.51782083333334
 20
-7.861336111111111
 10
35.42305833333332
 20
-8.961298611111108
 10
35.42305833333332
 20
-8.961298611111108
 10
35.44429444444444
 20
-8.973584722222212
 10
35.46789444444443
 20
-8.979876388888897
 10
35.49179027777778
 20
-8.979876388888897
 10
35.50378055555554
 20
-8.979876388888897
 10
35.51583333333333
 20
-8.97827499999999
 10
35.52772638888889
 20
-8.975098611111106
 10
35.56329305555555
 20
-8.965570833333333
 10
35.59304861111112
 20
-8.942733333333333
 10
35.61146527777777
 20
-8.910823611111102
 10
35.62990694444445
 20
-8.878926388888885
 10
35.63479444444445
 20
-8.84175833333332
 10
35.62526527777777
 20
-8.806155555555556
 10
35.61570000000001
 20
-8.7705638888889
 10
35.59288750000001
 20
-8.740808333333336
 10
35.56099027777777
 20
-8.722391666666656
 97
        0
 97
        0
 75
     2
 76
     1
 98
        0
  0
SPLINE
  5
4D
330
1F
100
AcDbEntity
  8
Layer 1
370
     0
100
AcDbSpline
210
0.0
220
0.0
230
1.0
 70
    11
 71
     3
 72
    35
 73
    31
 74
     0
 42
0.0000000001
 43
0.0000000001
 12
1.0
 22
0.0
 32
0.0
 13
1.0
 23
0.0
 33
0.0
 40
0.0
 40
0.0
 40
0.0
 40
0.0
 40
1.0
 40
1.0
 40
1.0
 40
2.0
 40
2.0
 40
2.0
 40
3.0
 40
3.0
 40
3.0
 40
4.0
 40
4.0
 40
4.0
 40
5.0
 40
5.0
 40
5.0
 40
6.0
 40
6.0
 40
6.0
 40
7.0
 40
7.0
 40
7.0
 40
8.0
 40
8.0
 40
8.0
 40
9.0
 40
9.0
 40
9.0
 40
10.0
 40
10.0
 40
10.0
 40
10.0
 10
33.45358333333333
 20
-4.13829305555555
 30
0.0
 10
33.44404166666666
 20
-4.173890277777774
 30
0.0
 10
33.44894166666667
 20
-4.211058333333337
 30
0.0
 10
33.46735833333332
 20
-4.242959722222218
 30
0.0
 10
33.48577638888888
 20
-4.274862500000002
 30
0.0
 10
33.51553194444445
 20
-4.297677777777785
 30
0.0
 10
33.55109861111113
 20
-4.307238888888883
 30
0.0
 10
33.56299027777777
 20
-4.310406944444442
 30
0.0
 10
33.57506805555555
 20
-4.311977777777782
 30
0.0
 10
33.58703333333334
 20
-4.311977777777782
 30
0.0
 10
33.61094166666668
 20
-4.311977777777782
 30
0.0
 10
33.63451805555557
 20
-4.305719444444447
 30
0.0
 10
33.65579027777777
 20
-4.293459722222224
 30
0.0
 10
33.65579027777777
 20
-4.293459722222224
 30
0.0
 10
35.56102777777778
 20
-3.19344027777778
 30
0.0
 10
35.56102777777778
 20
-3.19344027777778
 30
0.0
 10
35.62690277777779
 20
-3.155411111111107
 30
0.0
 10
35.64955555555555
 20
-3.070883333333339
 30
0.0
 10
35.61152638888888
 20
-3.005031944444441
 30
0.0
 10
35.59308472222222
 20
-2.973134722222224
 30
0.0
 10
35.56336666666667
 20
-2.950297222222225
 30
0.0
 10
35.52776250000001
 20
-2.940756944444438
 30
0.0
 10
35.49217222222223
 20
-2.931252777777773
 30
0.0
 10
35.45498055555557
 20
-2.936177777777781
 30
0.0
 10
35.42309444444446
 20
-2.954533333333327
 30
0.0
 10
35.42309444444446
 20
-2.954533333333327
 30
0.0
 10
33.51785833333333
 20
-4.054529166666662
 30
0.0
 10
33.51785833333333
 20
-4.054529166666662
 30
0.0
 10
33.48596111111111
 20
-4.07296944444445
 30
0.0
 10
33.46311111111113
 20
-4.102697222222218
 30
0.0
 10
33.45358333333333
 20
-4.13829305555555
 30
0.0
  0
HATCH
  5
4E
330
1F
100
AcDbEntity
  8
Layer 1
 62
     7
420
 16777215
100
AcDbHatch
 10
0.0
 20
0.0
 30
0.0
210
0.0
220
0.0
230
1.0
  2
SOLID
 70
     1
 71
     0
 91
        1
 92
        1
 93
        1
 72
     4
 94
        3
 73
     0
 74
     1
 95
       35
 96
       31
 40
0.0
 40
0.0
 40
0.0
 40
0.0
 40
1.0
 40
1.0
 40
1.0
 40
2.0
 40
2.0
 40
2.0
 40
3.0
 40
3.0
 40
3.0
 40
4.0
 40
4.0
 40
4.0
 40
5.0
 40
5.0
 40
5.0
 40
6.0
 40
6.0
 40
6.0
 40
7.0
 40
7.0
 40
7.0
 40
8.0
 40
8.0
 40
8.0
 40
9.0
 40
9.0
 40
9.0
 40
10.0
 40
10.0
 40
10.0
 40
10.0
 10
33.45358333333333
 20
-4.13829305555555
 10
33.44404166666666
 20
-4.173890277777774
 10
33.44894166666667
 20
-4.211058333333337
 10
33.46735833333332
 20
-4.242959722222218
 10
33.48577638888888
 20
-4.274862500000002
 10
33.51553194444445
 20
-4.297677777777785
 10
33.55109861111113
 20
-4.307238888888883
 10
33.56299027777777
 20
-4.310406944444442
 10
33.57506805555555
 20
-4.311977777777782
 10
33.58703333333334
 20
-4.311977777777782
 10
33.61094166666668
 20
-4.311977777777782
 10
33.63451805555557
 20
-4.305719444444447
 10
33.65579027777777
 20
-4.293459722222224
 10
33.65579027777777
 20
-4.293459722222224
 10
35.56102777777778
 20
-3.19344027777778
 10
35.56102777777778
 20
-3.19344027777778
 10
35.62690277777779
 20
-3.155411111111107
 10
35.64955555555555
 20
-3.070883333333339
 10
35.61152638888888
 20
-3.005031944444441
 10
35.59308472222222
 20
-2.973134722222224
 10
35.56336666666667
 20
-2.950297222222225
 10
35.52776250000001
 20
-2.940756944444438
 10
35.49217222222223
 20
-2.931252777777773
 10
35.45498055555557
 20
-2.936177777777781
 10
35.42309444444446
 20
-2.954533333333327
 10
35.42309444444446
 20
-2.954533333333327
 10
33.51785833333333
 20
-4.054529166666662
 10
33.51785833333333
 20
-4.054529166666662
 10
33.48596111111111
 20
-4.07296944444445
 10
33.46311111111113
 20
-4.102697222222218
 10
33.45358333333333
 20
-4.13829305555555
 97
        0
 97
        0
 75
     2
 76
     1
 98
        0
  0
SPLINE
  5
4F
330
1F
100
AcDbEntity
  8
Layer 1
370
     0
100
AcDbSpline
210
0.0
220
0.0
230
1.0
 70
    11
 71
     3
 72
    26
 73
    22
 74
     0
 42
0.0000000001
 43
0.0000000001
 12
1.0
 22
0.0
 32
0.0
 13
1.0
 23
0.0
 33
0.0
 40
0.0
 40
0.0
 40
0.0
 40
0.0
 40
1.0
 40
1.0
 40
1.0
 40
2.0
 40
2.0
 40
2.0
 40
3.0
 40
3.0
 40
3.0
 40
4.0
 40
4.0
 40
4.0
 40
5.0
 40
5.0
 40
5.0
 40
6.0
 40
6.0
 40
6.0
 40
7.0
 40
7.0
 40
7.0
 40
7.0
 10
32.35466666666667
 20
-2.886341666666668
 30
0.0
 10
32.40293888888888
 20
-2.886341666666668
 30
0.0
 10
32.4492763888889
 20
-2.857066666666671
 30
0.0
 10
32.48240555555556
 20
-2.802270833333333
 30
0.0
 10
32.48240555555556
 20
-2.802270833333333
 30
0.0
 10
32.90284999999999
 20
-2.075970833333334
 30
0.0
 10
32.90284999999999
 20
-2.075970833333334
 30
0.0
 10
32.92974999999998
 20
-2.017063888888894
 30
0.0
 10
32.90775
 20
-1.94728472222222
 30
0.0
 10
32.85276944444445
 20
-1.917109722222222
 30
0.0
 10
32.78923194444446
 20
-1.882172222222228
 30
0.0
 10
32.72123888888889
 20
-1.899554166666664
 30
0.0
 10
32.68361666666667
 20
-1.960345833333337
 30
0.0
 10
32.68361666666667
 20
-1.960345833333337
 30
0.0
 10
32.25049166666668
 20
-2.662319444444443
 30
0.0
 10
32.25049166666668
 20
-2.662319444444443
 30
0.0
 10
32.2027
 20
-2.746501388888886
 30
0.0
 10
32.21770694444444
 20
-2.827174999999998
 30
0.0
 10
32.28874166666666
 20
-2.867876388888893
 30
0.0
 10
32.31042083333333
 20
-2.880297222222225
 30
0.0
 10
32.33274166666666
 20
-2.886341666666668
 30
0.0
 10
32.35466666666667
 20
-2.886341666666668
 30
0.0
  0
HATCH
  5
50
330
1F
100
AcDbEntity
  8
Layer 1
 62
     7
420
 16777215
100
AcDbHatch
 10
0.0
 20
0.0
 30
0.0
210
0.0
220
0.0
230
1.0
  2
SOLID
 70
     1
 71
     0
 91
        1
 92
        1
 93
        1
 72
     4
 94
        3
 73
     0
 74
     1
 95
       26
 96
       22
 40
0.0
 40
0.0
 40
0.0
 40
0.0
 40
1.0
 40
1.0
 40
1.0
 40
2.0
 40
2.0
 40
2.0
 40
3.0
 40
3.0
 40
3.0
 40
4.0
 40
4.0
 40
4.0
 40
5.0
 40
5.0
 40
5.0
 40
6.0
 40
6.0
 40
6.0
 40
7.0
 40
7.0
 40
7.0
 40
7.0
 10
32.35466666666667
 20
-2.886341666666668
 10
32.40293888888888
 20
-2.886341666666668
 10
32.4492763888889
 20
-2.857066666666671
 10
32.48240555555556
 20
-2.802270833333333
 10
32.48240555555556
 20
-2.802270833333333
 10
32.90284999999999
 20
-2.075970833333334
 10
32.90284999999999
 20
-2.075970833333334
 10
32.92974999999998
 20
-2.017063888888894
 10
32.90775
 20
-1.94728472222222
 10
32.85276944444445
 20
-1.917109722222222
 10
32.78923194444446
 20
-1.882172222222228
 10
32.72123888888889
 20
-1.899554166666664
 10
32.68361666666667
 20
-1.960345833333337
 10
32.68361666666667
 20
-1.960345833333337
 10
32.25049166666668
 20
-2.662319444444443
 10
32.25049166666668
 20
-2.662319444444443
 10
32.2027
 20
-2.746501388888886
 10
32.21770694444444
 20
-2.827174999999998
 10
32.28874166666666
 20
-2.867876388888893
 10
32.31042083333333
 20
-2.880297222222225
 10
32.33274166666666
 20
-2.886341666666668
 10
32.35466666666667
 20
-2.886341666666668
 97
        0
 97
        0
 75
     2
 76
     1
 98
        0
  0
SPLINE
  5
51
330
1F
100
AcDbEntity
  8
Layer 1
370
     0
100
AcDbSpline
210
0.0
220
0.0
230
1.0
 70
    11
 71
     3
 72
    29
 73
    25
 74
     0
 42
0.0000000001
 43
0.0000000001
 12
1.0
 22
0.0
 32
0.0
 13
1.0
 23
0.0
 33
0.0
 40
0.0
 40
0.0
 40
0.0
 40
0.0
 40
1.0
 40
1.0
 40
1.0
 40
2.0
 40
2.0
 40
2.0
 40
3.0
 40
3.0
 40
3.0
 40
4.0
 40
4.0
 40
4.0
 40
5.0
 40
5.0
 40
5.0
 40
6.0
 40
6.0
 40
6.0
 40
7.0
 40
7.0
 40
7.0
 40
8.0
 40
8.0
 40
8.0
 40
8.0
 10
33.08154444444444
 20
-1.697555555555558
 30
0.0
 10
33.08264027777778
 20
-1.697555555555558
 30
0.0
 10
33.0837486111111
 20
-1.697580555555558
 30
0.0
 10
33.08481944444444
 20
-1.697580555555558
 30
0.0
 10
33.16512361111111
 20
-1.697580555555558
 30
0.0
 10
33.20135555555557
 20
-1.635409722222221
 30
0.0
 10
33.21887361111112
 20
-1.605309722222223
 30
0.0
 10
33.21887361111112
 20
-1.605309722222223
 30
0.0
 10
33.6153
 20
-0.9248694444444506
 30
0.0
 10
33.6153
 20
-0.9248694444444506
 30
0.0
 10
33.65511388888889
 20
-0.852344444444447
 30
0.0
 10
33.63824722222221
 20
-0.7741083333333386
 30
0.0
 10
33.57427916666666
 20
-0.7345777777777837
 30
0.0
 10
33.50874861111111
 20
-0.694087499999998
 30
0.0
 10
33.42985972222222
 20
-0.7162222222222251
 30
0.0
 10
33.38059027777778
 20
-0.790950000000003
 30
0.0
 10
33.38059027777778
 20
-0.790950000000003
 30
0.0
 10
32.96953888888889
 20
-1.496738888888886
 30
0.0
 10
32.96953888888889
 20
-1.496738888888886
 30
0.0
 10
32.94607499999999
 20
-1.542080555555559
 30
0.0
 10
32.94646805555557
 20
-1.593441666666662
 30
0.0
 10
32.97062222222222
 20
-1.634179166666665
 30
0.0
 10
32.99355833333334
 20
-1.67281111111111
 30
0.0
 10
33.03499722222222
 20
-1.696509722222219
 30
0.0
 10
33.08154444444444
 20
-1.697555555555558
 30
0.0
  0
HATCH
  5
52
330
1F
100
AcDbEntity
  8
Layer 1
 62
     7
420
 16777215
100
AcDbHatch
 10
0.0
 20
0.0
 30
0.0
210
0.0
220
0.0
230
1.0
  2
SOLID
 70
     1
 71
     0
 91
        1
 92
        1
 93
        1
 72
     4
 94
        3
 73
     0
 74
     1
 95
       29
 96
       25
 40
0.0
 40
0.0
 40
0.0
 40
0.0
 40
1.0
 40
1.0
 40
1.0
 40
2.0
 40
2.0
 40
2.0
 40
3.0
 40
3.0
 40
3.0
 40
4.0
 40
4.0
 40
4.0
 40
5.0
 40
5.0
 40
5.0
 40
6.0
 40
6.0
 40
6.0
 40
7.0
 40
7.0
 40
7.0
 40
8.0
 40
8.0
 40
8.0
 40
8.0
 10
33.08154444444444
 20
-1.697555555555558
 10
33.08264027777778
 20
-1.697555555555558
 10
33.0837486111111
 20
-1.697580555555558
 10
33.08481944444444
 20
-1.697580555555558
 10
33.16512361111111
 20
-1.697580555555558
 10
33.20135555555557
 20
-1.635409722222221
 10
33.21887361111112
 20
-1.605309722222223
 10
33.21887361111112
 20
-1.605309722222223
 10
33.6153
 20
-0.9248694444444506
 10
33.6153
 20
-0.9248694444444506
 10
33.65511388888889
 20
-0.852344444444447
 10
33.63824722222221
 20
-0.7741083333333386
 10
33.57427916666666
 20
-0.7345777777777837
 10
33.50874861111111
 20
-0.694087499999998
 10
33.42985972222222
 20
-0.7162222222222251
 10
33.38059027777778
 20
-0.790950000000003
 10
33.38059027777778
 20
-0.790950000000003
 10
32.96953888888889
 20
-1.496738888888886
 10
32.96953888888889
 20
-1.496738888888886
 10
32.94607499999999
 20
-1.542080555555559
 10
32.94646805555557
 20
-1.593441666666662
 10
32.97062222222222
 20
-1.634179166666665
 10
32.99355833333334
 20
-1.67281111111111
 10
33.03499722222222
 20
-1.696509722222219
 10
33.08154444444444
 20
-1.697555555555558
 97
        0
 97
        0
 75
     2
 76
     1
 98
        0
  0
SPLINE
  5
53
330
1F
100
AcDbEntity
  8
Layer 1
370
     0
100
AcDbSpline
210
0.0
220
0.0
230
1.0
 70
    11
 71
     3
 72
    26
 73
    22
 74
     0
 42
0.0000000001
 43
0.0000000001
 12
1.0
 22
0.0
 32
0.0
 13
1.0
 23
0.0
 33
0.0
 40
0.0
 40
0.0
 40
0.0
 40
0.0
 40
1.0
 40
1.0
 40
1.0
 40
2.0
 40
2.0
 40
2.0
 40
3.0
 40
3.0
 40
3.0
 40
4.0
 40
4.0
 40
4.0
 40
5.0
 40
5.0
 40
5.0
 40
6.0
 40
6.0
 40
6.0
 40
7.0
 40
7.0
 40
7.0
 40
7.0
 10
28.64365416666666
 20
-2.886341666666668
 30
0.0
 10
28.66575277777777
 20
-2.886341666666668
 30
0.0
 10
28.68825694444445
 20
-2.880162499999996
 30
0.0
 10
28.71012083333333
 20
-2.867431944444446
 30
0.0
 10
28.77932222222222
 20
-2.827174999999998
 30
0.0
 10
28.79501805555555
 20
-2.748470833333335
 30
0.0
 10
28.74965277777778
 20
-2.666037500000003
 30
0.0
 10
28.74965277777778
 20
-2.666037500000003
 30
0.0
 10
28.33134861111111
 20
-1.939638888888895
 30
0.0
 10
28.33134861111111
 20
-1.939638888888895
 30
0.0
 10
28.2938125
 20
-1.886936111111115
 30
0.0
 10
28.22244583333333
 20
-1.871141666666669
 30
0.0
 10
28.16872083333333
 20
-1.90356805555555
 30
0.0
 10
28.10669861111111
 20
-1.941227777777777
 30
0.0
 10
28.08776388888888
 20
-2.008777777777772
 30
0.0
 10
28.12161944444445
 20
-2.071700000000002
 30
0.0
 10
28.12161944444445
 20
-2.071700000000002
 30
0.0
 10
28.51297361111111
 20
-2.797788888888893
 30
0.0
 10
28.51297361111111
 20
-2.797788888888893
 30
0.0
 10
28.54684027777777
 20
-2.855466666666669
 30
0.0
 10
28.59425
 20
-2.886341666666668
 30
0.0
 10
28.64365416666666
 20
-2.886341666666668
 30
0.0
  0
HATCH
  5
54
330
1F
100
AcDbEntity
  8
Layer 1
 62
     7
420
 16777215
100
AcDbHatch
 10
0.0
 20
0.0
 30
0.0
210
0.0
220
0.0
230
1.0
  2
SOLID
 70
     1
 71
     0
 91
        1
 92
        1
 93
        1
 72
     4
 94
        3
 73
     0
 74
     1
 95
       26
 96
       22
 40
0.0
 40
0.0
 40
0.0
 40
0.0
 40
1.0
 40
1.0
 40
1.0
 40
2.0
 40
2.0
 40
2.0
 40
3.0
 40
3.0
 40
3.0
 40
4.0
 40
4.0
 40
4.0
 40
5.0
 40
5.0
 40
5.0
 40
6.0
 40
6.0
 40
6.0
 40
7.0
 40
7.0
 40
7.0
 40
7.0
 10
28.64365416666666
 20
-2.886341666666668
 10
28.66575277777777
 20
-2.886341666666668
 10
28.68825694444445
 20
-2.880162499999996
 10
28.71012083333333
 20
-2.867431944444446
 10
28.77932222222222
 20
-2.827174999999998
 10
28.79501805555555
 20
-2.748470833333335
 10
28.74965277777778
 20
-2.666037500000003
 10
28.74965277777778
 20
-2.666037500000003
 10
28.33134861111111
 20
-1.939638888888895
 10
28.33134861111111
 20
-1.939638888888895
 10
28.2938125
 20
-1.886936111111115
 10
28.22244583333333
 20
-1.871141666666669
 10
28.16872083333333
 20
-1.90356805555555
 10
28.10669861111111
 20
-1.941227777777777
 10
28.08776388888888
 20
-2.008777777777772
 10
28.12161944444445
 20
-2.071700000000002
 10
28.12161944444445
 20
-2.071700000000002
 10
28.51297361111111
 20
-2.797788888888893
 10
28.51297361111111
 20
-2.797788888888893
 10
28.54684027777777
 20
-2.855466666666669
 10
28.59425
 20
-2.886341666666668
 10
28.64365416666666
 20
-2.886341666666668
 97
        0
 97
        0
 75
     2
 76
     1
 98
        0
  0
SPLINE
  5
55
330
1F
100
AcDbEntity
  8
Layer 1
370
     0
100
AcDbSpline
210
0.0
220
0.0
230
1.0
 70
    11
 71
     3
 72
    32
 73
    28
 74
     0
 42
0.0000000001
 43
0.0000000001
 12
1.0
 22
0.0
 32
0.0
 13
1.0
 23
0.0
 33
0.0
 40
0.0
 40
0.0
 40
0.0
 40
0.0
 40
1.0
 40
1.0
 40
1.0
 40
2.0
 40
2.0
 40
2.0
 40
3.0
 40
3.0
 40
3.0
 40
4.0
 40
4.0
 40
4.0
 40
5.0
 40
5.0
 40
5.0
 40
6.0
 40
6.0
 40
6.0
 40
7.0
 40
7.0
 40
7.0
 40
8.0
 40
8.0
 40
8.0
 40
9.0
 40
9.0
 40
9.0
 40
9.0
 10
27.86310138888888
 20
-1.592259722222227
 30
0.0
 10
27.89034444444444
 20
-1.634806944444449
 30
0.0
 10
27.93436944444445
 20
-1.660056944444439
 30
0.0
 10
27.98112638888889
 20
-1.660056944444439
 30
0.0
 10
27.98165555555556
 20
-1.660056944444439
 30
0.0
 10
27.98214861111111
 20
-1.660056944444439
 30
0.0
 10
27.98267777777778
 20
-1.660056944444439
 30
0.0
 10
28.02758750000001
 20
-1.659527777777776
 30
0.0
 10
28.06881805555556
 20
-1.635484722222221
 30
0.0
 10
28.09299583333333
 20
-1.595670833333328
 30
0.0
 10
28.13574027777777
 20
-1.525054166666665
 30
0.0
 10
28.09931111111112
 20
-1.461295833333338
 30
0.0
 10
28.08178055555556
 20
-1.430629166666664
 30
0.0
 10
28.08178055555556
 20
-1.430629166666664
 30
0.0
 10
27.69143611111111
 20
-0.7482805555555513
 30
0.0
 10
27.69143611111111
 20
-0.7482805555555513
 30
0.0
 10
27.69143611111111
 20
-0.7482805555555513
 30
0.0
 10
27.69072222222222
 20
-0.7470736111111161
 30
0.0
 10
27.69072222222222
 20
-0.7470736111111161
 30
0.0
 10
27.64776944444444
 20
-0.6764083333333322
 30
0.0
 10
27.57155138888889
 20
-0.6518847222222222
 30
0.0
 10
27.50539305555556
 20
-0.6874888888888916
 30
0.0
 10
27.43770694444444
 20
-0.7239166666666708
 30
0.0
 10
27.41735694444444
 20
-0.8033597222222271
 30
0.0
 10
27.45734305555556
 20
-0.8833805555555551
 30
0.0
 10
27.45734305555556
 20
-0.8833805555555551
 30
0.0
 10
27.86310138888888
 20
-1.592259722222227
 30
0.0
 10
27.86310138888888
 20
-1.592259722222227
 30
0.0
  0
HATCH
  5
56
330
1F
100
AcDbEntity
  8
Layer 1
 62
     7
420
 16777215
100
AcDbHatch
 10
0.0
 20
0.0
 30
0.0
210
0.0
220
0.0
230
1.0
  2
SOLID
 70
     1
 71
     0
 91
        1
 92
        1
 93
        1
 72
     4
 94
        3
 73
     0
 74
     1
 95
       32
 96
       28
 40
0.0
 40
0.0
 40
0.0
 40
0.0
 40
1.0
 40
1.0
 40
1.0
 40
2.0
 40
2.0
 40
2.0
 40
3.0
 40
3.0
 40
3.0
 40
4.0
 40
4.0
 40
4.0
 40
5.0
 40
5.0
 40
5.0
 40
6.0
 40
6.0
 40
6.0
 40
7.0
 40
7.0
 40
7.0
 40
8.0
 40
8.0
 40
8.0
 40
9.0
 40
9.0
 40
9.0
 40
9.0
 10
27.86310138888888
 20
-1.592259722222227
 10
27.89034444444444
 20
-1.634806944444449
 10
27.93436944444445
 20
-1.660056944444439
 10
27.98112638888889
 20
-1.660056944444439
 10
27.98165555555556
 20
-1.660056944444439
 10
27.98214861111111
 20
-1.660056944444439
 10
27.98267777777778
 20
-1.660056944444439
 10
28.02758750000001
 20
-1.659527777777776
 10
28.06881805555556
 20
-1.635484722222221
 10
28.09299583333333
 20
-1.595670833333328
 10
28.13574027777777
 20
-1.525054166666665
 10
28.09931111111112
 20
-1.461295833333338
 10
28.08178055555556
 20
-1.430629166666664
 10
28.08178055555556
 20
-1.430629166666664
 10
27.69143611111111
 20
-0.7482805555555513
 10
27.69143611111111
 20
-0.7482805555555513
 10
27.69143611111111
 20
-0.7482805555555513
 10
27.69072222222222
 20
-0.7470736111111161
 10
27.69072222222222
 20
-0.7470736111111161
 10
27.64776944444444
 20
-0.6764083333333322
 10
27.57155138888889
 20
-0.6518847222222222
 10
27.50539305555556
 20
-0.6874888888888916
 10
27.43770694444444
 20
-0.7239166666666708
 10
27.41735694444444
 20
-0.8033597222222271
 10
27.45734305555556
 20
-0.8833805555555551
 10
27.45734305555556
 20
-0.8833805555555551
 10
27.86310138888888
 20
-1.592259722222227
 10
27.86310138888888
 20
-1.592259722222227
 97
        0
 97
        0
 75
     2
 76
     1
 98
        0
  0
SPLINE
  5
57
330
1F
100
AcDbEntity
  8
Layer 1
370
     0
100
AcDbSpline
210
0.0
220
0.0
230
1.0
 70
    11
 71
     3
 72
    26
 73
    22
 74
     0
 42
0.0000000001
 43
0.0000000001
 12
1.0
 22
0.0
 32
0.0
 13
1.0
 23
0.0
 33
0.0
 40
0.0
 40
0.0
 40
0.0
 40
0.0
 40
1.0
 40
1.0
 40
1.0
 40
2.0
 40
2.0
 40
2.0
 40
3.0
 40
3.0
 40
3.0
 40
4.0
 40
4.0
 40
4.0
 40
5.0
 40
5.0
 40
5.0
 40
6.0
 40
6.0
 40
6.0
 40
7.0
 40
7.0
 40
7.0
 40
7.0
 10
26.05493611111111
 20
-5.866736111111107
 30
0.0
 10
25.99050138888889
 20
-5.872916666666671
 30
0.0
 10
25.93789583333334
 20
-5.933713888888885
 30
0.0
 10
25.93920138888889
 20
-5.996419444444452
 30
0.0
 10
25.94077638888888
 20
-6.068973611111105
 30
0.0
 10
25.98878888888888
 20
-6.128554166666668
 30
0.0
 10
26.06024305555555
 20
-6.130676388888888
 30
0.0
 10
26.06024305555555
 20
-6.130676388888888
 30
0.0
 10
26.88573194444444
 20
-6.145430555555549
 30
0.0
 10
26.88573194444444
 20
-6.145430555555549
 30
0.0
 10
26.98250833333333
 20
-6.144722222222223
 30
0.0
 10
27.04489999999999
 20
-6.09136805555555
 30
0.0
 10
27.04464166666667
 20
-6.009541666666665
 30
0.0
 10
27.04464166666667
 20
-6.009541666666665
 30
0.0
 10
27.04464166666667
 20
-6.009515277777786
 30
0.0
 10
27.04464166666667
 20
-6.009515277777786
 30
0.0
 10
27.04438333333333
 20
-5.929497222222229
 30
0.0
 10
26.98408333333333
 20
-5.876533333333327
 30
0.0
 10
26.88997916666666
 20
-5.874570833333337
 30
0.0
 10
26.88997916666666
 20
-5.874570833333337
 30
0.0
 10
26.05493611111111
 20
-5.866736111111107
 30
0.0
 10
26.05493611111111
 20
-5.866736111111107
 30
0.0
  0
HATCH
  5
58
330
1F
100
AcDbEntity
  8
Layer 1
 62
     7
420
 16777215
100
AcDbHatch
 10
0.0
 20
0.0
 30
0.0
210
0.0
220
0.0
230
1.0
  2
SOLID
 70
     1
 71
     0
 91
        1
 92
        1
 93
        1
 72
     4
 94
        3
 73
     0
 74
     1
 95
       26
 96
       22
 40
0.0
 40
0.0
 40
0.0
 40
0.0
 40
1.0
 40
1.0
 40
1.0
 40
2.0
 40
2.0
 40
2.0
 40
3.0
 40
3.0
 40
3.0
 40
4.0
 40
4.0
 40
4.0
 40
5.0
 40
5.0
 40
5.0
 40
6.0
 40
6.0
 40
6.0
 40
7.0
 40
7.0
 40
7.0
 40
7.0
 10
26.05493611111111
 20
-5.866736111111107
 10
25.99050138888889
 20
-5.872916666666671
 10
25.93789583333334
 20
-5.933713888888885
 10
25.93920138888889
 20
-5.996419444444452
 10
25.94077638888888
 20
-6.068973611111105
 10
25.98878888888888
 20
-6.128554166666668
 10
26.06024305555555
 20
-6.130676388888888
 10
26.06024305555555
 20
-6.130676388888888
 10
26.88573194444444
 20
-6.145430555555549
 10
26.88573194444444
 20
-6.145430555555549
 10
26.98250833333333
 20
-6.144722222222223
 10
27.04489999999999
 20
-6.09136805555555
 10
27.04464166666667
 20
-6.009541666666665
 10
27.04464166666667
 20
-6.009541666666665
 10
27.04464166666667
 20
-6.009515277777786
 10
27.04464166666667
 20
-6.009515277777786
 10
27.04438333333333
 20
-5.929497222222229
 10
26.98408333333333
 20
-5.876533333333327
 10
26.88997916666666
 20
-5.874570833333337
 10
26.88997916666666
 20
-5.874570833333337
 10
26.05493611111111
 20
-5.866736111111107
 10
26.05493611111111
 20
-5.866736111111107
 97
        0
 97
        0
 75
     2
 76
     1
 98
        0
  0
SPLINE
  5
59
330
1F
100
AcDbEntity
  8
Layer 1
370
     0
100
AcDbSpline
210
0.0
220
0.0
230
1.0
 70
    11
 71
     3
 72
    29
 73
    25
 74
     0
 42
0.0000000001
 43
0.0000000001
 12
1.0
 22
0.0
 32
0.0
 13
1.0
 23
0.0
 33
0.0
 40
0.0
 40
0.0
 40
0.0
 40
0.0
 40
1.0
 40
1.0
 40
1.0
 40
2.0
 40
2.0
 40
2.0
 40
3.0
 40
3.0
 40
3.0
 40
4.0
 40
4.0
 40
4.0
 40
5.0
 40
5.0
 40
5.0
 40
6.0
 40
6.0
 40
6.0
 40
7.0
 40
7.0
 40
7.0
 40
8.0
 40
8.0
 40
8.0
 40
8.0
 10
25.63527916666666
 20
-6.054381944444432
 30
0.0
 10
25.65729166666666
 20
-6.015197222222215
 30
0.0
 10
25.65708194444445
 20
-5.967448611111106
 30
0.0
 10
25.6347125
 20
-5.926640277777778
 30
0.0
 10
25.5949
 20
-5.854268055555559
 30
0.0
 10
25.52145138888889
 20
-5.853980555555558
 30
0.0
 10
25.48614444444445
 20
-5.853850000000003
 30
0.0
 10
25.48614444444445
 20
-5.853850000000003
 30
0.0
 10
24.70003888888889
 20
-5.850731944444444
 30
0.0
 10
24.70003888888889
 20
-5.850731944444444
 30
0.0
 10
24.70003888888889
 20
-5.850731944444444
 30
0.0
 10
24.69865972222222
 20
-5.850731944444444
 30
0.0
 10
24.69865972222222
 20
-5.850731944444444
 30
0.0
 10
24.61596666666666
 20
-5.852540277777772
 30
0.0
 10
24.55664027777778
 20
-5.906287499999999
 30
0.0
 10
24.5543875
 20
-5.981383333333333
 30
0.0
 10
24.55205972222222
 20
-6.058284722222222
 30
0.0
 10
24.61069722222222
 20
-6.115647222222226
 30
0.0
 10
24.70001388888889
 20
-6.120963888888885
 30
0.0
 10
24.70001388888889
 20
-6.120963888888885
 30
0.0
 10
25.51681111111111
 20
-6.124055555555565
 30
0.0
 10
25.51681111111111
 20
-6.124055555555565
 30
0.0
 10
25.56781527777778
 20
-6.121723611111116
 30
0.0
 10
25.61210972222222
 20
-6.09566249999999
 30
0.0
 10
25.63527916666666
 20
-6.054381944444432
 30
0.0
  0
HATCH
  5
5A
330
1F
100
AcDbEntity
  8
Layer 1
 62
     7
420
 16777215
100
AcDbHatch
 10
0.0
 20
0.0
 30
0.0
210
0.0
220
0.0
230
1.0
  2
SOLID
 70
     1
 71
     0
 91
        1
 92
        1
 93
        1
 72
     4
 94
        3
 73
     0
 74
     1
 95
       29
 96
       25
 40
0.0
 40
0.0
 40
0.0
 40
0.0
 40
1.0
 40
1.0
 40
1.0
 40
2.0
 40
2.0
 40
2.0
 40
3.0
 40
3.0
 40
3.0
 40
4.0
 40
4.0
 40
4.0
 40
5.0
 40
5.0
 40
5.0
 40
6.0
 40
6.0
 40
6.0
 40
7.0
 40
7.0
 40
7.0
 40
8.0
 40
8.0
 40
8.0
 40
8.0
 10
25.63527916666666
 20
-6.054381944444432
 10
25.65729166666666
 20
-6.015197222222215
 10
25.65708194444445
 20
-5.967448611111106
 10
25.6347125
 20
-5.926640277777778
 10
25.5949
 20
-5.854268055555559
 10
25.52145138888889
 20
-5.853980555555558
 10
25.48614444444445
 20
-5.853850000000003
 10
25.48614444444445
 20
-5.853850000000003
 10
24.70003888888889
 20
-5.850731944444444
 10
24.70003888888889
 20
-5.850731944444444
 10
24.70003888888889
 20
-5.850731944444444
 10
24.69865972222222
 20
-5.850731944444444
 10
24.69865972222222
 20
-5.850731944444444
 10
24.61596666666666
 20
-5.852540277777772
 10
24.55664027777778
 20
-5.906287499999999
 10
24.5543875
 20
-5.981383333333333
 10
24.55205972222222
 20
-6.058284722222222
 10
24.61069722222222
 20
-6.115647222222226
 10
24.70001388888889
 20
-6.120963888888885
 10
24.70001388888889
 20
-6.120963888888885
 10
25.51681111111111
 20
-6.124055555555565
 10
25.51681111111111
 20
-6.124055555555565
 10
25.56781527777778
 20
-6.121723611111116
 10
25.61210972222222
 20
-6.09566249999999
 10
25.63527916666666
 20
-6.054381944444432
 97
        0
 97
        0
 75
     2
 76
     1
 98
        0
  0
SPLINE
  5
5B
330
1F
100
AcDbEntity
  8
Layer 1
370
     0
100
AcDbSpline
210
0.0
220
0.0
230
1.0
 70
    11
 71
     3
 72
    26
 73
    22
 74
     0
 42
0.0000000001
 43
0.0000000001
 12
1.0
 22
0.0
 32
0.0
 13
1.0
 23
0.0
 33
0.0
 40
0.0
 40
0.0
 40
0.0
 40
0.0
 40
1.0
 40
1.0
 40
1.0
 40
2.0
 40
2.0
 40
2.0
 40
3.0
 40
3.0
 40
3.0
 40
4.0
 40
4.0
 40
4.0
 40
5.0
 40
5.0
 40
5.0
 40
6.0
 40
6.0
 40
6.0
 40
7.0
 40
7.0
 40
7.0
 40
7.0
 10
28.81082499999999
 20
-8.998305555555563
 30
0.0
 10
28.74141666666666
 20
-8.95856527777778
 30
0.0
 10
28.66534583333333
 20
-8.984258333333324
 30
0.0
 10
28.61717361111111
 20
-9.06391111111111
 30
0.0
 10
28.61717361111111
 20
-9.06391111111111
 30
0.0
 10
28.19667916666666
 20
-9.790270833333325
 30
0.0
 10
28.19667916666666
 20
-9.790270833333325
 30
0.0
 10
28.16985416666667
 20
-9.84915416666667
 30
0.0
 10
28.19185277777778
 20
-9.918933333333344
 30
0.0
 10
28.24680972222222
 20
-9.949131944444439
 30
0.0
 10
28.26871111111111
 20
-9.961123611111107
 30
0.0
 10
28.29108055555556
 20
-9.966934722222225
 30
0.0
 10
28.31255
 20
-9.966934722222225
 30
0.0
 10
28.35357083333333
 20
-9.966934722222225
 30
0.0
 10
28.39131666666666
 20
-9.94572222222223
 30
0.0
 10
28.4159375
 20
-9.905859722222228
 30
0.0
 10
28.4159375
 20
-9.905859722222228
 30
0.0
 10
28.84906388888889
 20
-9.203886111111109
 30
0.0
 10
28.84906388888889
 20
-9.203886111111109
 30
0.0
 10
28.89686666666666
 20
-9.119704166666653
 30
0.0
 10
28.88185972222221
 20
-9.039005555555553
 30
0.0
 10
28.81082499999999
 20
-8.998305555555563
 30
0.0
  0
HATCH
  5
5C
330
1F
100
AcDbEntity
  8
Layer 1
 62
     7
420
 16777215
100
AcDbHatch
 10
0.0
 20
0.0
 30
0.0
210
0.0
220
0.0
230
1.0
  2
SOLID
 70
     1
 71
     0
 91
        1
 92
        1
 93
        1
 72
     4
 94
        3
 73
     0
 74
     1
 95
       26
 96
       22
 40
0.0
 40
0.0
 40
0.0
 40
0.0
 40
1.0
 40
1.0
 40
1.0
 40
2.0
 40
2.0
 40
2.0
 40
3.0
 40
3.0
 40
3.0
 40
4.0
 40
4.0
 40
4.0
 40
5.0
 40
5.0
 40
5.0
 40
6.0
 40
6.0
 40
6.0
 40
7.0
 40
7.0
 40
7.0
 40
7.0
 10
28.81082499999999
 20
-8.998305555555563
 10
28.74141666666666
 20
-8.95856527777778
 10
28.66534583333333
 20
-8.984258333333324
 10
28.61717361111111
 20
-9.06391111111111
 10
28.61717361111111
 20
-9.06391111111111
 10
28.19667916666666
 20
-9.790270833333325
 10
28.19667916666666
 20
-9.790270833333325
 10
28.16985416666667
 20
-9.84915416666667
 10
28.19185277777778
 20
-9.918933333333344
 10
28.24680972222222
 20
-9.949131944444439
 10
28.26871111111111
 20
-9.961123611111107
 10
28.29108055555556
 20
-9.966934722222225
 10
28.31255
 20
-9.966934722222225
 10
28.35357083333333
 20
-9.966934722222225
 10
28.39131666666666
 20
-9.94572222222223
 10
28.4159375
 20
-9.905859722222228
 10
28.4159375
 20
-9.905859722222228
 10
28.84906388888889
 20
-9.203886111111109
 10
28.84906388888889
 20
-9.203886111111109
 10
28.89686666666666
 20
-9.119704166666653
 10
28.88185972222221
 20
-9.039005555555553
 10
28.81082499999999
 20
-8.998305555555563
 97
        0
 97
        0
 75
     2
 76
     1
 98
        0
  0
SPLINE
  5
5D
330
1F
100
AcDbEntity
  8
Layer 1
370
     0
100
AcDbSpline
210
0.0
220
0.0
230
1.0
 70
    11
 71
     3
 72
    29
 73
    25
 74
     0
 42
0.0000000001
 43
0.0000000001
 12
1.0
 22
0.0
 32
0.0
 13
1.0
 23
0.0
 33
0.0
 40
0.0
 40
0.0
 40
0.0
 40
0.0
 40
1.0
 40
1.0
 40
1.0
 40
2.0
 40
2.0
 40
2.0
 40
3.0
 40
3.0
 40
3.0
 40
4.0
 40
4.0
 40
4.0
 40
5.0
 40
5.0
 40
5.0
 40
6.0
 40
6.0
 40
6.0
 40
7.0
 40
7.0
 40
7.0
 40
8.0
 40
8.0
 40
8.0
 40
8.0
 10
28.01807083333334
 20
-10.16864999999999
 30
0.0
 10
27.93438194444444
 20
-10.16925277777778
 30
0.0
 10
27.89847083333333
 20
-10.23041388888888
 30
0.0
 10
27.88069305555556
 20
-10.26089583333333
 30
0.0
 10
27.88069305555556
 20
-10.26089583333333
 30
0.0
 10
27.48425416666666
 20
-10.94131249999999
 30
0.0
 10
27.48425416666666
 20
-10.94131249999999
 30
0.0
 10
27.44447777777778
 20
-11.01387361111112
 30
0.0
 10
27.46134444444445
 20
-11.09210972222223
 30
0.0
 10
27.525275
 20
-11.13160277777777
 30
0.0
 10
27.54699166666667
 20
-11.14504722222222
 30
0.0
 10
27.57022222222223
 20
-11.15155972222222
 30
0.0
 10
27.59335416666666
 20
-11.15155972222222
 30
0.0
 10
27.63986527777778
 20
-11.15155972222222
 30
0.0
 10
27.68604444444444
 20
-11.12514027777777
 30
0.0
 10
27.71897638888889
 20
-11.07526805555555
 30
0.0
 10
27.71897638888889
 20
-11.07526805555555
 30
0.0
 10
28.12999027777778
 20
-10.36944166666667
 30
0.0
 10
28.12999027777778
 20
-10.36944166666667
 30
0.0
 10
28.15348055555556
 20
-10.32409999999999
 30
0.0
 10
28.15312361111111
 20
-10.27273888888888
 30
0.0
 10
28.12894444444444
 20
-10.23201388888889
 30
0.0
 10
28.10602083333333
 20
-10.19334583333335
 30
0.0
 10
28.06458194444445
 20
-10.16967083333333
 30
0.0
 10
28.01807083333334
 20
-10.16864999999999
 30
0.0
  0
HATCH
  5
5E
330
1F
100
AcDbEntity
  8
Layer 1
 62
     7
420
 16777215
100
AcDbHatch
 10
0.0
 20
0.0
 30
0.0
210
0.0
220
0.0
230
1.0
  2
SOLID
 70
     1
 71
     0
 91
        1
 92
        1
 93
        1
 72
     4
 94
        3
 73
     0
 74
     1
 95
       29
 96
       25
 40
0.0
 40
0.0
 40
0.0
 40
0.0
 40
1.0
 40
1.0
 40
1.0
 40
2.0
 40
2.0
 40
2.0
 40
3.0
 40
3.0
 40
3.0
 40
4.0
 40
4.0
 40
4.0
 40
5.0
 40
5.0
 40
5.0
 40
6.0
 40
6.0
 40
6.0
 40
7.0
 40
7.0
 40
7.0
 40
8.0
 40
8.0
 40
8.0
 40
8.0
 10
28.01807083333334
 20
-10.16864999999999
 10
27.93438194444444
 20
-10.16925277777778
 10
27.89847083333333
 20
-10.23041388888888
 10
27.88069305555556
 20
-10.26089583333333
 10
27.88069305555556
 20
-10.26089583333333
 10
27.48425416666666
 20
-10.94131249999999
 10
27.48425416666666
 20
-10.94131249999999
 10
27.44447777777778
 20
-11.01387361111112
 10
27.46134444444445
 20
-11.09210972222223
 10
27.525275
 20
-11.13160277777777
 10
27.54699166666667
 20
-11.14504722222222
 10
27.57022222222223
 20
-11.15155972222222
 10
27.59335416666666
 20
-11.15155972222222
 10
27.63986527777778
 20
-11.15155972222222
 10
27.68604444444444
 20
-11.12514027777777
 10
27.71897638888889
 20
-11.07526805555555
 10
27.71897638888889
 20
-11.07526805555555
 10
28.12999027777778
 20
-10.36944166666667
 10
28.12999027777778
 20
-10.36944166666667
 10
28.15348055555556
 20
-10.32409999999999
 10
28.15312361111111
 20
-10.27273888888888
 10
28.12894444444444
 20
-10.23201388888889
 10
28.10602083333333
 20
-10.19334583333335
 10
28.06458194444445
 20
-10.16967083333333
 10
28.01807083333334
 20
-10.16864999999999
 97
        0
 97
        0
 75
     2
 76
     1
 98
        0
  0
SPLINE
  5
5F
330
1F
100
AcDbEntity
  8
Layer 1
370
     0
100
AcDbSpline
210
0.0
220
0.0
230
1.0
 70
    11
 71
     3
 72
    26
 73
    22
 74
     0
 42
0.0000000001
 43
0.0000000001
 12
1.0
 22
0.0
 32
0.0
 13
1.0
 23
0.0
 33
0.0
 40
0.0
 40
0.0
 40
0.0
 40
0.0
 40
1.0
 40
1.0
 40
1.0
 40
2.0
 40
2.0
 40
2.0
 40
3.0
 40
3.0
 40
3.0
 40
4.0
 40
4.0
 40
4.0
 40
5.0
 40
5.0
 40
5.0
 40
6.0
 40
6.0
 40
6.0
 40
7.0
 40
7.0
 40
7.0
 40
7.0
 10
32.91331527777778
 20
-9.810781944444443
 30
0.0
 10
32.91331527777778
 20
-9.810781944444443
 30
0.0
 10
32.52196111111112
 20
-9.084691666666659
 30
0.0
 10
32.52196111111112
 20
-9.084691666666659
 30
0.0
 10
32.4729388888889
 20
-9.00121111111111
 30
0.0
 10
32.3955638888889
 20
-8.973806944444453
 30
0.0
 10
32.32481250000001
 20
-9.015036111111106
 30
0.0
 10
32.2556125
 20
-9.055268055555567
 30
0.0
 10
32.23992777777777
 20
-9.133959722222217
 30
0.0
 10
32.28529444444444
 20
-9.216431944444441
 30
0.0
 10
32.28529444444444
 20
-9.216431944444441
 30
0.0
 10
32.70358472222223
 20
-9.942816666666658
 30
0.0
 10
32.70358472222223
 20
-9.942816666666658
 30
0.0
 10
32.72799722222223
 20
-9.97707777777777
 30
0.0
 10
32.76666666666667
 20
-9.995754166666655
 30
0.0
 10
32.80544583333332
 20
-9.995754166666655
 30
0.0
 10
32.826375
 20
-9.995754166666655
 30
0.0
 10
32.84736527777778
 20
-9.990300000000008
 30
0.0
 10
32.86616388888888
 20
-9.978912500000003
 30
0.0
 10
32.92827222222223
 20
-9.94130277777779
 30
0.0
 10
32.94723194444446
 20
-9.873740277777769
 30
0.0
 10
32.91331527777778
 20
-9.810781944444443
 30
0.0
  0
HATCH
  5
60
330
1F
100
AcDbEntity
  8
Layer 1
 62
     7
420
 16777215
100
AcDbHatch
 10
0.0
 20
0.0
 30
0.0
210
0.0
220
0.0
230
1.0
  2
SOLID
 70
     1
 71
     0
 91
        1
 92
        1
 93
        1
 72
     4
 94
        3
 73
     0
 74
     1
 95
       26
 96
       22
 40
0.0
 40
0.0
 40
0.0
 40
0.0
 40
1.0
 40
1.0
 40
1.0
 40
2.0
 40
2.0
 40
2.0
 40
3.0
 40
3.0
 40
3.0
 40
4.0
 40
4.0
 40
4.0
 40
5.0
 40
5.0
 40
5.0
 40
6.0
 40
6.0
 40
6.0
 40
7.0
 40
7.0
 40
7.0
 40
7.0
 10
32.91331527777778
 20
-9.810781944444443
 10
32.91331527777778
 20
-9.810781944444443
 10
32.52196111111112
 20
-9.084691666666659
 10
32.52196111111112
 20
-9.084691666666659
 10
32.4729388888889
 20
-9.00121111111111
 10
32.3955638888889
 20
-8.973806944444453
 10
32.32481250000001
 20
-9.015036111111106
 10
32.2556125
 20
-9.055268055555567
 10
32.23992777777777
 20
-9.133959722222217
 10
32.28529444444444
 20
-9.216431944444441
 10
32.28529444444444
 20
-9.216431944444441
 10
32.70358472222223
 20
-9.942816666666658
 10
32.70358472222223
 20
-9.942816666666658
 10
32.72799722222223
 20
-9.97707777777777
 10
32.76666666666667
 20
-9.995754166666655
 10
32.80544583333332
 20
-9.995754166666655
 10
32.826375
 20
-9.995754166666655
 10
32.84736527777778
 20
-9.990300000000008
 10
32.86616388888888
 20
-9.978912500000003
 10
32.92827222222223
 20
-9.94130277777779
 10
32.94723194444446
 20
-9.873740277777769
 10
32.91331527777778
 20
-9.810781944444443
 97
        0
 97
        0
 75
     2
 76
     1
 98
        0
  0
SPLINE
  5
61
330
1F
100
AcDbEntity
  8
Layer 1
370
     0
100
AcDbSpline
210
0.0
220
0.0
230
1.0
 70
    11
 71
     3
 72
    32
 73
    28
 74
     0
 42
0.0000000001
 43
0.0000000001
 12
1.0
 22
0.0
 32
0.0
 13
1.0
 23
0.0
 33
0.0
 40
0.0
 40
0.0
 40
0.0
 40
0.0
 40
1.0
 40
1.0
 40
1.0
 40
2.0
 40
2.0
 40
2.0
 40
3.0
 40
3.0
 40
3.0
 40
4.0
 40
4.0
 40
4.0
 40
5.0
 40
5.0
 40
5.0
 40
6.0
 40
6.0
 40
6.0
 40
7.0
 40
7.0
 40
7.0
 40
8.0
 40
8.0
 40
8.0
 40
9.0
 40
9.0
 40
9.0
 40
9.0
 10
33.17185833333335
 20
-10.29020833333334
 30
0.0
 10
33.14430555555555
 20
-10.24720555555556
 30
0.0
 10
33.09946944444444
 20
-10.2207
 30
0.0
 10
33.05229305555556
 20
-10.2224236111111
 30
0.0
 10
33.00734583333335
 20
-10.22295277777777
 30
0.0
 10
32.96611666666667
 20
-10.24699722222221
 30
0.0
 10
32.94200000000001
 20
-10.28672500000001
 30
0.0
 10
32.94200000000001
 20
-10.28672500000001
 30
0.0
 10
32.94200000000001
 20
-10.2867486111111
 30
0.0
 10
32.94200000000001
 20
-10.2867486111111
 30
0.0
 10
32.89914444444445
 20
-10.3574513888889
 30
0.0
 10
32.93565972222223
 20
-10.42119722222222
 30
0.0
 10
32.95317777777778
 20
-10.4518263888889
 30
0.0
 10
32.95317777777778
 20
-10.4518263888889
 30
0.0
 10
33.34421249999998
 20
-11.13536944444445
 30
0.0
 10
33.34421249999998
 20
-11.13536944444445
 30
0.0
 10
33.37396805555555
 20
-11.18438055555556
 30
0.0
 10
33.41970277777778
 20
-11.21120555555555
 30
0.0
 10
33.4670013888889
 20
-11.21120555555555
 30
0.0
 10
33.48795555555554
 20
-11.21120555555555
 30
0.0
 10
33.50922777777777
 20
-11.20593611111111
 30
0.0
 10
33.52952916666666
 20
-11.19501666666666
 30
0.0
 10
33.59724027777777
 20
-11.15857638888888
 30
0.0
 10
33.61759027777778
 20
-11.07910833333333
 30
0.0
 10
33.57759166666667
 20
-10.99906250000001
 30
0.0
 10
33.57759166666667
 20
-10.99906250000001
 30
0.0
 10
33.17185833333335
 20
-10.29020833333334
 30
0.0
 10
33.17185833333335
 20
-10.29020833333334
 30
0.0
  0
HATCH
  5
62
330
1F
100
AcDbEntity
  8
Layer 1
 62
     7
420
 16777215
100
AcDbHatch
 10
0.0
 20
0.0
 30
0.0
210
0.0
220
0.0
230
1.0
  2
SOLID
 70
     1
 71
     0
 91
        1
 92
        1
 93
        1
 72
     4
 94
        3
 73
     0
 74
     1
 95
       32
 96
       28
 40
0.0
 40
0.0
 40
0.0
 40
0.0
 40
1.0
 40
1.0
 40
1.0
 40
2.0
 40
2.0
 40
2.0
 40
3.0
 40
3.0
 40
3.0
 40
4.0
 40
4.0
 40
4.0
 40
5.0
 40
5.0
 40
5.0
 40
6.0
 40
6.0
 40
6.0
 40
7.0
 40
7.0
 40
7.0
 40
8.0
 40
8.0
 40
8.0
 40
9.0
 40
9.0
 40
9.0
 40
9.0
 10
33.17185833333335
 20
-10.29020833333334
 10
33.14430555555555
 20
-10.24720555555556
 10
33.09946944444444
 20
-10.2207
 10
33.05229305555556
 20
-10.2224236111111
 10
33.00734583333335
 20
-10.22295277777777
 10
32.96611666666667
 20
-10.24699722222221
 10
32.94200000000001
 20
-10.28672500000001
 10
32.94200000000001
 20
-10.28672500000001
 10
32.94200000000001
 20
-10.2867486111111
 10
32.94200000000001
 20
-10.2867486111111
 10
32.89914444444445
 20
-10.3574513888889
 10
32.93565972222223
 20
-10.42119722222222
 10
32.95317777777778
 20
-10.4518263888889
 10
32.95317777777778
 20
-10.4518263888889
 10
33.34421249999998
 20
-11.13536944444445
 10
33.34421249999998
 20
-11.13536944444445
 10
33.37396805555555
 20
-11.18438055555556
 10
33.41970277777778
 20
-11.21120555555555
 10
33.4670013888889
 20
-11.21120555555555
 10
33.48795555555554
 20
-11.21120555555555
 10
33.50922777777777
 20
-11.20593611111111
 10
33.52952916666666
 20
-11.19501666666666
 10
33.59724027777777
 20
-11.15857638888888
 10
33.61759027777778
 20
-11.07910833333333
 10
33.57759166666667
 20
-10.99906250000001
 10
33.57759166666667
 20
-10.99906250000001
 10
33.17185833333335
 20
-10.29020833333334
 10
33.17185833333335
 20
-10.29020833333334
 97
        0
 97
        0
 75
     2
 76
     1
 98
        0
  0
SPLINE
  5
63
330
1F
100
AcDbEntity
  8
Layer 1
370
     0
100
AcDbSpline
210
0.0
220
0.0
230
1.0
 70
    11
 71
     3
 72
    26
 73
    22
 74
     0
 42
0.0000000001
 43
0.0000000001
 12
1.0
 22
0.0
 32
0.0
 13
1.0
 23
0.0
 33
0.0
 40
0.0
 40
0.0
 40
0.0
 40
0.0
 40
1.0
 40
1.0
 40
1.0
 40
2.0
 40
2.0
 40
2.0
 40
3.0
 40
3.0
 40
3.0
 40
4.0
 40
4.0
 40
4.0
 40
5.0
 40
5.0
 40
5.0
 40
6.0
 40
6.0
 40
6.0
 40
7.0
 40
7.0
 40
7.0
 40
7.0
 10
34.22290833333333
 20
-5.797393055555554
 30
0.0
 10
34.12609583333334
 20
-5.798075000000002
 30
0.0
 10
34.06370277777778
 20
-5.851429166666662
 30
0.0
 10
34.06397361111112
 20
-5.933281944444439
 30
0.0
 10
34.06397361111112
 20
-5.933281944444439
 30
0.0
 10
34.06397361111112
 20
-5.933334722222222
 30
0.0
 10
34.06397361111112
 20
-5.933334722222222
 30
0.0
 10
34.06425694444444
 20
-6.013352777777779
 30
0.0
 10
34.12458055555557
 20
-6.066315277777776
 30
0.0
 10
34.2186611111111
 20
-6.068226388888888
 30
0.0
 10
34.2186611111111
 20
-6.068226388888888
 30
0.0
 10
35.05691666666667
 20
-6.069195833333323
 30
0.0
 10
35.05691666666667
 20
-6.069195833333323
 30
0.0
 10
35.12137777777777
 20
-6.062988888888892
 30
0.0
 10
35.17076944444443
 20
-6.009030555555555
 30
0.0
 10
35.16941527777777
 20
-5.946377777777772
 30
0.0
 10
35.16783888888888
 20
-5.873823611111106
 30
0.0
 10
35.11880416666668
 20
-5.823638888888884
 30
0.0
 10
35.04737638888891
 20
-5.821516666666664
 30
0.0
 10
35.04737638888891
 20
-5.821516666666664
 30
0.0
 10
34.22290833333333
 20
-5.797393055555554
 30
0.0
 10
34.22290833333333
 20
-5.797393055555554
 30
0.0
  0
HATCH
  5
64
330
1F
100
AcDbEntity
  8
Layer 1
 62
     7
420
 16777215
100
AcDbHatch
 10
0.0
 20
0.0
 30
0.0
210
0.0
220
0.0
230
1.0
  2
SOLID
 70
     1
 71
     0
 91
        1
 92
        1
 93
        1
 72
     4
 94
        3
 73
     0
 74
     1
 95
       26
 96
       22
 40
0.0
 40
0.0
 40
0.0
 40
0.0
 40
1.0
 40
1.0
 40
1.0
 40
2.0
 40
2.0
 40
2.0
 40
3.0
 40
3.0
 40
3.0
 40
4.0
 40
4.0
 40
4.0
 40
5.0
 40
5.0
 40
5.0
 40
6.0
 40
6.0
 40
6.0
 40
7.0
 40
7.0
 40
7.0
 40
7.0
 10
34.22290833333333
 20
-5.797393055555554
 10
34.12609583333334
 20
-5.798075000000002
 10
34.06370277777778
 20
-5.851429166666662
 10
34.06397361111112
 20
-5.933281944444439
 10
34.06397361111112
 20
-5.933281944444439
 10
34.06397361111112
 20
-5.933334722222222
 10
34.06397361111112
 20
-5.933334722222222
 10
34.06425694444444
 20
-6.013352777777779
 10
34.12458055555557
 20
-6.066315277777776
 10
34.2186611111111
 20
-6.068226388888888
 10
34.2186611111111
 20
-6.068226388888888
 10
35.05691666666667
 20
-6.069195833333323
 10
35.05691666666667
 20
-6.069195833333323
 10
35.12137777777777
 20
-6.062988888888892
 10
35.17076944444443
 20
-6.009030555555555
 10
35.16941527777777
 20
-5.946377777777772
 10
35.16783888888888
 20
-5.873823611111106
 10
35.11880416666668
 20
-5.823638888888884
 10
35.04737638888891
 20
-5.821516666666664
 10
35.04737638888891
 20
-5.821516666666664
 10
34.22290833333333
 20
-5.797393055555554
 10
34.22290833333333
 20
-5.797393055555554
 97
        0
 97
        0
 75
     2
 76
     1
 98
        0
  0
SPLINE
  5
65
330
1F
100
AcDbEntity
  8
Layer 1
370
     0
100
AcDbSpline
210
0.0
220
0.0
230
1.0
 70
    11
 71
     3
 72
    32
 73
    28
 74
     0
 42
0.0000000001
 43
0.0000000001
 12
1.0
 22
0.0
 32
0.0
 13
1.0
 23
0.0
 33
0.0
 40
0.0
 40
0.0
 40
0.0
 40
0.0
 40
1.0
 40
1.0
 40
1.0
 40
2.0
 40
2.0
 40
2.0
 40
3.0
 40
3.0
 40
3.0
 40
4.0
 40
4.0
 40
4.0
 40
5.0
 40
5.0
 40
5.0
 40
6.0
 40
6.0
 40
6.0
 40
7.0
 40
7.0
 40
7.0
 40
8.0
 40
8.0
 40
8.0
 40
9.0
 40
9.0
 40
9.0
 40
9.0
 10
36.40859027777777
 20
-5.840402777777777
 30
0.0
 10
36.40859027777777
 20
-5.840402777777777
 30
0.0
 10
35.59182916666666
 20
-5.837337500000002
 30
0.0
 10
35.59182916666666
 20
-5.837337500000002
 30
0.0
 10
35.54082499999999
 20
-5.83966805555556
 30
0.0
 10
35.49650555555556
 20
-5.865704166666672
 30
0.0
 10
35.47332361111113
 20
-5.907009722222218
 30
0.0
 10
35.45132361111111
 20
-5.946168055555555
 30
0.0
 10
35.45155833333335
 20
-5.993918055555556
 30
0.0
 10
35.47392638888888
 20
-6.034700000000005
 30
0.0
 10
35.51374027777779
 20
-6.107174999999996
 30
0.0
 10
35.5871875
 20
-6.107411111111105
 30
0.0
 10
35.62247083333333
 20
-6.107516666666672
 30
0.0
 10
35.62247083333333
 20
-6.107516666666672
 30
0.0
 10
36.40856527777778
 20
-6.110659722222231
 30
0.0
 10
36.40856527777778
 20
-6.110659722222231
 30
0.0
 10
36.40856527777778
 20
-6.110659722222231
 30
0.0
 10
36.40925416666666
 20
-6.110659722222231
 30
0.0
 10
36.40925416666666
 20
-6.110659722222231
 30
0.0
 10
36.40925416666666
 20
-6.110659722222231
 30
0.0
 10
36.40995555555557
 20
-6.110659722222231
 30
0.0
 10
36.40995555555557
 20
-6.110659722222231
 30
0.0
 10
36.49267361111111
 20
-6.108852777777782
 30
0.0
 10
36.55200000000001
 20
-6.055104166666675
 30
0.0
 10
36.55425277777777
 20
-5.979983333333331
 30
0.0
 10
36.55658055555556
 20
-5.90310694444444
 30
0.0
 10
36.49794305555555
 20
-5.845770833333328
 30
0.0
 10
36.40859027777777
 20
-5.840402777777777
 30
0.0
  0
HATCH
  5
66
330
1F
100
AcDbEntity
  8
Layer 1
 62
     7
420
 16777215
100
AcDbHatch
 10
0.0
 20
0.0
 30
0.0
210
0.0
220
0.0
230
1.0
  2
SOLID
 70
     1
 71
     0
 91
        1
 92
        1
 93
        1
 72
     4
 94
        3
 73
     0
 74
     1
 95
       32
 96
       28
 40
0.0
 40
0.0
 40
0.0
 40
0.0
 40
1.0
 40
1.0
 40
1.0
 40
2.0
 40
2.0
 40
2.0
 40
3.0
 40
3.0
 40
3.0
 40
4.0
 40
4.0
 40
4.0
 40
5.0
 40
5.0
 40
5.0
 40
6.0
 40
6.0
 40
6.0
 40
7.0
 40
7.0
 40
7.0
 40
8.0
 40
8.0
 40
8.0
 40
9.0
 40
9.0
 40
9.0
 40
9.0
 10
36.40859027777777
 20
-5.840402777777777
 10
36.40859027777777
 20
-5.840402777777777
 10
35.59182916666666
 20
-5.837337500000002
 10
35.59182916666666
 20
-5.837337500000002
 10
35.54082499999999
 20
-5.83966805555556
 10
35.49650555555556
 20
-5.865704166666672
 10
35.47332361111113
 20
-5.907009722222218
 10
35.45132361111111
 20
-5.946168055555555
 10
35.45155833333335
 20
-5.993918055555556
 10
35.47392638888888
 20
-6.034700000000005
 10
35.51374027777779
 20
-6.107174999999996
 10
35.5871875
 20
-6.107411111111105
 10
35.62247083333333
 20
-6.107516666666672
 10
35.62247083333333
 20
-6.107516666666672
 10
36.40856527777778
 20
-6.110659722222231
 10
36.40856527777778
 20
-6.110659722222231
 10
36.40856527777778
 20
-6.110659722222231
 10
36.40925416666666
 20
-6.110659722222231
 10
36.40925416666666
 20
-6.110659722222231
 10
36.40925416666666
 20
-6.110659722222231
 10
36.40995555555557
 20
-6.110659722222231
 10
36.40995555555557
 20
-6.110659722222231
 10
36.49267361111111
 20
-6.108852777777782
 10
36.55200000000001
 20
-6.055104166666675
 10
36.55425277777777
 20
-5.979983333333331
 10
36.55658055555556
 20
-5.90310694444444
 10
36.49794305555555
 20
-5.845770833333328
 10
36.40859027777777
 20
-5.840402777777777
 97
        0
 97
        0
 75
     2
 76
     1
 98
        0
  0
SPLINE
  5
67
330
1F
100
AcDbEntity
  8
Layer 1
370
     0
100
AcDbSpline
210
0.0
220
0.0
230
1.0
 70
    11
 71
     3
 72
    17
 73
    13
 74
     0
 42
0.0000000001
 43
0.0000000001
 12
1.0
 22
0.0
 32
0.0
 13
1.0
 23
0.0
 33
0.0
 40
0.0
 40
0.0
 40
0.0
 40
0.0
 40
1.0
 40
1.0
 40
1.0
 40
2.0
 40
2.0
 40
2.0
 40
3.0
 40
3.0
 40
3.0
 40
4.0
 40
4.0
 40
4.0
 40
4.0
 10
33.29220972222222
 20
-2.868737500000002
 30
0.0
 10
33.14189305555556
 20
-2.868737500000002
 30
0.0
 10
33.0200638888889
 20
-2.990579166666672
 30
0.0
 10
33.0200638888889
 20
-3.140872222222217
 30
0.0
 10
33.0200638888889
 20
-3.291176388888895
 30
0.0
 10
33.14189305555556
 20
-3.413006944444444
 30
0.0
 10
33.29220972222222
 20
-3.413006944444444
 30
0.0
 10
33.44250277777776
 20
-3.413006944444444
 30
0.0
 10
33.56433194444445
 20
-3.291176388888895
 30
0.0
 10
33.56433194444445
 20
-3.140872222222217
 30
0.0
 10
33.56433194444445
 20
-2.990579166666672
 30
0.0
 10
33.44250277777776
 20
-2.868737500000002
 30
0.0
 10
33.29220972222222
 20
-2.868737500000002
 30
0.0
  0
HATCH
  5
68
330
1F
100
AcDbEntity
  8
Layer 1
 62
     7
420
 16777215
100
AcDbHatch
 10
0.0
 20
0.0
 30
0.0
210
0.0
220
0.0
230
1.0
  2
SOLID
 70
     1
 71
     0
 91
        1
 92
        1
 93
        1
 72
     4
 94
        3
 73
     0
 74
     1
 95
       17
 96
       13
 40
0.0
 40
0.0
 40
0.0
 40
0.0
 40
1.0
 40
1.0
 40
1.0
 40
2.0
 40
2.0
 40
2.0
 40
3.0
 40
3.0
 40
3.0
 40
4.0
 40
4.0
 40
4.0
 40
4.0
 10
33.29220972222222
 20
-2.868737500000002
 10
33.14189305555556
 20
-2.868737500000002
 10
33.0200638888889
 20
-2.990579166666672
 10
33.0200638888889
 20
-3.140872222222217
 10
33.0200638888889
 20
-3.291176388888895
 10
33.14189305555556
 20
-3.413006944444444
 10
33.29220972222222
 20
-3.413006944444444
 10
33.44250277777776
 20
-3.413006944444444
 10
33.56433194444445
 20
-3.291176388888895
 10
33.56433194444445
 20
-3.140872222222217
 10
33.56433194444445
 20
-2.990579166666672
 10
33.44250277777776
 20
-2.868737500000002
 10
33.29220972222222
 20
-2.868737500000002
 97
        0
 97
        0
 75
     2
 76
     1
 98
        0
  0
SPLINE
  5
69
330
1F
100
AcDbEntity
  8
Layer 1
370
     0
100
AcDbSpline
210
0.0
220
0.0
230
1.0
 70
    11
 71
     3
 72
    17
 73
    13
 74
     0
 42
0.0000000001
 43
0.0000000001
 12
1.0
 22
0.0
 32
0.0
 13
1.0
 23
0.0
 33
0.0
 40
0.0
 40
0.0
 40
0.0
 40
0.0
 40
1.0
 40
1.0
 40
1.0
 40
2.0
 40
2.0
 40
2.0
 40
3.0
 40
3.0
 40
3.0
 40
4.0
 40
4.0
 40
4.0
 40
4.0
 10
31.6456888888889
 20
-2.376962500000003
 30
0.0
 10
31.77585277777777
 20
-2.30180416666667
 30
0.0
 10
31.82045555555555
 20
-2.13537222222222
 30
0.0
 10
31.74530972222222
 20
-2.005208333333333
 30
0.0
 10
31.67015138888888
 20
-1.875043055555554
 30
0.0
 10
31.50371944444444
 20
-1.830452777777774
 30
0.0
 10
31.37355555555556
 20
-1.905599999999999
 30
0.0
 10
31.24339027777778
 20
-1.980745833333332
 30
0.0
 10
31.19879999999999
 20
-2.147177777777781
 30
0.0
 10
31.27394722222223
 20
-2.277341666666669
 30
0.0
 10
31.34909305555556
 20
-2.407506944444448
 30
0.0
 10
31.515525
 20
-2.452097222222227
 30
0.0
 10
31.6456888888889
 20
-2.376962500000003
 30
0.0
  0
HATCH
  5
6A
330
1F
100
AcDbEntity
  8
Layer 1
 62
     7
420
 16777215
100
AcDbHatch
 10
0.0
 20
0.0
 30
0.0
210
0.0
220
0.0
230
1.0
  2
SOLID
 70
     1
 71
     0
 91
        1
 92
        1
 93
        1
 72
     4
 94
        3
 73
     0
 74
     1
 95
       17
 96
       13
 40
0.0
 40
0.0
 40
0.0
 40
0.0
 40
1.0
 40
1.0
 40
1.0
 40
2.0
 40
2.0
 40
2.0
 40
3.0
 40
3.0
 40
3.0
 40
4.0
 40
4.0
 40
4.0
 40
4.0
 10
31.6456888888889
 20
-2.376962500000003
 10
31.77585277777777
 20
-2.30180416666667
 10
31.82045555555555
 20
-2.13537222222222
 10
31.74530972222222
 20
-2.005208333333333
 10
31.67015138888888
 20
-1.875043055555554
 10
31.50371944444444
 20
-1.830452777777774
 10
31.37355555555556
 20
-1.905599999999999
 10
31.24339027777778
 20
-1.980745833333332
 10
31.19879999999999
 20
-2.147177777777781
 10
31.27394722222223
 20
-2.277341666666669
 10
31.34909305555556
 20
-2.407506944444448
 10
31.515525
 20
-2.452097222222227
 10
31.6456888888889
 20
-2.376962500000003
 97
        0
 97
        0
 75
     2
 76
     1
 98
        0
  0
SPLINE
  5
6B
330
1F
100
AcDbEntity
  8
Layer 1
370
     0
100
AcDbSpline
210
0.0
220
0.0
230
1.0
 70
    11
 71
     3
 72
    17
 73
    13
 74
     0
 42
0.0000000001
 43
0.0000000001
 12
1.0
 22
0.0
 32
0.0
 13
1.0
 23
0.0
 33
0.0
 40
0.0
 40
0.0
 40
0.0
 40
0.0
 40
1.0
 40
1.0
 40
1.0
 40
2.0
 40
2.0
 40
2.0
 40
3.0
 40
3.0
 40
3.0
 40
4.0
 40
4.0
 40
4.0
 40
4.0
 10
29.70174722222221
 20
-2.302961111111105
 30
0.0
 10
29.77690555555556
 20
-2.172797222222218
 30
0.0
 10
29.73230277777778
 20
-2.006352777777781
 30
0.0
 10
29.60215138888889
 20
-1.931206944444448
 30
0.0
 10
29.471975
 20
-1.856059722222224
 30
0.0
 10
29.30554305555555
 20
-1.900650000000004
 30
0.0
 10
29.23038333333334
 20
-2.030815277777783
 30
0.0
 10
29.1552375
 20
-2.16097916666667
 30
0.0
 10
29.19982777777778
 20
-2.327411111111107
 30
0.0
 10
29.33000416666667
 20
-2.40256944444444
 30
0.0
 10
29.46016805555556
 20
-2.477715277777773
 30
0.0
 10
29.62660138888888
 20
-2.433112500000005
 30
0.0
 10
29.70174722222221
 20
-2.302961111111105
 30
0.0
  0
HATCH
  5
6C
330
1F
100
AcDbEntity
  8
Layer 1
 62
     7
420
 16777215
100
AcDbHatch
 10
0.0
 20
0.0
 30
0.0
210
0.0
220
0.0
230
1.0
  2
SOLID
 70
     1
 71
     0
 91
        1
 92
        1
 93
        1
 72
     4
 94
        3
 73
     0
 74
     1
 95
       17
 96
       13
 40
0.0
 40
0.0
 40
0.0
 40
0.0
 40
1.0
 40
1.0
 40
1.0
 40
2.0
 40
2.0
 40
2.0
 40
3.0
 40
3.0
 40
3.0
 40
4.0
 40
4.0
 40
4.0
 40
4.0
 10
29.70174722222221
 20
-2.302961111111105
 10
29.77690555555556
 20
-2.172797222222218
 10
29.73230277777778
 20
-2.006352777777781
 10
29.60215138888889
 20
-1.931206944444448
 10
29.471975
 20
-1.856059722222224
 10
29.30554305555555
 20
-1.900650000000004
 10
29.23038333333334
 20
-2.030815277777783
 10
29.1552375
 20
-2.16097916666667
 10
29.19982777777778
 20
-2.327411111111107
 10
29.33000416666667
 20
-2.40256944444444
 10
29.46016805555556
 20
-2.477715277777773
 10
29.62660138888888
 20
-2.433112500000005
 10
29.70174722222221
 20
-2.302961111111105
 97
        0
 97
        0
 75
     2
 76
     1
 98
        0
  0
SPLINE
  5
6D
330
1F
100
AcDbEntity
  8
Layer 1
370
     0
100
AcDbSpline
210
0.0
220
0.0
230
1.0
 70
    11
 71
     3
 72
    17
 73
    13
 74
     0
 42
0.0000000001
 43
0.0000000001
 12
1.0
 22
0.0
 32
0.0
 13
1.0
 23
0.0
 33
0.0
 40
0.0
 40
0.0
 40
0.0
 40
0.0
 40
1.0
 40
1.0
 40
1.0
 40
2.0
 40
2.0
 40
2.0
 40
3.0
 40
3.0
 40
3.0
 40
4.0
 40
4.0
 40
4.0
 40
4.0
 10
27.43696805555555
 20
-3.210847222222216
 30
0.0
 10
27.43696805555555
 20
-3.361140277777773
 30
0.0
 10
27.55880972222222
 20
-3.482981944444443
 30
0.0
 10
27.70910277777778
 20
-3.482981944444443
 30
0.0
 10
27.85940694444444
 20
-3.482981944444443
 30
0.0
 10
27.98124999999999
 20
-3.361140277777773
 30
0.0
 10
27.98124999999999
 20
-3.210847222222216
 30
0.0
 10
27.98124999999999
 20
-3.060555555555551
 30
0.0
 10
27.85940694444444
 20
-2.938701388888894
 30
0.0
 10
27.70910277777778
 20
-2.938701388888894
 30
0.0
 10
27.55880972222222
 20
-2.938701388888894
 30
0.0
 10
27.43696805555555
 20
-3.060555555555551
 30
0.0
 10
27.43696805555555
 20
-3.210847222222216
 30
0.0
  0
HATCH
  5
6E
330
1F
100
AcDbEntity
  8
Layer 1
 62
     7
420
 16777215
100
AcDbHatch
 10
0.0
 20
0.0
 30
0.0
210
0.0
220
0.0
230
1.0
  2
SOLID
 70
     1
 71
     0
 91
        1
 92
        1
 93
        1
 72
     4
 94
        3
 73
     0
 74
     1
 95
       17
 96
       13
 40
0.0
 40
0.0
 40
0.0
 40
0.0
 40
1.0
 40
1.0
 40
1.0
 40
2.0
 40
2.0
 40
2.0
 40
3.0
 40
3.0
 40
3.0
 40
4.0
 40
4.0
 40
4.0
 40
4.0
 10
27.43696805555555
 20
-3.210847222222216
 10
27.43696805555555
 20
-3.361140277777773
 10
27.55880972222222
 20
-3.482981944444443
 10
27.70910277777778
 20
-3.482981944444443
 10
27.85940694444444
 20
-3.482981944444443
 10
27.98124999999999
 20
-3.361140277777773
 10
27.98124999999999
 20
-3.210847222222216
 10
27.98124999999999
 20
-3.060555555555551
 10
27.85940694444444
 20
-2.938701388888894
 10
27.70910277777778
 20
-2.938701388888894
 10
27.55880972222222
 20
-2.938701388888894
 10
27.43696805555555
 20
-3.060555555555551
 10
27.43696805555555
 20
-3.210847222222216
 97
        0
 97
        0
 75
     2
 76
     1
 98
        0
  0
SPLINE
  5
6F
330
1F
100
AcDbEntity
  8
Layer 1
370
     0
100
AcDbSpline
210
0.0
220
0.0
230
1.0
 70
    11
 71
     3
 72
    17
 73
    13
 74
     0
 42
0.0000000001
 43
0.0000000001
 12
1.0
 22
0.0
 32
0.0
 13
1.0
 23
0.0
 33
0.0
 40
0.0
 40
0.0
 40
0.0
 40
0.0
 40
1.0
 40
1.0
 40
1.0
 40
2.0
 40
2.0
 40
2.0
 40
3.0
 40
3.0
 40
3.0
 40
4.0
 40
4.0
 40
4.0
 40
4.0
 10
26.84558472222222
 20
-5.229093055555558
 30
0.0
 10
26.9757486111111
 20
-5.153944444444442
 30
0.0
 10
27.02034027777778
 20
-4.987512500000005
 30
0.0
 10
26.94519305555555
 20
-4.857354166666672
 30
0.0
 10
26.87004722222222
 20
-4.727188888888892
 30
0.0
 10
26.70361527777777
 20
-4.68259583333333
 30
0.0
 10
26.57343888888888
 20
-4.757738888888891
 30
0.0
 10
26.443275
 20
-4.832887499999995
 30
0.0
 10
26.39868333333334
 20
-4.999323611111107
 30
0.0
 10
26.47383055555555
 20
-5.129483333333332
 30
0.0
 10
26.54897638888888
 20
-5.259648611111111
 30
0.0
 10
26.71542083333333
 20
-5.304241666666662
 30
0.0
 10
26.84558472222222
 20
-5.229093055555558
 30
0.0
  0
HATCH
  5
70
330
1F
100
AcDbEntity
  8
Layer 1
 62
     7
420
 16777215
100
AcDbHatch
 10
0.0
 20
0.0
 30
0.0
210
0.0
220
0.0
230
1.0
  2
SOLID
 70
     1
 71
     0
 91
        1
 92
        1
 93
        1
 72
     4
 94
        3
 73
     0
 74
     1
 95
       17
 96
       13
 40
0.0
 40
0.0
 40
0.0
 40
0.0
 40
1.0
 40
1.0
 40
1.0
 40
2.0
 40
2.0
 40
2.0
 40
3.0
 40
3.0
 40
3.0
 40
4.0
 40
4.0
 40
4.0
 40
4.0
 10
26.84558472222222
 20
-5.229093055555558
 10
26.9757486111111
 20
-5.153944444444442
 10
27.02034027777778
 20
-4.987512500000005
 10
26.94519305555555
 20
-4.857354166666672
 10
26.87004722222222
 20
-4.727188888888892
 10
26.70361527777777
 20
-4.68259583333333
 10
26.57343888888888
 20
-4.757738888888891
 10
26.443275
 20
-4.832887499999995
 10
26.39868333333334
 20
-4.999323611111107
 10
26.47383055555555
 20
-5.129483333333332
 10
26.54897638888888
 20
-5.259648611111111
 10
26.71542083333333
 20
-5.304241666666662
 10
26.84558472222222
 20
-5.229093055555558
 97
        0
 97
        0
 75
     2
 76
     1
 98
        0
  0
SPLINE
  5
71
330
1F
100
AcDbEntity
  8
Layer 1
370
     0
100
AcDbSpline
210
0.0
220
0.0
230
1.0
 70
    11
 71
     3
 72
    17
 73
    13
 74
     0
 42
0.0000000001
 43
0.0000000001
 12
1.0
 22
0.0
 32
0.0
 13
1.0
 23
0.0
 33
0.0
 40
0.0
 40
0.0
 40
0.0
 40
0.0
 40
1.0
 40
1.0
 40
1.0
 40
2.0
 40
2.0
 40
2.0
 40
3.0
 40
3.0
 40
3.0
 40
4.0
 40
4.0
 40
4.0
 40
4.0
 10
26.49945
 20
-6.900906944444436
 30
0.0
 10
26.42429027777777
 20
-7.031058333333324
 30
0.0
 10
26.46889305555555
 20
-7.197502777777774
 30
0.0
 10
26.59905694444444
 20
-7.272650000000011
 30
0.0
 10
26.72920972222222
 20
-7.347795833333343
 30
0.0
 10
26.89565416666667
 20
-7.303205555555551
 30
0.0
 10
26.9708
 20
-7.173041666666677
 30
0.0
 10
27.04594722222222
 20
-7.042888888888885
 30
0.0
 10
27.00135555555556
 20
-6.876444444444435
 30
0.0
 10
26.87119166666667
 20
-6.801298611111102
 30
0.0
 10
26.74102777777778
 20
-6.726140277777782
 30
0.0
 10
26.57459583333333
 20
-6.770743055555562
 30
0.0
 10
26.49945
 20
-6.900906944444436
 30
0.0
  0
HATCH
  5
72
330
1F
100
AcDbEntity
  8
Layer 1
 62
     7
420
 16777215
100
AcDbHatch
 10
0.0
 20
0.0
 30
0.0
210
0.0
220
0.0
230
1.0
  2
SOLID
 70
     1
 71
     0
 91
        1
 92
        1
 93
        1
 72
     4
 94
        3
 73
     0
 74
     1
 95
       17
 96
       13
 40
0.0
 40
0.0
 40
0.0
 40
0.0
 40
1.0
 40
1.0
 40
1.0
 40
2.0
 40
2.0
 40
2.0
 40
3.0
 40
3.0
 40
3.0
 40
4.0
 40
4.0
 40
4.0
 40
4.0
 10
26.49945
 20
-6.900906944444436
 10
26.42429027777777
 20
-7.031058333333324
 10
26.46889305555555
 20
-7.197502777777774
 10
26.59905694444444
 20
-7.272650000000011
 10
26.72920972222222
 20
-7.347795833333343
 10
26.89565416666667
 20
-7.303205555555551
 10
26.9708
 20
-7.173041666666677
 10
27.04594722222222
 20
-7.042888888888885
 10
27.00135555555556
 20
-6.876444444444435
 10
26.87119166666667
 20
-6.801298611111102
 10
26.74102777777778
 20
-6.726140277777782
 10
26.57459583333333
 20
-6.770743055555562
 10
26.49945
 20
-6.900906944444436
 97
        0
 97
        0
 75
     2
 76
     1
 98
        0
  0
SPLINE
  5
73
330
1F
100
AcDbEntity
  8
Layer 1
370
     0
100
AcDbSpline
210
0.0
220
0.0
230
1.0
 70
    11
 71
     3
 72
    17
 73
    13
 74
     0
 42
0.0000000001
 43
0.0000000001
 12
1.0
 22
0.0
 32
0.0
 13
1.0
 23
0.0
 33
0.0
 40
0.0
 40
0.0
 40
0.0
 40
0.0
 40
1.0
 40
1.0
 40
1.0
 40
2.0
 40
2.0
 40
2.0
 40
3.0
 40
3.0
 40
3.0
 40
4.0
 40
4.0
 40
4.0
 40
4.0
 10
28.05121249999999
 20
-8.793943055555548
 30
0.0
 10
28.05121249999999
 20
-8.643637499999992
 30
0.0
 10
27.92937083333334
 20
-8.521795833333321
 30
0.0
 10
27.77907777777778
 20
-8.521795833333321
 30
0.0
 10
27.62877361111111
 20
-8.521795833333321
 30
0.0
 10
27.50694444444444
 20
-8.643637499999992
 30
0.0
 10
27.50694444444444
 20
-8.793943055555548
 30
0.0
 10
27.50694444444444
 20
-8.944236111111119
 30
0.0
 10
27.62877361111111
 20
-9.066065277777776
 30
0.0
 10
27.77907777777778
 20
-9.066065277777776
 30
0.0
 10
27.92937083333334
 20
-9.066065277777776
 30
0.0
 10
28.05121249999999
 20
-8.944236111111119
 30
0.0
 10
28.05121249999999
 20
-8.793943055555548
 30
0.0
  0
HATCH
  5
74
330
1F
100
AcDbEntity
  8
Layer 1
 62
     7
420
 16777215
100
AcDbHatch
 10
0.0
 20
0.0
 30
0.0
210
0.0
220
0.0
230
1.0
  2
SOLID
 70
     1
 71
     0
 91
        1
 92
        1
 93
        1
 72
     4
 94
        3
 73
     0
 74
     1
 95
       17
 96
       13
 40
0.0
 40
0.0
 40
0.0
 40
0.0
 40
1.0
 40
1.0
 40
1.0
 40
2.0
 40
2.0
 40
2.0
 40
3.0
 40
3.0
 40
3.0
 40
4.0
 40
4.0
 40
4.0
 40
4.0
 10
28.05121249999999
 20
-8.793943055555548
 10
28.05121249999999
 20
-8.643637499999992
 10
27.92937083333334
 20
-8.521795833333321
 10
27.77907777777778
 20
-8.521795833333321
 10
27.62877361111111
 20
-8.521795833333321
 10
27.50694444444444
 20
-8.643637499999992
 10
27.50694444444444
 20
-8.793943055555548
 10
27.50694444444444
 20
-8.944236111111119
 10
27.62877361111111
 20
-9.066065277777776
 10
27.77907777777778
 20
-9.066065277777776
 10
27.92937083333334
 20
-9.066065277777776
 10
28.05121249999999
 20
-8.944236111111119
 10
28.05121249999999
 20
-8.793943055555548
 97
        0
 97
        0
 75
     2
 76
     1
 98
        0
  0
SPLINE
  5
75
330
1F
100
AcDbEntity
  8
Layer 1
370
     0
100
AcDbSpline
210
0.0
220
0.0
230
1.0
 70
    11
 71
     3
 72
    17
 73
    13
 74
     0
 42
0.0000000001
 43
0.0000000001
 12
1.0
 22
0.0
 32
0.0
 13
1.0
 23
0.0
 33
0.0
 40
0.0
 40
0.0
 40
0.0
 40
0.0
 40
1.0
 40
1.0
 40
1.0
 40
2.0
 40
2.0
 40
2.0
 40
3.0
 40
3.0
 40
3.0
 40
4.0
 40
4.0
 40
4.0
 40
4.0
 10
29.42557500000001
 20
-9.557852777777775
 30
0.0
 10
29.29542222222221
 20
-9.632998611111107
 30
0.0
 10
29.25082083333334
 20
-9.799443055555559
 30
0.0
 10
29.32597916666666
 20
-9.929606944444432
 30
0.0
 10
29.40112499999999
 20
-10.05975833333332
 30
0.0
 10
29.56755694444445
 20
-10.1043611111111
 30
0.0
 10
29.69772083333333
 20
-10.02921527777777
 30
0.0
 10
29.82788611111111
 20
-9.954056944444448
 30
0.0
 10
29.87247638888888
 20
-9.787637499999997
 30
0.0
 10
29.79734166666668
 20
-9.65746111111111
 30
0.0
 10
29.72218333333333
 20
-9.52729583333333
 30
0.0
 10
29.55573888888889
 20
-9.482705555555563
 30
0.0
 10
29.42557500000001
 20
-9.557852777777775
 30
0.0
  0
HATCH
  5
76
330
1F
100
AcDbEntity
  8
Layer 1
 62
     7
420
 16777215
100
AcDbHatch
 10
0.0
 20
0.0
 30
0.0
210
0.0
220
0.0
230
1.0
  2
SOLID
 70
     1
 71
     0
 91
        1
 92
        1
 93
        1
 72
     4
 94
        3
 73
     0
 74
     1
 95
       17
 96
       13
 40
0.0
 40
0.0
 40
0.0
 40
0.0
 40
1.0
 40
1.0
 40
1.0
 40
2.0
 40
2.0
 40
2.0
 40
3.0
 40
3.0
 40
3.0
 40
4.0
 40
4.0
 40
4.0
 40
4.0
 10
29.42557500000001
 20
-9.557852777777775
 10
29.29542222222221
 20
-9.632998611111107
 10
29.25082083333334
 20
-9.799443055555559
 10
29.32597916666666
 20
-9.929606944444432
 10
29.40112499999999
 20
-10.05975833333332
 10
29.56755694444445
 20
-10.1043611111111
 10
29.69772083333333
 20
-10.02921527777777
 10
29.82788611111111
 20
-9.954056944444448
 10
29.87247638888888
 20
-9.787637499999997
 10
29.79734166666668
 20
-9.65746111111111
 10
29.72218333333333
 20
-9.52729583333333
 10
29.55573888888889
 20
-9.482705555555563
 10
29.42557500000001
 20
-9.557852777777775
 97
        0
 97
        0
 75
     2
 76
     1
 98
        0
  0
SPLINE
  5
77
330
1F
100
AcDbEntity
  8
Layer 1
370
     0
100
AcDbSpline
210
0.0
220
0.0
230
1.0
 70
    11
 71
     3
 72
    17
 73
    13
 74
     0
 42
0.0000000001
 43
0.0000000001
 12
1.0
 22
0.0
 32
0.0
 13
1.0
 23
0.0
 33
0.0
 40
0.0
 40
0.0
 40
0.0
 40
0.0
 40
1.0
 40
1.0
 40
1.0
 40
2.0
 40
2.0
 40
2.0
 40
3.0
 40
3.0
 40
3.0
 40
4.0
 40
4.0
 40
4.0
 40
4.0
 10
31.36952916666668
 20
-9.631841666666661
 30
0.0
 10
31.29438333333332
 20
-9.762018055555547
 30
0.0
 10
31.3389861111111
 20
-9.92845000000001
 30
0.0
 10
31.46913750000001
 20
-10.00360833333333
 30
0.0
 10
31.59930138888889
 20
-10.07875416666666
 30
0.0
 10
31.76573333333332
 20
-10.0341638888889
 30
0.0
 10
31.84088055555556
 20
-9.903987500000008
 30
0.0
 10
31.91603888888888
 20
-9.773823611111109
 30
0.0
 10
31.8714361111111
 20
-9.607391666666672
 30
0.0
 10
31.74127222222222
 20
-9.532245833333338
 30
0.0
 10
31.61110833333333
 20
-9.457086111111114
 30
0.0
 10
31.44467499999999
 20
-9.501688888888895
 30
0.0
 10
31.36952916666668
 20
-9.631841666666661
 30
0.0
  0
HATCH
  5
78
330
1F
100
AcDbEntity
  8
Layer 1
 62
     7
420
 16777215
100
AcDbHatch
 10
0.0
 20
0.0
 30
0.0
210
0.0
220
0.0
230
1.0
  2
SOLID
 70
     1
 71
     0
 91
        1
 92
        1
 93
        1
 72
     4
 94
        3
 73
     0
 74
     1
 95
       17
 96
       13
 40
0.0
 40
0.0
 40
0.0
 40
0.0
 40
1.0
 40
1.0
 40
1.0
 40
2.0
 40
2.0
 40
2.0
 40
3.0
 40
3.0
 40
3.0
 40
4.0
 40
4.0
 40
4.0
 40
4.0
 10
31.36952916666668
 20
-9.631841666666661
 10
31.29438333333332
 20
-9.762018055555547
 10
31.3389861111111
 20
-9.92845000000001
 10
31.46913750000001
 20
-10.00360833333333
 10
31.59930138888889
 20
-10.07875416666666
 10
31.76573333333332
 20
-10.0341638888889
 10
31.84088055555556
 20
-9.903987500000008
 10
31.91603888888888
 20
-9.773823611111109
 10
31.8714361111111
 20
-9.607391666666672
 10
31.74127222222222
 20
-9.532245833333338
 10
31.61110833333333
 20
-9.457086111111114
 10
31.44467499999999
 20
-9.501688888888895
 10
31.36952916666668
 20
-9.631841666666661
 97
        0
 97
        0
 75
     2
 76
     1
 98
        0
  0
SPLINE
  5
79
330
1F
100
AcDbEntity
  8
Layer 1
370
     0
100
AcDbSpline
210
0.0
220
0.0
230
1.0
 70
    11
 71
     3
 72
    17
 73
    13
 74
     0
 42
0.0000000001
 43
0.0000000001
 12
1.0
 22
0.0
 32
0.0
 13
1.0
 23
0.0
 33
0.0
 40
0.0
 40
0.0
 40
0.0
 40
0.0
 40
1.0
 40
1.0
 40
1.0
 40
2.0
 40
2.0
 40
2.0
 40
3.0
 40
3.0
 40
3.0
 40
4.0
 40
4.0
 40
4.0
 40
4.0
 10
33.63430833333334
 20
-8.723966666666659
 30
0.0
 10
33.63430833333334
 20
-8.573674999999993
 30
0.0
 10
33.51246666666667
 20
-8.451820833333334
 30
0.0
 10
33.36216111111111
 20
-8.451820833333334
 30
0.0
 10
33.21186944444445
 20
-8.451820833333334
 30
0.0
 10
33.09003888888888
 20
-8.573674999999993
 30
0.0
 10
33.09003888888888
 20
-8.723966666666659
 30
0.0
 10
33.09003888888888
 20
-8.874259722222227
 30
0.0
 10
33.21186944444445
 20
-8.996113888888885
 30
0.0
 10
33.36216111111111
 20
-8.996113888888885
 30
0.0
 10
33.51246666666667
 20
-8.996113888888885
 30
0.0
 10
33.63430833333334
 20
-8.874259722222227
 30
0.0
 10
33.63430833333334
 20
-8.723966666666659
 30
0.0
  0
HATCH
  5
7A
330
1F
100
AcDbEntity
  8
Layer 1
 62
     7
420
 16777215
100
AcDbHatch
 10
0.0
 20
0.0
 30
0.0
210
0.0
220
0.0
230
1.0
  2
SOLID
 70
     1
 71
     0
 91
        1
 92
        1
 93
        1
 72
     4
 94
        3
 73
     0
 74
     1
 95
       17
 96
       13
 40
0.0
 40
0.0
 40
0.0
 40
0.0
 40
1.0
 40
1.0
 40
1.0
 40
2.0
 40
2.0
 40
2.0
 40
3.0
 40
3.0
 40
3.0
 40
4.0
 40
4.0
 40
4.0
 40
4.0
 10
33.63430833333334
 20
-8.723966666666659
 10
33.63430833333334
 20
-8.573674999999993
 10
33.51246666666667
 20
-8.451820833333334
 10
33.36216111111111
 20
-8.451820833333334
 10
33.21186944444445
 20
-8.451820833333334
 10
33.09003888888888
 20
-8.573674999999993
 10
33.09003888888888
 20
-8.723966666666659
 10
33.09003888888888
 20
-8.874259722222227
 10
33.21186944444445
 20
-8.996113888888885
 10
33.36216111111111
 20
-8.996113888888885
 10
33.51246666666667
 20
-8.996113888888885
 10
33.63430833333334
 20
-8.874259722222227
 10
33.63430833333334
 20
-8.723966666666659
 97
        0
 97
        0
 75
     2
 76
     1
 98
        0
  0
SPLINE
  5
7B
330
1F
100
AcDbEntity
  8
Layer 1
370
     0
100
AcDbSpline
210
0.0
220
0.0
230
1.0
 70
    11
 71
     3
 72
    17
 73
    13
 74
     0
 42
0.0000000001
 43
0.0000000001
 12
1.0
 22
0.0
 32
0.0
 13
1.0
 23
0.0
 33
0.0
 40
0.0
 40
0.0
 40
0.0
 40
0.0
 40
1.0
 40
1.0
 40
1.0
 40
2.0
 40
2.0
 40
2.0
 40
3.0
 40
3.0
 40
3.0
 40
4.0
 40
4.0
 40
4.0
 40
4.0
 10
34.22570277777777
 20
-6.705716666666679
 30
0.0
 10
34.0955388888889
 20
-6.780862500000012
 30
0.0
 10
34.05093611111111
 20
-6.947294444444449
 30
0.0
 10
34.12608333333333
 20
-7.077458333333324
 30
0.0
 10
34.20124166666667
 20
-7.207622222222223
 30
0.0
 10
34.36767361111111
 20
-7.252212499999991
 30
0.0
 10
34.49783750000001
 20
-7.177066666666658
 30
0.0
 10
34.62800138888888
 20
-7.101920833333325
 30
0.0
 10
34.67259166666668
 20
-6.935476388888901
 30
0.0
 10
34.59744583333334
 20
-6.805323611111109
 30
0.0
 10
34.52230000000001
 20
-6.675159722222234
 30
0.0
 10
34.35585555555556
 20
-6.630556944444455
 30
0.0
 10
34.22570277777777
 20
-6.705716666666679
 30
0.0
  0
HATCH
  5
7C
330
1F
100
AcDbEntity
  8
Layer 1
 62
     7
420
 16777215
100
AcDbHatch
 10
0.0
 20
0.0
 30
0.0
210
0.0
220
0.0
230
1.0
  2
SOLID
 70
     1
 71
     0
 91
        1
 92
        1
 93
        1
 72
     4
 94
        3
 73
     0
 74
     1
 95
       17
 96
       13
 40
0.0
 40
0.0
 40
0.0
 40
0.0
 40
1.0
 40
1.0
 40
1.0
 40
2.0
 40
2.0
 40
2.0
 40
3.0
 40
3.0
 40
3.0
 40
4.0
 40
4.0
 40
4.0
 40
4.0
 10
34.22570277777777
 20
-6.705716666666679
 10
34.0955388888889
 20
-6.780862500000012
 10
34.05093611111111
 20
-6.947294444444449
 10
34.12608333333333
 20
-7.077458333333324
 10
34.20124166666667
 20
-7.207622222222223
 10
34.36767361111111
 20
-7.252212499999991
 10
34.49783750000001
 20
-7.177066666666658
 10
34.62800138888888
 20
-7.101920833333325
 10
34.67259166666668
 20
-6.935476388888901
 10
34.59744583333334
 20
-6.805323611111109
 10
34.52230000000001
 20
-6.675159722222234
 10
34.35585555555556
 20
-6.630556944444455
 10
34.22570277777777
 20
-6.705716666666679
 97
        0
 97
        0
 75
     2
 76
     1
 98
        0
  0
SPLINE
  5
7D
330
1F
100
AcDbEntity
  8
Layer 1
370
     0
100
AcDbSpline
210
0.0
220
0.0
230
1.0
 70
    11
 71
     3
 72
    17
 73
    13
 74
     0
 42
0.0000000001
 43
0.0000000001
 12
1.0
 22
0.0
 32
0.0
 13
1.0
 23
0.0
 33
0.0
 40
0.0
 40
0.0
 40
0.0
 40
0.0
 40
1.0
 40
1.0
 40
1.0
 40
2.0
 40
2.0
 40
2.0
 40
3.0
 40
3.0
 40
3.0
 40
4.0
 40
4.0
 40
4.0
 40
4.0
 10
34.57183888888888
 20
-5.033902777777775
 30
0.0
 10
34.64698611111112
 20
-4.903744444444442
 30
0.0
 10
34.60238333333334
 20
-4.737311111111112
 30
0.0
 10
34.47223055555555
 20
-4.662162499999996
 30
0.0
 10
34.34206666666667
 20
-4.587009722222218
 30
0.0
 10
34.17562222222222
 20
-4.631606944444443
 30
0.0
 10
34.10047638888889
 20
-4.76176805555556
 30
0.0
 10
34.02532916666668
 20
-4.891926388888893
 30
0.0
 10
34.06992083333332
 20
-5.058369444444438
 30
0.0
 10
34.20008472222222
 20
-5.133518055555555
 30
0.0
 10
34.33024861111112
 20
-5.208666666666671
 30
0.0
 10
34.49668055555556
 20
-5.164072222222217
 30
0.0
 10
34.57183888888888
 20
-5.033902777777775
 30
0.0
  0
HATCH
  5
7E
330
1F
100
AcDbEntity
  8
Layer 1
 62
     7
420
 16777215
100
AcDbHatch
 10
0.0
 20
0.0
 30
0.0
210
0.0
220
0.0
230
1.0
  2
SOLID
 70
     1
 71
     0
 91
        1
 92
        1
 93
        1
 72
     4
 94
        3
 73
     0
 74
     1
 95
       17
 96
       13
 40
0.0
 40
0.0
 40
0.0
 40
0.0
 40
1.0
 40
1.0
 40
1.0
 40
2.0
 40
2.0
 40
2.0
 40
3.0
 40
3.0
 40
3.0
 40
4.0
 40
4.0
 40
4.0
 40
4.0
 10
34.57183888888888
 20
-5.033902777777775
 10
34.64698611111112
 20
-4.903744444444442
 10
34.60238333333334
 20
-4.737311111111112
 10
34.47223055555555
 20
-4.662162499999996
 10
34.34206666666667
 20
-4.587009722222218
 10
34.17562222222222
 20
-4.631606944444443
 10
34.10047638888889
 20
-4.76176805555556
 10
34.02532916666668
 20
-4.891926388888893
 10
34.06992083333332
 20
-5.058369444444438
 10
34.20008472222222
 20
-5.133518055555555
 10
34.33024861111112
 20
-5.208666666666671
 10
34.49668055555556
 20
-5.164072222222217
 10
34.57183888888888
 20
-5.033902777777775
 97
        0
 97
        0
 75
     2
 76
     1
 98
        0
  0
ENDSEC
  0
SECTION
  2
OBJECTS
  0
DICTIONARY
  5
C
330
0
100
AcDbDictionary
281
     1
  3
ACAD_GROUP
350
D
  3
ACAD_LAYOUT
350
1A
  3
ACAD_MATERIAL
350
3B
  3
ACAD_MLEADERSTYLE
350
80
  3
ACAD_MLINESTYLE
350
17
  3
ACAD_PLOTSETTINGS
350
19
  3
ACAD_PLOTSTYLENAME
350
E
  3
ACAD_TABLESTYLE
350
7F
  3
ACAD_VISUALSTYLE
350
2A
  0
SUN
  5
3F
330
29
100
AcDbSun
 90
        1
290
     0
 63
     7
421
 16777215
 40
1.0
291
     1
 91
  2455826
 92
 54000000
292
     0
 70
     2
 71
   256
280
     1
  0
DICTIONARY
  5
D
102
{ACAD_REACTORS
330
C
102
}
330
C
100
AcDbDictionary
281
     1
  0
DICTIONARY
  5
1A
102
{ACAD_REACTORS
330
C
102
}
330
C
100
AcDbDictionary
281
     1
  3
Layout1
350
1E
  3
Layout2
350
26
  3
Model
350
22
  0
DICTIONARY
  5
3B
102
{ACAD_REACTORS
330
C
102
}
330
C
100
AcDbDictionary
281
     1
  3
ByBlock
350
3D
  3
ByLayer
350
3C
  3
Global
350
3E
  0
DICTIONARY
  5
80
102
{ACAD_REACTORS
330
C
102
}
330
C
100
AcDbDictionary
281
     1
  0
DICTIONARY
  5
17
102
{ACAD_REACTORS
330
C
102
}
330
C
100
AcDbDictionary
281
     1
  3
Standard
350
18
  0
DICTIONARY
  5
19
102
{ACAD_REACTORS
330
C
102
}
330
C
100
AcDbDictionary
281
     1
  0
ACDBDICTIONARYWDFLT
  5
E
102
{ACAD_REACTORS
330
C
102
}
330
C
100
AcDbDictionary
281
     1
  3
Normal
350
F
100
AcDbDictionaryWithDefault
340
F
  0
DICTIONARY
  5
7F
102
{ACAD_REACTORS
330
C
102
}
330
C
100
AcDbDictionary
281
     1
  0
DICTIONARY
  5
2A
102
{ACAD_REACTORS
330
C
102
}
330
C
100
AcDbDictionary
281
     1
  3
2dWireframe
350
2F
  3
3D Hidden
350
31
  3
3dWireframe
350
30
  3
Basic
350
32
  3
Brighten
350
36
  3
ColorChange
350
3A
  3
Conceptual
350
34
  3
Dim
350
35
  3
Facepattern
350
39
  3
Flat
350
2B
  3
FlatWithEdges
350
2C
  3
Gouraud
350
2D
  3
GouraudWithEdges
350
2E
  3
Linepattern
350
38
  3
Realistic
350
33
  3
Thicken
350
37
  0
LAYOUT
  5
1E
102
{ACAD_REACTORS
330
1A
102
}
330
1A
100
AcDbPlotSettings
  1

  2
none_device
  4

  6

 40
0.0
 41
0.0
 42
0.0
 43
0.0
 44
0.0
 45
0.0
 46
0.0
 47
0.0
 48
0.0
 49
0.0
140
0.0
141
0.0
142
1.0
143
1.0
 70
   688
 72
     0
 73
     0
 74
     5
  7

 75
    16
 76
     0
 77
     2
 78
   300
147
1.0
148
0.0
149
0.0
100
AcDbLayout
  1
Layout1
 70
     1
 71
     1
 10
0.0
 20
0.0
 11
12.0
 21
9.0
 12
0.0
 22
0.0
 32
0.0
 14
1.000000000000000E+20
 24
1.000000000000000E+20
 34
1.000000000000000E+20
 15
-1.000000000000000E+20
 25
-1.000000000000000E+20
 35
-1.000000000000000E+20
146
0.0
 13
0.0
 23
0.0
 33
0.0
 16
1.0
 26
0.0
 36
0.0
 17
0.0
 27
1.0
 37
0.0
 76
     0
330
1B
  0
LAYOUT
  5
26
102
{ACAD_REACTORS
330
1A
102
}
330
1A
100
AcDbPlotSettings
  1

  2
none_device
  4

  6

 40
0.0
 41
0.0
 42
0.0
 43
0.0
 44
0.0
 45
0.0
 46
0.0
 47
0.0
 48
0.0
 49
0.0
140
0.0
141
0.0
142
1.0
143
1.0
 70
   688
 72
     0
 73
     0
 74
     5
  7

 75
    16
 76
     0
 77
     2
 78
   300
147
1.0
148
0.0
149
0.0
100
AcDbLayout
  1
Layout2
 70
     1
 71
     2
 10
0.0
 20
0.0
 11
0.0
 21
0.0
 12
0.0
 22
0.0
 32
0.0
 14
0.0
 24
0.0
 34
0.0
 15
0.0
 25
0.0
 35
0.0
146
0.0
 13
0.0
 23
0.0
 33
0.0
 16
1.0
 26
0.0
 36
0.0
 17
0.0
 27
1.0
 37
0.0
 76
     0
330
23
  0
LAYOUT
  5
22
102
{ACAD_REACTORS
330
1A
102
}
330
1A
100
AcDbPlotSettings
  1

  2
none_device
  4

  6

 40
0.0
 41
0.0
 42
0.0
 43
0.0
 44
0.0
 45
0.0
 46
0.0
 47
0.0
 48
0.0
 49
0.0
140
0.0
141
0.0
142
1.0
143
1.0
 70
  1712
 72
     0
 73
     0
 74
     0
  7

 75
     0
 76
     0
 77
     2
 78
   300
147
1.0
148
0.0
149
0.0
100
AcDbLayout
  1
Model
 70
     1
 71
     0
 10
0.0
 20
0.0
 11
12.0
 21
9.0
 12
0.0
 22
0.0
 32
0.0
 14
1.000000000000000E+20
 24
1.000000000000000E+20
 34
1.000000000000000E+20
 15
-1.000000000000000E+20
 25
-1.000000000000000E+20
 35
-1.000000000000000E+20
146
0.0
 13
0.0
 23
0.0
 33
0.0
 16
1.0
 26
0.0
 36
0.0
 17
0.0
 27
1.0
 37
0.0
 76
     0
330
1F
331
29
  0
MATERIAL
  5
3D
102
{ACAD_REACTORS
330
3B
102
}
330
3B
100
AcDbMaterial
  1
ByBlock
 72
     1
 94
      127
  0
MATERIAL
  5
3C
102
{ACAD_REACTORS
330
3B
102
}
330
3B
100
AcDbMaterial
  1
ByLayer
 72
     1
 94
      127
  0
MATERIAL
  5
3E
102
{ACAD_REACTORS
330
3B
102
}
330
3B
100
AcDbMaterial
  1
Global
 72
     1
 94
      127
  0
MLINESTYLE
  5
18
102
{ACAD_REACTORS
330
17
102
}
330
17
100
AcDbMlineStyle
  2
Standard
 70
     0
  3

 62
   256
 51
90.0
 52
90.0
 71
     2
 49
0.5
 62
   256
  6
BYLAYER
 49
-0.5
 62
   256
  6
BYLAYER
  0
ACDBPLACEHOLDER
  5
F
102
{ACAD_REACTORS
330
E
102
}
330
E
  0
VISUALSTYLE
  5
2F
102
{ACAD_REACTORS
330
2A
102
}
330
2A
100
AcDbVisualStyle
  2
2dWireframe
 70
     4
177
     2
291
     0
 71
     0
176
     1
 72
     2
176
     1
 73
     0
176
     1
 90
        0
176
     1
 40
-0.6
176
     1
 41
-30.0
176
     1
 62
     5
 63
     7
421
 16777215
176
     1
 74
     1
176
     1
 91
        4
176
     1
 64
     7
176
     1
 65
   257
176
     1
 75
     1
176
     1
175
     1
176
     1
 42
1.0
176
     1
 92
        0
176
     1
 66
   257
176
     1
 43
1.0
176
     1
 76
     1
176
     1
 77
     6
176
     1
 78
     2
176
     1
 67
     7
176
     1
 79
     5
176
     1
170
     0
176
     1
171
     0
176
     1
290
     0
176
     1
 93
        1
176
     1
 44
0.0
176
     1
173
     0
176
     1
  0
VISUALSTYLE
  5
31
102
{ACAD_REACTORS
330
2A
102
}
330
2A
100
AcDbVisualStyle
  2
3D Hidden
 70
     6
177
     2
291
     0
 71
     1
176
     1
 72
     2
176
     1
 73
     2
176
     1
 90
        0
176
     1
 40
-0.6
176
     1
 41
-30.0
176
     1
 62
     5
 63
     7
421
 16777215
176
     1
 74
     2
176
     1
 91
        2
176
     1
 64
     7
176
     1
 65
   257
176
     1
 75
     2
176
     1
175
     1
176
     1
 42
40.0
176
     1
 92
        0
176
     1
 66
   257
176
     1
 43
1.0
176
     1
 76
     1
176
     1
 77
     6
176
     1
 78
     2
176
     1
 67
     7
176
     1
 79
     3
176
     1
170
     0
176
     1
171
     0
176
     1
290
     0
176
     1
 93
        1
176
     1
 44
0.0
176
     1
173
     0
176
     1
  0
VISUALSTYLE
  5
30
102
{ACAD_REACTORS
330
2A
102
}
330
2A
100
AcDbVisualStyle
  2
3dWireframe
 70
     5
177
     2
291
     0
 71
     0
176
     1
 72
     2
176
     1
 73
     0
176
     1
 90
        0
176
     1
 40
-0.6
176
     1
 41
-30.0
176
     1
 62
     5
 63
     7
421
 16777215
176
     1
 74
     1
176
     1
 91
        4
176
     1
 64
     7
176
     1
 65
   257
176
     1
 75
     1
176
     1
175
     1
176
     1
 42
1.0
176
     1
 92
        0
176
     1
 66
   257
176
     1
 43
1.0
176
     1
 76
     1
176
     1
 77
     6
176
     1
 78
     2
176
     1
 67
     7
176
     1
 79
     5
176
     1
170
     0
176
     1
171
     0
176
     1
290
     0
176
     1
 93
        1
176
     1
 44
0.0
176
     1
173
     0
176
     1
  0
VISUALSTYLE
  5
32
102
{ACAD_REACTORS
330
2A
102
}
330
2A
100
AcDbVisualStyle
  2
Basic
 70
     7
177
     2
291
     1
 71
     1
176
     1
 72
     0
176
     1
 73
     1
176
     1
 90
        0
176
     1
 40
-0.6
176
     1
 41
-30.0
176
     1
 62
     5
 63
     7
421
 16777215
176
     1
 74
     0
176
     1
 91
        4
176
     1
 64
     7
176
     1
 65
   257
176
     1
 75
     1
176
     1
175
     1
176
     1
 42
1.0
176
     1
 92
        8
176
     1
 66
     7
176
     1
 43
1.0
176
     1
 76
     1
176
     1
 77
     6
176
     1
 78
     2
176
     1
 67
     7
176
     1
 79
     5
176
     1
170
     0
176
     1
171
     0
176
     1
290
     0
176
     1
 93
        1
176
     1
 44
0.0
176
     1
173
     0
176
     1
  0
VISUALSTYLE
  5
36
102
{ACAD_REACTORS
330
2A
102
}
330
2A
100
AcDbVisualStyle
  2
Brighten
 70
    12
177
     2
291
     1
 71
     2
176
     1
 72
     2
176
     1
 73
     0
176
     1
 90
        0
176
     1
 40
-0.6
176
     1
 41
-30.0
176
     1
 62
     5
 63
     7
421
 16777215
176
     1
 74
     1
176
     1
 91
        4
176
     1
 64
     7
176
     1
 65
   257
176
     1
 75
     1
176
     1
175
     1
176
     1
 42
1.0
176
     1
 92
        8
176
     1
 66
     7
176
     1
 43
1.0
176
     1
 76
     1
176
     1
 77
     6
176
     1
 78
     2
176
     1
 67
     7
176
     1
 79
     5
176
     1
170
     0
176
     1
171
     0
176
     1
290
     0
176
     1
 93
        1
176
     1
 44
50.0
176
     1
173
     0
176
     1
  0
VISUALSTYLE
  5
3A
102
{ACAD_REACTORS
330
2A
102
}
330
2A
100
AcDbVisualStyle
  2
ColorChange
 70
    16
177
     2
291
     1
 71
     2
176
     1
 72
     2
176
     1
 73
     3
176
     1
 90
        0
176
     1
 40
-0.6
176
     1
 41
-30.0
176
     1
 62
     5
 63
     8
421
  8421504
176
     1
 74
     1
176
     1
 91
        4
176
     1
 64
     7
176
     1
 65
   257
176
     1
 75
     1
176
     1
175
     1
176
     1
 42
1.0
176
     1
 92
        8
176
     1
 66
     8
424
  8421504
176
     1
 43
1.0
176
     1
 76
     1
176
     1
 77
     6
176
     1
 78
     2
176
     1
 67
     7
176
     1
 79
     5
176
     1
170
     0
176
     1
171
     0
176
     1
290
     0
176
     1
 93
        1
176
     1
 44
0.0
176
     1
173
     0
176
     1
  0
VISUALSTYLE
  5
34
102
{ACAD_REACTORS
330
2A
102
}
330
2A
100
AcDbVisualStyle
  2
Conceptual
 70
     9
177
     2
291
     0
 71
     3
176
     1
 72
     2
176
     1
 73
     0
176
     1
 90
        0
176
     1
 40
-0.6
176
     1
 41
-30.0
176
     1
 62
     5
 63
     7
421
 16777215
176
     1
 74
     2
176
     1
 91
        2
176
     1
 64
     7
176
     1
 65
   257
176
     1
 75
     1
176
     1
175
     1
176
     1
 42
40.0
176
     1
 92
        8
176
     1
 66
     7
176
     1
 43
1.0
176
     1
 76
     1
176
     1
 77
     6
176
     1
 78
     2
176
     1
 67
     7
176
     1
 79
     3
176
     1
170
     0
176
     1
171
     0
176
     1
290
     0
176
     1
 93
        1
176
     1
 44
0.0
176
     1
173
     0
176
     1
  0
VISUALSTYLE
  5
35
102
{ACAD_REACTORS
330
2A
102
}
330
2A
100
AcDbVisualStyle
  2
Dim
 70
    11
177
     2
291
     1
 71
     2
176
     1
 72
     2
176
     1
 73
     0
176
     1
 90
        0
176
     1
 40
-0.6
176
     1
 41
-30.0
176
     1
 62
     5
 63
     7
421
 16777215
176
     1
 74
     1
176
     1
 91
        4
176
     1
 64
     7
176
     1
 65
   257
176
     1
 75
     1
176
     1
175
     1
176
     1
 42
1.0
176
     1
 92
        8
176
     1
 66
     7
176
     1
 43
1.0
176
     1
 76
     1
176
     1
 77
     6
176
     1
 78
     2
176
     1
 67
     7
176
     1
 79
     5
176
     1
170
     0
176
     1
171
     0
176
     1
290
     0
176
     1
 93
        1
176
     1
 44
-50.0
176
     1
173
     0
176
     1
  0
VISUALSTYLE
  5
39
102
{ACAD_REACTORS
330
2A
102
}
330
2A
100
AcDbVisualStyle
  2
Facepattern
 70
    15
177
     2
291
     1
 71
     2
176
     1
 72
     2
176
     1
 73
     0
176
     1
 90
        0
176
     1
 40
-0.6
176
     1
 41
-30.0
176
     1
 62
     5
 63
     7
421
 16777215
176
     1
 74
     1
176
     1
 91
        4
176
     1
 64
     7
176
     1
 65
   257
176
     1
 75
     1
176
     1
175
     1
176
     1
 42
1.0
176
     1
 92
        8
176
     1
 66
     7
176
     1
 43
1.0
176
     1
 76
     1
176
     1
 77
     6
176
     1
 78
     2
176
     1
 67
     7
176
     1
 79
     5
176
     1
170
     0
176
     1
171
     0
176
     1
290
     0
176
     1
 93
        1
176
     1
 44
0.0
176
     1
173
     0
176
     1
  0
VISUALSTYLE
  5
2B
102
{ACAD_REACTORS
330
2A
102
}
330
2A
100
AcDbVisualStyle
  2
Flat
 70
     0
177
     2
291
     1
 71
     2
176
     1
 72
     1
176
     1
 73
     1
176
     1
 90
        2
176
     1
 40
-0.6
176
     1
 41
30.0
176
     1
 62
     5
 63
     7
421
 16777215
176
     1
 74
     0
176
     1
 91
        4
176
     1
 64
     7
176
     1
 65
   257
176
     1
 75
     1
176
     1
175
     1
176
     1
 42
1.0
176
     1
 92
        8
176
     1
 66
     7
176
     1
 43
1.0
176
     1
 76
     1
176
     1
 77
     6
176
     1
 78
     2
176
     1
 67
     7
176
     1
 79
     5
176
     1
170
     0
176
     1
171
     0
176
     1
290
     0
176
     1
 93
       13
176
     1
 44
0.0
176
     1
173
     0
176
     1
  0
VISUALSTYLE
  5
2C
102
{ACAD_REACTORS
330
2A
102
}
330
2A
100
AcDbVisualStyle
  2
FlatWithEdges
 70
     1
177
     2
291
     1
 71
     2
176
     1
 72
     1
176
     1
 73
     1
176
     1
 90
        2
176
     1
 40
-0.6
176
     1
 41
30.0
176
     1
 62
     5
 63
     7
421
 16777215
176
     1
 74
     1
176
     1
 91
        4
176
     1
 64
     7
176
     1
 65
   257
176
     1
 75
     1
176
     1
175
     1
176
     1
 42
1.0
176
     1
 92
        0
176
     1
 66
   257
176
     1
 43
1.0
176
     1
 76
     1
176
     1
 77
     6
176
     1
 78
     2
176
     1
 67
     7
176
     1
 79
     5
176
     1
170
     0
176
     1
171
     0
176
     1
290
     0
176
     1
 93
       13
176
     1
 44
0.0
176
     1
173
     0
176
     1
  0
VISUALSTYLE
  5
2D
102
{ACAD_REACTORS
330
2A
102
}
330
2A
100
AcDbVisualStyle
  2
Gouraud
 70
     2
177
     2
291
     1
 71
     2
176
     1
 72
     2
176
     1
 73
     1
176
     1
 90
        2
176
     1
 40
-0.6
176
     1
 41
30.0
176
     1
 62
     5
 63
     7
421
 16777215
176
     1
 74
     0
176
     1
 91
        4
176
     1
 64
     7
176
     1
 65
   257
176
     1
 75
     1
176
     1
175
     1
176
     1
 42
1.0
176
     1
 92
        0
176
     1
 66
     7
176
     1
 43
1.0
176
     1
 76
     1
176
     1
 77
     6
176
     1
 78
     2
176
     1
 67
     7
176
     1
 79
     5
176
     1
170
     0
176
     1
171
     0
176
     1
290
     0
176
     1
 93
       13
176
     1
 44
0.0
176
     1
173
     0
176
     1
  0
VISUALSTYLE
  5
2E
102
{ACAD_REACTORS
330
2A
102
}
330
2A
100
AcDbVisualStyle
  2
GouraudWithEdges
 70
     3
177
     2
291
     1
 71
     2
176
     1
 72
     2
176
     1
 73
     1
176
     1
 90
        2
176
     1
 40
-0.6
176
     1
 41
30.0
176
     1
 62
     5
 63
     7
421
 16777215
176
     1
 74
     1
176
     1
 91
        4
176
     1
 64
     7
176
     1
 65
   257
176
     1
 75
     1
176
     1
175
     1
176
     1
 42
1.0
176
     1
 92
        0
176
     1
 66
   257
176
     1
 43
1.0
176
     1
 76
     1
176
     1
 77
     6
176
     1
 78
     2
176
     1
 67
     7
176
     1
 79
     5
176
     1
170
     0
176
     1
171
     0
176
     1
290
     0
176
     1
 93
       13
176
     1
 44
0.0
176
     1
173
     0
176
     1
  0
VISUALSTYLE
  5
38
102
{ACAD_REACTORS
330
2A
102
}
330
2A
100
AcDbVisualStyle
  2
Linepattern
 70
    14
177
     2
291
     1
 71
     2
176
     1
 72
     2
176
     1
 73
     0
176
     1
 90
        0
176
     1
 40
-0.6
176
     1
 41
-30.0
176
     1
 62
     5
 63
     7
421
 16777215
176
     1
 74
     1
176
     1
 91
        4
176
     1
 64
     7
176
     1
 65
   257
176
     1
 75
     7
176
     1
175
     7
176
     1
 42
1.0
176
     1
 92
        8
176
     1
 66
     7
176
     1
 43
1.0
176
     1
 76
     1
176
     1
 77
     6
176
     1
 78
     2
176
     1
 67
     7
176
     1
 79
     5
176
     1
170
     0
176
     1
171
     0
176
     1
290
     0
176
     1
 93
        1
176
     1
 44
0.0
176
     1
173
     0
176
     1
  0
VISUALSTYLE
  5
33
102
{ACAD_REACTORS
330
2A
102
}
330
2A
100
AcDbVisualStyle
  2
Realistic
 70
     8
177
     2
291
     0
 71
     2
176
     1
 72
     2
176
     1
 73
     0
176
     1
 90
        0
176
     1
 40
-0.6
176
     1
 41
-30.0
176
     1
 62
     5
 63
     7
421
 16777215
176
     1
 74
     1
176
     1
 91
        0
176
     1
 64
     7
176
     1
 65
   257
176
     1
 75
     1
176
     1
175
     1
176
     1
 42
1.0
176
     1
 92
        8
176
     1
 66
     8
424
  7895160
176
     1
 43
1.0
176
     1
 76
     1
176
     1
 77
     6
176
     1
 78
     2
176
     1
 67
     7
176
     1
 79
     5
176
     1
170
     0
176
     1
171
     0
176
     1
290
     0
176
     1
 93
       13
176
     1
 44
0.0
176
     1
173
     0
176
     1
  0
VISUALSTYLE
  5
37
102
{ACAD_REACTORS
330
2A
102
}
330
2A
100
AcDbVisualStyle
  2
Thicken
 70
    13
177
     2
291
     1
 71
     2
176
     1
 72
     2
176
     1
 73
     0
176
     1
 90
        0
176
     1
 40
-0.6
176
     1
 41
-30.0
176
     1
 62
     5
 63
     7
421
 16777215
176
     1
 74
     1
176
     1
 91
        4
176
     1
 64
     7
176
     1
 65
   257
176
     1
 75
     1
176
     1
175
     1
176
     1
 42
1.0
176
     1
 92
       12
176
     1
 66
     7
176
     1
 43
1.0
176
     1
 76
     1
176
     1
 77
     6
176
     1
 78
     2
176
     1
 67
     7
176
     1
 79
     5
176
     1
170
     0
176
     1
171
     0
176
     1
290
     0
176
     1
 93
        1
176
     1
 44
0.0
176
     1
173
     0
176
     1
  0
ENDSEC
  0
EOF
