  0
SECTION
  2
HEADER
  9
$ACADVER
  1
AC1024
  9
$ACADMAINTVER
 70
     6
  9
$DWGCODEPAGE
  3
ANSI_1251
  9
$INSBASE
 10
0.0
 20
0.0
 30
0.0
  9
$EXTMIN
 10
1.000000000000000E+20
 20
1.000000000000000E+20
 30
1.000000000000000E+20
  9
$EXTMAX
 10
-1.000000000000000E+20
 20
-1.000000000000000E+20
 30
-1.000000000000000E+20
  9
$LIMMIN
 10
0.0
 20
0.0
  9
$LIMMAX
 10
12.0
 20
9.0
  9
$ORTHOMODE
 70
     0
  9
$REGENMODE
 70
     1
  9
$FILLMODE
 70
     1
  9
$QTEXTMODE
 70
     0
  9
$MIRRTEXT
 70
     1
  9
$LTSCALE
 40
1.0
  9
$ATTMODE
 70
     1
  9
$TEXTSIZE
 40
0.2
  9
$TRACEWID
 40
0.05
  9
$TEXTSTYLE
  7
Standard
  9
$CLAYER
  8
0
  9
$CELTYPE
  6
ByLayer
  9
$CECOLOR
 62
   256
  9
$CELTSCALE
 40
1.0
  9
$DISPSILH
 70
     0
  9
$DIMSCALE
 40
1.0
  9
$DIMASZ
 40
0.18
  9
$DIMEXO
 40
0.0625
  9
$DIMDLI
 40
0.38
  9
$DIMRND
 40
0.0
  9
$DIMDLE
 40
0.0
  9
$DIMEXE
 40
0.18
  9
$DIMTP
 40
0.0
  9
$DIMTM
 40
0.0
  9
$DIMTXT
 40
0.18
  9
$DIMCEN
 40
0.09
  9
$DIMTSZ
 40
0.0
  9
$DIMTOL
 70
     0
  9
$DIMLIM
 70
     0
  9
$DIMTIH
 70
     1
  9
$DIMTOH
 70
     1
  9
$DIMSE1
 70
     0
  9
$DIMSE2
 70
     0
  9
$DIMTAD
 70
     0
  9
$DIMZIN
 70
     0
  9
$DIMBLK
  1

  9
$DIMASO
 70
     1
  9
$DIMSHO
 70
     1
  9
$DIMPOST
  1

  9
$DIMAPOST
  1

  9
$DIMALT
 70
     0
  9
$DIMALTD
 70
     2
  9
$DIMALTF
 40
25.4
  9
$DIMLFAC
 40
1.0
  9
$DIMTOFL
 70
     0
  9
$DIMTVP
 40
0.0
  9
$DIMTIX
 70
     0
  9
$DIMSOXD
 70
     0
  9
$DIMSAH
 70
     0
  9
$DIMBLK1
  1

  9
$DIMBLK2
  1

  9
$DIMSTYLE
  2
Standard
  9
$DIMCLRD
 70
     0
  9
$DIMCLRE
 70
     0
  9
$DIMCLRT
 70
     0
  9
$DIMTFAC
 40
1.0
  9
$DIMGAP
 40
0.09
  9
$DIMJUST
 70
     0
  9
$DIMSD1
 70
     0
  9
$DIMSD2
 70
     0
  9
$DIMTOLJ
 70
     1
  9
$DIMTZIN
 70
     0
  9
$DIMALTZ
 70
     0
  9
$DIMALTTZ
 70
     0
  9
$DIMUPT
 70
     0
  9
$DIMDEC
 70
     4
  9
$DIMTDEC
 70
     4
  9
$DIMALTU
 70
     2
  9
$DIMALTTD
 70
     2
  9
$DIMTXSTY
  7
Standard
  9
$DIMAUNIT
 70
     0
  9
$DIMADEC
 70
     0
  9
$DIMALTRND
 40
0.0
  9
$DIMAZIN
 70
     0
  9
$DIMDSEP
 70
    46
  9
$DIMATFIT
 70
     3
  9
$DIMFRAC
 70
     0
  9
$DIMLDRBLK
  1

  9
$DIMLUNIT
 70
     2
  9
$DIMLWD
 70
    -2
  9
$DIMLWE
 70
    -2
  9
$DIMTMOVE
 70
     0
  9
$DIMFXL
 40
1.0
  9
$DIMFXLON
 70
     0
  9
$DIMJOGANG
 40
0.7853981633974483
  9
$DIMTFILL
 70
     0
  9
$DIMTFILLCLR
 70
     0
  9
$DIMARCSYM
 70
     0
  9
$DIMLTYPE
  6

  9
$DIMLTEX1
  6

  9
$DIMLTEX2
  6

  9
$DIMTXTDIRECTION
 70
     0
  9
$LUNITS
 70
     2
  9
$LUPREC
 70
     4
  9
$SKETCHINC
 40
0.1
  9
$FILLETRAD
 40
0.5
  9
$AUNITS
 70
     0
  9
$AUPREC
 70
     0
  9
$MENU
  1
.
  9
$ELEVATION
 40
0.0
  9
$PELEVATION
 40
0.0
  9
$THICKNESS
 40
0.0
  9
$LIMCHECK
 70
     0
  9
$CHAMFERA
 40
0.5
  9
$CHAMFERB
 40
0.5
  9
$CHAMFERC
 40
1.0
  9
$CHAMFERD
 40
0.0
  9
$SKPOLY
 70
     0
  9
$TDCREATE
 40
2459337.659900706
  9
$TDUCREATE
 40
2459337.534900706
  9
$TDUPDATE
 40
2459337.659900891
  9
$TDUUPDATE
 40
2459337.534900891
  9
$TDINDWG
 40
0.0000000116
  9
$TDUSRTIMER
 40
0.0000000116
  9
$USRTIMER
 70
     1
  9
$ANGBASE
 50
0.0
  9
$ANGDIR
 70
     0
  9
$PDMODE
 70
     0
  9
$PDSIZE
 40
0.0
  9
$PLINEWID
 40
0.0
  9
$SPLFRAME
 70
     0
  9
$SPLINETYPE
 70
     6
  9
$SPLINESEGS
 70
     8
  9
$HANDSEED
  5
8E
  9
$SURFTAB1
 70
     6
  9
$SURFTAB2
 70
     6
  9
$SURFTYPE
 70
     6
  9
$SURFU
 70
     6
  9
$SURFV
 70
     6
  9
$UCSBASE
  2

  9
$UCSNAME
  2

  9
$UCSORG
 10
0.0
 20
0.0
 30
0.0
  9
$UCSXDIR
 10
1.0
 20
0.0
 30
0.0
  9
$UCSYDIR
 10
0.0
 20
1.0
 30
0.0
  9
$UCSORTHOREF
  2

  9
$UCSORTHOVIEW
 70
     0
  9
$UCSORGTOP
 10
0.0
 20
0.0
 30
0.0
  9
$UCSORGBOTTOM
 10
0.0
 20
0.0
 30
0.0
  9
$UCSORGLEFT
 10
0.0
 20
0.0
 30
0.0
  9
$UCSORGRIGHT
 10
0.0
 20
0.0
 30
0.0
  9
$UCSORGFRONT
 10
0.0
 20
0.0
 30
0.0
  9
$UCSORGBACK
 10
0.0
 20
0.0
 30
0.0
  9
$PUCSBASE
  2

  9
$PUCSNAME
  2

  9
$PUCSORG
 10
0.0
 20
0.0
 30
0.0
  9
$PUCSXDIR
 10
1.0
 20
0.0
 30
0.0
  9
$PUCSYDIR
 10
0.0
 20
1.0
 30
0.0
  9
$PUCSORTHOREF
  2

  9
$PUCSORTHOVIEW
 70
     0
  9
$PUCSORGTOP
 10
0.0
 20
0.0
 30
0.0
  9
$PUCSORGBOTTOM
 10
0.0
 20
0.0
 30
0.0
  9
$PUCSORGLEFT
 10
0.0
 20
0.0
 30
0.0
  9
$PUCSORGRIGHT
 10
0.0
 20
0.0
 30
0.0
  9
$PUCSORGFRONT
 10
0.0
 20
0.0
 30
0.0
  9
$PUCSORGBACK
 10
0.0
 20
0.0
 30
0.0
  9
$USERI1
 70
     0
  9
$USERI2
 70
     0
  9
$USERI3
 70
     0
  9
$USERI4
 70
     0
  9
$USERI5
 70
     0
  9
$USERR1
 40
0.0
  9
$USERR2
 40
0.0
  9
$USERR3
 40
0.0
  9
$USERR4
 40
0.0
  9
$USERR5
 40
0.0
  9
$WORLDVIEW
 70
     1
  9
$SHADEDGE
 70
     3
  9
$SHADEDIF
 70
    70
  9
$TILEMODE
 70
     1
  9
$MAXACTVP
 70
    64
  9
$PINSBASE
 10
0.0
 20
0.0
 30
0.0
  9
$PLIMCHECK
 70
     0
  9
$PEXTMIN
 10
1.000000000000000E+20
 20
1.000000000000000E+20
 30
1.000000000000000E+20
  9
$PEXTMAX
 10
-1.000000000000000E+20
 20
-1.000000000000000E+20
 30
-1.000000000000000E+20
  9
$PLIMMIN
 10
0.0
 20
0.0
  9
$PLIMMAX
 10
12.0
 20
9.0
  9
$UNITMODE
 70
     0
  9
$VISRETAIN
 70
     1
  9
$PLINEGEN
 70
     0
  9
$PSLTSCALE
 70
     1
  9
$TREEDEPTH
 70
  3020
  9
$CMLSTYLE
  2
Standard
  9
$CMLJUST
 70
     0
  9
$CMLSCALE
 40
1.0
  9
$PROXYGRAPHICS
 70
     1
  9
$MEASUREMENT
 70
     0
  9
$CELWEIGHT
370
    -1
  9
$ENDCAPS
280
     0
  9
$JOINSTYLE
280
     0
  9
$LWDISPLAY
290
     1
  9
$INSUNITS
 70
     1
  9
$HYPERLINKBASE
  1

  9
$STYLESHEET
  1

  9
$XEDIT
290
     1
  9
$CEPSNTYPE
380
     0
  9
$PSTYLEMODE
290
     1
  9
$FINGERPRINTGUID
  2
{66EE5BC4-B628-4C64-92A2-F0F6A963091A}
  9
$VERSIONGUID
  2
{FAEB1C32-E019-11D5-929B-00C0DF256EC4}
  9
$EXTNAMES
290
     1
  9
$PSVPSCALE
 40
0.0
  9
$OLESTARTUP
290
     0
  9
$SORTENTS
280
   127
  9
$INDEXCTL
280
     0
  9
$HIDETEXT
280
     1
  9
$XCLIPFRAME
280
     2
  9
$HALOGAP
280
     0
  9
$OBSCOLOR
 70
   257
  9
$OBSLTYPE
280
     0
  9
$INTERSECTIONDISPLAY
280
     0
  9
$INTERSECTIONCOLOR
 70
   257
  9
$DIMASSOC
280
     2
  9
$PROJECTNAME
  1

  9
$CAMERADISPLAY
290
     0
  9
$LENSLENGTH
 40
50.0
  9
$CAMERAHEIGHT
 40
0.0
  9
$STEPSPERSEC
 40
2.0
  9
$STEPSIZE
 40
6.0
  9
$3DDWFPREC
 40
2.0
  9
$PSOLWIDTH
 40
0.25
  9
$PSOLHEIGHT
 40
4.0
  9
$LOFTANG1
 40
1.570796326794897
  9
$LOFTANG2
 40
1.570796326794897
  9
$LOFTMAG1
 40
0.0
  9
$LOFTMAG2
 40
0.0
  9
$LOFTPARAM
 70
     7
  9
$LOFTNORMALS
280
     1
  9
$LATITUDE
 40
37.795
  9
$LONGITUDE
 40
-122.394
  9
$NORTHDIRECTION
 40
0.0
  9
$TIMEZONE
 70
 -8000
  9
$LIGHTGLYPHDISPLAY
280
     1
  9
$TILEMODELIGHTSYNCH
280
     1
  9
$CMATERIAL
347
3C
  9
$SOLIDHIST
280
     1
  9
$SHOWHIST
280
     1
  9
$DWFFRAME
280
     2
  9
$DGNFRAME
280
     2
  9
$REALWORLDSCALE
290
     1
  9
$INTERFERECOLOR
 62
   256
  9
$CSHADOW
280
     0
  9
$SHADOWPLANELOCATION
 40
0.0
  0
ENDSEC
  0
SECTION
  2
CLASSES
  0
CLASS
  1
ACDBDICTIONARYWDFLT
  2
AcDbDictionaryWithDefault
  3
ObjectDBX Classes
 90
        0
 91
        4
280
     0
281
     0
  0
CLASS
  1
VISUALSTYLE
  2
AcDbVisualStyle
  3
ObjectDBX Classes
 90
     4095
 91
        4
280
     0
281
     0
  0
CLASS
  1
MATERIAL
  2
AcDbMaterial
  3
ObjectDBX Classes
 90
     1153
 91
        4
280
     0
281
     0
  0
CLASS
  1
SUN
  2
AcDbSun
  3
SCENEOE
 90
     1024
 91
        4
280
     0
281
     0
  0
ENDSEC
  0
SECTION
  2
TABLES
  0
TABLE
  2
VPORT
  5
8
330
0
100
AcDbSymbolTable
 70
     1
  0
VPORT
  5
29
330
8
100
AcDbSymbolTableRecord
100
AcDbViewportTableRecord
  2
*Active
 70
     0
 10
0.0
 20
0.0
 11
1.0
 21
1.0
 12
0.0
 22
0.0
 13
0.0
 23
0.0
 14
0.5
 24
0.5
 15
0.5
 25
0.5
 16
0.0
 26
0.0
 36
1.0
 17
5.998764280043613
 27
-18.36321249999999
 37
0.0
 40
12.0
 41
0.9999968497379541
 42
50.0
 43
0.0
 44
0.0
 50
0.0
 51
0.0
 71
     0
 72
   100
 73
     1
 74
     3
 75
     0
 76
     0
 77
     0
 78
     0
281
     0
 65
     1
110
0.0
120
0.0
130
0.0
111
1.0
121
0.0
131
0.0
112
0.0
122
1.0
132
0.0
 79
     0
146
0.0
 60
     3
 61
     5
292
     1
282
     1
141
0.0
142
0.0
 63
   250
361
3F
  0
ENDTAB
  0
TABLE
  2
LTYPE
  5
5
330
0
100
AcDbSymbolTable
 70
     1
  0
LTYPE
  5
14
330
5
100
AcDbSymbolTableRecord
100
AcDbLinetypeTableRecord
  2
ByBlock
 70
     0
  3

 72
    65
 73
     0
 40
0.0
  0
LTYPE
  5
15
330
5
100
AcDbSymbolTableRecord
100
AcDbLinetypeTableRecord
  2
ByLayer
 70
     0
  3

 72
    65
 73
     0
 40
0.0
  0
LTYPE
  5
16
330
5
100
AcDbSymbolTableRecord
100
AcDbLinetypeTableRecord
  2
Continuous
 70
     0
  3
Solid line
 72
    65
 73
     0
 40
0.0
  0
ENDTAB
  0
TABLE
  2
LAYER
  5
2
330
0
100
AcDbSymbolTable
 70
     2
  0
LAYER
  5
10
330
2
100
AcDbSymbolTableRecord
100
AcDbLayerTableRecord
  2
0
 70
     0
 62
     7
  6
Continuous
370
    -3
390
F
347
3E
  0
LAYER
  5
40
330
2
100
AcDbSymbolTableRecord
100
AcDbLayerTableRecord
  2
Layer 1
 70
     0
 62
     7
  6
Continuous
370
    -3
390
F
347
3E
  0
ENDTAB
  0
TABLE
  2
STYLE
  5
3
330
0
100
AcDbSymbolTable
 70
     1
  0
STYLE
  5
11
330
3
100
AcDbSymbolTableRecord
100
AcDbTextStyleTableRecord
  2
Standard
 70
     0
 40
0.0
 41
1.0
 50
0.0
 71
     0
 42
0.2
  3
txt
  4

  0
ENDTAB
  0
TABLE
  2
VIEW
  5
6
330
0
100
AcDbSymbolTable
 70
     0
  0
ENDTAB
  0
TABLE
  2
UCS
  5
7
330
0
100
AcDbSymbolTable
 70
     0
  0
ENDTAB
  0
TABLE
  2
APPID
  5
9
330
0
100
AcDbSymbolTable
 70
     1
  0
APPID
  5
12
330
9
100
AcDbSymbolTableRecord
100
AcDbRegAppTableRecord
  2
ACAD
 70
     0
  0
ENDTAB
  0
TABLE
  2
DIMSTYLE
  5
A
330
0
100
AcDbSymbolTable
 70
     1
100
AcDbDimStyleTable
  0
DIMSTYLE
105
27
330
A
100
AcDbSymbolTableRecord
100
AcDbDimStyleTableRecord
  2
Standard
 70
     0
178
     0
340
11
  0
ENDTAB
  0
TABLE
  2
BLOCK_RECORD
  5
1
330
0
100
AcDbSymbolTable
 70
     1
  0
BLOCK_RECORD
  5
1F
330
1
100
AcDbSymbolTableRecord
100
AcDbBlockTableRecord
  2
*Model_Space
340
22
 70
     0
280
     1
281
     0
  0
BLOCK_RECORD
  5
1B
330
1
100
AcDbSymbolTableRecord
100
AcDbBlockTableRecord
  2
*Paper_Space
340
1E
 70
     0
280
     1
281
     0
  0
BLOCK_RECORD
  5
23
330
1
100
AcDbSymbolTableRecord
100
AcDbBlockTableRecord
  2
*Paper_Space0
340
26
 70
     0
280
     1
281
     0
  0
ENDTAB
  0
ENDSEC
  0
SECTION
  2
BLOCKS
  0
BLOCK
  5
20
330
1F
100
AcDbEntity
  8
0
100
AcDbBlockBegin
  2
*Model_Space
 70
     0
 10
0.0
 20
0.0
 30
0.0
  3
*Model_Space
  1

  0
ENDBLK
  5
21
330
1F
100
AcDbEntity
  8
0
100
AcDbBlockEnd
  0
BLOCK
  5
1C
330
1B
100
AcDbEntity
 67
     1
  8
0
100
AcDbBlockBegin
  2
*Paper_Space
 70
     0
 10
0.0
 20
0.0
 30
0.0
  3
*Paper_Space
  1

  0
ENDBLK
  5
1D
330
1B
100
AcDbEntity
 67
     1
  8
0
100
AcDbBlockEnd
  0
BLOCK
  5
24
330
23
100
AcDbEntity
  8
0
100
AcDbBlockBegin
  2
*Paper_Space0
 70
     0
 10
0.0
 20
0.0
 30
0.0
  3
*Paper_Space0
  1

  0
ENDBLK
  5
25
330
23
100
AcDbEntity
  8
0
100
AcDbBlockEnd
  0
ENDSEC
  0
SECTION
  2
ENTITIES
  0
SPLINE
  5
41
330
1F
100
AcDbEntity
  8
Layer 1
370
     0
100
AcDbSpline
210
0.0
220
0.0
230
1.0
 70
    11
 71
     3
 72
    23
 73
    19
 74
     0
 42
0.0000000001
 43
0.0000000001
 12
1.0
 22
0.0
 32
0.0
 13
1.0
 23
0.0
 33
0.0
 40
0.0
 40
0.0
 40
0.0
 40
0.0
 40
1.0
 40
1.0
 40
1.0
 40
2.0
 40
2.0
 40
2.0
 40
3.0
 40
3.0
 40
3.0
 40
4.0
 40
4.0
 40
4.0
 40
5.0
 40
5.0
 40
5.0
 40
6.0
 40
6.0
 40
6.0
 40
6.0
 10
5.998751237347682
 20
-15.41497222222222
 30
0.0
 10
6.063685957929516
 20
-15.41497222222222
 30
0.0
 10
6.116522067705874
 20
-15.36209861111111
 30
0.0
 10
6.116522067705874
 20
-15.29714027777777
 30
0.0
 10
6.116522067705874
 20
-15.29714027777777
 30
0.0
 10
6.116522067705874
 20
-12.48099583333333
 30
0.0
 10
6.116522067705874
 20
-12.48099583333333
 30
0.0
 10
6.116522067705874
 20
-12.41602361111111
 30
0.0
 10
6.063685957929516
 20
-12.36321249999999
 30
0.0
 10
5.998751237347682
 20
-12.36321249999999
 30
0.0
 10
5.93380555555556
 20
-12.36321249999999
 30
0.0
 10
5.88096929587866
 20
-12.41602361111111
 30
0.0
 10
5.88096929587866
 20
-12.48099583333333
 30
0.0
 10
5.88096929587866
 20
-12.48099583333333
 30
0.0
 10
5.88096929587866
 20
-15.29714027777777
 30
0.0
 10
5.88096929587866
 20
-15.29714027777777
 30
0.0
 10
5.88096929587866
 20
-15.36209861111111
 30
0.0
 10
5.93380555555556
 20
-15.41497222222222
 30
0.0
 10
5.998751237347682
 20
-15.41497222222222
 30
0.0
  0
HATCH
  5
42
330
1F
100
AcDbEntity
  8
Layer 1
 62
     7
420
 16777215
100
AcDbHatch
 10
0.0
 20
0.0
 30
0.0
210
0.0
220
0.0
230
1.0
  2
SOLID
 70
     1
 71
     0
 91
        1
 92
        1
 93
        1
 72
     4
 94
        3
 73
     0
 74
     1
 95
       23
 96
       19
 40
0.0
 40
0.0
 40
0.0
 40
0.0
 40
1.0
 40
1.0
 40
1.0
 40
2.0
 40
2.0
 40
2.0
 40
3.0
 40
3.0
 40
3.0
 40
4.0
 40
4.0
 40
4.0
 40
5.0
 40
5.0
 40
5.0
 40
6.0
 40
6.0
 40
6.0
 40
6.0
 10
5.998751237347682
 20
-15.41497222222222
 10
6.063685957929516
 20
-15.41497222222222
 10
6.116522067705874
 20
-15.36209861111111
 10
6.116522067705874
 20
-15.29714027777777
 10
6.116522067705874
 20
-15.29714027777777
 10
6.116522067705874
 20
-12.48099583333333
 10
6.116522067705874
 20
-12.48099583333333
 10
6.116522067705874
 20
-12.41602361111111
 10
6.063685957929516
 20
-12.36321249999999
 10
5.998751237347682
 20
-12.36321249999999
 10
5.93380555555556
 20
-12.36321249999999
 10
5.88096929587866
 20
-12.41602361111111
 10
5.88096929587866
 20
-12.48099583333333
 10
5.88096929587866
 20
-12.48099583333333
 10
5.88096929587866
 20
-15.29714027777777
 10
5.88096929587866
 20
-15.29714027777777
 10
5.88096929587866
 20
-15.36209861111111
 10
5.93380555555556
 20
-15.41497222222222
 10
5.998751237347682
 20
-15.41497222222222
 97
        0
 97
        0
 75
     2
 76
     1
 98
        0
  0
SPLINE
  5
43
330
1F
100
AcDbEntity
  8
Layer 1
370
     0
100
AcDbSpline
210
0.0
220
0.0
230
1.0
 70
    11
 71
     3
 72
    35
 73
    31
 74
     0
 42
0.0000000001
 43
0.0000000001
 12
1.0
 22
0.0
 32
0.0
 13
1.0
 23
0.0
 33
0.0
 40
0.0
 40
0.0
 40
0.0
 40
0.0
 40
1.0
 40
1.0
 40
1.0
 40
2.0
 40
2.0
 40
2.0
 40
3.0
 40
3.0
 40
3.0
 40
4.0
 40
4.0
 40
4.0
 40
5.0
 40
5.0
 40
5.0
 40
6.0
 40
6.0
 40
6.0
 40
7.0
 40
7.0
 40
7.0
 40
8.0
 40
8.0
 40
8.0
 40
9.0
 40
9.0
 40
9.0
 40
10.0
 40
10.0
 40
10.0
 40
10.0
 10
4.363729056429595
 20
-15.76679722222222
 30
0.0
 10
4.385527777777775
 20
-15.80455138888889
 30
0.0
 10
4.425192943765776
 20
-15.8256875
 30
0.0
 10
4.465955442736028
 20
-15.8256875
 30
0.0
 10
4.485906831120903
 20
-15.8256875
 30
0.0
 10
4.50614433060966
 20
-15.82064444444445
 30
0.0
 10
4.524634607920334
 20
-15.80993194444444
 30
0.0
 10
4.580841550944872
 20
-15.77745833333333
 30
0.0
 10
4.600180555555552
 20
-15.70524583333334
 30
0.0
 10
4.567745717942367
 20
-15.64902638888889
 30
0.0
 10
4.567745717942367
 20
-15.64902638888889
 30
0.0
 10
3.159686031290726
 20
-13.21018888888889
 30
0.0
 10
3.159686031290726
 20
-13.21018888888889
 30
0.0
 10
3.143929087244335
 20
-13.18292222222222
 30
0.0
 10
3.118534643441409
 20
-13.16345833333334
 30
0.0
 10
3.088147144209061
 20
-13.15529305555555
 30
0.0
 10
3.057770756087545
 20
-13.14719027777778
 30
0.0
 10
3.026009645778787
 20
-13.15129722222222
 30
0.0
 10
2.998767979800303
 20
-13.16710277777777
 30
0.0
 10
2.99873047980125
 20
-13.16710277777777
 30
0.0
 10
2.99873047980125
 20
-13.16710277777777
 30
0.0
 10
2.99873047980125
 20
-13.16710277777777
 30
0.0
 10
2.971524924932964
 20
-13.18279722222222
 30
0.0
 10
2.952036036536406
 20
-13.20821666666667
 30
0.0
 10
2.943895758964269
 20
-13.23856666666667
 30
0.0
 10
2.935731870281618
 20
-13.26896805555556
 30
0.0
 10
2.939938814619786
 20
-13.30075416666667
 30
0.0
 10
2.95565686977827
 20
-13.32797083333334
 30
0.0
 10
2.95565686977827
 20
-13.32797083333334
 30
0.0
 10
4.363729056429595
 20
-15.76679722222222
 30
0.0
 10
4.363729056429595
 20
-15.76679722222222
 30
0.0
  0
HATCH
  5
44
330
1F
100
AcDbEntity
  8
Layer 1
 62
     7
420
 16777215
100
AcDbHatch
 10
0.0
 20
0.0
 30
0.0
210
0.0
220
0.0
230
1.0
  2
SOLID
 70
     1
 71
     0
 91
        1
 92
        1
 93
        1
 72
     4
 94
        3
 73
     0
 74
     1
 95
       35
 96
       31
 40
0.0
 40
0.0
 40
0.0
 40
0.0
 40
1.0
 40
1.0
 40
1.0
 40
2.0
 40
2.0
 40
2.0
 40
3.0
 40
3.0
 40
3.0
 40
4.0
 40
4.0
 40
4.0
 40
5.0
 40
5.0
 40
5.0
 40
6.0
 40
6.0
 40
6.0
 40
7.0
 40
7.0
 40
7.0
 40
8.0
 40
8.0
 40
8.0
 40
9.0
 40
9.0
 40
9.0
 40
10.0
 40
10.0
 40
10.0
 40
10.0
 10
4.363729056429595
 20
-15.76679722222222
 10
4.385527777777775
 20
-15.80455138888889
 10
4.425192943765776
 20
-15.8256875
 10
4.465955442736028
 20
-15.8256875
 10
4.485906831120903
 20
-15.8256875
 10
4.50614433060966
 20
-15.82064444444445
 10
4.524634607920334
 20
-15.80993194444444
 10
4.580841550944872
 20
-15.77745833333333
 10
4.600180555555552
 20
-15.70524583333334
 10
4.567745717942367
 20
-15.64902638888889
 10
4.567745717942367
 20
-15.64902638888889
 10
3.159686031290726
 20
-13.21018888888889
 10
3.159686031290726
 20
-13.21018888888889
 10
3.143929087244335
 20
-13.18292222222222
 10
3.118534643441409
 20
-13.16345833333334
 10
3.088147144209061
 20
-13.15529305555555
 10
3.057770756087545
 20
-13.14719027777778
 10
3.026009645778787
 20
-13.15129722222222
 10
2.998767979800303
 20
-13.16710277777777
 10
2.99873047980125
 20
-13.16710277777777
 10
2.99873047980125
 20
-13.16710277777777
 10
2.99873047980125
 20
-13.16710277777777
 10
2.971524924932964
 20
-13.18279722222222
 10
2.952036036536406
 20
-13.20821666666667
 10
2.943895758964269
 20
-13.23856666666667
 10
2.935731870281618
 20
-13.26896805555556
 10
2.939938814619786
 20
-13.30075416666667
 10
2.95565686977827
 20
-13.32797083333334
 10
2.95565686977827
 20
-13.32797083333334
 10
4.363729056429595
 20
-15.76679722222222
 10
4.363729056429595
 20
-15.76679722222222
 97
        0
 97
        0
 75
     2
 76
     1
 98
        0
  0
SPLINE
  5
45
330
1F
100
AcDbEntity
  8
Layer 1
370
     0
100
AcDbSpline
210
0.0
220
0.0
230
1.0
 70
    11
 71
     3
 72
    32
 73
    28
 74
     0
 42
0.0000000001
 43
0.0000000001
 12
1.0
 22
0.0
 32
0.0
 13
1.0
 23
0.0
 33
0.0
 40
0.0
 40
0.0
 40
0.0
 40
0.0
 40
1.0
 40
1.0
 40
1.0
 40
2.0
 40
2.0
 40
2.0
 40
3.0
 40
3.0
 40
3.0
 40
4.0
 40
4.0
 40
4.0
 40
5.0
 40
5.0
 40
5.0
 40
6.0
 40
6.0
 40
6.0
 40
7.0
 40
7.0
 40
7.0
 40
8.0
 40
8.0
 40
8.0
 40
9.0
 40
9.0
 40
9.0
 40
9.0
 10
0.845720833333328
 20
-15.52411527777778
 30
0.0
 10
0.845720833333328
 20
-15.52411527777778
 30
0.0
 10
3.284584639246633
 20
-16.9321875
 30
0.0
 10
3.284584639246633
 20
-16.9321875
 30
0.0
 10
3.302737416565833
 20
-16.94267499999999
 30
0.0
 10
3.322887416056801
 20
-16.94805555555556
 30
0.0
 10
3.343263888888891
 20
-16.94805555555556
 30
0.0
 10
3.353513888888894
 20
-16.94805555555556
 30
0.0
 10
3.363826303911487
 20
-16.94666944444445
 30
0.0
 10
3.373963803655392
 20
-16.9439486111111
 30
0.0
 10
3.404365191776277
 20
-16.93583333333333
 30
0.0
 10
3.429783246689718
 20
-16.91631944444445
 30
0.0
 10
3.445502690737056
 20
-16.88905138888889
 30
0.0
 10
3.46122074589554
 20
-16.86177222222222
 30
0.0
 10
3.465390190234656
 20
-16.83004861111111
 30
0.0
 10
3.457249999999994
 20
-16.79964722222222
 30
0.0
 10
3.44912352397892
 20
-16.76924722222222
 30
0.0
 10
3.429609635582993
 20
-16.74387777777777
 30
0.0
 10
3.402366580715655
 20
-16.72819722222222
 30
0.0
 10
3.402366580715655
 20
-16.72819722222222
 30
0.0
 10
0.9635291666666665
 20
-15.320125
 30
0.0
 10
0.9635291666666665
 20
-15.320125
 30
0.0
 10
0.9072472222222182
 20
-15.28763888888889
 30
0.0
 10
0.8350972222222278
 20
-15.30697777777777
 30
0.0
 10
0.802611111111105
 20
-15.36319722222222
 30
0.0
 10
0.7701624999999946
 20
-15.41942916666667
 30
0.0
 10
0.7894638888888923
 20
-15.49162916666667
 30
0.0
 10
0.845720833333328
 20
-15.52411527777778
 30
0.0
  0
HATCH
  5
46
330
1F
100
AcDbEntity
  8
Layer 1
 62
     7
420
 16777215
100
AcDbHatch
 10
0.0
 20
0.0
 30
0.0
210
0.0
220
0.0
230
1.0
  2
SOLID
 70
     1
 71
     0
 91
        1
 92
        1
 93
        1
 72
     4
 94
        3
 73
     0
 74
     1
 95
       32
 96
       28
 40
0.0
 40
0.0
 40
0.0
 40
0.0
 40
1.0
 40
1.0
 40
1.0
 40
2.0
 40
2.0
 40
2.0
 40
3.0
 40
3.0
 40
3.0
 40
4.0
 40
4.0
 40
4.0
 40
5.0
 40
5.0
 40
5.0
 40
6.0
 40
6.0
 40
6.0
 40
7.0
 40
7.0
 40
7.0
 40
8.0
 40
8.0
 40
8.0
 40
9.0
 40
9.0
 40
9.0
 40
9.0
 10
0.845720833333328
 20
-15.52411527777778
 10
0.845720833333328
 20
-15.52411527777778
 10
3.284584639246633
 20
-16.9321875
 10
3.284584639246633
 20
-16.9321875
 10
3.302737416565833
 20
-16.94267499999999
 10
3.322887416056801
 20
-16.94805555555556
 10
3.343263888888891
 20
-16.94805555555556
 10
3.353513888888894
 20
-16.94805555555556
 10
3.363826303911487
 20
-16.94666944444445
 10
3.373963803655392
 20
-16.9439486111111
 10
3.404365191776277
 20
-16.93583333333333
 10
3.429783246689718
 20
-16.91631944444445
 10
3.445502690737056
 20
-16.88905138888889
 10
3.46122074589554
 20
-16.86177222222222
 10
3.465390190234656
 20
-16.83004861111111
 10
3.457249999999994
 20
-16.79964722222222
 10
3.44912352397892
 20
-16.76924722222222
 10
3.429609635582993
 20
-16.74387777777777
 10
3.402366580715655
 20
-16.72819722222222
 10
3.402366580715655
 20
-16.72819722222222
 10
0.9635291666666665
 20
-15.320125
 10
0.9635291666666665
 20
-15.320125
 10
0.9072472222222182
 20
-15.28763888888889
 10
0.8350972222222278
 20
-15.30697777777777
 10
0.802611111111105
 20
-15.36319722222222
 10
0.7701624999999946
 20
-15.41942916666667
 10
0.7894638888888923
 20
-15.49162916666667
 10
0.845720833333328
 20
-15.52411527777778
 97
        0
 97
        0
 75
     2
 76
     1
 98
        0
  0
SPLINE
  5
47
330
1F
100
AcDbEntity
  8
Layer 1
370
     0
100
AcDbSpline
210
0.0
220
0.0
230
1.0
 70
    11
 71
     3
 72
    23
 73
    19
 74
     0
 42
0.0000000001
 43
0.0000000001
 12
1.0
 22
0.0
 32
0.0
 13
1.0
 23
0.0
 33
0.0
 40
0.0
 40
0.0
 40
0.0
 40
0.0
 40
1.0
 40
1.0
 40
1.0
 40
2.0
 40
2.0
 40
2.0
 40
3.0
 40
3.0
 40
3.0
 40
4.0
 40
4.0
 40
4.0
 40
5.0
 40
5.0
 40
5.0
 40
6.0
 40
6.0
 40
6.0
 40
6.0
 10
3.050505478493303
 20
-18.36318194444445
 30
0.0
 10
3.050505478493303
 20
-18.29822222222222
 30
0.0
 10
2.997669368716945
 20
-18.24541111111111
 30
0.0
 10
2.932697148136059
 20
-18.24541111111111
 30
0.0
 10
2.932697148136059
 20
-18.24541111111111
 30
0.0
 10
0.1165533333333365
 20
-18.24541111111111
 30
0.0
 10
0.1165533333333365
 20
-18.24541111111111
 30
0.0
 10
0.0516193055555555
 20
-18.24541111111111
 30
0.0
 10
-0.0012167638888943
 20
-18.29822222222222
 30
0.0
 10
-0.0012167638888943
 20
-18.36318194444445
 30
0.0
 10
-0.0012167638888943
 20
-18.42815277777777
 30
0.0
 10
0.0516193055555555
 20
-18.4810263888889
 30
0.0
 10
0.1165533333333365
 20
-18.4810263888889
 30
0.0
 10
0.1165533333333365
 20
-18.4810263888889
 30
0.0
 10
2.932697148136059
 20
-18.4810263888889
 30
0.0
 10
2.932697148136059
 20
-18.4810263888889
 30
0.0
 10
2.997669368716945
 20
-18.4810263888889
 30
0.0
 10
3.050505478493303
 20
-18.42815277777777
 30
0.0
 10
3.050505478493303
 20
-18.36318194444445
 30
0.0
  0
HATCH
  5
48
330
1F
100
AcDbEntity
  8
Layer 1
 62
     7
420
 16777215
100
AcDbHatch
 10
0.0
 20
0.0
 30
0.0
210
0.0
220
0.0
230
1.0
  2
SOLID
 70
     1
 71
     0
 91
        1
 92
        1
 93
        1
 72
     4
 94
        3
 73
     0
 74
     1
 95
       23
 96
       19
 40
0.0
 40
0.0
 40
0.0
 40
0.0
 40
1.0
 40
1.0
 40
1.0
 40
2.0
 40
2.0
 40
2.0
 40
3.0
 40
3.0
 40
3.0
 40
4.0
 40
4.0
 40
4.0
 40
5.0
 40
5.0
 40
5.0
 40
6.0
 40
6.0
 40
6.0
 40
6.0
 10
3.050505478493303
 20
-18.36318194444445
 10
3.050505478493303
 20
-18.29822222222222
 10
2.997669368716945
 20
-18.24541111111111
 10
2.932697148136059
 20
-18.24541111111111
 10
2.932697148136059
 20
-18.24541111111111
 10
0.1165533333333365
 20
-18.24541111111111
 10
0.1165533333333365
 20
-18.24541111111111
 10
0.0516193055555555
 20
-18.24541111111111
 10
-0.0012167638888943
 20
-18.29822222222222
 10
-0.0012167638888943
 20
-18.36318194444445
 10
-0.0012167638888943
 20
-18.42815277777777
 10
0.0516193055555555
 20
-18.4810263888889
 10
0.1165533333333365
 20
-18.4810263888889
 10
0.1165533333333365
 20
-18.4810263888889
 10
2.932697148136059
 20
-18.4810263888889
 10
2.932697148136059
 20
-18.4810263888889
 10
2.997669368716945
 20
-18.4810263888889
 10
3.050505478493303
 20
-18.42815277777777
 10
3.050505478493303
 20
-18.36318194444445
 97
        0
 97
        0
 75
     2
 76
     1
 98
        0
  0
SPLINE
  5
49
330
1F
100
AcDbEntity
  8
Layer 1
370
     0
100
AcDbSpline
210
0.0
220
0.0
230
1.0
 70
    11
 71
     3
 72
    29
 73
    25
 74
     0
 42
0.0000000001
 43
0.0000000001
 12
1.0
 22
0.0
 32
0.0
 13
1.0
 23
0.0
 33
0.0
 40
0.0
 40
0.0
 40
0.0
 40
0.0
 40
1.0
 40
1.0
 40
1.0
 40
2.0
 40
2.0
 40
2.0
 40
3.0
 40
3.0
 40
3.0
 40
4.0
 40
4.0
 40
4.0
 40
5.0
 40
5.0
 40
5.0
 40
6.0
 40
6.0
 40
6.0
 40
7.0
 40
7.0
 40
7.0
 40
8.0
 40
8.0
 40
8.0
 40
8.0
 10
3.445502690737056
 20
-19.83732361111111
 30
0.0
 10
3.412991580447245
 20
-19.78104166666667
 30
0.0
 10
3.340841582269907
 20
-19.76152777777778
 30
0.0
 10
3.284584639246633
 20
-19.79423888888889
 30
0.0
 10
3.284584639246633
 20
-19.79423888888889
 30
0.0
 10
0.845695833333328
 20
-21.2023111111111
 30
0.0
 10
0.845695833333328
 20
-21.2023111111111
 30
0.0
 10
0.7895013888888923
 20
-21.23479583333334
 30
0.0
 10
0.7701624999999946
 20
-21.30694722222223
 30
0.0
 10
0.802611111111105
 20
-21.36317916666667
 30
0.0
 10
0.8183666666666719
 20
-21.39044583333333
 30
0.0
 10
0.8437486111111082
 20
-21.40995972222221
 30
0.0
 10
0.8741499999999985
 20
-21.4180625
 30
0.0
 10
0.8842875000000023
 20
-21.42078333333332
 30
0.0
 10
0.8946000000000064
 20
-21.42218194444445
 30
0.0
 10
0.9048499999999977
 20
-21.42218194444445
 30
0.0
 10
0.9252250000000054
 20
-21.42218194444445
 30
0.0
 10
0.9453763888888917
 20
-21.41678888888888
 30
0.0
 10
0.9635291666666665
 20
-21.40631388888889
 30
0.0
 10
0.9635291666666665
 20
-21.40631388888889
 30
0.0
 10
3.402366580715655
 20
-19.99824166666667
 30
0.0
 10
3.402366580715655
 20
-19.99824166666667
 30
0.0
 10
3.458586023739877
 20
-19.96575555555556
 30
0.0
 10
3.477949912139593
 20
-19.89355555555554
 30
0.0
 10
3.445502690737056
 20
-19.83732361111111
 30
0.0
  0
HATCH
  5
4A
330
1F
100
AcDbEntity
  8
Layer 1
 62
     7
420
 16777215
100
AcDbHatch
 10
0.0
 20
0.0
 30
0.0
210
0.0
220
0.0
230
1.0
  2
SOLID
 70
     1
 71
     0
 91
        1
 92
        1
 93
        1
 72
     4
 94
        3
 73
     0
 74
     1
 95
       29
 96
       25
 40
0.0
 40
0.0
 40
0.0
 40
0.0
 40
1.0
 40
1.0
 40
1.0
 40
2.0
 40
2.0
 40
2.0
 40
3.0
 40
3.0
 40
3.0
 40
4.0
 40
4.0
 40
4.0
 40
5.0
 40
5.0
 40
5.0
 40
6.0
 40
6.0
 40
6.0
 40
7.0
 40
7.0
 40
7.0
 40
8.0
 40
8.0
 40
8.0
 40
8.0
 10
3.445502690737056
 20
-19.83732361111111
 10
3.412991580447245
 20
-19.78104166666667
 10
3.340841582269907
 20
-19.76152777777778
 10
3.284584639246633
 20
-19.79423888888889
 10
3.284584639246633
 20
-19.79423888888889
 10
0.845695833333328
 20
-21.2023111111111
 10
0.845695833333328
 20
-21.2023111111111
 10
0.7895013888888923
 20
-21.23479583333334
 10
0.7701624999999946
 20
-21.30694722222223
 10
0.802611111111105
 20
-21.36317916666667
 10
0.8183666666666719
 20
-21.39044583333333
 10
0.8437486111111082
 20
-21.40995972222221
 10
0.8741499999999985
 20
-21.4180625
 10
0.8842875000000023
 20
-21.42078333333332
 10
0.8946000000000064
 20
-21.42218194444445
 10
0.9048499999999977
 20
-21.42218194444445
 10
0.9252250000000054
 20
-21.42218194444445
 10
0.9453763888888917
 20
-21.41678888888888
 10
0.9635291666666665
 20
-21.40631388888889
 10
0.9635291666666665
 20
-21.40631388888889
 10
3.402366580715655
 20
-19.99824166666667
 10
3.402366580715655
 20
-19.99824166666667
 10
3.458586023739877
 20
-19.96575555555556
 10
3.477949912139593
 20
-19.89355555555554
 10
3.445502690737056
 20
-19.83732361111111
 97
        0
 97
        0
 75
     2
 76
     1
 98
        0
  0
SPLINE
  5
4B
330
1F
100
AcDbEntity
  8
Layer 1
370
     0
100
AcDbSpline
210
0.0
220
0.0
230
1.0
 70
    11
 71
     3
 72
    32
 73
    28
 74
     0
 42
0.0000000001
 43
0.0000000001
 12
1.0
 22
0.0
 32
0.0
 13
1.0
 23
0.0
 33
0.0
 40
0.0
 40
0.0
 40
0.0
 40
0.0
 40
1.0
 40
1.0
 40
1.0
 40
2.0
 40
2.0
 40
2.0
 40
3.0
 40
3.0
 40
3.0
 40
4.0
 40
4.0
 40
4.0
 40
5.0
 40
5.0
 40
5.0
 40
6.0
 40
6.0
 40
6.0
 40
7.0
 40
7.0
 40
7.0
 40
8.0
 40
8.0
 40
8.0
 40
9.0
 40
9.0
 40
9.0
 40
9.0
 10
4.579505439867514
 20
-20.98794444444444
 30
0.0
 10
4.571340162296009
 20
-20.95760694444445
 30
0.0
 10
4.551851273899451
 20
-20.9321875
 30
0.0
 10
4.524609607920966
 20
-20.91649444444445
 30
0.0
 10
4.468390164896745
 20
-20.88395833333334
 30
0.0
 10
4.396177666720986
 20
-20.90334722222221
 30
0.0
 10
4.363729056429595
 20
-20.95957916666667
 30
0.0
 10
4.363729056429595
 20
-20.95957916666667
 30
0.0
 10
2.95565686977827
 20
-23.39846666666666
 30
0.0
 10
2.95565686977827
 20
-23.39846666666666
 30
0.0
 10
2.939938814619786
 20
-23.42568472222221
 30
0.0
 10
2.935731870281618
 20
-23.45747083333332
 30
0.0
 10
2.943895758964269
 20
-23.48787222222222
 30
0.0
 10
2.952036036536406
 20
-23.51820972222223
 30
0.0
 10
2.971524924932964
 20
-23.54362916666665
 30
0.0
 10
2.998767979800303
 20
-23.55932222222221
 30
0.0
 10
3.017270757110661
 20
-23.57003472222221
 30
0.0
 10
3.037508256599418
 20
-23.57507916666666
 30
0.0
 10
3.057447144984609
 20
-23.57507916666666
 30
0.0
 10
3.098184643955493
 20
-23.57507916666666
 30
0.0
 10
3.137887420730294
 20
-23.55399166666666
 30
0.0
 10
3.159686031290726
 20
-23.51623750000001
 30
0.0
 10
3.159686031290726
 20
-23.51623750000001
 30
0.0
 10
4.567745717942367
 20
-21.07734861111112
 30
0.0
 10
4.567745717942367
 20
-21.07734861111112
 30
0.0
 10
4.583476273100536
 20
-21.05008194444445
 30
0.0
 10
4.587645717439651
 20
-21.01834583333334
 30
0.0
 10
4.579505439867514
 20
-20.98794444444444
 30
0.0
  0
HATCH
  5
4C
330
1F
100
AcDbEntity
  8
Layer 1
 62
     7
420
 16777215
100
AcDbHatch
 10
0.0
 20
0.0
 30
0.0
210
0.0
220
0.0
230
1.0
  2
SOLID
 70
     1
 71
     0
 91
        1
 92
        1
 93
        1
 72
     4
 94
        3
 73
     0
 74
     1
 95
       32
 96
       28
 40
0.0
 40
0.0
 40
0.0
 40
0.0
 40
1.0
 40
1.0
 40
1.0
 40
2.0
 40
2.0
 40
2.0
 40
3.0
 40
3.0
 40
3.0
 40
4.0
 40
4.0
 40
4.0
 40
5.0
 40
5.0
 40
5.0
 40
6.0
 40
6.0
 40
6.0
 40
7.0
 40
7.0
 40
7.0
 40
8.0
 40
8.0
 40
8.0
 40
9.0
 40
9.0
 40
9.0
 40
9.0
 10
4.579505439867514
 20
-20.98794444444444
 10
4.571340162296009
 20
-20.95760694444445
 10
4.551851273899451
 20
-20.9321875
 10
4.524609607920966
 20
-20.91649444444445
 10
4.468390164896745
 20
-20.88395833333334
 10
4.396177666720986
 20
-20.90334722222221
 10
4.363729056429595
 20
-20.95957916666667
 10
4.363729056429595
 20
-20.95957916666667
 10
2.95565686977827
 20
-23.39846666666666
 10
2.95565686977827
 20
-23.39846666666666
 10
2.939938814619786
 20
-23.42568472222221
 10
2.935731870281618
 20
-23.45747083333332
 10
2.943895758964269
 20
-23.48787222222222
 10
2.952036036536406
 20
-23.51820972222223
 10
2.971524924932964
 20
-23.54362916666665
 10
2.998767979800303
 20
-23.55932222222221
 10
3.017270757110661
 20
-23.57003472222221
 10
3.037508256599418
 20
-23.57507916666666
 10
3.057447144984609
 20
-23.57507916666666
 10
3.098184643955493
 20
-23.57507916666666
 10
3.137887420730294
 20
-23.55399166666666
 10
3.159686031290726
 20
-23.51623750000001
 10
3.159686031290726
 20
-23.51623750000001
 10
4.567745717942367
 20
-21.07734861111112
 10
4.567745717942367
 20
-21.07734861111112
 10
4.583476273100536
 20
-21.05008194444445
 10
4.587645717439651
 20
-21.01834583333334
 10
4.579505439867514
 20
-20.98794444444444
 97
        0
 97
        0
 75
     2
 76
     1
 98
        0
  0
SPLINE
  5
4D
330
1F
100
AcDbEntity
  8
Layer 1
370
     0
100
AcDbSpline
210
0.0
220
0.0
230
1.0
 70
    11
 71
     3
 72
    23
 73
    19
 74
     0
 42
0.0000000001
 43
0.0000000001
 12
1.0
 22
0.0
 32
0.0
 13
1.0
 23
0.0
 33
0.0
 40
0.0
 40
0.0
 40
0.0
 40
0.0
 40
1.0
 40
1.0
 40
1.0
 40
2.0
 40
2.0
 40
2.0
 40
3.0
 40
3.0
 40
3.0
 40
4.0
 40
4.0
 40
4.0
 40
5.0
 40
5.0
 40
5.0
 40
6.0
 40
6.0
 40
6.0
 40
6.0
 10
5.998751237347682
 20
-21.31146666666667
 30
0.0
 10
5.93380555555556
 20
-21.31146666666667
 30
0.0
 10
5.88096929587866
 20
-21.36427777777779
 30
0.0
 10
5.88096929587866
 20
-21.42923611111112
 30
0.0
 10
5.88096929587866
 20
-21.42923611111112
 30
0.0
 10
5.88096929587866
 20
-24.24538055555556
 30
0.0
 10
5.88096929587866
 20
-24.24538055555556
 30
0.0
 10
5.88096929587866
 20
-24.31035138888888
 30
0.0
 10
5.93380555555556
 20
-24.36321249999999
 30
0.0
 10
5.998751237347682
 20
-24.36321249999999
 30
0.0
 10
6.063685957929516
 20
-24.36321249999999
 30
0.0
 10
6.116522067705874
 20
-24.31035138888888
 30
0.0
 10
6.116522067705874
 20
-24.24538055555556
 30
0.0
 10
6.116522067705874
 20
-24.24538055555556
 30
0.0
 10
6.116522067705874
 20
-21.42923611111112
 30
0.0
 10
6.116522067705874
 20
-21.42923611111112
 30
0.0
 10
6.116522067705874
 20
-21.36427777777779
 30
0.0
 10
6.063685957929516
 20
-21.31146666666667
 30
0.0
 10
5.998751237347682
 20
-21.31146666666667
 30
0.0
  0
HATCH
  5
4E
330
1F
100
AcDbEntity
  8
Layer 1
 62
     7
420
 16777215
100
AcDbHatch
 10
0.0
 20
0.0
 30
0.0
210
0.0
220
0.0
230
1.0
  2
SOLID
 70
     1
 71
     0
 91
        1
 92
        1
 93
        1
 72
     4
 94
        3
 73
     0
 74
     1
 95
       23
 96
       19
 40
0.0
 40
0.0
 40
0.0
 40
0.0
 40
1.0
 40
1.0
 40
1.0
 40
2.0
 40
2.0
 40
2.0
 40
3.0
 40
3.0
 40
3.0
 40
4.0
 40
4.0
 40
4.0
 40
5.0
 40
5.0
 40
5.0
 40
6.0
 40
6.0
 40
6.0
 40
6.0
 10
5.998751237347682
 20
-21.31146666666667
 10
5.93380555555556
 20
-21.31146666666667
 10
5.88096929587866
 20
-21.36427777777779
 10
5.88096929587866
 20
-21.42923611111112
 10
5.88096929587866
 20
-21.42923611111112
 10
5.88096929587866
 20
-24.24538055555556
 10
5.88096929587866
 20
-24.24538055555556
 10
5.88096929587866
 20
-24.31035138888888
 10
5.93380555555556
 20
-24.36321249999999
 10
5.998751237347682
 20
-24.36321249999999
 10
6.063685957929516
 20
-24.36321249999999
 10
6.116522067705874
 20
-24.31035138888888
 10
6.116522067705874
 20
-24.24538055555556
 10
6.116522067705874
 20
-24.24538055555556
 10
6.116522067705874
 20
-21.42923611111112
 10
6.116522067705874
 20
-21.42923611111112
 10
6.116522067705874
 20
-21.36427777777779
 10
6.063685957929516
 20
-21.31146666666667
 10
5.998751237347682
 20
-21.31146666666667
 97
        0
 97
        0
 75
     2
 76
     1
 98
        0
  0
SPLINE
  5
4F
330
1F
100
AcDbEntity
  8
Layer 1
370
     0
100
AcDbSpline
210
0.0
220
0.0
230
1.0
 70
    11
 71
     3
 72
    32
 73
    28
 74
     0
 42
0.0000000001
 43
0.0000000001
 12
1.0
 22
0.0
 32
0.0
 13
1.0
 23
0.0
 33
0.0
 40
0.0
 40
0.0
 40
0.0
 40
0.0
 40
1.0
 40
1.0
 40
1.0
 40
2.0
 40
2.0
 40
2.0
 40
3.0
 40
3.0
 40
3.0
 40
4.0
 40
4.0
 40
4.0
 40
5.0
 40
5.0
 40
5.0
 40
6.0
 40
6.0
 40
6.0
 40
7.0
 40
7.0
 40
7.0
 40
8.0
 40
8.0
 40
8.0
 40
9.0
 40
9.0
 40
9.0
 40
9.0
 10
7.633799807153991
 20
-20.95957916666667
 30
0.0
 10
7.601351196862601
 20
-20.90334722222221
 30
0.0
 10
7.529176198685895
 20
-20.88383333333334
 30
0.0
 10
7.472881755663567
 20
-20.91649444444445
 30
0.0
 10
7.445640089685083
 20
-20.9321875
 30
0.0
 10
7.42616370128821
 20
-20.95760694444445
 30
0.0
 10
7.418023423716072
 20
-20.98794444444444
 30
0.0
 10
7.409858146144567
 20
-21.01834583333334
 30
0.0
 10
7.414052590483051
 20
-21.05014444444444
 30
0.0
 10
7.429783145641219
 20
-21.07734861111112
 30
0.0
 10
7.429783145641219
 20
-21.07734861111112
 30
0.0
 10
8.83784283229286
 20
-23.51623750000001
 30
0.0
 10
8.83784283229286
 20
-23.51623750000001
 30
0.0
 10
8.859616442853923
 20
-23.55399166666666
 30
0.0
 10
8.899281719629672
 20
-23.57507916666666
 30
0.0
 10
8.940019218600556
 20
-23.57507916666666
 30
0.0
 10
8.9599956069848
 20
-23.57507916666666
 30
0.0
 10
8.980233106473557
 20
-23.57003472222221
 30
0.0
 10
8.998736111111105
 20
-23.55932222222221
 30
0.0
 10
9.025978938651253
 20
-23.54362916666665
 30
0.0
 10
9.045467827047812
 20
-23.51820972222223
 30
0.0
 10
9.053631715730463
 20
-23.48787222222222
 30
0.0
 10
9.061759493302917
 20
-23.45747083333332
 30
0.0
 10
9.057590048963801
 20
-23.42573472222221
 30
0.0
 10
9.041871993805318
 20
-23.39846666666666
 30
0.0
 10
9.041871993805318
 20
-23.39846666666666
 30
0.0
 10
7.633799807153991
 20
-20.95957916666667
 30
0.0
 10
7.633799807153991
 20
-20.95957916666667
 30
0.0
  0
HATCH
  5
50
330
1F
100
AcDbEntity
  8
Layer 1
 62
     7
420
 16777215
100
AcDbHatch
 10
0.0
 20
0.0
 30
0.0
210
0.0
220
0.0
230
1.0
  2
SOLID
 70
     1
 71
     0
 91
        1
 92
        1
 93
        1
 72
     4
 94
        3
 73
     0
 74
     1
 95
       32
 96
       28
 40
0.0
 40
0.0
 40
0.0
 40
0.0
 40
1.0
 40
1.0
 40
1.0
 40
2.0
 40
2.0
 40
2.0
 40
3.0
 40
3.0
 40
3.0
 40
4.0
 40
4.0
 40
4.0
 40
5.0
 40
5.0
 40
5.0
 40
6.0
 40
6.0
 40
6.0
 40
7.0
 40
7.0
 40
7.0
 40
8.0
 40
8.0
 40
8.0
 40
9.0
 40
9.0
 40
9.0
 40
9.0
 10
7.633799807153991
 20
-20.95957916666667
 10
7.601351196862601
 20
-20.90334722222221
 10
7.529176198685895
 20
-20.88383333333334
 10
7.472881755663567
 20
-20.91649444444445
 10
7.445640089685083
 20
-20.9321875
 10
7.42616370128821
 20
-20.95760694444445
 10
7.418023423716072
 20
-20.98794444444444
 10
7.409858146144567
 20
-21.01834583333334
 10
7.414052590483051
 20
-21.05014444444444
 10
7.429783145641219
 20
-21.07734861111112
 10
7.429783145641219
 20
-21.07734861111112
 10
8.83784283229286
 20
-23.51623750000001
 10
8.83784283229286
 20
-23.51623750000001
 10
8.859616442853923
 20
-23.55399166666666
 10
8.899281719629672
 20
-23.57507916666666
 10
8.940019218600556
 20
-23.57507916666666
 10
8.9599956069848
 20
-23.57507916666666
 10
8.980233106473557
 20
-23.57003472222221
 10
8.998736111111105
 20
-23.55932222222221
 10
9.025978938651253
 20
-23.54362916666665
 10
9.045467827047812
 20
-23.51820972222223
 10
9.053631715730463
 20
-23.48787222222222
 10
9.061759493302917
 20
-23.45747083333332
 10
9.057590048963801
 20
-23.42573472222221
 10
9.041871993805318
 20
-23.39846666666666
 10
9.041871993805318
 20
-23.39846666666666
 10
7.633799807153991
 20
-20.95957916666667
 10
7.633799807153991
 20
-20.95957916666667
 97
        0
 97
        0
 75
     2
 76
     1
 98
        0
  0
SPLINE
  5
51
330
1F
100
AcDbEntity
  8
Layer 1
370
     0
100
AcDbSpline
210
0.0
220
0.0
230
1.0
 70
    11
 71
     3
 72
    32
 73
    28
 74
     0
 42
0.0000000001
 43
0.0000000001
 12
1.0
 22
0.0
 32
0.0
 13
1.0
 23
0.0
 33
0.0
 40
0.0
 40
0.0
 40
0.0
 40
0.0
 40
1.0
 40
1.0
 40
1.0
 40
2.0
 40
2.0
 40
2.0
 40
3.0
 40
3.0
 40
3.0
 40
4.0
 40
4.0
 40
4.0
 40
5.0
 40
5.0
 40
5.0
 40
6.0
 40
6.0
 40
6.0
 40
7.0
 40
7.0
 40
7.0
 40
8.0
 40
8.0
 40
8.0
 40
9.0
 40
9.0
 40
9.0
 40
9.0
 10
11.15176916272705
 20
-21.2023111111111
 30
0.0
 10
11.15176916272705
 20
-21.2023111111111
 30
0.0
 10
8.712919224337586
 20
-19.79423888888889
 30
0.0
 10
8.712919224337586
 20
-19.79423888888889
 30
0.0
 10
8.68570255835847
 20
-19.77855694444444
 30
0.0
 10
8.65387894805129
 20
-19.7744375
 30
0.0
 10
8.623540059928827
 20
-19.78242777777778
 30
0.0
 10
8.593138888888891
 20
-19.79059305555557
 30
0.0
 10
8.567745616893868
 20
-19.81010694444444
 30
0.0
 10
8.55202617284653
 20
-19.83732361111111
 30
0.0
 10
8.51957756255514
 20
-19.89355555555554
 30
0.0
 10
8.538880339845289
 20
-19.96575555555556
 30
0.0
 10
8.595137282868563
 20
-19.99824166666667
 30
0.0
 10
8.595137282868563
 20
-19.99824166666667
 30
0.0
 10
11.034
 20
-21.40631388888889
 30
0.0
 10
11.034
 20
-21.40631388888889
 30
0.0
 10
11.05215277777777
 20
-21.41678888888888
 30
0.0
 10
11.07230388695674
 20
-21.42218194444445
 30
0.0
 10
11.09267888644202
 20
-21.42218194444445
 30
0.0
 10
11.10292888618308
 20
-21.42218194444445
 30
0.0
 10
11.11324138592257
 20
-21.42078333333332
 30
0.0
 10
11.12337888566647
 20
-21.4180625
 30
0.0
 10
11.15376777378767
 20
-21.40995972222221
 30
0.0
 10
11.1791622175906
 20
-21.39044583333333
 30
0.0
 10
11.19488027274909
 20
-21.36317916666667
 30
0.0
 10
11.22734138304016
 20
-21.30700972222222
 30
0.0
 10
11.20800249463981
 20
-21.23479583333334
 30
0.0
 10
11.15176916272705
 20
-21.2023111111111
 30
0.0
  0
HATCH
  5
52
330
1F
100
AcDbEntity
  8
Layer 1
 62
     7
420
 16777215
100
AcDbHatch
 10
0.0
 20
0.0
 30
0.0
210
0.0
220
0.0
230
1.0
  2
SOLID
 70
     1
 71
     0
 91
        1
 92
        1
 93
        1
 72
     4
 94
        3
 73
     0
 74
     1
 95
       32
 96
       28
 40
0.0
 40
0.0
 40
0.0
 40
0.0
 40
1.0
 40
1.0
 40
1.0
 40
2.0
 40
2.0
 40
2.0
 40
3.0
 40
3.0
 40
3.0
 40
4.0
 40
4.0
 40
4.0
 40
5.0
 40
5.0
 40
5.0
 40
6.0
 40
6.0
 40
6.0
 40
7.0
 40
7.0
 40
7.0
 40
8.0
 40
8.0
 40
8.0
 40
9.0
 40
9.0
 40
9.0
 40
9.0
 10
11.15176916272705
 20
-21.2023111111111
 10
11.15176916272705
 20
-21.2023111111111
 10
8.712919224337586
 20
-19.79423888888889
 10
8.712919224337586
 20
-19.79423888888889
 10
8.68570255835847
 20
-19.77855694444444
 10
8.65387894805129
 20
-19.7744375
 10
8.623540059928827
 20
-19.78242777777778
 10
8.593138888888891
 20
-19.79059305555557
 10
8.567745616893868
 20
-19.81010694444444
 10
8.55202617284653
 20
-19.83732361111111
 10
8.51957756255514
 20
-19.89355555555554
 10
8.538880339845289
 20
-19.96575555555556
 10
8.595137282868563
 20
-19.99824166666667
 10
8.595137282868563
 20
-19.99824166666667
 10
11.034
 20
-21.40631388888889
 10
11.034
 20
-21.40631388888889
 10
11.05215277777777
 20
-21.41678888888888
 10
11.07230388695674
 20
-21.42218194444445
 10
11.09267888644202
 20
-21.42218194444445
 10
11.10292888618308
 20
-21.42218194444445
 10
11.11324138592257
 20
-21.42078333333332
 10
11.12337888566647
 20
-21.4180625
 10
11.15376777378767
 20
-21.40995972222221
 10
11.1791622175906
 20
-21.39044583333333
 10
11.19488027274909
 20
-21.36317916666667
 10
11.22734138304016
 20
-21.30700972222222
 10
11.20800249463981
 20
-21.23479583333334
 10
11.15176916272705
 20
-21.2023111111111
 97
        0
 97
        0
 75
     2
 76
     1
 98
        0
  0
SPLINE
  5
53
330
1F
100
AcDbEntity
  8
Layer 1
370
     0
100
AcDbSpline
210
0.0
220
0.0
230
1.0
 70
    11
 71
     3
 72
    23
 73
    19
 74
     0
 42
0.0000000001
 43
0.0000000001
 12
1.0
 22
0.0
 32
0.0
 13
1.0
 23
0.0
 33
0.0
 40
0.0
 40
0.0
 40
0.0
 40
0.0
 40
1.0
 40
1.0
 40
1.0
 40
2.0
 40
2.0
 40
2.0
 40
3.0
 40
3.0
 40
3.0
 40
4.0
 40
4.0
 40
4.0
 40
5.0
 40
5.0
 40
5.0
 40
6.0
 40
6.0
 40
6.0
 40
6.0
 10
11.88093858875113
 20
-18.24541111111111
 30
0.0
 10
11.88093858875113
 20
-18.24541111111111
 30
0.0
 10
9.064806715448158
 20
-18.24541111111111
 30
0.0
 10
9.064806715448158
 20
-18.24541111111111
 30
0.0
 10
8.999859494866643
 20
-18.24541111111111
 30
0.0
 10
8.947023385090283
 20
-18.29822222222222
 30
0.0
 10
8.947023385090283
 20
-18.36318194444445
 30
0.0
 10
8.947023385090283
 20
-18.42815277777777
 30
0.0
 10
8.999859494866643
 20
-18.4810263888889
 30
0.0
 10
9.064806715448158
 20
-18.4810263888889
 30
0.0
 10
9.064806715448158
 20
-18.4810263888889
 30
0.0
 10
11.88093858875113
 20
-18.4810263888889
 30
0.0
 10
11.88093858875113
 20
-18.4810263888889
 30
0.0
 10
11.94590942044316
 20
-18.4810263888889
 30
0.0
 10
11.99874553021952
 20
-18.42815277777777
 30
0.0
 10
11.99874553021952
 20
-18.36318194444445
 30
0.0
 10
11.99874553021952
 20
-18.29822222222222
 30
0.0
 10
11.94590942044316
 20
-18.24541111111111
 30
0.0
 10
11.88093858875113
 20
-18.24541111111111
 30
0.0
  0
HATCH
  5
54
330
1F
100
AcDbEntity
  8
Layer 1
 62
     7
420
 16777215
100
AcDbHatch
 10
0.0
 20
0.0
 30
0.0
210
0.0
220
0.0
230
1.0
  2
SOLID
 70
     1
 71
     0
 91
        1
 92
        1
 93
        1
 72
     4
 94
        3
 73
     0
 74
     1
 95
       23
 96
       19
 40
0.0
 40
0.0
 40
0.0
 40
0.0
 40
1.0
 40
1.0
 40
1.0
 40
2.0
 40
2.0
 40
2.0
 40
3.0
 40
3.0
 40
3.0
 40
4.0
 40
4.0
 40
4.0
 40
5.0
 40
5.0
 40
5.0
 40
6.0
 40
6.0
 40
6.0
 40
6.0
 10
11.88093858875113
 20
-18.24541111111111
 10
11.88093858875113
 20
-18.24541111111111
 10
9.064806715448158
 20
-18.24541111111111
 10
9.064806715448158
 20
-18.24541111111111
 10
8.999859494866643
 20
-18.24541111111111
 10
8.947023385090283
 20
-18.29822222222222
 10
8.947023385090283
 20
-18.36318194444445
 10
8.947023385090283
 20
-18.42815277777777
 10
8.999859494866643
 20
-18.4810263888889
 10
9.064806715448158
 20
-18.4810263888889
 10
9.064806715448158
 20
-18.4810263888889
 10
11.88093858875113
 20
-18.4810263888889
 10
11.88093858875113
 20
-18.4810263888889
 10
11.94590942044316
 20
-18.4810263888889
 10
11.99874553021952
 20
-18.42815277777777
 10
11.99874553021952
 20
-18.36318194444445
 10
11.99874553021952
 20
-18.29822222222222
 10
11.94590942044316
 20
-18.24541111111111
 10
11.88093858875113
 20
-18.24541111111111
 97
        0
 97
        0
 75
     2
 76
     1
 98
        0
  0
SPLINE
  5
55
330
1F
100
AcDbEntity
  8
Layer 1
370
     0
100
AcDbSpline
210
0.0
220
0.0
230
1.0
 70
    11
 71
     3
 72
    32
 73
    28
 74
     0
 42
0.0000000001
 43
0.0000000001
 12
1.0
 22
0.0
 32
0.0
 13
1.0
 23
0.0
 33
0.0
 40
0.0
 40
0.0
 40
0.0
 40
0.0
 40
1.0
 40
1.0
 40
1.0
 40
2.0
 40
2.0
 40
2.0
 40
3.0
 40
3.0
 40
3.0
 40
4.0
 40
4.0
 40
4.0
 40
5.0
 40
5.0
 40
5.0
 40
6.0
 40
6.0
 40
6.0
 40
7.0
 40
7.0
 40
7.0
 40
8.0
 40
8.0
 40
8.0
 40
9.0
 40
9.0
 40
9.0
 40
9.0
 10
8.540277777777773
 20
-16.79964722222222
 30
0.0
 10
8.532113673349562
 20
-16.83004861111111
 30
0.0
 10
8.536308117688046
 20
-16.86183472222222
 30
0.0
 10
8.55202617284653
 20
-16.88905138888889
 30
0.0
 10
8.567745616893868
 20
-16.91631944444445
 30
0.0
 10
8.593138888888891
 20
-16.93583333333333
 30
0.0
 10
8.623540059928827
 20
-16.9439486111111
 30
0.0
 10
8.633677559672732
 20
-16.94666944444445
 30
0.0
 10
8.643977559412532
 20
-16.94805555555556
 30
0.0
 10
8.654227559153595
 20
-16.94805555555556
 30
0.0
 10
8.674615058638564
 20
-16.94805555555556
 30
0.0
 10
8.694766447018385
 20
-16.94267499999999
 30
0.0
 10
8.712919224337586
 20
-16.9321875
 30
0.0
 10
8.712919224337586
 20
-16.9321875
 30
0.0
 10
11.1518066627261
 20
-15.52411527777778
 30
0.0
 10
11.1518066627261
 20
-15.52411527777778
 30
0.0
 10
11.20802610575033
 20
-15.49162916666667
 30
0.0
 10
11.22734138304016
 20
-15.41942916666667
 30
0.0
 10
11.19488027274909
 20
-15.36319722222222
 30
0.0
 10
11.16243166245769
 20
-15.30691527777777
 30
0.0
 10
11.09025666428099
 20
-15.28757638888889
 30
0.0
 10
11.034
 20
-15.320125
 30
0.0
 10
11.034
 20
-15.320125
 30
0.0
 10
8.595137282868563
 20
-16.72819722222222
 30
0.0
 10
8.595137282868563
 20
-16.72819722222222
 30
0.0
 10
8.567894228001226
 20
-16.74387777777777
 30
0.0
 10
8.548405339604667
 20
-16.76929722222222
 30
0.0
 10
8.540277777777773
 20
-16.79964722222222
 30
0.0
  0
HATCH
  5
56
330
1F
100
AcDbEntity
  8
Layer 1
 62
     7
420
 16777215
100
AcDbHatch
 10
0.0
 20
0.0
 30
0.0
210
0.0
220
0.0
230
1.0
  2
SOLID
 70
     1
 71
     0
 91
        1
 92
        1
 93
        1
 72
     4
 94
        3
 73
     0
 74
     1
 95
       32
 96
       28
 40
0.0
 40
0.0
 40
0.0
 40
0.0
 40
1.0
 40
1.0
 40
1.0
 40
2.0
 40
2.0
 40
2.0
 40
3.0
 40
3.0
 40
3.0
 40
4.0
 40
4.0
 40
4.0
 40
5.0
 40
5.0
 40
5.0
 40
6.0
 40
6.0
 40
6.0
 40
7.0
 40
7.0
 40
7.0
 40
8.0
 40
8.0
 40
8.0
 40
9.0
 40
9.0
 40
9.0
 40
9.0
 10
8.540277777777773
 20
-16.79964722222222
 10
8.532113673349562
 20
-16.83004861111111
 10
8.536308117688046
 20
-16.86183472222222
 10
8.55202617284653
 20
-16.88905138888889
 10
8.567745616893868
 20
-16.91631944444445
 10
8.593138888888891
 20
-16.93583333333333
 10
8.623540059928827
 20
-16.9439486111111
 10
8.633677559672732
 20
-16.94666944444445
 10
8.643977559412532
 20
-16.94805555555556
 10
8.654227559153595
 20
-16.94805555555556
 10
8.674615058638564
 20
-16.94805555555556
 10
8.694766447018385
 20
-16.94267499999999
 10
8.712919224337586
 20
-16.9321875
 10
8.712919224337586
 20
-16.9321875
 10
11.1518066627261
 20
-15.52411527777778
 10
11.1518066627261
 20
-15.52411527777778
 10
11.20802610575033
 20
-15.49162916666667
 10
11.22734138304016
 20
-15.41942916666667
 10
11.19488027274909
 20
-15.36319722222222
 10
11.16243166245769
 20
-15.30691527777777
 10
11.09025666428099
 20
-15.28757638888889
 10
11.034
 20
-15.320125
 10
11.034
 20
-15.320125
 10
8.595137282868563
 20
-16.72819722222222
 10
8.595137282868563
 20
-16.72819722222222
 10
8.567894228001226
 20
-16.74387777777777
 10
8.548405339604667
 20
-16.76929722222222
 10
8.540277777777773
 20
-16.79964722222222
 97
        0
 97
        0
 75
     2
 76
     1
 98
        0
  0
SPLINE
  5
57
330
1F
100
AcDbEntity
  8
Layer 1
370
     0
100
AcDbSpline
210
0.0
220
0.0
230
1.0
 70
    11
 71
     3
 72
    32
 73
    28
 74
     0
 42
0.0000000001
 43
0.0000000001
 12
1.0
 22
0.0
 32
0.0
 13
1.0
 23
0.0
 33
0.0
 40
0.0
 40
0.0
 40
0.0
 40
0.0
 40
1.0
 40
1.0
 40
1.0
 40
2.0
 40
2.0
 40
2.0
 40
3.0
 40
3.0
 40
3.0
 40
4.0
 40
4.0
 40
4.0
 40
5.0
 40
5.0
 40
5.0
 40
6.0
 40
6.0
 40
6.0
 40
7.0
 40
7.0
 40
7.0
 40
8.0
 40
8.0
 40
8.0
 40
9.0
 40
9.0
 40
9.0
 40
9.0
 10
7.407460923982903
 20
-15.71022777777778
 30
0.0
 10
7.424890090209272
 20
-15.71920416666666
 30
0.0
 10
7.443042867528472
 20
-15.7235486111111
 30
0.0
 10
7.460895644855251
 20
-15.7235486111111
 30
0.0
 10
7.506416666666659
 20
-15.7235486111111
 30
0.0
 10
7.550163698155706
 20
-15.69563333333334
 30
0.0
 10
7.575844253062516
 20
-15.64606805555556
 30
0.0
 10
7.575844253062516
 20
-15.64606805555556
 30
0.0
 10
8.760462278692103
 20
-13.36259166666667
 30
0.0
 10
8.760462278692103
 20
-13.36259166666667
 30
0.0
 10
8.774358111674397
 20
-13.33589861111111
 30
0.0
 10
8.79010116683225
 20
-13.30562361111111
 30
0.0
 10
8.792298388998965
 20
-13.26335
 30
0.0
 10
8.788740055755524
 20
-13.21233611111111
 30
0.0
 10
8.76224700086924
 20
-13.17475694444445
 30
0.0
 10
8.717663668662174
 20
-13.15750277777778
 30
0.0
 10
8.6663011699597
 20
-13.13768888888889
 30
0.0
 10
8.617309504530668
 20
-13.15135972222222
 30
0.0
 10
8.580778949897951
 20
-13.19971388888889
 30
0.0
 10
8.580778949897951
 20
-13.19971388888889
 30
0.0
 10
7.36124148070606
 20
-15.53495277777778
 30
0.0
 10
7.36124148070606
 20
-15.53495277777778
 30
0.0
 10
7.344512314462008
 20
-15.56720000000001
 30
0.0
 10
7.339767870137418
 20
-15.60269583333333
 30
0.0
 10
7.347870647710502
 20
-15.63478194444445
 30
0.0
 10
7.356272036387154
 20
-15.66789166666667
 30
0.0
 10
7.377397035853492
 20
-15.69470833333334
 30
0.0
 10
7.407460923982903
 20
-15.71022777777778
 30
0.0
  0
HATCH
  5
58
330
1F
100
AcDbEntity
  8
Layer 1
 62
     7
420
 16777215
100
AcDbHatch
 10
0.0
 20
0.0
 30
0.0
210
0.0
220
0.0
230
1.0
  2
SOLID
 70
     1
 71
     0
 91
        1
 92
        1
 93
        1
 72
     4
 94
        3
 73
     0
 74
     1
 95
       32
 96
       28
 40
0.0
 40
0.0
 40
0.0
 40
0.0
 40
1.0
 40
1.0
 40
1.0
 40
2.0
 40
2.0
 40
2.0
 40
3.0
 40
3.0
 40
3.0
 40
4.0
 40
4.0
 40
4.0
 40
5.0
 40
5.0
 40
5.0
 40
6.0
 40
6.0
 40
6.0
 40
7.0
 40
7.0
 40
7.0
 40
8.0
 40
8.0
 40
8.0
 40
9.0
 40
9.0
 40
9.0
 40
9.0
 10
7.407460923982903
 20
-15.71022777777778
 10
7.424890090209272
 20
-15.71920416666666
 10
7.443042867528472
 20
-15.7235486111111
 10
7.460895644855251
 20
-15.7235486111111
 10
7.506416666666659
 20
-15.7235486111111
 10
7.550163698155706
 20
-15.69563333333334
 10
7.575844253062516
 20
-15.64606805555556
 10
7.575844253062516
 20
-15.64606805555556
 10
8.760462278692103
 20
-13.36259166666667
 10
8.760462278692103
 20
-13.36259166666667
 10
8.774358111674397
 20
-13.33589861111111
 10
8.79010116683225
 20
-13.30562361111111
 10
8.792298388998965
 20
-13.26335
 10
8.788740055755524
 20
-13.21233611111111
 10
8.76224700086924
 20
-13.17475694444445
 10
8.717663668662174
 20
-13.15750277777778
 10
8.6663011699597
 20
-13.13768888888889
 10
8.617309504530668
 20
-13.15135972222222
 10
8.580778949897951
 20
-13.19971388888889
 10
8.580778949897951
 20
-13.19971388888889
 10
7.36124148070606
 20
-15.53495277777778
 10
7.36124148070606
 20
-15.53495277777778
 10
7.344512314462008
 20
-15.56720000000001
 10
7.339767870137418
 20
-15.60269583333333
 10
7.347870647710502
 20
-15.63478194444445
 10
7.356272036387154
 20
-15.66789166666667
 10
7.377397035853492
 20
-15.69470833333334
 10
7.407460923982903
 20
-15.71022777777778
 97
        0
 97
        0
 75
     2
 76
     1
 98
        0
  0
SPLINE
  5
59
330
1F
100
AcDbEntity
  8
Layer 1
370
     0
100
AcDbSpline
210
0.0
220
0.0
230
1.0
 70
    11
 71
     3
 72
    32
 73
    28
 74
     0
 42
0.0000000001
 43
0.0000000001
 12
1.0
 22
0.0
 32
0.0
 13
1.0
 23
0.0
 33
0.0
 40
0.0
 40
0.0
 40
0.0
 40
0.0
 40
1.0
 40
1.0
 40
1.0
 40
2.0
 40
2.0
 40
2.0
 40
3.0
 40
3.0
 40
3.0
 40
4.0
 40
4.0
 40
4.0
 40
5.0
 40
5.0
 40
5.0
 40
6.0
 40
6.0
 40
6.0
 40
7.0
 40
7.0
 40
7.0
 40
8.0
 40
8.0
 40
8.0
 40
9.0
 40
9.0
 40
9.0
 40
9.0
 10
4.933765153140383
 20
-13.70626388888888
 30
0.0
 10
4.933765153140383
 20
-13.70626388888888
 30
0.0
 10
5.319473476729905
 20
-15.3191375
 30
0.0
 10
5.319473476729905
 20
-15.3191375
 30
0.0
 10
5.319473476729905
 20
-15.3191375
 30
0.0
 10
5.319498476729273
 20
-15.3192
 30
0.0
 10
5.319498476729273
 20
-15.3192
 30
0.0
 10
5.326040143230683
 20
-15.34635555555556
 30
0.0
 10
5.345929031617136
 20
-15.42898055555555
 30
0.0
 10
5.441413751427212
 20
-15.4345361111111
 30
0.0
 10
5.498506805540475
 20
-15.43338750000001
 30
0.0
 10
5.538122082317487
 20
-15.40303611111112
 30
0.0
 10
5.555949859644898
 20
-15.34675416666667
 30
0.0
 10
5.566787359371119
 20
-15.31253333333334
 30
0.0
 10
5.55858458180056
 20
-15.28184583333334
 30
0.0
 10
5.551342915316834
 20
-15.25475416666667
 30
0.0
 10
5.551342915316834
 20
-15.25475416666667
 30
0.0
 10
5.161277777777778
 20
-13.61940555555556
 30
0.0
 10
5.161277777777778
 20
-13.61940555555556
 30
0.0
 10
5.141726258997955
 20
-13.54748055555555
 30
0.0
 10
5.080087371666195
 20
-13.50741666666666
 30
0.0
 10
5.01460403998711
 20
-13.52333472222222
 30
0.0
 10
4.949545708297288
 20
-13.53949027777778
 30
0.0
 10
4.914488764738457
 20
-13.60000416666667
 30
0.0
 10
4.927309597747908
 20
-13.67395277777777
 30
0.0
 10
4.929195708811372
 20
-13.68477777777778
 30
0.0
 10
4.931217930982509
 20
-13.69555138888889
 30
0.0
 10
4.933765153140383
 20
-13.70626388888888
 30
0.0
  0
HATCH
  5
5A
330
1F
100
AcDbEntity
  8
Layer 1
 62
     7
420
 16777215
100
AcDbHatch
 10
0.0
 20
0.0
 30
0.0
210
0.0
220
0.0
230
1.0
  2
SOLID
 70
     1
 71
     0
 91
        1
 92
        1
 93
        1
 72
     4
 94
        3
 73
     0
 74
     1
 95
       32
 96
       28
 40
0.0
 40
0.0
 40
0.0
 40
0.0
 40
1.0
 40
1.0
 40
1.0
 40
2.0
 40
2.0
 40
2.0
 40
3.0
 40
3.0
 40
3.0
 40
4.0
 40
4.0
 40
4.0
 40
5.0
 40
5.0
 40
5.0
 40
6.0
 40
6.0
 40
6.0
 40
7.0
 40
7.0
 40
7.0
 40
8.0
 40
8.0
 40
8.0
 40
9.0
 40
9.0
 40
9.0
 40
9.0
 10
4.933765153140383
 20
-13.70626388888888
 10
4.933765153140383
 20
-13.70626388888888
 10
5.319473476729905
 20
-15.3191375
 10
5.319473476729905
 20
-15.3191375
 10
5.319473476729905
 20
-15.3191375
 10
5.319498476729273
 20
-15.3192
 10
5.319498476729273
 20
-15.3192
 10
5.326040143230683
 20
-15.34635555555556
 10
5.345929031617136
 20
-15.42898055555555
 10
5.441413751427212
 20
-15.4345361111111
 10
5.498506805540475
 20
-15.43338750000001
 10
5.538122082317487
 20
-15.40303611111112
 10
5.555949859644898
 20
-15.34675416666667
 10
5.566787359371119
 20
-15.31253333333334
 10
5.55858458180056
 20
-15.28184583333334
 10
5.551342915316834
 20
-15.25475416666667
 10
5.551342915316834
 20
-15.25475416666667
 10
5.161277777777778
 20
-13.61940555555556
 10
5.161277777777778
 20
-13.61940555555556
 10
5.141726258997955
 20
-13.54748055555555
 10
5.080087371666195
 20
-13.50741666666666
 10
5.01460403998711
 20
-13.52333472222222
 10
4.949545708297288
 20
-13.53949027777778
 10
4.914488764738457
 20
-13.60000416666667
 10
4.927309597747908
 20
-13.67395277777777
 10
4.929195708811372
 20
-13.68477777777778
 10
4.931217930982509
 20
-13.69555138888889
 10
4.933765153140383
 20
-13.70626388888888
 97
        0
 97
        0
 75
     2
 76
     1
 98
        0
  0
SPLINE
  5
5B
330
1F
100
AcDbEntity
  8
Layer 1
370
     0
100
AcDbSpline
210
0.0
220
0.0
230
1.0
 70
    11
 71
     3
 72
    32
 73
    28
 74
     0
 42
0.0000000001
 43
0.0000000001
 12
1.0
 22
0.0
 32
0.0
 13
1.0
 23
0.0
 33
0.0
 40
0.0
 40
0.0
 40
0.0
 40
0.0
 40
1.0
 40
1.0
 40
1.0
 40
2.0
 40
2.0
 40
2.0
 40
3.0
 40
3.0
 40
3.0
 40
4.0
 40
4.0
 40
4.0
 40
5.0
 40
5.0
 40
5.0
 40
6.0
 40
6.0
 40
6.0
 40
7.0
 40
7.0
 40
7.0
 40
8.0
 40
8.0
 40
8.0
 40
9.0
 40
9.0
 40
9.0
 40
9.0
 10
2.748008263912804
 20
-14.86267777777778
 30
0.0
 10
2.748008263912804
 20
-14.86267777777778
 30
0.0
 10
3.888466568435736
 20
-16.06663472222222
 30
0.0
 10
3.888466568435736
 20
-16.06663472222222
 30
0.0
 10
3.902948512514336
 20
-16.08185277777778
 30
0.0
 10
3.939604067143894
 20
-16.12048194444444
 30
0.0
 10
3.993190176901306
 20
-16.12048194444444
 30
0.0
 10
4.010905454231558
 20
-16.12048194444444
 30
0.0
 10
4.030506842625274
 20
-16.11624861111111
 30
0.0
 10
4.051731842089086
 20
-16.1055375
 30
0.0
 10
4.100609618632108
 20
-16.07594722222223
 30
0.0
 10
4.119737395926677
 20
-16.02985416666666
 30
0.0
 10
4.107027777777779
 20
-15.97224861111111
 30
0.0
 10
4.099336007553171
 20
-15.93721527777777
 30
0.0
 10
4.076863785898644
 20
-15.91474305555555
 30
0.0
 10
4.057062397509981
 20
-15.89494166666667
 30
0.0
 10
4.057062397509981
 20
-15.89494166666667
 30
0.0
 10
2.901547148922974
 20
-14.67366805555556
 30
0.0
 10
2.901547148922974
 20
-14.67366805555556
 30
0.0
 10
2.848648539148194
 20
-14.62120694444444
 30
0.0
 10
2.775026318785826
 20
-14.6170375
 30
0.0
 10
2.726522153344477
 20
-14.66389305555555
 30
0.0
 10
2.678292987896182
 20
-14.7103875
 30
0.0
 10
2.678180555555552
 20
-14.78034027777778
 30
0.0
 10
2.726209653352372
 20
-14.83789444444445
 30
0.0
 10
2.733276319840519
 20
-14.84634722222222
 30
0.0
 10
2.740417986326773
 20
-14.8546875
 30
0.0
 10
2.748008263912804
 20
-14.86267777777778
 30
0.0
  0
HATCH
  5
5C
330
1F
100
AcDbEntity
  8
Layer 1
 62
     7
420
 16777215
100
AcDbHatch
 10
0.0
 20
0.0
 30
0.0
210
0.0
220
0.0
230
1.0
  2
SOLID
 70
     1
 71
     0
 91
        1
 92
        1
 93
        1
 72
     4
 94
        3
 73
     0
 74
     1
 95
       32
 96
       28
 40
0.0
 40
0.0
 40
0.0
 40
0.0
 40
1.0
 40
1.0
 40
1.0
 40
2.0
 40
2.0
 40
2.0
 40
3.0
 40
3.0
 40
3.0
 40
4.0
 40
4.0
 40
4.0
 40
5.0
 40
5.0
 40
5.0
 40
6.0
 40
6.0
 40
6.0
 40
7.0
 40
7.0
 40
7.0
 40
8.0
 40
8.0
 40
8.0
 40
9.0
 40
9.0
 40
9.0
 40
9.0
 10
2.748008263912804
 20
-14.86267777777778
 10
2.748008263912804
 20
-14.86267777777778
 10
3.888466568435736
 20
-16.06663472222222
 10
3.888466568435736
 20
-16.06663472222222
 10
3.902948512514336
 20
-16.08185277777778
 10
3.939604067143894
 20
-16.12048194444444
 10
3.993190176901306
 20
-16.12048194444444
 10
4.010905454231558
 20
-16.12048194444444
 10
4.030506842625274
 20
-16.11624861111111
 10
4.051731842089086
 20
-16.1055375
 10
4.100609618632108
 20
-16.07594722222223
 10
4.119737395926677
 20
-16.02985416666666
 10
4.107027777777779
 20
-15.97224861111111
 10
4.099336007553171
 20
-15.93721527777777
 10
4.076863785898644
 20
-15.91474305555555
 10
4.057062397509981
 20
-15.89494166666667
 10
4.057062397509981
 20
-15.89494166666667
 10
2.901547148922974
 20
-14.67366805555556
 10
2.901547148922974
 20
-14.67366805555556
 10
2.848648539148194
 20
-14.62120694444444
 10
2.775026318785826
 20
-14.6170375
 10
2.726522153344477
 20
-14.66389305555555
 10
2.678292987896182
 20
-14.7103875
 10
2.678180555555552
 20
-14.78034027777778
 10
2.726209653352372
 20
-14.83789444444445
 10
2.733276319840519
 20
-14.84634722222222
 10
2.740417986326773
 20
-14.8546875
 10
2.748008263912804
 20
-14.86267777777778
 97
        0
 97
        0
 75
     2
 76
     1
 98
        0
  0
SPLINE
  5
5D
330
1F
100
AcDbEntity
  8
Layer 1
370
     0
100
AcDbSpline
210
0.0
220
0.0
230
1.0
 70
    11
 71
     3
 72
    35
 73
    31
 74
     0
 42
0.0000000001
 43
0.0000000001
 12
1.0
 22
0.0
 32
0.0
 13
1.0
 23
0.0
 33
0.0
 40
0.0
 40
0.0
 40
0.0
 40
0.0
 40
1.0
 40
1.0
 40
1.0
 40
2.0
 40
2.0
 40
2.0
 40
3.0
 40
3.0
 40
3.0
 40
4.0
 40
4.0
 40
4.0
 40
5.0
 40
5.0
 40
5.0
 40
6.0
 40
6.0
 40
6.0
 40
7.0
 40
7.0
 40
7.0
 40
8.0
 40
8.0
 40
8.0
 40
9.0
 40
9.0
 40
9.0
 40
10.0
 40
10.0
 40
10.0
 40
10.0
 10
3.081017977722493
 20
-17.43926111111111
 30
0.0
 10
3.114202699106398
 20
-17.43926111111111
 30
0.0
 10
3.153317975896041
 20
-17.4279625
 30
0.0
 10
3.18258333333333
 20
-17.38350416666666
 30
0.0
 10
3.18258333333333
 20
-17.38350416666666
 30
0.0
 10
3.183769364015663
 20
-17.38153194444444
 30
0.0
 10
3.183769364015663
 20
-17.38153194444444
 30
0.0
 10
3.211336029985937
 20
-17.33150416666667
 30
0.0
 10
3.20484297459441
 20
-17.28198888888889
 30
0.0
 10
3.165004086711936
 20
-17.23844166666667
 30
0.0
 10
3.140808253989841
 20
-17.21192361111111
 30
0.0
 10
3.110083333333339
 20
-17.20370833333332
 30
0.0
 10
3.082990199894892
 20
-17.19646805555556
 30
0.0
 10
3.082990199894892
 20
-17.19646805555556
 30
0.0
 10
1.471701351710585
 20
-16.71654861111112
 30
0.0
 10
1.471701351710585
 20
-16.71654861111112
 30
0.0
 10
1.399788853527247
 20
-16.69755833333334
 30
0.0
 10
1.333893055555551
 20
-16.73074305555555
 30
0.0
 10
1.315241666666667
 20
-16.79552777777778
 30
0.0
 10
1.296713888888891
 20
-16.8599875
 30
0.0
 10
1.33157083333333
 20
-16.92066388888889
 30
0.0
 10
1.401961075694594
 20
-16.94643194444445
 30
0.0
 10
1.412286075433763
 20
-16.95025277777778
 30
0.0
 10
1.422686075171037
 20
-16.95389861111111
 30
0.0
 10
1.433223574904837
 20
-16.95703194444445
 30
0.0
 10
1.433223574904837
 20
-16.95703194444445
 30
0.0
 10
3.022913812523661
 20
-17.42947361111111
 30
0.0
 10
3.022913812523661
 20
-17.42947361111111
 30
0.0
 10
3.034437423343661
 20
-17.43289444444445
 30
0.0
 10
3.056036033909145
 20
-17.43926111111111
 30
0.0
 10
3.081017977722493
 20
-17.43926111111111
 30
0.0
  0
HATCH
  5
5E
330
1F
100
AcDbEntity
  8
Layer 1
 62
     7
420
 16777215
100
AcDbHatch
 10
0.0
 20
0.0
 30
0.0
210
0.0
220
0.0
230
1.0
  2
SOLID
 70
     1
 71
     0
 91
        1
 92
        1
 93
        1
 72
     4
 94
        3
 73
     0
 74
     1
 95
       35
 96
       31
 40
0.0
 40
0.0
 40
0.0
 40
0.0
 40
1.0
 40
1.0
 40
1.0
 40
2.0
 40
2.0
 40
2.0
 40
3.0
 40
3.0
 40
3.0
 40
4.0
 40
4.0
 40
4.0
 40
5.0
 40
5.0
 40
5.0
 40
6.0
 40
6.0
 40
6.0
 40
7.0
 40
7.0
 40
7.0
 40
8.0
 40
8.0
 40
8.0
 40
9.0
 40
9.0
 40
9.0
 40
10.0
 40
10.0
 40
10.0
 40
10.0
 10
3.081017977722493
 20
-17.43926111111111
 10
3.114202699106398
 20
-17.43926111111111
 10
3.153317975896041
 20
-17.4279625
 10
3.18258333333333
 20
-17.38350416666666
 10
3.18258333333333
 20
-17.38350416666666
 10
3.183769364015663
 20
-17.38153194444444
 10
3.183769364015663
 20
-17.38153194444444
 10
3.211336029985937
 20
-17.33150416666667
 10
3.20484297459441
 20
-17.28198888888889
 10
3.165004086711936
 20
-17.23844166666667
 10
3.140808253989841
 20
-17.21192361111111
 10
3.110083333333339
 20
-17.20370833333332
 10
3.082990199894892
 20
-17.19646805555556
 10
3.082990199894892
 20
-17.19646805555556
 10
1.471701351710585
 20
-16.71654861111112
 10
1.471701351710585
 20
-16.71654861111112
 10
1.399788853527247
 20
-16.69755833333334
 10
1.333893055555551
 20
-16.73074305555555
 10
1.315241666666667
 20
-16.79552777777778
 10
1.296713888888891
 20
-16.8599875
 10
1.33157083333333
 20
-16.92066388888889
 10
1.401961075694594
 20
-16.94643194444445
 10
1.412286075433763
 20
-16.95025277777778
 10
1.422686075171037
 20
-16.95389861111111
 10
1.433223574904837
 20
-16.95703194444445
 10
1.433223574904837
 20
-16.95703194444445
 10
3.022913812523661
 20
-17.42947361111111
 10
3.022913812523661
 20
-17.42947361111111
 10
3.034437423343661
 20
-17.43289444444445
 10
3.056036033909145
 20
-17.43926111111111
 10
3.081017977722493
 20
-17.43926111111111
 97
        0
 97
        0
 75
     2
 76
     1
 98
        0
  0
SPLINE
  5
5F
330
1F
100
AcDbEntity
  8
Layer 1
370
     0
100
AcDbSpline
210
0.0
220
0.0
230
1.0
 70
    11
 71
     3
 72
    32
 73
    28
 74
     0
 42
0.0000000001
 43
0.0000000001
 12
1.0
 22
0.0
 32
0.0
 13
1.0
 23
0.0
 33
0.0
 40
0.0
 40
0.0
 40
0.0
 40
0.0
 40
1.0
 40
1.0
 40
1.0
 40
2.0
 40
2.0
 40
2.0
 40
3.0
 40
3.0
 40
3.0
 40
4.0
 40
4.0
 40
4.0
 40
5.0
 40
5.0
 40
5.0
 40
6.0
 40
6.0
 40
6.0
 40
7.0
 40
7.0
 40
7.0
 40
8.0
 40
8.0
 40
8.0
 40
9.0
 40
9.0
 40
9.0
 40
9.0
 10
3.070069444444445
 20
-18.92058194444444
 30
0.0
 10
3.068920755805872
 20
-18.86342638888889
 30
0.0
 10
3.038544367684355
 20
-18.82382499999999
 30
0.0
 10
2.982262424661712
 20
-18.80598333333334
 30
0.0
 10
2.948041666666667
 20
-18.79509722222221
 30
0.0
 10
2.917465204076406
 20
-18.80332500000001
 30
0.0
 10
2.890448538092237
 20
-18.81061527777777
 30
0.0
 10
2.890448538092237
 20
-18.81061527777777
 30
0.0
 10
1.254901388888887
 20
-19.20071944444445
 30
0.0
 10
1.254901388888887
 20
-19.20071944444445
 30
0.0
 10
1.183013888888884
 20
-19.22029583333334
 30
0.0
 10
1.142625000000003
 20
-19.28195833333332
 30
0.0
 10
1.158905555555558
 20
-19.34734166666665
 30
0.0
 10
1.172826388888893
 20
-19.40344861111112
 30
0.0
 10
1.219756944444447
 20
-19.43725833333332
 30
0.0
 10
1.279772222222227
 20
-19.43725833333332
 30
0.0
 10
1.289334722222217
 20
-19.43725833333332
 30
0.0
 10
1.299261111111112
 20
-19.43639583333334
 30
0.0
 10
1.309423611111116
 20
-19.4346611111111
 30
0.0
 10
1.320222222222216
 20
-19.43279999999999
 30
0.0
 10
1.331047222222221
 20
-19.43077777777777
 30
0.0
 10
1.341820833333334
 20
-19.42823055555555
 30
0.0
 10
1.341820833333334
 20
-19.42823055555555
 30
0.0
 10
2.954733258690491
 20
-19.04247222222221
 30
0.0
 10
2.954733258690491
 20
-19.04247222222221
 30
0.0
 10
2.981887424671186
 20
-19.03593055555555
 30
0.0
 10
3.064574922582324
 20
-19.01600416666666
 30
0.0
 10
3.070069444444445
 20
-18.92058194444444
 30
0.0
  0
HATCH
  5
60
330
1F
100
AcDbEntity
  8
Layer 1
 62
     7
420
 16777215
100
AcDbHatch
 10
0.0
 20
0.0
 30
0.0
210
0.0
220
0.0
230
1.0
  2
SOLID
 70
     1
 71
     0
 91
        1
 92
        1
 93
        1
 72
     4
 94
        3
 73
     0
 74
     1
 95
       32
 96
       28
 40
0.0
 40
0.0
 40
0.0
 40
0.0
 40
1.0
 40
1.0
 40
1.0
 40
2.0
 40
2.0
 40
2.0
 40
3.0
 40
3.0
 40
3.0
 40
4.0
 40
4.0
 40
4.0
 40
5.0
 40
5.0
 40
5.0
 40
6.0
 40
6.0
 40
6.0
 40
7.0
 40
7.0
 40
7.0
 40
8.0
 40
8.0
 40
8.0
 40
9.0
 40
9.0
 40
9.0
 40
9.0
 10
3.070069444444445
 20
-18.92058194444444
 10
3.068920755805872
 20
-18.86342638888889
 10
3.038544367684355
 20
-18.82382499999999
 10
2.982262424661712
 20
-18.80598333333334
 10
2.948041666666667
 20
-18.79509722222221
 10
2.917465204076406
 20
-18.80332500000001
 10
2.890448538092237
 20
-18.81061527777777
 10
2.890448538092237
 20
-18.81061527777777
 10
1.254901388888887
 20
-19.20071944444445
 10
1.254901388888887
 20
-19.20071944444445
 10
1.183013888888884
 20
-19.22029583333334
 10
1.142625000000003
 20
-19.28195833333332
 10
1.158905555555558
 20
-19.34734166666665
 10
1.172826388888893
 20
-19.40344861111112
 10
1.219756944444447
 20
-19.43725833333332
 10
1.279772222222227
 20
-19.43725833333332
 10
1.289334722222217
 20
-19.43725833333332
 10
1.299261111111112
 20
-19.43639583333334
 10
1.309423611111116
 20
-19.4346611111111
 10
1.320222222222216
 20
-19.43279999999999
 10
1.331047222222221
 20
-19.43077777777777
 10
1.341820833333334
 20
-19.42823055555555
 10
1.341820833333334
 20
-19.42823055555555
 10
2.954733258690491
 20
-19.04247222222221
 10
2.954733258690491
 20
-19.04247222222221
 10
2.981887424671186
 20
-19.03593055555555
 10
3.064574922582324
 20
-19.01600416666666
 10
3.070069444444445
 20
-18.92058194444444
 97
        0
 97
        0
 75
     2
 76
     1
 98
        0
  0
SPLINE
  5
61
330
1F
100
AcDbEntity
  8
Layer 1
370
     0
100
AcDbSpline
210
0.0
220
0.0
230
1.0
 70
    11
 71
     3
 72
    35
 73
    31
 74
     0
 42
0.0000000001
 43
0.0000000001
 12
1.0
 22
0.0
 32
0.0
 13
1.0
 23
0.0
 33
0.0
 40
0.0
 40
0.0
 40
0.0
 40
0.0
 40
1.0
 40
1.0
 40
1.0
 40
2.0
 40
2.0
 40
2.0
 40
3.0
 40
3.0
 40
3.0
 40
4.0
 40
4.0
 40
4.0
 40
5.0
 40
5.0
 40
5.0
 40
6.0
 40
6.0
 40
6.0
 40
7.0
 40
7.0
 40
7.0
 40
8.0
 40
8.0
 40
8.0
 40
9.0
 40
9.0
 40
9.0
 40
10.0
 40
10.0
 40
10.0
 40
10.0
 10
3.741106849936134
 20
-20.31023888888889
 30
0.0
 10
3.711542961794091
 20
-20.26129861111111
 30
0.0
 10
3.665398518515353
 20
-20.24237222222223
 30
0.0
 10
3.607780464415352
 20
-20.25493194444445
 30
0.0
 10
3.572773520855258
 20
-20.26269722222221
 30
0.0
 10
3.550337410310931
 20
-20.28510694444445
 30
0.0
 10
3.530499999999999
 20
-20.30484583333332
 30
0.0
 10
3.530499999999999
 20
-20.30484583333332
 30
0.0
 10
2.309201330553555
 20
-21.46039861111111
 30
0.0
 10
2.309201330553555
 20
-21.46039861111111
 30
0.0
 10
2.256740220767723
 20
-21.51332222222221
 30
0.0
 10
2.252606887538807
 20
-21.58692083333333
 30
0.0
 10
2.299388888888883
 20
-21.63549861111111
 30
0.0
 10
2.32272222222222
 20
-21.65964444444444
 30
0.0
 10
2.351912440585693
 20
-21.67169305555555
 30
0.0
 10
2.382449939814251
 20
-21.67169305555555
 30
0.0
 10
2.412913827933557
 20
-21.67169305555555
 30
0.0
 10
2.444737438240736
 20
-21.65970694444445
 30
0.0
 10
2.473452715293105
 20
-21.63572361111111
 30
0.0
 10
2.473452715293105
 20
-21.63572361111111
 30
0.0
 10
2.473477715292473
 20
-21.63572361111111
 30
0.0
 10
2.473477715292473
 20
-21.63572361111111
 30
0.0
 10
2.4819429928564
 20
-21.62866944444444
 30
0.0
 10
2.490306881533999
 20
-21.62154166666667
 30
0.0
 10
2.49821104800099
 20
-21.61401249999999
 30
0.0
 10
2.49821104800099
 20
-21.61401249999999
 30
0.0
 10
3.702166666666661
 20
-20.47346666666666
 30
0.0
 10
3.702166666666661
 20
-20.47346666666666
 30
0.0
 10
3.72243055555556
 20
-20.45424027777777
 30
0.0
 10
3.784067959961956
 20
-20.3956486111111
 30
0.0
 10
3.741106849936134
 20
-20.31023888888889
 30
0.0
  0
HATCH
  5
62
330
1F
100
AcDbEntity
  8
Layer 1
 62
     7
420
 16777215
100
AcDbHatch
 10
0.0
 20
0.0
 30
0.0
210
0.0
220
0.0
230
1.0
  2
SOLID
 70
     1
 71
     0
 91
        1
 92
        1
 93
        1
 72
     4
 94
        3
 73
     0
 74
     1
 95
       35
 96
       31
 40
0.0
 40
0.0
 40
0.0
 40
0.0
 40
1.0
 40
1.0
 40
1.0
 40
2.0
 40
2.0
 40
2.0
 40
3.0
 40
3.0
 40
3.0
 40
4.0
 40
4.0
 40
4.0
 40
5.0
 40
5.0
 40
5.0
 40
6.0
 40
6.0
 40
6.0
 40
7.0
 40
7.0
 40
7.0
 40
8.0
 40
8.0
 40
8.0
 40
9.0
 40
9.0
 40
9.0
 40
10.0
 40
10.0
 40
10.0
 40
10.0
 10
3.741106849936134
 20
-20.31023888888889
 10
3.711542961794091
 20
-20.26129861111111
 10
3.665398518515353
 20
-20.24237222222223
 10
3.607780464415352
 20
-20.25493194444445
 10
3.572773520855258
 20
-20.26269722222221
 10
3.550337410310931
 20
-20.28510694444445
 10
3.530499999999999
 20
-20.30484583333332
 10
3.530499999999999
 20
-20.30484583333332
 10
2.309201330553555
 20
-21.46039861111111
 10
2.309201330553555
 20
-21.46039861111111
 10
2.256740220767723
 20
-21.51332222222221
 10
2.252606887538807
 20
-21.58692083333333
 10
2.299388888888883
 20
-21.63549861111111
 10
2.32272222222222
 20
-21.65964444444444
 10
2.351912440585693
 20
-21.67169305555555
 10
2.382449939814251
 20
-21.67169305555555
 10
2.412913827933557
 20
-21.67169305555555
 10
2.444737438240736
 20
-21.65970694444445
 10
2.473452715293105
 20
-21.63572361111111
 10
2.473452715293105
 20
-21.63572361111111
 10
2.473477715292473
 20
-21.63572361111111
 10
2.473477715292473
 20
-21.63572361111111
 10
2.4819429928564
 20
-21.62866944444444
 10
2.490306881533999
 20
-21.62154166666667
 10
2.49821104800099
 20
-21.61401249999999
 10
2.49821104800099
 20
-21.61401249999999
 10
3.702166666666661
 20
-20.47346666666666
 10
3.702166666666661
 20
-20.47346666666666
 10
3.72243055555556
 20
-20.45424027777777
 10
3.784067959961956
 20
-20.3956486111111
 10
3.741106849936134
 20
-20.31023888888889
 97
        0
 97
        0
 75
     2
 76
     1
 98
        0
  0
SPLINE
  5
63
330
1F
100
AcDbEntity
  8
Layer 1
370
     0
100
AcDbSpline
210
0.0
220
0.0
230
1.0
 70
    11
 71
     3
 72
    32
 73
    28
 74
     0
 42
0.0000000001
 43
0.0000000001
 12
1.0
 22
0.0
 32
0.0
 13
1.0
 23
0.0
 33
0.0
 40
0.0
 40
0.0
 40
0.0
 40
0.0
 40
1.0
 40
1.0
 40
1.0
 40
2.0
 40
2.0
 40
2.0
 40
3.0
 40
3.0
 40
3.0
 40
4.0
 40
4.0
 40
4.0
 40
5.0
 40
5.0
 40
5.0
 40
6.0
 40
6.0
 40
6.0
 40
7.0
 40
7.0
 40
7.0
 40
8.0
 40
8.0
 40
8.0
 40
9.0
 40
9.0
 40
9.0
 40
9.0
 10
5.017088762146563
 20
-21.17816527777778
 30
0.0
 10
4.967062374521447
 20
-21.1506611111111
 30
0.0
 10
4.91754709799453
 20
-21.15715277777779
 30
0.0
 10
4.873974876873035
 20
-21.19692916666668
 30
0.0
 10
4.847519321985803
 20
-21.22113749999999
 30
0.0
 10
4.839266544416508
 20
-21.25182638888888
 30
0.0
 10
4.832000000000006
 20
-21.27891805555555
 30
0.0
 10
4.832000000000006
 20
-21.27891805555555
 30
0.0
 10
4.352117945611806
 20
-22.89023194444444
 30
0.0
 10
4.352117945611806
 20
-22.89023194444444
 30
0.0
 10
4.333091557203564
 20
-22.96233194444443
 30
0.0
 10
4.366326278586206
 20
-23.02810277777778
 30
0.0
 10
4.431147110282028
 20
-23.04669305555555
 30
0.0
 10
4.442670721102028
 20
-23.04998888888889
 30
0.0
 10
4.454058220814355
 20
-23.05161111111111
 30
0.0
 10
4.465169331644776
 20
-23.05161111111111
 30
0.0
 10
4.516131830357355
 20
-23.05161111111111
 30
0.0
 10
4.560804051451062
 20
-23.01774027777777
 30
0.0
 10
4.582052662025388
 20
-22.95989722222223
 30
0.0
 10
4.585823495263463
 20
-22.94958472222222
 30
0.0
 10
4.589431828505641
 20
-22.93922222222222
 30
0.0
 10
4.592590161759189
 20
-22.92874722222223
 30
0.0
 10
4.592590161759189
 20
-22.92874722222223
 30
0.0
 10
5.065006816491606
 20
-21.33902083333333
 30
0.0
 10
5.065006816491606
 20
-21.33902083333333
 30
0.0
 10
5.072947094068796
 20
-21.31221527777777
 30
0.0
 10
5.097055555555559
 20
-21.23068888888888
 30
0.0
 10
5.017088762146563
 20
-21.17816527777778
 30
0.0
  0
HATCH
  5
64
330
1F
100
AcDbEntity
  8
Layer 1
 62
     7
420
 16777215
100
AcDbHatch
 10
0.0
 20
0.0
 30
0.0
210
0.0
220
0.0
230
1.0
  2
SOLID
 70
     1
 71
     0
 91
        1
 92
        1
 93
        1
 72
     4
 94
        3
 73
     0
 74
     1
 95
       32
 96
       28
 40
0.0
 40
0.0
 40
0.0
 40
0.0
 40
1.0
 40
1.0
 40
1.0
 40
2.0
 40
2.0
 40
2.0
 40
3.0
 40
3.0
 40
3.0
 40
4.0
 40
4.0
 40
4.0
 40
5.0
 40
5.0
 40
5.0
 40
6.0
 40
6.0
 40
6.0
 40
7.0
 40
7.0
 40
7.0
 40
8.0
 40
8.0
 40
8.0
 40
9.0
 40
9.0
 40
9.0
 40
9.0
 10
5.017088762146563
 20
-21.17816527777778
 10
4.967062374521447
 20
-21.1506611111111
 10
4.91754709799453
 20
-21.15715277777779
 10
4.873974876873035
 20
-21.19692916666668
 10
4.847519321985803
 20
-21.22113749999999
 10
4.839266544416508
 20
-21.25182638888888
 10
4.832000000000006
 20
-21.27891805555555
 10
4.832000000000006
 20
-21.27891805555555
 10
4.352117945611806
 20
-22.89023194444444
 10
4.352117945611806
 20
-22.89023194444444
 10
4.333091557203564
 20
-22.96233194444443
 10
4.366326278586206
 20
-23.02810277777778
 10
4.431147110282028
 20
-23.04669305555555
 10
4.442670721102028
 20
-23.04998888888889
 10
4.454058220814355
 20
-23.05161111111111
 10
4.465169331644776
 20
-23.05161111111111
 10
4.516131830357355
 20
-23.05161111111111
 10
4.560804051451062
 20
-23.01774027777777
 10
4.582052662025388
 20
-22.95989722222223
 10
4.585823495263463
 20
-22.94958472222222
 10
4.589431828505641
 20
-22.93922222222222
 10
4.592590161759189
 20
-22.92874722222223
 10
4.592590161759189
 20
-22.92874722222223
 10
5.065006816491606
 20
-21.33902083333333
 10
5.065006816491606
 20
-21.33902083333333
 10
5.072947094068796
 20
-21.31221527777777
 10
5.097055555555559
 20
-21.23068888888888
 10
5.017088762146563
 20
-21.17816527777778
 97
        0
 97
        0
 75
     2
 76
     1
 98
        0
  0
SPLINE
  5
65
330
1F
100
AcDbEntity
  8
Layer 1
370
     0
100
AcDbSpline
210
0.0
220
0.0
230
1.0
 70
    11
 71
     3
 72
    35
 73
    31
 74
     0
 42
0.0000000001
 43
0.0000000001
 12
1.0
 22
0.0
 32
0.0
 13
1.0
 23
0.0
 33
0.0
 40
0.0
 40
0.0
 40
0.0
 40
0.0
 40
1.0
 40
1.0
 40
1.0
 40
2.0
 40
2.0
 40
2.0
 40
3.0
 40
3.0
 40
3.0
 40
4.0
 40
4.0
 40
4.0
 40
5.0
 40
5.0
 40
5.0
 40
6.0
 40
6.0
 40
6.0
 40
7.0
 40
7.0
 40
7.0
 40
8.0
 40
8.0
 40
8.0
 40
9.0
 40
9.0
 40
9.0
 40
10.0
 40
10.0
 40
10.0
 40
10.0
 10
7.063738710443835
 20
-23.02017500000001
 30
0.0
 10
7.063738710443835
 20
-23.02017500000001
 30
0.0
 10
6.678030386854314
 20
-21.4073
 30
0.0
 10
6.678030386854314
 20
-21.4073
 30
0.0
 10
6.678030386854314
 20
-21.4073
 30
0.0
 10
6.678005386854945
 20
-21.40723749999999
 30
0.0
 10
6.678005386854945
 20
-21.40723749999999
 30
0.0
 10
6.671463720353535
 20
-21.38008333333333
 30
0.0
 10
6.651537331968029
 20
-21.29733333333332
 30
0.0
 10
6.556115112156375
 20
-21.29189027777779
 30
0.0
 10
6.498984558044058
 20
-21.2930513888889
 30
0.0
 10
6.459381781266731
 20
-21.32338888888888
 30
0.0
 10
6.441516503940268
 20
-21.37973333333333
 30
0.0
 10
6.430741504212468
 20
-21.41395416666667
 30
0.0
 10
6.438944444444435
 20
-21.44459305555556
 30
0.0
 10
6.446173448267068
 20
-21.47168472222223
 30
0.0
 10
6.446173448267068
 20
-21.47168472222223
 30
0.0
 10
6.836251216190653
 20
-23.10703194444444
 30
0.0
 10
6.836251216190653
 20
-23.10703194444444
 30
0.0
 10
6.852869271326401
 20
-23.16829583333333
 30
0.0
 10
6.900099825688812
 20
-23.20668611111111
 30
0.0
 10
6.954172046545055
 20
-23.20668611111111
 30
0.0
 10
6.963584546307275
 20
-23.20668611111111
 30
0.0
 10
6.973198434953296
 20
-23.20546249999999
 30
0.0
 10
6.982923434707622
 20
-23.20309027777777
 30
0.0
 10
7.047958333333327
 20
-23.18688611111111
 30
0.0
 10
7.083015098845761
 20
-23.12630833333333
 30
0.0
 10
7.070194444444446
 20
-23.05248611111112
 30
0.0
 10
7.068308154772845
 20
-23.04166111111113
 30
0.0
 10
7.066285932601708
 20
-23.0308861111111
 30
0.0
 10
7.063738710443835
 20
-23.02017500000001
 30
0.0
  0
HATCH
  5
66
330
1F
100
AcDbEntity
  8
Layer 1
 62
     7
420
 16777215
100
AcDbHatch
 10
0.0
 20
0.0
 30
0.0
210
0.0
220
0.0
230
1.0
  2
SOLID
 70
     1
 71
     0
 91
        1
 92
        1
 93
        1
 72
     4
 94
        3
 73
     0
 74
     1
 95
       35
 96
       31
 40
0.0
 40
0.0
 40
0.0
 40
0.0
 40
1.0
 40
1.0
 40
1.0
 40
2.0
 40
2.0
 40
2.0
 40
3.0
 40
3.0
 40
3.0
 40
4.0
 40
4.0
 40
4.0
 40
5.0
 40
5.0
 40
5.0
 40
6.0
 40
6.0
 40
6.0
 40
7.0
 40
7.0
 40
7.0
 40
8.0
 40
8.0
 40
8.0
 40
9.0
 40
9.0
 40
9.0
 40
10.0
 40
10.0
 40
10.0
 40
10.0
 10
7.063738710443835
 20
-23.02017500000001
 10
7.063738710443835
 20
-23.02017500000001
 10
6.678030386854314
 20
-21.4073
 10
6.678030386854314
 20
-21.4073
 10
6.678030386854314
 20
-21.4073
 10
6.678005386854945
 20
-21.40723749999999
 10
6.678005386854945
 20
-21.40723749999999
 10
6.671463720353535
 20
-21.38008333333333
 10
6.651537331968029
 20
-21.29733333333332
 10
6.556115112156375
 20
-21.29189027777779
 10
6.498984558044058
 20
-21.2930513888889
 10
6.459381781266731
 20
-21.32338888888888
 10
6.441516503940268
 20
-21.37973333333333
 10
6.430741504212468
 20
-21.41395416666667
 10
6.438944444444435
 20
-21.44459305555556
 10
6.446173448267068
 20
-21.47168472222223
 10
6.446173448267068
 20
-21.47168472222223
 10
6.836251216190653
 20
-23.10703194444444
 10
6.836251216190653
 20
-23.10703194444444
 10
6.852869271326401
 20
-23.16829583333333
 10
6.900099825688812
 20
-23.20668611111111
 10
6.954172046545055
 20
-23.20668611111111
 10
6.963584546307275
 20
-23.20668611111111
 10
6.973198434953296
 20
-23.20546249999999
 10
6.982923434707622
 20
-23.20309027777777
 10
7.047958333333327
 20
-23.18688611111111
 10
7.083015098845761
 20
-23.12630833333333
 10
7.070194444444446
 20
-23.05248611111112
 10
7.068308154772845
 20
-23.04166111111113
 10
7.066285932601708
 20
-23.0308861111111
 10
7.063738710443835
 20
-23.02017500000001
 97
        0
 97
        0
 75
     2
 76
     1
 98
        0
  0
SPLINE
  5
67
330
1F
100
AcDbEntity
  8
Layer 1
370
     0
100
AcDbSpline
210
0.0
220
0.0
230
1.0
 70
    11
 71
     3
 72
    32
 73
    28
 74
     0
 42
0.0000000001
 43
0.0000000001
 12
1.0
 22
0.0
 32
0.0
 13
1.0
 23
0.0
 33
0.0
 40
0.0
 40
0.0
 40
0.0
 40
0.0
 40
1.0
 40
1.0
 40
1.0
 40
2.0
 40
2.0
 40
2.0
 40
3.0
 40
3.0
 40
3.0
 40
4.0
 40
4.0
 40
4.0
 40
5.0
 40
5.0
 40
5.0
 40
6.0
 40
6.0
 40
6.0
 40
7.0
 40
7.0
 40
7.0
 40
8.0
 40
8.0
 40
8.0
 40
9.0
 40
9.0
 40
9.0
 40
9.0
 10
9.249520599670783
 20
-21.86376111111111
 30
0.0
 10
9.249520599670783
 20
-21.86376111111111
 30
0.0
 10
8.109024795148798
 20
-20.65974166666665
 30
0.0
 10
8.109024795148798
 20
-20.65974166666665
 30
0.0
 10
8.089748406746871
 20
-20.63947916666666
 30
0.0
 10
8.031094241561934
 20
-20.57799027777777
 30
0.0
 10
7.945772021495132
 20
-20.62083888888888
 30
0.0
 10
7.896869244952742
 20
-20.65042777777777
 30
0.0
 10
7.877753967657857
 20
-20.69650972222222
 30
0.0
 10
7.890463689559005
 20
-20.75412777777776
 30
0.0
 10
7.898192856030416
 20
-20.78922222222223
 30
0.0
 10
7.920665077684943
 20
-20.81168333333332
 30
0.0
 10
7.940528966072027
 20
-20.83154722222222
 30
0.0
 10
7.940528966072027
 20
-20.83154722222222
 30
0.0
 10
9.095981714660612
 20
-22.05281944444444
 30
0.0
 10
9.095981714660612
 20
-22.05281944444444
 30
0.0
 10
9.124296991723087
 20
-22.0808486111111
 30
0.0
 10
9.158517824191929
 20
-22.09509305555556
 30
0.0
 10
9.191640045577413
 20
-22.09509305555556
 30
0.0
 10
9.220455322627256
 20
-22.09509305555556
 30
0.0
 10
9.248446988586794
 20
-22.08431944444444
 30
0.0
 10
9.270969210240056
 20
-22.06254583333333
 30
0.0
 10
9.319210875688036
 20
-22.01605138888888
 30
0.0
 10
9.319323375685194
 20
-21.94609861111111
 30
0.0
 10
9.271256710232793
 20
-21.88848055555556
 30
0.0
 10
9.264227543743699
 20
-21.88009166666666
 30
0.0
 10
9.257073377257761
 20
-21.8717513888889
 30
0.0
 10
9.249520599670783
 20
-21.86376111111111
 30
0.0
  0
HATCH
  5
68
330
1F
100
AcDbEntity
  8
Layer 1
 62
     7
420
 16777215
100
AcDbHatch
 10
0.0
 20
0.0
 30
0.0
210
0.0
220
0.0
230
1.0
  2
SOLID
 70
     1
 71
     0
 91
        1
 92
        1
 93
        1
 72
     4
 94
        3
 73
     0
 74
     1
 95
       32
 96
       28
 40
0.0
 40
0.0
 40
0.0
 40
0.0
 40
1.0
 40
1.0
 40
1.0
 40
2.0
 40
2.0
 40
2.0
 40
3.0
 40
3.0
 40
3.0
 40
4.0
 40
4.0
 40
4.0
 40
5.0
 40
5.0
 40
5.0
 40
6.0
 40
6.0
 40
6.0
 40
7.0
 40
7.0
 40
7.0
 40
8.0
 40
8.0
 40
8.0
 40
9.0
 40
9.0
 40
9.0
 40
9.0
 10
9.249520599670783
 20
-21.86376111111111
 10
9.249520599670783
 20
-21.86376111111111
 10
8.109024795148798
 20
-20.65974166666665
 10
8.109024795148798
 20
-20.65974166666665
 10
8.089748406746871
 20
-20.63947916666666
 10
8.031094241561934
 20
-20.57799027777777
 10
7.945772021495132
 20
-20.62083888888888
 10
7.896869244952742
 20
-20.65042777777777
 10
7.877753967657857
 20
-20.69650972222222
 10
7.890463689559005
 20
-20.75412777777776
 10
7.898192856030416
 20
-20.78922222222223
 10
7.920665077684943
 20
-20.81168333333332
 10
7.940528966072027
 20
-20.83154722222222
 10
7.940528966072027
 20
-20.83154722222222
 10
9.095981714660612
 20
-22.05281944444444
 10
9.095981714660612
 20
-22.05281944444444
 10
9.124296991723087
 20
-22.0808486111111
 10
9.158517824191929
 20
-22.09509305555556
 10
9.191640045577413
 20
-22.09509305555556
 10
9.220455322627256
 20
-22.09509305555556
 10
9.248446988586794
 20
-22.08431944444444
 10
9.270969210240056
 20
-22.06254583333333
 10
9.319210875688036
 20
-22.01605138888888
 10
9.319323375685194
 20
-21.94609861111111
 10
9.271256710232793
 20
-21.88848055555556
 10
9.264227543743699
 20
-21.88009166666666
 10
9.257073377257761
 20
-21.8717513888889
 10
9.249520599670783
 20
-21.86376111111111
 97
        0
 97
        0
 75
     2
 76
     1
 98
        0
  0
SPLINE
  5
69
330
1F
100
AcDbEntity
  8
Layer 1
370
     0
100
AcDbSpline
210
0.0
220
0.0
230
1.0
 70
    11
 71
     3
 72
    35
 73
    31
 74
     0
 42
0.0000000001
 43
0.0000000001
 12
1.0
 22
0.0
 32
0.0
 13
1.0
 23
0.0
 33
0.0
 40
0.0
 40
0.0
 40
0.0
 40
0.0
 40
1.0
 40
1.0
 40
1.0
 40
2.0
 40
2.0
 40
2.0
 40
3.0
 40
3.0
 40
3.0
 40
4.0
 40
4.0
 40
4.0
 40
5.0
 40
5.0
 40
5.0
 40
6.0
 40
6.0
 40
6.0
 40
7.0
 40
7.0
 40
7.0
 40
8.0
 40
8.0
 40
8.0
 40
9.0
 40
9.0
 40
9.0
 40
10.0
 40
10.0
 40
10.0
 40
10.0
 10
8.81497061064844
 20
-19.34287222222222
 30
0.0
 10
8.81497061064844
 20
-19.34287222222222
 30
0.0
 10
8.813759499567924
 20
-19.34484444444443
 30
0.0
 10
8.813759499567924
 20
-19.34484444444443
 30
0.0
 10
8.786217833597018
 20
-19.39487222222222
 30
0.0
 10
8.792710888988545
 20
-19.44438611111112
 30
0.0
 10
8.83252477687165
 20
-19.48804583333334
 30
0.0
 10
8.856783109592167
 20
-19.5145013888889
 30
0.0
 10
8.887495608816304
 20
-19.52272916666667
 30
0.0
 10
8.914599774798262
 20
-19.52997083333333
 30
0.0
 10
8.914599774798262
 20
-19.52997083333333
 30
0.0
 10
10.52580251187363
 20
-20.00982777777777
 30
0.0
 10
10.52580251187363
 20
-20.00982777777777
 30
0.0
 10
10.53941084486319
 20
-20.0134111111111
 30
0.0
 10
10.55280667785812
 20
-20.01514583333334
 30
0.0
 10
10.56569139975484
 20
-20.01514583333334
 30
0.0
 10
10.62102473169034
 20
-20.01514583333334
 30
0.0
 10
10.66716778608022
 20
-19.98335972222223
 30
0.0
 10
10.68224999999999
 20
-19.93089861111111
 30
0.0
 10
10.70079000745308
 20
-19.86645138888889
 30
0.0
 10
10.66593306388919
 20
-19.8057625
 30
0.0
 10
10.59554278788962
 20
-19.78000555555557
 30
0.0
 10
10.58520528815077
 20
-19.77617222222223
 30
0.0
 10
10.57481778841318
 20
-19.77247777777777
 30
0.0
 10
10.56428028867938
 20
-19.76934305555556
 30
0.0
 10
10.56428028867938
 20
-19.76934305555556
 30
0.0
 10
8.974590051060558
 20
-19.29696527777777
 30
0.0
 10
8.974590051060558
 20
-19.29696527777777
 30
0.0
 10
8.947773385071336
 20
-19.28902500000001
 30
0.0
 10
8.866196998243241
 20
-19.26487916666666
 30
0.0
 10
8.81497061064844
 20
-19.34287222222222
 30
0.0
  0
HATCH
  5
6A
330
1F
100
AcDbEntity
  8
Layer 1
 62
     7
420
 16777215
100
AcDbHatch
 10
0.0
 20
0.0
 30
0.0
210
0.0
220
0.0
230
1.0
  2
SOLID
 70
     1
 71
     0
 91
        1
 92
        1
 93
        1
 72
     4
 94
        3
 73
     0
 74
     1
 95
       35
 96
       31
 40
0.0
 40
0.0
 40
0.0
 40
0.0
 40
1.0
 40
1.0
 40
1.0
 40
2.0
 40
2.0
 40
2.0
 40
3.0
 40
3.0
 40
3.0
 40
4.0
 40
4.0
 40
4.0
 40
5.0
 40
5.0
 40
5.0
 40
6.0
 40
6.0
 40
6.0
 40
7.0
 40
7.0
 40
7.0
 40
8.0
 40
8.0
 40
8.0
 40
9.0
 40
9.0
 40
9.0
 40
10.0
 40
10.0
 40
10.0
 40
10.0
 10
8.81497061064844
 20
-19.34287222222222
 10
8.81497061064844
 20
-19.34287222222222
 10
8.813759499567924
 20
-19.34484444444443
 10
8.813759499567924
 20
-19.34484444444443
 10
8.786217833597018
 20
-19.39487222222222
 10
8.792710888988545
 20
-19.44438611111112
 10
8.83252477687165
 20
-19.48804583333334
 10
8.856783109592167
 20
-19.5145013888889
 10
8.887495608816304
 20
-19.52272916666667
 10
8.914599774798262
 20
-19.52997083333333
 10
8.914599774798262
 20
-19.52997083333333
 10
10.52580251187363
 20
-20.00982777777777
 10
10.52580251187363
 20
-20.00982777777777
 10
10.53941084486319
 20
-20.0134111111111
 10
10.55280667785812
 20
-20.01514583333334
 10
10.56569139975484
 20
-20.01514583333334
 10
10.62102473169034
 20
-20.01514583333334
 10
10.66716778608022
 20
-19.98335972222223
 10
10.68224999999999
 20
-19.93089861111111
 10
10.70079000745308
 20
-19.86645138888889
 10
10.66593306388919
 20
-19.8057625
 10
10.59554278788962
 20
-19.78000555555557
 10
10.58520528815077
 20
-19.77617222222223
 10
10.57481778841318
 20
-19.77247777777777
 10
10.56428028867938
 20
-19.76934305555556
 10
10.56428028867938
 20
-19.76934305555556
 10
8.974590051060558
 20
-19.29696527777777
 10
8.974590051060558
 20
-19.29696527777777
 10
8.947773385071336
 20
-19.28902500000001
 10
8.866196998243241
 20
-19.26487916666666
 10
8.81497061064844
 20
-19.34287222222222
 97
        0
 97
        0
 75
     2
 76
     1
 98
        0
  0
SPLINE
  5
6B
330
1F
100
AcDbEntity
  8
Layer 1
370
     0
100
AcDbSpline
210
0.0
220
0.0
230
1.0
 70
    11
 71
     3
 72
    32
 73
    28
 74
     0
 42
0.0000000001
 43
0.0000000001
 12
1.0
 22
0.0
 32
0.0
 13
1.0
 23
0.0
 33
0.0
 40
0.0
 40
0.0
 40
0.0
 40
0.0
 40
1.0
 40
1.0
 40
1.0
 40
2.0
 40
2.0
 40
2.0
 40
3.0
 40
3.0
 40
3.0
 40
4.0
 40
4.0
 40
4.0
 40
5.0
 40
5.0
 40
5.0
 40
6.0
 40
6.0
 40
6.0
 40
7.0
 40
7.0
 40
7.0
 40
8.0
 40
8.0
 40
8.0
 40
9.0
 40
9.0
 40
9.0
 40
9.0
 10
9.015203938923452
 20
-17.92039166666667
 30
0.0
 10
9.027138888888885
 20
-17.92415
 30
0.0
 10
9.038625000000012
 20
-17.92566111111111
 30
0.0
 10
9.049687271385665
 20
-17.92566111111111
 30
0.0
 10
9.07036227086337
 20
-17.92566111111111
 30
0.0
 10
9.08950115926877
 20
-17.92050416666666
 30
0.0
 10
9.107130325490086
 20
-17.91580972222222
 30
0.0
 10
9.107130325490086
 20
-17.91580972222222
 30
0.0
 10
10.74262750639617
 20
-17.52570694444444
 30
0.0
 10
10.74262750639617
 20
-17.52570694444444
 30
0.0
 10
10.81451500458014
 20
-17.50614305555555
 30
0.0
 10
10.85490389244872
 20
-17.44446805555555
 30
0.0
 10
10.83862333730445
 20
-17.37903472222222
 30
0.0
 10
10.82244278215765
 20
-17.314075
 30
0.0
 10
10.76175389480189
 20
-17.27869305555555
 30
0.0
 10
10.68790528555635
 20
-17.29177777777777
 30
0.0
 10
10.67715667471677
 20
-17.293625
 30
0.0
 10
10.66639417498866
 20
-17.29565972222223
 30
0.0
 10
10.65570667525864
 20
-17.29820694444445
 30
0.0
 10
10.65570667525864
 20
-17.29820694444445
 30
0.0
 10
9.042770604893727
 20
-17.68390277777778
 30
0.0
 10
9.042770604893727
 20
-17.68390277777778
 30
0.0
 10
9.015616438913032
 20
-17.69044583333333
 30
0.0
 10
8.932928941001894
 20
-17.71037083333334
 30
0.0
 10
8.927421996696568
 20
-17.80591805555555
 30
0.0
 10
8.928608107777714
 20
-17.86301111111111
 30
0.0
 10
8.958984495899232
 20
-17.90255138888888
 30
0.0
 10
9.015203938923452
 20
-17.92039166666667
 30
0.0
  0
HATCH
  5
6C
330
1F
100
AcDbEntity
  8
Layer 1
 62
     7
420
 16777215
100
AcDbHatch
 10
0.0
 20
0.0
 30
0.0
210
0.0
220
0.0
230
1.0
  2
SOLID
 70
     1
 71
     0
 91
        1
 92
        1
 93
        1
 72
     4
 94
        3
 73
     0
 74
     1
 95
       32
 96
       28
 40
0.0
 40
0.0
 40
0.0
 40
0.0
 40
1.0
 40
1.0
 40
1.0
 40
2.0
 40
2.0
 40
2.0
 40
3.0
 40
3.0
 40
3.0
 40
4.0
 40
4.0
 40
4.0
 40
5.0
 40
5.0
 40
5.0
 40
6.0
 40
6.0
 40
6.0
 40
7.0
 40
7.0
 40
7.0
 40
8.0
 40
8.0
 40
8.0
 40
9.0
 40
9.0
 40
9.0
 40
9.0
 10
9.015203938923452
 20
-17.92039166666667
 10
9.027138888888885
 20
-17.92415
 10
9.038625000000012
 20
-17.92566111111111
 10
9.049687271385665
 20
-17.92566111111111
 10
9.07036227086337
 20
-17.92566111111111
 10
9.08950115926877
 20
-17.92050416666666
 10
9.107130325490086
 20
-17.91580972222222
 10
9.107130325490086
 20
-17.91580972222222
 10
10.74262750639617
 20
-17.52570694444444
 10
10.74262750639617
 20
-17.52570694444444
 10
10.81451500458014
 20
-17.50614305555555
 10
10.85490389244872
 20
-17.44446805555555
 10
10.83862333730445
 20
-17.37903472222222
 10
10.82244278215765
 20
-17.314075
 10
10.76175389480189
 20
-17.27869305555555
 10
10.68790528555635
 20
-17.29177777777777
 10
10.67715667471677
 20
-17.293625
 10
10.66639417498866
 20
-17.29565972222223
 10
10.65570667525864
 20
-17.29820694444445
 10
10.65570667525864
 20
-17.29820694444445
 10
9.042770604893727
 20
-17.68390277777778
 10
9.042770604893727
 20
-17.68390277777778
 10
9.015616438913032
 20
-17.69044583333333
 10
8.932928941001894
 20
-17.71037083333334
 10
8.927421996696568
 20
-17.80591805555555
 10
8.928608107777714
 20
-17.86301111111111
 10
8.958984495899232
 20
-17.90255138888888
 10
9.015203938923452
 20
-17.92039166666667
 97
        0
 97
        0
 75
     2
 76
     1
 98
        0
  0
SPLINE
  5
6D
330
1F
100
AcDbEntity
  8
Layer 1
370
     0
100
AcDbSpline
210
0.0
220
0.0
230
1.0
 70
    11
 71
     3
 72
    35
 73
    31
 74
     0
 42
0.0000000001
 43
0.0000000001
 12
1.0
 22
0.0
 32
0.0
 13
1.0
 23
0.0
 33
0.0
 40
0.0
 40
0.0
 40
0.0
 40
0.0
 40
1.0
 40
1.0
 40
1.0
 40
2.0
 40
2.0
 40
2.0
 40
3.0
 40
3.0
 40
3.0
 40
4.0
 40
4.0
 40
4.0
 40
5.0
 40
5.0
 40
5.0
 40
6.0
 40
6.0
 40
6.0
 40
7.0
 40
7.0
 40
7.0
 40
8.0
 40
8.0
 40
8.0
 40
9.0
 40
9.0
 40
9.0
 40
10.0
 40
10.0
 40
10.0
 40
10.0
 10
8.256397013648085
 20
-16.41619861111111
 30
0.0
 10
8.280017846384705
 20
-16.45528888888889
 30
0.0
 10
8.314213678854179
 20
-16.47531527777778
 30
0.0
 10
8.356401177788433
 20
-16.47531527777778
 30
0.0
 10
8.366999999999987
 20
-16.47531527777778
 30
0.0
 10
8.378137288350445
 20
-16.47404166666667
 30
0.0
 10
8.389723399168865
 20
-16.47149444444444
 30
0.0
 10
8.424755342728329
 20
-16.46374166666667
 30
0.0
 10
8.447252564382223
 20
-16.44126805555556
 30
0.0
 10
8.467078952770255
 20
-16.42141805555555
 30
0.0
 10
8.467078952770255
 20
-16.42141805555555
 30
0.0
 10
9.688327533030032
 20
-15.26597777777778
 30
0.0
 10
9.688327533030032
 20
-15.26597777777778
 30
0.0
 10
9.740788642815863
 20
-15.21311666666666
 30
0.0
 10
9.744896976045412
 20
-15.13945555555555
 30
0.0
 10
9.698102532783095
 20
-15.09093888888889
 30
0.0
 10
9.651546978403632
 20
-15.04269722222222
 30
0.0
 10
9.581569444444439
 20
-15.04264722222222
 30
0.0
 10
9.524051148291113
 20
-15.09070138888889
 30
0.0
 10
9.524051148291113
 20
-15.09070138888889
 30
0.0
 10
9.524013888888879
 20
-15.09070138888889
 30
0.0
 10
9.524013888888879
 20
-15.09070138888889
 30
0.0
 10
9.515585870727186
 20
-15.09776805555556
 30
0.0
 10
9.507258093159786
 20
-15.10488472222222
 30
0.0
 10
9.499292815583228
 20
-15.11241249999999
 30
0.0
 10
9.499292815583228
 20
-15.11241249999999
 30
0.0
 10
8.295337290442149
 20
-16.25297083333333
 30
0.0
 10
8.295337290442149
 20
-16.25297083333333
 30
0.0
 10
8.275073402065168
 20
-16.27218611111112
 30
0.0
 10
8.21339840362321
 20
-16.33072777777777
 30
0.0
 10
8.256397013648085
 20
-16.41619861111111
 30
0.0
  0
HATCH
  5
6E
330
1F
100
AcDbEntity
  8
Layer 1
 62
     7
420
 16777215
100
AcDbHatch
 10
0.0
 20
0.0
 30
0.0
210
0.0
220
0.0
230
1.0
  2
SOLID
 70
     1
 71
     0
 91
        1
 92
        1
 93
        1
 72
     4
 94
        3
 73
     0
 74
     1
 95
       35
 96
       31
 40
0.0
 40
0.0
 40
0.0
 40
0.0
 40
1.0
 40
1.0
 40
1.0
 40
2.0
 40
2.0
 40
2.0
 40
3.0
 40
3.0
 40
3.0
 40
4.0
 40
4.0
 40
4.0
 40
5.0
 40
5.0
 40
5.0
 40
6.0
 40
6.0
 40
6.0
 40
7.0
 40
7.0
 40
7.0
 40
8.0
 40
8.0
 40
8.0
 40
9.0
 40
9.0
 40
9.0
 40
10.0
 40
10.0
 40
10.0
 40
10.0
 10
8.256397013648085
 20
-16.41619861111111
 10
8.280017846384705
 20
-16.45528888888889
 10
8.314213678854179
 20
-16.47531527777778
 10
8.356401177788433
 20
-16.47531527777778
 10
8.366999999999987
 20
-16.47531527777778
 10
8.378137288350445
 20
-16.47404166666667
 10
8.389723399168865
 20
-16.47149444444444
 10
8.424755342728329
 20
-16.46374166666667
 10
8.447252564382223
 20
-16.44126805555556
 10
8.467078952770255
 20
-16.42141805555555
 10
8.467078952770255
 20
-16.42141805555555
 10
9.688327533030032
 20
-15.26597777777778
 10
9.688327533030032
 20
-15.26597777777778
 10
9.740788642815863
 20
-15.21311666666666
 10
9.744896976045412
 20
-15.13945555555555
 10
9.698102532783095
 20
-15.09093888888889
 10
9.651546978403632
 20
-15.04269722222222
 10
9.581569444444439
 20
-15.04264722222222
 10
9.524051148291113
 20
-15.09070138888889
 10
9.524051148291113
 20
-15.09070138888889
 10
9.524013888888879
 20
-15.09070138888889
 10
9.524013888888879
 20
-15.09070138888889
 10
9.515585870727186
 20
-15.09776805555556
 10
9.507258093159786
 20
-15.10488472222222
 10
9.499292815583228
 20
-15.11241249999999
 10
9.499292815583228
 20
-15.11241249999999
 10
8.295337290442149
 20
-16.25297083333333
 10
8.295337290442149
 20
-16.25297083333333
 10
8.275073402065168
 20
-16.27218611111112
 10
8.21339840362321
 20
-16.33072777777777
 10
8.256397013648085
 20
-16.41619861111111
 97
        0
 97
        0
 75
     2
 76
     1
 98
        0
  0
SPLINE
  5
6F
330
1F
100
AcDbEntity
  8
Layer 1
370
     0
100
AcDbSpline
210
0.0
220
0.0
230
1.0
 70
    11
 71
     3
 72
    32
 73
    28
 74
     0
 42
0.0000000001
 43
0.0000000001
 12
1.0
 22
0.0
 32
0.0
 13
1.0
 23
0.0
 33
0.0
 40
0.0
 40
0.0
 40
0.0
 40
0.0
 40
1.0
 40
1.0
 40
1.0
 40
2.0
 40
2.0
 40
2.0
 40
3.0
 40
3.0
 40
3.0
 40
4.0
 40
4.0
 40
4.0
 40
5.0
 40
5.0
 40
5.0
 40
6.0
 40
6.0
 40
6.0
 40
7.0
 40
7.0
 40
7.0
 40
8.0
 40
8.0
 40
8.0
 40
9.0
 40
9.0
 40
9.0
 40
9.0
 10
6.464476225582479
 20
-15.35937638888889
 30
0.0
 10
6.471042892083258
 20
-15.36031388888889
 30
0.0
 10
6.477510947475416
 20
-15.360775
 30
0.0
 10
6.483840113982195
 20
-15.360775
 30
0.0
 10
6.509059557789542
 20
-15.360775
 30
0.0
 10
6.532194444444435
 20
-15.35329722222222
 30
0.0
 10
6.551508167828311
 20
-15.33876388888888
 30
0.0
 10
6.580635944870259
 20
-15.31681527777778
 30
0.0
 10
6.59944983328387
 20
-15.28010972222223
 30
0.0
 10
6.605967888674765
 20
-15.23263055555555
 30
0.0
 10
6.605967888674765
 20
-15.23263055555555
 30
0.0
 10
6.693573442017218
 20
-14.60216805555555
 30
0.0
 10
6.693573442017218
 20
-14.60216805555555
 30
0.0
 10
6.69688316415583
 20
-14.53041666666667
 30
0.0
 10
6.656519276286619
 20
-14.47575833333334
 30
0.0
 10
6.59314566677646
 20
-14.46614444444444
 30
0.0
 10
6.528948446175995
 20
-14.45629444444444
 30
0.0
 10
6.475649836411321
 20
-14.49549722222222
 30
0.0
 10
6.456573448004342
 20
-14.56909583333334
 30
0.0
 10
6.456573448004342
 20
-14.56909583333334
 30
0.0
 10
6.366269283618951
 20
-15.19637361111111
 30
0.0
 10
6.366269283618951
 20
-15.19637361111111
 30
0.0
 10
6.360277777777784
 20
-15.23807361111111
 30
0.0
 10
6.365545672526119
 20
-15.27512916666666
 30
0.0
 10
6.381476227679236
 20
-15.30355694444444
 30
0.0
 10
6.398692893910972
 20
-15.33430694444444
 30
0.0
 10
6.428170670944079
 20
-15.35417083333333
 30
0.0
 10
6.464476225582479
 20
-15.35937638888889
 30
0.0
  0
HATCH
  5
70
330
1F
100
AcDbEntity
  8
Layer 1
 62
     7
420
 16777215
100
AcDbHatch
 10
0.0
 20
0.0
 30
0.0
210
0.0
220
0.0
230
1.0
  2
SOLID
 70
     1
 71
     0
 91
        1
 92
        1
 93
        1
 72
     4
 94
        3
 73
     0
 74
     1
 95
       32
 96
       28
 40
0.0
 40
0.0
 40
0.0
 40
0.0
 40
1.0
 40
1.0
 40
1.0
 40
2.0
 40
2.0
 40
2.0
 40
3.0
 40
3.0
 40
3.0
 40
4.0
 40
4.0
 40
4.0
 40
5.0
 40
5.0
 40
5.0
 40
6.0
 40
6.0
 40
6.0
 40
7.0
 40
7.0
 40
7.0
 40
8.0
 40
8.0
 40
8.0
 40
9.0
 40
9.0
 40
9.0
 40
9.0
 10
6.464476225582479
 20
-15.35937638888889
 10
6.471042892083258
 20
-15.36031388888889
 10
6.477510947475416
 20
-15.360775
 10
6.483840113982195
 20
-15.360775
 10
6.509059557789542
 20
-15.360775
 10
6.532194444444435
 20
-15.35329722222222
 10
6.551508167828311
 20
-15.33876388888888
 10
6.580635944870259
 20
-15.31681527777778
 10
6.59944983328387
 20
-15.28010972222223
 10
6.605967888674765
 20
-15.23263055555555
 10
6.605967888674765
 20
-15.23263055555555
 10
6.693573442017218
 20
-14.60216805555555
 10
6.693573442017218
 20
-14.60216805555555
 10
6.69688316415583
 20
-14.53041666666667
 10
6.656519276286619
 20
-14.47575833333334
 10
6.59314566677646
 20
-14.46614444444444
 10
6.528948446175995
 20
-14.45629444444444
 10
6.475649836411321
 20
-14.49549722222222
 10
6.456573448004342
 20
-14.56909583333334
 10
6.456573448004342
 20
-14.56909583333334
 10
6.366269283618951
 20
-15.19637361111111
 10
6.366269283618951
 20
-15.19637361111111
 10
6.360277777777784
 20
-15.23807361111111
 10
6.365545672526119
 20
-15.27512916666666
 10
6.381476227679236
 20
-15.30355694444444
 10
6.398692893910972
 20
-15.33430694444444
 10
6.428170670944079
 20
-15.35417083333333
 10
6.464476225582479
 20
-15.35937638888889
 97
        0
 97
        0
 75
     2
 76
     1
 98
        0
  0
SPLINE
  5
71
330
1F
100
AcDbEntity
  8
Layer 1
370
     0
100
AcDbSpline
210
0.0
220
0.0
230
1.0
 70
    11
 71
     3
 72
    32
 73
    28
 74
     0
 42
0.0000000001
 43
0.0000000001
 12
1.0
 22
0.0
 32
0.0
 13
1.0
 23
0.0
 33
0.0
 40
0.0
 40
0.0
 40
0.0
 40
0.0
 40
1.0
 40
1.0
 40
1.0
 40
2.0
 40
2.0
 40
2.0
 40
3.0
 40
3.0
 40
3.0
 40
4.0
 40
4.0
 40
4.0
 40
5.0
 40
5.0
 40
5.0
 40
6.0
 40
6.0
 40
6.0
 40
7.0
 40
7.0
 40
7.0
 40
8.0
 40
8.0
 40
8.0
 40
9.0
 40
9.0
 40
9.0
 40
9.0
 10
6.910512325425771
 20
-15.4744375
 30
0.0
 10
6.924444444444437
 20
-15.47924444444445
 30
0.0
 10
6.938277777777785
 20
-15.48161666666667
 30
0.0
 10
6.951712324384971
 20
-15.48161666666667
 30
0.0
 10
6.968566490625865
 20
-15.48161666666667
 30
0.0
 10
6.984809545771086
 20
-15.47790833333334
 30
0.0
 10
6.999866489835161
 20
-15.47044305555556
 30
0.0
 10
7.032576211231066
 20
-15.45435
 30
0.0
 10
7.057945655034624
 20
-15.42180138888889
 30
0.0
 10
7.073227599093014
 20
-15.37640694444445
 30
0.0
 10
7.073227599093014
 20
-15.37640694444445
 30
0.0
 10
7.277367871713775
 20
-14.77349861111111
 30
0.0
 10
7.277367871713775
 20
-14.77349861111111
 30
0.0
 10
7.294023426848575
 20
-14.70360694444445
 30
0.0
 10
7.264570649814837
 20
-14.64234444444445
 30
0.0
 10
7.204156762452132
 20
-14.62109444444445
 30
0.0
 10
7.142917875110268
 20
-14.59949583333333
 30
0.0
 10
7.083252598839762
 20
-14.62798611111111
 30
0.0
 10
7.050766488549319
 20
-14.69666527777778
 30
0.0
 10
7.050766488549319
 20
-14.69666527777778
 30
0.0
 10
6.844591493757737
 20
-15.29597916666666
 30
0.0
 10
6.844591493757737
 20
-15.29597916666666
 30
0.0
 10
6.830870660771021
 20
-15.33581805555555
 30
0.0
 10
6.829072049705347
 20
-15.37315972222223
 30
0.0
 10
6.839409549444199
 20
-15.40408472222222
 30
0.0
 10
6.850559549162527
 20
-15.43749444444444
 30
0.0
 10
6.875803992969243
 20
-15.46251527777777
 30
0.0
 10
6.910512325425771
 20
-15.4744375
 30
0.0
  0
HATCH
  5
72
330
1F
100
AcDbEntity
  8
Layer 1
 62
     7
420
 16777215
100
AcDbHatch
 10
0.0
 20
0.0
 30
0.0
210
0.0
220
0.0
230
1.0
  2
SOLID
 70
     1
 71
     0
 91
        1
 92
        1
 93
        1
 72
     4
 94
        3
 73
     0
 74
     1
 95
       32
 96
       28
 40
0.0
 40
0.0
 40
0.0
 40
0.0
 40
1.0
 40
1.0
 40
1.0
 40
2.0
 40
2.0
 40
2.0
 40
3.0
 40
3.0
 40
3.0
 40
4.0
 40
4.0
 40
4.0
 40
5.0
 40
5.0
 40
5.0
 40
6.0
 40
6.0
 40
6.0
 40
7.0
 40
7.0
 40
7.0
 40
8.0
 40
8.0
 40
8.0
 40
9.0
 40
9.0
 40
9.0
 40
9.0
 10
6.910512325425771
 20
-15.4744375
 10
6.924444444444437
 20
-15.47924444444445
 10
6.938277777777785
 20
-15.48161666666667
 10
6.951712324384971
 20
-15.48161666666667
 10
6.968566490625865
 20
-15.48161666666667
 10
6.984809545771086
 20
-15.47790833333334
 10
6.999866489835161
 20
-15.47044305555556
 10
7.032576211231066
 20
-15.45435
 10
7.057945655034624
 20
-15.42180138888889
 10
7.073227599093014
 20
-15.37640694444445
 10
7.073227599093014
 20
-15.37640694444445
 10
7.277367871713775
 20
-14.77349861111111
 10
7.277367871713775
 20
-14.77349861111111
 10
7.294023426848575
 20
-14.70360694444445
 10
7.264570649814837
 20
-14.64234444444445
 10
7.204156762452132
 20
-14.62109444444445
 10
7.142917875110268
 20
-14.59949583333333
 10
7.083252598839762
 20
-14.62798611111111
 10
7.050766488549319
 20
-14.69666527777778
 10
7.050766488549319
 20
-14.69666527777778
 10
6.844591493757737
 20
-15.29597916666666
 10
6.844591493757737
 20
-15.29597916666666
 10
6.830870660771021
 20
-15.33581805555555
 10
6.829072049705347
 20
-15.37315972222223
 10
6.839409549444199
 20
-15.40408472222222
 10
6.850559549162527
 20
-15.43749444444444
 10
6.875803992969243
 20
-15.46251527777777
 10
6.910512325425771
 20
-15.4744375
 97
        0
 97
        0
 75
     2
 76
     1
 98
        0
  0
SPLINE
  5
73
330
1F
100
AcDbEntity
  8
Layer 1
370
     0
100
AcDbSpline
210
0.0
220
0.0
230
1.0
 70
    11
 71
     3
 72
    35
 73
    31
 74
     0
 42
0.0000000001
 43
0.0000000001
 12
1.0
 22
0.0
 32
0.0
 13
1.0
 23
0.0
 33
0.0
 40
0.0
 40
0.0
 40
0.0
 40
0.0
 40
1.0
 40
1.0
 40
1.0
 40
2.0
 40
2.0
 40
2.0
 40
3.0
 40
3.0
 40
3.0
 40
4.0
 40
4.0
 40
4.0
 40
5.0
 40
5.0
 40
5.0
 40
6.0
 40
6.0
 40
6.0
 40
7.0
 40
7.0
 40
7.0
 40
8.0
 40
8.0
 40
8.0
 40
9.0
 40
9.0
 40
9.0
 40
10.0
 40
10.0
 40
10.0
 40
10.0
 10
4.733644324862527
 20
-15.43692083333334
 30
0.0
 10
4.749312380022275
 20
-15.47606111111111
 30
0.0
 10
4.772384601661643
 20
-15.505475
 30
0.0
 10
4.800388888888884
 20
-15.52215555555555
 30
0.0
 10
4.817730433849444
 20
-15.53245555555556
 30
0.0
 10
4.836744322258002
 20
-15.5376736111111
 30
0.0
 10
4.856258210653928
 20
-15.5376736111111
 30
0.0
 10
4.870791666666668
 20
-15.5376736111111
 30
0.0
 10
4.885623487689878
 20
-15.53477777777778
 30
0.0
 10
4.900180555555557
 20
-15.52892222222222
 30
0.0
 10
4.930905430990403
 20
-15.51664861111111
 30
0.0
 10
4.953391541533468
 20
-15.49539999999999
 30
0.0
 10
4.965213763457036
 20
-15.46754583333333
 30
0.0
 10
4.979447096430804
 20
-15.43396111111112
 30
0.0
 10
4.977424874259668
 20
-15.39273611111111
 30
0.0
 10
4.959334596938889
 20
-15.34844027777778
 30
0.0
 10
4.959334596938889
 20
-15.34844027777778
 30
0.0
 10
4.72108460295759
 20
-14.7611125
 30
0.0
 10
4.72108460295759
 20
-14.7611125
 30
0.0
 10
4.72108460295759
 20
-14.7611125
 30
0.0
 10
4.719923491875812
 20
-14.75861666666666
 30
0.0
 10
4.719923491875812
 20
-14.75861666666666
 30
0.0
 10
4.686913770487485
 20
-14.69469305555555
 30
0.0
 10
4.624638888888891
 20
-14.66747638888888
 30
0.0
 10
4.564910995791757
 20
-14.69104722222222
 30
0.0
 10
4.504547108427787
 20
-14.71473194444444
 30
0.0
 10
4.477941553544345
 20
-14.77529583333333
 30
0.0
 10
4.498204053032471
 20
-14.84848194444444
 30
0.0
 10
4.498204053032471
 20
-14.84848194444444
 30
0.0
 10
4.733644324862527
 20
-15.43692083333334
 30
0.0
 10
4.733644324862527
 20
-15.43692083333334
 30
0.0
  0
HATCH
  5
74
330
1F
100
AcDbEntity
  8
Layer 1
 62
     7
420
 16777215
100
AcDbHatch
 10
0.0
 20
0.0
 30
0.0
210
0.0
220
0.0
230
1.0
  2
SOLID
 70
     1
 71
     0
 91
        1
 92
        1
 93
        1
 72
     4
 94
        3
 73
     0
 74
     1
 95
       35
 96
       31
 40
0.0
 40
0.0
 40
0.0
 40
0.0
 40
1.0
 40
1.0
 40
1.0
 40
2.0
 40
2.0
 40
2.0
 40
3.0
 40
3.0
 40
3.0
 40
4.0
 40
4.0
 40
4.0
 40
5.0
 40
5.0
 40
5.0
 40
6.0
 40
6.0
 40
6.0
 40
7.0
 40
7.0
 40
7.0
 40
8.0
 40
8.0
 40
8.0
 40
9.0
 40
9.0
 40
9.0
 40
10.0
 40
10.0
 40
10.0
 40
10.0
 10
4.733644324862527
 20
-15.43692083333334
 10
4.749312380022275
 20
-15.47606111111111
 10
4.772384601661643
 20
-15.505475
 10
4.800388888888884
 20
-15.52215555555555
 10
4.817730433849444
 20
-15.53245555555556
 10
4.836744322258002
 20
-15.5376736111111
 10
4.856258210653928
 20
-15.5376736111111
 10
4.870791666666668
 20
-15.5376736111111
 10
4.885623487689878
 20
-15.53477777777778
 10
4.900180555555557
 20
-15.52892222222222
 10
4.930905430990403
 20
-15.51664861111111
 10
4.953391541533468
 20
-15.49539999999999
 10
4.965213763457036
 20
-15.46754583333333
 10
4.979447096430804
 20
-15.43396111111112
 10
4.977424874259668
 20
-15.39273611111111
 10
4.959334596938889
 20
-15.34844027777778
 10
4.959334596938889
 20
-15.34844027777778
 10
4.72108460295759
 20
-14.7611125
 10
4.72108460295759
 20
-14.7611125
 10
4.72108460295759
 20
-14.7611125
 10
4.719923491875812
 20
-14.75861666666666
 10
4.719923491875812
 20
-14.75861666666666
 10
4.686913770487485
 20
-14.69469305555555
 10
4.624638888888891
 20
-14.66747638888888
 10
4.564910995791757
 20
-14.69104722222222
 10
4.504547108427787
 20
-14.71473194444444
 10
4.477941553544345
 20
-14.77529583333333
 10
4.498204053032471
 20
-14.84848194444444
 10
4.498204053032471
 20
-14.84848194444444
 10
4.733644324862527
 20
-15.43692083333334
 10
4.733644324862527
 20
-15.43692083333334
 97
        0
 97
        0
 75
     2
 76
     1
 98
        0
  0
SPLINE
  5
75
330
1F
100
AcDbEntity
  8
Layer 1
370
     0
100
AcDbSpline
210
0.0
220
0.0
230
1.0
 70
    11
 71
     3
 72
    32
 73
    28
 74
     0
 42
0.0000000001
 43
0.0000000001
 12
1.0
 22
0.0
 32
0.0
 13
1.0
 23
0.0
 33
0.0
 40
0.0
 40
0.0
 40
0.0
 40
0.0
 40
1.0
 40
1.0
 40
1.0
 40
2.0
 40
2.0
 40
2.0
 40
3.0
 40
3.0
 40
3.0
 40
4.0
 40
4.0
 40
4.0
 40
5.0
 40
5.0
 40
5.0
 40
6.0
 40
6.0
 40
6.0
 40
7.0
 40
7.0
 40
7.0
 40
8.0
 40
8.0
 40
8.0
 40
9.0
 40
9.0
 40
9.0
 40
9.0
 10
3.63021657495968
 20
-16.45801111111112
 30
0.0
 10
3.650679074442754
 20
-16.43195416666666
 30
0.0
 10
3.659542963107722
 20
-16.40230277777778
 30
0.0
 10
3.655873518755975
 20
-16.37225138888889
 30
0.0
 10
3.651402777777776
 20
-16.33605833333334
 30
0.0
 10
3.629030463878532
 20
-16.30137500000001
 30
0.0
 10
3.591188798167827
 20
-16.2720736111111
 30
0.0
 10
3.591188798167827
 20
-16.2720736111111
 30
0.0
 10
3.088945755299998
 20
-15.88093333333333
 30
0.0
 10
3.088945755299998
 20
-15.88093333333333
 30
0.0
 10
3.028444444444441
 20
-15.84213055555555
 30
0.0
 10
2.960926314089597
 20
-15.84983333333333
 30
0.0
 10
2.920973537321111
 20
-15.89992361111111
 30
0.0
 10
2.880498538343595
 20
-15.9505875
 30
0.0
 10
2.887726315938784
 20
-16.01636944444445
 30
0.0
 10
2.941898536792501
 20
-16.06964305555555
 30
0.0
 10
2.941898536792501
 20
-16.06964305555555
 30
0.0
 10
3.439995746431729
 20
-16.46148194444445
 30
0.0
 10
3.439995746431729
 20
-16.46148194444445
 30
0.0
 10
3.473094356706699
 20
-16.48753749999999
 30
0.0
 10
3.507801300274372
 20
-16.50154583333334
 30
0.0
 10
3.540399910561973
 20
-16.50195833333333
 30
0.0
 10
3.540899910549342
 20
-16.50195833333333
 30
0.0
 10
3.541386021648173
 20
-16.50195833333333
 30
0.0
 10
3.54191102163491
 20
-16.50195833333333
 30
0.0
 10
3.576544354093332
 20
-16.50195833333333
 30
0.0
 10
3.607867964413142
 20
-16.48637638888888
 30
0.0
 10
3.63021657495968
 20
-16.45801111111112
 30
0.0
  0
HATCH
  5
76
330
1F
100
AcDbEntity
  8
Layer 1
 62
     7
420
 16777215
100
AcDbHatch
 10
0.0
 20
0.0
 30
0.0
210
0.0
220
0.0
230
1.0
  2
SOLID
 70
     1
 71
     0
 91
        1
 92
        1
 93
        1
 72
     4
 94
        3
 73
     0
 74
     1
 95
       32
 96
       28
 40
0.0
 40
0.0
 40
0.0
 40
0.0
 40
1.0
 40
1.0
 40
1.0
 40
2.0
 40
2.0
 40
2.0
 40
3.0
 40
3.0
 40
3.0
 40
4.0
 40
4.0
 40
4.0
 40
5.0
 40
5.0
 40
5.0
 40
6.0
 40
6.0
 40
6.0
 40
7.0
 40
7.0
 40
7.0
 40
8.0
 40
8.0
 40
8.0
 40
9.0
 40
9.0
 40
9.0
 40
9.0
 10
3.63021657495968
 20
-16.45801111111112
 10
3.650679074442754
 20
-16.43195416666666
 10
3.659542963107722
 20
-16.40230277777778
 10
3.655873518755975
 20
-16.37225138888889
 10
3.651402777777776
 20
-16.33605833333334
 10
3.629030463878532
 20
-16.30137500000001
 10
3.591188798167827
 20
-16.2720736111111
 10
3.591188798167827
 20
-16.2720736111111
 10
3.088945755299998
 20
-15.88093333333333
 10
3.088945755299998
 20
-15.88093333333333
 10
3.028444444444441
 20
-15.84213055555555
 10
2.960926314089597
 20
-15.84983333333333
 10
2.920973537321111
 20
-15.89992361111111
 10
2.880498538343595
 20
-15.9505875
 10
2.887726315938784
 20
-16.01636944444445
 10
2.941898536792501
 20
-16.06964305555555
 10
2.941898536792501
 20
-16.06964305555555
 10
3.439995746431729
 20
-16.46148194444445
 10
3.439995746431729
 20
-16.46148194444445
 10
3.473094356706699
 20
-16.48753749999999
 10
3.507801300274372
 20
-16.50154583333334
 10
3.540399910561973
 20
-16.50195833333333
 10
3.540899910549342
 20
-16.50195833333333
 10
3.541386021648173
 20
-16.50195833333333
 10
3.54191102163491
 20
-16.50195833333333
 10
3.576544354093332
 20
-16.50195833333333
 10
3.607867964413142
 20
-16.48637638888888
 10
3.63021657495968
 20
-16.45801111111112
 97
        0
 97
        0
 75
     2
 76
     1
 98
        0
  0
SPLINE
  5
77
330
1F
100
AcDbEntity
  8
Layer 1
370
     0
100
AcDbSpline
210
0.0
220
0.0
230
1.0
 70
    11
 71
     3
 72
    35
 73
    31
 74
     0
 42
0.0000000001
 43
0.0000000001
 12
1.0
 22
0.0
 32
0.0
 13
1.0
 23
0.0
 33
0.0
 40
0.0
 40
0.0
 40
0.0
 40
0.0
 40
1.0
 40
1.0
 40
1.0
 40
2.0
 40
2.0
 40
2.0
 40
3.0
 40
3.0
 40
3.0
 40
4.0
 40
4.0
 40
4.0
 40
5.0
 40
5.0
 40
5.0
 40
6.0
 40
6.0
 40
6.0
 40
7.0
 40
7.0
 40
7.0
 40
8.0
 40
8.0
 40
8.0
 40
9.0
 40
9.0
 40
9.0
 40
10.0
 40
10.0
 40
10.0
 40
10.0
 10
2.868162427544121
 20
-17.75600416666667
 30
0.0
 10
2.868162427544121
 20
-17.75600416666667
 30
0.0
 10
2.240384665625343
 20
-17.66862222222222
 30
0.0
 10
2.240384665625343
 20
-17.66862222222222
 30
0.0
 10
2.240384665625343
 20
-17.66862222222222
 30
0.0
 10
2.237637443472522
 20
-17.66838472222222
 30
0.0
 10
2.237637443472522
 20
-17.66838472222222
 30
0.0
 10
2.166212445276869
 20
-17.66311527777778
 30
0.0
 10
2.111229113332532
 20
-17.70545277777777
 30
0.0
 10
2.101677724684931
 20
-17.76885
 30
0.0
 10
2.091951336041752
 20
-17.83300972222222
 30
0.0
 10
2.131091612830763
 20
-17.88634583333333
 30
0.0
 10
2.204665222083248
 20
-17.90539722222221
 30
0.0
 10
2.204665222083248
 20
-17.90539722222221
 30
0.0
 10
2.831944444444439
 20
-17.99566388888888
 30
0.0
 10
2.831944444444439
 20
-17.99566388888888
 30
0.0
 10
2.843142983731721
 20
-17.9972861111111
 30
0.0
 10
2.854030483456679
 20
-17.99809861111112
 30
0.0
 10
2.864517983191743
 20
-17.99809861111112
 30
0.0
 10
2.892945760251374
 20
-17.99809861111112
 30
0.0
 10
2.91836520405367
 20
-17.99213055555555
 30
0.0
 10
2.939127703529165
 20
-17.98049444444445
 30
0.0
 10
2.969902777777773
 20
-17.96330277777777
 30
0.0
 10
2.989704091140386
 20
-17.93382638888889
 30
0.0
 10
2.994909646564439
 20
-17.89751944444444
 30
0.0
 10
2.99962909088966
 20
-17.86468472222223
 30
0.0
 10
2.992487424403407
 20
-17.83457083333333
 30
0.0
 10
2.974272147085786
 20
-17.810425
 30
0.0
 10
2.952298536529775
 20
-17.78129861111111
 30
0.0
 10
2.915580481901796
 20
-17.76248333333333
 30
0.0
 10
2.868162427544121
 20
-17.75600416666667
 30
0.0
  0
HATCH
  5
78
330
1F
100
AcDbEntity
  8
Layer 1
 62
     7
420
 16777215
100
AcDbHatch
 10
0.0
 20
0.0
 30
0.0
210
0.0
220
0.0
230
1.0
  2
SOLID
 70
     1
 71
     0
 91
        1
 92
        1
 93
        1
 72
     4
 94
        3
 73
     0
 74
     1
 95
       35
 96
       31
 40
0.0
 40
0.0
 40
0.0
 40
0.0
 40
1.0
 40
1.0
 40
1.0
 40
2.0
 40
2.0
 40
2.0
 40
3.0
 40
3.0
 40
3.0
 40
4.0
 40
4.0
 40
4.0
 40
5.0
 40
5.0
 40
5.0
 40
6.0
 40
6.0
 40
6.0
 40
7.0
 40
7.0
 40
7.0
 40
8.0
 40
8.0
 40
8.0
 40
9.0
 40
9.0
 40
9.0
 40
10.0
 40
10.0
 40
10.0
 40
10.0
 10
2.868162427544121
 20
-17.75600416666667
 10
2.868162427544121
 20
-17.75600416666667
 10
2.240384665625343
 20
-17.66862222222222
 10
2.240384665625343
 20
-17.66862222222222
 10
2.240384665625343
 20
-17.66862222222222
 10
2.237637443472522
 20
-17.66838472222222
 10
2.237637443472522
 20
-17.66838472222222
 10
2.166212445276869
 20
-17.66311527777778
 10
2.111229113332532
 20
-17.70545277777777
 10
2.101677724684931
 20
-17.76885
 10
2.091951336041752
 20
-17.83300972222222
 10
2.131091612830763
 20
-17.88634583333333
 10
2.204665222083248
 20
-17.90539722222221
 10
2.204665222083248
 20
-17.90539722222221
 10
2.831944444444439
 20
-17.99566388888888
 10
2.831944444444439
 20
-17.99566388888888
 10
2.843142983731721
 20
-17.9972861111111
 10
2.854030483456679
 20
-17.99809861111112
 10
2.864517983191743
 20
-17.99809861111112
 10
2.892945760251374
 20
-17.99809861111112
 10
2.91836520405367
 20
-17.99213055555555
 10
2.939127703529165
 20
-17.98049444444445
 10
2.969902777777773
 20
-17.96330277777777
 10
2.989704091140386
 20
-17.93382638888889
 10
2.994909646564439
 20
-17.89751944444444
 10
2.99962909088966
 20
-17.86468472222223
 10
2.992487424403407
 20
-17.83457083333333
 10
2.974272147085786
 20
-17.810425
 10
2.952298536529775
 20
-17.78129861111111
 10
2.915580481901796
 20
-17.76248333333333
 10
2.868162427544121
 20
-17.75600416666667
 97
        0
 97
        0
 75
     2
 76
     1
 98
        0
  0
SPLINE
  5
79
330
1F
100
AcDbEntity
  8
Layer 1
370
     0
100
AcDbSpline
210
0.0
220
0.0
230
1.0
 70
    11
 71
     3
 72
    32
 73
    28
 74
     0
 42
0.0000000001
 43
0.0000000001
 12
1.0
 22
0.0
 32
0.0
 13
1.0
 23
0.0
 33
0.0
 40
0.0
 40
0.0
 40
0.0
 40
0.0
 40
1.0
 40
1.0
 40
1.0
 40
2.0
 40
2.0
 40
2.0
 40
3.0
 40
3.0
 40
3.0
 40
4.0
 40
4.0
 40
4.0
 40
5.0
 40
5.0
 40
5.0
 40
6.0
 40
6.0
 40
6.0
 40
7.0
 40
7.0
 40
7.0
 40
8.0
 40
8.0
 40
8.0
 40
9.0
 40
9.0
 40
9.0
 40
9.0
 10
2.437172160654073
 20
-19.87044583333333
 30
0.0
 10
2.451966604724778
 20
-19.87044583333333
 30
0.0
 10
2.467697159882947
 20
-19.86829861111111
 30
0.0
 10
2.484015215026274
 20
-19.86372916666667
 30
0.0
 10
2.484015215026274
 20
-19.86372916666667
 30
0.0
 10
3.072454089049946
 20
-19.6282888888889
 30
0.0
 10
3.072454089049946
 20
-19.6282888888889
 30
0.0
 10
3.111567976950735
 20
-19.61265833333333
 30
0.0
 10
3.141033253984157
 20
-19.5896111111111
 30
0.0
 10
3.157712420229473
 20
-19.56158194444444
 30
0.0
 10
3.175716586441315
 20
-19.53129444444446
 30
0.0
 10
3.178126308602663
 20
-19.4958625
 30
0.0
 10
3.164491586724883
 20
-19.46181527777778
 30
0.0
 10
3.152156864814262
 20
-19.43100277777777
 30
0.0
 10
3.130933254239304
 20
-19.40854305555556
 30
0.0
 10
3.103079088276293
 20
-19.39673194444445
 30
0.0
 10
3.069494366902493
 20
-19.38242361111111
 30
0.0
 10
3.028356867941713
 20
-19.38457083333333
 30
0.0
 10
2.983911035731176
 20
-19.40268750000001
 30
0.0
 10
2.983911035731176
 20
-19.40268750000001
 30
0.0
 10
2.394123550630461
 20
-19.64200972222223
 30
0.0
 10
2.394123550630461
 20
-19.64200972222223
 30
0.0
 10
2.330338830019577
 20
-19.67508333333333
 30
0.0
 10
2.303208333333335
 20
-19.73738194444445
 30
0.0
 10
2.326605496780556
 20
-19.79702222222221
 30
0.0
 10
2.344958333333339
 20
-19.84392777777778
 30
0.0
 10
2.385609661956651
 20
-19.87044583333333
 30
0.0
 10
2.437172160654073
 20
-19.87044583333333
 30
0.0
  0
HATCH
  5
7A
330
1F
100
AcDbEntity
  8
Layer 1
 62
     7
420
 16777215
100
AcDbHatch
 10
0.0
 20
0.0
 30
0.0
210
0.0
220
0.0
230
1.0
  2
SOLID
 70
     1
 71
     0
 91
        1
 92
        1
 93
        1
 72
     4
 94
        3
 73
     0
 74
     1
 95
       32
 96
       28
 40
0.0
 40
0.0
 40
0.0
 40
0.0
 40
1.0
 40
1.0
 40
1.0
 40
2.0
 40
2.0
 40
2.0
 40
3.0
 40
3.0
 40
3.0
 40
4.0
 40
4.0
 40
4.0
 40
5.0
 40
5.0
 40
5.0
 40
6.0
 40
6.0
 40
6.0
 40
7.0
 40
7.0
 40
7.0
 40
8.0
 40
8.0
 40
8.0
 40
9.0
 40
9.0
 40
9.0
 40
9.0
 10
2.437172160654073
 20
-19.87044583333333
 10
2.451966604724778
 20
-19.87044583333333
 10
2.467697159882947
 20
-19.86829861111111
 10
2.484015215026274
 20
-19.86372916666667
 10
2.484015215026274
 20
-19.86372916666667
 10
3.072454089049946
 20
-19.6282888888889
 10
3.072454089049946
 20
-19.6282888888889
 10
3.111567976950735
 20
-19.61265833333333
 10
3.141033253984157
 20
-19.5896111111111
 10
3.157712420229473
 20
-19.56158194444444
 10
3.175716586441315
 20
-19.53129444444446
 10
3.178126308602663
 20
-19.4958625
 10
3.164491586724883
 20
-19.46181527777778
 10
3.152156864814262
 20
-19.43100277777777
 10
3.130933254239304
 20
-19.40854305555556
 10
3.103079088276293
 20
-19.39673194444445
 10
3.069494366902493
 20
-19.38242361111111
 10
3.028356867941713
 20
-19.38457083333333
 10
2.983911035731176
 20
-19.40268750000001
 10
2.983911035731176
 20
-19.40268750000001
 10
2.394123550630461
 20
-19.64200972222223
 10
2.394123550630461
 20
-19.64200972222223
 10
2.330338830019577
 20
-19.67508333333333
 10
2.303208333333335
 20
-19.73738194444445
 10
2.326605496780556
 20
-19.79702222222221
 10
2.344958333333339
 20
-19.84392777777778
 10
2.385609661956651
 20
-19.87044583333333
 10
2.437172160654073
 20
-19.87044583333333
 97
        0
 97
        0
 75
     2
 76
     1
 98
        0
  0
SPLINE
  5
7B
330
1F
100
AcDbEntity
  8
Layer 1
370
     0
100
AcDbSpline
210
0.0
220
0.0
230
1.0
 70
    11
 71
     3
 72
    32
 73
    28
 74
     0
 42
0.0000000001
 43
0.0000000001
 12
1.0
 22
0.0
 32
0.0
 13
1.0
 23
0.0
 33
0.0
 40
0.0
 40
0.0
 40
0.0
 40
0.0
 40
1.0
 40
1.0
 40
1.0
 40
2.0
 40
2.0
 40
2.0
 40
3.0
 40
3.0
 40
3.0
 40
4.0
 40
4.0
 40
4.0
 40
5.0
 40
5.0
 40
5.0
 40
6.0
 40
6.0
 40
6.0
 40
7.0
 40
7.0
 40
7.0
 40
8.0
 40
8.0
 40
8.0
 40
9.0
 40
9.0
 40
9.0
 40
9.0
 10
4.007809620976433
 20
-20.7061236111111
 30
0.0
 10
3.971591566335822
 20
-20.71058055555555
 30
0.0
 10
3.936933233878032
 20
-20.73294027777777
 30
0.0
 10
3.907605456841136
 20
-20.77074444444444
 30
0.0
 10
3.907605456841136
 20
-20.77074444444444
 30
0.0
 10
3.516491577832615
 20
-21.2730125
 30
0.0
 10
3.516491577832615
 20
-21.2730125
 30
0.0
 10
3.477751301033499
 20
-21.3334638888889
 30
0.0
 10
3.485391578618267
 20
-21.40098333333334
 30
0.0
 10
3.535480466241804
 20
-21.44099722222222
 30
0.0
 10
3.557055555555558
 20
-21.4581888888889
 30
0.0
 10
3.581349909527489
 20
-21.46681527777777
 30
0.0
 10
3.606245742231901
 20
-21.46681527777777
 30
0.0
 10
3.639854074716216
 20
-21.46681527777777
 30
0.0
 10
3.674574907172428
 20
-21.45118472222223
 30
0.0
 10
3.705201295287629
 20
-21.42009722222221
 30
0.0
 10
3.705201295287629
 20
-21.42009722222221
 30
0.0
 10
4.097076285388034
 20
-20.922
 30
0.0
 10
4.097076285388034
 20
-20.922
 30
0.0
 10
4.123133229174224
 20
-20.88887777777778
 30
0.0
 10
4.137115173265455
 20
-20.85413194444444
 30
0.0
 10
4.13751517325535
 20
-20.82153333333334
 30
0.0
 10
4.137952673244298
 20
-20.78632638888888
 30
0.0
 10
4.122345729194118
 20
-20.75441527777778
 30
0.0
 10
4.093505452144907
 20
-20.73171666666667
 30
0.0
 10
4.067424897248202
 20
-20.71122916666667
 30
0.0
 10
4.037636009111844
 20
-20.70219027777777
 30
0.0
 10
4.007809620976433
 20
-20.7061236111111
 30
0.0
  0
HATCH
  5
7C
330
1F
100
AcDbEntity
  8
Layer 1
 62
     7
420
 16777215
100
AcDbHatch
 10
0.0
 20
0.0
 30
0.0
210
0.0
220
0.0
230
1.0
  2
SOLID
 70
     1
 71
     0
 91
        1
 92
        1
 93
        1
 72
     4
 94
        3
 73
     0
 74
     1
 95
       32
 96
       28
 40
0.0
 40
0.0
 40
0.0
 40
0.0
 40
1.0
 40
1.0
 40
1.0
 40
2.0
 40
2.0
 40
2.0
 40
3.0
 40
3.0
 40
3.0
 40
4.0
 40
4.0
 40
4.0
 40
5.0
 40
5.0
 40
5.0
 40
6.0
 40
6.0
 40
6.0
 40
7.0
 40
7.0
 40
7.0
 40
8.0
 40
8.0
 40
8.0
 40
9.0
 40
9.0
 40
9.0
 40
9.0
 10
4.007809620976433
 20
-20.7061236111111
 10
3.971591566335822
 20
-20.71058055555555
 10
3.936933233878032
 20
-20.73294027777777
 10
3.907605456841136
 20
-20.77074444444444
 10
3.907605456841136
 20
-20.77074444444444
 10
3.516491577832615
 20
-21.2730125
 10
3.516491577832615
 20
-21.2730125
 10
3.477751301033499
 20
-21.3334638888889
 10
3.485391578618267
 20
-21.40098333333334
 10
3.535480466241804
 20
-21.44099722222222
 10
3.557055555555558
 20
-21.4581888888889
 10
3.581349909527489
 20
-21.46681527777777
 10
3.606245742231901
 20
-21.46681527777777
 10
3.639854074716216
 20
-21.46681527777777
 10
3.674574907172428
 20
-21.45118472222223
 10
3.705201295287629
 20
-21.42009722222221
 10
3.705201295287629
 20
-21.42009722222221
 10
4.097076285388034
 20
-20.922
 10
4.097076285388034
 20
-20.922
 10
4.123133229174224
 20
-20.88887777777778
 10
4.137115173265455
 20
-20.85413194444444
 10
4.13751517325535
 20
-20.82153333333334
 10
4.137952673244298
 20
-20.78632638888888
 10
4.122345729194118
 20
-20.75441527777778
 10
4.093505452144907
 20
-20.73171666666667
 10
4.067424897248202
 20
-20.71122916666667
 10
4.037636009111844
 20
-20.70219027777777
 10
4.007809620976433
 20
-20.7061236111111
 97
        0
 97
        0
 75
     2
 76
     1
 98
        0
  0
SPLINE
  5
7D
330
1F
100
AcDbEntity
  8
Layer 1
370
     0
100
AcDbSpline
210
0.0
220
0.0
230
1.0
 70
    11
 71
     3
 72
    32
 73
    28
 74
     0
 42
0.0000000001
 43
0.0000000001
 12
1.0
 22
0.0
 32
0.0
 13
1.0
 23
0.0
 33
0.0
 40
0.0
 40
0.0
 40
0.0
 40
0.0
 40
1.0
 40
1.0
 40
1.0
 40
2.0
 40
2.0
 40
2.0
 40
3.0
 40
3.0
 40
3.0
 40
4.0
 40
4.0
 40
4.0
 40
5.0
 40
5.0
 40
5.0
 40
6.0
 40
6.0
 40
6.0
 40
7.0
 40
7.0
 40
7.0
 40
8.0
 40
8.0
 40
8.0
 40
9.0
 40
9.0
 40
9.0
 40
9.0
 10
5.533052638001108
 20
-21.36704861111111
 30
0.0
 10
5.500242916607728
 20
-21.36241666666665
 30
0.0
 10
5.470141528479265
 20
-21.36948333333334
 30
0.0
 10
5.445995695755906
 20
-21.38772361111112
 30
0.0
 10
5.416867918713958
 20
-21.40967222222222
 30
0.0
 10
5.398041666666662
 20
-21.44632777777777
 30
0.0
 10
5.391560974908821
 20
-21.49374583333332
 30
0.0
 10
5.391560974908821
 20
-21.49374583333332
 30
0.0
 10
5.303916666666661
 20
-22.12433333333332
 30
0.0
 10
5.303916666666661
 20
-22.12433333333332
 30
0.0
 10
5.300645699427756
 20
-22.19607083333333
 30
0.0
 10
5.341034587296336
 20
-22.25073055555557
 30
0.0
 10
5.404383196807126
 20
-22.26029305555554
 30
0.0
 10
5.410874999999995
 20
-22.26128055555556
 30
0.0
 10
5.417242918704485
 20
-22.26179166666667
 30
0.0
 10
5.423497085213158
 20
-22.26179166666667
 30
0.0
 10
5.478942917145812
 20
-22.26179166666667
 30
0.0
 10
5.523751249347192
 20
-22.2234638888889
 30
0.0
 10
5.540930555555557
 20
-22.15733055555557
 30
0.0
 10
5.540930555555557
 20
-22.15733055555557
 30
0.0
 10
5.631233191076413
 20
-21.53000138888888
 30
0.0
 10
5.631233191076413
 20
-21.53000138888888
 30
0.0
 10
5.637226246480572
 20
-21.48830277777776
 30
0.0
 10
5.631983191057467
 20
-21.45124722222221
 30
0.0
 10
5.616052635904351
 20
-21.42281944444443
 30
0.0
 10
5.598835969672614
 20
-21.39206805555555
 30
0.0
 10
5.569358192639507
 20
-21.37226805555555
 30
0.0
 10
5.533052638001108
 20
-21.36704861111111
 30
0.0
  0
HATCH
  5
7E
330
1F
100
AcDbEntity
  8
Layer 1
 62
     7
420
 16777215
100
AcDbHatch
 10
0.0
 20
0.0
 30
0.0
210
0.0
220
0.0
230
1.0
  2
SOLID
 70
     1
 71
     0
 91
        1
 92
        1
 93
        1
 72
     4
 94
        3
 73
     0
 74
     1
 95
       32
 96
       28
 40
0.0
 40
0.0
 40
0.0
 40
0.0
 40
1.0
 40
1.0
 40
1.0
 40
2.0
 40
2.0
 40
2.0
 40
3.0
 40
3.0
 40
3.0
 40
4.0
 40
4.0
 40
4.0
 40
5.0
 40
5.0
 40
5.0
 40
6.0
 40
6.0
 40
6.0
 40
7.0
 40
7.0
 40
7.0
 40
8.0
 40
8.0
 40
8.0
 40
9.0
 40
9.0
 40
9.0
 40
9.0
 10
5.533052638001108
 20
-21.36704861111111
 10
5.500242916607728
 20
-21.36241666666665
 10
5.470141528479265
 20
-21.36948333333334
 10
5.445995695755906
 20
-21.38772361111112
 10
5.416867918713958
 20
-21.40967222222222
 10
5.398041666666662
 20
-21.44632777777777
 10
5.391560974908821
 20
-21.49374583333332
 10
5.391560974908821
 20
-21.49374583333332
 10
5.303916666666661
 20
-22.12433333333332
 10
5.303916666666661
 20
-22.12433333333332
 10
5.300645699427756
 20
-22.19607083333333
 10
5.341034587296336
 20
-22.25073055555557
 10
5.404383196807126
 20
-22.26029305555554
 10
5.410874999999995
 20
-22.26128055555556
 10
5.417242918704485
 20
-22.26179166666667
 10
5.423497085213158
 20
-22.26179166666667
 10
5.478942917145812
 20
-22.26179166666667
 10
5.523751249347192
 20
-22.2234638888889
 10
5.540930555555557
 20
-22.15733055555557
 10
5.540930555555557
 20
-22.15733055555557
 10
5.631233191076413
 20
-21.53000138888888
 10
5.631233191076413
 20
-21.53000138888888
 10
5.637226246480572
 20
-21.48830277777776
 10
5.631983191057467
 20
-21.45124722222221
 10
5.616052635904351
 20
-21.42281944444443
 10
5.598835969672614
 20
-21.39206805555555
 10
5.569358192639507
 20
-21.37226805555555
 10
5.533052638001108
 20
-21.36704861111111
 97
        0
 97
        0
 75
     2
 76
     1
 98
        0
  0
SPLINE
  5
7F
330
1F
100
AcDbEntity
  8
Layer 1
370
     0
100
AcDbSpline
210
0.0
220
0.0
230
1.0
 70
    11
 71
     3
 72
    32
 73
    28
 74
     0
 42
0.0000000001
 43
0.0000000001
 12
1.0
 22
0.0
 32
0.0
 13
1.0
 23
0.0
 33
0.0
 40
0.0
 40
0.0
 40
0.0
 40
0.0
 40
1.0
 40
1.0
 40
1.0
 40
2.0
 40
2.0
 40
2.0
 40
3.0
 40
3.0
 40
3.0
 40
4.0
 40
4.0
 40
4.0
 40
5.0
 40
5.0
 40
5.0
 40
6.0
 40
6.0
 40
6.0
 40
7.0
 40
7.0
 40
7.0
 40
8.0
 40
8.0
 40
8.0
 40
9.0
 40
9.0
 40
9.0
 40
9.0
 10
7.263884538721059
 20
-21.28951805555554
 30
0.0
 10
7.248215094672458
 20
-21.25037777777778
 30
0.0
 10
7.225144261921943
 20
-21.2209
 30
0.0
 10
7.197115095963353
 20
-21.20422083333334
 30
0.0
 10
7.166776207840889
 20
-21.18626805555555
 30
0.0
 10
7.131306764292478
 20
-21.18384583333333
 30
0.0
 10
7.097348431817004
 20
-21.19750416666665
 30
0.0
 10
7.066598432593814
 20
-21.20978888888888
 30
0.0
 10
7.044099822051066
 20
-21.23103888888889
 30
0.0
 10
7.032290100127183
 20
-21.25889166666666
 30
0.0
 10
7.018044267153729
 20
-21.2924763888889
 30
0.0
 10
7.020103989323919
 20
-21.33370138888889
 30
0.0
 10
7.038194444444444
 20
-21.37793611111111
 30
0.0
 10
7.038194444444444
 20
-21.37793611111111
 30
0.0
 10
7.277580371708407
 20
-21.96787222222222
 30
0.0
 10
7.277580371708407
 20
-21.96787222222222
 30
0.0
 10
7.302737315517334
 20
-22.01640138888888
 30
0.0
 10
7.344798425565891
 20
-22.04366805555555
 30
0.0
 10
7.389731757764113
 20
-22.04366805555555
 30
0.0
 10
7.403865090740409
 20
-22.04366805555555
 30
0.0
 10
7.418309534819955
 20
-22.04094583333333
 30
0.0
 10
7.432580367792777
 20
-22.03539027777778
 30
0.0
 10
7.49295675515643
 20
-22.01170694444444
 30
0.0
 10
7.519562310039873
 20
-21.95114305555555
 30
0.0
 10
7.499324810551116
 20
-21.87794305555556
 30
0.0
 10
7.499324810551116
 20
-21.87794305555556
 30
0.0
 10
7.263884538721059
 20
-21.28951805555554
 30
0.0
 10
7.263884538721059
 20
-21.28951805555554
 30
0.0
  0
HATCH
  5
80
330
1F
100
AcDbEntity
  8
Layer 1
 62
     7
420
 16777215
100
AcDbHatch
 10
0.0
 20
0.0
 30
0.0
210
0.0
220
0.0
230
1.0
  2
SOLID
 70
     1
 71
     0
 91
        1
 92
        1
 93
        1
 72
     4
 94
        3
 73
     0
 74
     1
 95
       32
 96
       28
 40
0.0
 40
0.0
 40
0.0
 40
0.0
 40
1.0
 40
1.0
 40
1.0
 40
2.0
 40
2.0
 40
2.0
 40
3.0
 40
3.0
 40
3.0
 40
4.0
 40
4.0
 40
4.0
 40
5.0
 40
5.0
 40
5.0
 40
6.0
 40
6.0
 40
6.0
 40
7.0
 40
7.0
 40
7.0
 40
8.0
 40
8.0
 40
8.0
 40
9.0
 40
9.0
 40
9.0
 40
9.0
 10
7.263884538721059
 20
-21.28951805555554
 10
7.248215094672458
 20
-21.25037777777778
 10
7.225144261921943
 20
-21.2209
 10
7.197115095963353
 20
-21.20422083333334
 10
7.166776207840889
 20
-21.18626805555555
 10
7.131306764292478
 20
-21.18384583333333
 10
7.097348431817004
 20
-21.19750416666665
 10
7.066598432593814
 20
-21.20978888888888
 10
7.044099822051066
 20
-21.23103888888889
 10
7.032290100127183
 20
-21.25889166666666
 10
7.018044267153729
 20
-21.2924763888889
 10
7.020103989323919
 20
-21.33370138888889
 10
7.038194444444444
 20
-21.37793611111111
 10
7.038194444444444
 20
-21.37793611111111
 10
7.277580371708407
 20
-21.96787222222222
 10
7.277580371708407
 20
-21.96787222222222
 10
7.302737315517334
 20
-22.01640138888888
 10
7.344798425565891
 20
-22.04366805555555
 10
7.389731757764113
 20
-22.04366805555555
 10
7.403865090740409
 20
-22.04366805555555
 10
7.418309534819955
 20
-22.04094583333333
 10
7.432580367792777
 20
-22.03539027777778
 10
7.49295675515643
 20
-22.01170694444444
 10
7.519562310039873
 20
-21.95114305555555
 10
7.499324810551116
 20
-21.87794305555556
 10
7.499324810551116
 20
-21.87794305555556
 10
7.263884538721059
 20
-21.28951805555554
 10
7.263884538721059
 20
-21.28951805555554
 97
        0
 97
        0
 75
     2
 76
     1
 98
        0
  0
SPLINE
  5
81
330
1F
100
AcDbEntity
  8
Layer 1
370
     0
100
AcDbSpline
210
0.0
220
0.0
230
1.0
 70
    11
 71
     3
 72
    32
 73
    28
 74
     0
 42
0.0000000001
 43
0.0000000001
 12
1.0
 22
0.0
 32
0.0
 13
1.0
 23
0.0
 33
0.0
 40
0.0
 40
0.0
 40
0.0
 40
0.0
 40
1.0
 40
1.0
 40
1.0
 40
2.0
 40
2.0
 40
2.0
 40
3.0
 40
3.0
 40
3.0
 40
4.0
 40
4.0
 40
4.0
 40
5.0
 40
5.0
 40
5.0
 40
6.0
 40
6.0
 40
6.0
 40
7.0
 40
7.0
 40
7.0
 40
8.0
 40
8.0
 40
8.0
 40
9.0
 40
9.0
 40
9.0
 40
9.0
 10
8.341655344827611
 20
-20.3541861111111
 30
0.0
 10
8.346125000000004
 20
-20.39036805555555
 30
0.0
 10
8.368498399705054
 20
-20.42506249999999
 30
0.0
 10
8.406315065416392
 20
-20.45435277777779
 30
0.0
 10
8.406315065416392
 20
-20.45435277777779
 30
0.0
 10
8.906323386118451
 20
-20.84394444444446
 30
0.0
 10
8.906323386118451
 20
-20.84394444444446
 30
0.0
 10
8.906323386118451
 20
-20.84394444444446
 30
0.0
 10
8.908545608284536
 20
-20.84550416666666
 30
0.0
 10
8.908545608284536
 20
-20.84550416666666
 30
0.0
 10
8.934251163190714
 20
-20.86194722222222
 30
0.0
 10
8.961244218064367
 20
-20.87004999999999
 30
0.0
 10
8.986838661862242
 20
-20.87004999999999
 30
0.0
 10
9.021458333333333
 20
-20.87004999999999
 30
0.0
 10
9.053569444444443
 20
-20.85529305555555
 30
0.0
 10
9.076553937373621
 20
-20.82651527777777
 30
0.0
 10
9.117030325239991
 20
-20.77578888888888
 30
0.0
 10
9.109790047645118
 20
-20.71006805555556
 30
0.0
 10
9.055630326791086
 20
-20.65679583333334
 30
0.0
 10
9.055630326791086
 20
-20.65679583333334
 30
0.0
 10
8.557531728263005
 20
-20.26495694444444
 30
0.0
 10
8.557531728263005
 20
-20.26495694444444
 30
0.0
 10
8.487292841148498
 20
-20.20964861111111
 30
0.0
 10
8.412595620813287
 20
-20.21092222222223
 30
0.0
 10
8.367287288624539
 20
-20.26849027777778
 30
0.0
 10
8.34681228914178
 20
-20.29448333333335
 30
0.0
 10
8.337960900476496
 20
-20.32413472222222
 30
0.0
 10
8.341655344827611
 20
-20.3541861111111
 30
0.0
  0
HATCH
  5
82
330
1F
100
AcDbEntity
  8
Layer 1
 62
     7
420
 16777215
100
AcDbHatch
 10
0.0
 20
0.0
 30
0.0
210
0.0
220
0.0
230
1.0
  2
SOLID
 70
     1
 71
     0
 91
        1
 92
        1
 93
        1
 72
     4
 94
        3
 73
     0
 74
     1
 95
       32
 96
       28
 40
0.0
 40
0.0
 40
0.0
 40
0.0
 40
1.0
 40
1.0
 40
1.0
 40
2.0
 40
2.0
 40
2.0
 40
3.0
 40
3.0
 40
3.0
 40
4.0
 40
4.0
 40
4.0
 40
5.0
 40
5.0
 40
5.0
 40
6.0
 40
6.0
 40
6.0
 40
7.0
 40
7.0
 40
7.0
 40
8.0
 40
8.0
 40
8.0
 40
9.0
 40
9.0
 40
9.0
 40
9.0
 10
8.341655344827611
 20
-20.3541861111111
 10
8.346125000000004
 20
-20.39036805555555
 10
8.368498399705054
 20
-20.42506249999999
 10
8.406315065416392
 20
-20.45435277777779
 10
8.406315065416392
 20
-20.45435277777779
 10
8.906323386118451
 20
-20.84394444444446
 10
8.906323386118451
 20
-20.84394444444446
 10
8.906323386118451
 20
-20.84394444444446
 10
8.908545608284536
 20
-20.84550416666666
 10
8.908545608284536
 20
-20.84550416666666
 10
8.934251163190714
 20
-20.86194722222222
 10
8.961244218064367
 20
-20.87004999999999
 10
8.986838661862242
 20
-20.87004999999999
 10
9.021458333333333
 20
-20.87004999999999
 10
9.053569444444443
 20
-20.85529305555555
 10
9.076553937373621
 20
-20.82651527777777
 10
9.117030325239991
 20
-20.77578888888888
 10
9.109790047645118
 20
-20.71006805555556
 10
9.055630326791086
 20
-20.65679583333334
 10
9.055630326791086
 20
-20.65679583333334
 10
8.557531728263005
 20
-20.26495694444444
 10
8.557531728263005
 20
-20.26495694444444
 10
8.487292841148498
 20
-20.20964861111111
 10
8.412595620813287
 20
-20.21092222222223
 10
8.367287288624539
 20
-20.26849027777778
 10
8.34681228914178
 20
-20.29448333333335
 10
8.337960900476496
 20
-20.32413472222222
 10
8.341655344827611
 20
-20.3541861111111
 97
        0
 97
        0
 75
     2
 76
     1
 98
        0
  0
SPLINE
  5
83
330
1F
100
AcDbEntity
  8
Layer 1
370
     0
100
AcDbSpline
210
0.0
220
0.0
230
1.0
 70
    11
 71
     3
 72
    32
 73
    28
 74
     0
 42
0.0000000001
 43
0.0000000001
 12
1.0
 22
0.0
 32
0.0
 13
1.0
 23
0.0
 33
0.0
 40
0.0
 40
0.0
 40
0.0
 40
0.0
 40
1.0
 40
1.0
 40
1.0
 40
2.0
 40
2.0
 40
2.0
 40
3.0
 40
3.0
 40
3.0
 40
4.0
 40
4.0
 40
4.0
 40
5.0
 40
5.0
 40
5.0
 40
6.0
 40
6.0
 40
6.0
 40
7.0
 40
7.0
 40
7.0
 40
8.0
 40
8.0
 40
8.0
 40
9.0
 40
9.0
 40
9.0
 40
9.0
 10
9.129340047151244
 20
-18.97043472222223
 30
0.0
 10
9.129340047151244
 20
-18.97043472222223
 30
0.0
 10
9.757144197958242
 20
-19.05775416666668
 30
0.0
 10
9.757144197958242
 20
-19.05775416666668
 30
0.0
 10
9.757144197958242
 20
-19.05775416666668
 30
0.0
 10
9.759828920112643
 20
-19.05799166666667
 30
0.0
 10
9.759828920112643
 20
-19.05799166666667
 30
0.0
 10
9.762612253375664
 20
-19.05815416666668
 30
0.0
 10
9.765334475529118
 20
-19.05821666666667
 30
0.0
 10
9.768055555555545
 20
-19.05821666666667
 30
0.0
 10
9.83577336263857
 20
-19.05821666666667
 30
0.0
 10
9.886649750242213
 20
-19.01855138888888
 30
0.0
 10
9.895826138899286
 20
-18.95757500000001
 30
0.0
 10
9.905577527541835
 20
-18.89347777777779
 30
0.0
 10
9.866437250752824
 20
-18.84015555555556
 30
0.0
 10
9.792863641500338
 20
-18.82104027777778
 30
0.0
 10
9.792863641500338
 20
-18.82104027777778
 30
0.0
 10
9.16553449068134
 20
-18.73071250000001
 30
0.0
 10
9.16553449068134
 20
-18.73071250000001
 30
0.0
 10
9.077016437361937
 20
-18.71779027777777
 30
0.0
 10
9.012981716757368
 20
-18.75659305555556
 30
0.0
 10
9.002581717020094
 20
-18.82891805555555
 30
0.0
 10
8.997899772693927
 20
-18.86174166666668
 30
0.0
 10
9.005041666666658
 20
-18.89180555555557
 30
0.0
 10
9.023231716498431
 20
-18.91595138888889
 30
0.0
 10
9.045180555555563
 20
-18.94507777777777
 30
0.0
 10
9.08188588168337
 20
-18.96395555555556
 30
0.0
 10
9.129340047151244
 20
-18.97043472222223
 30
0.0
  0
HATCH
  5
84
330
1F
100
AcDbEntity
  8
Layer 1
 62
     7
420
 16777215
100
AcDbHatch
 10
0.0
 20
0.0
 30
0.0
210
0.0
220
0.0
230
1.0
  2
SOLID
 70
     1
 71
     0
 91
        1
 92
        1
 93
        1
 72
     4
 94
        3
 73
     0
 74
     1
 95
       32
 96
       28
 40
0.0
 40
0.0
 40
0.0
 40
0.0
 40
1.0
 40
1.0
 40
1.0
 40
2.0
 40
2.0
 40
2.0
 40
3.0
 40
3.0
 40
3.0
 40
4.0
 40
4.0
 40
4.0
 40
5.0
 40
5.0
 40
5.0
 40
6.0
 40
6.0
 40
6.0
 40
7.0
 40
7.0
 40
7.0
 40
8.0
 40
8.0
 40
8.0
 40
9.0
 40
9.0
 40
9.0
 40
9.0
 10
9.129340047151244
 20
-18.97043472222223
 10
9.129340047151244
 20
-18.97043472222223
 10
9.757144197958242
 20
-19.05775416666668
 10
9.757144197958242
 20
-19.05775416666668
 10
9.757144197958242
 20
-19.05775416666668
 10
9.759828920112643
 20
-19.05799166666667
 10
9.759828920112643
 20
-19.05799166666667
 10
9.762612253375664
 20
-19.05815416666668
 10
9.765334475529118
 20
-19.05821666666667
 10
9.768055555555545
 20
-19.05821666666667
 10
9.83577336263857
 20
-19.05821666666667
 10
9.886649750242213
 20
-19.01855138888888
 10
9.895826138899286
 20
-18.95757500000001
 10
9.905577527541835
 20
-18.89347777777779
 10
9.866437250752824
 20
-18.84015555555556
 10
9.792863641500338
 20
-18.82104027777778
 10
9.792863641500338
 20
-18.82104027777778
 10
9.16553449068134
 20
-18.73071250000001
 10
9.16553449068134
 20
-18.73071250000001
 10
9.077016437361937
 20
-18.71779027777777
 10
9.012981716757368
 20
-18.75659305555556
 10
9.002581717020094
 20
-18.82891805555555
 10
8.997899772693927
 20
-18.86174166666668
 10
9.005041666666658
 20
-18.89180555555557
 10
9.023231716498431
 20
-18.91595138888889
 10
9.045180555555563
 20
-18.94507777777777
 10
9.08188588168337
 20
-18.96395555555556
 10
9.129340047151244
 20
-18.97043472222223
 97
        0
 97
        0
 75
     2
 76
     1
 98
        0
  0
SPLINE
  5
85
330
1F
100
AcDbEntity
  8
Layer 1
370
     0
100
AcDbSpline
210
0.0
220
0.0
230
1.0
 70
    11
 71
     3
 72
    32
 73
    28
 74
     0
 42
0.0000000001
 43
0.0000000001
 12
1.0
 22
0.0
 32
0.0
 13
1.0
 23
0.0
 33
0.0
 40
0.0
 40
0.0
 40
0.0
 40
0.0
 40
1.0
 40
1.0
 40
1.0
 40
2.0
 40
2.0
 40
2.0
 40
3.0
 40
3.0
 40
3.0
 40
4.0
 40
4.0
 40
4.0
 40
5.0
 40
5.0
 40
5.0
 40
6.0
 40
6.0
 40
6.0
 40
7.0
 40
7.0
 40
7.0
 40
8.0
 40
8.0
 40
8.0
 40
9.0
 40
9.0
 40
9.0
 40
9.0
 10
8.894387275308873
 20
-17.32964444444445
 30
0.0
 10
8.90913171938084
 20
-17.33589861111111
 30
0.0
 10
8.92533727452701
 20
-17.33903333333333
 30
0.0
 10
8.942628940756851
 20
-17.33903333333333
 30
0.0
 10
8.96474005130939
 20
-17.33903333333333
 30
0.0
 10
8.988660884038431
 20
-17.33392638888889
 30
0.0
 10
9.013580327853358
 20
-17.32373888888888
 30
0.0
 10
9.013580327853358
 20
-17.32373888888888
 30
0.0
 10
9.603380312953757
 20
-17.08441527777778
 30
0.0
 10
9.603380312953757
 20
-17.08441527777778
 30
0.0
 10
9.667127533565589
 20
-17.05135555555555
 30
0.0
 10
9.694258088435769
 20
-16.98905555555555
 30
0.0
 10
9.67092336680303
 20
-16.92935277777777
 30
0.0
 10
9.64724003406799
 20
-16.86901388888888
 30
0.0
 10
9.586699757819588
 20
-16.84214583333333
 30
0.0
 10
9.51347614855826
 20
-16.86270833333333
 30
0.0
 10
9.51347614855826
 20
-16.86270833333333
 30
0.0
 10
8.925074774533641
 20
-17.09814861111111
 30
0.0
 10
8.925074774533641
 20
-17.09814861111111
 30
0.0
 10
8.88593449774463
 20
-17.11378055555555
 30
0.0
 10
8.856458333333345
 20
-17.13682777777777
 30
0.0
 10
8.839816443354113
 20
-17.16485555555555
 30
0.0
 10
8.821812277142271
 20
-17.19513194444444
 30
0.0
 10
8.819377554981555
 20
-17.23057638888888
 30
0.0
 10
8.833012276859336
 20
-17.26462222222221
 30
0.0
 10
8.84534722222222
 20
-17.29537361111112
 30
0.0
 10
8.866570609344913
 20
-17.31783333333333
 30
0.0
 10
8.894387275308873
 20
-17.32964444444445
 30
0.0
  0
HATCH
  5
86
330
1F
100
AcDbEntity
  8
Layer 1
 62
     7
420
 16777215
100
AcDbHatch
 10
0.0
 20
0.0
 30
0.0
210
0.0
220
0.0
230
1.0
  2
SOLID
 70
     1
 71
     0
 91
        1
 92
        1
 93
        1
 72
     4
 94
        3
 73
     0
 74
     1
 95
       32
 96
       28
 40
0.0
 40
0.0
 40
0.0
 40
0.0
 40
1.0
 40
1.0
 40
1.0
 40
2.0
 40
2.0
 40
2.0
 40
3.0
 40
3.0
 40
3.0
 40
4.0
 40
4.0
 40
4.0
 40
5.0
 40
5.0
 40
5.0
 40
6.0
 40
6.0
 40
6.0
 40
7.0
 40
7.0
 40
7.0
 40
8.0
 40
8.0
 40
8.0
 40
9.0
 40
9.0
 40
9.0
 40
9.0
 10
8.894387275308873
 20
-17.32964444444445
 10
8.90913171938084
 20
-17.33589861111111
 10
8.92533727452701
 20
-17.33903333333333
 10
8.942628940756851
 20
-17.33903333333333
 10
8.96474005130939
 20
-17.33903333333333
 10
8.988660884038431
 20
-17.33392638888889
 10
9.013580327853358
 20
-17.32373888888888
 10
9.013580327853358
 20
-17.32373888888888
 10
9.603380312953757
 20
-17.08441527777778
 10
9.603380312953757
 20
-17.08441527777778
 10
9.667127533565589
 20
-17.05135555555555
 10
9.694258088435769
 20
-16.98905555555555
 10
9.67092336680303
 20
-16.92935277777777
 10
9.64724003406799
 20
-16.86901388888888
 10
9.586699757819588
 20
-16.84214583333333
 10
9.51347614855826
 20
-16.86270833333333
 10
9.51347614855826
 20
-16.86270833333333
 10
8.925074774533641
 20
-17.09814861111111
 10
8.925074774533641
 20
-17.09814861111111
 10
8.88593449774463
 20
-17.11378055555555
 10
8.856458333333345
 20
-17.13682777777777
 10
8.839816443354113
 20
-17.16485555555555
 10
8.821812277142271
 20
-17.19513194444444
 10
8.819377554981555
 20
-17.23057638888888
 10
8.833012276859336
 20
-17.26462222222221
 10
8.84534722222222
 20
-17.29537361111112
 10
8.866570609344913
 20
-17.31783333333333
 10
8.894387275308873
 20
-17.32964444444445
 97
        0
 97
        0
 75
     2
 76
     1
 98
        0
  0
SPLINE
  5
87
330
1F
100
AcDbEntity
  8
Layer 1
370
     0
100
AcDbSpline
210
0.0
220
0.0
230
1.0
 70
    11
 71
     3
 72
    29
 73
    25
 74
     0
 42
0.0000000001
 43
0.0000000001
 12
1.0
 22
0.0
 32
0.0
 13
1.0
 23
0.0
 33
0.0
 40
0.0
 40
0.0
 40
0.0
 40
0.0
 40
1.0
 40
1.0
 40
1.0
 40
2.0
 40
2.0
 40
2.0
 40
3.0
 40
3.0
 40
3.0
 40
4.0
 40
4.0
 40
4.0
 40
5.0
 40
5.0
 40
5.0
 40
6.0
 40
6.0
 40
6.0
 40
7.0
 40
7.0
 40
7.0
 40
8.0
 40
8.0
 40
8.0
 40
8.0
 10
7.976422020720848
 20
-16.02111388888889
 30
0.0
 10
7.980855353942186
 20
-16.02111388888889
 30
0.0
 10
7.98528729827467
 20
-16.02088888888889
 30
0.0
 10
7.989719242607154
 20
-16.02030277777778
 30
0.0
 10
8.025937297247765
 20
-16.01584583333334
 30
0.0
 10
8.060595629705555
 20
-15.99349722222222
 30
0.0
 10
8.08992340674245
 20
-15.95568055555556
 30
0.0
 10
8.08992340674245
 20
-15.95568055555556
 30
0.0
 10
8.48106228575034
 20
-15.45341388888889
 30
0.0
 10
8.48106228575034
 20
-15.45341388888889
 30
0.0
 10
8.519777777777765
 20
-15.39291111111111
 30
0.0
 10
8.51213728496532
 20
-15.32539305555555
 30
0.0
 10
8.46201089734273
 20
-15.28544166666667
 30
0.0
 10
8.411347222222224
 20
-15.24484027777777
 30
0.0
 10
8.345563678062211
 20
-15.25219444444445
 30
0.0
 10
8.29230256829659
 20
-15.30627916666666
 30
0.0
 10
8.29230256829659
 20
-15.30627916666666
 30
0.0
 10
7.900452578195553
 20
-15.80443888888889
 30
0.0
 10
7.900452578195553
 20
-15.80443888888889
 30
0.0
 10
7.845131746259741
 20
-15.87479166666667
 30
0.0
 10
7.846541666666679
 20
-15.94942638888888
 30
0.0
 10
7.904022022549825
 20
-15.99470833333333
 30
0.0
 10
7.926220633100153
 20
-16.01213750000001
 30
0.0
 10
7.951003965807407
 20
-16.02111388888889
 30
0.0
 10
7.976422020720848
 20
-16.02111388888889
 30
0.0
  0
HATCH
  5
88
330
1F
100
AcDbEntity
  8
Layer 1
 62
     7
420
 16777215
100
AcDbHatch
 10
0.0
 20
0.0
 30
0.0
210
0.0
220
0.0
230
1.0
  2
SOLID
 70
     1
 71
     0
 91
        1
 92
        1
 93
        1
 72
     4
 94
        3
 73
     0
 74
     1
 95
       29
 96
       25
 40
0.0
 40
0.0
 40
0.0
 40
0.0
 40
1.0
 40
1.0
 40
1.0
 40
2.0
 40
2.0
 40
2.0
 40
3.0
 40
3.0
 40
3.0
 40
4.0
 40
4.0
 40
4.0
 40
5.0
 40
5.0
 40
5.0
 40
6.0
 40
6.0
 40
6.0
 40
7.0
 40
7.0
 40
7.0
 40
8.0
 40
8.0
 40
8.0
 40
8.0
 10
7.976422020720848
 20
-16.02111388888889
 10
7.980855353942186
 20
-16.02111388888889
 10
7.98528729827467
 20
-16.02088888888889
 10
7.989719242607154
 20
-16.02030277777778
 10
8.025937297247765
 20
-16.01584583333334
 10
8.060595629705555
 20
-15.99349722222222
 10
8.08992340674245
 20
-15.95568055555556
 10
8.08992340674245
 20
-15.95568055555556
 10
8.48106228575034
 20
-15.45341388888889
 10
8.48106228575034
 20
-15.45341388888889
 10
8.519777777777765
 20
-15.39291111111111
 10
8.51213728496532
 20
-15.32539305555555
 10
8.46201089734273
 20
-15.28544166666667
 10
8.411347222222224
 20
-15.24484027777777
 10
8.345563678062211
 20
-15.25219444444445
 10
8.29230256829659
 20
-15.30627916666666
 10
8.29230256829659
 20
-15.30627916666666
 10
7.900452578195553
 20
-15.80443888888889
 10
7.900452578195553
 20
-15.80443888888889
 10
7.845131746259741
 20
-15.87479166666667
 10
7.846541666666679
 20
-15.94942638888888
 10
7.904022022549825
 20
-15.99470833333333
 10
7.926220633100153
 20
-16.01213750000001
 10
7.951003965807407
 20
-16.02111388888889
 10
7.976422020720848
 20
-16.02111388888889
 97
        0
 97
        0
 75
     2
 76
     1
 98
        0
  0
SPLINE
  5
89
330
1F
100
AcDbEntity
  8
Layer 1
370
     0
100
AcDbSpline
210
0.0
220
0.0
230
1.0
 70
    11
 71
     3
 72
    17
 73
    13
 74
     0
 42
0.0000000001
 43
0.0000000001
 12
1.0
 22
0.0
 32
0.0
 13
1.0
 23
0.0
 33
0.0
 40
0.0
 40
0.0
 40
0.0
 40
0.0
 40
1.0
 40
1.0
 40
1.0
 40
2.0
 40
2.0
 40
2.0
 40
3.0
 40
3.0
 40
3.0
 40
4.0
 40
4.0
 40
4.0
 40
4.0
 10
5.998751237347682
 20
-15.71689444444444
 30
0.0
 10
4.539579051987251
 20
-15.71689444444444
 30
0.0
 10
3.352452693087697
 20
-16.90403333333333
 30
0.0
 10
3.352452693087697
 20
-18.36324444444444
 30
0.0
 10
3.352452693087697
 20
-19.82239166666666
 30
0.0
 10
4.539579051987251
 20
-21.00948194444443
 30
0.0
 10
5.998751237347682
 20
-21.00948194444443
 30
0.0
 10
7.457924811596968
 20
-21.00948194444443
 30
0.0
 10
8.64505117049652
 20
-19.82239166666666
 30
0.0
 10
8.64505117049652
 20
-18.36324444444444
 30
0.0
 10
8.64505117049652
 20
-16.90403333333333
 30
0.0
 10
7.457924811596968
 20
-15.71689444444444
 30
0.0
 10
5.998751237347682
 20
-15.71689444444444
 30
0.0
  0
SPLINE
  5
8A
330
1F
100
AcDbEntity
  8
Layer 1
370
     0
100
AcDbSpline
210
0.0
220
0.0
230
1.0
 70
    11
 71
     3
 72
    17
 73
    13
 74
     0
 42
0.0000000001
 43
0.0000000001
 12
1.0
 22
0.0
 32
0.0
 13
1.0
 23
0.0
 33
0.0
 40
0.0
 40
0.0
 40
0.0
 40
0.0
 40
1.0
 40
1.0
 40
1.0
 40
2.0
 40
2.0
 40
2.0
 40
3.0
 40
3.0
 40
3.0
 40
4.0
 40
4.0
 40
4.0
 40
4.0
 10
8.424181731631709
 20
-18.36324444444444
 30
0.0
 10
8.424181731631709
 20
-19.70062638888887
 30
0.0
 10
7.33613453689587
 20
-20.78864861111111
 30
0.0
 10
5.998751237347682
 20
-20.78864861111111
 30
0.0
 10
4.661369326688347
 20
-20.78864861111111
 30
0.0
 10
3.57332213195251
 20
-19.70062638888887
 30
0.0
 10
3.57332213195251
 20
-18.36324444444444
 30
0.0
 10
3.57332213195251
 20
-17.02586111111111
 30
0.0
 10
4.661369326688347
 20
-15.93779027777777
 30
0.0
 10
5.998751237347682
 20
-15.93779027777777
 30
0.0
 10
7.33613453689587
 20
-15.93779027777777
 30
0.0
 10
8.424181731631709
 20
-17.02586111111111
 30
0.0
 10
8.424181731631709
 20
-18.36324444444444
 30
0.0
  0
HATCH
  5
8B
330
1F
100
AcDbEntity
  8
Layer 1
 62
     7
420
 16777215
100
AcDbHatch
 10
0.0
 20
0.0
 30
0.0
210
0.0
220
0.0
230
1.0
  2
SOLID
 70
     1
 71
     0
 91
        2
 92
        1
 93
        1
 72
     4
 94
        3
 73
     0
 74
     1
 95
       17
 96
       13
 40
0.0
 40
0.0
 40
0.0
 40
0.0
 40
1.0
 40
1.0
 40
1.0
 40
2.0
 40
2.0
 40
2.0
 40
3.0
 40
3.0
 40
3.0
 40
4.0
 40
4.0
 40
4.0
 40
4.0
 10
5.998751237347682
 20
-15.71689444444444
 10
4.539579051987251
 20
-15.71689444444444
 10
3.352452693087697
 20
-16.90403333333333
 10
3.352452693087697
 20
-18.36324444444444
 10
3.352452693087697
 20
-19.82239166666666
 10
4.539579051987251
 20
-21.00948194444443
 10
5.998751237347682
 20
-21.00948194444443
 10
7.457924811596968
 20
-21.00948194444443
 10
8.64505117049652
 20
-19.82239166666666
 10
8.64505117049652
 20
-18.36324444444444
 10
8.64505117049652
 20
-16.90403333333333
 10
7.457924811596968
 20
-15.71689444444444
 10
5.998751237347682
 20
-15.71689444444444
 97
        0
 97
        0
 92
        1
 93
        1
 72
     4
 94
        3
 73
     0
 74
     1
 95
       17
 96
       13
 40
0.0
 40
0.0
 40
0.0
 40
0.0
 40
1.0
 40
1.0
 40
1.0
 40
2.0
 40
2.0
 40
2.0
 40
3.0
 40
3.0
 40
3.0
 40
4.0
 40
4.0
 40
4.0
 40
4.0
 10
8.424181731631709
 20
-18.36324444444444
 10
8.424181731631709
 20
-19.70062638888887
 10
7.33613453689587
 20
-20.78864861111111
 10
5.998751237347682
 20
-20.78864861111111
 10
4.661369326688347
 20
-20.78864861111111
 10
3.57332213195251
 20
-19.70062638888887
 10
3.57332213195251
 20
-18.36324444444444
 10
3.57332213195251
 20
-17.02586111111111
 10
4.661369326688347
 20
-15.93779027777777
 10
5.998751237347682
 20
-15.93779027777777
 10
7.33613453689587
 20
-15.93779027777777
 10
8.424181731631709
 20
-17.02586111111111
 10
8.424181731631709
 20
-18.36324444444444
 97
        0
 97
        0
 75
     2
 76
     1
 98
        0
  0
ENDSEC
  0
SECTION
  2
OBJECTS
  0
DICTIONARY
  5
C
330
0
100
AcDbDictionary
281
     1
  3
ACAD_GROUP
350
D
  3
ACAD_LAYOUT
350
1A
  3
ACAD_MATERIAL
350
3B
  3
ACAD_MLEADERSTYLE
350
8D
  3
ACAD_MLINESTYLE
350
17
  3
ACAD_PLOTSETTINGS
350
19
  3
ACAD_PLOTSTYLENAME
350
E
  3
ACAD_TABLESTYLE
350
8C
  3
ACAD_VISUALSTYLE
350
2A
  0
SUN
  5
3F
330
29
100
AcDbSun
 90
        1
290
     0
 63
     7
421
 16777215
 40
1.0
291
     1
 91
  2455826
 92
 54000000
292
     0
 70
     2
 71
   256
280
     1
  0
DICTIONARY
  5
D
102
{ACAD_REACTORS
330
C
102
}
330
C
100
AcDbDictionary
281
     1
  0
DICTIONARY
  5
1A
102
{ACAD_REACTORS
330
C
102
}
330
C
100
AcDbDictionary
281
     1
  3
Layout1
350
1E
  3
Layout2
350
26
  3
Model
350
22
  0
DICTIONARY
  5
3B
102
{ACAD_REACTORS
330
C
102
}
330
C
100
AcDbDictionary
281
     1
  3
ByBlock
350
3D
  3
ByLayer
350
3C
  3
Global
350
3E
  0
DICTIONARY
  5
8D
102
{ACAD_REACTORS
330
C
102
}
330
C
100
AcDbDictionary
281
     1
  0
DICTIONARY
  5
17
102
{ACAD_REACTORS
330
C
102
}
330
C
100
AcDbDictionary
281
     1
  3
Standard
350
18
  0
DICTIONARY
  5
19
102
{ACAD_REACTORS
330
C
102
}
330
C
100
AcDbDictionary
281
     1
  0
ACDBDICTIONARYWDFLT
  5
E
102
{ACAD_REACTORS
330
C
102
}
330
C
100
AcDbDictionary
281
     1
  3
Normal
350
F
100
AcDbDictionaryWithDefault
340
F
  0
DICTIONARY
  5
8C
102
{ACAD_REACTORS
330
C
102
}
330
C
100
AcDbDictionary
281
     1
  0
DICTIONARY
  5
2A
102
{ACAD_REACTORS
330
C
102
}
330
C
100
AcDbDictionary
281
     1
  3
2dWireframe
350
2F
  3
3D Hidden
350
31
  3
3dWireframe
350
30
  3
Basic
350
32
  3
Brighten
350
36
  3
ColorChange
350
3A
  3
Conceptual
350
34
  3
Dim
350
35
  3
Facepattern
350
39
  3
Flat
350
2B
  3
FlatWithEdges
350
2C
  3
Gouraud
350
2D
  3
GouraudWithEdges
350
2E
  3
Linepattern
350
38
  3
Realistic
350
33
  3
Thicken
350
37
  0
LAYOUT
  5
1E
102
{ACAD_REACTORS
330
1A
102
}
330
1A
100
AcDbPlotSettings
  1

  2
none_device
  4

  6

 40
0.0
 41
0.0
 42
0.0
 43
0.0
 44
0.0
 45
0.0
 46
0.0
 47
0.0
 48
0.0
 49
0.0
140
0.0
141
0.0
142
1.0
143
1.0
 70
   688
 72
     0
 73
     0
 74
     5
  7

 75
    16
 76
     0
 77
     2
 78
   300
147
1.0
148
0.0
149
0.0
100
AcDbLayout
  1
Layout1
 70
     1
 71
     1
 10
0.0
 20
0.0
 11
12.0
 21
9.0
 12
0.0
 22
0.0
 32
0.0
 14
1.000000000000000E+20
 24
1.000000000000000E+20
 34
1.000000000000000E+20
 15
-1.000000000000000E+20
 25
-1.000000000000000E+20
 35
-1.000000000000000E+20
146
0.0
 13
0.0
 23
0.0
 33
0.0
 16
1.0
 26
0.0
 36
0.0
 17
0.0
 27
1.0
 37
0.0
 76
     0
330
1B
  0
LAYOUT
  5
26
102
{ACAD_REACTORS
330
1A
102
}
330
1A
100
AcDbPlotSettings
  1

  2
none_device
  4

  6

 40
0.0
 41
0.0
 42
0.0
 43
0.0
 44
0.0
 45
0.0
 46
0.0
 47
0.0
 48
0.0
 49
0.0
140
0.0
141
0.0
142
1.0
143
1.0
 70
   688
 72
     0
 73
     0
 74
     5
  7

 75
    16
 76
     0
 77
     2
 78
   300
147
1.0
148
0.0
149
0.0
100
AcDbLayout
  1
Layout2
 70
     1
 71
     2
 10
0.0
 20
0.0
 11
0.0
 21
0.0
 12
0.0
 22
0.0
 32
0.0
 14
0.0
 24
0.0
 34
0.0
 15
0.0
 25
0.0
 35
0.0
146
0.0
 13
0.0
 23
0.0
 33
0.0
 16
1.0
 26
0.0
 36
0.0
 17
0.0
 27
1.0
 37
0.0
 76
     0
330
23
  0
LAYOUT
  5
22
102
{ACAD_REACTORS
330
1A
102
}
330
1A
100
AcDbPlotSettings
  1

  2
none_device
  4

  6

 40
0.0
 41
0.0
 42
0.0
 43
0.0
 44
0.0
 45
0.0
 46
0.0
 47
0.0
 48
0.0
 49
0.0
140
0.0
141
0.0
142
1.0
143
1.0
 70
  1712
 72
     0
 73
     0
 74
     0
  7

 75
     0
 76
     0
 77
     2
 78
   300
147
1.0
148
0.0
149
0.0
100
AcDbLayout
  1
Model
 70
     1
 71
     0
 10
0.0
 20
0.0
 11
12.0
 21
9.0
 12
0.0
 22
0.0
 32
0.0
 14
1.000000000000000E+20
 24
1.000000000000000E+20
 34
1.000000000000000E+20
 15
-1.000000000000000E+20
 25
-1.000000000000000E+20
 35
-1.000000000000000E+20
146
0.0
 13
0.0
 23
0.0
 33
0.0
 16
1.0
 26
0.0
 36
0.0
 17
0.0
 27
1.0
 37
0.0
 76
     0
330
1F
331
29
  0
MATERIAL
  5
3D
102
{ACAD_REACTORS
330
3B
102
}
330
3B
100
AcDbMaterial
  1
ByBlock
 72
     1
 94
      127
  0
MATERIAL
  5
3C
102
{ACAD_REACTORS
330
3B
102
}
330
3B
100
AcDbMaterial
  1
ByLayer
 72
     1
 94
      127
  0
MATERIAL
  5
3E
102
{ACAD_REACTORS
330
3B
102
}
330
3B
100
AcDbMaterial
  1
Global
 72
     1
 94
      127
  0
MLINESTYLE
  5
18
102
{ACAD_REACTORS
330
17
102
}
330
17
100
AcDbMlineStyle
  2
Standard
 70
     0
  3

 62
   256
 51
90.0
 52
90.0
 71
     2
 49
0.5
 62
   256
  6
BYLAYER
 49
-0.5
 62
   256
  6
BYLAYER
  0
ACDBPLACEHOLDER
  5
F
102
{ACAD_REACTORS
330
E
102
}
330
E
  0
VISUALSTYLE
  5
2F
102
{ACAD_REACTORS
330
2A
102
}
330
2A
100
AcDbVisualStyle
  2
2dWireframe
 70
     4
177
     2
291
     0
 71
     0
176
     1
 72
     2
176
     1
 73
     0
176
     1
 90
        0
176
     1
 40
-0.6
176
     1
 41
-30.0
176
     1
 62
     5
 63
     7
421
 16777215
176
     1
 74
     1
176
     1
 91
        4
176
     1
 64
     7
176
     1
 65
   257
176
     1
 75
     1
176
     1
175
     1
176
     1
 42
1.0
176
     1
 92
        0
176
     1
 66
   257
176
     1
 43
1.0
176
     1
 76
     1
176
     1
 77
     6
176
     1
 78
     2
176
     1
 67
     7
176
     1
 79
     5
176
     1
170
     0
176
     1
171
     0
176
     1
290
     0
176
     1
 93
        1
176
     1
 44
0.0
176
     1
173
     0
176
     1
  0
VISUALSTYLE
  5
31
102
{ACAD_REACTORS
330
2A
102
}
330
2A
100
AcDbVisualStyle
  2
3D Hidden
 70
     6
177
     2
291
     0
 71
     1
176
     1
 72
     2
176
     1
 73
     2
176
     1
 90
        0
176
     1
 40
-0.6
176
     1
 41
-30.0
176
     1
 62
     5
 63
     7
421
 16777215
176
     1
 74
     2
176
     1
 91
        2
176
     1
 64
     7
176
     1
 65
   257
176
     1
 75
     2
176
     1
175
     1
176
     1
 42
40.0
176
     1
 92
        0
176
     1
 66
   257
176
     1
 43
1.0
176
     1
 76
     1
176
     1
 77
     6
176
     1
 78
     2
176
     1
 67
     7
176
     1
 79
     3
176
     1
170
     0
176
     1
171
     0
176
     1
290
     0
176
     1
 93
        1
176
     1
 44
0.0
176
     1
173
     0
176
     1
  0
VISUALSTYLE
  5
30
102
{ACAD_REACTORS
330
2A
102
}
330
2A
100
AcDbVisualStyle
  2
3dWireframe
 70
     5
177
     2
291
     0
 71
     0
176
     1
 72
     2
176
     1
 73
     0
176
     1
 90
        0
176
     1
 40
-0.6
176
     1
 41
-30.0
176
     1
 62
     5
 63
     7
421
 16777215
176
     1
 74
     1
176
     1
 91
        4
176
     1
 64
     7
176
     1
 65
   257
176
     1
 75
     1
176
     1
175
     1
176
     1
 42
1.0
176
     1
 92
        0
176
     1
 66
   257
176
     1
 43
1.0
176
     1
 76
     1
176
     1
 77
     6
176
     1
 78
     2
176
     1
 67
     7
176
     1
 79
     5
176
     1
170
     0
176
     1
171
     0
176
     1
290
     0
176
     1
 93
        1
176
     1
 44
0.0
176
     1
173
     0
176
     1
  0
VISUALSTYLE
  5
32
102
{ACAD_REACTORS
330
2A
102
}
330
2A
100
AcDbVisualStyle
  2
Basic
 70
     7
177
     2
291
     1
 71
     1
176
     1
 72
     0
176
     1
 73
     1
176
     1
 90
        0
176
     1
 40
-0.6
176
     1
 41
-30.0
176
     1
 62
     5
 63
     7
421
 16777215
176
     1
 74
     0
176
     1
 91
        4
176
     1
 64
     7
176
     1
 65
   257
176
     1
 75
     1
176
     1
175
     1
176
     1
 42
1.0
176
     1
 92
        8
176
     1
 66
     7
176
     1
 43
1.0
176
     1
 76
     1
176
     1
 77
     6
176
     1
 78
     2
176
     1
 67
     7
176
     1
 79
     5
176
     1
170
     0
176
     1
171
     0
176
     1
290
     0
176
     1
 93
        1
176
     1
 44
0.0
176
     1
173
     0
176
     1
  0
VISUALSTYLE
  5
36
102
{ACAD_REACTORS
330
2A
102
}
330
2A
100
AcDbVisualStyle
  2
Brighten
 70
    12
177
     2
291
     1
 71
     2
176
     1
 72
     2
176
     1
 73
     0
176
     1
 90
        0
176
     1
 40
-0.6
176
     1
 41
-30.0
176
     1
 62
     5
 63
     7
421
 16777215
176
     1
 74
     1
176
     1
 91
        4
176
     1
 64
     7
176
     1
 65
   257
176
     1
 75
     1
176
     1
175
     1
176
     1
 42
1.0
176
     1
 92
        8
176
     1
 66
     7
176
     1
 43
1.0
176
     1
 76
     1
176
     1
 77
     6
176
     1
 78
     2
176
     1
 67
     7
176
     1
 79
     5
176
     1
170
     0
176
     1
171
     0
176
     1
290
     0
176
     1
 93
        1
176
     1
 44
50.0
176
     1
173
     0
176
     1
  0
VISUALSTYLE
  5
3A
102
{ACAD_REACTORS
330
2A
102
}
330
2A
100
AcDbVisualStyle
  2
ColorChange
 70
    16
177
     2
291
     1
 71
     2
176
     1
 72
     2
176
     1
 73
     3
176
     1
 90
        0
176
     1
 40
-0.6
176
     1
 41
-30.0
176
     1
 62
     5
 63
     8
421
  8421504
176
     1
 74
     1
176
     1
 91
        4
176
     1
 64
     7
176
     1
 65
   257
176
     1
 75
     1
176
     1
175
     1
176
     1
 42
1.0
176
     1
 92
        8
176
     1
 66
     8
424
  8421504
176
     1
 43
1.0
176
     1
 76
     1
176
     1
 77
     6
176
     1
 78
     2
176
     1
 67
     7
176
     1
 79
     5
176
     1
170
     0
176
     1
171
     0
176
     1
290
     0
176
     1
 93
        1
176
     1
 44
0.0
176
     1
173
     0
176
     1
  0
VISUALSTYLE
  5
34
102
{ACAD_REACTORS
330
2A
102
}
330
2A
100
AcDbVisualStyle
  2
Conceptual
 70
     9
177
     2
291
     0
 71
     3
176
     1
 72
     2
176
     1
 73
     0
176
     1
 90
        0
176
     1
 40
-0.6
176
     1
 41
-30.0
176
     1
 62
     5
 63
     7
421
 16777215
176
     1
 74
     2
176
     1
 91
        2
176
     1
 64
     7
176
     1
 65
   257
176
     1
 75
     1
176
     1
175
     1
176
     1
 42
40.0
176
     1
 92
        8
176
     1
 66
     7
176
     1
 43
1.0
176
     1
 76
     1
176
     1
 77
     6
176
     1
 78
     2
176
     1
 67
     7
176
     1
 79
     3
176
     1
170
     0
176
     1
171
     0
176
     1
290
     0
176
     1
 93
        1
176
     1
 44
0.0
176
     1
173
     0
176
     1
  0
VISUALSTYLE
  5
35
102
{ACAD_REACTORS
330
2A
102
}
330
2A
100
AcDbVisualStyle
  2
Dim
 70
    11
177
     2
291
     1
 71
     2
176
     1
 72
     2
176
     1
 73
     0
176
     1
 90
        0
176
     1
 40
-0.6
176
     1
 41
-30.0
176
     1
 62
     5
 63
     7
421
 16777215
176
     1
 74
     1
176
     1
 91
        4
176
     1
 64
     7
176
     1
 65
   257
176
     1
 75
     1
176
     1
175
     1
176
     1
 42
1.0
176
     1
 92
        8
176
     1
 66
     7
176
     1
 43
1.0
176
     1
 76
     1
176
     1
 77
     6
176
     1
 78
     2
176
     1
 67
     7
176
     1
 79
     5
176
     1
170
     0
176
     1
171
     0
176
     1
290
     0
176
     1
 93
        1
176
     1
 44
-50.0
176
     1
173
     0
176
     1
  0
VISUALSTYLE
  5
39
102
{ACAD_REACTORS
330
2A
102
}
330
2A
100
AcDbVisualStyle
  2
Facepattern
 70
    15
177
     2
291
     1
 71
     2
176
     1
 72
     2
176
     1
 73
     0
176
     1
 90
        0
176
     1
 40
-0.6
176
     1
 41
-30.0
176
     1
 62
     5
 63
     7
421
 16777215
176
     1
 74
     1
176
     1
 91
        4
176
     1
 64
     7
176
     1
 65
   257
176
     1
 75
     1
176
     1
175
     1
176
     1
 42
1.0
176
     1
 92
        8
176
     1
 66
     7
176
     1
 43
1.0
176
     1
 76
     1
176
     1
 77
     6
176
     1
 78
     2
176
     1
 67
     7
176
     1
 79
     5
176
     1
170
     0
176
     1
171
     0
176
     1
290
     0
176
     1
 93
        1
176
     1
 44
0.0
176
     1
173
     0
176
     1
  0
VISUALSTYLE
  5
2B
102
{ACAD_REACTORS
330
2A
102
}
330
2A
100
AcDbVisualStyle
  2
Flat
 70
     0
177
     2
291
     1
 71
     2
176
     1
 72
     1
176
     1
 73
     1
176
     1
 90
        2
176
     1
 40
-0.6
176
     1
 41
30.0
176
     1
 62
     5
 63
     7
421
 16777215
176
     1
 74
     0
176
     1
 91
        4
176
     1
 64
     7
176
     1
 65
   257
176
     1
 75
     1
176
     1
175
     1
176
     1
 42
1.0
176
     1
 92
        8
176
     1
 66
     7
176
     1
 43
1.0
176
     1
 76
     1
176
     1
 77
     6
176
     1
 78
     2
176
     1
 67
     7
176
     1
 79
     5
176
     1
170
     0
176
     1
171
     0
176
     1
290
     0
176
     1
 93
       13
176
     1
 44
0.0
176
     1
173
     0
176
     1
  0
VISUALSTYLE
  5
2C
102
{ACAD_REACTORS
330
2A
102
}
330
2A
100
AcDbVisualStyle
  2
FlatWithEdges
 70
     1
177
     2
291
     1
 71
     2
176
     1
 72
     1
176
     1
 73
     1
176
     1
 90
        2
176
     1
 40
-0.6
176
     1
 41
30.0
176
     1
 62
     5
 63
     7
421
 16777215
176
     1
 74
     1
176
     1
 91
        4
176
     1
 64
     7
176
     1
 65
   257
176
     1
 75
     1
176
     1
175
     1
176
     1
 42
1.0
176
     1
 92
        0
176
     1
 66
   257
176
     1
 43
1.0
176
     1
 76
     1
176
     1
 77
     6
176
     1
 78
     2
176
     1
 67
     7
176
     1
 79
     5
176
     1
170
     0
176
     1
171
     0
176
     1
290
     0
176
     1
 93
       13
176
     1
 44
0.0
176
     1
173
     0
176
     1
  0
VISUALSTYLE
  5
2D
102
{ACAD_REACTORS
330
2A
102
}
330
2A
100
AcDbVisualStyle
  2
Gouraud
 70
     2
177
     2
291
     1
 71
     2
176
     1
 72
     2
176
     1
 73
     1
176
     1
 90
        2
176
     1
 40
-0.6
176
     1
 41
30.0
176
     1
 62
     5
 63
     7
421
 16777215
176
     1
 74
     0
176
     1
 91
        4
176
     1
 64
     7
176
     1
 65
   257
176
     1
 75
     1
176
     1
175
     1
176
     1
 42
1.0
176
     1
 92
        0
176
     1
 66
     7
176
     1
 43
1.0
176
     1
 76
     1
176
     1
 77
     6
176
     1
 78
     2
176
     1
 67
     7
176
     1
 79
     5
176
     1
170
     0
176
     1
171
     0
176
     1
290
     0
176
     1
 93
       13
176
     1
 44
0.0
176
     1
173
     0
176
     1
  0
VISUALSTYLE
  5
2E
102
{ACAD_REACTORS
330
2A
102
}
330
2A
100
AcDbVisualStyle
  2
GouraudWithEdges
 70
     3
177
     2
291
     1
 71
     2
176
     1
 72
     2
176
     1
 73
     1
176
     1
 90
        2
176
     1
 40
-0.6
176
     1
 41
30.0
176
     1
 62
     5
 63
     7
421
 16777215
176
     1
 74
     1
176
     1
 91
        4
176
     1
 64
     7
176
     1
 65
   257
176
     1
 75
     1
176
     1
175
     1
176
     1
 42
1.0
176
     1
 92
        0
176
     1
 66
   257
176
     1
 43
1.0
176
     1
 76
     1
176
     1
 77
     6
176
     1
 78
     2
176
     1
 67
     7
176
     1
 79
     5
176
     1
170
     0
176
     1
171
     0
176
     1
290
     0
176
     1
 93
       13
176
     1
 44
0.0
176
     1
173
     0
176
     1
  0
VISUALSTYLE
  5
38
102
{ACAD_REACTORS
330
2A
102
}
330
2A
100
AcDbVisualStyle
  2
Linepattern
 70
    14
177
     2
291
     1
 71
     2
176
     1
 72
     2
176
     1
 73
     0
176
     1
 90
        0
176
     1
 40
-0.6
176
     1
 41
-30.0
176
     1
 62
     5
 63
     7
421
 16777215
176
     1
 74
     1
176
     1
 91
        4
176
     1
 64
     7
176
     1
 65
   257
176
     1
 75
     7
176
     1
175
     7
176
     1
 42
1.0
176
     1
 92
        8
176
     1
 66
     7
176
     1
 43
1.0
176
     1
 76
     1
176
     1
 77
     6
176
     1
 78
     2
176
     1
 67
     7
176
     1
 79
     5
176
     1
170
     0
176
     1
171
     0
176
     1
290
     0
176
     1
 93
        1
176
     1
 44
0.0
176
     1
173
     0
176
     1
  0
VISUALSTYLE
  5
33
102
{ACAD_REACTORS
330
2A
102
}
330
2A
100
AcDbVisualStyle
  2
Realistic
 70
     8
177
     2
291
     0
 71
     2
176
     1
 72
     2
176
     1
 73
     0
176
     1
 90
        0
176
     1
 40
-0.6
176
     1
 41
-30.0
176
     1
 62
     5
 63
     7
421
 16777215
176
     1
 74
     1
176
     1
 91
        0
176
     1
 64
     7
176
     1
 65
   257
176
     1
 75
     1
176
     1
175
     1
176
     1
 42
1.0
176
     1
 92
        8
176
     1
 66
     8
424
  7895160
176
     1
 43
1.0
176
     1
 76
     1
176
     1
 77
     6
176
     1
 78
     2
176
     1
 67
     7
176
     1
 79
     5
176
     1
170
     0
176
     1
171
     0
176
     1
290
     0
176
     1
 93
       13
176
     1
 44
0.0
176
     1
173
     0
176
     1
  0
VISUALSTYLE
  5
37
102
{ACAD_REACTORS
330
2A
102
}
330
2A
100
AcDbVisualStyle
  2
Thicken
 70
    13
177
     2
291
     1
 71
     2
176
     1
 72
     2
176
     1
 73
     0
176
     1
 90
        0
176
     1
 40
-0.6
176
     1
 41
-30.0
176
     1
 62
     5
 63
     7
421
 16777215
176
     1
 74
     1
176
     1
 91
        4
176
     1
 64
     7
176
     1
 65
   257
176
     1
 75
     1
176
     1
175
     1
176
     1
 42
1.0
176
     1
 92
       12
176
     1
 66
     7
176
     1
 43
1.0
176
     1
 76
     1
176
     1
 77
     6
176
     1
 78
     2
176
     1
 67
     7
176
     1
 79
     5
176
     1
170
     0
176
     1
171
     0
176
     1
290
     0
176
     1
 93
        1
176
     1
 44
0.0
176
     1
173
     0
176
     1
  0
ENDSEC
  0
EOF
