<svg id="Layer_1" data-name="Layer 1" xmlns="http://www.w3.org/2000/svg" viewBox="0 0 514.89 864"><defs><style>.cls-1{fill:#a16e58;}.cls-2{fill:#f8efe3;}</style></defs><title>Untitled-31</title><rect class="cls-1" x="31.4" y="33.23" width="452.1" height="797.53" rx="226.05"/><path class="cls-1" d="M257.44,864c-68.76,0-133.41-25.87-182-72.85S0,681.7,0,615.26V248.74C0,182.3,26.78,119.83,75.4,72.85S188.68,0,257.44,0s133.42,25.87,182,72.85,75.41,109.45,75.41,175.89V615.26c0,66.44-26.78,128.91-75.41,175.89S326.21,864,257.44,864Zm0-853.66c-136,0-246.74,106.94-246.74,238.4V615.26c0,131.46,110.69,238.4,246.74,238.4h0c136.06,0,246.75-106.94,246.75-238.4V248.74C504.19,117.28,393.5,10.34,257.44,10.34Z"/><path class="cls-2" d="M470.63,406c-3.64-2.67-7.83-3.43-12.14-4.17-11.55-2-22.92,2.54-34.15,4.41-11.55,1.9-23.5-1.61-35.12-1.54A119.77,119.77,0,0,0,362.36,408l-.5.12a142.22,142.22,0,0,1,12.93-7.9c11-6.16,27-9.18,33.48-21.21a63.31,63.31,0,0,0,3.77-7.83c1-2.71,1.59-5.8-1.91-2.84-11,9.32-24.16,9.65-37.33,12.06a57.5,57.5,0,0,0,3.14-17.66c1.55-1.35,3.14-2.66,4.74-3.94,9.09-7.29,20-12.84,27.62-21.87,7.77-9.24,9.61-24.81,20.69-31.12.63-.36,2.43-1,2.33-1.84s-1.39-1-2.2-1c-16.7-1.88-26.87,13.77-38.55,22.57a82.38,82.38,0,0,1-15.19,8.62c0-3.72.2-7.45.58-11.24a2,2,0,0,1,.27-.45c1.72-2.46,3.21-5,4.32-7,5.95-10.54,2.82-23.38.06-34.71-.35-1.46-.7-2.9-1-4.3l-.88-3.83c-3.14-13.58-6.39-27.62-6.83-41.72-.08-2.71-.12-5.42-.17-8.12-.17-11-.35-22.32-3.47-33.3-2.06-7.22-3.75-13.26-5.1-19.59a129.35,129.35,0,0,1-2.5-24.88,16.8,16.8,0,0,0-.4-3.58,3.06,3.06,0,0,0-3.63-2.31,2.92,2.92,0,0,0-2.15,3.66,13.44,13.44,0,0,1,.21,2.74,150.8,150.8,0,0,0,5.66,37.88c3.59,12.48,5.28,23.13,5.29,33.52,0,13.76,1.89,26.93,4.13,41.52,1.7,9.21,3.82,18.44,5.66,26.25a77.08,77.08,0,0,1,2.25,19.15,18.74,18.74,0,0,1-2,8.17,85.47,85.47,0,0,0-3.47-18.42c-.78-2.54-2.55-3-3.94-2.57-.65.2-2.65,1.08-1.76,4.22a83.79,83.79,0,0,1,2.53,10.92c1,7.08.58,14.57.13,21.81-.17,2.79-.34,5.67-.43,8.48,0,.24,0,.48,0,.71-.11,4.71.23,9.41.57,14a117,117,0,0,1,.43,16.86l0,.42a48.29,48.29,0,0,1-3,13.34c-.36,1-.76,1.9-1.19,2.84-1.63,3.58-3.56,7.12-5.42,10.53-1.11,2-2.21,4.06-3.27,6.11-3.3,6.41-6.2,13.09-9,19.57-1.27,2.92-2.55,5.86-3.86,8.77-.42.93-.83,1.87-1.22,2.82a50.13,50.13,0,0,1-3.84,7.73c-.38.57-.89,1.35-1.27,1.32a3.35,3.35,0,0,1-.57-1.11c-.07-.18-.14-.34-.2-.51-1.25-2.95-1.31-6.2-1.2-9.29.48-12.41,3.93-23.41,7.57-35.08,1.3-4.19,2.66-8.53,3.86-12.93,1.27-4.66,2.53-10.83.88-17.27a104.83,104.83,0,0,1-2.6-14.2c-.07-.56-.13-1.13-.18-1.69-.16-1.67-.39-3.34-.68-5a70.09,70.09,0,0,0-6.45-19.3c-.05-.09-.09-.19-.14-.28a91.5,91.5,0,0,1-7.74-19.82l1.46,1.46c1.62,1.64,3.27,1.35,4.27.53s1.58-2.59.2-4.35a19.32,19.32,0,0,0-1.3-1.44c-1.07-1.11-2.19-2.17-3.34-3.19a67.58,67.58,0,0,0-6.63-5.22,45.78,45.78,0,0,0-12.95-6.36,33.24,33.24,0,0,0-4.54-1l.1-.07a32.43,32.43,0,0,1,4.92-3.22,12.45,12.45,0,0,1,3.37-1.28,4.6,4.6,0,0,1,.84-.08,3.54,3.54,0,0,0,2.68-1,2.75,2.75,0,0,0,.72-2.11,2.89,2.89,0,0,0-1.2-2.2h0a3.77,3.77,0,0,0-2.44-.62,11.82,11.82,0,0,0-3.51.69,39.22,39.22,0,0,0-14.06,9.45A56,56,0,0,0,290.34,296c-4,6.76-6.84,14.18-9.65,21.44-.75,1.91-1.47,3.81-2.23,5.68-3.72,9.31-8.85,19.77-18.66,26.89-1.78,1.29-4.47,2.42-6.44,2.05a2.47,2.47,0,0,1-1.71-1.13,4.87,4.87,0,0,1-.38-3.34c.6-4.1,2.74-7.73,5-11.57.76-1.29,1.51-2.58,2.21-3.89a66.9,66.9,0,0,0,5-12.47c1.61-5.4,2.72-10.95,3.81-16.39.78-3.88,1.58-7.91,2.55-11.77,2-7.87,5.46-15.31,9.08-22.5.51-1.05,1-2.09,1.56-3.13l.07-.14c1.78-3.51,3.61-7.15,5.28-10.8a140,140,0,0,0,6.12-17.31c2.46-8.09,5-16.47,9.51-23.58a43.26,43.26,0,0,1,24.66-18.35c1.66-.46,3.56-2.06,3.71-3.71a2.23,2.23,0,0,0-1.32-2.25,3.43,3.43,0,0,0-2.31-.13,47.8,47.8,0,0,0-16.43,7.26c1.66-17.83-3.18-35.88-7.49-51.91a4.54,4.54,0,0,0-2.4-3.08,2.3,2.3,0,0,0-2.14.26c-1,.68-1.33,1.88-1,3.58l4.67,21.76c2.91,13.56,4.91,25.66-.09,36.27a56.52,56.52,0,0,1-4.51,7.46c-1.33,2-2.7,4-3.87,6.15-2.94,5.42-4.48,11.44-6,17.27-.93,3.62-1.89,7.38-3.17,10.91a117,117,0,0,1-7.94,16.17,133.85,133.85,0,0,0-7.15,14.09c-3.29,7.93-5.05,16.48-6.76,24.74-.59,2.85-1.18,5.71-1.84,8.57a176.92,176.92,0,0,1-5-24.58c-1.71-13.13-1.18-27.73-8.49-39.35-4.67-7.43-12.72-15.54-12.67-24.92,0-.72.32-2.6-.42-2.93s-1.54.72-2,1.38c-2.69,3.64-3.45,7.82-4.17,12.14-1.92,11.25,3.07,22,4.37,33,1.27,10.6-.33,21.24-1,31.82A105.94,105.94,0,0,0,233.5,327c0,.17.08.32.11.49a145.41,145.41,0,0,1-7.9-12.93c-3.35-6-5.55-12.59-8.62-18.76a36.57,36.57,0,0,0-20.42-18.49c-2.71-1-5.79-1.58-2.83,1.92,11.54,13.66,10.3,31.37,14.43,47.67.46,1.85,1.66,6.24,2.39,8.37-.82-.71-1.62-1.43-2.45-2.12a163.5,163.5,0,0,1-26.12-27c-8.62-11.53-15.77-24.83-29.25-31.42-6.52-3.2-13.82-5.46-18.89-10.95a19.51,19.51,0,0,1-2.65-3.43c-.35-.63-1-2.43-1.82-2.33s-1,1.4-1.07,2.2c-1.94,17.31,14.62,27.39,23.1,39.81,10,14.58,16.27,31.34,26.66,45.61,1.23,1.68,4.28,5.3,5.72,7-16.07-5.88-29.69-25.4-47.7-24.85a61.13,61.13,0,0,0-8.67.63c-2.86.49-5.82,1.53-1.5,3.08,18.24,6.58,29,25.66,41.41,39.33-6.45.59-15.31-3-21.6-4.84-15.68-4.63-30.4-14.13-46.41-17.19-10.93-2.1-22.31,2.61-33-.72a19.15,19.15,0,0,1-4-1.65c-.62-.37-2.1-1.58-2.76-1.1s-.14,1.69.19,2.44c6.75,15.45,25.34,16.38,38.83,22.09,11.37,4.82,20.34,13.67,31,19.75a119.87,119.87,0,0,0,24.9,10.6l.48.14a141.53,141.53,0,0,1-15.14.39c-12.21-.19-28.22-5.4-39.59,1.62a62.82,62.82,0,0,0-7.19,4.9c-2.23,1.83-4.27,4.23.24,3.41,10-1.8,20,.85,29.35,4.31,7.46,2.74,17.7,8.2,27.31,9.2-.93.34-1.86.66-2.77,1-12.28,4.51-25.17,6.91-38.08,8.74-10.29,1.45-21,2.07-30.77,5.68C70.53,442.49,64,448,56.63,451.91c-1.58.81-13.45,3.18-13.75,3.91s.71,1.53,1.37,2c9.19,6.76,20.39,5,30.76,2.57,25.63-5.88,51.92,1.52,77.52-4.54l.49-.11a148.18,148.18,0,0,1-12.92,7.9c-8.22,4.57-17.5,7.11-25.25,12.57-5.78,4.08-9.56,9.89-12,16.47-1,2.71-1.59,5.79,1.91,2.84,11.87-10,26.9-10.33,41.37-13a106.09,106.09,0,0,0,14.68-3.84c-.72.81-1.43,1.61-2.12,2.45a174.92,174.92,0,0,1-31.4,29.2c-7.79,5.67-16.12,11-22.17,18.62-6.44,8.09-8.09,19.33-15.79,26.44a20,20,0,0,1-3.43,2.65c-1.38.78-3.75,2.55-.51,2.89,13.26,1.39,22.78-8.24,31.76-16.46,9.21-8.42,20.41-14.23,31.65-19.41a117.2,117.2,0,0,0,12.21-6.5c0,4.3-.17,8.58-.6,13a1.4,1.4,0,0,1-.27.43c-1.71,2.47-3.21,5-4.32,7-5.95,10.53-2.82,23.37-.07,34.7.36,1.47.71,2.9,1,4.29l.89,3.83c3.14,13.59,6.38,27.64,6.82,41.74.08,2.7.12,5.41.17,8.12.17,11,.34,22.3,3.47,33.29,2.06,7.23,3.75,13.26,5.1,19.6a129.09,129.09,0,0,1,2.5,24.88,16.85,16.85,0,0,0,.4,3.57,3.09,3.09,0,0,0,3.63,2.32,2.94,2.94,0,0,0,2.15-3.67,14.14,14.14,0,0,1-.22-2.74A150.34,150.34,0,0,0,176,671.07c-3.6-12.48-5.28-23.13-5.29-33.53,0-13.76-1.88-26.92-4.13-41.52-1.7-9.2-3.82-18.43-5.67-26.25a85,85,0,0,1-1.89-11.07,67,67,0,0,1-.35-8.07,18.79,18.79,0,0,1,2-8.18,92.24,92.24,0,0,0,1.59,11.11c.52,2.51,1.14,4.94,1.88,7.32.78,2.54,2.55,3,3.94,2.57.65-.2,2.66-1.08,1.76-4.22a83.41,83.41,0,0,1-2.53-10.92c0-.17,0-.33-.07-.5-.94-6.92-.49-14.24-.06-21.32,0-.64.08-1.3.11-2,.14-2.15.25-4.35.32-6.52,0-1.28,0-2.55,0-3.83-.06-3.66-.32-7.3-.58-10.86a116.74,116.74,0,0,1-.43-16.85,48.11,48.11,0,0,1,4.23-16.61c1.63-3.58,3.56-7.11,5.42-10.52,1.1-2,2.21-4.06,3.26-6.11,3.31-6.41,6.21-13.1,9-19.57q1.91-4.4,3.86-8.78c.42-.93.83-1.87,1.22-2.81a48.44,48.44,0,0,1,3.85-7.73c.37-.56.88-1.35,1.27-1.31a3.26,3.26,0,0,1,.56,1.11l.21.5c1.24,2.94,1.3,6.2,1.19,9.28-.48,12.41-3.93,23.43-7.56,35.08-1.32,4.21-2.67,8.54-3.87,12.95-1.27,4.66-2.53,10.82-.9,17.25a102,102,0,0,1,2.8,15.89,67,67,0,0,0,4.19,17.63c.29.8.61,1.6.95,2.39.66,1.54,1.36,3.07,2.13,4.59a91.09,91.09,0,0,1,7.73,19.81l-1.45-1.46c-1.62-1.64-3.26-1.35-4.27-.53s-1.58,2.58-.2,4.34a17.75,17.75,0,0,0,1.3,1.45,66.42,66.42,0,0,0,10,8.4c.48.33,1,.65,1.44.95A43.42,43.42,0,0,0,225,568.23a35.15,35.15,0,0,0,4,.85l-.1.08a41,41,0,0,1-4,2.7c-.31.18-.62.35-.94.51a9.86,9.86,0,0,1-4.21,1.37,3.51,3.51,0,0,0-2.68,1,2.7,2.7,0,0,0-.72,2.09,2.85,2.85,0,0,0,1.22,2.22,3.77,3.77,0,0,0,2.45.63,11.8,11.8,0,0,0,3.5-.71c.56-.21,1.13-.45,1.7-.69a40.36,40.36,0,0,0,12.37-8.76c1-1,2-2.11,2.89-3.21,5-6.06,8.54-13.1,11.56-20.31,1.27-3,2.43-6,3.6-9.06.74-1.91,1.48-3.8,2.23-5.69,3.72-9.3,8.85-19.77,18.66-26.88,1.78-1.3,4.47-2.43,6.44-2.06a2.48,2.48,0,0,1,1.71,1.14,4.92,4.92,0,0,1,.38,3.34c-.62,4.11-2.73,7.73-5,11.58-.76,1.28-1.51,2.57-2.21,3.87-4.82,9.06-6.84,19.12-8.79,28.87-.78,3.89-1.58,7.9-2.55,11.77a95.47,95.47,0,0,1-6.6,17.47c-1.33,2.81-2.73,5.56-4.11,8.29-1.78,3.53-3.61,7.16-5.28,10.81a140.63,140.63,0,0,0-6.12,17.31c-2.47,8.1-5,16.47-9.51,23.57a43.29,43.29,0,0,1-24.66,18.37c-1.67.46-3.56,2.06-3.71,3.69a2.27,2.27,0,0,0,1.32,2.27,3.4,3.4,0,0,0,2.31.11,47.86,47.86,0,0,0,16.43-7.25c-1.66,17.83,3.18,35.87,7.49,51.91a4.61,4.61,0,0,0,2.41,3.09,2.29,2.29,0,0,0,2.13-.26c1-.69,1.33-1.9,1-3.6L235,686.91c-2.91-13.57-4.91-25.66.09-36.27a57,57,0,0,1,4.51-7.46c1.33-2,2.7-4,3.87-6.15,3-5.43,4.48-11.44,6-17.26.93-3.64,1.89-7.39,3.17-10.92a115.92,115.92,0,0,1,7.94-16.17l.48-.85a69.84,69.84,0,0,0,5.84,23.8c3.85,8.3,11.46,14.55,13.52,23.65a19.42,19.42,0,0,1,.57,4.29c0,.72-.32,2.6.42,2.93,3.05,1.34,5.76-11,6.06-12.63,2.07-11.72-2.92-22-4.32-33.41-1.51-12.26,1.68-24.47,1.6-36.75a119.94,119.94,0,0,0-3.28-26.87c0-.16-.07-.33-.11-.5a147.56,147.56,0,0,1,7.9,12.94c4.61,8.28,6.87,17.57,12.66,25.27,5,6.69,12.43,12.08,20.78,12.68-2.66-1.88-9-16-10-19.05a125,125,0,0,1-4-20.76c-.52-4.29-3.2-14.58-4.44-18.84.82.71,1.62,1.43,2.45,2.12a176.09,176.09,0,0,1,31.44,34.54c5.17,7.4,10.75,14.71,18,20.16,7.75,5.78,18.11,7.42,24.79,14.66a19.15,19.15,0,0,1,2.65,3.43c3.69,6.73,2.64-5.74,1.91-8.19a44.7,44.7,0,0,0-9.11-16.49c-4-4.7-8.76-8.8-12.49-13.74-7.44-9.86-10.78-22-17-32.63a120.25,120.25,0,0,0-16.27-21.62l-.34-.38a143.87,143.87,0,0,1,13.3,7.26c7.08,4.22,13.14,10,20.37,14a34.51,34.51,0,0,0,23.4,3.77c2.86-.48,5.82-1.52,1.5-3.08-6.87-2.48-12.86-7-17.95-12.23-4.5-4.61-8.22-9.88-12.23-14.89-1.75-2.19-3.56-4.27-5.5-6.29-1.44-1.51-5.17-5.08-6.87-6.69,1,.2,2.1.41,3.15.59a167.25,167.25,0,0,1,37.11,10.94c12.16,5.21,24.46,12.64,38.17,12.07,8-.33,15.87-2.52,23.71-.07a19.41,19.41,0,0,1,4,1.63c.63.38,2.1,1.6,2.76,1.12s.14-1.69-.19-2.44c-3.84-8.78-14.1-13.9-22.64-16.82-8.32-2.85-16.89-5-24.44-9.62-7.81-4.8-14.78-10.87-22.76-15.41a120.72,120.72,0,0,0-24.91-10.6l-.48-.15a147,147,0,0,1,15.14-.37c9.18.15,18.24,2.52,27.45,1.81a33.25,33.25,0,0,0,21.47-10.41,1.19,1.19,0,0,0,.33-.57c.1-.73-1-.92-1.69-.81a54.43,54.43,0,0,1-22.74-1.53c-7.51-2.13-14.35-6.14-21.84-8.34-4.49-1.31-8.86-2.63-13.35-3.54,1-.34,2-.69,3-1.06a178.68,178.68,0,0,1,38.57-9.34c12.84-1.64,26.79-1.18,38.14-8.38,6.73-4.26,12.48-10.11,20.49-11.91a19.6,19.6,0,0,1,4.3-.58c.71,0,2.61.33,2.94-.42S471.29,406.51,470.63,406Zm-131.85-59.5.07.48c.25,1.61.46,3.22.67,4.84,0,.06,0,.1,0,.16.15,1.13.31,2.28.48,3.42a73.42,73.42,0,0,0,1.83,9.44c-5.61,3.51-9.94,8.12-14.61,13.33a67.23,67.23,0,0,1-14.72,12.55,130.64,130.64,0,0,0-18.18,14.13,58.23,58.23,0,0,1-7.3,5.46,9.28,9.28,0,0,1-2.74,1.16,1.82,1.82,0,0,1-1.4-.06,2.23,2.23,0,0,1-.44-1.68,11.5,11.5,0,0,1,1.36-4A58.41,58.41,0,0,1,299.87,387a41.78,41.78,0,0,0,9.2-10c1.58-2.34,3.41-4.79,5.61-7.47a37.06,37.06,0,0,1,6.57-6.16,36.91,36.91,0,0,0,12.08-16.12,67.57,67.57,0,0,1,4-8.14A61.15,61.15,0,0,1,338.78,346.52Zm-13-30.42c.33-.65.66-1.3,1-2,.39,1,.78,2.11,1.22,3.15a1.64,1.64,0,0,1,.14.41.68.68,0,0,1-.19.22,53.45,53.45,0,0,0-6.28,7.36c-1.83,2.49-3.45,5.07-5,7.58a31.52,31.52,0,0,1-8.85,9.46c-1,.69-2,1.41-2.95,2.14-.65.49-1.29,1-1.95,1.45-1.43,1-2.73,2.18-4,3.29-.42.37-.85.73-1.27,1.11a12.57,12.57,0,0,1-7.33,3c-1.27,0-1.9-.34-2.07-.63s-.07-.86.29-1.54a8.67,8.67,0,0,1,2.65-3,70.85,70.85,0,0,1,6.31-4.15,47.73,47.73,0,0,0,11.89-10.17,47.1,47.1,0,0,1,8.17-7.65,24.61,24.61,0,0,0,5.38-5.4A33.7,33.7,0,0,0,325.81,316.1Zm5,7.37c1,2,1.81,3.75,2.56,5.43.49,1,.92,2.05,1.34,3a1.47,1.47,0,0,1,.09.21,66.86,66.86,0,0,0-6.95,13A35.53,35.53,0,0,1,317,359.37a80.26,80.26,0,0,1-14.1,9.19l-3.8,2c-6.64,3.48-13.5,7.09-20.42,10.24-1.44.65-2.89,1.2-4.51,1.81a7.49,7.49,0,0,1-2.09.45,9.56,9.56,0,0,1,1.56-4.18c4.29-6.46,9.17-11.15,15-14.32A57.15,57.15,0,0,0,302,354.39a52.79,52.79,0,0,1,8.1-6.4l.43-.31a39.6,39.6,0,0,0,7.5-6.74,47.14,47.14,0,0,0,4.47-6.21A63,63,0,0,1,330.79,323.47Zm-30.07-31.88.2-.29a15.17,15.17,0,0,1,4.76-.3c.83.13,1.65.29,2.46.47-.58.78-1.13,1.57-1.69,2.37-5.21,7.52-10.69,16-13.6,24.72-1.18,2.91-2.61,7.13-3.68,10.54-.06.17-.1.33-.16.49a150,150,0,0,1-.38-15.15,1.32,1.32,0,0,1,0-.28C291.91,306.34,295.5,298.47,300.72,291.59ZM197.58,507.9l-.08-.48c-.24-1.61-.45-3.22-.66-4.83a94.84,94.84,0,0,0-2.34-13c5.61-3.49,9.95-8.1,14.62-13.33a67.17,67.17,0,0,1,14.72-12.54A130.64,130.64,0,0,0,242,449.55a56.57,56.57,0,0,1,7.3-5.46,8.54,8.54,0,0,1,2.74-1.15,1.74,1.74,0,0,1,1.4.05,2.28,2.28,0,0,1,.44,1.67,11.42,11.42,0,0,1-1.36,4,58.37,58.37,0,0,1-16,18.72,41.63,41.63,0,0,0-9.2,10c-1.58,2.35-3.41,4.78-5.61,7.48a37.8,37.8,0,0,1-6.57,6.16A36.71,36.71,0,0,0,203,507.14a67.57,67.57,0,0,1-4,8.14A61,61,0,0,1,197.58,507.9Zm8,23.05c-1.59-3.21-2.83-5.91-3.9-8.47a1.63,1.63,0,0,1-.09-.2,67.47,67.47,0,0,0,6.94-13,35.49,35.49,0,0,1,10.88-14.25,79.16,79.16,0,0,1,14.1-9.2l3.8-2c6.64-3.48,13.5-7.08,20.42-10.22,1.44-.66,2.89-1.22,4.51-1.83a7.49,7.49,0,0,1,2.09-.44,9.6,9.6,0,0,1-1.56,4.17c-4.29,6.47-9.17,11.15-15,14.33A57.12,57.12,0,0,0,234.36,500a54.16,54.16,0,0,1-8.1,6.42l-.43.3a41.35,41.35,0,0,0-12,13A64.27,64.27,0,0,1,205.57,531Zm5,7.37c-.33.65-.66,1.31-1,2-.38-1-.78-2.11-1.22-3.14a1.36,1.36,0,0,1-.14-.42,1.51,1.51,0,0,1,.19-.23c4.69-4.51,8.14-9.85,11.28-14.93a31.55,31.55,0,0,1,8.86-9.46c1-.69,2-1.42,2.94-2.14.65-.49,1.29-1,2-1.46,1.42-1,2.73-2.16,4-3.27.42-.38.84-.75,1.27-1.11a12.52,12.52,0,0,1,7.34-3.05c1.25,0,1.89.34,2.06.63a1.82,1.82,0,0,1-.28,1.53,8.67,8.67,0,0,1-2.66,3,72.93,72.93,0,0,1-6.31,4.14A47.93,47.93,0,0,0,227,520.58a47.1,47.1,0,0,1-8.17,7.65A27.13,27.13,0,0,0,210.55,538.32Zm5.63,19.4a102.85,102.85,0,0,0,9.54-23c.05-.16.09-.32.15-.49a150.18,150.18,0,0,1,.38,15.15c-.07,4.36-.46,8.61-.79,12.77A40,40,0,0,1,216.18,557.72Z"/></svg>