<svg id="Layer_1" data-name="Layer 1" xmlns="http://www.w3.org/2000/svg" viewBox="0 0 479.99 864"><defs><style>.cls-1{fill:#a16e58;}</style></defs><title>Untitled-31</title><path class="cls-1" d="M395.75,199.65c-3.72,17.24-12.53,27.69-26.2,31-6.14,1.51-12.45,2.17-18.66,3.32a69.22,69.22,0,0,0-17.23,5.66A106.91,106.91,0,0,0,329.28,216c-.18-.61,6-3.29,6.64-3.56a32.27,32.27,0,0,1,9-2.21c5.88-.62,11.89.06,17.84.71C376.12,212.34,387.2,208.56,395.75,199.65Zm-99.07-31.32a101.64,101.64,0,0,1,30.45,41.51,43,43,0,0,0,6.71-3.07c9.6-5.62,17.76-17.7,22.68-28,5.82-12.17,10.21-25.29,16.32-37.14,6.39-12.38,18-18.29,26.65-28.51,8-9.46,12.94-21.64,12.91-34.1a27.08,27.08,0,0,0-.23-4.14c-9,17.41-23.73,25.52-42.38,30-8.69,2.11-16.55,4.62-23.74,9-12.43,7.65-21.25,20.85-29.1,32.81A87.41,87.41,0,0,1,296.68,168.33Zm-.47-18.17c5.13-10.61,13.9-21.41,13.55-33.74-.26-9.57-5-18.39-11-25.66.81,4,.13,10.18-.41,12.74-3.22,15.34-17.23,22.9-24.2,36a34.06,34.06,0,0,0-4.47,13.16,112.43,112.43,0,0,1,21.65,11.65A59.14,59.14,0,0,1,296.21,150.16Zm-83.66-1.49a99,99,0,0,1,21.5-2.4,109.2,109.2,0,0,1,30.89,4.83,32.08,32.08,0,0,0,1.13-7.29,56.88,56.88,0,0,0-1-14.49c-5.5-30.61-31-53.25-31.07-84.36,0-12.62-2.75-24.23-10.86-34.3A52.61,52.61,0,0,0,211.44,0c4,11.61,7.67,21,4.42,33.55C212,48.48,202.45,60.89,200.53,76.18a45.25,45.25,0,0,0-.33,6.11c.23,12.75,4.21,25.12,8.15,37.14A87.44,87.44,0,0,1,212.55,148.67Zm-41.83-25.28c2.29,10.41,1.62,21.17,7.58,30.56a41,41,0,0,0,4.77,6.49,116.43,116.43,0,0,1,23-10.1,22.69,22.69,0,0,1-3.19-3.8c-4-6.09-6.21-11.94-8.94-18.69-3.4-8.44-7.36-17.45-15.17-22.73-7.46-5-16.69-6.53-25.52-6.42.82.5,2.26,1.46,2.85,1.88A37.68,37.68,0,0,1,170.72,123.39Zm-132-9.82a30.41,30.41,0,0,1,7.51,4.13c6,4.41,10.51,10.61,14.24,17.15,3.12,5.45,5.82,11.15,8.91,16.62a64,64,0,0,0,11.1,15.05c10,9.59,23.47,15.09,38.75,20.78a87.38,87.38,0,0,1,25.48,15,101.07,101.07,0,0,1,33.57-38.74,22.48,22.48,0,0,0-4.2-6.13c-15.11-15.08-42.74-17.57-62.26-22.74C99,131.24,87,126.72,76.38,119.91c-10.38-6.65-21.15-12-32.89-12a52.81,52.81,0,0,0-15.66,2.45c.77.28,1.56.52,2.35.75C33,112,35.87,112.52,38.74,113.57Zm67,87.31C92,198,79.53,203.54,68.7,217.48a37.43,37.43,0,0,1,29,1.33c2.68,1.22,5.25,2.66,7.8,4.14,5.61,3.27,11.11,6.73,17.47,8.47,1,.26,12.2,2.24,12.64.47A108.41,108.41,0,0,1,142,208.36C129.32,208.32,118,203.44,105.76,200.88ZM156.4,321.19c2-2,3.76-4,5.84-6.49a116.44,116.44,0,0,1-14.84-20.08,71,71,0,0,1-13.35,12.75c-8.59,6.35-19.06,11.93-23.78,21.95C106.66,337,106.56,345.9,108,354c.15.82.59,2.8.77,3.64,3.91-11.95,13-19.53,24.33-24.27C138.73,331,144.72,329.1,150,326A32.18,32.18,0,0,0,156.4,321.19ZM261.61,157A93.36,93.36,0,0,0,216,154.66c-1.12.23-2.25.47-3.36.74-.81.2-1.63.4-2.44.62s-1.85.52-2.78.79a92.62,92.62,0,0,0-17.86,7.53c-1.15.63-2.3,1.29-3.42,2-.4.23-.78.46-1.17.72-1,.65-2.08,1.33-3.1,2a93.38,93.38,0,0,0-30.25,34.22c-.54,1-1,2.07-1.54,3.11-.35.76-.71,1.52-1,2.29s-.78,1.78-1.12,2.68a91.58,91.58,0,0,0-5.3,18.66c-.22,1.3-.43,2.6-.58,3.92-.06.46-.13.9-.16,1.36-.15,1.22-.26,2.45-.35,3.67-.18,2.34-.27,4.71-.26,7.09A92.43,92.43,0,0,0,149.41,284c.47,1.06,1,2.09,1.48,3.12q.54,1.13,1.14,2.22c.45.86.93,1.72,1.4,2.56a94,94,0,0,0,11.3,15.73c.87,1,1.78,2,2.7,2.9l.95,1c.88.89,1.78,1.75,2.69,2.59A92.8,92.8,0,0,0,211.17,336c1.1.29,2.21.56,3.34.79.82.19,1.64.35,2.47.5s1.9.36,2.86.5a92.53,92.53,0,0,0,14.61,1.12c1.59,0,3.18-.05,4.75-.13,1.32-.06,2.64-.17,4-.29.46,0,.9-.09,1.36-.15,1.23-.12,2.45-.28,3.67-.47a92.6,92.6,0,0,0,42.08-17.76c.93-.7,1.84-1.42,2.74-2.16.64-.52,1.28-1.05,1.89-1.59s1.48-1.29,2.21-1.95A94.1,94.1,0,0,0,309.93,300c.76-1.08,1.51-2.17,2.23-3.28.25-.37.51-.76.74-1.15.67-1,1.31-2.1,1.93-3.18a92.18,92.18,0,0,0,12.41-44c0-.88,0-1.78,0-2.67,0-.27,0-.53,0-.79,0-.84,0-1.68-.06-2.51,0-1-.08-1.94-.16-2.91a91.74,91.74,0,0,0-3.33-19.1c-.35-1.28-.74-2.53-1.16-3.78-.14-.43-.29-.86-.45-1.3-.4-1.17-.82-2.32-1.28-3.46a93.49,93.49,0,0,0-26.68-37.09c-.88-.75-1.78-1.49-2.7-2.2-.66-.51-1.32-1-2-1.5s-1.59-1.15-2.39-1.72a93.41,93.41,0,0,0-17-9.31c-1.22-.5-2.43-1-3.68-1.44l-1.29-.47C264,157.71,262.8,157.32,261.61,157ZM335,376.9c-5.46-10.74-14.3-19.7-22.56-28.31A87.12,87.12,0,0,1,296,324a99.12,99.12,0,0,1-46.79,20.36,49.15,49.15,0,0,0,1,7.3c5.06,20.44,29,33.8,44.79,45,11.8,8.35,20.58,18.15,26.83,31.21A52.08,52.08,0,0,0,346.35,453c4.25,2,9.89,4.44,14.62,4.29-6.51-7.09-12.51-12-15.78-21.64-3.36-9.86-3.59-20.09-3.49-30.36A61.58,61.58,0,0,0,335,376.9Zm5.68-54.75c-2-2.7-4-5.46-5.95-8.16a32.16,32.16,0,0,0-8.06-8c-.9-.58-9.48-5-9.79-4.54a109.76,109.76,0,0,1-15.85,18.3c11.52,5.58,19.48,14.81,29.44,22.49,11.15,8.6,24.8,9,40.61,1.13C356.85,342,348.43,332.55,340.7,322.15ZM43.17,371a13.09,13.09,0,1,0-13.09,12.8A13.07,13.07,0,0,0,43.17,371ZM55,415.2A10,10,0,1,0,45,425,10,10,0,0,0,55,415.2Zm48.12,65.53A10,10,0,1,0,113.06,491,10,10,0,0,0,103.14,480.73Zm48.24,13.9a13.09,13.09,0,1,0,13,13.38A13.07,13.07,0,0,0,151.38,494.63ZM470,291c-.23,1.93-.87,7-2,14.22a12.45,12.45,0,0,1,4.51,2.94,12.7,12.7,0,0,1-8.93,21.64h0c-1.24,6.07-2.68,12.6-4.34,19.46a12.51,12.51,0,0,1,4,2.72,12.69,12.69,0,0,1-8.93,21.63h-.12a13.55,13.55,0,0,1-1.43-.08C451,379.37,449,385.33,447,391.3l-.66,1.86a12.71,12.71,0,0,1-6.37,23.64h-.12a12.41,12.41,0,0,1-2.73-.3q-4.66,10.58-9.77,19.79a8.68,8.68,0,0,1,.71.66,12.69,12.69,0,0,1-8.92,21.63H419a12.69,12.69,0,0,1-5.26-1.14c-1.11,1.48-2.24,2.91-3.37,4.3q-3.45,4.23-7.05,7.93v222.5a10,10,0,0,1-.54,19.63l12.89,53.6L401,789.48,386.41,765.4l12.9-53.61a10,10,0,0,1-.55-19.6V474.1h0a92.9,92.9,0,0,1-7.17,6,13,13,0,0,1,1,5.16A12.78,12.78,0,0,1,380,497.67h-.11a13,13,0,0,1-2.57-.27,291.32,291.32,0,0,1-20.22,43.76q-11.06,19-23.32,30.41a8,8,0,0,1,1.07,4.11A7.91,7.91,0,0,1,321.23,581a52.87,52.87,0,0,1-15,6.09v0a11.37,11.37,0,0,1-22.73-.29v0a63.28,63.28,0,0,1-13.75-5.3,7.89,7.89,0,0,1-13-6,8,8,0,0,1,.29-2.09,125,125,0,0,1-10.48-8.93q-3.76-3.59-7.55-7.69h0v43.17a2.28,2.28,0,1,1-4.55,0V551.66a293.21,293.21,0,0,1-27.62-38.81l-2.11-3.53a9.76,9.76,0,0,1-5.22,1.47,10,10,0,0,1-4.6-18.91,547.79,547.79,0,0,1-24.09-51.37c-.41-1-1.35-3.27-2-4.74-10.52,9.37-20,19.29-20.36,34.64,0,1.61-.09,4.72-.34,6.92a52.68,52.68,0,0,1-5.88-14.66c-3.64-15.74,3.09-30.63,8-45.26a66.83,66.83,0,0,0,4-23.12c.1-9.36-.43-18.63-.47-28-.05-13.33,2-31,7.18-40.86a26.38,26.38,0,0,1,5.45-6.72,100.36,100.36,0,0,0,45.2,24.2,87.46,87.46,0,0,0-8.89,28.15C201,384.12,199.32,398.18,193,410c-4.74,8.84-12.65,15.71-20.49,22.57.3.76,1.71,4.35,1.92,4.87a535.21,535.21,0,0,0,25,53.36h.14A10,10,0,0,1,209.52,501a9.76,9.76,0,0,1-1.48,5c.88,1.51,1.79,3,2.7,4.53a301.83,301.83,0,0,0,23.7,34v-54.3a13.08,13.08,0,0,1,0-25.92V408.55a43.14,43.14,0,0,1-3.8-2.93A33.1,33.1,0,0,1,219.45,386c-1.44-9.22,1-18.56.57-27.81a82.2,82.2,0,0,0-1.82-14,98.06,98.06,0,0,0,16.27,1.31c2.28,0,5.55-.18,7.79-.34.81,3,1.44,5.29,2.16,8a22.82,22.82,0,0,1,.47,8.61c-.72,5.9-3.22,11.68-5.13,17.2a43,43,0,0,0-2.65,14.9c3.42,6.34,11.78,21.83,12.29,22.75,1.35,2.44,4,7.13,8,13h0a10.27,10.27,0,0,1,4.45-1,10,10,0,0,1,9.92,10.24,9.83,9.83,0,0,1-2.7,6.6h0c2.17,2.67,4.49,5.37,7,8.07,1.55,1.68,3.18,3.39,4.9,5.11a12.87,12.87,0,0,1,8-2.75H289a12.5,12.5,0,0,1,8.89,3.75,12.78,12.78,0,0,1,3.69,9.2,12.25,12.25,0,0,1-1.55,5.8,98.82,98.82,0,0,0,20.61,11,12.45,12.45,0,0,1,2.69-4,12.73,12.73,0,0,1,9-3.66h.05a12.45,12.45,0,0,1,8.9,3.75,12.74,12.74,0,0,1,3.68,9c1.42.06,2.85.06,4.29,0a64.57,64.57,0,0,0,18.23-3.09,12.29,12.29,0,0,1-.29-2.79A12.59,12.59,0,0,1,380,472.28H380a10.88,10.88,0,0,1,1.14.06q5.07-16,9.74-34.17c2.9-11.28,5.52-22.57,7.88-33.61h0V290.14c-2.05.46-4.15,1-6.34,1.6-20.65,5.73-44.79,14.47-65.42,7.37a25.53,25.53,0,0,1-6.47-3.48,99,99,0,0,0,13.32-49.26c10,2.53,19.57,2.59,29.42,2.12,13.9-.67,28-1.42,41.65,1.84,12.57,3,21.68,12.29,31.87,19.59A50.12,50.12,0,0,0,456,278.4c7.73,1.61,16.42-.68,24-.63-1.71,2.61-5.68,5.19-9.32,7.19C470.46,286.88,470.08,290.55,470,291Zm-66.72-1.69v92.67c8.22-43.3,12.23-79.11,13.2-88.4.1-1,.31-3.39.44-5A59.83,59.83,0,0,0,403.31,289.26Zm-78.37,198a8.2,8.2,0,0,0-.8,3.52,9.28,9.28,0,0,0,.06,1.06,8.05,8.05,0,0,0,2.29,4.7,8.16,8.16,0,0,0,5.79,2.41h.07a8.17,8.17,0,0,0,6.92-4,7.81,7.81,0,0,0,1.15-4c0-.17,0-.33,0-.5a8.26,8.26,0,0,0-2.36-5.46,8,8,0,0,0-5.68-2.39h0A8.11,8.11,0,0,0,324.94,487.21Zm-40.69-25.29a8.1,8.1,0,0,0-3.52,6.7v.05a8.11,8.11,0,0,0,8.13,8.11h.08a8,8,0,0,0,4.3-1.28,8.25,8.25,0,0,0,3-3.46,7.82,7.82,0,0,0,.74-3.2,8.26,8.26,0,0,0-2.38-5.94,7.88,7.88,0,0,0-5.67-2.39h0A8.24,8.24,0,0,0,284.25,461.92Zm88.83,33.77a12.81,12.81,0,0,1-2.21-1.77,12.64,12.64,0,0,1-1.61-2,68.82,68.82,0,0,1-19.89,3.41q-.94,0-1.89,0c-1.11,0-2.23,0-3.35-.07a12.82,12.82,0,0,1-11.76,8.15h-.12a12.67,12.67,0,0,1-12.66-12.74c0-.17,0-.33,0-.49a95.36,95.36,0,0,1-14-6.58q-4.27-2.43-8.51-5.36a12.51,12.51,0,0,1-8.12,3.05h-.12a12.67,12.67,0,0,1-12.66-12.73,12.81,12.81,0,0,1,1.76-6.45q-2.69-2.68-5.34-5.57c-2.61-2.86-5.06-5.71-7.33-8.5h0a9.51,9.51,0,0,1-3.54.65,10,10,0,0,1-7.92-16.15v0c-3.72-5.54-6.38-10.09-7.91-12.84-.37-.66-1.9-3.48-3.61-6.63-1-.51-2.2-1.14-3.28-1.72v53.08a13.11,13.11,0,0,1,0,25.62V549.9h0a144.58,144.58,0,0,0,20.51,19.58,8,8,0,0,1,5.21-1.89,7.92,7.92,0,0,1,7.83,8.08,8,8,0,0,1-.29,2,58.37,58.37,0,0,0,12.18,4.7,11.36,11.36,0,0,1,21,.27A49,49,0,0,0,319.14,577a7.21,7.21,0,0,1-.13-1.48,7.9,7.9,0,0,1,11.43-7.05q11.83-10.93,22.69-29.56A287.49,287.49,0,0,0,373.08,495.69Zm14.64-12.87a8.13,8.13,0,0,0-2.07-3.6l-.3-.29a8.32,8.32,0,0,0-1.26-.95,8,8,0,0,0-4.1-1.15h-.31a8.08,8.08,0,0,0-7.93,8.11V485a8.47,8.47,0,0,0,.08,1.13,8,8,0,0,0,1.89,4.16c.12.14.25.28.38.41a6.42,6.42,0,0,0,.62.55,8,8,0,0,0,4.18,1.79,6.37,6.37,0,0,0,1,.06H380a8.16,8.16,0,0,0,8.07-7.94A8,8,0,0,0,387.72,482.82Zm11-15V425.28h0c-1.11,4.66-2.27,9.35-3.47,14q-4.68,18.18-9.77,34.28A12.55,12.55,0,0,1,388.9,476c.07.08.14.15.2.23a94.7,94.7,0,0,0,9.66-8.44ZM425,440.37l-.22-.23a7.83,7.83,0,0,0-3.67-2.13,8.31,8.31,0,0,0-2-.26h0a8.15,8.15,0,0,0-6.34,13.33,5,5,0,0,0,.49.54,8.16,8.16,0,0,0,3.27,2A8.39,8.39,0,0,0,419,454h.08a8.16,8.16,0,0,0,8.07-7.94A8.3,8.3,0,0,0,425,440.37Zm19.72-42.8a7.91,7.91,0,0,0-4.27-1.58l-.5,0h0a8.11,8.11,0,0,0-8.2,8.12v.05a8,8,0,0,0,2.35,5.7,6.66,6.66,0,0,0,.69.62,8.05,8.05,0,0,0,4.2,1.74,8.85,8.85,0,0,0,.89.05h.08a8.16,8.16,0,0,0,8.07-7.94,8.24,8.24,0,0,0-2.38-5.95A8.37,8.37,0,0,0,444.72,397.57Zm13.39-43.84a7.92,7.92,0,0,0-3.85-1h0a5.43,5.43,0,0,0-.57,0A8.13,8.13,0,0,0,454,369h.23a8.17,8.17,0,0,0,8.07-7.94,8.28,8.28,0,0,0-2.38-5.95A8.14,8.14,0,0,0,458.11,353.73Zm-3.33-5.54c1.65-6.77,3.07-13.23,4.3-19.23A12.75,12.75,0,0,1,454.55,308a12.76,12.76,0,0,1,9-3.66c.76-4.79,1.29-8.58,1.63-11.13.18-1.39.44-4,.62-5.77a49.69,49.69,0,0,1-34.65,3.42,87.32,87.32,0,0,0-9.58-1.87c-.16,1.59-.41,4-.51,5h0c-1.15,10.94-6.44,58-17.73,111v58c1.18-1.32,2.35-2.68,3.5-4.1s2.13-2.67,3.19-4.06a12.51,12.51,0,0,1-3.67-9,12.6,12.6,0,0,1,12.75-12.64h.05a12.74,12.74,0,0,1,4.27.75c3.3-5.95,6.46-12.37,9.49-19.21a13.23,13.23,0,0,1-2.06-1.69,12.7,12.7,0,0,1,9.08-21.63h0a13.07,13.07,0,0,1,2.08.17c.2-.56.41-1.14.6-1.72,2.07-5.93,4-11.86,5.71-17.71a12.76,12.76,0,0,1-3.16-20.33,12.77,12.77,0,0,1,9-3.65h.55Zm12.48-38.38a7.88,7.88,0,0,0-3.65-.89h0c-.27,0-.52,0-.79,0a8.15,8.15,0,0,0-5.07,13.84,8.18,8.18,0,0,0,5.79,2.41c.33,0,.66,0,1-.05a8.15,8.15,0,0,0,4.8-13.84A7.69,7.69,0,0,0,467.26,309.81ZM70.74,771.87v10.27l14.12,17.37a2.28,2.28,0,0,1,.45,2L70.68,862.25a2.27,2.27,0,0,1-4.42,0L51.63,801.48a2.25,2.25,0,0,1,.44-2l14.12-17.37V771.86a20.23,20.23,0,0,1,0-40.21V719.34a15.88,15.88,0,0,1,0-31.43V470.07a13.08,13.08,0,0,1,0-25.71V316.76c-20-1.7-37.17-11.38-60.9,2.05A49.4,49.4,0,0,0,0,322.36a49.14,49.14,0,0,1,7.45-13.24c8.08-10.21,19.27-15.85,31.75-18.6,14-3.09,26.69-11.19,36.78-21.18,12-11.92,26.15-24.45,42.6-29.66,2.79-.88,16.49-3.08,16.41-2-.19,2.5-.34,5.87-.33,8.43a98.87,98.87,0,0,0,9.66,42.59,87.21,87.21,0,0,0-27.56,10.61c-13.87,8.33-29.31,17.68-46,17.67V444.28a13.1,13.1,0,0,1,0,25.86V687.9a15.52,15.52,0,0,1,9,4.53,15.88,15.88,0,0,1-9,26.91v12.29a19.8,19.8,0,0,1,12.09,5.86,20.25,20.25,0,0,1-12.09,34.38Zm-4.55-57.15a12.22,12.22,0,0,0,2.27.23,11.33,11.33,0,0,0,8-19.33,11,11,0,0,0-5.75-3.1,10.26,10.26,0,0,0-2.15-.23h0a11.45,11.45,0,0,0-2.36.24,11.32,11.32,0,0,0,0,22.19Zm2.28,71.83-12.15,15L68.47,852l12.15-50.48Zm2.27-19.27a15.69,15.69,0,0,0,8.84-26.6,15.32,15.32,0,0,0-8.84-4.46,14.76,14.76,0,0,0-2.11-.15h0a15.72,15.72,0,0,0-15.8,15.63v.09a15.72,15.72,0,0,0,15.68,15.65h.15A13.7,13.7,0,0,0,70.74,767.28Zm-21.31-173a6.2,6.2,0,1,0,6.14,6.33A6.17,6.17,0,0,0,49.43,594.26ZM43.18,626.6a6.2,6.2,0,1,0,6.25-6.17A6.18,6.18,0,0,0,43.18,626.6Zm12.39,26.32a6.2,6.2,0,1,0-6.2,6.07A6.2,6.2,0,0,0,55.57,652.92Zm19.09,50.84a6.2,6.2,0,1,0-6.2,6.06A6.2,6.2,0,0,0,74.66,703.76Zm0,48.13a6.2,6.2,0,1,0-6.2,6.06A6.2,6.2,0,0,0,74.66,751.89Zm162.14-69a8.58,8.58,0,1,0,8.49,8.77A8.56,8.56,0,0,0,236.8,682.88Zm0,26.68a6.49,6.49,0,1,0,6.42,6.63A6.47,6.47,0,0,0,236.78,709.56Zm0,22.5a4.69,4.69,0,1,0,4.64,4.79A4.68,4.68,0,0,0,236.76,732.06ZM260,641.94l-10.26-2.89a14,14,0,0,1-9.93-10.79l-2.6-13.45a.49.49,0,0,0-1,0l-2.61,13.45a14,14,0,0,1-9.92,10.79l-10.27,2.89a.49.49,0,0,0,0,.95l10.27,2.89a14,14,0,0,1,9.92,10.8L236.23,670a.49.49,0,0,0,1,0l2.6-13.45a14,14,0,0,1,9.93-10.8L260,642.89A.49.49,0,0,0,260,641.94Z"/></svg>