<svg id="Layer_1" data-name="Layer 1" xmlns="http://www.w3.org/2000/svg" viewBox="0 0 864 653.68"><defs><style>.cls-1{fill:#a16e58;}</style></defs><title>Untitled-31</title><path class="cls-1" d="M863.89,475.49a4.4,4.4,0,0,0-5.5-3.24,21.14,21.14,0,0,1-4.1.33,225.58,225.58,0,0,0-56.78,8.47c-18.71,5.4-34.67,7.92-50.25,7.94-20.62,0-40.35,2.81-62.23,6.18-13.8,2.55-27.64,5.73-39.35,8.49A116,116,0,0,1,617,507a28.28,28.28,0,0,1-12.25-3,128.88,128.88,0,0,0,27.61-5.19c3.81-1.18,4.49-3.83,3.85-5.92-.29-1-1.61-4-6.32-2.63a124.84,124.84,0,0,1-16.37,3.78c-10.6,1.56-21.83.87-32.7.21-2.65-.16-5.36-.31-8.07-.44-1.55-.08-3.1-.16-4.64-.21-2.22-.07-4.44-.05-6.66,0-5.18.11-10.33.47-15.36.84-6.12.45-12.39.91-18.65.87-2.21,0-4.41-.08-6.61-.23A71.58,71.58,0,0,1,512,494c-2.08-.4-4.13-.9-6.16-1.48a71.8,71.8,0,0,1-9.93-3.67c-.54-.24-1.06-.51-1.6-.76-4.82-2.28-9.57-4.85-14.18-7.37-3-1.65-6.07-3.31-9.15-4.9-9.61-4.94-19.63-9.3-29.33-13.51-4.39-1.91-8.78-3.82-13.15-5.79q-2.1-.93-4.22-1.83a71.5,71.5,0,0,1-11.59-5.76c-.85-.55-2-1.32-2-1.89a5.48,5.48,0,0,1,1.67-.86l.76-.3c4.41-1.87,9.29-2,13.91-1.78,18.61.71,35.11,5.87,52.59,11.32,6.29,2,12.79,4,19.39,5.8,7,1.91,16.23,3.79,25.87,1.33,5.17-1.31,10.32-2.33,15.4-3.11,2.83-.44,5.64-.82,8.41-1.08A97.55,97.55,0,0,0,563,455.91a106.16,106.16,0,0,0,17.41-6q2.61-1.16,5.19-2.44c1.39-.7,2.82-1.41,4.29-2.11a134.86,134.86,0,0,1,21-8.31c1.46-.42,2.93-.82,4.43-1.18L613.2,438l-.08.08c-2.46,2.42-2,4.9-.79,6.4,1.34,1.65,3.87,2.37,6.51.29a23.77,23.77,0,0,0,2.16-1.93c.37-.36.71-.74,1.07-1.1a99.05,99.05,0,0,0,7.11-8c1.54-1.92,3-3.87,4.42-5.89a73.48,73.48,0,0,0,7.78-14.38,54.34,54.34,0,0,0,3-10.42c.08-.47.19-.94.26-1.41a1.34,1.34,0,0,0,.11.14c.8,1.09,1.58,2.16,2.32,3.24a34.94,34.94,0,0,1,2.49,4.14c1,2,2,4.09,2,6.3a5.33,5.33,0,0,0,1.49,4,4.17,4.17,0,0,0,3.16,1.07,4.3,4.3,0,0,0,3.32-1.83,5.68,5.68,0,0,0,.93-3.67c0-.56-.09-1.1-.16-1.62a16.26,16.26,0,0,0-.89-3.62,58.72,58.72,0,0,0-14.17-21.1,75.81,75.81,0,0,0-8.42-7.15,115,115,0,0,0-20.94-11.94c-6.4-2.91-13-5.46-19.47-8-2.86-1.11-5.71-2.21-8.53-3.34-13.93-5.58-29.62-13.26-40.29-28-1.94-2.68-3.64-6.7-3.07-9.65a3.71,3.71,0,0,1,1.7-2.58c1.11-.71,2.75-.89,5-.56,6.15.91,11.58,4.1,17.34,7.48,1.93,1.13,3.86,2.26,5.82,3.31a91,91,0,0,0,10.84,4.84,165.4,165.4,0,0,0,23.88,6.58c2.86.61,5.71,1.18,8.55,1.75,5.83,1.17,11.85,2.37,17.65,3.83a136.62,136.62,0,0,1,24.33,9c4.83,2.25,9.59,4.65,14.28,7l4.44,2.23c3.87,1.94,7.8,3.88,11.75,5.68,8.3,3.78,17.27,6.52,26,9.16,12.14,3.71,24.68,7.53,35.34,14.26a64.82,64.82,0,0,1,27.51,37c.7,2.5,3.09,5.34,5.55,5.57a3.4,3.4,0,0,0,3.39-2,5.06,5.06,0,0,0,.17-3.46,71.58,71.58,0,0,0-10.87-24.62C803.92,407.71,831,400.45,855,394c1.81-.48,3.94-1.79,4.62-3.6a3.42,3.42,0,0,0-.39-3.2c-1-1.52-2.83-2-5.39-1.46l-32.6,7c-20.33,4.36-38.46,7.36-54.36-.13a84.62,84.62,0,0,1-11.18-6.76c-3-2-6-4.06-9.22-5.8-8.13-4.41-17.15-6.72-25.87-8.94-5.45-1.39-11.07-2.83-16.37-4.76-8.41-3.07-16.45-7.55-24.23-11.89a203.92,203.92,0,0,0-21.12-10.72c-11.89-4.92-24.7-7.57-37.08-10.12l-1.71-.36a263.29,263.29,0,0,1,26.35-4.81c4.37-.58,8.8-1,13.49-1.39,16.26-1.45,33.07-3,47.57-12.08,2.83-1.78,5.61-3.79,8.54-5.92,8.39-6.07,17.06-12.34,26-12.3l.48,0c2.06.15,6.88.52,8.71-3.76,1.38-3.23.13-6.29-3.73-9.13-6.56-4.84-13.9-6.08-20.37-7.18-12-2-23.39.66-34.38,3.26a145.82,145.82,0,0,1-16.51,3.27c-11.5,1.37-23,.41-35.06-.61-3.83-.32-7.79-.66-11.71-.91a160.83,160.83,0,0,0-22.71.17c3.87-1.94,7.87-3.64,12.06-5.43s8.29-3.53,12.39-5.57c14.51-7.23,24.68-18.46,30.22-33.37,1-2.63,3.28-8.8-1.1-11.87-4.1-2.89-8.42.75-9.83,2-13.36,11.28-29.73,13.77-47,16.41-6.16.94-12.5,1.9-18.76,3.3A225.76,225.76,0,0,1,616.46,218c3.35-2.51,6.9-5,10.33-7.41,14.65-10.27,29.79-20.89,38.29-38.28,1.15-2.34,2.22-4.75,3.25-7.07,3.34-7.51,6.49-14.61,12-19.73a25.3,25.3,0,0,1,4.14-3.26l.43-.21c1.86-.9,6.21-3,5.67-7.61-.43-3.48-3-5.51-7.8-6-20.75-2.33-35.25,11-48,22.83-5.13,4.72-10,9.18-15,12.65-10,6.85-21.1,12.69-31.79,18.34-9,4.74-18.19,9.6-27,15.16q2-2.67,4-5.38c10.69-14.26,21.72-29,21.21-47v-.53a95.24,95.24,0,0,0-1-13.16c-.47-2.77-1.57-9.26-6.89-9.73-5-.45-6.92,4.86-7.55,6.61-6.83,19-23.91,32.58-40.42,45.75-2.4,1.91-4.84,3.86-7.25,5.83,1-4.15,2.4-8.43,3.64-12.25.74-2.28,1.44-4.45,2-6.46,2.89-9.82,7.24-19.7,11.44-29.25,5.76-13.06,11.71-26.58,14.43-40.8,1.57-8.22.83-16.36.11-24.22-.81-8.73-1.56-17,.84-24.66a25.32,25.32,0,0,1,1.95-4.89c.07-.11.16-.25.27-.4,1.16-1.7,3.89-5.7,1.1-9.42-2.11-2.81-5.38-3.26-9.77-1.34-19.31,8.45-25.11,27.65-30.23,44.59a164.87,164.87,0,0,1-5.53,16.29c-4,9.52-10.06,17.85-16.44,26.67a212.43,212.43,0,0,0-12.9,19.3c-2.5,4.37-4.81,8.89-6.95,13.52.26-3.64.72-7.5,1.21-11.52,1.83-15.18,3.89-32.39-4.61-46.16l-.3-.47a94.13,94.13,0,0,0-7.44-10.87c-1.79-2.16-6-7.23-10.84-5-4.55,2.11-3.55,7.67-3.23,9.49,2.61,14.48-1.68,29-6.21,41.33-1.06,2.88-2.44,6.13-3.9,9.57-2,4.68-4.09,9.66-5.89,14.8-4.4-15.16-6.89-30.3-8.77-43.62-.48-3.36-.89-6.75-1.31-10.16-1.5-12.27-3.06-25-7.46-37C415.39,49,411,42.24,406.82,35.67c-2.65-4.14-5.16-8-7.25-12-.42-1-1.54-5.58-2.29-8.62C394.55,3.81,394.06,1.8,391.12.54,387.9-.83,384.83.41,382,4.27c-11.44,15.53-8.44,34.09-4.73,50.27C381.5,73,381,91.45,380.45,111c-.32,11.54-.64,23.32.12,35.14-2.14-4.11-4-8.4-5.92-12.89-3.36-7.76-6.82-15.79-12-23.06-6.22-8.8-15.32-15.48-27.07-19.85-2.63-1-8.8-3.28-11.87,1.1-2.89,4.1.75,8.42,1.95,9.84,11.18,13.24,13.65,29.55,16.26,46.81.63,4.2,1.29,8.54,2.08,12.82.27,1.49.71,3.59,1.25,6a261.63,261.63,0,0,1-33.81-38.15q-2-2.76-4-5.57c-7.21-10.11-14.66-20.57-24.84-28.65C276.83,89.9,270.21,86.87,263.8,84c-7.68-3.52-14.94-6.83-20.22-12.56a25,25,0,0,1-3.29-4.2c-2.53-4.43-5.46-6.34-8.72-5.65-1.68.35-4.58,1.72-5.12,6.87-2.2,21,11.61,36,23.79,49.2l2.19,2.39c12.37,13.51,20.88,30.15,28.24,46.13a180.4,180.4,0,0,0,8.42,16.06c-2.54-.07-5.09-.17-7.65-.34-1.95-.12-3.89-.27-5.86-.46a2.68,2.68,0,0,1-.65-.41c-3.7-2.57-7.56-4.81-10.51-6.48-13.55-7.64-29.64-5.27-44.67-1.83-2.48.56-4.93,1.16-7.34,1.74-2.2.54-4.36,1.06-6.45,1.54l-5.74,1.33c-20.35,4.7-41.41,9.56-62.54,10.22-4.06.13-8.12.19-12.17.26-16.44.25-33.45.52-49.9,5.2-10.84,3.09-19.88,5.62-29.38,7.64-10.74,2.3-22.59,3.49-37.28,3.76a23.68,23.68,0,0,0-5.37.59,4.61,4.61,0,0,0-3.47,5.43,4.4,4.4,0,0,0,5.5,3.24,21.9,21.9,0,0,1,4.1-.34,225.13,225.13,0,0,0,56.78-8.46c18.71-5.4,34.67-7.92,50.25-7.94,2.11,0,4.21-.06,6.31-.12,5.29-.14,10.54-.45,15.8-.9,13-1.11,26.14-3,40.12-5.16,13.8-2.55,27.64-5.73,39.35-8.49,2.36-.55,4.67-1,7-1.45a112.58,112.58,0,0,1,18.62-1.93c1,0,2.09,0,3.12,0a28.28,28.28,0,0,1,12.25,2.95c-3.43.29-6.73.72-10,1.21a127,127,0,0,0-13.4,2.81c-1.42.38-2.84.74-4.23,1.17-3.81,1.18-4.49,3.83-3.85,5.92.29,1,1.61,4,6.32,2.63,3.29-1,7-2,10.86-2.77,1.82-.39,3.65-.74,5.51-1,2.35-.34,4.74-.56,7.15-.71a169.31,169.31,0,0,1,19.24.14l6.31.37c4.17.25,8.48.51,12.71.65,4,.12,8,0,12-.19,3.38-.17,6.74-.41,10.05-.65,8.28-.61,16.84-1.24,25.26-.64A71.57,71.57,0,0,1,368.07,197c5.37,2.44,10.66,5.33,15.77,8.12,3,1.66,6.08,3.32,9.16,4.91,9.61,4.94,19.63,9.3,29.33,13.51,4.39,1.91,8.78,3.82,13.15,5.79q2.1.93,4.22,1.83A71.5,71.5,0,0,1,451.29,237c.85.55,2,1.32,2,1.89a5.27,5.27,0,0,1-1.67.85c-.26.11-.52.2-.76.31-4.41,1.87-9.3,2-13.91,1.78-18.61-.71-35.11-5.87-52.59-11.32-6.29-2-12.79-4-19.39-5.8-7-1.91-16.23-3.79-25.87-1.33a158.8,158.8,0,0,1-23.81,4.19,98.78,98.78,0,0,0-20.95,4.36,109.81,109.81,0,0,0-15.93,6.52l-.94.47c-8.32,4.16-18,8.56-28.76,11.13l2.19-2.18c2.46-2.43,2-4.9.79-6.4s-3.87-2.37-6.51-.3a27,27,0,0,0-2.16,1.94A98.94,98.94,0,0,0,231.87,256c-.49.68-1,1.34-1.47,2q-2.25,3.28-4.06,6.53a66.68,66.68,0,0,0-4.06,8.72,53.64,53.64,0,0,0-2.76,10.06c-.05.3-.12.6-.17.9l-.1-.14-.58-.79a45.45,45.45,0,0,1-4.24-6.59,25,25,0,0,1-1.56-3.66,8.87,8.87,0,0,1-.49-2.65,5.3,5.3,0,0,0-1.49-4,4.17,4.17,0,0,0-3.16-1.07,4.3,4.3,0,0,0-3.32,1.83,5.68,5.68,0,0,0-.93,3.67,20.88,20.88,0,0,0,.37,2.89,15.29,15.29,0,0,0,.68,2.35,52.48,52.48,0,0,0,3.52,7.43,60.24,60.24,0,0,0,7.06,9.85c1.13,1.28,2.31,2.56,3.59,3.82,7.84,7.73,17.09,13.3,26.82,17.91l1.46.68c4.64,2.14,9.37,4.09,14.1,6,2.15.85,4.31,1.68,6.45,2.51,2.86,1.11,5.71,2.21,8.53,3.34,13.93,5.57,29.62,13.26,40.29,28,1.94,2.68,3.64,6.7,3.07,9.65a3.71,3.71,0,0,1-1.7,2.58c-1.11.71-2.75.89-5,.56-6.15-.91-11.58-4.1-17.34-7.48-1.93-1.13-3.86-2.26-5.82-3.31-13.57-7.23-28.67-10.25-43.27-13.17-5.82-1.17-11.85-2.38-17.65-3.83a120.19,120.19,0,0,1-17.45-6c-5.9-2.49-11.67-5.29-17.34-8.14L190,324.43c-5.27-2.66-10.72-5.41-16.19-7.91-8.3-3.78-17.27-6.52-26-9.17-12.14-3.7-24.68-7.52-35.34-14.25a64.82,64.82,0,0,1-27.51-37c-.7-2.51-3.09-5.34-5.55-5.57a3.38,3.38,0,0,0-3.39,2,5.06,5.06,0,0,0-.17,3.46A71.58,71.58,0,0,0,86.8,280.64C60.08,278.16,33,285.42,9,291.87c-1.82.48-3.95,1.78-4.63,3.6a3.45,3.45,0,0,0,.39,3.2c1,1.51,2.83,2,5.39,1.45l32.6-7c20.33-4.36,38.46-7.36,54.36.13A84.62,84.62,0,0,1,108.29,300c2.95,2,6,4.06,9.22,5.8,8.13,4.41,17.15,6.72,25.87,8.94,5.45,1.39,11.07,2.83,16.37,4.76a133.56,133.56,0,0,1,17.78,8.33,104.54,104.54,0,0,0-30.09,8.41c-5.52,2.56-10.35,6-15,9.41-6.34,4.58-12.33,8.9-19.4,10.49a24.81,24.81,0,0,1-5.21.75l-.48,0c-2-.15-6.83-.51-8.68,3.71a6.79,6.79,0,0,0-.59,2.74,7,7,0,0,0,.86,3.31c3.43,6.42,19.29,9.52,22.43,10.08,12.61,2.23,24-.49,35.07-3.12A155.9,155.9,0,0,1,173,370.3c10.27-1.27,20.5-.21,31.33.9a214.61,214.61,0,0,0,23.16,1.53c5,0,10.12-.28,15.21-.75-3.5,1.72-7.13,3.26-10.9,4.86-8,3.37-16.2,6.85-23.66,12.45-12.43,9.33-20.09,22-21,34.85a5.12,5.12,0,0,0,3.32,5.21,5,5,0,0,0,5.84-1.79c2.45-2.75,20.68-11.51,25.93-13.09,10.33-3.1,21.1-4.66,30.28-5.79,3.1-.38,7.93-1.41,12.88-2.59a263.68,263.68,0,0,1-43.12,37.49c-13,9.07-23.3,17.33-31.38,28.14-4,5.36-6.72,11.32-9.34,17.08-3.35,7.36-6.51,14.31-12,19.38a25.3,25.3,0,0,1-4.14,3.26c-6.07,3.33-6.15,6.88-5.15,9.26,3.13,7.51,21.15,3,21.33,3A72.3,72.3,0,0,0,208.1,509c3-2.59,5.87-5.36,8.62-8a127,127,0,0,1,11.72-10.48c8.26-6.23,17.64-10.43,27.58-14.88a214.51,214.51,0,0,0,20.82-10.26q6.54-3.82,12.82-8.26c-2.22,3.34-4.65,6.58-7.18,10A149.63,149.63,0,0,0,271,484c-6.54,11.84-8.57,24.4-6.21,38.41.47,2.77,1.57,9.26,6.9,9.73,5,.45,6.91-4.86,7.54-6.61,3.08-8.55,8.83-17,17.08-25a178.12,178.12,0,0,1,15.58-13c2.14-1.66,4.28-3.31,6.39-5,2.89-2.32,5.54-4.59,8-6.89a242.41,242.41,0,0,1-13.73,42.71c-1.53,3.57-3.16,7.08-4.88,10.81-7,15.21-14.34,31-13.61,48.63.14,3.6.53,7.16.91,10.6.88,8.14,1.71,15.83-.58,23.2a25.83,25.83,0,0,1-2,4.9l-.27.4c-1.16,1.7-3.88,5.71-1.1,9.41,2.11,2.81,5.38,3.26,9.78,1.34,12-5.24,21.4-17.68,28-37,.95-2.78,1.85-5.58,2.75-8.38,3.11-9.73,6.06-18.92,11.17-27.22,3.16-5.14,6.81-10.19,10.35-15.08a211.49,211.49,0,0,0,12.84-19.19q3.75-6.59,7-13.57c-.25,4.05-.74,8.13-1.24,12.37-.95,8-1.93,16.36-1.28,24.87,1,13.33,7.65,27,17.29,35.58a6.64,6.64,0,0,0,3.56,1.75,5.92,5.92,0,0,0,5-1.71,8,8,0,0,0,1.89-6.6,76.87,76.87,0,0,1,2.15-32,131.59,131.59,0,0,1,6.1-16,146.4,146.4,0,0,0,6.39-16.67l.48-1.66c.21-.69.41-1.39.61-2.08a265,265,0,0,1,9.86,45.28c.53,4.13.9,8.27,1.3,12.66,1.44,15.86,2.93,32.27,12,46.59,1.93,3,4,5.93,6.09,8.73,4.83,6.6,9.4,12.85,11.09,20.37A25.8,25.8,0,0,1,455,644c0,.13,0,.3,0,.48-.15,2.06-.51,6.88,3.76,8.71,3.22,1.37,6.29.13,9.14-3.73,4.82-6.56,6.07-13.9,7.17-20.38,2.26-13.34-.72-26.22-3.61-38.66-1.14-4.91-2.21-9.54-3-14.21-1.62-9.71-.46-19.7.76-30.28a170.64,170.64,0,0,0,1.61-21.55q0-7.56-.75-15.19c1.69,3.45,3.26,7.17,4.9,11.05,5.82,13.79,12.43,29.42,26.89,37.2l.46.25a95,95,0,0,0,11.91,5.7c2.64,1,8.8,3.28,11.88-1.1,2.88-4.11-.76-8.42-2-9.84C513.66,540,511.38,525.31,509,509.77c-.42-2.75-.87-5.55-1.35-8.37A86.22,86.22,0,0,0,521.44,504c3.12,3.49,6.18,7,9.13,10.73,3.63,4.51,6.92,9.29,10.4,14.35,6.71,9.75,13.65,19.83,23.08,27.76,6,5,13.42,8.47,20.59,11.78,10.29,4.75,20,9.24,24.88,17.79.06.11.13.26.21.43.9,1.86,3,6.22,7.61,5.66,3.48-.42,5.51-3,6-7.8,2.34-20.89-11.41-35.55-23.53-48.48a164.48,164.48,0,0,1-11.32-12.92,109.26,109.26,0,0,1-11.27-19.57c3.68.14,7.39.36,11.15.73a2.89,2.89,0,0,1,.65.41c3.7,2.57,7.56,4.81,10.51,6.48,15.79,8.91,35,4.22,52,.09,2.2-.54,4.35-1.06,6.45-1.54l5.74-1.33c20.36-4.7,41.41-9.57,62.54-10.22,4.06-.13,8.12-.19,12.17-.26,16.44-.25,33.45-.52,49.9-5.2,10.84-3.09,19.88-5.62,29.38-7.64,10.74-2.3,22.59-3.49,37.28-3.76a23.68,23.68,0,0,0,5.37-.59A4.61,4.61,0,0,0,863.89,475.49ZM552.94,448.76l-.22,0-.5.08c-2.41.36-4.83.68-7.25,1-3.74.49-7.55,1-11.37,1.71-2.72.49-5.44,1.05-8.15,1.8-5.25-8.41-12.16-14.9-20-21.92a100.3,100.3,0,0,1-18.8-22.05c-6.47-10.44-14.34-19.64-21.18-27.26a85.3,85.3,0,0,1-8.2-10.94,13,13,0,0,1-1.71-4.1,2.66,2.66,0,0,1,.07-2.1,3.39,3.39,0,0,1,2.52-.66,17.23,17.23,0,0,1,6,2,87.69,87.69,0,0,1,28.07,24.05,62.38,62.38,0,0,0,15,13.81c3.51,2.35,7.18,5.1,11.21,8.4a56.22,56.22,0,0,1,9.22,9.85c6.05,8,14,14,24.15,18.1a101.58,101.58,0,0,1,12.2,6.06A95.52,95.52,0,0,1,552.94,448.76Zm31.19-10.35c-3.39,1.62-6.43,3-9.33,4.22l-.3.12h0a101.08,101.08,0,0,0-19.43-10.4c-8.08-3.29-14.87-8.47-21.36-16.3a119.82,119.82,0,0,1-13.79-21.13l-3-5.7c-5.22-10-10.62-20.23-15.34-30.62-1-2.15-1.81-4.33-2.72-6.75a11,11,0,0,1-.67-3.13,14.23,14.23,0,0,1,6.25,2.35c9.7,6.41,16.72,13.74,21.48,22.42a85.24,85.24,0,0,0,15.23,20.13,82,82,0,0,1,9.6,12.15l.45.65a60.22,60.22,0,0,0,4.95,6.17,64.45,64.45,0,0,0,14.46,11.76c1.16.71,2.36,1.45,3.58,2.23a84.55,84.55,0,0,1,13.3,10.2Zm13.44-6.11-.79.32a1.8,1.8,0,0,1-.62.19,1.23,1.23,0,0,1-.35-.28c-.4-.42-.82-.81-1.23-1.21-6.49-6.4-14-11.27-21.15-15.7-.45-.28-.89-.57-1.33-.86a46.83,46.83,0,0,1-12.85-12.41c-1-1.49-2.12-3-3.21-4.41-.73-1-1.46-1.94-2.17-2.93-1.54-2.12-3.26-4.08-4.92-6-.56-.64-1.12-1.27-1.67-1.91a18.68,18.68,0,0,1-4.55-11c0-1.89.51-2.84.94-3.1a2.8,2.8,0,0,1,2.3.43h0a13.26,13.26,0,0,1,4.53,4,110.53,110.53,0,0,1,6.21,9.46,71.69,71.69,0,0,0,15.23,17.83A70,70,0,0,1,583.41,417c.16.22.34.42.5.64a41.24,41.24,0,0,0,14.62,11.7c1,.5,2,1,3,1.47C600.19,431.26,598.87,431.77,597.57,432.3ZM334.2,181.4h-.55c-6.1,0-12.2.24-18.1.44-4.9.16-9.7.32-14.47.39a164.87,164.87,0,0,1-11.15-20.37c-7.7-16.72-16.67-34.2-30-48.75l-2.21-2.41c-8.86-9.62-18-19.49-20.57-31.28,6.49,6.53,14.57,10.22,22.4,13.8,6.11,2.79,11.89,5.43,16.73,9.28,9.05,7.19,16.08,17,22.88,26.59,1.35,1.89,2.7,3.78,4.06,5.65a267.2,267.2,0,0,0,44.44,47.81A80.2,80.2,0,0,0,334.2,181.4Zm-23.14,55.71.72-.11c2.41-.36,4.83-.68,7.25-1a141.85,141.85,0,0,0,19.52-3.51c5.25,8.41,12.16,14.9,20,21.91a100.57,100.57,0,0,1,18.8,22.06c6.47,10.44,14.34,19.64,21.18,27.26a84.6,84.6,0,0,1,8.2,10.94,13,13,0,0,1,1.71,4.1,2.71,2.71,0,0,1-.07,2.1,3.39,3.39,0,0,1-2.52.66,17.23,17.23,0,0,1-6-2,87.72,87.72,0,0,1-28.07-24.06,62.55,62.55,0,0,0-15-13.8c-3.51-2.35-7.18-5.1-11.21-8.4a56.22,56.22,0,0,1-9.22-9.85c-6-8-13.95-14-24.15-18.1a101.58,101.58,0,0,1-12.2-6.06A95.52,95.52,0,0,1,311.06,237.11Zm-21.86,6.13.32-.12A101.08,101.08,0,0,0,309,253.52c8.08,3.29,14.87,8.47,21.35,16.3A119.29,119.29,0,0,1,344.1,291l3,5.7c5.22,10,10.62,20.23,15.34,30.62,1,2.14,1.81,4.33,2.72,6.75a11,11,0,0,1,.67,3.13,14.23,14.23,0,0,1-6.25-2.35c-9.7-6.41-16.72-13.75-21.48-22.42a85,85,0,0,0-15.23-20.13,82,82,0,0,1-9.6-12.15l-.45-.65a62.3,62.3,0,0,0-19.41-17.93,95.7,95.7,0,0,1-16.88-12.43C281.32,246.72,285.37,244.85,289.2,243.24Zm-22,10a1.8,1.8,0,0,1,.62-.19,1.23,1.23,0,0,1,.35.28c6.75,7,14.76,12.19,22.38,16.91a47.15,47.15,0,0,1,14.18,13.27c1,1.49,2.12,3,3.21,4.4.73,1,1.46,1.95,2.17,2.94,1.54,2.12,3.26,4.08,4.92,6,.56.64,1.12,1.27,1.67,1.91a18.68,18.68,0,0,1,4.55,11c0,1.89-.51,2.84-.94,3.09s-1.29.1-2.3-.42h0a13.26,13.26,0,0,1-4.53-4,112.11,112.11,0,0,1-6.21-9.46,71.69,71.69,0,0,0-15.23-17.83,70,70,0,0,1-11.47-12.24c-3.66-5-8.47-8.94-15.12-12.34-1-.5-2-1-3-1.47C264.07,254.51,265.67,253.91,267.22,253.25ZM227.37,362.53a204.09,204.09,0,0,1-22.05-1.47c-10.91-1.12-22.2-2.29-33.61-.88a162.08,162.08,0,0,0-17.65,3.5c-10.49,2.51-20.41,4.87-30.92,3-1.53-.27-3.42-.71-5.35-1.23,7.91-2.36,14.35-7,20.6-11.51,4.48-3.23,8.7-6.29,13.33-8.43,10.28-4.76,22.54-7.62,36.45-8.48,1.78-.11,3.55-.29,5.32-.43,3.78,2,7.65,3.89,11.61,5.53,11.89,4.92,24.7,7.56,37.08,10.12,7.93,1.64,16,3.33,23.86,5.62A175.09,175.09,0,0,1,227.37,362.53ZM465,627.33c-.39,2.31-.79,4.66-1.36,6.94-2.44-8.54-7.42-15.34-12.25-21.93-2-2.79-4-5.41-5.7-8.17-7.76-12.24-9.08-26.72-10.47-42.06-.39-4.28-.79-8.71-1.34-13a272,272,0,0,0-14.27-58.9c-.54-1.47-1-2.94-1.56-4.42a5.09,5.09,0,0,0-9.82.64c-1.19,6-2.9,11.75-4.71,17.9L403,506a135,135,0,0,1-6,15.51,143.53,143.53,0,0,0-6.55,17.26,86.42,86.42,0,0,0-3.31,25,45.19,45.19,0,0,1-6.66-20c-.57-7.52.31-15,1.24-22.89A174.36,174.36,0,0,0,383.26,503a226.65,226.65,0,0,0-.58-23.24,5.1,5.1,0,0,0-10-1l-.22.72a175.05,175.05,0,0,1-15.43,36.27A202,202,0,0,1,344.82,534c-3.64,5-7.41,10.24-10.78,15.71-5.75,9.35-9,19.57-12.19,29.45-.88,2.74-1.75,5.48-2.68,8.2-2.9,8.47-7.56,18.75-14.57,25.51,2.31-8.78,1.38-17.32.48-25.59-.37-3.43-.72-6.66-.86-9.92-.6-15.24,6.14-29.81,12.68-43.93,1.68-3.62,3.41-7.37,5-11.07a254.3,254.3,0,0,0,16.73-56.77c.27-1.54.56-3.07.87-4.6a5.1,5.1,0,0,0-8.71-4.49c-2.26,2.4-7.64,8-9.85,10.14-2.76,2.65-5.73,5.24-9.08,7.92-2.06,1.65-4.15,3.27-6.25,4.89a187.77,187.77,0,0,0-16.45,13.77A85.84,85.84,0,0,0,274,512.54,45.29,45.29,0,0,1,279.88,489a139.45,139.45,0,0,1,10.76-15.82,170.39,170.39,0,0,0,10.11-14.55,222.64,222.64,0,0,0,11.11-20.41,5.09,5.09,0,0,0-8.12-5.85l-.55.51a175.11,175.11,0,0,1-31.5,23.7,208.37,208.37,0,0,1-19.84,9.75c-10,4.48-20.37,9.12-29.55,16a137,137,0,0,0-12.67,11.31c-2.78,2.68-5.39,5.22-8.17,7.61a61.81,61.81,0,0,1-22.85,12.64c-.15,0-.33.09-.54.14,6-6.19,9.38-13.71,12.69-21,2.51-5.51,4.88-10.72,8.22-15.19,7.27-9.73,16.87-17.39,29.05-25.9a268.65,268.65,0,0,0,52.76-48c.77-.91,1.56-1.81,2.34-2.7l.77-.88a5.09,5.09,0,0,0-5.25-8.25c-6.38,1.84-21.46,5.77-27.45,6.5-9.6,1.18-20.9,2.83-32,6.15a165.42,165.42,0,0,0-18.49,8.18,46.25,46.25,0,0,1,13.47-15.45c6.46-4.85,13.77-7.94,21.51-11.22a160,160,0,0,0,15.79-7.37,224.41,224.41,0,0,0,19.84-12.12,5.12,5.12,0,0,0,1.72-6.26c-.07-.15-.16-.28-.24-.43a95.85,95.85,0,0,1,12.56,5.34c2,1.07,4.11,2.26,6.1,3.41,5.38,3.1,10.95,6.31,17.21,7.8a24.09,24.09,0,0,0,5.58.68,14.87,14.87,0,0,0,10-3.37c3.73-3.31,5.26-9.07,3.9-14.67-1.27-5.24-4.58-9.48-7.33-12.6-14.09-16-33-23.94-51.4-31.52l-.83-.34c-8.27-3.4-16.7-6.89-24.75-11.13a109.39,109.39,0,0,1-15.16-9.47c-.17-.13-.42-.3-.44-.31a22.88,22.88,0,0,1-.43-7.14c.14-.94.32-1.88.52-2.82a51.33,51.33,0,0,1,3.2-10c.66-1.5,1.42-3,2.23-4.51a73.79,73.79,0,0,1,5.27-8.35c.1-.13.15-.19.25-.23a.85.85,0,0,1,.25-.07l.49-.08a83.17,83.17,0,0,0,8.19-1.67,4.1,4.1,0,0,1,3.24.31c1.28.67,2.57,1.33,3.86,2,3,1.53,6.08,3.1,9,4.77a27.27,27.27,0,0,1,8.62,7.49c.46.61,1,1.19,1.43,1.78s1.16,1.44,1.77,2.14c2.85,3.26,5.95,6.28,9,9.22,2.21,2.15,4.5,4.36,6.63,6.63a110.46,110.46,0,0,1,10.66,14.12l1.64,2.45c2.88,4.37,5.86,8.88,11.38,11A10.38,10.38,0,0,0,328,317.73a9.37,9.37,0,0,0,1.42-2.55c1,1.65,2,3.3,3,4.92a70.21,70.21,0,0,0,24.69,23.44,17.25,17.25,0,0,0,10.55,2.36,7.1,7.1,0,0,0,6.67-5.85,14.74,14.74,0,0,0-.68-8.44c-2.66-7.72-6.36-15-9.94-22.1-1-2-2-4-3-6-2.12-4.31-4.41-8.61-6.62-12.77a51.45,51.45,0,0,1,11.37,11.07,96.8,96.8,0,0,0,28.88,24.83,26,26,0,0,0,11.15,3.72c5.45.32,9.06-1.15,10.71-4.43,3.85-7.64-5.63-21.69-9.26-26-1.4-1.67-2.82-3.34-4.23-5a226.94,226.94,0,0,1-15.64-19.79c-8.78-13-18.57-23-30.47-34.67a75.92,75.92,0,0,1-8.35-9.4,29,29,0,0,1,4.55.19c11.28,1.44,22.27,5.18,32.9,8.8,10.92,3.71,22.2,7.55,34,9l2.61.33c11.56,1.52,27.4,3.6,37-4.32a7.75,7.75,0,0,0,2.1-9.89A13.48,13.48,0,0,0,458.1,231a33.23,33.23,0,0,0-8.44-5.09q-6.72-3-13.54-6c-14.75-6.55-30-13.33-44.53-20.67-11.54-5.83-22.06-10.86-32.82-14.08a5.07,5.07,0,0,0,.79-5c-2.14-5.5-4.68-16.62-5.5-21.07-.75-4.13-1.4-8.39-2-12.5-2.22-14.7-4.51-29.81-12.47-43.3a42.75,42.75,0,0,1,14.8,12.8c4.52,6.4,7.63,13.6,10.92,21.22a177.2,177.2,0,0,0,7.62,16.14A221.57,221.57,0,0,0,385,173.26a5.09,5.09,0,0,0,9.13-4.08l-.17-.76c-4.42-18.66-3.9-37.35-3.36-57.14.54-19.33,1.09-39.31-3.44-59-2.86-12.46-5.12-25.39-.21-36.43.14.55.27,1.09.39,1.59,1.63,6.65,2.32,9.31,3.09,10.79,2.36,4.53,5.11,8.82,7.77,13,4.09,6.38,8,12.42,10.41,19.12,4,10.94,5.49,23,6.92,34.74.43,3.47.85,6.92,1.34,10.35,2.46,17.48,6,38.06,13.35,58.12.26.71.51,1.42.77,2.14s.47,1.34.72,2a5.1,5.1,0,0,0,9.86-1.22c1-9.79,5.49-20.36,9.44-29.69,1.5-3.55,2.93-6.9,4.07-10,4-10.73,7.74-23.12,7.64-36.11.62,1,1.23,2,1.85,3l.29.47c6.63,10.74,4.87,25.4,3.17,39.58a165.2,165.2,0,0,0-1.48,17,220.84,220.84,0,0,0,.58,23.24,5.09,5.09,0,0,0,9.95,1l.23-.75a174.54,174.54,0,0,1,15.44-36.27,204.69,204.69,0,0,1,12.3-18.36c6.43-8.89,13.08-18.09,17.57-28.67a176.34,176.34,0,0,0,5.9-17.32c4-13.07,7.72-25.56,16.85-33.38-2.6,9.25-1.75,18.51-.93,27.48.69,7.49,1.34,14.57,0,21.37-2.51,13.09-8,25.49-13.74,38.61-4.34,9.85-8.82,20-11.9,30.48-.57,1.92-1.25,4-2,6.2-2.94,9.08-6.29,19.38-5.48,28.07a5.09,5.09,0,0,0,8.51,3.3c5.12-4.66,10.72-9.12,16.64-13.84,14.84-11.83,30.1-24,39.22-40.5,0,1.11.07,2.23.11,3.37v.52c.47,14.43-9.09,27.18-19.18,40.63-6.88,9.18-14,18.68-17.78,29a5.1,5.1,0,0,0,8.1,5.63c3.36-2.88,8-6.78,10.15-8.31,11-8,23.45-14.6,35.46-20.94,10.94-5.78,22.26-11.75,32.78-18.93,5.69-3.89,11-8.81,16.2-13.57,9.85-9.08,19.27-17.75,31-19.9-6.56,6.43-10.13,14.48-13.6,22.28-1,2.35-2,4.56-3.09,6.73-7.34,15-20.77,24.45-35,34.42-3.49,2.45-7.11,5-10.59,7.58-14.08,10.54-28,24-41.3,40-.78.93-1.59,1.85-2.39,2.76l-.72.81a5.1,5.1,0,0,0,5.47,8.19c3.11-1.05,9.56-2.83,12.15-3.48,6.94-1.76,14.3-2.88,21.41-4,14.72-2.25,29.84-4.55,43.38-12.53a49.74,49.74,0,0,1-21.7,20.2c-3.82,1.91-7.9,3.65-11.84,5.33a172.27,172.27,0,0,0-16.48,7.72A224.28,224.28,0,0,0,578.5,287a5.1,5.1,0,0,0,4.12,9.13l.73-.16a152.7,152.7,0,0,1,45.46-4c3.82.24,7.73.57,11.51.89,12.08,1,24.58,2.07,37.12.58a157.83,157.83,0,0,0,17.65-3.48c10.47-2.48,20.35-4.82,30.32-3.13,2.28.39,4.6.78,6.85,1.34-8.18,2.56-15.49,7.85-22.17,12.68-2.8,2-5.45,3.94-8,5.55-12.42,7.82-28,9.21-43.05,10.55-4.58.41-9.32.84-13.91,1.44a267.73,267.73,0,0,0-45.78,10.08,108,108,0,0,1-20.74-7.93c-2-1.07-4.11-2.26-6.1-3.41-5.38-3.1-11-6.31-17.21-7.8a24.09,24.09,0,0,0-5.58-.68,14.87,14.87,0,0,0-10,3.37c-3.73,3.31-5.26,9.07-3.9,14.67,1.27,5.24,4.58,9.48,7.33,12.6,12.7,14.43,29.34,22.3,46,29.26,2.09.88,4.18,1.74,6.26,2.6,6.68,2.75,13.46,5.55,20.07,8.75a117.88,117.88,0,0,1,19.83,11.85l.45.31a31.91,31.91,0,0,1,.56,5.14,13.13,13.13,0,0,1-.13,2,49,49,0,0,1-2.21,8.89,64.64,64.64,0,0,1-9,16.76.57.57,0,0,1-.5.31l-.49.08a80.37,80.37,0,0,0-8.19,1.67,4.1,4.1,0,0,1-3.24-.31c-1.28-.67-2.57-1.33-3.86-2-3-1.53-6.08-3.11-9-4.77A27.42,27.42,0,0,1,591,412.3a111.22,111.22,0,0,0-12.17-13.14c-2.21-2.15-4.5-4.37-6.63-6.63a110.46,110.46,0,0,1-10.66-14.12L559.89,376c-2.88-4.36-5.87-8.87-11.38-11A10.38,10.38,0,0,0,536,368.14a9.64,9.64,0,0,0-1.42,2.55c-1-1.65-2-3.3-3-4.92a70.21,70.21,0,0,0-24.69-23.44A17.25,17.25,0,0,0,496.34,340a7.1,7.1,0,0,0-6.67,5.85,14.67,14.67,0,0,0,.69,8.44c2.65,7.72,6.35,15,9.93,22.1,1,2,2,4,3,6,2.12,4.31,4.41,8.61,6.62,12.77a51.45,51.45,0,0,1-11.37-11.07,96.8,96.8,0,0,0-28.88-24.83,25.92,25.92,0,0,0-11.15-3.72c-5.45-.32-9.06,1.15-10.71,4.42-3.85,7.65,5.63,21.69,9.26,26,1.4,1.67,2.81,3.33,4.23,5a226.94,226.94,0,0,1,15.64,19.79c8.77,13,18.57,23,30.47,34.67a75.92,75.92,0,0,1,8.35,9.4,29,29,0,0,1-4.55-.19c-11.28-1.44-22.27-5.18-32.9-8.8-10.92-3.71-22.2-7.55-34-9l-2.61-.33c-11.56-1.52-27.4-3.6-37,4.32a7.75,7.75,0,0,0-2.1,9.89,13.48,13.48,0,0,0,3.29,4.17,33.23,33.23,0,0,0,8.44,5.09q6.72,3,13.54,6c9.76,4.34,19.73,8.79,29.58,13.42a5.1,5.1,0,0,0-1.79,5.12l.18.76a175.4,175.4,0,0,1,4.77,39.13,161.51,161.51,0,0,1-1.55,20.32c-1.25,10.81-2.53,22-.69,33.11.82,5,2,10,3.11,14.86C464.27,604.67,466.9,616,465,627.33Zm33.92-116c2,13.12,4.12,26.6,11.35,39l-3.11-1.66-.46-.24c-11.3-6.08-16.91-19.36-22.34-32.2a164.19,164.19,0,0,0-7.41-16c-2.92-5.24-6.1-10.75-9.63-16.13,1.7.84,3.43,1.66,5.11,2.51,8.44,4.26,16.33,8.09,24.17,11.11C497.49,502.27,498.21,506.85,498.9,511.33Zm81.51,18.13a173.64,173.64,0,0,0,12,13.75c9.24,9.86,18.08,19.29,20.42,30.9-6.6-6.72-15.37-10.77-23.93-14.72-6.87-3.17-13.35-6.17-18.31-10.33-8.37-7-14.63-16.12-21.25-25.74-3.43-5-7-10.14-10.83-15-1.08-1.34-2.18-2.67-3.28-4,4.45-.08,8.89-.21,13.2-.35,5.94-.2,11.74-.38,17.51-.43C570,512.45,574.34,521.42,580.41,529.46Z"/></svg>