<svg id="Layer_1" data-name="Layer 1" xmlns="http://www.w3.org/2000/svg" viewBox="0 0 514.88 864"><defs><style>.cls-1{fill:#a16e58;}.cls-2{fill:#f8efe3;}</style></defs><title>Untitled-31</title><path class="cls-1" d="M483.49,259.27V604.73c0,124.83-101.2,226-226,226a226.05,226.05,0,0,1-226.07-226V259.27c0-124.83,101.2-226,226.07-226a226.06,226.06,0,0,1,226,226Z"/><path class="cls-1" d="M439.5,72.87C390.86,25.88,326.23,0,257.46,0S124,25.88,75.42,72.87,0,182.31,0,248.72V615.25C0,681.7,26.79,744.18,75.42,791.13S188.69,864,257.46,864s133.4-25.88,182-72.87,75.38-109.43,75.38-175.88V248.72C514.88,182.31,488.13,119.82,439.5,72.87Zm64.7,542.38c0,65.74-27.67,125.33-72.37,168.49s-106.34,69.91-174.37,69.91c-136.06,0-246.74-106.95-246.74-238.4V248.72c0-131.45,110.68-238.4,246.74-238.4s246.74,107,246.74,238.4Z"/><path class="cls-2" d="M257.45,257.25a3.86,3.86,0,0,0,3.86-3.85V161.2a3.86,3.86,0,1,0-7.71,0v92.2A3.86,3.86,0,0,0,257.45,257.25Z"/><path class="cls-2" d="M203.92,268.77a3.86,3.86,0,1,0,6.68-3.85l-46.1-79.85a3.85,3.85,0,0,0-5.27-1.41h0a3.8,3.8,0,0,0-1.79,2.34,3.85,3.85,0,0,0,.38,2.93Z"/><path class="cls-2" d="M88.74,260.83l79.85,46.1a3.9,3.9,0,0,0,1.92.52,3.85,3.85,0,0,0,3.73-4.86,3.77,3.77,0,0,0-1.79-2.34L92.6,254.15a3.86,3.86,0,0,0-3.86,6.68Z"/><path class="cls-2" d="M160.93,353.78a3.86,3.86,0,0,0-3.86-3.86H64.87a3.86,3.86,0,0,0,0,7.72h92.2A3.86,3.86,0,0,0,160.93,353.78Z"/><path class="cls-2" d="M173.86,402a3.86,3.86,0,0,0-5.27-1.41l-79.85,46.1a3.86,3.86,0,0,0,.93,7.07,4.37,4.37,0,0,0,1,.13,3.84,3.84,0,0,0,1.92-.52l79.85-46.1A3.87,3.87,0,0,0,173.86,402Z"/><path class="cls-2" d="M211,439.71a3.86,3.86,0,0,0-7.07-.93l-46.1,79.85a3.85,3.85,0,0,0-.38,2.93,3.8,3.8,0,0,0,1.79,2.34,3.85,3.85,0,0,0,5.27-1.41l46.1-79.85A3.84,3.84,0,0,0,211,439.71Z"/><path class="cls-2" d="M257.45,450.31a3.85,3.85,0,0,0-3.85,3.85v92.2a3.86,3.86,0,1,0,7.71,0v-92.2A3.85,3.85,0,0,0,257.45,450.31Z"/><path class="cls-2" d="M311,438.78a3.86,3.86,0,0,0-6.68,3.86l46.1,79.85a3.87,3.87,0,0,0,3.35,1.93,3.86,3.86,0,0,0,3.33-5.79Z"/><path class="cls-2" d="M426.16,446.73l-79.85-46.1a3.87,3.87,0,0,0-2.92-.39,3.86,3.86,0,0,0-.93,7.07l79.85,46.1a3.84,3.84,0,0,0,1.92.52,4.29,4.29,0,0,0,1-.13,3.86,3.86,0,0,0,.93-7.07Z"/><path class="cls-2" d="M450,349.92h-92.2a3.86,3.86,0,1,0,0,7.72H450a3.86,3.86,0,0,0,0-7.72Z"/><path class="cls-2" d="M340.66,302.59a3.85,3.85,0,0,0,5.65,4.34l79.85-46.1a3.86,3.86,0,0,0-3.85-6.68l-79.85,46.1A3.85,3.85,0,0,0,340.66,302.59Z"/><path class="cls-2" d="M303.57,266.92a3.88,3.88,0,0,0,1.75.44,4.34,4.34,0,0,0,3.77-2.54l38.78-74.76a7.42,7.42,0,0,0,1-3.25,3.75,3.75,0,0,0-2.44-3.46,3.63,3.63,0,0,0-4.48,1.38l-39.93,76.45a4.68,4.68,0,0,0-.44,3.27A3.8,3.8,0,0,0,303.57,266.92Z"/><path class="cls-2" d="M222.59,201.31l12.62,52.81h0a4.34,4.34,0,0,0,4,3.78A3.79,3.79,0,0,0,243,255a5.22,5.22,0,0,0-.15-3L230,198.47a4,4,0,0,0-4.8-3.15c-2.13.53-3.28,2.51-2.86,4.93C222.44,200.61,222.5,201,222.59,201.31Z"/><path class="cls-2" d="M151,239.17l37.34,39.42a4.89,4.89,0,0,0,3.43,1.76,4.26,4.26,0,0,0,1.92-.49,3.77,3.77,0,0,0,1.81-4.36,5.09,5.09,0,0,0-1.64-2.53l-37.83-40a4,4,0,0,0-5.73-.32c-1.58,1.53-1.58,3.82,0,5.7C150.54,238.64,150.78,238.91,151,239.17Z"/><path class="cls-2" d="M161.93,323.53a3.79,3.79,0,0,0,3.32-1.83l0-.06a3.79,3.79,0,0,0-.61-4.69,5.22,5.22,0,0,0-2.69-1.37l-52.75-15.71a4,4,0,0,0-5.13,2.58c-.6,2.11.54,4.1,2.84,4.94.34.13.68.25,1,.35l52,15.47A6.76,6.76,0,0,0,161.93,323.53Z"/><path class="cls-2" d="M161.57,372a3.77,3.77,0,0,0-2.88-3.75,5,5,0,0,0-3,.15L102.14,381.2A4,4,0,0,0,99,386a3.84,3.84,0,0,0,4,2.94,5.36,5.36,0,0,0,1-.08c.36-.06.71-.13,1.07-.21L157.79,376A4.33,4.33,0,0,0,161.57,372Z"/><path class="cls-2" d="M183.54,417.53a3.78,3.78,0,0,0-4.37-1.82,5.2,5.2,0,0,0-2.53,1.64l-40,37.83a4,4,0,0,0-.32,5.73,3.74,3.74,0,0,0,2.72,1.19,4.65,4.65,0,0,0,3-1.18h0c.27-.23.55-.46.81-.71l39.41-37.34A4.31,4.31,0,0,0,183.54,417.53Z"/><path class="cls-2" d="M225.31,445.94a3.76,3.76,0,0,0-4.68.62,5.1,5.1,0,0,0-1.38,2.68L203.54,502a4,4,0,0,0,2.59,5.13,4.38,4.38,0,0,0,1.11.16,4.16,4.16,0,0,0,3.83-3c.12-.33.24-.67.35-1l15.46-52.05A4.32,4.32,0,0,0,225.31,445.94Z"/><path class="cls-2" d="M292.32,506.25l-12.63-52.81h0a4.31,4.31,0,0,0-4-3.78,3.78,3.78,0,0,0-3.75,2.88,5.14,5.14,0,0,0,.15,3l12.77,53.54a4.09,4.09,0,0,0,3.86,3.26,4.31,4.31,0,0,0,.94-.11c2.13-.53,3.28-2.52,2.86-4.93C292.47,507,292.4,506.6,292.32,506.25Z"/><path class="cls-2" d="M363.88,468.39,326.54,429a4.31,4.31,0,0,0-5.34-1.28,3.78,3.78,0,0,0-1.81,4.37,5.09,5.09,0,0,0,1.64,2.53l37.83,40A4.49,4.49,0,0,0,362,476a3.72,3.72,0,0,0,2.6-1.06c1.57-1.53,1.58-3.82,0-5.7C364.36,468.92,364.13,468.65,363.88,468.39Z"/><path class="cls-2" d="M349.66,385.85l0,.07a3.78,3.78,0,0,0,.61,4.69,5.18,5.18,0,0,0,2.69,1.37l52.75,15.71a4.94,4.94,0,0,0,1.3.17,3.82,3.82,0,0,0,3.82-2.75c.61-2.11-.53-4.1-2.84-4.94-.34-.13-.68-.25-1-.35l-52.05-15.47C354,384.09,351.33,383.3,349.66,385.85Z"/><path class="cls-2" d="M356.21,339.28a3.83,3.83,0,0,0,1.13.17,7,7,0,0,0,1.88-.32l53.55-12.77a4,4,0,0,0,3.14-4.8c-.53-2.13-2.52-3.29-4.93-2.86-.36.06-.71.13-1.06.21l-52.81,12.63a4.31,4.31,0,0,0-3.77,4A3.77,3.77,0,0,0,356.21,339.28Z"/><path class="cls-2" d="M331.37,290a3.68,3.68,0,0,0,3.27,1.94,5.27,5.27,0,0,0,1.09-.12,5.19,5.19,0,0,0,2.54-1.64l40-37.83a4,4,0,0,0,.32-5.73c-1.52-1.58-3.82-1.59-5.7,0h0c-.28.23-.55.46-.81.71l-39.42,37.34A4.31,4.31,0,0,0,331.37,290Z"/><path class="cls-2" d="M272.7,255.43a4.7,4.7,0,0,0,.63,0,3.6,3.6,0,0,0,2.22-.72,5.06,5.06,0,0,0,1.78-3.48l2.87-20.64a4,4,0,0,0-3.29-4.45c-2.1-.32-3.84,1-4.47,3.37l-2.95,20.54a5.54,5.54,0,0,0,.49,3.51A3.64,3.64,0,0,0,272.7,255.43Z"/><path class="cls-2" d="M287.3,259.2a4.09,4.09,0,0,0,1.35.24,3.46,3.46,0,0,0,1.58-.37,5.06,5.06,0,0,0,2.4-3.08l6.68-19.74a4,4,0,0,0-2.39-5c-2-.7-4,.23-5,2.48l-6.75,19.62a5.52,5.52,0,0,0-.17,3.54A3.62,3.62,0,0,0,287.3,259.2Z"/><path class="cls-2" d="M216,258a5.55,5.55,0,0,0,2.19,2.79,3.54,3.54,0,0,0,1.83.51,3.92,3.92,0,0,0,1.44-.28,3.75,3.75,0,0,0,2.12-2,5,5,0,0,0-.19-3.9l-7.8-19.23,0-.08a4,4,0,0,0-5.07-2.22c-2,.78-2.85,2.76-2.18,5.16Z"/><path class="cls-2" d="M179.91,291.4a3.73,3.73,0,0,0,.84-2.8,5.06,5.06,0,0,0-2.12-3.28l-16.44-12.81a4,4,0,0,0-5.5.62c-1.33,1.66-1.09,3.81.68,5.56l16.31,12.83a5.52,5.52,0,0,0,3.29,1.32H177A3.63,3.63,0,0,0,179.91,291.4Z"/><path class="cls-2" d="M155,333.9,134.4,331h-.09a4,4,0,0,0-4.45,3.29c-.32,2.1,1,3.85,3.37,4.47l20.54,3a7.94,7.94,0,0,0,1.07.08,5,5,0,0,0,2.44-.58,3.61,3.61,0,0,0,1.83-2.72,3.75,3.75,0,0,0-.68-2.85A5.06,5.06,0,0,0,155,333.9Z"/><path class="cls-2" d="M140.85,403.13a5.65,5.65,0,0,0,1.53-.22l19.27-7.71a5.54,5.54,0,0,0,2.79-2.19,3.6,3.6,0,0,0,.22-3.26,3.71,3.71,0,0,0-2-2.13,5,5,0,0,0-3.9.19l-19.31,7.84a4,4,0,0,0-2.21,5.07A3.7,3.7,0,0,0,140.85,403.13Z"/><path class="cls-2" d="M192.27,430.49A5,5,0,0,0,189,432.6l-12.81,16.45a4,4,0,0,0,.63,5.5,3.67,3.67,0,0,0,2.31.84,4.59,4.59,0,0,0,3.24-1.53l12.83-16.31a5.6,5.6,0,0,0,1.33-3.28,3.67,3.67,0,0,0-1.44-2.95A3.72,3.72,0,0,0,192.27,430.49Z"/><path class="cls-2" d="M242.21,452.13a3.69,3.69,0,0,0-2.85.67,5.06,5.06,0,0,0-1.79,3.47l-2.87,20.65a4,4,0,0,0,3.29,4.45,4.58,4.58,0,0,0,.63.05c1.81,0,3.28-1.26,3.84-3.42l3-20.54a5.54,5.54,0,0,0-.5-3.51A3.6,3.6,0,0,0,242.21,452.13Z"/><path class="cls-2" d="M298.87,449.59a5.61,5.61,0,0,0-2.18-2.8,3.68,3.68,0,0,0-3.27-.22,3.77,3.77,0,0,0-2.13,2,5,5,0,0,0,.19,3.9l7.84,19.32a4.22,4.22,0,0,0,3.67,2.48,3.92,3.92,0,0,0,1.41-.27c2-.78,2.84-2.76,2.18-5.16Z"/><path class="cls-2" d="M334.16,419a5.06,5.06,0,0,0,2.12,3.28L352.65,435l.07.05a4.74,4.74,0,0,0,2.56.8,3.69,3.69,0,0,0,2.94-1.42c1.33-1.66,1.09-3.81-.69-5.56L341.23,416c-2.3-1.81-4.75-1.77-6.23.12A3.73,3.73,0,0,0,334.16,419Z"/><path class="cls-2" d="M360,373.66l20.55,2.86h.36a3.93,3.93,0,0,0,4.18-3.29c.32-2.1-1-3.85-3.37-4.47l-20.54-3c-2.89-.42-5,.85-5.33,3.22a3.74,3.74,0,0,0,.67,2.85A5.06,5.06,0,0,0,360,373.66Z"/><path class="cls-2" d="M352.26,319.94a3.91,3.91,0,0,0,1.58.31,6.27,6.27,0,0,0,2.32-.5l19.31-7.84a4,4,0,0,0,2.21-5.07c-.78-2-2.76-2.86-5.16-2.19l-19.26,7.71a5.5,5.5,0,0,0-2.79,2.19,3.6,3.6,0,0,0-.22,3.26A3.71,3.71,0,0,0,352.26,319.94Z"/><path class="cls-2" d="M322.2,277.1a3.25,3.25,0,0,0,.44,0,5,5,0,0,0,3.28-2.11l12.8-16.45a4,4,0,0,0-.62-5.5c-1.66-1.33-3.81-1.08-5.56.69L319.71,270c-1.81,2.3-1.76,4.74.12,6.23A3.82,3.82,0,0,0,322.2,277.1Z"/><path class="cls-2" d="M257.46,267.14a86.63,86.63,0,1,0,86.65,86.65A86.72,86.72,0,0,0,257.46,267.14Zm0,166a79.41,79.41,0,1,1,79.39-79.39A79.48,79.48,0,0,1,257.46,433.18Z"/><path class="cls-2" d="M416.71,597.13a5.26,5.26,0,0,0-6.39-4.87,10.75,10.75,0,0,0-3,1.17c-8.57,4.78-14.72,13.35-19.46,21.55a122.67,122.67,0,0,0-11.42,25.58c-2,6.42-4.31,15.15-10.56,18.75-5.28,3-12,3.93-17.85,5.51-9.14,2.52-18.11,6.19-27.46,7.73-6.25,1-12.47.74-18.58,2.73a112.3,112.3,0,0,1-12.81,3.26,123,123,0,0,1-16.13,2c-3.36.2-6.79.27-10.19.27-.3,0-.94-.1-1-.33s.3-.44.6-.64A19,19,0,0,0,265,678.1c2.32-1.82,4.74-3.53,7.13-5.24,15.69-11.3,33.61-18.93,48.09-31.93,6.49-5.82,13-12.24,14.22-21.31.64-4.88-.3-9.18-3.66-12.88a7.81,7.81,0,0,0-3.8-2.38,19.1,19.1,0,0,0-10.39.2c-11.86,3.19-22.11,10.35-33,15.83a291.44,291.44,0,0,1-34,14.82c-17.55,6.25-35.56,12.4-50.25,24.27a152.25,152.25,0,0,1-19.66,13.85C162.81,683,151.52,699.14,141,715c-11.36,17.1-23.06,33.78-39.09,46.92a10,10,0,0,0-3,3.86,226.29,226.29,0,0,0,82.05,51.66c13.17-12.6,31.46-17.84,49.07-21,22.72-4.14,45.37-6.56,67.59-13.38,12.64-3.9,24.57-10.25,32.17-21.41,8.53-12.64,18.72-24,29.3-34.76a24.55,24.55,0,0,0,5.58-7.56,9.86,9.86,0,0,0,.95-5.34c-.07-.74-.27-1.11-1.11-.54-4.1,2.82-8.31,5.51-12.37,8.37-7.73,5.45-15.13,11.33-22.66,17a4,4,0,0,1-1,.61.81.81,0,0,1-.94-.31.71.71,0,0,1,.1-1,5.1,5.1,0,0,1,.77-.71c6.52-5,12.94-10,19.57-14.82,6.31-4.57,13-8.64,19.22-13.34,3.9-3,8.13-5.92,10.66-10.22.13-.2.33-.57.26-.67-.2-.31-.53-.07-.8,0a4.91,4.91,0,0,0-.74.24c-9.28,3.73-19,6.48-28.37,10A274.77,274.77,0,0,0,320,721.29c-.67.37-1.51.84-1.95-.17s.57-1.07,1.18-1.41c3.86-2.22,8.1-3.7,12.13-5.61,14.92-7.1,30.65-12.17,46.25-17.58,4.9-1.68,9.74-2.76,13.31-6.79,5.68-6.35,7.36-15.29,9.61-23.23,3.9-13.54,9.31-26.82,12-40.63,1.34-7,1.55-14.15,3.23-21.08A24.78,24.78,0,0,0,416.71,597.13ZM318.87,738c.8.47.37,1.14,0,1.71-.11.17-.24.34-.34.51-4.74,8.1-12,12.63-21,14.72-3.83.9-7.76,1.51-11.5,2.85a5.22,5.22,0,0,1-.57.14c-.47,0-.84-.14-.94-.64a.85.85,0,0,1,.74-1.11c1.68-.5,3.4-1,5.11-1.45,3.46-.8,6.92-1.61,10.32-2.58,7.22-2.09,12.47-6.56,16.37-12.84.13-.2.27-.41.4-.64C317.76,738.16,318.16,737.59,318.87,738Z"/><path class="cls-2" d="M349.34,654c.06,2.49.52,4.94.82,7.41.08.68.22,1.14,1.13.9,3.88-1,7.72-2.17,11.5-3.49a10.49,10.49,0,0,0,6.27-5.65c1.74-3.74,3.12-7.61,4.73-11.39a3,3,0,0,0,.11-2.09c-1-3.19-1.8-6.51-3.76-9.28-3.79-5.34-7.71-10.59-11.53-15.91a43.05,43.05,0,0,0-6.86-7.72,8.44,8.44,0,0,0-5.35-2.25c-.11,0-.52,0-.92.11a10.72,10.72,0,0,0-9,8.71,24,24,0,0,0,.81,11.88,58.15,58.15,0,0,0,8.92,17.41,12.2,12.2,0,0,1,2.65,5.9C349,650.38,349.3,652.18,349.34,654Z"/><path class="cls-2" d="M346.34,651.71c-3.12-2-6.25-4-9.3-6.1a115.52,115.52,0,0,1-9.41-7.26c-.62-.53-1-.57-1.62,0-1.7,1.52-3.5,2.94-5.26,4.39-4.9,4-9.55,8.4-15.07,11.61-1.1.64-.48,1.07,0,1.58a109.76,109.76,0,0,0,15.91,14.4,1.76,1.76,0,0,0,1.95.23c3.66-1.51,7.51-2.47,11.26-3.72,4.24-1.42,8.55-2.61,12.9-3.64.43-.1,1-.12.83-.81a62.44,62.44,0,0,1-.95-8.62A2.29,2.29,0,0,0,346.34,651.71Z"/><path class="cls-2" d="M289.11,664.13a200.12,200.12,0,0,0-18.86,12.32,1.53,1.53,0,0,0,.27,2.76,4.69,4.69,0,0,0,1.8.22A65.74,65.74,0,0,0,285,677.62c4.37-1.12,8.85-1.8,13.13-3.3,1.08-.37,1.24-.61.5-1.57-2.4-3.1-5.26-5.77-7.91-8.65C290.06,663.44,289.63,663.83,289.11,664.13Z"/></svg>