<svg id="Layer_1" data-name="Layer 1" xmlns="http://www.w3.org/2000/svg" viewBox="0 0 864 989.28"><defs><style>.cls-1{fill:#a16e58;}</style></defs><title>Untitled-31-06 [Converted]</title><path class="cls-1" d="M807.81,702.83c1.37-6.24,3.88-12.13,5.71-18.23,6.78-22.56,16.47-44.06,25.7-65.69,2.91-6.82,6.42-13,5.6-20.58-1.3-12.06-9.16-22.43-15.36-32.43-10.58-17-19.45-35.51-31.48-51.57-6.07-8.11-13.45-15.19-19.15-23.57a35.86,35.86,0,0,0-7.21-8.37,7.49,7.49,0,0,0-11.25,2.08,15.09,15.09,0,0,0-1.61,4.25c-3.14,13.64,0,28.33,4.15,41.21A173.73,173.73,0,0,0,779,566.51c4.91,8.2,11.89,19.06,9.69,29.11-1.85,8.48-7.35,16.47-11.25,24.16-6.12,12.05-10.81,25-18.14,36.43-4.88,7.6-11.16,13.84-14.93,22.2a154.37,154.37,0,0,1-8.8,16.69A178.64,178.64,0,0,1,722.24,714c-3,3.78-6.2,7.45-9.47,11-.31.35-1,.94-1.28.74s-.18-.77-.09-1.25a29.51,29.51,0,0,0,.55-4.31c.27-4.19.78-8.36,1.25-12.53,3.08-27.41,12.18-53.65,12.31-81.42.06-12.43-.44-25.5-8.88-35.45-4.53-5.34-10-8.47-17.1-8.45a11.19,11.19,0,0,0-6.19,1.73,27.73,27.73,0,0,0-9.73,11.17c-8,15.57-10.26,33.28-14.82,50a415,415,0,0,1-16.95,50.13c-10.2,24.56-20.94,49.45-22.45,76.36a214.43,214.43,0,0,1-4.23,34c-6,27.13.29,54.51,7,80.87,7.21,28.38,13.06,56.7,12.19,86.23-.66,22,55.53,16.26,69.84,13.89,25.4-4.2,55.26-20.63,63.33-31.54,1.22-1.65,1.93-2.86,1.68-4.83-3.61-28.88,9.41-56,24.27-79.8,17.43-28,36.55-54.25,50.61-84.24,8-17.08,12.71-35.8,8.16-54.51-5.13-21.14-7.39-42.79-8.62-64.28-.26-4.48-.72-9-2.65-13.14a14.49,14.49,0,0,0-4.73-6.1c-.88-.61-1.43-.77-1.62.67-1,7-2.16,14-3,21.08C840,683.5,839,697,837.9,710.38a5.93,5.93,0,0,1-.36,1.68,1.1,1.1,0,0,1-1.24.68,1,1,0,0,1-.95-1,8.46,8.46,0,0,1,0-1.51c1-11.62,1.81-23.25,3.08-34.84,1.21-11.07,3.31-22,4.29-33.11.62-6.94,1.56-14.25-.57-21-.1-.34-.26-.91-.45-.93-.51-.06-.58.5-.75.88s-.32.65-.45,1c-4.94,13.42-11.33,26.29-16.55,39.62a381.44,381.44,0,0,0-13.73,41.74c-.27,1-.56,2.39-2.05,1.88S807.61,703.77,807.81,702.83Zm19,17.9c1.28-.37,1.55.69,1.8,1.62.08.28.14.57.22.84,4,12.82,1.86,24.83-4.57,36.36-2.74,4.92-5.85,9.65-8,14.88-.11.27-.27.51-.4.76a1.23,1.23,0,0,1-1.56.38,1.28,1.28,0,0,1-.5-1.87c1.1-2.27,2.15-4.58,3.38-6.79,2.47-4.41,4.93-8.83,7.16-13.38,4.72-9.61,5-19.46,2.1-29.57-.1-.35-.18-.7-.28-1.05C825.89,722,825.7,721.06,826.82,720.73Z"/><path class="cls-1" d="M767.23,608.07a106.15,106.15,0,0,0,8.62,6.24c.79.56,1.41.86,2-.34,2.62-5.08,5.1-10.23,7.33-15.5a14.9,14.9,0,0,0,0-12c-2.28-5.41-5-10.58-7.5-15.91a4.17,4.17,0,0,0-2.11-2.11c-4.34-2-8.59-4.33-13.4-4.91-9.28-1.12-18.57-2-27.86-3.06a61,61,0,0,0-14.73-.14,12,12,0,0,0-7.5,3.5c-.09.13-.45.58-.76,1.07a15.31,15.31,0,0,0,.54,17.89,34.27,34.27,0,0,0,13.34,10.53,82.84,82.84,0,0,0,26.94,7.24c3.12.35,6.15.94,8.77,2.86C763.06,605,765.25,606.35,767.23,608.07Z"/><path class="cls-1" d="M761.92,609c-5.1,1.4-10.21,2.79-15.36,4a165,165,0,0,1-16.68,3c-1.15.15-1.53.49-1.54,1.72,0,3.26-.25,6.52-.4,9.77-.43,9-.27,18.13-2.16,27-.38,1.78.67,1.53,1.65,1.53a156.54,156.54,0,0,0,30.46-3A2.5,2.5,0,0,0,760,651.2c1.91-5.31,4.58-10.3,6.85-15.47,2.57-5.83,5.44-11.52,8.51-17.1.3-.55.79-1.14-.06-1.65a91.56,91.56,0,0,1-10-7.26A3.27,3.27,0,0,0,761.92,609Z"/><path class="cls-1" d="M720.23,681.42a287.54,287.54,0,0,0-5,31.72,2.18,2.18,0,0,0,3.17,2.36,6.62,6.62,0,0,0,1.95-1.69,93.9,93.9,0,0,0,10.2-15.1c3-5.69,6.57-11.07,9.09-17,.63-1.5.54-1.9-1.17-2-5.59-.44-11.15,0-16.73.08C720.41,679.74,720.41,680.58,720.23,681.42Z"/><path class="cls-1" d="M55.82,705.41c-1.49.51-1.78-.84-2-1.88A381.44,381.44,0,0,0,40,661.79c-5.21-13.33-11.61-26.2-16.55-39.62-.13-.34-.3-.66-.45-1s-.24-.94-.75-.88c-.19,0-.35.59-.45.93-2.13,6.78-1.19,14.09-.57,21,1,11.11,3.08,22,4.29,33.11,1.27,11.59,2.07,23.22,3.08,34.84a8.46,8.46,0,0,1,0,1.51,1,1,0,0,1-.95,1,1.1,1.1,0,0,1-1.24-.68,5.93,5.93,0,0,1-.36-1.68C25,697,24.05,683.5,22.42,670.12c-.86-7-2.05-14-3-21.08-.19-1.44-.74-1.28-1.62-.67a14.49,14.49,0,0,0-4.73,6.1c-1.93,4.18-2.39,8.66-2.65,13.14-1.23,21.49-3.49,43.14-8.62,64.28-4.55,18.71.15,37.43,8.16,54.51,14.06,30,33.18,56.27,50.61,84.24,14.86,23.85,27.88,50.92,24.27,79.8-.25,2,.46,3.18,1.68,4.83,8.07,10.91,37.93,27.34,63.33,31.54,14.31,2.37,70.5,8.11,69.84-13.89-.87-29.53,5-57.85,12.19-86.23,6.69-26.36,12.94-53.74,7-80.87a213.28,213.28,0,0,1-4.23-34c-1.51-26.91-12.25-51.8-22.45-76.36a415,415,0,0,1-16.95-50.13c-4.56-16.72-6.83-34.43-14.82-50a27.73,27.73,0,0,0-9.73-11.17,11.19,11.19,0,0,0-6.19-1.73c-7.11,0-12.57,3.11-17.1,8.45-8.44,9.95-8.94,23-8.88,35.45.13,27.77,9.23,54,12.31,81.42.47,4.17,1,8.34,1.25,12.53a29.51,29.51,0,0,0,.55,4.31c.09.48.07,1.13-.09,1.25s-1-.39-1.28-.74c-3.27-3.57-6.44-7.24-9.47-11a178.64,178.64,0,0,1-13.33-18.94,154.37,154.37,0,0,1-8.8-16.69c-3.77-8.36-10-14.6-14.93-22.2-7.33-11.4-12-24.38-18.14-36.43-3.9-7.69-9.4-15.68-11.25-24.16-2.2-10,4.78-20.91,9.69-29.11a173.73,173.73,0,0,0,16.09-36.58c4.12-12.88,7.29-27.57,4.15-41.21a15.09,15.09,0,0,0-1.61-4.25,7.49,7.49,0,0,0-11.25-2.08,35.86,35.86,0,0,0-7.21,8.37c-5.7,8.38-13.08,15.46-19.15,23.57-12,16.06-20.9,34.52-31.48,51.57-6.2,10-14.06,20.37-15.36,32.43-.82,7.61,2.69,13.76,5.6,20.58C34,640.54,43.7,662,50.48,684.6c1.83,6.1,4.34,12,5.71,18.23C56.39,703.77,57.26,704.92,55.82,705.41Zm-18,17.5c-.1.35-.18.7-.28,1.05-2.9,10.11-2.62,20,2.1,29.57,2.23,4.55,4.69,9,7.16,13.38,1.23,2.21,2.28,4.52,3.38,6.79a1.28,1.28,0,0,1-.5,1.87,1.23,1.23,0,0,1-1.56-.38c-.13-.25-.29-.49-.4-.76-2.17-5.23-5.28-10-8-14.88C33.3,748,31.14,736,35.16,723.19c.08-.27.14-.56.22-.84.25-.93.52-2,1.8-1.62C38.3,721.06,38.11,722,37.85,722.91Z"/><path class="cls-1" d="M96.77,608.07a106.15,106.15,0,0,1-8.62,6.24c-.79.56-1.41.86-2-.34-2.62-5.08-5.1-10.23-7.33-15.5a14.9,14.9,0,0,1,0-12c2.28-5.41,5-10.58,7.5-15.91a4.17,4.17,0,0,1,2.11-2.11c4.34-2,8.59-4.33,13.4-4.91,9.28-1.12,18.57-2,27.86-3.06a61,61,0,0,1,14.73-.14,12,12,0,0,1,7.5,3.5c.09.13.45.58.76,1.07a15.31,15.31,0,0,1-.54,17.89,34.27,34.27,0,0,1-13.34,10.53,82.84,82.84,0,0,1-26.94,7.24c-3.12.35-6.16.94-8.77,2.86C100.94,605,98.75,606.35,96.77,608.07Z"/><path class="cls-1" d="M102.08,609c5.1,1.4,10.21,2.79,15.36,4a165,165,0,0,0,16.68,3c1.15.15,1.53.49,1.54,1.72,0,3.26.25,6.52.4,9.77.43,9,.27,18.13,2.16,27,.38,1.78-.67,1.53-1.65,1.53a156.54,156.54,0,0,1-30.46-3A2.5,2.5,0,0,1,104,651.2c-1.91-5.31-4.58-10.3-6.85-15.47-2.57-5.83-5.44-11.52-8.51-17.1-.3-.55-.79-1.14.06-1.65a91.56,91.56,0,0,0,10-7.26A3.27,3.27,0,0,1,102.08,609Z"/><path class="cls-1" d="M143.77,681.42a282.88,282.88,0,0,1,5,31.72,2.18,2.18,0,0,1-3.17,2.36,6.62,6.62,0,0,1-1.95-1.69,93.9,93.9,0,0,1-10.2-15.1c-3-5.69-6.57-11.07-9.09-17-.63-1.5-.54-1.9,1.17-2,5.59-.44,11.15,0,16.73.08C143.59,679.74,143.59,680.58,143.77,681.42Z"/><path class="cls-1" d="M777,412.36c-2.77-6.19-11.84-4.67-17.26-3.76-.67.11-1.28.22-1.82.29a46.69,46.69,0,0,1-26.7-4.21c-10.06-4.68-18.55-12.18-26.77-19.44-9.15-8.08-18.61-16.43-30.42-21.17-19.22-7.71-40.15-7.85-63.54-7.26a108.84,108.84,0,0,1-24.24-2.15,164,164,0,0,1,18.8-2.57c12.24-1.19,24.9-2.43,35.72-8.88,13.45-8,22.92-22.43,28.16-42.8,1-3.94-.36-7.53-3.58-9.37-2.27-1.3-5.81-2-9.72,2l-.27.29c-7.33,7.88-17.93,12.06-30.65,12.11a100.27,100.27,0,0,1-16.31-1.71,113.24,113.24,0,0,0-15-1.71c1.15-1.22,2.56-2.82,4.34-4.93.67-.79,1.2-1.41,1.49-1.72C613,280.74,622,262.55,630.78,245l.33-.68c1.09-2.19,2.15-4.44,3.23-6.71,3.18-6.74,6.47-13.71,10.69-19.55,5.56-7.68,13.28-13.46,20.75-19.05a163.66,163.66,0,0,0,13.46-10.84c15.53-14.46,24.16-36.65,23.09-59.43-.07-1.65-.31-6.7-5.58-8s-8.81,3.79-11,6.95c-1.18,1.68-2.24,3.38-3.29,5.07a53,53,0,0,1-6.71,9.2c-11.64,12-27,15.45-44.46,18.46-15.87,2.74-32.48,6.73-46.36,17.26-14.48,11-25.59,25.66-35.39,38.61a108.25,108.25,0,0,1-16.86,17.68,47.39,47.39,0,0,1,3-6.16c2.24-4.06,4.9-8,7.48-11.79a139.86,139.86,0,0,0,8.39-13.41c11.42-21,8.15-43.55-9.71-67.18-2.44-3.24-6.1-4.4-9.54-3-5.14,2-4.71,6.93-4.4,10.51.08.89.16,1.76.16,2.59a45.25,45.25,0,0,1-9.16,27.24c-3.52,4.72-8,8.71-12.37,12.58a104.34,104.34,0,0,0-11.18,11,146.66,146.66,0,0,0-9.86-41.91,193.5,193.5,0,0,0-9.32-19.46c-3.57-6.79-7.27-13.81-9.91-21.1a93.3,93.3,0,0,1-5.15-22.8,127.18,127.18,0,0,1-.15-16.2c.25-7.61.52-15.48-1.25-23.54-4.46-20.39-15.26-37.34-31.22-49-3.59-2.65-6.9-2.89-9.82-.7-5.33,4-2,12.35,0,17.35.22.56.43,1.07.6,1.53a46.94,46.94,0,0,1,2.62,24.79C419.78,58,413.11,70.19,407,80.6c-9.44,16.19-14.1,32.57-13.47,47.38a204.87,204.87,0,0,0,5.65,39.88c2.54,10.39,5.15,21.07,5.61,32.64-.8-1.56-1.59-3.17-2.34-4.83a121.6,121.6,0,0,1-5.4-15.23,147.74,147.74,0,0,0-4.95-14.39c-9.25-22-28.94-33.46-58.55-34.29-4.07-.11-7.26,2-8.34,5.56-1.64,5.29,2.42,7.94,5.38,9.87.72.47,1.43.93,2.06,1.42a44.89,44.89,0,0,1,9.32,9.91c6.45,9.36,7.26,19.81,8.12,30.87A133.81,133.81,0,0,0,352,205.05a83.13,83.13,0,0,0-8.57-4.43c-1-.46-1.85-.85-2.42-1.15a139.22,139.22,0,0,0-16.27-7.1c-9-3.33-18.52-6.06-27.7-8.71-15.28-4.41-31.08-9-45.34-16.38a191.68,191.68,0,0,1-20.14-12.64c-13.5-9.28-27.47-18.87-46.08-20.08a81.71,81.71,0,0,0-26.68,2.81c-4.29,1.17-6.53,3.61-6.63,7.23-.2,6.77,7.7,8.94,13.47,10.53a36.24,36.24,0,0,1,3.83,1.18c19.23,7.82,27.59,26.3,35.68,44.18,1.59,3.52,3.18,7,4.84,10.46,14.5,29.85,41.59,44,68.1,55.94a108.63,108.63,0,0,1,18.36,10.93l-1.18-.22-1.78-.34a123.23,123.23,0,0,1-16.82-5c-3.29-1.16-6.7-2.35-10.15-3.37-24.05-7-46.72,1.08-65.56,23.47-2.61,3.11-2.93,6.93-.85,10,1.51,2.2,4.39,4.42,9.56,2.48a44,44,0,0,1,36.88,3.6,115.88,115.88,0,0,1,10.34,7,109.37,109.37,0,0,0,11,7.37c-11.47,2.46-26.8,13.75-35,19.8l-2.15,1.58c-4.7,3.41-9.2,6.89-13.55,10.25-17.67,13.65-34.36,26.55-58.6,30.35-19,3-35.55,11.68-47.77,25.15a81.21,81.21,0,0,0-14.41,22.58c-.67,1.53-2.68,6.21,0,8.74,3.9,3.65,14.22-.49,29.59-8.38,1.79-.92,3.65-1.87,4.06-2,15.37-3.95,30.19,0,45.87,4.1,14.52,3.82,29.53,7.79,44.82,4.77a161.69,161.69,0,0,0,42.43-14.81c1.89-1,3.74-2,5.59-3a112.36,112.36,0,0,1,12.11-6,52.4,52.4,0,0,1,7.52-1.85c1.42-.29,2.85-.58,4.23-.89-4.21,3.26-8.68,6.29-13.05,9.26-7.4,5-15,10.21-21.58,16.55-14.45,14-19.09,32.74-14.18,57.15.8,4,3.55,6.63,7.37,6.91,2.47.16,5.73-.65,7.52-5.17l.42-1.15c4-11.22,12-19.71,23.83-25.23a105.53,105.53,0,0,1,14.92-5.2,115.58,115.58,0,0,0,14.27-4.88,140.3,140.3,0,0,0-9.41,45.89c-.21,5.24-.28,10.34-.36,15.33-.36,23.11-.67,43.07-12.74,64.29-14,24.57-14.54,53.87-1.46,78.39.7,1.3,2.55,4.76,6.55,5a7.76,7.76,0,0,0,2-.15c6.69-1.39,7.74-11.85,8.57-20.25a45.83,45.83,0,0,1,1.11-7.53c5.15-15.93,18.55-26.94,31-35.61,11.45-8,25.72-19.14,34.46-34.65,7.69-13.63,11.69-28.87,14.58-42,.61-2.74,1.11-5.53,1.61-8.32.71-4,1.44-8.07,2.5-12a42.61,42.61,0,0,1,3.32-7.16c.5-.93,1-1.88,1.47-2.81-.23,5.32-.91,10.71-1.58,16-1.57,12.43-3.19,25.29.87,37.35,5,14.88,21.55,33.83,37.28,37.21,4,.86,6.19-.42,7.32-1.65,1.95-2.11,2.37-5.83,1.12-9.94a66.85,66.85,0,0,0-2.9-7.57c-1.91-4.44-3.72-8.64-3.61-14.26.19-9.92,3.71-19.77,7.11-29.29,1.33-3.7,2.68-7.49,3.84-11.29,1.84,3.23,4.94,6.86,8.27,10.59,1.07,1.19,2,2.22,2.59,3,9,11.37,20.16,20.68,31,29.68,5.71,4.76,11.62,9.68,17.1,14.82,10.74,10.08,17.73,19.28,22.66,29.85,15.48,33.13,35.64,51,63.56,56.16a16.76,16.76,0,0,0,1.73.23,7.08,7.08,0,0,0,7.29-3.89c2.93-5.63-4.6-13.63-11.24-20.69-2.67-2.84-5.19-5.51-6.14-7.19-7.88-14-7.7-30.93-6.89-42.46,1-14.63,1.31-33.59-5.84-50.42-6.87-16.19-18.48-30-29.7-43.37l-.58-.67a109.49,109.49,0,0,1-13.59-20.6q2.18,1.63,4.33,3.43c4.11,3.41,8,7.35,11.77,11.16,6,6,12.1,12.24,19.45,16.81,15.91,9.9,36.17,9.8,58.6-.29,3.69-1.67,5.63-5,5.08-8.63-.39-2.61-2-5.84-7.57-6.38l-.39,0c-10.6-1.07-20.62-6.47-28.21-15.21-4-4.55-6.88-10-9.72-15.19a113,113,0,0,0-7.24-12.1,53.77,53.77,0,0,0,8.51.14c1.44-.06,2.73-.11,3.73-.06,19.37.82,38.5-3.37,57-7.42l2.05-.45c1.76-.38,3.53-.8,5.31-1.21,7.33-1.71,14.91-3.47,22.33-3.35,8.32.15,16.56,2.22,24.53,4.22a156.42,156.42,0,0,0,17.87,3.76,79,79,0,0,0,61.77-19C777.5,418.83,778.46,415.67,777,412.36ZM571.65,464.94c8.6,13.35,18.42,26.63,35.47,31.4-19.55,6.81-36,4.49-48.87-6.9-4.2-3.72-8.17-7.7-12-11.56-7.4-7.44-15-15.12-24.56-21a153.87,153.87,0,0,0,21.19-21.6,127.71,127.71,0,0,1,11.42,6.59c3.47,2.57,6.62,6.17,9.93,11.31,1.23,1.92,2.45,3.86,3.67,5.8S570.39,463,571.65,464.94Zm-4.41,155.54c3.07,11.44,8.93,18.44,15.71,26.55l1.67,2c-5.13-1.17-10.57-4-15-6.48-13.76-7.72-24.35-20.1-30.62-35.79-7.22-18.1-18.16-32.69-34.42-45.91-3-2.42-6.19-4.93-9.51-7.52-19.16-14.93-43-33.52-47.23-57.29a56.36,56.36,0,0,1-.71-8.35,138,138,0,0,0,63.6-22.64,120.59,120.59,0,0,0,19.91,33.73l1.44,1.71c10.1,12,20.55,24.45,26.67,38.77A82.84,82.84,0,0,1,565.17,578C564.13,591.7,563.43,606.25,567.24,620.48Zm-161.4-118a115.8,115.8,0,0,0-.91-17.28,137.63,137.63,0,0,0,20.15,2.8c3.13.2,7.2.24,9.49.24.28,1.43.55,2.73.81,4,.39,2,.77,3.82,1.16,5.88a29.46,29.46,0,0,1-.14,11.25c-1.16,6.1-3.82,12.11-6.38,17.91-.73,1.64-1.45,3.27-2.12,4.88-6.46,15.31-6.75,30-.9,43.62l-.68-.35a27.35,27.35,0,0,1-2.86-1.58,65,65,0,0,1-7.87-6.58,43.64,43.64,0,0,1-13.08-26.89c-.63-7.11.48-14.38,1.56-21.4A123.49,123.49,0,0,0,405.84,502.51ZM367.07,217.85c-4.9-9-5.52-18.53-6.17-28.62-.28-4.4-.57-8.94-1.25-13.44a53.77,53.77,0,0,0-18-33.13c11.49,1.31,20.92,4.78,28.07,10.34,9.62,7.47,14.1,19.3,18.2,31.78,3.25,9.88,6.34,18.78,11.32,27.58l.23.44c.47.92.92,1.77,1.37,2.5A166.69,166.69,0,0,0,372,226a31.17,31.17,0,0,1-3.82-6.09Zm-52.24,61.37a120.94,120.94,0,0,0-32.54-21.74c-20.29-9.13-38.1-17.82-50.72-31.65-8.61-9.42-13.91-21.24-19-32.67-7.51-16.75-15.27-34.06-33.55-44a42.6,42.6,0,0,0-6.24-2.29c-.83-.27-2.15-.69-3.62-1.18a69.39,69.39,0,0,1,15.73-.79C201.58,146,216.06,155.12,228,164c12.89,9.51,28.06,17,47.73,23.67,5.94,2,12.37,3.84,19.18,5.78,22.85,6.51,48.74,13.89,63.42,30.62a22.21,22.21,0,0,1,3.3,5.67c.24.51.48,1.05.74,1.59A139.43,139.43,0,0,0,314.83,279.22ZM310,411.48a164.85,164.85,0,0,0,16.79,26c-2.47,2.53-4.86,4.94-7.52,7.24a41.61,41.61,0,0,1-8.9,5.81,116,116,0,0,1-16.78,6.27c-2.29.72-4.56,1.44-6.79,2.2-16.12,5.53-27.61,14.58-34.22,27-1-8.84-.83-21.49,5.16-32.29,5.72-10.3,16.27-16.6,26.48-22.7,2.58-1.54,5.14-3.07,7.6-4.64A99.77,99.77,0,0,0,310,411.48Zm2.77,134.44c.34-6.31.15-12.7,0-18.88-.19-6.45-.38-13.12,0-19.64,1.32-21.23,4.09-42.72,15.26-56a37.89,37.89,0,0,1,6.12-5.74,139.12,139.12,0,0,0,57.51,36.07,121,121,0,0,0-13.92,36.54l-.39,1.95c-3.47,17.3-7.06,35.18-16.28,49.93-7.09,11.35-18.48,20-29.49,28.45-17.28,13.18-35.14,26.81-37.32,51.09l0,.48c-.08.91-.18,2.07-.31,3.29a70,70,0,0,1-4.25-15.07c-3-18.4,4.37-35.59,11.51-52.21,1.18-2.75,2.35-5.5,3.48-8.23C308.3,569,312.13,558.29,312.78,545.92Zm24.84-112.09a128.25,128.25,0,0,1,67.56-209c52.92-12.17,108.44,11.47,137.05,57.44a128.8,128.8,0,0,1,16.31,39.84c11.92,53.38-12.84,109.89-59.7,137.91C447.71,490.65,380,480.48,339.91,436.42,339.14,435.57,338.37,434.7,337.62,433.83ZM428.08,15.11a70.52,70.52,0,0,1,10.76,12.06c9,12.91,12.69,27.84,11.48,47-1.55,24.37,8.27,46.36,17.77,67.62,7.32,16.38,14.88,33.32,17.15,51.18a72.37,72.37,0,0,1,.07,19.72,52.8,52.8,0,0,1-1.55,7.84,150.94,150.94,0,0,0-40.85-9,138.54,138.54,0,0,0-28,1,121.13,121.13,0,0,0-3.31-39c-4-15.76-8.59-33.61-7.73-51.2a57.88,57.88,0,0,1,1-8.11c2.24-11.54,7.6-21.47,13.28-32,4.25-7.88,8.65-16,11.58-24.88C434.87,41.81,432,29.24,428.08,15.11Zm176.38,326.5c-3.21.28-6.42.56-9.62.94A96.7,96.7,0,0,0,572.49,348a150.48,150.48,0,0,0-3.65-30,75.06,75.06,0,0,1,8.15-3.3,42.81,42.81,0,0,1,12.12-2.13c7.71-.3,15.66,1.1,23.35,2.46l.71.12c16.64,2.94,31.19-.17,43.31-9.25-6.87,19.48-18.91,30.84-35.83,33.83C615.31,340.65,609.8,341.14,604.46,341.61Zm-30.88-37.37c-2.68,1-5.32,1.84-7.87,2.6a142.49,142.49,0,0,0-36.43-57.48,120.91,120.91,0,0,0,28.46-26.92c11-14.48,24.59-32.5,42.37-41.87,10.9-5.75,22.75-8.32,32.91-10.07,27.81-4.8,46.23-15.17,58.91-33.35v0c-1,16.25-8.29,32.07-20.38,44.56A137.84,137.84,0,0,1,655.93,195c-8.6,6.56-17.5,13.36-23.75,23.72-5.26,8.71-9.89,18.14-14.37,27.26-3.63,7.38-7.37,15-11.43,22.21C597.62,283.71,587.59,298.85,573.58,304.24Zm-55-64.09a156.22,156.22,0,0,0-26.43-16.26c0-.52.21-2.41,3.07-7.67,1.63-3,3.42-5.82,4.28-7.18l.38-.6c4.24-6.82,10.07-12.48,15.72-17.95,8.54-8.28,17.37-16.84,21-29.64A73.75,73.75,0,0,0,539,149.42c6.2,10.25,9.15,20.21,8.78,29.68-.48,12.41-7.81,23.41-14.9,34.05-2.23,3.36-4.54,6.83-6.55,10.23C526.22,223.51,520.16,233.91,518.54,240.15Zm93.2,126.63c18.46.33,37.55.69,55.42,6.23,12.55,3.9,22.4,12.72,31.93,21.24,3.06,2.75,6.23,5.58,9.45,8.23a72.81,72.81,0,0,0,26.56,14.23c6.93,1.94,13.56,1.79,20,1.66,2.39-.05,4.83-.11,7.29-.05-4.29,3.66-11,6.39-14.91,8-14.63,5.94-30.91,6.51-47.08,1.61a104.27,104.27,0,0,0-54-2.4c-4.48.93-9.06,2-13.71,3.05-25.54,5.87-52,11.94-75.7,1.19a36.36,36.36,0,0,1-7-4.23,138.28,138.28,0,0,0,22-63.82c13.44,4.05,26.5,4.83,38.67,5.05ZM296.82,330.59c-.47,3.51-.88,7.41-1.06,10.28a136.91,136.91,0,0,0,8.74,58.07,120.7,120.7,0,0,0-37.26,11.91l-.54.27c-20.13,10.34-43,22.07-66.23,19.32-8.1-.95-16.57-3.15-24.77-5.28-21.14-5.49-43-11.16-63.27,2.35-.92.62-2,1.34-3.17,2.08a70.87,70.87,0,0,1,9.12-12.73C129.09,405,144,397.6,162.66,394.77c23.16-3.52,41.71-16.12,53.19-26.06,17.2-14.89,37.83-30.86,60.46-36.43C278,331.87,292.51,330.37,296.82,330.59Zm1.73-9.9c-2.52.6-13.33-1.75-15.31-2.43-7.45-2.59-14.06-7.08-20.46-11.43l-2.36-1.59A122.46,122.46,0,0,0,250,298.77a55.47,55.47,0,0,0-22.76-6.71,51.55,51.55,0,0,0-12.75.78c14.64-14.59,30.42-19.63,47-14.94,5.4,1.51,10.75,3.39,15.92,5.21,9.89,3.48,20.1,7.07,31.08,8.21A152,152,0,0,0,298.55,320.69Z"/></svg>