<svg id="Layer_1" data-name="Layer 1" xmlns="http://www.w3.org/2000/svg" viewBox="0 0 514.89 864"><defs><style>.cls-1{fill:#a16e58;}</style></defs><title>Untitled-31</title><path class="cls-1" d="M257.44,27.81C129.81,27.81,26,131.65,26,259.28V604.72c0,127.63,103.84,231.47,231.47,231.47S488.92,732.35,488.92,604.72V259.28C488.92,131.65,385.08,27.81,257.44,27.81ZM478.06,604.72c0,121.65-99,220.62-220.62,220.62h0c-121.65,0-220.62-99-220.62-220.62V259.28c0-121.65,99-220.62,220.62-220.62a220.66,220.66,0,0,1,40.25,3.75c-.82,17.51-2.92,76.51-10.49,93.21-3.31,7.29-7.36,14.65-13.88,19.42-23.43,17.16-51.06,26.36-70.38,49.22a15,15,0,0,0-3.45,9.1,80.63,80.63,0,0,0,1.29,18.49c2.68,15.82,1.94,31.25,1.14,47.17-.32,6.41,2,12.06,5.11,17.46,1.47,2.54,3.3,4.82,4.9,7.27,4.11,6.25,6.91,13.08,11.61,19,6.71,8.49,15.59,14.32,23.26,21.81,1.91,1.87,3.83,3.73,5.81,5.54V425.3L238.16,530.81A74.25,74.25,0,0,0,220,538.4l-93.24-64.55a1.41,1.41,0,0,0-1.92,2l68.09,89.69a73.92,73.92,0,0,0-7.53,18.22L73.81,604.06a1.41,1.41,0,0,0,.06,2.78l111.56,15.27A73.84,73.84,0,0,0,193,640.3l-64.54,93.24a1.4,1.4,0,0,0,2,1.92l89.7-68.08a74.63,74.63,0,0,0,18.21,7.53l20.29,111.55a1.41,1.41,0,0,0,2.78-.06l15.28-111.56a73.84,73.84,0,0,0,18.19-7.58l93.24,64.54a1.4,1.4,0,0,0,1.92-2L322,640.1a73.7,73.7,0,0,0,7.53-18.21L441.07,601.6a1.41,1.41,0,0,0-.06-2.78L329.46,583.55a74.53,74.53,0,0,0-7.58-18.2l64.54-93.24a1.41,1.41,0,0,0-2-1.92l-89.69,68.09a73.92,73.92,0,0,0-18.22-7.53l-17.86-98.2v-78a6.32,6.32,0,0,0,4.58-.1,6.54,6.54,0,0,0,2.81-2.2c3.13-4.15,3.42-8.64,1.64-13.38a29.46,29.46,0,0,0-9.08-12.25c-11.8-9.93-17.84-24.1-24.81-37.38-4-7.68-2.39-17-2.13-25.27.07-2.22.49-4.41.4-6.64a1.51,1.51,0,0,1,.12-.38,2.16,2.16,0,0,1,.14.43,227.27,227.27,0,0,0,5,26.13c1.76,6.82,8.14,10.42,12.92,14.92a91.19,91.19,0,0,0,16.2,11.84c5.72,3.4,11.38,3,17.66,2.26,8.25-1,17.76.33,25.54-2.72,4.87-1.91,6-6.66,2.67-10.66-8.12-9.6-18.36-6.9-30.24-12.2a11.39,11.39,0,0,0-2.81-1c-5.52-.07-9.47-3-12.56-7.23-4.52-6.16-5.93-14-6.62-21.44-.77-8.32-1.56-16.61-1.33-25,0-.56.32-1.35.86-1.17.35.12.42.58.44.95q.42,12.48,1.79,24.9c.8,7.29,1.55,14.7,5.9,20.87a16.84,16.84,0,0,0,7.89,6.17,15.11,15.11,0,0,0,6,.63c7.35-.24,14.72.58,22.08.57a18.62,18.62,0,0,0,12.82-5.1,113.72,113.72,0,0,1,9.65-8.41c4.2-3,18.3-10.56,9.64-16.6a15.17,15.17,0,0,0-8.24-2.36c-5.16,0-7.88,5.31-11.26,8.44a29.91,29.91,0,0,1-8.69,5.82c-18.79,7.87-21.61-27.33-22.08-37.53,0-.51-.12-1.14.58-1.18s.77.65.8,1.19a107,107,0,0,0,1,11.17c.94,5.8,2,11.6,4.19,17.09a14.85,14.85,0,0,0,5.13,6.7,9.81,9.81,0,0,0,9.85,1.26,29.23,29.23,0,0,0,10.58-7.9c6.07-6.64,13.64-12.86,11.13-23a45.23,45.23,0,0,0-7.67-15.93c-.4-.52-.65-.61-1.16-.12a29.52,29.52,0,0,1-2.49,2.11,7.72,7.72,0,0,0-3.24,6.76,3.38,3.38,0,0,0,1.53,3.19,21.44,21.44,0,0,1,5,4.9,12.23,12.23,0,0,1,.89,1.36.64.64,0,0,1-.19.93c-.36.26-.67.09-.92-.2a4.07,4.07,0,0,1-.33-.48,27.14,27.14,0,0,0-4.76-5.11c-.23-.2-.49-.53-.79-.34-.13.08-.06.51-.05.78a56,56,0,0,0,.87,7.53c.06.35.13.69.17,1s0,.89-.58,1-.7-.28-.77-.7c-.28-1.85-.64-3.69-.82-5.55-.25-2.67-.37-5.36-.56-8a9.08,9.08,0,0,1,3.44-8,28.83,28.83,0,0,0,8.71-12.22,9.48,9.48,0,0,1,5.6-5.32c12.11-5.12,25-8.62,32.12-20.65,4.59-7.74,4.78-15.8,4.66-24.49-.29-23,6.51-60.54,9.3-83.27,60.86,39.31,101.27,107.71,101.27,185.4ZM272.8,208.21c-.25.69-.8.41-1.29.25a27.61,27.61,0,0,0-5.64-1.43,25.68,25.68,0,0,0-13.12,2c-.5.22-1.1.52-1.38-.22s.38-.83.83-1c3.58-1.75,7.46-2.07,11-2.33a27.44,27.44,0,0,1,8.75,1.73C272.47,207.34,273,207.56,272.8,208.21ZM245,209.46c-.35.94-1.16.26-1.7.06a18.52,18.52,0,0,0-11.11-.7c-.71.17-1.42.38-2.13.57-.4.11-.82.14-1-.32s.14-.8.57-1c.21-.09.44-.16.66-.23a28.72,28.72,0,0,1,6.31-1,21.68,21.68,0,0,1,7.18,1.37C244.31,208.46,245.31,208.58,245,209.46ZM257.47,668.9h0a6.06,6.06,0,0,1-6-6,6,6,0,0,1,1.78-4.25,5.89,5.89,0,0,1,4.18-1.75h.06a6.18,6.18,0,0,1,6,6,5.89,5.89,0,0,1-1.74,4.2A6,6,0,0,1,257.47,668.9Zm3.43,7.5V730a2.43,2.43,0,0,1-4.85,0V676.49h1.39c.72,0,1.43,0,2.15,0ZM261.69,547a5.88,5.88,0,0,1-4.18,1.76h-.06a6.18,6.18,0,0,1-6-6,5.87,5.87,0,0,1,1.73-4.2,6,6,0,0,1,4.26-1.77h0a6.07,6.07,0,0,1,6,6A6,6,0,0,1,261.69,547Zm-2.85-17.8-1.4,0c-.74,0-1.48,0-2.22.05l-1.24,0V475.65a2.43,2.43,0,1,1,4.86,0Zm-39.64,35.4a6.09,6.09,0,0,1-4.27,1.71,6,6,0,0,1-4.25-1.71,5.87,5.87,0,0,1-1.75-4.2,6,6,0,0,1,1.8-4.28,6.05,6.05,0,0,1,8.48,0,6,6,0,0,1,1.75,4.26A5.9,5.9,0,0,1,219.2,564.58Zm0,85a5.83,5.83,0,0,1-4.2,1.75h0a6,6,0,0,1-4.28-1.79,6,6,0,0,1,4.22-10.24h0a5.92,5.92,0,0,1,4.24,1.76A6.17,6.17,0,0,1,219.2,649.59Zm-21.85-52.78a6,6,0,0,1,4.25,1.77,5.91,5.91,0,0,1,1.76,4.24,6.19,6.19,0,0,1-6,6h0a5.86,5.86,0,0,1-4.17-1.73,6,6,0,0,1,4.22-10.31Zm-32.28-81.46a2.44,2.44,0,0,1,0-3.44,2.5,2.5,0,0,1,3.43,0l37.85,37.85-.63.62c-.73.72-1.43,1.46-2.13,2.2l-.62.67Zm39.31,138.57.62.63c.72.73,1.45,1.43,2.2,2.13l.66.62L170,695.2a2.43,2.43,0,0,1-3.43,0,2.42,2.42,0,0,1,0-3.43ZM183.82,605l.05,1.32h-53.6a2.43,2.43,0,0,1,0-4.86H183.8l0,1.4C183.77,603.55,183.8,604.25,183.82,605Zm111.87,36.11a6.17,6.17,0,0,1,8.52,0,6,6,0,0,1,0,8.48,6,6,0,0,1-8.48,0,5.94,5.94,0,0,1-1.75-4.26A5.84,5.84,0,0,1,295.69,641.08Zm0-85a6,6,0,0,1,8.5,8.53,6,6,0,0,1-4.24,1.74h0a5.89,5.89,0,0,1-4.24-1.75A6.18,6.18,0,0,1,295.69,556.07Zm21.84,52.78h0a6,6,0,0,1-6-6,6.16,6.16,0,0,1,6-6h0a5.86,5.86,0,0,1,4.17,1.73,6,6,0,0,1,1.76,4.29A6.06,6.06,0,0,1,317.53,608.85Zm32.29,81.46a2.43,2.43,0,0,1-3.43,3.43l-37.85-37.85.63-.62c.72-.71,1.43-1.45,2.13-2.2l.62-.66ZM310.51,551.73l-.62-.63c-.72-.72-1.45-1.43-2.2-2.12l-.67-.62,37.9-37.91a2.45,2.45,0,0,1,3.44,0,2.44,2.44,0,0,1,0,3.44Zm20.55,49,0-1.32h53.6a2.43,2.43,0,1,1,0,4.85H331.09l0-1.39C331.11,602.11,331.09,601.4,331.06,600.69Z"/><path class="cls-1" d="M439.48,72.85C390.86,25.87,326.21,0,257.44,0S124,25.87,75.4,72.85,0,182.3,0,248.74V615.26C0,681.7,26.78,744.17,75.4,791.15S188.68,864,257.44,864s133.42-25.87,182-72.85,75.41-109.45,75.41-175.89V248.74C514.89,182.3,488.11,119.83,439.48,72.85Zm64.71,542.41c0,131.46-110.69,238.4-246.75,238.4h0c-136,0-246.74-106.94-246.74-238.4V248.74c0-131.46,110.69-238.4,246.74-238.4s246.75,106.94,246.75,238.4Z"/><path class="cls-1" d="M267.8,312.36c-4.83-2.17-8.94-5.48-13.22-8.53-3.34-2.38-6.11-5.42-9.22-8.07-.46-.4-1-1.16-1.47-1s-.28,1.1-.32,1.7c-.13,2-.44,3.94-.71,6a4.21,4.21,0,0,0,.52,1.41,78.41,78.41,0,0,0,6.91,12,63.07,63.07,0,0,0,8.13,8.69c1.05,1,2.14,1.92,3.19,2.91.48.44.76.51,1.1-.17a101.63,101.63,0,0,0,5.52-13.62C268.41,313.23,268.61,312.72,267.8,312.36Z"/></svg>