<svg id="Layer_1" data-name="Layer 1" xmlns="http://www.w3.org/2000/svg" viewBox="0 0 514.89 864"><defs><style>.cls-1{fill:#a16e58;}</style></defs><title>Untitled-31</title><path class="cls-1" d="M90.45,417.69c15.43-6.33,34.31-7.27,55.55-4.12,6.51,1,13.05,2.39,19.37,3.78s12.69,2.78,19.13,3.75a142.43,142.43,0,0,0,48.94-1.41c5.6-1.11,11.24-2.48,16.69-3.81,7.89-1.91,16-3.89,24.2-5.11,24.47-3.66,46.73,1.86,70.29,7.69,9,2.24,18.33,4.55,27.7,6.26A124.46,124.46,0,0,0,395,427c1.1,0,2.2,0,3.28,0a6.9,6.9,0,0,0,3.25-.85,2.09,2.09,0,0,0,1.07-1.81,2.14,2.14,0,0,0-.74-1.69,3.64,3.64,0,0,0-2.33-.58,114.56,114.56,0,0,1-22.77-1.19c-6.83-5.77-15.69-10-24-13.41a84.94,84.94,0,0,0,10.09-.86c12.09-1.8,22.14-6.54,33.1-12.09,15.72-8,37.82-12.94,52.72-3a3.89,3.89,0,0,0,4.42.13,3.36,3.36,0,0,0,.72-4.41c-2.14-4.05-5.76-7.63-9-10.78l-1.45-1.44c-14.42-14.45-31.35-23.8-49-27-9-1.64-17.95-1.5-28.41.47-2.62.49-5.3,1-8,1.46a118,118,0,0,0,12.48-13.67l2.46-3c5.63-6.76,11.05-10.74,18.22-13.34a3.83,3.83,0,0,0,2-1.48l.08-.14a3.58,3.58,0,0,0-.31-4c-4.22-5.76-13.27-7.05-17-7.34-12-.94-24.46,4.22-36.23,10.4a79.59,79.59,0,0,0,5.6-8.19c6.09-10.29,8.53-20.86,10.89-32.63,3.37-16.87,13.49-36.28,30.43-41.85a4,4,0,0,0,3-3.27c0-1.65-1.5-3-3.25-3.3-6.31-1.22-12.75-.33-19,.53l-1.3.18a115.09,115.09,0,0,0-17.83,3.75,86.24,86.24,0,0,0-30.58,16.08,71.49,71.49,0,0,0-17.29,21.74c-1.26,2.33-2.55,4.72-3.87,7.1A110.49,110.49,0,0,0,294,262.56c-2.2-9.84-4.28-19.12-.93-29.09a3.61,3.61,0,0,0,.06-2.45l-.06-.17a3.83,3.83,0,0,0-3.46-2.28c-7.26-.41-13.95,5.67-16.48,8.28-8.29,8.57-11.86,21.18-14.21,34a76.51,76.51,0,0,0-3.12-9.35c-4.51-11-11.51-19.48-19.52-28.6-11.5-13.07-21.42-32.85-14.78-49.16a3.27,3.27,0,0,0-.95-4,3.51,3.51,0,0,0-4.49.11c-9.29,7.55-14.7,18.88-19.45,29.83-8.83,20.35-8.86,42.26-.07,61.69,1,2.27,2.16,4.77,3.28,7.3a114.93,114.93,0,0,0-16.69-8.71c-9.28-4.21-15.71-9.13-20.82-15.9a3.76,3.76,0,0,0-1.91-1.58l-.19,0a3.83,3.83,0,0,0-4,1.19c-4.85,5.27-4.14,14.11-3.61,17.66,1.74,11.63,9.68,22.21,18.52,31.95-11.39-4.9-24.58-7.21-39.21-6.87-12.53.3-23.81.18-35.2-4.19-6.1-2.35-14.38-6.83-19.16-14.92a3.49,3.49,0,0,0-3.84-1.77A3.34,3.34,0,0,0,71,278.89c.31,11.9,6.47,24,12.46,34.2a83.85,83.85,0,0,0,23.47,26.16c10.09,7.22,22,10.82,33.68,13.48-3.47,1.37-7,3-10.41,4.58-9.53,4.42-19.4,9-29.58,8.8A12.2,12.2,0,0,1,99.2,366c-1.44-.16-3.06-.34-4.35.4l-.17.11a3.61,3.61,0,0,0-1.52,3.77c1.71,9.8,13.28,14.83,18.17,16.54,9.83,3.43,20.71,3.57,31.11,3.08a81,81,0,0,0-8.7,5,76.32,76.32,0,0,0-14.46,12.65c-1.48.05-3,.12-4.45.22a91.89,91.89,0,0,0-31.42,7.85,8.3,8.3,0,0,0-1.91,1.13,2.08,2.08,0,0,0-.41,2.86c.56.88,1.9,1,3,.57C85.8,419.6,88.76,418.38,90.45,417.69ZM232.63,235.85c7.73,8.79,14.47,16.91,18.71,27.31a73.21,73.21,0,0,1,5.2,22.32c.16,2.13.23,4.29.21,6.44l-1-.07c-2-.14-4.06-.21-6.11-.21A88.41,88.41,0,0,0,219,297.09c-1.07.41-2.13.82-3.18,1.26-1.23.51-2.5,1.07-3.79,1.68a67,67,0,0,0-2.06-8.74c-.39-1.27-.84-2.56-1.32-3.82-.35-.93-.72-1.87-1.09-2.8-2.09-5.2-4.4-10.3-6.64-15.23h0l-.37-.8L198.87,265c-2.64-5.88-4-12.39-4.33-20.5-.62-16.42,4.75-33.58,15.52-49.61l1.16-1.73c1.27-1.94,2.67-4.05,4.2-6C211.62,204.23,221.55,223.26,232.63,235.85Zm-42.46,78.51c-.78.05-1.46-.81-2-1.24-1-.77-2-1.5-3.07-2.26-2.48-1.82-4.53-4.46-6.66-6.67-2.31-2.4-4.6-4.83-6.79-7.34a70.85,70.85,0,0,1-11.16-16.31,42.36,42.36,0,0,1-2-5.07c-1.71-5.34-2.82-12.92.55-17.89-.55.82,3.86,4.52,4.41,5,7.19,6.66,16.14,10.38,24.84,14.78a78.73,78.73,0,0,1,15.15,9.84c.56.47.87,2.23,1.1,2.88.86,2.41,1.56,4.86,2.21,7.32.15.57,1.49,4.47.78,4.86a87.38,87.38,0,0,0-11.34,7.37c-1.79,1.37-3.46,2.89-5.2,4.32A1.36,1.36,0,0,1,190.17,314.36Zm-4,4.34a83.73,83.73,0,0,0-18.74,31.13c-.35,1.06-.68,2.12-1,3.19-.37,1.28-.71,2.59-1,3.9a71.92,71.92,0,0,0-8.29-3.86,197.88,197.88,0,0,0-25.59-7.45,61.29,61.29,0,0,1-21.77-10.09C96.13,325.76,85.64,311,79.43,292.83c-.21-.64-.44-1.29-.67-1.95-.77-2.17-1.6-4.55-2.2-6.92,11.37,13.5,32.94,17.84,50,17.32,11.91-.38,22.67-.43,33.68,2.84a78.72,78.72,0,0,1,21.23,10c1.84,1.22,3.64,2.52,5.38,3.9ZM149,355.34c.63.19,2.06.51,2.69.71a65.52,65.52,0,0,1,12.75,5.68,81.62,81.62,0,0,0-1.15,13.64c0,2.45.11,4.88.32,7.24-2.3.47-4.59,1-6.82,1.69l-.93.06c-13.54,1-28.11,2.67-41.31-1.38a34.36,34.36,0,0,1-7-3c-2.41-1.36-7.89-4.88-9.41-9.39A43.09,43.09,0,0,0,119.41,367c2-.9,3.92-1.84,5.85-2.76a188.73,188.73,0,0,1,18.56-7.51A28.41,28.41,0,0,1,149,355.34Zm8.74,33.52c2.06-.62,4.22-1.16,6.42-1.62,0,.31.09.62.14.93a81.15,81.15,0,0,0,8.92,26.15c-2.57-.52-5.36-1.11-8.65-1.83-14.64-3.23-27-4.82-38.73-5a69,69,0,0,1,10.6-8.76A78.79,78.79,0,0,1,157.74,388.86ZM169,363.3a77.59,77.59,0,0,1,3.26-12.94c6.7-19.43,21.29-35.74,39.95-45.26,20.63-10.52,45.9-11.59,67.53-3.27,22.92,8.82,41.18,28.17,48.17,51.11a77.22,77.22,0,0,1-3.71,54.63.86.86,0,0,1-.33.44.88.88,0,0,1-.6,0,138.34,138.34,0,0,0-47.11-1.88c-18.9,2.31-36.87,8.88-55.85,11a140.92,140.92,0,0,1-41-1.66A77.23,77.23,0,0,1,169,363.3ZM288.12,233.23c-.86.08-1.71,7.81-1.8,8.73a37,37,0,0,0,.21,9.16c1,6.63,3.08,13.06,4.35,19.64a69,69,0,0,1,.45,21.6c-.37,2.92-.89,5.9-1.56,8.87.05-.22-3.8-1.82-4.15-2a87.93,87.93,0,0,0-16.45-5.46c-.64-.14-7.66-1.37-7.66-1.37a86.1,86.1,0,0,1,.28-9.77c1.87-14.21,4.22-31.72,14.79-42.62C278.47,238.09,283.21,233.71,288.12,233.23Zm65.16,114.44c-1.58,1.29-3.18,2.51-4.75,3.63l-2,.26a66.6,66.6,0,0,1-14,.25,82,82,0,0,0-8.62-19.16c1.84-1.38,3.66-2.85,5.4-4.4l1.73-1c14.15-8,30.21-17,44.53-15.89,2.78.22,9.3,1.1,12.68,4.5a41.86,41.86,0,0,0-17.5,12.25c-1.37,1.64-2.71,3.31-4,5C362.44,338.44,358.4,343.48,353.28,347.67Zm-26.83-23.14c-1.62,1.46-3.33,2.87-5.09,4.2l-.56-.79a86.24,86.24,0,0,0-26.69-24.33,93.4,93.4,0,0,0,2.5-16.85c2.78-4.63,5.37-9.42,7.87-14.05l2.53-4.65c3.09-5.67,7.49-10.78,13.83-16.07,12.86-10.71,30-17.33,49.68-19.16l2.11-.21c2.36-.24,4.94-.5,7.45-.54-16.12,7.75-25.28,27.14-28.53,43.39-2.27,11.35-4.61,21.53-10.35,31.21A75.5,75.5,0,0,1,326.45,324.53Zm4,80.51c2.27.54,4.58,1,6.88,1.34l.89.34,1,.37c8.65,3.26,18.3,6.9,26.35,11.6-7-1.55-14.08-3.45-20.91-5.3-5.22-1.41-10.61-2.87-16-4.16C329.29,407.85,329.88,406.44,330.43,405Zm8.09-3.16c-2.13-.31-4.32-.72-6.51-1.23.1-.3.19-.6.29-.9A81,81,0,0,0,336,375.37a81.82,81.82,0,0,0-.83-11.59c-.16-1.11-.33-2.21-.54-3.3-.24-1.31-.52-2.63-.83-3.93,10.47.63,20.91-1.09,31.14-3.06,4.68-.9,9.35-2.15,14.13-2.31a67.81,67.81,0,0,1,14.43,1.23c16.65,3.06,32.71,11.95,46.44,25.71l1.47,1.46c1.67,1.64,3.49,3.44,5.08,5.32-16.29-7.4-37.64-2.24-52.77,5.43-10.58,5.35-20.26,9.92-31.62,11.61A80.2,80.2,0,0,1,338.52,401.88Z"/><path class="cls-1" d="M112.07,420.57a140.61,140.61,0,0,1,29.34,4.53c5.54,1.45,11.15,3.16,16.57,4.81s10.76,3.28,16.19,4.71a119.22,119.22,0,0,0,30.43,4.1c1.07,0,2.13,0,3.18-.05a86.43,86.43,0,0,0,23.76-3.9l2.08-.67c13.68-4.39,27.82-8.93,42.3-10.84,16-2.11,31.85.67,46.6,4,5.13,1.16,10.43,2.36,15.73,3.24.14,0,15.37,2.79,27.41,3.07,10.75.24,13.11-.73,14.07-1.64a1.63,1.63,0,0,0,.68-1.33,1.89,1.89,0,0,0-.68-1.4c-1.07-.92-3.11-.71-4.88-.59l-1,.07c-15.95.94-32.21-2.14-46.57-5.24-14.94-3.21-32.33-6.53-49.49-5.15-12.27,1-24.07,4.71-35.49,8.32-4.08,1.29-8.29,2.62-12.44,3.8a99.11,99.11,0,0,1-33.68,3.14C188.42,433,180.57,431,173,429l-.55-.15c-5.07-1.33-10.1-2.93-15-4.47-5.46-1.74-11.1-3.53-16.86-5a133.87,133.87,0,0,0-22.79-3.78l-.45,0c-3.27-.26-7.22-.37-8.8,1.12a2.21,2.21,0,0,0-.71,1.79c.07,1,.78,1.75,2.12,1.94C110.5,420.48,112.07,420.57,112.07,420.57Z"/><path class="cls-1" d="M369.77,437.7a5.34,5.34,0,0,0-3.6-.22c-.5.12-1,.22-1.51.31-5.6.94-11.05.39-17.09-.37-6.22-.77-12.49-1.95-18.55-3.09-5.53-1-11.25-2.11-16.93-2.88-13.28-1.81-24.24-1.75-34.5.18-6.83,1.29-13.67,3.28-20.29,5.21-3.46,1-7,2-10.56,3a106.94,106.94,0,0,1-32.25,3.63c-2.29-.1-4.57-.24-6.86-.38l-1.3-.11a15.46,15.46,0,0,0-5.22.24,2.28,2.28,0,0,0-1.55,1.21,2,2,0,0,0,.1,1.69c.51,1.08,3,1.34,3.73,1.39,1.43.09,2.83.2,4.21.3,5,.37,9.83.73,14.69.73,1.74,0,3.49-.05,5.26-.16,9.27-.56,18.29-3.31,27-6,3.49-1.06,7.1-2.16,10.67-3.1a126.06,126.06,0,0,1,39.83-4.2c8.32.5,16.57,2.23,24.56,3.91,3.48.73,7.09,1.49,10.67,2.14,3.13.57,5.93,1,8.57,1.26a61.68,61.68,0,0,0,18.88-.56c2-.4,3.09-1.45,2.95-2.76l0-.16A1.83,1.83,0,0,0,369.77,437.7Z"/><path class="cls-1" d="M329.44,443.29a118.88,118.88,0,0,1-34.53,4.55A167.76,167.76,0,0,1,266.46,445l-.47-.09c-1.25-.24-3-.58-4.24,0a2.26,2.26,0,0,0-1.26,1.53,1.82,1.82,0,0,0,.49,1.67,3.86,3.86,0,0,0,2.24,1c4.72.91,9.46,1.63,14.11,2.16a164.68,164.68,0,0,0,18.57,1.08,139,139,0,0,0,17.31-1.06,118.6,118.6,0,0,0,17.65-3.56,4.72,4.72,0,0,0,2.69-1.8,1.84,1.84,0,0,0,.14-1.5C333.24,443.09,331.62,442.65,329.44,443.29Z"/><path class="cls-1" d="M278.29,597.16c3.31-1.9,6.93-3.16,10.36-4.79,12.72-6.06,26.13-10.39,39.42-15,4.19-1.45,8.32-2.36,11.37-5.78,4.81-5.42,6.25-13.07,8.19-19.83,3.31-11.53,7.92-22.87,10.21-34.65,1.15-5.94,1.33-12.05,2.75-17.94a21.3,21.3,0,0,0,.81-6.55,4.48,4.48,0,0,0-5.43-4.15,9.19,9.19,0,0,0-2.53,1c-7.3,4.09-12.54,11.39-16.59,18.39a103.43,103.43,0,0,0-9.74,21.81c-1.67,5.46-3.68,12.91-9,16-4.5,2.58-10.25,3.35-15.22,4.71-7.79,2.13-15.43,5.26-23.42,6.59-5.33.89-10.61.62-15.82,2.3a92.19,92.19,0,0,1-10.93,2.8,106,106,0,0,1-13.75,1.7c-2.89.18-5.78.25-8.68.23-.28,0-.82-.06-.84-.27s.27-.39.52-.54a18.25,18.25,0,0,0,2.13-1.49c2-1.56,4-3,6-4.48,13.38-9.64,28.66-16.14,41-27.23,5.53-5,11.12-10.43,12.14-18.16.54-4.15-.26-7.83-3.12-11a6.78,6.78,0,0,0-3.25-2,16.76,16.76,0,0,0-8.86.17c-10.1,2.72-18.86,8.82-28.1,13.52a248.54,248.54,0,0,1-29,12.61c-15,5.34-30.31,10.58-42.83,20.71a128.77,128.77,0,0,1-16.78,11.79c-14.41,8.26-24,22-33,35.56-9.68,14.59-19.65,28.82-33.31,40-11.8,9.67,12.34,29,19.13,34.41,12.06,9.56,26.57,16.71,42.15,17.49a3.15,3.15,0,0,0,2.82-1.19c11.34-13.2,28.56-18.29,45.09-21.29,19.38-3.51,38.71-5.59,57.63-11.4,10.79-3.31,21-8.74,27.43-18.26,7.3-10.77,16-20.46,25-29.63a21.16,21.16,0,0,0,4.75-6.45,8.7,8.7,0,0,0,.81-4.54c-.08-.64-.23-.94-.95-.45-3.5,2.39-7.08,4.67-10.55,7.12-6.58,4.65-12.91,9.65-19.31,14.54a3.74,3.74,0,0,1-.89.51.67.67,0,0,1-.8-.27.61.61,0,0,1,.07-.83,4.94,4.94,0,0,1,.68-.61c5.55-4.21,11-8.53,16.66-12.62,5.39-3.91,11.08-7.37,16.39-11.39,3.33-2.52,6.94-5,9.09-8.7.11-.18.3-.48.23-.57-.18-.25-.45,0-.69,0s-.42.12-.62.2c-7.93,3.2-16.2,5.53-24.19,8.58a225.54,225.54,0,0,0-24,10.67c-.57.3-1.29.71-1.66-.15S277.79,597.44,278.29,597.16Zm-.31,15.6c.69.42.32,1,0,1.45l-.28.44c-4.07,6.93-10.25,10.78-17.94,12.57a86.69,86.69,0,0,0-9.81,2.42c-.17.06-.34.09-.5.13-.38,0-.7-.14-.8-.54a.77.77,0,0,1,.63-1c1.45-.43,2.9-.89,4.37-1.23,2.94-.68,5.88-1.36,8.8-2.2a23.83,23.83,0,0,0,13.94-10.94c.11-.19.24-.36.35-.55C277,612.87,277.39,612.4,278,612.76Z"/><path class="cls-1" d="M304,541.14c0,2.12.44,4.22.69,6.32.08.58.2,1,1,.76,3.3-.88,6.58-1.84,9.81-3a8.91,8.91,0,0,0,5.34-4.82c1.48-3.18,2.66-6.48,4-9.71a2.49,2.49,0,0,0,.09-1.78c-.86-2.72-1.53-5.55-3.2-7.91-3.23-4.56-6.57-9-9.83-13.57a37,37,0,0,0-5.85-6.58,7.26,7.26,0,0,0-4.56-1.92c-.1,0-.44,0-.78.09a9.15,9.15,0,0,0-7.71,7.43,20.34,20.34,0,0,0,.69,10.13,49.57,49.57,0,0,0,7.6,14.84,10.42,10.42,0,0,1,2.26,5C303.68,538,303.94,539.57,304,541.14Z"/><path class="cls-1" d="M301.41,539.17c-2.67-1.7-5.33-3.4-7.93-5.2a97.82,97.82,0,0,1-8-6.19c-.53-.45-.83-.48-1.38,0-1.46,1.3-3,2.5-4.49,3.74-4.18,3.44-8.14,7.16-12.85,9.9-.94.55-.4.91,0,1.35a93.45,93.45,0,0,0,13.57,12.27,1.49,1.49,0,0,0,1.66.2c3.12-1.29,6.41-2.11,9.6-3.17,3.62-1.21,7.29-2.22,11-3.1.36-.09.82-.11.71-.69a55.06,55.06,0,0,1-.82-7.36A1.94,1.94,0,0,0,301.41,539.17Z"/><path class="cls-1" d="M252.61,549.76a170.48,170.48,0,0,0-16.07,10.5,1.31,1.31,0,0,0,.22,2.36,3.93,3.93,0,0,0,1.53.19,56.94,56.94,0,0,0,10.79-1.55c3.72-1,7.54-1.54,11.19-2.81.92-.32,1.06-.52.43-1.34-2.05-2.64-4.49-4.92-6.75-7.37C253.43,549.17,253.06,549.51,252.61,549.76Z"/><path class="cls-1" d="M257.44,836.19C129.81,836.19,26,732.35,26,604.72V259.28C26,131.65,129.81,27.81,257.44,27.81S488.92,131.65,488.92,259.28V604.72C488.92,732.35,385.08,836.19,257.44,836.19Zm0-797.53c-121.65,0-220.62,99-220.62,220.62V604.72c0,121.65,99,220.62,220.62,220.62h0c121.65,0,220.62-99,220.62-220.62V259.28C478.06,137.63,379.09,38.66,257.44,38.66Z"/><path class="cls-1" d="M257.44,864c-68.76,0-133.41-25.87-182-72.85S0,681.7,0,615.26V248.74C0,182.3,26.78,119.83,75.4,72.85S188.68,0,257.44,0s133.42,25.87,182,72.85,75.41,109.45,75.41,175.89V615.26c0,66.44-26.78,128.91-75.41,175.89S326.21,864,257.44,864Zm0-853.66c-136,0-246.74,106.94-246.74,238.4V615.26c0,131.46,110.69,238.4,246.74,238.4h0c136.06,0,246.75-106.94,246.75-238.4V248.74C504.19,117.28,393.5,10.34,257.44,10.34Z"/></svg>