<svg id="Layer_1" data-name="Layer 1" xmlns="http://www.w3.org/2000/svg" viewBox="0 0 864 791.11"><defs><style>.cls-1{fill:#a16e58;}</style></defs><title>Untitled-31-08 [Converted]</title><path class="cls-1" d="M689.34,223.28c-25.13-12.52-50.89-24.57-76.6-35.84L663.66,114a4.52,4.52,0,0,0,.17-4.87,4.45,4.45,0,0,0-4.35-2.18l-84.09,8.9,13.89-82.09a4.5,4.5,0,0,0-6.8-4.58L508.94,74.42l-38.6-72a4.5,4.5,0,0,0-8,.05L427,70.35,357.94,21.29a4.51,4.51,0,0,0-7.11,3.78l2.09,88.2-86.71-4.13h0a4.44,4.44,0,0,0-4.21,2.42,4.55,4.55,0,0,0,.43,4.83l50.39,65.21L230,220.24a4.5,4.5,0,0,0,.34,8.3l81.5,30.36-50.06,65.26a4.52,4.52,0,0,0-.4,4.86,4.45,4.45,0,0,0,4.27,2.38L349.08,326l-5.63,86.51a4.51,4.51,0,0,0,6.94,4.08l72-46.63,41.24,78a4.51,4.51,0,0,0,8.06-.18l37.42-79.1,70.14,42.49a4.51,4.51,0,0,0,6.8-4.46l-10.66-79.22,81,6.71a4.5,4.5,0,0,0,3.86-7.33l-49.77-61.18,78.66-34.29a4.5,4.5,0,0,0,.2-8.16Zm-123.58,99.9,10.15,75.44-66.36-40.19a4.5,4.5,0,0,0-6.41,1.93l-35.71,75.47-39.34-74.41a4.49,4.49,0,0,0-2.85-2.25,4.33,4.33,0,0,0-1.13-.15,4.45,4.45,0,0,0-2.45.73L353,404.18l5.39-82.69a4.51,4.51,0,0,0-4.79-4.79L275,321.77l47.73-62.23a4.51,4.51,0,0,0-2-7L243.6,223.85l78.13-36.47a4.51,4.51,0,0,0,1.66-6.84L275.53,118.6l81.79,3.9a4.5,4.5,0,0,0,4.72-4.61l-2-84,66,46.85a4.58,4.58,0,0,0,3.67.7,4.49,4.49,0,0,0,2.94-2.3l33.8-64.94,36.83,68.74a4.5,4.5,0,0,0,6.33,1.71l69.15-42.53-13.23,78.15a4.55,4.55,0,0,0,1.16,3.84,4.49,4.49,0,0,0,3.76,1.39L650.65,117l-48.43,69.85a4.5,4.5,0,0,0,1.9,6.7c24.26,10.53,48.64,21.81,72.53,33.55l-75.21,32.78a4.49,4.49,0,0,0-1.69,7l46.84,57.58-76-6.3a4.51,4.51,0,0,0-4.83,5.09Zm-3.19-101.47A101.81,101.81,0,1,1,460.76,119.9,101.81,101.81,0,0,1,562.57,221.71ZM460.82,91.6A130.08,130.08,0,0,0,330.89,221.53c0,71.64,58.29,129.93,129.93,129.93a129.93,129.93,0,0,0,0-259.86ZM581.93,221.53A121.11,121.11,0,1,1,460.82,100.42,121.24,121.24,0,0,1,581.93,221.53ZM214,331.76a34.64,34.64,0,0,0-8.35,5.9Q200,342.8,194.25,348c-12.37,11.3-25.16,23-38.19,33.75-17.93,14.82-32.34,27.72-40.84,47.16-.08.17-.15.35-.23.52-2.5,5.82-4.84,11.71-7.11,17.4-5.23,13.13-10.17,25.53-17.06,37.82a2.7,2.7,0,0,1-.65.46c-4,2.44-7.72,5.18-10.54,7.3C64.59,503.74,61,524,57.91,541.86c-.41,2.32-.8,4.59-1.22,6.77l-1.13,6c-4,21.32-8.12,43.37-16.29,63.74-1.57,3.91-3.2,7.8-4.82,11.68-6.6,15.74-13.42,32-15.81,49.63-1.57,11.59-2.93,21.24-5,31.11C11.4,722,7.6,733.74,1.74,747.83a25.63,25.63,0,0,0-1.67,5.35,4.8,4.8,0,0,0,3.73,5.56,4.57,4.57,0,0,0,5.36-3.88,21.92,21.92,0,0,1,1.39-4.05,233.77,233.77,0,0,0,15.57-57.52c2.65-20,6.89-36.27,13.35-51.09,8.55-19.63,14.12-39.55,20-61.76,3.31-14.18,6.05-28.66,8.3-41a120,120,0,0,1,8.72-28.69,29.34,29.34,0,0,1,7.9-10.42,133.16,133.16,0,0,0-6.55,28.42c-.47,4.11,1.77,5.86,4,6.12,1,.12,4.45.13,5.12-4.91a131.3,131.3,0,0,1,3.21-17.14c2.94-10.73,8.26-21.14,13.41-31.19,2-3.87,4-7.86,5.91-11.82a222.33,222.33,0,0,0,8.36-21.29c2.87-8.12,5.83-16.53,9.9-24.29a74.37,74.37,0,0,1,16.38-21c4.56-4.09,9.5-7.92,14.29-11.62,2.84-2.2,5.68-4.4,8.47-6.67,8.7-7.08,17-14.8,25.05-22.27,3.65-3.39,7.29-6.77,11-10.1,1.18-1.07,2.34-2.17,3.5-3.26a74.62,74.62,0,0,1,10.29-8.62c.89-.58,2.1-1.38,2.63-1.09a5.48,5.48,0,0,1,.12,1.94q0,.43,0,.84c-.06,5-2,9.66-4.09,14-8.42,17.4-20.19,30.95-32.65,45.3-4.49,5.16-9.12,10.51-13.59,16-4.71,5.85-10.34,13.86-12,24.05a164.65,164.65,0,0,1-5.92,24.39,107.1,107.1,0,0,0-5,39.61c.54,9.88.77,21.37-1.33,33.07l-1.16-3c-1.29-3.34-3.82-3.95-5.76-3.41-2.12.59-3.86,2.69-3,6.07a29.13,29.13,0,0,0,.94,2.86,103.64,103.64,0,0,0,9,18.2c5.91,9.48,12.59,16.53,20.33,21.42l-.18,0a52.82,52.82,0,0,1-9,1.51c-2.33.11-4.74.23-6.86-.68a5.53,5.53,0,0,0-4.45-.26,4.29,4.29,0,0,0-2.33,2.56,4.47,4.47,0,0,0,.35,3.92,5.93,5.93,0,0,0,3.1,2.41,18.26,18.26,0,0,0,5.42,1.19,61.08,61.08,0,0,0,26-4.7c18.46-7.38,32.49-21.52,46.06-35.19,2.24-2.26,4.48-4.51,6.72-6.72,11.1-10.94,24.94-22.66,43.36-26.68,3.35-.74,7.88-.68,10.46,1.09a3.83,3.83,0,0,1,1.74,2.69c.21,1.35-.3,3-1.55,5-3.42,5.47-8.72,9.32-14.33,13.39-1.88,1.36-3.76,2.73-5.56,4.16-12.52,9.9-21.68,23-30.53,35.66-3.54,5.06-7.19,10.29-11,15.2-8.89,11.49-20.3,20.92-31.34,30-4.73,3.91-9.61,8-14.26,12.1C170,644,163.63,651.38,157.5,658.53c-8.57,10-17.43,20.35-28.25,27.68A67.26,67.26,0,0,1,82.65,697c-2.67-.38-6.36.72-7.6,3a3.5,3.5,0,0,0,.48,4,5.18,5.18,0,0,0,3.21,1.6,74,74,0,0,0,27.94-.09C93.21,729.91,88.85,758.65,85,784.19c-.29,1.92.06,4.49,1.5,5.89a3.56,3.56,0,0,0,3.21,1c1.86-.34,3.08-1.86,3.62-4.52l6.91-33.92c4.31-21.15,9-39.64,22.74-51.65a88.77,88.77,0,0,1,11.08-7.82,112.53,112.53,0,0,0,9.36-6.35c7.58-5.9,13.52-13.52,19.26-20.89,3.59-4.6,7.3-9.35,11.34-13.58,6.41-6.73,14-12.51,21.39-18.1a214.66,214.66,0,0,0,19-15.63c9.62-9.26,17.47-20.34,25.05-31.05,9-12.71,18.3-25.85,30.46-35.64,1.87-1.5,3.86-3,5.78-4.38,5.19-3.83,10.56-7.79,14.58-13.12a25.29,25.29,0,0,0,3-5,15.38,15.38,0,0,0,1-10.92c-1.59-4.93-6.43-8.78-12.33-9.82-5.51-1-10.93.42-15,1.73-21.4,6.85-37,21.89-52,36.43-11,10.66-22.46,21.68-36.2,29.38l-.47.29a23.65,23.65,0,0,1-7-2.56c-7.69-4.81-14.14-11.79-19.73-21.34a.6.6,0,0,1-.08-.6l.13-.5a85.51,85.51,0,0,0,1.81-8.48,4.27,4.27,0,0,1,1.65-3l3.49-2.85c2.69-2.21,5.48-4.5,8.3-6.61a28.14,28.14,0,0,1,10.71-5.08A116.92,116.92,0,0,0,195,519.38c3-1.22,6-2.47,9.07-3.55a113.52,113.52,0,0,1,17.86-4.27l3-.54c5.35-.93,10.88-1.88,15.24-6.23a10.75,10.75,0,0,0,2.13-13.24,9.53,9.53,0,0,0-1.83-2.42c2-.24,4-.49,5.92-.8A72.87,72.87,0,0,0,279,474.61a18,18,0,0,0,6.63-9.05,7.36,7.36,0,0,0-2.79-8.78,15.23,15.23,0,0,0-8.31-2.86c-8.44-.69-16.93-.21-25.15.25-2.32.13-4.64.26-7,.36-5,.23-10,.61-14.9,1a53.15,53.15,0,0,1,15.25-6.22,100.3,100.3,0,0,0,35.63-17.13,26.86,26.86,0,0,0,8.18-9.06c2.57-5.05,2.67-9.09.24-12-5.66-6.85-23-3.67-28.58-2L251.68,411a232.71,232.71,0,0,1-25.33,6.63c-16,2.93-29.59,8.11-45.65,14.56a77.61,77.61,0,0,1-12.41,4,31.6,31.6,0,0,1,2.08-4.26c6.06-10.12,14.19-19,22-27.63,8.07-8.83,16.42-18,22.76-28.61l1.41-2.34c6.25-10.36,14.81-24.56,11.26-36.94a8,8,0,0,0-8.53-6.11A13.69,13.69,0,0,0,214,331.76Zm58.16,83.66a13.79,13.79,0,0,1,4.61.08c1,.18,1.75.52,2,.94a3.52,3.52,0,0,1-.41,2.67,18.1,18.1,0,0,1-4.45,4.9A91,91,0,0,1,239.3,440.7,64.67,64.67,0,0,0,220,449.17c-3.7,2.36-7.84,4.71-12.66,7.17a58.17,58.17,0,0,1-13.2,4.67c-10.16,2.41-19.08,7.46-27.26,15.44A103.47,103.47,0,0,1,156,485.53a99.56,99.56,0,0,1,2.59-11.4l.2-.74c.65-2.44,1.36-4.87,2.06-7.3a147.07,147.07,0,0,0,4.79-20c10.19-1.49,19.24-5.36,29.16-9.89a104.35,104.35,0,0,1,28.8-8.7c12.61-1.81,24.64-5.46,34.74-8.8A88.73,88.73,0,0,1,272.14,415.42Zm-66.52,82.79c1.23-.29,2.46-.58,3.69-.84,2.66-.58,5.24-1.4,7.73-2.2l2.51-.79a19.5,19.5,0,0,1,12.35.24c1.78.82,2.48,1.67,2.55,2.18s-.45,1.27-1.36,2h0a13.87,13.87,0,0,1-5.67,2.65,114.8,114.8,0,0,1-11.59,2,74.22,74.22,0,0,0-23.29,7.07,72.62,72.62,0,0,1-16.41,5.82c-6.3,1.39-12,4.33-18,9.24l-2.62,2.2c.1-1.72.19-3.48.21-5.24a1.9,1.9,0,0,1,.08-.67,1.12,1.12,0,0,1,.41-.21c9.48-3.51,17.74-9,25.39-14.25a49.2,49.2,0,0,1,18.52-8C201.94,499.07,203.78,498.64,205.62,498.21Zm-31.18,2.88A99.68,99.68,0,0,1,155.6,512c-.25-5.57-.34-10.19-.28-14.51,0-.19,0-.31,0-.35a105,105,0,0,0,18-14.15c6.5-6.32,14.25-10.62,24.39-13.53a123.8,123.8,0,0,1,25.84-4.33l6.66-.47c11.63-.82,23.66-1.68,35.5-1.84,2.45,0,4.87.08,7.55.21a12,12,0,0,1,3.27.67,14.8,14.8,0,0,1-4.84,5c-10.14,6.55-20,10.18-30.26,11.1a88.51,88.51,0,0,0-25.48,6.1c-4.93,2-10.33,3.07-15.55,4.09l-.81.16A64.5,64.5,0,0,0,174.44,501.09Zm626.87-12.84c-.66-5.55-.27-11.13-.49-16.69-.85-20.57,1-41.09,2.47-61.59.45-6.46,1.6-12.55-1.25-18.59-4.52-9.59-14-15.91-21.95-22.4-13.61-11.06-26.2-23.77-40.73-33.61-7.33-5-15.44-8.7-22.54-14a31.11,31.11,0,0,0-8.34-4.85,6.55,6.55,0,0,0-8.7,4.92,12.91,12.91,0,0,0-.11,4c1.3,12.17,8.11,23.39,15.19,32.86a151.65,151.65,0,0,0,23.73,25.61c6.39,5.37,15.26,12.35,16.31,21.28.89,7.53-1.36,15.69-2.39,23.16-1.61,11.7-1.78,23.76-4.58,35.27-1.86,7.67-5.26,14.62-6,22.59a133.66,133.66,0,0,1-2.51,16.3,154.29,154.29,0,0,1-5.6,19.45c-1.42,4-3,7.92-4.67,11.81-.16.37-.56,1.06-.85,1s-.37-.58-.43-1a26.81,26.81,0,0,0-.77-3.71c-1-3.54-1.74-7.13-2.55-10.71-5.28-23.52-5.26-47.79-13.08-70.76-3.5-10.28-7.65-20.93-17.45-26.74-5.27-3.11-10.67-4.14-16.54-2.1a9.84,9.84,0,0,0-4.62,3.2,24.23,24.23,0,0,0-4.85,12c-2.15,15.15,1,30.41,2.05,45.53a362.18,362.18,0,0,1,.3,46.24c-1.41,23.19-3.17,46.82,3.27,69.47a187,187,0,0,1,6.22,29.32c2.83,24.11,15.8,44.94,28.86,64.8,14.06,21.38,27.47,43,34.68,67.74,6.23,21.42,46.1.06,57.24-6,19.78-10.72,37.72-26.12,47.71-46.62a4.61,4.61,0,0,0,0-4.47c-11.23-22.82-8.21-48.9-2.74-72.84,6.4-28.07,14.69-55.24,17.74-84,1.74-16.39.27-33.19-8.82-47.35-10.28-16-18.32-33.22-25.47-50.62-1.5-3.63-3.16-7.2-5.94-10.09a12.69,12.69,0,0,0-5.65-3.69c-.9-.26-1.4-.23-1.15,1,1.21,6.08,2.22,12.21,3.52,18.27,2.48,11.52,5.56,22.89,8.46,34.31a5.31,5.31,0,0,1,.18,1.48,1,1,0,0,1-.82.92.9.9,0,0,1-1.08-.57,7.07,7.07,0,0,1-.42-1.25c-2.49-9.88-5.15-19.72-7.41-29.65-2.16-9.49-3.55-19.12-5.91-28.57-1.47-5.92-2.78-12.22-6.47-17.21-.19-.25-.48-.68-.64-.64-.44.1-.34.58-.37.94s-.08.63-.08.95c-.26,12.49-1.86,24.95-2.36,37.44a334.51,334.51,0,0,0,.57,38.39c.08.94.23,2.14-1.15,2.15S801.41,489.08,801.31,488.25Zm20.8,9.36c1-.68,1.48.13,2,.82.14.21.27.43.42.63,7,9.44,8.62,20,6.61,31.33-.86,4.85-2.08,9.64-2.38,14.59a5.85,5.85,0,0,1-.12.73c-.25.5-.58.87-1.18.77a1.12,1.12,0,0,1-.94-1.4c.26-2.2.47-4.41.85-6.58.78-4.35,1.55-8.7,2.09-13.09,1.15-9.29-1.42-17.5-6.71-25-.18-.25-.34-.52-.52-.78C821.72,498.94,821.29,498.2,822.11,497.61Zm-87.89-78.1a15.21,15.21,0,0,0-8.06.14,72.09,72.09,0,0,1-24.31,1.71,29.88,29.88,0,0,1-14-4.88,13.38,13.38,0,0,1-5.56-14.63c.11-.49.28-1,.32-1.1a10.55,10.55,0,0,1,5.2-5A53.48,53.48,0,0,1,700,391.63c8-1.78,15.9-3.7,23.87-5.43,4.14-.89,8.32-.17,12.48.23a3.71,3.71,0,0,1,2.34,1.15c3.55,3.69,7.31,7.17,10.74,11a13,13,0,0,1,3.41,9.95c-.33,5-.91,9.94-1.63,14.89-.16,1.16-.76,1.1-1.58.86-3-.86-6-1.54-8.9-2.69C738.61,420.72,736.4,420.19,734.22,419.51Zm5.37,4a79.52,79.52,0,0,0,10.35,3.12c.85.19.62.81.52,1.35-.94,5.49-1.69,11-2.14,16.56-.4,4.91-1.18,9.79-1.24,14.73a2.18,2.18,0,0,1-1.22,2.12,136.64,136.64,0,0,1-24.29,11.2c-.81.28-1.6.79-1.8-.79-1-7.9-3.71-15.36-5.94-23-.8-2.73-1.54-5.48-2.46-8.18-.34-1-.12-1.41.79-1.86a145.58,145.58,0,0,0,12.92-7.23c3.91-2.47,7.73-5.07,11.54-7.69A2.86,2.86,0,0,1,739.59,423.5Zm-16,70.25c4.58-1.63,9-3.6,13.78-4.84,1.46-.38,1.65-.07,1.55,1.35-.38,5.64-1.79,11.1-2.64,16.66a82.73,82.73,0,0,1-4.11,15.38,5.86,5.86,0,0,1-1.13,2,1.91,1.91,0,0,1-3.3-1,251.37,251.37,0,0,1-4.89-27.64C722.77,494.82,722.53,494.13,723.6,493.75Z"/></svg>