<svg id="Layer_1" data-name="Layer 1" xmlns="http://www.w3.org/2000/svg" viewBox="0 0 803.29 864"><title>Untitled-28</title><path d="M802.41,634.24a3.41,3.41,0,0,0-4.63-.42C623.16,769,378,739,239.55,565.43,105.34,392.05,135.18,141.14,306.07,6.1A3.42,3.42,0,0,0,302.23.47a405.76,405.76,0,0,0-44.39,30C170,98.45,114,195.55,100.29,303.86s16.14,216,84.09,303.53c65.75,84.68,165,141,272.28,154.41a411.08,411.08,0,0,0,51.1,3.2c90.39,0,178-30.08,251.16-87a414.36,414.36,0,0,0,43.41-39.13A3.41,3.41,0,0,0,802.41,634.24Z"/><path d="M83.35,518.7c-10.64-11.58-26-13.49-39.24-4.9A31.12,31.12,0,0,0,37,558.86c6.29,7.71,14.58,11.7,23.3,11.7A32.34,32.34,0,0,0,77,565.61a29.42,29.42,0,0,0,13.24-19.48,33.13,33.13,0,0,0-5.74-26ZM68.15,551Z"/><path d="M180,48.82A29.68,29.68,0,0,0,172.11,26c-11.33-11.94-27.34-13.11-40.77-3A30.07,30.07,0,0,0,119.48,43.5a30.75,30.75,0,0,0,6.6,22.91h0a30,30,0,0,0,41.74,4.94A31.51,31.51,0,0,0,180,48.82Z"/><path d="M228.43,717.56a31.42,31.42,0,0,0-21.58-12.47,29.44,29.44,0,0,0-22.38,6.79c-12.75,10.69-14.89,26.65-5.45,40.65A29.71,29.71,0,0,0,200,765.13a31.79,31.79,0,0,0,4.12.27,29.47,29.47,0,0,0,19.47-7.13c12.11-10.6,14.33-26.15,5.65-39.61Z"/><path d="M687,785.54,685.87,784a30.63,30.63,0,0,0-54.27,17.27,29.4,29.4,0,0,0,8.32,22.43c6.32,6.44,13.93,9.68,21.62,9.68,6.92,0,13.9-2.63,20-7.94C693.66,815,695.86,798.91,687,785.54Z"/><path d="M47.85,297.77l1.34-1A31.84,31.84,0,0,0,60.6,273.91a29.08,29.08,0,0,0-8.3-21.84c-11.5-11.55-27.43-12.74-40.57-3A29.31,29.31,0,0,0,.13,270a30.4,30.4,0,0,0,8,23.54c6.2,6.64,13.94,10,21.91,10A31.48,31.48,0,0,0,47.85,297.77Z"/><path d="M387.23,810.37c-12.94,10.79-14.9,28.28-4.66,41.59,6.08,7.9,14.55,12,23.31,12a30.3,30.3,0,0,0,16.76-5.25l.95-.68a32,32,0,0,0,12.62-22.39,28.75,28.75,0,0,0-7.44-22.16C417.23,800.87,400.14,799.58,387.23,810.37Z"/></svg>