<svg id="Layer_1" data-name="Layer 1" xmlns="http://www.w3.org/2000/svg" viewBox="0 0 814.82 864"><title>Untitled-28</title><path d="M12.25,532.75C68.14,766.11,301.6,907.48,533.08,851.94c124.51-29.57,225.29-111.75,281.74-219A391.78,391.78,0,0,1,611.93,755c-213.12,49.46-421.68-80.47-471.65-290.29C91.2,258.58,211.08,61.13,402.25,0a433.38,433.38,0,0,0-67,10.33C96.27,66.22-43.6,299.6,12.25,532.75Z"/><path d="M290.57,526.57l-.47-1.41c-5-14.81-16.92-22.33-31.82-20.1a27.8,27.8,0,0,0-18.7,11.84,28,28,0,0,0,9,40.33A28.06,28.06,0,0,0,262.68,561a27.15,27.15,0,0,0,8-1.2h0c14.37-4.42,21.85-16.3,20-31.78Zm-24,19.76Z"/><path d="M511.66,673.43a29.6,29.6,0,0,0-14.34-18.6,26.91,26.91,0,0,0-21.53-1.9h0c-14.32,4.8-21.74,17.69-18.91,32.84a27,27,0,0,0,13,18.15,28.52,28.52,0,0,0,14.47,4,27.12,27.12,0,0,0,8.54-1.38c14.26-4.75,21.55-17,19-31.88Z"/><path d="M763.29,592.41a28.36,28.36,0,0,0-12.89-18.23,27.6,27.6,0,0,0-21.84-3.12h0c-14.81,4-22.9,16-21.13,31.27a27.25,27.25,0,0,0,11,18.63,29.06,29.06,0,0,0,17.21,5.71,28.11,28.11,0,0,0,5.09-.47,28.71,28.71,0,0,0,22.52-33.79Z"/><path d="M228.07,299.68a31,31,0,0,0,8.21-1.14h0c14.73-4.05,22.35-16.45,19.89-32.38l-.65-2.59c-5.2-14.57-17.55-22-32.28-19.56a27.73,27.73,0,0,0-20.84,36.54C207,292.74,216.64,299.68,228.07,299.68Z"/><path d="M451.33,73.11l-.62-1.67c-5.5-15-18-22.31-32.71-19.13h0c-15.31,3.33-24.05,16.09-21.75,31.75a27.71,27.71,0,0,0,27.25,23.49,26.44,26.44,0,0,0,7.82-1.18c14.22-4.38,21.77-16.15,20.2-31.49Z"/></svg>