<svg id="Layer_1" data-name="Layer 1" xmlns="http://www.w3.org/2000/svg" viewBox="0 0 759.83 864"><title>Untitled-28</title><path d="M54.92,443c-1,177.8,142.62,321.17,320.08,321.43,172.45,1.7,318.55-141.1,320.59-313.34,2.13-179.73-139.24-326.72-317.18-327.34C198.47,123.07,55.92,264.59,54.92,443Z"/><path d="M374.77,49.84a25.12,25.12,0,0,0,15.13-5h0A24.93,24.93,0,0,0,377.09.09,24.7,24.7,0,0,0,358.64,6.2C348.73,15,347,27.92,354.26,39.06a24.11,24.11,0,0,0,16.05,10.39A25.76,25.76,0,0,0,374.77,49.84Z"/><path d="M25.14,257.78c.54,0,1.09,0,1.64,0a24.07,24.07,0,0,0,17-8.71,25.37,25.37,0,0,0,5.79-19.26A24.93,24.93,0,0,0,4.44,218.48a24.62,24.62,0,0,0-3.94,19C3.08,250,12.66,257.78,25.14,257.78Z"/><path d="M31.43,615.14A24.74,24.74,0,0,0,4.88,639.23a24.67,24.67,0,0,0,7.24,18A25,25,0,0,0,29.81,665a25.71,25.71,0,0,0,15.37-5.36A24.06,24.06,0,0,0,54.57,643a25.34,25.34,0,0,0-5.83-19.27A25,25,0,0,0,31.43,615.14Z"/><path d="M399.92,819.23a25.28,25.28,0,0,0-19.61-4.59,24.93,24.93,0,0,0-8.46,45.76,24.74,24.74,0,0,0,12.84,3.6,24.43,24.43,0,0,0,6.4-.86c12.81-3.48,20.09-14.26,18.55-27.45A24.06,24.06,0,0,0,399.92,819.23Z"/><path d="M744.36,608.08a24,24,0,0,0-19.12.21,25,25,0,0,0,2,46.69,24.72,24.72,0,0,0,31.57-17.09C762.25,625.06,756.56,613.36,744.36,608.08Z"/><path d="M728.36,248.89c.55,0,1.1.05,1.65.05a24.71,24.71,0,0,0,24.9-24.15,24.63,24.63,0,0,0-7.24-18c-9.41-9.35-22.4-10.25-33.06-2.35a24.13,24.13,0,0,0-9.39,16.66A25.41,25.41,0,0,0,711,240.35,25,25,0,0,0,728.36,248.89Z"/></svg>