<svg id="Layer_1" data-name="Layer 1" xmlns="http://www.w3.org/2000/svg" viewBox="0 0 864 710.61"><title>Untitled-28</title><path d="M37.4,581.18C22.05,601,8.1,621.91,2,646.81c-7.46,30.41,6.35,53.07,36.58,60.6a108.11,108.11,0,0,0,28.16,3.18c36.93-.67,72.36-9.33,107.25-20.5a26.22,26.22,0,0,0,18.39,7.52c12.81-.15,23.6-10.18,25.32-22.65,50.09-18.55,98.52-40.68,145.85-65.12a343.55,343.55,0,0,0,475.78-51,348.57,348.57,0,0,1-71.48,5.84A345,345,0,0,1,562.76,492.3c56.17-37.5,110.26-78,161.6-122.24,39-33.65,76.15-69.28,106.84-110.94,14.9-20.22,28.2-41.46,32.14-67.06,3.58-23.21-7.61-42.36-29.61-50.56-11.58-4.32-23.63-5.7-35.89-5.68A243.2,243.2,0,0,0,767,138a29.42,29.42,0,0,0-23.06-11.19c-12.85.07-24.17,9.53-27.42,21.71-6.41,1.76-12.79,3.58-19.16,5.51-76.08,23-147.74,56.46-217.75,93.57q-22.8,12.09-45.24,24.73a349,349,0,0,1-3.7-52.88C431.17,133.91,461,58.32,509.55,0c-159,30.47-278.65,170-279.29,338.37a341.6,341.6,0,0,0,5.49,61.75q-35.64,26.26-70,54.34C119,492.7,74.48,533.23,37.4,581.18ZM495.29,267.94c69.73-37,141.33-69.59,217.2-92.06q4.51-1.33,9-2.59a28.58,28.58,0,0,0,22.87,11.53,29.33,29.33,0,0,0,28.11-22.06A232.85,232.85,0,0,1,800.17,161c8.84,0,17.55,1.19,25.8,4.61,8.8,3.66,13,10.11,12.51,19.87-.57,11.17-4.76,21.09-9.91,30.63-16.42,30.36-38.92,56.08-62.89,80.53-52.77,53.83-111.54,100.55-172.91,144q-24.93,17.67-50.3,34.58A340.71,340.71,0,0,1,439.35,298.65Q467.08,282.93,495.29,267.94ZM342.36,592.15q-49.86,25-101.59,46.59-16,6.63-32.06,12.75A26.09,26.09,0,0,0,192,645c-12.29-.17-23.11,9.15-25.66,21.08a522.09,522.09,0,0,1-62.7,15.59c-11.67,2.1-23.38,3.74-34.48,3.4-9.61,0-18.4-.05-26.93-2.72-14.26-4.47-19.29-13-16-28,3.56-16.14,11.68-30.21,20.91-43.65C73,573.1,105,541,138.91,510.78q49.77-44.23,102.78-83.73A342.1,342.1,0,0,0,342.36,592.15Z"/></svg>