  0
SECTION
  2
HEADER
  9
$ACADVER
  1
AC1024
  9
$ACADMAINTVER
 70
     6
  9
$DWGCODEPAGE
  3
ANSI_1251
  9
$INSBASE
 10
0.0
 20
0.0
 30
0.0
  9
$EXTMIN
 10
1.000000000000000E+20
 20
1.000000000000000E+20
 30
1.000000000000000E+20
  9
$EXTMAX
 10
-1.000000000000000E+20
 20
-1.000000000000000E+20
 30
-1.000000000000000E+20
  9
$LIMMIN
 10
0.0
 20
0.0
  9
$LIMMAX
 10
12.0
 20
9.0
  9
$ORTHOMODE
 70
     0
  9
$REGENMODE
 70
     1
  9
$FILLMODE
 70
     1
  9
$QTEXTMODE
 70
     0
  9
$MIRRTEXT
 70
     1
  9
$LTSCALE
 40
1.0
  9
$ATTMODE
 70
     1
  9
$TEXTSIZE
 40
0.2
  9
$TRACEWID
 40
0.05
  9
$TEXTSTYLE
  7
Standard
  9
$CLAYER
  8
0
  9
$CELTYPE
  6
ByLayer
  9
$CECOLOR
 62
   256
  9
$CELTSCALE
 40
1.0
  9
$DISPSILH
 70
     0
  9
$DIMSCALE
 40
1.0
  9
$DIMASZ
 40
0.18
  9
$DIMEXO
 40
0.0625
  9
$DIMDLI
 40
0.38
  9
$DIMRND
 40
0.0
  9
$DIMDLE
 40
0.0
  9
$DIMEXE
 40
0.18
  9
$DIMTP
 40
0.0
  9
$DIMTM
 40
0.0
  9
$DIMTXT
 40
0.18
  9
$DIMCEN
 40
0.09
  9
$DIMTSZ
 40
0.0
  9
$DIMTOL
 70
     0
  9
$DIMLIM
 70
     0
  9
$DIMTIH
 70
     1
  9
$DIMTOH
 70
     1
  9
$DIMSE1
 70
     0
  9
$DIMSE2
 70
     0
  9
$DIMTAD
 70
     0
  9
$DIMZIN
 70
     0
  9
$DIMBLK
  1

  9
$DIMASO
 70
     1
  9
$DIMSHO
 70
     1
  9
$DIMPOST
  1

  9
$DIMAPOST
  1

  9
$DIMALT
 70
     0
  9
$DIMALTD
 70
     2
  9
$DIMALTF
 40
25.4
  9
$DIMLFAC
 40
1.0
  9
$DIMTOFL
 70
     0
  9
$DIMTVP
 40
0.0
  9
$DIMTIX
 70
     0
  9
$DIMSOXD
 70
     0
  9
$DIMSAH
 70
     0
  9
$DIMBLK1
  1

  9
$DIMBLK2
  1

  9
$DIMSTYLE
  2
Standard
  9
$DIMCLRD
 70
     0
  9
$DIMCLRE
 70
     0
  9
$DIMCLRT
 70
     0
  9
$DIMTFAC
 40
1.0
  9
$DIMGAP
 40
0.09
  9
$DIMJUST
 70
     0
  9
$DIMSD1
 70
     0
  9
$DIMSD2
 70
     0
  9
$DIMTOLJ
 70
     1
  9
$DIMTZIN
 70
     0
  9
$DIMALTZ
 70
     0
  9
$DIMALTTZ
 70
     0
  9
$DIMUPT
 70
     0
  9
$DIMDEC
 70
     4
  9
$DIMTDEC
 70
     4
  9
$DIMALTU
 70
     2
  9
$DIMALTTD
 70
     2
  9
$DIMTXSTY
  7
Standard
  9
$DIMAUNIT
 70
     0
  9
$DIMADEC
 70
     0
  9
$DIMALTRND
 40
0.0
  9
$DIMAZIN
 70
     0
  9
$DIMDSEP
 70
    46
  9
$DIMATFIT
 70
     3
  9
$DIMFRAC
 70
     0
  9
$DIMLDRBLK
  1

  9
$DIMLUNIT
 70
     2
  9
$DIMLWD
 70
    -2
  9
$DIMLWE
 70
    -2
  9
$DIMTMOVE
 70
     0
  9
$DIMFXL
 40
1.0
  9
$DIMFXLON
 70
     0
  9
$DIMJOGANG
 40
0.7853981633974483
  9
$DIMTFILL
 70
     0
  9
$DIMTFILLCLR
 70
     0
  9
$DIMARCSYM
 70
     0
  9
$DIMLTYPE
  6

  9
$DIMLTEX1
  6

  9
$DIMLTEX2
  6

  9
$DIMTXTDIRECTION
 70
     0
  9
$LUNITS
 70
     2
  9
$LUPREC
 70
     4
  9
$SKETCHINC
 40
0.1
  9
$FILLETRAD
 40
0.5
  9
$AUNITS
 70
     0
  9
$AUPREC
 70
     0
  9
$MENU
  1
.
  9
$ELEVATION
 40
0.0
  9
$PELEVATION
 40
0.0
  9
$THICKNESS
 40
0.0
  9
$LIMCHECK
 70
     0
  9
$CHAMFERA
 40
0.5
  9
$CHAMFERB
 40
0.5
  9
$CHAMFERC
 40
1.0
  9
$CHAMFERD
 40
0.0
  9
$SKPOLY
 70
     0
  9
$TDCREATE
 40
2459337.684854907
  9
$TDUCREATE
 40
2459337.559854907
  9
$TDUPDATE
 40
2459337.684854907
  9
$TDUUPDATE
 40
2459337.559854907
  9
$TDINDWG
 40
0.0000000116
  9
$TDUSRTIMER
 40
0.0000000116
  9
$USRTIMER
 70
     1
  9
$ANGBASE
 50
0.0
  9
$ANGDIR
 70
     0
  9
$PDMODE
 70
     0
  9
$PDSIZE
 40
0.0
  9
$PLINEWID
 40
0.0
  9
$SPLFRAME
 70
     0
  9
$SPLINETYPE
 70
     6
  9
$SPLINESEGS
 70
     8
  9
$HANDSEED
  5
65
  9
$SURFTAB1
 70
     6
  9
$SURFTAB2
 70
     6
  9
$SURFTYPE
 70
     6
  9
$SURFU
 70
     6
  9
$SURFV
 70
     6
  9
$UCSBASE
  2

  9
$UCSNAME
  2

  9
$UCSORG
 10
0.0
 20
0.0
 30
0.0
  9
$UCSXDIR
 10
1.0
 20
0.0
 30
0.0
  9
$UCSYDIR
 10
0.0
 20
1.0
 30
0.0
  9
$UCSORTHOREF
  2

  9
$UCSORTHOVIEW
 70
     0
  9
$UCSORGTOP
 10
0.0
 20
0.0
 30
0.0
  9
$UCSORGBOTTOM
 10
0.0
 20
0.0
 30
0.0
  9
$UCSORGLEFT
 10
0.0
 20
0.0
 30
0.0
  9
$UCSORGRIGHT
 10
0.0
 20
0.0
 30
0.0
  9
$UCSORGFRONT
 10
0.0
 20
0.0
 30
0.0
  9
$UCSORGBACK
 10
0.0
 20
0.0
 30
0.0
  9
$PUCSBASE
  2

  9
$PUCSNAME
  2

  9
$PUCSORG
 10
0.0
 20
0.0
 30
0.0
  9
$PUCSXDIR
 10
1.0
 20
0.0
 30
0.0
  9
$PUCSYDIR
 10
0.0
 20
1.0
 30
0.0
  9
$PUCSORTHOREF
  2

  9
$PUCSORTHOVIEW
 70
     0
  9
$PUCSORGTOP
 10
0.0
 20
0.0
 30
0.0
  9
$PUCSORGBOTTOM
 10
0.0
 20
0.0
 30
0.0
  9
$PUCSORGLEFT
 10
0.0
 20
0.0
 30
0.0
  9
$PUCSORGRIGHT
 10
0.0
 20
0.0
 30
0.0
  9
$PUCSORGFRONT
 10
0.0
 20
0.0
 30
0.0
  9
$PUCSORGBACK
 10
0.0
 20
0.0
 30
0.0
  9
$USERI1
 70
     0
  9
$USERI2
 70
     0
  9
$USERI3
 70
     0
  9
$USERI4
 70
     0
  9
$USERI5
 70
     0
  9
$USERR1
 40
0.0
  9
$USERR2
 40
0.0
  9
$USERR3
 40
0.0
  9
$USERR4
 40
0.0
  9
$USERR5
 40
0.0
  9
$WORLDVIEW
 70
     1
  9
$SHADEDGE
 70
     3
  9
$SHADEDIF
 70
    70
  9
$TILEMODE
 70
     1
  9
$MAXACTVP
 70
    64
  9
$PINSBASE
 10
0.0
 20
0.0
 30
0.0
  9
$PLIMCHECK
 70
     0
  9
$PEXTMIN
 10
1.000000000000000E+20
 20
1.000000000000000E+20
 30
1.000000000000000E+20
  9
$PEXTMAX
 10
-1.000000000000000E+20
 20
-1.000000000000000E+20
 30
-1.000000000000000E+20
  9
$PLIMMIN
 10
0.0
 20
0.0
  9
$PLIMMAX
 10
12.0
 20
9.0
  9
$UNITMODE
 70
     0
  9
$VISRETAIN
 70
     1
  9
$PLINEGEN
 70
     0
  9
$PSLTSCALE
 70
     1
  9
$TREEDEPTH
 70
  3020
  9
$CMLSTYLE
  2
Standard
  9
$CMLJUST
 70
     0
  9
$CMLSCALE
 40
1.0
  9
$PROXYGRAPHICS
 70
     1
  9
$MEASUREMENT
 70
     0
  9
$CELWEIGHT
370
    -1
  9
$ENDCAPS
280
     0
  9
$JOINSTYLE
280
     0
  9
$LWDISPLAY
290
     1
  9
$INSUNITS
 70
     1
  9
$HYPERLINKBASE
  1

  9
$STYLESHEET
  1

  9
$XEDIT
290
     1
  9
$CEPSNTYPE
380
     0
  9
$PSTYLEMODE
290
     1
  9
$FINGERPRINTGUID
  2
{6461BB49-85B1-4D8A-90CC-A57889BD1AC8}
  9
$VERSIONGUID
  2
{FAEB1C32-E019-11D5-929B-00C0DF256EC4}
  9
$EXTNAMES
290
     1
  9
$PSVPSCALE
 40
0.0
  9
$OLESTARTUP
290
     0
  9
$SORTENTS
280
   127
  9
$INDEXCTL
280
     0
  9
$HIDETEXT
280
     1
  9
$XCLIPFRAME
280
     2
  9
$HALOGAP
280
     0
  9
$OBSCOLOR
 70
   257
  9
$OBSLTYPE
280
     0
  9
$INTERSECTIONDISPLAY
280
     0
  9
$INTERSECTIONCOLOR
 70
   257
  9
$DIMASSOC
280
     2
  9
$PROJECTNAME
  1

  9
$CAMERADISPLAY
290
     0
  9
$LENSLENGTH
 40
50.0
  9
$CAMERAHEIGHT
 40
0.0
  9
$STEPSPERSEC
 40
2.0
  9
$STEPSIZE
 40
6.0
  9
$3DDWFPREC
 40
2.0
  9
$PSOLWIDTH
 40
0.25
  9
$PSOLHEIGHT
 40
4.0
  9
$LOFTANG1
 40
1.570796326794897
  9
$LOFTANG2
 40
1.570796326794897
  9
$LOFTMAG1
 40
0.0
  9
$LOFTMAG2
 40
0.0
  9
$LOFTPARAM
 70
     7
  9
$LOFTNORMALS
280
     1
  9
$LATITUDE
 40
37.795
  9
$LONGITUDE
 40
-122.394
  9
$NORTHDIRECTION
 40
0.0
  9
$TIMEZONE
 70
 -8000
  9
$LIGHTGLYPHDISPLAY
280
     1
  9
$TILEMODELIGHTSYNCH
280
     1
  9
$CMATERIAL
347
3C
  9
$SOLIDHIST
280
     1
  9
$SHOWHIST
280
     1
  9
$DWFFRAME
280
     2
  9
$DGNFRAME
280
     2
  9
$REALWORLDSCALE
290
     1
  9
$INTERFERECOLOR
 62
   256
  9
$CSHADOW
280
     0
  9
$SHADOWPLANELOCATION
 40
0.0
  0
ENDSEC
  0
SECTION
  2
CLASSES
  0
CLASS
  1
ACDBDICTIONARYWDFLT
  2
AcDbDictionaryWithDefault
  3
ObjectDBX Classes
 90
        0
 91
        4
280
     0
281
     0
  0
CLASS
  1
VISUALSTYLE
  2
AcDbVisualStyle
  3
ObjectDBX Classes
 90
     4095
 91
        4
280
     0
281
     0
  0
CLASS
  1
MATERIAL
  2
AcDbMaterial
  3
ObjectDBX Classes
 90
     1153
 91
        4
280
     0
281
     0
  0
CLASS
  1
SUN
  2
AcDbSun
  3
SCENEOE
 90
     1024
 91
        4
280
     0
281
     0
  0
ENDSEC
  0
SECTION
  2
TABLES
  0
TABLE
  2
VPORT
  5
8
330
0
100
AcDbSymbolTable
 70
     1
  0
VPORT
  5
29
330
8
100
AcDbSymbolTableRecord
100
AcDbViewportTableRecord
  2
*Active
 70
     0
 10
0.0
 20
0.0
 11
1.0
 21
1.0
 12
0.0
 22
0.0
 13
0.0
 23
0.0
 14
0.5
 24
0.5
 15
0.5
 25
0.5
 16
0.0
 26
0.0
 36
1.0
 17
30.55195407633924
 27
-5.907102777777784
 37
0.0
 40
12.0
 41
0.5959344756861691
 42
50.0
 43
0.0
 44
0.0
 50
0.0
 51
0.0
 71
     0
 72
   100
 73
     1
 74
     3
 75
     0
 76
     0
 77
     0
 78
     0
281
     0
 65
     1
110
0.0
120
0.0
130
0.0
111
1.0
121
0.0
131
0.0
112
0.0
122
1.0
132
0.0
 79
     0
146
0.0
 60
     3
 61
     5
292
     1
282
     1
141
0.0
142
0.0
 63
   250
361
3F
  0
ENDTAB
  0
TABLE
  2
LTYPE
  5
5
330
0
100
AcDbSymbolTable
 70
     1
  0
LTYPE
  5
14
330
5
100
AcDbSymbolTableRecord
100
AcDbLinetypeTableRecord
  2
ByBlock
 70
     0
  3

 72
    65
 73
     0
 40
0.0
  0
LTYPE
  5
15
330
5
100
AcDbSymbolTableRecord
100
AcDbLinetypeTableRecord
  2
ByLayer
 70
     0
  3

 72
    65
 73
     0
 40
0.0
  0
LTYPE
  5
16
330
5
100
AcDbSymbolTableRecord
100
AcDbLinetypeTableRecord
  2
Continuous
 70
     0
  3
Solid line
 72
    65
 73
     0
 40
0.0
  0
ENDTAB
  0
TABLE
  2
LAYER
  5
2
330
0
100
AcDbSymbolTable
 70
     2
  0
LAYER
  5
10
330
2
100
AcDbSymbolTableRecord
100
AcDbLayerTableRecord
  2
0
 70
     0
 62
     7
  6
Continuous
370
    -3
390
F
347
3E
  0
LAYER
  5
40
330
2
100
AcDbSymbolTableRecord
100
AcDbLayerTableRecord
  2
Layer 1
 70
     0
 62
     7
  6
Continuous
370
    -3
390
F
347
3E
  0
ENDTAB
  0
TABLE
  2
STYLE
  5
3
330
0
100
AcDbSymbolTable
 70
     1
  0
STYLE
  5
11
330
3
100
AcDbSymbolTableRecord
100
AcDbTextStyleTableRecord
  2
Standard
 70
     0
 40
0.0
 41
1.0
 50
0.0
 71
     0
 42
0.2
  3
txt
  4

  0
ENDTAB
  0
TABLE
  2
VIEW
  5
6
330
0
100
AcDbSymbolTable
 70
     0
  0
ENDTAB
  0
TABLE
  2
UCS
  5
7
330
0
100
AcDbSymbolTable
 70
     0
  0
ENDTAB
  0
TABLE
  2
APPID
  5
9
330
0
100
AcDbSymbolTable
 70
     1
  0
APPID
  5
12
330
9
100
AcDbSymbolTableRecord
100
AcDbRegAppTableRecord
  2
ACAD
 70
     0
  0
ENDTAB
  0
TABLE
  2
DIMSTYLE
  5
A
330
0
100
AcDbSymbolTable
 70
     1
100
AcDbDimStyleTable
  0
DIMSTYLE
105
27
330
A
100
AcDbSymbolTableRecord
100
AcDbDimStyleTableRecord
  2
Standard
 70
     0
178
     0
340
11
  0
ENDTAB
  0
TABLE
  2
BLOCK_RECORD
  5
1
330
0
100
AcDbSymbolTable
 70
     1
  0
BLOCK_RECORD
  5
1F
330
1
100
AcDbSymbolTableRecord
100
AcDbBlockTableRecord
  2
*Model_Space
340
22
 70
     0
280
     1
281
     0
  0
BLOCK_RECORD
  5
1B
330
1
100
AcDbSymbolTableRecord
100
AcDbBlockTableRecord
  2
*Paper_Space
340
1E
 70
     0
280
     1
281
     0
  0
BLOCK_RECORD
  5
23
330
1
100
AcDbSymbolTableRecord
100
AcDbBlockTableRecord
  2
*Paper_Space0
340
26
 70
     0
280
     1
281
     0
  0
ENDTAB
  0
ENDSEC
  0
SECTION
  2
BLOCKS
  0
BLOCK
  5
20
330
1F
100
AcDbEntity
  8
0
100
AcDbBlockBegin
  2
*Model_Space
 70
     0
 10
0.0
 20
0.0
 30
0.0
  3
*Model_Space
  1

  0
ENDBLK
  5
21
330
1F
100
AcDbEntity
  8
0
100
AcDbBlockEnd
  0
BLOCK
  5
1C
330
1B
100
AcDbEntity
 67
     1
  8
0
100
AcDbBlockBegin
  2
*Paper_Space
 70
     0
 10
0.0
 20
0.0
 30
0.0
  3
*Paper_Space
  1

  0
ENDBLK
  5
1D
330
1B
100
AcDbEntity
 67
     1
  8
0
100
AcDbBlockEnd
  0
BLOCK
  5
24
330
23
100
AcDbEntity
  8
0
100
AcDbBlockBegin
  2
*Paper_Space0
 70
     0
 10
0.0
 20
0.0
 30
0.0
  3
*Paper_Space0
  1

  0
ENDBLK
  5
25
330
23
100
AcDbEntity
  8
0
100
AcDbBlockEnd
  0
ENDSEC
  0
SECTION
  2
ENTITIES
  0
SPLINE
  5
41
330
1F
100
AcDbEntity
  8
Layer 1
370
     0
100
AcDbSpline
210
0.0
220
0.0
230
1.0
 70
    11
 71
     3
 72
   278
 73
   274
 74
     0
 42
0.0000000001
 43
0.0000000001
 12
1.0
 22
0.0
 32
0.0
 13
1.0
 23
0.0
 33
0.0
 40
0.0
 40
0.0
 40
0.0
 40
0.0
 40
1.0
 40
1.0
 40
1.0
 40
2.0
 40
2.0
 40
2.0
 40
3.0
 40
3.0
 40
3.0
 40
4.0
 40
4.0
 40
4.0
 40
5.0
 40
5.0
 40
5.0
 40
6.0
 40
6.0
 40
6.0
 40
7.0
 40
7.0
 40
7.0
 40
8.0
 40
8.0
 40
8.0
 40
9.0
 40
9.0
 40
9.0
 40
10.0
 40
10.0
 40
10.0
 40
11.0
 40
11.0
 40
11.0
 40
12.0
 40
12.0
 40
12.0
 40
13.0
 40
13.0
 40
13.0
 40
14.0
 40
14.0
 40
14.0
 40
15.0
 40
15.0
 40
15.0
 40
16.0
 40
16.0
 40
16.0
 40
17.0
 40
17.0
 40
17.0
 40
18.0
 40
18.0
 40
18.0
 40
19.0
 40
19.0
 40
19.0
 40
20.0
 40
20.0
 40
20.0
 40
21.0
 40
21.0
 40
21.0
 40
22.0
 40
22.0
 40
22.0
 40
23.0
 40
23.0
 40
23.0
 40
24.0
 40
24.0
 40
24.0
 40
25.0
 40
25.0
 40
25.0
 40
26.0
 40
26.0
 40
26.0
 40
27.0
 40
27.0
 40
27.0
 40
28.0
 40
28.0
 40
28.0
 40
29.0
 40
29.0
 40
29.0
 40
30.0
 40
30.0
 40
30.0
 40
31.0
 40
31.0
 40
31.0
 40
32.0
 40
32.0
 40
32.0
 40
33.0
 40
33.0
 40
33.0
 40
34.0
 40
34.0
 40
34.0
 40
35.0
 40
35.0
 40
35.0
 40
36.0
 40
36.0
 40
36.0
 40
37.0
 40
37.0
 40
37.0
 40
38.0
 40
38.0
 40
38.0
 40
39.0
 40
39.0
 40
39.0
 40
40.0
 40
40.0
 40
40.0
 40
41.0
 40
41.0
 40
41.0
 40
42.0
 40
42.0
 40
42.0
 40
43.0
 40
43.0
 40
43.0
 40
44.0
 40
44.0
 40
44.0
 40
45.0
 40
45.0
 40
45.0
 40
46.0
 40
46.0
 40
46.0
 40
47.0
 40
47.0
 40
47.0
 40
48.0
 40
48.0
 40
48.0
 40
49.0
 40
49.0
 40
49.0
 40
50.0
 40
50.0
 40
50.0
 40
51.0
 40
51.0
 40
51.0
 40
52.0
 40
52.0
 40
52.0
 40
53.0
 40
53.0
 40
53.0
 40
54.0
 40
54.0
 40
54.0
 40
55.0
 40
55.0
 40
55.0
 40
56.0
 40
56.0
 40
56.0
 40
57.0
 40
57.0
 40
57.0
 40
58.0
 40
58.0
 40
58.0
 40
59.0
 40
59.0
 40
59.0
 40
60.0
 40
60.0
 40
60.0
 40
61.0
 40
61.0
 40
61.0
 40
62.0
 40
62.0
 40
62.0
 40
63.0
 40
63.0
 40
63.0
 40
64.0
 40
64.0
 40
64.0
 40
65.0
 40
65.0
 40
65.0
 40
66.0
 40
66.0
 40
66.0
 40
67.0
 40
67.0
 40
67.0
 40
68.0
 40
68.0
 40
68.0
 40
69.0
 40
69.0
 40
69.0
 40
70.0
 40
70.0
 40
70.0
 40
71.0
 40
71.0
 40
71.0
 40
72.0
 40
72.0
 40
72.0
 40
73.0
 40
73.0
 40
73.0
 40
74.0
 40
74.0
 40
74.0
 40
75.0
 40
75.0
 40
75.0
 40
76.0
 40
76.0
 40
76.0
 40
77.0
 40
77.0
 40
77.0
 40
78.0
 40
78.0
 40
78.0
 40
79.0
 40
79.0
 40
79.0
 40
80.0
 40
80.0
 40
80.0
 40
81.0
 40
81.0
 40
81.0
 40
82.0
 40
82.0
 40
82.0
 40
83.0
 40
83.0
 40
83.0
 40
84.0
 40
84.0
 40
84.0
 40
85.0
 40
85.0
 40
85.0
 40
86.0
 40
86.0
 40
86.0
 40
87.0
 40
87.0
 40
87.0
 40
88.0
 40
88.0
 40
88.0
 40
89.0
 40
89.0
 40
89.0
 40
90.0
 40
90.0
 40
90.0
 40
91.0
 40
91.0
 40
91.0
 40
91.0
 10
28.23260833333333
 20
-5.708381944444441
 30
0.0
 10
28.44687361111111
 20
-5.620461111111113
 30
0.0
 10
28.70908611111112
 20
-5.607445833333334
 30
0.0
 10
29.00416249999999
 20
-5.651088888888883
 30
0.0
 10
29.09454444444444
 20
-5.664481944444447
 30
0.0
 10
29.18535
 20
-5.684377777777778
 30
0.0
 10
29.27318611111112
 20
-5.703611111111109
 30
0.0
 10
29.35980416666666
 20
-5.722581944444439
 30
0.0
 10
29.4493875
 20
-5.742198611111108
 30
0.0
 10
29.53883055555555
 20
-5.755670833333334
 30
0.0
 10
29.75780555555555
 20
-5.788641666666662
 30
0.0
 10
29.98651388888889
 20
-5.782050000000001
 30
0.0
 10
30.21855555555555
 20
-5.736083333333327
 30
0.0
 10
30.2964125
 20
-5.720659722222219
 30
0.0
 10
30.37471666666667
 20
-5.701649999999997
 30
0.0
 10
30.45041527777778
 20
-5.683262500000006
 30
0.0
 10
30.55992222222224
 20
-5.656668055555555
 30
0.0
 10
30.67315
 20
-5.629162499999993
 30
0.0
 10
30.78647916666667
 20
-5.612236111111113
 30
0.0
 10
31.12631944444443
 20
-5.561473611111106
 30
0.0
 10
31.43544722222221
 20
-5.638031944444442
 30
0.0
 10
31.76272916666668
 20
-5.719113888888892
 30
0.0
 10
31.88788750000001
 20
-5.750125
 30
0.0
 10
32.01733611111111
 20
-5.78218611111111
 30
0.0
 10
32.14749583333334
 20
-5.806044444444447
 30
0.0
 10
32.26124999999999
 20
-5.826906944444444
 30
0.0
 10
32.36459861111111
 20
-5.837144444444448
 30
0.0
 10
32.46195000000002
 20
-5.837144444444448
 30
0.0
 10
32.47723333333334
 20
-5.837144444444448
 30
0.0
 10
32.49240000000001
 20
-5.836887500000001
 30
0.0
 10
32.50739861111111
 20
-5.836383333333338
 30
0.0
 10
32.52384444444444
 20
-5.835752777777783
 30
0.0
 10
32.54054305555557
 20
-5.832163888888886
 30
0.0
 10
32.55259166666666
 20
-5.824591666666669
 30
0.0
 10
32.56192777777778
 20
-5.818719444444443
 30
0.0
 10
32.56737083333334
 20
-5.810413888888888
 30
0.0
 10
32.5674138888889
 20
-5.799476388888883
 30
0.0
 10
32.56743194444445
 20
-5.790466666666664
 30
0.0
 10
32.56386111111111
 20
-5.781005555555553
 30
0.0
 10
32.55717638888889
 20
-5.775930555555558
 30
0.0
 10
32.54721388888889
 20
-5.768247222222221
 30
0.0
 10
32.53357361111109
 20
-5.767606944444449
 30
0.0
 10
32.5248625
 20
-5.767980555555558
 30
0.0
 10
32.42686805555556
 20
-5.772172222222227
 30
0.0
 10
32.32351388888888
 20
-5.769002777777776
 30
0.0
 10
32.20855972222223
 20
-5.751422222222218
 30
0.0
 10
32.11368888888889
 20
-5.671330555555553
 30
0.0
 10
31.99068611111112
 20
-5.612450000000004
 30
0.0
 10
31.87585277777778
 20
-5.565222222222221
 30
0.0
 10
31.92270833333333
 20
-5.563990277777773
 30
0.0
 10
31.96970694444445
 20
-5.559947222222225
 30
0.0
 10
32.01599166666667
 20
-5.553159722222227
 30
0.0
 10
32.1838611111111
 20
-5.528170833333332
 30
0.0
 10
32.32349583333333
 20
-5.462354166666665
 30
0.0
 10
32.4756875
 20
-5.385291666666666
 30
0.0
 10
32.69393055555555
 20
-5.274730555555556
 30
0.0
 10
33.00090138888888
 20
-5.205631944444449
 30
0.0
 10
33.20792222222222
 20
-5.343198611111107
 30
0.0
 10
33.23697222222222
 20
-5.362562500000005
 30
0.0
 10
33.26275972222222
 20
-5.349972222222227
 30
0.0
 10
33.26928472222221
 20
-5.345043055555556
 30
0.0
 10
33.28827083333335
 20
-5.33070694444445
 30
0.0
 10
33.29086111111112
 20
-5.305465277777785
 30
0.0
 10
33.27931250000001
 20
-5.283776388888882
 30
0.0
 10
33.24955277777778
 20
-5.227558333333339
 30
0.0
 10
33.19924444444445
 20
-5.17786527777778
 30
0.0
 10
33.15484444444446
 20
-5.133993055555556
 30
0.0
 10
33.15484444444446
 20
-5.133993055555556
 30
0.0
 10
33.13465972222222
 20
-5.114088888888887
 30
0.0
 10
33.13465972222222
 20
-5.114088888888887
 30
0.0
 10
32.93446805555555
 20
-4.913331944444445
 30
0.0
 10
32.69927499999999
 20
-4.783463888888895
 30
0.0
 10
32.45450833333332
 20
-4.73851805555556
 30
0.0
 10
32.33016111111111
 20
-4.715658333333332
 30
0.0
 10
32.20522638888888
 20
-4.717618055555552
 30
0.0
 10
32.05990138888887
 20
-4.744983333333329
 30
0.0
 10
32.0235736111111
 20
-4.751761111111111
 30
0.0
 10
31.98629305555556
 20
-4.758718055555556
 30
0.0
 10
31.94886805555555
 20
-4.765280555555553
 30
0.0
 10
32.01363472222222
 20
-4.707824999999994
 30
0.0
 10
32.06870555555555
 20
-4.640636111111108
 30
0.0
 10
32.12214722222221
 20
-4.575444444444441
 30
0.0
 10
32.13355138888889
 20
-4.561527777777782
 30
0.0
 10
32.14493194444445
 20
-4.547636111111109
 30
0.0
 10
32.15641666666667
 20
-4.533836111111112
 30
0.0
 10
32.23451944444446
 20
-4.439930555555557
 30
0.0
 10
32.30977083333333
 20
-4.384627777777774
 30
0.0
 10
32.40935694444445
 20
-4.348452777777778
 30
0.0
 10
32.41519305555557
 20
-4.346362500000004
 30
0.0
 10
32.4273486111111
 20
-4.342029166666672
 30
0.0
 10
32.43698333333332
 20
-4.327979166666662
 30
0.0
 10
32.43698333333332
 20
-4.327979166666662
 30
0.0
 10
32.43820277777778
 20
-4.326036111111105
 30
0.0
 10
32.43820277777778
 20
-4.326036111111105
 30
0.0
 10
32.4430625
 20
-4.317522222222225
 30
0.0
 10
32.452375
 20
-4.29500277777778
 30
0.0
 10
32.43385694444444
 20
-4.26986944444444
 30
0.0
 10
32.37528888888889
 20
-4.189912500000004
 30
0.0
 10
32.24957916666666
 20
-4.171986111111108
 30
0.0
 10
32.19825277777777
 20
-4.167986111111114
 30
0.0
 10
32.03109861111112
 20
-4.154840277777781
 30
0.0
 10
31.85853472222223
 20
-4.226519444444445
 30
0.0
 10
31.69511527777778
 20
-4.312429166666663
 30
0.0
 10
31.72353472222224
 20
-4.275919444444449
 30
0.0
 10
31.74957361111112
 20
-4.237779166666668
 30
0.0
 10
31.77283055555555
 20
-4.198600000000005
 30
0.0
 10
31.85739583333333
 20
-4.055776388888893
 30
0.0
 10
31.89136111111111
 20
-3.90888194444445
 30
0.0
 10
31.92409027777777
 20
-3.745448611111113
 30
0.0
 10
31.97098611111111
 20
-3.511129166666668
 30
0.0
 10
32.11151805555556
 20
-3.241569444444445
 30
0.0
 10
32.34671111111111
 20
-3.164165277777784
 30
0.0
 10
32.38007916666667
 20
-3.153180555555561
 30
0.0
 10
32.38831388888889
 20
-3.126805555555557
 30
0.0
 10
32.38841666666667
 20
-3.118813888888894
 30
0.0
 10
32.3887375
 20
-3.095855555555557
 30
0.0
 10
32.36762361111111
 20
-3.077719444444445
 30
0.0
 10
32.34323194444444
 20
-3.072986111111113
 30
0.0
 10
32.25567638888889
 20
-3.05599861111111
 30
0.0
 10
32.16617777777778
 20
-3.06836527777778
 30
0.0
 10
32.07966111111111
 20
-3.080348611111112
 30
0.0
 10
32.07966111111111
 20
-3.080348611111112
 30
0.0
 10
32.0615861111111
 20
-3.082831944444441
 30
0.0
 10
32.0615861111111
 20
-3.082831944444441
 30
0.0
 10
31.96901666666668
 20
-3.095491666666665
 30
0.0
 10
31.88800972222222
 20
-3.11252083333333
 30
0.0
 10
31.81393472222223
 20
-3.134877777777774
 30
0.0
 10
31.65085972222222
 20
-3.184108333333332
 30
0.0
 10
31.50797638888889
 20
-3.259265277777773
 30
0.0
 10
31.38926388888889
 20
-3.35826388888889
 30
0.0
 10
31.29365972222222
 20
-3.437991666666663
 30
0.0
 10
31.21734861111112
 20
-3.533891666666666
 30
0.0
 10
31.14910833333334
 20
-3.66010555555556
 30
0.0
 10
31.13162638888889
 20
-3.692483333333333
 30
0.0
 10
31.11371944444444
 20
-3.725693055555553
 30
0.0
 10
31.09532222222222
 20
-3.758762500000001
 30
0.0
 10
31.08956666666667
 20
-3.689056944444448
 30
0.0
 10
31.07424027777776
 20
-3.620401388888884
 30
0.0
 10
31.05934027777779
 20
-3.553740277777782
 30
0.0
 10
31.02884722222221
 20
-3.41715833333333
 30
0.0
 10
31.00002083333334
 20
-3.288148611111107
 30
0.0
 10
31.04643194444444
 20
-3.14970833333334
 30
0.0
 10
31.04832222222222
 20
-3.144427777777777
 30
0.0
 10
31.05273472222221
 20
-3.132080555555553
 30
0.0
 10
31.04734722222221
 20
-3.115751388888889
 30
0.0
 10
31.04734722222221
 20
-3.115751388888889
 30
0.0
 10
31.04649305555555
 20
-3.11341805555556
 30
0.0
 10
31.04649305555555
 20
-3.11341805555556
 30
0.0
 10
31.03840277777777
 20
-3.094534722222218
 30
0.0
 10
31.02092083333332
 20
-3.082986111111116
 30
0.0
 10
30.99849861111112
 20
-3.081715277777776
 30
0.0
 10
30.89763333333334
 20
-3.076048611111117
 30
0.0
 10
30.80473194444446
 20
-3.160379166666669
 30
0.0
 10
30.76948194444445
 20
-3.196754166666665
 30
0.0
 10
30.65434583333333
 20
-3.315652777777776
 30
0.0
 10
30.60476527777779
 20
-3.490818055555552
 30
0.0
 10
30.57219999999999
 20
-3.668152777777777
 30
0.0
 10
30.56053333333332
 20
-3.624056944444444
 30
0.0
 10
30.54602083333333
 20
-3.580591666666666
 30
0.0
 10
30.52884166666667
 20
-3.538386111111107
 30
0.0
 10
30.46627361111112
 20
-3.384956944444449
 30
0.0
 10
30.36904444444445
 20
-3.267733333333328
 30
0.0
 10
30.25772638888889
 20
-3.141183333333338
 30
0.0
 10
30.09800972222222
 20
-2.959581944444444
 30
0.0
 10
29.96020833333333
 20
-2.684849999999996
 30
0.0
 10
30.05245694444445
 20
-2.458413888888888
 30
0.0
 10
30.06554722222222
 20
-2.426399999999994
 30
0.0
 10
30.045525
 20
-2.407554166666664
 30
0.0
 10
30.03920416666667
 20
-2.402629166666669
 30
0.0
 10
30.02097083333333
 20
-2.388036111111117
 30
0.0
 10
29.99588333333334
 20
-2.388684722222226
 30
0.0
 10
29.9768375
 20
-2.404188888888888
 30
0.0
 10
29.8479388888889
 20
-2.509091666666664
 30
0.0
 10
29.772725
 20
-2.666386111111112
 30
0.0
 10
29.70674027777778
 20
-2.818495833333334
 30
0.0
 10
29.58410138888889
 20
-3.101130555555554
 30
0.0
 10
29.58373333333333
 20
-3.405422222222228
 30
0.0
 10
29.70572222222222
 20
-3.675337500000005
 30
0.0
 10
29.72005416666666
 20
-3.706861111111114
 30
0.0
 10
29.73585138888888
 20
-3.741597222222228
 30
0.0
 10
29.75134027777777
 20
-3.776734722222222
 30
0.0
 10
29.6776486111111
 20
-3.727438888888893
 30
0.0
 10
29.59737361111111
 20
-3.691026388888885
 30
0.0
 10
29.51948055555555
 20
-3.655688888888891
 30
0.0
 10
29.39060138888889
 20
-3.597225000000005
 30
0.0
 10
29.30131666666667
 20
-3.528933333333334
 30
0.0
 10
29.23037499999999
 20
-3.434818055555549
 30
0.0
 10
29.22730277777777
 20
-3.430108333333338
 30
0.0
 10
29.22012777777778
 20
-3.419072222222225
 30
0.0
 10
29.20386805555555
 20
-3.412961111111106
 30
0.0
 10
29.20386805555555
 20
-3.412961111111106
 30
0.0
 10
29.20122638888889
 20
-3.412172222222226
 30
0.0
 10
29.20122638888889
 20
-3.412172222222226
 30
0.0
 10
29.19162777777778
 20
-3.409413888888884
 30
0.0
 10
29.16707361111111
 20
-3.405520833333336
 30
0.0
 10
29.14575000000001
 20
-3.428730555555553
 30
0.0
 10
29.07840138888889
 20
-3.501965277777774
 30
0.0
 10
29.08832083333333
 20
-3.624738888888891
 30
0.0
 10
29.09570138888888
 20
-3.674113888888895
 30
0.0
 10
29.11975277777777
 20
-3.835605555555553
 30
0.0
 10
29.23014999999999
 20
-3.982472222222226
 30
0.0
 10
29.35287222222223
 20
-4.117797222222217
 30
0.0
 10
29.19461666666666
 20
-4.049736111111113
 30
0.0
 10
29.01152499999999
 20
-4.017623611111111
 30
0.0
 10
28.80834583333333
 20
-4.022422222222227
 30
0.0
 10
28.63433055555555
 20
-4.026497222222221
 30
0.0
 10
28.4776
 20
-4.024872222222219
 30
0.0
 10
28.31945138888889
 20
-3.964144444444451
 30
0.0
 10
28.23472361111111
 20
-3.931602777777774
 30
0.0
 10
28.11974583333333
 20
-3.869258333333328
 30
0.0
 10
28.0532236111111
 20
-3.757030555555553
 30
0.0
 10
28.03552777777778
 20
-3.727191666666663
 30
0.0
 10
28.00786388888889
 20
-3.730608333333331
 30
0.0
 10
27.99990416666666
 20
-3.732326388888888
 30
0.0
 10
27.97681944444444
 20
-3.737093055555558
 30
0.0
 10
27.9617
 20
-3.756465277777781
 30
0.0
 10
27.96226944444444
 20
-3.780572222222228
 30
0.0
 10
27.96665694444444
 20
-3.945901388888892
 30
0.0
 10
28.05223055555555
 20
-4.11344305555556
 30
0.0
 10
28.13534722222222
 20
-4.25552777777778
 30
0.0
 10
28.22211944444444
 20
-4.403841666666671
 30
0.0
 10
28.33179861111111
 20
-4.526101388888883
 30
0.0
 10
28.46135972222222
 20
-4.618919444444448
 30
0.0
 10
28.60141944444445
 20
-4.719243055555554
 30
0.0
 10
28.76764861111111
 20
-4.769183333333331
 30
0.0
 10
28.92915416666667
 20
-4.80610833333334
 30
0.0
 10
28.88095555555555
 20
-4.825127777777778
 30
0.0
 10
28.83213055555555
 20
-4.847754166666669
 30
0.0
 10
28.78460416666667
 20
-4.869763888888883
 30
0.0
 10
28.65214861111111
 20
-4.931127777777773
 30
0.0
 10
28.51515555555557
 20
-4.994694444444449
 30
0.0
 10
28.37377499999999
 20
-4.992005555555553
 30
0.0
 10
28.3676875
 20
-4.991898611111107
 30
0.0
 10
28.36099861111111
 20
-4.991127777777781
 30
0.0
 10
28.35408888888888
 20
-4.990362499999997
 30
0.0
 10
28.33418888888889
 20
-4.988122222222223
 30
0.0
 10
28.31162222222223
 20
-4.985609722222218
 30
0.0
 10
28.29364027777778
 20
-4.995856944444439
 30
0.0
 10
28.29364027777778
 20
-4.995856944444439
 30
0.0
 10
28.29134444444445
 20
-4.99737916666667
 30
0.0
 10
28.29134444444445
 20
-4.99737916666667
 30
0.0
 10
28.27408611111111
 20
-5.009240277777772
 30
0.0
 10
28.26637361111111
 20
-5.028337499999995
 30
0.0
 10
28.27017361111112
 20
-5.049751388888883
 30
0.0
 10
28.29405138888889
 20
-5.185874999999997
 30
0.0
 10
28.45467916666666
 20
-5.255748611111104
 30
0.0
 10
28.52263888888889
 20
-5.279468055555551
 30
0.0
 10
28.65913749999999
 20
-5.327144444444444
 30
0.0
 10
28.81017638888889
 20
-5.329058333333339
 30
0.0
 10
28.95470833333333
 20
-5.322247222222219
 30
0.0
 10
28.91273194444444
 20
-5.343208333333337
 30
0.0
 10
28.87223472222222
 20
-5.366609722222228
 30
0.0
 10
28.83385833333333
 20
-5.392102777777773
 30
0.0
 10
28.76305555555556
 20
-5.439134722222219
 30
0.0
 10
28.69914305555555
 20
-5.495040277777775
 30
0.0
 10
28.63306111111112
 20
-5.567822222222225
 30
0.0
 10
28.61248749999999
 20
-5.56845277777778
 30
0.0
 10
28.5918361111111
 20
-5.569474999999998
 30
0.0
 10
28.57120277777777
 20
-5.570875000000001
 30
0.0
 10
28.42080277777778
 20
-5.58105694444445
 30
0.0
 10
28.27399722222223
 20
-5.617711111111109
 30
0.0
 10
28.13487083333333
 20
-5.679854166666662
 30
0.0
 10
28.12401805555555
 20
-5.684672222222225
 30
0.0
 10
28.1153486111111
 20
-5.68979722222222
 30
0.0
 10
28.10833194444444
 20
-5.695548611111108
 30
0.0
 10
28.09594305555555
 20
-5.70581944444445
 30
0.0
 10
28.09369722222221
 20
-5.721448611111112
 30
0.0
 10
28.1026
 20
-5.735350000000001
 30
0.0
 10
28.11039583333334
 20
-5.74758055555555
 30
0.0
 10
28.128975
 20
-5.74856527777778
 30
0.0
 10
28.14413333333333
 20
-5.743234722222218
 30
0.0
 10
28.16804305555556
 20
-5.734827777777784
 30
0.0
 10
28.20918333333333
 20
-5.717993055555553
 30
0.0
 10
28.23260833333333
 20
-5.708381944444441
 30
0.0
  0
SPLINE
  5
42
330
1F
100
AcDbEntity
  8
Layer 1
370
     0
100
AcDbSpline
210
0.0
220
0.0
230
1.0
 70
    11
 71
     3
 72
    65
 73
    61
 74
     0
 42
0.0000000001
 43
0.0000000001
 12
1.0
 22
0.0
 32
0.0
 13
1.0
 23
0.0
 33
0.0
 40
0.0
 40
0.0
 40
0.0
 40
0.0
 40
1.0
 40
1.0
 40
1.0
 40
2.0
 40
2.0
 40
2.0
 40
3.0
 40
3.0
 40
3.0
 40
4.0
 40
4.0
 40
4.0
 40
5.0
 40
5.0
 40
5.0
 40
6.0
 40
6.0
 40
6.0
 40
7.0
 40
7.0
 40
7.0
 40
8.0
 40
8.0
 40
8.0
 40
9.0
 40
9.0
 40
9.0
 40
10.0
 40
10.0
 40
10.0
 40
11.0
 40
11.0
 40
11.0
 40
12.0
 40
12.0
 40
12.0
 40
13.0
 40
13.0
 40
13.0
 40
14.0
 40
14.0
 40
14.0
 40
15.0
 40
15.0
 40
15.0
 40
16.0
 40
16.0
 40
16.0
 40
17.0
 40
17.0
 40
17.0
 40
18.0
 40
18.0
 40
18.0
 40
19.0
 40
19.0
 40
19.0
 40
20.0
 40
20.0
 40
20.0
 40
20.0
 10
30.20729583333333
 20
-3.182847222222222
 30
0.0
 10
30.31462777777779
 20
-3.304883333333338
 30
0.0
 10
30.40825694444445
 20
-3.41764305555556
 30
0.0
 10
30.46716527777778
 20
-3.562044444444445
 30
0.0
 10
30.50719027777778
 20
-3.660095833333331
 30
0.0
 10
30.53146527777777
 20
-3.764401388888889
 30
0.0
 10
30.53935
 20
-3.872115277777779
 30
0.0
 10
30.54160972222222
 20
-3.901637500000005
 30
0.0
 10
30.54258472222222
 20
-3.931654166666665
 30
0.0
 10
30.54225833333334
 20
-3.961511111111109
 30
0.0
 10
30.53770694444444
 20
-3.961166666666663
 30
0.0
 10
30.53317361111111
 20
-3.960838888888891
 30
0.0
 10
30.52865972222222
 20
-3.960554166666661
 30
0.0
 10
30.50080833333332
 20
-3.958602777777779
 30
0.0
 10
30.47226805555556
 20
-3.957618055555561
 30
0.0
 10
30.44380972222223
 20
-3.957618055555561
 30
0.0
 10
30.29732777777778
 20
-3.957618055555561
 30
0.0
 10
30.15395277777778
 20
-3.98310138888889
 30
0.0
 10
30.0176375
 20
-4.033387500000003
 30
0.0
 10
30.00273611111111
 20
-4.038984722222216
 30
0.0
 10
29.98797500000001
 20
-4.044768055555551
 30
0.0
 10
29.97348055555555
 20
-4.050869444444439
 30
0.0
 10
29.956325
 20
-4.057886111111113
 30
0.0
 10
29.93864166666668
 20
-4.065691666666668
 30
0.0
 10
29.92075277777778
 20
-4.074136111111114
 30
0.0
 10
29.91382083333334
 20
-4.032616666666664
 30
0.0
 10
29.90420416666666
 20
-3.991873611111108
 30
0.0
 10
29.89215138888888
 20
-3.952829166666662
 30
0.0
 10
29.88670416666667
 20
-3.935122222222225
 30
0.0
 10
29.88056527777778
 20
-3.917247222222222
 30
0.0
 10
29.87389444444444
 20
-3.899704166666664
 30
0.0
 10
29.86895555555556
 20
-3.886777777777777
 30
0.0
 10
29.86385277777778
 20
-3.873837499999998
 30
0.0
 10
29.85864722222221
 20
-3.860912500000002
 30
0.0
 10
29.82972361111111
 20
-3.788629166666662
 30
0.0
 10
29.79756388888889
 20
-3.717841666666661
 30
0.0
 10
29.76646527777777
 20
-3.649372222222218
 30
0.0
 10
29.76646527777777
 20
-3.649372222222218
 30
0.0
 10
29.76646527777777
 20
-3.649381944444447
 30
0.0
 10
29.76646527777777
 20
-3.649381944444447
 30
0.0
 10
29.76646527777777
 20
-3.649381944444447
 30
0.0
 10
29.7613625
 20
-3.638169444444442
 30
0.0
 10
29.7613625
 20
-3.638169444444442
 30
0.0
 10
29.75369722222222
 20
-3.621298611111115
 30
0.0
 10
29.74605555555556
 20
-3.604455555555559
 30
0.0
 10
29.73845138888888
 20
-3.587477777777773
 30
0.0
 10
29.70175972222222
 20
-3.50587777777778
 30
0.0
 10
29.68265277777778
 20
-3.415426388888894
 30
0.0
 10
29.67834305555556
 20
-3.302811111111105
 30
0.0
 10
29.66967916666666
 20
-3.074699999999994
 30
0.0
 10
29.74422638888889
 20
-2.836448611111109
 30
0.0
 10
29.89389722222222
 20
-2.613786111111115
 30
0.0
 10
29.89389722222222
 20
-2.613786111111115
 30
0.0
 10
29.90989583333334
 20
-2.589720833333331
 30
0.0
 10
29.90989583333334
 20
-2.589720833333331
 30
0.0
 10
29.9276625
 20
-2.562837500000001
 30
0.0
 10
29.94707777777777
 20
-2.533483333333328
 30
0.0
 10
29.96823888888889
 20
-2.506898611111107
 30
0.0
 10
29.9154875
 20
-2.743622222222219
 30
0.0
 10
30.05343333333333
 20
-3.007940277777783
 30
0.0
 10
30.20729583333333
 20
-3.182847222222222
 30
0.0
  0
SPLINE
  5
43
330
1F
100
AcDbEntity
  8
Layer 1
370
     0
100
AcDbSpline
210
0.0
220
0.0
230
1.0
 70
    11
 71
     3
 72
    53
 73
    49
 74
     0
 42
0.0000000001
 43
0.0000000001
 12
1.0
 22
0.0
 32
0.0
 13
1.0
 23
0.0
 33
0.0
 40
0.0
 40
0.0
 40
0.0
 40
0.0
 40
1.0
 40
1.0
 40
1.0
 40
2.0
 40
2.0
 40
2.0
 40
3.0
 40
3.0
 40
3.0
 40
4.0
 40
4.0
 40
4.0
 40
5.0
 40
5.0
 40
5.0
 40
6.0
 40
6.0
 40
6.0
 40
7.0
 40
7.0
 40
7.0
 40
8.0
 40
8.0
 40
8.0
 40
9.0
 40
9.0
 40
9.0
 40
10.0
 40
10.0
 40
10.0
 40
11.0
 40
11.0
 40
11.0
 40
12.0
 40
12.0
 40
12.0
 40
13.0
 40
13.0
 40
13.0
 40
14.0
 40
14.0
 40
14.0
 40
15.0
 40
15.0
 40
15.0
 40
16.0
 40
16.0
 40
16.0
 40
16.0
 10
29.61761527777778
 20
-4.273220833333337
 30
0.0
 10
29.60681250000001
 20
-4.273879166666663
 30
0.0
 10
29.59728472222222
 20
-4.261933333333332
 30
0.0
 10
29.58968472222222
 20
-4.256051388888888
 30
0.0
 10
29.57575
 20
-4.245262500000004
 30
0.0
 10
29.56126527777778
 20
-4.235123611111109
 30
0.0
 10
29.54706527777777
 20
-4.224666666666672
 30
0.0
 10
29.51259444444445
 20
-4.199286111111115
 30
0.0
 10
29.4840625
 20
-4.162668055555551
 30
0.0
 10
29.45454583333334
 20
-4.131974999999999
 30
0.0
 10
29.42242916666666
 20
-4.098583333333332
 30
0.0
 10
29.39065277777778
 20
-4.064865277777774
 30
0.0
 10
29.36022916666666
 20
-4.030002777777781
 30
0.0
 10
29.29982361111111
 20
-3.960769444444445
 30
0.0
 10
29.24398194444445
 20
-3.886479166666668
 30
0.0
 10
29.20522638888888
 20
-3.803554166666673
 30
0.0
 10
29.19451388888889
 20
-3.780623611111107
 30
0.0
 10
29.18514444444445
 20
-3.757095833333336
 30
0.0
 10
29.17744166666666
 20
-3.73305416666666
 30
0.0
 10
29.15369999999999
 20
-3.658970833333329
 30
0.0
 10
29.13830416666666
 20
-3.553679166666661
 30
0.0
 10
29.18503750000001
 20
-3.484534722222217
 30
0.0
 10
29.17750694444445
 20
-3.495962500000006
 30
0.0
 10
29.238675
 20
-3.547358333333338
 30
0.0
 10
29.24640972222222
 20
-3.554533333333337
 30
0.0
 10
29.34627638888888
 20
-3.647113888888889
 30
0.0
 10
29.47044583333334
 20
-3.69878055555556
 30
0.0
 10
29.59129583333333
 20
-3.759826388888895
 30
0.0
 10
29.66602916666666
 20
-3.797569444444447
 30
0.0
 10
29.73805
 20
-3.843018055555553
 30
0.0
 10
29.80177083333333
 20
-3.896581944444443
 30
0.0
 10
29.80955277777778
 20
-3.903122222222224
 30
0.0
 10
29.81384722222222
 20
-3.927494444444442
 30
0.0
 10
29.81709166666667
 20
-3.936597222222228
 30
0.0
 10
29.82899027777777
 20
-3.969965277777773
 30
0.0
 10
29.83871527777779
 20
-4.004025000000007
 30
0.0
 10
29.84769166666667
 20
-4.038229166666661
 30
0.0
 10
29.84975000000001
 20
-4.046066666666661
 30
0.0
 10
29.86842777777777
 20
-4.100356944444444
 30
0.0
 10
29.8585875
 20
-4.10570694444444
 30
0.0
 10
29.8034236111111
 20
-4.135709722222221
 30
0.0
 10
29.75072916666666
 20
-4.169973611111118
 30
0.0
 10
29.70111944444445
 20
-4.208015277777778
 30
0.0
 10
29.67615833333333
 20
-4.227155555555555
 30
0.0
 10
29.65306527777778
 20
-4.248156944444442
 30
0.0
 10
29.62882777777778
 20
-4.26807222222222
 30
0.0
 10
29.62467777777778
 20
-4.271484722222226
 30
0.0
 10
29.62102222222222
 20
-4.273015277777782
 30
0.0
 10
29.61761527777778
 20
-4.273220833333337
 30
0.0
  0
SPLINE
  5
44
330
1F
100
AcDbEntity
  8
Layer 1
370
     0
100
AcDbSpline
210
0.0
220
0.0
230
1.0
 70
    11
 71
     3
 72
    47
 73
    43
 74
     0
 42
0.0000000001
 43
0.0000000001
 12
1.0
 22
0.0
 32
0.0
 13
1.0
 23
0.0
 33
0.0
 40
0.0
 40
0.0
 40
0.0
 40
0.0
 40
1.0
 40
1.0
 40
1.0
 40
2.0
 40
2.0
 40
2.0
 40
3.0
 40
3.0
 40
3.0
 40
4.0
 40
4.0
 40
4.0
 40
5.0
 40
5.0
 40
5.0
 40
6.0
 40
6.0
 40
6.0
 40
7.0
 40
7.0
 40
7.0
 40
8.0
 40
8.0
 40
8.0
 40
9.0
 40
9.0
 40
9.0
 40
10.0
 40
10.0
 40
10.0
 40
11.0
 40
11.0
 40
11.0
 40
12.0
 40
12.0
 40
12.0
 40
13.0
 40
13.0
 40
13.0
 40
14.0
 40
14.0
 40
14.0
 40
14.0
 10
29.56163888888889
 20
-4.333454166666671
 30
0.0
 10
29.444
 20
-4.457283333333331
 30
0.0
 10
29.35400694444444
 20
-4.606791666666671
 30
0.0
 10
29.30138194444445
 20
-4.7658125
 30
0.0
 10
29.29652222222222
 20
-4.780518055555553
 30
0.0
 10
29.29192916666667
 20
-4.795297222222226
 30
0.0
 10
29.28771805555556
 20
-4.810206944444442
 30
0.0
 10
29.28259722222222
 20
-4.827993055555553
 30
0.0
 10
29.27788194444444
 20
-4.846166666666666
 30
0.0
 10
29.27367222222223
 20
-4.864386111111116
 30
0.0
 10
29.23586388888889
 20
-4.843738888888891
 30
0.0
 10
29.19720277777777
 20
-4.825711111111117
 30
0.0
 10
29.15861944444444
 20
-4.810730555555551
 30
0.0
 10
29.0435763888889
 20
-4.766069444444446
 30
0.0
 10
28.92323055555556
 20
-4.736038888888894
 30
0.0
 10
28.80315138888889
 20
-4.707231944444439
 30
0.0
 10
28.69132916666667
 20
-4.680412500000001
 30
0.0
 10
28.59353472222223
 20
-4.633548611111109
 30
0.0
 10
28.50075416666666
 20
-4.567124999999995
 30
0.0
 10
28.31145
 20
-4.431602777777774
 30
0.0
 10
28.16580277777777
 20
-4.226556944444446
 30
0.0
 10
28.07957222222222
 20
-3.974162499999996
 30
0.0
 10
28.0765611111111
 20
-3.965316666666669
 30
0.0
 10
28.07345138888889
 20
-3.956277777777776
 30
0.0
 10
28.07024861111111
 20
-3.947152777777774
 30
0.0
 10
28.05960555555556
 20
-3.916930555555559
 30
0.0
 10
28.04799166666666
 20
-3.883912500000001
 30
0.0
 10
28.03969583333334
 20
-3.851048611111107
 30
0.0
 10
28.19757361111111
 20
-4.038504166666661
 30
0.0
 10
28.49724861111111
 20
-4.098788888888887
 30
0.0
 10
28.73388472222223
 20
-4.09151527777778
 30
0.0
 10
28.89927361111111
 20
-4.086218055555555
 30
0.0
 10
29.04870277777778
 20
-4.085597222222228
 30
0.0
 10
29.20169305555555
 20
-4.130962499999997
 30
0.0
 10
29.30560694444445
 20
-4.161837499999996
 30
0.0
 10
29.4048111111111
 20
-4.208436111111117
 30
0.0
 10
29.4965263888889
 20
-4.269490277777777
 30
0.0
 10
29.52201944444444
 20
-4.286343055555562
 30
0.0
 10
29.54706527777777
 20
-4.304511111111108
 30
0.0
 10
29.57115277777777
 20
-4.323600000000005
 30
0.0
 10
29.56795972222222
 20
-4.326862499999998
 30
0.0
 10
29.56480833333333
 20
-4.330144444444449
 30
0.0
 10
29.56163888888889
 20
-4.333454166666671
 30
0.0
  0
SPLINE
  5
45
330
1F
100
AcDbEntity
  8
Layer 1
370
     0
100
AcDbSpline
210
0.0
220
0.0
230
1.0
 70
    11
 71
     3
 72
    44
 73
    40
 74
     0
 42
0.0000000001
 43
0.0000000001
 12
1.0
 22
0.0
 32
0.0
 13
1.0
 23
0.0
 33
0.0
 40
0.0
 40
0.0
 40
0.0
 40
0.0
 40
1.0
 40
1.0
 40
1.0
 40
2.0
 40
2.0
 40
2.0
 40
3.0
 40
3.0
 40
3.0
 40
4.0
 40
4.0
 40
4.0
 40
5.0
 40
5.0
 40
5.0
 40
6.0
 40
6.0
 40
6.0
 40
7.0
 40
7.0
 40
7.0
 40
8.0
 40
8.0
 40
8.0
 40
9.0
 40
9.0
 40
9.0
 40
10.0
 40
10.0
 40
10.0
 40
11.0
 40
11.0
 40
11.0
 40
12.0
 40
12.0
 40
12.0
 40
13.0
 40
13.0
 40
13.0
 40
13.0
 10
29.04585
 20
-4.84231527777778
 30
0.0
 10
29.05460694444444
 20
-4.844976388888893
 30
0.0
 10
29.07446111111111
 20
-4.849424999999997
 30
0.0
 10
29.08315833333333
 20
-4.852234722222217
 30
0.0
 10
29.14357361111111
 20
-4.871626388888886
 30
0.0
 10
29.20159027777778
 20
-4.897447222222227
 30
0.0
 10
29.26027916666666
 20
-4.931076388888894
 30
0.0
 10
29.24966805555555
 20
-4.993247222222218
 30
0.0
 10
29.2443
 20
-5.056954166666666
 30
0.0
 10
29.2443
 20
-5.120572222222222
 30
0.0
 10
29.2443
 20
-5.154547222222226
 30
0.0
 10
29.24580277777778
 20
-5.188340277777772
 30
0.0
 10
29.24875277777778
 20
-5.221144444444449
 30
0.0
 10
29.21673333333333
 20
-5.227726388888893
 30
0.0
 10
29.18492083333333
 20
-5.23561111111111
 30
0.0
 10
29.15404444444445
 20
-5.24459722222222
 30
0.0
 10
29.14973611111111
 20
-5.244854166666666
 30
0.0
 10
29.14542222222222
 20
-5.245176388888884
 30
0.0
 10
29.14111388888889
 20
-5.245502777777776
 30
0.0
 10
28.953
 20
-5.259698611111111
 30
0.0
 10
28.75060972222223
 20
-5.282488888888893
 30
0.0
 10
28.56732777777778
 20
-5.226259722222216
 30
0.0
 10
28.5336375
 20
-5.215924999999995
 30
0.0
 10
28.50087083333334
 20
-5.202522222222228
 30
0.0
 10
28.47034166666666
 20
-5.185184722222226
 30
0.0
 10
28.43694444444444
 20
-5.166265277777774
 30
0.0
 10
28.36080694444445
 20
-5.117379166666662
 30
0.0
 10
28.33962222222222
 20
-5.054806944444445
 30
0.0
 10
28.44758888888888
 20
-5.061851388888891
 30
0.0
 10
28.54437916666667
 20
-5.045166666666672
 30
0.0
 10
28.63487638888889
 20
-5.003713888888885
 30
0.0
 10
28.6621486111111
 20
-4.991249999999998
 30
0.0
 10
28.68930694444445
 20
-4.978248611111111
 30
0.0
 10
28.71605694444444
 20
-4.965429166666669
 30
0.0
 10
28.80279583333333
 20
-4.923729166666665
 30
0.0
 10
28.88632361111111
 20
-4.89252222222222
 30
0.0
 10
28.9738625
 20
-4.861081944444448
 30
0.0
 10
29.000125
 20
-4.851651388888891
 30
0.0
 10
29.01862916666667
 20
-4.847230555555559
 30
0.0
 10
29.04585
 20
-4.84231527777778
 30
0.0
  0
SPLINE
  5
46
330
1F
100
AcDbEntity
  8
Layer 1
370
     0
100
AcDbSpline
210
0.0
220
0.0
230
1.0
 70
    11
 71
     3
 72
    26
 73
    22
 74
     0
 42
0.0000000001
 43
0.0000000001
 12
1.0
 22
0.0
 32
0.0
 13
1.0
 23
0.0
 33
0.0
 40
0.0
 40
0.0
 40
0.0
 40
0.0
 40
1.0
 40
1.0
 40
1.0
 40
2.0
 40
2.0
 40
2.0
 40
3.0
 40
3.0
 40
3.0
 40
4.0
 40
4.0
 40
4.0
 40
5.0
 40
5.0
 40
5.0
 40
6.0
 40
6.0
 40
6.0
 40
7.0
 40
7.0
 40
7.0
 40
7.0
 10
29.16713472222222
 20
-5.307911111111113
 30
0.0
 10
29.19581527777778
 20
-5.299336111111112
 30
0.0
 10
29.22578055555555
 20
-5.291777777777775
 30
0.0
 10
29.25631111111112
 20
-5.285391666666669
 30
0.0
 10
29.25696388888889
 20
-5.289729166666663
 30
0.0
 10
29.25763194444444
 20
-5.294065277777778
 30
0.0
 10
29.25834583333332
 20
-5.298388888888894
 30
0.0
 10
29.27851250000001
 20
-5.425568055555559
 30
0.0
 10
29.32014305555555
 20
-5.547618055555555
 30
0.0
 10
29.38220277777777
 20
-5.661512499999995
 30
0.0
 10
29.34652777777777
 20
-5.654380555555551
 30
0.0
 10
29.30772222222222
 20
-5.646183333333334
 30
0.0
 10
29.26202499999999
 20
-5.636141666666668
 30
0.0
 10
29.05876666666667
 20
-5.591294444444442
 30
0.0
 10
28.88723888888888
 20
-5.569152777777782
 30
0.0
 10
28.72416944444444
 20
-5.566893055555561
 30
0.0
 10
28.77183611111112
 20
-5.519123611111113
 30
0.0
 10
28.82015694444445
 20
-5.479173611111112
 30
0.0
 10
28.87128333333334
 20
-5.445198611111108
 30
0.0
 10
28.96088888888889
 20
-5.385645833333329
 30
0.0
 10
29.06041527777778
 20
-5.339463888888885
 30
0.0
 10
29.16713472222222
 20
-5.307911111111113
 30
0.0
  0
SPLINE
  5
47
330
1F
100
AcDbEntity
  8
Layer 1
370
     0
100
AcDbSpline
210
0.0
220
0.0
230
1.0
 70
    11
 71
     3
 72
    38
 73
    34
 74
     0
 42
0.0000000001
 43
0.0000000001
 12
1.0
 22
0.0
 32
0.0
 13
1.0
 23
0.0
 33
0.0
 40
0.0
 40
0.0
 40
0.0
 40
0.0
 40
1.0
 40
1.0
 40
1.0
 40
2.0
 40
2.0
 40
2.0
 40
3.0
 40
3.0
 40
3.0
 40
4.0
 40
4.0
 40
4.0
 40
5.0
 40
5.0
 40
5.0
 40
6.0
 40
6.0
 40
6.0
 40
7.0
 40
7.0
 40
7.0
 40
8.0
 40
8.0
 40
8.0
 40
9.0
 40
9.0
 40
9.0
 40
10.0
 40
10.0
 40
10.0
 40
11.0
 40
11.0
 40
11.0
 40
11.0
 10
29.32342499999999
 20
-4.952937499999999
 30
0.0
 10
29.33332638888889
 20
-4.891863888888893
 30
0.0
 10
29.34853611111112
 20
-4.831611111111114
 30
0.0
 10
29.36868333333334
 20
-4.773165277777783
 30
0.0
 10
29.46170694444444
 20
-4.503348611111114
 30
0.0
 10
29.66439444444444
 20
-4.276838888888884
 30
0.0
 10
29.92351666666666
 20
-4.144650000000007
 30
0.0
 10
30.21005555555555
 20
-3.998479166666673
 30
0.0
 10
30.56109861111112
 20
-3.983568055555553
 30
0.0
 10
30.86146944444443
 20
-4.09918055555555
 30
0.0
 10
31.17982499999999
 20
-4.22172083333333
 30
0.0
 10
31.43336944444445
 20
-4.490463888888889
 30
0.0
 10
31.53057916666666
 20
-4.808984722222223
 30
0.0
 10
31.60657777777778
 20
-5.058013888888884
 30
0.0
 10
31.58823194444443
 20
-5.330701388888883
 30
0.0
 10
31.47902361111111
 20
-5.567845833333333
 30
0.0
 10
31.47794166666666
 20
-5.570194444444446
 30
0.0
 10
31.47669444444444
 20
-5.572705555555558
 30
0.0
 10
31.47434166666666
 20
-5.573895833333331
 30
0.0
 10
31.47184444444444
 20
-5.575156944444441
 30
0.0
 10
31.46881527777777
 20
-5.57456805555556
 30
0.0
 10
31.46606944444445
 20
-5.573951388888885
 30
0.0
 10
31.25161805555555
 20
-5.525677777777774
 30
0.0
 10
31.02965
 20
-5.521098611111117
 30
0.0
 10
30.81173333333332
 20
-5.547734722222217
 30
0.0
 10
30.54921388888889
 20
-5.579825000000002
 30
0.0
 10
30.2996375
 20
-5.671106944444444
 30
0.0
 10
30.03611805555556
 20
-5.700763888888887
 30
0.0
 10
29.84452222222222
 20
-5.722326388888884
 30
0.0
 10
29.65620277777778
 20
-5.711402777777772
 30
0.0
 10
29.46735972222223
 20
-5.677645833333334
 30
0.0
 10
29.33550277777777
 20
-5.461322222222217
 30
0.0
 10
29.28317222222222
 20
-5.201256944444443
 30
0.0
 10
29.32342499999999
 20
-4.952937499999999
 30
0.0
  0
SPLINE
  5
48
330
1F
100
AcDbEntity
  8
Layer 1
370
     0
100
AcDbSpline
210
0.0
220
0.0
230
1.0
 70
    11
 71
     3
 72
    38
 73
    34
 74
     0
 42
0.0000000001
 43
0.0000000001
 12
1.0
 22
0.0
 32
0.0
 13
1.0
 23
0.0
 33
0.0
 40
0.0
 40
0.0
 40
0.0
 40
0.0
 40
1.0
 40
1.0
 40
1.0
 40
2.0
 40
2.0
 40
2.0
 40
3.0
 40
3.0
 40
3.0
 40
4.0
 40
4.0
 40
4.0
 40
5.0
 40
5.0
 40
5.0
 40
6.0
 40
6.0
 40
6.0
 40
7.0
 40
7.0
 40
7.0
 40
8.0
 40
8.0
 40
8.0
 40
9.0
 40
9.0
 40
9.0
 40
10.0
 40
10.0
 40
10.0
 40
11.0
 40
11.0
 40
11.0
 40
11.0
 10
30.97796805555554
 20
-3.146370833333334
 30
0.0
 10
30.96601250000001
 20
-3.147547222222228
 30
0.0
 10
30.9542486111111
 20
-3.25485416666667
 30
0.0
 10
30.95299861111112
 20
-3.267705555555557
 30
0.0
 10
30.94889027777776
 20
-3.309915277777779
 30
0.0
 10
30.94949722222223
 20
-3.352858333333339
 30
0.0
 10
30.95588333333333
 20
-3.394834722222223
 30
0.0
 10
30.96989722222222
 20
-3.487012500000004
 30
0.0
 10
30.99870416666666
 20
-3.576222222222226
 30
0.0
 10
31.01628888888889
 20
-3.667713888888885
 30
0.0
 10
31.03531666666668
 20
-3.766722222222218
 30
0.0
 10
31.03503194444445
 20
-3.867886111111109
 30
0.0
 10
31.02254444444444
 20
-3.967631944444444
 30
0.0
 10
31.01746527777777
 20
-4.008220833333338
 30
0.0
 10
31.01018888888888
 20
-4.04961944444445
 30
0.0
 10
31.00093611111111
 20
-4.09086666666667
 30
0.0
 10
31.00163194444445
 20
-4.087762500000003
 30
0.0
 10
30.94819444444445
 20
-4.065523611111113
 30
0.0
 10
30.94322777777776
 20
-4.063311111111109
 30
0.0
 10
30.86995972222222
 20
-4.030656944444445
 30
0.0
 10
30.7933361111111
 20
-4.00520555555555
 30
0.0
 10
30.71478055555556
 20
-3.987541666666667
 30
0.0
 10
30.70589722222222
 20
-3.985543055555556
 30
0.0
 10
30.60849027777777
 20
-3.968448611111107
 30
0.0
 10
30.60848611111111
 20
-3.968527777777783
 30
0.0
 10
30.60929305555555
 20
-3.922350000000001
 30
0.0
 10
30.60627777777778
 20
-3.878748611111114
 30
0.0
 10
30.61232777777779
 20
-3.832837499999995
 30
0.0
 10
30.63834305555555
 20
-3.635415277777775
 30
0.0
 10
30.67090833333332
 20
-3.392286111111111
 30
0.0
 10
30.81778333333333
 20
-3.240840277777781
 30
0.0
 10
30.84396388888889
 20
-3.213848611111113
 30
0.0
 10
30.90976666666668
 20
-3.153097222222224
 30
0.0
 10
30.97796805555554
 20
-3.146370833333334
 30
0.0
  0
SPLINE
  5
49
330
1F
100
AcDbEntity
  8
Layer 1
370
     0
100
AcDbSpline
210
0.0
220
0.0
230
1.0
 70
    11
 71
     3
 72
    38
 73
    34
 74
     0
 42
0.0000000001
 43
0.0000000001
 12
1.0
 22
0.0
 32
0.0
 13
1.0
 23
0.0
 33
0.0
 40
0.0
 40
0.0
 40
0.0
 40
0.0
 40
1.0
 40
1.0
 40
1.0
 40
2.0
 40
2.0
 40
2.0
 40
3.0
 40
3.0
 40
3.0
 40
4.0
 40
4.0
 40
4.0
 40
5.0
 40
5.0
 40
5.0
 40
6.0
 40
6.0
 40
6.0
 40
7.0
 40
7.0
 40
7.0
 40
8.0
 40
8.0
 40
8.0
 40
9.0
 40
9.0
 40
9.0
 40
10.0
 40
10.0
 40
10.0
 40
11.0
 40
11.0
 40
11.0
 40
11.0
 10
31.88294861111111
 20
-4.735866666666665
 30
0.0
 10
31.86105555555557
 20
-4.753773611111114
 30
0.0
 10
31.83889444444445
 20
-4.770691666666671
 30
0.0
 10
31.81704305555556
 20
-4.786212499999995
 30
0.0
 10
31.80795833333334
 20
-4.787543055555552
 30
0.0
 10
31.79886944444446
 20
-4.788743055555553
 30
0.0
 10
31.7897625
 20
-4.789868055555555
 30
0.0
 10
31.72695138888889
 20
-4.797841666666664
 30
0.0
 10
31.66320277777779
 20
-4.79898472222222
 30
0.0
 10
31.59516388888889
 20
-4.793336111111115
 30
0.0
 10
31.56690694444445
 20
-4.700197222222224
 30
0.0
 10
31.52661666666667
 20
-4.610777777777773
 30
0.0
 10
31.47530833333333
 20
-4.52730555555556
 30
0.0
 10
31.50092222222221
 20
-4.5081375
 30
0.0
 10
31.52615000000002
 20
-4.487612500000005
 30
0.0
 10
31.5503638888889
 20
-4.466198611111117
 30
0.0
 10
31.5503638888889
 20
-4.466198611111117
 30
0.0
 10
31.57436666666667
 20
-4.452768055555553
 30
0.0
 10
31.57436666666667
 20
-4.452768055555553
 30
0.0
 10
31.7708986111111
 20
-4.341987499999997
 30
0.0
 10
31.99393472222222
 20
-4.216212499999996
 30
0.0
 10
32.19292638888889
 20
-4.232047222222225
 30
0.0
 10
32.23149027777777
 20
-4.235133333333339
 30
0.0
 10
32.3219875
 20
-4.247322222222225
 30
0.0
 10
32.36900555555555
 20
-4.294573611111117
 30
0.0
 10
32.26848611111111
 20
-4.333622222222226
 30
0.0
 10
32.18884166666668
 20
-4.389406944444444
 30
0.0
 10
32.12590555555554
 20
-4.46478055555556
 30
0.0
 10
32.10691944444445
 20
-4.487504166666668
 30
0.0
 10
32.08823750000001
 20
-4.510681944444451
 30
0.0
 10
32.06969999999998
 20
-4.53374722222222
 30
0.0
 10
32.01024166666667
 20
-4.607724999999997
 30
0.0
 10
31.95407361111112
 20
-4.677598611111105
 30
0.0
 10
31.88294861111111
 20
-4.735866666666665
 30
0.0
  0
SPLINE
  5
4A
330
1F
100
AcDbEntity
  8
Layer 1
370
     0
100
AcDbSpline
210
0.0
220
0.0
230
1.0
 70
    11
 71
     3
 72
    44
 73
    40
 74
     0
 42
0.0000000001
 43
0.0000000001
 12
1.0
 22
0.0
 32
0.0
 13
1.0
 23
0.0
 33
0.0
 40
0.0
 40
0.0
 40
0.0
 40
0.0
 40
1.0
 40
1.0
 40
1.0
 40
2.0
 40
2.0
 40
2.0
 40
3.0
 40
3.0
 40
3.0
 40
4.0
 40
4.0
 40
4.0
 40
5.0
 40
5.0
 40
5.0
 40
6.0
 40
6.0
 40
6.0
 40
7.0
 40
7.0
 40
7.0
 40
8.0
 40
8.0
 40
8.0
 40
9.0
 40
9.0
 40
9.0
 40
10.0
 40
10.0
 40
10.0
 40
11.0
 40
11.0
 40
11.0
 40
12.0
 40
12.0
 40
12.0
 40
13.0
 40
13.0
 40
13.0
 40
13.0
 10
31.51037638888889
 20
-4.414494444444446
 30
0.0
 10
31.487875
 20
-4.434688888888887
 30
0.0
 10
31.46410972222222
 20
-4.454266666666664
 30
0.0
 10
31.43963333333333
 20
-4.47278055555556
 30
0.0
 10
31.43705277777778
 20
-4.469079166666662
 30
0.0
 10
31.43445277777778
 20
-4.46539166666667
 30
0.0
 10
31.43184722222221
 20
-4.461797222222217
 30
0.0
 10
31.33506666666666
 20
-4.325681944444442
 30
0.0
 10
31.20702222222222
 20
-4.208948611111105
 30
0.0
 10
31.06121111111111
 20
-4.123847222222227
 30
0.0
 10
31.08039722222222
 20
-4.043793055555549
 30
0.0
 10
31.09176527777777
 20
-3.967169444444443
 30
0.0
 10
31.09592916666666
 20
-3.889943055555553
 30
0.0
 10
31.13453472222222
 20
-3.825526388888887
 30
0.0
 10
31.17047083333333
 20
-3.759080555555556
 30
0.0
 10
31.20525277777779
 20
-3.694808333333337
 30
0.0
 10
31.20525277777779
 20
-3.694808333333337
 30
0.0
 10
31.24038194444445
 20
-3.630106944444441
 30
0.0
 10
31.24038194444445
 20
-3.630106944444441
 30
0.0
 10
31.28333333333333
 20
-3.551383333333332
 30
0.0
 10
31.34439861111112
 20
-3.480491666666669
 30
0.0
 10
31.43251944444445
 20
-3.407009722222218
 30
0.0
 10
31.61102222222222
 20
-3.258252777777771
 30
0.0
 10
31.84960833333333
 20
-3.166215277777774
 30
0.0
 10
32.1225111111111
 20
-3.140829166666663
 30
0.0
 10
32.1225111111111
 20
-3.140829166666663
 30
0.0
 10
32.15172499999999
 20
-3.137990277777779
 30
0.0
 10
32.15172499999999
 20
-3.137990277777779
 30
0.0
 10
32.18450972222222
 20
-3.134662500000003
 30
0.0
 10
32.22030972222223
 20
-3.131016666666672
 30
0.0
 10
32.25519027777778
 20
-3.130494444444442
 30
0.0
 10
32.03134166666668
 20
-3.238062500000006
 30
0.0
 10
31.90414722222221
 20
-3.507431944444445
 30
0.0
 10
31.85895833333332
 20
-3.733134722222227
 30
0.0
 10
31.82749027777777
 20
-3.890718055555554
 30
0.0
 10
31.79494861111112
 20
-4.032094444444447
 30
0.0
 10
31.71528194444444
 20
-4.166576388888895
 30
0.0
 10
31.66106527777778
 20
-4.258072222222217
 30
0.0
 10
31.59213472222223
 20
-4.341474999999996
 30
0.0
 10
31.51037638888889
 20
-4.414494444444446
 30
0.0
  0
SPLINE
  5
4B
330
1F
100
AcDbEntity
  8
Layer 1
370
     0
100
AcDbSpline
210
0.0
220
0.0
230
1.0
 70
    11
 71
     3
 72
    26
 73
    22
 74
     0
 42
0.0000000001
 43
0.0000000001
 12
1.0
 22
0.0
 32
0.0
 13
1.0
 23
0.0
 33
0.0
 40
0.0
 40
0.0
 40
0.0
 40
0.0
 40
1.0
 40
1.0
 40
1.0
 40
2.0
 40
2.0
 40
2.0
 40
3.0
 40
3.0
 40
3.0
 40
4.0
 40
4.0
 40
4.0
 40
5.0
 40
5.0
 40
5.0
 40
6.0
 40
6.0
 40
6.0
 40
7.0
 40
7.0
 40
7.0
 40
7.0
 10
31.56570833333333
 20
-5.532591666666664
 30
0.0
 10
31.59719444444444
 20
-5.540158333333339
 30
0.0
 10
31.62927500000001
 20
-5.546447222222215
 30
0.0
 10
31.66122777777776
 20
-5.551297222222224
 30
0.0
 10
31.66527500000001
 20
-5.552922222222226
 30
0.0
 10
31.66934166666667
 20
-5.554480555555553
 30
0.0
 10
31.67352916666666
 20
-5.556044444444447
 30
0.0
 10
31.67352916666666
 20
-5.556044444444447
 30
0.0
 10
31.68723055555557
 20
-5.561141666666672
 30
0.0
 10
31.68723055555557
 20
-5.561141666666672
 30
0.0
 10
31.80728611111113
 20
-5.60639166666667
 30
0.0
 10
31.94132916666667
 20
-5.656901388888892
 30
0.0
 10
32.05317500000001
 20
-5.722176388888884
 30
0.0
 10
31.95521249999999
 20
-5.700726388888888
 30
0.0
 10
31.85759583333333
 20
-5.674313888888896
 30
0.0
 10
31.76268750000001
 20
-5.648643055555554
 30
0.0
 10
31.69017638888888
 20
-5.629036111111114
 30
0.0
 10
31.61535000000001
 20
-5.608804166666661
 30
0.0
 10
31.54090972222222
 20
-5.590901388888887
 30
0.0
 10
31.54975138888888
 20
-5.57163611111111
 30
0.0
 10
31.55806527777776
 20
-5.552104166666671
 30
0.0
 10
31.56570833333333
 20
-5.532591666666664
 30
0.0
  0
SPLINE
  5
4C
330
1F
100
AcDbEntity
  8
Layer 1
370
     0
100
AcDbSpline
210
0.0
220
0.0
230
1.0
 70
    11
 71
     3
 72
    50
 73
    46
 74
     0
 42
0.0000000001
 43
0.0000000001
 12
1.0
 22
0.0
 32
0.0
 13
1.0
 23
0.0
 33
0.0
 40
0.0
 40
0.0
 40
0.0
 40
0.0
 40
1.0
 40
1.0
 40
1.0
 40
2.0
 40
2.0
 40
2.0
 40
3.0
 40
3.0
 40
3.0
 40
4.0
 40
4.0
 40
4.0
 40
5.0
 40
5.0
 40
5.0
 40
6.0
 40
6.0
 40
6.0
 40
7.0
 40
7.0
 40
7.0
 40
8.0
 40
8.0
 40
8.0
 40
9.0
 40
9.0
 40
9.0
 40
10.0
 40
10.0
 40
10.0
 40
11.0
 40
11.0
 40
11.0
 40
12.0
 40
12.0
 40
12.0
 40
13.0
 40
13.0
 40
13.0
 40
14.0
 40
14.0
 40
14.0
 40
15.0
 40
15.0
 40
15.0
 40
15.0
 10
31.67797777777779
 20
-5.488822222222224
 30
0.0
 10
31.64842361111111
 20
-5.484495833333337
 30
0.0
 10
31.61807499999999
 20
-5.478720833333328
 30
0.0
 10
31.58758333333334
 20
-5.471644444444451
 30
0.0
 10
31.58894166666667
 20
-5.467498611111106
 30
0.0
 10
31.59030416666668
 20
-5.463329166666666
 30
0.0
 10
31.59166805555555
 20
-5.459141666666672
 30
0.0
 10
31.62602083333334
 20
-5.349859722222226
 30
0.0
 10
31.64344305555556
 20
-5.235947222222219
 30
0.0
 10
31.64344305555556
 20
-5.120572222222222
 30
0.0
 10
31.64344305555556
 20
-5.066995833333332
 30
0.0
 10
31.63958194444444
 20
-5.012840277777778
 30
0.0
 10
31.63195833333333
 20
-4.959584722222226
 30
0.0
 10
31.62974166666666
 20
-4.944174999999998
 30
0.0
 10
31.62728194444445
 20
-4.928858333333336
 30
0.0
 10
31.62443888888889
 20
-4.913762499999999
 30
0.0
 10
31.62106388888888
 20
-4.895523611111116
 30
0.0
 10
31.61717916666667
 20
-4.877205555555557
 30
0.0
 10
31.61287083333334
 20
-4.859144444444445
 30
0.0
 10
31.75824722222223
 20
-4.867976388888892
 30
0.0
 10
31.903325
 20
-4.844023611111108
 30
0.0
 10
32.04539722222223
 20
-4.81668194444444
 30
0.0
 10
32.11043472222223
 20
-4.804166666666661
 30
0.0
 10
32.17521527777777
 20
-4.786829166666672
 30
0.0
 10
32.24158749999999
 20
-4.784597222222222
 30
0.0
 10
32.30882777777778
 20
-4.782333333333339
 30
0.0
 10
32.37611111111111
 20
-4.789536111111109
 30
0.0
 10
32.44210555555555
 20
-4.801665277777778
 30
0.0
 10
32.67327916666666
 20
-4.844136111111109
 30
0.0
 10
32.89629166666666
 20
-4.967605555555552
 30
0.0
 10
33.08705277777777
 20
-5.158768055555558
 30
0.0
 10
33.08705277777777
 20
-5.158768055555558
 30
0.0
 10
33.10748055555556
 20
-5.178990277777782
 30
0.0
 10
33.10748055555556
 20
-5.178990277777782
 30
0.0
 10
33.13061666666665
 20
-5.201849999999998
 30
0.0
 10
33.15590416666666
 20
-5.226820833333337
 30
0.0
 10
33.17801805555556
 20
-5.252891666666667
 30
0.0
 10
32.95170833333332
 20
-5.150215277777773
 30
0.0
 10
32.65518472222222
 20
-5.221773611111113
 30
0.0
 10
32.44503611111112
 20
-5.328316666666662
 30
0.0
 10
32.29812361111112
 20
-5.40269444444444
 30
0.0
 10
32.16367500000001
 20
-5.46616805555555
 30
0.0
 10
32.00593194444446
 20
-5.48954166666667
 30
0.0
 10
31.89827499999998
 20
-5.50549305555555
 30
0.0
 10
31.78795555555555
 20
-5.505259722222225
 30
0.0
 10
31.67797777777779
 20
-5.488822222222224
 30
0.0
  0
HATCH
  5
4D
330
1F
100
AcDbEntity
  8
Layer 1
 62
    35
420
 10579544
100
AcDbHatch
 10
0.0
 20
0.0
 30
0.0
210
0.0
220
0.0
230
1.0
  2
SOLID
 70
     1
 71
     0
 91
       12
 92
        1
 93
        1
 72
     4
 94
        3
 73
     0
 74
     1
 95
      278
 96
      274
 40
0.0
 40
0.0
 40
0.0
 40
0.0
 40
1.0
 40
1.0
 40
1.0
 40
2.0
 40
2.0
 40
2.0
 40
3.0
 40
3.0
 40
3.0
 40
4.0
 40
4.0
 40
4.0
 40
5.0
 40
5.0
 40
5.0
 40
6.0
 40
6.0
 40
6.0
 40
7.0
 40
7.0
 40
7.0
 40
8.0
 40
8.0
 40
8.0
 40
9.0
 40
9.0
 40
9.0
 40
10.0
 40
10.0
 40
10.0
 40
11.0
 40
11.0
 40
11.0
 40
12.0
 40
12.0
 40
12.0
 40
13.0
 40
13.0
 40
13.0
 40
14.0
 40
14.0
 40
14.0
 40
15.0
 40
15.0
 40
15.0
 40
16.0
 40
16.0
 40
16.0
 40
17.0
 40
17.0
 40
17.0
 40
18.0
 40
18.0
 40
18.0
 40
19.0
 40
19.0
 40
19.0
 40
20.0
 40
20.0
 40
20.0
 40
21.0
 40
21.0
 40
21.0
 40
22.0
 40
22.0
 40
22.0
 40
23.0
 40
23.0
 40
23.0
 40
24.0
 40
24.0
 40
24.0
 40
25.0
 40
25.0
 40
25.0
 40
26.0
 40
26.0
 40
26.0
 40
27.0
 40
27.0
 40
27.0
 40
28.0
 40
28.0
 40
28.0
 40
29.0
 40
29.0
 40
29.0
 40
30.0
 40
30.0
 40
30.0
 40
31.0
 40
31.0
 40
31.0
 40
32.0
 40
32.0
 40
32.0
 40
33.0
 40
33.0
 40
33.0
 40
34.0
 40
34.0
 40
34.0
 40
35.0
 40
35.0
 40
35.0
 40
36.0
 40
36.0
 40
36.0
 40
37.0
 40
37.0
 40
37.0
 40
38.0
 40
38.0
 40
38.0
 40
39.0
 40
39.0
 40
39.0
 40
40.0
 40
40.0
 40
40.0
 40
41.0
 40
41.0
 40
41.0
 40
42.0
 40
42.0
 40
42.0
 40
43.0
 40
43.0
 40
43.0
 40
44.0
 40
44.0
 40
44.0
 40
45.0
 40
45.0
 40
45.0
 40
46.0
 40
46.0
 40
46.0
 40
47.0
 40
47.0
 40
47.0
 40
48.0
 40
48.0
 40
48.0
 40
49.0
 40
49.0
 40
49.0
 40
50.0
 40
50.0
 40
50.0
 40
51.0
 40
51.0
 40
51.0
 40
52.0
 40
52.0
 40
52.0
 40
53.0
 40
53.0
 40
53.0
 40
54.0
 40
54.0
 40
54.0
 40
55.0
 40
55.0
 40
55.0
 40
56.0
 40
56.0
 40
56.0
 40
57.0
 40
57.0
 40
57.0
 40
58.0
 40
58.0
 40
58.0
 40
59.0
 40
59.0
 40
59.0
 40
60.0
 40
60.0
 40
60.0
 40
61.0
 40
61.0
 40
61.0
 40
62.0
 40
62.0
 40
62.0
 40
63.0
 40
63.0
 40
63.0
 40
64.0
 40
64.0
 40
64.0
 40
65.0
 40
65.0
 40
65.0
 40
66.0
 40
66.0
 40
66.0
 40
67.0
 40
67.0
 40
67.0
 40
68.0
 40
68.0
 40
68.0
 40
69.0
 40
69.0
 40
69.0
 40
70.0
 40
70.0
 40
70.0
 40
71.0
 40
71.0
 40
71.0
 40
72.0
 40
72.0
 40
72.0
 40
73.0
 40
73.0
 40
73.0
 40
74.0
 40
74.0
 40
74.0
 40
75.0
 40
75.0
 40
75.0
 40
76.0
 40
76.0
 40
76.0
 40
77.0
 40
77.0
 40
77.0
 40
78.0
 40
78.0
 40
78.0
 40
79.0
 40
79.0
 40
79.0
 40
80.0
 40
80.0
 40
80.0
 40
81.0
 40
81.0
 40
81.0
 40
82.0
 40
82.0
 40
82.0
 40
83.0
 40
83.0
 40
83.0
 40
84.0
 40
84.0
 40
84.0
 40
85.0
 40
85.0
 40
85.0
 40
86.0
 40
86.0
 40
86.0
 40
87.0
 40
87.0
 40
87.0
 40
88.0
 40
88.0
 40
88.0
 40
89.0
 40
89.0
 40
89.0
 40
90.0
 40
90.0
 40
90.0
 40
91.0
 40
91.0
 40
91.0
 40
91.0
 10
28.23260833333333
 20
-5.708381944444441
 10
28.44687361111111
 20
-5.620461111111113
 10
28.70908611111112
 20
-5.607445833333334
 10
29.00416249999999
 20
-5.651088888888883
 10
29.09454444444444
 20
-5.664481944444447
 10
29.18535
 20
-5.684377777777778
 10
29.27318611111112
 20
-5.703611111111109
 10
29.35980416666666
 20
-5.722581944444439
 10
29.4493875
 20
-5.742198611111108
 10
29.53883055555555
 20
-5.755670833333334
 10
29.75780555555555
 20
-5.788641666666662
 10
29.98651388888889
 20
-5.782050000000001
 10
30.21855555555555
 20
-5.736083333333327
 10
30.2964125
 20
-5.720659722222219
 10
30.37471666666667
 20
-5.701649999999997
 10
30.45041527777778
 20
-5.683262500000006
 10
30.55992222222224
 20
-5.656668055555555
 10
30.67315
 20
-5.629162499999993
 10
30.78647916666667
 20
-5.612236111111113
 10
31.12631944444443
 20
-5.561473611111106
 10
31.43544722222221
 20
-5.638031944444442
 10
31.76272916666668
 20
-5.719113888888892
 10
31.88788750000001
 20
-5.750125
 10
32.01733611111111
 20
-5.78218611111111
 10
32.14749583333334
 20
-5.806044444444447
 10
32.26124999999999
 20
-5.826906944444444
 10
32.36459861111111
 20
-5.837144444444448
 10
32.46195000000002
 20
-5.837144444444448
 10
32.47723333333334
 20
-5.837144444444448
 10
32.49240000000001
 20
-5.836887500000001
 10
32.50739861111111
 20
-5.836383333333338
 10
32.52384444444444
 20
-5.835752777777783
 10
32.54054305555557
 20
-5.832163888888886
 10
32.55259166666666
 20
-5.824591666666669
 10
32.56192777777778
 20
-5.818719444444443
 10
32.56737083333334
 20
-5.810413888888888
 10
32.5674138888889
 20
-5.799476388888883
 10
32.56743194444445
 20
-5.790466666666664
 10
32.56386111111111
 20
-5.781005555555553
 10
32.55717638888889
 20
-5.775930555555558
 10
32.54721388888889
 20
-5.768247222222221
 10
32.53357361111109
 20
-5.767606944444449
 10
32.5248625
 20
-5.767980555555558
 10
32.42686805555556
 20
-5.772172222222227
 10
32.32351388888888
 20
-5.769002777777776
 10
32.20855972222223
 20
-5.751422222222218
 10
32.11368888888889
 20
-5.671330555555553
 10
31.99068611111112
 20
-5.612450000000004
 10
31.87585277777778
 20
-5.565222222222221
 10
31.92270833333333
 20
-5.563990277777773
 10
31.96970694444445
 20
-5.559947222222225
 10
32.01599166666667
 20
-5.553159722222227
 10
32.1838611111111
 20
-5.528170833333332
 10
32.32349583333333
 20
-5.462354166666665
 10
32.4756875
 20
-5.385291666666666
 10
32.69393055555555
 20
-5.274730555555556
 10
33.00090138888888
 20
-5.205631944444449
 10
33.20792222222222
 20
-5.343198611111107
 10
33.23697222222222
 20
-5.362562500000005
 10
33.26275972222222
 20
-5.349972222222227
 10
33.26928472222221
 20
-5.345043055555556
 10
33.28827083333335
 20
-5.33070694444445
 10
33.29086111111112
 20
-5.305465277777785
 10
33.27931250000001
 20
-5.283776388888882
 10
33.24955277777778
 20
-5.227558333333339
 10
33.19924444444445
 20
-5.17786527777778
 10
33.15484444444446
 20
-5.133993055555556
 10
33.15484444444446
 20
-5.133993055555556
 10
33.13465972222222
 20
-5.114088888888887
 10
33.13465972222222
 20
-5.114088888888887
 10
32.93446805555555
 20
-4.913331944444445
 10
32.69927499999999
 20
-4.783463888888895
 10
32.45450833333332
 20
-4.73851805555556
 10
32.33016111111111
 20
-4.715658333333332
 10
32.20522638888888
 20
-4.717618055555552
 10
32.05990138888887
 20
-4.744983333333329
 10
32.0235736111111
 20
-4.751761111111111
 10
31.98629305555556
 20
-4.758718055555556
 10
31.94886805555555
 20
-4.765280555555553
 10
32.01363472222222
 20
-4.707824999999994
 10
32.06870555555555
 20
-4.640636111111108
 10
32.12214722222221
 20
-4.575444444444441
 10
32.13355138888889
 20
-4.561527777777782
 10
32.14493194444445
 20
-4.547636111111109
 10
32.15641666666667
 20
-4.533836111111112
 10
32.23451944444446
 20
-4.439930555555557
 10
32.30977083333333
 20
-4.384627777777774
 10
32.40935694444445
 20
-4.348452777777778
 10
32.41519305555557
 20
-4.346362500000004
 10
32.4273486111111
 20
-4.342029166666672
 10
32.43698333333332
 20
-4.327979166666662
 10
32.43698333333332
 20
-4.327979166666662
 10
32.43820277777778
 20
-4.326036111111105
 10
32.43820277777778
 20
-4.326036111111105
 10
32.4430625
 20
-4.317522222222225
 10
32.452375
 20
-4.29500277777778
 10
32.43385694444444
 20
-4.26986944444444
 10
32.37528888888889
 20
-4.189912500000004
 10
32.24957916666666
 20
-4.171986111111108
 10
32.19825277777777
 20
-4.167986111111114
 10
32.03109861111112
 20
-4.154840277777781
 10
31.85853472222223
 20
-4.226519444444445
 10
31.69511527777778
 20
-4.312429166666663
 10
31.72353472222224
 20
-4.275919444444449
 10
31.74957361111112
 20
-4.237779166666668
 10
31.77283055555555
 20
-4.198600000000005
 10
31.85739583333333
 20
-4.055776388888893
 10
31.89136111111111
 20
-3.90888194444445
 10
31.92409027777777
 20
-3.745448611111113
 10
31.97098611111111
 20
-3.511129166666668
 10
32.11151805555556
 20
-3.241569444444445
 10
32.34671111111111
 20
-3.164165277777784
 10
32.38007916666667
 20
-3.153180555555561
 10
32.38831388888889
 20
-3.126805555555557
 10
32.38841666666667
 20
-3.118813888888894
 10
32.3887375
 20
-3.095855555555557
 10
32.36762361111111
 20
-3.077719444444445
 10
32.34323194444444
 20
-3.072986111111113
 10
32.25567638888889
 20
-3.05599861111111
 10
32.16617777777778
 20
-3.06836527777778
 10
32.07966111111111
 20
-3.080348611111112
 10
32.07966111111111
 20
-3.080348611111112
 10
32.0615861111111
 20
-3.082831944444441
 10
32.0615861111111
 20
-3.082831944444441
 10
31.96901666666668
 20
-3.095491666666665
 10
31.88800972222222
 20
-3.11252083333333
 10
31.81393472222223
 20
-3.134877777777774
 10
31.65085972222222
 20
-3.184108333333332
 10
31.50797638888889
 20
-3.259265277777773
 10
31.38926388888889
 20
-3.35826388888889
 10
31.29365972222222
 20
-3.437991666666663
 10
31.21734861111112
 20
-3.533891666666666
 10
31.14910833333334
 20
-3.66010555555556
 10
31.13162638888889
 20
-3.692483333333333
 10
31.11371944444444
 20
-3.725693055555553
 10
31.09532222222222
 20
-3.758762500000001
 10
31.08956666666667
 20
-3.689056944444448
 10
31.07424027777776
 20
-3.620401388888884
 10
31.05934027777779
 20
-3.553740277777782
 10
31.02884722222221
 20
-3.41715833333333
 10
31.00002083333334
 20
-3.288148611111107
 10
31.04643194444444
 20
-3.14970833333334
 10
31.04832222222222
 20
-3.144427777777777
 10
31.05273472222221
 20
-3.132080555555553
 10
31.04734722222221
 20
-3.115751388888889
 10
31.04734722222221
 20
-3.115751388888889
 10
31.04649305555555
 20
-3.11341805555556
 10
31.04649305555555
 20
-3.11341805555556
 10
31.03840277777777
 20
-3.094534722222218
 10
31.02092083333332
 20
-3.082986111111116
 10
30.99849861111112
 20
-3.081715277777776
 10
30.89763333333334
 20
-3.076048611111117
 10
30.80473194444446
 20
-3.160379166666669
 10
30.76948194444445
 20
-3.196754166666665
 10
30.65434583333333
 20
-3.315652777777776
 10
30.60476527777779
 20
-3.490818055555552
 10
30.57219999999999
 20
-3.668152777777777
 10
30.56053333333332
 20
-3.624056944444444
 10
30.54602083333333
 20
-3.580591666666666
 10
30.52884166666667
 20
-3.538386111111107
 10
30.46627361111112
 20
-3.384956944444449
 10
30.36904444444445
 20
-3.267733333333328
 10
30.25772638888889
 20
-3.141183333333338
 10
30.09800972222222
 20
-2.959581944444444
 10
29.96020833333333
 20
-2.684849999999996
 10
30.05245694444445
 20
-2.458413888888888
 10
30.06554722222222
 20
-2.426399999999994
 10
30.045525
 20
-2.407554166666664
 10
30.03920416666667
 20
-2.402629166666669
 10
30.02097083333333
 20
-2.388036111111117
 10
29.99588333333334
 20
-2.388684722222226
 10
29.9768375
 20
-2.404188888888888
 10
29.8479388888889
 20
-2.509091666666664
 10
29.772725
 20
-2.666386111111112
 10
29.70674027777778
 20
-2.818495833333334
 10
29.58410138888889
 20
-3.101130555555554
 10
29.58373333333333
 20
-3.405422222222228
 10
29.70572222222222
 20
-3.675337500000005
 10
29.72005416666666
 20
-3.706861111111114
 10
29.73585138888888
 20
-3.741597222222228
 10
29.75134027777777
 20
-3.776734722222222
 10
29.6776486111111
 20
-3.727438888888893
 10
29.59737361111111
 20
-3.691026388888885
 10
29.51948055555555
 20
-3.655688888888891
 10
29.39060138888889
 20
-3.597225000000005
 10
29.30131666666667
 20
-3.528933333333334
 10
29.23037499999999
 20
-3.434818055555549
 10
29.22730277777777
 20
-3.430108333333338
 10
29.22012777777778
 20
-3.419072222222225
 10
29.20386805555555
 20
-3.412961111111106
 10
29.20386805555555
 20
-3.412961111111106
 10
29.20122638888889
 20
-3.412172222222226
 10
29.20122638888889
 20
-3.412172222222226
 10
29.19162777777778
 20
-3.409413888888884
 10
29.16707361111111
 20
-3.405520833333336
 10
29.14575000000001
 20
-3.428730555555553
 10
29.07840138888889
 20
-3.501965277777774
 10
29.08832083333333
 20
-3.624738888888891
 10
29.09570138888888
 20
-3.674113888888895
 10
29.11975277777777
 20
-3.835605555555553
 10
29.23014999999999
 20
-3.982472222222226
 10
29.35287222222223
 20
-4.117797222222217
 10
29.19461666666666
 20
-4.049736111111113
 10
29.01152499999999
 20
-4.017623611111111
 10
28.80834583333333
 20
-4.022422222222227
 10
28.63433055555555
 20
-4.026497222222221
 10
28.4776
 20
-4.024872222222219
 10
28.31945138888889
 20
-3.964144444444451
 10
28.23472361111111
 20
-3.931602777777774
 10
28.11974583333333
 20
-3.869258333333328
 10
28.0532236111111
 20
-3.757030555555553
 10
28.03552777777778
 20
-3.727191666666663
 10
28.00786388888889
 20
-3.730608333333331
 10
27.99990416666666
 20
-3.732326388888888
 10
27.97681944444444
 20
-3.737093055555558
 10
27.9617
 20
-3.756465277777781
 10
27.96226944444444
 20
-3.780572222222228
 10
27.96665694444444
 20
-3.945901388888892
 10
28.05223055555555
 20
-4.11344305555556
 10
28.13534722222222
 20
-4.25552777777778
 10
28.22211944444444
 20
-4.403841666666671
 10
28.33179861111111
 20
-4.526101388888883
 10
28.46135972222222
 20
-4.618919444444448
 10
28.60141944444445
 20
-4.719243055555554
 10
28.76764861111111
 20
-4.769183333333331
 10
28.92915416666667
 20
-4.80610833333334
 10
28.88095555555555
 20
-4.825127777777778
 10
28.83213055555555
 20
-4.847754166666669
 10
28.78460416666667
 20
-4.869763888888883
 10
28.65214861111111
 20
-4.931127777777773
 10
28.51515555555557
 20
-4.994694444444449
 10
28.37377499999999
 20
-4.992005555555553
 10
28.3676875
 20
-4.991898611111107
 10
28.36099861111111
 20
-4.991127777777781
 10
28.35408888888888
 20
-4.990362499999997
 10
28.33418888888889
 20
-4.988122222222223
 10
28.31162222222223
 20
-4.985609722222218
 10
28.29364027777778
 20
-4.995856944444439
 10
28.29364027777778
 20
-4.995856944444439
 10
28.29134444444445
 20
-4.99737916666667
 10
28.29134444444445
 20
-4.99737916666667
 10
28.27408611111111
 20
-5.009240277777772
 10
28.26637361111111
 20
-5.028337499999995
 10
28.27017361111112
 20
-5.049751388888883
 10
28.29405138888889
 20
-5.185874999999997
 10
28.45467916666666
 20
-5.255748611111104
 10
28.52263888888889
 20
-5.279468055555551
 10
28.65913749999999
 20
-5.327144444444444
 10
28.81017638888889
 20
-5.329058333333339
 10
28.95470833333333
 20
-5.322247222222219
 10
28.91273194444444
 20
-5.343208333333337
 10
28.87223472222222
 20
-5.366609722222228
 10
28.83385833333333
 20
-5.392102777777773
 10
28.76305555555556
 20
-5.439134722222219
 10
28.69914305555555
 20
-5.495040277777775
 10
28.63306111111112
 20
-5.567822222222225
 10
28.61248749999999
 20
-5.56845277777778
 10
28.5918361111111
 20
-5.569474999999998
 10
28.57120277777777
 20
-5.570875000000001
 10
28.42080277777778
 20
-5.58105694444445
 10
28.27399722222223
 20
-5.617711111111109
 10
28.13487083333333
 20
-5.679854166666662
 10
28.12401805555555
 20
-5.684672222222225
 10
28.1153486111111
 20
-5.68979722222222
 10
28.10833194444444
 20
-5.695548611111108
 10
28.09594305555555
 20
-5.70581944444445
 10
28.09369722222221
 20
-5.721448611111112
 10
28.1026
 20
-5.735350000000001
 10
28.11039583333334
 20
-5.74758055555555
 10
28.128975
 20
-5.74856527777778
 10
28.14413333333333
 20
-5.743234722222218
 10
28.16804305555556
 20
-5.734827777777784
 10
28.20918333333333
 20
-5.717993055555553
 10
28.23260833333333
 20
-5.708381944444441
 97
        0
 97
        0
 92
        1
 93
        1
 72
     4
 94
        3
 73
     0
 74
     1
 95
       65
 96
       61
 40
0.0
 40
0.0
 40
0.0
 40
0.0
 40
1.0
 40
1.0
 40
1.0
 40
2.0
 40
2.0
 40
2.0
 40
3.0
 40
3.0
 40
3.0
 40
4.0
 40
4.0
 40
4.0
 40
5.0
 40
5.0
 40
5.0
 40
6.0
 40
6.0
 40
6.0
 40
7.0
 40
7.0
 40
7.0
 40
8.0
 40
8.0
 40
8.0
 40
9.0
 40
9.0
 40
9.0
 40
10.0
 40
10.0
 40
10.0
 40
11.0
 40
11.0
 40
11.0
 40
12.0
 40
12.0
 40
12.0
 40
13.0
 40
13.0
 40
13.0
 40
14.0
 40
14.0
 40
14.0
 40
15.0
 40
15.0
 40
15.0
 40
16.0
 40
16.0
 40
16.0
 40
17.0
 40
17.0
 40
17.0
 40
18.0
 40
18.0
 40
18.0
 40
19.0
 40
19.0
 40
19.0
 40
20.0
 40
20.0
 40
20.0
 40
20.0
 10
30.20729583333333
 20
-3.182847222222222
 10
30.31462777777779
 20
-3.304883333333338
 10
30.40825694444445
 20
-3.41764305555556
 10
30.46716527777778
 20
-3.562044444444445
 10
30.50719027777778
 20
-3.660095833333331
 10
30.53146527777777
 20
-3.764401388888889
 10
30.53935
 20
-3.872115277777779
 10
30.54160972222222
 20
-3.901637500000005
 10
30.54258472222222
 20
-3.931654166666665
 10
30.54225833333334
 20
-3.961511111111109
 10
30.53770694444444
 20
-3.961166666666663
 10
30.53317361111111
 20
-3.960838888888891
 10
30.52865972222222
 20
-3.960554166666661
 10
30.50080833333332
 20
-3.958602777777779
 10
30.47226805555556
 20
-3.957618055555561
 10
30.44380972222223
 20
-3.957618055555561
 10
30.29732777777778
 20
-3.957618055555561
 10
30.15395277777778
 20
-3.98310138888889
 10
30.0176375
 20
-4.033387500000003
 10
30.00273611111111
 20
-4.038984722222216
 10
29.98797500000001
 20
-4.044768055555551
 10
29.97348055555555
 20
-4.050869444444439
 10
29.956325
 20
-4.057886111111113
 10
29.93864166666668
 20
-4.065691666666668
 10
29.92075277777778
 20
-4.074136111111114
 10
29.91382083333334
 20
-4.032616666666664
 10
29.90420416666666
 20
-3.991873611111108
 10
29.89215138888888
 20
-3.952829166666662
 10
29.88670416666667
 20
-3.935122222222225
 10
29.88056527777778
 20
-3.917247222222222
 10
29.87389444444444
 20
-3.899704166666664
 10
29.86895555555556
 20
-3.886777777777777
 10
29.86385277777778
 20
-3.873837499999998
 10
29.85864722222221
 20
-3.860912500000002
 10
29.82972361111111
 20
-3.788629166666662
 10
29.79756388888889
 20
-3.717841666666661
 10
29.76646527777777
 20
-3.649372222222218
 10
29.76646527777777
 20
-3.649372222222218
 10
29.76646527777777
 20
-3.649381944444447
 10
29.76646527777777
 20
-3.649381944444447
 10
29.76646527777777
 20
-3.649381944444447
 10
29.7613625
 20
-3.638169444444442
 10
29.7613625
 20
-3.638169444444442
 10
29.75369722222222
 20
-3.621298611111115
 10
29.74605555555556
 20
-3.604455555555559
 10
29.73845138888888
 20
-3.587477777777773
 10
29.70175972222222
 20
-3.50587777777778
 10
29.68265277777778
 20
-3.415426388888894
 10
29.67834305555556
 20
-3.302811111111105
 10
29.66967916666666
 20
-3.074699999999994
 10
29.74422638888889
 20
-2.836448611111109
 10
29.89389722222222
 20
-2.613786111111115
 10
29.89389722222222
 20
-2.613786111111115
 10
29.90989583333334
 20
-2.589720833333331
 10
29.90989583333334
 20
-2.589720833333331
 10
29.9276625
 20
-2.562837500000001
 10
29.94707777777777
 20
-2.533483333333328
 10
29.96823888888889
 20
-2.506898611111107
 10
29.9154875
 20
-2.743622222222219
 10
30.05343333333333
 20
-3.007940277777783
 10
30.20729583333333
 20
-3.182847222222222
 97
        0
 97
        0
 92
        1
 93
        1
 72
     4
 94
        3
 73
     0
 74
     1
 95
       53
 96
       49
 40
0.0
 40
0.0
 40
0.0
 40
0.0
 40
1.0
 40
1.0
 40
1.0
 40
2.0
 40
2.0
 40
2.0
 40
3.0
 40
3.0
 40
3.0
 40
4.0
 40
4.0
 40
4.0
 40
5.0
 40
5.0
 40
5.0
 40
6.0
 40
6.0
 40
6.0
 40
7.0
 40
7.0
 40
7.0
 40
8.0
 40
8.0
 40
8.0
 40
9.0
 40
9.0
 40
9.0
 40
10.0
 40
10.0
 40
10.0
 40
11.0
 40
11.0
 40
11.0
 40
12.0
 40
12.0
 40
12.0
 40
13.0
 40
13.0
 40
13.0
 40
14.0
 40
14.0
 40
14.0
 40
15.0
 40
15.0
 40
15.0
 40
16.0
 40
16.0
 40
16.0
 40
16.0
 10
29.61761527777778
 20
-4.273220833333337
 10
29.60681250000001
 20
-4.273879166666663
 10
29.59728472222222
 20
-4.261933333333332
 10
29.58968472222222
 20
-4.256051388888888
 10
29.57575
 20
-4.245262500000004
 10
29.56126527777778
 20
-4.235123611111109
 10
29.54706527777777
 20
-4.224666666666672
 10
29.51259444444445
 20
-4.199286111111115
 10
29.4840625
 20
-4.162668055555551
 10
29.45454583333334
 20
-4.131974999999999
 10
29.42242916666666
 20
-4.098583333333332
 10
29.39065277777778
 20
-4.064865277777774
 10
29.36022916666666
 20
-4.030002777777781
 10
29.29982361111111
 20
-3.960769444444445
 10
29.24398194444445
 20
-3.886479166666668
 10
29.20522638888888
 20
-3.803554166666673
 10
29.19451388888889
 20
-3.780623611111107
 10
29.18514444444445
 20
-3.757095833333336
 10
29.17744166666666
 20
-3.73305416666666
 10
29.15369999999999
 20
-3.658970833333329
 10
29.13830416666666
 20
-3.553679166666661
 10
29.18503750000001
 20
-3.484534722222217
 10
29.17750694444445
 20
-3.495962500000006
 10
29.238675
 20
-3.547358333333338
 10
29.24640972222222
 20
-3.554533333333337
 10
29.34627638888888
 20
-3.647113888888889
 10
29.47044583333334
 20
-3.69878055555556
 10
29.59129583333333
 20
-3.759826388888895
 10
29.66602916666666
 20
-3.797569444444447
 10
29.73805
 20
-3.843018055555553
 10
29.80177083333333
 20
-3.896581944444443
 10
29.80955277777778
 20
-3.903122222222224
 10
29.81384722222222
 20
-3.927494444444442
 10
29.81709166666667
 20
-3.936597222222228
 10
29.82899027777777
 20
-3.969965277777773
 10
29.83871527777779
 20
-4.004025000000007
 10
29.84769166666667
 20
-4.038229166666661
 10
29.84975000000001
 20
-4.046066666666661
 10
29.86842777777777
 20
-4.100356944444444
 10
29.8585875
 20
-4.10570694444444
 10
29.8034236111111
 20
-4.135709722222221
 10
29.75072916666666
 20
-4.169973611111118
 10
29.70111944444445
 20
-4.208015277777778
 10
29.67615833333333
 20
-4.227155555555555
 10
29.65306527777778
 20
-4.248156944444442
 10
29.62882777777778
 20
-4.26807222222222
 10
29.62467777777778
 20
-4.271484722222226
 10
29.62102222222222
 20
-4.273015277777782
 10
29.61761527777778
 20
-4.273220833333337
 97
        0
 97
        0
 92
        1
 93
        1
 72
     4
 94
        3
 73
     0
 74
     1
 95
       47
 96
       43
 40
0.0
 40
0.0
 40
0.0
 40
0.0
 40
1.0
 40
1.0
 40
1.0
 40
2.0
 40
2.0
 40
2.0
 40
3.0
 40
3.0
 40
3.0
 40
4.0
 40
4.0
 40
4.0
 40
5.0
 40
5.0
 40
5.0
 40
6.0
 40
6.0
 40
6.0
 40
7.0
 40
7.0
 40
7.0
 40
8.0
 40
8.0
 40
8.0
 40
9.0
 40
9.0
 40
9.0
 40
10.0
 40
10.0
 40
10.0
 40
11.0
 40
11.0
 40
11.0
 40
12.0
 40
12.0
 40
12.0
 40
13.0
 40
13.0
 40
13.0
 40
14.0
 40
14.0
 40
14.0
 40
14.0
 10
29.56163888888889
 20
-4.333454166666671
 10
29.444
 20
-4.457283333333331
 10
29.35400694444444
 20
-4.606791666666671
 10
29.30138194444445
 20
-4.7658125
 10
29.29652222222222
 20
-4.780518055555553
 10
29.29192916666667
 20
-4.795297222222226
 10
29.28771805555556
 20
-4.810206944444442
 10
29.28259722222222
 20
-4.827993055555553
 10
29.27788194444444
 20
-4.846166666666666
 10
29.27367222222223
 20
-4.864386111111116
 10
29.23586388888889
 20
-4.843738888888891
 10
29.19720277777777
 20
-4.825711111111117
 10
29.15861944444444
 20
-4.810730555555551
 10
29.0435763888889
 20
-4.766069444444446
 10
28.92323055555556
 20
-4.736038888888894
 10
28.80315138888889
 20
-4.707231944444439
 10
28.69132916666667
 20
-4.680412500000001
 10
28.59353472222223
 20
-4.633548611111109
 10
28.50075416666666
 20
-4.567124999999995
 10
28.31145
 20
-4.431602777777774
 10
28.16580277777777
 20
-4.226556944444446
 10
28.07957222222222
 20
-3.974162499999996
 10
28.0765611111111
 20
-3.965316666666669
 10
28.07345138888889
 20
-3.956277777777776
 10
28.07024861111111
 20
-3.947152777777774
 10
28.05960555555556
 20
-3.916930555555559
 10
28.04799166666666
 20
-3.883912500000001
 10
28.03969583333334
 20
-3.851048611111107
 10
28.19757361111111
 20
-4.038504166666661
 10
28.49724861111111
 20
-4.098788888888887
 10
28.73388472222223
 20
-4.09151527777778
 10
28.89927361111111
 20
-4.086218055555555
 10
29.04870277777778
 20
-4.085597222222228
 10
29.20169305555555
 20
-4.130962499999997
 10
29.30560694444445
 20
-4.161837499999996
 10
29.4048111111111
 20
-4.208436111111117
 10
29.4965263888889
 20
-4.269490277777777
 10
29.52201944444444
 20
-4.286343055555562
 10
29.54706527777777
 20
-4.304511111111108
 10
29.57115277777777
 20
-4.323600000000005
 10
29.56795972222222
 20
-4.326862499999998
 10
29.56480833333333
 20
-4.330144444444449
 10
29.56163888888889
 20
-4.333454166666671
 97
        0
 97
        0
 92
        1
 93
        1
 72
     4
 94
        3
 73
     0
 74
     1
 95
       44
 96
       40
 40
0.0
 40
0.0
 40
0.0
 40
0.0
 40
1.0
 40
1.0
 40
1.0
 40
2.0
 40
2.0
 40
2.0
 40
3.0
 40
3.0
 40
3.0
 40
4.0
 40
4.0
 40
4.0
 40
5.0
 40
5.0
 40
5.0
 40
6.0
 40
6.0
 40
6.0
 40
7.0
 40
7.0
 40
7.0
 40
8.0
 40
8.0
 40
8.0
 40
9.0
 40
9.0
 40
9.0
 40
10.0
 40
10.0
 40
10.0
 40
11.0
 40
11.0
 40
11.0
 40
12.0
 40
12.0
 40
12.0
 40
13.0
 40
13.0
 40
13.0
 40
13.0
 10
29.04585
 20
-4.84231527777778
 10
29.05460694444444
 20
-4.844976388888893
 10
29.07446111111111
 20
-4.849424999999997
 10
29.08315833333333
 20
-4.852234722222217
 10
29.14357361111111
 20
-4.871626388888886
 10
29.20159027777778
 20
-4.897447222222227
 10
29.26027916666666
 20
-4.931076388888894
 10
29.24966805555555
 20
-4.993247222222218
 10
29.2443
 20
-5.056954166666666
 10
29.2443
 20
-5.120572222222222
 10
29.2443
 20
-5.154547222222226
 10
29.24580277777778
 20
-5.188340277777772
 10
29.24875277777778
 20
-5.221144444444449
 10
29.21673333333333
 20
-5.227726388888893
 10
29.18492083333333
 20
-5.23561111111111
 10
29.15404444444445
 20
-5.24459722222222
 10
29.14973611111111
 20
-5.244854166666666
 10
29.14542222222222
 20
-5.245176388888884
 10
29.14111388888889
 20
-5.245502777777776
 10
28.953
 20
-5.259698611111111
 10
28.75060972222223
 20
-5.282488888888893
 10
28.56732777777778
 20
-5.226259722222216
 10
28.5336375
 20
-5.215924999999995
 10
28.50087083333334
 20
-5.202522222222228
 10
28.47034166666666
 20
-5.185184722222226
 10
28.43694444444444
 20
-5.166265277777774
 10
28.36080694444445
 20
-5.117379166666662
 10
28.33962222222222
 20
-5.054806944444445
 10
28.44758888888888
 20
-5.061851388888891
 10
28.54437916666667
 20
-5.045166666666672
 10
28.63487638888889
 20
-5.003713888888885
 10
28.6621486111111
 20
-4.991249999999998
 10
28.68930694444445
 20
-4.978248611111111
 10
28.71605694444444
 20
-4.965429166666669
 10
28.80279583333333
 20
-4.923729166666665
 10
28.88632361111111
 20
-4.89252222222222
 10
28.9738625
 20
-4.861081944444448
 10
29.000125
 20
-4.851651388888891
 10
29.01862916666667
 20
-4.847230555555559
 10
29.04585
 20
-4.84231527777778
 97
        0
 97
        0
 92
        1
 93
        1
 72
     4
 94
        3
 73
     0
 74
     1
 95
       26
 96
       22
 40
0.0
 40
0.0
 40
0.0
 40
0.0
 40
1.0
 40
1.0
 40
1.0
 40
2.0
 40
2.0
 40
2.0
 40
3.0
 40
3.0
 40
3.0
 40
4.0
 40
4.0
 40
4.0
 40
5.0
 40
5.0
 40
5.0
 40
6.0
 40
6.0
 40
6.0
 40
7.0
 40
7.0
 40
7.0
 40
7.0
 10
29.16713472222222
 20
-5.307911111111113
 10
29.19581527777778
 20
-5.299336111111112
 10
29.22578055555555
 20
-5.291777777777775
 10
29.25631111111112
 20
-5.285391666666669
 10
29.25696388888889
 20
-5.289729166666663
 10
29.25763194444444
 20
-5.294065277777778
 10
29.25834583333332
 20
-5.298388888888894
 10
29.27851250000001
 20
-5.425568055555559
 10
29.32014305555555
 20
-5.547618055555555
 10
29.38220277777777
 20
-5.661512499999995
 10
29.34652777777777
 20
-5.654380555555551
 10
29.30772222222222
 20
-5.646183333333334
 10
29.26202499999999
 20
-5.636141666666668
 10
29.05876666666667
 20
-5.591294444444442
 10
28.88723888888888
 20
-5.569152777777782
 10
28.72416944444444
 20
-5.566893055555561
 10
28.77183611111112
 20
-5.519123611111113
 10
28.82015694444445
 20
-5.479173611111112
 10
28.87128333333334
 20
-5.445198611111108
 10
28.96088888888889
 20
-5.385645833333329
 10
29.06041527777778
 20
-5.339463888888885
 10
29.16713472222222
 20
-5.307911111111113
 97
        0
 97
        0
 92
        1
 93
        1
 72
     4
 94
        3
 73
     0
 74
     1
 95
       38
 96
       34
 40
0.0
 40
0.0
 40
0.0
 40
0.0
 40
1.0
 40
1.0
 40
1.0
 40
2.0
 40
2.0
 40
2.0
 40
3.0
 40
3.0
 40
3.0
 40
4.0
 40
4.0
 40
4.0
 40
5.0
 40
5.0
 40
5.0
 40
6.0
 40
6.0
 40
6.0
 40
7.0
 40
7.0
 40
7.0
 40
8.0
 40
8.0
 40
8.0
 40
9.0
 40
9.0
 40
9.0
 40
10.0
 40
10.0
 40
10.0
 40
11.0
 40
11.0
 40
11.0
 40
11.0
 10
29.32342499999999
 20
-4.952937499999999
 10
29.33332638888889
 20
-4.891863888888893
 10
29.34853611111112
 20
-4.831611111111114
 10
29.36868333333334
 20
-4.773165277777783
 10
29.46170694444444
 20
-4.503348611111114
 10
29.66439444444444
 20
-4.276838888888884
 10
29.92351666666666
 20
-4.144650000000007
 10
30.21005555555555
 20
-3.998479166666673
 10
30.56109861111112
 20
-3.983568055555553
 10
30.86146944444443
 20
-4.09918055555555
 10
31.17982499999999
 20
-4.22172083333333
 10
31.43336944444445
 20
-4.490463888888889
 10
31.53057916666666
 20
-4.808984722222223
 10
31.60657777777778
 20
-5.058013888888884
 10
31.58823194444443
 20
-5.330701388888883
 10
31.47902361111111
 20
-5.567845833333333
 10
31.47794166666666
 20
-5.570194444444446
 10
31.47669444444444
 20
-5.572705555555558
 10
31.47434166666666
 20
-5.573895833333331
 10
31.47184444444444
 20
-5.575156944444441
 10
31.46881527777777
 20
-5.57456805555556
 10
31.46606944444445
 20
-5.573951388888885
 10
31.25161805555555
 20
-5.525677777777774
 10
31.02965
 20
-5.521098611111117
 10
30.81173333333332
 20
-5.547734722222217
 10
30.54921388888889
 20
-5.579825000000002
 10
30.2996375
 20
-5.671106944444444
 10
30.03611805555556
 20
-5.700763888888887
 10
29.84452222222222
 20
-5.722326388888884
 10
29.65620277777778
 20
-5.711402777777772
 10
29.46735972222223
 20
-5.677645833333334
 10
29.33550277777777
 20
-5.461322222222217
 10
29.28317222222222
 20
-5.201256944444443
 10
29.32342499999999
 20
-4.952937499999999
 97
        0
 97
        0
 92
        1
 93
        1
 72
     4
 94
        3
 73
     0
 74
     1
 95
       38
 96
       34
 40
0.0
 40
0.0
 40
0.0
 40
0.0
 40
1.0
 40
1.0
 40
1.0
 40
2.0
 40
2.0
 40
2.0
 40
3.0
 40
3.0
 40
3.0
 40
4.0
 40
4.0
 40
4.0
 40
5.0
 40
5.0
 40
5.0
 40
6.0
 40
6.0
 40
6.0
 40
7.0
 40
7.0
 40
7.0
 40
8.0
 40
8.0
 40
8.0
 40
9.0
 40
9.0
 40
9.0
 40
10.0
 40
10.0
 40
10.0
 40
11.0
 40
11.0
 40
11.0
 40
11.0
 10
30.97796805555554
 20
-3.146370833333334
 10
30.96601250000001
 20
-3.147547222222228
 10
30.9542486111111
 20
-3.25485416666667
 10
30.95299861111112
 20
-3.267705555555557
 10
30.94889027777776
 20
-3.309915277777779
 10
30.94949722222223
 20
-3.352858333333339
 10
30.95588333333333
 20
-3.394834722222223
 10
30.96989722222222
 20
-3.487012500000004
 10
30.99870416666666
 20
-3.576222222222226
 10
31.01628888888889
 20
-3.667713888888885
 10
31.03531666666668
 20
-3.766722222222218
 10
31.03503194444445
 20
-3.867886111111109
 10
31.02254444444444
 20
-3.967631944444444
 10
31.01746527777777
 20
-4.008220833333338
 10
31.01018888888888
 20
-4.04961944444445
 10
31.00093611111111
 20
-4.09086666666667
 10
31.00163194444445
 20
-4.087762500000003
 10
30.94819444444445
 20
-4.065523611111113
 10
30.94322777777776
 20
-4.063311111111109
 10
30.86995972222222
 20
-4.030656944444445
 10
30.7933361111111
 20
-4.00520555555555
 10
30.71478055555556
 20
-3.987541666666667
 10
30.70589722222222
 20
-3.985543055555556
 10
30.60849027777777
 20
-3.968448611111107
 10
30.60848611111111
 20
-3.968527777777783
 10
30.60929305555555
 20
-3.922350000000001
 10
30.60627777777778
 20
-3.878748611111114
 10
30.61232777777779
 20
-3.832837499999995
 10
30.63834305555555
 20
-3.635415277777775
 10
30.67090833333332
 20
-3.392286111111111
 10
30.81778333333333
 20
-3.240840277777781
 10
30.84396388888889
 20
-3.213848611111113
 10
30.90976666666668
 20
-3.153097222222224
 10
30.97796805555554
 20
-3.146370833333334
 97
        0
 97
        0
 92
        1
 93
        1
 72
     4
 94
        3
 73
     0
 74
     1
 95
       38
 96
       34
 40
0.0
 40
0.0
 40
0.0
 40
0.0
 40
1.0
 40
1.0
 40
1.0
 40
2.0
 40
2.0
 40
2.0
 40
3.0
 40
3.0
 40
3.0
 40
4.0
 40
4.0
 40
4.0
 40
5.0
 40
5.0
 40
5.0
 40
6.0
 40
6.0
 40
6.0
 40
7.0
 40
7.0
 40
7.0
 40
8.0
 40
8.0
 40
8.0
 40
9.0
 40
9.0
 40
9.0
 40
10.0
 40
10.0
 40
10.0
 40
11.0
 40
11.0
 40
11.0
 40
11.0
 10
31.88294861111111
 20
-4.735866666666665
 10
31.86105555555557
 20
-4.753773611111114
 10
31.83889444444445
 20
-4.770691666666671
 10
31.81704305555556
 20
-4.786212499999995
 10
31.80795833333334
 20
-4.787543055555552
 10
31.79886944444446
 20
-4.788743055555553
 10
31.7897625
 20
-4.789868055555555
 10
31.72695138888889
 20
-4.797841666666664
 10
31.66320277777779
 20
-4.79898472222222
 10
31.59516388888889
 20
-4.793336111111115
 10
31.56690694444445
 20
-4.700197222222224
 10
31.52661666666667
 20
-4.610777777777773
 10
31.47530833333333
 20
-4.52730555555556
 10
31.50092222222221
 20
-4.5081375
 10
31.52615000000002
 20
-4.487612500000005
 10
31.5503638888889
 20
-4.466198611111117
 10
31.5503638888889
 20
-4.466198611111117
 10
31.57436666666667
 20
-4.452768055555553
 10
31.57436666666667
 20
-4.452768055555553
 10
31.7708986111111
 20
-4.341987499999997
 10
31.99393472222222
 20
-4.216212499999996
 10
32.19292638888889
 20
-4.232047222222225
 10
32.23149027777777
 20
-4.235133333333339
 10
32.3219875
 20
-4.247322222222225
 10
32.36900555555555
 20
-4.294573611111117
 10
32.26848611111111
 20
-4.333622222222226
 10
32.18884166666668
 20
-4.389406944444444
 10
32.12590555555554
 20
-4.46478055555556
 10
32.10691944444445
 20
-4.487504166666668
 10
32.08823750000001
 20
-4.510681944444451
 10
32.06969999999998
 20
-4.53374722222222
 10
32.01024166666667
 20
-4.607724999999997
 10
31.95407361111112
 20
-4.677598611111105
 10
31.88294861111111
 20
-4.735866666666665
 97
        0
 97
        0
 92
        1
 93
        1
 72
     4
 94
        3
 73
     0
 74
     1
 95
       44
 96
       40
 40
0.0
 40
0.0
 40
0.0
 40
0.0
 40
1.0
 40
1.0
 40
1.0
 40
2.0
 40
2.0
 40
2.0
 40
3.0
 40
3.0
 40
3.0
 40
4.0
 40
4.0
 40
4.0
 40
5.0
 40
5.0
 40
5.0
 40
6.0
 40
6.0
 40
6.0
 40
7.0
 40
7.0
 40
7.0
 40
8.0
 40
8.0
 40
8.0
 40
9.0
 40
9.0
 40
9.0
 40
10.0
 40
10.0
 40
10.0
 40
11.0
 40
11.0
 40
11.0
 40
12.0
 40
12.0
 40
12.0
 40
13.0
 40
13.0
 40
13.0
 40
13.0
 10
31.51037638888889
 20
-4.414494444444446
 10
31.487875
 20
-4.434688888888887
 10
31.46410972222222
 20
-4.454266666666664
 10
31.43963333333333
 20
-4.47278055555556
 10
31.43705277777778
 20
-4.469079166666662
 10
31.43445277777778
 20
-4.46539166666667
 10
31.43184722222221
 20
-4.461797222222217
 10
31.33506666666666
 20
-4.325681944444442
 10
31.20702222222222
 20
-4.208948611111105
 10
31.06121111111111
 20
-4.123847222222227
 10
31.08039722222222
 20
-4.043793055555549
 10
31.09176527777777
 20
-3.967169444444443
 10
31.09592916666666
 20
-3.889943055555553
 10
31.13453472222222
 20
-3.825526388888887
 10
31.17047083333333
 20
-3.759080555555556
 10
31.20525277777779
 20
-3.694808333333337
 10
31.20525277777779
 20
-3.694808333333337
 10
31.24038194444445
 20
-3.630106944444441
 10
31.24038194444445
 20
-3.630106944444441
 10
31.28333333333333
 20
-3.551383333333332
 10
31.34439861111112
 20
-3.480491666666669
 10
31.43251944444445
 20
-3.407009722222218
 10
31.61102222222222
 20
-3.258252777777771
 10
31.84960833333333
 20
-3.166215277777774
 10
32.1225111111111
 20
-3.140829166666663
 10
32.1225111111111
 20
-3.140829166666663
 10
32.15172499999999
 20
-3.137990277777779
 10
32.15172499999999
 20
-3.137990277777779
 10
32.18450972222222
 20
-3.134662500000003
 10
32.22030972222223
 20
-3.131016666666672
 10
32.25519027777778
 20
-3.130494444444442
 10
32.03134166666668
 20
-3.238062500000006
 10
31.90414722222221
 20
-3.507431944444445
 10
31.85895833333332
 20
-3.733134722222227
 10
31.82749027777777
 20
-3.890718055555554
 10
31.79494861111112
 20
-4.032094444444447
 10
31.71528194444444
 20
-4.166576388888895
 10
31.66106527777778
 20
-4.258072222222217
 10
31.59213472222223
 20
-4.341474999999996
 10
31.51037638888889
 20
-4.414494444444446
 97
        0
 97
        0
 92
        1
 93
        1
 72
     4
 94
        3
 73
     0
 74
     1
 95
       26
 96
       22
 40
0.0
 40
0.0
 40
0.0
 40
0.0
 40
1.0
 40
1.0
 40
1.0
 40
2.0
 40
2.0
 40
2.0
 40
3.0
 40
3.0
 40
3.0
 40
4.0
 40
4.0
 40
4.0
 40
5.0
 40
5.0
 40
5.0
 40
6.0
 40
6.0
 40
6.0
 40
7.0
 40
7.0
 40
7.0
 40
7.0
 10
31.56570833333333
 20
-5.532591666666664
 10
31.59719444444444
 20
-5.540158333333339
 10
31.62927500000001
 20
-5.546447222222215
 10
31.66122777777776
 20
-5.551297222222224
 10
31.66527500000001
 20
-5.552922222222226
 10
31.66934166666667
 20
-5.554480555555553
 10
31.67352916666666
 20
-5.556044444444447
 10
31.67352916666666
 20
-5.556044444444447
 10
31.68723055555557
 20
-5.561141666666672
 10
31.68723055555557
 20
-5.561141666666672
 10
31.80728611111113
 20
-5.60639166666667
 10
31.94132916666667
 20
-5.656901388888892
 10
32.05317500000001
 20
-5.722176388888884
 10
31.95521249999999
 20
-5.700726388888888
 10
31.85759583333333
 20
-5.674313888888896
 10
31.76268750000001
 20
-5.648643055555554
 10
31.69017638888888
 20
-5.629036111111114
 10
31.61535000000001
 20
-5.608804166666661
 10
31.54090972222222
 20
-5.590901388888887
 10
31.54975138888888
 20
-5.57163611111111
 10
31.55806527777776
 20
-5.552104166666671
 10
31.56570833333333
 20
-5.532591666666664
 97
        0
 97
        0
 92
        1
 93
        1
 72
     4
 94
        3
 73
     0
 74
     1
 95
       50
 96
       46
 40
0.0
 40
0.0
 40
0.0
 40
0.0
 40
1.0
 40
1.0
 40
1.0
 40
2.0
 40
2.0
 40
2.0
 40
3.0
 40
3.0
 40
3.0
 40
4.0
 40
4.0
 40
4.0
 40
5.0
 40
5.0
 40
5.0
 40
6.0
 40
6.0
 40
6.0
 40
7.0
 40
7.0
 40
7.0
 40
8.0
 40
8.0
 40
8.0
 40
9.0
 40
9.0
 40
9.0
 40
10.0
 40
10.0
 40
10.0
 40
11.0
 40
11.0
 40
11.0
 40
12.0
 40
12.0
 40
12.0
 40
13.0
 40
13.0
 40
13.0
 40
14.0
 40
14.0
 40
14.0
 40
15.0
 40
15.0
 40
15.0
 40
15.0
 10
31.67797777777779
 20
-5.488822222222224
 10
31.64842361111111
 20
-5.484495833333337
 10
31.61807499999999
 20
-5.478720833333328
 10
31.58758333333334
 20
-5.471644444444451
 10
31.58894166666667
 20
-5.467498611111106
 10
31.59030416666668
 20
-5.463329166666666
 10
31.59166805555555
 20
-5.459141666666672
 10
31.62602083333334
 20
-5.349859722222226
 10
31.64344305555556
 20
-5.235947222222219
 10
31.64344305555556
 20
-5.120572222222222
 10
31.64344305555556
 20
-5.066995833333332
 10
31.63958194444444
 20
-5.012840277777778
 10
31.63195833333333
 20
-4.959584722222226
 10
31.62974166666666
 20
-4.944174999999998
 10
31.62728194444445
 20
-4.928858333333336
 10
31.62443888888889
 20
-4.913762499999999
 10
31.62106388888888
 20
-4.895523611111116
 10
31.61717916666667
 20
-4.877205555555557
 10
31.61287083333334
 20
-4.859144444444445
 10
31.75824722222223
 20
-4.867976388888892
 10
31.903325
 20
-4.844023611111108
 10
32.04539722222223
 20
-4.81668194444444
 10
32.11043472222223
 20
-4.804166666666661
 10
32.17521527777777
 20
-4.786829166666672
 10
32.24158749999999
 20
-4.784597222222222
 10
32.30882777777778
 20
-4.782333333333339
 10
32.37611111111111
 20
-4.789536111111109
 10
32.44210555555555
 20
-4.801665277777778
 10
32.67327916666666
 20
-4.844136111111109
 10
32.89629166666666
 20
-4.967605555555552
 10
33.08705277777777
 20
-5.158768055555558
 10
33.08705277777777
 20
-5.158768055555558
 10
33.10748055555556
 20
-5.178990277777782
 10
33.10748055555556
 20
-5.178990277777782
 10
33.13061666666665
 20
-5.201849999999998
 10
33.15590416666666
 20
-5.226820833333337
 10
33.17801805555556
 20
-5.252891666666667
 10
32.95170833333332
 20
-5.150215277777773
 10
32.65518472222222
 20
-5.221773611111113
 10
32.44503611111112
 20
-5.328316666666662
 10
32.29812361111112
 20
-5.40269444444444
 10
32.16367500000001
 20
-5.46616805555555
 10
32.00593194444446
 20
-5.48954166666667
 10
31.89827499999998
 20
-5.50549305555555
 10
31.78795555555555
 20
-5.505259722222225
 10
31.67797777777779
 20
-5.488822222222224
 97
        0
 97
        0
 75
     2
 76
     1
 98
        0
  0
SPLINE
  5
4E
330
1F
100
AcDbEntity
  8
Layer 1
370
     0
100
AcDbSpline
210
0.0
220
0.0
230
1.0
 70
    11
 71
     3
 72
    98
 73
    94
 74
     0
 42
0.0000000001
 43
0.0000000001
 12
1.0
 22
0.0
 32
0.0
 13
1.0
 23
0.0
 33
0.0
 40
0.0
 40
0.0
 40
0.0
 40
0.0
 40
1.0
 40
1.0
 40
1.0
 40
2.0
 40
2.0
 40
2.0
 40
3.0
 40
3.0
 40
3.0
 40
4.0
 40
4.0
 40
4.0
 40
5.0
 40
5.0
 40
5.0
 40
6.0
 40
6.0
 40
6.0
 40
7.0
 40
7.0
 40
7.0
 40
8.0
 40
8.0
 40
8.0
 40
9.0
 40
9.0
 40
9.0
 40
10.0
 40
10.0
 40
10.0
 40
11.0
 40
11.0
 40
11.0
 40
12.0
 40
12.0
 40
12.0
 40
13.0
 40
13.0
 40
13.0
 40
14.0
 40
14.0
 40
14.0
 40
15.0
 40
15.0
 40
15.0
 40
16.0
 40
16.0
 40
16.0
 40
17.0
 40
17.0
 40
17.0
 40
18.0
 40
18.0
 40
18.0
 40
19.0
 40
19.0
 40
19.0
 40
20.0
 40
20.0
 40
20.0
 40
21.0
 40
21.0
 40
21.0
 40
22.0
 40
22.0
 40
22.0
 40
23.0
 40
23.0
 40
23.0
 40
24.0
 40
24.0
 40
24.0
 40
25.0
 40
25.0
 40
25.0
 40
26.0
 40
26.0
 40
26.0
 40
27.0
 40
27.0
 40
27.0
 40
28.0
 40
28.0
 40
28.0
 40
29.0
 40
29.0
 40
29.0
 40
30.0
 40
30.0
 40
30.0
 40
31.0
 40
31.0
 40
31.0
 40
31.0
 10
28.53281111111111
 20
-5.748416666666672
 30
0.0
 10
28.68564722222223
 20
-5.757238888888891
 30
0.0
 10
28.80372916666667
 20
-5.775450000000003
 30
0.0
 10
28.94039583333334
 20
-5.811269444444443
 30
0.0
 10
29.01733611111111
 20
-5.831450000000005
 30
0.0
 10
29.09517361111111
 20
-5.855150000000005
 30
0.0
 10
29.17044861111112
 20
-5.878080555555559
 30
0.0
 10
29.24397222222223
 20
-5.900468055555558
 30
0.0
 10
29.31999861111111
 20
-5.923622222222219
 30
0.0
 10
29.39533472222222
 20
-5.943537499999997
 30
0.0
 10
29.53824166666666
 20
-5.981322222222212
 30
0.0
 10
29.68019166666666
 20
-6.000405555555568
 30
0.0
 10
29.81803472222222
 20
-6.000395833333338
 30
0.0
 10
29.8328138888889
 20
-6.000395833333338
 30
0.0
 10
29.84755138888888
 20
-6.000180555555567
 30
0.0
 10
29.86222777777779
 20
-5.999747222222216
 30
0.0
 10
29.97996944444445
 20
-5.996218055555548
 30
0.0
 10
30.09097916666667
 20
-5.977979166666677
 30
0.0
 10
30.19219027777778
 20
-5.945549999999987
 30
0.0
 10
30.19219027777778
 20
-5.945549999999987
 30
0.0
 10
30.22101666666666
 20
-5.936306944444444
 30
0.0
 10
30.22101666666666
 20
-5.936306944444444
 30
0.0
 10
30.41102083333333
 20
-5.875330555555554
 30
0.0
 10
30.60750972222223
 20
-5.812281944444445
 30
0.0
 10
30.80855555555556
 20
-5.78575694444444
 30
0.0
 10
31.03108333333332
 20
-5.756388888888889
 30
0.0
 10
31.25087083333334
 20
-5.795019444444443
 30
0.0
 10
31.45575277777779
 20
-5.841270833333334
 30
0.0
 10
31.52702222222223
 20
-5.857366666666672
 30
0.0
 10
31.60071388888888
 20
-5.874009722222227
 30
0.0
 10
31.67421944444444
 20
-5.886277777777776
 30
0.0
 10
31.67623194444445
 20
-5.886613888888885
 30
0.0
 10
31.88778472222222
 20
-5.925013888888897
 30
0.0
 10
32.05500416666668
 20
-5.928847222222227
 30
0.0
 10
32.20433055555554
 20
-5.932268055555546
 30
0.0
 10
32.23705972222223
 20
-5.918758333333332
 30
0.0
 10
32.25035416666666
 20
-5.9061125
 30
0.0
 10
32.25631111111112
 20
-5.900436111111111
 30
0.0
 10
32.26040555555556
 20
-5.89524444444444
 30
0.0
 10
32.25978333333334
 20
-5.887715277777779
 30
0.0
 10
32.25914027777778
 20
-5.87981666666667
 30
0.0
 10
32.25692638888889
 20
-5.873831944444444
 30
0.0
 10
32.25035416666666
 20
-5.868169444444447
 30
0.0
 10
32.23553333333332
 20
-5.85539305555556
 30
0.0
 10
32.20719166666668
 20
-5.858352777777782
 30
0.0
 10
32.18253888888889
 20
-5.859995833333338
 30
0.0
 10
32.17792222222222
 20
-5.860304166666664
 30
0.0
 10
32.1716111111111
 20
-5.860784722222219
 30
0.0
 10
32.16857222222221
 20
-5.86096111111111
 30
0.0
 10
31.94699166666666
 20
-5.87405138888889
 30
0.0
 10
31.72125694444445
 20
-5.831201388888884
 30
0.0
 10
31.52176111111112
 20
-5.788268055555553
 30
0.0
 10
31.31421388888889
 20
-5.743616666666664
 30
0.0
 10
31.0727375
 20
-5.697551388888895
 30
0.0
 10
30.83436944444444
 20
-5.716686111111104
 30
0.0
 10
30.66402361111111
 20
-5.730336111111114
 30
0.0
 10
30.50003888888889
 20
-5.782166666666663
 30
0.0
 10
30.34145972222223
 20
-5.83229444444444
 30
0.0
 10
30.28488611111111
 20
-5.850173611111106
 30
0.0
 10
30.22640277777777
 20
-5.868659722222219
 30
0.0
 10
30.16865277777778
 20
-5.88507222222222
 30
0.0
 10
30.02757499999999
 20
-5.925172222222222
 30
0.0
 10
29.87015555555556
 20
-5.93987222222222
 30
0.0
 10
29.70092361111112
 20
-5.928608333333336
 30
0.0
 10
29.59327083333334
 20
-5.921484722222228
 30
0.0
 10
29.48430972222223
 20
-5.892761111111112
 30
0.0
 10
29.37893055555555
 20
-5.864990277777779
 30
0.0
 10
29.37893055555555
 20
-5.864990277777779
 30
0.0
 10
29.37130694444444
 20
-5.862983333333331
 30
0.0
 10
29.37130694444444
 20
-5.862983333333331
 30
0.0
 10
29.30097083333334
 20
-5.844445833333339
 30
0.0
 10
29.23104722222222
 20
-5.822243055555557
 30
0.0
 10
29.16343194444444
 20
-5.800783333333331
 30
0.0
 10
29.08761111111111
 20
-5.776709722222222
 30
0.0
 10
29.00922777777777
 20
-5.751829166666665
 30
0.0
 10
28.9293
 20
-5.731765277777779
 30
0.0
 10
28.81751527777778
 20
-5.703690277777771
 30
0.0
 10
28.71095833333334
 20
-5.686534722222228
 30
0.0
 10
28.61269722222222
 20
-5.679270833333336
 30
0.0
 10
28.61114305555556
 20
-5.679154166666661
 30
0.0
 10
28.608025
 20
-5.678902777777782
 30
0.0
 10
28.60647083333333
 20
-5.678780555555552
 30
0.0
 10
28.56106250000001
 20
-5.675140277777776
 30
0.0
 10
28.50620277777778
 20
-5.673566666666665
 30
0.0
 10
28.48421527777777
 20
-5.694386111111107
 30
0.0
 10
28.47723611111111
 20
-5.701011111111105
 30
0.0
 10
28.47385138888889
 20
-5.709554166666672
 30
0.0
 10
28.47444027777778
 20
-5.719133333333338
 30
0.0
 10
28.47538333333333
 20
-5.73353888888889
 30
0.0
 10
28.48529305555556
 20
-5.74352361111111
 30
0.0
 10
28.50379861111111
 20
-5.746063888888885
 30
0.0
 10
28.51100555555556
 20
-5.747052777777778
 30
0.0
 10
28.53281111111111
 20
-5.748416666666672
 30
0.0
 10
28.53281111111111
 20
-5.748416666666672
 30
0.0
  0
HATCH
  5
4F
330
1F
100
AcDbEntity
  8
Layer 1
 62
    35
420
 10579544
100
AcDbHatch
 10
0.0
 20
0.0
 30
0.0
210
0.0
220
0.0
230
1.0
  2
SOLID
 70
     1
 71
     0
 91
        1
 92
        1
 93
        1
 72
     4
 94
        3
 73
     0
 74
     1
 95
       98
 96
       94
 40
0.0
 40
0.0
 40
0.0
 40
0.0
 40
1.0
 40
1.0
 40
1.0
 40
2.0
 40
2.0
 40
2.0
 40
3.0
 40
3.0
 40
3.0
 40
4.0
 40
4.0
 40
4.0
 40
5.0
 40
5.0
 40
5.0
 40
6.0
 40
6.0
 40
6.0
 40
7.0
 40
7.0
 40
7.0
 40
8.0
 40
8.0
 40
8.0
 40
9.0
 40
9.0
 40
9.0
 40
10.0
 40
10.0
 40
10.0
 40
11.0
 40
11.0
 40
11.0
 40
12.0
 40
12.0
 40
12.0
 40
13.0
 40
13.0
 40
13.0
 40
14.0
 40
14.0
 40
14.0
 40
15.0
 40
15.0
 40
15.0
 40
16.0
 40
16.0
 40
16.0
 40
17.0
 40
17.0
 40
17.0
 40
18.0
 40
18.0
 40
18.0
 40
19.0
 40
19.0
 40
19.0
 40
20.0
 40
20.0
 40
20.0
 40
21.0
 40
21.0
 40
21.0
 40
22.0
 40
22.0
 40
22.0
 40
23.0
 40
23.0
 40
23.0
 40
24.0
 40
24.0
 40
24.0
 40
25.0
 40
25.0
 40
25.0
 40
26.0
 40
26.0
 40
26.0
 40
27.0
 40
27.0
 40
27.0
 40
28.0
 40
28.0
 40
28.0
 40
29.0
 40
29.0
 40
29.0
 40
30.0
 40
30.0
 40
30.0
 40
31.0
 40
31.0
 40
31.0
 40
31.0
 10
28.53281111111111
 20
-5.748416666666672
 10
28.68564722222223
 20
-5.757238888888891
 10
28.80372916666667
 20
-5.775450000000003
 10
28.94039583333334
 20
-5.811269444444443
 10
29.01733611111111
 20
-5.831450000000005
 10
29.09517361111111
 20
-5.855150000000005
 10
29.17044861111112
 20
-5.878080555555559
 10
29.24397222222223
 20
-5.900468055555558
 10
29.31999861111111
 20
-5.923622222222219
 10
29.39533472222222
 20
-5.943537499999997
 10
29.53824166666666
 20
-5.981322222222212
 10
29.68019166666666
 20
-6.000405555555568
 10
29.81803472222222
 20
-6.000395833333338
 10
29.8328138888889
 20
-6.000395833333338
 10
29.84755138888888
 20
-6.000180555555567
 10
29.86222777777779
 20
-5.999747222222216
 10
29.97996944444445
 20
-5.996218055555548
 10
30.09097916666667
 20
-5.977979166666677
 10
30.19219027777778
 20
-5.945549999999987
 10
30.19219027777778
 20
-5.945549999999987
 10
30.22101666666666
 20
-5.936306944444444
 10
30.22101666666666
 20
-5.936306944444444
 10
30.41102083333333
 20
-5.875330555555554
 10
30.60750972222223
 20
-5.812281944444445
 10
30.80855555555556
 20
-5.78575694444444
 10
31.03108333333332
 20
-5.756388888888889
 10
31.25087083333334
 20
-5.795019444444443
 10
31.45575277777779
 20
-5.841270833333334
 10
31.52702222222223
 20
-5.857366666666672
 10
31.60071388888888
 20
-5.874009722222227
 10
31.67421944444444
 20
-5.886277777777776
 10
31.67623194444445
 20
-5.886613888888885
 10
31.88778472222222
 20
-5.925013888888897
 10
32.05500416666668
 20
-5.928847222222227
 10
32.20433055555554
 20
-5.932268055555546
 10
32.23705972222223
 20
-5.918758333333332
 10
32.25035416666666
 20
-5.9061125
 10
32.25631111111112
 20
-5.900436111111111
 10
32.26040555555556
 20
-5.89524444444444
 10
32.25978333333334
 20
-5.887715277777779
 10
32.25914027777778
 20
-5.87981666666667
 10
32.25692638888889
 20
-5.873831944444444
 10
32.25035416666666
 20
-5.868169444444447
 10
32.23553333333332
 20
-5.85539305555556
 10
32.20719166666668
 20
-5.858352777777782
 10
32.18253888888889
 20
-5.859995833333338
 10
32.17792222222222
 20
-5.860304166666664
 10
32.1716111111111
 20
-5.860784722222219
 10
32.16857222222221
 20
-5.86096111111111
 10
31.94699166666666
 20
-5.87405138888889
 10
31.72125694444445
 20
-5.831201388888884
 10
31.52176111111112
 20
-5.788268055555553
 10
31.31421388888889
 20
-5.743616666666664
 10
31.0727375
 20
-5.697551388888895
 10
30.83436944444444
 20
-5.716686111111104
 10
30.66402361111111
 20
-5.730336111111114
 10
30.50003888888889
 20
-5.782166666666663
 10
30.34145972222223
 20
-5.83229444444444
 10
30.28488611111111
 20
-5.850173611111106
 10
30.22640277777777
 20
-5.868659722222219
 10
30.16865277777778
 20
-5.88507222222222
 10
30.02757499999999
 20
-5.925172222222222
 10
29.87015555555556
 20
-5.93987222222222
 10
29.70092361111112
 20
-5.928608333333336
 10
29.59327083333334
 20
-5.921484722222228
 10
29.48430972222223
 20
-5.892761111111112
 10
29.37893055555555
 20
-5.864990277777779
 10
29.37893055555555
 20
-5.864990277777779
 10
29.37130694444444
 20
-5.862983333333331
 10
29.37130694444444
 20
-5.862983333333331
 10
29.30097083333334
 20
-5.844445833333339
 10
29.23104722222222
 20
-5.822243055555557
 10
29.16343194444444
 20
-5.800783333333331
 10
29.08761111111111
 20
-5.776709722222222
 10
29.00922777777777
 20
-5.751829166666665
 10
28.9293
 20
-5.731765277777779
 10
28.81751527777778
 20
-5.703690277777771
 10
28.71095833333334
 20
-5.686534722222228
 10
28.61269722222222
 20
-5.679270833333336
 10
28.61114305555556
 20
-5.679154166666661
 10
28.608025
 20
-5.678902777777782
 10
28.60647083333333
 20
-5.678780555555552
 10
28.56106250000001
 20
-5.675140277777776
 10
28.50620277777778
 20
-5.673566666666665
 10
28.48421527777777
 20
-5.694386111111107
 10
28.47723611111111
 20
-5.701011111111105
 10
28.47385138888889
 20
-5.709554166666672
 10
28.47444027777778
 20
-5.719133333333338
 10
28.47538333333333
 20
-5.73353888888889
 10
28.48529305555556
 20
-5.74352361111111
 10
28.50379861111111
 20
-5.746063888888885
 10
28.51100555555556
 20
-5.747052777777778
 10
28.53281111111111
 20
-5.748416666666672
 10
28.53281111111111
 20
-5.748416666666672
 97
        0
 97
        0
 75
     2
 76
     1
 98
        0
  0
SPLINE
  5
50
330
1F
100
AcDbEntity
  8
Layer 1
370
     0
100
AcDbSpline
210
0.0
220
0.0
230
1.0
 70
    11
 71
     3
 72
    89
 73
    85
 74
     0
 42
0.0000000001
 43
0.0000000001
 12
1.0
 22
0.0
 32
0.0
 13
1.0
 23
0.0
 33
0.0
 40
0.0
 40
0.0
 40
0.0
 40
0.0
 40
1.0
 40
1.0
 40
1.0
 40
2.0
 40
2.0
 40
2.0
 40
3.0
 40
3.0
 40
3.0
 40
4.0
 40
4.0
 40
4.0
 40
5.0
 40
5.0
 40
5.0
 40
6.0
 40
6.0
 40
6.0
 40
7.0
 40
7.0
 40
7.0
 40
8.0
 40
8.0
 40
8.0
 40
9.0
 40
9.0
 40
9.0
 40
10.0
 40
10.0
 40
10.0
 40
11.0
 40
11.0
 40
11.0
 40
12.0
 40
12.0
 40
12.0
 40
13.0
 40
13.0
 40
13.0
 40
14.0
 40
14.0
 40
14.0
 40
15.0
 40
15.0
 40
15.0
 40
16.0
 40
16.0
 40
16.0
 40
17.0
 40
17.0
 40
17.0
 40
18.0
 40
18.0
 40
18.0
 40
19.0
 40
19.0
 40
19.0
 40
20.0
 40
20.0
 40
20.0
 40
21.0
 40
21.0
 40
21.0
 40
22.0
 40
22.0
 40
22.0
 40
23.0
 40
23.0
 40
23.0
 40
24.0
 40
24.0
 40
24.0
 40
25.0
 40
25.0
 40
25.0
 40
26.0
 40
26.0
 40
26.0
 40
27.0
 40
27.0
 40
27.0
 40
28.0
 40
28.0
 40
28.0
 40
28.0
 10
32.11204027777777
 20
-5.986209722222232
 30
0.0
 10
32.095575
 20
-5.976134722222215
 30
0.0
 10
32.06959722222223
 20
-5.981340277777766
 30
0.0
 10
32.06197361111112
 20
-5.983193055555552
 30
0.0
 10
32.05514444444444
 20
-5.984888888888892
 30
0.0
 10
32.04821249999999
 20
-5.986334722222233
 30
0.0
 10
32.04111666666667
 20
-5.987516666666655
 30
0.0
 10
31.96330277777777
 20
-6.000554166666663
 30
0.0
 10
31.88757916666668
 20
-5.992918055555568
 30
0.0
 10
31.8036875
 20
-5.982441666666672
 30
0.0
 10
31.71731666666667
 20
-5.971654166666667
 30
0.0
 10
31.63026944444444
 20
-5.955295833333341
 30
0.0
 10
31.54609166666667
 20
-5.939480555555544
 30
0.0
 10
31.46927222222222
 20
-5.925041666666655
 30
0.0
 10
31.38980972222222
 20
-5.910112499999993
 30
0.0
 10
31.3108763888889
 20
-5.899404166666664
 30
0.0
 10
31.12648194444445
 20
-5.874373611111107
 30
0.0
 10
30.97424722222222
 20
-5.875208333333338
 30
0.0
 10
30.83183055555554
 20
-5.902031944444439
 30
0.0
 10
30.73695833333333
 20
-5.919897222222226
 30
0.0
 10
30.64190555555557
 20
-5.947537500000004
 30
0.0
 10
30.54998333333333
 20
-5.9742638888889
 30
0.0
 10
30.50192916666666
 20
-5.988240277777777
 30
0.0
 10
30.45222777777778
 20
-6.002693055555558
 30
0.0
 10
30.4032763888889
 20
-6.015511111111108
 30
0.0
 10
30.24894583333333
 20
-6.055966666666664
 30
0.0
 10
30.10242083333333
 20
-6.07244999999999
 30
0.0
 10
29.95540972222223
 20
-6.065975000000005
 30
0.0
 10
29.92363888888889
 20
-6.064569444444436
 30
0.0
 10
29.89188472222223
 20
-6.062618055555554
 30
0.0
 10
29.86015555555555
 20
-6.060694444444455
 30
0.0
 10
29.85425972222222
 20
-6.060336111111105
 30
0.0
 10
29.84816249999999
 20
-6.05976666666667
 30
0.0
 10
29.84198194444444
 20
-6.059195833333332
 30
0.0
 10
29.81893055555555
 20
-6.057072222222232
 30
0.0
 10
29.79153333333334
 20
-6.056395833333327
 30
0.0
 10
29.76957361111111
 20
-6.062477777777783
 30
0.0
 10
29.75846805555555
 20
-6.065554166666667
 30
0.0
 10
29.75141944444445
 20
-6.071809722222219
 30
0.0
 10
29.74804444444445
 20
-6.079348611111123
 30
0.0
 10
29.74495416666667
 20
-6.086304166666675
 30
0.0
 10
29.74531805555556
 20
-6.094198611111121
 30
0.0
 10
29.74938888888889
 20
-6.102783333333339
 30
0.0
 10
29.75652222222223
 20
-6.11783888888888
 30
0.0
 10
29.79081388888888
 20
-6.121338888888886
 30
0.0
 10
29.8011638888889
 20
-6.122048611111116
 30
0.0
 10
29.82104583333333
 20
-6.123416666666672
 30
0.0
 10
29.84049722222222
 20
-6.124854166666662
 30
0.0
 10
29.85964722222221
 20
-6.126273611111123
 30
0.0
 10
29.92932916666667
 20
-6.131418055555565
 30
0.0
 10
29.99616805555555
 20
-6.136356944444438
 30
0.0
 10
30.06367916666666
 20
-6.136356944444438
 30
0.0
 10
30.08786944444445
 20
-6.136356944444438
 30
0.0
 10
30.11218194444445
 20
-6.135722222222234
 30
0.0
 10
30.13669444444445
 20
-6.134237500000002
 30
0.0
 10
30.26557361111112
 20
-6.126423611111123
 30
0.0
 10
30.39073333333334
 20
-6.088247222222233
 30
0.0
 10
30.51176527777778
 20
-6.051334722222211
 30
0.0
 10
30.56024861111112
 20
-6.036541666666658
 30
0.0
 10
30.61037638888888
 20
-6.021258333333334
 30
0.0
 10
30.65995694444445
 20
-6.008173611111109
 30
0.0
 10
30.84738055555557
 20
-5.958694444444442
 30
0.0
 10
31.03350138888888
 20
-5.939065277777773
 30
0.0
 10
31.21314305555554
 20
-5.949834722222223
 30
0.0
 10
31.32868472222223
 20
-5.956762499999993
 30
0.0
 10
31.44333611111112
 20
-5.980869444444452
 30
0.0
 10
31.55420555555555
 20
-6.004172222222223
 30
0.0
 10
31.60264305555557
 20
-6.01436250000001
 30
0.0
 10
31.65273194444444
 20
-6.024884722222219
 30
0.0
 10
31.70241527777779
 20
-6.033900000000004
 30
0.0
 10
31.74591388888888
 20
-6.041784722222221
 30
0.0
 10
31.78486527777778
 20
-6.047540277777771
 30
0.0
 10
31.82153472222222
 20
-6.051470833333345
 30
0.0
 10
31.91880555555556
 20
-6.061918055555553
 30
0.0
 10
32.00698749999999
 20
-6.059266666666669
 30
0.0
 10
32.08364444444444
 20
-6.043599999999994
 30
0.0
 10
32.11086388888889
 20
-6.038012499999998
 30
0.0
 10
32.12659583333334
 20
-6.023526388888891
 30
0.0
 10
32.1246263888889
 20
-6.005237499999995
 30
0.0
 10
32.1246263888889
 20
-6.005237499999995
 30
0.0
 10
32.1242611111111
 20
-6.003126388888884
 30
0.0
 10
32.1242611111111
 20
-6.003126388888884
 30
0.0
 10
32.12275416666666
 20
-5.996012500000006
 30
0.0
 10
32.11852916666668
 20
-5.990168055555563
 30
0.0
 10
32.11204027777777
 20
-5.986209722222232
 30
0.0
  0
HATCH
  5
51
330
1F
100
AcDbEntity
  8
Layer 1
 62
    35
420
 10579544
100
AcDbHatch
 10
0.0
 20
0.0
 30
0.0
210
0.0
220
0.0
230
1.0
  2
SOLID
 70
     1
 71
     0
 91
        1
 92
        1
 93
        1
 72
     4
 94
        3
 73
     0
 74
     1
 95
       89
 96
       85
 40
0.0
 40
0.0
 40
0.0
 40
0.0
 40
1.0
 40
1.0
 40
1.0
 40
2.0
 40
2.0
 40
2.0
 40
3.0
 40
3.0
 40
3.0
 40
4.0
 40
4.0
 40
4.0
 40
5.0
 40
5.0
 40
5.0
 40
6.0
 40
6.0
 40
6.0
 40
7.0
 40
7.0
 40
7.0
 40
8.0
 40
8.0
 40
8.0
 40
9.0
 40
9.0
 40
9.0
 40
10.0
 40
10.0
 40
10.0
 40
11.0
 40
11.0
 40
11.0
 40
12.0
 40
12.0
 40
12.0
 40
13.0
 40
13.0
 40
13.0
 40
14.0
 40
14.0
 40
14.0
 40
15.0
 40
15.0
 40
15.0
 40
16.0
 40
16.0
 40
16.0
 40
17.0
 40
17.0
 40
17.0
 40
18.0
 40
18.0
 40
18.0
 40
19.0
 40
19.0
 40
19.0
 40
20.0
 40
20.0
 40
20.0
 40
21.0
 40
21.0
 40
21.0
 40
22.0
 40
22.0
 40
22.0
 40
23.0
 40
23.0
 40
23.0
 40
24.0
 40
24.0
 40
24.0
 40
25.0
 40
25.0
 40
25.0
 40
26.0
 40
26.0
 40
26.0
 40
27.0
 40
27.0
 40
27.0
 40
28.0
 40
28.0
 40
28.0
 40
28.0
 10
32.11204027777777
 20
-5.986209722222232
 10
32.095575
 20
-5.976134722222215
 10
32.06959722222223
 20
-5.981340277777766
 10
32.06197361111112
 20
-5.983193055555552
 10
32.05514444444444
 20
-5.984888888888892
 10
32.04821249999999
 20
-5.986334722222233
 10
32.04111666666667
 20
-5.987516666666655
 10
31.96330277777777
 20
-6.000554166666663
 10
31.88757916666668
 20
-5.992918055555568
 10
31.8036875
 20
-5.982441666666672
 10
31.71731666666667
 20
-5.971654166666667
 10
31.63026944444444
 20
-5.955295833333341
 10
31.54609166666667
 20
-5.939480555555544
 10
31.46927222222222
 20
-5.925041666666655
 10
31.38980972222222
 20
-5.910112499999993
 10
31.3108763888889
 20
-5.899404166666664
 10
31.12648194444445
 20
-5.874373611111107
 10
30.97424722222222
 20
-5.875208333333338
 10
30.83183055555554
 20
-5.902031944444439
 10
30.73695833333333
 20
-5.919897222222226
 10
30.64190555555557
 20
-5.947537500000004
 10
30.54998333333333
 20
-5.9742638888889
 10
30.50192916666666
 20
-5.988240277777777
 10
30.45222777777778
 20
-6.002693055555558
 10
30.4032763888889
 20
-6.015511111111108
 10
30.24894583333333
 20
-6.055966666666664
 10
30.10242083333333
 20
-6.07244999999999
 10
29.95540972222223
 20
-6.065975000000005
 10
29.92363888888889
 20
-6.064569444444436
 10
29.89188472222223
 20
-6.062618055555554
 10
29.86015555555555
 20
-6.060694444444455
 10
29.85425972222222
 20
-6.060336111111105
 10
29.84816249999999
 20
-6.05976666666667
 10
29.84198194444444
 20
-6.059195833333332
 10
29.81893055555555
 20
-6.057072222222232
 10
29.79153333333334
 20
-6.056395833333327
 10
29.76957361111111
 20
-6.062477777777783
 10
29.75846805555555
 20
-6.065554166666667
 10
29.75141944444445
 20
-6.071809722222219
 10
29.74804444444445
 20
-6.079348611111123
 10
29.74495416666667
 20
-6.086304166666675
 10
29.74531805555556
 20
-6.094198611111121
 10
29.74938888888889
 20
-6.102783333333339
 10
29.75652222222223
 20
-6.11783888888888
 10
29.79081388888888
 20
-6.121338888888886
 10
29.8011638888889
 20
-6.122048611111116
 10
29.82104583333333
 20
-6.123416666666672
 10
29.84049722222222
 20
-6.124854166666662
 10
29.85964722222221
 20
-6.126273611111123
 10
29.92932916666667
 20
-6.131418055555565
 10
29.99616805555555
 20
-6.136356944444438
 10
30.06367916666666
 20
-6.136356944444438
 10
30.08786944444445
 20
-6.136356944444438
 10
30.11218194444445
 20
-6.135722222222234
 10
30.13669444444445
 20
-6.134237500000002
 10
30.26557361111112
 20
-6.126423611111123
 10
30.39073333333334
 20
-6.088247222222233
 10
30.51176527777778
 20
-6.051334722222211
 10
30.56024861111112
 20
-6.036541666666658
 10
30.61037638888888
 20
-6.021258333333334
 10
30.65995694444445
 20
-6.008173611111109
 10
30.84738055555557
 20
-5.958694444444442
 10
31.03350138888888
 20
-5.939065277777773
 10
31.21314305555554
 20
-5.949834722222223
 10
31.32868472222223
 20
-5.956762499999993
 10
31.44333611111112
 20
-5.980869444444452
 10
31.55420555555555
 20
-6.004172222222223
 10
31.60264305555557
 20
-6.01436250000001
 10
31.65273194444444
 20
-6.024884722222219
 10
31.70241527777779
 20
-6.033900000000004
 10
31.74591388888888
 20
-6.041784722222221
 10
31.78486527777778
 20
-6.047540277777771
 10
31.82153472222222
 20
-6.051470833333345
 10
31.91880555555556
 20
-6.061918055555553
 10
32.00698749999999
 20
-6.059266666666669
 10
32.08364444444444
 20
-6.043599999999994
 10
32.11086388888889
 20
-6.038012499999998
 10
32.12659583333334
 20
-6.023526388888891
 10
32.1246263888889
 20
-6.005237499999995
 10
32.1246263888889
 20
-6.005237499999995
 10
32.1242611111111
 20
-6.003126388888884
 10
32.1242611111111
 20
-6.003126388888884
 10
32.12275416666666
 20
-5.996012500000006
 10
32.11852916666668
 20
-5.990168055555563
 10
32.11204027777777
 20
-5.986209722222232
 97
        0
 97
        0
 75
     2
 76
     1
 98
        0
  0
SPLINE
  5
52
330
1F
100
AcDbEntity
  8
Layer 1
370
     0
100
AcDbSpline
210
0.0
220
0.0
230
1.0
 70
    11
 71
     3
 72
    47
 73
    43
 74
     0
 42
0.0000000001
 43
0.0000000001
 12
1.0
 22
0.0
 32
0.0
 13
1.0
 23
0.0
 33
0.0
 40
0.0
 40
0.0
 40
0.0
 40
0.0
 40
1.0
 40
1.0
 40
1.0
 40
2.0
 40
2.0
 40
2.0
 40
3.0
 40
3.0
 40
3.0
 40
4.0
 40
4.0
 40
4.0
 40
5.0
 40
5.0
 40
5.0
 40
6.0
 40
6.0
 40
6.0
 40
7.0
 40
7.0
 40
7.0
 40
8.0
 40
8.0
 40
8.0
 40
9.0
 40
9.0
 40
9.0
 40
10.0
 40
10.0
 40
10.0
 40
11.0
 40
11.0
 40
11.0
 40
12.0
 40
12.0
 40
12.0
 40
13.0
 40
13.0
 40
13.0
 40
14.0
 40
14.0
 40
14.0
 40
14.0
 10
31.55192777777779
 20
-6.063948611111123
 30
0.0
 10
31.40483194444444
 20
-6.107354166666659
 30
0.0
 10
31.24330833333334
 20
-6.128375000000005
 30
0.0
 10
31.07233055555556
 20
-6.127052777777786
 30
0.0
 10
30.94720972222222
 20
-6.125937499999988
 30
0.0
 10
30.81424583333334
 20
-6.112694444444438
 30
0.0
 10
30.6771736111111
 20
-6.087695833333328
 30
0.0
 10
30.6771736111111
 20
-6.087695833333328
 30
0.0
 10
30.67058611111111
 20
-6.086434722222217
 30
0.0
 10
30.67058611111111
 20
-6.086434722222217
 30
0.0
 10
30.65324861111111
 20
-6.083023611111103
 30
0.0
 10
30.6294638888889
 20
-6.078373611111121
 30
0.0
 10
30.61181805555556
 20
-6.08646388888888
 30
0.0
 10
30.6028375
 20
-6.090580555555562
 30
0.0
 10
30.59608749999999
 20
-6.098731944444453
 30
0.0
 10
30.59421527777777
 20
-6.107708333333322
 30
0.0
 10
30.59248750000001
 20
-6.116018055555565
 30
0.0
 10
30.59486805555555
 20
-6.124224999999998
 30
0.0
 10
30.60102638888889
 20
-6.130876388888888
 30
0.0
 10
30.60935833333332
 20
-6.139755555555565
 30
0.0
 10
30.62098750000001
 20
-6.142594444444436
 30
0.0
 10
30.63216666666666
 20
-6.144731944444453
 30
0.0
 10
30.69772777777777
 20
-6.15733611111111
 30
0.0
 10
30.76362777777778
 20
-6.167413888888884
 30
0.0
 10
30.82810972222223
 20
-6.174715277777775
 30
0.0
 10
30.91615277777777
 20
-6.18469166666667
 30
0.0
 10
31.00229861111112
 20
-6.189677777777787
 30
0.0
 10
31.08600833333334
 20
-6.189677777777787
 30
0.0
 10
31.16876666666667
 20
-6.189677777777787
 30
0.0
 10
31.24912083333334
 20
-6.184798611111116
 30
0.0
 10
31.32649027777776
 20
-6.175051388888884
 30
0.0
 10
31.41095277777779
 20
-6.164418055555567
 30
0.0
 10
31.49342083333332
 20
-6.147766666666661
 30
0.0
 10
31.57166388888888
 20
-6.125545833333338
 30
0.0
 10
31.5782513888889
 20
-6.123640277777768
 30
0.0
 10
31.60040694444445
 20
-6.116231944444457
 30
0.0
 10
31.60894444444443
 20
-6.10056666666666
 30
0.0
 10
31.61256249999999
 20
-6.093941666666675
 30
0.0
 10
31.61323472222221
 20
-6.08673888888888
 30
0.0
 10
31.61089583333334
 20
-6.079676388888881
 30
0.0
 10
31.60469722222223
 20
-6.06108750000001
 30
0.0
 10
31.58213472222221
 20
-6.0550375
 30
0.0
 10
31.55192777777779
 20
-6.063948611111123
 30
0.0
  0
HATCH
  5
53
330
1F
100
AcDbEntity
  8
Layer 1
 62
    35
420
 10579544
100
AcDbHatch
 10
0.0
 20
0.0
 30
0.0
210
0.0
220
0.0
230
1.0
  2
SOLID
 70
     1
 71
     0
 91
        1
 92
        1
 93
        1
 72
     4
 94
        3
 73
     0
 74
     1
 95
       47
 96
       43
 40
0.0
 40
0.0
 40
0.0
 40
0.0
 40
1.0
 40
1.0
 40
1.0
 40
2.0
 40
2.0
 40
2.0
 40
3.0
 40
3.0
 40
3.0
 40
4.0
 40
4.0
 40
4.0
 40
5.0
 40
5.0
 40
5.0
 40
6.0
 40
6.0
 40
6.0
 40
7.0
 40
7.0
 40
7.0
 40
8.0
 40
8.0
 40
8.0
 40
9.0
 40
9.0
 40
9.0
 40
10.0
 40
10.0
 40
10.0
 40
11.0
 40
11.0
 40
11.0
 40
12.0
 40
12.0
 40
12.0
 40
13.0
 40
13.0
 40
13.0
 40
14.0
 40
14.0
 40
14.0
 40
14.0
 10
31.55192777777779
 20
-6.063948611111123
 10
31.40483194444444
 20
-6.107354166666659
 10
31.24330833333334
 20
-6.128375000000005
 10
31.07233055555556
 20
-6.127052777777786
 10
30.94720972222222
 20
-6.125937499999988
 10
30.81424583333334
 20
-6.112694444444438
 10
30.6771736111111
 20
-6.087695833333328
 10
30.6771736111111
 20
-6.087695833333328
 10
30.67058611111111
 20
-6.086434722222217
 10
30.67058611111111
 20
-6.086434722222217
 10
30.65324861111111
 20
-6.083023611111103
 10
30.6294638888889
 20
-6.078373611111121
 10
30.61181805555556
 20
-6.08646388888888
 10
30.6028375
 20
-6.090580555555562
 10
30.59608749999999
 20
-6.098731944444453
 10
30.59421527777777
 20
-6.107708333333322
 10
30.59248750000001
 20
-6.116018055555565
 10
30.59486805555555
 20
-6.124224999999998
 10
30.60102638888889
 20
-6.130876388888888
 10
30.60935833333332
 20
-6.139755555555565
 10
30.62098750000001
 20
-6.142594444444436
 10
30.63216666666666
 20
-6.144731944444453
 10
30.69772777777777
 20
-6.15733611111111
 10
30.76362777777778
 20
-6.167413888888884
 10
30.82810972222223
 20
-6.174715277777775
 10
30.91615277777777
 20
-6.18469166666667
 10
31.00229861111112
 20
-6.189677777777787
 10
31.08600833333334
 20
-6.189677777777787
 10
31.16876666666667
 20
-6.189677777777787
 10
31.24912083333334
 20
-6.184798611111116
 10
31.32649027777776
 20
-6.175051388888884
 10
31.41095277777779
 20
-6.164418055555567
 10
31.49342083333332
 20
-6.147766666666661
 10
31.57166388888888
 20
-6.125545833333338
 10
31.5782513888889
 20
-6.123640277777768
 10
31.60040694444445
 20
-6.116231944444457
 10
31.60894444444443
 20
-6.10056666666666
 10
31.61256249999999
 20
-6.093941666666675
 10
31.61323472222221
 20
-6.08673888888888
 10
31.61089583333334
 20
-6.079676388888881
 10
31.60469722222223
 20
-6.06108750000001
 10
31.58213472222221
 20
-6.0550375
 10
31.55192777777779
 20
-6.063948611111123
 97
        0
 97
        0
 75
     2
 76
     1
 98
        0
  0
SPLINE
  5
54
330
1F
100
AcDbEntity
  8
Layer 1
370
     0
100
AcDbSpline
210
0.0
220
0.0
230
1.0
 70
    11
 71
     3
 72
   182
 73
   178
 74
     0
 42
0.0000000001
 43
0.0000000001
 12
1.0
 22
0.0
 32
0.0
 13
1.0
 23
0.0
 33
0.0
 40
0.0
 40
0.0
 40
0.0
 40
0.0
 40
1.0
 40
1.0
 40
1.0
 40
2.0
 40
2.0
 40
2.0
 40
3.0
 40
3.0
 40
3.0
 40
4.0
 40
4.0
 40
4.0
 40
5.0
 40
5.0
 40
5.0
 40
6.0
 40
6.0
 40
6.0
 40
7.0
 40
7.0
 40
7.0
 40
8.0
 40
8.0
 40
8.0
 40
9.0
 40
9.0
 40
9.0
 40
10.0
 40
10.0
 40
10.0
 40
11.0
 40
11.0
 40
11.0
 40
12.0
 40
12.0
 40
12.0
 40
13.0
 40
13.0
 40
13.0
 40
14.0
 40
14.0
 40
14.0
 40
15.0
 40
15.0
 40
15.0
 40
16.0
 40
16.0
 40
16.0
 40
17.0
 40
17.0
 40
17.0
 40
18.0
 40
18.0
 40
18.0
 40
19.0
 40
19.0
 40
19.0
 40
20.0
 40
20.0
 40
20.0
 40
21.0
 40
21.0
 40
21.0
 40
22.0
 40
22.0
 40
22.0
 40
23.0
 40
23.0
 40
23.0
 40
24.0
 40
24.0
 40
24.0
 40
25.0
 40
25.0
 40
25.0
 40
26.0
 40
26.0
 40
26.0
 40
27.0
 40
27.0
 40
27.0
 40
28.0
 40
28.0
 40
28.0
 40
29.0
 40
29.0
 40
29.0
 40
30.0
 40
30.0
 40
30.0
 40
31.0
 40
31.0
 40
31.0
 40
32.0
 40
32.0
 40
32.0
 40
33.0
 40
33.0
 40
33.0
 40
34.0
 40
34.0
 40
34.0
 40
35.0
 40
35.0
 40
35.0
 40
36.0
 40
36.0
 40
36.0
 40
37.0
 40
37.0
 40
37.0
 40
38.0
 40
38.0
 40
38.0
 40
39.0
 40
39.0
 40
39.0
 40
40.0
 40
40.0
 40
40.0
 40
41.0
 40
41.0
 40
41.0
 40
42.0
 40
42.0
 40
42.0
 40
43.0
 40
43.0
 40
43.0
 40
44.0
 40
44.0
 40
44.0
 40
45.0
 40
45.0
 40
45.0
 40
46.0
 40
46.0
 40
46.0
 40
47.0
 40
47.0
 40
47.0
 40
48.0
 40
48.0
 40
48.0
 40
49.0
 40
49.0
 40
49.0
 40
50.0
 40
50.0
 40
50.0
 40
51.0
 40
51.0
 40
51.0
 40
52.0
 40
52.0
 40
52.0
 40
53.0
 40
53.0
 40
53.0
 40
54.0
 40
54.0
 40
54.0
 40
55.0
 40
55.0
 40
55.0
 40
56.0
 40
56.0
 40
56.0
 40
57.0
 40
57.0
 40
57.0
 40
58.0
 40
58.0
 40
58.0
 40
59.0
 40
59.0
 40
59.0
 40
59.0
 10
30.84141944444445
 20
-8.200981944444441
 30
0.0
 10
30.8874611111111
 20
-8.174550000000004
 30
0.0
 10
30.93766805555555
 20
-8.157156944444447
 30
0.0
 10
30.98540972222223
 20
-8.134427777777773
 30
0.0
 10
31.1620486111111
 20
-8.050338888888897
 30
0.0
 10
31.34834305555556
 20
-7.990101388888888
 30
0.0
 10
31.53289027777777
 20
-7.926254166666669
 30
0.0
 10
31.59107499999999
 20
-7.906124999999999
 30
0.0
 10
31.64848888888888
 20
-7.893451388888884
 30
0.0
 10
31.69072222222222
 20
-7.845965277777774
 30
0.0
 10
31.75766388888888
 20
-7.770700000000008
 30
0.0
 10
31.7776111111111
 20
-7.664527777777771
 30
0.0
 10
31.80454166666666
 20
-7.570640277777784
 30
0.0
 10
31.85045833333334
 20
-7.410498611111102
 30
0.0
 10
31.91458055555555
 20
-7.252984722222234
 30
0.0
 10
31.9463388888889
 20
-7.089381944444439
 30
0.0
 10
31.96236388888888
 20
-7.006825000000011
 30
0.0
 10
31.96477222222223
 20
-6.921986111111108
 30
0.0
 10
31.98455694444445
 20
-6.840143055555548
 30
0.0
 10
31.99178333333333
 20
-6.810252777777779
 30
0.0
 10
31.99803888888889
 20
-6.780249999999998
 30
0.0
 10
31.99585416666668
 20
-6.749179166666661
 30
0.0
 10
31.99310416666668
 20
-6.710170833333323
 30
0.0
 10
31.95845277777777
 20
-6.683702777777777
 30
0.0
 10
31.92035
 20
-6.691563888888898
 30
0.0
 10
31.90784444444446
 20
-6.694145833333323
 30
0.0
 10
31.89629583333334
 20
-6.699163888888885
 30
0.0
 10
31.88521805555554
 20
-6.705358333333328
 30
0.0
 10
31.78378194444445
 20
-6.762076388888898
 30
0.0
 10
31.71106111111112
 20
-6.863484722222211
 30
0.0
 10
31.65479027777779
 20
-6.960647222222228
 30
0.0
 10
31.59895416666667
 20
-7.057083333333341
 30
0.0
 10
31.55188055555555
 20
-7.156991666666676
 30
0.0
 10
31.51947361111112
 20
-7.263604166666659
 30
0.0
 10
31.49640416666668
 20
-7.339504166666655
 30
0.0
 10
31.46848749999998
 20
-7.4429888888889
 30
0.0
 10
31.39440416666667
 20
-7.485516666666676
 30
0.0
 10
31.33185972222223
 20
-7.521419444444442
 30
0.0
 10
31.25209861111112
 20
-7.532127777777784
 30
0.0
 10
31.18301805555557
 20
-7.551005555555548
 30
0.0
 10
31.07479583333333
 20
-7.580583333333329
 30
0.0
 10
30.96876666666667
 20
-7.624101388888877
 30
0.0
 10
30.85774861111112
 20
-7.642577777777786
 30
0.0
 10
30.78373472222223
 20
-7.654897222222214
 30
0.0
 10
30.71036944444444
 20
-7.651091666666666
 30
0.0
 10
30.6379513888889
 20
-7.674502777777787
 30
0.0
 10
30.5882111111111
 20
-7.690580555555546
 30
0.0
 10
30.53746805555556
 20
-7.703483333333325
 30
0.0
 10
30.48614583333334
 20
-7.71338472222222
 30
0.0
 10
30.42311666666668
 20
-7.725536111111118
 30
0.0
 10
30.35932083333334
 20
-7.733102777777781
 30
0.0
 10
30.29528194444444
 20
-7.736991666666679
 30
0.0
 10
30.25514583333333
 20
-7.739427777777792
 30
0.0
 10
30.21490972222222
 20
-7.740422222222226
 30
0.0
 10
30.1747125
 20
-7.740198611111104
 30
0.0
 10
30.17082361111112
 20
-7.740180555555551
 30
0.0
 10
30.16335
 20
-7.739275000000007
 30
0.0
 10
30.16304722222223
 20
-7.73641249999999
 30
0.0
 10
30.16287361111111
 20
-7.734737500000013
 30
0.0
 10
30.166725
 20
-7.73100694444444
 30
0.0
 10
30.17021250000001
 20
-7.728869444444449
 30
0.0
 10
30.18384861111111
 20
-7.720526388888882
 30
0.0
 10
30.19039305555556
 20
-7.715733333333345
 30
0.0
 10
30.19979444444445
 20
-7.70825416666667
 30
0.0
 10
30.22706666666666
 20
-7.686561111111106
 30
0.0
 10
30.25560694444445
 20
-7.66644999999999
 30
0.0
 10
30.28389722222222
 20
-7.646059722222212
 30
0.0
 10
30.46966805555556
 20
-7.51215694444444
 30
0.0
 10
30.68188888888888
 20
-7.421851388888879
 30
0.0
 10
30.85344444444445
 20
-7.267795833333341
 30
0.0
 10
30.9302125
 20
-7.198865277777789
 30
0.0
 10
31.00784999999999
 20
-7.122895833333334
 30
0.0
 10
31.02200833333333
 20
-7.015549999999999
 30
0.0
 10
31.02960833333335
 20
-6.957916666666657
 30
0.0
 10
31.01842222222222
 20
-6.906837499999988
 30
0.0
 10
30.97870138888889
 20
-6.863194444444439
 30
0.0
 10
30.96623194444444
 20
-6.849498611111104
 30
0.0
 10
30.95148611111111
 20
-6.839694444444452
 30
0.0
 10
30.93353611111112
 20
-6.834765277777781
 30
0.0
 10
30.89228333333332
 20
-6.8234361111111
 30
0.0
 10
30.8511986111111
 20
-6.826222222222214
 30
0.0
 10
30.81052916666666
 20
-6.837145833333326
 30
0.0
 10
30.67018055555556
 20
-6.874855555555566
 30
0.0
 10
30.54861111111111
 20
-6.95962500000001
 30
0.0
 10
30.42026805555555
 20
-7.024849999999989
 30
0.0
 10
30.28961527777778
 20
-7.091249999999995
 30
0.0
 10
30.15537222222221
 20
-7.150773611111112
 30
0.0
 10
30.01730138888888
 20
-7.200027777777778
 30
0.0
 10
29.80940833333333
 20
-7.274201388888892
 30
0.0
 10
29.59632777777779
 20
-7.346912499999992
 30
0.0
 10
29.42241944444444
 20
-7.487681944444451
 30
0.0
 10
29.3484236111111
 20
-7.54758472222223
 30
0.0
 10
29.27217777777778
 20
-7.603966666666666
 30
0.0
 10
29.18935555555555
 20
-7.651413888888883
 30
0.0
 10
28.98921527777778
 20
-7.766079166666663
 30
0.0
 10
28.85561666666667
 20
-7.957162499999994
 30
0.0
 10
28.73078472222222
 20
-8.145323611111102
 30
0.0
 10
28.59636805555556
 20
-8.347922222222223
 30
0.0
 10
28.45793333333333
 20
-8.545611111111105
 30
0.0
 10
28.2681388888889
 20
-8.701099999999997
 30
0.0
 10
28.10420972222222
 20
-8.835394444444445
 30
0.0
 10
28.43953055555556
 20
-9.10417499999999
 30
0.0
 10
28.53387083333334
 20
-9.178987499999998
 30
0.0
 10
28.70140277777778
 20
-9.311834722222228
 30
0.0
 10
28.90290555555556
 20
-9.411163888888899
 30
0.0
 10
29.11933194444444
 20
-9.422004166666662
 30
0.0
 10
29.13633888888888
 20
-9.422852777777784
 30
0.0
 10
29.14765833333334
 20
-9.417895833333331
 30
0.0
 10
29.15839027777777
 20
-9.405418055555552
 30
0.0
 10
29.31595138888888
 20
-9.222168055555558
 30
0.0
 10
29.55508472222222
 20
-9.151351388888896
 30
0.0
 10
29.78468472222222
 20
-9.109786111111108
 30
0.0
 10
30.05390416666667
 20
-9.06105416666666
 30
0.0
 10
30.32226527777778
 20
-9.032162499999988
 30
0.0
 10
30.5851638888889
 20
-8.951459722222227
 30
0.0
 10
30.7349
 20
-8.905495833333335
 30
0.0
 10
30.87625277777778
 20
-8.830016666666678
 30
0.0
 10
30.96601250000001
 20
-8.697752777777774
 30
0.0
 10
31.06745694444445
 20
-8.548272222222218
 30
0.0
 10
31.18801805555555
 20
-8.413673611111108
 30
0.0
 10
31.31338333333332
 20
-8.286293055555563
 30
0.0
 10
31.33954305555554
 20
-8.259712500000003
 30
0.0
 10
31.36455555555555
 20
-8.231890277777767
 30
0.0
 10
31.37946527777778
 20
-8.19673333333334
 30
0.0
 10
31.38806388888889
 20
-8.176465277777778
 30
0.0
 10
31.39345138888888
 20
-8.155779166666662
 30
0.0
 10
31.39062222222222
 20
-8.133577777777772
 30
0.0
 10
31.38950277777778
 20
-8.124777777777783
 30
0.0
 10
31.38739166666667
 20
-8.120540277777788
 30
0.0
 10
31.37747638888888
 20
-8.12732222222222
 30
0.0
 10
31.32882083333334
 20
-8.160597222222224
 30
0.0
 10
31.27907083333333
 20
-8.19230416666667
 30
0.0
 10
31.23093750000001
 20
-8.226306944444458
 30
0.0
 10
31.13951527777779
 20
-8.290886111111098
 30
0.0
 10
31.05164583333334
 20
-8.36025138888888
 30
0.0
 10
30.96269861111111
 20
-8.428155555555552
 30
0.0
 10
30.95894027777778
 20
-8.431026388888894
 30
0.0
 10
30.95477638888888
 20
-8.433668055555547
 30
0.0
 10
30.95038888888888
 20
-8.435315277777766
 30
0.0
 10
30.94622916666668
 20
-8.43687916666666
 30
0.0
 10
30.94209305555556
 20
-8.435427777777779
 30
0.0
 10
30.93931111111111
 20
-8.431487500000003
 30
0.0
 10
30.93640694444444
 20
-8.42738055555555
 30
0.0
 10
30.93719166666667
 20
-8.423341666666676
 30
0.0
 10
30.94024444444443
 20
-8.41996250000001
 30
0.0
 10
30.94304583333332
 20
-8.416862500000004
 30
0.0
 10
30.94632777777777
 20
-8.414136111111121
 30
0.0
 10
30.94966111111113
 20
-8.411601388888887
 30
0.0
 10
31.02673194444444
 20
-8.35303888888888
 30
0.0
 10
31.10274861111111
 20
-8.29308055555556
 30
0.0
 10
31.18111805555557
 20
-8.236250000000002
 30
0.0
 10
31.2559875
 20
-8.181963888888882
 30
0.0
 10
31.33497361111111
 20
-8.13394722222223
 30
0.0
 10
31.40876805555556
 20
-8.078087500000013
 30
0.0
 10
31.45493611111111
 20
-8.043136111111101
 30
0.0
 10
31.50510000000001
 20
-8.00818611111112
 30
0.0
 10
31.53501944444444
 20
-7.957288888888898
 30
0.0
 10
31.53651249999999
 20
-7.954748611111098
 30
0.0
 10
31.53911805555554
 20
-7.950594444444454
 30
0.0
 10
31.53822083333335
 20
-7.949356944444439
 30
0.0
 10
31.53567777777776
 20
-7.945851388888892
 30
0.0
 10
31.53185833333333
 20
-7.948568055555547
 30
0.0
 10
31.5285763888889
 20
-7.949645833333332
 30
0.0
 10
31.52572499999999
 20
-7.950584722222224
 30
0.0
 10
31.52277916666667
 20
-7.951290277777767
 30
0.0
 10
31.52000138888889
 20
-7.952409722222228
 30
0.0
 10
31.40986527777778
 20
-7.996818055555549
 30
0.0
 10
31.29502777777778
 20
-8.029238888888887
 30
0.0
 10
31.18399861111111
 20
-8.071481944444434
 30
0.0
 10
31.07029166666666
 20
-8.114745833333346
 30
0.0
 10
30.95863333333333
 20
-8.163645833333323
 30
0.0
 10
30.8506388888889
 20
-8.219725
 30
0.0
 10
30.842675
 20
-8.22386527777778
 30
0.0
 10
30.83278333333333
 20
-8.229654166666654
 30
0.0
 10
30.82758750000001
 20
-8.217619444444455
 30
0.0
 10
30.82256388888888
 20
-8.205976388888883
 30
0.0
 10
30.83451944444444
 20
-8.204940277777773
 30
0.0
 10
30.84141944444445
 20
-8.200981944444441
 30
0.0
  0
SPLINE
  5
55
330
1F
100
AcDbEntity
  8
Layer 1
370
     0
100
AcDbSpline
210
0.0
220
0.0
230
1.0
 70
    11
 71
     3
 72
    41
 73
    37
 74
     0
 42
0.0000000001
 43
0.0000000001
 12
1.0
 22
0.0
 32
0.0
 13
1.0
 23
0.0
 33
0.0
 40
0.0
 40
0.0
 40
0.0
 40
0.0
 40
1.0
 40
1.0
 40
1.0
 40
2.0
 40
2.0
 40
2.0
 40
3.0
 40
3.0
 40
3.0
 40
4.0
 40
4.0
 40
4.0
 40
5.0
 40
5.0
 40
5.0
 40
6.0
 40
6.0
 40
6.0
 40
7.0
 40
7.0
 40
7.0
 40
8.0
 40
8.0
 40
8.0
 40
9.0
 40
9.0
 40
9.0
 40
10.0
 40
10.0
 40
10.0
 40
11.0
 40
11.0
 40
11.0
 40
12.0
 40
12.0
 40
12.0
 40
12.0
 10
30.83723194444446
 20
-8.417706944444438
 30
0.0
 10
30.84672222222222
 20
-8.42348611111111
 30
0.0
 10
30.84163333333332
 20
-8.431077777777773
 30
0.0
 10
30.83734861111111
 20
-8.43785972222223
 30
0.0
 10
30.83606527777778
 20
-8.439886111111111
 30
0.0
 10
30.83461805555556
 20
-8.441823611111102
 30
0.0
 10
30.83340416666667
 20
-8.443886111111118
 30
0.0
 10
30.77696527777776
 20
-8.540093055555568
 30
0.0
 10
30.69100972222221
 20
-8.593684722222228
 30
0.0
 10
30.58423472222221
 20
-8.618495833333327
 30
0.0
 10
30.53868194444444
 20
-8.629079166666669
 30
0.0
 10
30.49222916666668
 20
-8.636281944444438
 30
0.0
 10
30.44795555555556
 20
-8.65213055555556
 30
0.0
 10
30.44570555555555
 20
-8.652933333333344
 30
0.0
 10
30.44330138888889
 20
-8.653306944444441
 30
0.0
 10
30.44108472222222
 20
-8.653852777777779
 30
0.0
 10
30.43581388888889
 20
-8.653530555555562
 30
0.0
 10
30.43132777777777
 20
-8.652031944444438
 30
0.0
 10
30.42999305555555
 20
-8.646383333333334
 30
0.0
 10
30.42825555555555
 20
-8.639036111111105
 30
0.0
 10
30.4323125
 20
-8.634797222222232
 30
0.0
 10
30.43871805555555
 20
-8.632915277777784
 30
0.0
 10
30.45886527777778
 20
-8.626997222222219
 30
0.0
 10
30.47891944444445
 20
-8.620573611111114
 30
0.0
 10
30.4993625
 20
-8.615862499999997
 30
0.0
 10
30.54029305555555
 20
-8.606413888888886
 30
0.0
 10
30.58112083333334
 20
-8.596909722222234
 30
0.0
 10
30.62156527777776
 20
-8.58527638888889
 30
0.0
 10
30.70705000000001
 20
-8.560680555555564
 30
0.0
 10
30.76919305555556
 20
-8.507565277777783
 30
0.0
 10
30.81522638888888
 20
-8.433313888888884
 30
0.0
 10
30.81680833333333
 20
-8.430759722222218
 30
0.0
 10
30.81855833333333
 20
-8.428308333333336
 30
0.0
 10
30.82012777777777
 20
-8.425745833333343
 30
0.0
 10
30.82410416666665
 20
-8.419252777777778
 30
0.0
 10
30.82898333333333
 20
-8.41267500000001
 30
0.0
 10
30.83723194444446
 20
-8.417706944444438
 30
0.0
  0
HATCH
  5
56
330
1F
100
AcDbEntity
  8
Layer 1
 62
    35
420
 10579544
100
AcDbHatch
 10
0.0
 20
0.0
 30
0.0
210
0.0
220
0.0
230
1.0
  2
SOLID
 70
     1
 71
     0
 91
        2
 92
        1
 93
        1
 72
     4
 94
        3
 73
     0
 74
     1
 95
      182
 96
      178
 40
0.0
 40
0.0
 40
0.0
 40
0.0
 40
1.0
 40
1.0
 40
1.0
 40
2.0
 40
2.0
 40
2.0
 40
3.0
 40
3.0
 40
3.0
 40
4.0
 40
4.0
 40
4.0
 40
5.0
 40
5.0
 40
5.0
 40
6.0
 40
6.0
 40
6.0
 40
7.0
 40
7.0
 40
7.0
 40
8.0
 40
8.0
 40
8.0
 40
9.0
 40
9.0
 40
9.0
 40
10.0
 40
10.0
 40
10.0
 40
11.0
 40
11.0
 40
11.0
 40
12.0
 40
12.0
 40
12.0
 40
13.0
 40
13.0
 40
13.0
 40
14.0
 40
14.0
 40
14.0
 40
15.0
 40
15.0
 40
15.0
 40
16.0
 40
16.0
 40
16.0
 40
17.0
 40
17.0
 40
17.0
 40
18.0
 40
18.0
 40
18.0
 40
19.0
 40
19.0
 40
19.0
 40
20.0
 40
20.0
 40
20.0
 40
21.0
 40
21.0
 40
21.0
 40
22.0
 40
22.0
 40
22.0
 40
23.0
 40
23.0
 40
23.0
 40
24.0
 40
24.0
 40
24.0
 40
25.0
 40
25.0
 40
25.0
 40
26.0
 40
26.0
 40
26.0
 40
27.0
 40
27.0
 40
27.0
 40
28.0
 40
28.0
 40
28.0
 40
29.0
 40
29.0
 40
29.0
 40
30.0
 40
30.0
 40
30.0
 40
31.0
 40
31.0
 40
31.0
 40
32.0
 40
32.0
 40
32.0
 40
33.0
 40
33.0
 40
33.0
 40
34.0
 40
34.0
 40
34.0
 40
35.0
 40
35.0
 40
35.0
 40
36.0
 40
36.0
 40
36.0
 40
37.0
 40
37.0
 40
37.0
 40
38.0
 40
38.0
 40
38.0
 40
39.0
 40
39.0
 40
39.0
 40
40.0
 40
40.0
 40
40.0
 40
41.0
 40
41.0
 40
41.0
 40
42.0
 40
42.0
 40
42.0
 40
43.0
 40
43.0
 40
43.0
 40
44.0
 40
44.0
 40
44.0
 40
45.0
 40
45.0
 40
45.0
 40
46.0
 40
46.0
 40
46.0
 40
47.0
 40
47.0
 40
47.0
 40
48.0
 40
48.0
 40
48.0
 40
49.0
 40
49.0
 40
49.0
 40
50.0
 40
50.0
 40
50.0
 40
51.0
 40
51.0
 40
51.0
 40
52.0
 40
52.0
 40
52.0
 40
53.0
 40
53.0
 40
53.0
 40
54.0
 40
54.0
 40
54.0
 40
55.0
 40
55.0
 40
55.0
 40
56.0
 40
56.0
 40
56.0
 40
57.0
 40
57.0
 40
57.0
 40
58.0
 40
58.0
 40
58.0
 40
59.0
 40
59.0
 40
59.0
 40
59.0
 10
30.84141944444445
 20
-8.200981944444441
 10
30.8874611111111
 20
-8.174550000000004
 10
30.93766805555555
 20
-8.157156944444447
 10
30.98540972222223
 20
-8.134427777777773
 10
31.1620486111111
 20
-8.050338888888897
 10
31.34834305555556
 20
-7.990101388888888
 10
31.53289027777777
 20
-7.926254166666669
 10
31.59107499999999
 20
-7.906124999999999
 10
31.64848888888888
 20
-7.893451388888884
 10
31.69072222222222
 20
-7.845965277777774
 10
31.75766388888888
 20
-7.770700000000008
 10
31.7776111111111
 20
-7.664527777777771
 10
31.80454166666666
 20
-7.570640277777784
 10
31.85045833333334
 20
-7.410498611111102
 10
31.91458055555555
 20
-7.252984722222234
 10
31.9463388888889
 20
-7.089381944444439
 10
31.96236388888888
 20
-7.006825000000011
 10
31.96477222222223
 20
-6.921986111111108
 10
31.98455694444445
 20
-6.840143055555548
 10
31.99178333333333
 20
-6.810252777777779
 10
31.99803888888889
 20
-6.780249999999998
 10
31.99585416666668
 20
-6.749179166666661
 10
31.99310416666668
 20
-6.710170833333323
 10
31.95845277777777
 20
-6.683702777777777
 10
31.92035
 20
-6.691563888888898
 10
31.90784444444446
 20
-6.694145833333323
 10
31.89629583333334
 20
-6.699163888888885
 10
31.88521805555554
 20
-6.705358333333328
 10
31.78378194444445
 20
-6.762076388888898
 10
31.71106111111112
 20
-6.863484722222211
 10
31.65479027777779
 20
-6.960647222222228
 10
31.59895416666667
 20
-7.057083333333341
 10
31.55188055555555
 20
-7.156991666666676
 10
31.51947361111112
 20
-7.263604166666659
 10
31.49640416666668
 20
-7.339504166666655
 10
31.46848749999998
 20
-7.4429888888889
 10
31.39440416666667
 20
-7.485516666666676
 10
31.33185972222223
 20
-7.521419444444442
 10
31.25209861111112
 20
-7.532127777777784
 10
31.18301805555557
 20
-7.551005555555548
 10
31.07479583333333
 20
-7.580583333333329
 10
30.96876666666667
 20
-7.624101388888877
 10
30.85774861111112
 20
-7.642577777777786
 10
30.78373472222223
 20
-7.654897222222214
 10
30.71036944444444
 20
-7.651091666666666
 10
30.6379513888889
 20
-7.674502777777787
 10
30.5882111111111
 20
-7.690580555555546
 10
30.53746805555556
 20
-7.703483333333325
 10
30.48614583333334
 20
-7.71338472222222
 10
30.42311666666668
 20
-7.725536111111118
 10
30.35932083333334
 20
-7.733102777777781
 10
30.29528194444444
 20
-7.736991666666679
 10
30.25514583333333
 20
-7.739427777777792
 10
30.21490972222222
 20
-7.740422222222226
 10
30.1747125
 20
-7.740198611111104
 10
30.17082361111112
 20
-7.740180555555551
 10
30.16335
 20
-7.739275000000007
 10
30.16304722222223
 20
-7.73641249999999
 10
30.16287361111111
 20
-7.734737500000013
 10
30.166725
 20
-7.73100694444444
 10
30.17021250000001
 20
-7.728869444444449
 10
30.18384861111111
 20
-7.720526388888882
 10
30.19039305555556
 20
-7.715733333333345
 10
30.19979444444445
 20
-7.70825416666667
 10
30.22706666666666
 20
-7.686561111111106
 10
30.25560694444445
 20
-7.66644999999999
 10
30.28389722222222
 20
-7.646059722222212
 10
30.46966805555556
 20
-7.51215694444444
 10
30.68188888888888
 20
-7.421851388888879
 10
30.85344444444445
 20
-7.267795833333341
 10
30.9302125
 20
-7.198865277777789
 10
31.00784999999999
 20
-7.122895833333334
 10
31.02200833333333
 20
-7.015549999999999
 10
31.02960833333335
 20
-6.957916666666657
 10
31.01842222222222
 20
-6.906837499999988
 10
30.97870138888889
 20
-6.863194444444439
 10
30.96623194444444
 20
-6.849498611111104
 10
30.95148611111111
 20
-6.839694444444452
 10
30.93353611111112
 20
-6.834765277777781
 10
30.89228333333332
 20
-6.8234361111111
 10
30.8511986111111
 20
-6.826222222222214
 10
30.81052916666666
 20
-6.837145833333326
 10
30.67018055555556
 20
-6.874855555555566
 10
30.54861111111111
 20
-6.95962500000001
 10
30.42026805555555
 20
-7.024849999999989
 10
30.28961527777778
 20
-7.091249999999995
 10
30.15537222222221
 20
-7.150773611111112
 10
30.01730138888888
 20
-7.200027777777778
 10
29.80940833333333
 20
-7.274201388888892
 10
29.59632777777779
 20
-7.346912499999992
 10
29.42241944444444
 20
-7.487681944444451
 10
29.3484236111111
 20
-7.54758472222223
 10
29.27217777777778
 20
-7.603966666666666
 10
29.18935555555555
 20
-7.651413888888883
 10
28.98921527777778
 20
-7.766079166666663
 10
28.85561666666667
 20
-7.957162499999994
 10
28.73078472222222
 20
-8.145323611111102
 10
28.59636805555556
 20
-8.347922222222223
 10
28.45793333333333
 20
-8.545611111111105
 10
28.2681388888889
 20
-8.701099999999997
 10
28.10420972222222
 20
-8.835394444444445
 10
28.43953055555556
 20
-9.10417499999999
 10
28.53387083333334
 20
-9.178987499999998
 10
28.70140277777778
 20
-9.311834722222228
 10
28.90290555555556
 20
-9.411163888888899
 10
29.11933194444444
 20
-9.422004166666662
 10
29.13633888888888
 20
-9.422852777777784
 10
29.14765833333334
 20
-9.417895833333331
 10
29.15839027777777
 20
-9.405418055555552
 10
29.31595138888888
 20
-9.222168055555558
 10
29.55508472222222
 20
-9.151351388888896
 10
29.78468472222222
 20
-9.109786111111108
 10
30.05390416666667
 20
-9.06105416666666
 10
30.32226527777778
 20
-9.032162499999988
 10
30.5851638888889
 20
-8.951459722222227
 10
30.7349
 20
-8.905495833333335
 10
30.87625277777778
 20
-8.830016666666678
 10
30.96601250000001
 20
-8.697752777777774
 10
31.06745694444445
 20
-8.548272222222218
 10
31.18801805555555
 20
-8.413673611111108
 10
31.31338333333332
 20
-8.286293055555563
 10
31.33954305555554
 20
-8.259712500000003
 10
31.36455555555555
 20
-8.231890277777767
 10
31.37946527777778
 20
-8.19673333333334
 10
31.38806388888889
 20
-8.176465277777778
 10
31.39345138888888
 20
-8.155779166666662
 10
31.39062222222222
 20
-8.133577777777772
 10
31.38950277777778
 20
-8.124777777777783
 10
31.38739166666667
 20
-8.120540277777788
 10
31.37747638888888
 20
-8.12732222222222
 10
31.32882083333334
 20
-8.160597222222224
 10
31.27907083333333
 20
-8.19230416666667
 10
31.23093750000001
 20
-8.226306944444458
 10
31.13951527777779
 20
-8.290886111111098
 10
31.05164583333334
 20
-8.36025138888888
 10
30.96269861111111
 20
-8.428155555555552
 10
30.95894027777778
 20
-8.431026388888894
 10
30.95477638888888
 20
-8.433668055555547
 10
30.95038888888888
 20
-8.435315277777766
 10
30.94622916666668
 20
-8.43687916666666
 10
30.94209305555556
 20
-8.435427777777779
 10
30.93931111111111
 20
-8.431487500000003
 10
30.93640694444444
 20
-8.42738055555555
 10
30.93719166666667
 20
-8.423341666666676
 10
30.94024444444443
 20
-8.41996250000001
 10
30.94304583333332
 20
-8.416862500000004
 10
30.94632777777777
 20
-8.414136111111121
 10
30.94966111111113
 20
-8.411601388888887
 10
31.02673194444444
 20
-8.35303888888888
 10
31.10274861111111
 20
-8.29308055555556
 10
31.18111805555557
 20
-8.236250000000002
 10
31.2559875
 20
-8.181963888888882
 10
31.33497361111111
 20
-8.13394722222223
 10
31.40876805555556
 20
-8.078087500000013
 10
31.45493611111111
 20
-8.043136111111101
 10
31.50510000000001
 20
-8.00818611111112
 10
31.53501944444444
 20
-7.957288888888898
 10
31.53651249999999
 20
-7.954748611111098
 10
31.53911805555554
 20
-7.950594444444454
 10
31.53822083333335
 20
-7.949356944444439
 10
31.53567777777776
 20
-7.945851388888892
 10
31.53185833333333
 20
-7.948568055555547
 10
31.5285763888889
 20
-7.949645833333332
 10
31.52572499999999
 20
-7.950584722222224
 10
31.52277916666667
 20
-7.951290277777767
 10
31.52000138888889
 20
-7.952409722222228
 10
31.40986527777778
 20
-7.996818055555549
 10
31.29502777777778
 20
-8.029238888888887
 10
31.18399861111111
 20
-8.071481944444434
 10
31.07029166666666
 20
-8.114745833333346
 10
30.95863333333333
 20
-8.163645833333323
 10
30.8506388888889
 20
-8.219725
 10
30.842675
 20
-8.22386527777778
 10
30.83278333333333
 20
-8.229654166666654
 10
30.82758750000001
 20
-8.217619444444455
 10
30.82256388888888
 20
-8.205976388888883
 10
30.83451944444444
 20
-8.204940277777773
 10
30.84141944444445
 20
-8.200981944444441
 97
        0
 97
        0
 92
        1
 93
        1
 72
     4
 94
        3
 73
     0
 74
     1
 95
       41
 96
       37
 40
0.0
 40
0.0
 40
0.0
 40
0.0
 40
1.0
 40
1.0
 40
1.0
 40
2.0
 40
2.0
 40
2.0
 40
3.0
 40
3.0
 40
3.0
 40
4.0
 40
4.0
 40
4.0
 40
5.0
 40
5.0
 40
5.0
 40
6.0
 40
6.0
 40
6.0
 40
7.0
 40
7.0
 40
7.0
 40
8.0
 40
8.0
 40
8.0
 40
9.0
 40
9.0
 40
9.0
 40
10.0
 40
10.0
 40
10.0
 40
11.0
 40
11.0
 40
11.0
 40
12.0
 40
12.0
 40
12.0
 40
12.0
 10
30.83723194444446
 20
-8.417706944444438
 10
30.84672222222222
 20
-8.42348611111111
 10
30.84163333333332
 20
-8.431077777777773
 10
30.83734861111111
 20
-8.43785972222223
 10
30.83606527777778
 20
-8.439886111111111
 10
30.83461805555556
 20
-8.441823611111102
 10
30.83340416666667
 20
-8.443886111111118
 10
30.77696527777776
 20
-8.540093055555568
 10
30.69100972222221
 20
-8.593684722222228
 10
30.58423472222221
 20
-8.618495833333327
 10
30.53868194444444
 20
-8.629079166666669
 10
30.49222916666668
 20
-8.636281944444438
 10
30.44795555555556
 20
-8.65213055555556
 10
30.44570555555555
 20
-8.652933333333344
 10
30.44330138888889
 20
-8.653306944444441
 10
30.44108472222222
 20
-8.653852777777779
 10
30.43581388888889
 20
-8.653530555555562
 10
30.43132777777777
 20
-8.652031944444438
 10
30.42999305555555
 20
-8.646383333333334
 10
30.42825555555555
 20
-8.639036111111105
 10
30.4323125
 20
-8.634797222222232
 10
30.43871805555555
 20
-8.632915277777784
 10
30.45886527777778
 20
-8.626997222222219
 10
30.47891944444445
 20
-8.620573611111114
 10
30.4993625
 20
-8.615862499999997
 10
30.54029305555555
 20
-8.606413888888886
 10
30.58112083333334
 20
-8.596909722222234
 10
30.62156527777776
 20
-8.58527638888889
 10
30.70705000000001
 20
-8.560680555555564
 10
30.76919305555556
 20
-8.507565277777783
 10
30.81522638888888
 20
-8.433313888888884
 10
30.81680833333333
 20
-8.430759722222218
 10
30.81855833333333
 20
-8.428308333333336
 10
30.82012777777777
 20
-8.425745833333343
 10
30.82410416666665
 20
-8.419252777777778
 10
30.82898333333333
 20
-8.41267500000001
 10
30.83723194444446
 20
-8.417706944444438
 97
        0
 97
        0
 75
     2
 76
     1
 98
        0
  0
SPLINE
  5
57
330
1F
100
AcDbEntity
  8
Layer 1
370
     0
100
AcDbSpline
210
0.0
220
0.0
230
1.0
 70
    11
 71
     3
 72
    53
 73
    49
 74
     0
 42
0.0000000001
 43
0.0000000001
 12
1.0
 22
0.0
 32
0.0
 13
1.0
 23
0.0
 33
0.0
 40
0.0
 40
0.0
 40
0.0
 40
0.0
 40
1.0
 40
1.0
 40
1.0
 40
2.0
 40
2.0
 40
2.0
 40
3.0
 40
3.0
 40
3.0
 40
4.0
 40
4.0
 40
4.0
 40
5.0
 40
5.0
 40
5.0
 40
6.0
 40
6.0
 40
6.0
 40
7.0
 40
7.0
 40
7.0
 40
8.0
 40
8.0
 40
8.0
 40
9.0
 40
9.0
 40
9.0
 40
10.0
 40
10.0
 40
10.0
 40
11.0
 40
11.0
 40
11.0
 40
12.0
 40
12.0
 40
12.0
 40
13.0
 40
13.0
 40
13.0
 40
14.0
 40
14.0
 40
14.0
 40
15.0
 40
15.0
 40
15.0
 40
16.0
 40
16.0
 40
16.0
 40
16.0
 10
31.19813472222222
 20
-7.422915277777772
 30
0.0
 10
31.19876388888888
 20
-7.452431944444444
 30
0.0
 10
31.20423611111111
 20
-7.481483333333345
 30
0.0
 10
31.20779722222222
 20
-7.510724999999992
 30
0.0
 10
31.20877777777779
 20
-7.51875833333333
 30
0.0
 10
31.2104486111111
 20
-7.524211111111121
 30
0.0
 10
31.22121805555556
 20
-7.521330555555551
 30
0.0
 10
31.26709722222222
 20
-7.509090277777785
 30
0.0
 10
31.31263055555556
 20
-7.495651388888897
 30
0.0
 10
31.35741805555555
 20
-7.479988888888884
 30
0.0
 10
31.39102916666666
 20
-7.468234722222228
 30
0.0
 10
31.41604027777779
 20
-7.446411111111122
 30
0.0
 10
31.43158194444446
 20
-7.413079166666673
 30
0.0
 10
31.4521861111111
 20
-7.368886111111124
 30
0.0
 10
31.46855833333335
 20
-7.323016666666667
 30
0.0
 10
31.48762777777779
 20
-7.278229166666657
 30
0.0
 10
31.49108611111112
 20
-7.270106944444453
 30
0.0
 10
31.49149305555557
 20
-7.261583333333343
 30
0.0
 10
31.48891111111111
 20
-7.253459722222209
 30
0.0
 10
31.47688611111112
 20
-7.21569027777779
 30
0.0
 10
31.46765694444444
 20
-7.176448611111103
 30
0.0
 10
31.4443625
 20
-7.143594444444438
 30
0.0
 10
31.39952083333333
 20
-7.080340277777774
 30
0.0
 10
31.35315555555556
 20
-7.018155555555545
 30
0.0
 10
31.30787361111111
 20
-6.955200000000003
 30
0.0
 10
31.28389861111112
 20
-6.921873611111121
 30
0.0
 10
31.25787777777777
 20
-6.890518055555553
 30
0.0
 10
31.22658194444443
 20
-6.863773611111102
 30
0.0
 10
31.20928194444446
 20
-6.8489888888889
 30
0.0
 10
31.1901138888889
 20
-6.838322222222232
 30
0.0
 10
31.16322500000001
 20
-6.837108333333339
 30
0.0
 10
31.1619236111111
 20
-6.837262500000001
 30
0.0
 10
31.15711944444443
 20
-6.837590277777785
 30
0.0
 10
31.15239999999999
 20
-6.838406944444436
 30
0.0
 10
31.09638194444445
 20
-6.848088888888898
 30
0.0
 10
31.05699583333333
 20
-6.885733333333341
 30
0.0
 10
31.04534027777777
 20
-6.941536111111114
 30
0.0
 10
31.03536805555556
 20
-6.9892638888889
 30
0.0
 10
31.04127361111111
 20
-7.036525000000008
 30
0.0
 10
31.05496527777778
 20
-7.082305555555548
 30
0.0
 10
31.0774013888889
 20
-7.157300000000001
 30
0.0
 10
31.11470000000001
 20
-7.225180555555552
 30
0.0
 10
31.16057916666667
 20
-7.288406944444457
 30
0.0
 10
31.1759138888889
 20
-7.309538888888887
 30
0.0
 10
31.18914305555555
 20
-7.331512499999993
 30
0.0
 10
31.19189722222222
 20
-7.358298611111119
 30
0.0
 10
31.19410972222221
 20
-7.379823611111103
 30
0.0
 10
31.19767222222223
 20
-7.401176388888896
 30
0.0
 10
31.19813472222222
 20
-7.422915277777772
 30
0.0
  0
HATCH
  5
58
330
1F
100
AcDbEntity
  8
Layer 1
 62
    35
420
 10579544
100
AcDbHatch
 10
0.0
 20
0.0
 30
0.0
210
0.0
220
0.0
230
1.0
  2
SOLID
 70
     1
 71
     0
 91
        1
 92
        1
 93
        1
 72
     4
 94
        3
 73
     0
 74
     1
 95
       53
 96
       49
 40
0.0
 40
0.0
 40
0.0
 40
0.0
 40
1.0
 40
1.0
 40
1.0
 40
2.0
 40
2.0
 40
2.0
 40
3.0
 40
3.0
 40
3.0
 40
4.0
 40
4.0
 40
4.0
 40
5.0
 40
5.0
 40
5.0
 40
6.0
 40
6.0
 40
6.0
 40
7.0
 40
7.0
 40
7.0
 40
8.0
 40
8.0
 40
8.0
 40
9.0
 40
9.0
 40
9.0
 40
10.0
 40
10.0
 40
10.0
 40
11.0
 40
11.0
 40
11.0
 40
12.0
 40
12.0
 40
12.0
 40
13.0
 40
13.0
 40
13.0
 40
14.0
 40
14.0
 40
14.0
 40
15.0
 40
15.0
 40
15.0
 40
16.0
 40
16.0
 40
16.0
 40
16.0
 10
31.19813472222222
 20
-7.422915277777772
 10
31.19876388888888
 20
-7.452431944444444
 10
31.20423611111111
 20
-7.481483333333345
 10
31.20779722222222
 20
-7.510724999999992
 10
31.20877777777779
 20
-7.51875833333333
 10
31.2104486111111
 20
-7.524211111111121
 10
31.22121805555556
 20
-7.521330555555551
 10
31.26709722222222
 20
-7.509090277777785
 10
31.31263055555556
 20
-7.495651388888897
 10
31.35741805555555
 20
-7.479988888888884
 10
31.39102916666666
 20
-7.468234722222228
 10
31.41604027777779
 20
-7.446411111111122
 10
31.43158194444446
 20
-7.413079166666673
 10
31.4521861111111
 20
-7.368886111111124
 10
31.46855833333335
 20
-7.323016666666667
 10
31.48762777777779
 20
-7.278229166666657
 10
31.49108611111112
 20
-7.270106944444453
 10
31.49149305555557
 20
-7.261583333333343
 10
31.48891111111111
 20
-7.253459722222209
 10
31.47688611111112
 20
-7.21569027777779
 10
31.46765694444444
 20
-7.176448611111103
 10
31.4443625
 20
-7.143594444444438
 10
31.39952083333333
 20
-7.080340277777774
 10
31.35315555555556
 20
-7.018155555555545
 10
31.30787361111111
 20
-6.955200000000003
 10
31.28389861111112
 20
-6.921873611111121
 10
31.25787777777777
 20
-6.890518055555553
 10
31.22658194444443
 20
-6.863773611111102
 10
31.20928194444446
 20
-6.8489888888889
 10
31.1901138888889
 20
-6.838322222222232
 10
31.16322500000001
 20
-6.837108333333339
 10
31.1619236111111
 20
-6.837262500000001
 10
31.15711944444443
 20
-6.837590277777785
 10
31.15239999999999
 20
-6.838406944444436
 10
31.09638194444445
 20
-6.848088888888898
 10
31.05699583333333
 20
-6.885733333333341
 10
31.04534027777777
 20
-6.941536111111114
 10
31.03536805555556
 20
-6.9892638888889
 10
31.04127361111111
 20
-7.036525000000008
 10
31.05496527777778
 20
-7.082305555555548
 10
31.0774013888889
 20
-7.157300000000001
 10
31.11470000000001
 20
-7.225180555555552
 10
31.16057916666667
 20
-7.288406944444457
 10
31.1759138888889
 20
-7.309538888888887
 10
31.18914305555555
 20
-7.331512499999993
 10
31.19189722222222
 20
-7.358298611111119
 10
31.19410972222221
 20
-7.379823611111103
 10
31.19767222222223
 20
-7.401176388888896
 10
31.19813472222222
 20
-7.422915277777772
 97
        0
 97
        0
 75
     2
 76
     1
 98
        0
  0
SPLINE
  5
59
330
1F
100
AcDbEntity
  8
Layer 1
370
     0
100
AcDbSpline
210
0.0
220
0.0
230
1.0
 70
    11
 71
     3
 72
    44
 73
    40
 74
     0
 42
0.0000000001
 43
0.0000000001
 12
1.0
 22
0.0
 32
0.0
 13
1.0
 23
0.0
 33
0.0
 40
0.0
 40
0.0
 40
0.0
 40
0.0
 40
1.0
 40
1.0
 40
1.0
 40
2.0
 40
2.0
 40
2.0
 40
3.0
 40
3.0
 40
3.0
 40
4.0
 40
4.0
 40
4.0
 40
5.0
 40
5.0
 40
5.0
 40
6.0
 40
6.0
 40
6.0
 40
7.0
 40
7.0
 40
7.0
 40
8.0
 40
8.0
 40
8.0
 40
9.0
 40
9.0
 40
9.0
 40
10.0
 40
10.0
 40
10.0
 40
11.0
 40
11.0
 40
11.0
 40
12.0
 40
12.0
 40
12.0
 40
13.0
 40
13.0
 40
13.0
 40
13.0
 10
31.16261388888887
 20
-7.395559722222211
 30
0.0
 10
31.12557222222222
 20
-7.372004166666657
 30
0.0
 10
31.08855833333334
 20
-7.348336111111116
 30
0.0
 10
31.05244444444444
 20
-7.323384722222221
 30
0.0
 10
31.01384305555555
 20
-7.29671527777777
 30
0.0
 10
30.97673194444443
 20
-7.26792222222222
 30
0.0
 10
30.94104722222222
 20
-7.237415277777775
 30
0.0
 10
30.93369027777779
 20
-7.231127777777778
 30
0.0
 10
30.92947499999999
 20
-7.230674999999994
 30
0.0
 10
30.92183333333332
 20
-7.237513888888897
 30
0.0
 10
30.90168055555556
 20
-7.255537499999996
 30
0.0
 10
30.8803986111111
 20
-7.272309722222214
 30
0.0
 10
30.85951249999999
 20
-7.289516666666663
 30
0.0
 10
30.80153333333333
 20
-7.337301388888894
 30
0.0
 10
30.74647777777778
 20
-7.388936111111105
 30
0.0
 10
30.68109444444445
 20
-7.427005555555549
 30
0.0
 10
30.66806527777779
 20
-7.434595833333333
 30
0.0
 10
30.67545555555557
 20
-7.439669444444436
 30
0.0
 10
30.68092222222223
 20
-7.445719444444446
 30
0.0
 10
30.738
 20
-7.508880555555556
 30
0.0
 10
30.80115555555555
 20
-7.565300000000004
 30
0.0
 10
30.8693625
 20
-7.616183333333336
 30
0.0
 10
30.877075
 20
-7.621938888888886
 30
0.0
 10
30.88359166666666
 20
-7.622588888888887
 30
0.0
 10
30.89246111111111
 20
-7.61893333333334
 30
0.0
 10
30.93584722222221
 20
-7.601058333333336
 30
0.0
 10
30.98142222222221
 20
-7.589658333333343
 30
0.0
 10
31.02585416666668
 20
-7.574823611111115
 30
0.0
 10
31.07601388888889
 20
-7.558077777777775
 30
0.0
 10
31.12703333333333
 20
-7.544022222222211
 30
0.0
 10
31.17851805555556
 20
-7.531791666666676
 30
0.0
 10
31.18360694444444
 20
-7.530577777777782
 30
0.0
 10
31.18991805555556
 20
-7.530320833333335
 30
0.0
 10
31.18836805555555
 20
-7.522236111111119
 30
0.0
 10
31.18285972222222
 20
-7.488373611111101
 30
0.0
 10
31.17795416666667
 20
-7.454412499999989
 30
0.0
 10
31.17710000000001
 20
-7.420086111111105
 30
0.0
 10
31.17680555555555
 20
-7.408527777777786
 30
0.0
 10
31.17222083333334
 20
-7.40167083333333
 30
0.0
 10
31.16261388888887
 20
-7.395559722222211
 30
0.0
  0
HATCH
  5
5A
330
1F
100
AcDbEntity
  8
Layer 1
 62
    35
420
 10579544
100
AcDbHatch
 10
0.0
 20
0.0
 30
0.0
210
0.0
220
0.0
230
1.0
  2
SOLID
 70
     1
 71
     0
 91
        1
 92
        1
 93
        1
 72
     4
 94
        3
 73
     0
 74
     1
 95
       44
 96
       40
 40
0.0
 40
0.0
 40
0.0
 40
0.0
 40
1.0
 40
1.0
 40
1.0
 40
2.0
 40
2.0
 40
2.0
 40
3.0
 40
3.0
 40
3.0
 40
4.0
 40
4.0
 40
4.0
 40
5.0
 40
5.0
 40
5.0
 40
6.0
 40
6.0
 40
6.0
 40
7.0
 40
7.0
 40
7.0
 40
8.0
 40
8.0
 40
8.0
 40
9.0
 40
9.0
 40
9.0
 40
10.0
 40
10.0
 40
10.0
 40
11.0
 40
11.0
 40
11.0
 40
12.0
 40
12.0
 40
12.0
 40
13.0
 40
13.0
 40
13.0
 40
13.0
 10
31.16261388888887
 20
-7.395559722222211
 10
31.12557222222222
 20
-7.372004166666657
 10
31.08855833333334
 20
-7.348336111111116
 10
31.05244444444444
 20
-7.323384722222221
 10
31.01384305555555
 20
-7.29671527777777
 10
30.97673194444443
 20
-7.26792222222222
 10
30.94104722222222
 20
-7.237415277777775
 10
30.93369027777779
 20
-7.231127777777778
 10
30.92947499999999
 20
-7.230674999999994
 10
30.92183333333332
 20
-7.237513888888897
 10
30.90168055555556
 20
-7.255537499999996
 10
30.8803986111111
 20
-7.272309722222214
 10
30.85951249999999
 20
-7.289516666666663
 10
30.80153333333333
 20
-7.337301388888894
 10
30.74647777777778
 20
-7.388936111111105
 10
30.68109444444445
 20
-7.427005555555549
 10
30.66806527777779
 20
-7.434595833333333
 10
30.67545555555557
 20
-7.439669444444436
 10
30.68092222222223
 20
-7.445719444444446
 10
30.738
 20
-7.508880555555556
 10
30.80115555555555
 20
-7.565300000000004
 10
30.8693625
 20
-7.616183333333336
 10
30.877075
 20
-7.621938888888886
 10
30.88359166666666
 20
-7.622588888888887
 10
30.89246111111111
 20
-7.61893333333334
 10
30.93584722222221
 20
-7.601058333333336
 10
30.98142222222221
 20
-7.589658333333343
 10
31.02585416666668
 20
-7.574823611111115
 10
31.07601388888889
 20
-7.558077777777775
 10
31.12703333333333
 20
-7.544022222222211
 10
31.17851805555556
 20
-7.531791666666676
 10
31.18360694444444
 20
-7.530577777777782
 10
31.18991805555556
 20
-7.530320833333335
 10
31.18836805555555
 20
-7.522236111111119
 10
31.18285972222222
 20
-7.488373611111101
 10
31.17795416666667
 20
-7.454412499999989
 10
31.17710000000001
 20
-7.420086111111105
 10
31.17680555555555
 20
-7.408527777777786
 10
31.17222083333334
 20
-7.40167083333333
 10
31.16261388888887
 20
-7.395559722222211
 97
        0
 97
        0
 75
     2
 76
     1
 98
        0
  0
SPLINE
  5
5B
330
1F
100
AcDbEntity
  8
Layer 1
370
     0
100
AcDbSpline
210
0.0
220
0.0
230
1.0
 70
    11
 71
     3
 72
    29
 73
    25
 74
     0
 42
0.0000000001
 43
0.0000000001
 12
1.0
 22
0.0
 32
0.0
 13
1.0
 23
0.0
 33
0.0
 40
0.0
 40
0.0
 40
0.0
 40
0.0
 40
1.0
 40
1.0
 40
1.0
 40
2.0
 40
2.0
 40
2.0
 40
3.0
 40
3.0
 40
3.0
 40
4.0
 40
4.0
 40
4.0
 40
5.0
 40
5.0
 40
5.0
 40
6.0
 40
6.0
 40
6.0
 40
7.0
 40
7.0
 40
7.0
 40
8.0
 40
8.0
 40
8.0
 40
8.0
 10
30.48483472222223
 20
-7.542715277777789
 30
0.0
 10
30.40758472222223
 20
-7.587002777777772
 30
0.0
 10
30.33334722222222
 20
-7.635906944444438
 30
0.0
 10
30.26156944444445
 20
-7.68855972222223
 30
0.0
 10
30.24855833333334
 20
-7.698095833333329
 30
0.0
 10
30.24995
 20
-7.715130555555561
 30
0.0
 10
30.26474722222221
 20
-7.721236111111112
 30
0.0
 10
30.27110555555555
 20
-7.723855555555549
 30
0.0
 10
30.27793611111111
 20
-7.723855555555549
 30
0.0
 10
30.28598749999999
 20
-7.723855555555549
 30
0.0
 10
30.33660555555555
 20
-7.720909722222232
 30
0.0
 10
30.38655555555556
 20
-7.715051388888898
 30
0.0
 10
30.43574861111112
 20
-7.70242361111112
 30
0.0
 10
30.48747638888888
 20
-7.68913749999999
 30
0.0
 10
30.54046944444445
 20
-7.68104861111111
 30
0.0
 10
30.59116666666667
 20
-7.663355555555553
 30
0.0
 10
30.60394861111111
 20
-7.658897222222221
 30
0.0
 10
30.60591805555555
 20
-7.656105555555566
 30
0.0
 10
30.59716527777778
 20
-7.64479444444444
 30
0.0
 10
30.5687125
 20
-7.608023611111118
 30
0.0
 10
30.53482083333334
 20
-7.576373611111118
 30
0.0
 10
30.50344166666667
 20
-7.542369444444451
 30
0.0
 10
30.49614999999999
 20
-7.534470833333343
 30
0.0
 10
30.49101527777778
 20
-7.539168055555566
 30
0.0
 10
30.48483472222223
 20
-7.542715277777789
 30
0.0
  0
HATCH
  5
5C
330
1F
100
AcDbEntity
  8
Layer 1
 62
    35
420
 10579544
100
AcDbHatch
 10
0.0
 20
0.0
 30
0.0
210
0.0
220
0.0
230
1.0
  2
SOLID
 70
     1
 71
     0
 91
        1
 92
        1
 93
        1
 72
     4
 94
        3
 73
     0
 74
     1
 95
       29
 96
       25
 40
0.0
 40
0.0
 40
0.0
 40
0.0
 40
1.0
 40
1.0
 40
1.0
 40
2.0
 40
2.0
 40
2.0
 40
3.0
 40
3.0
 40
3.0
 40
4.0
 40
4.0
 40
4.0
 40
5.0
 40
5.0
 40
5.0
 40
6.0
 40
6.0
 40
6.0
 40
7.0
 40
7.0
 40
7.0
 40
8.0
 40
8.0
 40
8.0
 40
8.0
 10
30.48483472222223
 20
-7.542715277777789
 10
30.40758472222223
 20
-7.587002777777772
 10
30.33334722222222
 20
-7.635906944444438
 10
30.26156944444445
 20
-7.68855972222223
 10
30.24855833333334
 20
-7.698095833333329
 10
30.24995
 20
-7.715130555555561
 10
30.26474722222221
 20
-7.721236111111112
 10
30.27110555555555
 20
-7.723855555555549
 10
30.27793611111111
 20
-7.723855555555549
 10
30.28598749999999
 20
-7.723855555555549
 10
30.33660555555555
 20
-7.720909722222232
 10
30.38655555555556
 20
-7.715051388888898
 10
30.43574861111112
 20
-7.70242361111112
 10
30.48747638888888
 20
-7.68913749999999
 10
30.54046944444445
 20
-7.68104861111111
 10
30.59116666666667
 20
-7.663355555555553
 10
30.60394861111111
 20
-7.658897222222221
 10
30.60591805555555
 20
-7.656105555555566
 10
30.59716527777778
 20
-7.64479444444444
 10
30.5687125
 20
-7.608023611111118
 10
30.53482083333334
 20
-7.576373611111118
 10
30.50344166666667
 20
-7.542369444444451
 10
30.49614999999999
 20
-7.534470833333343
 10
30.49101527777778
 20
-7.539168055555566
 10
30.48483472222223
 20
-7.542715277777789
 97
        0
 97
        0
 75
     2
 76
     1
 98
        0
  0
SPLINE
  5
5D
330
1F
100
AcDbEntity
  8
Layer 1
370
     0
100
AcDbSpline
210
0.0
220
0.0
230
1.0
 70
    11
 71
     3
 72
    23
 73
    19
 74
     0
 42
0.0000000001
 43
0.0000000001
 12
1.0
 22
0.0
 32
0.0
 13
1.0
 23
0.0
 33
0.0
 40
0.0
 40
0.0
 40
0.0
 40
0.0
 40
1.0
 40
1.0
 40
1.0
 40
2.0
 40
2.0
 40
2.0
 40
3.0
 40
3.0
 40
3.0
 40
4.0
 40
4.0
 40
4.0
 40
5.0
 40
5.0
 40
5.0
 40
6.0
 40
6.0
 40
6.0
 40
6.0
 10
30.55196249999999
 20
-11.52092083333332
 30
0.0
 10
28.77921666666667
 20
-11.52092083333332
 30
0.0
 10
27.33697916666666
 20
-10.07868333333333
 30
0.0
 10
27.33697916666666
 20
-8.305945833333327
 30
0.0
 10
27.33697916666666
 20
-8.305945833333327
 30
0.0
 10
27.33697916666666
 20
-3.508266666666663
 30
0.0
 10
27.33697916666666
 20
-3.508266666666663
 30
0.0
 10
27.33697916666666
 20
-1.735530555555556
 30
0.0
 10
28.77920694444444
 20
-0.2932916666666693
 30
0.0
 10
30.55194444444444
 20
-0.2932916666666693
 30
0.0
 10
32.32469999999999
 20
-0.2932916666666693
 30
0.0
 10
33.76693750000001
 20
-1.735530555555556
 30
0.0
 10
33.76693750000001
 20
-3.508266666666663
 30
0.0
 10
33.76693750000001
 20
-3.508266666666663
 30
0.0
 10
33.76693750000001
 20
-8.305945833333327
 30
0.0
 10
33.76693750000001
 20
-8.305945833333327
 30
0.0
 10
33.76693750000001
 20
-10.07868333333333
 30
0.0
 10
32.32469999999999
 20
-11.52092083333332
 30
0.0
 10
30.55196249999999
 20
-11.52092083333332
 30
0.0
  0
SPLINE
  5
5E
330
1F
100
AcDbEntity
  8
Layer 1
370
     0
100
AcDbSpline
210
0.0
220
0.0
230
1.0
 70
    11
 71
     3
 72
    26
 73
    22
 74
     0
 42
0.0000000001
 43
0.0000000001
 12
1.0
 22
0.0
 32
0.0
 13
1.0
 23
0.0
 33
0.0
 40
0.0
 40
0.0
 40
0.0
 40
0.0
 40
1.0
 40
1.0
 40
1.0
 40
2.0
 40
2.0
 40
2.0
 40
3.0
 40
3.0
 40
3.0
 40
4.0
 40
4.0
 40
4.0
 40
5.0
 40
5.0
 40
5.0
 40
6.0
 40
6.0
 40
6.0
 40
7.0
 40
7.0
 40
7.0
 40
7.0
 10
30.55196249999999
 20
-0.444112499999998
 30
0.0
 10
28.86237638888888
 20
-0.444112499999998
 30
0.0
 10
27.48779861111111
 20
-1.818680555555551
 30
0.0
 10
27.48779861111111
 20
-3.508266666666663
 30
0.0
 10
27.48779861111111
 20
-3.508266666666663
 30
0.0
 10
27.48779861111111
 20
-8.305945833333327
 30
0.0
 10
27.48779861111111
 20
-8.305945833333327
 30
0.0
 10
27.48779861111111
 20
-9.995533333333343
 30
0.0
 10
28.86236666666667
 20
-11.3701013888889
 30
0.0
 10
30.55194444444444
 20
-11.3701013888889
 30
0.0
 10
30.55194444444444
 20
-11.3701013888889
 30
0.0
 10
30.55196249999999
 20
-11.3701013888889
 30
0.0
 10
30.55196249999999
 20
-11.3701013888889
 30
0.0
 10
32.24154583333335
 20
-11.3701013888889
 30
0.0
 10
33.6161138888889
 20
-9.995533333333343
 30
0.0
 10
33.6161138888889
 20
-8.305945833333327
 30
0.0
 10
33.6161138888889
 20
-8.305945833333327
 30
0.0
 10
33.6161138888889
 20
-3.508266666666663
 30
0.0
 10
33.6161138888889
 20
-3.508266666666663
 30
0.0
 10
33.6161138888889
 20
-1.818680555555551
 30
0.0
 10
32.24154583333335
 20
-0.444112499999998
 30
0.0
 10
30.55196249999999
 20
-0.444112499999998
 30
0.0
  0
HATCH
  5
5F
330
1F
100
AcDbEntity
  8
Layer 1
 62
    35
420
 10579544
100
AcDbHatch
 10
0.0
 20
0.0
 30
0.0
210
0.0
220
0.0
230
1.0
  2
SOLID
 70
     1
 71
     0
 91
        2
 92
        1
 93
        1
 72
     4
 94
        3
 73
     0
 74
     1
 95
       23
 96
       19
 40
0.0
 40
0.0
 40
0.0
 40
0.0
 40
1.0
 40
1.0
 40
1.0
 40
2.0
 40
2.0
 40
2.0
 40
3.0
 40
3.0
 40
3.0
 40
4.0
 40
4.0
 40
4.0
 40
5.0
 40
5.0
 40
5.0
 40
6.0
 40
6.0
 40
6.0
 40
6.0
 10
30.55196249999999
 20
-11.52092083333332
 10
28.77921666666667
 20
-11.52092083333332
 10
27.33697916666666
 20
-10.07868333333333
 10
27.33697916666666
 20
-8.305945833333327
 10
27.33697916666666
 20
-8.305945833333327
 10
27.33697916666666
 20
-3.508266666666663
 10
27.33697916666666
 20
-3.508266666666663
 10
27.33697916666666
 20
-1.735530555555556
 10
28.77920694444444
 20
-0.2932916666666693
 10
30.55194444444444
 20
-0.2932916666666693
 10
32.32469999999999
 20
-0.2932916666666693
 10
33.76693750000001
 20
-1.735530555555556
 10
33.76693750000001
 20
-3.508266666666663
 10
33.76693750000001
 20
-3.508266666666663
 10
33.76693750000001
 20
-8.305945833333327
 10
33.76693750000001
 20
-8.305945833333327
 10
33.76693750000001
 20
-10.07868333333333
 10
32.32469999999999
 20
-11.52092083333332
 10
30.55196249999999
 20
-11.52092083333332
 97
        0
 97
        0
 92
        1
 93
        1
 72
     4
 94
        3
 73
     0
 74
     1
 95
       26
 96
       22
 40
0.0
 40
0.0
 40
0.0
 40
0.0
 40
1.0
 40
1.0
 40
1.0
 40
2.0
 40
2.0
 40
2.0
 40
3.0
 40
3.0
 40
3.0
 40
4.0
 40
4.0
 40
4.0
 40
5.0
 40
5.0
 40
5.0
 40
6.0
 40
6.0
 40
6.0
 40
7.0
 40
7.0
 40
7.0
 40
7.0
 10
30.55196249999999
 20
-0.444112499999998
 10
28.86237638888888
 20
-0.444112499999998
 10
27.48779861111111
 20
-1.818680555555551
 10
27.48779861111111
 20
-3.508266666666663
 10
27.48779861111111
 20
-3.508266666666663
 10
27.48779861111111
 20
-8.305945833333327
 10
27.48779861111111
 20
-8.305945833333327
 10
27.48779861111111
 20
-9.995533333333343
 10
28.86236666666667
 20
-11.3701013888889
 10
30.55194444444444
 20
-11.3701013888889
 10
30.55194444444444
 20
-11.3701013888889
 10
30.55196249999999
 20
-11.3701013888889
 10
30.55196249999999
 20
-11.3701013888889
 10
32.24154583333335
 20
-11.3701013888889
 10
33.6161138888889
 20
-9.995533333333343
 10
33.6161138888889
 20
-8.305945833333327
 10
33.6161138888889
 20
-8.305945833333327
 10
33.6161138888889
 20
-3.508266666666663
 10
33.6161138888889
 20
-3.508266666666663
 10
33.6161138888889
 20
-1.818680555555551
 10
32.24154583333335
 20
-0.444112499999998
 10
30.55196249999999
 20
-0.444112499999998
 97
        0
 97
        0
 75
     2
 76
     1
 98
        0
  0
SPLINE
  5
60
330
1F
100
AcDbEntity
  8
Layer 1
370
     0
100
AcDbSpline
210
0.0
220
0.0
230
1.0
 70
    11
 71
     3
 72
    35
 73
    31
 74
     0
 42
0.0000000001
 43
0.0000000001
 12
1.0
 22
0.0
 32
0.0
 13
1.0
 23
0.0
 33
0.0
 40
0.0
 40
0.0
 40
0.0
 40
0.0
 40
1.0
 40
1.0
 40
1.0
 40
2.0
 40
2.0
 40
2.0
 40
3.0
 40
3.0
 40
3.0
 40
4.0
 40
4.0
 40
4.0
 40
5.0
 40
5.0
 40
5.0
 40
6.0
 40
6.0
 40
6.0
 40
7.0
 40
7.0
 40
7.0
 40
8.0
 40
8.0
 40
8.0
 40
9.0
 40
9.0
 40
9.0
 40
10.0
 40
10.0
 40
10.0
 40
10.0
 10
30.55195833333333
 20
-11.90710277777778
 30
0.0
 10
29.59688333333333
 20
-11.90710277777778
 30
0.0
 10
28.69896111111111
 20
-11.54774861111112
 30
0.0
 10
28.02361805555555
 20
-10.8952486111111
 30
0.0
 10
27.34827638888888
 20
-10.24276111111112
 30
0.0
 10
26.97634722222223
 20
-9.375213888888892
 30
0.0
 10
26.97634722222223
 20
-8.452429166666661
 30
0.0
 10
26.97634722222223
 20
-8.452429166666661
 30
0.0
 10
26.97634722222223
 20
-3.36178472222222
 30
0.0
 10
26.97634722222223
 20
-3.36178472222222
 30
0.0
 10
26.97634722222223
 20
-2.439008333333327
 30
0.0
 10
27.34827638888888
 20
-1.571456944444448
 30
0.0
 10
28.02361805555555
 20
-0.9189555555555494
 30
0.0
 10
28.69896111111111
 20
-0.2664555555555555
 30
0.0
 10
29.59687361111111
 20
0.0928979166666674
 30
0.0
 10
30.5519486111111
 20
0.0928979166666674
 30
0.0
 10
31.50703333333334
 20
0.0928979166666674
 30
0.0
 10
32.40494583333334
 20
-0.2664555555555555
 30
0.0
 10
33.08028888888889
 20
-0.9189555555555494
 30
0.0
 10
33.75564166666665
 20
-1.571452777777772
 30
0.0
 10
34.12756111111111
 20
-2.439008333333327
 30
0.0
 10
34.12756111111111
 20
-3.36178472222222
 30
0.0
 10
34.12756111111111
 20
-3.36178472222222
 30
0.0
 10
34.12756111111111
 20
-8.452429166666661
 30
0.0
 10
34.12756111111111
 20
-8.452429166666661
 30
0.0
 10
34.12756111111111
 20
-9.375213888888892
 30
0.0
 10
33.75564166666665
 20
-10.24276111111112
 30
0.0
 10
33.08028888888889
 20
-10.8952486111111
 30
0.0
 10
32.40494583333334
 20
-11.54774861111112
 30
0.0
 10
31.50703333333334
 20
-11.90710277777778
 30
0.0
 10
30.55195833333333
 20
-11.90710277777778
 30
0.0
  0
SPLINE
  5
61
330
1F
100
AcDbEntity
  8
Layer 1
370
     0
100
AcDbSpline
210
0.0
220
0.0
230
1.0
 70
    11
 71
     3
 72
    26
 73
    22
 74
     0
 42
0.0000000001
 43
0.0000000001
 12
1.0
 22
0.0
 32
0.0
 13
1.0
 23
0.0
 33
0.0
 40
0.0
 40
0.0
 40
0.0
 40
0.0
 40
1.0
 40
1.0
 40
1.0
 40
2.0
 40
2.0
 40
2.0
 40
3.0
 40
3.0
 40
3.0
 40
4.0
 40
4.0
 40
4.0
 40
5.0
 40
5.0
 40
5.0
 40
6.0
 40
6.0
 40
6.0
 40
7.0
 40
7.0
 40
7.0
 40
7.0
 10
30.55195833333333
 20
-0.0506630555555603
 30
0.0
 10
28.66228749999999
 20
-0.0506630555555603
 30
0.0
 10
27.12493055555555
 20
-1.536020833333333
 30
0.0
 10
27.12493055555555
 20
-3.36178472222222
 30
0.0
 10
27.12493055555555
 20
-3.36178472222222
 30
0.0
 10
27.12493055555555
 20
-8.452429166666661
 30
0.0
 10
27.12493055555555
 20
-8.452429166666661
 30
0.0
 10
27.12493055555555
 20
-10.27818333333335
 30
0.0
 10
28.66228333333333
 20
-11.76354166666667
 30
0.0
 10
30.5519486111111
 20
-11.76354166666667
 30
0.0
 10
30.5519486111111
 20
-11.76354166666667
 30
0.0
 10
30.55195833333333
 20
-11.76354166666667
 30
0.0
 10
30.55195833333333
 20
-11.76354166666667
 30
0.0
 10
32.44161944444444
 20
-11.76354166666667
 30
0.0
 10
33.9789763888889
 20
-10.27818333333335
 30
0.0
 10
33.9789763888889
 20
-8.452429166666661
 30
0.0
 10
33.9789763888889
 20
-8.452429166666661
 30
0.0
 10
33.9789763888889
 20
-3.36178472222222
 30
0.0
 10
33.9789763888889
 20
-3.36178472222222
 30
0.0
 10
33.9789763888889
 20
-1.536020833333333
 30
0.0
 10
32.44161944444444
 20
-0.0506630555555603
 30
0.0
 10
30.55195833333333
 20
-0.0506630555555603
 30
0.0
  0
HATCH
  5
62
330
1F
100
AcDbEntity
  8
Layer 1
 62
    35
420
 10579544
100
AcDbHatch
 10
0.0
 20
0.0
 30
0.0
210
0.0
220
0.0
230
1.0
  2
SOLID
 70
     1
 71
     0
 91
        2
 92
        1
 93
        1
 72
     4
 94
        3
 73
     0
 74
     1
 95
       35
 96
       31
 40
0.0
 40
0.0
 40
0.0
 40
0.0
 40
1.0
 40
1.0
 40
1.0
 40
2.0
 40
2.0
 40
2.0
 40
3.0
 40
3.0
 40
3.0
 40
4.0
 40
4.0
 40
4.0
 40
5.0
 40
5.0
 40
5.0
 40
6.0
 40
6.0
 40
6.0
 40
7.0
 40
7.0
 40
7.0
 40
8.0
 40
8.0
 40
8.0
 40
9.0
 40
9.0
 40
9.0
 40
10.0
 40
10.0
 40
10.0
 40
10.0
 10
30.55195833333333
 20
-11.90710277777778
 10
29.59688333333333
 20
-11.90710277777778
 10
28.69896111111111
 20
-11.54774861111112
 10
28.02361805555555
 20
-10.8952486111111
 10
27.34827638888888
 20
-10.24276111111112
 10
26.97634722222223
 20
-9.375213888888892
 10
26.97634722222223
 20
-8.452429166666661
 10
26.97634722222223
 20
-8.452429166666661
 10
26.97634722222223
 20
-3.36178472222222
 10
26.97634722222223
 20
-3.36178472222222
 10
26.97634722222223
 20
-2.439008333333327
 10
27.34827638888888
 20
-1.571456944444448
 10
28.02361805555555
 20
-0.9189555555555494
 10
28.69896111111111
 20
-0.2664555555555555
 10
29.59687361111111
 20
0.0928979166666674
 10
30.5519486111111
 20
0.0928979166666674
 10
31.50703333333334
 20
0.0928979166666674
 10
32.40494583333334
 20
-0.2664555555555555
 10
33.08028888888889
 20
-0.9189555555555494
 10
33.75564166666665
 20
-1.571452777777772
 10
34.12756111111111
 20
-2.439008333333327
 10
34.12756111111111
 20
-3.36178472222222
 10
34.12756111111111
 20
-3.36178472222222
 10
34.12756111111111
 20
-8.452429166666661
 10
34.12756111111111
 20
-8.452429166666661
 10
34.12756111111111
 20
-9.375213888888892
 10
33.75564166666665
 20
-10.24276111111112
 10
33.08028888888889
 20
-10.8952486111111
 10
32.40494583333334
 20
-11.54774861111112
 10
31.50703333333334
 20
-11.90710277777778
 10
30.55195833333333
 20
-11.90710277777778
 97
        0
 97
        0
 92
        1
 93
        1
 72
     4
 94
        3
 73
     0
 74
     1
 95
       26
 96
       22
 40
0.0
 40
0.0
 40
0.0
 40
0.0
 40
1.0
 40
1.0
 40
1.0
 40
2.0
 40
2.0
 40
2.0
 40
3.0
 40
3.0
 40
3.0
 40
4.0
 40
4.0
 40
4.0
 40
5.0
 40
5.0
 40
5.0
 40
6.0
 40
6.0
 40
6.0
 40
7.0
 40
7.0
 40
7.0
 40
7.0
 10
30.55195833333333
 20
-0.0506630555555603
 10
28.66228749999999
 20
-0.0506630555555603
 10
27.12493055555555
 20
-1.536020833333333
 10
27.12493055555555
 20
-3.36178472222222
 10
27.12493055555555
 20
-3.36178472222222
 10
27.12493055555555
 20
-8.452429166666661
 10
27.12493055555555
 20
-8.452429166666661
 10
27.12493055555555
 20
-10.27818333333335
 10
28.66228333333333
 20
-11.76354166666667
 10
30.5519486111111
 20
-11.76354166666667
 10
30.5519486111111
 20
-11.76354166666667
 10
30.55195833333333
 20
-11.76354166666667
 10
30.55195833333333
 20
-11.76354166666667
 10
32.44161944444444
 20
-11.76354166666667
 10
33.9789763888889
 20
-10.27818333333335
 10
33.9789763888889
 20
-8.452429166666661
 10
33.9789763888889
 20
-8.452429166666661
 10
33.9789763888889
 20
-3.36178472222222
 10
33.9789763888889
 20
-3.36178472222222
 10
33.9789763888889
 20
-1.536020833333333
 10
32.44161944444444
 20
-0.0506630555555603
 10
30.55195833333333
 20
-0.0506630555555603
 97
        0
 97
        0
 75
     2
 76
     1
 98
        0
  0
ENDSEC
  0
SECTION
  2
OBJECTS
  0
DICTIONARY
  5
C
330
0
100
AcDbDictionary
281
     1
  3
ACAD_GROUP
350
D
  3
ACAD_LAYOUT
350
1A
  3
ACAD_MATERIAL
350
3B
  3
ACAD_MLEADERSTYLE
350
64
  3
ACAD_MLINESTYLE
350
17
  3
ACAD_PLOTSETTINGS
350
19
  3
ACAD_PLOTSTYLENAME
350
E
  3
ACAD_TABLESTYLE
350
63
  3
ACAD_VISUALSTYLE
350
2A
  0
SUN
  5
3F
330
29
100
AcDbSun
 90
        1
290
     0
 63
     7
421
 16777215
 40
1.0
291
     1
 91
  2455826
 92
 54000000
292
     0
 70
     2
 71
   256
280
     1
  0
DICTIONARY
  5
D
102
{ACAD_REACTORS
330
C
102
}
330
C
100
AcDbDictionary
281
     1
  0
DICTIONARY
  5
1A
102
{ACAD_REACTORS
330
C
102
}
330
C
100
AcDbDictionary
281
     1
  3
Layout1
350
1E
  3
Layout2
350
26
  3
Model
350
22
  0
DICTIONARY
  5
3B
102
{ACAD_REACTORS
330
C
102
}
330
C
100
AcDbDictionary
281
     1
  3
ByBlock
350
3D
  3
ByLayer
350
3C
  3
Global
350
3E
  0
DICTIONARY
  5
64
102
{ACAD_REACTORS
330
C
102
}
330
C
100
AcDbDictionary
281
     1
  0
DICTIONARY
  5
17
102
{ACAD_REACTORS
330
C
102
}
330
C
100
AcDbDictionary
281
     1
  3
Standard
350
18
  0
DICTIONARY
  5
19
102
{ACAD_REACTORS
330
C
102
}
330
C
100
AcDbDictionary
281
     1
  0
ACDBDICTIONARYWDFLT
  5
E
102
{ACAD_REACTORS
330
C
102
}
330
C
100
AcDbDictionary
281
     1
  3
Normal
350
F
100
AcDbDictionaryWithDefault
340
F
  0
DICTIONARY
  5
63
102
{ACAD_REACTORS
330
C
102
}
330
C
100
AcDbDictionary
281
     1
  0
DICTIONARY
  5
2A
102
{ACAD_REACTORS
330
C
102
}
330
C
100
AcDbDictionary
281
     1
  3
2dWireframe
350
2F
  3
3D Hidden
350
31
  3
3dWireframe
350
30
  3
Basic
350
32
  3
Brighten
350
36
  3
ColorChange
350
3A
  3
Conceptual
350
34
  3
Dim
350
35
  3
Facepattern
350
39
  3
Flat
350
2B
  3
FlatWithEdges
350
2C
  3
Gouraud
350
2D
  3
GouraudWithEdges
350
2E
  3
Linepattern
350
38
  3
Realistic
350
33
  3
Thicken
350
37
  0
LAYOUT
  5
1E
102
{ACAD_REACTORS
330
1A
102
}
330
1A
100
AcDbPlotSettings
  1

  2
none_device
  4

  6

 40
0.0
 41
0.0
 42
0.0
 43
0.0
 44
0.0
 45
0.0
 46
0.0
 47
0.0
 48
0.0
 49
0.0
140
0.0
141
0.0
142
1.0
143
1.0
 70
   688
 72
     0
 73
     0
 74
     5
  7

 75
    16
 76
     0
 77
     2
 78
   300
147
1.0
148
0.0
149
0.0
100
AcDbLayout
  1
Layout1
 70
     1
 71
     1
 10
0.0
 20
0.0
 11
12.0
 21
9.0
 12
0.0
 22
0.0
 32
0.0
 14
1.000000000000000E+20
 24
1.000000000000000E+20
 34
1.000000000000000E+20
 15
-1.000000000000000E+20
 25
-1.000000000000000E+20
 35
-1.000000000000000E+20
146
0.0
 13
0.0
 23
0.0
 33
0.0
 16
1.0
 26
0.0
 36
0.0
 17
0.0
 27
1.0
 37
0.0
 76
     0
330
1B
  0
LAYOUT
  5
26
102
{ACAD_REACTORS
330
1A
102
}
330
1A
100
AcDbPlotSettings
  1

  2
none_device
  4

  6

 40
0.0
 41
0.0
 42
0.0
 43
0.0
 44
0.0
 45
0.0
 46
0.0
 47
0.0
 48
0.0
 49
0.0
140
0.0
141
0.0
142
1.0
143
1.0
 70
   688
 72
     0
 73
     0
 74
     5
  7

 75
    16
 76
     0
 77
     2
 78
   300
147
1.0
148
0.0
149
0.0
100
AcDbLayout
  1
Layout2
 70
     1
 71
     2
 10
0.0
 20
0.0
 11
0.0
 21
0.0
 12
0.0
 22
0.0
 32
0.0
 14
0.0
 24
0.0
 34
0.0
 15
0.0
 25
0.0
 35
0.0
146
0.0
 13
0.0
 23
0.0
 33
0.0
 16
1.0
 26
0.0
 36
0.0
 17
0.0
 27
1.0
 37
0.0
 76
     0
330
23
  0
LAYOUT
  5
22
102
{ACAD_REACTORS
330
1A
102
}
330
1A
100
AcDbPlotSettings
  1

  2
none_device
  4

  6

 40
0.0
 41
0.0
 42
0.0
 43
0.0
 44
0.0
 45
0.0
 46
0.0
 47
0.0
 48
0.0
 49
0.0
140
0.0
141
0.0
142
1.0
143
1.0
 70
  1712
 72
     0
 73
     0
 74
     0
  7

 75
     0
 76
     0
 77
     2
 78
   300
147
1.0
148
0.0
149
0.0
100
AcDbLayout
  1
Model
 70
     1
 71
     0
 10
0.0
 20
0.0
 11
12.0
 21
9.0
 12
0.0
 22
0.0
 32
0.0
 14
1.000000000000000E+20
 24
1.000000000000000E+20
 34
1.000000000000000E+20
 15
-1.000000000000000E+20
 25
-1.000000000000000E+20
 35
-1.000000000000000E+20
146
0.0
 13
0.0
 23
0.0
 33
0.0
 16
1.0
 26
0.0
 36
0.0
 17
0.0
 27
1.0
 37
0.0
 76
     0
330
1F
331
29
  0
MATERIAL
  5
3D
102
{ACAD_REACTORS
330
3B
102
}
330
3B
100
AcDbMaterial
  1
ByBlock
 72
     1
 94
      127
  0
MATERIAL
  5
3C
102
{ACAD_REACTORS
330
3B
102
}
330
3B
100
AcDbMaterial
  1
ByLayer
 72
     1
 94
      127
  0
MATERIAL
  5
3E
102
{ACAD_REACTORS
330
3B
102
}
330
3B
100
AcDbMaterial
  1
Global
 72
     1
 94
      127
  0
MLINESTYLE
  5
18
102
{ACAD_REACTORS
330
17
102
}
330
17
100
AcDbMlineStyle
  2
Standard
 70
     0
  3

 62
   256
 51
90.0
 52
90.0
 71
     2
 49
0.5
 62
   256
  6
BYLAYER
 49
-0.5
 62
   256
  6
BYLAYER
  0
ACDBPLACEHOLDER
  5
F
102
{ACAD_REACTORS
330
E
102
}
330
E
  0
VISUALSTYLE
  5
2F
102
{ACAD_REACTORS
330
2A
102
}
330
2A
100
AcDbVisualStyle
  2
2dWireframe
 70
     4
177
     2
291
     0
 71
     0
176
     1
 72
     2
176
     1
 73
     0
176
     1
 90
        0
176
     1
 40
-0.6
176
     1
 41
-30.0
176
     1
 62
     5
 63
     7
421
 16777215
176
     1
 74
     1
176
     1
 91
        4
176
     1
 64
     7
176
     1
 65
   257
176
     1
 75
     1
176
     1
175
     1
176
     1
 42
1.0
176
     1
 92
        0
176
     1
 66
   257
176
     1
 43
1.0
176
     1
 76
     1
176
     1
 77
     6
176
     1
 78
     2
176
     1
 67
     7
176
     1
 79
     5
176
     1
170
     0
176
     1
171
     0
176
     1
290
     0
176
     1
 93
        1
176
     1
 44
0.0
176
     1
173
     0
176
     1
  0
VISUALSTYLE
  5
31
102
{ACAD_REACTORS
330
2A
102
}
330
2A
100
AcDbVisualStyle
  2
3D Hidden
 70
     6
177
     2
291
     0
 71
     1
176
     1
 72
     2
176
     1
 73
     2
176
     1
 90
        0
176
     1
 40
-0.6
176
     1
 41
-30.0
176
     1
 62
     5
 63
     7
421
 16777215
176
     1
 74
     2
176
     1
 91
        2
176
     1
 64
     7
176
     1
 65
   257
176
     1
 75
     2
176
     1
175
     1
176
     1
 42
40.0
176
     1
 92
        0
176
     1
 66
   257
176
     1
 43
1.0
176
     1
 76
     1
176
     1
 77
     6
176
     1
 78
     2
176
     1
 67
     7
176
     1
 79
     3
176
     1
170
     0
176
     1
171
     0
176
     1
290
     0
176
     1
 93
        1
176
     1
 44
0.0
176
     1
173
     0
176
     1
  0
VISUALSTYLE
  5
30
102
{ACAD_REACTORS
330
2A
102
}
330
2A
100
AcDbVisualStyle
  2
3dWireframe
 70
     5
177
     2
291
     0
 71
     0
176
     1
 72
     2
176
     1
 73
     0
176
     1
 90
        0
176
     1
 40
-0.6
176
     1
 41
-30.0
176
     1
 62
     5
 63
     7
421
 16777215
176
     1
 74
     1
176
     1
 91
        4
176
     1
 64
     7
176
     1
 65
   257
176
     1
 75
     1
176
     1
175
     1
176
     1
 42
1.0
176
     1
 92
        0
176
     1
 66
   257
176
     1
 43
1.0
176
     1
 76
     1
176
     1
 77
     6
176
     1
 78
     2
176
     1
 67
     7
176
     1
 79
     5
176
     1
170
     0
176
     1
171
     0
176
     1
290
     0
176
     1
 93
        1
176
     1
 44
0.0
176
     1
173
     0
176
     1
  0
VISUALSTYLE
  5
32
102
{ACAD_REACTORS
330
2A
102
}
330
2A
100
AcDbVisualStyle
  2
Basic
 70
     7
177
     2
291
     1
 71
     1
176
     1
 72
     0
176
     1
 73
     1
176
     1
 90
        0
176
     1
 40
-0.6
176
     1
 41
-30.0
176
     1
 62
     5
 63
     7
421
 16777215
176
     1
 74
     0
176
     1
 91
        4
176
     1
 64
     7
176
     1
 65
   257
176
     1
 75
     1
176
     1
175
     1
176
     1
 42
1.0
176
     1
 92
        8
176
     1
 66
     7
176
     1
 43
1.0
176
     1
 76
     1
176
     1
 77
     6
176
     1
 78
     2
176
     1
 67
     7
176
     1
 79
     5
176
     1
170
     0
176
     1
171
     0
176
     1
290
     0
176
     1
 93
        1
176
     1
 44
0.0
176
     1
173
     0
176
     1
  0
VISUALSTYLE
  5
36
102
{ACAD_REACTORS
330
2A
102
}
330
2A
100
AcDbVisualStyle
  2
Brighten
 70
    12
177
     2
291
     1
 71
     2
176
     1
 72
     2
176
     1
 73
     0
176
     1
 90
        0
176
     1
 40
-0.6
176
     1
 41
-30.0
176
     1
 62
     5
 63
     7
421
 16777215
176
     1
 74
     1
176
     1
 91
        4
176
     1
 64
     7
176
     1
 65
   257
176
     1
 75
     1
176
     1
175
     1
176
     1
 42
1.0
176
     1
 92
        8
176
     1
 66
     7
176
     1
 43
1.0
176
     1
 76
     1
176
     1
 77
     6
176
     1
 78
     2
176
     1
 67
     7
176
     1
 79
     5
176
     1
170
     0
176
     1
171
     0
176
     1
290
     0
176
     1
 93
        1
176
     1
 44
50.0
176
     1
173
     0
176
     1
  0
VISUALSTYLE
  5
3A
102
{ACAD_REACTORS
330
2A
102
}
330
2A
100
AcDbVisualStyle
  2
ColorChange
 70
    16
177
     2
291
     1
 71
     2
176
     1
 72
     2
176
     1
 73
     3
176
     1
 90
        0
176
     1
 40
-0.6
176
     1
 41
-30.0
176
     1
 62
     5
 63
     8
421
  8421504
176
     1
 74
     1
176
     1
 91
        4
176
     1
 64
     7
176
     1
 65
   257
176
     1
 75
     1
176
     1
175
     1
176
     1
 42
1.0
176
     1
 92
        8
176
     1
 66
     8
424
  8421504
176
     1
 43
1.0
176
     1
 76
     1
176
     1
 77
     6
176
     1
 78
     2
176
     1
 67
     7
176
     1
 79
     5
176
     1
170
     0
176
     1
171
     0
176
     1
290
     0
176
     1
 93
        1
176
     1
 44
0.0
176
     1
173
     0
176
     1
  0
VISUALSTYLE
  5
34
102
{ACAD_REACTORS
330
2A
102
}
330
2A
100
AcDbVisualStyle
  2
Conceptual
 70
     9
177
     2
291
     0
 71
     3
176
     1
 72
     2
176
     1
 73
     0
176
     1
 90
        0
176
     1
 40
-0.6
176
     1
 41
-30.0
176
     1
 62
     5
 63
     7
421
 16777215
176
     1
 74
     2
176
     1
 91
        2
176
     1
 64
     7
176
     1
 65
   257
176
     1
 75
     1
176
     1
175
     1
176
     1
 42
40.0
176
     1
 92
        8
176
     1
 66
     7
176
     1
 43
1.0
176
     1
 76
     1
176
     1
 77
     6
176
     1
 78
     2
176
     1
 67
     7
176
     1
 79
     3
176
     1
170
     0
176
     1
171
     0
176
     1
290
     0
176
     1
 93
        1
176
     1
 44
0.0
176
     1
173
     0
176
     1
  0
VISUALSTYLE
  5
35
102
{ACAD_REACTORS
330
2A
102
}
330
2A
100
AcDbVisualStyle
  2
Dim
 70
    11
177
     2
291
     1
 71
     2
176
     1
 72
     2
176
     1
 73
     0
176
     1
 90
        0
176
     1
 40
-0.6
176
     1
 41
-30.0
176
     1
 62
     5
 63
     7
421
 16777215
176
     1
 74
     1
176
     1
 91
        4
176
     1
 64
     7
176
     1
 65
   257
176
     1
 75
     1
176
     1
175
     1
176
     1
 42
1.0
176
     1
 92
        8
176
     1
 66
     7
176
     1
 43
1.0
176
     1
 76
     1
176
     1
 77
     6
176
     1
 78
     2
176
     1
 67
     7
176
     1
 79
     5
176
     1
170
     0
176
     1
171
     0
176
     1
290
     0
176
     1
 93
        1
176
     1
 44
-50.0
176
     1
173
     0
176
     1
  0
VISUALSTYLE
  5
39
102
{ACAD_REACTORS
330
2A
102
}
330
2A
100
AcDbVisualStyle
  2
Facepattern
 70
    15
177
     2
291
     1
 71
     2
176
     1
 72
     2
176
     1
 73
     0
176
     1
 90
        0
176
     1
 40
-0.6
176
     1
 41
-30.0
176
     1
 62
     5
 63
     7
421
 16777215
176
     1
 74
     1
176
     1
 91
        4
176
     1
 64
     7
176
     1
 65
   257
176
     1
 75
     1
176
     1
175
     1
176
     1
 42
1.0
176
     1
 92
        8
176
     1
 66
     7
176
     1
 43
1.0
176
     1
 76
     1
176
     1
 77
     6
176
     1
 78
     2
176
     1
 67
     7
176
     1
 79
     5
176
     1
170
     0
176
     1
171
     0
176
     1
290
     0
176
     1
 93
        1
176
     1
 44
0.0
176
     1
173
     0
176
     1
  0
VISUALSTYLE
  5
2B
102
{ACAD_REACTORS
330
2A
102
}
330
2A
100
AcDbVisualStyle
  2
Flat
 70
     0
177
     2
291
     1
 71
     2
176
     1
 72
     1
176
     1
 73
     1
176
     1
 90
        2
176
     1
 40
-0.6
176
     1
 41
30.0
176
     1
 62
     5
 63
     7
421
 16777215
176
     1
 74
     0
176
     1
 91
        4
176
     1
 64
     7
176
     1
 65
   257
176
     1
 75
     1
176
     1
175
     1
176
     1
 42
1.0
176
     1
 92
        8
176
     1
 66
     7
176
     1
 43
1.0
176
     1
 76
     1
176
     1
 77
     6
176
     1
 78
     2
176
     1
 67
     7
176
     1
 79
     5
176
     1
170
     0
176
     1
171
     0
176
     1
290
     0
176
     1
 93
       13
176
     1
 44
0.0
176
     1
173
     0
176
     1
  0
VISUALSTYLE
  5
2C
102
{ACAD_REACTORS
330
2A
102
}
330
2A
100
AcDbVisualStyle
  2
FlatWithEdges
 70
     1
177
     2
291
     1
 71
     2
176
     1
 72
     1
176
     1
 73
     1
176
     1
 90
        2
176
     1
 40
-0.6
176
     1
 41
30.0
176
     1
 62
     5
 63
     7
421
 16777215
176
     1
 74
     1
176
     1
 91
        4
176
     1
 64
     7
176
     1
 65
   257
176
     1
 75
     1
176
     1
175
     1
176
     1
 42
1.0
176
     1
 92
        0
176
     1
 66
   257
176
     1
 43
1.0
176
     1
 76
     1
176
     1
 77
     6
176
     1
 78
     2
176
     1
 67
     7
176
     1
 79
     5
176
     1
170
     0
176
     1
171
     0
176
     1
290
     0
176
     1
 93
       13
176
     1
 44
0.0
176
     1
173
     0
176
     1
  0
VISUALSTYLE
  5
2D
102
{ACAD_REACTORS
330
2A
102
}
330
2A
100
AcDbVisualStyle
  2
Gouraud
 70
     2
177
     2
291
     1
 71
     2
176
     1
 72
     2
176
     1
 73
     1
176
     1
 90
        2
176
     1
 40
-0.6
176
     1
 41
30.0
176
     1
 62
     5
 63
     7
421
 16777215
176
     1
 74
     0
176
     1
 91
        4
176
     1
 64
     7
176
     1
 65
   257
176
     1
 75
     1
176
     1
175
     1
176
     1
 42
1.0
176
     1
 92
        0
176
     1
 66
     7
176
     1
 43
1.0
176
     1
 76
     1
176
     1
 77
     6
176
     1
 78
     2
176
     1
 67
     7
176
     1
 79
     5
176
     1
170
     0
176
     1
171
     0
176
     1
290
     0
176
     1
 93
       13
176
     1
 44
0.0
176
     1
173
     0
176
     1
  0
VISUALSTYLE
  5
2E
102
{ACAD_REACTORS
330
2A
102
}
330
2A
100
AcDbVisualStyle
  2
GouraudWithEdges
 70
     3
177
     2
291
     1
 71
     2
176
     1
 72
     2
176
     1
 73
     1
176
     1
 90
        2
176
     1
 40
-0.6
176
     1
 41
30.0
176
     1
 62
     5
 63
     7
421
 16777215
176
     1
 74
     1
176
     1
 91
        4
176
     1
 64
     7
176
     1
 65
   257
176
     1
 75
     1
176
     1
175
     1
176
     1
 42
1.0
176
     1
 92
        0
176
     1
 66
   257
176
     1
 43
1.0
176
     1
 76
     1
176
     1
 77
     6
176
     1
 78
     2
176
     1
 67
     7
176
     1
 79
     5
176
     1
170
     0
176
     1
171
     0
176
     1
290
     0
176
     1
 93
       13
176
     1
 44
0.0
176
     1
173
     0
176
     1
  0
VISUALSTYLE
  5
38
102
{ACAD_REACTORS
330
2A
102
}
330
2A
100
AcDbVisualStyle
  2
Linepattern
 70
    14
177
     2
291
     1
 71
     2
176
     1
 72
     2
176
     1
 73
     0
176
     1
 90
        0
176
     1
 40
-0.6
176
     1
 41
-30.0
176
     1
 62
     5
 63
     7
421
 16777215
176
     1
 74
     1
176
     1
 91
        4
176
     1
 64
     7
176
     1
 65
   257
176
     1
 75
     7
176
     1
175
     7
176
     1
 42
1.0
176
     1
 92
        8
176
     1
 66
     7
176
     1
 43
1.0
176
     1
 76
     1
176
     1
 77
     6
176
     1
 78
     2
176
     1
 67
     7
176
     1
 79
     5
176
     1
170
     0
176
     1
171
     0
176
     1
290
     0
176
     1
 93
        1
176
     1
 44
0.0
176
     1
173
     0
176
     1
  0
VISUALSTYLE
  5
33
102
{ACAD_REACTORS
330
2A
102
}
330
2A
100
AcDbVisualStyle
  2
Realistic
 70
     8
177
     2
291
     0
 71
     2
176
     1
 72
     2
176
     1
 73
     0
176
     1
 90
        0
176
     1
 40
-0.6
176
     1
 41
-30.0
176
     1
 62
     5
 63
     7
421
 16777215
176
     1
 74
     1
176
     1
 91
        0
176
     1
 64
     7
176
     1
 65
   257
176
     1
 75
     1
176
     1
175
     1
176
     1
 42
1.0
176
     1
 92
        8
176
     1
 66
     8
424
  7895160
176
     1
 43
1.0
176
     1
 76
     1
176
     1
 77
     6
176
     1
 78
     2
176
     1
 67
     7
176
     1
 79
     5
176
     1
170
     0
176
     1
171
     0
176
     1
290
     0
176
     1
 93
       13
176
     1
 44
0.0
176
     1
173
     0
176
     1
  0
VISUALSTYLE
  5
37
102
{ACAD_REACTORS
330
2A
102
}
330
2A
100
AcDbVisualStyle
  2
Thicken
 70
    13
177
     2
291
     1
 71
     2
176
     1
 72
     2
176
     1
 73
     0
176
     1
 90
        0
176
     1
 40
-0.6
176
     1
 41
-30.0
176
     1
 62
     5
 63
     7
421
 16777215
176
     1
 74
     1
176
     1
 91
        4
176
     1
 64
     7
176
     1
 65
   257
176
     1
 75
     1
176
     1
175
     1
176
     1
 42
1.0
176
     1
 92
       12
176
     1
 66
     7
176
     1
 43
1.0
176
     1
 76
     1
176
     1
 77
     6
176
     1
 78
     2
176
     1
 67
     7
176
     1
 79
     5
176
     1
170
     0
176
     1
171
     0
176
     1
290
     0
176
     1
 93
        1
176
     1
 44
0.0
176
     1
173
     0
176
     1
  0
ENDSEC
  0
EOF
