  0
SECTION
  2
HEADER
  9
$ACADVER
  1
AC1024
  9
$ACADMAINTVER
 70
     6
  9
$DWGCODEPAGE
  3
ANSI_1251
  9
$INSBASE
 10
0.0
 20
0.0
 30
0.0
  9
$EXTMIN
 10
1.000000000000000E+20
 20
1.000000000000000E+20
 30
1.000000000000000E+20
  9
$EXTMAX
 10
-1.000000000000000E+20
 20
-1.000000000000000E+20
 30
-1.000000000000000E+20
  9
$LIMMIN
 10
0.0
 20
0.0
  9
$LIMMAX
 10
12.0
 20
9.0
  9
$ORTHOMODE
 70
     0
  9
$REGENMODE
 70
     1
  9
$FILLMODE
 70
     1
  9
$QTEXTMODE
 70
     0
  9
$MIRRTEXT
 70
     1
  9
$LTSCALE
 40
1.0
  9
$ATTMODE
 70
     1
  9
$TEXTSIZE
 40
0.2
  9
$TRACEWID
 40
0.05
  9
$TEXTSTYLE
  7
Standard
  9
$CLAYER
  8
0
  9
$CELTYPE
  6
ByLayer
  9
$CECOLOR
 62
   256
  9
$CELTSCALE
 40
1.0
  9
$DISPSILH
 70
     0
  9
$DIMSCALE
 40
1.0
  9
$DIMASZ
 40
0.18
  9
$DIMEXO
 40
0.0625
  9
$DIMDLI
 40
0.38
  9
$DIMRND
 40
0.0
  9
$DIMDLE
 40
0.0
  9
$DIMEXE
 40
0.18
  9
$DIMTP
 40
0.0
  9
$DIMTM
 40
0.0
  9
$DIMTXT
 40
0.18
  9
$DIMCEN
 40
0.09
  9
$DIMTSZ
 40
0.0
  9
$DIMTOL
 70
     0
  9
$DIMLIM
 70
     0
  9
$DIMTIH
 70
     1
  9
$DIMTOH
 70
     1
  9
$DIMSE1
 70
     0
  9
$DIMSE2
 70
     0
  9
$DIMTAD
 70
     0
  9
$DIMZIN
 70
     0
  9
$DIMBLK
  1

  9
$DIMASO
 70
     1
  9
$DIMSHO
 70
     1
  9
$DIMPOST
  1

  9
$DIMAPOST
  1

  9
$DIMALT
 70
     0
  9
$DIMALTD
 70
     2
  9
$DIMALTF
 40
25.4
  9
$DIMLFAC
 40
1.0
  9
$DIMTOFL
 70
     0
  9
$DIMTVP
 40
0.0
  9
$DIMTIX
 70
     0
  9
$DIMSOXD
 70
     0
  9
$DIMSAH
 70
     0
  9
$DIMBLK1
  1

  9
$DIMBLK2
  1

  9
$DIMSTYLE
  2
Standard
  9
$DIMCLRD
 70
     0
  9
$DIMCLRE
 70
     0
  9
$DIMCLRT
 70
     0
  9
$DIMTFAC
 40
1.0
  9
$DIMGAP
 40
0.09
  9
$DIMJUST
 70
     0
  9
$DIMSD1
 70
     0
  9
$DIMSD2
 70
     0
  9
$DIMTOLJ
 70
     1
  9
$DIMTZIN
 70
     0
  9
$DIMALTZ
 70
     0
  9
$DIMALTTZ
 70
     0
  9
$DIMUPT
 70
     0
  9
$DIMDEC
 70
     4
  9
$DIMTDEC
 70
     4
  9
$DIMALTU
 70
     2
  9
$DIMALTTD
 70
     2
  9
$DIMTXSTY
  7
Standard
  9
$DIMAUNIT
 70
     0
  9
$DIMADEC
 70
     0
  9
$DIMALTRND
 40
0.0
  9
$DIMAZIN
 70
     0
  9
$DIMDSEP
 70
    46
  9
$DIMATFIT
 70
     3
  9
$DIMFRAC
 70
     0
  9
$DIMLDRBLK
  1

  9
$DIMLUNIT
 70
     2
  9
$DIMLWD
 70
    -2
  9
$DIMLWE
 70
    -2
  9
$DIMTMOVE
 70
     0
  9
$DIMFXL
 40
1.0
  9
$DIMFXLON
 70
     0
  9
$DIMJOGANG
 40
0.7853981633974483
  9
$DIMTFILL
 70
     0
  9
$DIMTFILLCLR
 70
     0
  9
$DIMARCSYM
 70
     0
  9
$DIMLTYPE
  6

  9
$DIMLTEX1
  6

  9
$DIMLTEX2
  6

  9
$DIMTXTDIRECTION
 70
     0
  9
$LUNITS
 70
     2
  9
$LUPREC
 70
     4
  9
$SKETCHINC
 40
0.1
  9
$FILLETRAD
 40
0.5
  9
$AUNITS
 70
     0
  9
$AUPREC
 70
     0
  9
$MENU
  1
.
  9
$ELEVATION
 40
0.0
  9
$PELEVATION
 40
0.0
  9
$THICKNESS
 40
0.0
  9
$LIMCHECK
 70
     0
  9
$CHAMFERA
 40
0.5
  9
$CHAMFERB
 40
0.5
  9
$CHAMFERC
 40
1.0
  9
$CHAMFERD
 40
0.0
  9
$SKPOLY
 70
     0
  9
$TDCREATE
 40
2459337.684704086
  9
$TDUCREATE
 40
2459337.559704086
  9
$TDUPDATE
 40
2459337.684704086
  9
$TDUUPDATE
 40
2459337.559704086
  9
$TDINDWG
 40
0.0000000116
  9
$TDUSRTIMER
 40
0.0000000116
  9
$USRTIMER
 70
     1
  9
$ANGBASE
 50
0.0
  9
$ANGDIR
 70
     0
  9
$PDMODE
 70
     0
  9
$PDSIZE
 40
0.0
  9
$PLINEWID
 40
0.0
  9
$SPLFRAME
 70
     0
  9
$SPLINETYPE
 70
     6
  9
$SPLINESEGS
 70
     8
  9
$HANDSEED
  5
5D
  9
$SURFTAB1
 70
     6
  9
$SURFTAB2
 70
     6
  9
$SURFTYPE
 70
     6
  9
$SURFU
 70
     6
  9
$SURFV
 70
     6
  9
$UCSBASE
  2

  9
$UCSNAME
  2

  9
$UCSORG
 10
0.0
 20
0.0
 30
0.0
  9
$UCSXDIR
 10
1.0
 20
0.0
 30
0.0
  9
$UCSYDIR
 10
0.0
 20
1.0
 30
0.0
  9
$UCSORTHOREF
  2

  9
$UCSORTHOVIEW
 70
     0
  9
$UCSORGTOP
 10
0.0
 20
0.0
 30
0.0
  9
$UCSORGBOTTOM
 10
0.0
 20
0.0
 30
0.0
  9
$UCSORGLEFT
 10
0.0
 20
0.0
 30
0.0
  9
$UCSORGRIGHT
 10
0.0
 20
0.0
 30
0.0
  9
$UCSORGFRONT
 10
0.0
 20
0.0
 30
0.0
  9
$UCSORGBACK
 10
0.0
 20
0.0
 30
0.0
  9
$PUCSBASE
  2

  9
$PUCSNAME
  2

  9
$PUCSORG
 10
0.0
 20
0.0
 30
0.0
  9
$PUCSXDIR
 10
1.0
 20
0.0
 30
0.0
  9
$PUCSYDIR
 10
0.0
 20
1.0
 30
0.0
  9
$PUCSORTHOREF
  2

  9
$PUCSORTHOVIEW
 70
     0
  9
$PUCSORGTOP
 10
0.0
 20
0.0
 30
0.0
  9
$PUCSORGBOTTOM
 10
0.0
 20
0.0
 30
0.0
  9
$PUCSORGLEFT
 10
0.0
 20
0.0
 30
0.0
  9
$PUCSORGRIGHT
 10
0.0
 20
0.0
 30
0.0
  9
$PUCSORGFRONT
 10
0.0
 20
0.0
 30
0.0
  9
$PUCSORGBACK
 10
0.0
 20
0.0
 30
0.0
  9
$USERI1
 70
     0
  9
$USERI2
 70
     0
  9
$USERI3
 70
     0
  9
$USERI4
 70
     0
  9
$USERI5
 70
     0
  9
$USERR1
 40
0.0
  9
$USERR2
 40
0.0
  9
$USERR3
 40
0.0
  9
$USERR4
 40
0.0
  9
$USERR5
 40
0.0
  9
$WORLDVIEW
 70
     1
  9
$SHADEDGE
 70
     3
  9
$SHADEDIF
 70
    70
  9
$TILEMODE
 70
     1
  9
$MAXACTVP
 70
    64
  9
$PINSBASE
 10
0.0
 20
0.0
 30
0.0
  9
$PLIMCHECK
 70
     0
  9
$PEXTMIN
 10
1.000000000000000E+20
 20
1.000000000000000E+20
 30
1.000000000000000E+20
  9
$PEXTMAX
 10
-1.000000000000000E+20
 20
-1.000000000000000E+20
 30
-1.000000000000000E+20
  9
$PLIMMIN
 10
0.0
 20
0.0
  9
$PLIMMAX
 10
12.0
 20
9.0
  9
$UNITMODE
 70
     0
  9
$VISRETAIN
 70
     1
  9
$PLINEGEN
 70
     0
  9
$PSLTSCALE
 70
     1
  9
$TREEDEPTH
 70
  3020
  9
$CMLSTYLE
  2
Standard
  9
$CMLJUST
 70
     0
  9
$CMLSCALE
 40
1.0
  9
$PROXYGRAPHICS
 70
     1
  9
$MEASUREMENT
 70
     0
  9
$CELWEIGHT
370
    -1
  9
$ENDCAPS
280
     0
  9
$JOINSTYLE
280
     0
  9
$LWDISPLAY
290
     1
  9
$INSUNITS
 70
     1
  9
$HYPERLINKBASE
  1

  9
$STYLESHEET
  1

  9
$XEDIT
290
     1
  9
$CEPSNTYPE
380
     0
  9
$PSTYLEMODE
290
     1
  9
$FINGERPRINTGUID
  2
{CDFBABCF-01D9-41EF-874D-AB60476BDDAA}
  9
$VERSIONGUID
  2
{FAEB1C32-E019-11D5-929B-00C0DF256EC4}
  9
$EXTNAMES
290
     1
  9
$PSVPSCALE
 40
0.0
  9
$OLESTARTUP
290
     0
  9
$SORTENTS
280
   127
  9
$INDEXCTL
280
     0
  9
$HIDETEXT
280
     1
  9
$XCLIPFRAME
280
     2
  9
$HALOGAP
280
     0
  9
$OBSCOLOR
 70
   257
  9
$OBSLTYPE
280
     0
  9
$INTERSECTIONDISPLAY
280
     0
  9
$INTERSECTIONCOLOR
 70
   257
  9
$DIMASSOC
280
     2
  9
$PROJECTNAME
  1

  9
$CAMERADISPLAY
290
     0
  9
$LENSLENGTH
 40
50.0
  9
$CAMERAHEIGHT
 40
0.0
  9
$STEPSPERSEC
 40
2.0
  9
$STEPSIZE
 40
6.0
  9
$3DDWFPREC
 40
2.0
  9
$PSOLWIDTH
 40
0.25
  9
$PSOLHEIGHT
 40
4.0
  9
$LOFTANG1
 40
1.570796326794897
  9
$LOFTANG2
 40
1.570796326794897
  9
$LOFTMAG1
 40
0.0
  9
$LOFTMAG2
 40
0.0
  9
$LOFTPARAM
 70
     7
  9
$LOFTNORMALS
280
     1
  9
$LATITUDE
 40
37.795
  9
$LONGITUDE
 40
-122.394
  9
$NORTHDIRECTION
 40
0.0
  9
$TIMEZONE
 70
 -8000
  9
$LIGHTGLYPHDISPLAY
280
     1
  9
$TILEMODELIGHTSYNCH
280
     1
  9
$CMATERIAL
347
3C
  9
$SOLIDHIST
280
     1
  9
$SHOWHIST
280
     1
  9
$DWFFRAME
280
     2
  9
$DGNFRAME
280
     2
  9
$REALWORLDSCALE
290
     1
  9
$INTERFERECOLOR
 62
   256
  9
$CSHADOW
280
     0
  9
$SHADOWPLANELOCATION
 40
0.0
  0
ENDSEC
  0
SECTION
  2
CLASSES
  0
CLASS
  1
ACDBDICTIONARYWDFLT
  2
AcDbDictionaryWithDefault
  3
ObjectDBX Classes
 90
        0
 91
        4
280
     0
281
     0
  0
CLASS
  1
VISUALSTYLE
  2
AcDbVisualStyle
  3
ObjectDBX Classes
 90
     4095
 91
        4
280
     0
281
     0
  0
CLASS
  1
MATERIAL
  2
AcDbMaterial
  3
ObjectDBX Classes
 90
     1153
 91
        4
280
     0
281
     0
  0
CLASS
  1
SUN
  2
AcDbSun
  3
SCENEOE
 90
     1024
 91
        4
280
     0
281
     0
  0
ENDSEC
  0
SECTION
  2
TABLES
  0
TABLE
  2
VPORT
  5
8
330
0
100
AcDbSymbolTable
 70
     1
  0
VPORT
  5
29
330
8
100
AcDbSymbolTableRecord
100
AcDbViewportTableRecord
  2
*Active
 70
     0
 10
0.0
 20
0.0
 11
1.0
 21
1.0
 12
0.0
 22
0.0
 13
0.0
 23
0.0
 14
0.5
 24
0.5
 15
0.5
 25
0.5
 16
0.0
 26
0.0
 36
1.0
 17
6.104049909672615
 27
-18.35154722222223
 37
0.0
 40
12.0
 41
0.5959342442046938
 42
50.0
 43
0.0
 44
0.0
 50
0.0
 51
0.0
 71
     0
 72
   100
 73
     1
 74
     3
 75
     0
 76
     0
 77
     0
 78
     0
281
     0
 65
     1
110
0.0
120
0.0
130
0.0
111
1.0
121
0.0
131
0.0
112
0.0
122
1.0
132
0.0
 79
     0
146
0.0
 60
     3
 61
     5
292
     1
282
     1
141
0.0
142
0.0
 63
   250
361
3F
  0
ENDTAB
  0
TABLE
  2
LTYPE
  5
5
330
0
100
AcDbSymbolTable
 70
     1
  0
LTYPE
  5
14
330
5
100
AcDbSymbolTableRecord
100
AcDbLinetypeTableRecord
  2
ByBlock
 70
     0
  3

 72
    65
 73
     0
 40
0.0
  0
LTYPE
  5
15
330
5
100
AcDbSymbolTableRecord
100
AcDbLinetypeTableRecord
  2
ByLayer
 70
     0
  3

 72
    65
 73
     0
 40
0.0
  0
LTYPE
  5
16
330
5
100
AcDbSymbolTableRecord
100
AcDbLinetypeTableRecord
  2
Continuous
 70
     0
  3
Solid line
 72
    65
 73
     0
 40
0.0
  0
ENDTAB
  0
TABLE
  2
LAYER
  5
2
330
0
100
AcDbSymbolTable
 70
     2
  0
LAYER
  5
10
330
2
100
AcDbSymbolTableRecord
100
AcDbLayerTableRecord
  2
0
 70
     0
 62
     7
  6
Continuous
370
    -3
390
F
347
3E
  0
LAYER
  5
40
330
2
100
AcDbSymbolTableRecord
100
AcDbLayerTableRecord
  2
Layer 1
 70
     0
 62
     7
  6
Continuous
370
    -3
390
F
347
3E
  0
ENDTAB
  0
TABLE
  2
STYLE
  5
3
330
0
100
AcDbSymbolTable
 70
     1
  0
STYLE
  5
11
330
3
100
AcDbSymbolTableRecord
100
AcDbTextStyleTableRecord
  2
Standard
 70
     0
 40
0.0
 41
1.0
 50
0.0
 71
     0
 42
0.2
  3
txt
  4

  0
ENDTAB
  0
TABLE
  2
VIEW
  5
6
330
0
100
AcDbSymbolTable
 70
     0
  0
ENDTAB
  0
TABLE
  2
UCS
  5
7
330
0
100
AcDbSymbolTable
 70
     0
  0
ENDTAB
  0
TABLE
  2
APPID
  5
9
330
0
100
AcDbSymbolTable
 70
     1
  0
APPID
  5
12
330
9
100
AcDbSymbolTableRecord
100
AcDbRegAppTableRecord
  2
ACAD
 70
     0
  0
ENDTAB
  0
TABLE
  2
DIMSTYLE
  5
A
330
0
100
AcDbSymbolTable
 70
     1
100
AcDbDimStyleTable
  0
DIMSTYLE
105
27
330
A
100
AcDbSymbolTableRecord
100
AcDbDimStyleTableRecord
  2
Standard
 70
     0
178
     0
340
11
  0
ENDTAB
  0
TABLE
  2
BLOCK_RECORD
  5
1
330
0
100
AcDbSymbolTable
 70
     1
  0
BLOCK_RECORD
  5
1F
330
1
100
AcDbSymbolTableRecord
100
AcDbBlockTableRecord
  2
*Model_Space
340
22
 70
     0
280
     1
281
     0
  0
BLOCK_RECORD
  5
1B
330
1
100
AcDbSymbolTableRecord
100
AcDbBlockTableRecord
  2
*Paper_Space
340
1E
 70
     0
280
     1
281
     0
  0
BLOCK_RECORD
  5
23
330
1
100
AcDbSymbolTableRecord
100
AcDbBlockTableRecord
  2
*Paper_Space0
340
26
 70
     0
280
     1
281
     0
  0
ENDTAB
  0
ENDSEC
  0
SECTION
  2
BLOCKS
  0
BLOCK
  5
20
330
1F
100
AcDbEntity
  8
0
100
AcDbBlockBegin
  2
*Model_Space
 70
     0
 10
0.0
 20
0.0
 30
0.0
  3
*Model_Space
  1

  0
ENDBLK
  5
21
330
1F
100
AcDbEntity
  8
0
100
AcDbBlockEnd
  0
BLOCK
  5
1C
330
1B
100
AcDbEntity
 67
     1
  8
0
100
AcDbBlockBegin
  2
*Paper_Space
 70
     0
 10
0.0
 20
0.0
 30
0.0
  3
*Paper_Space
  1

  0
ENDBLK
  5
1D
330
1B
100
AcDbEntity
 67
     1
  8
0
100
AcDbBlockEnd
  0
BLOCK
  5
24
330
23
100
AcDbEntity
  8
0
100
AcDbBlockBegin
  2
*Paper_Space0
 70
     0
 10
0.0
 20
0.0
 30
0.0
  3
*Paper_Space0
  1

  0
ENDBLK
  5
25
330
23
100
AcDbEntity
  8
0
100
AcDbBlockEnd
  0
ENDSEC
  0
SECTION
  2
ENTITIES
  0
SPLINE
  5
41
330
1F
100
AcDbEntity
  8
Layer 1
370
     0
100
AcDbSpline
210
0.0
220
0.0
230
1.0
 70
    11
 71
     3
 72
    23
 73
    19
 74
     0
 42
0.0000000001
 43
0.0000000001
 12
1.0
 22
0.0
 32
0.0
 13
1.0
 23
0.0
 33
0.0
 40
0.0
 40
0.0
 40
0.0
 40
0.0
 40
1.0
 40
1.0
 40
1.0
 40
2.0
 40
2.0
 40
2.0
 40
3.0
 40
3.0
 40
3.0
 40
4.0
 40
4.0
 40
4.0
 40
5.0
 40
5.0
 40
5.0
 40
6.0
 40
6.0
 40
6.0
 40
6.0
 10
6.10404012357675
 20
-12.73773333333333
 30
0.0
 10
4.33130405724872
 20
-12.73773333333333
 30
0.0
 10
2.889070760349265
 20
-14.179975
 30
0.0
 10
2.889070760349265
 20
-15.95271111111111
 30
0.0
 10
2.889070760349265
 20
-15.95271111111111
 30
0.0
 10
2.889070760349265
 20
-20.75038749999999
 30
0.0
 10
2.889070760349265
 20
-20.75038749999999
 30
0.0
 10
2.889070760349265
 20
-22.52312361111111
 30
0.0
 10
4.33130405724872
 20
-23.9653625
 30
0.0
 10
6.104054012465288
 20
-23.9653625
 30
0.0
 10
7.876794245459879
 20
-23.9653625
 30
0.0
 10
9.319031709025895
 20
-22.52312361111111
 30
0.0
 10
9.319031709025895
 20
-20.75038749999999
 30
0.0
 10
9.319031709025895
 20
-20.75038749999999
 30
0.0
 10
9.319031709025895
 20
-15.95271111111111
 30
0.0
 10
9.319031709025895
 20
-15.95271111111111
 30
0.0
 10
9.319031709025895
 20
-14.179975
 30
0.0
 10
7.876794245459879
 20
-12.73773333333333
 30
0.0
 10
6.10404012357675
 20
-12.73773333333333
 30
0.0
  0
SPLINE
  5
42
330
1F
100
AcDbEntity
  8
Layer 1
370
     0
100
AcDbSpline
210
0.0
220
0.0
230
1.0
 70
    11
 71
     3
 72
   362
 73
   358
 74
     0
 42
0.0000000001
 43
0.0000000001
 12
1.0
 22
0.0
 32
0.0
 13
1.0
 23
0.0
 33
0.0
 40
0.0
 40
0.0
 40
0.0
 40
0.0
 40
1.0
 40
1.0
 40
1.0
 40
2.0
 40
2.0
 40
2.0
 40
3.0
 40
3.0
 40
3.0
 40
4.0
 40
4.0
 40
4.0
 40
5.0
 40
5.0
 40
5.0
 40
6.0
 40
6.0
 40
6.0
 40
7.0
 40
7.0
 40
7.0
 40
8.0
 40
8.0
 40
8.0
 40
9.0
 40
9.0
 40
9.0
 40
10.0
 40
10.0
 40
10.0
 40
11.0
 40
11.0
 40
11.0
 40
12.0
 40
12.0
 40
12.0
 40
13.0
 40
13.0
 40
13.0
 40
14.0
 40
14.0
 40
14.0
 40
15.0
 40
15.0
 40
15.0
 40
16.0
 40
16.0
 40
16.0
 40
17.0
 40
17.0
 40
17.0
 40
18.0
 40
18.0
 40
18.0
 40
19.0
 40
19.0
 40
19.0
 40
20.0
 40
20.0
 40
20.0
 40
21.0
 40
21.0
 40
21.0
 40
22.0
 40
22.0
 40
22.0
 40
23.0
 40
23.0
 40
23.0
 40
24.0
 40
24.0
 40
24.0
 40
25.0
 40
25.0
 40
25.0
 40
26.0
 40
26.0
 40
26.0
 40
27.0
 40
27.0
 40
27.0
 40
28.0
 40
28.0
 40
28.0
 40
29.0
 40
29.0
 40
29.0
 40
30.0
 40
30.0
 40
30.0
 40
31.0
 40
31.0
 40
31.0
 40
32.0
 40
32.0
 40
32.0
 40
33.0
 40
33.0
 40
33.0
 40
34.0
 40
34.0
 40
34.0
 40
35.0
 40
35.0
 40
35.0
 40
36.0
 40
36.0
 40
36.0
 40
37.0
 40
37.0
 40
37.0
 40
38.0
 40
38.0
 40
38.0
 40
39.0
 40
39.0
 40
39.0
 40
40.0
 40
40.0
 40
40.0
 40
41.0
 40
41.0
 40
41.0
 40
42.0
 40
42.0
 40
42.0
 40
43.0
 40
43.0
 40
43.0
 40
44.0
 40
44.0
 40
44.0
 40
45.0
 40
45.0
 40
45.0
 40
46.0
 40
46.0
 40
46.0
 40
47.0
 40
47.0
 40
47.0
 40
48.0
 40
48.0
 40
48.0
 40
49.0
 40
49.0
 40
49.0
 40
50.0
 40
50.0
 40
50.0
 40
51.0
 40
51.0
 40
51.0
 40
52.0
 40
52.0
 40
52.0
 40
53.0
 40
53.0
 40
53.0
 40
54.0
 40
54.0
 40
54.0
 40
55.0
 40
55.0
 40
55.0
 40
56.0
 40
56.0
 40
56.0
 40
57.0
 40
57.0
 40
57.0
 40
58.0
 40
58.0
 40
58.0
 40
59.0
 40
59.0
 40
59.0
 40
60.0
 40
60.0
 40
60.0
 40
61.0
 40
61.0
 40
61.0
 40
62.0
 40
62.0
 40
62.0
 40
63.0
 40
63.0
 40
63.0
 40
64.0
 40
64.0
 40
64.0
 40
65.0
 40
65.0
 40
65.0
 40
66.0
 40
66.0
 40
66.0
 40
67.0
 40
67.0
 40
67.0
 40
68.0
 40
68.0
 40
68.0
 40
69.0
 40
69.0
 40
69.0
 40
70.0
 40
70.0
 40
70.0
 40
71.0
 40
71.0
 40
71.0
 40
72.0
 40
72.0
 40
72.0
 40
73.0
 40
73.0
 40
73.0
 40
74.0
 40
74.0
 40
74.0
 40
75.0
 40
75.0
 40
75.0
 40
76.0
 40
76.0
 40
76.0
 40
77.0
 40
77.0
 40
77.0
 40
78.0
 40
78.0
 40
78.0
 40
79.0
 40
79.0
 40
79.0
 40
80.0
 40
80.0
 40
80.0
 40
81.0
 40
81.0
 40
81.0
 40
82.0
 40
82.0
 40
82.0
 40
83.0
 40
83.0
 40
83.0
 40
84.0
 40
84.0
 40
84.0
 40
85.0
 40
85.0
 40
85.0
 40
86.0
 40
86.0
 40
86.0
 40
87.0
 40
87.0
 40
87.0
 40
88.0
 40
88.0
 40
88.0
 40
89.0
 40
89.0
 40
89.0
 40
90.0
 40
90.0
 40
90.0
 40
91.0
 40
91.0
 40
91.0
 40
92.0
 40
92.0
 40
92.0
 40
93.0
 40
93.0
 40
93.0
 40
94.0
 40
94.0
 40
94.0
 40
95.0
 40
95.0
 40
95.0
 40
96.0
 40
96.0
 40
96.0
 40
97.0
 40
97.0
 40
97.0
 40
98.0
 40
98.0
 40
98.0
 40
99.0
 40
99.0
 40
99.0
 40
100.0
 40
100.0
 40
100.0
 40
101.0
 40
101.0
 40
101.0
 40
102.0
 40
102.0
 40
102.0
 40
103.0
 40
103.0
 40
103.0
 40
104.0
 40
104.0
 40
104.0
 40
105.0
 40
105.0
 40
105.0
 40
106.0
 40
106.0
 40
106.0
 40
107.0
 40
107.0
 40
107.0
 40
108.0
 40
108.0
 40
108.0
 40
109.0
 40
109.0
 40
109.0
 40
110.0
 40
110.0
 40
110.0
 40
111.0
 40
111.0
 40
111.0
 40
112.0
 40
112.0
 40
112.0
 40
113.0
 40
113.0
 40
113.0
 40
114.0
 40
114.0
 40
114.0
 40
115.0
 40
115.0
 40
115.0
 40
116.0
 40
116.0
 40
116.0
 40
117.0
 40
117.0
 40
117.0
 40
118.0
 40
118.0
 40
118.0
 40
119.0
 40
119.0
 40
119.0
 40
119.0
 10
9.168202546169494
 20
-20.75038749999999
 30
0.0
 10
9.168202546169494
 20
-22.43996944444444
 30
0.0
 10
7.793640080893864
 20
-23.81453749999999
 30
0.0
 10
6.104054012465288
 20
-23.81453749999999
 30
0.0
 10
6.104054012465288
 20
-23.81453749999999
 30
0.0
 10
6.10404012357675
 20
-23.81453749999999
 30
0.0
 10
6.10404012357675
 20
-23.81453749999999
 30
0.0
 10
4.414463777370151
 20
-23.81453749999999
 30
0.0
 10
3.039895756539105
 20
-22.43996944444444
 30
0.0
 10
3.039895756539105
 20
-20.75038749999999
 30
0.0
 10
3.039895756539105
 20
-20.75038749999999
 30
0.0
 10
3.039895756539105
 20
-15.95271111111111
 30
0.0
 10
3.039895756539105
 20
-15.95271111111111
 30
0.0
 10
3.039895756539105
 20
-14.263125
 30
0.0
 10
4.414467944036712
 20
-12.88855694444444
 30
0.0
 10
6.104054012465288
 20
-12.88855694444444
 30
0.0
 10
6.295024840974293
 20
-12.88855694444444
 30
0.0
 10
6.481659558481724
 20
-12.9069875
 30
0.0
 10
6.66304166666666
 20
-12.94057916666667
 30
0.0
 10
6.651609554188426
 20
-13.18382083333333
 30
0.0
 10
6.62245677714711
 20
-14.00325555555556
 30
0.0
 10
6.517295668692592
 20
-14.23510138888889
 30
0.0
 10
6.471347222222221
 20
-14.33641111111111
 30
0.0
 10
6.415085949052404
 20
-14.43858333333333
 30
0.0
 10
6.324505395785106
 20
-14.5049236111111
 30
0.0
 10
5.999099848449987
 20
-14.74324305555555
 30
0.0
 10
5.61536930258828
 20
-14.87101666666667
 30
0.0
 10
5.347065142699547
 20
-15.18851388888889
 30
0.0
 10
5.315933199041561
 20
-15.22515416666667
 30
0.0
 10
5.302133199390179
 20
-15.26721527777777
 30
0.0
 10
5.299155421687626
 20
-15.31486388888889
 30
0.0
 10
5.293749999999995
 20
-15.40140277777778
 30
0.0
 10
5.302708333333334
 20
-15.48675972222222
 30
0.0
 10
5.317081810123656
 20
-15.57165555555556
 30
0.0
 10
5.354285975850467
 20
-15.79143472222222
 30
0.0
 10
5.343960976111298
 20
-16.00574583333333
 30
0.0
 10
5.33286930972483
 20
-16.22682777777777
 30
0.0
 10
5.328401254282148
 20
-16.31578472222222
 30
0.0
 10
5.360612364579538
 20
-16.39428055555556
 30
0.0
 10
5.403905419041418
 20
-16.46933055555555
 30
0.0
 10
5.424216529639428
 20
-16.50454305555556
 30
0.0
 10
5.449672084551922
 20
-16.53633749999999
 30
0.0
 10
5.471948472878062
 20
-16.57025138888889
 30
0.0
 10
5.529022082547372
 20
-16.65715
 30
0.0
 10
5.567819444444441
 20
-16.75199861111111
 30
0.0
 10
5.633145691028099
 20
-16.83467222222223
 30
0.0
 10
5.726365133117623
 20
-16.95265555555555
 30
0.0
 10
5.849749999999997
 20
-17.03365416666666
 30
0.0
 10
5.956194444444438
 20
-17.13764305555555
 30
0.0
 10
5.982751237751876
 20
-17.16358888888889
 30
0.0
 10
6.009416666666665
 20
-17.18952083333334
 30
0.0
 10
6.036892903050809
 20
-17.21455555555556
 30
0.0
 10
6.036892903050809
 20
-17.21455555555556
 30
0.0
 10
6.036892903050809
 20
-18.25853611111111
 30
0.0
 10
6.036892903050809
 20
-18.25853611111111
 30
0.0
 10
6.036892903050809
 20
-18.25853611111111
 30
0.0
 10
5.836244297008508
 20
-19.72395972222221
 30
0.0
 10
5.836244297008508
 20
-19.72395972222221
 30
0.0
 10
5.746629021494603
 20
-19.74790416666666
 30
0.0
 10
5.661879023635568
 20
-19.78361944444444
 30
0.0
 10
5.583579025613592
 20
-19.82926111111111
 30
0.0
 10
5.583579025613592
 20
-19.82926111111111
 30
0.0
 10
4.288556836106383
 20
-18.93281805555555
 30
0.0
 10
4.288556836106383
 20
-18.93281805555555
 30
0.0
 10
4.27028600323461
 20
-18.92016805555555
 30
0.0
 10
4.248434614897734
 20
-18.94299027777778
 30
0.0
 10
4.261869336780566
 20
-18.96069722222223
 30
0.0
 10
4.261869336780566
 20
-18.96069722222223
 30
0.0
 10
5.207560979557052
 20
-20.20644583333334
 30
0.0
 10
5.207560979557052
 20
-20.20644583333334
 30
0.0
 10
5.162167925148221
 20
-20.28488611111111
 30
0.0
 10
5.126637370490243
 20
-20.36972916666665
 30
0.0
 10
5.102969315532593
 20
-20.45944305555556
 30
0.0
 10
5.102969315532593
 20
-20.45944305555556
 30
0.0
 10
3.553634632449858
 20
-20.74124305555556
 30
0.0
 10
3.553634632449858
 20
-20.74124305555556
 30
0.0
 10
3.531763888888892
 20
-20.74521527777779
 30
0.0
 10
3.532459632984783
 20
-20.77680555555556
 30
0.0
 10
3.55447907687297
 20
-20.77982083333334
 30
0.0
 10
3.55447907687297
 20
-20.77982083333334
 30
0.0
 10
5.103852648843612
 20
-20.9919625
 30
0.0
 10
5.103852648843612
 20
-20.9919625
 30
0.0
 10
5.127790148238899
 20
-21.08158194444445
 30
0.0
 10
5.163512369558703
 20
-21.16632916666668
 30
0.0
 10
5.209142923961533
 20
-21.24463333333334
 30
0.0
 10
5.209142923961533
 20
-21.24463333333334
 30
0.0
 10
4.312715168829426
 20
-22.53964999999999
 30
0.0
 10
4.312715168829426
 20
-22.53964999999999
 30
0.0
 10
4.300059613593577
 20
-22.55793055555556
 30
0.0
 10
4.322883224128114
 20
-22.57977777777779
 30
0.0
 10
4.340594334791805
 20
-22.56633333333333
 30
0.0
 10
4.340594334791805
 20
-22.56633333333333
 30
0.0
 10
5.586337358877245
 20
-21.62065138888889
 30
0.0
 10
5.586337358877245
 20
-21.62065138888889
 30
0.0
 10
5.664772079118038
 20
-21.66604444444445
 30
0.0
 10
5.749616521419132
 20
-21.70157361111112
 30
0.0
 10
5.839334574708219
 20
-21.72523194444443
 30
0.0
 10
5.839334574708219
 20
-21.72523194444443
 30
0.0
 10
6.121130400922791
 20
-23.27457222222223
 30
0.0
 10
6.121130400922791
 20
-23.27457222222223
 30
0.0
 10
6.125108178600081
 20
-23.29643750000001
 30
0.0
 10
6.156697066690968
 20
-23.2957513888889
 30
0.0
 10
6.159712344392574
 20
-23.27372777777777
 30
0.0
 10
6.159712344392574
 20
-23.27372777777777
 30
0.0
 10
6.371858172366652
 20
-21.72435416666667
 30
0.0
 10
6.371858172366652
 20
-21.72435416666667
 30
0.0
 10
6.461473447880557
 20
-21.70042083333333
 30
0.0
 10
6.54621511240647
 20
-21.66470416666667
 30
0.0
 10
6.62452066598386
 20
-21.61905972222222
 30
0.0
 10
6.62452066598386
 20
-21.61905972222222
 30
0.0
 10
7.919545633268777
 20
-22.51549583333334
 30
0.0
 10
7.919545633268777
 20
-22.51549583333334
 30
0.0
 10
7.937826188362528
 20
-22.52814722222221
 30
0.0
 10
7.959659521144304
 20
-22.50531944444444
 30
0.0
 10
7.946224799261472
 20
-22.48762222222222
 30
0.0
 10
7.946224799261472
 20
-22.48762222222222
 30
0.0
 10
7.000538712040401
 20
-21.24186944444444
 30
0.0
 10
7.000538712040401
 20
-21.24186944444444
 30
0.0
 10
7.045931766449232
 20
-21.16342916666667
 30
0.0
 10
7.081456765551795
 20
-21.07859444444443
 30
0.0
 10
7.105124999999993
 20
-20.98887638888889
 30
0.0
 10
7.105124999999993
 20
-20.98887638888889
 30
0.0
 10
8.65445950359218
 20
-20.70708194444445
 30
0.0
 10
8.65445950359218
 20
-20.70708194444445
 30
0.0
 10
8.676334503039572
 20
-20.70310416666666
 30
0.0
 10
8.675634503057255
 20
-20.67151388888889
 30
0.0
 10
8.653615059169068
 20
-20.66849444444445
 30
0.0
 10
8.653615059169068
 20
-20.66849444444445
 30
0.0
 10
7.104251209420403
 20
-20.45635277777779
 30
0.0
 10
7.104251209420403
 20
-20.45635277777779
 30
0.0
 10
7.080312321136262
 20
-20.3667375
 30
0.0
 10
7.044587322038751
 20
-20.28199166666667
 30
0.0
 10
6.998955378747066
 20
-20.20368750000001
 30
0.0
 10
6.998955378747066
 20
-20.20368750000001
 30
0.0
 10
7.895383133879173
 20
-18.90867083333334
 30
0.0
 10
7.895383133879173
 20
-18.90867083333334
 30
0.0
 10
7.908034522448461
 20
-18.89038888888889
 30
0.0
 10
7.885210911913923
 20
-18.86854305555554
 30
0.0
 10
7.867505356805648
 20
-18.88199166666666
 30
0.0
 10
7.867505356805648
 20
-18.88199166666666
 30
0.0
 10
6.621760943831354
 20
-19.82767361111112
 30
0.0
 10
6.621760943831354
 20
-19.82767361111112
 30
0.0
 10
6.543326223590561
 20
-19.78227083333334
 30
0.0
 10
6.458481781289467
 20
-19.74675
 30
0.0
 10
6.368773450222356
 20
-19.72308749999999
 30
0.0
 10
6.368773450222356
 20
-19.72308749999999
 30
0.0
 10
6.120691512044989
 20
-18.35912083333334
 30
0.0
 10
6.120691512044989
 20
-18.35912083333334
 30
0.0
 10
6.120691512044989
 20
-18.35912083333334
 30
0.0
 10
6.120691512044989
 20
-17.27529305555556
 30
0.0
 10
6.120691512044989
 20
-17.27529305555556
 30
0.0
 10
6.140274844883606
 20
-17.28215138888889
 30
0.0
 10
6.161206788799265
 20
-17.28302361111111
 30
0.0
 10
6.184220677106774
 20
-17.27388333333334
 30
0.0
 10
6.200429010030651
 20
-17.26744583333334
 30
0.0
 10
6.212920676381751
 20
-17.25709166666666
 30
0.0
 10
6.223260953898311
 20
-17.24337222222222
 30
0.0
 10
6.266712341689527
 20
-17.18574305555555
 30
0.0
 10
6.270783174920021
 20
-17.1234
 30
0.0
 10
6.246013888888885
 20
-17.05747083333333
 30
0.0
 10
6.220204009531092
 20
-16.98876527777778
 30
0.0
 10
6.175790121764193
 20
-16.93421250000001
 30
0.0
 10
6.120029012061726
 20
-16.88733472222222
 30
0.0
 10
5.95606790509262
 20
-16.74949166666667
 30
0.0
 10
5.872194444444441
 20
-16.55269444444444
 30
0.0
 10
5.775362354102072
 20
-16.36824583333333
 30
0.0
 10
5.719352633294774
 20
-16.26155833333333
 30
0.0
 10
5.742134577163697
 20
-16.1324125
 30
0.0
 10
5.745816521515128
 20
-16.01720138888888
 30
0.0
 10
5.746802632601328
 20
-15.98643472222222
 30
0.0
 10
5.752665132453229
 20
-15.95594166666667
 30
0.0
 10
5.751427632484491
 20
-15.92501527777777
 30
0.0
 10
5.751358188041801
 20
-15.92329166666666
 30
0.0
 10
5.752487354679943
 20
-15.92151388888889
 30
0.0
 10
5.753062354665417
 20
-15.91976805555555
 30
0.0
 10
5.753692910205043
 20
-15.92172777777778
 30
0.0
 10
5.754649854625313
 20
-15.92365138888888
 30
0.0
 10
5.754910965729828
 20
-15.92566805555556
 30
0.0
 10
5.770899854214804
 20
-16.04584583333333
 30
0.0
 10
5.794660964725659
 20
-16.17126111111111
 30
0.0
 10
5.824901241739503
 20
-16.28868472222221
 30
0.0
 10
5.849283185568007
 20
-16.38337083333332
 30
0.0
 10
5.937899849996029
 20
-16.43334305555556
 30
0.0
 10
6.004337348317677
 20
-16.49588333333333
 30
0.0
 10
6.072469291040963
 20
-16.56000555555556
 30
0.0
 10
6.149106789104937
 20
-16.61275138888888
 30
0.0
 10
6.229241509302786
 20
-16.66029722222222
 30
0.0
 10
6.308754007294131
 20
-16.70747361111112
 30
0.0
 10
6.387376227530189
 20
-16.70237638888889
 30
0.0
 10
6.474581780882747
 20
-16.69171388888888
 30
0.0
 10
6.589098444656479
 20
-16.67771805555555
 30
0.0
 10
6.721259552428919
 20
-16.69629305555555
 30
0.0
 10
6.829303994143932
 20
-16.65390555555556
 30
0.0
 10
6.896909547991627
 20
-16.62738194444445
 30
0.0
 10
6.913369269798042
 20
-16.56136805555555
 30
0.0
 10
6.866365104318801
 20
-16.50578472222222
 30
0.0
 10
6.753641496055327
 20
-16.37250277777778
 30
0.0
 10
6.611402777777786
 20
-16.40995555555556
 30
0.0
 10
6.446292892708495
 20
-16.33645972222222
 30
0.0
 10
6.438338726242768
 20
-16.33293055555555
 30
0.0
 10
6.416920671228278
 20
-16.32227777777777
 30
0.0
 10
6.407398449246607
 20
-16.32215138888889
 30
0.0
 10
6.330685951184527
 20
-16.32106805555555
 30
0.0
 10
6.275848452569839
 20
-16.28022222222221
 30
0.0
 10
6.232881786988602
 20
-16.22169722222222
 30
0.0
 10
6.170095677463602
 20
-16.13618055555556
 30
0.0
 10
6.150530400180084
 20
-16.02723888888888
 30
0.0
 10
6.140947067088846
 20
-15.92389861111111
 30
0.0
 10
6.130223456248637
 20
-15.80839861111111
 30
0.0
 10
6.11921234541569
 20
-15.6931736111111
 30
0.0
 10
6.12243734533422
 20
-15.57701527777778
 30
0.0
 10
6.12265678977312
 20
-15.56913472222221
 30
0.0
 10
6.126881789666387
 20
-15.55821666666667
 30
0.0
 10
6.134365122810676
 20
-15.56070416666666
 30
0.0
 10
6.139270678242307
 20
-15.56232916666666
 30
0.0
 10
6.140298455994121
 20
-15.56870972222223
 30
0.0
 10
6.140470678211992
 20
-15.57387777777778
 30
0.0
 10
6.144470678110943
 20
-15.68943888888889
 30
0.0
 10
6.152799844567198
 20
-15.80485555555555
 30
0.0
 10
6.165426233137118
 20
-15.9198
 30
0.0
 10
6.176541666666657
 20
-16.02096527777778
 30
0.0
 10
6.186970677037303
 20
-16.12392638888889
 30
0.0
 10
6.247395675510839
 20
-16.20966666666666
 30
0.0
 10
6.275111111111098
 20
-16.24932777777778
 30
0.0
 10
6.3119748405461
 20
-16.27789305555555
 30
0.0
 10
6.356906783855467
 20
-16.29535138888889
 30
0.0
 10
6.383631783180337
 20
-16.30574305555556
 30
0.0
 10
6.412663726891373
 20
-16.30488888888889
 30
0.0
 10
6.440416666666679
 20
-16.30399305555555
 30
0.0
 10
6.542533168055039
 20
-16.30068749999999
 30
0.0
 10
6.644891498802584
 20
-16.31210555555555
 30
0.0
 10
6.747059551777157
 20
-16.31194166666667
 30
0.0
 10
6.816317883360878
 20
-16.31182083333334
 30
0.0
 10
6.874469270780739
 20
-16.28674305555556
 30
0.0
 10
6.925053991725084
 20
-16.24114027777778
 30
0.0
 10
6.969415101715539
 20
-16.20114722222223
 30
0.0
 10
7.010238711795359
 20
-16.15950277777777
 30
0.0
 10
7.05917482167024
 20
-16.12428611111111
 30
0.0
 10
7.117458333333338
 20
-16.08235138888888
 30
0.0
 10
7.313237315252081
 20
-15.97762916666666
 30
0.0
 10
7.193059540510249
 20
-15.89381249999999
 30
0.0
 10
7.161623430193281
 20
-15.8718861111111
 30
0.0
 10
7.116467875778451
 20
-15.86101805555556
 30
0.0
 10
7.07856232118047
 20
-15.86095277777777
 30
0.0
 10
7.006863711880619
 20
-15.86082222222222
 30
0.0
 10
6.969130379500509
 20
-15.93475694444444
 30
0.0
 10
6.92216371402032
 20
-15.97819027777777
 30
0.0
 10
6.886181770484856
 20
-16.01145555555556
 30
0.0
 10
6.847234549246523
 20
-16.03988055555556
 30
0.0
 10
6.801519272623611
 20
-16.05900972222222
 30
0.0
 10
6.540469279218288
 20
-16.16829305555555
 30
0.0
 10
6.501377613539161
 20
-15.67944861111111
 30
0.0
 10
6.494767891483914
 20
-15.53784861111111
 30
0.0
 10
6.494435947047855
 20
-15.53075833333334
 30
0.0
 10
6.493170669302041
 20
-15.52190277777778
 30
0.0
 10
6.502880391278975
 20
-15.52137916666667
 30
0.0
 10
6.513365113236331
 20
-15.52081944444444
 30
0.0
 10
6.513556779898155
 20
-15.5304875
 30
0.0
 10
6.513981779887419
 20
-15.53792361111111
 30
0.0
 10
6.51695539092341
 20
-15.58979722222222
 30
0.0
 10
6.519723446409039
 20
-15.64178611111111
 30
0.0
 10
6.528005390644264
 20
-15.69306111111112
 30
0.0
 10
6.54102483475981
 20
-15.77369027777778
 30
0.0
 10
6.555683167722842
 20
-15.85417916666667
 30
0.0
 10
6.586184555841201
 20
-15.93048055555555
 30
0.0
 10
6.601095666575626
 20
-15.96776527777778
 30
0.0
 10
6.62470677709027
 20
-16.00001805555555
 30
0.0
 10
6.65742205404159
 20
-16.0234625
 30
0.0
 10
6.69923871965188
 20
-16.05340833333333
 30
0.0
 10
6.745206774046184
 20
-16.06055138888889
 30
0.0
 10
6.794241495029685
 20
-16.04094444444445
 30
0.0
 10
6.853051215766249
 20
-16.01743055555556
 30
0.0
 10
6.899233159044039
 20
-15.97725694444445
 30
0.0
 10
6.941219269094492
 20
-15.93132638888889
 30
0.0
 10
7.025569444444449
 20
-15.83904027777777
 30
0.0
 10
7.130635930976091
 20
-15.752675
 30
0.0
 10
7.095824820744383
 20
-15.61237222222222
 30
0.0
 10
7.076672043450444
 20
-15.53519722222222
 30
0.0
 10
7.037659544435983
 20
-15.45439583333334
 30
0.0
 10
6.989301212324285
 20
-15.39114166666666
 30
0.0
 10
6.983765101353027
 20
-15.38389166666666
 30
0.0
 10
6.980287323663106
 20
-15.38266944444445
 30
0.0
 10
6.973234546063495
 20
-15.38942361111112
 30
0.0
 10
6.962301213006362
 20
-15.39987083333333
 30
0.0
 10
6.95056510219173
 20
-15.40957222222222
 30
0.0
 10
6.938544269162068
 20
-15.41876805555555
 30
0.0
 10
6.907528992167802
 20
-15.44251111111112
 30
0.0
 10
6.892413714771869
 20
-15.47299861111111
 30
0.0
 10
6.893627603630092
 20
-15.51262222222222
 30
0.0
 10
6.894205381393274
 20
-15.53153333333334
 30
0.0
 10
6.897194444444444
 20
-15.54526666666667
 30
0.0
 10
6.91489149198181
 20
-15.55690972222222
 30
0.0
 10
6.942027777777765
 20
-15.57475972222222
 30
0.0
 10
6.963874999999992
 20
-15.59933333333333
 30
0.0
 10
6.983980379125367
 20
-15.625
 30
0.0
 10
6.988628990119044
 20
-15.63093194444444
 30
0.0
 10
6.99259722222223
 20
-15.63744027777778
 30
0.0
 10
6.996424823255438
 20
-15.64395277777778
 30
0.0
 10
6.999240100962096
 20
-15.6487375
 30
0.0
 10
6.998433156538036
 20
-15.65348055555556
 30
0.0
 10
6.993713712212815
 20
-15.6568125
 30
0.0
 10
6.988658156784973
 20
-15.66038472222222
 30
0.0
 10
6.984441490224829
 20
-15.65809722222222
 30
0.0
 10
6.980935934757831
 20
-15.65410138888889
 30
0.0
 10
6.979172045913502
 20
-15.65209305555556
 30
0.0
 10
6.97789287927915
 20
-15.64964722222222
 30
0.0
 10
6.976390101539335
 20
-15.64739722222223
 30
0.0
 10
6.958210935331913
 20
-15.62010277777777
 30
0.0
 10
6.934581769262169
 20
-15.59786805555556
 30
0.0
 10
6.910208333333331
 20
-15.57634305555555
 30
0.0
 10
6.907117881067077
 20
-15.5736125
 30
0.0
 10
6.903481770047821
 20
-15.56904583333333
 30
0.0
 10
6.899256770154554
 20
-15.57172083333333
 30
0.0
 10
6.897478992421687
 20
-15.57284583333333
 30
0.0
 10
6.898458333333338
 20
-15.57877083333334
 30
0.0
 10
6.898626214614928
 20
-15.58249583333333
 30
0.0
 10
6.90027065901783
 20
-15.61765138888889
 30
0.0
 10
6.904294270027296
 20
-15.65254166666667
 30
0.0
 10
6.910605380978975
 20
-15.68717083333334
 30
0.0
 10
6.911483158734578
 20
-15.69195972222222
 30
0.0
 10
6.912458333333334
 20
-15.69673611111111
 30
0.0
 10
6.913078992027597
 20
-15.70155833333333
 30
0.0
 10
6.913924825339564
 20
-15.70809722222222
 30
0.0
 10
6.912556769818567
 20
-15.71392777777777
 30
0.0
 10
6.904928992233484
 20
-15.71492777777778
 30
0.0
 10
6.898159547960049
 20
-15.71580555555556
 30
0.0
 10
6.895256770255602
 20
-15.71100138888889
 30
0.0
 10
6.894341492500947
 20
-15.70512916666667
 30
0.0
 10
6.890377603712194
 20
-15.67949166666666
 30
0.0
 10
6.88544444444445
 20
-15.65392777777778
 30
0.0
 10
6.882955381677473
 20
-15.62813611111111
 30
0.0
 10
6.879388888888898
 20
-15.59100972222222
 30
0.0
 10
6.877708333333329
 20
-15.55369722222223
 30
0.0
 10
6.875103992986927
 20
-15.51647777777778
 30
0.0
 10
6.871938715289111
 20
-15.47103333333333
 30
0.0
 10
6.888076214881443
 20
-15.43334166666667
 30
0.0
 10
6.922938714000742
 20
-15.40479166666667
 30
0.0
 10
6.978788712589853
 20
-15.35903333333334
 30
0.0
 10
7.01811371159642
 20
-15.30188055555555
 30
0.0
 10
7.043859544279358
 20
-15.23502777777778
 30
0.0
 10
7.058176210584356
 20
-15.19785972222222
 30
0.0
 10
7.086815098749765
 20
-15.17586805555556
 30
0.0
 10
7.121608153426374
 20
-15.16116388888889
 30
0.0
 10
7.289840093620922
 20
-15.09004861111111
 30
0.0
 10
7.468710922435598
 20
-15.0414375
 30
0.0
 10
7.567788697710461
 20
-14.87434444444444
 30
0.0
 10
7.63154166666666
 20
-14.7668125
 30
0.0
 10
7.634077584924752
 20
-14.65493055555555
 30
0.0
 10
7.63253591829703
 20
-14.53421111111111
 30
0.0
 10
7.628465085066535
 20
-14.21468750000001
 30
0.0
 10
7.722940082679896
 20
-13.69340416666667
 30
0.0
 10
7.761592859481222
 20
-13.377625
 30
0.0
 10
8.6069845047915
 20
-13.92368611111111
 30
0.0
 10
9.168202546169494
 20
-14.87358333333333
 30
0.0
 10
9.168202546169494
 20
-15.95271111111111
 30
0.0
 10
9.168202546169494
 20
-15.95271111111111
 30
0.0
 10
9.168202546169494
 20
-20.75038749999999
 30
0.0
 10
9.168202546169494
 20
-20.75038749999999
 30
0.0
  0
SPLINE
  5
43
330
1F
100
AcDbEntity
  8
Layer 1
370
     0
100
AcDbSpline
210
0.0
220
0.0
230
1.0
 70
    11
 71
     3
 72
    29
 73
    25
 74
     0
 42
0.0000000001
 43
0.0000000001
 12
1.0
 22
0.0
 32
0.0
 13
1.0
 23
0.0
 33
0.0
 40
0.0
 40
0.0
 40
0.0
 40
0.0
 40
1.0
 40
1.0
 40
1.0
 40
2.0
 40
2.0
 40
2.0
 40
3.0
 40
3.0
 40
3.0
 40
4.0
 40
4.0
 40
4.0
 40
5.0
 40
5.0
 40
5.0
 40
6.0
 40
6.0
 40
6.0
 40
7.0
 40
7.0
 40
7.0
 40
8.0
 40
8.0
 40
8.0
 40
8.0
 10
6.317283173745333
 20
-15.24339861111111
 30
0.0
 10
6.313908173830592
 20
-15.25293472222222
 30
0.0
 10
6.306172062914912
 20
-15.24905138888889
 30
0.0
 10
6.299445674195946
 20
-15.24686666666667
 30
0.0
 10
6.273756785956013
 20
-15.23849583333333
 30
0.0
 10
6.24806789771608
 20
-15.22967777777778
 30
0.0
 10
6.221044287287643
 20
-15.22699444444445
 30
0.0
 10
6.158017899990934
 20
-15.22073888888889
 30
0.0
 10
6.097102623752006
 20
-15.22920694444444
 30
0.0
 10
6.03887623633404
 20
-15.25487777777778
 30
0.0
 10
6.031865125400044
 20
-15.2579625
 30
0.0
 10
6.023626236719287
 20
-15.26208055555556
 30
0.0
 10
6.019755403483739
 20
-15.2517875
 30
0.0
 10
6.016310959126309
 20
-15.24261805555555
 30
0.0
 10
6.024937347797277
 20
-15.2403125
 30
0.0
 10
6.031183180972826
 20
-15.2372638888889
 30
0.0
 10
6.080998457492165
 20
-15.21298472222222
 30
0.0
 10
6.134845678354091
 20
-15.20851805555556
 30
0.0
 10
6.184459565989628
 20
-15.2049375
 30
0.0
 10
6.229404009298681
 20
-15.20566527777777
 30
0.0
 10
6.268001230545855
 20
-15.21569722222222
 30
0.0
 10
6.305930555555555
 20
-15.22888888888888
 30
0.0
 10
6.312690118305808
 20
-15.23124722222222
 30
0.0
 10
6.320494284775324
 20
-15.2343
 30
0.0
 10
6.317283173745333
 20
-15.24339861111111
 30
0.0
  0
SPLINE
  5
44
330
1F
100
AcDbEntity
  8
Layer 1
370
     0
100
AcDbSpline
210
0.0
220
0.0
230
1.0
 70
    11
 71
     3
 72
    32
 73
    28
 74
     0
 42
0.0000000001
 43
0.0000000001
 12
1.0
 22
0.0
 32
0.0
 13
1.0
 23
0.0
 33
0.0
 40
0.0
 40
0.0
 40
0.0
 40
0.0
 40
1.0
 40
1.0
 40
1.0
 40
2.0
 40
2.0
 40
2.0
 40
3.0
 40
3.0
 40
3.0
 40
4.0
 40
4.0
 40
4.0
 40
5.0
 40
5.0
 40
5.0
 40
6.0
 40
6.0
 40
6.0
 40
7.0
 40
7.0
 40
7.0
 40
8.0
 40
8.0
 40
8.0
 40
9.0
 40
9.0
 40
9.0
 40
9.0
 10
5.930952627949308
 20
-15.26067916666667
 30
0.0
 10
5.926037350295701
 20
-15.27372222222223
 30
0.0
 10
5.914773461691362
 20
-15.26435833333333
 30
0.0
 10
5.907345684101225
 20
-15.26150555555556
 30
0.0
 10
5.856840129821547
 20
-15.2421
 30
0.0
 10
5.805452631119705
 20
-15.23958888888889
 30
0.0
 10
5.753085965775932
 20
-15.25182916666667
 30
0.0
 10
5.743119299361044
 20
-15.25415833333333
 30
0.0
 10
5.733306799608928
 20
-15.25715972222221
 30
0.0
 10
5.72340541097017
 20
-15.25977916666666
 30
0.0
 10
5.717859577776935
 20
-15.26124861111111
 30
0.0
 10
5.71209013347824
 20
-15.26171111111111
 30
0.0
 10
5.709583333333335
 20
-15.25532083333333
 30
0.0
 10
5.706791666666668
 20
-15.24817777777778
 30
0.0
 10
5.711477633493713
 20
-15.24425277777777
 30
0.0
 10
5.717438744454234
 20
-15.24169444444444
 30
0.0
 10
5.720398466601687
 20
-15.24042916666667
 30
0.0
 10
5.723516522078474
 20
-15.23949999999999
 30
0.0
 10
5.7266123553336
 20
-15.23855277777778
 30
0.0
 10
5.755195687944857
 20
-15.22979027777778
 30
0.0
 10
5.784688742755356
 20
-15.22676527777778
 30
0.0
 10
5.814266519785936
 20
-15.22464166666666
 30
0.0
 10
5.848456796699995
 20
-15.22644305555555
 30
0.0
 10
5.882156795848661
 20
-15.23057916666667
 30
0.0
 10
5.914022072821454
 20
-15.24366388888888
 30
0.0
 10
5.92170540596069
 20
-15.24681944444444
 30
0.0
 10
5.935565127832787
 20
-15.24843472222223
 30
0.0
 10
5.930952627949308
 20
-15.26067916666667
 30
0.0
  0
SPLINE
  5
45
330
1F
100
AcDbEntity
  8
Layer 1
370
     0
100
AcDbSpline
210
0.0
220
0.0
230
1.0
 70
    11
 71
     3
 72
    29
 73
    25
 74
     0
 42
0.0000000001
 43
0.0000000001
 12
1.0
 22
0.0
 32
0.0
 13
1.0
 23
0.0
 33
0.0
 40
0.0
 40
0.0
 40
0.0
 40
0.0
 40
1.0
 40
1.0
 40
1.0
 40
2.0
 40
2.0
 40
2.0
 40
3.0
 40
3.0
 40
3.0
 40
4.0
 40
4.0
 40
4.0
 40
5.0
 40
5.0
 40
5.0
 40
6.0
 40
6.0
 40
6.0
 40
7.0
 40
7.0
 40
7.0
 40
8.0
 40
8.0
 40
8.0
 40
8.0
 10
6.104479012454552
 20
-21.64185416666666
 30
0.0
 10
6.104310956903242
 20
-21.64185416666666
 30
0.0
 10
6.104170679129007
 20
-21.64185416666666
 30
0.0
 10
6.104002623577697
 20
-21.64185416666666
 30
0.0
 10
6.058198458068142
 20
-21.64159305555555
 30
0.0
 10
6.020698459015471
 20
-21.6043361111111
 30
0.0
 10
6.020390125689927
 20
-21.55876944444445
 30
0.0
 10
6.020245681249131
 20
-21.53702083333335
 30
0.0
 10
6.029269292132287
 20
-21.51550416666666
 30
0.0
 10
6.045066513955438
 20
-21.49975416666666
 30
0.0
 10
6.060859569112027
 20
-21.48402638888888
 30
0.0
 10
6.081445679703089
 20
-21.47539027777778
 30
0.0
 10
6.103097222222218
 20
-21.47539027777778
 30
0.0
 10
6.103381790260047
 20
-21.47539027777778
 30
0.0
 10
6.103666666666665
 20
-21.47539027777778
 30
0.0
 10
6.103951234690107
 20
-21.47539027777778
 30
0.0
 10
6.149120677993475
 20
-21.47584305555556
 30
0.0
 10
6.187474843691234
 20
-21.51412777777778
 30
0.0
 10
6.187684565908158
 20
-21.55900277777778
 30
0.0
 10
6.187810954793854
 20
-21.58101805555556
 30
0.0
 10
6.179240121677038
 20
-21.60173611111112
 30
0.0
 10
6.163583333333336
 20
-21.61741527777778
 30
0.0
 10
6.147809566915485
 20
-21.63319027777778
 30
0.0
 10
6.126848456333897
 20
-21.64185416666666
 30
0.0
 10
6.104479012454552
 20
-21.64185416666666
 30
0.0
  0
SPLINE
  5
46
330
1F
100
AcDbEntity
  8
Layer 1
370
     0
100
AcDbSpline
210
0.0
220
0.0
230
1.0
 70
    11
 71
     3
 72
    26
 73
    22
 74
     0
 42
0.0000000001
 43
0.0000000001
 12
1.0
 22
0.0
 32
0.0
 13
1.0
 23
0.0
 33
0.0
 40
0.0
 40
0.0
 40
0.0
 40
0.0
 40
1.0
 40
1.0
 40
1.0
 40
2.0
 40
2.0
 40
2.0
 40
3.0
 40
3.0
 40
3.0
 40
4.0
 40
4.0
 40
4.0
 40
5.0
 40
5.0
 40
5.0
 40
6.0
 40
6.0
 40
6.0
 40
7.0
 40
7.0
 40
7.0
 40
7.0
 10
6.152094289029466
 20
-21.74600555555556
 30
0.0
 10
6.152094289029466
 20
-21.74600555555556
 30
0.0
 10
6.152094289029466
 20
-22.49052638888889
 30
0.0
 10
6.152094289029466
 20
-22.49052638888889
 30
0.0
 10
6.152094289029466
 20
-22.50911527777778
 30
0.0
 10
6.136983178300094
 20
-22.52422083333332
 30
0.0
 10
6.118399845436215
 20
-22.52422083333332
 30
0.0
 10
6.099815123683483
 20
-22.52422083333332
 30
0.0
 10
6.084681790732449
 20
-22.50911527777778
 30
0.0
 10
6.084681790732449
 20
-22.49052638888889
 30
0.0
 10
6.084681790732449
 20
-22.49052638888889
 30
0.0
 10
6.084681790732449
 20
-21.74717222222221
 30
0.0
 10
6.084681790732449
 20
-21.74717222222221
 30
0.0
 10
6.084681790732449
 20
-21.74717222222221
 30
0.0
 10
6.104054012465288
 20
-21.74733194444444
 30
0.0
 10
6.104054012465288
 20
-21.74733194444444
 30
0.0
 10
6.114020678880175
 20
-21.74733194444444
 30
0.0
 10
6.12389845640842
 20
-21.7469763888889
 30
0.0
 10
6.133795678380617
 20
-21.74664999999999
 30
0.0
 10
6.133795678380617
 20
-21.74664999999999
 30
0.0
 10
6.152094289029466
 20
-21.74600555555556
 30
0.0
 10
6.152094289029466
 20
-21.74600555555556
 30
0.0
  0
SPLINE
  5
47
330
1F
100
AcDbEntity
  8
Layer 1
370
     0
100
AcDbSpline
210
0.0
220
0.0
230
1.0
 70
    11
 71
     3
 72
    29
 73
    25
 74
     0
 42
0.0000000001
 43
0.0000000001
 12
1.0
 22
0.0
 32
0.0
 13
1.0
 23
0.0
 33
0.0
 40
0.0
 40
0.0
 40
0.0
 40
0.0
 40
1.0
 40
1.0
 40
1.0
 40
2.0
 40
2.0
 40
2.0
 40
3.0
 40
3.0
 40
3.0
 40
4.0
 40
4.0
 40
4.0
 40
5.0
 40
5.0
 40
5.0
 40
6.0
 40
6.0
 40
6.0
 40
7.0
 40
7.0
 40
7.0
 40
8.0
 40
8.0
 40
8.0
 40
8.0
 10
6.163055555555553
 20
-19.94852777777777
 30
0.0
 10
6.147262344707087
 20
-19.96430277777777
 30
0.0
 10
6.12663456745041
 20
-19.9729388888889
 30
0.0
 10
6.104931790220891
 20
-19.9729388888889
 30
0.0
 10
6.104647068005861
 20
-19.9729388888889
 30
0.0
 10
6.104385956901347
 20
-19.9729388888889
 30
0.0
 10
6.104123456907979
 20
-19.9729388888889
 30
0.0
 10
6.058987346937101
 20
-19.97248611111111
 30
0.0
 10
6.020652777777778
 20
-19.93417777777778
 30
0.0
 10
6.020390125689927
 20
-19.88929861111112
 30
0.0
 10
6.020269292359646
 20
-19.86731527777778
 30
0.0
 10
6.028812347699386
 20
-19.84659305555556
 30
0.0
 10
6.044473458414864
 20
-19.83093611111111
 30
0.0
 10
6.060266513571453
 20
-19.81516249999999
 30
0.0
 10
6.081254013041264
 20
-19.80647499999999
 30
0.0
 10
6.103625000000003
 20
-19.80647499999999
 30
0.0
 10
6.103792901360773
 20
-19.80647499999999
 30
0.0
 10
6.103927623579592
 20
-19.80647499999999
 30
0.0
 10
6.104101234686317
 20
-19.80647499999999
 30
0.0
 10
6.149905400195873
 20
-19.80673611111112
 30
0.0
 10
6.187399843693129
 20
-19.84399305555555
 30
0.0
 10
6.187684565908158
 20
-19.88955972222223
 30
0.0
 10
6.187834565904368
 20
-19.91129027777778
 30
0.0
 10
6.178866510575365
 20
-19.93277777777778
 30
0.0
 10
6.163055555555553
 20
-19.94852777777777
 30
0.0
  0
SPLINE
  5
48
330
1F
100
AcDbEntity
  8
Layer 1
370
     0
100
AcDbSpline
210
0.0
220
0.0
230
1.0
 70
    11
 71
     3
 72
    26
 73
    22
 74
     0
 42
0.0000000001
 43
0.0000000001
 12
1.0
 22
0.0
 32
0.0
 13
1.0
 23
0.0
 33
0.0
 40
0.0
 40
0.0
 40
0.0
 40
0.0
 40
1.0
 40
1.0
 40
1.0
 40
2.0
 40
2.0
 40
2.0
 40
3.0
 40
3.0
 40
3.0
 40
4.0
 40
4.0
 40
4.0
 40
5.0
 40
5.0
 40
5.0
 40
6.0
 40
6.0
 40
6.0
 40
7.0
 40
7.0
 40
7.0
 40
7.0
 10
6.123394289754489
 20
-19.70127777777778
 30
0.0
 10
6.123394289754489
 20
-19.70127777777778
 30
0.0
 10
6.104054012465288
 20
-19.70096944444445
 30
0.0
 10
6.104054012465288
 20
-19.70096944444445
 30
0.0
 10
6.093672068283113
 20
-19.70096944444445
 30
0.0
 10
6.083420679653196
 20
-19.70135277777778
 30
0.0
 10
6.073141513246203
 20
-19.70172638888888
 30
0.0
 10
6.073141513246203
 20
-19.70172638888888
 30
0.0
 10
6.055980402568618
 20
-19.70234722222222
 30
0.0
 10
6.055980402568618
 20
-19.70234722222222
 30
0.0
 10
6.055980402568618
 20
-19.70234722222222
 30
0.0
 10
6.055980402568618
 20
-18.95780277777776
 30
0.0
 10
6.055980402568618
 20
-18.95780277777776
 30
0.0
 10
6.055980402568618
 20
-18.93921388888889
 30
0.0
 10
6.07112067996392
 20
-18.92410277777779
 30
0.0
 10
6.089708333333331
 20
-18.92410277777779
 30
0.0
 10
6.108283179025117
 20
-18.92410277777779
 30
0.0
 10
6.123394289754489
 20
-18.93921388888889
 30
0.0
 10
6.123394289754489
 20
-18.95780277777776
 30
0.0
 10
6.123394289754489
 20
-18.95780277777776
 30
0.0
 10
6.123394289754489
 20
-19.70127777777778
 30
0.0
 10
6.123394289754489
 20
-19.70127777777778
 30
0.0
  0
SPLINE
  5
49
330
1F
100
AcDbEntity
  8
Layer 1
370
     0
100
AcDbSpline
210
0.0
220
0.0
230
1.0
 70
    11
 71
     3
 72
    26
 73
    22
 74
     0
 42
0.0000000001
 43
0.0000000001
 12
1.0
 22
0.0
 32
0.0
 13
1.0
 23
0.0
 33
0.0
 40
0.0
 40
0.0
 40
0.0
 40
0.0
 40
1.0
 40
1.0
 40
1.0
 40
2.0
 40
2.0
 40
2.0
 40
3.0
 40
3.0
 40
3.0
 40
4.0
 40
4.0
 40
4.0
 40
5.0
 40
5.0
 40
5.0
 40
6.0
 40
6.0
 40
6.0
 40
7.0
 40
7.0
 40
7.0
 40
7.0
 10
5.572912359216389
 20
-20.19291805555556
 30
0.0
 10
5.556779026290617
 20
-20.20871944444444
 30
0.0
 10
5.535155415725765
 20
-20.21661805555555
 30
0.0
 10
5.513569444444443
 20
-20.21661805555555
 30
0.0
 10
5.492012361260095
 20
-20.21661805555555
 30
0.0
 10
5.4705012506924
 20
-20.20874305555556
 30
0.0
 10
5.454559584428453
 20
-20.19296944444444
 30
0.0
 10
5.438930555555556
 20
-20.1774986111111
 30
0.0
 10
5.430312362818768
 20
-20.15679444444443
 30
0.0
 10
5.430312362818768
 20
-20.13466805555554
 30
0.0
 10
5.430312362818768
 20
-20.11218055555554
 30
0.0
 10
5.439140140373537
 20
-20.09108055555556
 30
0.0
 10
5.455180555555557
 20
-20.07522777777778
 30
0.0
 10
5.487731805812675
 20
-20.04301250000001
 30
0.0
 10
5.540604026699232
 20
-20.04284861111111
 30
0.0
 10
5.573056803657184
 20
-20.07487222222221
 30
0.0
 10
5.588527777777775
 20
-20.09014722222221
 30
0.0
 10
5.597369303042998
 20
-20.11170972222223
 30
0.0
 10
5.597326247488531
 20
-20.13402361111111
 30
0.0
 10
5.597280414156355
 20
-20.15660833333332
 30
0.0
 10
5.588615136597481
 20
-20.17752638888889
 30
0.0
 10
5.572912359216389
 20
-20.19291805555556
 30
0.0
  0
SPLINE
  5
4A
330
1F
100
AcDbEntity
  8
Layer 1
370
     0
100
AcDbSpline
210
0.0
220
0.0
230
1.0
 70
    11
 71
     3
 72
    29
 73
    25
 74
     0
 42
0.0000000001
 43
0.0000000001
 12
1.0
 22
0.0
 32
0.0
 13
1.0
 23
0.0
 33
0.0
 40
0.0
 40
0.0
 40
0.0
 40
0.0
 40
1.0
 40
1.0
 40
1.0
 40
2.0
 40
2.0
 40
2.0
 40
3.0
 40
3.0
 40
3.0
 40
4.0
 40
4.0
 40
4.0
 40
5.0
 40
5.0
 40
5.0
 40
6.0
 40
6.0
 40
6.0
 40
7.0
 40
7.0
 40
7.0
 40
8.0
 40
8.0
 40
8.0
 40
8.0
 10
5.572865136995359
 20
-21.37364722222221
 30
0.0
 10
5.557423470718782
 20
-21.38927222222221
 30
0.0
 10
5.536719304575146
 20
-21.39788888888888
 30
0.0
 10
5.514569444444444
 20
-21.39788888888888
 30
0.0
 10
5.514569444444444
 20
-21.39788888888888
 30
0.0
 10
5.514569444444444
 20
-21.39788888888888
 30
0.0
 10
5.514549860690749
 20
-21.39788888888888
 30
0.0
 10
5.4920873612582
 20
-21.39788888888888
 30
0.0
 10
5.470977639569254
 20
-21.38906250000001
 30
0.0
 10
5.455129028858512
 20
-21.37305
 30
0.0
 10
5.422890140784046
 20
-21.34047083333333
 30
0.0
 10
5.422722222222218
 20
-21.28760416666667
 30
0.0
 10
5.454751251090278
 20
-21.25515000000001
 30
0.0
 10
5.469973472927955
 20
-21.23972638888889
 30
0.0
 10
5.491494305717626
 20
-21.23088055555556
 30
0.0
 10
5.513737360711275
 20
-21.23088055555556
 30
0.0
 10
5.513784582932304
 20
-21.23088055555556
 30
0.0
 10
5.513855416263848
 20
-21.23088055555556
 30
0.0
 10
5.513897082929462
 20
-21.23088055555556
 30
0.0
 10
5.536509582358222
 20
-21.23092222222221
 30
0.0
 10
5.557399859608267
 20
-21.23960972222221
 30
0.0
 10
5.572790136997254
 20
-21.25531388888887
 30
0.0
 10
5.604390136198971
 20
-21.28753333333333
 30
0.0
 10
5.604441525086561
 20
-21.3417361111111
 30
0.0
 10
5.572865136995359
 20
-21.37364722222221
 30
0.0
  0
SPLINE
  5
4B
330
1F
100
AcDbEntity
  8
Layer 1
370
     0
100
AcDbSpline
210
0.0
220
0.0
230
1.0
 70
    11
 71
     3
 72
    26
 73
    22
 74
     0
 42
0.0000000001
 43
0.0000000001
 12
1.0
 22
0.0
 32
0.0
 13
1.0
 23
0.0
 33
0.0
 40
0.0
 40
0.0
 40
0.0
 40
0.0
 40
1.0
 40
1.0
 40
1.0
 40
2.0
 40
2.0
 40
2.0
 40
3.0
 40
3.0
 40
3.0
 40
4.0
 40
4.0
 40
4.0
 40
5.0
 40
5.0
 40
5.0
 40
6.0
 40
6.0
 40
6.0
 40
7.0
 40
7.0
 40
7.0
 40
7.0
 10
5.269437366882812
 20
-20.64051805555555
 30
0.0
 10
5.290258199690166
 20
-20.64027916666666
 30
0.0
 10
5.312697088012201
 20
-20.64936805555557
 30
0.0
 10
5.328448476503177
 20
-20.66518888888888
 30
0.0
 10
5.344390142767123
 20
-20.68118194444444
 30
0.0
 10
5.353054031437144
 20
-20.70209583333333
 30
0.0
 10
5.352834586998243
 20
-20.72407777777777
 30
0.0
 10
5.352358198121388
 20
-20.7692236111111
 30
0.0
 10
5.314051254644659
 20
-20.80754999999999
 30
0.0
 10
5.269199866888812
 20
-20.8078111111111
 30
0.0
 10
5.269035978004063
 20
-20.8078111111111
 30
0.0
 10
5.268891533563267
 20
-20.8078111111111
 30
0.0
 10
5.268751255789033
 20
-20.8078111111111
 30
0.0
 10
5.246904034118718
 20
-20.8078111111111
 30
0.0
 10
5.226349867971294
 20
-20.79926944444444
 30
0.0
 10
5.210785979475582
 20
-20.78370972222223
 30
0.0
 10
5.194915146543179
 20
-20.7678138888889
 30
0.0
 10
5.186231813429205
 20
-20.74666250000001
 30
0.0
 10
5.186372091203439
 20
-20.72412500000001
 30
0.0
 10
5.186633202307954
 20
-20.67829722222223
 30
0.0
 10
5.223899868033186
 20
-20.64080277777778
 30
0.0
 10
5.269437366882812
 20
-20.64051805555555
 30
0.0
  0
SPLINE
  5
4C
330
1F
100
AcDbEntity
  8
Layer 1
370
     0
100
AcDbSpline
210
0.0
220
0.0
230
1.0
 70
    11
 71
     3
 72
    29
 73
    25
 74
     0
 42
0.0000000001
 43
0.0000000001
 12
1.0
 22
0.0
 32
0.0
 13
1.0
 23
0.0
 33
0.0
 40
0.0
 40
0.0
 40
0.0
 40
0.0
 40
1.0
 40
1.0
 40
1.0
 40
2.0
 40
2.0
 40
2.0
 40
3.0
 40
3.0
 40
3.0
 40
4.0
 40
4.0
 40
4.0
 40
5.0
 40
5.0
 40
5.0
 40
6.0
 40
6.0
 40
6.0
 40
7.0
 40
7.0
 40
7.0
 40
8.0
 40
8.0
 40
8.0
 40
8.0
 10
4.82105265598774
 20
-19.50913888888888
 30
0.0
 10
4.81468598948191
 20
-19.50275833333333
 30
0.0
 10
4.811184600681472
 20
-19.49431388888888
 30
0.0
 10
4.811184600681472
 20
-19.48529861111109
 30
0.0
 10
4.811208333333335
 20
-19.47628055555555
 30
0.0
 10
4.814709600592423
 20
-19.4678263888889
 30
0.0
 10
4.821076267098255
 20
-19.46145833333334
 30
0.0
 10
4.833787377888257
 20
-19.44879444444445
 30
0.0
 10
4.856008210660244
 20
-19.44877083333333
 30
0.0
 10
4.868715154783684
 20
-19.46147777777777
 30
0.0
 10
4.868715154783684
 20
-19.46147777777777
 30
0.0
 10
5.394429030391923
 20
-19.98717222222222
 30
0.0
 10
5.394429030391923
 20
-19.98717222222222
 30
0.0
 10
5.394429030391923
 20
-19.98717222222222
 30
0.0
 10
5.385670697279844
 20
-19.99577916666665
 30
0.0
 10
5.385670697279844
 20
-19.99577916666665
 30
0.0
 10
5.375563753090723
 20
-20.00575138888889
 30
0.0
 10
5.365760975560584
 20
-20.01595972222223
 30
0.0
 10
5.356074864694165
 20
-20.02633333333334
 30
0.0
 10
5.356074864694165
 20
-20.02633333333334
 30
0.0
 10
5.347480420466834
 20
-20.03554305555556
 30
0.0
 10
5.347480420466834
 20
-20.03554305555556
 30
0.0
 10
5.347480420466834
 20
-20.03554305555556
 30
0.0
 10
4.82105265598774
 20
-19.50913888888888
 30
0.0
 10
4.82105265598774
 20
-19.50913888888888
 30
0.0
  0
SPLINE
  5
4D
330
1F
100
AcDbEntity
  8
Layer 1
370
     0
100
AcDbSpline
210
0.0
220
0.0
230
1.0
 70
    11
 71
     3
 72
    29
 73
    25
 74
     0
 42
0.0000000001
 43
0.0000000001
 12
1.0
 22
0.0
 32
0.0
 13
1.0
 23
0.0
 33
0.0
 40
0.0
 40
0.0
 40
0.0
 40
0.0
 40
1.0
 40
1.0
 40
1.0
 40
2.0
 40
2.0
 40
2.0
 40
3.0
 40
3.0
 40
3.0
 40
4.0
 40
4.0
 40
4.0
 40
5.0
 40
5.0
 40
5.0
 40
6.0
 40
6.0
 40
6.0
 40
7.0
 40
7.0
 40
7.0
 40
8.0
 40
8.0
 40
8.0
 40
8.0
 10
5.367067919972012
 20
-21.43377361111111
 30
0.0
 10
5.367067919972012
 20
-21.43377361111111
 30
0.0
 10
5.375680555555555
 20
-21.44253194444445
 30
0.0
 10
5.375680555555555
 20
-21.44253194444445
 30
0.0
 10
5.385625000000005
 20
-21.45264305555555
 30
0.0
 10
5.395838752578533
 20
-21.46244166666666
 30
0.0
 10
5.406210974538731
 20
-21.47210416666667
 30
0.0
 10
5.406210974538731
 20
-21.47210416666667
 30
0.0
 10
5.415440140972249
 20
-21.48072222222221
 30
0.0
 10
5.415440140972249
 20
-21.48072222222221
 30
0.0
 10
5.415440140972249
 20
-21.48072222222221
 30
0.0
 10
4.889017932048571
 20
-22.00714861111111
 30
0.0
 10
4.889017932048571
 20
-22.00714861111111
 30
0.0
 10
4.882449876658939
 20
-22.01371250000001
 30
0.0
 10
4.873813765765994
 20
-22.01699444444444
 30
0.0
 10
4.865172099317634
 20
-22.01699444444444
 30
0.0
 10
4.856555555555562
 20
-22.01699444444444
 30
0.0
 10
4.847919321975698
 20
-22.01371250000001
 30
0.0
 10
4.841355433252627
 20
-22.00714861111111
 30
0.0
 10
4.828219322473362
 20
-21.9940125
 30
0.0
 10
4.828219322473362
 20
-21.97261805555556
 30
0.0
 10
4.841355433252627
 20
-21.9594875
 30
0.0
 10
4.841355433252627
 20
-21.9594875
 30
0.0
 10
5.367067919972012
 20
-21.43377361111111
 30
0.0
 10
5.367067919972012
 20
-21.43377361111111
 30
0.0
  0
SPLINE
  5
4E
330
1F
100
AcDbEntity
  8
Layer 1
370
     0
100
AcDbSpline
210
0.0
220
0.0
230
1.0
 70
    11
 71
     3
 72
    26
 73
    22
 74
     0
 42
0.0000000001
 43
0.0000000001
 12
1.0
 22
0.0
 32
0.0
 13
1.0
 23
0.0
 33
0.0
 40
0.0
 40
0.0
 40
0.0
 40
0.0
 40
1.0
 40
1.0
 40
1.0
 40
2.0
 40
2.0
 40
2.0
 40
3.0
 40
3.0
 40
3.0
 40
4.0
 40
4.0
 40
4.0
 40
5.0
 40
5.0
 40
5.0
 40
6.0
 40
6.0
 40
6.0
 40
7.0
 40
7.0
 40
7.0
 40
7.0
 10
5.081556816073518
 20
-20.75384722222222
 30
0.0
 10
5.081556816073518
 20
-20.75384722222222
 30
0.0
 10
5.082205427168244
 20
-20.77222083333332
 30
0.0
 10
5.082205427168244
 20
-20.77222083333332
 30
0.0
 10
5.082205427168244
 20
-20.77222083333332
 30
0.0
 10
4.337699890420481
 20
-20.77222083333332
 30
0.0
 10
4.337699890420481
 20
-20.77222083333332
 30
0.0
 10
4.319111111111106
 20
-20.77222083333332
 30
0.0
 10
4.303980446827861
 20
-20.7570875
 30
0.0
 10
4.303980446827861
 20
-20.7384986111111
 30
0.0
 10
4.303980446827861
 20
-20.71991944444443
 30
0.0
 10
4.319111111111106
 20
-20.70480833333333
 30
0.0
 10
4.337699890420481
 20
-20.70480833333333
 30
0.0
 10
4.337699890420481
 20
-20.70480833333333
 30
0.0
 10
5.081179038305284
 20
-20.70480833333333
 30
0.0
 10
5.081179038305284
 20
-20.70480833333333
 30
0.0
 10
5.081179038305284
 20
-20.70480833333333
 30
0.0
 10
5.080870704979739
 20
-20.72415277777779
 30
0.0
 10
5.080870704979739
 20
-20.72415277777779
 30
0.0
 10
5.080870704979739
 20
-20.73411944444446
 30
0.0
 10
5.08122487163746
 20
-20.74397361111111
 30
0.0
 10
5.081556816073518
 20
-20.75384722222222
 30
0.0
  0
SPLINE
  5
4F
330
1F
100
AcDbEntity
  8
Layer 1
370
     0
100
AcDbSpline
210
0.0
220
0.0
230
1.0
 70
    11
 71
     3
 72
    26
 73
    22
 74
     0
 42
0.0000000001
 43
0.0000000001
 12
1.0
 22
0.0
 32
0.0
 13
1.0
 23
0.0
 33
0.0
 40
0.0
 40
0.0
 40
0.0
 40
0.0
 40
1.0
 40
1.0
 40
1.0
 40
2.0
 40
2.0
 40
2.0
 40
3.0
 40
3.0
 40
3.0
 40
4.0
 40
4.0
 40
4.0
 40
5.0
 40
5.0
 40
5.0
 40
6.0
 40
6.0
 40
6.0
 40
7.0
 40
7.0
 40
7.0
 40
7.0
 10
6.635187332381065
 20
-21.25541111111112
 30
0.0
 10
6.667430555555559
 20
-21.22376666666666
 30
0.0
 10
6.721609552420078
 20
-21.2237375
 30
0.0
 10
6.753520662725046
 20
-21.2553375
 30
0.0
 10
6.769177606773964
 20
-21.27082638888889
 30
0.0
 10
6.777762328779318
 20
-21.29155694444444
 30
0.0
 10
6.777762328779318
 20
-21.31370833333333
 30
0.0
 10
6.777762328779318
 20
-21.33617083333332
 30
0.0
 10
6.768944444444438
 20
-21.35724861111112
 30
0.0
 10
6.752923440517911
 20
-21.37309722222221
 30
0.0
 10
6.736574829819801
 20
-21.38927222222221
 30
0.0
 10
6.715092885918036
 20
-21.39736666666666
 30
0.0
 10
6.693655386459593
 20
-21.39736666666666
 30
0.0
 10
6.672406775885267
 20
-21.39736666666666
 30
0.0
 10
6.651198443087701
 20
-21.38939861111112
 30
0.0
 10
6.635051221273392
 20
-21.37345555555556
 30
0.0
 10
6.6195859438863
 20
-21.35817777777778
 30
0.0
 10
6.610730388554455
 20
-21.33661944444444
 30
0.0
 10
6.61077622188663
 20
-21.31430555555554
 30
0.0
 10
6.610819444444435
 20
-21.29172083333333
 30
0.0
 10
6.619483166111118
 20
-21.27080277777776
 30
0.0
 10
6.635187332381065
 20
-21.25541111111112
 30
0.0
  0
SPLINE
  5
50
330
1F
100
AcDbEntity
  8
Layer 1
370
     0
100
AcDbSpline
210
0.0
220
0.0
230
1.0
 70
    11
 71
     3
 72
    23
 73
    19
 74
     0
 42
0.0000000001
 43
0.0000000001
 12
1.0
 22
0.0
 32
0.0
 13
1.0
 23
0.0
 33
0.0
 40
0.0
 40
0.0
 40
0.0
 40
0.0
 40
1.0
 40
1.0
 40
1.0
 40
2.0
 40
2.0
 40
2.0
 40
3.0
 40
3.0
 40
3.0
 40
4.0
 40
4.0
 40
4.0
 40
5.0
 40
5.0
 40
5.0
 40
6.0
 40
6.0
 40
6.0
 40
6.0
 10
6.635238721268656
 20
-20.07468194444444
 30
0.0
 10
6.666408164925693
 20
-20.04320416666665
 30
0.0
 10
6.72149705242292
 20
-20.04346527777779
 30
0.0
 10
6.752974829405503
 20
-20.07527916666666
 30
0.0
 10
6.785194444444439
 20
-20.10785833333332
 30
0.0
 10
6.785352606365349
 20
-20.16073055555555
 30
0.0
 10
6.753352607173737
 20
-20.19315138888889
 30
0.0
 10
6.738125000000005
 20
-20.20859305555556
 30
0.0
 10
6.716619274768365
 20
-20.21744861111112
 30
0.0
 10
6.694365108663886
 20
-20.21744861111112
 30
0.0
 10
6.694319444444444
 20
-20.21744861111112
 30
0.0
 10
6.69426788644412
 20
-20.21744861111112
 30
0.0
 10
6.694202608667991
 20
-20.21744861111112
 30
0.0
 10
6.671622053682868
 20
-20.21740694444444
 30
0.0
 10
6.650680555555557
 20
-20.20874305555556
 30
0.0
 10
6.635284554600831
 20
-20.19301527777778
 30
0.0
 10
6.603685944287967
 20
-20.16077222222222
 30
0.0
 10
6.603662333177454
 20
-20.10659305555555
 30
0.0
 10
6.635238721268656
 20
-20.07468194444444
 30
0.0
  0
SPLINE
  5
51
330
1F
100
AcDbEntity
  8
Layer 1
370
     0
100
AcDbSpline
210
0.0
220
0.0
230
1.0
 70
    11
 71
     3
 72
    29
 73
    25
 74
     0
 42
0.0000000001
 43
0.0000000001
 12
1.0
 22
0.0
 32
0.0
 13
1.0
 23
0.0
 33
0.0
 40
0.0
 40
0.0
 40
0.0
 40
0.0
 40
1.0
 40
1.0
 40
1.0
 40
2.0
 40
2.0
 40
2.0
 40
3.0
 40
3.0
 40
3.0
 40
4.0
 40
4.0
 40
4.0
 40
5.0
 40
5.0
 40
5.0
 40
6.0
 40
6.0
 40
6.0
 40
7.0
 40
7.0
 40
7.0
 40
8.0
 40
8.0
 40
8.0
 40
8.0
 10
6.938642880270688
 20
-20.8078111111111
 30
0.0
 10
6.938492880274477
 20
-20.8078111111111
 30
0.0
 10
6.938334546945144
 20
-20.8078111111111
 30
0.0
 10
6.938166666666675
 20
-20.8078111111111
 30
0.0
 10
6.916585936383449
 20
-20.8078111111111
 30
0.0
 10
6.89528871469924
 20
-20.79884444444443
 30
0.0
 10
6.879651215094277
 20
-20.78315833333333
 30
0.0
 10
6.863708333333332
 20
-20.76714722222222
 30
0.0
 10
6.855053993493432
 20
-20.74623333333334
 30
0.0
 10
6.855263888888885
 20
-20.72425138888889
 30
0.0
 10
6.855716493476696
 20
-20.67910416666667
 30
0.0
 10
6.894023436953425
 20
-20.64077916666666
 30
0.0
 10
6.938903991375203
 20
-20.64051805555555
 30
0.0
 10
6.939062324704537
 20
-20.64051805555555
 30
0.0
 10
6.939212324700748
 20
-20.64051805555555
 30
0.0
 10
6.939356769141543
 20
-20.64051805555555
 30
0.0
 10
6.961176213034782
 20
-20.64051805555555
 30
0.0
 10
6.981734545848767
 20
-20.64905138888889
 30
0.0
 10
6.997270656567403
 20
-20.66460138888889
 30
0.0
 10
7.013165100610321
 20
-20.68048611111112
 30
0.0
 10
7.021852600390856
 20
-20.70166666666667
 30
0.0
 10
7.021727600394014
 20
-20.72420000000001
 30
0.0
 10
7.021465100400645
 20
-20.77003194444445
 30
0.0
 10
6.984208333333324
 20
-20.8075263888889
 30
0.0
 10
6.938642880270688
 20
-20.8078111111111
 30
0.0
  0
SPLINE
  5
52
330
1F
100
AcDbEntity
  8
Layer 1
370
     0
100
AcDbSpline
210
0.0
220
0.0
230
1.0
 70
    11
 71
     3
 72
    29
 73
    25
 74
     0
 42
0.0000000001
 43
0.0000000001
 12
1.0
 22
0.0
 32
0.0
 13
1.0
 23
0.0
 33
0.0
 40
0.0
 40
0.0
 40
0.0
 40
0.0
 40
1.0
 40
1.0
 40
1.0
 40
2.0
 40
2.0
 40
2.0
 40
3.0
 40
3.0
 40
3.0
 40
4.0
 40
4.0
 40
4.0
 40
5.0
 40
5.0
 40
5.0
 40
6.0
 40
6.0
 40
6.0
 40
7.0
 40
7.0
 40
7.0
 40
8.0
 40
8.0
 40
8.0
 40
8.0
 10
7.387022035610344
 20
-21.93919027777777
 30
0.0
 10
7.400158146389609
 20
-21.95232083333334
 30
0.0
 10
7.400158146389609
 20
-21.97371527777778
 30
0.0
 10
7.387022035610344
 20
-21.98685138888888
 30
0.0
 10
7.380458333333333
 20
-21.99341527777779
 30
0.0
 10
7.371817869327767
 20
-21.99669722222221
 30
0.0
 10
7.363177591768261
 20
-21.99669722222221
 30
0.0
 10
7.354563703096978
 20
-21.99669722222221
 30
0.0
 10
7.345927592204033
 20
-21.99341527777779
 30
0.0
 10
7.3393595368144
 20
-21.98685138888888
 30
0.0
 10
7.3393595368144
 20
-21.98685138888888
 30
0.0
 10
6.813698438982605
 20
-21.46118055555555
 30
0.0
 10
6.813698438982605
 20
-21.46118055555555
 30
0.0
 10
6.813698438982605
 20
-21.46118055555555
 30
0.0
 10
6.822403994318241
 20
-21.45257222222222
 30
0.0
 10
6.822403994318241
 20
-21.45257222222222
 30
0.0
 10
6.832492882952263
 20
-21.44260138888889
 30
0.0
 10
6.842342882703431
 20
-21.43234027777779
 30
0.0
 10
6.852024826903289
 20
-21.42197222222222
 30
0.0
 10
6.852024826903289
 20
-21.42197222222222
 30
0.0
 10
6.860617882241765
 20
-21.4127625
 30
0.0
 10
6.860617882241765
 20
-21.4127625
 30
0.0
 10
6.860617882241765
 20
-21.4127625
 30
0.0
 10
7.387022035610344
 20
-21.93919027777777
 30
0.0
 10
7.387022035610344
 20
-21.93919027777777
 30
0.0
  0
SPLINE
  5
53
330
1F
100
AcDbEntity
  8
Layer 1
370
     0
100
AcDbSpline
210
0.0
220
0.0
230
1.0
 70
    11
 71
     3
 72
    29
 73
    25
 74
     0
 42
0.0000000001
 43
0.0000000001
 12
1.0
 22
0.0
 32
0.0
 13
1.0
 23
0.0
 33
0.0
 40
0.0
 40
0.0
 40
0.0
 40
0.0
 40
1.0
 40
1.0
 40
1.0
 40
2.0
 40
2.0
 40
2.0
 40
3.0
 40
3.0
 40
3.0
 40
4.0
 40
4.0
 40
4.0
 40
5.0
 40
5.0
 40
5.0
 40
6.0
 40
6.0
 40
6.0
 40
7.0
 40
7.0
 40
7.0
 40
8.0
 40
8.0
 40
8.0
 40
8.0
 10
6.841040104958564
 20
-20.01452777777778
 30
0.0
 10
6.841040104958564
 20
-20.01452777777778
 30
0.0
 10
6.832422049620718
 20
-20.00577500000001
 30
0.0
 10
6.832422049620718
 20
-20.00577500000001
 30
0.0
 10
6.822474827649785
 20
-19.99570972222222
 30
0.0
 10
6.812270661240897
 20
-19.98588749999999
 30
0.0
 10
6.801892883725284
 20
-19.97622500000001
 30
0.0
 10
6.801892883725284
 20
-19.97622500000001
 30
0.0
 10
6.792659550625204
 20
-19.96760694444444
 30
0.0
 10
6.792659550625204
 20
-19.96760694444444
 30
0.0
 10
6.792659550625204
 20
-19.96760694444444
 30
0.0
 10
7.319062315104929
 20
-19.44115694444445
 30
0.0
 10
7.319062315104929
 20
-19.44115694444445
 30
0.0
 10
7.332245648105223
 20
-19.42807638888889
 30
0.0
 10
7.353592869788169
 20
-19.42804861111111
 30
0.0
 10
7.366724813900873
 20
-19.44118055555555
 30
0.0
 10
7.373106758184096
 20
-19.44753333333334
 30
0.0
 10
7.376626202539632
 20
-19.45601111111111
 30
0.0
 10
7.376626202539632
 20
-19.46502499999999
 30
0.0
 10
7.376626202539632
 20
-19.47401666666666
 30
0.0
 10
7.373106758184096
 20
-19.48248888888889
 30
0.0
 10
7.366724813900873
 20
-19.48886527777778
 30
0.0
 10
7.366724813900873
 20
-19.48886527777778
 30
0.0
 10
6.841040104958564
 20
-20.01452777777778
 30
0.0
 10
6.841040104958564
 20
-20.01452777777778
 30
0.0
  0
SPLINE
  5
54
330
1F
100
AcDbEntity
  8
Layer 1
370
     0
100
AcDbSpline
210
0.0
220
0.0
230
1.0
 70
    11
 71
     3
 72
    26
 73
    22
 74
     0
 42
0.0000000001
 43
0.0000000001
 12
1.0
 22
0.0
 32
0.0
 13
1.0
 23
0.0
 33
0.0
 40
0.0
 40
0.0
 40
0.0
 40
0.0
 40
1.0
 40
1.0
 40
1.0
 40
2.0
 40
2.0
 40
2.0
 40
3.0
 40
3.0
 40
3.0
 40
4.0
 40
4.0
 40
4.0
 40
5.0
 40
5.0
 40
5.0
 40
6.0
 40
6.0
 40
6.0
 40
7.0
 40
7.0
 40
7.0
 40
7.0
 10
7.126547042190496
 20
-20.6944125
 30
0.0
 10
7.126547042190496
 20
-20.6944125
 30
0.0
 10
7.125906764428893
 20
-20.67610833333333
 30
0.0
 10
7.125906764428893
 20
-20.67610833333333
 30
0.0
 10
7.125906764428893
 20
-20.67610833333333
 30
0.0
 10
7.870403967843534
 20
-20.67610833333333
 30
0.0
 10
7.870403967843534
 20
-20.67610833333333
 30
0.0
 10
7.888988689596267
 20
-20.67610833333333
 30
0.0
 10
7.904098411436784
 20
-20.6912236111111
 30
0.0
 10
7.904098411436784
 20
-20.70980277777777
 30
0.0
 10
7.904098411436784
 20
-20.7283875
 30
0.0
 10
7.888988689596267
 20
-20.74352083333332
 30
0.0
 10
7.870403967843534
 20
-20.74352083333332
 30
0.0
 10
7.870403967843534
 20
-20.74352083333332
 30
0.0
 10
7.126924819958731
 20
-20.74352083333332
 30
0.0
 10
7.126924819958731
 20
-20.74352083333332
 30
0.0
 10
7.126924819958731
 20
-20.74352083333332
 30
0.0
 10
7.127233153284275
 20
-20.72415277777779
 30
0.0
 10
7.127233153284275
 20
-20.72415277777779
 30
0.0
 10
7.127233153284275
 20
-20.71418194444444
 30
0.0
 10
7.126873431071139
 20
-20.70430416666666
 30
0.0
 10
7.126547042190496
 20
-20.6944125
 30
0.0
  0
HATCH
  5
55
330
1F
100
AcDbEntity
  8
Layer 1
 62
    35
420
 10579544
100
AcDbHatch
 10
0.0
 20
0.0
 30
0.0
210
0.0
220
0.0
230
1.0
  2
SOLID
 70
     1
 71
     0
 91
       20
 92
        1
 93
        1
 72
     4
 94
        3
 73
     0
 74
     1
 95
       23
 96
       19
 40
0.0
 40
0.0
 40
0.0
 40
0.0
 40
1.0
 40
1.0
 40
1.0
 40
2.0
 40
2.0
 40
2.0
 40
3.0
 40
3.0
 40
3.0
 40
4.0
 40
4.0
 40
4.0
 40
5.0
 40
5.0
 40
5.0
 40
6.0
 40
6.0
 40
6.0
 40
6.0
 10
6.10404012357675
 20
-12.73773333333333
 10
4.33130405724872
 20
-12.73773333333333
 10
2.889070760349265
 20
-14.179975
 10
2.889070760349265
 20
-15.95271111111111
 10
2.889070760349265
 20
-15.95271111111111
 10
2.889070760349265
 20
-20.75038749999999
 10
2.889070760349265
 20
-20.75038749999999
 10
2.889070760349265
 20
-22.52312361111111
 10
4.33130405724872
 20
-23.9653625
 10
6.104054012465288
 20
-23.9653625
 10
7.876794245459879
 20
-23.9653625
 10
9.319031709025895
 20
-22.52312361111111
 10
9.319031709025895
 20
-20.75038749999999
 10
9.319031709025895
 20
-20.75038749999999
 10
9.319031709025895
 20
-15.95271111111111
 10
9.319031709025895
 20
-15.95271111111111
 10
9.319031709025895
 20
-14.179975
 10
7.876794245459879
 20
-12.73773333333333
 10
6.10404012357675
 20
-12.73773333333333
 97
        0
 97
        0
 92
        1
 93
        1
 72
     4
 94
        3
 73
     0
 74
     1
 95
      362
 96
      358
 40
0.0
 40
0.0
 40
0.0
 40
0.0
 40
1.0
 40
1.0
 40
1.0
 40
2.0
 40
2.0
 40
2.0
 40
3.0
 40
3.0
 40
3.0
 40
4.0
 40
4.0
 40
4.0
 40
5.0
 40
5.0
 40
5.0
 40
6.0
 40
6.0
 40
6.0
 40
7.0
 40
7.0
 40
7.0
 40
8.0
 40
8.0
 40
8.0
 40
9.0
 40
9.0
 40
9.0
 40
10.0
 40
10.0
 40
10.0
 40
11.0
 40
11.0
 40
11.0
 40
12.0
 40
12.0
 40
12.0
 40
13.0
 40
13.0
 40
13.0
 40
14.0
 40
14.0
 40
14.0
 40
15.0
 40
15.0
 40
15.0
 40
16.0
 40
16.0
 40
16.0
 40
17.0
 40
17.0
 40
17.0
 40
18.0
 40
18.0
 40
18.0
 40
19.0
 40
19.0
 40
19.0
 40
20.0
 40
20.0
 40
20.0
 40
21.0
 40
21.0
 40
21.0
 40
22.0
 40
22.0
 40
22.0
 40
23.0
 40
23.0
 40
23.0
 40
24.0
 40
24.0
 40
24.0
 40
25.0
 40
25.0
 40
25.0
 40
26.0
 40
26.0
 40
26.0
 40
27.0
 40
27.0
 40
27.0
 40
28.0
 40
28.0
 40
28.0
 40
29.0
 40
29.0
 40
29.0
 40
30.0
 40
30.0
 40
30.0
 40
31.0
 40
31.0
 40
31.0
 40
32.0
 40
32.0
 40
32.0
 40
33.0
 40
33.0
 40
33.0
 40
34.0
 40
34.0
 40
34.0
 40
35.0
 40
35.0
 40
35.0
 40
36.0
 40
36.0
 40
36.0
 40
37.0
 40
37.0
 40
37.0
 40
38.0
 40
38.0
 40
38.0
 40
39.0
 40
39.0
 40
39.0
 40
40.0
 40
40.0
 40
40.0
 40
41.0
 40
41.0
 40
41.0
 40
42.0
 40
42.0
 40
42.0
 40
43.0
 40
43.0
 40
43.0
 40
44.0
 40
44.0
 40
44.0
 40
45.0
 40
45.0
 40
45.0
 40
46.0
 40
46.0
 40
46.0
 40
47.0
 40
47.0
 40
47.0
 40
48.0
 40
48.0
 40
48.0
 40
49.0
 40
49.0
 40
49.0
 40
50.0
 40
50.0
 40
50.0
 40
51.0
 40
51.0
 40
51.0
 40
52.0
 40
52.0
 40
52.0
 40
53.0
 40
53.0
 40
53.0
 40
54.0
 40
54.0
 40
54.0
 40
55.0
 40
55.0
 40
55.0
 40
56.0
 40
56.0
 40
56.0
 40
57.0
 40
57.0
 40
57.0
 40
58.0
 40
58.0
 40
58.0
 40
59.0
 40
59.0
 40
59.0
 40
60.0
 40
60.0
 40
60.0
 40
61.0
 40
61.0
 40
61.0
 40
62.0
 40
62.0
 40
62.0
 40
63.0
 40
63.0
 40
63.0
 40
64.0
 40
64.0
 40
64.0
 40
65.0
 40
65.0
 40
65.0
 40
66.0
 40
66.0
 40
66.0
 40
67.0
 40
67.0
 40
67.0
 40
68.0
 40
68.0
 40
68.0
 40
69.0
 40
69.0
 40
69.0
 40
70.0
 40
70.0
 40
70.0
 40
71.0
 40
71.0
 40
71.0
 40
72.0
 40
72.0
 40
72.0
 40
73.0
 40
73.0
 40
73.0
 40
74.0
 40
74.0
 40
74.0
 40
75.0
 40
75.0
 40
75.0
 40
76.0
 40
76.0
 40
76.0
 40
77.0
 40
77.0
 40
77.0
 40
78.0
 40
78.0
 40
78.0
 40
79.0
 40
79.0
 40
79.0
 40
80.0
 40
80.0
 40
80.0
 40
81.0
 40
81.0
 40
81.0
 40
82.0
 40
82.0
 40
82.0
 40
83.0
 40
83.0
 40
83.0
 40
84.0
 40
84.0
 40
84.0
 40
85.0
 40
85.0
 40
85.0
 40
86.0
 40
86.0
 40
86.0
 40
87.0
 40
87.0
 40
87.0
 40
88.0
 40
88.0
 40
88.0
 40
89.0
 40
89.0
 40
89.0
 40
90.0
 40
90.0
 40
90.0
 40
91.0
 40
91.0
 40
91.0
 40
92.0
 40
92.0
 40
92.0
 40
93.0
 40
93.0
 40
93.0
 40
94.0
 40
94.0
 40
94.0
 40
95.0
 40
95.0
 40
95.0
 40
96.0
 40
96.0
 40
96.0
 40
97.0
 40
97.0
 40
97.0
 40
98.0
 40
98.0
 40
98.0
 40
99.0
 40
99.0
 40
99.0
 40
100.0
 40
100.0
 40
100.0
 40
101.0
 40
101.0
 40
101.0
 40
102.0
 40
102.0
 40
102.0
 40
103.0
 40
103.0
 40
103.0
 40
104.0
 40
104.0
 40
104.0
 40
105.0
 40
105.0
 40
105.0
 40
106.0
 40
106.0
 40
106.0
 40
107.0
 40
107.0
 40
107.0
 40
108.0
 40
108.0
 40
108.0
 40
109.0
 40
109.0
 40
109.0
 40
110.0
 40
110.0
 40
110.0
 40
111.0
 40
111.0
 40
111.0
 40
112.0
 40
112.0
 40
112.0
 40
113.0
 40
113.0
 40
113.0
 40
114.0
 40
114.0
 40
114.0
 40
115.0
 40
115.0
 40
115.0
 40
116.0
 40
116.0
 40
116.0
 40
117.0
 40
117.0
 40
117.0
 40
118.0
 40
118.0
 40
118.0
 40
119.0
 40
119.0
 40
119.0
 40
119.0
 10
9.168202546169494
 20
-20.75038749999999
 10
9.168202546169494
 20
-22.43996944444444
 10
7.793640080893864
 20
-23.81453749999999
 10
6.104054012465288
 20
-23.81453749999999
 10
6.104054012465288
 20
-23.81453749999999
 10
6.10404012357675
 20
-23.81453749999999
 10
6.10404012357675
 20
-23.81453749999999
 10
4.414463777370151
 20
-23.81453749999999
 10
3.039895756539105
 20
-22.43996944444444
 10
3.039895756539105
 20
-20.75038749999999
 10
3.039895756539105
 20
-20.75038749999999
 10
3.039895756539105
 20
-15.95271111111111
 10
3.039895756539105
 20
-15.95271111111111
 10
3.039895756539105
 20
-14.263125
 10
4.414467944036712
 20
-12.88855694444444
 10
6.104054012465288
 20
-12.88855694444444
 10
6.295024840974293
 20
-12.88855694444444
 10
6.481659558481724
 20
-12.9069875
 10
6.66304166666666
 20
-12.94057916666667
 10
6.651609554188426
 20
-13.18382083333333
 10
6.62245677714711
 20
-14.00325555555556
 10
6.517295668692592
 20
-14.23510138888889
 10
6.471347222222221
 20
-14.33641111111111
 10
6.415085949052404
 20
-14.43858333333333
 10
6.324505395785106
 20
-14.5049236111111
 10
5.999099848449987
 20
-14.74324305555555
 10
5.61536930258828
 20
-14.87101666666667
 10
5.347065142699547
 20
-15.18851388888889
 10
5.315933199041561
 20
-15.22515416666667
 10
5.302133199390179
 20
-15.26721527777777
 10
5.299155421687626
 20
-15.31486388888889
 10
5.293749999999995
 20
-15.40140277777778
 10
5.302708333333334
 20
-15.48675972222222
 10
5.317081810123656
 20
-15.57165555555556
 10
5.354285975850467
 20
-15.79143472222222
 10
5.343960976111298
 20
-16.00574583333333
 10
5.33286930972483
 20
-16.22682777777777
 10
5.328401254282148
 20
-16.31578472222222
 10
5.360612364579538
 20
-16.39428055555556
 10
5.403905419041418
 20
-16.46933055555555
 10
5.424216529639428
 20
-16.50454305555556
 10
5.449672084551922
 20
-16.53633749999999
 10
5.471948472878062
 20
-16.57025138888889
 10
5.529022082547372
 20
-16.65715
 10
5.567819444444441
 20
-16.75199861111111
 10
5.633145691028099
 20
-16.83467222222223
 10
5.726365133117623
 20
-16.95265555555555
 10
5.849749999999997
 20
-17.03365416666666
 10
5.956194444444438
 20
-17.13764305555555
 10
5.982751237751876
 20
-17.16358888888889
 10
6.009416666666665
 20
-17.18952083333334
 10
6.036892903050809
 20
-17.21455555555556
 10
6.036892903050809
 20
-17.21455555555556
 10
6.036892903050809
 20
-18.25853611111111
 10
6.036892903050809
 20
-18.25853611111111
 10
6.036892903050809
 20
-18.25853611111111
 10
5.836244297008508
 20
-19.72395972222221
 10
5.836244297008508
 20
-19.72395972222221
 10
5.746629021494603
 20
-19.74790416666666
 10
5.661879023635568
 20
-19.78361944444444
 10
5.583579025613592
 20
-19.82926111111111
 10
5.583579025613592
 20
-19.82926111111111
 10
4.288556836106383
 20
-18.93281805555555
 10
4.288556836106383
 20
-18.93281805555555
 10
4.27028600323461
 20
-18.92016805555555
 10
4.248434614897734
 20
-18.94299027777778
 10
4.261869336780566
 20
-18.96069722222223
 10
4.261869336780566
 20
-18.96069722222223
 10
5.207560979557052
 20
-20.20644583333334
 10
5.207560979557052
 20
-20.20644583333334
 10
5.162167925148221
 20
-20.28488611111111
 10
5.126637370490243
 20
-20.36972916666665
 10
5.102969315532593
 20
-20.45944305555556
 10
5.102969315532593
 20
-20.45944305555556
 10
3.553634632449858
 20
-20.74124305555556
 10
3.553634632449858
 20
-20.74124305555556
 10
3.531763888888892
 20
-20.74521527777779
 10
3.532459632984783
 20
-20.77680555555556
 10
3.55447907687297
 20
-20.77982083333334
 10
3.55447907687297
 20
-20.77982083333334
 10
5.103852648843612
 20
-20.9919625
 10
5.103852648843612
 20
-20.9919625
 10
5.127790148238899
 20
-21.08158194444445
 10
5.163512369558703
 20
-21.16632916666668
 10
5.209142923961533
 20
-21.24463333333334
 10
5.209142923961533
 20
-21.24463333333334
 10
4.312715168829426
 20
-22.53964999999999
 10
4.312715168829426
 20
-22.53964999999999
 10
4.300059613593577
 20
-22.55793055555556
 10
4.322883224128114
 20
-22.57977777777779
 10
4.340594334791805
 20
-22.56633333333333
 10
4.340594334791805
 20
-22.56633333333333
 10
5.586337358877245
 20
-21.62065138888889
 10
5.586337358877245
 20
-21.62065138888889
 10
5.664772079118038
 20
-21.66604444444445
 10
5.749616521419132
 20
-21.70157361111112
 10
5.839334574708219
 20
-21.72523194444443
 10
5.839334574708219
 20
-21.72523194444443
 10
6.121130400922791
 20
-23.27457222222223
 10
6.121130400922791
 20
-23.27457222222223
 10
6.125108178600081
 20
-23.29643750000001
 10
6.156697066690968
 20
-23.2957513888889
 10
6.159712344392574
 20
-23.27372777777777
 10
6.159712344392574
 20
-23.27372777777777
 10
6.371858172366652
 20
-21.72435416666667
 10
6.371858172366652
 20
-21.72435416666667
 10
6.461473447880557
 20
-21.70042083333333
 10
6.54621511240647
 20
-21.66470416666667
 10
6.62452066598386
 20
-21.61905972222222
 10
6.62452066598386
 20
-21.61905972222222
 10
7.919545633268777
 20
-22.51549583333334
 10
7.919545633268777
 20
-22.51549583333334
 10
7.937826188362528
 20
-22.52814722222221
 10
7.959659521144304
 20
-22.50531944444444
 10
7.946224799261472
 20
-22.48762222222222
 10
7.946224799261472
 20
-22.48762222222222
 10
7.000538712040401
 20
-21.24186944444444
 10
7.000538712040401
 20
-21.24186944444444
 10
7.045931766449232
 20
-21.16342916666667
 10
7.081456765551795
 20
-21.07859444444443
 10
7.105124999999993
 20
-20.98887638888889
 10
7.105124999999993
 20
-20.98887638888889
 10
8.65445950359218
 20
-20.70708194444445
 10
8.65445950359218
 20
-20.70708194444445
 10
8.676334503039572
 20
-20.70310416666666
 10
8.675634503057255
 20
-20.67151388888889
 10
8.653615059169068
 20
-20.66849444444445
 10
8.653615059169068
 20
-20.66849444444445
 10
7.104251209420403
 20
-20.45635277777779
 10
7.104251209420403
 20
-20.45635277777779
 10
7.080312321136262
 20
-20.3667375
 10
7.044587322038751
 20
-20.28199166666667
 10
6.998955378747066
 20
-20.20368750000001
 10
6.998955378747066
 20
-20.20368750000001
 10
7.895383133879173
 20
-18.90867083333334
 10
7.895383133879173
 20
-18.90867083333334
 10
7.908034522448461
 20
-18.89038888888889
 10
7.885210911913923
 20
-18.86854305555554
 10
7.867505356805648
 20
-18.88199166666666
 10
7.867505356805648
 20
-18.88199166666666
 10
6.621760943831354
 20
-19.82767361111112
 10
6.621760943831354
 20
-19.82767361111112
 10
6.543326223590561
 20
-19.78227083333334
 10
6.458481781289467
 20
-19.74675
 10
6.368773450222356
 20
-19.72308749999999
 10
6.368773450222356
 20
-19.72308749999999
 10
6.120691512044989
 20
-18.35912083333334
 10
6.120691512044989
 20
-18.35912083333334
 10
6.120691512044989
 20
-18.35912083333334
 10
6.120691512044989
 20
-17.27529305555556
 10
6.120691512044989
 20
-17.27529305555556
 10
6.140274844883606
 20
-17.28215138888889
 10
6.161206788799265
 20
-17.28302361111111
 10
6.184220677106774
 20
-17.27388333333334
 10
6.200429010030651
 20
-17.26744583333334
 10
6.212920676381751
 20
-17.25709166666666
 10
6.223260953898311
 20
-17.24337222222222
 10
6.266712341689527
 20
-17.18574305555555
 10
6.270783174920021
 20
-17.1234
 10
6.246013888888885
 20
-17.05747083333333
 10
6.220204009531092
 20
-16.98876527777778
 10
6.175790121764193
 20
-16.93421250000001
 10
6.120029012061726
 20
-16.88733472222222
 10
5.95606790509262
 20
-16.74949166666667
 10
5.872194444444441
 20
-16.55269444444444
 10
5.775362354102072
 20
-16.36824583333333
 10
5.719352633294774
 20
-16.26155833333333
 10
5.742134577163697
 20
-16.1324125
 10
5.745816521515128
 20
-16.01720138888888
 10
5.746802632601328
 20
-15.98643472222222
 10
5.752665132453229
 20
-15.95594166666667
 10
5.751427632484491
 20
-15.92501527777777
 10
5.751358188041801
 20
-15.92329166666666
 10
5.752487354679943
 20
-15.92151388888889
 10
5.753062354665417
 20
-15.91976805555555
 10
5.753692910205043
 20
-15.92172777777778
 10
5.754649854625313
 20
-15.92365138888888
 10
5.754910965729828
 20
-15.92566805555556
 10
5.770899854214804
 20
-16.04584583333333
 10
5.794660964725659
 20
-16.17126111111111
 10
5.824901241739503
 20
-16.28868472222221
 10
5.849283185568007
 20
-16.38337083333332
 10
5.937899849996029
 20
-16.43334305555556
 10
6.004337348317677
 20
-16.49588333333333
 10
6.072469291040963
 20
-16.56000555555556
 10
6.149106789104937
 20
-16.61275138888888
 10
6.229241509302786
 20
-16.66029722222222
 10
6.308754007294131
 20
-16.70747361111112
 10
6.387376227530189
 20
-16.70237638888889
 10
6.474581780882747
 20
-16.69171388888888
 10
6.589098444656479
 20
-16.67771805555555
 10
6.721259552428919
 20
-16.69629305555555
 10
6.829303994143932
 20
-16.65390555555556
 10
6.896909547991627
 20
-16.62738194444445
 10
6.913369269798042
 20
-16.56136805555555
 10
6.866365104318801
 20
-16.50578472222222
 10
6.753641496055327
 20
-16.37250277777778
 10
6.611402777777786
 20
-16.40995555555556
 10
6.446292892708495
 20
-16.33645972222222
 10
6.438338726242768
 20
-16.33293055555555
 10
6.416920671228278
 20
-16.32227777777777
 10
6.407398449246607
 20
-16.32215138888889
 10
6.330685951184527
 20
-16.32106805555555
 10
6.275848452569839
 20
-16.28022222222221
 10
6.232881786988602
 20
-16.22169722222222
 10
6.170095677463602
 20
-16.13618055555556
 10
6.150530400180084
 20
-16.02723888888888
 10
6.140947067088846
 20
-15.92389861111111
 10
6.130223456248637
 20
-15.80839861111111
 10
6.11921234541569
 20
-15.6931736111111
 10
6.12243734533422
 20
-15.57701527777778
 10
6.12265678977312
 20
-15.56913472222221
 10
6.126881789666387
 20
-15.55821666666667
 10
6.134365122810676
 20
-15.56070416666666
 10
6.139270678242307
 20
-15.56232916666666
 10
6.140298455994121
 20
-15.56870972222223
 10
6.140470678211992
 20
-15.57387777777778
 10
6.144470678110943
 20
-15.68943888888889
 10
6.152799844567198
 20
-15.80485555555555
 10
6.165426233137118
 20
-15.9198
 10
6.176541666666657
 20
-16.02096527777778
 10
6.186970677037303
 20
-16.12392638888889
 10
6.247395675510839
 20
-16.20966666666666
 10
6.275111111111098
 20
-16.24932777777778
 10
6.3119748405461
 20
-16.27789305555555
 10
6.356906783855467
 20
-16.29535138888889
 10
6.383631783180337
 20
-16.30574305555556
 10
6.412663726891373
 20
-16.30488888888889
 10
6.440416666666679
 20
-16.30399305555555
 10
6.542533168055039
 20
-16.30068749999999
 10
6.644891498802584
 20
-16.31210555555555
 10
6.747059551777157
 20
-16.31194166666667
 10
6.816317883360878
 20
-16.31182083333334
 10
6.874469270780739
 20
-16.28674305555556
 10
6.925053991725084
 20
-16.24114027777778
 10
6.969415101715539
 20
-16.20114722222223
 10
7.010238711795359
 20
-16.15950277777777
 10
7.05917482167024
 20
-16.12428611111111
 10
7.117458333333338
 20
-16.08235138888888
 10
7.313237315252081
 20
-15.97762916666666
 10
7.193059540510249
 20
-15.89381249999999
 10
7.161623430193281
 20
-15.8718861111111
 10
7.116467875778451
 20
-15.86101805555556
 10
7.07856232118047
 20
-15.86095277777777
 10
7.006863711880619
 20
-15.86082222222222
 10
6.969130379500509
 20
-15.93475694444444
 10
6.92216371402032
 20
-15.97819027777777
 10
6.886181770484856
 20
-16.01145555555556
 10
6.847234549246523
 20
-16.03988055555556
 10
6.801519272623611
 20
-16.05900972222222
 10
6.540469279218288
 20
-16.16829305555555
 10
6.501377613539161
 20
-15.67944861111111
 10
6.494767891483914
 20
-15.53784861111111
 10
6.494435947047855
 20
-15.53075833333334
 10
6.493170669302041
 20
-15.52190277777778
 10
6.502880391278975
 20
-15.52137916666667
 10
6.513365113236331
 20
-15.52081944444444
 10
6.513556779898155
 20
-15.5304875
 10
6.513981779887419
 20
-15.53792361111111
 10
6.51695539092341
 20
-15.58979722222222
 10
6.519723446409039
 20
-15.64178611111111
 10
6.528005390644264
 20
-15.69306111111112
 10
6.54102483475981
 20
-15.77369027777778
 10
6.555683167722842
 20
-15.85417916666667
 10
6.586184555841201
 20
-15.93048055555555
 10
6.601095666575626
 20
-15.96776527777778
 10
6.62470677709027
 20
-16.00001805555555
 10
6.65742205404159
 20
-16.0234625
 10
6.69923871965188
 20
-16.05340833333333
 10
6.745206774046184
 20
-16.06055138888889
 10
6.794241495029685
 20
-16.04094444444445
 10
6.853051215766249
 20
-16.01743055555556
 10
6.899233159044039
 20
-15.97725694444445
 10
6.941219269094492
 20
-15.93132638888889
 10
7.025569444444449
 20
-15.83904027777777
 10
7.130635930976091
 20
-15.752675
 10
7.095824820744383
 20
-15.61237222222222
 10
7.076672043450444
 20
-15.53519722222222
 10
7.037659544435983
 20
-15.45439583333334
 10
6.989301212324285
 20
-15.39114166666666
 10
6.983765101353027
 20
-15.38389166666666
 10
6.980287323663106
 20
-15.38266944444445
 10
6.973234546063495
 20
-15.38942361111112
 10
6.962301213006362
 20
-15.39987083333333
 10
6.95056510219173
 20
-15.40957222222222
 10
6.938544269162068
 20
-15.41876805555555
 10
6.907528992167802
 20
-15.44251111111112
 10
6.892413714771869
 20
-15.47299861111111
 10
6.893627603630092
 20
-15.51262222222222
 10
6.894205381393274
 20
-15.53153333333334
 10
6.897194444444444
 20
-15.54526666666667
 10
6.91489149198181
 20
-15.55690972222222
 10
6.942027777777765
 20
-15.57475972222222
 10
6.963874999999992
 20
-15.59933333333333
 10
6.983980379125367
 20
-15.625
 10
6.988628990119044
 20
-15.63093194444444
 10
6.99259722222223
 20
-15.63744027777778
 10
6.996424823255438
 20
-15.64395277777778
 10
6.999240100962096
 20
-15.6487375
 10
6.998433156538036
 20
-15.65348055555556
 10
6.993713712212815
 20
-15.6568125
 10
6.988658156784973
 20
-15.66038472222222
 10
6.984441490224829
 20
-15.65809722222222
 10
6.980935934757831
 20
-15.65410138888889
 10
6.979172045913502
 20
-15.65209305555556
 10
6.97789287927915
 20
-15.64964722222222
 10
6.976390101539335
 20
-15.64739722222223
 10
6.958210935331913
 20
-15.62010277777777
 10
6.934581769262169
 20
-15.59786805555556
 10
6.910208333333331
 20
-15.57634305555555
 10
6.907117881067077
 20
-15.5736125
 10
6.903481770047821
 20
-15.56904583333333
 10
6.899256770154554
 20
-15.57172083333333
 10
6.897478992421687
 20
-15.57284583333333
 10
6.898458333333338
 20
-15.57877083333334
 10
6.898626214614928
 20
-15.58249583333333
 10
6.90027065901783
 20
-15.61765138888889
 10
6.904294270027296
 20
-15.65254166666667
 10
6.910605380978975
 20
-15.68717083333334
 10
6.911483158734578
 20
-15.69195972222222
 10
6.912458333333334
 20
-15.69673611111111
 10
6.913078992027597
 20
-15.70155833333333
 10
6.913924825339564
 20
-15.70809722222222
 10
6.912556769818567
 20
-15.71392777777777
 10
6.904928992233484
 20
-15.71492777777778
 10
6.898159547960049
 20
-15.71580555555556
 10
6.895256770255602
 20
-15.71100138888889
 10
6.894341492500947
 20
-15.70512916666667
 10
6.890377603712194
 20
-15.67949166666666
 10
6.88544444444445
 20
-15.65392777777778
 10
6.882955381677473
 20
-15.62813611111111
 10
6.879388888888898
 20
-15.59100972222222
 10
6.877708333333329
 20
-15.55369722222223
 10
6.875103992986927
 20
-15.51647777777778
 10
6.871938715289111
 20
-15.47103333333333
 10
6.888076214881443
 20
-15.43334166666667
 10
6.922938714000742
 20
-15.40479166666667
 10
6.978788712589853
 20
-15.35903333333334
 10
7.01811371159642
 20
-15.30188055555555
 10
7.043859544279358
 20
-15.23502777777778
 10
7.058176210584356
 20
-15.19785972222222
 10
7.086815098749765
 20
-15.17586805555556
 10
7.121608153426374
 20
-15.16116388888889
 10
7.289840093620922
 20
-15.09004861111111
 10
7.468710922435598
 20
-15.0414375
 10
7.567788697710461
 20
-14.87434444444444
 10
7.63154166666666
 20
-14.7668125
 10
7.634077584924752
 20
-14.65493055555555
 10
7.63253591829703
 20
-14.53421111111111
 10
7.628465085066535
 20
-14.21468750000001
 10
7.722940082679896
 20
-13.69340416666667
 10
7.761592859481222
 20
-13.377625
 10
8.6069845047915
 20
-13.92368611111111
 10
9.168202546169494
 20
-14.87358333333333
 10
9.168202546169494
 20
-15.95271111111111
 10
9.168202546169494
 20
-15.95271111111111
 10
9.168202546169494
 20
-20.75038749999999
 10
9.168202546169494
 20
-20.75038749999999
 97
        0
 97
        0
 92
        1
 93
        1
 72
     4
 94
        3
 73
     0
 74
     1
 95
       29
 96
       25
 40
0.0
 40
0.0
 40
0.0
 40
0.0
 40
1.0
 40
1.0
 40
1.0
 40
2.0
 40
2.0
 40
2.0
 40
3.0
 40
3.0
 40
3.0
 40
4.0
 40
4.0
 40
4.0
 40
5.0
 40
5.0
 40
5.0
 40
6.0
 40
6.0
 40
6.0
 40
7.0
 40
7.0
 40
7.0
 40
8.0
 40
8.0
 40
8.0
 40
8.0
 10
6.317283173745333
 20
-15.24339861111111
 10
6.313908173830592
 20
-15.25293472222222
 10
6.306172062914912
 20
-15.24905138888889
 10
6.299445674195946
 20
-15.24686666666667
 10
6.273756785956013
 20
-15.23849583333333
 10
6.24806789771608
 20
-15.22967777777778
 10
6.221044287287643
 20
-15.22699444444445
 10
6.158017899990934
 20
-15.22073888888889
 10
6.097102623752006
 20
-15.22920694444444
 10
6.03887623633404
 20
-15.25487777777778
 10
6.031865125400044
 20
-15.2579625
 10
6.023626236719287
 20
-15.26208055555556
 10
6.019755403483739
 20
-15.2517875
 10
6.016310959126309
 20
-15.24261805555555
 10
6.024937347797277
 20
-15.2403125
 10
6.031183180972826
 20
-15.2372638888889
 10
6.080998457492165
 20
-15.21298472222222
 10
6.134845678354091
 20
-15.20851805555556
 10
6.184459565989628
 20
-15.2049375
 10
6.229404009298681
 20
-15.20566527777777
 10
6.268001230545855
 20
-15.21569722222222
 10
6.305930555555555
 20
-15.22888888888888
 10
6.312690118305808
 20
-15.23124722222222
 10
6.320494284775324
 20
-15.2343
 10
6.317283173745333
 20
-15.24339861111111
 97
        0
 97
        0
 92
        1
 93
        1
 72
     4
 94
        3
 73
     0
 74
     1
 95
       32
 96
       28
 40
0.0
 40
0.0
 40
0.0
 40
0.0
 40
1.0
 40
1.0
 40
1.0
 40
2.0
 40
2.0
 40
2.0
 40
3.0
 40
3.0
 40
3.0
 40
4.0
 40
4.0
 40
4.0
 40
5.0
 40
5.0
 40
5.0
 40
6.0
 40
6.0
 40
6.0
 40
7.0
 40
7.0
 40
7.0
 40
8.0
 40
8.0
 40
8.0
 40
9.0
 40
9.0
 40
9.0
 40
9.0
 10
5.930952627949308
 20
-15.26067916666667
 10
5.926037350295701
 20
-15.27372222222223
 10
5.914773461691362
 20
-15.26435833333333
 10
5.907345684101225
 20
-15.26150555555556
 10
5.856840129821547
 20
-15.2421
 10
5.805452631119705
 20
-15.23958888888889
 10
5.753085965775932
 20
-15.25182916666667
 10
5.743119299361044
 20
-15.25415833333333
 10
5.733306799608928
 20
-15.25715972222221
 10
5.72340541097017
 20
-15.25977916666666
 10
5.717859577776935
 20
-15.26124861111111
 10
5.71209013347824
 20
-15.26171111111111
 10
5.709583333333335
 20
-15.25532083333333
 10
5.706791666666668
 20
-15.24817777777778
 10
5.711477633493713
 20
-15.24425277777777
 10
5.717438744454234
 20
-15.24169444444444
 10
5.720398466601687
 20
-15.24042916666667
 10
5.723516522078474
 20
-15.23949999999999
 10
5.7266123553336
 20
-15.23855277777778
 10
5.755195687944857
 20
-15.22979027777778
 10
5.784688742755356
 20
-15.22676527777778
 10
5.814266519785936
 20
-15.22464166666666
 10
5.848456796699995
 20
-15.22644305555555
 10
5.882156795848661
 20
-15.23057916666667
 10
5.914022072821454
 20
-15.24366388888888
 10
5.92170540596069
 20
-15.24681944444444
 10
5.935565127832787
 20
-15.24843472222223
 10
5.930952627949308
 20
-15.26067916666667
 97
        0
 97
        0
 92
        1
 93
        1
 72
     4
 94
        3
 73
     0
 74
     1
 95
       29
 96
       25
 40
0.0
 40
0.0
 40
0.0
 40
0.0
 40
1.0
 40
1.0
 40
1.0
 40
2.0
 40
2.0
 40
2.0
 40
3.0
 40
3.0
 40
3.0
 40
4.0
 40
4.0
 40
4.0
 40
5.0
 40
5.0
 40
5.0
 40
6.0
 40
6.0
 40
6.0
 40
7.0
 40
7.0
 40
7.0
 40
8.0
 40
8.0
 40
8.0
 40
8.0
 10
6.104479012454552
 20
-21.64185416666666
 10
6.104310956903242
 20
-21.64185416666666
 10
6.104170679129007
 20
-21.64185416666666
 10
6.104002623577697
 20
-21.64185416666666
 10
6.058198458068142
 20
-21.64159305555555
 10
6.020698459015471
 20
-21.6043361111111
 10
6.020390125689927
 20
-21.55876944444445
 10
6.020245681249131
 20
-21.53702083333335
 10
6.029269292132287
 20
-21.51550416666666
 10
6.045066513955438
 20
-21.49975416666666
 10
6.060859569112027
 20
-21.48402638888888
 10
6.081445679703089
 20
-21.47539027777778
 10
6.103097222222218
 20
-21.47539027777778
 10
6.103381790260047
 20
-21.47539027777778
 10
6.103666666666665
 20
-21.47539027777778
 10
6.103951234690107
 20
-21.47539027777778
 10
6.149120677993475
 20
-21.47584305555556
 10
6.187474843691234
 20
-21.51412777777778
 10
6.187684565908158
 20
-21.55900277777778
 10
6.187810954793854
 20
-21.58101805555556
 10
6.179240121677038
 20
-21.60173611111112
 10
6.163583333333336
 20
-21.61741527777778
 10
6.147809566915485
 20
-21.63319027777778
 10
6.126848456333897
 20
-21.64185416666666
 10
6.104479012454552
 20
-21.64185416666666
 97
        0
 97
        0
 92
        1
 93
        1
 72
     4
 94
        3
 73
     0
 74
     1
 95
       26
 96
       22
 40
0.0
 40
0.0
 40
0.0
 40
0.0
 40
1.0
 40
1.0
 40
1.0
 40
2.0
 40
2.0
 40
2.0
 40
3.0
 40
3.0
 40
3.0
 40
4.0
 40
4.0
 40
4.0
 40
5.0
 40
5.0
 40
5.0
 40
6.0
 40
6.0
 40
6.0
 40
7.0
 40
7.0
 40
7.0
 40
7.0
 10
6.152094289029466
 20
-21.74600555555556
 10
6.152094289029466
 20
-21.74600555555556
 10
6.152094289029466
 20
-22.49052638888889
 10
6.152094289029466
 20
-22.49052638888889
 10
6.152094289029466
 20
-22.50911527777778
 10
6.136983178300094
 20
-22.52422083333332
 10
6.118399845436215
 20
-22.52422083333332
 10
6.099815123683483
 20
-22.52422083333332
 10
6.084681790732449
 20
-22.50911527777778
 10
6.084681790732449
 20
-22.49052638888889
 10
6.084681790732449
 20
-22.49052638888889
 10
6.084681790732449
 20
-21.74717222222221
 10
6.084681790732449
 20
-21.74717222222221
 10
6.084681790732449
 20
-21.74717222222221
 10
6.104054012465288
 20
-21.74733194444444
 10
6.104054012465288
 20
-21.74733194444444
 10
6.114020678880175
 20
-21.74733194444444
 10
6.12389845640842
 20
-21.7469763888889
 10
6.133795678380617
 20
-21.74664999999999
 10
6.133795678380617
 20
-21.74664999999999
 10
6.152094289029466
 20
-21.74600555555556
 10
6.152094289029466
 20
-21.74600555555556
 97
        0
 97
        0
 92
        1
 93
        1
 72
     4
 94
        3
 73
     0
 74
     1
 95
       29
 96
       25
 40
0.0
 40
0.0
 40
0.0
 40
0.0
 40
1.0
 40
1.0
 40
1.0
 40
2.0
 40
2.0
 40
2.0
 40
3.0
 40
3.0
 40
3.0
 40
4.0
 40
4.0
 40
4.0
 40
5.0
 40
5.0
 40
5.0
 40
6.0
 40
6.0
 40
6.0
 40
7.0
 40
7.0
 40
7.0
 40
8.0
 40
8.0
 40
8.0
 40
8.0
 10
6.163055555555553
 20
-19.94852777777777
 10
6.147262344707087
 20
-19.96430277777777
 10
6.12663456745041
 20
-19.9729388888889
 10
6.104931790220891
 20
-19.9729388888889
 10
6.104647068005861
 20
-19.9729388888889
 10
6.104385956901347
 20
-19.9729388888889
 10
6.104123456907979
 20
-19.9729388888889
 10
6.058987346937101
 20
-19.97248611111111
 10
6.020652777777778
 20
-19.93417777777778
 10
6.020390125689927
 20
-19.88929861111112
 10
6.020269292359646
 20
-19.86731527777778
 10
6.028812347699386
 20
-19.84659305555556
 10
6.044473458414864
 20
-19.83093611111111
 10
6.060266513571453
 20
-19.81516249999999
 10
6.081254013041264
 20
-19.80647499999999
 10
6.103625000000003
 20
-19.80647499999999
 10
6.103792901360773
 20
-19.80647499999999
 10
6.103927623579592
 20
-19.80647499999999
 10
6.104101234686317
 20
-19.80647499999999
 10
6.149905400195873
 20
-19.80673611111112
 10
6.187399843693129
 20
-19.84399305555555
 10
6.187684565908158
 20
-19.88955972222223
 10
6.187834565904368
 20
-19.91129027777778
 10
6.178866510575365
 20
-19.93277777777778
 10
6.163055555555553
 20
-19.94852777777777
 97
        0
 97
        0
 92
        1
 93
        1
 72
     4
 94
        3
 73
     0
 74
     1
 95
       26
 96
       22
 40
0.0
 40
0.0
 40
0.0
 40
0.0
 40
1.0
 40
1.0
 40
1.0
 40
2.0
 40
2.0
 40
2.0
 40
3.0
 40
3.0
 40
3.0
 40
4.0
 40
4.0
 40
4.0
 40
5.0
 40
5.0
 40
5.0
 40
6.0
 40
6.0
 40
6.0
 40
7.0
 40
7.0
 40
7.0
 40
7.0
 10
6.123394289754489
 20
-19.70127777777778
 10
6.123394289754489
 20
-19.70127777777778
 10
6.104054012465288
 20
-19.70096944444445
 10
6.104054012465288
 20
-19.70096944444445
 10
6.093672068283113
 20
-19.70096944444445
 10
6.083420679653196
 20
-19.70135277777778
 10
6.073141513246203
 20
-19.70172638888888
 10
6.073141513246203
 20
-19.70172638888888
 10
6.055980402568618
 20
-19.70234722222222
 10
6.055980402568618
 20
-19.70234722222222
 10
6.055980402568618
 20
-19.70234722222222
 10
6.055980402568618
 20
-18.95780277777776
 10
6.055980402568618
 20
-18.95780277777776
 10
6.055980402568618
 20
-18.93921388888889
 10
6.07112067996392
 20
-18.92410277777779
 10
6.089708333333331
 20
-18.92410277777779
 10
6.108283179025117
 20
-18.92410277777779
 10
6.123394289754489
 20
-18.93921388888889
 10
6.123394289754489
 20
-18.95780277777776
 10
6.123394289754489
 20
-18.95780277777776
 10
6.123394289754489
 20
-19.70127777777778
 10
6.123394289754489
 20
-19.70127777777778
 97
        0
 97
        0
 92
        1
 93
        1
 72
     4
 94
        3
 73
     0
 74
     1
 95
       26
 96
       22
 40
0.0
 40
0.0
 40
0.0
 40
0.0
 40
1.0
 40
1.0
 40
1.0
 40
2.0
 40
2.0
 40
2.0
 40
3.0
 40
3.0
 40
3.0
 40
4.0
 40
4.0
 40
4.0
 40
5.0
 40
5.0
 40
5.0
 40
6.0
 40
6.0
 40
6.0
 40
7.0
 40
7.0
 40
7.0
 40
7.0
 10
5.572912359216389
 20
-20.19291805555556
 10
5.556779026290617
 20
-20.20871944444444
 10
5.535155415725765
 20
-20.21661805555555
 10
5.513569444444443
 20
-20.21661805555555
 10
5.492012361260095
 20
-20.21661805555555
 10
5.4705012506924
 20
-20.20874305555556
 10
5.454559584428453
 20
-20.19296944444444
 10
5.438930555555556
 20
-20.1774986111111
 10
5.430312362818768
 20
-20.15679444444443
 10
5.430312362818768
 20
-20.13466805555554
 10
5.430312362818768
 20
-20.11218055555554
 10
5.439140140373537
 20
-20.09108055555556
 10
5.455180555555557
 20
-20.07522777777778
 10
5.487731805812675
 20
-20.04301250000001
 10
5.540604026699232
 20
-20.04284861111111
 10
5.573056803657184
 20
-20.07487222222221
 10
5.588527777777775
 20
-20.09014722222221
 10
5.597369303042998
 20
-20.11170972222223
 10
5.597326247488531
 20
-20.13402361111111
 10
5.597280414156355
 20
-20.15660833333332
 10
5.588615136597481
 20
-20.17752638888889
 10
5.572912359216389
 20
-20.19291805555556
 97
        0
 97
        0
 92
        1
 93
        1
 72
     4
 94
        3
 73
     0
 74
     1
 95
       29
 96
       25
 40
0.0
 40
0.0
 40
0.0
 40
0.0
 40
1.0
 40
1.0
 40
1.0
 40
2.0
 40
2.0
 40
2.0
 40
3.0
 40
3.0
 40
3.0
 40
4.0
 40
4.0
 40
4.0
 40
5.0
 40
5.0
 40
5.0
 40
6.0
 40
6.0
 40
6.0
 40
7.0
 40
7.0
 40
7.0
 40
8.0
 40
8.0
 40
8.0
 40
8.0
 10
5.572865136995359
 20
-21.37364722222221
 10
5.557423470718782
 20
-21.38927222222221
 10
5.536719304575146
 20
-21.39788888888888
 10
5.514569444444444
 20
-21.39788888888888
 10
5.514569444444444
 20
-21.39788888888888
 10
5.514569444444444
 20
-21.39788888888888
 10
5.514549860690749
 20
-21.39788888888888
 10
5.4920873612582
 20
-21.39788888888888
 10
5.470977639569254
 20
-21.38906250000001
 10
5.455129028858512
 20
-21.37305
 10
5.422890140784046
 20
-21.34047083333333
 10
5.422722222222218
 20
-21.28760416666667
 10
5.454751251090278
 20
-21.25515000000001
 10
5.469973472927955
 20
-21.23972638888889
 10
5.491494305717626
 20
-21.23088055555556
 10
5.513737360711275
 20
-21.23088055555556
 10
5.513784582932304
 20
-21.23088055555556
 10
5.513855416263848
 20
-21.23088055555556
 10
5.513897082929462
 20
-21.23088055555556
 10
5.536509582358222
 20
-21.23092222222221
 10
5.557399859608267
 20
-21.23960972222221
 10
5.572790136997254
 20
-21.25531388888887
 10
5.604390136198971
 20
-21.28753333333333
 10
5.604441525086561
 20
-21.3417361111111
 10
5.572865136995359
 20
-21.37364722222221
 97
        0
 97
        0
 92
        1
 93
        1
 72
     4
 94
        3
 73
     0
 74
     1
 95
       26
 96
       22
 40
0.0
 40
0.0
 40
0.0
 40
0.0
 40
1.0
 40
1.0
 40
1.0
 40
2.0
 40
2.0
 40
2.0
 40
3.0
 40
3.0
 40
3.0
 40
4.0
 40
4.0
 40
4.0
 40
5.0
 40
5.0
 40
5.0
 40
6.0
 40
6.0
 40
6.0
 40
7.0
 40
7.0
 40
7.0
 40
7.0
 10
5.269437366882812
 20
-20.64051805555555
 10
5.290258199690166
 20
-20.64027916666666
 10
5.312697088012201
 20
-20.64936805555557
 10
5.328448476503177
 20
-20.66518888888888
 10
5.344390142767123
 20
-20.68118194444444
 10
5.353054031437144
 20
-20.70209583333333
 10
5.352834586998243
 20
-20.72407777777777
 10
5.352358198121388
 20
-20.7692236111111
 10
5.314051254644659
 20
-20.80754999999999
 10
5.269199866888812
 20
-20.8078111111111
 10
5.269035978004063
 20
-20.8078111111111
 10
5.268891533563267
 20
-20.8078111111111
 10
5.268751255789033
 20
-20.8078111111111
 10
5.246904034118718
 20
-20.8078111111111
 10
5.226349867971294
 20
-20.79926944444444
 10
5.210785979475582
 20
-20.78370972222223
 10
5.194915146543179
 20
-20.7678138888889
 10
5.186231813429205
 20
-20.74666250000001
 10
5.186372091203439
 20
-20.72412500000001
 10
5.186633202307954
 20
-20.67829722222223
 10
5.223899868033186
 20
-20.64080277777778
 10
5.269437366882812
 20
-20.64051805555555
 97
        0
 97
        0
 92
        1
 93
        1
 72
     4
 94
        3
 73
     0
 74
     1
 95
       29
 96
       25
 40
0.0
 40
0.0
 40
0.0
 40
0.0
 40
1.0
 40
1.0
 40
1.0
 40
2.0
 40
2.0
 40
2.0
 40
3.0
 40
3.0
 40
3.0
 40
4.0
 40
4.0
 40
4.0
 40
5.0
 40
5.0
 40
5.0
 40
6.0
 40
6.0
 40
6.0
 40
7.0
 40
7.0
 40
7.0
 40
8.0
 40
8.0
 40
8.0
 40
8.0
 10
4.82105265598774
 20
-19.50913888888888
 10
4.81468598948191
 20
-19.50275833333333
 10
4.811184600681472
 20
-19.49431388888888
 10
4.811184600681472
 20
-19.48529861111109
 10
4.811208333333335
 20
-19.47628055555555
 10
4.814709600592423
 20
-19.4678263888889
 10
4.821076267098255
 20
-19.46145833333334
 10
4.833787377888257
 20
-19.44879444444445
 10
4.856008210660244
 20
-19.44877083333333
 10
4.868715154783684
 20
-19.46147777777777
 10
4.868715154783684
 20
-19.46147777777777
 10
5.394429030391923
 20
-19.98717222222222
 10
5.394429030391923
 20
-19.98717222222222
 10
5.394429030391923
 20
-19.98717222222222
 10
5.385670697279844
 20
-19.99577916666665
 10
5.385670697279844
 20
-19.99577916666665
 10
5.375563753090723
 20
-20.00575138888889
 10
5.365760975560584
 20
-20.01595972222223
 10
5.356074864694165
 20
-20.02633333333334
 10
5.356074864694165
 20
-20.02633333333334
 10
5.347480420466834
 20
-20.03554305555556
 10
5.347480420466834
 20
-20.03554305555556
 10
5.347480420466834
 20
-20.03554305555556
 10
4.82105265598774
 20
-19.50913888888888
 10
4.82105265598774
 20
-19.50913888888888
 97
        0
 97
        0
 92
        1
 93
        1
 72
     4
 94
        3
 73
     0
 74
     1
 95
       29
 96
       25
 40
0.0
 40
0.0
 40
0.0
 40
0.0
 40
1.0
 40
1.0
 40
1.0
 40
2.0
 40
2.0
 40
2.0
 40
3.0
 40
3.0
 40
3.0
 40
4.0
 40
4.0
 40
4.0
 40
5.0
 40
5.0
 40
5.0
 40
6.0
 40
6.0
 40
6.0
 40
7.0
 40
7.0
 40
7.0
 40
8.0
 40
8.0
 40
8.0
 40
8.0
 10
5.367067919972012
 20
-21.43377361111111
 10
5.367067919972012
 20
-21.43377361111111
 10
5.375680555555555
 20
-21.44253194444445
 10
5.375680555555555
 20
-21.44253194444445
 10
5.385625000000005
 20
-21.45264305555555
 10
5.395838752578533
 20
-21.46244166666666
 10
5.406210974538731
 20
-21.47210416666667
 10
5.406210974538731
 20
-21.47210416666667
 10
5.415440140972249
 20
-21.48072222222221
 10
5.415440140972249
 20
-21.48072222222221
 10
5.415440140972249
 20
-21.48072222222221
 10
4.889017932048571
 20
-22.00714861111111
 10
4.889017932048571
 20
-22.00714861111111
 10
4.882449876658939
 20
-22.01371250000001
 10
4.873813765765994
 20
-22.01699444444444
 10
4.865172099317634
 20
-22.01699444444444
 10
4.856555555555562
 20
-22.01699444444444
 10
4.847919321975698
 20
-22.01371250000001
 10
4.841355433252627
 20
-22.00714861111111
 10
4.828219322473362
 20
-21.9940125
 10
4.828219322473362
 20
-21.97261805555556
 10
4.841355433252627
 20
-21.9594875
 10
4.841355433252627
 20
-21.9594875
 10
5.367067919972012
 20
-21.43377361111111
 10
5.367067919972012
 20
-21.43377361111111
 97
        0
 97
        0
 92
        1
 93
        1
 72
     4
 94
        3
 73
     0
 74
     1
 95
       26
 96
       22
 40
0.0
 40
0.0
 40
0.0
 40
0.0
 40
1.0
 40
1.0
 40
1.0
 40
2.0
 40
2.0
 40
2.0
 40
3.0
 40
3.0
 40
3.0
 40
4.0
 40
4.0
 40
4.0
 40
5.0
 40
5.0
 40
5.0
 40
6.0
 40
6.0
 40
6.0
 40
7.0
 40
7.0
 40
7.0
 40
7.0
 10
5.081556816073518
 20
-20.75384722222222
 10
5.081556816073518
 20
-20.75384722222222
 10
5.082205427168244
 20
-20.77222083333332
 10
5.082205427168244
 20
-20.77222083333332
 10
5.082205427168244
 20
-20.77222083333332
 10
4.337699890420481
 20
-20.77222083333332
 10
4.337699890420481
 20
-20.77222083333332
 10
4.319111111111106
 20
-20.77222083333332
 10
4.303980446827861
 20
-20.7570875
 10
4.303980446827861
 20
-20.7384986111111
 10
4.303980446827861
 20
-20.71991944444443
 10
4.319111111111106
 20
-20.70480833333333
 10
4.337699890420481
 20
-20.70480833333333
 10
4.337699890420481
 20
-20.70480833333333
 10
5.081179038305284
 20
-20.70480833333333
 10
5.081179038305284
 20
-20.70480833333333
 10
5.081179038305284
 20
-20.70480833333333
 10
5.080870704979739
 20
-20.72415277777779
 10
5.080870704979739
 20
-20.72415277777779
 10
5.080870704979739
 20
-20.73411944444446
 10
5.08122487163746
 20
-20.74397361111111
 10
5.081556816073518
 20
-20.75384722222222
 97
        0
 97
        0
 92
        1
 93
        1
 72
     4
 94
        3
 73
     0
 74
     1
 95
       26
 96
       22
 40
0.0
 40
0.0
 40
0.0
 40
0.0
 40
1.0
 40
1.0
 40
1.0
 40
2.0
 40
2.0
 40
2.0
 40
3.0
 40
3.0
 40
3.0
 40
4.0
 40
4.0
 40
4.0
 40
5.0
 40
5.0
 40
5.0
 40
6.0
 40
6.0
 40
6.0
 40
7.0
 40
7.0
 40
7.0
 40
7.0
 10
6.635187332381065
 20
-21.25541111111112
 10
6.667430555555559
 20
-21.22376666666666
 10
6.721609552420078
 20
-21.2237375
 10
6.753520662725046
 20
-21.2553375
 10
6.769177606773964
 20
-21.27082638888889
 10
6.777762328779318
 20
-21.29155694444444
 10
6.777762328779318
 20
-21.31370833333333
 10
6.777762328779318
 20
-21.33617083333332
 10
6.768944444444438
 20
-21.35724861111112
 10
6.752923440517911
 20
-21.37309722222221
 10
6.736574829819801
 20
-21.38927222222221
 10
6.715092885918036
 20
-21.39736666666666
 10
6.693655386459593
 20
-21.39736666666666
 10
6.672406775885267
 20
-21.39736666666666
 10
6.651198443087701
 20
-21.38939861111112
 10
6.635051221273392
 20
-21.37345555555556
 10
6.6195859438863
 20
-21.35817777777778
 10
6.610730388554455
 20
-21.33661944444444
 10
6.61077622188663
 20
-21.31430555555554
 10
6.610819444444435
 20
-21.29172083333333
 10
6.619483166111118
 20
-21.27080277777776
 10
6.635187332381065
 20
-21.25541111111112
 97
        0
 97
        0
 92
        1
 93
        1
 72
     4
 94
        3
 73
     0
 74
     1
 95
       23
 96
       19
 40
0.0
 40
0.0
 40
0.0
 40
0.0
 40
1.0
 40
1.0
 40
1.0
 40
2.0
 40
2.0
 40
2.0
 40
3.0
 40
3.0
 40
3.0
 40
4.0
 40
4.0
 40
4.0
 40
5.0
 40
5.0
 40
5.0
 40
6.0
 40
6.0
 40
6.0
 40
6.0
 10
6.635238721268656
 20
-20.07468194444444
 10
6.666408164925693
 20
-20.04320416666665
 10
6.72149705242292
 20
-20.04346527777779
 10
6.752974829405503
 20
-20.07527916666666
 10
6.785194444444439
 20
-20.10785833333332
 10
6.785352606365349
 20
-20.16073055555555
 10
6.753352607173737
 20
-20.19315138888889
 10
6.738125000000005
 20
-20.20859305555556
 10
6.716619274768365
 20
-20.21744861111112
 10
6.694365108663886
 20
-20.21744861111112
 10
6.694319444444444
 20
-20.21744861111112
 10
6.69426788644412
 20
-20.21744861111112
 10
6.694202608667991
 20
-20.21744861111112
 10
6.671622053682868
 20
-20.21740694444444
 10
6.650680555555557
 20
-20.20874305555556
 10
6.635284554600831
 20
-20.19301527777778
 10
6.603685944287967
 20
-20.16077222222222
 10
6.603662333177454
 20
-20.10659305555555
 10
6.635238721268656
 20
-20.07468194444444
 97
        0
 97
        0
 92
        1
 93
        1
 72
     4
 94
        3
 73
     0
 74
     1
 95
       29
 96
       25
 40
0.0
 40
0.0
 40
0.0
 40
0.0
 40
1.0
 40
1.0
 40
1.0
 40
2.0
 40
2.0
 40
2.0
 40
3.0
 40
3.0
 40
3.0
 40
4.0
 40
4.0
 40
4.0
 40
5.0
 40
5.0
 40
5.0
 40
6.0
 40
6.0
 40
6.0
 40
7.0
 40
7.0
 40
7.0
 40
8.0
 40
8.0
 40
8.0
 40
8.0
 10
6.938642880270688
 20
-20.8078111111111
 10
6.938492880274477
 20
-20.8078111111111
 10
6.938334546945144
 20
-20.8078111111111
 10
6.938166666666675
 20
-20.8078111111111
 10
6.916585936383449
 20
-20.8078111111111
 10
6.89528871469924
 20
-20.79884444444443
 10
6.879651215094277
 20
-20.78315833333333
 10
6.863708333333332
 20
-20.76714722222222
 10
6.855053993493432
 20
-20.74623333333334
 10
6.855263888888885
 20
-20.72425138888889
 10
6.855716493476696
 20
-20.67910416666667
 10
6.894023436953425
 20
-20.64077916666666
 10
6.938903991375203
 20
-20.64051805555555
 10
6.939062324704537
 20
-20.64051805555555
 10
6.939212324700748
 20
-20.64051805555555
 10
6.939356769141543
 20
-20.64051805555555
 10
6.961176213034782
 20
-20.64051805555555
 10
6.981734545848767
 20
-20.64905138888889
 10
6.997270656567403
 20
-20.66460138888889
 10
7.013165100610321
 20
-20.68048611111112
 10
7.021852600390856
 20
-20.70166666666667
 10
7.021727600394014
 20
-20.72420000000001
 10
7.021465100400645
 20
-20.77003194444445
 10
6.984208333333324
 20
-20.8075263888889
 10
6.938642880270688
 20
-20.8078111111111
 97
        0
 97
        0
 92
        1
 93
        1
 72
     4
 94
        3
 73
     0
 74
     1
 95
       29
 96
       25
 40
0.0
 40
0.0
 40
0.0
 40
0.0
 40
1.0
 40
1.0
 40
1.0
 40
2.0
 40
2.0
 40
2.0
 40
3.0
 40
3.0
 40
3.0
 40
4.0
 40
4.0
 40
4.0
 40
5.0
 40
5.0
 40
5.0
 40
6.0
 40
6.0
 40
6.0
 40
7.0
 40
7.0
 40
7.0
 40
8.0
 40
8.0
 40
8.0
 40
8.0
 10
7.387022035610344
 20
-21.93919027777777
 10
7.400158146389609
 20
-21.95232083333334
 10
7.400158146389609
 20
-21.97371527777778
 10
7.387022035610344
 20
-21.98685138888888
 10
7.380458333333333
 20
-21.99341527777779
 10
7.371817869327767
 20
-21.99669722222221
 10
7.363177591768261
 20
-21.99669722222221
 10
7.354563703096978
 20
-21.99669722222221
 10
7.345927592204033
 20
-21.99341527777779
 10
7.3393595368144
 20
-21.98685138888888
 10
7.3393595368144
 20
-21.98685138888888
 10
6.813698438982605
 20
-21.46118055555555
 10
6.813698438982605
 20
-21.46118055555555
 10
6.813698438982605
 20
-21.46118055555555
 10
6.822403994318241
 20
-21.45257222222222
 10
6.822403994318241
 20
-21.45257222222222
 10
6.832492882952263
 20
-21.44260138888889
 10
6.842342882703431
 20
-21.43234027777779
 10
6.852024826903289
 20
-21.42197222222222
 10
6.852024826903289
 20
-21.42197222222222
 10
6.860617882241765
 20
-21.4127625
 10
6.860617882241765
 20
-21.4127625
 10
6.860617882241765
 20
-21.4127625
 10
7.387022035610344
 20
-21.93919027777777
 10
7.387022035610344
 20
-21.93919027777777
 97
        0
 97
        0
 92
        1
 93
        1
 72
     4
 94
        3
 73
     0
 74
     1
 95
       29
 96
       25
 40
0.0
 40
0.0
 40
0.0
 40
0.0
 40
1.0
 40
1.0
 40
1.0
 40
2.0
 40
2.0
 40
2.0
 40
3.0
 40
3.0
 40
3.0
 40
4.0
 40
4.0
 40
4.0
 40
5.0
 40
5.0
 40
5.0
 40
6.0
 40
6.0
 40
6.0
 40
7.0
 40
7.0
 40
7.0
 40
8.0
 40
8.0
 40
8.0
 40
8.0
 10
6.841040104958564
 20
-20.01452777777778
 10
6.841040104958564
 20
-20.01452777777778
 10
6.832422049620718
 20
-20.00577500000001
 10
6.832422049620718
 20
-20.00577500000001
 10
6.822474827649785
 20
-19.99570972222222
 10
6.812270661240897
 20
-19.98588749999999
 10
6.801892883725284
 20
-19.97622500000001
 10
6.801892883725284
 20
-19.97622500000001
 10
6.792659550625204
 20
-19.96760694444444
 10
6.792659550625204
 20
-19.96760694444444
 10
6.792659550625204
 20
-19.96760694444444
 10
7.319062315104929
 20
-19.44115694444445
 10
7.319062315104929
 20
-19.44115694444445
 10
7.332245648105223
 20
-19.42807638888889
 10
7.353592869788169
 20
-19.42804861111111
 10
7.366724813900873
 20
-19.44118055555555
 10
7.373106758184096
 20
-19.44753333333334
 10
7.376626202539632
 20
-19.45601111111111
 10
7.376626202539632
 20
-19.46502499999999
 10
7.376626202539632
 20
-19.47401666666666
 10
7.373106758184096
 20
-19.48248888888889
 10
7.366724813900873
 20
-19.48886527777778
 10
7.366724813900873
 20
-19.48886527777778
 10
6.841040104958564
 20
-20.01452777777778
 10
6.841040104958564
 20
-20.01452777777778
 97
        0
 97
        0
 92
        1
 93
        1
 72
     4
 94
        3
 73
     0
 74
     1
 95
       26
 96
       22
 40
0.0
 40
0.0
 40
0.0
 40
0.0
 40
1.0
 40
1.0
 40
1.0
 40
2.0
 40
2.0
 40
2.0
 40
3.0
 40
3.0
 40
3.0
 40
4.0
 40
4.0
 40
4.0
 40
5.0
 40
5.0
 40
5.0
 40
6.0
 40
6.0
 40
6.0
 40
7.0
 40
7.0
 40
7.0
 40
7.0
 10
7.126547042190496
 20
-20.6944125
 10
7.126547042190496
 20
-20.6944125
 10
7.125906764428893
 20
-20.67610833333333
 10
7.125906764428893
 20
-20.67610833333333
 10
7.125906764428893
 20
-20.67610833333333
 10
7.870403967843534
 20
-20.67610833333333
 10
7.870403967843534
 20
-20.67610833333333
 10
7.888988689596267
 20
-20.67610833333333
 10
7.904098411436784
 20
-20.6912236111111
 10
7.904098411436784
 20
-20.70980277777777
 10
7.904098411436784
 20
-20.7283875
 10
7.888988689596267
 20
-20.74352083333332
 10
7.870403967843534
 20
-20.74352083333332
 10
7.870403967843534
 20
-20.74352083333332
 10
7.126924819958731
 20
-20.74352083333332
 10
7.126924819958731
 20
-20.74352083333332
 10
7.126924819958731
 20
-20.74352083333332
 10
7.127233153284275
 20
-20.72415277777779
 10
7.127233153284275
 20
-20.72415277777779
 10
7.127233153284275
 20
-20.71418194444444
 10
7.126873431071139
 20
-20.70430416666666
 10
7.126547042190496
 20
-20.6944125
 97
        0
 97
        0
 75
     2
 76
     1
 98
        0
  0
SPLINE
  5
56
330
1F
100
AcDbEntity
  8
Layer 1
370
     0
100
AcDbSpline
210
0.0
220
0.0
230
1.0
 70
    11
 71
     3
 72
    35
 73
    31
 74
     0
 42
0.0000000001
 43
0.0000000001
 12
1.0
 22
0.0
 32
0.0
 13
1.0
 23
0.0
 33
0.0
 40
0.0
 40
0.0
 40
0.0
 40
0.0
 40
1.0
 40
1.0
 40
1.0
 40
2.0
 40
2.0
 40
2.0
 40
3.0
 40
3.0
 40
3.0
 40
4.0
 40
4.0
 40
4.0
 40
5.0
 40
5.0
 40
5.0
 40
6.0
 40
6.0
 40
6.0
 40
7.0
 40
7.0
 40
7.0
 40
8.0
 40
8.0
 40
8.0
 40
9.0
 40
9.0
 40
9.0
 40
10.0
 40
10.0
 40
10.0
 40
10.0
 10
8.632383115260987
 20
-13.36340138888889
 30
0.0
 10
7.957041666666655
 20
-12.7109
 30
0.0
 10
7.059133155004625
 20
-12.35154722222223
 30
0.0
 10
6.104044290243311
 20
-12.35154722222223
 30
0.0
 10
5.148970703259389
 20
-12.35154722222223
 30
0.0
 10
4.251052670387152
 20
-12.7109
 30
0.0
 10
3.57571102078105
 20
-13.36340138888889
 30
0.0
 10
2.900372148952657
 20
-14.01590138888889
 30
0.0
 10
2.528444444444441
 20
-14.88344722222222
 30
0.0
 10
2.528444444444441
 20
-15.80622777777777
 30
0.0
 10
2.528444444444441
 20
-15.80622777777777
 30
0.0
 10
2.528444444444441
 20
-20.89686666666666
 30
0.0
 10
2.528444444444441
 20
-20.89686666666666
 30
0.0
 10
2.528444444444441
 20
-21.81965555555555
 30
0.0
 10
2.900372148952657
 20
-22.68720138888888
 30
0.0
 10
3.57571102078105
 20
-23.33968888888888
 30
0.0
 10
4.251052670387152
 20
-23.99219027777778
 30
0.0
 10
5.148979036592512
 20
-24.35154722222223
 30
0.0
 10
6.104054012465288
 20
-24.35154722222223
 30
0.0
 10
7.059133155004625
 20
-24.35154722222223
 30
0.0
 10
7.957041666666655
 20
-23.99219027777778
 30
0.0
 10
8.632383115260987
 20
-23.33968888888888
 30
0.0
 10
9.307730320422504
 20
-22.68720138888888
 30
0.0
 10
9.679655311026888
 20
-21.81965555555555
 30
0.0
 10
9.679655311026888
 20
-20.89686666666666
 30
0.0
 10
9.679655311026888
 20
-20.89686666666666
 30
0.0
 10
9.679655311026888
 20
-15.80622777777777
 30
0.0
 10
9.679655311026888
 20
-15.80622777777777
 30
0.0
 10
9.679655311026888
 20
-14.88344722222222
 30
0.0
 10
9.307730320422504
 20
-14.01589305555555
 30
0.0
 10
8.632383115260987
 20
-13.36340138888889
 30
0.0
  0
SPLINE
  5
57
330
1F
100
AcDbEntity
  8
Layer 1
370
     0
100
AcDbSpline
210
0.0
220
0.0
230
1.0
 70
    11
 71
     3
 72
    26
 73
    22
 74
     0
 42
0.0000000001
 43
0.0000000001
 12
1.0
 22
0.0
 32
0.0
 13
1.0
 23
0.0
 33
0.0
 40
0.0
 40
0.0
 40
0.0
 40
0.0
 40
1.0
 40
1.0
 40
1.0
 40
2.0
 40
2.0
 40
2.0
 40
3.0
 40
3.0
 40
3.0
 40
4.0
 40
4.0
 40
4.0
 40
5.0
 40
5.0
 40
5.0
 40
6.0
 40
6.0
 40
6.0
 40
7.0
 40
7.0
 40
7.0
 40
7.0
 10
9.531070592558232
 20
-20.89686666666666
 30
0.0
 10
9.531070592558232
 20
-22.7226236111111
 30
0.0
 10
7.993713686950691
 20
-24.20798611111111
 30
0.0
 10
6.104054012465288
 20
-24.20798611111111
 30
0.0
 10
6.104054012465288
 20
-24.20798611111111
 30
0.0
 10
6.104044290243311
 20
-24.20798611111111
 30
0.0
 10
6.104044290243311
 20
-24.20798611111111
 30
0.0
 10
4.214375000000006
 20
-24.20798611111111
 30
0.0
 10
2.677027777777779
 20
-22.7226236111111
 30
0.0
 10
2.677027777777779
 20
-20.89686666666666
 30
0.0
 10
2.677027777777779
 20
-20.89686666666666
 30
0.0
 10
2.677027777777779
 20
-15.80622777777777
 30
0.0
 10
2.677027777777779
 20
-15.80622777777777
 30
0.0
 10
2.677027777777779
 20
-13.98046527777778
 30
0.0
 10
4.214384615757909
 20
-12.49510277777777
 30
0.0
 10
6.104054012465288
 20
-12.49510277777777
 30
0.0
 10
7.993713686950691
 20
-12.49510277777777
 30
0.0
 10
9.531070592558232
 20
-13.98046527777778
 30
0.0
 10
9.531070592558232
 20
-15.80622777777777
 30
0.0
 10
9.531070592558232
 20
-15.80622777777777
 30
0.0
 10
9.531070592558232
 20
-20.89686666666666
 30
0.0
 10
9.531070592558232
 20
-20.89686666666666
 30
0.0
  0
HATCH
  5
58
330
1F
100
AcDbEntity
  8
Layer 1
 62
    35
420
 10579544
100
AcDbHatch
 10
0.0
 20
0.0
 30
0.0
210
0.0
220
0.0
230
1.0
  2
SOLID
 70
     1
 71
     0
 91
        2
 92
        1
 93
        1
 72
     4
 94
        3
 73
     0
 74
     1
 95
       35
 96
       31
 40
0.0
 40
0.0
 40
0.0
 40
0.0
 40
1.0
 40
1.0
 40
1.0
 40
2.0
 40
2.0
 40
2.0
 40
3.0
 40
3.0
 40
3.0
 40
4.0
 40
4.0
 40
4.0
 40
5.0
 40
5.0
 40
5.0
 40
6.0
 40
6.0
 40
6.0
 40
7.0
 40
7.0
 40
7.0
 40
8.0
 40
8.0
 40
8.0
 40
9.0
 40
9.0
 40
9.0
 40
10.0
 40
10.0
 40
10.0
 40
10.0
 10
8.632383115260987
 20
-13.36340138888889
 10
7.957041666666655
 20
-12.7109
 10
7.059133155004625
 20
-12.35154722222223
 10
6.104044290243311
 20
-12.35154722222223
 10
5.148970703259389
 20
-12.35154722222223
 10
4.251052670387152
 20
-12.7109
 10
3.57571102078105
 20
-13.36340138888889
 10
2.900372148952657
 20
-14.01590138888889
 10
2.528444444444441
 20
-14.88344722222222
 10
2.528444444444441
 20
-15.80622777777777
 10
2.528444444444441
 20
-15.80622777777777
 10
2.528444444444441
 20
-20.89686666666666
 10
2.528444444444441
 20
-20.89686666666666
 10
2.528444444444441
 20
-21.81965555555555
 10
2.900372148952657
 20
-22.68720138888888
 10
3.57571102078105
 20
-23.33968888888888
 10
4.251052670387152
 20
-23.99219027777778
 10
5.148979036592512
 20
-24.35154722222223
 10
6.104054012465288
 20
-24.35154722222223
 10
7.059133155004625
 20
-24.35154722222223
 10
7.957041666666655
 20
-23.99219027777778
 10
8.632383115260987
 20
-23.33968888888888
 10
9.307730320422504
 20
-22.68720138888888
 10
9.679655311026888
 20
-21.81965555555555
 10
9.679655311026888
 20
-20.89686666666666
 10
9.679655311026888
 20
-20.89686666666666
 10
9.679655311026888
 20
-15.80622777777777
 10
9.679655311026888
 20
-15.80622777777777
 10
9.679655311026888
 20
-14.88344722222222
 10
9.307730320422504
 20
-14.01589305555555
 10
8.632383115260987
 20
-13.36340138888889
 97
        0
 97
        0
 92
        1
 93
        1
 72
     4
 94
        3
 73
     0
 74
     1
 95
       26
 96
       22
 40
0.0
 40
0.0
 40
0.0
 40
0.0
 40
1.0
 40
1.0
 40
1.0
 40
2.0
 40
2.0
 40
2.0
 40
3.0
 40
3.0
 40
3.0
 40
4.0
 40
4.0
 40
4.0
 40
5.0
 40
5.0
 40
5.0
 40
6.0
 40
6.0
 40
6.0
 40
7.0
 40
7.0
 40
7.0
 40
7.0
 10
9.531070592558232
 20
-20.89686666666666
 10
9.531070592558232
 20
-22.7226236111111
 10
7.993713686950691
 20
-24.20798611111111
 10
6.104054012465288
 20
-24.20798611111111
 10
6.104054012465288
 20
-24.20798611111111
 10
6.104044290243311
 20
-24.20798611111111
 10
6.104044290243311
 20
-24.20798611111111
 10
4.214375000000006
 20
-24.20798611111111
 10
2.677027777777779
 20
-22.7226236111111
 10
2.677027777777779
 20
-20.89686666666666
 10
2.677027777777779
 20
-20.89686666666666
 10
2.677027777777779
 20
-15.80622777777777
 10
2.677027777777779
 20
-15.80622777777777
 10
2.677027777777779
 20
-13.98046527777778
 10
4.214384615757909
 20
-12.49510277777777
 10
6.104054012465288
 20
-12.49510277777777
 10
7.993713686950691
 20
-12.49510277777777
 10
9.531070592558232
 20
-13.98046527777778
 10
9.531070592558232
 20
-15.80622777777777
 10
9.531070592558232
 20
-15.80622777777777
 10
9.531070592558232
 20
-20.89686666666666
 10
9.531070592558232
 20
-20.89686666666666
 97
        0
 97
        0
 75
     2
 76
     1
 98
        0
  0
SPLINE
  5
59
330
1F
100
AcDbEntity
  8
Layer 1
370
     0
100
AcDbSpline
210
0.0
220
0.0
230
1.0
 70
    11
 71
     3
 72
    41
 73
    37
 74
     0
 42
0.0000000001
 43
0.0000000001
 12
1.0
 22
0.0
 32
0.0
 13
1.0
 23
0.0
 33
0.0
 40
0.0
 40
0.0
 40
0.0
 40
0.0
 40
1.0
 40
1.0
 40
1.0
 40
2.0
 40
2.0
 40
2.0
 40
3.0
 40
3.0
 40
3.0
 40
4.0
 40
4.0
 40
4.0
 40
5.0
 40
5.0
 40
5.0
 40
6.0
 40
6.0
 40
6.0
 40
7.0
 40
7.0
 40
7.0
 40
8.0
 40
8.0
 40
8.0
 40
9.0
 40
9.0
 40
9.0
 40
10.0
 40
10.0
 40
10.0
 40
11.0
 40
11.0
 40
11.0
 40
12.0
 40
12.0
 40
12.0
 40
12.0
 10
6.247909564386746
 20
-16.68984166666667
 30
0.0
 10
6.18075678830539
 20
-16.65972222222222
 30
0.0
 10
6.123702623080034
 20
-16.61373611111112
 30
0.0
 10
6.064313735691434
 20
-16.57146111111111
 30
0.0
 10
6.017851236865176
 20
-16.5383875
 30
0.0
 10
5.97946929339034
 20
-16.49607499999999
 30
0.0
 10
5.936241516704588
 20
-16.45930833333333
 30
0.0
 10
5.929781794645552
 20
-16.45380833333332
 30
0.0
 10
5.922344294833439
 20
-16.44325833333333
 30
0.0
 10
5.91579568388776
 20
-16.44580277777777
 30
0.0
 10
5.909591517377824
 20
-16.44821666666667
 30
0.0
 10
5.91186929509806
 20
-16.46110972222221
 30
0.0
 10
5.911313739556539
 20
-16.4694
 30
0.0
 10
5.909488739602643
 20
-16.49694305555555
 30
0.0
 10
5.905283184153328
 20
-16.52417638888889
 30
0.0
 10
5.901510962026401
 20
-16.55318472222223
 30
0.0
 10
5.902122073122073
 20
-16.55916944444444
 30
0.0
 10
5.905283184153328
 20
-16.56609305555556
 30
0.0
 10
5.908652777777775
 20
-16.57282361111111
 30
0.0
 10
5.937502627783841
 20
-16.63033194444444
 30
0.0
 10
5.966058182618022
 20
-16.68801666666666
 30
0.0
 10
6.004695681641957
 20
-16.73990277777778
 30
0.0
 10
6.037798458583489
 20
-16.78434861111111
 30
0.0
 10
6.076917902039693
 20
-16.82316944444445
 30
0.0
 10
6.117545678791126
 20
-16.86057083333334
 30
0.0
 10
6.132259567308311
 20
-16.87412361111111
 30
0.0
 10
6.147342900260607
 20
-16.88728333333333
 30
0.0
 10
6.161944444444442
 20
-16.90094166666666
 30
0.0
 10
6.168526233058805
 20
-16.90710833333333
 30
0.0
 10
6.172452621848505
 20
-16.90812222222222
 30
0.0
 10
6.177167899507165
 20
-16.89856527777778
 30
0.0
 10
6.207380398743933
 20
-16.83738888888888
 30
0.0
 10
6.232909564765678
 20
-16.77434583333332
 30
0.0
 10
6.25387900868039
 20
-16.70944861111111
 30
0.0
 10
6.256298453063714
 20
-16.70196527777778
 30
0.0
 10
6.259155397435986
 20
-16.6948875
 30
0.0
 10
6.247909564386746
 20
-16.68984166666667
 30
0.0
  0
HATCH
  5
5A
330
1F
100
AcDbEntity
  8
Layer 1
 62
    35
420
 10579544
100
AcDbHatch
 10
0.0
 20
0.0
 30
0.0
210
0.0
220
0.0
230
1.0
  2
SOLID
 70
     1
 71
     0
 91
        1
 92
        1
 93
        1
 72
     4
 94
        3
 73
     0
 74
     1
 95
       41
 96
       37
 40
0.0
 40
0.0
 40
0.0
 40
0.0
 40
1.0
 40
1.0
 40
1.0
 40
2.0
 40
2.0
 40
2.0
 40
3.0
 40
3.0
 40
3.0
 40
4.0
 40
4.0
 40
4.0
 40
5.0
 40
5.0
 40
5.0
 40
6.0
 40
6.0
 40
6.0
 40
7.0
 40
7.0
 40
7.0
 40
8.0
 40
8.0
 40
8.0
 40
9.0
 40
9.0
 40
9.0
 40
10.0
 40
10.0
 40
10.0
 40
11.0
 40
11.0
 40
11.0
 40
12.0
 40
12.0
 40
12.0
 40
12.0
 10
6.247909564386746
 20
-16.68984166666667
 10
6.18075678830539
 20
-16.65972222222222
 10
6.123702623080034
 20
-16.61373611111112
 10
6.064313735691434
 20
-16.57146111111111
 10
6.017851236865176
 20
-16.5383875
 10
5.97946929339034
 20
-16.49607499999999
 10
5.936241516704588
 20
-16.45930833333333
 10
5.929781794645552
 20
-16.45380833333332
 10
5.922344294833439
 20
-16.44325833333333
 10
5.91579568388776
 20
-16.44580277777777
 10
5.909591517377824
 20
-16.44821666666667
 10
5.91186929509806
 20
-16.46110972222221
 10
5.911313739556539
 20
-16.4694
 10
5.909488739602643
 20
-16.49694305555555
 10
5.905283184153328
 20
-16.52417638888889
 10
5.901510962026401
 20
-16.55318472222223
 10
5.902122073122073
 20
-16.55916944444444
 10
5.905283184153328
 20
-16.56609305555556
 10
5.908652777777775
 20
-16.57282361111111
 10
5.937502627783841
 20
-16.63033194444444
 10
5.966058182618022
 20
-16.68801666666666
 10
6.004695681641957
 20
-16.73990277777778
 10
6.037798458583489
 20
-16.78434861111111
 10
6.076917902039693
 20
-16.82316944444445
 10
6.117545678791126
 20
-16.86057083333334
 10
6.132259567308311
 20
-16.87412361111111
 10
6.147342900260607
 20
-16.88728333333333
 10
6.161944444444442
 20
-16.90094166666666
 10
6.168526233058805
 20
-16.90710833333333
 10
6.172452621848505
 20
-16.90812222222222
 10
6.177167899507165
 20
-16.89856527777778
 10
6.207380398743933
 20
-16.83738888888888
 10
6.232909564765678
 20
-16.77434583333332
 10
6.25387900868039
 20
-16.70944861111111
 10
6.256298453063714
 20
-16.70196527777778
 10
6.259155397435986
 20
-16.6948875
 10
6.247909564386746
 20
-16.68984166666667
 97
        0
 97
        0
 75
     2
 76
     1
 98
        0
  0
ENDSEC
  0
SECTION
  2
OBJECTS
  0
DICTIONARY
  5
C
330
0
100
AcDbDictionary
281
     1
  3
ACAD_GROUP
350
D
  3
ACAD_LAYOUT
350
1A
  3
ACAD_MATERIAL
350
3B
  3
ACAD_MLEADERSTYLE
350
5C
  3
ACAD_MLINESTYLE
350
17
  3
ACAD_PLOTSETTINGS
350
19
  3
ACAD_PLOTSTYLENAME
350
E
  3
ACAD_TABLESTYLE
350
5B
  3
ACAD_VISUALSTYLE
350
2A
  0
SUN
  5
3F
330
29
100
AcDbSun
 90
        1
290
     0
 63
     7
421
 16777215
 40
1.0
291
     1
 91
  2455826
 92
 54000000
292
     0
 70
     2
 71
   256
280
     1
  0
DICTIONARY
  5
D
102
{ACAD_REACTORS
330
C
102
}
330
C
100
AcDbDictionary
281
     1
  0
DICTIONARY
  5
1A
102
{ACAD_REACTORS
330
C
102
}
330
C
100
AcDbDictionary
281
     1
  3
Layout1
350
1E
  3
Layout2
350
26
  3
Model
350
22
  0
DICTIONARY
  5
3B
102
{ACAD_REACTORS
330
C
102
}
330
C
100
AcDbDictionary
281
     1
  3
ByBlock
350
3D
  3
ByLayer
350
3C
  3
Global
350
3E
  0
DICTIONARY
  5
5C
102
{ACAD_REACTORS
330
C
102
}
330
C
100
AcDbDictionary
281
     1
  0
DICTIONARY
  5
17
102
{ACAD_REACTORS
330
C
102
}
330
C
100
AcDbDictionary
281
     1
  3
Standard
350
18
  0
DICTIONARY
  5
19
102
{ACAD_REACTORS
330
C
102
}
330
C
100
AcDbDictionary
281
     1
  0
ACDBDICTIONARYWDFLT
  5
E
102
{ACAD_REACTORS
330
C
102
}
330
C
100
AcDbDictionary
281
     1
  3
Normal
350
F
100
AcDbDictionaryWithDefault
340
F
  0
DICTIONARY
  5
5B
102
{ACAD_REACTORS
330
C
102
}
330
C
100
AcDbDictionary
281
     1
  0
DICTIONARY
  5
2A
102
{ACAD_REACTORS
330
C
102
}
330
C
100
AcDbDictionary
281
     1
  3
2dWireframe
350
2F
  3
3D Hidden
350
31
  3
3dWireframe
350
30
  3
Basic
350
32
  3
Brighten
350
36
  3
ColorChange
350
3A
  3
Conceptual
350
34
  3
Dim
350
35
  3
Facepattern
350
39
  3
Flat
350
2B
  3
FlatWithEdges
350
2C
  3
Gouraud
350
2D
  3
GouraudWithEdges
350
2E
  3
Linepattern
350
38
  3
Realistic
350
33
  3
Thicken
350
37
  0
LAYOUT
  5
1E
102
{ACAD_REACTORS
330
1A
102
}
330
1A
100
AcDbPlotSettings
  1

  2
none_device
  4

  6

 40
0.0
 41
0.0
 42
0.0
 43
0.0
 44
0.0
 45
0.0
 46
0.0
 47
0.0
 48
0.0
 49
0.0
140
0.0
141
0.0
142
1.0
143
1.0
 70
   688
 72
     0
 73
     0
 74
     5
  7

 75
    16
 76
     0
 77
     2
 78
   300
147
1.0
148
0.0
149
0.0
100
AcDbLayout
  1
Layout1
 70
     1
 71
     1
 10
0.0
 20
0.0
 11
12.0
 21
9.0
 12
0.0
 22
0.0
 32
0.0
 14
1.000000000000000E+20
 24
1.000000000000000E+20
 34
1.000000000000000E+20
 15
-1.000000000000000E+20
 25
-1.000000000000000E+20
 35
-1.000000000000000E+20
146
0.0
 13
0.0
 23
0.0
 33
0.0
 16
1.0
 26
0.0
 36
0.0
 17
0.0
 27
1.0
 37
0.0
 76
     0
330
1B
  0
LAYOUT
  5
26
102
{ACAD_REACTORS
330
1A
102
}
330
1A
100
AcDbPlotSettings
  1

  2
none_device
  4

  6

 40
0.0
 41
0.0
 42
0.0
 43
0.0
 44
0.0
 45
0.0
 46
0.0
 47
0.0
 48
0.0
 49
0.0
140
0.0
141
0.0
142
1.0
143
1.0
 70
   688
 72
     0
 73
     0
 74
     5
  7

 75
    16
 76
     0
 77
     2
 78
   300
147
1.0
148
0.0
149
0.0
100
AcDbLayout
  1
Layout2
 70
     1
 71
     2
 10
0.0
 20
0.0
 11
0.0
 21
0.0
 12
0.0
 22
0.0
 32
0.0
 14
0.0
 24
0.0
 34
0.0
 15
0.0
 25
0.0
 35
0.0
146
0.0
 13
0.0
 23
0.0
 33
0.0
 16
1.0
 26
0.0
 36
0.0
 17
0.0
 27
1.0
 37
0.0
 76
     0
330
23
  0
LAYOUT
  5
22
102
{ACAD_REACTORS
330
1A
102
}
330
1A
100
AcDbPlotSettings
  1

  2
none_device
  4

  6

 40
0.0
 41
0.0
 42
0.0
 43
0.0
 44
0.0
 45
0.0
 46
0.0
 47
0.0
 48
0.0
 49
0.0
140
0.0
141
0.0
142
1.0
143
1.0
 70
  1712
 72
     0
 73
     0
 74
     0
  7

 75
     0
 76
     0
 77
     2
 78
   300
147
1.0
148
0.0
149
0.0
100
AcDbLayout
  1
Model
 70
     1
 71
     0
 10
0.0
 20
0.0
 11
12.0
 21
9.0
 12
0.0
 22
0.0
 32
0.0
 14
1.000000000000000E+20
 24
1.000000000000000E+20
 34
1.000000000000000E+20
 15
-1.000000000000000E+20
 25
-1.000000000000000E+20
 35
-1.000000000000000E+20
146
0.0
 13
0.0
 23
0.0
 33
0.0
 16
1.0
 26
0.0
 36
0.0
 17
0.0
 27
1.0
 37
0.0
 76
     0
330
1F
331
29
  0
MATERIAL
  5
3D
102
{ACAD_REACTORS
330
3B
102
}
330
3B
100
AcDbMaterial
  1
ByBlock
 72
     1
 94
      127
  0
MATERIAL
  5
3C
102
{ACAD_REACTORS
330
3B
102
}
330
3B
100
AcDbMaterial
  1
ByLayer
 72
     1
 94
      127
  0
MATERIAL
  5
3E
102
{ACAD_REACTORS
330
3B
102
}
330
3B
100
AcDbMaterial
  1
Global
 72
     1
 94
      127
  0
MLINESTYLE
  5
18
102
{ACAD_REACTORS
330
17
102
}
330
17
100
AcDbMlineStyle
  2
Standard
 70
     0
  3

 62
   256
 51
90.0
 52
90.0
 71
     2
 49
0.5
 62
   256
  6
BYLAYER
 49
-0.5
 62
   256
  6
BYLAYER
  0
ACDBPLACEHOLDER
  5
F
102
{ACAD_REACTORS
330
E
102
}
330
E
  0
VISUALSTYLE
  5
2F
102
{ACAD_REACTORS
330
2A
102
}
330
2A
100
AcDbVisualStyle
  2
2dWireframe
 70
     4
177
     2
291
     0
 71
     0
176
     1
 72
     2
176
     1
 73
     0
176
     1
 90
        0
176
     1
 40
-0.6
176
     1
 41
-30.0
176
     1
 62
     5
 63
     7
421
 16777215
176
     1
 74
     1
176
     1
 91
        4
176
     1
 64
     7
176
     1
 65
   257
176
     1
 75
     1
176
     1
175
     1
176
     1
 42
1.0
176
     1
 92
        0
176
     1
 66
   257
176
     1
 43
1.0
176
     1
 76
     1
176
     1
 77
     6
176
     1
 78
     2
176
     1
 67
     7
176
     1
 79
     5
176
     1
170
     0
176
     1
171
     0
176
     1
290
     0
176
     1
 93
        1
176
     1
 44
0.0
176
     1
173
     0
176
     1
  0
VISUALSTYLE
  5
31
102
{ACAD_REACTORS
330
2A
102
}
330
2A
100
AcDbVisualStyle
  2
3D Hidden
 70
     6
177
     2
291
     0
 71
     1
176
     1
 72
     2
176
     1
 73
     2
176
     1
 90
        0
176
     1
 40
-0.6
176
     1
 41
-30.0
176
     1
 62
     5
 63
     7
421
 16777215
176
     1
 74
     2
176
     1
 91
        2
176
     1
 64
     7
176
     1
 65
   257
176
     1
 75
     2
176
     1
175
     1
176
     1
 42
40.0
176
     1
 92
        0
176
     1
 66
   257
176
     1
 43
1.0
176
     1
 76
     1
176
     1
 77
     6
176
     1
 78
     2
176
     1
 67
     7
176
     1
 79
     3
176
     1
170
     0
176
     1
171
     0
176
     1
290
     0
176
     1
 93
        1
176
     1
 44
0.0
176
     1
173
     0
176
     1
  0
VISUALSTYLE
  5
30
102
{ACAD_REACTORS
330
2A
102
}
330
2A
100
AcDbVisualStyle
  2
3dWireframe
 70
     5
177
     2
291
     0
 71
     0
176
     1
 72
     2
176
     1
 73
     0
176
     1
 90
        0
176
     1
 40
-0.6
176
     1
 41
-30.0
176
     1
 62
     5
 63
     7
421
 16777215
176
     1
 74
     1
176
     1
 91
        4
176
     1
 64
     7
176
     1
 65
   257
176
     1
 75
     1
176
     1
175
     1
176
     1
 42
1.0
176
     1
 92
        0
176
     1
 66
   257
176
     1
 43
1.0
176
     1
 76
     1
176
     1
 77
     6
176
     1
 78
     2
176
     1
 67
     7
176
     1
 79
     5
176
     1
170
     0
176
     1
171
     0
176
     1
290
     0
176
     1
 93
        1
176
     1
 44
0.0
176
     1
173
     0
176
     1
  0
VISUALSTYLE
  5
32
102
{ACAD_REACTORS
330
2A
102
}
330
2A
100
AcDbVisualStyle
  2
Basic
 70
     7
177
     2
291
     1
 71
     1
176
     1
 72
     0
176
     1
 73
     1
176
     1
 90
        0
176
     1
 40
-0.6
176
     1
 41
-30.0
176
     1
 62
     5
 63
     7
421
 16777215
176
     1
 74
     0
176
     1
 91
        4
176
     1
 64
     7
176
     1
 65
   257
176
     1
 75
     1
176
     1
175
     1
176
     1
 42
1.0
176
     1
 92
        8
176
     1
 66
     7
176
     1
 43
1.0
176
     1
 76
     1
176
     1
 77
     6
176
     1
 78
     2
176
     1
 67
     7
176
     1
 79
     5
176
     1
170
     0
176
     1
171
     0
176
     1
290
     0
176
     1
 93
        1
176
     1
 44
0.0
176
     1
173
     0
176
     1
  0
VISUALSTYLE
  5
36
102
{ACAD_REACTORS
330
2A
102
}
330
2A
100
AcDbVisualStyle
  2
Brighten
 70
    12
177
     2
291
     1
 71
     2
176
     1
 72
     2
176
     1
 73
     0
176
     1
 90
        0
176
     1
 40
-0.6
176
     1
 41
-30.0
176
     1
 62
     5
 63
     7
421
 16777215
176
     1
 74
     1
176
     1
 91
        4
176
     1
 64
     7
176
     1
 65
   257
176
     1
 75
     1
176
     1
175
     1
176
     1
 42
1.0
176
     1
 92
        8
176
     1
 66
     7
176
     1
 43
1.0
176
     1
 76
     1
176
     1
 77
     6
176
     1
 78
     2
176
     1
 67
     7
176
     1
 79
     5
176
     1
170
     0
176
     1
171
     0
176
     1
290
     0
176
     1
 93
        1
176
     1
 44
50.0
176
     1
173
     0
176
     1
  0
VISUALSTYLE
  5
3A
102
{ACAD_REACTORS
330
2A
102
}
330
2A
100
AcDbVisualStyle
  2
ColorChange
 70
    16
177
     2
291
     1
 71
     2
176
     1
 72
     2
176
     1
 73
     3
176
     1
 90
        0
176
     1
 40
-0.6
176
     1
 41
-30.0
176
     1
 62
     5
 63
     8
421
  8421504
176
     1
 74
     1
176
     1
 91
        4
176
     1
 64
     7
176
     1
 65
   257
176
     1
 75
     1
176
     1
175
     1
176
     1
 42
1.0
176
     1
 92
        8
176
     1
 66
     8
424
  8421504
176
     1
 43
1.0
176
     1
 76
     1
176
     1
 77
     6
176
     1
 78
     2
176
     1
 67
     7
176
     1
 79
     5
176
     1
170
     0
176
     1
171
     0
176
     1
290
     0
176
     1
 93
        1
176
     1
 44
0.0
176
     1
173
     0
176
     1
  0
VISUALSTYLE
  5
34
102
{ACAD_REACTORS
330
2A
102
}
330
2A
100
AcDbVisualStyle
  2
Conceptual
 70
     9
177
     2
291
     0
 71
     3
176
     1
 72
     2
176
     1
 73
     0
176
     1
 90
        0
176
     1
 40
-0.6
176
     1
 41
-30.0
176
     1
 62
     5
 63
     7
421
 16777215
176
     1
 74
     2
176
     1
 91
        2
176
     1
 64
     7
176
     1
 65
   257
176
     1
 75
     1
176
     1
175
     1
176
     1
 42
40.0
176
     1
 92
        8
176
     1
 66
     7
176
     1
 43
1.0
176
     1
 76
     1
176
     1
 77
     6
176
     1
 78
     2
176
     1
 67
     7
176
     1
 79
     3
176
     1
170
     0
176
     1
171
     0
176
     1
290
     0
176
     1
 93
        1
176
     1
 44
0.0
176
     1
173
     0
176
     1
  0
VISUALSTYLE
  5
35
102
{ACAD_REACTORS
330
2A
102
}
330
2A
100
AcDbVisualStyle
  2
Dim
 70
    11
177
     2
291
     1
 71
     2
176
     1
 72
     2
176
     1
 73
     0
176
     1
 90
        0
176
     1
 40
-0.6
176
     1
 41
-30.0
176
     1
 62
     5
 63
     7
421
 16777215
176
     1
 74
     1
176
     1
 91
        4
176
     1
 64
     7
176
     1
 65
   257
176
     1
 75
     1
176
     1
175
     1
176
     1
 42
1.0
176
     1
 92
        8
176
     1
 66
     7
176
     1
 43
1.0
176
     1
 76
     1
176
     1
 77
     6
176
     1
 78
     2
176
     1
 67
     7
176
     1
 79
     5
176
     1
170
     0
176
     1
171
     0
176
     1
290
     0
176
     1
 93
        1
176
     1
 44
-50.0
176
     1
173
     0
176
     1
  0
VISUALSTYLE
  5
39
102
{ACAD_REACTORS
330
2A
102
}
330
2A
100
AcDbVisualStyle
  2
Facepattern
 70
    15
177
     2
291
     1
 71
     2
176
     1
 72
     2
176
     1
 73
     0
176
     1
 90
        0
176
     1
 40
-0.6
176
     1
 41
-30.0
176
     1
 62
     5
 63
     7
421
 16777215
176
     1
 74
     1
176
     1
 91
        4
176
     1
 64
     7
176
     1
 65
   257
176
     1
 75
     1
176
     1
175
     1
176
     1
 42
1.0
176
     1
 92
        8
176
     1
 66
     7
176
     1
 43
1.0
176
     1
 76
     1
176
     1
 77
     6
176
     1
 78
     2
176
     1
 67
     7
176
     1
 79
     5
176
     1
170
     0
176
     1
171
     0
176
     1
290
     0
176
     1
 93
        1
176
     1
 44
0.0
176
     1
173
     0
176
     1
  0
VISUALSTYLE
  5
2B
102
{ACAD_REACTORS
330
2A
102
}
330
2A
100
AcDbVisualStyle
  2
Flat
 70
     0
177
     2
291
     1
 71
     2
176
     1
 72
     1
176
     1
 73
     1
176
     1
 90
        2
176
     1
 40
-0.6
176
     1
 41
30.0
176
     1
 62
     5
 63
     7
421
 16777215
176
     1
 74
     0
176
     1
 91
        4
176
     1
 64
     7
176
     1
 65
   257
176
     1
 75
     1
176
     1
175
     1
176
     1
 42
1.0
176
     1
 92
        8
176
     1
 66
     7
176
     1
 43
1.0
176
     1
 76
     1
176
     1
 77
     6
176
     1
 78
     2
176
     1
 67
     7
176
     1
 79
     5
176
     1
170
     0
176
     1
171
     0
176
     1
290
     0
176
     1
 93
       13
176
     1
 44
0.0
176
     1
173
     0
176
     1
  0
VISUALSTYLE
  5
2C
102
{ACAD_REACTORS
330
2A
102
}
330
2A
100
AcDbVisualStyle
  2
FlatWithEdges
 70
     1
177
     2
291
     1
 71
     2
176
     1
 72
     1
176
     1
 73
     1
176
     1
 90
        2
176
     1
 40
-0.6
176
     1
 41
30.0
176
     1
 62
     5
 63
     7
421
 16777215
176
     1
 74
     1
176
     1
 91
        4
176
     1
 64
     7
176
     1
 65
   257
176
     1
 75
     1
176
     1
175
     1
176
     1
 42
1.0
176
     1
 92
        0
176
     1
 66
   257
176
     1
 43
1.0
176
     1
 76
     1
176
     1
 77
     6
176
     1
 78
     2
176
     1
 67
     7
176
     1
 79
     5
176
     1
170
     0
176
     1
171
     0
176
     1
290
     0
176
     1
 93
       13
176
     1
 44
0.0
176
     1
173
     0
176
     1
  0
VISUALSTYLE
  5
2D
102
{ACAD_REACTORS
330
2A
102
}
330
2A
100
AcDbVisualStyle
  2
Gouraud
 70
     2
177
     2
291
     1
 71
     2
176
     1
 72
     2
176
     1
 73
     1
176
     1
 90
        2
176
     1
 40
-0.6
176
     1
 41
30.0
176
     1
 62
     5
 63
     7
421
 16777215
176
     1
 74
     0
176
     1
 91
        4
176
     1
 64
     7
176
     1
 65
   257
176
     1
 75
     1
176
     1
175
     1
176
     1
 42
1.0
176
     1
 92
        0
176
     1
 66
     7
176
     1
 43
1.0
176
     1
 76
     1
176
     1
 77
     6
176
     1
 78
     2
176
     1
 67
     7
176
     1
 79
     5
176
     1
170
     0
176
     1
171
     0
176
     1
290
     0
176
     1
 93
       13
176
     1
 44
0.0
176
     1
173
     0
176
     1
  0
VISUALSTYLE
  5
2E
102
{ACAD_REACTORS
330
2A
102
}
330
2A
100
AcDbVisualStyle
  2
GouraudWithEdges
 70
     3
177
     2
291
     1
 71
     2
176
     1
 72
     2
176
     1
 73
     1
176
     1
 90
        2
176
     1
 40
-0.6
176
     1
 41
30.0
176
     1
 62
     5
 63
     7
421
 16777215
176
     1
 74
     1
176
     1
 91
        4
176
     1
 64
     7
176
     1
 65
   257
176
     1
 75
     1
176
     1
175
     1
176
     1
 42
1.0
176
     1
 92
        0
176
     1
 66
   257
176
     1
 43
1.0
176
     1
 76
     1
176
     1
 77
     6
176
     1
 78
     2
176
     1
 67
     7
176
     1
 79
     5
176
     1
170
     0
176
     1
171
     0
176
     1
290
     0
176
     1
 93
       13
176
     1
 44
0.0
176
     1
173
     0
176
     1
  0
VISUALSTYLE
  5
38
102
{ACAD_REACTORS
330
2A
102
}
330
2A
100
AcDbVisualStyle
  2
Linepattern
 70
    14
177
     2
291
     1
 71
     2
176
     1
 72
     2
176
     1
 73
     0
176
     1
 90
        0
176
     1
 40
-0.6
176
     1
 41
-30.0
176
     1
 62
     5
 63
     7
421
 16777215
176
     1
 74
     1
176
     1
 91
        4
176
     1
 64
     7
176
     1
 65
   257
176
     1
 75
     7
176
     1
175
     7
176
     1
 42
1.0
176
     1
 92
        8
176
     1
 66
     7
176
     1
 43
1.0
176
     1
 76
     1
176
     1
 77
     6
176
     1
 78
     2
176
     1
 67
     7
176
     1
 79
     5
176
     1
170
     0
176
     1
171
     0
176
     1
290
     0
176
     1
 93
        1
176
     1
 44
0.0
176
     1
173
     0
176
     1
  0
VISUALSTYLE
  5
33
102
{ACAD_REACTORS
330
2A
102
}
330
2A
100
AcDbVisualStyle
  2
Realistic
 70
     8
177
     2
291
     0
 71
     2
176
     1
 72
     2
176
     1
 73
     0
176
     1
 90
        0
176
     1
 40
-0.6
176
     1
 41
-30.0
176
     1
 62
     5
 63
     7
421
 16777215
176
     1
 74
     1
176
     1
 91
        0
176
     1
 64
     7
176
     1
 65
   257
176
     1
 75
     1
176
     1
175
     1
176
     1
 42
1.0
176
     1
 92
        8
176
     1
 66
     8
424
  7895160
176
     1
 43
1.0
176
     1
 76
     1
176
     1
 77
     6
176
     1
 78
     2
176
     1
 67
     7
176
     1
 79
     5
176
     1
170
     0
176
     1
171
     0
176
     1
290
     0
176
     1
 93
       13
176
     1
 44
0.0
176
     1
173
     0
176
     1
  0
VISUALSTYLE
  5
37
102
{ACAD_REACTORS
330
2A
102
}
330
2A
100
AcDbVisualStyle
  2
Thicken
 70
    13
177
     2
291
     1
 71
     2
176
     1
 72
     2
176
     1
 73
     0
176
     1
 90
        0
176
     1
 40
-0.6
176
     1
 41
-30.0
176
     1
 62
     5
 63
     7
421
 16777215
176
     1
 74
     1
176
     1
 91
        4
176
     1
 64
     7
176
     1
 65
   257
176
     1
 75
     1
176
     1
175
     1
176
     1
 42
1.0
176
     1
 92
       12
176
     1
 66
     7
176
     1
 43
1.0
176
     1
 76
     1
176
     1
 77
     6
176
     1
 78
     2
176
     1
 67
     7
176
     1
 79
     5
176
     1
170
     0
176
     1
171
     0
176
     1
290
     0
176
     1
 93
        1
176
     1
 44
0.0
176
     1
173
     0
176
     1
  0
ENDSEC
  0
EOF
