  0
SECTION
  2
HEADER
  9
$ACADVER
  1
AC1024
  9
$ACADMAINTVER
 70
     6
  9
$DWGCODEPAGE
  3
ANSI_1251
  9
$INSBASE
 10
0.0
 20
0.0
 30
0.0
  9
$EXTMIN
 10
1.000000000000000E+20
 20
1.000000000000000E+20
 30
1.000000000000000E+20
  9
$EXTMAX
 10
-1.000000000000000E+20
 20
-1.000000000000000E+20
 30
-1.000000000000000E+20
  9
$LIMMIN
 10
0.0
 20
0.0
  9
$LIMMAX
 10
12.0
 20
9.0
  9
$ORTHOMODE
 70
     0
  9
$REGENMODE
 70
     1
  9
$FILLMODE
 70
     1
  9
$QTEXTMODE
 70
     0
  9
$MIRRTEXT
 70
     1
  9
$LTSCALE
 40
1.0
  9
$ATTMODE
 70
     1
  9
$TEXTSIZE
 40
0.2
  9
$TRACEWID
 40
0.05
  9
$TEXTSTYLE
  7
Standard
  9
$CLAYER
  8
0
  9
$CELTYPE
  6
ByLayer
  9
$CECOLOR
 62
   256
  9
$CELTSCALE
 40
1.0
  9
$DISPSILH
 70
     0
  9
$DIMSCALE
 40
1.0
  9
$DIMASZ
 40
0.18
  9
$DIMEXO
 40
0.0625
  9
$DIMDLI
 40
0.38
  9
$DIMRND
 40
0.0
  9
$DIMDLE
 40
0.0
  9
$DIMEXE
 40
0.18
  9
$DIMTP
 40
0.0
  9
$DIMTM
 40
0.0
  9
$DIMTXT
 40
0.18
  9
$DIMCEN
 40
0.09
  9
$DIMTSZ
 40
0.0
  9
$DIMTOL
 70
     0
  9
$DIMLIM
 70
     0
  9
$DIMTIH
 70
     1
  9
$DIMTOH
 70
     1
  9
$DIMSE1
 70
     0
  9
$DIMSE2
 70
     0
  9
$DIMTAD
 70
     0
  9
$DIMZIN
 70
     0
  9
$DIMBLK
  1

  9
$DIMASO
 70
     1
  9
$DIMSHO
 70
     1
  9
$DIMPOST
  1

  9
$DIMAPOST
  1

  9
$DIMALT
 70
     0
  9
$DIMALTD
 70
     2
  9
$DIMALTF
 40
25.4
  9
$DIMLFAC
 40
1.0
  9
$DIMTOFL
 70
     0
  9
$DIMTVP
 40
0.0
  9
$DIMTIX
 70
     0
  9
$DIMSOXD
 70
     0
  9
$DIMSAH
 70
     0
  9
$DIMBLK1
  1

  9
$DIMBLK2
  1

  9
$DIMSTYLE
  2
Standard
  9
$DIMCLRD
 70
     0
  9
$DIMCLRE
 70
     0
  9
$DIMCLRT
 70
     0
  9
$DIMTFAC
 40
1.0
  9
$DIMGAP
 40
0.09
  9
$DIMJUST
 70
     0
  9
$DIMSD1
 70
     0
  9
$DIMSD2
 70
     0
  9
$DIMTOLJ
 70
     1
  9
$DIMTZIN
 70
     0
  9
$DIMALTZ
 70
     0
  9
$DIMALTTZ
 70
     0
  9
$DIMUPT
 70
     0
  9
$DIMDEC
 70
     4
  9
$DIMTDEC
 70
     4
  9
$DIMALTU
 70
     2
  9
$DIMALTTD
 70
     2
  9
$DIMTXSTY
  7
Standard
  9
$DIMAUNIT
 70
     0
  9
$DIMADEC
 70
     0
  9
$DIMALTRND
 40
0.0
  9
$DIMAZIN
 70
     0
  9
$DIMDSEP
 70
    46
  9
$DIMATFIT
 70
     3
  9
$DIMFRAC
 70
     0
  9
$DIMLDRBLK
  1

  9
$DIMLUNIT
 70
     2
  9
$DIMLWD
 70
    -2
  9
$DIMLWE
 70
    -2
  9
$DIMTMOVE
 70
     0
  9
$DIMFXL
 40
1.0
  9
$DIMFXLON
 70
     0
  9
$DIMJOGANG
 40
0.7853981633974483
  9
$DIMTFILL
 70
     0
  9
$DIMTFILLCLR
 70
     0
  9
$DIMARCSYM
 70
     0
  9
$DIMLTYPE
  6

  9
$DIMLTEX1
  6

  9
$DIMLTEX2
  6

  9
$DIMTXTDIRECTION
 70
     0
  9
$LUNITS
 70
     2
  9
$LUPREC
 70
     4
  9
$SKETCHINC
 40
0.1
  9
$FILLETRAD
 40
0.5
  9
$AUNITS
 70
     0
  9
$AUPREC
 70
     0
  9
$MENU
  1
.
  9
$ELEVATION
 40
0.0
  9
$PELEVATION
 40
0.0
  9
$THICKNESS
 40
0.0
  9
$LIMCHECK
 70
     0
  9
$CHAMFERA
 40
0.5
  9
$CHAMFERB
 40
0.5
  9
$CHAMFERC
 40
1.0
  9
$CHAMFERD
 40
0.0
  9
$SKPOLY
 70
     0
  9
$TDCREATE
 40
2459337.685257917
  9
$TDUCREATE
 40
2459337.560257917
  9
$TDUPDATE
 40
2459337.685258102
  9
$TDUUPDATE
 40
2459337.560258102
  9
$TDINDWG
 40
0.0000000116
  9
$TDUSRTIMER
 40
0.0000000116
  9
$USRTIMER
 70
     1
  9
$ANGBASE
 50
0.0
  9
$ANGDIR
 70
     0
  9
$PDMODE
 70
     0
  9
$PDSIZE
 40
0.0
  9
$PLINEWID
 40
0.0
  9
$SPLFRAME
 70
     0
  9
$SPLINETYPE
 70
     6
  9
$SPLINESEGS
 70
     8
  9
$HANDSEED
  5
59
  9
$SURFTAB1
 70
     6
  9
$SURFTAB2
 70
     6
  9
$SURFTYPE
 70
     6
  9
$SURFU
 70
     6
  9
$SURFV
 70
     6
  9
$UCSBASE
  2

  9
$UCSNAME
  2

  9
$UCSORG
 10
0.0
 20
0.0
 30
0.0
  9
$UCSXDIR
 10
1.0
 20
0.0
 30
0.0
  9
$UCSYDIR
 10
0.0
 20
1.0
 30
0.0
  9
$UCSORTHOREF
  2

  9
$UCSORTHOVIEW
 70
     0
  9
$UCSORGTOP
 10
0.0
 20
0.0
 30
0.0
  9
$UCSORGBOTTOM
 10
0.0
 20
0.0
 30
0.0
  9
$UCSORGLEFT
 10
0.0
 20
0.0
 30
0.0
  9
$UCSORGRIGHT
 10
0.0
 20
0.0
 30
0.0
  9
$UCSORGFRONT
 10
0.0
 20
0.0
 30
0.0
  9
$UCSORGBACK
 10
0.0
 20
0.0
 30
0.0
  9
$PUCSBASE
  2

  9
$PUCSNAME
  2

  9
$PUCSORG
 10
0.0
 20
0.0
 30
0.0
  9
$PUCSXDIR
 10
1.0
 20
0.0
 30
0.0
  9
$PUCSYDIR
 10
0.0
 20
1.0
 30
0.0
  9
$PUCSORTHOREF
  2

  9
$PUCSORTHOVIEW
 70
     0
  9
$PUCSORGTOP
 10
0.0
 20
0.0
 30
0.0
  9
$PUCSORGBOTTOM
 10
0.0
 20
0.0
 30
0.0
  9
$PUCSORGLEFT
 10
0.0
 20
0.0
 30
0.0
  9
$PUCSORGRIGHT
 10
0.0
 20
0.0
 30
0.0
  9
$PUCSORGFRONT
 10
0.0
 20
0.0
 30
0.0
  9
$PUCSORGBACK
 10
0.0
 20
0.0
 30
0.0
  9
$USERI1
 70
     0
  9
$USERI2
 70
     0
  9
$USERI3
 70
     0
  9
$USERI4
 70
     0
  9
$USERI5
 70
     0
  9
$USERR1
 40
0.0
  9
$USERR2
 40
0.0
  9
$USERR3
 40
0.0
  9
$USERR4
 40
0.0
  9
$USERR5
 40
0.0
  9
$WORLDVIEW
 70
     1
  9
$SHADEDGE
 70
     3
  9
$SHADEDIF
 70
    70
  9
$TILEMODE
 70
     1
  9
$MAXACTVP
 70
    64
  9
$PINSBASE
 10
0.0
 20
0.0
 30
0.0
  9
$PLIMCHECK
 70
     0
  9
$PEXTMIN
 10
1.000000000000000E+20
 20
1.000000000000000E+20
 30
1.000000000000000E+20
  9
$PEXTMAX
 10
-1.000000000000000E+20
 20
-1.000000000000000E+20
 30
-1.000000000000000E+20
  9
$PLIMMIN
 10
0.0
 20
0.0
  9
$PLIMMAX
 10
12.0
 20
9.0
  9
$UNITMODE
 70
     0
  9
$VISRETAIN
 70
     1
  9
$PLINEGEN
 70
     0
  9
$PSLTSCALE
 70
     1
  9
$TREEDEPTH
 70
  3020
  9
$CMLSTYLE
  2
Standard
  9
$CMLJUST
 70
     0
  9
$CMLSCALE
 40
1.0
  9
$PROXYGRAPHICS
 70
     1
  9
$MEASUREMENT
 70
     0
  9
$CELWEIGHT
370
    -1
  9
$ENDCAPS
280
     0
  9
$JOINSTYLE
280
     0
  9
$LWDISPLAY
290
     1
  9
$INSUNITS
 70
     1
  9
$HYPERLINKBASE
  1

  9
$STYLESHEET
  1

  9
$XEDIT
290
     1
  9
$CEPSNTYPE
380
     0
  9
$PSTYLEMODE
290
     1
  9
$FINGERPRINTGUID
  2
{6C6C7D90-C294-4813-9E97-B6BB11F1D267}
  9
$VERSIONGUID
  2
{FAEB1C32-E019-11D5-929B-00C0DF256EC4}
  9
$EXTNAMES
290
     1
  9
$PSVPSCALE
 40
0.0
  9
$OLESTARTUP
290
     0
  9
$SORTENTS
280
   127
  9
$INDEXCTL
280
     0
  9
$HIDETEXT
280
     1
  9
$XCLIPFRAME
280
     2
  9
$HALOGAP
280
     0
  9
$OBSCOLOR
 70
   257
  9
$OBSLTYPE
280
     0
  9
$INTERSECTIONDISPLAY
280
     0
  9
$INTERSECTIONCOLOR
 70
   257
  9
$DIMASSOC
280
     2
  9
$PROJECTNAME
  1

  9
$CAMERADISPLAY
290
     0
  9
$LENSLENGTH
 40
50.0
  9
$CAMERAHEIGHT
 40
0.0
  9
$STEPSPERSEC
 40
2.0
  9
$STEPSIZE
 40
6.0
  9
$3DDWFPREC
 40
2.0
  9
$PSOLWIDTH
 40
0.25
  9
$PSOLHEIGHT
 40
4.0
  9
$LOFTANG1
 40
1.570796326794897
  9
$LOFTANG2
 40
1.570796326794897
  9
$LOFTMAG1
 40
0.0
  9
$LOFTMAG2
 40
0.0
  9
$LOFTPARAM
 70
     7
  9
$LOFTNORMALS
280
     1
  9
$LATITUDE
 40
37.795
  9
$LONGITUDE
 40
-122.394
  9
$NORTHDIRECTION
 40
0.0
  9
$TIMEZONE
 70
 -8000
  9
$LIGHTGLYPHDISPLAY
280
     1
  9
$TILEMODELIGHTSYNCH
280
     1
  9
$CMATERIAL
347
3C
  9
$SOLIDHIST
280
     1
  9
$SHOWHIST
280
     1
  9
$DWFFRAME
280
     2
  9
$DGNFRAME
280
     2
  9
$REALWORLDSCALE
290
     1
  9
$INTERFERECOLOR
 62
   256
  9
$CSHADOW
280
     0
  9
$SHADOWPLANELOCATION
 40
0.0
  0
ENDSEC
  0
SECTION
  2
CLASSES
  0
CLASS
  1
ACDBDICTIONARYWDFLT
  2
AcDbDictionaryWithDefault
  3
ObjectDBX Classes
 90
        0
 91
        4
280
     0
281
     0
  0
CLASS
  1
VISUALSTYLE
  2
AcDbVisualStyle
  3
ObjectDBX Classes
 90
     4095
 91
        4
280
     0
281
     0
  0
CLASS
  1
MATERIAL
  2
AcDbMaterial
  3
ObjectDBX Classes
 90
     1153
 91
        4
280
     0
281
     0
  0
CLASS
  1
SUN
  2
AcDbSun
  3
SCENEOE
 90
     1024
 91
        4
280
     0
281
     0
  0
ENDSEC
  0
SECTION
  2
TABLES
  0
TABLE
  2
VPORT
  5
8
330
0
100
AcDbSymbolTable
 70
     1
  0
VPORT
  5
29
330
8
100
AcDbSymbolTableRecord
100
AcDbViewportTableRecord
  2
*Active
 70
     0
 10
0.0
 20
0.0
 11
1.0
 21
1.0
 12
0.0
 22
0.0
 13
0.0
 23
0.0
 14
0.5
 24
0.5
 15
0.5
 25
0.5
 16
0.0
 26
0.0
 36
1.0
 17
18.21750416666666
 27
-30.42149569454757
 37
0.0
 40
10.98765527798403
 41
1.092134736338553
 42
50.0
 43
0.0
 44
0.0
 50
0.0
 51
0.0
 71
     0
 72
   100
 73
     1
 74
     3
 75
     0
 76
     0
 77
     0
 78
     0
281
     0
 65
     1
110
0.0
120
0.0
130
0.0
111
1.0
121
0.0
131
0.0
112
0.0
122
1.0
132
0.0
 79
     0
146
0.0
 60
     3
 61
     5
292
     1
282
     1
141
0.0
142
0.0
 63
   250
361
3F
  0
ENDTAB
  0
TABLE
  2
LTYPE
  5
5
330
0
100
AcDbSymbolTable
 70
     1
  0
LTYPE
  5
14
330
5
100
AcDbSymbolTableRecord
100
AcDbLinetypeTableRecord
  2
ByBlock
 70
     0
  3

 72
    65
 73
     0
 40
0.0
  0
LTYPE
  5
15
330
5
100
AcDbSymbolTableRecord
100
AcDbLinetypeTableRecord
  2
ByLayer
 70
     0
  3

 72
    65
 73
     0
 40
0.0
  0
LTYPE
  5
16
330
5
100
AcDbSymbolTableRecord
100
AcDbLinetypeTableRecord
  2
Continuous
 70
     0
  3
Solid line
 72
    65
 73
     0
 40
0.0
  0
ENDTAB
  0
TABLE
  2
LAYER
  5
2
330
0
100
AcDbSymbolTable
 70
     2
  0
LAYER
  5
10
330
2
100
AcDbSymbolTableRecord
100
AcDbLayerTableRecord
  2
0
 70
     0
 62
     7
  6
Continuous
370
    -3
390
F
347
3E
  0
LAYER
  5
40
330
2
100
AcDbSymbolTableRecord
100
AcDbLayerTableRecord
  2
Layer 1
 70
     0
 62
     7
  6
Continuous
370
    -3
390
F
347
3E
  0
ENDTAB
  0
TABLE
  2
STYLE
  5
3
330
0
100
AcDbSymbolTable
 70
     1
  0
STYLE
  5
11
330
3
100
AcDbSymbolTableRecord
100
AcDbTextStyleTableRecord
  2
Standard
 70
     0
 40
0.0
 41
1.0
 50
0.0
 71
     0
 42
0.2
  3
txt
  4

  0
ENDTAB
  0
TABLE
  2
VIEW
  5
6
330
0
100
AcDbSymbolTable
 70
     0
  0
ENDTAB
  0
TABLE
  2
UCS
  5
7
330
0
100
AcDbSymbolTable
 70
     0
  0
ENDTAB
  0
TABLE
  2
APPID
  5
9
330
0
100
AcDbSymbolTable
 70
     1
  0
APPID
  5
12
330
9
100
AcDbSymbolTableRecord
100
AcDbRegAppTableRecord
  2
ACAD
 70
     0
  0
ENDTAB
  0
TABLE
  2
DIMSTYLE
  5
A
330
0
100
AcDbSymbolTable
 70
     1
100
AcDbDimStyleTable
  0
DIMSTYLE
105
27
330
A
100
AcDbSymbolTableRecord
100
AcDbDimStyleTableRecord
  2
Standard
 70
     0
178
     0
340
11
  0
ENDTAB
  0
TABLE
  2
BLOCK_RECORD
  5
1
330
0
100
AcDbSymbolTable
 70
     1
  0
BLOCK_RECORD
  5
1F
330
1
100
AcDbSymbolTableRecord
100
AcDbBlockTableRecord
  2
*Model_Space
340
22
 70
     0
280
     1
281
     0
  0
BLOCK_RECORD
  5
1B
330
1
100
AcDbSymbolTableRecord
100
AcDbBlockTableRecord
  2
*Paper_Space
340
1E
 70
     0
280
     1
281
     0
  0
BLOCK_RECORD
  5
23
330
1
100
AcDbSymbolTableRecord
100
AcDbBlockTableRecord
  2
*Paper_Space0
340
26
 70
     0
280
     1
281
     0
  0
ENDTAB
  0
ENDSEC
  0
SECTION
  2
BLOCKS
  0
BLOCK
  5
20
330
1F
100
AcDbEntity
  8
0
100
AcDbBlockBegin
  2
*Model_Space
 70
     0
 10
0.0
 20
0.0
 30
0.0
  3
*Model_Space
  1

  0
ENDBLK
  5
21
330
1F
100
AcDbEntity
  8
0
100
AcDbBlockEnd
  0
BLOCK
  5
1C
330
1B
100
AcDbEntity
 67
     1
  8
0
100
AcDbBlockBegin
  2
*Paper_Space
 70
     0
 10
0.0
 20
0.0
 30
0.0
  3
*Paper_Space
  1

  0
ENDBLK
  5
1D
330
1B
100
AcDbEntity
 67
     1
  8
0
100
AcDbBlockEnd
  0
BLOCK
  5
24
330
23
100
AcDbEntity
  8
0
100
AcDbBlockBegin
  2
*Paper_Space0
 70
     0
 10
0.0
 20
0.0
 30
0.0
  3
*Paper_Space0
  1

  0
ENDBLK
  5
25
330
23
100
AcDbEntity
  8
0
100
AcDbBlockEnd
  0
ENDSEC
  0
SECTION
  2
ENTITIES
  0
SPLINE
  5
41
330
1F
100
AcDbEntity
  8
Layer 1
370
     0
100
AcDbSpline
210
0.0
220
0.0
230
1.0
 70
    11
 71
     3
 72
   152
 73
   148
 74
     0
 42
0.0000000001
 43
0.0000000001
 12
1.0
 22
0.0
 32
0.0
 13
1.0
 23
0.0
 33
0.0
 40
0.0
 40
0.0
 40
0.0
 40
0.0
 40
1.0
 40
1.0
 40
1.0
 40
2.0
 40
2.0
 40
2.0
 40
3.0
 40
3.0
 40
3.0
 40
4.0
 40
4.0
 40
4.0
 40
5.0
 40
5.0
 40
5.0
 40
6.0
 40
6.0
 40
6.0
 40
7.0
 40
7.0
 40
7.0
 40
8.0
 40
8.0
 40
8.0
 40
9.0
 40
9.0
 40
9.0
 40
10.0
 40
10.0
 40
10.0
 40
11.0
 40
11.0
 40
11.0
 40
12.0
 40
12.0
 40
12.0
 40
13.0
 40
13.0
 40
13.0
 40
14.0
 40
14.0
 40
14.0
 40
15.0
 40
15.0
 40
15.0
 40
16.0
 40
16.0
 40
16.0
 40
17.0
 40
17.0
 40
17.0
 40
18.0
 40
18.0
 40
18.0
 40
19.0
 40
19.0
 40
19.0
 40
20.0
 40
20.0
 40
20.0
 40
21.0
 40
21.0
 40
21.0
 40
22.0
 40
22.0
 40
22.0
 40
23.0
 40
23.0
 40
23.0
 40
24.0
 40
24.0
 40
24.0
 40
25.0
 40
25.0
 40
25.0
 40
26.0
 40
26.0
 40
26.0
 40
27.0
 40
27.0
 40
27.0
 40
28.0
 40
28.0
 40
28.0
 40
29.0
 40
29.0
 40
29.0
 40
30.0
 40
30.0
 40
30.0
 40
31.0
 40
31.0
 40
31.0
 40
32.0
 40
32.0
 40
32.0
 40
33.0
 40
33.0
 40
33.0
 40
34.0
 40
34.0
 40
34.0
 40
35.0
 40
35.0
 40
35.0
 40
36.0
 40
36.0
 40
36.0
 40
37.0
 40
37.0
 40
37.0
 40
38.0
 40
38.0
 40
38.0
 40
39.0
 40
39.0
 40
39.0
 40
40.0
 40
40.0
 40
40.0
 40
41.0
 40
41.0
 40
41.0
 40
42.0
 40
42.0
 40
42.0
 40
43.0
 40
43.0
 40
43.0
 40
44.0
 40
44.0
 40
44.0
 40
45.0
 40
45.0
 40
45.0
 40
46.0
 40
46.0
 40
46.0
 40
47.0
 40
47.0
 40
47.0
 40
48.0
 40
48.0
 40
48.0
 40
49.0
 40
49.0
 40
49.0
 40
49.0
 10
21.79172361111111
 20
-28.02884861111112
 30
0.0
 10
21.44264583333334
 20
-27.85489583333333
 30
0.0
 10
21.08481388888888
 20
-27.68747361111111
 30
0.0
 10
20.72780694444443
 20
-27.53103194444444
 30
0.0
 10
20.72780694444443
 20
-27.53103194444444
 30
0.0
 10
21.4349763888889
 20
-26.51123611111111
 30
0.0
 10
21.4349763888889
 20
-26.51123611111111
 30
0.0
 10
21.44885555555556
 20
-26.49121527777778
 30
0.0
 10
21.44984444444445
 20
-26.46469305555556
 30
0.0
 10
21.43739166666667
 20
-26.44368333333333
 30
0.0
 10
21.42494583333334
 20
-26.42267361111111
 30
0.0
 10
21.40151388888888
 20
-26.41051388888889
 30
0.0
 10
21.37696944444443
 20
-26.41334583333333
 30
0.0
 10
21.37696944444443
 20
-26.41334583333333
 30
0.0
 10
20.20901527777778
 20
-26.53693333333333
 30
0.0
 10
20.20901527777778
 20
-26.53693333333333
 30
0.0
 10
20.20901527777778
 20
-26.53693333333333
 30
0.0
 10
20.40197083333333
 20
-25.39686666666666
 30
0.0
 10
20.40197083333333
 20
-25.39686666666666
 30
0.0
 10
20.40604444444443
 20
-25.37273194444444
 30
0.0
 10
20.39556944444444
 20
-25.34828333333333
 30
0.0
 10
20.37529027777777
 20
-25.33459444444444
 30
0.0
 10
20.35498333333334
 20
-25.32083888888889
 30
0.0
 10
20.32843333333333
 20
-25.32033333333334
 30
0.0
 10
20.3075125
 20
-25.33316249999999
 30
0.0
 10
20.3075125
 20
-25.33316249999999
 30
0.0
 10
19.28613333333333
 20
-25.96128055555555
 30
0.0
 10
19.28613333333333
 20
-25.96128055555555
 30
0.0
 10
19.28613333333333
 20
-25.96128055555555
 30
0.0
 10
18.74995555555557
 20
-24.9607
 30
0.0
 10
18.74995555555557
 20
-24.9607
 30
0.0
 10
18.73906527777778
 20
-24.940325
 30
0.0
 10
18.717925
 20
-24.92766805555555
 30
0.0
 10
18.69443194444446
 20
-24.92766805555555
 30
0.0
 10
18.67119166666667
 20
-24.92781111111112
 30
0.0
 10
18.65005138888889
 20
-24.94072083333333
 30
0.0
 10
18.639325
 20
-24.96135555555555
 30
0.0
 10
18.639325
 20
-24.96135555555555
 30
0.0
 10
18.1483875
 20
-25.90470694444444
 30
0.0
 10
18.1483875
 20
-25.90470694444444
 30
0.0
 10
18.1483875
 20
-25.90470694444444
 30
0.0
 10
17.188925
 20
-25.22340555555555
 30
0.0
 10
17.188925
 20
-25.22340555555555
 30
0.0
 10
17.16950555555556
 20
-25.20962222222223
 30
0.0
 10
17.14432638888889
 20
-25.20803194444444
 30
0.0
 10
17.12334444444444
 20
-25.21918888888889
 30
0.0
 10
17.10226666666666
 20
-25.23039305555555
 30
0.0
 10
17.08956805555556
 20
-25.25214027777777
 30
0.0
 10
17.090175
 20
-25.27591944444445
 30
0.0
 10
17.090175
 20
-25.27591944444445
 30
0.0
 10
17.119175
 20
-26.50079583333334
 30
0.0
 10
17.119175
 20
-26.50079583333334
 30
0.0
 10
17.119175
 20
-26.50079583333334
 30
0.0
 10
15.91489166666666
 20
-26.44352638888889
 30
0.0
 10
15.91489166666666
 20
-26.44352638888889
 30
0.0
 10
15.91489166666666
 20
-26.44352638888889
 30
0.0
 10
15.91486527777778
 20
-26.44352638888889
 30
0.0
 10
15.91486527777778
 20
-26.44352638888889
 30
0.0
 10
15.89066805555555
 20
-26.44158194444444
 30
0.0
 10
15.86765277777777
 20
-26.45555555555556
 30
0.0
 10
15.85644166666667
 20
-26.47711111111111
 30
0.0
 10
15.8452375
 20
-26.49863333333333
 30
0.0
 10
15.84759166666667
 20
-26.52499166666666
 30
0.0
 10
15.86243333333333
 20
-26.54425555555556
 30
0.0
 10
15.86243333333333
 20
-26.54425555555556
 30
0.0
 10
16.56217777777778
 20
-27.44985138888888
 30
0.0
 10
16.56217777777778
 20
-27.44985138888888
 30
0.0
 10
16.56217777777778
 20
-27.44985138888888
 30
0.0
 10
15.41253055555555
 20
-27.98653611111111
 30
0.0
 10
15.41253055555555
 20
-27.98653611111111
 30
0.0
 10
15.38960416666666
 20
-27.99723472222222
 30
0.0
 10
15.37547222222222
 20
-28.02050277777778
 30
0.0
 10
15.37648888888889
 20
-28.04571527777778
 30
0.0
 10
15.3775125
 20
-28.071025
 30
0.0
 10
15.39345972222222
 20
-28.09305694444444
 30
0.0
 10
15.41717777777778
 20
-28.10187361111111
 30
0.0
 10
15.41717777777778
 20
-28.10187361111111
 30
0.0
 10
16.54918611111111
 20
-28.52344444444444
 30
0.0
 10
16.54918611111111
 20
-28.52344444444444
 30
0.0
 10
16.54918611111111
 20
-28.52344444444444
 30
0.0
 10
15.85393055555556
 20
-29.42990138888889
 30
0.0
 10
15.85393055555556
 20
-29.42990138888889
 30
0.0
 10
15.83902777777777
 20
-29.44932083333333
 30
0.0
 10
15.83686527777778
 20
-29.47580972222221
 30
0.0
 10
15.84839027777778
 20
-29.49742638888889
 30
0.0
 10
15.85991527777777
 20
-29.51903611111111
 30
0.0
 10
15.88264444444444
 20
-29.53231527777777
 30
0.0
 10
15.90760416666666
 20
-29.53040416666666
 30
0.0
 10
15.90760416666666
 20
-29.53040416666666
 30
0.0
 10
17.06584861111111
 20
-29.45572083333334
 30
0.0
 10
17.06584861111111
 20
-29.45572083333334
 30
0.0
 10
17.06584861111111
 20
-29.45572083333334
 30
0.0
 10
16.98765833333333
 20
-30.65728888888889
 30
0.0
 10
16.98765833333333
 20
-30.65728888888889
 30
0.0
 10
16.98610277777778
 20
-30.68104166666666
 30
0.0
 10
16.99791388888889
 20
-30.70329305555555
 30
0.0
 10
17.01844583333333
 20
-30.71532916666666
 30
0.0
 10
17.03895138888889
 20
-30.72742777777777
 30
0.0
 10
17.06406805555556
 20
-30.72685416666667
 30
0.0
 10
17.08408888888889
 20
-30.71389583333333
 30
0.0
 10
17.08408888888889
 20
-30.71389583333333
 30
0.0
 10
18.08455972222223
 20
-30.0663236111111
 30
0.0
 10
18.08455972222223
 20
-30.0663236111111
 30
0.0
 10
18.08455972222223
 20
-30.0663236111111
 30
0.0
 10
18.65740833333333
 20
-31.14985138888889
 30
0.0
 10
18.65740833333333
 20
-31.14985138888889
 30
0.0
 10
18.66826388888888
 20
-31.17041666666667
 30
0.0
 10
18.68946527777777
 20
-31.18318333333332
 30
0.0
 10
18.71413888888888
 20
-31.18318333333332
 30
0.0
 10
18.73795277777779
 20
-31.1826111111111
 30
0.0
 10
18.75909166666666
 20
-31.16888888888889
 30
0.0
 10
18.7693138888889
 20
-31.14736666666666
 30
0.0
 10
18.7693138888889
 20
-31.14736666666666
 30
0.0
 10
19.28902638888889
 20
-30.04884861111111
 30
0.0
 10
19.28902638888889
 20
-30.04884861111111
 30
0.0
 10
19.28902638888889
 20
-30.04884861111111
 30
0.0
 10
20.2632611111111
 20
-30.63889166666667
 30
0.0
 10
20.2632611111111
 20
-30.63889166666667
 30
0.0
 10
20.28379305555556
 20
-30.65130416666668
 30
0.0
 10
20.30996944444445
 20
-30.65079861111111
 30
0.0
 10
20.32996111111111
 20
-30.63767777777778
 30
0.0
 10
20.34995416666667
 20
-30.62456250000001
 30
0.0
 10
20.36083749999999
 20
-30.6007486111111
 30
0.0
 10
20.35765833333335
 20
-30.57700277777778
 30
0.0
 10
20.35765833333335
 20
-30.57700277777778
 30
0.0
 10
20.20962222222223
 20
-29.47673055555555
 30
0.0
 10
20.20962222222223
 20
-29.47673055555555
 30
0.0
 10
20.20962222222223
 20
-29.47673055555555
 30
0.0
 10
21.33399444444444
 20
-29.56985138888889
 30
0.0
 10
21.33399444444444
 20
-29.56985138888889
 30
0.0
 10
21.35907777777778
 20
-29.57198055555556
 30
0.0
 10
21.38279722222223
 20
-29.55883194444444
 30
0.0
 10
21.39444444444444
 20
-29.53670972222221
 30
0.0
 10
21.40615972222223
 20
-29.51448472222222
 30
0.0
 10
21.40351944444445
 20
-29.48752500000001
 30
0.0
 10
21.38763472222222
 20
-29.4680375
 30
0.0
 10
21.38763472222222
 20
-29.4680375
 30
0.0
 10
20.69635694444444
 20
-28.61831111111111
 30
0.0
 10
20.69635694444444
 20
-28.61831111111111
 30
0.0
 10
20.69635694444444
 20
-28.61831111111111
 30
0.0
 10
21.78883055555555
 20
-28.14218055555556
 30
0.0
 10
21.78883055555555
 20
-28.14218055555556
 30
0.0
 10
21.81098611111111
 20
-28.13250416666666
 30
0.0
 10
21.82575972222222
 20
-28.11062777777778
 30
0.0
 10
21.82639305555555
 20
-28.08646527777778
 30
0.0
 10
21.82702777777778
 20
-28.06226944444444
 30
0.0
 10
21.81343611111111
 20
-28.03967083333333
 30
0.0
 10
21.79172361111111
 20
-28.02884861111112
 30
0.0
  0
SPLINE
  5
42
330
1F
100
AcDbEntity
  8
Layer 1
370
     0
100
AcDbSpline
210
0.0
220
0.0
230
1.0
 70
    11
 71
     3
 72
   152
 73
   148
 74
     0
 42
0.0000000001
 43
0.0000000001
 12
1.0
 22
0.0
 32
0.0
 13
1.0
 23
0.0
 33
0.0
 40
0.0
 40
0.0
 40
0.0
 40
0.0
 40
1.0
 40
1.0
 40
1.0
 40
2.0
 40
2.0
 40
2.0
 40
3.0
 40
3.0
 40
3.0
 40
4.0
 40
4.0
 40
4.0
 40
5.0
 40
5.0
 40
5.0
 40
6.0
 40
6.0
 40
6.0
 40
7.0
 40
7.0
 40
7.0
 40
8.0
 40
8.0
 40
8.0
 40
9.0
 40
9.0
 40
9.0
 40
10.0
 40
10.0
 40
10.0
 40
11.0
 40
11.0
 40
11.0
 40
12.0
 40
12.0
 40
12.0
 40
13.0
 40
13.0
 40
13.0
 40
14.0
 40
14.0
 40
14.0
 40
15.0
 40
15.0
 40
15.0
 40
16.0
 40
16.0
 40
16.0
 40
17.0
 40
17.0
 40
17.0
 40
18.0
 40
18.0
 40
18.0
 40
19.0
 40
19.0
 40
19.0
 40
20.0
 40
20.0
 40
20.0
 40
21.0
 40
21.0
 40
21.0
 40
22.0
 40
22.0
 40
22.0
 40
23.0
 40
23.0
 40
23.0
 40
24.0
 40
24.0
 40
24.0
 40
25.0
 40
25.0
 40
25.0
 40
26.0
 40
26.0
 40
26.0
 40
27.0
 40
27.0
 40
27.0
 40
28.0
 40
28.0
 40
28.0
 40
29.0
 40
29.0
 40
29.0
 40
30.0
 40
30.0
 40
30.0
 40
31.0
 40
31.0
 40
31.0
 40
32.0
 40
32.0
 40
32.0
 40
33.0
 40
33.0
 40
33.0
 40
34.0
 40
34.0
 40
34.0
 40
35.0
 40
35.0
 40
35.0
 40
36.0
 40
36.0
 40
36.0
 40
37.0
 40
37.0
 40
37.0
 40
38.0
 40
38.0
 40
38.0
 40
39.0
 40
39.0
 40
39.0
 40
40.0
 40
40.0
 40
40.0
 40
41.0
 40
41.0
 40
41.0
 40
42.0
 40
42.0
 40
42.0
 40
43.0
 40
43.0
 40
43.0
 40
44.0
 40
44.0
 40
44.0
 40
45.0
 40
45.0
 40
45.0
 40
46.0
 40
46.0
 40
46.0
 40
47.0
 40
47.0
 40
47.0
 40
48.0
 40
48.0
 40
48.0
 40
49.0
 40
49.0
 40
49.0
 40
49.0
 10
20.07527361111111
 20
-29.41627499999999
 30
0.0
 10
20.07527361111111
 20
-29.41627499999999
 30
0.0
 10
20.21620694444444
 20
-30.46411388888888
 30
0.0
 10
20.21620694444444
 20
-30.46411388888888
 30
0.0
 10
20.21620694444444
 20
-30.46411388888888
 30
0.0
 10
19.29453333333332
 20
-29.90590972222223
 30
0.0
 10
19.29453333333332
 20
-29.90590972222223
 30
0.0
 10
19.27938472222223
 20
-29.89670416666667
 30
0.0
 10
19.26094861111111
 20
-29.89435
 30
0.0
 10
19.24407361111111
 20
-29.89950972222222
 30
0.0
 10
19.22717222222223
 20
-29.90459999999999
 30
0.0
 10
19.21312916666668
 20
-29.91669722222222
 30
0.0
 10
19.20555416666667
 20
-29.9326513888889
 30
0.0
 10
19.20555416666667
 20
-29.9326513888889
 30
0.0
 10
18.70964861111111
 20
-30.98089999999999
 30
0.0
 10
18.70964861111111
 20
-30.98089999999999
 30
0.0
 10
18.70964861111111
 20
-30.98089999999999
 30
0.0
 10
18.16325555555555
 20
-29.94745138888889
 30
0.0
 10
18.16325555555555
 20
-29.94745138888889
 30
0.0
 10
18.15507361111112
 20
-29.93198194444443
 30
0.0
 10
18.14065555555555
 20
-29.92058055555556
 30
0.0
 10
18.12365138888889
 20
-29.916125
 30
0.0
 10
18.11846527777778
 20
-29.9147875
 30
0.0
 10
18.11317777777777
 20
-29.91411805555555
 30
0.0
 10
18.10792361111112
 20
-29.91411805555555
 30
0.0
 10
18.09579861111111
 20
-29.91411805555555
 30
0.0
 10
18.0840486111111
 20
-29.91759166666667
 30
0.0
 10
18.07395555555556
 20
-29.92414861111111
 30
0.0
 10
18.07395555555556
 20
-29.92414861111111
 30
0.0
 10
17.12060833333333
 20
-30.54122083333333
 30
0.0
 10
17.12060833333333
 20
-30.54122083333333
 30
0.0
 10
17.12060833333333
 20
-30.54122083333333
 30
0.0
 10
17.19535972222221
 20
-29.39278055555556
 30
0.0
 10
17.19535972222221
 20
-29.39278055555556
 30
0.0
 10
17.19650555555555
 20
-29.37485555555555
 30
0.0
 10
17.1899138888889
 20
-29.35725138888889
 30
0.0
 10
17.17718194444444
 20
-29.34448472222223
 30
0.0
 10
17.16444166666666
 20
-29.33175138888888
 30
0.0
 10
17.14687222222222
 20
-29.32515972222222
 30
0.0
 10
17.12888472222222
 20
-29.32627222222221
 30
0.0
 10
17.12888472222222
 20
-29.32627222222221
 30
0.0
 10
16.03711527777778
 20
-29.39666388888889
 30
0.0
 10
16.03711527777778
 20
-29.39666388888889
 30
0.0
 10
16.03711527777778
 20
-29.39666388888889
 30
0.0
 10
16.70002638888889
 20
-28.53242361111111
 30
0.0
 10
16.70002638888889
 20
-28.53242361111111
 30
0.0
 10
16.71202916666666
 20
-28.51672361111111
 30
0.0
 10
16.71594583333333
 20
-28.49599999999999
 30
0.0
 10
16.71046666666666
 20
-28.47709166666666
 30
0.0
 10
16.70502083333334
 20
-28.45808194444445
 30
0.0
 10
16.69073333333333
 20
-28.4426125
 30
0.0
 10
16.6722
 20
-28.43570694444444
 30
0.0
 10
16.6722
 20
-28.43570694444444
 30
0.0
 10
15.60080555555555
 20
-28.03674305555556
 30
0.0
 10
15.60080555555555
 20
-28.03674305555556
 30
0.0
 10
15.60080555555555
 20
-28.03674305555556
 30
0.0
 10
16.68595694444444
 20
-27.53017222222221
 30
0.0
 10
16.68595694444444
 20
-27.53017222222221
 30
0.0
 10
16.70324027777777
 20
-27.52205138888889
 30
0.0
 10
16.71575416666667
 20
-27.5067736111111
 30
0.0
 10
16.72027222222222
 20
-27.48824166666667
 30
0.0
 10
16.7247625
 20
-27.46965416666666
 30
0.0
 10
16.72065416666667
 20
-27.45032916666667
 30
0.0
 10
16.70897222222223
 20
-27.43520833333333
 30
0.0
 10
16.70897222222223
 20
-27.43520833333333
 30
0.0
 10
16.04427222222223
 20
-26.57491250000001
 30
0.0
 10
16.04427222222223
 20
-26.57491250000001
 30
0.0
 10
16.04427222222223
 20
-26.57491250000001
 30
0.0
 10
17.18032777777777
 20
-26.62899583333333
 30
0.0
 10
17.18032777777777
 20
-26.62899583333333
 30
0.0
 10
17.19714027777778
 20
-26.63008055555555
 30
0.0
 10
17.21461527777777
 20
-26.62342777777778
 30
0.0
 10
17.22703472222222
 20
-26.61126944444445
 30
0.0
 10
17.23941944444444
 20
-26.59913611111111
 30
0.0
 10
17.24626250000001
 20
-26.58229583333333
 30
0.0
 10
17.24584722222222
 20
-26.56503888888889
 30
0.0
 10
17.24584722222222
 20
-26.56503888888889
 30
0.0
 10
17.21821111111111
 20
-25.39769166666666
 30
0.0
 10
17.21821111111111
 20
-25.39769166666666
 30
0.0
 10
17.21821111111111
 20
-25.39769166666666
 30
0.0
 10
18.13450833333334
 20
-26.04831527777777
 30
0.0
 10
18.13450833333334
 20
-26.04831527777777
 30
0.0
 10
18.14921944444444
 20
-26.05869305555555
 30
0.0
 10
18.16768333333333
 20
-26.0622625
 30
0.0
 10
18.18538472222222
 20
-26.05811944444445
 30
0.0
 10
18.20298888888889
 20
-26.05385555555555
 30
0.0
 10
18.21785694444444
 20
-26.04220833333333
 30
0.0
 10
18.22619583333334
 20
-26.02615833333333
 30
0.0
 10
18.22619583333334
 20
-26.02615833333333
 30
0.0
 10
18.69564722222223
 20
-25.12420555555555
 30
0.0
 10
18.69564722222223
 20
-25.12420555555555
 30
0.0
 10
18.69564722222223
 20
-25.12420555555555
 30
0.0
 10
19.20717916666667
 20
-26.07894583333334
 30
0.0
 10
19.20717916666667
 20
-26.07894583333334
 30
0.0
 10
19.2153263888889
 20
-26.09406666666666
 30
0.0
 10
19.22949861111111
 20
-26.10530416666667
 30
0.0
 10
19.24601805555555
 20
-26.10972638888889
 30
0.0
 10
19.2627013888889
 20
-26.11431249999999
 30
0.0
 10
19.28053194444444
 20
-26.1116375
 30
0.0
 10
19.29510694444444
 20
-26.10263055555555
 30
0.0
 10
19.29510694444444
 20
-26.10263055555555
 30
0.0
 10
20.25555833333333
 20
-25.51195138888889
 30
0.0
 10
20.25555833333333
 20
-25.51195138888889
 30
0.0
 10
20.25555833333333
 20
-25.51195138888889
 30
0.0
 10
20.07186944444445
 20
-26.59739027777778
 30
0.0
 10
20.07186944444445
 20
-26.59739027777778
 30
0.0
 10
20.06862083333332
 20
-26.61661805555555
 30
0.0
 10
20.07463888888888
 20
-26.63651527777778
 30
0.0
 10
20.08797916666668
 20
-26.65068194444444
 30
0.0
 10
20.10150277777777
 20
-26.66507222222222
 30
0.0
 10
20.12038472222222
 20
-26.67216805555555
 30
0.0
 10
20.14015138888888
 20
-26.67003333333333
 30
0.0
 10
20.14015138888888
 20
-26.67003333333333
 30
0.0
 10
21.25430972222224
 20
-26.55214999999999
 30
0.0
 10
21.25430972222224
 20
-26.55214999999999
 30
0.0
 10
21.25430972222224
 20
-26.55214999999999
 30
0.0
 10
20.58165416666667
 20
-27.52227638888889
 30
0.0
 10
20.58165416666667
 20
-27.52227638888889
 30
0.0
 10
20.57095416666667
 20
-27.53765
 30
0.0
 10
20.56774027777778
 20
-27.55687916666666
 30
0.0
 10
20.57283055555556
 20
-27.57505694444444
 30
0.0
 10
20.57799027777777
 20
-27.59313888888889
 30
0.0
 10
20.59085277777778
 20
-27.60785
 30
0.0
 10
20.60810833333335
 20
-27.61532916666667
 30
0.0
 10
20.94495833333334
 20
-27.76161805555554
 30
0.0
 10
21.28365833333333
 20
-27.91827916666667
 30
0.0
 10
21.61548611111112
 20
-28.08124583333333
 30
0.0
 10
21.61548611111112
 20
-28.08124583333333
 30
0.0
 10
20.57082499999999
 20
-28.53652500000001
 30
0.0
 10
20.57082499999999
 20
-28.53652500000001
 30
0.0
 10
20.55300138888889
 20
-28.54429722222222
 30
0.0
 10
20.53959444444445
 20
-28.56021666666667
 30
0.0
 10
20.53501527777778
 20
-28.57912361111111
 30
0.0
 10
20.53045694444444
 20
-28.59800416666667
 30
0.0
 10
20.53504305555556
 20
-28.61828472222222
 30
0.0
 10
20.54729722222222
 20
-28.63337083333332
 30
0.0
 10
20.54729722222222
 20
-28.63337083333332
 30
0.0
 10
21.19786527777779
 20
-29.43301944444445
 30
0.0
 10
21.19786527777779
 20
-29.43301944444445
 30
0.0
 10
21.19786527777779
 20
-29.43301944444445
 30
0.0
 10
20.14241666666668
 20
-29.34559583333334
 30
0.0
 10
20.14241666666668
 20
-29.34559583333334
 30
0.0
 10
20.12328472222223
 20
-29.34378194444444
 30
0.0
 10
20.1050111111111
 20
-29.351075
 30
0.0
 10
20.09192361111112
 20
-29.36482500000001
 30
0.0
 10
20.07877361111112
 20
-29.37867638888888
 30
0.0
 10
20.07269444444445
 20
-29.39742777777777
 30
0.0
 10
20.07527361111111
 20
-29.41627499999999
 30
0.0
  0
HATCH
  5
43
330
1F
100
AcDbEntity
  8
Layer 1
 62
    35
420
 10579544
100
AcDbHatch
 10
0.0
 20
0.0
 30
0.0
210
0.0
220
0.0
230
1.0
  2
SOLID
 70
     1
 71
     0
 91
        2
 92
        1
 93
        1
 72
     4
 94
        3
 73
     0
 74
     1
 95
      152
 96
      148
 40
0.0
 40
0.0
 40
0.0
 40
0.0
 40
1.0
 40
1.0
 40
1.0
 40
2.0
 40
2.0
 40
2.0
 40
3.0
 40
3.0
 40
3.0
 40
4.0
 40
4.0
 40
4.0
 40
5.0
 40
5.0
 40
5.0
 40
6.0
 40
6.0
 40
6.0
 40
7.0
 40
7.0
 40
7.0
 40
8.0
 40
8.0
 40
8.0
 40
9.0
 40
9.0
 40
9.0
 40
10.0
 40
10.0
 40
10.0
 40
11.0
 40
11.0
 40
11.0
 40
12.0
 40
12.0
 40
12.0
 40
13.0
 40
13.0
 40
13.0
 40
14.0
 40
14.0
 40
14.0
 40
15.0
 40
15.0
 40
15.0
 40
16.0
 40
16.0
 40
16.0
 40
17.0
 40
17.0
 40
17.0
 40
18.0
 40
18.0
 40
18.0
 40
19.0
 40
19.0
 40
19.0
 40
20.0
 40
20.0
 40
20.0
 40
21.0
 40
21.0
 40
21.0
 40
22.0
 40
22.0
 40
22.0
 40
23.0
 40
23.0
 40
23.0
 40
24.0
 40
24.0
 40
24.0
 40
25.0
 40
25.0
 40
25.0
 40
26.0
 40
26.0
 40
26.0
 40
27.0
 40
27.0
 40
27.0
 40
28.0
 40
28.0
 40
28.0
 40
29.0
 40
29.0
 40
29.0
 40
30.0
 40
30.0
 40
30.0
 40
31.0
 40
31.0
 40
31.0
 40
32.0
 40
32.0
 40
32.0
 40
33.0
 40
33.0
 40
33.0
 40
34.0
 40
34.0
 40
34.0
 40
35.0
 40
35.0
 40
35.0
 40
36.0
 40
36.0
 40
36.0
 40
37.0
 40
37.0
 40
37.0
 40
38.0
 40
38.0
 40
38.0
 40
39.0
 40
39.0
 40
39.0
 40
40.0
 40
40.0
 40
40.0
 40
41.0
 40
41.0
 40
41.0
 40
42.0
 40
42.0
 40
42.0
 40
43.0
 40
43.0
 40
43.0
 40
44.0
 40
44.0
 40
44.0
 40
45.0
 40
45.0
 40
45.0
 40
46.0
 40
46.0
 40
46.0
 40
47.0
 40
47.0
 40
47.0
 40
48.0
 40
48.0
 40
48.0
 40
49.0
 40
49.0
 40
49.0
 40
49.0
 10
21.79172361111111
 20
-28.02884861111112
 10
21.44264583333334
 20
-27.85489583333333
 10
21.08481388888888
 20
-27.68747361111111
 10
20.72780694444443
 20
-27.53103194444444
 10
20.72780694444443
 20
-27.53103194444444
 10
21.4349763888889
 20
-26.51123611111111
 10
21.4349763888889
 20
-26.51123611111111
 10
21.44885555555556
 20
-26.49121527777778
 10
21.44984444444445
 20
-26.46469305555556
 10
21.43739166666667
 20
-26.44368333333333
 10
21.42494583333334
 20
-26.42267361111111
 10
21.40151388888888
 20
-26.41051388888889
 10
21.37696944444443
 20
-26.41334583333333
 10
21.37696944444443
 20
-26.41334583333333
 10
20.20901527777778
 20
-26.53693333333333
 10
20.20901527777778
 20
-26.53693333333333
 10
20.20901527777778
 20
-26.53693333333333
 10
20.40197083333333
 20
-25.39686666666666
 10
20.40197083333333
 20
-25.39686666666666
 10
20.40604444444443
 20
-25.37273194444444
 10
20.39556944444444
 20
-25.34828333333333
 10
20.37529027777777
 20
-25.33459444444444
 10
20.35498333333334
 20
-25.32083888888889
 10
20.32843333333333
 20
-25.32033333333334
 10
20.3075125
 20
-25.33316249999999
 10
20.3075125
 20
-25.33316249999999
 10
19.28613333333333
 20
-25.96128055555555
 10
19.28613333333333
 20
-25.96128055555555
 10
19.28613333333333
 20
-25.96128055555555
 10
18.74995555555557
 20
-24.9607
 10
18.74995555555557
 20
-24.9607
 10
18.73906527777778
 20
-24.940325
 10
18.717925
 20
-24.92766805555555
 10
18.69443194444446
 20
-24.92766805555555
 10
18.67119166666667
 20
-24.92781111111112
 10
18.65005138888889
 20
-24.94072083333333
 10
18.639325
 20
-24.96135555555555
 10
18.639325
 20
-24.96135555555555
 10
18.1483875
 20
-25.90470694444444
 10
18.1483875
 20
-25.90470694444444
 10
18.1483875
 20
-25.90470694444444
 10
17.188925
 20
-25.22340555555555
 10
17.188925
 20
-25.22340555555555
 10
17.16950555555556
 20
-25.20962222222223
 10
17.14432638888889
 20
-25.20803194444444
 10
17.12334444444444
 20
-25.21918888888889
 10
17.10226666666666
 20
-25.23039305555555
 10
17.08956805555556
 20
-25.25214027777777
 10
17.090175
 20
-25.27591944444445
 10
17.090175
 20
-25.27591944444445
 10
17.119175
 20
-26.50079583333334
 10
17.119175
 20
-26.50079583333334
 10
17.119175
 20
-26.50079583333334
 10
15.91489166666666
 20
-26.44352638888889
 10
15.91489166666666
 20
-26.44352638888889
 10
15.91489166666666
 20
-26.44352638888889
 10
15.91486527777778
 20
-26.44352638888889
 10
15.91486527777778
 20
-26.44352638888889
 10
15.89066805555555
 20
-26.44158194444444
 10
15.86765277777777
 20
-26.45555555555556
 10
15.85644166666667
 20
-26.47711111111111
 10
15.8452375
 20
-26.49863333333333
 10
15.84759166666667
 20
-26.52499166666666
 10
15.86243333333333
 20
-26.54425555555556
 10
15.86243333333333
 20
-26.54425555555556
 10
16.56217777777778
 20
-27.44985138888888
 10
16.56217777777778
 20
-27.44985138888888
 10
16.56217777777778
 20
-27.44985138888888
 10
15.41253055555555
 20
-27.98653611111111
 10
15.41253055555555
 20
-27.98653611111111
 10
15.38960416666666
 20
-27.99723472222222
 10
15.37547222222222
 20
-28.02050277777778
 10
15.37648888888889
 20
-28.04571527777778
 10
15.3775125
 20
-28.071025
 10
15.39345972222222
 20
-28.09305694444444
 10
15.41717777777778
 20
-28.10187361111111
 10
15.41717777777778
 20
-28.10187361111111
 10
16.54918611111111
 20
-28.52344444444444
 10
16.54918611111111
 20
-28.52344444444444
 10
16.54918611111111
 20
-28.52344444444444
 10
15.85393055555556
 20
-29.42990138888889
 10
15.85393055555556
 20
-29.42990138888889
 10
15.83902777777777
 20
-29.44932083333333
 10
15.83686527777778
 20
-29.47580972222221
 10
15.84839027777778
 20
-29.49742638888889
 10
15.85991527777777
 20
-29.51903611111111
 10
15.88264444444444
 20
-29.53231527777777
 10
15.90760416666666
 20
-29.53040416666666
 10
15.90760416666666
 20
-29.53040416666666
 10
17.06584861111111
 20
-29.45572083333334
 10
17.06584861111111
 20
-29.45572083333334
 10
17.06584861111111
 20
-29.45572083333334
 10
16.98765833333333
 20
-30.65728888888889
 10
16.98765833333333
 20
-30.65728888888889
 10
16.98610277777778
 20
-30.68104166666666
 10
16.99791388888889
 20
-30.70329305555555
 10
17.01844583333333
 20
-30.71532916666666
 10
17.03895138888889
 20
-30.72742777777777
 10
17.06406805555556
 20
-30.72685416666667
 10
17.08408888888889
 20
-30.71389583333333
 10
17.08408888888889
 20
-30.71389583333333
 10
18.08455972222223
 20
-30.0663236111111
 10
18.08455972222223
 20
-30.0663236111111
 10
18.08455972222223
 20
-30.0663236111111
 10
18.65740833333333
 20
-31.14985138888889
 10
18.65740833333333
 20
-31.14985138888889
 10
18.66826388888888
 20
-31.17041666666667
 10
18.68946527777777
 20
-31.18318333333332
 10
18.71413888888888
 20
-31.18318333333332
 10
18.73795277777779
 20
-31.1826111111111
 10
18.75909166666666
 20
-31.16888888888889
 10
18.7693138888889
 20
-31.14736666666666
 10
18.7693138888889
 20
-31.14736666666666
 10
19.28902638888889
 20
-30.04884861111111
 10
19.28902638888889
 20
-30.04884861111111
 10
19.28902638888889
 20
-30.04884861111111
 10
20.2632611111111
 20
-30.63889166666667
 10
20.2632611111111
 20
-30.63889166666667
 10
20.28379305555556
 20
-30.65130416666668
 10
20.30996944444445
 20
-30.65079861111111
 10
20.32996111111111
 20
-30.63767777777778
 10
20.34995416666667
 20
-30.62456250000001
 10
20.36083749999999
 20
-30.6007486111111
 10
20.35765833333335
 20
-30.57700277777778
 10
20.35765833333335
 20
-30.57700277777778
 10
20.20962222222223
 20
-29.47673055555555
 10
20.20962222222223
 20
-29.47673055555555
 10
20.20962222222223
 20
-29.47673055555555
 10
21.33399444444444
 20
-29.56985138888889
 10
21.33399444444444
 20
-29.56985138888889
 10
21.35907777777778
 20
-29.57198055555556
 10
21.38279722222223
 20
-29.55883194444444
 10
21.39444444444444
 20
-29.53670972222221
 10
21.40615972222223
 20
-29.51448472222222
 10
21.40351944444445
 20
-29.48752500000001
 10
21.38763472222222
 20
-29.4680375
 10
21.38763472222222
 20
-29.4680375
 10
20.69635694444444
 20
-28.61831111111111
 10
20.69635694444444
 20
-28.61831111111111
 10
20.69635694444444
 20
-28.61831111111111
 10
21.78883055555555
 20
-28.14218055555556
 10
21.78883055555555
 20
-28.14218055555556
 10
21.81098611111111
 20
-28.13250416666666
 10
21.82575972222222
 20
-28.11062777777778
 10
21.82639305555555
 20
-28.08646527777778
 10
21.82702777777778
 20
-28.06226944444444
 10
21.81343611111111
 20
-28.03967083333333
 10
21.79172361111111
 20
-28.02884861111112
 97
        0
 97
        0
 92
        1
 93
        1
 72
     4
 94
        3
 73
     0
 74
     1
 95
      152
 96
      148
 40
0.0
 40
0.0
 40
0.0
 40
0.0
 40
1.0
 40
1.0
 40
1.0
 40
2.0
 40
2.0
 40
2.0
 40
3.0
 40
3.0
 40
3.0
 40
4.0
 40
4.0
 40
4.0
 40
5.0
 40
5.0
 40
5.0
 40
6.0
 40
6.0
 40
6.0
 40
7.0
 40
7.0
 40
7.0
 40
8.0
 40
8.0
 40
8.0
 40
9.0
 40
9.0
 40
9.0
 40
10.0
 40
10.0
 40
10.0
 40
11.0
 40
11.0
 40
11.0
 40
12.0
 40
12.0
 40
12.0
 40
13.0
 40
13.0
 40
13.0
 40
14.0
 40
14.0
 40
14.0
 40
15.0
 40
15.0
 40
15.0
 40
16.0
 40
16.0
 40
16.0
 40
17.0
 40
17.0
 40
17.0
 40
18.0
 40
18.0
 40
18.0
 40
19.0
 40
19.0
 40
19.0
 40
20.0
 40
20.0
 40
20.0
 40
21.0
 40
21.0
 40
21.0
 40
22.0
 40
22.0
 40
22.0
 40
23.0
 40
23.0
 40
23.0
 40
24.0
 40
24.0
 40
24.0
 40
25.0
 40
25.0
 40
25.0
 40
26.0
 40
26.0
 40
26.0
 40
27.0
 40
27.0
 40
27.0
 40
28.0
 40
28.0
 40
28.0
 40
29.0
 40
29.0
 40
29.0
 40
30.0
 40
30.0
 40
30.0
 40
31.0
 40
31.0
 40
31.0
 40
32.0
 40
32.0
 40
32.0
 40
33.0
 40
33.0
 40
33.0
 40
34.0
 40
34.0
 40
34.0
 40
35.0
 40
35.0
 40
35.0
 40
36.0
 40
36.0
 40
36.0
 40
37.0
 40
37.0
 40
37.0
 40
38.0
 40
38.0
 40
38.0
 40
39.0
 40
39.0
 40
39.0
 40
40.0
 40
40.0
 40
40.0
 40
41.0
 40
41.0
 40
41.0
 40
42.0
 40
42.0
 40
42.0
 40
43.0
 40
43.0
 40
43.0
 40
44.0
 40
44.0
 40
44.0
 40
45.0
 40
45.0
 40
45.0
 40
46.0
 40
46.0
 40
46.0
 40
47.0
 40
47.0
 40
47.0
 40
48.0
 40
48.0
 40
48.0
 40
49.0
 40
49.0
 40
49.0
 40
49.0
 10
20.07527361111111
 20
-29.41627499999999
 10
20.07527361111111
 20
-29.41627499999999
 10
20.21620694444444
 20
-30.46411388888888
 10
20.21620694444444
 20
-30.46411388888888
 10
20.21620694444444
 20
-30.46411388888888
 10
19.29453333333332
 20
-29.90590972222223
 10
19.29453333333332
 20
-29.90590972222223
 10
19.27938472222223
 20
-29.89670416666667
 10
19.26094861111111
 20
-29.89435
 10
19.24407361111111
 20
-29.89950972222222
 10
19.22717222222223
 20
-29.90459999999999
 10
19.21312916666668
 20
-29.91669722222222
 10
19.20555416666667
 20
-29.9326513888889
 10
19.20555416666667
 20
-29.9326513888889
 10
18.70964861111111
 20
-30.98089999999999
 10
18.70964861111111
 20
-30.98089999999999
 10
18.70964861111111
 20
-30.98089999999999
 10
18.16325555555555
 20
-29.94745138888889
 10
18.16325555555555
 20
-29.94745138888889
 10
18.15507361111112
 20
-29.93198194444443
 10
18.14065555555555
 20
-29.92058055555556
 10
18.12365138888889
 20
-29.916125
 10
18.11846527777778
 20
-29.9147875
 10
18.11317777777777
 20
-29.91411805555555
 10
18.10792361111112
 20
-29.91411805555555
 10
18.09579861111111
 20
-29.91411805555555
 10
18.0840486111111
 20
-29.91759166666667
 10
18.07395555555556
 20
-29.92414861111111
 10
18.07395555555556
 20
-29.92414861111111
 10
17.12060833333333
 20
-30.54122083333333
 10
17.12060833333333
 20
-30.54122083333333
 10
17.12060833333333
 20
-30.54122083333333
 10
17.19535972222221
 20
-29.39278055555556
 10
17.19535972222221
 20
-29.39278055555556
 10
17.19650555555555
 20
-29.37485555555555
 10
17.1899138888889
 20
-29.35725138888889
 10
17.17718194444444
 20
-29.34448472222223
 10
17.16444166666666
 20
-29.33175138888888
 10
17.14687222222222
 20
-29.32515972222222
 10
17.12888472222222
 20
-29.32627222222221
 10
17.12888472222222
 20
-29.32627222222221
 10
16.03711527777778
 20
-29.39666388888889
 10
16.03711527777778
 20
-29.39666388888889
 10
16.03711527777778
 20
-29.39666388888889
 10
16.70002638888889
 20
-28.53242361111111
 10
16.70002638888889
 20
-28.53242361111111
 10
16.71202916666666
 20
-28.51672361111111
 10
16.71594583333333
 20
-28.49599999999999
 10
16.71046666666666
 20
-28.47709166666666
 10
16.70502083333334
 20
-28.45808194444445
 10
16.69073333333333
 20
-28.4426125
 10
16.6722
 20
-28.43570694444444
 10
16.6722
 20
-28.43570694444444
 10
15.60080555555555
 20
-28.03674305555556
 10
15.60080555555555
 20
-28.03674305555556
 10
15.60080555555555
 20
-28.03674305555556
 10
16.68595694444444
 20
-27.53017222222221
 10
16.68595694444444
 20
-27.53017222222221
 10
16.70324027777777
 20
-27.52205138888889
 10
16.71575416666667
 20
-27.5067736111111
 10
16.72027222222222
 20
-27.48824166666667
 10
16.7247625
 20
-27.46965416666666
 10
16.72065416666667
 20
-27.45032916666667
 10
16.70897222222223
 20
-27.43520833333333
 10
16.70897222222223
 20
-27.43520833333333
 10
16.04427222222223
 20
-26.57491250000001
 10
16.04427222222223
 20
-26.57491250000001
 10
16.04427222222223
 20
-26.57491250000001
 10
17.18032777777777
 20
-26.62899583333333
 10
17.18032777777777
 20
-26.62899583333333
 10
17.19714027777778
 20
-26.63008055555555
 10
17.21461527777777
 20
-26.62342777777778
 10
17.22703472222222
 20
-26.61126944444445
 10
17.23941944444444
 20
-26.59913611111111
 10
17.24626250000001
 20
-26.58229583333333
 10
17.24584722222222
 20
-26.56503888888889
 10
17.24584722222222
 20
-26.56503888888889
 10
17.21821111111111
 20
-25.39769166666666
 10
17.21821111111111
 20
-25.39769166666666
 10
17.21821111111111
 20
-25.39769166666666
 10
18.13450833333334
 20
-26.04831527777777
 10
18.13450833333334
 20
-26.04831527777777
 10
18.14921944444444
 20
-26.05869305555555
 10
18.16768333333333
 20
-26.0622625
 10
18.18538472222222
 20
-26.05811944444445
 10
18.20298888888889
 20
-26.05385555555555
 10
18.21785694444444
 20
-26.04220833333333
 10
18.22619583333334
 20
-26.02615833333333
 10
18.22619583333334
 20
-26.02615833333333
 10
18.69564722222223
 20
-25.12420555555555
 10
18.69564722222223
 20
-25.12420555555555
 10
18.69564722222223
 20
-25.12420555555555
 10
19.20717916666667
 20
-26.07894583333334
 10
19.20717916666667
 20
-26.07894583333334
 10
19.2153263888889
 20
-26.09406666666666
 10
19.22949861111111
 20
-26.10530416666667
 10
19.24601805555555
 20
-26.10972638888889
 10
19.2627013888889
 20
-26.11431249999999
 10
19.28053194444444
 20
-26.1116375
 10
19.29510694444444
 20
-26.10263055555555
 10
19.29510694444444
 20
-26.10263055555555
 10
20.25555833333333
 20
-25.51195138888889
 10
20.25555833333333
 20
-25.51195138888889
 10
20.25555833333333
 20
-25.51195138888889
 10
20.07186944444445
 20
-26.59739027777778
 10
20.07186944444445
 20
-26.59739027777778
 10
20.06862083333332
 20
-26.61661805555555
 10
20.07463888888888
 20
-26.63651527777778
 10
20.08797916666668
 20
-26.65068194444444
 10
20.10150277777777
 20
-26.66507222222222
 10
20.12038472222222
 20
-26.67216805555555
 10
20.14015138888888
 20
-26.67003333333333
 10
20.14015138888888
 20
-26.67003333333333
 10
21.25430972222224
 20
-26.55214999999999
 10
21.25430972222224
 20
-26.55214999999999
 10
21.25430972222224
 20
-26.55214999999999
 10
20.58165416666667
 20
-27.52227638888889
 10
20.58165416666667
 20
-27.52227638888889
 10
20.57095416666667
 20
-27.53765
 10
20.56774027777778
 20
-27.55687916666666
 10
20.57283055555556
 20
-27.57505694444444
 10
20.57799027777777
 20
-27.59313888888889
 10
20.59085277777778
 20
-27.60785
 10
20.60810833333335
 20
-27.61532916666667
 10
20.94495833333334
 20
-27.76161805555554
 10
21.28365833333333
 20
-27.91827916666667
 10
21.61548611111112
 20
-28.08124583333333
 10
21.61548611111112
 20
-28.08124583333333
 10
20.57082499999999
 20
-28.53652500000001
 10
20.57082499999999
 20
-28.53652500000001
 10
20.55300138888889
 20
-28.54429722222222
 10
20.53959444444445
 20
-28.56021666666667
 10
20.53501527777778
 20
-28.57912361111111
 10
20.53045694444444
 20
-28.59800416666667
 10
20.53504305555556
 20
-28.61828472222222
 10
20.54729722222222
 20
-28.63337083333332
 10
20.54729722222222
 20
-28.63337083333332
 10
21.19786527777779
 20
-29.43301944444445
 10
21.19786527777779
 20
-29.43301944444445
 10
21.19786527777779
 20
-29.43301944444445
 10
20.14241666666668
 20
-29.34559583333334
 10
20.14241666666668
 20
-29.34559583333334
 10
20.12328472222223
 20
-29.34378194444444
 10
20.1050111111111
 20
-29.351075
 10
20.09192361111112
 20
-29.36482500000001
 10
20.07877361111112
 20
-29.37867638888888
 10
20.07269444444445
 20
-29.39742777777777
 10
20.07527361111111
 20
-29.41627499999999
 97
        0
 97
        0
 75
     2
 76
     1
 98
        0
  0
SPLINE
  5
44
330
1F
100
AcDbEntity
  8
Layer 1
370
     0
100
AcDbSpline
210
0.0
220
0.0
230
1.0
 70
    11
 71
     3
 72
    17
 73
    13
 74
     0
 42
0.0000000001
 43
0.0000000001
 12
1.0
 22
0.0
 32
0.0
 13
1.0
 23
0.0
 33
0.0
 40
0.0
 40
0.0
 40
0.0
 40
0.0
 40
1.0
 40
1.0
 40
1.0
 40
2.0
 40
2.0
 40
2.0
 40
3.0
 40
3.0
 40
3.0
 40
4.0
 40
4.0
 40
4.0
 40
4.0
 10
18.61697222222223
 20
-26.59294027777778
 30
0.0
 10
17.83600555555555
 20
-26.59294027777778
 30
0.0
 10
17.20291388888889
 20
-27.22604027777778
 30
0.0
 10
17.20291388888889
 20
-28.0070125
 30
0.0
 10
17.20291388888889
 20
-28.78796527777778
 30
0.0
 10
17.83600555555555
 20
-29.42107083333334
 30
0.0
 10
18.61697222222223
 20
-29.42107083333334
 30
0.0
 10
19.3979375
 20
-29.42107083333334
 30
0.0
 10
20.03103750000001
 20
-28.78796527777778
 30
0.0
 10
20.03103750000001
 20
-28.0070125
 30
0.0
 10
20.03103750000001
 20
-27.22604027777778
 30
0.0
 10
19.3979375
 20
-26.59294027777778
 30
0.0
 10
18.61697222222223
 20
-26.59294027777778
 30
0.0
  0
HATCH
  5
45
330
1F
100
AcDbEntity
  8
Layer 1
 62
    35
420
 10579544
100
AcDbHatch
 10
0.0
 20
0.0
 30
0.0
210
0.0
220
0.0
230
1.0
  2
SOLID
 70
     1
 71
     0
 91
        1
 92
        1
 93
        1
 72
     4
 94
        3
 73
     0
 74
     1
 95
       17
 96
       13
 40
0.0
 40
0.0
 40
0.0
 40
0.0
 40
1.0
 40
1.0
 40
1.0
 40
2.0
 40
2.0
 40
2.0
 40
3.0
 40
3.0
 40
3.0
 40
4.0
 40
4.0
 40
4.0
 40
4.0
 10
18.61697222222223
 20
-26.59294027777778
 10
17.83600555555555
 20
-26.59294027777778
 10
17.20291388888889
 20
-27.22604027777778
 10
17.20291388888889
 20
-28.0070125
 10
17.20291388888889
 20
-28.78796527777778
 10
17.83600555555555
 20
-29.42107083333334
 10
18.61697222222223
 20
-29.42107083333334
 10
19.3979375
 20
-29.42107083333334
 10
20.03103750000001
 20
-28.78796527777778
 10
20.03103750000001
 20
-28.0070125
 10
20.03103750000001
 20
-27.22604027777778
 10
19.3979375
 20
-26.59294027777778
 10
18.61697222222223
 20
-26.59294027777778
 97
        0
 97
        0
 75
     2
 76
     1
 98
        0
  0
SPLINE
  5
46
330
1F
100
AcDbEntity
  8
Layer 1
370
     0
100
AcDbSpline
210
0.0
220
0.0
230
1.0
 70
    11
 71
     3
 72
    17
 73
    13
 74
     0
 42
0.0000000001
 43
0.0000000001
 12
1.0
 22
0.0
 32
0.0
 13
1.0
 23
0.0
 33
0.0
 40
0.0
 40
0.0
 40
0.0
 40
0.0
 40
1.0
 40
1.0
 40
1.0
 40
2.0
 40
2.0
 40
2.0
 40
3.0
 40
3.0
 40
3.0
 40
4.0
 40
4.0
 40
4.0
 40
4.0
 10
18.61777638888889
 20
-26.19982361111111
 30
0.0
 10
17.62271666666667
 20
-26.19982361111111
 30
0.0
 10
16.81316805555555
 20
-27.00937361111111
 30
0.0
 10
16.81316805555555
 20
-28.00446111111111
 30
0.0
 10
16.81316805555555
 20
-28.99951388888889
 30
0.0
 10
17.62271666666667
 20
-29.80906388888889
 30
0.0
 10
18.61777638888889
 20
-29.80906388888889
 30
0.0
 10
19.61285694444445
 20
-29.80906388888889
 30
0.0
 10
20.42240694444445
 20
-28.99951388888889
 30
0.0
 10
20.42240694444445
 20
-28.00446111111111
 30
0.0
 10
20.42240694444445
 20
-27.00937361111111
 30
0.0
 10
19.61285694444445
 20
-26.19982361111111
 30
0.0
 10
18.61777638888889
 20
-26.19982361111111
 30
0.0
  0
SPLINE
  5
47
330
1F
100
AcDbEntity
  8
Layer 1
370
     0
100
AcDbSpline
210
0.0
220
0.0
230
1.0
 70
    11
 71
     3
 72
    17
 73
    13
 74
     0
 42
0.0000000001
 43
0.0000000001
 12
1.0
 22
0.0
 32
0.0
 13
1.0
 23
0.0
 33
0.0
 40
0.0
 40
0.0
 40
0.0
 40
0.0
 40
1.0
 40
1.0
 40
1.0
 40
2.0
 40
2.0
 40
2.0
 40
3.0
 40
3.0
 40
3.0
 40
4.0
 40
4.0
 40
4.0
 40
4.0
 10
20.29980833333333
 20
-28.00446111111111
 30
0.0
 10
20.29980833333333
 20
-28.93192777777777
 30
0.0
 10
19.54524305555555
 20
-29.68646527777777
 30
0.0
 10
18.61777638888889
 20
-29.68646527777777
 30
0.0
 10
17.69030416666667
 20
-29.68646527777777
 30
0.0
 10
16.93577222222223
 20
-28.93192777777777
 30
0.0
 10
16.93577222222223
 20
-28.00446111111111
 30
0.0
 10
16.93577222222223
 20
-27.0769875
 30
0.0
 10
17.69030416666667
 20
-26.32245694444444
 30
0.0
 10
18.61777638888889
 20
-26.32245694444444
 30
0.0
 10
19.54524305555555
 20
-26.32245694444444
 30
0.0
 10
20.29980833333333
 20
-27.0769875
 30
0.0
 10
20.29980833333333
 20
-28.00446111111111
 30
0.0
  0
HATCH
  5
48
330
1F
100
AcDbEntity
  8
Layer 1
 62
    35
420
 10579544
100
AcDbHatch
 10
0.0
 20
0.0
 30
0.0
210
0.0
220
0.0
230
1.0
  2
SOLID
 70
     1
 71
     0
 91
        2
 92
        1
 93
        1
 72
     4
 94
        3
 73
     0
 74
     1
 95
       17
 96
       13
 40
0.0
 40
0.0
 40
0.0
 40
0.0
 40
1.0
 40
1.0
 40
1.0
 40
2.0
 40
2.0
 40
2.0
 40
3.0
 40
3.0
 40
3.0
 40
4.0
 40
4.0
 40
4.0
 40
4.0
 10
18.61777638888889
 20
-26.19982361111111
 10
17.62271666666667
 20
-26.19982361111111
 10
16.81316805555555
 20
-27.00937361111111
 10
16.81316805555555
 20
-28.00446111111111
 10
16.81316805555555
 20
-28.99951388888889
 10
17.62271666666667
 20
-29.80906388888889
 10
18.61777638888889
 20
-29.80906388888889
 10
19.61285694444445
 20
-29.80906388888889
 10
20.42240694444445
 20
-28.99951388888889
 10
20.42240694444445
 20
-28.00446111111111
 10
20.42240694444445
 20
-27.00937361111111
 10
19.61285694444445
 20
-26.19982361111111
 10
18.61777638888889
 20
-26.19982361111111
 97
        0
 97
        0
 92
        1
 93
        1
 72
     4
 94
        3
 73
     0
 74
     1
 95
       17
 96
       13
 40
0.0
 40
0.0
 40
0.0
 40
0.0
 40
1.0
 40
1.0
 40
1.0
 40
2.0
 40
2.0
 40
2.0
 40
3.0
 40
3.0
 40
3.0
 40
4.0
 40
4.0
 40
4.0
 40
4.0
 10
20.29980833333333
 20
-28.00446111111111
 10
20.29980833333333
 20
-28.93192777777777
 10
19.54524305555555
 20
-29.68646527777777
 10
18.61777638888889
 20
-29.68646527777777
 10
17.69030416666667
 20
-29.68646527777777
 10
16.93577222222223
 20
-28.93192777777777
 10
16.93577222222223
 20
-28.00446111111111
 10
16.93577222222223
 20
-27.0769875
 10
17.69030416666667
 20
-26.32245694444444
 10
18.61777638888889
 20
-26.32245694444444
 10
19.54524305555555
 20
-26.32245694444444
 10
20.29980833333333
 20
-27.0769875
 10
20.29980833333333
 20
-28.00446111111111
 97
        0
 97
        0
 75
     2
 76
     1
 98
        0
  0
SPLINE
  5
49
330
1F
100
AcDbEntity
  8
Layer 1
370
     0
100
AcDbSpline
210
0.0
220
0.0
230
1.0
 70
    11
 71
     3
 72
   452
 73
   448
 74
     0
 42
0.0000000001
 43
0.0000000001
 12
1.0
 22
0.0
 32
0.0
 13
1.0
 23
0.0
 33
0.0
 40
0.0
 40
0.0
 40
0.0
 40
0.0
 40
1.0
 40
1.0
 40
1.0
 40
2.0
 40
2.0
 40
2.0
 40
3.0
 40
3.0
 40
3.0
 40
4.0
 40
4.0
 40
4.0
 40
5.0
 40
5.0
 40
5.0
 40
6.0
 40
6.0
 40
6.0
 40
7.0
 40
7.0
 40
7.0
 40
8.0
 40
8.0
 40
8.0
 40
9.0
 40
9.0
 40
9.0
 40
10.0
 40
10.0
 40
10.0
 40
11.0
 40
11.0
 40
11.0
 40
12.0
 40
12.0
 40
12.0
 40
13.0
 40
13.0
 40
13.0
 40
14.0
 40
14.0
 40
14.0
 40
15.0
 40
15.0
 40
15.0
 40
16.0
 40
16.0
 40
16.0
 40
17.0
 40
17.0
 40
17.0
 40
18.0
 40
18.0
 40
18.0
 40
19.0
 40
19.0
 40
19.0
 40
20.0
 40
20.0
 40
20.0
 40
21.0
 40
21.0
 40
21.0
 40
22.0
 40
22.0
 40
22.0
 40
23.0
 40
23.0
 40
23.0
 40
24.0
 40
24.0
 40
24.0
 40
25.0
 40
25.0
 40
25.0
 40
26.0
 40
26.0
 40
26.0
 40
27.0
 40
27.0
 40
27.0
 40
28.0
 40
28.0
 40
28.0
 40
29.0
 40
29.0
 40
29.0
 40
30.0
 40
30.0
 40
30.0
 40
31.0
 40
31.0
 40
31.0
 40
32.0
 40
32.0
 40
32.0
 40
33.0
 40
33.0
 40
33.0
 40
34.0
 40
34.0
 40
34.0
 40
35.0
 40
35.0
 40
35.0
 40
36.0
 40
36.0
 40
36.0
 40
37.0
 40
37.0
 40
37.0
 40
38.0
 40
38.0
 40
38.0
 40
39.0
 40
39.0
 40
39.0
 40
40.0
 40
40.0
 40
40.0
 40
41.0
 40
41.0
 40
41.0
 40
42.0
 40
42.0
 40
42.0
 40
43.0
 40
43.0
 40
43.0
 40
44.0
 40
44.0
 40
44.0
 40
45.0
 40
45.0
 40
45.0
 40
46.0
 40
46.0
 40
46.0
 40
47.0
 40
47.0
 40
47.0
 40
48.0
 40
48.0
 40
48.0
 40
49.0
 40
49.0
 40
49.0
 40
50.0
 40
50.0
 40
50.0
 40
51.0
 40
51.0
 40
51.0
 40
52.0
 40
52.0
 40
52.0
 40
53.0
 40
53.0
 40
53.0
 40
54.0
 40
54.0
 40
54.0
 40
55.0
 40
55.0
 40
55.0
 40
56.0
 40
56.0
 40
56.0
 40
57.0
 40
57.0
 40
57.0
 40
58.0
 40
58.0
 40
58.0
 40
59.0
 40
59.0
 40
59.0
 40
60.0
 40
60.0
 40
60.0
 40
61.0
 40
61.0
 40
61.0
 40
62.0
 40
62.0
 40
62.0
 40
63.0
 40
63.0
 40
63.0
 40
64.0
 40
64.0
 40
64.0
 40
65.0
 40
65.0
 40
65.0
 40
66.0
 40
66.0
 40
66.0
 40
67.0
 40
67.0
 40
67.0
 40
68.0
 40
68.0
 40
68.0
 40
69.0
 40
69.0
 40
69.0
 40
70.0
 40
70.0
 40
70.0
 40
71.0
 40
71.0
 40
71.0
 40
72.0
 40
72.0
 40
72.0
 40
73.0
 40
73.0
 40
73.0
 40
74.0
 40
74.0
 40
74.0
 40
75.0
 40
75.0
 40
75.0
 40
76.0
 40
76.0
 40
76.0
 40
77.0
 40
77.0
 40
77.0
 40
78.0
 40
78.0
 40
78.0
 40
79.0
 40
79.0
 40
79.0
 40
80.0
 40
80.0
 40
80.0
 40
81.0
 40
81.0
 40
81.0
 40
82.0
 40
82.0
 40
82.0
 40
83.0
 40
83.0
 40
83.0
 40
84.0
 40
84.0
 40
84.0
 40
85.0
 40
85.0
 40
85.0
 40
86.0
 40
86.0
 40
86.0
 40
87.0
 40
87.0
 40
87.0
 40
88.0
 40
88.0
 40
88.0
 40
89.0
 40
89.0
 40
89.0
 40
90.0
 40
90.0
 40
90.0
 40
91.0
 40
91.0
 40
91.0
 40
92.0
 40
92.0
 40
92.0
 40
93.0
 40
93.0
 40
93.0
 40
94.0
 40
94.0
 40
94.0
 40
95.0
 40
95.0
 40
95.0
 40
96.0
 40
96.0
 40
96.0
 40
97.0
 40
97.0
 40
97.0
 40
98.0
 40
98.0
 40
98.0
 40
99.0
 40
99.0
 40
99.0
 40
100.0
 40
100.0
 40
100.0
 40
101.0
 40
101.0
 40
101.0
 40
102.0
 40
102.0
 40
102.0
 40
103.0
 40
103.0
 40
103.0
 40
104.0
 40
104.0
 40
104.0
 40
105.0
 40
105.0
 40
105.0
 40
106.0
 40
106.0
 40
106.0
 40
107.0
 40
107.0
 40
107.0
 40
108.0
 40
108.0
 40
108.0
 40
109.0
 40
109.0
 40
109.0
 40
110.0
 40
110.0
 40
110.0
 40
111.0
 40
111.0
 40
111.0
 40
112.0
 40
112.0
 40
112.0
 40
113.0
 40
113.0
 40
113.0
 40
114.0
 40
114.0
 40
114.0
 40
115.0
 40
115.0
 40
115.0
 40
116.0
 40
116.0
 40
116.0
 40
117.0
 40
117.0
 40
117.0
 40
118.0
 40
118.0
 40
118.0
 40
119.0
 40
119.0
 40
119.0
 40
120.0
 40
120.0
 40
120.0
 40
121.0
 40
121.0
 40
121.0
 40
122.0
 40
122.0
 40
122.0
 40
123.0
 40
123.0
 40
123.0
 40
124.0
 40
124.0
 40
124.0
 40
125.0
 40
125.0
 40
125.0
 40
126.0
 40
126.0
 40
126.0
 40
127.0
 40
127.0
 40
127.0
 40
128.0
 40
128.0
 40
128.0
 40
129.0
 40
129.0
 40
129.0
 40
130.0
 40
130.0
 40
130.0
 40
131.0
 40
131.0
 40
131.0
 40
132.0
 40
132.0
 40
132.0
 40
133.0
 40
133.0
 40
133.0
 40
134.0
 40
134.0
 40
134.0
 40
135.0
 40
135.0
 40
135.0
 40
136.0
 40
136.0
 40
136.0
 40
137.0
 40
137.0
 40
137.0
 40
138.0
 40
138.0
 40
138.0
 40
139.0
 40
139.0
 40
139.0
 40
140.0
 40
140.0
 40
140.0
 40
141.0
 40
141.0
 40
141.0
 40
142.0
 40
142.0
 40
142.0
 40
143.0
 40
143.0
 40
143.0
 40
144.0
 40
144.0
 40
144.0
 40
145.0
 40
145.0
 40
145.0
 40
146.0
 40
146.0
 40
146.0
 40
147.0
 40
147.0
 40
147.0
 40
148.0
 40
148.0
 40
148.0
 40
149.0
 40
149.0
 40
149.0
 40
149.0
 10
15.18944305555556
 20
-29.53538611111111
 30
0.0
 10
15.14317222222222
 20
-29.55705694444444
 30
0.0
 10
15.10484444444445
 20
-29.58903194444444
 30
0.0
 10
15.07346388888888
 20
-29.61745277777777
 30
0.0
 10
15.02098333333333
 20
-29.66496388888888
 30
0.0
 10
14.96831944444444
 20
-29.71305694444444
 30
0.0
 10
14.91545833333334
 20
-29.7613875
 30
0.0
 10
14.74363472222222
 20
-29.9183625
 30
0.0
 10
14.56595
 20
-30.08069444444444
 30
0.0
 10
14.38503194444445
 20
-30.23020416666667
 30
0.0
 10
14.13601388888888
 20
-30.43599444444444
 30
0.0
 10
13.93584583333333
 20
-30.61516666666666
 30
0.0
 10
13.81776492871167
 20
-30.8851125
 30
0.0
 10
13.81671353984934
 20
-30.88752083333333
 30
0.0
 10
13.81563576209879
 20
-30.88997777777778
 30
0.0
 10
13.81460520656927
 20
-30.89241388888889
 30
0.0
 10
13.77992881855637
 20
-30.97320416666667
 30
0.0
 10
13.74735243049044
 20
-31.05498333333334
 30
0.0
 10
13.71584826461963
 20
-31.13404027777779
 30
0.0
 10
13.64321909978773
 20
-31.31636527777778
 30
0.0
 10
13.57462882374269
 20
-31.48860416666667
 30
0.0
 10
13.47894965949308
 20
-31.65936944444444
 30
0.0
 10
13.4783357706197
 20
-31.66048194444445
 30
0.0
 10
13.47483577070812
 20
-31.66262500000001
 30
0.0
 10
13.46982049305704
 20
-31.66568888888888
 30
0.0
 10
13.41452188334289
 20
-31.69965555555556
 30
0.0
 10
13.36257466243296
 20
-31.73770416666667
 30
0.0
 10
13.3234899411981
 20
-31.76706527777777
 30
0.0
 10
13.11458716869765
 20
-31.92411527777777
 30
0.0
 10
13.06530105883161
 20
-32.205375
 30
0.0
 10
13.02177328215344
 20
-32.45354583333334
 30
0.0
 10
13.01613717118471
 20
-32.4856986111111
 30
0.0
 10
13.01063888888888
 20
-32.5171888888889
 30
0.0
 10
13.00488578258005
 20
-32.54757361111112
 30
0.0
 10
13.00488578258005
 20
-32.54757361111112
 30
0.0
 10
12.98919133853208
 20
-32.63105972222221
 30
0.0
 10
12.98919133853208
 20
-32.63105972222221
 30
0.0
 10
12.93369550660069
 20
-32.92715972222224
 30
0.0
 10
12.87633023027209
 20
-33.23333750000001
 30
0.0
 10
12.76290384424859
 20
-33.51634305555555
 30
0.0
 10
12.74110940035472
 20
-33.57065138888889
 30
0.0
 10
12.71852328981418
 20
-33.62459861111112
 30
0.0
 10
12.69594444444445
 20
-33.67846944444445
 30
0.0
 10
12.60429690381089
 20
-33.89717777777777
 30
0.0
 10
12.50955246175989
 20
-34.1233361111111
 30
0.0
 10
12.47636357370943
 20
-34.36780277777777
 30
0.0
 10
12.45456944444445
 20
-34.52875555555556
 30
0.0
 10
12.43565385251562
 20
-34.66277638888889
 30
0.0
 10
12.40756774211402
 20
-34.79993611111111
 30
0.0
 10
12.37580555555556
 20
-34.95506805555556
 30
0.0
 10
12.32308579980377
 20
-35.11848472222222
 30
0.0
 10
12.24166774630501
 20
-35.31416944444443
 30
0.0
 10
12.23343857984623
 20
-35.33400555555555
 30
0.0
 10
12.22333333333333
 20
-35.36035833333332
 30
0.0
 10
12.2185094135567
 20
-35.38848472222222
 30
0.0
 10
12.21229969149135
 20
-35.42456111111111
 30
0.0
 10
12.2355
 20
-35.45919027777778
 30
0.0
 10
12.27024552336085
 20
-35.4656861111111
 30
0.0
 10
12.30593857801472
 20
-35.47233194444445
 30
0.0
 10
12.33724552166829
 20
-35.44967777777778
 30
0.0
 10
12.34476496592278
 20
-35.41176666666666
 30
0.0
 10
12.34824413250155
 20
-35.39394444444444
 30
0.0
 10
12.35538888888888
 20
-35.37659166666665
 30
0.0
 10
12.36406218765751
 20
-35.35561666666667
 30
0.0
 10
12.47057746274448
 20
-35.09719583333332
 30
0.0
 10
12.54534273863353
 20
-34.82093888888888
 30
0.0
 10
12.58029968219489
 20
-34.55670416666668
 30
0.0
 10
12.61707745904358
 20
-34.27845555555556
 30
0.0
 10
12.67599829088845
 20
-34.05297916666667
 30
0.0
 10
12.76570833333334
 20
-33.8471
 30
0.0
 10
12.88447745228849
 20
-33.57449999999999
 30
0.0
 10
12.96178856144656
 20
-33.29778611111111
 30
0.0
 10
13.04372467048779
 20
-32.98940416666667
 30
0.0
 10
13.08971633599261
 20
-32.79233333333334
 30
0.0
 10
13.12777777777777
 20
-32.59121666666667
 30
0.0
 10
13.15897466757633
 20
-32.42049305555555
 30
0.0
 10
13.18611216689078
 20
-32.27201944444444
 30
0.0
 10
13.22551772145087
 20
-32.14128750000001
 30
0.0
 10
13.28011910896041
 20
-32.02197916666667
 30
0.0
 10
13.30565938609298
 20
-31.96577361111111
 30
0.0
 10
13.34180382962434
 20
-31.91797499999999
 30
0.0
 10
13.38984827285508
 20
-31.87719027777777
 30
0.0
 10
13.34327049625396
 20
-32.01337361111111
 30
0.0
 10
13.31339688589752
 20
-32.1430347222222
 30
0.0
 10
13.29884966404279
 20
-32.27199305555556
 30
0.0
 10
13.29239410865032
 20
-32.32906388888889
 30
0.0
 10
13.32351633008632
 20
-32.35332916666668
 30
0.0
 10
13.35483716262843
 20
-32.35701388888889
 30
0.0
 10
13.36918716226592
 20
-32.35869861111112
 30
0.0
 10
13.41668577217711
 20
-32.35871249999998
 30
0.0
 10
13.42600000000001
 20
-32.28873055555555
 30
0.0
 10
13.43550382725728
 20
-32.21693333333332
 30
0.0
 10
13.44824410471321
 20
-32.13253333333333
 30
0.0
 10
13.47061771525912
 20
-32.05067222222222
 30
0.0
 10
13.51139549200676
 20
-31.90166666666667
 30
0.0
 10
13.58530799013958
 20
-31.75717222222223
 30
0.0
 10
13.65684548833239
 20
-31.61747361111111
 30
0.0
 10
13.68430382097207
 20
-31.56383333333332
 30
0.0
 10
13.71268298692181
 20
-31.50837916666667
 30
0.0
 10
13.7388302084835
 20
-31.45338888888889
 30
0.0
 10
13.78464965177045
 20
-31.35696527777779
 30
0.0
 10
13.82045381753263
 20
-31.25563611111112
 30
0.0
 10
13.85502777777778
 20
-31.15768472222223
 30
0.0
 10
13.89485694444444
 20
-31.04482361111112
 30
0.0
 10
13.93601666666667
 20
-30.92805972222221
 30
0.0
 10
13.99254305555555
 20
-30.82028194444443
 30
0.0
 10
14.05044027777778
 20
-30.70965138888889
 30
0.0
 10
14.12697916666666
 20
-30.611325
 30
0.0
 10
14.21995694444445
 20
-30.52803055555556
 30
0.0
 10
14.28329305555556
 20
-30.47126527777777
 30
0.0
 10
14.35200555555555
 20
-30.41808333333333
 30
0.0
 10
14.41845972222222
 20
-30.36664027777778
 30
0.0
 10
14.45790694444444
 20
-30.33608472222221
 30
0.0
 10
14.49738750000001
 20
-30.30553611111111
 30
0.0
 10
14.53611111111111
 20
-30.27403194444445
 30
0.0
 10
14.65694166666666
 20
-30.17573194444445
 30
0.0
 10
14.77242361111111
 20
-30.06845277777778
 30
0.0
 10
14.88409722222222
 20
-29.96472222222222
 30
0.0
 10
14.93469305555555
 20
-29.91773472222222
 30
0.0
 10
14.98529722222222
 20
-29.87073472222222
 30
0.0
 10
15.03648611111112
 20
-29.82442361111111
 30
0.0
 10
15.05286944444444
 20
-29.809575
 30
0.0
 10
15.0689875
 20
-29.79439305555555
 30
0.0
 10
15.08507638888889
 20
-29.77920416666666
 30
0.0
 10
15.13136111111112
 20
-29.73547916666666
 30
0.0
 10
15.17512638888888
 20
-29.69418333333333
 30
0.0
 10
15.22809722222222
 20
-29.65944444444444
 30
0.0
 10
15.24040694444444
 20
-29.65137222222222
 30
0.0
 10
15.25726111111111
 20
-29.64029722222222
 30
0.0
 10
15.26457638888889
 20
-29.64430972222222
 30
0.0
 10
15.26721666666666
 20
-29.64760555555555
 30
0.0
 10
15.26653472222223
 20
-29.66359305555555
 30
0.0
 10
15.26618611111111
 20
-29.67126944444444
 30
0.0
 10
15.26602361111111
 20
-29.67525416666667
 30
0.0
 10
15.26586666666666
 20
-29.67917777777777
 30
0.0
 10
15.26580416666666
 20
-29.6829375
 30
0.0
 10
15.26501944444444
 20
-29.75210694444445
 30
0.0
 10
15.23800555555556
 20
-29.81711527777778
 30
0.0
 10
15.2089986111111
 20
-29.87712777777779
 30
0.0
 10
15.09206388888889
 20
-30.11872777777777
 30
0.0
 10
14.92858611111112
 20
-30.30698194444443
 30
0.0
 10
14.75554166666667
 20
-30.50631111111112
 30
0.0
 10
14.69324305555556
 20
-30.57801249999999
 30
0.0
 10
14.62885000000001
 20
-30.65219861111111
 30
0.0
 10
14.56687777777778
 20
-30.72895555555556
 30
0.0
 10
14.50135277777778
 20
-30.81013472222222
 30
0.0
 10
14.42313472222222
 20
-30.92141944444446
 30
0.0
 10
14.399825
 20
-31.06294722222222
 30
0.0
 10
14.38033055555555
 20
-31.18112361111111
 30
0.0
 10
14.35266111111111
 20
-31.29510277777778
 30
0.0
 10
14.31758749999999
 20
-31.40172777777778
 30
0.0
 10
14.26099305555556
 20
-31.57363888888888
 30
0.0
 10
14.23768472222222
 20
-31.75869305555557
 30
0.0
 10
14.24830138888889
 20
-31.95177777777778
 30
0.0
 10
14.25584166666667
 20
-32.08908750000001
 30
0.0
 10
14.25903472222222
 20
-32.24870416666666
 30
0.0
 10
14.22986527777778
 20
-32.41109027777777
 30
0.0
 10
14.22986527777778
 20
-32.41109027777777
 30
0.0
 10
14.21376111111111
 20
-32.36951388888888
 30
0.0
 10
14.21376111111111
 20
-32.36951388888888
 30
0.0
 10
14.19588333333334
 20
-32.32308055555556
 30
0.0
 10
14.16070138888889
 20
-32.31455138888888
 30
0.0
 10
14.13374166666666
 20
-32.32205694444443
 30
0.0
 10
14.10429861111111
 20
-32.33025138888888
 30
0.0
 10
14.08008194444445
 20
-32.35953194444444
 30
0.0
 10
14.09224166666667
 20
-32.40642916666666
 30
0.0
 10
14.09597361111111
 20
-32.42086111111111
 30
0.0
 10
14.10094861111111
 20
-32.43462361111111
 30
0.0
 10
14.10531527777778
 20
-32.44615555555556
 30
0.0
 10
14.13862777777778
 20
-32.53453472222223
 30
0.0
 10
14.18059166666666
 20
-32.61958888888888
 30
0.0
 10
14.23004861111111
 20
-32.69894722222223
 30
0.0
 10
14.31213611111111
 20
-32.83065416666666
 30
0.0
 10
14.404875
 20
-32.92844166666666
 30
0.0
 10
14.51239305555555
 20
-32.99634999999999
 30
0.0
 10
14.51155277777778
 20
-32.99653472222222
 30
0.0
 10
14.51071388888888
 20
-32.99671805555555
 30
0.0
 10
14.50989583333333
 20
-32.99691666666667
 30
0.0
 10
14.46694166666667
 20
-33.00665416666667
 30
0.0
 10
14.42635416666667
 20
-33.01583055555554
 30
0.0
 10
14.38466944444445
 20
-33.01788472222221
 30
0.0
 10
14.35231944444445
 20
-33.01946805555556
 30
0.0
 10
14.31886388888889
 20
-33.02109166666666
 30
0.0
 10
14.289475
 20
-33.00852361111111
 30
0.0
 10
14.26611805555555
 20
-32.9985263888889
 30
0.0
 10
14.24528611111111
 20
-32.99730555555556
 30
0.0
 10
14.22759305555556
 20
-33.00493333333333
 30
0.0
 10
14.21259444444445
 20
-33.01141666666667
 30
0.0
 10
14.20138333333333
 20
-33.02362361111111
 30
0.0
 10
14.19522222222223
 20
-33.04047083333332
 30
0.0
 10
14.188425
 20
-33.05890138888887
 30
0.0
 10
14.19017916666667
 20
-33.078225
 30
0.0
 10
14.20018194444444
 20
-33.09484722222221
 30
0.0
 10
14.20910694444444
 20
-33.10972222222222
 30
0.0
 10
14.22400277777778
 20
-33.12132222222223
 30
0.0
 10
14.243225
 20
-33.12837777777776
 30
0.0
 10
14.27019166666667
 20
-33.13830694444444
 30
0.0
 10
14.29483888888889
 20
-33.14369027777777
 30
0.0
 10
14.31854305555556
 20
-33.14485000000001
 30
0.0
 10
14.43674027777778
 20
-33.15061666666666
 30
0.0
 10
14.55468472222222
 20
-33.12926527777778
 30
0.0
 10
14.67907777777778
 20
-33.07955555555557
 30
0.0
 10
14.93545138888889
 20
-32.97713472222222
 30
0.0
 10
15.13030972222222
 20
-32.7807611111111
 30
0.0
 10
15.31878194444444
 20
-32.5908763888889
 30
0.0
 10
15.34990416666667
 20
-32.55950138888888
 30
0.0
 10
15.38091111111112
 20
-32.52824305555555
 30
0.0
 10
15.41208055555555
 20
-32.49755138888887
 30
0.0
 10
15.56628472222222
 20
-32.34565277777779
 30
0.0
 10
15.75841527777778
 20
-32.18282916666665
 30
0.0
 10
16.01431805555555
 20
-32.12691805555556
 30
0.0
 10
16.06081944444444
 20
-32.11675000000001
 30
0.0
 10
16.12373888888889
 20
-32.11751527777778
 30
0.0
 10
16.15952222222222
 20
-32.14207222222222
 30
0.0
 10
16.17343472222222
 20
-32.15163194444444
 30
0.0
 10
16.18137083333333
 20
-32.16384583333333
 30
0.0
 10
16.18375277777778
 20
-32.17941805555557
 30
0.0
 10
16.18667222222221
 20
-32.1982375
 30
0.0
 10
16.17956944444445
 20
-32.22086388888889
 30
0.0
 10
16.16219722222223
 20
-32.24869722222221
 30
0.0
 10
16.11465694444444
 20
-32.32462222222221
 30
0.0
 10
16.04112777777777
 20
-32.37803055555555
 30
0.0
 10
15.96325694444445
 20
-32.43455555555556
 30
0.0
 10
15.93710972222223
 20
-32.453525
 30
0.0
 10
15.91100277777778
 20
-32.47250138888889
 30
0.0
 10
15.8859125
 20
-32.49233055555555
 30
0.0
 10
15.71202222222222
 20
-32.62983194444445
 30
0.0
 10
15.58487222222223
 20
-32.81175972222223
 30
0.0
 10
15.46191944444445
 20
-32.98771111111111
 30
0.0
 10
15.41284444444444
 20
-33.05795972222222
 30
0.0
 10
15.3620638888889
 20
-33.13056805555556
 30
0.0
 10
15.30939305555555
 20
-33.1987361111111
 30
0.0
 10
15.18601666666667
 20
-33.35835833333332
 30
0.0
 10
15.02748611111111
 20
-33.4893486111111
 30
0.0
 10
14.87414861111112
 20
-33.61602083333332
 30
0.0
 10
14.80852638888888
 20
-33.67026805555555
 30
0.0
 10
14.74063888888889
 20
-33.72634999999998
 30
0.0
 10
14.67613611111111
 20
-33.78411111111111
 30
0.0
 10
14.57815138888889
 20
-33.87191666666667
 30
0.0
 10
14.49015416666667
 20
-33.97462500000001
 30
0.0
 10
14.40505833333333
 20
-34.07394722222223
 30
0.0
 10
14.28604305555556
 20
-34.21287499999999
 30
0.0
 10
14.1629875
 20
-34.3565361111111
 30
0.0
 10
14.01257638888889
 20
-34.45839166666666
 30
0.0
 10
13.82528437296615
 20
-34.58524722222223
 30
0.0
 10
13.58938160114778
 20
-34.63983611111111
 30
0.0
 10
13.36538577347306
 20
-34.60818194444444
 30
0.0
 10
13.32828021885487
 20
-34.60294722222223
 30
0.0
 10
13.27702777777777
 20
-34.61825972222222
 30
0.0
 10
13.25979827614042
 20
-34.64937499999998
 30
0.0
 10
13.24983022083668
 20
-34.66766944444445
 30
0.0
 10
13.2522107763321
 20
-34.68867777777778
 30
0.0
 10
13.26650660930429
 20
-34.70562777777779
 30
0.0
 10
13.28044688672991
 20
-34.72208611111111
 30
0.0
 10
13.30044688622466
 20
-34.72584583333332
 30
0.0
 10
13.31113888888889
 20
-34.72784583333333
 30
0.0
 10
13.43872466050925
 20
-34.75205555555554
 30
0.0
 10
13.57153160159871
 20
-34.75150277777779
 30
0.0
 10
13.69914409837495
 20
-34.72660972222221
 30
0.0
 10
13.51206354754544
 20
-35.06524166666665
 30
0.0
 10
13.45156077129609
 20
-35.4645263888889
 30
0.0
 10
13.39790660598485
 20
-35.81917222222223
 30
0.0
 10
13.39383993942091
 20
-35.84591388888889
 30
0.0
 10
13.39873299485286
 20
-35.88161388888887
 30
0.0
 10
13.41880660545687
 20
-35.9010611111111
 30
0.0
 10
13.43087743848527
 20
-35.91274305555556
 30
0.0
 10
13.44670833333334
 20
-35.91748472222222
 30
0.0
 10
13.46333021544322
 20
-35.91440833333333
 30
0.0
 10
13.48922604812237
 20
-35.90968611111111
 30
0.0
 10
13.50612743658429
 20
-35.88858055555556
 30
0.0
 10
13.51365382528305
 20
-35.85167222222223
 30
0.0
 10
13.51365382528305
 20
-35.85167222222223
 30
0.0
 10
13.60958576730405
 20
-35.38059722222222
 30
0.0
 10
13.60958576730405
 20
-35.38059722222222
 30
0.0
 10
13.66948993245741
 20
-35.08680416666667
 30
0.0
 10
13.73462048636763
 20
-34.83004166666667
 30
0.0
 10
13.92546111111111
 20
-34.66328194444443
 30
0.0
 10
13.97226944444444
 20
-34.62241527777776
 30
0.0
 10
14.02428611111111
 20
-34.58950555555556
 30
0.0
 10
14.07935833333333
 20
-34.5546638888889
 30
0.0
 10
14.1227361111111
 20
-34.52722777777777
 30
0.0
 10
14.16760000000001
 20
-34.49885555555556
 30
0.0
 10
14.20927083333333
 20
-34.46640972222222
 30
0.0
 10
14.31452361111111
 20
-34.38445833333334
 30
0.0
 10
14.39706111111112
 20
-34.27864583333333
 30
0.0
 10
14.47687638888889
 20
-34.17632083333332
 30
0.0
 10
14.52668055555556
 20
-34.11244583333334
 30
0.0
 10
14.57819166666667
 20
-34.04641527777777
 30
0.0
 10
14.63426111111111
 20
-33.98765
 30
0.0
 10
14.72340277777778
 20
-33.89420972222224
 30
0.0
 10
14.82910555555556
 20
-33.81390277777778
 30
0.0
 10
14.93135
 20
-33.73623055555554
 30
0.0
 10
15.02044444444444
 20
-33.66854166666667
 30
0.0
 10
15.11254861111111
 20
-33.59853194444445
 30
0.0
 10
15.19498333333334
 20
-33.51920277777776
 30
0.0
 10
15.3286625
 20
-33.39051805555555
 30
0.0
 10
15.4376
 20
-33.23667500000001
 30
0.0
 10
15.54292083333333
 20
-33.08790833333334
 30
0.0
 10
15.66788750000001
 20
-32.91141111111111
 30
0.0
 10
15.79709722222222
 20
-32.72890833333334
 30
0.0
 10
15.96600694444444
 20
-32.5930111111111
 30
0.0
 10
15.99192222222223
 20
-32.57216527777778
 30
0.0
 10
16.01954444444444
 20
-32.5517638888889
 30
0.0
 10
16.04626527777778
 20
-32.53205
 30
0.0
 10
16.1183625
 20
-32.47887500000002
 30
0.0
 10
16.19287499999999
 20
-32.42387083333334
 30
0.0
 10
16.2487125
 20
-32.34984166666666
 30
0.0
 10
16.26596944444444
 20
-32.32698333333335
 30
0.0
 10
16.27977916666666
 20
-32.3035236111111
 30
0.0
 10
16.29003611111111
 20
-32.28007083333333
 30
0.0
 10
16.31317361111111
 20
-32.22717500000001
 30
0.0
 10
16.318175
 20
-32.1743
 30
0.0
 10
16.3033
 20
-32.12831666666668
 30
0.0
 10
16.2812125
 20
-32.05993055555556
 30
0.0
 10
16.21398055555556
 20
-32.00642083333334
 30
0.0
 10
16.13204305555555
 20
-31.9920375
 30
0.0
 10
16.05558611111111
 20
-31.97860138888889
 30
0.0
 10
15.98033611111111
 20
-31.99781666666667
 30
0.0
 10
15.92333333333333
 20
-32.01606249999999
 30
0.0
 10
15.62616111111111
 20
-32.11111388888889
 30
0.0
 10
15.40986249999999
 20
-32.31998194444443
 30
0.0
 10
15.20067361111112
 20
-32.52195833333333
 30
0.0
 10
15.04732222222222
 20
-32.67002916666666
 30
0.0
 10
14.88875694444444
 20
-32.82314166666666
 30
0.0
 10
14.69792361111111
 20
-32.92997777777777
 30
0.0
 10
14.69522916666667
 20
-32.93149305555554
 30
0.0
 10
14.69150277777778
 20
-32.93385277777777
 30
0.0
 10
14.69135972222222
 20
-32.9341125
 30
0.0
 10
14.65655972222223
 20
-32.92549444444444
 30
0.0
 10
14.62296805555555
 20
-32.91628333333334
 30
0.0
 10
14.594575
 20
-32.89852777777777
 30
0.0
 10
14.48780000000001
 20
-32.83167777777778
 30
0.0
 10
14.39818055555555
 20
-32.73472916666666
 30
0.0
 10
14.32057638888889
 20
-32.60211388888888
 30
0.0
 10
14.31859722222223
 20
-32.59874305555556
 30
0.0
 10
14.31841388888889
 20
-32.59807500000001
 30
0.0
 10
14.31948472222221
 20
-32.59382361111109
 30
0.0
 10
14.31948472222221
 20
-32.59382361111109
 30
0.0
 10
14.32123194444445
 20
-32.58677499999999
 30
0.0
 10
14.32123194444445
 20
-32.58677499999999
 30
0.0
 10
14.3307638888889
 20
-32.54861805555556
 30
0.0
 10
14.34063750000001
 20
-32.50915694444443
 30
0.0
 10
14.34641111111111
 20
-32.46901527777777
 30
0.0
 10
14.34898333333333
 20
-32.45118472222222
 30
0.0
 10
14.35585416666667
 20
-32.43895694444445
 30
0.0
 10
14.3693375
 20
-32.42804583333334
 30
0.0
 10
14.38555694444444
 20
-32.41495138888889
 30
0.0
 10
14.40167361111111
 20
-32.40173472222222
 30
0.0
 10
14.41778472222222
 20
-32.38851805555555
 30
0.0
 10
14.45521111111111
 20
-32.35779861111111
 30
0.0
 10
14.49391388888888
 20
-32.32604861111112
 30
0.0
 10
14.53299305555556
 20
-32.29671388888889
 30
0.0
 10
14.57972638888889
 20
-32.2616611111111
 30
0.0
 10
14.62839861111111
 20
-32.23857083333332
 30
0.0
 10
14.68177222222222
 20
-32.22609027777778
 30
0.0
 10
14.76674583333334
 20
-32.20622777777778
 30
0.0
 10
14.84750277777778
 20
-32.17318055555554
 30
0.0
 10
14.92559722222222
 20
-32.14121249999999
 30
0.0
 10
14.96675
 20
-32.12437222222221
 30
0.0
 10
15.00929444444445
 20
-32.1069513888889
 30
0.0
 10
15.05149166666667
 20
-32.09191250000001
 30
0.0
 10
15.13104027777778
 20
-32.06351388888889
 30
0.0
 10
15.21670972222222
 20
-32.04784027777777
 30
0.0
 10
15.29956111111111
 20
-32.03267777777778
 30
0.0
 10
15.29956111111111
 20
-32.03267777777778
 30
0.0
 10
15.34154583333333
 20
-32.02516527777779
 30
0.0
 10
15.34154583333333
 20
-32.02516527777779
 30
0.0
 10
15.4158125
 20
-32.01230277777778
 30
0.0
 10
15.492625
 20
-31.99899722222221
 30
0.0
 10
15.55320416666667
 20
-31.93867777777778
 30
0.0
 10
15.60552777777778
 20
-31.88659999999999
 30
0.0
 10
15.61660138888889
 20
-31.81780555555555
 30
0.0
 10
15.58279166666667
 20
-31.75468749999999
 30
0.0
 10
15.57613194444444
 20
-31.74223472222221
 30
0.0
 10
15.56772500000001
 20
-31.73111250000001
 30
0.0
 10
15.55742083333333
 20
-31.72118472222223
 30
0.0
 10
15.58488611111112
 20
-31.71781388888889
 30
0.0
 10
15.61230277777777
 20
-31.7143263888889
 30
0.0
 10
15.639625
 20
-31.71004861111111
 30
0.0
 10
15.80471944444444
 20
-31.68414583333333
 30
0.0
 10
15.95691111111111
 20
-31.6200125
 30
0.0
 10
16.0919625
 20
-31.51941944444444
 30
0.0
 10
16.13739305555555
 20
-31.48562222222222
 30
0.0
 10
16.16830416666667
 20
-31.44336527777778
 30
0.0
 10
16.18403194444444
 20
-31.39370972222223
 30
0.0
 10
16.19967777777778
 20
-31.34403472222223
 30
0.0
 10
16.18667916666666
 20
-31.30303888888887
 30
0.0
 10
16.14535000000001
 20
-31.27182777777779
 30
0.0
 10
16.11456805555556
 20
-31.24858749999999
 30
0.0
 10
16.07788472222223
 20
-31.23594305555556
 30
0.0
 10
16.02989583333333
 20
-31.23205416666666
 30
0.0
 10
15.91260555555555
 20
-31.22256249999999
 30
0.0
 10
15.794675
 20
-31.22916111111113
 30
0.0
 10
15.68061388888889
 20
-31.23553333333333
 30
0.0
 10
15.64835833333334
 20
-31.23733472222221
 30
0.0
 10
15.61609722222223
 20
-31.23915000000001
 30
0.0
 10
15.58382777777778
 20
-31.24061111111112
 30
0.0
 10
15.51464444444444
 20
-31.24372222222223
 30
0.0
 10
15.44460833333333
 20
-31.2490861111111
 30
0.0
 10
15.37689166666667
 20
-31.25427777777776
 30
0.0
 10
15.436325
 20
-31.21730138888887
 30
0.0
 10
15.50398611111111
 20
-31.189775
 30
0.0
 10
15.58880277777777
 20
-31.16800833333332
 30
0.0
 10
15.7689638888889
 20
-31.12173194444444
 30
0.0
 10
15.93545138888889
 20
-31.04165694444444
 30
0.0
 10
16.08367222222223
 20
-30.93001805555556
 30
0.0
 10
16.12091388888889
 20
-30.90197361111111
 30
0.0
 10
16.16747777777778
 20
-30.86232083333334
 30
0.0
 10
16.19726944444445
 20
-30.80421944444444
 30
0.0
 10
16.23297777777778
 20
-30.73409444444443
 30
0.0
 10
16.23432777777778
 20
-30.67797777777779
 30
0.0
 10
16.20061944444444
 20
-30.63724027777776
 30
0.0
 10
16.12193055555556
 20
-30.54217499999999
 30
0.0
 10
15.88157916666667
 20
-30.58629583333332
 30
0.0
 10
15.8036
 20
-30.60923055555554
 30
0.0
 10
15.77345416666667
 20
-30.61809444444444
 30
0.0
 10
15.74330138888889
 20
-30.62719027777777
 30
0.0
 10
15.7131
 20
-30.63630555555556
 30
0.0
 10
15.59843749999999
 20
-30.6709361111111
 30
0.0
 10
15.47987222222222
 20
-30.70674583333334
 30
0.0
 10
15.36131388888889
 20
-30.72840972222222
 30
0.0
 10
15.13854583333333
 20
-30.76912638888888
 30
0.0
 10
14.95025833333333
 20
-30.84094305555555
 30
0.0
 10
14.72728611111111
 20
-30.93061111111109
 30
0.0
 10
14.6770236111111
 20
-30.95082222222221
 30
0.0
 10
14.61821111111111
 20
-30.97275972222221
 30
0.0
 10
14.5548625
 20
-30.98666666666665
 30
0.0
 10
14.56302361111111
 20
-30.96670138888888
 30
0.0
 10
14.57235138888889
 20
-30.9465375
 30
0.0
 10
14.5837125
 20
-30.92759583333335
 30
0.0
 10
14.66794861111111
 20
-30.78690833333333
 30
0.0
 10
14.78082361111111
 20
-30.66332777777777
 30
0.0
 10
14.8900125
 20
-30.54383333333334
 30
0.0
 10
15.00210277777777
 20
-30.4211125
 30
0.0
 10
15.11801388888889
 20
-30.29421527777778
 30
0.0
 10
15.20610555555556
 20
-30.14644583333333
 30
0.0
 10
15.20610555555556
 20
-30.14644583333333
 30
0.0
 10
15.22563472222221
 20
-30.11396527777778
 30
0.0
 10
15.22563472222221
 20
-30.11396527777778
 30
0.0
 10
15.31251111111111
 20
-29.96999583333334
 30
0.0
 10
15.43145972222222
 20
-29.77283055555555
 30
0.0
 10
15.38204305555555
 20
-29.60085694444444
 30
0.0
 10
15.36604166666666
 20
-29.54506805555555
 30
0.0
 10
15.32174444444445
 20
-29.51332499999999
 30
0.0
 10
15.26355277777778
 20
-29.51593888888889
 30
0.0
 10
15.23934305555556
 20
-29.51702361111111
 30
0.0
 10
15.21509861111111
 20
-29.52339027777778
 30
0.0
 10
15.18944305555556
 20
-29.53538611111111
 30
0.0
  0
SPLINE
  5
4A
330
1F
100
AcDbEntity
  8
Layer 1
370
     0
100
AcDbSpline
210
0.0
220
0.0
230
1.0
 70
    11
 71
     3
 72
    59
 73
    55
 74
     0
 42
0.0000000001
 43
0.0000000001
 12
1.0
 22
0.0
 32
0.0
 13
1.0
 23
0.0
 33
0.0
 40
0.0
 40
0.0
 40
0.0
 40
0.0
 40
1.0
 40
1.0
 40
1.0
 40
2.0
 40
2.0
 40
2.0
 40
3.0
 40
3.0
 40
3.0
 40
4.0
 40
4.0
 40
4.0
 40
5.0
 40
5.0
 40
5.0
 40
6.0
 40
6.0
 40
6.0
 40
7.0
 40
7.0
 40
7.0
 40
8.0
 40
8.0
 40
8.0
 40
9.0
 40
9.0
 40
9.0
 40
10.0
 40
10.0
 40
10.0
 40
11.0
 40
11.0
 40
11.0
 40
12.0
 40
12.0
 40
12.0
 40
13.0
 40
13.0
 40
13.0
 40
14.0
 40
14.0
 40
14.0
 40
15.0
 40
15.0
 40
15.0
 40
16.0
 40
16.0
 40
16.0
 40
17.0
 40
17.0
 40
17.0
 40
18.0
 40
18.0
 40
18.0
 40
18.0
 10
15.99715694444444
 20
-30.69744444444445
 30
0.0
 10
16.01766805555556
 20
-30.69416944444444
 30
0.0
 10
16.03862916666667
 20
-30.69449722222222
 30
0.0
 10
16.06126388888889
 20
-30.69846805555554
 30
0.0
 10
16.07554444444444
 20
-30.70095833333332
 30
0.0
 10
16.08549305555555
 20
-30.70574166666668
 30
0.0
 10
16.08854305555556
 20
-30.71159722222223
 30
0.0
 10
16.09229027777778
 20
-30.71876111111111
 30
0.0
 10
16.08994999999999
 20
-30.73352083333333
 30
0.0
 10
16.08273749999999
 20
-30.74863472222222
 30
0.0
 10
16.06946527777778
 20
-30.77167083333332
 30
0.0
 10
16.04754166666666
 20
-30.79584722222221
 30
0.0
 10
16.02103888888889
 20
-30.81671944444444
 30
0.0
 10
15.88273333333334
 20
-30.92555555555555
 30
0.0
 10
15.72125416666667
 20
-31.00353472222223
 30
0.0
 10
15.54105833333334
 20
-31.04851527777777
 30
0.0
 10
15.44805416666667
 20
-31.07174166666666
 30
0.0
 10
15.36016666666666
 20
-31.11022638888888
 30
0.0
 10
15.27239583333333
 20
-31.16619305555557
 30
0.0
 10
15.22095416666667
 20
-31.19895972222222
 30
0.0
 10
15.16345138888889
 20
-31.23152222222221
 30
0.0
 10
15.09654722222222
 20
-31.26571388888889
 30
0.0
 10
15.04373333333333
 20
-31.2927013888889
 30
0.0
 10
14.983775
 20
-31.31393611111111
 30
0.0
 10
14.9132125
 20
-31.33063333333333
 30
0.0
 10
14.77209583333333
 20
-31.36408194444445
 30
0.0
 10
14.64824861111111
 20
-31.43421388888888
 30
0.0
 10
14.53455555555556
 20
-31.54501527777779
 30
0.0
 10
14.49244027777778
 20
-31.58607916666667
 30
0.0
 10
14.44518055555555
 20
-31.62573055555557
 30
0.0
 10
14.38404861111111
 20
-31.67115416666666
 30
0.0
 10
14.39165694444445
 20
-31.61840138888889
 30
0.0
 10
14.40551527777778
 20
-31.56680277777779
 30
0.0
 10
14.4200361111111
 20
-31.51274583333333
 30
0.0
 10
14.4200361111111
 20
-31.51274583333333
 30
0.0
 10
14.42275138888889
 20
-31.50254444444444
 30
0.0
 10
14.42275138888889
 20
-31.50254444444444
 30
0.0
 10
14.43185416666667
 20
-31.468625
 30
0.0
 10
14.44164583333333
 20
-31.43486250000001
 30
0.0
 10
14.45144444444444
 20
-31.40109999999999
 30
0.0
 10
14.47731944444445
 20
-31.31173194444444
 30
0.0
 10
14.50408888888889
 20
-31.21938333333333
 30
0.0
 10
14.51797361111111
 20
-31.12293194444444
 30
0.0
 10
14.65938472222222
 20
-31.10221666666666
 30
0.0
 10
14.78507361111111
 20
-31.04845972222223
 30
0.0
 10
14.922875
 20
-30.98563611111111
 30
0.0
 10
15.05966666666667
 20
-30.92323472222223
 30
0.0
 10
15.1905138888889
 20
-30.8836861111111
 30
0.0
 10
15.3228763888889
 20
-30.86473749999999
 30
0.0
 10
15.49807083333333
 20
-30.83967361111111
 30
0.0
 10
15.66509027777778
 20
-30.78888055555555
 30
0.0
 10
15.80536111111111
 20
-30.74250000000001
 30
0.0
 10
15.86205
 20
-30.72375694444445
 30
0.0
 10
15.92480694444445
 20
-30.70902499999998
 30
0.0
 10
15.99715694444444
 20
-30.69744444444445
 30
0.0
  0
SPLINE
  5
4B
330
1F
100
AcDbEntity
  8
Layer 1
370
     0
100
AcDbSpline
210
0.0
220
0.0
230
1.0
 70
    11
 71
     3
 72
    62
 73
    58
 74
     0
 42
0.0000000001
 43
0.0000000001
 12
1.0
 22
0.0
 32
0.0
 13
1.0
 23
0.0
 33
0.0
 40
0.0
 40
0.0
 40
0.0
 40
0.0
 40
1.0
 40
1.0
 40
1.0
 40
2.0
 40
2.0
 40
2.0
 40
3.0
 40
3.0
 40
3.0
 40
4.0
 40
4.0
 40
4.0
 40
5.0
 40
5.0
 40
5.0
 40
6.0
 40
6.0
 40
6.0
 40
7.0
 40
7.0
 40
7.0
 40
8.0
 40
8.0
 40
8.0
 40
9.0
 40
9.0
 40
9.0
 40
10.0
 40
10.0
 40
10.0
 40
11.0
 40
11.0
 40
11.0
 40
12.0
 40
12.0
 40
12.0
 40
13.0
 40
13.0
 40
13.0
 40
14.0
 40
14.0
 40
14.0
 40
15.0
 40
15.0
 40
15.0
 40
16.0
 40
16.0
 40
16.0
 40
17.0
 40
17.0
 40
17.0
 40
18.0
 40
18.0
 40
18.0
 40
19.0
 40
19.0
 40
19.0
 40
19.0
 10
15.0733263888889
 20
-31.84726249999999
 30
0.0
 10
15.09038611111112
 20
-31.84325
 30
0.0
 10
15.10747222222223
 20
-31.8392513888889
 30
0.0
 10
15.12461944444444
 20
-31.83555277777777
 30
0.0
 10
15.16155555555555
 20
-31.82755555555556
 30
0.0
 10
15.19735138888889
 20
-31.81613333333333
 30
0.0
 10
15.23195277777778
 20
-31.80506527777778
 30
0.0
 10
15.24355972222222
 20
-31.80136111111111
 30
0.0
 10
15.25513333333333
 20
-31.7976486111111
 30
0.0
 10
15.26676666666666
 20
-31.7940861111111
 30
0.0
 10
15.32421388888888
 20
-31.77642777777777
 30
0.0
 10
15.38587083333333
 20
-31.77791527777777
 30
0.0
 10
15.43827638888889
 20
-31.79743750000001
 30
0.0
 10
15.46304583333333
 20
-31.80883888888889
 30
0.0
 10
15.47282361111111
 20
-31.82054861111111
 30
0.0
 10
15.47371666666667
 20
-31.82770694444444
 30
0.0
 10
15.47459722222223
 20
-31.83489166666666
 30
0.0
 10
15.46755555555555
 20
-31.84533888888889
 30
0.0
 10
15.45481666666666
 20
-31.85569583333333
 30
0.0
 10
15.45481666666666
 20
-31.85569583333333
 30
0.0
 10
15.45480972222222
 20
-31.85570972222222
 30
0.0
 10
15.45480972222222
 20
-31.85570972222222
 30
0.0
 10
15.43357499999999
 20
-31.87295972222222
 30
0.0
 10
15.40783611111111
 20
-31.88499583333333
 30
0.0
 10
15.37608611111111
 20
-31.89251666666665
 30
0.0
 10
15.32117777777777
 20
-31.90552916666666
 30
0.0
 10
15.26422222222223
 20
-31.91344444444444
 30
0.0
 10
15.21517361111111
 20
-31.91986527777779
 30
0.0
 10
15.10304305555556
 20
-31.93450138888887
 30
0.0
 10
14.99423472222222
 20
-31.96756111111111
 30
0.0
 10
14.89173194444445
 20
-32.01808194444445
 30
0.0
 10
14.81766944444444
 20
-32.05459444444445
 30
0.0
 10
14.74093888888889
 20
-32.08178749999999
 30
0.0
 10
14.66370416666667
 20
-32.09887916666667
 30
0.0
 10
14.57620555555556
 20
-32.11822499999999
 30
0.0
 10
14.49665138888889
 20
-32.15902222222222
 30
0.0
 10
14.41334861111111
 20
-32.2273125
 30
0.0
 10
14.4011013888889
 20
-32.23735694444445
 30
0.0
 10
14.38898194444444
 20
-32.24758472222222
 30
0.0
 10
14.37689861111111
 20
-32.25782638888889
 30
0.0
 10
14.3783375
 20
-32.23389722222221
 30
0.0
 10
14.37965416666667
 20
-32.20943472222221
 30
0.0
 10
14.37987361111112
 20
-32.18501944444443
 30
0.0
 10
14.37993472222222
 20
-32.17764305555556
 30
0.0
 10
14.38098472222222
 20
-32.17567777777779
 30
0.0
 10
14.38093055555555
 20
-32.17573333333333
 30
0.0
 10
14.38093055555555
 20
-32.17571944444444
 30
0.0
 10
14.38210416666667
 20
-32.17449166666668
 30
0.0
 10
14.38663472222222
 20
-32.17282638888888
 30
0.0
 10
14.5182875
 20
-32.12405833333334
 30
0.0
 10
14.63304583333334
 20
-32.04826249999999
 30
0.0
 10
14.73930138888889
 20
-31.97482083333335
 30
0.0
 10
14.82010555555555
 20
-31.91899166666667
 30
0.0
 10
14.90664166666666
 20
-31.88178333333333
 30
0.0
 10
14.99656250000001
 20
-31.86422638888888
 30
0.0
 10
15.02227361111111
 20
-31.85920416666666
 30
0.0
 10
15.04779305555556
 20
-31.85324027777779
 30
0.0
 10
15.0733263888889
 20
-31.84726249999999
 30
0.0
  0
SPLINE
  5
4C
330
1F
100
AcDbEntity
  8
Layer 1
370
     0
100
AcDbSpline
210
0.0
220
0.0
230
1.0
 70
    11
 71
     3
 72
    53
 73
    49
 74
     0
 42
0.0000000001
 43
0.0000000001
 12
1.0
 22
0.0
 32
0.0
 13
1.0
 23
0.0
 33
0.0
 40
0.0
 40
0.0
 40
0.0
 40
0.0
 40
1.0
 40
1.0
 40
1.0
 40
2.0
 40
2.0
 40
2.0
 40
3.0
 40
3.0
 40
3.0
 40
4.0
 40
4.0
 40
4.0
 40
5.0
 40
5.0
 40
5.0
 40
6.0
 40
6.0
 40
6.0
 40
7.0
 40
7.0
 40
7.0
 40
8.0
 40
8.0
 40
8.0
 40
9.0
 40
9.0
 40
9.0
 40
10.0
 40
10.0
 40
10.0
 40
11.0
 40
11.0
 40
11.0
 40
12.0
 40
12.0
 40
12.0
 40
13.0
 40
13.0
 40
13.0
 40
14.0
 40
14.0
 40
14.0
 40
15.0
 40
15.0
 40
15.0
 40
16.0
 40
16.0
 40
16.0
 40
16.0
 10
14.64025138888889
 20
-31.88718750000001
 30
0.0
 10
14.56659861111111
 20
-31.93898472222223
 30
0.0
 10
14.47829583333333
 20
-31.99711388888889
 30
0.0
 10
14.37856944444444
 20
-32.03831388888888
 30
0.0
 10
14.37507638888889
 20
-31.96104444444444
 30
0.0
 10
14.37383472222223
 20
-31.89678749999999
 30
0.0
 10
14.37467361111111
 20
-31.83684305555554
 30
0.0
 10
14.37470138888889
 20
-31.83416111111111
 30
0.0
 10
14.37481666666667
 20
-31.83259166666668
 30
0.0
 10
14.37485833333334
 20
-31.83199166666668
 30
0.0
 10
14.46131805555555
 20
-31.77866527777777
 30
0.0
 10
14.54532222222223
 20
-31.71254583333333
 30
0.0
 10
14.62451666666667
 20
-31.63545416666665
 30
0.0
 10
14.71469583333333
 20
-31.54761388888889
 30
0.0
 10
14.8223375
 20
-31.48788194444445
 30
0.0
 10
14.96322222222222
 20
-31.44749305555557
 30
0.0
 10
15.07247361111111
 20
-31.41616666666667
 30
0.0
 10
15.18987222222222
 20
-31.3965138888889
 30
0.0
 10
15.32205833333334
 20
-31.38738472222222
 30
0.0
 10
15.32205833333334
 20
-31.38738472222222
 30
0.0
 10
15.41458472222222
 20
-31.38089583333332
 30
0.0
 10
15.41458472222222
 20
-31.38089583333332
 30
0.0
 10
15.57616527777778
 20
-31.3694111111111
 30
0.0
 10
15.74326666666666
 20
-31.35755833333332
 30
0.0
 10
15.90766527777777
 20
-31.35528055555556
 30
0.0
 10
15.94164722222222
 20
-31.35482222222221
 30
0.0
 10
15.97529444444444
 20
-31.35637222222221
 30
0.0
 10
16.01255694444444
 20
-31.35826805555555
 30
0.0
 10
16.02720694444444
 20
-31.35904027777777
 30
0.0
 10
16.041025
 20
-31.36179583333334
 30
0.0
 10
16.05787222222222
 20
-31.36755555555555
 30
0.0
 10
16.04203472222222
 20
-31.39477500000001
 30
0.0
 10
16.01942083333333
 20
-31.41798750000001
 30
0.0
 10
15.9906875
 20
-31.43658194444444
 30
0.0
 10
15.84991805555556
 20
-31.52757361111111
 30
0.0
 10
15.71247222222222
 20
-31.57799305555555
 30
0.0
 10
15.57043333333334
 20
-31.59073194444444
 30
0.0
 10
15.44656666666666
 20
-31.60184722222223
 30
0.0
 10
15.32744861111111
 20
-31.63036388888887
 30
0.0
 10
15.21646388888889
 20
-31.6755138888889
 30
0.0
 10
15.14805138888889
 20
-31.70331388888889
 30
0.0
 10
15.07306805555556
 20
-31.71801805555555
 30
0.0
 10
15.00054722222222
 20
-31.73223194444444
 30
0.0
 10
15.00054722222222
 20
-31.73223194444444
 30
0.0
 10
14.98928194444444
 20
-31.73443611111111
 30
0.0
 10
14.98928194444444
 20
-31.73443611111111
 30
0.0
 10
14.86601527777778
 20
-31.7586861111111
 30
0.0
 10
14.75184305555556
 20
-31.80863472222222
 30
0.0
 10
14.64025138888889
 20
-31.88718750000001
 30
0.0
  0
HATCH
  5
4D
330
1F
100
AcDbEntity
  8
Layer 1
 62
    35
420
 10579544
100
AcDbHatch
 10
0.0
 20
0.0
 30
0.0
210
0.0
220
0.0
230
1.0
  2
SOLID
 70
     1
 71
     0
 91
        4
 92
        1
 93
        1
 72
     4
 94
        3
 73
     0
 74
     1
 95
      452
 96
      448
 40
0.0
 40
0.0
 40
0.0
 40
0.0
 40
1.0
 40
1.0
 40
1.0
 40
2.0
 40
2.0
 40
2.0
 40
3.0
 40
3.0
 40
3.0
 40
4.0
 40
4.0
 40
4.0
 40
5.0
 40
5.0
 40
5.0
 40
6.0
 40
6.0
 40
6.0
 40
7.0
 40
7.0
 40
7.0
 40
8.0
 40
8.0
 40
8.0
 40
9.0
 40
9.0
 40
9.0
 40
10.0
 40
10.0
 40
10.0
 40
11.0
 40
11.0
 40
11.0
 40
12.0
 40
12.0
 40
12.0
 40
13.0
 40
13.0
 40
13.0
 40
14.0
 40
14.0
 40
14.0
 40
15.0
 40
15.0
 40
15.0
 40
16.0
 40
16.0
 40
16.0
 40
17.0
 40
17.0
 40
17.0
 40
18.0
 40
18.0
 40
18.0
 40
19.0
 40
19.0
 40
19.0
 40
20.0
 40
20.0
 40
20.0
 40
21.0
 40
21.0
 40
21.0
 40
22.0
 40
22.0
 40
22.0
 40
23.0
 40
23.0
 40
23.0
 40
24.0
 40
24.0
 40
24.0
 40
25.0
 40
25.0
 40
25.0
 40
26.0
 40
26.0
 40
26.0
 40
27.0
 40
27.0
 40
27.0
 40
28.0
 40
28.0
 40
28.0
 40
29.0
 40
29.0
 40
29.0
 40
30.0
 40
30.0
 40
30.0
 40
31.0
 40
31.0
 40
31.0
 40
32.0
 40
32.0
 40
32.0
 40
33.0
 40
33.0
 40
33.0
 40
34.0
 40
34.0
 40
34.0
 40
35.0
 40
35.0
 40
35.0
 40
36.0
 40
36.0
 40
36.0
 40
37.0
 40
37.0
 40
37.0
 40
38.0
 40
38.0
 40
38.0
 40
39.0
 40
39.0
 40
39.0
 40
40.0
 40
40.0
 40
40.0
 40
41.0
 40
41.0
 40
41.0
 40
42.0
 40
42.0
 40
42.0
 40
43.0
 40
43.0
 40
43.0
 40
44.0
 40
44.0
 40
44.0
 40
45.0
 40
45.0
 40
45.0
 40
46.0
 40
46.0
 40
46.0
 40
47.0
 40
47.0
 40
47.0
 40
48.0
 40
48.0
 40
48.0
 40
49.0
 40
49.0
 40
49.0
 40
50.0
 40
50.0
 40
50.0
 40
51.0
 40
51.0
 40
51.0
 40
52.0
 40
52.0
 40
52.0
 40
53.0
 40
53.0
 40
53.0
 40
54.0
 40
54.0
 40
54.0
 40
55.0
 40
55.0
 40
55.0
 40
56.0
 40
56.0
 40
56.0
 40
57.0
 40
57.0
 40
57.0
 40
58.0
 40
58.0
 40
58.0
 40
59.0
 40
59.0
 40
59.0
 40
60.0
 40
60.0
 40
60.0
 40
61.0
 40
61.0
 40
61.0
 40
62.0
 40
62.0
 40
62.0
 40
63.0
 40
63.0
 40
63.0
 40
64.0
 40
64.0
 40
64.0
 40
65.0
 40
65.0
 40
65.0
 40
66.0
 40
66.0
 40
66.0
 40
67.0
 40
67.0
 40
67.0
 40
68.0
 40
68.0
 40
68.0
 40
69.0
 40
69.0
 40
69.0
 40
70.0
 40
70.0
 40
70.0
 40
71.0
 40
71.0
 40
71.0
 40
72.0
 40
72.0
 40
72.0
 40
73.0
 40
73.0
 40
73.0
 40
74.0
 40
74.0
 40
74.0
 40
75.0
 40
75.0
 40
75.0
 40
76.0
 40
76.0
 40
76.0
 40
77.0
 40
77.0
 40
77.0
 40
78.0
 40
78.0
 40
78.0
 40
79.0
 40
79.0
 40
79.0
 40
80.0
 40
80.0
 40
80.0
 40
81.0
 40
81.0
 40
81.0
 40
82.0
 40
82.0
 40
82.0
 40
83.0
 40
83.0
 40
83.0
 40
84.0
 40
84.0
 40
84.0
 40
85.0
 40
85.0
 40
85.0
 40
86.0
 40
86.0
 40
86.0
 40
87.0
 40
87.0
 40
87.0
 40
88.0
 40
88.0
 40
88.0
 40
89.0
 40
89.0
 40
89.0
 40
90.0
 40
90.0
 40
90.0
 40
91.0
 40
91.0
 40
91.0
 40
92.0
 40
92.0
 40
92.0
 40
93.0
 40
93.0
 40
93.0
 40
94.0
 40
94.0
 40
94.0
 40
95.0
 40
95.0
 40
95.0
 40
96.0
 40
96.0
 40
96.0
 40
97.0
 40
97.0
 40
97.0
 40
98.0
 40
98.0
 40
98.0
 40
99.0
 40
99.0
 40
99.0
 40
100.0
 40
100.0
 40
100.0
 40
101.0
 40
101.0
 40
101.0
 40
102.0
 40
102.0
 40
102.0
 40
103.0
 40
103.0
 40
103.0
 40
104.0
 40
104.0
 40
104.0
 40
105.0
 40
105.0
 40
105.0
 40
106.0
 40
106.0
 40
106.0
 40
107.0
 40
107.0
 40
107.0
 40
108.0
 40
108.0
 40
108.0
 40
109.0
 40
109.0
 40
109.0
 40
110.0
 40
110.0
 40
110.0
 40
111.0
 40
111.0
 40
111.0
 40
112.0
 40
112.0
 40
112.0
 40
113.0
 40
113.0
 40
113.0
 40
114.0
 40
114.0
 40
114.0
 40
115.0
 40
115.0
 40
115.0
 40
116.0
 40
116.0
 40
116.0
 40
117.0
 40
117.0
 40
117.0
 40
118.0
 40
118.0
 40
118.0
 40
119.0
 40
119.0
 40
119.0
 40
120.0
 40
120.0
 40
120.0
 40
121.0
 40
121.0
 40
121.0
 40
122.0
 40
122.0
 40
122.0
 40
123.0
 40
123.0
 40
123.0
 40
124.0
 40
124.0
 40
124.0
 40
125.0
 40
125.0
 40
125.0
 40
126.0
 40
126.0
 40
126.0
 40
127.0
 40
127.0
 40
127.0
 40
128.0
 40
128.0
 40
128.0
 40
129.0
 40
129.0
 40
129.0
 40
130.0
 40
130.0
 40
130.0
 40
131.0
 40
131.0
 40
131.0
 40
132.0
 40
132.0
 40
132.0
 40
133.0
 40
133.0
 40
133.0
 40
134.0
 40
134.0
 40
134.0
 40
135.0
 40
135.0
 40
135.0
 40
136.0
 40
136.0
 40
136.0
 40
137.0
 40
137.0
 40
137.0
 40
138.0
 40
138.0
 40
138.0
 40
139.0
 40
139.0
 40
139.0
 40
140.0
 40
140.0
 40
140.0
 40
141.0
 40
141.0
 40
141.0
 40
142.0
 40
142.0
 40
142.0
 40
143.0
 40
143.0
 40
143.0
 40
144.0
 40
144.0
 40
144.0
 40
145.0
 40
145.0
 40
145.0
 40
146.0
 40
146.0
 40
146.0
 40
147.0
 40
147.0
 40
147.0
 40
148.0
 40
148.0
 40
148.0
 40
149.0
 40
149.0
 40
149.0
 40
149.0
 10
15.18944305555556
 20
-29.53538611111111
 10
15.14317222222222
 20
-29.55705694444444
 10
15.10484444444445
 20
-29.58903194444444
 10
15.07346388888888
 20
-29.61745277777777
 10
15.02098333333333
 20
-29.66496388888888
 10
14.96831944444444
 20
-29.71305694444444
 10
14.91545833333334
 20
-29.7613875
 10
14.74363472222222
 20
-29.9183625
 10
14.56595
 20
-30.08069444444444
 10
14.38503194444445
 20
-30.23020416666667
 10
14.13601388888888
 20
-30.43599444444444
 10
13.93584583333333
 20
-30.61516666666666
 10
13.81776492871167
 20
-30.8851125
 10
13.81671353984934
 20
-30.88752083333333
 10
13.81563576209879
 20
-30.88997777777778
 10
13.81460520656927
 20
-30.89241388888889
 10
13.77992881855637
 20
-30.97320416666667
 10
13.74735243049044
 20
-31.05498333333334
 10
13.71584826461963
 20
-31.13404027777779
 10
13.64321909978773
 20
-31.31636527777778
 10
13.57462882374269
 20
-31.48860416666667
 10
13.47894965949308
 20
-31.65936944444444
 10
13.4783357706197
 20
-31.66048194444445
 10
13.47483577070812
 20
-31.66262500000001
 10
13.46982049305704
 20
-31.66568888888888
 10
13.41452188334289
 20
-31.69965555555556
 10
13.36257466243296
 20
-31.73770416666667
 10
13.3234899411981
 20
-31.76706527777777
 10
13.11458716869765
 20
-31.92411527777777
 10
13.06530105883161
 20
-32.205375
 10
13.02177328215344
 20
-32.45354583333334
 10
13.01613717118471
 20
-32.4856986111111
 10
13.01063888888888
 20
-32.5171888888889
 10
13.00488578258005
 20
-32.54757361111112
 10
13.00488578258005
 20
-32.54757361111112
 10
12.98919133853208
 20
-32.63105972222221
 10
12.98919133853208
 20
-32.63105972222221
 10
12.93369550660069
 20
-32.92715972222224
 10
12.87633023027209
 20
-33.23333750000001
 10
12.76290384424859
 20
-33.51634305555555
 10
12.74110940035472
 20
-33.57065138888889
 10
12.71852328981418
 20
-33.62459861111112
 10
12.69594444444445
 20
-33.67846944444445
 10
12.60429690381089
 20
-33.89717777777777
 10
12.50955246175989
 20
-34.1233361111111
 10
12.47636357370943
 20
-34.36780277777777
 10
12.45456944444445
 20
-34.52875555555556
 10
12.43565385251562
 20
-34.66277638888889
 10
12.40756774211402
 20
-34.79993611111111
 10
12.37580555555556
 20
-34.95506805555556
 10
12.32308579980377
 20
-35.11848472222222
 10
12.24166774630501
 20
-35.31416944444443
 10
12.23343857984623
 20
-35.33400555555555
 10
12.22333333333333
 20
-35.36035833333332
 10
12.2185094135567
 20
-35.38848472222222
 10
12.21229969149135
 20
-35.42456111111111
 10
12.2355
 20
-35.45919027777778
 10
12.27024552336085
 20
-35.4656861111111
 10
12.30593857801472
 20
-35.47233194444445
 10
12.33724552166829
 20
-35.44967777777778
 10
12.34476496592278
 20
-35.41176666666666
 10
12.34824413250155
 20
-35.39394444444444
 10
12.35538888888888
 20
-35.37659166666665
 10
12.36406218765751
 20
-35.35561666666667
 10
12.47057746274448
 20
-35.09719583333332
 10
12.54534273863353
 20
-34.82093888888888
 10
12.58029968219489
 20
-34.55670416666668
 10
12.61707745904358
 20
-34.27845555555556
 10
12.67599829088845
 20
-34.05297916666667
 10
12.76570833333334
 20
-33.8471
 10
12.88447745228849
 20
-33.57449999999999
 10
12.96178856144656
 20
-33.29778611111111
 10
13.04372467048779
 20
-32.98940416666667
 10
13.08971633599261
 20
-32.79233333333334
 10
13.12777777777777
 20
-32.59121666666667
 10
13.15897466757633
 20
-32.42049305555555
 10
13.18611216689078
 20
-32.27201944444444
 10
13.22551772145087
 20
-32.14128750000001
 10
13.28011910896041
 20
-32.02197916666667
 10
13.30565938609298
 20
-31.96577361111111
 10
13.34180382962434
 20
-31.91797499999999
 10
13.38984827285508
 20
-31.87719027777777
 10
13.34327049625396
 20
-32.01337361111111
 10
13.31339688589752
 20
-32.1430347222222
 10
13.29884966404279
 20
-32.27199305555556
 10
13.29239410865032
 20
-32.32906388888889
 10
13.32351633008632
 20
-32.35332916666668
 10
13.35483716262843
 20
-32.35701388888889
 10
13.36918716226592
 20
-32.35869861111112
 10
13.41668577217711
 20
-32.35871249999998
 10
13.42600000000001
 20
-32.28873055555555
 10
13.43550382725728
 20
-32.21693333333332
 10
13.44824410471321
 20
-32.13253333333333
 10
13.47061771525912
 20
-32.05067222222222
 10
13.51139549200676
 20
-31.90166666666667
 10
13.58530799013958
 20
-31.75717222222223
 10
13.65684548833239
 20
-31.61747361111111
 10
13.68430382097207
 20
-31.56383333333332
 10
13.71268298692181
 20
-31.50837916666667
 10
13.7388302084835
 20
-31.45338888888889
 10
13.78464965177045
 20
-31.35696527777779
 10
13.82045381753263
 20
-31.25563611111112
 10
13.85502777777778
 20
-31.15768472222223
 10
13.89485694444444
 20
-31.04482361111112
 10
13.93601666666667
 20
-30.92805972222221
 10
13.99254305555555
 20
-30.82028194444443
 10
14.05044027777778
 20
-30.70965138888889
 10
14.12697916666666
 20
-30.611325
 10
14.21995694444445
 20
-30.52803055555556
 10
14.28329305555556
 20
-30.47126527777777
 10
14.35200555555555
 20
-30.41808333333333
 10
14.41845972222222
 20
-30.36664027777778
 10
14.45790694444444
 20
-30.33608472222221
 10
14.49738750000001
 20
-30.30553611111111
 10
14.53611111111111
 20
-30.27403194444445
 10
14.65694166666666
 20
-30.17573194444445
 10
14.77242361111111
 20
-30.06845277777778
 10
14.88409722222222
 20
-29.96472222222222
 10
14.93469305555555
 20
-29.91773472222222
 10
14.98529722222222
 20
-29.87073472222222
 10
15.03648611111112
 20
-29.82442361111111
 10
15.05286944444444
 20
-29.809575
 10
15.0689875
 20
-29.79439305555555
 10
15.08507638888889
 20
-29.77920416666666
 10
15.13136111111112
 20
-29.73547916666666
 10
15.17512638888888
 20
-29.69418333333333
 10
15.22809722222222
 20
-29.65944444444444
 10
15.24040694444444
 20
-29.65137222222222
 10
15.25726111111111
 20
-29.64029722222222
 10
15.26457638888889
 20
-29.64430972222222
 10
15.26721666666666
 20
-29.64760555555555
 10
15.26653472222223
 20
-29.66359305555555
 10
15.26618611111111
 20
-29.67126944444444
 10
15.26602361111111
 20
-29.67525416666667
 10
15.26586666666666
 20
-29.67917777777777
 10
15.26580416666666
 20
-29.6829375
 10
15.26501944444444
 20
-29.75210694444445
 10
15.23800555555556
 20
-29.81711527777778
 10
15.2089986111111
 20
-29.87712777777779
 10
15.09206388888889
 20
-30.11872777777777
 10
14.92858611111112
 20
-30.30698194444443
 10
14.75554166666667
 20
-30.50631111111112
 10
14.69324305555556
 20
-30.57801249999999
 10
14.62885000000001
 20
-30.65219861111111
 10
14.56687777777778
 20
-30.72895555555556
 10
14.50135277777778
 20
-30.81013472222222
 10
14.42313472222222
 20
-30.92141944444446
 10
14.399825
 20
-31.06294722222222
 10
14.38033055555555
 20
-31.18112361111111
 10
14.35266111111111
 20
-31.29510277777778
 10
14.31758749999999
 20
-31.40172777777778
 10
14.26099305555556
 20
-31.57363888888888
 10
14.23768472222222
 20
-31.75869305555557
 10
14.24830138888889
 20
-31.95177777777778
 10
14.25584166666667
 20
-32.08908750000001
 10
14.25903472222222
 20
-32.24870416666666
 10
14.22986527777778
 20
-32.41109027777777
 10
14.22986527777778
 20
-32.41109027777777
 10
14.21376111111111
 20
-32.36951388888888
 10
14.21376111111111
 20
-32.36951388888888
 10
14.19588333333334
 20
-32.32308055555556
 10
14.16070138888889
 20
-32.31455138888888
 10
14.13374166666666
 20
-32.32205694444443
 10
14.10429861111111
 20
-32.33025138888888
 10
14.08008194444445
 20
-32.35953194444444
 10
14.09224166666667
 20
-32.40642916666666
 10
14.09597361111111
 20
-32.42086111111111
 10
14.10094861111111
 20
-32.43462361111111
 10
14.10531527777778
 20
-32.44615555555556
 10
14.13862777777778
 20
-32.53453472222223
 10
14.18059166666666
 20
-32.61958888888888
 10
14.23004861111111
 20
-32.69894722222223
 10
14.31213611111111
 20
-32.83065416666666
 10
14.404875
 20
-32.92844166666666
 10
14.51239305555555
 20
-32.99634999999999
 10
14.51155277777778
 20
-32.99653472222222
 10
14.51071388888888
 20
-32.99671805555555
 10
14.50989583333333
 20
-32.99691666666667
 10
14.46694166666667
 20
-33.00665416666667
 10
14.42635416666667
 20
-33.01583055555554
 10
14.38466944444445
 20
-33.01788472222221
 10
14.35231944444445
 20
-33.01946805555556
 10
14.31886388888889
 20
-33.02109166666666
 10
14.289475
 20
-33.00852361111111
 10
14.26611805555555
 20
-32.9985263888889
 10
14.24528611111111
 20
-32.99730555555556
 10
14.22759305555556
 20
-33.00493333333333
 10
14.21259444444445
 20
-33.01141666666667
 10
14.20138333333333
 20
-33.02362361111111
 10
14.19522222222223
 20
-33.04047083333332
 10
14.188425
 20
-33.05890138888887
 10
14.19017916666667
 20
-33.078225
 10
14.20018194444444
 20
-33.09484722222221
 10
14.20910694444444
 20
-33.10972222222222
 10
14.22400277777778
 20
-33.12132222222223
 10
14.243225
 20
-33.12837777777776
 10
14.27019166666667
 20
-33.13830694444444
 10
14.29483888888889
 20
-33.14369027777777
 10
14.31854305555556
 20
-33.14485000000001
 10
14.43674027777778
 20
-33.15061666666666
 10
14.55468472222222
 20
-33.12926527777778
 10
14.67907777777778
 20
-33.07955555555557
 10
14.93545138888889
 20
-32.97713472222222
 10
15.13030972222222
 20
-32.7807611111111
 10
15.31878194444444
 20
-32.5908763888889
 10
15.34990416666667
 20
-32.55950138888888
 10
15.38091111111112
 20
-32.52824305555555
 10
15.41208055555555
 20
-32.49755138888887
 10
15.56628472222222
 20
-32.34565277777779
 10
15.75841527777778
 20
-32.18282916666665
 10
16.01431805555555
 20
-32.12691805555556
 10
16.06081944444444
 20
-32.11675000000001
 10
16.12373888888889
 20
-32.11751527777778
 10
16.15952222222222
 20
-32.14207222222222
 10
16.17343472222222
 20
-32.15163194444444
 10
16.18137083333333
 20
-32.16384583333333
 10
16.18375277777778
 20
-32.17941805555557
 10
16.18667222222221
 20
-32.1982375
 10
16.17956944444445
 20
-32.22086388888889
 10
16.16219722222223
 20
-32.24869722222221
 10
16.11465694444444
 20
-32.32462222222221
 10
16.04112777777777
 20
-32.37803055555555
 10
15.96325694444445
 20
-32.43455555555556
 10
15.93710972222223
 20
-32.453525
 10
15.91100277777778
 20
-32.47250138888889
 10
15.8859125
 20
-32.49233055555555
 10
15.71202222222222
 20
-32.62983194444445
 10
15.58487222222223
 20
-32.81175972222223
 10
15.46191944444445
 20
-32.98771111111111
 10
15.41284444444444
 20
-33.05795972222222
 10
15.3620638888889
 20
-33.13056805555556
 10
15.30939305555555
 20
-33.1987361111111
 10
15.18601666666667
 20
-33.35835833333332
 10
15.02748611111111
 20
-33.4893486111111
 10
14.87414861111112
 20
-33.61602083333332
 10
14.80852638888888
 20
-33.67026805555555
 10
14.74063888888889
 20
-33.72634999999998
 10
14.67613611111111
 20
-33.78411111111111
 10
14.57815138888889
 20
-33.87191666666667
 10
14.49015416666667
 20
-33.97462500000001
 10
14.40505833333333
 20
-34.07394722222223
 10
14.28604305555556
 20
-34.21287499999999
 10
14.1629875
 20
-34.3565361111111
 10
14.01257638888889
 20
-34.45839166666666
 10
13.82528437296615
 20
-34.58524722222223
 10
13.58938160114778
 20
-34.63983611111111
 10
13.36538577347306
 20
-34.60818194444444
 10
13.32828021885487
 20
-34.60294722222223
 10
13.27702777777777
 20
-34.61825972222222
 10
13.25979827614042
 20
-34.64937499999998
 10
13.24983022083668
 20
-34.66766944444445
 10
13.2522107763321
 20
-34.68867777777778
 10
13.26650660930429
 20
-34.70562777777779
 10
13.28044688672991
 20
-34.72208611111111
 10
13.30044688622466
 20
-34.72584583333332
 10
13.31113888888889
 20
-34.72784583333333
 10
13.43872466050925
 20
-34.75205555555554
 10
13.57153160159871
 20
-34.75150277777779
 10
13.69914409837495
 20
-34.72660972222221
 10
13.51206354754544
 20
-35.06524166666665
 10
13.45156077129609
 20
-35.4645263888889
 10
13.39790660598485
 20
-35.81917222222223
 10
13.39383993942091
 20
-35.84591388888889
 10
13.39873299485286
 20
-35.88161388888887
 10
13.41880660545687
 20
-35.9010611111111
 10
13.43087743848527
 20
-35.91274305555556
 10
13.44670833333334
 20
-35.91748472222222
 10
13.46333021544322
 20
-35.91440833333333
 10
13.48922604812237
 20
-35.90968611111111
 10
13.50612743658429
 20
-35.88858055555556
 10
13.51365382528305
 20
-35.85167222222223
 10
13.51365382528305
 20
-35.85167222222223
 10
13.60958576730405
 20
-35.38059722222222
 10
13.60958576730405
 20
-35.38059722222222
 10
13.66948993245741
 20
-35.08680416666667
 10
13.73462048636763
 20
-34.83004166666667
 10
13.92546111111111
 20
-34.66328194444443
 10
13.97226944444444
 20
-34.62241527777776
 10
14.02428611111111
 20
-34.58950555555556
 10
14.07935833333333
 20
-34.5546638888889
 10
14.1227361111111
 20
-34.52722777777777
 10
14.16760000000001
 20
-34.49885555555556
 10
14.20927083333333
 20
-34.46640972222222
 10
14.31452361111111
 20
-34.38445833333334
 10
14.39706111111112
 20
-34.27864583333333
 10
14.47687638888889
 20
-34.17632083333332
 10
14.52668055555556
 20
-34.11244583333334
 10
14.57819166666667
 20
-34.04641527777777
 10
14.63426111111111
 20
-33.98765
 10
14.72340277777778
 20
-33.89420972222224
 10
14.82910555555556
 20
-33.81390277777778
 10
14.93135
 20
-33.73623055555554
 10
15.02044444444444
 20
-33.66854166666667
 10
15.11254861111111
 20
-33.59853194444445
 10
15.19498333333334
 20
-33.51920277777776
 10
15.3286625
 20
-33.39051805555555
 10
15.4376
 20
-33.23667500000001
 10
15.54292083333333
 20
-33.08790833333334
 10
15.66788750000001
 20
-32.91141111111111
 10
15.79709722222222
 20
-32.72890833333334
 10
15.96600694444444
 20
-32.5930111111111
 10
15.99192222222223
 20
-32.57216527777778
 10
16.01954444444444
 20
-32.5517638888889
 10
16.04626527777778
 20
-32.53205
 10
16.1183625
 20
-32.47887500000002
 10
16.19287499999999
 20
-32.42387083333334
 10
16.2487125
 20
-32.34984166666666
 10
16.26596944444444
 20
-32.32698333333335
 10
16.27977916666666
 20
-32.3035236111111
 10
16.29003611111111
 20
-32.28007083333333
 10
16.31317361111111
 20
-32.22717500000001
 10
16.318175
 20
-32.1743
 10
16.3033
 20
-32.12831666666668
 10
16.2812125
 20
-32.05993055555556
 10
16.21398055555556
 20
-32.00642083333334
 10
16.13204305555555
 20
-31.9920375
 10
16.05558611111111
 20
-31.97860138888889
 10
15.98033611111111
 20
-31.99781666666667
 10
15.92333333333333
 20
-32.01606249999999
 10
15.62616111111111
 20
-32.11111388888889
 10
15.40986249999999
 20
-32.31998194444443
 10
15.20067361111112
 20
-32.52195833333333
 10
15.04732222222222
 20
-32.67002916666666
 10
14.88875694444444
 20
-32.82314166666666
 10
14.69792361111111
 20
-32.92997777777777
 10
14.69522916666667
 20
-32.93149305555554
 10
14.69150277777778
 20
-32.93385277777777
 10
14.69135972222222
 20
-32.9341125
 10
14.65655972222223
 20
-32.92549444444444
 10
14.62296805555555
 20
-32.91628333333334
 10
14.594575
 20
-32.89852777777777
 10
14.48780000000001
 20
-32.83167777777778
 10
14.39818055555555
 20
-32.73472916666666
 10
14.32057638888889
 20
-32.60211388888888
 10
14.31859722222223
 20
-32.59874305555556
 10
14.31841388888889
 20
-32.59807500000001
 10
14.31948472222221
 20
-32.59382361111109
 10
14.31948472222221
 20
-32.59382361111109
 10
14.32123194444445
 20
-32.58677499999999
 10
14.32123194444445
 20
-32.58677499999999
 10
14.3307638888889
 20
-32.54861805555556
 10
14.34063750000001
 20
-32.50915694444443
 10
14.34641111111111
 20
-32.46901527777777
 10
14.34898333333333
 20
-32.45118472222222
 10
14.35585416666667
 20
-32.43895694444445
 10
14.3693375
 20
-32.42804583333334
 10
14.38555694444444
 20
-32.41495138888889
 10
14.40167361111111
 20
-32.40173472222222
 10
14.41778472222222
 20
-32.38851805555555
 10
14.45521111111111
 20
-32.35779861111111
 10
14.49391388888888
 20
-32.32604861111112
 10
14.53299305555556
 20
-32.29671388888889
 10
14.57972638888889
 20
-32.2616611111111
 10
14.62839861111111
 20
-32.23857083333332
 10
14.68177222222222
 20
-32.22609027777778
 10
14.76674583333334
 20
-32.20622777777778
 10
14.84750277777778
 20
-32.17318055555554
 10
14.92559722222222
 20
-32.14121249999999
 10
14.96675
 20
-32.12437222222221
 10
15.00929444444445
 20
-32.1069513888889
 10
15.05149166666667
 20
-32.09191250000001
 10
15.13104027777778
 20
-32.06351388888889
 10
15.21670972222222
 20
-32.04784027777777
 10
15.29956111111111
 20
-32.03267777777778
 10
15.29956111111111
 20
-32.03267777777778
 10
15.34154583333333
 20
-32.02516527777779
 10
15.34154583333333
 20
-32.02516527777779
 10
15.4158125
 20
-32.01230277777778
 10
15.492625
 20
-31.99899722222221
 10
15.55320416666667
 20
-31.93867777777778
 10
15.60552777777778
 20
-31.88659999999999
 10
15.61660138888889
 20
-31.81780555555555
 10
15.58279166666667
 20
-31.75468749999999
 10
15.57613194444444
 20
-31.74223472222221
 10
15.56772500000001
 20
-31.73111250000001
 10
15.55742083333333
 20
-31.72118472222223
 10
15.58488611111112
 20
-31.71781388888889
 10
15.61230277777777
 20
-31.7143263888889
 10
15.639625
 20
-31.71004861111111
 10
15.80471944444444
 20
-31.68414583333333
 10
15.95691111111111
 20
-31.6200125
 10
16.0919625
 20
-31.51941944444444
 10
16.13739305555555
 20
-31.48562222222222
 10
16.16830416666667
 20
-31.44336527777778
 10
16.18403194444444
 20
-31.39370972222223
 10
16.19967777777778
 20
-31.34403472222223
 10
16.18667916666666
 20
-31.30303888888887
 10
16.14535000000001
 20
-31.27182777777779
 10
16.11456805555556
 20
-31.24858749999999
 10
16.07788472222223
 20
-31.23594305555556
 10
16.02989583333333
 20
-31.23205416666666
 10
15.91260555555555
 20
-31.22256249999999
 10
15.794675
 20
-31.22916111111113
 10
15.68061388888889
 20
-31.23553333333333
 10
15.64835833333334
 20
-31.23733472222221
 10
15.61609722222223
 20
-31.23915000000001
 10
15.58382777777778
 20
-31.24061111111112
 10
15.51464444444444
 20
-31.24372222222223
 10
15.44460833333333
 20
-31.2490861111111
 10
15.37689166666667
 20
-31.25427777777776
 10
15.436325
 20
-31.21730138888887
 10
15.50398611111111
 20
-31.189775
 10
15.58880277777777
 20
-31.16800833333332
 10
15.7689638888889
 20
-31.12173194444444
 10
15.93545138888889
 20
-31.04165694444444
 10
16.08367222222223
 20
-30.93001805555556
 10
16.12091388888889
 20
-30.90197361111111
 10
16.16747777777778
 20
-30.86232083333334
 10
16.19726944444445
 20
-30.80421944444444
 10
16.23297777777778
 20
-30.73409444444443
 10
16.23432777777778
 20
-30.67797777777779
 10
16.20061944444444
 20
-30.63724027777776
 10
16.12193055555556
 20
-30.54217499999999
 10
15.88157916666667
 20
-30.58629583333332
 10
15.8036
 20
-30.60923055555554
 10
15.77345416666667
 20
-30.61809444444444
 10
15.74330138888889
 20
-30.62719027777777
 10
15.7131
 20
-30.63630555555556
 10
15.59843749999999
 20
-30.6709361111111
 10
15.47987222222222
 20
-30.70674583333334
 10
15.36131388888889
 20
-30.72840972222222
 10
15.13854583333333
 20
-30.76912638888888
 10
14.95025833333333
 20
-30.84094305555555
 10
14.72728611111111
 20
-30.93061111111109
 10
14.6770236111111
 20
-30.95082222222221
 10
14.61821111111111
 20
-30.97275972222221
 10
14.5548625
 20
-30.98666666666665
 10
14.56302361111111
 20
-30.96670138888888
 10
14.57235138888889
 20
-30.9465375
 10
14.5837125
 20
-30.92759583333335
 10
14.66794861111111
 20
-30.78690833333333
 10
14.78082361111111
 20
-30.66332777777777
 10
14.8900125
 20
-30.54383333333334
 10
15.00210277777777
 20
-30.4211125
 10
15.11801388888889
 20
-30.29421527777778
 10
15.20610555555556
 20
-30.14644583333333
 10
15.20610555555556
 20
-30.14644583333333
 10
15.22563472222221
 20
-30.11396527777778
 10
15.22563472222221
 20
-30.11396527777778
 10
15.31251111111111
 20
-29.96999583333334
 10
15.43145972222222
 20
-29.77283055555555
 10
15.38204305555555
 20
-29.60085694444444
 10
15.36604166666666
 20
-29.54506805555555
 10
15.32174444444445
 20
-29.51332499999999
 10
15.26355277777778
 20
-29.51593888888889
 10
15.23934305555556
 20
-29.51702361111111
 10
15.21509861111111
 20
-29.52339027777778
 10
15.18944305555556
 20
-29.53538611111111
 97
        0
 97
        0
 92
        1
 93
        1
 72
     4
 94
        3
 73
     0
 74
     1
 95
       59
 96
       55
 40
0.0
 40
0.0
 40
0.0
 40
0.0
 40
1.0
 40
1.0
 40
1.0
 40
2.0
 40
2.0
 40
2.0
 40
3.0
 40
3.0
 40
3.0
 40
4.0
 40
4.0
 40
4.0
 40
5.0
 40
5.0
 40
5.0
 40
6.0
 40
6.0
 40
6.0
 40
7.0
 40
7.0
 40
7.0
 40
8.0
 40
8.0
 40
8.0
 40
9.0
 40
9.0
 40
9.0
 40
10.0
 40
10.0
 40
10.0
 40
11.0
 40
11.0
 40
11.0
 40
12.0
 40
12.0
 40
12.0
 40
13.0
 40
13.0
 40
13.0
 40
14.0
 40
14.0
 40
14.0
 40
15.0
 40
15.0
 40
15.0
 40
16.0
 40
16.0
 40
16.0
 40
17.0
 40
17.0
 40
17.0
 40
18.0
 40
18.0
 40
18.0
 40
18.0
 10
15.99715694444444
 20
-30.69744444444445
 10
16.01766805555556
 20
-30.69416944444444
 10
16.03862916666667
 20
-30.69449722222222
 10
16.06126388888889
 20
-30.69846805555554
 10
16.07554444444444
 20
-30.70095833333332
 10
16.08549305555555
 20
-30.70574166666668
 10
16.08854305555556
 20
-30.71159722222223
 10
16.09229027777778
 20
-30.71876111111111
 10
16.08994999999999
 20
-30.73352083333333
 10
16.08273749999999
 20
-30.74863472222222
 10
16.06946527777778
 20
-30.77167083333332
 10
16.04754166666666
 20
-30.79584722222221
 10
16.02103888888889
 20
-30.81671944444444
 10
15.88273333333334
 20
-30.92555555555555
 10
15.72125416666667
 20
-31.00353472222223
 10
15.54105833333334
 20
-31.04851527777777
 10
15.44805416666667
 20
-31.07174166666666
 10
15.36016666666666
 20
-31.11022638888888
 10
15.27239583333333
 20
-31.16619305555557
 10
15.22095416666667
 20
-31.19895972222222
 10
15.16345138888889
 20
-31.23152222222221
 10
15.09654722222222
 20
-31.26571388888889
 10
15.04373333333333
 20
-31.2927013888889
 10
14.983775
 20
-31.31393611111111
 10
14.9132125
 20
-31.33063333333333
 10
14.77209583333333
 20
-31.36408194444445
 10
14.64824861111111
 20
-31.43421388888888
 10
14.53455555555556
 20
-31.54501527777779
 10
14.49244027777778
 20
-31.58607916666667
 10
14.44518055555555
 20
-31.62573055555557
 10
14.38404861111111
 20
-31.67115416666666
 10
14.39165694444445
 20
-31.61840138888889
 10
14.40551527777778
 20
-31.56680277777779
 10
14.4200361111111
 20
-31.51274583333333
 10
14.4200361111111
 20
-31.51274583333333
 10
14.42275138888889
 20
-31.50254444444444
 10
14.42275138888889
 20
-31.50254444444444
 10
14.43185416666667
 20
-31.468625
 10
14.44164583333333
 20
-31.43486250000001
 10
14.45144444444444
 20
-31.40109999999999
 10
14.47731944444445
 20
-31.31173194444444
 10
14.50408888888889
 20
-31.21938333333333
 10
14.51797361111111
 20
-31.12293194444444
 10
14.65938472222222
 20
-31.10221666666666
 10
14.78507361111111
 20
-31.04845972222223
 10
14.922875
 20
-30.98563611111111
 10
15.05966666666667
 20
-30.92323472222223
 10
15.1905138888889
 20
-30.8836861111111
 10
15.3228763888889
 20
-30.86473749999999
 10
15.49807083333333
 20
-30.83967361111111
 10
15.66509027777778
 20
-30.78888055555555
 10
15.80536111111111
 20
-30.74250000000001
 10
15.86205
 20
-30.72375694444445
 10
15.92480694444445
 20
-30.70902499999998
 10
15.99715694444444
 20
-30.69744444444445
 97
        0
 97
        0
 92
        1
 93
        1
 72
     4
 94
        3
 73
     0
 74
     1
 95
       62
 96
       58
 40
0.0
 40
0.0
 40
0.0
 40
0.0
 40
1.0
 40
1.0
 40
1.0
 40
2.0
 40
2.0
 40
2.0
 40
3.0
 40
3.0
 40
3.0
 40
4.0
 40
4.0
 40
4.0
 40
5.0
 40
5.0
 40
5.0
 40
6.0
 40
6.0
 40
6.0
 40
7.0
 40
7.0
 40
7.0
 40
8.0
 40
8.0
 40
8.0
 40
9.0
 40
9.0
 40
9.0
 40
10.0
 40
10.0
 40
10.0
 40
11.0
 40
11.0
 40
11.0
 40
12.0
 40
12.0
 40
12.0
 40
13.0
 40
13.0
 40
13.0
 40
14.0
 40
14.0
 40
14.0
 40
15.0
 40
15.0
 40
15.0
 40
16.0
 40
16.0
 40
16.0
 40
17.0
 40
17.0
 40
17.0
 40
18.0
 40
18.0
 40
18.0
 40
19.0
 40
19.0
 40
19.0
 40
19.0
 10
15.0733263888889
 20
-31.84726249999999
 10
15.09038611111112
 20
-31.84325
 10
15.10747222222223
 20
-31.8392513888889
 10
15.12461944444444
 20
-31.83555277777777
 10
15.16155555555555
 20
-31.82755555555556
 10
15.19735138888889
 20
-31.81613333333333
 10
15.23195277777778
 20
-31.80506527777778
 10
15.24355972222222
 20
-31.80136111111111
 10
15.25513333333333
 20
-31.7976486111111
 10
15.26676666666666
 20
-31.7940861111111
 10
15.32421388888888
 20
-31.77642777777777
 10
15.38587083333333
 20
-31.77791527777777
 10
15.43827638888889
 20
-31.79743750000001
 10
15.46304583333333
 20
-31.80883888888889
 10
15.47282361111111
 20
-31.82054861111111
 10
15.47371666666667
 20
-31.82770694444444
 10
15.47459722222223
 20
-31.83489166666666
 10
15.46755555555555
 20
-31.84533888888889
 10
15.45481666666666
 20
-31.85569583333333
 10
15.45481666666666
 20
-31.85569583333333
 10
15.45480972222222
 20
-31.85570972222222
 10
15.45480972222222
 20
-31.85570972222222
 10
15.43357499999999
 20
-31.87295972222222
 10
15.40783611111111
 20
-31.88499583333333
 10
15.37608611111111
 20
-31.89251666666665
 10
15.32117777777777
 20
-31.90552916666666
 10
15.26422222222223
 20
-31.91344444444444
 10
15.21517361111111
 20
-31.91986527777779
 10
15.10304305555556
 20
-31.93450138888887
 10
14.99423472222222
 20
-31.96756111111111
 10
14.89173194444445
 20
-32.01808194444445
 10
14.81766944444444
 20
-32.05459444444445
 10
14.74093888888889
 20
-32.08178749999999
 10
14.66370416666667
 20
-32.09887916666667
 10
14.57620555555556
 20
-32.11822499999999
 10
14.49665138888889
 20
-32.15902222222222
 10
14.41334861111111
 20
-32.2273125
 10
14.4011013888889
 20
-32.23735694444445
 10
14.38898194444444
 20
-32.24758472222222
 10
14.37689861111111
 20
-32.25782638888889
 10
14.3783375
 20
-32.23389722222221
 10
14.37965416666667
 20
-32.20943472222221
 10
14.37987361111112
 20
-32.18501944444443
 10
14.37993472222222
 20
-32.17764305555556
 10
14.38098472222222
 20
-32.17567777777779
 10
14.38093055555555
 20
-32.17573333333333
 10
14.38093055555555
 20
-32.17571944444444
 10
14.38210416666667
 20
-32.17449166666668
 10
14.38663472222222
 20
-32.17282638888888
 10
14.5182875
 20
-32.12405833333334
 10
14.63304583333334
 20
-32.04826249999999
 10
14.73930138888889
 20
-31.97482083333335
 10
14.82010555555555
 20
-31.91899166666667
 10
14.90664166666666
 20
-31.88178333333333
 10
14.99656250000001
 20
-31.86422638888888
 10
15.02227361111111
 20
-31.85920416666666
 10
15.04779305555556
 20
-31.85324027777779
 10
15.0733263888889
 20
-31.84726249999999
 97
        0
 97
        0
 92
        1
 93
        1
 72
     4
 94
        3
 73
     0
 74
     1
 95
       53
 96
       49
 40
0.0
 40
0.0
 40
0.0
 40
0.0
 40
1.0
 40
1.0
 40
1.0
 40
2.0
 40
2.0
 40
2.0
 40
3.0
 40
3.0
 40
3.0
 40
4.0
 40
4.0
 40
4.0
 40
5.0
 40
5.0
 40
5.0
 40
6.0
 40
6.0
 40
6.0
 40
7.0
 40
7.0
 40
7.0
 40
8.0
 40
8.0
 40
8.0
 40
9.0
 40
9.0
 40
9.0
 40
10.0
 40
10.0
 40
10.0
 40
11.0
 40
11.0
 40
11.0
 40
12.0
 40
12.0
 40
12.0
 40
13.0
 40
13.0
 40
13.0
 40
14.0
 40
14.0
 40
14.0
 40
15.0
 40
15.0
 40
15.0
 40
16.0
 40
16.0
 40
16.0
 40
16.0
 10
14.64025138888889
 20
-31.88718750000001
 10
14.56659861111111
 20
-31.93898472222223
 10
14.47829583333333
 20
-31.99711388888889
 10
14.37856944444444
 20
-32.03831388888888
 10
14.37507638888889
 20
-31.96104444444444
 10
14.37383472222223
 20
-31.89678749999999
 10
14.37467361111111
 20
-31.83684305555554
 10
14.37470138888889
 20
-31.83416111111111
 10
14.37481666666667
 20
-31.83259166666668
 10
14.37485833333334
 20
-31.83199166666668
 10
14.46131805555555
 20
-31.77866527777777
 10
14.54532222222223
 20
-31.71254583333333
 10
14.62451666666667
 20
-31.63545416666665
 10
14.71469583333333
 20
-31.54761388888889
 10
14.8223375
 20
-31.48788194444445
 10
14.96322222222222
 20
-31.44749305555557
 10
15.07247361111111
 20
-31.41616666666667
 10
15.18987222222222
 20
-31.3965138888889
 10
15.32205833333334
 20
-31.38738472222222
 10
15.32205833333334
 20
-31.38738472222222
 10
15.41458472222222
 20
-31.38089583333332
 10
15.41458472222222
 20
-31.38089583333332
 10
15.57616527777778
 20
-31.3694111111111
 10
15.74326666666666
 20
-31.35755833333332
 10
15.90766527777777
 20
-31.35528055555556
 10
15.94164722222222
 20
-31.35482222222221
 10
15.97529444444444
 20
-31.35637222222221
 10
16.01255694444444
 20
-31.35826805555555
 10
16.02720694444444
 20
-31.35904027777777
 10
16.041025
 20
-31.36179583333334
 10
16.05787222222222
 20
-31.36755555555555
 10
16.04203472222222
 20
-31.39477500000001
 10
16.01942083333333
 20
-31.41798750000001
 10
15.9906875
 20
-31.43658194444444
 10
15.84991805555556
 20
-31.52757361111111
 10
15.71247222222222
 20
-31.57799305555555
 10
15.57043333333334
 20
-31.59073194444444
 10
15.44656666666666
 20
-31.60184722222223
 10
15.32744861111111
 20
-31.63036388888887
 10
15.21646388888889
 20
-31.6755138888889
 10
15.14805138888889
 20
-31.70331388888889
 10
15.07306805555556
 20
-31.71801805555555
 10
15.00054722222222
 20
-31.73223194444444
 10
15.00054722222222
 20
-31.73223194444444
 10
14.98928194444444
 20
-31.73443611111111
 10
14.98928194444444
 20
-31.73443611111111
 10
14.86601527777778
 20
-31.7586861111111
 10
14.75184305555556
 20
-31.80863472222222
 10
14.64025138888889
 20
-31.88718750000001
 97
        0
 97
        0
 75
     2
 76
     1
 98
        0
  0
SPLINE
  5
4E
330
1F
100
AcDbEntity
  8
Layer 1
370
     0
100
AcDbSpline
210
0.0
220
0.0
230
1.0
 70
    11
 71
     3
 72
   182
 73
   178
 74
     0
 42
0.0000000001
 43
0.0000000001
 12
1.0
 22
0.0
 32
0.0
 13
1.0
 23
0.0
 33
0.0
 40
0.0
 40
0.0
 40
0.0
 40
0.0
 40
1.0
 40
1.0
 40
1.0
 40
2.0
 40
2.0
 40
2.0
 40
3.0
 40
3.0
 40
3.0
 40
4.0
 40
4.0
 40
4.0
 40
5.0
 40
5.0
 40
5.0
 40
6.0
 40
6.0
 40
6.0
 40
7.0
 40
7.0
 40
7.0
 40
8.0
 40
8.0
 40
8.0
 40
9.0
 40
9.0
 40
9.0
 40
10.0
 40
10.0
 40
10.0
 40
11.0
 40
11.0
 40
11.0
 40
12.0
 40
12.0
 40
12.0
 40
13.0
 40
13.0
 40
13.0
 40
14.0
 40
14.0
 40
14.0
 40
15.0
 40
15.0
 40
15.0
 40
16.0
 40
16.0
 40
16.0
 40
17.0
 40
17.0
 40
17.0
 40
18.0
 40
18.0
 40
18.0
 40
19.0
 40
19.0
 40
19.0
 40
20.0
 40
20.0
 40
20.0
 40
21.0
 40
21.0
 40
21.0
 40
22.0
 40
22.0
 40
22.0
 40
23.0
 40
23.0
 40
23.0
 40
24.0
 40
24.0
 40
24.0
 40
25.0
 40
25.0
 40
25.0
 40
26.0
 40
26.0
 40
26.0
 40
27.0
 40
27.0
 40
27.0
 40
28.0
 40
28.0
 40
28.0
 40
29.0
 40
29.0
 40
29.0
 40
30.0
 40
30.0
 40
30.0
 40
31.0
 40
31.0
 40
31.0
 40
32.0
 40
32.0
 40
32.0
 40
33.0
 40
33.0
 40
33.0
 40
34.0
 40
34.0
 40
34.0
 40
35.0
 40
35.0
 40
35.0
 40
36.0
 40
36.0
 40
36.0
 40
37.0
 40
37.0
 40
37.0
 40
38.0
 40
38.0
 40
38.0
 40
39.0
 40
39.0
 40
39.0
 40
40.0
 40
40.0
 40
40.0
 40
41.0
 40
41.0
 40
41.0
 40
42.0
 40
42.0
 40
42.0
 40
43.0
 40
43.0
 40
43.0
 40
44.0
 40
44.0
 40
44.0
 40
45.0
 40
45.0
 40
45.0
 40
46.0
 40
46.0
 40
46.0
 40
47.0
 40
47.0
 40
47.0
 40
48.0
 40
48.0
 40
48.0
 40
49.0
 40
49.0
 40
49.0
 40
50.0
 40
50.0
 40
50.0
 40
51.0
 40
51.0
 40
51.0
 40
52.0
 40
52.0
 40
52.0
 40
53.0
 40
53.0
 40
53.0
 40
54.0
 40
54.0
 40
54.0
 40
55.0
 40
55.0
 40
55.0
 40
56.0
 40
56.0
 40
56.0
 40
57.0
 40
57.0
 40
57.0
 40
58.0
 40
58.0
 40
58.0
 40
59.0
 40
59.0
 40
59.0
 40
59.0
 10
23.34679027777777
 20
-31.70892222222222
 30
0.0
 10
23.33768055555555
 20
-31.63186388888888
 30
0.0
 10
23.34310555555556
 20
-31.55439027777778
 30
0.0
 10
23.33994583333333
 20
-31.47716111111112
 30
0.0
 10
23.32826388888889
 20
-31.19144027777778
 30
0.0
 10
23.35418611111112
 20
-30.90642916666666
 30
0.0
 10
23.37424722222221
 20
-30.62169722222221
 30
0.0
 10
23.3805736111111
 20
-30.53191944444443
 30
0.0
 10
23.39647916666667
 20
-30.44745833333334
 30
0.0
 10
23.35688194444444
 20
-30.36343333333333
 30
0.0
 10
23.29410555555556
 20
-30.2302513888889
 30
0.0
 10
23.16282083333332
 20
-30.14250833333332
 30
0.0
 10
23.05205416666667
 20
-30.05243055555555
 30
0.0
 10
22.86311805555556
 20
-29.89881388888888
 30
0.0
 10
22.68815694444445
 20
-29.72222083333333
 30
0.0
 10
22.48643888888889
 20
-29.58564722222223
 30
0.0
 10
22.38465277777777
 20
-29.5167375
 30
0.0
 10
22.27197638888889
 20
-29.46480972222222
 30
0.0
 10
22.17330833333333
 20
-29.39124583333334
 30
0.0
 10
22.13726666666667
 20
-29.36438194444444
 30
0.0
 10
22.10052222222223
 20
-29.33875277777777
 30
0.0
 10
22.05749999999999
 20
-29.32387083333333
 30
0.0
 10
22.00348472222221
 20
-29.30517361111111
 30
0.0
 10
21.94800972222222
 20
-29.336575
 30
0.0
 10
21.93671666666667
 20
-29.39230972222222
 30
0.0
 10
21.93301111111112
 20
-29.41060416666667
 30
0.0
 10
21.93312777777777
 20
-29.42900694444444
 30
0.0
 10
21.93509861111112
 20
-29.44745833333334
 30
0.0
 10
21.95314722222222
 20
-29.61636666666666
 30
0.0
 10
22.04774166666667
 20
-29.77231944444444
 30
0.0
 10
22.14608194444445
 20
-29.90371944444444
 30
0.0
 10
22.24367916666668
 20
-30.03412361111111
 30
0.0
 10
22.35097916666667
 20
-30.15473611111111
 30
0.0
 10
22.4757125
 20
-30.25947777777777
 30
0.0
 10
22.56451388888889
 20
-30.33405138888889
 30
0.0
 10
22.68761111111111
 20
-30.43095972222222
 30
0.0
 10
22.70227361111112
 20
-30.5549625
 30
0.0
 10
22.71465277777778
 20
-30.65964305555556
 30
0.0
 10
22.68327777777777
 20
-30.77301527777778
 30
0.0
 10
22.66901666666667
 20
-30.87671944444443
 30
0.0
 10
22.64667638888889
 20
-31.03917361111111
 30
0.0
 10
22.64433611111111
 20
-31.20669027777777
 30
0.0
 10
22.60546944444445
 20
-31.36654583333332
 30
0.0
 10
22.57955972222223
 20
-31.47311527777778
 30
0.0
 10
22.53234861111112
 20
-31.56956527777778
 30
0.0
 10
22.5222625
 20
-31.68035277777777
 30
0.0
 10
22.51533749999999
 20
-31.75644166666666
 30
0.0
 10
22.50356666666665
 20
-31.83206666666666
 30
0.0
 10
22.48742222222222
 20
-31.90674305555555
 30
0.0
 10
22.46758611111111
 20
-31.99845138888887
 30
0.0
 10
22.44115138888888
 20
-32.08855555555556
 30
0.0
 10
22.40963333333333
 20
-32.17687916666667
 30
0.0
 10
22.38988055555556
 20
-32.23223888888889
 30
0.0
 10
22.36812638888889
 20
-32.28689444444444
 30
0.0
 10
22.34476249999999
 20
-32.34080833333334
 30
0.0
 10
22.34250416666666
 20
-32.34602083333334
 30
0.0
 10
22.33699722222223
 20
-32.35555277777777
 30
0.0
 10
22.33297222222222
 20
-32.35431805555555
 30
0.0
 10
22.330625
 20
-32.3535875
 30
0.0
 10
22.32781944444443
 20
-32.3462736111111
 30
0.0
 10
22.32694722222221
 20
-32.34035694444444
 30
0.0
 10
22.3235625
 20
-32.31723888888889
 30
0.0
 10
22.32086666666666
 20
-32.3056875
 30
0.0
 10
22.31620694444445
 20
-32.28875833333333
 30
0.0
 10
22.30269583333332
 20
-32.2396486111111
 30
0.0
 10
22.29203055555556
 20
-32.18973472222223
 30
0.0
 10
22.28085416666666
 20
-32.14000555555556
 30
0.0
 10
22.2074388888889
 20
-31.813425
 30
0.0
 10
22.20782222222222
 20
-31.47630833333334
 30
0.0
 10
22.0991638888889
 20
-31.15726805555556
 30
0.0
 10
22.0505388888889
 20
-31.01451388888889
 30
0.0
 10
21.9929625
 20
-30.86655277777777
 30
0.0
 10
21.85677916666666
 20
-30.78591805555556
 30
0.0
 10
21.78365833333333
 20
-30.74262361111111
 30
0.0
 10
21.70856527777778
 20
-30.72835555555556
 30
0.0
 10
21.62710555555557
 20
-30.75671388888887
 30
0.0
 10
21.60153888888888
 20
-30.76561111111111
 30
0.0
 10
21.57989444444443
 20
-30.7798111111111
 30
0.0
 10
21.56296527777777
 20
-30.8011138888889
 30
0.0
 10
21.52407083333333
 20
-30.85006666666666
 30
0.0
 10
21.50423472222221
 20
-30.9069
 30
0.0
 10
21.49558888888888
 20
-30.96784027777777
 30
0.0
 10
21.46574305555555
 20
-31.17816111111112
 30
0.0
 10
21.50994583333333
 20
-31.39023611111111
 30
0.0
 10
21.52398194444443
 20
-31.60020277777777
 30
0.0
 10
21.53827083333332
 20
-31.81395
 30
0.0
 10
21.54125972222222
 20
-32.0285763888889
 30
0.0
 10
21.52825416666666
 20
-32.24245972222221
 30
0.0
 10
21.50866944444445
 20
-32.56450277777778
 30
0.0
 10
21.48415277777778
 20
-32.89268749999999
 30
0.0
 10
21.57359583333333
 20
-33.20725833333333
 30
0.0
 10
21.6116638888889
 20
-33.34110833333335
 30
0.0
 10
21.6437138888889
 20
-33.47596111111112
 30
0.0
 10
21.65998194444445
 20
-33.61453333333333
 30
0.0
 10
21.69927777777778
 20
-33.94939166666667
 30
0.0
 10
21.87950138888889
 20
-34.23864722222222
 30
0.0
 10
22.06082222222221
 20
-34.51444027777777
 30
0.0
 10
22.25605694444446
 20
-34.81139305555555
 30
0.0
 10
22.4423875
 20
-35.11094444444443
 30
0.0
 10
22.54250833333334
 20
-35.4553138888889
 30
0.0
 10
22.62898333333333
 20
-35.75276527777778
 30
0.0
 10
23.18273888888888
 20
-35.45620833333333
 30
0.0
 10
23.33744861111111
 20
-35.37230694444444
 30
0.0
 10
23.61217638888888
 20
-35.22331527777778
 30
0.0
 10
23.86133749999999
 20
-35.00942500000001
 30
0.0
 10
24.00010138888888
 20
-34.72468611111112
 30
0.0
 10
24.01100555555556
 20
-34.70231111111111
 30
0.0
 10
24.01083472222222
 20
-34.68424999999999
 30
0.0
 10
24.00021666666667
 20
-34.66265972222222
 30
0.0
 10
23.84427916666666
 20
-34.34568749999999
 30
0.0
 10
23.88629861111111
 20
-33.98356944444446
 30
0.0
 10
23.96216944444445
 20
-33.65105277777777
 30
0.0
 10
24.05114027777778
 20
-33.26115694444444
 30
0.0
 10
24.16629444444445
 20
-32.88380972222222
 30
0.0
 10
24.20866111111112
 20
-32.48406805555555
 30
0.0
 10
24.23279027777777
 20
-32.25639444444444
 30
0.0
 10
24.21242777777777
 20
-32.02305000000001
 30
0.0
 10
24.08612500000001
 20
-31.82648472222223
 30
0.0
 10
23.94338333333333
 20
-31.60433194444444
 30
0.0
 10
23.83162083333334
 20
-31.3650236111111
 30
0.0
 10
23.73230555555556
 20
-31.12338888888889
 30
0.0
 10
23.71158888888888
 20
-31.07297083333333
 30
0.0
 10
23.68853194444445
 20
-31.02337638888889
 30
0.0
 10
23.64982916666668
 20
-30.98315972222223
 30
0.0
 10
23.62751666666665
 20
-30.95996666666666
 30
0.0
 10
23.60279444444445
 20
-30.94085972222221
 30
0.0
 10
23.57132499999999
 20
-30.93192083333333
 30
0.0
 10
23.55885833333334
 20
-30.92838055555555
 30
0.0
 10
23.55194583333332
 20
-30.92878194444446
 30
0.0
 10
23.55537777777777
 20
-30.94600555555555
 30
0.0
 10
23.57219166666667
 20
-31.03050694444444
 30
0.0
 10
23.58626805555557
 20
-31.11558333333333
 30
0.0
 10
23.60435694444444
 20
-31.19980555555556
 30
0.0
 10
23.63871388888889
 20
-31.35976249999999
 30
0.0
 10
23.68154444444445
 20
-31.5177
 30
0.0
 10
23.72179027777777
 20
-31.67623749999999
 30
0.0
 10
23.72349583333335
 20
-31.68293888888888
 30
0.0
 10
23.72465555555555
 20
-31.69005555555555
 30
0.0
 10
23.72435555555555
 20
-31.69689999999999
 30
0.0
 10
23.72406944444444
 20
-31.70338888888889
 30
0.0
 10
23.71974305555555
 20
-31.70811111111112
 30
0.0
 10
23.71285138888889
 20
-31.7095986111111
 30
0.0
 10
23.70566666666668
 20
-31.71114027777778
 30
0.0
 10
23.70068472222222
 20
-31.70777638888888
 30
0.0
 10
23.6978875
 20
-31.70172361111112
 30
0.0
 10
23.69533472222222
 20
-31.69618333333334
 30
0.0
 10
23.69354722222223
 20
-31.69021249999999
 30
0.0
 10
23.69205277777776
 20
-31.68426944444445
 30
0.0
 10
23.65755277777778
 20
-31.54705555555557
 30
0.0
 10
23.62056250000001
 20
-31.41045416666667
 30
0.0
 10
23.58913333333334
 20
-31.27248333333333
 30
0.0
 10
23.55911666666667
 20
-31.14068750000001
 30
0.0
 10
23.53988888888888
 20
-31.0069388888889
 30
0.0
 10
23.50714305555556
 20
-30.87568888888889
 30
0.0
 10
23.48664444444444
 20
-30.7935611111111
 30
0.0
 10
23.46844583333334
 20
-30.70606249999999
 30
0.0
 10
23.4171875
 20
-30.63664027777776
 30
0.0
 10
23.41463611111112
 20
-30.63317361111111
 30
0.0
 10
23.41054166666666
 20
-30.62728472222223
 30
0.0
 10
23.40836527777777
 20
-30.62778333333333
 30
0.0
 10
23.40219027777779
 20
-30.62919583333332
 30
0.0
 10
23.40365
 20
-30.63588333333334
 30
0.0
 10
23.40322083333333
 20
-30.64091249999998
 30
0.0
 10
23.40284444444445
 20
-30.64528611111112
 30
0.0
 10
23.4021013888889
 20
-30.64965277777777
 30
0.0
 10
23.40201944444445
 20
-30.65403333333332
 30
0.0
 10
23.3985125
 20
-30.82757638888888
 30
0.0
 10
23.37620555555557
 20
-31.00056666666667
 30
0.0
 10
23.3692875
 20
-31.17406111111111
 30
0.0
 10
23.36219722222222
 20
-31.35175277777777
 30
0.0
 10
23.36386249999999
 20
-31.52992777777778
 30
0.0
 10
23.37728472222223
 20
-31.70729166666668
 30
0.0
 10
23.37827361111113
 20
-31.72036527777777
 30
0.0
 10
23.3803888888889
 20
-31.73698749999999
 30
0.0
 10
23.36122222222222
 20
-31.73706944444444
 30
0.0
 10
23.34268888888889
 20
-31.73713749999999
 30
0.0
 10
23.34816111111111
 20
-31.720475
 30
0.0
 10
23.34679027777777
 20
-31.70892222222222
 30
0.0
  0
SPLINE
  5
4F
330
1F
100
AcDbEntity
  8
Layer 1
370
     0
100
AcDbSpline
210
0.0
220
0.0
230
1.0
 70
    11
 71
     3
 72
    41
 73
    37
 74
     0
 42
0.0000000001
 43
0.0000000001
 12
1.0
 22
0.0
 32
0.0
 13
1.0
 23
0.0
 33
0.0
 40
0.0
 40
0.0
 40
0.0
 40
0.0
 40
1.0
 40
1.0
 40
1.0
 40
2.0
 40
2.0
 40
2.0
 40
3.0
 40
3.0
 40
3.0
 40
4.0
 40
4.0
 40
4.0
 40
5.0
 40
5.0
 40
5.0
 40
6.0
 40
6.0
 40
6.0
 40
7.0
 40
7.0
 40
7.0
 40
8.0
 40
8.0
 40
8.0
 40
9.0
 40
9.0
 40
9.0
 40
10.0
 40
10.0
 40
10.0
 40
11.0
 40
11.0
 40
11.0
 40
12.0
 40
12.0
 40
12.0
 40
12.0
 10
23.63575277777777
 20
-31.83891666666667
 30
0.0
 10
23.64896944444445
 20
-31.82947361111112
 30
0.0
 10
23.65624305555555
 20
-31.84067083333333
 30
0.0
 10
23.66290972222221
 20
-31.85032638888889
 30
0.0
 10
23.66489583333333
 20
-31.8532125
 30
0.0
 10
23.66666944444445
 20
-31.85626944444445
 30
0.0
 10
23.6687513888889
 20
-31.85908750000001
 30
0.0
 10
23.7657
 20
-31.99016805555556
 30
0.0
 10
23.78842222222223
 20
-32.13647083333333
 30
0.0
 10
23.76049999999999
 20
-32.29425694444444
 30
0.0
 10
23.74858611111111
 20
-32.36156527777777
 30
0.0
 10
23.73161527777777
 20
-32.42814861111111
 30
0.0
 10
23.72751527777778
 20
-32.49676666666667
 30
0.0
 10
23.72730972222222
 20
-32.50024583333334
 30
0.0
 10
23.72643055555555
 20
-32.5036986111111
 30
0.0
 10
23.72589027777778
 20
-32.50698749999999
 30
0.0
 10
23.72243194444445
 20
-32.51389305555555
 30
0.0
 10
23.71783888888889
 20
-32.51906527777778
 30
0.0
 10
23.7094875
 20
-32.51761805555556
 30
0.0
 10
23.6986111111111
 20
-32.51572916666666
 30
0.0
 10
23.69524027777778
 20
-32.50784722222222
 30
0.0
 10
23.69638611111112
 20
-32.49815833333334
 30
0.0
 10
23.69998888888889
 20
-32.46767777777778
 30
0.0
 10
23.70286805555555
 20
-32.4370263888889
 30
0.0
 10
23.70825833333333
 20
-32.40684583333334
 30
0.0
 10
23.71904722222222
 20
-32.34639583333334
 30
0.0
 10
23.72969861111111
 20
-32.28605555555555
 30
0.0
 10
23.73726527777777
 20
-32.22500555555555
 30
0.0
 10
23.75325277777779
 20
-32.0959736111111
 30
0.0
 10
23.71750416666666
 20
-31.9819513888889
 30
0.0
 10
23.64409722222222
 20
-31.87745694444445
 30
0.0
 10
23.64157222222222
 20
-31.8738611111111
 30
0.0
 10
23.63928750000001
 20
-31.87010694444444
 30
0.0
 10
23.63674166666667
 20
-31.86652499999999
 30
0.0
 10
23.63029305555556
 20
-31.85745694444444
 30
0.0
 10
23.62425416666666
 20
-31.84711944444444
 30
0.0
 10
23.63575277777777
 20
-31.83891666666667
 30
0.0
  0
HATCH
  5
50
330
1F
100
AcDbEntity
  8
Layer 1
 62
    35
420
 10579544
100
AcDbHatch
 10
0.0
 20
0.0
 30
0.0
210
0.0
220
0.0
230
1.0
  2
SOLID
 70
     1
 71
     0
 91
        2
 92
        1
 93
        1
 72
     4
 94
        3
 73
     0
 74
     1
 95
      182
 96
      178
 40
0.0
 40
0.0
 40
0.0
 40
0.0
 40
1.0
 40
1.0
 40
1.0
 40
2.0
 40
2.0
 40
2.0
 40
3.0
 40
3.0
 40
3.0
 40
4.0
 40
4.0
 40
4.0
 40
5.0
 40
5.0
 40
5.0
 40
6.0
 40
6.0
 40
6.0
 40
7.0
 40
7.0
 40
7.0
 40
8.0
 40
8.0
 40
8.0
 40
9.0
 40
9.0
 40
9.0
 40
10.0
 40
10.0
 40
10.0
 40
11.0
 40
11.0
 40
11.0
 40
12.0
 40
12.0
 40
12.0
 40
13.0
 40
13.0
 40
13.0
 40
14.0
 40
14.0
 40
14.0
 40
15.0
 40
15.0
 40
15.0
 40
16.0
 40
16.0
 40
16.0
 40
17.0
 40
17.0
 40
17.0
 40
18.0
 40
18.0
 40
18.0
 40
19.0
 40
19.0
 40
19.0
 40
20.0
 40
20.0
 40
20.0
 40
21.0
 40
21.0
 40
21.0
 40
22.0
 40
22.0
 40
22.0
 40
23.0
 40
23.0
 40
23.0
 40
24.0
 40
24.0
 40
24.0
 40
25.0
 40
25.0
 40
25.0
 40
26.0
 40
26.0
 40
26.0
 40
27.0
 40
27.0
 40
27.0
 40
28.0
 40
28.0
 40
28.0
 40
29.0
 40
29.0
 40
29.0
 40
30.0
 40
30.0
 40
30.0
 40
31.0
 40
31.0
 40
31.0
 40
32.0
 40
32.0
 40
32.0
 40
33.0
 40
33.0
 40
33.0
 40
34.0
 40
34.0
 40
34.0
 40
35.0
 40
35.0
 40
35.0
 40
36.0
 40
36.0
 40
36.0
 40
37.0
 40
37.0
 40
37.0
 40
38.0
 40
38.0
 40
38.0
 40
39.0
 40
39.0
 40
39.0
 40
40.0
 40
40.0
 40
40.0
 40
41.0
 40
41.0
 40
41.0
 40
42.0
 40
42.0
 40
42.0
 40
43.0
 40
43.0
 40
43.0
 40
44.0
 40
44.0
 40
44.0
 40
45.0
 40
45.0
 40
45.0
 40
46.0
 40
46.0
 40
46.0
 40
47.0
 40
47.0
 40
47.0
 40
48.0
 40
48.0
 40
48.0
 40
49.0
 40
49.0
 40
49.0
 40
50.0
 40
50.0
 40
50.0
 40
51.0
 40
51.0
 40
51.0
 40
52.0
 40
52.0
 40
52.0
 40
53.0
 40
53.0
 40
53.0
 40
54.0
 40
54.0
 40
54.0
 40
55.0
 40
55.0
 40
55.0
 40
56.0
 40
56.0
 40
56.0
 40
57.0
 40
57.0
 40
57.0
 40
58.0
 40
58.0
 40
58.0
 40
59.0
 40
59.0
 40
59.0
 40
59.0
 10
23.34679027777777
 20
-31.70892222222222
 10
23.33768055555555
 20
-31.63186388888888
 10
23.34310555555556
 20
-31.55439027777778
 10
23.33994583333333
 20
-31.47716111111112
 10
23.32826388888889
 20
-31.19144027777778
 10
23.35418611111112
 20
-30.90642916666666
 10
23.37424722222221
 20
-30.62169722222221
 10
23.3805736111111
 20
-30.53191944444443
 10
23.39647916666667
 20
-30.44745833333334
 10
23.35688194444444
 20
-30.36343333333333
 10
23.29410555555556
 20
-30.2302513888889
 10
23.16282083333332
 20
-30.14250833333332
 10
23.05205416666667
 20
-30.05243055555555
 10
22.86311805555556
 20
-29.89881388888888
 10
22.68815694444445
 20
-29.72222083333333
 10
22.48643888888889
 20
-29.58564722222223
 10
22.38465277777777
 20
-29.5167375
 10
22.27197638888889
 20
-29.46480972222222
 10
22.17330833333333
 20
-29.39124583333334
 10
22.13726666666667
 20
-29.36438194444444
 10
22.10052222222223
 20
-29.33875277777777
 10
22.05749999999999
 20
-29.32387083333333
 10
22.00348472222221
 20
-29.30517361111111
 10
21.94800972222222
 20
-29.336575
 10
21.93671666666667
 20
-29.39230972222222
 10
21.93301111111112
 20
-29.41060416666667
 10
21.93312777777777
 20
-29.42900694444444
 10
21.93509861111112
 20
-29.44745833333334
 10
21.95314722222222
 20
-29.61636666666666
 10
22.04774166666667
 20
-29.77231944444444
 10
22.14608194444445
 20
-29.90371944444444
 10
22.24367916666668
 20
-30.03412361111111
 10
22.35097916666667
 20
-30.15473611111111
 10
22.4757125
 20
-30.25947777777777
 10
22.56451388888889
 20
-30.33405138888889
 10
22.68761111111111
 20
-30.43095972222222
 10
22.70227361111112
 20
-30.5549625
 10
22.71465277777778
 20
-30.65964305555556
 10
22.68327777777777
 20
-30.77301527777778
 10
22.66901666666667
 20
-30.87671944444443
 10
22.64667638888889
 20
-31.03917361111111
 10
22.64433611111111
 20
-31.20669027777777
 10
22.60546944444445
 20
-31.36654583333332
 10
22.57955972222223
 20
-31.47311527777778
 10
22.53234861111112
 20
-31.56956527777778
 10
22.5222625
 20
-31.68035277777777
 10
22.51533749999999
 20
-31.75644166666666
 10
22.50356666666665
 20
-31.83206666666666
 10
22.48742222222222
 20
-31.90674305555555
 10
22.46758611111111
 20
-31.99845138888887
 10
22.44115138888888
 20
-32.08855555555556
 10
22.40963333333333
 20
-32.17687916666667
 10
22.38988055555556
 20
-32.23223888888889
 10
22.36812638888889
 20
-32.28689444444444
 10
22.34476249999999
 20
-32.34080833333334
 10
22.34250416666666
 20
-32.34602083333334
 10
22.33699722222223
 20
-32.35555277777777
 10
22.33297222222222
 20
-32.35431805555555
 10
22.330625
 20
-32.3535875
 10
22.32781944444443
 20
-32.3462736111111
 10
22.32694722222221
 20
-32.34035694444444
 10
22.3235625
 20
-32.31723888888889
 10
22.32086666666666
 20
-32.3056875
 10
22.31620694444445
 20
-32.28875833333333
 10
22.30269583333332
 20
-32.2396486111111
 10
22.29203055555556
 20
-32.18973472222223
 10
22.28085416666666
 20
-32.14000555555556
 10
22.2074388888889
 20
-31.813425
 10
22.20782222222222
 20
-31.47630833333334
 10
22.0991638888889
 20
-31.15726805555556
 10
22.0505388888889
 20
-31.01451388888889
 10
21.9929625
 20
-30.86655277777777
 10
21.85677916666666
 20
-30.78591805555556
 10
21.78365833333333
 20
-30.74262361111111
 10
21.70856527777778
 20
-30.72835555555556
 10
21.62710555555557
 20
-30.75671388888887
 10
21.60153888888888
 20
-30.76561111111111
 10
21.57989444444443
 20
-30.7798111111111
 10
21.56296527777777
 20
-30.8011138888889
 10
21.52407083333333
 20
-30.85006666666666
 10
21.50423472222221
 20
-30.9069
 10
21.49558888888888
 20
-30.96784027777777
 10
21.46574305555555
 20
-31.17816111111112
 10
21.50994583333333
 20
-31.39023611111111
 10
21.52398194444443
 20
-31.60020277777777
 10
21.53827083333332
 20
-31.81395
 10
21.54125972222222
 20
-32.0285763888889
 10
21.52825416666666
 20
-32.24245972222221
 10
21.50866944444445
 20
-32.56450277777778
 10
21.48415277777778
 20
-32.89268749999999
 10
21.57359583333333
 20
-33.20725833333333
 10
21.6116638888889
 20
-33.34110833333335
 10
21.6437138888889
 20
-33.47596111111112
 10
21.65998194444445
 20
-33.61453333333333
 10
21.69927777777778
 20
-33.94939166666667
 10
21.87950138888889
 20
-34.23864722222222
 10
22.06082222222221
 20
-34.51444027777777
 10
22.25605694444446
 20
-34.81139305555555
 10
22.4423875
 20
-35.11094444444443
 10
22.54250833333334
 20
-35.4553138888889
 10
22.62898333333333
 20
-35.75276527777778
 10
23.18273888888888
 20
-35.45620833333333
 10
23.33744861111111
 20
-35.37230694444444
 10
23.61217638888888
 20
-35.22331527777778
 10
23.86133749999999
 20
-35.00942500000001
 10
24.00010138888888
 20
-34.72468611111112
 10
24.01100555555556
 20
-34.70231111111111
 10
24.01083472222222
 20
-34.68424999999999
 10
24.00021666666667
 20
-34.66265972222222
 10
23.84427916666666
 20
-34.34568749999999
 10
23.88629861111111
 20
-33.98356944444446
 10
23.96216944444445
 20
-33.65105277777777
 10
24.05114027777778
 20
-33.26115694444444
 10
24.16629444444445
 20
-32.88380972222222
 10
24.20866111111112
 20
-32.48406805555555
 10
24.23279027777777
 20
-32.25639444444444
 10
24.21242777777777
 20
-32.02305000000001
 10
24.08612500000001
 20
-31.82648472222223
 10
23.94338333333333
 20
-31.60433194444444
 10
23.83162083333334
 20
-31.3650236111111
 10
23.73230555555556
 20
-31.12338888888889
 10
23.71158888888888
 20
-31.07297083333333
 10
23.68853194444445
 20
-31.02337638888889
 10
23.64982916666668
 20
-30.98315972222223
 10
23.62751666666665
 20
-30.95996666666666
 10
23.60279444444445
 20
-30.94085972222221
 10
23.57132499999999
 20
-30.93192083333333
 10
23.55885833333334
 20
-30.92838055555555
 10
23.55194583333332
 20
-30.92878194444446
 10
23.55537777777777
 20
-30.94600555555555
 10
23.57219166666667
 20
-31.03050694444444
 10
23.58626805555557
 20
-31.11558333333333
 10
23.60435694444444
 20
-31.19980555555556
 10
23.63871388888889
 20
-31.35976249999999
 10
23.68154444444445
 20
-31.5177
 10
23.72179027777777
 20
-31.67623749999999
 10
23.72349583333335
 20
-31.68293888888888
 10
23.72465555555555
 20
-31.69005555555555
 10
23.72435555555555
 20
-31.69689999999999
 10
23.72406944444444
 20
-31.70338888888889
 10
23.71974305555555
 20
-31.70811111111112
 10
23.71285138888889
 20
-31.7095986111111
 10
23.70566666666668
 20
-31.71114027777778
 10
23.70068472222222
 20
-31.70777638888888
 10
23.6978875
 20
-31.70172361111112
 10
23.69533472222222
 20
-31.69618333333334
 10
23.69354722222223
 20
-31.69021249999999
 10
23.69205277777776
 20
-31.68426944444445
 10
23.65755277777778
 20
-31.54705555555557
 10
23.62056250000001
 20
-31.41045416666667
 10
23.58913333333334
 20
-31.27248333333333
 10
23.55911666666667
 20
-31.14068750000001
 10
23.53988888888888
 20
-31.0069388888889
 10
23.50714305555556
 20
-30.87568888888889
 10
23.48664444444444
 20
-30.7935611111111
 10
23.46844583333334
 20
-30.70606249999999
 10
23.4171875
 20
-30.63664027777776
 10
23.41463611111112
 20
-30.63317361111111
 10
23.41054166666666
 20
-30.62728472222223
 10
23.40836527777777
 20
-30.62778333333333
 10
23.40219027777779
 20
-30.62919583333332
 10
23.40365
 20
-30.63588333333334
 10
23.40322083333333
 20
-30.64091249999998
 10
23.40284444444445
 20
-30.64528611111112
 10
23.4021013888889
 20
-30.64965277777777
 10
23.40201944444445
 20
-30.65403333333332
 10
23.3985125
 20
-30.82757638888888
 10
23.37620555555557
 20
-31.00056666666667
 10
23.3692875
 20
-31.17406111111111
 10
23.36219722222222
 20
-31.35175277777777
 10
23.36386249999999
 20
-31.52992777777778
 10
23.37728472222223
 20
-31.70729166666668
 10
23.37827361111113
 20
-31.72036527777777
 10
23.3803888888889
 20
-31.73698749999999
 10
23.36122222222222
 20
-31.73706944444444
 10
23.34268888888889
 20
-31.73713749999999
 10
23.34816111111111
 20
-31.720475
 10
23.34679027777777
 20
-31.70892222222222
 97
        0
 97
        0
 92
        1
 93
        1
 72
     4
 94
        3
 73
     0
 74
     1
 95
       41
 96
       37
 40
0.0
 40
0.0
 40
0.0
 40
0.0
 40
1.0
 40
1.0
 40
1.0
 40
2.0
 40
2.0
 40
2.0
 40
3.0
 40
3.0
 40
3.0
 40
4.0
 40
4.0
 40
4.0
 40
5.0
 40
5.0
 40
5.0
 40
6.0
 40
6.0
 40
6.0
 40
7.0
 40
7.0
 40
7.0
 40
8.0
 40
8.0
 40
8.0
 40
9.0
 40
9.0
 40
9.0
 40
10.0
 40
10.0
 40
10.0
 40
11.0
 40
11.0
 40
11.0
 40
12.0
 40
12.0
 40
12.0
 40
12.0
 10
23.63575277777777
 20
-31.83891666666667
 10
23.64896944444445
 20
-31.82947361111112
 10
23.65624305555555
 20
-31.84067083333333
 10
23.66290972222221
 20
-31.85032638888889
 10
23.66489583333333
 20
-31.8532125
 10
23.66666944444445
 20
-31.85626944444445
 10
23.6687513888889
 20
-31.85908750000001
 10
23.7657
 20
-31.99016805555556
 10
23.78842222222223
 20
-32.13647083333333
 10
23.76049999999999
 20
-32.29425694444444
 10
23.74858611111111
 20
-32.36156527777777
 10
23.73161527777777
 20
-32.42814861111111
 10
23.72751527777778
 20
-32.49676666666667
 10
23.72730972222222
 20
-32.50024583333334
 10
23.72643055555555
 20
-32.5036986111111
 10
23.72589027777778
 20
-32.50698749999999
 10
23.72243194444445
 20
-32.51389305555555
 10
23.71783888888889
 20
-32.51906527777778
 10
23.7094875
 20
-32.51761805555556
 10
23.6986111111111
 20
-32.51572916666666
 10
23.69524027777778
 20
-32.50784722222222
 10
23.69638611111112
 20
-32.49815833333334
 10
23.69998888888889
 20
-32.46767777777778
 10
23.70286805555555
 20
-32.4370263888889
 10
23.70825833333333
 20
-32.40684583333334
 10
23.71904722222222
 20
-32.34639583333334
 10
23.72969861111111
 20
-32.28605555555555
 10
23.73726527777777
 20
-32.22500555555555
 10
23.75325277777779
 20
-32.0959736111111
 10
23.71750416666666
 20
-31.9819513888889
 10
23.64409722222222
 20
-31.87745694444445
 10
23.64157222222222
 20
-31.8738611111111
 10
23.63928750000001
 20
-31.87010694444444
 10
23.63674166666667
 20
-31.86652499999999
 10
23.63029305555556
 20
-31.85745694444444
 10
23.62425416666666
 20
-31.84711944444444
 10
23.63575277777777
 20
-31.83891666666667
 97
        0
 97
        0
 75
     2
 76
     1
 98
        0
  0
SPLINE
  5
51
330
1F
100
AcDbEntity
  8
Layer 1
370
     0
100
AcDbSpline
210
0.0
220
0.0
230
1.0
 70
    11
 71
     3
 72
    53
 73
    49
 74
     0
 42
0.0000000001
 43
0.0000000001
 12
1.0
 22
0.0
 32
0.0
 13
1.0
 23
0.0
 33
0.0
 40
0.0
 40
0.0
 40
0.0
 40
0.0
 40
1.0
 40
1.0
 40
1.0
 40
2.0
 40
2.0
 40
2.0
 40
3.0
 40
3.0
 40
3.0
 40
4.0
 40
4.0
 40
4.0
 40
5.0
 40
5.0
 40
5.0
 40
6.0
 40
6.0
 40
6.0
 40
7.0
 40
7.0
 40
7.0
 40
8.0
 40
8.0
 40
8.0
 40
9.0
 40
9.0
 40
9.0
 40
10.0
 40
10.0
 40
10.0
 40
11.0
 40
11.0
 40
11.0
 40
12.0
 40
12.0
 40
12.0
 40
13.0
 40
13.0
 40
13.0
 40
14.0
 40
14.0
 40
14.0
 40
15.0
 40
15.0
 40
15.0
 40
16.0
 40
16.0
 40
16.0
 40
16.0
 10
22.50548333333333
 20
-30.78288888888889
 30
0.0
 10
22.54553055555556
 20
-30.79898611111111
 30
0.0
 10
22.58772083333333
 20
-30.80829999999999
 30
0.0
 10
22.62907777777779
 20
-30.8202888888889
 30
0.0
 10
22.64044583333333
 20
-30.82358472222222
 30
0.0
 10
22.64873055555555
 20
-30.82446527777779
 30
0.0
 10
22.6510361111111
 20
-30.80833333333334
 30
0.0
 10
22.66090972222224
 20
-30.73963472222221
 30
0.0
 10
22.66897499999999
 20
-30.67070972222223
 30
0.0
 10
22.67361527777777
 20
-30.6015125
 30
0.0
 10
22.67710277777779
 20
-30.54957916666666
 30
0.0
 10
22.66211111111112
 20
-30.50343194444445
 30
0.0
 10
22.62622638888888
 20
-30.46341805555557
 30
0.0
 10
22.57863194444445
 20
-30.41035138888888
 30
0.0
 10
22.52636388888888
 20
-30.36202083333334
 30
0.0
 10
22.47709861111111
 20
-30.3106875
 30
0.0
 10
22.46815972222223
 20
-30.3013736111111
 30
0.0
 10
22.45693472222223
 20
-30.29593472222223
 30
0.0
 10
22.44452916666667
 20
-30.29474861111112
 30
0.0
 10
22.38686388888889
 20
-30.28924166666666
 30
0.0
 10
22.32880972222223
 20
-30.2791361111111
 30
0.0
 10
22.2712736111111
 20
-30.29159583333333
 30
0.0
 10
22.16050000000001
 20
-30.31558055555555
 30
0.0
 10
22.0503
 20
-30.34222638888889
 30
0.0
 10
21.93967777777778
 20
-30.366975
 30
0.0
 10
21.88111805555556
 20
-30.38008333333333
 30
0.0
 10
21.82403888888888
 20
-30.3970736111111
 30
0.0
 10
21.77012638888889
 20
-30.42379444444444
 30
0.0
 10
21.74032222222223
 20
-30.43857361111111
 30
0.0
 10
21.71497916666668
 20
-30.45821944444444
 30
0.0
 10
21.69792083333333
 20
-30.49367361111111
 30
0.0
 10
21.69738194444443
 20
-30.49551666666667
 30
0.0
 10
21.69506805555557
 20
-30.50215555555554
 30
0.0
 10
21.69345138888889
 20
-30.50897222222223
 30
0.0
 10
21.674325
 20
-30.58983055555556
 30
0.0
 10
21.70232777777778
 20
-30.66438472222222
 30
0.0
 10
21.77066666666666
 20
-30.71208194444444
 30
0.0
 10
21.82910277777778
 20
-30.75287222222222
 30
0.0
 10
21.89602777777776
 20
-30.77205277777777
 30
0.0
 10
21.96542916666666
 20
-30.77991388888889
 30
0.0
 10
22.07912361111112
 20
-30.79279027777776
 30
0.0
 10
22.19177916666667
 20
-30.78159305555555
 30
0.0
 10
22.30310555555555
 20
-30.75620277777779
 30
0.0
 10
22.34032083333333
 20
-30.74771388888889
 30
0.0
 10
22.37744722222222
 20
-30.74252777777777
 30
0.0
 10
22.41503888888888
 20
-30.75420277777779
 30
0.0
 10
22.44524583333332
 20
-30.76357777777778
 30
0.0
 10
22.47600000000001
 20
-30.77104305555556
 30
0.0
 10
22.50548333333333
 20
-30.78288888888889
 30
0.0
  0
HATCH
  5
52
330
1F
100
AcDbEntity
  8
Layer 1
 62
    35
420
 10579544
100
AcDbHatch
 10
0.0
 20
0.0
 30
0.0
210
0.0
220
0.0
230
1.0
  2
SOLID
 70
     1
 71
     0
 91
        1
 92
        1
 93
        1
 72
     4
 94
        3
 73
     0
 74
     1
 95
       53
 96
       49
 40
0.0
 40
0.0
 40
0.0
 40
0.0
 40
1.0
 40
1.0
 40
1.0
 40
2.0
 40
2.0
 40
2.0
 40
3.0
 40
3.0
 40
3.0
 40
4.0
 40
4.0
 40
4.0
 40
5.0
 40
5.0
 40
5.0
 40
6.0
 40
6.0
 40
6.0
 40
7.0
 40
7.0
 40
7.0
 40
8.0
 40
8.0
 40
8.0
 40
9.0
 40
9.0
 40
9.0
 40
10.0
 40
10.0
 40
10.0
 40
11.0
 40
11.0
 40
11.0
 40
12.0
 40
12.0
 40
12.0
 40
13.0
 40
13.0
 40
13.0
 40
14.0
 40
14.0
 40
14.0
 40
15.0
 40
15.0
 40
15.0
 40
16.0
 40
16.0
 40
16.0
 40
16.0
 10
22.50548333333333
 20
-30.78288888888889
 10
22.54553055555556
 20
-30.79898611111111
 10
22.58772083333333
 20
-30.80829999999999
 10
22.62907777777779
 20
-30.8202888888889
 10
22.64044583333333
 20
-30.82358472222222
 10
22.64873055555555
 20
-30.82446527777779
 10
22.6510361111111
 20
-30.80833333333334
 10
22.66090972222224
 20
-30.73963472222221
 10
22.66897499999999
 20
-30.67070972222223
 10
22.67361527777777
 20
-30.6015125
 10
22.67710277777779
 20
-30.54957916666666
 10
22.66211111111112
 20
-30.50343194444445
 10
22.62622638888888
 20
-30.46341805555557
 10
22.57863194444445
 20
-30.41035138888888
 10
22.52636388888888
 20
-30.36202083333334
 10
22.47709861111111
 20
-30.3106875
 10
22.46815972222223
 20
-30.3013736111111
 10
22.45693472222223
 20
-30.29593472222223
 10
22.44452916666667
 20
-30.29474861111112
 10
22.38686388888889
 20
-30.28924166666666
 10
22.32880972222223
 20
-30.2791361111111
 10
22.2712736111111
 20
-30.29159583333333
 10
22.16050000000001
 20
-30.31558055555555
 10
22.0503
 20
-30.34222638888889
 10
21.93967777777778
 20
-30.366975
 10
21.88111805555556
 20
-30.38008333333333
 10
21.82403888888888
 20
-30.3970736111111
 10
21.77012638888889
 20
-30.42379444444444
 10
21.74032222222223
 20
-30.43857361111111
 10
21.71497916666668
 20
-30.45821944444444
 10
21.69792083333333
 20
-30.49367361111111
 10
21.69738194444443
 20
-30.49551666666667
 10
21.69506805555557
 20
-30.50215555555554
 10
21.69345138888889
 20
-30.50897222222223
 10
21.674325
 20
-30.58983055555556
 10
21.70232777777778
 20
-30.66438472222222
 10
21.77066666666666
 20
-30.71208194444444
 10
21.82910277777778
 20
-30.75287222222222
 10
21.89602777777776
 20
-30.77205277777777
 10
21.96542916666666
 20
-30.77991388888889
 10
22.07912361111112
 20
-30.79279027777776
 10
22.19177916666667
 20
-30.78159305555555
 10
22.30310555555555
 20
-30.75620277777779
 10
22.34032083333333
 20
-30.74771388888889
 10
22.37744722222222
 20
-30.74252777777777
 10
22.41503888888888
 20
-30.75420277777779
 10
22.44524583333332
 20
-30.76357777777778
 10
22.47600000000001
 20
-30.77104305555556
 10
22.50548333333333
 20
-30.78288888888889
 97
        0
 97
        0
 75
     2
 76
     1
 98
        0
  0
SPLINE
  5
53
330
1F
100
AcDbEntity
  8
Layer 1
370
     0
100
AcDbSpline
210
0.0
220
0.0
230
1.0
 70
    11
 71
     3
 72
    44
 73
    40
 74
     0
 42
0.0000000001
 43
0.0000000001
 12
1.0
 22
0.0
 32
0.0
 13
1.0
 23
0.0
 33
0.0
 40
0.0
 40
0.0
 40
0.0
 40
0.0
 40
1.0
 40
1.0
 40
1.0
 40
2.0
 40
2.0
 40
2.0
 40
3.0
 40
3.0
 40
3.0
 40
4.0
 40
4.0
 40
4.0
 40
5.0
 40
5.0
 40
5.0
 40
6.0
 40
6.0
 40
6.0
 40
7.0
 40
7.0
 40
7.0
 40
8.0
 40
8.0
 40
8.0
 40
9.0
 40
9.0
 40
9.0
 40
10.0
 40
10.0
 40
10.0
 40
11.0
 40
11.0
 40
11.0
 40
12.0
 40
12.0
 40
12.0
 40
13.0
 40
13.0
 40
13.0
 40
13.0
 10
22.44833055555556
 20
-30.81495277777779
 30
0.0
 10
22.39540694444445
 20
-30.85122638888889
 30
0.0
 10
22.34234722222221
 20
-30.88740416666666
 30
0.0
 10
22.28808611111112
 20
-30.92163888888889
 30
0.0
 10
22.23007361111111
 20
-30.95823333333333
 30
0.0
 10
22.17007361111112
 20
-30.99160000000001
 30
0.0
 10
22.10858055555557
 20
-31.02206666666666
 30
0.0
 10
22.09590972222223
 20
-31.02835138888887
 30
0.0
 10
22.09288611111111
 20
-31.03375555555554
 30
0.0
 10
22.09769027777778
 20
-31.0479486111111
 30
0.0
 10
22.11036111111111
 20
-31.08538888888888
 30
0.0
 10
22.12069166666667
 20
-31.12362777777778
 30
0.0
 10
22.13184166666666
 20
-31.1615736111111
 30
0.0
 10
22.1628138888889
 20
-31.26693611111111
 30
0.0
 10
22.2006361111111
 20
-31.37058472222222
 30
0.0
 10
22.21429722222223
 20
-31.48032777777777
 30
0.0
 10
22.21701944444445
 20
-31.50220416666667
 30
0.0
 10
22.22808055555555
 20
-31.49517499999999
 30
0.0
 10
22.23935277777779
 20
-31.49129305555554
 30
0.0
 10
22.35701805555555
 20
-31.45081527777779
 30
0.0
 10
22.46910138888888
 20
-31.39828194444446
 30
0.0
 10
22.57664583333333
 20
-31.33578472222221
 30
0.0
 10
22.5888125
 20
-31.32872222222221
 30
0.0
 10
22.593425
 20
-31.32033611111109
 30
0.0
 10
22.59360277777778
 20
-31.30630694444443
 30
0.0
 10
22.59446944444446
 20
-31.23773055555554
 30
0.0
 10
22.60529861111111
 20
-31.16991250000001
 30
0.0
 10
22.61085277777778
 20
-31.10166944444444
 30
0.0
 10
22.61712361111111
 20
-31.02462638888889
 30
0.0
 10
22.62749583333334
 20
-30.94797777777777
 30
0.0
 10
22.64059583333334
 20
-30.87174444444445
 30
0.0
 10
22.64188611111111
 20
-30.86420416666667
 30
0.0
 10
22.64516111111111
 20
-30.85557361111111
 30
0.0
 10
22.63340416666668
 20
-30.85301388888888
 30
0.0
 10
22.58471805555556
 20
-30.84099166666667
 30
0.0
 10
22.53625138888889
 20
-30.82809444444443
 30
0.0
 10
22.4896125
 20
-30.80955555555556
 30
0.0
 10
22.47391111111111
 20
-30.80331111111112
 30
0.0
 10
22.46205277777777
 20
-30.80554305555554
 30
0.0
 10
22.44833055555556
 20
-30.81495277777779
 30
0.0
  0
HATCH
  5
54
330
1F
100
AcDbEntity
  8
Layer 1
 62
    35
420
 10579544
100
AcDbHatch
 10
0.0
 20
0.0
 30
0.0
210
0.0
220
0.0
230
1.0
  2
SOLID
 70
     1
 71
     0
 91
        1
 92
        1
 93
        1
 72
     4
 94
        3
 73
     0
 74
     1
 95
       44
 96
       40
 40
0.0
 40
0.0
 40
0.0
 40
0.0
 40
1.0
 40
1.0
 40
1.0
 40
2.0
 40
2.0
 40
2.0
 40
3.0
 40
3.0
 40
3.0
 40
4.0
 40
4.0
 40
4.0
 40
5.0
 40
5.0
 40
5.0
 40
6.0
 40
6.0
 40
6.0
 40
7.0
 40
7.0
 40
7.0
 40
8.0
 40
8.0
 40
8.0
 40
9.0
 40
9.0
 40
9.0
 40
10.0
 40
10.0
 40
10.0
 40
11.0
 40
11.0
 40
11.0
 40
12.0
 40
12.0
 40
12.0
 40
13.0
 40
13.0
 40
13.0
 40
13.0
 10
22.44833055555556
 20
-30.81495277777779
 10
22.39540694444445
 20
-30.85122638888889
 10
22.34234722222221
 20
-30.88740416666666
 10
22.28808611111112
 20
-30.92163888888889
 10
22.23007361111111
 20
-30.95823333333333
 10
22.17007361111112
 20
-30.99160000000001
 10
22.10858055555557
 20
-31.02206666666666
 10
22.09590972222223
 20
-31.02835138888887
 10
22.09288611111111
 20
-31.03375555555554
 10
22.09769027777778
 20
-31.0479486111111
 10
22.11036111111111
 20
-31.08538888888888
 10
22.12069166666667
 20
-31.12362777777778
 10
22.13184166666666
 20
-31.1615736111111
 10
22.1628138888889
 20
-31.26693611111111
 10
22.2006361111111
 20
-31.37058472222222
 10
22.21429722222223
 20
-31.48032777777777
 10
22.21701944444445
 20
-31.50220416666667
 10
22.22808055555555
 20
-31.49517499999999
 10
22.23935277777779
 20
-31.49129305555554
 10
22.35701805555555
 20
-31.45081527777779
 10
22.46910138888888
 20
-31.39828194444446
 10
22.57664583333333
 20
-31.33578472222221
 10
22.5888125
 20
-31.32872222222221
 10
22.593425
 20
-31.32033611111109
 10
22.59360277777778
 20
-31.30630694444443
 10
22.59446944444446
 20
-31.23773055555554
 10
22.60529861111111
 20
-31.16991250000001
 10
22.61085277777778
 20
-31.10166944444444
 10
22.61712361111111
 20
-31.02462638888889
 10
22.62749583333334
 20
-30.94797777777777
 10
22.64059583333334
 20
-30.87174444444445
 10
22.64188611111111
 20
-30.86420416666667
 10
22.64516111111111
 20
-30.85557361111111
 10
22.63340416666668
 20
-30.85301388888888
 10
22.58471805555556
 20
-30.84099166666667
 10
22.53625138888889
 20
-30.82809444444443
 10
22.4896125
 20
-30.80955555555556
 10
22.47391111111111
 20
-30.80331111111112
 10
22.46205277777777
 20
-30.80554305555554
 10
22.44833055555556
 20
-30.81495277777779
 97
        0
 97
        0
 75
     2
 76
     1
 98
        0
  0
SPLINE
  5
55
330
1F
100
AcDbEntity
  8
Layer 1
370
     0
100
AcDbSpline
210
0.0
220
0.0
230
1.0
 70
    11
 71
     3
 72
    29
 73
    25
 74
     0
 42
0.0000000001
 43
0.0000000001
 12
1.0
 22
0.0
 32
0.0
 13
1.0
 23
0.0
 33
0.0
 40
0.0
 40
0.0
 40
0.0
 40
0.0
 40
1.0
 40
1.0
 40
1.0
 40
2.0
 40
2.0
 40
2.0
 40
3.0
 40
3.0
 40
3.0
 40
4.0
 40
4.0
 40
4.0
 40
5.0
 40
5.0
 40
5.0
 40
6.0
 40
6.0
 40
6.0
 40
7.0
 40
7.0
 40
7.0
 40
8.0
 40
8.0
 40
8.0
 40
8.0
 10
22.25723055555555
 20
-31.81057222222221
 30
0.0
 10
22.27244027777778
 20
-31.93983055555557
 30
0.0
 10
22.29558611111111
 20
-32.06769583333332
 30
0.0
 10
22.32517222222224
 20
-32.19440833333334
 30
0.0
 10
22.33053611111111
 20
-32.21737083333333
 30
0.0
 10
22.35423333333334
 20
-32.22527916666667
 30
0.0
 10
22.37093055555556
 20
-32.20888888888887
 30
0.0
 10
22.37810277777779
 20
-32.20184027777777
 30
0.0
 10
22.38202638888889
 20
-32.1926625
 30
0.0
 10
22.38664583333333
 20
-32.18183333333334
 30
0.0
 10
22.41172916666667
 20
-32.11209722222222
 30
0.0
 10
22.43251388888888
 20
-32.04158333333334
 30
0.0
 10
22.44376527777778
 20
-31.96820277777778
 30
0.0
 10
22.45559027777777
 20
-31.89104166666667
 30
0.0
 10
22.47512638888889
 20
-31.81515833333333
 30
0.0
 10
22.48042777777778
 20
-31.73685138888888
 30
0.0
 10
22.48177222222221
 20
-31.71710416666666
 30
0.0
 10
22.47914583333333
 20
-31.71285277777777
 30
0.0
 10
22.45892083333334
 20
-31.71813472222223
 30
0.0
 10
22.39316249999999
 20
-31.73528194444444
 30
0.0
 10
22.3311638888889
 20
-31.76268472222222
 30
0.0
 10
22.26744583333334
 20
-31.78535972222221
 30
0.0
 10
22.2526388888889
 20
-31.79062777777777
 30
0.0
 10
22.25600972222221
 20
-31.80022777777779
 30
0.0
 10
22.25723055555555
 20
-31.81057222222221
 30
0.0
  0
HATCH
  5
56
330
1F
100
AcDbEntity
  8
Layer 1
 62
    35
420
 10579544
100
AcDbHatch
 10
0.0
 20
0.0
 30
0.0
210
0.0
220
0.0
230
1.0
  2
SOLID
 70
     1
 71
     0
 91
        1
 92
        1
 93
        1
 72
     4
 94
        3
 73
     0
 74
     1
 95
       29
 96
       25
 40
0.0
 40
0.0
 40
0.0
 40
0.0
 40
1.0
 40
1.0
 40
1.0
 40
2.0
 40
2.0
 40
2.0
 40
3.0
 40
3.0
 40
3.0
 40
4.0
 40
4.0
 40
4.0
 40
5.0
 40
5.0
 40
5.0
 40
6.0
 40
6.0
 40
6.0
 40
7.0
 40
7.0
 40
7.0
 40
8.0
 40
8.0
 40
8.0
 40
8.0
 10
22.25723055555555
 20
-31.81057222222221
 10
22.27244027777778
 20
-31.93983055555557
 10
22.29558611111111
 20
-32.06769583333332
 10
22.32517222222224
 20
-32.19440833333334
 10
22.33053611111111
 20
-32.21737083333333
 10
22.35423333333334
 20
-32.22527916666667
 10
22.37093055555556
 20
-32.20888888888887
 10
22.37810277777779
 20
-32.20184027777777
 10
22.38202638888889
 20
-32.1926625
 10
22.38664583333333
 20
-32.18183333333334
 10
22.41172916666667
 20
-32.11209722222222
 10
22.43251388888888
 20
-32.04158333333334
 10
22.44376527777778
 20
-31.96820277777778
 10
22.45559027777777
 20
-31.89104166666667
 10
22.47512638888889
 20
-31.81515833333333
 10
22.48042777777778
 20
-31.73685138888888
 10
22.48177222222221
 20
-31.71710416666666
 10
22.47914583333333
 20
-31.71285277777777
 10
22.45892083333334
 20
-31.71813472222223
 10
22.39316249999999
 20
-31.73528194444444
 10
22.3311638888889
 20
-31.76268472222222
 10
22.26744583333334
 20
-31.78535972222221
 10
22.2526388888889
 20
-31.79062777777777
 10
22.25600972222221
 20
-31.80022777777779
 10
22.25723055555555
 20
-31.81057222222221
 97
        0
 97
        0
 75
     2
 76
     1
 98
        0
  0
ENDSEC
  0
SECTION
  2
OBJECTS
  0
DICTIONARY
  5
C
330
0
100
AcDbDictionary
281
     1
  3
ACAD_GROUP
350
D
  3
ACAD_LAYOUT
350
1A
  3
ACAD_MATERIAL
350
3B
  3
ACAD_MLEADERSTYLE
350
58
  3
ACAD_MLINESTYLE
350
17
  3
ACAD_PLOTSETTINGS
350
19
  3
ACAD_PLOTSTYLENAME
350
E
  3
ACAD_TABLESTYLE
350
57
  3
ACAD_VISUALSTYLE
350
2A
  0
SUN
  5
3F
330
29
100
AcDbSun
 90
        1
290
     0
 63
     7
421
 16777215
 40
1.0
291
     1
 91
  2455826
 92
 54000000
292
     0
 70
     2
 71
   256
280
     1
  0
DICTIONARY
  5
D
102
{ACAD_REACTORS
330
C
102
}
330
C
100
AcDbDictionary
281
     1
  0
DICTIONARY
  5
1A
102
{ACAD_REACTORS
330
C
102
}
330
C
100
AcDbDictionary
281
     1
  3
Layout1
350
1E
  3
Layout2
350
26
  3
Model
350
22
  0
DICTIONARY
  5
3B
102
{ACAD_REACTORS
330
C
102
}
330
C
100
AcDbDictionary
281
     1
  3
ByBlock
350
3D
  3
ByLayer
350
3C
  3
Global
350
3E
  0
DICTIONARY
  5
58
102
{ACAD_REACTORS
330
C
102
}
330
C
100
AcDbDictionary
281
     1
  0
DICTIONARY
  5
17
102
{ACAD_REACTORS
330
C
102
}
330
C
100
AcDbDictionary
281
     1
  3
Standard
350
18
  0
DICTIONARY
  5
19
102
{ACAD_REACTORS
330
C
102
}
330
C
100
AcDbDictionary
281
     1
  0
ACDBDICTIONARYWDFLT
  5
E
102
{ACAD_REACTORS
330
C
102
}
330
C
100
AcDbDictionary
281
     1
  3
Normal
350
F
100
AcDbDictionaryWithDefault
340
F
  0
DICTIONARY
  5
57
102
{ACAD_REACTORS
330
C
102
}
330
C
100
AcDbDictionary
281
     1
  0
DICTIONARY
  5
2A
102
{ACAD_REACTORS
330
C
102
}
330
C
100
AcDbDictionary
281
     1
  3
2dWireframe
350
2F
  3
3D Hidden
350
31
  3
3dWireframe
350
30
  3
Basic
350
32
  3
Brighten
350
36
  3
ColorChange
350
3A
  3
Conceptual
350
34
  3
Dim
350
35
  3
Facepattern
350
39
  3
Flat
350
2B
  3
FlatWithEdges
350
2C
  3
Gouraud
350
2D
  3
GouraudWithEdges
350
2E
  3
Linepattern
350
38
  3
Realistic
350
33
  3
Thicken
350
37
  0
LAYOUT
  5
1E
102
{ACAD_REACTORS
330
1A
102
}
330
1A
100
AcDbPlotSettings
  1

  2
none_device
  4

  6

 40
0.0
 41
0.0
 42
0.0
 43
0.0
 44
0.0
 45
0.0
 46
0.0
 47
0.0
 48
0.0
 49
0.0
140
0.0
141
0.0
142
1.0
143
1.0
 70
   688
 72
     0
 73
     0
 74
     5
  7

 75
    16
 76
     0
 77
     2
 78
   300
147
1.0
148
0.0
149
0.0
100
AcDbLayout
  1
Layout1
 70
     1
 71
     1
 10
0.0
 20
0.0
 11
12.0
 21
9.0
 12
0.0
 22
0.0
 32
0.0
 14
1.000000000000000E+20
 24
1.000000000000000E+20
 34
1.000000000000000E+20
 15
-1.000000000000000E+20
 25
-1.000000000000000E+20
 35
-1.000000000000000E+20
146
0.0
 13
0.0
 23
0.0
 33
0.0
 16
1.0
 26
0.0
 36
0.0
 17
0.0
 27
1.0
 37
0.0
 76
     0
330
1B
  0
LAYOUT
  5
26
102
{ACAD_REACTORS
330
1A
102
}
330
1A
100
AcDbPlotSettings
  1

  2
none_device
  4

  6

 40
0.0
 41
0.0
 42
0.0
 43
0.0
 44
0.0
 45
0.0
 46
0.0
 47
0.0
 48
0.0
 49
0.0
140
0.0
141
0.0
142
1.0
143
1.0
 70
   688
 72
     0
 73
     0
 74
     5
  7

 75
    16
 76
     0
 77
     2
 78
   300
147
1.0
148
0.0
149
0.0
100
AcDbLayout
  1
Layout2
 70
     1
 71
     2
 10
0.0
 20
0.0
 11
0.0
 21
0.0
 12
0.0
 22
0.0
 32
0.0
 14
0.0
 24
0.0
 34
0.0
 15
0.0
 25
0.0
 35
0.0
146
0.0
 13
0.0
 23
0.0
 33
0.0
 16
1.0
 26
0.0
 36
0.0
 17
0.0
 27
1.0
 37
0.0
 76
     0
330
23
  0
LAYOUT
  5
22
102
{ACAD_REACTORS
330
1A
102
}
330
1A
100
AcDbPlotSettings
  1

  2
none_device
  4

  6

 40
0.0
 41
0.0
 42
0.0
 43
0.0
 44
0.0
 45
0.0
 46
0.0
 47
0.0
 48
0.0
 49
0.0
140
0.0
141
0.0
142
1.0
143
1.0
 70
  1712
 72
     0
 73
     0
 74
     0
  7

 75
     0
 76
     0
 77
     2
 78
   300
147
1.0
148
0.0
149
0.0
100
AcDbLayout
  1
Model
 70
     1
 71
     0
 10
0.0
 20
0.0
 11
12.0
 21
9.0
 12
0.0
 22
0.0
 32
0.0
 14
1.000000000000000E+20
 24
1.000000000000000E+20
 34
1.000000000000000E+20
 15
-1.000000000000000E+20
 25
-1.000000000000000E+20
 35
-1.000000000000000E+20
146
0.0
 13
0.0
 23
0.0
 33
0.0
 16
1.0
 26
0.0
 36
0.0
 17
0.0
 27
1.0
 37
0.0
 76
     0
330
1F
331
29
  0
MATERIAL
  5
3D
102
{ACAD_REACTORS
330
3B
102
}
330
3B
100
AcDbMaterial
  1
ByBlock
 72
     1
 94
      127
  0
MATERIAL
  5
3C
102
{ACAD_REACTORS
330
3B
102
}
330
3B
100
AcDbMaterial
  1
ByLayer
 72
     1
 94
      127
  0
MATERIAL
  5
3E
102
{ACAD_REACTORS
330
3B
102
}
330
3B
100
AcDbMaterial
  1
Global
 72
     1
 94
      127
  0
MLINESTYLE
  5
18
102
{ACAD_REACTORS
330
17
102
}
330
17
100
AcDbMlineStyle
  2
Standard
 70
     0
  3

 62
   256
 51
90.0
 52
90.0
 71
     2
 49
0.5
 62
   256
  6
BYLAYER
 49
-0.5
 62
   256
  6
BYLAYER
  0
ACDBPLACEHOLDER
  5
F
102
{ACAD_REACTORS
330
E
102
}
330
E
  0
VISUALSTYLE
  5
2F
102
{ACAD_REACTORS
330
2A
102
}
330
2A
100
AcDbVisualStyle
  2
2dWireframe
 70
     4
177
     2
291
     0
 71
     0
176
     1
 72
     2
176
     1
 73
     0
176
     1
 90
        0
176
     1
 40
-0.6
176
     1
 41
-30.0
176
     1
 62
     5
 63
     7
421
 16777215
176
     1
 74
     1
176
     1
 91
        4
176
     1
 64
     7
176
     1
 65
   257
176
     1
 75
     1
176
     1
175
     1
176
     1
 42
1.0
176
     1
 92
        0
176
     1
 66
   257
176
     1
 43
1.0
176
     1
 76
     1
176
     1
 77
     6
176
     1
 78
     2
176
     1
 67
     7
176
     1
 79
     5
176
     1
170
     0
176
     1
171
     0
176
     1
290
     0
176
     1
 93
        1
176
     1
 44
0.0
176
     1
173
     0
176
     1
  0
VISUALSTYLE
  5
31
102
{ACAD_REACTORS
330
2A
102
}
330
2A
100
AcDbVisualStyle
  2
3D Hidden
 70
     6
177
     2
291
     0
 71
     1
176
     1
 72
     2
176
     1
 73
     2
176
     1
 90
        0
176
     1
 40
-0.6
176
     1
 41
-30.0
176
     1
 62
     5
 63
     7
421
 16777215
176
     1
 74
     2
176
     1
 91
        2
176
     1
 64
     7
176
     1
 65
   257
176
     1
 75
     2
176
     1
175
     1
176
     1
 42
40.0
176
     1
 92
        0
176
     1
 66
   257
176
     1
 43
1.0
176
     1
 76
     1
176
     1
 77
     6
176
     1
 78
     2
176
     1
 67
     7
176
     1
 79
     3
176
     1
170
     0
176
     1
171
     0
176
     1
290
     0
176
     1
 93
        1
176
     1
 44
0.0
176
     1
173
     0
176
     1
  0
VISUALSTYLE
  5
30
102
{ACAD_REACTORS
330
2A
102
}
330
2A
100
AcDbVisualStyle
  2
3dWireframe
 70
     5
177
     2
291
     0
 71
     0
176
     1
 72
     2
176
     1
 73
     0
176
     1
 90
        0
176
     1
 40
-0.6
176
     1
 41
-30.0
176
     1
 62
     5
 63
     7
421
 16777215
176
     1
 74
     1
176
     1
 91
        4
176
     1
 64
     7
176
     1
 65
   257
176
     1
 75
     1
176
     1
175
     1
176
     1
 42
1.0
176
     1
 92
        0
176
     1
 66
   257
176
     1
 43
1.0
176
     1
 76
     1
176
     1
 77
     6
176
     1
 78
     2
176
     1
 67
     7
176
     1
 79
     5
176
     1
170
     0
176
     1
171
     0
176
     1
290
     0
176
     1
 93
        1
176
     1
 44
0.0
176
     1
173
     0
176
     1
  0
VISUALSTYLE
  5
32
102
{ACAD_REACTORS
330
2A
102
}
330
2A
100
AcDbVisualStyle
  2
Basic
 70
     7
177
     2
291
     1
 71
     1
176
     1
 72
     0
176
     1
 73
     1
176
     1
 90
        0
176
     1
 40
-0.6
176
     1
 41
-30.0
176
     1
 62
     5
 63
     7
421
 16777215
176
     1
 74
     0
176
     1
 91
        4
176
     1
 64
     7
176
     1
 65
   257
176
     1
 75
     1
176
     1
175
     1
176
     1
 42
1.0
176
     1
 92
        8
176
     1
 66
     7
176
     1
 43
1.0
176
     1
 76
     1
176
     1
 77
     6
176
     1
 78
     2
176
     1
 67
     7
176
     1
 79
     5
176
     1
170
     0
176
     1
171
     0
176
     1
290
     0
176
     1
 93
        1
176
     1
 44
0.0
176
     1
173
     0
176
     1
  0
VISUALSTYLE
  5
36
102
{ACAD_REACTORS
330
2A
102
}
330
2A
100
AcDbVisualStyle
  2
Brighten
 70
    12
177
     2
291
     1
 71
     2
176
     1
 72
     2
176
     1
 73
     0
176
     1
 90
        0
176
     1
 40
-0.6
176
     1
 41
-30.0
176
     1
 62
     5
 63
     7
421
 16777215
176
     1
 74
     1
176
     1
 91
        4
176
     1
 64
     7
176
     1
 65
   257
176
     1
 75
     1
176
     1
175
     1
176
     1
 42
1.0
176
     1
 92
        8
176
     1
 66
     7
176
     1
 43
1.0
176
     1
 76
     1
176
     1
 77
     6
176
     1
 78
     2
176
     1
 67
     7
176
     1
 79
     5
176
     1
170
     0
176
     1
171
     0
176
     1
290
     0
176
     1
 93
        1
176
     1
 44
50.0
176
     1
173
     0
176
     1
  0
VISUALSTYLE
  5
3A
102
{ACAD_REACTORS
330
2A
102
}
330
2A
100
AcDbVisualStyle
  2
ColorChange
 70
    16
177
     2
291
     1
 71
     2
176
     1
 72
     2
176
     1
 73
     3
176
     1
 90
        0
176
     1
 40
-0.6
176
     1
 41
-30.0
176
     1
 62
     5
 63
     8
421
  8421504
176
     1
 74
     1
176
     1
 91
        4
176
     1
 64
     7
176
     1
 65
   257
176
     1
 75
     1
176
     1
175
     1
176
     1
 42
1.0
176
     1
 92
        8
176
     1
 66
     8
424
  8421504
176
     1
 43
1.0
176
     1
 76
     1
176
     1
 77
     6
176
     1
 78
     2
176
     1
 67
     7
176
     1
 79
     5
176
     1
170
     0
176
     1
171
     0
176
     1
290
     0
176
     1
 93
        1
176
     1
 44
0.0
176
     1
173
     0
176
     1
  0
VISUALSTYLE
  5
34
102
{ACAD_REACTORS
330
2A
102
}
330
2A
100
AcDbVisualStyle
  2
Conceptual
 70
     9
177
     2
291
     0
 71
     3
176
     1
 72
     2
176
     1
 73
     0
176
     1
 90
        0
176
     1
 40
-0.6
176
     1
 41
-30.0
176
     1
 62
     5
 63
     7
421
 16777215
176
     1
 74
     2
176
     1
 91
        2
176
     1
 64
     7
176
     1
 65
   257
176
     1
 75
     1
176
     1
175
     1
176
     1
 42
40.0
176
     1
 92
        8
176
     1
 66
     7
176
     1
 43
1.0
176
     1
 76
     1
176
     1
 77
     6
176
     1
 78
     2
176
     1
 67
     7
176
     1
 79
     3
176
     1
170
     0
176
     1
171
     0
176
     1
290
     0
176
     1
 93
        1
176
     1
 44
0.0
176
     1
173
     0
176
     1
  0
VISUALSTYLE
  5
35
102
{ACAD_REACTORS
330
2A
102
}
330
2A
100
AcDbVisualStyle
  2
Dim
 70
    11
177
     2
291
     1
 71
     2
176
     1
 72
     2
176
     1
 73
     0
176
     1
 90
        0
176
     1
 40
-0.6
176
     1
 41
-30.0
176
     1
 62
     5
 63
     7
421
 16777215
176
     1
 74
     1
176
     1
 91
        4
176
     1
 64
     7
176
     1
 65
   257
176
     1
 75
     1
176
     1
175
     1
176
     1
 42
1.0
176
     1
 92
        8
176
     1
 66
     7
176
     1
 43
1.0
176
     1
 76
     1
176
     1
 77
     6
176
     1
 78
     2
176
     1
 67
     7
176
     1
 79
     5
176
     1
170
     0
176
     1
171
     0
176
     1
290
     0
176
     1
 93
        1
176
     1
 44
-50.0
176
     1
173
     0
176
     1
  0
VISUALSTYLE
  5
39
102
{ACAD_REACTORS
330
2A
102
}
330
2A
100
AcDbVisualStyle
  2
Facepattern
 70
    15
177
     2
291
     1
 71
     2
176
     1
 72
     2
176
     1
 73
     0
176
     1
 90
        0
176
     1
 40
-0.6
176
     1
 41
-30.0
176
     1
 62
     5
 63
     7
421
 16777215
176
     1
 74
     1
176
     1
 91
        4
176
     1
 64
     7
176
     1
 65
   257
176
     1
 75
     1
176
     1
175
     1
176
     1
 42
1.0
176
     1
 92
        8
176
     1
 66
     7
176
     1
 43
1.0
176
     1
 76
     1
176
     1
 77
     6
176
     1
 78
     2
176
     1
 67
     7
176
     1
 79
     5
176
     1
170
     0
176
     1
171
     0
176
     1
290
     0
176
     1
 93
        1
176
     1
 44
0.0
176
     1
173
     0
176
     1
  0
VISUALSTYLE
  5
2B
102
{ACAD_REACTORS
330
2A
102
}
330
2A
100
AcDbVisualStyle
  2
Flat
 70
     0
177
     2
291
     1
 71
     2
176
     1
 72
     1
176
     1
 73
     1
176
     1
 90
        2
176
     1
 40
-0.6
176
     1
 41
30.0
176
     1
 62
     5
 63
     7
421
 16777215
176
     1
 74
     0
176
     1
 91
        4
176
     1
 64
     7
176
     1
 65
   257
176
     1
 75
     1
176
     1
175
     1
176
     1
 42
1.0
176
     1
 92
        8
176
     1
 66
     7
176
     1
 43
1.0
176
     1
 76
     1
176
     1
 77
     6
176
     1
 78
     2
176
     1
 67
     7
176
     1
 79
     5
176
     1
170
     0
176
     1
171
     0
176
     1
290
     0
176
     1
 93
       13
176
     1
 44
0.0
176
     1
173
     0
176
     1
  0
VISUALSTYLE
  5
2C
102
{ACAD_REACTORS
330
2A
102
}
330
2A
100
AcDbVisualStyle
  2
FlatWithEdges
 70
     1
177
     2
291
     1
 71
     2
176
     1
 72
     1
176
     1
 73
     1
176
     1
 90
        2
176
     1
 40
-0.6
176
     1
 41
30.0
176
     1
 62
     5
 63
     7
421
 16777215
176
     1
 74
     1
176
     1
 91
        4
176
     1
 64
     7
176
     1
 65
   257
176
     1
 75
     1
176
     1
175
     1
176
     1
 42
1.0
176
     1
 92
        0
176
     1
 66
   257
176
     1
 43
1.0
176
     1
 76
     1
176
     1
 77
     6
176
     1
 78
     2
176
     1
 67
     7
176
     1
 79
     5
176
     1
170
     0
176
     1
171
     0
176
     1
290
     0
176
     1
 93
       13
176
     1
 44
0.0
176
     1
173
     0
176
     1
  0
VISUALSTYLE
  5
2D
102
{ACAD_REACTORS
330
2A
102
}
330
2A
100
AcDbVisualStyle
  2
Gouraud
 70
     2
177
     2
291
     1
 71
     2
176
     1
 72
     2
176
     1
 73
     1
176
     1
 90
        2
176
     1
 40
-0.6
176
     1
 41
30.0
176
     1
 62
     5
 63
     7
421
 16777215
176
     1
 74
     0
176
     1
 91
        4
176
     1
 64
     7
176
     1
 65
   257
176
     1
 75
     1
176
     1
175
     1
176
     1
 42
1.0
176
     1
 92
        0
176
     1
 66
     7
176
     1
 43
1.0
176
     1
 76
     1
176
     1
 77
     6
176
     1
 78
     2
176
     1
 67
     7
176
     1
 79
     5
176
     1
170
     0
176
     1
171
     0
176
     1
290
     0
176
     1
 93
       13
176
     1
 44
0.0
176
     1
173
     0
176
     1
  0
VISUALSTYLE
  5
2E
102
{ACAD_REACTORS
330
2A
102
}
330
2A
100
AcDbVisualStyle
  2
GouraudWithEdges
 70
     3
177
     2
291
     1
 71
     2
176
     1
 72
     2
176
     1
 73
     1
176
     1
 90
        2
176
     1
 40
-0.6
176
     1
 41
30.0
176
     1
 62
     5
 63
     7
421
 16777215
176
     1
 74
     1
176
     1
 91
        4
176
     1
 64
     7
176
     1
 65
   257
176
     1
 75
     1
176
     1
175
     1
176
     1
 42
1.0
176
     1
 92
        0
176
     1
 66
   257
176
     1
 43
1.0
176
     1
 76
     1
176
     1
 77
     6
176
     1
 78
     2
176
     1
 67
     7
176
     1
 79
     5
176
     1
170
     0
176
     1
171
     0
176
     1
290
     0
176
     1
 93
       13
176
     1
 44
0.0
176
     1
173
     0
176
     1
  0
VISUALSTYLE
  5
38
102
{ACAD_REACTORS
330
2A
102
}
330
2A
100
AcDbVisualStyle
  2
Linepattern
 70
    14
177
     2
291
     1
 71
     2
176
     1
 72
     2
176
     1
 73
     0
176
     1
 90
        0
176
     1
 40
-0.6
176
     1
 41
-30.0
176
     1
 62
     5
 63
     7
421
 16777215
176
     1
 74
     1
176
     1
 91
        4
176
     1
 64
     7
176
     1
 65
   257
176
     1
 75
     7
176
     1
175
     7
176
     1
 42
1.0
176
     1
 92
        8
176
     1
 66
     7
176
     1
 43
1.0
176
     1
 76
     1
176
     1
 77
     6
176
     1
 78
     2
176
     1
 67
     7
176
     1
 79
     5
176
     1
170
     0
176
     1
171
     0
176
     1
290
     0
176
     1
 93
        1
176
     1
 44
0.0
176
     1
173
     0
176
     1
  0
VISUALSTYLE
  5
33
102
{ACAD_REACTORS
330
2A
102
}
330
2A
100
AcDbVisualStyle
  2
Realistic
 70
     8
177
     2
291
     0
 71
     2
176
     1
 72
     2
176
     1
 73
     0
176
     1
 90
        0
176
     1
 40
-0.6
176
     1
 41
-30.0
176
     1
 62
     5
 63
     7
421
 16777215
176
     1
 74
     1
176
     1
 91
        0
176
     1
 64
     7
176
     1
 65
   257
176
     1
 75
     1
176
     1
175
     1
176
     1
 42
1.0
176
     1
 92
        8
176
     1
 66
     8
424
  7895160
176
     1
 43
1.0
176
     1
 76
     1
176
     1
 77
     6
176
     1
 78
     2
176
     1
 67
     7
176
     1
 79
     5
176
     1
170
     0
176
     1
171
     0
176
     1
290
     0
176
     1
 93
       13
176
     1
 44
0.0
176
     1
173
     0
176
     1
  0
VISUALSTYLE
  5
37
102
{ACAD_REACTORS
330
2A
102
}
330
2A
100
AcDbVisualStyle
  2
Thicken
 70
    13
177
     2
291
     1
 71
     2
176
     1
 72
     2
176
     1
 73
     0
176
     1
 90
        0
176
     1
 40
-0.6
176
     1
 41
-30.0
176
     1
 62
     5
 63
     7
421
 16777215
176
     1
 74
     1
176
     1
 91
        4
176
     1
 64
     7
176
     1
 65
   257
176
     1
 75
     1
176
     1
175
     1
176
     1
 42
1.0
176
     1
 92
       12
176
     1
 66
     7
176
     1
 43
1.0
176
     1
 76
     1
176
     1
 77
     6
176
     1
 78
     2
176
     1
 67
     7
176
     1
 79
     5
176
     1
170
     0
176
     1
171
     0
176
     1
290
     0
176
     1
 93
        1
176
     1
 44
0.0
176
     1
173
     0
176
     1
  0
ENDSEC
  0
EOF
