<svg id="Layer_1" data-name="Layer 1" xmlns="http://www.w3.org/2000/svg" viewBox="0 0 864 466.75"><title>Untitled-29</title><path d="M675.88,200.23c-1.82,2.85-1.82,2.82,1.42,3.64,53.5,13.6,106.33,27.07,158.75,44.56,4.86,1.62,7.41.26,9-4.66.24-.75.47-1.51.65-2.28a604.69,604.69,0,0,0,16.64-109.75c2-34.69,4.84-75.11-9-107.87a9.1,9.1,0,0,0-8.59-6C754.61,13,655.49-16.68,566.51,13.09,498.74,35.76,434.81,69.44,364,81.63c-18.63,3.21-37.52,4.16-55.8,9.11-14.42,3.9-25.73,13.07-37,22.47A291.12,291.12,0,0,1,232,140.5c-30,17.74-61.94,32.14-94.45,44.7-8.63,3.33-16.62,7.61-23.21,14.15-20.5,20.34-42.66,38.86-63.7,58.61C31.83,275.6,12.5,294.9,2.46,319.11a28.76,28.76,0,0,0-1.35,19.5C6.37,357,27.3,354,41,347.86c35.66-16.1,52.83-53.66,86.28-72.3,9.1-5.07,18.67-9,28.31-12.84a11.73,11.73,0,0,0,5.75-4.4,157.89,157.89,0,0,1,10.3-13c5.57-6.57,12.11-12.13,18.25-18.1,9.7-9.43,19.39-18.9,29.62-27.76a438.4,438.4,0,0,0,32.43-31.66c3.17-3.37,6.31-6.76,9.47-10.14.9-1,2-1.82,3.2-.76s.45,2.26-.27,3.31a9.74,9.74,0,0,1-.85,1c-13.87,14.82-27.79,29.81-43.12,43.09-15.61,13.52-31,27.38-44.56,43-16.07,18.54-27,39.29-37.17,61.44-11,23.89-27.12,44.95-36.76,69.63C94.33,397.72,73.64,428,81.31,449.32c4.57,12.73,19.24,18,31.6,14.14,3.49-1.09,4.12-1.88,3.85-5.55-.3-4.18-.49-8.34,1.15-12.34a116.3,116.3,0,0,1,12.35-22.5C172.59,362.5,205.75,290.91,259,238.86c17.6-17.22,36.9-32.49,55.35-48.73,1-.85,2-1.21,3-.17a2,2,0,0,1-.23,3,50.35,50.35,0,0,1-4.23,3.9c-30.05,24.61-59.82,49.83-83,81.16-22.09,29.8-40.14,62.28-60,93.52-10.54,16.56-21.65,32.72-32.88,48.81-5.89,8.43-11.53,17-14.92,26.81a15.62,15.62,0,0,0-1.22,6.93c.83,7.26,6.78,12,15.27,12.55,12.34.76,22.49-4.24,31.35-12.06,19.22-16.94,32.42-38.86,47.64-59.15,20.6-27.47,43.89-52.67,65.25-79.51,12.68-15.92,28.2-27.91,47.46-34.62A25.36,25.36,0,0,0,341,271.26a156.2,156.2,0,0,1,32-33.78,230.13,230.13,0,0,0,25.31-22.93c.92-1,1.85-2,2.81-2.93s2.06-1.77,3.24-.71c2.88,2.56-8.69,12-10.58,13.88A178.47,178.47,0,0,1,378.73,238c-23.8,18.42-41.76,41.76-56,67.93-12.2,22.49-26.2,44.63-43.88,63.22-13.52,14.22-34.28,34.63-30.1,56.41,1.69,8.8,7.94,14.05,16.84,14,6.05,0,11.48-2.2,16.66-5,32.74-18,47.2-54.08,75.82-76.66,25.38-20,44.23-45.81,72.74-62.19,19.75-11.35,45.75-14.4,67.37-21.69,28.59-9.65,57.89-14.29,87-21.64,33.21-8.31,66.76-22.12,86-52.1,8.75-13.67,15.39-28.31,21-43.47.6-1.61.57-4.61,3.32-3.63s1,3.4.38,5C690.47,172.77,684.32,187.05,675.88,200.23Z"/><path d="M143.6,177.61c1.24.57,2.19.06,3.19-.37q36.81-15.83,72.37-34.31A335,335,0,0,0,256,120.27c.8-.56,2.27-1.58,2.08-1.92s-1.74-.15-2.64,0a410.86,410.86,0,0,1-60.9,4.27c-13.36,0-26.71-2.37-40-2.67A87.1,87.1,0,0,0,136,121.25,25.25,25.25,0,0,0,121,162C127,169.5,135.14,173.74,143.6,177.61Z"/></svg>