<svg id="Layer_1" data-name="Layer 1" xmlns="http://www.w3.org/2000/svg" viewBox="0 0 516.89 864"><title>Untitled-29</title><path d="M497,394.7c-1.57-8.92-1.57-16.32,0-23.26,3.5-15.55,4.14-31.46,4.77-46.84.29-7.08.59-14.39,1.16-21.51,1.76-21.86.46-43.93-.79-65.28q-.45-7.51-.85-15c-.69-13.48-.06-27.28.55-40.64.42-9.15.85-18.62.87-28,0-21.69-6.07-42.18-11.38-57.61-4.68-13.59-6.63-28.29-8.51-42.51l-.12-.93c-.32-2.39-.58-4.87-.85-7.39-1.31-12.14-2.79-25.9-10.51-36.31C464.55.33,456.5-.58,450.94.24c-5.06.76-9.51,3.33-13.61,7.85-8.4,9.27-14,19.52-16.71,30.45a309.34,309.34,0,0,0-5.86,30.62,129.13,129.13,0,0,0-6.28-34.87C404.83,23,394,11.2,380.3,10.42c-17.2-1-27.59,18-31.5,25.17-9.32,17-14.61,36.11-18.93,54.18-9.77,40.79-15.58,83.1-20.69,122.94-1.4,10.86-3.16,22.48-6.6,33.78-4.39,14.45-14,26.4-22.72,36.46a311.59,311.59,0,0,1-49.42,45.59c-15.12,11.35-32.76,24.28-51.65,34.9-.49-13.15-.93-28.17-.52-42.86a120.56,120.56,0,0,1,2.38-21.78c2.58-12,5.7-24.51,8.72-36.57,10.28-41,20.91-83.43,15.21-125.66C199.8,101.2,188.81,80.81,171,74.23c-16.25-6-28.79-1.5-37.24,13.39-1.74,3.06-3.26,6.14-4.4,8.49-6.35,13.19-9,27.36-11.49,41.05-1.12,6-2.27,12.28-3.72,18.27-6.39,26.4-16.68,50.36-27.56,75.72q-3.66,8.52-7.28,17.1c-13.05,31.15-21.67,62.14-25.62,92.11-2,15.21-2.34,30.6-2.66,45.49-.26,12.24-.53,24.89-1.73,37.21-2.38,24.25-8.85,48.27-15.1,71.5-3.82,14.18-7.76,28.84-10.78,43.51-6.84,33.26-6.78,67.62-6.73,100.86,0,20.28.08,41.25-1.48,61.57-1,13.63-2.54,29.7-5.79,45.64-1.79,8.76-4.1,17.62-6.34,26.18-.88,3.41-1.77,6.82-2.64,10.24-2,7.81,3.47,10.45,5.18,11.08,4.71,1.71,9.14-.31,11.29-5.18a22.45,22.45,0,0,0,1.21-3.8A584.87,584.87,0,0,0,35.75,641.89q0-7-.07-13.92c-.13-20.59-.27-41.89,1.63-62.63,1.83-19.93,7-38.2,12.49-57.54,1.5-5.3,3-10.64,4.47-16,8.58-32,10.67-65,12.69-96.87.84-13.22,1.71-26.9,3-40.34,2.93-30,9.57-59.46,19.19-85.32,4.67-12.54,10.31-25,15.76-37,7.28-16,14.81-32.62,20.28-50,3.45-10.94,5.62-22.44,7.73-33.56,3.73-19.72,7.25-38.34,17.25-54.65,2.63-4.29,5.34-5.43,10.69-4.52s9.58,3.8,13.22,9.1c5.22,7.59,7.95,16.37,10.5,25.46,6.33,22.45,4.56,45.66,1.71,67.4-2.73,20.88-7.6,41.38-12,58.69C165.65,284.3,160,313.29,160.84,344c.07,2.78.08,5.55.1,8.33a172.91,172.91,0,0,0,.77,19c0,.06,0,.11,0,.16a71.37,71.37,0,0,0-8.88,3.12,9.07,9.07,0,0,0-5,5.18,8.54,8.54,0,0,0,.3,6.74A8.44,8.44,0,0,0,159,391l2.64-.94c7.3-2.61,14.85-5.31,22-9.23,43.52-23.84,82-54.38,111.19-88.31,16.08-18.66,25.53-38,28.91-59,2.21-13.71,4.21-27.45,6.22-41.19,2.79-19.14,5.68-38.93,9.08-58.27l.65-3.71c5.22-29.8,10.62-60.61,24.65-86.71a54.06,54.06,0,0,1,10.1-13.67c3.37-3.26,6.78-3.35,10.43-.29a20.94,20.94,0,0,1,6.7,9.4c5.64,16.65,6.08,35.18,6.5,53.1l.17,6.91c.68,24-.3,48.43-1.24,72-.73,18.17-1.48,37-1.48,55.52,0,31.78-4.67,56.08-14.28,74.28-6.36,12-15.85,21.08-25.9,30.67L354,332.86C333.59,352.3,307.87,379,289.48,413c-3.52,6.59-.74,11.18,2.71,13.12a8.25,8.25,0,0,0,6.45.82c1.74-.51,4.23-1.88,6.19-5.56,14.5-27.05,34.36-51.57,60.73-75,11.55-10.24,24.42-23,32.41-39.91C425.08,249,428.82,187,428.91,133.92c0-25.21.9-54.91,7-84,2.66-12.65,7.23-22.22,14.4-30.13,1.38-1.51,2.7-2.44,3.67-2.32s2.22,1,3.48,2.63c1.88,2.44,3.18,5.42,4.36,10,2.34,9,3.3,18.17,4.32,27.87A222.29,222.29,0,0,0,470,84c1.68,7.37,3.79,14.5,5.83,21.39,3.91,13.18,7.59,25.62,8.35,39.26.81,14.73.27,29.69-.25,44.15-.61,16.79-1.23,34.13.21,51.47.33,3.91.7,7.81,1.07,11.7,1,10.71,2.07,21.77,2.05,32.62A78,78,0,0,1,482.87,311c-9.4,26.43-29.46,47.48-48.87,67.84l-.71.76c-17.65,18.52-39.85,43.82-54.94,75.38l-.24.51a41.6,41.6,0,0,0-2.51,6,8.27,8.27,0,0,0,4.84,10.27c3.69,1.63,7.51.64,10.21-2.66a13.22,13.22,0,0,0,1.87-3.25c7.1-16.05,16.83-30.44,29.24-47.1C430.59,407,441,396,451,385.44c4-4.22,8-8.43,11.93-12.72a233.14,233.14,0,0,0,20.52-25.13c-.25,1.89-.54,3.79-.86,5.68-2.42,13.94-5.57,28-8.62,41.67-2.11,9.45-4.3,19.22-6.23,28.9a301.86,301.86,0,0,0-5.48,72.26,18.41,18.41,0,0,0,1.44,7.37c1.93,4.09,5.73,6,9.91,5a8.4,8.4,0,0,0,6.58-9c-.06-1-.16-1.93-.27-2.9-.09-.81-.18-1.61-.22-2.41-1.2-20.7.47-42.22,5.37-68.08l1.65,7.93c3.81,18.34,7.76,37.32,11.88,55.94,4,18.05-.85,33.11-14.82,46.06A383.89,383.89,0,0,1,447,566.49c-12.37,8.9-25.39,17.38-38,25.57-7.66,5-15.33,10-22.91,15.1-17.32,11.7-35.9,21.79-53.41,31-3.64,1.91-7.33,3.75-11,5.58-5.48,2.74-11.14,5.56-16.63,8.61-11.85,6.57-25.69,14.71-38.48,25.14-12.1,9.86-20.45,22.56-24.15,36.72-2,7.54-2,15.1-2,22.41A107.33,107.33,0,0,1,239.7,752c-1.67,11.42-7.71,22.08-13.56,32.39l-.44.78c-11.35,20-17.39,41.94-23.24,63.13l-1.25,4.51c-1.31,4.74.65,8.89,5,10.58a9.18,9.18,0,0,0,3.32.64,8.83,8.83,0,0,0,7.52-4.41,20.81,20.81,0,0,0,2.48-6.75l.31-1.31a321.7,321.7,0,0,1,16-48.09c2.29-5.31,5.17-10.61,7.95-15.74,5.33-9.81,10.84-20,13.14-31.52,1.06-5.34.85-10.5.64-15.49-.1-2.33-.2-4.66-.15-7,.33-16.78,6-29.86,17.27-40,10.87-9.77,24.2-18.58,42-27.75q5.67-2.93,11.36-5.82c18.6-9.51,37.83-19.34,55.88-30.74l7.54-4.76c27.63-17.4,56.19-35.41,82-56.37l3.5-2.83c12.27-9.91,26.19-21.13,33.52-36,7-14.29,8.38-32.21,3.86-51.82C508.6,453,502.11,423.87,497,394.7Z"/><path d="M396,558.75l-7.41,3c-14.53,5.9-29.56,12-43.74,19.66l-.65.35a19.74,19.74,0,0,0-3.43,2.13,8.34,8.34,0,0,0-2.29,10.51,8.16,8.16,0,0,0,7.38,4.72,9.06,9.06,0,0,0,2.54-.36,27.93,27.93,0,0,0,5.08-2.11c12.36-6.28,25.77-12.8,40-17.87,5.47-1.94,13.57-5.15,20.86-10.48,16.36-12,23.37-27.48,20.83-46l-.65-4.65c-1.3-9.15-2.64-18.61-2.34-28v-2.28c0-1.78,0-3.57,0-5.36a10,10,0,0,0-3.09-7.27,7.9,7.9,0,0,0-6.05-2c-4.92.41-8.15,4-8.21,9.19l-.06,3.28c-.06,4-.13,8.14,0,12.26.23,6.11,1,12.15,1.79,18,.55,4.16,1.11,8.45,1.45,12.64a23,23,0,0,1-3.48,15.07A39.68,39.68,0,0,1,396,558.75Z"/><path d="M336.67,448.81a8.43,8.43,0,0,0-10,6.07A61,61,0,0,0,325,462c-1.33,7.49-2.1,15.09-2.84,22.44-.27,2.62-.54,5.24-.83,7.86-1.09,9.92-2.27,18.08-6.53,25.49a54,54,0,0,1-24.37,22.61l-2.76,1.31c-12,5.68-24.4,11.56-35.78,19.23a33.42,33.42,0,0,0-4.88,3.76,9.42,9.42,0,0,0-3,6.68,8.34,8.34,0,0,0,2.54,6,8.52,8.52,0,0,0,6.05,2.63,9.64,9.64,0,0,0,5.79-2.1c7-5.26,15.36-10.1,26.2-15.21l2.6-1.23c5.68-2.67,11.56-5.43,17.14-8.77,18.52-11.07,29.56-27,32.83-47.26,1.32-8.21,2.24-16.58,3.14-24.67.37-3.37.74-6.73,1.15-10.1a89.43,89.43,0,0,1,2.12-11.59l.18-.71,0-.72C343.29,450.83,338.65,449.2,336.67,448.81Z"/><path d="M238.7,456.47l2.42-5.19c4.4-9.5,8.94-19.33,15.35-27.66a8.92,8.92,0,0,0,1.95-6.23,8.52,8.52,0,0,0-3.44-6c-3.86-3-8.7-2.42-12,1.37a47,47,0,0,0-6.48,9.42L230.9,433c-3.34,6.5-6.68,13-10.11,19.47-3.54,6.67-7.56,11-12.67,13.51a80.21,80.21,0,0,1-21.23,7.29l-5.14.94c-9.41,1.7-19.13,3.46-28.47,7a113.41,113.41,0,0,0-17.38,8.31c-4,2.37-5.57,6.3-4.21,10.53a8.5,8.5,0,0,0,7.93,5.88h.1c2.33,0,3.73-.57,6.12-1.9a93.39,93.39,0,0,1,27.48-10.32q3.57-.71,7.16-1.38c4.75-.9,9.5-1.8,14.22-2.88C216.17,484.55,230.56,473.75,238.7,456.47Z"/></svg>