<svg id="Layer_1" data-name="Layer 1" xmlns="http://www.w3.org/2000/svg" viewBox="0 0 427.33 864"><title>Untitled-29</title><path d="M416.07,334c.08-1.25.14-2.5.19-3.76.42-11.84,3.5-23.33,6.37-34.76,2.75-11,6.8-23,3.42-34.2a12,12,0,0,0-12.47-8.75c-5.93.23-11.17,2.47-16,5.71C373,274.65,363.25,306.49,355,333.33c-6.14,20-20.29,37.43-36.85,49.95-2.09,1.59-3.58,1.14-4.29-1.42a11.81,11.81,0,0,1-.25-2.73c-1.74-45.86,18.8-94.5-5-137.71-16.33-29.64-20.65-65.11-40.8-92.65-11.2-15.31-18.39-32.51-23.71-50.56-2.68-9.07-6.45-17.4-13.67-23.86-8-7.16-17.08-6-23.13,3a52.56,52.56,0,0,0-8,19.64,144.88,144.88,0,0,0,.43,55.49c7.27,37.26,19.62,73.12,31.79,109,4.87,14.36-.68,30.53-2.51,45.07-2.08,16.43-3.47,32.94-4.41,49.48,0,4.93,0,9.87,0,14.81,0,1.75,1.17,4.55-1.81,4.63s-2.18-2.76-2.2-4.55c-.26-18.41,1.42-36.7,3.22-55,1.27-12.92,3.44-25.7,5.52-38.51a23.58,23.58,0,0,0-.55-11.57c-10-29.92-20.22-59.78-28-90.41-6.2-24.36-9.92-48.81-6.29-73.93,1.44-10,4.23-19.51,10.47-27.71q9-11.88,22.8-6.39c.51.2,1.29.66,1.49.48.6-.51.15-1.26,0-1.91-.83-3-1.65-6-2.49-9a109.7,109.7,0,0,0-14.6-32.53c-4.59-6.77-10.25-8.33-17.63-4.82C171.94,30.34,162.85,71,165.79,93.39c1.78,13.45,5.73,26.21,10.7,38.71,5.45,13.69,10,27.6,11.88,42.31,2.5,19.8,9,38.71,8,58.79a208.53,208.53,0,0,0,2.25,43.6c1.23,7.72-5.93,13.63-9.93,19.45-4.72,6.86-9,14-13.89,20.74-10.08,14.1-23,21.51-35.88,32.37-.6.5-1.19,1.43-2,1.18-1-.32-.74-1.53-.87-2.37-7-46.13-16.13-94.43-31.48-138.55a81.94,81.94,0,0,0-19.8-31.54c-6.81-6.77-16.87-11.16-26.89-5.48a26.14,26.14,0,0,0-11.65,14c-6.44,16.67-3.59,37-3,54.51,1.15,32.06,9,65,6.45,97-2.19,27.91-15.22,53.63-26.08,79.21-12,28.27-18.54,56.29-15.36,87.18C10,521.18,14.58,537.2,19.52,553.1,30.6,588.75,26.83,626.16,23,662.62c-4.19,39.38-7.42,78.86-13.29,118C7.14,797.54,4.15,814.35.45,831c-1,4.69-.48,5.91,3.68,8.48C35.67,859,76,865.43,112.6,863.74c26.29-1.22,56.68-6.26,78.05-22.76,9-6.94,4.1-29.48,3.93-39.09q-1-55.67,0-111.28c.34-18.1.48-36.5,11.23-52,15.66-22.5,23.87-49.84,38.82-73,15.3-23.75,33.15-46.87,54.67-65.3,11-9.4,23.16-17,33.63-27.07a234,234,0,0,0,29.32-34.74c13.59-19.42,23-42,38-60.28C410.86,365.19,415,350.22,416.07,334Z"/><path d="M342.62,30.23c0-17.24-4-35.4-23.3-28.87C299.38,8.1,288.1,38.36,285,57.2c-3.54,21.82-2.18,44.5-8.84,65.77-2.13,6.79-9.1,17.87-4.31,24.67a129.25,129.25,0,0,1,16.5,32.79c5.46,15.95,9.95,32.25,17.79,47.32,4,7.63,7.64,15.42,11.36,23.18.74,1.53,1.2,1.41,2,.11.52-.89,1.14-1.73,1.66-2.62,11.81-20.51,18.37-42.49,18.12-66.28-.27-26.68,8.36-53,5.61-79.58-1.79-17.28-5.56-33.2-3.69-50.78A200.52,200.52,0,0,0,342.62,30.23Z"/></svg>