<svg id="Layer_1" data-name="Layer 1" xmlns="http://www.w3.org/2000/svg" viewBox="0 0 864 495.77"><title>Untitled-29</title><path d="M850.3,153c-16.69-6.81-36.73,1.22-51.36,7.07l-.65.26c-13.89,5.55-26.56,13.14-38.81,20.48-8.53,5.11-17.35,10.39-26.41,14.87-24.91,12.31-49,17.69-73.65,16.54-15.41-.73-31.29-.42-46.65-.13-14.18.28-28.84.57-43.07,0-30.75-1.17-57.63-8-82.16-21a142.45,142.45,0,0,1-15.13-9.45C489.17,170.76,504,163.52,518.74,159c19.14-5.91,39.47-13,58.54-24.76,24.57-15.16,43.47-35,54.65-57.36,2.86-5.74,16.75-35.43,9-57.11A28.32,28.32,0,0,0,625.21,2.85,36.48,36.48,0,0,0,608.05.07c-10.94.54-21.91,3.75-33.52,9.83C564.35,15.23,555,21.83,545.91,28.21,540.46,32,534.84,36,529.17,39.58a60.54,60.54,0,0,1-14.51,7.12c-20,6.1-41.15,8.75-61.58,11.32-17.7,2.21-36,4.51-53.76,9-23.55,6-47.65,15.91-73.66,30.3-16.34,9-32.36,19.08-47.86,28.79l-8.9,5.57c-3.27,2-6.54,4.06-9.82,6.09-8,4.94-16.33,10-24.35,15.38-9.76,6.49-19.57,13.63-29.07,20.53-31.18,22.67-63.43,46.12-101.62,52.83a368.84,368.84,0,0,1-69.52,5.88H27.28q-8.8,0-17.63,0c-6.37,0-9.43,4.11-9.64,8.12s2.37,8.3,8.61,9.16a19.79,19.79,0,0,0,3.16.15c5.18-.1,10.37,0,15.55,0,8.37.11,17,.22,25.61-.37,12.36-.86,25.08-2,37.8-3.45,32.18-3.61,59.4-13.34,83.22-29.79l18.46-12.77c49-33.95,99.64-69.06,152.7-96.81a289.84,289.84,0,0,1,73.06-26.18c12.66-2.74,25.81-4.2,38.52-5.61,13.55-1.5,27.56-3.06,41.3-6.16,18.41-4.16,34.44-10.52,47.65-18.91,5.1-3.23,10-6.69,14.76-10,9.92-7,19.29-13.59,30.24-18.36A47.58,47.58,0,0,1,614,17.66c4.82.41,7.72,2.5,9.42,6.77a35.64,35.64,0,0,1,1.52,21c-10.33,48-54.25,78.15-91.9,90.35-21.49,7-49.39,17.15-74.61,34.22C451.21,175,443,181.23,437,190.54a10.13,10.13,0,0,0-1.73,7.82,8.13,8.13,0,0,0,3.68,5.13c4.2,2.65,9.35,1.16,12.51-3.61a44.77,44.77,0,0,1,6.2-7.14l.29-.29c13.67,11,29.28,18.2,42.83,23.82,21.81,9,47.06,14,75.05,14.87,11.78.34,23.58-.39,35-1.1,13-.82,26.43-1.66,39.63-.84a187,187,0,0,0,33.67-.53c17.61-2,35.41-7.43,54.42-16.43,10.31-4.88,20.1-10.81,29.57-16.53,4.41-2.67,8.81-5.33,13.27-7.9,14.82-8.52,31.12-16.76,49.82-19.36,5.25-.73,9.25-.86,12.94.76,2.2,1,2.56,1.82,2.52,3.4a32.19,32.19,0,0,1-1.06,8.17,76.36,76.36,0,0,1-13.7,26.49l-3.47,4.43c-9.64,12.34-18.75,24-31.71,31.84a521.86,521.86,0,0,0-53.91,38c-10,7.9-19.93,12.66-30.44,14.53-15.78,2.82-32.45,4.05-48.57,5.25-29.39,2.18-59.78,4.43-87.65,16.18a91.38,91.38,0,0,0-19,10.32,9.44,9.44,0,0,0-4,6.51,8.24,8.24,0,0,0,2,6.39c3.19,3.7,7.82,4.15,12.08,1.18a81.94,81.94,0,0,1,18.52-9.45c25.26-9.37,52.33-12.68,77.82-14.87,5.41-.46,10.95-.72,16.55-1,17.42-.84,35.34-1.71,51.75-8.37-.7,2-1.37,4-2,6.05-3.55,12.42-11.25,21.9-23.56,29a219.92,219.92,0,0,1-36.23,17c-15,5.35-31.26,10.53-51,16.31A395,395,0,0,0,557,401a36.36,36.36,0,0,0-5.55,3.18c-4.11,3-5.2,7.63-2.77,11.88a8,8,0,0,0,4.86,3.84,9.51,9.51,0,0,0,7.31-1.17c9.26-5.31,19.37-9.52,28.92-13.39,20.91-8.45,42.73-15.09,63.19-21a305.41,305.41,0,0,0,52.33-20.61c-.82,6.57-1.84,12.79-4.93,18.43l-.38.69c-3.39,6.19-6.6,12-12.09,15.7A123.27,123.27,0,0,1,661,412.45c-10.9,3.89-22.35,6.94-33.43,9.89l-3.42.92c-8.32,2.22-16.59,4.88-24.58,7.45-6.3,2-12.82,4.12-19.25,6-8.45,2.42-16.92,4.76-25.4,7.1l-8.56,2.37c-4.75,1.32-7.31,4.87-6.83,9.49a8.16,8.16,0,0,0,4.25,6.37l-1,.15c-16.19,2.38-32,6.88-47.29,11.23l-6.25,1.76a91.33,91.33,0,0,1-37.26,2.92,588.6,588.6,0,0,1-61-11.4c-41.16-9.84-78.55-16.23-114.3-19.53a294.35,294.35,0,0,0-75.43,2.73,83.19,83.19,0,0,1-23.77.77c-12.06-1.45-24.3-3.32-36.13-5.14-15.15-2.33-30.81-4.73-46.4-6.28s-31-1.34-46-1.13c-4.4.05-8.79.11-13.19.13A8.33,8.33,0,0,0,27,445.9c-.47,4.86,2.56,8.63,7.56,9.38a30.22,30.22,0,0,0,5.77.26,388.55,388.55,0,0,1,64.87,2.19c9.57,1.15,19.35,2.83,28.81,4.46,13.09,2.25,26.63,4.59,40.07,5.6,17.6,1.34,35.2-.12,52.22-1.53,17.83-1.48,36.27-3,54.49-1.26,21.22,2.05,43.8,5.48,71.07,10.81,11.26,2.2,22.68,4.8,33.71,7.31,16.82,3.83,34.21,7.79,51.67,10.49a173.26,173.26,0,0,0,26.25,2.16,116.47,116.47,0,0,0,36.34-5.51c10.6-3.42,21.37-6,32.39-8.48,10.56-2.41,21.61-3.88,33.31-5.42,21-2.79,42.71-5.67,61.85-14.45,8.18-3.76,18.6-9.24,26.73-18.42a23,23,0,0,0,5.79-12.4l.22-.06c12.68-3.67,23.13-9.34,32.54-14.91a57.54,57.54,0,0,0,21.15-22.25c6-10.77,9.08-23.29,9.67-39.38.08-2,.29-2.19,1.07-2.78a59,59,0,0,0,20.71-29c1.76-5.21,3.51-10.43,5.41-15.59,3-8,6.65-13.83,11.58-18.22a192.19,192.19,0,0,1,29.17-21.37,179.25,179.25,0,0,0,45.16-38l.33-.39C849.64,214,864.21,194,864,173.05,863.89,163.24,859.41,156.66,850.3,153ZM633.4,438.76c-8.5,7.46-19.44,11.62-33,14.6a273.33,273.33,0,0,1-35.62,5.54c4.33-1.23,8.66-2.41,12.92-3.56,10.06-2.74,20.46-5.57,30.58-8.95C616.55,443.65,625,441.14,633.4,438.76Z"/></svg>