<svg id="Layer_1" data-name="Layer 1" xmlns="http://www.w3.org/2000/svg" viewBox="0 0 864 420.78"><title>Untitled-29</title><path d="M849.22,197.6c-12.58-7.17-28.6-10.73-49-10.87-.34,0-.54,0-.6,0a7.09,7.09,0,0,1-.66-1.12,25.29,25.29,0,0,0-4.28-6.22,43.33,43.33,0,0,0-17.84-11.11,103.23,103.23,0,0,0-52.39-3.36c-21.48,4.25-40.82,8.55-59.29,18-3.49-7.93-11.06-12.28-20.14-11.49a56.75,56.75,0,0,0-17.15,4.17,227.3,227.3,0,0,0-39.77,21.75c-3,2.08-4,2.39-7,.7-12.78-7.34-27-12.47-40.51-16.92-36.05-11.9-69.15-18.25-101.19-19.4a17.55,17.55,0,0,1-11.22-4.22c-7.14-5.87-11.34-11.84-13.23-18.78-.08-.32-.12-.52-.15-.59a2.2,2.2,0,0,1,.4-.25l1.84-1c4.21-2.23,8.18-4.34,12.39-6.1,23.54-9.88,48.22-21,68.51-38,22.75-19.14,43-49.38,31.44-76.81-5.52-13.14-17.11-18.66-31-14.73a44.59,44.59,0,0,0-12,5.63c-6.84,4.37-13.67,9-20.29,13.39-9.56,6.4-19.45,13-29.44,19.08-16.09,9.73-34.91,15.61-57.53,18-18.82,2-35.15,7-49.93,15.29-5.61,3.17-11.35,6.31-17.13,9.48-12.92,7.08-26.27,14.4-38.84,22.31-19.14,12-34.71,26.52-52.2,44.56-9.84,10.14-19.6,15.45-30.72,16.71C142.59,171.06,87.58,152.78,52,133.89c-.23-.12-.47-.23-.84-.4-4.14-1.9-8-.69-10.2,3.13-2,3.6-1,7.66,2.64,10.08A84.49,84.49,0,0,0,58.05,154c31.51,13.4,62.15,22.07,91.07,25.79,26.9,3.45,57.43,5.32,79.2-16.37,14.73-14.68,31.43-31.31,51-44.31,23.92-15.89,51.75-33.48,79.34-41,8.61-2.34,17.62-4.06,26.32-5.72,13.4-2.56,27.25-5.21,40.4-10.22,15.82-6,30.14-15.2,42.07-23.39,3.25-2.23,6.54-4.73,9.71-7.14,7.79-5.93,15.85-12.06,24.49-15.14,6.59-2.36,10.07-1,13.28,5.11,9.87,18.85-8.28,41.38-16.55,50.19-15.5,16.53-36.12,27.11-55.91,36.54-4,1.89-8.14,3.61-12.18,5.27-7.53,3.11-15.31,6.32-22.48,10.86-2.28,1.45-4.59,2.85-6.89,4.26-5.25,3.2-10.67,6.51-15.77,10.28-4.86,3.6-4.45,8.1-2.45,11.11s6.11,4.91,11.67,1.24l3.16-2.07c1.24-.8,2.48-1.6,3.78-2.47A47,47,0,0,0,409,160l-3.73-.43c-5.23-.62-10.47-1.23-15.71-1.73a8.57,8.57,0,0,0-6.55,1.74,7.4,7.4,0,0,0-2.62,5.17c-.41,4.47,2.57,7.79,7.59,8.46,12.79,1.7,25.78,2.4,38.34,3.07,12,.65,24.49,1.32,36.61,2.87A364.64,364.64,0,0,1,557.62,204c4.45,1.87,8.85,3.9,13,5.86q-8.57,6.95-17.23,13.76c-12.34,9.78-25.1,19.9-37.17,30.52-15.25,13.43-30.22,26.52-45.63,39.09-1.23,1-1.44,1-1.75.94C457.4,292.69,446,293.38,435,294l-2.5.15c-8.13.48-16.08,2.22-23.76,3.91l-1.65.36c-4.43,1-7,4.48-6.29,8.75s4.14,6.82,9,6.41a18.45,18.45,0,0,0,2.53-.47l.41-.09a168.22,168.22,0,0,1,40-4.14l-.24.23a118.41,118.41,0,0,0-12.3,13A9,9,0,0,0,438,329a7,7,0,0,0,2.91,4.73c3.61,2.61,7.78,2,10.88-1.6,9.15-10.64,20.16-19.83,30.8-28.72l2.61-2.17c10.21-8.54,20.47-17.34,30.4-25.86,17.77-15.24,36.15-31,54.82-45.75,20.1-15.88,38-27.54,56.35-36.7a63.64,63.64,0,0,1,19.13-6c2-.32,3.66.1,4.46,1.12s.82,2.73,0,4.65a25.49,25.49,0,0,1-2.37,4.05,136.36,136.36,0,0,1-24.84,27.6c-14.38,12.34-27,26.7-39.1,40.58-6.32,7.21-12.85,14.68-19.53,21.72-10.1,10.67-21.88,19.7-33.26,28.43-11.83,9.07-24.06,18.45-34.65,29.79-3.92,4.19-7.72,8.48-11.52,12.78-5.72,6.46-11.64,13.13-17.84,19.29a97.8,97.8,0,0,1-27.1,19.49c-25.59,12-56.48,8.09-80.53,3.36-23.19-4.56-46.11-12.17-68.26-19.53-6.07-2-12.14-4-18.22-6-13.95-4.49-27.75-10.23-41.09-15.78-11.14-4.64-22.67-9.43-34.32-13.52-21.5-7.54-43.77-12.73-65.31-17.75-11.8-2.76-24-5.6-35.83-8.77-16.78-5-33.66-10.72-50-16.29-8.27-2.81-16.54-5.63-24.83-8.36l-1.35-.45c-3.23-1.06-6.46-2.13-9.71-3.12a9.42,9.42,0,0,0-6.24,0,7.2,7.2,0,0,0-4.19,4.7c-1,3.3-.08,7.61,5.51,9.86.57.23,1.15.42,1.74.61l.51.17c44.45,14.84,91.88,30.22,140,41,33,7.36,65,20.19,96,32.59,14.33,5.74,29.15,11.67,43.9,17,30.06,10.86,68.23,24.65,106.34,24.65a130,130,0,0,0,41.89-6.52c2.88-1,5.7-2.07,8.38-3.23,19.47-8.45,34.06-22.79,46.91-37,.45-.5.89-1,1.32-1.55a10.77,10.77,0,0,1,3-2.89c1.43-.71,2.84-1.46,4.25-2.2a82.15,82.15,0,0,1,10.59-5c6.76-2.41,13.57-4.69,20.4-7C554,347.73,577.69,339.8,599,327c19.14-11.53,33.29-26.8,44.62-40.23a7.71,7.71,0,0,1,3.32-2.5c14.9-5.61,29.51-10.95,44.39-14.65C726,260.94,760.5,256,798.75,250.88l4.25-.56c12-1.58,24.35-3.2,36.33-6.74,7.35-2.16,12.85-4.93,17.3-8.7,6.77-5.73,7.7-12.22,7.29-16.64C863.19,210.38,857.42,202.28,849.22,197.6ZM742.77,178.77a89.6,89.6,0,0,1,27.14,3.57,29.4,29.4,0,0,1,9.7,4.46h-8.44c-8.75.24-18.06,1-29.21,2.32A16.14,16.14,0,0,0,742.77,178.77ZM700.89,210.2c-3.42,2.56-6.83,5.12-10.17,7.79-22.39,17.92-40.85,36.1-56.42,55.58-8.38,10.49-19.85,23.89-34.27,34.55-11.12,8.22-24.07,14.74-42,21.15C547,333.2,536,337,524.91,340.86l-3.52,1.22a88,88,0,0,1,10.89-8.43c13.61-8.75,29.21-19.23,42-33,8.42-9.06,16-18.93,23.42-28.48l2.32-3c8.6-11.11,18.85-20.18,29.75-29.83,14.57-12.88,25.11-24.54,33.17-36.68,1.38-2.09,3.87-3.28,6.5-4.55l1.43-.69a143.8,143.8,0,0,1,43.28-14c1.36-.21,2.75-.3,4.13-.4l1.75-.14a22,22,0,0,1,7.37,1,34.63,34.63,0,0,1-8.62,11.85A218.91,218.91,0,0,1,700.89,210.2ZM681,246.84q3.27-3,6.52-5.93c6.63-6.1,14-11.63,21.11-17q3.58-2.69,7.16-5.41c1.57-1.21,3.05-2.43,4.57-3.69l2.21-1.81c7.62-6.19,12-7.57,18.81-8.32a429.54,429.54,0,0,1,46.8-2.49q10.43,0,21,.47c12.59.56,23.14,3.32,32.26,8.44a18.47,18.47,0,0,1,5.86,4.63,5.72,5.72,0,0,1,1.32,3.51c-.06,1.24-.49,2.92-3.4,4.91-3.83,2.62-8.46,4-12.49,5.16-10.54,2.93-21.65,4.35-32.39,5.71-3.26.41-6.51.83-9.75,1.28h0c-22.47,3.15-46.62,6.68-71,11.22a417.56,417.56,0,0,0-53.84,13.56C670.7,256.13,675.91,251.43,681,246.84Z"/><path d="M291.54,334.64a8.38,8.38,0,0,0,5.47-2.2h0c4.11-3.48,8.23-6.95,12.4-10.38,20.6-16.93,40.79-29.41,61.72-38.14,7.41-3.1,15.1-5.92,22.54-8.65,5.27-1.93,10.54-3.87,15.77-5.91,18.08-7.07,35.21-17.1,52.51-30.78,2.52-2,5.37-4.25,7.27-7.56,2.19-3.85,1.43-8-2-10.48s-7.48-2-10.56,1.46c-.33.36-.65.74-1,1.12a15.23,15.23,0,0,1-1.82,1.95,183.19,183.19,0,0,1-34.1,22.63c-12.48,6.39-25.9,11.2-38.58,15.59-23.21,8-45.13,19.57-67,35.31-7.95,5.71-16.33,12.46-26.37,21.25-1.49,1.3-4,3.49-3.89,6.6.07,3.57,1.45,6,4.12,7.36A7.69,7.69,0,0,0,291.54,334.64Z"/><path d="M174.62,323.6a6.88,6.88,0,0,0,4.86-2,9.16,9.16,0,0,0,2.53-5.4,46.62,46.62,0,0,0,.48-5.05c.36-14.69,4.89-29.17,13.48-43.05,6.68-10.79,14.49-20.64,23.26-31.47,4-4.87,2.72-9.56-.25-12-2.8-2.36-7.37-3-11.75,2.15s-8.65,10.94-12.66,16.4c-1.71,2.33-3.42,4.65-5.16,6.95C175.16,269,167.54,290,166.79,312.42l0,.77c0,.63-.07,1.25-.08,1.87-.07,4.7,2.51,7.86,6.91,8.47A9.24,9.24,0,0,0,174.62,323.6Z"/></svg>