<svg id="Layer_1" data-name="Layer 1" xmlns="http://www.w3.org/2000/svg" viewBox="0 0 864 625.66"><title>Untitled-29</title><path d="M599.51,346c10.55-6.05,22-10,33-15.24,40.45-19.26,83.12-33.05,125.38-47.67,13.33-4.61,26.48-7.52,36.15-18.39,15.33-17.24,19.9-41.56,26.07-63.06,10.51-36.67,25.2-72.75,32.47-110.21,3.67-18.91,4.22-38.34,8.75-57.09,1.66-6.84,3.09-13.71,2.59-20.83A14.25,14.25,0,0,0,846.61.32a28.08,28.08,0,0,0-8.05,3.16c-23.23,13-39.88,36.21-52.77,58.46-12.79,22.09-23.57,45-31,69.39-5.28,17.38-11.68,41.08-28.64,50.82-14.33,8.22-32.59,10.67-48.42,15-24.78,6.77-49.06,16.74-74.49,21-17,2.82-33.75,1.95-50.34,7.31a293.23,293.23,0,0,1-34.76,8.9,338.37,338.37,0,0,1-43.72,5.41q-13.79.84-27.61.73c-.89,0-2.6-.21-2.67-.86,0-.39.84-1.24,1.64-1.73a58.86,58.86,0,0,0,6.78-4.72c6.24-5,12.78-9.57,19.26-14.24,42.54-30.67,91.14-51.35,130.44-86.63,17.58-15.79,35.36-33.19,38.6-57.77,1.74-13.2-.82-24.9-9.92-34.9a21.5,21.5,0,0,0-10.34-6.51c-9.45-2.59-18.86-1.95-28.17.55-32.15,8.63-60,28.05-89.38,43a790.85,790.85,0,0,1-92.29,40.12c-47.61,17-96.41,33.63-136.24,65.87-16.94,13.72-34.41,26.64-53.37,37.5-45.84,26.26-76.44,70-105,113.12-30.79,46.39-62.49,91.67-106,127.28C-27.36,491.3,49.43,552.85,71,570c38.37,30.42,84.51,53.17,134.08,55.65a9.94,9.94,0,0,0,8.94-3.8c36.09-42,90.86-58.18,143.44-67.7,61.66-11.16,123.12-17.78,183.32-36.26,34.3-10.53,66.67-27.82,87.23-58.11,23.23-34.23,50.84-65.06,79.55-94.23,6-6.09,11.72-12.46,15.13-20.51,2-4.64,3.21-9.38,2.56-14.46-.26-2-.74-3-3-1.44-11.14,7.62-22.54,14.89-33.56,22.67-20.94,14.79-41.06,30.68-61.43,46.23a11.41,11.41,0,0,1-2.82,1.64,2.09,2.09,0,0,1-2.54-.88,2,2,0,0,1,.21-2.64,15.7,15.7,0,0,1,2.16-1.91c17.65-13.41,35.06-27.14,53-40.16,17.14-12.43,35.23-23.43,52.13-36.22,10.58-8,22.07-16,28.92-27.67.34-.58.94-1.53.73-1.81-.58-.81-1.45-.18-2.21.06s-1.32.38-2,.64C729.7,299.25,703.4,306.67,678,316.35a721.63,721.63,0,0,0-76.35,33.95c-1.82.94-4.09,2.27-5.28-.49S597.93,346.91,599.51,346Zm-1,49.64c2.18,1.32,1,3.06,0,4.61-.29.47-.63.91-.91,1.38-12.92,22-32.61,34.31-57.06,40-10.43,2.43-21.07,4.08-31.21,7.7a15.72,15.72,0,0,1-1.57.4c-1.21-.07-2.24-.42-2.54-1.71-.4-1.68.53-2.65,2-3.09,4.62-1.35,9.21-2.82,13.89-3.9,9.38-2.16,18.73-4.34,28-7,19.58-5.63,33.81-17.79,44.35-34.8.37-.58.77-1.14,1.12-1.73C595.55,396,596.66,394.49,598.55,395.64Z"/><path d="M681.21,167.81c.14,6.76,1.39,13.41,2.21,20.11.22,1.84.61,3.09,3.07,2.43,10.51-2.8,20.94-5.88,31.2-9.47a28.3,28.3,0,0,0,17-15.32c4.72-10.12,8.47-20.63,12.84-30.89a8.05,8.05,0,0,0,.29-5.67c-2.75-8.65-4.87-17.63-10.2-25.16-10.27-14.49-20.89-28.73-31.26-43.15a116.23,116.23,0,0,0-18.62-20.93c-4-3.39-8.35-5.83-14.51-6.11-.3,0-1.4.11-2.48.3-12.83,2.21-21.85,10.84-24.52,23.62-2.28,10.93-.93,21.75,2.21,32.23C653.55,107,662.1,122.53,672.6,137c3.52,4.84,6.55,9.87,7.18,16C680.28,157.94,681.1,162.83,681.21,167.81Z"/><path d="M673.07,161.55c-8.48-5.4-17-10.82-25.23-16.53a315.44,315.44,0,0,1-25.51-19.69c-1.69-1.44-2.65-1.55-4.4,0-4.62,4.13-9.49,8-14.27,11.91-13.28,10.94-25.89,22.77-40.87,31.49-3,1.74-1.29,2.9,0,4.28a298.18,298.18,0,0,0,43.16,39,4.76,4.76,0,0,0,5.29.63c9.94-4.09,20.38-6.7,30.55-10.1,11.49-3.83,23.17-7,35-9.85,1.17-.28,2.61-.34,2.26-2.19a172.13,172.13,0,0,1-2.58-23.4A6.21,6.21,0,0,0,673.07,161.55Z"/><path d="M517.85,195.25a543.25,543.25,0,0,0-51.14,33.4c-3,2.18-2.66,6.08.73,7.48a12.57,12.57,0,0,0,4.87.6,178.06,178.06,0,0,0,34.3-4.91c11.84-3,24-4.89,35.59-8.94,2.93-1,3.38-1.66,1.37-4.25-6.51-8.43-14.28-15.67-21.46-23.46C520.44,193.36,519.26,194.43,517.85,195.25Z"/></svg>