<svg id="Layer_1" data-name="Layer 1" xmlns="http://www.w3.org/2000/svg" viewBox="0 0 864 388.42"><title>Untitled-29</title><path d="M856.09,115.15c-5-4.37-10.77-7.26-15.78-9.51Q827.77,100,815,94.36c-27.56-12.26-56.07-24.92-83.22-38.64-37.38-18.88-69-33.35-107.24-33.35h-1c-11.4.08-22.8.46-33.83.82-25.42.85-49.44,1.65-74.69-.84a5.49,5.49,0,0,1-1.22-.76c-6.91-4.8-14.12-9-19.64-12.11C464.64-7.16,428.68,1.6,397,9.32c-4.12,1-8.14,2-12.05,2.88l-10.73,2.47c-38,8.8-77.38,17.89-116.88,19.12-7.58.23-15.16.35-22.73.47-30.73.48-62.51,1-93.27,9.73-20.24,5.78-37.14,10.49-54.89,14.28-20.07,4.29-42.22,6.51-69.68,7a45.39,45.39,0,0,0-10,1.11A8.62,8.62,0,0,0,.21,76.55c1.06,4.58,5.38,7.12,10.27,6A39.43,39.43,0,0,1,18.15,82,421.44,421.44,0,0,0,124.26,66.15c35-10.09,64.79-14.8,93.9-14.85,38.54,0,75.41-5.25,116.29-11.53C360.24,35,386.1,29.06,408,23.9c19-4.49,36.61-6.6,53.62-6.32a53.17,53.17,0,0,1,22.89,5.51A240.15,240.15,0,0,0,432.9,32.8c-7.11,2.19-8.38,7.15-7.19,11.06.55,1.79,3,7.43,11.81,4.9A234,234,0,0,1,468.1,41.7c19.82-2.9,40.81-1.63,61.12-.39,7.8.47,15.86,1,23.74,1.21,13.84.43,27.73-.58,41.16-1.56,15.47-1.13,31.47-2.31,47.21-1.2a134.3,134.3,0,0,1,46.52,11.83c10,4.57,19.91,10,29.47,15.19,5.68,3.09,11.36,6.19,17.11,9.16,18,9.24,36.69,17.38,54.81,25.25,8.21,3.57,16.42,7.14,24.58,10.81,2.61,1.18,5.25,2.3,7.89,3.42,7.6,3.23,14.77,6.28,21.65,10.77,1.6,1,3.79,2.46,3.69,3.54-.25.49-2.19,1.24-3.12,1.59l-1.4.56c-8.26,3.5-17.38,3.67-26,3.35-34.77-1.34-65.61-11-98.27-21.17-11.75-3.67-23.91-7.47-36.24-10.84-13-3.56-30.33-7.07-48.34-2.49a294.38,294.38,0,0,1-44.51,7.84,193,193,0,0,0-68.92,20.34c-15.91,8-34.7,16.7-55.5,21.67l4.1-4.07c4.59-4.54,3.77-9.16,1.48-12-2.5-3.07-7.24-4.43-12.17-.54a48.62,48.62,0,0,0-4,3.61,185.71,185.71,0,0,0-23.54,27.95c-11.38,16.59-18.17,32.68-20.65,49-.07-.09-.13-.18-.2-.26a93.68,93.68,0,0,1-9-13.79c-1.87-3.76-3.8-7.64-3.84-11.79,0-3.29-1-5.83-2.79-7.53a7.69,7.69,0,0,0-5.9-2,8,8,0,0,0-6.2,3.41,10.62,10.62,0,0,0-1.74,6.86,32.83,32.83,0,0,0,1.95,9.8c5.46,14.33,14.12,27.23,26.49,39.42,25.48,25.12,58.92,38.06,91.26,50.58,5.34,2.07,10.66,4.13,15.93,6.23,26.05,10.42,55.36,24.78,75.29,52.27,3.63,5,6.81,12.5,5.75,18a6.89,6.89,0,0,1-3.18,4.81c-2.08,1.33-5.14,1.66-9.35,1-11.48-1.7-21.64-7.66-32.4-14-3.61-2.12-7.22-4.23-10.88-6.18-25.36-13.51-53.57-19.16-80.85-24.62-10.89-2.18-22.15-4.43-33-7.15-25.37-6.36-49.16-18.38-72.17-30-9.85-5-20-10.12-30.24-14.78-15.52-7.08-32.29-12.19-48.5-17.14-22.68-6.91-46.14-14.06-66-26.63a121.13,121.13,0,0,1-51.4-69.08c-1.31-4.68-5.79-10-10.38-10.4a6.31,6.31,0,0,0-6.33,3.72,9.45,9.45,0,0,0-.32,6.46,133.76,133.76,0,0,0,20.3,46c-49.93-4.63-100.49,8.93-145.39,21-3.39.91-7.37,3.34-8.64,6.74a6.42,6.42,0,0,0,.73,6c1.9,2.83,5.29,3.74,10.06,2.71l60.93-13.07c38-8.15,71.87-13.76,101.59.24,7.28,3.44,13.89,7.91,20.89,12.64,5.51,3.72,11.21,7.58,17.23,10.84,15.2,8.24,32.05,12.55,48.35,16.71,10.17,2.6,20.69,5.28,30.58,8.89,15.73,5.73,30.75,14.11,45.29,22.22,12.67,7.06,25.76,14.36,39.47,20,22.22,9.19,46.15,14.14,69.29,18.92,27.45,5.67,55.83,11.53,80.74,24.53,3.83,2,7.68,4.22,11.41,6.37,10.06,5.79,20.47,11.79,32.16,14.57a45.1,45.1,0,0,0,10.43,1.28c7.48,0,14-2.15,18.71-6.3,7-6.18,9.83-16.94,7.29-27.42-2.38-9.78-8.57-17.71-13.7-23.54C572.9,300.81,536.86,286,502,271.63c-25.55-10.52-52-21.4-74.57-38.51-.32-.24-.8-.56-.83-.57-.79-4.58-1.44-9-.81-13.34,2.4-16.15,9.25-31.83,21-47.93a1.06,1.06,0,0,1,.93-.57l.93-.15a153.63,153.63,0,0,0,15.29-3.13A7.7,7.7,0,0,1,470,168q3.6,1.88,7.22,3.7c5.59,2.85,11.37,5.8,16.88,8.92a51.07,51.07,0,0,1,16.12,14c6.77,9.05,14.89,16.93,22.74,24.54,4.14,4,8.42,8.16,12.4,12.39,7.5,8,13.81,17.33,19.92,26.38l3.07,4.6c5.38,8.15,10.95,16.58,21.26,20.64,8.91,3.51,17.65,1.25,23.39-6a17.37,17.37,0,0,0,2.66-4.76c1.83,3.09,3.67,6.16,5.59,9.19a131.34,131.34,0,0,0,46.14,43.81,32.2,32.2,0,0,0,19.71,4.4c6.71-.72,10.9-4.39,12.46-10.92,1.17-4.86.76-9.88-1.27-15.78-5-14.42-11.88-28.08-18.56-41.3-1.89-3.73-3.78-7.47-5.63-11.23-4-8.05-8.23-16.09-12.37-23.86,7.48,5.14,14.26,11.74,21.25,20.68a180.75,180.75,0,0,0,54,46.41c5.27,3,12.39,6.43,20.84,6.95,10.18.6,16.92-2.15,20-8.27,7.21-14.28-10.52-40.54-17.29-48.6-2.62-3.12-5.27-6.23-7.92-9.35-10.07-11.81-20.48-24-29.21-37-16.41-24.33-34.72-43-57-64.78a141.51,141.51,0,0,1-15.61-17.57,55.36,55.36,0,0,1,8.51.36c21.09,2.69,41.62,9.68,61.49,16.44,20.39,6.93,41.48,14.11,63.61,16.89l4.87.63c21.61,2.84,51.2,6.73,69-8.08,5.8-4.79,7.27-11.7,3.93-18.48A25.14,25.14,0,0,0,856.09,115.15Zm-96,156.28a24.89,24.89,0,0,1,3.2,7.67c.45,1.83.4,3.26-.14,3.92-.65.82-2.53,1.31-4.7,1.24a32.7,32.7,0,0,1-11.29-3.79,164,164,0,0,1-52.46-45,116.32,116.32,0,0,0-27.93-25.79c-6.56-4.41-13.41-9.55-21-15.72a104.43,104.43,0,0,1-17.23-18.4c-11.31-15-26.07-26.08-45.13-33.83a185.58,185.58,0,0,1-22.8-11.32,177.64,177.64,0,0,1,20.68-3.95l1.35-.21c4.51-.68,9-1.27,13.54-1.86,12-1.57,24.32-3.19,36.49-6.55,9.81,15.72,22.72,27.85,37.34,41s26,26.49,35.13,41.22c12.08,19.5,26.79,36.7,39.58,50.95A159.43,159.43,0,0,1,760.05,271.43Zm-184.54-50c1.37,1.82,2.73,3.64,4.06,5.49,2.87,4,6.08,7.63,9.19,11.16,1,1.19,2.09,2.37,3.12,3.56a35.08,35.08,0,0,1,8.51,20.55c-.07,3.53-.95,5.3-1.76,5.78s-2.41.18-4.3-.79h0a24.82,24.82,0,0,1-8.46-7.44,209,209,0,0,1-11.61-17.69,134,134,0,0,0-28.46-33.31,130.63,130.63,0,0,1-21.45-22.88c-6.84-9.38-15.82-16.71-28.25-23.06q-2.75-1.4-5.52-2.74c2.92-1.07,5.89-2.19,8.8-3.43a3.6,3.6,0,0,1,1.16-.36,2.22,2.22,0,0,1,.64.53c12.63,13.1,27.59,22.79,41.83,31.6a88.1,88.1,0,0,1,26.5,24.8C571.44,216,573.48,218.73,575.51,221.45ZM548.28,172.1c-10-6-21.47-13.52-31.54-23.22,9-4.43,16.56-7.92,23.72-10.93a6,6,0,0,1,.58-.23,189.32,189.32,0,0,0,36.31,19.44c15.12,6.14,27.8,15.82,39.92,30.45A223.47,223.47,0,0,1,643,227.1l5.58,10.65c9.76,18.6,19.85,37.82,28.66,57.23,1.82,4,3.38,8.09,5.09,12.61a20.76,20.76,0,0,1,1.25,5.86,26.49,26.49,0,0,1-11.68-4.39c-18.12-12-31.25-25.69-40.14-41.9a159.4,159.4,0,0,0-28.46-37.63c-6.85-6.68-12.49-14.82-18-22.69l-.84-1.23C575.26,192.24,563.4,181.27,548.28,172.1Z"/></svg>