<svg id="Layer_1" data-name="Layer 1" xmlns="http://www.w3.org/2000/svg" viewBox="0 0 541.27 864"><title>Untitled-29</title><path d="M.35,435.13C1,445.67,4.07,455,11,463.09c59.39,70.28,144.32,98.56,216.35,151.31,20.05,14.69,34.21,36.6,42.67,59.73,15.46,42.26,17.31,91.93,19.63,136.52.5,9.73,4.7,16.27,13.13,20.9,64.49,35.39,167.75,49.16,231.93,3.31,4.66-3.32,7.21-7.37,6.48-13.39-8.45-69.75-25.22-142.35-24.31-213.55.34-26.72-.22-51.49-14.34-75.29-21.93-37-61.52-47.74-98.76-63.48-7.7-3.26-14-8.13-17.21-16.35a88.75,88.75,0,0,0-26.76-37.58c-7.72-6.32-11.29-14.66-10.59-24.72.58-8.24.95-16.5,1.74-24.71.55-5.71,1.64-11.37,2.52-17.05.2-1.3.84-2.36,2.34-2.16,1.69.22,2,1.51,1.81,2.95-.14,1.07-.36,2.13-.55,3.19a173.37,173.37,0,0,0-2.65,23.17c0,.82-.26,2.13.14,2.38.93.6,1.74-.42,2.42-1,5.4-4.77,10.63-9.69,14.65-15.73a12.85,12.85,0,0,1,1-1.48c.77-.89,1.71-1.39,2.82-.6a2,2,0,0,1,.6,2.84,35.69,35.69,0,0,1-2.75,4.2c-4.45,5.68-9.29,11.12-15.29,15.07-3.92,2.58-4.58,5.62-4.71,9.8-.27,8.78,3.08,15.52,9.94,20.78a91.46,91.46,0,0,1,7.68,6.49c1.56,1.5,2.33,1.23,3.56-.38a138.85,138.85,0,0,0,23.58-49c7.7-31-15.55-50.17-34.23-70.59-9.29-10.17-19.51-19.06-32.53-24.27-10.85-4.34-21-2.76-30.28,3.87a45.85,45.85,0,0,0-15.77,20.58c-6.75,16.89-10,34.71-12.88,52.55-1.83,11.35-2.44,22.86-3.1,34.34-.1,1.65-.14,3.79-2.46,3.67-2.15-.12-1.87-2.08-1.8-3.65,1.47-31.34,10.12-139.55,67.9-115.36,10.12,4.24,18.74,10.53,26.71,17.89,10.39,9.62,18.74,26,34.61,25.95,8.4,0,18.39-2.42,25.35-7.27,26.6-18.55-16.74-41.73-29.64-51-10.83-7.8-19.86-17-29.68-25.87-11.2-10.09-24.07-15.65-39.4-15.67-22.62,0-45.27,2.49-67.88,1.76-6.14-.2-12.56-.39-18.48,1.91a51.92,51.92,0,0,0-24.24,19c-13.37,19-15.68,41.76-18.14,64.16q-4.2,38.16-5.53,76.57c0,1.14-.26,2.55-1.35,2.91-1.66.55-2.59-1.86-2.64-3.61-.71-25.71,1.72-51.21,4.1-76.78,2.12-22.87,6.45-47,20.35-65.92,9.51-13,21.65-22,38.63-22.23,2.1,0,6.85-2.39,8.61-3.17,36.54-16.27,68-8,93-37.48,10.41-12.3,6.77-26.91-8.2-32.78-23.91-9.39-53.16-5.27-78.51-8.37-19.3-2.36-36.71-3.49-54.31,6.95s-34.7,22.2-49.78,36.39c-14.71,13.85-34.32,24.91-39.72,45.87a696.26,696.26,0,0,0-15.49,80.35,7.82,7.82,0,0,1-.41,1.3,4,4,0,0,1-.36-1.16c.27-6.84-1-13.59-1.24-20.4-.82-25.5-5.86-54.09,6.54-77.7,21.43-40.83,40-84.39,76.29-114.9,12.34-10.38,22.17-22.45,27.88-37.66,5.49-14.59,4.59-28.39-5-41.15a19.74,19.74,0,0,0-8.64-6.75C187.48-2,180,1,173.2,6.29,163.34,14,154.68,23,145.78,31.66c-23.56,23-50.87,41-71.5,67.06C59.82,117,51.23,138,38.6,157.25,33.67,164.76,28,171.8,23.54,179.59,14,196.2,6.83,213.58,7.81,233.27c2.46,48.93,4.74,96.37-3.49,145C1.14,397.08-.84,416,.35,435.13Zm159.5,14c.86-2.28,2.68-1.37,4.24-.68a79,79,0,0,0,40.32,6.17c6-.6,11.66-2.55,17.35-4.4,1.49-.49,3.2-1.35,4,.77s-1,2.69-2.51,3.21c-8.4,2.92-16.94,5.14-26.89,5.3-11-.79-22.9-1.78-33.93-7.16C161,451.63,159.09,451.12,159.85,449.09Zm-68.65-.78c.55-1.42,1.83-1.32,3.06-1,2.19.58,4.36,1.24,6.57,1.76A56.94,56.94,0,0,0,135,446.94c1.65-.63,4.14-2.71,5.23.18,1,2.71-2,3.07-3.75,3.77-7,2.89-14.51,3.81-22.08,4.21-6.55-.47-13.08-1.14-19.4-3.08a19.42,19.42,0,0,1-2-.7C91.62,450.76,90.58,449.89,91.2,448.31Z"/><path d="M191.33,84.06c-3.24,3-6.57,5.93-9.83,8.93-9,8.28-17.65,16.87-25,26.71-8.55,11.49-14.87,24.25-21.26,37a13.9,13.9,0,0,0-1.58,4.35c.84,6.42,1.77,12.45,2.17,18.55.12,1.83-.38,4.69,1,5.22s3.1-1.77,4.53-3c9.57-8.14,18.06-17.5,28.35-24.82,13.14-9.36,25.77-19.54,40.63-26.21,2.49-1.12,1.86-2.68,1.32-4.34a309.73,309.73,0,0,0-17-41.86C193.65,82.47,192.78,82.69,191.33,84.06Z"/></svg>