<svg id="Layer_1" data-name="Layer 1" xmlns="http://www.w3.org/2000/svg" viewBox="0 0 819.39 864"><title>Untitled-2</title><path d="M263.78,324.79l-13-1.71,11.47,6.35A244.78,244.78,0,0,1,388,540.8,243.78,243.78,0,0,1,142.24,787.41a243.28,243.28,0,0,1-131.1-38.86L0,741.35,7.77,752.1C59.16,823.11,140.86,865,226.93,864c1.43,0,2.87,0,4.3,0,69.54,0,137.93-28.66,188.24-79,52.39-52.46,80.49-122.24,79.12-196.49C496.08,453.32,397.33,342.42,263.78,324.79Z"/><path d="M627,120C578.57,180.8,488.28,296.62,442.45,355.81a11.61,11.61,0,0,0-2.58,9.44,9.4,9.4,0,0,0,4.78,6.36,9.56,9.56,0,0,0,4.68,1.26c3.22,0,6.49-1.68,9.07-5C504.65,309,643.69,132.49,643.69,132.49c1.67-2.11,3.32-4.66,3.28-8a9.71,9.71,0,0,0-2.06-6.07,10.58,10.58,0,0,0-7.37-3.8C633.33,114.2,628.81,117.81,627,120Z"/><path d="M818.66,356.76A9.82,9.82,0,0,0,805.88,351C733.71,378.34,595.63,430.66,524,458.32a4.45,4.45,0,0,0-.83.52c-3.41,2.65-4.1,6.72-2.73,10.57,1.45,4,4.72,6.29,9.74,6.69a4.17,4.17,0,0,0,.79-.1c73.71-27.95,211.81-79.86,282.31-106.46C818.6,367.52,820.62,361.78,818.66,356.76Z"/><path d="M328,302.69a10.27,10.27,0,0,0,3.93.58,9.11,9.11,0,0,0,7.15-3.42,12.35,12.35,0,0,0,2.66-6.58S375,83.71,386.42,11.6A9.65,9.65,0,0,0,377.92.1c-5.29-.71-10.31,2.43-11.22,8.06-11.83,73.26-34.49,212.67-44.84,283.73A9.5,9.5,0,0,0,328,302.69Z"/><path d="M165.55,290.51l0,.07c1.61,4.63,5.34,7.37,9.56,7.37a10.62,10.62,0,0,0,3-.44c5.19-1.54,8.41-6.79,6.48-12.91C163.81,219,121.93,87.86,101,22.31c-1.63-5.1-4.87-7.89-9.74-8.31a9.4,9.4,0,0,0-7.93,3.64,11.55,11.55,0,0,0-1.43,10.61C102.48,93.91,143.87,225.19,165.55,290.51Z"/><path d="M238.6,184c.8,22.61,2.22,67.84,3,90.46.13,3.8,1.36,6.9,3.58,8.94a9.25,9.25,0,0,0,6.05,2.44,7.53,7.53,0,0,0,.95,0c5.73-.26,9.79-4.83,9.58-11.74-.69-22.7-3-68.2-2.9-90.94h0a11.17,11.17,0,0,0-3.45-8.31,9.6,9.6,0,0,0-7.1-2.52C242.41,172.56,238.36,177.48,238.6,184Z"/><path d="M246.24,137.91c.26,0,.52,0,.78,0,5.75-.09,9.83-4.3,9.78-10.6-.1-10.45-1.05-30.9-1.29-41.77-.13-5.61-5.1-9.39-10.49-9.11-5,.25-9.65,4-9.47,9.82.34,10.84.81,30.49,1.16,40.65C236.93,133.4,240.68,137.63,246.24,137.91Z"/><path d="M392.12,326.27a9.69,9.69,0,0,0,4.09.93c3.82,0,7.57-2.36,9.82-6.95,9.91-20.2,29.47-61.55,39.28-82.07a11.67,11.67,0,0,0,.75-9,9.55,9.55,0,0,0-5.14-5.51c-5.3-2.48-11.16,0-13.95,5.92-9.7,20.45-29.25,61.26-39,81.68-1.64,3.44-2,6.75-.94,9.59A9.42,9.42,0,0,0,392.12,326.27Z"/><path d="M455,191.84a10.36,10.36,0,0,0,4.46,1.06,9.86,9.86,0,0,0,9-6c4.39-9.51,13.06-28.14,17.71-38,2.4-5.07-.34-10.69-5.27-12.86A9.71,9.71,0,0,0,468,140.54c-5,9.93-13.05,27.57-17.26,36.82C448,183.54,449.64,189.22,455,191.84Z"/><path d="M583.75,352.9a9.61,9.61,0,0,0-1.73-7.33c-3.38-4.79-9.71-5.52-15.06-1.79-18.57,12.92-55.8,38.65-74.4,51.54-3.13,2.17-5.06,4.88-5.57,7.85a9.38,9.38,0,0,0,1.74,7.2,9.25,9.25,0,0,0,7.73,4.05,12.62,12.62,0,0,0,7.24-2.3c19.15-13.3,56.21-38.85,74.94-51.81A11.74,11.74,0,0,0,583.75,352.9Z"/><path d="M612.87,311.55c-5.51,4-6.88,9.73-3.5,14.67a9.41,9.41,0,0,0,7.88,4.34,11.69,11.69,0,0,0,6.26-2s25.2-17.89,34.23-24.18c4.6-3.2,5-9.44,1.81-13.78-3-4-8.69-5.83-13.42-2.48C637.36,294.37,612.87,311.55,612.87,311.55Z"/><path d="M643.89,520.84c-22.56,1.77-90.27,6.59-90.27,6.59-3.8.28-6.84,1.64-8.8,3.93a9.41,9.41,0,0,0-2.15,7.09c.48,5.57,5,9.11,11.59,9.11l.72,0L645.54,541a11.67,11.67,0,0,0,8.17-3.78A9.66,9.66,0,0,0,656,530C655.47,524.2,650.39,520.33,643.89,520.84Z"/><path d="M700.78,517c-6.77.54-10.93,4.75-10.6,10.73.3,5.58,4.43,9.28,10.44,9.36h.54s30.71-2.19,41.68-2.91c5.6-.36,9.2-5.47,8.7-10.84-.46-5-4.4-9.45-9.82-9.08C731.18,515,700.78,517,700.78,517Z"/><path d="M99.14,551.41h0c-2.74.77-2.74,5.41,0,6.17h0c33.86,9.4,60.29,40.81,68.2,81h0c.64,3.26,4.55,3.26,5.19,0h0c7.91-40.23,34.34-71.64,68.2-81h0c2.75-.76,2.75-5.4,0-6.17h0c-33.86-9.39-60.29-40.8-68.2-81h0c-.64-3.27-4.55-3.27-5.19,0h0C159.43,510.61,133,542,99.14,551.41Z"/></svg>