<svg id="Layer_1" data-name="Layer 1" xmlns="http://www.w3.org/2000/svg" viewBox="0 0 864 769.26"><title>Untitled-4</title><path d="M861.84,159c-2-1.17-4.69-.79-7.36,1.72A141.42,141.42,0,0,1,842.7,171.1c-2.58,1.94-5.26,4-7.77,6.18-8.15,7.26-14.4,14.79-18.59,22.41-5,9.05-11,27.93-.07,37.55q-1.95,5.52-3.85,11.06l-1.85,5.35c-8.18,23.5-17,51-18.1,79.62l-.17,7a220.09,220.09,0,0,0-19-31,133.09,133.09,0,0,0-16-17.86c3.3-8,2.75-20.81,1.72-32.49l-.08-.95c-4.39-51-34.72-99.35-77.26-123.25-20.33-11.42-42.84-18.52-64.6-25.4l-2-.64C594.91,102.37,576,85.28,567,65.21q-4.15-9.22-8.53-18.33c-1-2.13-3.42-7.07-9.12-6.29-5.42.77-6.23,5.68-6.74,8.79-4.54,27-6.33,48.91-5.61,68.92,1.16,32.18,8.83,57.68,23.45,78,24.81,34.46,58.17,58.06,102,72.16l1.45.47c26.72,8.59,52,16.7,77.14,28.61a16.82,16.82,0,0,0,4.4,1.46c25.19,24.24,41,53.19,47.11,86a132.31,132.31,0,0,1,1.05,44.16c-9.82-28-28.24-49.7-54.83-64.6-1.58-7-7.33-13.55-17.53-20A68.74,68.74,0,0,0,694.78,335l-4.27-.65c-15-2.25-26.4-4.9-40.63-14.85-2.24-1.57-4.73-3.25-6.79-2.37s-3.14,4.06-3.23,7.07a25.86,25.86,0,0,0,.64,5.63c4.35,23.47,19.66,44.77,39,54.25,9.72,4.76,29.56,9.88,44.32,4.45a23.44,23.44,0,0,0,12.35-9.73A63.43,63.43,0,0,1,747,386.18c25.33,22.34,36.76,43.56,37,68.68C732.87,548.6,634.6,607.74,527.11,609.48a97.17,97.17,0,0,0-11.69-8.89c-13.37-8.56-29.76-16.76-49.87-12.74a51.9,51.9,0,0,0-23.06,10.87,297.85,297.85,0,0,1-170.66-126c1.85-17.27-4.86-31.89-18.52-40.23a14.25,14.25,0,0,0-4-1.72A294.88,294.88,0,0,1,224.4,305.92a303.93,303.93,0,0,1,8.92-67.85C263.64,227,271.17,193,262.86,164.92c-.07-.22-.14-.43-.22-.66A292.5,292.5,0,0,1,340.8,74.49c8.3,5.65,18.27,11.05,30.12,11.05h0c19.1,0,35.81-15.69,41.58-38.93l.32-1.27c1-3.75,1.93-7.61,1.58-11.83a304.12,304.12,0,0,1,49.09-14.23l33.19-6.66a3.73,3.73,0,0,0-.36-7.36L462.66,1.89C449.77.61,436.46,0,423.2,0A387.59,387.59,0,0,0,300.29,20.2c-8-6.14-17.49-12.73-28.51-16.44C253.29-2.46,238.44,5.25,230,25.49c-3,7.15-4.21,14.82-5.39,22.24L224.05,51a16.09,16.09,0,0,0-.14,4.8,386.23,386.23,0,0,0-73.08,57.77A381.28,381.28,0,0,0,62.89,251.19c-20,9.38-35.48,22.47-47.28,40C5.48,306.2-.21,322.15,0,334.9c.41,35,12.44,59.38,37.88,76.69a11.74,11.74,0,0,0,2.37,1.28A384.17,384.17,0,0,0,150.28,655l1.87,1.85c-1.79,10.14-1.86,18.7-.21,26.82,4.2,20.8,17.53,39,35.64,48.63s39.3,10.19,64.6,1.53a10.72,10.72,0,0,0,4.46-2.78C308,755.79,363.43,768.65,422,769.26A388.53,388.53,0,0,0,629,709.9a96.82,96.82,0,0,0,15,2.26h.3l.3,0c.68-.09,1.41-.16,2.16-.24a45.43,45.43,0,0,0,5.5-.82c23.42-5.48,38.08-22.72,41.27-48.55a11,11,0,0,0-.21-4.08c2.29-2.77,10-10.44,13.93-14.35,2.61-2.6,4.67-4.65,5.22-5.28,6.58-7.46,12.95-15.3,18.95-23.29A386.5,386.5,0,0,0,763.52,565C781,532,794.06,494.19,803.4,449.27l.57-2.72a233.51,233.51,0,0,0,4.14-24c.17-1.7.31-3.41.41-5.13a155.68,155.68,0,0,0-2.11-32.88,22.06,22.06,0,0,1,2.67-14.85,109.46,109.46,0,0,1,16.72-22.59,23.76,23.76,0,0,0,13.73,4.76,22.3,22.3,0,0,0,16.21-6.48,23.89,23.89,0,0,0,7.42-16.73,23,23,0,0,0-22.48-23.44c-13.18-.21-23.53,9.16-24.07,22.34a23.36,23.36,0,0,0,1.15,8.28A123.86,123.86,0,0,0,806,349.32c.37-13.81.81-28.06,3.44-41.86,3.47-18.2,9.59-36,15.51-53.18,1.56-4.55,3.13-9.09,4.65-13.65l.55-.15c13.18-3.67,24.57-14.61,30.45-29.3,3.8-9.5,3.34-18.6,2.89-27.4a133.26,133.26,0,0,1,.49-18.37C864,164.34,864.35,160.47,861.84,159ZM241.31,45.84a65.37,65.37,0,0,1,2.53-10.69c3.51-10.18,8.71-15.1,16.13-15.1a22.17,22.17,0,0,1,6.11.95,59.37,59.37,0,0,1,14.37,6.51A382.47,382.47,0,0,0,241.31,45.84Zm156-5.19c-3,13.36-11.69,23.59-22.61,26.18-6.52,1.54-12.7-.6-18.17-3.55A299,299,0,0,1,397.34,40.65ZM769.16,508.94a367.48,367.48,0,0,1-143,181.35,104.77,104.77,0,0,1-32.72-17.94c-12.37-9.79-23.77-21.2-34.79-32.22-4.65-4.65-9.3-9.3-14-13.85h0C633.73,620,714.37,577.77,769.16,508.94ZM235.7,720.13a68.54,68.54,0,0,1-23.62,2.08c-24.41-2.4-43.59-24.94-44.4-50.69A383.63,383.63,0,0,0,235.7,720.13ZM85.09,242.79A368.39,368.39,0,0,1,297,40l1.18,1c9.2,7.62,18.69,15.47,28.29,22.89a314.36,314.36,0,0,0-45.06,43.32A310.42,310.42,0,0,0,218.88,223.7c-23.81,7.12-48.75,8.52-72.88,9.88l-4.79.27C119.28,235.1,101.26,238,85.09,242.79Zm67.56,8.66c7.76-.42,15.78-.86,23.69-1.63a276.55,276.55,0,0,0,37.54-6,324.08,324.08,0,0,0-7.08,61.8c-1.15,61.39,15,120.91,46.73,172.2-1.89,7-5.14,13.93-10.45,22.27-9.31,14.63-19.79,28.71-29.93,42.34-7.55,10.14-15.35,20.62-22.65,31.3-15.07,22-26.65,41.6-33.63,64C92.76,570.23,57.28,481.22,56.82,386.49h0A367.8,367.8,0,0,1,76.71,264.77c11.63-4.63,24.87-7.94,41.52-10.38C129.61,252.71,141.32,252.07,152.65,251.45Zm454.4,450.63a370.52,370.52,0,0,1-185.48,49.59c-94.61-1-183.66-36.57-250.94-100.2,5.17-19.23,14-37.86,27.54-58.49,9-13.65,18.88-27,28.43-39.83,6.87-9.25,14-18.81,20.7-28.46,6.94-9.92,13.14-19.12,17.85-29.44A319.29,319.29,0,0,0,294.91,531a314.05,314.05,0,0,0,138.6,83.65c4.37,1.29,8.76,2.45,13.17,3.52A319.53,319.53,0,0,0,514.57,627c1.56,0,3.14.14,4.7.06l1.74,1.66q23.26,22.49,46.3,45.2a149.27,149.27,0,0,0,36.54,26.56C604.91,701,606,701.57,607.05,702.08ZM316.62,33.48A369.55,369.55,0,0,1,406,18a319.22,319.22,0,0,0-65,35c-7.92-5.83-15.68-12.29-23.21-18.56Zm-277.36,357c-.23-.18-.47-.38-.7-.59C16.15,370.7,10,337.32,23.82,310.56a89.87,89.87,0,0,1,22.59-28c2.62-2.17,5.32-4.19,8.15-6.11A387,387,0,0,0,39.22,386.56C39.23,387.89,39.24,389.21,39.26,390.52Z"/></svg>