<svg id="Layer_1" data-name="Layer 1" xmlns="http://www.w3.org/2000/svg" viewBox="0 0 794.46 864"><title>Untitled-7</title><path d="M785.16,440.63,644,423a9.34,9.34,0,0,0-10.27,7.87c-.83,4.84,2.09,9.25,7.47,10.8L784.14,460l.55,0a9.56,9.56,0,0,0,9.72-8.69h0C794.93,445.71,791.22,441.43,785.16,440.63Z"/><path d="M442.67,96.19H443c5.47-.2,7.95-4.08,9.51-7.43l25.37-55a9.39,9.39,0,0,0-4.82-12c-4.46-2.12-9.39-.6-12.45,4.09l-26.48,57A9.94,9.94,0,0,0,435,92.3,9.2,9.2,0,0,0,442.67,96.19Z"/><path d="M601.71,380.5C600.9,240.31,505.13,123,368.8,95.2l-13.91-2.83,12.17,7.3C445,146.41,492.79,228.8,494.9,320.06,498.24,465.25,387.58,583.94,243,590.27a264.84,264.84,0,0,1-174-54.93L57.7,526.63l7.7,11.94A290.72,290.72,0,0,0,306.6,672.05c1.29,0,2.57,0,3.86,0a289.09,289.09,0,0,0,203.93-83.41C570.28,533.8,601.29,459.87,601.71,380.5Z"/><path d="M524.05,132.5a10.58,10.58,0,0,0,7.29-3.17L619.19,15.12a9.58,9.58,0,0,0-2.32-13.24C612.32-1.38,606.75-.34,603,4.5l-86.37,113a9.36,9.36,0,0,0,1.61,12.82A9,9,0,0,0,524.05,132.5Z"/><path d="M604.83,263.08a9.27,9.27,0,0,0,9.16,6.71,11.39,11.39,0,0,0,1.91-.17l136.93-46.08a9.57,9.57,0,0,0,5.44-12.29c-2-5.25-7.18-7.47-13-5.55L610.63,251.52A9.36,9.36,0,0,0,604.83,263.08Z"/><path d="M690.3,662.16l-109.36-91a9.36,9.36,0,0,0-12.88,1.09c-3.32,3.63-3.24,8.92.46,13.13L679,677.89a10,10,0,0,0,5.84,1.92,9.43,9.43,0,0,0,7.48-3.69C695.78,671.71,695,666.1,690.3,662.16Z"/><path d="M451.48,675.78a9.31,9.31,0,0,0-11.71-5.45c-4.68,1.5-7.24,6.13-6.12,11.63l50,135.12a9.55,9.55,0,0,0,12.45,5.08c5.18-2.12,7.26-7.4,5.16-13.15Z"/><path d="M275.52,704c-4.81-1-9.32,1.77-11,7.1l-23,142.24a9.58,9.58,0,0,0,8.34,10.55,10.59,10.59,0,0,0,1.36.09c4.9,0,8.68-3.46,9.59-9L283,714.53A9.34,9.34,0,0,0,275.52,704Z"/><path d="M112.33,644,21.46,755.78a9.57,9.57,0,0,0,2,13.3,9.47,9.47,0,0,0,5.77,2,10.67,10.67,0,0,0,8.17-4.27l89.37-110.66a9.38,9.38,0,0,0-1.27-12.87C121.77,640,116.49,640.2,112.33,644Z"/><path d="M572.88,183a9.2,9.2,0,0,0,4.83,7.4l0,0a9.52,9.52,0,0,0,4.59,1.22,13.32,13.32,0,0,0,7.38-2.77l49.87-34.33a9.39,9.39,0,0,0,1.95-12.75c-2.75-4.1-7.77-5.3-12.78-2.83l-51.84,35.47A9.89,9.89,0,0,0,572.88,183Z"/><path d="M643.59,347.74h.48l60.53-1.06a9.38,9.38,0,0,0,8.68-9.55c0-4.93-3.54-8.71-9.1-9.42l-62.8.92a9.92,9.92,0,0,0-8.1,4.92,9.25,9.25,0,0,0,0,8.87C635.69,347,640,347.74,643.59,347.74Z"/><path d="M618.35,506a9.2,9.2,0,0,0-3.65,8v0c.37,5.47,4.32,7.83,7.72,9.28L678.14,547a10,10,0,0,0,3.2.54,9.34,9.34,0,0,0,8.61-5.72c2-4.52.31-9.41-4.47-12.32l-57.73-24.72A9.9,9.9,0,0,0,618.35,506Z"/><path d="M522.17,638.68a9.92,9.92,0,0,0-8.89-3.27,9.24,9.24,0,0,0-6.95,5.46v0c-2.19,5,.23,8.93,2.58,11.79l38.55,46.68a9.39,9.39,0,0,0,12.87.84c3.84-3.1,4.61-8.2,1.71-13Z"/><path d="M365.92,701.9a9.21,9.21,0,0,0-8.81.61l0,0c-4.63,2.91-4.84,7.5-4.51,11.19L358.15,774a9.37,9.37,0,0,0,9.33,8,8,8,0,0,0,.84,0c4.91-.39,8.42-4.17,8.72-9.77l-5.61-62.55A9.89,9.89,0,0,0,365.92,701.9Z"/><path d="M191.18,680.85c-5.5-.27-8.21,3.52-10,6.76l-29.11,53.08a9.56,9.56,0,0,0,8.6,13.52,10,10,0,0,0,7.88-4.17l30.55-55.29a9.89,9.89,0,0,0-.25-9.47A9.24,9.24,0,0,0,191.18,680.85Z"/><path d="M68.72,587.2a9.22,9.22,0,0,0-5.17-7.2c-4.92-2.41-8.93-.16-11.89,2.06L3.32,618.5a9.38,9.38,0,0,0-1.41,12.83,9.12,9.12,0,0,0,7.45,3.83,10.83,10.83,0,0,0,5.15-1.37l50.55-37.85A9.89,9.89,0,0,0,68.72,587.2Z"/></svg>