<svg id="Layer_1" data-name="Layer 1" xmlns="http://www.w3.org/2000/svg" viewBox="0 0 864 783.95"><title>Untitled-6</title><path d="M691.07,620.58a339.92,339.92,0,0,1-191.82,74.27c-190.51,10.57-348.86-129.43-360.5-318.8C127.71,196.12,253.9,41.88,432.3,17.27A7.75,7.75,0,0,0,432,1.87,393.5,393.5,0,0,0,370.56.68C264.19,6.78,167.46,53.17,98.18,131.29,28.74,209.6-5.84,311.08.81,417,7.38,521.83,54.3,617.57,132.92,686.61A389.09,389.09,0,0,0,391,784q12.62,0,25.32-.8a388.32,388.32,0,0,0,132.24-31.86A393.2,393.2,0,0,0,702.07,631.36a7.76,7.76,0,0,0-11-10.78ZM204.58,126.73C146.51,196.3,117.64,285.18,123.27,377c5.83,94.79,47.92,181.5,118.54,244.16,70.8,62.84,162.55,94.49,258.37,89.18A359.2,359.2,0,0,0,647.84,667.9a373.56,373.56,0,0,1-232.46,99.77C315.12,774,218.45,741.08,143.16,675,67.66,608.65,22.6,516.71,16.29,416.06,9.9,314.27,43.11,216.78,109.79,141.58A369.23,369.23,0,0,1,239.14,47.49a383.69,383.69,0,0,1,128-31.06A354.12,354.12,0,0,0,204.58,126.73Z"/><path d="M858.52,384.47c-15.42-4.19-30.25-4-41.78.49-13.61,5.34-31.8,19.24-28.11,36.32-.84.8-1.69,1.65-2.56,2.54a388.85,388.85,0,0,0-.53-42.69,14.42,14.42,0,0,1,.75-5.64,198.29,198.29,0,0,1,9-22.63,30.84,30.84,0,0,0,6.21-.95,19.66,19.66,0,0,0,7.29-4.69,26.4,26.4,0,0,0,7-14.49c.85-5.11.55-10.23.26-15.19-.5-8.45-1-16.43,4.35-23.2,1.06-1.35,3.89-4.95,1.93-8.11-2.61-4.24-7.56-2-9.17-1.25-.49.22-1,.48-1.89,1-11.18,6.43-19.72,14-26.08,23.18-4.6,6.64-7.08,13.48-7.41,20.41-2.12-8.61-4.74-17.68-8-27.59a22.09,22.09,0,0,1-1.51-7.5,217.46,217.46,0,0,1,2.33-27.74,28,28,0,0,0,4.85-1.6,15.6,15.6,0,0,0,5.21-4.41,28.19,28.19,0,0,0,5.39-12.42c1.74-9.37.43-18.72-.83-27.77a118.94,118.94,0,0,1-1.6-18.17c0-2.31.09-6.18-3.16-7.44-2.28-.9-4.91,0-7.83,2.55-15,13.2-23.75,29.43-24,44.53a32.17,32.17,0,0,0,1,8.5c-3.65-7.37-7.64-14.64-11.93-21.75a25.88,25.88,0,0,1-3.57-18.51c1.13-6.84,2.3-12.89,3.57-18.39a14,14,0,0,0,3.29-1c7.86-3.47,11.77-12.47,10.73-24.69l-.12-1.32c-.75-8.71-1.47-16.95,3.36-24.14a5.58,5.58,0,0,0-.58-7.45c-2-1.88-4.91-1.66-7.34.55l-1.82,1.65C733,146.59,716,161.91,721.69,181.06a16.79,16.79,0,0,0,1.56,3.64c-1.21,4.74-2.21,9.25-3.06,13.66-.08-.12-.17-.24-.26-.35-2.49-3.32-4.85-6.46-5.67-10.24-3-13.85-5.42-25.5-6.28-37.58a56.85,56.85,0,0,0,8.1-8.53,36.57,36.57,0,0,0,3.46-14.09c.85-14.74-6.77-26.3-14.13-37.49-4-6.11-8.19-12.44-10.75-19.07-1.5-3.91-3.71-5.79-6.6-5.44l-.11,0c-3.7.54-4.47,4.82-4.84,6.88l-1.35,7.63c-1.42,8.12-2.9,16.51-4.79,24.65-2.74,11.8-3.79,28.24,6.8,39.53a32.48,32.48,0,0,0,8.29,6.75c.29,3.65.8,7.27,1.3,10.8a198.27,198.27,0,0,0-19.91-22.32c-7.68-7.28-14-16.06-19.84-27.64C650,104.68,646,97.54,642.14,90.63l-2-3.54a28.25,28.25,0,0,0,3.06-4.62,17.85,17.85,0,0,0,1.12-8.6c-1-12.25-8.65-22.08-15.71-30.35-6.63-7.76-13.25-15.13-21.42-19.94-2.58-1.53-5.31-1.59-7.3,0-.78.72-3.08,3.43.06,7.92,5.38,7.74,7.46,17.39,9,25.84.33,1.8.59,3.68.87,5.61,1.09,7.63,2.34,16.28,7.4,22.65a17,17,0,0,0,7.19,5.66l.29.55,2,3.62c.49.92,1,1.83,1.48,2.74a372.89,372.89,0,0,0-41.52-28.49c0-.61,0-1.39-.06-2.22-.13-5.07-.23-6.93-.56-8-1.27-4-3.71-8.17-7.47-12.69a59.38,59.38,0,0,0-22.82-16.4c-12.17-5.09-25.28-6.5-38-7.86-14.42-1.56-28-3-40.44-9.43-2.1-1.08-5.07-1.6-7.13.18-1.26,1.08-2.4,3.22-.72,7.24a59.57,59.57,0,0,0,5,8.93c.61,1,1.23,1.93,1.83,2.92,19,31.26,43.79,62.75,83.81,59.77,9.22-.7,16.29-3.42,21-8.09,5.6,2.82,25.07,17.08,33.07,23.26,9.35,7.23,18.93,15.3,29.82,25.13a131.12,131.12,0,0,0-25.22-2.95c-.19-1.1-.49-2.45-.94-4.09-2.61-9.54-13.25-14.89-22.34-16.72-8.54-1.72-17-.8-25.21.08s-15.81,1.7-23.47.15c-2.52-.5-5.67.33-6.87,2.91-.56,1.22-1.12,3.75,1.64,7,2.9,3.07,5.61,6.3,8.33,9.53a141.55,141.55,0,0,0,14.31,15.4c8.3,7.33,16,11.85,23.54,13.82,9.82,2.58,19.38-.26,25-7.4a35.77,35.77,0,0,0,3.25-4.94,115,115,0,0,1,28.58,3.59,77.21,77.21,0,0,1,8.54,2.72,70.44,70.44,0,0,0-9.35,2.38l-2.82.92-.63-.33a14.52,14.52,0,0,0-3.26-1.52,18.62,18.62,0,0,0-6.81-.16c-6,.81-11.27,3.34-16.31,5.78-4.31,2.09-8.37,4.05-12.82,5a5.61,5.61,0,0,0-4.56,4.56c-.26,2.21,1.11,4.39,3.56,5.69l1.35.72c7.26,3.88,15.49,8.27,24.44,8.9,6.19.44,12.28-1.44,16.3-5a15,15,0,0,0,4.88-8.76,66.31,66.31,0,0,1,20.52-3.48c6.67-.16,10.64,2,15.28,8a526,526,0,0,1,43.45,65.9c-3.66-3.21-7.43-6.39-11.39-9.31A134.42,134.42,0,0,0,702,222.32a20.48,20.48,0,0,0-.2-3.41,23.58,23.58,0,0,0-9.52-15.65c-6.45-4.94-13.91-7.23-21.36-9.51-4.83-1.48-8.79-2.85-11.95-5.7-2.16-2-4.71-2.51-6.66-1.41-2.16,1.22-3.19,3.79-2.68,6.72,2.18,12.47,5.47,26.62,17.07,36.77,7.82,6.84,19.09,11.09,27.53,6.07a137.31,137.31,0,0,1,18.66,13c-2.41-.13-5-.29-8-.59-.06,0-6.51-.64-8.13,3-1.32,3,1.06,6.31,2.87,7.74a119.11,119.11,0,0,0,19.95,13.18c6.57,3.28,15,6.82,23,5.7a73.65,73.65,0,0,1,4.84,7.85c4.09,7.82,6.65,16.82,9.13,25.52.59,2.05,1.18,4.1,1.77,6.11a272.74,272.74,0,0,1,7.38,30,116,116,0,0,0-41.73-23.11A34,34,0,0,0,724,320c-1-20.22-23.72-27.8-44.62-28.15l-3.43,0c-7.25,0-14.09,0-19.72-4.58a5.5,5.5,0,0,0-7.59.17c-1.71,1.86-1.31,4.7-.15,6.68.63,1.09,1.29,2.18,1.94,3.26.83,1.39,1.67,2.78,2.46,4.19,9.67,17.2,20.66,29.63,32.66,36.93,8.59,5.24,21.6,8.26,31,.32A100.55,100.55,0,0,1,752,356.93,26.05,26.05,0,0,0,736.88,364q-.84-.28-1.74-.51c-13.14-3.33-27.36,4.1-33,17.28-2.17,5-3.07,10.49-3.86,15.3-.63,3.83-1.42,7.47-4.14,9.84-2.52,2.2-2,4.35-1.69,5.18s1.66,2.82,5.38,2.74l3.58-.15c11.34-.44,24.2-.94,34.72-7.35,7.29-4.45,13-12.16,14.6-19.64a18.83,18.83,0,0,0-1.43-12.46c4.76-3,11.67-1.89,15.55.17a8.12,8.12,0,0,1,4.55,6.39c4.06,28.43,1.51,62.87-7.18,97.2a38.57,38.57,0,0,0-2.65-3.35,38.73,38.73,0,0,0,1.66-6.68c1-11.42-6.19-21.23-20.92-28.37-1.53-.74-3.15-1.45-4.79-2.16-5.29-2.3-10.75-4.67-14-8.85-2.58-3.37-4.78-3.35-6.18-2.75-2,.87-3.09,2.71-3.24,5.45l-.17,3c-.18,3-.37,6.09-.33,9.13.16,15.94,4.82,28.21,14.27,37.51,6.4,6.29,15.42,8.33,22.77,5.38a15.49,15.49,0,0,1,1.15,1.83l.62,1.14c3,5.53,5.8,10.75,4.13,16.46a301.1,301.1,0,0,1-36.83,80.76c-1.51,2.29-3.39,5.15-3.56,8.58a8.79,8.79,0,0,0,2.41,6.46,6.73,6.73,0,0,0,4.83,2.12h.14c4.11-.09,6.55-3.83,7.59-5.43,14.44-22.19,26.72-47.8,36.48-76.1a537,537,0,0,0,15.29-54.3c.88-3.8,1.86-6.25,4.27-7.49a10.65,10.65,0,0,1,4.45-1.3,21.61,21.61,0,0,0,1.51,15.82c3,5.78,8,10,11.52,12.71l1.39,1.05c3.24,2.42,6.3,4.71,7.31,8.19.79,2.73,2.6,4.41,4.82,4.5s4.26-1.54,5.3-4.32c3.08-8.36,6.82-20.86,3.58-32.84-1.72-6.36-6.46-14.18-13.17-17.33a14.13,14.13,0,0,0-10.74-.66,21.22,21.22,0,0,0-11.26-2.95c2.51-3,5.21-6,8.19-9a28.92,28.92,0,0,0,4.42,1.79c18.78,4.5,31.41-14.17,39.78-26.51l.73-1.08c4.72-7,9.5-10.74,15.5-12.25,4.58-1.15,5.52-3.64,5.5-5.54C863.94,387.75,861.79,385.36,858.52,384.47Z"/></svg>