<svg id="Layer_1" data-name="Layer 1" xmlns="http://www.w3.org/2000/svg" viewBox="0 0 855.19 864"><title>Untitled-3</title><path d="M702.58,238.34A349,349,0,0,0,479.06,55.21L458.42,49.7l18.76,10.21A312,312,0,0,1,608,196c28.07,57.89,38,121.41,28.73,184a196.27,196.27,0,0,0-79.07-15.76c-53.51.43-103.45,21.28-140.62,58.7a197.27,197.27,0,0,0-57.48,138.9,200.54,200.54,0,0,0,16.29,81C250.58,663,123.18,602.91,58.05,492.58L47.1,474l6.32,20.58a352.93,352.93,0,0,0,20.18,51c60,123.11,182.9,198.06,314.22,198.05a347.31,347.31,0,0,0,72-7.57,206.64,206.64,0,0,0,101.52,26.19h1A199.38,199.38,0,0,0,731.65,464.66C747.7,387.51,737.66,309.27,702.58,238.34ZM559.23,381.07A181.69,181.69,0,0,1,740.73,563c0,100-78.54,180.17-178.63,182.49h-.73A188.53,188.53,0,0,1,478.74,727a180,180,0,0,1-49.69-35.2,177.55,177.55,0,0,1-35.34-50.32,183.37,183.37,0,0,1-17.3-79.57h0c.44-100.61,80.11-180,181.36-180.81Z"/><path d="M169.76,536.17c-6.17.05-10.27,3.37-10.46,8.71s3.62,9,9.71,9.45l162.17,4.9c5.06-.62,8.18-3.86,8.35-8.65s-2.8-8.4-8.1-9.25Z"/><path d="M526,342.4a8.12,8.12,0,0,0,5,1.62,10.19,10.19,0,0,0,1.44-.11c5-.73,7.63-4.17,7.87-10.64l-18.8-150.95c-.78-5.38-4.59-8.55-9.67-8.08-5.37.49-8.5,4.39-8.17,10.35l18.29,149.87C522.4,338,523.8,340.76,526,342.4Z"/><path d="M382.8,410.31l.56.4a9,9,0,0,0,4.08,1,8.59,8.59,0,0,0,4.51-1.28,8.88,8.88,0,0,0,4.21-7.67c0-4.39-2.75-6.89-5-8.9l-94.82-87.77c-2.59-2.39-9.46-8.74-15.69-2.54a8.14,8.14,0,0,0-2.65,6c.06,3.11,2,6.39,5.91,10Z"/><path d="M145.46,408.27,227.89,438h.49c5.06-.18,8.24-2.3,9.43-6.31A8.66,8.66,0,0,0,234,421.48L152,392l-.62-.14c-4.42-.4-7.83,1.59-9.39,5.52h0A8.62,8.62,0,0,0,145.46,408.27Z"/><path d="M343,481.1c1.76.61,7.55-.31,9.59-6.05a8.56,8.56,0,0,0-3.39-10.37L277.62,439.1c-5-1.64-9.33.22-11.51,5s0,9.57,5.45,12.22C271.56,456.28,323.86,474.48,343,481.1Z"/><path d="M395.65,261.09a8.31,8.31,0,0,0,6.45,3.1,9.36,9.36,0,0,0,3.62-.75h0c3.59-1.48,5.46-4.56,5.56-9.14v-.54L381.6,182.12l-.26-.47c-2.64-3.82-6.73-5.11-10.93-3.4s-6.11,5.43-5.34,10.13Z"/><path d="M428.31,290.21c-2.6-5.59-7.45-7.8-12.38-5.62h0c-4.69,2.09-6.37,7.12-4.19,13L442,362.29l.32.52a8,8,0,0,0,6.36,3.09,10.08,10.08,0,0,0,3.75-.76,8.3,8.3,0,0,0,5.45-8.31c0-.18-.1-.73-.1-.73Z"/><path d="M246.24,289.07a11.11,11.11,0,0,0,7.23,3.13,9.09,9.09,0,0,0,6.25-2.69c3.08-2.87,4.63-8.3-1.3-14.14-7.91-7.8-32.86-29.88-32.86-29.88a11.07,11.07,0,0,0-7.62-3.22h-.16a8.58,8.58,0,0,0-7.92,5.67c-1.5,3.77-.56,7.48,2.66,10.46Z"/><path d="M509.56,814.34h-.13a25.09,25.09,0,0,0-17.49,7.37,25.68,25.68,0,0,0-7.62,18.06,23.78,23.78,0,0,0,7.22,17A25.22,25.22,0,0,0,509.27,864c13.52-.15,24.86-11.62,24.77-25.06C533.94,825.68,522.74,814.41,509.56,814.34Z"/><path d="M611,0a24.45,24.45,0,0,0-25.23,24.56,24.46,24.46,0,0,0,24,24.82h.54A24.63,24.63,0,0,0,635,24.79,24.45,24.45,0,0,0,611,0Zm-1,41Z"/><path d="M778.57,166.57c-13.23.2-24.16,11.28-24.35,24.71A24.46,24.46,0,0,0,796,209.06a25,25,0,0,0,7.34-18,24.66,24.66,0,0,0-7.44-17.56A24.06,24.06,0,0,0,778.57,166.57Z"/><path d="M831.58,435.66h-.09a25,25,0,0,0-17.88,6.82A24.68,24.68,0,0,0,830.16,485h.46a24.66,24.66,0,0,0,1-49.3Z"/><path d="M754.63,692.18h-.36a24.73,24.73,0,0,0-24.59,24.19,24.26,24.26,0,0,0,6.89,17.41,24.67,24.67,0,0,0,17.69,7.52,24.56,24.56,0,0,0,.37-49.12Z"/><path d="M231.79,812.4h-.06a24.75,24.75,0,0,0-24.68,24.25,23.49,23.49,0,0,0,6.67,17,26,26,0,0,0,35.89.05,23.59,23.59,0,0,0,6.81-16.86C256.37,823.62,245.08,812.43,231.79,812.4Z"/><path d="M25.17,642.86H25a24,24,0,0,0-17.31,6.63A24.4,24.4,0,0,0,0,666.92a24.89,24.89,0,0,0,23.72,25.25h.85a24.1,24.1,0,0,0,16.59-6.67,24.73,24.73,0,0,0-16-42.65Z"/></svg>