<svg id="Layer_1" data-name="Layer 1" xmlns="http://www.w3.org/2000/svg" viewBox="0 0 864 849.2"><title>Untitled-5</title><path d="M462.4,199.15h.12a11.41,11.41,0,0,0,8.13-3.3,12,12,0,0,0,3.43-8.63,11.58,11.58,0,0,0-11.45-11.74,11.83,11.83,0,0,0-11.77,12A11.64,11.64,0,0,0,462.4,199.15Z"/><path d="M217.31,375.89a11.53,11.53,0,0,0,8.24-3.58,11.79,11.79,0,0,0-8.32-20h-.08a11.53,11.53,0,0,0-8.27,3.58,11.8,11.8,0,0,0-3.33,8.57,11.64,11.64,0,0,0,11.62,11.46Z"/><path d="M344.56,218.48h.05a11.81,11.81,0,0,0,.31-23.61,11.29,11.29,0,0,0-8.28,3.25,11.86,11.86,0,0,0-.35,16.82A11.48,11.48,0,0,0,344.56,218.48Z"/><path d="M251,262a11.93,11.93,0,0,0-3.36,8.5,11.73,11.73,0,0,0,11.57,11.32h.08a11.93,11.93,0,0,0,11.84-11.95,11.74,11.74,0,0,0-11.8-11.57A11.93,11.93,0,0,0,251,262Z"/><path d="M223,493.85h.08a11.28,11.28,0,0,0,8.08-3.41,11.48,11.48,0,0,0,3.36-8.36,11.32,11.32,0,0,0-11.56-11.2,11.49,11.49,0,0,0,0,23Z"/><path d="M671.21,397c-2.49-97.17-62.44-181.36-152.72-214.49l-5.81-2.13,3.25,5.26A228.75,228.75,0,0,1,549.9,305c.43,126.65-98.1,227.52-224.32,229.65A228.25,228.25,0,0,1,239,519.51l-5.78-2.22,3.18,5.32c42,70.29,119.15,113.94,201.37,113.94h.1c64.17-.42,123.82-25.76,168-71.35C649.61,520,672.84,460.21,671.21,397Z"/><path d="M302.19,643.42h0c-3.72.12-5.9,3-7.55,5.72l-85,144.06c-2.61,4.48-2.4,8.25.63,11.22a7.93,7.93,0,0,0,5.59,2.39,8.22,8.22,0,0,0,1-.06,9.34,9.34,0,0,0,6.64-4.73l87-147.9a7.85,7.85,0,0,0-1-7.25A8.69,8.69,0,0,0,302.19,643.42Z"/><path d="M575.39,652.11A7.57,7.57,0,0,0,565.27,650h0a7.79,7.79,0,0,0-3.88,9.5L640.55,810c1.72,3.2,4.35,4.92,7.41,4.92a8.78,8.78,0,0,0,2.12-.26c3.74-.91,6-3.77,6.35-8.12a13.64,13.64,0,0,0-2-5.77Z"/><path d="M171.33,424c-.18-4.44-3.51-7.59-8.48-7.85L9.06,421.6c-5.43.27-9.24,3.89-9,8.61s3.94,7.9,9.67,7.92l153.84-5.73C168.3,432.08,171.51,428.63,171.33,424Z"/><path d="M477.06,676a7.61,7.61,0,0,0-7.34.59c-3.09,1.93-4.36,5.06-3.78,9.32l18.81,138.46c.74,4.63,3.95,7.57,8.13,7.57.31,0,.62,0,.95-.05,4.36-.45,7.22-4,7.27-9.26l-18.89-139A9.69,9.69,0,0,0,477.06,676Z"/><path d="M856.63,423.73l-139.25-2.66c-5.94,0-9.81,3.13-10,8.05a7.62,7.62,0,0,0,2.1,5.66,10.28,10.28,0,0,0,7.41,2.88l139,2.29a8.16,8.16,0,0,0,8.06-7.64C864.27,428,861.38,424.53,856.63,423.73Z"/><path d="M240.34,590a7.87,7.87,0,0,0-4-7h0a7.87,7.87,0,0,0-9.4.93L122.48,672c-4,3.43-4.66,8.37-1.67,12a7.7,7.7,0,0,0,6.06,3,10.63,10.63,0,0,0,6.44-2.46l103.06-87.26C238.33,595.59,240.34,593.43,240.34,590Z"/><path d="M286.68,186.39a7.46,7.46,0,0,0,6.06,3.06,9.25,9.25,0,0,0,3.12-.57,7.72,7.72,0,0,0,5.24-7.34c.13-2.78-1.18-4.82-2.33-6.62L228.4,62.08l-.12-.17a8,8,0,0,0-10.88-2.14c-3.53,2.21-4.69,6.6-2.7,10.93Z"/><path d="M582.51,186.16c5.13-.15,7.37-4.19,8.57-6.37C606,152.66,650.67,71.18,650.67,71.18l.2-.54a8.05,8.05,0,0,0-13.67-7.52L575.26,174.36a8.59,8.59,0,0,0,.5,8.14A8.06,8.06,0,0,0,582.51,186.16Z"/><path d="M801.57,559.94l-105-41.6-.5,0c-4,.32-6.55,2-7.83,5a7.83,7.83,0,0,0,1.79,8.81l.32.33L795.61,575.4h0a12,12,0,0,0,4.46.93,8.48,8.48,0,0,0,3.39-.68,7.81,7.81,0,0,0,4.19-4.51C809.46,566.54,807.07,562.15,801.57,559.94Z"/><path d="M75.78,307.5l102.7,33.78a11,11,0,0,0,2.91.41,8.67,8.67,0,0,0,5.17-1.63,7.93,7.93,0,0,0,3.17-6.26c.13-6.18-6-8.21-8-8.88L81,291.48c-5-1.56-9.56.45-11.07,4.9C68.4,301,70.69,305.49,75.78,307.5Z"/><path d="M651.12,601.22c-1.85-1.59-4-3.1-6.79-3.27h-.07a8.34,8.34,0,0,0-7.49,4.86,7.62,7.62,0,0,0,1.68,8.53c19.45,20.3,84,72.44,84.75,73.07a7.85,7.85,0,0,0,10.67-1.57c2.46-3,2.29-7.05-.66-10.49Z"/><path d="M382.15,144.29c1,4.1,4.14,6.69,7.93,6.69a9.45,9.45,0,0,0,1.48-.13c4.16-.72,6.89-4.39,6.76-9.53L377.44,41.1c-1.18-4.83-5.36-7.53-9.93-6.41-4.39,1.07-6.83,5.1-6.05,10.15Z"/><path d="M387.51,668.17c-4.49-1.07-8.49,1.44-10,6.48l-17.88,99.89c-.13,5.52,2.7,9.39,7.24,9.85.31,0,.62.05.92.05,4.18,0,7.36-3,8.24-7.87l17.49-98.73C394.27,673.08,391.85,669.19,387.51,668.17Z"/><path d="M194.46,517.45a8.09,8.09,0,0,0-2.75-6.32A8.24,8.24,0,0,0,185,509.2L95.83,544.75c-5.87,2.39-8.3,6.62-6.51,11.33a7.47,7.47,0,0,0,7.33,5,15.57,15.57,0,0,0,5.48-1.15l85.36-34.28C189.69,524.77,194.27,522.89,194.46,517.45Z"/><path d="M669.88,239.92a12.75,12.75,0,0,0,7.2-2.69c18.75-13,74.81-52.31,74.81-52.31,1.64-1.14,5.05-3.52,5.05-8a8.06,8.06,0,0,0-10.27-7.78l-79.22,54.7c-3,2.13-4.76,4.52-5.19,7.09a8,8,0,0,0,7.62,9Z"/><path d="M488.22,149.4a8.83,8.83,0,0,0,1.24.09c3.84,0,6.84-2.5,8-6.9l12.55-71a8,8,0,0,0-6.56-9c-4.09-.8-7.94,1.62-9.34,6l-12.8,71.23C481.15,145.13,483.79,148.82,488.22,149.4Z"/><path d="M216,253.93a8,8,0,0,0,4.73,1.62,8.1,8.1,0,0,0,4.3-1.28,7.83,7.83,0,0,0,3.89-7.11c-.06-4.09-2.85-6.24-5.35-8.17L168.7,196.9l-.43-.26c-3.83-1.71-7.46-.86-10,2.35h0a7.91,7.91,0,0,0,.15,10.24Z"/><path d="M707.59,320.77A7.71,7.71,0,0,0,709.8,328a8,8,0,0,0,5.81,2.45,12,12,0,0,0,4.08-.81l51.88-18.3c1.64-.57,6.6-2.31,7-8.3a7.89,7.89,0,0,0-3.23-6.59,8.93,8.93,0,0,0-8.24-1.06l-53.42,18.87A9.36,9.36,0,0,0,707.59,320.77Z"/><path d="M362.83,798.39a8.14,8.14,0,0,0-9.3,6.81h0c-1.49,8.34-2.84,16.71-4.2,25.08l-1.56,9.57c-.3,4.59,2.54,8.47,6.77,9.21a8.64,8.64,0,0,0,1.51.13,7.9,7.9,0,0,0,4.63-1.45,9,9,0,0,0,3.57-6q2.87-16.85,5.44-33.72A8.37,8.37,0,0,0,362.83,798.39Z"/><path d="M134.34,189.5h0a10.26,10.26,0,0,0,6.19,2.31,7.59,7.59,0,0,0,1.07-.08,7.68,7.68,0,0,0,5.17-3.13c2.9-3.89,1.92-8.66-2.49-12.18-6.24-5-12.52-9.89-18.81-14.81l-5-3.93a10.15,10.15,0,0,0-6.77-2.51l-.72.12a9.34,9.34,0,0,0-1.93.54A7.81,7.81,0,0,0,106.1,162a9.22,9.22,0,0,0,3.73,8.34C118.42,177.23,127,183.9,134.34,189.5Z"/><path d="M506.18,47h0a8.8,8.8,0,0,0,1.6.14c4,0,7.14-2.75,7.92-7.13,1.29-7.2,2.42-14.43,3.47-21.16l1.17-7.42C521.81,2.86,516.93.68,513.89.14a7.85,7.85,0,0,0-5.95,1.24,9.25,9.25,0,0,0-3.64,6.21c-1.71,9.76-3.29,19.72-4.71,29.57C498.87,42.12,501.58,46.15,506.18,47Z"/><path d="M803,300.26a10,10,0,0,0,3.56-.68c8.09-3.07,16.14-6.26,24.18-9.47,3.52-1.4,5.57-4.12,5.63-7.52a8.47,8.47,0,0,0-3.44-7,8.91,8.91,0,0,0-8.24-.88L800.2,284.5c-4.5,2.06-6.43,6.65-4.57,10.9A7.88,7.88,0,0,0,803,300.26Z"/><path d="M761.73,696.6l-5-4.42a9.38,9.38,0,0,0-6.95-2.51h-.07a7.69,7.69,0,0,0-6.79,5.19c-1.32,3.4-.42,6.75,2.52,9.43,6.29,5.75,12.6,11.47,19,17.1a9.29,9.29,0,0,0,6.1,2.49,8,8,0,0,0,6-2.84c3.22-3.66,2.78-8.5-1.11-12.06C771,704.82,766.34,700.71,761.73,696.6Z"/><path d="M60.52,560.59l-22.44,9.5c-3.94,1.83-5.81,5.57-4.76,9.54.71,2.69,2.68,6,8,6.26l.48,0,25.1-10.23A8.13,8.13,0,0,0,71.22,565C69.53,560.91,65.08,559,60.52,560.59Z"/></svg>