<svg id="Layer_1" data-name="Layer 1" xmlns="http://www.w3.org/2000/svg" viewBox="0 0 804.59 864"><title>Untitled-1</title><path d="M639.75,863.64c7.7-.79,21.86-5.72,32.28-8.66,4.72-1.34,10.07-3.29,6.88-6.69a23.09,23.09,0,0,0-5.33-4c-10.65-6.2-19.44-9.87-33.35-15.07,1-2.09,5.47-9.26,6.06-10.34,1.54-2.81,2.91-5.82,4.68-8.48,4.19-6.28,9.22-12.1,15.6-16.23,3.25-2.11,5.11-4,4.44-5.94s-6.52-1.84-10.22-1.59c-9.93.69-28.7,4.76-42.6,11.68-14.81,7.38-21.65,16.69-27.4,30.11,0,0-6.42,2.52-8.6,3.26-2.53.85-6.07,1.29-8.28-.55s-3.13-6-2.53-11.77c.15-1.46,1.09-6,1.84-9.64l.16-.78a418.28,418.28,0,0,0,128.26-80.18,10,10,0,0,0-11.51-16.1A359.65,359.65,0,0,1,588.85,750c-3.42-6.11-10.78-9.86-18.36-9.07-10,1-17.14,7.21-22.21,12.49q-1.26,1.32-2.49,2.67a366.58,366.58,0,0,1-54.25.35l-1.42-2.11c-4.76-7-10.68-15.79-13.85-18.93-6.08-6-13.83-9.19-23-9.42-12.08-.33-23.76,3.42-36,11.41-2.06,1.34-4.1,2.72-6.12,4.11A362.08,362.08,0,0,1,301.7,687c11.21-11.76,24.74-22.09,42.45-32.41,25.46-14.85,46.91-29.07,65.58-43.46,31.71-24.43,50.44-57.94,63.22-86.21A109.52,109.52,0,0,0,477.17,544c8.32,24.84,26.78,54.7,67.53,55.93,12.95.39,30,1.32,46.86,5a34.35,34.35,0,0,0,9.43.47,21.68,21.68,0,0,0,16.22-8.37,20.69,20.69,0,0,0,3.45-17.31c-.12-.52-.19-.9-.24-1.17l.65,0c17.79-.48,38.75-.24,59.14,5.13l3.22.85c16.42,4.33,33.4,8.8,50.23,12.75,18.8,4.41,34.29,2.74,47.37-5.08,12.85-7.67,21.28-19.51,23.16-32.48,1.81-12.55-2.53-24.93-12.55-35.8-6.84-7.42-15.35-12.39-22.79-16.46-11.87-6.5-20.39-13.6-26.8-22.36-7.27-9.92-16.39-16.61-27.11-19.88,8.58-11.67,13.66-25,18.59-38l1.65-4.34c4-10.5,9.12-20.77,14-30.71,2.63-5.32,5.26-10.64,7.76-16,4.41-9.51,5.19-18.21,2.3-25.86s-9.44-14-19.36-18.34a77,77,0,0,0-40.53-6c-1.3.15-2.62.31-3.45.34-.08-.77-.11-2-.15-3.55-.7-22.95-8.34-40.23-23.36-52.83-8.12-6.8-17.7-11.31-29.29-13.78-15.18-3.23-27.94-8.89-39-17.29A53.62,53.62,0,0,0,575.52,228c-15.65-1.17-29.39,5.19-40.74,18.83-.27.32-.49.57-.69.79-.13-.27-.27-.59-.43-1-3.2-7.54-6.8-15.5-11-24.32a63.41,63.41,0,0,0-16.23-21.58c-14.25-12-31.75-11-44.58,2.51A82.74,82.74,0,0,0,452.45,216c-4.2,6.6-7.28,13.75-10.27,20.65-1.87,4.35-3.82,8.84-6,13.08a308.39,308.39,0,0,0-25.45,66.47c-16-15.18-34.52-22.59-54.71-21.9-12.55-.34-30.52,1.06-42.24,16.79a42.25,42.25,0,0,1-21.73,15.64,108.3,108.3,0,0,0-18.67,8.31c-7.41,4.06-12.95,10.23-16.93,18.86-4.45,9.63-2.78,19.27-.56,27.42,5.33,19.55,5.42,35.05.3,50.23-5.51,16.32.33,32.45,16,44.26,17.17,12.92,37,18.83,60.54,18,12.9-.43,25.74-2.31,38.15-4.12,5.39-.79,10.78-1.57,16.19-2.25,3.53-.43,4.84.34,7.27,3.07,19.2,21.61,39.8,30.7,62.82,27.68a179.3,179.3,0,0,1-8.56,16.39l-2.08,3.7c-10.82,19.35-23.46,39.38-42.6,54.86a481.27,481.27,0,0,1-49.72,34.75c-4.05,2.51-8.14,5-12.22,7.41-12.67,7.58-25.78,15.43-37.56,25a144.89,144.89,0,0,0-16.86,15.7c-95-77.09-143.28-196.56-129.27-320.18C179.87,166,340,28.16,530.77,35.22a10,10,0,0,0,3-19.56A421.23,421.23,0,0,0,469.32,3C356.18-10.28,245.66,20.66,158.2,90.13,70.54,159.76,15.3,260.24,2.67,373.06c-12.5,111.62,19.18,221.17,89.2,308.47a416,416,0,0,0,131,108.38c4.68,46,23.27,66.42,58.5,64.3,20.85-1.24,39.27-9.05,56.25-23.86,11.72,2.3,23.47,4.11,34.94,5.39a418.17,418.17,0,0,0,100.73-.81c.08.18.17.35.26.53,2.64,5,7.2,7.63,14,7.87a31,31,0,0,0,17.89-7.56,78.65,78.65,0,0,0,7.82-8c13.19-3,26.38-6.76,39.26-11.07l-.5,3.23c-.83,18,6.34,29.85,20.19,33.35,8.54,2.17,16.5-.24,23.38-3.42,1.42,3,11.2,8.6,12.22,9.11C616.88,863.51,629.59,864.69,639.75,863.64ZM273.17,435.9c6.65-18.07,6.63-36.45-.08-57.83a40.78,40.78,0,0,1-1.38-9.73c-.41-7.16,2.45-12.68,8.76-16.87,5.33-3.53,11.19-5.77,17.4-8.14l4.35-1.68c10.68-4.21,18-9.62,23-17,5.28-7.83,13-11.86,24.24-12.69q3.09-.22,6-.22c17.75,0,32.38,6.12,44.58,18.61,3.6,3.69,5.86,7.06,5.22,11.53-3.6,25.24,2.1,50.83,17.42,78.23,8.75,15.64,18.82,32,33.22,45.61-4.14.3-8.28.51-12.43.71l-4.62.24c-29.53.15-58.91,3.88-86.26,7.88-18.88,2.77-39,4-58-5.53a61.44,61.44,0,0,1-12.32-7.67C272.93,453.42,269.87,444.87,273.17,435.9ZM451,259.63c2.31-4.5,4.31-9.17,6.24-13.69a151.34,151.34,0,0,1,8.65-18c2.95-4.93,5.45-9,8.7-12.65,5.35-6,12.52-6.81,19.18-2a29.18,29.18,0,0,1,9.26,10.14c11.39,22.3,21.49,42.51,29.7,64.09,4.74,12.46,5.5,25.65,5.61,36.74a280.92,280.92,0,0,1-19.94,91.92,19.36,19.36,0,0,1-5,6.92C502,433.92,489,446.18,484.12,464.36l-.64-.31c-7.76-3.84-14.81-9.59-21.55-17.56-16.76-19.83-28.41-40.09-35.6-61.94a91.73,91.73,0,0,1-2.59-47h0A295.37,295.37,0,0,1,451,259.63Zm220.85,69.82c-27.82,3.64-55.24,15-86.28,35.7L580,368.9c-12,7.94-24.29,16.12-35.51,25.7,4.95-18,9.54-37.34,10.95-57.47,1.85-26.37-1.88-49.1-11.41-69.48-.81-1.72-.73-2.67.35-4.41,7.19-11.58,16.8-17.52,27.66-17.52,6.06,0,12.5,1.84,19.12,5.57a80.53,80.53,0,0,1,9.6,6.33c8.34,6.46,18,10.82,30.55,13.72,10.89,2.54,22.17,5.16,31.15,13.25,9.58,8.62,14.4,19.85,15.61,36.44C678.54,328.58,678.53,328.58,671.89,329.45ZM727,345.91c.23,0,.47.09.69.16,8.25,2.56,13.08,5.82,14.77,10s.56,9.52-3.33,16.73C728.4,392.63,719.8,414.07,712.21,433c-17.55,43.73-54.85,69-102.34,69.23-1.13,0-2.25.09-3.37.17l-1.14.09c-14.15-.52-28.45-2.57-42.29-4.55l-2.19-.31c-4.12-.59-8.26-1.09-12.39-1.6-11.17-1.36-22.71-2.77-33.66-5.89-7.15-2-11.38-4.67-13.31-8.28s-1.78-8.65.51-15.79c3.1-9.64,10.32-17,16.69-23.56A436.9,436.9,0,0,1,619.82,365c20.08-11.1,43-17.48,74.3-20.68,10.75-1.11,21.27-1.83,31.65,1.29C726.18,345.74,726.59,345.82,727,345.91Zm-290.46,138,4.45,0c3.63,0,7.26.06,10.88-.09,2.13-.09,2.14,0,2.42,1a39.13,39.13,0,0,0,7.25,14.95,38.89,38.89,0,0,1-18.35.85,58.9,58.9,0,0,1-30-15.53C420.61,484.39,428.26,484,436.54,483.9Zm52.56,27.79a19,19,0,0,1,1.07,1.91c.29.57.6,1.16,1,1.85,19.16,32.92,48.42,54.2,87,63.23,5.89,1.38,11.79,1.38,17.47,1.34h1.72a7.08,7.08,0,0,1,5.15,1.77,4,4,0,0,1,1.09,3,2.56,2.56,0,0,1-.79,2c-.6.54-2.19,1.43-6,1.23q-1.69-.27-3.6-.54a90.27,90.27,0,0,1-9.42-1.7c-9.63-2.44-19.43-2.72-28.91-3-4.18-.12-8.36-.24-12.52-.54-19.37-1.41-33.39-11.87-44.12-32.9-5.25-10.3-6.85-21.42-8.55-33.19l-1.05-4.26A3.33,3.33,0,0,0,489.1,511.69Zm18.25-3.26a12.41,12.41,0,0,1-1.16-2.15c0-.09-.08-.19-.12-.31l.51.18c11.27,3.72,23,5.17,34.33,6.58,2.88.36,5.76.72,8.63,1.11,4.25.58,8.49,1.22,12.73,1.86,14.67,2.2,29.8,4.42,45.09,4.34,32.85-.31,61.3-9.91,84.57-28.54a82.06,82.06,0,0,0,7.53-7.06c4-4.12,5.25-3.76,9.94-2.43,6.59,1.85,11.57,5.06,14.81,9.52,10.22,14.05,23.88,25.25,44.31,36.32a36.87,36.87,0,0,1,14.56,13.8c4.22,7.16,5,14.23,2.25,21-3.67,9.16-12.86,15.4-20.34,17.52a45.08,45.08,0,0,1-12,1.6c-8.81.23-16.67-1.76-24.3-3.68l-2-.51c-7-1.75-14-3.61-21.07-5.46-8.6-2.27-17.21-4.53-25.85-6.63-13.27-3.22-27.68-4.78-44.55-4.78-4.81,0-9.82.12-15.06.38-3.38.16-6.77.44-10.16.72-11,.89-21.43,1.75-31.81-1.17C547.93,552.16,524.12,534.59,507.35,508.43ZM315,825.31c-10.88,7-23.25,10.75-37.63,11.49-12.05.64-21.3-3.8-28.13-13.52-3.49-5-6.32-14.95-8-24.21A418.69,418.69,0,0,0,315,825.31Zm217.58-23.26.85-1.18c6.05-8.44,12.3-17.16,18.9-25.38a379.61,379.61,0,0,0,72.16-13.91A397.93,397.93,0,0,1,532.58,802.05Zm-6.05-21.55q-2.58,3.53-5.18,7c-2.26,3-4.46,6.12-6.66,9.2-3,4.13-5.91,8.27-9,12.29a395.34,395.34,0,0,1-130.94,6.92c-6.26-.7-12.76-1.59-19.39-2.66l5.41-5.4c14.81-14.8,30.12-30.09,47.37-42.64l3.9-2.85a396.7,396.7,0,0,0,61.89,12.43,386.63,386.63,0,0,0,55.22,2.1Q527.83,778.71,526.53,780.5ZM218.18,632.94a379.54,379.54,0,0,0,173.4,123,430.77,430.77,0,0,0-35.27,31.45l-7.06,7c-5,5-10,10-15.17,14.92-90.28-19.43-168.62-67.9-226.66-140.25C40.74,585.92,10.57,481.59,22.48,375.28,34.52,267.76,87.12,172,170.6,105.74c70.67-56.13,156.26-85.8,247.51-85.8,10.23,0,20.58.39,30.92,1.15A380.17,380.17,0,0,0,270.63,105c-74.1,62.56-121,150.86-132.1,248.66C127.1,454.62,155.39,553.81,218.18,632.94ZM468.45,753.69l.24.35c-11.3-1.57-22.56-3.66-33.65-6.23a54.1,54.1,0,0,1,8.65-3.08C455.49,741.63,461.52,743.82,468.45,753.69Z"/></svg>