<svg id="Layer_1" data-name="Layer 1" xmlns="http://www.w3.org/2000/svg" viewBox="0 0 864 825.46"><title>Untitled-8</title><path d="M818.92,740.27a8.17,8.17,0,0,0-10.16-3.76A359.8,359.8,0,0,1,623.57,757c-35.1-5.42-64.08-14.78-88.6-28.64a283.52,283.52,0,0,1-36.05-24.42c-19.09-15.1-34.67-30.21-47.63-46.18s-24.57-34.56-36.81-58.83c-8.57-17-15.11-31.32-14.81-47.83.09-5,.37-10,.86-15.29,19.54,8.84,40.45.57,54.86-6.69,4.62-2.32,9.15-4.74,13.64-7.14,13.81-7.36,26.85-14.31,41.86-18.52,19.73-5.52,35-14.92,46.8-28.76,16.17-19,22.25-43.59,28.13-67.36.77-3.12,1.54-6.23,2.33-9.3,1.51-5.88.3-9.88-3.6-11.9-3.39-1.74-7.75-.47-11.4,3.24-9.4,9.46-21.19,15.39-36,18.15-11.35,2.1-23.08,1.62-34.45,1.16-6.36-.26-12.93-.51-19.47-.35l-1,0c-.95,0-2.34.07-3.33,0a30.11,30.11,0,0,1,1.14-4.71c1.82-5.94,4.27-13.75,7-21.43.34-.95.94-2.19,1.62-3.59,3-6.17,7-14.62,1.61-19.29a7.37,7.37,0,0,0-8.43-1.17l-1.12.57c-8.61,4.47-17.53,9.08-27.17,9.84-15.15,1.18-27.27,3.56-38.5,7.63a156.92,156.92,0,0,1,3.86-19.58c6.64-25.16,4.7-48.58-5.93-71.61-1.8-3.92-4.2-8.07-8.28-9.18s-8.15,1.18-12,3.81C364.77,299,346.28,335,345.61,371.31c-.21,11.48-4.44,22.95-8.53,34-1.77,4.79-3.59,9.74-5.08,14.64a143.26,143.26,0,0,0-6.55,44.54c-8.53-48.37-7.06-97.26,5.3-147.34C376.23,133,551.53,17.68,738.48,49.05A8.17,8.17,0,0,0,743,33.48,414.84,414.84,0,0,0,681.65,13C572.86-14.36,461.1,1.83,366.93,58.53a408.14,408.14,0,0,0-110.64,97.53,19.66,19.66,0,0,0-.4-4c-.51-2.31-1.69-7.71-7.51-8.36-6-.66-8.09,4.59-8.95,6.84-3.59,9.19-10.88,14.49-18.6,20.1a97.11,97.11,0,0,0-12.72,10.4c-5.56-11.64-12.55-22.58-19.31-33.17-5.39-8.44-11-17.17-15.71-26.1-9.58-18-17.52-34.53-17.66-53.37a7.47,7.47,0,0,0-6.16-7.52c-3.56-.75-6.67.78-8.55,4.22a22.15,22.15,0,0,0-1.29,3.06,449.41,449.41,0,0,0-21.12,77.32l-.54,2.93c-4.56,24.77-9.27,50.37-7.13,75.19-7-2.63-14.27-3.91-21.32-5.16l-3.6-.64c-8.19-1.48-16.79-3.51-24.19-8.31-2.18-1.42-7.28-4.73-11.78.21-2.92,3.21-2.72,7.05.58,11.43,4.33,5.65,6.18,12.54,7.54,19.13l1,5c2,10,4,20.39,9,29.94-4.93.89-9.82,1.89-14.72,2.89-8.44,1.72-17.16,3.51-25.81,4.65a70.83,70.83,0,0,1-10.66.33c-3-.06-5.92-.11-8.88.11C3.59,283.55.71,286,.1,289.8c-.57,3.59,1.24,6.7,4.81,8.31,11.63,5.31,19.92,14.64,28.07,24.54,14,17,31.31,27.87,51.48,32.21,13.44,2.89,26.79,1,39.69-.92,13.06-1.9,25.4-3.68,37.8-.9a54.31,54.31,0,0,0,9.62,1.35,410.69,410.69,0,0,0-2.85,95.12c-15.6,4.05-29.17,13.4-42.63,29.37-25.57,30.32-31.32,76.78-15.4,124.3,1.79,5.35,4.79,7.16,7,7.74s5.86.46,10.23-3.5a52.68,52.68,0,0,0,7.6-9c6.44-9.26,10.27-19.8,14-30,1.67-4.62,3.41-9.4,5.34-13.92,6.13-14.28,14.48-23.38,27.59-29.83a412.75,412.75,0,0,0,44.82,102.69,418,418,0,0,0,44.7,60.44c-1.27.49-2.8,1.1-4.64,1.84-3.46,1.38-6.81,2.73-7.57,3-18.09,5.58-37,7.92-51.41,9.33-2.27.21-8.3.77-9.34,7.16-1,6.18,4,8.4,7,9.8,3.93,1.79,7.39,3.52,10.57,5.28,32,17.74,72.91,35.92,105.23,18.81a60.15,60.15,0,0,1,6.34-2.92,412.94,412.94,0,0,0,488.27,10.74A8.17,8.17,0,0,0,818.92,740.27ZM562.56,433.65a85.31,85.31,0,0,1-28.34,42c-8.6,7-18.82,10.29-30.32,13.56a160.08,160.08,0,0,0-43.52,19.95,82.9,82.9,0,0,1-42.59,13.66l-1.38,0h-1.22c13.27-12.78,29.41-24.06,49.27-34.46,10.07-5.28,20.76-9.74,31.09-14.07,9-3.77,18.34-7.67,27.3-12.11C539,454.13,552,444.76,562.56,433.65Zm-25.53,2c-7.41,5.39-15.67,9.68-24.14,13.89-6.69,3.31-13.76,6.2-20.59,9-5.55,2.26-11.08,4.53-16.51,7-20.83,9.61-42.49,20.71-61.34,36.81a101.32,101.32,0,0,1,30.9-36.69c17.32-12.89,37.75-17.85,57.2-21.83l3-.62C515.91,441.15,526.52,439,537,435.66Zm-57.75-11.73c3.45-.2,6.93-.28,10.41-.28,7.49,0,15,.38,22.35.75l1.56.08c1.43.07,2.81.12,4.16.15-2.22.51-4.44,1-6.63,1.49l-4.87,1.08c-3.39.77-6.79,1.48-10.19,2.2-11.93,2.49-24.26,5.07-35.85,10.13-16.61,7.27-30,16.57-40.8,28.39a59.85,59.85,0,0,0,.38-9.94c-.23-4.56,1.43-8.44,5.24-12.21C438.58,432.42,456.32,425.28,479.28,423.93Zm-65.44-28c4.75-5.14,11.2-7.3,17.48-8.88a112.18,112.18,0,0,1,22.74-2.89,61.79,61.79,0,0,0,16.28-3.09l-1.91,6.19q-2.56,8.39-5.18,16.74c-1.39,4.39-4.12,6.89-8.84,8.11a87.84,87.84,0,0,0-36.86,19.17c-.5-2.89-1-5.78-1.59-8.68a210,210,0,0,1-3.56-23.93C412.34,398.44,412.19,397.72,413.84,395.94ZM381,505.15l.28-1.39c3.57-19.27,7-39.82,6-60.58-.69-14.82-1.88-29.8-3-44.33-2.63-33,2.84-63.9,16.27-91.74.63-1.31,1.27-2.65,1.89-4,.2-.46.4-.88.58-1.28a1.55,1.55,0,0,0,0,.15l.47,1.51a90,90,0,0,1,3.9,25.78c.37,10.2-2.39,20-5.44,29.11-6.49,19.41-7,40.36-1.62,65.9,2.55,12.07,4.95,26.35,3.45,40.67-1.72,16.33-7.8,28.77-18.61,38l0,0a13.48,13.48,0,0,1-2.16,1.62c-.85.47-1.55.83-2.13,1.1C380.94,505.51,381,505.32,381,505.15Zm-34.49-80.33c1.52-4.71,3.28-9.33,5.05-13.95,3.3-8.68,6.72-17.65,8.52-27.13a86.21,86.21,0,0,0,1.13-13.34,91.83,91.83,0,0,1,.74-10.78A100.2,100.2,0,0,1,380.16,315c-7.28,19.15-11.27,39.72-12.14,62.44-.5,12.29.68,24.57,1.83,36.45l.55,5.84c2.49,27,1.44,51.57-3.21,75.07-.52,2.6-1.07,5.19-1.73,7.94-.15.62-.31,1.26-.45,1.82l-1.81-.88C352,498.14,345.37,488.73,342.3,474a76.41,76.41,0,0,1-1.44-18.45A109.85,109.85,0,0,1,346.52,424.82Zm15.68,95.49c1.24.48,2.41.87,3.53,1.19,1.8,6.86,3.94,13.72,6.35,20.44,8.41,23.5,19.65,46.08,30.57,68.06A308.05,308.05,0,0,0,449,678.61c-59.83-49.37-99.69-112.88-117.55-186.55C337.13,507.12,346.67,514.27,362.2,520.31Zm-5,75.52a374.82,374.82,0,0,0,93.36,104.4,388.27,388.27,0,0,1-47.07-32.48,624.59,624.59,0,0,1-76.29-72.82C287.67,550,256,498.05,233.09,440.54c-10.23-25.63-19.37-53.81-27.89-86.05,13.44-.95,27.61-6.61,39.37-11.31a215.83,215.83,0,0,0,38.8-20.29c17.1-11.28,31-25.84,39.89-42.06-3.63,10.53-6.85,21.26-9.55,32.19C289.75,410.08,306,510.67,357.22,595.83Zm-22.74,38.11a7.37,7.37,0,0,1-3.62,4.56,31.9,31.9,0,0,1-16.62,4.55h-.13c-8.29-.15-16.62-2.69-25.71-8.6l-1-.68-.69-.44,1.91-.7c3.95-1.49,7.76-3.31,11.45-5.07a118.38,118.38,0,0,1,13.11-5.63c7.36-2.47,15.93.16,19.91,6.1A7.64,7.64,0,0,1,334.48,633.94ZM221.9,454.24A84.51,84.51,0,0,0,188.34,447c-1.15,0-2.29,0-3.44.08A393.79,393.79,0,0,1,188.31,353h.31c3,11.48,6.53,22.91,10,34,1.41,4.54,2.83,9.09,4.21,13.64C208.32,418.94,214.74,436.94,221.9,454.24Zm63.81-152.49A70.35,70.35,0,0,0,293,281.17a80,80,0,0,1,4.67-16.46c.54-1.25.86-1.48,1.77-1.48h.3a56.53,56.53,0,0,0,13.94-.81,48.07,48.07,0,0,1-2.1,5.16C304.83,281.43,296.3,292.69,285.71,301.75ZM375.36,72.54A392.45,392.45,0,0,1,577.85,16.32a409.54,409.54,0,0,1,95.39,11.39A376,376,0,0,0,332.15,257.62c.17-.77.44-1.52.59-2.29.33-1.78,2.24-8.07-1.79-11.24s-9.34-1.43-11.94-.24l-1.62.72a52.67,52.67,0,0,1-8.19,3.05l.3-.44c9.14-13.21,13.8-25.11,14.67-37.44.17-2.27.3-4.35.43-6.39.33-5.43.65-10.55,1.6-18.47.17-1.81.61-6.61-3.34-8.68-1.95-1-5.27-1.5-10,2.14-11.15,8.71-24.1,12.93-37.8,17.4-3.23,1-6.45,2.1-9.66,3.21l-.08,0a63.7,63.7,0,0,0-3.23-11.54c-.12-.33-.48-1.12-.95-2.12-.55-1.17-1.87-4-2.37-5.45A390.91,390.91,0,0,1,375.36,72.54ZM265.55,215.27c3.15-1.05,6.33-2,9.5-3,11.29-3.55,22.95-7.21,34-13-.36,10.76-1.25,22.55-8.23,32.39h0c-1.86,2.65-3.64,5.34-5.42,8s-3.52,5.34-5.36,7.94a68,68,0,0,0-11.37,26.72c-5,25.89-20.48,44.45-47.27,56.72a87.33,87.33,0,0,1-26.84,7.46c-2.12.25-2.4.15-2.64-.15a6.84,6.84,0,0,1,.91-1.49l.57-.82c11.16-17.17,18.15-34.38,21.36-52.61a183.79,183.79,0,0,0,2.58-29.76c.38-12.31,2.71-14.46,9.64-20.84C246.39,224.18,255.47,218.6,265.55,215.27Zm-49.31-20.59a70.08,70.08,0,0,1,9.59-7.93,145.28,145.28,0,0,0,15.72-12.07c.15.82.33,1.65.52,2.47a102.32,102.32,0,0,0,4,12.51l.5,1.32c.89,2.39,1.79,4.78,2.61,7.2.5,1.48.87,3,1.25,4.55l.36,1.45-.66.35a100.66,100.66,0,0,0-24.86,18q-.7.66-1.38,1.35-.71-3.07-1.46-6.13a130.6,130.6,0,0,0-7-21.44C215.24,195.85,215.19,195.73,216.24,194.68Zm-87-21.41c4.4-29.44,9.59-53.13,16.25-74.22,6.57,18.86,16.76,36,26.7,52.08l5.08,8.14c8.67,13.83,17.64,28.14,23.84,43.5a144.09,144.09,0,0,1,8.59,29.11,117.2,117.2,0,0,1,1.9,19.16c0,1.15,0,2.34,0,3.55-.13,20.91-3.9,39-11.53,55.4A132.36,132.36,0,0,1,191.78,325a90.5,90.5,0,0,0-7.88-8.88c-4.76-4.73-10-9.08-15-13.28-2.24-1.88-4.49-3.75-6.71-5.67-21-18.14-32.64-41-35.61-70C124.69,208.49,126.76,190.22,129.27,173.27ZM86.45,233.82c7.55,1.4,14.68,2.72,21.59,5.34,4.07,1.54,5.41,3.08,6,6.87,1.5,10.08,5.73,19.18,10.42,28.36a115.55,115.55,0,0,0-23.69-2.66c-.88,0-1.76,0-2.62,0l-1.17,0a76.43,76.43,0,0,0-10.8.79c-1.47.25-1.94.14-2.93-1.59-3.93-6.81-6-14.49-7.67-21.78C75,246.64,74.47,244,74,241.43c-.65-3.53-1.31-7.15-2.31-10.74C76.61,232,81.6,232.92,86.45,233.82Zm74.67,103.3c-2.89-.5-5.78-1-8.69-1.28-8.57-.82-16.79.64-24.75,2.09l-1,.18c-13.43,2.41-29,4.62-44,.31-14.25-4.12-26.85-12.63-37.44-25.31-4.19-5-8.67-10.25-13.67-15.17,9.11-1.33,18.18-3.13,27-4.89,8.37-1.66,17-3.39,25.56-4.67,16.06-2.4,32.84-.75,51.32,5.08a4.55,4.55,0,0,1,2.21,1.12c6.5,8,14.36,14.62,22,21,3.45,2.89,6.89,5.77,10.22,8.8a84.17,84.17,0,0,1,7,7.15A72.24,72.24,0,0,1,182,338a42.92,42.92,0,0,1-5.35.61,24.31,24.31,0,0,1-2.83,0h-.28A72.61,72.61,0,0,1,161.12,337.12ZM183.69,507c-.73.29-1.43.61-2.13.94l-.78.36c-.92.43-1.82.84-2.73,1.19-20.34,7.59-33.77,23.05-41,47.27C134,567,129.9,578.68,122.79,589.4c-3.53-12.78-5.81-24.64-5.61-40.13-.08-13.33,2.38-33.15,14.55-51.86,11.12-17.09,24.12-27.69,39.75-32.42.79-.25,1.59-.46,2.38-.66a58.22,58.22,0,0,1,9.42-1.64c1.78-.17,3.56-.25,5.34-.25,11.13,0,22.42,3.17,34.32,9.62.2.11.35.21.47.29-.17.41-.44,1-.55,1.18-6.53,13.14-17,22.87-32.78,30.61C188,505.15,185.86,506.11,183.69,507Zm57.49,111.85a396.22,396.22,0,0,1-43.72-101.12,133.74,133.74,0,0,0,12.1-6.73c10.22-6.41,18.6-15.46,25.47-27.52,5.85,12.09,12.2,24.08,18.92,35.73a549.14,549.14,0,0,0,61.42,85.94,56,56,0,0,0-8.09,2.31c-4.54,1.63-8.91,3.61-13.14,5.53-8.09,3.67-15.73,7.13-24.38,8.26-2.49.32-7.67,1-9.06,6.48-1.43,5.71,2.93,8.92,5,10.46,17.79,13.1,39.1,25.53,62.56,18.3a40.51,40.51,0,0,0,14-7.08,22,22,0,0,0,6.32-9.25c7.15,6.9,14.7,13.78,22.83,20.83-5-.49-10.56-.81-17-1a117.1,117.1,0,0,0-36.67,4.85c-11.47,3.46-21.23,9.06-30.89,15.12A399.54,399.54,0,0,1,241.18,618.88ZM267,706.78A108.32,108.32,0,0,0,285.5,699a87,87,0,0,0,9.06-5.6l1.25-.89c14.09-10.32,31.26-15.92,52.51-17.12a133.63,133.63,0,0,1,31.26,2c-9.53,1.45-19.4,4.61-30.28,9.64l-7.28,3.4c-10.74,5.05-21.84,10.26-33.25,14-3.39,1.1-6.68,2-10,2.82l-1.09.27c-14.66,3.43-26.05,4.71-37,4.12-3.26-.12-6.72-.25-10.24-.5C256,709.88,261.51,708.52,267,706.78Zm52,20.15c-1.63.74-3.26,1.55-4.86,2.45-6.24,3.51-13.64,5-22.59,4.33a123.8,123.8,0,0,1-32.69-7.1h2.1a139.6,139.6,0,0,0,46.48-5.53c3.68-1,7.51-2.23,11.4-3.61,4.84-1.71,9.75-3.66,15-5.94,4.19-1.83,8.31-3.81,12.43-5.79,5.61-2.7,11.42-5.49,17.28-7.81,10.46-4.17,22.29-6.29,36.09-6-10.44,16.38-25.22,25.49-43.94,27.07-7.66.67-16.55,1.57-25.07,3.84A70.68,70.68,0,0,0,318.92,726.93Zm166.59,70.69a395.32,395.32,0,0,1-136.4-62.35c1.5-.16,3.07-.29,4.72-.41,26.45-1.82,46.76-14.24,60.34-36.9.41-.66.83-1.38,1.25-2.14a413.49,413.49,0,0,0,132,62.13c10.2,2.72,23.47,5.31,34.13,7.4l3.89.77c32.4,6.37,61.92,11.77,96,11.36a373,373,0,0,0,62.43-5.75c2.18-.39,4.37-.8,6.55-1.23A393.35,393.35,0,0,1,485.51,797.62Z"/><path d="M669,295.06h0c-2.31.63-2.31,4.54,0,5.18h0c28.44,7.89,50.65,34.28,57.3,68.08h0c.54,2.74,3.82,2.74,4.36,0h0c6.64-33.8,28.85-60.19,57.3-68.08h0c2.3-.64,2.3-4.55,0-5.18h0c-28.45-7.89-50.66-34.28-57.3-68.08h0c-.54-2.74-3.82-2.74-4.36,0h0C719.63,260.78,697.42,287.17,669,295.06Z"/><path d="M772.07,423.67h0c-1.76.49-1.76,3.47,0,3.95h0c21.67,6,38.59,26.12,43.65,51.86h0a1.66,1.66,0,0,0,3.32,0h0c5.06-25.74,22-45.84,43.64-51.86h0c1.76-.48,1.76-3.46,0-3.95h0c-21.66-6-38.58-26.11-43.64-51.85h0a1.66,1.66,0,0,0-3.32,0h0C810.66,397.56,793.74,417.66,772.07,423.67Z"/></svg>