<svg id="Layer_1" data-name="Layer 1" xmlns="http://www.w3.org/2000/svg" viewBox="0 0 514.88 864"><defs><style>.cls-1{fill:#a16e58;}.cls-2{fill:#f8efe3;}</style></defs><title>Untitled-32</title><path class="cls-1" d="M483.49,259.31V604.73c0,124.83-101.2,226-226,226A226,226,0,0,1,54.25,703.84c-1.25-2.55-2.46-5.1-3.6-7.73a225.11,225.11,0,0,1-19.26-91.38V259.31c0-124.87,101.2-226.07,226.07-226.07a226.06,226.06,0,0,1,226,226.07Z"/><path class="cls-1" d="M439.5,72.87C390.86,25.88,326.23,0,257.46,0S124,25.88,75.42,72.87,0,182.31,0,248.75V615.28c0,66.45,26.79,128.9,75.42,175.89S188.69,864,257.46,864s133.4-25.85,182-72.83,75.38-109.44,75.38-175.89V248.75C514.88,182.31,488.13,119.86,439.5,72.87Zm64.7,542.41c0,65.74-27.67,125.33-72.37,168.49s-106.34,69.91-174.37,69.91c-136.06,0-246.74-106.95-246.74-238.4V248.75c0-131.45,110.68-238.4,246.74-238.4s246.74,107,246.74,238.4Z"/><path class="cls-2" d="M270.69,222.75a4.15,4.15,0,0,0,4.14-4.14v-99a4.14,4.14,0,0,0-8.28,0v99A4.14,4.14,0,0,0,270.69,222.75Z"/><path class="cls-2" d="M213.19,235.12a4.14,4.14,0,0,0,3.59,2.07,4.07,4.07,0,0,0,2.07-.55,4.15,4.15,0,0,0,1.51-5.66l-49.51-85.76a4.15,4.15,0,0,0-5.66-1.52h0a4.15,4.15,0,0,0-1.52,5.66Z"/><path class="cls-2" d="M89.48,226.59l85.76,49.51a4.12,4.12,0,0,0,2.06.56,4.32,4.32,0,0,0,1.08-.14,4.14,4.14,0,0,0,2.93-5.08,4.06,4.06,0,0,0-1.93-2.51L93.62,219.41a4.14,4.14,0,1,0-4.14,7.18Z"/><path class="cls-2" d="M63.83,330.57h99a4.15,4.15,0,0,0,0-8.29h-99a4.15,4.15,0,0,0,0,8.29Z"/><path class="cls-2" d="M175.24,376.75,89.47,426.27A4.15,4.15,0,0,0,88,431.92a4.08,4.08,0,0,0,2.52,1.93,3.89,3.89,0,0,0,1.07.15,4.13,4.13,0,0,0,2.07-.56l85.76-49.52a4.14,4.14,0,1,0-4.14-7.17Z"/><path class="cls-2" d="M218.85,416.22a4.14,4.14,0,0,0-5.66,1.51L163.67,503.5a4.15,4.15,0,0,0,3.58,6.21,4.14,4.14,0,0,0,3.6-2.07l49.51-85.77a4.12,4.12,0,0,0-1.51-5.65Z"/><path class="cls-2" d="M274.83,533.28v-99a4.14,4.14,0,0,0-8.28,0v99a4.14,4.14,0,0,0,8.28,0Z"/><path class="cls-2" d="M374.12,509.71a4.07,4.07,0,0,0,2.06-.56,4.11,4.11,0,0,0,1.52-5.65l-49.51-85.77a4.14,4.14,0,0,0-5.66-1.51,4.14,4.14,0,0,0-1.52,5.65l49.52,85.77A4.13,4.13,0,0,0,374.12,509.71Z"/><path class="cls-2" d="M320.23,233.13a4,4,0,0,0,1.88.47,4.65,4.65,0,0,0,4-2.72l41.66-80.3a8.25,8.25,0,0,0,1.12-3.49,4.08,4.08,0,0,0-2.63-3.73,3.92,3.92,0,0,0-4.81,1.49L318.6,227a5,5,0,0,0-.47,3.51A4.07,4.07,0,0,0,320.23,233.13Z"/><path class="cls-2" d="M233.24,162.66l13.56,56.72h0a4.64,4.64,0,0,0,4.29,4.06,4.06,4.06,0,0,0,4-3.09,5.49,5.49,0,0,0-.17-3.24l-13.71-57.5a4.3,4.3,0,0,0-5.16-3.38c-2.29.57-3.52,2.69-3.07,5.29C233.07,161.91,233.15,162.28,233.24,162.66Z"/><path class="cls-2" d="M156.37,203.33l40.11,42.34a5.23,5.23,0,0,0,3.68,1.89,4.53,4.53,0,0,0,2.06-.53,4,4,0,0,0,1.94-4.68,5.46,5.46,0,0,0-1.75-2.72l-40.64-42.95c-1.86-1.84-4.45-2-6.15-.34s-1.7,4.09,0,6.12C155.85,202.75,156.1,203.05,156.37,203.33Z"/><path class="cls-2" d="M168.08,293.94a4.07,4.07,0,0,0,3.57-2l0-.06a4.08,4.08,0,0,0-.66-5,5.52,5.52,0,0,0-2.89-1.47l-56.66-16.88a4.29,4.29,0,0,0-5.5,2.78c-.65,2.26.57,4.4,3.05,5.31.36.13.73.26,1.1.37L166,293.59A7,7,0,0,0,168.08,293.94Z"/><path class="cls-2" d="M164.61,342a5.46,5.46,0,0,0-3.23.16l-57.52,13.72a4.29,4.29,0,0,0-3.37,5.15,4.14,4.14,0,0,0,4.25,3.17,6.27,6.27,0,0,0,1-.09c.38-.07.76-.14,1.14-.23l56.72-13.57A4.64,4.64,0,0,0,167.7,346,4.06,4.06,0,0,0,164.61,342Z"/><path class="cls-2" d="M186.61,393a5.5,5.5,0,0,0-2.72,1.76l-42.95,40.63a4.3,4.3,0,0,0-.34,6.16,4,4,0,0,0,2.92,1.27,5,5,0,0,0,3.2-1.26h0c.29-.25.59-.5.87-.76l42.34-40.11a4.63,4.63,0,0,0,1.36-5.74A4.05,4.05,0,0,0,186.61,393Z"/><path class="cls-2" d="M215.56,491.13a4.63,4.63,0,0,0,1.2.17,4.46,4.46,0,0,0,4.11-3.23c.13-.36.26-.72.37-1.09l16.61-55.9a4.64,4.64,0,0,0-1.68-5.66,4.07,4.07,0,0,0-5,.66,5.46,5.46,0,0,0-1.47,2.88l-16.88,56.66A4.3,4.3,0,0,0,215.56,491.13Z"/><path class="cls-2" d="M294.57,433.47a4.63,4.63,0,0,0-4.28-4.05,4.06,4.06,0,0,0-4,3.09,5.54,5.54,0,0,0,.16,3.23l13.72,57.51a4.39,4.39,0,0,0,4.15,3.5,4.49,4.49,0,0,0,1-.12c2.28-.57,3.52-2.7,3.07-5.3-.07-.38-.14-.76-.23-1.14l-13.57-56.71Z"/><path class="cls-2" d="M287.06,220.79a4.08,4.08,0,0,0,.69.05,3.92,3.92,0,0,0,2.38-.77,5.44,5.44,0,0,0,1.91-3.73l3.08-22.17c.12-2.53-1.3-4.45-3.53-4.79s-4.13,1-4.8,3.62l-3.18,22.06a6,6,0,0,0,.54,3.77A3.87,3.87,0,0,0,287.06,220.79Z"/><path class="cls-2" d="M302.75,224.84a4.43,4.43,0,0,0,1.45.25,3.81,3.81,0,0,0,1.69-.39,5.45,5.45,0,0,0,2.58-3.31l7.18-21.2c.59-2.46-.45-4.61-2.57-5.36s-4.26.24-5.4,2.66l-7.25,21.07a6,6,0,0,0-.18,3.81A3.89,3.89,0,0,0,302.75,224.84Z"/><path class="cls-2" d="M226.2,223.52a5.94,5.94,0,0,0,2.35,3,3.81,3.81,0,0,0,2,.54,4.22,4.22,0,0,0,1.54-.3,4,4,0,0,0,2.29-2.16,5.42,5.42,0,0,0-.21-4.19l-8.37-20.65,0-.09c-1.16-2.25-3.35-3.21-5.46-2.38s-3,3-2.34,5.54Z"/><path class="cls-2" d="M168.36,239.14c-2.13-1.37-4.5-1.1-5.91.66s-1.17,4.1.74,6l17.52,13.78a5.87,5.87,0,0,0,3.53,1.42h0a3.9,3.9,0,0,0,3.11-1.54,4,4,0,0,0,.9-3,5.45,5.45,0,0,0-2.28-3.52Z"/><path class="cls-2" d="M160.6,305.07,138.52,302h-.1a4.25,4.25,0,0,0-4.78,3.54c-.34,2.25,1,4.13,3.62,4.8l22.06,3.17a7.72,7.72,0,0,0,1.15.09,5.31,5.31,0,0,0,2.62-.62,3.89,3.89,0,0,0,2-2.92,4,4,0,0,0-.72-3.06A5.43,5.43,0,0,0,160.6,305.07Z"/><path class="cls-2" d="M168.86,362.77a5.42,5.42,0,0,0-4.19.21l-20.74,8.42c-2.25,1.16-3.2,3.35-2.38,5.45a4,4,0,0,0,3.89,2.58,5.83,5.83,0,0,0,1.65-.24l20.69-8.27a5.94,5.94,0,0,0,3-2.35,3.9,3.9,0,0,0,.24-3.51A4.06,4.06,0,0,0,168.86,362.77Z"/><path class="cls-2" d="M203.69,409.72a4,4,0,0,0-3-.9,5.43,5.43,0,0,0-3.52,2.27L183.4,428.75c-1.37,2.13-1.1,4.5.66,5.91a4,4,0,0,0,2.49.91,5,5,0,0,0,3.48-1.64l13.78-17.52a6,6,0,0,0,1.43-3.53A3.93,3.93,0,0,0,203.69,409.72Z"/><path class="cls-2" d="M250.46,463.52c1.95,0,3.52-1.34,4.13-3.67l3.17-22.06a6,6,0,0,0-.53-3.77,3.89,3.89,0,0,0-2.92-2,4,4,0,0,0-3.06.73,5.4,5.4,0,0,0-1.92,3.73l-3.08,22.17c-.11,2.52,1.31,4.45,3.54,4.78A3.78,3.78,0,0,0,250.46,463.52Z"/><path class="cls-2" d="M312.83,426.33a3.91,3.91,0,0,0-3.51-.23,4,4,0,0,0-2.29,2.16,5.4,5.4,0,0,0,.21,4.18l8.42,20.75a4.49,4.49,0,0,0,3.94,2.66,4,4,0,0,0,1.51-.29c2.12-.83,3.06-3,2.35-5.53l-8.28-20.7A6,6,0,0,0,312.83,426.33Z"/><path class="cls-2" d="M357.42,375.5a65.76,65.76,0,0,1-4.81-4.94,93,93,0,0,0-2.52-92.6c.81-1,1.58-2,2.45-3a72,72,0,0,1,81-18.72,92.15,92.15,0,0,0-111.19-7.16,93.06,93.06,0,1,0,.1,154.64c37.41,24.74,87.59,19.46,119.29-15a93.62,93.62,0,0,0,6.35-7.73C421.24,400.47,383.6,399,357.42,375.5ZM270.7,411.73A85.31,85.31,0,1,1,315.64,254a88.55,88.55,0,0,0-10.15,9.44,92.34,92.34,0,0,0,4.87,130.78c1.75,1.61,3.53,3.13,5.38,4.61A84.87,84.87,0,0,1,270.7,411.73Zm74.45-126.81a85.16,85.16,0,0,1,2.18,78.92A71.66,71.66,0,0,1,345.15,284.92Z"/><path class="cls-2" d="M384.21,662.64c-.31-3.2-2.63-6.49-6-8.41-5.11-2.89-11.59-4.33-19.89-4.4h-.24c0-.07-.13-.2-.27-.47a11.12,11.12,0,0,0-1.71-2.52,17.67,17.67,0,0,0-7.26-4.5A42.07,42.07,0,0,0,327.57,641c-8.7,1.75-16.57,3.49-24.06,7.33a7.86,7.86,0,0,0-8.21-4.68,24.49,24.49,0,0,0-6.95,1.68,93.37,93.37,0,0,0-16.14,8.84c-1.24.84-1.64,1-2.85.31a88.17,88.17,0,0,0-16.44-6.89c-14.65-4.84-28.1-7.4-41.1-7.87a7.14,7.14,0,0,1-4.54-1.71,15,15,0,0,1-5.38-7.63c0-.14,0-.2-.07-.24a.85.85,0,0,1,.17-.1l.74-.4c1.71-.91,3.33-1.75,5-2.49,9.55-4,19.6-8.5,27.83-15.43,9.24-7.76,17.45-20.06,12.74-31.19-2.22-5.34-6.92-7.59-12.57-6a17.18,17.18,0,0,0-4.87,2.29c-2.79,1.78-5.55,3.63-8.24,5.44-3.9,2.59-7.9,5.28-12,7.73-6.56,4-14.19,6.35-23.36,7.29a51.1,51.1,0,0,0-20.27,6.22c-2.29,1.28-4.64,2.56-7,3.83-5.24,2.89-10.69,5.85-15.8,9.08-7.76,4.91-14.08,10.75-21.17,18.08-4,4.14-8,6.29-12.5,6.79-19.36,2.22-41.71-5.21-56.17-12.87a.89.89,0,0,0-.33-.17A3,3,0,0,0,50,629.5a2.93,2.93,0,0,0,1.08,4.06,33.85,33.85,0,0,0,5.85,3,141,141,0,0,0,37,10.49c10.93,1.38,23.33,2.15,32.17-6.66,6-6,12.74-12.7,20.7-18,9.72-6.45,21-13.61,32.2-16.67,3.5-.94,7.16-1.65,10.69-2.32a98.23,98.23,0,0,0,16.4-4.13,84.24,84.24,0,0,0,17.11-9.51c1.31-.91,2.65-1.92,3.93-2.89,3.16-2.42,6.42-4.91,10-6.16,2.69-1,4.1-.4,5.38,2.09,4,7.63-3.36,16.8-6.72,20.37-6.29,6.72-14.66,11-22.69,14.85-1.61.74-3.29,1.45-4.94,2.12a60.08,60.08,0,0,0-9.14,4.44c-.91.57-1.85,1.14-2.79,1.71-2.15,1.31-4.34,2.66-6.42,4.17a3.15,3.15,0,0,0-1,4.5c.78,1.18,2.49,2,4.74.51l1.28-.84,1.54-1a18.77,18.77,0,0,0,3.1,5.35l-1.52-.21c-2.11-.23-4.26-.5-6.38-.7a3.71,3.71,0,0,0-2.66.7,3.27,3.27,0,0,0-1.07,2.12c-.17,1.82,1,3.16,3.09,3.43,5.21.71,10.45,1,15.56,1.24,4.91.27,9.95.54,14.89,1.18a148.17,148.17,0,0,1,38.45,10.12c1.82.77,3.6,1.58,5.28,2.38-2.32,1.88-4.67,3.73-7,5.58-5,4-10.22,8.07-15.13,12.4-6.18,5.45-12.27,10.76-18.52,15.87-.5.4-.57.4-.7.37a71.8,71.8,0,0,0-13.75,0l-1,0a61.19,61.19,0,0,0-9.64,1.61l-.68.14a3,3,0,0,0-2.55,3.56c.27,1.78,1.68,2.76,3.66,2.59a6,6,0,0,0,1-.2l.17,0a69.68,69.68,0,0,1,16.23-1.68l-.1.1a48.78,48.78,0,0,0-5,5.31,3.78,3.78,0,0,0-.84,2.73,2.92,2.92,0,0,0,1.21,1.91,3.06,3.06,0,0,0,4.41-.64,111,111,0,0,1,12.5-11.66l1.08-.87c4.13-3.47,8.3-7.06,12.33-10.52,7.23-6.19,14.69-12.58,22.25-18.56a132.66,132.66,0,0,1,22.89-14.92,25.43,25.43,0,0,1,7.76-2.42,1.85,1.85,0,0,1,1.82.44,1.88,1.88,0,0,1,0,1.91,9.64,9.64,0,0,1-.94,1.65,55.61,55.61,0,0,1-10.08,11.19c-5.85,5-11,10.86-15.9,16.47-2.56,2.92-5.21,6-7.93,8.84a109.78,109.78,0,0,1-13.52,11.53c-4.77,3.7-9.74,7.49-14.05,12.1-1.58,1.71-3.12,3.46-4.67,5.21-2.32,2.62-4.74,5.31-7.26,7.83a39.75,39.75,0,0,1-11,7.9c-10.38,4.87-23,3.29-32.7,1.38-9.45-1.85-18.72-4.94-27.73-7.94-2.45-.84-4.94-1.64-7.4-2.42-5.68-1.85-11.25-4.16-16.7-6.42-4.5-1.88-9.21-3.83-13.91-5.51a258.34,258.34,0,0,0-26.52-7.19c-4.81-1.11-9.75-2.29-14.56-3.56-6.82-2-13.68-4.34-20.3-6.62-.57-.21-1.11-.37-1.68-.58,1.14,2.63,2.35,5.18,3.6,7.73,12.74,4.07,26,7.9,39.26,10.89s26.41,8.21,39,13.25c5.85,2.32,11.87,4.74,17.85,6.89,12.2,4.4,27.7,10,43.19,10a52.92,52.92,0,0,0,17-2.65c1.17-.41,2.32-.84,3.39-1.31,7.9-3.43,13.82-9.25,19.06-15,.17-.2.34-.43.54-.64a3.9,3.9,0,0,1,1.21-1.17l1.71-.91a39.37,39.37,0,0,1,4.3-2c2.76-1,5.52-1.88,8.31-2.82,9.31-3.13,18.92-6.35,27.56-11.53,7.76-4.7,13.51-10.89,18.11-16.37a3.37,3.37,0,0,1,1.35-1,162,162,0,0,1,18-5.95c14.12-3.5,28.1-5.52,43.66-7.6l1.72-.24a93.14,93.14,0,0,0,14.75-2.72,18.77,18.77,0,0,0,7-3.53A7.7,7.7,0,0,0,384.21,662.64Zm-49.21-16a35.86,35.86,0,0,1,11,1.44,12.09,12.09,0,0,1,3.94,1.82h-3.43a118.08,118.08,0,0,0-11.87.94A6.35,6.35,0,0,0,335,646.61Zm-44,38.48a78.05,78.05,0,0,1-13.92,14c-4.53,3.33-9.78,6-17.07,8.57-4.47,1.61-8.94,3.16-13.44,4.7l-1.42.51a34.84,34.84,0,0,1,4.41-3.43c5.54-3.56,11.86-7.8,17-13.38,3.43-3.69,6.52-7.69,9.51-11.56l.94-1.24c3.5-4.51,7.66-8.17,12.1-12.1a76.67,76.67,0,0,0,13.44-14.89,6.29,6.29,0,0,1,2.66-1.85l.57-.3a59.22,59.22,0,0,1,17.58-5.68c.57-.07,1.11-.1,1.68-.14l.71-.06a9.19,9.19,0,0,1,3,.4,13.68,13.68,0,0,1-3.5,4.84c-2.25,2.08-4.8,4-7.26,5.85-1.38,1-2.75,2-4.13,3.16A144.09,144.09,0,0,0,291,685.09ZM376.61,665a16.9,16.9,0,0,1-5.08,2.12,95.86,95.86,0,0,1-13.14,2.32l-4,.51c-9.11,1.27-18.93,2.72-28.81,4.57A174.34,174.34,0,0,0,303.74,680c2-2,4.1-3.89,6.19-5.78.87-.8,1.78-1.58,2.65-2.38,2.69-2.49,5.68-4.74,8.57-6.93,1-.7,2-1.44,2.89-2.18.64-.51,1.25-1,1.88-1.51l.88-.71c3.09-2.52,4.87-3.09,7.66-3.39a172.24,172.24,0,0,1,19-1c2.82,0,5.68.06,8.54.2a28.35,28.35,0,0,1,13.11,3.43,7.69,7.69,0,0,1,2.38,1.88A2.33,2.33,0,0,1,378,663C378,663.54,377.79,664.22,376.61,665Z"/><path class="cls-2" d="M151.77,709.9A3.41,3.41,0,0,0,154,709h0c1.67-1.41,3.34-2.82,5-4.21a100.15,100.15,0,0,1,25.07-15.49c3-1.26,6.13-2.4,9.15-3.51,2.14-.79,4.28-1.57,6.41-2.4A83.13,83.13,0,0,0,221,670.89a11.12,11.12,0,0,0,2.95-3.07,3.13,3.13,0,0,0-.79-4.26,3,3,0,0,0-4.29.59l-.39.46a7.25,7.25,0,0,1-.74.79,74.49,74.49,0,0,1-13.85,9.19,120.61,120.61,0,0,1-15.67,6.33A105.06,105.06,0,0,0,161,695.26c-3.22,2.32-6.63,5.06-10.7,8.63a3.62,3.62,0,0,0-1.58,2.68,3.1,3.1,0,0,0,1.67,3A3.19,3.19,0,0,0,151.77,709.9Z"/><path class="cls-2" d="M104.29,705.41a2.8,2.8,0,0,0,2-.79,3.72,3.72,0,0,0,1-2.19,18.08,18.08,0,0,0,.19-2.06A34.66,34.66,0,0,1,113,682.89a125.3,125.3,0,0,1,9.44-12.78c1.61-2,1.11-3.88-.1-4.89s-3-1.23-4.77.87-3.51,4.45-5.14,6.67c-.7.94-1.39,1.88-2.1,2.82a43.74,43.74,0,0,0-9.18,25.29l0,.32c0,.25,0,.5,0,.76a3.12,3.12,0,0,0,2.8,3.43Z"/></svg>