<svg id="Layer_1" data-name="Layer 1" xmlns="http://www.w3.org/2000/svg" viewBox="0 0 651.85 864"><defs><style>.cls-1{fill:#a16e58;}</style></defs><title>Untitled-32</title><path class="cls-1" d="M179.17,511.14a4.84,4.84,0,0,0,4.2,2.41,4.78,4.78,0,0,0,2.41-.64,4.86,4.86,0,0,0,1.77-6.61l-57.8-100.11a4.79,4.79,0,0,0-2.94-2.25,4.86,4.86,0,0,0-3.67.48h0a4.85,4.85,0,0,0-1.77,6.61Z"/><path class="cls-1" d="M34.77,501.17,134.88,559a4.78,4.78,0,0,0,2.4.65,4.5,4.5,0,0,0,1.26-.17,4.83,4.83,0,0,0,1.17-8.85L39.6,492.8a4.83,4.83,0,0,0-4.83,8.37Z"/><path class="cls-1" d="M125.27,617.71a4.84,4.84,0,0,0-4.84-4.83H4.83a4.84,4.84,0,0,0,0,9.67h115.6A4.84,4.84,0,0,0,125.27,617.71Z"/><path class="cls-1" d="M141.48,678.22a4.83,4.83,0,0,0-6.6-1.77L34.76,734.25a4.84,4.84,0,0,0-1.76,6.6,4.79,4.79,0,0,0,2.93,2.26,5,5,0,0,0,1.26.17,4.79,4.79,0,0,0,2.41-.65l100.11-57.8A4.85,4.85,0,0,0,141.48,678.22Z"/><path class="cls-1" d="M188,725.45a4.84,4.84,0,0,0-8.86-1.16L121.37,824.4a4.83,4.83,0,0,0,1.77,6.6,4.8,4.8,0,0,0,2.41.65,4.86,4.86,0,0,0,4.2-2.42l57.8-100.11A4.85,4.85,0,0,0,188,725.45Z"/><path class="cls-1" d="M246.29,738.73a4.84,4.84,0,0,0-4.84,4.84V859.16a4.84,4.84,0,1,0,9.67,0V743.57A4.84,4.84,0,0,0,246.29,738.73Z"/><path class="cls-1" d="M313.4,724.29a4.83,4.83,0,1,0-8.37,4.83l57.79,100.11a4.86,4.86,0,0,0,4.2,2.42,4.84,4.84,0,0,0,4.18-7.25Z"/><path class="cls-1" d="M457.81,734.25,357.7,676.45A4.86,4.86,0,0,0,354,676a4.79,4.79,0,0,0-2.94,2.25,4.85,4.85,0,0,0,1.77,6.61L453,742.63a4.82,4.82,0,0,0,2.41.65,5,5,0,0,0,1.26-.17,4.84,4.84,0,0,0,1.17-8.86Z"/><path class="cls-1" d="M487.74,612.88H372.14a4.84,4.84,0,0,0,0,9.67h115.6a4.84,4.84,0,0,0,0-9.67Z"/><path class="cls-1" d="M459.58,494.57A4.84,4.84,0,0,0,453,492.8L352.86,550.6a4.77,4.77,0,0,0-2.25,2.93,4.85,4.85,0,0,0,.48,3.67,4.79,4.79,0,0,0,2.94,2.25,4.5,4.5,0,0,0,1.26.17,4.82,4.82,0,0,0,2.41-.65l100.11-57.8A4.84,4.84,0,0,0,459.58,494.57Z"/><path class="cls-1" d="M357.89,404a4.58,4.58,0,0,0-5.62,1.73l-50.06,95.86a5.88,5.88,0,0,0-.55,4.1,4.84,4.84,0,0,0,4.64,3.64,5.43,5.43,0,0,0,4.72-3.18l48.63-93.73a9.44,9.44,0,0,0,1.31-4.08A4.75,4.75,0,0,0,357.89,404Z"/><path class="cls-1" d="M202.57,426.55l15.83,66.21h0c.27,1.12,1.09,4.51,5,4.74a4.74,4.74,0,0,0,4.7-3.61,6.43,6.43,0,0,0-.19-3.77l-16-67.13c-.8-2.95-3.33-4.6-6-3.94s-4.11,3.14-3.58,6.18C202.38,425.67,202.47,426.12,202.57,426.55Z"/><path class="cls-1" d="M112.85,474l46.81,49.42a6.1,6.1,0,0,0,4.3,2.21,5.33,5.33,0,0,0,2.41-.61,4.72,4.72,0,0,0,2.26-5.47,6.3,6.3,0,0,0-2-3.17l-47.43-50.13c-2.17-2.16-5.19-2.33-7.18-.41s-2,4.78,0,7.15C112.25,473.35,112.54,473.7,112.85,474Z"/><path class="cls-1" d="M130.74,577.42a4.75,4.75,0,0,0-.77-5.88,6.53,6.53,0,0,0-3.37-1.72l-66.14-19.7c-3-.78-5.66.58-6.42,3.24s.67,5.14,3.56,6.2c.42.15.85.3,1.28.43l65.25,19.39a8.31,8.31,0,0,0,2.39.41,4.77,4.77,0,0,0,4.17-2.29Z"/><path class="cls-1" d="M126.07,640.59a4.73,4.73,0,0,0-3.6-4.7,6.34,6.34,0,0,0-3.77.19l-67.14,16c-3,.8-4.61,3.34-3.94,6a4.84,4.84,0,0,0,5,3.69,7.47,7.47,0,0,0,1.22-.11c.44-.07.89-.16,1.33-.26l66.21-15.83C122.45,645.33,125.85,644.51,126.07,640.59Z"/><path class="cls-1" d="M153.61,697.63a4.75,4.75,0,0,0-5.47-2.27,6.47,6.47,0,0,0-3.17,2L94.84,744.85c-2.15,2.17-2.32,5.19-.4,7.18a4.67,4.67,0,0,0,3.41,1.49,5.83,5.83,0,0,0,3.73-1.48h0c.35-.29.69-.58,1-.89L152,704.33C152.85,703.55,155.38,701.14,153.61,697.63Z"/><path class="cls-1" d="M206,733.26a4.74,4.74,0,0,0-5.87.77,6.4,6.4,0,0,0-1.73,3.37L178.7,803.54c-.79,3,.58,5.66,3.24,6.42a4.88,4.88,0,0,0,1.4.2,5.2,5.2,0,0,0,4.79-3.76c.16-.43.31-.85.44-1.28L208,739.86C208.28,738.76,209.27,735.42,206,733.26Z"/><path class="cls-1" d="M290,808.87l-15.83-66.2h0c-.27-1.11-1.09-4.51-5-4.73a4.74,4.74,0,0,0-4.71,3.6,6.54,6.54,0,0,0,.19,3.78l16,67.13a5.14,5.14,0,0,0,4.84,4.09,4.83,4.83,0,0,0,1.18-.15c2.67-.67,4.11-3.15,3.59-6.18C290.19,809.75,290.11,809.31,290,808.87Z"/><path class="cls-1" d="M379.72,761.4,332.91,712c-.79-.83-3.2-3.36-6.7-1.6a4.73,4.73,0,0,0-2.27,5.47A6.39,6.39,0,0,0,326,719l47.43,50.13a5.64,5.64,0,0,0,3.93,1.74,4.6,4.6,0,0,0,3.25-1.34c2-1.91,2-4.78,0-7.14Q380.18,761.9,379.72,761.4Z"/><path class="cls-1" d="M361.89,657.93l-.05.08a4.72,4.72,0,0,0,.77,5.87,6.4,6.4,0,0,0,3.37,1.73l66.13,19.69a6.33,6.33,0,0,0,1.64.22,4.77,4.77,0,0,0,4.78-3.46c.77-2.64-.67-5.13-3.56-6.19-.42-.16-.85-.31-1.28-.44L368.44,656C367.34,655.72,364,654.72,361.89,657.93Z"/><path class="cls-1" d="M370.11,599.54a4.73,4.73,0,0,0,1.41.21,9.24,9.24,0,0,0,2.36-.4l67.13-16c2.95-.81,4.61-3.34,3.94-6s-3.15-4.12-6.18-3.58c-.45.08-.89.16-1.33.27l-66.2,15.83c-1.12.27-4.51,1.09-4.74,5A4.75,4.75,0,0,0,370.11,599.54Z"/><path class="cls-1" d="M391,483.38h0c-.35.29-.69.59-1,.89l-49.42,46.82c-.84.79-3.37,3.19-1.6,6.7a4.6,4.6,0,0,0,4.1,2.43,6.08,6.08,0,0,0,1.37-.16,6.51,6.51,0,0,0,3.18-2l50.13-47.43c2.15-2.17,2.32-5.2.4-7.19S393.35,481.41,391,483.38Z"/><path class="cls-1" d="M265.08,462l-3.71,25.75a7,7,0,0,0,.63,4.4,4.51,4.51,0,0,0,3.4,2.29,5.49,5.49,0,0,0,.8.06,4.62,4.62,0,0,0,2.78-.9,6.37,6.37,0,0,0,2.23-4.36l3.6-25.88c.13-2.95-1.52-5.19-4.13-5.58S265.86,459,265.08,462Z"/><path class="cls-1" d="M280.79,496.25a4.53,4.53,0,0,0,2.92,2.88,5.11,5.11,0,0,0,1.69.3,4.36,4.36,0,0,0,2-.46,6.36,6.36,0,0,0,3-3.86l8.38-24.75c.68-2.87-.52-5.38-3-6.25s-5,.28-6.3,3.1L281,491.81A6.94,6.94,0,0,0,280.79,496.25Z"/><path class="cls-1" d="M194.36,497.59a6.91,6.91,0,0,0,2.74,3.5,4.38,4.38,0,0,0,2.29.64,4.82,4.82,0,0,0,1.8-.36,4.64,4.64,0,0,0,2.67-2.52,6.33,6.33,0,0,0-.24-4.89l-9.78-24.11-.05-.1c-1.35-2.62-3.91-3.74-6.36-2.77s-3.57,3.46-2.74,6.46Z"/><path class="cls-1" d="M150.12,536a6.36,6.36,0,0,0-2.66-4.11l-20.61-16.06c-2.49-1.59-5.26-1.28-6.9.78s-1.36,4.78.86,7l20.45,16.08a6.87,6.87,0,0,0,4.12,1.66h.06a4.54,4.54,0,0,0,3.62-1.8A4.71,4.71,0,0,0,150.12,536Z"/><path class="cls-1" d="M92,589.2H91.9a5,5,0,0,0-5.58,4.13c-.4,2.63,1.21,4.82,4.23,5.6l25.75,3.71a10.3,10.3,0,0,0,1.33.1,6.25,6.25,0,0,0,3.07-.73,4.5,4.5,0,0,0,2.28-3.4,4.66,4.66,0,0,0-.84-3.58,6.33,6.33,0,0,0-4.36-2.23Z"/><path class="cls-1" d="M100.09,679.58a7.4,7.4,0,0,0,1.92-.27l24.16-9.67a7,7,0,0,0,3.5-2.74,4.53,4.53,0,0,0,.28-4.09,4.68,4.68,0,0,0-2.52-2.67,6.35,6.35,0,0,0-4.9.24L98.32,670.2c-2.61,1.36-3.73,3.92-2.77,6.37A4.65,4.65,0,0,0,100.09,679.58Z"/><path class="cls-1" d="M164.56,713.88a6.34,6.34,0,0,0-4.11,2.66l-16.06,20.61c-1.59,2.49-1.27,5.26.78,6.9a4.62,4.62,0,0,0,2.91,1.06,5.76,5.76,0,0,0,4.06-1.92l16.09-20.44a7,7,0,0,0,1.66-4.13,4.58,4.58,0,0,0-1.81-3.68A4.63,4.63,0,0,0,164.56,713.88Z"/><path class="cls-1" d="M227.17,741a4.68,4.68,0,0,0-3.57.85,6.34,6.34,0,0,0-2.24,4.35l-3.6,25.89c-.13,2.94,1.53,5.19,4.13,5.58a5.32,5.32,0,0,0,.78.06c2.28,0,4.12-1.57,4.82-4.29l3.71-25.75a7,7,0,0,0-.62-4.4A4.57,4.57,0,0,0,227.17,741Z"/><path class="cls-1" d="M298.22,737.83a7,7,0,0,0-2.74-3.5,4.55,4.55,0,0,0-4.1-.28,4.74,4.74,0,0,0-2.67,2.52,6.37,6.37,0,0,0,.24,4.89l9.83,24.22a5.27,5.27,0,0,0,4.6,3.11,4.78,4.78,0,0,0,1.76-.34c2.48-1,3.57-3.46,2.74-6.46Z"/><path class="cls-1" d="M345.11,703.55l20.53,16,.09.07a6,6,0,0,0,3.21,1,4.62,4.62,0,0,0,3.68-1.78c1.67-2.09,1.37-4.78-.86-7l-20.44-16.09c-2.88-2.27-5.95-2.21-7.81.15a4.69,4.69,0,0,0-1.05,3.52A6.33,6.33,0,0,0,345.11,703.55Z"/><path class="cls-1" d="M400.56,646.22H401c2.78,0,4.87-1.63,5.24-4.13s-1.2-4.82-4.22-5.6l-25.75-3.71c-3.64-.53-6.27,1.06-6.69,4a4.68,4.68,0,0,0,.84,3.57,6.36,6.36,0,0,0,4.36,2.24Z"/><path class="cls-1" d="M365.15,575.29a5.14,5.14,0,0,0,2,.38A7.73,7.73,0,0,0,370,575l24.21-9.82c2.62-1.36,3.73-3.91,2.77-6.36s-3.46-3.58-6.46-2.74l-24.15,9.66a7,7,0,0,0-3.5,2.74,4.55,4.55,0,0,0-.28,4.1A4.67,4.67,0,0,0,365.15,575.29Z"/><path class="cls-1" d="M347.4,491.38c-2.08-1.67-4.78-1.37-7,.85l-16.08,20.45c-2.27,2.89-2.22,6,.14,7.81a4.77,4.77,0,0,0,3,1.08,3.26,3.26,0,0,0,.54,0,6.3,6.3,0,0,0,4.11-2.65l16.06-20.62C349.77,495.79,349.46,493,347.4,491.38Z"/><path class="cls-1" d="M137.66,617.71A108.63,108.63,0,1,0,246.29,509.09,108.75,108.75,0,0,0,137.66,617.71Zm182.81-18.8a78,78,0,0,1-57.09,94.7c-40.09,10-82.19-13.1-93.87-54.2a60.74,60.74,0,0,0,109-49.06c-7.62-28.7-33.53-47.19-61.52-45.9a78.57,78.57,0,0,1,8.06-2.5C267.71,531.19,309.89,556.53,320.47,598.91Z"/><path class="cls-1" d="M651.62,91.09c-8.06-43.87-35.56-75.84-69.21-90a11.57,11.57,0,0,0-12.17,1.35C552.22,15.34,532.36,30,511.18,37c-11.59,3.86-24.47,5.12-36.36,1.86-42.71-11.68-79.9-35.93-125.51-37.3a22.7,22.7,0,0,0-14.13,4.51,122.66,122.66,0,0,0-20.85,19.09c-16.35,18.21-35.47,32-55.23,46.11-8,5.69-12.49,13.82-16,22.67-1.64,4.15-2.64,8.51-4,12.74-3.57,10.84-9.07,20.65-11.71,31.91-3.77,16.07-2.31,32.21-4,48.46-.63,6.14-1.46,12.28-1.39,18.48,0,4.29,1.19,8.09,5.26,10.43a9.9,9.9,0,0,0,5.29,1.27,20.06,20.06,0,0,0,8.88-2.23V376.26h0v115.6a4.84,4.84,0,0,0,9.67,0v-103h0V204.42a46,46,0,0,0,5-20.4c.65-23.5,11.83-44.15,21.07-65.08,5.34-12.1,18-19,28.15-26.51,2.71-2,5.73-3.6,8.3-5.82a2,2,0,0,1,.57-.22,4.58,4.58,0,0,1-.38.56,344.34,344.34,0,0,0-26.42,30.82c-6.47,8.56-4.71,19.59-5.55,29.57a139.46,139.46,0,0,0,1.23,30.56c1.38,10.06,7.19,16.47,14.06,23.23,9,8.89,16.46,21.51,27.48,27.9,6.9,4,13.7.91,15.26-6.93,3.76-18.79-9.18-28.46-14.14-47.67-.24-.92-.79-3.49-1.43-4.32-5.14-6.66-5.38-14.17-3.29-21.86,3.06-11.23,11.09-20.36,19.32-28.24,9.19-8.81,18.34-17.63,28.54-25.29.7-.52,1.92-.9,2.22-.09.2.54-.28,1.06-.71,1.43q-14.49,12.36-28,25.77c-7.93,7.87-16.07,15.8-19.31,26.85a25.78,25.78,0,0,0,.12,15.26c.93,3,3,5.45,5,7.77,7.26,8.55,13.27,18.13,20.26,26.9a28.37,28.37,0,0,0,18.25,10.46c6.46,1.08,12.83,1.74,19.2,3.54,7.58,2.14,30,11.82,29-4.24a23.15,23.15,0,0,0-5-12.08c-4.88-6.17-13.81-4.36-20.75-5.43A45.39,45.39,0,0,1,373.85,186c-27.22-15,12.12-51.72,23.83-62,.59-.52,1.27-1.23,2-.43s0,1.54-.66,2.08a166.23,166.23,0,0,0-12.37,11.81c-6,6.62-12,13.38-16.43,21.21a22.71,22.71,0,0,0-3.13,12.48,14.94,14.94,0,0,0,7.84,13c6,3.45,12.65,4.67,19.47,5.14,13.69,1,28.29,4.08,38-8.5a68.91,68.91,0,0,0,11.73-24.26c.25-1,.12-1.36-.95-1.5a48.07,48.07,0,0,1-4.89-1,11.77,11.77,0,0,0-11.13,2.55c-1.59,1.34-2.56,2.54-2.36,4.85A32.79,32.79,0,0,1,423.61,172a18.25,18.25,0,0,1-.78,2.37,1,1,0,0,1-1.29.64c-.65-.19-.74-.71-.64-1.28a8.39,8.39,0,0,1,.27-.85,40.93,40.93,0,0,0,1.58-10.54c0-.45.17-1.08-.35-1.26-.22-.07-.66.41-1,.68a88.84,88.84,0,0,0-8.17,8.18c-.35.41-.7.82-1.07,1.2s-1.1.8-1.71.21-.32-1.1.12-1.58c1.94-2.09,3.79-4.26,5.84-6.24,2.95-2.84,6-5.53,9.06-8.3a13.88,13.88,0,0,1,12.87-3.52,44,44,0,0,0,22.85-1.2c4.17-1.31,8-.35,11.66,1.64,17.6,9.6,34,21.65,55.12,18.75,13.6-1.87,23.39-9.29,33.66-17.67,27.36-22.33,58-36.57,87.71-54.82C651.93,96.88,652.13,93.88,651.62,91.09ZM383,56.66c-1.46.47-1.42-1.14-1.68-2a28.25,28.25,0,0,0-9.71-13.92c-.88-.7-1.81-1.34-2.71-2-.5-.38-.94-.84-.56-1.49s1.08-.6,1.71-.26a8.47,8.47,0,0,1,.89.58,42.74,42.74,0,0,1,7.19,6.58A33.19,33.19,0,0,1,383.3,54C383.55,54.92,384.36,56.22,383,56.66Zm27.88,32c-1.06.36-1.25-.57-1.52-1.3a40.9,40.9,0,0,0-3.65-8.09,39.15,39.15,0,0,0-14.84-13.75c-.74-.39-1.66-.82-1-1.86s1.34-.34,2,0c5.49,2.62,9.55,7,13.25,11a41.75,41.75,0,0,1,6.24,12.07C411.6,87.45,411.87,88.33,410.87,88.68Z"/><path class="cls-1" d="M280.11,136.31c-.64-.37-1.59.71-2.34,1.23-2.49,1.72-5.12,3.22-7.87,4.88a6.9,6.9,0,0,0-1.2,2c-3,6.41-6,12.81-7.8,19.67A97.12,97.12,0,0,0,258.24,182c-.16,2.19-.26,4.39-.44,6.58-.07,1,.11,1.39,1.25,1.14a153,153,0,0,0,21.49-6.32c.81-.31,1.61-.55,1.28-1.86-2-7.82-1.94-15.87-2.37-23.86-.33-6.25.68-12.44.89-18.67C280.37,138.06,280.77,136.7,280.11,136.31Z"/></svg>