<svg id="Layer_1" data-name="Layer 1" xmlns="http://www.w3.org/2000/svg" viewBox="0 0 864 461.89"><defs><style>.cls-1{fill:#a16e58;}</style></defs><title>Untitled-32</title><path class="cls-1" d="M391.49,224.93h0a1.74,1.74,0,0,0,0,3.22h0C409.13,233,422.9,249.41,427,270.37h0a1.36,1.36,0,0,0,2.71,0h0c4.12-21,17.89-37.33,35.53-42.22h0a1.74,1.74,0,0,0,0-3.22h0c-17.64-4.89-31.41-21.26-35.53-42.22h0a1.36,1.36,0,0,0-2.71,0h0C422.9,203.67,409.13,220,391.49,224.93Z"/><path class="cls-1" d="M443.62,42.71c-8.69,0-17.85,2-14.56,11.75,3.4,10.06,18.66,15.74,28.16,17.29,11,1.78,22.43,1.1,33.16,4.46,3.42,1.07,9,4.58,12.44,2.17a64.63,64.63,0,0,1,16.53-8.32c8-2.75,16.26-5,23.86-9,3.85-2,7.77-3.85,11.68-5.73.77-.37.72-.6.06-1-.45-.26-.87-.58-1.32-.84a64.79,64.79,0,0,0-33.42-9.14c-13.45.14-26.71-4.21-40.13-2.82-8.71.9-16.73,2.8-25.6,1.86A101.31,101.31,0,0,0,443.62,42.71Z"/><path class="cls-1" d="M863.87,158.69c-.61-13.26-3.16-28.58-11.48-39.35-3.49-4.54-14.86-2.07-19.7-2q-28.07.48-56.11,0c-9.13-.17-18.4-.24-26.19-5.66-11.35-7.9-25.13-12-36.84-19.58-12-7.71-23.63-16.71-32.92-27.56-4.74-5.54-8.58-11.68-13.65-17A117.28,117.28,0,0,0,649.46,32.8C639.67,26,628.3,21.19,619.07,13.67c-6.57-5.37-14.11-7.46-22.29-8l-1.9-.1c-6-.21-11.76-1.76-17.52-3.21C571.83,1,565.78-1.06,560.11.65a6,6,0,0,0-4.41,6.28A15.56,15.56,0,0,0,558.58,15c8.27,12.39,24.33,17.3,37.86,21.46,10.08,3.1,18.87,10.23,25.19,18.58.8,1.05.57,1.8-.72,2.16a5.77,5.77,0,0,1-1.38.13c-23.12.87-47.64-9.48-69.43,2.52-14.94,8.23-32.83,10.41-46.71,20.57-7.72,5.65-16.4,9.27-25.5,12-4.57,1.35-8.77,3.25-12,6.89-3.61,4-3,8.61,1.5,11.66a26.34,26.34,0,0,0,9.9,4,72.76,72.76,0,0,0,28-.22c18.79-3.66,36.87-9.89,55-16,7.24-2.46,15.4.34,22.73,1.26,8.28,1.05,16.61,1.75,24.94,2.23,2.49,0,5,0,7.47,0,.88,0,2.3-.59,2.34.92s-1.39,1.09-2.3,1.11a246.92,246.92,0,0,1-27.72-1.63c-6.52-.64-13-1.73-19.42-2.78a11.94,11.94,0,0,0-5.84.27c-15.08,5.06-30.14,10.2-45.58,14.13-12.28,3.13-24.61,5-37.27,3.17-5-.72-9.84-2.13-14-5.27s-5.07-6.87-3.23-11.5c.11-.26.34-.65.25-.76-.26-.3-.64-.07-1,0l-4.51,1.26a55.25,55.25,0,0,0-16.41,7.36c-3.41,2.32-4.2,5.17-2.43,8.89,5.4,11.35,25.89,15.93,37.19,14.45a81.72,81.72,0,0,0,19.52-5.4,87.34,87.34,0,0,1,21.33-6c10-1.27,19.52-4.54,29.64-4a104.38,104.38,0,0,0,22-1.13c3.89-.62,6.87,3,9.8,5,3.46,2.38,7,4.56,10.46,7,7.11,5.09,10.85,11.61,16.32,18.09.26.3.72.6.6,1s-.78.38-1.2.44c-23.26,3.52-47.61,8.14-69.85,15.88a41.32,41.32,0,0,0-15.91,10c-3.41,3.43-5.63,8.5-2.76,13.56a13.17,13.17,0,0,0,7.05,5.87c8.41,3.25,18.67,1.81,27.49,1.49,16.16-.58,32.78-4.53,48.93-3.25,14.07,1.11,27,7.67,39.94,13.15,14.25,6.06,28.38,9.35,44,7.74,8.39-.86,16.47-3.18,24.49-5.67,18-5.59,36.83-3.69,55.22-1.73,19.85,2.11,39.76,3.74,59.51,6.7,8.51,1.27,17,2.78,25.39,4.64,2.36.52,3,.24,4.27-1.85C861.49,197.48,864.72,177.14,863.87,158.69Zm-184,26.86a40.66,40.66,0,0,1-40.84-39.13A31.69,31.69,0,1,0,675,104.2a39.65,39.65,0,0,1,4.39-.27,40.81,40.81,0,1,1,.57,81.62Z"/><path class="cls-1" d="M420.38,419.18c8.69,0,17.85-2,14.56-11.76-3.4-10.05-18.66-15.74-28.16-17.28-11-1.79-22.43-1.1-33.16-4.46-3.42-1.07-9-4.59-12.44-2.17a65.28,65.28,0,0,1-16.53,8.32c-8,2.75-16.26,5-23.86,9-3.85,2-7.77,3.85-11.68,5.73-.77.37-.72.6-.06,1,.45.26.87.57,1.32.83a64.6,64.6,0,0,0,33.42,9.14c13.45-.14,26.71,4.22,40.13,2.83,8.71-.9,16.73-2.8,25.6-1.86A101.31,101.31,0,0,0,420.38,419.18Z"/><path class="cls-1" d="M181,291.11a22.24,22.24,0,1,0,22.23,22.24A22.24,22.24,0,0,0,181,291.11Z"/><path class="cls-1" d="M425.73,344.47c-5.4-11.35-25.89-15.94-37.19-14.45A81.7,81.7,0,0,0,369,335.41a87.36,87.36,0,0,1-21.33,6c-10,1.26-19.52,4.53-29.64,4a105.74,105.74,0,0,0-22,1.13c-3.89.63-6.87-3-9.8-5-3.46-2.38-7.05-4.56-10.46-7-7.11-5.09-10.85-11.62-16.32-18.1-.26-.3-.72-.6-.6-1s.78-.37,1.2-.44c23.26-3.51,47.61-8.13,69.85-15.87a41.32,41.32,0,0,0,15.91-10c3.41-3.43,5.63-8.51,2.76-13.56a13.17,13.17,0,0,0-7.05-5.87c-8.41-3.25-18.67-1.81-27.49-1.5-16.16.58-32.78,4.54-48.93,3.26-14.07-1.11-27-7.68-39.94-13.16-14.25-6-28.38-9.34-43.95-7.74-8.39.87-16.47,3.19-24.49,5.68-18,5.59-36.83,3.69-55.22,1.73-19.85-2.11-39.76-3.74-59.51-6.7-8.51-1.27-17-2.78-25.39-4.64-2.36-.53-3-.25-4.27,1.85C2.51,264.41-.72,284.75.13,303.2c.61,13.26,3.16,28.58,11.48,39.35,3.49,4.54,14.86,2.07,19.7,2q28.07-.5,56.11,0c9.13.17,18.4.24,26.19,5.66,11.35,7.9,25.13,12,36.84,19.58,12,7.71,23.63,16.71,32.92,27.56C188.11,402.89,192,409,197,414.3a118,118,0,0,0,17.52,14.79c9.79,6.85,21.16,11.6,30.39,19.13,6.57,5.36,14.11,7.46,22.29,8,.63,0,1.26.07,1.9.09,6,.22,11.76,1.77,17.52,3.22,5.53,1.38,11.58,3.42,17.25,1.72A6,6,0,0,0,308.3,455a15.53,15.53,0,0,0-2.88-8.07c-8.27-12.39-24.33-17.3-37.86-21.46-10.08-3.1-18.87-10.23-25.19-18.58-.79-1.06-.57-1.81.72-2.17a5.77,5.77,0,0,1,1.38-.12c23.12-.88,47.64,9.48,69.43-2.53,14.94-8.23,32.83-10.41,46.71-20.56,7.72-5.65,16.4-9.27,25.5-12,4.57-1.35,8.77-3.25,12-6.89,3.61-4,3-8.61-1.5-11.66a26.34,26.34,0,0,0-9.9-4,73,73,0,0,0-28,.21c-18.79,3.67-36.87,9.89-54.95,16-7.24,2.45-15.4-.34-22.73-1.27-8.28-1-16.61-1.75-24.94-2.22-2.49,0-5,0-7.47,0-.88,0-2.3.6-2.34-.91s1.39-1.1,2.3-1.11a249.29,249.29,0,0,1,27.72,1.62c6.52.64,13,1.74,19.42,2.79a11.78,11.78,0,0,0,5.83-.28c15.09-5.06,30.15-10.19,45.59-14.12,12.28-3.13,24.61-5,37.27-3.18,5,.73,9.84,2.14,14,5.28s5.06,6.87,3.22,11.5c-.11.25-.34.65-.25.75.26.3.64.07,1,0l4.51-1.25a55.5,55.5,0,0,0,16.41-7.36C426.71,351,427.5,348.19,425.73,344.47ZM226.16,315.34l-15.57,6.79,9.85,12.11a.88.88,0,0,1,.1,1,.9.9,0,0,1-.86.47l-16-1.33,2.11,15.69a.9.9,0,0,1-.39.86.88.88,0,0,1-1,0l-13.89-8.41-7.41,15.66a.89.89,0,0,1-.78.51.91.91,0,0,1-.81-.48l-8.17-15.44L159.1,352a.89.89,0,0,1-.93,0,.9.9,0,0,1-.44-.83l1.11-17.13-16.5,1.07a.88.88,0,0,1-.85-.47.9.9,0,0,1,.08-1l9.91-12.92-16.13-6a.9.9,0,0,1-.07-1.65l16.39-7.64-10-12.91a.9.9,0,0,1-.08-1,.86.86,0,0,1,.83-.48h0l17.16.82-.41-17.46a.88.88,0,0,1,.47-.81.91.91,0,0,1,.94.06l13.67,9.71,7-13.44a.88.88,0,0,1,.79-.48.9.9,0,0,1,.79.47l7.64,14.26,14.56-8.95a.86.86,0,0,1,1,0,.88.88,0,0,1,.38.88l-2.75,16.25,16.65-1.76a.9.9,0,0,1,.86.43.92.92,0,0,1,0,1L211,306.63c5.09,2.23,10.19,4.62,15.16,7.1a.9.9,0,0,1,.5.82A.89.89,0,0,1,226.16,315.34Z"/></svg>