<svg id="Layer_1" data-name="Layer 1" xmlns="http://www.w3.org/2000/svg" viewBox="0 0 514.88 864"><defs><style>.cls-1{fill:#a16e58;}.cls-2{fill:#f8efe3;}</style></defs><title>Untitled-32</title><path class="cls-1" d="M483.49,259.31V604.73A225.87,225.87,0,0,1,261,830.73c-1.18,0-2.36,0-3.53,0-124.83,0-226-101.2-226-226V259.31A226,226,0,0,1,161.63,54.52v0a225.27,225.27,0,0,1,91.22-21.17c1.52-.07,3.06-.07,4.58-.07A226.06,226.06,0,0,1,483.49,259.31Z"/><path class="cls-1" d="M439.46,72.87C390.86,25.88,326.19,0,257.43,0S124,25.88,75.39,72.87,0,182.31,0,248.75V615.28c0,66.45,26.75,128.9,75.39,175.89S188.66,864,257.43,864s133.43-25.85,182-72.83,75.42-109.44,75.42-175.89V248.75C514.88,182.31,488.1,119.86,439.46,72.87Zm64.7,542.41c0,65.74-27.66,125.33-72.36,168.49s-106.35,69.91-174.37,69.91c-136.06,0-246.74-106.95-246.74-238.4V248.75c0-131.45,110.68-238.4,246.74-238.4s246.73,107,246.73,238.4Z"/><path class="cls-2" d="M291.93,430.33h0a1.46,1.46,0,0,0,0-2.69h0c-14.75-4.09-26.25-17.77-29.7-35.28h0a1.13,1.13,0,0,0-2.26,0h0c-3.44,17.51-15,31.19-29.69,35.28h0a1.46,1.46,0,0,0,0,2.69h0c14.74,4.09,26.25,17.76,29.69,35.28h0a1.13,1.13,0,0,0,2.26,0h0C265.69,448.09,277.19,434.42,291.93,430.33Z"/><path class="cls-2" d="M414.72,441.72c0-7.26-1.67-14.92-9.82-12.16-8.4,2.84-13.15,15.58-14.44,23.53-1.49,9.18-.92,18.74-3.73,27.7-.89,2.86-3.83,7.53-1.81,10.4A54.1,54.1,0,0,1,391.87,505c2.3,6.72,4.19,13.59,7.49,19.94,1.68,3.22,3.22,6.5,4.79,9.77.31.64.51.59.83,0,.21-.37.48-.72.69-1.1a54,54,0,0,0,7.64-27.92c-.12-11.25,3.52-22.33,2.36-33.54-.75-7.28-2.34-14-1.55-21.39A84,84,0,0,0,414.72,441.72Z"/><path class="cls-2" d="M329.52,673.19a34.08,34.08,0,0,1-1.44-68.13,26.47,26.47,0,1,0,35.25,30,31.71,31.71,0,0,1,.24,3.67A34,34,0,0,1,329.52,673.19ZM449.88,539.08a5,5,0,0,0-5.24-3.69,13.07,13.07,0,0,0-6.76,2.38c-10.35,6.93-14.45,20.34-17.95,31.66-2.58,8.41-8.53,15.77-15.52,21-.88.68-1.52.48-1.82-.6a6.27,6.27,0,0,1-.1-1.14c-.71-19.33,7.93-39.83-2.08-58-6.89-12.51-8.71-27.47-17.21-39.06-4.71-6.45-7.73-13.68-10-21.31-1.14-3.8-2.72-7.33-5.74-10.05-3.4-3-7.2-2.52-9.75,1.28a22,22,0,0,0-3.39,8.27,61.19,61.19,0,0,0,.2,23.36c3.06,15.69,8.27,30.82,13.37,45.94,2.05,6-.26,12.84-1,19Q365.56,568.49,365,579c0,2.08,0,4.13,0,6.22,0,.74.5,1.91-.77,1.95s-.91-1.15-.91-1.92a213.64,213.64,0,0,1,1.34-23.16c.54-5.44,1.45-10.82,2.36-16.23a10.47,10.47,0,0,0-.24-4.87c-4.23-12.61-8.54-25.18-11.83-38.08-2.59-10.26-4.17-20.57-2.65-31.16a24.82,24.82,0,0,1,4.43-11.66c2.52-3.33,5.72-4.24,9.61-2.69.21.06.54.27.61.2.27-.24.07-.54,0-.81-.37-1.28-.71-2.52-1-3.76a47.27,47.27,0,0,0-6.15-13.72c-1.95-2.85-4.34-3.53-7.43-2.05-9.51,4.54-13.34,21.65-12.1,31.09a67.92,67.92,0,0,0,4.54,16.3,73.19,73.19,0,0,1,5,17.85c1.08,8.34,3.8,16.3,3.36,24.74A91,91,0,0,0,354,545.6c.54,3.26-2.48,5.75-4.16,8.21-2,2.89-3.8,5.88-5.85,8.73-4.24,6-9.72,9.05-15.13,13.65-.23.2-.5.57-.84.47s-.3-.64-.37-1c-2.92-19.46-6.79-39.8-13.24-58.39A35.14,35.14,0,0,0,306.09,504c-2.89-2.82-7.12-4.67-11.36-2.28a11.1,11.1,0,0,0-4.9,5.88c-2.69,7-1.52,15.6-1.25,23,.51,13.51,3.8,27.42,2.73,40.9-.91,11.77-6.42,22.59-11,33.38-5,11.9-7.79,23.73-6.45,36.73.71,7,2.66,13.75,4.74,20.47,4.67,15,3.09,30.76,1.45,46.12-1.79,16.6-3.13,33.24-5.62,49.74-1,6.72-11,60.84-13.47,72.84a225,225,0,0,0,90.61-20.44c1.11-15.7.81-40.6.77-43.46q-.4-23.45,0-46.89c.13-7.63.2-15.36,4.7-21.88,6.62-9.47,10.08-21,16.37-30.78,6.45-10,14-19.73,23-27.5,4.64-4,9.78-7.16,14.19-11.43A96.5,96.5,0,0,0,423,613.73c5.75-8.16,9.72-17.68,16-25.41,4.47-5.47,6.25-11.79,6.69-18.62,0-.53,0-1,.07-1.58.17-5,1.48-9.84,2.69-14.65C449.58,548.86,451.29,543.79,449.88,539.08Z"/><path class="cls-2" d="M100.14,422.3c0,7.27,1.67,14.92,9.82,12.17,8.4-2.84,13.15-15.59,14.44-23.53,1.49-9.19.92-18.75,3.73-27.71.89-2.86,3.83-7.53,1.81-10.4A54.59,54.59,0,0,1,123,359c-2.3-6.72-4.19-13.59-7.49-19.94-1.67-3.21-3.22-6.49-4.79-9.76-.31-.65-.51-.6-.82-.05-.22.38-.48.73-.7,1.11a54,54,0,0,0-7.64,27.92c.12,11.24-3.52,22.32-2.36,33.53.76,7.28,2.34,14,1.56,21.39A81.46,81.46,0,0,0,100.14,422.3Z"/><path class="cls-2" d="M236.25,202c-4.64-15-3.06-30.79-1.44-46.15,1.78-16.57,3.16-33.2,5.61-49.71.87-5.71,8.6-51.39,12.43-72.83a225.27,225.27,0,0,0-91.22,21.17v0c-.47,15.66.85,39.86.88,42.65.27,15.66.27,31.26,0,46.89-.17,7.63-.2,15.39-4.74,21.91-6.59,9.48-10.05,21-16.37,30.75-6.42,10-14,19.77-23,27.53-4.64,4-9.75,7.16-14.19,11.4A98.73,98.73,0,0,0,91.86,250.3c-5.72,8.17-9.71,17.68-16,25.38-4.47,5.51-6.22,11.79-6.65,18.65,0,.5-.07,1-.11,1.58-.16,5-1.47,9.81-2.68,14.62-1.15,4.64-2.86,9.68-1.42,14.42a5,5,0,0,0,5.25,3.7A13,13,0,0,0,77,326.23c10.35-6.89,14.46-20.34,17.92-31.63,2.59-8.44,8.57-15.76,15.53-21,.87-.67,1.51-.47,1.81.6a4.48,4.48,0,0,1,.1,1.15c.74,19.32-7.93,39.83,2.12,58,6.86,12.5,8.7,27.43,17.17,39.05a67.37,67.37,0,0,1,10,21.28c1.14,3.83,2.72,7.36,5.78,10.05,3.36,3,7.19,2.55,9.74-1.24a22,22,0,0,0,3.37-8.27,60.59,60.59,0,0,0-.21-23.36c-3-15.73-8.23-30.82-13.37-45.95-2-6.05.3-12.84,1.07-19,.84-6.92,1.45-13.88,1.85-20.84,0-2.08,0-4.16,0-6.25,0-.74-.5-1.91.77-1.95s.91,1.18.91,1.92A197.77,197.77,0,0,1,150.21,302c-.54,5.44-1.45,10.82-2.32,16.2a9.58,9.58,0,0,0,.23,4.87c4.2,12.64,8.51,25.21,11.8,38.12,2.62,10.25,4.17,20.57,2.66,31.12a24.58,24.58,0,0,1-4.41,11.7c-2.55,3.33-5.74,4.23-9.61,2.69-.24-.1-.54-.27-.64-.2s-.07.53,0,.8c.34,1.25.68,2.52,1.05,3.77a45.62,45.62,0,0,0,6.15,13.71c1.91,2.86,4.3,3.5,7.43,2,9.47-4.51,13.31-21.62,12.06-31.06a67.92,67.92,0,0,0-4.5-16.3,72.7,72.7,0,0,1-5-17.85c-1-8.33-3.8-16.3-3.36-24.77a88.72,88.72,0,0,0-.94-18.35c-.54-3.26,2.49-5.75,4.17-8.2,2-2.89,3.83-5.88,5.84-8.74,4.27-5.95,9.72-9.08,15.13-13.65.27-.2.5-.6.84-.5s.3.67.37,1c2.92,19.42,6.79,39.79,13.28,58.38A34.3,34.3,0,0,0,208.79,360c2.86,2.85,7.09,4.7,11.33,2.31a11,11,0,0,0,4.9-5.88c2.73-7.06,1.52-15.63,1.25-23-.47-13.51-3.8-27.39-2.72-40.87.94-11.76,6.42-22.62,11-33.37,5.07-11.94,7.83-23.73,6.48-36.74C240.28,215.45,238.34,208.72,236.25,202Zm-11.46,21.81-11.9,6.39,7.46,12.17a.69.69,0,0,1,0,.8.74.74,0,0,1-.74.31L206,241.19l1.45,13.92a.72.72,0,0,1-1.14.67l-12.17-8.4c-1.85,4.23-3.83,8.5-5.92,12.67a.8.8,0,0,1-.67.4.7.7,0,0,1-.67-.44l-5.68-13-10.12,8.23a.77.77,0,0,1-.8.07.75.75,0,0,1-.41-.71L171,241.19,157.9,243a.72.72,0,0,1-.7-.33.79.79,0,0,1,0-.81l7-11.6-13.08-6.18a.74.74,0,0,1-.43-.67.8.8,0,0,1,.4-.67L164,215.88l-7.7-11.9a.74.74,0,0,1,0-.8.77.77,0,0,1,.7-.37l14.29.94L170.37,190a.72.72,0,0,1,.41-.71.72.72,0,0,1,.8.07l10.79,8.27,5-13.48a.73.73,0,0,1,.67-.47.71.71,0,0,1,.71.4l6.38,13.72,10.79-8.34a.73.73,0,0,1,.81-.07.81.81,0,0,1,.4.68l-.7,14.35,14.58-.34a.75.75,0,0,1,.71.41.7.7,0,0,1-.07.77l-8.1,11.43,11.23,5.84a.74.74,0,0,1,0,1.31Z"/><path class="cls-2" d="M188.57,203.67a18.58,18.58,0,1,0,18.58,18.58A18.58,18.58,0,0,0,188.57,203.67Z"/></svg>