<svg id="Layer_1" data-name="Layer 1" xmlns="http://www.w3.org/2000/svg" viewBox="0 0 681.8 864"><defs><style>.cls-1{fill:#a16e58;}</style></defs><title>Untitled-32</title><path class="cls-1" d="M681.45,672.29c-1.29-2.43-4.92-1.58-7.08-1.07l-.73.17a19,19,0,0,1-10.91-1c-4.19-1.63-7.82-4.44-11.33-7.16-3.92-3-8-6.16-12.86-7.77-8-2.62-16.44-2.13-25.89-1.28a44.07,44.07,0,0,1-9.86-.24,65.8,65.8,0,0,1,7.54-1.53c4.92-.8,10-1.63,14.21-4.52,5.23-3.6,8.69-9.67,10.28-18a3.23,3.23,0,0,0-1.69-3.69c-1-.47-2.41-.68-3.88,1l-.11.13c-2.76,3.37-6.93,5.34-12.08,5.7a40.9,40.9,0,0,1-6.64-.27,46.19,46.19,0,0,0-6.13-.3c.43-.52,1-1.21,1.63-2.11.25-.33.44-.6.55-.73,5.22-6.26,8.4-13.86,11.48-21.2l.12-.28c.38-.92.75-1.85,1.13-2.8a50.24,50.24,0,0,1,3.81-8.19c2-3.25,5-5.79,7.9-8.24a67.5,67.5,0,0,0,5.16-4.74c5.9-6.25,8.82-15.45,7.79-24.64a3.16,3.16,0,0,0-2.47-3.11c-2.14-.4-3.46,1.77-4.28,3.1-.43.71-.82,1.43-1.2,2.14a21.13,21.13,0,0,1-2.47,3.89c-4.4,5.15-10.53,7-17.5,8.63-6.35,1.52-13,3.57-18.3,8.19-5.57,4.82-9.68,11-13.31,16.54a43.57,43.57,0,0,1-6.36,7.59,20,20,0,0,1,1.07-2.57c.8-1.7,1.77-3.36,2.72-5a57.6,57.6,0,0,0,3-5.65c4.07-8.77,2.16-17.82-5.68-26.92a3.25,3.25,0,0,0-3.94-1c-2,1-1.72,2.93-1.5,4.37.05.36.11.71.13,1a18.33,18.33,0,0,1-3,11.26,35.44,35.44,0,0,1-4.67,5.41,41.8,41.8,0,0,0-4.23,4.74,59.46,59.46,0,0,0-5.09-16.7,77.25,77.25,0,0,0-4.27-7.62,70.75,70.75,0,0,1-4.56-8.28,37.93,37.93,0,0,1-2.68-9.09,50.12,50.12,0,0,1-.48-6.54,38.17,38.17,0,0,0-1.12-9.49,32.82,32.82,0,0,0-13.91-19c-1.52-1-2.86-1-4,0-2,1.74-.48,5,.46,7,.1.23.2.43.28.61a19,19,0,0,1,1.71,10c-.53,5.25-2.9,10.35-5.09,14.72-3.4,6.79-4.86,13.54-4.22,19.52a83.15,83.15,0,0,0,3.33,16,66,66,0,0,1,3.12,13c-.36-.61-.72-1.24-1.07-1.89a48.89,48.89,0,0,1-2.58-6,60.46,60.46,0,0,0-2.38-5.69c-4.31-8.64-12.58-12.78-24.58-12.34a3.24,3.24,0,0,0-3.22,2.46C491,575,492.75,576,494,576.69c.3.17.6.34.87.52a18.16,18.16,0,0,1,4,3.76c2.85,3.62,3.45,7.82,4.09,12.28a53.55,53.55,0,0,0,1.15,6.28,32.89,32.89,0,0,0-3.58-1.56c-.42-.17-.77-.3-1-.41a59.05,59.05,0,0,0-6.77-2.45c-3.73-1.1-7.64-2-11.42-2.8-6.3-1.38-12.81-2.81-18.77-5.44a77.27,77.27,0,0,1-8.48-4.58c-5.7-3.4-11.6-6.92-19.16-6.92a32.9,32.9,0,0,0-10.71,1.83c-1.71.59-2.55,1.63-2.5,3.1.1,2.74,3.35,3.41,5.73,3.9.6.13,1.18.25,1.57.38,8,2.66,11.85,9.92,15.59,16.94.73,1.38,1.47,2.76,2.23,4.1,6.64,11.7,18,16.71,29,20.85a44.12,44.12,0,0,1,7.71,3.95l-.48-.06-.73-.09a49.48,49.48,0,0,1-6.93-1.59c-1.37-.38-2.77-.78-4.2-1.1-9.91-2.21-18.87,1.66-25.9,11.21a3.24,3.24,0,0,0-.08,4.06c.66.85,1.89,1.67,3.93.75a17.84,17.84,0,0,1,15,.49,47.88,47.88,0,0,1,4.36,2.57,45.06,45.06,0,0,0,4.63,2.69c-4.57,1.3-10.48,6.26-13.64,8.92l-.83.7c-1.81,1.5-3.54,3-5.21,4.5-6.79,6-13.21,11.63-22.91,13.8a32.57,32.57,0,0,0-18.67,11.42,33.16,33.16,0,0,0-5.24,9.51c-.23.64-.92,2.58.24,3.54,1.68,1.37,5.74-.58,11.75-4.17.7-.42,1.43-.85,1.59-.91,6.12-2,12.21-.8,18.66.46,6,1.17,12.15,2.38,18.25.76A65.4,65.4,0,0,0,474,690.79c.74-.44,1.46-.9,2.18-1.35a45.35,45.35,0,0,1,4.74-2.74,22.13,22.13,0,0,1,3-1c.56-.15,1.14-.3,1.69-.47-1.62,1.44-3.35,2.78-5,4.09a63.3,63.3,0,0,0-8.3,7.26c-5.48,6.06-6.87,13.74-4.24,23.48a3.22,3.22,0,0,0,3.16,2.6,2.92,2.92,0,0,0,2.91-2.28l.14-.48a17.64,17.64,0,0,1,9-10.82,42.24,42.24,0,0,1,5.9-2.5,47.68,47.68,0,0,0,5.64-2.34,57,57,0,0,0-2.61,18.8c0,2.13.16,4.19.25,6.21.46,9.36.86,17.44-3.47,26.34a32.73,32.73,0,0,0,1.45,31.74,3.38,3.38,0,0,0,2.78,1.86,3.29,3.29,0,0,0,.81-.11c2.67-.74,2.82-5,2.94-8.42a19.71,19.71,0,0,1,.25-3.07c1.67-6.58,6.8-11.38,11.6-15.21,4.42-3.53,9.9-8.41,13-14.92,2.75-5.71,4-12,4.8-17.36.17-1.12.3-2.26.43-3.4.18-1.63.37-3.31.7-4.91a17.48,17.48,0,0,1,1.16-3l.52-1.18c0,2.16-.09,4.36-.23,6.51-.31,5.07-.63,10.31,1.33,15.09,2.41,5.89,9.6,13.12,16,14.07a2.93,2.93,0,0,0,2.92-.85,4.22,4.22,0,0,0,.19-4.06,28.56,28.56,0,0,0-1.37-3,13.14,13.14,0,0,1-1.83-5.67c-.18-4,1-8.09,2.11-12,.44-1.54.89-3.11,1.26-4.67a28.22,28.22,0,0,0,3.62,4.07c.46.45.86.84,1.12,1.14,3.93,4.36,8.7,7.83,13.31,11.2,2.43,1.77,4.95,3.6,7.3,5.54a38.86,38.86,0,0,1,10,11.48c7.12,13,15.74,19.69,27.17,21.06a6,6,0,0,0,.7,0,2.87,2.87,0,0,0,2.85-1.76c1-2.36-2.22-5.4-5.09-8.08a21.37,21.37,0,0,1-2.67-2.75c-3.55-5.45-3.92-12.31-3.89-17,0-5.95-.35-13.62-3.68-20.24-3.2-6.37-8.26-11.66-13.14-16.77l-.25-.26a44.09,44.09,0,0,1-6-8c.62.4,1.23.83,1.84,1.27,1.75,1.27,3.43,2.77,5.06,4.21a44.55,44.55,0,0,0,8.3,6.29c6.69,3.59,14.89,3,23.69-1.64a3.27,3.27,0,0,0,1.83-3.63c-.23-1-1-2.31-3.22-2.38h-.16a17.58,17.58,0,0,1-11.81-5.41,33.57,33.57,0,0,1-4.33-5.89,45.43,45.43,0,0,0-3.24-4.71,20.76,20.76,0,0,0,3.44-.17c.58,0,1.11-.11,1.51-.12,7.85-.17,15.48-2.36,22.86-4.48l.82-.24,2.11-.63a37.78,37.78,0,0,1,9-1.93,44.39,44.39,0,0,1,10,1.06,62.79,62.79,0,0,0,7.33,1.06,32,32,0,0,0,24.48-9.29C681.83,674.9,682.13,673.59,681.45,672.29Z"/><path class="cls-1" d="M509.66,835c-97.55-19-160-111.46-141.86-207.75C385.62,532.66,471.91,473,562.52,483a196.61,196.61,0,0,0-29.7-8.12,204.43,204.43,0,0,0-30.57-3.55V263.1A24.42,24.42,0,0,0,513.42,266a12,12,0,0,0,6.48-1.56c5-2.86,6.38-7.51,6.44-12.77.09-7.58-.93-15.1-1.7-22.62-2-19.9-.25-39.66-4.87-59.34-3.23-13.79-10-25.81-14.34-39.08-1.7-5.18-2.92-10.52-4.93-15.61-4.28-10.83-9.84-20.78-19.58-27.75-24.19-17.33-47.61-34.17-67.62-56.47-7.73-8.61-16-16.7-25.53-23.37-5.26-3.67-10.84-5.73-17.3-5.52-55.86,1.68-101.4,31.37-153.7,45.68-14.56,4-30.33,2.44-44.52-2.28C146.31,36.67,122,18.78,99.93,3,95.11-.4,90.41-.87,85,1.39,43.83,18.67,10.15,57.82.28,111.54c-.63,3.42-.38,7.09,2.76,9,36.35,22.34,73.89,39.78,107.4,67.12C123,197.94,135,207,151.65,209.32c25.87,3.55,45.95-11.21,67.51-23,4.45-2.43,9.16-3.6,14.27-2a53.92,53.92,0,0,0,28,1.48,17,17,0,0,1,15.76,4.31c3.7,3.38,7.48,6.68,11.09,10.16,2.51,2.42,4.78,5.08,7.15,7.64.54.59.8,1.29.15,1.93s-1.47.38-2.09-.26c-.46-.47-.88-1-1.31-1.46a107.58,107.58,0,0,0-10-10c-.38-.33-.92-.93-1.19-.83-.63.22-.46,1-.43,1.54a50.29,50.29,0,0,0,1.94,12.9,10.41,10.41,0,0,1,.33,1c.12.71,0,1.34-.79,1.57a1.2,1.2,0,0,1-1.58-.79,24.41,24.41,0,0,1-.95-2.89,40.44,40.44,0,0,1-1.39-13c.26-2.83-.94-4.3-2.88-5.94a14.4,14.4,0,0,0-13.63-3.12,55.65,55.65,0,0,1-6,1.19c-1.3.18-1.46.65-1.17,1.84a84.44,84.44,0,0,0,14.38,29.71c11.85,15.4,29.73,11.57,46.49,10.41,8.35-.57,16.44-2.07,23.83-6.29,6.17-3.52,9.26-9,9.61-15.87a27.8,27.8,0,0,0-3.83-15.27c-5.48-9.59-12.72-17.87-20.12-26a202.77,202.77,0,0,0-15.15-14.45c-.75-.67-1.75-1.5-.81-2.56s1.69-.1,2.41.53c14.35,12.54,62.52,57.54,29.19,75.87a55.69,55.69,0,0,1-18.6,5.94c-8.5,1.31-19.44-.91-25.42,6.65-3.16,4-5.8,9.66-6.12,14.8-1.23,19.66,26.17,7.81,35.45,5.19,7.8-2.21,15.6-3,23.52-4.34,9-1.51,16.53-5.53,22.34-12.81,8.56-10.74,15.92-22.47,24.81-32.94,2.42-2.84,4.94-5.83,6.08-9.51a31.51,31.51,0,0,0,.14-18.69c-4-13.53-13.93-23.24-23.65-32.87q-16.56-16.42-34.31-31.56c-.53-.45-1.12-1.09-.88-1.75.37-1,1.87-.52,2.72.11,12.49,9.38,23.69,20.17,34.95,31,10.08,9.65,19.9,20.82,23.65,34.58,2.57,9.42,2.28,18.6-4,26.77-.79,1-1.46,4.16-1.75,5.29C393.25,237.12,377.41,249,382,272c1.92,9.59,10.24,13.38,18.69,8.49,13.49-7.83,22.59-23.29,33.65-34.17,8.41-8.28,15.53-16.13,17.21-28.45s2.56-24.88,1.51-37.42c-1-12.22,1.13-25.73-6.79-36.21a421.15,421.15,0,0,0-32.35-37.73,5.58,5.58,0,0,1-.47-.69,2.37,2.37,0,0,1,.69.27c3.15,2.71,6.85,4.65,10.17,7.12,12.43,9.25,27.93,17.65,34.47,32.47,11.31,25.62,25,50.91,25.8,79.69A56.13,56.13,0,0,0,491,250.9V471.24c-92.43,1.52-171.46,67.29-188.89,160.51-20,107.14,50.61,209,156.91,228.85a195.75,195.75,0,0,0,157.41-38.67A177.87,177.87,0,0,1,509.66,835ZM319.58,80.25a48,48,0,0,0-18.17,16.84A51,51,0,0,0,297,107c-.34.89-.57,2-1.86,1.59s-.9-1.5-.58-2.41a51.09,51.09,0,0,1,7.64-14.78c4.53-4.93,9.5-10.22,16.23-13.43.84-.4,1.8-1.12,2.48,0S320.5,79.77,319.58,80.25Zm26.91-32.79c-1.1.83-2.24,1.61-3.32,2.46a34.66,34.66,0,0,0-11.89,17c-.32,1-.27,3-2.06,2.42s-.68-2.13-.37-3.21a40.39,40.39,0,0,1,6.34-12.08A52.65,52.65,0,0,1,344,46c.36-.24.71-.49,1.1-.7.76-.41,1.57-.58,2.09.32S347.11,47,346.49,47.46Z"/><path class="cls-1" d="M453.11,222.28c-.41,1.61.57,1.9,1.56,2.27A187.2,187.2,0,0,0,481,232.29c1.4.31,1.62-.19,1.53-1.4-.22-2.68-.34-5.37-.54-8a119,119,0,0,0-3.26-22c-2.23-8.4-5.91-16.23-9.55-24.08a8.3,8.3,0,0,0-1.47-2.4c-3.36-2-6.58-3.86-9.63-6-.92-.64-2.09-2-2.86-1.5s-.33,2.14-.29,3.28c.25,7.62,1.49,15.2,1.09,22.86C455.49,202.84,455.56,212.69,453.11,222.28Z"/></svg>