<svg id="Layer_1" data-name="Layer 1" xmlns="http://www.w3.org/2000/svg" viewBox="0 0 705.96 864"><defs><style>.cls-1{fill:#a16e58;}</style></defs><title>Untitled-32</title><path class="cls-1" d="M203.1,335.68a4.47,4.47,0,0,0-4.47-4.46H91.93a4.47,4.47,0,0,0,0,8.93h106.7A4.47,4.47,0,0,0,203.1,335.68Z"/><path class="cls-1" d="M218.06,391.54a4.44,4.44,0,0,0-6.09-1.63l-92.41,53.35a4.45,4.45,0,0,0,1.08,8.17,4.16,4.16,0,0,0,1.16.16A4.51,4.51,0,0,0,124,451l92.41-53.36A4.46,4.46,0,0,0,218.06,391.54Z"/><path class="cls-1" d="M261,435.13a4.47,4.47,0,0,0-8.18-1.07L199.5,526.47a4.46,4.46,0,0,0-.44,3.39,4.48,4.48,0,0,0,4.3,3.3,4.46,4.46,0,0,0,3.87-2.23l53.36-92.41A4.45,4.45,0,0,0,261,435.13Z"/><path class="cls-1" d="M310.34,451.86v106.7a4.47,4.47,0,0,0,8.93,0V451.86a4.47,4.47,0,1,0-8.93,0Z"/><path class="cls-1" d="M426.25,533.16a4.45,4.45,0,0,0,3.86-6.69l-53.35-92.41a4.47,4.47,0,0,0-8.18,1.07,4.41,4.41,0,0,0,.45,3.39l53.35,92.41A4.47,4.47,0,0,0,426.25,533.16Z"/><path class="cls-1" d="M507.82,451.59a4.21,4.21,0,0,0,1.16-.16,4.46,4.46,0,0,0,1.08-8.17l-92.41-53.35a4.46,4.46,0,1,0-4.47,7.72L505.59,451A4.52,4.52,0,0,0,507.82,451.59Z"/><path class="cls-1" d="M426.52,335.68a4.47,4.47,0,0,0,4.46,4.47h106.7a4.47,4.47,0,1,0,0-8.93H431A4.46,4.46,0,0,0,426.52,335.68Z"/><path class="cls-1" d="M411.11,276.44a4.46,4.46,0,0,0,3.15,5.47,4.62,4.62,0,0,0,1.16.15,4.42,4.42,0,0,0,2.23-.6l92.41-53.35a4.46,4.46,0,1,0-4.47-7.73l-92.41,53.35A4.41,4.41,0,0,0,411.11,276.44Z"/><path class="cls-1" d="M208.15,298.49a4.37,4.37,0,0,0-.71-5.42,5.85,5.85,0,0,0-3.11-1.59l-61.05-18.19c-2.73-.72-5.23.54-5.93,3S138,281,140.63,282c.4.15.79.28,1.19.4l60.23,17.9a7.7,7.7,0,0,0,2.2.37,4.38,4.38,0,0,0,3.85-2.11Z"/><path class="cls-1" d="M203.84,356.8a4.39,4.39,0,0,0-3.33-4.34,5.88,5.88,0,0,0-3.48.18l-62,14.78c-2.72.74-4.25,3.07-3.64,5.55a4.47,4.47,0,0,0,4.58,3.41,6.32,6.32,0,0,0,1.13-.1l1.23-.24,61.11-14.62C200.5,361.17,203.63,360.42,203.84,356.8Z"/><path class="cls-1" d="M229.26,409.46a4.36,4.36,0,0,0-5-2.1,6,6,0,0,0-2.93,1.89L175,453c-2,2-2.15,4.79-.37,6.63a4.29,4.29,0,0,0,3.14,1.37,5.4,5.4,0,0,0,3.45-1.36h0c.32-.27.64-.54.94-.82l45.62-43.22C228.56,414.91,230.89,412.69,229.26,409.46Z"/><path class="cls-1" d="M272.19,443.05a5.93,5.93,0,0,0-1.59,3.11l-18.18,61c-.73,2.73.53,5.23,3,5.93a4.53,4.53,0,0,0,1.29.19,4.82,4.82,0,0,0,4.43-3.48c.14-.39.28-.78.4-1.18l17.9-60.23c.3-1,1.21-4.11-1.82-6.1A4.38,4.38,0,0,0,272.19,443.05Z"/><path class="cls-1" d="M346.54,515.43A4.73,4.73,0,0,0,351,519.2a4.63,4.63,0,0,0,1.09-.13c2.46-.62,3.79-2.91,3.3-5.71-.07-.41-.14-.82-.24-1.22L340.54,451h0c-.24-1-1-4.16-4.62-4.37a4.37,4.37,0,0,0-4.34,3.33,6,6,0,0,0,.18,3.48Z"/><path class="cls-1" d="M435.79,477.08a4.24,4.24,0,0,0,3-1.23c1.83-1.76,1.83-4.41,0-6.59-.26-.32-.54-.64-.82-.94L394.77,422.7c-.74-.77-3-3.1-6.19-1.48a4.38,4.38,0,0,0-2.1,5,6,6,0,0,0,1.9,2.94l43.78,46.27A5.2,5.2,0,0,0,435.79,477.08Z"/><path class="cls-1" d="M421.47,372.88a4.36,4.36,0,0,0,.71,5.42,5.85,5.85,0,0,0,3.11,1.59l61,18.18a5.7,5.7,0,0,0,1.51.2,4.41,4.41,0,0,0,4.41-3.19c.71-2.44-.61-4.74-3.28-5.71-.39-.15-.79-.29-1.19-.41l-60.23-17.9c-1-.3-4.11-1.21-6.05,1.74Z"/><path class="cls-1" d="M425.77,314.57a4.37,4.37,0,0,0,3.33,4.33,4.1,4.1,0,0,0,1.31.2,8.2,8.2,0,0,0,2.17-.37l62-14.78c2.73-.74,4.26-3.08,3.64-5.56s-2.91-3.8-5.71-3.3c-.41.07-.82.14-1.22.24l-61.12,14.61C429.12,310.19,426,311,425.77,314.57Z"/><path class="cls-1" d="M400.35,261.91a4.26,4.26,0,0,0,3.79,2.24,6.31,6.31,0,0,0,1.26-.14,6,6,0,0,0,2.93-1.9l46.27-43.78c2-2,2.15-4.79.38-6.63s-4.42-1.83-6.6,0h0c-.32.27-.64.54-.94.82l-45.62,43.22C401.06,256.45,398.72,258.67,400.35,261.91Z"/><path class="cls-1" d="M332.45,221.87a6.27,6.27,0,0,0,.74,0,4.19,4.19,0,0,0,2.56-.83,5.85,5.85,0,0,0,2.06-4l3.32-23.88c.13-2.72-1.4-4.79-3.8-5.16s-4.45,1.12-5.18,3.9l-3.42,23.77a6.42,6.42,0,0,0,.58,4.06A4.19,4.19,0,0,0,332.45,221.87Z"/><path class="cls-1" d="M349.35,226.23a4.88,4.88,0,0,0,1.56.27,4.13,4.13,0,0,0,1.83-.42,5.87,5.87,0,0,0,2.78-3.57l7.73-22.84c.63-2.65-.48-5-2.77-5.78s-4.58.27-5.81,2.87l-7.81,22.71a6.4,6.4,0,0,0-.2,4.09A4.19,4.19,0,0,0,349.35,226.23Z"/><path class="cls-1" d="M271.52,228.62a4.46,4.46,0,0,0,1.66-.33,4.32,4.32,0,0,0,2.47-2.32,5.85,5.85,0,0,0-.23-4.52l-9-22.25,0-.1c-1.25-2.42-3.61-3.45-5.87-2.56s-3.3,3.2-2.53,6l8.92,22.3A6.44,6.44,0,0,0,269.4,228,4,4,0,0,0,271.52,228.62Z"/><path class="cls-1" d="M221.66,265.16h.06a4.19,4.19,0,0,0,3.34-1.66,4.33,4.33,0,0,0,1-3.25,5.77,5.77,0,0,0-2.45-3.8l-19-14.82c-2.29-1.47-4.85-1.18-6.36.72s-1.26,4.41.79,6.43l18.88,14.85A6.45,6.45,0,0,0,221.66,265.16Z"/><path class="cls-1" d="M211,280.05a4.2,4.2,0,0,0,3-2.25,4.28,4.28,0,0,0,.37-3.37,5.87,5.87,0,0,0-3.09-3.29L189.9,260c-2.52-1-5-.28-6.13,1.86s-.45,4.57,1.94,6.18L207,279.23a6.44,6.44,0,0,0,4,.83Z"/><path class="cls-1" d="M172.4,309.37h-.1a4.56,4.56,0,0,0-5.15,3.8c-.37,2.43,1.11,4.45,3.9,5.18l23.77,3.42a8.69,8.69,0,0,0,1.23.09,5.78,5.78,0,0,0,2.83-.67A4.2,4.2,0,0,0,201,318a4.31,4.31,0,0,0-.78-3.3,5.79,5.79,0,0,0-4-2.06Z"/><path class="cls-1" d="M179.86,392.79a6.68,6.68,0,0,0,1.77-.25l22.3-8.92a6.47,6.47,0,0,0,3.23-2.53,4.22,4.22,0,0,0,.26-3.78,4.36,4.36,0,0,0-2.33-2.47,5.85,5.85,0,0,0-4.52.23l-22.34,9.07c-2.42,1.25-3.45,3.61-2.56,5.87A4.27,4.27,0,0,0,179.86,392.79Z"/><path class="cls-1" d="M239.37,424.46a5.86,5.86,0,0,0-3.8,2.44l-14.82,19c-1.46,2.29-1.17,4.84.72,6.36a4.28,4.28,0,0,0,2.68,1,5.31,5.31,0,0,0,3.75-1.77l14.85-18.87a6.39,6.39,0,0,0,1.53-3.81,4.19,4.19,0,0,0-1.66-3.4A4.29,4.29,0,0,0,239.37,424.46Z"/><path class="cls-1" d="M297.16,449.5a4.34,4.34,0,0,0-3.3.78,5.87,5.87,0,0,0-2.06,4l-3.32,23.89c-.12,2.72,1.41,4.79,3.81,5.15a4.37,4.37,0,0,0,.72.06c2.1,0,3.8-1.45,4.45-4l3.42-23.77a6.42,6.42,0,0,0-.57-4.06A4.22,4.22,0,0,0,297.16,449.5Z"/><path class="cls-1" d="M367.51,475.14a4.45,4.45,0,0,0,1.62-.32c2.29-.9,3.3-3.19,2.53-6l-8.92-22.3a6.41,6.41,0,0,0-2.53-3.23,4.22,4.22,0,0,0-3.78-.26A4.38,4.38,0,0,0,354,445.4a5.86,5.86,0,0,0,.22,4.51l9.07,22.35A4.88,4.88,0,0,0,367.51,475.14Z"/><path class="cls-1" d="M406,414.92,425,429.68l.09.06a5.56,5.56,0,0,0,3,.93,4.29,4.29,0,0,0,3.4-1.65c1.53-1.92,1.25-4.41-.8-6.43l-18.87-14.85c-2.66-2.1-5.49-2.05-7.21.13a4.36,4.36,0,0,0-1,3.25A5.87,5.87,0,0,0,406,414.92Z"/><path class="cls-1" d="M457.21,362h.42a4.57,4.57,0,0,0,4.84-3.82c.37-2.42-1.12-4.45-3.9-5.17l-23.77-3.42c-3.36-.49-5.78,1-6.18,3.72a4.42,4.42,0,0,0,.78,3.3,5.87,5.87,0,0,0,4,2.06Z"/><path class="cls-1" d="M448,278.83l-22.29,8.92a6.32,6.32,0,0,0-3.23,2.53,4.16,4.16,0,0,0-.26,3.78,4.33,4.33,0,0,0,2.32,2.46,4.63,4.63,0,0,0,1.83.36,7.29,7.29,0,0,0,2.69-.58l22.35-9.07c2.41-1.25,3.44-3.61,2.56-5.88S450.75,278.05,448,278.83Z"/><path class="cls-1" d="M401.71,219.86l-14.85,18.87c-2.09,2.67-2,5.5.14,7.21a4.41,4.41,0,0,0,2.74,1,4.07,4.07,0,0,0,.5,0,5.85,5.85,0,0,0,3.8-2.45l14.82-19c1.47-2.29,1.18-4.85-.72-6.36S403.73,217.81,401.71,219.86Z"/><path class="cls-1" d="M386,204.67c-2.17-1.17-4.57-.45-6.19,1.92l-11.24,21.23c-1.58,3-1,5.77,1.42,7.07a4.44,4.44,0,0,0,2.88.49,3.89,3.89,0,0,0,.49-.12,5.85,5.85,0,0,0,3.3-3.09l11.18-21.37C388.92,208.28,388.17,205.82,386,204.67Z"/><path class="cls-1" d="M313.39,221.94a4.39,4.39,0,0,0,2.66-1.18,3.07,3.07,0,0,0,.34-.38,5.82,5.82,0,0,0,1-4.4l-2.58-24c-.54-2.67-2.53-4.3-4.95-4.07s-4,2.16-4.07,5l2.46,23.89C308.62,220.23,310.63,222.22,313.39,221.94Z"/><path class="cls-1" d="M415.07,335.68A100.27,100.27,0,1,0,314.81,436,100.39,100.39,0,0,0,415.07,335.68Zm-100.26,91.9a91.9,91.9,0,1,1,91.9-91.9A92,92,0,0,1,314.81,427.58Z"/><path class="cls-1" d="M692.44,344.49A179.42,179.42,0,0,0,571.2,239.58a1.5,1.5,0,0,0-1,2.83c89,37.24,130.47,136.93,94.35,227-37,88.4-138.8,131.15-227,95.3a1.5,1.5,0,0,0-1.31,2.68,179.4,179.4,0,0,0,21,10.41,185,185,0,0,0,35.38,10.81c-11,4.92-21.08,12-31.62,17.74a365.54,365.54,0,0,1-42,19.89c-21.71,8.55-44,17-61.86,32.43a186.75,186.75,0,0,1-24.06,18.09c-20.75,12.8-34.21,33.45-46.75,53.75-13.5,21.87-27.45,43.22-47,60.3-16.85,14.75,19.49,42,29.71,49.57,18.16,13.46,39.78,23.27,62.68,23.67a4.6,4.6,0,0,0,4.07-1.89c16-19.9,41-28.2,65.15-33.38,28.28-6.07,56.53-10,84-19.47,15.66-5.37,30.34-13.82,39.36-28.1,10.21-16.14,22.48-30.78,35.29-44.66,2.67-2.9,5.22-5.93,6.67-9.69a12.77,12.77,0,0,0,1-6.71c-.15-.93-.39-1.37-1.41-.62-5,3.69-10.18,7.21-15.15,11-9.43,7.14-18.48,14.77-27.64,22.25a5.5,5.5,0,0,1-1.28.8,1,1,0,0,1-1.18-.37.91.91,0,0,1,.06-1.22,6.51,6.51,0,0,1,1-.92c7.94-6.45,15.76-13,23.85-19.32,7.72-6,15.9-11.33,23.5-17.48,4.76-3.86,9.94-7.72,12.92-13.2.15-.27.41-.72.32-.85-.29-.36-.68-.06-1,.07s-.61.19-.9.32c-11.48,5.07-23.5,8.89-35.09,13.73a335,335,0,0,0-34.7,16.8c-.83.47-1.86,1.11-2.45-.14s.69-1.36,1.41-1.81c4.77-3,10-5,15-7.52,18.37-9.49,37.85-16.49,57.12-23.87,6.08-2.33,12.1-3.86,16.4-9,6.81-8.18,8.56-19.47,11.08-29.48,4.3-17.07,10.54-33.93,13.33-51.33,1.41-8.77,1.37-17.74,3.18-26.46a31.3,31.3,0,0,0,.88-9.64,6.55,6.55,0,0,0-6-6,179.53,179.53,0,0,0,71.91-221.32ZM508.1,752.92c.4-.7.89-1.41,1.78-.91s.51,1.4.08,2.13l-.4.65c-5.63,10.36-14.52,16.31-25.72,19.3-4.78,1.28-9.66,2.2-14.28,4a6.52,6.52,0,0,1-.72.21c-.56,0-1-.16-1.2-.75a1.13,1.13,0,0,1,.88-1.46c2.11-.69,4.2-1.44,6.35-2,4.29-1.13,8.57-2.28,12.8-3.64,8.95-2.9,15.33-8.72,19.94-16.72C507.77,753.46,507.94,753.2,508.1,752.92Zm83.15-157.63A152.19,152.19,0,0,0,578,627.75c-2.17,8.1-4.77,19.13-12.45,23.88-6.48,4-14.87,5.41-22.1,7.64-11.33,3.49-22.39,8.45-34.05,10.79-7.78,1.55-15.54,1.4-23.11,4.12a135.27,135.27,0,0,1-15.91,4.63A156.44,156.44,0,0,1,450.29,682c-4.23.4-8.48.64-12.72.75-.41,0-1.21-.06-1.25-.36s.37-.58.73-.82a27.63,27.63,0,0,0,3.06-2.28c2.8-2.38,5.75-4.61,8.67-6.86,19.16-14.78,41.27-25,58.87-41.91,7.87-7.54,15.81-15.84,16.94-27.22a20.31,20.31,0,0,0-1.81-11.32c1.68,0,3.35.09,5,.09a15.19,15.19,0,0,0-1,3.33,30,30,0,0,0,1.5,14.83,72.6,72.6,0,0,0,11.86,21.41,15.18,15.18,0,0,1,3.55,7.28c.31,2.27.76,4.51.88,6.8a93.2,93.2,0,0,0,1.33,9.25c.13.84.32,1.41,1.45,1.07,4.8-1.45,9.57-3,14.25-4.83a13.07,13.07,0,0,0,7.6-7.32c2-4.74,3.6-9.65,5.46-14.44a3.7,3.7,0,0,0,.05-2.62c-1.4-3.95-2.51-8.07-5.08-11.46-5-6.53-10.07-12.94-15.07-19.43a65.57,65.57,0,0,0-4.53-5.3,177.73,177.73,0,0,0,45.14-11.9c4.16-1.71,8.2-3.61,12.19-5.61C600.62,579.33,595.45,587.45,591.25,595.29Z"/><path class="cls-1" d="M138.49,225.27a120.81,120.81,0,0,1-23.38-11.07c-.81-.47-2.38-.95-1.59-2.27s1.88-.09,2.71.39a123.92,123.92,0,0,0,24.29,11.31c18.78,6.15,38,.31,55.25-7.77,1.84-.87,3.65-1.78,5.47-2.68l33.61,35.49a5.67,5.67,0,0,0,4,2,4.81,4.81,0,0,0,2.21-.57,4.36,4.36,0,0,0,2.1-5,5.9,5.9,0,0,0-1.89-2.93L209.81,209c6.89-3.49,13.77-7,20.84-10.11l22.2,38.46a4.47,4.47,0,0,0,7.74-4.46L239,195.37c.62-.24,1.2-.53,1.83-.76,11.85-4.46,24.1-12.28,36.58-14.33.69-.11,1.38-.15,2.07-.24l9.64,40.3h0c.25,1,1,4.16,4.62,4.38a4.39,4.39,0,0,0,4.34-3.33,5.91,5.91,0,0,0-.18-3.49l-9.2-38.57c14-.29,27.66,2.38,41.82,2.14,20.23-.34,39.12,10.11,59.51,6.35a19.3,19.3,0,0,0,8.94-3.69c3.83-3.11,4.67-7.56,2.31-11.94-5.85-10.83-21.94-12.32-32.75-13.68-14.13-1.79-27.92-6.39-41.06-11.78-15.3-6.26-31.21-10-47.91-9.56a98.23,98.23,0,0,1-11.12-.39c-1.46-.12-9.76-.14-9.42-2.25.14-.87.92-.9,1.64-.83s1.5.17,2.24.27a127.4,127.4,0,0,0,18.93,1,86.6,86.6,0,0,1,25.62,3.29,14.06,14.06,0,0,0,9.27-.35c10.63-3.88,21.51-4.17,32.55-1.78,18.61,4,37.47,6.7,56,11.28,13.67,3.38,27.05,8.17,41.26,8.7,6.55.25,12.68-1.16,17.71-5.82,3.47-3.2,4.35-7.34,2.16-10.76a8.7,8.7,0,0,0-3-2.54c-4.9-3-10.33-4.74-15.82-6.3-10.48-3-20.94-6-31.28-9.44-19.52-6.44-38.69-14.07-58.65-19.13-21-5.31-42.64-5.71-64.2-5.73a28.44,28.44,0,0,1-3.19-.19c-.66-.08-1.22-.45-1.16-1.23s.63-1,1.34-1c13.64.5,27.3.29,40.91,1.52,41.15,3.7,80.54,22.83,120,34a64.5,64.5,0,0,1,13.2,5.34,14.79,14.79,0,0,1,4.83,4.9c1.18,1.68,1.73,1.79,3.61,1,6.67-2.68,11.12-10.1,8.62-17.18-4.19-11.86-23.72-17.61-33.72-23.25-12.8-7.23-27.13-10.62-40.24-17-12.16-5.95-24.14-11-37.56-13.37-11.31-2-22.8-2.51-34.26-2.85-11.25-.32-22.5-1.88-33.66-3.38a4.62,4.62,0,0,1-.74-.15c-.68-.2-1.43-.44-1.28-1.33s.92-.9,1.64-.8l7.64,1a241.65,241.65,0,0,0,25.06,2.22c7.51.22,15,.89,22.48,1.54,4.73.41,9.49.5,14.2,1.37a88.08,88.08,0,0,1,9,2,6.49,6.49,0,0,0,4-.13A131.24,131.24,0,0,1,400.82,65c20.92-3.73,41.49,6.39,62.48.79,8-2.15,18.08-8.22,13.89-18a16,16,0,0,0-7.43-7.91c-12.82-6.88-27.9-8.39-42.18-9.38-16-1.1-32-1.28-48-2.83a36.49,36.49,0,0,0-14.95,2.06c-18.38,6-37.16,11-56.3,13.95a161.94,161.94,0,0,1-26.47,2.06c-8.13-.1-16.21-.07-23.78,3.31-9.6,4.3-18.06,10.52-27.19,15.68-34.71,19.61-74,27.58-111.12,41.62-48.71,18.45-80.92,66-117.95,99.76a5,5,0,0,0-1.59,5.59c5.56,18.93,21,35.31,34,49.52A336.05,336.05,0,0,0,80,302.62c.35.26.72.51,1.08.75,2.4,1.57,4,1.25,5.5-1.15,16.39-25.92,34.38-50.26,52.61-74.89C140.26,225.84,140.27,225.85,138.49,225.27Z"/><path class="cls-1" d="M291,43.45a183.88,183.88,0,0,0,23.79-3.18q21.78-4.5,43.16-10.65a2,2,0,0,0,1.5-1c2.28-4.63,4.3-9.32,4.23-14.64A14,14,0,0,0,342.89,1.74a48.92,48.92,0,0,0-8.41,5.92c-5.63,4.82-10.55,10.52-16.29,15.22a226.4,226.4,0,0,1-27.68,19.54c-.43.26-1.18.65-1.12.94S290.41,43.49,291,43.45Z"/><path class="cls-1" d="M540.75,642.92c-4-2.36-8-4.74-11.89-7.25A142.91,142.91,0,0,1,516.8,627c-.8-.64-1.25-.67-2,.08-2.07,2-4.26,3.81-6.41,5.7-6,5.25-11.6,10.89-18.37,15.14-1.35.85-.55,1.36,0,2a138.59,138.59,0,0,0,20.49,17.36,2.2,2.2,0,0,0,2.45.21c4.53-2,9.3-3.4,13.94-5.12,5.25-1.94,10.59-3.6,16-5.07.54-.14,1.2-.19,1-1a79.74,79.74,0,0,1-1.54-10.75A2.86,2.86,0,0,0,540.75,642.92Z"/><path class="cls-1" d="M471.62,660.69c-.8-.81-1.33-.3-2,.1A249.34,249.34,0,0,0,446.57,677a1.91,1.91,0,0,0,.44,3.44,5.69,5.69,0,0,0,2.26.2A82.39,82.39,0,0,0,465,677.83c5.42-1.58,11-2.62,16.29-4.66,1.33-.52,1.53-.82.57-2C478.74,667.4,475.05,664.17,471.62,660.69Z"/></svg>