  0
SECTION
  2
HEADER
  9
$ACADVER
  1
AC1024
  9
$ACADMAINTVER
 70
     6
  9
$DWGCODEPAGE
  3
ANSI_1251
  9
$INSBASE
 10
0.0
 20
0.0
 30
0.0
  9
$EXTMIN
 10
1.000000000000000E+20
 20
1.000000000000000E+20
 30
1.000000000000000E+20
  9
$EXTMAX
 10
-1.000000000000000E+20
 20
-1.000000000000000E+20
 30
-1.000000000000000E+20
  9
$LIMMIN
 10
0.0
 20
0.0
  9
$LIMMAX
 10
12.0
 20
9.0
  9
$ORTHOMODE
 70
     0
  9
$REGENMODE
 70
     1
  9
$FILLMODE
 70
     1
  9
$QTEXTMODE
 70
     0
  9
$MIRRTEXT
 70
     1
  9
$LTSCALE
 40
1.0
  9
$ATTMODE
 70
     1
  9
$TEXTSIZE
 40
0.2
  9
$TRACEWID
 40
0.05
  9
$TEXTSTYLE
  7
Standard
  9
$CLAYER
  8
0
  9
$CELTYPE
  6
ByLayer
  9
$CECOLOR
 62
   256
  9
$CELTSCALE
 40
1.0
  9
$DISPSILH
 70
     0
  9
$DIMSCALE
 40
1.0
  9
$DIMASZ
 40
0.18
  9
$DIMEXO
 40
0.0625
  9
$DIMDLI
 40
0.38
  9
$DIMRND
 40
0.0
  9
$DIMDLE
 40
0.0
  9
$DIMEXE
 40
0.18
  9
$DIMTP
 40
0.0
  9
$DIMTM
 40
0.0
  9
$DIMTXT
 40
0.18
  9
$DIMCEN
 40
0.09
  9
$DIMTSZ
 40
0.0
  9
$DIMTOL
 70
     0
  9
$DIMLIM
 70
     0
  9
$DIMTIH
 70
     1
  9
$DIMTOH
 70
     1
  9
$DIMSE1
 70
     0
  9
$DIMSE2
 70
     0
  9
$DIMTAD
 70
     0
  9
$DIMZIN
 70
     0
  9
$DIMBLK
  1

  9
$DIMASO
 70
     1
  9
$DIMSHO
 70
     1
  9
$DIMPOST
  1

  9
$DIMAPOST
  1

  9
$DIMALT
 70
     0
  9
$DIMALTD
 70
     2
  9
$DIMALTF
 40
25.4
  9
$DIMLFAC
 40
1.0
  9
$DIMTOFL
 70
     0
  9
$DIMTVP
 40
0.0
  9
$DIMTIX
 70
     0
  9
$DIMSOXD
 70
     0
  9
$DIMSAH
 70
     0
  9
$DIMBLK1
  1

  9
$DIMBLK2
  1

  9
$DIMSTYLE
  2
Standard
  9
$DIMCLRD
 70
     0
  9
$DIMCLRE
 70
     0
  9
$DIMCLRT
 70
     0
  9
$DIMTFAC
 40
1.0
  9
$DIMGAP
 40
0.09
  9
$DIMJUST
 70
     0
  9
$DIMSD1
 70
     0
  9
$DIMSD2
 70
     0
  9
$DIMTOLJ
 70
     1
  9
$DIMTZIN
 70
     0
  9
$DIMALTZ
 70
     0
  9
$DIMALTTZ
 70
     0
  9
$DIMUPT
 70
     0
  9
$DIMDEC
 70
     4
  9
$DIMTDEC
 70
     4
  9
$DIMALTU
 70
     2
  9
$DIMALTTD
 70
     2
  9
$DIMTXSTY
  7
Standard
  9
$DIMAUNIT
 70
     0
  9
$DIMADEC
 70
     0
  9
$DIMALTRND
 40
0.0
  9
$DIMAZIN
 70
     0
  9
$DIMDSEP
 70
    46
  9
$DIMATFIT
 70
     3
  9
$DIMFRAC
 70
     0
  9
$DIMLDRBLK
  1

  9
$DIMLUNIT
 70
     2
  9
$DIMLWD
 70
    -2
  9
$DIMLWE
 70
    -2
  9
$DIMTMOVE
 70
     0
  9
$DIMFXL
 40
1.0
  9
$DIMFXLON
 70
     0
  9
$DIMJOGANG
 40
0.7853981633974483
  9
$DIMTFILL
 70
     0
  9
$DIMTFILLCLR
 70
     0
  9
$DIMARCSYM
 70
     0
  9
$DIMLTYPE
  6

  9
$DIMLTEX1
  6

  9
$DIMLTEX2
  6

  9
$DIMTXTDIRECTION
 70
     0
  9
$LUNITS
 70
     2
  9
$LUPREC
 70
     4
  9
$SKETCHINC
 40
0.1
  9
$FILLETRAD
 40
0.5
  9
$AUNITS
 70
     0
  9
$AUPREC
 70
     0
  9
$MENU
  1
.
  9
$ELEVATION
 40
0.0
  9
$PELEVATION
 40
0.0
  9
$THICKNESS
 40
0.0
  9
$LIMCHECK
 70
     0
  9
$CHAMFERA
 40
0.5
  9
$CHAMFERB
 40
0.5
  9
$CHAMFERC
 40
1.0
  9
$CHAMFERD
 40
0.0
  9
$SKPOLY
 70
     0
  9
$TDCREATE
 40
2459337.680986412
  9
$TDUCREATE
 40
2459337.555986412
  9
$TDUPDATE
 40
2459337.680986412
  9
$TDUUPDATE
 40
2459337.555986412
  9
$TDINDWG
 40
0.0000000116
  9
$TDUSRTIMER
 40
0.0000000116
  9
$USRTIMER
 70
     1
  9
$ANGBASE
 50
0.0
  9
$ANGDIR
 70
     0
  9
$PDMODE
 70
     0
  9
$PDSIZE
 40
0.0
  9
$PLINEWID
 40
0.0
  9
$SPLFRAME
 70
     0
  9
$SPLINETYPE
 70
     6
  9
$SPLINESEGS
 70
     8
  9
$HANDSEED
  5
52
  9
$SURFTAB1
 70
     6
  9
$SURFTAB2
 70
     6
  9
$SURFTYPE
 70
     6
  9
$SURFU
 70
     6
  9
$SURFV
 70
     6
  9
$UCSBASE
  2

  9
$UCSNAME
  2

  9
$UCSORG
 10
0.0
 20
0.0
 30
0.0
  9
$UCSXDIR
 10
1.0
 20
0.0
 30
0.0
  9
$UCSYDIR
 10
0.0
 20
1.0
 30
0.0
  9
$UCSORTHOREF
  2

  9
$UCSORTHOVIEW
 70
     0
  9
$UCSORGTOP
 10
0.0
 20
0.0
 30
0.0
  9
$UCSORGBOTTOM
 10
0.0
 20
0.0
 30
0.0
  9
$UCSORGLEFT
 10
0.0
 20
0.0
 30
0.0
  9
$UCSORGRIGHT
 10
0.0
 20
0.0
 30
0.0
  9
$UCSORGFRONT
 10
0.0
 20
0.0
 30
0.0
  9
$UCSORGBACK
 10
0.0
 20
0.0
 30
0.0
  9
$PUCSBASE
  2

  9
$PUCSNAME
  2

  9
$PUCSORG
 10
0.0
 20
0.0
 30
0.0
  9
$PUCSXDIR
 10
1.0
 20
0.0
 30
0.0
  9
$PUCSYDIR
 10
0.0
 20
1.0
 30
0.0
  9
$PUCSORTHOREF
  2

  9
$PUCSORTHOVIEW
 70
     0
  9
$PUCSORGTOP
 10
0.0
 20
0.0
 30
0.0
  9
$PUCSORGBOTTOM
 10
0.0
 20
0.0
 30
0.0
  9
$PUCSORGLEFT
 10
0.0
 20
0.0
 30
0.0
  9
$PUCSORGRIGHT
 10
0.0
 20
0.0
 30
0.0
  9
$PUCSORGFRONT
 10
0.0
 20
0.0
 30
0.0
  9
$PUCSORGBACK
 10
0.0
 20
0.0
 30
0.0
  9
$USERI1
 70
     0
  9
$USERI2
 70
     0
  9
$USERI3
 70
     0
  9
$USERI4
 70
     0
  9
$USERI5
 70
     0
  9
$USERR1
 40
0.0
  9
$USERR2
 40
0.0
  9
$USERR3
 40
0.0
  9
$USERR4
 40
0.0
  9
$USERR5
 40
0.0
  9
$WORLDVIEW
 70
     1
  9
$SHADEDGE
 70
     3
  9
$SHADEDIF
 70
    70
  9
$TILEMODE
 70
     1
  9
$MAXACTVP
 70
    64
  9
$PINSBASE
 10
0.0
 20
0.0
 30
0.0
  9
$PLIMCHECK
 70
     0
  9
$PEXTMIN
 10
1.000000000000000E+20
 20
1.000000000000000E+20
 30
1.000000000000000E+20
  9
$PEXTMAX
 10
-1.000000000000000E+20
 20
-1.000000000000000E+20
 30
-1.000000000000000E+20
  9
$PLIMMIN
 10
0.0
 20
0.0
  9
$PLIMMAX
 10
12.0
 20
9.0
  9
$UNITMODE
 70
     0
  9
$VISRETAIN
 70
     1
  9
$PLINEGEN
 70
     0
  9
$PSLTSCALE
 70
     1
  9
$TREEDEPTH
 70
  3020
  9
$CMLSTYLE
  2
Standard
  9
$CMLJUST
 70
     0
  9
$CMLSCALE
 40
1.0
  9
$PROXYGRAPHICS
 70
     1
  9
$MEASUREMENT
 70
     0
  9
$CELWEIGHT
370
    -1
  9
$ENDCAPS
280
     0
  9
$JOINSTYLE
280
     0
  9
$LWDISPLAY
290
     1
  9
$INSUNITS
 70
     1
  9
$HYPERLINKBASE
  1

  9
$STYLESHEET
  1

  9
$XEDIT
290
     1
  9
$CEPSNTYPE
380
     0
  9
$PSTYLEMODE
290
     1
  9
$FINGERPRINTGUID
  2
{DDC015AB-D72B-4CAB-88B5-42EEF49ACDB1}
  9
$VERSIONGUID
  2
{FAEB1C32-E019-11D5-929B-00C0DF256EC4}
  9
$EXTNAMES
290
     1
  9
$PSVPSCALE
 40
0.0
  9
$OLESTARTUP
290
     0
  9
$SORTENTS
280
   127
  9
$INDEXCTL
280
     0
  9
$HIDETEXT
280
     1
  9
$XCLIPFRAME
280
     2
  9
$HALOGAP
280
     0
  9
$OBSCOLOR
 70
   257
  9
$OBSLTYPE
280
     0
  9
$INTERSECTIONDISPLAY
280
     0
  9
$INTERSECTIONCOLOR
 70
   257
  9
$DIMASSOC
280
     2
  9
$PROJECTNAME
  1

  9
$CAMERADISPLAY
290
     0
  9
$LENSLENGTH
 40
50.0
  9
$CAMERAHEIGHT
 40
0.0
  9
$STEPSPERSEC
 40
2.0
  9
$STEPSIZE
 40
6.0
  9
$3DDWFPREC
 40
2.0
  9
$PSOLWIDTH
 40
0.25
  9
$PSOLHEIGHT
 40
4.0
  9
$LOFTANG1
 40
1.570796326794897
  9
$LOFTANG2
 40
1.570796326794897
  9
$LOFTMAG1
 40
0.0
  9
$LOFTMAG2
 40
0.0
  9
$LOFTPARAM
 70
     7
  9
$LOFTNORMALS
280
     1
  9
$LATITUDE
 40
37.795
  9
$LONGITUDE
 40
-122.394
  9
$NORTHDIRECTION
 40
0.0
  9
$TIMEZONE
 70
 -8000
  9
$LIGHTGLYPHDISPLAY
280
     1
  9
$TILEMODELIGHTSYNCH
280
     1
  9
$CMATERIAL
347
3C
  9
$SOLIDHIST
280
     1
  9
$SHOWHIST
280
     1
  9
$DWFFRAME
280
     2
  9
$DGNFRAME
280
     2
  9
$REALWORLDSCALE
290
     1
  9
$INTERFERECOLOR
 62
   256
  9
$CSHADOW
280
     0
  9
$SHADOWPLANELOCATION
 40
0.0
  0
ENDSEC
  0
SECTION
  2
CLASSES
  0
CLASS
  1
ACDBDICTIONARYWDFLT
  2
AcDbDictionaryWithDefault
  3
ObjectDBX Classes
 90
        0
 91
        4
280
     0
281
     0
  0
CLASS
  1
VISUALSTYLE
  2
AcDbVisualStyle
  3
ObjectDBX Classes
 90
     4095
 91
        4
280
     0
281
     0
  0
CLASS
  1
MATERIAL
  2
AcDbMaterial
  3
ObjectDBX Classes
 90
     1153
 91
        4
280
     0
281
     0
  0
CLASS
  1
SUN
  2
AcDbSun
  3
SCENEOE
 90
     1024
 91
        4
280
     0
281
     0
  0
ENDSEC
  0
SECTION
  2
TABLES
  0
TABLE
  2
VPORT
  5
8
330
0
100
AcDbSymbolTable
 70
     1
  0
VPORT
  5
29
330
8
100
AcDbSymbolTableRecord
100
AcDbViewportTableRecord
  2
*Active
 70
     0
 10
0.0
 20
0.0
 11
1.0
 21
1.0
 12
0.0
 22
0.0
 13
0.0
 23
0.0
 14
0.5
 24
0.5
 15
0.5
 25
0.5
 16
0.0
 26
0.0
 36
1.0
 17
6.15141364314392
 27
-18.28097083333333
 37
0.0
 40
12.0
 41
0.5959349386491206
 42
50.0
 43
0.0
 44
0.0
 50
0.0
 51
0.0
 71
     0
 72
   100
 73
     1
 74
     3
 75
     0
 76
     0
 77
     0
 78
     0
281
     0
 65
     1
110
0.0
120
0.0
130
0.0
111
1.0
121
0.0
131
0.0
112
0.0
122
1.0
132
0.0
 79
     0
146
0.0
 60
     3
 61
     5
292
     1
282
     1
141
0.0
142
0.0
 63
   250
361
3F
  0
ENDTAB
  0
TABLE
  2
LTYPE
  5
5
330
0
100
AcDbSymbolTable
 70
     1
  0
LTYPE
  5
14
330
5
100
AcDbSymbolTableRecord
100
AcDbLinetypeTableRecord
  2
ByBlock
 70
     0
  3

 72
    65
 73
     0
 40
0.0
  0
LTYPE
  5
15
330
5
100
AcDbSymbolTableRecord
100
AcDbLinetypeTableRecord
  2
ByLayer
 70
     0
  3

 72
    65
 73
     0
 40
0.0
  0
LTYPE
  5
16
330
5
100
AcDbSymbolTableRecord
100
AcDbLinetypeTableRecord
  2
Continuous
 70
     0
  3
Solid line
 72
    65
 73
     0
 40
0.0
  0
ENDTAB
  0
TABLE
  2
LAYER
  5
2
330
0
100
AcDbSymbolTable
 70
     2
  0
LAYER
  5
10
330
2
100
AcDbSymbolTableRecord
100
AcDbLayerTableRecord
  2
0
 70
     0
 62
     7
  6
Continuous
370
    -3
390
F
347
3E
  0
LAYER
  5
40
330
2
100
AcDbSymbolTableRecord
100
AcDbLayerTableRecord
  2
Layer 1
 70
     0
 62
     7
  6
Continuous
370
    -3
390
F
347
3E
  0
ENDTAB
  0
TABLE
  2
STYLE
  5
3
330
0
100
AcDbSymbolTable
 70
     1
  0
STYLE
  5
11
330
3
100
AcDbSymbolTableRecord
100
AcDbTextStyleTableRecord
  2
Standard
 70
     0
 40
0.0
 41
1.0
 50
0.0
 71
     0
 42
0.2
  3
txt
  4

  0
ENDTAB
  0
TABLE
  2
VIEW
  5
6
330
0
100
AcDbSymbolTable
 70
     0
  0
ENDTAB
  0
TABLE
  2
UCS
  5
7
330
0
100
AcDbSymbolTable
 70
     0
  0
ENDTAB
  0
TABLE
  2
APPID
  5
9
330
0
100
AcDbSymbolTable
 70
     1
  0
APPID
  5
12
330
9
100
AcDbSymbolTableRecord
100
AcDbRegAppTableRecord
  2
ACAD
 70
     0
  0
ENDTAB
  0
TABLE
  2
DIMSTYLE
  5
A
330
0
100
AcDbSymbolTable
 70
     1
100
AcDbDimStyleTable
  0
DIMSTYLE
105
27
330
A
100
AcDbSymbolTableRecord
100
AcDbDimStyleTableRecord
  2
Standard
 70
     0
178
     0
340
11
  0
ENDTAB
  0
TABLE
  2
BLOCK_RECORD
  5
1
330
0
100
AcDbSymbolTable
 70
     1
  0
BLOCK_RECORD
  5
1F
330
1
100
AcDbSymbolTableRecord
100
AcDbBlockTableRecord
  2
*Model_Space
340
22
 70
     0
280
     1
281
     0
  0
BLOCK_RECORD
  5
1B
330
1
100
AcDbSymbolTableRecord
100
AcDbBlockTableRecord
  2
*Paper_Space
340
1E
 70
     0
280
     1
281
     0
  0
BLOCK_RECORD
  5
23
330
1
100
AcDbSymbolTableRecord
100
AcDbBlockTableRecord
  2
*Paper_Space0
340
26
 70
     0
280
     1
281
     0
  0
ENDTAB
  0
ENDSEC
  0
SECTION
  2
BLOCKS
  0
BLOCK
  5
20
330
1F
100
AcDbEntity
  8
0
100
AcDbBlockBegin
  2
*Model_Space
 70
     0
 10
0.0
 20
0.0
 30
0.0
  3
*Model_Space
  1

  0
ENDBLK
  5
21
330
1F
100
AcDbEntity
  8
0
100
AcDbBlockEnd
  0
BLOCK
  5
1C
330
1B
100
AcDbEntity
 67
     1
  8
0
100
AcDbBlockBegin
  2
*Paper_Space
 70
     0
 10
0.0
 20
0.0
 30
0.0
  3
*Paper_Space
  1

  0
ENDBLK
  5
1D
330
1B
100
AcDbEntity
 67
     1
  8
0
100
AcDbBlockEnd
  0
BLOCK
  5
24
330
23
100
AcDbEntity
  8
0
100
AcDbBlockBegin
  2
*Paper_Space0
 70
     0
 10
0.0
 20
0.0
 30
0.0
  3
*Paper_Space0
  1

  0
ENDBLK
  5
25
330
23
100
AcDbEntity
  8
0
100
AcDbBlockEnd
  0
ENDSEC
  0
SECTION
  2
ENTITIES
  0
SPLINE
  5
41
330
1F
100
AcDbEntity
  8
Layer 1
370
     0
100
AcDbSpline
210
0.0
220
0.0
230
1.0
 70
    11
 71
     3
 72
    35
 73
    31
 74
     0
 42
0.0000000001
 43
0.0000000001
 12
1.0
 22
0.0
 32
0.0
 13
1.0
 23
0.0
 33
0.0
 40
0.0
 40
0.0
 40
0.0
 40
0.0
 40
1.0
 40
1.0
 40
1.0
 40
2.0
 40
2.0
 40
2.0
 40
3.0
 40
3.0
 40
3.0
 40
4.0
 40
4.0
 40
4.0
 40
5.0
 40
5.0
 40
5.0
 40
6.0
 40
6.0
 40
6.0
 40
7.0
 40
7.0
 40
7.0
 40
8.0
 40
8.0
 40
8.0
 40
9.0
 40
9.0
 40
9.0
 40
10.0
 40
10.0
 40
10.0
 40
10.0
 10
5.302947088258507
 20
-18.70847222222222
 30
0.0
 10
5.295210977342827
 20
-18.74922083333334
 30
0.0
 10
5.293236111111114
 20
-18.78998888888888
 30
0.0
 10
5.294162366258206
 20
-18.83076527777778
 30
0.0
 10
5.296159588429973
 20
-18.9190361111111
 30
0.0
 10
5.311727643592247
 20
-19.00737222222223
 30
0.0
 10
5.311854032477943
 20
-19.09580138888888
 30
0.0
 10
5.31204986580633
 20
-19.23011527777779
 30
0.0
 10
5.303408199357969
 20
-19.36585138888889
 30
0.0
 10
5.283634588746382
 20
-19.49872222222221
 30
0.0
 10
5.282747088768802
 20
-19.50470694444445
 30
0.0
 10
5.280670699932367
 20
-19.51445833333332
 30
0.0
 10
5.283751255410102
 20
-19.51617638888888
 30
0.0
 10
5.285995699797846
 20
-19.51743749999999
 30
0.0
 10
5.292723477405667
 20
-19.50776944444445
 30
0.0
 10
5.296438755089588
 20
-19.50245694444445
 30
0.0
 10
5.351160975929411
 20
-19.42418055555554
 30
0.0
 10
5.402033196866492
 20
-19.34378055555556
 30
0.0
 10
5.446372084635287
 20
-19.25885694444444
 30
0.0
 10
5.528215138123313
 20
-19.10209861111111
 30
0.0
 10
5.603601247330011
 20
-18.94242777777777
 30
0.0
 10
5.673427634454937
 20
-18.78005
 30
0.0
 10
5.676276245494086
 20
-18.77341666666666
 30
0.0
 10
5.679608189854358
 20
-18.76714722222222
 30
0.0
 10
5.675837356616285
 20
-18.75889861111111
 30
0.0
 10
5.650241523929556
 20
-18.70293611111111
 30
0.0
 10
5.622185969082744
 20
-18.64895833333334
 30
0.0
 10
5.572581803669183
 20
-18.60944166666667
 30
0.0
 10
5.473676250612193
 20
-18.53065138888888
 30
0.0
 10
5.326815143211105
 20
-18.5826875
 30
0.0
 10
5.302947088258507
 20
-18.70847222222222
 30
0.0
  0
HATCH
  5
42
330
1F
100
AcDbEntity
  8
Layer 1
 62
    35
420
 10579544
100
AcDbHatch
 10
0.0
 20
0.0
 30
0.0
210
0.0
220
0.0
230
1.0
  2
SOLID
 70
     1
 71
     0
 91
        1
 92
        1
 93
        1
 72
     4
 94
        3
 73
     0
 74
     1
 95
       35
 96
       31
 40
0.0
 40
0.0
 40
0.0
 40
0.0
 40
1.0
 40
1.0
 40
1.0
 40
2.0
 40
2.0
 40
2.0
 40
3.0
 40
3.0
 40
3.0
 40
4.0
 40
4.0
 40
4.0
 40
5.0
 40
5.0
 40
5.0
 40
6.0
 40
6.0
 40
6.0
 40
7.0
 40
7.0
 40
7.0
 40
8.0
 40
8.0
 40
8.0
 40
9.0
 40
9.0
 40
9.0
 40
10.0
 40
10.0
 40
10.0
 40
10.0
 10
5.302947088258507
 20
-18.70847222222222
 10
5.295210977342827
 20
-18.74922083333334
 10
5.293236111111114
 20
-18.78998888888888
 10
5.294162366258206
 20
-18.83076527777778
 10
5.296159588429973
 20
-18.9190361111111
 10
5.311727643592247
 20
-19.00737222222223
 10
5.311854032477943
 20
-19.09580138888888
 10
5.31204986580633
 20
-19.23011527777779
 10
5.303408199357969
 20
-19.36585138888889
 10
5.283634588746382
 20
-19.49872222222221
 10
5.282747088768802
 20
-19.50470694444445
 10
5.280670699932367
 20
-19.51445833333332
 10
5.283751255410102
 20
-19.51617638888888
 10
5.285995699797846
 20
-19.51743749999999
 10
5.292723477405667
 20
-19.50776944444445
 10
5.296438755089588
 20
-19.50245694444445
 10
5.351160975929411
 20
-19.42418055555554
 10
5.402033196866492
 20
-19.34378055555556
 10
5.446372084635287
 20
-19.25885694444444
 10
5.528215138123313
 20
-19.10209861111111
 10
5.603601247330011
 20
-18.94242777777777
 10
5.673427634454937
 20
-18.78005
 10
5.676276245494086
 20
-18.77341666666666
 10
5.679608189854358
 20
-18.76714722222222
 10
5.675837356616285
 20
-18.75889861111111
 10
5.650241523929556
 20
-18.70293611111111
 10
5.622185969082744
 20
-18.64895833333334
 10
5.572581803669183
 20
-18.60944166666667
 10
5.473676250612193
 20
-18.53065138888888
 10
5.326815143211105
 20
-18.5826875
 10
5.302947088258507
 20
-18.70847222222222
 97
        0
 97
        0
 75
     2
 76
     1
 98
        0
  0
SPLINE
  5
43
330
1F
100
AcDbEntity
  8
Layer 1
370
     0
100
AcDbSpline
210
0.0
220
0.0
230
1.0
 70
    11
 71
     3
 72
    50
 73
    46
 74
     0
 42
0.0000000001
 43
0.0000000001
 12
1.0
 22
0.0
 32
0.0
 13
1.0
 23
0.0
 33
0.0
 40
0.0
 40
0.0
 40
0.0
 40
0.0
 40
1.0
 40
1.0
 40
1.0
 40
2.0
 40
2.0
 40
2.0
 40
3.0
 40
3.0
 40
3.0
 40
4.0
 40
4.0
 40
4.0
 40
5.0
 40
5.0
 40
5.0
 40
6.0
 40
6.0
 40
6.0
 40
7.0
 40
7.0
 40
7.0
 40
8.0
 40
8.0
 40
8.0
 40
9.0
 40
9.0
 40
9.0
 40
10.0
 40
10.0
 40
10.0
 40
11.0
 40
11.0
 40
11.0
 40
12.0
 40
12.0
 40
12.0
 40
13.0
 40
13.0
 40
13.0
 40
14.0
 40
14.0
 40
14.0
 40
15.0
 40
15.0
 40
15.0
 40
15.0
 10
8.276537290917076
 20
-16.64410972222222
 30
0.0
 10
8.276537290917076
 20
-16.64410972222222
 30
0.0
 10
8.276533124250514
 20
-16.64410555555556
 30
0.0
 10
8.276533124250514
 20
-16.64410555555556
 30
0.0
 10
8.048220630018173
 20
-16.58074305555556
 30
0.0
 10
7.869947023410632
 20
-16.36891527777777
 30
0.0
 10
7.816619246980028
 20
-16.09762777777778
 30
0.0
 10
7.816619246980028
 20
-16.09762777777778
 30
0.0
 10
7.816619246980028
 20
-16.09762361111111
 30
0.0
 10
7.816619246980028
 20
-16.09762361111111
 30
0.0
 10
7.81229563597814
 20
-16.07561805555555
 30
0.0
 10
7.785933136644113
 20
-16.07561805555555
 30
0.0
 10
7.781606747864518
 20
-16.09762361111111
 30
0.0
 10
7.781606747864518
 20
-16.09762361111111
 30
0.0
 10
7.781606747864518
 20
-16.09762777777778
 30
0.0
 10
7.781606747864518
 20
-16.09762777777778
 30
0.0
 10
7.728281749211621
 20
-16.36891527777777
 30
0.0
 10
7.55000814260408
 20
-16.58074305555556
 30
0.0
 10
7.321697037260592
 20
-16.64410555555556
 30
0.0
 10
7.321697037260592
 20
-16.64410555555556
 30
0.0
 10
7.321691481705177
 20
-16.64410972222222
 30
0.0
 10
7.321691481705177
 20
-16.64410972222222
 30
0.0
 10
7.303173426617427
 20
-16.64925
 30
0.0
 10
7.303173426617427
 20
-16.68057361111111
 30
0.0
 10
7.321691481705177
 20
-16.6857125
 30
0.0
 10
7.321691481705177
 20
-16.6857125
 30
0.0
 10
7.321697037260592
 20
-16.6857125
 30
0.0
 10
7.321697037260592
 20
-16.6857125
 30
0.0
 10
7.55000814260408
 20
-16.74907916666666
 30
0.0
 10
7.728281749211621
 20
-16.96090694444445
 30
0.0
 10
7.781606747864518
 20
-17.23219861111112
 30
0.0
 10
7.781606747864518
 20
-17.23219861111112
 30
0.0
 10
7.781606747864518
 20
-17.23219861111112
 30
0.0
 10
7.781606747864518
 20
-17.23219861111112
 30
0.0
 10
7.785933136644113
 20
-17.25420555555555
 30
0.0
 10
7.81229563597814
 20
-17.25420555555555
 30
0.0
 10
7.816619246980028
 20
-17.23219861111112
 30
0.0
 10
7.869947023410632
 20
-16.96090694444445
 30
0.0
 10
8.048220630018173
 20
-16.74907916666666
 30
0.0
 10
8.276533124250514
 20
-16.6857125
 30
0.0
 10
8.276533124250514
 20
-16.6857125
 30
0.0
 10
8.276537290917076
 20
-16.6857125
 30
0.0
 10
8.276537290917076
 20
-16.6857125
 30
0.0
 10
8.295055555555564
 20
-16.68057361111111
 30
0.0
 10
8.295055555555564
 20
-16.64925
 30
0.0
 10
8.276537290917076
 20
-16.64410972222222
 30
0.0
  0
HATCH
  5
44
330
1F
100
AcDbEntity
  8
Layer 1
 62
    35
420
 10579544
100
AcDbHatch
 10
0.0
 20
0.0
 30
0.0
210
0.0
220
0.0
230
1.0
  2
SOLID
 70
     1
 71
     0
 91
        1
 92
        1
 93
        1
 72
     4
 94
        3
 73
     0
 74
     1
 95
       50
 96
       46
 40
0.0
 40
0.0
 40
0.0
 40
0.0
 40
1.0
 40
1.0
 40
1.0
 40
2.0
 40
2.0
 40
2.0
 40
3.0
 40
3.0
 40
3.0
 40
4.0
 40
4.0
 40
4.0
 40
5.0
 40
5.0
 40
5.0
 40
6.0
 40
6.0
 40
6.0
 40
7.0
 40
7.0
 40
7.0
 40
8.0
 40
8.0
 40
8.0
 40
9.0
 40
9.0
 40
9.0
 40
10.0
 40
10.0
 40
10.0
 40
11.0
 40
11.0
 40
11.0
 40
12.0
 40
12.0
 40
12.0
 40
13.0
 40
13.0
 40
13.0
 40
14.0
 40
14.0
 40
14.0
 40
15.0
 40
15.0
 40
15.0
 40
15.0
 10
8.276537290917076
 20
-16.64410972222222
 10
8.276537290917076
 20
-16.64410972222222
 10
8.276533124250514
 20
-16.64410555555556
 10
8.276533124250514
 20
-16.64410555555556
 10
8.048220630018173
 20
-16.58074305555556
 10
7.869947023410632
 20
-16.36891527777777
 10
7.816619246980028
 20
-16.09762777777778
 10
7.816619246980028
 20
-16.09762777777778
 10
7.816619246980028
 20
-16.09762361111111
 10
7.816619246980028
 20
-16.09762361111111
 10
7.81229563597814
 20
-16.07561805555555
 10
7.785933136644113
 20
-16.07561805555555
 10
7.781606747864518
 20
-16.09762361111111
 10
7.781606747864518
 20
-16.09762361111111
 10
7.781606747864518
 20
-16.09762777777778
 10
7.781606747864518
 20
-16.09762777777778
 10
7.728281749211621
 20
-16.36891527777777
 10
7.55000814260408
 20
-16.58074305555556
 10
7.321697037260592
 20
-16.64410555555556
 10
7.321697037260592
 20
-16.64410555555556
 10
7.321691481705177
 20
-16.64410972222222
 10
7.321691481705177
 20
-16.64410972222222
 10
7.303173426617427
 20
-16.64925
 10
7.303173426617427
 20
-16.68057361111111
 10
7.321691481705177
 20
-16.6857125
 10
7.321691481705177
 20
-16.6857125
 10
7.321697037260592
 20
-16.6857125
 10
7.321697037260592
 20
-16.6857125
 10
7.55000814260408
 20
-16.74907916666666
 10
7.728281749211621
 20
-16.96090694444445
 10
7.781606747864518
 20
-17.23219861111112
 10
7.781606747864518
 20
-17.23219861111112
 10
7.781606747864518
 20
-17.23219861111112
 10
7.781606747864518
 20
-17.23219861111112
 10
7.785933136644113
 20
-17.25420555555555
 10
7.81229563597814
 20
-17.25420555555555
 10
7.816619246980028
 20
-17.23219861111112
 10
7.869947023410632
 20
-16.96090694444445
 10
8.048220630018173
 20
-16.74907916666666
 10
8.276533124250514
 20
-16.6857125
 10
8.276533124250514
 20
-16.6857125
 10
8.276537290917076
 20
-16.6857125
 10
8.276537290917076
 20
-16.6857125
 10
8.295055555555564
 20
-16.68057361111111
 10
8.295055555555564
 20
-16.64925
 10
8.276537290917076
 20
-16.64410972222222
 97
        0
 97
        0
 75
     2
 76
     1
 98
        0
  0
SPLINE
  5
45
330
1F
100
AcDbEntity
  8
Layer 1
370
     0
100
AcDbSpline
210
0.0
220
0.0
230
1.0
 70
    11
 71
     3
 72
    23
 73
    19
 74
     0
 42
0.0000000001
 43
0.0000000001
 12
1.0
 22
0.0
 32
0.0
 13
1.0
 23
0.0
 33
0.0
 40
0.0
 40
0.0
 40
0.0
 40
0.0
 40
1.0
 40
1.0
 40
1.0
 40
2.0
 40
2.0
 40
2.0
 40
3.0
 40
3.0
 40
3.0
 40
4.0
 40
4.0
 40
4.0
 40
5.0
 40
5.0
 40
5.0
 40
6.0
 40
6.0
 40
6.0
 40
6.0
 10
6.151408177935688
 20
-12.66715694444444
 30
0.0
 10
4.378667944941096
 20
-12.66715694444444
 30
0.0
 10
2.936440203597057
 20
-14.10939861111111
 30
0.0
 10
2.936440203597057
 20
-15.88213472222222
 30
0.0
 10
2.936440203597057
 20
-15.88213472222222
 30
0.0
 10
2.936440203597057
 20
-20.6798125
 30
0.0
 10
2.936440203597057
 20
-20.6798125
 30
0.0
 10
2.936440203597057
 20
-22.45254861111112
 30
0.0
 10
4.378677667163073
 20
-23.89478611111111
 30
0.0
 10
6.15142345571308
 20
-23.89478611111111
 30
0.0
 10
7.924158133152256
 20
-23.89478611111111
 30
0.0
 10
9.366401152273687
 20
-22.45254861111112
 30
0.0
 10
9.366401152273687
 20
-20.6798125
 30
0.0
 10
9.366401152273687
 20
-20.6798125
 30
0.0
 10
9.366401152273687
 20
-15.88213472222222
 30
0.0
 10
9.366401152273687
 20
-15.88213472222222
 30
0.0
 10
9.366401152273687
 20
-14.10939861111111
 30
0.0
 10
7.924158133152256
 20
-12.66715694444444
 30
0.0
 10
6.151408177935688
 20
-12.66715694444444
 30
0.0
  0
SPLINE
  5
46
330
1F
100
AcDbEntity
  8
Layer 1
370
     0
100
AcDbSpline
210
0.0
220
0.0
230
1.0
 70
    11
 71
     3
 72
   188
 73
   184
 74
     0
 42
0.0000000001
 43
0.0000000001
 12
1.0
 22
0.0
 32
0.0
 13
1.0
 23
0.0
 33
0.0
 40
0.0
 40
0.0
 40
0.0
 40
0.0
 40
1.0
 40
1.0
 40
1.0
 40
2.0
 40
2.0
 40
2.0
 40
3.0
 40
3.0
 40
3.0
 40
4.0
 40
4.0
 40
4.0
 40
5.0
 40
5.0
 40
5.0
 40
6.0
 40
6.0
 40
6.0
 40
7.0
 40
7.0
 40
7.0
 40
8.0
 40
8.0
 40
8.0
 40
9.0
 40
9.0
 40
9.0
 40
10.0
 40
10.0
 40
10.0
 40
11.0
 40
11.0
 40
11.0
 40
12.0
 40
12.0
 40
12.0
 40
13.0
 40
13.0
 40
13.0
 40
14.0
 40
14.0
 40
14.0
 40
15.0
 40
15.0
 40
15.0
 40
16.0
 40
16.0
 40
16.0
 40
17.0
 40
17.0
 40
17.0
 40
18.0
 40
18.0
 40
18.0
 40
19.0
 40
19.0
 40
19.0
 40
20.0
 40
20.0
 40
20.0
 40
21.0
 40
21.0
 40
21.0
 40
22.0
 40
22.0
 40
22.0
 40
23.0
 40
23.0
 40
23.0
 40
24.0
 40
24.0
 40
24.0
 40
25.0
 40
25.0
 40
25.0
 40
26.0
 40
26.0
 40
26.0
 40
27.0
 40
27.0
 40
27.0
 40
28.0
 40
28.0
 40
28.0
 40
29.0
 40
29.0
 40
29.0
 40
30.0
 40
30.0
 40
30.0
 40
31.0
 40
31.0
 40
31.0
 40
32.0
 40
32.0
 40
32.0
 40
33.0
 40
33.0
 40
33.0
 40
34.0
 40
34.0
 40
34.0
 40
35.0
 40
35.0
 40
35.0
 40
36.0
 40
36.0
 40
36.0
 40
37.0
 40
37.0
 40
37.0
 40
38.0
 40
38.0
 40
38.0
 40
39.0
 40
39.0
 40
39.0
 40
40.0
 40
40.0
 40
40.0
 40
41.0
 40
41.0
 40
41.0
 40
42.0
 40
42.0
 40
42.0
 40
43.0
 40
43.0
 40
43.0
 40
44.0
 40
44.0
 40
44.0
 40
45.0
 40
45.0
 40
45.0
 40
46.0
 40
46.0
 40
46.0
 40
47.0
 40
47.0
 40
47.0
 40
48.0
 40
48.0
 40
48.0
 40
49.0
 40
49.0
 40
49.0
 40
50.0
 40
50.0
 40
50.0
 40
51.0
 40
51.0
 40
51.0
 40
52.0
 40
52.0
 40
52.0
 40
53.0
 40
53.0
 40
53.0
 40
54.0
 40
54.0
 40
54.0
 40
55.0
 40
55.0
 40
55.0
 40
56.0
 40
56.0
 40
56.0
 40
57.0
 40
57.0
 40
57.0
 40
58.0
 40
58.0
 40
58.0
 40
59.0
 40
59.0
 40
59.0
 40
60.0
 40
60.0
 40
60.0
 40
61.0
 40
61.0
 40
61.0
 40
61.0
 10
9.215576156083847
 20
-20.6798125
 30
0.0
 10
9.215576156083847
 20
-22.36939305555554
 30
0.0
 10
7.841009524141655
 20
-23.7439611111111
 30
0.0
 10
6.15142345571308
 20
-23.7439611111111
 30
0.0
 10
6.15142345571308
 20
-23.7439611111111
 30
0.0
 10
6.151408177935688
 20
-23.7439611111111
 30
0.0
 10
6.151408177935688
 20
-23.7439611111111
 30
0.0
 10
6.14147067818673
 20
-23.7439611111111
 30
0.0
 10
6.131690122878252
 20
-23.74330694444443
 30
0.0
 10
6.121774845350956
 20
-23.74320972222222
 30
0.0
 10
6.028812347699386
 20
-23.31251250000001
 30
0.0
 10
5.91938596157484
 20
-22.70578888888889
 30
0.0
 10
5.849619296670627
 20
-22.29027777777777
 30
0.0
 10
5.845949852318881
 20
-22.26843055555554
 30
0.0
 10
5.844372074580961
 20
-22.26883611111111
 30
0.0
 10
5.825535963945691
 20
-22.28088472222223
 30
0.0
 10
5.738301243927203
 20
-22.33668333333334
 30
0.0
 10
5.643845690757795
 20
-22.37743194444445
 30
0.0
 10
5.547154026533765
 20
-22.4133125
 30
0.0
 10
5.536617915688819
 20
-22.41721527777779
 30
0.0
 10
5.520324860544861
 20
-22.42813333333334
 30
0.0
 10
5.514127638479193
 20
-22.41078611111111
 30
0.0
 10
5.507638888888891
 20
-22.39262222222222
 30
0.0
 10
5.527499999999994
 20
-22.39280416666666
 30
0.0
 10
5.5381818045382
 20
-22.3888513888889
 30
0.0
 10
5.638487357559825
 20
-22.35165972222222
 30
0.0
 10
5.735305555555556
 20
-22.30771805555554
 30
0.0
 10
5.825760963940007
 20
-22.24981805555555
 30
0.0
 10
6.02416790337227
 20
-22.12278750000001
 30
0.0
 10
6.115524845508844
 20
-21.90082361111111
 30
0.0
 10
6.17054428856338
 20
-21.68105972222222
 30
0.0
 10
6.219144287335641
 20
-21.4883986111111
 30
0.0
 10
6.249809564338748
 20
-21.29452361111112
 30
0.0
 10
6.313665118281177
 20
-21.1053361111111
 30
0.0
 10
6.36194845039477
 20
-20.96227499999999
 30
0.0
 10
6.382105394330008
 20
-20.79026666666666
 30
0.0
 10
6.457198447988553
 20
-20.6595986111111
 30
0.0
 10
6.565622056360653
 20
-20.47093333333333
 30
0.0
 10
6.736155385385953
 20
-20.3462236111111
 30
0.0
 10
6.868676215371528
 20
-20.17824305555556
 30
0.0
 10
6.892633159210769
 20
-20.14787638888889
 30
0.0
 10
6.919059547432071
 20
-20.1200861111111
 30
0.0
 10
6.946756768954603
 20
-20.09365
 30
0.0
 10
7.467973422454229
 20
-20.00575833333333
 30
0.0
 10
7.954716465713621
 20
-19.74517083333333
 30
0.0
 10
8.313594234425384
 20
-19.34239444444446
 30
0.0
 10
8.313594234425384
 20
-19.34239444444446
 30
0.0
 10
8.353483122306594
 20
-19.29763055555554
 30
0.0
 10
8.353483122306594
 20
-19.29763055555554
 30
0.0
 10
8.377449788367812
 20
-19.27074722222222
 30
0.0
 10
8.381720621593255
 20
-19.23160833333332
 30
0.0
 10
8.364122010926723
 20
-19.20018750000001
 30
0.0
 10
8.346513888888897
 20
-19.16876527777779
 30
0.0
 10
8.310947012270036
 20
-19.15189861111111
 30
0.0
 10
8.275473402055063
 20
-19.15832777777779
 30
0.0
 10
8.275473402055063
 20
-19.15832777777779
 30
0.0
 10
8.216462292434699
 20
-19.16894722222221
 30
0.0
 10
8.216462292434699
 20
-19.16894722222221
 30
0.0
 10
7.945734521496079
 20
-19.21769305555555
 30
0.0
 10
7.670494250671456
 20
-19.2133611111111
 30
0.0
 10
7.398212313105432
 20
-19.15597916666666
 30
0.0
 10
7.35355675867797
 20
-19.14664305555556
 30
0.0
 10
7.309783148672674
 20
-19.13558888888888
 30
0.0
 10
7.266442871989764
 20
-19.1237263888889
 30
0.0
 10
7.35300120313645
 20
-19.06145833333332
 30
0.0
 10
7.437476201002432
 20
-18.99677499999999
 30
0.0
 10
7.508670643648353
 20
-18.91602499999999
 30
0.0
 10
7.560399809008231
 20
-18.85735555555556
 30
0.0
 10
7.593534530393399
 20
-18.79019861111111
 30
0.0
 10
7.588487308298681
 20
-18.70854722222223
 30
0.0
 10
7.585023419497297
 20
-18.65241666666667
 30
0.0
 10
7.553486111111119
 20
-18.61301666666666
 30
0.0
 10
7.50542619928587
 20
-18.60754583333333
 30
0.0
 10
7.48915814414128
 20
-18.60569305555555
 30
0.0
 10
7.474444444444442
 20
-18.61050138888888
 30
0.0
 10
7.459608144887776
 20
-18.61562638888889
 30
0.0
 10
7.394660924306258
 20
-18.63805277777778
 30
0.0
 10
7.33797481462716
 20
-18.67537500000001
 30
0.0
 10
7.282194444444435
 20
-18.71430277777777
 30
0.0
 10
7.175740096503331
 20
-18.78860138888889
 30
0.0
 10
7.068774821427724
 20
-18.86214027777777
 30
0.0
 10
6.959230379750604
 20
-18.93189166666667
 30
0.0
 10
6.934105380385315
 20
-18.94789444444445
 30
0.0
 10
6.908622047695745
 20
-18.96336944444445
 30
0.0
 10
6.88330121500207
 20
-18.9790875
 30
0.0
 10
6.87074427087484
 20
-18.97290694444445
 30
0.0
 10
6.85851388888889
 20
-18.96627777777778
 30
0.0
 10
6.84611927149692
 20
-18.95986805555556
 30
0.0
 10
7.0005567675955
 20
-18.8653236111111
 30
0.0
 10
7.155031763693134
 20
-18.77194583333332
 30
0.0
 10
7.299965093365143
 20
-18.6706513888889
 30
0.0
 10
7.346563703299075
 20
-18.63807638888887
 30
0.0
 10
7.396102590936506
 20
-18.61057083333334
 30
0.0
 10
7.448834534048829
 20
-18.58896666666667
 30
0.0
 10
7.475359533378751
 20
-18.57809444444443
 30
0.0
 10
7.502859532684043
 20
-18.57935972222223
 30
0.0
 10
7.530486111111107
 20
-18.58134305555556
 30
0.0
 10
7.554820642482506
 20
-18.5830986111111
 30
0.0
 10
7.560040086795096
 20
-18.578925
 30
0.0
 10
7.567256753279454
 20
-18.55587916666667
 30
0.0
 10
7.592866474854721
 20
-18.4740875
 30
0.0
 10
7.557934531292731
 20
-18.37703055555554
 30
0.0
 10
7.473697033420749
 20
-18.34676249999999
 30
0.0
 10
7.332563703652744
 20
-18.2960513888889
 30
0.0
 10
7.132247042046502
 20
-18.43291388888888
 30
0.0
 10
7.004781767488768
 20
-18.48270416666666
 30
0.0
 10
6.841522049390833
 20
-18.54648194444444
 30
0.0
 10
6.702138888888889
 20
-18.65314444444445
 30
0.0
 10
6.544120668014935
 20
-18.72587500000001
 30
0.0
 10
6.532188723871918
 20
-18.73136944444445
 30
0.0
 10
6.520419279724794
 20
-18.73695833333333
 30
0.0
 10
6.508613724467472
 20
-18.74253194444443
 30
0.0
 10
6.453930555555567
 20
-18.69939305555555
 30
0.0
 10
6.401660949391548
 20
-18.65373750000001
 30
0.0
 10
6.351870672871579
 20
-18.6057111111111
 30
0.0
 10
6.48166511403714
 20
-18.41297638888889
 30
0.0
 10
6.703319444444433
 20
-18.29925416666666
 30
0.0
 10
6.802341494825062
 20
-18.07987777777777
 30
0.0
 10
6.843183160459981
 20
-17.98937500000001
 30
0.0
 10
6.862790104409113
 20
-17.85092638888889
 30
0.0
 10
6.741127607482566
 20
-17.81611944444444
 30
0.0
 10
6.696844275267924
 20
-17.80345555555555
 30
0.0
 10
6.654041666666672
 20
-17.8076
 30
0.0
 10
6.612094277408889
 20
-17.82501250000001
 30
0.0
 10
6.451933170343787
 20
-17.89148333333333
 30
0.0
 10
6.324238729125176
 20
-18.01937222222222
 30
0.0
 10
6.207506787629629
 20
-18.14372361111111
 30
0.0
 10
6.164148455391619
 20
-18.18991527777778
 30
0.0
 10
6.12172901201878
 20
-18.23693888888889
 30
0.0
 10
6.079424846420807
 20
-18.28407777777777
 30
0.0
 10
5.768252632059456
 20
-17.83108194444445
 30
0.0
 10
5.634887357650769
 20
-17.25622222222223
 30
0.0
 10
5.750270688069273
 20
-16.66471944444445
 30
0.0
 10
5.825713741718977
 20
-16.27772222222222
 30
0.0
 10
6.005317903848461
 20
-15.92083472222223
 30
0.0
 10
6.26963595272678
 20
-15.63264861111111
 30
0.0
 10
6.26963595272678
 20
-15.63264861111111
 30
0.0
 10
6.310056785038998
 20
-15.58858472222222
 30
0.0
 10
6.310056785038998
 20
-15.58858472222222
 30
0.0
 10
6.334392895535327
 20
-15.56206944444444
 30
0.0
 10
6.339233173190829
 20
-15.52303888888889
 30
0.0
 10
6.32212900695625
 20
-15.49136944444444
 30
0.0
 10
6.305029007388232
 20
-15.45969583333333
 30
0.0
 10
6.269677619392395
 20
-15.44235416666667
 30
0.0
 10
6.234222222222216
 20
-15.44812916666667
 30
0.0
 10
6.234222222222216
 20
-15.44812916666667
 30
0.0
 10
6.175151232891444
 20
-15.45777777777778
 30
0.0
 10
6.175151232891444
 20
-15.45777777777778
 30
0.0
 10
5.222616534732272
 20
-15.61392361111112
 30
0.0
 10
4.472816553673813
 20
-16.33048611111111
 30
0.0
 10
4.264945725591739
 20
-17.28325972222222
 30
0.0
 10
4.12954572901223
 20
-17.90349444444444
 30
0.0
 10
4.245765170520725
 20
-18.5362625
 30
0.0
 10
4.592219328435223
 20
-19.06500555555554
 30
0.0
 10
4.752637379938278
 20
-19.30984305555555
 30
0.0
 10
4.953784597079093
 20
-19.51814722222222
 30
0.0
 10
5.185233202343321
 20
-19.6845111111111
 30
0.0
 10
5.148701258821752
 20
-19.73413888888889
 30
0.0
 10
5.117658204050409
 20
-19.78690416666667
 30
0.0
 10
5.101051260025492
 20
-19.84821527777778
 30
0.0
 10
5.068281816408873
 20
-19.96919722222222
 30
0.0
 10
5.062026261011346
 20
-20.09419722222222
 30
0.0
 10
5.040804039325242
 20
-20.21742777777778
 30
0.0
 10
4.960142930251802
 20
-20.68577777777778
 30
0.0
 10
4.737269324770952
 20
-21.10878194444444
 30
0.0
 10
4.58725821744944
 20
-21.55718472222222
 30
0.0
 10
4.397895722233139
 20
-22.12319861111112
 30
0.0
 10
4.571385995628185
 20
-22.75104166666668
 30
0.0
 10
4.614090161216053
 20
-23.32871111111111
 30
0.0
 10
3.702031850923251
 20
-22.79732638888888
 30
0.0
 10
3.087263888888894
 20
-21.80931805555555
 30
0.0
 10
3.087263888888894
 20
-20.6798125
 30
0.0
 10
3.087263888888894
 20
-20.6798125
 30
0.0
 10
3.087263888888894
 20
-15.88213472222222
 30
0.0
 10
3.087263888888894
 20
-15.88213472222222
 30
0.0
 10
3.087263888888894
 20
-14.19254861111112
 30
0.0
 10
4.46183599839565
 20
-12.81798055555555
 30
0.0
 10
6.15142345571308
 20
-12.81798055555555
 30
0.0
 10
7.841009524141655
 20
-12.81798055555555
 30
0.0
 10
9.215576156083847
 20
-14.19254861111112
 30
0.0
 10
9.215576156083847
 20
-15.88213472222222
 30
0.0
 10
9.215576156083847
 20
-15.88213472222222
 30
0.0
 10
9.215576156083847
 20
-20.6798125
 30
0.0
 10
9.215576156083847
 20
-20.6798125
 30
0.0
  0
SPLINE
  5
47
330
1F
100
AcDbEntity
  8
Layer 1
370
     0
100
AcDbSpline
210
0.0
220
0.0
230
1.0
 70
    11
 71
     3
 72
    35
 73
    31
 74
     0
 42
0.0000000001
 43
0.0000000001
 12
1.0
 22
0.0
 32
0.0
 13
1.0
 23
0.0
 33
0.0
 40
0.0
 40
0.0
 40
0.0
 40
0.0
 40
1.0
 40
1.0
 40
1.0
 40
2.0
 40
2.0
 40
2.0
 40
3.0
 40
3.0
 40
3.0
 40
4.0
 40
4.0
 40
4.0
 40
5.0
 40
5.0
 40
5.0
 40
6.0
 40
6.0
 40
6.0
 40
7.0
 40
7.0
 40
7.0
 40
8.0
 40
8.0
 40
8.0
 40
9.0
 40
9.0
 40
9.0
 40
10.0
 40
10.0
 40
10.0
 40
10.0
 10
5.962855404921154
 20
-18.4131486111111
 30
0.0
 10
5.916019294993222
 20
-18.46461527777776
 30
0.0
 10
5.86877346285342
 20
-18.51570833333333
 30
0.0
 10
5.819715130759404
 20
-18.56515416666667
 30
0.0
 10
5.776412354075546
 20
-18.60879305555555
 30
0.0
 10
5.748133188123271
 20
-18.66163611111111
 30
0.0
 10
5.726062355347494
 20
-18.71876111111111
 30
0.0
 10
5.642969301891045
 20
-18.93385277777778
 30
0.0
 10
5.547704026519871
 20
-19.14503194444445
 30
0.0
 10
5.430276251708569
 20
-19.343725
 30
0.0
 10
5.387388888888887
 20
-19.41629583333333
 30
0.0
 10
5.341701253946161
 20
-19.48580555555557
 30
0.0
 10
5.290706810789945
 20
-19.55216805555556
 30
0.0
 10
5.072991538512118
 20
-19.39696527777778
 30
0.0
 10
4.883920709955115
 20
-19.20201250000001
 30
0.0
 10
4.733497102644024
 20
-18.97243055555555
 30
0.0
 10
4.412115166318371
 20
-18.48195277777778
 30
0.0
 10
4.304319444444445
 20
-17.89485277777777
 30
0.0
 10
4.429980443644833
 20
-17.31930277777778
 30
0.0
 10
4.429980443644833
 20
-17.31928472222221
 30
0.0
 10
4.429980443644833
 20
-17.31928472222221
 30
0.0
 10
4.429980443644833
 20
-17.31928472222221
 30
0.0
 10
4.609845716878832
 20
-16.49479722222222
 30
0.0
 10
5.226308201305679
 20
-15.86091805555556
 30
0.0
 10
6.024658181137662
 20
-15.66120416666667
 30
0.0
 10
5.804898464467038
 20
-15.94423611111112
 30
0.0
 10
5.653859579393711
 20
-16.27654999999999
 30
0.0
 10
5.584484581146271
 20
-16.6323875
 30
0.0
 10
5.457145695474233
 20
-17.28520138888889
 30
0.0
 10
5.610495691600287
 20
-17.91931944444444
 30
0.0
 10
5.962855404921154
 20
-18.4131486111111
 30
0.0
  0
SPLINE
  5
48
330
1F
100
AcDbEntity
  8
Layer 1
370
     0
100
AcDbSpline
210
0.0
220
0.0
230
1.0
 70
    11
 71
     3
 72
    41
 73
    37
 74
     0
 42
0.0000000001
 43
0.0000000001
 12
1.0
 22
0.0
 32
0.0
 13
1.0
 23
0.0
 33
0.0
 40
0.0
 40
0.0
 40
0.0
 40
0.0
 40
1.0
 40
1.0
 40
1.0
 40
2.0
 40
2.0
 40
2.0
 40
3.0
 40
3.0
 40
3.0
 40
4.0
 40
4.0
 40
4.0
 40
5.0
 40
5.0
 40
5.0
 40
6.0
 40
6.0
 40
6.0
 40
7.0
 40
7.0
 40
7.0
 40
8.0
 40
8.0
 40
8.0
 40
9.0
 40
9.0
 40
9.0
 40
10.0
 40
10.0
 40
10.0
 40
11.0
 40
11.0
 40
11.0
 40
12.0
 40
12.0
 40
12.0
 40
12.0
 10
7.363523425092858
 20
-19.32127916666667
 30
0.0
 10
7.595033141466653
 20
-19.3700625
 30
0.0
 10
7.828694444444434
 20
-19.38330138888889
 30
0.0
 10
8.060478963041835
 20
-19.36088888888889
 30
0.0
 10
7.824730357886235
 20
-19.58395416666667
 30
0.0
 10
7.542528976126353
 20
-19.74842361111112
 30
0.0
 10
7.238597222222223
 20
-19.84792222222222
 30
0.0
 10
7.291609538020666
 20
-19.79803749999999
 30
0.0
 10
7.339444444444451
 20
-19.74302222222223
 30
0.0
 10
7.375941480334707
 20
-19.67656666666666
 30
0.0
 10
7.394762313192587
 20
-19.64230694444445
 30
0.0
 10
7.409169257273081
 20
-19.60639027777777
 30
0.0
 10
7.409276201714824
 20
-19.56633611111111
 30
0.0
 10
7.409430555555546
 20
-19.50744722222223
 30
0.0
 10
7.374708333333324
 20
-19.46610138888887
 30
0.0
 10
7.316477592948003
 20
-19.45492083333334
 30
0.0
 10
7.172337318811515
 20
-19.42727638888889
 30
0.0
 10
7.037319444444442
 20
-19.56463194444445
 30
0.0
 10
6.943217880155114
 20
-19.65411250000001
 30
0.0
 10
6.820210938818086
 20
-19.77105972222221
 30
0.0
 10
6.67373733140721
 20
-19.86369583333334
 30
0.0
 10
6.524901224056015
 20
-19.94446527777778
 30
0.0
 10
6.517520668686908
 20
-19.94846944444445
 30
0.0
 10
6.510379002200655
 20
-19.95278750000001
 30
0.0
 10
6.503067891274238
 20
-19.95688611111111
 30
0.0
 10
6.459658170148638
 20
-19.95586944444443
 30
0.0
 10
6.416226226801377
 20
-19.95353472222223
 30
0.0
 10
6.372760950121624
 20
-19.94989305555555
 30
0.0
 10
6.418559560075765
 20
-19.83499027777778
 30
0.0
 10
6.4935026137381
 20
-19.74076805555556
 30
0.0
 10
6.591204000158844
 20
-19.66299583333332
 30
0.0
 10
6.761620662520423
 20
-19.52732499999999
 30
0.0
 10
6.922380380681513
 20
-19.38032777777777
 30
0.0
 10
7.095699820747541
 20
-19.24818055555556
 30
0.0
 10
7.182410929668144
 20
-19.27718472222222
 30
0.0
 10
7.271531760750096
 20
-19.30205138888889
 30
0.0
 10
7.363523425092858
 20
-19.32127916666667
 30
0.0
  0
SPLINE
  5
49
330
1F
100
AcDbEntity
  8
Layer 1
370
     0
100
AcDbSpline
210
0.0
220
0.0
230
1.0
 70
    11
 71
     3
 72
    29
 73
    25
 74
     0
 42
0.0000000001
 43
0.0000000001
 12
1.0
 22
0.0
 32
0.0
 13
1.0
 23
0.0
 33
0.0
 40
0.0
 40
0.0
 40
0.0
 40
0.0
 40
1.0
 40
1.0
 40
1.0
 40
2.0
 40
2.0
 40
2.0
 40
3.0
 40
3.0
 40
3.0
 40
4.0
 40
4.0
 40
4.0
 40
5.0
 40
5.0
 40
5.0
 40
6.0
 40
6.0
 40
6.0
 40
7.0
 40
7.0
 40
7.0
 40
8.0
 40
8.0
 40
8.0
 40
8.0
 10
6.241229008999956
 20
-20.10578750000001
 30
0.0
 10
6.252848453150868
 20
-20.1073611111111
 30
0.0
 10
6.264477619523758
 20
-20.10852361111112
 30
0.0
 10
6.276101230341232
 20
-20.10991527777777
 30
0.0
 10
6.202540121088431
 20
-20.17004583333333
 30
0.0
 10
6.135037345015917
 20
-20.23768749999999
 30
0.0
 10
6.075405402077902
 20
-20.31471805555556
 30
0.0
 10
6.048326236095313
 20
-20.34969583333332
 30
0.0
 10
6.018827625729399
 20
-20.38273333333334
 30
0.0
 10
5.988017904285496
 20
-20.41445277777777
 30
0.0
 10
5.975880404592115
 20
-20.42694583333335
 30
0.0
 10
5.91309290617826
 20
-20.50347638888888
 30
0.0
 10
5.89618055555555
 20
-20.48445277777778
 30
0.0
 10
5.889201240115148
 20
-20.47660972222221
 30
0.0
 10
5.894812351084511
 20
-20.46907638888888
 30
0.0
 10
5.900894295375312
 20
-20.46296527777779
 30
0.0
 10
5.90720123966043
 20
-20.45660694444445
 30
0.0
 10
5.913733183939863
 20
-20.45047777777778
 30
0.0
 10
5.920285961552104
 20
-20.44436666666666
 30
0.0
 10
5.975585960155109
 20
-20.3928486111111
 30
0.0
 10
6.024942903352692
 20
-20.33599444444445
 30
0.0
 10
6.071984568830985
 20
-20.27694722222221
 30
0.0
 10
6.122395678668605
 20
-20.21365138888889
 30
0.0
 10
6.178419288364441
 20
-20.15603611111111
 30
0.0
 10
6.241229008999956
 20
-20.10578750000001
 30
0.0
  0
SPLINE
  5
4A
330
1F
100
AcDbEntity
  8
Layer 1
370
     0
100
AcDbSpline
210
0.0
220
0.0
230
1.0
 70
    11
 71
     3
 72
    23
 73
    19
 74
     0
 42
0.0000000001
 43
0.0000000001
 12
1.0
 22
0.0
 32
0.0
 13
1.0
 23
0.0
 33
0.0
 40
0.0
 40
0.0
 40
0.0
 40
0.0
 40
1.0
 40
1.0
 40
1.0
 40
2.0
 40
2.0
 40
2.0
 40
3.0
 40
3.0
 40
3.0
 40
4.0
 40
4.0
 40
4.0
 40
5.0
 40
5.0
 40
5.0
 40
6.0
 40
6.0
 40
6.0
 40
6.0
 10
6.340437339827076
 20
-19.32914166666668
 30
0.0
 10
6.148052622464901
 20
-19.47170694444445
 30
0.0
 10
5.9905762375542
 20
-19.65164305555555
 30
0.0
 10
5.838756796945037
 20
-19.8357375
 30
0.0
 10
5.82989707494663
 20
-19.83263749999999
 30
0.0
 10
5.821045686281346
 20
-19.829525
 30
0.0
 10
5.812241519837092
 20
-19.82632222222221
 30
0.0
 10
5.900297073168177
 20
-19.72357083333334
 30
0.0
 10
5.986331793216979
 20
-19.61904027777778
 30
0.0
 10
6.08114290193296
 20
-19.5221375
 30
0.0
 10
6.256377619728381
 20
-19.34301944444443
 30
0.0
 10
6.46513039223262
 20
-19.19828194444444
 30
0.0
 10
6.680688720120492
 20
-19.06237222222222
 30
0.0
 10
6.69235399760358
 20
-19.06905277777777
 30
0.0
 10
6.703734552871638
 20
-19.07612083333333
 30
0.0
 10
6.715545663684376
 20
-19.08260416666667
 30
0.0
 10
6.587861111111124
 20
-19.16078333333333
 30
0.0
 10
6.460812336786148
 20
-19.23994166666666
 30
0.0
 10
6.340437339827076
 20
-19.32914166666668
 30
0.0
  0
SPLINE
  5
4B
330
1F
100
AcDbEntity
  8
Layer 1
370
     0
100
AcDbSpline
210
0.0
220
0.0
230
1.0
 70
    11
 71
     3
 72
    47
 73
    43
 74
     0
 42
0.0000000001
 43
0.0000000001
 12
1.0
 22
0.0
 32
0.0
 13
1.0
 23
0.0
 33
0.0
 40
0.0
 40
0.0
 40
0.0
 40
0.0
 40
1.0
 40
1.0
 40
1.0
 40
2.0
 40
2.0
 40
2.0
 40
3.0
 40
3.0
 40
3.0
 40
4.0
 40
4.0
 40
4.0
 40
5.0
 40
5.0
 40
5.0
 40
6.0
 40
6.0
 40
6.0
 40
7.0
 40
7.0
 40
7.0
 40
8.0
 40
8.0
 40
8.0
 40
9.0
 40
9.0
 40
9.0
 40
10.0
 40
10.0
 40
10.0
 40
11.0
 40
11.0
 40
11.0
 40
12.0
 40
12.0
 40
12.0
 40
13.0
 40
13.0
 40
13.0
 40
14.0
 40
14.0
 40
14.0
 40
14.0
 10
6.137558178285568
 20
-18.97186111111111
 30
0.0
 10
6.034166666666667
 20
-19.0615
 30
0.0
 10
5.942413738770887
 20
-19.16339722222223
 30
0.0
 10
5.852966518808292
 20
-19.26666666666668
 30
0.0
 10
5.765097222222216
 20
-19.36812083333333
 30
0.0
 10
5.665944444444449
 20
-19.46023333333333
 30
0.0
 10
5.567890137121038
 20
-19.55198611111112
 30
0.0
 10
5.565719303842545
 20
-19.55401666666666
 30
0.0
 10
5.563384581679302
 20
-19.55593055555556
 30
0.0
 10
5.56092902618578
 20
-19.55760694444444
 30
0.0
 10
5.55396374858396
 20
-19.56236805555555
 30
0.0
 10
5.546065137672384
 20
-19.56753194444445
 30
0.0
 10
5.539016526739336
 20
-19.55941388888889
 30
0.0
 10
5.531963749139726
 20
-19.55129027777778
 30
0.0
 10
5.53767763788427
 20
-19.54417222222221
 30
0.0
 10
5.544016526613025
 20
-19.53824305555557
 30
0.0
 10
5.566372081603832
 20
-19.51732916666666
 30
0.0
 10
5.588865136591165
 20
-19.4965611111111
 30
0.0
 10
5.611159580472404
 20
-19.47559583333332
 30
0.0
 10
5.684048467519966
 20
-19.40706250000001
 30
0.0
 10
5.755102632391653
 20
-19.33677777777777
 30
0.0
 10
5.820644297402597
 20
-19.26102222222221
 30
0.0
 10
5.879267907032752
 20
-19.19329166666666
 30
0.0
 10
5.941873461006758
 20
-19.12921666666665
 30
0.0
 10
6.004305555555561
 20
-19.0650236111111
 30
0.0
 10
6.043806791765038
 20
-19.02440138888889
 30
0.0
 10
6.080559568614363
 20
-18.9811361111111
 30
0.0
 10
6.124038734182654
 20
-18.9442625
 30
0.0
 10
6.151969289032624
 20
-18.92057638888888
 30
0.0
 10
6.179698454998793
 20
-18.89670277777777
 30
0.0
 10
6.209910954235561
 20
-18.87610694444445
 30
0.0
 10
6.224372064981353
 20
-18.86625694444443
 30
0.0
 10
6.232752620325199
 20
-18.85373194444444
 30
0.0
 10
6.238979009056796
 20
-18.83802361111111
 30
0.0
 10
6.249052619913426
 20
-18.81263333333332
 30
0.0
 10
6.25941234187394
 20
-18.78738333333333
 30
0.0
 10
6.270162341602372
 20
-18.76230555555556
 30
0.0
 10
6.294274840993239
 20
-18.78454583333334
 30
0.0
 10
6.319052618145077
 20
-18.80613611111112
 30
0.0
 10
6.344181784176928
 20
-18.82736249999999
 30
0.0
 10
6.271755397117683
 20
-18.86891388888888
 30
0.0
 10
6.202548454421554
 20
-18.91551666666667
 30
0.0
 10
6.137558178285568
 20
-18.97186111111111
 30
0.0
  0
HATCH
  5
4C
330
1F
100
AcDbEntity
  8
Layer 1
 62
    35
420
 10579544
100
AcDbHatch
 10
0.0
 20
0.0
 30
0.0
210
0.0
220
0.0
230
1.0
  2
SOLID
 70
     1
 71
     0
 91
        7
 92
        1
 93
        1
 72
     4
 94
        3
 73
     0
 74
     1
 95
       23
 96
       19
 40
0.0
 40
0.0
 40
0.0
 40
0.0
 40
1.0
 40
1.0
 40
1.0
 40
2.0
 40
2.0
 40
2.0
 40
3.0
 40
3.0
 40
3.0
 40
4.0
 40
4.0
 40
4.0
 40
5.0
 40
5.0
 40
5.0
 40
6.0
 40
6.0
 40
6.0
 40
6.0
 10
6.151408177935688
 20
-12.66715694444444
 10
4.378667944941096
 20
-12.66715694444444
 10
2.936440203597057
 20
-14.10939861111111
 10
2.936440203597057
 20
-15.88213472222222
 10
2.936440203597057
 20
-15.88213472222222
 10
2.936440203597057
 20
-20.6798125
 10
2.936440203597057
 20
-20.6798125
 10
2.936440203597057
 20
-22.45254861111112
 10
4.378677667163073
 20
-23.89478611111111
 10
6.15142345571308
 20
-23.89478611111111
 10
7.924158133152256
 20
-23.89478611111111
 10
9.366401152273687
 20
-22.45254861111112
 10
9.366401152273687
 20
-20.6798125
 10
9.366401152273687
 20
-20.6798125
 10
9.366401152273687
 20
-15.88213472222222
 10
9.366401152273687
 20
-15.88213472222222
 10
9.366401152273687
 20
-14.10939861111111
 10
7.924158133152256
 20
-12.66715694444444
 10
6.151408177935688
 20
-12.66715694444444
 97
        0
 97
        0
 92
        1
 93
        1
 72
     4
 94
        3
 73
     0
 74
     1
 95
      188
 96
      184
 40
0.0
 40
0.0
 40
0.0
 40
0.0
 40
1.0
 40
1.0
 40
1.0
 40
2.0
 40
2.0
 40
2.0
 40
3.0
 40
3.0
 40
3.0
 40
4.0
 40
4.0
 40
4.0
 40
5.0
 40
5.0
 40
5.0
 40
6.0
 40
6.0
 40
6.0
 40
7.0
 40
7.0
 40
7.0
 40
8.0
 40
8.0
 40
8.0
 40
9.0
 40
9.0
 40
9.0
 40
10.0
 40
10.0
 40
10.0
 40
11.0
 40
11.0
 40
11.0
 40
12.0
 40
12.0
 40
12.0
 40
13.0
 40
13.0
 40
13.0
 40
14.0
 40
14.0
 40
14.0
 40
15.0
 40
15.0
 40
15.0
 40
16.0
 40
16.0
 40
16.0
 40
17.0
 40
17.0
 40
17.0
 40
18.0
 40
18.0
 40
18.0
 40
19.0
 40
19.0
 40
19.0
 40
20.0
 40
20.0
 40
20.0
 40
21.0
 40
21.0
 40
21.0
 40
22.0
 40
22.0
 40
22.0
 40
23.0
 40
23.0
 40
23.0
 40
24.0
 40
24.0
 40
24.0
 40
25.0
 40
25.0
 40
25.0
 40
26.0
 40
26.0
 40
26.0
 40
27.0
 40
27.0
 40
27.0
 40
28.0
 40
28.0
 40
28.0
 40
29.0
 40
29.0
 40
29.0
 40
30.0
 40
30.0
 40
30.0
 40
31.0
 40
31.0
 40
31.0
 40
32.0
 40
32.0
 40
32.0
 40
33.0
 40
33.0
 40
33.0
 40
34.0
 40
34.0
 40
34.0
 40
35.0
 40
35.0
 40
35.0
 40
36.0
 40
36.0
 40
36.0
 40
37.0
 40
37.0
 40
37.0
 40
38.0
 40
38.0
 40
38.0
 40
39.0
 40
39.0
 40
39.0
 40
40.0
 40
40.0
 40
40.0
 40
41.0
 40
41.0
 40
41.0
 40
42.0
 40
42.0
 40
42.0
 40
43.0
 40
43.0
 40
43.0
 40
44.0
 40
44.0
 40
44.0
 40
45.0
 40
45.0
 40
45.0
 40
46.0
 40
46.0
 40
46.0
 40
47.0
 40
47.0
 40
47.0
 40
48.0
 40
48.0
 40
48.0
 40
49.0
 40
49.0
 40
49.0
 40
50.0
 40
50.0
 40
50.0
 40
51.0
 40
51.0
 40
51.0
 40
52.0
 40
52.0
 40
52.0
 40
53.0
 40
53.0
 40
53.0
 40
54.0
 40
54.0
 40
54.0
 40
55.0
 40
55.0
 40
55.0
 40
56.0
 40
56.0
 40
56.0
 40
57.0
 40
57.0
 40
57.0
 40
58.0
 40
58.0
 40
58.0
 40
59.0
 40
59.0
 40
59.0
 40
60.0
 40
60.0
 40
60.0
 40
61.0
 40
61.0
 40
61.0
 40
61.0
 10
9.215576156083847
 20
-20.6798125
 10
9.215576156083847
 20
-22.36939305555554
 10
7.841009524141655
 20
-23.7439611111111
 10
6.15142345571308
 20
-23.7439611111111
 10
6.15142345571308
 20
-23.7439611111111
 10
6.151408177935688
 20
-23.7439611111111
 10
6.151408177935688
 20
-23.7439611111111
 10
6.14147067818673
 20
-23.7439611111111
 10
6.131690122878252
 20
-23.74330694444443
 10
6.121774845350956
 20
-23.74320972222222
 10
6.028812347699386
 20
-23.31251250000001
 10
5.91938596157484
 20
-22.70578888888889
 10
5.849619296670627
 20
-22.29027777777777
 10
5.845949852318881
 20
-22.26843055555554
 10
5.844372074580961
 20
-22.26883611111111
 10
5.825535963945691
 20
-22.28088472222223
 10
5.738301243927203
 20
-22.33668333333334
 10
5.643845690757795
 20
-22.37743194444445
 10
5.547154026533765
 20
-22.4133125
 10
5.536617915688819
 20
-22.41721527777779
 10
5.520324860544861
 20
-22.42813333333334
 10
5.514127638479193
 20
-22.41078611111111
 10
5.507638888888891
 20
-22.39262222222222
 10
5.527499999999994
 20
-22.39280416666666
 10
5.5381818045382
 20
-22.3888513888889
 10
5.638487357559825
 20
-22.35165972222222
 10
5.735305555555556
 20
-22.30771805555554
 10
5.825760963940007
 20
-22.24981805555555
 10
6.02416790337227
 20
-22.12278750000001
 10
6.115524845508844
 20
-21.90082361111111
 10
6.17054428856338
 20
-21.68105972222222
 10
6.219144287335641
 20
-21.4883986111111
 10
6.249809564338748
 20
-21.29452361111112
 10
6.313665118281177
 20
-21.1053361111111
 10
6.36194845039477
 20
-20.96227499999999
 10
6.382105394330008
 20
-20.79026666666666
 10
6.457198447988553
 20
-20.6595986111111
 10
6.565622056360653
 20
-20.47093333333333
 10
6.736155385385953
 20
-20.3462236111111
 10
6.868676215371528
 20
-20.17824305555556
 10
6.892633159210769
 20
-20.14787638888889
 10
6.919059547432071
 20
-20.1200861111111
 10
6.946756768954603
 20
-20.09365
 10
7.467973422454229
 20
-20.00575833333333
 10
7.954716465713621
 20
-19.74517083333333
 10
8.313594234425384
 20
-19.34239444444446
 10
8.313594234425384
 20
-19.34239444444446
 10
8.353483122306594
 20
-19.29763055555554
 10
8.353483122306594
 20
-19.29763055555554
 10
8.377449788367812
 20
-19.27074722222222
 10
8.381720621593255
 20
-19.23160833333332
 10
8.364122010926723
 20
-19.20018750000001
 10
8.346513888888897
 20
-19.16876527777779
 10
8.310947012270036
 20
-19.15189861111111
 10
8.275473402055063
 20
-19.15832777777779
 10
8.275473402055063
 20
-19.15832777777779
 10
8.216462292434699
 20
-19.16894722222221
 10
8.216462292434699
 20
-19.16894722222221
 10
7.945734521496079
 20
-19.21769305555555
 10
7.670494250671456
 20
-19.2133611111111
 10
7.398212313105432
 20
-19.15597916666666
 10
7.35355675867797
 20
-19.14664305555556
 10
7.309783148672674
 20
-19.13558888888888
 10
7.266442871989764
 20
-19.1237263888889
 10
7.35300120313645
 20
-19.06145833333332
 10
7.437476201002432
 20
-18.99677499999999
 10
7.508670643648353
 20
-18.91602499999999
 10
7.560399809008231
 20
-18.85735555555556
 10
7.593534530393399
 20
-18.79019861111111
 10
7.588487308298681
 20
-18.70854722222223
 10
7.585023419497297
 20
-18.65241666666667
 10
7.553486111111119
 20
-18.61301666666666
 10
7.50542619928587
 20
-18.60754583333333
 10
7.48915814414128
 20
-18.60569305555555
 10
7.474444444444442
 20
-18.61050138888888
 10
7.459608144887776
 20
-18.61562638888889
 10
7.394660924306258
 20
-18.63805277777778
 10
7.33797481462716
 20
-18.67537500000001
 10
7.282194444444435
 20
-18.71430277777777
 10
7.175740096503331
 20
-18.78860138888889
 10
7.068774821427724
 20
-18.86214027777777
 10
6.959230379750604
 20
-18.93189166666667
 10
6.934105380385315
 20
-18.94789444444445
 10
6.908622047695745
 20
-18.96336944444445
 10
6.88330121500207
 20
-18.9790875
 10
6.87074427087484
 20
-18.97290694444445
 10
6.85851388888889
 20
-18.96627777777778
 10
6.84611927149692
 20
-18.95986805555556
 10
7.0005567675955
 20
-18.8653236111111
 10
7.155031763693134
 20
-18.77194583333332
 10
7.299965093365143
 20
-18.6706513888889
 10
7.346563703299075
 20
-18.63807638888887
 10
7.396102590936506
 20
-18.61057083333334
 10
7.448834534048829
 20
-18.58896666666667
 10
7.475359533378751
 20
-18.57809444444443
 10
7.502859532684043
 20
-18.57935972222223
 10
7.530486111111107
 20
-18.58134305555556
 10
7.554820642482506
 20
-18.5830986111111
 10
7.560040086795096
 20
-18.578925
 10
7.567256753279454
 20
-18.55587916666667
 10
7.592866474854721
 20
-18.4740875
 10
7.557934531292731
 20
-18.37703055555554
 10
7.473697033420749
 20
-18.34676249999999
 10
7.332563703652744
 20
-18.2960513888889
 10
7.132247042046502
 20
-18.43291388888888
 10
7.004781767488768
 20
-18.48270416666666
 10
6.841522049390833
 20
-18.54648194444444
 10
6.702138888888889
 20
-18.65314444444445
 10
6.544120668014935
 20
-18.72587500000001
 10
6.532188723871918
 20
-18.73136944444445
 10
6.520419279724794
 20
-18.73695833333333
 10
6.508613724467472
 20
-18.74253194444443
 10
6.453930555555567
 20
-18.69939305555555
 10
6.401660949391548
 20
-18.65373750000001
 10
6.351870672871579
 20
-18.6057111111111
 10
6.48166511403714
 20
-18.41297638888889
 10
6.703319444444433
 20
-18.29925416666666
 10
6.802341494825062
 20
-18.07987777777777
 10
6.843183160459981
 20
-17.98937500000001
 10
6.862790104409113
 20
-17.85092638888889
 10
6.741127607482566
 20
-17.81611944444444
 10
6.696844275267924
 20
-17.80345555555555
 10
6.654041666666672
 20
-17.8076
 10
6.612094277408889
 20
-17.82501250000001
 10
6.451933170343787
 20
-17.89148333333333
 10
6.324238729125176
 20
-18.01937222222222
 10
6.207506787629629
 20
-18.14372361111111
 10
6.164148455391619
 20
-18.18991527777778
 10
6.12172901201878
 20
-18.23693888888889
 10
6.079424846420807
 20
-18.28407777777777
 10
5.768252632059456
 20
-17.83108194444445
 10
5.634887357650769
 20
-17.25622222222223
 10
5.750270688069273
 20
-16.66471944444445
 10
5.825713741718977
 20
-16.27772222222222
 10
6.005317903848461
 20
-15.92083472222223
 10
6.26963595272678
 20
-15.63264861111111
 10
6.26963595272678
 20
-15.63264861111111
 10
6.310056785038998
 20
-15.58858472222222
 10
6.310056785038998
 20
-15.58858472222222
 10
6.334392895535327
 20
-15.56206944444444
 10
6.339233173190829
 20
-15.52303888888889
 10
6.32212900695625
 20
-15.49136944444444
 10
6.305029007388232
 20
-15.45969583333333
 10
6.269677619392395
 20
-15.44235416666667
 10
6.234222222222216
 20
-15.44812916666667
 10
6.234222222222216
 20
-15.44812916666667
 10
6.175151232891444
 20
-15.45777777777778
 10
6.175151232891444
 20
-15.45777777777778
 10
5.222616534732272
 20
-15.61392361111112
 10
4.472816553673813
 20
-16.33048611111111
 10
4.264945725591739
 20
-17.28325972222222
 10
4.12954572901223
 20
-17.90349444444444
 10
4.245765170520725
 20
-18.5362625
 10
4.592219328435223
 20
-19.06500555555554
 10
4.752637379938278
 20
-19.30984305555555
 10
4.953784597079093
 20
-19.51814722222222
 10
5.185233202343321
 20
-19.6845111111111
 10
5.148701258821752
 20
-19.73413888888889
 10
5.117658204050409
 20
-19.78690416666667
 10
5.101051260025492
 20
-19.84821527777778
 10
5.068281816408873
 20
-19.96919722222222
 10
5.062026261011346
 20
-20.09419722222222
 10
5.040804039325242
 20
-20.21742777777778
 10
4.960142930251802
 20
-20.68577777777778
 10
4.737269324770952
 20
-21.10878194444444
 10
4.58725821744944
 20
-21.55718472222222
 10
4.397895722233139
 20
-22.12319861111112
 10
4.571385995628185
 20
-22.75104166666668
 10
4.614090161216053
 20
-23.32871111111111
 10
3.702031850923251
 20
-22.79732638888888
 10
3.087263888888894
 20
-21.80931805555555
 10
3.087263888888894
 20
-20.6798125
 10
3.087263888888894
 20
-20.6798125
 10
3.087263888888894
 20
-15.88213472222222
 10
3.087263888888894
 20
-15.88213472222222
 10
3.087263888888894
 20
-14.19254861111112
 10
4.46183599839565
 20
-12.81798055555555
 10
6.15142345571308
 20
-12.81798055555555
 10
7.841009524141655
 20
-12.81798055555555
 10
9.215576156083847
 20
-14.19254861111112
 10
9.215576156083847
 20
-15.88213472222222
 10
9.215576156083847
 20
-15.88213472222222
 10
9.215576156083847
 20
-20.6798125
 10
9.215576156083847
 20
-20.6798125
 97
        0
 97
        0
 92
        1
 93
        1
 72
     4
 94
        3
 73
     0
 74
     1
 95
       35
 96
       31
 40
0.0
 40
0.0
 40
0.0
 40
0.0
 40
1.0
 40
1.0
 40
1.0
 40
2.0
 40
2.0
 40
2.0
 40
3.0
 40
3.0
 40
3.0
 40
4.0
 40
4.0
 40
4.0
 40
5.0
 40
5.0
 40
5.0
 40
6.0
 40
6.0
 40
6.0
 40
7.0
 40
7.0
 40
7.0
 40
8.0
 40
8.0
 40
8.0
 40
9.0
 40
9.0
 40
9.0
 40
10.0
 40
10.0
 40
10.0
 40
10.0
 10
5.962855404921154
 20
-18.4131486111111
 10
5.916019294993222
 20
-18.46461527777776
 10
5.86877346285342
 20
-18.51570833333333
 10
5.819715130759404
 20
-18.56515416666667
 10
5.776412354075546
 20
-18.60879305555555
 10
5.748133188123271
 20
-18.66163611111111
 10
5.726062355347494
 20
-18.71876111111111
 10
5.642969301891045
 20
-18.93385277777778
 10
5.547704026519871
 20
-19.14503194444445
 10
5.430276251708569
 20
-19.343725
 10
5.387388888888887
 20
-19.41629583333333
 10
5.341701253946161
 20
-19.48580555555557
 10
5.290706810789945
 20
-19.55216805555556
 10
5.072991538512118
 20
-19.39696527777778
 10
4.883920709955115
 20
-19.20201250000001
 10
4.733497102644024
 20
-18.97243055555555
 10
4.412115166318371
 20
-18.48195277777778
 10
4.304319444444445
 20
-17.89485277777777
 10
4.429980443644833
 20
-17.31930277777778
 10
4.429980443644833
 20
-17.31928472222221
 10
4.429980443644833
 20
-17.31928472222221
 10
4.429980443644833
 20
-17.31928472222221
 10
4.609845716878832
 20
-16.49479722222222
 10
5.226308201305679
 20
-15.86091805555556
 10
6.024658181137662
 20
-15.66120416666667
 10
5.804898464467038
 20
-15.94423611111112
 10
5.653859579393711
 20
-16.27654999999999
 10
5.584484581146271
 20
-16.6323875
 10
5.457145695474233
 20
-17.28520138888889
 10
5.610495691600287
 20
-17.91931944444444
 10
5.962855404921154
 20
-18.4131486111111
 97
        0
 97
        0
 92
        1
 93
        1
 72
     4
 94
        3
 73
     0
 74
     1
 95
       41
 96
       37
 40
0.0
 40
0.0
 40
0.0
 40
0.0
 40
1.0
 40
1.0
 40
1.0
 40
2.0
 40
2.0
 40
2.0
 40
3.0
 40
3.0
 40
3.0
 40
4.0
 40
4.0
 40
4.0
 40
5.0
 40
5.0
 40
5.0
 40
6.0
 40
6.0
 40
6.0
 40
7.0
 40
7.0
 40
7.0
 40
8.0
 40
8.0
 40
8.0
 40
9.0
 40
9.0
 40
9.0
 40
10.0
 40
10.0
 40
10.0
 40
11.0
 40
11.0
 40
11.0
 40
12.0
 40
12.0
 40
12.0
 40
12.0
 10
7.363523425092858
 20
-19.32127916666667
 10
7.595033141466653
 20
-19.3700625
 10
7.828694444444434
 20
-19.38330138888889
 10
8.060478963041835
 20
-19.36088888888889
 10
7.824730357886235
 20
-19.58395416666667
 10
7.542528976126353
 20
-19.74842361111112
 10
7.238597222222223
 20
-19.84792222222222
 10
7.291609538020666
 20
-19.79803749999999
 10
7.339444444444451
 20
-19.74302222222223
 10
7.375941480334707
 20
-19.67656666666666
 10
7.394762313192587
 20
-19.64230694444445
 10
7.409169257273081
 20
-19.60639027777777
 10
7.409276201714824
 20
-19.56633611111111
 10
7.409430555555546
 20
-19.50744722222223
 10
7.374708333333324
 20
-19.46610138888887
 10
7.316477592948003
 20
-19.45492083333334
 10
7.172337318811515
 20
-19.42727638888889
 10
7.037319444444442
 20
-19.56463194444445
 10
6.943217880155114
 20
-19.65411250000001
 10
6.820210938818086
 20
-19.77105972222221
 10
6.67373733140721
 20
-19.86369583333334
 10
6.524901224056015
 20
-19.94446527777778
 10
6.517520668686908
 20
-19.94846944444445
 10
6.510379002200655
 20
-19.95278750000001
 10
6.503067891274238
 20
-19.95688611111111
 10
6.459658170148638
 20
-19.95586944444443
 10
6.416226226801377
 20
-19.95353472222223
 10
6.372760950121624
 20
-19.94989305555555
 10
6.418559560075765
 20
-19.83499027777778
 10
6.4935026137381
 20
-19.74076805555556
 10
6.591204000158844
 20
-19.66299583333332
 10
6.761620662520423
 20
-19.52732499999999
 10
6.922380380681513
 20
-19.38032777777777
 10
7.095699820747541
 20
-19.24818055555556
 10
7.182410929668144
 20
-19.27718472222222
 10
7.271531760750096
 20
-19.30205138888889
 10
7.363523425092858
 20
-19.32127916666667
 97
        0
 97
        0
 92
        1
 93
        1
 72
     4
 94
        3
 73
     0
 74
     1
 95
       29
 96
       25
 40
0.0
 40
0.0
 40
0.0
 40
0.0
 40
1.0
 40
1.0
 40
1.0
 40
2.0
 40
2.0
 40
2.0
 40
3.0
 40
3.0
 40
3.0
 40
4.0
 40
4.0
 40
4.0
 40
5.0
 40
5.0
 40
5.0
 40
6.0
 40
6.0
 40
6.0
 40
7.0
 40
7.0
 40
7.0
 40
8.0
 40
8.0
 40
8.0
 40
8.0
 10
6.241229008999956
 20
-20.10578750000001
 10
6.252848453150868
 20
-20.1073611111111
 10
6.264477619523758
 20
-20.10852361111112
 10
6.276101230341232
 20
-20.10991527777777
 10
6.202540121088431
 20
-20.17004583333333
 10
6.135037345015917
 20
-20.23768749999999
 10
6.075405402077902
 20
-20.31471805555556
 10
6.048326236095313
 20
-20.34969583333332
 10
6.018827625729399
 20
-20.38273333333334
 10
5.988017904285496
 20
-20.41445277777777
 10
5.975880404592115
 20
-20.42694583333335
 10
5.91309290617826
 20
-20.50347638888888
 10
5.89618055555555
 20
-20.48445277777778
 10
5.889201240115148
 20
-20.47660972222221
 10
5.894812351084511
 20
-20.46907638888888
 10
5.900894295375312
 20
-20.46296527777779
 10
5.90720123966043
 20
-20.45660694444445
 10
5.913733183939863
 20
-20.45047777777778
 10
5.920285961552104
 20
-20.44436666666666
 10
5.975585960155109
 20
-20.3928486111111
 10
6.024942903352692
 20
-20.33599444444445
 10
6.071984568830985
 20
-20.27694722222221
 10
6.122395678668605
 20
-20.21365138888889
 10
6.178419288364441
 20
-20.15603611111111
 10
6.241229008999956
 20
-20.10578750000001
 97
        0
 97
        0
 92
        1
 93
        1
 72
     4
 94
        3
 73
     0
 74
     1
 95
       23
 96
       19
 40
0.0
 40
0.0
 40
0.0
 40
0.0
 40
1.0
 40
1.0
 40
1.0
 40
2.0
 40
2.0
 40
2.0
 40
3.0
 40
3.0
 40
3.0
 40
4.0
 40
4.0
 40
4.0
 40
5.0
 40
5.0
 40
5.0
 40
6.0
 40
6.0
 40
6.0
 40
6.0
 10
6.340437339827076
 20
-19.32914166666668
 10
6.148052622464901
 20
-19.47170694444445
 10
5.9905762375542
 20
-19.65164305555555
 10
5.838756796945037
 20
-19.8357375
 10
5.82989707494663
 20
-19.83263749999999
 10
5.821045686281346
 20
-19.829525
 10
5.812241519837092
 20
-19.82632222222221
 10
5.900297073168177
 20
-19.72357083333334
 10
5.986331793216979
 20
-19.61904027777778
 10
6.08114290193296
 20
-19.5221375
 10
6.256377619728381
 20
-19.34301944444443
 10
6.46513039223262
 20
-19.19828194444444
 10
6.680688720120492
 20
-19.06237222222222
 10
6.69235399760358
 20
-19.06905277777777
 10
6.703734552871638
 20
-19.07612083333333
 10
6.715545663684376
 20
-19.08260416666667
 10
6.587861111111124
 20
-19.16078333333333
 10
6.460812336786148
 20
-19.23994166666666
 10
6.340437339827076
 20
-19.32914166666668
 97
        0
 97
        0
 92
        1
 93
        1
 72
     4
 94
        3
 73
     0
 74
     1
 95
       47
 96
       43
 40
0.0
 40
0.0
 40
0.0
 40
0.0
 40
1.0
 40
1.0
 40
1.0
 40
2.0
 40
2.0
 40
2.0
 40
3.0
 40
3.0
 40
3.0
 40
4.0
 40
4.0
 40
4.0
 40
5.0
 40
5.0
 40
5.0
 40
6.0
 40
6.0
 40
6.0
 40
7.0
 40
7.0
 40
7.0
 40
8.0
 40
8.0
 40
8.0
 40
9.0
 40
9.0
 40
9.0
 40
10.0
 40
10.0
 40
10.0
 40
11.0
 40
11.0
 40
11.0
 40
12.0
 40
12.0
 40
12.0
 40
13.0
 40
13.0
 40
13.0
 40
14.0
 40
14.0
 40
14.0
 40
14.0
 10
6.137558178285568
 20
-18.97186111111111
 10
6.034166666666667
 20
-19.0615
 10
5.942413738770887
 20
-19.16339722222223
 10
5.852966518808292
 20
-19.26666666666668
 10
5.765097222222216
 20
-19.36812083333333
 10
5.665944444444449
 20
-19.46023333333333
 10
5.567890137121038
 20
-19.55198611111112
 10
5.565719303842545
 20
-19.55401666666666
 10
5.563384581679302
 20
-19.55593055555556
 10
5.56092902618578
 20
-19.55760694444444
 10
5.55396374858396
 20
-19.56236805555555
 10
5.546065137672384
 20
-19.56753194444445
 10
5.539016526739336
 20
-19.55941388888889
 10
5.531963749139726
 20
-19.55129027777778
 10
5.53767763788427
 20
-19.54417222222221
 10
5.544016526613025
 20
-19.53824305555557
 10
5.566372081603832
 20
-19.51732916666666
 10
5.588865136591165
 20
-19.4965611111111
 10
5.611159580472404
 20
-19.47559583333332
 10
5.684048467519966
 20
-19.40706250000001
 10
5.755102632391653
 20
-19.33677777777777
 10
5.820644297402597
 20
-19.26102222222221
 10
5.879267907032752
 20
-19.19329166666666
 10
5.941873461006758
 20
-19.12921666666665
 10
6.004305555555561
 20
-19.0650236111111
 10
6.043806791765038
 20
-19.02440138888889
 10
6.080559568614363
 20
-18.9811361111111
 10
6.124038734182654
 20
-18.9442625
 10
6.151969289032624
 20
-18.92057638888888
 10
6.179698454998793
 20
-18.89670277777777
 10
6.209910954235561
 20
-18.87610694444445
 10
6.224372064981353
 20
-18.86625694444443
 10
6.232752620325199
 20
-18.85373194444444
 10
6.238979009056796
 20
-18.83802361111111
 10
6.249052619913426
 20
-18.81263333333332
 10
6.25941234187394
 20
-18.78738333333333
 10
6.270162341602372
 20
-18.76230555555556
 10
6.294274840993239
 20
-18.78454583333334
 10
6.319052618145077
 20
-18.80613611111112
 10
6.344181784176928
 20
-18.82736249999999
 10
6.271755397117683
 20
-18.86891388888888
 10
6.202548454421554
 20
-18.91551666666667
 10
6.137558178285568
 20
-18.97186111111111
 97
        0
 97
        0
 75
     2
 76
     1
 98
        0
  0
SPLINE
  5
4D
330
1F
100
AcDbEntity
  8
Layer 1
370
     0
100
AcDbSpline
210
0.0
220
0.0
230
1.0
 70
    11
 71
     3
 72
    35
 73
    31
 74
     0
 42
0.0000000001
 43
0.0000000001
 12
1.0
 22
0.0
 32
0.0
 13
1.0
 23
0.0
 33
0.0
 40
0.0
 40
0.0
 40
0.0
 40
0.0
 40
1.0
 40
1.0
 40
1.0
 40
2.0
 40
2.0
 40
2.0
 40
3.0
 40
3.0
 40
3.0
 40
4.0
 40
4.0
 40
4.0
 40
5.0
 40
5.0
 40
5.0
 40
6.0
 40
6.0
 40
6.0
 40
7.0
 40
7.0
 40
7.0
 40
8.0
 40
8.0
 40
8.0
 40
9.0
 40
9.0
 40
9.0
 40
10.0
 40
10.0
 40
10.0
 40
10.0
 10
8.679747002953365
 20
-13.29282500000001
 30
0.0
 10
8.004409520013825
 20
-12.64032361111111
 30
0.0
 10
7.10649287603044
 20
-12.28097083333334
 30
0.0
 10
6.151408177935688
 20
-12.28097083333334
 30
0.0
 10
5.196334590951765
 20
-12.28097083333334
 30
0.0
 10
4.298422113634944
 20
-12.64032361111111
 30
0.0
 10
3.623079075139988
 20
-13.29282500000001
 30
0.0
 10
2.947742981089303
 20
-13.94532638888889
 30
0.0
 10
2.57580410159638
 20
-14.81287222222222
 30
0.0
 10
2.57580410159638
 20
-15.73565138888888
 30
0.0
 10
2.57580410159638
 20
-15.73565138888888
 30
0.0
 10
2.57580410159638
 20
-20.82629027777777
 30
0.0
 10
2.57580410159638
 20
-20.82629027777777
 30
0.0
 10
2.57580410159638
 20
-21.74907916666666
 30
0.0
 10
2.947742981089303
 20
-22.61662638888889
 30
0.0
 10
3.623079075139988
 20
-23.26911249999999
 30
0.0
 10
4.298422113634944
 20
-23.92161388888889
 30
0.0
 10
5.196344313173742
 20
-24.28097083333333
 30
0.0
 10
6.151417900157664
 20
-24.28097083333333
 30
0.0
 10
7.10649287603044
 20
-24.28097083333333
 30
0.0
 10
8.004409520013825
 20
-23.92161388888889
 30
0.0
 10
8.679747002953365
 20
-23.26911249999999
 30
0.0
 10
9.355099763670296
 20
-22.61662638888889
 30
0.0
 10
9.727023365385826
 20
-21.74907916666666
 30
0.0
 10
9.727023365385826
 20
-20.82629027777777
 30
0.0
 10
9.727023365385826
 20
-20.82629027777777
 30
0.0
 10
9.727023365385826
 20
-15.73565138888888
 30
0.0
 10
9.727023365385826
 20
-15.73565138888888
 30
0.0
 10
9.727023365385826
 20
-14.81287222222222
 30
0.0
 10
9.355099763670296
 20
-13.94531666666666
 30
0.0
 10
8.679747002953365
 20
-13.29282500000001
 30
0.0
  0
SPLINE
  5
4E
330
1F
100
AcDbEntity
  8
Layer 1
370
     0
100
AcDbSpline
210
0.0
220
0.0
230
1.0
 70
    11
 71
     3
 72
    26
 73
    22
 74
     0
 42
0.0000000001
 43
0.0000000001
 12
1.0
 22
0.0
 32
0.0
 13
1.0
 23
0.0
 33
0.0
 40
0.0
 40
0.0
 40
0.0
 40
0.0
 40
1.0
 40
1.0
 40
1.0
 40
2.0
 40
2.0
 40
2.0
 40
3.0
 40
3.0
 40
3.0
 40
4.0
 40
4.0
 40
4.0
 40
5.0
 40
5.0
 40
5.0
 40
6.0
 40
6.0
 40
6.0
 40
7.0
 40
7.0
 40
7.0
 40
7.0
 10
9.578440035806024
 20
-20.82629027777777
 30
0.0
 10
9.578440035806024
 20
-22.65204861111111
 30
0.0
 10
8.04107896353192
 20
-24.13740972222222
 30
0.0
 10
6.151417900157664
 20
-24.13740972222222
 30
0.0
 10
6.151417900157664
 20
-24.13740972222222
 30
0.0
 10
6.151408177935688
 20
-24.13740972222222
 30
0.0
 10
6.151408177935688
 20
-24.13740972222222
 30
0.0
 10
4.261744336783724
 20
-24.13740972222222
 30
0.0
 10
2.724391597842744
 20
-22.65204861111111
 30
0.0
 10
2.724391597842744
 20
-20.82629027777777
 30
0.0
 10
2.724391597842744
 20
-20.82629027777777
 30
0.0
 10
2.724391597842744
 20
-15.73565138888888
 30
0.0
 10
2.724391597842744
 20
-15.73565138888888
 30
0.0
 10
2.724391597842744
 20
-13.90989027777778
 30
0.0
 10
4.261748503450286
 20
-12.42452777777777
 30
0.0
 10
6.151417900157664
 20
-12.42452777777777
 30
0.0
 10
8.04107896353192
 20
-12.42452777777777
 30
0.0
 10
9.578440035806024
 20
-13.90989027777778
 30
0.0
 10
9.578440035806024
 20
-15.73565138888888
 30
0.0
 10
9.578440035806024
 20
-15.73565138888888
 30
0.0
 10
9.578440035806024
 20
-20.82629027777777
 30
0.0
 10
9.578440035806024
 20
-20.82629027777777
 30
0.0
  0
HATCH
  5
4F
330
1F
100
AcDbEntity
  8
Layer 1
 62
    35
420
 10579544
100
AcDbHatch
 10
0.0
 20
0.0
 30
0.0
210
0.0
220
0.0
230
1.0
  2
SOLID
 70
     1
 71
     0
 91
        2
 92
        1
 93
        1
 72
     4
 94
        3
 73
     0
 74
     1
 95
       35
 96
       31
 40
0.0
 40
0.0
 40
0.0
 40
0.0
 40
1.0
 40
1.0
 40
1.0
 40
2.0
 40
2.0
 40
2.0
 40
3.0
 40
3.0
 40
3.0
 40
4.0
 40
4.0
 40
4.0
 40
5.0
 40
5.0
 40
5.0
 40
6.0
 40
6.0
 40
6.0
 40
7.0
 40
7.0
 40
7.0
 40
8.0
 40
8.0
 40
8.0
 40
9.0
 40
9.0
 40
9.0
 40
10.0
 40
10.0
 40
10.0
 40
10.0
 10
8.679747002953365
 20
-13.29282500000001
 10
8.004409520013825
 20
-12.64032361111111
 10
7.10649287603044
 20
-12.28097083333334
 10
6.151408177935688
 20
-12.28097083333334
 10
5.196334590951765
 20
-12.28097083333334
 10
4.298422113634944
 20
-12.64032361111111
 10
3.623079075139988
 20
-13.29282500000001
 10
2.947742981089303
 20
-13.94532638888889
 10
2.57580410159638
 20
-14.81287222222222
 10
2.57580410159638
 20
-15.73565138888888
 10
2.57580410159638
 20
-15.73565138888888
 10
2.57580410159638
 20
-20.82629027777777
 10
2.57580410159638
 20
-20.82629027777777
 10
2.57580410159638
 20
-21.74907916666666
 10
2.947742981089303
 20
-22.61662638888889
 10
3.623079075139988
 20
-23.26911249999999
 10
4.298422113634944
 20
-23.92161388888889
 10
5.196344313173742
 20
-24.28097083333333
 10
6.151417900157664
 20
-24.28097083333333
 10
7.10649287603044
 20
-24.28097083333333
 10
8.004409520013825
 20
-23.92161388888889
 10
8.679747002953365
 20
-23.26911249999999
 10
9.355099763670296
 20
-22.61662638888889
 10
9.727023365385826
 20
-21.74907916666666
 10
9.727023365385826
 20
-20.82629027777777
 10
9.727023365385826
 20
-20.82629027777777
 10
9.727023365385826
 20
-15.73565138888888
 10
9.727023365385826
 20
-15.73565138888888
 10
9.727023365385826
 20
-14.81287222222222
 10
9.355099763670296
 20
-13.94531666666666
 10
8.679747002953365
 20
-13.29282500000001
 97
        0
 97
        0
 92
        1
 93
        1
 72
     4
 94
        3
 73
     0
 74
     1
 95
       26
 96
       22
 40
0.0
 40
0.0
 40
0.0
 40
0.0
 40
1.0
 40
1.0
 40
1.0
 40
2.0
 40
2.0
 40
2.0
 40
3.0
 40
3.0
 40
3.0
 40
4.0
 40
4.0
 40
4.0
 40
5.0
 40
5.0
 40
5.0
 40
6.0
 40
6.0
 40
6.0
 40
7.0
 40
7.0
 40
7.0
 40
7.0
 10
9.578440035806024
 20
-20.82629027777777
 10
9.578440035806024
 20
-22.65204861111111
 10
8.04107896353192
 20
-24.13740972222222
 10
6.151417900157664
 20
-24.13740972222222
 10
6.151417900157664
 20
-24.13740972222222
 10
6.151408177935688
 20
-24.13740972222222
 10
6.151408177935688
 20
-24.13740972222222
 10
4.261744336783724
 20
-24.13740972222222
 10
2.724391597842744
 20
-22.65204861111111
 10
2.724391597842744
 20
-20.82629027777777
 10
2.724391597842744
 20
-20.82629027777777
 10
2.724391597842744
 20
-15.73565138888888
 10
2.724391597842744
 20
-15.73565138888888
 10
2.724391597842744
 20
-13.90989027777778
 10
4.261748503450286
 20
-12.42452777777777
 10
6.151417900157664
 20
-12.42452777777777
 10
8.04107896353192
 20
-12.42452777777777
 10
9.578440035806024
 20
-13.90989027777778
 10
9.578440035806024
 20
-15.73565138888888
 10
9.578440035806024
 20
-15.73565138888888
 10
9.578440035806024
 20
-20.82629027777777
 10
9.578440035806024
 20
-20.82629027777777
 97
        0
 97
        0
 75
     2
 76
     1
 98
        0
  0
ENDSEC
  0
SECTION
  2
OBJECTS
  0
DICTIONARY
  5
C
330
0
100
AcDbDictionary
281
     1
  3
ACAD_GROUP
350
D
  3
ACAD_LAYOUT
350
1A
  3
ACAD_MATERIAL
350
3B
  3
ACAD_MLEADERSTYLE
350
51
  3
ACAD_MLINESTYLE
350
17
  3
ACAD_PLOTSETTINGS
350
19
  3
ACAD_PLOTSTYLENAME
350
E
  3
ACAD_TABLESTYLE
350
50
  3
ACAD_VISUALSTYLE
350
2A
  0
SUN
  5
3F
330
29
100
AcDbSun
 90
        1
290
     0
 63
     7
421
 16777215
 40
1.0
291
     1
 91
  2455826
 92
 54000000
292
     0
 70
     2
 71
   256
280
     1
  0
DICTIONARY
  5
D
102
{ACAD_REACTORS
330
C
102
}
330
C
100
AcDbDictionary
281
     1
  0
DICTIONARY
  5
1A
102
{ACAD_REACTORS
330
C
102
}
330
C
100
AcDbDictionary
281
     1
  3
Layout1
350
1E
  3
Layout2
350
26
  3
Model
350
22
  0
DICTIONARY
  5
3B
102
{ACAD_REACTORS
330
C
102
}
330
C
100
AcDbDictionary
281
     1
  3
ByBlock
350
3D
  3
ByLayer
350
3C
  3
Global
350
3E
  0
DICTIONARY
  5
51
102
{ACAD_REACTORS
330
C
102
}
330
C
100
AcDbDictionary
281
     1
  0
DICTIONARY
  5
17
102
{ACAD_REACTORS
330
C
102
}
330
C
100
AcDbDictionary
281
     1
  3
Standard
350
18
  0
DICTIONARY
  5
19
102
{ACAD_REACTORS
330
C
102
}
330
C
100
AcDbDictionary
281
     1
  0
ACDBDICTIONARYWDFLT
  5
E
102
{ACAD_REACTORS
330
C
102
}
330
C
100
AcDbDictionary
281
     1
  3
Normal
350
F
100
AcDbDictionaryWithDefault
340
F
  0
DICTIONARY
  5
50
102
{ACAD_REACTORS
330
C
102
}
330
C
100
AcDbDictionary
281
     1
  0
DICTIONARY
  5
2A
102
{ACAD_REACTORS
330
C
102
}
330
C
100
AcDbDictionary
281
     1
  3
2dWireframe
350
2F
  3
3D Hidden
350
31
  3
3dWireframe
350
30
  3
Basic
350
32
  3
Brighten
350
36
  3
ColorChange
350
3A
  3
Conceptual
350
34
  3
Dim
350
35
  3
Facepattern
350
39
  3
Flat
350
2B
  3
FlatWithEdges
350
2C
  3
Gouraud
350
2D
  3
GouraudWithEdges
350
2E
  3
Linepattern
350
38
  3
Realistic
350
33
  3
Thicken
350
37
  0
LAYOUT
  5
1E
102
{ACAD_REACTORS
330
1A
102
}
330
1A
100
AcDbPlotSettings
  1

  2
none_device
  4

  6

 40
0.0
 41
0.0
 42
0.0
 43
0.0
 44
0.0
 45
0.0
 46
0.0
 47
0.0
 48
0.0
 49
0.0
140
0.0
141
0.0
142
1.0
143
1.0
 70
   688
 72
     0
 73
     0
 74
     5
  7

 75
    16
 76
     0
 77
     2
 78
   300
147
1.0
148
0.0
149
0.0
100
AcDbLayout
  1
Layout1
 70
     1
 71
     1
 10
0.0
 20
0.0
 11
12.0
 21
9.0
 12
0.0
 22
0.0
 32
0.0
 14
1.000000000000000E+20
 24
1.000000000000000E+20
 34
1.000000000000000E+20
 15
-1.000000000000000E+20
 25
-1.000000000000000E+20
 35
-1.000000000000000E+20
146
0.0
 13
0.0
 23
0.0
 33
0.0
 16
1.0
 26
0.0
 36
0.0
 17
0.0
 27
1.0
 37
0.0
 76
     0
330
1B
  0
LAYOUT
  5
26
102
{ACAD_REACTORS
330
1A
102
}
330
1A
100
AcDbPlotSettings
  1

  2
none_device
  4

  6

 40
0.0
 41
0.0
 42
0.0
 43
0.0
 44
0.0
 45
0.0
 46
0.0
 47
0.0
 48
0.0
 49
0.0
140
0.0
141
0.0
142
1.0
143
1.0
 70
   688
 72
     0
 73
     0
 74
     5
  7

 75
    16
 76
     0
 77
     2
 78
   300
147
1.0
148
0.0
149
0.0
100
AcDbLayout
  1
Layout2
 70
     1
 71
     2
 10
0.0
 20
0.0
 11
0.0
 21
0.0
 12
0.0
 22
0.0
 32
0.0
 14
0.0
 24
0.0
 34
0.0
 15
0.0
 25
0.0
 35
0.0
146
0.0
 13
0.0
 23
0.0
 33
0.0
 16
1.0
 26
0.0
 36
0.0
 17
0.0
 27
1.0
 37
0.0
 76
     0
330
23
  0
LAYOUT
  5
22
102
{ACAD_REACTORS
330
1A
102
}
330
1A
100
AcDbPlotSettings
  1

  2
none_device
  4

  6

 40
0.0
 41
0.0
 42
0.0
 43
0.0
 44
0.0
 45
0.0
 46
0.0
 47
0.0
 48
0.0
 49
0.0
140
0.0
141
0.0
142
1.0
143
1.0
 70
  1712
 72
     0
 73
     0
 74
     0
  7

 75
     0
 76
     0
 77
     2
 78
   300
147
1.0
148
0.0
149
0.0
100
AcDbLayout
  1
Model
 70
     1
 71
     0
 10
0.0
 20
0.0
 11
12.0
 21
9.0
 12
0.0
 22
0.0
 32
0.0
 14
1.000000000000000E+20
 24
1.000000000000000E+20
 34
1.000000000000000E+20
 15
-1.000000000000000E+20
 25
-1.000000000000000E+20
 35
-1.000000000000000E+20
146
0.0
 13
0.0
 23
0.0
 33
0.0
 16
1.0
 26
0.0
 36
0.0
 17
0.0
 27
1.0
 37
0.0
 76
     0
330
1F
331
29
  0
MATERIAL
  5
3D
102
{ACAD_REACTORS
330
3B
102
}
330
3B
100
AcDbMaterial
  1
ByBlock
 72
     1
 94
      127
  0
MATERIAL
  5
3C
102
{ACAD_REACTORS
330
3B
102
}
330
3B
100
AcDbMaterial
  1
ByLayer
 72
     1
 94
      127
  0
MATERIAL
  5
3E
102
{ACAD_REACTORS
330
3B
102
}
330
3B
100
AcDbMaterial
  1
Global
 72
     1
 94
      127
  0
MLINESTYLE
  5
18
102
{ACAD_REACTORS
330
17
102
}
330
17
100
AcDbMlineStyle
  2
Standard
 70
     0
  3

 62
   256
 51
90.0
 52
90.0
 71
     2
 49
0.5
 62
   256
  6
BYLAYER
 49
-0.5
 62
   256
  6
BYLAYER
  0
ACDBPLACEHOLDER
  5
F
102
{ACAD_REACTORS
330
E
102
}
330
E
  0
VISUALSTYLE
  5
2F
102
{ACAD_REACTORS
330
2A
102
}
330
2A
100
AcDbVisualStyle
  2
2dWireframe
 70
     4
177
     2
291
     0
 71
     0
176
     1
 72
     2
176
     1
 73
     0
176
     1
 90
        0
176
     1
 40
-0.6
176
     1
 41
-30.0
176
     1
 62
     5
 63
     7
421
 16777215
176
     1
 74
     1
176
     1
 91
        4
176
     1
 64
     7
176
     1
 65
   257
176
     1
 75
     1
176
     1
175
     1
176
     1
 42
1.0
176
     1
 92
        0
176
     1
 66
   257
176
     1
 43
1.0
176
     1
 76
     1
176
     1
 77
     6
176
     1
 78
     2
176
     1
 67
     7
176
     1
 79
     5
176
     1
170
     0
176
     1
171
     0
176
     1
290
     0
176
     1
 93
        1
176
     1
 44
0.0
176
     1
173
     0
176
     1
  0
VISUALSTYLE
  5
31
102
{ACAD_REACTORS
330
2A
102
}
330
2A
100
AcDbVisualStyle
  2
3D Hidden
 70
     6
177
     2
291
     0
 71
     1
176
     1
 72
     2
176
     1
 73
     2
176
     1
 90
        0
176
     1
 40
-0.6
176
     1
 41
-30.0
176
     1
 62
     5
 63
     7
421
 16777215
176
     1
 74
     2
176
     1
 91
        2
176
     1
 64
     7
176
     1
 65
   257
176
     1
 75
     2
176
     1
175
     1
176
     1
 42
40.0
176
     1
 92
        0
176
     1
 66
   257
176
     1
 43
1.0
176
     1
 76
     1
176
     1
 77
     6
176
     1
 78
     2
176
     1
 67
     7
176
     1
 79
     3
176
     1
170
     0
176
     1
171
     0
176
     1
290
     0
176
     1
 93
        1
176
     1
 44
0.0
176
     1
173
     0
176
     1
  0
VISUALSTYLE
  5
30
102
{ACAD_REACTORS
330
2A
102
}
330
2A
100
AcDbVisualStyle
  2
3dWireframe
 70
     5
177
     2
291
     0
 71
     0
176
     1
 72
     2
176
     1
 73
     0
176
     1
 90
        0
176
     1
 40
-0.6
176
     1
 41
-30.0
176
     1
 62
     5
 63
     7
421
 16777215
176
     1
 74
     1
176
     1
 91
        4
176
     1
 64
     7
176
     1
 65
   257
176
     1
 75
     1
176
     1
175
     1
176
     1
 42
1.0
176
     1
 92
        0
176
     1
 66
   257
176
     1
 43
1.0
176
     1
 76
     1
176
     1
 77
     6
176
     1
 78
     2
176
     1
 67
     7
176
     1
 79
     5
176
     1
170
     0
176
     1
171
     0
176
     1
290
     0
176
     1
 93
        1
176
     1
 44
0.0
176
     1
173
     0
176
     1
  0
VISUALSTYLE
  5
32
102
{ACAD_REACTORS
330
2A
102
}
330
2A
100
AcDbVisualStyle
  2
Basic
 70
     7
177
     2
291
     1
 71
     1
176
     1
 72
     0
176
     1
 73
     1
176
     1
 90
        0
176
     1
 40
-0.6
176
     1
 41
-30.0
176
     1
 62
     5
 63
     7
421
 16777215
176
     1
 74
     0
176
     1
 91
        4
176
     1
 64
     7
176
     1
 65
   257
176
     1
 75
     1
176
     1
175
     1
176
     1
 42
1.0
176
     1
 92
        8
176
     1
 66
     7
176
     1
 43
1.0
176
     1
 76
     1
176
     1
 77
     6
176
     1
 78
     2
176
     1
 67
     7
176
     1
 79
     5
176
     1
170
     0
176
     1
171
     0
176
     1
290
     0
176
     1
 93
        1
176
     1
 44
0.0
176
     1
173
     0
176
     1
  0
VISUALSTYLE
  5
36
102
{ACAD_REACTORS
330
2A
102
}
330
2A
100
AcDbVisualStyle
  2
Brighten
 70
    12
177
     2
291
     1
 71
     2
176
     1
 72
     2
176
     1
 73
     0
176
     1
 90
        0
176
     1
 40
-0.6
176
     1
 41
-30.0
176
     1
 62
     5
 63
     7
421
 16777215
176
     1
 74
     1
176
     1
 91
        4
176
     1
 64
     7
176
     1
 65
   257
176
     1
 75
     1
176
     1
175
     1
176
     1
 42
1.0
176
     1
 92
        8
176
     1
 66
     7
176
     1
 43
1.0
176
     1
 76
     1
176
     1
 77
     6
176
     1
 78
     2
176
     1
 67
     7
176
     1
 79
     5
176
     1
170
     0
176
     1
171
     0
176
     1
290
     0
176
     1
 93
        1
176
     1
 44
50.0
176
     1
173
     0
176
     1
  0
VISUALSTYLE
  5
3A
102
{ACAD_REACTORS
330
2A
102
}
330
2A
100
AcDbVisualStyle
  2
ColorChange
 70
    16
177
     2
291
     1
 71
     2
176
     1
 72
     2
176
     1
 73
     3
176
     1
 90
        0
176
     1
 40
-0.6
176
     1
 41
-30.0
176
     1
 62
     5
 63
     8
421
  8421504
176
     1
 74
     1
176
     1
 91
        4
176
     1
 64
     7
176
     1
 65
   257
176
     1
 75
     1
176
     1
175
     1
176
     1
 42
1.0
176
     1
 92
        8
176
     1
 66
     8
424
  8421504
176
     1
 43
1.0
176
     1
 76
     1
176
     1
 77
     6
176
     1
 78
     2
176
     1
 67
     7
176
     1
 79
     5
176
     1
170
     0
176
     1
171
     0
176
     1
290
     0
176
     1
 93
        1
176
     1
 44
0.0
176
     1
173
     0
176
     1
  0
VISUALSTYLE
  5
34
102
{ACAD_REACTORS
330
2A
102
}
330
2A
100
AcDbVisualStyle
  2
Conceptual
 70
     9
177
     2
291
     0
 71
     3
176
     1
 72
     2
176
     1
 73
     0
176
     1
 90
        0
176
     1
 40
-0.6
176
     1
 41
-30.0
176
     1
 62
     5
 63
     7
421
 16777215
176
     1
 74
     2
176
     1
 91
        2
176
     1
 64
     7
176
     1
 65
   257
176
     1
 75
     1
176
     1
175
     1
176
     1
 42
40.0
176
     1
 92
        8
176
     1
 66
     7
176
     1
 43
1.0
176
     1
 76
     1
176
     1
 77
     6
176
     1
 78
     2
176
     1
 67
     7
176
     1
 79
     3
176
     1
170
     0
176
     1
171
     0
176
     1
290
     0
176
     1
 93
        1
176
     1
 44
0.0
176
     1
173
     0
176
     1
  0
VISUALSTYLE
  5
35
102
{ACAD_REACTORS
330
2A
102
}
330
2A
100
AcDbVisualStyle
  2
Dim
 70
    11
177
     2
291
     1
 71
     2
176
     1
 72
     2
176
     1
 73
     0
176
     1
 90
        0
176
     1
 40
-0.6
176
     1
 41
-30.0
176
     1
 62
     5
 63
     7
421
 16777215
176
     1
 74
     1
176
     1
 91
        4
176
     1
 64
     7
176
     1
 65
   257
176
     1
 75
     1
176
     1
175
     1
176
     1
 42
1.0
176
     1
 92
        8
176
     1
 66
     7
176
     1
 43
1.0
176
     1
 76
     1
176
     1
 77
     6
176
     1
 78
     2
176
     1
 67
     7
176
     1
 79
     5
176
     1
170
     0
176
     1
171
     0
176
     1
290
     0
176
     1
 93
        1
176
     1
 44
-50.0
176
     1
173
     0
176
     1
  0
VISUALSTYLE
  5
39
102
{ACAD_REACTORS
330
2A
102
}
330
2A
100
AcDbVisualStyle
  2
Facepattern
 70
    15
177
     2
291
     1
 71
     2
176
     1
 72
     2
176
     1
 73
     0
176
     1
 90
        0
176
     1
 40
-0.6
176
     1
 41
-30.0
176
     1
 62
     5
 63
     7
421
 16777215
176
     1
 74
     1
176
     1
 91
        4
176
     1
 64
     7
176
     1
 65
   257
176
     1
 75
     1
176
     1
175
     1
176
     1
 42
1.0
176
     1
 92
        8
176
     1
 66
     7
176
     1
 43
1.0
176
     1
 76
     1
176
     1
 77
     6
176
     1
 78
     2
176
     1
 67
     7
176
     1
 79
     5
176
     1
170
     0
176
     1
171
     0
176
     1
290
     0
176
     1
 93
        1
176
     1
 44
0.0
176
     1
173
     0
176
     1
  0
VISUALSTYLE
  5
2B
102
{ACAD_REACTORS
330
2A
102
}
330
2A
100
AcDbVisualStyle
  2
Flat
 70
     0
177
     2
291
     1
 71
     2
176
     1
 72
     1
176
     1
 73
     1
176
     1
 90
        2
176
     1
 40
-0.6
176
     1
 41
30.0
176
     1
 62
     5
 63
     7
421
 16777215
176
     1
 74
     0
176
     1
 91
        4
176
     1
 64
     7
176
     1
 65
   257
176
     1
 75
     1
176
     1
175
     1
176
     1
 42
1.0
176
     1
 92
        8
176
     1
 66
     7
176
     1
 43
1.0
176
     1
 76
     1
176
     1
 77
     6
176
     1
 78
     2
176
     1
 67
     7
176
     1
 79
     5
176
     1
170
     0
176
     1
171
     0
176
     1
290
     0
176
     1
 93
       13
176
     1
 44
0.0
176
     1
173
     0
176
     1
  0
VISUALSTYLE
  5
2C
102
{ACAD_REACTORS
330
2A
102
}
330
2A
100
AcDbVisualStyle
  2
FlatWithEdges
 70
     1
177
     2
291
     1
 71
     2
176
     1
 72
     1
176
     1
 73
     1
176
     1
 90
        2
176
     1
 40
-0.6
176
     1
 41
30.0
176
     1
 62
     5
 63
     7
421
 16777215
176
     1
 74
     1
176
     1
 91
        4
176
     1
 64
     7
176
     1
 65
   257
176
     1
 75
     1
176
     1
175
     1
176
     1
 42
1.0
176
     1
 92
        0
176
     1
 66
   257
176
     1
 43
1.0
176
     1
 76
     1
176
     1
 77
     6
176
     1
 78
     2
176
     1
 67
     7
176
     1
 79
     5
176
     1
170
     0
176
     1
171
     0
176
     1
290
     0
176
     1
 93
       13
176
     1
 44
0.0
176
     1
173
     0
176
     1
  0
VISUALSTYLE
  5
2D
102
{ACAD_REACTORS
330
2A
102
}
330
2A
100
AcDbVisualStyle
  2
Gouraud
 70
     2
177
     2
291
     1
 71
     2
176
     1
 72
     2
176
     1
 73
     1
176
     1
 90
        2
176
     1
 40
-0.6
176
     1
 41
30.0
176
     1
 62
     5
 63
     7
421
 16777215
176
     1
 74
     0
176
     1
 91
        4
176
     1
 64
     7
176
     1
 65
   257
176
     1
 75
     1
176
     1
175
     1
176
     1
 42
1.0
176
     1
 92
        0
176
     1
 66
     7
176
     1
 43
1.0
176
     1
 76
     1
176
     1
 77
     6
176
     1
 78
     2
176
     1
 67
     7
176
     1
 79
     5
176
     1
170
     0
176
     1
171
     0
176
     1
290
     0
176
     1
 93
       13
176
     1
 44
0.0
176
     1
173
     0
176
     1
  0
VISUALSTYLE
  5
2E
102
{ACAD_REACTORS
330
2A
102
}
330
2A
100
AcDbVisualStyle
  2
GouraudWithEdges
 70
     3
177
     2
291
     1
 71
     2
176
     1
 72
     2
176
     1
 73
     1
176
     1
 90
        2
176
     1
 40
-0.6
176
     1
 41
30.0
176
     1
 62
     5
 63
     7
421
 16777215
176
     1
 74
     1
176
     1
 91
        4
176
     1
 64
     7
176
     1
 65
   257
176
     1
 75
     1
176
     1
175
     1
176
     1
 42
1.0
176
     1
 92
        0
176
     1
 66
   257
176
     1
 43
1.0
176
     1
 76
     1
176
     1
 77
     6
176
     1
 78
     2
176
     1
 67
     7
176
     1
 79
     5
176
     1
170
     0
176
     1
171
     0
176
     1
290
     0
176
     1
 93
       13
176
     1
 44
0.0
176
     1
173
     0
176
     1
  0
VISUALSTYLE
  5
38
102
{ACAD_REACTORS
330
2A
102
}
330
2A
100
AcDbVisualStyle
  2
Linepattern
 70
    14
177
     2
291
     1
 71
     2
176
     1
 72
     2
176
     1
 73
     0
176
     1
 90
        0
176
     1
 40
-0.6
176
     1
 41
-30.0
176
     1
 62
     5
 63
     7
421
 16777215
176
     1
 74
     1
176
     1
 91
        4
176
     1
 64
     7
176
     1
 65
   257
176
     1
 75
     7
176
     1
175
     7
176
     1
 42
1.0
176
     1
 92
        8
176
     1
 66
     7
176
     1
 43
1.0
176
     1
 76
     1
176
     1
 77
     6
176
     1
 78
     2
176
     1
 67
     7
176
     1
 79
     5
176
     1
170
     0
176
     1
171
     0
176
     1
290
     0
176
     1
 93
        1
176
     1
 44
0.0
176
     1
173
     0
176
     1
  0
VISUALSTYLE
  5
33
102
{ACAD_REACTORS
330
2A
102
}
330
2A
100
AcDbVisualStyle
  2
Realistic
 70
     8
177
     2
291
     0
 71
     2
176
     1
 72
     2
176
     1
 73
     0
176
     1
 90
        0
176
     1
 40
-0.6
176
     1
 41
-30.0
176
     1
 62
     5
 63
     7
421
 16777215
176
     1
 74
     1
176
     1
 91
        0
176
     1
 64
     7
176
     1
 65
   257
176
     1
 75
     1
176
     1
175
     1
176
     1
 42
1.0
176
     1
 92
        8
176
     1
 66
     8
424
  7895160
176
     1
 43
1.0
176
     1
 76
     1
176
     1
 77
     6
176
     1
 78
     2
176
     1
 67
     7
176
     1
 79
     5
176
     1
170
     0
176
     1
171
     0
176
     1
290
     0
176
     1
 93
       13
176
     1
 44
0.0
176
     1
173
     0
176
     1
  0
VISUALSTYLE
  5
37
102
{ACAD_REACTORS
330
2A
102
}
330
2A
100
AcDbVisualStyle
  2
Thicken
 70
    13
177
     2
291
     1
 71
     2
176
     1
 72
     2
176
     1
 73
     0
176
     1
 90
        0
176
     1
 40
-0.6
176
     1
 41
-30.0
176
     1
 62
     5
 63
     7
421
 16777215
176
     1
 74
     1
176
     1
 91
        4
176
     1
 64
     7
176
     1
 65
   257
176
     1
 75
     1
176
     1
175
     1
176
     1
 42
1.0
176
     1
 92
       12
176
     1
 66
     7
176
     1
 43
1.0
176
     1
 76
     1
176
     1
 77
     6
176
     1
 78
     2
176
     1
 67
     7
176
     1
 79
     5
176
     1
170
     0
176
     1
171
     0
176
     1
290
     0
176
     1
 93
        1
176
     1
 44
0.0
176
     1
173
     0
176
     1
  0
ENDSEC
  0
EOF
