  0
SECTION
  2
HEADER
  9
$ACADVER
  1
AC1024
  9
$ACADMAINTVER
 70
     6
  9
$DWGCODEPAGE
  3
ANSI_1251
  9
$INSBASE
 10
0.0
 20
0.0
 30
0.0
  9
$EXTMIN
 10
1.000000000000000E+20
 20
1.000000000000000E+20
 30
1.000000000000000E+20
  9
$EXTMAX
 10
-1.000000000000000E+20
 20
-1.000000000000000E+20
 30
-1.000000000000000E+20
  9
$LIMMIN
 10
0.0
 20
0.0
  9
$LIMMAX
 10
12.0
 20
9.0
  9
$ORTHOMODE
 70
     0
  9
$REGENMODE
 70
     1
  9
$FILLMODE
 70
     1
  9
$QTEXTMODE
 70
     0
  9
$MIRRTEXT
 70
     1
  9
$LTSCALE
 40
1.0
  9
$ATTMODE
 70
     1
  9
$TEXTSIZE
 40
0.2
  9
$TRACEWID
 40
0.05
  9
$TEXTSTYLE
  7
Standard
  9
$CLAYER
  8
0
  9
$CELTYPE
  6
ByLayer
  9
$CECOLOR
 62
   256
  9
$CELTSCALE
 40
1.0
  9
$DISPSILH
 70
     0
  9
$DIMSCALE
 40
1.0
  9
$DIMASZ
 40
0.18
  9
$DIMEXO
 40
0.0625
  9
$DIMDLI
 40
0.38
  9
$DIMRND
 40
0.0
  9
$DIMDLE
 40
0.0
  9
$DIMEXE
 40
0.18
  9
$DIMTP
 40
0.0
  9
$DIMTM
 40
0.0
  9
$DIMTXT
 40
0.18
  9
$DIMCEN
 40
0.09
  9
$DIMTSZ
 40
0.0
  9
$DIMTOL
 70
     0
  9
$DIMLIM
 70
     0
  9
$DIMTIH
 70
     1
  9
$DIMTOH
 70
     1
  9
$DIMSE1
 70
     0
  9
$DIMSE2
 70
     0
  9
$DIMTAD
 70
     0
  9
$DIMZIN
 70
     0
  9
$DIMBLK
  1

  9
$DIMASO
 70
     1
  9
$DIMSHO
 70
     1
  9
$DIMPOST
  1

  9
$DIMAPOST
  1

  9
$DIMALT
 70
     0
  9
$DIMALTD
 70
     2
  9
$DIMALTF
 40
25.4
  9
$DIMLFAC
 40
1.0
  9
$DIMTOFL
 70
     0
  9
$DIMTVP
 40
0.0
  9
$DIMTIX
 70
     0
  9
$DIMSOXD
 70
     0
  9
$DIMSAH
 70
     0
  9
$DIMBLK1
  1

  9
$DIMBLK2
  1

  9
$DIMSTYLE
  2
Standard
  9
$DIMCLRD
 70
     0
  9
$DIMCLRE
 70
     0
  9
$DIMCLRT
 70
     0
  9
$DIMTFAC
 40
1.0
  9
$DIMGAP
 40
0.09
  9
$DIMJUST
 70
     0
  9
$DIMSD1
 70
     0
  9
$DIMSD2
 70
     0
  9
$DIMTOLJ
 70
     1
  9
$DIMTZIN
 70
     0
  9
$DIMALTZ
 70
     0
  9
$DIMALTTZ
 70
     0
  9
$DIMUPT
 70
     0
  9
$DIMDEC
 70
     4
  9
$DIMTDEC
 70
     4
  9
$DIMALTU
 70
     2
  9
$DIMALTTD
 70
     2
  9
$DIMTXSTY
  7
Standard
  9
$DIMAUNIT
 70
     0
  9
$DIMADEC
 70
     0
  9
$DIMALTRND
 40
0.0
  9
$DIMAZIN
 70
     0
  9
$DIMDSEP
 70
    46
  9
$DIMATFIT
 70
     3
  9
$DIMFRAC
 70
     0
  9
$DIMLDRBLK
  1

  9
$DIMLUNIT
 70
     2
  9
$DIMLWD
 70
    -2
  9
$DIMLWE
 70
    -2
  9
$DIMTMOVE
 70
     0
  9
$DIMFXL
 40
1.0
  9
$DIMFXLON
 70
     0
  9
$DIMJOGANG
 40
0.7853981633974483
  9
$DIMTFILL
 70
     0
  9
$DIMTFILLCLR
 70
     0
  9
$DIMARCSYM
 70
     0
  9
$DIMLTYPE
  6

  9
$DIMLTEX1
  6

  9
$DIMLTEX2
  6

  9
$DIMTXTDIRECTION
 70
     0
  9
$LUNITS
 70
     2
  9
$LUPREC
 70
     4
  9
$SKETCHINC
 40
0.1
  9
$FILLETRAD
 40
0.5
  9
$AUNITS
 70
     0
  9
$AUPREC
 70
     0
  9
$MENU
  1
.
  9
$ELEVATION
 40
0.0
  9
$PELEVATION
 40
0.0
  9
$THICKNESS
 40
0.0
  9
$LIMCHECK
 70
     0
  9
$CHAMFERA
 40
0.5
  9
$CHAMFERB
 40
0.5
  9
$CHAMFERC
 40
1.0
  9
$CHAMFERD
 40
0.0
  9
$SKPOLY
 70
     0
  9
$TDCREATE
 40
2459337.681128009
  9
$TDUCREATE
 40
2459337.556128009
  9
$TDUPDATE
 40
2459337.681128183
  9
$TDUUPDATE
 40
2459337.556128183
  9
$TDINDWG
 40
0.0000000116
  9
$TDUSRTIMER
 40
0.0000000116
  9
$USRTIMER
 70
     1
  9
$ANGBASE
 50
0.0
  9
$ANGDIR
 70
     0
  9
$PDMODE
 70
     0
  9
$PDSIZE
 40
0.0
  9
$PLINEWID
 40
0.0
  9
$SPLFRAME
 70
     0
  9
$SPLINETYPE
 70
     6
  9
$SPLINESEGS
 70
     8
  9
$HANDSEED
  5
6B
  9
$SURFTAB1
 70
     6
  9
$SURFTAB2
 70
     6
  9
$SURFTYPE
 70
     6
  9
$SURFU
 70
     6
  9
$SURFV
 70
     6
  9
$UCSBASE
  2

  9
$UCSNAME
  2

  9
$UCSORG
 10
0.0
 20
0.0
 30
0.0
  9
$UCSXDIR
 10
1.0
 20
0.0
 30
0.0
  9
$UCSYDIR
 10
0.0
 20
1.0
 30
0.0
  9
$UCSORTHOREF
  2

  9
$UCSORTHOVIEW
 70
     0
  9
$UCSORGTOP
 10
0.0
 20
0.0
 30
0.0
  9
$UCSORGBOTTOM
 10
0.0
 20
0.0
 30
0.0
  9
$UCSORGLEFT
 10
0.0
 20
0.0
 30
0.0
  9
$UCSORGRIGHT
 10
0.0
 20
0.0
 30
0.0
  9
$UCSORGFRONT
 10
0.0
 20
0.0
 30
0.0
  9
$UCSORGBACK
 10
0.0
 20
0.0
 30
0.0
  9
$PUCSBASE
  2

  9
$PUCSNAME
  2

  9
$PUCSORG
 10
0.0
 20
0.0
 30
0.0
  9
$PUCSXDIR
 10
1.0
 20
0.0
 30
0.0
  9
$PUCSYDIR
 10
0.0
 20
1.0
 30
0.0
  9
$PUCSORTHOREF
  2

  9
$PUCSORTHOVIEW
 70
     0
  9
$PUCSORGTOP
 10
0.0
 20
0.0
 30
0.0
  9
$PUCSORGBOTTOM
 10
0.0
 20
0.0
 30
0.0
  9
$PUCSORGLEFT
 10
0.0
 20
0.0
 30
0.0
  9
$PUCSORGRIGHT
 10
0.0
 20
0.0
 30
0.0
  9
$PUCSORGFRONT
 10
0.0
 20
0.0
 30
0.0
  9
$PUCSORGBACK
 10
0.0
 20
0.0
 30
0.0
  9
$USERI1
 70
     0
  9
$USERI2
 70
     0
  9
$USERI3
 70
     0
  9
$USERI4
 70
     0
  9
$USERI5
 70
     0
  9
$USERR1
 40
0.0
  9
$USERR2
 40
0.0
  9
$USERR3
 40
0.0
  9
$USERR4
 40
0.0
  9
$USERR5
 40
0.0
  9
$WORLDVIEW
 70
     1
  9
$SHADEDGE
 70
     3
  9
$SHADEDIF
 70
    70
  9
$TILEMODE
 70
     1
  9
$MAXACTVP
 70
    64
  9
$PINSBASE
 10
0.0
 20
0.0
 30
0.0
  9
$PLIMCHECK
 70
     0
  9
$PEXTMIN
 10
1.000000000000000E+20
 20
1.000000000000000E+20
 30
1.000000000000000E+20
  9
$PEXTMAX
 10
-1.000000000000000E+20
 20
-1.000000000000000E+20
 30
-1.000000000000000E+20
  9
$PLIMMIN
 10
0.0
 20
0.0
  9
$PLIMMAX
 10
12.0
 20
9.0
  9
$UNITMODE
 70
     0
  9
$VISRETAIN
 70
     1
  9
$PLINEGEN
 70
     0
  9
$PSLTSCALE
 70
     1
  9
$TREEDEPTH
 70
  3020
  9
$CMLSTYLE
  2
Standard
  9
$CMLJUST
 70
     0
  9
$CMLSCALE
 40
1.0
  9
$PROXYGRAPHICS
 70
     1
  9
$MEASUREMENT
 70
     0
  9
$CELWEIGHT
370
    -1
  9
$ENDCAPS
280
     0
  9
$JOINSTYLE
280
     0
  9
$LWDISPLAY
290
     1
  9
$INSUNITS
 70
     1
  9
$HYPERLINKBASE
  1

  9
$STYLESHEET
  1

  9
$XEDIT
290
     1
  9
$CEPSNTYPE
380
     0
  9
$PSTYLEMODE
290
     1
  9
$FINGERPRINTGUID
  2
{18809805-EC1C-45CA-855D-D82F346EA1E5}
  9
$VERSIONGUID
  2
{FAEB1C32-E019-11D5-929B-00C0DF256EC4}
  9
$EXTNAMES
290
     1
  9
$PSVPSCALE
 40
0.0
  9
$OLESTARTUP
290
     0
  9
$SORTENTS
280
   127
  9
$INDEXCTL
280
     0
  9
$HIDETEXT
280
     1
  9
$XCLIPFRAME
280
     2
  9
$HALOGAP
280
     0
  9
$OBSCOLOR
 70
   257
  9
$OBSLTYPE
280
     0
  9
$INTERSECTIONDISPLAY
280
     0
  9
$INTERSECTIONCOLOR
 70
   257
  9
$DIMASSOC
280
     2
  9
$PROJECTNAME
  1

  9
$CAMERADISPLAY
290
     0
  9
$LENSLENGTH
 40
50.0
  9
$CAMERAHEIGHT
 40
0.0
  9
$STEPSPERSEC
 40
2.0
  9
$STEPSIZE
 40
6.0
  9
$3DDWFPREC
 40
2.0
  9
$PSOLWIDTH
 40
0.25
  9
$PSOLHEIGHT
 40
4.0
  9
$LOFTANG1
 40
1.570796326794897
  9
$LOFTANG2
 40
1.570796326794897
  9
$LOFTMAG1
 40
0.0
  9
$LOFTMAG2
 40
0.0
  9
$LOFTPARAM
 70
     7
  9
$LOFTNORMALS
280
     1
  9
$LATITUDE
 40
37.795
  9
$LONGITUDE
 40
-122.394
  9
$NORTHDIRECTION
 40
0.0
  9
$TIMEZONE
 70
 -8000
  9
$LIGHTGLYPHDISPLAY
280
     1
  9
$TILEMODELIGHTSYNCH
280
     1
  9
$CMATERIAL
347
3C
  9
$SOLIDHIST
280
     1
  9
$SHOWHIST
280
     1
  9
$DWFFRAME
280
     2
  9
$DGNFRAME
280
     2
  9
$REALWORLDSCALE
290
     1
  9
$INTERFERECOLOR
 62
   256
  9
$CSHADOW
280
     0
  9
$SHADOWPLANELOCATION
 40
0.0
  0
ENDSEC
  0
SECTION
  2
CLASSES
  0
CLASS
  1
ACDBDICTIONARYWDFLT
  2
AcDbDictionaryWithDefault
  3
ObjectDBX Classes
 90
        0
 91
        4
280
     0
281
     0
  0
CLASS
  1
VISUALSTYLE
  2
AcDbVisualStyle
  3
ObjectDBX Classes
 90
     4095
 91
        4
280
     0
281
     0
  0
CLASS
  1
MATERIAL
  2
AcDbMaterial
  3
ObjectDBX Classes
 90
     1153
 91
        4
280
     0
281
     0
  0
CLASS
  1
SUN
  2
AcDbSun
  3
SCENEOE
 90
     1024
 91
        4
280
     0
281
     0
  0
ENDSEC
  0
SECTION
  2
TABLES
  0
TABLE
  2
VPORT
  5
8
330
0
100
AcDbSymbolTable
 70
     1
  0
VPORT
  5
29
330
8
100
AcDbSymbolTableRecord
100
AcDbViewportTableRecord
  2
*Active
 70
     0
 10
0.0
 20
0.0
 11
1.0
 21
1.0
 12
0.0
 22
0.0
 13
0.0
 23
0.0
 14
0.5
 24
0.5
 15
0.5
 25
0.5
 16
0.0
 26
0.0
 36
1.0
 17
30.80506032633922
 27
-6.128193055555559
 37
0.0
 40
12.0
 41
0.5959345914269073
 42
50.0
 43
0.0
 44
0.0
 50
0.0
 51
0.0
 71
     0
 72
   100
 73
     1
 74
     3
 75
     0
 76
     0
 77
     0
 78
     0
281
     0
 65
     1
110
0.0
120
0.0
130
0.0
111
1.0
121
0.0
131
0.0
112
0.0
122
1.0
132
0.0
 79
     0
146
0.0
 60
     3
 61
     5
292
     1
282
     1
141
0.0
142
0.0
 63
   250
361
3F
  0
ENDTAB
  0
TABLE
  2
LTYPE
  5
5
330
0
100
AcDbSymbolTable
 70
     1
  0
LTYPE
  5
14
330
5
100
AcDbSymbolTableRecord
100
AcDbLinetypeTableRecord
  2
ByBlock
 70
     0
  3

 72
    65
 73
     0
 40
0.0
  0
LTYPE
  5
15
330
5
100
AcDbSymbolTableRecord
100
AcDbLinetypeTableRecord
  2
ByLayer
 70
     0
  3

 72
    65
 73
     0
 40
0.0
  0
LTYPE
  5
16
330
5
100
AcDbSymbolTableRecord
100
AcDbLinetypeTableRecord
  2
Continuous
 70
     0
  3
Solid line
 72
    65
 73
     0
 40
0.0
  0
ENDTAB
  0
TABLE
  2
LAYER
  5
2
330
0
100
AcDbSymbolTable
 70
     2
  0
LAYER
  5
10
330
2
100
AcDbSymbolTableRecord
100
AcDbLayerTableRecord
  2
0
 70
     0
 62
     7
  6
Continuous
370
    -3
390
F
347
3E
  0
LAYER
  5
40
330
2
100
AcDbSymbolTableRecord
100
AcDbLayerTableRecord
  2
Layer 1
 70
     0
 62
     7
  6
Continuous
370
    -3
390
F
347
3E
  0
ENDTAB
  0
TABLE
  2
STYLE
  5
3
330
0
100
AcDbSymbolTable
 70
     1
  0
STYLE
  5
11
330
3
100
AcDbSymbolTableRecord
100
AcDbTextStyleTableRecord
  2
Standard
 70
     0
 40
0.0
 41
1.0
 50
0.0
 71
     0
 42
0.2
  3
txt
  4

  0
ENDTAB
  0
TABLE
  2
VIEW
  5
6
330
0
100
AcDbSymbolTable
 70
     0
  0
ENDTAB
  0
TABLE
  2
UCS
  5
7
330
0
100
AcDbSymbolTable
 70
     0
  0
ENDTAB
  0
TABLE
  2
APPID
  5
9
330
0
100
AcDbSymbolTable
 70
     1
  0
APPID
  5
12
330
9
100
AcDbSymbolTableRecord
100
AcDbRegAppTableRecord
  2
ACAD
 70
     0
  0
ENDTAB
  0
TABLE
  2
DIMSTYLE
  5
A
330
0
100
AcDbSymbolTable
 70
     1
100
AcDbDimStyleTable
  0
DIMSTYLE
105
27
330
A
100
AcDbSymbolTableRecord
100
AcDbDimStyleTableRecord
  2
Standard
 70
     0
178
     0
340
11
  0
ENDTAB
  0
TABLE
  2
BLOCK_RECORD
  5
1
330
0
100
AcDbSymbolTable
 70
     1
  0
BLOCK_RECORD
  5
1F
330
1
100
AcDbSymbolTableRecord
100
AcDbBlockTableRecord
  2
*Model_Space
340
22
 70
     0
280
     1
281
     0
  0
BLOCK_RECORD
  5
1B
330
1
100
AcDbSymbolTableRecord
100
AcDbBlockTableRecord
  2
*Paper_Space
340
1E
 70
     0
280
     1
281
     0
  0
BLOCK_RECORD
  5
23
330
1
100
AcDbSymbolTableRecord
100
AcDbBlockTableRecord
  2
*Paper_Space0
340
26
 70
     0
280
     1
281
     0
  0
ENDTAB
  0
ENDSEC
  0
SECTION
  2
BLOCKS
  0
BLOCK
  5
20
330
1F
100
AcDbEntity
  8
0
100
AcDbBlockBegin
  2
*Model_Space
 70
     0
 10
0.0
 20
0.0
 30
0.0
  3
*Model_Space
  1

  0
ENDBLK
  5
21
330
1F
100
AcDbEntity
  8
0
100
AcDbBlockEnd
  0
BLOCK
  5
1C
330
1B
100
AcDbEntity
 67
     1
  8
0
100
AcDbBlockBegin
  2
*Paper_Space
 70
     0
 10
0.0
 20
0.0
 30
0.0
  3
*Paper_Space
  1

  0
ENDBLK
  5
1D
330
1B
100
AcDbEntity
 67
     1
  8
0
100
AcDbBlockEnd
  0
BLOCK
  5
24
330
23
100
AcDbEntity
  8
0
100
AcDbBlockBegin
  2
*Paper_Space0
 70
     0
 10
0.0
 20
0.0
 30
0.0
  3
*Paper_Space0
  1

  0
ENDBLK
  5
25
330
23
100
AcDbEntity
  8
0
100
AcDbBlockEnd
  0
ENDSEC
  0
SECTION
  2
ENTITIES
  0
SPLINE
  5
41
330
1F
100
AcDbEntity
  8
Layer 1
370
     0
100
AcDbSpline
210
0.0
220
0.0
230
1.0
 70
    11
 71
     3
 72
    23
 73
    19
 74
     0
 42
0.0000000001
 43
0.0000000001
 12
1.0
 22
0.0
 32
0.0
 13
1.0
 23
0.0
 33
0.0
 40
0.0
 40
0.0
 40
0.0
 40
0.0
 40
1.0
 40
1.0
 40
1.0
 40
2.0
 40
2.0
 40
2.0
 40
3.0
 40
3.0
 40
3.0
 40
4.0
 40
4.0
 40
4.0
 40
5.0
 40
5.0
 40
5.0
 40
6.0
 40
6.0
 40
6.0
 40
6.0
 10
30.80505277777777
 20
-0.5143791666666604
 30
0.0
 10
29.03231666666667
 20
-0.5143791666666604
 30
0.0
 10
27.59008472222222
 20
-1.95662083333333
 30
0.0
 10
27.59008472222222
 20
-3.72935694444445
 30
0.0
 10
27.59008472222222
 20
-3.72935694444445
 30
0.0
 10
27.59008472222222
 20
-8.527034722222222
 30
0.0
 10
27.59008472222222
 20
-8.527034722222222
 30
0.0
 10
27.59008472222222
 20
-10.29977083333334
 30
0.0
 10
29.03232222222222
 20
-11.74200833333334
 30
0.0
 10
30.80506666666666
 20
-11.74200833333334
 30
0.0
 10
32.57780833333335
 20
-11.74200833333334
 30
0.0
 10
34.02004583333332
 20
-10.29977083333334
 30
0.0
 10
34.02004583333332
 20
-8.527034722222222
 30
0.0
 10
34.02004583333332
 20
-8.527034722222222
 30
0.0
 10
34.02004583333332
 20
-3.72935694444445
 30
0.0
 10
34.02004583333332
 20
-3.72935694444445
 30
0.0
 10
34.02004583333332
 20
-1.95662083333333
 30
0.0
 10
32.57780833333335
 20
-0.5143791666666604
 30
0.0
 10
30.80505277777777
 20
-0.5143791666666604
 30
0.0
  0
SPLINE
  5
42
330
1F
100
AcDbEntity
  8
Layer 1
370
     0
100
AcDbSpline
210
0.0
220
0.0
230
1.0
 70
    11
 71
     3
 72
    47
 73
    43
 74
     0
 42
0.0000000001
 43
0.0000000001
 12
1.0
 22
0.0
 32
0.0
 13
1.0
 23
0.0
 33
0.0
 40
0.0
 40
0.0
 40
0.0
 40
0.0
 40
1.0
 40
1.0
 40
1.0
 40
2.0
 40
2.0
 40
2.0
 40
3.0
 40
3.0
 40
3.0
 40
4.0
 40
4.0
 40
4.0
 40
5.0
 40
5.0
 40
5.0
 40
6.0
 40
6.0
 40
6.0
 40
7.0
 40
7.0
 40
7.0
 40
8.0
 40
8.0
 40
8.0
 40
9.0
 40
9.0
 40
9.0
 40
10.0
 40
10.0
 40
10.0
 40
11.0
 40
11.0
 40
11.0
 40
12.0
 40
12.0
 40
12.0
 40
13.0
 40
13.0
 40
13.0
 40
14.0
 40
14.0
 40
14.0
 40
14.0
 10
30.40186666666667
 20
-7.474908333333334
 30
0.0
 10
30.39105
 20
-7.3414263888889
 30
0.0
 10
30.36240555555556
 20
-7.245065277777788
 30
0.0
 10
30.31583611111111
 20
-7.182301388888895
 30
0.0
 10
30.38155555555555
 20
-7.191101388888884
 30
0.0
 10
30.44808611111111
 20
-7.195787500000001
 30
0.0
 10
30.51524305555555
 20
-7.19496111111112
 30
0.0
 10
30.5228375
 20
-7.195091666666662
 30
0.0
 10
30.53044166666667
 20
-7.19515277777777
 30
0.0
 10
30.5380375
 20
-7.19515277777777
 30
0.0
 10
30.77122777777778
 20
-7.19515277777777
 30
0.0
 10
31.00189722222222
 20
-7.13429861111111
 30
0.0
 10
31.20752638888888
 20
-7.022177777777769
 30
0.0
 10
31.17232777777778
 20
-7.095515277777773
 30
0.0
 10
31.14687638888889
 20
-7.173212499999989
 30
0.0
 10
31.12468055555554
 20
-7.247997222222213
 30
0.0
 10
31.05710277777777
 20
-7.475766666666661
 30
0.0
 10
31.01147083333333
 20
-7.713354166666679
 30
0.0
 10
30.97052638888888
 20
-7.937180555555566
 30
0.0
 10
30.95935138888889
 20
-7.998212500000009
 30
0.0
 10
30.94585555555555
 20
-8.063380555555568
 30
0.0
 10
30.92301805555556
 20
-8.126265277777772
 30
0.0
 10
30.89379583333334
 20
-8.20669305555556
 30
0.0
 10
30.8356625
 20
-8.271366666666658
 30
0.0
 10
30.78345277777779
 20
-8.325634722222224
 30
0.0
 10
30.69897361111111
 20
-8.41347638888889
 30
0.0
 10
30.60302777777777
 20
-8.492929166666675
 30
0.0
 10
30.49016527777778
 20
-8.568595833333323
 30
0.0
 10
30.40120416666667
 20
-8.628236111111113
 30
0.0
 10
30.29752361111112
 20
-8.696045833333326
 30
0.0
 10
30.18746527777777
 20
-8.750397222222217
 30
0.0
 10
30.18868333333333
 20
-8.675875000000007
 30
0.0
 10
30.19072361111111
 20
-8.590783333333345
 30
0.0
 10
30.1974875
 20
-8.50781111111112
 30
0.0
 10
30.20129722222222
 20
-8.461156944444433
 30
0.0
 10
30.20783749999999
 20
-8.421094444444432
 30
0.0
 10
30.21751527777778
 20
-8.385340277777788
 30
0.0
 10
30.23570694444444
 20
-8.318048611111104
 30
0.0
 10
30.25715277777777
 20
-8.248431944444443
 30
0.0
 10
30.27788888888889
 20
-8.181120833333328
 30
0.0
 10
30.34841944444444
 20
-7.952212500000011
 30
0.0
 10
30.42134166666667
 20
-7.715516666666669
 30
0.0
 10
30.40186666666667
 20
-7.474908333333334
 30
0.0
  0
SPLINE
  5
43
330
1F
100
AcDbEntity
  8
Layer 1
370
     0
100
AcDbSpline
210
0.0
220
0.0
230
1.0
 70
    11
 71
     3
 72
   320
 73
   316
 74
     0
 42
0.0000000001
 43
0.0000000001
 12
1.0
 22
0.0
 32
0.0
 13
1.0
 23
0.0
 33
0.0
 40
0.0
 40
0.0
 40
0.0
 40
0.0
 40
1.0
 40
1.0
 40
1.0
 40
2.0
 40
2.0
 40
2.0
 40
3.0
 40
3.0
 40
3.0
 40
4.0
 40
4.0
 40
4.0
 40
5.0
 40
5.0
 40
5.0
 40
6.0
 40
6.0
 40
6.0
 40
7.0
 40
7.0
 40
7.0
 40
8.0
 40
8.0
 40
8.0
 40
9.0
 40
9.0
 40
9.0
 40
10.0
 40
10.0
 40
10.0
 40
11.0
 40
11.0
 40
11.0
 40
12.0
 40
12.0
 40
12.0
 40
13.0
 40
13.0
 40
13.0
 40
14.0
 40
14.0
 40
14.0
 40
15.0
 40
15.0
 40
15.0
 40
16.0
 40
16.0
 40
16.0
 40
17.0
 40
17.0
 40
17.0
 40
18.0
 40
18.0
 40
18.0
 40
19.0
 40
19.0
 40
19.0
 40
20.0
 40
20.0
 40
20.0
 40
21.0
 40
21.0
 40
21.0
 40
22.0
 40
22.0
 40
22.0
 40
23.0
 40
23.0
 40
23.0
 40
24.0
 40
24.0
 40
24.0
 40
25.0
 40
25.0
 40
25.0
 40
26.0
 40
26.0
 40
26.0
 40
27.0
 40
27.0
 40
27.0
 40
28.0
 40
28.0
 40
28.0
 40
29.0
 40
29.0
 40
29.0
 40
30.0
 40
30.0
 40
30.0
 40
31.0
 40
31.0
 40
31.0
 40
32.0
 40
32.0
 40
32.0
 40
33.0
 40
33.0
 40
33.0
 40
34.0
 40
34.0
 40
34.0
 40
35.0
 40
35.0
 40
35.0
 40
36.0
 40
36.0
 40
36.0
 40
37.0
 40
37.0
 40
37.0
 40
38.0
 40
38.0
 40
38.0
 40
39.0
 40
39.0
 40
39.0
 40
40.0
 40
40.0
 40
40.0
 40
41.0
 40
41.0
 40
41.0
 40
42.0
 40
42.0
 40
42.0
 40
43.0
 40
43.0
 40
43.0
 40
44.0
 40
44.0
 40
44.0
 40
45.0
 40
45.0
 40
45.0
 40
46.0
 40
46.0
 40
46.0
 40
47.0
 40
47.0
 40
47.0
 40
48.0
 40
48.0
 40
48.0
 40
49.0
 40
49.0
 40
49.0
 40
50.0
 40
50.0
 40
50.0
 40
51.0
 40
51.0
 40
51.0
 40
52.0
 40
52.0
 40
52.0
 40
53.0
 40
53.0
 40
53.0
 40
54.0
 40
54.0
 40
54.0
 40
55.0
 40
55.0
 40
55.0
 40
56.0
 40
56.0
 40
56.0
 40
57.0
 40
57.0
 40
57.0
 40
58.0
 40
58.0
 40
58.0
 40
59.0
 40
59.0
 40
59.0
 40
60.0
 40
60.0
 40
60.0
 40
61.0
 40
61.0
 40
61.0
 40
62.0
 40
62.0
 40
62.0
 40
63.0
 40
63.0
 40
63.0
 40
64.0
 40
64.0
 40
64.0
 40
65.0
 40
65.0
 40
65.0
 40
66.0
 40
66.0
 40
66.0
 40
67.0
 40
67.0
 40
67.0
 40
68.0
 40
68.0
 40
68.0
 40
69.0
 40
69.0
 40
69.0
 40
70.0
 40
70.0
 40
70.0
 40
71.0
 40
71.0
 40
71.0
 40
72.0
 40
72.0
 40
72.0
 40
73.0
 40
73.0
 40
73.0
 40
74.0
 40
74.0
 40
74.0
 40
75.0
 40
75.0
 40
75.0
 40
76.0
 40
76.0
 40
76.0
 40
77.0
 40
77.0
 40
77.0
 40
78.0
 40
78.0
 40
78.0
 40
79.0
 40
79.0
 40
79.0
 40
80.0
 40
80.0
 40
80.0
 40
81.0
 40
81.0
 40
81.0
 40
82.0
 40
82.0
 40
82.0
 40
83.0
 40
83.0
 40
83.0
 40
84.0
 40
84.0
 40
84.0
 40
85.0
 40
85.0
 40
85.0
 40
86.0
 40
86.0
 40
86.0
 40
87.0
 40
87.0
 40
87.0
 40
88.0
 40
88.0
 40
88.0
 40
89.0
 40
89.0
 40
89.0
 40
90.0
 40
90.0
 40
90.0
 40
91.0
 40
91.0
 40
91.0
 40
92.0
 40
92.0
 40
92.0
 40
93.0
 40
93.0
 40
93.0
 40
94.0
 40
94.0
 40
94.0
 40
95.0
 40
95.0
 40
95.0
 40
96.0
 40
96.0
 40
96.0
 40
97.0
 40
97.0
 40
97.0
 40
98.0
 40
98.0
 40
98.0
 40
99.0
 40
99.0
 40
99.0
 40
100.0
 40
100.0
 40
100.0
 40
101.0
 40
101.0
 40
101.0
 40
102.0
 40
102.0
 40
102.0
 40
103.0
 40
103.0
 40
103.0
 40
104.0
 40
104.0
 40
104.0
 40
105.0
 40
105.0
 40
105.0
 40
105.0
 10
30.16890972222222
 20
-7.195749999999988
 30
0.0
 10
30.19911805555554
 20
-7.202529166666661
 30
0.0
 10
30.22199166666667
 20
-7.220141666666677
 30
0.0
 10
30.24095416666667
 20
-7.251180555555568
 30
0.0
 10
30.26818333333333
 20
-7.295723611111119
 30
0.0
 10
30.28096944444444
 20
-7.346215277777774
 30
0.0
 10
30.29269166666667
 20
-7.398368055555566
 30
0.0
 10
30.32167083333333
 20
-7.527276388888898
 30
0.0
 10
30.30468333333334
 20
-7.658036111111111
 30
0.0
 10
30.28200138888889
 20
-7.780127777777781
 30
0.0
 10
30.260225
 20
-7.89741666666666
 30
0.0
 10
30.22649583333333
 20
-8.011927777777776
 30
0.0
 10
30.19636388888889
 20
-8.10849861111112
 30
0.0
 10
30.13702083333333
 20
-8.298759722222233
 30
0.0
 10
30.09653333333333
 20
-8.46108611111112
 30
0.0
 10
30.09181388888889
 20
-8.634948611111112
 30
0.0
 10
30.09138888888889
 20
-8.65069999999999
 30
0.0
 10
30.09059999999999
 20
-8.666402777777774
 30
0.0
 10
30.08983055555556
 20
-8.682083333333342
 30
0.0
 10
30.08810277777777
 20
-8.717131944444443
 30
0.0
 10
30.08629722222223
 20
-8.753386111111114
 30
0.0
 10
30.08845833333334
 20
-8.789979166666676
 30
0.0
 10
30.08847638888889
 20
-8.790320833333327
 30
0.0
 10
30.08849027777779
 20
-8.790627777777773
 30
0.0
 10
30.08849583333333
 20
-8.790912500000003
 30
0.0
 10
30.07022916666667
 20
-8.79505416666666
 30
0.0
 10
30.05304027777778
 20
-8.800044444444438
 30
0.0
 10
30.03733194444444
 20
-8.80584722222223
 30
0.0
 10
30.02363472222222
 20
-8.810916666666673
 30
0.0
 10
30.0130111111111
 20
-8.820808333333337
 30
0.0
 10
30.00741805555556
 20
-8.833673611111104
 30
0.0
 10
30.00207777777779
 20
-8.845988888888895
 30
0.0
 10
30.00197083333334
 20
-8.859536111111108
 30
0.0
 10
30.0071236111111
 20
-8.871869444444453
 30
0.0
 10
30.01739444444445
 20
-8.896427777777767
 30
0.0
 10
30.04156111111111
 20
-8.90771111111111
 30
0.0
 10
30.06716666666667
 20
-8.900041666666665
 30
0.0
 10
30.06716666666667
 20
-8.900041666666665
 30
0.0
 10
30.08234722222222
 20
-8.895508333333332
 30
0.0
 10
30.08234722222222
 20
-8.895508333333332
 30
0.0
 10
30.12445
 20
-8.882969444444445
 30
0.0
 10
30.16799027777778
 20
-8.869973611111112
 30
0.0
 10
30.20963055555555
 20
-8.84997500000001
 30
0.0
 10
30.46295
 20
-8.728215277777785
 30
0.0
 10
30.68965138888888
 20
-8.567083333333333
 30
0.0
 10
30.86524027777778
 20
-8.383987500000002
 30
0.0
 10
30.9617875
 20
-8.283318055555558
 30
0.0
 10
31.02111527777778
 20
-8.176994444444441
 30
0.0
 10
31.04660416666666
 20
-8.05894583333333
 30
0.0
 10
31.0632
 20
-7.982074999999996
 30
0.0
 10
31.07870277777778
 20
-7.904951388888876
 30
0.0
 10
31.09419722222222
 20
-7.827837500000012
 30
0.0
 10
31.11578194444443
 20
-7.720426388888882
 30
0.0
 10
31.13810972222223
 20
-7.609366666666674
 30
0.0
 10
31.16316944444444
 20
-7.500975000000001
 30
0.0
 10
31.16316944444444
 20
-7.500975000000001
 30
0.0
 10
31.16797222222223
 20
-7.480163888888884
 30
0.0
 10
31.16797222222223
 20
-7.480163888888884
 30
0.0
 10
31.20649861111113
 20
-7.313197222222217
 30
0.0
 10
31.2463513888889
 20
-7.140534722222228
 30
0.0
 10
31.33356666666668
 20
-6.997155555555562
 30
0.0
 10
31.3519875
 20
-6.966873611111118
 30
0.0
 10
31.37202777777778
 20
-6.942566666666657
 30
0.0
 10
31.3948236111111
 20
-6.922838888888893
 30
0.0
 10
31.41488194444446
 20
-6.905454166666661
 30
0.0
 10
31.43420416666666
 20
-6.905972222222216
 30
0.0
 10
31.45392777777778
 20
-6.924402777777787
 30
0.0
 10
31.47182916666667
 20
-6.94113333333333
 30
0.0
 10
31.48329444444445
 20
-6.959194444444442
 30
0.0
 10
31.48900833333333
 20
-6.979584722222221
 30
0.0
 10
31.51585
 20
-7.075455555555562
 30
0.0
 10
31.51272777777778
 20
-7.180424999999988
 30
0.0
 10
31.50969305555554
 20
-7.281929166666663
 30
0.0
 10
31.50969305555554
 20
-7.281929166666663
 30
0.0
 10
31.50859583333332
 20
-7.321063888888879
 30
0.0
 10
31.50859583333332
 20
-7.321063888888879
 30
0.0
 10
31.50518472222221
 20
-7.457070833333344
 30
0.0
 10
31.49228611111112
 20
-7.594894444444435
 30
0.0
 10
31.47979861111111
 20
-7.728143055555569
 30
0.0
 10
31.47020555555557
 20
-7.830722222222221
 30
0.0
 10
31.46027083333335
 20
-7.936765277777769
 30
0.0
 10
31.45466527777777
 20
-8.041776388888895
 30
0.0
 10
31.44506666666666
 20
-8.22154722222222
 30
0.0
 10
31.41131111111111
 20
-8.357555555555564
 30
0.0
 10
31.35146944444444
 20
-8.457608333333331
 30
0.0
 10
31.31188333333335
 20
-8.523756944444433
 30
0.0
 10
31.25544444444444
 20
-8.572091666666665
 30
0.0
 10
31.19570555555555
 20
-8.62327777777778
 30
0.0
 10
31.19570555555555
 20
-8.62327777777778
 30
0.0
 10
31.18748055555554
 20
-8.630327777777767
 30
0.0
 10
31.18748055555554
 20
-8.630327777777767
 30
0.0
 10
31.06648611111111
 20
-8.734133333333324
 30
0.0
 10
30.91293472222221
 20
-8.877200000000004
 30
0.0
 10
30.79863472222223
 20
-9.064006944444447
 30
0.0
 10
30.77671666666667
 20
-9.100194444444442
 30
0.0
 10
30.79107222222223
 20
-9.127031944444449
 30
0.0
 10
30.81000138888889
 20
-9.139024999999997
 30
0.0
 10
30.82129861111111
 20
-9.146231944444454
 30
0.0
 10
30.83379027777778
 20
-9.148450000000013
 30
0.0
 10
30.84620833333333
 20
-9.14562083333332
 30
0.0
 10
30.85620694444444
 20
-9.143268055555557
 30
0.0
 10
30.8707013888889
 20
-9.136243055555546
 30
0.0
 10
30.8829375
 20
-9.116062499999998
 30
0.0
 10
30.9730888888889
 20
-8.96738888888889
 30
0.0
 10
31.09284305555555
 20
-8.834705555555551
 30
0.0
 10
31.24908194444444
 20
-8.710372222222228
 30
0.0
 10
31.31748472222221
 20
-8.65596527777777
 30
0.0
 10
31.39417916666667
 20
-8.587738888888882
 30
0.0
 10
31.44445972222221
 20
-8.494412500000003
 30
0.0
 10
31.61515277777779
 20
-8.177494444444442
 30
0.0
 10
31.65506111111111
 20
-7.827861111111107
 30
0.0
 10
31.67158194444444
 20
-7.527658333333344
 30
0.0
 10
31.6794236111111
 20
-7.385073611111111
 30
0.0
 10
31.69328333333333
 20
-7.217354166666659
 30
0.0
 10
31.73664722222222
 20
-7.0544625
 30
0.0
 10
31.75548749999999
 20
-6.983693055555553
 30
0.0
 10
31.7842486111111
 20
-6.930933333333339
 30
0.0
 10
31.8272
 20
-6.888387500000008
 30
0.0
 10
31.8354388888889
 20
-6.880250000000008
 30
0.0
 10
31.84318888888889
 20
-6.875372222222217
 30
0.0
 10
31.8486236111111
 20
-6.876362499999989
 30
0.0
 10
31.85401944444445
 20
-6.876852777777786
 30
0.0
 10
31.86090972222223
 20
-6.882673611111108
 30
0.0
 10
31.86752361111111
 20
-6.892290277777773
 30
0.0
 10
31.87742083333334
 20
-6.906658333333326
 30
0.0
 10
31.88389583333333
 20
-6.923888888888895
 30
0.0
 10
31.88920833333335
 20
-6.949913888888887
 30
0.0
 10
31.89968333333334
 20
-7.001493055555557
 30
0.0
 10
31.90235833333334
 20
-7.053655555555552
 30
0.0
 10
31.90520972222222
 20
-7.108851388888878
 30
0.0
 10
31.90772222222222
 20
-7.157704166666664
 30
0.0
 10
31.91031666666666
 20
-7.208209722222212
 30
0.0
 10
31.91887361111111
 20
-7.257875000000013
 30
0.0
 10
31.92613749999999
 20
-7.30003333333333
 30
0.0
 10
31.93592638888887
 20
-7.341015277777766
 30
0.0
 10
31.94538888888888
 20
-7.380611111111117
 30
0.0
 10
31.96350138888889
 20
-7.456319444444438
 30
0.0
 10
31.98059305555554
 20
-7.527812500000007
 30
0.0
 10
31.98073333333334
 20
-7.60522083333333
 30
0.0
 10
31.98088194444444
 20
-7.688776388888881
 30
0.0
 10
31.97331111111112
 20
-7.773233333333337
 30
0.0
 10
31.96598194444444
 20
-7.854894444444451
 30
0.0
 10
31.9574888888889
 20
-7.949630555555561
 30
0.0
 10
31.94870972222222
 20
-8.047583333333325
 30
0.0
 10
31.95165
 20
-8.146095833333346
 30
0.0
 10
31.95230833333335
 20
-8.16826527777779
 30
0.0
 10
31.95322777777778
 20
-8.190438888888895
 30
0.0
 10
31.95415138888888
 20
-8.212590277777785
 30
0.0
 10
31.95668611111111
 20
-8.273448611111109
 30
0.0
 10
31.95931527777778
 20
-8.336376388888892
 30
0.0
 10
31.95591111111111
 20
-8.397720833333324
 30
0.0
 10
31.95289583333334
 20
-8.45197916666666
 30
0.0
 10
31.94224305555556
 20
-8.50041111111111
 30
0.0
 10
31.9233236111111
 20
-8.545768055555552
 30
0.0
 10
31.862175
 20
-8.69247916666667
 30
0.0
 10
31.7423375
 20
-8.805491666666663
 30
0.0
 10
31.62642638888888
 20
-8.914783333333338
 30
0.0
 10
31.62642638888888
 20
-8.914783333333338
 30
0.0
 10
31.62214583333333
 20
-8.918840277777765
 30
0.0
 10
31.62214583333333
 20
-8.918840277777765
 30
0.0
 10
31.51671527777777
 20
-9.018258333333328
 30
0.0
 10
31.38353194444446
 20
-9.154695833333335
 30
0.0
 10
31.28863055555555
 20
-9.328647222222218
 30
0.0
 10
31.28863055555555
 20
-9.328647222222218
 30
0.0
 10
31.28710000000001
 20
-9.33143333333333
 30
0.0
 10
31.28710000000001
 20
-9.33143333333333
 30
0.0
 10
31.28137638888888
 20
-9.341866666666672
 30
0.0
 10
31.27547083333333
 20
-9.352655555555556
 30
0.0
 10
31.27107500000001
 20
-9.364834722222213
 30
0.0
 10
31.26241944444445
 20
-9.388698611111117
 30
0.0
 10
31.27218055555555
 20
-9.412627777777768
 30
0.0
 10
31.29535277777778
 20
-9.42438194444445
 30
0.0
 10
31.31575277777779
 20
-9.434684722222224
 30
0.0
 10
31.33767916666667
 20
-9.430226388888892
 30
0.0
 10
31.35394305555554
 20
-9.41238055555555
 30
0.0
 10
31.35926111111111
 20
-9.406568055555555
 30
0.0
 10
31.36271527777777
 20
-9.400144444444448
 30
0.0
 10
31.36550277777779
 20
-9.394612499999994
 30
0.0
 10
31.4104986111111
 20
-9.305931944444435
 30
0.0
 10
31.46985
 20
-9.2274875
 30
0.0
 10
31.54512916666666
 20
-9.136966666666668
 30
0.0
 10
31.59860833333333
 20
-9.072670833333328
 30
0.0
 10
31.66072916666667
 20
-9.013894444444455
 30
0.0
 10
31.72079305555556
 20
-8.957072222222223
 30
0.0
 10
31.74471805555554
 20
-8.934418055555549
 30
0.0
 10
31.76864722222222
 20
-8.911791666666659
 30
0.0
 10
31.7921611111111
 20
-8.888720833333334
 30
0.0
 10
31.83233194444445
 20
-8.849358333333333
 30
0.0
 10
31.87619305555555
 20
-8.804170833333323
 30
0.0
 10
31.91576527777778
 20
-8.752755555555545
 30
0.0
 10
31.91379583333335
 20
-8.763418055555551
 30
0.0
 10
31.91161111111111
 20
-8.774070833333326
 30
0.0
 10
31.90918749999999
 20
-8.784629166666667
 30
0.0
 10
31.89130416666666
 20
-8.862784722222209
 30
0.0
 10
31.86921805555554
 20
-8.94155972222221
 30
0.0
 10
31.84785277777776
 20
-9.017740277777774
 30
0.0
 10
31.83305416666667
 20
-9.070551388888891
 30
0.0
 10
31.81773333333333
 20
-9.12516527777777
 30
0.0
 10
31.80388194444443
 20
-9.179362499999998
 30
0.0
 10
31.77010833333333
 20
-9.311397222222213
 30
0.0
 10
31.75235
 20
-9.44839444444445
 30
0.0
 10
31.75108472222223
 20
-9.58645277777777
 30
0.0
 10
31.75095972222223
 20
-9.598472222222224
 30
0.0
 10
31.7508
 20
-9.613466666666655
 30
0.0
 10
31.75696666666666
 20
-9.62853194444445
 30
0.0
 10
31.76667777777778
 20
-9.652259722222222
 30
0.0
 10
31.78760416666667
 20
-9.66425277777777
 30
0.0
 10
31.81154722222221
 20
-9.659719444444438
 30
0.0
 10
31.83591527777778
 20
-9.65516388888889
 30
0.0
 10
31.85159583333335
 20
-9.635940277777788
 30
0.0
 10
31.85149305555554
 20
-9.610731944444447
 30
0.0
 10
31.85146527777778
 20
-9.605237500000005
 30
0.0
 10
31.85116666666666
 20
-9.599743055555564
 30
0.0
 10
31.85085416666667
 20
-9.594252777777784
 30
0.0
 10
31.85059305555556
 20
-9.589668055555547
 30
0.0
 10
31.85032222222222
 20
-9.585112499999997
 30
0.0
 10
31.85030833333333
 20
-9.580541666666678
 30
0.0
 10
31.84979027777778
 20
-9.463095833333329
 30
0.0
 10
31.86570833333333
 20
-9.3418763888889
 30
0.0
 10
31.90127083333333
 20
-9.197106944444435
 30
0.0
 10
31.9035861111111
 20
-9.212231944444435
 30
0.0
 10
31.90589166666667
 20
-9.227327777777772
 30
0.0
 10
31.9081986111111
 20
-9.242424999999987
 30
0.0
 10
31.92422916666666
 20
-9.347352777777788
 30
0.0
 10
31.94080555555555
 20
-9.455869444444437
 30
0.0
 10
31.95850694444445
 20
-9.562443055555553
 30
0.0
 10
31.97567222222223
 20
-9.665745833333327
 30
0.0
 10
31.94369027777778
 20
-9.749502777777781
 30
0.0
 10
31.86076944444443
 20
-9.818522222222226
 30
0.0
 10
31.78349722222222
 20
-9.88286388888888
 30
0.0
 10
31.71234861111111
 20
-9.93567916666666
 30
0.0
 10
31.64324583333334
 20
-9.979984722222222
 30
0.0
 10
31.57062777777777
 20
-10.02655972222222
 30
0.0
 10
31.49442361111111
 20
-10.07058611111112
 30
0.0
 10
31.42075
 20
-10.11315416666667
 30
0.0
 10
31.37590277777778
 20
-10.13907777777778
 30
0.0
 10
31.33105138888888
 20
-10.16500416666668
 30
0.0
 10
31.28664722222222
 20
-10.19162777777779
 30
0.0
 10
31.18511805555555
 20
-10.25255694444445
 30
0.0
 10
31.07694305555555
 20
-10.30406944444444
 30
0.0
 10
30.97516666666666
 20
-10.35068611111112
 30
0.0
 10
30.95395972222223
 20
-10.36040138888888
 30
0.0
 10
30.93256527777779
 20
-10.36965277777777
 30
0.0
 10
30.91117083333332
 20
-10.37894305555556
 30
0.0
 10
30.87937500000001
 20
-10.39273749999999
 30
0.0
 10
30.84649305555556
 20
-10.40698888888889
 30
0.0
 10
30.81451527777777
 20
-10.42258055555554
 30
0.0
 10
30.7454875
 20
-10.45620138888888
 30
0.0
 10
30.66475972222221
 20
-10.49802916666666
 30
0.0
 10
30.58923888888888
 20
-10.55319305555556
 30
0.0
 10
30.51784305555556
 20
-10.60533194444444
 30
0.0
 10
30.46679166666667
 20
-10.67463611111111
 30
0.0
 10
30.44158749999999
 20
-10.75360694444445
 30
0.0
 10
30.42817638888889
 20
-10.79567222222221
 30
0.0
 10
30.4258138888889
 20
-10.83842777777777
 30
0.0
 10
30.42354027777777
 20
-10.87976944444444
 30
0.0
 10
30.42187361111112
 20
-10.91001944444444
 30
0.0
 10
30.42030138888889
 20
-10.93858888888889
 30
0.0
 10
30.41467638888889
 20
-10.96651388888889
 30
0.0
 10
30.40174999999999
 20
-11.03064166666667
 30
0.0
 10
30.36435277777778
 20
-11.08911527777779
 30
0.0
 10
30.3281875
 20
-11.14566111111112
 30
0.0
 10
30.3281875
 20
-11.14566111111112
 30
0.0
 10
30.32543888888889
 20
-11.14995972222222
 30
0.0
 10
30.32543888888889
 20
-11.14995972222222
 30
0.0
 10
30.25521527777778
 20
-11.25975138888889
 30
0.0
 10
30.21439166666667
 20
-11.38188472222221
 30
0.0
 10
30.17491249999999
 20
-11.50000416666666
 30
0.0
 10
30.17491249999999
 20
-11.50000416666666
 30
0.0
 10
30.16692083333333
 20
-11.52387222222223
 30
0.0
 10
30.16692083333333
 20
-11.52387222222223
 30
0.0
 10
29.7973875
 20
-11.44526944444445
 30
0.0
 10
29.45260416666666
 20
-11.299575
 30
0.0
 10
29.14520833333333
 20
-11.10063055555555
 30
0.0
 10
29.1476125
 20
-11.09497777777779
 30
0.0
 10
29.14987083333332
 20
-11.08918055555556
 30
0.0
 10
29.15131388888888
 20
-11.08452083333332
 30
0.0
 10
29.2322
 20
-10.82170694444443
 30
0.0
 10
29.28028194444444
 20
-10.55179722222222
 30
0.0
 10
29.29423055555556
 20
-10.28225
 30
0.0
 10
29.29559305555555
 20
-10.25601527777778
 30
0.0
 10
29.29681666666667
 20
-10.22975277777778
 30
0.0
 10
29.29804861111111
 20
-10.20347916666666
 30
0.0
 10
29.30352500000001
 20
-10.08697499999999
 30
0.0
 10
29.30918333333333
 20
-9.966474999999996
 30
0.0
 10
29.32620833333333
 20
-9.849709722222213
 30
0.0
 10
29.34257916666666
 20
-9.737529166666667
 30
0.0
 10
29.37738055555556
 20
-9.635752777777775
 30
0.0
 10
29.41423055555555
 20
-9.528024999999994
 30
0.0
 10
29.42433888888889
 20
-9.498484722222226
 30
0.0
 10
29.43449999999999
 20
-9.468743055555553
 30
0.0
 10
29.44433194444444
 20
-9.438619444444434
 30
0.0
 10
29.50253055555556
 20
-9.260331944444436
 30
0.0
 10
29.52433472222222
 20
-9.074347222222235
 30
0.0
 10
29.54541666666667
 20
-8.894513888888897
 30
0.0
 10
29.55414583333334
 20
-8.819981944444432
 30
0.0
 10
29.56319305555555
 20
-8.742909722222217
 30
0.0
 10
29.57469583333333
 20
-8.667234722222222
 30
0.0
 10
29.60034722222223
 20
-8.49863750000001
 30
0.0
 10
29.64679583333333
 20
-8.333794444444441
 30
0.0
 10
29.70902777777778
 20
-8.190452777777788
 30
0.0
 10
29.73921666666667
 20
-8.120934722222222
 30
0.0
 10
29.77487638888889
 20
-8.052334722222213
 30
0.0
 10
29.80937916666667
 20
-7.98599583333334
 30
0.0
 10
29.85540277777778
 20
-7.897440277777782
 30
0.0
 10
29.90300416666667
 20
-7.805897222222231
 30
0.0
 10
29.93915972222223
 20
-7.709470833333322
 30
0.0
 10
29.96197777777777
 20
-7.648620833333325
 30
0.0
 10
29.97775694444445
 20
-7.584245833333322
 30
0.0
 10
29.9930125
 20
-7.521968055555564
 30
0.0
 10
30.02005972222222
 20
-7.411565277777779
 30
0.0
 10
30.04561388888889
 20
-7.307283333333341
 30
0.0
 10
30.10712083333333
 20
-7.218087500000011
 30
0.0
 10
30.12330138888889
 20
-7.194606944444457
 30
0.0
 10
30.13892638888889
 20
-7.188958333333327
 30
0.0
 10
30.16890972222222
 20
-7.195749999999988
 30
0.0
  0
SPLINE
  5
44
330
1F
100
AcDbEntity
  8
Layer 1
370
     0
100
AcDbSpline
210
0.0
220
0.0
230
1.0
 70
    11
 71
     3
 72
   218
 73
   214
 74
     0
 42
0.0000000001
 43
0.0000000001
 12
1.0
 22
0.0
 32
0.0
 13
1.0
 23
0.0
 33
0.0
 40
0.0
 40
0.0
 40
0.0
 40
0.0
 40
1.0
 40
1.0
 40
1.0
 40
2.0
 40
2.0
 40
2.0
 40
3.0
 40
3.0
 40
3.0
 40
4.0
 40
4.0
 40
4.0
 40
5.0
 40
5.0
 40
5.0
 40
6.0
 40
6.0
 40
6.0
 40
7.0
 40
7.0
 40
7.0
 40
8.0
 40
8.0
 40
8.0
 40
9.0
 40
9.0
 40
9.0
 40
10.0
 40
10.0
 40
10.0
 40
11.0
 40
11.0
 40
11.0
 40
12.0
 40
12.0
 40
12.0
 40
13.0
 40
13.0
 40
13.0
 40
14.0
 40
14.0
 40
14.0
 40
15.0
 40
15.0
 40
15.0
 40
16.0
 40
16.0
 40
16.0
 40
17.0
 40
17.0
 40
17.0
 40
18.0
 40
18.0
 40
18.0
 40
19.0
 40
19.0
 40
19.0
 40
20.0
 40
20.0
 40
20.0
 40
21.0
 40
21.0
 40
21.0
 40
22.0
 40
22.0
 40
22.0
 40
23.0
 40
23.0
 40
23.0
 40
24.0
 40
24.0
 40
24.0
 40
25.0
 40
25.0
 40
25.0
 40
26.0
 40
26.0
 40
26.0
 40
27.0
 40
27.0
 40
27.0
 40
28.0
 40
28.0
 40
28.0
 40
29.0
 40
29.0
 40
29.0
 40
30.0
 40
30.0
 40
30.0
 40
31.0
 40
31.0
 40
31.0
 40
32.0
 40
32.0
 40
32.0
 40
33.0
 40
33.0
 40
33.0
 40
34.0
 40
34.0
 40
34.0
 40
35.0
 40
35.0
 40
35.0
 40
36.0
 40
36.0
 40
36.0
 40
37.0
 40
37.0
 40
37.0
 40
38.0
 40
38.0
 40
38.0
 40
39.0
 40
39.0
 40
39.0
 40
40.0
 40
40.0
 40
40.0
 40
41.0
 40
41.0
 40
41.0
 40
42.0
 40
42.0
 40
42.0
 40
43.0
 40
43.0
 40
43.0
 40
44.0
 40
44.0
 40
44.0
 40
45.0
 40
45.0
 40
45.0
 40
46.0
 40
46.0
 40
46.0
 40
47.0
 40
47.0
 40
47.0
 40
48.0
 40
48.0
 40
48.0
 40
49.0
 40
49.0
 40
49.0
 40
50.0
 40
50.0
 40
50.0
 40
51.0
 40
51.0
 40
51.0
 40
52.0
 40
52.0
 40
52.0
 40
53.0
 40
53.0
 40
53.0
 40
54.0
 40
54.0
 40
54.0
 40
55.0
 40
55.0
 40
55.0
 40
56.0
 40
56.0
 40
56.0
 40
57.0
 40
57.0
 40
57.0
 40
58.0
 40
58.0
 40
58.0
 40
59.0
 40
59.0
 40
59.0
 40
60.0
 40
60.0
 40
60.0
 40
61.0
 40
61.0
 40
61.0
 40
62.0
 40
62.0
 40
62.0
 40
63.0
 40
63.0
 40
63.0
 40
64.0
 40
64.0
 40
64.0
 40
65.0
 40
65.0
 40
65.0
 40
66.0
 40
66.0
 40
66.0
 40
67.0
 40
67.0
 40
67.0
 40
68.0
 40
68.0
 40
68.0
 40
69.0
 40
69.0
 40
69.0
 40
70.0
 40
70.0
 40
70.0
 40
71.0
 40
71.0
 40
71.0
 40
71.0
 10
33.86922083333333
 20
-8.527034722222222
 30
0.0
 10
33.86922083333333
 20
-10.21661527777777
 30
0.0
 10
32.49465416666665
 20
-11.59118333333332
 30
0.0
 10
30.80506666666666
 20
-11.59118333333332
 30
0.0
 10
30.80506666666666
 20
-11.59118333333332
 30
0.0
 10
30.80505277777777
 20
-11.59118333333332
 30
0.0
 10
30.80505277777777
 20
-11.59118333333332
 30
0.0
 10
30.62116944444445
 20
-11.59118333333332
 30
0.0
 10
30.44133055555555
 20
-11.57398055555556
 30
0.0
 10
30.26627361111112
 20
-11.54278888888888
 30
0.0
 10
30.26759027777777
 20
-11.53881111111112
 30
0.0
 10
30.26900416666667
 20
-11.5347638888889
 30
0.0
 10
30.27008333333333
 20
-11.53103888888889
 30
0.0
 10
30.27008333333333
 20
-11.53103888888889
 30
0.0
 10
30.27225416666667
 20
-11.52371805555557
 30
0.0
 10
30.27225416666667
 20
-11.52371805555557
 30
0.0
 10
30.30346944444444
 20
-11.42363333333333
 30
0.0
 10
30.33782361111111
 20
-11.33623888888888
 30
0.0
 10
30.37728333333333
 20
-11.25650694444445
 30
0.0
 10
30.391825
 20
-11.2271625
 30
0.0
 10
30.40971388888889
 20
-11.19802777777777
 30
0.0
 10
30.42700000000001
 20
-11.16989305555555
 30
0.0
 10
30.46009722222223
 20
-11.11601805555556
 30
0.0
 10
30.49430972222222
 20
-11.06032083333333
 30
0.0
 10
30.51082222222222
 20
-10.99557361111111
 30
0.0
 10
30.51846944444443
 20
-10.96564583333333
 30
0.0
 10
30.51880416666667
 20
-10.93639027777777
 30
0.0
 10
30.51912638888888
 20
-10.90810972222223
 30
0.0
 10
30.51928055555556
 20
-10.89492777777779
 30
0.0
 10
30.51940277777777
 20
-10.88171111111112
 30
0.0
 10
30.52037777777778
 20
-10.86857083333333
 30
0.0
 10
30.52733333333333
 20
-10.77377916666667
 30
0.0
 10
30.56324583333334
 20
-10.7015013888889
 30
0.0
 10
30.63014027777778
 20
-10.64754583333332
 30
0.0
 10
30.69458472222221
 20
-10.59556111111111
 30
0.0
 10
30.77266527777778
 20
-10.54974305555556
 30
0.0
 10
30.87588333333332
 20
-10.50328472222223
 30
0.0
 10
30.89788055555555
 20
-10.49337916666668
 30
0.0
 10
30.91990972222223
 20
-10.48356111111111
 30
0.0
 10
30.9419388888889
 20
-10.47374444444444
 30
0.0
 10
31.04998888888889
 20
-10.42560138888888
 30
0.0
 10
31.16171666666666
 20
-10.37579722222222
 30
0.0
 10
31.26730277777779
 20
-10.31676249999999
 30
0.0
 10
31.26730277777779
 20
-10.31676249999999
 30
0.0
 10
31.31136944444446
 20
-10.2921375
 30
0.0
 10
31.31136944444446
 20
-10.2921375
 30
0.0
 10
31.47289444444444
 20
-10.20200972222223
 30
0.0
 10
31.63991666666667
 20
-10.10879444444443
 30
0.0
 10
31.7919875
 20
-9.997999999999996
 30
0.0
 10
31.7919875
 20
-9.997999999999996
 30
0.0
 10
31.81265416666666
 20
-9.983047222222213
 30
0.0
 10
31.81265416666666
 20
-9.983047222222213
 30
0.0
 10
31.88507638888889
 20
-9.930708333333339
 30
0.0
 10
31.96718055555556
 20
-9.871426388888898
 30
0.0
 10
32.01315277777778
 20
-9.789349999999986
 30
0.0
 10
32.05729999999999
 20
-9.710593055555565
 30
0.0
 10
32.07026944444444
 20
-9.609638888888892
 30
0.0
 10
32.05065277777778
 20
-9.497363888888886
 30
0.0
 10
32.02599444444445
 20
-9.356455555555561
 30
0.0
 10
31.99808333333334
 20
-9.189908333333328
 30
0.0
 10
31.97788611111112
 20
-9.023313888888879
 30
0.0
 10
31.97170833333333
 20
-8.972384722222234
 30
0.0
 10
31.97393055555555
 20
-8.930570833333325
 30
0.0
 10
31.98485416666666
 20
-8.89175972222223
 30
0.0
 10
32.0093111111111
 20
-8.804874999999987
 30
0.0
 10
32.017775
 20
-8.715069444444453
 30
0.0
 10
32.02595833333334
 20
-8.628240277777776
 30
0.0
 10
32.02972916666666
 20
-8.588294444444449
 30
0.0
 10
32.03362777777779
 20
-8.547013888888891
 30
0.0
 10
32.03900972222222
 20
-8.506923611111107
 30
0.0
 10
32.05557222222223
 20
-8.383827777777771
 30
0.0
 10
32.05489999999999
 20
-8.258576388888892
 30
0.0
 10
32.05425694444445
 20
-8.137436111111104
 30
0.0
 10
32.05409305555556
 20
-8.109026388888879
 30
0.0
 10
32.0539486111111
 20
-8.080643055555559
 30
0.0
 10
32.05399999999999
 20
-8.052275000000009
 30
0.0
 10
32.05418611111112
 20
-7.975809722222215
 30
0.0
 10
32.06192083333333
 20
-7.897916666666661
 30
0.0
 10
32.06940416666667
 20
-7.822572222222233
 30
0.0
 10
32.07452499999999
 20
-7.770900000000008
 30
0.0
 10
32.07983333333333
 20
-7.717481944444444
 30
0.0
 10
32.08273749999999
 20
-7.664473611111108
 30
0.0
 10
32.08944027777776
 20
-7.541808333333342
 30
0.0
 10
32.0611611111111
 20
-7.424070833333341
 30
0.0
 10
32.03576111111111
 20
-7.335194444444444
 30
0.0
 10
32.0134
 20
-7.256908333333335
 30
0.0
 10
32.00685138888889
 20
-7.173141666666677
 30
0.0
 10
32.00051666666668
 20
-7.092148611111118
 30
0.0
 10
32.00051666666668
 20
-7.092148611111118
 30
0.0
 10
32.0001
 20
-7.086859722222218
 30
0.0
 10
32.0001
 20
-7.086859722222218
 30
0.0
 10
31.99903194444444
 20
-7.073223611111112
 30
0.0
 10
31.998275
 20
-7.059112500000007
 30
0.0
 10
31.99750555555556
 20
-7.044766666666671
 30
0.0
 10
31.99378472222222
 20
-6.975711111111119
 30
0.0
 10
31.98956944444444
 20
-6.897443055555565
 30
0.0
 10
31.94901666666667
 20
-6.836256944444433
 30
0.0
 10
31.91357083333332
 20
-6.782755555555544
 30
0.0
 10
31.86829027777778
 20
-6.775197222222232
 30
0.0
 10
31.83656944444445
 20
-6.778119444444453
 30
0.0
 10
31.80773888888888
 20
-6.780897222222215
 30
0.0
 10
31.78178333333332
 20
-6.794098611111116
 30
0.0
 10
31.7572236111111
 20
-6.818420833333321
 30
0.0
 10
31.70688749999999
 20
-6.868351388888893
 30
0.0
 10
31.67199722222222
 20
-6.924608333333329
 30
0.0
 10
31.65353472222222
 20
-6.985640277777772
 30
0.0
 10
31.63661666666667
 20
-7.041555555555558
 30
0.0
 10
31.62245833333332
 20
-7.098838888888899
 30
0.0
 10
31.6111236111111
 20
-7.157093055555555
 30
0.0
 10
31.61213611111111
 20
-7.09118333333332
 30
0.0
 10
31.60373333333334
 20
-7.024226388888892
 30
0.0
 10
31.58610277777777
 20
-6.957943055555561
 30
0.0
 10
31.57262083333333
 20
-6.90720972222223
 30
0.0
 10
31.53414583333334
 20
-6.853706944444436
 30
0.0
 10
31.4812361111111
 20
-6.828512499999988
 30
0.0
 10
31.50021666666667
 20
-6.811441666666673
 30
0.0
 10
31.51886249999999
 20
-6.793936111111103
 30
0.0
 10
31.53698333333333
 20
-6.775786111111099
 30
0.0
 10
31.81501666666665
 20
-6.497416666666671
 30
0.0
 10
31.9641375
 20
-6.127098611111111
 30
0.0
 10
31.95689166666665
 20
-5.733066666666673
 30
0.0
 10
31.94355972222224
 20
-5.015761111111108
 30
0.0
 10
31.41949444444445
 20
-4.427274999999996
 30
0.0
 10
30.71078333333334
 20
-4.333695833333334
 30
0.0
 10
30.69353055555555
 20
-4.331423611111114
 30
0.0
 10
30.64177916666666
 20
-4.324584722222223
 30
0.0
 10
30.64177916666666
 20
-4.324584722222223
 30
0.0
 10
30.64177916666666
 20
-4.324584722222223
 30
0.0
 10
30.68744305555555
 20
-4.349894444444443
 30
0.0
 10
30.70266111111111
 20
-4.358330555555552
 30
0.0
 10
31.109825
 20
-4.584013888888888
 30
0.0
 10
31.36560555555555
 20
-5.013813888888889
 30
0.0
 10
31.37015694444444
 20
-5.479998611111114
 30
0.0
 10
31.373625
 20
-5.83068194444445
 30
0.0
 10
31.23974166666666
 20
-6.16025277777779
 30
0.0
 10
30.9931861111111
 20
-6.408006944444448
 30
0.0
 10
30.74708333333333
 20
-6.655286111111106
 30
0.0
 10
30.41690277777777
 20
-6.791322222222233
 30
0.0
 10
30.06577916666667
 20
-6.788716666666661
 30
0.0
 10
29.81755833333333
 20
-6.787479166666672
 30
0.0
 10
29.57698888888889
 20
-6.716168055555549
 30
0.0
 10
29.37008472222222
 20
-6.582480555555549
 30
0.0
 10
29.35530416666667
 20
-6.572929166666679
 30
0.0
 10
29.31096666666667
 20
-6.544290277777766
 30
0.0
 10
29.31096666666667
 20
-6.544290277777766
 30
0.0
 10
29.31096666666667
 20
-6.544290277777766
 30
0.0
 10
29.34190277777778
 20
-6.587051388888893
 30
0.0
 10
29.35221527777778
 20
-6.601298611111107
 30
0.0
 10
29.53215833333332
 20
-6.850009722222214
 30
0.0
 10
29.78236527777777
 20
-7.030851388888878
 30
0.0
 10
30.06287222222221
 20
-7.123869444444431
 30
0.0
 10
30.0458375
 20
-7.137169444444453
 30
0.0
 10
30.03010138888889
 20
-7.154483333333322
 30
0.0
 10
30.01594166666667
 20
-7.176583333333332
 30
0.0
 10
30.00518611111112
 20
-7.193387499999996
 30
0.0
 10
29.99564027777777
 20
-7.210380555555552
 30
0.0
 10
29.98850694444445
 20
-7.223320833333345
 30
0.0
 10
29.9485763888889
 20
-7.295980555555565
 30
0.0
 10
29.92951944444444
 20
-7.375336111111109
 30
0.0
 10
29.91108055555555
 20
-7.452062500000011
 30
0.0
 10
29.9029625
 20
-7.485859722222231
 30
0.0
 10
29.89456527777778
 20
-7.520809722222212
 30
0.0
 10
29.88455555555555
 20
-7.554252777777769
 30
0.0
 10
29.84041388888889
 20
-7.701661111111106
 30
0.0
 10
29.77500277777777
 20
-7.834073611111105
 30
0.0
 10
29.7057638888889
 20
-7.974259722222213
 30
0.0
 10
29.690275
 20
-8.00563055555555
 30
0.0
 10
29.67474861111111
 20
-8.037075000000009
 30
0.0
 10
29.65942361111111
 20
-8.068758333333335
 30
0.0
 10
29.57619444444444
 20
-8.241009722222215
 30
0.0
 10
29.51806111111111
 20
-8.413700000000011
 30
0.0
 10
29.48667222222222
 20
-8.582081944444452
 30
0.0
 10
29.47074027777777
 20
-8.667462500000005
 30
0.0
 10
29.46422222222222
 20
-8.754454166666669
 30
0.0
 10
29.45792500000001
 20
-8.838598611111113
 30
0.0
 10
29.45274861111112
 20
-8.907715277777772
 30
0.0
 10
29.44740833333334
 20
-8.979204166666653
 30
0.0
 10
29.43685277777778
 20
-9.048531944444449
 30
0.0
 10
29.41607638888889
 20
-9.184973611111117
 30
0.0
 10
29.37224999999999
 20
-9.31890000000001
 30
0.0
 10
29.3298625
 20
-9.448413888888883
 30
0.0
 10
29.30399305555557
 20
-9.52745555555556
 30
0.0
 10
29.27724305555554
 20
-9.609181944444446
 30
0.0
 10
29.25573194444445
 20
-9.691272222222223
 30
0.0
 10
29.20699583333334
 20
-9.877318055555557
 30
0.0
 10
29.19695138888889
 20
-10.07173333333334
 30
0.0
 10
29.18723055555557
 20
-10.25975972222222
 30
0.0
 10
29.1813125
 20
-10.37448472222223
 30
0.0
 10
29.17518749999999
 20
-10.49310833333334
 30
0.0
 10
29.16025416666667
 20
-10.60760555555556
 30
0.0
 10
29.15024444444445
 20
-10.68434583333333
 30
0.0
 10
29.13688055555556
 20
-10.77481527777779
 30
0.0
 10
29.11369722222222
 20
-10.86399583333334
 30
0.0
 10
29.10094861111111
 20
-10.91301666666666
 30
0.0
 10
29.08520833333333
 20
-10.96241111111112
 30
0.0
 10
29.06996666666666
 20
-11.01018472222222
 30
0.0
 10
29.06645555555555
 20
-11.02121527777778
 30
0.0
 10
29.06299583333334
 20
-11.03226111111111
 30
0.0
 10
29.05951388888889
 20
-11.04329166666667
 30
0.0
 10
28.26339583333333
 20
-10.48933194444445
 30
0.0
 10
27.74090833333333
 20
-9.568288888888901
 30
0.0
 10
27.74090833333333
 20
-8.527034722222222
 30
0.0
 10
27.74090833333333
 20
-8.527034722222222
 30
0.0
 10
27.74090833333333
 20
-3.72935694444445
 30
0.0
 10
27.74090833333333
 20
-3.72935694444445
 30
0.0
 10
27.74090833333333
 20
-2.039770833333339
 30
0.0
 10
29.11548611111112
 20
-0.6652027777777726
 30
0.0
 10
30.80506666666666
 20
-0.6652027777777726
 30
0.0
 10
32.49465416666665
 20
-0.6652027777777726
 30
0.0
 10
33.86922083333333
 20
-2.039770833333339
 30
0.0
 10
33.86922083333333
 20
-3.72935694444445
 30
0.0
 10
33.86922083333333
 20
-3.72935694444445
 30
0.0
 10
33.86922083333333
 20
-8.527034722222222
 30
0.0
 10
33.86922083333333
 20
-8.527034722222222
 30
0.0
  0
HATCH
  5
45
330
1F
100
AcDbEntity
  8
Layer 1
 62
    35
420
 10579544
100
AcDbHatch
 10
0.0
 20
0.0
 30
0.0
210
0.0
220
0.0
230
1.0
  2
SOLID
 70
     1
 71
     0
 91
        4
 92
        1
 93
        1
 72
     4
 94
        3
 73
     0
 74
     1
 95
       23
 96
       19
 40
0.0
 40
0.0
 40
0.0
 40
0.0
 40
1.0
 40
1.0
 40
1.0
 40
2.0
 40
2.0
 40
2.0
 40
3.0
 40
3.0
 40
3.0
 40
4.0
 40
4.0
 40
4.0
 40
5.0
 40
5.0
 40
5.0
 40
6.0
 40
6.0
 40
6.0
 40
6.0
 10
30.80505277777777
 20
-0.5143791666666604
 10
29.03231666666667
 20
-0.5143791666666604
 10
27.59008472222222
 20
-1.95662083333333
 10
27.59008472222222
 20
-3.72935694444445
 10
27.59008472222222
 20
-3.72935694444445
 10
27.59008472222222
 20
-8.527034722222222
 10
27.59008472222222
 20
-8.527034722222222
 10
27.59008472222222
 20
-10.29977083333334
 10
29.03232222222222
 20
-11.74200833333334
 10
30.80506666666666
 20
-11.74200833333334
 10
32.57780833333335
 20
-11.74200833333334
 10
34.02004583333332
 20
-10.29977083333334
 10
34.02004583333332
 20
-8.527034722222222
 10
34.02004583333332
 20
-8.527034722222222
 10
34.02004583333332
 20
-3.72935694444445
 10
34.02004583333332
 20
-3.72935694444445
 10
34.02004583333332
 20
-1.95662083333333
 10
32.57780833333335
 20
-0.5143791666666604
 10
30.80505277777777
 20
-0.5143791666666604
 97
        0
 97
        0
 92
        1
 93
        1
 72
     4
 94
        3
 73
     0
 74
     1
 95
       47
 96
       43
 40
0.0
 40
0.0
 40
0.0
 40
0.0
 40
1.0
 40
1.0
 40
1.0
 40
2.0
 40
2.0
 40
2.0
 40
3.0
 40
3.0
 40
3.0
 40
4.0
 40
4.0
 40
4.0
 40
5.0
 40
5.0
 40
5.0
 40
6.0
 40
6.0
 40
6.0
 40
7.0
 40
7.0
 40
7.0
 40
8.0
 40
8.0
 40
8.0
 40
9.0
 40
9.0
 40
9.0
 40
10.0
 40
10.0
 40
10.0
 40
11.0
 40
11.0
 40
11.0
 40
12.0
 40
12.0
 40
12.0
 40
13.0
 40
13.0
 40
13.0
 40
14.0
 40
14.0
 40
14.0
 40
14.0
 10
30.40186666666667
 20
-7.474908333333334
 10
30.39105
 20
-7.3414263888889
 10
30.36240555555556
 20
-7.245065277777788
 10
30.31583611111111
 20
-7.182301388888895
 10
30.38155555555555
 20
-7.191101388888884
 10
30.44808611111111
 20
-7.195787500000001
 10
30.51524305555555
 20
-7.19496111111112
 10
30.5228375
 20
-7.195091666666662
 10
30.53044166666667
 20
-7.19515277777777
 10
30.5380375
 20
-7.19515277777777
 10
30.77122777777778
 20
-7.19515277777777
 10
31.00189722222222
 20
-7.13429861111111
 10
31.20752638888888
 20
-7.022177777777769
 10
31.17232777777778
 20
-7.095515277777773
 10
31.14687638888889
 20
-7.173212499999989
 10
31.12468055555554
 20
-7.247997222222213
 10
31.05710277777777
 20
-7.475766666666661
 10
31.01147083333333
 20
-7.713354166666679
 10
30.97052638888888
 20
-7.937180555555566
 10
30.95935138888889
 20
-7.998212500000009
 10
30.94585555555555
 20
-8.063380555555568
 10
30.92301805555556
 20
-8.126265277777772
 10
30.89379583333334
 20
-8.20669305555556
 10
30.8356625
 20
-8.271366666666658
 10
30.78345277777779
 20
-8.325634722222224
 10
30.69897361111111
 20
-8.41347638888889
 10
30.60302777777777
 20
-8.492929166666675
 10
30.49016527777778
 20
-8.568595833333323
 10
30.40120416666667
 20
-8.628236111111113
 10
30.29752361111112
 20
-8.696045833333326
 10
30.18746527777777
 20
-8.750397222222217
 10
30.18868333333333
 20
-8.675875000000007
 10
30.19072361111111
 20
-8.590783333333345
 10
30.1974875
 20
-8.50781111111112
 10
30.20129722222222
 20
-8.461156944444433
 10
30.20783749999999
 20
-8.421094444444432
 10
30.21751527777778
 20
-8.385340277777788
 10
30.23570694444444
 20
-8.318048611111104
 10
30.25715277777777
 20
-8.248431944444443
 10
30.27788888888889
 20
-8.181120833333328
 10
30.34841944444444
 20
-7.952212500000011
 10
30.42134166666667
 20
-7.715516666666669
 10
30.40186666666667
 20
-7.474908333333334
 97
        0
 97
        0
 92
        1
 93
        1
 72
     4
 94
        3
 73
     0
 74
     1
 95
      320
 96
      316
 40
0.0
 40
0.0
 40
0.0
 40
0.0
 40
1.0
 40
1.0
 40
1.0
 40
2.0
 40
2.0
 40
2.0
 40
3.0
 40
3.0
 40
3.0
 40
4.0
 40
4.0
 40
4.0
 40
5.0
 40
5.0
 40
5.0
 40
6.0
 40
6.0
 40
6.0
 40
7.0
 40
7.0
 40
7.0
 40
8.0
 40
8.0
 40
8.0
 40
9.0
 40
9.0
 40
9.0
 40
10.0
 40
10.0
 40
10.0
 40
11.0
 40
11.0
 40
11.0
 40
12.0
 40
12.0
 40
12.0
 40
13.0
 40
13.0
 40
13.0
 40
14.0
 40
14.0
 40
14.0
 40
15.0
 40
15.0
 40
15.0
 40
16.0
 40
16.0
 40
16.0
 40
17.0
 40
17.0
 40
17.0
 40
18.0
 40
18.0
 40
18.0
 40
19.0
 40
19.0
 40
19.0
 40
20.0
 40
20.0
 40
20.0
 40
21.0
 40
21.0
 40
21.0
 40
22.0
 40
22.0
 40
22.0
 40
23.0
 40
23.0
 40
23.0
 40
24.0
 40
24.0
 40
24.0
 40
25.0
 40
25.0
 40
25.0
 40
26.0
 40
26.0
 40
26.0
 40
27.0
 40
27.0
 40
27.0
 40
28.0
 40
28.0
 40
28.0
 40
29.0
 40
29.0
 40
29.0
 40
30.0
 40
30.0
 40
30.0
 40
31.0
 40
31.0
 40
31.0
 40
32.0
 40
32.0
 40
32.0
 40
33.0
 40
33.0
 40
33.0
 40
34.0
 40
34.0
 40
34.0
 40
35.0
 40
35.0
 40
35.0
 40
36.0
 40
36.0
 40
36.0
 40
37.0
 40
37.0
 40
37.0
 40
38.0
 40
38.0
 40
38.0
 40
39.0
 40
39.0
 40
39.0
 40
40.0
 40
40.0
 40
40.0
 40
41.0
 40
41.0
 40
41.0
 40
42.0
 40
42.0
 40
42.0
 40
43.0
 40
43.0
 40
43.0
 40
44.0
 40
44.0
 40
44.0
 40
45.0
 40
45.0
 40
45.0
 40
46.0
 40
46.0
 40
46.0
 40
47.0
 40
47.0
 40
47.0
 40
48.0
 40
48.0
 40
48.0
 40
49.0
 40
49.0
 40
49.0
 40
50.0
 40
50.0
 40
50.0
 40
51.0
 40
51.0
 40
51.0
 40
52.0
 40
52.0
 40
52.0
 40
53.0
 40
53.0
 40
53.0
 40
54.0
 40
54.0
 40
54.0
 40
55.0
 40
55.0
 40
55.0
 40
56.0
 40
56.0
 40
56.0
 40
57.0
 40
57.0
 40
57.0
 40
58.0
 40
58.0
 40
58.0
 40
59.0
 40
59.0
 40
59.0
 40
60.0
 40
60.0
 40
60.0
 40
61.0
 40
61.0
 40
61.0
 40
62.0
 40
62.0
 40
62.0
 40
63.0
 40
63.0
 40
63.0
 40
64.0
 40
64.0
 40
64.0
 40
65.0
 40
65.0
 40
65.0
 40
66.0
 40
66.0
 40
66.0
 40
67.0
 40
67.0
 40
67.0
 40
68.0
 40
68.0
 40
68.0
 40
69.0
 40
69.0
 40
69.0
 40
70.0
 40
70.0
 40
70.0
 40
71.0
 40
71.0
 40
71.0
 40
72.0
 40
72.0
 40
72.0
 40
73.0
 40
73.0
 40
73.0
 40
74.0
 40
74.0
 40
74.0
 40
75.0
 40
75.0
 40
75.0
 40
76.0
 40
76.0
 40
76.0
 40
77.0
 40
77.0
 40
77.0
 40
78.0
 40
78.0
 40
78.0
 40
79.0
 40
79.0
 40
79.0
 40
80.0
 40
80.0
 40
80.0
 40
81.0
 40
81.0
 40
81.0
 40
82.0
 40
82.0
 40
82.0
 40
83.0
 40
83.0
 40
83.0
 40
84.0
 40
84.0
 40
84.0
 40
85.0
 40
85.0
 40
85.0
 40
86.0
 40
86.0
 40
86.0
 40
87.0
 40
87.0
 40
87.0
 40
88.0
 40
88.0
 40
88.0
 40
89.0
 40
89.0
 40
89.0
 40
90.0
 40
90.0
 40
90.0
 40
91.0
 40
91.0
 40
91.0
 40
92.0
 40
92.0
 40
92.0
 40
93.0
 40
93.0
 40
93.0
 40
94.0
 40
94.0
 40
94.0
 40
95.0
 40
95.0
 40
95.0
 40
96.0
 40
96.0
 40
96.0
 40
97.0
 40
97.0
 40
97.0
 40
98.0
 40
98.0
 40
98.0
 40
99.0
 40
99.0
 40
99.0
 40
100.0
 40
100.0
 40
100.0
 40
101.0
 40
101.0
 40
101.0
 40
102.0
 40
102.0
 40
102.0
 40
103.0
 40
103.0
 40
103.0
 40
104.0
 40
104.0
 40
104.0
 40
105.0
 40
105.0
 40
105.0
 40
105.0
 10
30.16890972222222
 20
-7.195749999999988
 10
30.19911805555554
 20
-7.202529166666661
 10
30.22199166666667
 20
-7.220141666666677
 10
30.24095416666667
 20
-7.251180555555568
 10
30.26818333333333
 20
-7.295723611111119
 10
30.28096944444444
 20
-7.346215277777774
 10
30.29269166666667
 20
-7.398368055555566
 10
30.32167083333333
 20
-7.527276388888898
 10
30.30468333333334
 20
-7.658036111111111
 10
30.28200138888889
 20
-7.780127777777781
 10
30.260225
 20
-7.89741666666666
 10
30.22649583333333
 20
-8.011927777777776
 10
30.19636388888889
 20
-8.10849861111112
 10
30.13702083333333
 20
-8.298759722222233
 10
30.09653333333333
 20
-8.46108611111112
 10
30.09181388888889
 20
-8.634948611111112
 10
30.09138888888889
 20
-8.65069999999999
 10
30.09059999999999
 20
-8.666402777777774
 10
30.08983055555556
 20
-8.682083333333342
 10
30.08810277777777
 20
-8.717131944444443
 10
30.08629722222223
 20
-8.753386111111114
 10
30.08845833333334
 20
-8.789979166666676
 10
30.08847638888889
 20
-8.790320833333327
 10
30.08849027777779
 20
-8.790627777777773
 10
30.08849583333333
 20
-8.790912500000003
 10
30.07022916666667
 20
-8.79505416666666
 10
30.05304027777778
 20
-8.800044444444438
 10
30.03733194444444
 20
-8.80584722222223
 10
30.02363472222222
 20
-8.810916666666673
 10
30.0130111111111
 20
-8.820808333333337
 10
30.00741805555556
 20
-8.833673611111104
 10
30.00207777777779
 20
-8.845988888888895
 10
30.00197083333334
 20
-8.859536111111108
 10
30.0071236111111
 20
-8.871869444444453
 10
30.01739444444445
 20
-8.896427777777767
 10
30.04156111111111
 20
-8.90771111111111
 10
30.06716666666667
 20
-8.900041666666665
 10
30.06716666666667
 20
-8.900041666666665
 10
30.08234722222222
 20
-8.895508333333332
 10
30.08234722222222
 20
-8.895508333333332
 10
30.12445
 20
-8.882969444444445
 10
30.16799027777778
 20
-8.869973611111112
 10
30.20963055555555
 20
-8.84997500000001
 10
30.46295
 20
-8.728215277777785
 10
30.68965138888888
 20
-8.567083333333333
 10
30.86524027777778
 20
-8.383987500000002
 10
30.9617875
 20
-8.283318055555558
 10
31.02111527777778
 20
-8.176994444444441
 10
31.04660416666666
 20
-8.05894583333333
 10
31.0632
 20
-7.982074999999996
 10
31.07870277777778
 20
-7.904951388888876
 10
31.09419722222222
 20
-7.827837500000012
 10
31.11578194444443
 20
-7.720426388888882
 10
31.13810972222223
 20
-7.609366666666674
 10
31.16316944444444
 20
-7.500975000000001
 10
31.16316944444444
 20
-7.500975000000001
 10
31.16797222222223
 20
-7.480163888888884
 10
31.16797222222223
 20
-7.480163888888884
 10
31.20649861111113
 20
-7.313197222222217
 10
31.2463513888889
 20
-7.140534722222228
 10
31.33356666666668
 20
-6.997155555555562
 10
31.3519875
 20
-6.966873611111118
 10
31.37202777777778
 20
-6.942566666666657
 10
31.3948236111111
 20
-6.922838888888893
 10
31.41488194444446
 20
-6.905454166666661
 10
31.43420416666666
 20
-6.905972222222216
 10
31.45392777777778
 20
-6.924402777777787
 10
31.47182916666667
 20
-6.94113333333333
 10
31.48329444444445
 20
-6.959194444444442
 10
31.48900833333333
 20
-6.979584722222221
 10
31.51585
 20
-7.075455555555562
 10
31.51272777777778
 20
-7.180424999999988
 10
31.50969305555554
 20
-7.281929166666663
 10
31.50969305555554
 20
-7.281929166666663
 10
31.50859583333332
 20
-7.321063888888879
 10
31.50859583333332
 20
-7.321063888888879
 10
31.50518472222221
 20
-7.457070833333344
 10
31.49228611111112
 20
-7.594894444444435
 10
31.47979861111111
 20
-7.728143055555569
 10
31.47020555555557
 20
-7.830722222222221
 10
31.46027083333335
 20
-7.936765277777769
 10
31.45466527777777
 20
-8.041776388888895
 10
31.44506666666666
 20
-8.22154722222222
 10
31.41131111111111
 20
-8.357555555555564
 10
31.35146944444444
 20
-8.457608333333331
 10
31.31188333333335
 20
-8.523756944444433
 10
31.25544444444444
 20
-8.572091666666665
 10
31.19570555555555
 20
-8.62327777777778
 10
31.19570555555555
 20
-8.62327777777778
 10
31.18748055555554
 20
-8.630327777777767
 10
31.18748055555554
 20
-8.630327777777767
 10
31.06648611111111
 20
-8.734133333333324
 10
30.91293472222221
 20
-8.877200000000004
 10
30.79863472222223
 20
-9.064006944444447
 10
30.77671666666667
 20
-9.100194444444442
 10
30.79107222222223
 20
-9.127031944444449
 10
30.81000138888889
 20
-9.139024999999997
 10
30.82129861111111
 20
-9.146231944444454
 10
30.83379027777778
 20
-9.148450000000013
 10
30.84620833333333
 20
-9.14562083333332
 10
30.85620694444444
 20
-9.143268055555557
 10
30.8707013888889
 20
-9.136243055555546
 10
30.8829375
 20
-9.116062499999998
 10
30.9730888888889
 20
-8.96738888888889
 10
31.09284305555555
 20
-8.834705555555551
 10
31.24908194444444
 20
-8.710372222222228
 10
31.31748472222221
 20
-8.65596527777777
 10
31.39417916666667
 20
-8.587738888888882
 10
31.44445972222221
 20
-8.494412500000003
 10
31.61515277777779
 20
-8.177494444444442
 10
31.65506111111111
 20
-7.827861111111107
 10
31.67158194444444
 20
-7.527658333333344
 10
31.6794236111111
 20
-7.385073611111111
 10
31.69328333333333
 20
-7.217354166666659
 10
31.73664722222222
 20
-7.0544625
 10
31.75548749999999
 20
-6.983693055555553
 10
31.7842486111111
 20
-6.930933333333339
 10
31.8272
 20
-6.888387500000008
 10
31.8354388888889
 20
-6.880250000000008
 10
31.84318888888889
 20
-6.875372222222217
 10
31.8486236111111
 20
-6.876362499999989
 10
31.85401944444445
 20
-6.876852777777786
 10
31.86090972222223
 20
-6.882673611111108
 10
31.86752361111111
 20
-6.892290277777773
 10
31.87742083333334
 20
-6.906658333333326
 10
31.88389583333333
 20
-6.923888888888895
 10
31.88920833333335
 20
-6.949913888888887
 10
31.89968333333334
 20
-7.001493055555557
 10
31.90235833333334
 20
-7.053655555555552
 10
31.90520972222222
 20
-7.108851388888878
 10
31.90772222222222
 20
-7.157704166666664
 10
31.91031666666666
 20
-7.208209722222212
 10
31.91887361111111
 20
-7.257875000000013
 10
31.92613749999999
 20
-7.30003333333333
 10
31.93592638888887
 20
-7.341015277777766
 10
31.94538888888888
 20
-7.380611111111117
 10
31.96350138888889
 20
-7.456319444444438
 10
31.98059305555554
 20
-7.527812500000007
 10
31.98073333333334
 20
-7.60522083333333
 10
31.98088194444444
 20
-7.688776388888881
 10
31.97331111111112
 20
-7.773233333333337
 10
31.96598194444444
 20
-7.854894444444451
 10
31.9574888888889
 20
-7.949630555555561
 10
31.94870972222222
 20
-8.047583333333325
 10
31.95165
 20
-8.146095833333346
 10
31.95230833333335
 20
-8.16826527777779
 10
31.95322777777778
 20
-8.190438888888895
 10
31.95415138888888
 20
-8.212590277777785
 10
31.95668611111111
 20
-8.273448611111109
 10
31.95931527777778
 20
-8.336376388888892
 10
31.95591111111111
 20
-8.397720833333324
 10
31.95289583333334
 20
-8.45197916666666
 10
31.94224305555556
 20
-8.50041111111111
 10
31.9233236111111
 20
-8.545768055555552
 10
31.862175
 20
-8.69247916666667
 10
31.7423375
 20
-8.805491666666663
 10
31.62642638888888
 20
-8.914783333333338
 10
31.62642638888888
 20
-8.914783333333338
 10
31.62214583333333
 20
-8.918840277777765
 10
31.62214583333333
 20
-8.918840277777765
 10
31.51671527777777
 20
-9.018258333333328
 10
31.38353194444446
 20
-9.154695833333335
 10
31.28863055555555
 20
-9.328647222222218
 10
31.28863055555555
 20
-9.328647222222218
 10
31.28710000000001
 20
-9.33143333333333
 10
31.28710000000001
 20
-9.33143333333333
 10
31.28137638888888
 20
-9.341866666666672
 10
31.27547083333333
 20
-9.352655555555556
 10
31.27107500000001
 20
-9.364834722222213
 10
31.26241944444445
 20
-9.388698611111117
 10
31.27218055555555
 20
-9.412627777777768
 10
31.29535277777778
 20
-9.42438194444445
 10
31.31575277777779
 20
-9.434684722222224
 10
31.33767916666667
 20
-9.430226388888892
 10
31.35394305555554
 20
-9.41238055555555
 10
31.35926111111111
 20
-9.406568055555555
 10
31.36271527777777
 20
-9.400144444444448
 10
31.36550277777779
 20
-9.394612499999994
 10
31.4104986111111
 20
-9.305931944444435
 10
31.46985
 20
-9.2274875
 10
31.54512916666666
 20
-9.136966666666668
 10
31.59860833333333
 20
-9.072670833333328
 10
31.66072916666667
 20
-9.013894444444455
 10
31.72079305555556
 20
-8.957072222222223
 10
31.74471805555554
 20
-8.934418055555549
 10
31.76864722222222
 20
-8.911791666666659
 10
31.7921611111111
 20
-8.888720833333334
 10
31.83233194444445
 20
-8.849358333333333
 10
31.87619305555555
 20
-8.804170833333323
 10
31.91576527777778
 20
-8.752755555555545
 10
31.91379583333335
 20
-8.763418055555551
 10
31.91161111111111
 20
-8.774070833333326
 10
31.90918749999999
 20
-8.784629166666667
 10
31.89130416666666
 20
-8.862784722222209
 10
31.86921805555554
 20
-8.94155972222221
 10
31.84785277777776
 20
-9.017740277777774
 10
31.83305416666667
 20
-9.070551388888891
 10
31.81773333333333
 20
-9.12516527777777
 10
31.80388194444443
 20
-9.179362499999998
 10
31.77010833333333
 20
-9.311397222222213
 10
31.75235
 20
-9.44839444444445
 10
31.75108472222223
 20
-9.58645277777777
 10
31.75095972222223
 20
-9.598472222222224
 10
31.7508
 20
-9.613466666666655
 10
31.75696666666666
 20
-9.62853194444445
 10
31.76667777777778
 20
-9.652259722222222
 10
31.78760416666667
 20
-9.66425277777777
 10
31.81154722222221
 20
-9.659719444444438
 10
31.83591527777778
 20
-9.65516388888889
 10
31.85159583333335
 20
-9.635940277777788
 10
31.85149305555554
 20
-9.610731944444447
 10
31.85146527777778
 20
-9.605237500000005
 10
31.85116666666666
 20
-9.599743055555564
 10
31.85085416666667
 20
-9.594252777777784
 10
31.85059305555556
 20
-9.589668055555547
 10
31.85032222222222
 20
-9.585112499999997
 10
31.85030833333333
 20
-9.580541666666678
 10
31.84979027777778
 20
-9.463095833333329
 10
31.86570833333333
 20
-9.3418763888889
 10
31.90127083333333
 20
-9.197106944444435
 10
31.9035861111111
 20
-9.212231944444435
 10
31.90589166666667
 20
-9.227327777777772
 10
31.9081986111111
 20
-9.242424999999987
 10
31.92422916666666
 20
-9.347352777777788
 10
31.94080555555555
 20
-9.455869444444437
 10
31.95850694444445
 20
-9.562443055555553
 10
31.97567222222223
 20
-9.665745833333327
 10
31.94369027777778
 20
-9.749502777777781
 10
31.86076944444443
 20
-9.818522222222226
 10
31.78349722222222
 20
-9.88286388888888
 10
31.71234861111111
 20
-9.93567916666666
 10
31.64324583333334
 20
-9.979984722222222
 10
31.57062777777777
 20
-10.02655972222222
 10
31.49442361111111
 20
-10.07058611111112
 10
31.42075
 20
-10.11315416666667
 10
31.37590277777778
 20
-10.13907777777778
 10
31.33105138888888
 20
-10.16500416666668
 10
31.28664722222222
 20
-10.19162777777779
 10
31.18511805555555
 20
-10.25255694444445
 10
31.07694305555555
 20
-10.30406944444444
 10
30.97516666666666
 20
-10.35068611111112
 10
30.95395972222223
 20
-10.36040138888888
 10
30.93256527777779
 20
-10.36965277777777
 10
30.91117083333332
 20
-10.37894305555556
 10
30.87937500000001
 20
-10.39273749999999
 10
30.84649305555556
 20
-10.40698888888889
 10
30.81451527777777
 20
-10.42258055555554
 10
30.7454875
 20
-10.45620138888888
 10
30.66475972222221
 20
-10.49802916666666
 10
30.58923888888888
 20
-10.55319305555556
 10
30.51784305555556
 20
-10.60533194444444
 10
30.46679166666667
 20
-10.67463611111111
 10
30.44158749999999
 20
-10.75360694444445
 10
30.42817638888889
 20
-10.79567222222221
 10
30.4258138888889
 20
-10.83842777777777
 10
30.42354027777777
 20
-10.87976944444444
 10
30.42187361111112
 20
-10.91001944444444
 10
30.42030138888889
 20
-10.93858888888889
 10
30.41467638888889
 20
-10.96651388888889
 10
30.40174999999999
 20
-11.03064166666667
 10
30.36435277777778
 20
-11.08911527777779
 10
30.3281875
 20
-11.14566111111112
 10
30.3281875
 20
-11.14566111111112
 10
30.32543888888889
 20
-11.14995972222222
 10
30.32543888888889
 20
-11.14995972222222
 10
30.25521527777778
 20
-11.25975138888889
 10
30.21439166666667
 20
-11.38188472222221
 10
30.17491249999999
 20
-11.50000416666666
 10
30.17491249999999
 20
-11.50000416666666
 10
30.16692083333333
 20
-11.52387222222223
 10
30.16692083333333
 20
-11.52387222222223
 10
29.7973875
 20
-11.44526944444445
 10
29.45260416666666
 20
-11.299575
 10
29.14520833333333
 20
-11.10063055555555
 10
29.1476125
 20
-11.09497777777779
 10
29.14987083333332
 20
-11.08918055555556
 10
29.15131388888888
 20
-11.08452083333332
 10
29.2322
 20
-10.82170694444443
 10
29.28028194444444
 20
-10.55179722222222
 10
29.29423055555556
 20
-10.28225
 10
29.29559305555555
 20
-10.25601527777778
 10
29.29681666666667
 20
-10.22975277777778
 10
29.29804861111111
 20
-10.20347916666666
 10
29.30352500000001
 20
-10.08697499999999
 10
29.30918333333333
 20
-9.966474999999996
 10
29.32620833333333
 20
-9.849709722222213
 10
29.34257916666666
 20
-9.737529166666667
 10
29.37738055555556
 20
-9.635752777777775
 10
29.41423055555555
 20
-9.528024999999994
 10
29.42433888888889
 20
-9.498484722222226
 10
29.43449999999999
 20
-9.468743055555553
 10
29.44433194444444
 20
-9.438619444444434
 10
29.50253055555556
 20
-9.260331944444436
 10
29.52433472222222
 20
-9.074347222222235
 10
29.54541666666667
 20
-8.894513888888897
 10
29.55414583333334
 20
-8.819981944444432
 10
29.56319305555555
 20
-8.742909722222217
 10
29.57469583333333
 20
-8.667234722222222
 10
29.60034722222223
 20
-8.49863750000001
 10
29.64679583333333
 20
-8.333794444444441
 10
29.70902777777778
 20
-8.190452777777788
 10
29.73921666666667
 20
-8.120934722222222
 10
29.77487638888889
 20
-8.052334722222213
 10
29.80937916666667
 20
-7.98599583333334
 10
29.85540277777778
 20
-7.897440277777782
 10
29.90300416666667
 20
-7.805897222222231
 10
29.93915972222223
 20
-7.709470833333322
 10
29.96197777777777
 20
-7.648620833333325
 10
29.97775694444445
 20
-7.584245833333322
 10
29.9930125
 20
-7.521968055555564
 10
30.02005972222222
 20
-7.411565277777779
 10
30.04561388888889
 20
-7.307283333333341
 10
30.10712083333333
 20
-7.218087500000011
 10
30.12330138888889
 20
-7.194606944444457
 10
30.13892638888889
 20
-7.188958333333327
 10
30.16890972222222
 20
-7.195749999999988
 97
        0
 97
        0
 92
        1
 93
        1
 72
     4
 94
        3
 73
     0
 74
     1
 95
      218
 96
      214
 40
0.0
 40
0.0
 40
0.0
 40
0.0
 40
1.0
 40
1.0
 40
1.0
 40
2.0
 40
2.0
 40
2.0
 40
3.0
 40
3.0
 40
3.0
 40
4.0
 40
4.0
 40
4.0
 40
5.0
 40
5.0
 40
5.0
 40
6.0
 40
6.0
 40
6.0
 40
7.0
 40
7.0
 40
7.0
 40
8.0
 40
8.0
 40
8.0
 40
9.0
 40
9.0
 40
9.0
 40
10.0
 40
10.0
 40
10.0
 40
11.0
 40
11.0
 40
11.0
 40
12.0
 40
12.0
 40
12.0
 40
13.0
 40
13.0
 40
13.0
 40
14.0
 40
14.0
 40
14.0
 40
15.0
 40
15.0
 40
15.0
 40
16.0
 40
16.0
 40
16.0
 40
17.0
 40
17.0
 40
17.0
 40
18.0
 40
18.0
 40
18.0
 40
19.0
 40
19.0
 40
19.0
 40
20.0
 40
20.0
 40
20.0
 40
21.0
 40
21.0
 40
21.0
 40
22.0
 40
22.0
 40
22.0
 40
23.0
 40
23.0
 40
23.0
 40
24.0
 40
24.0
 40
24.0
 40
25.0
 40
25.0
 40
25.0
 40
26.0
 40
26.0
 40
26.0
 40
27.0
 40
27.0
 40
27.0
 40
28.0
 40
28.0
 40
28.0
 40
29.0
 40
29.0
 40
29.0
 40
30.0
 40
30.0
 40
30.0
 40
31.0
 40
31.0
 40
31.0
 40
32.0
 40
32.0
 40
32.0
 40
33.0
 40
33.0
 40
33.0
 40
34.0
 40
34.0
 40
34.0
 40
35.0
 40
35.0
 40
35.0
 40
36.0
 40
36.0
 40
36.0
 40
37.0
 40
37.0
 40
37.0
 40
38.0
 40
38.0
 40
38.0
 40
39.0
 40
39.0
 40
39.0
 40
40.0
 40
40.0
 40
40.0
 40
41.0
 40
41.0
 40
41.0
 40
42.0
 40
42.0
 40
42.0
 40
43.0
 40
43.0
 40
43.0
 40
44.0
 40
44.0
 40
44.0
 40
45.0
 40
45.0
 40
45.0
 40
46.0
 40
46.0
 40
46.0
 40
47.0
 40
47.0
 40
47.0
 40
48.0
 40
48.0
 40
48.0
 40
49.0
 40
49.0
 40
49.0
 40
50.0
 40
50.0
 40
50.0
 40
51.0
 40
51.0
 40
51.0
 40
52.0
 40
52.0
 40
52.0
 40
53.0
 40
53.0
 40
53.0
 40
54.0
 40
54.0
 40
54.0
 40
55.0
 40
55.0
 40
55.0
 40
56.0
 40
56.0
 40
56.0
 40
57.0
 40
57.0
 40
57.0
 40
58.0
 40
58.0
 40
58.0
 40
59.0
 40
59.0
 40
59.0
 40
60.0
 40
60.0
 40
60.0
 40
61.0
 40
61.0
 40
61.0
 40
62.0
 40
62.0
 40
62.0
 40
63.0
 40
63.0
 40
63.0
 40
64.0
 40
64.0
 40
64.0
 40
65.0
 40
65.0
 40
65.0
 40
66.0
 40
66.0
 40
66.0
 40
67.0
 40
67.0
 40
67.0
 40
68.0
 40
68.0
 40
68.0
 40
69.0
 40
69.0
 40
69.0
 40
70.0
 40
70.0
 40
70.0
 40
71.0
 40
71.0
 40
71.0
 40
71.0
 10
33.86922083333333
 20
-8.527034722222222
 10
33.86922083333333
 20
-10.21661527777777
 10
32.49465416666665
 20
-11.59118333333332
 10
30.80506666666666
 20
-11.59118333333332
 10
30.80506666666666
 20
-11.59118333333332
 10
30.80505277777777
 20
-11.59118333333332
 10
30.80505277777777
 20
-11.59118333333332
 10
30.62116944444445
 20
-11.59118333333332
 10
30.44133055555555
 20
-11.57398055555556
 10
30.26627361111112
 20
-11.54278888888888
 10
30.26759027777777
 20
-11.53881111111112
 10
30.26900416666667
 20
-11.5347638888889
 10
30.27008333333333
 20
-11.53103888888889
 10
30.27008333333333
 20
-11.53103888888889
 10
30.27225416666667
 20
-11.52371805555557
 10
30.27225416666667
 20
-11.52371805555557
 10
30.30346944444444
 20
-11.42363333333333
 10
30.33782361111111
 20
-11.33623888888888
 10
30.37728333333333
 20
-11.25650694444445
 10
30.391825
 20
-11.2271625
 10
30.40971388888889
 20
-11.19802777777777
 10
30.42700000000001
 20
-11.16989305555555
 10
30.46009722222223
 20
-11.11601805555556
 10
30.49430972222222
 20
-11.06032083333333
 10
30.51082222222222
 20
-10.99557361111111
 10
30.51846944444443
 20
-10.96564583333333
 10
30.51880416666667
 20
-10.93639027777777
 10
30.51912638888888
 20
-10.90810972222223
 10
30.51928055555556
 20
-10.89492777777779
 10
30.51940277777777
 20
-10.88171111111112
 10
30.52037777777778
 20
-10.86857083333333
 10
30.52733333333333
 20
-10.77377916666667
 10
30.56324583333334
 20
-10.7015013888889
 10
30.63014027777778
 20
-10.64754583333332
 10
30.69458472222221
 20
-10.59556111111111
 10
30.77266527777778
 20
-10.54974305555556
 10
30.87588333333332
 20
-10.50328472222223
 10
30.89788055555555
 20
-10.49337916666668
 10
30.91990972222223
 20
-10.48356111111111
 10
30.9419388888889
 20
-10.47374444444444
 10
31.04998888888889
 20
-10.42560138888888
 10
31.16171666666666
 20
-10.37579722222222
 10
31.26730277777779
 20
-10.31676249999999
 10
31.26730277777779
 20
-10.31676249999999
 10
31.31136944444446
 20
-10.2921375
 10
31.31136944444446
 20
-10.2921375
 10
31.47289444444444
 20
-10.20200972222223
 10
31.63991666666667
 20
-10.10879444444443
 10
31.7919875
 20
-9.997999999999996
 10
31.7919875
 20
-9.997999999999996
 10
31.81265416666666
 20
-9.983047222222213
 10
31.81265416666666
 20
-9.983047222222213
 10
31.88507638888889
 20
-9.930708333333339
 10
31.96718055555556
 20
-9.871426388888898
 10
32.01315277777778
 20
-9.789349999999986
 10
32.05729999999999
 20
-9.710593055555565
 10
32.07026944444444
 20
-9.609638888888892
 10
32.05065277777778
 20
-9.497363888888886
 10
32.02599444444445
 20
-9.356455555555561
 10
31.99808333333334
 20
-9.189908333333328
 10
31.97788611111112
 20
-9.023313888888879
 10
31.97170833333333
 20
-8.972384722222234
 10
31.97393055555555
 20
-8.930570833333325
 10
31.98485416666666
 20
-8.89175972222223
 10
32.0093111111111
 20
-8.804874999999987
 10
32.017775
 20
-8.715069444444453
 10
32.02595833333334
 20
-8.628240277777776
 10
32.02972916666666
 20
-8.588294444444449
 10
32.03362777777779
 20
-8.547013888888891
 10
32.03900972222222
 20
-8.506923611111107
 10
32.05557222222223
 20
-8.383827777777771
 10
32.05489999999999
 20
-8.258576388888892
 10
32.05425694444445
 20
-8.137436111111104
 10
32.05409305555556
 20
-8.109026388888879
 10
32.0539486111111
 20
-8.080643055555559
 10
32.05399999999999
 20
-8.052275000000009
 10
32.05418611111112
 20
-7.975809722222215
 10
32.06192083333333
 20
-7.897916666666661
 10
32.06940416666667
 20
-7.822572222222233
 10
32.07452499999999
 20
-7.770900000000008
 10
32.07983333333333
 20
-7.717481944444444
 10
32.08273749999999
 20
-7.664473611111108
 10
32.08944027777776
 20
-7.541808333333342
 10
32.0611611111111
 20
-7.424070833333341
 10
32.03576111111111
 20
-7.335194444444444
 10
32.0134
 20
-7.256908333333335
 10
32.00685138888889
 20
-7.173141666666677
 10
32.00051666666668
 20
-7.092148611111118
 10
32.00051666666668
 20
-7.092148611111118
 10
32.0001
 20
-7.086859722222218
 10
32.0001
 20
-7.086859722222218
 10
31.99903194444444
 20
-7.073223611111112
 10
31.998275
 20
-7.059112500000007
 10
31.99750555555556
 20
-7.044766666666671
 10
31.99378472222222
 20
-6.975711111111119
 10
31.98956944444444
 20
-6.897443055555565
 10
31.94901666666667
 20
-6.836256944444433
 10
31.91357083333332
 20
-6.782755555555544
 10
31.86829027777778
 20
-6.775197222222232
 10
31.83656944444445
 20
-6.778119444444453
 10
31.80773888888888
 20
-6.780897222222215
 10
31.78178333333332
 20
-6.794098611111116
 10
31.7572236111111
 20
-6.818420833333321
 10
31.70688749999999
 20
-6.868351388888893
 10
31.67199722222222
 20
-6.924608333333329
 10
31.65353472222222
 20
-6.985640277777772
 10
31.63661666666667
 20
-7.041555555555558
 10
31.62245833333332
 20
-7.098838888888899
 10
31.6111236111111
 20
-7.157093055555555
 10
31.61213611111111
 20
-7.09118333333332
 10
31.60373333333334
 20
-7.024226388888892
 10
31.58610277777777
 20
-6.957943055555561
 10
31.57262083333333
 20
-6.90720972222223
 10
31.53414583333334
 20
-6.853706944444436
 10
31.4812361111111
 20
-6.828512499999988
 10
31.50021666666667
 20
-6.811441666666673
 10
31.51886249999999
 20
-6.793936111111103
 10
31.53698333333333
 20
-6.775786111111099
 10
31.81501666666665
 20
-6.497416666666671
 10
31.9641375
 20
-6.127098611111111
 10
31.95689166666665
 20
-5.733066666666673
 10
31.94355972222224
 20
-5.015761111111108
 10
31.41949444444445
 20
-4.427274999999996
 10
30.71078333333334
 20
-4.333695833333334
 10
30.69353055555555
 20
-4.331423611111114
 10
30.64177916666666
 20
-4.324584722222223
 10
30.64177916666666
 20
-4.324584722222223
 10
30.64177916666666
 20
-4.324584722222223
 10
30.68744305555555
 20
-4.349894444444443
 10
30.70266111111111
 20
-4.358330555555552
 10
31.109825
 20
-4.584013888888888
 10
31.36560555555555
 20
-5.013813888888889
 10
31.37015694444444
 20
-5.479998611111114
 10
31.373625
 20
-5.83068194444445
 10
31.23974166666666
 20
-6.16025277777779
 10
30.9931861111111
 20
-6.408006944444448
 10
30.74708333333333
 20
-6.655286111111106
 10
30.41690277777777
 20
-6.791322222222233
 10
30.06577916666667
 20
-6.788716666666661
 10
29.81755833333333
 20
-6.787479166666672
 10
29.57698888888889
 20
-6.716168055555549
 10
29.37008472222222
 20
-6.582480555555549
 10
29.35530416666667
 20
-6.572929166666679
 10
29.31096666666667
 20
-6.544290277777766
 10
29.31096666666667
 20
-6.544290277777766
 10
29.31096666666667
 20
-6.544290277777766
 10
29.34190277777778
 20
-6.587051388888893
 10
29.35221527777778
 20
-6.601298611111107
 10
29.53215833333332
 20
-6.850009722222214
 10
29.78236527777777
 20
-7.030851388888878
 10
30.06287222222221
 20
-7.123869444444431
 10
30.0458375
 20
-7.137169444444453
 10
30.03010138888889
 20
-7.154483333333322
 10
30.01594166666667
 20
-7.176583333333332
 10
30.00518611111112
 20
-7.193387499999996
 10
29.99564027777777
 20
-7.210380555555552
 10
29.98850694444445
 20
-7.223320833333345
 10
29.9485763888889
 20
-7.295980555555565
 10
29.92951944444444
 20
-7.375336111111109
 10
29.91108055555555
 20
-7.452062500000011
 10
29.9029625
 20
-7.485859722222231
 10
29.89456527777778
 20
-7.520809722222212
 10
29.88455555555555
 20
-7.554252777777769
 10
29.84041388888889
 20
-7.701661111111106
 10
29.77500277777777
 20
-7.834073611111105
 10
29.7057638888889
 20
-7.974259722222213
 10
29.690275
 20
-8.00563055555555
 10
29.67474861111111
 20
-8.037075000000009
 10
29.65942361111111
 20
-8.068758333333335
 10
29.57619444444444
 20
-8.241009722222215
 10
29.51806111111111
 20
-8.413700000000011
 10
29.48667222222222
 20
-8.582081944444452
 10
29.47074027777777
 20
-8.667462500000005
 10
29.46422222222222
 20
-8.754454166666669
 10
29.45792500000001
 20
-8.838598611111113
 10
29.45274861111112
 20
-8.907715277777772
 10
29.44740833333334
 20
-8.979204166666653
 10
29.43685277777778
 20
-9.048531944444449
 10
29.41607638888889
 20
-9.184973611111117
 10
29.37224999999999
 20
-9.31890000000001
 10
29.3298625
 20
-9.448413888888883
 10
29.30399305555557
 20
-9.52745555555556
 10
29.27724305555554
 20
-9.609181944444446
 10
29.25573194444445
 20
-9.691272222222223
 10
29.20699583333334
 20
-9.877318055555557
 10
29.19695138888889
 20
-10.07173333333334
 10
29.18723055555557
 20
-10.25975972222222
 10
29.1813125
 20
-10.37448472222223
 10
29.17518749999999
 20
-10.49310833333334
 10
29.16025416666667
 20
-10.60760555555556
 10
29.15024444444445
 20
-10.68434583333333
 10
29.13688055555556
 20
-10.77481527777779
 10
29.11369722222222
 20
-10.86399583333334
 10
29.10094861111111
 20
-10.91301666666666
 10
29.08520833333333
 20
-10.96241111111112
 10
29.06996666666666
 20
-11.01018472222222
 10
29.06645555555555
 20
-11.02121527777778
 10
29.06299583333334
 20
-11.03226111111111
 10
29.05951388888889
 20
-11.04329166666667
 10
28.26339583333333
 20
-10.48933194444445
 10
27.74090833333333
 20
-9.568288888888901
 10
27.74090833333333
 20
-8.527034722222222
 10
27.74090833333333
 20
-8.527034722222222
 10
27.74090833333333
 20
-3.72935694444445
 10
27.74090833333333
 20
-3.72935694444445
 10
27.74090833333333
 20
-2.039770833333339
 10
29.11548611111112
 20
-0.6652027777777726
 10
30.80506666666666
 20
-0.6652027777777726
 10
32.49465416666665
 20
-0.6652027777777726
 10
33.86922083333333
 20
-2.039770833333339
 10
33.86922083333333
 20
-3.72935694444445
 10
33.86922083333333
 20
-3.72935694444445
 10
33.86922083333333
 20
-8.527034722222222
 10
33.86922083333333
 20
-8.527034722222222
 97
        0
 97
        0
 75
     2
 76
     1
 98
        0
  0
SPLINE
  5
46
330
1F
100
AcDbEntity
  8
Layer 1
370
     0
100
AcDbSpline
210
0.0
220
0.0
230
1.0
 70
    11
 71
     3
 72
    35
 73
    31
 74
     0
 42
0.0000000001
 43
0.0000000001
 12
1.0
 22
0.0
 32
0.0
 13
1.0
 23
0.0
 33
0.0
 40
0.0
 40
0.0
 40
0.0
 40
0.0
 40
1.0
 40
1.0
 40
1.0
 40
2.0
 40
2.0
 40
2.0
 40
3.0
 40
3.0
 40
3.0
 40
4.0
 40
4.0
 40
4.0
 40
5.0
 40
5.0
 40
5.0
 40
6.0
 40
6.0
 40
6.0
 40
7.0
 40
7.0
 40
7.0
 40
8.0
 40
8.0
 40
8.0
 40
9.0
 40
9.0
 40
9.0
 40
10.0
 40
10.0
 40
10.0
 40
10.0
 10
33.33339722222222
 20
-1.140047222222228
 30
0.0
 10
32.65805416666667
 20
-0.48754583333333
 30
0.0
 10
31.76014166666667
 20
-0.1281933333333301
 30
0.0
 10
30.80505833333333
 20
-0.1281933333333301
 30
0.0
 10
29.84998472222222
 20
-0.1281933333333301
 30
0.0
 10
28.95206666666667
 20
-0.48754583333333
 30
0.0
 10
28.27672361111111
 20
-1.140047222222228
 30
0.0
 10
27.60138611111111
 20
-1.792548611111114
 30
0.0
 10
27.22945277777777
 20
-2.660094444444439
 30
0.0
 10
27.22945277777777
 20
-3.582873611111116
 30
0.0
 10
27.22945277777777
 20
-3.582873611111116
 30
0.0
 10
27.22945277777777
 20
-8.67351249999999
 30
0.0
 10
27.22945277777777
 20
-8.67351249999999
 30
0.0
 10
27.22945277777777
 20
-9.596301388888882
 30
0.0
 10
27.60138611111111
 20
-10.46384861111111
 30
0.0
 10
28.27672361111111
 20
-11.11633472222221
 30
0.0
 10
28.95206666666667
 20
-11.76883611111111
 30
0.0
 10
29.8499875
 20
-12.12819305555556
 30
0.0
 10
30.80506666666666
 20
-12.12819305555556
 30
0.0
 10
31.76014166666667
 20
-12.12819305555556
 30
0.0
 10
32.65805416666667
 20
-11.76883611111111
 30
0.0
 10
33.33339722222222
 20
-11.11633472222221
 30
0.0
 10
34.00874444444445
 20
-10.46384861111111
 30
0.0
 10
34.38066805555556
 20
-9.596301388888882
 30
0.0
 10
34.38066805555556
 20
-8.67351249999999
 30
0.0
 10
34.38066805555556
 20
-8.67351249999999
 30
0.0
 10
34.38066805555556
 20
-3.582873611111116
 30
0.0
 10
34.38066805555556
 20
-3.582873611111116
 30
0.0
 10
34.38066805555556
 20
-2.660094444444439
 30
0.0
 10
34.00874444444445
 20
-1.792538888888885
 30
0.0
 10
33.33339722222222
 20
-1.140047222222228
 30
0.0
  0
SPLINE
  5
47
330
1F
100
AcDbEntity
  8
Layer 1
370
     0
100
AcDbSpline
210
0.0
220
0.0
230
1.0
 70
    11
 71
     3
 72
    26
 73
    22
 74
     0
 42
0.0000000001
 43
0.0000000001
 12
1.0
 22
0.0
 32
0.0
 13
1.0
 23
0.0
 33
0.0
 40
0.0
 40
0.0
 40
0.0
 40
0.0
 40
1.0
 40
1.0
 40
1.0
 40
2.0
 40
2.0
 40
2.0
 40
3.0
 40
3.0
 40
3.0
 40
4.0
 40
4.0
 40
4.0
 40
5.0
 40
5.0
 40
5.0
 40
6.0
 40
6.0
 40
6.0
 40
7.0
 40
7.0
 40
7.0
 40
7.0
 10
34.23208333333332
 20
-8.67351249999999
 30
0.0
 10
34.23208333333332
 20
-10.49927083333334
 30
0.0
 10
32.69472777777779
 20
-11.98463194444445
 30
0.0
 10
30.80506666666666
 20
-11.98463194444445
 30
0.0
 10
30.80506666666666
 20
-11.98463194444445
 30
0.0
 10
30.80505833333333
 20
-11.98463194444445
 30
0.0
 10
30.80505833333333
 20
-11.98463194444445
 30
0.0
 10
28.91538888888888
 20
-11.98463194444445
 30
0.0
 10
27.3780375
 20
-10.49927083333334
 30
0.0
 10
27.3780375
 20
-8.67351249999999
 30
0.0
 10
27.3780375
 20
-8.67351249999999
 30
0.0
 10
27.3780375
 20
-3.582873611111116
 30
0.0
 10
27.3780375
 20
-3.582873611111116
 30
0.0
 10
27.3780375
 20
-1.757112499999999
 30
0.0
 10
28.91539722222223
 20
-0.2717499999999973
 30
0.0
 10
30.80506666666666
 20
-0.2717499999999973
 30
0.0
 10
32.69472777777779
 20
-0.2717499999999973
 30
0.0
 10
34.23208333333332
 20
-1.757112499999999
 30
0.0
 10
34.23208333333332
 20
-3.582873611111116
 30
0.0
 10
34.23208333333332
 20
-3.582873611111116
 30
0.0
 10
34.23208333333332
 20
-8.67351249999999
 30
0.0
 10
34.23208333333332
 20
-8.67351249999999
 30
0.0
  0
HATCH
  5
48
330
1F
100
AcDbEntity
  8
Layer 1
 62
    35
420
 10579544
100
AcDbHatch
 10
0.0
 20
0.0
 30
0.0
210
0.0
220
0.0
230
1.0
  2
SOLID
 70
     1
 71
     0
 91
        2
 92
        1
 93
        1
 72
     4
 94
        3
 73
     0
 74
     1
 95
       35
 96
       31
 40
0.0
 40
0.0
 40
0.0
 40
0.0
 40
1.0
 40
1.0
 40
1.0
 40
2.0
 40
2.0
 40
2.0
 40
3.0
 40
3.0
 40
3.0
 40
4.0
 40
4.0
 40
4.0
 40
5.0
 40
5.0
 40
5.0
 40
6.0
 40
6.0
 40
6.0
 40
7.0
 40
7.0
 40
7.0
 40
8.0
 40
8.0
 40
8.0
 40
9.0
 40
9.0
 40
9.0
 40
10.0
 40
10.0
 40
10.0
 40
10.0
 10
33.33339722222222
 20
-1.140047222222228
 10
32.65805416666667
 20
-0.48754583333333
 10
31.76014166666667
 20
-0.1281933333333301
 10
30.80505833333333
 20
-0.1281933333333301
 10
29.84998472222222
 20
-0.1281933333333301
 10
28.95206666666667
 20
-0.48754583333333
 10
28.27672361111111
 20
-1.140047222222228
 10
27.60138611111111
 20
-1.792548611111114
 10
27.22945277777777
 20
-2.660094444444439
 10
27.22945277777777
 20
-3.582873611111116
 10
27.22945277777777
 20
-3.582873611111116
 10
27.22945277777777
 20
-8.67351249999999
 10
27.22945277777777
 20
-8.67351249999999
 10
27.22945277777777
 20
-9.596301388888882
 10
27.60138611111111
 20
-10.46384861111111
 10
28.27672361111111
 20
-11.11633472222221
 10
28.95206666666667
 20
-11.76883611111111
 10
29.8499875
 20
-12.12819305555556
 10
30.80506666666666
 20
-12.12819305555556
 10
31.76014166666667
 20
-12.12819305555556
 10
32.65805416666667
 20
-11.76883611111111
 10
33.33339722222222
 20
-11.11633472222221
 10
34.00874444444445
 20
-10.46384861111111
 10
34.38066805555556
 20
-9.596301388888882
 10
34.38066805555556
 20
-8.67351249999999
 10
34.38066805555556
 20
-8.67351249999999
 10
34.38066805555556
 20
-3.582873611111116
 10
34.38066805555556
 20
-3.582873611111116
 10
34.38066805555556
 20
-2.660094444444439
 10
34.00874444444445
 20
-1.792538888888885
 10
33.33339722222222
 20
-1.140047222222228
 97
        0
 97
        0
 92
        1
 93
        1
 72
     4
 94
        3
 73
     0
 74
     1
 95
       26
 96
       22
 40
0.0
 40
0.0
 40
0.0
 40
0.0
 40
1.0
 40
1.0
 40
1.0
 40
2.0
 40
2.0
 40
2.0
 40
3.0
 40
3.0
 40
3.0
 40
4.0
 40
4.0
 40
4.0
 40
5.0
 40
5.0
 40
5.0
 40
6.0
 40
6.0
 40
6.0
 40
7.0
 40
7.0
 40
7.0
 40
7.0
 10
34.23208333333332
 20
-8.67351249999999
 10
34.23208333333332
 20
-10.49927083333334
 10
32.69472777777779
 20
-11.98463194444445
 10
30.80506666666666
 20
-11.98463194444445
 10
30.80506666666666
 20
-11.98463194444445
 10
30.80505833333333
 20
-11.98463194444445
 10
30.80505833333333
 20
-11.98463194444445
 10
28.91538888888888
 20
-11.98463194444445
 10
27.3780375
 20
-10.49927083333334
 10
27.3780375
 20
-8.67351249999999
 10
27.3780375
 20
-8.67351249999999
 10
27.3780375
 20
-3.582873611111116
 10
27.3780375
 20
-3.582873611111116
 10
27.3780375
 20
-1.757112499999999
 10
28.91539722222223
 20
-0.2717499999999973
 10
30.80506666666666
 20
-0.2717499999999973
 10
32.69472777777779
 20
-0.2717499999999973
 10
34.23208333333332
 20
-1.757112499999999
 10
34.23208333333332
 20
-3.582873611111116
 10
34.23208333333332
 20
-3.582873611111116
 10
34.23208333333332
 20
-8.67351249999999
 10
34.23208333333332
 20
-8.67351249999999
 97
        0
 97
        0
 75
     2
 76
     1
 98
        0
  0
SPLINE
  5
49
330
1F
100
AcDbEntity
  8
Layer 1
370
     0
100
AcDbSpline
210
0.0
220
0.0
230
1.0
 70
    11
 71
     3
 72
    77
 73
    73
 74
     0
 42
0.0000000001
 43
0.0000000001
 12
1.0
 22
0.0
 32
0.0
 13
1.0
 23
0.0
 33
0.0
 40
0.0
 40
0.0
 40
0.0
 40
0.0
 40
1.0
 40
1.0
 40
1.0
 40
2.0
 40
2.0
 40
2.0
 40
3.0
 40
3.0
 40
3.0
 40
4.0
 40
4.0
 40
4.0
 40
5.0
 40
5.0
 40
5.0
 40
6.0
 40
6.0
 40
6.0
 40
7.0
 40
7.0
 40
7.0
 40
8.0
 40
8.0
 40
8.0
 40
9.0
 40
9.0
 40
9.0
 40
10.0
 40
10.0
 40
10.0
 40
11.0
 40
11.0
 40
11.0
 40
12.0
 40
12.0
 40
12.0
 40
13.0
 40
13.0
 40
13.0
 40
14.0
 40
14.0
 40
14.0
 40
15.0
 40
15.0
 40
15.0
 40
16.0
 40
16.0
 40
16.0
 40
17.0
 40
17.0
 40
17.0
 40
18.0
 40
18.0
 40
18.0
 40
19.0
 40
19.0
 40
19.0
 40
20.0
 40
20.0
 40
20.0
 40
21.0
 40
21.0
 40
21.0
 40
22.0
 40
22.0
 40
22.0
 40
23.0
 40
23.0
 40
23.0
 40
24.0
 40
24.0
 40
24.0
 40
24.0
 10
31.05735555555556
 20
-10.03548611111111
 30
0.0
 10
31.0511888888889
 20
-10.03830555555555
 30
0.0
 10
31.04421388888889
 20
-10.04151666666667
 30
0.0
 10
31.03733888888888
 20
-10.04649305555555
 30
0.0
 10
31.01810555555554
 20
-10.06054444444445
 30
0.0
 10
31.0117513888889
 20
-10.08357222222222
 30
0.0
 10
31.02119027777778
 20
-10.10522361111111
 30
0.0
 10
31.02887916666668
 20
-10.12280416666666
 30
0.0
 10
31.04393888888888
 20
-10.13326111111112
 30
0.0
 10
31.06154722222221
 20
-10.13420416666668
 30
0.0
 10
31.06620555555557
 20
-10.13445138888889
 30
0.0
 10
31.07105555555555
 20
-10.13404027777779
 30
0.0
 10
31.07598055555556
 20
-10.13290555555555
 30
0.0
 10
31.08689583333333
 20
-10.13042222222222
 30
0.0
 10
31.09697916666667
 20
-10.12626249999999
 30
0.0
 10
31.10538611111113
 20
-10.12252361111112
 30
0.0
 10
31.17720555555555
 20
-10.0907013888889
 30
0.0
 10
31.25499166666668
 20
-10.0579111111111
 30
0.0
 10
31.33723194444443
 20
-10.03352083333334
 30
0.0
 10
31.36872361111111
 20
-10.02417916666668
 30
0.0
 10
31.41554583333333
 20
-10.00849861111111
 30
0.0
 10
31.45837638888889
 20
-9.980526388888897
 30
0.0
 10
31.55455972222222
 20
-9.91763194444444
 30
0.0
 10
31.59887916666667
 20
-9.832166666666655
 30
0.0
 10
31.59008888888889
 20
-9.726488888888879
 30
0.0
 10
31.59008888888889
 20
-9.726488888888879
 30
0.0
 10
31.58781527777779
 20
-9.70001527777779
 30
0.0
 10
31.58781527777779
 20
-9.70001527777779
 30
0.0
 10
31.58324027777778
 20
-9.647876388888891
 30
0.0
 10
31.5785263888889
 20
-9.593972222222217
 30
0.0
 10
31.58303472222224
 20
-9.540947222222231
 30
0.0
 10
31.58303472222224
 20
-9.540947222222231
 30
0.0
 10
31.58380138888889
 20
-9.528034722222223
 30
0.0
 10
31.58380138888889
 20
-9.528034722222223
 30
0.0
 10
31.58443055555555
 20
-9.517945833333341
 30
0.0
 10
31.58506111111112
 20
-9.507830555555554
 30
0.0
 10
31.58524444444444
 20
-9.497695833333333
 30
0.0
 10
31.5855375
 20
-9.48059583333333
 30
0.0
 10
31.58009861111112
 20
-9.465668055555549
 30
0.0
 10
31.56993194444446
 20
-9.455616666666653
 30
0.0
 10
31.56110416666666
 20
-9.446911111111122
 30
0.0
 10
31.54921944444444
 20
-9.442251388888886
 30
0.0
 10
31.5363486111111
 20
-9.442727777777765
 30
0.0
 10
31.50835833333334
 20
-9.443554166666672
 30
0.0
 10
31.48901249999999
 20
-9.462969444444449
 30
0.0
 10
31.48709027777777
 20
-9.492224999999987
 30
0.0
 10
31.48709027777777
 20
-9.492224999999987
 30
0.0
 10
31.48580138888888
 20
-9.510790277777788
 30
0.0
 10
31.48580138888888
 20
-9.510790277777788
 30
0.0
 10
31.48420972222223
 20
-9.533402777777786
 30
0.0
 10
31.4825611111111
 20
-9.556786111111125
 30
0.0
 10
31.48223055555556
 20
-9.580154166666665
 30
0.0
 10
31.48171250000001
 20
-9.614751388888887
 30
0.0
 10
31.48437777777778
 20
-9.649150000000013
 30
0.0
 10
31.48695
 20
-9.682438888888884
 30
0.0
 10
31.488775
 20
-9.70611249999999
 30
0.0
 10
31.49067083333335
 20
-9.730559722222223
 30
0.0
 10
31.49133333333333
 20
-9.754366666666657
 30
0.0
 10
31.4922388888889
 20
-9.787726388888888
 30
0.0
 10
31.48453611111111
 20
-9.814498611111123
 30
0.0
 10
31.4670861111111
 20
-9.838580555555557
 30
0.0
 10
31.43881111111111
 20
-9.877634722222233
 30
0.0
 10
31.4018861111111
 20
-9.905274999999998
 30
0.0
 10
31.3573611111111
 20
-9.920783333333322
 30
0.0
 10
31.3573611111111
 20
-9.920783333333322
 30
0.0
 10
31.31449722222222
 20
-9.935670833333335
 30
0.0
 10
31.31449722222222
 20
-9.935670833333335
 30
0.0
 10
31.2305263888889
 20
-9.964669444444452
 30
0.0
 10
31.14371111111111
 20
-9.994652777777775
 30
0.0
 10
31.06116944444446
 20
-10.03373055555554
 30
0.0
 10
31.06116944444446
 20
-10.03373055555554
 30
0.0
 10
31.05735555555556
 20
-10.03548611111111
 30
0.0
 10
31.05735555555556
 20
-10.03548611111111
 30
0.0
  0
HATCH
  5
4A
330
1F
100
AcDbEntity
  8
Layer 1
 62
    35
420
 10579544
100
AcDbHatch
 10
0.0
 20
0.0
 30
0.0
210
0.0
220
0.0
230
1.0
  2
SOLID
 70
     1
 71
     0
 91
        1
 92
        1
 93
        1
 72
     4
 94
        3
 73
     0
 74
     1
 95
       77
 96
       73
 40
0.0
 40
0.0
 40
0.0
 40
0.0
 40
1.0
 40
1.0
 40
1.0
 40
2.0
 40
2.0
 40
2.0
 40
3.0
 40
3.0
 40
3.0
 40
4.0
 40
4.0
 40
4.0
 40
5.0
 40
5.0
 40
5.0
 40
6.0
 40
6.0
 40
6.0
 40
7.0
 40
7.0
 40
7.0
 40
8.0
 40
8.0
 40
8.0
 40
9.0
 40
9.0
 40
9.0
 40
10.0
 40
10.0
 40
10.0
 40
11.0
 40
11.0
 40
11.0
 40
12.0
 40
12.0
 40
12.0
 40
13.0
 40
13.0
 40
13.0
 40
14.0
 40
14.0
 40
14.0
 40
15.0
 40
15.0
 40
15.0
 40
16.0
 40
16.0
 40
16.0
 40
17.0
 40
17.0
 40
17.0
 40
18.0
 40
18.0
 40
18.0
 40
19.0
 40
19.0
 40
19.0
 40
20.0
 40
20.0
 40
20.0
 40
21.0
 40
21.0
 40
21.0
 40
22.0
 40
22.0
 40
22.0
 40
23.0
 40
23.0
 40
23.0
 40
24.0
 40
24.0
 40
24.0
 40
24.0
 10
31.05735555555556
 20
-10.03548611111111
 10
31.0511888888889
 20
-10.03830555555555
 10
31.04421388888889
 20
-10.04151666666667
 10
31.03733888888888
 20
-10.04649305555555
 10
31.01810555555554
 20
-10.06054444444445
 10
31.0117513888889
 20
-10.08357222222222
 10
31.02119027777778
 20
-10.10522361111111
 10
31.02887916666668
 20
-10.12280416666666
 10
31.04393888888888
 20
-10.13326111111112
 10
31.06154722222221
 20
-10.13420416666668
 10
31.06620555555557
 20
-10.13445138888889
 10
31.07105555555555
 20
-10.13404027777779
 10
31.07598055555556
 20
-10.13290555555555
 10
31.08689583333333
 20
-10.13042222222222
 10
31.09697916666667
 20
-10.12626249999999
 10
31.10538611111113
 20
-10.12252361111112
 10
31.17720555555555
 20
-10.0907013888889
 10
31.25499166666668
 20
-10.0579111111111
 10
31.33723194444443
 20
-10.03352083333334
 10
31.36872361111111
 20
-10.02417916666668
 10
31.41554583333333
 20
-10.00849861111111
 10
31.45837638888889
 20
-9.980526388888897
 10
31.55455972222222
 20
-9.91763194444444
 10
31.59887916666667
 20
-9.832166666666655
 10
31.59008888888889
 20
-9.726488888888879
 10
31.59008888888889
 20
-9.726488888888879
 10
31.58781527777779
 20
-9.70001527777779
 10
31.58781527777779
 20
-9.70001527777779
 10
31.58324027777778
 20
-9.647876388888891
 10
31.5785263888889
 20
-9.593972222222217
 10
31.58303472222224
 20
-9.540947222222231
 10
31.58303472222224
 20
-9.540947222222231
 10
31.58380138888889
 20
-9.528034722222223
 10
31.58380138888889
 20
-9.528034722222223
 10
31.58443055555555
 20
-9.517945833333341
 10
31.58506111111112
 20
-9.507830555555554
 10
31.58524444444444
 20
-9.497695833333333
 10
31.5855375
 20
-9.48059583333333
 10
31.58009861111112
 20
-9.465668055555549
 10
31.56993194444446
 20
-9.455616666666653
 10
31.56110416666666
 20
-9.446911111111122
 10
31.54921944444444
 20
-9.442251388888886
 10
31.5363486111111
 20
-9.442727777777765
 10
31.50835833333334
 20
-9.443554166666672
 10
31.48901249999999
 20
-9.462969444444449
 10
31.48709027777777
 20
-9.492224999999987
 10
31.48709027777777
 20
-9.492224999999987
 10
31.48580138888888
 20
-9.510790277777788
 10
31.48580138888888
 20
-9.510790277777788
 10
31.48420972222223
 20
-9.533402777777786
 10
31.4825611111111
 20
-9.556786111111125
 10
31.48223055555556
 20
-9.580154166666665
 10
31.48171250000001
 20
-9.614751388888887
 10
31.48437777777778
 20
-9.649150000000013
 10
31.48695
 20
-9.682438888888884
 10
31.488775
 20
-9.70611249999999
 10
31.49067083333335
 20
-9.730559722222223
 10
31.49133333333333
 20
-9.754366666666657
 10
31.4922388888889
 20
-9.787726388888888
 10
31.48453611111111
 20
-9.814498611111123
 10
31.4670861111111
 20
-9.838580555555557
 10
31.43881111111111
 20
-9.877634722222233
 10
31.4018861111111
 20
-9.905274999999998
 10
31.3573611111111
 20
-9.920783333333322
 10
31.3573611111111
 20
-9.920783333333322
 10
31.31449722222222
 20
-9.935670833333335
 10
31.31449722222222
 20
-9.935670833333335
 10
31.2305263888889
 20
-9.964669444444452
 10
31.14371111111111
 20
-9.994652777777775
 10
31.06116944444446
 20
-10.03373055555554
 10
31.06116944444446
 20
-10.03373055555554
 10
31.05735555555556
 20
-10.03548611111111
 10
31.05735555555556
 20
-10.03548611111111
 97
        0
 97
        0
 75
     2
 76
     1
 98
        0
  0
SPLINE
  5
4B
330
1F
100
AcDbEntity
  8
Layer 1
370
     0
100
AcDbSpline
210
0.0
220
0.0
230
1.0
 70
    11
 71
     3
 72
    74
 73
    70
 74
     0
 42
0.0000000001
 43
0.0000000001
 12
1.0
 22
0.0
 32
0.0
 13
1.0
 23
0.0
 33
0.0
 40
0.0
 40
0.0
 40
0.0
 40
0.0
 40
1.0
 40
1.0
 40
1.0
 40
2.0
 40
2.0
 40
2.0
 40
3.0
 40
3.0
 40
3.0
 40
4.0
 40
4.0
 40
4.0
 40
5.0
 40
5.0
 40
5.0
 40
6.0
 40
6.0
 40
6.0
 40
7.0
 40
7.0
 40
7.0
 40
8.0
 40
8.0
 40
8.0
 40
9.0
 40
9.0
 40
9.0
 40
10.0
 40
10.0
 40
10.0
 40
11.0
 40
11.0
 40
11.0
 40
12.0
 40
12.0
 40
12.0
 40
13.0
 40
13.0
 40
13.0
 40
14.0
 40
14.0
 40
14.0
 40
15.0
 40
15.0
 40
15.0
 40
16.0
 40
16.0
 40
16.0
 40
17.0
 40
17.0
 40
17.0
 40
18.0
 40
18.0
 40
18.0
 40
19.0
 40
19.0
 40
19.0
 40
20.0
 40
20.0
 40
20.0
 40
21.0
 40
21.0
 40
21.0
 40
22.0
 40
22.0
 40
22.0
 40
23.0
 40
23.0
 40
23.0
 40
23.0
 10
30.51251666666667
 20
-9.909379166666668
 30
0.0
 10
30.50095277777778
 20
-9.91945277777778
 30
0.0
 10
30.49414722222223
 20
-9.932556944444437
 30
0.0
 10
30.49337638888889
 20
-9.946280555555555
 30
0.0
 10
30.49264861111111
 20
-9.958941666666659
 30
0.0
 10
30.4971013888889
 20
-9.971218055555557
 30
0.0
 10
30.50589722222222
 20
-9.980848611111115
 30
0.0
 10
30.51538194444444
 20
-9.991268055555565
 30
0.0
 10
30.52702499999999
 20
-9.996870833333332
 30
0.0
 10
30.53934444444445
 20
-9.99753333333332
 30
0.0
 10
30.5503
 20
-9.998112500000008
 30
0.0
 10
30.56177083333333
 20
-9.994779166666653
 30
0.0
 10
30.57273611111111
 20
-9.987436111111112
 30
0.0
 10
30.61408749999999
 20
-9.959772222222227
 30
0.0
 10
30.66263611111112
 20
-9.9349513888889
 30
0.0
 10
30.72551666666666
 20
-9.909286111111113
 30
0.0
 10
30.72551666666666
 20
-9.909286111111113
 30
0.0
 10
30.74058611111112
 20
-9.903147222222211
 30
0.0
 10
30.74058611111112
 20
-9.903147222222211
 30
0.0
 10
30.77354722222223
 20
-9.889748611111118
 30
0.0
 10
30.80764444444445
 20
-9.875902777777783
 30
0.0
 10
30.84022777777778
 20
-9.858695833333336
 30
0.0
 10
30.9482875
 20
-9.801645833333344
 30
0.0
 10
31.01556111111111
 20
-9.715033333333343
 30
0.0
 10
31.04015277777777
 20
-9.60130138888889
 30
0.0
 10
31.05012916666666
 20
-9.555236111111121
 30
0.0
 10
31.05788194444444
 20
-9.508194444444445
 30
0.0
 10
31.06538472222221
 20
-9.46268888888888
 30
0.0
 10
31.0685125
 20
-9.443755555555551
 30
0.0
 10
31.07162499999999
 20
-9.424811111111113
 30
0.0
 10
31.07492083333333
 20
-9.405909722222228
 30
0.0
 10
31.07889861111112
 20
-9.382943055555566
 30
0.0
 10
31.08426666666666
 20
-9.360479166666664
 30
0.0
 10
31.09044722222223
 20
-9.340984722222224
 30
0.0
 10
31.09044722222223
 20
-9.340984722222224
 30
0.0
 10
31.09168888888889
 20
-9.337044444444446
 30
0.0
 10
31.09168888888889
 20
-9.337044444444446
 30
0.0
 10
31.09168888888889
 20
-9.337044444444446
 30
0.0
 10
31.09167638888887
 20
-9.332941666666658
 30
0.0
 10
31.09167638888887
 20
-9.332941666666658
 30
0.0
 10
31.09156388888889
 20
-9.294387500000008
 30
0.0
 10
31.06578611111111
 20
-9.28377083333334
 30
0.0
 10
31.05475416666667
 20
-9.280984722222229
 30
0.0
 10
31.02900555555556
 20
-9.274630555555555
 30
0.0
 10
31.00552916666667
 20
-9.28708055555555
 30
0.0
 10
30.99632361111111
 20
-9.312280555555565
 30
0.0
 10
30.99185972222222
 20
-9.32456666666667
 30
0.0
 10
30.98804166666665
 20
-9.33755833333334
 30
0.0
 10
30.98469027777777
 20
-9.352015277777783
 30
0.0
 10
30.97488194444445
 20
-9.393959722222235
 30
0.0
 10
30.96823472222223
 20
-9.436724999999997
 30
0.0
 10
30.96182083333332
 20
-9.478070833333327
 30
0.0
 10
30.95952361111111
 20
-9.492818055555567
 30
0.0
 10
30.95722222222222
 20
-9.507563888888878
 30
0.0
 10
30.95478472222223
 20
-9.52231527777778
 30
0.0
 10
30.94558888888888
 20
-9.57805
 30
0.0
 10
30.93645277777778
 20
-9.623905555555565
 30
0.0
 10
30.91011527777778
 20
-9.664531944444434
 30
0.0
 10
30.873825
 20
-9.720527777777786
 30
0.0
 10
30.82651250000001
 20
-9.759926388888895
 30
0.0
 10
30.76545694444444
 20
-9.785013888888898
 30
0.0
 10
30.76545694444444
 20
-9.785013888888898
 30
0.0
 10
30.74944583333334
 20
-9.79159999999999
 30
0.0
 10
30.74944583333334
 20
-9.79159999999999
 30
0.0
 10
30.67986666666666
 20
-9.82012777777777
 30
0.0
 10
30.60792916666666
 20
-9.849616666666659
 30
0.0
 10
30.54122638888889
 20
-9.889580555555565
 30
0.0
 10
30.53264583333334
 20
-9.89470277777779
 30
0.0
 10
30.52199305555556
 20
-9.901079166666653
 30
0.0
 10
30.51251666666667
 20
-9.909379166666668
 30
0.0
  0
HATCH
  5
4C
330
1F
100
AcDbEntity
  8
Layer 1
 62
    35
420
 10579544
100
AcDbHatch
 10
0.0
 20
0.0
 30
0.0
210
0.0
220
0.0
230
1.0
  2
SOLID
 70
     1
 71
     0
 91
        1
 92
        1
 93
        1
 72
     4
 94
        3
 73
     0
 74
     1
 95
       74
 96
       70
 40
0.0
 40
0.0
 40
0.0
 40
0.0
 40
1.0
 40
1.0
 40
1.0
 40
2.0
 40
2.0
 40
2.0
 40
3.0
 40
3.0
 40
3.0
 40
4.0
 40
4.0
 40
4.0
 40
5.0
 40
5.0
 40
5.0
 40
6.0
 40
6.0
 40
6.0
 40
7.0
 40
7.0
 40
7.0
 40
8.0
 40
8.0
 40
8.0
 40
9.0
 40
9.0
 40
9.0
 40
10.0
 40
10.0
 40
10.0
 40
11.0
 40
11.0
 40
11.0
 40
12.0
 40
12.0
 40
12.0
 40
13.0
 40
13.0
 40
13.0
 40
14.0
 40
14.0
 40
14.0
 40
15.0
 40
15.0
 40
15.0
 40
16.0
 40
16.0
 40
16.0
 40
17.0
 40
17.0
 40
17.0
 40
18.0
 40
18.0
 40
18.0
 40
19.0
 40
19.0
 40
19.0
 40
20.0
 40
20.0
 40
20.0
 40
21.0
 40
21.0
 40
21.0
 40
22.0
 40
22.0
 40
22.0
 40
23.0
 40
23.0
 40
23.0
 40
23.0
 10
30.51251666666667
 20
-9.909379166666668
 10
30.50095277777778
 20
-9.91945277777778
 10
30.49414722222223
 20
-9.932556944444437
 10
30.49337638888889
 20
-9.946280555555555
 10
30.49264861111111
 20
-9.958941666666659
 10
30.4971013888889
 20
-9.971218055555557
 10
30.50589722222222
 20
-9.980848611111115
 10
30.51538194444444
 20
-9.991268055555565
 10
30.52702499999999
 20
-9.996870833333332
 10
30.53934444444445
 20
-9.99753333333332
 10
30.5503
 20
-9.998112500000008
 10
30.56177083333333
 20
-9.994779166666653
 10
30.57273611111111
 20
-9.987436111111112
 10
30.61408749999999
 20
-9.959772222222227
 10
30.66263611111112
 20
-9.9349513888889
 10
30.72551666666666
 20
-9.909286111111113
 10
30.72551666666666
 20
-9.909286111111113
 10
30.74058611111112
 20
-9.903147222222211
 10
30.74058611111112
 20
-9.903147222222211
 10
30.77354722222223
 20
-9.889748611111118
 10
30.80764444444445
 20
-9.875902777777783
 10
30.84022777777778
 20
-9.858695833333336
 10
30.9482875
 20
-9.801645833333344
 10
31.01556111111111
 20
-9.715033333333343
 10
31.04015277777777
 20
-9.60130138888889
 10
31.05012916666666
 20
-9.555236111111121
 10
31.05788194444444
 20
-9.508194444444445
 10
31.06538472222221
 20
-9.46268888888888
 10
31.0685125
 20
-9.443755555555551
 10
31.07162499999999
 20
-9.424811111111113
 10
31.07492083333333
 20
-9.405909722222228
 10
31.07889861111112
 20
-9.382943055555566
 10
31.08426666666666
 20
-9.360479166666664
 10
31.09044722222223
 20
-9.340984722222224
 10
31.09044722222223
 20
-9.340984722222224
 10
31.09168888888889
 20
-9.337044444444446
 10
31.09168888888889
 20
-9.337044444444446
 10
31.09168888888889
 20
-9.337044444444446
 10
31.09167638888887
 20
-9.332941666666658
 10
31.09167638888887
 20
-9.332941666666658
 10
31.09156388888889
 20
-9.294387500000008
 10
31.06578611111111
 20
-9.28377083333334
 10
31.05475416666667
 20
-9.280984722222229
 10
31.02900555555556
 20
-9.274630555555555
 10
31.00552916666667
 20
-9.28708055555555
 10
30.99632361111111
 20
-9.312280555555565
 10
30.99185972222222
 20
-9.32456666666667
 10
30.98804166666665
 20
-9.33755833333334
 10
30.98469027777777
 20
-9.352015277777783
 10
30.97488194444445
 20
-9.393959722222235
 10
30.96823472222223
 20
-9.436724999999997
 10
30.96182083333332
 20
-9.478070833333327
 10
30.95952361111111
 20
-9.492818055555567
 10
30.95722222222222
 20
-9.507563888888878
 10
30.95478472222223
 20
-9.52231527777778
 10
30.94558888888888
 20
-9.57805
 10
30.93645277777778
 20
-9.623905555555565
 10
30.91011527777778
 20
-9.664531944444434
 10
30.873825
 20
-9.720527777777786
 10
30.82651250000001
 20
-9.759926388888895
 10
30.76545694444444
 20
-9.785013888888898
 10
30.76545694444444
 20
-9.785013888888898
 10
30.74944583333334
 20
-9.79159999999999
 10
30.74944583333334
 20
-9.79159999999999
 10
30.67986666666666
 20
-9.82012777777777
 10
30.60792916666666
 20
-9.849616666666659
 10
30.54122638888889
 20
-9.889580555555565
 10
30.53264583333334
 20
-9.89470277777779
 10
30.52199305555556
 20
-9.901079166666653
 10
30.51251666666667
 20
-9.909379166666668
 97
        0
 97
        0
 75
     2
 76
     1
 98
        0
  0
SPLINE
  5
4D
330
1F
100
AcDbEntity
  8
Layer 1
370
     0
100
AcDbSpline
210
0.0
220
0.0
230
1.0
 70
    11
 71
     3
 72
    68
 73
    64
 74
     0
 42
0.0000000001
 43
0.0000000001
 12
1.0
 22
0.0
 32
0.0
 13
1.0
 23
0.0
 33
0.0
 40
0.0
 40
0.0
 40
0.0
 40
0.0
 40
1.0
 40
1.0
 40
1.0
 40
2.0
 40
2.0
 40
2.0
 40
3.0
 40
3.0
 40
3.0
 40
4.0
 40
4.0
 40
4.0
 40
5.0
 40
5.0
 40
5.0
 40
6.0
 40
6.0
 40
6.0
 40
7.0
 40
7.0
 40
7.0
 40
8.0
 40
8.0
 40
8.0
 40
9.0
 40
9.0
 40
9.0
 40
10.0
 40
10.0
 40
10.0
 40
11.0
 40
11.0
 40
11.0
 40
12.0
 40
12.0
 40
12.0
 40
13.0
 40
13.0
 40
13.0
 40
14.0
 40
14.0
 40
14.0
 40
15.0
 40
15.0
 40
15.0
 40
16.0
 40
16.0
 40
16.0
 40
17.0
 40
17.0
 40
17.0
 40
18.0
 40
18.0
 40
18.0
 40
19.0
 40
19.0
 40
19.0
 40
20.0
 40
20.0
 40
20.0
 40
21.0
 40
21.0
 40
21.0
 40
21.0
 10
29.87976666666667
 20
-9.509127777777772
 30
0.0
 10
29.88494305555556
 20
-9.528711111111104
 30
0.0
 10
29.90090833333334
 20
-9.54231944444445
 30
0.0
 10
29.92282638888889
 20
-9.544783333333346
 30
0.0
 10
29.92301666666668
 20
-9.544788888888888
 30
0.0
 10
29.92321388888889
 20
-9.544797222222213
 30
0.0
 10
29.92339027777777
 20
-9.544812500000008
 30
0.0
 10
29.93659722222221
 20
-9.545516666666673
 30
0.0
 10
29.94467361111111
 20
-9.542748611111113
 30
0.0
 10
29.95860277777778
 20
-9.535923611111103
 30
0.0
 10
30.01175416666667
 20
-9.509977777777774
 30
0.0
 10
30.06361805555555
 20
-9.493615277777785
 30
0.0
 10
30.11713888888889
 20
-9.485866666666677
 30
0.0
 10
30.13076111111112
 20
-9.483905555555566
 30
0.0
 10
30.14440138888888
 20
-9.482048611111116
 30
0.0
 10
30.15805138888888
 20
-9.48022222222221
 30
0.0
 10
30.18521527777778
 20
-9.476568055555566
 30
0.0
 10
30.21238888888888
 20
-9.47290277777779
 30
0.0
 10
30.23938472222222
 20
-9.468202777777782
 30
0.0
 10
30.36229861111111
 20
-9.44677499999999
 30
0.0
 10
30.446975
 20
-9.390029166666661
 30
0.0
 10
30.49825555555556
 20
-9.29471805555555
 30
0.0
 10
30.49825555555556
 20
-9.29471805555555
 30
0.0
 10
30.51347777777778
 20
-9.266120833333337
 30
0.0
 10
30.51347777777778
 20
-9.266120833333337
 30
0.0
 10
30.54123055555556
 20
-9.213673611111112
 30
0.0
 10
30.56993472222221
 20
-9.159434722222233
 30
0.0
 10
30.60865833333333
 20
-9.114255555555548
 30
0.0
 10
30.61753611111112
 20
-9.103915277777787
 30
0.0
 10
30.62199444444445
 20
-9.091913888888888
 30
0.0
 10
30.62156944444445
 20
-9.079626388888881
 30
0.0
 10
30.62111250000001
 20
-9.066434722222235
 30
0.0
 10
30.61484305555556
 20
-9.05401666666666
 30
0.0
 10
30.60395694444443
 20
-9.044684722222225
 30
0.0
 10
30.58301944444444
 20
-9.026708333333342
 30
0.0
 10
30.5554875
 20
-9.028393055555549
 30
0.0
 10
30.53548333333333
 20
-9.048802777777786
 30
0.0
 10
30.52018611111112
 20
-9.064380555555545
 30
0.0
 10
30.50690972222221
 20
-9.081638888888897
 30
0.0
 10
30.49600555555556
 20
-9.100138888888901
 30
0.0
 10
30.4843625
 20
-9.119931944444437
 30
0.0
 10
30.47280000000001
 20
-9.13976250000001
 30
0.0
 10
30.46123194444445
 20
-9.15959305555556
 30
0.0
 10
30.44035972222222
 20
-9.195375000000013
 30
0.0
 10
30.41949861111112
 20
-9.231179166666656
 30
0.0
 10
30.39814583333333
 20
-9.26667638888888
 30
0.0
 10
30.37612638888888
 20
-9.303344444444443
 30
0.0
 10
30.35206111111112
 20
-9.326411111111105
 30
0.0
 10
30.32241805555556
 20
-9.339313888888883
 30
0.0
 10
30.28103055555556
 20
-9.357262500000008
 30
0.0
 10
30.24103888888889
 20
-9.368629166666677
 30
0.0
 10
30.20013472222222
 20
-9.37408750000001
 30
0.0
 10
30.20013472222222
 20
-9.37408750000001
 30
0.0
 10
30.17074444444444
 20
-9.377863888888896
 30
0.0
 10
30.17074444444444
 20
-9.377863888888896
 30
0.0
 10
30.11703194444445
 20
-9.384651388888894
 30
0.0
 10
30.0615
 20
-9.39167638888888
 30
0.0
 10
30.0075486111111
 20
-9.409122222222221
 30
0.0
 10
29.97055833333333
 20
-9.421086111111107
 30
0.0
 10
29.93759583333334
 20
-9.434736111111103
 30
0.0
 10
29.9067625
 20
-9.450827777777778
 30
0.0
 10
29.88343055555555
 20
-9.46302499999999
 30
0.0
 10
29.87333333333333
 20
-9.484825
 30
0.0
 10
29.87976666666667
 20
-9.509127777777772
 30
0.0
  0
HATCH
  5
4E
330
1F
100
AcDbEntity
  8
Layer 1
 62
    35
420
 10579544
100
AcDbHatch
 10
0.0
 20
0.0
 30
0.0
210
0.0
220
0.0
230
1.0
  2
SOLID
 70
     1
 71
     0
 91
        1
 92
        1
 93
        1
 72
     4
 94
        3
 73
     0
 74
     1
 95
       68
 96
       64
 40
0.0
 40
0.0
 40
0.0
 40
0.0
 40
1.0
 40
1.0
 40
1.0
 40
2.0
 40
2.0
 40
2.0
 40
3.0
 40
3.0
 40
3.0
 40
4.0
 40
4.0
 40
4.0
 40
5.0
 40
5.0
 40
5.0
 40
6.0
 40
6.0
 40
6.0
 40
7.0
 40
7.0
 40
7.0
 40
8.0
 40
8.0
 40
8.0
 40
9.0
 40
9.0
 40
9.0
 40
10.0
 40
10.0
 40
10.0
 40
11.0
 40
11.0
 40
11.0
 40
12.0
 40
12.0
 40
12.0
 40
13.0
 40
13.0
 40
13.0
 40
14.0
 40
14.0
 40
14.0
 40
15.0
 40
15.0
 40
15.0
 40
16.0
 40
16.0
 40
16.0
 40
17.0
 40
17.0
 40
17.0
 40
18.0
 40
18.0
 40
18.0
 40
19.0
 40
19.0
 40
19.0
 40
20.0
 40
20.0
 40
20.0
 40
21.0
 40
21.0
 40
21.0
 40
21.0
 10
29.87976666666667
 20
-9.509127777777772
 10
29.88494305555556
 20
-9.528711111111104
 10
29.90090833333334
 20
-9.54231944444445
 10
29.92282638888889
 20
-9.544783333333346
 10
29.92301666666668
 20
-9.544788888888888
 10
29.92321388888889
 20
-9.544797222222213
 10
29.92339027777777
 20
-9.544812500000008
 10
29.93659722222221
 20
-9.545516666666673
 10
29.94467361111111
 20
-9.542748611111113
 10
29.95860277777778
 20
-9.535923611111103
 10
30.01175416666667
 20
-9.509977777777774
 10
30.06361805555555
 20
-9.493615277777785
 10
30.11713888888889
 20
-9.485866666666677
 10
30.13076111111112
 20
-9.483905555555566
 10
30.14440138888888
 20
-9.482048611111116
 10
30.15805138888888
 20
-9.48022222222221
 10
30.18521527777778
 20
-9.476568055555566
 10
30.21238888888888
 20
-9.47290277777779
 10
30.23938472222222
 20
-9.468202777777782
 10
30.36229861111111
 20
-9.44677499999999
 10
30.446975
 20
-9.390029166666661
 10
30.49825555555556
 20
-9.29471805555555
 10
30.49825555555556
 20
-9.29471805555555
 10
30.51347777777778
 20
-9.266120833333337
 10
30.51347777777778
 20
-9.266120833333337
 10
30.54123055555556
 20
-9.213673611111112
 10
30.56993472222221
 20
-9.159434722222233
 10
30.60865833333333
 20
-9.114255555555548
 10
30.61753611111112
 20
-9.103915277777787
 10
30.62199444444445
 20
-9.091913888888888
 10
30.62156944444445
 20
-9.079626388888881
 10
30.62111250000001
 20
-9.066434722222235
 10
30.61484305555556
 20
-9.05401666666666
 10
30.60395694444443
 20
-9.044684722222225
 10
30.58301944444444
 20
-9.026708333333342
 10
30.5554875
 20
-9.028393055555549
 10
30.53548333333333
 20
-9.048802777777786
 10
30.52018611111112
 20
-9.064380555555545
 10
30.50690972222221
 20
-9.081638888888897
 10
30.49600555555556
 20
-9.100138888888901
 10
30.4843625
 20
-9.119931944444437
 10
30.47280000000001
 20
-9.13976250000001
 10
30.46123194444445
 20
-9.15959305555556
 10
30.44035972222222
 20
-9.195375000000013
 10
30.41949861111112
 20
-9.231179166666656
 10
30.39814583333333
 20
-9.26667638888888
 10
30.37612638888888
 20
-9.303344444444443
 10
30.35206111111112
 20
-9.326411111111105
 10
30.32241805555556
 20
-9.339313888888883
 10
30.28103055555556
 20
-9.357262500000008
 10
30.24103888888889
 20
-9.368629166666677
 10
30.20013472222222
 20
-9.37408750000001
 10
30.20013472222222
 20
-9.37408750000001
 10
30.17074444444444
 20
-9.377863888888896
 10
30.17074444444444
 20
-9.377863888888896
 10
30.11703194444445
 20
-9.384651388888894
 10
30.0615
 20
-9.39167638888888
 10
30.0075486111111
 20
-9.409122222222221
 10
29.97055833333333
 20
-9.421086111111107
 10
29.93759583333334
 20
-9.434736111111103
 10
29.9067625
 20
-9.450827777777778
 10
29.88343055555555
 20
-9.46302499999999
 10
29.87333333333333
 20
-9.484825
 10
29.87976666666667
 20
-9.509127777777772
 97
        0
 97
        0
 75
     2
 76
     1
 98
        0
  0
SPLINE
  5
4F
330
1F
100
AcDbEntity
  8
Layer 1
370
     0
100
AcDbSpline
210
0.0
220
0.0
230
1.0
 70
    11
 71
     3
 72
    35
 73
    31
 74
     0
 42
0.0000000001
 43
0.0000000001
 12
1.0
 22
0.0
 32
0.0
 13
1.0
 23
0.0
 33
0.0
 40
0.0
 40
0.0
 40
0.0
 40
0.0
 40
1.0
 40
1.0
 40
1.0
 40
2.0
 40
2.0
 40
2.0
 40
3.0
 40
3.0
 40
3.0
 40
4.0
 40
4.0
 40
4.0
 40
5.0
 40
5.0
 40
5.0
 40
6.0
 40
6.0
 40
6.0
 40
7.0
 40
7.0
 40
7.0
 40
8.0
 40
8.0
 40
8.0
 40
9.0
 40
9.0
 40
9.0
 40
10.0
 40
10.0
 40
10.0
 40
10.0
 10
32.74428055555556
 20
-3.270688888888887
 30
0.0
 10
32.74411666666666
 20
-3.258812500000001
 30
0.0
 10
32.74085416666667
 20
-3.247973611111117
 30
0.0
 10
32.73336111111111
 20
-3.238459722222223
 30
0.0
 10
32.72318055555554
 20
-3.225468055555552
 30
0.0
 10
32.70789166666665
 20
-3.219651388888893
 30
0.0
 10
32.69425138888889
 20
-3.218311111111107
 30
0.0
 10
32.67191388888889
 20
-3.216126388888887
 30
0.0
 10
32.64791527777778
 20
-3.235284722222218
 30
0.0
 10
32.63848055555556
 20
-3.247113888888887
 30
0.0
 10
32.38130000000001
 20
-3.569569444444444
 30
0.0
 10
31.90215694444444
 20
-4.184183333333332
 30
0.0
 10
31.65896805555556
 20
-4.498283333333334
 30
0.0
 10
31.64670972222221
 20
-4.514112499999997
 30
0.0
 10
31.64187777777778
 20
-4.531954166666663
 30
0.0
 10
31.64526249999999
 20
-4.548429166666665
 30
0.0
 10
31.64820277777777
 20
-4.562727777777783
 30
0.0
 10
31.6571986111111
 20
-4.574701388888886
 30
0.0
 10
31.67061944444443
 20
-4.582179166666669
 30
0.0
 10
31.67863472222221
 20
-4.586637500000001
 30
0.0
 10
31.68704305555555
 20
-4.588827777777775
 30
0.0
 10
31.69544583333335
 20
-4.588827777777775
 30
0.0
 10
31.71256388888888
 20
-4.588818055555558
 30
0.0
 10
31.72990138888889
 20
-4.579943055555557
 30
0.0
 10
31.74356527777778
 20
-4.562530555555554
 30
0.0
 10
31.98900416666667
 20
-4.249725
 30
0.0
 10
32.72689166666666
 20
-3.313225000000001
 30
0.0
 10
32.72689166666666
 20
-3.313225000000001
 30
0.0
 10
32.73574722222222
 20
-3.301998611111117
 30
0.0
 10
32.74452361111111
 20
-3.288493055555553
 30
0.0
 10
32.74428055555556
 20
-3.270688888888887
 30
0.0
  0
HATCH
  5
50
330
1F
100
AcDbEntity
  8
Layer 1
 62
    35
420
 10579544
100
AcDbHatch
 10
0.0
 20
0.0
 30
0.0
210
0.0
220
0.0
230
1.0
  2
SOLID
 70
     1
 71
     0
 91
        1
 92
        1
 93
        1
 72
     4
 94
        3
 73
     0
 74
     1
 95
       35
 96
       31
 40
0.0
 40
0.0
 40
0.0
 40
0.0
 40
1.0
 40
1.0
 40
1.0
 40
2.0
 40
2.0
 40
2.0
 40
3.0
 40
3.0
 40
3.0
 40
4.0
 40
4.0
 40
4.0
 40
5.0
 40
5.0
 40
5.0
 40
6.0
 40
6.0
 40
6.0
 40
7.0
 40
7.0
 40
7.0
 40
8.0
 40
8.0
 40
8.0
 40
9.0
 40
9.0
 40
9.0
 40
10.0
 40
10.0
 40
10.0
 40
10.0
 10
32.74428055555556
 20
-3.270688888888887
 10
32.74411666666666
 20
-3.258812500000001
 10
32.74085416666667
 20
-3.247973611111117
 10
32.73336111111111
 20
-3.238459722222223
 10
32.72318055555554
 20
-3.225468055555552
 10
32.70789166666665
 20
-3.219651388888893
 10
32.69425138888889
 20
-3.218311111111107
 10
32.67191388888889
 20
-3.216126388888887
 10
32.64791527777778
 20
-3.235284722222218
 10
32.63848055555556
 20
-3.247113888888887
 10
32.38130000000001
 20
-3.569569444444444
 10
31.90215694444444
 20
-4.184183333333332
 10
31.65896805555556
 20
-4.498283333333334
 10
31.64670972222221
 20
-4.514112499999997
 10
31.64187777777778
 20
-4.531954166666663
 10
31.64526249999999
 20
-4.548429166666665
 10
31.64820277777777
 20
-4.562727777777783
 10
31.6571986111111
 20
-4.574701388888886
 10
31.67061944444443
 20
-4.582179166666669
 10
31.67863472222221
 20
-4.586637500000001
 10
31.68704305555555
 20
-4.588827777777775
 10
31.69544583333335
 20
-4.588827777777775
 10
31.71256388888888
 20
-4.588818055555558
 10
31.72990138888889
 20
-4.579943055555557
 10
31.74356527777778
 20
-4.562530555555554
 10
31.98900416666667
 20
-4.249725
 10
32.72689166666666
 20
-3.313225000000001
 10
32.72689166666666
 20
-3.313225000000001
 10
32.73574722222222
 20
-3.301998611111117
 10
32.74452361111111
 20
-3.288493055555553
 10
32.74428055555556
 20
-3.270688888888887
 97
        0
 97
        0
 75
     2
 76
     1
 98
        0
  0
SPLINE
  5
51
330
1F
100
AcDbEntity
  8
Layer 1
370
     0
100
AcDbSpline
210
0.0
220
0.0
230
1.0
 70
    11
 71
     3
 72
    29
 73
    25
 74
     0
 42
0.0000000001
 43
0.0000000001
 12
1.0
 22
0.0
 32
0.0
 13
1.0
 23
0.0
 33
0.0
 40
0.0
 40
0.0
 40
0.0
 40
0.0
 40
1.0
 40
1.0
 40
1.0
 40
2.0
 40
2.0
 40
2.0
 40
3.0
 40
3.0
 40
3.0
 40
4.0
 40
4.0
 40
4.0
 40
5.0
 40
5.0
 40
5.0
 40
6.0
 40
6.0
 40
6.0
 40
7.0
 40
7.0
 40
7.0
 40
8.0
 40
8.0
 40
8.0
 40
8.0
 10
32.08709722222223
 20
-5.045063888888889
 30
0.0
 10
32.06900277777777
 20
-5.059105555555561
 30
0.0
 10
32.065325
 20
-5.080727777777775
 30
0.0
 10
32.07263472222222
 20
-5.101133333333337
 30
0.0
 10
32.08030555555554
 20
-5.122597222222225
 30
0.0
 10
32.09768055555555
 20
-5.134556944444449
 30
0.0
 10
32.12428333333335
 20
-5.136672222222223
 30
0.0
 10
32.12502083333334
 20
-5.136727777777777
 30
0.0
 10
32.12779027777778
 20
-5.136363888888885
 30
0.0
 10
32.12848194444445
 20
-5.136102777777776
 30
0.0
 10
32.51962916666667
 20
-4.987822222222221
 30
0.0
 10
33.25249166666668
 20
-4.712301388888894
 30
0.0
 10
33.62664722222222
 20
-4.571166666666664
 30
0.0
 10
33.65507361111112
 20
-4.560444444444443
 30
0.0
 10
33.66579583333333
 20
-4.529970833333335
 30
0.0
 10
33.65541805555555
 20
-4.503325000000005
 30
0.0
 10
33.6453388888889
 20
-4.477452777777772
 30
0.0
 10
33.61700277777777
 20
-4.461493055555555
 30
0.0
 10
33.58758888888888
 20
-4.472645833333331
 30
0.0
 10
33.204625
 20
-4.617868055555555
 30
0.0
 10
32.47181249999999
 20
-4.89550416666667
 30
0.0
 10
32.09148055555556
 20
-5.042300000000005
 30
0.0
 10
32.09027083333333
 20
-5.042766666666668
 30
0.0
 10
32.08811944444444
 20
-5.044265277777779
 30
0.0
 10
32.08709722222223
 20
-5.045063888888889
 30
0.0
  0
HATCH
  5
52
330
1F
100
AcDbEntity
  8
Layer 1
 62
    35
420
 10579544
100
AcDbHatch
 10
0.0
 20
0.0
 30
0.0
210
0.0
220
0.0
230
1.0
  2
SOLID
 70
     1
 71
     0
 91
        1
 92
        1
 93
        1
 72
     4
 94
        3
 73
     0
 74
     1
 95
       29
 96
       25
 40
0.0
 40
0.0
 40
0.0
 40
0.0
 40
1.0
 40
1.0
 40
1.0
 40
2.0
 40
2.0
 40
2.0
 40
3.0
 40
3.0
 40
3.0
 40
4.0
 40
4.0
 40
4.0
 40
5.0
 40
5.0
 40
5.0
 40
6.0
 40
6.0
 40
6.0
 40
7.0
 40
7.0
 40
7.0
 40
8.0
 40
8.0
 40
8.0
 40
8.0
 10
32.08709722222223
 20
-5.045063888888889
 10
32.06900277777777
 20
-5.059105555555561
 10
32.065325
 20
-5.080727777777775
 10
32.07263472222222
 20
-5.101133333333337
 10
32.08030555555554
 20
-5.122597222222225
 10
32.09768055555555
 20
-5.134556944444449
 10
32.12428333333335
 20
-5.136672222222223
 10
32.12502083333334
 20
-5.136727777777777
 10
32.12779027777778
 20
-5.136363888888885
 10
32.12848194444445
 20
-5.136102777777776
 10
32.51962916666667
 20
-4.987822222222221
 10
33.25249166666668
 20
-4.712301388888894
 10
33.62664722222222
 20
-4.571166666666664
 10
33.65507361111112
 20
-4.560444444444443
 10
33.66579583333333
 20
-4.529970833333335
 10
33.65541805555555
 20
-4.503325000000005
 10
33.6453388888889
 20
-4.477452777777772
 10
33.61700277777777
 20
-4.461493055555555
 10
33.58758888888888
 20
-4.472645833333331
 10
33.204625
 20
-4.617868055555555
 10
32.47181249999999
 20
-4.89550416666667
 10
32.09148055555556
 20
-5.042300000000005
 10
32.09027083333333
 20
-5.042766666666668
 10
32.08811944444444
 20
-5.044265277777779
 10
32.08709722222223
 20
-5.045063888888889
 97
        0
 97
        0
 75
     2
 76
     1
 98
        0
  0
SPLINE
  5
53
330
1F
100
AcDbEntity
  8
Layer 1
370
     0
100
AcDbSpline
210
0.0
220
0.0
230
1.0
 70
    11
 71
     3
 72
    29
 73
    25
 74
     0
 42
0.0000000001
 43
0.0000000001
 12
1.0
 22
0.0
 32
0.0
 13
1.0
 23
0.0
 33
0.0
 40
0.0
 40
0.0
 40
0.0
 40
0.0
 40
1.0
 40
1.0
 40
1.0
 40
2.0
 40
2.0
 40
2.0
 40
3.0
 40
3.0
 40
3.0
 40
4.0
 40
4.0
 40
4.0
 40
5.0
 40
5.0
 40
5.0
 40
6.0
 40
6.0
 40
6.0
 40
7.0
 40
7.0
 40
7.0
 40
8.0
 40
8.0
 40
8.0
 40
8.0
 10
31.31647638888888
 20
-2.610634722222219
 30
0.0
 10
31.28841666666666
 20
-2.606848611111117
 30
0.0
 10
31.26177499999999
 20
-2.623533333333335
 30
0.0
 10
31.25695277777777
 20
-2.653418055555549
 30
0.0
 10
31.19418472222221
 20
-3.042156944444438
 30
0.0
 10
31.07390833333334
 20
-3.781968055555555
 30
0.0
 10
31.01900555555554
 20
-4.159077777777775
 30
0.0
 10
31.0151361111111
 20
-4.185654166666672
 30
0.0
 10
31.02735694444444
 20
-4.206609722222222
 30
0.0
 10
31.05163194444445
 20
-4.216431944444442
 30
0.0
 10
31.0584513888889
 20
-4.219200000000001
 30
0.0
 10
31.06595833333333
 20
-4.219508333333339
 30
0.0
 10
31.07249444444445
 20
-4.219508333333339
 30
0.0
 10
31.08677500000001
 20
-4.219508333333339
 30
0.0
 10
31.09935416666667
 20
-4.21404583333333
 30
0.0
 10
31.11046527777777
 20
-4.201334722222226
 30
0.0
 10
31.11971666666667
 20
-4.190751388888884
 30
0.0
 10
31.12269583333333
 20
-4.178273611111106
 30
0.0
 10
31.12454027777777
 20
-4.166412500000003
 30
0.0
 10
31.12454027777777
 20
-4.166412500000003
 30
0.0
 10
31.30079583333334
 20
-3.054341666666662
 30
0.0
 10
31.36162222222222
 20
-2.671670833333337
 30
0.0
 10
31.36694027777778
 20
-2.638209722222225
 30
0.0
 10
31.34495277777778
 20
-2.614415277777779
 30
0.0
 10
31.31647638888888
 20
-2.610634722222219
 30
0.0
  0
HATCH
  5
54
330
1F
100
AcDbEntity
  8
Layer 1
 62
    35
420
 10579544
100
AcDbHatch
 10
0.0
 20
0.0
 30
0.0
210
0.0
220
0.0
230
1.0
  2
SOLID
 70
     1
 71
     0
 91
        1
 92
        1
 93
        1
 72
     4
 94
        3
 73
     0
 74
     1
 95
       29
 96
       25
 40
0.0
 40
0.0
 40
0.0
 40
0.0
 40
1.0
 40
1.0
 40
1.0
 40
2.0
 40
2.0
 40
2.0
 40
3.0
 40
3.0
 40
3.0
 40
4.0
 40
4.0
 40
4.0
 40
5.0
 40
5.0
 40
5.0
 40
6.0
 40
6.0
 40
6.0
 40
7.0
 40
7.0
 40
7.0
 40
8.0
 40
8.0
 40
8.0
 40
8.0
 10
31.31647638888888
 20
-2.610634722222219
 10
31.28841666666666
 20
-2.606848611111117
 10
31.26177499999999
 20
-2.623533333333335
 10
31.25695277777777
 20
-2.653418055555549
 10
31.19418472222221
 20
-3.042156944444438
 10
31.07390833333334
 20
-3.781968055555555
 10
31.01900555555554
 20
-4.159077777777775
 10
31.0151361111111
 20
-4.185654166666672
 10
31.02735694444444
 20
-4.206609722222222
 10
31.05163194444445
 20
-4.216431944444442
 10
31.0584513888889
 20
-4.219200000000001
 10
31.06595833333333
 20
-4.219508333333339
 10
31.07249444444445
 20
-4.219508333333339
 10
31.08677500000001
 20
-4.219508333333339
 10
31.09935416666667
 20
-4.21404583333333
 10
31.11046527777777
 20
-4.201334722222226
 10
31.11971666666667
 20
-4.190751388888884
 10
31.12269583333333
 20
-4.178273611111106
 10
31.12454027777777
 20
-4.166412500000003
 10
31.12454027777777
 20
-4.166412500000003
 10
31.30079583333334
 20
-3.054341666666662
 10
31.36162222222222
 20
-2.671670833333337
 10
31.36694027777778
 20
-2.638209722222225
 10
31.34495277777778
 20
-2.614415277777779
 10
31.31647638888888
 20
-2.610634722222219
 97
        0
 97
        0
 75
     2
 76
     1
 98
        0
  0
SPLINE
  5
55
330
1F
100
AcDbEntity
  8
Layer 1
370
     0
100
AcDbSpline
210
0.0
220
0.0
230
1.0
 70
    11
 71
     3
 72
    32
 73
    28
 74
     0
 42
0.0000000001
 43
0.0000000001
 12
1.0
 22
0.0
 32
0.0
 13
1.0
 23
0.0
 33
0.0
 40
0.0
 40
0.0
 40
0.0
 40
0.0
 40
1.0
 40
1.0
 40
1.0
 40
2.0
 40
2.0
 40
2.0
 40
3.0
 40
3.0
 40
3.0
 40
4.0
 40
4.0
 40
4.0
 40
5.0
 40
5.0
 40
5.0
 40
6.0
 40
6.0
 40
6.0
 40
7.0
 40
7.0
 40
7.0
 40
8.0
 40
8.0
 40
8.0
 40
9.0
 40
9.0
 40
9.0
 40
9.0
 10
30.18964166666666
 20
-4.15214583333333
 30
0.0
 10
30.19819722222222
 20
-4.176705555555549
 30
0.0
 10
30.21799027777778
 20
-4.191247222222223
 30
0.0
 10
30.24040277777778
 20
-4.191247222222223
 30
0.0
 10
30.2455375
 20
-4.191247222222223
 30
0.0
 10
30.25080833333332
 20
-4.190486111111113
 30
0.0
 10
30.25611666666666
 20
-4.188912500000002
 30
0.0
 10
30.28364027777777
 20
-4.180725000000002
 30
0.0
 10
30.30074444444444
 20
-4.152883333333332
 30
0.0
 10
30.29046944444445
 20
-4.120438888888884
 30
0.0
 10
30.1802625
 20
-3.772355555555552
 30
0.0
 10
29.95801527777778
 20
-3.076380555555551
 30
0.0
 10
29.84669166666666
 20
-2.728525000000003
 30
0.0
 10
29.83802777777777
 20
-2.701449999999997
 30
0.0
 10
29.82084444444445
 20
-2.686618055555553
 30
0.0
 10
29.79500138888889
 20
-2.684401388888887
 30
0.0
 10
29.77810277777778
 20
-2.68379444444444
 30
0.0
 10
29.76276250000001
 20
-2.690819444444438
 30
0.0
 10
29.75294166666666
 20
-2.703700000000001
 30
0.0
 10
29.74155555555555
 20
-2.7186375
 30
0.0
 10
29.73875972222222
 20
-2.739136111111116
 30
0.0
 10
29.74532361111111
 20
-2.760016666666666
 30
0.0
 10
29.85481527777779
 20
-3.108445833333336
 30
0.0
 10
30.07444861111111
 20
-3.805140277777784
 30
0.0
 10
30.18951527777777
 20
-4.151772222222222
 30
0.0
 10
30.18954861111111
 20
-4.15187083333333
 30
0.0
 10
30.1896125
 20
-4.152052777777777
 30
0.0
 10
30.18964166666666
 20
-4.15214583333333
 30
0.0
  0
HATCH
  5
56
330
1F
100
AcDbEntity
  8
Layer 1
 62
    35
420
 10579544
100
AcDbHatch
 10
0.0
 20
0.0
 30
0.0
210
0.0
220
0.0
230
1.0
  2
SOLID
 70
     1
 71
     0
 91
        1
 92
        1
 93
        1
 72
     4
 94
        3
 73
     0
 74
     1
 95
       32
 96
       28
 40
0.0
 40
0.0
 40
0.0
 40
0.0
 40
1.0
 40
1.0
 40
1.0
 40
2.0
 40
2.0
 40
2.0
 40
3.0
 40
3.0
 40
3.0
 40
4.0
 40
4.0
 40
4.0
 40
5.0
 40
5.0
 40
5.0
 40
6.0
 40
6.0
 40
6.0
 40
7.0
 40
7.0
 40
7.0
 40
8.0
 40
8.0
 40
8.0
 40
9.0
 40
9.0
 40
9.0
 40
9.0
 10
30.18964166666666
 20
-4.15214583333333
 10
30.19819722222222
 20
-4.176705555555549
 10
30.21799027777778
 20
-4.191247222222223
 10
30.24040277777778
 20
-4.191247222222223
 10
30.2455375
 20
-4.191247222222223
 10
30.25080833333332
 20
-4.190486111111113
 10
30.25611666666666
 20
-4.188912500000002
 10
30.28364027777777
 20
-4.180725000000002
 10
30.30074444444444
 20
-4.152883333333332
 10
30.29046944444445
 20
-4.120438888888884
 10
30.1802625
 20
-3.772355555555552
 10
29.95801527777778
 20
-3.076380555555551
 10
29.84669166666666
 20
-2.728525000000003
 10
29.83802777777777
 20
-2.701449999999997
 10
29.82084444444445
 20
-2.686618055555553
 10
29.79500138888889
 20
-2.684401388888887
 10
29.77810277777778
 20
-2.68379444444444
 10
29.76276250000001
 20
-2.690819444444438
 10
29.75294166666666
 20
-2.703700000000001
 10
29.74155555555555
 20
-2.7186375
 10
29.73875972222222
 20
-2.739136111111116
 10
29.74532361111111
 20
-2.760016666666666
 10
29.85481527777779
 20
-3.108445833333336
 10
30.07444861111111
 20
-3.805140277777784
 10
30.18951527777777
 20
-4.151772222222222
 10
30.18954861111111
 20
-4.15187083333333
 10
30.1896125
 20
-4.152052777777777
 10
30.18964166666666
 20
-4.15214583333333
 97
        0
 97
        0
 75
     2
 76
     1
 98
        0
  0
SPLINE
  5
57
330
1F
100
AcDbEntity
  8
Layer 1
370
     0
100
AcDbSpline
210
0.0
220
0.0
230
1.0
 70
    11
 71
     3
 72
    35
 73
    31
 74
     0
 42
0.0000000001
 43
0.0000000001
 12
1.0
 22
0.0
 32
0.0
 13
1.0
 23
0.0
 33
0.0
 40
0.0
 40
0.0
 40
0.0
 40
0.0
 40
1.0
 40
1.0
 40
1.0
 40
2.0
 40
2.0
 40
2.0
 40
3.0
 40
3.0
 40
3.0
 40
4.0
 40
4.0
 40
4.0
 40
5.0
 40
5.0
 40
5.0
 40
6.0
 40
6.0
 40
6.0
 40
7.0
 40
7.0
 40
7.0
 40
8.0
 40
8.0
 40
8.0
 40
9.0
 40
9.0
 40
9.0
 40
10.0
 40
10.0
 40
10.0
 40
10.0
 10
30.68443194444444
 20
-3.582047222222223
 30
0.0
 10
30.68448750000001
 20
-3.564023611111111
 30
0.0
 10
30.67733194444445
 20
-3.548362500000002
 30
0.0
 10
30.6661
 20
-3.537943055555552
 30
0.0
 10
30.65600277777778
 20
-3.528569444444441
 30
0.0
 10
30.64294583333334
 20
-3.523961111111109
 30
0.0
 10
30.62843749999999
 20
-3.524554166666664
 30
0.0
 10
30.59739861111111
 20
-3.525815277777774
 30
0.0
 10
30.57591527777778
 20
-3.551929166666671
 30
0.0
 10
30.57714305555555
 20
-3.586529166666663
 30
0.0
 10
30.5814
 20
-3.706534722222222
 30
0.0
 10
30.58893055555556
 20
-3.946581944444448
 30
0.0
 10
30.59282777777778
 20
-4.066601388888886
 30
0.0
 10
30.5934861111111
 20
-4.086791666666664
 30
0.0
 10
30.60005833333333
 20
-4.103200000000003
 30
0.0
 10
30.61180416666667
 20
-4.114052777777778
 30
0.0
 10
30.62051944444445
 20
-4.122105555555562
 30
0.0
 10
30.63154583333333
 20
-4.12653611111111
 30
0.0
 10
30.64389722222222
 20
-4.127016666666665
 30
0.0
 10
30.64555555555555
 20
-4.127081944444449
 30
0.0
 10
30.64723611111112
 20
-4.127081944444449
 30
0.0
 10
30.64894444444445
 20
-4.126993055555557
 30
0.0
 10
30.6793625
 20
-4.125612500000001
 30
0.0
 10
30.7009111111111
 20
-4.101361111111108
 30
0.0
 10
30.69979444444445
 20
-4.064691666666666
 30
0.0
 10
30.69612083333332
 20
-3.94420138888889
 30
0.0
 10
30.68399722222222
 20
-3.702790277777783
 30
0.0
 10
30.68443194444444
 20
-3.582076388888885
 30
0.0
 10
30.68443194444444
 20
-3.582070833333331
 30
0.0
 10
30.68443194444444
 20
-3.582056944444439
 30
0.0
 10
30.68443194444444
 20
-3.582047222222223
 30
0.0
  0
HATCH
  5
58
330
1F
100
AcDbEntity
  8
Layer 1
 62
    35
420
 10579544
100
AcDbHatch
 10
0.0
 20
0.0
 30
0.0
210
0.0
220
0.0
230
1.0
  2
SOLID
 70
     1
 71
     0
 91
        1
 92
        1
 93
        1
 72
     4
 94
        3
 73
     0
 74
     1
 95
       35
 96
       31
 40
0.0
 40
0.0
 40
0.0
 40
0.0
 40
1.0
 40
1.0
 40
1.0
 40
2.0
 40
2.0
 40
2.0
 40
3.0
 40
3.0
 40
3.0
 40
4.0
 40
4.0
 40
4.0
 40
5.0
 40
5.0
 40
5.0
 40
6.0
 40
6.0
 40
6.0
 40
7.0
 40
7.0
 40
7.0
 40
8.0
 40
8.0
 40
8.0
 40
9.0
 40
9.0
 40
9.0
 40
10.0
 40
10.0
 40
10.0
 40
10.0
 10
30.68443194444444
 20
-3.582047222222223
 10
30.68448750000001
 20
-3.564023611111111
 10
30.67733194444445
 20
-3.548362500000002
 10
30.6661
 20
-3.537943055555552
 10
30.65600277777778
 20
-3.528569444444441
 10
30.64294583333334
 20
-3.523961111111109
 10
30.62843749999999
 20
-3.524554166666664
 10
30.59739861111111
 20
-3.525815277777774
 10
30.57591527777778
 20
-3.551929166666671
 10
30.57714305555555
 20
-3.586529166666663
 10
30.5814
 20
-3.706534722222222
 10
30.58893055555556
 20
-3.946581944444448
 10
30.59282777777778
 20
-4.066601388888886
 10
30.5934861111111
 20
-4.086791666666664
 10
30.60005833333333
 20
-4.103200000000003
 10
30.61180416666667
 20
-4.114052777777778
 10
30.62051944444445
 20
-4.122105555555562
 10
30.63154583333333
 20
-4.12653611111111
 10
30.64389722222222
 20
-4.127016666666665
 10
30.64555555555555
 20
-4.127081944444449
 10
30.64723611111112
 20
-4.127081944444449
 10
30.64894444444445
 20
-4.126993055555557
 10
30.6793625
 20
-4.125612500000001
 10
30.7009111111111
 20
-4.101361111111108
 10
30.69979444444445
 20
-4.064691666666666
 10
30.69612083333332
 20
-3.94420138888889
 10
30.68399722222222
 20
-3.702790277777783
 10
30.68443194444444
 20
-3.582076388888885
 10
30.68443194444444
 20
-3.582070833333331
 10
30.68443194444444
 20
-3.582056944444439
 10
30.68443194444444
 20
-3.582047222222223
 97
        0
 97
        0
 75
     2
 76
     1
 98
        0
  0
SPLINE
  5
59
330
1F
100
AcDbEntity
  8
Layer 1
370
     0
100
AcDbSpline
210
0.0
220
0.0
230
1.0
 70
    11
 71
     3
 72
    26
 73
    22
 74
     0
 42
0.0000000001
 43
0.0000000001
 12
1.0
 22
0.0
 32
0.0
 13
1.0
 23
0.0
 33
0.0
 40
0.0
 40
0.0
 40
0.0
 40
0.0
 40
1.0
 40
1.0
 40
1.0
 40
2.0
 40
2.0
 40
2.0
 40
3.0
 40
3.0
 40
3.0
 40
4.0
 40
4.0
 40
4.0
 40
5.0
 40
5.0
 40
5.0
 40
6.0
 40
6.0
 40
6.0
 40
7.0
 40
7.0
 40
7.0
 40
7.0
 10
30.61771805555555
 20
-3.341962499999997
 30
0.0
 10
30.61908194444445
 20
-3.34202777777778
 30
0.0
 10
30.62046388888888
 20
-3.342055555555551
 30
0.0
 10
30.62185972222222
 20
-3.342037499999997
 30
0.0
 10
30.65235277777778
 20
-3.341551388888888
 30
0.0
 10
30.67403611111111
 20
-3.319186111111106
 30
0.0
 10
30.67373333333333
 20
-3.285758333333332
 30
0.0
 10
30.67323333333333
 20
-3.23031805555556
 30
0.0
 10
30.66818194444444
 20
-3.12179166666667
 30
0.0
 10
30.66689861111111
 20
-3.064102777777773
 30
0.0
 10
30.66623472222222
 20
-3.034347222222221
 30
0.0
 10
30.63985555555556
 20
-3.014265277777781
 30
0.0
 10
30.61121527777777
 20
-3.015730555555554
 30
0.0
 10
30.58460277777778
 20
-3.017088888888894
 30
0.0
 10
30.56000138888889
 20
-3.037144444444443
 30
0.0
 10
30.56096250000001
 20
-3.067883333333334
 30
0.0
 10
30.56276944444445
 20
-3.125381944444446
 30
0.0
 10
30.5653
 20
-3.22968333333333
 30
0.0
 10
30.56714305555556
 20
-3.283605555555558
 30
0.0
 10
30.56831527777778
 20
-3.318015277777779
 30
0.0
 10
30.58822083333333
 20
-3.340497222222224
 30
0.0
 10
30.61771805555555
 20
-3.341962499999997
 30
0.0
  0
HATCH
  5
5A
330
1F
100
AcDbEntity
  8
Layer 1
 62
    35
420
 10579544
100
AcDbHatch
 10
0.0
 20
0.0
 30
0.0
210
0.0
220
0.0
230
1.0
  2
SOLID
 70
     1
 71
     0
 91
        1
 92
        1
 93
        1
 72
     4
 94
        3
 73
     0
 74
     1
 95
       26
 96
       22
 40
0.0
 40
0.0
 40
0.0
 40
0.0
 40
1.0
 40
1.0
 40
1.0
 40
2.0
 40
2.0
 40
2.0
 40
3.0
 40
3.0
 40
3.0
 40
4.0
 40
4.0
 40
4.0
 40
5.0
 40
5.0
 40
5.0
 40
6.0
 40
6.0
 40
6.0
 40
7.0
 40
7.0
 40
7.0
 40
7.0
 10
30.61771805555555
 20
-3.341962499999997
 10
30.61908194444445
 20
-3.34202777777778
 10
30.62046388888888
 20
-3.342055555555551
 10
30.62185972222222
 20
-3.342037499999997
 10
30.65235277777778
 20
-3.341551388888888
 10
30.67403611111111
 20
-3.319186111111106
 10
30.67373333333333
 20
-3.285758333333332
 10
30.67323333333333
 20
-3.23031805555556
 10
30.66818194444444
 20
-3.12179166666667
 10
30.66689861111111
 20
-3.064102777777773
 10
30.66623472222222
 20
-3.034347222222221
 10
30.63985555555556
 20
-3.014265277777781
 10
30.61121527777777
 20
-3.015730555555554
 10
30.58460277777778
 20
-3.017088888888894
 10
30.56000138888889
 20
-3.037144444444443
 10
30.56096250000001
 20
-3.067883333333334
 10
30.56276944444445
 20
-3.125381944444446
 10
30.5653
 20
-3.22968333333333
 10
30.56714305555556
 20
-3.283605555555558
 10
30.56831527777778
 20
-3.318015277777779
 10
30.58822083333333
 20
-3.340497222222224
 10
30.61771805555555
 20
-3.341962499999997
 97
        0
 97
        0
 75
     2
 76
     1
 98
        0
  0
SPLINE
  5
5B
330
1F
100
AcDbEntity
  8
Layer 1
370
     0
100
AcDbSpline
210
0.0
220
0.0
230
1.0
 70
    11
 71
     3
 72
    32
 73
    28
 74
     0
 42
0.0000000001
 43
0.0000000001
 12
1.0
 22
0.0
 32
0.0
 13
1.0
 23
0.0
 33
0.0
 40
0.0
 40
0.0
 40
0.0
 40
0.0
 40
1.0
 40
1.0
 40
1.0
 40
2.0
 40
2.0
 40
2.0
 40
3.0
 40
3.0
 40
3.0
 40
4.0
 40
4.0
 40
4.0
 40
5.0
 40
5.0
 40
5.0
 40
6.0
 40
6.0
 40
6.0
 40
7.0
 40
7.0
 40
7.0
 40
8.0
 40
8.0
 40
8.0
 40
9.0
 40
9.0
 40
9.0
 40
9.0
 10
31.67812222222222
 20
-3.826445833333334
 30
0.0
 10
31.67348194444445
 20
-3.813491666666664
 30
0.0
 10
31.66404722222223
 20
-3.803384722222227
 30
0.0
 10
31.6508361111111
 20
-3.797223611111109
 30
0.0
 10
31.62270555555556
 20
-3.784087500000004
 30
0.0
 10
31.5916111111111
 20
-3.797354166666663
 30
0.0
 10
31.576775
 20
-3.828650000000001
 30
0.0
 10
31.52534583333333
 20
-3.937156944444445
 30
0.0
 10
31.4216
 20
-4.153756944444441
 30
0.0
 10
31.36983472222222
 20
-4.262105555555561
 30
0.0
 10
31.36111805555555
 20
-4.28033888888889
 30
0.0
 10
31.35940555555554
 20
-4.297929166666664
 30
0.0
 10
31.36484444444444
 20
-4.312975000000001
 30
0.0
 10
31.36941944444445
 20
-4.325629166666671
 30
0.0
 10
31.37875555555555
 20
-4.335502777777783
 30
0.0
 10
31.39185
 20
-4.34155277777778
 30
0.0
 10
31.39908055555555
 20
-4.344876388888894
 30
0.0
 10
31.40639027777777
 20
-4.346501388888884
 30
0.0
 10
31.41354305555556
 20
-4.346501388888884
 30
0.0
 10
31.43380833333334
 20
-4.346501388888884
 30
0.0
 10
31.45373611111111
 20
-4.33395277777778
 30
0.0
 10
31.46567222222221
 20
-4.309618055555549
 30
0.0
 10
31.51825555555554
 20
-4.202418055555553
 30
0.0
 10
31.62204305555555
 20
-3.982966666666673
 30
0.0
 10
31.67410277777779
 20
-3.874052777777782
 30
0.0
 10
31.68187916666668
 20
-3.857774999999997
 30
0.0
 10
31.68328888888888
 20
-3.840856944444441
 30
0.0
 10
31.67812222222222
 20
-3.826445833333334
 30
0.0
  0
HATCH
  5
5C
330
1F
100
AcDbEntity
  8
Layer 1
 62
    35
420
 10579544
100
AcDbHatch
 10
0.0
 20
0.0
 30
0.0
210
0.0
220
0.0
230
1.0
  2
SOLID
 70
     1
 71
     0
 91
        1
 92
        1
 93
        1
 72
     4
 94
        3
 73
     0
 74
     1
 95
       32
 96
       28
 40
0.0
 40
0.0
 40
0.0
 40
0.0
 40
1.0
 40
1.0
 40
1.0
 40
2.0
 40
2.0
 40
2.0
 40
3.0
 40
3.0
 40
3.0
 40
4.0
 40
4.0
 40
4.0
 40
5.0
 40
5.0
 40
5.0
 40
6.0
 40
6.0
 40
6.0
 40
7.0
 40
7.0
 40
7.0
 40
8.0
 40
8.0
 40
8.0
 40
9.0
 40
9.0
 40
9.0
 40
9.0
 10
31.67812222222222
 20
-3.826445833333334
 10
31.67348194444445
 20
-3.813491666666664
 10
31.66404722222223
 20
-3.803384722222227
 10
31.6508361111111
 20
-3.797223611111109
 10
31.62270555555556
 20
-3.784087500000004
 10
31.5916111111111
 20
-3.797354166666663
 10
31.576775
 20
-3.828650000000001
 10
31.52534583333333
 20
-3.937156944444445
 10
31.4216
 20
-4.153756944444441
 10
31.36983472222222
 20
-4.262105555555561
 10
31.36111805555555
 20
-4.28033888888889
 10
31.35940555555554
 20
-4.297929166666664
 10
31.36484444444444
 20
-4.312975000000001
 10
31.36941944444445
 20
-4.325629166666671
 10
31.37875555555555
 20
-4.335502777777783
 10
31.39185
 20
-4.34155277777778
 10
31.39908055555555
 20
-4.344876388888894
 10
31.40639027777777
 20
-4.346501388888884
 10
31.41354305555556
 20
-4.346501388888884
 10
31.43380833333334
 20
-4.346501388888884
 10
31.45373611111111
 20
-4.33395277777778
 10
31.46567222222221
 20
-4.309618055555549
 10
31.51825555555554
 20
-4.202418055555553
 10
31.62204305555555
 20
-3.982966666666673
 10
31.67410277777779
 20
-3.874052777777782
 10
31.68187916666668
 20
-3.857774999999997
 10
31.68328888888888
 20
-3.840856944444441
 10
31.67812222222222
 20
-3.826445833333334
 97
        0
 97
        0
 75
     2
 76
     1
 98
        0
  0
SPLINE
  5
5D
330
1F
100
AcDbEntity
  8
Layer 1
370
     0
100
AcDbSpline
210
0.0
220
0.0
230
1.0
 70
    11
 71
     3
 72
    26
 73
    22
 74
     0
 42
0.0000000001
 43
0.0000000001
 12
1.0
 22
0.0
 32
0.0
 13
1.0
 23
0.0
 33
0.0
 40
0.0
 40
0.0
 40
0.0
 40
0.0
 40
1.0
 40
1.0
 40
1.0
 40
2.0
 40
2.0
 40
2.0
 40
3.0
 40
3.0
 40
3.0
 40
4.0
 40
4.0
 40
4.0
 40
5.0
 40
5.0
 40
5.0
 40
6.0
 40
6.0
 40
6.0
 40
7.0
 40
7.0
 40
7.0
 40
7.0
 10
31.72570972222221
 20
-3.628127777777776
 30
0.0
 10
31.73360833333335
 20
-3.631941666666661
 30
0.0
 10
31.74160416666667
 20
-3.633800000000001
 30
0.0
 10
31.74936249999999
 20
-3.633800000000001
 30
0.0
 10
31.76855416666666
 20
-3.633800000000001
 30
0.0
 10
31.78729722222223
 20
-3.622983333333334
 30
0.0
 10
31.79708055555557
 20
-3.601752777777783
 30
0.0
 10
31.82035138888889
 20
-3.551270833333332
 30
0.0
 10
31.86638472222221
 20
-3.452402777777782
 30
0.0
 10
31.89105138888888
 20
-3.400236111111111
 30
0.0
 10
31.9037861111111
 20
-3.373305555555551
 30
0.0
 10
31.88927777777778
 20
-3.343488888888891
 30
0.0
 10
31.86309444444444
 20
-3.33196805555556
 30
0.0
 10
31.83872083333333
 20
-3.321240277777772
 30
0.0
 10
31.80857361111111
 20
-3.328443055555554
 30
0.0
 10
31.79474722222221
 20
-3.355915277777778
 30
0.0
 10
31.76824583333334
 20
-3.408601388888883
 30
0.0
 10
31.72550416666667
 20
-3.50222222222222
 30
0.0
 10
31.70314722222221
 20
-3.551326388888886
 30
0.0
 10
31.68822361111112
 20
-3.584106944444443
 30
0.0
 10
31.69710277777777
 20
-3.614268055555562
 30
0.0
 10
31.72570972222221
 20
-3.628127777777776
 30
0.0
  0
HATCH
  5
5E
330
1F
100
AcDbEntity
  8
Layer 1
 62
    35
420
 10579544
100
AcDbHatch
 10
0.0
 20
0.0
 30
0.0
210
0.0
220
0.0
230
1.0
  2
SOLID
 70
     1
 71
     0
 91
        1
 92
        1
 93
        1
 72
     4
 94
        3
 73
     0
 74
     1
 95
       26
 96
       22
 40
0.0
 40
0.0
 40
0.0
 40
0.0
 40
1.0
 40
1.0
 40
1.0
 40
2.0
 40
2.0
 40
2.0
 40
3.0
 40
3.0
 40
3.0
 40
4.0
 40
4.0
 40
4.0
 40
5.0
 40
5.0
 40
5.0
 40
6.0
 40
6.0
 40
6.0
 40
7.0
 40
7.0
 40
7.0
 40
7.0
 10
31.72570972222221
 20
-3.628127777777776
 10
31.73360833333335
 20
-3.631941666666661
 10
31.74160416666667
 20
-3.633800000000001
 10
31.74936249999999
 20
-3.633800000000001
 10
31.76855416666666
 20
-3.633800000000001
 10
31.78729722222223
 20
-3.622983333333334
 10
31.79708055555557
 20
-3.601752777777783
 10
31.82035138888889
 20
-3.551270833333332
 10
31.86638472222221
 20
-3.452402777777782
 10
31.89105138888888
 20
-3.400236111111111
 10
31.9037861111111
 20
-3.373305555555551
 10
31.88927777777778
 20
-3.343488888888891
 10
31.86309444444444
 20
-3.33196805555556
 10
31.83872083333333
 20
-3.321240277777772
 10
31.80857361111111
 20
-3.328443055555554
 10
31.79474722222221
 20
-3.355915277777778
 10
31.76824583333334
 20
-3.408601388888883
 10
31.72550416666667
 20
-3.50222222222222
 10
31.70314722222221
 20
-3.551326388888886
 10
31.68822361111112
 20
-3.584106944444443
 10
31.69710277777777
 20
-3.614268055555562
 10
31.72570972222221
 20
-3.628127777777776
 97
        0
 97
        0
 75
     2
 76
     1
 98
        0
  0
SPLINE
  5
5F
330
1F
100
AcDbEntity
  8
Layer 1
370
     0
100
AcDbSpline
210
0.0
220
0.0
230
1.0
 70
    11
 71
     3
 72
    32
 73
    28
 74
     0
 42
0.0000000001
 43
0.0000000001
 12
1.0
 22
0.0
 32
0.0
 13
1.0
 23
0.0
 33
0.0
 40
0.0
 40
0.0
 40
0.0
 40
0.0
 40
1.0
 40
1.0
 40
1.0
 40
2.0
 40
2.0
 40
2.0
 40
3.0
 40
3.0
 40
3.0
 40
4.0
 40
4.0
 40
4.0
 40
5.0
 40
5.0
 40
5.0
 40
6.0
 40
6.0
 40
6.0
 40
7.0
 40
7.0
 40
7.0
 40
8.0
 40
8.0
 40
8.0
 40
9.0
 40
9.0
 40
9.0
 40
9.0
 10
32.40876805555556
 20
-4.482854166666672
 30
0.0
 10
32.4111625
 20
-4.469293055555554
 30
0.0
 10
32.40799305555556
 20
-4.455834722222221
 30
0.0
 10
32.39960416666668
 20
-4.443940277777781
 30
0.0
 10
32.38168333333333
 20
-4.418545833333332
 30
0.0
 10
32.3481
 20
-4.414666666666664
 30
0.0
 10
32.31970833333334
 20
-4.434440277777778
 30
0.0
 10
32.22115833333333
 20
-4.503048611111113
 30
0.0
 10
32.02356805555554
 20
-4.639561111111107
 30
0.0
 10
31.92487222222222
 20
-4.707963888888886
 30
0.0
 10
31.90826388888889
 20
-4.719470833333339
 30
0.0
 10
31.89803472222221
 20
-4.733886111111107
 30
0.0
 10
31.89528611111112
 20
-4.7496375
 30
0.0
 10
31.89296527777777
 20
-4.76290416666667
 30
0.0
 10
31.89618194444445
 20
-4.776109722222221
 30
0.0
 10
31.90454305555555
 20
-4.787859722222227
 30
0.0
 10
31.91466805555557
 20
-4.802084722222225
 30
0.0
 10
31.92922777777777
 20
-4.80935694444444
 30
0.0
 10
31.94558611111112
 20
-4.80935694444444
 30
0.0
 10
31.95775555555555
 20
-4.80935694444444
 30
0.0
 10
31.97132083333334
 20
-4.805912500000002
 30
0.0
 10
31.9839763888889
 20
-4.797122222222217
 30
0.0
 10
32.08558472222222
 20
-4.726548611111108
 30
0.0
 10
32.28226527777777
 20
-4.590945833333333
 30
0.0
 10
32.38165972222221
 20
-4.522174999999998
 30
0.0
 10
32.39648194444445
 20
-4.511913888888885
 30
0.0
 10
32.40609861111112
 20
-4.497937499999996
 30
0.0
 10
32.40876805555556
 20
-4.482854166666672
 30
0.0
  0
HATCH
  5
60
330
1F
100
AcDbEntity
  8
Layer 1
 62
    35
420
 10579544
100
AcDbHatch
 10
0.0
 20
0.0
 30
0.0
210
0.0
220
0.0
230
1.0
  2
SOLID
 70
     1
 71
     0
 91
        1
 92
        1
 93
        1
 72
     4
 94
        3
 73
     0
 74
     1
 95
       32
 96
       28
 40
0.0
 40
0.0
 40
0.0
 40
0.0
 40
1.0
 40
1.0
 40
1.0
 40
2.0
 40
2.0
 40
2.0
 40
3.0
 40
3.0
 40
3.0
 40
4.0
 40
4.0
 40
4.0
 40
5.0
 40
5.0
 40
5.0
 40
6.0
 40
6.0
 40
6.0
 40
7.0
 40
7.0
 40
7.0
 40
8.0
 40
8.0
 40
8.0
 40
9.0
 40
9.0
 40
9.0
 40
9.0
 10
32.40876805555556
 20
-4.482854166666672
 10
32.4111625
 20
-4.469293055555554
 10
32.40799305555556
 20
-4.455834722222221
 10
32.39960416666668
 20
-4.443940277777781
 10
32.38168333333333
 20
-4.418545833333332
 10
32.3481
 20
-4.414666666666664
 10
32.31970833333334
 20
-4.434440277777778
 10
32.22115833333333
 20
-4.503048611111113
 10
32.02356805555554
 20
-4.639561111111107
 10
31.92487222222222
 20
-4.707963888888886
 10
31.90826388888889
 20
-4.719470833333339
 10
31.89803472222221
 20
-4.733886111111107
 10
31.89528611111112
 20
-4.7496375
 10
31.89296527777777
 20
-4.76290416666667
 10
31.89618194444445
 20
-4.776109722222221
 10
31.90454305555555
 20
-4.787859722222227
 10
31.91466805555557
 20
-4.802084722222225
 10
31.92922777777777
 20
-4.80935694444444
 10
31.94558611111112
 20
-4.80935694444444
 10
31.95775555555555
 20
-4.80935694444444
 10
31.97132083333334
 20
-4.805912500000002
 10
31.9839763888889
 20
-4.797122222222217
 10
32.08558472222222
 20
-4.726548611111108
 10
32.28226527777777
 20
-4.590945833333333
 10
32.38165972222221
 20
-4.522174999999998
 10
32.39648194444445
 20
-4.511913888888885
 10
32.40609861111112
 20
-4.497937499999996
 10
32.40876805555556
 20
-4.482854166666672
 97
        0
 97
        0
 75
     2
 76
     1
 98
        0
  0
SPLINE
  5
61
330
1F
100
AcDbEntity
  8
Layer 1
370
     0
100
AcDbSpline
210
0.0
220
0.0
230
1.0
 70
    11
 71
     3
 72
    26
 73
    22
 74
     0
 42
0.0000000001
 43
0.0000000001
 12
1.0
 22
0.0
 32
0.0
 13
1.0
 23
0.0
 33
0.0
 40
0.0
 40
0.0
 40
0.0
 40
0.0
 40
1.0
 40
1.0
 40
1.0
 40
2.0
 40
2.0
 40
2.0
 40
3.0
 40
3.0
 40
3.0
 40
4.0
 40
4.0
 40
4.0
 40
5.0
 40
5.0
 40
5.0
 40
6.0
 40
6.0
 40
6.0
 40
7.0
 40
7.0
 40
7.0
 40
7.0
 10
32.56330833333332
 20
-4.263416666666672
 30
0.0
 10
32.53407638888888
 20
-4.284494444444438
 30
0.0
 10
32.52679444444445
 20
-4.31505694444445
 30
0.0
 10
32.5447625
 20
-4.341291666666671
 30
0.0
 10
32.55513888888891
 20
-4.356448611111116
 30
0.0
 10
32.57019444444445
 20
-4.364315277777779
 30
0.0
 10
32.58656527777778
 20
-4.364315277777779
 30
0.0
 10
32.59739583333334
 20
-4.364315277777779
 30
0.0
 10
32.6088
 20
-4.360869444444448
 30
0.0
 10
32.61979861111111
 20
-4.35384444444445
 30
0.0
 10
32.61979861111111
 20
-4.35384444444445
 30
0.0
 10
32.7535
 20
-4.258906944444448
 30
0.0
 10
32.8014236111111
 20
-4.225562499999998
 30
0.0
 10
32.82586250000001
 20
-4.208556944444442
 30
0.0
 10
32.82806944444443
 20
-4.175416666666668
 30
0.0
 10
32.81104027777776
 20
-4.152416666666669
 30
0.0
 10
32.79518750000001
 20
-4.130994444444442
 30
0.0
 10
32.76493194444444
 20
-4.121470833333332
 30
0.0
 10
32.73983194444445
 20
-4.139270833333335
 30
0.0
 10
32.69330833333333
 20
-4.172265277777771
 30
0.0
 10
32.56330833333332
 20
-4.263416666666672
 30
0.0
 10
32.56330833333332
 20
-4.263416666666672
 30
0.0
  0
HATCH
  5
62
330
1F
100
AcDbEntity
  8
Layer 1
 62
    35
420
 10579544
100
AcDbHatch
 10
0.0
 20
0.0
 30
0.0
210
0.0
220
0.0
230
1.0
  2
SOLID
 70
     1
 71
     0
 91
        1
 92
        1
 93
        1
 72
     4
 94
        3
 73
     0
 74
     1
 95
       26
 96
       22
 40
0.0
 40
0.0
 40
0.0
 40
0.0
 40
1.0
 40
1.0
 40
1.0
 40
2.0
 40
2.0
 40
2.0
 40
3.0
 40
3.0
 40
3.0
 40
4.0
 40
4.0
 40
4.0
 40
5.0
 40
5.0
 40
5.0
 40
6.0
 40
6.0
 40
6.0
 40
7.0
 40
7.0
 40
7.0
 40
7.0
 10
32.56330833333332
 20
-4.263416666666672
 10
32.53407638888888
 20
-4.284494444444438
 10
32.52679444444445
 20
-4.31505694444445
 10
32.5447625
 20
-4.341291666666671
 10
32.55513888888891
 20
-4.356448611111116
 10
32.57019444444445
 20
-4.364315277777779
 10
32.58656527777778
 20
-4.364315277777779
 10
32.59739583333334
 20
-4.364315277777779
 10
32.6088
 20
-4.360869444444448
 10
32.61979861111111
 20
-4.35384444444445
 10
32.61979861111111
 20
-4.35384444444445
 10
32.7535
 20
-4.258906944444448
 10
32.8014236111111
 20
-4.225562499999998
 10
32.82586250000001
 20
-4.208556944444442
 10
32.82806944444443
 20
-4.175416666666668
 10
32.81104027777776
 20
-4.152416666666669
 10
32.79518750000001
 20
-4.130994444444442
 10
32.76493194444444
 20
-4.121470833333332
 10
32.73983194444445
 20
-4.139270833333335
 10
32.69330833333333
 20
-4.172265277777771
 10
32.56330833333332
 20
-4.263416666666672
 10
32.56330833333332
 20
-4.263416666666672
 97
        0
 97
        0
 75
     2
 76
     1
 98
        0
  0
SPLINE
  5
63
330
1F
100
AcDbEntity
  8
Layer 1
370
     0
100
AcDbSpline
210
0.0
220
0.0
230
1.0
 70
    11
 71
     3
 72
    32
 73
    28
 74
     0
 42
0.0000000001
 43
0.0000000001
 12
1.0
 22
0.0
 32
0.0
 13
1.0
 23
0.0
 33
0.0
 40
0.0
 40
0.0
 40
0.0
 40
0.0
 40
1.0
 40
1.0
 40
1.0
 40
2.0
 40
2.0
 40
2.0
 40
3.0
 40
3.0
 40
3.0
 40
4.0
 40
4.0
 40
4.0
 40
5.0
 40
5.0
 40
5.0
 40
6.0
 40
6.0
 40
6.0
 40
7.0
 40
7.0
 40
7.0
 40
8.0
 40
8.0
 40
8.0
 40
9.0
 40
9.0
 40
9.0
 40
9.0
 10
32.72794583333332
 20
-5.37410138888889
 30
0.0
 10
32.60823194444444
 20
-5.383479166666663
 30
0.0
 10
32.24888750000001
 20
-5.409033333333329
 30
0.0
 10
32.24888750000001
 20
-5.409033333333329
 30
0.0
 10
32.22872499999999
 20
-5.410518055555561
 30
0.0
 10
32.21259722222223
 20
-5.417734722222222
 30
0.0
 10
32.20222361111112
 20
-5.429918055555555
 30
0.0
 10
32.1934986111111
 20
-5.440155555555558
 30
0.0
 10
32.18954166666668
 20
-5.453161111111108
 30
0.0
 10
32.19079166666668
 20
-5.467520833333335
 30
0.0
 10
32.19334027777778
 20
-5.497102777777778
 30
0.0
 10
32.21715277777778
 20
-5.515873611111108
 30
0.0
 10
32.25230416666666
 20
-5.515873611111108
 30
0.0
 10
32.25321527777778
 20
-5.515873611111108
 30
0.0
 10
32.25518888888887
 20
-5.515784722222216
 30
0.0
 10
32.25613194444445
 20
-5.515756944444446
 30
0.0
 10
32.25613194444445
 20
-5.515756944444446
 30
0.0
 10
32.61655833333334
 20
-5.489797222222225
 30
0.0
 10
32.7367
 20
-5.48111944444444
 30
0.0
 10
32.75469444444444
 20
-5.47982083333333
 30
0.0
 10
32.77008194444445
 20
-5.472683333333331
 30
0.0
 10
32.78003888888889
 20
-5.46105
 30
0.0
 10
32.78899166666666
 20
-5.450588888888888
 30
0.0
 10
32.79310555555556
 20
-5.437383333333337
 30
0.0
 10
32.79192499999999
 20
-5.422869444444447
 30
0.0
 10
32.78939861111111
 20
-5.391905555555556
 30
0.0
 10
32.76244444444445
 20
-5.371402777777777
 30
0.0
 10
32.72794583333332
 20
-5.37410138888889
 30
0.0
  0
HATCH
  5
64
330
1F
100
AcDbEntity
  8
Layer 1
 62
    35
420
 10579544
100
AcDbHatch
 10
0.0
 20
0.0
 30
0.0
210
0.0
220
0.0
230
1.0
  2
SOLID
 70
     1
 71
     0
 91
        1
 92
        1
 93
        1
 72
     4
 94
        3
 73
     0
 74
     1
 95
       32
 96
       28
 40
0.0
 40
0.0
 40
0.0
 40
0.0
 40
1.0
 40
1.0
 40
1.0
 40
2.0
 40
2.0
 40
2.0
 40
3.0
 40
3.0
 40
3.0
 40
4.0
 40
4.0
 40
4.0
 40
5.0
 40
5.0
 40
5.0
 40
6.0
 40
6.0
 40
6.0
 40
7.0
 40
7.0
 40
7.0
 40
8.0
 40
8.0
 40
8.0
 40
9.0
 40
9.0
 40
9.0
 40
9.0
 10
32.72794583333332
 20
-5.37410138888889
 10
32.60823194444444
 20
-5.383479166666663
 10
32.24888750000001
 20
-5.409033333333329
 10
32.24888750000001
 20
-5.409033333333329
 10
32.22872499999999
 20
-5.410518055555561
 10
32.21259722222223
 20
-5.417734722222222
 10
32.20222361111112
 20
-5.429918055555555
 10
32.1934986111111
 20
-5.440155555555558
 10
32.18954166666668
 20
-5.453161111111108
 10
32.19079166666668
 20
-5.467520833333335
 10
32.19334027777778
 20
-5.497102777777778
 10
32.21715277777778
 20
-5.515873611111108
 10
32.25230416666666
 20
-5.515873611111108
 10
32.25321527777778
 20
-5.515873611111108
 10
32.25518888888887
 20
-5.515784722222216
 10
32.25613194444445
 20
-5.515756944444446
 10
32.25613194444445
 20
-5.515756944444446
 10
32.61655833333334
 20
-5.489797222222225
 10
32.7367
 20
-5.48111944444444
 10
32.75469444444444
 20
-5.47982083333333
 10
32.77008194444445
 20
-5.472683333333331
 10
32.78003888888889
 20
-5.46105
 10
32.78899166666666
 20
-5.450588888888888
 10
32.79310555555556
 20
-5.437383333333337
 10
32.79192499999999
 20
-5.422869444444447
 10
32.78939861111111
 20
-5.391905555555556
 10
32.76244444444445
 20
-5.371402777777777
 10
32.72794583333332
 20
-5.37410138888889
 97
        0
 97
        0
 75
     2
 76
     1
 98
        0
  0
SPLINE
  5
65
330
1F
100
AcDbEntity
  8
Layer 1
370
     0
100
AcDbSpline
210
0.0
220
0.0
230
1.0
 70
    11
 71
     3
 72
    26
 73
    22
 74
     0
 42
0.0000000001
 43
0.0000000001
 12
1.0
 22
0.0
 32
0.0
 13
1.0
 23
0.0
 33
0.0
 40
0.0
 40
0.0
 40
0.0
 40
0.0
 40
1.0
 40
1.0
 40
1.0
 40
2.0
 40
2.0
 40
2.0
 40
3.0
 40
3.0
 40
3.0
 40
4.0
 40
4.0
 40
4.0
 40
5.0
 40
5.0
 40
5.0
 40
6.0
 40
6.0
 40
6.0
 40
7.0
 40
7.0
 40
7.0
 40
7.0
 10
33.24711388888888
 20
-5.339023611111113
 30
0.0
 10
33.19115694444445
 20
-5.342856944444444
 30
0.0
 10
33.02986666666667
 20
-5.353555555555557
 30
0.0
 10
33.02986666666667
 20
-5.353555555555557
 30
0.0
 10
32.99394027777778
 20
-5.356408333333333
 30
0.0
 10
32.97185
 20
-5.378769444444439
 30
0.0
 10
32.97359583333334
 20
-5.410502777777777
 30
0.0
 10
32.97521111111111
 20
-5.440080555555558
 30
0.0
 10
32.99711388888888
 20
-5.459756944444444
 30
0.0
 10
33.02901250000001
 20
-5.460154166666661
 30
0.0
 10
33.02994027777777
 20
-5.460168055555553
 30
0.0
 10
33.03089722222222
 20
-5.46016388888889
 30
0.0
 10
33.03185
 20
-5.460154166666661
 30
0.0
 10
33.03185
 20
-5.460154166666661
 30
0.0
 10
33.19484444444444
 20
-5.448526388888884
 30
0.0
 10
33.25305277777779
 20
-5.444730555555553
 30
0.0
 10
33.28277916666666
 20
-5.442798611111116
 30
0.0
 10
33.30186249999999
 20
-5.415690277777773
 30
0.0
 10
33.29923888888889
 20
-5.38719444444444
 30
0.0
 10
33.29678888888889
 20
-5.360670833333339
 30
0.0
 10
33.27585694444443
 20
-5.337058333333339
 30
0.0
 10
33.24711388888888
 20
-5.339023611111113
 30
0.0
  0
HATCH
  5
66
330
1F
100
AcDbEntity
  8
Layer 1
 62
    35
420
 10579544
100
AcDbHatch
 10
0.0
 20
0.0
 30
0.0
210
0.0
220
0.0
230
1.0
  2
SOLID
 70
     1
 71
     0
 91
        1
 92
        1
 93
        1
 72
     4
 94
        3
 73
     0
 74
     1
 95
       26
 96
       22
 40
0.0
 40
0.0
 40
0.0
 40
0.0
 40
1.0
 40
1.0
 40
1.0
 40
2.0
 40
2.0
 40
2.0
 40
3.0
 40
3.0
 40
3.0
 40
4.0
 40
4.0
 40
4.0
 40
5.0
 40
5.0
 40
5.0
 40
6.0
 40
6.0
 40
6.0
 40
7.0
 40
7.0
 40
7.0
 40
7.0
 10
33.24711388888888
 20
-5.339023611111113
 10
33.19115694444445
 20
-5.342856944444444
 10
33.02986666666667
 20
-5.353555555555557
 10
33.02986666666667
 20
-5.353555555555557
 10
32.99394027777778
 20
-5.356408333333333
 10
32.97185
 20
-5.378769444444439
 10
32.97359583333334
 20
-5.410502777777777
 10
32.97521111111111
 20
-5.440080555555558
 10
32.99711388888888
 20
-5.459756944444444
 10
33.02901250000001
 20
-5.460154166666661
 10
33.02994027777777
 20
-5.460168055555553
 10
33.03089722222222
 20
-5.46016388888889
 10
33.03185
 20
-5.460154166666661
 10
33.03185
 20
-5.460154166666661
 10
33.19484444444444
 20
-5.448526388888884
 10
33.25305277777779
 20
-5.444730555555553
 10
33.28277916666666
 20
-5.442798611111116
 10
33.30186249999999
 20
-5.415690277777773
 10
33.29923888888889
 20
-5.38719444444444
 10
33.29678888888889
 20
-5.360670833333339
 10
33.27585694444443
 20
-5.337058333333339
 10
33.24711388888888
 20
-5.339023611111113
 97
        0
 97
        0
 75
     2
 76
     1
 98
        0
  0
SPLINE
  5
67
330
1F
100
AcDbEntity
  8
Layer 1
370
     0
100
AcDbSpline
210
0.0
220
0.0
230
1.0
 70
    11
 71
     3
 72
    47
 73
    43
 74
     0
 42
0.0000000001
 43
0.0000000001
 12
1.0
 22
0.0
 32
0.0
 13
1.0
 23
0.0
 33
0.0
 40
0.0
 40
0.0
 40
0.0
 40
0.0
 40
1.0
 40
1.0
 40
1.0
 40
2.0
 40
2.0
 40
2.0
 40
3.0
 40
3.0
 40
3.0
 40
4.0
 40
4.0
 40
4.0
 40
5.0
 40
5.0
 40
5.0
 40
6.0
 40
6.0
 40
6.0
 40
7.0
 40
7.0
 40
7.0
 40
8.0
 40
8.0
 40
8.0
 40
9.0
 40
9.0
 40
9.0
 40
10.0
 40
10.0
 40
10.0
 40
11.0
 40
11.0
 40
11.0
 40
12.0
 40
12.0
 40
12.0
 40
13.0
 40
13.0
 40
13.0
 40
14.0
 40
14.0
 40
14.0
 40
14.0
 10
30.58846805555556
 20
-5.499502777777782
 30
0.0
 10
30.58846805555556
 20
-5.499502777777782
 30
0.0
 10
30.58846805555556
 20
-5.499502777777782
 30
0.0
 10
30.58846805555556
 20
-5.499502777777782
 30
0.0
 10
30.40880277777779
 20
-5.449641666666669
 30
0.0
 10
30.26851944444444
 20
-5.282950000000002
 30
0.0
 10
30.22655277777777
 20
-5.06946388888889
 30
0.0
 10
30.22655277777777
 20
-5.06946388888889
 30
0.0
 10
30.22655277777777
 20
-5.06946388888889
 30
0.0
 10
30.22655277777777
 20
-5.06946388888889
 30
0.0
 10
30.22315416666667
 20
-5.052149999999996
 30
0.0
 10
30.20240416666666
 20
-5.052149999999996
 30
0.0
 10
30.19899999999999
 20
-5.06946388888889
 30
0.0
 10
30.19899999999999
 20
-5.06946388888889
 30
0.0
 10
30.19899999999999
 20
-5.069468055555553
 30
0.0
 10
30.19899999999999
 20
-5.069468055555553
 30
0.0
 10
30.15703888888889
 20
-5.282950000000002
 30
0.0
 10
30.01675416666666
 20
-5.449641666666669
 30
0.0
 10
29.83709027777778
 20
-5.499502777777782
 30
0.0
 10
29.83709027777778
 20
-5.499502777777782
 30
0.0
 10
29.83708472222222
 20
-5.499502777777782
 30
0.0
 10
29.83708472222222
 20
-5.499502777777782
 30
0.0
 10
29.82251111111111
 20
-5.503544444444438
 30
0.0
 10
29.82251111111111
 20
-5.528197222222224
 30
0.0
 10
29.83708472222222
 20
-5.532245833333339
 30
0.0
 10
29.83708472222222
 20
-5.532245833333339
 30
0.0
 10
29.83709027777778
 20
-5.532245833333339
 30
0.0
 10
29.83709027777778
 20
-5.532245833333339
 30
0.0
 10
30.01675
 20
-5.582101388888885
 30
0.0
 10
30.15703888888889
 20
-5.748793055555552
 30
0.0
 10
30.19899999999999
 20
-5.96228333333334
 30
0.0
 10
30.20240416666666
 20
-5.979593055555559
 30
0.0
 10
30.22315416666667
 20
-5.979593055555559
 30
0.0
 10
30.22655277777777
 20
-5.96228333333334
 30
0.0
 10
30.26851944444444
 20
-5.748793055555552
 30
0.0
 10
30.40880277777779
 20
-5.582101388888885
 30
0.0
 10
30.58846805555556
 20
-5.532245833333339
 30
0.0
 10
30.58846805555556
 20
-5.532245833333339
 30
0.0
 10
30.58846805555556
 20
-5.532245833333339
 30
0.0
 10
30.58846805555556
 20
-5.532245833333339
 30
0.0
 10
30.60304166666666
 20
-5.528197222222224
 30
0.0
 10
30.60304166666666
 20
-5.503544444444438
 30
0.0
 10
30.58846805555556
 20
-5.499502777777782
 30
0.0
  0
HATCH
  5
68
330
1F
100
AcDbEntity
  8
Layer 1
 62
    35
420
 10579544
100
AcDbHatch
 10
0.0
 20
0.0
 30
0.0
210
0.0
220
0.0
230
1.0
  2
SOLID
 70
     1
 71
     0
 91
        1
 92
        1
 93
        1
 72
     4
 94
        3
 73
     0
 74
     1
 95
       47
 96
       43
 40
0.0
 40
0.0
 40
0.0
 40
0.0
 40
1.0
 40
1.0
 40
1.0
 40
2.0
 40
2.0
 40
2.0
 40
3.0
 40
3.0
 40
3.0
 40
4.0
 40
4.0
 40
4.0
 40
5.0
 40
5.0
 40
5.0
 40
6.0
 40
6.0
 40
6.0
 40
7.0
 40
7.0
 40
7.0
 40
8.0
 40
8.0
 40
8.0
 40
9.0
 40
9.0
 40
9.0
 40
10.0
 40
10.0
 40
10.0
 40
11.0
 40
11.0
 40
11.0
 40
12.0
 40
12.0
 40
12.0
 40
13.0
 40
13.0
 40
13.0
 40
14.0
 40
14.0
 40
14.0
 40
14.0
 10
30.58846805555556
 20
-5.499502777777782
 10
30.58846805555556
 20
-5.499502777777782
 10
30.58846805555556
 20
-5.499502777777782
 10
30.58846805555556
 20
-5.499502777777782
 10
30.40880277777779
 20
-5.449641666666669
 10
30.26851944444444
 20
-5.282950000000002
 10
30.22655277777777
 20
-5.06946388888889
 10
30.22655277777777
 20
-5.06946388888889
 10
30.22655277777777
 20
-5.06946388888889
 10
30.22655277777777
 20
-5.06946388888889
 10
30.22315416666667
 20
-5.052149999999996
 10
30.20240416666666
 20
-5.052149999999996
 10
30.19899999999999
 20
-5.06946388888889
 10
30.19899999999999
 20
-5.06946388888889
 10
30.19899999999999
 20
-5.069468055555553
 10
30.19899999999999
 20
-5.069468055555553
 10
30.15703888888889
 20
-5.282950000000002
 10
30.01675416666666
 20
-5.449641666666669
 10
29.83709027777778
 20
-5.499502777777782
 10
29.83709027777778
 20
-5.499502777777782
 10
29.83708472222222
 20
-5.499502777777782
 10
29.83708472222222
 20
-5.499502777777782
 10
29.82251111111111
 20
-5.503544444444438
 10
29.82251111111111
 20
-5.528197222222224
 10
29.83708472222222
 20
-5.532245833333339
 10
29.83708472222222
 20
-5.532245833333339
 10
29.83709027777778
 20
-5.532245833333339
 10
29.83709027777778
 20
-5.532245833333339
 10
30.01675
 20
-5.582101388888885
 10
30.15703888888889
 20
-5.748793055555552
 10
30.19899999999999
 20
-5.96228333333334
 10
30.20240416666666
 20
-5.979593055555559
 10
30.22315416666667
 20
-5.979593055555559
 10
30.22655277777777
 20
-5.96228333333334
 10
30.26851944444444
 20
-5.748793055555552
 10
30.40880277777779
 20
-5.582101388888885
 10
30.58846805555556
 20
-5.532245833333339
 10
30.58846805555556
 20
-5.532245833333339
 10
30.58846805555556
 20
-5.532245833333339
 10
30.58846805555556
 20
-5.532245833333339
 10
30.60304166666666
 20
-5.528197222222224
 10
30.60304166666666
 20
-5.503544444444438
 10
30.58846805555556
 20
-5.499502777777782
 97
        0
 97
        0
 75
     2
 76
     1
 98
        0
  0
ENDSEC
  0
SECTION
  2
OBJECTS
  0
DICTIONARY
  5
C
330
0
100
AcDbDictionary
281
     1
  3
ACAD_GROUP
350
D
  3
ACAD_LAYOUT
350
1A
  3
ACAD_MATERIAL
350
3B
  3
ACAD_MLEADERSTYLE
350
6A
  3
ACAD_MLINESTYLE
350
17
  3
ACAD_PLOTSETTINGS
350
19
  3
ACAD_PLOTSTYLENAME
350
E
  3
ACAD_TABLESTYLE
350
69
  3
ACAD_VISUALSTYLE
350
2A
  0
SUN
  5
3F
330
29
100
AcDbSun
 90
        1
290
     0
 63
     7
421
 16777215
 40
1.0
291
     1
 91
  2455826
 92
 54000000
292
     0
 70
     2
 71
   256
280
     1
  0
DICTIONARY
  5
D
102
{ACAD_REACTORS
330
C
102
}
330
C
100
AcDbDictionary
281
     1
  0
DICTIONARY
  5
1A
102
{ACAD_REACTORS
330
C
102
}
330
C
100
AcDbDictionary
281
     1
  3
Layout1
350
1E
  3
Layout2
350
26
  3
Model
350
22
  0
DICTIONARY
  5
3B
102
{ACAD_REACTORS
330
C
102
}
330
C
100
AcDbDictionary
281
     1
  3
ByBlock
350
3D
  3
ByLayer
350
3C
  3
Global
350
3E
  0
DICTIONARY
  5
6A
102
{ACAD_REACTORS
330
C
102
}
330
C
100
AcDbDictionary
281
     1
  0
DICTIONARY
  5
17
102
{ACAD_REACTORS
330
C
102
}
330
C
100
AcDbDictionary
281
     1
  3
Standard
350
18
  0
DICTIONARY
  5
19
102
{ACAD_REACTORS
330
C
102
}
330
C
100
AcDbDictionary
281
     1
  0
ACDBDICTIONARYWDFLT
  5
E
102
{ACAD_REACTORS
330
C
102
}
330
C
100
AcDbDictionary
281
     1
  3
Normal
350
F
100
AcDbDictionaryWithDefault
340
F
  0
DICTIONARY
  5
69
102
{ACAD_REACTORS
330
C
102
}
330
C
100
AcDbDictionary
281
     1
  0
DICTIONARY
  5
2A
102
{ACAD_REACTORS
330
C
102
}
330
C
100
AcDbDictionary
281
     1
  3
2dWireframe
350
2F
  3
3D Hidden
350
31
  3
3dWireframe
350
30
  3
Basic
350
32
  3
Brighten
350
36
  3
ColorChange
350
3A
  3
Conceptual
350
34
  3
Dim
350
35
  3
Facepattern
350
39
  3
Flat
350
2B
  3
FlatWithEdges
350
2C
  3
Gouraud
350
2D
  3
GouraudWithEdges
350
2E
  3
Linepattern
350
38
  3
Realistic
350
33
  3
Thicken
350
37
  0
LAYOUT
  5
1E
102
{ACAD_REACTORS
330
1A
102
}
330
1A
100
AcDbPlotSettings
  1

  2
none_device
  4

  6

 40
0.0
 41
0.0
 42
0.0
 43
0.0
 44
0.0
 45
0.0
 46
0.0
 47
0.0
 48
0.0
 49
0.0
140
0.0
141
0.0
142
1.0
143
1.0
 70
   688
 72
     0
 73
     0
 74
     5
  7

 75
    16
 76
     0
 77
     2
 78
   300
147
1.0
148
0.0
149
0.0
100
AcDbLayout
  1
Layout1
 70
     1
 71
     1
 10
0.0
 20
0.0
 11
12.0
 21
9.0
 12
0.0
 22
0.0
 32
0.0
 14
1.000000000000000E+20
 24
1.000000000000000E+20
 34
1.000000000000000E+20
 15
-1.000000000000000E+20
 25
-1.000000000000000E+20
 35
-1.000000000000000E+20
146
0.0
 13
0.0
 23
0.0
 33
0.0
 16
1.0
 26
0.0
 36
0.0
 17
0.0
 27
1.0
 37
0.0
 76
     0
330
1B
  0
LAYOUT
  5
26
102
{ACAD_REACTORS
330
1A
102
}
330
1A
100
AcDbPlotSettings
  1

  2
none_device
  4

  6

 40
0.0
 41
0.0
 42
0.0
 43
0.0
 44
0.0
 45
0.0
 46
0.0
 47
0.0
 48
0.0
 49
0.0
140
0.0
141
0.0
142
1.0
143
1.0
 70
   688
 72
     0
 73
     0
 74
     5
  7

 75
    16
 76
     0
 77
     2
 78
   300
147
1.0
148
0.0
149
0.0
100
AcDbLayout
  1
Layout2
 70
     1
 71
     2
 10
0.0
 20
0.0
 11
0.0
 21
0.0
 12
0.0
 22
0.0
 32
0.0
 14
0.0
 24
0.0
 34
0.0
 15
0.0
 25
0.0
 35
0.0
146
0.0
 13
0.0
 23
0.0
 33
0.0
 16
1.0
 26
0.0
 36
0.0
 17
0.0
 27
1.0
 37
0.0
 76
     0
330
23
  0
LAYOUT
  5
22
102
{ACAD_REACTORS
330
1A
102
}
330
1A
100
AcDbPlotSettings
  1

  2
none_device
  4

  6

 40
0.0
 41
0.0
 42
0.0
 43
0.0
 44
0.0
 45
0.0
 46
0.0
 47
0.0
 48
0.0
 49
0.0
140
0.0
141
0.0
142
1.0
143
1.0
 70
  1712
 72
     0
 73
     0
 74
     0
  7

 75
     0
 76
     0
 77
     2
 78
   300
147
1.0
148
0.0
149
0.0
100
AcDbLayout
  1
Model
 70
     1
 71
     0
 10
0.0
 20
0.0
 11
12.0
 21
9.0
 12
0.0
 22
0.0
 32
0.0
 14
1.000000000000000E+20
 24
1.000000000000000E+20
 34
1.000000000000000E+20
 15
-1.000000000000000E+20
 25
-1.000000000000000E+20
 35
-1.000000000000000E+20
146
0.0
 13
0.0
 23
0.0
 33
0.0
 16
1.0
 26
0.0
 36
0.0
 17
0.0
 27
1.0
 37
0.0
 76
     0
330
1F
331
29
  0
MATERIAL
  5
3D
102
{ACAD_REACTORS
330
3B
102
}
330
3B
100
AcDbMaterial
  1
ByBlock
 72
     1
 94
      127
  0
MATERIAL
  5
3C
102
{ACAD_REACTORS
330
3B
102
}
330
3B
100
AcDbMaterial
  1
ByLayer
 72
     1
 94
      127
  0
MATERIAL
  5
3E
102
{ACAD_REACTORS
330
3B
102
}
330
3B
100
AcDbMaterial
  1
Global
 72
     1
 94
      127
  0
MLINESTYLE
  5
18
102
{ACAD_REACTORS
330
17
102
}
330
17
100
AcDbMlineStyle
  2
Standard
 70
     0
  3

 62
   256
 51
90.0
 52
90.0
 71
     2
 49
0.5
 62
   256
  6
BYLAYER
 49
-0.5
 62
   256
  6
BYLAYER
  0
ACDBPLACEHOLDER
  5
F
102
{ACAD_REACTORS
330
E
102
}
330
E
  0
VISUALSTYLE
  5
2F
102
{ACAD_REACTORS
330
2A
102
}
330
2A
100
AcDbVisualStyle
  2
2dWireframe
 70
     4
177
     2
291
     0
 71
     0
176
     1
 72
     2
176
     1
 73
     0
176
     1
 90
        0
176
     1
 40
-0.6
176
     1
 41
-30.0
176
     1
 62
     5
 63
     7
421
 16777215
176
     1
 74
     1
176
     1
 91
        4
176
     1
 64
     7
176
     1
 65
   257
176
     1
 75
     1
176
     1
175
     1
176
     1
 42
1.0
176
     1
 92
        0
176
     1
 66
   257
176
     1
 43
1.0
176
     1
 76
     1
176
     1
 77
     6
176
     1
 78
     2
176
     1
 67
     7
176
     1
 79
     5
176
     1
170
     0
176
     1
171
     0
176
     1
290
     0
176
     1
 93
        1
176
     1
 44
0.0
176
     1
173
     0
176
     1
  0
VISUALSTYLE
  5
31
102
{ACAD_REACTORS
330
2A
102
}
330
2A
100
AcDbVisualStyle
  2
3D Hidden
 70
     6
177
     2
291
     0
 71
     1
176
     1
 72
     2
176
     1
 73
     2
176
     1
 90
        0
176
     1
 40
-0.6
176
     1
 41
-30.0
176
     1
 62
     5
 63
     7
421
 16777215
176
     1
 74
     2
176
     1
 91
        2
176
     1
 64
     7
176
     1
 65
   257
176
     1
 75
     2
176
     1
175
     1
176
     1
 42
40.0
176
     1
 92
        0
176
     1
 66
   257
176
     1
 43
1.0
176
     1
 76
     1
176
     1
 77
     6
176
     1
 78
     2
176
     1
 67
     7
176
     1
 79
     3
176
     1
170
     0
176
     1
171
     0
176
     1
290
     0
176
     1
 93
        1
176
     1
 44
0.0
176
     1
173
     0
176
     1
  0
VISUALSTYLE
  5
30
102
{ACAD_REACTORS
330
2A
102
}
330
2A
100
AcDbVisualStyle
  2
3dWireframe
 70
     5
177
     2
291
     0
 71
     0
176
     1
 72
     2
176
     1
 73
     0
176
     1
 90
        0
176
     1
 40
-0.6
176
     1
 41
-30.0
176
     1
 62
     5
 63
     7
421
 16777215
176
     1
 74
     1
176
     1
 91
        4
176
     1
 64
     7
176
     1
 65
   257
176
     1
 75
     1
176
     1
175
     1
176
     1
 42
1.0
176
     1
 92
        0
176
     1
 66
   257
176
     1
 43
1.0
176
     1
 76
     1
176
     1
 77
     6
176
     1
 78
     2
176
     1
 67
     7
176
     1
 79
     5
176
     1
170
     0
176
     1
171
     0
176
     1
290
     0
176
     1
 93
        1
176
     1
 44
0.0
176
     1
173
     0
176
     1
  0
VISUALSTYLE
  5
32
102
{ACAD_REACTORS
330
2A
102
}
330
2A
100
AcDbVisualStyle
  2
Basic
 70
     7
177
     2
291
     1
 71
     1
176
     1
 72
     0
176
     1
 73
     1
176
     1
 90
        0
176
     1
 40
-0.6
176
     1
 41
-30.0
176
     1
 62
     5
 63
     7
421
 16777215
176
     1
 74
     0
176
     1
 91
        4
176
     1
 64
     7
176
     1
 65
   257
176
     1
 75
     1
176
     1
175
     1
176
     1
 42
1.0
176
     1
 92
        8
176
     1
 66
     7
176
     1
 43
1.0
176
     1
 76
     1
176
     1
 77
     6
176
     1
 78
     2
176
     1
 67
     7
176
     1
 79
     5
176
     1
170
     0
176
     1
171
     0
176
     1
290
     0
176
     1
 93
        1
176
     1
 44
0.0
176
     1
173
     0
176
     1
  0
VISUALSTYLE
  5
36
102
{ACAD_REACTORS
330
2A
102
}
330
2A
100
AcDbVisualStyle
  2
Brighten
 70
    12
177
     2
291
     1
 71
     2
176
     1
 72
     2
176
     1
 73
     0
176
     1
 90
        0
176
     1
 40
-0.6
176
     1
 41
-30.0
176
     1
 62
     5
 63
     7
421
 16777215
176
     1
 74
     1
176
     1
 91
        4
176
     1
 64
     7
176
     1
 65
   257
176
     1
 75
     1
176
     1
175
     1
176
     1
 42
1.0
176
     1
 92
        8
176
     1
 66
     7
176
     1
 43
1.0
176
     1
 76
     1
176
     1
 77
     6
176
     1
 78
     2
176
     1
 67
     7
176
     1
 79
     5
176
     1
170
     0
176
     1
171
     0
176
     1
290
     0
176
     1
 93
        1
176
     1
 44
50.0
176
     1
173
     0
176
     1
  0
VISUALSTYLE
  5
3A
102
{ACAD_REACTORS
330
2A
102
}
330
2A
100
AcDbVisualStyle
  2
ColorChange
 70
    16
177
     2
291
     1
 71
     2
176
     1
 72
     2
176
     1
 73
     3
176
     1
 90
        0
176
     1
 40
-0.6
176
     1
 41
-30.0
176
     1
 62
     5
 63
     8
421
  8421504
176
     1
 74
     1
176
     1
 91
        4
176
     1
 64
     7
176
     1
 65
   257
176
     1
 75
     1
176
     1
175
     1
176
     1
 42
1.0
176
     1
 92
        8
176
     1
 66
     8
424
  8421504
176
     1
 43
1.0
176
     1
 76
     1
176
     1
 77
     6
176
     1
 78
     2
176
     1
 67
     7
176
     1
 79
     5
176
     1
170
     0
176
     1
171
     0
176
     1
290
     0
176
     1
 93
        1
176
     1
 44
0.0
176
     1
173
     0
176
     1
  0
VISUALSTYLE
  5
34
102
{ACAD_REACTORS
330
2A
102
}
330
2A
100
AcDbVisualStyle
  2
Conceptual
 70
     9
177
     2
291
     0
 71
     3
176
     1
 72
     2
176
     1
 73
     0
176
     1
 90
        0
176
     1
 40
-0.6
176
     1
 41
-30.0
176
     1
 62
     5
 63
     7
421
 16777215
176
     1
 74
     2
176
     1
 91
        2
176
     1
 64
     7
176
     1
 65
   257
176
     1
 75
     1
176
     1
175
     1
176
     1
 42
40.0
176
     1
 92
        8
176
     1
 66
     7
176
     1
 43
1.0
176
     1
 76
     1
176
     1
 77
     6
176
     1
 78
     2
176
     1
 67
     7
176
     1
 79
     3
176
     1
170
     0
176
     1
171
     0
176
     1
290
     0
176
     1
 93
        1
176
     1
 44
0.0
176
     1
173
     0
176
     1
  0
VISUALSTYLE
  5
35
102
{ACAD_REACTORS
330
2A
102
}
330
2A
100
AcDbVisualStyle
  2
Dim
 70
    11
177
     2
291
     1
 71
     2
176
     1
 72
     2
176
     1
 73
     0
176
     1
 90
        0
176
     1
 40
-0.6
176
     1
 41
-30.0
176
     1
 62
     5
 63
     7
421
 16777215
176
     1
 74
     1
176
     1
 91
        4
176
     1
 64
     7
176
     1
 65
   257
176
     1
 75
     1
176
     1
175
     1
176
     1
 42
1.0
176
     1
 92
        8
176
     1
 66
     7
176
     1
 43
1.0
176
     1
 76
     1
176
     1
 77
     6
176
     1
 78
     2
176
     1
 67
     7
176
     1
 79
     5
176
     1
170
     0
176
     1
171
     0
176
     1
290
     0
176
     1
 93
        1
176
     1
 44
-50.0
176
     1
173
     0
176
     1
  0
VISUALSTYLE
  5
39
102
{ACAD_REACTORS
330
2A
102
}
330
2A
100
AcDbVisualStyle
  2
Facepattern
 70
    15
177
     2
291
     1
 71
     2
176
     1
 72
     2
176
     1
 73
     0
176
     1
 90
        0
176
     1
 40
-0.6
176
     1
 41
-30.0
176
     1
 62
     5
 63
     7
421
 16777215
176
     1
 74
     1
176
     1
 91
        4
176
     1
 64
     7
176
     1
 65
   257
176
     1
 75
     1
176
     1
175
     1
176
     1
 42
1.0
176
     1
 92
        8
176
     1
 66
     7
176
     1
 43
1.0
176
     1
 76
     1
176
     1
 77
     6
176
     1
 78
     2
176
     1
 67
     7
176
     1
 79
     5
176
     1
170
     0
176
     1
171
     0
176
     1
290
     0
176
     1
 93
        1
176
     1
 44
0.0
176
     1
173
     0
176
     1
  0
VISUALSTYLE
  5
2B
102
{ACAD_REACTORS
330
2A
102
}
330
2A
100
AcDbVisualStyle
  2
Flat
 70
     0
177
     2
291
     1
 71
     2
176
     1
 72
     1
176
     1
 73
     1
176
     1
 90
        2
176
     1
 40
-0.6
176
     1
 41
30.0
176
     1
 62
     5
 63
     7
421
 16777215
176
     1
 74
     0
176
     1
 91
        4
176
     1
 64
     7
176
     1
 65
   257
176
     1
 75
     1
176
     1
175
     1
176
     1
 42
1.0
176
     1
 92
        8
176
     1
 66
     7
176
     1
 43
1.0
176
     1
 76
     1
176
     1
 77
     6
176
     1
 78
     2
176
     1
 67
     7
176
     1
 79
     5
176
     1
170
     0
176
     1
171
     0
176
     1
290
     0
176
     1
 93
       13
176
     1
 44
0.0
176
     1
173
     0
176
     1
  0
VISUALSTYLE
  5
2C
102
{ACAD_REACTORS
330
2A
102
}
330
2A
100
AcDbVisualStyle
  2
FlatWithEdges
 70
     1
177
     2
291
     1
 71
     2
176
     1
 72
     1
176
     1
 73
     1
176
     1
 90
        2
176
     1
 40
-0.6
176
     1
 41
30.0
176
     1
 62
     5
 63
     7
421
 16777215
176
     1
 74
     1
176
     1
 91
        4
176
     1
 64
     7
176
     1
 65
   257
176
     1
 75
     1
176
     1
175
     1
176
     1
 42
1.0
176
     1
 92
        0
176
     1
 66
   257
176
     1
 43
1.0
176
     1
 76
     1
176
     1
 77
     6
176
     1
 78
     2
176
     1
 67
     7
176
     1
 79
     5
176
     1
170
     0
176
     1
171
     0
176
     1
290
     0
176
     1
 93
       13
176
     1
 44
0.0
176
     1
173
     0
176
     1
  0
VISUALSTYLE
  5
2D
102
{ACAD_REACTORS
330
2A
102
}
330
2A
100
AcDbVisualStyle
  2
Gouraud
 70
     2
177
     2
291
     1
 71
     2
176
     1
 72
     2
176
     1
 73
     1
176
     1
 90
        2
176
     1
 40
-0.6
176
     1
 41
30.0
176
     1
 62
     5
 63
     7
421
 16777215
176
     1
 74
     0
176
     1
 91
        4
176
     1
 64
     7
176
     1
 65
   257
176
     1
 75
     1
176
     1
175
     1
176
     1
 42
1.0
176
     1
 92
        0
176
     1
 66
     7
176
     1
 43
1.0
176
     1
 76
     1
176
     1
 77
     6
176
     1
 78
     2
176
     1
 67
     7
176
     1
 79
     5
176
     1
170
     0
176
     1
171
     0
176
     1
290
     0
176
     1
 93
       13
176
     1
 44
0.0
176
     1
173
     0
176
     1
  0
VISUALSTYLE
  5
2E
102
{ACAD_REACTORS
330
2A
102
}
330
2A
100
AcDbVisualStyle
  2
GouraudWithEdges
 70
     3
177
     2
291
     1
 71
     2
176
     1
 72
     2
176
     1
 73
     1
176
     1
 90
        2
176
     1
 40
-0.6
176
     1
 41
30.0
176
     1
 62
     5
 63
     7
421
 16777215
176
     1
 74
     1
176
     1
 91
        4
176
     1
 64
     7
176
     1
 65
   257
176
     1
 75
     1
176
     1
175
     1
176
     1
 42
1.0
176
     1
 92
        0
176
     1
 66
   257
176
     1
 43
1.0
176
     1
 76
     1
176
     1
 77
     6
176
     1
 78
     2
176
     1
 67
     7
176
     1
 79
     5
176
     1
170
     0
176
     1
171
     0
176
     1
290
     0
176
     1
 93
       13
176
     1
 44
0.0
176
     1
173
     0
176
     1
  0
VISUALSTYLE
  5
38
102
{ACAD_REACTORS
330
2A
102
}
330
2A
100
AcDbVisualStyle
  2
Linepattern
 70
    14
177
     2
291
     1
 71
     2
176
     1
 72
     2
176
     1
 73
     0
176
     1
 90
        0
176
     1
 40
-0.6
176
     1
 41
-30.0
176
     1
 62
     5
 63
     7
421
 16777215
176
     1
 74
     1
176
     1
 91
        4
176
     1
 64
     7
176
     1
 65
   257
176
     1
 75
     7
176
     1
175
     7
176
     1
 42
1.0
176
     1
 92
        8
176
     1
 66
     7
176
     1
 43
1.0
176
     1
 76
     1
176
     1
 77
     6
176
     1
 78
     2
176
     1
 67
     7
176
     1
 79
     5
176
     1
170
     0
176
     1
171
     0
176
     1
290
     0
176
     1
 93
        1
176
     1
 44
0.0
176
     1
173
     0
176
     1
  0
VISUALSTYLE
  5
33
102
{ACAD_REACTORS
330
2A
102
}
330
2A
100
AcDbVisualStyle
  2
Realistic
 70
     8
177
     2
291
     0
 71
     2
176
     1
 72
     2
176
     1
 73
     0
176
     1
 90
        0
176
     1
 40
-0.6
176
     1
 41
-30.0
176
     1
 62
     5
 63
     7
421
 16777215
176
     1
 74
     1
176
     1
 91
        0
176
     1
 64
     7
176
     1
 65
   257
176
     1
 75
     1
176
     1
175
     1
176
     1
 42
1.0
176
     1
 92
        8
176
     1
 66
     8
424
  7895160
176
     1
 43
1.0
176
     1
 76
     1
176
     1
 77
     6
176
     1
 78
     2
176
     1
 67
     7
176
     1
 79
     5
176
     1
170
     0
176
     1
171
     0
176
     1
290
     0
176
     1
 93
       13
176
     1
 44
0.0
176
     1
173
     0
176
     1
  0
VISUALSTYLE
  5
37
102
{ACAD_REACTORS
330
2A
102
}
330
2A
100
AcDbVisualStyle
  2
Thicken
 70
    13
177
     2
291
     1
 71
     2
176
     1
 72
     2
176
     1
 73
     0
176
     1
 90
        0
176
     1
 40
-0.6
176
     1
 41
-30.0
176
     1
 62
     5
 63
     7
421
 16777215
176
     1
 74
     1
176
     1
 91
        4
176
     1
 64
     7
176
     1
 65
   257
176
     1
 75
     1
176
     1
175
     1
176
     1
 42
1.0
176
     1
 92
       12
176
     1
 66
     7
176
     1
 43
1.0
176
     1
 76
     1
176
     1
 77
     6
176
     1
 78
     2
176
     1
 67
     7
176
     1
 79
     5
176
     1
170
     0
176
     1
171
     0
176
     1
290
     0
176
     1
 93
        1
176
     1
 44
0.0
176
     1
173
     0
176
     1
  0
ENDSEC
  0
EOF
