  0
SECTION
  2
HEADER
  9
$ACADVER
  1
AC1024
  9
$ACADMAINTVER
 70
     6
  9
$DWGCODEPAGE
  3
ANSI_1251
  9
$INSBASE
 10
0.0
 20
0.0
 30
0.0
  9
$EXTMIN
 10
1.000000000000000E+20
 20
1.000000000000000E+20
 30
1.000000000000000E+20
  9
$EXTMAX
 10
-1.000000000000000E+20
 20
-1.000000000000000E+20
 30
-1.000000000000000E+20
  9
$LIMMIN
 10
0.0
 20
0.0
  9
$LIMMAX
 10
12.0
 20
9.0
  9
$ORTHOMODE
 70
     0
  9
$REGENMODE
 70
     1
  9
$FILLMODE
 70
     1
  9
$QTEXTMODE
 70
     0
  9
$MIRRTEXT
 70
     1
  9
$LTSCALE
 40
1.0
  9
$ATTMODE
 70
     1
  9
$TEXTSIZE
 40
0.2
  9
$TRACEWID
 40
0.05
  9
$TEXTSTYLE
  7
Standard
  9
$CLAYER
  8
0
  9
$CELTYPE
  6
ByLayer
  9
$CECOLOR
 62
   256
  9
$CELTSCALE
 40
1.0
  9
$DISPSILH
 70
     0
  9
$DIMSCALE
 40
1.0
  9
$DIMASZ
 40
0.18
  9
$DIMEXO
 40
0.0625
  9
$DIMDLI
 40
0.38
  9
$DIMRND
 40
0.0
  9
$DIMDLE
 40
0.0
  9
$DIMEXE
 40
0.18
  9
$DIMTP
 40
0.0
  9
$DIMTM
 40
0.0
  9
$DIMTXT
 40
0.18
  9
$DIMCEN
 40
0.09
  9
$DIMTSZ
 40
0.0
  9
$DIMTOL
 70
     0
  9
$DIMLIM
 70
     0
  9
$DIMTIH
 70
     1
  9
$DIMTOH
 70
     1
  9
$DIMSE1
 70
     0
  9
$DIMSE2
 70
     0
  9
$DIMTAD
 70
     0
  9
$DIMZIN
 70
     0
  9
$DIMBLK
  1

  9
$DIMASO
 70
     1
  9
$DIMSHO
 70
     1
  9
$DIMPOST
  1

  9
$DIMAPOST
  1

  9
$DIMALT
 70
     0
  9
$DIMALTD
 70
     2
  9
$DIMALTF
 40
25.4
  9
$DIMLFAC
 40
1.0
  9
$DIMTOFL
 70
     0
  9
$DIMTVP
 40
0.0
  9
$DIMTIX
 70
     0
  9
$DIMSOXD
 70
     0
  9
$DIMSAH
 70
     0
  9
$DIMBLK1
  1

  9
$DIMBLK2
  1

  9
$DIMSTYLE
  2
Standard
  9
$DIMCLRD
 70
     0
  9
$DIMCLRE
 70
     0
  9
$DIMCLRT
 70
     0
  9
$DIMTFAC
 40
1.0
  9
$DIMGAP
 40
0.09
  9
$DIMJUST
 70
     0
  9
$DIMSD1
 70
     0
  9
$DIMSD2
 70
     0
  9
$DIMTOLJ
 70
     1
  9
$DIMTZIN
 70
     0
  9
$DIMALTZ
 70
     0
  9
$DIMALTTZ
 70
     0
  9
$DIMUPT
 70
     0
  9
$DIMDEC
 70
     4
  9
$DIMTDEC
 70
     4
  9
$DIMALTU
 70
     2
  9
$DIMALTTD
 70
     2
  9
$DIMTXSTY
  7
Standard
  9
$DIMAUNIT
 70
     0
  9
$DIMADEC
 70
     0
  9
$DIMALTRND
 40
0.0
  9
$DIMAZIN
 70
     0
  9
$DIMDSEP
 70
    46
  9
$DIMATFIT
 70
     3
  9
$DIMFRAC
 70
     0
  9
$DIMLDRBLK
  1

  9
$DIMLUNIT
 70
     2
  9
$DIMLWD
 70
    -2
  9
$DIMLWE
 70
    -2
  9
$DIMTMOVE
 70
     0
  9
$DIMFXL
 40
1.0
  9
$DIMFXLON
 70
     0
  9
$DIMJOGANG
 40
0.7853981633974483
  9
$DIMTFILL
 70
     0
  9
$DIMTFILLCLR
 70
     0
  9
$DIMARCSYM
 70
     0
  9
$DIMLTYPE
  6

  9
$DIMLTEX1
  6

  9
$DIMLTEX2
  6

  9
$DIMTXTDIRECTION
 70
     0
  9
$LUNITS
 70
     2
  9
$LUPREC
 70
     4
  9
$SKETCHINC
 40
0.1
  9
$FILLETRAD
 40
0.5
  9
$AUNITS
 70
     0
  9
$AUPREC
 70
     0
  9
$MENU
  1
.
  9
$ELEVATION
 40
0.0
  9
$PELEVATION
 40
0.0
  9
$THICKNESS
 40
0.0
  9
$LIMCHECK
 70
     0
  9
$CHAMFERA
 40
0.5
  9
$CHAMFERB
 40
0.5
  9
$CHAMFERC
 40
1.0
  9
$CHAMFERD
 40
0.0
  9
$SKPOLY
 70
     0
  9
$TDCREATE
 40
2459337.681393565
  9
$TDUCREATE
 40
2459337.556393565
  9
$TDUPDATE
 40
2459337.681393565
  9
$TDUUPDATE
 40
2459337.556393565
  9
$TDINDWG
 40
0.0000000116
  9
$TDUSRTIMER
 40
0.0000000116
  9
$USRTIMER
 70
     1
  9
$ANGBASE
 50
0.0
  9
$ANGDIR
 70
     0
  9
$PDMODE
 70
     0
  9
$PDSIZE
 40
0.0
  9
$PLINEWID
 40
0.0
  9
$SPLFRAME
 70
     0
  9
$SPLINETYPE
 70
     6
  9
$SPLINESEGS
 70
     8
  9
$HANDSEED
  5
52
  9
$SURFTAB1
 70
     6
  9
$SURFTAB2
 70
     6
  9
$SURFTYPE
 70
     6
  9
$SURFU
 70
     6
  9
$SURFV
 70
     6
  9
$UCSBASE
  2

  9
$UCSNAME
  2

  9
$UCSORG
 10
0.0
 20
0.0
 30
0.0
  9
$UCSXDIR
 10
1.0
 20
0.0
 30
0.0
  9
$UCSYDIR
 10
0.0
 20
1.0
 30
0.0
  9
$UCSORTHOREF
  2

  9
$UCSORTHOVIEW
 70
     0
  9
$UCSORGTOP
 10
0.0
 20
0.0
 30
0.0
  9
$UCSORGBOTTOM
 10
0.0
 20
0.0
 30
0.0
  9
$UCSORGLEFT
 10
0.0
 20
0.0
 30
0.0
  9
$UCSORGRIGHT
 10
0.0
 20
0.0
 30
0.0
  9
$UCSORGFRONT
 10
0.0
 20
0.0
 30
0.0
  9
$UCSORGBACK
 10
0.0
 20
0.0
 30
0.0
  9
$PUCSBASE
  2

  9
$PUCSNAME
  2

  9
$PUCSORG
 10
0.0
 20
0.0
 30
0.0
  9
$PUCSXDIR
 10
1.0
 20
0.0
 30
0.0
  9
$PUCSYDIR
 10
0.0
 20
1.0
 30
0.0
  9
$PUCSORTHOREF
  2

  9
$PUCSORTHOVIEW
 70
     0
  9
$PUCSORGTOP
 10
0.0
 20
0.0
 30
0.0
  9
$PUCSORGBOTTOM
 10
0.0
 20
0.0
 30
0.0
  9
$PUCSORGLEFT
 10
0.0
 20
0.0
 30
0.0
  9
$PUCSORGRIGHT
 10
0.0
 20
0.0
 30
0.0
  9
$PUCSORGFRONT
 10
0.0
 20
0.0
 30
0.0
  9
$PUCSORGBACK
 10
0.0
 20
0.0
 30
0.0
  9
$USERI1
 70
     0
  9
$USERI2
 70
     0
  9
$USERI3
 70
     0
  9
$USERI4
 70
     0
  9
$USERI5
 70
     0
  9
$USERR1
 40
0.0
  9
$USERR2
 40
0.0
  9
$USERR3
 40
0.0
  9
$USERR4
 40
0.0
  9
$USERR5
 40
0.0
  9
$WORLDVIEW
 70
     1
  9
$SHADEDGE
 70
     3
  9
$SHADEDIF
 70
    70
  9
$TILEMODE
 70
     1
  9
$MAXACTVP
 70
    64
  9
$PINSBASE
 10
0.0
 20
0.0
 30
0.0
  9
$PLIMCHECK
 70
     0
  9
$PEXTMIN
 10
1.000000000000000E+20
 20
1.000000000000000E+20
 30
1.000000000000000E+20
  9
$PEXTMAX
 10
-1.000000000000000E+20
 20
-1.000000000000000E+20
 30
-1.000000000000000E+20
  9
$PLIMMIN
 10
0.0
 20
0.0
  9
$PLIMMAX
 10
12.0
 20
9.0
  9
$UNITMODE
 70
     0
  9
$VISRETAIN
 70
     1
  9
$PLINEGEN
 70
     0
  9
$PSLTSCALE
 70
     1
  9
$TREEDEPTH
 70
  3020
  9
$CMLSTYLE
  2
Standard
  9
$CMLJUST
 70
     0
  9
$CMLSCALE
 40
1.0
  9
$PROXYGRAPHICS
 70
     1
  9
$MEASUREMENT
 70
     0
  9
$CELWEIGHT
370
    -1
  9
$ENDCAPS
280
     0
  9
$JOINSTYLE
280
     0
  9
$LWDISPLAY
290
     1
  9
$INSUNITS
 70
     1
  9
$HYPERLINKBASE
  1

  9
$STYLESHEET
  1

  9
$XEDIT
290
     1
  9
$CEPSNTYPE
380
     0
  9
$PSTYLEMODE
290
     1
  9
$FINGERPRINTGUID
  2
{A8C401F4-59C0-4928-8E3F-ECFA6B3C2ED4}
  9
$VERSIONGUID
  2
{FAEB1C32-E019-11D5-929B-00C0DF256EC4}
  9
$EXTNAMES
290
     1
  9
$PSVPSCALE
 40
0.0
  9
$OLESTARTUP
290
     0
  9
$SORTENTS
280
   127
  9
$INDEXCTL
280
     0
  9
$HIDETEXT
280
     1
  9
$XCLIPFRAME
280
     2
  9
$HALOGAP
280
     0
  9
$OBSCOLOR
 70
   257
  9
$OBSLTYPE
280
     0
  9
$INTERSECTIONDISPLAY
280
     0
  9
$INTERSECTIONCOLOR
 70
   257
  9
$DIMASSOC
280
     2
  9
$PROJECTNAME
  1

  9
$CAMERADISPLAY
290
     0
  9
$LENSLENGTH
 40
50.0
  9
$CAMERAHEIGHT
 40
0.0
  9
$STEPSPERSEC
 40
2.0
  9
$STEPSIZE
 40
6.0
  9
$3DDWFPREC
 40
2.0
  9
$PSOLWIDTH
 40
0.25
  9
$PSOLHEIGHT
 40
4.0
  9
$LOFTANG1
 40
1.570796326794897
  9
$LOFTANG2
 40
1.570796326794897
  9
$LOFTMAG1
 40
0.0
  9
$LOFTMAG2
 40
0.0
  9
$LOFTPARAM
 70
     7
  9
$LOFTNORMALS
280
     1
  9
$LATITUDE
 40
37.795
  9
$LONGITUDE
 40
-122.394
  9
$NORTHDIRECTION
 40
0.0
  9
$TIMEZONE
 70
 -8000
  9
$LIGHTGLYPHDISPLAY
280
     1
  9
$TILEMODELIGHTSYNCH
280
     1
  9
$CMATERIAL
347
3C
  9
$SOLIDHIST
280
     1
  9
$SHOWHIST
280
     1
  9
$DWFFRAME
280
     2
  9
$DGNFRAME
280
     2
  9
$REALWORLDSCALE
290
     1
  9
$INTERFERECOLOR
 62
   256
  9
$CSHADOW
280
     0
  9
$SHADOWPLANELOCATION
 40
0.0
  0
ENDSEC
  0
SECTION
  2
CLASSES
  0
CLASS
  1
ACDBDICTIONARYWDFLT
  2
AcDbDictionaryWithDefault
  3
ObjectDBX Classes
 90
        0
 91
        4
280
     0
281
     0
  0
CLASS
  1
VISUALSTYLE
  2
AcDbVisualStyle
  3
ObjectDBX Classes
 90
     4095
 91
        4
280
     0
281
     0
  0
CLASS
  1
MATERIAL
  2
AcDbMaterial
  3
ObjectDBX Classes
 90
     1153
 91
        4
280
     0
281
     0
  0
CLASS
  1
SUN
  2
AcDbSun
  3
SCENEOE
 90
     1024
 91
        4
280
     0
281
     0
  0
ENDSEC
  0
SECTION
  2
TABLES
  0
TABLE
  2
VPORT
  5
8
330
0
100
AcDbSymbolTable
 70
     1
  0
VPORT
  5
29
330
8
100
AcDbSymbolTableRecord
100
AcDbViewportTableRecord
  2
*Active
 70
     0
 10
0.0
 20
0.0
 11
1.0
 21
1.0
 12
0.0
 22
0.0
 13
0.0
 23
0.0
 14
0.5
 24
0.5
 15
0.5
 25
0.5
 16
0.0
 26
0.0
 36
1.0
 17
6.279019889920315
 27
-6.044859722222226
 37
0.0
 40
12.0
 41
0.5959348229083826
 42
50.0
 43
0.0
 44
0.0
 50
0.0
 51
0.0
 71
     0
 72
   100
 73
     1
 74
     3
 75
     0
 76
     0
 77
     0
 78
     0
281
     0
 65
     1
110
0.0
120
0.0
130
0.0
111
1.0
121
0.0
131
0.0
112
0.0
122
1.0
132
0.0
 79
     0
146
0.0
 60
     3
 61
     5
292
     1
282
     1
141
0.0
142
0.0
 63
   250
361
3F
  0
ENDTAB
  0
TABLE
  2
LTYPE
  5
5
330
0
100
AcDbSymbolTable
 70
     1
  0
LTYPE
  5
14
330
5
100
AcDbSymbolTableRecord
100
AcDbLinetypeTableRecord
  2
ByBlock
 70
     0
  3

 72
    65
 73
     0
 40
0.0
  0
LTYPE
  5
15
330
5
100
AcDbSymbolTableRecord
100
AcDbLinetypeTableRecord
  2
ByLayer
 70
     0
  3

 72
    65
 73
     0
 40
0.0
  0
LTYPE
  5
16
330
5
100
AcDbSymbolTableRecord
100
AcDbLinetypeTableRecord
  2
Continuous
 70
     0
  3
Solid line
 72
    65
 73
     0
 40
0.0
  0
ENDTAB
  0
TABLE
  2
LAYER
  5
2
330
0
100
AcDbSymbolTable
 70
     2
  0
LAYER
  5
10
330
2
100
AcDbSymbolTableRecord
100
AcDbLayerTableRecord
  2
0
 70
     0
 62
     7
  6
Continuous
370
    -3
390
F
347
3E
  0
LAYER
  5
40
330
2
100
AcDbSymbolTableRecord
100
AcDbLayerTableRecord
  2
Layer 1
 70
     0
 62
     7
  6
Continuous
370
    -3
390
F
347
3E
  0
ENDTAB
  0
TABLE
  2
STYLE
  5
3
330
0
100
AcDbSymbolTable
 70
     1
  0
STYLE
  5
11
330
3
100
AcDbSymbolTableRecord
100
AcDbTextStyleTableRecord
  2
Standard
 70
     0
 40
0.0
 41
1.0
 50
0.0
 71
     0
 42
0.2
  3
txt
  4

  0
ENDTAB
  0
TABLE
  2
VIEW
  5
6
330
0
100
AcDbSymbolTable
 70
     0
  0
ENDTAB
  0
TABLE
  2
UCS
  5
7
330
0
100
AcDbSymbolTable
 70
     0
  0
ENDTAB
  0
TABLE
  2
APPID
  5
9
330
0
100
AcDbSymbolTable
 70
     1
  0
APPID
  5
12
330
9
100
AcDbSymbolTableRecord
100
AcDbRegAppTableRecord
  2
ACAD
 70
     0
  0
ENDTAB
  0
TABLE
  2
DIMSTYLE
  5
A
330
0
100
AcDbSymbolTable
 70
     1
100
AcDbDimStyleTable
  0
DIMSTYLE
105
27
330
A
100
AcDbSymbolTableRecord
100
AcDbDimStyleTableRecord
  2
Standard
 70
     0
178
     0
340
11
  0
ENDTAB
  0
TABLE
  2
BLOCK_RECORD
  5
1
330
0
100
AcDbSymbolTable
 70
     1
  0
BLOCK_RECORD
  5
1F
330
1
100
AcDbSymbolTableRecord
100
AcDbBlockTableRecord
  2
*Model_Space
340
22
 70
     0
280
     1
281
     0
  0
BLOCK_RECORD
  5
1B
330
1
100
AcDbSymbolTableRecord
100
AcDbBlockTableRecord
  2
*Paper_Space
340
1E
 70
     0
280
     1
281
     0
  0
BLOCK_RECORD
  5
23
330
1
100
AcDbSymbolTableRecord
100
AcDbBlockTableRecord
  2
*Paper_Space0
340
26
 70
     0
280
     1
281
     0
  0
ENDTAB
  0
ENDSEC
  0
SECTION
  2
BLOCKS
  0
BLOCK
  5
20
330
1F
100
AcDbEntity
  8
0
100
AcDbBlockBegin
  2
*Model_Space
 70
     0
 10
0.0
 20
0.0
 30
0.0
  3
*Model_Space
  1

  0
ENDBLK
  5
21
330
1F
100
AcDbEntity
  8
0
100
AcDbBlockEnd
  0
BLOCK
  5
1C
330
1B
100
AcDbEntity
 67
     1
  8
0
100
AcDbBlockBegin
  2
*Paper_Space
 70
     0
 10
0.0
 20
0.0
 30
0.0
  3
*Paper_Space
  1

  0
ENDBLK
  5
1D
330
1B
100
AcDbEntity
 67
     1
  8
0
100
AcDbBlockEnd
  0
BLOCK
  5
24
330
23
100
AcDbEntity
  8
0
100
AcDbBlockBegin
  2
*Paper_Space0
 70
     0
 10
0.0
 20
0.0
 30
0.0
  3
*Paper_Space0
  1

  0
ENDBLK
  5
25
330
23
100
AcDbEntity
  8
0
100
AcDbBlockEnd
  0
ENDSEC
  0
SECTION
  2
ENTITIES
  0
SPLINE
  5
41
330
1F
100
AcDbEntity
  8
Layer 1
370
     0
100
AcDbSpline
210
0.0
220
0.0
230
1.0
 70
    11
 71
     3
 72
    29
 73
    25
 74
     0
 42
0.0000000001
 43
0.0000000001
 12
1.0
 22
0.0
 32
0.0
 13
1.0
 23
0.0
 33
0.0
 40
0.0
 40
0.0
 40
0.0
 40
0.0
 40
1.0
 40
1.0
 40
1.0
 40
2.0
 40
2.0
 40
2.0
 40
3.0
 40
3.0
 40
3.0
 40
4.0
 40
4.0
 40
4.0
 40
5.0
 40
5.0
 40
5.0
 40
6.0
 40
6.0
 40
6.0
 40
7.0
 40
7.0
 40
7.0
 40
8.0
 40
8.0
 40
8.0
 40
8.0
 10
6.27902623026734
 20
-11.5832638888889
 30
0.0
 10
6.27902623026734
 20
-11.5832638888889
 30
0.0
 10
6.279019285823071
 20
-11.5832638888889
 30
0.0
 10
6.279019285823071
 20
-11.5832638888889
 30
0.0
 10
4.545087385181432
 20
-11.5832638888889
 30
0.0
 10
3.139458333333335
 20
-10.17763472222221
 30
0.0
 10
3.139458333333335
 20
-8.443702777777768
 30
0.0
 10
3.139458333333335
 20
-8.443702777777768
 30
0.0
 10
3.139458333333335
 20
-3.646015277777779
 30
0.0
 10
3.139458333333335
 20
-3.646015277777779
 30
0.0
 10
3.139458333333335
 20
-1.912084722222226
 30
0.0
 10
4.545087385181432
 20
-0.5064555555555519
 30
0.0
 10
6.279017896934217
 20
-0.5064555555555519
 30
0.0
 10
6.279017896934217
 20
-0.5064555555555519
 30
0.0
 10
6.279024841378487
 20
-0.5064555555555519
 30
0.0
 10
6.279024841378487
 20
-0.5064555555555519
 30
0.0
 10
8.012956742020126
 20
-0.5064555555555519
 30
0.0
 10
9.418587262066467
 20
-1.912084722222226
 30
0.0
 10
9.418587262066467
 20
-3.64601805555555
 30
0.0
 10
9.418587262066467
 20
-3.64601805555555
 30
0.0
 10
9.418587262066467
 20
-8.443702777777768
 30
0.0
 10
9.418587262066467
 20
-8.443702777777768
 30
0.0
 10
9.418587262066467
 20
-10.17763472222221
 30
0.0
 10
8.012958333333346
 20
-11.5832638888889
 30
0.0
 10
6.27902623026734
 20
-11.5832638888889
 30
0.0
  0
HATCH
  5
42
330
1F
100
AcDbEntity
  8
Layer 1
 62
    35
420
 10579544
100
AcDbHatch
 10
0.0
 20
0.0
 30
0.0
210
0.0
220
0.0
230
1.0
  2
SOLID
 70
     1
 71
     0
 91
        1
 92
        1
 93
        1
 72
     4
 94
        3
 73
     0
 74
     1
 95
       29
 96
       25
 40
0.0
 40
0.0
 40
0.0
 40
0.0
 40
1.0
 40
1.0
 40
1.0
 40
2.0
 40
2.0
 40
2.0
 40
3.0
 40
3.0
 40
3.0
 40
4.0
 40
4.0
 40
4.0
 40
5.0
 40
5.0
 40
5.0
 40
6.0
 40
6.0
 40
6.0
 40
7.0
 40
7.0
 40
7.0
 40
8.0
 40
8.0
 40
8.0
 40
8.0
 10
6.27902623026734
 20
-11.5832638888889
 10
6.27902623026734
 20
-11.5832638888889
 10
6.279019285823071
 20
-11.5832638888889
 10
6.279019285823071
 20
-11.5832638888889
 10
4.545087385181432
 20
-11.5832638888889
 10
3.139458333333335
 20
-10.17763472222221
 10
3.139458333333335
 20
-8.443702777777768
 10
3.139458333333335
 20
-8.443702777777768
 10
3.139458333333335
 20
-3.646015277777779
 10
3.139458333333335
 20
-3.646015277777779
 10
3.139458333333335
 20
-1.912084722222226
 10
4.545087385181432
 20
-0.5064555555555519
 10
6.279017896934217
 20
-0.5064555555555519
 10
6.279017896934217
 20
-0.5064555555555519
 10
6.279024841378487
 20
-0.5064555555555519
 10
6.279024841378487
 20
-0.5064555555555519
 10
8.012956742020126
 20
-0.5064555555555519
 10
9.418587262066467
 20
-1.912084722222226
 10
9.418587262066467
 20
-3.64601805555555
 10
9.418587262066467
 20
-3.64601805555555
 10
9.418587262066467
 20
-8.443702777777768
 10
9.418587262066467
 20
-8.443702777777768
 10
9.418587262066467
 20
-10.17763472222221
 10
8.012958333333346
 20
-11.5832638888889
 10
6.27902623026734
 20
-11.5832638888889
 97
        0
 97
        0
 75
     2
 76
     1
 98
        0
  0
SPLINE
  5
43
330
1F
100
AcDbEntity
  8
Layer 1
370
     0
100
AcDbSpline
210
0.0
220
0.0
230
1.0
 70
    11
 71
     3
 72
    35
 73
    31
 74
     0
 42
0.0000000001
 43
0.0000000001
 12
1.0
 22
0.0
 32
0.0
 13
1.0
 23
0.0
 33
0.0
 40
0.0
 40
0.0
 40
0.0
 40
0.0
 40
1.0
 40
1.0
 40
1.0
 40
2.0
 40
2.0
 40
2.0
 40
3.0
 40
3.0
 40
3.0
 40
4.0
 40
4.0
 40
4.0
 40
5.0
 40
5.0
 40
5.0
 40
6.0
 40
6.0
 40
6.0
 40
7.0
 40
7.0
 40
7.0
 40
8.0
 40
8.0
 40
8.0
 40
9.0
 40
9.0
 40
9.0
 40
10.0
 40
10.0
 40
10.0
 40
10.0
 10
6.279022063600778
 20
-12.04485972222223
 30
0.0
 10
5.323947087728002
 20
-12.04485972222223
 30
0.0
 10
4.426024888189204
 20
-11.68550694444444
 30
0.0
 10
3.750681849694249
 20
-11.03300555555554
 30
0.0
 10
3.075340200088148
 20
-10.38051805555556
 30
0.0
 10
2.703411042817202
 20
-9.512972222222212
 30
0.0
 10
2.703411042817202
 20
-8.590186111111102
 30
0.0
 10
2.703411042817202
 20
-8.590186111111102
 30
0.0
 10
2.703411042817202
 20
-3.499541666666662
 30
0.0
 10
2.703411042817202
 20
-3.499541666666662
 30
0.0
 10
2.703411042817202
 20
-2.576765277777781
 30
0.0
 10
3.075340200088148
 20
-1.70921527777778
 30
0.0
 10
3.750681849694249
 20
-1.056713888888895
 30
0.0
 10
4.426024888189204
 20
-0.4042124999999967
 30
0.0
 10
5.32393875439488
 20
-0.0448593055555572
 30
0.0
 10
6.279017896934217
 20
-0.0448593055555572
 30
0.0
 10
7.234101206140116
 20
-0.0448593055555572
 30
0.0
 10
8.132015072345792
 20
-0.4042124999999967
 30
0.0
 10
8.807356721951894
 20
-1.056713888888895
 30
0.0
 10
9.482705316002264
 20
-1.709209722222226
 30
0.0
 10
9.854628917717793
 20
-2.576765277777781
 30
0.0
 10
9.854628917717793
 20
-3.499541666666662
 30
0.0
 10
9.854628917717793
 20
-3.499541666666662
 30
0.0
 10
9.854628917717793
 20
-8.590186111111102
 30
0.0
 10
9.854628917717793
 20
-8.590186111111102
 30
0.0
 10
9.854628917717793
 20
-9.512972222222212
 30
0.0
 10
9.482705316002264
 20
-10.38051805555556
 30
0.0
 10
8.807356721951894
 20
-11.03300555555554
 30
0.0
 10
8.132015072345792
 20
-11.68550694444444
 30
0.0
 10
7.234101206140116
 20
-12.04485972222223
 30
0.0
 10
6.279022063600778
 20
-12.04485972222223
 30
0.0
  0
SPLINE
  5
44
330
1F
100
AcDbEntity
  8
Layer 1
370
     0
100
AcDbSpline
210
0.0
220
0.0
230
1.0
 70
    11
 71
     3
 72
    26
 73
    22
 74
     0
 42
0.0000000001
 43
0.0000000001
 12
1.0
 22
0.0
 32
0.0
 13
1.0
 23
0.0
 33
0.0
 40
0.0
 40
0.0
 40
0.0
 40
0.0
 40
1.0
 40
1.0
 40
1.0
 40
2.0
 40
2.0
 40
2.0
 40
3.0
 40
3.0
 40
3.0
 40
4.0
 40
4.0
 40
4.0
 40
5.0
 40
5.0
 40
5.0
 40
6.0
 40
6.0
 40
6.0
 40
7.0
 40
7.0
 40
7.0
 40
7.0
 10
6.279022063600778
 20
-0.188420833333339
 30
0.0
 10
4.389351278004546
 20
-0.188420833333339
 30
0.0
 10
2.851994372397005
 20
-1.673779166666665
 30
0.0
 10
2.851994372397005
 20
-3.499541666666662
 30
0.0
 10
2.851994372397005
 20
-3.499541666666662
 30
0.0
 10
2.851994372397005
 20
-8.590186111111102
 30
0.0
 10
2.851994372397005
 20
-8.590186111111102
 30
0.0
 10
2.851994372397005
 20
-10.41594027777779
 30
0.0
 10
4.389347222222227
 20
-11.90129861111111
 30
0.0
 10
6.279017896934217
 20
-11.90129861111111
 30
0.0
 10
6.279017896934217
 20
-11.90129861111111
 30
0.0
 10
6.279022063600778
 20
-11.90129861111111
 30
0.0
 10
6.279022063600778
 20
-11.90129861111111
 30
0.0
 10
8.168683126975035
 20
-11.90129861111111
 30
0.0
 10
9.706045588137991
 20
-10.41594027777779
 30
0.0
 10
9.706045588137991
 20
-8.590186111111102
 30
0.0
 10
9.706045588137991
 20
-8.590186111111102
 30
0.0
 10
9.706045588137991
 20
-3.499541666666662
 30
0.0
 10
9.706045588137991
 20
-3.499541666666662
 30
0.0
 10
9.706045588137991
 20
-1.673779166666665
 30
0.0
 10
8.168683126975035
 20
-0.188420833333339
 30
0.0
 10
6.279022063600778
 20
-0.188420833333339
 30
0.0
  0
HATCH
  5
45
330
1F
100
AcDbEntity
  8
Layer 1
 62
    35
420
 10579544
100
AcDbHatch
 10
0.0
 20
0.0
 30
0.0
210
0.0
220
0.0
230
1.0
  2
SOLID
 70
     1
 71
     0
 91
        2
 92
        1
 93
        1
 72
     4
 94
        3
 73
     0
 74
     1
 95
       35
 96
       31
 40
0.0
 40
0.0
 40
0.0
 40
0.0
 40
1.0
 40
1.0
 40
1.0
 40
2.0
 40
2.0
 40
2.0
 40
3.0
 40
3.0
 40
3.0
 40
4.0
 40
4.0
 40
4.0
 40
5.0
 40
5.0
 40
5.0
 40
6.0
 40
6.0
 40
6.0
 40
7.0
 40
7.0
 40
7.0
 40
8.0
 40
8.0
 40
8.0
 40
9.0
 40
9.0
 40
9.0
 40
10.0
 40
10.0
 40
10.0
 40
10.0
 10
6.279022063600778
 20
-12.04485972222223
 10
5.323947087728002
 20
-12.04485972222223
 10
4.426024888189204
 20
-11.68550694444444
 10
3.750681849694249
 20
-11.03300555555554
 10
3.075340200088148
 20
-10.38051805555556
 10
2.703411042817202
 20
-9.512972222222212
 10
2.703411042817202
 20
-8.590186111111102
 10
2.703411042817202
 20
-8.590186111111102
 10
2.703411042817202
 20
-3.499541666666662
 10
2.703411042817202
 20
-3.499541666666662
 10
2.703411042817202
 20
-2.576765277777781
 10
3.075340200088148
 20
-1.70921527777778
 10
3.750681849694249
 20
-1.056713888888895
 10
4.426024888189204
 20
-0.4042124999999967
 10
5.32393875439488
 20
-0.0448593055555572
 10
6.279017896934217
 20
-0.0448593055555572
 10
7.234101206140116
 20
-0.0448593055555572
 10
8.132015072345792
 20
-0.4042124999999967
 10
8.807356721951894
 20
-1.056713888888895
 10
9.482705316002264
 20
-1.709209722222226
 10
9.854628917717793
 20
-2.576765277777781
 10
9.854628917717793
 20
-3.499541666666662
 10
9.854628917717793
 20
-3.499541666666662
 10
9.854628917717793
 20
-8.590186111111102
 10
9.854628917717793
 20
-8.590186111111102
 10
9.854628917717793
 20
-9.512972222222212
 10
9.482705316002264
 20
-10.38051805555556
 10
8.807356721951894
 20
-11.03300555555554
 10
8.132015072345792
 20
-11.68550694444444
 10
7.234101206140116
 20
-12.04485972222223
 10
6.279022063600778
 20
-12.04485972222223
 97
        0
 97
        0
 92
        1
 93
        1
 72
     4
 94
        3
 73
     0
 74
     1
 95
       26
 96
       22
 40
0.0
 40
0.0
 40
0.0
 40
0.0
 40
1.0
 40
1.0
 40
1.0
 40
2.0
 40
2.0
 40
2.0
 40
3.0
 40
3.0
 40
3.0
 40
4.0
 40
4.0
 40
4.0
 40
5.0
 40
5.0
 40
5.0
 40
6.0
 40
6.0
 40
6.0
 40
7.0
 40
7.0
 40
7.0
 40
7.0
 10
6.279022063600778
 20
-0.188420833333339
 10
4.389351278004546
 20
-0.188420833333339
 10
2.851994372397005
 20
-1.673779166666665
 10
2.851994372397005
 20
-3.499541666666662
 10
2.851994372397005
 20
-3.499541666666662
 10
2.851994372397005
 20
-8.590186111111102
 10
2.851994372397005
 20
-8.590186111111102
 10
2.851994372397005
 20
-10.41594027777779
 10
4.389347222222227
 20
-11.90129861111111
 10
6.279017896934217
 20
-11.90129861111111
 10
6.279017896934217
 20
-11.90129861111111
 10
6.279022063600778
 20
-11.90129861111111
 10
6.279022063600778
 20
-11.90129861111111
 10
8.168683126975035
 20
-11.90129861111111
 10
9.706045588137991
 20
-10.41594027777779
 10
9.706045588137991
 20
-8.590186111111102
 10
9.706045588137991
 20
-8.590186111111102
 10
9.706045588137991
 20
-3.499541666666662
 10
9.706045588137991
 20
-3.499541666666662
 10
9.706045588137991
 20
-1.673779166666665
 10
8.168683126975035
 20
-0.188420833333339
 10
6.279022063600778
 20
-0.188420833333339
 97
        0
 97
        0
 75
     2
 76
     1
 98
        0
  0
SPLINE
  5
46
330
1F
100
AcDbEntity
  8
Layer 1
370
     0
100
AcDbSpline
210
0.0
220
0.0
230
1.0
 70
    11
 71
     3
 72
    89
 73
    85
 74
     0
 42
0.0000000001
 43
0.0000000001
 12
1.0
 22
0.0
 32
0.0
 13
1.0
 23
0.0
 33
0.0
 40
0.0
 40
0.0
 40
0.0
 40
0.0
 40
1.0
 40
1.0
 40
1.0
 40
2.0
 40
2.0
 40
2.0
 40
3.0
 40
3.0
 40
3.0
 40
4.0
 40
4.0
 40
4.0
 40
5.0
 40
5.0
 40
5.0
 40
6.0
 40
6.0
 40
6.0
 40
7.0
 40
7.0
 40
7.0
 40
8.0
 40
8.0
 40
8.0
 40
9.0
 40
9.0
 40
9.0
 40
10.0
 40
10.0
 40
10.0
 40
11.0
 40
11.0
 40
11.0
 40
12.0
 40
12.0
 40
12.0
 40
13.0
 40
13.0
 40
13.0
 40
14.0
 40
14.0
 40
14.0
 40
15.0
 40
15.0
 40
15.0
 40
16.0
 40
16.0
 40
16.0
 40
17.0
 40
17.0
 40
17.0
 40
18.0
 40
18.0
 40
18.0
 40
19.0
 40
19.0
 40
19.0
 40
20.0
 40
20.0
 40
20.0
 40
21.0
 40
21.0
 40
21.0
 40
22.0
 40
22.0
 40
22.0
 40
23.0
 40
23.0
 40
23.0
 40
24.0
 40
24.0
 40
24.0
 40
25.0
 40
25.0
 40
25.0
 40
26.0
 40
26.0
 40
26.0
 40
27.0
 40
27.0
 40
27.0
 40
28.0
 40
28.0
 40
28.0
 40
28.0
 10
4.204813782666355
 20
-6.863258333333331
 30
0.0
 10
4.149001284076298
 20
-6.935438888888888
 30
0.0
 10
4.098299896468234
 20
-7.011324999999992
 30
0.0
 10
4.076092952584784
 20
-7.101849999999987
 30
0.0
 10
4.048974897714288
 20
-7.21238333333334
 30
0.0
 10
4.09916795200186
 20
-7.29477777777778
 30
0.0
 10
4.209066560336699
 20
-7.322147222222232
 30
0.0
 10
4.242701281709237
 20
-7.330526388888883
 30
0.0
 10
4.276779058626137
 20
-7.33434027777778
 30
0.0
 10
4.311430555555552
 20
-7.333723611111104
 30
0.0
 10
4.445687387692487
 20
-7.331259722222234
 30
0.0
 10
4.574501273327264
 20
-7.29978194444445
 30
0.0
 10
4.701322103456833
 20
-7.259181944444435
 30
0.0
 10
4.718995714121471
 20
-7.276165277777787
 30
0.0
 10
4.742790157964818
 20
-7.286845833333321
 30
0.0
 10
4.76819444444445
 20
-7.286533333333333
 30
0.0
 10
4.814750000000004
 20
-7.285959722222211
 30
0.0
 10
4.853967932934008
 20
-7.249495833333336
 30
0.0
 10
4.860237377220074
 20
-7.204168055555556
 30
0.0
 10
5.042334594842132
 20
-7.136736111111102
 30
0.0
 10
5.218372090395051
 20
-7.05629861111111
 30
0.0
 10
5.390441530492656
 20
-6.967438888888889
 30
0.0
 10
5.60335263622518
 20
-7.132281944444432
 30
0.0
 10
5.871092907239269
 20
-7.231247222222211
 30
0.0
 10
6.162634566540974
 20
-7.232470833333334
 30
0.0
 10
6.545734556863054
 20
-7.230011111111101
 30
0.0
 10
6.890527777777783
 20
-7.056769444444448
 30
0.0
 10
7.12007620902063
 20
-6.781986111111109
 30
0.0
 10
7.036226211138859
 20
-6.797675000000001
 30
0.0
 10
6.949295657779354
 20
-6.805061111111121
 30
0.0
 10
6.860216493363017
 20
-6.80321666666666
 30
0.0
 10
6.578169278265906
 20
-6.797148611111121
 30
0.0
 10
6.320391507000143
 20
-6.699974999999995
 30
0.0
 10
6.114701234418539
 20
-6.540131944444434
 30
0.0
 10
6.318898451482305
 20
-6.403829166666658
 30
0.0
 10
6.51551233540431
 20
-6.256744444444443
 30
0.0
 10
6.702151219578304
 20
-6.09574722222222
 30
0.0
 10
6.843934549329888
 20
-5.973431944444441
 30
0.0
 10
6.978980379251677
 20
-5.843898611111109
 30
0.0
 10
7.090559543099617
 20
-5.692448611111116
 30
0.0
 10
7.144710930620526
 20
-5.618943055555556
 30
0.0
 10
7.193067873843372
 20
-5.54174444444445
 30
0.0
 10
7.207403984592323
 20
-5.448675000000005
 30
0.0
 10
7.220405373152769
 20
-5.364297222222224
 30
0.0
 10
7.17973611111112
 20
-5.294699999999996
 30
0.0
 10
7.099760931756059
 20
-5.264859722222227
 30
0.0
 10
7.057658155041887
 20
-5.24915138888889
 30
0.0
 10
7.013847222222213
 20
-5.244147222222219
 30
0.0
 10
6.969288712829843
 20
-5.24422222222222
 30
0.0
 10
6.931453991563406
 20
-5.244287500000003
 30
0.0
 10
6.894135936950583
 20
-5.247298611111116
 30
0.0
 10
6.857135937885282
 20
-5.252102777777774
 30
0.0
 10
6.837384549495355
 20
-5.227337500000001
 30
0.0
 10
6.806976216930201
 20
-5.211279166666663
 30
0.0
 10
6.773309551114026
 20
-5.211441666666663
 30
0.0
 10
6.726570663405861
 20
-5.211670833333338
 30
0.0
 10
6.685434553333935
 20
-5.246090277777776
 30
0.0
 10
6.673606775854952
 20
-5.290372222222218
 30
0.0
 10
6.650330387554074
 20
-5.296738888888891
 30
0.0
 10
6.627111111111112
 20
-5.303381944444443
 30
0.0
 10
6.603970666502997
 20
-5.310374999999996
 30
0.0
 10
6.327398451267577
 20
-5.393968055555559
 30
0.0
 10
6.066866513404723
 20
-5.515622222222216
 30
0.0
 10
5.812384575389033
 20
-5.650531944444449
 30
0.0
 10
5.757113743451959
 20
-5.679830555555554
 30
0.0
 10
5.702337355946838
 20
-5.709893055555552
 30
0.0
 10
5.647891523988922
 20
-5.740461111111105
 30
0.0
 10
5.638695690887895
 20
-5.677813888888888
 30
0.0
 10
5.634051246560779
 20
-5.613626388888886
 30
0.0
 10
5.634447079884112
 20
-5.548215277777772
 30
0.0
 10
5.636295690948524
 20
-5.237270833333329
 30
0.0
 10
5.74460818821232
 20
-4.962483333333339
 30
0.0
 10
5.921237350416959
 20
-4.750472222222217
 30
0.0
 10
5.343352642793333
 20
-4.861248611111111
 30
0.0
 10
4.908250000000003
 20
-5.368512500000002
 30
0.0
 10
4.905938764954448
 20
-5.980545833333331
 30
0.0
 10
4.905667931627956
 20
-6.057216666666666
 30
0.0
 10
4.912759598115472
 20
-6.132159722222215
 30
0.0
 10
4.925876264450785
 20
-6.205043055555557
 30
0.0
 10
4.839533211076438
 20
-6.268684722222233
 30
0.0
 10
4.754544324334549
 20
-6.334362499999997
 30
0.0
 10
4.671259604216275
 20
-6.402601388888898
 30
0.0
 10
4.501608219613141
 20
-6.541606944444437
 30
0.0
 10
4.33960266815019
 20
-6.688944444444435
 30
0.0
 10
4.204813782666355
 20
-6.863258333333331
 30
0.0
  0
SPLINE
  5
47
330
1F
100
AcDbEntity
  8
Layer 1
370
     0
100
AcDbSpline
210
0.0
220
0.0
230
1.0
 70
    11
 71
     3
 72
    44
 73
    40
 74
     0
 42
0.0000000001
 43
0.0000000001
 12
1.0
 22
0.0
 32
0.0
 13
1.0
 23
0.0
 33
0.0
 40
0.0
 40
0.0
 40
0.0
 40
0.0
 40
1.0
 40
1.0
 40
1.0
 40
2.0
 40
2.0
 40
2.0
 40
3.0
 40
3.0
 40
3.0
 40
4.0
 40
4.0
 40
4.0
 40
5.0
 40
5.0
 40
5.0
 40
6.0
 40
6.0
 40
6.0
 40
7.0
 40
7.0
 40
7.0
 40
8.0
 40
8.0
 40
8.0
 40
9.0
 40
9.0
 40
9.0
 40
10.0
 40
10.0
 40
10.0
 40
11.0
 40
11.0
 40
11.0
 40
12.0
 40
12.0
 40
12.0
 40
13.0
 40
13.0
 40
13.0
 40
13.0
 10
5.869426240614707
 20
-5.724523611111104
 30
0.0
 10
6.122884567545143
 20
-5.590154166666669
 30
0.0
 10
6.383179005413997
 20
-5.47154444444445
 30
0.0
 10
6.658984554002118
 20
-5.389855555555553
 30
0.0
 10
6.669941498169767
 20
-5.386611111111114
 30
0.0
 10
6.680926220114492
 20
-5.383502777777772
 30
0.0
 10
6.69191927539234
 20
-5.380444444444442
 30
0.0
 10
6.711212330460512
 20
-5.405933333333337
 30
0.0
 10
6.741416666666661
 20
-5.422547222222217
 30
0.0
 10
6.775035939959302
 20
-5.422369444444446
 30
0.0
 10
6.824155383162886
 20
-5.422104166666663
 30
0.0
 10
6.86587500000001
 20
-5.387549999999995
 30
0.0
 10
6.877223437377829
 20
-5.342161111111105
 30
0.0
 10
6.910423436539126
 20
-5.338127777777774
 30
0.0
 10
6.943880380138378
 20
-5.335634722222216
 30
0.0
 10
6.977734545949816
 20
-5.335565277777783
 30
0.0
 10
7.00987499999999
 20
-5.335499999999999
 30
0.0
 10
7.041556766559753
 20
-5.339911111111115
 30
0.0
 10
7.071535932469082
 20
-5.352347222222217
 30
0.0
 10
7.103537320549549
 20
-5.365633333333335
 30
0.0
 10
7.118802597941693
 20
-5.389080555555552
 30
0.0
 10
7.117005375764872
 20
-5.424577777777775
 30
0.0
 10
7.114951209150099
 20
-5.465163888888886
 30
0.0
 10
7.099723431757006
 20
-5.50124861111111
 30
0.0
 10
7.080984543341502
 20
-5.535909722222224
 30
0.0
 10
7.021310933737873
 20
-5.646302777777779
 30
0.0
 10
6.939497046915776
 20
-5.739802777777779
 30
0.0
 10
6.852365104672471
 20
-5.828688888888892
 30
0.0
 10
6.6605484428515
 20
-6.024375000000001
 30
0.0
 10
6.446881781582507
 20
-6.194208333333336
 30
0.0
 10
6.223783176107341
 20
-6.352283333333339
 30
0.0
 10
6.163348455411829
 20
-6.395100000000006
 30
0.0
 10
6.10236373473021
 20
-6.436945833333336
 30
0.0
 10
6.040920680726837
 20
-6.477979166666677
 30
0.0
 10
5.856508185385488
 20
-6.310265277777766
 30
0.0
 10
5.723433188747245
 20
-6.088087500000003
 30
0.0
 10
5.666065134640929
 20
-5.836148611111108
 30
0.0
 10
5.733254021832484
 20
-5.798056944444448
 30
0.0
 10
5.801004020120975
 20
-5.760795833333329
 30
0.0
 10
5.869426240614707
 20
-5.724523611111104
 30
0.0
  0
SPLINE
  5
48
330
1F
100
AcDbEntity
  8
Layer 1
370
     0
100
AcDbSpline
210
0.0
220
0.0
230
1.0
 70
    11
 71
     3
 72
    41
 73
    37
 74
     0
 42
0.0000000001
 43
0.0000000001
 12
1.0
 22
0.0
 32
0.0
 13
1.0
 23
0.0
 33
0.0
 40
0.0
 40
0.0
 40
0.0
 40
0.0
 40
1.0
 40
1.0
 40
1.0
 40
2.0
 40
2.0
 40
2.0
 40
3.0
 40
3.0
 40
3.0
 40
4.0
 40
4.0
 40
4.0
 40
5.0
 40
5.0
 40
5.0
 40
6.0
 40
6.0
 40
6.0
 40
7.0
 40
7.0
 40
7.0
 40
8.0
 40
8.0
 40
8.0
 40
9.0
 40
9.0
 40
9.0
 40
10.0
 40
10.0
 40
10.0
 40
11.0
 40
11.0
 40
11.0
 40
12.0
 40
12.0
 40
12.0
 40
12.0
 10
5.313458333333339
 20
-6.903148611111115
 30
0.0
 10
5.192612368823575
 20
-6.963638888888883
 30
0.0
 10
5.069629038597061
 20
-7.020320833333344
 30
0.0
 10
4.944124999999998
 20
-7.072491666666665
 30
0.0
 10
4.905476264966132
 20
-7.088559722222221
 30
0.0
 10
4.866641543724957
 20
-7.104062500000004
 30
0.0
 10
4.827573489156344
 20
-7.118851388888894
 30
0.0
 10
4.811099878461391
 20
-7.104683333333342
 30
0.0
 10
4.790092934547626
 20
-7.095673611111098
 30
0.0
 10
4.766822101802163
 20
-7.09536111111111
 30
0.0
 10
4.722115158487112
 20
-7.094763888888893
 30
0.0
 10
4.682790159480545
 20
-7.128622222222222
 30
0.0
 10
4.673509604159436
 20
-7.171998611111121
 30
0.0
 10
4.598883217155768
 20
-7.19518611111112
 30
0.0
 10
4.523119330180836
 20
-7.214769444444451
 30
0.0
 10
4.445598498805844
 20
-7.228684722222219
 30
0.0
 10
4.403165166544467
 20
-7.236304166666665
 30
0.0
 10
4.360605445397393
 20
-7.242269444444446
 30
0.0
 10
4.320244335305889
 20
-7.241055555555552
 30
0.0
 10
4.285320725077023
 20
-7.241205555555553
 30
0.0
 10
4.253358225884464
 20
-7.240873611111105
 30
0.0
 10
4.222333333333331
 20
-7.231149999999994
 30
0.0
 10
4.170492950200039
 20
-7.214909722222223
 30
0.0
 10
4.152212395106289
 20
-7.183841666666669
 30
0.0
 10
4.164242950357927
 20
-7.129411111111115
 30
0.0
 10
4.177211005585883
 20
-7.070713888888879
 30
0.0
 10
4.206717949284918
 20
-7.01956805555556
 30
0.0
 10
4.24027350399279
 20
-6.970725000000003
 30
0.0
 10
4.334286001617834
 20
-6.833881944444455
 30
0.0
 10
4.450501276459767
 20
-6.717004166666659
 30
0.0
 10
4.573858217787953
 20
-6.607330555555563
 30
0.0
 10
4.694451270297072
 20
-6.500111111111108
 30
0.0
 10
4.819180555555552
 20
-6.398913888888879
 30
0.0
 10
4.947480430571684
 20
-6.30295000000001
 30
0.0
 10
5.009656817889865
 20
-6.536933333333334
 30
0.0
 10
5.138672092408442
 20
-6.744131944444436
 30
0.0
 10
5.313458333333339
 20
-6.903148611111115
 30
0.0
  0
HATCH
  5
49
330
1F
100
AcDbEntity
  8
Layer 1
 62
     7
420
 16314339
100
AcDbHatch
 10
0.0
 20
0.0
 30
0.0
210
0.0
220
0.0
230
1.0
  2
SOLID
 70
     1
 71
     0
 91
        3
 92
        1
 93
        1
 72
     4
 94
        3
 73
     0
 74
     1
 95
       89
 96
       85
 40
0.0
 40
0.0
 40
0.0
 40
0.0
 40
1.0
 40
1.0
 40
1.0
 40
2.0
 40
2.0
 40
2.0
 40
3.0
 40
3.0
 40
3.0
 40
4.0
 40
4.0
 40
4.0
 40
5.0
 40
5.0
 40
5.0
 40
6.0
 40
6.0
 40
6.0
 40
7.0
 40
7.0
 40
7.0
 40
8.0
 40
8.0
 40
8.0
 40
9.0
 40
9.0
 40
9.0
 40
10.0
 40
10.0
 40
10.0
 40
11.0
 40
11.0
 40
11.0
 40
12.0
 40
12.0
 40
12.0
 40
13.0
 40
13.0
 40
13.0
 40
14.0
 40
14.0
 40
14.0
 40
15.0
 40
15.0
 40
15.0
 40
16.0
 40
16.0
 40
16.0
 40
17.0
 40
17.0
 40
17.0
 40
18.0
 40
18.0
 40
18.0
 40
19.0
 40
19.0
 40
19.0
 40
20.0
 40
20.0
 40
20.0
 40
21.0
 40
21.0
 40
21.0
 40
22.0
 40
22.0
 40
22.0
 40
23.0
 40
23.0
 40
23.0
 40
24.0
 40
24.0
 40
24.0
 40
25.0
 40
25.0
 40
25.0
 40
26.0
 40
26.0
 40
26.0
 40
27.0
 40
27.0
 40
27.0
 40
28.0
 40
28.0
 40
28.0
 40
28.0
 10
4.204813782666355
 20
-6.863258333333331
 10
4.149001284076298
 20
-6.935438888888888
 10
4.098299896468234
 20
-7.011324999999992
 10
4.076092952584784
 20
-7.101849999999987
 10
4.048974897714288
 20
-7.21238333333334
 10
4.09916795200186
 20
-7.29477777777778
 10
4.209066560336699
 20
-7.322147222222232
 10
4.242701281709237
 20
-7.330526388888883
 10
4.276779058626137
 20
-7.33434027777778
 10
4.311430555555552
 20
-7.333723611111104
 10
4.445687387692487
 20
-7.331259722222234
 10
4.574501273327264
 20
-7.29978194444445
 10
4.701322103456833
 20
-7.259181944444435
 10
4.718995714121471
 20
-7.276165277777787
 10
4.742790157964818
 20
-7.286845833333321
 10
4.76819444444445
 20
-7.286533333333333
 10
4.814750000000004
 20
-7.285959722222211
 10
4.853967932934008
 20
-7.249495833333336
 10
4.860237377220074
 20
-7.204168055555556
 10
5.042334594842132
 20
-7.136736111111102
 10
5.218372090395051
 20
-7.05629861111111
 10
5.390441530492656
 20
-6.967438888888889
 10
5.60335263622518
 20
-7.132281944444432
 10
5.871092907239269
 20
-7.231247222222211
 10
6.162634566540974
 20
-7.232470833333334
 10
6.545734556863054
 20
-7.230011111111101
 10
6.890527777777783
 20
-7.056769444444448
 10
7.12007620902063
 20
-6.781986111111109
 10
7.036226211138859
 20
-6.797675000000001
 10
6.949295657779354
 20
-6.805061111111121
 10
6.860216493363017
 20
-6.80321666666666
 10
6.578169278265906
 20
-6.797148611111121
 10
6.320391507000143
 20
-6.699974999999995
 10
6.114701234418539
 20
-6.540131944444434
 10
6.318898451482305
 20
-6.403829166666658
 10
6.51551233540431
 20
-6.256744444444443
 10
6.702151219578304
 20
-6.09574722222222
 10
6.843934549329888
 20
-5.973431944444441
 10
6.978980379251677
 20
-5.843898611111109
 10
7.090559543099617
 20
-5.692448611111116
 10
7.144710930620526
 20
-5.618943055555556
 10
7.193067873843372
 20
-5.54174444444445
 10
7.207403984592323
 20
-5.448675000000005
 10
7.220405373152769
 20
-5.364297222222224
 10
7.17973611111112
 20
-5.294699999999996
 10
7.099760931756059
 20
-5.264859722222227
 10
7.057658155041887
 20
-5.24915138888889
 10
7.013847222222213
 20
-5.244147222222219
 10
6.969288712829843
 20
-5.24422222222222
 10
6.931453991563406
 20
-5.244287500000003
 10
6.894135936950583
 20
-5.247298611111116
 10
6.857135937885282
 20
-5.252102777777774
 10
6.837384549495355
 20
-5.227337500000001
 10
6.806976216930201
 20
-5.211279166666663
 10
6.773309551114026
 20
-5.211441666666663
 10
6.726570663405861
 20
-5.211670833333338
 10
6.685434553333935
 20
-5.246090277777776
 10
6.673606775854952
 20
-5.290372222222218
 10
6.650330387554074
 20
-5.296738888888891
 10
6.627111111111112
 20
-5.303381944444443
 10
6.603970666502997
 20
-5.310374999999996
 10
6.327398451267577
 20
-5.393968055555559
 10
6.066866513404723
 20
-5.515622222222216
 10
5.812384575389033
 20
-5.650531944444449
 10
5.757113743451959
 20
-5.679830555555554
 10
5.702337355946838
 20
-5.709893055555552
 10
5.647891523988922
 20
-5.740461111111105
 10
5.638695690887895
 20
-5.677813888888888
 10
5.634051246560779
 20
-5.613626388888886
 10
5.634447079884112
 20
-5.548215277777772
 10
5.636295690948524
 20
-5.237270833333329
 10
5.74460818821232
 20
-4.962483333333339
 10
5.921237350416959
 20
-4.750472222222217
 10
5.343352642793333
 20
-4.861248611111111
 10
4.908250000000003
 20
-5.368512500000002
 10
4.905938764954448
 20
-5.980545833333331
 10
4.905667931627956
 20
-6.057216666666666
 10
4.912759598115472
 20
-6.132159722222215
 10
4.925876264450785
 20
-6.205043055555557
 10
4.839533211076438
 20
-6.268684722222233
 10
4.754544324334549
 20
-6.334362499999997
 10
4.671259604216275
 20
-6.402601388888898
 10
4.501608219613141
 20
-6.541606944444437
 10
4.33960266815019
 20
-6.688944444444435
 10
4.204813782666355
 20
-6.863258333333331
 97
        0
 97
        0
 92
        1
 93
        1
 72
     4
 94
        3
 73
     0
 74
     1
 95
       44
 96
       40
 40
0.0
 40
0.0
 40
0.0
 40
0.0
 40
1.0
 40
1.0
 40
1.0
 40
2.0
 40
2.0
 40
2.0
 40
3.0
 40
3.0
 40
3.0
 40
4.0
 40
4.0
 40
4.0
 40
5.0
 40
5.0
 40
5.0
 40
6.0
 40
6.0
 40
6.0
 40
7.0
 40
7.0
 40
7.0
 40
8.0
 40
8.0
 40
8.0
 40
9.0
 40
9.0
 40
9.0
 40
10.0
 40
10.0
 40
10.0
 40
11.0
 40
11.0
 40
11.0
 40
12.0
 40
12.0
 40
12.0
 40
13.0
 40
13.0
 40
13.0
 40
13.0
 10
5.869426240614707
 20
-5.724523611111104
 10
6.122884567545143
 20
-5.590154166666669
 10
6.383179005413997
 20
-5.47154444444445
 10
6.658984554002118
 20
-5.389855555555553
 10
6.669941498169767
 20
-5.386611111111114
 10
6.680926220114492
 20
-5.383502777777772
 10
6.69191927539234
 20
-5.380444444444442
 10
6.711212330460512
 20
-5.405933333333337
 10
6.741416666666661
 20
-5.422547222222217
 10
6.775035939959302
 20
-5.422369444444446
 10
6.824155383162886
 20
-5.422104166666663
 10
6.86587500000001
 20
-5.387549999999995
 10
6.877223437377829
 20
-5.342161111111105
 10
6.910423436539126
 20
-5.338127777777774
 10
6.943880380138378
 20
-5.335634722222216
 10
6.977734545949816
 20
-5.335565277777783
 10
7.00987499999999
 20
-5.335499999999999
 10
7.041556766559753
 20
-5.339911111111115
 10
7.071535932469082
 20
-5.352347222222217
 10
7.103537320549549
 20
-5.365633333333335
 10
7.118802597941693
 20
-5.389080555555552
 10
7.117005375764872
 20
-5.424577777777775
 10
7.114951209150099
 20
-5.465163888888886
 10
7.099723431757006
 20
-5.50124861111111
 10
7.080984543341502
 20
-5.535909722222224
 10
7.021310933737873
 20
-5.646302777777779
 10
6.939497046915776
 20
-5.739802777777779
 10
6.852365104672471
 20
-5.828688888888892
 10
6.6605484428515
 20
-6.024375000000001
 10
6.446881781582507
 20
-6.194208333333336
 10
6.223783176107341
 20
-6.352283333333339
 10
6.163348455411829
 20
-6.395100000000006
 10
6.10236373473021
 20
-6.436945833333336
 10
6.040920680726837
 20
-6.477979166666677
 10
5.856508185385488
 20
-6.310265277777766
 10
5.723433188747245
 20
-6.088087500000003
 10
5.666065134640929
 20
-5.836148611111108
 10
5.733254021832484
 20
-5.798056944444448
 10
5.801004020120975
 20
-5.760795833333329
 10
5.869426240614707
 20
-5.724523611111104
 97
        0
 97
        0
 92
        1
 93
        1
 72
     4
 94
        3
 73
     0
 74
     1
 95
       41
 96
       37
 40
0.0
 40
0.0
 40
0.0
 40
0.0
 40
1.0
 40
1.0
 40
1.0
 40
2.0
 40
2.0
 40
2.0
 40
3.0
 40
3.0
 40
3.0
 40
4.0
 40
4.0
 40
4.0
 40
5.0
 40
5.0
 40
5.0
 40
6.0
 40
6.0
 40
6.0
 40
7.0
 40
7.0
 40
7.0
 40
8.0
 40
8.0
 40
8.0
 40
9.0
 40
9.0
 40
9.0
 40
10.0
 40
10.0
 40
10.0
 40
11.0
 40
11.0
 40
11.0
 40
12.0
 40
12.0
 40
12.0
 40
12.0
 10
5.313458333333339
 20
-6.903148611111115
 10
5.192612368823575
 20
-6.963638888888883
 10
5.069629038597061
 20
-7.020320833333344
 10
4.944124999999998
 20
-7.072491666666665
 10
4.905476264966132
 20
-7.088559722222221
 10
4.866641543724957
 20
-7.104062500000004
 10
4.827573489156344
 20
-7.118851388888894
 10
4.811099878461391
 20
-7.104683333333342
 10
4.790092934547626
 20
-7.095673611111098
 10
4.766822101802163
 20
-7.09536111111111
 10
4.722115158487112
 20
-7.094763888888893
 10
4.682790159480545
 20
-7.128622222222222
 10
4.673509604159436
 20
-7.171998611111121
 10
4.598883217155768
 20
-7.19518611111112
 10
4.523119330180836
 20
-7.214769444444451
 10
4.445598498805844
 20
-7.228684722222219
 10
4.403165166544467
 20
-7.236304166666665
 10
4.360605445397393
 20
-7.242269444444446
 10
4.320244335305889
 20
-7.241055555555552
 10
4.285320725077023
 20
-7.241205555555553
 10
4.253358225884464
 20
-7.240873611111105
 10
4.222333333333331
 20
-7.231149999999994
 10
4.170492950200039
 20
-7.214909722222223
 10
4.152212395106289
 20
-7.183841666666669
 10
4.164242950357927
 20
-7.129411111111115
 10
4.177211005585883
 20
-7.070713888888879
 10
4.206717949284918
 20
-7.01956805555556
 10
4.24027350399279
 20
-6.970725000000003
 10
4.334286001617834
 20
-6.833881944444455
 10
4.450501276459767
 20
-6.717004166666659
 10
4.573858217787953
 20
-6.607330555555563
 10
4.694451270297072
 20
-6.500111111111108
 10
4.819180555555552
 20
-6.398913888888879
 10
4.947480430571684
 20
-6.30295000000001
 10
5.009656817889865
 20
-6.536933333333334
 10
5.138672092408442
 20
-6.744131944444436
 10
5.313458333333339
 20
-6.903148611111115
 97
        0
 97
        0
 75
     2
 76
     1
 98
        0
  0
SPLINE
  5
4A
330
1F
100
AcDbEntity
  8
Layer 1
370
     0
100
AcDbSpline
210
0.0
220
0.0
230
1.0
 70
    11
 71
     3
 72
   458
 73
   454
 74
     0
 42
0.0000000001
 43
0.0000000001
 12
1.0
 22
0.0
 32
0.0
 13
1.0
 23
0.0
 33
0.0
 40
0.0
 40
0.0
 40
0.0
 40
0.0
 40
1.0
 40
1.0
 40
1.0
 40
2.0
 40
2.0
 40
2.0
 40
3.0
 40
3.0
 40
3.0
 40
4.0
 40
4.0
 40
4.0
 40
5.0
 40
5.0
 40
5.0
 40
6.0
 40
6.0
 40
6.0
 40
7.0
 40
7.0
 40
7.0
 40
8.0
 40
8.0
 40
8.0
 40
9.0
 40
9.0
 40
9.0
 40
10.0
 40
10.0
 40
10.0
 40
11.0
 40
11.0
 40
11.0
 40
12.0
 40
12.0
 40
12.0
 40
13.0
 40
13.0
 40
13.0
 40
14.0
 40
14.0
 40
14.0
 40
15.0
 40
15.0
 40
15.0
 40
16.0
 40
16.0
 40
16.0
 40
17.0
 40
17.0
 40
17.0
 40
18.0
 40
18.0
 40
18.0
 40
19.0
 40
19.0
 40
19.0
 40
20.0
 40
20.0
 40
20.0
 40
21.0
 40
21.0
 40
21.0
 40
22.0
 40
22.0
 40
22.0
 40
23.0
 40
23.0
 40
23.0
 40
24.0
 40
24.0
 40
24.0
 40
25.0
 40
25.0
 40
25.0
 40
26.0
 40
26.0
 40
26.0
 40
27.0
 40
27.0
 40
27.0
 40
28.0
 40
28.0
 40
28.0
 40
29.0
 40
29.0
 40
29.0
 40
30.0
 40
30.0
 40
30.0
 40
31.0
 40
31.0
 40
31.0
 40
32.0
 40
32.0
 40
32.0
 40
33.0
 40
33.0
 40
33.0
 40
34.0
 40
34.0
 40
34.0
 40
35.0
 40
35.0
 40
35.0
 40
36.0
 40
36.0
 40
36.0
 40
37.0
 40
37.0
 40
37.0
 40
38.0
 40
38.0
 40
38.0
 40
39.0
 40
39.0
 40
39.0
 40
40.0
 40
40.0
 40
40.0
 40
41.0
 40
41.0
 40
41.0
 40
42.0
 40
42.0
 40
42.0
 40
43.0
 40
43.0
 40
43.0
 40
44.0
 40
44.0
 40
44.0
 40
45.0
 40
45.0
 40
45.0
 40
46.0
 40
46.0
 40
46.0
 40
47.0
 40
47.0
 40
47.0
 40
48.0
 40
48.0
 40
48.0
 40
49.0
 40
49.0
 40
49.0
 40
50.0
 40
50.0
 40
50.0
 40
51.0
 40
51.0
 40
51.0
 40
52.0
 40
52.0
 40
52.0
 40
53.0
 40
53.0
 40
53.0
 40
54.0
 40
54.0
 40
54.0
 40
55.0
 40
55.0
 40
55.0
 40
56.0
 40
56.0
 40
56.0
 40
57.0
 40
57.0
 40
57.0
 40
58.0
 40
58.0
 40
58.0
 40
59.0
 40
59.0
 40
59.0
 40
60.0
 40
60.0
 40
60.0
 40
61.0
 40
61.0
 40
61.0
 40
62.0
 40
62.0
 40
62.0
 40
63.0
 40
63.0
 40
63.0
 40
64.0
 40
64.0
 40
64.0
 40
65.0
 40
65.0
 40
65.0
 40
66.0
 40
66.0
 40
66.0
 40
67.0
 40
67.0
 40
67.0
 40
68.0
 40
68.0
 40
68.0
 40
69.0
 40
69.0
 40
69.0
 40
70.0
 40
70.0
 40
70.0
 40
71.0
 40
71.0
 40
71.0
 40
72.0
 40
72.0
 40
72.0
 40
73.0
 40
73.0
 40
73.0
 40
74.0
 40
74.0
 40
74.0
 40
75.0
 40
75.0
 40
75.0
 40
76.0
 40
76.0
 40
76.0
 40
77.0
 40
77.0
 40
77.0
 40
78.0
 40
78.0
 40
78.0
 40
79.0
 40
79.0
 40
79.0
 40
80.0
 40
80.0
 40
80.0
 40
81.0
 40
81.0
 40
81.0
 40
82.0
 40
82.0
 40
82.0
 40
83.0
 40
83.0
 40
83.0
 40
84.0
 40
84.0
 40
84.0
 40
85.0
 40
85.0
 40
85.0
 40
86.0
 40
86.0
 40
86.0
 40
87.0
 40
87.0
 40
87.0
 40
88.0
 40
88.0
 40
88.0
 40
89.0
 40
89.0
 40
89.0
 40
90.0
 40
90.0
 40
90.0
 40
91.0
 40
91.0
 40
91.0
 40
92.0
 40
92.0
 40
92.0
 40
93.0
 40
93.0
 40
93.0
 40
94.0
 40
94.0
 40
94.0
 40
95.0
 40
95.0
 40
95.0
 40
96.0
 40
96.0
 40
96.0
 40
97.0
 40
97.0
 40
97.0
 40
98.0
 40
98.0
 40
98.0
 40
99.0
 40
99.0
 40
99.0
 40
100.0
 40
100.0
 40
100.0
 40
101.0
 40
101.0
 40
101.0
 40
102.0
 40
102.0
 40
102.0
 40
103.0
 40
103.0
 40
103.0
 40
104.0
 40
104.0
 40
104.0
 40
105.0
 40
105.0
 40
105.0
 40
106.0
 40
106.0
 40
106.0
 40
107.0
 40
107.0
 40
107.0
 40
108.0
 40
108.0
 40
108.0
 40
109.0
 40
109.0
 40
109.0
 40
110.0
 40
110.0
 40
110.0
 40
111.0
 40
111.0
 40
111.0
 40
112.0
 40
112.0
 40
112.0
 40
113.0
 40
113.0
 40
113.0
 40
114.0
 40
114.0
 40
114.0
 40
115.0
 40
115.0
 40
115.0
 40
116.0
 40
116.0
 40
116.0
 40
117.0
 40
117.0
 40
117.0
 40
118.0
 40
118.0
 40
118.0
 40
119.0
 40
119.0
 40
119.0
 40
120.0
 40
120.0
 40
120.0
 40
121.0
 40
121.0
 40
121.0
 40
122.0
 40
122.0
 40
122.0
 40
123.0
 40
123.0
 40
123.0
 40
124.0
 40
124.0
 40
124.0
 40
125.0
 40
125.0
 40
125.0
 40
126.0
 40
126.0
 40
126.0
 40
127.0
 40
127.0
 40
127.0
 40
128.0
 40
128.0
 40
128.0
 40
129.0
 40
129.0
 40
129.0
 40
130.0
 40
130.0
 40
130.0
 40
131.0
 40
131.0
 40
131.0
 40
132.0
 40
132.0
 40
132.0
 40
133.0
 40
133.0
 40
133.0
 40
134.0
 40
134.0
 40
134.0
 40
135.0
 40
135.0
 40
135.0
 40
136.0
 40
136.0
 40
136.0
 40
137.0
 40
137.0
 40
137.0
 40
138.0
 40
138.0
 40
138.0
 40
139.0
 40
139.0
 40
139.0
 40
140.0
 40
140.0
 40
140.0
 40
141.0
 40
141.0
 40
141.0
 40
142.0
 40
142.0
 40
142.0
 40
143.0
 40
143.0
 40
143.0
 40
144.0
 40
144.0
 40
144.0
 40
145.0
 40
145.0
 40
145.0
 40
146.0
 40
146.0
 40
146.0
 40
147.0
 40
147.0
 40
147.0
 40
148.0
 40
148.0
 40
148.0
 40
149.0
 40
149.0
 40
149.0
 40
150.0
 40
150.0
 40
150.0
 40
151.0
 40
151.0
 40
151.0
 40
151.0
 10
7.967399798726547
 20
-8.544769444444455
 30
0.0
 10
7.886084523002965
 20
-8.50370833333333
 30
0.0
 10
7.781899803412671
 20
-8.536008333333331
 30
0.0
 10
7.705813694223656
 20
-8.559577777777779
 30
0.0
 10
7.705813694223656
 20
-8.559577777777779
 30
0.0
 10
7.7024331387535
 20
-8.560618055555551
 30
0.0
 10
7.7024331387535
 20
-8.560618055555551
 30
0.0
 10
7.63021647391118
 20
-8.582951388888887
 30
0.0
 10
7.563302586712679
 20
-8.616038888888877
 30
0.0
 10
7.498583333333322
 20
-8.648058333333337
 30
0.0
 10
7.453553978374051
 20
-8.670320833333335
 30
0.0
 10
7.406974812884073
 20
-8.693358333333334
 30
0.0
 10
7.359540091860152
 20
-8.71222222222223
 30
0.0
 10
7.22905120626769
 20
-8.764147222222213
 30
0.0
 10
7.105399820502498
 20
-8.781461111111108
 30
0.0
 10
6.981799823624897
 20
-8.76567361111112
 30
0.0
 10
6.904462325578606
 20
-8.755734722222213
 30
0.0
 10
6.824313716492219
 20
-8.75087083333334
 30
0.0
 10
6.746822051783156
 20
-8.746104166666656
 30
0.0
 10
6.675291666666655
 20
-8.741772222222227
 30
0.0
 10
6.601305555555554
 20
-8.737290277777776
 30
0.0
 10
6.529844279486698
 20
-8.728770833333328
 30
0.0
 10
6.375397061166141
 20
-8.710383333333336
 30
0.0
 10
6.242806786737876
 20
-8.664873611111108
 30
0.0
 10
6.124491511948993
 20
-8.589594444444451
 30
0.0
 10
6.098176234835996
 20
-8.572840277777788
 30
0.0
 10
6.074041666666668
 20
-8.554087499999998
 30
0.0
 10
6.052083333333333
 20
-8.535881944444453
 30
0.0
 10
6.140941511533431
 20
-8.487986111111114
 30
0.0
 10
6.218466509574985
 20
-8.457550000000007
 30
0.0
 10
6.294688729871672
 20
-8.440543055555558
 30
0.0
 10
6.393486111111113
 20
-8.418527777777777
 30
0.0
 10
6.498805555555564
 20
-8.391045833333338
 30
0.0
 10
6.599615111057473
 20
-8.33954722222221
 30
0.0
 10
6.729553996663829
 20
-8.273175000000013
 30
0.0
 10
6.832809549610929
 20
-8.180930555555555
 30
0.0
 10
6.898206770181079
 20
-8.07276944444445
 30
0.0
 10
6.914960936424499
 20
-8.045048611111117
 30
0.0
 10
6.996986111111103
 20
-7.901115277777787
 30
0.0
 10
6.966497046233699
 20
-7.788690277777782
 30
0.0
 10
6.955500000000003
 20
-7.748109722222225
 30
0.0
 10
6.93122899156909
 20
-7.717361111111106
 30
0.0
 10
6.894378992499999
 20
-7.697334722222219
 30
0.0
 10
6.870005382004617
 20
-7.684072222222211
 30
0.0
 10
6.842898438244951
 20
-7.677350000000009
 30
0.0
 10
6.809030383544975
 20
-7.676350000000006
 30
0.0
 10
6.753712329386872
 20
-7.674613888888896
 30
0.0
 10
6.697176219703983
 20
-7.68636388888889
 30
0.0
 10
6.636185943466948
 20
-7.712272222222231
 30
0.0
 10
6.582740111483771
 20
-7.734987500000013
 30
0.0
 10
6.532841501633205
 20
-7.764420833333335
 30
0.0
 10
6.484581780630125
 20
-7.792877777777776
 30
0.0
 10
6.455611111111112
 20
-7.809977777777779
 30
0.0
 10
6.425659559896403
 20
-7.827647222222216
 30
0.0
 10
6.395642893988022
 20
-7.843397222222215
 30
0.0
 10
6.374062338977637
 20
-7.854731944444438
 30
0.0
 10
6.348162339631926
 20
-7.867144444444445
 30
0.0
 10
6.319640118130236
 20
-7.873376388888901
 30
0.0
 10
6.21630555555555
 20
-7.895947222222225
 30
0.0
 10
6.108810956789562
 20
-7.900755555555557
 30
0.0
 10
6.004845681638168
 20
-7.905386111111106
 30
0.0
 10
5.914772072802507
 20
-7.90938194444445
 30
0.0
 10
5.821651241821605
 20
-7.91352777777777
 30
0.0
 10
5.730383188571674
 20
-7.929115277777782
 30
0.0
 10
5.609276247186648
 20
-7.949748611111115
 30
0.0
 10
5.483870694799103
 20
-7.989904166666671
 30
0.0
 10
5.346980420479465
 20
-8.05186944444444
 30
0.0
 10
5.261029033761891
 20
-8.090755555555562
 30
0.0
 10
5.176236111111115
 20
-8.134851388888894
 30
0.0
 10
5.094234593531028
 20
-8.17749027777778
 30
0.0
 10
5.094234593531028
 20
-8.17749027777778
 30
0.0
 10
5.047123483610044
 20
-8.20193750000001
 30
0.0
 10
5.047123483610044
 20
-8.20193750000001
 30
0.0
 10
5.029841539602178
 20
-8.210895833333325
 30
0.0
 10
5.012509595595575
 20
-8.219737499999988
 30
0.0
 10
4.995162373811581
 20
-8.228597222222232
 30
0.0
 10
4.95272765266135
 20
-8.25024027777777
 30
0.0
 10
4.908851264880872
 20
-8.272641666666662
 30
0.0
 10
4.8662734881787
 20
-8.296234722222227
 30
0.0
 10
4.814474878376132
 20
-8.324958333333345
 30
0.0
 10
4.762140157475995
 20
-8.35691666666667
 30
0.0
 10
4.711522103199159
 20
-8.387834722222225
 30
0.0
 10
4.545217940733689
 20
-8.4894138888889
 30
0.0
 10
4.373261000633243
 20
-8.594452777777784
 30
0.0
 10
4.178148505562199
 20
-8.612743055555558
 30
0.0
 10
4.053279064272222
 20
-8.624451388888877
 30
0.0
 10
3.937891567187155
 20
-8.624819444444432
 30
0.0
 10
3.82555555555555
 20
-8.614158333333332
 30
0.0
 10
3.82555555555555
 20
-8.614158333333332
 30
0.0
 10
3.789083333333338
 20
-8.611198611111098
 30
0.0
 10
3.789083333333338
 20
-8.611198611111098
 30
0.0
 10
3.759491571693919
 20
-8.608770833333336
 30
0.0
 10
3.729876294664286
 20
-8.606362500000007
 30
0.0
 10
3.700237406524138
 20
-8.60413472222222
 30
0.0
 10
3.668120740668807
 20
-8.601736111111121
 30
0.0
 10
3.65105407443328
 20
-8.62101527777779
 30
0.0
 10
3.648392963389394
 20
-8.64113472222223
 30
0.0
 10
3.645741574567485
 20
-8.660909722222211
 30
0.0
 10
3.656973518728187
 20
-8.683901388888899
 30
0.0
 10
3.68804990683202
 20
-8.69075833333333
 30
0.0
 10
3.693259628922634
 20
-8.69189305555556
 30
0.0
 10
3.698683239896733
 20
-8.692537499999995
 30
0.0
 10
3.703898517542762
 20
-8.692793055555562
 30
0.0
 10
3.730058239104134
 20
-8.694418055555564
 30
0.0
 10
3.756158238444792
 20
-8.696840277777785
 30
0.0
 10
3.782240182230352
 20
-8.699287500000006
 30
0.0
 10
3.82434157005567
 20
-8.703208333333325
 30
0.0
 10
3.867854068956452
 20
-8.707265277777777
 30
0.0
 10
3.911384623412333
 20
-8.707773611111103
 30
0.0
 10
3.973999999999996
 20
-8.708459722222212
 30
0.0
 10
4.038547120199938
 20
-8.70777916666667
 30
0.0
 10
4.103229063010379
 20
-8.70574722222222
 30
0.0
 10
4.266779058878758
 20
-8.700640277777767
 30
0.0
 10
4.40785266642605
 20
-8.662618055555564
 30
0.0
 10
4.53452349655941
 20
-8.589458333333344
 30
0.0
 10
4.53452349655941
 20
-8.589458333333344
 30
0.0
 10
4.632690160746177
 20
-8.532580555555569
 30
0.0
 10
4.632690160746177
 20
-8.532580555555569
 30
0.0
 10
4.893255431941522
 20
-8.38142500000001
 30
0.0
 10
5.162684591801836
 20
-8.225119444444443
 30
0.0
 10
5.441245695875901
 20
-8.106855555555562
 30
0.0
 10
5.559327637337345
 20
-8.056752777777774
 30
0.0
 10
5.686736111111107
 20
-8.02235694444443
 30
0.0
 10
5.819905408532374
 20
-8.004608333333332
 30
0.0
 10
5.884784573560055
 20
-7.995954166666656
 30
0.0
 10
5.951617905205037
 20
-7.993937500000002
 30
0.0
 10
6.016245681350179
 20
-7.991972222222229
 30
0.0
 10
6.085124999999999
 20
-7.989890277777779
 30
0.0
 10
6.156337344477834
 20
-7.987737499999993
 30
0.0
 10
6.226780398253847
 20
-7.977687500000002
 30
0.0
 10
6.321199840313056
 20
-7.964219444444451
 30
0.0
 10
6.404554004874019
 20
-7.938679166666664
 30
0.0
 10
6.474522058662033
 20
-7.901781944444438
 30
0.0
 10
6.501498446869441
 20
-7.887562500000008
 30
0.0
 10
6.527649835097691
 20
-7.872124999999995
 30
0.0
 10
6.55294289001429
 20
-7.857191666666671
 30
0.0
 10
6.605744277569303
 20
-7.826012500000009
 30
0.0
 10
6.655619276309355
 20
-7.796580555555566
 30
0.0
 10
6.712744274866256
 20
-7.776997222222209
 30
0.0
 10
6.751163718340144
 20
-7.763813888888889
 30
0.0
 10
6.79131371732587
 20
-7.760522222222233
 30
0.0
 10
6.832048438519045
 20
-7.767376388888882
 30
0.0
 10
6.856137326799399
 20
-7.771413888888901
 30
0.0
 10
6.869912326451413
 20
-7.783126388888881
 30
0.0
 10
6.876737326278999
 20
-7.805323611111109
 30
0.0
 10
6.887212326014378
 20
-7.839411111111101
 30
0.0
 10
6.886919270466225
 20
-7.875304166666663
 30
0.0
 10
6.87588315963391
 20
-7.911973611111105
 30
0.0
 10
6.804334550330268
 20
-8.149612500000002
 30
0.0
 10
6.570873445116881
 20
-8.283654166666667
 30
0.0
 10
6.376237338922692
 20
-8.32983749999999
 30
0.0
 10
6.265172063950659
 20
-8.356206944444441
 30
0.0
 10
6.120495678716603
 20
-8.39620000000001
 30
0.0
 10
5.986527777777774
 20
-8.471955555555546
 30
0.0
 10
5.948009571962857
 20
-8.493751388888894
 30
0.0
 10
5.904077628628228
 20
-8.522002777777768
 30
0.0
 10
5.870284573926356
 20
-8.566472222222222
 30
0.0
 10
5.858208333333335
 20
-8.582354166666669
 30
0.0
 10
5.857152777777779
 20
-8.596283333333329
 30
0.0
 10
5.858394296448952
 20
-8.605166666666667
 30
0.0
 10
5.859912351966159
 20
-8.616011111111119
 30
0.0
 10
5.865742907374422
 20
-8.625725000000001
 30
0.0
 10
5.874840129366829
 20
-8.632545833333324
 30
0.0
 10
5.894955406636452
 20
-8.647605555555552
 30
0.0
 10
5.921490128188351
 20
-8.642180555555544
 30
0.0
 10
5.939369294403352
 20
-8.619413888888882
 30
0.0
 10
5.949909571914859
 20
-8.605993055555547
 30
0.0
 10
5.960838738305433
 20
-8.596704166666667
 30
0.0
 10
5.973494293541282
 20
-8.585966666666662
 30
0.0
 10
5.973494293541282
 20
-8.585966666666662
 30
0.0
 10
5.975066515723786
 20
-8.584640277777781
 30
0.0
 10
5.975066515723786
 20
-8.584640277777781
 30
0.0
 10
6.039451236319514
 20
-8.645523611111104
 30
0.0
 10
6.115197067739346
 20
-8.688162500000013
 30
0.0
 10
6.181162343850701
 20
-8.721969444444438
 30
0.0
 10
6.287369285612132
 20
-8.776377777777775
 30
0.0
 10
6.41254166666666
 20
-8.81181388888889
 30
0.0
 10
6.553199834452244
 20
-8.827340277777768
 30
0.0
 10
6.612419277400678
 20
-8.8338388888889
 30
0.0
 10
6.672144275891898
 20
-8.834958333333336
 30
0.0
 10
6.729890107766449
 20
-8.835990277777784
 30
0.0
 10
6.795692883881909
 20
-8.837162500000002
 30
0.0
 10
6.863745659940529
 20
-8.838376388888895
 30
0.0
 10
6.929894269380585
 20
-8.84785277777779
 30
0.0
 10
6.994898434405108
 20
-8.857123611111117
 30
0.0
 10
7.048858155264194
 20
-8.86066249999999
 30
0.0
 10
7.099733153978983
 20
-8.858831944444445
 30
0.0
 10
7.189277777777786
 20
-8.855648611111114
 30
0.0
 10
7.28114287161841
 20
-8.835794444444446
 30
0.0
 10
7.380552591329332
 20
-8.798154166666665
 30
0.0
 10
7.434478978855926
 20
-8.777736111111102
 30
0.0
 10
7.486198421993826
 20
-8.751865277777773
 30
0.0
 10
7.536208333333333
 20
-8.726866666666663
 30
0.0
 10
7.559488697920137
 20
-8.715209722222223
 30
0.0
 10
7.582763888888898
 20
-8.703572222222217
 30
0.0
 10
7.606287307849016
 20
-8.692466666666657
 30
0.0
 10
7.684399805875728
 20
-8.655555555555566
 30
0.0
 10
7.769827581495418
 20
-8.620637500000004
 30
0.0
 10
7.865115079088254
 20
-8.615123611111105
 30
0.0
 10
7.891863689523638
 20
-8.613588888888899
 30
0.0
 10
7.912040077902828
 20
-8.614568055555562
 30
0.0
 10
7.929994244115934
 20
-8.624198611111119
 30
0.0
 10
7.940688688290215
 20
-8.629945833333345
 30
0.0
 10
7.9421261882539
 20
-8.634441666666664
 30
0.0
 10
7.941305555555547
 20
-8.642354166666665
 30
0.0
 10
7.939530354986143
 20
-8.659201388888883
 30
0.0
 10
7.936851188387158
 20
-8.671754166666663
 30
0.0
 10
7.932631744049305
 20
-8.683083333333343
 30
0.0
 10
7.91528035559875
 20
-8.72963472222222
 30
0.0
 10
7.888447022943283
 20
-8.77266111111112
 30
0.0
 10
7.852870634953129
 20
-8.810969444444456
 30
0.0
 10
7.852870634953129
 20
-8.810969444444456
 30
0.0
 10
7.833595635440057
 20
-8.831873611111101
 30
0.0
 10
7.833595635440057
 20
-8.831873611111101
 30
0.0
 10
7.780019247904622
 20
-8.890127777777781
 30
0.0
 10
7.729410915849762
 20
-8.945161111111121
 30
0.0
 10
7.660947028690416
 20
-8.979434722222221
 30
0.0
 10
7.570165086539317
 20
-9.02489861111111
 30
0.0
 10
7.47627777777777
 20
-9.080341666666678
 30
0.0
 10
7.373928980385547
 20
-9.14891388888888
 30
0.0
 10
7.320501203957469
 20
-9.184699999999994
 30
0.0
 10
7.268422038606432
 20
-9.204623611111122
 30
0.0
 10
7.214728984407278
 20
-9.209795833333322
 30
0.0
 10
7.134058153111861
 20
-9.217568055555551
 30
0.0
 10
7.049595655245563
 20
-9.217041666666672
 30
0.0
 10
6.967912323975725
 20
-9.216522222222212
 30
0.0
 10
6.818973438849348
 20
-9.215570833333333
 30
0.0
 10
6.664960942740031
 20
-9.214604166666655
 30
0.0
 10
6.519784557518606
 20
-9.262462500000007
 30
0.0
 10
6.478055555555557
 20
-9.276229166666655
 30
0.0
 10
6.447170670464098
 20
-9.289879166666676
 30
0.0
 10
6.419670671158807
 20
-9.306754166666678
 30
0.0
 10
6.407527777777785
 20
-9.314213888888894
 30
0.0
 10
6.399480393891078
 20
-9.325277777777778
 30
0.0
 10
6.396987338398503
 20
-9.337943055555543
 30
0.0
 10
6.394705394011705
 20
-9.34951527777778
 30
0.0
 10
6.397333333333336
 20
-9.361227777777787
 30
0.0
 10
6.404415115988639
 20
-9.370904166666655
 30
0.0
 10
6.418992893398151
 20
-9.390847222222217
 30
0.0
 10
6.44210539281428
 20
-9.395011111111115
 30
0.0
 10
6.464783170019169
 20
-9.381762499999997
 30
0.0
 10
6.493040113749784
 20
-9.365269444444442
 30
0.0
 10
6.524816501835933
 20
-9.352152777777771
 30
0.0
 10
6.561923445342977
 20
-9.341676388888901
 30
0.0
 10
6.69297483092123
 20
-9.304719444444446
 30
0.0
 10
6.830681771886904
 20
-9.299023611111124
 30
0.0
 10
6.95996649084312
 20
-9.298347222222219
 30
0.0
 10
6.987410934594259
 20
-9.298206944444447
 30
0.0
 10
7.015448433885972
 20
-9.299126388888881
 30
0.0
 10
7.0437470442822
 20
-9.300022222222221
 30
0.0
 10
7.131873430944829
 20
-9.302833333333334
 30
0.0
 10
7.222505373099718
 20
-9.305727777777772
 30
0.0
 10
7.307883148720672
 20
-9.278829166666657
 30
0.0
 10
7.303555555555552
 20
-9.288506944444457
 30
0.0
 10
7.299334537825517
 20
-9.298402777777785
 30
0.0
 10
7.295544260143489
 20
-9.308519444444451
 30
0.0
 10
7.2726289829446
 20
-9.36965833333334
 30
0.0
 10
7.229956761800369
 20
-9.414286111111121
 30
0.0
 10
7.165083333333339
 20
-9.444979166666673
 30
0.0
 10
7.098845654001403
 20
-9.476326388888891
 30
0.0
 10
7.036898433344099
 20
-9.499531944444444
 30
0.0
 10
6.975688712668165
 20
-9.515880555555567
 30
0.0
 10
6.897669270194657
 20
-9.536733333333332
 30
0.0
 10
6.81390816119953
 20
-9.556269444444448
 30
0.0
 10
6.712090108216115
 20
-9.577345833333336
 30
0.0
 10
6.609217888592664
 20
-9.59861944444444
 30
0.0
 10
6.503562335706192
 20
-9.630661111111117
 30
0.0
 10
6.389092894153489
 20
-9.675270833333343
 30
0.0
 10
6.379645672169923
 20
-9.678940277777782
 30
0.0
 10
6.369566505757878
 20
-9.683149999999992
 30
0.0
 10
6.359837339336991
 20
-9.689031944444448
 30
0.0
 10
6.337948451001061
 20
-9.702299999999997
 30
0.0
 10
6.330559562298832
 20
-9.725355555555552
 30
0.0
 10
6.341044284256188
 20
-9.747781944444442
 30
0.0
 10
6.345763888888895
 20
-9.757865277777784
 30
0.0
 10
6.353913728375523
 20
-9.765437500000012
 30
0.0
 10
6.364006783676106
 20
-9.769087499999992
 30
0.0
 10
6.375495672274761
 20
-9.77326111111112
 30
0.0
 10
6.388374999999996
 20
-9.77222500000001
 30
0.0
 10
6.401301227178414
 20
-9.766141666666675
 30
0.0
 10
6.450111111111103
 20
-9.743169444444447
 30
0.0
 10
6.502708333333329
 20
-9.726033333333335
 30
0.0
 10
6.552387334472769
 20
-9.710440277777781
 30
0.0
 10
6.66116927616915
 20
-9.676340277777777
 30
0.0
 10
6.773770662213488
 20
-9.651776388888896
 30
0.0
 10
6.879248437326673
 20
-9.630320833333345
 30
0.0
 10
6.97045676835589
 20
-9.611779166666667
 30
0.0
 10
7.061817877159026
 20
-9.584026388888889
 30
0.0
 10
7.151259541566206
 20
-9.54772638888888
 30
0.0
 10
7.144448430627158
 20
-9.580511111111111
 30
0.0
 10
7.136784541931875
 20
-9.611409722222232
 30
0.0
 10
7.118923431271973
 20
-9.638555555555563
 30
0.0
 10
7.118923431271973
 20
-9.638555555555563
 30
0.0
 10
7.116715097994428
 20
-9.641906944444447
 30
0.0
 10
7.116715097994428
 20
-9.641906944444447
 30
0.0
 10
7.097117876267273
 20
-9.671727777777782
 30
0.0
 10
7.078594265624107
 20
-9.69988194444444
 30
0.0
 10
7.049427599694253
 20
-9.716094444444453
 30
0.0
 10
6.99944982317902
 20
-9.743837500000001
 30
0.0
 10
6.953305555555566
 20
-9.763195833333333
 30
0.0
 10
6.908383158812891
 20
-9.775277777777774
 30
0.0
 10
6.851926215794669
 20
-9.790444444444448
 30
0.0
 10
6.792976217283871
 20
-9.801162499999993
 30
0.0
 10
6.735973440946104
 20
-9.811534722222227
 30
0.0
 10
6.735973440946104
 20
-9.811534722222227
 30
0.0
 10
6.718387330279256
 20
-9.814751388888881
 30
0.0
 10
6.718387330279256
 20
-9.814751388888881
 30
0.0
 10
6.675580386916206
 20
-9.822580555555557
 30
0.0
 10
6.632838721329285
 20
-9.832626388888885
 30
0.0
 10
6.591501222373558
 20
-9.842322222222213
 30
0.0
 10
6.558959556528962
 20
-9.849959722222213
 30
0.0
 10
6.525297057379349
 20
-9.857876388888876
 30
0.0
 10
6.492148447105642
 20
-9.864566666666658
 30
0.0
 10
6.448584559317269
 20
-9.873347222222213
 30
0.0
 10
6.40494150486423
 20
-9.881702777777768
 30
0.0
 10
6.36129428374463
 20
-9.890063888888891
 30
0.0
 10
6.36129428374463
 20
-9.890063888888891
 30
0.0
 10
6.317226229302327
 20
-9.898522222222228
 30
0.0
 10
6.317226229302327
 20
-9.898522222222228
 30
0.0
 10
6.292723452143541
 20
-9.903237500000007
 30
0.0
 10
6.278410952505105
 20
-9.920066666666672
 30
0.0
 10
6.278952619158089
 20
-9.943533333333335
 30
0.0
 10
6.27929289692727
 20
-9.957784722222211
 30
0.0
 10
6.286487341189968
 20
-9.969912499999989
 30
0.0
 10
6.297760952016283
 20
-9.977368055555543
 30
0.0
 10
6.297760952016283
 20
-9.977368055555543
 30
0.0
 10
6.292602618813261
 20
-9.97771388888888
 30
0.0
 10
6.292602618813261
 20
-9.97771388888888
 30
0.0
 10
6.210067898676041
 20
-9.983147222222215
 30
0.0
 10
6.128570678512611
 20
-9.999383333333324
 30
0.0
 10
6.049767902725559
 20
-10.01507777777778
 30
0.0
 10
6.049767902725559
 20
-10.01507777777778
 30
0.0
 10
6.017598459093784
 20
-10.02145416666667
 30
0.0
 10
6.017598459093784
 20
-10.02145416666667
 30
0.0
 10
5.952267905188616
 20
-10.03431527777778
 30
0.0
 10
5.890460962305547
 20
-10.03415277777779
 30
0.0
 10
5.828699852754653
 20
-10.02099722222222
 30
0.0
 10
5.730784577450422
 20
-10.00015416666666
 30
0.0
 10
5.631767913285127
 20
-9.97327916666667
 30
0.0
 10
5.525958333333329
 20
-9.938823611111122
 30
0.0
 10
5.322622087761474
 20
-9.872558333333346
 30
0.0
 10
5.136879036898184
 20
-9.82520833333332
 30
0.0
 10
4.958101263636713
 20
-9.794076388888898
 30
0.0
 10
4.832083333333331
 20
-9.772122222222226
 30
0.0
 10
4.703852658948461
 20
-9.766454166666664
 30
0.0
 10
4.576984606597862
 20
-9.777215277777788
 30
0.0
 10
4.533510996584988
 20
-9.780906944444444
 30
0.0
 10
4.494237386466011
 20
-9.779034722222224
 30
0.0
 10
4.456923498519751
 20
-9.771468055555562
 30
0.0
 10
4.396779055594682
 20
-9.759293055555569
 30
0.0
 10
4.335877668244292
 20
-9.744869444444449
 30
0.0
 10
4.276992947509623
 20
-9.730924999999994
 30
0.0
 10
4.201638888888889
 20
-9.713055555555558
 30
0.0
 10
4.123727673603652
 20
-9.694606944444457
 30
0.0
 10
4.045819444444444
 20
-9.680447222222229
 30
0.0
 10
3.968598510855877
 20
-9.666415277777787
 30
0.0
 10
3.890270735056826
 20
-9.66114444444444
 30
0.0
 10
3.814520736970432
 20
-9.656084722222229
 30
0.0
 10
3.792359626419157
 20
-9.654595833333333
 30
0.0
 10
3.770199904756737
 20
-9.653087500000007
 30
0.0
 10
3.748030460872339
 20
-9.651397222222233
 30
0.0
 10
3.724102683699028
 20
-9.649562500000002
 30
0.0
 10
3.705247128619804
 20
-9.663698611111107
 30
0.0
 10
3.701120739835157
 20
-9.686581944444443
 30
0.0
 10
3.696755462167655
 20
-9.710870833333324
 30
0.0
 10
3.710504072931447
 20
-9.731069444444453
 30
0.0
 10
3.735375000000001
 20
-9.736876388888883
 30
0.0
 10
3.744404072075061
 20
-9.738963888888899
 30
0.0
 10
3.754192960716662
 20
-9.740233333333334
 30
0.0
 10
3.764341571571397
 20
-9.740569444444443
 30
0.0
 10
3.877041666666666
 20
-9.744270833333328
 30
0.0
 10
3.986677677065826
 20
-9.756837499999998
 30
0.0
 10
4.0902707300044
 20
-9.77788194444444
 30
0.0
 10
4.137992951021058
 20
-9.787554166666672
 30
0.0
 10
4.186580449793635
 20
-9.800000000000004
 30
0.0
 10
4.233583333333336
 20
-9.812062500000012
 30
0.0
 10
4.298616558074476
 20
-9.82870972222223
 30
0.0
 10
4.365870723042159
 20
-9.845954166666665
 30
0.0
 10
4.433154054675772
 20
-9.856531944444441
 30
0.0
 10
4.521288774671524
 20
-9.8704111111111
 30
0.0
 10
4.610545716861148
 20
-9.870195833333328
 30
0.0
 10
4.696855436903004
 20
-9.869976388888896
 30
0.0
 10
4.787287379062946
 20
-9.869766666666665
 30
0.0
 10
4.880799876700621
 20
-9.869551388888896
 30
0.0
 10
4.971834596623112
 20
-9.88575972222222
 30
0.0
 10
5.077905427276871
 20
-9.904674999999997
 30
0.0
 10
5.190292924437724
 20
-9.931129166666677
 30
0.0
 10
5.325506809910823
 20
-9.969016666666676
 30
0.0
 10
5.381361111111105
 20
-9.984673611111122
 30
0.0
 10
5.437799862629618
 20
-10.00240416666667
 30
0.0
 10
5.492370694584375
 20
-10.01954583333334
 30
0.0
 10
5.575544303594344
 20
-10.04565416666666
 30
0.0
 10
5.661523468088995
 20
-10.07268333333334
 30
0.0
 10
5.748398465894348
 20
-10.09332638888888
 30
0.0
 10
5.7948040202776
 20
-10.10434722222223
 30
0.0
 10
5.838308185845259
 20
-10.11151805555556
 30
0.0
 10
5.87975679590929
 20
-10.11485555555555
 30
0.0
 10
5.94555957202475
 20
-10.12015416666668
 30
0.0
 10
6.006198459381772
 20
-10.11579444444444
 30
0.0
 10
6.06506944444445
 20
-10.10185972222222
 30
0.0
 10
6.119875000000004
 20
-10.08891527777779
 30
0.0
 10
6.175155399558005
 20
-10.08047916666666
 30
0.0
 10
6.231687342574332
 20
-10.07226388888888
 30
0.0
 10
6.285851230094926
 20
-10.06440694444445
 30
0.0
 10
6.342104006451639
 20
-10.06151250000001
 30
0.0
 10
6.40166511605811
 20
-10.05846805555555
 30
0.0
 10
6.508594280023519
 20
-10.05296944444444
 30
0.0
 10
6.619155388341621
 20
-10.04728333333333
 30
0.0
 10
6.719106774705526
 20
-10.01079305555555
 30
0.0
 10
6.761824829181933
 20
-9.995191666666667
 30
0.0
 10
6.81656944444444
 20
-9.971794444444438
 30
0.0
 10
6.861224826670878
 20
-9.928847222222227
 30
0.0
 10
6.879044270665164
 20
-9.911723611111103
 30
0.0
 10
6.889258159296029
 20
-9.893826388888884
 30
0.0
 10
6.895452603583989
 20
-9.868711111111123
 30
0.0
 10
6.895826214685662
 20
-9.86864999999999
 30
0.0
 10
6.896199825787335
 20
-9.868584722222218
 30
0.0
 10
6.896595659110668
 20
-9.868505555555556
 30
0.0
 10
6.961923435238127
 20
-9.855183333333343
 30
0.0
 10
7.016881767183096
 20
-9.830861111111112
 30
0.0
 10
7.066537321484248
 20
-9.80657361111111
 30
0.0
 10
7.113008153643628
 20
-9.783825000000004
 30
0.0
 10
7.150835930465796
 20
-9.749984722222228
 30
0.0
 10
7.18214981856363
 20
-9.703102777777783
 30
0.0
 10
7.216763888888888
 20
-9.651252777777774
 30
0.0
 10
7.2373275949475
 20
-9.58944583333333
 30
0.0
 10
7.246831761374071
 20
-9.508620833333326
 30
0.0
 10
7.248035928010317
 20
-9.498411111111105
 30
0.0
 10
7.249166666666674
 20
-9.497697222222213
 30
0.0
 10
7.253344261209551
 20
-9.495059722222221
 30
0.0
 10
7.305445648782248
 20
-9.461976388888893
 30
0.0
 10
7.344415092242242
 20
-9.415919444444448
 30
0.0
 10
7.369447036054326
 20
-9.35741805555555
 30
0.0
 10
7.380392869111144
 20
-9.33188333333333
 30
0.0
 10
7.391340091056817
 20
-9.30629722222223
 30
0.0
 10
7.40299286854022
 20
-9.281093055555553
 30
0.0
 10
7.421212312524403
 20
-9.24177777777777
 30
0.0
 10
7.442106756441009
 20
-9.214090277777787
 30
0.0
 10
7.468738700212675
 20
-9.19396666666666
 30
0.0
 10
7.516705365667601
 20
-9.15771249999999
 30
0.0
 10
7.569063697678252
 20
-9.125483333333325
 30
0.0
 10
7.624344251837303
 20
-9.098188888888899
 30
0.0
 10
7.716423416177854
 20
-9.052744444444443
 30
0.0
 10
7.798191469667775
 20
-8.994409722222219
 30
0.0
 10
7.867305555555554
 20
-8.924863888888895
 30
0.0
 10
7.867305555555554
 20
-8.924863888888895
 30
0.0
 10
7.869111111111124
 20
-8.923029166666664
 30
0.0
 10
7.869111111111124
 20
-8.923029166666664
 30
0.0
 10
7.939306743880681
 20
-8.852259722222218
 30
0.0
 10
8.020817852932648
 20
-8.757429166666673
 30
0.0
 10
8.028253963855907
 20
-8.651591666666667
 30
0.0
 10
8.031723408212706
 20
-8.602118055555568
 30
0.0
 10
8.011817853160007
 20
-8.567181944444453
 30
0.0
 10
7.967399798726547
 20
-8.544769444444455
 30
0.0
  0
SPLINE
  5
4B
330
1F
100
AcDbEntity
  8
Layer 1
370
     0
100
AcDbSpline
210
0.0
220
0.0
230
1.0
 70
    11
 71
     3
 72
    20
 73
    16
 74
     0
 42
0.0000000001
 43
0.0000000001
 12
1.0
 22
0.0
 32
0.0
 13
1.0
 23
0.0
 33
0.0
 40
0.0
 40
0.0
 40
0.0
 40
0.0
 40
1.0
 40
1.0
 40
1.0
 40
2.0
 40
2.0
 40
2.0
 40
3.0
 40
3.0
 40
3.0
 40
4.0
 40
4.0
 40
4.0
 40
5.0
 40
5.0
 40
5.0
 40
5.0
 10
6.758767884814713
 20
-9.896594444444442
 30
0.0
 10
6.712916666666665
 20
-9.930761111111122
 30
0.0
 10
6.656165109628899
 20
-9.947254166666678
 30
0.0
 10
6.586787333603752
 20
-9.956790277777776
 30
0.0
 10
6.526829001785093
 20
-9.965058333333344
 30
0.0
 10
6.464899836682889
 20
-9.970029166666665
 30
0.0
 10
6.405095671527002
 20
-9.97022083333334
 30
0.0
 10
6.427401226519073
 20
-9.965813888888887
 30
0.0
 10
6.449695670400311
 20
-9.96163611111112
 30
0.0
 10
6.471604003180194
 20
-9.957523611111101
 30
0.0
 10
6.523388888888879
 20
-9.947837500000004
 30
0.0
 10
6.576931778297168
 20
-9.937809722222228
 30
0.0
 10
6.629313721418334
 20
-9.924879166666667
 30
0.0
 10
6.671944444444433
 20
-9.914384722222216
 30
0.0
 10
6.715508163685323
 20
-9.905216666666673
 30
0.0
 10
6.758767884814713
 20
-9.896594444444442
 30
0.0
  0
HATCH
  5
4C
330
1F
100
AcDbEntity
  8
Layer 1
 62
     7
420
 16314339
100
AcDbHatch
 10
0.0
 20
0.0
 30
0.0
210
0.0
220
0.0
230
1.0
  2
SOLID
 70
     1
 71
     0
 91
        2
 92
        1
 93
        1
 72
     4
 94
        3
 73
     0
 74
     1
 95
      458
 96
      454
 40
0.0
 40
0.0
 40
0.0
 40
0.0
 40
1.0
 40
1.0
 40
1.0
 40
2.0
 40
2.0
 40
2.0
 40
3.0
 40
3.0
 40
3.0
 40
4.0
 40
4.0
 40
4.0
 40
5.0
 40
5.0
 40
5.0
 40
6.0
 40
6.0
 40
6.0
 40
7.0
 40
7.0
 40
7.0
 40
8.0
 40
8.0
 40
8.0
 40
9.0
 40
9.0
 40
9.0
 40
10.0
 40
10.0
 40
10.0
 40
11.0
 40
11.0
 40
11.0
 40
12.0
 40
12.0
 40
12.0
 40
13.0
 40
13.0
 40
13.0
 40
14.0
 40
14.0
 40
14.0
 40
15.0
 40
15.0
 40
15.0
 40
16.0
 40
16.0
 40
16.0
 40
17.0
 40
17.0
 40
17.0
 40
18.0
 40
18.0
 40
18.0
 40
19.0
 40
19.0
 40
19.0
 40
20.0
 40
20.0
 40
20.0
 40
21.0
 40
21.0
 40
21.0
 40
22.0
 40
22.0
 40
22.0
 40
23.0
 40
23.0
 40
23.0
 40
24.0
 40
24.0
 40
24.0
 40
25.0
 40
25.0
 40
25.0
 40
26.0
 40
26.0
 40
26.0
 40
27.0
 40
27.0
 40
27.0
 40
28.0
 40
28.0
 40
28.0
 40
29.0
 40
29.0
 40
29.0
 40
30.0
 40
30.0
 40
30.0
 40
31.0
 40
31.0
 40
31.0
 40
32.0
 40
32.0
 40
32.0
 40
33.0
 40
33.0
 40
33.0
 40
34.0
 40
34.0
 40
34.0
 40
35.0
 40
35.0
 40
35.0
 40
36.0
 40
36.0
 40
36.0
 40
37.0
 40
37.0
 40
37.0
 40
38.0
 40
38.0
 40
38.0
 40
39.0
 40
39.0
 40
39.0
 40
40.0
 40
40.0
 40
40.0
 40
41.0
 40
41.0
 40
41.0
 40
42.0
 40
42.0
 40
42.0
 40
43.0
 40
43.0
 40
43.0
 40
44.0
 40
44.0
 40
44.0
 40
45.0
 40
45.0
 40
45.0
 40
46.0
 40
46.0
 40
46.0
 40
47.0
 40
47.0
 40
47.0
 40
48.0
 40
48.0
 40
48.0
 40
49.0
 40
49.0
 40
49.0
 40
50.0
 40
50.0
 40
50.0
 40
51.0
 40
51.0
 40
51.0
 40
52.0
 40
52.0
 40
52.0
 40
53.0
 40
53.0
 40
53.0
 40
54.0
 40
54.0
 40
54.0
 40
55.0
 40
55.0
 40
55.0
 40
56.0
 40
56.0
 40
56.0
 40
57.0
 40
57.0
 40
57.0
 40
58.0
 40
58.0
 40
58.0
 40
59.0
 40
59.0
 40
59.0
 40
60.0
 40
60.0
 40
60.0
 40
61.0
 40
61.0
 40
61.0
 40
62.0
 40
62.0
 40
62.0
 40
63.0
 40
63.0
 40
63.0
 40
64.0
 40
64.0
 40
64.0
 40
65.0
 40
65.0
 40
65.0
 40
66.0
 40
66.0
 40
66.0
 40
67.0
 40
67.0
 40
67.0
 40
68.0
 40
68.0
 40
68.0
 40
69.0
 40
69.0
 40
69.0
 40
70.0
 40
70.0
 40
70.0
 40
71.0
 40
71.0
 40
71.0
 40
72.0
 40
72.0
 40
72.0
 40
73.0
 40
73.0
 40
73.0
 40
74.0
 40
74.0
 40
74.0
 40
75.0
 40
75.0
 40
75.0
 40
76.0
 40
76.0
 40
76.0
 40
77.0
 40
77.0
 40
77.0
 40
78.0
 40
78.0
 40
78.0
 40
79.0
 40
79.0
 40
79.0
 40
80.0
 40
80.0
 40
80.0
 40
81.0
 40
81.0
 40
81.0
 40
82.0
 40
82.0
 40
82.0
 40
83.0
 40
83.0
 40
83.0
 40
84.0
 40
84.0
 40
84.0
 40
85.0
 40
85.0
 40
85.0
 40
86.0
 40
86.0
 40
86.0
 40
87.0
 40
87.0
 40
87.0
 40
88.0
 40
88.0
 40
88.0
 40
89.0
 40
89.0
 40
89.0
 40
90.0
 40
90.0
 40
90.0
 40
91.0
 40
91.0
 40
91.0
 40
92.0
 40
92.0
 40
92.0
 40
93.0
 40
93.0
 40
93.0
 40
94.0
 40
94.0
 40
94.0
 40
95.0
 40
95.0
 40
95.0
 40
96.0
 40
96.0
 40
96.0
 40
97.0
 40
97.0
 40
97.0
 40
98.0
 40
98.0
 40
98.0
 40
99.0
 40
99.0
 40
99.0
 40
100.0
 40
100.0
 40
100.0
 40
101.0
 40
101.0
 40
101.0
 40
102.0
 40
102.0
 40
102.0
 40
103.0
 40
103.0
 40
103.0
 40
104.0
 40
104.0
 40
104.0
 40
105.0
 40
105.0
 40
105.0
 40
106.0
 40
106.0
 40
106.0
 40
107.0
 40
107.0
 40
107.0
 40
108.0
 40
108.0
 40
108.0
 40
109.0
 40
109.0
 40
109.0
 40
110.0
 40
110.0
 40
110.0
 40
111.0
 40
111.0
 40
111.0
 40
112.0
 40
112.0
 40
112.0
 40
113.0
 40
113.0
 40
113.0
 40
114.0
 40
114.0
 40
114.0
 40
115.0
 40
115.0
 40
115.0
 40
116.0
 40
116.0
 40
116.0
 40
117.0
 40
117.0
 40
117.0
 40
118.0
 40
118.0
 40
118.0
 40
119.0
 40
119.0
 40
119.0
 40
120.0
 40
120.0
 40
120.0
 40
121.0
 40
121.0
 40
121.0
 40
122.0
 40
122.0
 40
122.0
 40
123.0
 40
123.0
 40
123.0
 40
124.0
 40
124.0
 40
124.0
 40
125.0
 40
125.0
 40
125.0
 40
126.0
 40
126.0
 40
126.0
 40
127.0
 40
127.0
 40
127.0
 40
128.0
 40
128.0
 40
128.0
 40
129.0
 40
129.0
 40
129.0
 40
130.0
 40
130.0
 40
130.0
 40
131.0
 40
131.0
 40
131.0
 40
132.0
 40
132.0
 40
132.0
 40
133.0
 40
133.0
 40
133.0
 40
134.0
 40
134.0
 40
134.0
 40
135.0
 40
135.0
 40
135.0
 40
136.0
 40
136.0
 40
136.0
 40
137.0
 40
137.0
 40
137.0
 40
138.0
 40
138.0
 40
138.0
 40
139.0
 40
139.0
 40
139.0
 40
140.0
 40
140.0
 40
140.0
 40
141.0
 40
141.0
 40
141.0
 40
142.0
 40
142.0
 40
142.0
 40
143.0
 40
143.0
 40
143.0
 40
144.0
 40
144.0
 40
144.0
 40
145.0
 40
145.0
 40
145.0
 40
146.0
 40
146.0
 40
146.0
 40
147.0
 40
147.0
 40
147.0
 40
148.0
 40
148.0
 40
148.0
 40
149.0
 40
149.0
 40
149.0
 40
150.0
 40
150.0
 40
150.0
 40
151.0
 40
151.0
 40
151.0
 40
151.0
 10
7.967399798726547
 20
-8.544769444444455
 10
7.886084523002965
 20
-8.50370833333333
 10
7.781899803412671
 20
-8.536008333333331
 10
7.705813694223656
 20
-8.559577777777779
 10
7.705813694223656
 20
-8.559577777777779
 10
7.7024331387535
 20
-8.560618055555551
 10
7.7024331387535
 20
-8.560618055555551
 10
7.63021647391118
 20
-8.582951388888887
 10
7.563302586712679
 20
-8.616038888888877
 10
7.498583333333322
 20
-8.648058333333337
 10
7.453553978374051
 20
-8.670320833333335
 10
7.406974812884073
 20
-8.693358333333334
 10
7.359540091860152
 20
-8.71222222222223
 10
7.22905120626769
 20
-8.764147222222213
 10
7.105399820502498
 20
-8.781461111111108
 10
6.981799823624897
 20
-8.76567361111112
 10
6.904462325578606
 20
-8.755734722222213
 10
6.824313716492219
 20
-8.75087083333334
 10
6.746822051783156
 20
-8.746104166666656
 10
6.675291666666655
 20
-8.741772222222227
 10
6.601305555555554
 20
-8.737290277777776
 10
6.529844279486698
 20
-8.728770833333328
 10
6.375397061166141
 20
-8.710383333333336
 10
6.242806786737876
 20
-8.664873611111108
 10
6.124491511948993
 20
-8.589594444444451
 10
6.098176234835996
 20
-8.572840277777788
 10
6.074041666666668
 20
-8.554087499999998
 10
6.052083333333333
 20
-8.535881944444453
 10
6.140941511533431
 20
-8.487986111111114
 10
6.218466509574985
 20
-8.457550000000007
 10
6.294688729871672
 20
-8.440543055555558
 10
6.393486111111113
 20
-8.418527777777777
 10
6.498805555555564
 20
-8.391045833333338
 10
6.599615111057473
 20
-8.33954722222221
 10
6.729553996663829
 20
-8.273175000000013
 10
6.832809549610929
 20
-8.180930555555555
 10
6.898206770181079
 20
-8.07276944444445
 10
6.914960936424499
 20
-8.045048611111117
 10
6.996986111111103
 20
-7.901115277777787
 10
6.966497046233699
 20
-7.788690277777782
 10
6.955500000000003
 20
-7.748109722222225
 10
6.93122899156909
 20
-7.717361111111106
 10
6.894378992499999
 20
-7.697334722222219
 10
6.870005382004617
 20
-7.684072222222211
 10
6.842898438244951
 20
-7.677350000000009
 10
6.809030383544975
 20
-7.676350000000006
 10
6.753712329386872
 20
-7.674613888888896
 10
6.697176219703983
 20
-7.68636388888889
 10
6.636185943466948
 20
-7.712272222222231
 10
6.582740111483771
 20
-7.734987500000013
 10
6.532841501633205
 20
-7.764420833333335
 10
6.484581780630125
 20
-7.792877777777776
 10
6.455611111111112
 20
-7.809977777777779
 10
6.425659559896403
 20
-7.827647222222216
 10
6.395642893988022
 20
-7.843397222222215
 10
6.374062338977637
 20
-7.854731944444438
 10
6.348162339631926
 20
-7.867144444444445
 10
6.319640118130236
 20
-7.873376388888901
 10
6.21630555555555
 20
-7.895947222222225
 10
6.108810956789562
 20
-7.900755555555557
 10
6.004845681638168
 20
-7.905386111111106
 10
5.914772072802507
 20
-7.90938194444445
 10
5.821651241821605
 20
-7.91352777777777
 10
5.730383188571674
 20
-7.929115277777782
 10
5.609276247186648
 20
-7.949748611111115
 10
5.483870694799103
 20
-7.989904166666671
 10
5.346980420479465
 20
-8.05186944444444
 10
5.261029033761891
 20
-8.090755555555562
 10
5.176236111111115
 20
-8.134851388888894
 10
5.094234593531028
 20
-8.17749027777778
 10
5.094234593531028
 20
-8.17749027777778
 10
5.047123483610044
 20
-8.20193750000001
 10
5.047123483610044
 20
-8.20193750000001
 10
5.029841539602178
 20
-8.210895833333325
 10
5.012509595595575
 20
-8.219737499999988
 10
4.995162373811581
 20
-8.228597222222232
 10
4.95272765266135
 20
-8.25024027777777
 10
4.908851264880872
 20
-8.272641666666662
 10
4.8662734881787
 20
-8.296234722222227
 10
4.814474878376132
 20
-8.324958333333345
 10
4.762140157475995
 20
-8.35691666666667
 10
4.711522103199159
 20
-8.387834722222225
 10
4.545217940733689
 20
-8.4894138888889
 10
4.373261000633243
 20
-8.594452777777784
 10
4.178148505562199
 20
-8.612743055555558
 10
4.053279064272222
 20
-8.624451388888877
 10
3.937891567187155
 20
-8.624819444444432
 10
3.82555555555555
 20
-8.614158333333332
 10
3.82555555555555
 20
-8.614158333333332
 10
3.789083333333338
 20
-8.611198611111098
 10
3.789083333333338
 20
-8.611198611111098
 10
3.759491571693919
 20
-8.608770833333336
 10
3.729876294664286
 20
-8.606362500000007
 10
3.700237406524138
 20
-8.60413472222222
 10
3.668120740668807
 20
-8.601736111111121
 10
3.65105407443328
 20
-8.62101527777779
 10
3.648392963389394
 20
-8.64113472222223
 10
3.645741574567485
 20
-8.660909722222211
 10
3.656973518728187
 20
-8.683901388888899
 10
3.68804990683202
 20
-8.69075833333333
 10
3.693259628922634
 20
-8.69189305555556
 10
3.698683239896733
 20
-8.692537499999995
 10
3.703898517542762
 20
-8.692793055555562
 10
3.730058239104134
 20
-8.694418055555564
 10
3.756158238444792
 20
-8.696840277777785
 10
3.782240182230352
 20
-8.699287500000006
 10
3.82434157005567
 20
-8.703208333333325
 10
3.867854068956452
 20
-8.707265277777777
 10
3.911384623412333
 20
-8.707773611111103
 10
3.973999999999996
 20
-8.708459722222212
 10
4.038547120199938
 20
-8.70777916666667
 10
4.103229063010379
 20
-8.70574722222222
 10
4.266779058878758
 20
-8.700640277777767
 10
4.40785266642605
 20
-8.662618055555564
 10
4.53452349655941
 20
-8.589458333333344
 10
4.53452349655941
 20
-8.589458333333344
 10
4.632690160746177
 20
-8.532580555555569
 10
4.632690160746177
 20
-8.532580555555569
 10
4.893255431941522
 20
-8.38142500000001
 10
5.162684591801836
 20
-8.225119444444443
 10
5.441245695875901
 20
-8.106855555555562
 10
5.559327637337345
 20
-8.056752777777774
 10
5.686736111111107
 20
-8.02235694444443
 10
5.819905408532374
 20
-8.004608333333332
 10
5.884784573560055
 20
-7.995954166666656
 10
5.951617905205037
 20
-7.993937500000002
 10
6.016245681350179
 20
-7.991972222222229
 10
6.085124999999999
 20
-7.989890277777779
 10
6.156337344477834
 20
-7.987737499999993
 10
6.226780398253847
 20
-7.977687500000002
 10
6.321199840313056
 20
-7.964219444444451
 10
6.404554004874019
 20
-7.938679166666664
 10
6.474522058662033
 20
-7.901781944444438
 10
6.501498446869441
 20
-7.887562500000008
 10
6.527649835097691
 20
-7.872124999999995
 10
6.55294289001429
 20
-7.857191666666671
 10
6.605744277569303
 20
-7.826012500000009
 10
6.655619276309355
 20
-7.796580555555566
 10
6.712744274866256
 20
-7.776997222222209
 10
6.751163718340144
 20
-7.763813888888889
 10
6.79131371732587
 20
-7.760522222222233
 10
6.832048438519045
 20
-7.767376388888882
 10
6.856137326799399
 20
-7.771413888888901
 10
6.869912326451413
 20
-7.783126388888881
 10
6.876737326278999
 20
-7.805323611111109
 10
6.887212326014378
 20
-7.839411111111101
 10
6.886919270466225
 20
-7.875304166666663
 10
6.87588315963391
 20
-7.911973611111105
 10
6.804334550330268
 20
-8.149612500000002
 10
6.570873445116881
 20
-8.283654166666667
 10
6.376237338922692
 20
-8.32983749999999
 10
6.265172063950659
 20
-8.356206944444441
 10
6.120495678716603
 20
-8.39620000000001
 10
5.986527777777774
 20
-8.471955555555546
 10
5.948009571962857
 20
-8.493751388888894
 10
5.904077628628228
 20
-8.522002777777768
 10
5.870284573926356
 20
-8.566472222222222
 10
5.858208333333335
 20
-8.582354166666669
 10
5.857152777777779
 20
-8.596283333333329
 10
5.858394296448952
 20
-8.605166666666667
 10
5.859912351966159
 20
-8.616011111111119
 10
5.865742907374422
 20
-8.625725000000001
 10
5.874840129366829
 20
-8.632545833333324
 10
5.894955406636452
 20
-8.647605555555552
 10
5.921490128188351
 20
-8.642180555555544
 10
5.939369294403352
 20
-8.619413888888882
 10
5.949909571914859
 20
-8.605993055555547
 10
5.960838738305433
 20
-8.596704166666667
 10
5.973494293541282
 20
-8.585966666666662
 10
5.973494293541282
 20
-8.585966666666662
 10
5.975066515723786
 20
-8.584640277777781
 10
5.975066515723786
 20
-8.584640277777781
 10
6.039451236319514
 20
-8.645523611111104
 10
6.115197067739346
 20
-8.688162500000013
 10
6.181162343850701
 20
-8.721969444444438
 10
6.287369285612132
 20
-8.776377777777775
 10
6.41254166666666
 20
-8.81181388888889
 10
6.553199834452244
 20
-8.827340277777768
 10
6.612419277400678
 20
-8.8338388888889
 10
6.672144275891898
 20
-8.834958333333336
 10
6.729890107766449
 20
-8.835990277777784
 10
6.795692883881909
 20
-8.837162500000002
 10
6.863745659940529
 20
-8.838376388888895
 10
6.929894269380585
 20
-8.84785277777779
 10
6.994898434405108
 20
-8.857123611111117
 10
7.048858155264194
 20
-8.86066249999999
 10
7.099733153978983
 20
-8.858831944444445
 10
7.189277777777786
 20
-8.855648611111114
 10
7.28114287161841
 20
-8.835794444444446
 10
7.380552591329332
 20
-8.798154166666665
 10
7.434478978855926
 20
-8.777736111111102
 10
7.486198421993826
 20
-8.751865277777773
 10
7.536208333333333
 20
-8.726866666666663
 10
7.559488697920137
 20
-8.715209722222223
 10
7.582763888888898
 20
-8.703572222222217
 10
7.606287307849016
 20
-8.692466666666657
 10
7.684399805875728
 20
-8.655555555555566
 10
7.769827581495418
 20
-8.620637500000004
 10
7.865115079088254
 20
-8.615123611111105
 10
7.891863689523638
 20
-8.613588888888899
 10
7.912040077902828
 20
-8.614568055555562
 10
7.929994244115934
 20
-8.624198611111119
 10
7.940688688290215
 20
-8.629945833333345
 10
7.9421261882539
 20
-8.634441666666664
 10
7.941305555555547
 20
-8.642354166666665
 10
7.939530354986143
 20
-8.659201388888883
 10
7.936851188387158
 20
-8.671754166666663
 10
7.932631744049305
 20
-8.683083333333343
 10
7.91528035559875
 20
-8.72963472222222
 10
7.888447022943283
 20
-8.77266111111112
 10
7.852870634953129
 20
-8.810969444444456
 10
7.852870634953129
 20
-8.810969444444456
 10
7.833595635440057
 20
-8.831873611111101
 10
7.833595635440057
 20
-8.831873611111101
 10
7.780019247904622
 20
-8.890127777777781
 10
7.729410915849762
 20
-8.945161111111121
 10
7.660947028690416
 20
-8.979434722222221
 10
7.570165086539317
 20
-9.02489861111111
 10
7.47627777777777
 20
-9.080341666666678
 10
7.373928980385547
 20
-9.14891388888888
 10
7.320501203957469
 20
-9.184699999999994
 10
7.268422038606432
 20
-9.204623611111122
 10
7.214728984407278
 20
-9.209795833333322
 10
7.134058153111861
 20
-9.217568055555551
 10
7.049595655245563
 20
-9.217041666666672
 10
6.967912323975725
 20
-9.216522222222212
 10
6.818973438849348
 20
-9.215570833333333
 10
6.664960942740031
 20
-9.214604166666655
 10
6.519784557518606
 20
-9.262462500000007
 10
6.478055555555557
 20
-9.276229166666655
 10
6.447170670464098
 20
-9.289879166666676
 10
6.419670671158807
 20
-9.306754166666678
 10
6.407527777777785
 20
-9.314213888888894
 10
6.399480393891078
 20
-9.325277777777778
 10
6.396987338398503
 20
-9.337943055555543
 10
6.394705394011705
 20
-9.34951527777778
 10
6.397333333333336
 20
-9.361227777777787
 10
6.404415115988639
 20
-9.370904166666655
 10
6.418992893398151
 20
-9.390847222222217
 10
6.44210539281428
 20
-9.395011111111115
 10
6.464783170019169
 20
-9.381762499999997
 10
6.493040113749784
 20
-9.365269444444442
 10
6.524816501835933
 20
-9.352152777777771
 10
6.561923445342977
 20
-9.341676388888901
 10
6.69297483092123
 20
-9.304719444444446
 10
6.830681771886904
 20
-9.299023611111124
 10
6.95996649084312
 20
-9.298347222222219
 10
6.987410934594259
 20
-9.298206944444447
 10
7.015448433885972
 20
-9.299126388888881
 10
7.0437470442822
 20
-9.300022222222221
 10
7.131873430944829
 20
-9.302833333333334
 10
7.222505373099718
 20
-9.305727777777772
 10
7.307883148720672
 20
-9.278829166666657
 10
7.303555555555552
 20
-9.288506944444457
 10
7.299334537825517
 20
-9.298402777777785
 10
7.295544260143489
 20
-9.308519444444451
 10
7.2726289829446
 20
-9.36965833333334
 10
7.229956761800369
 20
-9.414286111111121
 10
7.165083333333339
 20
-9.444979166666673
 10
7.098845654001403
 20
-9.476326388888891
 10
7.036898433344099
 20
-9.499531944444444
 10
6.975688712668165
 20
-9.515880555555567
 10
6.897669270194657
 20
-9.536733333333332
 10
6.81390816119953
 20
-9.556269444444448
 10
6.712090108216115
 20
-9.577345833333336
 10
6.609217888592664
 20
-9.59861944444444
 10
6.503562335706192
 20
-9.630661111111117
 10
6.389092894153489
 20
-9.675270833333343
 10
6.379645672169923
 20
-9.678940277777782
 10
6.369566505757878
 20
-9.683149999999992
 10
6.359837339336991
 20
-9.689031944444448
 10
6.337948451001061
 20
-9.702299999999997
 10
6.330559562298832
 20
-9.725355555555552
 10
6.341044284256188
 20
-9.747781944444442
 10
6.345763888888895
 20
-9.757865277777784
 10
6.353913728375523
 20
-9.765437500000012
 10
6.364006783676106
 20
-9.769087499999992
 10
6.375495672274761
 20
-9.77326111111112
 10
6.388374999999996
 20
-9.77222500000001
 10
6.401301227178414
 20
-9.766141666666675
 10
6.450111111111103
 20
-9.743169444444447
 10
6.502708333333329
 20
-9.726033333333335
 10
6.552387334472769
 20
-9.710440277777781
 10
6.66116927616915
 20
-9.676340277777777
 10
6.773770662213488
 20
-9.651776388888896
 10
6.879248437326673
 20
-9.630320833333345
 10
6.97045676835589
 20
-9.611779166666667
 10
7.061817877159026
 20
-9.584026388888889
 10
7.151259541566206
 20
-9.54772638888888
 10
7.144448430627158
 20
-9.580511111111111
 10
7.136784541931875
 20
-9.611409722222232
 10
7.118923431271973
 20
-9.638555555555563
 10
7.118923431271973
 20
-9.638555555555563
 10
7.116715097994428
 20
-9.641906944444447
 10
7.116715097994428
 20
-9.641906944444447
 10
7.097117876267273
 20
-9.671727777777782
 10
7.078594265624107
 20
-9.69988194444444
 10
7.049427599694253
 20
-9.716094444444453
 10
6.99944982317902
 20
-9.743837500000001
 10
6.953305555555566
 20
-9.763195833333333
 10
6.908383158812891
 20
-9.775277777777774
 10
6.851926215794669
 20
-9.790444444444448
 10
6.792976217283871
 20
-9.801162499999993
 10
6.735973440946104
 20
-9.811534722222227
 10
6.735973440946104
 20
-9.811534722222227
 10
6.718387330279256
 20
-9.814751388888881
 10
6.718387330279256
 20
-9.814751388888881
 10
6.675580386916206
 20
-9.822580555555557
 10
6.632838721329285
 20
-9.832626388888885
 10
6.591501222373558
 20
-9.842322222222213
 10
6.558959556528962
 20
-9.849959722222213
 10
6.525297057379349
 20
-9.857876388888876
 10
6.492148447105642
 20
-9.864566666666658
 10
6.448584559317269
 20
-9.873347222222213
 10
6.40494150486423
 20
-9.881702777777768
 10
6.36129428374463
 20
-9.890063888888891
 10
6.36129428374463
 20
-9.890063888888891
 10
6.317226229302327
 20
-9.898522222222228
 10
6.317226229302327
 20
-9.898522222222228
 10
6.292723452143541
 20
-9.903237500000007
 10
6.278410952505105
 20
-9.920066666666672
 10
6.278952619158089
 20
-9.943533333333335
 10
6.27929289692727
 20
-9.957784722222211
 10
6.286487341189968
 20
-9.969912499999989
 10
6.297760952016283
 20
-9.977368055555543
 10
6.297760952016283
 20
-9.977368055555543
 10
6.292602618813261
 20
-9.97771388888888
 10
6.292602618813261
 20
-9.97771388888888
 10
6.210067898676041
 20
-9.983147222222215
 10
6.128570678512611
 20
-9.999383333333324
 10
6.049767902725559
 20
-10.01507777777778
 10
6.049767902725559
 20
-10.01507777777778
 10
6.017598459093784
 20
-10.02145416666667
 10
6.017598459093784
 20
-10.02145416666667
 10
5.952267905188616
 20
-10.03431527777778
 10
5.890460962305547
 20
-10.03415277777779
 10
5.828699852754653
 20
-10.02099722222222
 10
5.730784577450422
 20
-10.00015416666666
 10
5.631767913285127
 20
-9.97327916666667
 10
5.525958333333329
 20
-9.938823611111122
 10
5.322622087761474
 20
-9.872558333333346
 10
5.136879036898184
 20
-9.82520833333332
 10
4.958101263636713
 20
-9.794076388888898
 10
4.832083333333331
 20
-9.772122222222226
 10
4.703852658948461
 20
-9.766454166666664
 10
4.576984606597862
 20
-9.777215277777788
 10
4.533510996584988
 20
-9.780906944444444
 10
4.494237386466011
 20
-9.779034722222224
 10
4.456923498519751
 20
-9.771468055555562
 10
4.396779055594682
 20
-9.759293055555569
 10
4.335877668244292
 20
-9.744869444444449
 10
4.276992947509623
 20
-9.730924999999994
 10
4.201638888888889
 20
-9.713055555555558
 10
4.123727673603652
 20
-9.694606944444457
 10
4.045819444444444
 20
-9.680447222222229
 10
3.968598510855877
 20
-9.666415277777787
 10
3.890270735056826
 20
-9.66114444444444
 10
3.814520736970432
 20
-9.656084722222229
 10
3.792359626419157
 20
-9.654595833333333
 10
3.770199904756737
 20
-9.653087500000007
 10
3.748030460872339
 20
-9.651397222222233
 10
3.724102683699028
 20
-9.649562500000002
 10
3.705247128619804
 20
-9.663698611111107
 10
3.701120739835157
 20
-9.686581944444443
 10
3.696755462167655
 20
-9.710870833333324
 10
3.710504072931447
 20
-9.731069444444453
 10
3.735375000000001
 20
-9.736876388888883
 10
3.744404072075061
 20
-9.738963888888899
 10
3.754192960716662
 20
-9.740233333333334
 10
3.764341571571397
 20
-9.740569444444443
 10
3.877041666666666
 20
-9.744270833333328
 10
3.986677677065826
 20
-9.756837499999998
 10
4.0902707300044
 20
-9.77788194444444
 10
4.137992951021058
 20
-9.787554166666672
 10
4.186580449793635
 20
-9.800000000000004
 10
4.233583333333336
 20
-9.812062500000012
 10
4.298616558074476
 20
-9.82870972222223
 10
4.365870723042159
 20
-9.845954166666665
 10
4.433154054675772
 20
-9.856531944444441
 10
4.521288774671524
 20
-9.8704111111111
 10
4.610545716861148
 20
-9.870195833333328
 10
4.696855436903004
 20
-9.869976388888896
 10
4.787287379062946
 20
-9.869766666666665
 10
4.880799876700621
 20
-9.869551388888896
 10
4.971834596623112
 20
-9.88575972222222
 10
5.077905427276871
 20
-9.904674999999997
 10
5.190292924437724
 20
-9.931129166666677
 10
5.325506809910823
 20
-9.969016666666676
 10
5.381361111111105
 20
-9.984673611111122
 10
5.437799862629618
 20
-10.00240416666667
 10
5.492370694584375
 20
-10.01954583333334
 10
5.575544303594344
 20
-10.04565416666666
 10
5.661523468088995
 20
-10.07268333333334
 10
5.748398465894348
 20
-10.09332638888888
 10
5.7948040202776
 20
-10.10434722222223
 10
5.838308185845259
 20
-10.11151805555556
 10
5.87975679590929
 20
-10.11485555555555
 10
5.94555957202475
 20
-10.12015416666668
 10
6.006198459381772
 20
-10.11579444444444
 10
6.06506944444445
 20
-10.10185972222222
 10
6.119875000000004
 20
-10.08891527777779
 10
6.175155399558005
 20
-10.08047916666666
 10
6.231687342574332
 20
-10.07226388888888
 10
6.285851230094926
 20
-10.06440694444445
 10
6.342104006451639
 20
-10.06151250000001
 10
6.40166511605811
 20
-10.05846805555555
 10
6.508594280023519
 20
-10.05296944444444
 10
6.619155388341621
 20
-10.04728333333333
 10
6.719106774705526
 20
-10.01079305555555
 10
6.761824829181933
 20
-9.995191666666667
 10
6.81656944444444
 20
-9.971794444444438
 10
6.861224826670878
 20
-9.928847222222227
 10
6.879044270665164
 20
-9.911723611111103
 10
6.889258159296029
 20
-9.893826388888884
 10
6.895452603583989
 20
-9.868711111111123
 10
6.895826214685662
 20
-9.86864999999999
 10
6.896199825787335
 20
-9.868584722222218
 10
6.896595659110668
 20
-9.868505555555556
 10
6.961923435238127
 20
-9.855183333333343
 10
7.016881767183096
 20
-9.830861111111112
 10
7.066537321484248
 20
-9.80657361111111
 10
7.113008153643628
 20
-9.783825000000004
 10
7.150835930465796
 20
-9.749984722222228
 10
7.18214981856363
 20
-9.703102777777783
 10
7.216763888888888
 20
-9.651252777777774
 10
7.2373275949475
 20
-9.58944583333333
 10
7.246831761374071
 20
-9.508620833333326
 10
7.248035928010317
 20
-9.498411111111105
 10
7.249166666666674
 20
-9.497697222222213
 10
7.253344261209551
 20
-9.495059722222221
 10
7.305445648782248
 20
-9.461976388888893
 10
7.344415092242242
 20
-9.415919444444448
 10
7.369447036054326
 20
-9.35741805555555
 10
7.380392869111144
 20
-9.33188333333333
 10
7.391340091056817
 20
-9.30629722222223
 10
7.40299286854022
 20
-9.281093055555553
 10
7.421212312524403
 20
-9.24177777777777
 10
7.442106756441009
 20
-9.214090277777787
 10
7.468738700212675
 20
-9.19396666666666
 10
7.516705365667601
 20
-9.15771249999999
 10
7.569063697678252
 20
-9.125483333333325
 10
7.624344251837303
 20
-9.098188888888899
 10
7.716423416177854
 20
-9.052744444444443
 10
7.798191469667775
 20
-8.994409722222219
 10
7.867305555555554
 20
-8.924863888888895
 10
7.867305555555554
 20
-8.924863888888895
 10
7.869111111111124
 20
-8.923029166666664
 10
7.869111111111124
 20
-8.923029166666664
 10
7.939306743880681
 20
-8.852259722222218
 10
8.020817852932648
 20
-8.757429166666673
 10
8.028253963855907
 20
-8.651591666666667
 10
8.031723408212706
 20
-8.602118055555568
 10
8.011817853160007
 20
-8.567181944444453
 10
7.967399798726547
 20
-8.544769444444455
 97
        0
 97
        0
 92
        1
 93
        1
 72
     4
 94
        3
 73
     0
 74
     1
 95
       20
 96
       16
 40
0.0
 40
0.0
 40
0.0
 40
0.0
 40
1.0
 40
1.0
 40
1.0
 40
2.0
 40
2.0
 40
2.0
 40
3.0
 40
3.0
 40
3.0
 40
4.0
 40
4.0
 40
4.0
 40
5.0
 40
5.0
 40
5.0
 40
5.0
 10
6.758767884814713
 20
-9.896594444444442
 10
6.712916666666665
 20
-9.930761111111122
 10
6.656165109628899
 20
-9.947254166666678
 10
6.586787333603752
 20
-9.956790277777776
 10
6.526829001785093
 20
-9.965058333333344
 10
6.464899836682889
 20
-9.970029166666665
 10
6.405095671527002
 20
-9.97022083333334
 10
6.427401226519073
 20
-9.965813888888887
 10
6.449695670400311
 20
-9.96163611111112
 10
6.471604003180194
 20
-9.957523611111101
 10
6.523388888888879
 20
-9.947837500000004
 10
6.576931778297168
 20
-9.937809722222228
 10
6.629313721418334
 20
-9.924879166666667
 10
6.671944444444433
 20
-9.914384722222216
 10
6.715508163685323
 20
-9.905216666666673
 10
6.758767884814713
 20
-9.896594444444442
 97
        0
 97
        0
 75
     2
 76
     1
 98
        0
  0
SPLINE
  5
4D
330
1F
100
AcDbEntity
  8
Layer 1
370
     0
100
AcDbSpline
210
0.0
220
0.0
230
1.0
 70
    11
 71
     3
 72
   458
 73
   454
 74
     0
 42
0.0000000001
 43
0.0000000001
 12
1.0
 22
0.0
 32
0.0
 13
1.0
 23
0.0
 33
0.0
 40
0.0
 40
0.0
 40
0.0
 40
0.0
 40
1.0
 40
1.0
 40
1.0
 40
2.0
 40
2.0
 40
2.0
 40
3.0
 40
3.0
 40
3.0
 40
4.0
 40
4.0
 40
4.0
 40
5.0
 40
5.0
 40
5.0
 40
6.0
 40
6.0
 40
6.0
 40
7.0
 40
7.0
 40
7.0
 40
8.0
 40
8.0
 40
8.0
 40
9.0
 40
9.0
 40
9.0
 40
10.0
 40
10.0
 40
10.0
 40
11.0
 40
11.0
 40
11.0
 40
12.0
 40
12.0
 40
12.0
 40
13.0
 40
13.0
 40
13.0
 40
14.0
 40
14.0
 40
14.0
 40
15.0
 40
15.0
 40
15.0
 40
16.0
 40
16.0
 40
16.0
 40
17.0
 40
17.0
 40
17.0
 40
18.0
 40
18.0
 40
18.0
 40
19.0
 40
19.0
 40
19.0
 40
20.0
 40
20.0
 40
20.0
 40
21.0
 40
21.0
 40
21.0
 40
22.0
 40
22.0
 40
22.0
 40
23.0
 40
23.0
 40
23.0
 40
24.0
 40
24.0
 40
24.0
 40
25.0
 40
25.0
 40
25.0
 40
26.0
 40
26.0
 40
26.0
 40
27.0
 40
27.0
 40
27.0
 40
28.0
 40
28.0
 40
28.0
 40
29.0
 40
29.0
 40
29.0
 40
30.0
 40
30.0
 40
30.0
 40
31.0
 40
31.0
 40
31.0
 40
32.0
 40
32.0
 40
32.0
 40
33.0
 40
33.0
 40
33.0
 40
34.0
 40
34.0
 40
34.0
 40
35.0
 40
35.0
 40
35.0
 40
36.0
 40
36.0
 40
36.0
 40
37.0
 40
37.0
 40
37.0
 40
38.0
 40
38.0
 40
38.0
 40
39.0
 40
39.0
 40
39.0
 40
40.0
 40
40.0
 40
40.0
 40
41.0
 40
41.0
 40
41.0
 40
42.0
 40
42.0
 40
42.0
 40
43.0
 40
43.0
 40
43.0
 40
44.0
 40
44.0
 40
44.0
 40
45.0
 40
45.0
 40
45.0
 40
46.0
 40
46.0
 40
46.0
 40
47.0
 40
47.0
 40
47.0
 40
48.0
 40
48.0
 40
48.0
 40
49.0
 40
49.0
 40
49.0
 40
50.0
 40
50.0
 40
50.0
 40
51.0
 40
51.0
 40
51.0
 40
52.0
 40
52.0
 40
52.0
 40
53.0
 40
53.0
 40
53.0
 40
54.0
 40
54.0
 40
54.0
 40
55.0
 40
55.0
 40
55.0
 40
56.0
 40
56.0
 40
56.0
 40
57.0
 40
57.0
 40
57.0
 40
58.0
 40
58.0
 40
58.0
 40
59.0
 40
59.0
 40
59.0
 40
60.0
 40
60.0
 40
60.0
 40
61.0
 40
61.0
 40
61.0
 40
62.0
 40
62.0
 40
62.0
 40
63.0
 40
63.0
 40
63.0
 40
64.0
 40
64.0
 40
64.0
 40
65.0
 40
65.0
 40
65.0
 40
66.0
 40
66.0
 40
66.0
 40
67.0
 40
67.0
 40
67.0
 40
68.0
 40
68.0
 40
68.0
 40
69.0
 40
69.0
 40
69.0
 40
70.0
 40
70.0
 40
70.0
 40
71.0
 40
71.0
 40
71.0
 40
72.0
 40
72.0
 40
72.0
 40
73.0
 40
73.0
 40
73.0
 40
74.0
 40
74.0
 40
74.0
 40
75.0
 40
75.0
 40
75.0
 40
76.0
 40
76.0
 40
76.0
 40
77.0
 40
77.0
 40
77.0
 40
78.0
 40
78.0
 40
78.0
 40
79.0
 40
79.0
 40
79.0
 40
80.0
 40
80.0
 40
80.0
 40
81.0
 40
81.0
 40
81.0
 40
82.0
 40
82.0
 40
82.0
 40
83.0
 40
83.0
 40
83.0
 40
84.0
 40
84.0
 40
84.0
 40
85.0
 40
85.0
 40
85.0
 40
86.0
 40
86.0
 40
86.0
 40
87.0
 40
87.0
 40
87.0
 40
88.0
 40
88.0
 40
88.0
 40
89.0
 40
89.0
 40
89.0
 40
90.0
 40
90.0
 40
90.0
 40
91.0
 40
91.0
 40
91.0
 40
92.0
 40
92.0
 40
92.0
 40
93.0
 40
93.0
 40
93.0
 40
94.0
 40
94.0
 40
94.0
 40
95.0
 40
95.0
 40
95.0
 40
96.0
 40
96.0
 40
96.0
 40
97.0
 40
97.0
 40
97.0
 40
98.0
 40
98.0
 40
98.0
 40
99.0
 40
99.0
 40
99.0
 40
100.0
 40
100.0
 40
100.0
 40
101.0
 40
101.0
 40
101.0
 40
102.0
 40
102.0
 40
102.0
 40
103.0
 40
103.0
 40
103.0
 40
104.0
 40
104.0
 40
104.0
 40
105.0
 40
105.0
 40
105.0
 40
106.0
 40
106.0
 40
106.0
 40
107.0
 40
107.0
 40
107.0
 40
108.0
 40
108.0
 40
108.0
 40
109.0
 40
109.0
 40
109.0
 40
110.0
 40
110.0
 40
110.0
 40
111.0
 40
111.0
 40
111.0
 40
112.0
 40
112.0
 40
112.0
 40
113.0
 40
113.0
 40
113.0
 40
114.0
 40
114.0
 40
114.0
 40
115.0
 40
115.0
 40
115.0
 40
116.0
 40
116.0
 40
116.0
 40
117.0
 40
117.0
 40
117.0
 40
118.0
 40
118.0
 40
118.0
 40
119.0
 40
119.0
 40
119.0
 40
120.0
 40
120.0
 40
120.0
 40
121.0
 40
121.0
 40
121.0
 40
122.0
 40
122.0
 40
122.0
 40
123.0
 40
123.0
 40
123.0
 40
124.0
 40
124.0
 40
124.0
 40
125.0
 40
125.0
 40
125.0
 40
126.0
 40
126.0
 40
126.0
 40
127.0
 40
127.0
 40
127.0
 40
128.0
 40
128.0
 40
128.0
 40
129.0
 40
129.0
 40
129.0
 40
130.0
 40
130.0
 40
130.0
 40
131.0
 40
131.0
 40
131.0
 40
132.0
 40
132.0
 40
132.0
 40
133.0
 40
133.0
 40
133.0
 40
134.0
 40
134.0
 40
134.0
 40
135.0
 40
135.0
 40
135.0
 40
136.0
 40
136.0
 40
136.0
 40
137.0
 40
137.0
 40
137.0
 40
138.0
 40
138.0
 40
138.0
 40
139.0
 40
139.0
 40
139.0
 40
140.0
 40
140.0
 40
140.0
 40
141.0
 40
141.0
 40
141.0
 40
142.0
 40
142.0
 40
142.0
 40
143.0
 40
143.0
 40
143.0
 40
144.0
 40
144.0
 40
144.0
 40
145.0
 40
145.0
 40
145.0
 40
146.0
 40
146.0
 40
146.0
 40
147.0
 40
147.0
 40
147.0
 40
148.0
 40
148.0
 40
148.0
 40
149.0
 40
149.0
 40
149.0
 40
150.0
 40
150.0
 40
150.0
 40
151.0
 40
151.0
 40
151.0
 40
151.0
 10
4.59008877293349
 20
-3.532158333333339
 30
0.0
 10
4.671142937552556
 20
-3.573727777777776
 30
0.0
 10
4.775527777777774
 20
-3.542081944444451
 30
0.0
 10
4.851759599656462
 20
-3.518993055555559
 30
0.0
 10
4.851759599656462
 20
-3.518993055555559
 30
0.0
 10
4.855148488459741
 20
-3.517970833333329
 30
0.0
 10
4.855148488459741
 20
-3.517970833333329
 30
0.0
 10
4.927501264409734
 20
-3.496095833333331
 30
0.0
 10
4.994625000000004
 20
-3.463427777777774
 30
0.0
 10
5.059545705518454
 20
-3.431815277777774
 30
0.0
 10
5.104710982155262
 20
-3.409833333333331
 30
0.0
 10
5.151434592086034
 20
-3.387088888888886
 30
0.0
 10
5.19898459088482
 20
-3.36852361111111
 30
0.0
 10
5.329801254246781
 20
-3.317420833333333
 30
0.0
 10
5.453555555555554
 20
-3.300886111111115
 30
0.0
 10
5.577052636889574
 20
-3.317444444444441
 30
0.0
 10
5.654329023826297
 20
-3.327873611111108
 30
0.0
 10
5.734444444444446
 20
-3.333237499999996
 30
0.0
 10
5.811904019845618
 20
-3.338488888888883
 30
0.0
 10
5.883406795817083
 20
-3.343269444444445
 30
0.0
 10
5.957365127282072
 20
-3.348216666666669
 30
0.0
 10
6.028769292144918
 20
-3.357188888888888
 30
0.0
 10
6.183095677135194
 20
-3.376544444444448
 30
0.0
 10
6.315401229348431
 20
-3.422884722222218
 30
0.0
 10
6.433241504149312
 20
-3.498906944444444
 30
0.0
 10
6.459448447931713
 20
-3.515829166666663
 30
0.0
 10
6.483465113991668
 20
-3.534730555555559
 30
0.0
 10
6.505308168995422
 20
-3.553070833333335
 30
0.0
 10
6.416155393469833
 20
-3.600411111111106
 30
0.0
 10
6.338438728766454
 20
-3.630358333333334
 30
0.0
 10
6.262109564028024
 20
-3.646887499999997
 30
0.0
 10
6.163176233193957
 20
-3.668277777777778
 30
0.0
 10
6.057684569192234
 20
-3.695101388888891
 30
0.0
 10
5.956552627302598
 20
-3.745965277777777
 30
0.0
 10
5.826198463928955
 20
-3.811520833333336
 30
0.0
 10
5.722373466551795
 20
-3.903115277777778
 30
0.0
 10
5.656294301554428
 20
-4.010862500000004
 30
0.0
 10
5.639363746426574
 20
-4.038474999999999
 30
0.0
 10
5.556441526299143
 20
-4.181895833333328
 30
0.0
 10
5.586220692213525
 20
-4.294506944444442
 30
0.0
 10
5.596966525275396
 20
-4.335156944444444
 30
0.0
 10
5.621035969111795
 20
-4.366055555555552
 30
0.0
 10
5.657765134850605
 20
-4.386315277777777
 30
0.0
 10
5.682054023125905
 20
-4.399727777777772
 30
0.0
 10
5.709119300219956
 20
-4.406622222222217
 30
0.0
 10
5.74297902158681
 20
-4.407831944444448
 30
0.0
 10
5.798281797967522
 20
-4.409913888888885
 30
0.0
 10
5.854898463203932
 20
-4.398523611111108
 30
0.0
 10
5.916047072770298
 20
-4.372997222222226
 30
0.0
 10
5.96963318252771
 20
-4.350618055555552
 30
0.0
 10
6.019713736818125
 20
-4.32149861111111
 30
0.0
 10
6.068155402261052
 20
-4.29334444444444
 30
0.0
 10
6.097233179304263
 20
-4.276426388888884
 30
0.0
 10
6.127297067433674
 20
-4.25894861111111
 30
0.0
 10
6.157410955561823
 20
-4.243384722222219
 30
0.0
 10
6.179062343903752
 20
-4.23219027777778
 30
0.0
 10
6.205035954358714
 20
-4.219937500000002
 30
0.0
 10
6.233595675859457
 20
-4.213881944444438
 30
0.0
 10
6.337070673245458
 20
-4.191959722222224
 30
0.0
 10
6.444594281640295
 20
-4.187829166666662
 30
0.0
 10
6.548587334568765
 20
-4.183851388888885
 30
0.0
 10
6.638678998959525
 20
-4.180420833333338
 30
0.0
 10
6.731827607717504
 20
-4.176863888888887
 30
0.0
 10
6.8231928831872
 20
-4.161849999999996
 30
0.0
 10
6.944426213457922
 20
-4.141977777777773
 30
0.0
 10
7.070080376950298
 20
-4.102606944444448
 30
0.0
 10
7.207358151260147
 20
-4.041504166666666
 30
0.0
 10
7.293555555555561
 20
-4.003159722222222
 30
0.0
 10
7.378619258044838
 20
-3.959595833333335
 30
0.0
 10
7.460887311522129
 20
-3.91747083333333
 30
0.0
 10
7.460887311522129
 20
-3.91747083333333
 30
0.0
 10
7.508148421439323
 20
-3.893322222222221
 30
0.0
 10
7.508148421439323
 20
-3.893322222222221
 30
0.0
 10
7.525490087667903
 20
-3.884470833333328
 30
0.0
 10
7.542878976117511
 20
-3.875741666666663
 30
0.0
 10
7.560283142344511
 20
-3.866988888888891
 30
0.0
 10
7.602851196824708
 20
-3.845612500000003
 30
0.0
 10
7.64686786237942
 20
-3.823486111111113
 30
0.0
 10
7.689591472411242
 20
-3.800163888888884
 30
0.0
 10
7.741572026653658
 20
-3.771762499999997
 30
0.0
 10
7.79410258088218
 20
-3.740134722222226
 30
0.0
 10
7.844910912931987
 20
-3.709534722222227
 30
0.0
 10
8.011851186492498
 20
-3.609005555555553
 30
0.0
 10
8.184466459909647
 20
-3.505044444444441
 30
0.0
 10
8.379690066088996
 20
-3.487977777777776
 30
0.0
 10
8.504628951821662
 20
-3.477054166666663
 30
0.0
 10
8.620017837795583
 20
-3.477413888888893
 30
0.0
 10
8.732283112737301
 20
-3.488780555555561
 30
0.0
 10
8.732283112737301
 20
-3.488780555555561
 30
0.0
 10
8.768737278483059
 20
-3.491969444444445
 30
0.0
 10
8.768737278483059
 20
-3.491969444444445
 30
0.0
 10
8.798315055513639
 20
-3.494583333333328
 30
0.0
 10
8.827910888099318
 20
-3.49717916666667
 30
0.0
 10
8.85754005401749
 20
-3.499587499999999
 30
0.0
 10
8.88963888888889
 20
-3.502193055555558
 30
0.0
 10
8.906827552772382
 20
-3.483020833333335
 30
0.0
 10
8.90961366381311
 20
-3.462915277777774
 30
0.0
 10
8.912387274854154
 20
-3.443158333333334
 30
0.0
 10
8.901299775134248
 20
-3.420098611111105
 30
0.0
 10
8.870266442584882
 20
-3.413044444444444
 30
0.0
 10
8.865065053827392
 20
-3.41187777777778
 30
0.0
 10
8.859645609519854
 20
-3.411199999999995
 30
0.0
 10
8.85443588742924
 20
-3.410906944444441
 30
0.0
 10
8.828284499200992
 20
-3.409123611111113
 30
0.0
 10
8.802203944304285
 20
-3.406531944444446
 30
0.0
 10
8.776131722740704
 20
-3.403922222222225
 30
0.0
 10
8.734056723803608
 20
-3.399740277777773
 30
0.0
 10
8.690573391568755
 20
-3.395408333333332
 30
0.0
 10
8.647047003779436
 20
-3.394623611111115
 30
0.0
 10
8.584431727583453
 20
-3.393545833333329
 30
0.0
 10
8.519885895880684
 20
-3.39382083333333
 30
0.0
 10
8.455192841959413
 20
-3.395445833333333
 30
0.0
 10
8.291611111111099
 20
-3.399530555555556
 30
0.0
 10
8.150303960772664
 20
-3.436665277777782
 30
0.0
 10
8.023176186206404
 20
-3.509027777777773
 30
0.0
 10
8.023176186206404
 20
-3.509027777777773
 30
0.0
 10
7.924653966473064
 20
-3.565287500000004
 30
0.0
 10
7.924653966473064
 20
-3.565287500000004
 30
0.0
 10
7.663145639745986
 20
-3.71480555555556
 30
0.0
 10
7.392741479910304
 20
-3.869411111111112
 30
0.0
 10
7.113442875854869
 20
-3.985925000000002
 30
0.0
 10
6.995048434401319
 20
-4.035291666666668
 30
0.0
 10
6.867424826514252
 20
-4.068883333333335
 30
0.0
 10
6.734147052103354
 20
-4.085791666666662
 30
0.0
 10
6.669213720410375
 20
-4.094040277777784
 30
0.0
 10
6.602369277654563
 20
-4.095637500000003
 30
0.0
 10
6.537729001509736
 20
-4.09719583333333
 30
0.0
 10
6.468840114361127
 20
-4.098848611111117
 30
0.0
 10
6.397612338382714
 20
-4.100552777777781
 30
0.0
 10
6.327109562385986
 20
-4.110159722222217
 30
0.0
 10
6.232606786995549
 20
-4.123034722222226
 30
0.0
 10
6.149092900216399
 20
-4.148047222222228
 30
0.0
 10
6.078897068656361
 20
-4.184509722222225
 30
0.0
 10
6.051830402673456
 20
-4.198556944444438
 30
0.0
 10
6.025581792225441
 20
-4.213830555555559
 30
0.0
 10
6.000195681755637
 20
-4.228601388888895
 30
0.0
 10
5.947198460872237
 20
-4.259448611111111
 30
0.0
 10
5.897140128803484
 20
-4.288573611111107
 30
0.0
 10
5.839894296916301
 20
-4.307797222222222
 30
0.0
 10
5.801391520111186
 20
-4.320737500000001
 30
0.0
 10
5.761226243348069
 20
-4.323776388888884
 30
0.0
 10
5.720533188820506
 20
-4.316666666666669
 30
0.0
 10
5.696469300539522
 20
-4.312475
 30
0.0
 10
5.682767911996759
 20
-4.300677777777777
 30
0.0
 10
5.676083333333332
 20
-4.278438888888887
 30
0.0
 10
5.665822079091513
 20
-4.244286111111111
 30
0.0
 10
5.666345690189397
 20
-4.20839305555555
 30
0.0
 10
5.677605412127175
 20
-4.171798611111108
 30
0.0
 10
5.750648465837508
 20
-3.934612499999995
 30
0.0
 10
5.984944444444446
 20
-3.802036111111117
 30
0.0
 10
6.179869288327811
 20
-3.757080555555553
 30
0.0
 10
6.291094285518031
 20
-3.731401388888887
 30
0.0
 10
6.436023448523478
 20
-3.692323611111116
 30
0.0
 10
6.570462334016156
 20
-3.617408333333338
 30
0.0
 10
6.609115110817482
 20
-3.595855555555557
 30
0.0
 10
6.653224831925399
 20
-3.567879166666671
 30
0.0
 10
6.687297053286884
 20
-3.523625
 30
0.0
 10
6.699477608534734
 20
-3.507818055555554
 30
0.0
 10
6.700616497394852
 20
-3.493893055555557
 30
0.0
 10
6.699426219647143
 20
-3.485004166666663
 30
0.0
 10
6.697983164128042
 20
-3.474151388888888
 30
0.0
 10
6.692208333333332
 20
-3.464404166666668
 30
0.0
 10
6.683152777777776
 20
-3.457527777777778
 30
0.0
 10
6.66313455389728
 20
-3.44234166666667
 30
0.0
 10
6.636567887901744
 20
-3.447598611111112
 30
0.0
 10
6.618549832801364
 20
-3.470252777777773
 30
0.0
 10
6.607919277514358
 20
-3.483604166666661
 30
0.0
 10
6.596935944458487
 20
-3.492823611111109
 30
0.0
 10
6.584209555891094
 20
-3.503481944444439
 30
0.0
 10
6.584209555891094
 20
-3.503481944444439
 30
0.0
 10
6.582631778153174
 20
-3.504797222222224
 30
0.0
 10
6.582631778153174
 20
-3.504797222222224
 30
0.0
 10
6.51863177976995
 20
-3.443513888888889
 30
0.0
 10
6.443155392787755
 20
-3.400398611111111
 30
0.0
 10
6.377404005559886
 20
-3.36617638888889
 30
0.0
 10
6.27153873045649
 20
-3.311105555555552
 30
0.0
 10
6.146590122501847
 20
-3.274880555555556
 30
0.0
 10
6.006030403830461
 20
-3.258476388888893
 30
0.0
 10
5.94685262754764
 20
-3.251604166666665
 30
0.0
 10
5.887141517944959
 20
-3.250111111111108
 30
0.0
 10
5.829401241625823
 20
-3.248715277777781
 30
0.0
 10
5.763602632176925
 20
-3.247127777777779
 30
0.0
 10
5.695563745006843
 20
-3.245488888888884
 30
0.0
 10
5.629476246676353
 20
-3.235593055555556
 30
0.0
 10
5.564531803872543
 20
-3.225919444444445
 30
0.0
 10
5.510595694123973
 20
-3.222040277777776
 30
0.0
 10
5.459708333333335
 20
-3.223548611111116
 30
0.0
 10
5.370144308783185
 20
-3.226172222222228
 30
0.0
 10
5.278156811106984
 20
-3.245447222222221
 30
0.0
 10
5.178515146957478
 20
-3.28246111111111
 30
0.0
 10
5.124456814989773
 20
-3.302538888888888
 30
0.0
 10
5.072579038522538
 20
-3.3280875
 30
0.0
 10
5.02240959534548
 20
-3.35277361111111
 30
0.0
 10
4.999059595935351
 20
-3.364284722222224
 30
0.0
 10
4.975709596525221
 20
-3.375773611111109
 30
0.0
 10
4.952120708232238
 20
-3.386729166666669
 30
0.0
 10
4.873774876878088
 20
-3.423151388888893
 30
0.0
 10
4.788131823486057
 20
-3.45753194444444
 30
0.0
 10
4.692812381449585
 20
-3.462447222222219
 30
0.0
 10
4.666049882125662
 20
-3.463815277777775
 30
0.0
 10
4.645883215968448
 20
-3.462709722222219
 30
0.0
 10
4.627990160864909
 20
-3.452966666666662
 30
0.0
 10
4.617331827800828
 20
-3.447150000000003
 30
0.0
 10
4.615922105614218
 20
-3.442645833333333
 30
0.0
 10
4.61679571670326
 20
-3.434737499999995
 30
0.0
 10
4.618672105544747
 20
-3.417904166666669
 30
0.0
 10
4.621430555555561
 20
-3.405365277777782
 30
0.0
 10
4.625726272033211
 20
-3.394063888888884
 30
0.0
 10
4.643366549365358
 20
-3.347619444444439
 30
0.0
 10
4.670465159791901
 20
-3.304765277777783
 30
0.0
 10
4.706284603331469
 20
-3.266681944444447
 30
0.0
 10
4.706284603331469
 20
-3.266681944444447
 30
0.0
 10
4.7256901583968
 20
-3.245900000000006
 30
0.0
 10
4.7256901583968
 20
-3.245900000000006
 30
0.0
 10
4.779631823700785
 20
-3.187986111111109
 30
0.0
 10
4.830584600191387
 20
-3.133270833333338
 30
0.0
 10
4.899263888888893
 20
-3.099420833333334
 30
0.0
 10
4.990326262822641
 20
-3.054536111111108
 30
0.0
 10
5.084562371553147
 20
-2.999680555555554
 30
0.0
 10
5.187337368956833
 20
-2.931754166666666
 30
0.0
 10
5.240988756490373
 20
-2.896298611111105
 30
0.0
 10
5.293192921838251
 20
-2.876706944444448
 30
0.0
 10
5.346919309369897
 20
-2.871870833333332
 30
0.0
 10
5.427637362886344
 20
-2.864601388888887
 30
0.0
 10
5.512090138530665
 20
-2.865666666666673
 30
0.0
 10
5.593769303133942
 20
-2.866693055555553
 30
0.0
 10
5.742702632704903
 20
-2.868579166666664
 30
0.0
 10
5.896706795481097
 20
-2.870516666666667
 30
0.0
 10
6.042181791806089
 20
-2.823568055555559
 30
0.0
 10
6.083994290749817
 20
-2.810063888888888
 30
0.0
 10
6.114963734411908
 20
-2.796609722222229
 30
0.0
 10
6.142570678158942
 20
-2.779906944444444
 30
0.0
 10
6.154759566739913
 20
-2.772522222222228
 30
0.0
 10
6.16287762209039
 20
-2.761509722222222
 30
0.0
 10
6.165449844247632
 20
-2.74886388888889
 30
0.0
 10
6.167802621965974
 20
-2.737304166666667
 30
0.0
 10
6.165248455363831
 20
-2.725573611111106
 30
0.0
 10
6.158227622207859
 20
-2.71585416666667
 30
0.0
 10
6.143774844795189
 20
-2.695823611111109
 30
0.0
 10
6.120691512044989
 20
-2.691509722222223
 30
0.0
 10
6.097929012620019
 20
-2.704618055555557
 30
0.0
 10
6.069569444444444
 20
-2.720929166666666
 30
0.0
 10
6.037713736363407
 20
-2.733849999999999
 30
0.0
 10
6.000541666666663
 20
-2.744093055555557
 30
0.0
 10
5.869258185063396
 20
-2.780229166666661
 30
0.0
 10
5.731517910765231
 20
-2.78505555555556
 30
0.0
 10
5.602231802920161
 20
-2.784920833333331
 30
0.0
 10
5.574788748057876
 20
-2.784887500000006
 30
0.0
 10
5.546755415432724
 20
-2.783790277777775
 30
0.0
 10
5.518466527258473
 20
-2.782722222222219
 30
0.0
 10
5.430358196150943
 20
-2.779355555555551
 30
0.0
 10
5.339744309551153
 20
-2.775891666666666
 30
0.0
 10
5.254199867267744
 20
-2.802252777777779
 30
0.0
 10
5.258587367156906
 20
-2.792604166666668
 30
0.0
 10
5.262873478159741
 20
-2.782730555555557
 30
0.0
 10
5.266724866951336
 20
-2.772643055555553
 30
0.0
 10
5.290023477473874
 20
-2.711648611111109
 30
0.0
 10
5.332976254166574
 20
-2.667286111111113
 30
0.0
 10
5.398041666666662
 20
-2.637004166666669
 30
0.0
 10
5.464473473066897
 20
-2.606072222222224
 30
0.0
 10
5.526560971498435
 20
-2.583259722222225
 30
0.0
 10
5.58787346994955
 20
-2.567294444444441
 30
0.0
 10
5.666027777777773
 20
-2.546931944444446
 30
0.0
 10
5.749905410300723
 20
-2.527922222222224
 30
0.0
 10
5.851854018836396
 20
-2.507484722222216
 30
0.0
 10
5.95486234956752
 20
-2.486861111111112
 30
0.0
 10
6.060713735782378
 20
-2.45548194444445
 30
0.0
 10
6.175463732883549
 20
-2.411586111111117
 30
0.0
 10
6.18493055555555
 20
-2.407981944444448
 30
0.0
 10
6.195037343500189
 20
-2.403831944444442
 30
0.0
 10
6.204802621031275
 20
-2.398015277777783
 30
0.0
 10
6.226770676031871
 20
-2.38488472222222
 30
0.0
 10
6.234305555555554
 20
-2.36186944444445
 30
0.0
 10
6.22396512054719
 20
-2.33938333333333
 30
0.0
 10
6.219306787331536
 20
-2.329268055555556
 30
0.0
 10
6.211206787536159
 20
-2.321644444444448
 30
0.0
 10
6.201138888888888
 20
-2.317933333333333
 30
0.0
 10
6.189673454746804
 20
-2.313684722222218
 30
0.0
 10
6.176788732850077
 20
-2.314641666666666
 30
0.0
 10
6.163824844288683
 20
-2.320645833333338
 30
0.0
 10
6.114870678858702
 20
-2.343309722222228
 30
0.0
 10
6.062170680190016
 20
-2.360115277777772
 30
0.0
 10
6.012394292558585
 20
-2.375398611111109
 30
0.0
 10
5.903401239756426
 20
-2.408808333333329
 30
0.0
 10
5.790645687049315
 20
-2.432668055555559
 30
0.0
 10
5.685031800828457
 20
-2.453459722222217
 30
0.0
 10
5.593708333333337
 20
-2.47143194444445
 30
0.0
 10
5.502179027669929
 20
-2.498611111111106
 30
0.0
 10
5.412508196601872
 20
-2.53434583333333
 30
0.0
 10
5.419523474202429
 20
-2.501602777777773
 30
0.0
 10
5.427385974003806
 20
-2.470755555555557
 30
0.0
 10
5.445413751326163
 20
-2.443718055555551
 30
0.0
 10
5.445413751326163
 20
-2.443718055555551
 30
0.0
 10
5.447645695714224
 20
-2.440384722222221
 30
0.0
 10
5.447645695714224
 20
-2.440384722222221
 30
0.0
 10
5.467429028547788
 20
-2.410684722222224
 30
0.0
 10
5.486125000000002
 20
-2.382648611111108
 30
0.0
 10
5.515394305113861
 20
-2.366622222222228
 30
0.0
 10
5.565545692735819
 20
-2.339191666666668
 30
0.0
 10
5.611810969344838
 20
-2.320122222222216
 30
0.0
 10
5.656812357096896
 20
-2.30832083333333
 30
0.0
 10
5.713363744557177
 20
-2.293513888888886
 30
0.0
 10
5.772373465288688
 20
-2.28315972222222
 30
0.0
 10
5.829447074957998
 20
-2.273151388888891
 30
0.0
 10
5.829447074957998
 20
-2.273151388888891
 30
0.0
 10
5.847051241179947
 20
-2.270041666666669
 30
0.0
 10
5.847051241179947
 20
-2.270041666666669
 30
0.0
 10
5.889905406764026
 20
-2.262484722222224
 30
0.0
 10
5.932712350127076
 20
-2.252709722222221
 30
0.0
 10
5.974105404636955
 20
-2.243269444444448
 30
0.0
 10
6.006694444444443
 20
-2.235838888888894
 30
0.0
 10
6.040408180739783
 20
-2.228130555555556
 30
0.0
 10
6.073594291012543
 20
-2.221651388888884
 30
0.0
 10
6.117213734355068
 20
-2.213145833333328
 30
0.0
 10
6.160912344362259
 20
-2.205061111111111
 30
0.0
 10
6.204606787702889
 20
-2.196975000000003
 30
0.0
 10
6.204606787702889
 20
-2.196975000000003
 30
0.0
 10
6.248730397699344
 20
-2.188791666666664
 30
0.0
 10
6.248730397699344
 20
-2.188791666666664
 30
0.0
 10
6.27326234152406
 20
-2.184236111111116
 30
0.0
 10
6.287681785604238
 20
-2.167495833333331
 30
0.0
 10
6.28728456339205
 20
-2.144023611111114
 30
0.0
 10
6.287033174509512
 20
-2.129772222222224
 30
0.0
 10
6.27991373024492
 20
-2.117597222222217
 30
0.0
 10
6.268691508306195
 20
-2.110072222222218
 30
0.0
 10
6.268691508306195
 20
-2.110072222222218
 30
0.0
 10
6.273849841509218
 20
-2.109759722222217
 30
0.0
 10
6.273849841509218
 20
-2.109759722222217
 30
0.0
 10
6.35641666666667
 20
-2.104844444444439
 30
0.0
 10
6.438016504028686
 20
-2.089122222222222
 30
0.0
 10
6.516917890924358
 20
-2.073922222222222
 30
0.0
 10
6.516917890924358
 20
-2.073922222222222
 30
0.0
 10
6.549123445666332
 20
-2.067745833333333
 30
0.0
 10
6.549123445666332
 20
-2.067745833333333
 30
0.0
 10
6.61453455512502
 20
-2.055295833333338
 30
0.0
 10
6.676337331341529
 20
-2.055847222222218
 30
0.0
 10
6.738017885338902
 20
-2.06938888888889
 30
0.0
 10
6.835797049535459
 20
-2.090844444444441
 30
0.0
 10
6.934641491482883
 20
-2.118344444444447
 30
0.0
 10
7.040231766593226
 20
-2.153463888888887
 30
0.0
 10
7.243148428133786
 20
-2.221002777777774
 30
0.0
 10
7.42859286789351
 20
-2.269519444444439
 30
0.0
 10
7.60716925227118
 20
-2.301772222222224
 30
0.0
 10
7.733047026869017
 20
-2.324515277777778
 30
0.0
 10
7.861241468074998
 20
-2.330990277777775
 30
0.0
 10
7.988173409312871
 20
-2.321027777777772
 30
0.0
 10
8.031672019325116
 20
-2.317606944444441
 30
0.0
 10
8.070931740555555
 20
-2.319724999999999
 30
0.0
 10
8.108197017391932
 20
-2.327530555555553
 30
0.0
 10
8.168263888888886
 20
-2.340083333333332
 30
0.0
 10
8.229070625449518
 20
-2.354891666666667
 30
0.0
 10
8.28787201285296
 20
-2.369198611111111
 30
0.0
 10
8.363108122063446
 20
-2.387545833333332
 30
0.0
 10
8.44090395343149
 20
-2.406479166666663
 30
0.0
 10
8.518723395910051
 20
-2.421127777777782
 30
0.0
 10
8.595851171739417
 20
-2.435645833333334
 30
0.0
 10
8.674145614205978
 20
-2.441406944444439
 30
0.0
 10
8.749859501182174
 20
-2.446947222222219
 30
0.0
 10
8.772015056178033
 20
-2.448568055555559
 30
0.0
 10
8.794165055618477
 20
-2.450215277777779
 30
0.0
 10
8.816320610614335
 20
-2.452049999999998
 30
0.0
 10
8.840240054454524
 20
-2.454034722222218
 30
0.0
 10
8.859183109531537
 20
-2.440020833333329
 30
0.0
 10
8.86344977609042
 20
-2.417159722222221
 30
0.0
 10
8.867969220420694
 20
-2.392894444444449
 30
0.0
 10
8.854347222222234
 20
-2.372616666666671
 30
0.0
 10
8.829517832503168
 20
-2.366649999999999
 30
0.0
 10
8.820498388286573
 20
-2.364506944444441
 30
0.0
 10
8.810717832978096
 20
-2.363172222222222
 30
0.0
 10
8.800569444444438
 20
-2.362776388888884
 30
0.0
 10
8.68789422496977
 20
-2.35836388888889
 30
0.0
 10
8.578340061070675
 20
-2.34511111111111
 30
0.0
 10
8.474884508128627
 20
-2.323418055555559
 30
0.0
 10
8.427222222222225
 20
-2.313441666666664
 30
0.0
 10
8.378715066113626
 20
-2.30069305555556
 30
0.0
 10
8.331784511743637
 20
-2.288336111111107
 30
0.0
 10
8.26685951338378
 20
-2.271283333333334
 30
0.0
 10
8.199717848413254
 20
-2.253619444444439
 30
0.0
 10
8.132500000000011
 20
-2.242611111111109
 30
0.0
 10
8.044452574557807
 20
-2.228181944444448
 30
0.0
 10
7.955197021257036
 20
-2.227837500000002
 30
0.0
 10
7.868891467881743
 20
-2.227515277777772
 30
0.0
 10
7.77845535905524
 20
-2.227155555555555
 30
0.0
 10
7.684947028084125
 20
-2.226781944444446
 30
0.0
 10
7.594015085936816
 20
-2.210004166666661
 30
0.0
 10
7.488065088613338
 20
-2.190426388888884
 30
0.0
 10
7.375847222222218
 20
-2.163262499999999
 30
0.0
 10
7.24087065041355
 20
-2.124529166666662
 30
0.0
 10
7.185113707377645
 20
-2.108522222222228
 30
0.0
 10
7.128791666666656
 20
-2.090437499999994
 30
0.0
 10
7.074327599065226
 20
-2.072951388888883
 30
0.0
 10
6.99132343449542
 20
-2.046319444444445
 30
0.0
 10
6.905512325552081
 20
-2.018752777777776
 30
0.0
 10
6.818767883298985
 20
-1.997563888888888
 30
0.0
 10
6.772431773358423
 20
-1.986252777777774
 30
0.0
 10
6.728974830011794
 20
-1.978806944444449
 30
0.0
 10
6.687549831058277
 20
-1.975212499999998
 30
0.0
 10
6.621778999386454
 20
-1.969498611111109
 30
0.0
 10
6.561116500918918
 20
-1.973480555555549
 30
0.0
 10
6.502156780186144
 20
-1.987041666666667
 30
0.0
 10
6.44727344823928
 20
-1.999641666666662
 30
0.0
 10
6.391941505192638
 20
-2.007731944444445
 30
0.0
 10
6.33535817328872
 20
-2.015597222222216
 30
0.0
 10
6.281145674658243
 20
-2.023113888888891
 30
0.0
 10
6.224876231635284
 20
-2.025652777777774
 30
0.0
 10
6.16529567758486
 20
-2.028318055555549
 30
0.0
 10
6.058333333333331
 20
-2.033145833333328
 30
0.0
 10
5.947738738636366
 20
-2.038140277777782
 30
0.0
 10
5.847559574500438
 20
-2.074001388888885
 30
0.0
 10
5.804748464470827
 20
-2.089336111111114
 30
0.0
 10
5.749854021413133
 20
-2.112387500000005
 30
0.0
 10
5.70492763365918
 20
-2.155055555555552
 30
0.0
 10
5.687006800778565
 20
-2.172066666666663
 30
0.0
 10
5.676680555555549
 20
-2.189898611111112
 30
0.0
 10
5.670327634533249
 20
-2.214970833333331
 30
0.0
 10
5.669954023431576
 20
-2.21503194444444
 30
0.0
 10
5.669580412329903
 20
-2.215093055555561
 30
0.0
 10
5.669179023451155
 20
-2.215172222222223
 30
0.0
 10
5.603773469547883
 20
-2.228084722222219
 30
0.0
 10
5.548665137606703
 20
-2.25205972222222
 30
0.0
 10
5.49885541664278
 20
-2.276036111111112
 30
0.0
 10
5.452238751153749
 20
-2.298490277777773
 30
0.0
 10
5.414202641003511
 20
-2.332091666666669
 30
0.0
 10
5.382598475135233
 20
-2.378777777777777
 30
0.0
 10
5.347652777777776
 20
-2.430408333333339
 30
0.0
 10
5.326706809880508
 20
-2.492088888888891
 30
0.0
 10
5.316692921244591
 20
-2.572848611111112
 30
0.0
 10
5.315423476832216
 20
-2.583048611111116
 30
0.0
 10
5.314288754638659
 20
-2.583758333333334
 30
0.0
 10
5.310097222222225
 20
-2.586368055555555
 30
0.0
 10
5.257784589399408
 20
-2.619125000000003
 30
0.0
 10
5.218530423724385
 20
-2.664933333333339
 30
0.0
 10
5.193130424366043
 20
-2.723276388888886
 30
0.0
 10
5.182024869091038
 20
-2.748747222222227
 30
0.0
 10
5.170919313816031
 20
-2.774262500000001
 30
0.0
 10
5.159104036336733
 20
-2.799391666666666
 30
0.0
 10
5.140637370136574
 20
-2.838590277777775
 30
0.0
 10
5.119573481779804
 20
-2.866147222222228
 30
0.0
 10
5.092810982455881
 20
-2.886102777777776
 30
0.0
 10
5.044622094784345
 20
-2.922052777777783
 30
0.0
 10
4.992062373889894
 20
-2.953955555555555
 30
0.0
 10
4.936613764179532
 20
-2.980899999999994
 30
0.0
 10
4.844244322068536
 20
-3.025770833333329
 30
0.0
 10
4.762116546365481
 20
-3.083591666666671
 30
0.0
 10
4.692565159233608
 20
-3.152698611111115
 30
0.0
 10
4.692565159233608
 20
-3.152698611111115
 30
0.0
 10
4.690744325946272
 20
-3.154524999999997
 30
0.0
 10
4.690744325946272
 20
-3.154524999999997
 30
0.0
 10
4.620109605508433
 20
-3.224851388888889
 30
0.0
 10
4.538005440915892
 20
-3.319162499999998
 30
0.0
 10
4.529901274453954
 20
-3.424952777777776
 30
0.0
 10
4.526125000000004
 20
-3.47440277777778
 30
0.0
 10
4.545810996274263
 20
-3.509465277777773
 30
0.0
 10
4.59008877293349
 20
-3.532158333333339
 30
0.0
  0
SPLINE
  5
4E
330
1F
100
AcDbEntity
  8
Layer 1
370
     0
100
AcDbSpline
210
0.0
220
0.0
230
1.0
 70
    11
 71
     3
 72
    20
 73
    16
 74
     0
 42
0.0000000001
 43
0.0000000001
 12
1.0
 22
0.0
 32
0.0
 13
1.0
 23
0.0
 33
0.0
 40
0.0
 40
0.0
 40
0.0
 40
0.0
 40
1.0
 40
1.0
 40
1.0
 40
2.0
 40
2.0
 40
2.0
 40
3.0
 40
3.0
 40
3.0
 40
4.0
 40
4.0
 40
4.0
 40
5.0
 40
5.0
 40
5.0
 40
5.0
 10
5.807184575520396
 20
-2.187947222222217
 30
0.0
 10
5.853245685467906
 20
-2.154070833333334
 30
0.0
 10
5.910104017364877
 20
-2.137931944444441
 30
0.0
 10
5.979538737833031
 20
-2.128833333333331
 30
0.0
 10
6.03954845853928
 20
-2.120944444444439
 30
0.0
 10
6.101509568085121
 20
-2.116361111111107
 30
0.0
 10
6.161309566574446
 20
-2.116547222222228
 30
0.0
 10
6.138981789360716
 20
-2.120809722222222
 30
0.0
 10
6.116662345480108
 20
-2.124847222222216
 30
0.0
 10
6.09472623492315
 20
-2.128825000000006
 30
0.0
 10
6.042877625121845
 20
-2.138184722222225
 30
0.0
 10
5.989272070920479
 20
-2.147874999999999
 30
0.0
 10
5.936810961134648
 20
-2.160479166666669
 30
0.0
 10
5.894115128879902
 20
-2.170702777777781
 30
0.0
 10
5.850501241092792
 20
-2.1796
 30
0.0
 10
5.807184575520396
 20
-2.187947222222217
 30
0.0
  0
HATCH
  5
4F
330
1F
100
AcDbEntity
  8
Layer 1
 62
     7
420
 16314339
100
AcDbHatch
 10
0.0
 20
0.0
 30
0.0
210
0.0
220
0.0
230
1.0
  2
SOLID
 70
     1
 71
     0
 91
        2
 92
        1
 93
        1
 72
     4
 94
        3
 73
     0
 74
     1
 95
      458
 96
      454
 40
0.0
 40
0.0
 40
0.0
 40
0.0
 40
1.0
 40
1.0
 40
1.0
 40
2.0
 40
2.0
 40
2.0
 40
3.0
 40
3.0
 40
3.0
 40
4.0
 40
4.0
 40
4.0
 40
5.0
 40
5.0
 40
5.0
 40
6.0
 40
6.0
 40
6.0
 40
7.0
 40
7.0
 40
7.0
 40
8.0
 40
8.0
 40
8.0
 40
9.0
 40
9.0
 40
9.0
 40
10.0
 40
10.0
 40
10.0
 40
11.0
 40
11.0
 40
11.0
 40
12.0
 40
12.0
 40
12.0
 40
13.0
 40
13.0
 40
13.0
 40
14.0
 40
14.0
 40
14.0
 40
15.0
 40
15.0
 40
15.0
 40
16.0
 40
16.0
 40
16.0
 40
17.0
 40
17.0
 40
17.0
 40
18.0
 40
18.0
 40
18.0
 40
19.0
 40
19.0
 40
19.0
 40
20.0
 40
20.0
 40
20.0
 40
21.0
 40
21.0
 40
21.0
 40
22.0
 40
22.0
 40
22.0
 40
23.0
 40
23.0
 40
23.0
 40
24.0
 40
24.0
 40
24.0
 40
25.0
 40
25.0
 40
25.0
 40
26.0
 40
26.0
 40
26.0
 40
27.0
 40
27.0
 40
27.0
 40
28.0
 40
28.0
 40
28.0
 40
29.0
 40
29.0
 40
29.0
 40
30.0
 40
30.0
 40
30.0
 40
31.0
 40
31.0
 40
31.0
 40
32.0
 40
32.0
 40
32.0
 40
33.0
 40
33.0
 40
33.0
 40
34.0
 40
34.0
 40
34.0
 40
35.0
 40
35.0
 40
35.0
 40
36.0
 40
36.0
 40
36.0
 40
37.0
 40
37.0
 40
37.0
 40
38.0
 40
38.0
 40
38.0
 40
39.0
 40
39.0
 40
39.0
 40
40.0
 40
40.0
 40
40.0
 40
41.0
 40
41.0
 40
41.0
 40
42.0
 40
42.0
 40
42.0
 40
43.0
 40
43.0
 40
43.0
 40
44.0
 40
44.0
 40
44.0
 40
45.0
 40
45.0
 40
45.0
 40
46.0
 40
46.0
 40
46.0
 40
47.0
 40
47.0
 40
47.0
 40
48.0
 40
48.0
 40
48.0
 40
49.0
 40
49.0
 40
49.0
 40
50.0
 40
50.0
 40
50.0
 40
51.0
 40
51.0
 40
51.0
 40
52.0
 40
52.0
 40
52.0
 40
53.0
 40
53.0
 40
53.0
 40
54.0
 40
54.0
 40
54.0
 40
55.0
 40
55.0
 40
55.0
 40
56.0
 40
56.0
 40
56.0
 40
57.0
 40
57.0
 40
57.0
 40
58.0
 40
58.0
 40
58.0
 40
59.0
 40
59.0
 40
59.0
 40
60.0
 40
60.0
 40
60.0
 40
61.0
 40
61.0
 40
61.0
 40
62.0
 40
62.0
 40
62.0
 40
63.0
 40
63.0
 40
63.0
 40
64.0
 40
64.0
 40
64.0
 40
65.0
 40
65.0
 40
65.0
 40
66.0
 40
66.0
 40
66.0
 40
67.0
 40
67.0
 40
67.0
 40
68.0
 40
68.0
 40
68.0
 40
69.0
 40
69.0
 40
69.0
 40
70.0
 40
70.0
 40
70.0
 40
71.0
 40
71.0
 40
71.0
 40
72.0
 40
72.0
 40
72.0
 40
73.0
 40
73.0
 40
73.0
 40
74.0
 40
74.0
 40
74.0
 40
75.0
 40
75.0
 40
75.0
 40
76.0
 40
76.0
 40
76.0
 40
77.0
 40
77.0
 40
77.0
 40
78.0
 40
78.0
 40
78.0
 40
79.0
 40
79.0
 40
79.0
 40
80.0
 40
80.0
 40
80.0
 40
81.0
 40
81.0
 40
81.0
 40
82.0
 40
82.0
 40
82.0
 40
83.0
 40
83.0
 40
83.0
 40
84.0
 40
84.0
 40
84.0
 40
85.0
 40
85.0
 40
85.0
 40
86.0
 40
86.0
 40
86.0
 40
87.0
 40
87.0
 40
87.0
 40
88.0
 40
88.0
 40
88.0
 40
89.0
 40
89.0
 40
89.0
 40
90.0
 40
90.0
 40
90.0
 40
91.0
 40
91.0
 40
91.0
 40
92.0
 40
92.0
 40
92.0
 40
93.0
 40
93.0
 40
93.0
 40
94.0
 40
94.0
 40
94.0
 40
95.0
 40
95.0
 40
95.0
 40
96.0
 40
96.0
 40
96.0
 40
97.0
 40
97.0
 40
97.0
 40
98.0
 40
98.0
 40
98.0
 40
99.0
 40
99.0
 40
99.0
 40
100.0
 40
100.0
 40
100.0
 40
101.0
 40
101.0
 40
101.0
 40
102.0
 40
102.0
 40
102.0
 40
103.0
 40
103.0
 40
103.0
 40
104.0
 40
104.0
 40
104.0
 40
105.0
 40
105.0
 40
105.0
 40
106.0
 40
106.0
 40
106.0
 40
107.0
 40
107.0
 40
107.0
 40
108.0
 40
108.0
 40
108.0
 40
109.0
 40
109.0
 40
109.0
 40
110.0
 40
110.0
 40
110.0
 40
111.0
 40
111.0
 40
111.0
 40
112.0
 40
112.0
 40
112.0
 40
113.0
 40
113.0
 40
113.0
 40
114.0
 40
114.0
 40
114.0
 40
115.0
 40
115.0
 40
115.0
 40
116.0
 40
116.0
 40
116.0
 40
117.0
 40
117.0
 40
117.0
 40
118.0
 40
118.0
 40
118.0
 40
119.0
 40
119.0
 40
119.0
 40
120.0
 40
120.0
 40
120.0
 40
121.0
 40
121.0
 40
121.0
 40
122.0
 40
122.0
 40
122.0
 40
123.0
 40
123.0
 40
123.0
 40
124.0
 40
124.0
 40
124.0
 40
125.0
 40
125.0
 40
125.0
 40
126.0
 40
126.0
 40
126.0
 40
127.0
 40
127.0
 40
127.0
 40
128.0
 40
128.0
 40
128.0
 40
129.0
 40
129.0
 40
129.0
 40
130.0
 40
130.0
 40
130.0
 40
131.0
 40
131.0
 40
131.0
 40
132.0
 40
132.0
 40
132.0
 40
133.0
 40
133.0
 40
133.0
 40
134.0
 40
134.0
 40
134.0
 40
135.0
 40
135.0
 40
135.0
 40
136.0
 40
136.0
 40
136.0
 40
137.0
 40
137.0
 40
137.0
 40
138.0
 40
138.0
 40
138.0
 40
139.0
 40
139.0
 40
139.0
 40
140.0
 40
140.0
 40
140.0
 40
141.0
 40
141.0
 40
141.0
 40
142.0
 40
142.0
 40
142.0
 40
143.0
 40
143.0
 40
143.0
 40
144.0
 40
144.0
 40
144.0
 40
145.0
 40
145.0
 40
145.0
 40
146.0
 40
146.0
 40
146.0
 40
147.0
 40
147.0
 40
147.0
 40
148.0
 40
148.0
 40
148.0
 40
149.0
 40
149.0
 40
149.0
 40
150.0
 40
150.0
 40
150.0
 40
151.0
 40
151.0
 40
151.0
 40
151.0
 10
4.59008877293349
 20
-3.532158333333339
 10
4.671142937552556
 20
-3.573727777777776
 10
4.775527777777774
 20
-3.542081944444451
 10
4.851759599656462
 20
-3.518993055555559
 10
4.851759599656462
 20
-3.518993055555559
 10
4.855148488459741
 20
-3.517970833333329
 10
4.855148488459741
 20
-3.517970833333329
 10
4.927501264409734
 20
-3.496095833333331
 10
4.994625000000004
 20
-3.463427777777774
 10
5.059545705518454
 20
-3.431815277777774
 10
5.104710982155262
 20
-3.409833333333331
 10
5.151434592086034
 20
-3.387088888888886
 10
5.19898459088482
 20
-3.36852361111111
 10
5.329801254246781
 20
-3.317420833333333
 10
5.453555555555554
 20
-3.300886111111115
 10
5.577052636889574
 20
-3.317444444444441
 10
5.654329023826297
 20
-3.327873611111108
 10
5.734444444444446
 20
-3.333237499999996
 10
5.811904019845618
 20
-3.338488888888883
 10
5.883406795817083
 20
-3.343269444444445
 10
5.957365127282072
 20
-3.348216666666669
 10
6.028769292144918
 20
-3.357188888888888
 10
6.183095677135194
 20
-3.376544444444448
 10
6.315401229348431
 20
-3.422884722222218
 10
6.433241504149312
 20
-3.498906944444444
 10
6.459448447931713
 20
-3.515829166666663
 10
6.483465113991668
 20
-3.534730555555559
 10
6.505308168995422
 20
-3.553070833333335
 10
6.416155393469833
 20
-3.600411111111106
 10
6.338438728766454
 20
-3.630358333333334
 10
6.262109564028024
 20
-3.646887499999997
 10
6.163176233193957
 20
-3.668277777777778
 10
6.057684569192234
 20
-3.695101388888891
 10
5.956552627302598
 20
-3.745965277777777
 10
5.826198463928955
 20
-3.811520833333336
 10
5.722373466551795
 20
-3.903115277777778
 10
5.656294301554428
 20
-4.010862500000004
 10
5.639363746426574
 20
-4.038474999999999
 10
5.556441526299143
 20
-4.181895833333328
 10
5.586220692213525
 20
-4.294506944444442
 10
5.596966525275396
 20
-4.335156944444444
 10
5.621035969111795
 20
-4.366055555555552
 10
5.657765134850605
 20
-4.386315277777777
 10
5.682054023125905
 20
-4.399727777777772
 10
5.709119300219956
 20
-4.406622222222217
 10
5.74297902158681
 20
-4.407831944444448
 10
5.798281797967522
 20
-4.409913888888885
 10
5.854898463203932
 20
-4.398523611111108
 10
5.916047072770298
 20
-4.372997222222226
 10
5.96963318252771
 20
-4.350618055555552
 10
6.019713736818125
 20
-4.32149861111111
 10
6.068155402261052
 20
-4.29334444444444
 10
6.097233179304263
 20
-4.276426388888884
 10
6.127297067433674
 20
-4.25894861111111
 10
6.157410955561823
 20
-4.243384722222219
 10
6.179062343903752
 20
-4.23219027777778
 10
6.205035954358714
 20
-4.219937500000002
 10
6.233595675859457
 20
-4.213881944444438
 10
6.337070673245458
 20
-4.191959722222224
 10
6.444594281640295
 20
-4.187829166666662
 10
6.548587334568765
 20
-4.183851388888885
 10
6.638678998959525
 20
-4.180420833333338
 10
6.731827607717504
 20
-4.176863888888887
 10
6.8231928831872
 20
-4.161849999999996
 10
6.944426213457922
 20
-4.141977777777773
 10
7.070080376950298
 20
-4.102606944444448
 10
7.207358151260147
 20
-4.041504166666666
 10
7.293555555555561
 20
-4.003159722222222
 10
7.378619258044838
 20
-3.959595833333335
 10
7.460887311522129
 20
-3.91747083333333
 10
7.460887311522129
 20
-3.91747083333333
 10
7.508148421439323
 20
-3.893322222222221
 10
7.508148421439323
 20
-3.893322222222221
 10
7.525490087667903
 20
-3.884470833333328
 10
7.542878976117511
 20
-3.875741666666663
 10
7.560283142344511
 20
-3.866988888888891
 10
7.602851196824708
 20
-3.845612500000003
 10
7.64686786237942
 20
-3.823486111111113
 10
7.689591472411242
 20
-3.800163888888884
 10
7.741572026653658
 20
-3.771762499999997
 10
7.79410258088218
 20
-3.740134722222226
 10
7.844910912931987
 20
-3.709534722222227
 10
8.011851186492498
 20
-3.609005555555553
 10
8.184466459909647
 20
-3.505044444444441
 10
8.379690066088996
 20
-3.487977777777776
 10
8.504628951821662
 20
-3.477054166666663
 10
8.620017837795583
 20
-3.477413888888893
 10
8.732283112737301
 20
-3.488780555555561
 10
8.732283112737301
 20
-3.488780555555561
 10
8.768737278483059
 20
-3.491969444444445
 10
8.768737278483059
 20
-3.491969444444445
 10
8.798315055513639
 20
-3.494583333333328
 10
8.827910888099318
 20
-3.49717916666667
 10
8.85754005401749
 20
-3.499587499999999
 10
8.88963888888889
 20
-3.502193055555558
 10
8.906827552772382
 20
-3.483020833333335
 10
8.90961366381311
 20
-3.462915277777774
 10
8.912387274854154
 20
-3.443158333333334
 10
8.901299775134248
 20
-3.420098611111105
 10
8.870266442584882
 20
-3.413044444444444
 10
8.865065053827392
 20
-3.41187777777778
 10
8.859645609519854
 20
-3.411199999999995
 10
8.85443588742924
 20
-3.410906944444441
 10
8.828284499200992
 20
-3.409123611111113
 10
8.802203944304285
 20
-3.406531944444446
 10
8.776131722740704
 20
-3.403922222222225
 10
8.734056723803608
 20
-3.399740277777773
 10
8.690573391568755
 20
-3.395408333333332
 10
8.647047003779436
 20
-3.394623611111115
 10
8.584431727583453
 20
-3.393545833333329
 10
8.519885895880684
 20
-3.39382083333333
 10
8.455192841959413
 20
-3.395445833333333
 10
8.291611111111099
 20
-3.399530555555556
 10
8.150303960772664
 20
-3.436665277777782
 10
8.023176186206404
 20
-3.509027777777773
 10
8.023176186206404
 20
-3.509027777777773
 10
7.924653966473064
 20
-3.565287500000004
 10
7.924653966473064
 20
-3.565287500000004
 10
7.663145639745986
 20
-3.71480555555556
 10
7.392741479910304
 20
-3.869411111111112
 10
7.113442875854869
 20
-3.985925000000002
 10
6.995048434401319
 20
-4.035291666666668
 10
6.867424826514252
 20
-4.068883333333335
 10
6.734147052103354
 20
-4.085791666666662
 10
6.669213720410375
 20
-4.094040277777784
 10
6.602369277654563
 20
-4.095637500000003
 10
6.537729001509736
 20
-4.09719583333333
 10
6.468840114361127
 20
-4.098848611111117
 10
6.397612338382714
 20
-4.100552777777781
 10
6.327109562385986
 20
-4.110159722222217
 10
6.232606786995549
 20
-4.123034722222226
 10
6.149092900216399
 20
-4.148047222222228
 10
6.078897068656361
 20
-4.184509722222225
 10
6.051830402673456
 20
-4.198556944444438
 10
6.025581792225441
 20
-4.213830555555559
 10
6.000195681755637
 20
-4.228601388888895
 10
5.947198460872237
 20
-4.259448611111111
 10
5.897140128803484
 20
-4.288573611111107
 10
5.839894296916301
 20
-4.307797222222222
 10
5.801391520111186
 20
-4.320737500000001
 10
5.761226243348069
 20
-4.323776388888884
 10
5.720533188820506
 20
-4.316666666666669
 10
5.696469300539522
 20
-4.312475
 10
5.682767911996759
 20
-4.300677777777777
 10
5.676083333333332
 20
-4.278438888888887
 10
5.665822079091513
 20
-4.244286111111111
 10
5.666345690189397
 20
-4.20839305555555
 10
5.677605412127175
 20
-4.171798611111108
 10
5.750648465837508
 20
-3.934612499999995
 10
5.984944444444446
 20
-3.802036111111117
 10
6.179869288327811
 20
-3.757080555555553
 10
6.291094285518031
 20
-3.731401388888887
 10
6.436023448523478
 20
-3.692323611111116
 10
6.570462334016156
 20
-3.617408333333338
 10
6.609115110817482
 20
-3.595855555555557
 10
6.653224831925399
 20
-3.567879166666671
 10
6.687297053286884
 20
-3.523625
 10
6.699477608534734
 20
-3.507818055555554
 10
6.700616497394852
 20
-3.493893055555557
 10
6.699426219647143
 20
-3.485004166666663
 10
6.697983164128042
 20
-3.474151388888888
 10
6.692208333333332
 20
-3.464404166666668
 10
6.683152777777776
 20
-3.457527777777778
 10
6.66313455389728
 20
-3.44234166666667
 10
6.636567887901744
 20
-3.447598611111112
 10
6.618549832801364
 20
-3.470252777777773
 10
6.607919277514358
 20
-3.483604166666661
 10
6.596935944458487
 20
-3.492823611111109
 10
6.584209555891094
 20
-3.503481944444439
 10
6.584209555891094
 20
-3.503481944444439
 10
6.582631778153174
 20
-3.504797222222224
 10
6.582631778153174
 20
-3.504797222222224
 10
6.51863177976995
 20
-3.443513888888889
 10
6.443155392787755
 20
-3.400398611111111
 10
6.377404005559886
 20
-3.36617638888889
 10
6.27153873045649
 20
-3.311105555555552
 10
6.146590122501847
 20
-3.274880555555556
 10
6.006030403830461
 20
-3.258476388888893
 10
5.94685262754764
 20
-3.251604166666665
 10
5.887141517944959
 20
-3.250111111111108
 10
5.829401241625823
 20
-3.248715277777781
 10
5.763602632176925
 20
-3.247127777777779
 10
5.695563745006843
 20
-3.245488888888884
 10
5.629476246676353
 20
-3.235593055555556
 10
5.564531803872543
 20
-3.225919444444445
 10
5.510595694123973
 20
-3.222040277777776
 10
5.459708333333335
 20
-3.223548611111116
 10
5.370144308783185
 20
-3.226172222222228
 10
5.278156811106984
 20
-3.245447222222221
 10
5.178515146957478
 20
-3.28246111111111
 10
5.124456814989773
 20
-3.302538888888888
 10
5.072579038522538
 20
-3.3280875
 10
5.02240959534548
 20
-3.35277361111111
 10
4.999059595935351
 20
-3.364284722222224
 10
4.975709596525221
 20
-3.375773611111109
 10
4.952120708232238
 20
-3.386729166666669
 10
4.873774876878088
 20
-3.423151388888893
 10
4.788131823486057
 20
-3.45753194444444
 10
4.692812381449585
 20
-3.462447222222219
 10
4.666049882125662
 20
-3.463815277777775
 10
4.645883215968448
 20
-3.462709722222219
 10
4.627990160864909
 20
-3.452966666666662
 10
4.617331827800828
 20
-3.447150000000003
 10
4.615922105614218
 20
-3.442645833333333
 10
4.61679571670326
 20
-3.434737499999995
 10
4.618672105544747
 20
-3.417904166666669
 10
4.621430555555561
 20
-3.405365277777782
 10
4.625726272033211
 20
-3.394063888888884
 10
4.643366549365358
 20
-3.347619444444439
 10
4.670465159791901
 20
-3.304765277777783
 10
4.706284603331469
 20
-3.266681944444447
 10
4.706284603331469
 20
-3.266681944444447
 10
4.7256901583968
 20
-3.245900000000006
 10
4.7256901583968
 20
-3.245900000000006
 10
4.779631823700785
 20
-3.187986111111109
 10
4.830584600191387
 20
-3.133270833333338
 10
4.899263888888893
 20
-3.099420833333334
 10
4.990326262822641
 20
-3.054536111111108
 10
5.084562371553147
 20
-2.999680555555554
 10
5.187337368956833
 20
-2.931754166666666
 10
5.240988756490373
 20
-2.896298611111105
 10
5.293192921838251
 20
-2.876706944444448
 10
5.346919309369897
 20
-2.871870833333332
 10
5.427637362886344
 20
-2.864601388888887
 10
5.512090138530665
 20
-2.865666666666673
 10
5.593769303133942
 20
-2.866693055555553
 10
5.742702632704903
 20
-2.868579166666664
 10
5.896706795481097
 20
-2.870516666666667
 10
6.042181791806089
 20
-2.823568055555559
 10
6.083994290749817
 20
-2.810063888888888
 10
6.114963734411908
 20
-2.796609722222229
 10
6.142570678158942
 20
-2.779906944444444
 10
6.154759566739913
 20
-2.772522222222228
 10
6.16287762209039
 20
-2.761509722222222
 10
6.165449844247632
 20
-2.74886388888889
 10
6.167802621965974
 20
-2.737304166666667
 10
6.165248455363831
 20
-2.725573611111106
 10
6.158227622207859
 20
-2.71585416666667
 10
6.143774844795189
 20
-2.695823611111109
 10
6.120691512044989
 20
-2.691509722222223
 10
6.097929012620019
 20
-2.704618055555557
 10
6.069569444444444
 20
-2.720929166666666
 10
6.037713736363407
 20
-2.733849999999999
 10
6.000541666666663
 20
-2.744093055555557
 10
5.869258185063396
 20
-2.780229166666661
 10
5.731517910765231
 20
-2.78505555555556
 10
5.602231802920161
 20
-2.784920833333331
 10
5.574788748057876
 20
-2.784887500000006
 10
5.546755415432724
 20
-2.783790277777775
 10
5.518466527258473
 20
-2.782722222222219
 10
5.430358196150943
 20
-2.779355555555551
 10
5.339744309551153
 20
-2.775891666666666
 10
5.254199867267744
 20
-2.802252777777779
 10
5.258587367156906
 20
-2.792604166666668
 10
5.262873478159741
 20
-2.782730555555557
 10
5.266724866951336
 20
-2.772643055555553
 10
5.290023477473874
 20
-2.711648611111109
 10
5.332976254166574
 20
-2.667286111111113
 10
5.398041666666662
 20
-2.637004166666669
 10
5.464473473066897
 20
-2.606072222222224
 10
5.526560971498435
 20
-2.583259722222225
 10
5.58787346994955
 20
-2.567294444444441
 10
5.666027777777773
 20
-2.546931944444446
 10
5.749905410300723
 20
-2.527922222222224
 10
5.851854018836396
 20
-2.507484722222216
 10
5.95486234956752
 20
-2.486861111111112
 10
6.060713735782378
 20
-2.45548194444445
 10
6.175463732883549
 20
-2.411586111111117
 10
6.18493055555555
 20
-2.407981944444448
 10
6.195037343500189
 20
-2.403831944444442
 10
6.204802621031275
 20
-2.398015277777783
 10
6.226770676031871
 20
-2.38488472222222
 10
6.234305555555554
 20
-2.36186944444445
 10
6.22396512054719
 20
-2.33938333333333
 10
6.219306787331536
 20
-2.329268055555556
 10
6.211206787536159
 20
-2.321644444444448
 10
6.201138888888888
 20
-2.317933333333333
 10
6.189673454746804
 20
-2.313684722222218
 10
6.176788732850077
 20
-2.314641666666666
 10
6.163824844288683
 20
-2.320645833333338
 10
6.114870678858702
 20
-2.343309722222228
 10
6.062170680190016
 20
-2.360115277777772
 10
6.012394292558585
 20
-2.375398611111109
 10
5.903401239756426
 20
-2.408808333333329
 10
5.790645687049315
 20
-2.432668055555559
 10
5.685031800828457
 20
-2.453459722222217
 10
5.593708333333337
 20
-2.47143194444445
 10
5.502179027669929
 20
-2.498611111111106
 10
5.412508196601872
 20
-2.53434583333333
 10
5.419523474202429
 20
-2.501602777777773
 10
5.427385974003806
 20
-2.470755555555557
 10
5.445413751326163
 20
-2.443718055555551
 10
5.445413751326163
 20
-2.443718055555551
 10
5.447645695714224
 20
-2.440384722222221
 10
5.447645695714224
 20
-2.440384722222221
 10
5.467429028547788
 20
-2.410684722222224
 10
5.486125000000002
 20
-2.382648611111108
 10
5.515394305113861
 20
-2.366622222222228
 10
5.565545692735819
 20
-2.339191666666668
 10
5.611810969344838
 20
-2.320122222222216
 10
5.656812357096896
 20
-2.30832083333333
 10
5.713363744557177
 20
-2.293513888888886
 10
5.772373465288688
 20
-2.28315972222222
 10
5.829447074957998
 20
-2.273151388888891
 10
5.829447074957998
 20
-2.273151388888891
 10
5.847051241179947
 20
-2.270041666666669
 10
5.847051241179947
 20
-2.270041666666669
 10
5.889905406764026
 20
-2.262484722222224
 10
5.932712350127076
 20
-2.252709722222221
 10
5.974105404636955
 20
-2.243269444444448
 10
6.006694444444443
 20
-2.235838888888894
 10
6.040408180739783
 20
-2.228130555555556
 10
6.073594291012543
 20
-2.221651388888884
 10
6.117213734355068
 20
-2.213145833333328
 10
6.160912344362259
 20
-2.205061111111111
 10
6.204606787702889
 20
-2.196975000000003
 10
6.204606787702889
 20
-2.196975000000003
 10
6.248730397699344
 20
-2.188791666666664
 10
6.248730397699344
 20
-2.188791666666664
 10
6.27326234152406
 20
-2.184236111111116
 10
6.287681785604238
 20
-2.167495833333331
 10
6.28728456339205
 20
-2.144023611111114
 10
6.287033174509512
 20
-2.129772222222224
 10
6.27991373024492
 20
-2.117597222222217
 10
6.268691508306195
 20
-2.110072222222218
 10
6.268691508306195
 20
-2.110072222222218
 10
6.273849841509218
 20
-2.109759722222217
 10
6.273849841509218
 20
-2.109759722222217
 10
6.35641666666667
 20
-2.104844444444439
 10
6.438016504028686
 20
-2.089122222222222
 10
6.516917890924358
 20
-2.073922222222222
 10
6.516917890924358
 20
-2.073922222222222
 10
6.549123445666332
 20
-2.067745833333333
 10
6.549123445666332
 20
-2.067745833333333
 10
6.61453455512502
 20
-2.055295833333338
 10
6.676337331341529
 20
-2.055847222222218
 10
6.738017885338902
 20
-2.06938888888889
 10
6.835797049535459
 20
-2.090844444444441
 10
6.934641491482883
 20
-2.118344444444447
 10
7.040231766593226
 20
-2.153463888888887
 10
7.243148428133786
 20
-2.221002777777774
 10
7.42859286789351
 20
-2.269519444444439
 10
7.60716925227118
 20
-2.301772222222224
 10
7.733047026869017
 20
-2.324515277777778
 10
7.861241468074998
 20
-2.330990277777775
 10
7.988173409312871
 20
-2.321027777777772
 10
8.031672019325116
 20
-2.317606944444441
 10
8.070931740555555
 20
-2.319724999999999
 10
8.108197017391932
 20
-2.327530555555553
 10
8.168263888888886
 20
-2.340083333333332
 10
8.229070625449518
 20
-2.354891666666667
 10
8.28787201285296
 20
-2.369198611111111
 10
8.363108122063446
 20
-2.387545833333332
 10
8.44090395343149
 20
-2.406479166666663
 10
8.518723395910051
 20
-2.421127777777782
 10
8.595851171739417
 20
-2.435645833333334
 10
8.674145614205978
 20
-2.441406944444439
 10
8.749859501182174
 20
-2.446947222222219
 10
8.772015056178033
 20
-2.448568055555559
 10
8.794165055618477
 20
-2.450215277777779
 10
8.816320610614335
 20
-2.452049999999998
 10
8.840240054454524
 20
-2.454034722222218
 10
8.859183109531537
 20
-2.440020833333329
 10
8.86344977609042
 20
-2.417159722222221
 10
8.867969220420694
 20
-2.392894444444449
 10
8.854347222222234
 20
-2.372616666666671
 10
8.829517832503168
 20
-2.366649999999999
 10
8.820498388286573
 20
-2.364506944444441
 10
8.810717832978096
 20
-2.363172222222222
 10
8.800569444444438
 20
-2.362776388888884
 10
8.68789422496977
 20
-2.35836388888889
 10
8.578340061070675
 20
-2.34511111111111
 10
8.474884508128627
 20
-2.323418055555559
 10
8.427222222222225
 20
-2.313441666666664
 10
8.378715066113626
 20
-2.30069305555556
 10
8.331784511743637
 20
-2.288336111111107
 10
8.26685951338378
 20
-2.271283333333334
 10
8.199717848413254
 20
-2.253619444444439
 10
8.132500000000011
 20
-2.242611111111109
 10
8.044452574557807
 20
-2.228181944444448
 10
7.955197021257036
 20
-2.227837500000002
 10
7.868891467881743
 20
-2.227515277777772
 10
7.77845535905524
 20
-2.227155555555555
 10
7.684947028084125
 20
-2.226781944444446
 10
7.594015085936816
 20
-2.210004166666661
 10
7.488065088613338
 20
-2.190426388888884
 10
7.375847222222218
 20
-2.163262499999999
 10
7.24087065041355
 20
-2.124529166666662
 10
7.185113707377645
 20
-2.108522222222228
 10
7.128791666666656
 20
-2.090437499999994
 10
7.074327599065226
 20
-2.072951388888883
 10
6.99132343449542
 20
-2.046319444444445
 10
6.905512325552081
 20
-2.018752777777776
 10
6.818767883298985
 20
-1.997563888888888
 10
6.772431773358423
 20
-1.986252777777774
 10
6.728974830011794
 20
-1.978806944444449
 10
6.687549831058277
 20
-1.975212499999998
 10
6.621778999386454
 20
-1.969498611111109
 10
6.561116500918918
 20
-1.973480555555549
 10
6.502156780186144
 20
-1.987041666666667
 10
6.44727344823928
 20
-1.999641666666662
 10
6.391941505192638
 20
-2.007731944444445
 10
6.33535817328872
 20
-2.015597222222216
 10
6.281145674658243
 20
-2.023113888888891
 10
6.224876231635284
 20
-2.025652777777774
 10
6.16529567758486
 20
-2.028318055555549
 10
6.058333333333331
 20
-2.033145833333328
 10
5.947738738636366
 20
-2.038140277777782
 10
5.847559574500438
 20
-2.074001388888885
 10
5.804748464470827
 20
-2.089336111111114
 10
5.749854021413133
 20
-2.112387500000005
 10
5.70492763365918
 20
-2.155055555555552
 10
5.687006800778565
 20
-2.172066666666663
 10
5.676680555555549
 20
-2.189898611111112
 10
5.670327634533249
 20
-2.214970833333331
 10
5.669954023431576
 20
-2.21503194444444
 10
5.669580412329903
 20
-2.215093055555561
 10
5.669179023451155
 20
-2.215172222222223
 10
5.603773469547883
 20
-2.228084722222219
 10
5.548665137606703
 20
-2.25205972222222
 10
5.49885541664278
 20
-2.276036111111112
 10
5.452238751153749
 20
-2.298490277777773
 10
5.414202641003511
 20
-2.332091666666669
 10
5.382598475135233
 20
-2.378777777777777
 10
5.347652777777776
 20
-2.430408333333339
 10
5.326706809880508
 20
-2.492088888888891
 10
5.316692921244591
 20
-2.572848611111112
 10
5.315423476832216
 20
-2.583048611111116
 10
5.314288754638659
 20
-2.583758333333334
 10
5.310097222222225
 20
-2.586368055555555
 10
5.257784589399408
 20
-2.619125000000003
 10
5.218530423724385
 20
-2.664933333333339
 10
5.193130424366043
 20
-2.723276388888886
 10
5.182024869091038
 20
-2.748747222222227
 10
5.170919313816031
 20
-2.774262500000001
 10
5.159104036336733
 20
-2.799391666666666
 10
5.140637370136574
 20
-2.838590277777775
 10
5.119573481779804
 20
-2.866147222222228
 10
5.092810982455881
 20
-2.886102777777776
 10
5.044622094784345
 20
-2.922052777777783
 10
4.992062373889894
 20
-2.953955555555555
 10
4.936613764179532
 20
-2.980899999999994
 10
4.844244322068536
 20
-3.025770833333329
 10
4.762116546365481
 20
-3.083591666666671
 10
4.692565159233608
 20
-3.152698611111115
 10
4.692565159233608
 20
-3.152698611111115
 10
4.690744325946272
 20
-3.154524999999997
 10
4.690744325946272
 20
-3.154524999999997
 10
4.620109605508433
 20
-3.224851388888889
 10
4.538005440915892
 20
-3.319162499999998
 10
4.529901274453954
 20
-3.424952777777776
 10
4.526125000000004
 20
-3.47440277777778
 10
4.545810996274263
 20
-3.509465277777773
 10
4.59008877293349
 20
-3.532158333333339
 97
        0
 97
        0
 92
        1
 93
        1
 72
     4
 94
        3
 73
     0
 74
     1
 95
       20
 96
       16
 40
0.0
 40
0.0
 40
0.0
 40
0.0
 40
1.0
 40
1.0
 40
1.0
 40
2.0
 40
2.0
 40
2.0
 40
3.0
 40
3.0
 40
3.0
 40
4.0
 40
4.0
 40
4.0
 40
5.0
 40
5.0
 40
5.0
 40
5.0
 10
5.807184575520396
 20
-2.187947222222217
 10
5.853245685467906
 20
-2.154070833333334
 10
5.910104017364877
 20
-2.137931944444441
 10
5.979538737833031
 20
-2.128833333333331
 10
6.03954845853928
 20
-2.120944444444439
 10
6.101509568085121
 20
-2.116361111111107
 10
6.161309566574446
 20
-2.116547222222228
 10
6.138981789360716
 20
-2.120809722222222
 10
6.116662345480108
 20
-2.124847222222216
 10
6.09472623492315
 20
-2.128825000000006
 10
6.042877625121845
 20
-2.138184722222225
 10
5.989272070920479
 20
-2.147874999999999
 10
5.936810961134648
 20
-2.160479166666669
 10
5.894115128879902
 20
-2.170702777777781
 10
5.850501241092792
 20
-2.1796
 10
5.807184575520396
 20
-2.187947222222217
 97
        0
 97
        0
 75
     2
 76
     1
 98
        0
  0
ENDSEC
  0
SECTION
  2
OBJECTS
  0
DICTIONARY
  5
C
330
0
100
AcDbDictionary
281
     1
  3
ACAD_GROUP
350
D
  3
ACAD_LAYOUT
350
1A
  3
ACAD_MATERIAL
350
3B
  3
ACAD_MLEADERSTYLE
350
51
  3
ACAD_MLINESTYLE
350
17
  3
ACAD_PLOTSETTINGS
350
19
  3
ACAD_PLOTSTYLENAME
350
E
  3
ACAD_TABLESTYLE
350
50
  3
ACAD_VISUALSTYLE
350
2A
  0
SUN
  5
3F
330
29
100
AcDbSun
 90
        1
290
     0
 63
     7
421
 16777215
 40
1.0
291
     1
 91
  2455826
 92
 54000000
292
     0
 70
     2
 71
   256
280
     1
  0
DICTIONARY
  5
D
102
{ACAD_REACTORS
330
C
102
}
330
C
100
AcDbDictionary
281
     1
  0
DICTIONARY
  5
1A
102
{ACAD_REACTORS
330
C
102
}
330
C
100
AcDbDictionary
281
     1
  3
Layout1
350
1E
  3
Layout2
350
26
  3
Model
350
22
  0
DICTIONARY
  5
3B
102
{ACAD_REACTORS
330
C
102
}
330
C
100
AcDbDictionary
281
     1
  3
ByBlock
350
3D
  3
ByLayer
350
3C
  3
Global
350
3E
  0
DICTIONARY
  5
51
102
{ACAD_REACTORS
330
C
102
}
330
C
100
AcDbDictionary
281
     1
  0
DICTIONARY
  5
17
102
{ACAD_REACTORS
330
C
102
}
330
C
100
AcDbDictionary
281
     1
  3
Standard
350
18
  0
DICTIONARY
  5
19
102
{ACAD_REACTORS
330
C
102
}
330
C
100
AcDbDictionary
281
     1
  0
ACDBDICTIONARYWDFLT
  5
E
102
{ACAD_REACTORS
330
C
102
}
330
C
100
AcDbDictionary
281
     1
  3
Normal
350
F
100
AcDbDictionaryWithDefault
340
F
  0
DICTIONARY
  5
50
102
{ACAD_REACTORS
330
C
102
}
330
C
100
AcDbDictionary
281
     1
  0
DICTIONARY
  5
2A
102
{ACAD_REACTORS
330
C
102
}
330
C
100
AcDbDictionary
281
     1
  3
2dWireframe
350
2F
  3
3D Hidden
350
31
  3
3dWireframe
350
30
  3
Basic
350
32
  3
Brighten
350
36
  3
ColorChange
350
3A
  3
Conceptual
350
34
  3
Dim
350
35
  3
Facepattern
350
39
  3
Flat
350
2B
  3
FlatWithEdges
350
2C
  3
Gouraud
350
2D
  3
GouraudWithEdges
350
2E
  3
Linepattern
350
38
  3
Realistic
350
33
  3
Thicken
350
37
  0
LAYOUT
  5
1E
102
{ACAD_REACTORS
330
1A
102
}
330
1A
100
AcDbPlotSettings
  1

  2
none_device
  4

  6

 40
0.0
 41
0.0
 42
0.0
 43
0.0
 44
0.0
 45
0.0
 46
0.0
 47
0.0
 48
0.0
 49
0.0
140
0.0
141
0.0
142
1.0
143
1.0
 70
   688
 72
     0
 73
     0
 74
     5
  7

 75
    16
 76
     0
 77
     2
 78
   300
147
1.0
148
0.0
149
0.0
100
AcDbLayout
  1
Layout1
 70
     1
 71
     1
 10
0.0
 20
0.0
 11
12.0
 21
9.0
 12
0.0
 22
0.0
 32
0.0
 14
1.000000000000000E+20
 24
1.000000000000000E+20
 34
1.000000000000000E+20
 15
-1.000000000000000E+20
 25
-1.000000000000000E+20
 35
-1.000000000000000E+20
146
0.0
 13
0.0
 23
0.0
 33
0.0
 16
1.0
 26
0.0
 36
0.0
 17
0.0
 27
1.0
 37
0.0
 76
     0
330
1B
  0
LAYOUT
  5
26
102
{ACAD_REACTORS
330
1A
102
}
330
1A
100
AcDbPlotSettings
  1

  2
none_device
  4

  6

 40
0.0
 41
0.0
 42
0.0
 43
0.0
 44
0.0
 45
0.0
 46
0.0
 47
0.0
 48
0.0
 49
0.0
140
0.0
141
0.0
142
1.0
143
1.0
 70
   688
 72
     0
 73
     0
 74
     5
  7

 75
    16
 76
     0
 77
     2
 78
   300
147
1.0
148
0.0
149
0.0
100
AcDbLayout
  1
Layout2
 70
     1
 71
     2
 10
0.0
 20
0.0
 11
0.0
 21
0.0
 12
0.0
 22
0.0
 32
0.0
 14
0.0
 24
0.0
 34
0.0
 15
0.0
 25
0.0
 35
0.0
146
0.0
 13
0.0
 23
0.0
 33
0.0
 16
1.0
 26
0.0
 36
0.0
 17
0.0
 27
1.0
 37
0.0
 76
     0
330
23
  0
LAYOUT
  5
22
102
{ACAD_REACTORS
330
1A
102
}
330
1A
100
AcDbPlotSettings
  1

  2
none_device
  4

  6

 40
0.0
 41
0.0
 42
0.0
 43
0.0
 44
0.0
 45
0.0
 46
0.0
 47
0.0
 48
0.0
 49
0.0
140
0.0
141
0.0
142
1.0
143
1.0
 70
  1712
 72
     0
 73
     0
 74
     0
  7

 75
     0
 76
     0
 77
     2
 78
   300
147
1.0
148
0.0
149
0.0
100
AcDbLayout
  1
Model
 70
     1
 71
     0
 10
0.0
 20
0.0
 11
12.0
 21
9.0
 12
0.0
 22
0.0
 32
0.0
 14
1.000000000000000E+20
 24
1.000000000000000E+20
 34
1.000000000000000E+20
 15
-1.000000000000000E+20
 25
-1.000000000000000E+20
 35
-1.000000000000000E+20
146
0.0
 13
0.0
 23
0.0
 33
0.0
 16
1.0
 26
0.0
 36
0.0
 17
0.0
 27
1.0
 37
0.0
 76
     0
330
1F
331
29
  0
MATERIAL
  5
3D
102
{ACAD_REACTORS
330
3B
102
}
330
3B
100
AcDbMaterial
  1
ByBlock
 72
     1
 94
      127
  0
MATERIAL
  5
3C
102
{ACAD_REACTORS
330
3B
102
}
330
3B
100
AcDbMaterial
  1
ByLayer
 72
     1
 94
      127
  0
MATERIAL
  5
3E
102
{ACAD_REACTORS
330
3B
102
}
330
3B
100
AcDbMaterial
  1
Global
 72
     1
 94
      127
  0
MLINESTYLE
  5
18
102
{ACAD_REACTORS
330
17
102
}
330
17
100
AcDbMlineStyle
  2
Standard
 70
     0
  3

 62
   256
 51
90.0
 52
90.0
 71
     2
 49
0.5
 62
   256
  6
BYLAYER
 49
-0.5
 62
   256
  6
BYLAYER
  0
ACDBPLACEHOLDER
  5
F
102
{ACAD_REACTORS
330
E
102
}
330
E
  0
VISUALSTYLE
  5
2F
102
{ACAD_REACTORS
330
2A
102
}
330
2A
100
AcDbVisualStyle
  2
2dWireframe
 70
     4
177
     2
291
     0
 71
     0
176
     1
 72
     2
176
     1
 73
     0
176
     1
 90
        0
176
     1
 40
-0.6
176
     1
 41
-30.0
176
     1
 62
     5
 63
     7
421
 16777215
176
     1
 74
     1
176
     1
 91
        4
176
     1
 64
     7
176
     1
 65
   257
176
     1
 75
     1
176
     1
175
     1
176
     1
 42
1.0
176
     1
 92
        0
176
     1
 66
   257
176
     1
 43
1.0
176
     1
 76
     1
176
     1
 77
     6
176
     1
 78
     2
176
     1
 67
     7
176
     1
 79
     5
176
     1
170
     0
176
     1
171
     0
176
     1
290
     0
176
     1
 93
        1
176
     1
 44
0.0
176
     1
173
     0
176
     1
  0
VISUALSTYLE
  5
31
102
{ACAD_REACTORS
330
2A
102
}
330
2A
100
AcDbVisualStyle
  2
3D Hidden
 70
     6
177
     2
291
     0
 71
     1
176
     1
 72
     2
176
     1
 73
     2
176
     1
 90
        0
176
     1
 40
-0.6
176
     1
 41
-30.0
176
     1
 62
     5
 63
     7
421
 16777215
176
     1
 74
     2
176
     1
 91
        2
176
     1
 64
     7
176
     1
 65
   257
176
     1
 75
     2
176
     1
175
     1
176
     1
 42
40.0
176
     1
 92
        0
176
     1
 66
   257
176
     1
 43
1.0
176
     1
 76
     1
176
     1
 77
     6
176
     1
 78
     2
176
     1
 67
     7
176
     1
 79
     3
176
     1
170
     0
176
     1
171
     0
176
     1
290
     0
176
     1
 93
        1
176
     1
 44
0.0
176
     1
173
     0
176
     1
  0
VISUALSTYLE
  5
30
102
{ACAD_REACTORS
330
2A
102
}
330
2A
100
AcDbVisualStyle
  2
3dWireframe
 70
     5
177
     2
291
     0
 71
     0
176
     1
 72
     2
176
     1
 73
     0
176
     1
 90
        0
176
     1
 40
-0.6
176
     1
 41
-30.0
176
     1
 62
     5
 63
     7
421
 16777215
176
     1
 74
     1
176
     1
 91
        4
176
     1
 64
     7
176
     1
 65
   257
176
     1
 75
     1
176
     1
175
     1
176
     1
 42
1.0
176
     1
 92
        0
176
     1
 66
   257
176
     1
 43
1.0
176
     1
 76
     1
176
     1
 77
     6
176
     1
 78
     2
176
     1
 67
     7
176
     1
 79
     5
176
     1
170
     0
176
     1
171
     0
176
     1
290
     0
176
     1
 93
        1
176
     1
 44
0.0
176
     1
173
     0
176
     1
  0
VISUALSTYLE
  5
32
102
{ACAD_REACTORS
330
2A
102
}
330
2A
100
AcDbVisualStyle
  2
Basic
 70
     7
177
     2
291
     1
 71
     1
176
     1
 72
     0
176
     1
 73
     1
176
     1
 90
        0
176
     1
 40
-0.6
176
     1
 41
-30.0
176
     1
 62
     5
 63
     7
421
 16777215
176
     1
 74
     0
176
     1
 91
        4
176
     1
 64
     7
176
     1
 65
   257
176
     1
 75
     1
176
     1
175
     1
176
     1
 42
1.0
176
     1
 92
        8
176
     1
 66
     7
176
     1
 43
1.0
176
     1
 76
     1
176
     1
 77
     6
176
     1
 78
     2
176
     1
 67
     7
176
     1
 79
     5
176
     1
170
     0
176
     1
171
     0
176
     1
290
     0
176
     1
 93
        1
176
     1
 44
0.0
176
     1
173
     0
176
     1
  0
VISUALSTYLE
  5
36
102
{ACAD_REACTORS
330
2A
102
}
330
2A
100
AcDbVisualStyle
  2
Brighten
 70
    12
177
     2
291
     1
 71
     2
176
     1
 72
     2
176
     1
 73
     0
176
     1
 90
        0
176
     1
 40
-0.6
176
     1
 41
-30.0
176
     1
 62
     5
 63
     7
421
 16777215
176
     1
 74
     1
176
     1
 91
        4
176
     1
 64
     7
176
     1
 65
   257
176
     1
 75
     1
176
     1
175
     1
176
     1
 42
1.0
176
     1
 92
        8
176
     1
 66
     7
176
     1
 43
1.0
176
     1
 76
     1
176
     1
 77
     6
176
     1
 78
     2
176
     1
 67
     7
176
     1
 79
     5
176
     1
170
     0
176
     1
171
     0
176
     1
290
     0
176
     1
 93
        1
176
     1
 44
50.0
176
     1
173
     0
176
     1
  0
VISUALSTYLE
  5
3A
102
{ACAD_REACTORS
330
2A
102
}
330
2A
100
AcDbVisualStyle
  2
ColorChange
 70
    16
177
     2
291
     1
 71
     2
176
     1
 72
     2
176
     1
 73
     3
176
     1
 90
        0
176
     1
 40
-0.6
176
     1
 41
-30.0
176
     1
 62
     5
 63
     8
421
  8421504
176
     1
 74
     1
176
     1
 91
        4
176
     1
 64
     7
176
     1
 65
   257
176
     1
 75
     1
176
     1
175
     1
176
     1
 42
1.0
176
     1
 92
        8
176
     1
 66
     8
424
  8421504
176
     1
 43
1.0
176
     1
 76
     1
176
     1
 77
     6
176
     1
 78
     2
176
     1
 67
     7
176
     1
 79
     5
176
     1
170
     0
176
     1
171
     0
176
     1
290
     0
176
     1
 93
        1
176
     1
 44
0.0
176
     1
173
     0
176
     1
  0
VISUALSTYLE
  5
34
102
{ACAD_REACTORS
330
2A
102
}
330
2A
100
AcDbVisualStyle
  2
Conceptual
 70
     9
177
     2
291
     0
 71
     3
176
     1
 72
     2
176
     1
 73
     0
176
     1
 90
        0
176
     1
 40
-0.6
176
     1
 41
-30.0
176
     1
 62
     5
 63
     7
421
 16777215
176
     1
 74
     2
176
     1
 91
        2
176
     1
 64
     7
176
     1
 65
   257
176
     1
 75
     1
176
     1
175
     1
176
     1
 42
40.0
176
     1
 92
        8
176
     1
 66
     7
176
     1
 43
1.0
176
     1
 76
     1
176
     1
 77
     6
176
     1
 78
     2
176
     1
 67
     7
176
     1
 79
     3
176
     1
170
     0
176
     1
171
     0
176
     1
290
     0
176
     1
 93
        1
176
     1
 44
0.0
176
     1
173
     0
176
     1
  0
VISUALSTYLE
  5
35
102
{ACAD_REACTORS
330
2A
102
}
330
2A
100
AcDbVisualStyle
  2
Dim
 70
    11
177
     2
291
     1
 71
     2
176
     1
 72
     2
176
     1
 73
     0
176
     1
 90
        0
176
     1
 40
-0.6
176
     1
 41
-30.0
176
     1
 62
     5
 63
     7
421
 16777215
176
     1
 74
     1
176
     1
 91
        4
176
     1
 64
     7
176
     1
 65
   257
176
     1
 75
     1
176
     1
175
     1
176
     1
 42
1.0
176
     1
 92
        8
176
     1
 66
     7
176
     1
 43
1.0
176
     1
 76
     1
176
     1
 77
     6
176
     1
 78
     2
176
     1
 67
     7
176
     1
 79
     5
176
     1
170
     0
176
     1
171
     0
176
     1
290
     0
176
     1
 93
        1
176
     1
 44
-50.0
176
     1
173
     0
176
     1
  0
VISUALSTYLE
  5
39
102
{ACAD_REACTORS
330
2A
102
}
330
2A
100
AcDbVisualStyle
  2
Facepattern
 70
    15
177
     2
291
     1
 71
     2
176
     1
 72
     2
176
     1
 73
     0
176
     1
 90
        0
176
     1
 40
-0.6
176
     1
 41
-30.0
176
     1
 62
     5
 63
     7
421
 16777215
176
     1
 74
     1
176
     1
 91
        4
176
     1
 64
     7
176
     1
 65
   257
176
     1
 75
     1
176
     1
175
     1
176
     1
 42
1.0
176
     1
 92
        8
176
     1
 66
     7
176
     1
 43
1.0
176
     1
 76
     1
176
     1
 77
     6
176
     1
 78
     2
176
     1
 67
     7
176
     1
 79
     5
176
     1
170
     0
176
     1
171
     0
176
     1
290
     0
176
     1
 93
        1
176
     1
 44
0.0
176
     1
173
     0
176
     1
  0
VISUALSTYLE
  5
2B
102
{ACAD_REACTORS
330
2A
102
}
330
2A
100
AcDbVisualStyle
  2
Flat
 70
     0
177
     2
291
     1
 71
     2
176
     1
 72
     1
176
     1
 73
     1
176
     1
 90
        2
176
     1
 40
-0.6
176
     1
 41
30.0
176
     1
 62
     5
 63
     7
421
 16777215
176
     1
 74
     0
176
     1
 91
        4
176
     1
 64
     7
176
     1
 65
   257
176
     1
 75
     1
176
     1
175
     1
176
     1
 42
1.0
176
     1
 92
        8
176
     1
 66
     7
176
     1
 43
1.0
176
     1
 76
     1
176
     1
 77
     6
176
     1
 78
     2
176
     1
 67
     7
176
     1
 79
     5
176
     1
170
     0
176
     1
171
     0
176
     1
290
     0
176
     1
 93
       13
176
     1
 44
0.0
176
     1
173
     0
176
     1
  0
VISUALSTYLE
  5
2C
102
{ACAD_REACTORS
330
2A
102
}
330
2A
100
AcDbVisualStyle
  2
FlatWithEdges
 70
     1
177
     2
291
     1
 71
     2
176
     1
 72
     1
176
     1
 73
     1
176
     1
 90
        2
176
     1
 40
-0.6
176
     1
 41
30.0
176
     1
 62
     5
 63
     7
421
 16777215
176
     1
 74
     1
176
     1
 91
        4
176
     1
 64
     7
176
     1
 65
   257
176
     1
 75
     1
176
     1
175
     1
176
     1
 42
1.0
176
     1
 92
        0
176
     1
 66
   257
176
     1
 43
1.0
176
     1
 76
     1
176
     1
 77
     6
176
     1
 78
     2
176
     1
 67
     7
176
     1
 79
     5
176
     1
170
     0
176
     1
171
     0
176
     1
290
     0
176
     1
 93
       13
176
     1
 44
0.0
176
     1
173
     0
176
     1
  0
VISUALSTYLE
  5
2D
102
{ACAD_REACTORS
330
2A
102
}
330
2A
100
AcDbVisualStyle
  2
Gouraud
 70
     2
177
     2
291
     1
 71
     2
176
     1
 72
     2
176
     1
 73
     1
176
     1
 90
        2
176
     1
 40
-0.6
176
     1
 41
30.0
176
     1
 62
     5
 63
     7
421
 16777215
176
     1
 74
     0
176
     1
 91
        4
176
     1
 64
     7
176
     1
 65
   257
176
     1
 75
     1
176
     1
175
     1
176
     1
 42
1.0
176
     1
 92
        0
176
     1
 66
     7
176
     1
 43
1.0
176
     1
 76
     1
176
     1
 77
     6
176
     1
 78
     2
176
     1
 67
     7
176
     1
 79
     5
176
     1
170
     0
176
     1
171
     0
176
     1
290
     0
176
     1
 93
       13
176
     1
 44
0.0
176
     1
173
     0
176
     1
  0
VISUALSTYLE
  5
2E
102
{ACAD_REACTORS
330
2A
102
}
330
2A
100
AcDbVisualStyle
  2
GouraudWithEdges
 70
     3
177
     2
291
     1
 71
     2
176
     1
 72
     2
176
     1
 73
     1
176
     1
 90
        2
176
     1
 40
-0.6
176
     1
 41
30.0
176
     1
 62
     5
 63
     7
421
 16777215
176
     1
 74
     1
176
     1
 91
        4
176
     1
 64
     7
176
     1
 65
   257
176
     1
 75
     1
176
     1
175
     1
176
     1
 42
1.0
176
     1
 92
        0
176
     1
 66
   257
176
     1
 43
1.0
176
     1
 76
     1
176
     1
 77
     6
176
     1
 78
     2
176
     1
 67
     7
176
     1
 79
     5
176
     1
170
     0
176
     1
171
     0
176
     1
290
     0
176
     1
 93
       13
176
     1
 44
0.0
176
     1
173
     0
176
     1
  0
VISUALSTYLE
  5
38
102
{ACAD_REACTORS
330
2A
102
}
330
2A
100
AcDbVisualStyle
  2
Linepattern
 70
    14
177
     2
291
     1
 71
     2
176
     1
 72
     2
176
     1
 73
     0
176
     1
 90
        0
176
     1
 40
-0.6
176
     1
 41
-30.0
176
     1
 62
     5
 63
     7
421
 16777215
176
     1
 74
     1
176
     1
 91
        4
176
     1
 64
     7
176
     1
 65
   257
176
     1
 75
     7
176
     1
175
     7
176
     1
 42
1.0
176
     1
 92
        8
176
     1
 66
     7
176
     1
 43
1.0
176
     1
 76
     1
176
     1
 77
     6
176
     1
 78
     2
176
     1
 67
     7
176
     1
 79
     5
176
     1
170
     0
176
     1
171
     0
176
     1
290
     0
176
     1
 93
        1
176
     1
 44
0.0
176
     1
173
     0
176
     1
  0
VISUALSTYLE
  5
33
102
{ACAD_REACTORS
330
2A
102
}
330
2A
100
AcDbVisualStyle
  2
Realistic
 70
     8
177
     2
291
     0
 71
     2
176
     1
 72
     2
176
     1
 73
     0
176
     1
 90
        0
176
     1
 40
-0.6
176
     1
 41
-30.0
176
     1
 62
     5
 63
     7
421
 16777215
176
     1
 74
     1
176
     1
 91
        0
176
     1
 64
     7
176
     1
 65
   257
176
     1
 75
     1
176
     1
175
     1
176
     1
 42
1.0
176
     1
 92
        8
176
     1
 66
     8
424
  7895160
176
     1
 43
1.0
176
     1
 76
     1
176
     1
 77
     6
176
     1
 78
     2
176
     1
 67
     7
176
     1
 79
     5
176
     1
170
     0
176
     1
171
     0
176
     1
290
     0
176
     1
 93
       13
176
     1
 44
0.0
176
     1
173
     0
176
     1
  0
VISUALSTYLE
  5
37
102
{ACAD_REACTORS
330
2A
102
}
330
2A
100
AcDbVisualStyle
  2
Thicken
 70
    13
177
     2
291
     1
 71
     2
176
     1
 72
     2
176
     1
 73
     0
176
     1
 90
        0
176
     1
 40
-0.6
176
     1
 41
-30.0
176
     1
 62
     5
 63
     7
421
 16777215
176
     1
 74
     1
176
     1
 91
        4
176
     1
 64
     7
176
     1
 65
   257
176
     1
 75
     1
176
     1
175
     1
176
     1
 42
1.0
176
     1
 92
       12
176
     1
 66
     7
176
     1
 43
1.0
176
     1
 76
     1
176
     1
 77
     6
176
     1
 78
     2
176
     1
 67
     7
176
     1
 79
     5
176
     1
170
     0
176
     1
171
     0
176
     1
290
     0
176
     1
 93
        1
176
     1
 44
0.0
176
     1
173
     0
176
     1
  0
ENDSEC
  0
EOF
