  0
SECTION
  2
HEADER
  9
$ACADVER
  1
AC1024
  9
$ACADMAINTVER
 70
     6
  9
$DWGCODEPAGE
  3
ANSI_1251
  9
$INSBASE
 10
0.0
 20
0.0
 30
0.0
  9
$EXTMIN
 10
1.000000000000000E+20
 20
1.000000000000000E+20
 30
1.000000000000000E+20
  9
$EXTMAX
 10
-1.000000000000000E+20
 20
-1.000000000000000E+20
 30
-1.000000000000000E+20
  9
$LIMMIN
 10
0.0
 20
0.0
  9
$LIMMAX
 10
12.0
 20
9.0
  9
$ORTHOMODE
 70
     0
  9
$REGENMODE
 70
     1
  9
$FILLMODE
 70
     1
  9
$QTEXTMODE
 70
     0
  9
$MIRRTEXT
 70
     1
  9
$LTSCALE
 40
1.0
  9
$ATTMODE
 70
     1
  9
$TEXTSIZE
 40
0.2
  9
$TRACEWID
 40
0.05
  9
$TEXTSTYLE
  7
Standard
  9
$CLAYER
  8
0
  9
$CELTYPE
  6
ByLayer
  9
$CECOLOR
 62
   256
  9
$CELTSCALE
 40
1.0
  9
$DISPSILH
 70
     0
  9
$DIMSCALE
 40
1.0
  9
$DIMASZ
 40
0.18
  9
$DIMEXO
 40
0.0625
  9
$DIMDLI
 40
0.38
  9
$DIMRND
 40
0.0
  9
$DIMDLE
 40
0.0
  9
$DIMEXE
 40
0.18
  9
$DIMTP
 40
0.0
  9
$DIMTM
 40
0.0
  9
$DIMTXT
 40
0.18
  9
$DIMCEN
 40
0.09
  9
$DIMTSZ
 40
0.0
  9
$DIMTOL
 70
     0
  9
$DIMLIM
 70
     0
  9
$DIMTIH
 70
     1
  9
$DIMTOH
 70
     1
  9
$DIMSE1
 70
     0
  9
$DIMSE2
 70
     0
  9
$DIMTAD
 70
     0
  9
$DIMZIN
 70
     0
  9
$DIMBLK
  1

  9
$DIMASO
 70
     1
  9
$DIMSHO
 70
     1
  9
$DIMPOST
  1

  9
$DIMAPOST
  1

  9
$DIMALT
 70
     0
  9
$DIMALTD
 70
     2
  9
$DIMALTF
 40
25.4
  9
$DIMLFAC
 40
1.0
  9
$DIMTOFL
 70
     0
  9
$DIMTVP
 40
0.0
  9
$DIMTIX
 70
     0
  9
$DIMSOXD
 70
     0
  9
$DIMSAH
 70
     0
  9
$DIMBLK1
  1

  9
$DIMBLK2
  1

  9
$DIMSTYLE
  2
Standard
  9
$DIMCLRD
 70
     0
  9
$DIMCLRE
 70
     0
  9
$DIMCLRT
 70
     0
  9
$DIMTFAC
 40
1.0
  9
$DIMGAP
 40
0.09
  9
$DIMJUST
 70
     0
  9
$DIMSD1
 70
     0
  9
$DIMSD2
 70
     0
  9
$DIMTOLJ
 70
     1
  9
$DIMTZIN
 70
     0
  9
$DIMALTZ
 70
     0
  9
$DIMALTTZ
 70
     0
  9
$DIMUPT
 70
     0
  9
$DIMDEC
 70
     4
  9
$DIMTDEC
 70
     4
  9
$DIMALTU
 70
     2
  9
$DIMALTTD
 70
     2
  9
$DIMTXSTY
  7
Standard
  9
$DIMAUNIT
 70
     0
  9
$DIMADEC
 70
     0
  9
$DIMALTRND
 40
0.0
  9
$DIMAZIN
 70
     0
  9
$DIMDSEP
 70
    46
  9
$DIMATFIT
 70
     3
  9
$DIMFRAC
 70
     0
  9
$DIMLDRBLK
  1

  9
$DIMLUNIT
 70
     2
  9
$DIMLWD
 70
    -2
  9
$DIMLWE
 70
    -2
  9
$DIMTMOVE
 70
     0
  9
$DIMFXL
 40
1.0
  9
$DIMFXLON
 70
     0
  9
$DIMJOGANG
 40
0.7853981633974483
  9
$DIMTFILL
 70
     0
  9
$DIMTFILLCLR
 70
     0
  9
$DIMARCSYM
 70
     0
  9
$DIMLTYPE
  6

  9
$DIMLTEX1
  6

  9
$DIMLTEX2
  6

  9
$DIMTXTDIRECTION
 70
     0
  9
$LUNITS
 70
     2
  9
$LUPREC
 70
     4
  9
$SKETCHINC
 40
0.1
  9
$FILLETRAD
 40
0.5
  9
$AUNITS
 70
     0
  9
$AUPREC
 70
     0
  9
$MENU
  1
.
  9
$ELEVATION
 40
0.0
  9
$PELEVATION
 40
0.0
  9
$THICKNESS
 40
0.0
  9
$LIMCHECK
 70
     0
  9
$CHAMFERA
 40
0.5
  9
$CHAMFERB
 40
0.5
  9
$CHAMFERC
 40
1.0
  9
$CHAMFERD
 40
0.0
  9
$SKPOLY
 70
     0
  9
$TDCREATE
 40
2459349.631054062
  9
$TDUCREATE
 40
2459349.506054062
  9
$TDUPDATE
 40
2459349.631056968
  9
$TDUUPDATE
 40
2459349.506056968
  9
$TDINDWG
 40
0.0000000116
  9
$TDUSRTIMER
 40
0.0000000116
  9
$USRTIMER
 70
     1
  9
$ANGBASE
 50
0.0
  9
$ANGDIR
 70
     0
  9
$PDMODE
 70
     0
  9
$PDSIZE
 40
0.0
  9
$PLINEWID
 40
0.0
  9
$SPLFRAME
 70
     0
  9
$SPLINETYPE
 70
     6
  9
$SPLINESEGS
 70
     8
  9
$HANDSEED
  5
75
  9
$SURFTAB1
 70
     6
  9
$SURFTAB2
 70
     6
  9
$SURFTYPE
 70
     6
  9
$SURFU
 70
     6
  9
$SURFV
 70
     6
  9
$UCSBASE
  2

  9
$UCSNAME
  2

  9
$UCSORG
 10
0.0
 20
0.0
 30
0.0
  9
$UCSXDIR
 10
1.0
 20
0.0
 30
0.0
  9
$UCSYDIR
 10
0.0
 20
1.0
 30
0.0
  9
$UCSORTHOREF
  2

  9
$UCSORTHOVIEW
 70
     0
  9
$UCSORGTOP
 10
0.0
 20
0.0
 30
0.0
  9
$UCSORGBOTTOM
 10
0.0
 20
0.0
 30
0.0
  9
$UCSORGLEFT
 10
0.0
 20
0.0
 30
0.0
  9
$UCSORGRIGHT
 10
0.0
 20
0.0
 30
0.0
  9
$UCSORGFRONT
 10
0.0
 20
0.0
 30
0.0
  9
$UCSORGBACK
 10
0.0
 20
0.0
 30
0.0
  9
$PUCSBASE
  2

  9
$PUCSNAME
  2

  9
$PUCSORG
 10
0.0
 20
0.0
 30
0.0
  9
$PUCSXDIR
 10
1.0
 20
0.0
 30
0.0
  9
$PUCSYDIR
 10
0.0
 20
1.0
 30
0.0
  9
$PUCSORTHOREF
  2

  9
$PUCSORTHOVIEW
 70
     0
  9
$PUCSORGTOP
 10
0.0
 20
0.0
 30
0.0
  9
$PUCSORGBOTTOM
 10
0.0
 20
0.0
 30
0.0
  9
$PUCSORGLEFT
 10
0.0
 20
0.0
 30
0.0
  9
$PUCSORGRIGHT
 10
0.0
 20
0.0
 30
0.0
  9
$PUCSORGFRONT
 10
0.0
 20
0.0
 30
0.0
  9
$PUCSORGBACK
 10
0.0
 20
0.0
 30
0.0
  9
$USERI1
 70
     0
  9
$USERI2
 70
     0
  9
$USERI3
 70
     0
  9
$USERI4
 70
     0
  9
$USERI5
 70
     0
  9
$USERR1
 40
0.0
  9
$USERR2
 40
0.0
  9
$USERR3
 40
0.0
  9
$USERR4
 40
0.0
  9
$USERR5
 40
0.0
  9
$WORLDVIEW
 70
     1
  9
$SHADEDGE
 70
     3
  9
$SHADEDIF
 70
    70
  9
$TILEMODE
 70
     1
  9
$MAXACTVP
 70
    64
  9
$PINSBASE
 10
0.0
 20
0.0
 30
0.0
  9
$PLIMCHECK
 70
     0
  9
$PEXTMIN
 10
1.000000000000000E+20
 20
1.000000000000000E+20
 30
1.000000000000000E+20
  9
$PEXTMAX
 10
-1.000000000000000E+20
 20
-1.000000000000000E+20
 30
-1.000000000000000E+20
  9
$PLIMMIN
 10
0.0
 20
0.0
  9
$PLIMMAX
 10
12.0
 20
9.0
  9
$UNITMODE
 70
     0
  9
$VISRETAIN
 70
     1
  9
$PLINEGEN
 70
     0
  9
$PSLTSCALE
 70
     1
  9
$TREEDEPTH
 70
  3020
  9
$CMLSTYLE
  2
Standard
  9
$CMLJUST
 70
     0
  9
$CMLSCALE
 40
1.0
  9
$PROXYGRAPHICS
 70
     1
  9
$MEASUREMENT
 70
     0
  9
$CELWEIGHT
370
    -1
  9
$ENDCAPS
280
     0
  9
$JOINSTYLE
280
     0
  9
$LWDISPLAY
290
     1
  9
$INSUNITS
 70
     1
  9
$HYPERLINKBASE
  1

  9
$STYLESHEET
  1

  9
$XEDIT
290
     1
  9
$CEPSNTYPE
380
     0
  9
$PSTYLEMODE
290
     1
  9
$FINGERPRINTGUID
  2
{C1D3EA65-A780-483B-A329-C590089B8001}
  9
$VERSIONGUID
  2
{FAEB1C32-E019-11D5-929B-00C0DF256EC4}
  9
$EXTNAMES
290
     1
  9
$PSVPSCALE
 40
0.0
  9
$OLESTARTUP
290
     0
  9
$SORTENTS
280
   127
  9
$INDEXCTL
280
     0
  9
$HIDETEXT
280
     1
  9
$XCLIPFRAME
280
     2
  9
$HALOGAP
280
     0
  9
$OBSCOLOR
 70
   257
  9
$OBSLTYPE
280
     0
  9
$INTERSECTIONDISPLAY
280
     0
  9
$INTERSECTIONCOLOR
 70
   257
  9
$DIMASSOC
280
     2
  9
$PROJECTNAME
  1

  9
$CAMERADISPLAY
290
     0
  9
$LENSLENGTH
 40
50.0
  9
$CAMERAHEIGHT
 40
0.0
  9
$STEPSPERSEC
 40
2.0
  9
$STEPSIZE
 40
6.0
  9
$3DDWFPREC
 40
2.0
  9
$PSOLWIDTH
 40
0.25
  9
$PSOLHEIGHT
 40
4.0
  9
$LOFTANG1
 40
1.570796326794897
  9
$LOFTANG2
 40
1.570796326794897
  9
$LOFTMAG1
 40
0.0
  9
$LOFTMAG2
 40
0.0
  9
$LOFTPARAM
 70
     7
  9
$LOFTNORMALS
280
     1
  9
$LATITUDE
 40
37.795
  9
$LONGITUDE
 40
-122.394
  9
$NORTHDIRECTION
 40
0.0
  9
$TIMEZONE
 70
 -8000
  9
$LIGHTGLYPHDISPLAY
280
     1
  9
$TILEMODELIGHTSYNCH
280
     1
  9
$CMATERIAL
347
3C
  9
$SOLIDHIST
280
     1
  9
$SHOWHIST
280
     1
  9
$DWFFRAME
280
     2
  9
$DGNFRAME
280
     2
  9
$REALWORLDSCALE
290
     1
  9
$INTERFERECOLOR
 62
   256
  9
$CSHADOW
280
     0
  9
$SHADOWPLANELOCATION
 40
0.0
  0
ENDSEC
  0
SECTION
  2
CLASSES
  0
CLASS
  1
ACDBDICTIONARYWDFLT
  2
AcDbDictionaryWithDefault
  3
ObjectDBX Classes
 90
        0
 91
        4
280
     0
281
     0
  0
CLASS
  1
VISUALSTYLE
  2
AcDbVisualStyle
  3
ObjectDBX Classes
 90
     4095
 91
        4
280
     0
281
     0
  0
CLASS
  1
MATERIAL
  2
AcDbMaterial
  3
ObjectDBX Classes
 90
     1153
 91
        4
280
     0
281
     0
  0
CLASS
  1
SUN
  2
AcDbSun
  3
SCENEOE
 90
     1024
 91
        4
280
     0
281
     0
  0
ENDSEC
  0
SECTION
  2
TABLES
  0
TABLE
  2
VPORT
  5
8
330
0
100
AcDbSymbolTable
 70
     1
  0
VPORT
  5
29
330
8
100
AcDbSymbolTableRecord
100
AcDbViewportTableRecord
  2
*Active
 70
     0
 10
0.0
 20
0.0
 11
1.0
 21
1.0
 12
0.0
 22
0.0
 13
0.0
 23
0.0
 14
0.5
 24
0.5
 15
0.5
 25
0.5
 16
0.0
 26
0.0
 36
1.0
 17
2211.093499999999
 27
-1315.901489245744
 37
0.0
 40
851.4133784914884
 41
1.014783208517127
 42
50.0
 43
0.0
 44
0.0
 50
0.0
 51
0.0
 71
     0
 72
   100
 73
     1
 74
     3
 75
     0
 76
     0
 77
     0
 78
     0
281
     0
 65
     1
110
0.0
120
0.0
130
0.0
111
1.0
121
0.0
131
0.0
112
0.0
122
1.0
132
0.0
 79
     0
146
0.0
 60
     3
 61
     5
292
     1
282
     1
141
0.0
142
0.0
 63
   250
361
3F
  0
ENDTAB
  0
TABLE
  2
LTYPE
  5
5
330
0
100
AcDbSymbolTable
 70
     1
  0
LTYPE
  5
14
330
5
100
AcDbSymbolTableRecord
100
AcDbLinetypeTableRecord
  2
ByBlock
 70
     0
  3

 72
    65
 73
     0
 40
0.0
  0
LTYPE
  5
15
330
5
100
AcDbSymbolTableRecord
100
AcDbLinetypeTableRecord
  2
ByLayer
 70
     0
  3

 72
    65
 73
     0
 40
0.0
  0
LTYPE
  5
16
330
5
100
AcDbSymbolTableRecord
100
AcDbLinetypeTableRecord
  2
Continuous
 70
     0
  3
Solid line
 72
    65
 73
     0
 40
0.0
  0
ENDTAB
  0
TABLE
  2
LAYER
  5
2
330
0
100
AcDbSymbolTable
 70
     2
  0
LAYER
  5
10
330
2
100
AcDbSymbolTableRecord
100
AcDbLayerTableRecord
  2
0
 70
     0
 62
     7
  6
Continuous
370
    -3
390
F
347
3E
  0
LAYER
  5
40
330
2
100
AcDbSymbolTableRecord
100
AcDbLayerTableRecord
  2
Layer 1
 70
     0
 62
     7
  6
Continuous
370
    -3
390
F
347
3E
  0
ENDTAB
  0
TABLE
  2
STYLE
  5
3
330
0
100
AcDbSymbolTable
 70
     1
  0
STYLE
  5
11
330
3
100
AcDbSymbolTableRecord
100
AcDbTextStyleTableRecord
  2
Standard
 70
     0
 40
0.0
 41
1.0
 50
0.0
 71
     0
 42
0.2
  3
txt
  4

  0
ENDTAB
  0
TABLE
  2
VIEW
  5
6
330
0
100
AcDbSymbolTable
 70
     0
  0
ENDTAB
  0
TABLE
  2
UCS
  5
7
330
0
100
AcDbSymbolTable
 70
     0
  0
ENDTAB
  0
TABLE
  2
APPID
  5
9
330
0
100
AcDbSymbolTable
 70
     1
  0
APPID
  5
12
330
9
100
AcDbSymbolTableRecord
100
AcDbRegAppTableRecord
  2
ACAD
 70
     0
  0
ENDTAB
  0
TABLE
  2
DIMSTYLE
  5
A
330
0
100
AcDbSymbolTable
 70
     1
100
AcDbDimStyleTable
  0
DIMSTYLE
105
27
330
A
100
AcDbSymbolTableRecord
100
AcDbDimStyleTableRecord
  2
Standard
 70
     0
178
     0
340
11
  0
ENDTAB
  0
TABLE
  2
BLOCK_RECORD
  5
1
330
0
100
AcDbSymbolTable
 70
     1
  0
BLOCK_RECORD
  5
1F
330
1
100
AcDbSymbolTableRecord
100
AcDbBlockTableRecord
  2
*Model_Space
340
22
 70
     0
280
     1
281
     0
  0
BLOCK_RECORD
  5
1B
330
1
100
AcDbSymbolTableRecord
100
AcDbBlockTableRecord
  2
*Paper_Space
340
1E
 70
     0
280
     1
281
     0
  0
BLOCK_RECORD
  5
23
330
1
100
AcDbSymbolTableRecord
100
AcDbBlockTableRecord
  2
*Paper_Space0
340
26
 70
     0
280
     1
281
     0
  0
ENDTAB
  0
ENDSEC
  0
SECTION
  2
BLOCKS
  0
BLOCK
  5
20
330
1F
100
AcDbEntity
  8
0
100
AcDbBlockBegin
  2
*Model_Space
 70
     0
 10
0.0
 20
0.0
 30
0.0
  3
*Model_Space
  1

  0
ENDBLK
  5
21
330
1F
100
AcDbEntity
  8
0
100
AcDbBlockEnd
  0
BLOCK
  5
1C
330
1B
100
AcDbEntity
 67
     1
  8
0
100
AcDbBlockBegin
  2
*Paper_Space
 70
     0
 10
0.0
 20
0.0
 30
0.0
  3
*Paper_Space
  1

  0
ENDBLK
  5
1D
330
1B
100
AcDbEntity
 67
     1
  8
0
100
AcDbBlockEnd
  0
BLOCK
  5
24
330
23
100
AcDbEntity
  8
0
100
AcDbBlockBegin
  2
*Paper_Space0
 70
     0
 10
0.0
 20
0.0
 30
0.0
  3
*Paper_Space0
  1

  0
ENDBLK
  5
25
330
23
100
AcDbEntity
  8
0
100
AcDbBlockEnd
  0
ENDSEC
  0
SECTION
  2
ENTITIES
  0
SPLINE
  5
41
330
1F
100
AcDbEntity
  8
Layer 1
370
     0
100
AcDbSpline
210
0.0
220
0.0
230
1.0
 70
    11
 71
     3
 72
   362
 73
   358
 74
     0
 42
0.0000000001
 43
0.0000000001
 12
1.0
 22
0.0
 32
0.0
 13
1.0
 23
0.0
 33
0.0
 40
0.0
 40
0.0
 40
0.0
 40
0.0
 40
1.0
 40
1.0
 40
1.0
 40
2.0
 40
2.0
 40
2.0
 40
3.0
 40
3.0
 40
3.0
 40
4.0
 40
4.0
 40
4.0
 40
5.0
 40
5.0
 40
5.0
 40
6.0
 40
6.0
 40
6.0
 40
7.0
 40
7.0
 40
7.0
 40
8.0
 40
8.0
 40
8.0
 40
9.0
 40
9.0
 40
9.0
 40
10.0
 40
10.0
 40
10.0
 40
11.0
 40
11.0
 40
11.0
 40
12.0
 40
12.0
 40
12.0
 40
13.0
 40
13.0
 40
13.0
 40
14.0
 40
14.0
 40
14.0
 40
15.0
 40
15.0
 40
15.0
 40
16.0
 40
16.0
 40
16.0
 40
17.0
 40
17.0
 40
17.0
 40
18.0
 40
18.0
 40
18.0
 40
19.0
 40
19.0
 40
19.0
 40
20.0
 40
20.0
 40
20.0
 40
21.0
 40
21.0
 40
21.0
 40
22.0
 40
22.0
 40
22.0
 40
23.0
 40
23.0
 40
23.0
 40
24.0
 40
24.0
 40
24.0
 40
25.0
 40
25.0
 40
25.0
 40
26.0
 40
26.0
 40
26.0
 40
27.0
 40
27.0
 40
27.0
 40
28.0
 40
28.0
 40
28.0
 40
29.0
 40
29.0
 40
29.0
 40
30.0
 40
30.0
 40
30.0
 40
31.0
 40
31.0
 40
31.0
 40
32.0
 40
32.0
 40
32.0
 40
33.0
 40
33.0
 40
33.0
 40
34.0
 40
34.0
 40
34.0
 40
35.0
 40
35.0
 40
35.0
 40
36.0
 40
36.0
 40
36.0
 40
37.0
 40
37.0
 40
37.0
 40
38.0
 40
38.0
 40
38.0
 40
39.0
 40
39.0
 40
39.0
 40
40.0
 40
40.0
 40
40.0
 40
41.0
 40
41.0
 40
41.0
 40
42.0
 40
42.0
 40
42.0
 40
43.0
 40
43.0
 40
43.0
 40
44.0
 40
44.0
 40
44.0
 40
45.0
 40
45.0
 40
45.0
 40
46.0
 40
46.0
 40
46.0
 40
47.0
 40
47.0
 40
47.0
 40
48.0
 40
48.0
 40
48.0
 40
49.0
 40
49.0
 40
49.0
 40
50.0
 40
50.0
 40
50.0
 40
51.0
 40
51.0
 40
51.0
 40
52.0
 40
52.0
 40
52.0
 40
53.0
 40
53.0
 40
53.0
 40
54.0
 40
54.0
 40
54.0
 40
55.0
 40
55.0
 40
55.0
 40
56.0
 40
56.0
 40
56.0
 40
57.0
 40
57.0
 40
57.0
 40
58.0
 40
58.0
 40
58.0
 40
59.0
 40
59.0
 40
59.0
 40
60.0
 40
60.0
 40
60.0
 40
61.0
 40
61.0
 40
61.0
 40
62.0
 40
62.0
 40
62.0
 40
63.0
 40
63.0
 40
63.0
 40
64.0
 40
64.0
 40
64.0
 40
65.0
 40
65.0
 40
65.0
 40
66.0
 40
66.0
 40
66.0
 40
67.0
 40
67.0
 40
67.0
 40
68.0
 40
68.0
 40
68.0
 40
69.0
 40
69.0
 40
69.0
 40
70.0
 40
70.0
 40
70.0
 40
71.0
 40
71.0
 40
71.0
 40
72.0
 40
72.0
 40
72.0
 40
73.0
 40
73.0
 40
73.0
 40
74.0
 40
74.0
 40
74.0
 40
75.0
 40
75.0
 40
75.0
 40
76.0
 40
76.0
 40
76.0
 40
77.0
 40
77.0
 40
77.0
 40
78.0
 40
78.0
 40
78.0
 40
79.0
 40
79.0
 40
79.0
 40
80.0
 40
80.0
 40
80.0
 40
81.0
 40
81.0
 40
81.0
 40
82.0
 40
82.0
 40
82.0
 40
83.0
 40
83.0
 40
83.0
 40
84.0
 40
84.0
 40
84.0
 40
85.0
 40
85.0
 40
85.0
 40
86.0
 40
86.0
 40
86.0
 40
87.0
 40
87.0
 40
87.0
 40
88.0
 40
88.0
 40
88.0
 40
89.0
 40
89.0
 40
89.0
 40
90.0
 40
90.0
 40
90.0
 40
91.0
 40
91.0
 40
91.0
 40
92.0
 40
92.0
 40
92.0
 40
93.0
 40
93.0
 40
93.0
 40
94.0
 40
94.0
 40
94.0
 40
95.0
 40
95.0
 40
95.0
 40
96.0
 40
96.0
 40
96.0
 40
97.0
 40
97.0
 40
97.0
 40
98.0
 40
98.0
 40
98.0
 40
99.0
 40
99.0
 40
99.0
 40
100.0
 40
100.0
 40
100.0
 40
101.0
 40
101.0
 40
101.0
 40
102.0
 40
102.0
 40
102.0
 40
103.0
 40
103.0
 40
103.0
 40
104.0
 40
104.0
 40
104.0
 40
105.0
 40
105.0
 40
105.0
 40
106.0
 40
106.0
 40
106.0
 40
107.0
 40
107.0
 40
107.0
 40
108.0
 40
108.0
 40
108.0
 40
109.0
 40
109.0
 40
109.0
 40
110.0
 40
110.0
 40
110.0
 40
111.0
 40
111.0
 40
111.0
 40
112.0
 40
112.0
 40
112.0
 40
113.0
 40
113.0
 40
113.0
 40
114.0
 40
114.0
 40
114.0
 40
115.0
 40
115.0
 40
115.0
 40
116.0
 40
116.0
 40
116.0
 40
117.0
 40
117.0
 40
117.0
 40
118.0
 40
118.0
 40
118.0
 40
119.0
 40
119.0
 40
119.0
 40
119.0
 10
2070.4337
 20
-1346.0977
 30
0.0
 10
2068.233200000001
 20
-1342.468800000001
 30
0.0
 10
2065.1791
 20
-1342.882900000001
 30
0.0
 10
2063.972
 20
-1343.233399999999
 30
0.0
 10
2063.972
 20
-1343.233399999999
 30
0.0
 10
2063.6498
 20
-1343.344800000001
 30
0.0
 10
2063.6498
 20
-1343.344800000001
 30
0.0
 10
2062.2245
 20
-1343.9226
 30
0.0
 10
2061.1384
 20
-1345.0116
 30
0.0
 10
2060.5958
 20
-1346.4094
 30
0.0
 10
2060.0621
 20
-1347.7809
 30
0.0
 10
2060.1032
 20
-1349.297500000001
 30
0.0
 10
2060.7094
 20
-1350.5674
 30
0.0
 10
2060.7094
 20
-1350.5674
 30
0.0
 10
2071.392
 20
-1368.4913
 30
0.0
 10
2071.392
 20
-1368.4913
 30
0.0
 10
2066.760700000001
 20
-1371.036399999999
 30
0.0
 10
2062.2125
 20
-1373.8565
 30
0.0
 10
2057.7585
 20
-1376.974200000001
 30
0.0
 10
2057.7585
 20
-1376.974200000001
 30
0.0
 10
2041.4326
 20
-1364.6801
 30
0.0
 10
2041.4326
 20
-1364.6801
 30
0.0
 10
2038.8225
 20
-1362.9064
 30
0.0
 10
2035.8342
 20
-1363.253200000001
 30
0.0
 10
2033.991
 20
-1365.5404
 30
0.0
 10
2033.032
 20
-1366.725899999999
 30
0.0
 10
2032.6014
 20
-1368.1497
 30
0.0
 10
2032.774100000001
 20
-1369.546
 30
0.0
 10
2032.958000000001
 20
-1371.022199999999
 30
0.0
 10
2033.8048
 20
-1372.396000000001
 30
0.0
 10
2035.1585
 20
-1373.4103
 30
0.0
 10
2039.928
 20
-1376.9936
 30
0.0
 10
2044.1922
 20
-1380.1351
 30
0.0
 10
2048.928
 20
-1383.604799999999
 30
0.0
 10
2048.928
 20
-1383.604799999999
 30
0.0
 10
2047.7172
 20
-1384.601199999999
 30
0.0
 10
2047.7172
 20
-1384.601199999999
 30
0.0
 10
2046.806
 20
-1385.3598
 30
0.0
 10
2044.385
 20
-1387.3652
 30
0.0
 10
2044.9658
 20
-1390.710800000001
 30
0.0
 10
2045.2319
 20
-1392.238600000001
 30
0.0
 10
2046.1438
 20
-1393.274600000001
 30
0.0
 10
2046.633400000001
 20
-1393.831400000001
 30
0.0
 10
2047.1536
 20
-1394.4197
 30
0.0
 10
2047.7598
 20
-1394.9429
 30
0.0
 10
2048.368899999999
 20
-1395.445900000001
 30
0.0
 10
2050.372100000001
 20
-1397.097100000001
 30
0.0
 10
2052.3835
 20
-1398.6338
 30
0.0
 10
2054.3971
 20
-1400.1571
 30
0.0
 10
2054.3971
 20
-1400.1571
 30
0.0
 10
2040.8974
 20
-1412.6613
 30
0.0
 10
2040.8974
 20
-1412.6613
 30
0.0
 10
2040.1193
 20
-1413.3923
 30
0.0
 10
2038.6722
 20
-1414.7459
 30
0.0
 10
2038.4383
 20
-1416.989799999999
 30
0.0
 10
2038.3785
 20
-1419.1895
 30
0.0
 10
2039.2754
 20
-1420.8773
 30
0.0
 10
2040.8825
 20
-1421.8968
 30
0.0
 10
2041.8079
 20
-1422.4835
 30
0.0
 10
2042.8221
 20
-1422.7631
 30
0.0
 10
2043.8282
 20
-1422.7436
 30
0.0
 10
2045.0383
 20
-1422.7212
 30
0.0
 10
2046.2417
 20
-1422.265300000001
 30
0.0
 10
2047.2844
 20
-1421.393
 30
0.0
 10
2047.2844
 20
-1421.393
 30
0.0
 10
2062.836600000001
 20
-1406.170400000001
 30
0.0
 10
2062.836600000001
 20
-1406.170400000001
 30
0.0
 10
2068.106900000001
 20
-1409.664699999999
 30
0.0
 10
2073.4235
 20
-1412.7495
 30
0.0
 10
2078.808199999999
 20
-1415.4059
 30
0.0
 10
2078.808199999999
 20
-1415.4059
 30
0.0
 10
2077.348400000001
 20
-1417.5257
 30
0.0
 10
2077.348400000001
 20
-1417.5257
 30
0.0
 10
2074.6665
 20
-1421.4259
 30
0.0
 10
2071.9825
 20
-1425.3231
 30
0.0
 10
2069.3148
 20
-1429.2323
 30
0.0
 10
2068.7639
 20
-1430.041800000001
 30
0.0
 10
2067.4671
 20
-1431.9365
 30
0.0
 10
2067.9492
 20
-1434.2245
 30
0.0
 10
2068.1488
 20
-1435.174499999999
 30
0.0
 10
2068.7407
 20
-1436.5311
 30
0.0
 10
2070.422500000001
 20
-1437.5746
 30
0.0
 10
2071.274600000001
 20
-1438.1023
 30
0.0
 10
2072.2904
 20
-1438.436400000001
 30
0.0
 10
2073.3622
 20
-1438.4192
 30
0.0
 10
2074.963299999999
 20
-1438.3886
 30
0.0
 10
2076.6862
 20
-1437.5671
 30
0.0
 10
2078.1721
 20
-1435.4107
 30
0.0
 10
2078.1721
 20
-1435.4107
 30
0.0
 10
2088.7388
 20
-1419.773999999999
 30
0.0
 10
2088.7388
 20
-1419.773999999999
 30
0.0
 10
2093.5898
 20
-1421.683800000001
 30
0.0
 10
2098.4953
 20
-1423.315399999999
 30
0.0
 10
2103.486
 20
-1424.5906
 30
0.0
 10
2101.627899999999
 20
-1429.715899999999
 30
0.0
 10
2099.7742
 20
-1434.8449
 30
0.0
 10
2097.9714
 20
-1439.990299999999
 30
0.0
 10
2096.571400000001
 20
-1443.9997
 30
0.0
 10
2098.6687
 20
-1446.4125
 30
0.0
 10
2100.8916
 20
-1447.2608
 30
0.0
 10
2101.681
 20
-1447.5643
 30
0.0
 10
2102.3993
 20
-1447.6682
 30
0.0
 10
2103.0286
 20
-1447.656199999999
 30
0.0
 10
2103.8217
 20
-1447.641299999999
 30
0.0
 10
2104.4764
 20
-1447.4409
 30
0.0
 10
2104.9638
 20
-1447.2219
 30
0.0
 10
2107.0626
 20
-1446.268900000001
 30
0.0
 10
2107.8422
 20
-1444.167100000001
 30
0.0
 10
2108.0978
 20
-1443.475
 30
0.0
 10
2110.0337
 20
-1438.2376
 30
0.0
 10
2111.9323
 20
-1432.9905
 30
0.0
 10
2113.795
 20
-1427.731400000001
 30
0.0
 10
2113.9137
 20
-1427.396500000001
 30
0.0
 10
2114.0094
 20
-1427.1446
 30
0.0
 10
2114.1193
 20
-1426.809800000001
 30
0.0
 10
2118.6205
 20
-1427.5707
 30
0.0
 10
2122.6799
 20
-1428.061799999999
 30
0.0
 10
2126.612999999999
 20
-1428.3024
 30
0.0
 10
2126.612999999999
 20
-1428.3024
 30
0.0
 10
2127.261
 20
-1428.3413
 30
0.0
 10
2127.261
 20
-1428.3413
 30
0.0
 10
2127.776
 20
-1428.3727
 30
0.0
 10
2128.303
 20
-1428.3951
 30
0.0
 10
2128.8217
 20
-1428.425799999999
 30
0.0
 10
2128.8217
 20
-1428.425799999999
 30
0.0
 10
2128.918799999999
 20
-1464.186100000001
 30
0.0
 10
2128.918799999999
 20
-1464.186100000001
 30
0.0
 10
2128.933
 20
-1469.9378
 30
0.0
 10
2132.3265
 20
-1470.8272
 30
0.0
 10
2134.3483
 20
-1470.8459
 30
0.0
 10
2134.3483
 20
-1470.8459
 30
0.0
 10
2134.3499
 20
-1470.8459
 30
0.0
 10
2134.3499
 20
-1470.8459
 30
0.0
 10
2134.4141
 20
-1470.8452
 30
0.0
 10
2134.4754
 20
-1470.843699999999
 30
0.0
 10
2134.535900000001
 20
-1470.8429
 30
0.0
 10
2136.3822
 20
-1470.8078
 30
0.0
 10
2137.5459
 20
-1470.0252
 30
0.0
 10
2138.204400000001
 20
-1469.360699999999
 30
0.0
 10
2139.865299999999
 20
-1467.681200000001
 30
0.0
 10
2139.822700000001
 20
-1465.3753
 30
0.0
 10
2139.800999999999
 20
-1464.1353
 30
0.0
 10
2139.800999999999
 20
-1464.1353
 30
0.0
 10
2139.663500000001
 20
-1428.6149
 30
0.0
 10
2139.663500000001
 20
-1428.6149
 30
0.0
 10
2140.621
 20
-1428.5723
 30
0.0
 10
2141.5807
 20
-1428.5461
 30
0.0
 10
2142.5329
 20
-1428.4519
 30
0.0
 10
2145.456200000001
 20
-1428.282300000001
 30
0.0
 10
2148.276400000001
 20
-1428.004199999999
 30
0.0
 10
2151.1668
 20
-1427.6507
 30
0.0
 10
2151.4097
 20
-1428.1268
 30
0.0
 10
2151.5599
 20
-1428.4624
 30
0.0
 10
2151.7774
 20
-1428.8526
 30
0.0
 10
2151.7774
 20
-1428.8526
 30
0.0
 10
2160.8022
 20
-1445.1104
 30
0.0
 10
2160.8022
 20
-1445.1104
 30
0.0
 10
2161.5339
 20
-1446.3848
 30
0.0
 10
2162.605
 20
-1448.2572
 30
0.0
 10
2164.8235
 20
-1448.829
 30
0.0
 10
2165.18
 20
-1448.920899999999
 30
0.0
 10
2165.6143
 20
-1448.9889
 30
0.0
 10
2166.1098
 20
-1448.9799
 30
0.0
 10
2166.9111
 20
-1448.9643
 30
0.0
 10
2167.8693
 20
-1448.749
 30
0.0
 10
2168.915
 20
-1448.115100000001
 30
0.0
 10
2170.575800000001
 20
-1447.1106
 30
0.0
 10
2172.966899999999
 20
-1444.710499999999
 30
0.0
 10
2170.2799
 20
-1439.920099999999
 30
0.0
 10
2168.0906
 20
-1436.016900000001
 30
0.0
 10
2165.890100000001
 20
-1432.1242
 30
0.0
 10
2163.6896
 20
-1428.227699999999
 30
0.0
 10
2163.6896
 20
-1428.227699999999
 30
0.0
 10
2162.3172
 20
-1425.797
 30
0.0
 10
2162.3172
 20
-1425.797
 30
0.0
 10
2167.2347
 20
-1424.778200000001
 30
0.0
 10
2172.0887
 20
-1423.4866
 30
0.0
 10
2176.873900000001
 20
-1421.9252
 30
0.0
 10
2176.873900000001
 20
-1421.9252
 30
0.0
 10
2188.9557
 20
-1435.605
 30
0.0
 10
2188.9557
 20
-1435.605
 30
0.0
 10
2190.8079
 20
-1437.659799999999
 30
0.0
 10
2192.649600000001
 20
-1438.4072
 30
0.0
 10
2194.2521
 20
-1438.3766
 30
0.0
 10
2195.4877
 20
-1438.3534
 30
0.0
 10
2196.580400000001
 20
-1437.8676
 30
0.0
 10
2197.4258
 20
-1437.1553
 30
0.0
 10
2198.248
 20
-1436.362999999999
 30
0.0
 10
2201.2154
 20
-1433.011399999999
 30
0.0
 10
2197.0319
 20
-1428.369699999999
 30
0.0
 10
2197.0319
 20
-1428.369699999999
 30
0.0
 10
2187.642400000001
 20
-1417.936799999999
 30
0.0
 10
2187.642400000001
 20
-1417.936799999999
 30
0.0
 10
2192.115900000001
 20
-1416.0502
 30
0.0
 10
2196.5229
 20
-1413.9357
 30
0.0
 10
2200.8409
 20
-1411.558800000001
 30
0.0
 10
2202.4038
 20
-1410.6999
 30
0.0
 10
2203.8748
 20
-1409.8269
 30
0.0
 10
2205.3637
 20
-1408.956899999999
 30
0.0
 10
2207.4208
 20
-1410.9728
 30
0.0
 10
2209.515100000001
 20
-1412.951300000001
 30
0.0
 10
2211.6162
 20
-1414.920099999999
 30
0.0
 10
2211.6162
 20
-1414.920099999999
 30
0.0
 10
2212.111699999999
 20
-1415.3842
 30
0.0
 10
2212.111699999999
 20
-1415.3842
 30
0.0
 10
2213.5095
 20
-1416.693799999999
 30
0.0
 10
2214.922200000001
 20
-1417.983899999999
 30
0.0
 10
2216.3804
 20
-1419.2127
 30
0.0
 10
2217.523300000001
 20
-1420.1769
 30
0.0
 10
2218.7999
 20
-1420.3084
 30
0.0
 10
2219.2791
 20
-1420.360000000001
 30
0.0
 10
2219.507100000001
 20
-1420.384700000001
 30
0.0
 10
2219.732
 20
-1420.3959
 30
0.0
 10
2219.9548
 20
-1420.3922
 30
0.0
 10
2221.997499999999
 20
-1420.353300000001
 30
0.0
 10
2223.813099999999
 20
-1419.1417
 30
0.0
 10
2224.6024
 20
-1417.2274
 30
0.0
 10
2225.5218
 20
-1414.989600000001
 30
0.0
 10
2224.956
 20
-1412.664999999999
 30
0.0
 10
2223.0514
 20
-1410.8472
 30
0.0
 10
2223.0514
 20
-1410.8472
 30
0.0
 10
2214.818299999999
 20
-1403.0386
 30
0.0
 10
2214.818299999999
 20
-1403.0386
 30
0.0
 10
2218.4584
 20
-1400.579400000001
 30
0.0
 10
2221.8989
 20
-1398.059800000001
 30
0.0
 10
2225.124900000001
 20
-1395.433199999999
 30
0.0
 10
2225.124900000001
 20
-1395.433199999999
 30
0.0
 10
2225.840899999999
 20
-1394.8786
 30
0.0
 10
2225.840899999999
 20
-1394.8786
 30
0.0
 10
2227.530200000001
 20
-1393.5422
 30
0.0
 10
2228.484700000001
 20
-1391.9591
 30
0.0
 10
2228.6641
 20
-1390.186900000001
 30
0.0
 10
2228.8524
 20
-1388.3668
 30
0.0
 10
2228.237999999999
 20
-1386.685799999999
 30
0.0
 10
2226.8896
 20
-1385.331400000001
 30
0.0
 10
2226.440399999999
 20
-1384.878500000001
 30
0.0
 10
2225.929899999999
 20
-1384.480799999999
 30
0.0
 10
2225.412
 20
-1384.0929
 30
0.0
 10
2225.412
 20
-1384.0929
 30
0.0
 10
2225.1234
 20
-1383.876099999999
 30
0.0
 10
2225.1234
 20
-1383.876099999999
 30
0.0
 10
2224.4126
 20
-1383.332
 30
0.0
 10
2223.692800000001
 20
-1382.857400000001
 30
0.0
 10
2222.9812
 20
-1382.3274
 30
0.0
 10
2225.3297
 20
-1379.8668
 30
0.0
 10
2227.634099999999
 20
-1377.4226
 30
0.0
 10
2229.932499999999
 20
-1374.9792
 30
0.0
 10
2229.932499999999
 20
-1374.9792
 30
0.0
 10
2233.2878
 20
-1371.419100000001
 30
0.0
 10
2233.2878
 20
-1371.419100000001
 30
0.0
 10
2235.951000000001
 20
-1368.6109
 30
0.0
 10
2235.241
 20
-1365.980600000001
 30
0.0
 10
2234.579400000001
 20
-1364.660599999999
 30
0.0
 10
2233.7034
 20
-1362.9049
 30
0.0
 10
2232.0164
 20
-1361.874900000001
 30
0.0
 10
2229.9534
 20
-1361.8405
 30
0.0
 10
2227.474900000001
 20
-1361.836799999999
 30
0.0
 10
2226.0129
 20
-1363.3436
 30
0.0
 10
2225.228800000001
 20
-1364.1733
 30
0.0
 10
2225.228800000001
 20
-1364.1733
 30
0.0
 10
2223.125400000001
 20
-1366.405199999999
 30
0.0
 10
2223.125400000001
 20
-1366.405199999999
 30
0.0
 10
2220.3442
 20
-1369.3524
 30
0.0
 10
2217.564399999999
 20
-1372.300300000001
 30
0.0
 10
2214.7973
 20
-1375.257299999999
 30
0.0
 10
2214.5933
 20
-1375.4763
 30
0.0
 10
2214.330900000001
 20
-1375.764000000001
 30
0.0
 10
2214.0574
 20
-1376.1026
 30
0.0
 10
2208.6966
 20
-1372.596299999999
 30
0.0
 10
2203.2739
 20
-1369.458500000001
 30
0.0
 10
2197.770399999999
 20
-1366.7184
 30
0.0
 10
2197.770399999999
 20
-1366.7184
 30
0.0
 10
2197.834699999999
 20
-1366.5928
 30
0.0
 10
2197.834699999999
 20
-1366.5928
 30
0.0
 10
2200.3873
 20
-1361.6394
 30
0.0
 10
2202.9413
 20
-1356.6793
 30
0.0
 10
2205.3809
 20
-1351.6639
 30
0.0
 10
2206.4281
 20
-1349.5128
 30
0.0
 10
2206.3579
 20
-1347.2233
 30
0.0
 10
2205.191800000001
 20
-1345.543799999999
 30
0.0
 10
2204.1484
 20
-1344.0399
 30
0.0
 10
2202.3956
 20
-1343.226699999999
 30
0.0
 10
2200.4627
 20
-1343.439
 30
0.0
 10
2198.3549
 20
-1343.767900000001
 30
0.0
 10
2196.8675
 20
-1344.9257
 30
0.0
 10
2195.8457
 20
-1346.910900000001
 30
0.0
 10
2195.8457
 20
-1346.910900000001
 30
0.0
 10
2193.7857
 20
-1350.9015
 30
0.0
 10
2193.7857
 20
-1350.9015
 30
0.0
 10
2191.8296
 20
-1354.688899999999
 30
0.0
 10
2189.874299999999
 20
-1358.477699999999
 30
0.0
 10
2187.9272
 20
-1362.273999999999
 30
0.0
 10
2180.2486
 20
-1359.128000000001
 30
0.0
 10
2172.4093
 20
-1356.6405
 30
0.0
 10
2164.346600000001
 20
-1354.880999999999
 30
0.0
 10
2167.0501
 20
-1347.9095
 30
0.0
 10
2169.735000000001
 20
-1340.9275
 30
0.0
 10
2172.3742
 20
-1333.9329
 30
0.0
 10
2173.0978
 20
-1332.010399999999
 30
0.0
 10
2172.9924
 20
-1330.141799999999
 30
0.0
 10
2172.0813
 20
-1328.6641
 30
0.0
 10
2171.2441
 20
-1327.308999999999
 30
0.0
 10
2169.8284
 20
-1326.4614
 30
0.0
 10
2168.0928
 20
-1326.2775
 30
0.0
 10
2166.8909
 20
-1326.1355
 30
0.0
 10
2163.8854
 20
-1326.2588
 30
0.0
 10
2162.3561
 20
-1330.156800000001
 30
0.0
 10
2159.5711
 20
-1337.2718
 30
0.0
 10
2156.7973
 20
-1344.3927
 30
0.0
 10
2154.065399999999
 20
-1351.528700000001
 30
0.0
 10
2153.8815
 20
-1352.0093
 30
0.0
 10
2153.7298
 20
-1352.4854
 30
0.0
 10
2153.560100000001
 20
-1352.9324
 30
0.0
 10
2148.7928
 20
-1352.258900000001
 30
0.0
 10
2144.4487
 20
-1351.8815
 30
0.0
 10
2140.1067
 20
-1351.7387
 30
0.0
 10
2140.1067
 20
-1351.7387
 30
0.0
 10
2140.3504
 20
-1309.5383
 30
0.0
 10
2140.3504
 20
-1309.5383
 30
0.0
 10
2140.3504
 20
-1309.5383
 30
0.0
 10
2140.3071
 20
-1309.2745
 30
0.0
 10
2140.3071
 20
-1309.2745
 30
0.0
 10
2139.8698
 20
-1306.5283
 30
0.0
 10
2137.8606
 20
-1304.6799
 30
0.0
 10
2135.190000000001
 20
-1304.5715
 30
0.0
 10
2132.396000000001
 20
-1304.4272
 30
0.0
 10
2130.2209
 20
-1306.257
 30
0.0
 10
2129.697700000001
 20
-1309.0278
 30
0.0
 10
2129.697700000001
 20
-1309.0278
 30
0.0
 10
2129.642400000001
 20
-1309.5981
 30
0.0
 10
2129.642400000001
 20
-1309.5981
 30
0.0
 10
2129.642400000001
 20
-1309.5981
 30
0.0
 10
2129.229
 20
-1351.9031
 30
0.0
 10
2129.229
 20
-1351.9031
 30
0.0
 10
2122.7262
 20
-1352.2544
 30
0.0
 10
2116.3729
 20
-1353.040800000001
 30
0.0
 10
2110.094300000001
 20
-1354.290500000001
 30
0.0
 10
2110.094300000001
 20
-1354.290500000001
 30
0.0
 10
2100.683800000001
 20
-1332.3274
 30
0.0
 10
2100.683800000001
 20
-1332.3274
 30
0.0
 10
2100.008900000001
 20
-1330.801100000001
 30
0.0
 10
2098.8773
 20
-1329.6836
 30
0.0
 10
2097.4967
 20
-1329.1754
 30
0.0
 10
2096.556399999999
 20
-1328.826999999999
 30
0.0
 10
2095.0585
 20
-1328.5983
 30
0.0
 10
2093.2699
 20
-1329.4624
 30
0.0
 10
2090.585800000001
 20
-1330.7637
 30
0.0
 10
2089.579
 20
-1333.6967
 30
0.0
 10
2090.8145
 20
-1336.596799999999
 30
0.0
 10
2093.7041
 20
-1343.353000000001
 30
0.0
 10
2096.6461
 20
-1350.087600000001
 30
0.0
 10
2099.5941
 20
-1356.8199
 30
0.0
 10
2093.2639
 20
-1358.625700000001
 30
0.0
 10
2087.0683
 20
-1360.9301
 30
0.0
 10
2081.0019
 20
-1363.6792
 30
0.0
 10
2081.0019
 20
-1363.6792
 30
0.0
 10
2070.4337
 20
-1346.0977
 30
0.0
 10
2070.4337
 20
-1346.0977
 30
0.0
  0
SPLINE
  5
42
330
1F
100
AcDbEntity
  8
Layer 1
370
     0
100
AcDbSpline
210
0.0
220
0.0
230
1.0
 70
    11
 71
     3
 72
    26
 73
    22
 74
     0
 42
0.0000000001
 43
0.0000000001
 12
1.0
 22
0.0
 32
0.0
 13
1.0
 23
0.0
 33
0.0
 40
0.0
 40
0.0
 40
0.0
 40
0.0
 40
1.0
 40
1.0
 40
1.0
 40
2.0
 40
2.0
 40
2.0
 40
3.0
 40
3.0
 40
3.0
 40
4.0
 40
4.0
 40
4.0
 40
5.0
 40
5.0
 40
5.0
 40
6.0
 40
6.0
 40
6.0
 40
7.0
 40
7.0
 40
7.0
 40
7.0
 10
2207.5433
 20
-1394.7934
 30
0.0
 10
2207.5433
 20
-1394.7934
 30
0.0
 10
2207.5448
 20
-1394.7934
 30
0.0
 10
2207.5448
 20
-1394.7934
 30
0.0
 10
2192.8634
 20
-1404.479600000001
 30
0.0
 10
2178.203600000001
 20
-1410.9997
 30
0.0
 10
2163.031800000001
 20
-1414.561299999999
 30
0.0
 10
2163.8652
 20
-1413.5589
 30
0.0
 10
2164.6373
 20
-1412.52
 30
0.0
 10
2165.3392
 20
-1411.4444
 30
0.0
 10
2175.2773
 20
-1396.237499999999
 30
0.0
 10
2173.5828
 20
-1378.038500000001
 30
0.0
 10
2161.9203
 20
-1365.364
 30
0.0
 10
2163.844300000001
 20
-1365.7788
 30
0.0
 10
2165.683800000001
 20
-1366.221299999999
 30
0.0
 10
2167.4485
 20
-1366.6967
 30
0.0
 10
2184.1907
 20
-1371.188099999999
 30
0.0
 10
2199.7616
 20
-1378.7053
 30
0.0
 10
2214.922200000001
 20
-1389.627
 30
0.0
 10
2212.400300000001
 20
-1391.491899999999
 30
0.0
 10
2209.962100000001
 20
-1393.195400000001
 30
0.0
 10
2207.5433
 20
-1394.7934
 30
0.0
  0
SPLINE
  5
43
330
1F
100
AcDbEntity
  8
Layer 1
370
     0
100
AcDbSpline
210
0.0
220
0.0
230
1.0
 70
    11
 71
     3
 72
    23
 73
    19
 74
     0
 42
0.0000000001
 43
0.0000000001
 12
1.0
 22
0.0
 32
0.0
 13
1.0
 23
0.0
 33
0.0
 40
0.0
 40
0.0
 40
0.0
 40
0.0
 40
1.0
 40
1.0
 40
1.0
 40
2.0
 40
2.0
 40
2.0
 40
3.0
 40
3.0
 40
3.0
 40
4.0
 40
4.0
 40
4.0
 40
5.0
 40
5.0
 40
5.0
 40
6.0
 40
6.0
 40
6.0
 40
6.0
 10
2088.9391
 20
-1408.1571
 30
0.0
 10
2078.033100000001
 20
-1403.3891
 30
0.0
 10
2067.815399999999
 20
-1397.2204
 30
0.0
 10
2058.5126
 20
-1389.788500000001
 30
0.0
 10
2065.8571
 20
-1384.129500000001
 30
0.0
 10
2073.1582
 20
-1379.4923
 30
0.0
 10
2080.7366
 20
-1375.667600000001
 30
0.0
 10
2088.2672
 20
-1371.8631
 30
0.0
 10
2096.1476
 20
-1369.143099999999
 30
0.0
 10
2103.1691
 20
-1367.094300000001
 30
0.0
 10
2096.712600000001
 20
-1374.8873
 30
0.0
 10
2094.0838
 20
-1384.193799999999
 30
0.0
 10
2095.3463
 20
-1394.8712
 30
0.0
 10
2096.1446
 20
-1401.6319
 30
0.0
 10
2098.688200000001
 20
-1407.9112
 30
0.0
 10
2102.6302
 20
-1413.151599999999
 30
0.0
 10
2097.988499999999
 20
-1411.780000000001
 30
0.0
 10
2093.4111
 20
-1410.111000000001
 30
0.0
 10
2088.9391
 20
-1408.1571
 30
0.0
  0
SPLINE
  5
44
330
1F
100
AcDbEntity
  8
Layer 1
370
     0
100
AcDbSpline
210
0.0
220
0.0
230
1.0
 70
    11
 71
     3
 72
    26
 73
    22
 74
     0
 42
0.0000000001
 43
0.0000000001
 12
1.0
 22
0.0
 32
0.0
 13
1.0
 23
0.0
 33
0.0
 40
0.0
 40
0.0
 40
0.0
 40
0.0
 40
1.0
 40
1.0
 40
1.0
 40
2.0
 40
2.0
 40
2.0
 40
3.0
 40
3.0
 40
3.0
 40
4.0
 40
4.0
 40
4.0
 40
5.0
 40
5.0
 40
5.0
 40
6.0
 40
6.0
 40
6.0
 40
7.0
 40
7.0
 40
7.0
 40
7.0
 10
2132.846
 20
-1363.6037
 30
0.0
 10
2132.8572
 20
-1363.6037
 30
0.0
 10
2132.8699
 20
-1363.6037
 30
0.0
 10
2132.881100000001
 20
-1363.603000000001
 30
0.0
 10
2140.3003
 20
-1363.4625
 30
0.0
 10
2147.6186
 20
-1366.3454
 30
0.0
 10
2152.971100000001
 20
-1371.5178
 30
0.0
 10
2157.9611
 20
-1376.3411
 30
0.0
 10
2160.7603
 20
-1382.5928
 30
0.0
 10
2160.8507
 20
-1389.121799999999
 30
0.0
 10
2160.9592
 20
-1396.8848
 30
0.0
 10
2158.1502
 20
-1404.099200000001
 30
0.0
 10
2152.940500000001
 20
-1409.434499999999
 30
0.0
 10
2147.8922
 20
-1414.600899999999
 30
0.0
 10
2141.115
 20
-1417.401599999999
 30
0.0
 10
2133.6951
 20
-1417.5586
 30
0.0
 10
2118.6466
 20
-1417.705099999999
 30
0.0
 10
2106.1881
 20
-1405.7608
 30
0.0
 10
2105.9235
 20
-1390.929099999999
 30
0.0
 10
2105.6619
 20
-1376.170700000001
 30
0.0
 10
2117.738499999999
 20
-1363.9102
 30
0.0
 10
2132.846
 20
-1363.6037
 30
0.0
  0
POLYLINE
  5
45
330
1F
100
AcDbEntity
  8
Layer 1
370
     0
100
AcDb2dPolyline
 66
     1
 10
0.0
 20
0.0
 30
0.0
  0
VERTEX
  5
46
330
45
100
AcDbEntity
  8
Layer 1
370
     0
100
AcDbVertex
100
AcDb2dVertex
 10
2134.377500000001
 20
-1467.5885
 30
0.0
  0
VERTEX
  5
47
330
45
100
AcDbEntity
  8
Layer 1
370
     0
100
AcDbVertex
100
AcDb2dVertex
 10
2134.377500000001
 20
-1467.587
 30
0.0
  0
VERTEX
  5
48
330
45
100
AcDbEntity
  8
Layer 1
370
     0
100
AcDbVertex
100
AcDb2dVertex
 10
2134.377500000001
 20
-1467.587
 30
0.0
  0
VERTEX
  5
49
330
45
100
AcDbEntity
  8
Layer 1
370
     0
100
AcDbVertex
100
AcDb2dVertex
 10
2134.377500000001
 20
-1467.5885
 30
0.0
  0
SEQEND
  5
4A
330
45
100
AcDbEntity
  8
Layer 1
370
     0
  0
HATCH
  5
4B
330
1F
100
AcDbEntity
  8
Layer 1
 62
    35
420
 10579544
100
AcDbHatch
 10
0.0
 20
0.0
 30
0.0
210
0.0
220
0.0
230
1.0
  2
SOLID
 70
     1
 71
     0
 91
        4
 92
        1
 93
        1
 72
     4
 94
        3
 73
     0
 74
     1
 95
      362
 96
      358
 40
0.0
 40
0.0
 40
0.0
 40
0.0
 40
1.0
 40
1.0
 40
1.0
 40
2.0
 40
2.0
 40
2.0
 40
3.0
 40
3.0
 40
3.0
 40
4.0
 40
4.0
 40
4.0
 40
5.0
 40
5.0
 40
5.0
 40
6.0
 40
6.0
 40
6.0
 40
7.0
 40
7.0
 40
7.0
 40
8.0
 40
8.0
 40
8.0
 40
9.0
 40
9.0
 40
9.0
 40
10.0
 40
10.0
 40
10.0
 40
11.0
 40
11.0
 40
11.0
 40
12.0
 40
12.0
 40
12.0
 40
13.0
 40
13.0
 40
13.0
 40
14.0
 40
14.0
 40
14.0
 40
15.0
 40
15.0
 40
15.0
 40
16.0
 40
16.0
 40
16.0
 40
17.0
 40
17.0
 40
17.0
 40
18.0
 40
18.0
 40
18.0
 40
19.0
 40
19.0
 40
19.0
 40
20.0
 40
20.0
 40
20.0
 40
21.0
 40
21.0
 40
21.0
 40
22.0
 40
22.0
 40
22.0
 40
23.0
 40
23.0
 40
23.0
 40
24.0
 40
24.0
 40
24.0
 40
25.0
 40
25.0
 40
25.0
 40
26.0
 40
26.0
 40
26.0
 40
27.0
 40
27.0
 40
27.0
 40
28.0
 40
28.0
 40
28.0
 40
29.0
 40
29.0
 40
29.0
 40
30.0
 40
30.0
 40
30.0
 40
31.0
 40
31.0
 40
31.0
 40
32.0
 40
32.0
 40
32.0
 40
33.0
 40
33.0
 40
33.0
 40
34.0
 40
34.0
 40
34.0
 40
35.0
 40
35.0
 40
35.0
 40
36.0
 40
36.0
 40
36.0
 40
37.0
 40
37.0
 40
37.0
 40
38.0
 40
38.0
 40
38.0
 40
39.0
 40
39.0
 40
39.0
 40
40.0
 40
40.0
 40
40.0
 40
41.0
 40
41.0
 40
41.0
 40
42.0
 40
42.0
 40
42.0
 40
43.0
 40
43.0
 40
43.0
 40
44.0
 40
44.0
 40
44.0
 40
45.0
 40
45.0
 40
45.0
 40
46.0
 40
46.0
 40
46.0
 40
47.0
 40
47.0
 40
47.0
 40
48.0
 40
48.0
 40
48.0
 40
49.0
 40
49.0
 40
49.0
 40
50.0
 40
50.0
 40
50.0
 40
51.0
 40
51.0
 40
51.0
 40
52.0
 40
52.0
 40
52.0
 40
53.0
 40
53.0
 40
53.0
 40
54.0
 40
54.0
 40
54.0
 40
55.0
 40
55.0
 40
55.0
 40
56.0
 40
56.0
 40
56.0
 40
57.0
 40
57.0
 40
57.0
 40
58.0
 40
58.0
 40
58.0
 40
59.0
 40
59.0
 40
59.0
 40
60.0
 40
60.0
 40
60.0
 40
61.0
 40
61.0
 40
61.0
 40
62.0
 40
62.0
 40
62.0
 40
63.0
 40
63.0
 40
63.0
 40
64.0
 40
64.0
 40
64.0
 40
65.0
 40
65.0
 40
65.0
 40
66.0
 40
66.0
 40
66.0
 40
67.0
 40
67.0
 40
67.0
 40
68.0
 40
68.0
 40
68.0
 40
69.0
 40
69.0
 40
69.0
 40
70.0
 40
70.0
 40
70.0
 40
71.0
 40
71.0
 40
71.0
 40
72.0
 40
72.0
 40
72.0
 40
73.0
 40
73.0
 40
73.0
 40
74.0
 40
74.0
 40
74.0
 40
75.0
 40
75.0
 40
75.0
 40
76.0
 40
76.0
 40
76.0
 40
77.0
 40
77.0
 40
77.0
 40
78.0
 40
78.0
 40
78.0
 40
79.0
 40
79.0
 40
79.0
 40
80.0
 40
80.0
 40
80.0
 40
81.0
 40
81.0
 40
81.0
 40
82.0
 40
82.0
 40
82.0
 40
83.0
 40
83.0
 40
83.0
 40
84.0
 40
84.0
 40
84.0
 40
85.0
 40
85.0
 40
85.0
 40
86.0
 40
86.0
 40
86.0
 40
87.0
 40
87.0
 40
87.0
 40
88.0
 40
88.0
 40
88.0
 40
89.0
 40
89.0
 40
89.0
 40
90.0
 40
90.0
 40
90.0
 40
91.0
 40
91.0
 40
91.0
 40
92.0
 40
92.0
 40
92.0
 40
93.0
 40
93.0
 40
93.0
 40
94.0
 40
94.0
 40
94.0
 40
95.0
 40
95.0
 40
95.0
 40
96.0
 40
96.0
 40
96.0
 40
97.0
 40
97.0
 40
97.0
 40
98.0
 40
98.0
 40
98.0
 40
99.0
 40
99.0
 40
99.0
 40
100.0
 40
100.0
 40
100.0
 40
101.0
 40
101.0
 40
101.0
 40
102.0
 40
102.0
 40
102.0
 40
103.0
 40
103.0
 40
103.0
 40
104.0
 40
104.0
 40
104.0
 40
105.0
 40
105.0
 40
105.0
 40
106.0
 40
106.0
 40
106.0
 40
107.0
 40
107.0
 40
107.0
 40
108.0
 40
108.0
 40
108.0
 40
109.0
 40
109.0
 40
109.0
 40
110.0
 40
110.0
 40
110.0
 40
111.0
 40
111.0
 40
111.0
 40
112.0
 40
112.0
 40
112.0
 40
113.0
 40
113.0
 40
113.0
 40
114.0
 40
114.0
 40
114.0
 40
115.0
 40
115.0
 40
115.0
 40
116.0
 40
116.0
 40
116.0
 40
117.0
 40
117.0
 40
117.0
 40
118.0
 40
118.0
 40
118.0
 40
119.0
 40
119.0
 40
119.0
 40
119.0
 10
2070.4337
 20
-1346.0977
 10
2068.233200000001
 20
-1342.468800000001
 10
2065.1791
 20
-1342.882900000001
 10
2063.972
 20
-1343.233399999999
 10
2063.972
 20
-1343.233399999999
 10
2063.6498
 20
-1343.344800000001
 10
2063.6498
 20
-1343.344800000001
 10
2062.2245
 20
-1343.9226
 10
2061.1384
 20
-1345.0116
 10
2060.5958
 20
-1346.4094
 10
2060.0621
 20
-1347.7809
 10
2060.1032
 20
-1349.297500000001
 10
2060.7094
 20
-1350.5674
 10
2060.7094
 20
-1350.5674
 10
2071.392
 20
-1368.4913
 10
2071.392
 20
-1368.4913
 10
2066.760700000001
 20
-1371.036399999999
 10
2062.2125
 20
-1373.8565
 10
2057.7585
 20
-1376.974200000001
 10
2057.7585
 20
-1376.974200000001
 10
2041.4326
 20
-1364.6801
 10
2041.4326
 20
-1364.6801
 10
2038.8225
 20
-1362.9064
 10
2035.8342
 20
-1363.253200000001
 10
2033.991
 20
-1365.5404
 10
2033.032
 20
-1366.725899999999
 10
2032.6014
 20
-1368.1497
 10
2032.774100000001
 20
-1369.546
 10
2032.958000000001
 20
-1371.022199999999
 10
2033.8048
 20
-1372.396000000001
 10
2035.1585
 20
-1373.4103
 10
2039.928
 20
-1376.9936
 10
2044.1922
 20
-1380.1351
 10
2048.928
 20
-1383.604799999999
 10
2048.928
 20
-1383.604799999999
 10
2047.7172
 20
-1384.601199999999
 10
2047.7172
 20
-1384.601199999999
 10
2046.806
 20
-1385.3598
 10
2044.385
 20
-1387.3652
 10
2044.9658
 20
-1390.710800000001
 10
2045.2319
 20
-1392.238600000001
 10
2046.1438
 20
-1393.274600000001
 10
2046.633400000001
 20
-1393.831400000001
 10
2047.1536
 20
-1394.4197
 10
2047.7598
 20
-1394.9429
 10
2048.368899999999
 20
-1395.445900000001
 10
2050.372100000001
 20
-1397.097100000001
 10
2052.3835
 20
-1398.6338
 10
2054.3971
 20
-1400.1571
 10
2054.3971
 20
-1400.1571
 10
2040.8974
 20
-1412.6613
 10
2040.8974
 20
-1412.6613
 10
2040.1193
 20
-1413.3923
 10
2038.6722
 20
-1414.7459
 10
2038.4383
 20
-1416.989799999999
 10
2038.3785
 20
-1419.1895
 10
2039.2754
 20
-1420.8773
 10
2040.8825
 20
-1421.8968
 10
2041.8079
 20
-1422.4835
 10
2042.8221
 20
-1422.7631
 10
2043.8282
 20
-1422.7436
 10
2045.0383
 20
-1422.7212
 10
2046.2417
 20
-1422.265300000001
 10
2047.2844
 20
-1421.393
 10
2047.2844
 20
-1421.393
 10
2062.836600000001
 20
-1406.170400000001
 10
2062.836600000001
 20
-1406.170400000001
 10
2068.106900000001
 20
-1409.664699999999
 10
2073.4235
 20
-1412.7495
 10
2078.808199999999
 20
-1415.4059
 10
2078.808199999999
 20
-1415.4059
 10
2077.348400000001
 20
-1417.5257
 10
2077.348400000001
 20
-1417.5257
 10
2074.6665
 20
-1421.4259
 10
2071.9825
 20
-1425.3231
 10
2069.3148
 20
-1429.2323
 10
2068.7639
 20
-1430.041800000001
 10
2067.4671
 20
-1431.9365
 10
2067.9492
 20
-1434.2245
 10
2068.1488
 20
-1435.174499999999
 10
2068.7407
 20
-1436.5311
 10
2070.422500000001
 20
-1437.5746
 10
2071.274600000001
 20
-1438.1023
 10
2072.2904
 20
-1438.436400000001
 10
2073.3622
 20
-1438.4192
 10
2074.963299999999
 20
-1438.3886
 10
2076.6862
 20
-1437.5671
 10
2078.1721
 20
-1435.4107
 10
2078.1721
 20
-1435.4107
 10
2088.7388
 20
-1419.773999999999
 10
2088.7388
 20
-1419.773999999999
 10
2093.5898
 20
-1421.683800000001
 10
2098.4953
 20
-1423.315399999999
 10
2103.486
 20
-1424.5906
 10
2101.627899999999
 20
-1429.715899999999
 10
2099.7742
 20
-1434.8449
 10
2097.9714
 20
-1439.990299999999
 10
2096.571400000001
 20
-1443.9997
 10
2098.6687
 20
-1446.4125
 10
2100.8916
 20
-1447.2608
 10
2101.681
 20
-1447.5643
 10
2102.3993
 20
-1447.6682
 10
2103.0286
 20
-1447.656199999999
 10
2103.8217
 20
-1447.641299999999
 10
2104.4764
 20
-1447.4409
 10
2104.9638
 20
-1447.2219
 10
2107.0626
 20
-1446.268900000001
 10
2107.8422
 20
-1444.167100000001
 10
2108.0978
 20
-1443.475
 10
2110.0337
 20
-1438.2376
 10
2111.9323
 20
-1432.9905
 10
2113.795
 20
-1427.731400000001
 10
2113.9137
 20
-1427.396500000001
 10
2114.0094
 20
-1427.1446
 10
2114.1193
 20
-1426.809800000001
 10
2118.6205
 20
-1427.5707
 10
2122.6799
 20
-1428.061799999999
 10
2126.612999999999
 20
-1428.3024
 10
2126.612999999999
 20
-1428.3024
 10
2127.261
 20
-1428.3413
 10
2127.261
 20
-1428.3413
 10
2127.776
 20
-1428.3727
 10
2128.303
 20
-1428.3951
 10
2128.8217
 20
-1428.425799999999
 10
2128.8217
 20
-1428.425799999999
 10
2128.918799999999
 20
-1464.186100000001
 10
2128.918799999999
 20
-1464.186100000001
 10
2128.933
 20
-1469.9378
 10
2132.3265
 20
-1470.8272
 10
2134.3483
 20
-1470.8459
 10
2134.3483
 20
-1470.8459
 10
2134.3499
 20
-1470.8459
 10
2134.3499
 20
-1470.8459
 10
2134.4141
 20
-1470.8452
 10
2134.4754
 20
-1470.843699999999
 10
2134.535900000001
 20
-1470.8429
 10
2136.3822
 20
-1470.8078
 10
2137.5459
 20
-1470.0252
 10
2138.204400000001
 20
-1469.360699999999
 10
2139.865299999999
 20
-1467.681200000001
 10
2139.822700000001
 20
-1465.3753
 10
2139.800999999999
 20
-1464.1353
 10
2139.800999999999
 20
-1464.1353
 10
2139.663500000001
 20
-1428.6149
 10
2139.663500000001
 20
-1428.6149
 10
2140.621
 20
-1428.5723
 10
2141.5807
 20
-1428.5461
 10
2142.5329
 20
-1428.4519
 10
2145.456200000001
 20
-1428.282300000001
 10
2148.276400000001
 20
-1428.004199999999
 10
2151.1668
 20
-1427.6507
 10
2151.4097
 20
-1428.1268
 10
2151.5599
 20
-1428.4624
 10
2151.7774
 20
-1428.8526
 10
2151.7774
 20
-1428.8526
 10
2160.8022
 20
-1445.1104
 10
2160.8022
 20
-1445.1104
 10
2161.5339
 20
-1446.3848
 10
2162.605
 20
-1448.2572
 10
2164.8235
 20
-1448.829
 10
2165.18
 20
-1448.920899999999
 10
2165.6143
 20
-1448.9889
 10
2166.1098
 20
-1448.9799
 10
2166.9111
 20
-1448.9643
 10
2167.8693
 20
-1448.749
 10
2168.915
 20
-1448.115100000001
 10
2170.575800000001
 20
-1447.1106
 10
2172.966899999999
 20
-1444.710499999999
 10
2170.2799
 20
-1439.920099999999
 10
2168.0906
 20
-1436.016900000001
 10
2165.890100000001
 20
-1432.1242
 10
2163.6896
 20
-1428.227699999999
 10
2163.6896
 20
-1428.227699999999
 10
2162.3172
 20
-1425.797
 10
2162.3172
 20
-1425.797
 10
2167.2347
 20
-1424.778200000001
 10
2172.0887
 20
-1423.4866
 10
2176.873900000001
 20
-1421.9252
 10
2176.873900000001
 20
-1421.9252
 10
2188.9557
 20
-1435.605
 10
2188.9557
 20
-1435.605
 10
2190.8079
 20
-1437.659799999999
 10
2192.649600000001
 20
-1438.4072
 10
2194.2521
 20
-1438.3766
 10
2195.4877
 20
-1438.3534
 10
2196.580400000001
 20
-1437.8676
 10
2197.4258
 20
-1437.1553
 10
2198.248
 20
-1436.362999999999
 10
2201.2154
 20
-1433.011399999999
 10
2197.0319
 20
-1428.369699999999
 10
2197.0319
 20
-1428.369699999999
 10
2187.642400000001
 20
-1417.936799999999
 10
2187.642400000001
 20
-1417.936799999999
 10
2192.115900000001
 20
-1416.0502
 10
2196.5229
 20
-1413.9357
 10
2200.8409
 20
-1411.558800000001
 10
2202.4038
 20
-1410.6999
 10
2203.8748
 20
-1409.8269
 10
2205.3637
 20
-1408.956899999999
 10
2207.4208
 20
-1410.9728
 10
2209.515100000001
 20
-1412.951300000001
 10
2211.6162
 20
-1414.920099999999
 10
2211.6162
 20
-1414.920099999999
 10
2212.111699999999
 20
-1415.3842
 10
2212.111699999999
 20
-1415.3842
 10
2213.5095
 20
-1416.693799999999
 10
2214.922200000001
 20
-1417.983899999999
 10
2216.3804
 20
-1419.2127
 10
2217.523300000001
 20
-1420.1769
 10
2218.7999
 20
-1420.3084
 10
2219.2791
 20
-1420.360000000001
 10
2219.507100000001
 20
-1420.384700000001
 10
2219.732
 20
-1420.3959
 10
2219.9548
 20
-1420.3922
 10
2221.997499999999
 20
-1420.353300000001
 10
2223.813099999999
 20
-1419.1417
 10
2224.6024
 20
-1417.2274
 10
2225.5218
 20
-1414.989600000001
 10
2224.956
 20
-1412.664999999999
 10
2223.0514
 20
-1410.8472
 10
2223.0514
 20
-1410.8472
 10
2214.818299999999
 20
-1403.0386
 10
2214.818299999999
 20
-1403.0386
 10
2218.4584
 20
-1400.579400000001
 10
2221.8989
 20
-1398.059800000001
 10
2225.124900000001
 20
-1395.433199999999
 10
2225.124900000001
 20
-1395.433199999999
 10
2225.840899999999
 20
-1394.8786
 10
2225.840899999999
 20
-1394.8786
 10
2227.530200000001
 20
-1393.5422
 10
2228.484700000001
 20
-1391.9591
 10
2228.6641
 20
-1390.186900000001
 10
2228.8524
 20
-1388.3668
 10
2228.237999999999
 20
-1386.685799999999
 10
2226.8896
 20
-1385.331400000001
 10
2226.440399999999
 20
-1384.878500000001
 10
2225.929899999999
 20
-1384.480799999999
 10
2225.412
 20
-1384.0929
 10
2225.412
 20
-1384.0929
 10
2225.1234
 20
-1383.876099999999
 10
2225.1234
 20
-1383.876099999999
 10
2224.4126
 20
-1383.332
 10
2223.692800000001
 20
-1382.857400000001
 10
2222.9812
 20
-1382.3274
 10
2225.3297
 20
-1379.8668
 10
2227.634099999999
 20
-1377.4226
 10
2229.932499999999
 20
-1374.9792
 10
2229.932499999999
 20
-1374.9792
 10
2233.2878
 20
-1371.419100000001
 10
2233.2878
 20
-1371.419100000001
 10
2235.951000000001
 20
-1368.6109
 10
2235.241
 20
-1365.980600000001
 10
2234.579400000001
 20
-1364.660599999999
 10
2233.7034
 20
-1362.9049
 10
2232.0164
 20
-1361.874900000001
 10
2229.9534
 20
-1361.8405
 10
2227.474900000001
 20
-1361.836799999999
 10
2226.0129
 20
-1363.3436
 10
2225.228800000001
 20
-1364.1733
 10
2225.228800000001
 20
-1364.1733
 10
2223.125400000001
 20
-1366.405199999999
 10
2223.125400000001
 20
-1366.405199999999
 10
2220.3442
 20
-1369.3524
 10
2217.564399999999
 20
-1372.300300000001
 10
2214.7973
 20
-1375.257299999999
 10
2214.5933
 20
-1375.4763
 10
2214.330900000001
 20
-1375.764000000001
 10
2214.0574
 20
-1376.1026
 10
2208.6966
 20
-1372.596299999999
 10
2203.2739
 20
-1369.458500000001
 10
2197.770399999999
 20
-1366.7184
 10
2197.770399999999
 20
-1366.7184
 10
2197.834699999999
 20
-1366.5928
 10
2197.834699999999
 20
-1366.5928
 10
2200.3873
 20
-1361.6394
 10
2202.9413
 20
-1356.6793
 10
2205.3809
 20
-1351.6639
 10
2206.4281
 20
-1349.5128
 10
2206.3579
 20
-1347.2233
 10
2205.191800000001
 20
-1345.543799999999
 10
2204.1484
 20
-1344.0399
 10
2202.3956
 20
-1343.226699999999
 10
2200.4627
 20
-1343.439
 10
2198.3549
 20
-1343.767900000001
 10
2196.8675
 20
-1344.9257
 10
2195.8457
 20
-1346.910900000001
 10
2195.8457
 20
-1346.910900000001
 10
2193.7857
 20
-1350.9015
 10
2193.7857
 20
-1350.9015
 10
2191.8296
 20
-1354.688899999999
 10
2189.874299999999
 20
-1358.477699999999
 10
2187.9272
 20
-1362.273999999999
 10
2180.2486
 20
-1359.128000000001
 10
2172.4093
 20
-1356.6405
 10
2164.346600000001
 20
-1354.880999999999
 10
2167.0501
 20
-1347.9095
 10
2169.735000000001
 20
-1340.9275
 10
2172.3742
 20
-1333.9329
 10
2173.0978
 20
-1332.010399999999
 10
2172.9924
 20
-1330.141799999999
 10
2172.0813
 20
-1328.6641
 10
2171.2441
 20
-1327.308999999999
 10
2169.8284
 20
-1326.4614
 10
2168.0928
 20
-1326.2775
 10
2166.8909
 20
-1326.1355
 10
2163.8854
 20
-1326.2588
 10
2162.3561
 20
-1330.156800000001
 10
2159.5711
 20
-1337.2718
 10
2156.7973
 20
-1344.3927
 10
2154.065399999999
 20
-1351.528700000001
 10
2153.8815
 20
-1352.0093
 10
2153.7298
 20
-1352.4854
 10
2153.560100000001
 20
-1352.9324
 10
2148.7928
 20
-1352.258900000001
 10
2144.4487
 20
-1351.8815
 10
2140.1067
 20
-1351.7387
 10
2140.1067
 20
-1351.7387
 10
2140.3504
 20
-1309.5383
 10
2140.3504
 20
-1309.5383
 10
2140.3504
 20
-1309.5383
 10
2140.3071
 20
-1309.2745
 10
2140.3071
 20
-1309.2745
 10
2139.8698
 20
-1306.5283
 10
2137.8606
 20
-1304.6799
 10
2135.190000000001
 20
-1304.5715
 10
2132.396000000001
 20
-1304.4272
 10
2130.2209
 20
-1306.257
 10
2129.697700000001
 20
-1309.0278
 10
2129.697700000001
 20
-1309.0278
 10
2129.642400000001
 20
-1309.5981
 10
2129.642400000001
 20
-1309.5981
 10
2129.642400000001
 20
-1309.5981
 10
2129.229
 20
-1351.9031
 10
2129.229
 20
-1351.9031
 10
2122.7262
 20
-1352.2544
 10
2116.3729
 20
-1353.040800000001
 10
2110.094300000001
 20
-1354.290500000001
 10
2110.094300000001
 20
-1354.290500000001
 10
2100.683800000001
 20
-1332.3274
 10
2100.683800000001
 20
-1332.3274
 10
2100.008900000001
 20
-1330.801100000001
 10
2098.8773
 20
-1329.6836
 10
2097.4967
 20
-1329.1754
 10
2096.556399999999
 20
-1328.826999999999
 10
2095.0585
 20
-1328.5983
 10
2093.2699
 20
-1329.4624
 10
2090.585800000001
 20
-1330.7637
 10
2089.579
 20
-1333.6967
 10
2090.8145
 20
-1336.596799999999
 10
2093.7041
 20
-1343.353000000001
 10
2096.6461
 20
-1350.087600000001
 10
2099.5941
 20
-1356.8199
 10
2093.2639
 20
-1358.625700000001
 10
2087.0683
 20
-1360.9301
 10
2081.0019
 20
-1363.6792
 10
2081.0019
 20
-1363.6792
 10
2070.4337
 20
-1346.0977
 10
2070.4337
 20
-1346.0977
 97
        0
 97
        0
 92
        1
 93
        1
 72
     4
 94
        3
 73
     0
 74
     1
 95
       26
 96
       22
 40
0.0
 40
0.0
 40
0.0
 40
0.0
 40
1.0
 40
1.0
 40
1.0
 40
2.0
 40
2.0
 40
2.0
 40
3.0
 40
3.0
 40
3.0
 40
4.0
 40
4.0
 40
4.0
 40
5.0
 40
5.0
 40
5.0
 40
6.0
 40
6.0
 40
6.0
 40
7.0
 40
7.0
 40
7.0
 40
7.0
 10
2207.5433
 20
-1394.7934
 10
2207.5433
 20
-1394.7934
 10
2207.5448
 20
-1394.7934
 10
2207.5448
 20
-1394.7934
 10
2192.8634
 20
-1404.479600000001
 10
2178.203600000001
 20
-1410.9997
 10
2163.031800000001
 20
-1414.561299999999
 10
2163.8652
 20
-1413.5589
 10
2164.6373
 20
-1412.52
 10
2165.3392
 20
-1411.4444
 10
2175.2773
 20
-1396.237499999999
 10
2173.5828
 20
-1378.038500000001
 10
2161.9203
 20
-1365.364
 10
2163.844300000001
 20
-1365.7788
 10
2165.683800000001
 20
-1366.221299999999
 10
2167.4485
 20
-1366.6967
 10
2184.1907
 20
-1371.188099999999
 10
2199.7616
 20
-1378.7053
 10
2214.922200000001
 20
-1389.627
 10
2212.400300000001
 20
-1391.491899999999
 10
2209.962100000001
 20
-1393.195400000001
 10
2207.5433
 20
-1394.7934
 97
        0
 97
        0
 92
        1
 93
        1
 72
     4
 94
        3
 73
     0
 74
     1
 95
       23
 96
       19
 40
0.0
 40
0.0
 40
0.0
 40
0.0
 40
1.0
 40
1.0
 40
1.0
 40
2.0
 40
2.0
 40
2.0
 40
3.0
 40
3.0
 40
3.0
 40
4.0
 40
4.0
 40
4.0
 40
5.0
 40
5.0
 40
5.0
 40
6.0
 40
6.0
 40
6.0
 40
6.0
 10
2088.9391
 20
-1408.1571
 10
2078.033100000001
 20
-1403.3891
 10
2067.815399999999
 20
-1397.2204
 10
2058.5126
 20
-1389.788500000001
 10
2065.8571
 20
-1384.129500000001
 10
2073.1582
 20
-1379.4923
 10
2080.7366
 20
-1375.667600000001
 10
2088.2672
 20
-1371.8631
 10
2096.1476
 20
-1369.143099999999
 10
2103.1691
 20
-1367.094300000001
 10
2096.712600000001
 20
-1374.8873
 10
2094.0838
 20
-1384.193799999999
 10
2095.3463
 20
-1394.8712
 10
2096.1446
 20
-1401.6319
 10
2098.688200000001
 20
-1407.9112
 10
2102.6302
 20
-1413.151599999999
 10
2097.988499999999
 20
-1411.780000000001
 10
2093.4111
 20
-1410.111000000001
 10
2088.9391
 20
-1408.1571
 97
        0
 97
        0
 92
        1
 93
        1
 72
     4
 94
        3
 73
     0
 74
     1
 95
       26
 96
       22
 40
0.0
 40
0.0
 40
0.0
 40
0.0
 40
1.0
 40
1.0
 40
1.0
 40
2.0
 40
2.0
 40
2.0
 40
3.0
 40
3.0
 40
3.0
 40
4.0
 40
4.0
 40
4.0
 40
5.0
 40
5.0
 40
5.0
 40
6.0
 40
6.0
 40
6.0
 40
7.0
 40
7.0
 40
7.0
 40
7.0
 10
2132.846
 20
-1363.6037
 10
2132.8572
 20
-1363.6037
 10
2132.8699
 20
-1363.6037
 10
2132.881100000001
 20
-1363.603000000001
 10
2140.3003
 20
-1363.4625
 10
2147.6186
 20
-1366.3454
 10
2152.971100000001
 20
-1371.5178
 10
2157.9611
 20
-1376.3411
 10
2160.7603
 20
-1382.5928
 10
2160.8507
 20
-1389.121799999999
 10
2160.9592
 20
-1396.8848
 10
2158.1502
 20
-1404.099200000001
 10
2152.940500000001
 20
-1409.434499999999
 10
2147.8922
 20
-1414.600899999999
 10
2141.115
 20
-1417.401599999999
 10
2133.6951
 20
-1417.5586
 10
2118.6466
 20
-1417.705099999999
 10
2106.1881
 20
-1405.7608
 10
2105.9235
 20
-1390.929099999999
 10
2105.6619
 20
-1376.170700000001
 10
2117.738499999999
 20
-1363.9102
 10
2132.846
 20
-1363.6037
 97
        0
 97
        0
 75
     2
 76
     1
 98
        0
  0
SPLINE
  5
4C
330
1F
100
AcDbEntity
  8
Layer 1
370
     0
100
AcDbSpline
210
0.0
220
0.0
230
1.0
 70
    11
 71
     3
 72
    17
 73
    13
 74
     0
 42
0.0000000001
 43
0.0000000001
 12
1.0
 22
0.0
 32
0.0
 13
1.0
 23
0.0
 33
0.0
 40
0.0
 40
0.0
 40
0.0
 40
0.0
 40
1.0
 40
1.0
 40
1.0
 40
2.0
 40
2.0
 40
2.0
 40
3.0
 40
3.0
 40
3.0
 40
4.0
 40
4.0
 40
4.0
 40
4.0
 10
2117.2294
 20
-1390.2788
 30
0.0
 10
2117.3969
 20
-1399.093500000001
 30
0.0
 10
2124.7078
 20
-1406.1315
 30
0.0
 10
2133.5239
 20
-1405.963299999999
 30
0.0
 10
2142.3408
 20
-1405.795899999999
 30
0.0
 10
2149.3781
 20
-1398.4858
 30
0.0
 10
2149.2107
 20
-1389.670400000001
 30
0.0
 10
2149.0432
 20
-1380.8557
 30
0.0
 10
2141.732400000001
 20
-1373.8184
 30
0.0
 10
2132.9162
 20
-1373.9859
 30
0.0
 10
2124.1
 20
-1374.1533
 30
0.0
 10
2117.062
 20
-1381.464099999999
 30
0.0
 10
2117.2294
 20
-1390.2788
 30
0.0
  0
SPLINE
  5
4D
330
1F
100
AcDbEntity
  8
Layer 1
370
     0
100
AcDbSpline
210
0.0
220
0.0
230
1.0
 70
    11
 71
     3
 72
    17
 73
    13
 74
     0
 42
0.0000000001
 43
0.0000000001
 12
1.0
 22
0.0
 32
0.0
 13
1.0
 23
0.0
 33
0.0
 40
0.0
 40
0.0
 40
0.0
 40
0.0
 40
1.0
 40
1.0
 40
1.0
 40
2.0
 40
2.0
 40
2.0
 40
3.0
 40
3.0
 40
3.0
 40
4.0
 40
4.0
 40
4.0
 40
4.0
 10
2138.8248
 20
-1389.8685
 30
0.0
 10
2138.883900000001
 20
-1392.959199999999
 30
0.0
 10
2136.4173
 20
-1395.522199999999
 30
0.0
 10
2133.3266
 20
-1395.581200000001
 30
0.0
 10
2130.2359
 20
-1395.639499999999
 30
0.0
 10
2127.674300000001
 20
-1393.172199999999
 30
0.0
 10
2127.615299999999
 20
-1390.0815
 30
0.0
 10
2127.557000000001
 20
-1386.99
 30
0.0
 10
2130.022800000001
 20
-1384.43
 30
0.0
 10
2133.113499999999
 20
-1384.3717
 30
0.0
 10
2136.204299999999
 20
-1384.312599999999
 30
0.0
 10
2138.7658
 20
-1386.777
 30
0.0
 10
2138.8248
 20
-1389.8685
 30
0.0
  0
HATCH
  5
4E
330
1F
100
AcDbEntity
  8
Layer 1
 62
    35
420
 10579544
100
AcDbHatch
 10
0.0
 20
0.0
 30
0.0
210
0.0
220
0.0
230
1.0
  2
SOLID
 70
     1
 71
     0
 91
        2
 92
        1
 93
        1
 72
     4
 94
        3
 73
     0
 74
     1
 95
       17
 96
       13
 40
0.0
 40
0.0
 40
0.0
 40
0.0
 40
1.0
 40
1.0
 40
1.0
 40
2.0
 40
2.0
 40
2.0
 40
3.0
 40
3.0
 40
3.0
 40
4.0
 40
4.0
 40
4.0
 40
4.0
 10
2117.2294
 20
-1390.2788
 10
2117.3969
 20
-1399.093500000001
 10
2124.7078
 20
-1406.1315
 10
2133.5239
 20
-1405.963299999999
 10
2142.3408
 20
-1405.795899999999
 10
2149.3781
 20
-1398.4858
 10
2149.2107
 20
-1389.670400000001
 10
2149.0432
 20
-1380.8557
 10
2141.732400000001
 20
-1373.8184
 10
2132.9162
 20
-1373.9859
 10
2124.1
 20
-1374.1533
 10
2117.062
 20
-1381.464099999999
 10
2117.2294
 20
-1390.2788
 97
        0
 97
        0
 92
        1
 93
        1
 72
     4
 94
        3
 73
     0
 74
     1
 95
       17
 96
       13
 40
0.0
 40
0.0
 40
0.0
 40
0.0
 40
1.0
 40
1.0
 40
1.0
 40
2.0
 40
2.0
 40
2.0
 40
3.0
 40
3.0
 40
3.0
 40
4.0
 40
4.0
 40
4.0
 40
4.0
 10
2138.8248
 20
-1389.8685
 10
2138.883900000001
 20
-1392.959199999999
 10
2136.4173
 20
-1395.522199999999
 10
2133.3266
 20
-1395.581200000001
 10
2130.2359
 20
-1395.639499999999
 10
2127.674300000001
 20
-1393.172199999999
 10
2127.615299999999
 20
-1390.0815
 10
2127.557000000001
 20
-1386.99
 10
2130.022800000001
 20
-1384.43
 10
2133.113499999999
 20
-1384.3717
 10
2136.204299999999
 20
-1384.312599999999
 10
2138.7658
 20
-1386.777
 10
2138.8248
 20
-1389.8685
 97
        0
 97
        0
 75
     2
 76
     1
 98
        0
  0
SPLINE
  5
4F
330
1F
100
AcDbEntity
  8
Layer 1
370
     0
100
AcDbSpline
210
0.0
220
0.0
230
1.0
 70
    11
 71
     3
 72
    29
 73
    25
 74
     0
 42
0.0000000001
 43
0.0000000001
 12
1.0
 22
0.0
 32
0.0
 13
1.0
 23
0.0
 33
0.0
 40
0.0
 40
0.0
 40
0.0
 40
0.0
 40
1.0
 40
1.0
 40
1.0
 40
2.0
 40
2.0
 40
2.0
 40
3.0
 40
3.0
 40
3.0
 40
4.0
 40
4.0
 40
4.0
 40
5.0
 40
5.0
 40
5.0
 40
6.0
 40
6.0
 40
6.0
 40
7.0
 40
7.0
 40
7.0
 40
8.0
 40
8.0
 40
8.0
 40
8.0
 10
1798.9704
 20
-1540.471799999999
 30
0.0
 10
1798.9704
 20
-1540.471799999999
 30
0.0
 10
1887.8828
 20
-1506.0651
 30
0.0
 10
1887.8828
 20
-1506.0651
 30
0.0
 10
1891.2187
 20
-1504.9648
 30
0.0
 10
1894.4611
 20
-1506.386500000001
 30
0.0
 10
1895.8357
 20
-1509.507900000001
 30
0.0
 10
1897.1639
 20
-1512.5231
 30
0.0
 10
1895.9829
 20
-1515.8642
 30
0.0
 10
1892.7367
 20
-1517.7485
 30
0.0
 10
1892.7367
 20
-1517.7485
 30
0.0
 10
1802.7749
 20
-1552.880300000001
 30
0.0
 10
1802.7749
 20
-1552.880300000001
 30
0.0
 10
1802.6561
 20
-1552.9161
 30
0.0
 10
1802.538
 20
-1552.949000000001
 30
0.0
 10
1802.4206
 20
-1552.9782
 30
0.0
 10
1799.093
 20
-1553.810799999999
 30
0.0
 10
1795.8094
 20
-1552.108099999999
 30
0.0
 10
1794.6845
 20
-1548.907499999999
 30
0.0
 10
1794.6845
 20
-1548.907499999999
 30
0.0
 10
1794.6838
 20
-1548.9046
 30
0.0
 10
1794.6838
 20
-1548.9046
 30
0.0
 10
1793.4415
 20
-1545.366099999999
 30
0.0
 10
1795.1591
 20
-1541.9794
 30
0.0
 10
1798.9704
 20
-1540.471799999999
 30
0.0
  0
HATCH
  5
50
330
1F
100
AcDbEntity
  8
Layer 1
 62
    35
420
 10579544
100
AcDbHatch
 10
0.0
 20
0.0
 30
0.0
210
0.0
220
0.0
230
1.0
  2
SOLID
 70
     1
 71
     0
 91
        1
 92
        1
 93
        1
 72
     4
 94
        3
 73
     0
 74
     1
 95
       29
 96
       25
 40
0.0
 40
0.0
 40
0.0
 40
0.0
 40
1.0
 40
1.0
 40
1.0
 40
2.0
 40
2.0
 40
2.0
 40
3.0
 40
3.0
 40
3.0
 40
4.0
 40
4.0
 40
4.0
 40
5.0
 40
5.0
 40
5.0
 40
6.0
 40
6.0
 40
6.0
 40
7.0
 40
7.0
 40
7.0
 40
8.0
 40
8.0
 40
8.0
 40
8.0
 10
1798.9704
 20
-1540.471799999999
 10
1798.9704
 20
-1540.471799999999
 10
1887.8828
 20
-1506.0651
 10
1887.8828
 20
-1506.0651
 10
1891.2187
 20
-1504.9648
 10
1894.4611
 20
-1506.386500000001
 10
1895.8357
 20
-1509.507900000001
 10
1897.1639
 20
-1512.5231
 10
1895.9829
 20
-1515.8642
 10
1892.7367
 20
-1517.7485
 10
1892.7367
 20
-1517.7485
 10
1802.7749
 20
-1552.880300000001
 10
1802.7749
 20
-1552.880300000001
 10
1802.6561
 20
-1552.9161
 10
1802.538
 20
-1552.949000000001
 10
1802.4206
 20
-1552.9782
 10
1799.093
 20
-1553.810799999999
 10
1795.8094
 20
-1552.108099999999
 10
1794.6845
 20
-1548.907499999999
 10
1794.6845
 20
-1548.907499999999
 10
1794.6838
 20
-1548.9046
 10
1794.6838
 20
-1548.9046
 10
1793.4415
 20
-1545.366099999999
 10
1795.1591
 20
-1541.9794
 10
1798.9704
 20
-1540.471799999999
 97
        0
 97
        0
 75
     2
 76
     1
 98
        0
  0
SPLINE
  5
51
330
1F
100
AcDbEntity
  8
Layer 1
370
     0
100
AcDbSpline
210
0.0
220
0.0
230
1.0
 70
    11
 71
     3
 72
    32
 73
    28
 74
     0
 42
0.0000000001
 43
0.0000000001
 12
1.0
 22
0.0
 32
0.0
 13
1.0
 23
0.0
 33
0.0
 40
0.0
 40
0.0
 40
0.0
 40
0.0
 40
1.0
 40
1.0
 40
1.0
 40
2.0
 40
2.0
 40
2.0
 40
3.0
 40
3.0
 40
3.0
 40
4.0
 40
4.0
 40
4.0
 40
5.0
 40
5.0
 40
5.0
 40
6.0
 40
6.0
 40
6.0
 40
7.0
 40
7.0
 40
7.0
 40
8.0
 40
8.0
 40
8.0
 40
9.0
 40
9.0
 40
9.0
 40
9.0
 10
1965.6305
 20
-1260.8037
 30
0.0
 10
1965.5752
 20
-1260.8171
 30
0.0
 10
1965.5214
 20
-1260.8306
 30
0.0
 10
1965.4676
 20
-1260.8448
 30
0.0
 10
1965.4676
 20
-1260.8448
 30
0.0
 10
1965.4444
 20
-1260.85
 30
0.0
 10
1965.4444
 20
-1260.85
 30
0.0
 10
1961.8589
 20
-1261.602699999999
 30
0.0
 10
1959.612
 20
-1259.4897
 30
0.0
 10
1958.0543
 20
-1257.5612
 30
0.0
 10
1958.0543
 20
-1257.5612
 30
0.0
 10
1932.6163
 20
-1225.9463
 30
0.0
 10
1932.6163
 20
-1225.9463
 30
0.0
 10
1930.6886
 20
-1223.1366
 30
0.0
 10
1931.1872
 20
-1219.533100000001
 30
0.0
 10
1933.8055
 20
-1217.3767
 30
0.0
 10
1936.3595
 20
-1215.2756
 30
0.0
 10
1939.812
 20
-1215.4647
 30
0.0
 10
1942.561900000001
 20
-1218.0158
 30
0.0
 10
1942.561900000001
 20
-1218.0158
 30
0.0
 10
1969.0426
 20
-1250.7407
 30
0.0
 10
1969.0426
 20
-1250.7407
 30
0.0
 10
1970.4254
 20
-1252.6834
 30
0.0
 10
1970.7707
 20
-1254.9736
 30
0.0
 10
1969.9859
 20
-1257.022300000001
 30
0.0
 10
1969.2586
 20
-1258.9223
 30
0.0
 10
1967.6763
 20
-1260.2917
 30
0.0
 10
1965.6305
 20
-1260.8037
 30
0.0
  0
HATCH
  5
52
330
1F
100
AcDbEntity
  8
Layer 1
 62
    35
420
 10579544
100
AcDbHatch
 10
0.0
 20
0.0
 30
0.0
210
0.0
220
0.0
230
1.0
  2
SOLID
 70
     1
 71
     0
 91
        1
 92
        1
 93
        1
 72
     4
 94
        3
 73
     0
 74
     1
 95
       32
 96
       28
 40
0.0
 40
0.0
 40
0.0
 40
0.0
 40
1.0
 40
1.0
 40
1.0
 40
2.0
 40
2.0
 40
2.0
 40
3.0
 40
3.0
 40
3.0
 40
4.0
 40
4.0
 40
4.0
 40
5.0
 40
5.0
 40
5.0
 40
6.0
 40
6.0
 40
6.0
 40
7.0
 40
7.0
 40
7.0
 40
8.0
 40
8.0
 40
8.0
 40
9.0
 40
9.0
 40
9.0
 40
9.0
 10
1965.6305
 20
-1260.8037
 10
1965.5752
 20
-1260.8171
 10
1965.5214
 20
-1260.8306
 10
1965.4676
 20
-1260.8448
 10
1965.4676
 20
-1260.8448
 10
1965.4444
 20
-1260.85
 10
1965.4444
 20
-1260.85
 10
1961.8589
 20
-1261.602699999999
 10
1959.612
 20
-1259.4897
 10
1958.0543
 20
-1257.5612
 10
1958.0543
 20
-1257.5612
 10
1932.6163
 20
-1225.9463
 10
1932.6163
 20
-1225.9463
 10
1930.6886
 20
-1223.1366
 10
1931.1872
 20
-1219.533100000001
 10
1933.8055
 20
-1217.3767
 10
1936.3595
 20
-1215.2756
 10
1939.812
 20
-1215.4647
 10
1942.561900000001
 20
-1218.0158
 10
1942.561900000001
 20
-1218.0158
 10
1969.0426
 20
-1250.7407
 10
1969.0426
 20
-1250.7407
 10
1970.4254
 20
-1252.6834
 10
1970.7707
 20
-1254.9736
 10
1969.9859
 20
-1257.022300000001
 10
1969.2586
 20
-1258.9223
 10
1967.6763
 20
-1260.2917
 10
1965.6305
 20
-1260.8037
 97
        0
 97
        0
 75
     2
 76
     1
 98
        0
  0
SPLINE
  5
53
330
1F
100
AcDbEntity
  8
Layer 1
370
     0
100
AcDbSpline
210
0.0
220
0.0
230
1.0
 70
    11
 71
     3
 72
    41
 73
    37
 74
     0
 42
0.0000000001
 43
0.0000000001
 12
1.0
 22
0.0
 32
0.0
 13
1.0
 23
0.0
 33
0.0
 40
0.0
 40
0.0
 40
0.0
 40
0.0
 40
1.0
 40
1.0
 40
1.0
 40
2.0
 40
2.0
 40
2.0
 40
3.0
 40
3.0
 40
3.0
 40
4.0
 40
4.0
 40
4.0
 40
5.0
 40
5.0
 40
5.0
 40
6.0
 40
6.0
 40
6.0
 40
7.0
 40
7.0
 40
7.0
 40
8.0
 40
8.0
 40
8.0
 40
9.0
 40
9.0
 40
9.0
 40
10.0
 40
10.0
 40
10.0
 40
11.0
 40
11.0
 40
11.0
 40
12.0
 40
12.0
 40
12.0
 40
12.0
 10
1908.4691
 20
-1471.532799999999
 30
0.0
 10
1886.1906
 20
-1380.2502
 30
0.0
 10
1929.3791
 20
-1288.3899
 30
0.0
 10
2013.4981
 20
-1248.1433
 30
0.0
 10
2013.4981
 20
-1248.1433
 30
0.0
 10
2022.0788
 20
-1244.0398
 30
0.0
 10
2022.0788
 20
-1244.0398
 30
0.0
 10
2022.0788
 20
-1244.0398
 30
0.0
 10
2015.3532
 20
-1250.7647
 30
0.0
 10
2015.3532
 20
-1250.7647
 30
0.0
 10
1972.2799
 20
-1293.8373
 30
0.0
 10
1954.6093
 20
-1355.180699999999
 30
0.0
 10
1968.0859
 20
-1414.862499999999
 30
0.0
 10
1989.5258
 20
-1509.809800000001
 30
0.0
 10
2080.7844
 20
-1568.9871
 30
0.0
 10
2175.8446
 20
-1549.5825
 30
0.0
 10
2217.243699999999
 20
-1541.179599999999
 30
0.0
 10
2254.2538
 20
-1518.400299999999
 30
0.0
 10
2280.069299999999
 20
-1485.552799999999
 30
0.0
 10
2280.069299999999
 20
-1485.552799999999
 30
0.0
 10
2285.9563
 20
-1478.0641
 30
0.0
 10
2285.9563
 20
-1478.0641
 30
0.0
 10
2285.9563
 20
-1478.0641
 30
0.0
 10
2282.8917
 20
-1487.0828
 30
0.0
 10
2282.8917
 20
-1487.0828
 30
0.0
 10
2261.7657
 20
-1549.2544
 30
0.0
 10
2211.2552
 20
-1596.364799999999
 30
0.0
 10
2147.774100000001
 20
-1613.1077
 30
0.0
 10
2146.9384
 20
-1613.3267
 30
0.0
 10
2146.1058
 20
-1613.541999999999
 30
0.0
 10
2145.2694
 20
-1613.751200000001
 30
0.0
 10
2095.3433
 20
-1626.240400000001
 30
0.0
 10
2043.5359
 20
-1618.7988
 30
0.0
 10
1999.1036
 20
-1592.692499999999
 30
0.0
 10
1953.8387
 20
-1566.099700000001
 30
0.0
 10
1921.6542
 20
-1523.0779
 30
0.0
 10
1908.4691
 20
-1471.532799999999
 30
0.0
  0
HATCH
  5
54
330
1F
100
AcDbEntity
  8
Layer 1
 62
    35
420
 10579544
100
AcDbHatch
 10
0.0
 20
0.0
 30
0.0
210
0.0
220
0.0
230
1.0
  2
SOLID
 70
     1
 71
     0
 91
        1
 92
        1
 93
        1
 72
     4
 94
        3
 73
     0
 74
     1
 95
       41
 96
       37
 40
0.0
 40
0.0
 40
0.0
 40
0.0
 40
1.0
 40
1.0
 40
1.0
 40
2.0
 40
2.0
 40
2.0
 40
3.0
 40
3.0
 40
3.0
 40
4.0
 40
4.0
 40
4.0
 40
5.0
 40
5.0
 40
5.0
 40
6.0
 40
6.0
 40
6.0
 40
7.0
 40
7.0
 40
7.0
 40
8.0
 40
8.0
 40
8.0
 40
9.0
 40
9.0
 40
9.0
 40
10.0
 40
10.0
 40
10.0
 40
11.0
 40
11.0
 40
11.0
 40
12.0
 40
12.0
 40
12.0
 40
12.0
 10
1908.4691
 20
-1471.532799999999
 10
1886.1906
 20
-1380.2502
 10
1929.3791
 20
-1288.3899
 10
2013.4981
 20
-1248.1433
 10
2013.4981
 20
-1248.1433
 10
2022.0788
 20
-1244.0398
 10
2022.0788
 20
-1244.0398
 10
2022.0788
 20
-1244.0398
 10
2015.3532
 20
-1250.7647
 10
2015.3532
 20
-1250.7647
 10
1972.2799
 20
-1293.8373
 10
1954.6093
 20
-1355.180699999999
 10
1968.0859
 20
-1414.862499999999
 10
1989.5258
 20
-1509.809800000001
 10
2080.7844
 20
-1568.9871
 10
2175.8446
 20
-1549.5825
 10
2217.243699999999
 20
-1541.179599999999
 10
2254.2538
 20
-1518.400299999999
 10
2280.069299999999
 20
-1485.552799999999
 10
2280.069299999999
 20
-1485.552799999999
 10
2285.9563
 20
-1478.0641
 10
2285.9563
 20
-1478.0641
 10
2285.9563
 20
-1478.0641
 10
2282.8917
 20
-1487.0828
 10
2282.8917
 20
-1487.0828
 10
2261.7657
 20
-1549.2544
 10
2211.2552
 20
-1596.364799999999
 10
2147.774100000001
 20
-1613.1077
 10
2146.9384
 20
-1613.3267
 10
2146.1058
 20
-1613.541999999999
 10
2145.2694
 20
-1613.751200000001
 10
2095.3433
 20
-1626.240400000001
 10
2043.5359
 20
-1618.7988
 10
1999.1036
 20
-1592.692499999999
 10
1953.8387
 20
-1566.099700000001
 10
1921.6542
 20
-1523.0779
 10
1908.4691
 20
-1471.532799999999
 97
        0
 97
        0
 75
     2
 76
     1
 98
        0
  0
SPLINE
  5
55
330
1F
100
AcDbEntity
  8
Layer 1
370
     0
100
AcDbSpline
210
0.0
220
0.0
230
1.0
 70
    11
 71
     3
 72
    26
 73
    22
 74
     0
 42
0.0000000001
 43
0.0000000001
 12
1.0
 22
0.0
 32
0.0
 13
1.0
 23
0.0
 33
0.0
 40
0.0
 40
0.0
 40
0.0
 40
0.0
 40
1.0
 40
1.0
 40
1.0
 40
2.0
 40
2.0
 40
2.0
 40
3.0
 40
3.0
 40
3.0
 40
4.0
 40
4.0
 40
4.0
 40
5.0
 40
5.0
 40
5.0
 40
6.0
 40
6.0
 40
6.0
 40
7.0
 40
7.0
 40
7.0
 40
7.0
 10
1918.6203
 20
-1297.6456
 30
0.0
 10
1916.9953
 20
-1298.0515
 30
0.0
 10
1915.1476
 20
-1297.7891
 30
0.0
 10
1913.3649
 20
-1296.7763
 30
0.0
 10
1913.3649
 20
-1296.7763
 30
0.0
 10
1837.6652
 20
-1236.8023
 30
0.0
 10
1837.6652
 20
-1236.8023
 30
0.0
 10
1835.023
 20
-1234.3521
 30
0.0
 10
1834.7457
 20
-1230.487
 30
0.0
 10
1837.0194
 20
-1227.8134
 30
0.0
 10
1839.4479
 20
-1224.9566
 30
0.0
 10
1843.239
 20
-1224.7264
 30
0.0
 10
1846.468
 20
-1227.2595
 30
0.0
 10
1846.468
 20
-1227.2595
 30
0.0
 10
1921.008400000001
 20
-1286.6969
 30
0.0
 10
1921.008400000001
 20
-1286.6969
 30
0.0
 10
1923.6177
 20
-1289.0021
 30
0.0
 10
1924.0445
 20
-1292.5405
 30
0.0
 10
1922.0436
 20
-1295.2971
 30
0.0
 10
1921.1668
 20
-1296.5095
 30
0.0
 10
1919.9702
 20
-1297.3077
 30
0.0
 10
1918.6203
 20
-1297.6456
 30
0.0
  0
HATCH
  5
56
330
1F
100
AcDbEntity
  8
Layer 1
 62
    35
420
 10579544
100
AcDbHatch
 10
0.0
 20
0.0
 30
0.0
210
0.0
220
0.0
230
1.0
  2
SOLID
 70
     1
 71
     0
 91
        1
 92
        1
 93
        1
 72
     4
 94
        3
 73
     0
 74
     1
 95
       26
 96
       22
 40
0.0
 40
0.0
 40
0.0
 40
0.0
 40
1.0
 40
1.0
 40
1.0
 40
2.0
 40
2.0
 40
2.0
 40
3.0
 40
3.0
 40
3.0
 40
4.0
 40
4.0
 40
4.0
 40
5.0
 40
5.0
 40
5.0
 40
6.0
 40
6.0
 40
6.0
 40
7.0
 40
7.0
 40
7.0
 40
7.0
 10
1918.6203
 20
-1297.6456
 10
1916.9953
 20
-1298.0515
 10
1915.1476
 20
-1297.7891
 10
1913.3649
 20
-1296.7763
 10
1913.3649
 20
-1296.7763
 10
1837.6652
 20
-1236.8023
 10
1837.6652
 20
-1236.8023
 10
1835.023
 20
-1234.3521
 10
1834.7457
 20
-1230.487
 10
1837.0194
 20
-1227.8134
 10
1839.4479
 20
-1224.9566
 10
1843.239
 20
-1224.7264
 10
1846.468
 20
-1227.2595
 10
1846.468
 20
-1227.2595
 10
1921.008400000001
 20
-1286.6969
 10
1921.008400000001
 20
-1286.6969
 10
1923.6177
 20
-1289.0021
 10
1924.0445
 20
-1292.5405
 10
1922.0436
 20
-1295.2971
 10
1921.1668
 20
-1296.5095
 10
1919.9702
 20
-1297.3077
 10
1918.6203
 20
-1297.6456
 97
        0
 97
        0
 75
     2
 76
     1
 98
        0
  0
SPLINE
  5
57
330
1F
100
AcDbEntity
  8
Layer 1
370
     0
100
AcDbSpline
210
0.0
220
0.0
230
1.0
 70
    11
 71
     3
 72
    26
 73
    22
 74
     0
 42
0.0000000001
 43
0.0000000001
 12
1.0
 22
0.0
 32
0.0
 13
1.0
 23
0.0
 33
0.0
 40
0.0
 40
0.0
 40
0.0
 40
0.0
 40
1.0
 40
1.0
 40
1.0
 40
2.0
 40
2.0
 40
2.0
 40
3.0
 40
3.0
 40
3.0
 40
4.0
 40
4.0
 40
4.0
 40
5.0
 40
5.0
 40
5.0
 40
6.0
 40
6.0
 40
6.0
 40
7.0
 40
7.0
 40
7.0
 40
7.0
 10
1887.3364
 20
-1395.6911
 30
0.0
 10
1887.2303
 20
-1398.5733
 30
0.0
 10
1885.2884
 20
-1400.839599999999
 30
0.0
 10
1882.4705
 20
-1401.544400000001
 30
0.0
 10
1882.0661
 20
-1401.6453
 30
0.0
 10
1881.6423
 20
-1401.7156
 30
0.0
 10
1881.2051
 20
-1401.7492
 30
0.0
 10
1881.2051
 20
-1401.7492
 30
0.0
 10
1784.6769
 20
-1394.0594
 30
0.0
 10
1784.6769
 20
-1394.0594
 30
0.0
 10
1781.1175
 20
-1393.4943
 30
0.0
 10
1778.7361
 20
-1390.4373
 30
0.0
 10
1779.1375
 20
-1386.9504
 30
0.0
 10
1779.565000000001
 20
-1383.220600000001
 30
0.0
 10
1782.590700000001
 20
-1380.9259
 30
0.0
 10
1786.677
 20
-1381.2317
 30
0.0
 10
1786.677
 20
-1381.2317
 30
0.0
 10
1881.688700000001
 20
-1389.121000000001
 30
0.0
 10
1881.688700000001
 20
-1389.121000000001
 30
0.0
 10
1885.1404
 20
-1389.5852
 30
0.0
 10
1887.4635
 20
-1392.2857
 30
0.0
 10
1887.3364
 20
-1395.6911
 30
0.0
  0
HATCH
  5
58
330
1F
100
AcDbEntity
  8
Layer 1
 62
    35
420
 10579544
100
AcDbHatch
 10
0.0
 20
0.0
 30
0.0
210
0.0
220
0.0
230
1.0
  2
SOLID
 70
     1
 71
     0
 91
        1
 92
        1
 93
        1
 72
     4
 94
        3
 73
     0
 74
     1
 95
       26
 96
       22
 40
0.0
 40
0.0
 40
0.0
 40
0.0
 40
1.0
 40
1.0
 40
1.0
 40
2.0
 40
2.0
 40
2.0
 40
3.0
 40
3.0
 40
3.0
 40
4.0
 40
4.0
 40
4.0
 40
5.0
 40
5.0
 40
5.0
 40
6.0
 40
6.0
 40
6.0
 40
7.0
 40
7.0
 40
7.0
 40
7.0
 10
1887.3364
 20
-1395.6911
 10
1887.2303
 20
-1398.5733
 10
1885.2884
 20
-1400.839599999999
 10
1882.4705
 20
-1401.544400000001
 10
1882.0661
 20
-1401.6453
 10
1881.6423
 20
-1401.7156
 10
1881.2051
 20
-1401.7492
 10
1881.2051
 20
-1401.7492
 10
1784.6769
 20
-1394.0594
 10
1784.6769
 20
-1394.0594
 10
1781.1175
 20
-1393.4943
 10
1778.7361
 20
-1390.4373
 10
1779.1375
 20
-1386.9504
 10
1779.565000000001
 20
-1383.220600000001
 10
1782.590700000001
 20
-1380.9259
 10
1786.677
 20
-1381.2317
 10
1786.677
 20
-1381.2317
 10
1881.688700000001
 20
-1389.121000000001
 10
1881.688700000001
 20
-1389.121000000001
 10
1885.1404
 20
-1389.5852
 10
1887.4635
 20
-1392.2857
 10
1887.3364
 20
-1395.6911
 97
        0
 97
        0
 75
     2
 76
     1
 98
        0
  0
SPLINE
  5
59
330
1F
100
AcDbEntity
  8
Layer 1
370
     0
100
AcDbSpline
210
0.0
220
0.0
230
1.0
 70
    11
 71
     3
 72
    26
 73
    22
 74
     0
 42
0.0000000001
 43
0.0000000001
 12
1.0
 22
0.0
 32
0.0
 13
1.0
 23
0.0
 33
0.0
 40
0.0
 40
0.0
 40
0.0
 40
0.0
 40
1.0
 40
1.0
 40
1.0
 40
2.0
 40
2.0
 40
2.0
 40
3.0
 40
3.0
 40
3.0
 40
4.0
 40
4.0
 40
4.0
 40
5.0
 40
5.0
 40
5.0
 40
6.0
 40
6.0
 40
6.0
 40
7.0
 40
7.0
 40
7.0
 40
7.0
 10
1896.6788
 20
-1669.0911
 30
0.0
 10
1896.6788
 20
-1669.0911
 30
0.0
 10
1952.9918
 20
-1592.143900000001
 30
0.0
 10
1952.9918
 20
-1592.143900000001
 30
0.0
 10
1955.1878
 20
-1589.440399999999
 30
0.0
 10
1958.7054
 20
-1588.8686
 30
0.0
 10
1961.5412
 20
-1590.7559
 30
0.0
 10
1964.2873
 20
-1592.5767
 30
0.0
 10
1965.0983
 20
-1596.0299
 30
0.0
 10
1963.3792
 20
-1599.3673
 30
0.0
 10
1963.3792
 20
-1599.3673
 30
0.0
 10
1906.584800000001
 20
-1677.482
 30
0.0
 10
1906.584800000001
 20
-1677.482
 30
0.0
 10
1905.6191
 20
-1678.615100000001
 30
0.0
 10
1904.3947
 20
-1679.3506
 30
0.0
 10
1903.0957
 20
-1679.675799999999
 30
0.0
 10
1901.251
 20
-1680.137699999999
 30
0.0
 10
1899.2545
 20
-1679.7647
 30
0.0
 10
1897.6303
 20
-1678.495499999999
 30
0.0
 10
1894.6726
 20
-1676.1867
 30
0.0
 10
1894.2892
 20
-1672.407499999999
 30
0.0
 10
1896.6788
 20
-1669.0911
 30
0.0
  0
HATCH
  5
5A
330
1F
100
AcDbEntity
  8
Layer 1
 62
    35
420
 10579544
100
AcDbHatch
 10
0.0
 20
0.0
 30
0.0
210
0.0
220
0.0
230
1.0
  2
SOLID
 70
     1
 71
     0
 91
        1
 92
        1
 93
        1
 72
     4
 94
        3
 73
     0
 74
     1
 95
       26
 96
       22
 40
0.0
 40
0.0
 40
0.0
 40
0.0
 40
1.0
 40
1.0
 40
1.0
 40
2.0
 40
2.0
 40
2.0
 40
3.0
 40
3.0
 40
3.0
 40
4.0
 40
4.0
 40
4.0
 40
5.0
 40
5.0
 40
5.0
 40
6.0
 40
6.0
 40
6.0
 40
7.0
 40
7.0
 40
7.0
 40
7.0
 10
1896.6788
 20
-1669.0911
 10
1896.6788
 20
-1669.0911
 10
1952.9918
 20
-1592.143900000001
 10
1952.9918
 20
-1592.143900000001
 10
1955.1878
 20
-1589.440399999999
 10
1958.7054
 20
-1588.8686
 10
1961.5412
 20
-1590.7559
 10
1964.2873
 20
-1592.5767
 10
1965.0983
 20
-1596.0299
 10
1963.3792
 20
-1599.3673
 10
1963.3792
 20
-1599.3673
 10
1906.584800000001
 20
-1677.482
 10
1906.584800000001
 20
-1677.482
 10
1905.6191
 20
-1678.615100000001
 10
1904.3947
 20
-1679.3506
 10
1903.0957
 20
-1679.675799999999
 10
1901.251
 20
-1680.137699999999
 10
1899.2545
 20
-1679.7647
 10
1897.6303
 20
-1678.495499999999
 10
1894.6726
 20
-1676.1867
 10
1894.2892
 20
-1672.407499999999
 10
1896.6788
 20
-1669.0911
 97
        0
 97
        0
 75
     2
 76
     1
 98
        0
  0
SPLINE
  5
5B
330
1F
100
AcDbEntity
  8
Layer 1
370
     0
100
AcDbSpline
210
0.0
220
0.0
230
1.0
 70
    11
 71
     3
 72
    26
 73
    22
 74
     0
 42
0.0000000001
 43
0.0000000001
 12
1.0
 22
0.0
 32
0.0
 13
1.0
 23
0.0
 33
0.0
 40
0.0
 40
0.0
 40
0.0
 40
0.0
 40
1.0
 40
1.0
 40
1.0
 40
2.0
 40
2.0
 40
2.0
 40
3.0
 40
3.0
 40
3.0
 40
4.0
 40
4.0
 40
4.0
 40
5.0
 40
5.0
 40
5.0
 40
6.0
 40
6.0
 40
6.0
 40
7.0
 40
7.0
 40
7.0
 40
7.0
 10
2054.1759
 20
-1639.096600000001
 30
0.0
 10
2054.7395
 20
-1635.6613
 30
0.0
 10
2057.5021
 20
-1633.4025
 30
0.0
 10
2060.9067
 20
-1633.6492
 30
0.0
 10
2064.1947
 20
-1633.865900000001
 30
0.0
 10
2066.612
 20
-1636.4581
 30
0.0
 10
2066.776400000001
 20
-1640.213299999999
 30
0.0
 10
2066.776400000001
 20
-1640.213299999999
 30
0.0
 10
2056.2254
 20
-1736.210000000001
 30
0.0
 10
2056.2254
 20
-1736.210000000001
 30
0.0
 10
2055.7239
 20
-1738.870199999999
 30
0.0
 10
2053.8388
 20
-1740.8233
 30
0.0
 10
2051.4582
 20
-1741.419
 30
0.0
 10
2050.668900000001
 20
-1741.616400000001
 30
0.0
 10
2049.8235
 20
-1741.664199999999
 30
0.0
 10
2048.957899999999
 20
-1741.5394
 30
0.0
 10
2045.2446
 20
-1741.002699999999
 30
0.0
 10
2043.0366
 20
-1737.9097
 30
0.0
 10
2043.465700000001
 20
-1733.8316
 30
0.0
 10
2043.465700000001
 20
-1733.8316
 30
0.0
 10
2054.1759
 20
-1639.096600000001
 30
0.0
 10
2054.1759
 20
-1639.096600000001
 30
0.0
  0
HATCH
  5
5C
330
1F
100
AcDbEntity
  8
Layer 1
 62
    35
420
 10579544
100
AcDbHatch
 10
0.0
 20
0.0
 30
0.0
210
0.0
220
0.0
230
1.0
  2
SOLID
 70
     1
 71
     0
 91
        1
 92
        1
 93
        1
 72
     4
 94
        3
 73
     0
 74
     1
 95
       26
 96
       22
 40
0.0
 40
0.0
 40
0.0
 40
0.0
 40
1.0
 40
1.0
 40
1.0
 40
2.0
 40
2.0
 40
2.0
 40
3.0
 40
3.0
 40
3.0
 40
4.0
 40
4.0
 40
4.0
 40
5.0
 40
5.0
 40
5.0
 40
6.0
 40
6.0
 40
6.0
 40
7.0
 40
7.0
 40
7.0
 40
7.0
 10
2054.1759
 20
-1639.096600000001
 10
2054.7395
 20
-1635.6613
 10
2057.5021
 20
-1633.4025
 10
2060.9067
 20
-1633.6492
 10
2064.1947
 20
-1633.865900000001
 10
2066.612
 20
-1636.4581
 10
2066.776400000001
 20
-1640.213299999999
 10
2066.776400000001
 20
-1640.213299999999
 10
2056.2254
 20
-1736.210000000001
 10
2056.2254
 20
-1736.210000000001
 10
2055.7239
 20
-1738.870199999999
 10
2053.8388
 20
-1740.8233
 10
2051.4582
 20
-1741.419
 10
2050.668900000001
 20
-1741.616400000001
 10
2049.8235
 20
-1741.664199999999
 10
2048.957899999999
 20
-1741.5394
 10
2045.2446
 20
-1741.002699999999
 10
2043.0366
 20
-1737.9097
 10
2043.465700000001
 20
-1733.8316
 10
2043.465700000001
 20
-1733.8316
 10
2054.1759
 20
-1639.096600000001
 10
2054.1759
 20
-1639.096600000001
 97
        0
 97
        0
 75
     2
 76
     1
 98
        0
  0
SPLINE
  5
5D
330
1F
100
AcDbEntity
  8
Layer 1
370
     0
100
AcDbSpline
210
0.0
220
0.0
230
1.0
 70
    11
 71
     3
 72
    26
 73
    22
 74
     0
 42
0.0000000001
 43
0.0000000001
 12
1.0
 22
0.0
 32
0.0
 13
1.0
 23
0.0
 33
0.0
 40
0.0
 40
0.0
 40
0.0
 40
0.0
 40
1.0
 40
1.0
 40
1.0
 40
2.0
 40
2.0
 40
2.0
 40
3.0
 40
3.0
 40
3.0
 40
4.0
 40
4.0
 40
4.0
 40
5.0
 40
5.0
 40
5.0
 40
6.0
 40
6.0
 40
6.0
 40
7.0
 40
7.0
 40
7.0
 40
7.0
 10
2173.18
 20
-1628.838600000001
 30
0.0
 10
2176.1414
 20
-1627.3863
 30
0.0
 10
2179.5311
 20
-1628.473099999999
 30
0.0
 10
2181.5216
 20
-1631.6602
 30
0.0
 10
2181.5216
 20
-1631.6602
 30
0.0
 10
2219.6319
 20
-1720.3977
 30
0.0
 10
2219.6319
 20
-1720.3977
 30
0.0
 10
2220.794900000001
 20
-1723.808300000001
 30
0.0
 10
2219.204300000001
 20
-1727.343800000001
 30
0.0
 10
2215.929700000001
 20
-1728.618899999999
 30
0.0
 10
2215.638200000001
 20
-1728.731
 30
0.0
 10
2215.3452
 20
-1728.824500000001
 30
0.0
 10
2215.055200000001
 20
-1728.896999999999
 30
0.0
 10
2211.8696
 20
-1729.693799999999
 30
0.0
 10
2208.8521
 20
-1728.058300000001
 30
0.0
 10
2207.3602
 20
-1724.6253
 30
0.0
 10
2207.3602
 20
-1724.6253
 30
0.0
 10
2170.0078
 20
-1636.8976
 30
0.0
 10
2170.0078
 20
-1636.8976
 30
0.0
 10
2168.8036
 20
-1633.632
 30
0.0
 10
2170.108700000001
 20
-1630.315500000001
 30
0.0
 10
2173.18
 20
-1628.838600000001
 30
0.0
  0
HATCH
  5
5E
330
1F
100
AcDbEntity
  8
Layer 1
 62
    35
420
 10579544
100
AcDbHatch
 10
0.0
 20
0.0
 30
0.0
210
0.0
220
0.0
230
1.0
  2
SOLID
 70
     1
 71
     0
 91
        1
 92
        1
 93
        1
 72
     4
 94
        3
 73
     0
 74
     1
 95
       26
 96
       22
 40
0.0
 40
0.0
 40
0.0
 40
0.0
 40
1.0
 40
1.0
 40
1.0
 40
2.0
 40
2.0
 40
2.0
 40
3.0
 40
3.0
 40
3.0
 40
4.0
 40
4.0
 40
4.0
 40
5.0
 40
5.0
 40
5.0
 40
6.0
 40
6.0
 40
6.0
 40
7.0
 40
7.0
 40
7.0
 40
7.0
 10
2173.18
 20
-1628.838600000001
 10
2176.1414
 20
-1627.3863
 10
2179.5311
 20
-1628.473099999999
 10
2181.5216
 20
-1631.6602
 10
2181.5216
 20
-1631.6602
 10
2219.6319
 20
-1720.3977
 10
2219.6319
 20
-1720.3977
 10
2220.794900000001
 20
-1723.808300000001
 10
2219.204300000001
 20
-1727.343800000001
 10
2215.929700000001
 20
-1728.618899999999
 10
2215.638200000001
 20
-1728.731
 10
2215.3452
 20
-1728.824500000001
 10
2215.055200000001
 20
-1728.896999999999
 10
2211.8696
 20
-1729.693799999999
 10
2208.8521
 20
-1728.058300000001
 10
2207.3602
 20
-1724.6253
 10
2207.3602
 20
-1724.6253
 10
2170.0078
 20
-1636.8976
 10
2170.0078
 20
-1636.8976
 10
2168.8036
 20
-1633.632
 10
2170.108700000001
 20
-1630.315500000001
 10
2173.18
 20
-1628.838600000001
 97
        0
 97
        0
 75
     2
 76
     1
 98
        0
  0
SPLINE
  5
5F
330
1F
100
AcDbEntity
  8
Layer 1
370
     0
100
AcDbSpline
210
0.0
220
0.0
230
1.0
 70
    11
 71
     3
 72
    26
 73
    22
 74
     0
 42
0.0000000001
 43
0.0000000001
 12
1.0
 22
0.0
 32
0.0
 13
1.0
 23
0.0
 33
0.0
 40
0.0
 40
0.0
 40
0.0
 40
0.0
 40
1.0
 40
1.0
 40
1.0
 40
2.0
 40
2.0
 40
2.0
 40
3.0
 40
3.0
 40
3.0
 40
4.0
 40
4.0
 40
4.0
 40
5.0
 40
5.0
 40
5.0
 40
6.0
 40
6.0
 40
6.0
 40
7.0
 40
7.0
 40
7.0
 40
7.0
 10
2269.516100000001
 20
-1563.2444
 30
0.0
 10
2269.516100000001
 20
-1563.2444
 30
0.0
 10
2346.794400000001
 20
-1621.1682
 30
0.0
 10
2346.794400000001
 20
-1621.1682
 30
0.0
 10
2349.5031
 20
-1623.5429
 30
0.0
 10
2349.8866
 20
-1627.4012
 30
0.0
 10
2347.6823
 20
-1630.1361
 30
0.0
 10
2346.7323
 20
-1631.3179
 30
0.0
 10
2345.5491
 20
-1632.0728
 30
0.0
 10
2344.261200000001
 20
-1632.394899999999
 30
0.0
 10
2342.3537
 20
-1632.872600000001
 30
0.0
 10
2340.2168
 20
-1632.4002
 30
0.0
 10
2338.254000000001
 20
-1630.944100000001
 30
0.0
 10
2338.254000000001
 20
-1630.944100000001
 30
0.0
 10
2262.146199999999
 20
-1573.527099999999
 30
0.0
 10
2262.146199999999
 20
-1573.527099999999
 30
0.0
 10
2259.4748
 20
-1571.2945
 30
0.0
 10
2258.953100000001
 20
-1567.7688
 30
0.0
 10
2260.877700000001
 20
-1564.9568
 30
0.0
 10
2262.741099999999
 20
-1562.2279
 30
0.0
 10
2266.204099999999
 20
-1561.473
 30
0.0
 10
2269.516100000001
 20
-1563.2444
 30
0.0
  0
HATCH
  5
60
330
1F
100
AcDbEntity
  8
Layer 1
 62
    35
420
 10579544
100
AcDbHatch
 10
0.0
 20
0.0
 30
0.0
210
0.0
220
0.0
230
1.0
  2
SOLID
 70
     1
 71
     0
 91
        1
 92
        1
 93
        1
 72
     4
 94
        3
 73
     0
 74
     1
 95
       26
 96
       22
 40
0.0
 40
0.0
 40
0.0
 40
0.0
 40
1.0
 40
1.0
 40
1.0
 40
2.0
 40
2.0
 40
2.0
 40
3.0
 40
3.0
 40
3.0
 40
4.0
 40
4.0
 40
4.0
 40
5.0
 40
5.0
 40
5.0
 40
6.0
 40
6.0
 40
6.0
 40
7.0
 40
7.0
 40
7.0
 40
7.0
 10
2269.516100000001
 20
-1563.2444
 10
2269.516100000001
 20
-1563.2444
 10
2346.794400000001
 20
-1621.1682
 10
2346.794400000001
 20
-1621.1682
 10
2349.5031
 20
-1623.5429
 10
2349.8866
 20
-1627.4012
 10
2347.6823
 20
-1630.1361
 10
2346.7323
 20
-1631.3179
 10
2345.5491
 20
-1632.0728
 10
2344.261200000001
 20
-1632.394899999999
 10
2342.3537
 20
-1632.872600000001
 10
2340.2168
 20
-1632.4002
 10
2338.254000000001
 20
-1630.944100000001
 10
2338.254000000001
 20
-1630.944100000001
 10
2262.146199999999
 20
-1573.527099999999
 10
2262.146199999999
 20
-1573.527099999999
 10
2259.4748
 20
-1571.2945
 10
2258.953100000001
 20
-1567.7688
 10
2260.877700000001
 20
-1564.9568
 10
2262.741099999999
 20
-1562.2279
 10
2266.204099999999
 20
-1561.473
 10
2269.516100000001
 20
-1563.2444
 97
        0
 97
        0
 75
     2
 76
     1
 98
        0
  0
SPLINE
  5
61
330
1F
100
AcDbEntity
  8
Layer 1
370
     0
100
AcDbSpline
210
0.0
220
0.0
230
1.0
 70
    11
 71
     3
 72
    32
 73
    28
 74
     0
 42
0.0000000001
 43
0.0000000001
 12
1.0
 22
0.0
 32
0.0
 13
1.0
 23
0.0
 33
0.0
 40
0.0
 40
0.0
 40
0.0
 40
0.0
 40
1.0
 40
1.0
 40
1.0
 40
2.0
 40
2.0
 40
2.0
 40
3.0
 40
3.0
 40
3.0
 40
4.0
 40
4.0
 40
4.0
 40
5.0
 40
5.0
 40
5.0
 40
6.0
 40
6.0
 40
6.0
 40
7.0
 40
7.0
 40
7.0
 40
8.0
 40
8.0
 40
8.0
 40
9.0
 40
9.0
 40
9.0
 40
9.0
 10
1895.0867
 20
-1338.436299999999
 30
0.0
 10
1895.441800000001
 20
-1340.497799999999
 30
0.0
 10
1894.7347
 20
-1342.533799999999
 30
0.0
 10
1893.1501
 20
-1344.0317
 30
0.0
 10
1893.1501
 20
-1344.0317
 30
0.0
 10
1893.1344
 20
-1344.045899999999
 30
0.0
 10
1893.1344
 20
-1344.045899999999
 30
0.0
 10
1892.2285
 20
-1344.875599999999
 30
0.0
 10
1891.2889
 20
-1345.3532
 30
0.0
 10
1890.3509
 20
-1345.5879
 30
0.0
 10
1888.492
 20
-1346.052799999999
 30
0.0
 10
1886.6428
 20
-1345.5617
 30
0.0
 10
1885.0978
 20
-1344.9877
 30
0.0
 10
1885.0978
 20
-1344.9877
 30
0.0
 10
1847.0921
 20
-1330.777899999999
 30
0.0
 10
1847.0921
 20
-1330.777899999999
 30
0.0
 10
1844.0006
 20
-1329.344999999999
 30
0.0
 10
1842.5932
 20
-1325.992
 30
0.0
 10
1843.745
 20
-1322.8056
 30
0.0
 10
1844.8677
 20
-1319.6924
 30
0.0
 10
1847.9345
 20
-1318.0921
 30
0.0
 10
1851.599200000001
 20
-1318.8837
 30
0.0
 10
1851.599200000001
 20
-1318.8837
 30
0.0
 10
1891.0729
 20
-1333.5195
 30
0.0
 10
1891.0729
 20
-1333.5195
 30
0.0
 10
1893.2532
 20
-1334.4823
 30
0.0
 10
1894.7168
 20
-1336.2762
 30
0.0
 10
1895.0867
 20
-1338.436299999999
 30
0.0
  0
HATCH
  5
62
330
1F
100
AcDbEntity
  8
Layer 1
 62
    35
420
 10579544
100
AcDbHatch
 10
0.0
 20
0.0
 30
0.0
210
0.0
220
0.0
230
1.0
  2
SOLID
 70
     1
 71
     0
 91
        1
 92
        1
 93
        1
 72
     4
 94
        3
 73
     0
 74
     1
 95
       32
 96
       28
 40
0.0
 40
0.0
 40
0.0
 40
0.0
 40
1.0
 40
1.0
 40
1.0
 40
2.0
 40
2.0
 40
2.0
 40
3.0
 40
3.0
 40
3.0
 40
4.0
 40
4.0
 40
4.0
 40
5.0
 40
5.0
 40
5.0
 40
6.0
 40
6.0
 40
6.0
 40
7.0
 40
7.0
 40
7.0
 40
8.0
 40
8.0
 40
8.0
 40
9.0
 40
9.0
 40
9.0
 40
9.0
 10
1895.0867
 20
-1338.436299999999
 10
1895.441800000001
 20
-1340.497799999999
 10
1894.7347
 20
-1342.533799999999
 10
1893.1501
 20
-1344.0317
 10
1893.1501
 20
-1344.0317
 10
1893.1344
 20
-1344.045899999999
 10
1893.1344
 20
-1344.045899999999
 10
1892.2285
 20
-1344.875599999999
 10
1891.2889
 20
-1345.3532
 10
1890.3509
 20
-1345.5879
 10
1888.492
 20
-1346.052799999999
 10
1886.6428
 20
-1345.5617
 10
1885.0978
 20
-1344.9877
 10
1885.0978
 20
-1344.9877
 10
1847.0921
 20
-1330.777899999999
 10
1847.0921
 20
-1330.777899999999
 10
1844.0006
 20
-1329.344999999999
 10
1842.5932
 20
-1325.992
 10
1843.745
 20
-1322.8056
 10
1844.8677
 20
-1319.6924
 10
1847.9345
 20
-1318.0921
 10
1851.599200000001
 20
-1318.8837
 10
1851.599200000001
 20
-1318.8837
 10
1891.0729
 20
-1333.5195
 10
1891.0729
 20
-1333.5195
 10
1893.2532
 20
-1334.4823
 10
1894.7168
 20
-1336.2762
 10
1895.0867
 20
-1338.436299999999
 97
        0
 97
        0
 75
     2
 76
     1
 98
        0
  0
SPLINE
  5
63
330
1F
100
AcDbEntity
  8
Layer 1
370
     0
100
AcDbSpline
210
0.0
220
0.0
230
1.0
 70
    11
 71
     3
 72
    29
 73
    25
 74
     0
 42
0.0000000001
 43
0.0000000001
 12
1.0
 22
0.0
 32
0.0
 13
1.0
 23
0.0
 33
0.0
 40
0.0
 40
0.0
 40
0.0
 40
0.0
 40
1.0
 40
1.0
 40
1.0
 40
2.0
 40
2.0
 40
2.0
 40
3.0
 40
3.0
 40
3.0
 40
4.0
 40
4.0
 40
4.0
 40
5.0
 40
5.0
 40
5.0
 40
6.0
 40
6.0
 40
6.0
 40
7.0
 40
7.0
 40
7.0
 40
8.0
 40
8.0
 40
8.0
 40
8.0
 10
1875.9101
 20
-1457.048699999999
 30
0.0
 10
1875.8055
 20
-1457.0749
 30
0.0
 10
1875.7001
 20
-1457.098
 30
0.0
 10
1875.5984
 20
-1457.1242
 30
0.0
 10
1875.5984
 20
-1457.1242
 30
0.0
 10
1836.0664
 20
-1466.2827
 30
0.0
 10
1836.0664
 20
-1466.2827
 30
0.0
 10
1832.6984
 20
-1466.797
 30
0.0
 10
1829.6705
 20
-1464.7773
 30
0.0
 10
1828.8692
 20
-1461.4833
 30
0.0
 10
1828.0859
 20
-1458.272999999999
 30
0.0
 10
1829.7534
 20
-1455.242099999999
 30
0.0
 10
1833.2508
 20
-1453.8758
 30
0.0
 10
1833.2508
 20
-1453.8758
 30
0.0
 10
1874.2358
 20
-1444.262000000001
 30
0.0
 10
1874.2358
 20
-1444.262000000001
 30
0.0
 10
1876.5858
 20
-1443.8644
 30
0.0
 10
1878.7961
 20
-1444.5476
 30
0.0
 10
1880.3006
 20
-1446.144899999999
 30
0.0
 10
1881.7313
 20
-1447.665199999999
 30
0.0
 10
1882.2709
 20
-1449.756600000001
 30
0.0
 10
1881.7716
 20
-1451.901
 30
0.0
 10
1880.93
 20
-1455.304900000001
 30
0.0
 10
1878.2541
 20
-1456.4627
 30
0.0
 10
1875.9101
 20
-1457.048699999999
 30
0.0
  0
HATCH
  5
64
330
1F
100
AcDbEntity
  8
Layer 1
 62
    35
420
 10579544
100
AcDbHatch
 10
0.0
 20
0.0
 30
0.0
210
0.0
220
0.0
230
1.0
  2
SOLID
 70
     1
 71
     0
 91
        1
 92
        1
 93
        1
 72
     4
 94
        3
 73
     0
 74
     1
 95
       29
 96
       25
 40
0.0
 40
0.0
 40
0.0
 40
0.0
 40
1.0
 40
1.0
 40
1.0
 40
2.0
 40
2.0
 40
2.0
 40
3.0
 40
3.0
 40
3.0
 40
4.0
 40
4.0
 40
4.0
 40
5.0
 40
5.0
 40
5.0
 40
6.0
 40
6.0
 40
6.0
 40
7.0
 40
7.0
 40
7.0
 40
8.0
 40
8.0
 40
8.0
 40
8.0
 10
1875.9101
 20
-1457.048699999999
 10
1875.8055
 20
-1457.0749
 10
1875.7001
 20
-1457.098
 10
1875.5984
 20
-1457.1242
 10
1875.5984
 20
-1457.1242
 10
1836.0664
 20
-1466.2827
 10
1836.0664
 20
-1466.2827
 10
1832.6984
 20
-1466.797
 10
1829.6705
 20
-1464.7773
 10
1828.8692
 20
-1461.4833
 10
1828.0859
 20
-1458.272999999999
 10
1829.7534
 20
-1455.242099999999
 10
1833.2508
 20
-1453.8758
 10
1833.2508
 20
-1453.8758
 10
1874.2358
 20
-1444.262000000001
 10
1874.2358
 20
-1444.262000000001
 10
1876.5858
 20
-1443.8644
 10
1878.7961
 20
-1444.5476
 10
1880.3006
 20
-1446.144899999999
 10
1881.7313
 20
-1447.665199999999
 10
1882.2709
 20
-1449.756600000001
 10
1881.7716
 20
-1451.901
 10
1880.93
 20
-1455.304900000001
 10
1878.2541
 20
-1456.4627
 10
1875.9101
 20
-1457.048699999999
 97
        0
 97
        0
 75
     2
 76
     1
 98
        0
  0
SPLINE
  5
65
330
1F
100
AcDbEntity
  8
Layer 1
370
     0
100
AcDbSpline
210
0.0
220
0.0
230
1.0
 70
    11
 71
     3
 72
    32
 73
    28
 74
     0
 42
0.0000000001
 43
0.0000000001
 12
1.0
 22
0.0
 32
0.0
 13
1.0
 23
0.0
 33
0.0
 40
0.0
 40
0.0
 40
0.0
 40
0.0
 40
1.0
 40
1.0
 40
1.0
 40
2.0
 40
2.0
 40
2.0
 40
3.0
 40
3.0
 40
3.0
 40
4.0
 40
4.0
 40
4.0
 40
5.0
 40
5.0
 40
5.0
 40
6.0
 40
6.0
 40
6.0
 40
7.0
 40
7.0
 40
7.0
 40
8.0
 40
8.0
 40
8.0
 40
9.0
 40
9.0
 40
9.0
 40
9.0
 10
1918.0649
 20
-1555.8469
 30
0.0
 10
1919.9918
 20
-1556.653399999999
 30
0.0
 10
1921.3336
 20
-1558.340399999999
 30
0.0
 10
1921.7439
 20
-1560.480299999999
 30
0.0
 10
1921.7439
 20
-1560.480299999999
 30
0.0
 10
1921.7491
 20
-1560.502
 30
0.0
 10
1921.7491
 20
-1560.502
 30
0.0
 10
1922.3956
 20
-1564.1137
 30
0.0
 10
1920.211600000001
 20
-1566.293299999999
 30
0.0
 10
1918.2361
 20
-1567.787399999999
 30
0.0
 10
1918.2361
 20
-1567.787399999999
 30
0.0
 10
1885.8617
 20
-1592.249299999999
 30
0.0
 10
1885.8617
 20
-1592.249299999999
 30
0.0
 10
1885.2248
 20
-1592.6582
 30
0.0
 10
1884.5514
 20
-1592.948200000001
 30
0.0
 10
1883.8667
 20
-1593.1193
 30
0.0
 10
1881.4771
 20
-1593.7173
 30
0.0
 10
1878.9515
 20
-1592.8869
 30
0.0
 10
1877.3362
 20
-1590.8022
 30
0.0
 10
1875.3129
 20
-1588.1839
 30
0.0
 10
1875.6044
 20
-1584.7374
 30
0.0
 10
1878.2407
 20
-1582.0645
 30
0.0
 10
1878.2407
 20
-1582.0645
 30
0.0
 10
1911.7587
 20
-1556.598099999999
 30
0.0
 10
1911.7587
 20
-1556.598099999999
 30
0.0
 10
1913.7454
 20
-1555.275100000001
 30
0.0
 10
1916.04
 20
-1555.005999999999
 30
0.0
 10
1918.0649
 20
-1555.8469
 30
0.0
  0
HATCH
  5
66
330
1F
100
AcDbEntity
  8
Layer 1
 62
    35
420
 10579544
100
AcDbHatch
 10
0.0
 20
0.0
 30
0.0
210
0.0
220
0.0
230
1.0
  2
SOLID
 70
     1
 71
     0
 91
        1
 92
        1
 93
        1
 72
     4
 94
        3
 73
     0
 74
     1
 95
       32
 96
       28
 40
0.0
 40
0.0
 40
0.0
 40
0.0
 40
1.0
 40
1.0
 40
1.0
 40
2.0
 40
2.0
 40
2.0
 40
3.0
 40
3.0
 40
3.0
 40
4.0
 40
4.0
 40
4.0
 40
5.0
 40
5.0
 40
5.0
 40
6.0
 40
6.0
 40
6.0
 40
7.0
 40
7.0
 40
7.0
 40
8.0
 40
8.0
 40
8.0
 40
9.0
 40
9.0
 40
9.0
 40
9.0
 10
1918.0649
 20
-1555.8469
 10
1919.9918
 20
-1556.653399999999
 10
1921.3336
 20
-1558.340399999999
 10
1921.7439
 20
-1560.480299999999
 10
1921.7439
 20
-1560.480299999999
 10
1921.7491
 20
-1560.502
 10
1921.7491
 20
-1560.502
 10
1922.3956
 20
-1564.1137
 10
1920.211600000001
 20
-1566.293299999999
 10
1918.2361
 20
-1567.787399999999
 10
1918.2361
 20
-1567.787399999999
 10
1885.8617
 20
-1592.249299999999
 10
1885.8617
 20
-1592.249299999999
 10
1885.2248
 20
-1592.6582
 10
1884.5514
 20
-1592.948200000001
 10
1883.8667
 20
-1593.1193
 10
1881.4771
 20
-1593.7173
 10
1878.9515
 20
-1592.8869
 10
1877.3362
 20
-1590.8022
 10
1875.3129
 20
-1588.1839
 10
1875.6044
 20
-1584.7374
 10
1878.2407
 20
-1582.0645
 10
1878.2407
 20
-1582.0645
 10
1911.7587
 20
-1556.598099999999
 10
1911.7587
 20
-1556.598099999999
 10
1913.7454
 20
-1555.275100000001
 10
1916.04
 20
-1555.005999999999
 10
1918.0649
 20
-1555.8469
 97
        0
 97
        0
 75
     2
 76
     1
 98
        0
  0
SPLINE
  5
67
330
1F
100
AcDbEntity
  8
Layer 1
370
     0
100
AcDbSpline
210
0.0
220
0.0
230
1.0
 70
    11
 71
     3
 72
    32
 73
    28
 74
     0
 42
0.0000000001
 43
0.0000000001
 12
1.0
 22
0.0
 32
0.0
 13
1.0
 23
0.0
 33
0.0
 40
0.0
 40
0.0
 40
0.0
 40
0.0
 40
1.0
 40
1.0
 40
1.0
 40
2.0
 40
2.0
 40
2.0
 40
3.0
 40
3.0
 40
3.0
 40
4.0
 40
4.0
 40
4.0
 40
5.0
 40
5.0
 40
5.0
 40
6.0
 40
6.0
 40
6.0
 40
7.0
 40
7.0
 40
7.0
 40
8.0
 40
8.0
 40
8.0
 40
9.0
 40
9.0
 40
9.0
 40
9.0
 10
2002.1824
 20
-1626.4751
 30
0.0
 10
2003.3327
 20
-1624.387500000001
 30
0.0
 10
2005.244000000001
 20
-1623.089900000001
 30
0.0
 10
2007.4295
 20
-1622.900799999999
 30
0.0
 10
2009.5127
 20
-1622.7304
 30
0.0
 10
2011.4822
 20
-1623.6109
 30
0.0
 10
2012.8336
 20
-1625.318799999999
 30
0.0
 10
2012.8336
 20
-1625.318799999999
 30
0.0
 10
2012.8478
 20
-1625.335300000001
 30
0.0
 10
2012.8478
 20
-1625.335300000001
 30
0.0
 10
2015.0849
 20
-1628.241400000001
 30
0.0
 10
2014.1513
 20
-1631.1826
 30
0.0
 10
2013.0877
 20
-1633.422700000001
 30
0.0
 10
2013.0877
 20
-1633.422700000001
 30
0.0
 10
1995.619000000001
 20
-1670.044100000001
 30
0.0
 10
1995.619000000001
 20
-1670.044100000001
 30
0.0
 10
1994.6982
 20
-1671.651100000001
 30
0.0
 10
1993.2534
 20
-1672.710999999999
 30
0.0
 10
1991.6321
 20
-1673.116899999999
 30
0.0
 10
1990.2711
 20
-1673.457
 30
0.0
 10
1988.7873
 20
-1673.336600000001
 30
0.0
 10
1987.3813
 20
-1672.684800000001
 30
0.0
 10
1984.3833
 20
-1671.2968
 30
0.0
 10
1983.0536
 20
-1668.1052
 30
0.0
 10
1984.1628
 20
-1664.5167
 30
0.0
 10
1984.1628
 20
-1664.5167
 30
0.0
 10
2002.1824
 20
-1626.4751
 30
0.0
 10
2002.1824
 20
-1626.4751
 30
0.0
  0
HATCH
  5
68
330
1F
100
AcDbEntity
  8
Layer 1
 62
    35
420
 10579544
100
AcDbHatch
 10
0.0
 20
0.0
 30
0.0
210
0.0
220
0.0
230
1.0
  2
SOLID
 70
     1
 71
     0
 91
        1
 92
        1
 93
        1
 72
     4
 94
        3
 73
     0
 74
     1
 95
       32
 96
       28
 40
0.0
 40
0.0
 40
0.0
 40
0.0
 40
1.0
 40
1.0
 40
1.0
 40
2.0
 40
2.0
 40
2.0
 40
3.0
 40
3.0
 40
3.0
 40
4.0
 40
4.0
 40
4.0
 40
5.0
 40
5.0
 40
5.0
 40
6.0
 40
6.0
 40
6.0
 40
7.0
 40
7.0
 40
7.0
 40
8.0
 40
8.0
 40
8.0
 40
9.0
 40
9.0
 40
9.0
 40
9.0
 10
2002.1824
 20
-1626.4751
 10
2003.3327
 20
-1624.387500000001
 10
2005.244000000001
 20
-1623.089900000001
 10
2007.4295
 20
-1622.900799999999
 10
2009.5127
 20
-1622.7304
 10
2011.4822
 20
-1623.6109
 10
2012.8336
 20
-1625.318799999999
 10
2012.8336
 20
-1625.318799999999
 10
2012.8478
 20
-1625.335300000001
 10
2012.8478
 20
-1625.335300000001
 10
2015.0849
 20
-1628.241400000001
 10
2014.1513
 20
-1631.1826
 10
2013.0877
 20
-1633.422700000001
 10
2013.0877
 20
-1633.422700000001
 10
1995.619000000001
 20
-1670.044100000001
 10
1995.619000000001
 20
-1670.044100000001
 10
1994.6982
 20
-1671.651100000001
 10
1993.2534
 20
-1672.710999999999
 10
1991.6321
 20
-1673.116899999999
 10
1990.2711
 20
-1673.457
 10
1988.7873
 20
-1673.336600000001
 10
1987.3813
 20
-1672.684800000001
 10
1984.3833
 20
-1671.2968
 10
1983.0536
 20
-1668.1052
 10
1984.1628
 20
-1664.5167
 10
1984.1628
 20
-1664.5167
 10
2002.1824
 20
-1626.4751
 10
2002.1824
 20
-1626.4751
 97
        0
 97
        0
 75
     2
 76
     1
 98
        0
  0
SPLINE
  5
69
330
1F
100
AcDbEntity
  8
Layer 1
370
     0
100
AcDbSpline
210
0.0
220
0.0
230
1.0
 70
    11
 71
     3
 72
    32
 73
    28
 74
     0
 42
0.0000000001
 43
0.0000000001
 12
1.0
 22
0.0
 32
0.0
 13
1.0
 23
0.0
 33
0.0
 40
0.0
 40
0.0
 40
0.0
 40
0.0
 40
1.0
 40
1.0
 40
1.0
 40
2.0
 40
2.0
 40
2.0
 40
3.0
 40
3.0
 40
3.0
 40
4.0
 40
4.0
 40
4.0
 40
5.0
 40
5.0
 40
5.0
 40
6.0
 40
6.0
 40
6.0
 40
7.0
 40
7.0
 40
7.0
 40
8.0
 40
8.0
 40
8.0
 40
9.0
 40
9.0
 40
9.0
 40
9.0
 10
2114.058800000001
 20
-1642.1679
 30
0.0
 10
2115.6822
 20
-1640.8539
 30
0.0
 10
2117.806500000001
 20
-1640.4727
 30
0.0
 10
2119.8851
 20
-1641.126700000001
 30
0.0
 10
2119.8851
 20
-1641.126700000001
 30
0.0
 10
2119.9046
 20
-1641.134899999999
 30
0.0
 10
2119.9046
 20
-1641.134899999999
 30
0.0
 10
2123.3862
 20
-1642.273999999999
 30
0.0
 10
2124.2719
 20
-1645.2294
 30
0.0
 10
2124.6554
 20
-1647.6803
 30
0.0
 10
2124.6554
 20
-1647.6803
 30
0.0
 10
2130.8405
 20
-1687.784100000001
 30
0.0
 10
2130.8405
 20
-1687.784100000001
 30
0.0
 10
2131.0872
 20
-1690.991400000001
 30
0.0
 10
2129.105
 20
-1693.7294
 30
0.0
 10
2126.0688
 20
-1694.4895
 30
0.0
 10
2125.8902
 20
-1694.533600000001
 30
0.0
 10
2125.707
 20
-1694.5695
 30
0.0
 10
2125.5202
 20
-1694.6001
 30
0.0
 10
2122.2598
 20
-1695.147300000001
 30
0.0
 10
2119.3627
 20
-1693.255499999999
 30
0.0
 10
2118.2587
 20
-1689.663200000001
 30
0.0
 10
2118.2587
 20
-1689.663200000001
 30
0.0
 10
2111.7289
 20
-1648.0787
 30
0.0
 10
2111.7289
 20
-1648.0787
 30
0.0
 10
2111.5032
 20
-1645.701800000001
 30
0.0
 10
2112.3531
 20
-1643.5484
 30
0.0
 10
2114.058800000001
 20
-1642.1679
 30
0.0
  0
HATCH
  5
6A
330
1F
100
AcDbEntity
  8
Layer 1
 62
    35
420
 10579544
100
AcDbHatch
 10
0.0
 20
0.0
 30
0.0
210
0.0
220
0.0
230
1.0
  2
SOLID
 70
     1
 71
     0
 91
        1
 92
        1
 93
        1
 72
     4
 94
        3
 73
     0
 74
     1
 95
       32
 96
       28
 40
0.0
 40
0.0
 40
0.0
 40
0.0
 40
1.0
 40
1.0
 40
1.0
 40
2.0
 40
2.0
 40
2.0
 40
3.0
 40
3.0
 40
3.0
 40
4.0
 40
4.0
 40
4.0
 40
5.0
 40
5.0
 40
5.0
 40
6.0
 40
6.0
 40
6.0
 40
7.0
 40
7.0
 40
7.0
 40
8.0
 40
8.0
 40
8.0
 40
9.0
 40
9.0
 40
9.0
 40
9.0
 10
2114.058800000001
 20
-1642.1679
 10
2115.6822
 20
-1640.8539
 10
2117.806500000001
 20
-1640.4727
 10
2119.8851
 20
-1641.126700000001
 10
2119.8851
 20
-1641.126700000001
 10
2119.9046
 20
-1641.134899999999
 10
2119.9046
 20
-1641.134899999999
 10
2123.3862
 20
-1642.273999999999
 10
2124.2719
 20
-1645.2294
 10
2124.6554
 20
-1647.6803
 10
2124.6554
 20
-1647.6803
 10
2130.8405
 20
-1687.784100000001
 10
2130.8405
 20
-1687.784100000001
 10
2131.0872
 20
-1690.991400000001
 10
2129.105
 20
-1693.7294
 10
2126.0688
 20
-1694.4895
 10
2125.8902
 20
-1694.533600000001
 10
2125.707
 20
-1694.5695
 10
2125.5202
 20
-1694.6001
 10
2122.2598
 20
-1695.147300000001
 10
2119.3627
 20
-1693.255499999999
 10
2118.2587
 20
-1689.663200000001
 10
2118.2587
 20
-1689.663200000001
 10
2111.7289
 20
-1648.0787
 10
2111.7289
 20
-1648.0787
 10
2111.5032
 20
-1645.701800000001
 10
2112.3531
 20
-1643.5484
 10
2114.058800000001
 20
-1642.1679
 97
        0
 97
        0
 75
     2
 76
     1
 98
        0
  0
SPLINE
  5
6B
330
1F
100
AcDbEntity
  8
Layer 1
370
     0
100
AcDbSpline
210
0.0
220
0.0
230
1.0
 70
    11
 71
     3
 72
    29
 73
    25
 74
     0
 42
0.0000000001
 43
0.0000000001
 12
1.0
 22
0.0
 32
0.0
 13
1.0
 23
0.0
 33
0.0
 40
0.0
 40
0.0
 40
0.0
 40
0.0
 40
1.0
 40
1.0
 40
1.0
 40
2.0
 40
2.0
 40
2.0
 40
3.0
 40
3.0
 40
3.0
 40
4.0
 40
4.0
 40
4.0
 40
5.0
 40
5.0
 40
5.0
 40
6.0
 40
6.0
 40
6.0
 40
7.0
 40
7.0
 40
7.0
 40
8.0
 40
8.0
 40
8.0
 40
8.0
 10
2224.2526
 20
-1600.054900000001
 30
0.0
 10
2227.7814
 20
-1598.9846
 30
0.0
 10
2230.162
 20
-1601.0057
 30
0.0
 10
2231.8534
 20
-1602.825000000001
 30
0.0
 10
2231.8534
 20
-1602.825000000001
 30
0.0
 10
2259.415000000001
 20
-1632.6005
 30
0.0
 10
2259.415000000001
 20
-1632.6005
 30
0.0
 10
2261.532500000001
 20
-1635.267400000001
 30
0.0
 10
2261.285100000001
 20
-1638.896999999999
 30
0.0
 10
2258.8231
 20
-1641.230600000001
 30
0.0
 10
2257.9926
 20
-1642.018399999999
 30
0.0
 10
2257.0329
 20
-1642.5409
 30
0.0
 10
2256.0208
 20
-1642.7935
 30
0.0
 10
2254.1126
 20
-1643.2711
 30
0.0
 10
2252.012999999999
 20
-1642.7965
 30
0.0
 10
2250.2191
 20
-1641.363600000001
 30
0.0
 10
2250.2191
 20
-1641.363600000001
 30
0.0
 10
2221.361499999999
 20
-1610.384
 30
0.0
 10
2221.361499999999
 20
-1610.384
 30
0.0
 10
2219.847099999999
 20
-1608.543
 30
0.0
 10
2219.346300000001
 20
-1606.281999999999
 30
0.0
 10
2219.9869
 20
-1604.1839
 30
0.0
 10
2220.596799999999
 20
-1602.1852
 30
0.0
 10
2222.1456
 20
-1600.683500000001
 30
0.0
 10
2224.2526
 20
-1600.054900000001
 30
0.0
  0
HATCH
  5
6C
330
1F
100
AcDbEntity
  8
Layer 1
 62
    35
420
 10579544
100
AcDbHatch
 10
0.0
 20
0.0
 30
0.0
210
0.0
220
0.0
230
1.0
  2
SOLID
 70
     1
 71
     0
 91
        1
 92
        1
 93
        1
 72
     4
 94
        3
 73
     0
 74
     1
 95
       29
 96
       25
 40
0.0
 40
0.0
 40
0.0
 40
0.0
 40
1.0
 40
1.0
 40
1.0
 40
2.0
 40
2.0
 40
2.0
 40
3.0
 40
3.0
 40
3.0
 40
4.0
 40
4.0
 40
4.0
 40
5.0
 40
5.0
 40
5.0
 40
6.0
 40
6.0
 40
6.0
 40
7.0
 40
7.0
 40
7.0
 40
8.0
 40
8.0
 40
8.0
 40
8.0
 10
2224.2526
 20
-1600.054900000001
 10
2227.7814
 20
-1598.9846
 10
2230.162
 20
-1601.0057
 10
2231.8534
 20
-1602.825000000001
 10
2231.8534
 20
-1602.825000000001
 10
2259.415000000001
 20
-1632.6005
 10
2259.415000000001
 20
-1632.6005
 10
2261.532500000001
 20
-1635.267400000001
 10
2261.285100000001
 20
-1638.896999999999
 10
2258.8231
 20
-1641.230600000001
 10
2257.9926
 20
-1642.018399999999
 10
2257.0329
 20
-1642.5409
 10
2256.0208
 20
-1642.7935
 10
2254.1126
 20
-1643.2711
 10
2252.012999999999
 20
-1642.7965
 10
2250.2191
 20
-1641.363600000001
 10
2250.2191
 20
-1641.363600000001
 10
2221.361499999999
 20
-1610.384
 10
2221.361499999999
 20
-1610.384
 10
2219.847099999999
 20
-1608.543
 10
2219.346300000001
 20
-1606.281999999999
 10
2219.9869
 20
-1604.1839
 10
2220.596799999999
 20
-1602.1852
 10
2222.1456
 20
-1600.683500000001
 10
2224.2526
 20
-1600.054900000001
 97
        0
 97
        0
 75
     2
 76
     1
 98
        0
  0
SPLINE
  5
6D
330
1F
100
AcDbEntity
  8
Layer 1
370
     0
100
AcDbSpline
210
0.0
220
0.0
230
1.0
 70
    11
 71
     3
 72
    29
 73
    25
 74
     0
 42
0.0000000001
 43
0.0000000001
 12
1.0
 22
0.0
 32
0.0
 13
1.0
 23
0.0
 33
0.0
 40
0.0
 40
0.0
 40
0.0
 40
0.0
 40
1.0
 40
1.0
 40
1.0
 40
2.0
 40
2.0
 40
2.0
 40
3.0
 40
3.0
 40
3.0
 40
4.0
 40
4.0
 40
4.0
 40
5.0
 40
5.0
 40
5.0
 40
6.0
 40
6.0
 40
6.0
 40
7.0
 40
7.0
 40
7.0
 40
8.0
 40
8.0
 40
8.0
 40
8.0
 10
2288.6389
 20
-1519.241899999999
 30
0.0
 10
2288.374299999999
 20
-1517.1677
 30
0.0
 10
2289.167300000001
 20
-1515.1623
 30
0.0
 10
2290.831099999999
 20
-1513.720499999999
 30
0.0
 10
2293.6356
 20
-1511.353300000001
 30
0.0
 10
2296.6149
 20
-1512.1621
 30
0.0
 10
2298.8984
 20
-1513.1248
 30
0.0
 10
2298.8984
 20
-1513.1248
 30
0.0
 10
2336.2583
 20
-1528.9581
 30
0.0
 10
2336.2583
 20
-1528.9581
 30
0.0
 10
2339.2863
 20
-1530.518700000001
 30
0.0
 10
2340.549500000001
 20
-1533.9301
 30
0.0
 10
2339.2623
 20
-1537.0687
 30
0.0
 10
2338.4692
 20
-1539.0016
 30
0.0
 10
2336.924999999999
 20
-1540.2991
 30
0.0
 10
2335.036899999999
 20
-1540.771500000001
 30
0.0
 10
2333.938200000001
 20
-1541.0466
 30
0.0
 10
2332.7228
 20
-1541.042100000001
 30
0.0
 10
2331.4701
 20
-1540.719999999999
 30
0.0
 10
2331.4701
 20
-1540.719999999999
 30
0.0
 10
2292.438900000001
 20
-1524.327600000001
 30
0.0
 10
2292.438900000001
 20
-1524.327600000001
 30
0.0
 10
2290.3027
 20
-1523.2714
 30
0.0
 10
2288.9169
 20
-1521.415500000001
 30
0.0
 10
2288.6389
 20
-1519.241899999999
 30
0.0
  0
HATCH
  5
6E
330
1F
100
AcDbEntity
  8
Layer 1
 62
    35
420
 10579544
100
AcDbHatch
 10
0.0
 20
0.0
 30
0.0
210
0.0
220
0.0
230
1.0
  2
SOLID
 70
     1
 71
     0
 91
        1
 92
        1
 93
        1
 72
     4
 94
        3
 73
     0
 74
     1
 95
       29
 96
       25
 40
0.0
 40
0.0
 40
0.0
 40
0.0
 40
1.0
 40
1.0
 40
1.0
 40
2.0
 40
2.0
 40
2.0
 40
3.0
 40
3.0
 40
3.0
 40
4.0
 40
4.0
 40
4.0
 40
5.0
 40
5.0
 40
5.0
 40
6.0
 40
6.0
 40
6.0
 40
7.0
 40
7.0
 40
7.0
 40
8.0
 40
8.0
 40
8.0
 40
8.0
 10
2288.6389
 20
-1519.241899999999
 10
2288.374299999999
 20
-1517.1677
 10
2289.167300000001
 20
-1515.1623
 10
2290.831099999999
 20
-1513.720499999999
 10
2293.6356
 20
-1511.353300000001
 10
2296.6149
 20
-1512.1621
 10
2298.8984
 20
-1513.1248
 10
2298.8984
 20
-1513.1248
 10
2336.2583
 20
-1528.9581
 10
2336.2583
 20
-1528.9581
 10
2339.2863
 20
-1530.518700000001
 10
2340.549500000001
 20
-1533.9301
 10
2339.2623
 20
-1537.0687
 10
2338.4692
 20
-1539.0016
 10
2336.924999999999
 20
-1540.2991
 10
2335.036899999999
 20
-1540.771500000001
 10
2333.938200000001
 20
-1541.0466
 10
2332.7228
 20
-1541.042100000001
 10
2331.4701
 20
-1540.719999999999
 10
2331.4701
 20
-1540.719999999999
 10
2292.438900000001
 20
-1524.327600000001
 10
2292.438900000001
 20
-1524.327600000001
 10
2290.3027
 20
-1523.2714
 10
2288.9169
 20
-1521.415500000001
 10
2288.6389
 20
-1519.241899999999
 97
        0
 97
        0
 75
     2
 76
     1
 98
        0
  0
SPLINE
  5
6F
330
1F
100
AcDbEntity
  8
Layer 1
370
     0
100
AcDbSpline
210
0.0
220
0.0
230
1.0
 70
    11
 71
     3
 72
   224
 73
   220
 74
     0
 42
0.0000000001
 43
0.0000000001
 12
1.0
 22
0.0
 32
0.0
 13
1.0
 23
0.0
 33
0.0
 40
0.0
 40
0.0
 40
0.0
 40
0.0
 40
1.0
 40
1.0
 40
1.0
 40
2.0
 40
2.0
 40
2.0
 40
3.0
 40
3.0
 40
3.0
 40
4.0
 40
4.0
 40
4.0
 40
5.0
 40
5.0
 40
5.0
 40
6.0
 40
6.0
 40
6.0
 40
7.0
 40
7.0
 40
7.0
 40
8.0
 40
8.0
 40
8.0
 40
9.0
 40
9.0
 40
9.0
 40
10.0
 40
10.0
 40
10.0
 40
11.0
 40
11.0
 40
11.0
 40
12.0
 40
12.0
 40
12.0
 40
13.0
 40
13.0
 40
13.0
 40
14.0
 40
14.0
 40
14.0
 40
15.0
 40
15.0
 40
15.0
 40
16.0
 40
16.0
 40
16.0
 40
17.0
 40
17.0
 40
17.0
 40
18.0
 40
18.0
 40
18.0
 40
19.0
 40
19.0
 40
19.0
 40
20.0
 40
20.0
 40
20.0
 40
21.0
 40
21.0
 40
21.0
 40
22.0
 40
22.0
 40
22.0
 40
23.0
 40
23.0
 40
23.0
 40
24.0
 40
24.0
 40
24.0
 40
25.0
 40
25.0
 40
25.0
 40
26.0
 40
26.0
 40
26.0
 40
27.0
 40
27.0
 40
27.0
 40
28.0
 40
28.0
 40
28.0
 40
29.0
 40
29.0
 40
29.0
 40
30.0
 40
30.0
 40
30.0
 40
31.0
 40
31.0
 40
31.0
 40
32.0
 40
32.0
 40
32.0
 40
33.0
 40
33.0
 40
33.0
 40
34.0
 40
34.0
 40
34.0
 40
35.0
 40
35.0
 40
35.0
 40
36.0
 40
36.0
 40
36.0
 40
37.0
 40
37.0
 40
37.0
 40
38.0
 40
38.0
 40
38.0
 40
39.0
 40
39.0
 40
39.0
 40
40.0
 40
40.0
 40
40.0
 40
41.0
 40
41.0
 40
41.0
 40
42.0
 40
42.0
 40
42.0
 40
43.0
 40
43.0
 40
43.0
 40
44.0
 40
44.0
 40
44.0
 40
45.0
 40
45.0
 40
45.0
 40
46.0
 40
46.0
 40
46.0
 40
47.0
 40
47.0
 40
47.0
 40
48.0
 40
48.0
 40
48.0
 40
49.0
 40
49.0
 40
49.0
 40
50.0
 40
50.0
 40
50.0
 40
51.0
 40
51.0
 40
51.0
 40
52.0
 40
52.0
 40
52.0
 40
53.0
 40
53.0
 40
53.0
 40
54.0
 40
54.0
 40
54.0
 40
55.0
 40
55.0
 40
55.0
 40
56.0
 40
56.0
 40
56.0
 40
57.0
 40
57.0
 40
57.0
 40
58.0
 40
58.0
 40
58.0
 40
59.0
 40
59.0
 40
59.0
 40
60.0
 40
60.0
 40
60.0
 40
61.0
 40
61.0
 40
61.0
 40
62.0
 40
62.0
 40
62.0
 40
63.0
 40
63.0
 40
63.0
 40
64.0
 40
64.0
 40
64.0
 40
65.0
 40
65.0
 40
65.0
 40
66.0
 40
66.0
 40
66.0
 40
67.0
 40
67.0
 40
67.0
 40
68.0
 40
68.0
 40
68.0
 40
69.0
 40
69.0
 40
69.0
 40
70.0
 40
70.0
 40
70.0
 40
71.0
 40
71.0
 40
71.0
 40
72.0
 40
72.0
 40
72.0
 40
73.0
 40
73.0
 40
73.0
 40
73.0
 10
1995.196
 20
-982.2635
 30
0.0
 10
2002.6271
 20
-949.8868000000002
 30
0.0
 10
2016.7659
 20
-915.8860000000004
 30
0.0
 10
2036.169
 20
-893.1477999999997
 30
0.0
 10
2038.4794
 20
-890.4396999999999
 30
0.0
 10
2041.233
 20
-889.6684000000005
 30
0.0
 10
2044.5749
 20
-890.5308999999997
 30
0.0
 10
2118.079299999999
 20
-909.5228999999999
 30
0.0
 10
2205.0595
 20
-910.9992000000002
 30
0.0
 10
2268.7978
 20
-957.5033999999996
 30
0.0
 10
2317.3418
 20
-992.9206000000004
 30
0.0
 10
2360.0056
 20
-1036.1861
 30
0.0
 10
2413.6338
 20
-1063.9704
 30
0.0
 10
2427.743399999999
 20
-1071.2805
 30
0.0
 10
2442.643899999999
 20
-1076.8468
 30
0.0
 10
2456.0375
 20
-1085.4686
 30
0.0
 10
2466.6019
 20
-1092.269
 30
0.0
 10
2473.3298
 20
-1102.4919
 30
0.0
 10
2479.938
 20
-1112.8859
 30
0.0
 10
2487.186
 20
-1124.2891
 30
0.0
 10
2495.4745
 20
-1134.6764
 30
0.0
 10
2504.482100000001
 20
-1144.7506
 30
0.0
 10
2524.0332
 20
-1166.6173
 30
0.0
 10
2545.948400000001
 20
-1186.2782
 30
0.0
 10
2568.8055
 20
-1204.6162
 30
0.0
 10
2574.875700000001
 20
-1209.4866
 30
0.0
 10
2580.189200000001
 20
-1214.9445
 30
0.0
 10
2583.8091
 20
-1221.8682
 30
0.0
 10
2595.0605
 20
-1243.3836
 30
0.0
 10
2608.1036
 20
-1263.8652
 30
0.0
 10
2619.9395
 20
-1285.0495
 30
0.0
 10
2630.512200000001
 20
-1303.972
 30
0.0
 10
2641.0924
 20
-1324.3573
 30
0.0
 10
2642.9827
 20
-1346.314399999999
 30
0.0
 10
2643.4782
 20
-1352.0653
 30
0.0
 10
2642.3339
 20
-1357.4089
 30
0.0
 10
2639.0967
 20
-1362.2852
 30
0.0
 10
2630.202000000001
 20
-1375.683300000001
 30
0.0
 10
2614.185600000001
 20
-1367.9838
 30
0.0
 10
2604.794600000001
 20
-1359.5555
 30
0.0
 10
2580.310300000001
 20
-1337.579
 30
0.0
 10
2576.1096
 20
-1303.1057
 30
0.0
 10
2554.0478
 20
-1279.6559
 30
0.0
 10
2548.0443
 20
-1273.2749
 30
0.0
 10
2541.383
 20
-1267.675
 30
0.0
 10
2534.630499999999
 20
-1262.1566
 30
0.0
 10
2532.9674
 20
-1260.7985
 30
0.0
 10
2531.773799999999
 20
-1259.3013
 30
0.0
 10
2531.136200000001
 20
-1257.1711
 30
0.0
 10
2529.8043
 20
-1252.7192
 30
0.0
 10
2527.978999999999
 20
-1248.4423
 30
0.0
 10
2526.1836
 20
-1244.1482
 30
0.0
 10
2523.3896
 20
-1237.4638
 30
0.0
 10
2519.563399999999
 20
-1231.3481
 30
0.0
 10
2516.161700000001
 20
-1225.000700000001
 30
0.0
 10
2510.7876
 20
-1214.9699
 30
0.0
 10
2505.434300000001
 20
-1204.9219
 30
0.0
 10
2499.4846
 20
-1195.2155
 30
0.0
 10
2492.83
 20
-1184.3633
 30
0.0
 10
2487.049199999999
 20
-1173.0536
 30
0.0
 10
2481.5525
 20
-1161.5892
 30
0.0
 10
2479.869999999999
 20
-1158.0814
 30
0.0
 10
2478.2196
 20
-1154.5586
 30
0.0
 10
2476.5468
 20
-1151.0463
 30
0.0
 10
2476.072200000001
 20
-1150.05
 30
0.0
 10
2475.428599999999
 20
-1149.0843
 30
0.0
 10
2474.1744
 20
-1149.6262
 30
0.0
 10
2472.920099999999
 20
-1150.1681
 30
0.0
 10
2473.2408
 20
-1151.3229
 30
0.0
 10
2473.550300000001
 20
-1152.3499
 30
0.0
 10
2473.6594
 20
-1152.7117
 30
0.0
 10
2473.8006
 20
-1153.0682
 30
0.0
 10
2473.963599999999
 20
-1153.409
 30
0.0
 10
2481.3058
 20
-1168.8155
 30
0.0
 10
2488.649600000001
 20
-1184.3685
 30
0.0
 10
2497.5584
 20
-1198.9139
 30
0.0
 10
2506.627199999999
 20
-1213.7202
 30
0.0
 10
2515.440399999999
 20
-1228.7537
 30
0.0
 10
2522.3215
 20
-1244.7245
 30
0.0
 10
2530.4845
 20
-1263.6709
 30
0.0
 10
2533.9452
 20
-1283.0792
 30
0.0
 10
2536.478999999999
 20
-1303.4316
 30
0.0
 10
2539.2102
 20
-1325.3686
 30
0.0
 10
2546.769899999999
 20
-1346.354799999999
 30
0.0
 10
2548.2147
 20
-1368.5825
 30
0.0
 10
2549.3434
 20
-1385.936900000001
 30
0.0
 10
2558.216400000001
 20
-1415.465
 30
0.0
 10
2546.6458
 20
-1430.6098
 30
0.0
 10
2539.740099999999
 20
-1439.648800000001
 30
0.0
 10
2526.639500000001
 20
-1440.1466
 30
0.0
 10
2517.718000000001
 20
-1433.8986
 30
0.0
 10
2515.2035
 20
-1432.1384
 30
0.0
 10
2514.899300000001
 20
-1431.346100000001
 30
0.0
 10
2516.0466
 20
-1428.465399999999
 30
0.0
 10
2517.350200000001
 20
-1425.196
 30
0.0
 10
2518.561099999999
 20
-1421.913200000001
 30
0.0
 10
2518.264300000001
 20
-1418.2821
 30
0.0
 10
2517.676100000001
 20
-1411.064
 30
0.0
 10
2516.2492
 20
-1404.005800000001
 30
0.0
 10
2514.0965
 20
-1397.1083
 30
0.0
 10
2495.581399999999
 20
-1337.788200000001
 30
0.0
 10
2487.2286
 20
-1271.9773
 30
0.0
 10
2457.837299999999
 20
-1216.7257
 30
0.0
 10
2448.1122
 20
-1198.4423
 30
0.0
 10
2436.5327
 20
-1181.289
 30
0.0
 10
2425.874
 20
-1163.5774
 30
0.0
 10
2425.3217
 20
-1162.6588
 30
0.0
 10
2424.585500000001
 20
-1162.1071
 30
0.0
 10
2423.5316
 20
-1162.6872
 30
0.0
 10
2422.4918
 20
-1163.259700000001
 30
0.0
 10
2422.4918
 20
-1164.2688
 30
0.0
 10
2422.944
 20
-1165.1747
 30
0.0
 10
2423.6631
 20
-1166.6143
 30
0.0
 10
2424.4606
 20
-1168.024
 30
0.0
 10
2425.339599999999
 20
-1169.3724
 30
0.0
 10
2443.1656
 20
-1196.7456
 30
0.0
 10
2460.606599999999
 20
-1224.5343
 30
0.0
 10
2471.242099999999
 20
-1255.5566
 30
0.0
 10
2481.356599999999
 20
-1285.0615
 30
0.0
 10
2487.565000000001
 20
-1315.6861
 30
0.0
 10
2495.558199999999
 20
-1345.788200000001
 30
0.0
 10
2499.794099999999
 20
-1361.739600000001
 30
0.0
 10
2504.5867
 20
-1377.524299999999
 30
0.0
 10
2509.492200000001
 20
-1393.2768
 30
0.0
 10
2512.062
 20
-1401.530199999999
 30
0.0
 10
2514.4022
 20
-1409.832200000001
 30
0.0
 10
2514.6212
 20
-1418.562400000001
 30
0.0
 10
2514.670599999999
 20
-1420.5558
 30
0.0
 10
2514.687
 20
-1422.5231
 30
0.0
 10
2513.8372
 20
-1424.422399999999
 30
0.0
 10
2511.326499999999
 20
-1430.0335
 30
0.0
 10
2505.340899999999
 20
-1432.3379
 30
0.0
 10
2498.408299999999
 20
-1430.598599999999
 30
0.0
 10
2488.3244
 20
-1428.0692
 30
0.0
 10
2481.465
 20
-1421.4722
 30
0.0
 10
2476.3472
 20
-1412.9498
 30
0.0
 10
2465.2588
 20
-1394.481
 30
0.0
 10
2460.2539
 20
-1373.5576
 30
0.0
 10
2453.2204
 20
-1353.4182
 30
0.0
 10
2443.700000000001
 20
-1326.158600000001
 30
0.0
 10
2431.450800000001
 20
-1300.0359
 30
0.0
 10
2421.1584
 20
-1273.0903
 30
0.0
 10
2415.0517
 20
-1257.1031
 30
0.0
 10
2405.6675
 20
-1243.5428
 30
0.0
 10
2391.932199999999
 20
-1233.2676
 30
0.0
 10
2387.8511
 20
-1230.2135
 30
0.0
 10
2385.277
 20
-1226.6272
 30
0.0
 10
2383.820900000001
 20
-1221.8009
 30
0.0
 10
2380.0134
 20
-1209.1749
 30
0.0
 10
2374.0951
 20
-1197.5184
 30
0.0
 10
2366.7626
 20
-1186.5847
 30
0.0
 10
2361.419
 20
-1178.6154
 30
0.0
 10
2356.4313
 20
-1170.4502
 30
0.0
 10
2352.317300000001
 20
-1161.7708
 30
0.0
 10
2351.8307
 20
-1160.7415
 30
0.0
 10
2351.338100000001
 20
-1159.7145
 30
0.0
 10
2350.812
 20
-1158.706200000001
 30
0.0
 10
2350.304400000001
 20
-1157.7345
 30
0.0
 10
2349.6086
 20
-1156.765100000001
 30
0.0
 10
2348.3894
 20
-1157.3092
 30
0.0
 10
2345.4355
 20
-1158.6263
 30
0.0
 10
2352.2904
 20
-1169.1743
 30
0.0
 10
2353.336800000001
 20
-1171.1251
 30
0.0
 10
2355.994000000001
 20
-1176.077
 30
0.0
 10
2358.860500000001
 20
-1180.9205
 30
0.0
 10
2362.0558
 20
-1185.5457
 30
0.0
 10
2376.445
 20
-1206.3742
 30
0.0
 10
2384.8927
 20
-1229.6469
 30
0.0
 10
2389.6144
 20
-1254.2328
 30
0.0
 10
2393.6738
 20
-1275.3678
 30
0.0
 10
2399.2603
 20
-1296.672399999999
 30
0.0
 10
2408.6947
 20
-1316.0695
 30
0.0
 10
2415.913500000001
 20
-1330.9102
 30
0.0
 10
2427.3577
 20
-1352.547399999999
 30
0.0
 10
2418.4645
 20
-1368.942800000001
 30
0.0
 10
2414.871500000001
 20
-1375.566699999999
 30
0.0
 10
2408.5272
 20
-1378.182000000001
 30
0.0
 10
2401.4002
 20
-1375.897800000001
 30
0.0
 10
2396.553
 20
-1374.3446
 30
0.0
 10
2392.7567
 20
-1371.218000000001
 30
0.0
 10
2389.330400000001
 20
-1367.6206
 30
0.0
 10
2367.6625
 20
-1344.874099999999
 30
0.0
 10
2365.266100000001
 20
-1312.262
 30
0.0
 10
2348.074700000001
 20
-1286.8815
 30
0.0
 10
2332.825199999999
 20
-1264.3683
 30
0.0
 10
2324.278900000001
 20
-1238.916
 30
0.0
 10
2305.596300000001
 20
-1218.5263
 30
0.0
 10
2292.6579
 20
-1204.4047
 30
0.0
 10
2272.598600000001
 20
-1195.3471
 30
0.0
 10
2257.127
 20
-1183.997
 30
0.0
 10
2236.666999999999
 20
-1168.9859
 30
0.0
 10
2214.3631
 20
-1157.8138
 30
0.0
 10
2192.8962
 20
-1144.5166
 30
0.0
 10
2168.3933
 20
-1129.3994
 30
0.0
 10
2145.0212
 20
-1109.7967
 30
0.0
 10
2137.2664
 20
-1080.8785
 30
0.0
 10
2133.7317
 20
-1067.695
 30
0.0
 10
2132.132900000001
 20
-1054.2775
 30
0.0
 10
2131.4871
 20
-1040.6978
 30
0.0
 10
2131.4183
 20
-1039.2514
 30
0.0
 10
2132.2047
 20
-1036.8529
 30
0.0
 10
2129.7538
 20
-1036.9396
 30
0.0
 10
2127.4142
 20
-1037.024
 30
0.0
 10
2128.1101
 20
-1039.4166
 30
0.0
 10
2128.1781
 20
-1040.8435
 30
0.0
 10
2128.805200000001
 20
-1053.9351
 30
0.0
 10
2130.1073
 20
-1066.9438
 30
0.0
 10
2133.5119
 20
-1079.6565
 30
0.0
 10
2134.2459
 20
-1082.4011
 30
0.0
 10
2134.2586
 20
-1082.3764
 30
0.0
 10
2131.448200000001
 20
-1082.2127
 30
0.0
 10
2085.1122
 20
-1079.5002
 30
0.0
 10
2039.342000000001
 20
-1076.8408
 30
0.0
 10
1992.8781
 20
-1077.518700000001
 30
0.0
 10
1988.575
 20
-1077.5808
 30
0.0
 10
1986.8738
 20
-1075.8482
 30
0.0
 10
1986.8716
 20
-1071.501
 30
0.0
 10
1986.8589
 20
-1047.6124
 30
0.0
 10
1985.4469
 20
-1024.7427
 30
0.0
 10
1995.196
 20
-982.2635
 30
0.0
  0
HATCH
  5
70
330
1F
100
AcDbEntity
  8
Layer 1
 62
    35
420
 10579544
100
AcDbHatch
 10
0.0
 20
0.0
 30
0.0
210
0.0
220
0.0
230
1.0
  2
SOLID
 70
     1
 71
     0
 91
        1
 92
        1
 93
        1
 72
     4
 94
        3
 73
     0
 74
     1
 95
      224
 96
      220
 40
0.0
 40
0.0
 40
0.0
 40
0.0
 40
1.0
 40
1.0
 40
1.0
 40
2.0
 40
2.0
 40
2.0
 40
3.0
 40
3.0
 40
3.0
 40
4.0
 40
4.0
 40
4.0
 40
5.0
 40
5.0
 40
5.0
 40
6.0
 40
6.0
 40
6.0
 40
7.0
 40
7.0
 40
7.0
 40
8.0
 40
8.0
 40
8.0
 40
9.0
 40
9.0
 40
9.0
 40
10.0
 40
10.0
 40
10.0
 40
11.0
 40
11.0
 40
11.0
 40
12.0
 40
12.0
 40
12.0
 40
13.0
 40
13.0
 40
13.0
 40
14.0
 40
14.0
 40
14.0
 40
15.0
 40
15.0
 40
15.0
 40
16.0
 40
16.0
 40
16.0
 40
17.0
 40
17.0
 40
17.0
 40
18.0
 40
18.0
 40
18.0
 40
19.0
 40
19.0
 40
19.0
 40
20.0
 40
20.0
 40
20.0
 40
21.0
 40
21.0
 40
21.0
 40
22.0
 40
22.0
 40
22.0
 40
23.0
 40
23.0
 40
23.0
 40
24.0
 40
24.0
 40
24.0
 40
25.0
 40
25.0
 40
25.0
 40
26.0
 40
26.0
 40
26.0
 40
27.0
 40
27.0
 40
27.0
 40
28.0
 40
28.0
 40
28.0
 40
29.0
 40
29.0
 40
29.0
 40
30.0
 40
30.0
 40
30.0
 40
31.0
 40
31.0
 40
31.0
 40
32.0
 40
32.0
 40
32.0
 40
33.0
 40
33.0
 40
33.0
 40
34.0
 40
34.0
 40
34.0
 40
35.0
 40
35.0
 40
35.0
 40
36.0
 40
36.0
 40
36.0
 40
37.0
 40
37.0
 40
37.0
 40
38.0
 40
38.0
 40
38.0
 40
39.0
 40
39.0
 40
39.0
 40
40.0
 40
40.0
 40
40.0
 40
41.0
 40
41.0
 40
41.0
 40
42.0
 40
42.0
 40
42.0
 40
43.0
 40
43.0
 40
43.0
 40
44.0
 40
44.0
 40
44.0
 40
45.0
 40
45.0
 40
45.0
 40
46.0
 40
46.0
 40
46.0
 40
47.0
 40
47.0
 40
47.0
 40
48.0
 40
48.0
 40
48.0
 40
49.0
 40
49.0
 40
49.0
 40
50.0
 40
50.0
 40
50.0
 40
51.0
 40
51.0
 40
51.0
 40
52.0
 40
52.0
 40
52.0
 40
53.0
 40
53.0
 40
53.0
 40
54.0
 40
54.0
 40
54.0
 40
55.0
 40
55.0
 40
55.0
 40
56.0
 40
56.0
 40
56.0
 40
57.0
 40
57.0
 40
57.0
 40
58.0
 40
58.0
 40
58.0
 40
59.0
 40
59.0
 40
59.0
 40
60.0
 40
60.0
 40
60.0
 40
61.0
 40
61.0
 40
61.0
 40
62.0
 40
62.0
 40
62.0
 40
63.0
 40
63.0
 40
63.0
 40
64.0
 40
64.0
 40
64.0
 40
65.0
 40
65.0
 40
65.0
 40
66.0
 40
66.0
 40
66.0
 40
67.0
 40
67.0
 40
67.0
 40
68.0
 40
68.0
 40
68.0
 40
69.0
 40
69.0
 40
69.0
 40
70.0
 40
70.0
 40
70.0
 40
71.0
 40
71.0
 40
71.0
 40
72.0
 40
72.0
 40
72.0
 40
73.0
 40
73.0
 40
73.0
 40
73.0
 10
1995.196
 20
-982.2635
 10
2002.6271
 20
-949.8868000000002
 10
2016.7659
 20
-915.8860000000004
 10
2036.169
 20
-893.1477999999997
 10
2038.4794
 20
-890.4396999999999
 10
2041.233
 20
-889.6684000000005
 10
2044.5749
 20
-890.5308999999997
 10
2118.079299999999
 20
-909.5228999999999
 10
2205.0595
 20
-910.9992000000002
 10
2268.7978
 20
-957.5033999999996
 10
2317.3418
 20
-992.9206000000004
 10
2360.0056
 20
-1036.1861
 10
2413.6338
 20
-1063.9704
 10
2427.743399999999
 20
-1071.2805
 10
2442.643899999999
 20
-1076.8468
 10
2456.0375
 20
-1085.4686
 10
2466.6019
 20
-1092.269
 10
2473.3298
 20
-1102.4919
 10
2479.938
 20
-1112.8859
 10
2487.186
 20
-1124.2891
 10
2495.4745
 20
-1134.6764
 10
2504.482100000001
 20
-1144.7506
 10
2524.0332
 20
-1166.6173
 10
2545.948400000001
 20
-1186.2782
 10
2568.8055
 20
-1204.6162
 10
2574.875700000001
 20
-1209.4866
 10
2580.189200000001
 20
-1214.9445
 10
2583.8091
 20
-1221.8682
 10
2595.0605
 20
-1243.3836
 10
2608.1036
 20
-1263.8652
 10
2619.9395
 20
-1285.0495
 10
2630.512200000001
 20
-1303.972
 10
2641.0924
 20
-1324.3573
 10
2642.9827
 20
-1346.314399999999
 10
2643.4782
 20
-1352.0653
 10
2642.3339
 20
-1357.4089
 10
2639.0967
 20
-1362.2852
 10
2630.202000000001
 20
-1375.683300000001
 10
2614.185600000001
 20
-1367.9838
 10
2604.794600000001
 20
-1359.5555
 10
2580.310300000001
 20
-1337.579
 10
2576.1096
 20
-1303.1057
 10
2554.0478
 20
-1279.6559
 10
2548.0443
 20
-1273.2749
 10
2541.383
 20
-1267.675
 10
2534.630499999999
 20
-1262.1566
 10
2532.9674
 20
-1260.7985
 10
2531.773799999999
 20
-1259.3013
 10
2531.136200000001
 20
-1257.1711
 10
2529.8043
 20
-1252.7192
 10
2527.978999999999
 20
-1248.4423
 10
2526.1836
 20
-1244.1482
 10
2523.3896
 20
-1237.4638
 10
2519.563399999999
 20
-1231.3481
 10
2516.161700000001
 20
-1225.000700000001
 10
2510.7876
 20
-1214.9699
 10
2505.434300000001
 20
-1204.9219
 10
2499.4846
 20
-1195.2155
 10
2492.83
 20
-1184.3633
 10
2487.049199999999
 20
-1173.0536
 10
2481.5525
 20
-1161.5892
 10
2479.869999999999
 20
-1158.0814
 10
2478.2196
 20
-1154.5586
 10
2476.5468
 20
-1151.0463
 10
2476.072200000001
 20
-1150.05
 10
2475.428599999999
 20
-1149.0843
 10
2474.1744
 20
-1149.6262
 10
2472.920099999999
 20
-1150.1681
 10
2473.2408
 20
-1151.3229
 10
2473.550300000001
 20
-1152.3499
 10
2473.6594
 20
-1152.7117
 10
2473.8006
 20
-1153.0682
 10
2473.963599999999
 20
-1153.409
 10
2481.3058
 20
-1168.8155
 10
2488.649600000001
 20
-1184.3685
 10
2497.5584
 20
-1198.9139
 10
2506.627199999999
 20
-1213.7202
 10
2515.440399999999
 20
-1228.7537
 10
2522.3215
 20
-1244.7245
 10
2530.4845
 20
-1263.6709
 10
2533.9452
 20
-1283.0792
 10
2536.478999999999
 20
-1303.4316
 10
2539.2102
 20
-1325.3686
 10
2546.769899999999
 20
-1346.354799999999
 10
2548.2147
 20
-1368.5825
 10
2549.3434
 20
-1385.936900000001
 10
2558.216400000001
 20
-1415.465
 10
2546.6458
 20
-1430.6098
 10
2539.740099999999
 20
-1439.648800000001
 10
2526.639500000001
 20
-1440.1466
 10
2517.718000000001
 20
-1433.8986
 10
2515.2035
 20
-1432.1384
 10
2514.899300000001
 20
-1431.346100000001
 10
2516.0466
 20
-1428.465399999999
 10
2517.350200000001
 20
-1425.196
 10
2518.561099999999
 20
-1421.913200000001
 10
2518.264300000001
 20
-1418.2821
 10
2517.676100000001
 20
-1411.064
 10
2516.2492
 20
-1404.005800000001
 10
2514.0965
 20
-1397.1083
 10
2495.581399999999
 20
-1337.788200000001
 10
2487.2286
 20
-1271.9773
 10
2457.837299999999
 20
-1216.7257
 10
2448.1122
 20
-1198.4423
 10
2436.5327
 20
-1181.289
 10
2425.874
 20
-1163.5774
 10
2425.3217
 20
-1162.6588
 10
2424.585500000001
 20
-1162.1071
 10
2423.5316
 20
-1162.6872
 10
2422.4918
 20
-1163.259700000001
 10
2422.4918
 20
-1164.2688
 10
2422.944
 20
-1165.1747
 10
2423.6631
 20
-1166.6143
 10
2424.4606
 20
-1168.024
 10
2425.339599999999
 20
-1169.3724
 10
2443.1656
 20
-1196.7456
 10
2460.606599999999
 20
-1224.5343
 10
2471.242099999999
 20
-1255.5566
 10
2481.356599999999
 20
-1285.0615
 10
2487.565000000001
 20
-1315.6861
 10
2495.558199999999
 20
-1345.788200000001
 10
2499.794099999999
 20
-1361.739600000001
 10
2504.5867
 20
-1377.524299999999
 10
2509.492200000001
 20
-1393.2768
 10
2512.062
 20
-1401.530199999999
 10
2514.4022
 20
-1409.832200000001
 10
2514.6212
 20
-1418.562400000001
 10
2514.670599999999
 20
-1420.5558
 10
2514.687
 20
-1422.5231
 10
2513.8372
 20
-1424.422399999999
 10
2511.326499999999
 20
-1430.0335
 10
2505.340899999999
 20
-1432.3379
 10
2498.408299999999
 20
-1430.598599999999
 10
2488.3244
 20
-1428.0692
 10
2481.465
 20
-1421.4722
 10
2476.3472
 20
-1412.9498
 10
2465.2588
 20
-1394.481
 10
2460.2539
 20
-1373.5576
 10
2453.2204
 20
-1353.4182
 10
2443.700000000001
 20
-1326.158600000001
 10
2431.450800000001
 20
-1300.0359
 10
2421.1584
 20
-1273.0903
 10
2415.0517
 20
-1257.1031
 10
2405.6675
 20
-1243.5428
 10
2391.932199999999
 20
-1233.2676
 10
2387.8511
 20
-1230.2135
 10
2385.277
 20
-1226.6272
 10
2383.820900000001
 20
-1221.8009
 10
2380.0134
 20
-1209.1749
 10
2374.0951
 20
-1197.5184
 10
2366.7626
 20
-1186.5847
 10
2361.419
 20
-1178.6154
 10
2356.4313
 20
-1170.4502
 10
2352.317300000001
 20
-1161.7708
 10
2351.8307
 20
-1160.7415
 10
2351.338100000001
 20
-1159.7145
 10
2350.812
 20
-1158.706200000001
 10
2350.304400000001
 20
-1157.7345
 10
2349.6086
 20
-1156.765100000001
 10
2348.3894
 20
-1157.3092
 10
2345.4355
 20
-1158.6263
 10
2352.2904
 20
-1169.1743
 10
2353.336800000001
 20
-1171.1251
 10
2355.994000000001
 20
-1176.077
 10
2358.860500000001
 20
-1180.9205
 10
2362.0558
 20
-1185.5457
 10
2376.445
 20
-1206.3742
 10
2384.8927
 20
-1229.6469
 10
2389.6144
 20
-1254.2328
 10
2393.6738
 20
-1275.3678
 10
2399.2603
 20
-1296.672399999999
 10
2408.6947
 20
-1316.0695
 10
2415.913500000001
 20
-1330.9102
 10
2427.3577
 20
-1352.547399999999
 10
2418.4645
 20
-1368.942800000001
 10
2414.871500000001
 20
-1375.566699999999
 10
2408.5272
 20
-1378.182000000001
 10
2401.4002
 20
-1375.897800000001
 10
2396.553
 20
-1374.3446
 10
2392.7567
 20
-1371.218000000001
 10
2389.330400000001
 20
-1367.6206
 10
2367.6625
 20
-1344.874099999999
 10
2365.266100000001
 20
-1312.262
 10
2348.074700000001
 20
-1286.8815
 10
2332.825199999999
 20
-1264.3683
 10
2324.278900000001
 20
-1238.916
 10
2305.596300000001
 20
-1218.5263
 10
2292.6579
 20
-1204.4047
 10
2272.598600000001
 20
-1195.3471
 10
2257.127
 20
-1183.997
 10
2236.666999999999
 20
-1168.9859
 10
2214.3631
 20
-1157.8138
 10
2192.8962
 20
-1144.5166
 10
2168.3933
 20
-1129.3994
 10
2145.0212
 20
-1109.7967
 10
2137.2664
 20
-1080.8785
 10
2133.7317
 20
-1067.695
 10
2132.132900000001
 20
-1054.2775
 10
2131.4871
 20
-1040.6978
 10
2131.4183
 20
-1039.2514
 10
2132.2047
 20
-1036.8529
 10
2129.7538
 20
-1036.9396
 10
2127.4142
 20
-1037.024
 10
2128.1101
 20
-1039.4166
 10
2128.1781
 20
-1040.8435
 10
2128.805200000001
 20
-1053.9351
 10
2130.1073
 20
-1066.9438
 10
2133.5119
 20
-1079.6565
 10
2134.2459
 20
-1082.4011
 10
2134.2586
 20
-1082.3764
 10
2131.448200000001
 20
-1082.2127
 10
2085.1122
 20
-1079.5002
 10
2039.342000000001
 20
-1076.8408
 10
1992.8781
 20
-1077.518700000001
 10
1988.575
 20
-1077.5808
 10
1986.8738
 20
-1075.8482
 10
1986.8716
 20
-1071.501
 10
1986.8589
 20
-1047.6124
 10
1985.4469
 20
-1024.7427
 10
1995.196
 20
-982.2635
 97
        0
 97
        0
 75
     2
 76
     1
 98
        0
  0
SPLINE
  5
71
330
1F
100
AcDbEntity
  8
Layer 1
370
     0
100
AcDbSpline
210
0.0
220
0.0
230
1.0
 70
    11
 71
     3
 72
    35
 73
    31
 74
     0
 42
0.0000000001
 43
0.0000000001
 12
1.0
 22
0.0
 32
0.0
 13
1.0
 23
0.0
 33
0.0
 40
0.0
 40
0.0
 40
0.0
 40
0.0
 40
1.0
 40
1.0
 40
1.0
 40
2.0
 40
2.0
 40
2.0
 40
3.0
 40
3.0
 40
3.0
 40
4.0
 40
4.0
 40
4.0
 40
5.0
 40
5.0
 40
5.0
 40
6.0
 40
6.0
 40
6.0
 40
7.0
 40
7.0
 40
7.0
 40
8.0
 40
8.0
 40
8.0
 40
9.0
 40
9.0
 40
9.0
 40
10.0
 40
10.0
 40
10.0
 40
10.0
 10
2565.8755
 20
-1196.9892
 30
0.0
 10
2564.7304
 20
-1197.1283
 30
0.0
 10
2564.0996
 20
-1196.4832
 30
0.0
 10
2563.4059
 20
-1195.8837
 30
0.0
 10
2546.4231
 20
-1181.1806
 30
0.0
 10
2529.982899999999
 20
-1165.9072
 30
0.0
 10
2514.142900000001
 20
-1149.9648
 30
0.0
 10
2505.561400000001
 20
-1141.3272
 30
0.0
 10
2497.779699999999
 20
-1132.073
 30
0.0
 10
2490.4038
 20
-1122.4339
 30
0.0
 10
2489.903
 20
-1121.7799
 30
0.0
 10
2488.990400000001
 20
-1120.593699999999
 30
0.0
 10
2489.229600000001
 20
-1120.3694
 30
0.0
 10
2489.556199999999
 20
-1120.063
 30
0.0
 10
2490.6572
 20
-1120.6901
 30
0.0
 10
2491.347900000001
 20
-1121.0272
 30
0.0
 10
2506.6818
 20
-1128.5323
 30
0.0
 10
2522.7909
 20
-1134.8005
 30
0.0
 10
2539.066699999999
 20
-1139.9422
 30
0.0
 10
2549.7829
 20
-1143.3289
 30
0.0
 10
2561.081399999999
 20
-1144.8403
 30
0.0
 10
2571.8506
 20
-1147.9938
 30
0.0
 10
2576.825700000001
 20
-1149.4498
 30
0.0
 10
2581.687099999999
 20
-1151.2571
 30
0.0
 10
2586.325800000001
 20
-1153.7611
 30
0.0
 10
2600.644
 20
-1161.4905
 30
0.0
 10
2601.2981
 20
-1181.2808
 30
0.0
 10
2587.950000000001
 20
-1190.23
 30
0.0
 10
2581.255799999999
 20
-1194.7192
 30
0.0
 10
2573.6386
 20
-1196.0407
 30
0.0
 10
2565.8755
 20
-1196.9892
 30
0.0
  0
HATCH
  5
72
330
1F
100
AcDbEntity
  8
Layer 1
 62
    35
420
 10579544
100
AcDbHatch
 10
0.0
 20
0.0
 30
0.0
210
0.0
220
0.0
230
1.0
  2
SOLID
 70
     1
 71
     0
 91
        1
 92
        1
 93
        1
 72
     4
 94
        3
 73
     0
 74
     1
 95
       35
 96
       31
 40
0.0
 40
0.0
 40
0.0
 40
0.0
 40
1.0
 40
1.0
 40
1.0
 40
2.0
 40
2.0
 40
2.0
 40
3.0
 40
3.0
 40
3.0
 40
4.0
 40
4.0
 40
4.0
 40
5.0
 40
5.0
 40
5.0
 40
6.0
 40
6.0
 40
6.0
 40
7.0
 40
7.0
 40
7.0
 40
8.0
 40
8.0
 40
8.0
 40
9.0
 40
9.0
 40
9.0
 40
10.0
 40
10.0
 40
10.0
 40
10.0
 10
2565.8755
 20
-1196.9892
 10
2564.7304
 20
-1197.1283
 10
2564.0996
 20
-1196.4832
 10
2563.4059
 20
-1195.8837
 10
2546.4231
 20
-1181.1806
 10
2529.982899999999
 20
-1165.9072
 10
2514.142900000001
 20
-1149.9648
 10
2505.561400000001
 20
-1141.3272
 10
2497.779699999999
 20
-1132.073
 10
2490.4038
 20
-1122.4339
 10
2489.903
 20
-1121.7799
 10
2488.990400000001
 20
-1120.593699999999
 10
2489.229600000001
 20
-1120.3694
 10
2489.556199999999
 20
-1120.063
 10
2490.6572
 20
-1120.6901
 10
2491.347900000001
 20
-1121.0272
 10
2506.6818
 20
-1128.5323
 10
2522.7909
 20
-1134.8005
 10
2539.066699999999
 20
-1139.9422
 10
2549.7829
 20
-1143.3289
 10
2561.081399999999
 20
-1144.8403
 10
2571.8506
 20
-1147.9938
 10
2576.825700000001
 20
-1149.4498
 10
2581.687099999999
 20
-1151.2571
 10
2586.325800000001
 20
-1153.7611
 10
2600.644
 20
-1161.4905
 10
2601.2981
 20
-1181.2808
 10
2587.950000000001
 20
-1190.23
 10
2581.255799999999
 20
-1194.7192
 10
2573.6386
 20
-1196.0407
 10
2565.8755
 20
-1196.9892
 97
        0
 97
        0
 75
     2
 76
     1
 98
        0
  0
ENDSEC
  0
SECTION
  2
OBJECTS
  0
DICTIONARY
  5
C
330
0
100
AcDbDictionary
281
     1
  3
ACAD_GROUP
350
D
  3
ACAD_LAYOUT
350
1A
  3
ACAD_MATERIAL
350
3B
  3
ACAD_MLEADERSTYLE
350
74
  3
ACAD_MLINESTYLE
350
17
  3
ACAD_PLOTSETTINGS
350
19
  3
ACAD_PLOTSTYLENAME
350
E
  3
ACAD_TABLESTYLE
350
73
  3
ACAD_VISUALSTYLE
350
2A
  0
SUN
  5
3F
330
29
100
AcDbSun
 90
        1
290
     0
 63
     7
421
 16777215
 40
1.0
291
     1
 91
  2455826
 92
 54000000
292
     0
 70
     2
 71
   256
280
     1
  0
DICTIONARY
  5
D
102
{ACAD_REACTORS
330
C
102
}
330
C
100
AcDbDictionary
281
     1
  0
DICTIONARY
  5
1A
102
{ACAD_REACTORS
330
C
102
}
330
C
100
AcDbDictionary
281
     1
  3
Layout1
350
1E
  3
Layout2
350
26
  3
Model
350
22
  0
DICTIONARY
  5
3B
102
{ACAD_REACTORS
330
C
102
}
330
C
100
AcDbDictionary
281
     1
  3
ByBlock
350
3D
  3
ByLayer
350
3C
  3
Global
350
3E
  0
DICTIONARY
  5
74
102
{ACAD_REACTORS
330
C
102
}
330
C
100
AcDbDictionary
281
     1
  0
DICTIONARY
  5
17
102
{ACAD_REACTORS
330
C
102
}
330
C
100
AcDbDictionary
281
     1
  3
Standard
350
18
  0
DICTIONARY
  5
19
102
{ACAD_REACTORS
330
C
102
}
330
C
100
AcDbDictionary
281
     1
  0
ACDBDICTIONARYWDFLT
  5
E
102
{ACAD_REACTORS
330
C
102
}
330
C
100
AcDbDictionary
281
     1
  3
Normal
350
F
100
AcDbDictionaryWithDefault
340
F
  0
DICTIONARY
  5
73
102
{ACAD_REACTORS
330
C
102
}
330
C
100
AcDbDictionary
281
     1
  0
DICTIONARY
  5
2A
102
{ACAD_REACTORS
330
C
102
}
330
C
100
AcDbDictionary
281
     1
  3
2dWireframe
350
2F
  3
3D Hidden
350
31
  3
3dWireframe
350
30
  3
Basic
350
32
  3
Brighten
350
36
  3
ColorChange
350
3A
  3
Conceptual
350
34
  3
Dim
350
35
  3
Facepattern
350
39
  3
Flat
350
2B
  3
FlatWithEdges
350
2C
  3
Gouraud
350
2D
  3
GouraudWithEdges
350
2E
  3
Linepattern
350
38
  3
Realistic
350
33
  3
Thicken
350
37
  0
LAYOUT
  5
1E
102
{ACAD_REACTORS
330
1A
102
}
330
1A
100
AcDbPlotSettings
  1

  2
none_device
  4

  6

 40
0.0
 41
0.0
 42
0.0
 43
0.0
 44
0.0
 45
0.0
 46
0.0
 47
0.0
 48
0.0
 49
0.0
140
0.0
141
0.0
142
1.0
143
1.0
 70
   688
 72
     0
 73
     0
 74
     5
  7

 75
    16
 76
     0
 77
     2
 78
   300
147
1.0
148
0.0
149
0.0
100
AcDbLayout
  1
Layout1
 70
     1
 71
     1
 10
0.0
 20
0.0
 11
12.0
 21
9.0
 12
0.0
 22
0.0
 32
0.0
 14
1.000000000000000E+20
 24
1.000000000000000E+20
 34
1.000000000000000E+20
 15
-1.000000000000000E+20
 25
-1.000000000000000E+20
 35
-1.000000000000000E+20
146
0.0
 13
0.0
 23
0.0
 33
0.0
 16
1.0
 26
0.0
 36
0.0
 17
0.0
 27
1.0
 37
0.0
 76
     0
330
1B
  0
LAYOUT
  5
26
102
{ACAD_REACTORS
330
1A
102
}
330
1A
100
AcDbPlotSettings
  1

  2
none_device
  4

  6

 40
0.0
 41
0.0
 42
0.0
 43
0.0
 44
0.0
 45
0.0
 46
0.0
 47
0.0
 48
0.0
 49
0.0
140
0.0
141
0.0
142
1.0
143
1.0
 70
   688
 72
     0
 73
     0
 74
     5
  7

 75
    16
 76
     0
 77
     2
 78
   300
147
1.0
148
0.0
149
0.0
100
AcDbLayout
  1
Layout2
 70
     1
 71
     2
 10
0.0
 20
0.0
 11
0.0
 21
0.0
 12
0.0
 22
0.0
 32
0.0
 14
0.0
 24
0.0
 34
0.0
 15
0.0
 25
0.0
 35
0.0
146
0.0
 13
0.0
 23
0.0
 33
0.0
 16
1.0
 26
0.0
 36
0.0
 17
0.0
 27
1.0
 37
0.0
 76
     0
330
23
  0
LAYOUT
  5
22
102
{ACAD_REACTORS
330
1A
102
}
330
1A
100
AcDbPlotSettings
  1

  2
none_device
  4

  6

 40
0.0
 41
0.0
 42
0.0
 43
0.0
 44
0.0
 45
0.0
 46
0.0
 47
0.0
 48
0.0
 49
0.0
140
0.0
141
0.0
142
1.0
143
1.0
 70
  1712
 72
     0
 73
     0
 74
     0
  7

 75
     0
 76
     0
 77
     2
 78
   300
147
1.0
148
0.0
149
0.0
100
AcDbLayout
  1
Model
 70
     1
 71
     0
 10
0.0
 20
0.0
 11
12.0
 21
9.0
 12
0.0
 22
0.0
 32
0.0
 14
1.000000000000000E+20
 24
1.000000000000000E+20
 34
1.000000000000000E+20
 15
-1.000000000000000E+20
 25
-1.000000000000000E+20
 35
-1.000000000000000E+20
146
0.0
 13
0.0
 23
0.0
 33
0.0
 16
1.0
 26
0.0
 36
0.0
 17
0.0
 27
1.0
 37
0.0
 76
     0
330
1F
331
29
  0
MATERIAL
  5
3D
102
{ACAD_REACTORS
330
3B
102
}
330
3B
100
AcDbMaterial
  1
ByBlock
 72
     1
 94
      127
  0
MATERIAL
  5
3C
102
{ACAD_REACTORS
330
3B
102
}
330
3B
100
AcDbMaterial
  1
ByLayer
 72
     1
 94
      127
  0
MATERIAL
  5
3E
102
{ACAD_REACTORS
330
3B
102
}
330
3B
100
AcDbMaterial
  1
Global
 72
     1
 94
      127
  0
MLINESTYLE
  5
18
102
{ACAD_REACTORS
330
17
102
}
330
17
100
AcDbMlineStyle
  2
Standard
 70
     0
  3

 62
   256
 51
90.0
 52
90.0
 71
     2
 49
0.5
 62
   256
  6
BYLAYER
 49
-0.5
 62
   256
  6
BYLAYER
  0
ACDBPLACEHOLDER
  5
F
102
{ACAD_REACTORS
330
E
102
}
330
E
  0
VISUALSTYLE
  5
2F
102
{ACAD_REACTORS
330
2A
102
}
330
2A
100
AcDbVisualStyle
  2
2dWireframe
 70
     4
177
     2
291
     0
 71
     0
176
     1
 72
     2
176
     1
 73
     0
176
     1
 90
        0
176
     1
 40
-0.6
176
     1
 41
-30.0
176
     1
 62
     5
 63
     7
421
 16777215
176
     1
 74
     1
176
     1
 91
        4
176
     1
 64
     7
176
     1
 65
   257
176
     1
 75
     1
176
     1
175
     1
176
     1
 42
1.0
176
     1
 92
        0
176
     1
 66
   257
176
     1
 43
1.0
176
     1
 76
     1
176
     1
 77
     6
176
     1
 78
     2
176
     1
 67
     7
176
     1
 79
     5
176
     1
170
     0
176
     1
171
     0
176
     1
290
     0
176
     1
 93
        1
176
     1
 44
0.0
176
     1
173
     0
176
     1
  0
VISUALSTYLE
  5
31
102
{ACAD_REACTORS
330
2A
102
}
330
2A
100
AcDbVisualStyle
  2
3D Hidden
 70
     6
177
     2
291
     0
 71
     1
176
     1
 72
     2
176
     1
 73
     2
176
     1
 90
        0
176
     1
 40
-0.6
176
     1
 41
-30.0
176
     1
 62
     5
 63
     7
421
 16777215
176
     1
 74
     2
176
     1
 91
        2
176
     1
 64
     7
176
     1
 65
   257
176
     1
 75
     2
176
     1
175
     1
176
     1
 42
40.0
176
     1
 92
        0
176
     1
 66
   257
176
     1
 43
1.0
176
     1
 76
     1
176
     1
 77
     6
176
     1
 78
     2
176
     1
 67
     7
176
     1
 79
     3
176
     1
170
     0
176
     1
171
     0
176
     1
290
     0
176
     1
 93
        1
176
     1
 44
0.0
176
     1
173
     0
176
     1
  0
VISUALSTYLE
  5
30
102
{ACAD_REACTORS
330
2A
102
}
330
2A
100
AcDbVisualStyle
  2
3dWireframe
 70
     5
177
     2
291
     0
 71
     0
176
     1
 72
     2
176
     1
 73
     0
176
     1
 90
        0
176
     1
 40
-0.6
176
     1
 41
-30.0
176
     1
 62
     5
 63
     7
421
 16777215
176
     1
 74
     1
176
     1
 91
        4
176
     1
 64
     7
176
     1
 65
   257
176
     1
 75
     1
176
     1
175
     1
176
     1
 42
1.0
176
     1
 92
        0
176
     1
 66
   257
176
     1
 43
1.0
176
     1
 76
     1
176
     1
 77
     6
176
     1
 78
     2
176
     1
 67
     7
176
     1
 79
     5
176
     1
170
     0
176
     1
171
     0
176
     1
290
     0
176
     1
 93
        1
176
     1
 44
0.0
176
     1
173
     0
176
     1
  0
VISUALSTYLE
  5
32
102
{ACAD_REACTORS
330
2A
102
}
330
2A
100
AcDbVisualStyle
  2
Basic
 70
     7
177
     2
291
     1
 71
     1
176
     1
 72
     0
176
     1
 73
     1
176
     1
 90
        0
176
     1
 40
-0.6
176
     1
 41
-30.0
176
     1
 62
     5
 63
     7
421
 16777215
176
     1
 74
     0
176
     1
 91
        4
176
     1
 64
     7
176
     1
 65
   257
176
     1
 75
     1
176
     1
175
     1
176
     1
 42
1.0
176
     1
 92
        8
176
     1
 66
     7
176
     1
 43
1.0
176
     1
 76
     1
176
     1
 77
     6
176
     1
 78
     2
176
     1
 67
     7
176
     1
 79
     5
176
     1
170
     0
176
     1
171
     0
176
     1
290
     0
176
     1
 93
        1
176
     1
 44
0.0
176
     1
173
     0
176
     1
  0
VISUALSTYLE
  5
36
102
{ACAD_REACTORS
330
2A
102
}
330
2A
100
AcDbVisualStyle
  2
Brighten
 70
    12
177
     2
291
     1
 71
     2
176
     1
 72
     2
176
     1
 73
     0
176
     1
 90
        0
176
     1
 40
-0.6
176
     1
 41
-30.0
176
     1
 62
     5
 63
     7
421
 16777215
176
     1
 74
     1
176
     1
 91
        4
176
     1
 64
     7
176
     1
 65
   257
176
     1
 75
     1
176
     1
175
     1
176
     1
 42
1.0
176
     1
 92
        8
176
     1
 66
     7
176
     1
 43
1.0
176
     1
 76
     1
176
     1
 77
     6
176
     1
 78
     2
176
     1
 67
     7
176
     1
 79
     5
176
     1
170
     0
176
     1
171
     0
176
     1
290
     0
176
     1
 93
        1
176
     1
 44
50.0
176
     1
173
     0
176
     1
  0
VISUALSTYLE
  5
3A
102
{ACAD_REACTORS
330
2A
102
}
330
2A
100
AcDbVisualStyle
  2
ColorChange
 70
    16
177
     2
291
     1
 71
     2
176
     1
 72
     2
176
     1
 73
     3
176
     1
 90
        0
176
     1
 40
-0.6
176
     1
 41
-30.0
176
     1
 62
     5
 63
     8
421
  8421504
176
     1
 74
     1
176
     1
 91
        4
176
     1
 64
     7
176
     1
 65
   257
176
     1
 75
     1
176
     1
175
     1
176
     1
 42
1.0
176
     1
 92
        8
176
     1
 66
     8
424
  8421504
176
     1
 43
1.0
176
     1
 76
     1
176
     1
 77
     6
176
     1
 78
     2
176
     1
 67
     7
176
     1
 79
     5
176
     1
170
     0
176
     1
171
     0
176
     1
290
     0
176
     1
 93
        1
176
     1
 44
0.0
176
     1
173
     0
176
     1
  0
VISUALSTYLE
  5
34
102
{ACAD_REACTORS
330
2A
102
}
330
2A
100
AcDbVisualStyle
  2
Conceptual
 70
     9
177
     2
291
     0
 71
     3
176
     1
 72
     2
176
     1
 73
     0
176
     1
 90
        0
176
     1
 40
-0.6
176
     1
 41
-30.0
176
     1
 62
     5
 63
     7
421
 16777215
176
     1
 74
     2
176
     1
 91
        2
176
     1
 64
     7
176
     1
 65
   257
176
     1
 75
     1
176
     1
175
     1
176
     1
 42
40.0
176
     1
 92
        8
176
     1
 66
     7
176
     1
 43
1.0
176
     1
 76
     1
176
     1
 77
     6
176
     1
 78
     2
176
     1
 67
     7
176
     1
 79
     3
176
     1
170
     0
176
     1
171
     0
176
     1
290
     0
176
     1
 93
        1
176
     1
 44
0.0
176
     1
173
     0
176
     1
  0
VISUALSTYLE
  5
35
102
{ACAD_REACTORS
330
2A
102
}
330
2A
100
AcDbVisualStyle
  2
Dim
 70
    11
177
     2
291
     1
 71
     2
176
     1
 72
     2
176
     1
 73
     0
176
     1
 90
        0
176
     1
 40
-0.6
176
     1
 41
-30.0
176
     1
 62
     5
 63
     7
421
 16777215
176
     1
 74
     1
176
     1
 91
        4
176
     1
 64
     7
176
     1
 65
   257
176
     1
 75
     1
176
     1
175
     1
176
     1
 42
1.0
176
     1
 92
        8
176
     1
 66
     7
176
     1
 43
1.0
176
     1
 76
     1
176
     1
 77
     6
176
     1
 78
     2
176
     1
 67
     7
176
     1
 79
     5
176
     1
170
     0
176
     1
171
     0
176
     1
290
     0
176
     1
 93
        1
176
     1
 44
-50.0
176
     1
173
     0
176
     1
  0
VISUALSTYLE
  5
39
102
{ACAD_REACTORS
330
2A
102
}
330
2A
100
AcDbVisualStyle
  2
Facepattern
 70
    15
177
     2
291
     1
 71
     2
176
     1
 72
     2
176
     1
 73
     0
176
     1
 90
        0
176
     1
 40
-0.6
176
     1
 41
-30.0
176
     1
 62
     5
 63
     7
421
 16777215
176
     1
 74
     1
176
     1
 91
        4
176
     1
 64
     7
176
     1
 65
   257
176
     1
 75
     1
176
     1
175
     1
176
     1
 42
1.0
176
     1
 92
        8
176
     1
 66
     7
176
     1
 43
1.0
176
     1
 76
     1
176
     1
 77
     6
176
     1
 78
     2
176
     1
 67
     7
176
     1
 79
     5
176
     1
170
     0
176
     1
171
     0
176
     1
290
     0
176
     1
 93
        1
176
     1
 44
0.0
176
     1
173
     0
176
     1
  0
VISUALSTYLE
  5
2B
102
{ACAD_REACTORS
330
2A
102
}
330
2A
100
AcDbVisualStyle
  2
Flat
 70
     0
177
     2
291
     1
 71
     2
176
     1
 72
     1
176
     1
 73
     1
176
     1
 90
        2
176
     1
 40
-0.6
176
     1
 41
30.0
176
     1
 62
     5
 63
     7
421
 16777215
176
     1
 74
     0
176
     1
 91
        4
176
     1
 64
     7
176
     1
 65
   257
176
     1
 75
     1
176
     1
175
     1
176
     1
 42
1.0
176
     1
 92
        8
176
     1
 66
     7
176
     1
 43
1.0
176
     1
 76
     1
176
     1
 77
     6
176
     1
 78
     2
176
     1
 67
     7
176
     1
 79
     5
176
     1
170
     0
176
     1
171
     0
176
     1
290
     0
176
     1
 93
       13
176
     1
 44
0.0
176
     1
173
     0
176
     1
  0
VISUALSTYLE
  5
2C
102
{ACAD_REACTORS
330
2A
102
}
330
2A
100
AcDbVisualStyle
  2
FlatWithEdges
 70
     1
177
     2
291
     1
 71
     2
176
     1
 72
     1
176
     1
 73
     1
176
     1
 90
        2
176
     1
 40
-0.6
176
     1
 41
30.0
176
     1
 62
     5
 63
     7
421
 16777215
176
     1
 74
     1
176
     1
 91
        4
176
     1
 64
     7
176
     1
 65
   257
176
     1
 75
     1
176
     1
175
     1
176
     1
 42
1.0
176
     1
 92
        0
176
     1
 66
   257
176
     1
 43
1.0
176
     1
 76
     1
176
     1
 77
     6
176
     1
 78
     2
176
     1
 67
     7
176
     1
 79
     5
176
     1
170
     0
176
     1
171
     0
176
     1
290
     0
176
     1
 93
       13
176
     1
 44
0.0
176
     1
173
     0
176
     1
  0
VISUALSTYLE
  5
2D
102
{ACAD_REACTORS
330
2A
102
}
330
2A
100
AcDbVisualStyle
  2
Gouraud
 70
     2
177
     2
291
     1
 71
     2
176
     1
 72
     2
176
     1
 73
     1
176
     1
 90
        2
176
     1
 40
-0.6
176
     1
 41
30.0
176
     1
 62
     5
 63
     7
421
 16777215
176
     1
 74
     0
176
     1
 91
        4
176
     1
 64
     7
176
     1
 65
   257
176
     1
 75
     1
176
     1
175
     1
176
     1
 42
1.0
176
     1
 92
        0
176
     1
 66
     7
176
     1
 43
1.0
176
     1
 76
     1
176
     1
 77
     6
176
     1
 78
     2
176
     1
 67
     7
176
     1
 79
     5
176
     1
170
     0
176
     1
171
     0
176
     1
290
     0
176
     1
 93
       13
176
     1
 44
0.0
176
     1
173
     0
176
     1
  0
VISUALSTYLE
  5
2E
102
{ACAD_REACTORS
330
2A
102
}
330
2A
100
AcDbVisualStyle
  2
GouraudWithEdges
 70
     3
177
     2
291
     1
 71
     2
176
     1
 72
     2
176
     1
 73
     1
176
     1
 90
        2
176
     1
 40
-0.6
176
     1
 41
30.0
176
     1
 62
     5
 63
     7
421
 16777215
176
     1
 74
     1
176
     1
 91
        4
176
     1
 64
     7
176
     1
 65
   257
176
     1
 75
     1
176
     1
175
     1
176
     1
 42
1.0
176
     1
 92
        0
176
     1
 66
   257
176
     1
 43
1.0
176
     1
 76
     1
176
     1
 77
     6
176
     1
 78
     2
176
     1
 67
     7
176
     1
 79
     5
176
     1
170
     0
176
     1
171
     0
176
     1
290
     0
176
     1
 93
       13
176
     1
 44
0.0
176
     1
173
     0
176
     1
  0
VISUALSTYLE
  5
38
102
{ACAD_REACTORS
330
2A
102
}
330
2A
100
AcDbVisualStyle
  2
Linepattern
 70
    14
177
     2
291
     1
 71
     2
176
     1
 72
     2
176
     1
 73
     0
176
     1
 90
        0
176
     1
 40
-0.6
176
     1
 41
-30.0
176
     1
 62
     5
 63
     7
421
 16777215
176
     1
 74
     1
176
     1
 91
        4
176
     1
 64
     7
176
     1
 65
   257
176
     1
 75
     7
176
     1
175
     7
176
     1
 42
1.0
176
     1
 92
        8
176
     1
 66
     7
176
     1
 43
1.0
176
     1
 76
     1
176
     1
 77
     6
176
     1
 78
     2
176
     1
 67
     7
176
     1
 79
     5
176
     1
170
     0
176
     1
171
     0
176
     1
290
     0
176
     1
 93
        1
176
     1
 44
0.0
176
     1
173
     0
176
     1
  0
VISUALSTYLE
  5
33
102
{ACAD_REACTORS
330
2A
102
}
330
2A
100
AcDbVisualStyle
  2
Realistic
 70
     8
177
     2
291
     0
 71
     2
176
     1
 72
     2
176
     1
 73
     0
176
     1
 90
        0
176
     1
 40
-0.6
176
     1
 41
-30.0
176
     1
 62
     5
 63
     7
421
 16777215
176
     1
 74
     1
176
     1
 91
        0
176
     1
 64
     7
176
     1
 65
   257
176
     1
 75
     1
176
     1
175
     1
176
     1
 42
1.0
176
     1
 92
        8
176
     1
 66
     8
424
  7895160
176
     1
 43
1.0
176
     1
 76
     1
176
     1
 77
     6
176
     1
 78
     2
176
     1
 67
     7
176
     1
 79
     5
176
     1
170
     0
176
     1
171
     0
176
     1
290
     0
176
     1
 93
       13
176
     1
 44
0.0
176
     1
173
     0
176
     1
  0
VISUALSTYLE
  5
37
102
{ACAD_REACTORS
330
2A
102
}
330
2A
100
AcDbVisualStyle
  2
Thicken
 70
    13
177
     2
291
     1
 71
     2
176
     1
 72
     2
176
     1
 73
     0
176
     1
 90
        0
176
     1
 40
-0.6
176
     1
 41
-30.0
176
     1
 62
     5
 63
     7
421
 16777215
176
     1
 74
     1
176
     1
 91
        4
176
     1
 64
     7
176
     1
 65
   257
176
     1
 75
     1
176
     1
175
     1
176
     1
 42
1.0
176
     1
 92
       12
176
     1
 66
     7
176
     1
 43
1.0
176
     1
 76
     1
176
     1
 77
     6
176
     1
 78
     2
176
     1
 67
     7
176
     1
 79
     5
176
     1
170
     0
176
     1
171
     0
176
     1
290
     0
176
     1
 93
        1
176
     1
 44
0.0
176
     1
173
     0
176
     1
  0
ENDSEC
  0
EOF
