  0
SECTION
  2
HEADER
  9
$ACADVER
  1
AC1024
  9
$ACADMAINTVER
 70
     6
  9
$DWGCODEPAGE
  3
ANSI_1251
  9
$INSBASE
 10
0.0
 20
0.0
 30
0.0
  9
$EXTMIN
 10
1.000000000000000E+20
 20
1.000000000000000E+20
 30
1.000000000000000E+20
  9
$EXTMAX
 10
-1.000000000000000E+20
 20
-1.000000000000000E+20
 30
-1.000000000000000E+20
  9
$LIMMIN
 10
0.0
 20
0.0
  9
$LIMMAX
 10
12.0
 20
9.0
  9
$ORTHOMODE
 70
     0
  9
$REGENMODE
 70
     1
  9
$FILLMODE
 70
     1
  9
$QTEXTMODE
 70
     0
  9
$MIRRTEXT
 70
     1
  9
$LTSCALE
 40
1.0
  9
$ATTMODE
 70
     1
  9
$TEXTSIZE
 40
0.2
  9
$TRACEWID
 40
0.05
  9
$TEXTSTYLE
  7
Standard
  9
$CLAYER
  8
0
  9
$CELTYPE
  6
ByLayer
  9
$CECOLOR
 62
   256
  9
$CELTSCALE
 40
1.0
  9
$DISPSILH
 70
     0
  9
$DIMSCALE
 40
1.0
  9
$DIMASZ
 40
0.18
  9
$DIMEXO
 40
0.0625
  9
$DIMDLI
 40
0.38
  9
$DIMRND
 40
0.0
  9
$DIMDLE
 40
0.0
  9
$DIMEXE
 40
0.18
  9
$DIMTP
 40
0.0
  9
$DIMTM
 40
0.0
  9
$DIMTXT
 40
0.18
  9
$DIMCEN
 40
0.09
  9
$DIMTSZ
 40
0.0
  9
$DIMTOL
 70
     0
  9
$DIMLIM
 70
     0
  9
$DIMTIH
 70
     1
  9
$DIMTOH
 70
     1
  9
$DIMSE1
 70
     0
  9
$DIMSE2
 70
     0
  9
$DIMTAD
 70
     0
  9
$DIMZIN
 70
     0
  9
$DIMBLK
  1

  9
$DIMASO
 70
     1
  9
$DIMSHO
 70
     1
  9
$DIMPOST
  1

  9
$DIMAPOST
  1

  9
$DIMALT
 70
     0
  9
$DIMALTD
 70
     2
  9
$DIMALTF
 40
25.4
  9
$DIMLFAC
 40
1.0
  9
$DIMTOFL
 70
     0
  9
$DIMTVP
 40
0.0
  9
$DIMTIX
 70
     0
  9
$DIMSOXD
 70
     0
  9
$DIMSAH
 70
     0
  9
$DIMBLK1
  1

  9
$DIMBLK2
  1

  9
$DIMSTYLE
  2
Standard
  9
$DIMCLRD
 70
     0
  9
$DIMCLRE
 70
     0
  9
$DIMCLRT
 70
     0
  9
$DIMTFAC
 40
1.0
  9
$DIMGAP
 40
0.09
  9
$DIMJUST
 70
     0
  9
$DIMSD1
 70
     0
  9
$DIMSD2
 70
     0
  9
$DIMTOLJ
 70
     1
  9
$DIMTZIN
 70
     0
  9
$DIMALTZ
 70
     0
  9
$DIMALTTZ
 70
     0
  9
$DIMUPT
 70
     0
  9
$DIMDEC
 70
     4
  9
$DIMTDEC
 70
     4
  9
$DIMALTU
 70
     2
  9
$DIMALTTD
 70
     2
  9
$DIMTXSTY
  7
Standard
  9
$DIMAUNIT
 70
     0
  9
$DIMADEC
 70
     0
  9
$DIMALTRND
 40
0.0
  9
$DIMAZIN
 70
     0
  9
$DIMDSEP
 70
    46
  9
$DIMATFIT
 70
     3
  9
$DIMFRAC
 70
     0
  9
$DIMLDRBLK
  1

  9
$DIMLUNIT
 70
     2
  9
$DIMLWD
 70
    -2
  9
$DIMLWE
 70
    -2
  9
$DIMTMOVE
 70
     0
  9
$DIMFXL
 40
1.0
  9
$DIMFXLON
 70
     0
  9
$DIMJOGANG
 40
0.7853981633974483
  9
$DIMTFILL
 70
     0
  9
$DIMTFILLCLR
 70
     0
  9
$DIMARCSYM
 70
     0
  9
$DIMLTYPE
  6

  9
$DIMLTEX1
  6

  9
$DIMLTEX2
  6

  9
$DIMTXTDIRECTION
 70
     0
  9
$LUNITS
 70
     2
  9
$LUPREC
 70
     4
  9
$SKETCHINC
 40
0.1
  9
$FILLETRAD
 40
0.5
  9
$AUNITS
 70
     0
  9
$AUPREC
 70
     0
  9
$MENU
  1
.
  9
$ELEVATION
 40
0.0
  9
$PELEVATION
 40
0.0
  9
$THICKNESS
 40
0.0
  9
$LIMCHECK
 70
     0
  9
$CHAMFERA
 40
0.5
  9
$CHAMFERB
 40
0.5
  9
$CHAMFERC
 40
1.0
  9
$CHAMFERD
 40
0.0
  9
$SKPOLY
 70
     0
  9
$TDCREATE
 40
2459337.68070375
  9
$TDUCREATE
 40
2459337.55570375
  9
$TDUPDATE
 40
2459337.68070375
  9
$TDUUPDATE
 40
2459337.55570375
  9
$TDINDWG
 40
0.0000000116
  9
$TDUSRTIMER
 40
0.0000000116
  9
$USRTIMER
 70
     1
  9
$ANGBASE
 50
0.0
  9
$ANGDIR
 70
     0
  9
$PDMODE
 70
     0
  9
$PDSIZE
 40
0.0
  9
$PLINEWID
 40
0.0
  9
$SPLFRAME
 70
     0
  9
$SPLINETYPE
 70
     6
  9
$SPLINESEGS
 70
     8
  9
$HANDSEED
  5
49
  9
$SURFTAB1
 70
     6
  9
$SURFTAB2
 70
     6
  9
$SURFTYPE
 70
     6
  9
$SURFU
 70
     6
  9
$SURFV
 70
     6
  9
$UCSBASE
  2

  9
$UCSNAME
  2

  9
$UCSORG
 10
0.0
 20
0.0
 30
0.0
  9
$UCSXDIR
 10
1.0
 20
0.0
 30
0.0
  9
$UCSYDIR
 10
0.0
 20
1.0
 30
0.0
  9
$UCSORTHOREF
  2

  9
$UCSORTHOVIEW
 70
     0
  9
$UCSORGTOP
 10
0.0
 20
0.0
 30
0.0
  9
$UCSORGBOTTOM
 10
0.0
 20
0.0
 30
0.0
  9
$UCSORGLEFT
 10
0.0
 20
0.0
 30
0.0
  9
$UCSORGRIGHT
 10
0.0
 20
0.0
 30
0.0
  9
$UCSORGFRONT
 10
0.0
 20
0.0
 30
0.0
  9
$UCSORGBACK
 10
0.0
 20
0.0
 30
0.0
  9
$PUCSBASE
  2

  9
$PUCSNAME
  2

  9
$PUCSORG
 10
0.0
 20
0.0
 30
0.0
  9
$PUCSXDIR
 10
1.0
 20
0.0
 30
0.0
  9
$PUCSYDIR
 10
0.0
 20
1.0
 30
0.0
  9
$PUCSORTHOREF
  2

  9
$PUCSORTHOVIEW
 70
     0
  9
$PUCSORGTOP
 10
0.0
 20
0.0
 30
0.0
  9
$PUCSORGBOTTOM
 10
0.0
 20
0.0
 30
0.0
  9
$PUCSORGLEFT
 10
0.0
 20
0.0
 30
0.0
  9
$PUCSORGRIGHT
 10
0.0
 20
0.0
 30
0.0
  9
$PUCSORGFRONT
 10
0.0
 20
0.0
 30
0.0
  9
$PUCSORGBACK
 10
0.0
 20
0.0
 30
0.0
  9
$USERI1
 70
     0
  9
$USERI2
 70
     0
  9
$USERI3
 70
     0
  9
$USERI4
 70
     0
  9
$USERI5
 70
     0
  9
$USERR1
 40
0.0
  9
$USERR2
 40
0.0
  9
$USERR3
 40
0.0
  9
$USERR4
 40
0.0
  9
$USERR5
 40
0.0
  9
$WORLDVIEW
 70
     1
  9
$SHADEDGE
 70
     3
  9
$SHADEDIF
 70
    70
  9
$TILEMODE
 70
     1
  9
$MAXACTVP
 70
    64
  9
$PINSBASE
 10
0.0
 20
0.0
 30
0.0
  9
$PLIMCHECK
 70
     0
  9
$PEXTMIN
 10
1.000000000000000E+20
 20
1.000000000000000E+20
 30
1.000000000000000E+20
  9
$PEXTMAX
 10
-1.000000000000000E+20
 20
-1.000000000000000E+20
 30
-1.000000000000000E+20
  9
$PLIMMIN
 10
0.0
 20
0.0
  9
$PLIMMAX
 10
12.0
 20
9.0
  9
$UNITMODE
 70
     0
  9
$VISRETAIN
 70
     1
  9
$PLINEGEN
 70
     0
  9
$PSLTSCALE
 70
     1
  9
$TREEDEPTH
 70
  3020
  9
$CMLSTYLE
  2
Standard
  9
$CMLJUST
 70
     0
  9
$CMLSCALE
 40
1.0
  9
$PROXYGRAPHICS
 70
     1
  9
$MEASUREMENT
 70
     0
  9
$CELWEIGHT
370
    -1
  9
$ENDCAPS
280
     0
  9
$JOINSTYLE
280
     0
  9
$LWDISPLAY
290
     1
  9
$INSUNITS
 70
     1
  9
$HYPERLINKBASE
  1

  9
$STYLESHEET
  1

  9
$XEDIT
290
     1
  9
$CEPSNTYPE
380
     0
  9
$PSTYLEMODE
290
     1
  9
$FINGERPRINTGUID
  2
{2C0570D5-25B9-4F0B-A8B7-666C3DE704BB}
  9
$VERSIONGUID
  2
{FAEB1C32-E019-11D5-929B-00C0DF256EC4}
  9
$EXTNAMES
290
     1
  9
$PSVPSCALE
 40
0.0
  9
$OLESTARTUP
290
     0
  9
$SORTENTS
280
   127
  9
$INDEXCTL
280
     0
  9
$HIDETEXT
280
     1
  9
$XCLIPFRAME
280
     2
  9
$HALOGAP
280
     0
  9
$OBSCOLOR
 70
   257
  9
$OBSLTYPE
280
     0
  9
$INTERSECTIONDISPLAY
280
     0
  9
$INTERSECTIONCOLOR
 70
   257
  9
$DIMASSOC
280
     2
  9
$PROJECTNAME
  1

  9
$CAMERADISPLAY
290
     0
  9
$LENSLENGTH
 40
50.0
  9
$CAMERAHEIGHT
 40
0.0
  9
$STEPSPERSEC
 40
2.0
  9
$STEPSIZE
 40
6.0
  9
$3DDWFPREC
 40
2.0
  9
$PSOLWIDTH
 40
0.25
  9
$PSOLHEIGHT
 40
4.0
  9
$LOFTANG1
 40
1.570796326794897
  9
$LOFTANG2
 40
1.570796326794897
  9
$LOFTMAG1
 40
0.0
  9
$LOFTMAG2
 40
0.0
  9
$LOFTPARAM
 70
     7
  9
$LOFTNORMALS
280
     1
  9
$LATITUDE
 40
37.795
  9
$LONGITUDE
 40
-122.394
  9
$NORTHDIRECTION
 40
0.0
  9
$TIMEZONE
 70
 -8000
  9
$LIGHTGLYPHDISPLAY
280
     1
  9
$TILEMODELIGHTSYNCH
280
     1
  9
$CMATERIAL
347
3C
  9
$SOLIDHIST
280
     1
  9
$SHOWHIST
280
     1
  9
$DWFFRAME
280
     2
  9
$DGNFRAME
280
     2
  9
$REALWORLDSCALE
290
     1
  9
$INTERFERECOLOR
 62
   256
  9
$CSHADOW
280
     0
  9
$SHADOWPLANELOCATION
 40
0.0
  0
ENDSEC
  0
SECTION
  2
CLASSES
  0
CLASS
  1
ACDBDICTIONARYWDFLT
  2
AcDbDictionaryWithDefault
  3
ObjectDBX Classes
 90
        0
 91
        4
280
     0
281
     0
  0
CLASS
  1
VISUALSTYLE
  2
AcDbVisualStyle
  3
ObjectDBX Classes
 90
     4095
 91
        4
280
     0
281
     0
  0
CLASS
  1
MATERIAL
  2
AcDbMaterial
  3
ObjectDBX Classes
 90
     1153
 91
        4
280
     0
281
     0
  0
CLASS
  1
SUN
  2
AcDbSun
  3
SCENEOE
 90
     1024
 91
        4
280
     0
281
     0
  0
ENDSEC
  0
SECTION
  2
TABLES
  0
TABLE
  2
VPORT
  5
8
330
0
100
AcDbSymbolTable
 70
     1
  0
VPORT
  5
29
330
8
100
AcDbSymbolTableRecord
100
AcDbViewportTableRecord
  2
*Active
 70
     0
 10
0.0
 20
0.0
 11
1.0
 21
1.0
 12
0.0
 22
0.0
 13
0.0
 23
0.0
 14
0.5
 24
0.5
 15
0.5
 25
0.5
 16
0.0
 26
0.0
 36
1.0
 17
5.946528423344565
 27
-30.5541875
 37
0.0
 40
12.0
 41
0.3224700150018702
 42
50.0
 43
0.0
 44
0.0
 50
0.0
 51
0.0
 71
     0
 72
   100
 73
     1
 74
     3
 75
     0
 76
     0
 77
     0
 78
     0
281
     0
 65
     1
110
0.0
120
0.0
130
0.0
111
1.0
121
0.0
131
0.0
112
0.0
122
1.0
132
0.0
 79
     0
146
0.0
 60
     3
 61
     5
292
     1
282
     1
141
0.0
142
0.0
 63
   250
361
3F
  0
ENDTAB
  0
TABLE
  2
LTYPE
  5
5
330
0
100
AcDbSymbolTable
 70
     1
  0
LTYPE
  5
14
330
5
100
AcDbSymbolTableRecord
100
AcDbLinetypeTableRecord
  2
ByBlock
 70
     0
  3

 72
    65
 73
     0
 40
0.0
  0
LTYPE
  5
15
330
5
100
AcDbSymbolTableRecord
100
AcDbLinetypeTableRecord
  2
ByLayer
 70
     0
  3

 72
    65
 73
     0
 40
0.0
  0
LTYPE
  5
16
330
5
100
AcDbSymbolTableRecord
100
AcDbLinetypeTableRecord
  2
Continuous
 70
     0
  3
Solid line
 72
    65
 73
     0
 40
0.0
  0
ENDTAB
  0
TABLE
  2
LAYER
  5
2
330
0
100
AcDbSymbolTable
 70
     2
  0
LAYER
  5
10
330
2
100
AcDbSymbolTableRecord
100
AcDbLayerTableRecord
  2
0
 70
     0
 62
     7
  6
Continuous
370
    -3
390
F
347
3E
  0
LAYER
  5
40
330
2
100
AcDbSymbolTableRecord
100
AcDbLayerTableRecord
  2
Layer 1
 70
     0
 62
     7
  6
Continuous
370
    -3
390
F
347
3E
  0
ENDTAB
  0
TABLE
  2
STYLE
  5
3
330
0
100
AcDbSymbolTable
 70
     1
  0
STYLE
  5
11
330
3
100
AcDbSymbolTableRecord
100
AcDbTextStyleTableRecord
  2
Standard
 70
     0
 40
0.0
 41
1.0
 50
0.0
 71
     0
 42
0.2
  3
txt
  4

  0
ENDTAB
  0
TABLE
  2
VIEW
  5
6
330
0
100
AcDbSymbolTable
 70
     0
  0
ENDTAB
  0
TABLE
  2
UCS
  5
7
330
0
100
AcDbSymbolTable
 70
     0
  0
ENDTAB
  0
TABLE
  2
APPID
  5
9
330
0
100
AcDbSymbolTable
 70
     1
  0
APPID
  5
12
330
9
100
AcDbSymbolTableRecord
100
AcDbRegAppTableRecord
  2
ACAD
 70
     0
  0
ENDTAB
  0
TABLE
  2
DIMSTYLE
  5
A
330
0
100
AcDbSymbolTable
 70
     1
100
AcDbDimStyleTable
  0
DIMSTYLE
105
27
330
A
100
AcDbSymbolTableRecord
100
AcDbDimStyleTableRecord
  2
Standard
 70
     0
178
     0
340
11
  0
ENDTAB
  0
TABLE
  2
BLOCK_RECORD
  5
1
330
0
100
AcDbSymbolTable
 70
     1
  0
BLOCK_RECORD
  5
1F
330
1
100
AcDbSymbolTableRecord
100
AcDbBlockTableRecord
  2
*Model_Space
340
22
 70
     0
280
     1
281
     0
  0
BLOCK_RECORD
  5
1B
330
1
100
AcDbSymbolTableRecord
100
AcDbBlockTableRecord
  2
*Paper_Space
340
1E
 70
     0
280
     1
281
     0
  0
BLOCK_RECORD
  5
23
330
1
100
AcDbSymbolTableRecord
100
AcDbBlockTableRecord
  2
*Paper_Space0
340
26
 70
     0
280
     1
281
     0
  0
ENDTAB
  0
ENDSEC
  0
SECTION
  2
BLOCKS
  0
BLOCK
  5
20
330
1F
100
AcDbEntity
  8
0
100
AcDbBlockBegin
  2
*Model_Space
 70
     0
 10
0.0
 20
0.0
 30
0.0
  3
*Model_Space
  1

  0
ENDBLK
  5
21
330
1F
100
AcDbEntity
  8
0
100
AcDbBlockEnd
  0
BLOCK
  5
1C
330
1B
100
AcDbEntity
 67
     1
  8
0
100
AcDbBlockBegin
  2
*Paper_Space
 70
     0
 10
0.0
 20
0.0
 30
0.0
  3
*Paper_Space
  1

  0
ENDBLK
  5
1D
330
1B
100
AcDbEntity
 67
     1
  8
0
100
AcDbBlockEnd
  0
BLOCK
  5
24
330
23
100
AcDbEntity
  8
0
100
AcDbBlockBegin
  2
*Paper_Space0
 70
     0
 10
0.0
 20
0.0
 30
0.0
  3
*Paper_Space0
  1

  0
ENDBLK
  5
25
330
23
100
AcDbEntity
  8
0
100
AcDbBlockEnd
  0
ENDSEC
  0
SECTION
  2
ENTITIES
  0
SPLINE
  5
41
330
1F
100
AcDbEntity
  8
Layer 1
370
     0
100
AcDbSpline
210
0.0
220
0.0
230
1.0
 70
    11
 71
     3
 72
   278
 73
   274
 74
     0
 42
0.0000000001
 43
0.0000000001
 12
1.0
 22
0.0
 32
0.0
 13
1.0
 23
0.0
 33
0.0
 40
0.0
 40
0.0
 40
0.0
 40
0.0
 40
1.0
 40
1.0
 40
1.0
 40
2.0
 40
2.0
 40
2.0
 40
3.0
 40
3.0
 40
3.0
 40
4.0
 40
4.0
 40
4.0
 40
5.0
 40
5.0
 40
5.0
 40
6.0
 40
6.0
 40
6.0
 40
7.0
 40
7.0
 40
7.0
 40
8.0
 40
8.0
 40
8.0
 40
9.0
 40
9.0
 40
9.0
 40
10.0
 40
10.0
 40
10.0
 40
11.0
 40
11.0
 40
11.0
 40
12.0
 40
12.0
 40
12.0
 40
13.0
 40
13.0
 40
13.0
 40
14.0
 40
14.0
 40
14.0
 40
15.0
 40
15.0
 40
15.0
 40
16.0
 40
16.0
 40
16.0
 40
17.0
 40
17.0
 40
17.0
 40
18.0
 40
18.0
 40
18.0
 40
19.0
 40
19.0
 40
19.0
 40
20.0
 40
20.0
 40
20.0
 40
21.0
 40
21.0
 40
21.0
 40
22.0
 40
22.0
 40
22.0
 40
23.0
 40
23.0
 40
23.0
 40
24.0
 40
24.0
 40
24.0
 40
25.0
 40
25.0
 40
25.0
 40
26.0
 40
26.0
 40
26.0
 40
27.0
 40
27.0
 40
27.0
 40
28.0
 40
28.0
 40
28.0
 40
29.0
 40
29.0
 40
29.0
 40
30.0
 40
30.0
 40
30.0
 40
31.0
 40
31.0
 40
31.0
 40
32.0
 40
32.0
 40
32.0
 40
33.0
 40
33.0
 40
33.0
 40
34.0
 40
34.0
 40
34.0
 40
35.0
 40
35.0
 40
35.0
 40
36.0
 40
36.0
 40
36.0
 40
37.0
 40
37.0
 40
37.0
 40
38.0
 40
38.0
 40
38.0
 40
39.0
 40
39.0
 40
39.0
 40
40.0
 40
40.0
 40
40.0
 40
41.0
 40
41.0
 40
41.0
 40
42.0
 40
42.0
 40
42.0
 40
43.0
 40
43.0
 40
43.0
 40
44.0
 40
44.0
 40
44.0
 40
45.0
 40
45.0
 40
45.0
 40
46.0
 40
46.0
 40
46.0
 40
47.0
 40
47.0
 40
47.0
 40
48.0
 40
48.0
 40
48.0
 40
49.0
 40
49.0
 40
49.0
 40
50.0
 40
50.0
 40
50.0
 40
51.0
 40
51.0
 40
51.0
 40
52.0
 40
52.0
 40
52.0
 40
53.0
 40
53.0
 40
53.0
 40
54.0
 40
54.0
 40
54.0
 40
55.0
 40
55.0
 40
55.0
 40
56.0
 40
56.0
 40
56.0
 40
57.0
 40
57.0
 40
57.0
 40
58.0
 40
58.0
 40
58.0
 40
59.0
 40
59.0
 40
59.0
 40
60.0
 40
60.0
 40
60.0
 40
61.0
 40
61.0
 40
61.0
 40
62.0
 40
62.0
 40
62.0
 40
63.0
 40
63.0
 40
63.0
 40
64.0
 40
64.0
 40
64.0
 40
65.0
 40
65.0
 40
65.0
 40
66.0
 40
66.0
 40
66.0
 40
67.0
 40
67.0
 40
67.0
 40
68.0
 40
68.0
 40
68.0
 40
69.0
 40
69.0
 40
69.0
 40
70.0
 40
70.0
 40
70.0
 40
71.0
 40
71.0
 40
71.0
 40
72.0
 40
72.0
 40
72.0
 40
73.0
 40
73.0
 40
73.0
 40
74.0
 40
74.0
 40
74.0
 40
75.0
 40
75.0
 40
75.0
 40
76.0
 40
76.0
 40
76.0
 40
77.0
 40
77.0
 40
77.0
 40
78.0
 40
78.0
 40
78.0
 40
79.0
 40
79.0
 40
79.0
 40
80.0
 40
80.0
 40
80.0
 40
81.0
 40
81.0
 40
81.0
 40
82.0
 40
82.0
 40
82.0
 40
83.0
 40
83.0
 40
83.0
 40
84.0
 40
84.0
 40
84.0
 40
85.0
 40
85.0
 40
85.0
 40
86.0
 40
86.0
 40
86.0
 40
87.0
 40
87.0
 40
87.0
 40
88.0
 40
88.0
 40
88.0
 40
89.0
 40
89.0
 40
89.0
 40
90.0
 40
90.0
 40
90.0
 40
91.0
 40
91.0
 40
91.0
 40
91.0
 10
6.883986111111122
 20
-36.28331249999999
 30
0.0
 10
5.972676238006392
 20
-36.10624722222221
 30
0.0
 10
5.389362363853252
 20
-35.24200972222221
 30
0.0
 10
5.55874847068531
 20
-34.34258472222223
 30
0.0
 10
5.725241522034897
 20
-33.45887638888889
 30
0.0
 10
6.531352612781928
 20
-32.9012861111111
 30
0.0
 10
7.377806758065364
 20
-32.99515416666665
 30
0.0
 10
7.289066482529354
 20
-32.96322638888889
 30
0.0
 10
7.196623429309106
 20
-32.93770833333333
 30
0.0
 10
7.100359542852048
 20
-32.91928750000001
 30
0.0
 10
6.929378991615825
 20
-32.88636805555554
 30
0.0
 10
6.760678995877545
 20
-32.87797361111112
 30
0.0
 10
6.597192888896441
 20
-32.89064305555555
 30
0.0
 10
6.597192888896441
 20
-32.89064305555555
 30
0.0
 10
6.597192888896441
 20
-30.34723055555554
 30
0.0
 10
6.597192888896441
 20
-30.34723055555554
 30
0.0
 10
6.63893316561977
 20
-30.3092125
 30
0.0
 10
6.679424831263532
 20
-30.26983333333333
 30
0.0
 10
6.719776219133059
 20
-30.23041805555555
 30
0.0
 10
6.881440103937974
 20
-30.07247638888889
 30
0.0
 10
7.06883593253729
 20
-29.94945277777778
 30
0.0
 10
7.210427595627051
 20
-29.77026111111111
 30
0.0
 10
7.309648426453855
 20
-29.64468611111111
 30
0.0
 10
7.368569444444447
 20
-29.50061944444445
 30
0.0
 10
7.455262311664228
 20
-29.36863472222222
 30
0.0
 10
7.489095644142859
 20
-29.31713055555555
 30
0.0
 10
7.527759532055016
 20
-29.26883194444445
 30
0.0
 10
7.558608142386825
 20
-29.21534999999999
 30
0.0
 10
7.62436508517011
 20
-29.10135972222221
 30
0.0
 10
7.673292861711868
 20
-28.98214444444444
 30
0.0
 10
7.666508139661042
 20
-28.84703333333333
 30
0.0
 10
7.649647028975878
 20
-28.51123888888888
 30
0.0
 10
7.633970640483009
 20
-28.18574027777778
 30
0.0
 10
7.690480361277675
 20
-27.85193055555555
 30
0.0
 10
7.712310916281744
 20
-27.72298749999999
 30
0.0
 10
7.725916666666661
 20
-27.59334305555555
 30
0.0
 10
7.717706749478768
 20
-27.46190416666666
 30
0.0
 10
7.713176194037664
 20
-27.38953333333333
 30
0.0
 10
7.692224805678052
 20
-27.32565
 30
0.0
 10
7.644940084650342
 20
-27.26999166666667
 30
0.0
 10
7.237427594944974
 20
-26.78776944444444
 30
0.0
 10
6.654602609668371
 20
-26.59369583333334
 30
0.0
 10
6.160362344376153
 20
-26.23173194444444
 30
0.0
 10
6.022783181185028
 20
-26.13096527777778
 30
0.0
 10
5.925569444444439
 20
-25.98059444444444
 30
0.0
 10
5.86754290732895
 20
-25.82191527777777
 30
0.0
 10
5.761486111111114
 20
-25.53188194444445
 30
0.0
 10
5.74880124366195
 20
-25.19106111111111
 30
0.0
 10
5.732884577397372
 20
-24.88512361111111
 30
0.0
 10
5.729409577485158
 20
-24.81834027777778
 30
0.0
 10
5.700573467102509
 20
-24.77346666666666
 30
0.0
 10
5.642731801897045
 20
-24.74172361111111
 30
0.0
 10
5.200222222222224
 20
-24.49883333333333
 30
0.0
 10
4.617184605582325
 20
-24.47623611111111
 30
0.0
 10
4.07259722222222
 20
-24.766575
 30
0.0
 10
4.037988786880709
 20
-24.78502361111111
 30
0.0
 10
4.007245732101788
 20
-24.81304444444445
 30
0.0
 10
4.012244343086624
 20
-24.85435138888889
 30
0.0
 10
4.070199897178099
 20
-25.33293611111111
 30
0.0
 10
4.179892949962575
 20
-25.7876625
 30
0.0
 10
4.173661005675563
 20
-26.27621527777777
 30
0.0
 10
4.171327672401175
 20
-26.45956944444444
 30
0.0
 10
4.175172116748501
 20
-26.62950138888888
 30
0.0
 10
4.272016558746448
 20
-26.79282499999999
 30
0.0
 10
4.422492943833984
 20
-27.04660694444445
 30
0.0
 10
4.694163770304335
 20
-27.1204375
 30
0.0
 10
4.94968876384923
 20
-27.22845694444445
 30
0.0
 10
5.002533206958711
 20
-27.25079166666666
 30
0.0
 10
5.046030428082101
 20
-27.28418611111111
 30
0.0
 10
5.067776260866089
 20
-27.34063888888889
 30
0.0
 10
5.106885982100317
 20
-27.44217916666667
 30
0.0
 10
5.166608202813828
 20
-27.52899166666667
 30
0.0
 10
5.251442922892945
 20
-27.59849027777778
 30
0.0
 10
5.304384588222192
 20
-27.64185416666666
 30
0.0
 10
5.328902777777771
 20
-27.69909305555556
 30
0.0
 10
5.324081809946821
 20
-27.76812361111111
 30
0.0
 10
5.320124999999999
 20
-27.82465416666667
 30
0.0
 10
5.317573476777903
 20
-27.88131944444444
 30
0.0
 10
5.312156810248072
 20
-27.93771527777777
 30
0.0
 10
5.308391532565413
 20
-27.97688888888889
 30
0.0
 10
5.300897088310294
 20
-28.01570833333334
 30
0.0
 10
5.294870699573645
 20
-28.05464861111111
 30
0.0
 10
5.293487366275258
 20
-28.06358194444445
 30
0.0
 10
5.289063755275897
 20
-28.07087083333332
 30
0.0
 10
5.278788755535465
 20
-28.0695375
 30
0.0
 10
5.26721236693902
 20
-28.06802083333333
 30
0.0
 10
5.265126255880609
 20
-28.05916527777778
 30
0.0
 10
5.266409589181522
 20
-28.04923194444445
 30
0.0
 10
5.267354033602108
 20
-28.04190694444443
 30
0.0
 10
5.268834589120261
 20
-28.03465416666667
 30
0.0
 10
5.270160977975643
 20
-28.02737222222222
 30
0.0
 10
5.279760977733127
 20
-27.97477638888889
 30
0.0
 10
5.285865144245589
 20
-27.92179166666667
 30
0.0
 10
5.288354033071603
 20
-27.8683875
 30
0.0
 10
5.288616533064972
 20
-27.86273611111111
 30
0.0
 10
5.290113755249371
 20
-27.85374583333333
 30
0.0
 10
5.287410977539872
 20
-27.85203055555555
 30
0.0
 10
5.280980422146765
 20
-27.84796805555556
 30
0.0
 10
5.275463755619461
 20
-27.85490833333333
 30
0.0
 10
5.270770700182462
 20
-27.85905
 30
0.0
 10
5.233752645562062
 20
-27.89174305555555
 30
0.0
 10
5.197869313135217
 20
-27.92551388888888
 30
0.0
 10
5.170244313833083
 20
-27.96697083333333
 30
0.0
 10
5.167969313890555
 20
-27.97038055555555
 30
0.0
 10
5.166026258384085
 20
-27.97409583333333
 30
0.0
 10
5.163340147340831
 20
-27.97715138888889
 30
0.0
 10
5.15802209191962
 20
-27.98321388888889
 30
0.0
 10
5.15161931430359
 20
-27.98668888888889
 30
0.0
 10
5.143947092275185
 20
-27.98127083333333
 30
0.0
 10
5.13677903690071
 20
-27.97620833333334
 30
0.0
 10
5.135552648042802
 20
-27.96900555555555
 30
0.0
 10
5.139820703490537
 20
-27.9617375
 30
0.0
 10
5.145634592232555
 20
-27.95184027777778
 30
0.0
 10
5.151667925413474
 20
-27.94195555555555
 30
0.0
 10
5.158723480790791
 20
-27.93295138888888
 30
0.0
 10
5.18925403557508
 20
-27.89396944444444
 30
0.0
 10
5.222442923625547
 20
-27.85664583333333
 30
0.0
 10
5.263658200362139
 20
-27.82952638888888
 30
0.0
 10
5.290538755238635
 20
-27.81185
 30
0.0
 10
5.295076255124008
 20
-27.79097638888889
 30
0.0
 10
5.295962366212734
 20
-27.76226805555555
 30
0.0
 10
5.297805555555556
 20
-27.70207222222221
 30
0.0
 10
5.274840144524104
 20
-27.65577916666666
 30
0.0
 10
5.227733201269681
 20
-27.61971111111111
 30
0.0
 10
5.209474868397592
 20
-27.60574305555555
 30
0.0
 10
5.19164986884789
 20
-27.59100972222222
 30
0.0
 10
5.175052647044948
 20
-27.57514861111111
 30
0.0
 10
5.164324869538177
 20
-27.56488888888889
 30
0.0
 10
5.159056814115703
 20
-27.56674027777778
 30
0.0
 10
5.15063320321739
 20
-27.57775138888889
 30
0.0
 10
5.07719987173914
 20
-27.67383055555555
 30
0.0
 10
5.017931817680821
 20
-27.79655555555555
 30
0.0
 10
4.988848485082195
 20
-27.91377222222223
 30
0.0
 10
4.935969319751368
 20
-28.1268625
 30
0.0
 10
5.095548482386726
 20
-28.25803888888889
 30
0.0
 10
5.223669312483454
 20
-28.39820555555555
 30
0.0
 10
5.287440144205801
 20
-28.46797361111112
 30
0.0
 10
5.357576253545125
 20
-28.52899305555555
 30
0.0
 10
5.446898473510879
 20
-28.56470694444445
 30
0.0
 10
5.521381804962604
 20
-28.59448611111111
 30
0.0
 10
5.591199858754408
 20
-28.58363749999999
 30
0.0
 10
5.654699857150263
 20
-28.53814583333333
 30
0.0
 10
5.704402777777773
 20
-28.50254583333334
 30
0.0
 10
5.74026513276648
 20
-28.45355972222223
 30
0.0
 10
5.762910965527731
 20
-28.39692222222223
 30
0.0
 10
5.809238742135171
 20
-28.28103333333334
 30
0.0
 10
5.831502630461626
 20
-28.15878333333333
 30
0.0
 10
5.851277777777782
 20
-28.03633472222222
 30
0.0
 10
5.863856796310958
 20
-27.95844722222222
 30
0.0
 10
5.868052629538296
 20
-27.87948333333333
 30
0.0
 10
5.872577629423985
 20
-27.80069027777778
 30
0.0
 10
5.873222222222226
 20
-27.78940277777777
 30
0.0
 10
5.873519296066863
 20
-27.77471805555555
 30
0.0
 10
5.889437351220295
 20
-27.77557638888889
 30
0.0
 10
5.90418457306997
 20
-27.77634861111111
 30
0.0
 10
5.902263888888885
 20
-27.78979861111111
 30
0.0
 10
5.901759573131231
 20
-27.80057638888889
 30
0.0
 10
5.891720684495946
 20
-28.01564444444444
 30
0.0
 10
5.832345685995884
 20
-28.75812083333332
 30
0.0
 10
5.435845696012317
 20
-28.59214583333333
 30
0.0
 10
5.366417919988432
 20
-28.56308333333332
 30
0.0
 10
5.307256810371856
 20
-28.51991666666667
 30
0.0
 10
5.252612367307847
 20
-28.46939166666667
 30
0.0
 10
5.181270702443422
 20
-28.403425
 30
0.0
 10
5.123966537224381
 20
-28.29112222222222
 30
0.0
 10
5.01506792886428
 20
-28.29132083333333
 30
0.0
 10
4.9574943192076
 20
-28.2914125
 30
0.0
 10
4.888904043162559
 20
-28.30793333333333
 30
0.0
 10
4.841165155479656
 20
-28.3412361111111
 30
0.0
 10
4.658626271202087
 20
-28.46854166666667
 30
0.0
 10
4.955998485912056
 20
-28.62759722222222
 30
0.0
 10
5.04450681700948
 20
-28.69128194444445
 30
0.0
 10
5.118847222222219
 20
-28.74477777777777
 30
0.0
 10
5.180852646898428
 20
-28.80802222222222
 30
0.0
 10
5.248223478529831
 20
-28.86876527777778
 30
0.0
 10
5.325060976588753
 20
-28.93803611111111
 30
0.0
 10
5.413376252135499
 20
-28.97611805555555
 30
0.0
 10
5.5185679161448
 20
-28.97630277777777
 30
0.0
 10
5.673744301113604
 20
-28.97655
 30
0.0
 10
5.829205408297437
 20
-28.95920833333333
 30
0.0
 10
5.984310959934697
 20
-28.96423472222222
 30
0.0
 10
6.026470681091874
 20
-28.96559583333333
 30
0.0
 10
6.070549846645008
 20
-28.96689305555555
 30
0.0
 10
6.111148456730512
 20
-28.95110416666666
 30
0.0
 10
6.179392899450956
 20
-28.92458611111111
 30
0.0
 10
6.235377620258886
 20
-28.88120833333333
 30
0.0
 10
6.277486111111102
 20
-28.8209625
 30
0.0
 10
6.369255394654626
 20
-28.69074305555556
 30
0.0
 10
6.385094283143391
 20
-28.53436666666667
 30
0.0
 10
6.401976227161362
 20
-28.38069999999999
 30
0.0
 10
6.421155393343522
 20
-28.20611666666667
 30
0.0
 10
6.43380555555556
 20
-28.03083194444444
 30
0.0
 10
6.439881781759342
 20
-27.85530555555556
 30
0.0
 10
6.44015122619698
 20
-27.84744305555556
 30
0.0
 10
6.441695670602408
 20
-27.83777222222222
 30
0.0
 10
6.449155392636182
 20
-27.83529027777778
 30
0.0
 10
6.460520670126849
 20
-27.83151805555556
 30
0.0
 10
6.466930555555564
 20
-27.84810277777778
 30
0.0
 10
6.467263888888889
 20
-27.86006388888889
 30
0.0
 10
6.472170669832545
 20
-28.03649722222222
 30
0.0
 10
6.455444444444437
 20
-28.21149861111111
 30
0.0
 10
6.439158170666511
 20
-28.38693333333333
 30
0.0
 10
6.424594282145537
 20
-28.54388194444444
 30
0.0
 10
6.394885949562699
 20
-28.70935416666667
 30
0.0
 10
6.299522063082905
 20
-28.83924027777778
 30
0.0
 10
6.234263888888891
 20
-28.92813055555555
 30
0.0
 10
6.150974844613302
 20
-28.99017083333333
 30
0.0
 10
6.034460958667801
 20
-28.99180833333333
 30
0.0
 10
6.0199970701443
 20
-28.99201388888889
 30
0.0
 10
5.987459570966267
 20
-29.00818055555555
 30
0.0
 10
5.975385960160161
 20
-29.01354722222221
 30
0.0
 10
5.724609577606416
 20
-29.12516944444445
 30
0.0
 10
5.50856374973086
 20
-29.06827638888889
 30
0.0
 10
5.337369309611151
 20
-29.27072500000001
 30
0.0
 10
5.26597070030372
 20
-29.35514166666667
 30
0.0
 10
5.290970699672167
 20
-29.45540416666666
 30
0.0
 10
5.393651252633794
 20
-29.49569166666667
 30
0.0
 10
5.557755415154841
 20
-29.56007777777778
 30
0.0
 10
5.7584804100841
 20
-29.53186527777777
 30
0.0
 10
5.932424850134339
 20
-29.55312222222222
 30
0.0
 10
6.064870680121809
 20
-29.56932361111111
 30
0.0
 10
6.184284565994049
 20
-29.57705833333333
 30
0.0
 10
6.305052618498747
 20
-29.50539722222222
 30
0.0
 10
6.4267638888889
 20
-29.4331763888889
 30
0.0
 10
6.54316511248352
 20
-29.35308472222222
 30
0.0
 10
6.646640109869521
 20
-29.25567916666667
 30
0.0
 10
6.747555555555563
 20
-29.16069166666667
 30
0.0
 10
6.882149826142268
 20
-29.08479027777778
 30
0.0
 10
6.919188714095475
 20
-28.94097916666666
 30
0.0
 10
6.965113712935312
 20
-28.76263055555556
 30
0.0
 10
7.001202600912519
 20
-28.57214444444445
 30
0.0
 10
7.025478989188135
 20
-28.38961944444444
 30
0.0
 10
7.02589010028886
 20
-28.38654999999999
 30
0.0
 10
7.027335933585668
 20
-28.38363611111111
 30
0.0
 10
7.028294266894792
 20
-28.38065138888889
 30
0.0
 10
7.029158155761857
 20
-28.38330972222222
 30
0.0
 10
7.030881766829427
 20
-28.38599722222222
 30
0.0
 10
7.030769266832269
 20
-28.38862083333333
 30
0.0
 10
7.028895655768489
 20
-28.43559305555555
 30
0.0
 10
7.037801211099072
 20
-28.48190694444444
 30
0.0
 10
7.039297044394616
 20
-28.52864583333333
 30
0.0
 10
7.044884544253464
 20
-28.70363333333333
 30
0.0
 10
7.079492876712518
 20
-28.89978472222222
 30
0.0
 10
6.994423434417108
 20
-29.061825
 30
0.0
 10
6.84734982702139
 20
-29.34196805555555
 30
0.0
 10
6.719952608017492
 20
-29.64088472222223
 30
0.0
 10
6.470929003197246
 20
-29.85023194444444
 30
0.0
 10
6.386236111111101
 20
-29.92143888888889
 30
0.0
 10
6.318787340374001
 20
-30.00429583333333
 30
0.0
 10
6.2795776191423
 20
-30.10863611111111
 30
0.0
 10
6.241956786759348
 20
-30.20877916666667
 30
0.0
 10
6.248140119936478
 20
-30.30348333333333
 30
0.0
 10
6.314129007158347
 20
-30.39100555555555
 30
0.0
 10
6.329840117872562
 20
-30.41184305555556
 30
0.0
 10
6.34881372850436
 20
-30.42756944444444
 30
0.0
 10
6.373424838993742
 20
-30.43734027777777
 30
0.0
 10
6.408387338110515
 20
-30.45122222222221
 30
0.0
 10
6.440172059529787
 20
-30.4499111111111
 30
0.0
 10
6.469922058778239
 20
-30.43948888888889
 30
0.0
 10
6.469922058778239
 20
-30.43948888888889
 30
0.0
 10
6.469922058778239
 20
-32.90488750000001
 30
0.0
 10
6.469922058778239
 20
-32.90488750000001
 30
0.0
 10
5.712570689021655
 20
-33.01723194444445
 30
0.0
 10
5.092556815795635
 20
-33.59558472222221
 30
0.0
 10
4.945009597300769
 20
-34.38459444444445
 30
0.0
 10
4.757848490917746
 20
-35.38547499999999
 30
0.0
 10
5.417835974245059
 20
-36.33714861111111
 30
0.0
 10
6.4108109491604
 20
-36.52239583333332
 30
0.0
 10
6.944394269014285
 20
-36.62323333333335
 30
0.0
 10
7.477028977781022
 20
-36.47919444444445
 30
0.0
 10
7.881349800900352
 20
-36.16122500000001
 30
0.0
 10
7.580361111111111
 20
-36.29891111111111
 30
0.0
 10
7.23515815055786
 20
-36.34826666666665
 30
0.0
 10
6.883986111111122
 20
-36.28331249999999
 30
0.0
  0
SPLINE
  5
42
330
1F
100
AcDbEntity
  8
Layer 1
370
     0
100
AcDbSpline
210
0.0
220
0.0
230
1.0
 70
    11
 71
     3
 72
    29
 73
    25
 74
     0
 42
0.0000000001
 43
0.0000000001
 12
1.0
 22
0.0
 32
0.0
 13
1.0
 23
0.0
 33
0.0
 40
0.0
 40
0.0
 40
0.0
 40
0.0
 40
1.0
 40
1.0
 40
1.0
 40
2.0
 40
2.0
 40
2.0
 40
3.0
 40
3.0
 40
3.0
 40
4.0
 40
4.0
 40
4.0
 40
5.0
 40
5.0
 40
5.0
 40
6.0
 40
6.0
 40
6.0
 40
7.0
 40
7.0
 40
7.0
 40
8.0
 40
8.0
 40
8.0
 40
8.0
 10
6.623227610460971
 20
-27.3661
 30
0.0
 10
6.617342888387409
 20
-27.38173472222221
 30
0.0
 10
6.604835944258916
 20
-27.37548055555555
 30
0.0
 10
6.594179000083689
 20
-27.37079444444445
 30
0.0
 10
6.5057567800952
 20
-27.33181111111111
 30
0.0
 10
6.413215115766333
 20
-27.31893611111112
 30
0.0
 10
6.317504007073087
 20
-27.32844444444444
 30
0.0
 10
6.27645123033239
 20
-27.33252083333333
 30
0.0
 10
6.237447064651051
 20
-27.34591388888889
 30
0.0
 10
6.19842345452576
 20
-27.35861944444444
 30
0.0
 10
6.188205399228334
 20
-27.36194583333333
 30
0.0
 10
6.176456788414018
 20
-27.36785138888889
 30
0.0
 10
6.171330399654632
 20
-27.35335833333334
 30
0.0
 10
6.166445677555808
 20
-27.33954027777778
 30
0.0
 10
6.178308177256136
 20
-27.33489583333333
 30
0.0
 10
6.188581788107714
 20
-27.33132222222222
 30
0.0
 10
6.246190119985739
 20
-27.31127777777778
 30
0.0
 10
6.304798451838501
 20
-27.2960486111111
 30
0.0
 10
6.373069444444455
 20
-27.29493472222222
 30
0.0
 10
6.448424837099083
 20
-27.30038055555556
 30
0.0
 10
6.530210946144102
 20
-27.30715833333333
 30
0.0
 10
6.605863722010731
 20
-27.34404305555555
 30
0.0
 10
6.615351221771056
 20
-27.34867222222222
 30
0.0
 10
6.62845399921783
 20
-27.35216805555555
 30
0.0
 10
6.623227610460971
 20
-27.3661
 30
0.0
  0
SPLINE
  5
43
330
1F
100
AcDbEntity
  8
Layer 1
370
     0
100
AcDbSpline
210
0.0
220
0.0
230
1.0
 70
    11
 71
     3
 72
    32
 73
    28
 74
     0
 42
0.0000000001
 43
0.0000000001
 12
1.0
 22
0.0
 32
0.0
 13
1.0
 23
0.0
 33
0.0
 40
0.0
 40
0.0
 40
0.0
 40
0.0
 40
1.0
 40
1.0
 40
1.0
 40
2.0
 40
2.0
 40
2.0
 40
3.0
 40
3.0
 40
3.0
 40
4.0
 40
4.0
 40
4.0
 40
5.0
 40
5.0
 40
5.0
 40
6.0
 40
6.0
 40
6.0
 40
7.0
 40
7.0
 40
7.0
 40
8.0
 40
8.0
 40
8.0
 40
9.0
 40
9.0
 40
9.0
 40
9.0
 10
7.028251211340325
 20
-27.36616388888889
 30
0.0
 10
6.948712324460757
 20
-27.34757361111111
 30
0.0
 10
6.870670659765588
 20
-27.3513875
 30
0.0
 10
6.793955383925802
 20
-27.38085555555555
 30
0.0
 10
6.782673439766363
 20
-27.38519444444445
 30
0.0
 10
6.765572051309491
 20
-27.399425
 30
0.0
 10
6.758105384831449
 20
-27.37960000000001
 30
0.0
 10
6.751099829452869
 20
-27.36100972222222
 30
0.0
 10
6.772151217809955
 20
-27.35855555555555
 30
0.0
 10
6.783822050848458
 20
-27.35375555555555
 30
0.0
 10
6.832212327403795
 20
-27.33388888888889
 30
0.0
 10
6.883403992777251
 20
-27.3276
 30
0.0
 10
6.93533454702093
 20
-27.32487083333333
 30
0.0
 10
6.980256768108322
 20
-27.32809583333334
 30
0.0
 10
7.025045655865748
 20
-27.33269027777778
 30
0.0
 10
7.068466488102179
 20
-27.34599166666666
 30
0.0
 10
7.073160932428031
 20
-27.34743888888888
 30
0.0
 10
7.077903987863768
 20
-27.34884305555556
 30
0.0
 10
7.082406765527796
 20
-27.35076388888889
 30
0.0
 10
7.091453987521466
 20
-27.35464999999999
 30
0.0
 10
7.098565098452935
 20
-27.3606125
 30
0.0
 10
7.094317876338007
 20
-27.37146805555555
 30
0.0
 10
7.090517876434003
 20
-27.38118055555555
 30
0.0
 10
7.081760932210777
 20
-27.38046527777778
 30
0.0
 10
7.073337321312465
 20
-27.37823888888888
 30
0.0
 10
7.058299821692344
 20
-27.37425416666666
 30
0.0
 10
7.043395655402188
 20
-27.3697013888889
 30
0.0
 10
7.028251211340325
 20
-27.36616388888889
 30
0.0
  0
HATCH
  5
44
330
1F
100
AcDbEntity
  8
Layer 1
 62
    35
420
 10579544
100
AcDbHatch
 10
0.0
 20
0.0
 30
0.0
210
0.0
220
0.0
230
1.0
  2
SOLID
 70
     1
 71
     0
 91
        3
 92
        1
 93
        1
 72
     4
 94
        3
 73
     0
 74
     1
 95
      278
 96
      274
 40
0.0
 40
0.0
 40
0.0
 40
0.0
 40
1.0
 40
1.0
 40
1.0
 40
2.0
 40
2.0
 40
2.0
 40
3.0
 40
3.0
 40
3.0
 40
4.0
 40
4.0
 40
4.0
 40
5.0
 40
5.0
 40
5.0
 40
6.0
 40
6.0
 40
6.0
 40
7.0
 40
7.0
 40
7.0
 40
8.0
 40
8.0
 40
8.0
 40
9.0
 40
9.0
 40
9.0
 40
10.0
 40
10.0
 40
10.0
 40
11.0
 40
11.0
 40
11.0
 40
12.0
 40
12.0
 40
12.0
 40
13.0
 40
13.0
 40
13.0
 40
14.0
 40
14.0
 40
14.0
 40
15.0
 40
15.0
 40
15.0
 40
16.0
 40
16.0
 40
16.0
 40
17.0
 40
17.0
 40
17.0
 40
18.0
 40
18.0
 40
18.0
 40
19.0
 40
19.0
 40
19.0
 40
20.0
 40
20.0
 40
20.0
 40
21.0
 40
21.0
 40
21.0
 40
22.0
 40
22.0
 40
22.0
 40
23.0
 40
23.0
 40
23.0
 40
24.0
 40
24.0
 40
24.0
 40
25.0
 40
25.0
 40
25.0
 40
26.0
 40
26.0
 40
26.0
 40
27.0
 40
27.0
 40
27.0
 40
28.0
 40
28.0
 40
28.0
 40
29.0
 40
29.0
 40
29.0
 40
30.0
 40
30.0
 40
30.0
 40
31.0
 40
31.0
 40
31.0
 40
32.0
 40
32.0
 40
32.0
 40
33.0
 40
33.0
 40
33.0
 40
34.0
 40
34.0
 40
34.0
 40
35.0
 40
35.0
 40
35.0
 40
36.0
 40
36.0
 40
36.0
 40
37.0
 40
37.0
 40
37.0
 40
38.0
 40
38.0
 40
38.0
 40
39.0
 40
39.0
 40
39.0
 40
40.0
 40
40.0
 40
40.0
 40
41.0
 40
41.0
 40
41.0
 40
42.0
 40
42.0
 40
42.0
 40
43.0
 40
43.0
 40
43.0
 40
44.0
 40
44.0
 40
44.0
 40
45.0
 40
45.0
 40
45.0
 40
46.0
 40
46.0
 40
46.0
 40
47.0
 40
47.0
 40
47.0
 40
48.0
 40
48.0
 40
48.0
 40
49.0
 40
49.0
 40
49.0
 40
50.0
 40
50.0
 40
50.0
 40
51.0
 40
51.0
 40
51.0
 40
52.0
 40
52.0
 40
52.0
 40
53.0
 40
53.0
 40
53.0
 40
54.0
 40
54.0
 40
54.0
 40
55.0
 40
55.0
 40
55.0
 40
56.0
 40
56.0
 40
56.0
 40
57.0
 40
57.0
 40
57.0
 40
58.0
 40
58.0
 40
58.0
 40
59.0
 40
59.0
 40
59.0
 40
60.0
 40
60.0
 40
60.0
 40
61.0
 40
61.0
 40
61.0
 40
62.0
 40
62.0
 40
62.0
 40
63.0
 40
63.0
 40
63.0
 40
64.0
 40
64.0
 40
64.0
 40
65.0
 40
65.0
 40
65.0
 40
66.0
 40
66.0
 40
66.0
 40
67.0
 40
67.0
 40
67.0
 40
68.0
 40
68.0
 40
68.0
 40
69.0
 40
69.0
 40
69.0
 40
70.0
 40
70.0
 40
70.0
 40
71.0
 40
71.0
 40
71.0
 40
72.0
 40
72.0
 40
72.0
 40
73.0
 40
73.0
 40
73.0
 40
74.0
 40
74.0
 40
74.0
 40
75.0
 40
75.0
 40
75.0
 40
76.0
 40
76.0
 40
76.0
 40
77.0
 40
77.0
 40
77.0
 40
78.0
 40
78.0
 40
78.0
 40
79.0
 40
79.0
 40
79.0
 40
80.0
 40
80.0
 40
80.0
 40
81.0
 40
81.0
 40
81.0
 40
82.0
 40
82.0
 40
82.0
 40
83.0
 40
83.0
 40
83.0
 40
84.0
 40
84.0
 40
84.0
 40
85.0
 40
85.0
 40
85.0
 40
86.0
 40
86.0
 40
86.0
 40
87.0
 40
87.0
 40
87.0
 40
88.0
 40
88.0
 40
88.0
 40
89.0
 40
89.0
 40
89.0
 40
90.0
 40
90.0
 40
90.0
 40
91.0
 40
91.0
 40
91.0
 40
91.0
 10
6.883986111111122
 20
-36.28331249999999
 10
5.972676238006392
 20
-36.10624722222221
 10
5.389362363853252
 20
-35.24200972222221
 10
5.55874847068531
 20
-34.34258472222223
 10
5.725241522034897
 20
-33.45887638888889
 10
6.531352612781928
 20
-32.9012861111111
 10
7.377806758065364
 20
-32.99515416666665
 10
7.289066482529354
 20
-32.96322638888889
 10
7.196623429309106
 20
-32.93770833333333
 10
7.100359542852048
 20
-32.91928750000001
 10
6.929378991615825
 20
-32.88636805555554
 10
6.760678995877545
 20
-32.87797361111112
 10
6.597192888896441
 20
-32.89064305555555
 10
6.597192888896441
 20
-32.89064305555555
 10
6.597192888896441
 20
-30.34723055555554
 10
6.597192888896441
 20
-30.34723055555554
 10
6.63893316561977
 20
-30.3092125
 10
6.679424831263532
 20
-30.26983333333333
 10
6.719776219133059
 20
-30.23041805555555
 10
6.881440103937974
 20
-30.07247638888889
 10
7.06883593253729
 20
-29.94945277777778
 10
7.210427595627051
 20
-29.77026111111111
 10
7.309648426453855
 20
-29.64468611111111
 10
7.368569444444447
 20
-29.50061944444445
 10
7.455262311664228
 20
-29.36863472222222
 10
7.489095644142859
 20
-29.31713055555555
 10
7.527759532055016
 20
-29.26883194444445
 10
7.558608142386825
 20
-29.21534999999999
 10
7.62436508517011
 20
-29.10135972222221
 10
7.673292861711868
 20
-28.98214444444444
 10
7.666508139661042
 20
-28.84703333333333
 10
7.649647028975878
 20
-28.51123888888888
 10
7.633970640483009
 20
-28.18574027777778
 10
7.690480361277675
 20
-27.85193055555555
 10
7.712310916281744
 20
-27.72298749999999
 10
7.725916666666661
 20
-27.59334305555555
 10
7.717706749478768
 20
-27.46190416666666
 10
7.713176194037664
 20
-27.38953333333333
 10
7.692224805678052
 20
-27.32565
 10
7.644940084650342
 20
-27.26999166666667
 10
7.237427594944974
 20
-26.78776944444444
 10
6.654602609668371
 20
-26.59369583333334
 10
6.160362344376153
 20
-26.23173194444444
 10
6.022783181185028
 20
-26.13096527777778
 10
5.925569444444439
 20
-25.98059444444444
 10
5.86754290732895
 20
-25.82191527777777
 10
5.761486111111114
 20
-25.53188194444445
 10
5.74880124366195
 20
-25.19106111111111
 10
5.732884577397372
 20
-24.88512361111111
 10
5.729409577485158
 20
-24.81834027777778
 10
5.700573467102509
 20
-24.77346666666666
 10
5.642731801897045
 20
-24.74172361111111
 10
5.200222222222224
 20
-24.49883333333333
 10
4.617184605582325
 20
-24.47623611111111
 10
4.07259722222222
 20
-24.766575
 10
4.037988786880709
 20
-24.78502361111111
 10
4.007245732101788
 20
-24.81304444444445
 10
4.012244343086624
 20
-24.85435138888889
 10
4.070199897178099
 20
-25.33293611111111
 10
4.179892949962575
 20
-25.7876625
 10
4.173661005675563
 20
-26.27621527777777
 10
4.171327672401175
 20
-26.45956944444444
 10
4.175172116748501
 20
-26.62950138888888
 10
4.272016558746448
 20
-26.79282499999999
 10
4.422492943833984
 20
-27.04660694444445
 10
4.694163770304335
 20
-27.1204375
 10
4.94968876384923
 20
-27.22845694444445
 10
5.002533206958711
 20
-27.25079166666666
 10
5.046030428082101
 20
-27.28418611111111
 10
5.067776260866089
 20
-27.34063888888889
 10
5.106885982100317
 20
-27.44217916666667
 10
5.166608202813828
 20
-27.52899166666667
 10
5.251442922892945
 20
-27.59849027777778
 10
5.304384588222192
 20
-27.64185416666666
 10
5.328902777777771
 20
-27.69909305555556
 10
5.324081809946821
 20
-27.76812361111111
 10
5.320124999999999
 20
-27.82465416666667
 10
5.317573476777903
 20
-27.88131944444444
 10
5.312156810248072
 20
-27.93771527777777
 10
5.308391532565413
 20
-27.97688888888889
 10
5.300897088310294
 20
-28.01570833333334
 10
5.294870699573645
 20
-28.05464861111111
 10
5.293487366275258
 20
-28.06358194444445
 10
5.289063755275897
 20
-28.07087083333332
 10
5.278788755535465
 20
-28.0695375
 10
5.26721236693902
 20
-28.06802083333333
 10
5.265126255880609
 20
-28.05916527777778
 10
5.266409589181522
 20
-28.04923194444445
 10
5.267354033602108
 20
-28.04190694444443
 10
5.268834589120261
 20
-28.03465416666667
 10
5.270160977975643
 20
-28.02737222222222
 10
5.279760977733127
 20
-27.97477638888889
 10
5.285865144245589
 20
-27.92179166666667
 10
5.288354033071603
 20
-27.8683875
 10
5.288616533064972
 20
-27.86273611111111
 10
5.290113755249371
 20
-27.85374583333333
 10
5.287410977539872
 20
-27.85203055555555
 10
5.280980422146765
 20
-27.84796805555556
 10
5.275463755619461
 20
-27.85490833333333
 10
5.270770700182462
 20
-27.85905
 10
5.233752645562062
 20
-27.89174305555555
 10
5.197869313135217
 20
-27.92551388888888
 10
5.170244313833083
 20
-27.96697083333333
 10
5.167969313890555
 20
-27.97038055555555
 10
5.166026258384085
 20
-27.97409583333333
 10
5.163340147340831
 20
-27.97715138888889
 10
5.15802209191962
 20
-27.98321388888889
 10
5.15161931430359
 20
-27.98668888888889
 10
5.143947092275185
 20
-27.98127083333333
 10
5.13677903690071
 20
-27.97620833333334
 10
5.135552648042802
 20
-27.96900555555555
 10
5.139820703490537
 20
-27.9617375
 10
5.145634592232555
 20
-27.95184027777778
 10
5.151667925413474
 20
-27.94195555555555
 10
5.158723480790791
 20
-27.93295138888888
 10
5.18925403557508
 20
-27.89396944444444
 10
5.222442923625547
 20
-27.85664583333333
 10
5.263658200362139
 20
-27.82952638888888
 10
5.290538755238635
 20
-27.81185
 10
5.295076255124008
 20
-27.79097638888889
 10
5.295962366212734
 20
-27.76226805555555
 10
5.297805555555556
 20
-27.70207222222221
 10
5.274840144524104
 20
-27.65577916666666
 10
5.227733201269681
 20
-27.61971111111111
 10
5.209474868397592
 20
-27.60574305555555
 10
5.19164986884789
 20
-27.59100972222222
 10
5.175052647044948
 20
-27.57514861111111
 10
5.164324869538177
 20
-27.56488888888889
 10
5.159056814115703
 20
-27.56674027777778
 10
5.15063320321739
 20
-27.57775138888889
 10
5.07719987173914
 20
-27.67383055555555
 10
5.017931817680821
 20
-27.79655555555555
 10
4.988848485082195
 20
-27.91377222222223
 10
4.935969319751368
 20
-28.1268625
 10
5.095548482386726
 20
-28.25803888888889
 10
5.223669312483454
 20
-28.39820555555555
 10
5.287440144205801
 20
-28.46797361111112
 10
5.357576253545125
 20
-28.52899305555555
 10
5.446898473510879
 20
-28.56470694444445
 10
5.521381804962604
 20
-28.59448611111111
 10
5.591199858754408
 20
-28.58363749999999
 10
5.654699857150263
 20
-28.53814583333333
 10
5.704402777777773
 20
-28.50254583333334
 10
5.74026513276648
 20
-28.45355972222223
 10
5.762910965527731
 20
-28.39692222222223
 10
5.809238742135171
 20
-28.28103333333334
 10
5.831502630461626
 20
-28.15878333333333
 10
5.851277777777782
 20
-28.03633472222222
 10
5.863856796310958
 20
-27.95844722222222
 10
5.868052629538296
 20
-27.87948333333333
 10
5.872577629423985
 20
-27.80069027777778
 10
5.873222222222226
 20
-27.78940277777777
 10
5.873519296066863
 20
-27.77471805555555
 10
5.889437351220295
 20
-27.77557638888889
 10
5.90418457306997
 20
-27.77634861111111
 10
5.902263888888885
 20
-27.78979861111111
 10
5.901759573131231
 20
-27.80057638888889
 10
5.891720684495946
 20
-28.01564444444444
 10
5.832345685995884
 20
-28.75812083333332
 10
5.435845696012317
 20
-28.59214583333333
 10
5.366417919988432
 20
-28.56308333333332
 10
5.307256810371856
 20
-28.51991666666667
 10
5.252612367307847
 20
-28.46939166666667
 10
5.181270702443422
 20
-28.403425
 10
5.123966537224381
 20
-28.29112222222222
 10
5.01506792886428
 20
-28.29132083333333
 10
4.9574943192076
 20
-28.2914125
 10
4.888904043162559
 20
-28.30793333333333
 10
4.841165155479656
 20
-28.3412361111111
 10
4.658626271202087
 20
-28.46854166666667
 10
4.955998485912056
 20
-28.62759722222222
 10
5.04450681700948
 20
-28.69128194444445
 10
5.118847222222219
 20
-28.74477777777777
 10
5.180852646898428
 20
-28.80802222222222
 10
5.248223478529831
 20
-28.86876527777778
 10
5.325060976588753
 20
-28.93803611111111
 10
5.413376252135499
 20
-28.97611805555555
 10
5.5185679161448
 20
-28.97630277777777
 10
5.673744301113604
 20
-28.97655
 10
5.829205408297437
 20
-28.95920833333333
 10
5.984310959934697
 20
-28.96423472222222
 10
6.026470681091874
 20
-28.96559583333333
 10
6.070549846645008
 20
-28.96689305555555
 10
6.111148456730512
 20
-28.95110416666666
 10
6.179392899450956
 20
-28.92458611111111
 10
6.235377620258886
 20
-28.88120833333333
 10
6.277486111111102
 20
-28.8209625
 10
6.369255394654626
 20
-28.69074305555556
 10
6.385094283143391
 20
-28.53436666666667
 10
6.401976227161362
 20
-28.38069999999999
 10
6.421155393343522
 20
-28.20611666666667
 10
6.43380555555556
 20
-28.03083194444444
 10
6.439881781759342
 20
-27.85530555555556
 10
6.44015122619698
 20
-27.84744305555556
 10
6.441695670602408
 20
-27.83777222222222
 10
6.449155392636182
 20
-27.83529027777778
 10
6.460520670126849
 20
-27.83151805555556
 10
6.466930555555564
 20
-27.84810277777778
 10
6.467263888888889
 20
-27.86006388888889
 10
6.472170669832545
 20
-28.03649722222222
 10
6.455444444444437
 20
-28.21149861111111
 10
6.439158170666511
 20
-28.38693333333333
 10
6.424594282145537
 20
-28.54388194444444
 10
6.394885949562699
 20
-28.70935416666667
 10
6.299522063082905
 20
-28.83924027777778
 10
6.234263888888891
 20
-28.92813055555555
 10
6.150974844613302
 20
-28.99017083333333
 10
6.034460958667801
 20
-28.99180833333333
 10
6.0199970701443
 20
-28.99201388888889
 10
5.987459570966267
 20
-29.00818055555555
 10
5.975385960160161
 20
-29.01354722222221
 10
5.724609577606416
 20
-29.12516944444445
 10
5.50856374973086
 20
-29.06827638888889
 10
5.337369309611151
 20
-29.27072500000001
 10
5.26597070030372
 20
-29.35514166666667
 10
5.290970699672167
 20
-29.45540416666666
 10
5.393651252633794
 20
-29.49569166666667
 10
5.557755415154841
 20
-29.56007777777778
 10
5.7584804100841
 20
-29.53186527777777
 10
5.932424850134339
 20
-29.55312222222222
 10
6.064870680121809
 20
-29.56932361111111
 10
6.184284565994049
 20
-29.57705833333333
 10
6.305052618498747
 20
-29.50539722222222
 10
6.4267638888889
 20
-29.4331763888889
 10
6.54316511248352
 20
-29.35308472222222
 10
6.646640109869521
 20
-29.25567916666667
 10
6.747555555555563
 20
-29.16069166666667
 10
6.882149826142268
 20
-29.08479027777778
 10
6.919188714095475
 20
-28.94097916666666
 10
6.965113712935312
 20
-28.76263055555556
 10
7.001202600912519
 20
-28.57214444444445
 10
7.025478989188135
 20
-28.38961944444444
 10
7.02589010028886
 20
-28.38654999999999
 10
7.027335933585668
 20
-28.38363611111111
 10
7.028294266894792
 20
-28.38065138888889
 10
7.029158155761857
 20
-28.38330972222222
 10
7.030881766829427
 20
-28.38599722222222
 10
7.030769266832269
 20
-28.38862083333333
 10
7.028895655768489
 20
-28.43559305555555
 10
7.037801211099072
 20
-28.48190694444444
 10
7.039297044394616
 20
-28.52864583333333
 10
7.044884544253464
 20
-28.70363333333333
 10
7.079492876712518
 20
-28.89978472222222
 10
6.994423434417108
 20
-29.061825
 10
6.84734982702139
 20
-29.34196805555555
 10
6.719952608017492
 20
-29.64088472222223
 10
6.470929003197246
 20
-29.85023194444444
 10
6.386236111111101
 20
-29.92143888888889
 10
6.318787340374001
 20
-30.00429583333333
 10
6.2795776191423
 20
-30.10863611111111
 10
6.241956786759348
 20
-30.20877916666667
 10
6.248140119936478
 20
-30.30348333333333
 10
6.314129007158347
 20
-30.39100555555555
 10
6.329840117872562
 20
-30.41184305555556
 10
6.34881372850436
 20
-30.42756944444444
 10
6.373424838993742
 20
-30.43734027777777
 10
6.408387338110515
 20
-30.45122222222221
 10
6.440172059529787
 20
-30.4499111111111
 10
6.469922058778239
 20
-30.43948888888889
 10
6.469922058778239
 20
-30.43948888888889
 10
6.469922058778239
 20
-32.90488750000001
 10
6.469922058778239
 20
-32.90488750000001
 10
5.712570689021655
 20
-33.01723194444445
 10
5.092556815795635
 20
-33.59558472222221
 10
4.945009597300769
 20
-34.38459444444445
 10
4.757848490917746
 20
-35.38547499999999
 10
5.417835974245059
 20
-36.33714861111111
 10
6.4108109491604
 20
-36.52239583333332
 10
6.944394269014285
 20
-36.62323333333335
 10
7.477028977781022
 20
-36.47919444444445
 10
7.881349800900352
 20
-36.16122500000001
 10
7.580361111111111
 20
-36.29891111111111
 10
7.23515815055786
 20
-36.34826666666665
 10
6.883986111111122
 20
-36.28331249999999
 97
        0
 97
        0
 92
        1
 93
        1
 72
     4
 94
        3
 73
     0
 74
     1
 95
       29
 96
       25
 40
0.0
 40
0.0
 40
0.0
 40
0.0
 40
1.0
 40
1.0
 40
1.0
 40
2.0
 40
2.0
 40
2.0
 40
3.0
 40
3.0
 40
3.0
 40
4.0
 40
4.0
 40
4.0
 40
5.0
 40
5.0
 40
5.0
 40
6.0
 40
6.0
 40
6.0
 40
7.0
 40
7.0
 40
7.0
 40
8.0
 40
8.0
 40
8.0
 40
8.0
 10
6.623227610460971
 20
-27.3661
 10
6.617342888387409
 20
-27.38173472222221
 10
6.604835944258916
 20
-27.37548055555555
 10
6.594179000083689
 20
-27.37079444444445
 10
6.5057567800952
 20
-27.33181111111111
 10
6.413215115766333
 20
-27.31893611111112
 10
6.317504007073087
 20
-27.32844444444444
 10
6.27645123033239
 20
-27.33252083333333
 10
6.237447064651051
 20
-27.34591388888889
 10
6.19842345452576
 20
-27.35861944444444
 10
6.188205399228334
 20
-27.36194583333333
 10
6.176456788414018
 20
-27.36785138888889
 10
6.171330399654632
 20
-27.35335833333334
 10
6.166445677555808
 20
-27.33954027777778
 10
6.178308177256136
 20
-27.33489583333333
 10
6.188581788107714
 20
-27.33132222222222
 10
6.246190119985739
 20
-27.31127777777778
 10
6.304798451838501
 20
-27.2960486111111
 10
6.373069444444455
 20
-27.29493472222222
 10
6.448424837099083
 20
-27.30038055555556
 10
6.530210946144102
 20
-27.30715833333333
 10
6.605863722010731
 20
-27.34404305555555
 10
6.615351221771056
 20
-27.34867222222222
 10
6.62845399921783
 20
-27.35216805555555
 10
6.623227610460971
 20
-27.3661
 97
        0
 97
        0
 92
        1
 93
        1
 72
     4
 94
        3
 73
     0
 74
     1
 95
       32
 96
       28
 40
0.0
 40
0.0
 40
0.0
 40
0.0
 40
1.0
 40
1.0
 40
1.0
 40
2.0
 40
2.0
 40
2.0
 40
3.0
 40
3.0
 40
3.0
 40
4.0
 40
4.0
 40
4.0
 40
5.0
 40
5.0
 40
5.0
 40
6.0
 40
6.0
 40
6.0
 40
7.0
 40
7.0
 40
7.0
 40
8.0
 40
8.0
 40
8.0
 40
9.0
 40
9.0
 40
9.0
 40
9.0
 10
7.028251211340325
 20
-27.36616388888889
 10
6.948712324460757
 20
-27.34757361111111
 10
6.870670659765588
 20
-27.3513875
 10
6.793955383925802
 20
-27.38085555555555
 10
6.782673439766363
 20
-27.38519444444445
 10
6.765572051309491
 20
-27.399425
 10
6.758105384831449
 20
-27.37960000000001
 10
6.751099829452869
 20
-27.36100972222222
 10
6.772151217809955
 20
-27.35855555555555
 10
6.783822050848458
 20
-27.35375555555555
 10
6.832212327403795
 20
-27.33388888888889
 10
6.883403992777251
 20
-27.3276
 10
6.93533454702093
 20
-27.32487083333333
 10
6.980256768108322
 20
-27.32809583333334
 10
7.025045655865748
 20
-27.33269027777778
 10
7.068466488102179
 20
-27.34599166666666
 10
7.073160932428031
 20
-27.34743888888888
 10
7.077903987863768
 20
-27.34884305555556
 10
7.082406765527796
 20
-27.35076388888889
 10
7.091453987521466
 20
-27.35464999999999
 10
7.098565098452935
 20
-27.3606125
 10
7.094317876338007
 20
-27.37146805555555
 10
7.090517876434003
 20
-27.38118055555555
 10
7.081760932210777
 20
-27.38046527777778
 10
7.073337321312465
 20
-27.37823888888888
 10
7.058299821692344
 20
-27.37425416666666
 10
7.043395655402188
 20
-27.3697013888889
 10
7.028251211340325
 20
-27.36616388888889
 97
        0
 97
        0
 75
     2
 76
     1
 98
        0
  0
SPLINE
  5
45
330
1F
100
AcDbEntity
  8
Layer 1
370
     0
100
AcDbSpline
210
0.0
220
0.0
230
1.0
 70
    11
 71
     3
 72
    41
 73
    37
 74
     0
 42
0.0000000001
 43
0.0000000001
 12
1.0
 22
0.0
 32
0.0
 13
1.0
 23
0.0
 33
0.0
 40
0.0
 40
0.0
 40
0.0
 40
0.0
 40
1.0
 40
1.0
 40
1.0
 40
2.0
 40
2.0
 40
2.0
 40
3.0
 40
3.0
 40
3.0
 40
4.0
 40
4.0
 40
4.0
 40
5.0
 40
5.0
 40
5.0
 40
6.0
 40
6.0
 40
6.0
 40
7.0
 40
7.0
 40
7.0
 40
8.0
 40
8.0
 40
8.0
 40
9.0
 40
9.0
 40
9.0
 40
10.0
 40
10.0
 40
10.0
 40
11.0
 40
11.0
 40
11.0
 40
12.0
 40
12.0
 40
12.0
 40
12.0
 10
6.407266504805496
 20
-29.87090694444444
 30
0.0
 10
6.429451226467285
 20
-29.85016111111112
 30
0.0
 10
6.452352614777636
 20
-29.83016666666666
 30
0.0
 10
6.474701225324174
 20
-29.80959027777778
 30
0.0
 10
6.536401223765501
 20
-29.75277638888888
 30
0.0
 10
6.595823444486591
 20
-29.69381388888889
 30
0.0
 10
6.646101220994246
 20
-29.62630833333333
 30
0.0
 10
6.704787330622821
 20
-29.5475
 30
0.0
 10
6.748158162860515
 20
-29.45988611111112
 30
0.0
 10
6.791969272864864
 20
-29.37254027777778
 30
0.0
 10
6.797102606068519
 20
-29.36231666666666
 30
0.0
 10
6.801887328169869
 20
-29.35180138888889
 30
0.0
 10
6.8028303837016
 20
-29.3427125
 30
0.0
 10
6.797087328291127
 20
-29.29866111111111
 30
0.0
 10
6.790706772896757
 20
-29.25728888888889
 30
0.0
 10
6.787934550744567
 20
-29.21547083333333
 30
0.0
 10
6.787097222222226
 20
-29.20286388888889
 30
0.0
 10
6.790551217345132
 20
-29.18328055555556
 30
0.0
 10
6.781127606472081
 20
-29.17961527777778
 30
0.0
 10
6.77118055555555
 20
-29.17575138888888
 30
0.0
 10
6.75988455145317
 20
-29.19178194444445
 30
0.0
 10
6.750072051701054
 20
-29.20013472222222
 30
0.0
 10
6.68441666666667
 20
-29.25597777777778
 30
0.0
 10
6.626120665943441
 20
-29.32023611111112
 30
0.0
 10
6.555551223281731
 20
-29.37047083333333
 30
0.0
 10
6.465341503338398
 20
-29.43468750000001
 30
0.0
 10
6.378684561083092
 20
-29.50453333333333
 30
0.0
 10
6.276691508104098
 20
-29.55027916666667
 30
0.0
 10
6.259604008535764
 20
-29.5579513888889
 30
0.0
 10
6.263958333333322
 20
-29.56869305555556
 30
0.0
 10
6.267637341666159
 20
-29.58005833333333
 30
0.0
 10
6.299480396417291
 20
-29.67861944444444
 30
0.0
 10
6.338265117659729
 20
-29.77438055555555
 30
0.0
 10
6.384138888888881
 20
-29.86729861111111
 30
0.0
 10
6.391305555555568
 20
-29.88180555555555
 30
0.0
 10
6.397260949502702
 20
-29.88026666666666
 30
0.0
 10
6.407266504805496
 20
-29.87090694444444
 30
0.0
  0
HATCH
  5
46
330
1F
100
AcDbEntity
  8
Layer 1
 62
    35
420
 10579544
100
AcDbHatch
 10
0.0
 20
0.0
 30
0.0
210
0.0
220
0.0
230
1.0
  2
SOLID
 70
     1
 71
     0
 91
        1
 92
        1
 93
        1
 72
     4
 94
        3
 73
     0
 74
     1
 95
       41
 96
       37
 40
0.0
 40
0.0
 40
0.0
 40
0.0
 40
1.0
 40
1.0
 40
1.0
 40
2.0
 40
2.0
 40
2.0
 40
3.0
 40
3.0
 40
3.0
 40
4.0
 40
4.0
 40
4.0
 40
5.0
 40
5.0
 40
5.0
 40
6.0
 40
6.0
 40
6.0
 40
7.0
 40
7.0
 40
7.0
 40
8.0
 40
8.0
 40
8.0
 40
9.0
 40
9.0
 40
9.0
 40
10.0
 40
10.0
 40
10.0
 40
11.0
 40
11.0
 40
11.0
 40
12.0
 40
12.0
 40
12.0
 40
12.0
 10
6.407266504805496
 20
-29.87090694444444
 10
6.429451226467285
 20
-29.85016111111112
 10
6.452352614777636
 20
-29.83016666666666
 10
6.474701225324174
 20
-29.80959027777778
 10
6.536401223765501
 20
-29.75277638888888
 10
6.595823444486591
 20
-29.69381388888889
 10
6.646101220994246
 20
-29.62630833333333
 10
6.704787330622821
 20
-29.5475
 10
6.748158162860515
 20
-29.45988611111112
 10
6.791969272864864
 20
-29.37254027777778
 10
6.797102606068519
 20
-29.36231666666666
 10
6.801887328169869
 20
-29.35180138888889
 10
6.8028303837016
 20
-29.3427125
 10
6.797087328291127
 20
-29.29866111111111
 10
6.790706772896757
 20
-29.25728888888889
 10
6.787934550744567
 20
-29.21547083333333
 10
6.787097222222226
 20
-29.20286388888889
 10
6.790551217345132
 20
-29.18328055555556
 10
6.781127606472081
 20
-29.17961527777778
 10
6.77118055555555
 20
-29.17575138888888
 10
6.75988455145317
 20
-29.19178194444445
 10
6.750072051701054
 20
-29.20013472222222
 10
6.68441666666667
 20
-29.25597777777778
 10
6.626120665943441
 20
-29.32023611111112
 10
6.555551223281731
 20
-29.37047083333333
 10
6.465341503338398
 20
-29.43468750000001
 10
6.378684561083092
 20
-29.50453333333333
 10
6.276691508104098
 20
-29.55027916666667
 10
6.259604008535764
 20
-29.5579513888889
 10
6.263958333333322
 20
-29.56869305555556
 10
6.267637341666159
 20
-29.58005833333333
 10
6.299480396417291
 20
-29.67861944444444
 10
6.338265117659729
 20
-29.77438055555555
 10
6.384138888888881
 20
-29.86729861111111
 10
6.391305555555568
 20
-29.88180555555555
 10
6.397260949502702
 20
-29.88026666666666
 10
6.407266504805496
 20
-29.87090694444444
 97
        0
 97
        0
 75
     2
 76
     1
 98
        0
  0
ENDSEC
  0
SECTION
  2
OBJECTS
  0
DICTIONARY
  5
C
330
0
100
AcDbDictionary
281
     1
  3
ACAD_GROUP
350
D
  3
ACAD_LAYOUT
350
1A
  3
ACAD_MATERIAL
350
3B
  3
ACAD_MLEADERSTYLE
350
48
  3
ACAD_MLINESTYLE
350
17
  3
ACAD_PLOTSETTINGS
350
19
  3
ACAD_PLOTSTYLENAME
350
E
  3
ACAD_TABLESTYLE
350
47
  3
ACAD_VISUALSTYLE
350
2A
  0
SUN
  5
3F
330
29
100
AcDbSun
 90
        1
290
     0
 63
     7
421
 16777215
 40
1.0
291
     1
 91
  2455826
 92
 54000000
292
     0
 70
     2
 71
   256
280
     1
  0
DICTIONARY
  5
D
102
{ACAD_REACTORS
330
C
102
}
330
C
100
AcDbDictionary
281
     1
  0
DICTIONARY
  5
1A
102
{ACAD_REACTORS
330
C
102
}
330
C
100
AcDbDictionary
281
     1
  3
Layout1
350
1E
  3
Layout2
350
26
  3
Model
350
22
  0
DICTIONARY
  5
3B
102
{ACAD_REACTORS
330
C
102
}
330
C
100
AcDbDictionary
281
     1
  3
ByBlock
350
3D
  3
ByLayer
350
3C
  3
Global
350
3E
  0
DICTIONARY
  5
48
102
{ACAD_REACTORS
330
C
102
}
330
C
100
AcDbDictionary
281
     1
  0
DICTIONARY
  5
17
102
{ACAD_REACTORS
330
C
102
}
330
C
100
AcDbDictionary
281
     1
  3
Standard
350
18
  0
DICTIONARY
  5
19
102
{ACAD_REACTORS
330
C
102
}
330
C
100
AcDbDictionary
281
     1
  0
ACDBDICTIONARYWDFLT
  5
E
102
{ACAD_REACTORS
330
C
102
}
330
C
100
AcDbDictionary
281
     1
  3
Normal
350
F
100
AcDbDictionaryWithDefault
340
F
  0
DICTIONARY
  5
47
102
{ACAD_REACTORS
330
C
102
}
330
C
100
AcDbDictionary
281
     1
  0
DICTIONARY
  5
2A
102
{ACAD_REACTORS
330
C
102
}
330
C
100
AcDbDictionary
281
     1
  3
2dWireframe
350
2F
  3
3D Hidden
350
31
  3
3dWireframe
350
30
  3
Basic
350
32
  3
Brighten
350
36
  3
ColorChange
350
3A
  3
Conceptual
350
34
  3
Dim
350
35
  3
Facepattern
350
39
  3
Flat
350
2B
  3
FlatWithEdges
350
2C
  3
Gouraud
350
2D
  3
GouraudWithEdges
350
2E
  3
Linepattern
350
38
  3
Realistic
350
33
  3
Thicken
350
37
  0
LAYOUT
  5
1E
102
{ACAD_REACTORS
330
1A
102
}
330
1A
100
AcDbPlotSettings
  1

  2
none_device
  4

  6

 40
0.0
 41
0.0
 42
0.0
 43
0.0
 44
0.0
 45
0.0
 46
0.0
 47
0.0
 48
0.0
 49
0.0
140
0.0
141
0.0
142
1.0
143
1.0
 70
   688
 72
     0
 73
     0
 74
     5
  7

 75
    16
 76
     0
 77
     2
 78
   300
147
1.0
148
0.0
149
0.0
100
AcDbLayout
  1
Layout1
 70
     1
 71
     1
 10
0.0
 20
0.0
 11
12.0
 21
9.0
 12
0.0
 22
0.0
 32
0.0
 14
1.000000000000000E+20
 24
1.000000000000000E+20
 34
1.000000000000000E+20
 15
-1.000000000000000E+20
 25
-1.000000000000000E+20
 35
-1.000000000000000E+20
146
0.0
 13
0.0
 23
0.0
 33
0.0
 16
1.0
 26
0.0
 36
0.0
 17
0.0
 27
1.0
 37
0.0
 76
     0
330
1B
  0
LAYOUT
  5
26
102
{ACAD_REACTORS
330
1A
102
}
330
1A
100
AcDbPlotSettings
  1

  2
none_device
  4

  6

 40
0.0
 41
0.0
 42
0.0
 43
0.0
 44
0.0
 45
0.0
 46
0.0
 47
0.0
 48
0.0
 49
0.0
140
0.0
141
0.0
142
1.0
143
1.0
 70
   688
 72
     0
 73
     0
 74
     5
  7

 75
    16
 76
     0
 77
     2
 78
   300
147
1.0
148
0.0
149
0.0
100
AcDbLayout
  1
Layout2
 70
     1
 71
     2
 10
0.0
 20
0.0
 11
0.0
 21
0.0
 12
0.0
 22
0.0
 32
0.0
 14
0.0
 24
0.0
 34
0.0
 15
0.0
 25
0.0
 35
0.0
146
0.0
 13
0.0
 23
0.0
 33
0.0
 16
1.0
 26
0.0
 36
0.0
 17
0.0
 27
1.0
 37
0.0
 76
     0
330
23
  0
LAYOUT
  5
22
102
{ACAD_REACTORS
330
1A
102
}
330
1A
100
AcDbPlotSettings
  1

  2
none_device
  4

  6

 40
0.0
 41
0.0
 42
0.0
 43
0.0
 44
0.0
 45
0.0
 46
0.0
 47
0.0
 48
0.0
 49
0.0
140
0.0
141
0.0
142
1.0
143
1.0
 70
  1712
 72
     0
 73
     0
 74
     0
  7

 75
     0
 76
     0
 77
     2
 78
   300
147
1.0
148
0.0
149
0.0
100
AcDbLayout
  1
Model
 70
     1
 71
     0
 10
0.0
 20
0.0
 11
12.0
 21
9.0
 12
0.0
 22
0.0
 32
0.0
 14
1.000000000000000E+20
 24
1.000000000000000E+20
 34
1.000000000000000E+20
 15
-1.000000000000000E+20
 25
-1.000000000000000E+20
 35
-1.000000000000000E+20
146
0.0
 13
0.0
 23
0.0
 33
0.0
 16
1.0
 26
0.0
 36
0.0
 17
0.0
 27
1.0
 37
0.0
 76
     0
330
1F
331
29
  0
MATERIAL
  5
3D
102
{ACAD_REACTORS
330
3B
102
}
330
3B
100
AcDbMaterial
  1
ByBlock
 72
     1
 94
      127
  0
MATERIAL
  5
3C
102
{ACAD_REACTORS
330
3B
102
}
330
3B
100
AcDbMaterial
  1
ByLayer
 72
     1
 94
      127
  0
MATERIAL
  5
3E
102
{ACAD_REACTORS
330
3B
102
}
330
3B
100
AcDbMaterial
  1
Global
 72
     1
 94
      127
  0
MLINESTYLE
  5
18
102
{ACAD_REACTORS
330
17
102
}
330
17
100
AcDbMlineStyle
  2
Standard
 70
     0
  3

 62
   256
 51
90.0
 52
90.0
 71
     2
 49
0.5
 62
   256
  6
BYLAYER
 49
-0.5
 62
   256
  6
BYLAYER
  0
ACDBPLACEHOLDER
  5
F
102
{ACAD_REACTORS
330
E
102
}
330
E
  0
VISUALSTYLE
  5
2F
102
{ACAD_REACTORS
330
2A
102
}
330
2A
100
AcDbVisualStyle
  2
2dWireframe
 70
     4
177
     2
291
     0
 71
     0
176
     1
 72
     2
176
     1
 73
     0
176
     1
 90
        0
176
     1
 40
-0.6
176
     1
 41
-30.0
176
     1
 62
     5
 63
     7
421
 16777215
176
     1
 74
     1
176
     1
 91
        4
176
     1
 64
     7
176
     1
 65
   257
176
     1
 75
     1
176
     1
175
     1
176
     1
 42
1.0
176
     1
 92
        0
176
     1
 66
   257
176
     1
 43
1.0
176
     1
 76
     1
176
     1
 77
     6
176
     1
 78
     2
176
     1
 67
     7
176
     1
 79
     5
176
     1
170
     0
176
     1
171
     0
176
     1
290
     0
176
     1
 93
        1
176
     1
 44
0.0
176
     1
173
     0
176
     1
  0
VISUALSTYLE
  5
31
102
{ACAD_REACTORS
330
2A
102
}
330
2A
100
AcDbVisualStyle
  2
3D Hidden
 70
     6
177
     2
291
     0
 71
     1
176
     1
 72
     2
176
     1
 73
     2
176
     1
 90
        0
176
     1
 40
-0.6
176
     1
 41
-30.0
176
     1
 62
     5
 63
     7
421
 16777215
176
     1
 74
     2
176
     1
 91
        2
176
     1
 64
     7
176
     1
 65
   257
176
     1
 75
     2
176
     1
175
     1
176
     1
 42
40.0
176
     1
 92
        0
176
     1
 66
   257
176
     1
 43
1.0
176
     1
 76
     1
176
     1
 77
     6
176
     1
 78
     2
176
     1
 67
     7
176
     1
 79
     3
176
     1
170
     0
176
     1
171
     0
176
     1
290
     0
176
     1
 93
        1
176
     1
 44
0.0
176
     1
173
     0
176
     1
  0
VISUALSTYLE
  5
30
102
{ACAD_REACTORS
330
2A
102
}
330
2A
100
AcDbVisualStyle
  2
3dWireframe
 70
     5
177
     2
291
     0
 71
     0
176
     1
 72
     2
176
     1
 73
     0
176
     1
 90
        0
176
     1
 40
-0.6
176
     1
 41
-30.0
176
     1
 62
     5
 63
     7
421
 16777215
176
     1
 74
     1
176
     1
 91
        4
176
     1
 64
     7
176
     1
 65
   257
176
     1
 75
     1
176
     1
175
     1
176
     1
 42
1.0
176
     1
 92
        0
176
     1
 66
   257
176
     1
 43
1.0
176
     1
 76
     1
176
     1
 77
     6
176
     1
 78
     2
176
     1
 67
     7
176
     1
 79
     5
176
     1
170
     0
176
     1
171
     0
176
     1
290
     0
176
     1
 93
        1
176
     1
 44
0.0
176
     1
173
     0
176
     1
  0
VISUALSTYLE
  5
32
102
{ACAD_REACTORS
330
2A
102
}
330
2A
100
AcDbVisualStyle
  2
Basic
 70
     7
177
     2
291
     1
 71
     1
176
     1
 72
     0
176
     1
 73
     1
176
     1
 90
        0
176
     1
 40
-0.6
176
     1
 41
-30.0
176
     1
 62
     5
 63
     7
421
 16777215
176
     1
 74
     0
176
     1
 91
        4
176
     1
 64
     7
176
     1
 65
   257
176
     1
 75
     1
176
     1
175
     1
176
     1
 42
1.0
176
     1
 92
        8
176
     1
 66
     7
176
     1
 43
1.0
176
     1
 76
     1
176
     1
 77
     6
176
     1
 78
     2
176
     1
 67
     7
176
     1
 79
     5
176
     1
170
     0
176
     1
171
     0
176
     1
290
     0
176
     1
 93
        1
176
     1
 44
0.0
176
     1
173
     0
176
     1
  0
VISUALSTYLE
  5
36
102
{ACAD_REACTORS
330
2A
102
}
330
2A
100
AcDbVisualStyle
  2
Brighten
 70
    12
177
     2
291
     1
 71
     2
176
     1
 72
     2
176
     1
 73
     0
176
     1
 90
        0
176
     1
 40
-0.6
176
     1
 41
-30.0
176
     1
 62
     5
 63
     7
421
 16777215
176
     1
 74
     1
176
     1
 91
        4
176
     1
 64
     7
176
     1
 65
   257
176
     1
 75
     1
176
     1
175
     1
176
     1
 42
1.0
176
     1
 92
        8
176
     1
 66
     7
176
     1
 43
1.0
176
     1
 76
     1
176
     1
 77
     6
176
     1
 78
     2
176
     1
 67
     7
176
     1
 79
     5
176
     1
170
     0
176
     1
171
     0
176
     1
290
     0
176
     1
 93
        1
176
     1
 44
50.0
176
     1
173
     0
176
     1
  0
VISUALSTYLE
  5
3A
102
{ACAD_REACTORS
330
2A
102
}
330
2A
100
AcDbVisualStyle
  2
ColorChange
 70
    16
177
     2
291
     1
 71
     2
176
     1
 72
     2
176
     1
 73
     3
176
     1
 90
        0
176
     1
 40
-0.6
176
     1
 41
-30.0
176
     1
 62
     5
 63
     8
421
  8421504
176
     1
 74
     1
176
     1
 91
        4
176
     1
 64
     7
176
     1
 65
   257
176
     1
 75
     1
176
     1
175
     1
176
     1
 42
1.0
176
     1
 92
        8
176
     1
 66
     8
424
  8421504
176
     1
 43
1.0
176
     1
 76
     1
176
     1
 77
     6
176
     1
 78
     2
176
     1
 67
     7
176
     1
 79
     5
176
     1
170
     0
176
     1
171
     0
176
     1
290
     0
176
     1
 93
        1
176
     1
 44
0.0
176
     1
173
     0
176
     1
  0
VISUALSTYLE
  5
34
102
{ACAD_REACTORS
330
2A
102
}
330
2A
100
AcDbVisualStyle
  2
Conceptual
 70
     9
177
     2
291
     0
 71
     3
176
     1
 72
     2
176
     1
 73
     0
176
     1
 90
        0
176
     1
 40
-0.6
176
     1
 41
-30.0
176
     1
 62
     5
 63
     7
421
 16777215
176
     1
 74
     2
176
     1
 91
        2
176
     1
 64
     7
176
     1
 65
   257
176
     1
 75
     1
176
     1
175
     1
176
     1
 42
40.0
176
     1
 92
        8
176
     1
 66
     7
176
     1
 43
1.0
176
     1
 76
     1
176
     1
 77
     6
176
     1
 78
     2
176
     1
 67
     7
176
     1
 79
     3
176
     1
170
     0
176
     1
171
     0
176
     1
290
     0
176
     1
 93
        1
176
     1
 44
0.0
176
     1
173
     0
176
     1
  0
VISUALSTYLE
  5
35
102
{ACAD_REACTORS
330
2A
102
}
330
2A
100
AcDbVisualStyle
  2
Dim
 70
    11
177
     2
291
     1
 71
     2
176
     1
 72
     2
176
     1
 73
     0
176
     1
 90
        0
176
     1
 40
-0.6
176
     1
 41
-30.0
176
     1
 62
     5
 63
     7
421
 16777215
176
     1
 74
     1
176
     1
 91
        4
176
     1
 64
     7
176
     1
 65
   257
176
     1
 75
     1
176
     1
175
     1
176
     1
 42
1.0
176
     1
 92
        8
176
     1
 66
     7
176
     1
 43
1.0
176
     1
 76
     1
176
     1
 77
     6
176
     1
 78
     2
176
     1
 67
     7
176
     1
 79
     5
176
     1
170
     0
176
     1
171
     0
176
     1
290
     0
176
     1
 93
        1
176
     1
 44
-50.0
176
     1
173
     0
176
     1
  0
VISUALSTYLE
  5
39
102
{ACAD_REACTORS
330
2A
102
}
330
2A
100
AcDbVisualStyle
  2
Facepattern
 70
    15
177
     2
291
     1
 71
     2
176
     1
 72
     2
176
     1
 73
     0
176
     1
 90
        0
176
     1
 40
-0.6
176
     1
 41
-30.0
176
     1
 62
     5
 63
     7
421
 16777215
176
     1
 74
     1
176
     1
 91
        4
176
     1
 64
     7
176
     1
 65
   257
176
     1
 75
     1
176
     1
175
     1
176
     1
 42
1.0
176
     1
 92
        8
176
     1
 66
     7
176
     1
 43
1.0
176
     1
 76
     1
176
     1
 77
     6
176
     1
 78
     2
176
     1
 67
     7
176
     1
 79
     5
176
     1
170
     0
176
     1
171
     0
176
     1
290
     0
176
     1
 93
        1
176
     1
 44
0.0
176
     1
173
     0
176
     1
  0
VISUALSTYLE
  5
2B
102
{ACAD_REACTORS
330
2A
102
}
330
2A
100
AcDbVisualStyle
  2
Flat
 70
     0
177
     2
291
     1
 71
     2
176
     1
 72
     1
176
     1
 73
     1
176
     1
 90
        2
176
     1
 40
-0.6
176
     1
 41
30.0
176
     1
 62
     5
 63
     7
421
 16777215
176
     1
 74
     0
176
     1
 91
        4
176
     1
 64
     7
176
     1
 65
   257
176
     1
 75
     1
176
     1
175
     1
176
     1
 42
1.0
176
     1
 92
        8
176
     1
 66
     7
176
     1
 43
1.0
176
     1
 76
     1
176
     1
 77
     6
176
     1
 78
     2
176
     1
 67
     7
176
     1
 79
     5
176
     1
170
     0
176
     1
171
     0
176
     1
290
     0
176
     1
 93
       13
176
     1
 44
0.0
176
     1
173
     0
176
     1
  0
VISUALSTYLE
  5
2C
102
{ACAD_REACTORS
330
2A
102
}
330
2A
100
AcDbVisualStyle
  2
FlatWithEdges
 70
     1
177
     2
291
     1
 71
     2
176
     1
 72
     1
176
     1
 73
     1
176
     1
 90
        2
176
     1
 40
-0.6
176
     1
 41
30.0
176
     1
 62
     5
 63
     7
421
 16777215
176
     1
 74
     1
176
     1
 91
        4
176
     1
 64
     7
176
     1
 65
   257
176
     1
 75
     1
176
     1
175
     1
176
     1
 42
1.0
176
     1
 92
        0
176
     1
 66
   257
176
     1
 43
1.0
176
     1
 76
     1
176
     1
 77
     6
176
     1
 78
     2
176
     1
 67
     7
176
     1
 79
     5
176
     1
170
     0
176
     1
171
     0
176
     1
290
     0
176
     1
 93
       13
176
     1
 44
0.0
176
     1
173
     0
176
     1
  0
VISUALSTYLE
  5
2D
102
{ACAD_REACTORS
330
2A
102
}
330
2A
100
AcDbVisualStyle
  2
Gouraud
 70
     2
177
     2
291
     1
 71
     2
176
     1
 72
     2
176
     1
 73
     1
176
     1
 90
        2
176
     1
 40
-0.6
176
     1
 41
30.0
176
     1
 62
     5
 63
     7
421
 16777215
176
     1
 74
     0
176
     1
 91
        4
176
     1
 64
     7
176
     1
 65
   257
176
     1
 75
     1
176
     1
175
     1
176
     1
 42
1.0
176
     1
 92
        0
176
     1
 66
     7
176
     1
 43
1.0
176
     1
 76
     1
176
     1
 77
     6
176
     1
 78
     2
176
     1
 67
     7
176
     1
 79
     5
176
     1
170
     0
176
     1
171
     0
176
     1
290
     0
176
     1
 93
       13
176
     1
 44
0.0
176
     1
173
     0
176
     1
  0
VISUALSTYLE
  5
2E
102
{ACAD_REACTORS
330
2A
102
}
330
2A
100
AcDbVisualStyle
  2
GouraudWithEdges
 70
     3
177
     2
291
     1
 71
     2
176
     1
 72
     2
176
     1
 73
     1
176
     1
 90
        2
176
     1
 40
-0.6
176
     1
 41
30.0
176
     1
 62
     5
 63
     7
421
 16777215
176
     1
 74
     1
176
     1
 91
        4
176
     1
 64
     7
176
     1
 65
   257
176
     1
 75
     1
176
     1
175
     1
176
     1
 42
1.0
176
     1
 92
        0
176
     1
 66
   257
176
     1
 43
1.0
176
     1
 76
     1
176
     1
 77
     6
176
     1
 78
     2
176
     1
 67
     7
176
     1
 79
     5
176
     1
170
     0
176
     1
171
     0
176
     1
290
     0
176
     1
 93
       13
176
     1
 44
0.0
176
     1
173
     0
176
     1
  0
VISUALSTYLE
  5
38
102
{ACAD_REACTORS
330
2A
102
}
330
2A
100
AcDbVisualStyle
  2
Linepattern
 70
    14
177
     2
291
     1
 71
     2
176
     1
 72
     2
176
     1
 73
     0
176
     1
 90
        0
176
     1
 40
-0.6
176
     1
 41
-30.0
176
     1
 62
     5
 63
     7
421
 16777215
176
     1
 74
     1
176
     1
 91
        4
176
     1
 64
     7
176
     1
 65
   257
176
     1
 75
     7
176
     1
175
     7
176
     1
 42
1.0
176
     1
 92
        8
176
     1
 66
     7
176
     1
 43
1.0
176
     1
 76
     1
176
     1
 77
     6
176
     1
 78
     2
176
     1
 67
     7
176
     1
 79
     5
176
     1
170
     0
176
     1
171
     0
176
     1
290
     0
176
     1
 93
        1
176
     1
 44
0.0
176
     1
173
     0
176
     1
  0
VISUALSTYLE
  5
33
102
{ACAD_REACTORS
330
2A
102
}
330
2A
100
AcDbVisualStyle
  2
Realistic
 70
     8
177
     2
291
     0
 71
     2
176
     1
 72
     2
176
     1
 73
     0
176
     1
 90
        0
176
     1
 40
-0.6
176
     1
 41
-30.0
176
     1
 62
     5
 63
     7
421
 16777215
176
     1
 74
     1
176
     1
 91
        0
176
     1
 64
     7
176
     1
 65
   257
176
     1
 75
     1
176
     1
175
     1
176
     1
 42
1.0
176
     1
 92
        8
176
     1
 66
     8
424
  7895160
176
     1
 43
1.0
176
     1
 76
     1
176
     1
 77
     6
176
     1
 78
     2
176
     1
 67
     7
176
     1
 79
     5
176
     1
170
     0
176
     1
171
     0
176
     1
290
     0
176
     1
 93
       13
176
     1
 44
0.0
176
     1
173
     0
176
     1
  0
VISUALSTYLE
  5
37
102
{ACAD_REACTORS
330
2A
102
}
330
2A
100
AcDbVisualStyle
  2
Thicken
 70
    13
177
     2
291
     1
 71
     2
176
     1
 72
     2
176
     1
 73
     0
176
     1
 90
        0
176
     1
 40
-0.6
176
     1
 41
-30.0
176
     1
 62
     5
 63
     7
421
 16777215
176
     1
 74
     1
176
     1
 91
        4
176
     1
 64
     7
176
     1
 65
   257
176
     1
 75
     1
176
     1
175
     1
176
     1
 42
1.0
176
     1
 92
       12
176
     1
 66
     7
176
     1
 43
1.0
176
     1
 76
     1
176
     1
 77
     6
176
     1
 78
     2
176
     1
 67
     7
176
     1
 79
     5
176
     1
170
     0
176
     1
171
     0
176
     1
290
     0
176
     1
 93
        1
176
     1
 44
0.0
176
     1
173
     0
176
     1
  0
ENDSEC
  0
EOF
