  0
SECTION
  2
HEADER
  9
$ACADVER
  1
AC1024
  9
$ACADMAINTVER
 70
     6
  9
$DWGCODEPAGE
  3
ANSI_1251
  9
$INSBASE
 10
0.0
 20
0.0
 30
0.0
  9
$EXTMIN
 10
1.000000000000000E+20
 20
1.000000000000000E+20
 30
1.000000000000000E+20
  9
$EXTMAX
 10
-1.000000000000000E+20
 20
-1.000000000000000E+20
 30
-1.000000000000000E+20
  9
$LIMMIN
 10
0.0
 20
0.0
  9
$LIMMAX
 10
12.0
 20
9.0
  9
$ORTHOMODE
 70
     0
  9
$REGENMODE
 70
     1
  9
$FILLMODE
 70
     1
  9
$QTEXTMODE
 70
     0
  9
$MIRRTEXT
 70
     1
  9
$LTSCALE
 40
1.0
  9
$ATTMODE
 70
     1
  9
$TEXTSIZE
 40
0.2
  9
$TRACEWID
 40
0.05
  9
$TEXTSTYLE
  7
Standard
  9
$CLAYER
  8
0
  9
$CELTYPE
  6
ByLayer
  9
$CECOLOR
 62
   256
  9
$CELTSCALE
 40
1.0
  9
$DISPSILH
 70
     0
  9
$DIMSCALE
 40
1.0
  9
$DIMASZ
 40
0.18
  9
$DIMEXO
 40
0.0625
  9
$DIMDLI
 40
0.38
  9
$DIMRND
 40
0.0
  9
$DIMDLE
 40
0.0
  9
$DIMEXE
 40
0.18
  9
$DIMTP
 40
0.0
  9
$DIMTM
 40
0.0
  9
$DIMTXT
 40
0.18
  9
$DIMCEN
 40
0.09
  9
$DIMTSZ
 40
0.0
  9
$DIMTOL
 70
     0
  9
$DIMLIM
 70
     0
  9
$DIMTIH
 70
     1
  9
$DIMTOH
 70
     1
  9
$DIMSE1
 70
     0
  9
$DIMSE2
 70
     0
  9
$DIMTAD
 70
     0
  9
$DIMZIN
 70
     0
  9
$DIMBLK
  1

  9
$DIMASO
 70
     1
  9
$DIMSHO
 70
     1
  9
$DIMPOST
  1

  9
$DIMAPOST
  1

  9
$DIMALT
 70
     0
  9
$DIMALTD
 70
     2
  9
$DIMALTF
 40
25.4
  9
$DIMLFAC
 40
1.0
  9
$DIMTOFL
 70
     0
  9
$DIMTVP
 40
0.0
  9
$DIMTIX
 70
     0
  9
$DIMSOXD
 70
     0
  9
$DIMSAH
 70
     0
  9
$DIMBLK1
  1

  9
$DIMBLK2
  1

  9
$DIMSTYLE
  2
Standard
  9
$DIMCLRD
 70
     0
  9
$DIMCLRE
 70
     0
  9
$DIMCLRT
 70
     0
  9
$DIMTFAC
 40
1.0
  9
$DIMGAP
 40
0.09
  9
$DIMJUST
 70
     0
  9
$DIMSD1
 70
     0
  9
$DIMSD2
 70
     0
  9
$DIMTOLJ
 70
     1
  9
$DIMTZIN
 70
     0
  9
$DIMALTZ
 70
     0
  9
$DIMALTTZ
 70
     0
  9
$DIMUPT
 70
     0
  9
$DIMDEC
 70
     4
  9
$DIMTDEC
 70
     4
  9
$DIMALTU
 70
     2
  9
$DIMALTTD
 70
     2
  9
$DIMTXSTY
  7
Standard
  9
$DIMAUNIT
 70
     0
  9
$DIMADEC
 70
     0
  9
$DIMALTRND
 40
0.0
  9
$DIMAZIN
 70
     0
  9
$DIMDSEP
 70
    46
  9
$DIMATFIT
 70
     3
  9
$DIMFRAC
 70
     0
  9
$DIMLDRBLK
  1

  9
$DIMLUNIT
 70
     2
  9
$DIMLWD
 70
    -2
  9
$DIMLWE
 70
    -2
  9
$DIMTMOVE
 70
     0
  9
$DIMFXL
 40
1.0
  9
$DIMFXLON
 70
     0
  9
$DIMJOGANG
 40
0.7853981633974483
  9
$DIMTFILL
 70
     0
  9
$DIMTFILLCLR
 70
     0
  9
$DIMARCSYM
 70
     0
  9
$DIMLTYPE
  6

  9
$DIMLTEX1
  6

  9
$DIMLTEX2
  6

  9
$DIMTXTDIRECTION
 70
     0
  9
$LUNITS
 70
     2
  9
$LUPREC
 70
     4
  9
$SKETCHINC
 40
0.1
  9
$FILLETRAD
 40
0.5
  9
$AUNITS
 70
     0
  9
$AUPREC
 70
     0
  9
$MENU
  1
.
  9
$ELEVATION
 40
0.0
  9
$PELEVATION
 40
0.0
  9
$THICKNESS
 40
0.0
  9
$LIMCHECK
 70
     0
  9
$CHAMFERA
 40
0.5
  9
$CHAMFERB
 40
0.5
  9
$CHAMFERC
 40
1.0
  9
$CHAMFERD
 40
0.0
  9
$SKPOLY
 70
     0
  9
$TDCREATE
 40
2459337.681265706
  9
$TDUCREATE
 40
2459337.556265706
  9
$TDUPDATE
 40
2459337.681265891
  9
$TDUUPDATE
 40
2459337.556265891
  9
$TDINDWG
 40
0.0000000116
  9
$TDUSRTIMER
 40
0.0000000116
  9
$USRTIMER
 70
     1
  9
$ANGBASE
 50
0.0
  9
$ANGDIR
 70
     0
  9
$PDMODE
 70
     0
  9
$PDSIZE
 40
0.0
  9
$PLINEWID
 40
0.0
  9
$SPLFRAME
 70
     0
  9
$SPLINETYPE
 70
     6
  9
$SPLINESEGS
 70
     8
  9
$HANDSEED
  5
58
  9
$SURFTAB1
 70
     6
  9
$SURFTAB2
 70
     6
  9
$SURFTYPE
 70
     6
  9
$SURFU
 70
     6
  9
$SURFV
 70
     6
  9
$UCSBASE
  2

  9
$UCSNAME
  2

  9
$UCSORG
 10
0.0
 20
0.0
 30
0.0
  9
$UCSXDIR
 10
1.0
 20
0.0
 30
0.0
  9
$UCSYDIR
 10
0.0
 20
1.0
 30
0.0
  9
$UCSORTHOREF
  2

  9
$UCSORTHOVIEW
 70
     0
  9
$UCSORGTOP
 10
0.0
 20
0.0
 30
0.0
  9
$UCSORGBOTTOM
 10
0.0
 20
0.0
 30
0.0
  9
$UCSORGLEFT
 10
0.0
 20
0.0
 30
0.0
  9
$UCSORGRIGHT
 10
0.0
 20
0.0
 30
0.0
  9
$UCSORGFRONT
 10
0.0
 20
0.0
 30
0.0
  9
$UCSORGBACK
 10
0.0
 20
0.0
 30
0.0
  9
$PUCSBASE
  2

  9
$PUCSNAME
  2

  9
$PUCSORG
 10
0.0
 20
0.0
 30
0.0
  9
$PUCSXDIR
 10
1.0
 20
0.0
 30
0.0
  9
$PUCSYDIR
 10
0.0
 20
1.0
 30
0.0
  9
$PUCSORTHOREF
  2

  9
$PUCSORTHOVIEW
 70
     0
  9
$PUCSORGTOP
 10
0.0
 20
0.0
 30
0.0
  9
$PUCSORGBOTTOM
 10
0.0
 20
0.0
 30
0.0
  9
$PUCSORGLEFT
 10
0.0
 20
0.0
 30
0.0
  9
$PUCSORGRIGHT
 10
0.0
 20
0.0
 30
0.0
  9
$PUCSORGFRONT
 10
0.0
 20
0.0
 30
0.0
  9
$PUCSORGBACK
 10
0.0
 20
0.0
 30
0.0
  9
$USERI1
 70
     0
  9
$USERI2
 70
     0
  9
$USERI3
 70
     0
  9
$USERI4
 70
     0
  9
$USERI5
 70
     0
  9
$USERR1
 40
0.0
  9
$USERR2
 40
0.0
  9
$USERR3
 40
0.0
  9
$USERR4
 40
0.0
  9
$USERR5
 40
0.0
  9
$WORLDVIEW
 70
     1
  9
$SHADEDGE
 70
     3
  9
$SHADEDIF
 70
    70
  9
$TILEMODE
 70
     1
  9
$MAXACTVP
 70
    64
  9
$PINSBASE
 10
0.0
 20
0.0
 30
0.0
  9
$PLIMCHECK
 70
     0
  9
$PEXTMIN
 10
1.000000000000000E+20
 20
1.000000000000000E+20
 30
1.000000000000000E+20
  9
$PEXTMAX
 10
-1.000000000000000E+20
 20
-1.000000000000000E+20
 30
-1.000000000000000E+20
  9
$PLIMMIN
 10
0.0
 20
0.0
  9
$PLIMMAX
 10
12.0
 20
9.0
  9
$UNITMODE
 70
     0
  9
$VISRETAIN
 70
     1
  9
$PLINEGEN
 70
     0
  9
$PSLTSCALE
 70
     1
  9
$TREEDEPTH
 70
  3020
  9
$CMLSTYLE
  2
Standard
  9
$CMLJUST
 70
     0
  9
$CMLSCALE
 40
1.0
  9
$PROXYGRAPHICS
 70
     1
  9
$MEASUREMENT
 70
     0
  9
$CELWEIGHT
370
    -1
  9
$ENDCAPS
280
     0
  9
$JOINSTYLE
280
     0
  9
$LWDISPLAY
290
     1
  9
$INSUNITS
 70
     1
  9
$HYPERLINKBASE
  1

  9
$STYLESHEET
  1

  9
$XEDIT
290
     1
  9
$CEPSNTYPE
380
     0
  9
$PSTYLEMODE
290
     1
  9
$FINGERPRINTGUID
  2
{89007FB6-EB46-407D-99C7-D5823DDBA350}
  9
$VERSIONGUID
  2
{FAEB1C32-E019-11D5-929B-00C0DF256EC4}
  9
$EXTNAMES
290
     1
  9
$PSVPSCALE
 40
0.0
  9
$OLESTARTUP
290
     0
  9
$SORTENTS
280
   127
  9
$INDEXCTL
280
     0
  9
$HIDETEXT
280
     1
  9
$XCLIPFRAME
280
     2
  9
$HALOGAP
280
     0
  9
$OBSCOLOR
 70
   257
  9
$OBSLTYPE
280
     0
  9
$INTERSECTIONDISPLAY
280
     0
  9
$INTERSECTIONCOLOR
 70
   257
  9
$DIMASSOC
280
     2
  9
$PROJECTNAME
  1

  9
$CAMERADISPLAY
290
     0
  9
$LENSLENGTH
 40
50.0
  9
$CAMERAHEIGHT
 40
0.0
  9
$STEPSPERSEC
 40
2.0
  9
$STEPSIZE
 40
6.0
  9
$3DDWFPREC
 40
2.0
  9
$PSOLWIDTH
 40
0.25
  9
$PSOLHEIGHT
 40
4.0
  9
$LOFTANG1
 40
1.570796326794897
  9
$LOFTANG2
 40
1.570796326794897
  9
$LOFTMAG1
 40
0.0
  9
$LOFTMAG2
 40
0.0
  9
$LOFTPARAM
 70
     7
  9
$LOFTNORMALS
280
     1
  9
$LATITUDE
 40
37.795
  9
$LONGITUDE
 40
-122.394
  9
$NORTHDIRECTION
 40
0.0
  9
$TIMEZONE
 70
 -8000
  9
$LIGHTGLYPHDISPLAY
280
     1
  9
$TILEMODELIGHTSYNCH
280
     1
  9
$CMATERIAL
347
3C
  9
$SOLIDHIST
280
     1
  9
$SHOWHIST
280
     1
  9
$DWFFRAME
280
     2
  9
$DGNFRAME
280
     2
  9
$REALWORLDSCALE
290
     1
  9
$INTERFERECOLOR
 62
   256
  9
$CSHADOW
280
     0
  9
$SHADOWPLANELOCATION
 40
0.0
  0
ENDSEC
  0
SECTION
  2
CLASSES
  0
CLASS
  1
ACDBDICTIONARYWDFLT
  2
AcDbDictionaryWithDefault
  3
ObjectDBX Classes
 90
        0
 91
        4
280
     0
281
     0
  0
CLASS
  1
VISUALSTYLE
  2
AcDbVisualStyle
  3
ObjectDBX Classes
 90
     4095
 91
        4
280
     0
281
     0
  0
CLASS
  1
MATERIAL
  2
AcDbMaterial
  3
ObjectDBX Classes
 90
     1153
 91
        4
280
     0
281
     0
  0
CLASS
  1
SUN
  2
AcDbSun
  3
SCENEOE
 90
     1024
 91
        4
280
     0
281
     0
  0
ENDSEC
  0
SECTION
  2
TABLES
  0
TABLE
  2
VPORT
  5
8
330
0
100
AcDbSymbolTable
 70
     1
  0
VPORT
  5
29
330
8
100
AcDbSymbolTableRecord
100
AcDbViewportTableRecord
  2
*Active
 70
     0
 10
0.0
 20
0.0
 11
1.0
 21
1.0
 12
0.0
 22
0.0
 13
0.0
 23
0.0
 14
0.5
 24
0.5
 15
0.5
 25
0.5
 16
0.0
 26
0.0
 36
1.0
 17
18.27808393745085
 27
-6.003205555555546
 37
0.0
 40
12.0
 41
0.5959311192047726
 42
50.0
 43
0.0
 44
0.0
 50
0.0
 51
0.0
 71
     0
 72
   100
 73
     1
 74
     3
 75
     0
 76
     0
 77
     0
 78
     0
281
     0
 65
     1
110
0.0
120
0.0
130
0.0
111
1.0
121
0.0
131
0.0
112
0.0
122
1.0
132
0.0
 79
     0
146
0.0
 60
     3
 61
     5
292
     1
282
     1
141
0.0
142
0.0
 63
   250
361
3F
  0
ENDTAB
  0
TABLE
  2
LTYPE
  5
5
330
0
100
AcDbSymbolTable
 70
     1
  0
LTYPE
  5
14
330
5
100
AcDbSymbolTableRecord
100
AcDbLinetypeTableRecord
  2
ByBlock
 70
     0
  3

 72
    65
 73
     0
 40
0.0
  0
LTYPE
  5
15
330
5
100
AcDbSymbolTableRecord
100
AcDbLinetypeTableRecord
  2
ByLayer
 70
     0
  3

 72
    65
 73
     0
 40
0.0
  0
LTYPE
  5
16
330
5
100
AcDbSymbolTableRecord
100
AcDbLinetypeTableRecord
  2
Continuous
 70
     0
  3
Solid line
 72
    65
 73
     0
 40
0.0
  0
ENDTAB
  0
TABLE
  2
LAYER
  5
2
330
0
100
AcDbSymbolTable
 70
     2
  0
LAYER
  5
10
330
2
100
AcDbSymbolTableRecord
100
AcDbLayerTableRecord
  2
0
 70
     0
 62
     7
  6
Continuous
370
    -3
390
F
347
3E
  0
LAYER
  5
40
330
2
100
AcDbSymbolTableRecord
100
AcDbLayerTableRecord
  2
Layer 1
 70
     0
 62
     7
  6
Continuous
370
    -3
390
F
347
3E
  0
ENDTAB
  0
TABLE
  2
STYLE
  5
3
330
0
100
AcDbSymbolTable
 70
     1
  0
STYLE
  5
11
330
3
100
AcDbSymbolTableRecord
100
AcDbTextStyleTableRecord
  2
Standard
 70
     0
 40
0.0
 41
1.0
 50
0.0
 71
     0
 42
0.2
  3
txt
  4

  0
ENDTAB
  0
TABLE
  2
VIEW
  5
6
330
0
100
AcDbSymbolTable
 70
     0
  0
ENDTAB
  0
TABLE
  2
UCS
  5
7
330
0
100
AcDbSymbolTable
 70
     0
  0
ENDTAB
  0
TABLE
  2
APPID
  5
9
330
0
100
AcDbSymbolTable
 70
     1
  0
APPID
  5
12
330
9
100
AcDbSymbolTableRecord
100
AcDbRegAppTableRecord
  2
ACAD
 70
     0
  0
ENDTAB
  0
TABLE
  2
DIMSTYLE
  5
A
330
0
100
AcDbSymbolTable
 70
     1
100
AcDbDimStyleTable
  0
DIMSTYLE
105
27
330
A
100
AcDbSymbolTableRecord
100
AcDbDimStyleTableRecord
  2
Standard
 70
     0
178
     0
340
11
  0
ENDTAB
  0
TABLE
  2
BLOCK_RECORD
  5
1
330
0
100
AcDbSymbolTable
 70
     2
  0
BLOCK_RECORD
  5
1F
330
1
100
AcDbSymbolTableRecord
100
AcDbBlockTableRecord
  2
*Model_Space
340
22
 70
     0
280
     1
281
     0
  0
BLOCK_RECORD
  5
1B
330
1
100
AcDbSymbolTableRecord
100
AcDbBlockTableRecord
  2
*Paper_Space
340
1E
 70
     0
280
     1
281
     0
  0
BLOCK_RECORD
  5
23
330
1
100
AcDbSymbolTableRecord
100
AcDbBlockTableRecord
  2
*Paper_Space0
340
26
 70
     0
280
     1
281
     0
  0
BLOCK_RECORD
  5
43
330
1
100
AcDbSymbolTableRecord
100
AcDbBlockTableRecord
  2
block 2
340
0
102
{BLKREFS
331
44
102
}
 70
     0
280
     1
281
     0
  0
ENDTAB
  0
ENDSEC
  0
SECTION
  2
BLOCKS
  0
BLOCK
  5
20
330
1F
100
AcDbEntity
  8
0
100
AcDbBlockBegin
  2
*Model_Space
 70
     0
 10
0.0
 20
0.0
 30
0.0
  3
*Model_Space
  1

  0
ENDBLK
  5
21
330
1F
100
AcDbEntity
  8
0
100
AcDbBlockEnd
  0
BLOCK
  5
1C
330
1B
100
AcDbEntity
 67
     1
  8
0
100
AcDbBlockBegin
  2
*Paper_Space
 70
     0
 10
0.0
 20
0.0
 30
0.0
  3
*Paper_Space
  1

  0
ENDBLK
  5
1D
330
1B
100
AcDbEntity
 67
     1
  8
0
100
AcDbBlockEnd
  0
BLOCK
  5
24
330
23
100
AcDbEntity
  8
0
100
AcDbBlockBegin
  2
*Paper_Space0
 70
     0
 10
0.0
 20
0.0
 30
0.0
  3
*Paper_Space0
  1

  0
ENDBLK
  5
25
330
23
100
AcDbEntity
  8
0
100
AcDbBlockEnd
  0
BLOCK
  5
45
330
43
100
AcDbEntity
  8
0
100
AcDbBlockBegin
  2
block 2
 70
     0
 10
0.0
 20
0.0
 30
0.0
  3
block 2
  1

  0
SPLINE
  5
47
330
43
100
AcDbEntity
  8
Layer 1
370
     0
100
AcDbSpline
210
0.0
220
0.0
230
1.0
 70
    11
 71
     3
 72
    35
 73
    31
 74
     0
 42
0.0000000001
 43
0.0000000001
 12
1.0
 22
0.0
 32
0.0
 13
1.0
 23
0.0
 33
0.0
 40
0.0
 40
0.0
 40
0.0
 40
0.0
 40
1.0
 40
1.0
 40
1.0
 40
2.0
 40
2.0
 40
2.0
 40
3.0
 40
3.0
 40
3.0
 40
4.0
 40
4.0
 40
4.0
 40
5.0
 40
5.0
 40
5.0
 40
6.0
 40
6.0
 40
6.0
 40
7.0
 40
7.0
 40
7.0
 40
8.0
 40
8.0
 40
8.0
 40
9.0
 40
9.0
 40
9.0
 40
10.0
 40
10.0
 40
10.0
 40
10.0
 10
20.80659999999999
 20
-1.015265277777783
 30
0.0
 10
20.13111527777778
 20
-0.3626555555555595
 30
0.0
 10
19.2334263888889
 20
-0.0032058888888918
 30
0.0
 10
18.27831805555555
 20
-0.0032058888888918
 30
0.0
 10
17.32320972222222
 20
-0.0032058888888918
 30
0.0
 10
16.42552083333333
 20
-0.3626555555555595
 30
0.0
 10
15.75003611111111
 20
-1.015265277777783
 30
0.0
 10
15.07455138888889
 20
-1.667409722222222
 30
0.0
 10
14.70249722222222
 20
-2.535222222222223
 30
0.0
 10
14.70249722222222
 20
-3.45765416666667
 30
0.0
 10
14.70249722222222
 20
-3.45765416666667
 30
0.0
 10
14.70249722222222
 20
-8.548291666666676
 30
0.0
 10
14.70249722222222
 20
-8.548291666666676
 30
0.0
 10
14.70249722222222
 20
-9.471193055555558
 30
0.0
 10
15.07455138888889
 20
-10.33900694444444
 30
0.0
 10
15.75003611111111
 20
-10.99115138888889
 30
0.0
 10
16.42552083333333
 20
-11.64376111111111
 30
0.0
 10
17.32320972222222
 20
-12.00320555555555
 30
0.0
 10
18.27831805555555
 20
-12.00320555555555
 30
0.0
 10
19.2334263888889
 20
-12.00320555555555
 30
0.0
 10
20.13111527777778
 20
-11.64376111111111
 30
0.0
 10
20.80659999999999
 20
-10.99115138888889
 30
0.0
 10
21.48208472222223
 20
-10.33900694444444
 30
0.0
 10
21.85367222222223
 20
-9.471193055555558
 30
0.0
 10
21.85367222222223
 20
-8.548291666666676
 30
0.0
 10
21.85367222222223
 20
-8.548291666666676
 30
0.0
 10
21.85367222222223
 20
-3.45765416666667
 30
0.0
 10
21.85367222222223
 20
-3.45765416666667
 30
0.0
 10
21.85367222222223
 20
-2.535222222222223
 30
0.0
 10
21.48208472222223
 20
-1.667409722222222
 30
0.0
 10
20.80659999999999
 20
-1.015265277777783
 30
0.0
  0
SPLINE
  5
48
330
43
100
AcDbEntity
  8
Layer 1
370
     0
100
AcDbSpline
210
0.0
220
0.0
230
1.0
 70
    11
 71
     3
 72
    26
 73
    22
 74
     0
 42
0.0000000001
 43
0.0000000001
 12
1.0
 22
0.0
 32
0.0
 13
1.0
 23
0.0
 33
0.0
 40
0.0
 40
0.0
 40
0.0
 40
0.0
 40
1.0
 40
1.0
 40
1.0
 40
2.0
 40
2.0
 40
2.0
 40
3.0
 40
3.0
 40
3.0
 40
4.0
 40
4.0
 40
4.0
 40
5.0
 40
5.0
 40
5.0
 40
6.0
 40
6.0
 40
6.0
 40
7.0
 40
7.0
 40
7.0
 40
7.0
 10
21.7052236111111
 20
-8.548291666666676
 30
0.0
 10
21.7052236111111
 20
-9.461390277777783
 30
0.0
 10
21.32103333333334
 20
-10.28905694444443
 30
0.0
 10
20.70063333333332
 20
-10.88845555555556
 30
0.0
 10
20.07976527777777
 20
-11.48830694444445
 30
0.0
 10
19.22315694444445
 20
-11.85943055555557
 30
0.0
 10
18.27831805555555
 20
-11.85943055555557
 30
0.0
 10
16.38864166666667
 20
-11.85943055555557
 30
0.0
 10
14.8514125
 20
-10.37401805555555
 30
0.0
 10
14.8514125
 20
-8.548291666666676
 30
0.0
 10
14.8514125
 20
-8.548291666666676
 30
0.0
 10
14.8514125
 20
-3.45765416666667
 30
0.0
 10
14.8514125
 20
-3.45765416666667
 30
0.0
 10
14.8514125
 20
-1.631931944444444
 30
0.0
 10
16.38864166666667
 20
-0.1465194444444427
 30
0.0
 10
18.27831805555555
 20
-0.1465194444444427
 30
0.0
 10
20.16799444444445
 20
-0.1465194444444427
 30
0.0
 10
21.7052236111111
 20
-1.631931944444444
 30
0.0
 10
21.7052236111111
 20
-3.45765416666667
 30
0.0
 10
21.7052236111111
 20
-3.45765416666667
 30
0.0
 10
21.7052236111111
 20
-8.548291666666676
 30
0.0
 10
21.7052236111111
 20
-8.548291666666676
 30
0.0
  0
ENDBLK
  5
46
330
43
100
AcDbEntity
  8
0
100
AcDbBlockEnd
  0
ENDSEC
  0
SECTION
  2
ENTITIES
  0
SPLINE
  5
41
330
1F
100
AcDbEntity
  8
Layer 1
370
     0
100
AcDbSpline
210
0.0
220
0.0
230
1.0
 70
    11
 71
     3
 72
    32
 73
    28
 74
     0
 42
0.0000000001
 43
0.0000000001
 12
1.0
 22
0.0
 32
0.0
 13
1.0
 23
0.0
 33
0.0
 40
0.0
 40
0.0
 40
0.0
 40
0.0
 40
1.0
 40
1.0
 40
1.0
 40
2.0
 40
2.0
 40
2.0
 40
3.0
 40
3.0
 40
3.0
 40
4.0
 40
4.0
 40
4.0
 40
5.0
 40
5.0
 40
5.0
 40
6.0
 40
6.0
 40
6.0
 40
7.0
 40
7.0
 40
7.0
 40
8.0
 40
8.0
 40
8.0
 40
9.0
 40
9.0
 40
9.0
 40
9.0
 10
21.41766388888889
 20
-3.604234722222221
 30
0.0
 10
21.41766388888889
 20
-3.604234722222221
 30
0.0
 10
21.41766388888889
 20
-8.40218194444444
 30
0.0
 10
21.41766388888889
 20
-8.40218194444444
 30
0.0
 10
21.41766388888889
 20
-10.08272500000001
 30
0.0
 10
20.09703749999999
 20
-11.45516666666668
 30
0.0
 10
18.43656944444446
 20
-11.53732638888889
 30
0.0
 10
18.38428611111112
 20
-11.54012777777777
 30
0.0
 10
18.33153472222223
 20
-11.54152777777777
 30
0.0
 10
18.27831805555555
 20
-11.54152777777777
 30
0.0
 10
17.8978625
 20
-11.54152777777777
 30
0.0
 10
17.53327777777777
 20
-11.47384027777778
 30
0.0
 10
17.19576944444444
 20
-11.34966111111112
 30
0.0
 10
15.99511527777777
 20
-10.90899027777778
 30
0.0
 10
15.13897222222223
 20
-9.755486111111116
 30
0.0
 10
15.13897222222223
 20
-8.40218194444444
 30
0.0
 10
15.13897222222223
 20
-8.40218194444444
 30
0.0
 10
15.13897222222223
 20
-3.604234722222221
 30
0.0
 10
15.13897222222223
 20
-3.604234722222221
 30
0.0
 10
15.13897222222223
 20
-1.870475000000005
 30
0.0
 10
16.54455833333333
 20
-0.4648875000000063
 30
0.0
 10
18.27831805555555
 20
-0.4648875000000063
 30
0.0
 10
19.14519722222222
 20
-0.4648875000000063
 30
0.0
 10
19.92991805555556
 20
-0.8164013888888854
 30
0.0
 10
20.49803472222223
 20
-1.384518055555557
 30
0.0
 10
21.06615138888888
 20
-1.952634722222228
 30
0.0
 10
21.41766388888889
 20
-2.737354166666667
 30
0.0
 10
21.41766388888889
 20
-3.604234722222221
 30
0.0
  0
HATCH
  5
42
330
1F
100
AcDbEntity
  8
Layer 1
 62
    35
420
 10579544
100
AcDbHatch
 10
0.0
 20
0.0
 30
0.0
210
0.0
220
0.0
230
1.0
  2
SOLID
 70
     1
 71
     0
 91
        1
 92
        1
 93
        1
 72
     4
 94
        3
 73
     0
 74
     1
 95
       32
 96
       28
 40
0.0
 40
0.0
 40
0.0
 40
0.0
 40
1.0
 40
1.0
 40
1.0
 40
2.0
 40
2.0
 40
2.0
 40
3.0
 40
3.0
 40
3.0
 40
4.0
 40
4.0
 40
4.0
 40
5.0
 40
5.0
 40
5.0
 40
6.0
 40
6.0
 40
6.0
 40
7.0
 40
7.0
 40
7.0
 40
8.0
 40
8.0
 40
8.0
 40
9.0
 40
9.0
 40
9.0
 40
9.0
 10
21.41766388888889
 20
-3.604234722222221
 10
21.41766388888889
 20
-3.604234722222221
 10
21.41766388888889
 20
-8.40218194444444
 10
21.41766388888889
 20
-8.40218194444444
 10
21.41766388888889
 20
-10.08272500000001
 10
20.09703749999999
 20
-11.45516666666668
 10
18.43656944444446
 20
-11.53732638888889
 10
18.38428611111112
 20
-11.54012777777777
 10
18.33153472222223
 20
-11.54152777777777
 10
18.27831805555555
 20
-11.54152777777777
 10
17.8978625
 20
-11.54152777777777
 10
17.53327777777777
 20
-11.47384027777778
 10
17.19576944444444
 20
-11.34966111111112
 10
15.99511527777777
 20
-10.90899027777778
 10
15.13897222222223
 20
-9.755486111111116
 10
15.13897222222223
 20
-8.40218194444444
 10
15.13897222222223
 20
-8.40218194444444
 10
15.13897222222223
 20
-3.604234722222221
 10
15.13897222222223
 20
-3.604234722222221
 10
15.13897222222223
 20
-1.870475000000005
 10
16.54455833333333
 20
-0.4648875000000063
 10
18.27831805555555
 20
-0.4648875000000063
 10
19.14519722222222
 20
-0.4648875000000063
 10
19.92991805555556
 20
-0.8164013888888854
 10
20.49803472222223
 20
-1.384518055555557
 10
21.06615138888888
 20
-1.952634722222228
 10
21.41766388888889
 20
-2.737354166666667
 10
21.41766388888889
 20
-3.604234722222221
 97
        0
 97
        0
 75
     2
 76
     1
 98
        0
  0
INSERT
  5
44
330
1F
100
AcDbEntity
  8
Layer 1
100
AcDbBlockReference
  2
block 2
 10
0.0
 20
0.0
 30
0.0
  0
HATCH
  5
49
330
1F
100
AcDbEntity
  8
Layer 1
 62
    35
420
 10579544
100
AcDbHatch
 10
0.0
 20
0.0
 30
0.0
210
0.0
220
0.0
230
1.0
  2
SOLID
 70
     1
 71
     0
 91
        2
 92
        1
 93
        1
 72
     4
 94
        3
 73
     0
 74
     1
 95
       35
 96
       31
 40
0.0
 40
0.0
 40
0.0
 40
0.0
 40
1.0
 40
1.0
 40
1.0
 40
2.0
 40
2.0
 40
2.0
 40
3.0
 40
3.0
 40
3.0
 40
4.0
 40
4.0
 40
4.0
 40
5.0
 40
5.0
 40
5.0
 40
6.0
 40
6.0
 40
6.0
 40
7.0
 40
7.0
 40
7.0
 40
8.0
 40
8.0
 40
8.0
 40
9.0
 40
9.0
 40
9.0
 40
10.0
 40
10.0
 40
10.0
 40
10.0
 10
20.80659999999999
 20
-1.015265277777783
 10
20.13111527777778
 20
-0.3626555555555595
 10
19.2334263888889
 20
-0.0032058888888918
 10
18.27831805555555
 20
-0.0032058888888918
 10
17.32320972222222
 20
-0.0032058888888918
 10
16.42552083333333
 20
-0.3626555555555595
 10
15.75003611111111
 20
-1.015265277777783
 10
15.07455138888889
 20
-1.667409722222222
 10
14.70249722222222
 20
-2.535222222222223
 10
14.70249722222222
 20
-3.45765416666667
 10
14.70249722222222
 20
-3.45765416666667
 10
14.70249722222222
 20
-8.548291666666676
 10
14.70249722222222
 20
-8.548291666666676
 10
14.70249722222222
 20
-9.471193055555558
 10
15.07455138888889
 20
-10.33900694444444
 10
15.75003611111111
 20
-10.99115138888889
 10
16.42552083333333
 20
-11.64376111111111
 10
17.32320972222222
 20
-12.00320555555555
 10
18.27831805555555
 20
-12.00320555555555
 10
19.2334263888889
 20
-12.00320555555555
 10
20.13111527777778
 20
-11.64376111111111
 10
20.80659999999999
 20
-10.99115138888889
 10
21.48208472222223
 20
-10.33900694444444
 10
21.85367222222223
 20
-9.471193055555558
 10
21.85367222222223
 20
-8.548291666666676
 10
21.85367222222223
 20
-8.548291666666676
 10
21.85367222222223
 20
-3.45765416666667
 10
21.85367222222223
 20
-3.45765416666667
 10
21.85367222222223
 20
-2.535222222222223
 10
21.48208472222223
 20
-1.667409722222222
 10
20.80659999999999
 20
-1.015265277777783
 97
        0
 97
        0
 92
        1
 93
        1
 72
     4
 94
        3
 73
     0
 74
     1
 95
       26
 96
       22
 40
0.0
 40
0.0
 40
0.0
 40
0.0
 40
1.0
 40
1.0
 40
1.0
 40
2.0
 40
2.0
 40
2.0
 40
3.0
 40
3.0
 40
3.0
 40
4.0
 40
4.0
 40
4.0
 40
5.0
 40
5.0
 40
5.0
 40
6.0
 40
6.0
 40
6.0
 40
7.0
 40
7.0
 40
7.0
 40
7.0
 10
21.7052236111111
 20
-8.548291666666676
 10
21.7052236111111
 20
-9.461390277777783
 10
21.32103333333334
 20
-10.28905694444443
 10
20.70063333333332
 20
-10.88845555555556
 10
20.07976527777777
 20
-11.48830694444445
 10
19.22315694444445
 20
-11.85943055555557
 10
18.27831805555555
 20
-11.85943055555557
 10
16.38864166666667
 20
-11.85943055555557
 10
14.8514125
 20
-10.37401805555555
 10
14.8514125
 20
-8.548291666666676
 10
14.8514125
 20
-8.548291666666676
 10
14.8514125
 20
-3.45765416666667
 10
14.8514125
 20
-3.45765416666667
 10
14.8514125
 20
-1.631931944444444
 10
16.38864166666667
 20
-0.1465194444444427
 10
18.27831805555555
 20
-0.1465194444444427
 10
20.16799444444445
 20
-0.1465194444444427
 10
21.7052236111111
 20
-1.631931944444444
 10
21.7052236111111
 20
-3.45765416666667
 10
21.7052236111111
 20
-3.45765416666667
 10
21.7052236111111
 20
-8.548291666666676
 10
21.7052236111111
 20
-8.548291666666676
 97
        0
 97
        0
 75
     2
 76
     1
 98
        0
  0
SPLINE
  5
4A
330
1F
100
AcDbEntity
  8
Layer 1
370
     0
100
AcDbSpline
210
0.0
220
0.0
230
1.0
 70
    11
 71
     3
 72
    26
 73
    22
 74
     0
 42
0.0000000001
 43
0.0000000001
 12
1.0
 22
0.0
 32
0.0
 13
1.0
 23
0.0
 33
0.0
 40
0.0
 40
0.0
 40
0.0
 40
0.0
 40
1.0
 40
1.0
 40
1.0
 40
2.0
 40
2.0
 40
2.0
 40
3.0
 40
3.0
 40
3.0
 40
4.0
 40
4.0
 40
4.0
 40
5.0
 40
5.0
 40
5.0
 40
6.0
 40
6.0
 40
6.0
 40
7.0
 40
7.0
 40
7.0
 40
7.0
 10
17.9648125
 20
-2.894923611111115
 30
0.0
 10
18.01198888888888
 20
-2.889518055555552
 30
0.0
 10
18.05981388888889
 20
-2.88656805555556
 30
0.0
 10
18.1084611111111
 20
-2.886241666666668
 30
0.0
 10
18.85780138888888
 20
-2.881326388888889
 30
0.0
 10
19.45301250000001
 20
-3.471952777777776
 30
0.0
 10
19.456125
 20
-4.216212499999996
 30
0.0
 10
19.45907083333335
 20
-4.956384722222221
 30
0.0
 10
18.8614
 20
-5.549956944444451
 30
0.0
 10
18.12680277777779
 20
-5.551758333333333
 30
0.0
 10
17.42250555555555
 20
-5.555036111111108
 30
0.0
 10
16.81959722222223
 20
-5.001259722222218
 30
0.0
 10
16.79322777777778
 20
-4.273706944444446
 30
0.0
 10
16.94227777777778
 20
-4.671061111111107
 30
0.0
 10
17.33405833333333
 20
-4.952780555555553
 30
0.0
 10
17.78579305555556
 20
-4.943118055555551
 30
0.0
 10
18.35217777777777
 20
-4.930830555555556
 30
0.0
 10
18.79785277777778
 20
-4.468452777777783
 30
0.0
 10
18.79670416666666
 20
-3.904361111111105
 30
0.0
 10
18.78704166666666
 20
-3.398413888888892
 30
0.0
 10
18.43325416666665
 20
-2.987134722222221
 30
0.0
 10
17.9648125
 20
-2.894923611111115
 30
0.0
  0
HATCH
  5
4B
330
1F
100
AcDbEntity
  8
Layer 1
 62
     7
420
 16314339
100
AcDbHatch
 10
0.0
 20
0.0
 30
0.0
210
0.0
220
0.0
230
1.0
  2
SOLID
 70
     1
 71
     0
 91
        1
 92
        1
 93
        1
 72
     4
 94
        3
 73
     0
 74
     1
 95
       26
 96
       22
 40
0.0
 40
0.0
 40
0.0
 40
0.0
 40
1.0
 40
1.0
 40
1.0
 40
2.0
 40
2.0
 40
2.0
 40
3.0
 40
3.0
 40
3.0
 40
4.0
 40
4.0
 40
4.0
 40
5.0
 40
5.0
 40
5.0
 40
6.0
 40
6.0
 40
6.0
 40
7.0
 40
7.0
 40
7.0
 40
7.0
 10
17.9648125
 20
-2.894923611111115
 10
18.01198888888888
 20
-2.889518055555552
 10
18.05981388888889
 20
-2.88656805555556
 10
18.1084611111111
 20
-2.886241666666668
 10
18.85780138888888
 20
-2.881326388888889
 10
19.45301250000001
 20
-3.471952777777776
 10
19.456125
 20
-4.216212499999996
 10
19.45907083333335
 20
-4.956384722222221
 10
18.8614
 20
-5.549956944444451
 10
18.12680277777779
 20
-5.551758333333333
 10
17.42250555555555
 20
-5.555036111111108
 10
16.81959722222223
 20
-5.001259722222218
 10
16.79322777777778
 20
-4.273706944444446
 10
16.94227777777778
 20
-4.671061111111107
 10
17.33405833333333
 20
-4.952780555555553
 10
17.78579305555556
 20
-4.943118055555551
 10
18.35217777777777
 20
-4.930830555555556
 10
18.79785277777778
 20
-4.468452777777783
 10
18.79670416666666
 20
-3.904361111111105
 10
18.78704166666666
 20
-3.398413888888892
 10
18.43325416666665
 20
-2.987134722222221
 10
17.9648125
 20
-2.894923611111115
 97
        0
 97
        0
 75
     2
 76
     1
 98
        0
  0
SPLINE
  5
4C
330
1F
100
AcDbEntity
  8
Layer 1
370
     0
100
AcDbSpline
210
0.0
220
0.0
230
1.0
 70
    11
 71
     3
 72
   206
 73
   202
 74
     0
 42
0.0000000001
 43
0.0000000001
 12
1.0
 22
0.0
 32
0.0
 13
1.0
 23
0.0
 33
0.0
 40
0.0
 40
0.0
 40
0.0
 40
0.0
 40
1.0
 40
1.0
 40
1.0
 40
2.0
 40
2.0
 40
2.0
 40
3.0
 40
3.0
 40
3.0
 40
4.0
 40
4.0
 40
4.0
 40
5.0
 40
5.0
 40
5.0
 40
6.0
 40
6.0
 40
6.0
 40
7.0
 40
7.0
 40
7.0
 40
8.0
 40
8.0
 40
8.0
 40
9.0
 40
9.0
 40
9.0
 40
10.0
 40
10.0
 40
10.0
 40
11.0
 40
11.0
 40
11.0
 40
12.0
 40
12.0
 40
12.0
 40
13.0
 40
13.0
 40
13.0
 40
14.0
 40
14.0
 40
14.0
 40
15.0
 40
15.0
 40
15.0
 40
16.0
 40
16.0
 40
16.0
 40
17.0
 40
17.0
 40
17.0
 40
18.0
 40
18.0
 40
18.0
 40
19.0
 40
19.0
 40
19.0
 40
20.0
 40
20.0
 40
20.0
 40
21.0
 40
21.0
 40
21.0
 40
22.0
 40
22.0
 40
22.0
 40
23.0
 40
23.0
 40
23.0
 40
24.0
 40
24.0
 40
24.0
 40
25.0
 40
25.0
 40
25.0
 40
26.0
 40
26.0
 40
26.0
 40
27.0
 40
27.0
 40
27.0
 40
28.0
 40
28.0
 40
28.0
 40
29.0
 40
29.0
 40
29.0
 40
30.0
 40
30.0
 40
30.0
 40
31.0
 40
31.0
 40
31.0
 40
32.0
 40
32.0
 40
32.0
 40
33.0
 40
33.0
 40
33.0
 40
34.0
 40
34.0
 40
34.0
 40
35.0
 40
35.0
 40
35.0
 40
36.0
 40
36.0
 40
36.0
 40
37.0
 40
37.0
 40
37.0
 40
38.0
 40
38.0
 40
38.0
 40
39.0
 40
39.0
 40
39.0
 40
40.0
 40
40.0
 40
40.0
 40
41.0
 40
41.0
 40
41.0
 40
42.0
 40
42.0
 40
42.0
 40
43.0
 40
43.0
 40
43.0
 40
44.0
 40
44.0
 40
44.0
 40
45.0
 40
45.0
 40
45.0
 40
46.0
 40
46.0
 40
46.0
 40
47.0
 40
47.0
 40
47.0
 40
48.0
 40
48.0
 40
48.0
 40
49.0
 40
49.0
 40
49.0
 40
50.0
 40
50.0
 40
50.0
 40
51.0
 40
51.0
 40
51.0
 40
52.0
 40
52.0
 40
52.0
 40
53.0
 40
53.0
 40
53.0
 40
54.0
 40
54.0
 40
54.0
 40
55.0
 40
55.0
 40
55.0
 40
56.0
 40
56.0
 40
56.0
 40
57.0
 40
57.0
 40
57.0
 40
58.0
 40
58.0
 40
58.0
 40
59.0
 40
59.0
 40
59.0
 40
60.0
 40
60.0
 40
60.0
 40
61.0
 40
61.0
 40
61.0
 40
62.0
 40
62.0
 40
62.0
 40
63.0
 40
63.0
 40
63.0
 40
64.0
 40
64.0
 40
64.0
 40
65.0
 40
65.0
 40
65.0
 40
66.0
 40
66.0
 40
66.0
 40
67.0
 40
67.0
 40
67.0
 40
67.0
 10
19.96819722222222
 20
-7.927895833333322
 30
0.0
 10
19.94905694444444
 20
-8.003520833333344
 30
0.0
 10
19.92851666666666
 20
-8.07961111111111
 30
0.0
 10
19.92571666666668
 20
-8.158041666666678
 30
0.0
 10
19.92525000000001
 20
-8.166438888888882
 30
0.0
 10
19.92478194444445
 20
-8.174837499999992
 30
0.0
 10
19.92431527777777
 20
-8.182777777777776
 30
0.0
 10
19.91731388888888
 20
-8.29060833333334
 30
0.0
 10
19.88977083333333
 20
-8.389577777777781
 30
0.0
 10
19.81928194444446
 20
-8.475938888888878
 30
0.0
 10
19.72031666666668
 20
-8.597311111111114
 30
0.0
 10
19.65823055555554
 20
-8.746688888888887
 30
0.0
 10
19.56813472222221
 20
-8.875530555555567
 30
0.0
 10
19.51024861111111
 20
-8.958161111111115
 30
0.0
 10
19.44629444444445
 20
-9.03611944444444
 30
0.0
 10
19.37347083333333
 20
-9.105676388888897
 30
0.0
 10
19.30438194444443
 20
-9.172430555555541
 30
0.0
 10
19.2236236111111
 20
-9.222847222222223
 30
0.0
 10
19.15079999999999
 20
-9.285400000000006
 30
0.0
 10
19.00795416666667
 20
-9.407240277777772
 30
0.0
 10
18.88984861111112
 20
-9.560822222222214
 30
0.0
 10
18.78855000000001
 20
-9.718140277777769
 30
0.0
 10
18.68911666666668
 20
-9.871723611111115
 30
0.0
 10
18.63496666666666
 20
-10.05330972222221
 30
0.0
 10
18.53086666666667
 20
-10.20222916666666
 30
0.0
 10
18.45990972222221
 20
-10.30493333333334
 30
0.0
 10
18.45897638888889
 20
-10.4267638888889
 30
0.0
 10
18.45664166666666
 20
-10.54674027777777
 30
0.0
 10
18.45197361111112
 20
-10.79275277777778
 30
0.0
 10
18.45197361111112
 20
-11.03829861111111
 30
0.0
 10
18.45664166666666
 20
-11.28431249999999
 30
0.0
 10
18.45757638888889
 20
-11.34546527777777
 30
0.0
 10
18.44899583333333
 20
-11.4793013888889
 30
0.0
 10
18.43656944444446
 20
-11.53732638888889
 30
0.0
 10
18.38428611111112
 20
-11.54012777777777
 30
0.0
 10
18.33153472222223
 20
-11.54152777777777
 30
0.0
 10
18.27831805555555
 20
-11.54152777777777
 30
0.0
 10
17.8978625
 20
-11.54152777777777
 30
0.0
 10
17.53327777777777
 20
-11.47384027777778
 30
0.0
 10
17.19576944444444
 20
-11.34966111111112
 30
0.0
 10
17.20884027777778
 20
-11.28151111111111
 30
0.0
 10
17.22050972222222
 20
-11.21242222222223
 30
0.0
 10
17.23078055555556
 20
-11.14333333333333
 30
0.0
 10
17.26952638888888
 20
-10.88378333333334
 30
0.0
 10
17.291
 20
-10.62189861111112
 30
0.0
 10
17.31900833333334
 20
-10.36094722222222
 30
0.0
 10
17.34468333333333
 20
-10.11960277777777
 30
0.0
 10
17.369425
 20
-9.871723611111115
 30
0.0
 10
17.29613472222223
 20
-9.635047222222232
 30
0.0
 10
17.26345694444444
 20
-9.53001250000001
 30
0.0
 10
17.23264722222223
 20
-9.423573611111124
 30
0.0
 10
17.22144444444444
 20
-9.313413888888892
 30
0.0
 10
17.20043750000001
 20
-9.108472222222215
 30
0.0
 10
17.24385138888889
 20
-8.922683333333326
 30
0.0
 10
17.32320972222222
 20
-8.73548472222223
 30
0.0
 10
17.39510000000001
 20
-8.566040277777777
 30
0.0
 10
17.48146111111112
 20
-8.395641666666657
 30
0.0
 10
17.49593194444444
 20
-8.210315277777783
 30
0.0
 10
17.51320416666667
 20
-7.998380555555563
 30
0.0
 10
17.46092083333334
 20
-7.779915277777768
 30
0.0
 10
17.45345138888889
 20
-7.567041666666657
 30
0.0
 10
17.44924999999999
 20
-7.451270833333334
 30
0.0
 10
17.43011111111111
 20
-7.316365277777777
 30
0.0
 10
17.47305833333333
 20
-7.205725000000004
 30
0.0
 10
17.48846388888888
 20
-7.166054166666678
 30
0.0
 10
17.51273750000001
 20
-7.134306944444435
 30
0.0
 10
17.55008333333333
 20
-7.113294444444439
 30
0.0
 10
17.6168375
 20
-7.075487500000008
 30
0.0
 10
17.6831263888889
 20
-7.104430555555559
 30
0.0
 10
17.72840694444445
 20
-7.149711111111123
 30
0.0
 10
17.78815972222223
 20
-7.208997222222226
 30
0.0
 10
17.83204027777778
 20
-7.279019444444454
 30
0.0
 10
17.85958333333334
 20
-7.358373611111119
 30
0.0
 10
17.96134861111111
 20
-7.651073611111112
 30
0.0
 10
18.02203611111112
 20
-7.971313888888895
 30
0.0
 10
18.06825
 20
-8.277074999999993
 30
0.0
 10
18.06918333333333
 20
-8.28267638888888
 30
0.0
 10
18.06731666666667
 20
-8.29060833333334
 30
0.0
 10
18.07431944444445
 20
-8.29248055555556
 30
0.0
 10
18.07945416666666
 20
-8.294347222222212
 30
0.0
 10
18.08318888888889
 20
-8.288279166666673
 30
0.0
 10
18.08739027777779
 20
-8.284544444444439
 30
0.0
 10
18.17235
 20
-8.212654166666677
 30
0.0
 10
18.25824444444445
 20
-8.163633333333337
 30
0.0
 10
18.32499999999999
 20
-8.070270833333325
 30
0.0
 10
18.35720972222223
 20
-8.025461111111099
 30
0.0
 10
18.38615277777777
 20
-7.978312500000002
 30
0.0
 10
18.4169625
 20
-7.932563888888883
 30
0.0
 10
18.44357083333332
 20
-7.894280555555547
 30
0.0
 10
18.49118611111112
 20
-7.855072222222209
 30
0.0
 10
18.48278472222222
 20
-7.803722222222227
 30
0.0
 10
18.46784583333334
 20
-7.708020833333345
 30
0.0
 10
18.46317777777777
 20
-7.611861111111112
 30
0.0
 10
18.46831250000001
 20
-7.51476250000001
 30
0.0
 10
18.4748486111111
 20
-7.381715277777781
 30
0.0
 10
18.43190138888889
 20
-7.256612499999997
 30
0.0
 10
18.41509583333333
 20
-7.125437499999988
 30
0.0
 10
18.40295833333332
 20
-7.027872222222211
 30
0.0
 10
18.37261527777779
 20
-6.935441666666671
 30
0.0
 10
18.33667083333333
 20
-6.844875000000002
 30
0.0
 10
18.30352638888889
 20
-6.761781944444439
 30
0.0
 10
18.27738472222222
 20
-6.677291666666658
 30
0.0
 10
18.26571388888889
 20
-6.588124999999991
 30
0.0
 10
18.24610833333333
 20
-6.439681944444449
 30
0.0
 10
18.30632777777777
 20
-6.17032916666666
 30
0.0
 10
18.45570833333333
 20
-6.099372222222225
 30
0.0
 10
18.50425833333333
 20
-6.076031944444442
 30
0.0
 10
18.54206944444445
 20
-6.086297222222229
 30
0.0
 10
18.5724125
 20
-6.131111111111118
 30
0.0
 10
18.61722777777777
 20
-6.197408333333341
 30
0.0
 10
18.64757083333332
 20
-6.270227777777791
 30
0.0
 10
18.66904444444445
 20
-6.346786111111113
 30
0.0
 10
18.67464583333334
 20
-6.366858333333337
 30
0.0
 10
18.68024722222223
 20
-6.386465277777789
 30
0.0
 10
18.68584999999999
 20
-6.406072222222216
 30
0.0
 10
18.68678333333332
 20
-6.410740277777777
 30
0.0
 10
18.69005138888888
 20
-6.415408333333339
 30
0.0
 10
18.68584999999999
 20
-6.419147222222212
 30
0.0
 10
18.68444861111112
 20
-6.420076388888901
 30
0.0
 10
18.67931388888888
 20
-6.417274999999992
 30
0.0
 10
18.67604583333334
 20
-6.41587499999999
 30
0.0
 10
18.61535972222221
 20
-6.391600000000001
 30
0.0
 10
18.56494444444444
 20
-6.405604166666661
 30
0.0
 10
18.52479722222223
 20
-6.457883333333332
 30
0.0
 10
18.48371805555555
 20
-6.512511111111102
 30
0.0
 10
18.46504444444445
 20
-6.575520833333333
 30
0.0
 10
18.45570833333333
 20
-6.641813888888893
 30
0.0
 10
18.43143472222222
 20
-6.808463888888885
 30
0.0
 10
18.45617500000001
 20
-6.970454166666665
 30
0.0
 10
18.49725555555556
 20
-7.131972222222227
 30
0.0
 10
18.54907222222222
 20
-7.33456666666666
 30
0.0
 10
18.61629444444444
 20
-7.532497222222219
 30
0.0
 10
18.68304861111111
 20
-7.730894444444452
 30
0.0
 10
18.69145138888888
 20
-7.756573611111106
 30
0.0
 10
18.69051805555556
 20
-7.782248611111122
 30
0.0
 10
18.68678333333332
 20
-7.807927777777776
 30
0.0
 10
18.67277916666666
 20
-7.892418055555557
 30
0.0
 10
18.65830694444445
 20
-7.977377777777772
 30
0.0
 10
18.64990416666668
 20
-8.062805555555567
 30
0.0
 10
18.63823472222223
 20
-8.184179166666656
 30
0.0
 10
18.62703055555554
 20
-8.305551388888892
 30
0.0
 10
18.62843055555555
 20
-8.427390277777778
 30
0.0
 10
18.62889722222222
 20
-8.439527777777787
 30
0.0
 10
18.62422916666666
 20
-8.458200000000009
 30
0.0
 10
18.64336944444443
 20
-8.457733333333332
 30
0.0
 10
18.66297500000001
 20
-8.457266666666657
 30
0.0
 10
18.65504027777777
 20
-8.438594444444435
 30
0.0
 10
18.65504027777777
 20
-8.426923611111103
 30
0.0
 10
18.65550694444444
 20
-8.394245833333343
 30
0.0
 10
18.65550694444444
 20
-8.361563888888895
 30
0.0
 10
18.65550694444444
 20
-8.328891666666676
 30
0.0
 10
18.66157500000001
 20
-8.219190277777772
 30
0.0
 10
18.67091111111111
 20
-8.109487500000013
 30
0.0
 10
18.68444861111112
 20
-8.000719444444433
 30
0.0
 10
18.69658611111112
 20
-7.904555555555564
 30
0.0
 10
18.73346527777777
 20
-7.797187500000013
 30
0.0
 10
18.70125416666666
 20
-7.701956944444444
 30
0.0
 10
18.62049583333333
 20
-7.46434583333333
 30
0.0
 10
18.53880277777777
 20
-7.226736111111121
 30
0.0
 10
18.49071944444444
 20
-6.979790277777788
 30
0.0
 10
18.46691250000001
 20
-6.857949999999997
 30
0.0
 10
18.4641111111111
 20
-6.734711111111109
 30
0.0
 10
18.48791944444444
 20
-6.611937499999991
 30
0.0
 10
18.49678888888889
 20
-6.565255555555545
 30
0.0
 10
18.51359444444445
 20
-6.521375000000009
 30
0.0
 10
18.54066944444445
 20
-6.48169166666667
 30
0.0
 10
18.58081527777777
 20
-6.42240972222223
 30
0.0
 10
18.64103472222223
 20
-6.414473611111108
 30
0.0
 10
18.69378611111112
 20
-6.462090277777785
 30
0.0
 10
18.74186805555556
 20
-6.504565277777778
 30
0.0
 10
18.76707638888888
 20
-6.560120833333333
 30
0.0
 10
18.78481527777777
 20
-6.620340277777788
 30
0.0
 10
18.81982638888889
 20
-6.739841666666658
 30
0.0
 10
18.86744166666666
 20
-6.853748611111111
 30
0.0
 10
18.94166527777778
 20
-6.955048611111098
 30
0.0
 10
19.07517499999999
 20
-7.137573611111115
 30
0.0
 10
19.10411805555555
 20
-7.372849999999996
 30
0.0
 10
19.21241944444445
 20
-7.569380555555552
 30
0.0
 10
19.3697375
 20
-7.855538888888885
 30
0.0
 10
19.23389305555555
 20
-8.178109722222214
 30
0.0
 10
19.24556388888888
 20
-8.48200833333332
 30
0.0
 10
19.24556388888888
 20
-8.488076388888885
 30
0.0
 10
19.24556388888888
 20
-8.494612500000004
 30
0.0
 10
19.24696388888889
 20
-8.500209722222229
 30
0.0
 10
19.25163194444445
 20
-8.517019444444434
 30
0.0
 10
19.26143472222222
 20
-8.520287499999995
 30
0.0
 10
19.27544027777779
 20
-8.50954999999999
 30
0.0
 10
19.38514166666667
 20
-8.426461111111115
 30
0.0
 10
19.47897222222223
 20
-8.311152777777782
 30
0.0
 10
19.51958472222223
 20
-8.178576388888889
 30
0.0
 10
19.57420277777777
 20
-8.000719444444433
 30
0.0
 10
19.63909027777777
 20
-7.78971388888888
 30
0.0
 10
19.80200972222221
 20
-7.680949999999989
 30
0.0
 10
19.83375277777779
 20
-7.659476388888883
 30
0.0
 10
19.86876388888888
 20
-7.64454305555556
 30
0.0
 10
19.90797777777778
 20
-7.643137499999991
 30
0.0
 10
19.94719027777779
 20
-7.641269444444434
 30
0.0
 10
19.97939999999999
 20
-7.663211111111119
 30
0.0
 10
19.99060416666667
 20
-7.701022222222213
 30
0.0
 10
20.0130111111111
 20
-7.775713888888882
 30
0.0
 10
19.98640277777779
 20
-7.855072222222209
 30
0.0
 10
19.96819722222222
 20
-7.927895833333322
 30
0.0
  0
HATCH
  5
4D
330
1F
100
AcDbEntity
  8
Layer 1
 62
     7
420
 16314339
100
AcDbHatch
 10
0.0
 20
0.0
 30
0.0
210
0.0
220
0.0
230
1.0
  2
SOLID
 70
     1
 71
     0
 91
        1
 92
        1
 93
        1
 72
     4
 94
        3
 73
     0
 74
     1
 95
      206
 96
      202
 40
0.0
 40
0.0
 40
0.0
 40
0.0
 40
1.0
 40
1.0
 40
1.0
 40
2.0
 40
2.0
 40
2.0
 40
3.0
 40
3.0
 40
3.0
 40
4.0
 40
4.0
 40
4.0
 40
5.0
 40
5.0
 40
5.0
 40
6.0
 40
6.0
 40
6.0
 40
7.0
 40
7.0
 40
7.0
 40
8.0
 40
8.0
 40
8.0
 40
9.0
 40
9.0
 40
9.0
 40
10.0
 40
10.0
 40
10.0
 40
11.0
 40
11.0
 40
11.0
 40
12.0
 40
12.0
 40
12.0
 40
13.0
 40
13.0
 40
13.0
 40
14.0
 40
14.0
 40
14.0
 40
15.0
 40
15.0
 40
15.0
 40
16.0
 40
16.0
 40
16.0
 40
17.0
 40
17.0
 40
17.0
 40
18.0
 40
18.0
 40
18.0
 40
19.0
 40
19.0
 40
19.0
 40
20.0
 40
20.0
 40
20.0
 40
21.0
 40
21.0
 40
21.0
 40
22.0
 40
22.0
 40
22.0
 40
23.0
 40
23.0
 40
23.0
 40
24.0
 40
24.0
 40
24.0
 40
25.0
 40
25.0
 40
25.0
 40
26.0
 40
26.0
 40
26.0
 40
27.0
 40
27.0
 40
27.0
 40
28.0
 40
28.0
 40
28.0
 40
29.0
 40
29.0
 40
29.0
 40
30.0
 40
30.0
 40
30.0
 40
31.0
 40
31.0
 40
31.0
 40
32.0
 40
32.0
 40
32.0
 40
33.0
 40
33.0
 40
33.0
 40
34.0
 40
34.0
 40
34.0
 40
35.0
 40
35.0
 40
35.0
 40
36.0
 40
36.0
 40
36.0
 40
37.0
 40
37.0
 40
37.0
 40
38.0
 40
38.0
 40
38.0
 40
39.0
 40
39.0
 40
39.0
 40
40.0
 40
40.0
 40
40.0
 40
41.0
 40
41.0
 40
41.0
 40
42.0
 40
42.0
 40
42.0
 40
43.0
 40
43.0
 40
43.0
 40
44.0
 40
44.0
 40
44.0
 40
45.0
 40
45.0
 40
45.0
 40
46.0
 40
46.0
 40
46.0
 40
47.0
 40
47.0
 40
47.0
 40
48.0
 40
48.0
 40
48.0
 40
49.0
 40
49.0
 40
49.0
 40
50.0
 40
50.0
 40
50.0
 40
51.0
 40
51.0
 40
51.0
 40
52.0
 40
52.0
 40
52.0
 40
53.0
 40
53.0
 40
53.0
 40
54.0
 40
54.0
 40
54.0
 40
55.0
 40
55.0
 40
55.0
 40
56.0
 40
56.0
 40
56.0
 40
57.0
 40
57.0
 40
57.0
 40
58.0
 40
58.0
 40
58.0
 40
59.0
 40
59.0
 40
59.0
 40
60.0
 40
60.0
 40
60.0
 40
61.0
 40
61.0
 40
61.0
 40
62.0
 40
62.0
 40
62.0
 40
63.0
 40
63.0
 40
63.0
 40
64.0
 40
64.0
 40
64.0
 40
65.0
 40
65.0
 40
65.0
 40
66.0
 40
66.0
 40
66.0
 40
67.0
 40
67.0
 40
67.0
 40
67.0
 10
19.96819722222222
 20
-7.927895833333322
 10
19.94905694444444
 20
-8.003520833333344
 10
19.92851666666666
 20
-8.07961111111111
 10
19.92571666666668
 20
-8.158041666666678
 10
19.92525000000001
 20
-8.166438888888882
 10
19.92478194444445
 20
-8.174837499999992
 10
19.92431527777777
 20
-8.182777777777776
 10
19.91731388888888
 20
-8.29060833333334
 10
19.88977083333333
 20
-8.389577777777781
 10
19.81928194444446
 20
-8.475938888888878
 10
19.72031666666668
 20
-8.597311111111114
 10
19.65823055555554
 20
-8.746688888888887
 10
19.56813472222221
 20
-8.875530555555567
 10
19.51024861111111
 20
-8.958161111111115
 10
19.44629444444445
 20
-9.03611944444444
 10
19.37347083333333
 20
-9.105676388888897
 10
19.30438194444443
 20
-9.172430555555541
 10
19.2236236111111
 20
-9.222847222222223
 10
19.15079999999999
 20
-9.285400000000006
 10
19.00795416666667
 20
-9.407240277777772
 10
18.88984861111112
 20
-9.560822222222214
 10
18.78855000000001
 20
-9.718140277777769
 10
18.68911666666668
 20
-9.871723611111115
 10
18.63496666666666
 20
-10.05330972222221
 10
18.53086666666667
 20
-10.20222916666666
 10
18.45990972222221
 20
-10.30493333333334
 10
18.45897638888889
 20
-10.4267638888889
 10
18.45664166666666
 20
-10.54674027777777
 10
18.45197361111112
 20
-10.79275277777778
 10
18.45197361111112
 20
-11.03829861111111
 10
18.45664166666666
 20
-11.28431249999999
 10
18.45757638888889
 20
-11.34546527777777
 10
18.44899583333333
 20
-11.4793013888889
 10
18.43656944444446
 20
-11.53732638888889
 10
18.38428611111112
 20
-11.54012777777777
 10
18.33153472222223
 20
-11.54152777777777
 10
18.27831805555555
 20
-11.54152777777777
 10
17.8978625
 20
-11.54152777777777
 10
17.53327777777777
 20
-11.47384027777778
 10
17.19576944444444
 20
-11.34966111111112
 10
17.20884027777778
 20
-11.28151111111111
 10
17.22050972222222
 20
-11.21242222222223
 10
17.23078055555556
 20
-11.14333333333333
 10
17.26952638888888
 20
-10.88378333333334
 10
17.291
 20
-10.62189861111112
 10
17.31900833333334
 20
-10.36094722222222
 10
17.34468333333333
 20
-10.11960277777777
 10
17.369425
 20
-9.871723611111115
 10
17.29613472222223
 20
-9.635047222222232
 10
17.26345694444444
 20
-9.53001250000001
 10
17.23264722222223
 20
-9.423573611111124
 10
17.22144444444444
 20
-9.313413888888892
 10
17.20043750000001
 20
-9.108472222222215
 10
17.24385138888889
 20
-8.922683333333326
 10
17.32320972222222
 20
-8.73548472222223
 10
17.39510000000001
 20
-8.566040277777777
 10
17.48146111111112
 20
-8.395641666666657
 10
17.49593194444444
 20
-8.210315277777783
 10
17.51320416666667
 20
-7.998380555555563
 10
17.46092083333334
 20
-7.779915277777768
 10
17.45345138888889
 20
-7.567041666666657
 10
17.44924999999999
 20
-7.451270833333334
 10
17.43011111111111
 20
-7.316365277777777
 10
17.47305833333333
 20
-7.205725000000004
 10
17.48846388888888
 20
-7.166054166666678
 10
17.51273750000001
 20
-7.134306944444435
 10
17.55008333333333
 20
-7.113294444444439
 10
17.6168375
 20
-7.075487500000008
 10
17.6831263888889
 20
-7.104430555555559
 10
17.72840694444445
 20
-7.149711111111123
 10
17.78815972222223
 20
-7.208997222222226
 10
17.83204027777778
 20
-7.279019444444454
 10
17.85958333333334
 20
-7.358373611111119
 10
17.96134861111111
 20
-7.651073611111112
 10
18.02203611111112
 20
-7.971313888888895
 10
18.06825
 20
-8.277074999999993
 10
18.06918333333333
 20
-8.28267638888888
 10
18.06731666666667
 20
-8.29060833333334
 10
18.07431944444445
 20
-8.29248055555556
 10
18.07945416666666
 20
-8.294347222222212
 10
18.08318888888889
 20
-8.288279166666673
 10
18.08739027777779
 20
-8.284544444444439
 10
18.17235
 20
-8.212654166666677
 10
18.25824444444445
 20
-8.163633333333337
 10
18.32499999999999
 20
-8.070270833333325
 10
18.35720972222223
 20
-8.025461111111099
 10
18.38615277777777
 20
-7.978312500000002
 10
18.4169625
 20
-7.932563888888883
 10
18.44357083333332
 20
-7.894280555555547
 10
18.49118611111112
 20
-7.855072222222209
 10
18.48278472222222
 20
-7.803722222222227
 10
18.46784583333334
 20
-7.708020833333345
 10
18.46317777777777
 20
-7.611861111111112
 10
18.46831250000001
 20
-7.51476250000001
 10
18.4748486111111
 20
-7.381715277777781
 10
18.43190138888889
 20
-7.256612499999997
 10
18.41509583333333
 20
-7.125437499999988
 10
18.40295833333332
 20
-7.027872222222211
 10
18.37261527777779
 20
-6.935441666666671
 10
18.33667083333333
 20
-6.844875000000002
 10
18.30352638888889
 20
-6.761781944444439
 10
18.27738472222222
 20
-6.677291666666658
 10
18.26571388888889
 20
-6.588124999999991
 10
18.24610833333333
 20
-6.439681944444449
 10
18.30632777777777
 20
-6.17032916666666
 10
18.45570833333333
 20
-6.099372222222225
 10
18.50425833333333
 20
-6.076031944444442
 10
18.54206944444445
 20
-6.086297222222229
 10
18.5724125
 20
-6.131111111111118
 10
18.61722777777777
 20
-6.197408333333341
 10
18.64757083333332
 20
-6.270227777777791
 10
18.66904444444445
 20
-6.346786111111113
 10
18.67464583333334
 20
-6.366858333333337
 10
18.68024722222223
 20
-6.386465277777789
 10
18.68584999999999
 20
-6.406072222222216
 10
18.68678333333332
 20
-6.410740277777777
 10
18.69005138888888
 20
-6.415408333333339
 10
18.68584999999999
 20
-6.419147222222212
 10
18.68444861111112
 20
-6.420076388888901
 10
18.67931388888888
 20
-6.417274999999992
 10
18.67604583333334
 20
-6.41587499999999
 10
18.61535972222221
 20
-6.391600000000001
 10
18.56494444444444
 20
-6.405604166666661
 10
18.52479722222223
 20
-6.457883333333332
 10
18.48371805555555
 20
-6.512511111111102
 10
18.46504444444445
 20
-6.575520833333333
 10
18.45570833333333
 20
-6.641813888888893
 10
18.43143472222222
 20
-6.808463888888885
 10
18.45617500000001
 20
-6.970454166666665
 10
18.49725555555556
 20
-7.131972222222227
 10
18.54907222222222
 20
-7.33456666666666
 10
18.61629444444444
 20
-7.532497222222219
 10
18.68304861111111
 20
-7.730894444444452
 10
18.69145138888888
 20
-7.756573611111106
 10
18.69051805555556
 20
-7.782248611111122
 10
18.68678333333332
 20
-7.807927777777776
 10
18.67277916666666
 20
-7.892418055555557
 10
18.65830694444445
 20
-7.977377777777772
 10
18.64990416666668
 20
-8.062805555555567
 10
18.63823472222223
 20
-8.184179166666656
 10
18.62703055555554
 20
-8.305551388888892
 10
18.62843055555555
 20
-8.427390277777778
 10
18.62889722222222
 20
-8.439527777777787
 10
18.62422916666666
 20
-8.458200000000009
 10
18.64336944444443
 20
-8.457733333333332
 10
18.66297500000001
 20
-8.457266666666657
 10
18.65504027777777
 20
-8.438594444444435
 10
18.65504027777777
 20
-8.426923611111103
 10
18.65550694444444
 20
-8.394245833333343
 10
18.65550694444444
 20
-8.361563888888895
 10
18.65550694444444
 20
-8.328891666666676
 10
18.66157500000001
 20
-8.219190277777772
 10
18.67091111111111
 20
-8.109487500000013
 10
18.68444861111112
 20
-8.000719444444433
 10
18.69658611111112
 20
-7.904555555555564
 10
18.73346527777777
 20
-7.797187500000013
 10
18.70125416666666
 20
-7.701956944444444
 10
18.62049583333333
 20
-7.46434583333333
 10
18.53880277777777
 20
-7.226736111111121
 10
18.49071944444444
 20
-6.979790277777788
 10
18.46691250000001
 20
-6.857949999999997
 10
18.4641111111111
 20
-6.734711111111109
 10
18.48791944444444
 20
-6.611937499999991
 10
18.49678888888889
 20
-6.565255555555545
 10
18.51359444444445
 20
-6.521375000000009
 10
18.54066944444445
 20
-6.48169166666667
 10
18.58081527777777
 20
-6.42240972222223
 10
18.64103472222223
 20
-6.414473611111108
 10
18.69378611111112
 20
-6.462090277777785
 10
18.74186805555556
 20
-6.504565277777778
 10
18.76707638888888
 20
-6.560120833333333
 10
18.78481527777777
 20
-6.620340277777788
 10
18.81982638888889
 20
-6.739841666666658
 10
18.86744166666666
 20
-6.853748611111111
 10
18.94166527777778
 20
-6.955048611111098
 10
19.07517499999999
 20
-7.137573611111115
 10
19.10411805555555
 20
-7.372849999999996
 10
19.21241944444445
 20
-7.569380555555552
 10
19.3697375
 20
-7.855538888888885
 10
19.23389305555555
 20
-8.178109722222214
 10
19.24556388888888
 20
-8.48200833333332
 10
19.24556388888888
 20
-8.488076388888885
 10
19.24556388888888
 20
-8.494612500000004
 10
19.24696388888889
 20
-8.500209722222229
 10
19.25163194444445
 20
-8.517019444444434
 10
19.26143472222222
 20
-8.520287499999995
 10
19.27544027777779
 20
-8.50954999999999
 10
19.38514166666667
 20
-8.426461111111115
 10
19.47897222222223
 20
-8.311152777777782
 10
19.51958472222223
 20
-8.178576388888889
 10
19.57420277777777
 20
-8.000719444444433
 10
19.63909027777777
 20
-7.78971388888888
 10
19.80200972222221
 20
-7.680949999999989
 10
19.83375277777779
 20
-7.659476388888883
 10
19.86876388888888
 20
-7.64454305555556
 10
19.90797777777778
 20
-7.643137499999991
 10
19.94719027777779
 20
-7.641269444444434
 10
19.97939999999999
 20
-7.663211111111119
 10
19.99060416666667
 20
-7.701022222222213
 10
20.0130111111111
 20
-7.775713888888882
 10
19.98640277777779
 20
-7.855072222222209
 10
19.96819722222222
 20
-7.927895833333322
 97
        0
 97
        0
 75
     2
 76
     1
 98
        0
  0
SPLINE
  5
4E
330
1F
100
AcDbEntity
  8
Layer 1
370
     0
100
AcDbSpline
210
0.0
220
0.0
230
1.0
 70
    11
 71
     3
 72
    44
 73
    40
 74
     0
 42
0.0000000001
 43
0.0000000001
 12
1.0
 22
0.0
 32
0.0
 13
1.0
 23
0.0
 33
0.0
 40
0.0
 40
0.0
 40
0.0
 40
0.0
 40
1.0
 40
1.0
 40
1.0
 40
2.0
 40
2.0
 40
2.0
 40
3.0
 40
3.0
 40
3.0
 40
4.0
 40
4.0
 40
4.0
 40
5.0
 40
5.0
 40
5.0
 40
6.0
 40
6.0
 40
6.0
 40
7.0
 40
7.0
 40
7.0
 40
8.0
 40
8.0
 40
8.0
 40
9.0
 40
9.0
 40
9.0
 40
10.0
 40
10.0
 40
10.0
 40
11.0
 40
11.0
 40
11.0
 40
12.0
 40
12.0
 40
12.0
 40
13.0
 40
13.0
 40
13.0
 40
13.0
 10
19.43766249999999
 20
-6.169563888888888
 30
0.0
 10
19.43754583333333
 20
-6.05531388888888
 30
0.0
 10
19.41138611111112
 20
-5.93490416666667
 30
0.0
 10
19.283175
 20
-5.978219444444449
 30
0.0
 10
19.15101805555554
 20
-6.022880555555553
 30
0.0
 10
19.07625277777778
 20
-6.22341944444444
 30
0.0
 10
19.05596527777778
 20
-6.34834444444444
 30
0.0
 10
19.03248472222223
 20
-6.492904166666676
 30
0.0
 10
19.0415125
 20
-6.64325694444445
 30
0.0
 10
18.99733750000001
 20
-6.784230555555546
 30
0.0
 10
18.9832263888889
 20
-6.82925138888888
 30
0.0
 10
18.93703472222223
 20
-6.902680555555561
 30
0.0
 10
18.96877361111112
 20
-6.94778472222222
 30
0.0
 10
19.01591666666667
 20
-7.014773611111119
 30
0.0
 10
19.05164722222222
 20
-7.087545833333327
 30
0.0
 10
19.07816666666668
 20
-7.165116666666663
 30
0.0
 10
19.11430277777779
 20
-7.270818055555562
 30
0.0
 10
19.14409027777777
 20
-7.378872222222222
 30
0.0
 10
19.19602499999999
 20
-7.478743055555545
 30
0.0
 10
19.22233472222221
 20
-7.529331944444443
 30
0.0
 10
19.24666527777779
 20
-7.580966666666654
 30
0.0
 10
19.27136805555556
 20
-7.632377777777769
 30
0.0
 10
19.27623333333334
 20
-7.642497222222219
 30
0.0
 10
19.27931388888889
 20
-7.641737499999989
 30
0.0
 10
19.28430416666667
 20
-7.633115277777783
 30
0.0
 10
19.28772638888889
 20
-7.627186111111111
 30
0.0
 10
19.29183888888888
 20
-7.621663888888886
 30
0.0
 10
19.29525138888888
 20
-7.615734722222214
 30
0.0
 10
19.37356944444446
 20
-7.479783333333343
 30
0.0
 10
19.41702916666666
 20
-7.334104166666672
 30
0.0
 10
19.41540000000001
 20
-7.176455555555549
 30
0.0
 10
19.41357083333332
 20
-6.999577777777782
 30
0.0
 10
19.47077916666666
 20
-6.825301388888899
 30
0.0
 10
19.45254027777777
 20
-6.648933333333338
 30
0.0
 10
19.44069305555556
 20
-6.534400000000005
 30
0.0
 10
19.41570833333334
 20
-6.428940277777782
 30
0.0
 10
19.42809305555556
 20
-6.312386111111108
 30
0.0
 10
19.43160833333334
 20
-6.279288888888888
 30
0.0
 10
19.43771944444446
 20
-6.225156944444456
 30
0.0
 10
19.43766249999999
 20
-6.169563888888888
 30
0.0
  0
HATCH
  5
4F
330
1F
100
AcDbEntity
  8
Layer 1
 62
     7
420
 16314339
100
AcDbHatch
 10
0.0
 20
0.0
 30
0.0
210
0.0
220
0.0
230
1.0
  2
SOLID
 70
     1
 71
     0
 91
        1
 92
        1
 93
        1
 72
     4
 94
        3
 73
     0
 74
     1
 95
       44
 96
       40
 40
0.0
 40
0.0
 40
0.0
 40
0.0
 40
1.0
 40
1.0
 40
1.0
 40
2.0
 40
2.0
 40
2.0
 40
3.0
 40
3.0
 40
3.0
 40
4.0
 40
4.0
 40
4.0
 40
5.0
 40
5.0
 40
5.0
 40
6.0
 40
6.0
 40
6.0
 40
7.0
 40
7.0
 40
7.0
 40
8.0
 40
8.0
 40
8.0
 40
9.0
 40
9.0
 40
9.0
 40
10.0
 40
10.0
 40
10.0
 40
11.0
 40
11.0
 40
11.0
 40
12.0
 40
12.0
 40
12.0
 40
13.0
 40
13.0
 40
13.0
 40
13.0
 10
19.43766249999999
 20
-6.169563888888888
 10
19.43754583333333
 20
-6.05531388888888
 10
19.41138611111112
 20
-5.93490416666667
 10
19.283175
 20
-5.978219444444449
 10
19.15101805555554
 20
-6.022880555555553
 10
19.07625277777778
 20
-6.22341944444444
 10
19.05596527777778
 20
-6.34834444444444
 10
19.03248472222223
 20
-6.492904166666676
 10
19.0415125
 20
-6.64325694444445
 10
18.99733750000001
 20
-6.784230555555546
 10
18.9832263888889
 20
-6.82925138888888
 10
18.93703472222223
 20
-6.902680555555561
 10
18.96877361111112
 20
-6.94778472222222
 10
19.01591666666667
 20
-7.014773611111119
 10
19.05164722222222
 20
-7.087545833333327
 10
19.07816666666668
 20
-7.165116666666663
 10
19.11430277777779
 20
-7.270818055555562
 10
19.14409027777777
 20
-7.378872222222222
 10
19.19602499999999
 20
-7.478743055555545
 10
19.22233472222221
 20
-7.529331944444443
 10
19.24666527777779
 20
-7.580966666666654
 10
19.27136805555556
 20
-7.632377777777769
 10
19.27623333333334
 20
-7.642497222222219
 10
19.27931388888889
 20
-7.641737499999989
 10
19.28430416666667
 20
-7.633115277777783
 10
19.28772638888889
 20
-7.627186111111111
 10
19.29183888888888
 20
-7.621663888888886
 10
19.29525138888888
 20
-7.615734722222214
 10
19.37356944444446
 20
-7.479783333333343
 10
19.41702916666666
 20
-7.334104166666672
 10
19.41540000000001
 20
-7.176455555555549
 10
19.41357083333332
 20
-6.999577777777782
 10
19.47077916666666
 20
-6.825301388888899
 10
19.45254027777777
 20
-6.648933333333338
 10
19.44069305555556
 20
-6.534400000000005
 10
19.41570833333334
 20
-6.428940277777782
 10
19.42809305555556
 20
-6.312386111111108
 10
19.43160833333334
 20
-6.279288888888888
 10
19.43771944444446
 20
-6.225156944444456
 10
19.43766249999999
 20
-6.169563888888888
 97
        0
 97
        0
 75
     2
 76
     1
 98
        0
  0
SPLINE
  5
50
330
1F
100
AcDbEntity
  8
Layer 1
370
     0
100
AcDbSpline
210
0.0
220
0.0
230
1.0
 70
    11
 71
     3
 72
    53
 73
    49
 74
     0
 42
0.0000000001
 43
0.0000000001
 12
1.0
 22
0.0
 32
0.0
 13
1.0
 23
0.0
 33
0.0
 40
0.0
 40
0.0
 40
0.0
 40
0.0
 40
1.0
 40
1.0
 40
1.0
 40
2.0
 40
2.0
 40
2.0
 40
3.0
 40
3.0
 40
3.0
 40
4.0
 40
4.0
 40
4.0
 40
5.0
 40
5.0
 40
5.0
 40
6.0
 40
6.0
 40
6.0
 40
7.0
 40
7.0
 40
7.0
 40
8.0
 40
8.0
 40
8.0
 40
9.0
 40
9.0
 40
9.0
 40
10.0
 40
10.0
 40
10.0
 40
11.0
 40
11.0
 40
11.0
 40
12.0
 40
12.0
 40
12.0
 40
13.0
 40
13.0
 40
13.0
 40
14.0
 40
14.0
 40
14.0
 40
15.0
 40
15.0
 40
15.0
 40
16.0
 40
16.0
 40
16.0
 40
16.0
 10
20.50901388888888
 20
-5.221700000000005
 30
0.0
 10
20.50901388888888
 20
-5.221700000000005
 30
0.0
 10
20.18032222222223
 20
-5.298468055555556
 30
0.0
 10
20.18032222222223
 20
-5.298468055555556
 30
0.0
 10
20.16856388888889
 20
-5.301218055555561
 30
0.0
 10
20.16856388888889
 20
-5.317948611111117
 30
0.0
 10
20.18032222222223
 20
-5.320693055555554
 30
0.0
 10
20.18032222222223
 20
-5.320693055555554
 30
0.0
 10
20.51142222222223
 20
-5.398026388888891
 30
0.0
 10
20.51142222222223
 20
-5.398026388888891
 30
0.0
 10
20.53042638888888
 20
-5.402465277777777
 30
0.0
 10
20.54526666666667
 20
-5.417305555555559
 30
0.0
 10
20.54970138888888
 20
-5.436309722222227
 30
0.0
 10
20.54970138888888
 20
-5.436309722222227
 30
0.0
 10
20.62703333333333
 20
-5.76740972222222
 30
0.0
 10
20.62703333333333
 20
-5.76740972222222
 30
0.0
 10
20.62978333333333
 20
-5.779163888888888
 30
0.0
 10
20.64651388888888
 20
-5.779163888888888
 30
0.0
 10
20.64925972222222
 20
-5.76740972222222
 30
0.0
 10
20.64925972222222
 20
-5.76740972222222
 30
0.0
 10
20.72659166666666
 20
-5.436309722222227
 30
0.0
 10
20.72659166666666
 20
-5.436309722222227
 30
0.0
 10
20.73103194444444
 20
-5.417305555555559
 30
0.0
 10
20.74587222222221
 20
-5.402465277777777
 30
0.0
 10
20.7648763888889
 20
-5.398026388888891
 30
0.0
 10
20.7648763888889
 20
-5.398026388888891
 30
0.0
 10
21.095975
 20
-5.320693055555554
 30
0.0
 10
21.095975
 20
-5.320693055555554
 30
0.0
 10
21.10772916666666
 20
-5.317948611111117
 30
0.0
 10
21.10772916666666
 20
-5.301218055555561
 30
0.0
 10
21.095975
 20
-5.298468055555556
 30
0.0
 10
21.095975
 20
-5.298468055555556
 30
0.0
 10
20.76547777777778
 20
-5.221280555555558
 30
0.0
 10
20.76547777777778
 20
-5.221280555555558
 30
0.0
 10
20.74610555555556
 20
-5.216751388888889
 30
0.0
 10
20.7309763888889
 20
-5.201626388888889
 30
0.0
 10
20.72645138888889
 20
-5.182254166666667
 30
0.0
 10
20.72645138888889
 20
-5.182254166666667
 30
0.0
 10
20.64925972222222
 20
-4.851752777777784
 30
0.0
 10
20.64925972222222
 20
-4.851752777777784
 30
0.0
 10
20.64651388888888
 20
-4.839997222222223
 30
0.0
 10
20.62978333333333
 20
-4.839997222222223
 30
0.0
 10
20.62703333333333
 20
-4.851752777777784
 30
0.0
 10
20.62703333333333
 20
-4.851752777777784
 30
0.0
 10
20.55026527777778
 20
-5.180447222222218
 30
0.0
 10
20.55026527777778
 20
-5.180447222222218
 30
0.0
 10
20.54548055555556
 20
-5.200926388888888
 30
0.0
 10
20.52949305555555
 20
-5.216915277777781
 30
0.0
 10
20.50901388888888
 20
-5.221700000000005
 30
0.0
  0
HATCH
  5
51
330
1F
100
AcDbEntity
  8
Layer 1
 62
     7
420
 16314339
100
AcDbHatch
 10
0.0
 20
0.0
 30
0.0
210
0.0
220
0.0
230
1.0
  2
SOLID
 70
     1
 71
     0
 91
        1
 92
        1
 93
        1
 72
     4
 94
        3
 73
     0
 74
     1
 95
       53
 96
       49
 40
0.0
 40
0.0
 40
0.0
 40
0.0
 40
1.0
 40
1.0
 40
1.0
 40
2.0
 40
2.0
 40
2.0
 40
3.0
 40
3.0
 40
3.0
 40
4.0
 40
4.0
 40
4.0
 40
5.0
 40
5.0
 40
5.0
 40
6.0
 40
6.0
 40
6.0
 40
7.0
 40
7.0
 40
7.0
 40
8.0
 40
8.0
 40
8.0
 40
9.0
 40
9.0
 40
9.0
 40
10.0
 40
10.0
 40
10.0
 40
11.0
 40
11.0
 40
11.0
 40
12.0
 40
12.0
 40
12.0
 40
13.0
 40
13.0
 40
13.0
 40
14.0
 40
14.0
 40
14.0
 40
15.0
 40
15.0
 40
15.0
 40
16.0
 40
16.0
 40
16.0
 40
16.0
 10
20.50901388888888
 20
-5.221700000000005
 10
20.50901388888888
 20
-5.221700000000005
 10
20.18032222222223
 20
-5.298468055555556
 10
20.18032222222223
 20
-5.298468055555556
 10
20.16856388888889
 20
-5.301218055555561
 10
20.16856388888889
 20
-5.317948611111117
 10
20.18032222222223
 20
-5.320693055555554
 10
20.18032222222223
 20
-5.320693055555554
 10
20.51142222222223
 20
-5.398026388888891
 10
20.51142222222223
 20
-5.398026388888891
 10
20.53042638888888
 20
-5.402465277777777
 10
20.54526666666667
 20
-5.417305555555559
 10
20.54970138888888
 20
-5.436309722222227
 10
20.54970138888888
 20
-5.436309722222227
 10
20.62703333333333
 20
-5.76740972222222
 10
20.62703333333333
 20
-5.76740972222222
 10
20.62978333333333
 20
-5.779163888888888
 10
20.64651388888888
 20
-5.779163888888888
 10
20.64925972222222
 20
-5.76740972222222
 10
20.64925972222222
 20
-5.76740972222222
 10
20.72659166666666
 20
-5.436309722222227
 10
20.72659166666666
 20
-5.436309722222227
 10
20.73103194444444
 20
-5.417305555555559
 10
20.74587222222221
 20
-5.402465277777777
 10
20.7648763888889
 20
-5.398026388888891
 10
20.7648763888889
 20
-5.398026388888891
 10
21.095975
 20
-5.320693055555554
 10
21.095975
 20
-5.320693055555554
 10
21.10772916666666
 20
-5.317948611111117
 10
21.10772916666666
 20
-5.301218055555561
 10
21.095975
 20
-5.298468055555556
 10
21.095975
 20
-5.298468055555556
 10
20.76547777777778
 20
-5.221280555555558
 10
20.76547777777778
 20
-5.221280555555558
 10
20.74610555555556
 20
-5.216751388888889
 10
20.7309763888889
 20
-5.201626388888889
 10
20.72645138888889
 20
-5.182254166666667
 10
20.72645138888889
 20
-5.182254166666667
 10
20.64925972222222
 20
-4.851752777777784
 10
20.64925972222222
 20
-4.851752777777784
 10
20.64651388888888
 20
-4.839997222222223
 10
20.62978333333333
 20
-4.839997222222223
 10
20.62703333333333
 20
-4.851752777777784
 10
20.62703333333333
 20
-4.851752777777784
 10
20.55026527777778
 20
-5.180447222222218
 10
20.55026527777778
 20
-5.180447222222218
 10
20.54548055555556
 20
-5.200926388888888
 10
20.52949305555555
 20
-5.216915277777781
 10
20.50901388888888
 20
-5.221700000000005
 97
        0
 97
        0
 75
     2
 76
     1
 98
        0
  0
SPLINE
  5
52
330
1F
100
AcDbEntity
  8
Layer 1
370
     0
100
AcDbSpline
210
0.0
220
0.0
230
1.0
 70
    11
 71
     3
 72
    53
 73
    49
 74
     0
 42
0.0000000001
 43
0.0000000001
 12
1.0
 22
0.0
 32
0.0
 13
1.0
 23
0.0
 33
0.0
 40
0.0
 40
0.0
 40
0.0
 40
0.0
 40
1.0
 40
1.0
 40
1.0
 40
2.0
 40
2.0
 40
2.0
 40
3.0
 40
3.0
 40
3.0
 40
4.0
 40
4.0
 40
4.0
 40
5.0
 40
5.0
 40
5.0
 40
6.0
 40
6.0
 40
6.0
 40
7.0
 40
7.0
 40
7.0
 40
8.0
 40
8.0
 40
8.0
 40
9.0
 40
9.0
 40
9.0
 40
10.0
 40
10.0
 40
10.0
 40
11.0
 40
11.0
 40
11.0
 40
12.0
 40
12.0
 40
12.0
 40
13.0
 40
13.0
 40
13.0
 40
14.0
 40
14.0
 40
14.0
 40
15.0
 40
15.0
 40
15.0
 40
16.0
 40
16.0
 40
16.0
 40
16.0
 10
16.15002777777777
 20
-7.181637500000003
 30
0.0
 10
16.15002777777777
 20
-7.181637500000003
 30
0.0
 10
15.90582638888889
 20
-7.238672222222223
 30
0.0
 10
15.90582638888889
 20
-7.238672222222223
 30
0.0
 10
15.89709166666666
 20
-7.240712499999997
 30
0.0
 10
15.89709166666666
 20
-7.253148611111101
 30
0.0
 10
15.90582638888889
 20
-7.2551888888889
 30
0.0
 10
15.90582638888889
 20
-7.2551888888889
 30
0.0
 10
16.15182083333333
 20
-7.312640277777771
 30
0.0
 10
16.15182083333333
 20
-7.312640277777771
 30
0.0
 10
16.1659375
 20
-7.315940277777776
 30
0.0
 10
16.17696249999999
 20
-7.32696250000001
 30
0.0
 10
16.18025833333334
 20
-7.34108333333332
 30
0.0
 10
16.18025833333334
 20
-7.34108333333332
 30
0.0
 10
16.23771527777777
 20
-7.587072222222231
 30
0.0
 10
16.23771527777777
 20
-7.587072222222231
 30
0.0
 10
16.23975416666667
 20
-7.595806944444448
 30
0.0
 10
16.25218611111111
 20
-7.595806944444448
 30
0.0
 10
16.25422638888888
 20
-7.587072222222231
 30
0.0
 10
16.25422638888888
 20
-7.587072222222231
 30
0.0
 10
16.31168194444444
 20
-7.34108333333332
 30
0.0
 10
16.31168194444444
 20
-7.34108333333332
 30
0.0
 10
16.31497777777777
 20
-7.32696250000001
 30
0.0
 10
16.32600416666667
 20
-7.315940277777776
 30
0.0
 10
16.34012083333333
 20
-7.312640277777771
 30
0.0
 10
16.34012083333333
 20
-7.312640277777771
 30
0.0
 10
16.58611388888889
 20
-7.2551888888889
 30
0.0
 10
16.58611388888889
 20
-7.2551888888889
 30
0.0
 10
16.59484861111111
 20
-7.253148611111101
 30
0.0
 10
16.59484861111111
 20
-7.240712499999997
 30
0.0
 10
16.58611388888889
 20
-7.238672222222223
 30
0.0
 10
16.58611388888889
 20
-7.238672222222223
 30
0.0
 10
16.34056805555555
 20
-7.181323611111111
 30
0.0
 10
16.34056805555555
 20
-7.181323611111111
 30
0.0
 10
16.32617638888889
 20
-7.177963888888901
 30
0.0
 10
16.31494027777777
 20
-7.166722222222234
 30
0.0
 10
16.311575
 20
-7.15233055555556
 30
0.0
 10
16.311575
 20
-7.15233055555556
 30
0.0
 10
16.25422638888888
 20
-6.906788888888892
 30
0.0
 10
16.25422638888888
 20
-6.906788888888892
 30
0.0
 10
16.25218611111111
 20
-6.898055555555553
 30
0.0
 10
16.23975416666667
 20
-6.898055555555553
 30
0.0
 10
16.23771527777777
 20
-6.906788888888892
 30
0.0
 10
16.23771527777777
 20
-6.906788888888892
 30
0.0
 10
16.18067916666666
 20
-7.150990277777787
 30
0.0
 10
16.18067916666666
 20
-7.150990277777787
 30
0.0
 10
16.17712638888889
 20
-7.166204166666678
 30
0.0
 10
16.16524583333333
 20
-7.178084722222214
 30
0.0
 10
16.15002777777777
 20
-7.181637500000003
 30
0.0
  0
HATCH
  5
53
330
1F
100
AcDbEntity
  8
Layer 1
 62
     7
420
 16314339
100
AcDbHatch
 10
0.0
 20
0.0
 30
0.0
210
0.0
220
0.0
230
1.0
  2
SOLID
 70
     1
 71
     0
 91
        1
 92
        1
 93
        1
 72
     4
 94
        3
 73
     0
 74
     1
 95
       53
 96
       49
 40
0.0
 40
0.0
 40
0.0
 40
0.0
 40
1.0
 40
1.0
 40
1.0
 40
2.0
 40
2.0
 40
2.0
 40
3.0
 40
3.0
 40
3.0
 40
4.0
 40
4.0
 40
4.0
 40
5.0
 40
5.0
 40
5.0
 40
6.0
 40
6.0
 40
6.0
 40
7.0
 40
7.0
 40
7.0
 40
8.0
 40
8.0
 40
8.0
 40
9.0
 40
9.0
 40
9.0
 40
10.0
 40
10.0
 40
10.0
 40
11.0
 40
11.0
 40
11.0
 40
12.0
 40
12.0
 40
12.0
 40
13.0
 40
13.0
 40
13.0
 40
14.0
 40
14.0
 40
14.0
 40
15.0
 40
15.0
 40
15.0
 40
16.0
 40
16.0
 40
16.0
 40
16.0
 10
16.15002777777777
 20
-7.181637500000003
 10
16.15002777777777
 20
-7.181637500000003
 10
15.90582638888889
 20
-7.238672222222223
 10
15.90582638888889
 20
-7.238672222222223
 10
15.89709166666666
 20
-7.240712499999997
 10
15.89709166666666
 20
-7.253148611111101
 10
15.90582638888889
 20
-7.2551888888889
 10
15.90582638888889
 20
-7.2551888888889
 10
16.15182083333333
 20
-7.312640277777771
 10
16.15182083333333
 20
-7.312640277777771
 10
16.1659375
 20
-7.315940277777776
 10
16.17696249999999
 20
-7.32696250000001
 10
16.18025833333334
 20
-7.34108333333332
 10
16.18025833333334
 20
-7.34108333333332
 10
16.23771527777777
 20
-7.587072222222231
 10
16.23771527777777
 20
-7.587072222222231
 10
16.23975416666667
 20
-7.595806944444448
 10
16.25218611111111
 20
-7.595806944444448
 10
16.25422638888888
 20
-7.587072222222231
 10
16.25422638888888
 20
-7.587072222222231
 10
16.31168194444444
 20
-7.34108333333332
 10
16.31168194444444
 20
-7.34108333333332
 10
16.31497777777777
 20
-7.32696250000001
 10
16.32600416666667
 20
-7.315940277777776
 10
16.34012083333333
 20
-7.312640277777771
 10
16.34012083333333
 20
-7.312640277777771
 10
16.58611388888889
 20
-7.2551888888889
 10
16.58611388888889
 20
-7.2551888888889
 10
16.59484861111111
 20
-7.253148611111101
 10
16.59484861111111
 20
-7.240712499999997
 10
16.58611388888889
 20
-7.238672222222223
 10
16.58611388888889
 20
-7.238672222222223
 10
16.34056805555555
 20
-7.181323611111111
 10
16.34056805555555
 20
-7.181323611111111
 10
16.32617638888889
 20
-7.177963888888901
 10
16.31494027777777
 20
-7.166722222222234
 10
16.311575
 20
-7.15233055555556
 10
16.311575
 20
-7.15233055555556
 10
16.25422638888888
 20
-6.906788888888892
 10
16.25422638888888
 20
-6.906788888888892
 10
16.25218611111111
 20
-6.898055555555553
 10
16.23975416666667
 20
-6.898055555555553
 10
16.23771527777777
 20
-6.906788888888892
 10
16.23771527777777
 20
-6.906788888888892
 10
16.18067916666666
 20
-7.150990277777787
 10
16.18067916666666
 20
-7.150990277777787
 10
16.17712638888889
 20
-7.166204166666678
 10
16.16524583333333
 20
-7.178084722222214
 10
16.15002777777777
 20
-7.181637500000003
 97
        0
 97
        0
 75
     2
 76
     1
 98
        0
  0
SPLINE
  5
54
330
1F
100
AcDbEntity
  8
Layer 1
370
     0
100
AcDbSpline
210
0.0
220
0.0
230
1.0
 70
    11
 71
     3
 72
    53
 73
    49
 74
     0
 42
0.0000000001
 43
0.0000000001
 12
1.0
 22
0.0
 32
0.0
 13
1.0
 23
0.0
 33
0.0
 40
0.0
 40
0.0
 40
0.0
 40
0.0
 40
1.0
 40
1.0
 40
1.0
 40
2.0
 40
2.0
 40
2.0
 40
3.0
 40
3.0
 40
3.0
 40
4.0
 40
4.0
 40
4.0
 40
5.0
 40
5.0
 40
5.0
 40
6.0
 40
6.0
 40
6.0
 40
7.0
 40
7.0
 40
7.0
 40
8.0
 40
8.0
 40
8.0
 40
9.0
 40
9.0
 40
9.0
 40
10.0
 40
10.0
 40
10.0
 40
11.0
 40
11.0
 40
11.0
 40
12.0
 40
12.0
 40
12.0
 40
13.0
 40
13.0
 40
13.0
 40
14.0
 40
14.0
 40
14.0
 40
15.0
 40
15.0
 40
15.0
 40
16.0
 40
16.0
 40
16.0
 40
16.0
 10
17.33963194444444
 20
-1.848524999999995
 30
0.0
 10
17.33963194444444
 20
-1.848524999999995
 30
0.0
 10
17.03115
 20
-1.920573611111106
 30
0.0
 10
17.03115
 20
-1.920573611111106
 30
0.0
 10
17.02011944444444
 20
-1.923150000000002
 30
0.0
 10
17.02011944444444
 20
-1.938854166666665
 30
0.0
 10
17.03115
 20
-1.94143055555556
 30
0.0
 10
17.03115
 20
-1.94143055555556
 30
0.0
 10
17.34189166666667
 20
-2.014012499999997
 30
0.0
 10
17.34189166666667
 20
-2.014012499999997
 30
0.0
 10
17.35972916666666
 20
-2.018176388888883
 30
0.0
 10
17.37365416666666
 20
-2.032101388888893
 30
0.0
 10
17.37782222222222
 20
-2.049937500000005
 30
0.0
 10
17.37782222222222
 20
-2.049937500000005
 30
0.0
 10
17.45039861111112
 20
-2.360679166666664
 30
0.0
 10
17.45039861111112
 20
-2.360679166666664
 30
0.0
 10
17.452975
 20
-2.371711111111115
 30
0.0
 10
17.46867916666666
 20
-2.371711111111115
 30
0.0
 10
17.47125555555556
 20
-2.360679166666664
 30
0.0
 10
17.47125555555556
 20
-2.360679166666664
 30
0.0
 10
17.54383194444444
 20
-2.049937500000005
 30
0.0
 10
17.54383194444444
 20
-2.049937500000005
 30
0.0
 10
17.54800138888889
 20
-2.032101388888893
 30
0.0
 10
17.56192638888889
 20
-2.018176388888883
 30
0.0
 10
17.5797625
 20
-2.014012499999997
 30
0.0
 10
17.5797625
 20
-2.014012499999997
 30
0.0
 10
17.8905
 20
-1.94143055555556
 30
0.0
 10
17.8905
 20
-1.94143055555556
 30
0.0
 10
17.90153611111111
 20
-1.938854166666665
 30
0.0
 10
17.90153611111111
 20
-1.923150000000002
 30
0.0
 10
17.89050416666666
 20
-1.920573611111106
 30
0.0
 10
17.89050416666666
 20
-1.920573611111106
 30
0.0
 10
17.58032777777778
 20
-1.848127777777778
 30
0.0
 10
17.58032777777778
 20
-1.848127777777778
 30
0.0
 10
17.56214583333334
 20
-1.843880555555554
 30
0.0
 10
17.54795
 20
-1.829684722222219
 30
0.0
 10
17.54370138888888
 20
-1.81150138888889
 30
0.0
 10
17.54370138888888
 20
-1.81150138888889
 30
0.0
 10
17.47125555555556
 20
-1.501330555555556
 30
0.0
 10
17.47125555555556
 20
-1.501330555555556
 30
0.0
 10
17.46867916666666
 20
-1.490294444444443
 30
0.0
 10
17.452975
 20
-1.490294444444443
 30
0.0
 10
17.45039861111112
 20
-1.501330555555556
 30
0.0
 10
17.45039861111112
 20
-1.501330555555556
 30
0.0
 10
17.37835
 20
-1.809806944444441
 30
0.0
 10
17.37835
 20
-1.809806944444441
 30
0.0
 10
17.37385972222223
 20
-1.829026388888893
 30
0.0
 10
17.35885138888889
 20
-1.844034722222217
 30
0.0
 10
17.33963194444444
 20
-1.848524999999995
 30
0.0
  0
HATCH
  5
55
330
1F
100
AcDbEntity
  8
Layer 1
 62
     7
420
 16314339
100
AcDbHatch
 10
0.0
 20
0.0
 30
0.0
210
0.0
220
0.0
230
1.0
  2
SOLID
 70
     1
 71
     0
 91
        1
 92
        1
 93
        1
 72
     4
 94
        3
 73
     0
 74
     1
 95
       53
 96
       49
 40
0.0
 40
0.0
 40
0.0
 40
0.0
 40
1.0
 40
1.0
 40
1.0
 40
2.0
 40
2.0
 40
2.0
 40
3.0
 40
3.0
 40
3.0
 40
4.0
 40
4.0
 40
4.0
 40
5.0
 40
5.0
 40
5.0
 40
6.0
 40
6.0
 40
6.0
 40
7.0
 40
7.0
 40
7.0
 40
8.0
 40
8.0
 40
8.0
 40
9.0
 40
9.0
 40
9.0
 40
10.0
 40
10.0
 40
10.0
 40
11.0
 40
11.0
 40
11.0
 40
12.0
 40
12.0
 40
12.0
 40
13.0
 40
13.0
 40
13.0
 40
14.0
 40
14.0
 40
14.0
 40
15.0
 40
15.0
 40
15.0
 40
16.0
 40
16.0
 40
16.0
 40
16.0
 10
17.33963194444444
 20
-1.848524999999995
 10
17.33963194444444
 20
-1.848524999999995
 10
17.03115
 20
-1.920573611111106
 10
17.03115
 20
-1.920573611111106
 10
17.02011944444444
 20
-1.923150000000002
 10
17.02011944444444
 20
-1.938854166666665
 10
17.03115
 20
-1.94143055555556
 10
17.03115
 20
-1.94143055555556
 10
17.34189166666667
 20
-2.014012499999997
 10
17.34189166666667
 20
-2.014012499999997
 10
17.35972916666666
 20
-2.018176388888883
 10
17.37365416666666
 20
-2.032101388888893
 10
17.37782222222222
 20
-2.049937500000005
 10
17.37782222222222
 20
-2.049937500000005
 10
17.45039861111112
 20
-2.360679166666664
 10
17.45039861111112
 20
-2.360679166666664
 10
17.452975
 20
-2.371711111111115
 10
17.46867916666666
 20
-2.371711111111115
 10
17.47125555555556
 20
-2.360679166666664
 10
17.47125555555556
 20
-2.360679166666664
 10
17.54383194444444
 20
-2.049937500000005
 10
17.54383194444444
 20
-2.049937500000005
 10
17.54800138888889
 20
-2.032101388888893
 10
17.56192638888889
 20
-2.018176388888883
 10
17.5797625
 20
-2.014012499999997
 10
17.5797625
 20
-2.014012499999997
 10
17.8905
 20
-1.94143055555556
 10
17.8905
 20
-1.94143055555556
 10
17.90153611111111
 20
-1.938854166666665
 10
17.90153611111111
 20
-1.923150000000002
 10
17.89050416666666
 20
-1.920573611111106
 10
17.89050416666666
 20
-1.920573611111106
 10
17.58032777777778
 20
-1.848127777777778
 10
17.58032777777778
 20
-1.848127777777778
 10
17.56214583333334
 20
-1.843880555555554
 10
17.54795
 20
-1.829684722222219
 10
17.54370138888888
 20
-1.81150138888889
 10
17.54370138888888
 20
-1.81150138888889
 10
17.47125555555556
 20
-1.501330555555556
 10
17.47125555555556
 20
-1.501330555555556
 10
17.46867916666666
 20
-1.490294444444443
 10
17.452975
 20
-1.490294444444443
 10
17.45039861111112
 20
-1.501330555555556
 10
17.45039861111112
 20
-1.501330555555556
 10
17.37835
 20
-1.809806944444441
 10
17.37835
 20
-1.809806944444441
 10
17.37385972222223
 20
-1.829026388888893
 10
17.35885138888889
 20
-1.844034722222217
 10
17.33963194444444
 20
-1.848524999999995
 97
        0
 97
        0
 75
     2
 76
     1
 98
        0
  0
ENDSEC
  0
SECTION
  2
OBJECTS
  0
DICTIONARY
  5
C
330
0
100
AcDbDictionary
281
     1
  3
ACAD_GROUP
350
D
  3
ACAD_LAYOUT
350
1A
  3
ACAD_MATERIAL
350
3B
  3
ACAD_MLEADERSTYLE
350
57
  3
ACAD_MLINESTYLE
350
17
  3
ACAD_PLOTSETTINGS
350
19
  3
ACAD_PLOTSTYLENAME
350
E
  3
ACAD_TABLESTYLE
350
56
  3
ACAD_VISUALSTYLE
350
2A
  0
SUN
  5
3F
330
29
100
AcDbSun
 90
        1
290
     0
 63
     7
421
 16777215
 40
1.0
291
     1
 91
  2455826
 92
 54000000
292
     0
 70
     2
 71
   256
280
     1
  0
DICTIONARY
  5
D
102
{ACAD_REACTORS
330
C
102
}
330
C
100
AcDbDictionary
281
     1
  0
DICTIONARY
  5
1A
102
{ACAD_REACTORS
330
C
102
}
330
C
100
AcDbDictionary
281
     1
  3
Layout1
350
1E
  3
Layout2
350
26
  3
Model
350
22
  0
DICTIONARY
  5
3B
102
{ACAD_REACTORS
330
C
102
}
330
C
100
AcDbDictionary
281
     1
  3
ByBlock
350
3D
  3
ByLayer
350
3C
  3
Global
350
3E
  0
DICTIONARY
  5
57
102
{ACAD_REACTORS
330
C
102
}
330
C
100
AcDbDictionary
281
     1
  0
DICTIONARY
  5
17
102
{ACAD_REACTORS
330
C
102
}
330
C
100
AcDbDictionary
281
     1
  3
Standard
350
18
  0
DICTIONARY
  5
19
102
{ACAD_REACTORS
330
C
102
}
330
C
100
AcDbDictionary
281
     1
  0
ACDBDICTIONARYWDFLT
  5
E
102
{ACAD_REACTORS
330
C
102
}
330
C
100
AcDbDictionary
281
     1
  3
Normal
350
F
100
AcDbDictionaryWithDefault
340
F
  0
DICTIONARY
  5
56
102
{ACAD_REACTORS
330
C
102
}
330
C
100
AcDbDictionary
281
     1
  0
DICTIONARY
  5
2A
102
{ACAD_REACTORS
330
C
102
}
330
C
100
AcDbDictionary
281
     1
  3
2dWireframe
350
2F
  3
3D Hidden
350
31
  3
3dWireframe
350
30
  3
Basic
350
32
  3
Brighten
350
36
  3
ColorChange
350
3A
  3
Conceptual
350
34
  3
Dim
350
35
  3
Facepattern
350
39
  3
Flat
350
2B
  3
FlatWithEdges
350
2C
  3
Gouraud
350
2D
  3
GouraudWithEdges
350
2E
  3
Linepattern
350
38
  3
Realistic
350
33
  3
Thicken
350
37
  0
LAYOUT
  5
1E
102
{ACAD_REACTORS
330
1A
102
}
330
1A
100
AcDbPlotSettings
  1

  2
none_device
  4

  6

 40
0.0
 41
0.0
 42
0.0
 43
0.0
 44
0.0
 45
0.0
 46
0.0
 47
0.0
 48
0.0
 49
0.0
140
0.0
141
0.0
142
1.0
143
1.0
 70
   688
 72
     0
 73
     0
 74
     5
  7

 75
    16
 76
     0
 77
     2
 78
   300
147
1.0
148
0.0
149
0.0
100
AcDbLayout
  1
Layout1
 70
     1
 71
     1
 10
0.0
 20
0.0
 11
12.0
 21
9.0
 12
0.0
 22
0.0
 32
0.0
 14
1.000000000000000E+20
 24
1.000000000000000E+20
 34
1.000000000000000E+20
 15
-1.000000000000000E+20
 25
-1.000000000000000E+20
 35
-1.000000000000000E+20
146
0.0
 13
0.0
 23
0.0
 33
0.0
 16
1.0
 26
0.0
 36
0.0
 17
0.0
 27
1.0
 37
0.0
 76
     0
330
1B
  0
LAYOUT
  5
26
102
{ACAD_REACTORS
330
1A
102
}
330
1A
100
AcDbPlotSettings
  1

  2
none_device
  4

  6

 40
0.0
 41
0.0
 42
0.0
 43
0.0
 44
0.0
 45
0.0
 46
0.0
 47
0.0
 48
0.0
 49
0.0
140
0.0
141
0.0
142
1.0
143
1.0
 70
   688
 72
     0
 73
     0
 74
     5
  7

 75
    16
 76
     0
 77
     2
 78
   300
147
1.0
148
0.0
149
0.0
100
AcDbLayout
  1
Layout2
 70
     1
 71
     2
 10
0.0
 20
0.0
 11
0.0
 21
0.0
 12
0.0
 22
0.0
 32
0.0
 14
0.0
 24
0.0
 34
0.0
 15
0.0
 25
0.0
 35
0.0
146
0.0
 13
0.0
 23
0.0
 33
0.0
 16
1.0
 26
0.0
 36
0.0
 17
0.0
 27
1.0
 37
0.0
 76
     0
330
23
  0
LAYOUT
  5
22
102
{ACAD_REACTORS
330
1A
102
}
330
1A
100
AcDbPlotSettings
  1

  2
none_device
  4

  6

 40
0.0
 41
0.0
 42
0.0
 43
0.0
 44
0.0
 45
0.0
 46
0.0
 47
0.0
 48
0.0
 49
0.0
140
0.0
141
0.0
142
1.0
143
1.0
 70
  1712
 72
     0
 73
     0
 74
     0
  7

 75
     0
 76
     0
 77
     2
 78
   300
147
1.0
148
0.0
149
0.0
100
AcDbLayout
  1
Model
 70
     1
 71
     0
 10
0.0
 20
0.0
 11
12.0
 21
9.0
 12
0.0
 22
0.0
 32
0.0
 14
1.000000000000000E+20
 24
1.000000000000000E+20
 34
1.000000000000000E+20
 15
-1.000000000000000E+20
 25
-1.000000000000000E+20
 35
-1.000000000000000E+20
146
0.0
 13
0.0
 23
0.0
 33
0.0
 16
1.0
 26
0.0
 36
0.0
 17
0.0
 27
1.0
 37
0.0
 76
     0
330
1F
331
29
  0
MATERIAL
  5
3D
102
{ACAD_REACTORS
330
3B
102
}
330
3B
100
AcDbMaterial
  1
ByBlock
 72
     1
 94
      127
  0
MATERIAL
  5
3C
102
{ACAD_REACTORS
330
3B
102
}
330
3B
100
AcDbMaterial
  1
ByLayer
 72
     1
 94
      127
  0
MATERIAL
  5
3E
102
{ACAD_REACTORS
330
3B
102
}
330
3B
100
AcDbMaterial
  1
Global
 72
     1
 94
      127
  0
MLINESTYLE
  5
18
102
{ACAD_REACTORS
330
17
102
}
330
17
100
AcDbMlineStyle
  2
Standard
 70
     0
  3

 62
   256
 51
90.0
 52
90.0
 71
     2
 49
0.5
 62
   256
  6
BYLAYER
 49
-0.5
 62
   256
  6
BYLAYER
  0
ACDBPLACEHOLDER
  5
F
102
{ACAD_REACTORS
330
E
102
}
330
E
  0
VISUALSTYLE
  5
2F
102
{ACAD_REACTORS
330
2A
102
}
330
2A
100
AcDbVisualStyle
  2
2dWireframe
 70
     4
177
     2
291
     0
 71
     0
176
     1
 72
     2
176
     1
 73
     0
176
     1
 90
        0
176
     1
 40
-0.6
176
     1
 41
-30.0
176
     1
 62
     5
 63
     7
421
 16777215
176
     1
 74
     1
176
     1
 91
        4
176
     1
 64
     7
176
     1
 65
   257
176
     1
 75
     1
176
     1
175
     1
176
     1
 42
1.0
176
     1
 92
        0
176
     1
 66
   257
176
     1
 43
1.0
176
     1
 76
     1
176
     1
 77
     6
176
     1
 78
     2
176
     1
 67
     7
176
     1
 79
     5
176
     1
170
     0
176
     1
171
     0
176
     1
290
     0
176
     1
 93
        1
176
     1
 44
0.0
176
     1
173
     0
176
     1
  0
VISUALSTYLE
  5
31
102
{ACAD_REACTORS
330
2A
102
}
330
2A
100
AcDbVisualStyle
  2
3D Hidden
 70
     6
177
     2
291
     0
 71
     1
176
     1
 72
     2
176
     1
 73
     2
176
     1
 90
        0
176
     1
 40
-0.6
176
     1
 41
-30.0
176
     1
 62
     5
 63
     7
421
 16777215
176
     1
 74
     2
176
     1
 91
        2
176
     1
 64
     7
176
     1
 65
   257
176
     1
 75
     2
176
     1
175
     1
176
     1
 42
40.0
176
     1
 92
        0
176
     1
 66
   257
176
     1
 43
1.0
176
     1
 76
     1
176
     1
 77
     6
176
     1
 78
     2
176
     1
 67
     7
176
     1
 79
     3
176
     1
170
     0
176
     1
171
     0
176
     1
290
     0
176
     1
 93
        1
176
     1
 44
0.0
176
     1
173
     0
176
     1
  0
VISUALSTYLE
  5
30
102
{ACAD_REACTORS
330
2A
102
}
330
2A
100
AcDbVisualStyle
  2
3dWireframe
 70
     5
177
     2
291
     0
 71
     0
176
     1
 72
     2
176
     1
 73
     0
176
     1
 90
        0
176
     1
 40
-0.6
176
     1
 41
-30.0
176
     1
 62
     5
 63
     7
421
 16777215
176
     1
 74
     1
176
     1
 91
        4
176
     1
 64
     7
176
     1
 65
   257
176
     1
 75
     1
176
     1
175
     1
176
     1
 42
1.0
176
     1
 92
        0
176
     1
 66
   257
176
     1
 43
1.0
176
     1
 76
     1
176
     1
 77
     6
176
     1
 78
     2
176
     1
 67
     7
176
     1
 79
     5
176
     1
170
     0
176
     1
171
     0
176
     1
290
     0
176
     1
 93
        1
176
     1
 44
0.0
176
     1
173
     0
176
     1
  0
VISUALSTYLE
  5
32
102
{ACAD_REACTORS
330
2A
102
}
330
2A
100
AcDbVisualStyle
  2
Basic
 70
     7
177
     2
291
     1
 71
     1
176
     1
 72
     0
176
     1
 73
     1
176
     1
 90
        0
176
     1
 40
-0.6
176
     1
 41
-30.0
176
     1
 62
     5
 63
     7
421
 16777215
176
     1
 74
     0
176
     1
 91
        4
176
     1
 64
     7
176
     1
 65
   257
176
     1
 75
     1
176
     1
175
     1
176
     1
 42
1.0
176
     1
 92
        8
176
     1
 66
     7
176
     1
 43
1.0
176
     1
 76
     1
176
     1
 77
     6
176
     1
 78
     2
176
     1
 67
     7
176
     1
 79
     5
176
     1
170
     0
176
     1
171
     0
176
     1
290
     0
176
     1
 93
        1
176
     1
 44
0.0
176
     1
173
     0
176
     1
  0
VISUALSTYLE
  5
36
102
{ACAD_REACTORS
330
2A
102
}
330
2A
100
AcDbVisualStyle
  2
Brighten
 70
    12
177
     2
291
     1
 71
     2
176
     1
 72
     2
176
     1
 73
     0
176
     1
 90
        0
176
     1
 40
-0.6
176
     1
 41
-30.0
176
     1
 62
     5
 63
     7
421
 16777215
176
     1
 74
     1
176
     1
 91
        4
176
     1
 64
     7
176
     1
 65
   257
176
     1
 75
     1
176
     1
175
     1
176
     1
 42
1.0
176
     1
 92
        8
176
     1
 66
     7
176
     1
 43
1.0
176
     1
 76
     1
176
     1
 77
     6
176
     1
 78
     2
176
     1
 67
     7
176
     1
 79
     5
176
     1
170
     0
176
     1
171
     0
176
     1
290
     0
176
     1
 93
        1
176
     1
 44
50.0
176
     1
173
     0
176
     1
  0
VISUALSTYLE
  5
3A
102
{ACAD_REACTORS
330
2A
102
}
330
2A
100
AcDbVisualStyle
  2
ColorChange
 70
    16
177
     2
291
     1
 71
     2
176
     1
 72
     2
176
     1
 73
     3
176
     1
 90
        0
176
     1
 40
-0.6
176
     1
 41
-30.0
176
     1
 62
     5
 63
     8
421
  8421504
176
     1
 74
     1
176
     1
 91
        4
176
     1
 64
     7
176
     1
 65
   257
176
     1
 75
     1
176
     1
175
     1
176
     1
 42
1.0
176
     1
 92
        8
176
     1
 66
     8
424
  8421504
176
     1
 43
1.0
176
     1
 76
     1
176
     1
 77
     6
176
     1
 78
     2
176
     1
 67
     7
176
     1
 79
     5
176
     1
170
     0
176
     1
171
     0
176
     1
290
     0
176
     1
 93
        1
176
     1
 44
0.0
176
     1
173
     0
176
     1
  0
VISUALSTYLE
  5
34
102
{ACAD_REACTORS
330
2A
102
}
330
2A
100
AcDbVisualStyle
  2
Conceptual
 70
     9
177
     2
291
     0
 71
     3
176
     1
 72
     2
176
     1
 73
     0
176
     1
 90
        0
176
     1
 40
-0.6
176
     1
 41
-30.0
176
     1
 62
     5
 63
     7
421
 16777215
176
     1
 74
     2
176
     1
 91
        2
176
     1
 64
     7
176
     1
 65
   257
176
     1
 75
     1
176
     1
175
     1
176
     1
 42
40.0
176
     1
 92
        8
176
     1
 66
     7
176
     1
 43
1.0
176
     1
 76
     1
176
     1
 77
     6
176
     1
 78
     2
176
     1
 67
     7
176
     1
 79
     3
176
     1
170
     0
176
     1
171
     0
176
     1
290
     0
176
     1
 93
        1
176
     1
 44
0.0
176
     1
173
     0
176
     1
  0
VISUALSTYLE
  5
35
102
{ACAD_REACTORS
330
2A
102
}
330
2A
100
AcDbVisualStyle
  2
Dim
 70
    11
177
     2
291
     1
 71
     2
176
     1
 72
     2
176
     1
 73
     0
176
     1
 90
        0
176
     1
 40
-0.6
176
     1
 41
-30.0
176
     1
 62
     5
 63
     7
421
 16777215
176
     1
 74
     1
176
     1
 91
        4
176
     1
 64
     7
176
     1
 65
   257
176
     1
 75
     1
176
     1
175
     1
176
     1
 42
1.0
176
     1
 92
        8
176
     1
 66
     7
176
     1
 43
1.0
176
     1
 76
     1
176
     1
 77
     6
176
     1
 78
     2
176
     1
 67
     7
176
     1
 79
     5
176
     1
170
     0
176
     1
171
     0
176
     1
290
     0
176
     1
 93
        1
176
     1
 44
-50.0
176
     1
173
     0
176
     1
  0
VISUALSTYLE
  5
39
102
{ACAD_REACTORS
330
2A
102
}
330
2A
100
AcDbVisualStyle
  2
Facepattern
 70
    15
177
     2
291
     1
 71
     2
176
     1
 72
     2
176
     1
 73
     0
176
     1
 90
        0
176
     1
 40
-0.6
176
     1
 41
-30.0
176
     1
 62
     5
 63
     7
421
 16777215
176
     1
 74
     1
176
     1
 91
        4
176
     1
 64
     7
176
     1
 65
   257
176
     1
 75
     1
176
     1
175
     1
176
     1
 42
1.0
176
     1
 92
        8
176
     1
 66
     7
176
     1
 43
1.0
176
     1
 76
     1
176
     1
 77
     6
176
     1
 78
     2
176
     1
 67
     7
176
     1
 79
     5
176
     1
170
     0
176
     1
171
     0
176
     1
290
     0
176
     1
 93
        1
176
     1
 44
0.0
176
     1
173
     0
176
     1
  0
VISUALSTYLE
  5
2B
102
{ACAD_REACTORS
330
2A
102
}
330
2A
100
AcDbVisualStyle
  2
Flat
 70
     0
177
     2
291
     1
 71
     2
176
     1
 72
     1
176
     1
 73
     1
176
     1
 90
        2
176
     1
 40
-0.6
176
     1
 41
30.0
176
     1
 62
     5
 63
     7
421
 16777215
176
     1
 74
     0
176
     1
 91
        4
176
     1
 64
     7
176
     1
 65
   257
176
     1
 75
     1
176
     1
175
     1
176
     1
 42
1.0
176
     1
 92
        8
176
     1
 66
     7
176
     1
 43
1.0
176
     1
 76
     1
176
     1
 77
     6
176
     1
 78
     2
176
     1
 67
     7
176
     1
 79
     5
176
     1
170
     0
176
     1
171
     0
176
     1
290
     0
176
     1
 93
       13
176
     1
 44
0.0
176
     1
173
     0
176
     1
  0
VISUALSTYLE
  5
2C
102
{ACAD_REACTORS
330
2A
102
}
330
2A
100
AcDbVisualStyle
  2
FlatWithEdges
 70
     1
177
     2
291
     1
 71
     2
176
     1
 72
     1
176
     1
 73
     1
176
     1
 90
        2
176
     1
 40
-0.6
176
     1
 41
30.0
176
     1
 62
     5
 63
     7
421
 16777215
176
     1
 74
     1
176
     1
 91
        4
176
     1
 64
     7
176
     1
 65
   257
176
     1
 75
     1
176
     1
175
     1
176
     1
 42
1.0
176
     1
 92
        0
176
     1
 66
   257
176
     1
 43
1.0
176
     1
 76
     1
176
     1
 77
     6
176
     1
 78
     2
176
     1
 67
     7
176
     1
 79
     5
176
     1
170
     0
176
     1
171
     0
176
     1
290
     0
176
     1
 93
       13
176
     1
 44
0.0
176
     1
173
     0
176
     1
  0
VISUALSTYLE
  5
2D
102
{ACAD_REACTORS
330
2A
102
}
330
2A
100
AcDbVisualStyle
  2
Gouraud
 70
     2
177
     2
291
     1
 71
     2
176
     1
 72
     2
176
     1
 73
     1
176
     1
 90
        2
176
     1
 40
-0.6
176
     1
 41
30.0
176
     1
 62
     5
 63
     7
421
 16777215
176
     1
 74
     0
176
     1
 91
        4
176
     1
 64
     7
176
     1
 65
   257
176
     1
 75
     1
176
     1
175
     1
176
     1
 42
1.0
176
     1
 92
        0
176
     1
 66
     7
176
     1
 43
1.0
176
     1
 76
     1
176
     1
 77
     6
176
     1
 78
     2
176
     1
 67
     7
176
     1
 79
     5
176
     1
170
     0
176
     1
171
     0
176
     1
290
     0
176
     1
 93
       13
176
     1
 44
0.0
176
     1
173
     0
176
     1
  0
VISUALSTYLE
  5
2E
102
{ACAD_REACTORS
330
2A
102
}
330
2A
100
AcDbVisualStyle
  2
GouraudWithEdges
 70
     3
177
     2
291
     1
 71
     2
176
     1
 72
     2
176
     1
 73
     1
176
     1
 90
        2
176
     1
 40
-0.6
176
     1
 41
30.0
176
     1
 62
     5
 63
     7
421
 16777215
176
     1
 74
     1
176
     1
 91
        4
176
     1
 64
     7
176
     1
 65
   257
176
     1
 75
     1
176
     1
175
     1
176
     1
 42
1.0
176
     1
 92
        0
176
     1
 66
   257
176
     1
 43
1.0
176
     1
 76
     1
176
     1
 77
     6
176
     1
 78
     2
176
     1
 67
     7
176
     1
 79
     5
176
     1
170
     0
176
     1
171
     0
176
     1
290
     0
176
     1
 93
       13
176
     1
 44
0.0
176
     1
173
     0
176
     1
  0
VISUALSTYLE
  5
38
102
{ACAD_REACTORS
330
2A
102
}
330
2A
100
AcDbVisualStyle
  2
Linepattern
 70
    14
177
     2
291
     1
 71
     2
176
     1
 72
     2
176
     1
 73
     0
176
     1
 90
        0
176
     1
 40
-0.6
176
     1
 41
-30.0
176
     1
 62
     5
 63
     7
421
 16777215
176
     1
 74
     1
176
     1
 91
        4
176
     1
 64
     7
176
     1
 65
   257
176
     1
 75
     7
176
     1
175
     7
176
     1
 42
1.0
176
     1
 92
        8
176
     1
 66
     7
176
     1
 43
1.0
176
     1
 76
     1
176
     1
 77
     6
176
     1
 78
     2
176
     1
 67
     7
176
     1
 79
     5
176
     1
170
     0
176
     1
171
     0
176
     1
290
     0
176
     1
 93
        1
176
     1
 44
0.0
176
     1
173
     0
176
     1
  0
VISUALSTYLE
  5
33
102
{ACAD_REACTORS
330
2A
102
}
330
2A
100
AcDbVisualStyle
  2
Realistic
 70
     8
177
     2
291
     0
 71
     2
176
     1
 72
     2
176
     1
 73
     0
176
     1
 90
        0
176
     1
 40
-0.6
176
     1
 41
-30.0
176
     1
 62
     5
 63
     7
421
 16777215
176
     1
 74
     1
176
     1
 91
        0
176
     1
 64
     7
176
     1
 65
   257
176
     1
 75
     1
176
     1
175
     1
176
     1
 42
1.0
176
     1
 92
        8
176
     1
 66
     8
424
  7895160
176
     1
 43
1.0
176
     1
 76
     1
176
     1
 77
     6
176
     1
 78
     2
176
     1
 67
     7
176
     1
 79
     5
176
     1
170
     0
176
     1
171
     0
176
     1
290
     0
176
     1
 93
       13
176
     1
 44
0.0
176
     1
173
     0
176
     1
  0
VISUALSTYLE
  5
37
102
{ACAD_REACTORS
330
2A
102
}
330
2A
100
AcDbVisualStyle
  2
Thicken
 70
    13
177
     2
291
     1
 71
     2
176
     1
 72
     2
176
     1
 73
     0
176
     1
 90
        0
176
     1
 40
-0.6
176
     1
 41
-30.0
176
     1
 62
     5
 63
     7
421
 16777215
176
     1
 74
     1
176
     1
 91
        4
176
     1
 64
     7
176
     1
 65
   257
176
     1
 75
     1
176
     1
175
     1
176
     1
 42
1.0
176
     1
 92
       12
176
     1
 66
     7
176
     1
 43
1.0
176
     1
 76
     1
176
     1
 77
     6
176
     1
 78
     2
176
     1
 67
     7
176
     1
 79
     5
176
     1
170
     0
176
     1
171
     0
176
     1
290
     0
176
     1
 93
        1
176
     1
 44
0.0
176
     1
173
     0
176
     1
  0
ENDSEC
  0
EOF
